0
SECTION
2
HEADER
9
$ACADVER
1
AC1006
9
$INSUNITS
70
6
0
ENDSEC
0
SECTION
2
ENTITIES
0
POLYLINE
8
0
62
5
66
1
10
0
20
0
30
0
70
8
0
VERTEX
8
0
62
5
10
0
20
0
30
0
70
32
0
VERTEX
8
0
62
5
10
0
20
0.1
30
0
70
32
0
SEQEND
8
0
0
POLYLINE
8
0
62
5
66
1
10
0
20
0
30
0
70
8
0
VERTEX
8
0
62
5
10
0.11313708
20
0
30
0
70
32
0
VERTEX
8
0
62
5
10
0.11313708
20
0.1
30
0
70
32
0
SEQEND
8
0
0
POLYLINE
8
0
62
5
66
1
10
0
20
0
30
0
70
8
0
VERTEX
8
0
62
5
10
0.028284271
20
0
30
0
70
32
0
VERTEX
8
0
62
5
10
0.028284271
20
0.1
30
0
70
32
0
SEQEND
8
0
0
POLYLINE
8
0
62
5
66
1
10
0
20
0
30
0
70
8
0
VERTEX
8
0
62
5
10
0.056568542
20
0
30
0
70
32
0
VERTEX
8
0
62
5
10
0.056568542
20
0.1
30
0
70
32
0
SEQEND
8
0
0
POLYLINE
8
0
62
5
66
1
10
0
20
0
30
0
70
8
0
VERTEX
8
0
62
5
10
0.084852814
20
0
30
0
70
32
0
VERTEX
8
0
62
5
10
0.084852814
20
0.1
30
0
70
32
0
SEQEND
8
0
0
POLYLINE
8
0
62
5
66
1
10
0
20
0
30
0
70
8
0
VERTEX
8
0
62
5
10
0.22627417
20
0
30
0
70
32
0
VERTEX
8
0
62
5
10
0.22627417
20
0.1
30
0
70
32
0
SEQEND
8
0
0
POLYLINE
8
0
62
5
66
1
10
0
20
0
30
0
70
8
0
VERTEX
8
0
62
5
10
0.14142136
20
0
30
0
70
32
0
VERTEX
8
0
62
5
10
0.14142136
20
0.1
30
0
70
32
0
SEQEND
8
0
0
POLYLINE
8
0
62
5
66
1
10
0
20
0
30
0
70
8
0
VERTEX
8
0
62
5
10
0.16970563
20
0
30
0
70
32
0
VERTEX
8
0
62
5
10
0.16970563
20
0.1
30
0
70
32
0
SEQEND
8
0
0
POLYLINE
8
0
62
5
66
1
10
0
20
0
30
0
70
8
0
VERTEX
8
0
62
5
10
0.1979899
20
0
30
0
70
32
0
VERTEX
8
0
62
5
10
0.1979899
20
0.1
30
0
70
32
0
SEQEND
8
0
0
POLYLINE
8
0
62
5
66
1
10
0
20
0
30
0
70
8
0
VERTEX
8
0
62
5
10
-0.11313708
20
0
30
0
70
32
0
VERTEX
8
0
62
5
10
-0.11313708
20
0.1
30
0
70
32
0
SEQEND
8
0
0
POLYLINE
8
0
62
5
66
1
10
0
20
0
30
0
70
8
0
VERTEX
8
0
62
5
10
-0.084852814
20
0
30
0
70
32
0
VERTEX
8
0
62
5
10
-0.084852814
20
0.1
30
0
70
32
0
SEQEND
8
0
0
POLYLINE
8
0
62
5
66
1
10
0
20
0
30
0
70
8
0
VERTEX
8
0
62
5
10
-0.056568542
20
0
30
0
70
32
0
VERTEX
8
0
62
5
10
-0.056568542
20
0.1
30
0
70
32
0
SEQEND
8
0
0
POLYLINE
8
0
62
5
66
1
10
0
20
0
30
0
70
8
0
VERTEX
8
0
62
5
10
-0.028284271
20
0
30
0
70
32
0
VERTEX
8
0
62
5
10
-0.028284271
20
0.1
30
0
70
32
0
SEQEND
8
0
0
POLYLINE
8
0
62
5
66
1
10
0
20
0
30
0
70
8
0
VERTEX
8
0
62
5
10
0
20
0.1
30
0
70
32
0
VERTEX
8
0
62
5
10
0
20
0.14
30
0
70
32
0
SEQEND
8
0
0
POLYLINE
8
0
62
5
66
1
10
0
20
0
30
0
70
8
0
VERTEX
8
0
62
5
10
0.11313708
20
0.14
30
0
70
32
0
VERTEX
8
0
62
5
10
0.11313708
20
0.1
30
0
70
32
0
SEQEND
8
0
0
POLYLINE
8
0
62
5
66
1
10
0
20
0
30
0
70
8
0
VERTEX
8
0
62
5
10
0
20
0.1
30
0
70
32
0
VERTEX
8
0
62
5
10
0.11313708
20
0.1
30
0
70
32
0
SEQEND
8
0
0
POLYLINE
8
0
62
5
66
1
10
0
20
0
30
0
70
8
0
VERTEX
8
0
62
5
10
0
20
0.14
30
0
70
32
0
VERTEX
8
0
62
5
10
0.11313708
20
0.14
30
0
70
32
0
SEQEND
8
0
0
POLYLINE
8
0
62
5
66
1
10
0
20
0
30
0
70
8
0
VERTEX
8
0
62
5
10
0.028284271
20
0.1
30
0
70
32
0
VERTEX
8
0
62
5
10
0.028284271
20
0.1
30
0
70
32
0
SEQEND
8
0
0
POLYLINE
8
0
62
5
66
1
10
0
20
0
30
0
70
8
0
VERTEX
8
0
62
5
10
0.056568542
20
0.1
30
0
70
32
0
VERTEX
8
0
62
5
10
0.056568542
20
0.1
30
0
70
32
0
SEQEND
8
0
0
POLYLINE
8
0
62
5
66
1
10
0
20
0
30
0
70
8
0
VERTEX
8
0
62
5
10
0.084852814
20
0.1
30
0
70
32
0
VERTEX
8
0
62
5
10
0.084852814
20
0.1
30
0
70
32
0
SEQEND
8
0
0
POLYLINE
8
0
62
5
66
1
10
0
20
0
30
0
70
8
0
VERTEX
8
0
62
5
10
0.028284271
20
0.14
30
0
70
32
0
VERTEX
8
0
62
5
10
0.028284271
20
0.14
30
0
70
32
0
SEQEND
8
0
0
POLYLINE
8
0
62
5
66
1
10
0
20
0
30
0
70
8
0
VERTEX
8
0
62
5
10
0.056568542
20
0.14
30
0
70
32
0
VERTEX
8
0
62
5
10
0.056568542
20
0.14
30
0
70
32
0
SEQEND
8
0
0
POLYLINE
8
0
62
5
66
1
10
0
20
0
30
0
70
8
0
VERTEX
8
0
62
5
10
0.084852814
20
0.14
30
0
70
32
0
VERTEX
8
0
62
5
10
0.084852814
20
0.14
30
0
70
32
0
SEQEND
8
0
0
POLYLINE
8
0
62
30
66
1
10
0
20
0
30
0
70
8
0
VERTEX
8
0
62
30
10
0
20
0.14
30
0
70
32
0
VERTEX
8
0
62
30
10
0.028284271
20
0.1
30
0
70
32
0
SEQEND
8
0
0
POLYLINE
8
0
62
30
66
1
10
0
20
0
30
0
70
8
0
VERTEX
8
0
62
30
10
0.028284271
20
0.14
30
0
70
32
0
VERTEX
8
0
62
30
10
0
20
0.1
30
0
70
32
0
SEQEND
8
0
0
POLYLINE
8
0
62
30
66
1
10
0
20
0
30
0
70
8
0
VERTEX
8
0
62
30
10
0.056568542
20
0.14
30
0
70
32
0
VERTEX
8
0
62
30
10
0.084852814
20
0.1
30
0
70
32
0
SEQEND
8
0
0
POLYLINE
8
0
62
30
66
1
10
0
20
0
30
0
70
8
0
VERTEX
8
0
62
30
10
0.084852814
20
0.14
30
0
70
32
0
VERTEX
8
0
62
30
10
0.056568542
20
0.1
30
0
70
32
0
SEQEND
8
0
0
POLYLINE
8
0
62
30
66
1
10
0
20
0
30
0
70
8
0
VERTEX
8
0
62
30
10
0.028284271
20
0.12
30
0
70
32
0
VERTEX
8
0
62
30
10
0.056568542
20
0.12
30
0
70
32
0
SEQEND
8
0
0
POLYLINE
8
0
62
30
66
1
10
0
20
0
30
0
70
8
0
VERTEX
8
0
62
30
10
0.084852814
20
0.12
30
0
70
32
0
VERTEX
8
0
62
30
10
0.11313708
20
0.12
30
0
70
32
0
SEQEND
8
0
0
POLYLINE
8
0
62
5
66
1
10
0
20
0
30
0
70
8
0
VERTEX
8
0
62
5
10
0
20
0.12
30
0
70
32
0
VERTEX
8
0
62
5
10
0.014142136
20
0.12
30
0
70
32
0
SEQEND
8
0
0
POLYLINE
8
0
62
5
66
1
10
0
20
0
30
0
70
8
0
VERTEX
8
0
62
5
10
0.056568542
20
0.12
30
0
70
32
0
VERTEX
8
0
62
5
10
0.070710678
20
0.12
30
0
70
32
0
SEQEND
8
0
0
POLYLINE
8
0
62
5
66
1
10
0
20
0
30
0
70
8
0
VERTEX
8
0
62
5
10
0.014142136
20
0.12
30
0
70
32
0
VERTEX
8
0
62
5
10
0.028284271
20
0.12
30
0
70
32
0
SEQEND
8
0
0
POLYLINE
8
0
62
5
66
1
10
0
20
0
30
0
70
8
0
VERTEX
8
0
62
5
10
0.070710678
20
0.12
30
0
70
32
0
VERTEX
8
0
62
5
10
0.084852814
20
0.12
30
0
70
32
0
SEQEND
8
0
0
POLYLINE
8
0
62
5
66
1
10
0
20
0
30
0
70
8
0
VERTEX
8
0
62
5
10
0.028284271
20
0.1
30
0
70
32
0
VERTEX
8
0
62
5
10
0.028284271
20
0.14
30
0
70
32
0
SEQEND
8
0
0
POLYLINE
8
0
62
5
66
1
10
0
20
0
30
0
70
8
0
VERTEX
8
0
62
5
10
0.056568542
20
0.1
30
0
70
32
0
VERTEX
8
0
62
5
10
0.056568542
20
0.14
30
0
70
32
0
SEQEND
8
0
0
POLYLINE
8
0
62
5
66
1
10
0
20
0
30
0
70
8
0
VERTEX
8
0
62
5
10
0.084852814
20
0.1
30
0
70
32
0
VERTEX
8
0
62
5
10
0.084852814
20
0.14
30
0
70
32
0
SEQEND
8
0
0
POLYLINE
8
0
62
5
66
1
10
0
20
0
30
0
70
8
0
VERTEX
8
0
62
5
10
0
20
0.1
30
0
70
32
0
VERTEX
8
0
62
5
10
0
20
0.14
30
0
70
32
0
SEQEND
8
0
0
POLYLINE
8
0
62
5
66
1
10
0
20
0
30
0
70
8
0
VERTEX
8
0
62
5
10
0.22627417
20
0.14
30
0
70
32
0
VERTEX
8
0
62
5
10
0.22627417
20
0.1
30
0
70
32
0
SEQEND
8
0
0
POLYLINE
8
0
62
5
66
1
10
0
20
0
30
0
70
8
0
VERTEX
8
0
62
5
10
0.11313708
20
0.1
30
0
70
32
0
VERTEX
8
0
62
5
10
0.22627417
20
0.1
30
0
70
32
0
SEQEND
8
0
0
POLYLINE
8
0
62
5
66
1
10
0
20
0
30
0
70
8
0
VERTEX
8
0
62
5
10
0.11313708
20
0.14
30
0
70
32
0
VERTEX
8
0
62
5
10
0.22627417
20
0.14
30
0
70
32
0
SEQEND
8
0
0
POLYLINE
8
0
62
5
66
1
10
0
20
0
30
0
70
8
0
VERTEX
8
0
62
5
10
0.14142136
20
0.1
30
0
70
32
0
VERTEX
8
0
62
5
10
0.14142136
20
0.1
30
0
70
32
0
SEQEND
8
0
0
POLYLINE
8
0
62
5
66
1
10
0
20
0
30
0
70
8
0
VERTEX
8
0
62
5
10
0.16970563
20
0.1
30
0
70
32
0
VERTEX
8
0
62
5
10
0.16970563
20
0.1
30
0
70
32
0
SEQEND
8
0
0
POLYLINE
8
0
62
5
66
1
10
0
20
0
30
0
70
8
0
VERTEX
8
0
62
5
10
0.1979899
20
0.1
30
0
70
32
0
VERTEX
8
0
62
5
10
0.1979899
20
0.1
30
0
70
32
0
SEQEND
8
0
0
POLYLINE
8
0
62
5
66
1
10
0
20
0
30
0
70
8
0
VERTEX
8
0
62
5
10
0.14142136
20
0.14
30
0
70
32
0
VERTEX
8
0
62
5
10
0.14142136
20
0.14
30
0
70
32
0
SEQEND
8
0
0
POLYLINE
8
0
62
5
66
1
10
0
20
0
30
0
70
8
0
VERTEX
8
0
62
5
10
0.16970563
20
0.14
30
0
70
32
0
VERTEX
8
0
62
5
10
0.16970563
20
0.14
30
0
70
32
0
SEQEND
8
0
0
POLYLINE
8
0
62
5
66
1
10
0
20
0
30
0
70
8
0
VERTEX
8
0
62
5
10
0.1979899
20
0.14
30
0
70
32
0
VERTEX
8
0
62
5
10
0.1979899
20
0.14
30
0
70
32
0
SEQEND
8
0
0
POLYLINE
8
0
62
30
66
1
10
0
20
0
30
0
70
8
0
VERTEX
8
0
62
30
10
0.11313708
20
0.14
30
0
70
32
0
VERTEX
8
0
62
30
10
0.14142136
20
0.1
30
0
70
32
0
SEQEND
8
0
0
POLYLINE
8
0
62
30
66
1
10
0
20
0
30
0
70
8
0
VERTEX
8
0
62
30
10
0.14142136
20
0.14
30
0
70
32
0
VERTEX
8
0
62
30
10
0.11313708
20
0.1
30
0
70
32
0
SEQEND
8
0
0
POLYLINE
8
0
62
30
66
1
10
0
20
0
30
0
70
8
0
VERTEX
8
0
62
30
10
0.16970563
20
0.14
30
0
70
32
0
VERTEX
8
0
62
30
10
0.1979899
20
0.1
30
0
70
32
0
SEQEND
8
0
0
POLYLINE
8
0
62
30
66
1
10
0
20
0
30
0
70
8
0
VERTEX
8
0
62
30
10
0.1979899
20
0.14
30
0
70
32
0
VERTEX
8
0
62
30
10
0.16970563
20
0.1
30
0
70
32
0
SEQEND
8
0
0
POLYLINE
8
0
62
30
66
1
10
0
20
0
30
0
70
8
0
VERTEX
8
0
62
30
10
0.14142136
20
0.12
30
0
70
32
0
VERTEX
8
0
62
30
10
0.16970563
20
0.12
30
0
70
32
0
SEQEND
8
0
0
POLYLINE
8
0
62
30
66
1
10
0
20
0
30
0
70
8
0
VERTEX
8
0
62
30
10
0.1979899
20
0.12
30
0
70
32
0
VERTEX
8
0
62
30
10
0.22627417
20
0.12
30
0
70
32
0
SEQEND
8
0
0
POLYLINE
8
0
62
5
66
1
10
0
20
0
30
0
70
8
0
VERTEX
8
0
62
5
10
0.11313708
20
0.12
30
0
70
32
0
VERTEX
8
0
62
5
10
0.12727922
20
0.12
30
0
70
32
0
SEQEND
8
0
0
POLYLINE
8
0
62
5
66
1
10
0
20
0
30
0
70
8
0
VERTEX
8
0
62
5
10
0.16970563
20
0.12
30
0
70
32
0
VERTEX
8
0
62
5
10
0.18384776
20
0.12
30
0
70
32
0
SEQEND
8
0
0
POLYLINE
8
0
62
5
66
1
10
0
20
0
30
0
70
8
0
VERTEX
8
0
62
5
10
0.12727922
20
0.12
30
0
70
32
0
VERTEX
8
0
62
5
10
0.14142136
20
0.12
30
0
70
32
0
SEQEND
8
0
0
POLYLINE
8
0
62
5
66
1
10
0
20
0
30
0
70
8
0
VERTEX
8
0
62
5
10
0.18384776
20
0.12
30
0
70
32
0
VERTEX
8
0
62
5
10
0.1979899
20
0.12
30
0
70
32
0
SEQEND
8
0
0
POLYLINE
8
0
62
5
66
1
10
0
20
0
30
0
70
8
0
VERTEX
8
0
62
5
10
0.14142136
20
0.1
30
0
70
32
0
VERTEX
8
0
62
5
10
0.14142136
20
0.14
30
0
70
32
0
SEQEND
8
0
0
POLYLINE
8
0
62
5
66
1
10
0
20
0
30
0
70
8
0
VERTEX
8
0
62
5
10
0.16970563
20
0.1
30
0
70
32
0
VERTEX
8
0
62
5
10
0.16970563
20
0.14
30
0
70
32
0
SEQEND
8
0
0
POLYLINE
8
0
62
5
66
1
10
0
20
0
30
0
70
8
0
VERTEX
8
0
62
5
10
0.1979899
20
0.1
30
0
70
32
0
VERTEX
8
0
62
5
10
0.1979899
20
0.14
30
0
70
32
0
SEQEND
8
0
0
POLYLINE
8
0
62
5
66
1
10
0
20
0
30
0
70
8
0
VERTEX
8
0
62
5
10
0.11313708
20
0.1
30
0
70
32
0
VERTEX
8
0
62
5
10
0.11313708
20
0.14
30
0
70
32
0
SEQEND
8
0
0
POLYLINE
8
0
62
5
66
1
10
0
20
0
30
0
70
8
0
VERTEX
8
0
62
5
10
-0.11313708
20
0.1
30
0
70
32
0
VERTEX
8
0
62
5
10
-0.11313708
20
0.14
30
0
70
32
0
SEQEND
8
0
0
POLYLINE
8
0
62
5
66
1
10
0
20
0
30
0
70
8
0
VERTEX
8
0
62
5
10
-0.11313708
20
0.1
30
0
70
32
0
VERTEX
8
0
62
5
10
0
20
0.1
30
0
70
32
0
SEQEND
8
0
0
POLYLINE
8
0
62
5
66
1
10
0
20
0
30
0
70
8
0
VERTEX
8
0
62
5
10
-0.11313708
20
0.14
30
0
70
32
0
VERTEX
8
0
62
5
10
0
20
0.14
30
0
70
32
0
SEQEND
8
0
0
POLYLINE
8
0
62
5
66
1
10
0
20
0
30
0
70
8
0
VERTEX
8
0
62
5
10
-0.084852814
20
0.1
30
0
70
32
0
VERTEX
8
0
62
5
10
-0.084852814
20
0.1
30
0
70
32
0
SEQEND
8
0
0
POLYLINE
8
0
62
5
66
1
10
0
20
0
30
0
70
8
0
VERTEX
8
0
62
5
10
-0.056568542
20
0.1
30
0
70
32
0
VERTEX
8
0
62
5
10
-0.056568542
20
0.1
30
0
70
32
0
SEQEND
8
0
0
POLYLINE
8
0
62
5
66
1
10
0
20
0
30
0
70
8
0
VERTEX
8
0
62
5
10
-0.028284271
20
0.1
30
0
70
32
0
VERTEX
8
0
62
5
10
-0.028284271
20
0.1
30
0
70
32
0
SEQEND
8
0
0
POLYLINE
8
0
62
5
66
1
10
0
20
0
30
0
70
8
0
VERTEX
8
0
62
5
10
-0.084852814
20
0.14
30
0
70
32
0
VERTEX
8
0
62
5
10
-0.084852814
20
0.14
30
0
70
32
0
SEQEND
8
0
0
POLYLINE
8
0
62
5
66
1
10
0
20
0
30
0
70
8
0
VERTEX
8
0
62
5
10
-0.056568542
20
0.14
30
0
70
32
0
VERTEX
8
0
62
5
10
-0.056568542
20
0.14
30
0
70
32
0
SEQEND
8
0
0
POLYLINE
8
0
62
5
66
1
10
0
20
0
30
0
70
8
0
VERTEX
8
0
62
5
10
-0.028284271
20
0.14
30
0
70
32
0
VERTEX
8
0
62
5
10
-0.028284271
20
0.14
30
0
70
32
0
SEQEND
8
0
0
POLYLINE
8
0
62
30
66
1
10
0
20
0
30
0
70
8
0
VERTEX
8
0
62
30
10
-0.11313708
20
0.14
30
0
70
32
0
VERTEX
8
0
62
30
10
-0.084852814
20
0.1
30
0
70
32
0
SEQEND
8
0
0
POLYLINE
8
0
62
30
66
1
10
0
20
0
30
0
70
8
0
VERTEX
8
0
62
30
10
-0.084852814
20
0.14
30
0
70
32
0
VERTEX
8
0
62
30
10
-0.11313708
20
0.1
30
0
70
32
0
SEQEND
8
0
0
POLYLINE
8
0
62
30
66
1
10
0
20
0
30
0
70
8
0
VERTEX
8
0
62
30
10
-0.056568542
20
0.14
30
0
70
32
0
VERTEX
8
0
62
30
10
-0.028284271
20
0.1
30
0
70
32
0
SEQEND
8
0
0
POLYLINE
8
0
62
30
66
1
10
0
20
0
30
0
70
8
0
VERTEX
8
0
62
30
10
-0.028284271
20
0.14
30
0
70
32
0
VERTEX
8
0
62
30
10
-0.056568542
20
0.1
30
0
70
32
0
SEQEND
8
0
0
POLYLINE
8
0
62
30
66
1
10
0
20
0
30
0
70
8
0
VERTEX
8
0
62
30
10
-0.084852814
20
0.12
30
0
70
32
0
VERTEX
8
0
62
30
10
-0.056568542
20
0.12
30
0
70
32
0
SEQEND
8
0
0
POLYLINE
8
0
62
30
66
1
10
0
20
0
30
0
70
8
0
VERTEX
8
0
62
30
10
-0.028284271
20
0.12
30
0
70
32
0
VERTEX
8
0
62
30
10
0
20
0.12
30
0
70
32
0
SEQEND
8
0
0
POLYLINE
8
0
62
5
66
1
10
0
20
0
30
0
70
8
0
VERTEX
8
0
62
5
10
-0.11313708
20
0.12
30
0
70
32
0
VERTEX
8
0
62
5
10
-0.098994949
20
0.12
30
0
70
32
0
SEQEND
8
0
0
POLYLINE
8
0
62
5
66
1
10
0
20
0
30
0
70
8
0
VERTEX
8
0
62
5
10
-0.056568542
20
0.12
30
0
70
32
0
VERTEX
8
0
62
5
10
-0.042426407
20
0.12
30
0
70
32
0
SEQEND
8
0
0
POLYLINE
8
0
62
5
66
1
10
0
20
0
30
0
70
8
0
VERTEX
8
0
62
5
10
-0.098994949
20
0.12
30
0
70
32
0
VERTEX
8
0
62
5
10
-0.084852814
20
0.12
30
0
70
32
0
SEQEND
8
0
0
POLYLINE
8
0
62
5
66
1
10
0
20
0
30
0
70
8
0
VERTEX
8
0
62
5
10
-0.042426407
20
0.12
30
0
70
32
0
VERTEX
8
0
62
5
10
-0.028284271
20
0.12
30
0
70
32
0
SEQEND
8
0
0
POLYLINE
8
0
62
5
66
1
10
0
20
0
30
0
70
8
0
VERTEX
8
0
62
5
10
-0.084852814
20
0.1
30
0
70
32
0
VERTEX
8
0
62
5
10
-0.084852814
20
0.14
30
0
70
32
0
SEQEND
8
0
0
POLYLINE
8
0
62
5
66
1
10
0
20
0
30
0
70
8
0
VERTEX
8
0
62
5
10
-0.056568542
20
0.1
30
0
70
32
0
VERTEX
8
0
62
5
10
-0.056568542
20
0.14
30
0
70
32
0
SEQEND
8
0
0
POLYLINE
8
0
62
5
66
1
10
0
20
0
30
0
70
8
0
VERTEX
8
0
62
5
10
-0.028284271
20
0.1
30
0
70
32
0
VERTEX
8
0
62
5
10
-0.028284271
20
0.14
30
0
70
32
0
SEQEND
8
0
0
POLYLINE
8
0
62
5
66
1
10
0
20
0
30
0
70
8
0
VERTEX
8
0
62
5
10
-0.11313708
20
0.1
30
0
70
32
0
VERTEX
8
0
62
5
10
-0.11313708
20
0.14
30
0
70
32
0
SEQEND
8
0
0
POLYLINE
8
0
62
5
66
1
10
0
20
0
30
0
70
8
0
VERTEX
8
0
62
5
10
0
20
0.14
30
0
70
32
0
VERTEX
8
0
62
5
10
0
20
0.21773369
30
0
70
32
0
SEQEND
8
0
0
POLYLINE
8
0
62
5
66
1
10
0
20
0
30
0
70
8
0
VERTEX
8
0
62
5
10
0.11313708
20
0.21773369
30
0
70
32
0
VERTEX
8
0
62
5
10
0.11313708
20
0.14
30
0
70
32
0
SEQEND
8
0
0
POLYLINE
8
0
62
5
66
1
10
0
20
0
30
0
70
8
0
VERTEX
8
0
62
5
10
0
20
0.1432003
30
0
70
32
0
VERTEX
8
0
62
5
10
0.028284271
20
0.14343062
30
0
70
32
0
VERTEX
8
0
62
5
10
0.056568542
20
0.15943342
30
0
70
32
0
VERTEX
8
0
62
5
10
0.084852814
20
0.15920309
30
0
70
32
0
VERTEX
8
0
62
5
10
0.11313708
20
0.1432003
30
0
70
32
0
SEQEND
8
0
0
POLYLINE
8
0
62
5
66
1
10
0
20
0
30
0
70
8
0
VERTEX
8
0
62
5
10
0
20
0.18206714
30
0
70
32
0
VERTEX
8
0
62
5
10
0.028284271
20
0.18229747
30
0
70
32
0
VERTEX
8
0
62
5
10
0.056568542
20
0.19830027
30
0
70
32
0
VERTEX
8
0
62
5
10
0.084852814
20
0.19806994
30
0
70
32
0
VERTEX
8
0
62
5
10
0.11313708
20
0.18206714
30
0
70
32
0
SEQEND
8
0
0
POLYLINE
8
0
62
5
66
1
10
0
20
0
30
0
70
8
0
VERTEX
8
0
62
5
10
0
20
0.17566655
30
0
70
32
0
VERTEX
8
0
62
5
10
0.028284271
20
0.17543622
30
0
70
32
0
VERTEX
8
0
62
5
10
0.056568542
20
0.15943342
30
0
70
32
0
VERTEX
8
0
62
5
10
0.084852814
20
0.15966375
30
0
70
32
0
VERTEX
8
0
62
5
10
0.11313708
20
0.17566655
30
0
70
32
0
SEQEND
8
0
0
POLYLINE
8
0
62
5
66
1
10
0
20
0
30
0
70
8
0
VERTEX
8
0
62
5
10
0
20
0.2145334
30
0
70
32
0
VERTEX
8
0
62
5
10
0.028284271
20
0.21430307
30
0
70
32
0
VERTEX
8
0
62
5
10
0.056568542
20
0.19830027
30
0
70
32
0
VERTEX
8
0
62
5
10
0.084852814
20
0.1985306
30
0
70
32
0
VERTEX
8
0
62
5
10
0.11313708
20
0.2145334
30
0
70
32
0
SEQEND
8
0
0
POLYLINE
8
0
62
30
66
1
10
0
20
0
30
0
70
8
0
VERTEX
8
0
62
30
10
0
20
0.15943342
30
0
70
32
0
VERTEX
8
0
62
30
10
0.11313708
20
0.15943342
30
0
70
32
0
SEQEND
8
0
0
POLYLINE
8
0
62
30
66
1
10
0
20
0
30
0
70
8
0
VERTEX
8
0
62
30
10
0
20
0.19830027
30
0
70
32
0
VERTEX
8
0
62
30
10
0.11313708
20
0.19830027
30
0
70
32
0
SEQEND
8
0
0
POLYLINE
8
0
62
30
66
1
10
0
20
0
30
0
70
8
0
VERTEX
8
0
62
30
10
0.028284271
20
0.14343062
30
0
70
32
0
VERTEX
8
0
62
30
10
0.028284271
20
0.15943342
30
0
70
32
0
SEQEND
8
0
0
POLYLINE
8
0
62
30
66
1
10
0
20
0
30
0
70
8
0
VERTEX
8
0
62
30
10
0.056568542
20
0.15943342
30
0
70
32
0
VERTEX
8
0
62
30
10
0.056568542
20
0.15943342
30
0
70
32
0
SEQEND
8
0
0
POLYLINE
8
0
62
30
66
1
10
0
20
0
30
0
70
8
0
VERTEX
8
0
62
30
10
0.084852814
20
0.15920309
30
0
70
32
0
VERTEX
8
0
62
30
10
0.084852814
20
0.15943342
30
0
70
32
0
SEQEND
8
0
0
POLYLINE
8
0
62
30
66
1
10
0
20
0
30
0
70
8
0
VERTEX
8
0
62
30
10
0.028284271
20
0.18229747
30
0
70
32
0
VERTEX
8
0
62
30
10
0.028284271
20
0.19830027
30
0
70
32
0
SEQEND
8
0
0
POLYLINE
8
0
62
30
66
1
10
0
20
0
30
0
70
8
0
VERTEX
8
0
62
30
10
0.028284271
20
0.19830027
30
0
70
32
0
VERTEX
8
0
62
30
10
0.056568542
20
0.19830027
30
0
70
32
0
SEQEND
8
0
0
POLYLINE
8
0
62
30
66
1
10
0
20
0
30
0
70
8
0
VERTEX
8
0
62
30
10
0.056568542
20
0.19830027
30
0
70
32
0
VERTEX
8
0
62
30
10
0.056568542
20
0.19830027
30
0
70
32
0
SEQEND
8
0
0
POLYLINE
8
0
62
30
66
1
10
0
20
0
30
0
70
8
0
VERTEX
8
0
62
30
10
0.056568542
20
0.19830027
30
0
70
32
0
VERTEX
8
0
62
30
10
0.084852814
20
0.19806994
30
0
70
32
0
SEQEND
8
0
0
POLYLINE
8
0
62
30
66
1
10
0
20
0
30
0
70
8
0
VERTEX
8
0
62
30
10
0.084852814
20
0.19806994
30
0
70
32
0
VERTEX
8
0
62
30
10
0.084852814
20
0.19830027
30
0
70
32
0
SEQEND
8
0
0
POLYLINE
8
0
62
5
66
1
10
0
20
0
30
0
70
8
0
VERTEX
8
0
62
5
10
0.028284271
20
0.14
30
0
70
32
0
VERTEX
8
0
62
5
10
0.028284271
20
0.14343062
30
0
70
32
0
SEQEND
8
0
0
POLYLINE
8
0
62
5
66
1
10
0
20
0
30
0
70
8
0
VERTEX
8
0
62
5
10
0.056568542
20
0.14
30
0
70
32
0
VERTEX
8
0
62
5
10
0.056568542
20
0.15943342
30
0
70
32
0
SEQEND
8
0
0
POLYLINE
8
0
62
5
66
1
10
0
20
0
30
0
70
8
0
VERTEX
8
0
62
5
10
0.084852814
20
0.14
30
0
70
32
0
VERTEX
8
0
62
5
10
0.084852814
20
0.15920309
30
0
70
32
0
SEQEND
8
0
0
POLYLINE
8
0
62
5
66
1
10
0
20
0
30
0
70
8
0
VERTEX
8
0
62
5
10
0.028284271
20
0.17886685
30
0
70
32
0
VERTEX
8
0
62
5
10
0.028284271
20
0.18229747
30
0
70
32
0
SEQEND
8
0
0
POLYLINE
8
0
62
5
66
1
10
0
20
0
30
0
70
8
0
VERTEX
8
0
62
5
10
0.056568542
20
0.17886685
30
0
70
32
0
VERTEX
8
0
62
5
10
0.056568542
20
0.19830027
30
0
70
32
0
SEQEND
8
0
0
POLYLINE
8
0
62
5
66
1
10
0
20
0
30
0
70
8
0
VERTEX
8
0
62
5
10
0.084852814
20
0.17886685
30
0
70
32
0
VERTEX
8
0
62
5
10
0.084852814
20
0.19806994
30
0
70
32
0
SEQEND
8
0
0
POLYLINE
8
0
62
5
66
1
10
0
20
0
30
0
70
8
0
VERTEX
8
0
62
5
10
0.028284271
20
0.15943342
30
0
70
32
0
VERTEX
8
0
62
5
10
0.028284271
20
0.17886685
30
0
70
32
0
SEQEND
8
0
0
POLYLINE
8
0
62
5
66
1
10
0
20
0
30
0
70
8
0
VERTEX
8
0
62
5
10
0.056568542
20
0.15943342
30
0
70
32
0
VERTEX
8
0
62
5
10
0.056568542
20
0.17886685
30
0
70
32
0
SEQEND
8
0
0
POLYLINE
8
0
62
5
66
1
10
0
20
0
30
0
70
8
0
VERTEX
8
0
62
5
10
0.084852814
20
0.15943342
30
0
70
32
0
VERTEX
8
0
62
5
10
0.084852814
20
0.17886685
30
0
70
32
0
SEQEND
8
0
0
POLYLINE
8
0
62
5
66
1
10
0
20
0
30
0
70
8
0
VERTEX
8
0
62
5
10
0.028284271
20
0.19830027
30
0
70
32
0
VERTEX
8
0
62
5
10
0.028284271
20
0.21773369
30
0
70
32
0
SEQEND
8
0
0
POLYLINE
8
0
62
5
66
1
10
0
20
0
30
0
70
8
0
VERTEX
8
0
62
5
10
0.056568542
20
0.19830027
30
0
70
32
0
VERTEX
8
0
62
5
10
0.056568542
20
0.21773369
30
0
70
32
0
SEQEND
8
0
0
POLYLINE
8
0
62
5
66
1
10
0
20
0
30
0
70
8
0
VERTEX
8
0
62
5
10
0.084852814
20
0.19830027
30
0
70
32
0
VERTEX
8
0
62
5
10
0.084852814
20
0.21773369
30
0
70
32
0
SEQEND
8
0
0
POLYLINE
8
0
62
5
66
1
10
0
20
0
30
0
70
8
0
VERTEX
8
0
62
5
10
0.22627417
20
0.21773369
30
0
70
32
0
VERTEX
8
0
62
5
10
0.22627417
20
0.14
30
0
70
32
0
SEQEND
8
0
0
POLYLINE
8
0
62
5
66
1
10
0
20
0
30
0
70
8
0
VERTEX
8
0
62
5
10
0.11313708
20
0.1432003
30
0
70
32
0
VERTEX
8
0
62
5
10
0.14142136
20
0.14343062
30
0
70
32
0
VERTEX
8
0
62
5
10
0.16970563
20
0.15943342
30
0
70
32
0
VERTEX
8
0
62
5
10
0.1979899
20
0.15920309
30
0
70
32
0
VERTEX
8
0
62
5
10
0.22627417
20
0.1432003
30
0
70
32
0
SEQEND
8
0
0
POLYLINE
8
0
62
5
66
1
10
0
20
0
30
0
70
8
0
VERTEX
8
0
62
5
10
0.11313708
20
0.18206714
30
0
70
32
0
VERTEX
8
0
62
5
10
0.14142136
20
0.18229747
30
0
70
32
0
VERTEX
8
0
62
5
10
0.16970563
20
0.19830027
30
0
70
32
0
VERTEX
8
0
62
5
10
0.1979899
20
0.19806994
30
0
70
32
0
VERTEX
8
0
62
5
10
0.22627417
20
0.18206714
30
0
70
32
0
SEQEND
8
0
0
POLYLINE
8
0
62
5
66
1
10
0
20
0
30
0
70
8
0
VERTEX
8
0
62
5
10
0.11313708
20
0.17566655
30
0
70
32
0
VERTEX
8
0
62
5
10
0.14142136
20
0.17543622
30
0
70
32
0
VERTEX
8
0
62
5
10
0.16970563
20
0.15943342
30
0
70
32
0
VERTEX
8
0
62
5
10
0.1979899
20
0.15966375
30
0
70
32
0
VERTEX
8
0
62
5
10
0.22627417
20
0.17566655
30
0
70
32
0
SEQEND
8
0
0
POLYLINE
8
0
62
5
66
1
10
0
20
0
30
0
70
8
0
VERTEX
8
0
62
5
10
0.11313708
20
0.2145334
30
0
70
32
0
VERTEX
8
0
62
5
10
0.14142136
20
0.21430307
30
0
70
32
0
VERTEX
8
0
62
5
10
0.16970563
20
0.19830027
30
0
70
32
0
VERTEX
8
0
62
5
10
0.1979899
20
0.1985306
30
0
70
32
0
VERTEX
8
0
62
5
10
0.22627417
20
0.2145334
30
0
70
32
0
SEQEND
8
0
0
POLYLINE
8
0
62
30
66
1
10
0
20
0
30
0
70
8
0
VERTEX
8
0
62
30
10
0.11313708
20
0.15943342
30
0
70
32
0
VERTEX
8
0
62
30
10
0.22627417
20
0.15943342
30
0
70
32
0
SEQEND
8
0
0
POLYLINE
8
0
62
30
66
1
10
0
20
0
30
0
70
8
0
VERTEX
8
0
62
30
10
0.11313708
20
0.19830027
30
0
70
32
0
VERTEX
8
0
62
30
10
0.22627417
20
0.19830027
30
0
70
32
0
SEQEND
8
0
0
POLYLINE
8
0
62
30
66
1
10
0
20
0
30
0
70
8
0
VERTEX
8
0
62
30
10
0.14142136
20
0.14343062
30
0
70
32
0
VERTEX
8
0
62
30
10
0.14142136
20
0.15943342
30
0
70
32
0
SEQEND
8
0
0
POLYLINE
8
0
62
30
66
1
10
0
20
0
30
0
70
8
0
VERTEX
8
0
62
30
10
0.16970563
20
0.15943342
30
0
70
32
0
VERTEX
8
0
62
30
10
0.16970563
20
0.15943342
30
0
70
32
0
SEQEND
8
0
0
POLYLINE
8
0
62
30
66
1
10
0
20
0
30
0
70
8
0
VERTEX
8
0
62
30
10
0.1979899
20
0.15920309
30
0
70
32
0
VERTEX
8
0
62
30
10
0.1979899
20
0.15943342
30
0
70
32
0
SEQEND
8
0
0
POLYLINE
8
0
62
30
66
1
10
0
20
0
30
0
70
8
0
VERTEX
8
0
62
30
10
0.14142136
20
0.18229747
30
0
70
32
0
VERTEX
8
0
62
30
10
0.14142136
20
0.19830027
30
0
70
32
0
SEQEND
8
0
0
POLYLINE
8
0
62
30
66
1
10
0
20
0
30
0
70
8
0
VERTEX
8
0
62
30
10
0.14142136
20
0.19830027
30
0
70
32
0
VERTEX
8
0
62
30
10
0.16970563
20
0.19830027
30
0
70
32
0
SEQEND
8
0
0
POLYLINE
8
0
62
30
66
1
10
0
20
0
30
0
70
8
0
VERTEX
8
0
62
30
10
0.16970563
20
0.19830027
30
0
70
32
0
VERTEX
8
0
62
30
10
0.16970563
20
0.19830027
30
0
70
32
0
SEQEND
8
0
0
POLYLINE
8
0
62
30
66
1
10
0
20
0
30
0
70
8
0
VERTEX
8
0
62
30
10
0.16970563
20
0.19830027
30
0
70
32
0
VERTEX
8
0
62
30
10
0.1979899
20
0.19806994
30
0
70
32
0
SEQEND
8
0
0
POLYLINE
8
0
62
30
66
1
10
0
20
0
30
0
70
8
0
VERTEX
8
0
62
30
10
0.1979899
20
0.19806994
30
0
70
32
0
VERTEX
8
0
62
30
10
0.1979899
20
0.19830027
30
0
70
32
0
SEQEND
8
0
0
POLYLINE
8
0
62
5
66
1
10
0
20
0
30
0
70
8
0
VERTEX
8
0
62
5
10
0.14142136
20
0.14
30
0
70
32
0
VERTEX
8
0
62
5
10
0.14142136
20
0.14343062
30
0
70
32
0
SEQEND
8
0
0
POLYLINE
8
0
62
5
66
1
10
0
20
0
30
0
70
8
0
VERTEX
8
0
62
5
10
0.16970563
20
0.14
30
0
70
32
0
VERTEX
8
0
62
5
10
0.16970563
20
0.15943342
30
0
70
32
0
SEQEND
8
0
0
POLYLINE
8
0
62
5
66
1
10
0
20
0
30
0
70
8
0
VERTEX
8
0
62
5
10
0.1979899
20
0.14
30
0
70
32
0
VERTEX
8
0
62
5
10
0.1979899
20
0.15920309
30
0
70
32
0
SEQEND
8
0
0
POLYLINE
8
0
62
5
66
1
10
0
20
0
30
0
70
8
0
VERTEX
8
0
62
5
10
0.14142136
20
0.17886685
30
0
70
32
0
VERTEX
8
0
62
5
10
0.14142136
20
0.18229747
30
0
70
32
0
SEQEND
8
0
0
POLYLINE
8
0
62
5
66
1
10
0
20
0
30
0
70
8
0
VERTEX
8
0
62
5
10
0.16970563
20
0.17886685
30
0
70
32
0
VERTEX
8
0
62
5
10
0.16970563
20
0.19830027
30
0
70
32
0
SEQEND
8
0
0
POLYLINE
8
0
62
5
66
1
10
0
20
0
30
0
70
8
0
VERTEX
8
0
62
5
10
0.1979899
20
0.17886685
30
0
70
32
0
VERTEX
8
0
62
5
10
0.1979899
20
0.19806994
30
0
70
32
0
SEQEND
8
0
0
POLYLINE
8
0
62
5
66
1
10
0
20
0
30
0
70
8
0
VERTEX
8
0
62
5
10
0.14142136
20
0.15943342
30
0
70
32
0
VERTEX
8
0
62
5
10
0.14142136
20
0.17886685
30
0
70
32
0
SEQEND
8
0
0
POLYLINE
8
0
62
5
66
1
10
0
20
0
30
0
70
8
0
VERTEX
8
0
62
5
10
0.16970563
20
0.15943342
30
0
70
32
0
VERTEX
8
0
62
5
10
0.16970563
20
0.17886685
30
0
70
32
0
SEQEND
8
0
0
POLYLINE
8
0
62
5
66
1
10
0
20
0
30
0
70
8
0
VERTEX
8
0
62
5
10
0.1979899
20
0.15943342
30
0
70
32
0
VERTEX
8
0
62
5
10
0.1979899
20
0.17886685
30
0
70
32
0
SEQEND
8
0
0
POLYLINE
8
0
62
5
66
1
10
0
20
0
30
0
70
8
0
VERTEX
8
0
62
5
10
0.14142136
20
0.19830027
30
0
70
32
0
VERTEX
8
0
62
5
10
0.14142136
20
0.21773369
30
0
70
32
0
SEQEND
8
0
0
POLYLINE
8
0
62
5
66
1
10
0
20
0
30
0
70
8
0
VERTEX
8
0
62
5
10
0.16970563
20
0.19830027
30
0
70
32
0
VERTEX
8
0
62
5
10
0.16970563
20
0.21773369
30
0
70
32
0
SEQEND
8
0
0
POLYLINE
8
0
62
5
66
1
10
0
20
0
30
0
70
8
0
VERTEX
8
0
62
5
10
0.1979899
20
0.19830027
30
0
70
32
0
VERTEX
8
0
62
5
10
0.1979899
20
0.21773369
30
0
70
32
0
SEQEND
8
0
0
POLYLINE
8
0
62
5
66
1
10
0
20
0
30
0
70
8
0
VERTEX
8
0
62
5
10
-0.11313708
20
0.14
30
0
70
32
0
VERTEX
8
0
62
5
10
-0.11313708
20
0.21773369
30
0
70
32
0
SEQEND
8
0
0
POLYLINE
8
0
62
5
66
1
10
0
20
0
30
0
70
8
0
VERTEX
8
0
62
5
10
-0.11313708
20
0.1432003
30
0
70
32
0
VERTEX
8
0
62
5
10
-0.084852814
20
0.14343062
30
0
70
32
0
VERTEX
8
0
62
5
10
-0.056568542
20
0.15943342
30
0
70
32
0
VERTEX
8
0
62
5
10
-0.028284271
20
0.15920309
30
0
70
32
0
VERTEX
8
0
62
5
10
0
20
0.1432003
30
0
70
32
0
SEQEND
8
0
0
POLYLINE
8
0
62
5
66
1
10
0
20
0
30
0
70
8
0
VERTEX
8
0
62
5
10
-0.11313708
20
0.18206714
30
0
70
32
0
VERTEX
8
0
62
5
10
-0.084852814
20
0.18229747
30
0
70
32
0
VERTEX
8
0
62
5
10
-0.056568542
20
0.19830027
30
0
70
32
0
VERTEX
8
0
62
5
10
-0.028284271
20
0.19806994
30
0
70
32
0
VERTEX
8
0
62
5
10
0
20
0.18206714
30
0
70
32
0
SEQEND
8
0
0
POLYLINE
8
0
62
5
66
1
10
0
20
0
30
0
70
8
0
VERTEX
8
0
62
5
10
-0.11313708
20
0.17566655
30
0
70
32
0
VERTEX
8
0
62
5
10
-0.084852814
20
0.17543622
30
0
70
32
0
VERTEX
8
0
62
5
10
-0.056568542
20
0.15943342
30
0
70
32
0
VERTEX
8
0
62
5
10
-0.028284271
20
0.15966375
30
0
70
32
0
VERTEX
8
0
62
5
10
0
20
0.17566655
30
0
70
32
0
SEQEND
8
0
0
POLYLINE
8
0
62
5
66
1
10
0
20
0
30
0
70
8
0
VERTEX
8
0
62
5
10
-0.11313708
20
0.2145334
30
0
70
32
0
VERTEX
8
0
62
5
10
-0.084852814
20
0.21430307
30
0
70
32
0
VERTEX
8
0
62
5
10
-0.056568542
20
0.19830027
30
0
70
32
0
VERTEX
8
0
62
5
10
-0.028284271
20
0.1985306
30
0
70
32
0
VERTEX
8
0
62
5
10
0
20
0.2145334
30
0
70
32
0
SEQEND
8
0
0
POLYLINE
8
0
62
30
66
1
10
0
20
0
30
0
70
8
0
VERTEX
8
0
62
30
10
-0.11313708
20
0.15943342
30
0
70
32
0
VERTEX
8
0
62
30
10
0
20
0.15943342
30
0
70
32
0
SEQEND
8
0
0
POLYLINE
8
0
62
30
66
1
10
0
20
0
30
0
70
8
0
VERTEX
8
0
62
30
10
-0.11313708
20
0.19830027
30
0
70
32
0
VERTEX
8
0
62
30
10
0
20
0.19830027
30
0
70
32
0
SEQEND
8
0
0
POLYLINE
8
0
62
30
66
1
10
0
20
0
30
0
70
8
0
VERTEX
8
0
62
30
10
-0.084852814
20
0.14343062
30
0
70
32
0
VERTEX
8
0
62
30
10
-0.084852814
20
0.15943342
30
0
70
32
0
SEQEND
8
0
0
POLYLINE
8
0
62
30
66
1
10
0
20
0
30
0
70
8
0
VERTEX
8
0
62
30
10
-0.056568542
20
0.15943342
30
0
70
32
0
VERTEX
8
0
62
30
10
-0.056568542
20
0.15943342
30
0
70
32
0
SEQEND
8
0
0
POLYLINE
8
0
62
30
66
1
10
0
20
0
30
0
70
8
0
VERTEX
8
0
62
30
10
-0.028284271
20
0.15920309
30
0
70
32
0
VERTEX
8
0
62
30
10
-0.028284271
20
0.15943342
30
0
70
32
0
SEQEND
8
0
0
POLYLINE
8
0
62
30
66
1
10
0
20
0
30
0
70
8
0
VERTEX
8
0
62
30
10
-0.084852814
20
0.18229747
30
0
70
32
0
VERTEX
8
0
62
30
10
-0.084852814
20
0.19830027
30
0
70
32
0
SEQEND
8
0
0
POLYLINE
8
0
62
30
66
1
10
0
20
0
30
0
70
8
0
VERTEX
8
0
62
30
10
-0.084852814
20
0.19830027
30
0
70
32
0
VERTEX
8
0
62
30
10
-0.056568542
20
0.19830027
30
0
70
32
0
SEQEND
8
0
0
POLYLINE
8
0
62
30
66
1
10
0
20
0
30
0
70
8
0
VERTEX
8
0
62
30
10
-0.056568542
20
0.19830027
30
0
70
32
0
VERTEX
8
0
62
30
10
-0.056568542
20
0.19830027
30
0
70
32
0
SEQEND
8
0
0
POLYLINE
8
0
62
30
66
1
10
0
20
0
30
0
70
8
0
VERTEX
8
0
62
30
10
-0.056568542
20
0.19830027
30
0
70
32
0
VERTEX
8
0
62
30
10
-0.028284271
20
0.19806994
30
0
70
32
0
SEQEND
8
0
0
POLYLINE
8
0
62
30
66
1
10
0
20
0
30
0
70
8
0
VERTEX
8
0
62
30
10
-0.028284271
20
0.19806994
30
0
70
32
0
VERTEX
8
0
62
30
10
-0.028284271
20
0.19830027
30
0
70
32
0
SEQEND
8
0
0
POLYLINE
8
0
62
5
66
1
10
0
20
0
30
0
70
8
0
VERTEX
8
0
62
5
10
-0.084852814
20
0.14
30
0
70
32
0
VERTEX
8
0
62
5
10
-0.084852814
20
0.14343062
30
0
70
32
0
SEQEND
8
0
0
POLYLINE
8
0
62
5
66
1
10
0
20
0
30
0
70
8
0
VERTEX
8
0
62
5
10
-0.056568542
20
0.14
30
0
70
32
0
VERTEX
8
0
62
5
10
-0.056568542
20
0.15943342
30
0
70
32
0
SEQEND
8
0
0
POLYLINE
8
0
62
5
66
1
10
0
20
0
30
0
70
8
0
VERTEX
8
0
62
5
10
-0.028284271
20
0.14
30
0
70
32
0
VERTEX
8
0
62
5
10
-0.028284271
20
0.15920309
30
0
70
32
0
SEQEND
8
0
0
POLYLINE
8
0
62
5
66
1
10
0
20
0
30
0
70
8
0
VERTEX
8
0
62
5
10
-0.084852814
20
0.17886685
30
0
70
32
0
VERTEX
8
0
62
5
10
-0.084852814
20
0.18229747
30
0
70
32
0
SEQEND
8
0
0
POLYLINE
8
0
62
5
66
1
10
0
20
0
30
0
70
8
0
VERTEX
8
0
62
5
10
-0.056568542
20
0.17886685
30
0
70
32
0
VERTEX
8
0
62
5
10
-0.056568542
20
0.19830027
30
0
70
32
0
SEQEND
8
0
0
POLYLINE
8
0
62
5
66
1
10
0
20
0
30
0
70
8
0
VERTEX
8
0
62
5
10
-0.028284271
20
0.17886685
30
0
70
32
0
VERTEX
8
0
62
5
10
-0.028284271
20
0.19806994
30
0
70
32
0
SEQEND
8
0
0
POLYLINE
8
0
62
5
66
1
10
0
20
0
30
0
70
8
0
VERTEX
8
0
62
5
10
-0.084852814
20
0.15943342
30
0
70
32
0
VERTEX
8
0
62
5
10
-0.084852814
20
0.17886685
30
0
70
32
0
SEQEND
8
0
0
POLYLINE
8
0
62
5
66
1
10
0
20
0
30
0
70
8
0
VERTEX
8
0
62
5
10
-0.056568542
20
0.15943342
30
0
70
32
0
VERTEX
8
0
62
5
10
-0.056568542
20
0.17886685
30
0
70
32
0
SEQEND
8
0
0
POLYLINE
8
0
62
5
66
1
10
0
20
0
30
0
70
8
0
VERTEX
8
0
62
5
10
-0.028284271
20
0.15943342
30
0
70
32
0
VERTEX
8
0
62
5
10
-0.028284271
20
0.17886685
30
0
70
32
0
SEQEND
8
0
0
POLYLINE
8
0
62
5
66
1
10
0
20
0
30
0
70
8
0
VERTEX
8
0
62
5
10
-0.084852814
20
0.19830027
30
0
70
32
0
VERTEX
8
0
62
5
10
-0.084852814
20
0.21773369
30
0
70
32
0
SEQEND
8
0
0
POLYLINE
8
0
62
5
66
1
10
0
20
0
30
0
70
8
0
VERTEX
8
0
62
5
10
-0.056568542
20
0.19830027
30
0
70
32
0
VERTEX
8
0
62
5
10
-0.056568542
20
0.21773369
30
0
70
32
0
SEQEND
8
0
0
POLYLINE
8
0
62
5
66
1
10
0
20
0
30
0
70
8
0
VERTEX
8
0
62
5
10
-0.028284271
20
0.19830027
30
0
70
32
0
VERTEX
8
0
62
5
10
-0.028284271
20
0.21773369
30
0
70
32
0
SEQEND
8
0
0
POLYLINE
8
0
62
30
66
1
10
0
20
0
30
0
70
8
0
VERTEX
8
0
62
30
10
0
20
0.23027939
30
0
70
32
0
VERTEX
8
0
62
30
10
0.11313708
20
0.23027939
30
0
70
32
0
SEQEND
8
0
0
POLYLINE
8
0
62
30
66
1
10
0
20
0
30
0
70
8
0
VERTEX
8
0
62
30
10
0
20
0.21773369
30
0
70
32
0
VERTEX
8
0
62
30
10
0.11313708
20
0.21773369
30
0
70
32
0
SEQEND
8
0
0
POLYLINE
8
0
62
5
66
1
10
0
20
0
30
0
70
8
0
VERTEX
8
0
62
5
10
0
20
0.21773369
30
0
70
32
0
VERTEX
8
0
62
5
10
0.028027693
20
0.23027939
30
0
70
32
0
VERTEX
8
0
62
5
10
0.028284271
20
0.21773369
30
0
70
32
0
VERTEX
8
0
62
5
10
0.056311965
20
0.23027939
30
0
70
32
0
VERTEX
8
0
62
5
10
0.056568542
20
0.21773369
30
0
70
32
0
VERTEX
8
0
62
5
10
0.084596236
20
0.23027939
30
0
70
32
0
VERTEX
8
0
62
5
10
0.084852814
20
0.21773369
30
0
70
32
0
VERTEX
8
0
62
5
10
0.11288051
20
0.23027939
30
0
70
32
0
VERTEX
8
0
62
5
10
0.11313708
20
0.21773369
30
0
70
32
0
SEQEND
8
0
0
POLYLINE
8
0
62
5
66
1
10
0
20
0
30
0
70
8
0
VERTEX
8
0
62
5
10
0.028284271
20
0.21773369
30
0
70
32
0
VERTEX
8
0
62
5
10
0.028284271
20
0.21773369
30
0
70
32
0
SEQEND
8
0
0
POLYLINE
8
0
62
5
66
1
10
0
20
0
30
0
70
8
0
VERTEX
8
0
62
5
10
0.056568542
20
0.21773369
30
0
70
32
0
VERTEX
8
0
62
5
10
0.056568542
20
0.21773369
30
0
70
32
0
SEQEND
8
0
0
POLYLINE
8
0
62
5
66
1
10
0
20
0
30
0
70
8
0
VERTEX
8
0
62
5
10
0.084852814
20
0.21773369
30
0
70
32
0
VERTEX
8
0
62
5
10
0.084852814
20
0.21773369
30
0
70
32
0
SEQEND
8
0
0
POLYLINE
8
0
62
5
66
1
10
0
20
0
30
0
70
8
0
VERTEX
8
0
62
5
10
0.028027693
20
0.23027939
30
0
70
32
0
VERTEX
8
0
62
5
10
0.028027693
20
0.23027939
30
0
70
32
0
SEQEND
8
0
0
POLYLINE
8
0
62
5
66
1
10
0
20
0
30
0
70
8
0
VERTEX
8
0
62
5
10
0.056311965
20
0.23027939
30
0
70
32
0
VERTEX
8
0
62
5
10
0.056311965
20
0.23027939
30
0
70
32
0
SEQEND
8
0
0
POLYLINE
8
0
62
5
66
1
10
0
20
0
30
0
70
8
0
VERTEX
8
0
62
5
10
0.084596236
20
0.23027939
30
0
70
32
0
VERTEX
8
0
62
5
10
0.084596236
20
0.23027939
30
0
70
32
0
SEQEND
8
0
0
POLYLINE
8
0
62
5
66
1
10
0
20
0
30
0
70
8
0
VERTEX
8
0
62
5
10
0.11288051
20
0.23027939
30
0
70
32
0
VERTEX
8
0
62
5
10
0.11288051
20
0.23027939
30
0
70
32
0
SEQEND
8
0
0
POLYLINE
8
0
62
30
66
1
10
0
20
0
30
0
70
8
0
VERTEX
8
0
62
30
10
0.11313708
20
0.23027939
30
0
70
32
0
VERTEX
8
0
62
30
10
0.22627417
20
0.23027939
30
0
70
32
0
SEQEND
8
0
0
POLYLINE
8
0
62
30
66
1
10
0
20
0
30
0
70
8
0
VERTEX
8
0
62
30
10
0.11313708
20
0.21773369
30
0
70
32
0
VERTEX
8
0
62
30
10
0.22627417
20
0.21773369
30
0
70
32
0
SEQEND
8
0
0
POLYLINE
8
0
62
5
66
1
10
0
20
0
30
0
70
8
0
VERTEX
8
0
62
5
10
0.11313708
20
0.21773369
30
0
70
32
0
VERTEX
8
0
62
5
10
0.14116478
20
0.23027939
30
0
70
32
0
VERTEX
8
0
62
5
10
0.14142136
20
0.21773369
30
0
70
32
0
VERTEX
8
0
62
5
10
0.16944905
20
0.23027939
30
0
70
32
0
VERTEX
8
0
62
5
10
0.16970563
20
0.21773369
30
0
70
32
0
VERTEX
8
0
62
5
10
0.19773332
20
0.23027939
30
0
70
32
0
VERTEX
8
0
62
5
10
0.1979899
20
0.21773369
30
0
70
32
0
VERTEX
8
0
62
5
10
0.22601759
20
0.23027939
30
0
70
32
0
VERTEX
8
0
62
5
10
0.22627417
20
0.21773369
30
0
70
32
0
SEQEND
8
0
0
POLYLINE
8
0
62
5
66
1
10
0
20
0
30
0
70
8
0
VERTEX
8
0
62
5
10
0.14142136
20
0.21773369
30
0
70
32
0
VERTEX
8
0
62
5
10
0.14142136
20
0.21773369
30
0
70
32
0
SEQEND
8
0
0
POLYLINE
8
0
62
5
66
1
10
0
20
0
30
0
70
8
0
VERTEX
8
0
62
5
10
0.16970563
20
0.21773369
30
0
70
32
0
VERTEX
8
0
62
5
10
0.16970563
20
0.21773369
30
0
70
32
0
SEQEND
8
0
0
POLYLINE
8
0
62
5
66
1
10
0
20
0
30
0
70
8
0
VERTEX
8
0
62
5
10
0.1979899
20
0.21773369
30
0
70
32
0
VERTEX
8
0
62
5
10
0.1979899
20
0.21773369
30
0
70
32
0
SEQEND
8
0
0
POLYLINE
8
0
62
5
66
1
10
0
20
0
30
0
70
8
0
VERTEX
8
0
62
5
10
0.14116478
20
0.23027939
30
0
70
32
0
VERTEX
8
0
62
5
10
0.14116478
20
0.23027939
30
0
70
32
0
SEQEND
8
0
0
POLYLINE
8
0
62
5
66
1
10
0
20
0
30
0
70
8
0
VERTEX
8
0
62
5
10
0.16944905
20
0.23027939
30
0
70
32
0
VERTEX
8
0
62
5
10
0.16944905
20
0.23027939
30
0
70
32
0
SEQEND
8
0
0
POLYLINE
8
0
62
5
66
1
10
0
20
0
30
0
70
8
0
VERTEX
8
0
62
5
10
0.19773332
20
0.23027939
30
0
70
32
0
VERTEX
8
0
62
5
10
0.19773332
20
0.23027939
30
0
70
32
0
SEQEND
8
0
0
POLYLINE
8
0
62
5
66
1
10
0
20
0
30
0
70
8
0
VERTEX
8
0
62
5
10
0.22601759
20
0.23027939
30
0
70
32
0
VERTEX
8
0
62
5
10
0.22601759
20
0.23027939
30
0
70
32
0
SEQEND
8
0
0
POLYLINE
8
0
62
30
66
1
10
0
20
0
30
0
70
8
0
VERTEX
8
0
62
30
10
-0.11313708
20
0.23027939
30
0
70
32
0
VERTEX
8
0
62
30
10
0
20
0.23027939
30
0
70
32
0
SEQEND
8
0
0
POLYLINE
8
0
62
30
66
1
10
0
20
0
30
0
70
8
0
VERTEX
8
0
62
30
10
-0.11313708
20
0.21773369
30
0
70
32
0
VERTEX
8
0
62
30
10
0
20
0.21773369
30
0
70
32
0
SEQEND
8
0
0
POLYLINE
8
0
62
5
66
1
10
0
20
0
30
0
70
8
0
VERTEX
8
0
62
5
10
-0.11313708
20
0.21773369
30
0
70
32
0
VERTEX
8
0
62
5
10
-0.085109392
20
0.23027939
30
0
70
32
0
VERTEX
8
0
62
5
10
-0.084852814
20
0.21773369
30
0
70
32
0
VERTEX
8
0
62
5
10
-0.05682512
20
0.23027939
30
0
70
32
0
VERTEX
8
0
62
5
10
-0.056568542
20
0.21773369
30
0
70
32
0
VERTEX
8
0
62
5
10
-0.028540849
20
0.23027939
30
0
70
32
0
VERTEX
8
0
62
5
10
-0.028284271
20
0.21773369
30
0
70
32
0
VERTEX
8
0
62
5
10
-0.00025657785
20
0.23027939
30
0
70
32
0
VERTEX
8
0
62
5
10
0
20
0.21773369
30
0
70
32
0
SEQEND
8
0
0
POLYLINE
8
0
62
5
66
1
10
0
20
0
30
0
70
8
0
VERTEX
8
0
62
5
10
-0.084852814
20
0.21773369
30
0
70
32
0
VERTEX
8
0
62
5
10
-0.084852814
20
0.21773369
30
0
70
32
0
SEQEND
8
0
0
POLYLINE
8
0
62
5
66
1
10
0
20
0
30
0
70
8
0
VERTEX
8
0
62
5
10
-0.056568542
20
0.21773369
30
0
70
32
0
VERTEX
8
0
62
5
10
-0.056568542
20
0.21773369
30
0
70
32
0
SEQEND
8
0
0
POLYLINE
8
0
62
5
66
1
10
0
20
0
30
0
70
8
0
VERTEX
8
0
62
5
10
-0.028284271
20
0.21773369
30
0
70
32
0
VERTEX
8
0
62
5
10
-0.028284271
20
0.21773369
30
0
70
32
0
SEQEND
8
0
0
POLYLINE
8
0
62
5
66
1
10
0
20
0
30
0
70
8
0
VERTEX
8
0
62
5
10
-0.085109392
20
0.23027939
30
0
70
32
0
VERTEX
8
0
62
5
10
-0.085109392
20
0.23027939
30
0
70
32
0
SEQEND
8
0
0
POLYLINE
8
0
62
5
66
1
10
0
20
0
30
0
70
8
0
VERTEX
8
0
62
5
10
-0.05682512
20
0.23027939
30
0
70
32
0
VERTEX
8
0
62
5
10
-0.05682512
20
0.23027939
30
0
70
32
0
SEQEND
8
0
0
POLYLINE
8
0
62
5
66
1
10
0
20
0
30
0
70
8
0
VERTEX
8
0
62
5
10
-0.028540849
20
0.23027939
30
0
70
32
0
VERTEX
8
0
62
5
10
-0.028540849
20
0.23027939
30
0
70
32
0
SEQEND
8
0
0
POLYLINE
8
0
62
5
66
1
10
0
20
0
30
0
70
8
0
VERTEX
8
0
62
5
10
-0.00025657785
20
0.23027939
30
0
70
32
0
VERTEX
8
0
62
5
10
-0.00025657785
20
0.23027939
30
0
70
32
0
SEQEND
8
0
0
POLYLINE
8
0
62
5
66
1
10
0
20
0
30
0
70
8
0
VERTEX
8
0
62
5
10
-0.028540849
20
0.23027939
30
0
70
32
0
VERTEX
8
0
62
5
10
-0.028540849
20
0.28045208
30
0
70
32
0
SEQEND
8
0
0
POLYLINE
8
0
62
5
66
1
10
0
20
0
30
0
70
8
0
VERTEX
8
0
62
5
10
0.084596236
20
0.23027939
30
0
70
32
0
VERTEX
8
0
62
5
10
0.084596236
20
0.28045208
30
0
70
32
0
SEQEND
8
0
0
POLYLINE
8
0
62
5
66
1
10
0
20
0
30
0
70
8
0
VERTEX
8
0
62
5
10
-0.00025657785
20
0.23027939
30
0
70
32
0
VERTEX
8
0
62
5
10
-0.00025657785
20
0.28045208
30
0
70
32
0
SEQEND
8
0
0
POLYLINE
8
0
62
5
66
1
10
0
20
0
30
0
70
8
0
VERTEX
8
0
62
5
10
0.028027693
20
0.23027939
30
0
70
32
0
VERTEX
8
0
62
5
10
0.028027693
20
0.28045208
30
0
70
32
0
SEQEND
8
0
0
POLYLINE
8
0
62
5
66
1
10
0
20
0
30
0
70
8
0
VERTEX
8
0
62
5
10
0.056311965
20
0.23027939
30
0
70
32
0
VERTEX
8
0
62
5
10
0.056311965
20
0.28045208
30
0
70
32
0
SEQEND
8
0
0
POLYLINE
8
0
62
5
66
1
10
0
20
0
30
0
70
8
0
VERTEX
8
0
62
5
10
0.19773332
20
0.23027939
30
0
70
32
0
VERTEX
8
0
62
5
10
0.19773332
20
0.28045208
30
0
70
32
0
SEQEND
8
0
0
POLYLINE
8
0
62
5
66
1
10
0
20
0
30
0
70
8
0
VERTEX
8
0
62
5
10
0.11288051
20
0.23027939
30
0
70
32
0
VERTEX
8
0
62
5
10
0.11288051
20
0.28045208
30
0
70
32
0
SEQEND
8
0
0
POLYLINE
8
0
62
5
66
1
10
0
20
0
30
0
70
8
0
VERTEX
8
0
62
5
10
0.14116478
20
0.23027939
30
0
70
32
0
VERTEX
8
0
62
5
10
0.14116478
20
0.28045208
30
0
70
32
0
SEQEND
8
0
0
POLYLINE
8
0
62
5
66
1
10
0
20
0
30
0
70
8
0
VERTEX
8
0
62
5
10
0.16944905
20
0.23027939
30
0
70
32
0
VERTEX
8
0
62
5
10
0.16944905
20
0.28045208
30
0
70
32
0
SEQEND
8
0
0
POLYLINE
8
0
62
5
66
1
10
0
20
0
30
0
70
8
0
VERTEX
8
0
62
5
10
-0.14167793
20
0.23027939
30
0
70
32
0
VERTEX
8
0
62
5
10
-0.14167793
20
0.28045208
30
0
70
32
0
SEQEND
8
0
0
POLYLINE
8
0
62
5
66
1
10
0
20
0
30
0
70
8
0
VERTEX
8
0
62
5
10
-0.11339366
20
0.23027939
30
0
70
32
0
VERTEX
8
0
62
5
10
-0.11339366
20
0.28045208
30
0
70
32
0
SEQEND
8
0
0
POLYLINE
8
0
62
5
66
1
10
0
20
0
30
0
70
8
0
VERTEX
8
0
62
5
10
-0.085109392
20
0.23027939
30
0
70
32
0
VERTEX
8
0
62
5
10
-0.085109392
20
0.28045208
30
0
70
32
0
SEQEND
8
0
0
POLYLINE
8
0
62
5
66
1
10
0
20
0
30
0
70
8
0
VERTEX
8
0
62
5
10
-0.05682512
20
0.23027939
30
0
70
32
0
VERTEX
8
0
62
5
10
-0.05682512
20
0.28045208
30
0
70
32
0
SEQEND
8
0
0
POLYLINE
8
0
62
5
66
1
10
0
20
0
30
0
70
8
0
VERTEX
8
0
62
5
10
-0.028540849
20
0.28045208
30
0
70
32
0
VERTEX
8
0
62
5
10
-0.028540849
20
0.29768032
30
0
70
32
0
SEQEND
8
0
0
POLYLINE
8
0
62
5
66
1
10
0
20
0
30
0
70
8
0
VERTEX
8
0
62
5
10
0.084596236
20
0.29768032
30
0
70
32
0
VERTEX
8
0
62
5
10
0.084596236
20
0.28045208
30
0
70
32
0
SEQEND
8
0
0
POLYLINE
8
0
62
5
66
1
10
0
20
0
30
0
70
8
0
VERTEX
8
0
62
5
10
-0.028540849
20
0.2820106
30
0
70
32
0
VERTEX
8
0
62
5
10
-0.00025657785
20
0.2890662
30
0
70
32
0
VERTEX
8
0
62
5
10
0.028027693
20
0.28887533
30
0
70
32
0
VERTEX
8
0
62
5
10
0.056311965
20
0.28181973
30
0
70
32
0
VERTEX
8
0
62
5
10
0.084596236
20
0.2820106
30
0
70
32
0
SEQEND
8
0
0
POLYLINE
8
0
62
5
66
1
10
0
20
0
30
0
70
8
0
SEQEND
8
0
0
POLYLINE
8
0
62
5
66
1
10
0
20
0
30
0
70
8
0
VERTEX
8
0
62
5
10
-0.028540849
20
0.2961218
30
0
70
32
0
VERTEX
8
0
62
5
10
-0.00025657785
20
0.2890662
30
0
70
32
0
VERTEX
8
0
62
5
10
0.028027693
20
0.28925707
30
0
70
32
0
VERTEX
8
0
62
5
10
0.056311965
20
0.29631267
30
0
70
32
0
VERTEX
8
0
62
5
10
0.084596236
20
0.2961218
30
0
70
32
0
SEQEND
8
0
0
POLYLINE
8
0
62
30
66
1
10
0
20
0
30
0
70
8
0
VERTEX
8
0
62
30
10
-0.028540849
20
0.2890662
30
0
70
32
0
VERTEX
8
0
62
30
10
0.084596236
20
0.2890662
30
0
70
32
0
SEQEND
8
0
0
POLYLINE
8
0
62
30
66
1
10
0
20
0
30
0
70
8
0
VERTEX
8
0
62
30
10
-0.00025657785
20
0.2890662
30
0
70
32
0
VERTEX
8
0
62
30
10
-0.00025657785
20
0.2890662
30
0
70
32
0
SEQEND
8
0
0
POLYLINE
8
0
62
30
66
1
10
0
20
0
30
0
70
8
0
VERTEX
8
0
62
30
10
0.028027693
20
0.28887533
30
0
70
32
0
VERTEX
8
0
62
30
10
0.028027693
20
0.2890662
30
0
70
32
0
SEQEND
8
0
0
POLYLINE
8
0
62
30
66
1
10
0
20
0
30
0
70
8
0
VERTEX
8
0
62
30
10
0.056311965
20
0.28181973
30
0
70
32
0
VERTEX
8
0
62
30
10
0.056311965
20
0.2890662
30
0
70
32
0
SEQEND
8
0
0
POLYLINE
8
0
62
5
66
1
10
0
20
0
30
0
70
8
0
VERTEX
8
0
62
5
10
-0.00025657785
20
0.28045208
30
0
70
32
0
VERTEX
8
0
62
5
10
-0.00025657785
20
0.2890662
30
0
70
32
0
SEQEND
8
0
0
POLYLINE
8
0
62
5
66
1
10
0
20
0
30
0
70
8
0
VERTEX
8
0
62
5
10
0.028027693
20
0.28045208
30
0
70
32
0
VERTEX
8
0
62
5
10
0.028027693
20
0.28887533
30
0
70
32
0
SEQEND
8
0
0
POLYLINE
8
0
62
5
66
1
10
0
20
0
30
0
70
8
0
VERTEX
8
0
62
5
10
0.056311965
20
0.28045208
30
0
70
32
0
VERTEX
8
0
62
5
10
0.056311965
20
0.28181973
30
0
70
32
0
SEQEND
8
0
0
POLYLINE
8
0
62
5
66
1
10
0
20
0
30
0
70
8
0
VERTEX
8
0
62
5
10
-0.00025657785
20
0.2890662
30
0
70
32
0
VERTEX
8
0
62
5
10
-0.00025657785
20
0.29768032
30
0
70
32
0
SEQEND
8
0
0
POLYLINE
8
0
62
5
66
1
10
0
20
0
30
0
70
8
0
VERTEX
8
0
62
5
10
0.028027693
20
0.2890662
30
0
70
32
0
VERTEX
8
0
62
5
10
0.028027693
20
0.29768032
30
0
70
32
0
SEQEND
8
0
0
POLYLINE
8
0
62
5
66
1
10
0
20
0
30
0
70
8
0
VERTEX
8
0
62
5
10
0.056311965
20
0.2890662
30
0
70
32
0
VERTEX
8
0
62
5
10
0.056311965
20
0.29768032
30
0
70
32
0
SEQEND
8
0
0
POLYLINE
8
0
62
5
66
1
10
0
20
0
30
0
70
8
0
VERTEX
8
0
62
5
10
0.19773332
20
0.29768032
30
0
70
32
0
VERTEX
8
0
62
5
10
0.19773332
20
0.28045208
30
0
70
32
0
SEQEND
8
0
0
POLYLINE
8
0
62
5
66
1
10
0
20
0
30
0
70
8
0
VERTEX
8
0
62
5
10
0.084596236
20
0.2820106
30
0
70
32
0
VERTEX
8
0
62
5
10
0.11288051
20
0.2890662
30
0
70
32
0
VERTEX
8
0
62
5
10
0.14116478
20
0.28887533
30
0
70
32
0
VERTEX
8
0
62
5
10
0.16944905
20
0.28181973
30
0
70
32
0
VERTEX
8
0
62
5
10
0.19773332
20
0.2820106
30
0
70
32
0
SEQEND
8
0
0
POLYLINE
8
0
62
5
66
1
10
0
20
0
30
0
70
8
0
SEQEND
8
0
0
POLYLINE
8
0
62
5
66
1
10
0
20
0
30
0
70
8
0
VERTEX
8
0
62
5
10
0.084596236
20
0.2961218
30
0
70
32
0
VERTEX
8
0
62
5
10
0.11288051
20
0.2890662
30
0
70
32
0
VERTEX
8
0
62
5
10
0.14116478
20
0.28925707
30
0
70
32
0
VERTEX
8
0
62
5
10
0.16944905
20
0.29631267
30
0
70
32
0
VERTEX
8
0
62
5
10
0.19773332
20
0.2961218
30
0
70
32
0
SEQEND
8
0
0
POLYLINE
8
0
62
30
66
1
10
0
20
0
30
0
70
8
0
VERTEX
8
0
62
30
10
0.084596236
20
0.2890662
30
0
70
32
0
VERTEX
8
0
62
30
10
0.19773332
20
0.2890662
30
0
70
32
0
SEQEND
8
0
0
POLYLINE
8
0
62
30
66
1
10
0
20
0
30
0
70
8
0
VERTEX
8
0
62
30
10
0.11288051
20
0.2890662
30
0
70
32
0
VERTEX
8
0
62
30
10
0.11288051
20
0.2890662
30
0
70
32
0
SEQEND
8
0
0
POLYLINE
8
0
62
30
66
1
10
0
20
0
30
0
70
8
0
VERTEX
8
0
62
30
10
0.14116478
20
0.28887533
30
0
70
32
0
VERTEX
8
0
62
30
10
0.14116478
20
0.2890662
30
0
70
32
0
SEQEND
8
0
0
POLYLINE
8
0
62
30
66
1
10
0
20
0
30
0
70
8
0
VERTEX
8
0
62
30
10
0.16944905
20
0.28181973
30
0
70
32
0
VERTEX
8
0
62
30
10
0.16944905
20
0.2890662
30
0
70
32
0
SEQEND
8
0
0
POLYLINE
8
0
62
5
66
1
10
0
20
0
30
0
70
8
0
VERTEX
8
0
62
5
10
0.11288051
20
0.28045208
30
0
70
32
0
VERTEX
8
0
62
5
10
0.11288051
20
0.2890662
30
0
70
32
0
SEQEND
8
0
0
POLYLINE
8
0
62
5
66
1
10
0
20
0
30
0
70
8
0
VERTEX
8
0
62
5
10
0.14116478
20
0.28045208
30
0
70
32
0
VERTEX
8
0
62
5
10
0.14116478
20
0.28887533
30
0
70
32
0
SEQEND
8
0
0
POLYLINE
8
0
62
5
66
1
10
0
20
0
30
0
70
8
0
VERTEX
8
0
62
5
10
0.16944905
20
0.28045208
30
0
70
32
0
VERTEX
8
0
62
5
10
0.16944905
20
0.28181973
30
0
70
32
0
SEQEND
8
0
0
POLYLINE
8
0
62
5
66
1
10
0
20
0
30
0
70
8
0
VERTEX
8
0
62
5
10
0.11288051
20
0.2890662
30
0
70
32
0
VERTEX
8
0
62
5
10
0.11288051
20
0.29768032
30
0
70
32
0
SEQEND
8
0
0
POLYLINE
8
0
62
5
66
1
10
0
20
0
30
0
70
8
0
VERTEX
8
0
62
5
10
0.14116478
20
0.2890662
30
0
70
32
0
VERTEX
8
0
62
5
10
0.14116478
20
0.29768032
30
0
70
32
0
SEQEND
8
0
0
POLYLINE
8
0
62
5
66
1
10
0
20
0
30
0
70
8
0
VERTEX
8
0
62
5
10
0.16944905
20
0.2890662
30
0
70
32
0
VERTEX
8
0
62
5
10
0.16944905
20
0.29768032
30
0
70
32
0
SEQEND
8
0
0
POLYLINE
8
0
62
5
66
1
10
0
20
0
30
0
70
8
0
VERTEX
8
0
62
5
10
-0.14167793
20
0.28045208
30
0
70
32
0
VERTEX
8
0
62
5
10
-0.14167793
20
0.29768032
30
0
70
32
0
SEQEND
8
0
0
POLYLINE
8
0
62
5
66
1
10
0
20
0
30
0
70
8
0
VERTEX
8
0
62
5
10
-0.14167793
20
0.2820106
30
0
70
32
0
VERTEX
8
0
62
5
10
-0.11339366
20
0.2890662
30
0
70
32
0
VERTEX
8
0
62
5
10
-0.085109392
20
0.28887533
30
0
70
32
0
VERTEX
8
0
62
5
10
-0.05682512
20
0.28181973
30
0
70
32
0
VERTEX
8
0
62
5
10
-0.028540849
20
0.2820106
30
0
70
32
0
SEQEND
8
0
0
POLYLINE
8
0
62
5
66
1
10
0
20
0
30
0
70
8
0
SEQEND
8
0
0
POLYLINE
8
0
62
5
66
1
10
0
20
0
30
0
70
8
0
VERTEX
8
0
62
5
10
-0.14167793
20
0.2961218
30
0
70
32
0
VERTEX
8
0
62
5
10
-0.11339366
20
0.2890662
30
0
70
32
0
VERTEX
8
0
62
5
10
-0.085109392
20
0.28925707
30
0
70
32
0
VERTEX
8
0
62
5
10
-0.05682512
20
0.29631267
30
0
70
32
0
VERTEX
8
0
62
5
10
-0.028540849
20
0.2961218
30
0
70
32
0
SEQEND
8
0
0
POLYLINE
8
0
62
30
66
1
10
0
20
0
30
0
70
8
0
VERTEX
8
0
62
30
10
-0.14167793
20
0.2890662
30
0
70
32
0
VERTEX
8
0
62
30
10
-0.028540849
20
0.2890662
30
0
70
32
0
SEQEND
8
0
0
POLYLINE
8
0
62
30
66
1
10
0
20
0
30
0
70
8
0
VERTEX
8
0
62
30
10
-0.11339366
20
0.2890662
30
0
70
32
0
VERTEX
8
0
62
30
10
-0.11339366
20
0.2890662
30
0
70
32
0
SEQEND
8
0
0
POLYLINE
8
0
62
30
66
1
10
0
20
0
30
0
70
8
0
VERTEX
8
0
62
30
10
-0.085109392
20
0.28887533
30
0
70
32
0
VERTEX
8
0
62
30
10
-0.085109392
20
0.2890662
30
0
70
32
0
SEQEND
8
0
0
POLYLINE
8
0
62
30
66
1
10
0
20
0
30
0
70
8
0
VERTEX
8
0
62
30
10
-0.05682512
20
0.28181973
30
0
70
32
0
VERTEX
8
0
62
30
10
-0.05682512
20
0.2890662
30
0
70
32
0
SEQEND
8
0
0
POLYLINE
8
0
62
5
66
1
10
0
20
0
30
0
70
8
0
VERTEX
8
0
62
5
10
-0.11339366
20
0.28045208
30
0
70
32
0
VERTEX
8
0
62
5
10
-0.11339366
20
0.2890662
30
0
70
32
0
SEQEND
8
0
0
POLYLINE
8
0
62
5
66
1
10
0
20
0
30
0
70
8
0
VERTEX
8
0
62
5
10
-0.085109392
20
0.28045208
30
0
70
32
0
VERTEX
8
0
62
5
10
-0.085109392
20
0.28887533
30
0
70
32
0
SEQEND
8
0
0
POLYLINE
8
0
62
5
66
1
10
0
20
0
30
0
70
8
0
VERTEX
8
0
62
5
10
-0.05682512
20
0.28045208
30
0
70
32
0
VERTEX
8
0
62
5
10
-0.05682512
20
0.28181973
30
0
70
32
0
SEQEND
8
0
0
POLYLINE
8
0
62
5
66
1
10
0
20
0
30
0
70
8
0
VERTEX
8
0
62
5
10
-0.11339366
20
0.2890662
30
0
70
32
0
VERTEX
8
0
62
5
10
-0.11339366
20
0.29768032
30
0
70
32
0
SEQEND
8
0
0
POLYLINE
8
0
62
5
66
1
10
0
20
0
30
0
70
8
0
VERTEX
8
0
62
5
10
-0.085109392
20
0.2890662
30
0
70
32
0
VERTEX
8
0
62
5
10
-0.085109392
20
0.29768032
30
0
70
32
0
SEQEND
8
0
0
POLYLINE
8
0
62
5
66
1
10
0
20
0
30
0
70
8
0
VERTEX
8
0
62
5
10
-0.05682512
20
0.2890662
30
0
70
32
0
VERTEX
8
0
62
5
10
-0.05682512
20
0.29768032
30
0
70
32
0
SEQEND
8
0
0
POLYLINE
8
0
62
5
66
1
10
0
20
0
30
0
70
8
0
VERTEX
8
0
62
5
10
-0.028540849
20
0.29768032
30
0
70
32
0
VERTEX
8
0
62
5
10
-0.028540849
20
0.48243241
30
0
70
32
0
SEQEND
8
0
0
POLYLINE
8
0
62
5
66
1
10
0
20
0
30
0
70
8
0
VERTEX
8
0
62
5
10
0.084596236
20
0.48243241
30
0
70
32
0
VERTEX
8
0
62
5
10
0.084596236
20
0.29768032
30
0
70
32
0
SEQEND
8
0
0
POLYLINE
8
0
62
30
66
1
10
0
20
0
30
0
70
8
0
VERTEX
8
0
62
30
10
-0.028540849
20
0.43624439
30
0
70
32
0
VERTEX
8
0
62
30
10
0.084596236
20
0.43624439
30
0
70
32
0
SEQEND
8
0
0
POLYLINE
8
0
62
30
66
1
10
0
20
0
30
0
70
8
0
VERTEX
8
0
62
30
10
-0.028540849
20
0.39005636
30
0
70
32
0
VERTEX
8
0
62
30
10
0.084596236
20
0.39005636
30
0
70
32
0
SEQEND
8
0
0
POLYLINE
8
0
62
30
66
1
10
0
20
0
30
0
70
8
0
VERTEX
8
0
62
30
10
-0.028540849
20
0.41315038
30
0
70
32
0
VERTEX
8
0
62
30
10
0.084596236
20
0.41315038
30
0
70
32
0
SEQEND
8
0
0
POLYLINE
8
0
62
5
66
1
10
0
20
0
30
0
70
8
0
VERTEX
8
0
62
5
10
-0.028540849
20
0.34386834
30
0
70
32
0
VERTEX
8
0
62
5
10
0.084596236
20
0.34386834
30
0
70
32
0
SEQEND
8
0
0
POLYLINE
8
0
62
5
66
1
10
0
20
0
30
0
70
8
0
VERTEX
8
0
62
5
10
-0.00025657785
20
0.29768032
30
0
70
32
0
VERTEX
8
0
62
5
10
-0.00025657785
20
0.39005636
30
0
70
32
0
SEQEND
8
0
0
POLYLINE
8
0
62
5
66
1
10
0
20
0
30
0
70
8
0
VERTEX
8
0
62
5
10
0.028027693
20
0.29768032
30
0
70
32
0
VERTEX
8
0
62
5
10
0.028027693
20
0.39005636
30
0
70
32
0
SEQEND
8
0
0
POLYLINE
8
0
62
5
66
1
10
0
20
0
30
0
70
8
0
VERTEX
8
0
62
5
10
0.056311965
20
0.29768032
30
0
70
32
0
VERTEX
8
0
62
5
10
0.056311965
20
0.39005636
30
0
70
32
0
SEQEND
8
0
0
POLYLINE
8
0
62
5
66
1
10
0
20
0
30
0
70
8
0
VERTEX
8
0
62
5
10
-0.00025657785
20
0.43624439
30
0
70
32
0
VERTEX
8
0
62
5
10
-0.00025657785
20
0.48243241
30
0
70
32
0
SEQEND
8
0
0
POLYLINE
8
0
62
5
66
1
10
0
20
0
30
0
70
8
0
VERTEX
8
0
62
5
10
0.028027693
20
0.43624439
30
0
70
32
0
VERTEX
8
0
62
5
10
0.028027693
20
0.48243241
30
0
70
32
0
SEQEND
8
0
0
POLYLINE
8
0
62
5
66
1
10
0
20
0
30
0
70
8
0
VERTEX
8
0
62
5
10
0.056311965
20
0.43624439
30
0
70
32
0
VERTEX
8
0
62
5
10
0.056311965
20
0.48243241
30
0
70
32
0
SEQEND
8
0
0
POLYLINE
8
0
62
30
66
1
10
0
20
0
30
0
70
8
0
VERTEX
8
0
62
30
10
-0.00025657785
20
0.39005636
30
0
70
32
0
VERTEX
8
0
62
30
10
-0.00025657785
20
0.43624439
30
0
70
32
0
SEQEND
8
0
0
POLYLINE
8
0
62
30
66
1
10
0
20
0
30
0
70
8
0
VERTEX
8
0
62
30
10
0.028027693
20
0.39005636
30
0
70
32
0
VERTEX
8
0
62
30
10
0.028027693
20
0.43624439
30
0
70
32
0
SEQEND
8
0
0
POLYLINE
8
0
62
30
66
1
10
0
20
0
30
0
70
8
0
VERTEX
8
0
62
30
10
0.056311965
20
0.39005636
30
0
70
32
0
VERTEX
8
0
62
30
10
0.056311965
20
0.43624439
30
0
70
32
0
SEQEND
8
0
0
POLYLINE
8
0
62
30
66
1
10
0
20
0
30
0
70
8
0
VERTEX
8
0
62
30
10
0.084596236
20
0.39005636
30
0
70
32
0
VERTEX
8
0
62
30
10
0.084596236
20
0.43624439
30
0
70
32
0
SEQEND
8
0
0
POLYLINE
8
0
62
5
66
1
10
0
20
0
30
0
70
8
0
VERTEX
8
0
62
5
10
-0.00025657785
20
0.39005636
30
0
70
32
0
VERTEX
8
0
62
5
10
-0.0050395041
20
0.40160337
30
0
70
32
0
VERTEX
8
0
62
5
10
-0.00025657785
20
0.41315038
30
0
70
32
0
VERTEX
8
0
62
5
10
-0.0050395041
20
0.42469738
30
0
70
32
0
VERTEX
8
0
62
5
10
-0.00025657785
20
0.43624439
30
0
70
32
0
SEQEND
8
0
0
POLYLINE
8
0
62
5
66
1
10
0
20
0
30
0
70
8
0
VERTEX
8
0
62
5
10
0.028027693
20
0.39005636
30
0
70
32
0
VERTEX
8
0
62
5
10
0.023244767
20
0.40160337
30
0
70
32
0
VERTEX
8
0
62
5
10
0.028027693
20
0.41315038
30
0
70
32
0
VERTEX
8
0
62
5
10
0.023244767
20
0.42469738
30
0
70
32
0
VERTEX
8
0
62
5
10
0.028027693
20
0.43624439
30
0
70
32
0
SEQEND
8
0
0
POLYLINE
8
0
62
5
66
1
10
0
20
0
30
0
70
8
0
VERTEX
8
0
62
5
10
0.056311965
20
0.39005636
30
0
70
32
0
VERTEX
8
0
62
5
10
0.051529038
20
0.40160337
30
0
70
32
0
VERTEX
8
0
62
5
10
0.056311965
20
0.41315038
30
0
70
32
0
VERTEX
8
0
62
5
10
0.051529038
20
0.42469738
30
0
70
32
0
VERTEX
8
0
62
5
10
0.056311965
20
0.43624439
30
0
70
32
0
SEQEND
8
0
0
POLYLINE
8
0
62
5
66
1
10
0
20
0
30
0
70
8
0
VERTEX
8
0
62
5
10
0.084596236
20
0.39005636
30
0
70
32
0
VERTEX
8
0
62
5
10
0.07981331
20
0.40160337
30
0
70
32
0
VERTEX
8
0
62
5
10
0.084596236
20
0.41315038
30
0
70
32
0
VERTEX
8
0
62
5
10
0.07981331
20
0.42469738
30
0
70
32
0
VERTEX
8
0
62
5
10
0.084596236
20
0.43624439
30
0
70
32
0
SEQEND
8
0
0
POLYLINE
8
0
62
5
66
1
10
0
20
0
30
0
70
8
0
VERTEX
8
0
62
5
10
-0.028540849
20
0.40160337
30
0
70
32
0
VERTEX
8
0
62
5
10
-0.0050395041
20
0.40160337
30
0
70
32
0
SEQEND
8
0
0
POLYLINE
8
0
62
5
66
1
10
0
20
0
30
0
70
8
0
VERTEX
8
0
62
5
10
-0.028540849
20
0.42469738
30
0
70
32
0
VERTEX
8
0
62
5
10
-0.0050395041
20
0.42469738
30
0
70
32
0
SEQEND
8
0
0
POLYLINE
8
0
62
5
66
1
10
0
20
0
30
0
70
8
0
VERTEX
8
0
62
5
10
-0.00025657785
20
0.40160337
30
0
70
32
0
VERTEX
8
0
62
5
10
0.023244767
20
0.40160337
30
0
70
32
0
SEQEND
8
0
0
POLYLINE
8
0
62
5
66
1
10
0
20
0
30
0
70
8
0
VERTEX
8
0
62
5
10
-0.00025657785
20
0.42469738
30
0
70
32
0
VERTEX
8
0
62
5
10
0.023244767
20
0.42469738
30
0
70
32
0
SEQEND
8
0
0
POLYLINE
8
0
62
5
66
1
10
0
20
0
30
0
70
8
0
VERTEX
8
0
62
5
10
0.028027693
20
0.40160337
30
0
70
32
0
VERTEX
8
0
62
5
10
0.051529038
20
0.40160337
30
0
70
32
0
SEQEND
8
0
0
POLYLINE
8
0
62
5
66
1
10
0
20
0
30
0
70
8
0
VERTEX
8
0
62
5
10
0.028027693
20
0.42469738
30
0
70
32
0
VERTEX
8
0
62
5
10
0.051529038
20
0.42469738
30
0
70
32
0
SEQEND
8
0
0
POLYLINE
8
0
62
5
66
1
10
0
20
0
30
0
70
8
0
VERTEX
8
0
62
5
10
0.056311965
20
0.40160337
30
0
70
32
0
VERTEX
8
0
62
5
10
0.07981331
20
0.40160337
30
0
70
32
0
SEQEND
8
0
0
POLYLINE
8
0
62
5
66
1
10
0
20
0
30
0
70
8
0
VERTEX
8
0
62
5
10
0.056311965
20
0.42469738
30
0
70
32
0
VERTEX
8
0
62
5
10
0.07981331
20
0.42469738
30
0
70
32
0
SEQEND
8
0
0
POLYLINE
8
0
62
30
66
1
10
0
20
0
30
0
70
8
0
VERTEX
8
0
62
30
10
-0.0050395041
20
0.40160337
30
0
70
32
0
VERTEX
8
0
62
30
10
-0.00025657785
20
0.40160337
30
0
70
32
0
SEQEND
8
0
0
POLYLINE
8
0
62
30
66
1
10
0
20
0
30
0
70
8
0
VERTEX
8
0
62
30
10
-0.0050395041
20
0.42469738
30
0
70
32
0
VERTEX
8
0
62
30
10
-0.00025657785
20
0.42469738
30
0
70
32
0
SEQEND
8
0
0
POLYLINE
8
0
62
30
66
1
10
0
20
0
30
0
70
8
0
VERTEX
8
0
62
30
10
0.023244767
20
0.40160337
30
0
70
32
0
VERTEX
8
0
62
30
10
0.028027693
20
0.40160337
30
0
70
32
0
SEQEND
8
0
0
POLYLINE
8
0
62
30
66
1
10
0
20
0
30
0
70
8
0
VERTEX
8
0
62
30
10
0.023244767
20
0.42469738
30
0
70
32
0
VERTEX
8
0
62
30
10
0.028027693
20
0.42469738
30
0
70
32
0
SEQEND
8
0
0
POLYLINE
8
0
62
30
66
1
10
0
20
0
30
0
70
8
0
VERTEX
8
0
62
30
10
0.051529038
20
0.40160337
30
0
70
32
0
VERTEX
8
0
62
30
10
0.056311965
20
0.40160337
30
0
70
32
0
SEQEND
8
0
0
POLYLINE
8
0
62
30
66
1
10
0
20
0
30
0
70
8
0
VERTEX
8
0
62
30
10
0.051529038
20
0.42469738
30
0
70
32
0
VERTEX
8
0
62
30
10
0.056311965
20
0.42469738
30
0
70
32
0
SEQEND
8
0
0
POLYLINE
8
0
62
30
66
1
10
0
20
0
30
0
70
8
0
VERTEX
8
0
62
30
10
0.07981331
20
0.40160337
30
0
70
32
0
VERTEX
8
0
62
30
10
0.084596236
20
0.40160337
30
0
70
32
0
SEQEND
8
0
0
POLYLINE
8
0
62
30
66
1
10
0
20
0
30
0
70
8
0
VERTEX
8
0
62
30
10
0.07981331
20
0.42469738
30
0
70
32
0
VERTEX
8
0
62
30
10
0.084596236
20
0.42469738
30
0
70
32
0
SEQEND
8
0
0
POLYLINE
8
0
62
5
66
1
10
0
20
0
30
0
70
8
0
VERTEX
8
0
62
5
10
0.19773332
20
0.48243241
30
0
70
32
0
VERTEX
8
0
62
5
10
0.19773332
20
0.29768032
30
0
70
32
0
SEQEND
8
0
0
POLYLINE
8
0
62
30
66
1
10
0
20
0
30
0
70
8
0
VERTEX
8
0
62
30
10
0.084596236
20
0.43624439
30
0
70
32
0
VERTEX
8
0
62
30
10
0.19773332
20
0.43624439
30
0
70
32
0
SEQEND
8
0
0
POLYLINE
8
0
62
30
66
1
10
0
20
0
30
0
70
8
0
VERTEX
8
0
62
30
10
0.084596236
20
0.39005636
30
0
70
32
0
VERTEX
8
0
62
30
10
0.19773332
20
0.39005636
30
0
70
32
0
SEQEND
8
0
0
POLYLINE
8
0
62
30
66
1
10
0
20
0
30
0
70
8
0
VERTEX
8
0
62
30
10
0.084596236
20
0.41315038
30
0
70
32
0
VERTEX
8
0
62
30
10
0.19773332
20
0.41315038
30
0
70
32
0
SEQEND
8
0
0
POLYLINE
8
0
62
5
66
1
10
0
20
0
30
0
70
8
0
VERTEX
8
0
62
5
10
0.084596236
20
0.34386834
30
0
70
32
0
VERTEX
8
0
62
5
10
0.19773332
20
0.34386834
30
0
70
32
0
SEQEND
8
0
0
POLYLINE
8
0
62
5
66
1
10
0
20
0
30
0
70
8
0
VERTEX
8
0
62
5
10
0.11288051
20
0.29768032
30
0
70
32
0
VERTEX
8
0
62
5
10
0.11288051
20
0.39005636
30
0
70
32
0
SEQEND
8
0
0
POLYLINE
8
0
62
5
66
1
10
0
20
0
30
0
70
8
0
VERTEX
8
0
62
5
10
0.14116478
20
0.29768032
30
0
70
32
0
VERTEX
8
0
62
5
10
0.14116478
20
0.39005636
30
0
70
32
0
SEQEND
8
0
0
POLYLINE
8
0
62
5
66
1
10
0
20
0
30
0
70
8
0
VERTEX
8
0
62
5
10
0.16944905
20
0.29768032
30
0
70
32
0
VERTEX
8
0
62
5
10
0.16944905
20
0.39005636
30
0
70
32
0
SEQEND
8
0
0
POLYLINE
8
0
62
5
66
1
10
0
20
0
30
0
70
8
0
VERTEX
8
0
62
5
10
0.11288051
20
0.43624439
30
0
70
32
0
VERTEX
8
0
62
5
10
0.11288051
20
0.48243241
30
0
70
32
0
SEQEND
8
0
0
POLYLINE
8
0
62
5
66
1
10
0
20
0
30
0
70
8
0
VERTEX
8
0
62
5
10
0.14116478
20
0.43624439
30
0
70
32
0
VERTEX
8
0
62
5
10
0.14116478
20
0.48243241
30
0
70
32
0
SEQEND
8
0
0
POLYLINE
8
0
62
5
66
1
10
0
20
0
30
0
70
8
0
VERTEX
8
0
62
5
10
0.16944905
20
0.43624439
30
0
70
32
0
VERTEX
8
0
62
5
10
0.16944905
20
0.48243241
30
0
70
32
0
SEQEND
8
0
0
POLYLINE
8
0
62
30
66
1
10
0
20
0
30
0
70
8
0
VERTEX
8
0
62
30
10
0.11288051
20
0.39005636
30
0
70
32
0
VERTEX
8
0
62
30
10
0.11288051
20
0.43624439
30
0
70
32
0
SEQEND
8
0
0
POLYLINE
8
0
62
30
66
1
10
0
20
0
30
0
70
8
0
VERTEX
8
0
62
30
10
0.14116478
20
0.39005636
30
0
70
32
0
VERTEX
8
0
62
30
10
0.14116478
20
0.43624439
30
0
70
32
0
SEQEND
8
0
0
POLYLINE
8
0
62
30
66
1
10
0
20
0
30
0
70
8
0
VERTEX
8
0
62
30
10
0.16944905
20
0.39005636
30
0
70
32
0
VERTEX
8
0
62
30
10
0.16944905
20
0.43624439
30
0
70
32
0
SEQEND
8
0
0
POLYLINE
8
0
62
30
66
1
10
0
20
0
30
0
70
8
0
VERTEX
8
0
62
30
10
0.19773332
20
0.39005636
30
0
70
32
0
VERTEX
8
0
62
30
10
0.19773332
20
0.43624439
30
0
70
32
0
SEQEND
8
0
0
POLYLINE
8
0
62
5
66
1
10
0
20
0
30
0
70
8
0
VERTEX
8
0
62
5
10
0.11288051
20
0.39005636
30
0
70
32
0
VERTEX
8
0
62
5
10
0.10809758
20
0.40160337
30
0
70
32
0
VERTEX
8
0
62
5
10
0.11288051
20
0.41315038
30
0
70
32
0
VERTEX
8
0
62
5
10
0.10809758
20
0.42469738
30
0
70
32
0
VERTEX
8
0
62
5
10
0.11288051
20
0.43624439
30
0
70
32
0
SEQEND
8
0
0
POLYLINE
8
0
62
5
66
1
10
0
20
0
30
0
70
8
0
VERTEX
8
0
62
5
10
0.14116478
20
0.39005636
30
0
70
32
0
VERTEX
8
0
62
5
10
0.13638185
20
0.40160337
30
0
70
32
0
VERTEX
8
0
62
5
10
0.14116478
20
0.41315038
30
0
70
32
0
VERTEX
8
0
62
5
10
0.13638185
20
0.42469738
30
0
70
32
0
VERTEX
8
0
62
5
10
0.14116478
20
0.43624439
30
0
70
32
0
SEQEND
8
0
0
POLYLINE
8
0
62
5
66
1
10
0
20
0
30
0
70
8
0
VERTEX
8
0
62
5
10
0.16944905
20
0.39005636
30
0
70
32
0
VERTEX
8
0
62
5
10
0.16466612
20
0.40160337
30
0
70
32
0
VERTEX
8
0
62
5
10
0.16944905
20
0.41315038
30
0
70
32
0
VERTEX
8
0
62
5
10
0.16466612
20
0.42469738
30
0
70
32
0
VERTEX
8
0
62
5
10
0.16944905
20
0.43624439
30
0
70
32
0
SEQEND
8
0
0
POLYLINE
8
0
62
5
66
1
10
0
20
0
30
0
70
8
0
VERTEX
8
0
62
5
10
0.19773332
20
0.39005636
30
0
70
32
0
VERTEX
8
0
62
5
10
0.19295039
20
0.40160337
30
0
70
32
0
VERTEX
8
0
62
5
10
0.19773332
20
0.41315038
30
0
70
32
0
VERTEX
8
0
62
5
10
0.19295039
20
0.42469738
30
0
70
32
0
VERTEX
8
0
62
5
10
0.19773332
20
0.43624439
30
0
70
32
0
SEQEND
8
0
0
POLYLINE
8
0
62
5
66
1
10
0
20
0
30
0
70
8
0
VERTEX
8
0
62
5
10
0.084596236
20
0.40160337
30
0
70
32
0
VERTEX
8
0
62
5
10
0.10809758
20
0.40160337
30
0
70
32
0
SEQEND
8
0
0
POLYLINE
8
0
62
5
66
1
10
0
20
0
30
0
70
8
0
VERTEX
8
0
62
5
10
0.084596236
20
0.42469738
30
0
70
32
0
VERTEX
8
0
62
5
10
0.10809758
20
0.42469738
30
0
70
32
0
SEQEND
8
0
0
POLYLINE
8
0
62
5
66
1
10
0
20
0
30
0
70
8
0
VERTEX
8
0
62
5
10
0.11288051
20
0.40160337
30
0
70
32
0
VERTEX
8
0
62
5
10
0.13638185
20
0.40160337
30
0
70
32
0
SEQEND
8
0
0
POLYLINE
8
0
62
5
66
1
10
0
20
0
30
0
70
8
0
VERTEX
8
0
62
5
10
0.11288051
20
0.42469738
30
0
70
32
0
VERTEX
8
0
62
5
10
0.13638185
20
0.42469738
30
0
70
32
0
SEQEND
8
0
0
POLYLINE
8
0
62
5
66
1
10
0
20
0
30
0
70
8
0
VERTEX
8
0
62
5
10
0.14116478
20
0.40160337
30
0
70
32
0
VERTEX
8
0
62
5
10
0.16466612
20
0.40160337
30
0
70
32
0
SEQEND
8
0
0
POLYLINE
8
0
62
5
66
1
10
0
20
0
30
0
70
8
0
VERTEX
8
0
62
5
10
0.14116478
20
0.42469738
30
0
70
32
0
VERTEX
8
0
62
5
10
0.16466612
20
0.42469738
30
0
70
32
0
SEQEND
8
0
0
POLYLINE
8
0
62
5
66
1
10
0
20
0
30
0
70
8
0
VERTEX
8
0
62
5
10
0.16944905
20
0.40160337
30
0
70
32
0
VERTEX
8
0
62
5
10
0.19295039
20
0.40160337
30
0
70
32
0
SEQEND
8
0
0
POLYLINE
8
0
62
5
66
1
10
0
20
0
30
0
70
8
0
VERTEX
8
0
62
5
10
0.16944905
20
0.42469738
30
0
70
32
0
VERTEX
8
0
62
5
10
0.19295039
20
0.42469738
30
0
70
32
0
SEQEND
8
0
0
POLYLINE
8
0
62
30
66
1
10
0
20
0
30
0
70
8
0
VERTEX
8
0
62
30
10
0.10809758
20
0.40160337
30
0
70
32
0
VERTEX
8
0
62
30
10
0.11288051
20
0.40160337
30
0
70
32
0
SEQEND
8
0
0
POLYLINE
8
0
62
30
66
1
10
0
20
0
30
0
70
8
0
VERTEX
8
0
62
30
10
0.10809758
20
0.42469738
30
0
70
32
0
VERTEX
8
0
62
30
10
0.11288051
20
0.42469738
30
0
70
32
0
SEQEND
8
0
0
POLYLINE
8
0
62
30
66
1
10
0
20
0
30
0
70
8
0
VERTEX
8
0
62
30
10
0.13638185
20
0.40160337
30
0
70
32
0
VERTEX
8
0
62
30
10
0.14116478
20
0.40160337
30
0
70
32
0
SEQEND
8
0
0
POLYLINE
8
0
62
30
66
1
10
0
20
0
30
0
70
8
0
VERTEX
8
0
62
30
10
0.13638185
20
0.42469738
30
0
70
32
0
VERTEX
8
0
62
30
10
0.14116478
20
0.42469738
30
0
70
32
0
SEQEND
8
0
0
POLYLINE
8
0
62
30
66
1
10
0
20
0
30
0
70
8
0
VERTEX
8
0
62
30
10
0.16466612
20
0.40160337
30
0
70
32
0
VERTEX
8
0
62
30
10
0.16944905
20
0.40160337
30
0
70
32
0
SEQEND
8
0
0
POLYLINE
8
0
62
30
66
1
10
0
20
0
30
0
70
8
0
VERTEX
8
0
62
30
10
0.16466612
20
0.42469738
30
0
70
32
0
VERTEX
8
0
62
30
10
0.16944905
20
0.42469738
30
0
70
32
0
SEQEND
8
0
0
POLYLINE
8
0
62
30
66
1
10
0
20
0
30
0
70
8
0
VERTEX
8
0
62
30
10
0.19295039
20
0.40160337
30
0
70
32
0
VERTEX
8
0
62
30
10
0.19773332
20
0.40160337
30
0
70
32
0
SEQEND
8
0
0
POLYLINE
8
0
62
30
66
1
10
0
20
0
30
0
70
8
0
VERTEX
8
0
62
30
10
0.19295039
20
0.42469738
30
0
70
32
0
VERTEX
8
0
62
30
10
0.19773332
20
0.42469738
30
0
70
32
0
SEQEND
8
0
0
POLYLINE
8
0
62
5
66
1
10
0
20
0
30
0
70
8
0
VERTEX
8
0
62
5
10
-0.14167793
20
0.29768032
30
0
70
32
0
VERTEX
8
0
62
5
10
-0.14167793
20
0.48243241
30
0
70
32
0
SEQEND
8
0
0
POLYLINE
8
0
62
30
66
1
10
0
20
0
30
0
70
8
0
VERTEX
8
0
62
30
10
-0.14167793
20
0.43624439
30
0
70
32
0
VERTEX
8
0
62
30
10
-0.028540849
20
0.43624439
30
0
70
32
0
SEQEND
8
0
0
POLYLINE
8
0
62
30
66
1
10
0
20
0
30
0
70
8
0
VERTEX
8
0
62
30
10
-0.14167793
20
0.39005636
30
0
70
32
0
VERTEX
8
0
62
30
10
-0.028540849
20
0.39005636
30
0
70
32
0
SEQEND
8
0
0
POLYLINE
8
0
62
30
66
1
10
0
20
0
30
0
70
8
0
VERTEX
8
0
62
30
10
-0.14167793
20
0.41315038
30
0
70
32
0
VERTEX
8
0
62
30
10
-0.028540849
20
0.41315038
30
0
70
32
0
SEQEND
8
0
0
POLYLINE
8
0
62
5
66
1
10
0
20
0
30
0
70
8
0
VERTEX
8
0
62
5
10
-0.14167793
20
0.34386834
30
0
70
32
0
VERTEX
8
0
62
5
10
-0.028540849
20
0.34386834
30
0
70
32
0
SEQEND
8
0
0
POLYLINE
8
0
62
5
66
1
10
0
20
0
30
0
70
8
0
VERTEX
8
0
62
5
10
-0.11339366
20
0.29768032
30
0
70
32
0
VERTEX
8
0
62
5
10
-0.11339366
20
0.39005636
30
0
70
32
0
SEQEND
8
0
0
POLYLINE
8
0
62
5
66
1
10
0
20
0
30
0
70
8
0
VERTEX
8
0
62
5
10
-0.085109392
20
0.29768032
30
0
70
32
0
VERTEX
8
0
62
5
10
-0.085109392
20
0.39005636
30
0
70
32
0
SEQEND
8
0
0
POLYLINE
8
0
62
5
66
1
10
0
20
0
30
0
70
8
0
VERTEX
8
0
62
5
10
-0.05682512
20
0.29768032
30
0
70
32
0
VERTEX
8
0
62
5
10
-0.05682512
20
0.39005636
30
0
70
32
0
SEQEND
8
0
0
POLYLINE
8
0
62
5
66
1
10
0
20
0
30
0
70
8
0
VERTEX
8
0
62
5
10
-0.11339366
20
0.43624439
30
0
70
32
0
VERTEX
8
0
62
5
10
-0.11339366
20
0.48243241
30
0
70
32
0
SEQEND
8
0
0
POLYLINE
8
0
62
5
66
1
10
0
20
0
30
0
70
8
0
VERTEX
8
0
62
5
10
-0.085109392
20
0.43624439
30
0
70
32
0
VERTEX
8
0
62
5
10
-0.085109392
20
0.48243241
30
0
70
32
0
SEQEND
8
0
0
POLYLINE
8
0
62
5
66
1
10
0
20
0
30
0
70
8
0
VERTEX
8
0
62
5
10
-0.05682512
20
0.43624439
30
0
70
32
0
VERTEX
8
0
62
5
10
-0.05682512
20
0.48243241
30
0
70
32
0
SEQEND
8
0
0
POLYLINE
8
0
62
30
66
1
10
0
20
0
30
0
70
8
0
VERTEX
8
0
62
30
10
-0.11339366
20
0.39005636
30
0
70
32
0
VERTEX
8
0
62
30
10
-0.11339366
20
0.43624439
30
0
70
32
0
SEQEND
8
0
0
POLYLINE
8
0
62
30
66
1
10
0
20
0
30
0
70
8
0
VERTEX
8
0
62
30
10
-0.085109392
20
0.39005636
30
0
70
32
0
VERTEX
8
0
62
30
10
-0.085109392
20
0.43624439
30
0
70
32
0
SEQEND
8
0
0
POLYLINE
8
0
62
30
66
1
10
0
20
0
30
0
70
8
0
VERTEX
8
0
62
30
10
-0.05682512
20
0.39005636
30
0
70
32
0
VERTEX
8
0
62
30
10
-0.05682512
20
0.43624439
30
0
70
32
0
SEQEND
8
0
0
POLYLINE
8
0
62
30
66
1
10
0
20
0
30
0
70
8
0
VERTEX
8
0
62
30
10
-0.028540849
20
0.39005636
30
0
70
32
0
VERTEX
8
0
62
30
10
-0.028540849
20
0.43624439
30
0
70
32
0
SEQEND
8
0
0
POLYLINE
8
0
62
5
66
1
10
0
20
0
30
0
70
8
0
VERTEX
8
0
62
5
10
-0.11339366
20
0.39005636
30
0
70
32
0
VERTEX
8
0
62
5
10
-0.11817659
20
0.40160337
30
0
70
32
0
VERTEX
8
0
62
5
10
-0.11339366
20
0.41315038
30
0
70
32
0
VERTEX
8
0
62
5
10
-0.11817659
20
0.42469738
30
0
70
32
0
VERTEX
8
0
62
5
10
-0.11339366
20
0.43624439
30
0
70
32
0
SEQEND
8
0
0
POLYLINE
8
0
62
5
66
1
10
0
20
0
30
0
70
8
0
VERTEX
8
0
62
5
10
-0.085109392
20
0.39005636
30
0
70
32
0
VERTEX
8
0
62
5
10
-0.089892318
20
0.40160337
30
0
70
32
0
VERTEX
8
0
62
5
10
-0.085109392
20
0.41315038
30
0
70
32
0
VERTEX
8
0
62
5
10
-0.089892318
20
0.42469738
30
0
70
32
0
VERTEX
8
0
62
5
10
-0.085109392
20
0.43624439
30
0
70
32
0
SEQEND
8
0
0
POLYLINE
8
0
62
5
66
1
10
0
20
0
30
0
70
8
0
VERTEX
8
0
62
5
10
-0.05682512
20
0.39005636
30
0
70
32
0
VERTEX
8
0
62
5
10
-0.061608047
20
0.40160337
30
0
70
32
0
VERTEX
8
0
62
5
10
-0.05682512
20
0.41315038
30
0
70
32
0
VERTEX
8
0
62
5
10
-0.061608047
20
0.42469738
30
0
70
32
0
VERTEX
8
0
62
5
10
-0.05682512
20
0.43624439
30
0
70
32
0
SEQEND
8
0
0
POLYLINE
8
0
62
5
66
1
10
0
20
0
30
0
70
8
0
VERTEX
8
0
62
5
10
-0.028540849
20
0.39005636
30
0
70
32
0
VERTEX
8
0
62
5
10
-0.033323775
20
0.40160337
30
0
70
32
0
VERTEX
8
0
62
5
10
-0.028540849
20
0.41315038
30
0
70
32
0
VERTEX
8
0
62
5
10
-0.033323775
20
0.42469738
30
0
70
32
0
VERTEX
8
0
62
5
10
-0.028540849
20
0.43624439
30
0
70
32
0
SEQEND
8
0
0
POLYLINE
8
0
62
5
66
1
10
0
20
0
30
0
70
8
0
VERTEX
8
0
62
5
10
-0.14167793
20
0.40160337
30
0
70
32
0
VERTEX
8
0
62
5
10
-0.11817659
20
0.40160337
30
0
70
32
0
SEQEND
8
0
0
POLYLINE
8
0
62
5
66
1
10
0
20
0
30
0
70
8
0
VERTEX
8
0
62
5
10
-0.14167793
20
0.42469738
30
0
70
32
0
VERTEX
8
0
62
5
10
-0.11817659
20
0.42469738
30
0
70
32
0
SEQEND
8
0
0
POLYLINE
8
0
62
5
66
1
10
0
20
0
30
0
70
8
0
VERTEX
8
0
62
5
10
-0.11339366
20
0.40160337
30
0
70
32
0
VERTEX
8
0
62
5
10
-0.089892318
20
0.40160337
30
0
70
32
0
SEQEND
8
0
0
POLYLINE
8
0
62
5
66
1
10
0
20
0
30
0
70
8
0
VERTEX
8
0
62
5
10
-0.11339366
20
0.42469738
30
0
70
32
0
VERTEX
8
0
62
5
10
-0.089892318
20
0.42469738
30
0
70
32
0
SEQEND
8
0
0
POLYLINE
8
0
62
5
66
1
10
0
20
0
30
0
70
8
0
VERTEX
8
0
62
5
10
-0.085109392
20
0.40160337
30
0
70
32
0
VERTEX
8
0
62
5
10
-0.061608047
20
0.40160337
30
0
70
32
0
SEQEND
8
0
0
POLYLINE
8
0
62
5
66
1
10
0
20
0
30
0
70
8
0
VERTEX
8
0
62
5
10
-0.085109392
20
0.42469738
30
0
70
32
0
VERTEX
8
0
62
5
10
-0.061608047
20
0.42469738
30
0
70
32
0
SEQEND
8
0
0
POLYLINE
8
0
62
5
66
1
10
0
20
0
30
0
70
8
0
VERTEX
8
0
62
5
10
-0.05682512
20
0.40160337
30
0
70
32
0
VERTEX
8
0
62
5
10
-0.033323775
20
0.40160337
30
0
70
32
0
SEQEND
8
0
0
POLYLINE
8
0
62
5
66
1
10
0
20
0
30
0
70
8
0
VERTEX
8
0
62
5
10
-0.05682512
20
0.42469738
30
0
70
32
0
VERTEX
8
0
62
5
10
-0.033323775
20
0.42469738
30
0
70
32
0
SEQEND
8
0
0
POLYLINE
8
0
62
30
66
1
10
0
20
0
30
0
70
8
0
VERTEX
8
0
62
30
10
-0.11817659
20
0.40160337
30
0
70
32
0
VERTEX
8
0
62
30
10
-0.11339366
20
0.40160337
30
0
70
32
0
SEQEND
8
0
0
POLYLINE
8
0
62
30
66
1
10
0
20
0
30
0
70
8
0
VERTEX
8
0
62
30
10
-0.11817659
20
0.42469738
30
0
70
32
0
VERTEX
8
0
62
30
10
-0.11339366
20
0.42469738
30
0
70
32
0
SEQEND
8
0
0
POLYLINE
8
0
62
30
66
1
10
0
20
0
30
0
70
8
0
VERTEX
8
0
62
30
10
-0.089892318
20
0.40160337
30
0
70
32
0
VERTEX
8
0
62
30
10
-0.085109392
20
0.40160337
30
0
70
32
0
SEQEND
8
0
0
POLYLINE
8
0
62
30
66
1
10
0
20
0
30
0
70
8
0
VERTEX
8
0
62
30
10
-0.089892318
20
0.42469738
30
0
70
32
0
VERTEX
8
0
62
30
10
-0.085109392
20
0.42469738
30
0
70
32
0
SEQEND
8
0
0
POLYLINE
8
0
62
30
66
1
10
0
20
0
30
0
70
8
0
VERTEX
8
0
62
30
10
-0.061608047
20
0.40160337
30
0
70
32
0
VERTEX
8
0
62
30
10
-0.05682512
20
0.40160337
30
0
70
32
0
SEQEND
8
0
0
POLYLINE
8
0
62
30
66
1
10
0
20
0
30
0
70
8
0
VERTEX
8
0
62
30
10
-0.061608047
20
0.42469738
30
0
70
32
0
VERTEX
8
0
62
30
10
-0.05682512
20
0.42469738
30
0
70
32
0
SEQEND
8
0
0
POLYLINE
8
0
62
30
66
1
10
0
20
0
30
0
70
8
0
VERTEX
8
0
62
30
10
-0.033323775
20
0.40160337
30
0
70
32
0
VERTEX
8
0
62
30
10
-0.028540849
20
0.40160337
30
0
70
32
0
SEQEND
8
0
0
POLYLINE
8
0
62
30
66
1
10
0
20
0
30
0
70
8
0
VERTEX
8
0
62
30
10
-0.033323775
20
0.42469738
30
0
70
32
0
VERTEX
8
0
62
30
10
-0.028540849
20
0.42469738
30
0
70
32
0
SEQEND
8
0
0
POLYLINE
8
0
62
5
66
1
10
0
20
0
30
0
70
8
0
VERTEX
8
0
62
5
10
-0.028540849
20
0.48243241
30
0
70
32
0
VERTEX
8
0
62
5
10
-0.028540849
20
0.50231649
30
0
70
32
0
SEQEND
8
0
0
POLYLINE
8
0
62
5
66
1
10
0
20
0
30
0
70
8
0
VERTEX
8
0
62
5
10
-0.00025657785
20
0.48243241
30
0
70
32
0
VERTEX
8
0
62
5
10
-0.00025657785
20
0.50231649
30
0
70
32
0
SEQEND
8
0
0
POLYLINE
8
0
62
5
66
1
10
0
20
0
30
0
70
8
0
VERTEX
8
0
62
5
10
0.028027693
20
0.48243241
30
0
70
32
0
VERTEX
8
0
62
5
10
0.028027693
20
0.50231649
30
0
70
32
0
SEQEND
8
0
0
POLYLINE
8
0
62
5
66
1
10
0
20
0
30
0
70
8
0
VERTEX
8
0
62
5
10
0.056311965
20
0.48243241
30
0
70
32
0
VERTEX
8
0
62
5
10
0.056311965
20
0.50231649
30
0
70
32
0
SEQEND
8
0
0
POLYLINE
8
0
62
5
66
1
10
0
20
0
30
0
70
8
0
VERTEX
8
0
62
5
10
0.084596236
20
0.48243241
30
0
70
32
0
VERTEX
8
0
62
5
10
0.084596236
20
0.50231649
30
0
70
32
0
SEQEND
8
0
0
POLYLINE
8
0
62
5
66
1
10
0
20
0
30
0
70
8
0
VERTEX
8
0
62
5
10
-0.00025657785
20
0.48243241
30
0
70
32
0
VERTEX
8
0
62
5
10
-0.00025657785
20
0.48243241
30
0
70
32
0
SEQEND
8
0
0
POLYLINE
8
0
62
5
66
1
10
0
20
0
30
0
70
8
0
VERTEX
8
0
62
5
10
0.028027693
20
0.48243241
30
0
70
32
0
VERTEX
8
0
62
5
10
0.028027693
20
0.48243241
30
0
70
32
0
SEQEND
8
0
0
POLYLINE
8
0
62
5
66
1
10
0
20
0
30
0
70
8
0
VERTEX
8
0
62
5
10
0.056311965
20
0.48243241
30
0
70
32
0
VERTEX
8
0
62
5
10
0.056311965
20
0.48243241
30
0
70
32
0
SEQEND
8
0
0
POLYLINE
8
0
62
5
66
1
10
0
20
0
30
0
70
8
0
VERTEX
8
0
62
5
10
-0.00025657785
20
0.50231649
30
0
70
32
0
VERTEX
8
0
62
5
10
-0.00025657785
20
0.50231649
30
0
70
32
0
SEQEND
8
0
0
POLYLINE
8
0
62
5
66
1
10
0
20
0
30
0
70
8
0
VERTEX
8
0
62
5
10
0.028027693
20
0.50231649
30
0
70
32
0
VERTEX
8
0
62
5
10
0.028027693
20
0.50231649
30
0
70
32
0
SEQEND
8
0
0
POLYLINE
8
0
62
5
66
1
10
0
20
0
30
0
70
8
0
VERTEX
8
0
62
5
10
0.056311965
20
0.50231649
30
0
70
32
0
VERTEX
8
0
62
5
10
0.056311965
20
0.50231649
30
0
70
32
0
SEQEND
8
0
0
POLYLINE
8
0
62
5
66
1
10
0
20
0
30
0
70
8
0
VERTEX
8
0
62
5
10
0.084596236
20
0.50231649
30
0
70
32
0
VERTEX
8
0
62
5
10
0.084596236
20
0.50231649
30
0
70
32
0
SEQEND
8
0
0
POLYLINE
8
0
62
5
66
1
10
0
20
0
30
0
70
8
0
VERTEX
8
0
62
5
10
0.11288051
20
0.48243241
30
0
70
32
0
VERTEX
8
0
62
5
10
0.11288051
20
0.50231649
30
0
70
32
0
SEQEND
8
0
0
POLYLINE
8
0
62
5
66
1
10
0
20
0
30
0
70
8
0
VERTEX
8
0
62
5
10
0.14116478
20
0.48243241
30
0
70
32
0
VERTEX
8
0
62
5
10
0.14116478
20
0.50231649
30
0
70
32
0
SEQEND
8
0
0
POLYLINE
8
0
62
5
66
1
10
0
20
0
30
0
70
8
0
VERTEX
8
0
62
5
10
0.16944905
20
0.48243241
30
0
70
32
0
VERTEX
8
0
62
5
10
0.16944905
20
0.50231649
30
0
70
32
0
SEQEND
8
0
0
POLYLINE
8
0
62
5
66
1
10
0
20
0
30
0
70
8
0
VERTEX
8
0
62
5
10
0.19773332
20
0.48243241
30
0
70
32
0
VERTEX
8
0
62
5
10
0.19773332
20
0.50231649
30
0
70
32
0
SEQEND
8
0
0
POLYLINE
8
0
62
5
66
1
10
0
20
0
30
0
70
8
0
VERTEX
8
0
62
5
10
0.11288051
20
0.48243241
30
0
70
32
0
VERTEX
8
0
62
5
10
0.11288051
20
0.48243241
30
0
70
32
0
SEQEND
8
0
0
POLYLINE
8
0
62
5
66
1
10
0
20
0
30
0
70
8
0
VERTEX
8
0
62
5
10
0.14116478
20
0.48243241
30
0
70
32
0
VERTEX
8
0
62
5
10
0.14116478
20
0.48243241
30
0
70
32
0
SEQEND
8
0
0
POLYLINE
8
0
62
5
66
1
10
0
20
0
30
0
70
8
0
VERTEX
8
0
62
5
10
0.16944905
20
0.48243241
30
0
70
32
0
VERTEX
8
0
62
5
10
0.16944905
20
0.48243241
30
0
70
32
0
SEQEND
8
0
0
POLYLINE
8
0
62
5
66
1
10
0
20
0
30
0
70
8
0
VERTEX
8
0
62
5
10
0.11288051
20
0.50231649
30
0
70
32
0
VERTEX
8
0
62
5
10
0.11288051
20
0.50231649
30
0
70
32
0
SEQEND
8
0
0
POLYLINE
8
0
62
5
66
1
10
0
20
0
30
0
70
8
0
VERTEX
8
0
62
5
10
0.14116478
20
0.50231649
30
0
70
32
0
VERTEX
8
0
62
5
10
0.14116478
20
0.50231649
30
0
70
32
0
SEQEND
8
0
0
POLYLINE
8
0
62
5
66
1
10
0
20
0
30
0
70
8
0
VERTEX
8
0
62
5
10
0.16944905
20
0.50231649
30
0
70
32
0
VERTEX
8
0
62
5
10
0.16944905
20
0.50231649
30
0
70
32
0
SEQEND
8
0
0
POLYLINE
8
0
62
5
66
1
10
0
20
0
30
0
70
8
0
VERTEX
8
0
62
5
10
0.19773332
20
0.50231649
30
0
70
32
0
VERTEX
8
0
62
5
10
0.19773332
20
0.50231649
30
0
70
32
0
SEQEND
8
0
0
POLYLINE
8
0
62
5
66
1
10
0
20
0
30
0
70
8
0
VERTEX
8
0
62
5
10
-0.11339366
20
0.48243241
30
0
70
32
0
VERTEX
8
0
62
5
10
-0.11339366
20
0.50231649
30
0
70
32
0
SEQEND
8
0
0
POLYLINE
8
0
62
5
66
1
10
0
20
0
30
0
70
8
0
VERTEX
8
0
62
5
10
-0.085109392
20
0.48243241
30
0
70
32
0
VERTEX
8
0
62
5
10
-0.085109392
20
0.50231649
30
0
70
32
0
SEQEND
8
0
0
POLYLINE
8
0
62
5
66
1
10
0
20
0
30
0
70
8
0
VERTEX
8
0
62
5
10
-0.05682512
20
0.48243241
30
0
70
32
0
VERTEX
8
0
62
5
10
-0.05682512
20
0.50231649
30
0
70
32
0
SEQEND
8
0
0
POLYLINE
8
0
62
5
66
1
10
0
20
0
30
0
70
8
0
VERTEX
8
0
62
5
10
-0.028540849
20
0.48243241
30
0
70
32
0
VERTEX
8
0
62
5
10
-0.028540849
20
0.50231649
30
0
70
32
0
SEQEND
8
0
0
POLYLINE
8
0
62
5
66
1
10
0
20
0
30
0
70
8
0
VERTEX
8
0
62
5
10
-0.11339366
20
0.48243241
30
0
70
32
0
VERTEX
8
0
62
5
10
-0.11339366
20
0.48243241
30
0
70
32
0
SEQEND
8
0
0
POLYLINE
8
0
62
5
66
1
10
0
20
0
30
0
70
8
0
VERTEX
8
0
62
5
10
-0.085109392
20
0.48243241
30
0
70
32
0
VERTEX
8
0
62
5
10
-0.085109392
20
0.48243241
30
0
70
32
0
SEQEND
8
0
0
POLYLINE
8
0
62
5
66
1
10
0
20
0
30
0
70
8
0
VERTEX
8
0
62
5
10
-0.05682512
20
0.48243241
30
0
70
32
0
VERTEX
8
0
62
5
10
-0.05682512
20
0.48243241
30
0
70
32
0
SEQEND
8
0
0
POLYLINE
8
0
62
5
66
1
10
0
20
0
30
0
70
8
0
VERTEX
8
0
62
5
10
-0.11339366
20
0.50231649
30
0
70
32
0
VERTEX
8
0
62
5
10
-0.11339366
20
0.50231649
30
0
70
32
0
SEQEND
8
0
0
POLYLINE
8
0
62
5
66
1
10
0
20
0
30
0
70
8
0
VERTEX
8
0
62
5
10
-0.085109392
20
0.50231649
30
0
70
32
0
VERTEX
8
0
62
5
10
-0.085109392
20
0.50231649
30
0
70
32
0
SEQEND
8
0
0
POLYLINE
8
0
62
5
66
1
10
0
20
0
30
0
70
8
0
VERTEX
8
0
62
5
10
-0.05682512
20
0.50231649
30
0
70
32
0
VERTEX
8
0
62
5
10
-0.05682512
20
0.50231649
30
0
70
32
0
SEQEND
8
0
0
POLYLINE
8
0
62
5
66
1
10
0
20
0
30
0
70
8
0
VERTEX
8
0
62
5
10
-0.028540849
20
0.50231649
30
0
70
32
0
VERTEX
8
0
62
5
10
-0.028540849
20
0.50231649
30
0
70
32
0
SEQEND
8
0
0
POLYLINE
8
0
62
5
66
1
10
0
20
0
30
0
70
8
0
VERTEX
8
0
62
5
10
-0.028540849
20
0.50231649
30
0
70
32
0
VERTEX
8
0
62
5
10
-0.028540849
20
0.58185281
30
0
70
32
0
SEQEND
8
0
0
POLYLINE
8
0
62
5
66
1
10
0
20
0
30
0
70
8
0
VERTEX
8
0
62
5
10
0.084596236
20
0.50231649
30
0
70
32
0
VERTEX
8
0
62
5
10
0.084596236
20
0.58185281
30
0
70
32
0
SEQEND
8
0
0
POLYLINE
8
0
62
5
66
1
10
0
20
0
30
0
70
8
0
VERTEX
8
0
62
5
10
-0.00025657785
20
0.50231649
30
0
70
32
0
VERTEX
8
0
62
5
10
-0.00025657785
20
0.58185281
30
0
70
32
0
SEQEND
8
0
0
POLYLINE
8
0
62
5
66
1
10
0
20
0
30
0
70
8
0
VERTEX
8
0
62
5
10
0.028027693
20
0.50231649
30
0
70
32
0
VERTEX
8
0
62
5
10
0.028027693
20
0.58185281
30
0
70
32
0
SEQEND
8
0
0
POLYLINE
8
0
62
5
66
1
10
0
20
0
30
0
70
8
0
VERTEX
8
0
62
5
10
0.056311965
20
0.50231649
30
0
70
32
0
VERTEX
8
0
62
5
10
0.056311965
20
0.58185281
30
0
70
32
0
SEQEND
8
0
0
POLYLINE
8
0
62
5
66
1
10
0
20
0
30
0
70
8
0
VERTEX
8
0
62
5
10
0.19773332
20
0.50231649
30
0
70
32
0
VERTEX
8
0
62
5
10
0.19773332
20
0.58185281
30
0
70
32
0
SEQEND
8
0
0
POLYLINE
8
0
62
5
66
1
10
0
20
0
30
0
70
8
0
VERTEX
8
0
62
5
10
0.11288051
20
0.50231649
30
0
70
32
0
VERTEX
8
0
62
5
10
0.11288051
20
0.58185281
30
0
70
32
0
SEQEND
8
0
0
POLYLINE
8
0
62
5
66
1
10
0
20
0
30
0
70
8
0
VERTEX
8
0
62
5
10
0.14116478
20
0.50231649
30
0
70
32
0
VERTEX
8
0
62
5
10
0.14116478
20
0.58185281
30
0
70
32
0
SEQEND
8
0
0
POLYLINE
8
0
62
5
66
1
10
0
20
0
30
0
70
8
0
VERTEX
8
0
62
5
10
0.16944905
20
0.50231649
30
0
70
32
0
VERTEX
8
0
62
5
10
0.16944905
20
0.58185281
30
0
70
32
0
SEQEND
8
0
0
POLYLINE
8
0
62
5
66
1
10
0
20
0
30
0
70
8
0
VERTEX
8
0
62
5
10
-0.14167793
20
0.50231649
30
0
70
32
0
VERTEX
8
0
62
5
10
-0.14167793
20
0.58185281
30
0
70
32
0
SEQEND
8
0
0
POLYLINE
8
0
62
5
66
1
10
0
20
0
30
0
70
8
0
VERTEX
8
0
62
5
10
-0.11339366
20
0.50231649
30
0
70
32
0
VERTEX
8
0
62
5
10
-0.11339366
20
0.58185281
30
0
70
32
0
SEQEND
8
0
0
POLYLINE
8
0
62
5
66
1
10
0
20
0
30
0
70
8
0
VERTEX
8
0
62
5
10
-0.085109392
20
0.50231649
30
0
70
32
0
VERTEX
8
0
62
5
10
-0.085109392
20
0.58185281
30
0
70
32
0
SEQEND
8
0
0
POLYLINE
8
0
62
5
66
1
10
0
20
0
30
0
70
8
0
VERTEX
8
0
62
5
10
-0.05682512
20
0.50231649
30
0
70
32
0
VERTEX
8
0
62
5
10
-0.05682512
20
0.58185281
30
0
70
32
0
SEQEND
8
0
0
POLYLINE
8
0
62
5
66
1
10
0
20
0
30
0
70
8
0
VERTEX
8
0
62
5
10
-0.028540849
20
0.58185281
30
0
70
32
0
VERTEX
8
0
62
5
10
-0.028540849
20
0.58285281
30
0
70
32
0
SEQEND
8
0
0
POLYLINE
8
0
62
5
66
1
10
0
20
0
30
0
70
8
0
VERTEX
8
0
62
5
10
0.084596236
20
0.58185281
30
0
70
32
0
VERTEX
8
0
62
5
10
0.084596236
20
0.58285281
30
0
70
32
0
SEQEND
8
0
0
POLYLINE
8
0
62
5
66
1
10
0
20
0
30
0
70
8
0
VERTEX
8
0
62
5
10
-0.00025657785
20
0.58185281
30
0
70
32
0
VERTEX
8
0
62
5
10
-0.00025657785
20
0.58285281
30
0
70
32
0
SEQEND
8
0
0
POLYLINE
8
0
62
5
66
1
10
0
20
0
30
0
70
8
0
VERTEX
8
0
62
5
10
0.028027693
20
0.58185281
30
0
70
32
0
VERTEX
8
0
62
5
10
0.028027693
20
0.58285281
30
0
70
32
0
SEQEND
8
0
0
POLYLINE
8
0
62
5
66
1
10
0
20
0
30
0
70
8
0
VERTEX
8
0
62
5
10
0.056311965
20
0.58185281
30
0
70
32
0
VERTEX
8
0
62
5
10
0.056311965
20
0.58285281
30
0
70
32
0
SEQEND
8
0
0
POLYLINE
8
0
62
5
66
1
10
0
20
0
30
0
70
8
0
VERTEX
8
0
62
5
10
0.19773332
20
0.58185281
30
0
70
32
0
VERTEX
8
0
62
5
10
0.19773332
20
0.58285281
30
0
70
32
0
SEQEND
8
0
0
POLYLINE
8
0
62
5
66
1
10
0
20
0
30
0
70
8
0
VERTEX
8
0
62
5
10
0.11288051
20
0.58185281
30
0
70
32
0
VERTEX
8
0
62
5
10
0.11288051
20
0.58285281
30
0
70
32
0
SEQEND
8
0
0
POLYLINE
8
0
62
5
66
1
10
0
20
0
30
0
70
8
0
VERTEX
8
0
62
5
10
0.14116478
20
0.58185281
30
0
70
32
0
VERTEX
8
0
62
5
10
0.14116478
20
0.58285281
30
0
70
32
0
SEQEND
8
0
0
POLYLINE
8
0
62
5
66
1
10
0
20
0
30
0
70
8
0
VERTEX
8
0
62
5
10
0.16944905
20
0.58185281
30
0
70
32
0
VERTEX
8
0
62
5
10
0.16944905
20
0.58285281
30
0
70
32
0
SEQEND
8
0
0
POLYLINE
8
0
62
5
66
1
10
0
20
0
30
0
70
8
0
VERTEX
8
0
62
5
10
-0.14167793
20
0.58185281
30
0
70
32
0
VERTEX
8
0
62
5
10
-0.14167793
20
0.58285281
30
0
70
32
0
SEQEND
8
0
0
POLYLINE
8
0
62
5
66
1
10
0
20
0
30
0
70
8
0
VERTEX
8
0
62
5
10
-0.11339366
20
0.58185281
30
0
70
32
0
VERTEX
8
0
62
5
10
-0.11339366
20
0.58285281
30
0
70
32
0
SEQEND
8
0
0
POLYLINE
8
0
62
5
66
1
10
0
20
0
30
0
70
8
0
VERTEX
8
0
62
5
10
-0.085109392
20
0.58185281
30
0
70
32
0
VERTEX
8
0
62
5
10
-0.085109392
20
0.58285281
30
0
70
32
0
SEQEND
8
0
0
POLYLINE
8
0
62
5
66
1
10
0
20
0
30
0
70
8
0
VERTEX
8
0
62
5
10
-0.05682512
20
0.58185281
30
0
70
32
0
VERTEX
8
0
62
5
10
-0.05682512
20
0.58285281
30
0
70
32
0
SEQEND
8
0
0
POLYLINE
8
0
62
18
66
1
10
0
20
0
30
0
70
8
0
VERTEX
8
0
62
18
10
0
20
0
30
0
70
32
0
VERTEX
8
0
62
18
10
0.14142136
20
0
30
0
70
32
0
VERTEX
8
0
62
18
10
0.14142136
20
0.25536574
30
0
70
32
0
VERTEX
8
0
62
18
10
0
20
0.25536574
30
0
70
32
0
VERTEX
8
0
62
18
10
0
20
0
30
0
70
32
0
SEQEND
8
0
0
POLYLINE
8
0
62
5
66
1
10
0
20
0
30
0
70
8
0
VERTEX
8
0
62
5
10
0
20
0.25536574
30
0
70
32
0
VERTEX
8
0
62
5
10
0.14142136
20
0.25536574
30
0
70
32
0
SEQEND
8
0
0
POLYLINE
8
0
62
18
66
1
10
0
20
0
30
0
70
8
0
VERTEX
8
0
62
18
10
0
20
0.23536574
30
0
70
32
0
VERTEX
8
0
62
18
10
0.14142136
20
0.23536574
30
0
70
32
0
VERTEX
8
0
62
18
10
0.14142136
20
0.54208465
30
0
70
32
0
VERTEX
8
0
62
18
10
0
20
0.54208465
30
0
70
32
0
VERTEX
8
0
62
18
10
0
20
0.23536574
30
0
70
32
0
SEQEND
8
0
0
POLYLINE
8
0
62
5
66
1
10
0
20
0
30
0
70
8
0
VERTEX
8
0
62
5
10
0
20
0.54208465
30
0
70
32
0
VERTEX
8
0
62
5
10
0.14142136
20
0.54208465
30
0
70
32
0
SEQEND
8
0
0
POLYLINE
8
0
62
18
66
1
10
0
20
0
30
0
70
8
0
VERTEX
8
0
62
18
10
0.14142136
20
0
30
0
70
32
0
VERTEX
8
0
62
18
10
0
20
0
30
0
70
32
0
VERTEX
8
0
62
18
10
0
20
0.58285281
30
0
70
32
0
VERTEX
8
0
62
18
10
0.14142136
20
0.58285281
30
0
70
32
0
VERTEX
8
0
62
18
10
0.14142136
20
0
30
0
70
32
0
SEQEND
8
0
0
ENDSEC
0
EOF
