0
SECTION
2
HEADER
9
$ACADVER
1
AC1006
9
$INSUNITS
70
6
0
ENDSEC
0
SECTION
2
ENTITIES
0
POLYLINE
8
0
62
5
66
1
10
0
20
0
30
0
70
8
0
VERTEX
8
0
62
5
10
0
20
0
30
0
70
32
0
VERTEX
8
0
62
5
10
0
20
0.1
30
0
70
32
0
SEQEND
8
0
0
POLYLINE
8
0
62
5
66
1
10
0
20
0
30
0
70
8
0
VERTEX
8
0
62
5
10
0.11313708
20
0
30
0
70
32
0
VERTEX
8
0
62
5
10
0.11313708
20
0.1
30
0
70
32
0
SEQEND
8
0
0
POLYLINE
8
0
62
5
66
1
10
0
20
0
30
0
70
8
0
VERTEX
8
0
62
5
10
0.028284271
20
0
30
0
70
32
0
VERTEX
8
0
62
5
10
0.028284271
20
0.1
30
0
70
32
0
SEQEND
8
0
0
POLYLINE
8
0
62
5
66
1
10
0
20
0
30
0
70
8
0
VERTEX
8
0
62
5
10
0.056568542
20
0
30
0
70
32
0
VERTEX
8
0
62
5
10
0.056568542
20
0.1
30
0
70
32
0
SEQEND
8
0
0
POLYLINE
8
0
62
5
66
1
10
0
20
0
30
0
70
8
0
VERTEX
8
0
62
5
10
0.084852814
20
0
30
0
70
32
0
VERTEX
8
0
62
5
10
0.084852814
20
0.1
30
0
70
32
0
SEQEND
8
0
0
POLYLINE
8
0
62
5
66
1
10
0
20
0
30
0
70
8
0
VERTEX
8
0
62
5
10
0.22627417
20
0
30
0
70
32
0
VERTEX
8
0
62
5
10
0.22627417
20
0.1
30
0
70
32
0
SEQEND
8
0
0
POLYLINE
8
0
62
5
66
1
10
0
20
0
30
0
70
8
0
VERTEX
8
0
62
5
10
0.14142136
20
0
30
0
70
32
0
VERTEX
8
0
62
5
10
0.14142136
20
0.1
30
0
70
32
0
SEQEND
8
0
0
POLYLINE
8
0
62
5
66
1
10
0
20
0
30
0
70
8
0
VERTEX
8
0
62
5
10
0.16970563
20
0
30
0
70
32
0
VERTEX
8
0
62
5
10
0.16970563
20
0.1
30
0
70
32
0
SEQEND
8
0
0
POLYLINE
8
0
62
5
66
1
10
0
20
0
30
0
70
8
0
VERTEX
8
0
62
5
10
0.1979899
20
0
30
0
70
32
0
VERTEX
8
0
62
5
10
0.1979899
20
0.1
30
0
70
32
0
SEQEND
8
0
0
POLYLINE
8
0
62
5
66
1
10
0
20
0
30
0
70
8
0
VERTEX
8
0
62
5
10
-0.11313708
20
0
30
0
70
32
0
VERTEX
8
0
62
5
10
-0.11313708
20
0.1
30
0
70
32
0
SEQEND
8
0
0
POLYLINE
8
0
62
5
66
1
10
0
20
0
30
0
70
8
0
VERTEX
8
0
62
5
10
-0.084852814
20
0
30
0
70
32
0
VERTEX
8
0
62
5
10
-0.084852814
20
0.1
30
0
70
32
0
SEQEND
8
0
0
POLYLINE
8
0
62
5
66
1
10
0
20
0
30
0
70
8
0
VERTEX
8
0
62
5
10
-0.056568542
20
0
30
0
70
32
0
VERTEX
8
0
62
5
10
-0.056568542
20
0.1
30
0
70
32
0
SEQEND
8
0
0
POLYLINE
8
0
62
5
66
1
10
0
20
0
30
0
70
8
0
VERTEX
8
0
62
5
10
-0.028284271
20
0
30
0
70
32
0
VERTEX
8
0
62
5
10
-0.028284271
20
0.1
30
0
70
32
0
SEQEND
8
0
0
POLYLINE
8
0
62
5
66
1
10
0
20
0
30
0
70
8
0
VERTEX
8
0
62
5
10
0
20
0.1
30
0
70
32
0
VERTEX
8
0
62
5
10
0
20
0.14
30
0
70
32
0
SEQEND
8
0
0
POLYLINE
8
0
62
5
66
1
10
0
20
0
30
0
70
8
0
VERTEX
8
0
62
5
10
0.11313708
20
0.14
30
0
70
32
0
VERTEX
8
0
62
5
10
0.11313708
20
0.1
30
0
70
32
0
SEQEND
8
0
0
POLYLINE
8
0
62
5
66
1
10
0
20
0
30
0
70
8
0
VERTEX
8
0
62
5
10
0
20
0.1
30
0
70
32
0
VERTEX
8
0
62
5
10
0.11313708
20
0.1
30
0
70
32
0
SEQEND
8
0
0
POLYLINE
8
0
62
5
66
1
10
0
20
0
30
0
70
8
0
VERTEX
8
0
62
5
10
0
20
0.14
30
0
70
32
0
VERTEX
8
0
62
5
10
0.11313708
20
0.14
30
0
70
32
0
SEQEND
8
0
0
POLYLINE
8
0
62
5
66
1
10
0
20
0
30
0
70
8
0
VERTEX
8
0
62
5
10
0.028284271
20
0.1
30
0
70
32
0
VERTEX
8
0
62
5
10
0.028284271
20
0.1
30
0
70
32
0
SEQEND
8
0
0
POLYLINE
8
0
62
5
66
1
10
0
20
0
30
0
70
8
0
VERTEX
8
0
62
5
10
0.056568542
20
0.1
30
0
70
32
0
VERTEX
8
0
62
5
10
0.056568542
20
0.1
30
0
70
32
0
SEQEND
8
0
0
POLYLINE
8
0
62
5
66
1
10
0
20
0
30
0
70
8
0
VERTEX
8
0
62
5
10
0.084852814
20
0.1
30
0
70
32
0
VERTEX
8
0
62
5
10
0.084852814
20
0.1
30
0
70
32
0
SEQEND
8
0
0
POLYLINE
8
0
62
5
66
1
10
0
20
0
30
0
70
8
0
VERTEX
8
0
62
5
10
0.028284271
20
0.14
30
0
70
32
0
VERTEX
8
0
62
5
10
0.028284271
20
0.14
30
0
70
32
0
SEQEND
8
0
0
POLYLINE
8
0
62
5
66
1
10
0
20
0
30
0
70
8
0
VERTEX
8
0
62
5
10
0.056568542
20
0.14
30
0
70
32
0
VERTEX
8
0
62
5
10
0.056568542
20
0.14
30
0
70
32
0
SEQEND
8
0
0
POLYLINE
8
0
62
5
66
1
10
0
20
0
30
0
70
8
0
VERTEX
8
0
62
5
10
0.084852814
20
0.14
30
0
70
32
0
VERTEX
8
0
62
5
10
0.084852814
20
0.14
30
0
70
32
0
SEQEND
8
0
0
POLYLINE
8
0
62
30
66
1
10
0
20
0
30
0
70
8
0
VERTEX
8
0
62
30
10
0
20
0.14
30
0
70
32
0
VERTEX
8
0
62
30
10
0.028284271
20
0.1
30
0
70
32
0
SEQEND
8
0
0
POLYLINE
8
0
62
30
66
1
10
0
20
0
30
0
70
8
0
VERTEX
8
0
62
30
10
0.028284271
20
0.14
30
0
70
32
0
VERTEX
8
0
62
30
10
0
20
0.1
30
0
70
32
0
SEQEND
8
0
0
POLYLINE
8
0
62
30
66
1
10
0
20
0
30
0
70
8
0
VERTEX
8
0
62
30
10
0.056568542
20
0.14
30
0
70
32
0
VERTEX
8
0
62
30
10
0.084852814
20
0.1
30
0
70
32
0
SEQEND
8
0
0
POLYLINE
8
0
62
30
66
1
10
0
20
0
30
0
70
8
0
VERTEX
8
0
62
30
10
0.084852814
20
0.14
30
0
70
32
0
VERTEX
8
0
62
30
10
0.056568542
20
0.1
30
0
70
32
0
SEQEND
8
0
0
POLYLINE
8
0
62
30
66
1
10
0
20
0
30
0
70
8
0
VERTEX
8
0
62
30
10
0.028284271
20
0.12
30
0
70
32
0
VERTEX
8
0
62
30
10
0.056568542
20
0.12
30
0
70
32
0
SEQEND
8
0
0
POLYLINE
8
0
62
30
66
1
10
0
20
0
30
0
70
8
0
VERTEX
8
0
62
30
10
0.084852814
20
0.12
30
0
70
32
0
VERTEX
8
0
62
30
10
0.11313708
20
0.12
30
0
70
32
0
SEQEND
8
0
0
POLYLINE
8
0
62
5
66
1
10
0
20
0
30
0
70
8
0
VERTEX
8
0
62
5
10
0
20
0.12
30
0
70
32
0
VERTEX
8
0
62
5
10
0.014142136
20
0.12
30
0
70
32
0
SEQEND
8
0
0
POLYLINE
8
0
62
5
66
1
10
0
20
0
30
0
70
8
0
VERTEX
8
0
62
5
10
0.056568542
20
0.12
30
0
70
32
0
VERTEX
8
0
62
5
10
0.070710678
20
0.12
30
0
70
32
0
SEQEND
8
0
0
POLYLINE
8
0
62
5
66
1
10
0
20
0
30
0
70
8
0
VERTEX
8
0
62
5
10
0.014142136
20
0.12
30
0
70
32
0
VERTEX
8
0
62
5
10
0.028284271
20
0.12
30
0
70
32
0
SEQEND
8
0
0
POLYLINE
8
0
62
5
66
1
10
0
20
0
30
0
70
8
0
VERTEX
8
0
62
5
10
0.070710678
20
0.12
30
0
70
32
0
VERTEX
8
0
62
5
10
0.084852814
20
0.12
30
0
70
32
0
SEQEND
8
0
0
POLYLINE
8
0
62
5
66
1
10
0
20
0
30
0
70
8
0
VERTEX
8
0
62
5
10
0.028284271
20
0.1
30
0
70
32
0
VERTEX
8
0
62
5
10
0.028284271
20
0.14
30
0
70
32
0
SEQEND
8
0
0
POLYLINE
8
0
62
5
66
1
10
0
20
0
30
0
70
8
0
VERTEX
8
0
62
5
10
0.056568542
20
0.1
30
0
70
32
0
VERTEX
8
0
62
5
10
0.056568542
20
0.14
30
0
70
32
0
SEQEND
8
0
0
POLYLINE
8
0
62
5
66
1
10
0
20
0
30
0
70
8
0
VERTEX
8
0
62
5
10
0.084852814
20
0.1
30
0
70
32
0
VERTEX
8
0
62
5
10
0.084852814
20
0.14
30
0
70
32
0
SEQEND
8
0
0
POLYLINE
8
0
62
5
66
1
10
0
20
0
30
0
70
8
0
VERTEX
8
0
62
5
10
0
20
0.1
30
0
70
32
0
VERTEX
8
0
62
5
10
0
20
0.14
30
0
70
32
0
SEQEND
8
0
0
POLYLINE
8
0
62
5
66
1
10
0
20
0
30
0
70
8
0
VERTEX
8
0
62
5
10
0.22627417
20
0.14
30
0
70
32
0
VERTEX
8
0
62
5
10
0.22627417
20
0.1
30
0
70
32
0
SEQEND
8
0
0
POLYLINE
8
0
62
5
66
1
10
0
20
0
30
0
70
8
0
VERTEX
8
0
62
5
10
0.11313708
20
0.1
30
0
70
32
0
VERTEX
8
0
62
5
10
0.22627417
20
0.1
30
0
70
32
0
SEQEND
8
0
0
POLYLINE
8
0
62
5
66
1
10
0
20
0
30
0
70
8
0
VERTEX
8
0
62
5
10
0.11313708
20
0.14
30
0
70
32
0
VERTEX
8
0
62
5
10
0.22627417
20
0.14
30
0
70
32
0
SEQEND
8
0
0
POLYLINE
8
0
62
5
66
1
10
0
20
0
30
0
70
8
0
VERTEX
8
0
62
5
10
0.14142136
20
0.1
30
0
70
32
0
VERTEX
8
0
62
5
10
0.14142136
20
0.1
30
0
70
32
0
SEQEND
8
0
0
POLYLINE
8
0
62
5
66
1
10
0
20
0
30
0
70
8
0
VERTEX
8
0
62
5
10
0.16970563
20
0.1
30
0
70
32
0
VERTEX
8
0
62
5
10
0.16970563
20
0.1
30
0
70
32
0
SEQEND
8
0
0
POLYLINE
8
0
62
5
66
1
10
0
20
0
30
0
70
8
0
VERTEX
8
0
62
5
10
0.1979899
20
0.1
30
0
70
32
0
VERTEX
8
0
62
5
10
0.1979899
20
0.1
30
0
70
32
0
SEQEND
8
0
0
POLYLINE
8
0
62
5
66
1
10
0
20
0
30
0
70
8
0
VERTEX
8
0
62
5
10
0.14142136
20
0.14
30
0
70
32
0
VERTEX
8
0
62
5
10
0.14142136
20
0.14
30
0
70
32
0
SEQEND
8
0
0
POLYLINE
8
0
62
5
66
1
10
0
20
0
30
0
70
8
0
VERTEX
8
0
62
5
10
0.16970563
20
0.14
30
0
70
32
0
VERTEX
8
0
62
5
10
0.16970563
20
0.14
30
0
70
32
0
SEQEND
8
0
0
POLYLINE
8
0
62
5
66
1
10
0
20
0
30
0
70
8
0
VERTEX
8
0
62
5
10
0.1979899
20
0.14
30
0
70
32
0
VERTEX
8
0
62
5
10
0.1979899
20
0.14
30
0
70
32
0
SEQEND
8
0
0
POLYLINE
8
0
62
30
66
1
10
0
20
0
30
0
70
8
0
VERTEX
8
0
62
30
10
0.11313708
20
0.14
30
0
70
32
0
VERTEX
8
0
62
30
10
0.14142136
20
0.1
30
0
70
32
0
SEQEND
8
0
0
POLYLINE
8
0
62
30
66
1
10
0
20
0
30
0
70
8
0
VERTEX
8
0
62
30
10
0.14142136
20
0.14
30
0
70
32
0
VERTEX
8
0
62
30
10
0.11313708
20
0.1
30
0
70
32
0
SEQEND
8
0
0
POLYLINE
8
0
62
30
66
1
10
0
20
0
30
0
70
8
0
VERTEX
8
0
62
30
10
0.16970563
20
0.14
30
0
70
32
0
VERTEX
8
0
62
30
10
0.1979899
20
0.1
30
0
70
32
0
SEQEND
8
0
0
POLYLINE
8
0
62
30
66
1
10
0
20
0
30
0
70
8
0
VERTEX
8
0
62
30
10
0.1979899
20
0.14
30
0
70
32
0
VERTEX
8
0
62
30
10
0.16970563
20
0.1
30
0
70
32
0
SEQEND
8
0
0
POLYLINE
8
0
62
30
66
1
10
0
20
0
30
0
70
8
0
VERTEX
8
0
62
30
10
0.14142136
20
0.12
30
0
70
32
0
VERTEX
8
0
62
30
10
0.16970563
20
0.12
30
0
70
32
0
SEQEND
8
0
0
POLYLINE
8
0
62
30
66
1
10
0
20
0
30
0
70
8
0
VERTEX
8
0
62
30
10
0.1979899
20
0.12
30
0
70
32
0
VERTEX
8
0
62
30
10
0.22627417
20
0.12
30
0
70
32
0
SEQEND
8
0
0
POLYLINE
8
0
62
5
66
1
10
0
20
0
30
0
70
8
0
VERTEX
8
0
62
5
10
0.11313708
20
0.12
30
0
70
32
0
VERTEX
8
0
62
5
10
0.12727922
20
0.12
30
0
70
32
0
SEQEND
8
0
0
POLYLINE
8
0
62
5
66
1
10
0
20
0
30
0
70
8
0
VERTEX
8
0
62
5
10
0.16970563
20
0.12
30
0
70
32
0
VERTEX
8
0
62
5
10
0.18384776
20
0.12
30
0
70
32
0
SEQEND
8
0
0
POLYLINE
8
0
62
5
66
1
10
0
20
0
30
0
70
8
0
VERTEX
8
0
62
5
10
0.12727922
20
0.12
30
0
70
32
0
VERTEX
8
0
62
5
10
0.14142136
20
0.12
30
0
70
32
0
SEQEND
8
0
0
POLYLINE
8
0
62
5
66
1
10
0
20
0
30
0
70
8
0
VERTEX
8
0
62
5
10
0.18384776
20
0.12
30
0
70
32
0
VERTEX
8
0
62
5
10
0.1979899
20
0.12
30
0
70
32
0
SEQEND
8
0
0
POLYLINE
8
0
62
5
66
1
10
0
20
0
30
0
70
8
0
VERTEX
8
0
62
5
10
0.14142136
20
0.1
30
0
70
32
0
VERTEX
8
0
62
5
10
0.14142136
20
0.14
30
0
70
32
0
SEQEND
8
0
0
POLYLINE
8
0
62
5
66
1
10
0
20
0
30
0
70
8
0
VERTEX
8
0
62
5
10
0.16970563
20
0.1
30
0
70
32
0
VERTEX
8
0
62
5
10
0.16970563
20
0.14
30
0
70
32
0
SEQEND
8
0
0
POLYLINE
8
0
62
5
66
1
10
0
20
0
30
0
70
8
0
VERTEX
8
0
62
5
10
0.1979899
20
0.1
30
0
70
32
0
VERTEX
8
0
62
5
10
0.1979899
20
0.14
30
0
70
32
0
SEQEND
8
0
0
POLYLINE
8
0
62
5
66
1
10
0
20
0
30
0
70
8
0
VERTEX
8
0
62
5
10
0.11313708
20
0.1
30
0
70
32
0
VERTEX
8
0
62
5
10
0.11313708
20
0.14
30
0
70
32
0
SEQEND
8
0
0
POLYLINE
8
0
62
5
66
1
10
0
20
0
30
0
70
8
0
VERTEX
8
0
62
5
10
-0.11313708
20
0.1
30
0
70
32
0
VERTEX
8
0
62
5
10
-0.11313708
20
0.14
30
0
70
32
0
SEQEND
8
0
0
POLYLINE
8
0
62
5
66
1
10
0
20
0
30
0
70
8
0
VERTEX
8
0
62
5
10
-0.11313708
20
0.1
30
0
70
32
0
VERTEX
8
0
62
5
10
0
20
0.1
30
0
70
32
0
SEQEND
8
0
0
POLYLINE
8
0
62
5
66
1
10
0
20
0
30
0
70
8
0
VERTEX
8
0
62
5
10
-0.11313708
20
0.14
30
0
70
32
0
VERTEX
8
0
62
5
10
0
20
0.14
30
0
70
32
0
SEQEND
8
0
0
POLYLINE
8
0
62
5
66
1
10
0
20
0
30
0
70
8
0
VERTEX
8
0
62
5
10
-0.084852814
20
0.1
30
0
70
32
0
VERTEX
8
0
62
5
10
-0.084852814
20
0.1
30
0
70
32
0
SEQEND
8
0
0
POLYLINE
8
0
62
5
66
1
10
0
20
0
30
0
70
8
0
VERTEX
8
0
62
5
10
-0.056568542
20
0.1
30
0
70
32
0
VERTEX
8
0
62
5
10
-0.056568542
20
0.1
30
0
70
32
0
SEQEND
8
0
0
POLYLINE
8
0
62
5
66
1
10
0
20
0
30
0
70
8
0
VERTEX
8
0
62
5
10
-0.028284271
20
0.1
30
0
70
32
0
VERTEX
8
0
62
5
10
-0.028284271
20
0.1
30
0
70
32
0
SEQEND
8
0
0
POLYLINE
8
0
62
5
66
1
10
0
20
0
30
0
70
8
0
VERTEX
8
0
62
5
10
-0.084852814
20
0.14
30
0
70
32
0
VERTEX
8
0
62
5
10
-0.084852814
20
0.14
30
0
70
32
0
SEQEND
8
0
0
POLYLINE
8
0
62
5
66
1
10
0
20
0
30
0
70
8
0
VERTEX
8
0
62
5
10
-0.056568542
20
0.14
30
0
70
32
0
VERTEX
8
0
62
5
10
-0.056568542
20
0.14
30
0
70
32
0
SEQEND
8
0
0
POLYLINE
8
0
62
5
66
1
10
0
20
0
30
0
70
8
0
VERTEX
8
0
62
5
10
-0.028284271
20
0.14
30
0
70
32
0
VERTEX
8
0
62
5
10
-0.028284271
20
0.14
30
0
70
32
0
SEQEND
8
0
0
POLYLINE
8
0
62
30
66
1
10
0
20
0
30
0
70
8
0
VERTEX
8
0
62
30
10
-0.11313708
20
0.14
30
0
70
32
0
VERTEX
8
0
62
30
10
-0.084852814
20
0.1
30
0
70
32
0
SEQEND
8
0
0
POLYLINE
8
0
62
30
66
1
10
0
20
0
30
0
70
8
0
VERTEX
8
0
62
30
10
-0.084852814
20
0.14
30
0
70
32
0
VERTEX
8
0
62
30
10
-0.11313708
20
0.1
30
0
70
32
0
SEQEND
8
0
0
POLYLINE
8
0
62
30
66
1
10
0
20
0
30
0
70
8
0
VERTEX
8
0
62
30
10
-0.056568542
20
0.14
30
0
70
32
0
VERTEX
8
0
62
30
10
-0.028284271
20
0.1
30
0
70
32
0
SEQEND
8
0
0
POLYLINE
8
0
62
30
66
1
10
0
20
0
30
0
70
8
0
VERTEX
8
0
62
30
10
-0.028284271
20
0.14
30
0
70
32
0
VERTEX
8
0
62
30
10
-0.056568542
20
0.1
30
0
70
32
0
SEQEND
8
0
0
POLYLINE
8
0
62
30
66
1
10
0
20
0
30
0
70
8
0
VERTEX
8
0
62
30
10
-0.084852814
20
0.12
30
0
70
32
0
VERTEX
8
0
62
30
10
-0.056568542
20
0.12
30
0
70
32
0
SEQEND
8
0
0
POLYLINE
8
0
62
30
66
1
10
0
20
0
30
0
70
8
0
VERTEX
8
0
62
30
10
-0.028284271
20
0.12
30
0
70
32
0
VERTEX
8
0
62
30
10
0
20
0.12
30
0
70
32
0
SEQEND
8
0
0
POLYLINE
8
0
62
5
66
1
10
0
20
0
30
0
70
8
0
VERTEX
8
0
62
5
10
-0.11313708
20
0.12
30
0
70
32
0
VERTEX
8
0
62
5
10
-0.098994949
20
0.12
30
0
70
32
0
SEQEND
8
0
0
POLYLINE
8
0
62
5
66
1
10
0
20
0
30
0
70
8
0
VERTEX
8
0
62
5
10
-0.056568542
20
0.12
30
0
70
32
0
VERTEX
8
0
62
5
10
-0.042426407
20
0.12
30
0
70
32
0
SEQEND
8
0
0
POLYLINE
8
0
62
5
66
1
10
0
20
0
30
0
70
8
0
VERTEX
8
0
62
5
10
-0.098994949
20
0.12
30
0
70
32
0
VERTEX
8
0
62
5
10
-0.084852814
20
0.12
30
0
70
32
0
SEQEND
8
0
0
POLYLINE
8
0
62
5
66
1
10
0
20
0
30
0
70
8
0
VERTEX
8
0
62
5
10
-0.042426407
20
0.12
30
0
70
32
0
VERTEX
8
0
62
5
10
-0.028284271
20
0.12
30
0
70
32
0
SEQEND
8
0
0
POLYLINE
8
0
62
5
66
1
10
0
20
0
30
0
70
8
0
VERTEX
8
0
62
5
10
-0.084852814
20
0.1
30
0
70
32
0
VERTEX
8
0
62
5
10
-0.084852814
20
0.14
30
0
70
32
0
SEQEND
8
0
0
POLYLINE
8
0
62
5
66
1
10
0
20
0
30
0
70
8
0
VERTEX
8
0
62
5
10
-0.056568542
20
0.1
30
0
70
32
0
VERTEX
8
0
62
5
10
-0.056568542
20
0.14
30
0
70
32
0
SEQEND
8
0
0
POLYLINE
8
0
62
5
66
1
10
0
20
0
30
0
70
8
0
VERTEX
8
0
62
5
10
-0.028284271
20
0.1
30
0
70
32
0
VERTEX
8
0
62
5
10
-0.028284271
20
0.14
30
0
70
32
0
SEQEND
8
0
0
POLYLINE
8
0
62
5
66
1
10
0
20
0
30
0
70
8
0
VERTEX
8
0
62
5
10
-0.11313708
20
0.1
30
0
70
32
0
VERTEX
8
0
62
5
10
-0.11313708
20
0.14
30
0
70
32
0
SEQEND
8
0
0
POLYLINE
8
0
62
5
66
1
10
0
20
0
30
0
70
8
0
VERTEX
8
0
62
5
10
0
20
0.14
30
0
70
32
0
VERTEX
8
0
62
5
10
0
20
0.21773345
30
0
70
32
0
SEQEND
8
0
0
POLYLINE
8
0
62
5
66
1
10
0
20
0
30
0
70
8
0
VERTEX
8
0
62
5
10
0.11313708
20
0.21773345
30
0
70
32
0
VERTEX
8
0
62
5
10
0.11313708
20
0.14
30
0
70
32
0
SEQEND
8
0
0
POLYLINE
8
0
62
5
66
1
10
0
20
0
30
0
70
8
0
VERTEX
8
0
62
5
10
0
20
0.14320034
30
0
70
32
0
VERTEX
8
0
62
5
10
0.028284271
20
0.14343057
30
0
70
32
0
VERTEX
8
0
62
5
10
0.056568542
20
0.15943336
30
0
70
32
0
VERTEX
8
0
62
5
10
0.084852814
20
0.15920313
30
0
70
32
0
VERTEX
8
0
62
5
10
0.11313708
20
0.14320034
30
0
70
32
0
SEQEND
8
0
0
POLYLINE
8
0
62
5
66
1
10
0
20
0
30
0
70
8
0
VERTEX
8
0
62
5
10
0
20
0.18206706
30
0
70
32
0
VERTEX
8
0
62
5
10
0.028284271
20
0.1822973
30
0
70
32
0
VERTEX
8
0
62
5
10
0.056568542
20
0.19830008
30
0
70
32
0
VERTEX
8
0
62
5
10
0.084852814
20
0.19806985
30
0
70
32
0
VERTEX
8
0
62
5
10
0.11313708
20
0.18206706
30
0
70
32
0
SEQEND
8
0
0
POLYLINE
8
0
62
5
66
1
10
0
20
0
30
0
70
8
0
VERTEX
8
0
62
5
10
0
20
0.17566638
30
0
70
32
0
VERTEX
8
0
62
5
10
0.028284271
20
0.17543615
30
0
70
32
0
VERTEX
8
0
62
5
10
0.056568542
20
0.15943336
30
0
70
32
0
VERTEX
8
0
62
5
10
0.084852814
20
0.15966359
30
0
70
32
0
VERTEX
8
0
62
5
10
0.11313708
20
0.17566638
30
0
70
32
0
SEQEND
8
0
0
POLYLINE
8
0
62
5
66
1
10
0
20
0
30
0
70
8
0
VERTEX
8
0
62
5
10
0
20
0.2145331
30
0
70
32
0
VERTEX
8
0
62
5
10
0.028284271
20
0.21430287
30
0
70
32
0
VERTEX
8
0
62
5
10
0.056568542
20
0.19830008
30
0
70
32
0
VERTEX
8
0
62
5
10
0.084852814
20
0.19853031
30
0
70
32
0
VERTEX
8
0
62
5
10
0.11313708
20
0.2145331
30
0
70
32
0
SEQEND
8
0
0
POLYLINE
8
0
62
30
66
1
10
0
20
0
30
0
70
8
0
VERTEX
8
0
62
30
10
0
20
0.15943336
30
0
70
32
0
VERTEX
8
0
62
30
10
0.11313708
20
0.15943336
30
0
70
32
0
SEQEND
8
0
0
POLYLINE
8
0
62
30
66
1
10
0
20
0
30
0
70
8
0
VERTEX
8
0
62
30
10
0
20
0.19830008
30
0
70
32
0
VERTEX
8
0
62
30
10
0.11313708
20
0.19830008
30
0
70
32
0
SEQEND
8
0
0
POLYLINE
8
0
62
30
66
1
10
0
20
0
30
0
70
8
0
VERTEX
8
0
62
30
10
0.028284271
20
0.14343057
30
0
70
32
0
VERTEX
8
0
62
30
10
0.028284271
20
0.15943336
30
0
70
32
0
SEQEND
8
0
0
POLYLINE
8
0
62
30
66
1
10
0
20
0
30
0
70
8
0
VERTEX
8
0
62
30
10
0.056568542
20
0.15943336
30
0
70
32
0
VERTEX
8
0
62
30
10
0.056568542
20
0.15943336
30
0
70
32
0
SEQEND
8
0
0
POLYLINE
8
0
62
30
66
1
10
0
20
0
30
0
70
8
0
VERTEX
8
0
62
30
10
0.084852814
20
0.15920313
30
0
70
32
0
VERTEX
8
0
62
30
10
0.084852814
20
0.15943336
30
0
70
32
0
SEQEND
8
0
0
POLYLINE
8
0
62
30
66
1
10
0
20
0
30
0
70
8
0
VERTEX
8
0
62
30
10
0.028284271
20
0.1822973
30
0
70
32
0
VERTEX
8
0
62
30
10
0.028284271
20
0.19830008
30
0
70
32
0
SEQEND
8
0
0
POLYLINE
8
0
62
30
66
1
10
0
20
0
30
0
70
8
0
VERTEX
8
0
62
30
10
0.028284271
20
0.19830008
30
0
70
32
0
VERTEX
8
0
62
30
10
0.056568542
20
0.19830008
30
0
70
32
0
SEQEND
8
0
0
POLYLINE
8
0
62
30
66
1
10
0
20
0
30
0
70
8
0
VERTEX
8
0
62
30
10
0.056568542
20
0.19830008
30
0
70
32
0
VERTEX
8
0
62
30
10
0.056568542
20
0.19830008
30
0
70
32
0
SEQEND
8
0
0
POLYLINE
8
0
62
30
66
1
10
0
20
0
30
0
70
8
0
VERTEX
8
0
62
30
10
0.056568542
20
0.19830008
30
0
70
32
0
VERTEX
8
0
62
30
10
0.084852814
20
0.19806985
30
0
70
32
0
SEQEND
8
0
0
POLYLINE
8
0
62
30
66
1
10
0
20
0
30
0
70
8
0
VERTEX
8
0
62
30
10
0.084852814
20
0.19806985
30
0
70
32
0
VERTEX
8
0
62
30
10
0.084852814
20
0.19830008
30
0
70
32
0
SEQEND
8
0
0
POLYLINE
8
0
62
5
66
1
10
0
20
0
30
0
70
8
0
VERTEX
8
0
62
5
10
0.028284271
20
0.14
30
0
70
32
0
VERTEX
8
0
62
5
10
0.028284271
20
0.14343057
30
0
70
32
0
SEQEND
8
0
0
POLYLINE
8
0
62
5
66
1
10
0
20
0
30
0
70
8
0
VERTEX
8
0
62
5
10
0.056568542
20
0.14
30
0
70
32
0
VERTEX
8
0
62
5
10
0.056568542
20
0.15943336
30
0
70
32
0
SEQEND
8
0
0
POLYLINE
8
0
62
5
66
1
10
0
20
0
30
0
70
8
0
VERTEX
8
0
62
5
10
0.084852814
20
0.14
30
0
70
32
0
VERTEX
8
0
62
5
10
0.084852814
20
0.15920313
30
0
70
32
0
SEQEND
8
0
0
POLYLINE
8
0
62
5
66
1
10
0
20
0
30
0
70
8
0
VERTEX
8
0
62
5
10
0.028284271
20
0.17886672
30
0
70
32
0
VERTEX
8
0
62
5
10
0.028284271
20
0.1822973
30
0
70
32
0
SEQEND
8
0
0
POLYLINE
8
0
62
5
66
1
10
0
20
0
30
0
70
8
0
VERTEX
8
0
62
5
10
0.056568542
20
0.17886672
30
0
70
32
0
VERTEX
8
0
62
5
10
0.056568542
20
0.19830008
30
0
70
32
0
SEQEND
8
0
0
POLYLINE
8
0
62
5
66
1
10
0
20
0
30
0
70
8
0
VERTEX
8
0
62
5
10
0.084852814
20
0.17886672
30
0
70
32
0
VERTEX
8
0
62
5
10
0.084852814
20
0.19806985
30
0
70
32
0
SEQEND
8
0
0
POLYLINE
8
0
62
5
66
1
10
0
20
0
30
0
70
8
0
VERTEX
8
0
62
5
10
0.028284271
20
0.15943336
30
0
70
32
0
VERTEX
8
0
62
5
10
0.028284271
20
0.17886672
30
0
70
32
0
SEQEND
8
0
0
POLYLINE
8
0
62
5
66
1
10
0
20
0
30
0
70
8
0
VERTEX
8
0
62
5
10
0.056568542
20
0.15943336
30
0
70
32
0
VERTEX
8
0
62
5
10
0.056568542
20
0.17886672
30
0
70
32
0
SEQEND
8
0
0
POLYLINE
8
0
62
5
66
1
10
0
20
0
30
0
70
8
0
VERTEX
8
0
62
5
10
0.084852814
20
0.15943336
30
0
70
32
0
VERTEX
8
0
62
5
10
0.084852814
20
0.17886672
30
0
70
32
0
SEQEND
8
0
0
POLYLINE
8
0
62
5
66
1
10
0
20
0
30
0
70
8
0
VERTEX
8
0
62
5
10
0.028284271
20
0.19830008
30
0
70
32
0
VERTEX
8
0
62
5
10
0.028284271
20
0.21773345
30
0
70
32
0
SEQEND
8
0
0
POLYLINE
8
0
62
5
66
1
10
0
20
0
30
0
70
8
0
VERTEX
8
0
62
5
10
0.056568542
20
0.19830008
30
0
70
32
0
VERTEX
8
0
62
5
10
0.056568542
20
0.21773345
30
0
70
32
0
SEQEND
8
0
0
POLYLINE
8
0
62
5
66
1
10
0
20
0
30
0
70
8
0
VERTEX
8
0
62
5
10
0.084852814
20
0.19830008
30
0
70
32
0
VERTEX
8
0
62
5
10
0.084852814
20
0.21773345
30
0
70
32
0
SEQEND
8
0
0
POLYLINE
8
0
62
5
66
1
10
0
20
0
30
0
70
8
0
VERTEX
8
0
62
5
10
0.22627417
20
0.21773345
30
0
70
32
0
VERTEX
8
0
62
5
10
0.22627417
20
0.14
30
0
70
32
0
SEQEND
8
0
0
POLYLINE
8
0
62
5
66
1
10
0
20
0
30
0
70
8
0
VERTEX
8
0
62
5
10
0.11313708
20
0.14320034
30
0
70
32
0
VERTEX
8
0
62
5
10
0.14142136
20
0.14343057
30
0
70
32
0
VERTEX
8
0
62
5
10
0.16970563
20
0.15943336
30
0
70
32
0
VERTEX
8
0
62
5
10
0.1979899
20
0.15920313
30
0
70
32
0
VERTEX
8
0
62
5
10
0.22627417
20
0.14320034
30
0
70
32
0
SEQEND
8
0
0
POLYLINE
8
0
62
5
66
1
10
0
20
0
30
0
70
8
0
VERTEX
8
0
62
5
10
0.11313708
20
0.18206706
30
0
70
32
0
VERTEX
8
0
62
5
10
0.14142136
20
0.1822973
30
0
70
32
0
VERTEX
8
0
62
5
10
0.16970563
20
0.19830008
30
0
70
32
0
VERTEX
8
0
62
5
10
0.1979899
20
0.19806985
30
0
70
32
0
VERTEX
8
0
62
5
10
0.22627417
20
0.18206706
30
0
70
32
0
SEQEND
8
0
0
POLYLINE
8
0
62
5
66
1
10
0
20
0
30
0
70
8
0
VERTEX
8
0
62
5
10
0.11313708
20
0.17566638
30
0
70
32
0
VERTEX
8
0
62
5
10
0.14142136
20
0.17543615
30
0
70
32
0
VERTEX
8
0
62
5
10
0.16970563
20
0.15943336
30
0
70
32
0
VERTEX
8
0
62
5
10
0.1979899
20
0.15966359
30
0
70
32
0
VERTEX
8
0
62
5
10
0.22627417
20
0.17566638
30
0
70
32
0
SEQEND
8
0
0
POLYLINE
8
0
62
5
66
1
10
0
20
0
30
0
70
8
0
VERTEX
8
0
62
5
10
0.11313708
20
0.2145331
30
0
70
32
0
VERTEX
8
0
62
5
10
0.14142136
20
0.21430287
30
0
70
32
0
VERTEX
8
0
62
5
10
0.16970563
20
0.19830008
30
0
70
32
0
VERTEX
8
0
62
5
10
0.1979899
20
0.19853031
30
0
70
32
0
VERTEX
8
0
62
5
10
0.22627417
20
0.2145331
30
0
70
32
0
SEQEND
8
0
0
POLYLINE
8
0
62
30
66
1
10
0
20
0
30
0
70
8
0
VERTEX
8
0
62
30
10
0.11313708
20
0.15943336
30
0
70
32
0
VERTEX
8
0
62
30
10
0.22627417
20
0.15943336
30
0
70
32
0
SEQEND
8
0
0
POLYLINE
8
0
62
30
66
1
10
0
20
0
30
0
70
8
0
VERTEX
8
0
62
30
10
0.11313708
20
0.19830008
30
0
70
32
0
VERTEX
8
0
62
30
10
0.22627417
20
0.19830008
30
0
70
32
0
SEQEND
8
0
0
POLYLINE
8
0
62
30
66
1
10
0
20
0
30
0
70
8
0
VERTEX
8
0
62
30
10
0.14142136
20
0.14343057
30
0
70
32
0
VERTEX
8
0
62
30
10
0.14142136
20
0.15943336
30
0
70
32
0
SEQEND
8
0
0
POLYLINE
8
0
62
30
66
1
10
0
20
0
30
0
70
8
0
VERTEX
8
0
62
30
10
0.16970563
20
0.15943336
30
0
70
32
0
VERTEX
8
0
62
30
10
0.16970563
20
0.15943336
30
0
70
32
0
SEQEND
8
0
0
POLYLINE
8
0
62
30
66
1
10
0
20
0
30
0
70
8
0
VERTEX
8
0
62
30
10
0.1979899
20
0.15920313
30
0
70
32
0
VERTEX
8
0
62
30
10
0.1979899
20
0.15943336
30
0
70
32
0
SEQEND
8
0
0
POLYLINE
8
0
62
30
66
1
10
0
20
0
30
0
70
8
0
VERTEX
8
0
62
30
10
0.14142136
20
0.1822973
30
0
70
32
0
VERTEX
8
0
62
30
10
0.14142136
20
0.19830008
30
0
70
32
0
SEQEND
8
0
0
POLYLINE
8
0
62
30
66
1
10
0
20
0
30
0
70
8
0
VERTEX
8
0
62
30
10
0.14142136
20
0.19830008
30
0
70
32
0
VERTEX
8
0
62
30
10
0.16970563
20
0.19830008
30
0
70
32
0
SEQEND
8
0
0
POLYLINE
8
0
62
30
66
1
10
0
20
0
30
0
70
8
0
VERTEX
8
0
62
30
10
0.16970563
20
0.19830008
30
0
70
32
0
VERTEX
8
0
62
30
10
0.16970563
20
0.19830008
30
0
70
32
0
SEQEND
8
0
0
POLYLINE
8
0
62
30
66
1
10
0
20
0
30
0
70
8
0
VERTEX
8
0
62
30
10
0.16970563
20
0.19830008
30
0
70
32
0
VERTEX
8
0
62
30
10
0.1979899
20
0.19806985
30
0
70
32
0
SEQEND
8
0
0
POLYLINE
8
0
62
30
66
1
10
0
20
0
30
0
70
8
0
VERTEX
8
0
62
30
10
0.1979899
20
0.19806985
30
0
70
32
0
VERTEX
8
0
62
30
10
0.1979899
20
0.19830008
30
0
70
32
0
SEQEND
8
0
0
POLYLINE
8
0
62
5
66
1
10
0
20
0
30
0
70
8
0
VERTEX
8
0
62
5
10
0.14142136
20
0.14
30
0
70
32
0
VERTEX
8
0
62
5
10
0.14142136
20
0.14343057
30
0
70
32
0
SEQEND
8
0
0
POLYLINE
8
0
62
5
66
1
10
0
20
0
30
0
70
8
0
VERTEX
8
0
62
5
10
0.16970563
20
0.14
30
0
70
32
0
VERTEX
8
0
62
5
10
0.16970563
20
0.15943336
30
0
70
32
0
SEQEND
8
0
0
POLYLINE
8
0
62
5
66
1
10
0
20
0
30
0
70
8
0
VERTEX
8
0
62
5
10
0.1979899
20
0.14
30
0
70
32
0
VERTEX
8
0
62
5
10
0.1979899
20
0.15920313
30
0
70
32
0
SEQEND
8
0
0
POLYLINE
8
0
62
5
66
1
10
0
20
0
30
0
70
8
0
VERTEX
8
0
62
5
10
0.14142136
20
0.17886672
30
0
70
32
0
VERTEX
8
0
62
5
10
0.14142136
20
0.1822973
30
0
70
32
0
SEQEND
8
0
0
POLYLINE
8
0
62
5
66
1
10
0
20
0
30
0
70
8
0
VERTEX
8
0
62
5
10
0.16970563
20
0.17886672
30
0
70
32
0
VERTEX
8
0
62
5
10
0.16970563
20
0.19830008
30
0
70
32
0
SEQEND
8
0
0
POLYLINE
8
0
62
5
66
1
10
0
20
0
30
0
70
8
0
VERTEX
8
0
62
5
10
0.1979899
20
0.17886672
30
0
70
32
0
VERTEX
8
0
62
5
10
0.1979899
20
0.19806985
30
0
70
32
0
SEQEND
8
0
0
POLYLINE
8
0
62
5
66
1
10
0
20
0
30
0
70
8
0
VERTEX
8
0
62
5
10
0.14142136
20
0.15943336
30
0
70
32
0
VERTEX
8
0
62
5
10
0.14142136
20
0.17886672
30
0
70
32
0
SEQEND
8
0
0
POLYLINE
8
0
62
5
66
1
10
0
20
0
30
0
70
8
0
VERTEX
8
0
62
5
10
0.16970563
20
0.15943336
30
0
70
32
0
VERTEX
8
0
62
5
10
0.16970563
20
0.17886672
30
0
70
32
0
SEQEND
8
0
0
POLYLINE
8
0
62
5
66
1
10
0
20
0
30
0
70
8
0
VERTEX
8
0
62
5
10
0.1979899
20
0.15943336
30
0
70
32
0
VERTEX
8
0
62
5
10
0.1979899
20
0.17886672
30
0
70
32
0
SEQEND
8
0
0
POLYLINE
8
0
62
5
66
1
10
0
20
0
30
0
70
8
0
VERTEX
8
0
62
5
10
0.14142136
20
0.19830008
30
0
70
32
0
VERTEX
8
0
62
5
10
0.14142136
20
0.21773345
30
0
70
32
0
SEQEND
8
0
0
POLYLINE
8
0
62
5
66
1
10
0
20
0
30
0
70
8
0
VERTEX
8
0
62
5
10
0.16970563
20
0.19830008
30
0
70
32
0
VERTEX
8
0
62
5
10
0.16970563
20
0.21773345
30
0
70
32
0
SEQEND
8
0
0
POLYLINE
8
0
62
5
66
1
10
0
20
0
30
0
70
8
0
VERTEX
8
0
62
5
10
0.1979899
20
0.19830008
30
0
70
32
0
VERTEX
8
0
62
5
10
0.1979899
20
0.21773345
30
0
70
32
0
SEQEND
8
0
0
POLYLINE
8
0
62
5
66
1
10
0
20
0
30
0
70
8
0
VERTEX
8
0
62
5
10
-0.11313708
20
0.14
30
0
70
32
0
VERTEX
8
0
62
5
10
-0.11313708
20
0.21773345
30
0
70
32
0
SEQEND
8
0
0
POLYLINE
8
0
62
5
66
1
10
0
20
0
30
0
70
8
0
VERTEX
8
0
62
5
10
-0.11313708
20
0.14320034
30
0
70
32
0
VERTEX
8
0
62
5
10
-0.084852814
20
0.14343057
30
0
70
32
0
VERTEX
8
0
62
5
10
-0.056568542
20
0.15943336
30
0
70
32
0
VERTEX
8
0
62
5
10
-0.028284271
20
0.15920313
30
0
70
32
0
VERTEX
8
0
62
5
10
0
20
0.14320034
30
0
70
32
0
SEQEND
8
0
0
POLYLINE
8
0
62
5
66
1
10
0
20
0
30
0
70
8
0
VERTEX
8
0
62
5
10
-0.11313708
20
0.18206706
30
0
70
32
0
VERTEX
8
0
62
5
10
-0.084852814
20
0.1822973
30
0
70
32
0
VERTEX
8
0
62
5
10
-0.056568542
20
0.19830008
30
0
70
32
0
VERTEX
8
0
62
5
10
-0.028284271
20
0.19806985
30
0
70
32
0
VERTEX
8
0
62
5
10
0
20
0.18206706
30
0
70
32
0
SEQEND
8
0
0
POLYLINE
8
0
62
5
66
1
10
0
20
0
30
0
70
8
0
VERTEX
8
0
62
5
10
-0.11313708
20
0.17566638
30
0
70
32
0
VERTEX
8
0
62
5
10
-0.084852814
20
0.17543615
30
0
70
32
0
VERTEX
8
0
62
5
10
-0.056568542
20
0.15943336
30
0
70
32
0
VERTEX
8
0
62
5
10
-0.028284271
20
0.15966359
30
0
70
32
0
VERTEX
8
0
62
5
10
0
20
0.17566638
30
0
70
32
0
SEQEND
8
0
0
POLYLINE
8
0
62
5
66
1
10
0
20
0
30
0
70
8
0
VERTEX
8
0
62
5
10
-0.11313708
20
0.2145331
30
0
70
32
0
VERTEX
8
0
62
5
10
-0.084852814
20
0.21430287
30
0
70
32
0
VERTEX
8
0
62
5
10
-0.056568542
20
0.19830008
30
0
70
32
0
VERTEX
8
0
62
5
10
-0.028284271
20
0.19853031
30
0
70
32
0
VERTEX
8
0
62
5
10
0
20
0.2145331
30
0
70
32
0
SEQEND
8
0
0
POLYLINE
8
0
62
30
66
1
10
0
20
0
30
0
70
8
0
VERTEX
8
0
62
30
10
-0.11313708
20
0.15943336
30
0
70
32
0
VERTEX
8
0
62
30
10
0
20
0.15943336
30
0
70
32
0
SEQEND
8
0
0
POLYLINE
8
0
62
30
66
1
10
0
20
0
30
0
70
8
0
VERTEX
8
0
62
30
10
-0.11313708
20
0.19830008
30
0
70
32
0
VERTEX
8
0
62
30
10
0
20
0.19830008
30
0
70
32
0
SEQEND
8
0
0
POLYLINE
8
0
62
30
66
1
10
0
20
0
30
0
70
8
0
VERTEX
8
0
62
30
10
-0.084852814
20
0.14343057
30
0
70
32
0
VERTEX
8
0
62
30
10
-0.084852814
20
0.15943336
30
0
70
32
0
SEQEND
8
0
0
POLYLINE
8
0
62
30
66
1
10
0
20
0
30
0
70
8
0
VERTEX
8
0
62
30
10
-0.056568542
20
0.15943336
30
0
70
32
0
VERTEX
8
0
62
30
10
-0.056568542
20
0.15943336
30
0
70
32
0
SEQEND
8
0
0
POLYLINE
8
0
62
30
66
1
10
0
20
0
30
0
70
8
0
VERTEX
8
0
62
30
10
-0.028284271
20
0.15920313
30
0
70
32
0
VERTEX
8
0
62
30
10
-0.028284271
20
0.15943336
30
0
70
32
0
SEQEND
8
0
0
POLYLINE
8
0
62
30
66
1
10
0
20
0
30
0
70
8
0
VERTEX
8
0
62
30
10
-0.084852814
20
0.1822973
30
0
70
32
0
VERTEX
8
0
62
30
10
-0.084852814
20
0.19830008
30
0
70
32
0
SEQEND
8
0
0
POLYLINE
8
0
62
30
66
1
10
0
20
0
30
0
70
8
0
VERTEX
8
0
62
30
10
-0.084852814
20
0.19830008
30
0
70
32
0
VERTEX
8
0
62
30
10
-0.056568542
20
0.19830008
30
0
70
32
0
SEQEND
8
0
0
POLYLINE
8
0
62
30
66
1
10
0
20
0
30
0
70
8
0
VERTEX
8
0
62
30
10
-0.056568542
20
0.19830008
30
0
70
32
0
VERTEX
8
0
62
30
10
-0.056568542
20
0.19830008
30
0
70
32
0
SEQEND
8
0
0
POLYLINE
8
0
62
30
66
1
10
0
20
0
30
0
70
8
0
VERTEX
8
0
62
30
10
-0.056568542
20
0.19830008
30
0
70
32
0
VERTEX
8
0
62
30
10
-0.028284271
20
0.19806985
30
0
70
32
0
SEQEND
8
0
0
POLYLINE
8
0
62
30
66
1
10
0
20
0
30
0
70
8
0
VERTEX
8
0
62
30
10
-0.028284271
20
0.19806985
30
0
70
32
0
VERTEX
8
0
62
30
10
-0.028284271
20
0.19830008
30
0
70
32
0
SEQEND
8
0
0
POLYLINE
8
0
62
5
66
1
10
0
20
0
30
0
70
8
0
VERTEX
8
0
62
5
10
-0.084852814
20
0.14
30
0
70
32
0
VERTEX
8
0
62
5
10
-0.084852814
20
0.14343057
30
0
70
32
0
SEQEND
8
0
0
POLYLINE
8
0
62
5
66
1
10
0
20
0
30
0
70
8
0
VERTEX
8
0
62
5
10
-0.056568542
20
0.14
30
0
70
32
0
VERTEX
8
0
62
5
10
-0.056568542
20
0.15943336
30
0
70
32
0
SEQEND
8
0
0
POLYLINE
8
0
62
5
66
1
10
0
20
0
30
0
70
8
0
VERTEX
8
0
62
5
10
-0.028284271
20
0.14
30
0
70
32
0
VERTEX
8
0
62
5
10
-0.028284271
20
0.15920313
30
0
70
32
0
SEQEND
8
0
0
POLYLINE
8
0
62
5
66
1
10
0
20
0
30
0
70
8
0
VERTEX
8
0
62
5
10
-0.084852814
20
0.17886672
30
0
70
32
0
VERTEX
8
0
62
5
10
-0.084852814
20
0.1822973
30
0
70
32
0
SEQEND
8
0
0
POLYLINE
8
0
62
5
66
1
10
0
20
0
30
0
70
8
0
VERTEX
8
0
62
5
10
-0.056568542
20
0.17886672
30
0
70
32
0
VERTEX
8
0
62
5
10
-0.056568542
20
0.19830008
30
0
70
32
0
SEQEND
8
0
0
POLYLINE
8
0
62
5
66
1
10
0
20
0
30
0
70
8
0
VERTEX
8
0
62
5
10
-0.028284271
20
0.17886672
30
0
70
32
0
VERTEX
8
0
62
5
10
-0.028284271
20
0.19806985
30
0
70
32
0
SEQEND
8
0
0
POLYLINE
8
0
62
5
66
1
10
0
20
0
30
0
70
8
0
VERTEX
8
0
62
5
10
-0.084852814
20
0.15943336
30
0
70
32
0
VERTEX
8
0
62
5
10
-0.084852814
20
0.17886672
30
0
70
32
0
SEQEND
8
0
0
POLYLINE
8
0
62
5
66
1
10
0
20
0
30
0
70
8
0
VERTEX
8
0
62
5
10
-0.056568542
20
0.15943336
30
0
70
32
0
VERTEX
8
0
62
5
10
-0.056568542
20
0.17886672
30
0
70
32
0
SEQEND
8
0
0
POLYLINE
8
0
62
5
66
1
10
0
20
0
30
0
70
8
0
VERTEX
8
0
62
5
10
-0.028284271
20
0.15943336
30
0
70
32
0
VERTEX
8
0
62
5
10
-0.028284271
20
0.17886672
30
0
70
32
0
SEQEND
8
0
0
POLYLINE
8
0
62
5
66
1
10
0
20
0
30
0
70
8
0
VERTEX
8
0
62
5
10
-0.084852814
20
0.19830008
30
0
70
32
0
VERTEX
8
0
62
5
10
-0.084852814
20
0.21773345
30
0
70
32
0
SEQEND
8
0
0
POLYLINE
8
0
62
5
66
1
10
0
20
0
30
0
70
8
0
VERTEX
8
0
62
5
10
-0.056568542
20
0.19830008
30
0
70
32
0
VERTEX
8
0
62
5
10
-0.056568542
20
0.21773345
30
0
70
32
0
SEQEND
8
0
0
POLYLINE
8
0
62
5
66
1
10
0
20
0
30
0
70
8
0
VERTEX
8
0
62
5
10
-0.028284271
20
0.19830008
30
0
70
32
0
VERTEX
8
0
62
5
10
-0.028284271
20
0.21773345
30
0
70
32
0
SEQEND
8
0
0
POLYLINE
8
0
62
30
66
1
10
0
20
0
30
0
70
8
0
VERTEX
8
0
62
30
10
0
20
0.23027917
30
0
70
32
0
VERTEX
8
0
62
30
10
0.11313708
20
0.23027917
30
0
70
32
0
SEQEND
8
0
0
POLYLINE
8
0
62
30
66
1
10
0
20
0
30
0
70
8
0
VERTEX
8
0
62
30
10
0
20
0.21773345
30
0
70
32
0
VERTEX
8
0
62
30
10
0.11313708
20
0.21773345
30
0
70
32
0
SEQEND
8
0
0
POLYLINE
8
0
62
5
66
1
10
0
20
0
30
0
70
8
0
VERTEX
8
0
62
5
10
0
20
0.21773345
30
0
70
32
0
VERTEX
8
0
62
5
10
0.028027805
20
0.23027917
30
0
70
32
0
VERTEX
8
0
62
5
10
0.028284271
20
0.21773345
30
0
70
32
0
VERTEX
8
0
62
5
10
0.056312076
20
0.23027917
30
0
70
32
0
VERTEX
8
0
62
5
10
0.056568542
20
0.21773345
30
0
70
32
0
VERTEX
8
0
62
5
10
0.084596347
20
0.23027917
30
0
70
32
0
VERTEX
8
0
62
5
10
0.084852814
20
0.21773345
30
0
70
32
0
VERTEX
8
0
62
5
10
0.11288062
20
0.23027917
30
0
70
32
0
VERTEX
8
0
62
5
10
0.11313708
20
0.21773345
30
0
70
32
0
SEQEND
8
0
0
POLYLINE
8
0
62
5
66
1
10
0
20
0
30
0
70
8
0
VERTEX
8
0
62
5
10
0.028284271
20
0.21773345
30
0
70
32
0
VERTEX
8
0
62
5
10
0.028284271
20
0.21773345
30
0
70
32
0
SEQEND
8
0
0
POLYLINE
8
0
62
5
66
1
10
0
20
0
30
0
70
8
0
VERTEX
8
0
62
5
10
0.056568542
20
0.21773345
30
0
70
32
0
VERTEX
8
0
62
5
10
0.056568542
20
0.21773345
30
0
70
32
0
SEQEND
8
0
0
POLYLINE
8
0
62
5
66
1
10
0
20
0
30
0
70
8
0
VERTEX
8
0
62
5
10
0.084852814
20
0.21773345
30
0
70
32
0
VERTEX
8
0
62
5
10
0.084852814
20
0.21773345
30
0
70
32
0
SEQEND
8
0
0
POLYLINE
8
0
62
5
66
1
10
0
20
0
30
0
70
8
0
VERTEX
8
0
62
5
10
0.028027805
20
0.23027917
30
0
70
32
0
VERTEX
8
0
62
5
10
0.028027805
20
0.23027917
30
0
70
32
0
SEQEND
8
0
0
POLYLINE
8
0
62
5
66
1
10
0
20
0
30
0
70
8
0
VERTEX
8
0
62
5
10
0.056312076
20
0.23027917
30
0
70
32
0
VERTEX
8
0
62
5
10
0.056312076
20
0.23027917
30
0
70
32
0
SEQEND
8
0
0
POLYLINE
8
0
62
5
66
1
10
0
20
0
30
0
70
8
0
VERTEX
8
0
62
5
10
0.084596347
20
0.23027917
30
0
70
32
0
VERTEX
8
0
62
5
10
0.084596347
20
0.23027917
30
0
70
32
0
SEQEND
8
0
0
POLYLINE
8
0
62
5
66
1
10
0
20
0
30
0
70
8
0
VERTEX
8
0
62
5
10
0.11288062
20
0.23027917
30
0
70
32
0
VERTEX
8
0
62
5
10
0.11288062
20
0.23027917
30
0
70
32
0
SEQEND
8
0
0
POLYLINE
8
0
62
30
66
1
10
0
20
0
30
0
70
8
0
VERTEX
8
0
62
30
10
0.11313708
20
0.23027917
30
0
70
32
0
VERTEX
8
0
62
30
10
0.22627417
20
0.23027917
30
0
70
32
0
SEQEND
8
0
0
POLYLINE
8
0
62
30
66
1
10
0
20
0
30
0
70
8
0
VERTEX
8
0
62
30
10
0.11313708
20
0.21773345
30
0
70
32
0
VERTEX
8
0
62
30
10
0.22627417
20
0.21773345
30
0
70
32
0
SEQEND
8
0
0
POLYLINE
8
0
62
5
66
1
10
0
20
0
30
0
70
8
0
VERTEX
8
0
62
5
10
0.11313708
20
0.21773345
30
0
70
32
0
VERTEX
8
0
62
5
10
0.14116489
20
0.23027917
30
0
70
32
0
VERTEX
8
0
62
5
10
0.14142136
20
0.21773345
30
0
70
32
0
VERTEX
8
0
62
5
10
0.16944916
20
0.23027917
30
0
70
32
0
VERTEX
8
0
62
5
10
0.16970563
20
0.21773345
30
0
70
32
0
VERTEX
8
0
62
5
10
0.19773343
20
0.23027917
30
0
70
32
0
VERTEX
8
0
62
5
10
0.1979899
20
0.21773345
30
0
70
32
0
VERTEX
8
0
62
5
10
0.2260177
20
0.23027917
30
0
70
32
0
VERTEX
8
0
62
5
10
0.22627417
20
0.21773345
30
0
70
32
0
SEQEND
8
0
0
POLYLINE
8
0
62
5
66
1
10
0
20
0
30
0
70
8
0
VERTEX
8
0
62
5
10
0.14142136
20
0.21773345
30
0
70
32
0
VERTEX
8
0
62
5
10
0.14142136
20
0.21773345
30
0
70
32
0
SEQEND
8
0
0
POLYLINE
8
0
62
5
66
1
10
0
20
0
30
0
70
8
0
VERTEX
8
0
62
5
10
0.16970563
20
0.21773345
30
0
70
32
0
VERTEX
8
0
62
5
10
0.16970563
20
0.21773345
30
0
70
32
0
SEQEND
8
0
0
POLYLINE
8
0
62
5
66
1
10
0
20
0
30
0
70
8
0
VERTEX
8
0
62
5
10
0.1979899
20
0.21773345
30
0
70
32
0
VERTEX
8
0
62
5
10
0.1979899
20
0.21773345
30
0
70
32
0
SEQEND
8
0
0
POLYLINE
8
0
62
5
66
1
10
0
20
0
30
0
70
8
0
VERTEX
8
0
62
5
10
0.14116489
20
0.23027917
30
0
70
32
0
VERTEX
8
0
62
5
10
0.14116489
20
0.23027917
30
0
70
32
0
SEQEND
8
0
0
POLYLINE
8
0
62
5
66
1
10
0
20
0
30
0
70
8
0
VERTEX
8
0
62
5
10
0.16944916
20
0.23027917
30
0
70
32
0
VERTEX
8
0
62
5
10
0.16944916
20
0.23027917
30
0
70
32
0
SEQEND
8
0
0
POLYLINE
8
0
62
5
66
1
10
0
20
0
30
0
70
8
0
VERTEX
8
0
62
5
10
0.19773343
20
0.23027917
30
0
70
32
0
VERTEX
8
0
62
5
10
0.19773343
20
0.23027917
30
0
70
32
0
SEQEND
8
0
0
POLYLINE
8
0
62
5
66
1
10
0
20
0
30
0
70
8
0
VERTEX
8
0
62
5
10
0.2260177
20
0.23027917
30
0
70
32
0
VERTEX
8
0
62
5
10
0.2260177
20
0.23027917
30
0
70
32
0
SEQEND
8
0
0
POLYLINE
8
0
62
30
66
1
10
0
20
0
30
0
70
8
0
VERTEX
8
0
62
30
10
-0.11313708
20
0.23027917
30
0
70
32
0
VERTEX
8
0
62
30
10
0
20
0.23027917
30
0
70
32
0
SEQEND
8
0
0
POLYLINE
8
0
62
30
66
1
10
0
20
0
30
0
70
8
0
VERTEX
8
0
62
30
10
-0.11313708
20
0.21773345
30
0
70
32
0
VERTEX
8
0
62
30
10
0
20
0.21773345
30
0
70
32
0
SEQEND
8
0
0
POLYLINE
8
0
62
5
66
1
10
0
20
0
30
0
70
8
0
VERTEX
8
0
62
5
10
-0.11313708
20
0.21773345
30
0
70
32
0
VERTEX
8
0
62
5
10
-0.08510928
20
0.23027917
30
0
70
32
0
VERTEX
8
0
62
5
10
-0.084852814
20
0.21773345
30
0
70
32
0
VERTEX
8
0
62
5
10
-0.056825009
20
0.23027917
30
0
70
32
0
VERTEX
8
0
62
5
10
-0.056568542
20
0.21773345
30
0
70
32
0
VERTEX
8
0
62
5
10
-0.028540738
20
0.23027917
30
0
70
32
0
VERTEX
8
0
62
5
10
-0.028284271
20
0.21773345
30
0
70
32
0
VERTEX
8
0
62
5
10
-0.0002564667
20
0.23027917
30
0
70
32
0
VERTEX
8
0
62
5
10
0
20
0.21773345
30
0
70
32
0
SEQEND
8
0
0
POLYLINE
8
0
62
5
66
1
10
0
20
0
30
0
70
8
0
VERTEX
8
0
62
5
10
-0.084852814
20
0.21773345
30
0
70
32
0
VERTEX
8
0
62
5
10
-0.084852814
20
0.21773345
30
0
70
32
0
SEQEND
8
0
0
POLYLINE
8
0
62
5
66
1
10
0
20
0
30
0
70
8
0
VERTEX
8
0
62
5
10
-0.056568542
20
0.21773345
30
0
70
32
0
VERTEX
8
0
62
5
10
-0.056568542
20
0.21773345
30
0
70
32
0
SEQEND
8
0
0
POLYLINE
8
0
62
5
66
1
10
0
20
0
30
0
70
8
0
VERTEX
8
0
62
5
10
-0.028284271
20
0.21773345
30
0
70
32
0
VERTEX
8
0
62
5
10
-0.028284271
20
0.21773345
30
0
70
32
0
SEQEND
8
0
0
POLYLINE
8
0
62
5
66
1
10
0
20
0
30
0
70
8
0
VERTEX
8
0
62
5
10
-0.08510928
20
0.23027917
30
0
70
32
0
VERTEX
8
0
62
5
10
-0.08510928
20
0.23027917
30
0
70
32
0
SEQEND
8
0
0
POLYLINE
8
0
62
5
66
1
10
0
20
0
30
0
70
8
0
VERTEX
8
0
62
5
10
-0.056825009
20
0.23027917
30
0
70
32
0
VERTEX
8
0
62
5
10
-0.056825009
20
0.23027917
30
0
70
32
0
SEQEND
8
0
0
POLYLINE
8
0
62
5
66
1
10
0
20
0
30
0
70
8
0
VERTEX
8
0
62
5
10
-0.028540738
20
0.23027917
30
0
70
32
0
VERTEX
8
0
62
5
10
-0.028540738
20
0.23027917
30
0
70
32
0
SEQEND
8
0
0
POLYLINE
8
0
62
5
66
1
10
0
20
0
30
0
70
8
0
VERTEX
8
0
62
5
10
-0.0002564667
20
0.23027917
30
0
70
32
0
VERTEX
8
0
62
5
10
-0.0002564667
20
0.23027917
30
0
70
32
0
SEQEND
8
0
0
POLYLINE
8
0
62
5
66
1
10
0
20
0
30
0
70
8
0
VERTEX
8
0
62
5
10
-0.028540738
20
0.23027917
30
0
70
32
0
VERTEX
8
0
62
5
10
-0.028540738
20
0.28045196
30
0
70
32
0
SEQEND
8
0
0
POLYLINE
8
0
62
5
66
1
10
0
20
0
30
0
70
8
0
VERTEX
8
0
62
5
10
0.084596347
20
0.23027917
30
0
70
32
0
VERTEX
8
0
62
5
10
0.084596347
20
0.28045196
30
0
70
32
0
SEQEND
8
0
0
POLYLINE
8
0
62
5
66
1
10
0
20
0
30
0
70
8
0
VERTEX
8
0
62
5
10
-0.0002564667
20
0.23027917
30
0
70
32
0
VERTEX
8
0
62
5
10
-0.0002564667
20
0.28045196
30
0
70
32
0
SEQEND
8
0
0
POLYLINE
8
0
62
5
66
1
10
0
20
0
30
0
70
8
0
VERTEX
8
0
62
5
10
0.028027805
20
0.23027917
30
0
70
32
0
VERTEX
8
0
62
5
10
0.028027805
20
0.28045196
30
0
70
32
0
SEQEND
8
0
0
POLYLINE
8
0
62
5
66
1
10
0
20
0
30
0
70
8
0
VERTEX
8
0
62
5
10
0.056312076
20
0.23027917
30
0
70
32
0
VERTEX
8
0
62
5
10
0.056312076
20
0.28045196
30
0
70
32
0
SEQEND
8
0
0
POLYLINE
8
0
62
5
66
1
10
0
20
0
30
0
70
8
0
VERTEX
8
0
62
5
10
0.19773343
20
0.23027917
30
0
70
32
0
VERTEX
8
0
62
5
10
0.19773343
20
0.28045196
30
0
70
32
0
SEQEND
8
0
0
POLYLINE
8
0
62
5
66
1
10
0
20
0
30
0
70
8
0
VERTEX
8
0
62
5
10
0.11288062
20
0.23027917
30
0
70
32
0
VERTEX
8
0
62
5
10
0.11288062
20
0.28045196
30
0
70
32
0
SEQEND
8
0
0
POLYLINE
8
0
62
5
66
1
10
0
20
0
30
0
70
8
0
VERTEX
8
0
62
5
10
0.14116489
20
0.23027917
30
0
70
32
0
VERTEX
8
0
62
5
10
0.14116489
20
0.28045196
30
0
70
32
0
SEQEND
8
0
0
POLYLINE
8
0
62
5
66
1
10
0
20
0
30
0
70
8
0
VERTEX
8
0
62
5
10
0.16944916
20
0.23027917
30
0
70
32
0
VERTEX
8
0
62
5
10
0.16944916
20
0.28045196
30
0
70
32
0
SEQEND
8
0
0
POLYLINE
8
0
62
5
66
1
10
0
20
0
30
0
70
8
0
VERTEX
8
0
62
5
10
-0.14167782
20
0.23027917
30
0
70
32
0
VERTEX
8
0
62
5
10
-0.14167782
20
0.28045196
30
0
70
32
0
SEQEND
8
0
0
POLYLINE
8
0
62
5
66
1
10
0
20
0
30
0
70
8
0
VERTEX
8
0
62
5
10
-0.11339355
20
0.23027917
30
0
70
32
0
VERTEX
8
0
62
5
10
-0.11339355
20
0.28045196
30
0
70
32
0
SEQEND
8
0
0
POLYLINE
8
0
62
5
66
1
10
0
20
0
30
0
70
8
0
VERTEX
8
0
62
5
10
-0.08510928
20
0.23027917
30
0
70
32
0
VERTEX
8
0
62
5
10
-0.08510928
20
0.28045196
30
0
70
32
0
SEQEND
8
0
0
POLYLINE
8
0
62
5
66
1
10
0
20
0
30
0
70
8
0
VERTEX
8
0
62
5
10
-0.056825009
20
0.23027917
30
0
70
32
0
VERTEX
8
0
62
5
10
-0.056825009
20
0.28045196
30
0
70
32
0
SEQEND
8
0
0
POLYLINE
8
0
62
5
66
1
10
0
20
0
30
0
70
8
0
VERTEX
8
0
62
5
10
-0.028540738
20
0.28045196
30
0
70
32
0
VERTEX
8
0
62
5
10
-0.028540738
20
0.29768007
30
0
70
32
0
SEQEND
8
0
0
POLYLINE
8
0
62
5
66
1
10
0
20
0
30
0
70
8
0
VERTEX
8
0
62
5
10
0.084596347
20
0.29768007
30
0
70
32
0
VERTEX
8
0
62
5
10
0.084596347
20
0.28045196
30
0
70
32
0
SEQEND
8
0
0
POLYLINE
8
0
62
5
66
1
10
0
20
0
30
0
70
8
0
VERTEX
8
0
62
5
10
-0.028540738
20
0.28201043
30
0
70
32
0
VERTEX
8
0
62
5
10
-0.0002564667
20
0.28906601
30
0
70
32
0
VERTEX
8
0
62
5
10
0.028027805
20
0.28887522
30
0
70
32
0
VERTEX
8
0
62
5
10
0.056312076
20
0.28181964
30
0
70
32
0
VERTEX
8
0
62
5
10
0.084596347
20
0.28201043
30
0
70
32
0
SEQEND
8
0
0
POLYLINE
8
0
62
5
66
1
10
0
20
0
30
0
70
8
0
SEQEND
8
0
0
POLYLINE
8
0
62
5
66
1
10
0
20
0
30
0
70
8
0
VERTEX
8
0
62
5
10
-0.028540738
20
0.2961216
30
0
70
32
0
VERTEX
8
0
62
5
10
-0.0002564667
20
0.28906601
30
0
70
32
0
VERTEX
8
0
62
5
10
0.028027805
20
0.28925681
30
0
70
32
0
VERTEX
8
0
62
5
10
0.056312076
20
0.29631239
30
0
70
32
0
VERTEX
8
0
62
5
10
0.084596347
20
0.2961216
30
0
70
32
0
SEQEND
8
0
0
POLYLINE
8
0
62
30
66
1
10
0
20
0
30
0
70
8
0
VERTEX
8
0
62
30
10
-0.028540738
20
0.28906601
30
0
70
32
0
VERTEX
8
0
62
30
10
0.084596347
20
0.28906601
30
0
70
32
0
SEQEND
8
0
0
POLYLINE
8
0
62
30
66
1
10
0
20
0
30
0
70
8
0
VERTEX
8
0
62
30
10
-0.0002564667
20
0.28906601
30
0
70
32
0
VERTEX
8
0
62
30
10
-0.0002564667
20
0.28906601
30
0
70
32
0
SEQEND
8
0
0
POLYLINE
8
0
62
30
66
1
10
0
20
0
30
0
70
8
0
VERTEX
8
0
62
30
10
0.028027805
20
0.28887522
30
0
70
32
0
VERTEX
8
0
62
30
10
0.028027805
20
0.28906601
30
0
70
32
0
SEQEND
8
0
0
POLYLINE
8
0
62
30
66
1
10
0
20
0
30
0
70
8
0
VERTEX
8
0
62
30
10
0.056312076
20
0.28181964
30
0
70
32
0
VERTEX
8
0
62
30
10
0.056312076
20
0.28906601
30
0
70
32
0
SEQEND
8
0
0
POLYLINE
8
0
62
5
66
1
10
0
20
0
30
0
70
8
0
VERTEX
8
0
62
5
10
-0.0002564667
20
0.28045196
30
0
70
32
0
VERTEX
8
0
62
5
10
-0.0002564667
20
0.28906601
30
0
70
32
0
SEQEND
8
0
0
POLYLINE
8
0
62
5
66
1
10
0
20
0
30
0
70
8
0
VERTEX
8
0
62
5
10
0.028027805
20
0.28045196
30
0
70
32
0
VERTEX
8
0
62
5
10
0.028027805
20
0.28887522
30
0
70
32
0
SEQEND
8
0
0
POLYLINE
8
0
62
5
66
1
10
0
20
0
30
0
70
8
0
VERTEX
8
0
62
5
10
0.056312076
20
0.28045196
30
0
70
32
0
VERTEX
8
0
62
5
10
0.056312076
20
0.28181964
30
0
70
32
0
SEQEND
8
0
0
POLYLINE
8
0
62
5
66
1
10
0
20
0
30
0
70
8
0
VERTEX
8
0
62
5
10
-0.0002564667
20
0.28906601
30
0
70
32
0
VERTEX
8
0
62
5
10
-0.0002564667
20
0.29768007
30
0
70
32
0
SEQEND
8
0
0
POLYLINE
8
0
62
5
66
1
10
0
20
0
30
0
70
8
0
VERTEX
8
0
62
5
10
0.028027805
20
0.28906601
30
0
70
32
0
VERTEX
8
0
62
5
10
0.028027805
20
0.29768007
30
0
70
32
0
SEQEND
8
0
0
POLYLINE
8
0
62
5
66
1
10
0
20
0
30
0
70
8
0
VERTEX
8
0
62
5
10
0.056312076
20
0.28906601
30
0
70
32
0
VERTEX
8
0
62
5
10
0.056312076
20
0.29768007
30
0
70
32
0
SEQEND
8
0
0
POLYLINE
8
0
62
5
66
1
10
0
20
0
30
0
70
8
0
VERTEX
8
0
62
5
10
0.19773343
20
0.29768007
30
0
70
32
0
VERTEX
8
0
62
5
10
0.19773343
20
0.28045196
30
0
70
32
0
SEQEND
8
0
0
POLYLINE
8
0
62
5
66
1
10
0
20
0
30
0
70
8
0
VERTEX
8
0
62
5
10
0.084596347
20
0.28201043
30
0
70
32
0
VERTEX
8
0
62
5
10
0.11288062
20
0.28906601
30
0
70
32
0
VERTEX
8
0
62
5
10
0.14116489
20
0.28887522
30
0
70
32
0
VERTEX
8
0
62
5
10
0.16944916
20
0.28181964
30
0
70
32
0
VERTEX
8
0
62
5
10
0.19773343
20
0.28201043
30
0
70
32
0
SEQEND
8
0
0
POLYLINE
8
0
62
5
66
1
10
0
20
0
30
0
70
8
0
SEQEND
8
0
0
POLYLINE
8
0
62
5
66
1
10
0
20
0
30
0
70
8
0
VERTEX
8
0
62
5
10
0.084596347
20
0.2961216
30
0
70
32
0
VERTEX
8
0
62
5
10
0.11288062
20
0.28906601
30
0
70
32
0
VERTEX
8
0
62
5
10
0.14116489
20
0.28925681
30
0
70
32
0
VERTEX
8
0
62
5
10
0.16944916
20
0.29631239
30
0
70
32
0
VERTEX
8
0
62
5
10
0.19773343
20
0.2961216
30
0
70
32
0
SEQEND
8
0
0
POLYLINE
8
0
62
30
66
1
10
0
20
0
30
0
70
8
0
VERTEX
8
0
62
30
10
0.084596347
20
0.28906601
30
0
70
32
0
VERTEX
8
0
62
30
10
0.19773343
20
0.28906601
30
0
70
32
0
SEQEND
8
0
0
POLYLINE
8
0
62
30
66
1
10
0
20
0
30
0
70
8
0
VERTEX
8
0
62
30
10
0.11288062
20
0.28906601
30
0
70
32
0
VERTEX
8
0
62
30
10
0.11288062
20
0.28906601
30
0
70
32
0
SEQEND
8
0
0
POLYLINE
8
0
62
30
66
1
10
0
20
0
30
0
70
8
0
VERTEX
8
0
62
30
10
0.14116489
20
0.28887522
30
0
70
32
0
VERTEX
8
0
62
30
10
0.14116489
20
0.28906601
30
0
70
32
0
SEQEND
8
0
0
POLYLINE
8
0
62
30
66
1
10
0
20
0
30
0
70
8
0
VERTEX
8
0
62
30
10
0.16944916
20
0.28181964
30
0
70
32
0
VERTEX
8
0
62
30
10
0.16944916
20
0.28906601
30
0
70
32
0
SEQEND
8
0
0
POLYLINE
8
0
62
5
66
1
10
0
20
0
30
0
70
8
0
VERTEX
8
0
62
5
10
0.11288062
20
0.28045196
30
0
70
32
0
VERTEX
8
0
62
5
10
0.11288062
20
0.28906601
30
0
70
32
0
SEQEND
8
0
0
POLYLINE
8
0
62
5
66
1
10
0
20
0
30
0
70
8
0
VERTEX
8
0
62
5
10
0.14116489
20
0.28045196
30
0
70
32
0
VERTEX
8
0
62
5
10
0.14116489
20
0.28887522
30
0
70
32
0
SEQEND
8
0
0
POLYLINE
8
0
62
5
66
1
10
0
20
0
30
0
70
8
0
VERTEX
8
0
62
5
10
0.16944916
20
0.28045196
30
0
70
32
0
VERTEX
8
0
62
5
10
0.16944916
20
0.28181964
30
0
70
32
0
SEQEND
8
0
0
POLYLINE
8
0
62
5
66
1
10
0
20
0
30
0
70
8
0
VERTEX
8
0
62
5
10
0.11288062
20
0.28906601
30
0
70
32
0
VERTEX
8
0
62
5
10
0.11288062
20
0.29768007
30
0
70
32
0
SEQEND
8
0
0
POLYLINE
8
0
62
5
66
1
10
0
20
0
30
0
70
8
0
VERTEX
8
0
62
5
10
0.14116489
20
0.28906601
30
0
70
32
0
VERTEX
8
0
62
5
10
0.14116489
20
0.29768007
30
0
70
32
0
SEQEND
8
0
0
POLYLINE
8
0
62
5
66
1
10
0
20
0
30
0
70
8
0
VERTEX
8
0
62
5
10
0.16944916
20
0.28906601
30
0
70
32
0
VERTEX
8
0
62
5
10
0.16944916
20
0.29768007
30
0
70
32
0
SEQEND
8
0
0
POLYLINE
8
0
62
5
66
1
10
0
20
0
30
0
70
8
0
VERTEX
8
0
62
5
10
-0.14167782
20
0.28045196
30
0
70
32
0
VERTEX
8
0
62
5
10
-0.14167782
20
0.29768007
30
0
70
32
0
SEQEND
8
0
0
POLYLINE
8
0
62
5
66
1
10
0
20
0
30
0
70
8
0
VERTEX
8
0
62
5
10
-0.14167782
20
0.28201043
30
0
70
32
0
VERTEX
8
0
62
5
10
-0.11339355
20
0.28906601
30
0
70
32
0
VERTEX
8
0
62
5
10
-0.08510928
20
0.28887522
30
0
70
32
0
VERTEX
8
0
62
5
10
-0.056825009
20
0.28181964
30
0
70
32
0
VERTEX
8
0
62
5
10
-0.028540738
20
0.28201043
30
0
70
32
0
SEQEND
8
0
0
POLYLINE
8
0
62
5
66
1
10
0
20
0
30
0
70
8
0
SEQEND
8
0
0
POLYLINE
8
0
62
5
66
1
10
0
20
0
30
0
70
8
0
VERTEX
8
0
62
5
10
-0.14167782
20
0.2961216
30
0
70
32
0
VERTEX
8
0
62
5
10
-0.11339355
20
0.28906601
30
0
70
32
0
VERTEX
8
0
62
5
10
-0.08510928
20
0.28925681
30
0
70
32
0
VERTEX
8
0
62
5
10
-0.056825009
20
0.29631239
30
0
70
32
0
VERTEX
8
0
62
5
10
-0.028540738
20
0.2961216
30
0
70
32
0
SEQEND
8
0
0
POLYLINE
8
0
62
30
66
1
10
0
20
0
30
0
70
8
0
VERTEX
8
0
62
30
10
-0.14167782
20
0.28906601
30
0
70
32
0
VERTEX
8
0
62
30
10
-0.028540738
20
0.28906601
30
0
70
32
0
SEQEND
8
0
0
POLYLINE
8
0
62
30
66
1
10
0
20
0
30
0
70
8
0
VERTEX
8
0
62
30
10
-0.11339355
20
0.28906601
30
0
70
32
0
VERTEX
8
0
62
30
10
-0.11339355
20
0.28906601
30
0
70
32
0
SEQEND
8
0
0
POLYLINE
8
0
62
30
66
1
10
0
20
0
30
0
70
8
0
VERTEX
8
0
62
30
10
-0.08510928
20
0.28887522
30
0
70
32
0
VERTEX
8
0
62
30
10
-0.08510928
20
0.28906601
30
0
70
32
0
SEQEND
8
0
0
POLYLINE
8
0
62
30
66
1
10
0
20
0
30
0
70
8
0
VERTEX
8
0
62
30
10
-0.056825009
20
0.28181964
30
0
70
32
0
VERTEX
8
0
62
30
10
-0.056825009
20
0.28906601
30
0
70
32
0
SEQEND
8
0
0
POLYLINE
8
0
62
5
66
1
10
0
20
0
30
0
70
8
0
VERTEX
8
0
62
5
10
-0.11339355
20
0.28045196
30
0
70
32
0
VERTEX
8
0
62
5
10
-0.11339355
20
0.28906601
30
0
70
32
0
SEQEND
8
0
0
POLYLINE
8
0
62
5
66
1
10
0
20
0
30
0
70
8
0
VERTEX
8
0
62
5
10
-0.08510928
20
0.28045196
30
0
70
32
0
VERTEX
8
0
62
5
10
-0.08510928
20
0.28887522
30
0
70
32
0
SEQEND
8
0
0
POLYLINE
8
0
62
5
66
1
10
0
20
0
30
0
70
8
0
VERTEX
8
0
62
5
10
-0.056825009
20
0.28045196
30
0
70
32
0
VERTEX
8
0
62
5
10
-0.056825009
20
0.28181964
30
0
70
32
0
SEQEND
8
0
0
POLYLINE
8
0
62
5
66
1
10
0
20
0
30
0
70
8
0
VERTEX
8
0
62
5
10
-0.11339355
20
0.28906601
30
0
70
32
0
VERTEX
8
0
62
5
10
-0.11339355
20
0.29768007
30
0
70
32
0
SEQEND
8
0
0
POLYLINE
8
0
62
5
66
1
10
0
20
0
30
0
70
8
0
VERTEX
8
0
62
5
10
-0.08510928
20
0.28906601
30
0
70
32
0
VERTEX
8
0
62
5
10
-0.08510928
20
0.29768007
30
0
70
32
0
SEQEND
8
0
0
POLYLINE
8
0
62
5
66
1
10
0
20
0
30
0
70
8
0
VERTEX
8
0
62
5
10
-0.056825009
20
0.28906601
30
0
70
32
0
VERTEX
8
0
62
5
10
-0.056825009
20
0.29768007
30
0
70
32
0
SEQEND
8
0
0
POLYLINE
8
0
62
5
66
1
10
0
20
0
30
0
70
8
0
VERTEX
8
0
62
5
10
-0.028540738
20
0.29768007
30
0
70
32
0
VERTEX
8
0
62
5
10
-0.028540738
20
0.48243216
30
0
70
32
0
SEQEND
8
0
0
POLYLINE
8
0
62
5
66
1
10
0
20
0
30
0
70
8
0
VERTEX
8
0
62
5
10
0.084596347
20
0.48243216
30
0
70
32
0
VERTEX
8
0
62
5
10
0.084596347
20
0.29768007
30
0
70
32
0
SEQEND
8
0
0
POLYLINE
8
0
62
30
66
1
10
0
20
0
30
0
70
8
0
VERTEX
8
0
62
30
10
-0.028540738
20
0.43624414
30
0
70
32
0
VERTEX
8
0
62
30
10
0.084596347
20
0.43624414
30
0
70
32
0
SEQEND
8
0
0
POLYLINE
8
0
62
30
66
1
10
0
20
0
30
0
70
8
0
VERTEX
8
0
62
30
10
-0.028540738
20
0.39005612
30
0
70
32
0
VERTEX
8
0
62
30
10
0.084596347
20
0.39005612
30
0
70
32
0
SEQEND
8
0
0
POLYLINE
8
0
62
30
66
1
10
0
20
0
30
0
70
8
0
VERTEX
8
0
62
30
10
-0.028540738
20
0.41315013
30
0
70
32
0
VERTEX
8
0
62
30
10
0.084596347
20
0.41315013
30
0
70
32
0
SEQEND
8
0
0
POLYLINE
8
0
62
5
66
1
10
0
20
0
30
0
70
8
0
VERTEX
8
0
62
5
10
-0.028540738
20
0.34386809
30
0
70
32
0
VERTEX
8
0
62
5
10
0.084596347
20
0.34386809
30
0
70
32
0
SEQEND
8
0
0
POLYLINE
8
0
62
5
66
1
10
0
20
0
30
0
70
8
0
VERTEX
8
0
62
5
10
-0.0002564667
20
0.29768007
30
0
70
32
0
VERTEX
8
0
62
5
10
-0.0002564667
20
0.39005612
30
0
70
32
0
SEQEND
8
0
0
POLYLINE
8
0
62
5
66
1
10
0
20
0
30
0
70
8
0
VERTEX
8
0
62
5
10
0.028027805
20
0.29768007
30
0
70
32
0
VERTEX
8
0
62
5
10
0.028027805
20
0.39005612
30
0
70
32
0
SEQEND
8
0
0
POLYLINE
8
0
62
5
66
1
10
0
20
0
30
0
70
8
0
VERTEX
8
0
62
5
10
0.056312076
20
0.29768007
30
0
70
32
0
VERTEX
8
0
62
5
10
0.056312076
20
0.39005612
30
0
70
32
0
SEQEND
8
0
0
POLYLINE
8
0
62
5
66
1
10
0
20
0
30
0
70
8
0
VERTEX
8
0
62
5
10
-0.0002564667
20
0.43624414
30
0
70
32
0
VERTEX
8
0
62
5
10
-0.0002564667
20
0.48243216
30
0
70
32
0
SEQEND
8
0
0
POLYLINE
8
0
62
5
66
1
10
0
20
0
30
0
70
8
0
VERTEX
8
0
62
5
10
0.028027805
20
0.43624414
30
0
70
32
0
VERTEX
8
0
62
5
10
0.028027805
20
0.48243216
30
0
70
32
0
SEQEND
8
0
0
POLYLINE
8
0
62
5
66
1
10
0
20
0
30
0
70
8
0
VERTEX
8
0
62
5
10
0.056312076
20
0.43624414
30
0
70
32
0
VERTEX
8
0
62
5
10
0.056312076
20
0.48243216
30
0
70
32
0
SEQEND
8
0
0
POLYLINE
8
0
62
30
66
1
10
0
20
0
30
0
70
8
0
VERTEX
8
0
62
30
10
-0.0002564667
20
0.39005612
30
0
70
32
0
VERTEX
8
0
62
30
10
-0.0002564667
20
0.43624414
30
0
70
32
0
SEQEND
8
0
0
POLYLINE
8
0
62
30
66
1
10
0
20
0
30
0
70
8
0
VERTEX
8
0
62
30
10
0.028027805
20
0.39005612
30
0
70
32
0
VERTEX
8
0
62
30
10
0.028027805
20
0.43624414
30
0
70
32
0
SEQEND
8
0
0
POLYLINE
8
0
62
30
66
1
10
0
20
0
30
0
70
8
0
VERTEX
8
0
62
30
10
0.056312076
20
0.39005612
30
0
70
32
0
VERTEX
8
0
62
30
10
0.056312076
20
0.43624414
30
0
70
32
0
SEQEND
8
0
0
POLYLINE
8
0
62
30
66
1
10
0
20
0
30
0
70
8
0
VERTEX
8
0
62
30
10
0.084596347
20
0.39005612
30
0
70
32
0
VERTEX
8
0
62
30
10
0.084596347
20
0.43624414
30
0
70
32
0
SEQEND
8
0
0
POLYLINE
8
0
62
5
66
1
10
0
20
0
30
0
70
8
0
VERTEX
8
0
62
5
10
-0.0002564667
20
0.39005612
30
0
70
32
0
VERTEX
8
0
62
5
10
-0.0050393929
20
0.40160312
30
0
70
32
0
VERTEX
8
0
62
5
10
-0.0002564667
20
0.41315013
30
0
70
32
0
VERTEX
8
0
62
5
10
-0.0050393929
20
0.42469713
30
0
70
32
0
VERTEX
8
0
62
5
10
-0.0002564667
20
0.43624414
30
0
70
32
0
SEQEND
8
0
0
POLYLINE
8
0
62
5
66
1
10
0
20
0
30
0
70
8
0
VERTEX
8
0
62
5
10
0.028027805
20
0.39005612
30
0
70
32
0
VERTEX
8
0
62
5
10
0.023244878
20
0.40160312
30
0
70
32
0
VERTEX
8
0
62
5
10
0.028027805
20
0.41315013
30
0
70
32
0
VERTEX
8
0
62
5
10
0.023244878
20
0.42469713
30
0
70
32
0
VERTEX
8
0
62
5
10
0.028027805
20
0.43624414
30
0
70
32
0
SEQEND
8
0
0
POLYLINE
8
0
62
5
66
1
10
0
20
0
30
0
70
8
0
VERTEX
8
0
62
5
10
0.056312076
20
0.39005612
30
0
70
32
0
VERTEX
8
0
62
5
10
0.05152915
20
0.40160312
30
0
70
32
0
VERTEX
8
0
62
5
10
0.056312076
20
0.41315013
30
0
70
32
0
VERTEX
8
0
62
5
10
0.05152915
20
0.42469713
30
0
70
32
0
VERTEX
8
0
62
5
10
0.056312076
20
0.43624414
30
0
70
32
0
SEQEND
8
0
0
POLYLINE
8
0
62
5
66
1
10
0
20
0
30
0
70
8
0
VERTEX
8
0
62
5
10
0.084596347
20
0.39005612
30
0
70
32
0
VERTEX
8
0
62
5
10
0.079813421
20
0.40160312
30
0
70
32
0
VERTEX
8
0
62
5
10
0.084596347
20
0.41315013
30
0
70
32
0
VERTEX
8
0
62
5
10
0.079813421
20
0.42469713
30
0
70
32
0
VERTEX
8
0
62
5
10
0.084596347
20
0.43624414
30
0
70
32
0
SEQEND
8
0
0
POLYLINE
8
0
62
5
66
1
10
0
20
0
30
0
70
8
0
VERTEX
8
0
62
5
10
-0.028540738
20
0.40160312
30
0
70
32
0
VERTEX
8
0
62
5
10
-0.0050393929
20
0.40160312
30
0
70
32
0
SEQEND
8
0
0
POLYLINE
8
0
62
5
66
1
10
0
20
0
30
0
70
8
0
VERTEX
8
0
62
5
10
-0.028540738
20
0.42469713
30
0
70
32
0
VERTEX
8
0
62
5
10
-0.0050393929
20
0.42469713
30
0
70
32
0
SEQEND
8
0
0
POLYLINE
8
0
62
5
66
1
10
0
20
0
30
0
70
8
0
VERTEX
8
0
62
5
10
-0.0002564667
20
0.40160312
30
0
70
32
0
VERTEX
8
0
62
5
10
0.023244878
20
0.40160312
30
0
70
32
0
SEQEND
8
0
0
POLYLINE
8
0
62
5
66
1
10
0
20
0
30
0
70
8
0
VERTEX
8
0
62
5
10
-0.0002564667
20
0.42469713
30
0
70
32
0
VERTEX
8
0
62
5
10
0.023244878
20
0.42469713
30
0
70
32
0
SEQEND
8
0
0
POLYLINE
8
0
62
5
66
1
10
0
20
0
30
0
70
8
0
VERTEX
8
0
62
5
10
0.028027805
20
0.40160312
30
0
70
32
0
VERTEX
8
0
62
5
10
0.05152915
20
0.40160312
30
0
70
32
0
SEQEND
8
0
0
POLYLINE
8
0
62
5
66
1
10
0
20
0
30
0
70
8
0
VERTEX
8
0
62
5
10
0.028027805
20
0.42469713
30
0
70
32
0
VERTEX
8
0
62
5
10
0.05152915
20
0.42469713
30
0
70
32
0
SEQEND
8
0
0
POLYLINE
8
0
62
5
66
1
10
0
20
0
30
0
70
8
0
VERTEX
8
0
62
5
10
0.056312076
20
0.40160312
30
0
70
32
0
VERTEX
8
0
62
5
10
0.079813421
20
0.40160312
30
0
70
32
0
SEQEND
8
0
0
POLYLINE
8
0
62
5
66
1
10
0
20
0
30
0
70
8
0
VERTEX
8
0
62
5
10
0.056312076
20
0.42469713
30
0
70
32
0
VERTEX
8
0
62
5
10
0.079813421
20
0.42469713
30
0
70
32
0
SEQEND
8
0
0
POLYLINE
8
0
62
30
66
1
10
0
20
0
30
0
70
8
0
VERTEX
8
0
62
30
10
-0.0050393929
20
0.40160312
30
0
70
32
0
VERTEX
8
0
62
30
10
-0.0002564667
20
0.40160312
30
0
70
32
0
SEQEND
8
0
0
POLYLINE
8
0
62
30
66
1
10
0
20
0
30
0
70
8
0
VERTEX
8
0
62
30
10
-0.0050393929
20
0.42469713
30
0
70
32
0
VERTEX
8
0
62
30
10
-0.0002564667
20
0.42469713
30
0
70
32
0
SEQEND
8
0
0
POLYLINE
8
0
62
30
66
1
10
0
20
0
30
0
70
8
0
VERTEX
8
0
62
30
10
0.023244878
20
0.40160312
30
0
70
32
0
VERTEX
8
0
62
30
10
0.028027805
20
0.40160312
30
0
70
32
0
SEQEND
8
0
0
POLYLINE
8
0
62
30
66
1
10
0
20
0
30
0
70
8
0
VERTEX
8
0
62
30
10
0.023244878
20
0.42469713
30
0
70
32
0
VERTEX
8
0
62
30
10
0.028027805
20
0.42469713
30
0
70
32
0
SEQEND
8
0
0
POLYLINE
8
0
62
30
66
1
10
0
20
0
30
0
70
8
0
VERTEX
8
0
62
30
10
0.05152915
20
0.40160312
30
0
70
32
0
VERTEX
8
0
62
30
10
0.056312076
20
0.40160312
30
0
70
32
0
SEQEND
8
0
0
POLYLINE
8
0
62
30
66
1
10
0
20
0
30
0
70
8
0
VERTEX
8
0
62
30
10
0.05152915
20
0.42469713
30
0
70
32
0
VERTEX
8
0
62
30
10
0.056312076
20
0.42469713
30
0
70
32
0
SEQEND
8
0
0
POLYLINE
8
0
62
30
66
1
10
0
20
0
30
0
70
8
0
VERTEX
8
0
62
30
10
0.079813421
20
0.40160312
30
0
70
32
0
VERTEX
8
0
62
30
10
0.084596347
20
0.40160312
30
0
70
32
0
SEQEND
8
0
0
POLYLINE
8
0
62
30
66
1
10
0
20
0
30
0
70
8
0
VERTEX
8
0
62
30
10
0.079813421
20
0.42469713
30
0
70
32
0
VERTEX
8
0
62
30
10
0.084596347
20
0.42469713
30
0
70
32
0
SEQEND
8
0
0
POLYLINE
8
0
62
5
66
1
10
0
20
0
30
0
70
8
0
VERTEX
8
0
62
5
10
0.19773343
20
0.48243216
30
0
70
32
0
VERTEX
8
0
62
5
10
0.19773343
20
0.29768007
30
0
70
32
0
SEQEND
8
0
0
POLYLINE
8
0
62
30
66
1
10
0
20
0
30
0
70
8
0
VERTEX
8
0
62
30
10
0.084596347
20
0.43624414
30
0
70
32
0
VERTEX
8
0
62
30
10
0.19773343
20
0.43624414
30
0
70
32
0
SEQEND
8
0
0
POLYLINE
8
0
62
30
66
1
10
0
20
0
30
0
70
8
0
VERTEX
8
0
62
30
10
0.084596347
20
0.39005612
30
0
70
32
0
VERTEX
8
0
62
30
10
0.19773343
20
0.39005612
30
0
70
32
0
SEQEND
8
0
0
POLYLINE
8
0
62
30
66
1
10
0
20
0
30
0
70
8
0
VERTEX
8
0
62
30
10
0.084596347
20
0.41315013
30
0
70
32
0
VERTEX
8
0
62
30
10
0.19773343
20
0.41315013
30
0
70
32
0
SEQEND
8
0
0
POLYLINE
8
0
62
5
66
1
10
0
20
0
30
0
70
8
0
VERTEX
8
0
62
5
10
0.084596347
20
0.34386809
30
0
70
32
0
VERTEX
8
0
62
5
10
0.19773343
20
0.34386809
30
0
70
32
0
SEQEND
8
0
0
POLYLINE
8
0
62
5
66
1
10
0
20
0
30
0
70
8
0
VERTEX
8
0
62
5
10
0.11288062
20
0.29768007
30
0
70
32
0
VERTEX
8
0
62
5
10
0.11288062
20
0.39005612
30
0
70
32
0
SEQEND
8
0
0
POLYLINE
8
0
62
5
66
1
10
0
20
0
30
0
70
8
0
VERTEX
8
0
62
5
10
0.14116489
20
0.29768007
30
0
70
32
0
VERTEX
8
0
62
5
10
0.14116489
20
0.39005612
30
0
70
32
0
SEQEND
8
0
0
POLYLINE
8
0
62
5
66
1
10
0
20
0
30
0
70
8
0
VERTEX
8
0
62
5
10
0.16944916
20
0.29768007
30
0
70
32
0
VERTEX
8
0
62
5
10
0.16944916
20
0.39005612
30
0
70
32
0
SEQEND
8
0
0
POLYLINE
8
0
62
5
66
1
10
0
20
0
30
0
70
8
0
VERTEX
8
0
62
5
10
0.11288062
20
0.43624414
30
0
70
32
0
VERTEX
8
0
62
5
10
0.11288062
20
0.48243216
30
0
70
32
0
SEQEND
8
0
0
POLYLINE
8
0
62
5
66
1
10
0
20
0
30
0
70
8
0
VERTEX
8
0
62
5
10
0.14116489
20
0.43624414
30
0
70
32
0
VERTEX
8
0
62
5
10
0.14116489
20
0.48243216
30
0
70
32
0
SEQEND
8
0
0
POLYLINE
8
0
62
5
66
1
10
0
20
0
30
0
70
8
0
VERTEX
8
0
62
5
10
0.16944916
20
0.43624414
30
0
70
32
0
VERTEX
8
0
62
5
10
0.16944916
20
0.48243216
30
0
70
32
0
SEQEND
8
0
0
POLYLINE
8
0
62
30
66
1
10
0
20
0
30
0
70
8
0
VERTEX
8
0
62
30
10
0.11288062
20
0.39005612
30
0
70
32
0
VERTEX
8
0
62
30
10
0.11288062
20
0.43624414
30
0
70
32
0
SEQEND
8
0
0
POLYLINE
8
0
62
30
66
1
10
0
20
0
30
0
70
8
0
VERTEX
8
0
62
30
10
0.14116489
20
0.39005612
30
0
70
32
0
VERTEX
8
0
62
30
10
0.14116489
20
0.43624414
30
0
70
32
0
SEQEND
8
0
0
POLYLINE
8
0
62
30
66
1
10
0
20
0
30
0
70
8
0
VERTEX
8
0
62
30
10
0.16944916
20
0.39005612
30
0
70
32
0
VERTEX
8
0
62
30
10
0.16944916
20
0.43624414
30
0
70
32
0
SEQEND
8
0
0
POLYLINE
8
0
62
30
66
1
10
0
20
0
30
0
70
8
0
VERTEX
8
0
62
30
10
0.19773343
20
0.39005612
30
0
70
32
0
VERTEX
8
0
62
30
10
0.19773343
20
0.43624414
30
0
70
32
0
SEQEND
8
0
0
POLYLINE
8
0
62
5
66
1
10
0
20
0
30
0
70
8
0
VERTEX
8
0
62
5
10
0.11288062
20
0.39005612
30
0
70
32
0
VERTEX
8
0
62
5
10
0.10809769
20
0.40160312
30
0
70
32
0
VERTEX
8
0
62
5
10
0.11288062
20
0.41315013
30
0
70
32
0
VERTEX
8
0
62
5
10
0.10809769
20
0.42469713
30
0
70
32
0
VERTEX
8
0
62
5
10
0.11288062
20
0.43624414
30
0
70
32
0
SEQEND
8
0
0
POLYLINE
8
0
62
5
66
1
10
0
20
0
30
0
70
8
0
VERTEX
8
0
62
5
10
0.14116489
20
0.39005612
30
0
70
32
0
VERTEX
8
0
62
5
10
0.13638196
20
0.40160312
30
0
70
32
0
VERTEX
8
0
62
5
10
0.14116489
20
0.41315013
30
0
70
32
0
VERTEX
8
0
62
5
10
0.13638196
20
0.42469713
30
0
70
32
0
VERTEX
8
0
62
5
10
0.14116489
20
0.43624414
30
0
70
32
0
SEQEND
8
0
0
POLYLINE
8
0
62
5
66
1
10
0
20
0
30
0
70
8
0
VERTEX
8
0
62
5
10
0.16944916
20
0.39005612
30
0
70
32
0
VERTEX
8
0
62
5
10
0.16466623
20
0.40160312
30
0
70
32
0
VERTEX
8
0
62
5
10
0.16944916
20
0.41315013
30
0
70
32
0
VERTEX
8
0
62
5
10
0.16466623
20
0.42469713
30
0
70
32
0
VERTEX
8
0
62
5
10
0.16944916
20
0.43624414
30
0
70
32
0
SEQEND
8
0
0
POLYLINE
8
0
62
5
66
1
10
0
20
0
30
0
70
8
0
VERTEX
8
0
62
5
10
0.19773343
20
0.39005612
30
0
70
32
0
VERTEX
8
0
62
5
10
0.19295051
20
0.40160312
30
0
70
32
0
VERTEX
8
0
62
5
10
0.19773343
20
0.41315013
30
0
70
32
0
VERTEX
8
0
62
5
10
0.19295051
20
0.42469713
30
0
70
32
0
VERTEX
8
0
62
5
10
0.19773343
20
0.43624414
30
0
70
32
0
SEQEND
8
0
0
POLYLINE
8
0
62
5
66
1
10
0
20
0
30
0
70
8
0
VERTEX
8
0
62
5
10
0.084596347
20
0.40160312
30
0
70
32
0
VERTEX
8
0
62
5
10
0.10809769
20
0.40160312
30
0
70
32
0
SEQEND
8
0
0
POLYLINE
8
0
62
5
66
1
10
0
20
0
30
0
70
8
0
VERTEX
8
0
62
5
10
0.084596347
20
0.42469713
30
0
70
32
0
VERTEX
8
0
62
5
10
0.10809769
20
0.42469713
30
0
70
32
0
SEQEND
8
0
0
POLYLINE
8
0
62
5
66
1
10
0
20
0
30
0
70
8
0
VERTEX
8
0
62
5
10
0.11288062
20
0.40160312
30
0
70
32
0
VERTEX
8
0
62
5
10
0.13638196
20
0.40160312
30
0
70
32
0
SEQEND
8
0
0
POLYLINE
8
0
62
5
66
1
10
0
20
0
30
0
70
8
0
VERTEX
8
0
62
5
10
0.11288062
20
0.42469713
30
0
70
32
0
VERTEX
8
0
62
5
10
0.13638196
20
0.42469713
30
0
70
32
0
SEQEND
8
0
0
POLYLINE
8
0
62
5
66
1
10
0
20
0
30
0
70
8
0
VERTEX
8
0
62
5
10
0.14116489
20
0.40160312
30
0
70
32
0
VERTEX
8
0
62
5
10
0.16466623
20
0.40160312
30
0
70
32
0
SEQEND
8
0
0
POLYLINE
8
0
62
5
66
1
10
0
20
0
30
0
70
8
0
VERTEX
8
0
62
5
10
0.14116489
20
0.42469713
30
0
70
32
0
VERTEX
8
0
62
5
10
0.16466623
20
0.42469713
30
0
70
32
0
SEQEND
8
0
0
POLYLINE
8
0
62
5
66
1
10
0
20
0
30
0
70
8
0
VERTEX
8
0
62
5
10
0.16944916
20
0.40160312
30
0
70
32
0
VERTEX
8
0
62
5
10
0.19295051
20
0.40160312
30
0
70
32
0
SEQEND
8
0
0
POLYLINE
8
0
62
5
66
1
10
0
20
0
30
0
70
8
0
VERTEX
8
0
62
5
10
0.16944916
20
0.42469713
30
0
70
32
0
VERTEX
8
0
62
5
10
0.19295051
20
0.42469713
30
0
70
32
0
SEQEND
8
0
0
POLYLINE
8
0
62
30
66
1
10
0
20
0
30
0
70
8
0
VERTEX
8
0
62
30
10
0.10809769
20
0.40160312
30
0
70
32
0
VERTEX
8
0
62
30
10
0.11288062
20
0.40160312
30
0
70
32
0
SEQEND
8
0
0
POLYLINE
8
0
62
30
66
1
10
0
20
0
30
0
70
8
0
VERTEX
8
0
62
30
10
0.10809769
20
0.42469713
30
0
70
32
0
VERTEX
8
0
62
30
10
0.11288062
20
0.42469713
30
0
70
32
0
SEQEND
8
0
0
POLYLINE
8
0
62
30
66
1
10
0
20
0
30
0
70
8
0
VERTEX
8
0
62
30
10
0.13638196
20
0.40160312
30
0
70
32
0
VERTEX
8
0
62
30
10
0.14116489
20
0.40160312
30
0
70
32
0
SEQEND
8
0
0
POLYLINE
8
0
62
30
66
1
10
0
20
0
30
0
70
8
0
VERTEX
8
0
62
30
10
0.13638196
20
0.42469713
30
0
70
32
0
VERTEX
8
0
62
30
10
0.14116489
20
0.42469713
30
0
70
32
0
SEQEND
8
0
0
POLYLINE
8
0
62
30
66
1
10
0
20
0
30
0
70
8
0
VERTEX
8
0
62
30
10
0.16466623
20
0.40160312
30
0
70
32
0
VERTEX
8
0
62
30
10
0.16944916
20
0.40160312
30
0
70
32
0
SEQEND
8
0
0
POLYLINE
8
0
62
30
66
1
10
0
20
0
30
0
70
8
0
VERTEX
8
0
62
30
10
0.16466623
20
0.42469713
30
0
70
32
0
VERTEX
8
0
62
30
10
0.16944916
20
0.42469713
30
0
70
32
0
SEQEND
8
0
0
POLYLINE
8
0
62
30
66
1
10
0
20
0
30
0
70
8
0
VERTEX
8
0
62
30
10
0.19295051
20
0.40160312
30
0
70
32
0
VERTEX
8
0
62
30
10
0.19773343
20
0.40160312
30
0
70
32
0
SEQEND
8
0
0
POLYLINE
8
0
62
30
66
1
10
0
20
0
30
0
70
8
0
VERTEX
8
0
62
30
10
0.19295051
20
0.42469713
30
0
70
32
0
VERTEX
8
0
62
30
10
0.19773343
20
0.42469713
30
0
70
32
0
SEQEND
8
0
0
POLYLINE
8
0
62
5
66
1
10
0
20
0
30
0
70
8
0
VERTEX
8
0
62
5
10
-0.14167782
20
0.29768007
30
0
70
32
0
VERTEX
8
0
62
5
10
-0.14167782
20
0.48243216
30
0
70
32
0
SEQEND
8
0
0
POLYLINE
8
0
62
30
66
1
10
0
20
0
30
0
70
8
0
VERTEX
8
0
62
30
10
-0.14167782
20
0.43624414
30
0
70
32
0
VERTEX
8
0
62
30
10
-0.028540738
20
0.43624414
30
0
70
32
0
SEQEND
8
0
0
POLYLINE
8
0
62
30
66
1
10
0
20
0
30
0
70
8
0
VERTEX
8
0
62
30
10
-0.14167782
20
0.39005612
30
0
70
32
0
VERTEX
8
0
62
30
10
-0.028540738
20
0.39005612
30
0
70
32
0
SEQEND
8
0
0
POLYLINE
8
0
62
30
66
1
10
0
20
0
30
0
70
8
0
VERTEX
8
0
62
30
10
-0.14167782
20
0.41315013
30
0
70
32
0
VERTEX
8
0
62
30
10
-0.028540738
20
0.41315013
30
0
70
32
0
SEQEND
8
0
0
POLYLINE
8
0
62
5
66
1
10
0
20
0
30
0
70
8
0
VERTEX
8
0
62
5
10
-0.14167782
20
0.34386809
30
0
70
32
0
VERTEX
8
0
62
5
10
-0.028540738
20
0.34386809
30
0
70
32
0
SEQEND
8
0
0
POLYLINE
8
0
62
5
66
1
10
0
20
0
30
0
70
8
0
VERTEX
8
0
62
5
10
-0.11339355
20
0.29768007
30
0
70
32
0
VERTEX
8
0
62
5
10
-0.11339355
20
0.39005612
30
0
70
32
0
SEQEND
8
0
0
POLYLINE
8
0
62
5
66
1
10
0
20
0
30
0
70
8
0
VERTEX
8
0
62
5
10
-0.08510928
20
0.29768007
30
0
70
32
0
VERTEX
8
0
62
5
10
-0.08510928
20
0.39005612
30
0
70
32
0
SEQEND
8
0
0
POLYLINE
8
0
62
5
66
1
10
0
20
0
30
0
70
8
0
VERTEX
8
0
62
5
10
-0.056825009
20
0.29768007
30
0
70
32
0
VERTEX
8
0
62
5
10
-0.056825009
20
0.39005612
30
0
70
32
0
SEQEND
8
0
0
POLYLINE
8
0
62
5
66
1
10
0
20
0
30
0
70
8
0
VERTEX
8
0
62
5
10
-0.11339355
20
0.43624414
30
0
70
32
0
VERTEX
8
0
62
5
10
-0.11339355
20
0.48243216
30
0
70
32
0
SEQEND
8
0
0
POLYLINE
8
0
62
5
66
1
10
0
20
0
30
0
70
8
0
VERTEX
8
0
62
5
10
-0.08510928
20
0.43624414
30
0
70
32
0
VERTEX
8
0
62
5
10
-0.08510928
20
0.48243216
30
0
70
32
0
SEQEND
8
0
0
POLYLINE
8
0
62
5
66
1
10
0
20
0
30
0
70
8
0
VERTEX
8
0
62
5
10
-0.056825009
20
0.43624414
30
0
70
32
0
VERTEX
8
0
62
5
10
-0.056825009
20
0.48243216
30
0
70
32
0
SEQEND
8
0
0
POLYLINE
8
0
62
30
66
1
10
0
20
0
30
0
70
8
0
VERTEX
8
0
62
30
10
-0.11339355
20
0.39005612
30
0
70
32
0
VERTEX
8
0
62
30
10
-0.11339355
20
0.43624414
30
0
70
32
0
SEQEND
8
0
0
POLYLINE
8
0
62
30
66
1
10
0
20
0
30
0
70
8
0
VERTEX
8
0
62
30
10
-0.08510928
20
0.39005612
30
0
70
32
0
VERTEX
8
0
62
30
10
-0.08510928
20
0.43624414
30
0
70
32
0
SEQEND
8
0
0
POLYLINE
8
0
62
30
66
1
10
0
20
0
30
0
70
8
0
VERTEX
8
0
62
30
10
-0.056825009
20
0.39005612
30
0
70
32
0
VERTEX
8
0
62
30
10
-0.056825009
20
0.43624414
30
0
70
32
0
SEQEND
8
0
0
POLYLINE
8
0
62
30
66
1
10
0
20
0
30
0
70
8
0
VERTEX
8
0
62
30
10
-0.028540738
20
0.39005612
30
0
70
32
0
VERTEX
8
0
62
30
10
-0.028540738
20
0.43624414
30
0
70
32
0
SEQEND
8
0
0
POLYLINE
8
0
62
5
66
1
10
0
20
0
30
0
70
8
0
VERTEX
8
0
62
5
10
-0.11339355
20
0.39005612
30
0
70
32
0
VERTEX
8
0
62
5
10
-0.11817648
20
0.40160312
30
0
70
32
0
VERTEX
8
0
62
5
10
-0.11339355
20
0.41315013
30
0
70
32
0
VERTEX
8
0
62
5
10
-0.11817648
20
0.42469713
30
0
70
32
0
VERTEX
8
0
62
5
10
-0.11339355
20
0.43624414
30
0
70
32
0
SEQEND
8
0
0
POLYLINE
8
0
62
5
66
1
10
0
20
0
30
0
70
8
0
VERTEX
8
0
62
5
10
-0.08510928
20
0.39005612
30
0
70
32
0
VERTEX
8
0
62
5
10
-0.089892207
20
0.40160312
30
0
70
32
0
VERTEX
8
0
62
5
10
-0.08510928
20
0.41315013
30
0
70
32
0
VERTEX
8
0
62
5
10
-0.089892207
20
0.42469713
30
0
70
32
0
VERTEX
8
0
62
5
10
-0.08510928
20
0.43624414
30
0
70
32
0
SEQEND
8
0
0
POLYLINE
8
0
62
5
66
1
10
0
20
0
30
0
70
8
0
VERTEX
8
0
62
5
10
-0.056825009
20
0.39005612
30
0
70
32
0
VERTEX
8
0
62
5
10
-0.061607935
20
0.40160312
30
0
70
32
0
VERTEX
8
0
62
5
10
-0.056825009
20
0.41315013
30
0
70
32
0
VERTEX
8
0
62
5
10
-0.061607935
20
0.42469713
30
0
70
32
0
VERTEX
8
0
62
5
10
-0.056825009
20
0.43624414
30
0
70
32
0
SEQEND
8
0
0
POLYLINE
8
0
62
5
66
1
10
0
20
0
30
0
70
8
0
VERTEX
8
0
62
5
10
-0.028540738
20
0.39005612
30
0
70
32
0
VERTEX
8
0
62
5
10
-0.033323664
20
0.40160312
30
0
70
32
0
VERTEX
8
0
62
5
10
-0.028540738
20
0.41315013
30
0
70
32
0
VERTEX
8
0
62
5
10
-0.033323664
20
0.42469713
30
0
70
32
0
VERTEX
8
0
62
5
10
-0.028540738
20
0.43624414
30
0
70
32
0
SEQEND
8
0
0
POLYLINE
8
0
62
5
66
1
10
0
20
0
30
0
70
8
0
VERTEX
8
0
62
5
10
-0.14167782
20
0.40160312
30
0
70
32
0
VERTEX
8
0
62
5
10
-0.11817648
20
0.40160312
30
0
70
32
0
SEQEND
8
0
0
POLYLINE
8
0
62
5
66
1
10
0
20
0
30
0
70
8
0
VERTEX
8
0
62
5
10
-0.14167782
20
0.42469713
30
0
70
32
0
VERTEX
8
0
62
5
10
-0.11817648
20
0.42469713
30
0
70
32
0
SEQEND
8
0
0
POLYLINE
8
0
62
5
66
1
10
0
20
0
30
0
70
8
0
VERTEX
8
0
62
5
10
-0.11339355
20
0.40160312
30
0
70
32
0
VERTEX
8
0
62
5
10
-0.089892207
20
0.40160312
30
0
70
32
0
SEQEND
8
0
0
POLYLINE
8
0
62
5
66
1
10
0
20
0
30
0
70
8
0
VERTEX
8
0
62
5
10
-0.11339355
20
0.42469713
30
0
70
32
0
VERTEX
8
0
62
5
10
-0.089892207
20
0.42469713
30
0
70
32
0
SEQEND
8
0
0
POLYLINE
8
0
62
5
66
1
10
0
20
0
30
0
70
8
0
VERTEX
8
0
62
5
10
-0.08510928
20
0.40160312
30
0
70
32
0
VERTEX
8
0
62
5
10
-0.061607935
20
0.40160312
30
0
70
32
0
SEQEND
8
0
0
POLYLINE
8
0
62
5
66
1
10
0
20
0
30
0
70
8
0
VERTEX
8
0
62
5
10
-0.08510928
20
0.42469713
30
0
70
32
0
VERTEX
8
0
62
5
10
-0.061607935
20
0.42469713
30
0
70
32
0
SEQEND
8
0
0
POLYLINE
8
0
62
5
66
1
10
0
20
0
30
0
70
8
0
VERTEX
8
0
62
5
10
-0.056825009
20
0.40160312
30
0
70
32
0
VERTEX
8
0
62
5
10
-0.033323664
20
0.40160312
30
0
70
32
0
SEQEND
8
0
0
POLYLINE
8
0
62
5
66
1
10
0
20
0
30
0
70
8
0
VERTEX
8
0
62
5
10
-0.056825009
20
0.42469713
30
0
70
32
0
VERTEX
8
0
62
5
10
-0.033323664
20
0.42469713
30
0
70
32
0
SEQEND
8
0
0
POLYLINE
8
0
62
30
66
1
10
0
20
0
30
0
70
8
0
VERTEX
8
0
62
30
10
-0.11817648
20
0.40160312
30
0
70
32
0
VERTEX
8
0
62
30
10
-0.11339355
20
0.40160312
30
0
70
32
0
SEQEND
8
0
0
POLYLINE
8
0
62
30
66
1
10
0
20
0
30
0
70
8
0
VERTEX
8
0
62
30
10
-0.11817648
20
0.42469713
30
0
70
32
0
VERTEX
8
0
62
30
10
-0.11339355
20
0.42469713
30
0
70
32
0
SEQEND
8
0
0
POLYLINE
8
0
62
30
66
1
10
0
20
0
30
0
70
8
0
VERTEX
8
0
62
30
10
-0.089892207
20
0.40160312
30
0
70
32
0
VERTEX
8
0
62
30
10
-0.08510928
20
0.40160312
30
0
70
32
0
SEQEND
8
0
0
POLYLINE
8
0
62
30
66
1
10
0
20
0
30
0
70
8
0
VERTEX
8
0
62
30
10
-0.089892207
20
0.42469713
30
0
70
32
0
VERTEX
8
0
62
30
10
-0.08510928
20
0.42469713
30
0
70
32
0
SEQEND
8
0
0
POLYLINE
8
0
62
30
66
1
10
0
20
0
30
0
70
8
0
VERTEX
8
0
62
30
10
-0.061607935
20
0.40160312
30
0
70
32
0
VERTEX
8
0
62
30
10
-0.056825009
20
0.40160312
30
0
70
32
0
SEQEND
8
0
0
POLYLINE
8
0
62
30
66
1
10
0
20
0
30
0
70
8
0
VERTEX
8
0
62
30
10
-0.061607935
20
0.42469713
30
0
70
32
0
VERTEX
8
0
62
30
10
-0.056825009
20
0.42469713
30
0
70
32
0
SEQEND
8
0
0
POLYLINE
8
0
62
30
66
1
10
0
20
0
30
0
70
8
0
VERTEX
8
0
62
30
10
-0.033323664
20
0.40160312
30
0
70
32
0
VERTEX
8
0
62
30
10
-0.028540738
20
0.40160312
30
0
70
32
0
SEQEND
8
0
0
POLYLINE
8
0
62
30
66
1
10
0
20
0
30
0
70
8
0
VERTEX
8
0
62
30
10
-0.033323664
20
0.42469713
30
0
70
32
0
VERTEX
8
0
62
30
10
-0.028540738
20
0.42469713
30
0
70
32
0
SEQEND
8
0
0
POLYLINE
8
0
62
5
66
1
10
0
20
0
30
0
70
8
0
VERTEX
8
0
62
5
10
-0.028540738
20
0.48243216
30
0
70
32
0
VERTEX
8
0
62
5
10
-0.028540738
20
0.50231638
30
0
70
32
0
SEQEND
8
0
0
POLYLINE
8
0
62
5
66
1
10
0
20
0
30
0
70
8
0
VERTEX
8
0
62
5
10
-0.0002564667
20
0.48243216
30
0
70
32
0
VERTEX
8
0
62
5
10
-0.0002564667
20
0.50231638
30
0
70
32
0
SEQEND
8
0
0
POLYLINE
8
0
62
5
66
1
10
0
20
0
30
0
70
8
0
VERTEX
8
0
62
5
10
0.028027805
20
0.48243216
30
0
70
32
0
VERTEX
8
0
62
5
10
0.028027805
20
0.50231638
30
0
70
32
0
SEQEND
8
0
0
POLYLINE
8
0
62
5
66
1
10
0
20
0
30
0
70
8
0
VERTEX
8
0
62
5
10
0.056312076
20
0.48243216
30
0
70
32
0
VERTEX
8
0
62
5
10
0.056312076
20
0.50231638
30
0
70
32
0
SEQEND
8
0
0
POLYLINE
8
0
62
5
66
1
10
0
20
0
30
0
70
8
0
VERTEX
8
0
62
5
10
0.084596347
20
0.48243216
30
0
70
32
0
VERTEX
8
0
62
5
10
0.084596347
20
0.50231638
30
0
70
32
0
SEQEND
8
0
0
POLYLINE
8
0
62
5
66
1
10
0
20
0
30
0
70
8
0
VERTEX
8
0
62
5
10
-0.0002564667
20
0.48243216
30
0
70
32
0
VERTEX
8
0
62
5
10
-0.0002564667
20
0.48243216
30
0
70
32
0
SEQEND
8
0
0
POLYLINE
8
0
62
5
66
1
10
0
20
0
30
0
70
8
0
VERTEX
8
0
62
5
10
0.028027805
20
0.48243216
30
0
70
32
0
VERTEX
8
0
62
5
10
0.028027805
20
0.48243216
30
0
70
32
0
SEQEND
8
0
0
POLYLINE
8
0
62
5
66
1
10
0
20
0
30
0
70
8
0
VERTEX
8
0
62
5
10
0.056312076
20
0.48243216
30
0
70
32
0
VERTEX
8
0
62
5
10
0.056312076
20
0.48243216
30
0
70
32
0
SEQEND
8
0
0
POLYLINE
8
0
62
5
66
1
10
0
20
0
30
0
70
8
0
VERTEX
8
0
62
5
10
-0.028540738
20
0.50231638
30
0
70
32
0
VERTEX
8
0
62
5
10
-0.028540738
20
0.50231638
30
0
70
32
0
SEQEND
8
0
0
POLYLINE
8
0
62
5
66
1
10
0
20
0
30
0
70
8
0
VERTEX
8
0
62
5
10
-0.0002564667
20
0.50231638
30
0
70
32
0
VERTEX
8
0
62
5
10
-0.0002564667
20
0.50231638
30
0
70
32
0
SEQEND
8
0
0
POLYLINE
8
0
62
5
66
1
10
0
20
0
30
0
70
8
0
VERTEX
8
0
62
5
10
0.028027805
20
0.50231638
30
0
70
32
0
VERTEX
8
0
62
5
10
0.028027805
20
0.50231638
30
0
70
32
0
SEQEND
8
0
0
POLYLINE
8
0
62
5
66
1
10
0
20
0
30
0
70
8
0
VERTEX
8
0
62
5
10
0.056312076
20
0.50231638
30
0
70
32
0
VERTEX
8
0
62
5
10
0.056312076
20
0.50231638
30
0
70
32
0
SEQEND
8
0
0
POLYLINE
8
0
62
5
66
1
10
0
20
0
30
0
70
8
0
VERTEX
8
0
62
5
10
0.11288062
20
0.48243216
30
0
70
32
0
VERTEX
8
0
62
5
10
0.11288062
20
0.50231638
30
0
70
32
0
SEQEND
8
0
0
POLYLINE
8
0
62
5
66
1
10
0
20
0
30
0
70
8
0
VERTEX
8
0
62
5
10
0.14116489
20
0.48243216
30
0
70
32
0
VERTEX
8
0
62
5
10
0.14116489
20
0.50231638
30
0
70
32
0
SEQEND
8
0
0
POLYLINE
8
0
62
5
66
1
10
0
20
0
30
0
70
8
0
VERTEX
8
0
62
5
10
0.16944916
20
0.48243216
30
0
70
32
0
VERTEX
8
0
62
5
10
0.16944916
20
0.50231638
30
0
70
32
0
SEQEND
8
0
0
POLYLINE
8
0
62
5
66
1
10
0
20
0
30
0
70
8
0
VERTEX
8
0
62
5
10
0.19773343
20
0.48243216
30
0
70
32
0
VERTEX
8
0
62
5
10
0.19773343
20
0.50231638
30
0
70
32
0
SEQEND
8
0
0
POLYLINE
8
0
62
5
66
1
10
0
20
0
30
0
70
8
0
VERTEX
8
0
62
5
10
0.11288062
20
0.48243216
30
0
70
32
0
VERTEX
8
0
62
5
10
0.11288062
20
0.48243216
30
0
70
32
0
SEQEND
8
0
0
POLYLINE
8
0
62
5
66
1
10
0
20
0
30
0
70
8
0
VERTEX
8
0
62
5
10
0.14116489
20
0.48243216
30
0
70
32
0
VERTEX
8
0
62
5
10
0.14116489
20
0.48243216
30
0
70
32
0
SEQEND
8
0
0
POLYLINE
8
0
62
5
66
1
10
0
20
0
30
0
70
8
0
VERTEX
8
0
62
5
10
0.16944916
20
0.48243216
30
0
70
32
0
VERTEX
8
0
62
5
10
0.16944916
20
0.48243216
30
0
70
32
0
SEQEND
8
0
0
POLYLINE
8
0
62
5
66
1
10
0
20
0
30
0
70
8
0
VERTEX
8
0
62
5
10
0.084596347
20
0.50231638
30
0
70
32
0
VERTEX
8
0
62
5
10
0.084596347
20
0.50231638
30
0
70
32
0
SEQEND
8
0
0
POLYLINE
8
0
62
5
66
1
10
0
20
0
30
0
70
8
0
VERTEX
8
0
62
5
10
0.11288062
20
0.50231638
30
0
70
32
0
VERTEX
8
0
62
5
10
0.11288062
20
0.50231638
30
0
70
32
0
SEQEND
8
0
0
POLYLINE
8
0
62
5
66
1
10
0
20
0
30
0
70
8
0
VERTEX
8
0
62
5
10
0.14116489
20
0.50231638
30
0
70
32
0
VERTEX
8
0
62
5
10
0.14116489
20
0.50231638
30
0
70
32
0
SEQEND
8
0
0
POLYLINE
8
0
62
5
66
1
10
0
20
0
30
0
70
8
0
VERTEX
8
0
62
5
10
0.16944916
20
0.50231638
30
0
70
32
0
VERTEX
8
0
62
5
10
0.16944916
20
0.50231638
30
0
70
32
0
SEQEND
8
0
0
POLYLINE
8
0
62
5
66
1
10
0
20
0
30
0
70
8
0
VERTEX
8
0
62
5
10
-0.11339355
20
0.48243216
30
0
70
32
0
VERTEX
8
0
62
5
10
-0.11339355
20
0.50231638
30
0
70
32
0
SEQEND
8
0
0
POLYLINE
8
0
62
5
66
1
10
0
20
0
30
0
70
8
0
VERTEX
8
0
62
5
10
-0.08510928
20
0.48243216
30
0
70
32
0
VERTEX
8
0
62
5
10
-0.08510928
20
0.50231638
30
0
70
32
0
SEQEND
8
0
0
POLYLINE
8
0
62
5
66
1
10
0
20
0
30
0
70
8
0
VERTEX
8
0
62
5
10
-0.056825009
20
0.48243216
30
0
70
32
0
VERTEX
8
0
62
5
10
-0.056825009
20
0.50231638
30
0
70
32
0
SEQEND
8
0
0
POLYLINE
8
0
62
5
66
1
10
0
20
0
30
0
70
8
0
VERTEX
8
0
62
5
10
-0.028540738
20
0.48243216
30
0
70
32
0
VERTEX
8
0
62
5
10
-0.028540738
20
0.50231638
30
0
70
32
0
SEQEND
8
0
0
POLYLINE
8
0
62
5
66
1
10
0
20
0
30
0
70
8
0
VERTEX
8
0
62
5
10
-0.11339355
20
0.48243216
30
0
70
32
0
VERTEX
8
0
62
5
10
-0.11339355
20
0.48243216
30
0
70
32
0
SEQEND
8
0
0
POLYLINE
8
0
62
5
66
1
10
0
20
0
30
0
70
8
0
VERTEX
8
0
62
5
10
-0.08510928
20
0.48243216
30
0
70
32
0
VERTEX
8
0
62
5
10
-0.08510928
20
0.48243216
30
0
70
32
0
SEQEND
8
0
0
POLYLINE
8
0
62
5
66
1
10
0
20
0
30
0
70
8
0
VERTEX
8
0
62
5
10
-0.056825009
20
0.48243216
30
0
70
32
0
VERTEX
8
0
62
5
10
-0.056825009
20
0.48243216
30
0
70
32
0
SEQEND
8
0
0
POLYLINE
8
0
62
5
66
1
10
0
20
0
30
0
70
8
0
VERTEX
8
0
62
5
10
-0.14167782
20
0.50231638
30
0
70
32
0
VERTEX
8
0
62
5
10
-0.14167782
20
0.50231638
30
0
70
32
0
SEQEND
8
0
0
POLYLINE
8
0
62
5
66
1
10
0
20
0
30
0
70
8
0
VERTEX
8
0
62
5
10
-0.11339355
20
0.50231638
30
0
70
32
0
VERTEX
8
0
62
5
10
-0.11339355
20
0.50231638
30
0
70
32
0
SEQEND
8
0
0
POLYLINE
8
0
62
5
66
1
10
0
20
0
30
0
70
8
0
VERTEX
8
0
62
5
10
-0.08510928
20
0.50231638
30
0
70
32
0
VERTEX
8
0
62
5
10
-0.08510928
20
0.50231638
30
0
70
32
0
SEQEND
8
0
0
POLYLINE
8
0
62
5
66
1
10
0
20
0
30
0
70
8
0
VERTEX
8
0
62
5
10
-0.056825009
20
0.50231638
30
0
70
32
0
VERTEX
8
0
62
5
10
-0.056825009
20
0.50231638
30
0
70
32
0
SEQEND
8
0
0
POLYLINE
8
0
62
5
66
1
10
0
20
0
30
0
70
8
0
VERTEX
8
0
62
5
10
-0.028540738
20
0.50231638
30
0
70
32
0
VERTEX
8
0
62
5
10
-0.028540738
20
0.58185328
30
0
70
32
0
SEQEND
8
0
0
POLYLINE
8
0
62
5
66
1
10
0
20
0
30
0
70
8
0
VERTEX
8
0
62
5
10
0.084596347
20
0.50231638
30
0
70
32
0
VERTEX
8
0
62
5
10
0.084596347
20
0.58185328
30
0
70
32
0
SEQEND
8
0
0
POLYLINE
8
0
62
5
66
1
10
0
20
0
30
0
70
8
0
VERTEX
8
0
62
5
10
-0.0002564667
20
0.50231638
30
0
70
32
0
VERTEX
8
0
62
5
10
-0.0002564667
20
0.58185328
30
0
70
32
0
SEQEND
8
0
0
POLYLINE
8
0
62
5
66
1
10
0
20
0
30
0
70
8
0
VERTEX
8
0
62
5
10
0.028027805
20
0.50231638
30
0
70
32
0
VERTEX
8
0
62
5
10
0.028027805
20
0.58185328
30
0
70
32
0
SEQEND
8
0
0
POLYLINE
8
0
62
5
66
1
10
0
20
0
30
0
70
8
0
VERTEX
8
0
62
5
10
0.056312076
20
0.50231638
30
0
70
32
0
VERTEX
8
0
62
5
10
0.056312076
20
0.58185328
30
0
70
32
0
SEQEND
8
0
0
POLYLINE
8
0
62
5
66
1
10
0
20
0
30
0
70
8
0
VERTEX
8
0
62
5
10
0.19773343
20
0.50231638
30
0
70
32
0
VERTEX
8
0
62
5
10
0.19773343
20
0.58185328
30
0
70
32
0
SEQEND
8
0
0
POLYLINE
8
0
62
5
66
1
10
0
20
0
30
0
70
8
0
VERTEX
8
0
62
5
10
0.11288062
20
0.50231638
30
0
70
32
0
VERTEX
8
0
62
5
10
0.11288062
20
0.58185328
30
0
70
32
0
SEQEND
8
0
0
POLYLINE
8
0
62
5
66
1
10
0
20
0
30
0
70
8
0
VERTEX
8
0
62
5
10
0.14116489
20
0.50231638
30
0
70
32
0
VERTEX
8
0
62
5
10
0.14116489
20
0.58185328
30
0
70
32
0
SEQEND
8
0
0
POLYLINE
8
0
62
5
66
1
10
0
20
0
30
0
70
8
0
VERTEX
8
0
62
5
10
0.16944916
20
0.50231638
30
0
70
32
0
VERTEX
8
0
62
5
10
0.16944916
20
0.58185328
30
0
70
32
0
SEQEND
8
0
0
POLYLINE
8
0
62
5
66
1
10
0
20
0
30
0
70
8
0
VERTEX
8
0
62
5
10
-0.14167782
20
0.50231638
30
0
70
32
0
VERTEX
8
0
62
5
10
-0.14167782
20
0.58185328
30
0
70
32
0
SEQEND
8
0
0
POLYLINE
8
0
62
5
66
1
10
0
20
0
30
0
70
8
0
VERTEX
8
0
62
5
10
-0.11339355
20
0.50231638
30
0
70
32
0
VERTEX
8
0
62
5
10
-0.11339355
20
0.58185328
30
0
70
32
0
SEQEND
8
0
0
POLYLINE
8
0
62
5
66
1
10
0
20
0
30
0
70
8
0
VERTEX
8
0
62
5
10
-0.08510928
20
0.50231638
30
0
70
32
0
VERTEX
8
0
62
5
10
-0.08510928
20
0.58185328
30
0
70
32
0
SEQEND
8
0
0
POLYLINE
8
0
62
5
66
1
10
0
20
0
30
0
70
8
0
VERTEX
8
0
62
5
10
-0.056825009
20
0.50231638
30
0
70
32
0
VERTEX
8
0
62
5
10
-0.056825009
20
0.58185328
30
0
70
32
0
SEQEND
8
0
0
POLYLINE
8
0
62
5
66
1
10
0
20
0
30
0
70
8
0
VERTEX
8
0
62
5
10
-0.028540738
20
0.58185328
30
0
70
32
0
VERTEX
8
0
62
5
10
-0.028540738
20
0.58285328
30
0
70
32
0
SEQEND
8
0
0
POLYLINE
8
0
62
5
66
1
10
0
20
0
30
0
70
8
0
VERTEX
8
0
62
5
10
0.084596347
20
0.58185328
30
0
70
32
0
VERTEX
8
0
62
5
10
0.084596347
20
0.58285328
30
0
70
32
0
SEQEND
8
0
0
POLYLINE
8
0
62
5
66
1
10
0
20
0
30
0
70
8
0
VERTEX
8
0
62
5
10
-0.0002564667
20
0.58185328
30
0
70
32
0
VERTEX
8
0
62
5
10
-0.0002564667
20
0.58285328
30
0
70
32
0
SEQEND
8
0
0
POLYLINE
8
0
62
5
66
1
10
0
20
0
30
0
70
8
0
VERTEX
8
0
62
5
10
0.028027805
20
0.58185328
30
0
70
32
0
VERTEX
8
0
62
5
10
0.028027805
20
0.58285328
30
0
70
32
0
SEQEND
8
0
0
POLYLINE
8
0
62
5
66
1
10
0
20
0
30
0
70
8
0
VERTEX
8
0
62
5
10
0.056312076
20
0.58185328
30
0
70
32
0
VERTEX
8
0
62
5
10
0.056312076
20
0.58285328
30
0
70
32
0
SEQEND
8
0
0
POLYLINE
8
0
62
5
66
1
10
0
20
0
30
0
70
8
0
VERTEX
8
0
62
5
10
0.19773343
20
0.58185328
30
0
70
32
0
VERTEX
8
0
62
5
10
0.19773343
20
0.58285328
30
0
70
32
0
SEQEND
8
0
0
POLYLINE
8
0
62
5
66
1
10
0
20
0
30
0
70
8
0
VERTEX
8
0
62
5
10
0.11288062
20
0.58185328
30
0
70
32
0
VERTEX
8
0
62
5
10
0.11288062
20
0.58285328
30
0
70
32
0
SEQEND
8
0
0
POLYLINE
8
0
62
5
66
1
10
0
20
0
30
0
70
8
0
VERTEX
8
0
62
5
10
0.14116489
20
0.58185328
30
0
70
32
0
VERTEX
8
0
62
5
10
0.14116489
20
0.58285328
30
0
70
32
0
SEQEND
8
0
0
POLYLINE
8
0
62
5
66
1
10
0
20
0
30
0
70
8
0
VERTEX
8
0
62
5
10
0.16944916
20
0.58185328
30
0
70
32
0
VERTEX
8
0
62
5
10
0.16944916
20
0.58285328
30
0
70
32
0
SEQEND
8
0
0
POLYLINE
8
0
62
5
66
1
10
0
20
0
30
0
70
8
0
VERTEX
8
0
62
5
10
-0.14167782
20
0.58185328
30
0
70
32
0
VERTEX
8
0
62
5
10
-0.14167782
20
0.58285328
30
0
70
32
0
SEQEND
8
0
0
POLYLINE
8
0
62
5
66
1
10
0
20
0
30
0
70
8
0
VERTEX
8
0
62
5
10
-0.11339355
20
0.58185328
30
0
70
32
0
VERTEX
8
0
62
5
10
-0.11339355
20
0.58285328
30
0
70
32
0
SEQEND
8
0
0
POLYLINE
8
0
62
5
66
1
10
0
20
0
30
0
70
8
0
VERTEX
8
0
62
5
10
-0.08510928
20
0.58185328
30
0
70
32
0
VERTEX
8
0
62
5
10
-0.08510928
20
0.58285328
30
0
70
32
0
SEQEND
8
0
0
POLYLINE
8
0
62
5
66
1
10
0
20
0
30
0
70
8
0
VERTEX
8
0
62
5
10
-0.056825009
20
0.58185328
30
0
70
32
0
VERTEX
8
0
62
5
10
-0.056825009
20
0.58285328
30
0
70
32
0
SEQEND
8
0
0
POLYLINE
8
0
62
18
66
1
10
0
20
0
30
0
70
8
0
VERTEX
8
0
62
18
10
0
20
0
30
0
70
32
0
VERTEX
8
0
62
18
10
0.14142136
20
0
30
0
70
32
0
VERTEX
8
0
62
18
10
0.14142136
20
0.25536556
30
0
70
32
0
VERTEX
8
0
62
18
10
0
20
0.25536556
30
0
70
32
0
VERTEX
8
0
62
18
10
0
20
0
30
0
70
32
0
SEQEND
8
0
0
POLYLINE
8
0
62
5
66
1
10
0
20
0
30
0
70
8
0
VERTEX
8
0
62
5
10
0
20
0.25536556
30
0
70
32
0
VERTEX
8
0
62
5
10
0.14142136
20
0.25536556
30
0
70
32
0
SEQEND
8
0
0
POLYLINE
8
0
62
18
66
1
10
0
20
0
30
0
70
8
0
VERTEX
8
0
62
18
10
0
20
0.23536556
30
0
70
32
0
VERTEX
8
0
62
18
10
0.14142136
20
0.23536556
30
0
70
32
0
VERTEX
8
0
62
18
10
0.14142136
20
0.54208483
30
0
70
32
0
VERTEX
8
0
62
18
10
0
20
0.54208483
30
0
70
32
0
VERTEX
8
0
62
18
10
0
20
0.23536556
30
0
70
32
0
SEQEND
8
0
0
POLYLINE
8
0
62
5
66
1
10
0
20
0
30
0
70
8
0
VERTEX
8
0
62
5
10
0
20
0.54208483
30
0
70
32
0
VERTEX
8
0
62
5
10
0.14142136
20
0.54208483
30
0
70
32
0
SEQEND
8
0
0
POLYLINE
8
0
62
18
66
1
10
0
20
0
30
0
70
8
0
VERTEX
8
0
62
18
10
0.14142136
20
0
30
0
70
32
0
VERTEX
8
0
62
18
10
0
20
0
30
0
70
32
0
VERTEX
8
0
62
18
10
0
20
0.58285328
30
0
70
32
0
VERTEX
8
0
62
18
10
0.14142136
20
0.58285328
30
0
70
32
0
VERTEX
8
0
62
18
10
0.14142136
20
0
30
0
70
32
0
SEQEND
8
0
0
ENDSEC
0
EOF
