0
SECTION
2
HEADER
9
$ACADVER
1
AC1006
9
$INSUNITS
70
6
0
ENDSEC
0
SECTION
2
ENTITIES
0
POLYLINE
8
0
62
5
66
1
10
0
20
0
30
0
70
8
0
VERTEX
8
0
62
5
10
0
20
0
30
0
70
32
0
VERTEX
8
0
62
5
10
0
20
0.1
30
0
70
32
0
SEQEND
8
0
0
POLYLINE
8
0
62
5
66
1
10
0
20
0
30
0
70
8
0
VERTEX
8
0
62
5
10
0.11313708
20
0
30
0
70
32
0
VERTEX
8
0
62
5
10
0.11313708
20
0.1
30
0
70
32
0
SEQEND
8
0
0
POLYLINE
8
0
62
5
66
1
10
0
20
0
30
0
70
8
0
VERTEX
8
0
62
5
10
0.028284271
20
0
30
0
70
32
0
VERTEX
8
0
62
5
10
0.028284271
20
0.1
30
0
70
32
0
SEQEND
8
0
0
POLYLINE
8
0
62
5
66
1
10
0
20
0
30
0
70
8
0
VERTEX
8
0
62
5
10
0.056568542
20
0
30
0
70
32
0
VERTEX
8
0
62
5
10
0.056568542
20
0.1
30
0
70
32
0
SEQEND
8
0
0
POLYLINE
8
0
62
5
66
1
10
0
20
0
30
0
70
8
0
VERTEX
8
0
62
5
10
0.084852814
20
0
30
0
70
32
0
VERTEX
8
0
62
5
10
0.084852814
20
0.1
30
0
70
32
0
SEQEND
8
0
0
POLYLINE
8
0
62
5
66
1
10
0
20
0
30
0
70
8
0
VERTEX
8
0
62
5
10
0.22627417
20
0
30
0
70
32
0
VERTEX
8
0
62
5
10
0.22627417
20
0.1
30
0
70
32
0
SEQEND
8
0
0
POLYLINE
8
0
62
5
66
1
10
0
20
0
30
0
70
8
0
VERTEX
8
0
62
5
10
0.14142136
20
0
30
0
70
32
0
VERTEX
8
0
62
5
10
0.14142136
20
0.1
30
0
70
32
0
SEQEND
8
0
0
POLYLINE
8
0
62
5
66
1
10
0
20
0
30
0
70
8
0
VERTEX
8
0
62
5
10
0.16970563
20
0
30
0
70
32
0
VERTEX
8
0
62
5
10
0.16970563
20
0.1
30
0
70
32
0
SEQEND
8
0
0
POLYLINE
8
0
62
5
66
1
10
0
20
0
30
0
70
8
0
VERTEX
8
0
62
5
10
0.1979899
20
0
30
0
70
32
0
VERTEX
8
0
62
5
10
0.1979899
20
0.1
30
0
70
32
0
SEQEND
8
0
0
POLYLINE
8
0
62
5
66
1
10
0
20
0
30
0
70
8
0
VERTEX
8
0
62
5
10
-0.11313708
20
0
30
0
70
32
0
VERTEX
8
0
62
5
10
-0.11313708
20
0.1
30
0
70
32
0
SEQEND
8
0
0
POLYLINE
8
0
62
5
66
1
10
0
20
0
30
0
70
8
0
VERTEX
8
0
62
5
10
-0.084852814
20
0
30
0
70
32
0
VERTEX
8
0
62
5
10
-0.084852814
20
0.1
30
0
70
32
0
SEQEND
8
0
0
POLYLINE
8
0
62
5
66
1
10
0
20
0
30
0
70
8
0
VERTEX
8
0
62
5
10
-0.056568542
20
0
30
0
70
32
0
VERTEX
8
0
62
5
10
-0.056568542
20
0.1
30
0
70
32
0
SEQEND
8
0
0
POLYLINE
8
0
62
5
66
1
10
0
20
0
30
0
70
8
0
VERTEX
8
0
62
5
10
-0.028284271
20
0
30
0
70
32
0
VERTEX
8
0
62
5
10
-0.028284271
20
0.1
30
0
70
32
0
SEQEND
8
0
0
POLYLINE
8
0
62
5
66
1
10
0
20
0
30
0
70
8
0
VERTEX
8
0
62
5
10
0
20
0.1
30
0
70
32
0
VERTEX
8
0
62
5
10
0
20
0.101
30
0
70
32
0
SEQEND
8
0
0
POLYLINE
8
0
62
5
66
1
10
0
20
0
30
0
70
8
0
VERTEX
8
0
62
5
10
0.11313708
20
0.1
30
0
70
32
0
VERTEX
8
0
62
5
10
0.11313708
20
0.101
30
0
70
32
0
SEQEND
8
0
0
POLYLINE
8
0
62
5
66
1
10
0
20
0
30
0
70
8
0
VERTEX
8
0
62
5
10
0.028284271
20
0.1
30
0
70
32
0
VERTEX
8
0
62
5
10
0.028284271
20
0.101
30
0
70
32
0
SEQEND
8
0
0
POLYLINE
8
0
62
5
66
1
10
0
20
0
30
0
70
8
0
VERTEX
8
0
62
5
10
0.056568542
20
0.1
30
0
70
32
0
VERTEX
8
0
62
5
10
0.056568542
20
0.101
30
0
70
32
0
SEQEND
8
0
0
POLYLINE
8
0
62
5
66
1
10
0
20
0
30
0
70
8
0
VERTEX
8
0
62
5
10
0.084852814
20
0.1
30
0
70
32
0
VERTEX
8
0
62
5
10
0.084852814
20
0.101
30
0
70
32
0
SEQEND
8
0
0
POLYLINE
8
0
62
5
66
1
10
0
20
0
30
0
70
8
0
VERTEX
8
0
62
5
10
0.22627417
20
0.1
30
0
70
32
0
VERTEX
8
0
62
5
10
0.22627417
20
0.101
30
0
70
32
0
SEQEND
8
0
0
POLYLINE
8
0
62
5
66
1
10
0
20
0
30
0
70
8
0
VERTEX
8
0
62
5
10
0.14142136
20
0.1
30
0
70
32
0
VERTEX
8
0
62
5
10
0.14142136
20
0.101
30
0
70
32
0
SEQEND
8
0
0
POLYLINE
8
0
62
5
66
1
10
0
20
0
30
0
70
8
0
VERTEX
8
0
62
5
10
0.16970563
20
0.1
30
0
70
32
0
VERTEX
8
0
62
5
10
0.16970563
20
0.101
30
0
70
32
0
SEQEND
8
0
0
POLYLINE
8
0
62
5
66
1
10
0
20
0
30
0
70
8
0
VERTEX
8
0
62
5
10
0.1979899
20
0.1
30
0
70
32
0
VERTEX
8
0
62
5
10
0.1979899
20
0.101
30
0
70
32
0
SEQEND
8
0
0
POLYLINE
8
0
62
5
66
1
10
0
20
0
30
0
70
8
0
VERTEX
8
0
62
5
10
-0.11313708
20
0.1
30
0
70
32
0
VERTEX
8
0
62
5
10
-0.11313708
20
0.101
30
0
70
32
0
SEQEND
8
0
0
POLYLINE
8
0
62
5
66
1
10
0
20
0
30
0
70
8
0
VERTEX
8
0
62
5
10
-0.084852814
20
0.1
30
0
70
32
0
VERTEX
8
0
62
5
10
-0.084852814
20
0.101
30
0
70
32
0
SEQEND
8
0
0
POLYLINE
8
0
62
5
66
1
10
0
20
0
30
0
70
8
0
VERTEX
8
0
62
5
10
-0.056568542
20
0.1
30
0
70
32
0
VERTEX
8
0
62
5
10
-0.056568542
20
0.101
30
0
70
32
0
SEQEND
8
0
0
POLYLINE
8
0
62
5
66
1
10
0
20
0
30
0
70
8
0
VERTEX
8
0
62
5
10
-0.028284271
20
0.1
30
0
70
32
0
VERTEX
8
0
62
5
10
-0.028284271
20
0.101
30
0
70
32
0
SEQEND
8
0
0
POLYLINE
8
0
62
5
66
1
10
0
20
0
30
0
70
8
0
VERTEX
8
0
62
5
10
0
20
0.101
30
0
70
32
0
VERTEX
8
0
62
5
10
0
20
0.14028225
30
0
70
32
0
SEQEND
8
0
0
POLYLINE
8
0
62
5
66
1
10
0
20
0
30
0
70
8
0
VERTEX
8
0
62
5
10
0.11313708
20
0.14028225
30
0
70
32
0
VERTEX
8
0
62
5
10
0.11313708
20
0.101
30
0
70
32
0
SEQEND
8
0
0
POLYLINE
8
0
62
5
66
1
10
0
20
0
30
0
70
8
0
VERTEX
8
0
62
5
10
0
20
0.11057842
30
0
70
32
0
VERTEX
8
0
62
5
10
0.028284271
20
0.12064112
30
0
70
32
0
VERTEX
8
0
62
5
10
0.056568542
20
0.11106573
30
0
70
32
0
VERTEX
8
0
62
5
10
0.084852814
20
0.10100302
30
0
70
32
0
VERTEX
8
0
62
5
10
0.11313708
20
0.11057842
30
0
70
32
0
SEQEND
8
0
0
POLYLINE
8
0
62
5
66
1
10
0
20
0
30
0
70
8
0
SEQEND
8
0
0
POLYLINE
8
0
62
5
66
1
10
0
20
0
30
0
70
8
0
VERTEX
8
0
62
5
10
0
20
0.13070383
30
0
70
32
0
VERTEX
8
0
62
5
10
0.028284271
20
0.12064112
30
0
70
32
0
VERTEX
8
0
62
5
10
0.056568542
20
0.13021652
30
0
70
32
0
VERTEX
8
0
62
5
10
0.084852814
20
0.14027922
30
0
70
32
0
VERTEX
8
0
62
5
10
0.11313708
20
0.13070383
30
0
70
32
0
SEQEND
8
0
0
POLYLINE
8
0
62
30
66
1
10
0
20
0
30
0
70
8
0
VERTEX
8
0
62
30
10
0
20
0.12064112
30
0
70
32
0
VERTEX
8
0
62
30
10
0.11313708
20
0.12064112
30
0
70
32
0
SEQEND
8
0
0
POLYLINE
8
0
62
30
66
1
10
0
20
0
30
0
70
8
0
VERTEX
8
0
62
30
10
0.028284271
20
0.12064112
30
0
70
32
0
VERTEX
8
0
62
30
10
0.028284271
20
0.12064112
30
0
70
32
0
SEQEND
8
0
0
POLYLINE
8
0
62
30
66
1
10
0
20
0
30
0
70
8
0
VERTEX
8
0
62
30
10
0.056568542
20
0.11106573
30
0
70
32
0
VERTEX
8
0
62
30
10
0.056568542
20
0.12064112
30
0
70
32
0
SEQEND
8
0
0
POLYLINE
8
0
62
30
66
1
10
0
20
0
30
0
70
8
0
VERTEX
8
0
62
30
10
0.084852814
20
0.10100302
30
0
70
32
0
VERTEX
8
0
62
30
10
0.084852814
20
0.12064112
30
0
70
32
0
SEQEND
8
0
0
POLYLINE
8
0
62
5
66
1
10
0
20
0
30
0
70
8
0
VERTEX
8
0
62
5
10
0.028284271
20
0.101
30
0
70
32
0
VERTEX
8
0
62
5
10
0.028284271
20
0.12064112
30
0
70
32
0
SEQEND
8
0
0
POLYLINE
8
0
62
5
66
1
10
0
20
0
30
0
70
8
0
VERTEX
8
0
62
5
10
0.056568542
20
0.101
30
0
70
32
0
VERTEX
8
0
62
5
10
0.056568542
20
0.11106573
30
0
70
32
0
SEQEND
8
0
0
POLYLINE
8
0
62
5
66
1
10
0
20
0
30
0
70
8
0
VERTEX
8
0
62
5
10
0.084852814
20
0.101
30
0
70
32
0
VERTEX
8
0
62
5
10
0.084852814
20
0.10100302
30
0
70
32
0
SEQEND
8
0
0
POLYLINE
8
0
62
5
66
1
10
0
20
0
30
0
70
8
0
VERTEX
8
0
62
5
10
0.028284271
20
0.12064112
30
0
70
32
0
VERTEX
8
0
62
5
10
0.028284271
20
0.14028225
30
0
70
32
0
SEQEND
8
0
0
POLYLINE
8
0
62
5
66
1
10
0
20
0
30
0
70
8
0
VERTEX
8
0
62
5
10
0.056568542
20
0.12064112
30
0
70
32
0
VERTEX
8
0
62
5
10
0.056568542
20
0.14028225
30
0
70
32
0
SEQEND
8
0
0
POLYLINE
8
0
62
5
66
1
10
0
20
0
30
0
70
8
0
VERTEX
8
0
62
5
10
0.084852814
20
0.12064112
30
0
70
32
0
VERTEX
8
0
62
5
10
0.084852814
20
0.14028225
30
0
70
32
0
SEQEND
8
0
0
POLYLINE
8
0
62
5
66
1
10
0
20
0
30
0
70
8
0
VERTEX
8
0
62
5
10
0.22627417
20
0.14028225
30
0
70
32
0
VERTEX
8
0
62
5
10
0.22627417
20
0.101
30
0
70
32
0
SEQEND
8
0
0
POLYLINE
8
0
62
5
66
1
10
0
20
0
30
0
70
8
0
VERTEX
8
0
62
5
10
0.11313708
20
0.11057842
30
0
70
32
0
VERTEX
8
0
62
5
10
0.14142136
20
0.12064112
30
0
70
32
0
VERTEX
8
0
62
5
10
0.16970563
20
0.11106573
30
0
70
32
0
VERTEX
8
0
62
5
10
0.1979899
20
0.10100302
30
0
70
32
0
VERTEX
8
0
62
5
10
0.22627417
20
0.11057842
30
0
70
32
0
SEQEND
8
0
0
POLYLINE
8
0
62
5
66
1
10
0
20
0
30
0
70
8
0
SEQEND
8
0
0
POLYLINE
8
0
62
5
66
1
10
0
20
0
30
0
70
8
0
VERTEX
8
0
62
5
10
0.11313708
20
0.13070383
30
0
70
32
0
VERTEX
8
0
62
5
10
0.14142136
20
0.12064112
30
0
70
32
0
VERTEX
8
0
62
5
10
0.16970563
20
0.13021652
30
0
70
32
0
VERTEX
8
0
62
5
10
0.1979899
20
0.14027922
30
0
70
32
0
VERTEX
8
0
62
5
10
0.22627417
20
0.13070383
30
0
70
32
0
SEQEND
8
0
0
POLYLINE
8
0
62
30
66
1
10
0
20
0
30
0
70
8
0
VERTEX
8
0
62
30
10
0.11313708
20
0.12064112
30
0
70
32
0
VERTEX
8
0
62
30
10
0.22627417
20
0.12064112
30
0
70
32
0
SEQEND
8
0
0
POLYLINE
8
0
62
30
66
1
10
0
20
0
30
0
70
8
0
VERTEX
8
0
62
30
10
0.14142136
20
0.12064112
30
0
70
32
0
VERTEX
8
0
62
30
10
0.14142136
20
0.12064112
30
0
70
32
0
SEQEND
8
0
0
POLYLINE
8
0
62
30
66
1
10
0
20
0
30
0
70
8
0
VERTEX
8
0
62
30
10
0.16970563
20
0.11106573
30
0
70
32
0
VERTEX
8
0
62
30
10
0.16970563
20
0.12064112
30
0
70
32
0
SEQEND
8
0
0
POLYLINE
8
0
62
30
66
1
10
0
20
0
30
0
70
8
0
VERTEX
8
0
62
30
10
0.1979899
20
0.10100302
30
0
70
32
0
VERTEX
8
0
62
30
10
0.1979899
20
0.12064112
30
0
70
32
0
SEQEND
8
0
0
POLYLINE
8
0
62
5
66
1
10
0
20
0
30
0
70
8
0
VERTEX
8
0
62
5
10
0.14142136
20
0.101
30
0
70
32
0
VERTEX
8
0
62
5
10
0.14142136
20
0.12064112
30
0
70
32
0
SEQEND
8
0
0
POLYLINE
8
0
62
5
66
1
10
0
20
0
30
0
70
8
0
VERTEX
8
0
62
5
10
0.16970563
20
0.101
30
0
70
32
0
VERTEX
8
0
62
5
10
0.16970563
20
0.11106573
30
0
70
32
0
SEQEND
8
0
0
POLYLINE
8
0
62
5
66
1
10
0
20
0
30
0
70
8
0
VERTEX
8
0
62
5
10
0.1979899
20
0.101
30
0
70
32
0
VERTEX
8
0
62
5
10
0.1979899
20
0.10100302
30
0
70
32
0
SEQEND
8
0
0
POLYLINE
8
0
62
5
66
1
10
0
20
0
30
0
70
8
0
VERTEX
8
0
62
5
10
0.14142136
20
0.12064112
30
0
70
32
0
VERTEX
8
0
62
5
10
0.14142136
20
0.14028225
30
0
70
32
0
SEQEND
8
0
0
POLYLINE
8
0
62
5
66
1
10
0
20
0
30
0
70
8
0
VERTEX
8
0
62
5
10
0.16970563
20
0.12064112
30
0
70
32
0
VERTEX
8
0
62
5
10
0.16970563
20
0.14028225
30
0
70
32
0
SEQEND
8
0
0
POLYLINE
8
0
62
5
66
1
10
0
20
0
30
0
70
8
0
VERTEX
8
0
62
5
10
0.1979899
20
0.12064112
30
0
70
32
0
VERTEX
8
0
62
5
10
0.1979899
20
0.14028225
30
0
70
32
0
SEQEND
8
0
0
POLYLINE
8
0
62
5
66
1
10
0
20
0
30
0
70
8
0
VERTEX
8
0
62
5
10
-0.11313708
20
0.101
30
0
70
32
0
VERTEX
8
0
62
5
10
-0.11313708
20
0.14028225
30
0
70
32
0
SEQEND
8
0
0
POLYLINE
8
0
62
5
66
1
10
0
20
0
30
0
70
8
0
VERTEX
8
0
62
5
10
-0.11313708
20
0.11057842
30
0
70
32
0
VERTEX
8
0
62
5
10
-0.084852814
20
0.12064112
30
0
70
32
0
VERTEX
8
0
62
5
10
-0.056568542
20
0.11106573
30
0
70
32
0
VERTEX
8
0
62
5
10
-0.028284271
20
0.10100302
30
0
70
32
0
VERTEX
8
0
62
5
10
0
20
0.11057842
30
0
70
32
0
SEQEND
8
0
0
POLYLINE
8
0
62
5
66
1
10
0
20
0
30
0
70
8
0
SEQEND
8
0
0
POLYLINE
8
0
62
5
66
1
10
0
20
0
30
0
70
8
0
VERTEX
8
0
62
5
10
-0.11313708
20
0.13070383
30
0
70
32
0
VERTEX
8
0
62
5
10
-0.084852814
20
0.12064112
30
0
70
32
0
VERTEX
8
0
62
5
10
-0.056568542
20
0.13021652
30
0
70
32
0
VERTEX
8
0
62
5
10
-0.028284271
20
0.14027922
30
0
70
32
0
VERTEX
8
0
62
5
10
0
20
0.13070383
30
0
70
32
0
SEQEND
8
0
0
POLYLINE
8
0
62
30
66
1
10
0
20
0
30
0
70
8
0
VERTEX
8
0
62
30
10
-0.11313708
20
0.12064112
30
0
70
32
0
VERTEX
8
0
62
30
10
0
20
0.12064112
30
0
70
32
0
SEQEND
8
0
0
POLYLINE
8
0
62
30
66
1
10
0
20
0
30
0
70
8
0
VERTEX
8
0
62
30
10
-0.084852814
20
0.12064112
30
0
70
32
0
VERTEX
8
0
62
30
10
-0.084852814
20
0.12064112
30
0
70
32
0
SEQEND
8
0
0
POLYLINE
8
0
62
30
66
1
10
0
20
0
30
0
70
8
0
VERTEX
8
0
62
30
10
-0.056568542
20
0.11106573
30
0
70
32
0
VERTEX
8
0
62
30
10
-0.056568542
20
0.12064112
30
0
70
32
0
SEQEND
8
0
0
POLYLINE
8
0
62
30
66
1
10
0
20
0
30
0
70
8
0
VERTEX
8
0
62
30
10
-0.028284271
20
0.10100302
30
0
70
32
0
VERTEX
8
0
62
30
10
-0.028284271
20
0.12064112
30
0
70
32
0
SEQEND
8
0
0
POLYLINE
8
0
62
5
66
1
10
0
20
0
30
0
70
8
0
VERTEX
8
0
62
5
10
-0.084852814
20
0.101
30
0
70
32
0
VERTEX
8
0
62
5
10
-0.084852814
20
0.12064112
30
0
70
32
0
SEQEND
8
0
0
POLYLINE
8
0
62
5
66
1
10
0
20
0
30
0
70
8
0
VERTEX
8
0
62
5
10
-0.056568542
20
0.101
30
0
70
32
0
VERTEX
8
0
62
5
10
-0.056568542
20
0.11106573
30
0
70
32
0
SEQEND
8
0
0
POLYLINE
8
0
62
5
66
1
10
0
20
0
30
0
70
8
0
VERTEX
8
0
62
5
10
-0.028284271
20
0.101
30
0
70
32
0
VERTEX
8
0
62
5
10
-0.028284271
20
0.10100302
30
0
70
32
0
SEQEND
8
0
0
POLYLINE
8
0
62
5
66
1
10
0
20
0
30
0
70
8
0
VERTEX
8
0
62
5
10
-0.084852814
20
0.12064112
30
0
70
32
0
VERTEX
8
0
62
5
10
-0.084852814
20
0.14028225
30
0
70
32
0
SEQEND
8
0
0
POLYLINE
8
0
62
5
66
1
10
0
20
0
30
0
70
8
0
VERTEX
8
0
62
5
10
-0.056568542
20
0.12064112
30
0
70
32
0
VERTEX
8
0
62
5
10
-0.056568542
20
0.14028225
30
0
70
32
0
SEQEND
8
0
0
POLYLINE
8
0
62
5
66
1
10
0
20
0
30
0
70
8
0
VERTEX
8
0
62
5
10
-0.028284271
20
0.12064112
30
0
70
32
0
VERTEX
8
0
62
5
10
-0.028284271
20
0.14028225
30
0
70
32
0
SEQEND
8
0
0
POLYLINE
8
0
62
30
66
1
10
0
20
0
30
0
70
8
0
VERTEX
8
0
62
30
10
0
20
0.15057771
30
0
70
32
0
VERTEX
8
0
62
30
10
0.11313708
20
0.15057771
30
0
70
32
0
SEQEND
8
0
0
POLYLINE
8
0
62
30
66
1
10
0
20
0
30
0
70
8
0
VERTEX
8
0
62
30
10
0
20
0.14028225
30
0
70
32
0
VERTEX
8
0
62
30
10
0.11313708
20
0.14028225
30
0
70
32
0
SEQEND
8
0
0
POLYLINE
8
0
62
5
66
1
10
0
20
0
30
0
70
8
0
VERTEX
8
0
62
5
10
0
20
0.14028225
30
0
70
32
0
VERTEX
8
0
62
5
10
0.017767509
20
0.15057771
30
0
70
32
0
VERTEX
8
0
62
5
10
0.028284271
20
0.14028225
30
0
70
32
0
VERTEX
8
0
62
5
10
0.04605178
20
0.15057771
30
0
70
32
0
VERTEX
8
0
62
5
10
0.056568542
20
0.14028225
30
0
70
32
0
VERTEX
8
0
62
5
10
0.074336051
20
0.15057771
30
0
70
32
0
VERTEX
8
0
62
5
10
0.084852814
20
0.14028225
30
0
70
32
0
VERTEX
8
0
62
5
10
0.10262032
20
0.15057771
30
0
70
32
0
VERTEX
8
0
62
5
10
0.11313708
20
0.14028225
30
0
70
32
0
SEQEND
8
0
0
POLYLINE
8
0
62
5
66
1
10
0
20
0
30
0
70
8
0
VERTEX
8
0
62
5
10
0.028284271
20
0.14028225
30
0
70
32
0
VERTEX
8
0
62
5
10
0.028284271
20
0.14028225
30
0
70
32
0
SEQEND
8
0
0
POLYLINE
8
0
62
5
66
1
10
0
20
0
30
0
70
8
0
VERTEX
8
0
62
5
10
0.056568542
20
0.14028225
30
0
70
32
0
VERTEX
8
0
62
5
10
0.056568542
20
0.14028225
30
0
70
32
0
SEQEND
8
0
0
POLYLINE
8
0
62
5
66
1
10
0
20
0
30
0
70
8
0
VERTEX
8
0
62
5
10
0.084852814
20
0.14028225
30
0
70
32
0
VERTEX
8
0
62
5
10
0.084852814
20
0.14028225
30
0
70
32
0
SEQEND
8
0
0
POLYLINE
8
0
62
5
66
1
10
0
20
0
30
0
70
8
0
VERTEX
8
0
62
5
10
0.017767509
20
0.15057771
30
0
70
32
0
VERTEX
8
0
62
5
10
0.017767509
20
0.15057771
30
0
70
32
0
SEQEND
8
0
0
POLYLINE
8
0
62
5
66
1
10
0
20
0
30
0
70
8
0
VERTEX
8
0
62
5
10
0.04605178
20
0.15057771
30
0
70
32
0
VERTEX
8
0
62
5
10
0.04605178
20
0.15057771
30
0
70
32
0
SEQEND
8
0
0
POLYLINE
8
0
62
5
66
1
10
0
20
0
30
0
70
8
0
VERTEX
8
0
62
5
10
0.074336051
20
0.15057771
30
0
70
32
0
VERTEX
8
0
62
5
10
0.074336051
20
0.15057771
30
0
70
32
0
SEQEND
8
0
0
POLYLINE
8
0
62
5
66
1
10
0
20
0
30
0
70
8
0
VERTEX
8
0
62
5
10
0.10262032
20
0.15057771
30
0
70
32
0
VERTEX
8
0
62
5
10
0.10262032
20
0.15057771
30
0
70
32
0
SEQEND
8
0
0
POLYLINE
8
0
62
30
66
1
10
0
20
0
30
0
70
8
0
VERTEX
8
0
62
30
10
0.11313708
20
0.15057771
30
0
70
32
0
VERTEX
8
0
62
30
10
0.22627417
20
0.15057771
30
0
70
32
0
SEQEND
8
0
0
POLYLINE
8
0
62
30
66
1
10
0
20
0
30
0
70
8
0
VERTEX
8
0
62
30
10
0.11313708
20
0.14028225
30
0
70
32
0
VERTEX
8
0
62
30
10
0.22627417
20
0.14028225
30
0
70
32
0
SEQEND
8
0
0
POLYLINE
8
0
62
5
66
1
10
0
20
0
30
0
70
8
0
VERTEX
8
0
62
5
10
0.11313708
20
0.14028225
30
0
70
32
0
VERTEX
8
0
62
5
10
0.13090459
20
0.15057771
30
0
70
32
0
VERTEX
8
0
62
5
10
0.14142136
20
0.14028225
30
0
70
32
0
VERTEX
8
0
62
5
10
0.15918887
20
0.15057771
30
0
70
32
0
VERTEX
8
0
62
5
10
0.16970563
20
0.14028225
30
0
70
32
0
VERTEX
8
0
62
5
10
0.18747314
20
0.15057771
30
0
70
32
0
VERTEX
8
0
62
5
10
0.1979899
20
0.14028225
30
0
70
32
0
VERTEX
8
0
62
5
10
0.21575741
20
0.15057771
30
0
70
32
0
VERTEX
8
0
62
5
10
0.22627417
20
0.14028225
30
0
70
32
0
SEQEND
8
0
0
POLYLINE
8
0
62
5
66
1
10
0
20
0
30
0
70
8
0
VERTEX
8
0
62
5
10
0.14142136
20
0.14028225
30
0
70
32
0
VERTEX
8
0
62
5
10
0.14142136
20
0.14028225
30
0
70
32
0
SEQEND
8
0
0
POLYLINE
8
0
62
5
66
1
10
0
20
0
30
0
70
8
0
VERTEX
8
0
62
5
10
0.16970563
20
0.14028225
30
0
70
32
0
VERTEX
8
0
62
5
10
0.16970563
20
0.14028225
30
0
70
32
0
SEQEND
8
0
0
POLYLINE
8
0
62
5
66
1
10
0
20
0
30
0
70
8
0
VERTEX
8
0
62
5
10
0.1979899
20
0.14028225
30
0
70
32
0
VERTEX
8
0
62
5
10
0.1979899
20
0.14028225
30
0
70
32
0
SEQEND
8
0
0
POLYLINE
8
0
62
5
66
1
10
0
20
0
30
0
70
8
0
VERTEX
8
0
62
5
10
0.13090459
20
0.15057771
30
0
70
32
0
VERTEX
8
0
62
5
10
0.13090459
20
0.15057771
30
0
70
32
0
SEQEND
8
0
0
POLYLINE
8
0
62
5
66
1
10
0
20
0
30
0
70
8
0
VERTEX
8
0
62
5
10
0.15918887
20
0.15057771
30
0
70
32
0
VERTEX
8
0
62
5
10
0.15918887
20
0.15057771
30
0
70
32
0
SEQEND
8
0
0
POLYLINE
8
0
62
5
66
1
10
0
20
0
30
0
70
8
0
VERTEX
8
0
62
5
10
0.18747314
20
0.15057771
30
0
70
32
0
VERTEX
8
0
62
5
10
0.18747314
20
0.15057771
30
0
70
32
0
SEQEND
8
0
0
POLYLINE
8
0
62
5
66
1
10
0
20
0
30
0
70
8
0
VERTEX
8
0
62
5
10
0.21575741
20
0.15057771
30
0
70
32
0
VERTEX
8
0
62
5
10
0.21575741
20
0.15057771
30
0
70
32
0
SEQEND
8
0
0
POLYLINE
8
0
62
30
66
1
10
0
20
0
30
0
70
8
0
VERTEX
8
0
62
30
10
-0.11313708
20
0.15057771
30
0
70
32
0
VERTEX
8
0
62
30
10
0
20
0.15057771
30
0
70
32
0
SEQEND
8
0
0
POLYLINE
8
0
62
30
66
1
10
0
20
0
30
0
70
8
0
VERTEX
8
0
62
30
10
-0.11313708
20
0.14028225
30
0
70
32
0
VERTEX
8
0
62
30
10
0
20
0.14028225
30
0
70
32
0
SEQEND
8
0
0
POLYLINE
8
0
62
5
66
1
10
0
20
0
30
0
70
8
0
VERTEX
8
0
62
5
10
-0.11313708
20
0.14028225
30
0
70
32
0
VERTEX
8
0
62
5
10
-0.095369576
20
0.15057771
30
0
70
32
0
VERTEX
8
0
62
5
10
-0.084852814
20
0.14028225
30
0
70
32
0
VERTEX
8
0
62
5
10
-0.067085305
20
0.15057771
30
0
70
32
0
VERTEX
8
0
62
5
10
-0.056568542
20
0.14028225
30
0
70
32
0
VERTEX
8
0
62
5
10
-0.038801034
20
0.15057771
30
0
70
32
0
VERTEX
8
0
62
5
10
-0.028284271
20
0.14028225
30
0
70
32
0
VERTEX
8
0
62
5
10
-0.010516762
20
0.15057771
30
0
70
32
0
VERTEX
8
0
62
5
10
0
20
0.14028225
30
0
70
32
0
SEQEND
8
0
0
POLYLINE
8
0
62
5
66
1
10
0
20
0
30
0
70
8
0
VERTEX
8
0
62
5
10
-0.084852814
20
0.14028225
30
0
70
32
0
VERTEX
8
0
62
5
10
-0.084852814
20
0.14028225
30
0
70
32
0
SEQEND
8
0
0
POLYLINE
8
0
62
5
66
1
10
0
20
0
30
0
70
8
0
VERTEX
8
0
62
5
10
-0.056568542
20
0.14028225
30
0
70
32
0
VERTEX
8
0
62
5
10
-0.056568542
20
0.14028225
30
0
70
32
0
SEQEND
8
0
0
POLYLINE
8
0
62
5
66
1
10
0
20
0
30
0
70
8
0
VERTEX
8
0
62
5
10
-0.028284271
20
0.14028225
30
0
70
32
0
VERTEX
8
0
62
5
10
-0.028284271
20
0.14028225
30
0
70
32
0
SEQEND
8
0
0
POLYLINE
8
0
62
5
66
1
10
0
20
0
30
0
70
8
0
VERTEX
8
0
62
5
10
-0.095369576
20
0.15057771
30
0
70
32
0
VERTEX
8
0
62
5
10
-0.095369576
20
0.15057771
30
0
70
32
0
SEQEND
8
0
0
POLYLINE
8
0
62
5
66
1
10
0
20
0
30
0
70
8
0
VERTEX
8
0
62
5
10
-0.067085305
20
0.15057771
30
0
70
32
0
VERTEX
8
0
62
5
10
-0.067085305
20
0.15057771
30
0
70
32
0
SEQEND
8
0
0
POLYLINE
8
0
62
5
66
1
10
0
20
0
30
0
70
8
0
VERTEX
8
0
62
5
10
-0.038801034
20
0.15057771
30
0
70
32
0
VERTEX
8
0
62
5
10
-0.038801034
20
0.15057771
30
0
70
32
0
SEQEND
8
0
0
POLYLINE
8
0
62
5
66
1
10
0
20
0
30
0
70
8
0
VERTEX
8
0
62
5
10
-0.010516762
20
0.15057771
30
0
70
32
0
VERTEX
8
0
62
5
10
-0.010516762
20
0.15057771
30
0
70
32
0
SEQEND
8
0
0
POLYLINE
8
0
62
5
66
1
10
0
20
0
30
0
70
8
0
VERTEX
8
0
62
5
10
0.017767509
20
0.15057771
30
0
70
32
0
VERTEX
8
0
62
5
10
0.017767509
20
0.18532341
30
0
70
32
0
SEQEND
8
0
0
POLYLINE
8
0
62
5
66
1
10
0
20
0
30
0
70
8
0
VERTEX
8
0
62
5
10
0.13090459
20
0.15057771
30
0
70
32
0
VERTEX
8
0
62
5
10
0.13090459
20
0.18532341
30
0
70
32
0
SEQEND
8
0
0
POLYLINE
8
0
62
5
66
1
10
0
20
0
30
0
70
8
0
VERTEX
8
0
62
5
10
0.04605178
20
0.15057771
30
0
70
32
0
VERTEX
8
0
62
5
10
0.04605178
20
0.18532341
30
0
70
32
0
SEQEND
8
0
0
POLYLINE
8
0
62
5
66
1
10
0
20
0
30
0
70
8
0
VERTEX
8
0
62
5
10
0.074336051
20
0.15057771
30
0
70
32
0
VERTEX
8
0
62
5
10
0.074336051
20
0.18532341
30
0
70
32
0
SEQEND
8
0
0
POLYLINE
8
0
62
5
66
1
10
0
20
0
30
0
70
8
0
VERTEX
8
0
62
5
10
0.10262032
20
0.15057771
30
0
70
32
0
VERTEX
8
0
62
5
10
0.10262032
20
0.18532341
30
0
70
32
0
SEQEND
8
0
0
POLYLINE
8
0
62
5
66
1
10
0
20
0
30
0
70
8
0
VERTEX
8
0
62
5
10
0.24404168
20
0.15057771
30
0
70
32
0
VERTEX
8
0
62
5
10
0.24404168
20
0.18532341
30
0
70
32
0
SEQEND
8
0
0
POLYLINE
8
0
62
5
66
1
10
0
20
0
30
0
70
8
0
VERTEX
8
0
62
5
10
0.15918887
20
0.15057771
30
0
70
32
0
VERTEX
8
0
62
5
10
0.15918887
20
0.18532341
30
0
70
32
0
SEQEND
8
0
0
POLYLINE
8
0
62
5
66
1
10
0
20
0
30
0
70
8
0
VERTEX
8
0
62
5
10
0.18747314
20
0.15057771
30
0
70
32
0
VERTEX
8
0
62
5
10
0.18747314
20
0.18532341
30
0
70
32
0
SEQEND
8
0
0
POLYLINE
8
0
62
5
66
1
10
0
20
0
30
0
70
8
0
VERTEX
8
0
62
5
10
0.21575741
20
0.15057771
30
0
70
32
0
VERTEX
8
0
62
5
10
0.21575741
20
0.18532341
30
0
70
32
0
SEQEND
8
0
0
POLYLINE
8
0
62
5
66
1
10
0
20
0
30
0
70
8
0
VERTEX
8
0
62
5
10
-0.095369576
20
0.15057771
30
0
70
32
0
VERTEX
8
0
62
5
10
-0.095369576
20
0.18532341
30
0
70
32
0
SEQEND
8
0
0
POLYLINE
8
0
62
5
66
1
10
0
20
0
30
0
70
8
0
VERTEX
8
0
62
5
10
-0.067085305
20
0.15057771
30
0
70
32
0
VERTEX
8
0
62
5
10
-0.067085305
20
0.18532341
30
0
70
32
0
SEQEND
8
0
0
POLYLINE
8
0
62
5
66
1
10
0
20
0
30
0
70
8
0
VERTEX
8
0
62
5
10
-0.038801034
20
0.15057771
30
0
70
32
0
VERTEX
8
0
62
5
10
-0.038801034
20
0.18532341
30
0
70
32
0
SEQEND
8
0
0
POLYLINE
8
0
62
5
66
1
10
0
20
0
30
0
70
8
0
VERTEX
8
0
62
5
10
-0.010516762
20
0.15057771
30
0
70
32
0
VERTEX
8
0
62
5
10
-0.010516762
20
0.18532341
30
0
70
32
0
SEQEND
8
0
0
POLYLINE
8
0
62
5
66
1
10
0
20
0
30
0
70
8
0
VERTEX
8
0
62
5
10
0.017767509
20
0.18532341
30
0
70
32
0
VERTEX
8
0
62
5
10
0.017767509
20
0.28231532
30
0
70
32
0
SEQEND
8
0
0
POLYLINE
8
0
62
5
66
1
10
0
20
0
30
0
70
8
0
VERTEX
8
0
62
5
10
0.13090459
20
0.28231532
30
0
70
32
0
VERTEX
8
0
62
5
10
0.13090459
20
0.18532341
30
0
70
32
0
SEQEND
8
0
0
POLYLINE
8
0
62
5
66
1
10
0
20
0
30
0
70
8
0
VERTEX
8
0
62
5
10
0.017767509
20
0.19814677
30
0
70
32
0
VERTEX
8
0
62
5
10
0.04605178
20
0.18534302
30
0
70
32
0
VERTEX
8
0
62
5
10
0.074336051
20
0.19676764
30
0
70
32
0
VERTEX
8
0
62
5
10
0.10262032
20
0.20957139
30
0
70
32
0
VERTEX
8
0
62
5
10
0.13090459
20
0.19814677
30
0
70
32
0
SEQEND
8
0
0
POLYLINE
8
0
62
5
66
1
10
0
20
0
30
0
70
8
0
VERTEX
8
0
62
5
10
0.017767509
20
0.24664272
30
0
70
32
0
VERTEX
8
0
62
5
10
0.04605178
20
0.23383897
30
0
70
32
0
VERTEX
8
0
62
5
10
0.074336051
20
0.24526359
30
0
70
32
0
VERTEX
8
0
62
5
10
0.10262032
20
0.25806734
30
0
70
32
0
VERTEX
8
0
62
5
10
0.13090459
20
0.24664272
30
0
70
32
0
SEQEND
8
0
0
POLYLINE
8
0
62
5
66
1
10
0
20
0
30
0
70
8
0
VERTEX
8
0
62
5
10
0.017767509
20
0.22099601
30
0
70
32
0
VERTEX
8
0
62
5
10
0.04605178
20
0.23379975
30
0
70
32
0
VERTEX
8
0
62
5
10
0.074336051
20
0.22237514
30
0
70
32
0
VERTEX
8
0
62
5
10
0.10262032
20
0.20957139
30
0
70
32
0
VERTEX
8
0
62
5
10
0.13090459
20
0.22099601
30
0
70
32
0
SEQEND
8
0
0
POLYLINE
8
0
62
5
66
1
10
0
20
0
30
0
70
8
0
VERTEX
8
0
62
5
10
0.017767509
20
0.26949196
30
0
70
32
0
VERTEX
8
0
62
5
10
0.04605178
20
0.28229571
30
0
70
32
0
VERTEX
8
0
62
5
10
0.074336051
20
0.27087109
30
0
70
32
0
VERTEX
8
0
62
5
10
0.10262032
20
0.25806734
30
0
70
32
0
VERTEX
8
0
62
5
10
0.13090459
20
0.26949196
30
0
70
32
0
SEQEND
8
0
0
POLYLINE
8
0
62
30
66
1
10
0
20
0
30
0
70
8
0
VERTEX
8
0
62
30
10
0.017767509
20
0.20957139
30
0
70
32
0
VERTEX
8
0
62
30
10
0.13090459
20
0.20957139
30
0
70
32
0
SEQEND
8
0
0
POLYLINE
8
0
62
30
66
1
10
0
20
0
30
0
70
8
0
VERTEX
8
0
62
30
10
0.017767509
20
0.25806734
30
0
70
32
0
VERTEX
8
0
62
30
10
0.13090459
20
0.25806734
30
0
70
32
0
SEQEND
8
0
0
POLYLINE
8
0
62
30
66
1
10
0
20
0
30
0
70
8
0
VERTEX
8
0
62
30
10
0.04605178
20
0.18534302
30
0
70
32
0
VERTEX
8
0
62
30
10
0.04605178
20
0.20957139
30
0
70
32
0
SEQEND
8
0
0
POLYLINE
8
0
62
30
66
1
10
0
20
0
30
0
70
8
0
VERTEX
8
0
62
30
10
0.074336051
20
0.19676764
30
0
70
32
0
VERTEX
8
0
62
30
10
0.074336051
20
0.20957139
30
0
70
32
0
SEQEND
8
0
0
POLYLINE
8
0
62
30
66
1
10
0
20
0
30
0
70
8
0
VERTEX
8
0
62
30
10
0.10262032
20
0.20957139
30
0
70
32
0
VERTEX
8
0
62
30
10
0.10262032
20
0.20957139
30
0
70
32
0
SEQEND
8
0
0
POLYLINE
8
0
62
30
66
1
10
0
20
0
30
0
70
8
0
VERTEX
8
0
62
30
10
0.04605178
20
0.23383897
30
0
70
32
0
VERTEX
8
0
62
30
10
0.04605178
20
0.25806734
30
0
70
32
0
SEQEND
8
0
0
POLYLINE
8
0
62
30
66
1
10
0
20
0
30
0
70
8
0
VERTEX
8
0
62
30
10
0.074336051
20
0.24526359
30
0
70
32
0
VERTEX
8
0
62
30
10
0.074336051
20
0.25806734
30
0
70
32
0
SEQEND
8
0
0
POLYLINE
8
0
62
30
66
1
10
0
20
0
30
0
70
8
0
VERTEX
8
0
62
30
10
0.10262032
20
0.25806734
30
0
70
32
0
VERTEX
8
0
62
30
10
0.10262032
20
0.25806734
30
0
70
32
0
SEQEND
8
0
0
POLYLINE
8
0
62
5
66
1
10
0
20
0
30
0
70
8
0
VERTEX
8
0
62
5
10
0.04605178
20
0.18532341
30
0
70
32
0
VERTEX
8
0
62
5
10
0.04605178
20
0.18534302
30
0
70
32
0
SEQEND
8
0
0
POLYLINE
8
0
62
5
66
1
10
0
20
0
30
0
70
8
0
VERTEX
8
0
62
5
10
0.074336051
20
0.18532341
30
0
70
32
0
VERTEX
8
0
62
5
10
0.074336051
20
0.19676764
30
0
70
32
0
SEQEND
8
0
0
POLYLINE
8
0
62
5
66
1
10
0
20
0
30
0
70
8
0
VERTEX
8
0
62
5
10
0.10262032
20
0.18532341
30
0
70
32
0
VERTEX
8
0
62
5
10
0.10262032
20
0.20957139
30
0
70
32
0
SEQEND
8
0
0
POLYLINE
8
0
62
5
66
1
10
0
20
0
30
0
70
8
0
VERTEX
8
0
62
5
10
0.04605178
20
0.23381936
30
0
70
32
0
VERTEX
8
0
62
5
10
0.04605178
20
0.23383897
30
0
70
32
0
SEQEND
8
0
0
POLYLINE
8
0
62
5
66
1
10
0
20
0
30
0
70
8
0
VERTEX
8
0
62
5
10
0.074336051
20
0.23381936
30
0
70
32
0
VERTEX
8
0
62
5
10
0.074336051
20
0.24526359
30
0
70
32
0
SEQEND
8
0
0
POLYLINE
8
0
62
5
66
1
10
0
20
0
30
0
70
8
0
VERTEX
8
0
62
5
10
0.10262032
20
0.23381936
30
0
70
32
0
VERTEX
8
0
62
5
10
0.10262032
20
0.25806734
30
0
70
32
0
SEQEND
8
0
0
POLYLINE
8
0
62
5
66
1
10
0
20
0
30
0
70
8
0
VERTEX
8
0
62
5
10
0.04605178
20
0.20957139
30
0
70
32
0
VERTEX
8
0
62
5
10
0.04605178
20
0.23381936
30
0
70
32
0
SEQEND
8
0
0
POLYLINE
8
0
62
5
66
1
10
0
20
0
30
0
70
8
0
VERTEX
8
0
62
5
10
0.074336051
20
0.20957139
30
0
70
32
0
VERTEX
8
0
62
5
10
0.074336051
20
0.23381936
30
0
70
32
0
SEQEND
8
0
0
POLYLINE
8
0
62
5
66
1
10
0
20
0
30
0
70
8
0
VERTEX
8
0
62
5
10
0.10262032
20
0.20957139
30
0
70
32
0
VERTEX
8
0
62
5
10
0.10262032
20
0.23381936
30
0
70
32
0
SEQEND
8
0
0
POLYLINE
8
0
62
5
66
1
10
0
20
0
30
0
70
8
0
VERTEX
8
0
62
5
10
0.04605178
20
0.25806734
30
0
70
32
0
VERTEX
8
0
62
5
10
0.04605178
20
0.28231532
30
0
70
32
0
SEQEND
8
0
0
POLYLINE
8
0
62
5
66
1
10
0
20
0
30
0
70
8
0
VERTEX
8
0
62
5
10
0.074336051
20
0.25806734
30
0
70
32
0
VERTEX
8
0
62
5
10
0.074336051
20
0.28231532
30
0
70
32
0
SEQEND
8
0
0
POLYLINE
8
0
62
5
66
1
10
0
20
0
30
0
70
8
0
VERTEX
8
0
62
5
10
0.10262032
20
0.25806734
30
0
70
32
0
VERTEX
8
0
62
5
10
0.10262032
20
0.28231532
30
0
70
32
0
SEQEND
8
0
0
POLYLINE
8
0
62
5
66
1
10
0
20
0
30
0
70
8
0
VERTEX
8
0
62
5
10
0.24404168
20
0.28231532
30
0
70
32
0
VERTEX
8
0
62
5
10
0.24404168
20
0.18532341
30
0
70
32
0
SEQEND
8
0
0
POLYLINE
8
0
62
5
66
1
10
0
20
0
30
0
70
8
0
VERTEX
8
0
62
5
10
0.13090459
20
0.19814677
30
0
70
32
0
VERTEX
8
0
62
5
10
0.15918887
20
0.18534302
30
0
70
32
0
VERTEX
8
0
62
5
10
0.18747314
20
0.19676764
30
0
70
32
0
VERTEX
8
0
62
5
10
0.21575741
20
0.20957139
30
0
70
32
0
VERTEX
8
0
62
5
10
0.24404168
20
0.19814677
30
0
70
32
0
SEQEND
8
0
0
POLYLINE
8
0
62
5
66
1
10
0
20
0
30
0
70
8
0
VERTEX
8
0
62
5
10
0.13090459
20
0.24664272
30
0
70
32
0
VERTEX
8
0
62
5
10
0.15918887
20
0.23383897
30
0
70
32
0
VERTEX
8
0
62
5
10
0.18747314
20
0.24526359
30
0
70
32
0
VERTEX
8
0
62
5
10
0.21575741
20
0.25806734
30
0
70
32
0
VERTEX
8
0
62
5
10
0.24404168
20
0.24664272
30
0
70
32
0
SEQEND
8
0
0
POLYLINE
8
0
62
5
66
1
10
0
20
0
30
0
70
8
0
VERTEX
8
0
62
5
10
0.13090459
20
0.22099601
30
0
70
32
0
VERTEX
8
0
62
5
10
0.15918887
20
0.23379975
30
0
70
32
0
VERTEX
8
0
62
5
10
0.18747314
20
0.22237514
30
0
70
32
0
VERTEX
8
0
62
5
10
0.21575741
20
0.20957139
30
0
70
32
0
VERTEX
8
0
62
5
10
0.24404168
20
0.22099601
30
0
70
32
0
SEQEND
8
0
0
POLYLINE
8
0
62
5
66
1
10
0
20
0
30
0
70
8
0
VERTEX
8
0
62
5
10
0.13090459
20
0.26949196
30
0
70
32
0
VERTEX
8
0
62
5
10
0.15918887
20
0.28229571
30
0
70
32
0
VERTEX
8
0
62
5
10
0.18747314
20
0.27087109
30
0
70
32
0
VERTEX
8
0
62
5
10
0.21575741
20
0.25806734
30
0
70
32
0
VERTEX
8
0
62
5
10
0.24404168
20
0.26949196
30
0
70
32
0
SEQEND
8
0
0
POLYLINE
8
0
62
30
66
1
10
0
20
0
30
0
70
8
0
VERTEX
8
0
62
30
10
0.13090459
20
0.20957139
30
0
70
32
0
VERTEX
8
0
62
30
10
0.24404168
20
0.20957139
30
0
70
32
0
SEQEND
8
0
0
POLYLINE
8
0
62
30
66
1
10
0
20
0
30
0
70
8
0
VERTEX
8
0
62
30
10
0.13090459
20
0.25806734
30
0
70
32
0
VERTEX
8
0
62
30
10
0.24404168
20
0.25806734
30
0
70
32
0
SEQEND
8
0
0
POLYLINE
8
0
62
30
66
1
10
0
20
0
30
0
70
8
0
VERTEX
8
0
62
30
10
0.15918887
20
0.18534302
30
0
70
32
0
VERTEX
8
0
62
30
10
0.15918887
20
0.20957139
30
0
70
32
0
SEQEND
8
0
0
POLYLINE
8
0
62
30
66
1
10
0
20
0
30
0
70
8
0
VERTEX
8
0
62
30
10
0.18747314
20
0.19676764
30
0
70
32
0
VERTEX
8
0
62
30
10
0.18747314
20
0.20957139
30
0
70
32
0
SEQEND
8
0
0
POLYLINE
8
0
62
30
66
1
10
0
20
0
30
0
70
8
0
VERTEX
8
0
62
30
10
0.21575741
20
0.20957139
30
0
70
32
0
VERTEX
8
0
62
30
10
0.21575741
20
0.20957139
30
0
70
32
0
SEQEND
8
0
0
POLYLINE
8
0
62
30
66
1
10
0
20
0
30
0
70
8
0
VERTEX
8
0
62
30
10
0.15918887
20
0.23383897
30
0
70
32
0
VERTEX
8
0
62
30
10
0.15918887
20
0.25806734
30
0
70
32
0
SEQEND
8
0
0
POLYLINE
8
0
62
30
66
1
10
0
20
0
30
0
70
8
0
VERTEX
8
0
62
30
10
0.18747314
20
0.24526359
30
0
70
32
0
VERTEX
8
0
62
30
10
0.18747314
20
0.25806734
30
0
70
32
0
SEQEND
8
0
0
POLYLINE
8
0
62
30
66
1
10
0
20
0
30
0
70
8
0
VERTEX
8
0
62
30
10
0.21575741
20
0.25806734
30
0
70
32
0
VERTEX
8
0
62
30
10
0.21575741
20
0.25806734
30
0
70
32
0
SEQEND
8
0
0
POLYLINE
8
0
62
5
66
1
10
0
20
0
30
0
70
8
0
VERTEX
8
0
62
5
10
0.15918887
20
0.18532341
30
0
70
32
0
VERTEX
8
0
62
5
10
0.15918887
20
0.18534302
30
0
70
32
0
SEQEND
8
0
0
POLYLINE
8
0
62
5
66
1
10
0
20
0
30
0
70
8
0
VERTEX
8
0
62
5
10
0.18747314
20
0.18532341
30
0
70
32
0
VERTEX
8
0
62
5
10
0.18747314
20
0.19676764
30
0
70
32
0
SEQEND
8
0
0
POLYLINE
8
0
62
5
66
1
10
0
20
0
30
0
70
8
0
VERTEX
8
0
62
5
10
0.21575741
20
0.18532341
30
0
70
32
0
VERTEX
8
0
62
5
10
0.21575741
20
0.20957139
30
0
70
32
0
SEQEND
8
0
0
POLYLINE
8
0
62
5
66
1
10
0
20
0
30
0
70
8
0
VERTEX
8
0
62
5
10
0.15918887
20
0.23381936
30
0
70
32
0
VERTEX
8
0
62
5
10
0.15918887
20
0.23383897
30
0
70
32
0
SEQEND
8
0
0
POLYLINE
8
0
62
5
66
1
10
0
20
0
30
0
70
8
0
VERTEX
8
0
62
5
10
0.18747314
20
0.23381936
30
0
70
32
0
VERTEX
8
0
62
5
10
0.18747314
20
0.24526359
30
0
70
32
0
SEQEND
8
0
0
POLYLINE
8
0
62
5
66
1
10
0
20
0
30
0
70
8
0
VERTEX
8
0
62
5
10
0.21575741
20
0.23381936
30
0
70
32
0
VERTEX
8
0
62
5
10
0.21575741
20
0.25806734
30
0
70
32
0
SEQEND
8
0
0
POLYLINE
8
0
62
5
66
1
10
0
20
0
30
0
70
8
0
VERTEX
8
0
62
5
10
0.15918887
20
0.20957139
30
0
70
32
0
VERTEX
8
0
62
5
10
0.15918887
20
0.23381936
30
0
70
32
0
SEQEND
8
0
0
POLYLINE
8
0
62
5
66
1
10
0
20
0
30
0
70
8
0
VERTEX
8
0
62
5
10
0.18747314
20
0.20957139
30
0
70
32
0
VERTEX
8
0
62
5
10
0.18747314
20
0.23381936
30
0
70
32
0
SEQEND
8
0
0
POLYLINE
8
0
62
5
66
1
10
0
20
0
30
0
70
8
0
VERTEX
8
0
62
5
10
0.21575741
20
0.20957139
30
0
70
32
0
VERTEX
8
0
62
5
10
0.21575741
20
0.23381936
30
0
70
32
0
SEQEND
8
0
0
POLYLINE
8
0
62
5
66
1
10
0
20
0
30
0
70
8
0
VERTEX
8
0
62
5
10
0.15918887
20
0.25806734
30
0
70
32
0
VERTEX
8
0
62
5
10
0.15918887
20
0.28231532
30
0
70
32
0
SEQEND
8
0
0
POLYLINE
8
0
62
5
66
1
10
0
20
0
30
0
70
8
0
VERTEX
8
0
62
5
10
0.18747314
20
0.25806734
30
0
70
32
0
VERTEX
8
0
62
5
10
0.18747314
20
0.28231532
30
0
70
32
0
SEQEND
8
0
0
POLYLINE
8
0
62
5
66
1
10
0
20
0
30
0
70
8
0
VERTEX
8
0
62
5
10
0.21575741
20
0.25806734
30
0
70
32
0
VERTEX
8
0
62
5
10
0.21575741
20
0.28231532
30
0
70
32
0
SEQEND
8
0
0
POLYLINE
8
0
62
5
66
1
10
0
20
0
30
0
70
8
0
VERTEX
8
0
62
5
10
-0.095369576
20
0.18532341
30
0
70
32
0
VERTEX
8
0
62
5
10
-0.095369576
20
0.28231532
30
0
70
32
0
SEQEND
8
0
0
POLYLINE
8
0
62
5
66
1
10
0
20
0
30
0
70
8
0
VERTEX
8
0
62
5
10
-0.095369576
20
0.19814677
30
0
70
32
0
VERTEX
8
0
62
5
10
-0.067085305
20
0.18534302
30
0
70
32
0
VERTEX
8
0
62
5
10
-0.038801034
20
0.19676764
30
0
70
32
0
VERTEX
8
0
62
5
10
-0.010516762
20
0.20957139
30
0
70
32
0
VERTEX
8
0
62
5
10
0.017767509
20
0.19814677
30
0
70
32
0
SEQEND
8
0
0
POLYLINE
8
0
62
5
66
1
10
0
20
0
30
0
70
8
0
VERTEX
8
0
62
5
10
-0.095369576
20
0.24664272
30
0
70
32
0
VERTEX
8
0
62
5
10
-0.067085305
20
0.23383897
30
0
70
32
0
VERTEX
8
0
62
5
10
-0.038801034
20
0.24526359
30
0
70
32
0
VERTEX
8
0
62
5
10
-0.010516762
20
0.25806734
30
0
70
32
0
VERTEX
8
0
62
5
10
0.017767509
20
0.24664272
30
0
70
32
0
SEQEND
8
0
0
POLYLINE
8
0
62
5
66
1
10
0
20
0
30
0
70
8
0
VERTEX
8
0
62
5
10
-0.095369576
20
0.22099601
30
0
70
32
0
VERTEX
8
0
62
5
10
-0.067085305
20
0.23379975
30
0
70
32
0
VERTEX
8
0
62
5
10
-0.038801034
20
0.22237514
30
0
70
32
0
VERTEX
8
0
62
5
10
-0.010516762
20
0.20957139
30
0
70
32
0
VERTEX
8
0
62
5
10
0.017767509
20
0.22099601
30
0
70
32
0
SEQEND
8
0
0
POLYLINE
8
0
62
5
66
1
10
0
20
0
30
0
70
8
0
VERTEX
8
0
62
5
10
-0.095369576
20
0.26949196
30
0
70
32
0
VERTEX
8
0
62
5
10
-0.067085305
20
0.28229571
30
0
70
32
0
VERTEX
8
0
62
5
10
-0.038801034
20
0.27087109
30
0
70
32
0
VERTEX
8
0
62
5
10
-0.010516762
20
0.25806734
30
0
70
32
0
VERTEX
8
0
62
5
10
0.017767509
20
0.26949196
30
0
70
32
0
SEQEND
8
0
0
POLYLINE
8
0
62
30
66
1
10
0
20
0
30
0
70
8
0
VERTEX
8
0
62
30
10
-0.095369576
20
0.20957139
30
0
70
32
0
VERTEX
8
0
62
30
10
0.017767509
20
0.20957139
30
0
70
32
0
SEQEND
8
0
0
POLYLINE
8
0
62
30
66
1
10
0
20
0
30
0
70
8
0
VERTEX
8
0
62
30
10
-0.095369576
20
0.25806734
30
0
70
32
0
VERTEX
8
0
62
30
10
0.017767509
20
0.25806734
30
0
70
32
0
SEQEND
8
0
0
POLYLINE
8
0
62
30
66
1
10
0
20
0
30
0
70
8
0
VERTEX
8
0
62
30
10
-0.067085305
20
0.18534302
30
0
70
32
0
VERTEX
8
0
62
30
10
-0.067085305
20
0.20957139
30
0
70
32
0
SEQEND
8
0
0
POLYLINE
8
0
62
30
66
1
10
0
20
0
30
0
70
8
0
VERTEX
8
0
62
30
10
-0.038801034
20
0.19676764
30
0
70
32
0
VERTEX
8
0
62
30
10
-0.038801034
20
0.20957139
30
0
70
32
0
SEQEND
8
0
0
POLYLINE
8
0
62
30
66
1
10
0
20
0
30
0
70
8
0
VERTEX
8
0
62
30
10
-0.010516762
20
0.20957139
30
0
70
32
0
VERTEX
8
0
62
30
10
-0.010516762
20
0.20957139
30
0
70
32
0
SEQEND
8
0
0
POLYLINE
8
0
62
30
66
1
10
0
20
0
30
0
70
8
0
VERTEX
8
0
62
30
10
-0.067085305
20
0.23383897
30
0
70
32
0
VERTEX
8
0
62
30
10
-0.067085305
20
0.25806734
30
0
70
32
0
SEQEND
8
0
0
POLYLINE
8
0
62
30
66
1
10
0
20
0
30
0
70
8
0
VERTEX
8
0
62
30
10
-0.038801034
20
0.24526359
30
0
70
32
0
VERTEX
8
0
62
30
10
-0.038801034
20
0.25806734
30
0
70
32
0
SEQEND
8
0
0
POLYLINE
8
0
62
30
66
1
10
0
20
0
30
0
70
8
0
VERTEX
8
0
62
30
10
-0.010516762
20
0.25806734
30
0
70
32
0
VERTEX
8
0
62
30
10
-0.010516762
20
0.25806734
30
0
70
32
0
SEQEND
8
0
0
POLYLINE
8
0
62
5
66
1
10
0
20
0
30
0
70
8
0
VERTEX
8
0
62
5
10
-0.067085305
20
0.18532341
30
0
70
32
0
VERTEX
8
0
62
5
10
-0.067085305
20
0.18534302
30
0
70
32
0
SEQEND
8
0
0
POLYLINE
8
0
62
5
66
1
10
0
20
0
30
0
70
8
0
VERTEX
8
0
62
5
10
-0.038801034
20
0.18532341
30
0
70
32
0
VERTEX
8
0
62
5
10
-0.038801034
20
0.19676764
30
0
70
32
0
SEQEND
8
0
0
POLYLINE
8
0
62
5
66
1
10
0
20
0
30
0
70
8
0
VERTEX
8
0
62
5
10
-0.010516762
20
0.18532341
30
0
70
32
0
VERTEX
8
0
62
5
10
-0.010516762
20
0.20957139
30
0
70
32
0
SEQEND
8
0
0
POLYLINE
8
0
62
5
66
1
10
0
20
0
30
0
70
8
0
VERTEX
8
0
62
5
10
-0.067085305
20
0.23381936
30
0
70
32
0
VERTEX
8
0
62
5
10
-0.067085305
20
0.23383897
30
0
70
32
0
SEQEND
8
0
0
POLYLINE
8
0
62
5
66
1
10
0
20
0
30
0
70
8
0
VERTEX
8
0
62
5
10
-0.038801034
20
0.23381936
30
0
70
32
0
VERTEX
8
0
62
5
10
-0.038801034
20
0.24526359
30
0
70
32
0
SEQEND
8
0
0
POLYLINE
8
0
62
5
66
1
10
0
20
0
30
0
70
8
0
VERTEX
8
0
62
5
10
-0.010516762
20
0.23381936
30
0
70
32
0
VERTEX
8
0
62
5
10
-0.010516762
20
0.25806734
30
0
70
32
0
SEQEND
8
0
0
POLYLINE
8
0
62
5
66
1
10
0
20
0
30
0
70
8
0
VERTEX
8
0
62
5
10
-0.067085305
20
0.20957139
30
0
70
32
0
VERTEX
8
0
62
5
10
-0.067085305
20
0.23381936
30
0
70
32
0
SEQEND
8
0
0
POLYLINE
8
0
62
5
66
1
10
0
20
0
30
0
70
8
0
VERTEX
8
0
62
5
10
-0.038801034
20
0.20957139
30
0
70
32
0
VERTEX
8
0
62
5
10
-0.038801034
20
0.23381936
30
0
70
32
0
SEQEND
8
0
0
POLYLINE
8
0
62
5
66
1
10
0
20
0
30
0
70
8
0
VERTEX
8
0
62
5
10
-0.010516762
20
0.20957139
30
0
70
32
0
VERTEX
8
0
62
5
10
-0.010516762
20
0.23381936
30
0
70
32
0
SEQEND
8
0
0
POLYLINE
8
0
62
5
66
1
10
0
20
0
30
0
70
8
0
VERTEX
8
0
62
5
10
-0.067085305
20
0.25806734
30
0
70
32
0
VERTEX
8
0
62
5
10
-0.067085305
20
0.28231532
30
0
70
32
0
SEQEND
8
0
0
POLYLINE
8
0
62
5
66
1
10
0
20
0
30
0
70
8
0
VERTEX
8
0
62
5
10
-0.038801034
20
0.25806734
30
0
70
32
0
VERTEX
8
0
62
5
10
-0.038801034
20
0.28231532
30
0
70
32
0
SEQEND
8
0
0
POLYLINE
8
0
62
5
66
1
10
0
20
0
30
0
70
8
0
VERTEX
8
0
62
5
10
-0.010516762
20
0.25806734
30
0
70
32
0
VERTEX
8
0
62
5
10
-0.010516762
20
0.28231532
30
0
70
32
0
SEQEND
8
0
0
POLYLINE
8
0
62
5
66
1
10
0
20
0
30
0
70
8
0
VERTEX
8
0
62
5
10
0.017767509
20
0.28231532
30
0
70
32
0
VERTEX
8
0
62
5
10
0.017767509
20
0.32231532
30
0
70
32
0
SEQEND
8
0
0
POLYLINE
8
0
62
5
66
1
10
0
20
0
30
0
70
8
0
VERTEX
8
0
62
5
10
0.13090459
20
0.32231532
30
0
70
32
0
VERTEX
8
0
62
5
10
0.13090459
20
0.28231532
30
0
70
32
0
SEQEND
8
0
0
POLYLINE
8
0
62
5
66
1
10
0
20
0
30
0
70
8
0
VERTEX
8
0
62
5
10
0.017767509
20
0.28231532
30
0
70
32
0
VERTEX
8
0
62
5
10
0.13090459
20
0.28231532
30
0
70
32
0
SEQEND
8
0
0
POLYLINE
8
0
62
5
66
1
10
0
20
0
30
0
70
8
0
VERTEX
8
0
62
5
10
0.017767509
20
0.32231532
30
0
70
32
0
VERTEX
8
0
62
5
10
0.13090459
20
0.32231532
30
0
70
32
0
SEQEND
8
0
0
POLYLINE
8
0
62
5
66
1
10
0
20
0
30
0
70
8
0
VERTEX
8
0
62
5
10
0.04605178
20
0.28231532
30
0
70
32
0
VERTEX
8
0
62
5
10
0.04605178
20
0.28231532
30
0
70
32
0
SEQEND
8
0
0
POLYLINE
8
0
62
5
66
1
10
0
20
0
30
0
70
8
0
VERTEX
8
0
62
5
10
0.074336051
20
0.28231532
30
0
70
32
0
VERTEX
8
0
62
5
10
0.074336051
20
0.28231532
30
0
70
32
0
SEQEND
8
0
0
POLYLINE
8
0
62
5
66
1
10
0
20
0
30
0
70
8
0
VERTEX
8
0
62
5
10
0.10262032
20
0.28231532
30
0
70
32
0
VERTEX
8
0
62
5
10
0.10262032
20
0.28231532
30
0
70
32
0
SEQEND
8
0
0
POLYLINE
8
0
62
5
66
1
10
0
20
0
30
0
70
8
0
VERTEX
8
0
62
5
10
0.04605178
20
0.32231532
30
0
70
32
0
VERTEX
8
0
62
5
10
0.04605178
20
0.32231532
30
0
70
32
0
SEQEND
8
0
0
POLYLINE
8
0
62
5
66
1
10
0
20
0
30
0
70
8
0
VERTEX
8
0
62
5
10
0.074336051
20
0.32231532
30
0
70
32
0
VERTEX
8
0
62
5
10
0.074336051
20
0.32231532
30
0
70
32
0
SEQEND
8
0
0
POLYLINE
8
0
62
5
66
1
10
0
20
0
30
0
70
8
0
VERTEX
8
0
62
5
10
0.10262032
20
0.32231532
30
0
70
32
0
VERTEX
8
0
62
5
10
0.10262032
20
0.32231532
30
0
70
32
0
SEQEND
8
0
0
POLYLINE
8
0
62
30
66
1
10
0
20
0
30
0
70
8
0
VERTEX
8
0
62
30
10
0.017767509
20
0.32231532
30
0
70
32
0
VERTEX
8
0
62
30
10
0.04605178
20
0.28231532
30
0
70
32
0
SEQEND
8
0
0
POLYLINE
8
0
62
30
66
1
10
0
20
0
30
0
70
8
0
VERTEX
8
0
62
30
10
0.04605178
20
0.32231532
30
0
70
32
0
VERTEX
8
0
62
30
10
0.017767509
20
0.28231532
30
0
70
32
0
SEQEND
8
0
0
POLYLINE
8
0
62
30
66
1
10
0
20
0
30
0
70
8
0
VERTEX
8
0
62
30
10
0.074336051
20
0.32231532
30
0
70
32
0
VERTEX
8
0
62
30
10
0.10262032
20
0.28231532
30
0
70
32
0
SEQEND
8
0
0
POLYLINE
8
0
62
30
66
1
10
0
20
0
30
0
70
8
0
VERTEX
8
0
62
30
10
0.10262032
20
0.32231532
30
0
70
32
0
VERTEX
8
0
62
30
10
0.074336051
20
0.28231532
30
0
70
32
0
SEQEND
8
0
0
POLYLINE
8
0
62
30
66
1
10
0
20
0
30
0
70
8
0
VERTEX
8
0
62
30
10
0.04605178
20
0.30231532
30
0
70
32
0
VERTEX
8
0
62
30
10
0.074336051
20
0.30231532
30
0
70
32
0
SEQEND
8
0
0
POLYLINE
8
0
62
30
66
1
10
0
20
0
30
0
70
8
0
VERTEX
8
0
62
30
10
0.10262032
20
0.30231532
30
0
70
32
0
VERTEX
8
0
62
30
10
0.13090459
20
0.30231532
30
0
70
32
0
SEQEND
8
0
0
POLYLINE
8
0
62
5
66
1
10
0
20
0
30
0
70
8
0
VERTEX
8
0
62
5
10
0.017767509
20
0.30231532
30
0
70
32
0
VERTEX
8
0
62
5
10
0.031909645
20
0.30231532
30
0
70
32
0
SEQEND
8
0
0
POLYLINE
8
0
62
5
66
1
10
0
20
0
30
0
70
8
0
VERTEX
8
0
62
5
10
0.074336051
20
0.30231532
30
0
70
32
0
VERTEX
8
0
62
5
10
0.088478187
20
0.30231532
30
0
70
32
0
SEQEND
8
0
0
POLYLINE
8
0
62
5
66
1
10
0
20
0
30
0
70
8
0
VERTEX
8
0
62
5
10
0.031909645
20
0.30231532
30
0
70
32
0
VERTEX
8
0
62
5
10
0.04605178
20
0.30231532
30
0
70
32
0
SEQEND
8
0
0
POLYLINE
8
0
62
5
66
1
10
0
20
0
30
0
70
8
0
VERTEX
8
0
62
5
10
0.088478187
20
0.30231532
30
0
70
32
0
VERTEX
8
0
62
5
10
0.10262032
20
0.30231532
30
0
70
32
0
SEQEND
8
0
0
POLYLINE
8
0
62
5
66
1
10
0
20
0
30
0
70
8
0
VERTEX
8
0
62
5
10
0.04605178
20
0.28231532
30
0
70
32
0
VERTEX
8
0
62
5
10
0.04605178
20
0.32231532
30
0
70
32
0
SEQEND
8
0
0
POLYLINE
8
0
62
5
66
1
10
0
20
0
30
0
70
8
0
VERTEX
8
0
62
5
10
0.074336051
20
0.28231532
30
0
70
32
0
VERTEX
8
0
62
5
10
0.074336051
20
0.32231532
30
0
70
32
0
SEQEND
8
0
0
POLYLINE
8
0
62
5
66
1
10
0
20
0
30
0
70
8
0
VERTEX
8
0
62
5
10
0.10262032
20
0.28231532
30
0
70
32
0
VERTEX
8
0
62
5
10
0.10262032
20
0.32231532
30
0
70
32
0
SEQEND
8
0
0
POLYLINE
8
0
62
5
66
1
10
0
20
0
30
0
70
8
0
VERTEX
8
0
62
5
10
0.017767509
20
0.28231532
30
0
70
32
0
VERTEX
8
0
62
5
10
0.017767509
20
0.32231532
30
0
70
32
0
SEQEND
8
0
0
POLYLINE
8
0
62
5
66
1
10
0
20
0
30
0
70
8
0
VERTEX
8
0
62
5
10
0.24404168
20
0.32231532
30
0
70
32
0
VERTEX
8
0
62
5
10
0.24404168
20
0.28231532
30
0
70
32
0
SEQEND
8
0
0
POLYLINE
8
0
62
5
66
1
10
0
20
0
30
0
70
8
0
VERTEX
8
0
62
5
10
0.13090459
20
0.28231532
30
0
70
32
0
VERTEX
8
0
62
5
10
0.24404168
20
0.28231532
30
0
70
32
0
SEQEND
8
0
0
POLYLINE
8
0
62
5
66
1
10
0
20
0
30
0
70
8
0
VERTEX
8
0
62
5
10
0.13090459
20
0.32231532
30
0
70
32
0
VERTEX
8
0
62
5
10
0.24404168
20
0.32231532
30
0
70
32
0
SEQEND
8
0
0
POLYLINE
8
0
62
5
66
1
10
0
20
0
30
0
70
8
0
VERTEX
8
0
62
5
10
0.15918887
20
0.28231532
30
0
70
32
0
VERTEX
8
0
62
5
10
0.15918887
20
0.28231532
30
0
70
32
0
SEQEND
8
0
0
POLYLINE
8
0
62
5
66
1
10
0
20
0
30
0
70
8
0
VERTEX
8
0
62
5
10
0.18747314
20
0.28231532
30
0
70
32
0
VERTEX
8
0
62
5
10
0.18747314
20
0.28231532
30
0
70
32
0
SEQEND
8
0
0
POLYLINE
8
0
62
5
66
1
10
0
20
0
30
0
70
8
0
VERTEX
8
0
62
5
10
0.21575741
20
0.28231532
30
0
70
32
0
VERTEX
8
0
62
5
10
0.21575741
20
0.28231532
30
0
70
32
0
SEQEND
8
0
0
POLYLINE
8
0
62
5
66
1
10
0
20
0
30
0
70
8
0
VERTEX
8
0
62
5
10
0.15918887
20
0.32231532
30
0
70
32
0
VERTEX
8
0
62
5
10
0.15918887
20
0.32231532
30
0
70
32
0
SEQEND
8
0
0
POLYLINE
8
0
62
5
66
1
10
0
20
0
30
0
70
8
0
VERTEX
8
0
62
5
10
0.18747314
20
0.32231532
30
0
70
32
0
VERTEX
8
0
62
5
10
0.18747314
20
0.32231532
30
0
70
32
0
SEQEND
8
0
0
POLYLINE
8
0
62
5
66
1
10
0
20
0
30
0
70
8
0
VERTEX
8
0
62
5
10
0.21575741
20
0.32231532
30
0
70
32
0
VERTEX
8
0
62
5
10
0.21575741
20
0.32231532
30
0
70
32
0
SEQEND
8
0
0
POLYLINE
8
0
62
30
66
1
10
0
20
0
30
0
70
8
0
VERTEX
8
0
62
30
10
0.13090459
20
0.32231532
30
0
70
32
0
VERTEX
8
0
62
30
10
0.15918887
20
0.28231532
30
0
70
32
0
SEQEND
8
0
0
POLYLINE
8
0
62
30
66
1
10
0
20
0
30
0
70
8
0
VERTEX
8
0
62
30
10
0.15918887
20
0.32231532
30
0
70
32
0
VERTEX
8
0
62
30
10
0.13090459
20
0.28231532
30
0
70
32
0
SEQEND
8
0
0
POLYLINE
8
0
62
30
66
1
10
0
20
0
30
0
70
8
0
VERTEX
8
0
62
30
10
0.18747314
20
0.32231532
30
0
70
32
0
VERTEX
8
0
62
30
10
0.21575741
20
0.28231532
30
0
70
32
0
SEQEND
8
0
0
POLYLINE
8
0
62
30
66
1
10
0
20
0
30
0
70
8
0
VERTEX
8
0
62
30
10
0.21575741
20
0.32231532
30
0
70
32
0
VERTEX
8
0
62
30
10
0.18747314
20
0.28231532
30
0
70
32
0
SEQEND
8
0
0
POLYLINE
8
0
62
30
66
1
10
0
20
0
30
0
70
8
0
VERTEX
8
0
62
30
10
0.15918887
20
0.30231532
30
0
70
32
0
VERTEX
8
0
62
30
10
0.18747314
20
0.30231532
30
0
70
32
0
SEQEND
8
0
0
POLYLINE
8
0
62
30
66
1
10
0
20
0
30
0
70
8
0
VERTEX
8
0
62
30
10
0.21575741
20
0.30231532
30
0
70
32
0
VERTEX
8
0
62
30
10
0.24404168
20
0.30231532
30
0
70
32
0
SEQEND
8
0
0
POLYLINE
8
0
62
5
66
1
10
0
20
0
30
0
70
8
0
VERTEX
8
0
62
5
10
0.13090459
20
0.30231532
30
0
70
32
0
VERTEX
8
0
62
5
10
0.14504673
20
0.30231532
30
0
70
32
0
SEQEND
8
0
0
POLYLINE
8
0
62
5
66
1
10
0
20
0
30
0
70
8
0
VERTEX
8
0
62
5
10
0.18747314
20
0.30231532
30
0
70
32
0
VERTEX
8
0
62
5
10
0.20161527
20
0.30231532
30
0
70
32
0
SEQEND
8
0
0
POLYLINE
8
0
62
5
66
1
10
0
20
0
30
0
70
8
0
VERTEX
8
0
62
5
10
0.14504673
20
0.30231532
30
0
70
32
0
VERTEX
8
0
62
5
10
0.15918887
20
0.30231532
30
0
70
32
0
SEQEND
8
0
0
POLYLINE
8
0
62
5
66
1
10
0
20
0
30
0
70
8
0
VERTEX
8
0
62
5
10
0.20161527
20
0.30231532
30
0
70
32
0
VERTEX
8
0
62
5
10
0.21575741
20
0.30231532
30
0
70
32
0
SEQEND
8
0
0
POLYLINE
8
0
62
5
66
1
10
0
20
0
30
0
70
8
0
VERTEX
8
0
62
5
10
0.15918887
20
0.28231532
30
0
70
32
0
VERTEX
8
0
62
5
10
0.15918887
20
0.32231532
30
0
70
32
0
SEQEND
8
0
0
POLYLINE
8
0
62
5
66
1
10
0
20
0
30
0
70
8
0
VERTEX
8
0
62
5
10
0.18747314
20
0.28231532
30
0
70
32
0
VERTEX
8
0
62
5
10
0.18747314
20
0.32231532
30
0
70
32
0
SEQEND
8
0
0
POLYLINE
8
0
62
5
66
1
10
0
20
0
30
0
70
8
0
VERTEX
8
0
62
5
10
0.21575741
20
0.28231532
30
0
70
32
0
VERTEX
8
0
62
5
10
0.21575741
20
0.32231532
30
0
70
32
0
SEQEND
8
0
0
POLYLINE
8
0
62
5
66
1
10
0
20
0
30
0
70
8
0
VERTEX
8
0
62
5
10
0.13090459
20
0.28231532
30
0
70
32
0
VERTEX
8
0
62
5
10
0.13090459
20
0.32231532
30
0
70
32
0
SEQEND
8
0
0
POLYLINE
8
0
62
5
66
1
10
0
20
0
30
0
70
8
0
VERTEX
8
0
62
5
10
-0.095369576
20
0.28231532
30
0
70
32
0
VERTEX
8
0
62
5
10
-0.095369576
20
0.32231532
30
0
70
32
0
SEQEND
8
0
0
POLYLINE
8
0
62
5
66
1
10
0
20
0
30
0
70
8
0
VERTEX
8
0
62
5
10
-0.095369576
20
0.28231532
30
0
70
32
0
VERTEX
8
0
62
5
10
0.017767509
20
0.28231532
30
0
70
32
0
SEQEND
8
0
0
POLYLINE
8
0
62
5
66
1
10
0
20
0
30
0
70
8
0
VERTEX
8
0
62
5
10
-0.095369576
20
0.32231532
30
0
70
32
0
VERTEX
8
0
62
5
10
0.017767509
20
0.32231532
30
0
70
32
0
SEQEND
8
0
0
POLYLINE
8
0
62
5
66
1
10
0
20
0
30
0
70
8
0
VERTEX
8
0
62
5
10
-0.067085305
20
0.28231532
30
0
70
32
0
VERTEX
8
0
62
5
10
-0.067085305
20
0.28231532
30
0
70
32
0
SEQEND
8
0
0
POLYLINE
8
0
62
5
66
1
10
0
20
0
30
0
70
8
0
VERTEX
8
0
62
5
10
-0.038801034
20
0.28231532
30
0
70
32
0
VERTEX
8
0
62
5
10
-0.038801034
20
0.28231532
30
0
70
32
0
SEQEND
8
0
0
POLYLINE
8
0
62
5
66
1
10
0
20
0
30
0
70
8
0
VERTEX
8
0
62
5
10
-0.010516762
20
0.28231532
30
0
70
32
0
VERTEX
8
0
62
5
10
-0.010516762
20
0.28231532
30
0
70
32
0
SEQEND
8
0
0
POLYLINE
8
0
62
5
66
1
10
0
20
0
30
0
70
8
0
VERTEX
8
0
62
5
10
-0.067085305
20
0.32231532
30
0
70
32
0
VERTEX
8
0
62
5
10
-0.067085305
20
0.32231532
30
0
70
32
0
SEQEND
8
0
0
POLYLINE
8
0
62
5
66
1
10
0
20
0
30
0
70
8
0
VERTEX
8
0
62
5
10
-0.038801034
20
0.32231532
30
0
70
32
0
VERTEX
8
0
62
5
10
-0.038801034
20
0.32231532
30
0
70
32
0
SEQEND
8
0
0
POLYLINE
8
0
62
5
66
1
10
0
20
0
30
0
70
8
0
VERTEX
8
0
62
5
10
-0.010516762
20
0.32231532
30
0
70
32
0
VERTEX
8
0
62
5
10
-0.010516762
20
0.32231532
30
0
70
32
0
SEQEND
8
0
0
POLYLINE
8
0
62
30
66
1
10
0
20
0
30
0
70
8
0
VERTEX
8
0
62
30
10
-0.095369576
20
0.32231532
30
0
70
32
0
VERTEX
8
0
62
30
10
-0.067085305
20
0.28231532
30
0
70
32
0
SEQEND
8
0
0
POLYLINE
8
0
62
30
66
1
10
0
20
0
30
0
70
8
0
VERTEX
8
0
62
30
10
-0.067085305
20
0.32231532
30
0
70
32
0
VERTEX
8
0
62
30
10
-0.095369576
20
0.28231532
30
0
70
32
0
SEQEND
8
0
0
POLYLINE
8
0
62
30
66
1
10
0
20
0
30
0
70
8
0
VERTEX
8
0
62
30
10
-0.038801034
20
0.32231532
30
0
70
32
0
VERTEX
8
0
62
30
10
-0.010516762
20
0.28231532
30
0
70
32
0
SEQEND
8
0
0
POLYLINE
8
0
62
30
66
1
10
0
20
0
30
0
70
8
0
VERTEX
8
0
62
30
10
-0.010516762
20
0.32231532
30
0
70
32
0
VERTEX
8
0
62
30
10
-0.038801034
20
0.28231532
30
0
70
32
0
SEQEND
8
0
0
POLYLINE
8
0
62
30
66
1
10
0
20
0
30
0
70
8
0
VERTEX
8
0
62
30
10
-0.067085305
20
0.30231532
30
0
70
32
0
VERTEX
8
0
62
30
10
-0.038801034
20
0.30231532
30
0
70
32
0
SEQEND
8
0
0
POLYLINE
8
0
62
30
66
1
10
0
20
0
30
0
70
8
0
VERTEX
8
0
62
30
10
-0.010516762
20
0.30231532
30
0
70
32
0
VERTEX
8
0
62
30
10
0.017767509
20
0.30231532
30
0
70
32
0
SEQEND
8
0
0
POLYLINE
8
0
62
5
66
1
10
0
20
0
30
0
70
8
0
VERTEX
8
0
62
5
10
-0.095369576
20
0.30231532
30
0
70
32
0
VERTEX
8
0
62
5
10
-0.08122744
20
0.30231532
30
0
70
32
0
SEQEND
8
0
0
POLYLINE
8
0
62
5
66
1
10
0
20
0
30
0
70
8
0
VERTEX
8
0
62
5
10
-0.038801034
20
0.30231532
30
0
70
32
0
VERTEX
8
0
62
5
10
-0.024658898
20
0.30231532
30
0
70
32
0
SEQEND
8
0
0
POLYLINE
8
0
62
5
66
1
10
0
20
0
30
0
70
8
0
VERTEX
8
0
62
5
10
-0.08122744
20
0.30231532
30
0
70
32
0
VERTEX
8
0
62
5
10
-0.067085305
20
0.30231532
30
0
70
32
0
SEQEND
8
0
0
POLYLINE
8
0
62
5
66
1
10
0
20
0
30
0
70
8
0
VERTEX
8
0
62
5
10
-0.024658898
20
0.30231532
30
0
70
32
0
VERTEX
8
0
62
5
10
-0.010516762
20
0.30231532
30
0
70
32
0
SEQEND
8
0
0
POLYLINE
8
0
62
5
66
1
10
0
20
0
30
0
70
8
0
VERTEX
8
0
62
5
10
-0.067085305
20
0.28231532
30
0
70
32
0
VERTEX
8
0
62
5
10
-0.067085305
20
0.32231532
30
0
70
32
0
SEQEND
8
0
0
POLYLINE
8
0
62
5
66
1
10
0
20
0
30
0
70
8
0
VERTEX
8
0
62
5
10
-0.038801034
20
0.28231532
30
0
70
32
0
VERTEX
8
0
62
5
10
-0.038801034
20
0.32231532
30
0
70
32
0
SEQEND
8
0
0
POLYLINE
8
0
62
5
66
1
10
0
20
0
30
0
70
8
0
VERTEX
8
0
62
5
10
-0.010516762
20
0.28231532
30
0
70
32
0
VERTEX
8
0
62
5
10
-0.010516762
20
0.32231532
30
0
70
32
0
SEQEND
8
0
0
POLYLINE
8
0
62
5
66
1
10
0
20
0
30
0
70
8
0
VERTEX
8
0
62
5
10
-0.095369576
20
0.28231532
30
0
70
32
0
VERTEX
8
0
62
5
10
-0.095369576
20
0.32231532
30
0
70
32
0
SEQEND
8
0
0
POLYLINE
8
0
62
5
66
1
10
0
20
0
30
0
70
8
0
VERTEX
8
0
62
5
10
0.017767509
20
0.32231532
30
0
70
32
0
VERTEX
8
0
62
5
10
0.017767509
20
0.35059959
30
0
70
32
0
SEQEND
8
0
0
POLYLINE
8
0
62
5
66
1
10
0
20
0
30
0
70
8
0
VERTEX
8
0
62
5
10
0.13090459
20
0.35059959
30
0
70
32
0
VERTEX
8
0
62
5
10
0.13090459
20
0.32231532
30
0
70
32
0
SEQEND
8
0
0
POLYLINE
8
0
62
5
66
1
10
0
20
0
30
0
70
8
0
VERTEX
8
0
62
5
10
0.017767509
20
0.32474172
30
0
70
32
0
VERTEX
8
0
62
5
10
0.04605178
20
0.32474172
30
0
70
32
0
VERTEX
8
0
62
5
10
0.074336051
20
0.33645745
30
0
70
32
0
VERTEX
8
0
62
5
10
0.10262032
20
0.33645745
30
0
70
32
0
VERTEX
8
0
62
5
10
0.13090459
20
0.32474172
30
0
70
32
0
SEQEND
8
0
0
POLYLINE
8
0
62
5
66
1
10
0
20
0
30
0
70
8
0
SEQEND
8
0
0
POLYLINE
8
0
62
5
66
1
10
0
20
0
30
0
70
8
0
VERTEX
8
0
62
5
10
0.017767509
20
0.34817318
30
0
70
32
0
VERTEX
8
0
62
5
10
0.04605178
20
0.34817318
30
0
70
32
0
VERTEX
8
0
62
5
10
0.074336051
20
0.33645745
30
0
70
32
0
VERTEX
8
0
62
5
10
0.10262032
20
0.33645745
30
0
70
32
0
VERTEX
8
0
62
5
10
0.13090459
20
0.34817318
30
0
70
32
0
SEQEND
8
0
0
POLYLINE
8
0
62
30
66
1
10
0
20
0
30
0
70
8
0
VERTEX
8
0
62
30
10
0.017767509
20
0.33645745
30
0
70
32
0
VERTEX
8
0
62
30
10
0.13090459
20
0.33645745
30
0
70
32
0
SEQEND
8
0
0
POLYLINE
8
0
62
30
66
1
10
0
20
0
30
0
70
8
0
VERTEX
8
0
62
30
10
0.04605178
20
0.32474172
30
0
70
32
0
VERTEX
8
0
62
30
10
0.04605178
20
0.33645745
30
0
70
32
0
SEQEND
8
0
0
POLYLINE
8
0
62
30
66
1
10
0
20
0
30
0
70
8
0
VERTEX
8
0
62
30
10
0.074336051
20
0.33645745
30
0
70
32
0
VERTEX
8
0
62
30
10
0.074336051
20
0.33645745
30
0
70
32
0
SEQEND
8
0
0
POLYLINE
8
0
62
30
66
1
10
0
20
0
30
0
70
8
0
VERTEX
8
0
62
30
10
0.10262032
20
0.33645745
30
0
70
32
0
VERTEX
8
0
62
30
10
0.10262032
20
0.33645745
30
0
70
32
0
SEQEND
8
0
0
POLYLINE
8
0
62
5
66
1
10
0
20
0
30
0
70
8
0
VERTEX
8
0
62
5
10
0.04605178
20
0.32231532
30
0
70
32
0
VERTEX
8
0
62
5
10
0.04605178
20
0.32474172
30
0
70
32
0
SEQEND
8
0
0
POLYLINE
8
0
62
5
66
1
10
0
20
0
30
0
70
8
0
VERTEX
8
0
62
5
10
0.074336051
20
0.32231532
30
0
70
32
0
VERTEX
8
0
62
5
10
0.074336051
20
0.33645745
30
0
70
32
0
SEQEND
8
0
0
POLYLINE
8
0
62
5
66
1
10
0
20
0
30
0
70
8
0
VERTEX
8
0
62
5
10
0.10262032
20
0.32231532
30
0
70
32
0
VERTEX
8
0
62
5
10
0.10262032
20
0.33645745
30
0
70
32
0
SEQEND
8
0
0
POLYLINE
8
0
62
5
66
1
10
0
20
0
30
0
70
8
0
VERTEX
8
0
62
5
10
0.04605178
20
0.33645745
30
0
70
32
0
VERTEX
8
0
62
5
10
0.04605178
20
0.35059959
30
0
70
32
0
SEQEND
8
0
0
POLYLINE
8
0
62
5
66
1
10
0
20
0
30
0
70
8
0
VERTEX
8
0
62
5
10
0.074336051
20
0.33645745
30
0
70
32
0
VERTEX
8
0
62
5
10
0.074336051
20
0.35059959
30
0
70
32
0
SEQEND
8
0
0
POLYLINE
8
0
62
5
66
1
10
0
20
0
30
0
70
8
0
VERTEX
8
0
62
5
10
0.10262032
20
0.33645745
30
0
70
32
0
VERTEX
8
0
62
5
10
0.10262032
20
0.35059959
30
0
70
32
0
SEQEND
8
0
0
POLYLINE
8
0
62
5
66
1
10
0
20
0
30
0
70
8
0
VERTEX
8
0
62
5
10
0.24404168
20
0.35059959
30
0
70
32
0
VERTEX
8
0
62
5
10
0.24404168
20
0.32231532
30
0
70
32
0
SEQEND
8
0
0
POLYLINE
8
0
62
5
66
1
10
0
20
0
30
0
70
8
0
VERTEX
8
0
62
5
10
0.13090459
20
0.32474172
30
0
70
32
0
VERTEX
8
0
62
5
10
0.15918887
20
0.32474172
30
0
70
32
0
VERTEX
8
0
62
5
10
0.18747314
20
0.33645745
30
0
70
32
0
VERTEX
8
0
62
5
10
0.21575741
20
0.33645745
30
0
70
32
0
VERTEX
8
0
62
5
10
0.24404168
20
0.32474172
30
0
70
32
0
SEQEND
8
0
0
POLYLINE
8
0
62
5
66
1
10
0
20
0
30
0
70
8
0
SEQEND
8
0
0
POLYLINE
8
0
62
5
66
1
10
0
20
0
30
0
70
8
0
VERTEX
8
0
62
5
10
0.13090459
20
0.34817318
30
0
70
32
0
VERTEX
8
0
62
5
10
0.15918887
20
0.34817318
30
0
70
32
0
VERTEX
8
0
62
5
10
0.18747314
20
0.33645745
30
0
70
32
0
VERTEX
8
0
62
5
10
0.21575741
20
0.33645745
30
0
70
32
0
VERTEX
8
0
62
5
10
0.24404168
20
0.34817318
30
0
70
32
0
SEQEND
8
0
0
POLYLINE
8
0
62
30
66
1
10
0
20
0
30
0
70
8
0
VERTEX
8
0
62
30
10
0.13090459
20
0.33645745
30
0
70
32
0
VERTEX
8
0
62
30
10
0.24404168
20
0.33645745
30
0
70
32
0
SEQEND
8
0
0
POLYLINE
8
0
62
30
66
1
10
0
20
0
30
0
70
8
0
VERTEX
8
0
62
30
10
0.15918887
20
0.32474172
30
0
70
32
0
VERTEX
8
0
62
30
10
0.15918887
20
0.33645745
30
0
70
32
0
SEQEND
8
0
0
POLYLINE
8
0
62
30
66
1
10
0
20
0
30
0
70
8
0
VERTEX
8
0
62
30
10
0.18747314
20
0.33645745
30
0
70
32
0
VERTEX
8
0
62
30
10
0.18747314
20
0.33645745
30
0
70
32
0
SEQEND
8
0
0
POLYLINE
8
0
62
30
66
1
10
0
20
0
30
0
70
8
0
VERTEX
8
0
62
30
10
0.21575741
20
0.33645745
30
0
70
32
0
VERTEX
8
0
62
30
10
0.21575741
20
0.33645745
30
0
70
32
0
SEQEND
8
0
0
POLYLINE
8
0
62
5
66
1
10
0
20
0
30
0
70
8
0
VERTEX
8
0
62
5
10
0.15918887
20
0.32231532
30
0
70
32
0
VERTEX
8
0
62
5
10
0.15918887
20
0.32474172
30
0
70
32
0
SEQEND
8
0
0
POLYLINE
8
0
62
5
66
1
10
0
20
0
30
0
70
8
0
VERTEX
8
0
62
5
10
0.18747314
20
0.32231532
30
0
70
32
0
VERTEX
8
0
62
5
10
0.18747314
20
0.33645745
30
0
70
32
0
SEQEND
8
0
0
POLYLINE
8
0
62
5
66
1
10
0
20
0
30
0
70
8
0
VERTEX
8
0
62
5
10
0.21575741
20
0.32231532
30
0
70
32
0
VERTEX
8
0
62
5
10
0.21575741
20
0.33645745
30
0
70
32
0
SEQEND
8
0
0
POLYLINE
8
0
62
5
66
1
10
0
20
0
30
0
70
8
0
VERTEX
8
0
62
5
10
0.15918887
20
0.33645745
30
0
70
32
0
VERTEX
8
0
62
5
10
0.15918887
20
0.35059959
30
0
70
32
0
SEQEND
8
0
0
POLYLINE
8
0
62
5
66
1
10
0
20
0
30
0
70
8
0
VERTEX
8
0
62
5
10
0.18747314
20
0.33645745
30
0
70
32
0
VERTEX
8
0
62
5
10
0.18747314
20
0.35059959
30
0
70
32
0
SEQEND
8
0
0
POLYLINE
8
0
62
5
66
1
10
0
20
0
30
0
70
8
0
VERTEX
8
0
62
5
10
0.21575741
20
0.33645745
30
0
70
32
0
VERTEX
8
0
62
5
10
0.21575741
20
0.35059959
30
0
70
32
0
SEQEND
8
0
0
POLYLINE
8
0
62
5
66
1
10
0
20
0
30
0
70
8
0
VERTEX
8
0
62
5
10
-0.095369576
20
0.32231532
30
0
70
32
0
VERTEX
8
0
62
5
10
-0.095369576
20
0.35059959
30
0
70
32
0
SEQEND
8
0
0
POLYLINE
8
0
62
5
66
1
10
0
20
0
30
0
70
8
0
VERTEX
8
0
62
5
10
-0.095369576
20
0.32474172
30
0
70
32
0
VERTEX
8
0
62
5
10
-0.067085305
20
0.32474172
30
0
70
32
0
VERTEX
8
0
62
5
10
-0.038801034
20
0.33645745
30
0
70
32
0
VERTEX
8
0
62
5
10
-0.010516762
20
0.33645745
30
0
70
32
0
VERTEX
8
0
62
5
10
0.017767509
20
0.32474172
30
0
70
32
0
SEQEND
8
0
0
POLYLINE
8
0
62
5
66
1
10
0
20
0
30
0
70
8
0
SEQEND
8
0
0
POLYLINE
8
0
62
5
66
1
10
0
20
0
30
0
70
8
0
VERTEX
8
0
62
5
10
-0.095369576
20
0.34817318
30
0
70
32
0
VERTEX
8
0
62
5
10
-0.067085305
20
0.34817318
30
0
70
32
0
VERTEX
8
0
62
5
10
-0.038801034
20
0.33645745
30
0
70
32
0
VERTEX
8
0
62
5
10
-0.010516762
20
0.33645745
30
0
70
32
0
VERTEX
8
0
62
5
10
0.017767509
20
0.34817318
30
0
70
32
0
SEQEND
8
0
0
POLYLINE
8
0
62
30
66
1
10
0
20
0
30
0
70
8
0
VERTEX
8
0
62
30
10
-0.095369576
20
0.33645745
30
0
70
32
0
VERTEX
8
0
62
30
10
0.017767509
20
0.33645745
30
0
70
32
0
SEQEND
8
0
0
POLYLINE
8
0
62
30
66
1
10
0
20
0
30
0
70
8
0
VERTEX
8
0
62
30
10
-0.067085305
20
0.32474172
30
0
70
32
0
VERTEX
8
0
62
30
10
-0.067085305
20
0.33645745
30
0
70
32
0
SEQEND
8
0
0
POLYLINE
8
0
62
30
66
1
10
0
20
0
30
0
70
8
0
VERTEX
8
0
62
30
10
-0.038801034
20
0.33645745
30
0
70
32
0
VERTEX
8
0
62
30
10
-0.038801034
20
0.33645745
30
0
70
32
0
SEQEND
8
0
0
POLYLINE
8
0
62
30
66
1
10
0
20
0
30
0
70
8
0
VERTEX
8
0
62
30
10
-0.010516762
20
0.33645745
30
0
70
32
0
VERTEX
8
0
62
30
10
-0.010516762
20
0.33645745
30
0
70
32
0
SEQEND
8
0
0
POLYLINE
8
0
62
5
66
1
10
0
20
0
30
0
70
8
0
VERTEX
8
0
62
5
10
-0.067085305
20
0.32231532
30
0
70
32
0
VERTEX
8
0
62
5
10
-0.067085305
20
0.32474172
30
0
70
32
0
SEQEND
8
0
0
POLYLINE
8
0
62
5
66
1
10
0
20
0
30
0
70
8
0
VERTEX
8
0
62
5
10
-0.038801034
20
0.32231532
30
0
70
32
0
VERTEX
8
0
62
5
10
-0.038801034
20
0.33645745
30
0
70
32
0
SEQEND
8
0
0
POLYLINE
8
0
62
5
66
1
10
0
20
0
30
0
70
8
0
VERTEX
8
0
62
5
10
-0.010516762
20
0.32231532
30
0
70
32
0
VERTEX
8
0
62
5
10
-0.010516762
20
0.33645745
30
0
70
32
0
SEQEND
8
0
0
POLYLINE
8
0
62
5
66
1
10
0
20
0
30
0
70
8
0
VERTEX
8
0
62
5
10
-0.067085305
20
0.33645745
30
0
70
32
0
VERTEX
8
0
62
5
10
-0.067085305
20
0.35059959
30
0
70
32
0
SEQEND
8
0
0
POLYLINE
8
0
62
5
66
1
10
0
20
0
30
0
70
8
0
VERTEX
8
0
62
5
10
-0.038801034
20
0.33645745
30
0
70
32
0
VERTEX
8
0
62
5
10
-0.038801034
20
0.35059959
30
0
70
32
0
SEQEND
8
0
0
POLYLINE
8
0
62
5
66
1
10
0
20
0
30
0
70
8
0
VERTEX
8
0
62
5
10
-0.010516762
20
0.33645745
30
0
70
32
0
VERTEX
8
0
62
5
10
-0.010516762
20
0.35059959
30
0
70
32
0
SEQEND
8
0
0
POLYLINE
8
0
62
5
66
1
10
0
20
0
30
0
70
8
0
VERTEX
8
0
62
5
10
0.017767509
20
0.35059959
30
0
70
32
0
VERTEX
8
0
62
5
10
0.017767509
20
0.35508487
30
0
70
32
0
SEQEND
8
0
0
POLYLINE
8
0
62
5
66
1
10
0
20
0
30
0
70
8
0
VERTEX
8
0
62
5
10
0.04605178
20
0.35059959
30
0
70
32
0
VERTEX
8
0
62
5
10
0.04605178
20
0.35508487
30
0
70
32
0
SEQEND
8
0
0
POLYLINE
8
0
62
5
66
1
10
0
20
0
30
0
70
8
0
VERTEX
8
0
62
5
10
0.074336051
20
0.35059959
30
0
70
32
0
VERTEX
8
0
62
5
10
0.074336051
20
0.35508487
30
0
70
32
0
SEQEND
8
0
0
POLYLINE
8
0
62
5
66
1
10
0
20
0
30
0
70
8
0
VERTEX
8
0
62
5
10
0.10262032
20
0.35059959
30
0
70
32
0
VERTEX
8
0
62
5
10
0.10262032
20
0.35508487
30
0
70
32
0
SEQEND
8
0
0
POLYLINE
8
0
62
5
66
1
10
0
20
0
30
0
70
8
0
VERTEX
8
0
62
5
10
0.13090459
20
0.35059959
30
0
70
32
0
VERTEX
8
0
62
5
10
0.13090459
20
0.35508487
30
0
70
32
0
SEQEND
8
0
0
POLYLINE
8
0
62
5
66
1
10
0
20
0
30
0
70
8
0
VERTEX
8
0
62
5
10
0.04605178
20
0.35059959
30
0
70
32
0
VERTEX
8
0
62
5
10
0.04605178
20
0.35059959
30
0
70
32
0
SEQEND
8
0
0
POLYLINE
8
0
62
5
66
1
10
0
20
0
30
0
70
8
0
VERTEX
8
0
62
5
10
0.074336051
20
0.35059959
30
0
70
32
0
VERTEX
8
0
62
5
10
0.074336051
20
0.35059959
30
0
70
32
0
SEQEND
8
0
0
POLYLINE
8
0
62
5
66
1
10
0
20
0
30
0
70
8
0
VERTEX
8
0
62
5
10
0.10262032
20
0.35059959
30
0
70
32
0
VERTEX
8
0
62
5
10
0.10262032
20
0.35059959
30
0
70
32
0
SEQEND
8
0
0
POLYLINE
8
0
62
5
66
1
10
0
20
0
30
0
70
8
0
VERTEX
8
0
62
5
10
0.04605178
20
0.35508487
30
0
70
32
0
VERTEX
8
0
62
5
10
0.04605178
20
0.35508487
30
0
70
32
0
SEQEND
8
0
0
POLYLINE
8
0
62
5
66
1
10
0
20
0
30
0
70
8
0
VERTEX
8
0
62
5
10
0.074336051
20
0.35508487
30
0
70
32
0
VERTEX
8
0
62
5
10
0.074336051
20
0.35508487
30
0
70
32
0
SEQEND
8
0
0
POLYLINE
8
0
62
5
66
1
10
0
20
0
30
0
70
8
0
VERTEX
8
0
62
5
10
0.10262032
20
0.35508487
30
0
70
32
0
VERTEX
8
0
62
5
10
0.10262032
20
0.35508487
30
0
70
32
0
SEQEND
8
0
0
POLYLINE
8
0
62
5
66
1
10
0
20
0
30
0
70
8
0
VERTEX
8
0
62
5
10
0.13090459
20
0.35508487
30
0
70
32
0
VERTEX
8
0
62
5
10
0.13090459
20
0.35508487
30
0
70
32
0
SEQEND
8
0
0
POLYLINE
8
0
62
5
66
1
10
0
20
0
30
0
70
8
0
VERTEX
8
0
62
5
10
0.15918887
20
0.35059959
30
0
70
32
0
VERTEX
8
0
62
5
10
0.15918887
20
0.35508487
30
0
70
32
0
SEQEND
8
0
0
POLYLINE
8
0
62
5
66
1
10
0
20
0
30
0
70
8
0
VERTEX
8
0
62
5
10
0.18747314
20
0.35059959
30
0
70
32
0
VERTEX
8
0
62
5
10
0.18747314
20
0.35508487
30
0
70
32
0
SEQEND
8
0
0
POLYLINE
8
0
62
5
66
1
10
0
20
0
30
0
70
8
0
VERTEX
8
0
62
5
10
0.21575741
20
0.35059959
30
0
70
32
0
VERTEX
8
0
62
5
10
0.21575741
20
0.35508487
30
0
70
32
0
SEQEND
8
0
0
POLYLINE
8
0
62
5
66
1
10
0
20
0
30
0
70
8
0
VERTEX
8
0
62
5
10
0.24404168
20
0.35059959
30
0
70
32
0
VERTEX
8
0
62
5
10
0.24404168
20
0.35508487
30
0
70
32
0
SEQEND
8
0
0
POLYLINE
8
0
62
5
66
1
10
0
20
0
30
0
70
8
0
VERTEX
8
0
62
5
10
0.15918887
20
0.35059959
30
0
70
32
0
VERTEX
8
0
62
5
10
0.15918887
20
0.35059959
30
0
70
32
0
SEQEND
8
0
0
POLYLINE
8
0
62
5
66
1
10
0
20
0
30
0
70
8
0
VERTEX
8
0
62
5
10
0.18747314
20
0.35059959
30
0
70
32
0
VERTEX
8
0
62
5
10
0.18747314
20
0.35059959
30
0
70
32
0
SEQEND
8
0
0
POLYLINE
8
0
62
5
66
1
10
0
20
0
30
0
70
8
0
VERTEX
8
0
62
5
10
0.21575741
20
0.35059959
30
0
70
32
0
VERTEX
8
0
62
5
10
0.21575741
20
0.35059959
30
0
70
32
0
SEQEND
8
0
0
POLYLINE
8
0
62
5
66
1
10
0
20
0
30
0
70
8
0
VERTEX
8
0
62
5
10
0.15918886
20
0.35508487
30
0
70
32
0
VERTEX
8
0
62
5
10
0.15918886
20
0.35508487
30
0
70
32
0
SEQEND
8
0
0
POLYLINE
8
0
62
5
66
1
10
0
20
0
30
0
70
8
0
VERTEX
8
0
62
5
10
0.18747314
20
0.35508487
30
0
70
32
0
VERTEX
8
0
62
5
10
0.18747314
20
0.35508487
30
0
70
32
0
SEQEND
8
0
0
POLYLINE
8
0
62
5
66
1
10
0
20
0
30
0
70
8
0
VERTEX
8
0
62
5
10
0.21575741
20
0.35508487
30
0
70
32
0
VERTEX
8
0
62
5
10
0.21575741
20
0.35508487
30
0
70
32
0
SEQEND
8
0
0
POLYLINE
8
0
62
5
66
1
10
0
20
0
30
0
70
8
0
VERTEX
8
0
62
5
10
0.24404168
20
0.35508487
30
0
70
32
0
VERTEX
8
0
62
5
10
0.24404168
20
0.35508487
30
0
70
32
0
SEQEND
8
0
0
POLYLINE
8
0
62
5
66
1
10
0
20
0
30
0
70
8
0
VERTEX
8
0
62
5
10
-0.067085305
20
0.35059959
30
0
70
32
0
VERTEX
8
0
62
5
10
-0.067085305
20
0.35508487
30
0
70
32
0
SEQEND
8
0
0
POLYLINE
8
0
62
5
66
1
10
0
20
0
30
0
70
8
0
VERTEX
8
0
62
5
10
-0.038801034
20
0.35059959
30
0
70
32
0
VERTEX
8
0
62
5
10
-0.038801034
20
0.35508487
30
0
70
32
0
SEQEND
8
0
0
POLYLINE
8
0
62
5
66
1
10
0
20
0
30
0
70
8
0
VERTEX
8
0
62
5
10
-0.010516762
20
0.35059959
30
0
70
32
0
VERTEX
8
0
62
5
10
-0.010516762
20
0.35508487
30
0
70
32
0
SEQEND
8
0
0
POLYLINE
8
0
62
5
66
1
10
0
20
0
30
0
70
8
0
VERTEX
8
0
62
5
10
0.017767509
20
0.35059959
30
0
70
32
0
VERTEX
8
0
62
5
10
0.017767509
20
0.35508487
30
0
70
32
0
SEQEND
8
0
0
POLYLINE
8
0
62
5
66
1
10
0
20
0
30
0
70
8
0
VERTEX
8
0
62
5
10
-0.067085305
20
0.35059959
30
0
70
32
0
VERTEX
8
0
62
5
10
-0.067085305
20
0.35059959
30
0
70
32
0
SEQEND
8
0
0
POLYLINE
8
0
62
5
66
1
10
0
20
0
30
0
70
8
0
VERTEX
8
0
62
5
10
-0.038801034
20
0.35059959
30
0
70
32
0
VERTEX
8
0
62
5
10
-0.038801034
20
0.35059959
30
0
70
32
0
SEQEND
8
0
0
POLYLINE
8
0
62
5
66
1
10
0
20
0
30
0
70
8
0
VERTEX
8
0
62
5
10
-0.010516762
20
0.35059959
30
0
70
32
0
VERTEX
8
0
62
5
10
-0.010516762
20
0.35059959
30
0
70
32
0
SEQEND
8
0
0
POLYLINE
8
0
62
5
66
1
10
0
20
0
30
0
70
8
0
VERTEX
8
0
62
5
10
-0.067085305
20
0.35508487
30
0
70
32
0
VERTEX
8
0
62
5
10
-0.067085305
20
0.35508487
30
0
70
32
0
SEQEND
8
0
0
POLYLINE
8
0
62
5
66
1
10
0
20
0
30
0
70
8
0
VERTEX
8
0
62
5
10
-0.038801034
20
0.35508487
30
0
70
32
0
VERTEX
8
0
62
5
10
-0.038801034
20
0.35508487
30
0
70
32
0
SEQEND
8
0
0
POLYLINE
8
0
62
5
66
1
10
0
20
0
30
0
70
8
0
VERTEX
8
0
62
5
10
-0.010516763
20
0.35508487
30
0
70
32
0
VERTEX
8
0
62
5
10
-0.010516763
20
0.35508487
30
0
70
32
0
SEQEND
8
0
0
POLYLINE
8
0
62
5
66
1
10
0
20
0
30
0
70
8
0
VERTEX
8
0
62
5
10
0.017767509
20
0.35508487
30
0
70
32
0
VERTEX
8
0
62
5
10
0.017767509
20
0.35508487
30
0
70
32
0
SEQEND
8
0
0
POLYLINE
8
0
62
5
66
1
10
0
20
0
30
0
70
8
0
VERTEX
8
0
62
5
10
0.017767509
20
0.35508487
30
0
70
32
0
VERTEX
8
0
62
5
10
0.017767509
20
0.37302599
30
0
70
32
0
SEQEND
8
0
0
POLYLINE
8
0
62
5
66
1
10
0
20
0
30
0
70
8
0
VERTEX
8
0
62
5
10
0.13090459
20
0.35508487
30
0
70
32
0
VERTEX
8
0
62
5
10
0.13090459
20
0.37302599
30
0
70
32
0
SEQEND
8
0
0
POLYLINE
8
0
62
5
66
1
10
0
20
0
30
0
70
8
0
VERTEX
8
0
62
5
10
0.04605178
20
0.35508487
30
0
70
32
0
VERTEX
8
0
62
5
10
0.04605178
20
0.37302599
30
0
70
32
0
SEQEND
8
0
0
POLYLINE
8
0
62
5
66
1
10
0
20
0
30
0
70
8
0
VERTEX
8
0
62
5
10
0.074336051
20
0.35508487
30
0
70
32
0
VERTEX
8
0
62
5
10
0.074336051
20
0.37302599
30
0
70
32
0
SEQEND
8
0
0
POLYLINE
8
0
62
5
66
1
10
0
20
0
30
0
70
8
0
VERTEX
8
0
62
5
10
0.10262032
20
0.35508487
30
0
70
32
0
VERTEX
8
0
62
5
10
0.10262032
20
0.37302599
30
0
70
32
0
SEQEND
8
0
0
POLYLINE
8
0
62
5
66
1
10
0
20
0
30
0
70
8
0
VERTEX
8
0
62
5
10
0.24404168
20
0.35508487
30
0
70
32
0
VERTEX
8
0
62
5
10
0.24404168
20
0.37302599
30
0
70
32
0
SEQEND
8
0
0
POLYLINE
8
0
62
5
66
1
10
0
20
0
30
0
70
8
0
VERTEX
8
0
62
5
10
0.15918886
20
0.35508487
30
0
70
32
0
VERTEX
8
0
62
5
10
0.15918886
20
0.37302599
30
0
70
32
0
SEQEND
8
0
0
POLYLINE
8
0
62
5
66
1
10
0
20
0
30
0
70
8
0
VERTEX
8
0
62
5
10
0.18747314
20
0.35508487
30
0
70
32
0
VERTEX
8
0
62
5
10
0.18747314
20
0.37302599
30
0
70
32
0
SEQEND
8
0
0
POLYLINE
8
0
62
5
66
1
10
0
20
0
30
0
70
8
0
VERTEX
8
0
62
5
10
0.21575741
20
0.35508487
30
0
70
32
0
VERTEX
8
0
62
5
10
0.21575741
20
0.37302599
30
0
70
32
0
SEQEND
8
0
0
POLYLINE
8
0
62
5
66
1
10
0
20
0
30
0
70
8
0
VERTEX
8
0
62
5
10
-0.095369576
20
0.35508487
30
0
70
32
0
VERTEX
8
0
62
5
10
-0.095369576
20
0.37302599
30
0
70
32
0
SEQEND
8
0
0
POLYLINE
8
0
62
5
66
1
10
0
20
0
30
0
70
8
0
VERTEX
8
0
62
5
10
-0.067085305
20
0.35508487
30
0
70
32
0
VERTEX
8
0
62
5
10
-0.067085305
20
0.37302599
30
0
70
32
0
SEQEND
8
0
0
POLYLINE
8
0
62
5
66
1
10
0
20
0
30
0
70
8
0
VERTEX
8
0
62
5
10
-0.038801034
20
0.35508487
30
0
70
32
0
VERTEX
8
0
62
5
10
-0.038801034
20
0.37302599
30
0
70
32
0
SEQEND
8
0
0
POLYLINE
8
0
62
5
66
1
10
0
20
0
30
0
70
8
0
VERTEX
8
0
62
5
10
-0.010516763
20
0.35508487
30
0
70
32
0
VERTEX
8
0
62
5
10
-0.010516763
20
0.37302599
30
0
70
32
0
SEQEND
8
0
0
POLYLINE
8
0
62
5
66
1
10
0
20
0
30
0
70
8
0
VERTEX
8
0
62
5
10
0.017767509
20
0.37302599
30
0
70
32
0
VERTEX
8
0
62
5
10
0.017767509
20
0.40131027
30
0
70
32
0
SEQEND
8
0
0
POLYLINE
8
0
62
5
66
1
10
0
20
0
30
0
70
8
0
VERTEX
8
0
62
5
10
0.13090459
20
0.40131027
30
0
70
32
0
VERTEX
8
0
62
5
10
0.13090459
20
0.37302599
30
0
70
32
0
SEQEND
8
0
0
POLYLINE
8
0
62
5
66
1
10
0
20
0
30
0
70
8
0
VERTEX
8
0
62
5
10
0.017767509
20
0.3754524
30
0
70
32
0
VERTEX
8
0
62
5
10
0.04605178
20
0.3754524
30
0
70
32
0
VERTEX
8
0
62
5
10
0.074336051
20
0.38716813
30
0
70
32
0
VERTEX
8
0
62
5
10
0.10262032
20
0.38716813
30
0
70
32
0
VERTEX
8
0
62
5
10
0.13090459
20
0.3754524
30
0
70
32
0
SEQEND
8
0
0
POLYLINE
8
0
62
5
66
1
10
0
20
0
30
0
70
8
0
SEQEND
8
0
0
POLYLINE
8
0
62
5
66
1
10
0
20
0
30
0
70
8
0
VERTEX
8
0
62
5
10
0.017767509
20
0.39888386
30
0
70
32
0
VERTEX
8
0
62
5
10
0.04605178
20
0.39888386
30
0
70
32
0
VERTEX
8
0
62
5
10
0.074336051
20
0.38716813
30
0
70
32
0
VERTEX
8
0
62
5
10
0.10262032
20
0.38716813
30
0
70
32
0
VERTEX
8
0
62
5
10
0.13090459
20
0.39888386
30
0
70
32
0
SEQEND
8
0
0
POLYLINE
8
0
62
30
66
1
10
0
20
0
30
0
70
8
0
VERTEX
8
0
62
30
10
0.017767509
20
0.38716813
30
0
70
32
0
VERTEX
8
0
62
30
10
0.13090459
20
0.38716813
30
0
70
32
0
SEQEND
8
0
0
POLYLINE
8
0
62
30
66
1
10
0
20
0
30
0
70
8
0
VERTEX
8
0
62
30
10
0.04605178
20
0.3754524
30
0
70
32
0
VERTEX
8
0
62
30
10
0.04605178
20
0.38716813
30
0
70
32
0
SEQEND
8
0
0
POLYLINE
8
0
62
30
66
1
10
0
20
0
30
0
70
8
0
VERTEX
8
0
62
30
10
0.074336051
20
0.38716813
30
0
70
32
0
VERTEX
8
0
62
30
10
0.074336051
20
0.38716813
30
0
70
32
0
SEQEND
8
0
0
POLYLINE
8
0
62
30
66
1
10
0
20
0
30
0
70
8
0
VERTEX
8
0
62
30
10
0.10262032
20
0.38716813
30
0
70
32
0
VERTEX
8
0
62
30
10
0.10262032
20
0.38716813
30
0
70
32
0
SEQEND
8
0
0
POLYLINE
8
0
62
5
66
1
10
0
20
0
30
0
70
8
0
VERTEX
8
0
62
5
10
0.04605178
20
0.37302599
30
0
70
32
0
VERTEX
8
0
62
5
10
0.04605178
20
0.3754524
30
0
70
32
0
SEQEND
8
0
0
POLYLINE
8
0
62
5
66
1
10
0
20
0
30
0
70
8
0
VERTEX
8
0
62
5
10
0.074336051
20
0.37302599
30
0
70
32
0
VERTEX
8
0
62
5
10
0.074336051
20
0.38716813
30
0
70
32
0
SEQEND
8
0
0
POLYLINE
8
0
62
5
66
1
10
0
20
0
30
0
70
8
0
VERTEX
8
0
62
5
10
0.10262032
20
0.37302599
30
0
70
32
0
VERTEX
8
0
62
5
10
0.10262032
20
0.38716813
30
0
70
32
0
SEQEND
8
0
0
POLYLINE
8
0
62
5
66
1
10
0
20
0
30
0
70
8
0
VERTEX
8
0
62
5
10
0.04605178
20
0.38716813
30
0
70
32
0
VERTEX
8
0
62
5
10
0.04605178
20
0.40131027
30
0
70
32
0
SEQEND
8
0
0
POLYLINE
8
0
62
5
66
1
10
0
20
0
30
0
70
8
0
VERTEX
8
0
62
5
10
0.074336051
20
0.38716813
30
0
70
32
0
VERTEX
8
0
62
5
10
0.074336051
20
0.40131027
30
0
70
32
0
SEQEND
8
0
0
POLYLINE
8
0
62
5
66
1
10
0
20
0
30
0
70
8
0
VERTEX
8
0
62
5
10
0.10262032
20
0.38716813
30
0
70
32
0
VERTEX
8
0
62
5
10
0.10262032
20
0.40131027
30
0
70
32
0
SEQEND
8
0
0
POLYLINE
8
0
62
5
66
1
10
0
20
0
30
0
70
8
0
VERTEX
8
0
62
5
10
0.24404168
20
0.40131027
30
0
70
32
0
VERTEX
8
0
62
5
10
0.24404168
20
0.37302599
30
0
70
32
0
SEQEND
8
0
0
POLYLINE
8
0
62
5
66
1
10
0
20
0
30
0
70
8
0
VERTEX
8
0
62
5
10
0.13090459
20
0.3754524
30
0
70
32
0
VERTEX
8
0
62
5
10
0.15918886
20
0.3754524
30
0
70
32
0
VERTEX
8
0
62
5
10
0.18747314
20
0.38716813
30
0
70
32
0
VERTEX
8
0
62
5
10
0.21575741
20
0.38716813
30
0
70
32
0
VERTEX
8
0
62
5
10
0.24404168
20
0.3754524
30
0
70
32
0
SEQEND
8
0
0
POLYLINE
8
0
62
5
66
1
10
0
20
0
30
0
70
8
0
SEQEND
8
0
0
POLYLINE
8
0
62
5
66
1
10
0
20
0
30
0
70
8
0
VERTEX
8
0
62
5
10
0.13090459
20
0.39888386
30
0
70
32
0
VERTEX
8
0
62
5
10
0.15918886
20
0.39888386
30
0
70
32
0
VERTEX
8
0
62
5
10
0.18747314
20
0.38716813
30
0
70
32
0
VERTEX
8
0
62
5
10
0.21575741
20
0.38716813
30
0
70
32
0
VERTEX
8
0
62
5
10
0.24404168
20
0.39888386
30
0
70
32
0
SEQEND
8
0
0
POLYLINE
8
0
62
30
66
1
10
0
20
0
30
0
70
8
0
VERTEX
8
0
62
30
10
0.13090459
20
0.38716813
30
0
70
32
0
VERTEX
8
0
62
30
10
0.24404168
20
0.38716813
30
0
70
32
0
SEQEND
8
0
0
POLYLINE
8
0
62
30
66
1
10
0
20
0
30
0
70
8
0
VERTEX
8
0
62
30
10
0.15918886
20
0.3754524
30
0
70
32
0
VERTEX
8
0
62
30
10
0.15918886
20
0.38716813
30
0
70
32
0
SEQEND
8
0
0
POLYLINE
8
0
62
30
66
1
10
0
20
0
30
0
70
8
0
VERTEX
8
0
62
30
10
0.18747314
20
0.38716813
30
0
70
32
0
VERTEX
8
0
62
30
10
0.18747314
20
0.38716813
30
0
70
32
0
SEQEND
8
0
0
POLYLINE
8
0
62
30
66
1
10
0
20
0
30
0
70
8
0
VERTEX
8
0
62
30
10
0.21575741
20
0.38716813
30
0
70
32
0
VERTEX
8
0
62
30
10
0.21575741
20
0.38716813
30
0
70
32
0
SEQEND
8
0
0
POLYLINE
8
0
62
5
66
1
10
0
20
0
30
0
70
8
0
VERTEX
8
0
62
5
10
0.15918886
20
0.37302599
30
0
70
32
0
VERTEX
8
0
62
5
10
0.15918886
20
0.3754524
30
0
70
32
0
SEQEND
8
0
0
POLYLINE
8
0
62
5
66
1
10
0
20
0
30
0
70
8
0
VERTEX
8
0
62
5
10
0.18747314
20
0.37302599
30
0
70
32
0
VERTEX
8
0
62
5
10
0.18747314
20
0.38716813
30
0
70
32
0
SEQEND
8
0
0
POLYLINE
8
0
62
5
66
1
10
0
20
0
30
0
70
8
0
VERTEX
8
0
62
5
10
0.21575741
20
0.37302599
30
0
70
32
0
VERTEX
8
0
62
5
10
0.21575741
20
0.38716813
30
0
70
32
0
SEQEND
8
0
0
POLYLINE
8
0
62
5
66
1
10
0
20
0
30
0
70
8
0
VERTEX
8
0
62
5
10
0.15918886
20
0.38716813
30
0
70
32
0
VERTEX
8
0
62
5
10
0.15918886
20
0.40131027
30
0
70
32
0
SEQEND
8
0
0
POLYLINE
8
0
62
5
66
1
10
0
20
0
30
0
70
8
0
VERTEX
8
0
62
5
10
0.18747314
20
0.38716813
30
0
70
32
0
VERTEX
8
0
62
5
10
0.18747314
20
0.40131027
30
0
70
32
0
SEQEND
8
0
0
POLYLINE
8
0
62
5
66
1
10
0
20
0
30
0
70
8
0
VERTEX
8
0
62
5
10
0.21575741
20
0.38716813
30
0
70
32
0
VERTEX
8
0
62
5
10
0.21575741
20
0.40131027
30
0
70
32
0
SEQEND
8
0
0
POLYLINE
8
0
62
5
66
1
10
0
20
0
30
0
70
8
0
VERTEX
8
0
62
5
10
-0.095369576
20
0.37302599
30
0
70
32
0
VERTEX
8
0
62
5
10
-0.095369576
20
0.40131027
30
0
70
32
0
SEQEND
8
0
0
POLYLINE
8
0
62
5
66
1
10
0
20
0
30
0
70
8
0
VERTEX
8
0
62
5
10
-0.095369576
20
0.3754524
30
0
70
32
0
VERTEX
8
0
62
5
10
-0.067085305
20
0.3754524
30
0
70
32
0
VERTEX
8
0
62
5
10
-0.038801034
20
0.38716813
30
0
70
32
0
VERTEX
8
0
62
5
10
-0.010516763
20
0.38716813
30
0
70
32
0
VERTEX
8
0
62
5
10
0.017767509
20
0.3754524
30
0
70
32
0
SEQEND
8
0
0
POLYLINE
8
0
62
5
66
1
10
0
20
0
30
0
70
8
0
SEQEND
8
0
0
POLYLINE
8
0
62
5
66
1
10
0
20
0
30
0
70
8
0
VERTEX
8
0
62
5
10
-0.095369576
20
0.39888386
30
0
70
32
0
VERTEX
8
0
62
5
10
-0.067085305
20
0.39888386
30
0
70
32
0
VERTEX
8
0
62
5
10
-0.038801034
20
0.38716813
30
0
70
32
0
VERTEX
8
0
62
5
10
-0.010516763
20
0.38716813
30
0
70
32
0
VERTEX
8
0
62
5
10
0.017767509
20
0.39888386
30
0
70
32
0
SEQEND
8
0
0
POLYLINE
8
0
62
30
66
1
10
0
20
0
30
0
70
8
0
VERTEX
8
0
62
30
10
-0.095369576
20
0.38716813
30
0
70
32
0
VERTEX
8
0
62
30
10
0.017767509
20
0.38716813
30
0
70
32
0
SEQEND
8
0
0
POLYLINE
8
0
62
30
66
1
10
0
20
0
30
0
70
8
0
VERTEX
8
0
62
30
10
-0.067085305
20
0.3754524
30
0
70
32
0
VERTEX
8
0
62
30
10
-0.067085305
20
0.38716813
30
0
70
32
0
SEQEND
8
0
0
POLYLINE
8
0
62
30
66
1
10
0
20
0
30
0
70
8
0
VERTEX
8
0
62
30
10
-0.038801034
20
0.38716813
30
0
70
32
0
VERTEX
8
0
62
30
10
-0.038801034
20
0.38716813
30
0
70
32
0
SEQEND
8
0
0
POLYLINE
8
0
62
30
66
1
10
0
20
0
30
0
70
8
0
VERTEX
8
0
62
30
10
-0.010516763
20
0.38716813
30
0
70
32
0
VERTEX
8
0
62
30
10
-0.010516763
20
0.38716813
30
0
70
32
0
SEQEND
8
0
0
POLYLINE
8
0
62
5
66
1
10
0
20
0
30
0
70
8
0
VERTEX
8
0
62
5
10
-0.067085305
20
0.37302599
30
0
70
32
0
VERTEX
8
0
62
5
10
-0.067085305
20
0.3754524
30
0
70
32
0
SEQEND
8
0
0
POLYLINE
8
0
62
5
66
1
10
0
20
0
30
0
70
8
0
VERTEX
8
0
62
5
10
-0.038801034
20
0.37302599
30
0
70
32
0
VERTEX
8
0
62
5
10
-0.038801034
20
0.38716813
30
0
70
32
0
SEQEND
8
0
0
POLYLINE
8
0
62
5
66
1
10
0
20
0
30
0
70
8
0
VERTEX
8
0
62
5
10
-0.010516763
20
0.37302599
30
0
70
32
0
VERTEX
8
0
62
5
10
-0.010516763
20
0.38716813
30
0
70
32
0
SEQEND
8
0
0
POLYLINE
8
0
62
5
66
1
10
0
20
0
30
0
70
8
0
VERTEX
8
0
62
5
10
-0.067085305
20
0.38716813
30
0
70
32
0
VERTEX
8
0
62
5
10
-0.067085305
20
0.40131027
30
0
70
32
0
SEQEND
8
0
0
POLYLINE
8
0
62
5
66
1
10
0
20
0
30
0
70
8
0
VERTEX
8
0
62
5
10
-0.038801034
20
0.38716813
30
0
70
32
0
VERTEX
8
0
62
5
10
-0.038801034
20
0.40131027
30
0
70
32
0
SEQEND
8
0
0
POLYLINE
8
0
62
5
66
1
10
0
20
0
30
0
70
8
0
VERTEX
8
0
62
5
10
-0.010516763
20
0.38716813
30
0
70
32
0
VERTEX
8
0
62
5
10
-0.010516763
20
0.40131027
30
0
70
32
0
SEQEND
8
0
0
POLYLINE
8
0
62
5
66
1
10
0
20
0
30
0
70
8
0
VERTEX
8
0
62
5
10
0.017767509
20
0.40131027
30
0
70
32
0
VERTEX
8
0
62
5
10
0.017767509
20
0.44131027
30
0
70
32
0
SEQEND
8
0
0
POLYLINE
8
0
62
5
66
1
10
0
20
0
30
0
70
8
0
VERTEX
8
0
62
5
10
0.13090459
20
0.44131027
30
0
70
32
0
VERTEX
8
0
62
5
10
0.13090459
20
0.40131027
30
0
70
32
0
SEQEND
8
0
0
POLYLINE
8
0
62
5
66
1
10
0
20
0
30
0
70
8
0
VERTEX
8
0
62
5
10
0.017767509
20
0.40131027
30
0
70
32
0
VERTEX
8
0
62
5
10
0.13090459
20
0.40131027
30
0
70
32
0
SEQEND
8
0
0
POLYLINE
8
0
62
5
66
1
10
0
20
0
30
0
70
8
0
VERTEX
8
0
62
5
10
0.017767509
20
0.44131027
30
0
70
32
0
VERTEX
8
0
62
5
10
0.13090459
20
0.44131027
30
0
70
32
0
SEQEND
8
0
0
POLYLINE
8
0
62
5
66
1
10
0
20
0
30
0
70
8
0
VERTEX
8
0
62
5
10
0.04605178
20
0.40131027
30
0
70
32
0
VERTEX
8
0
62
5
10
0.04605178
20
0.40131027
30
0
70
32
0
SEQEND
8
0
0
POLYLINE
8
0
62
5
66
1
10
0
20
0
30
0
70
8
0
VERTEX
8
0
62
5
10
0.074336051
20
0.40131027
30
0
70
32
0
VERTEX
8
0
62
5
10
0.074336051
20
0.40131027
30
0
70
32
0
SEQEND
8
0
0
POLYLINE
8
0
62
5
66
1
10
0
20
0
30
0
70
8
0
VERTEX
8
0
62
5
10
0.10262032
20
0.40131027
30
0
70
32
0
VERTEX
8
0
62
5
10
0.10262032
20
0.40131027
30
0
70
32
0
SEQEND
8
0
0
POLYLINE
8
0
62
5
66
1
10
0
20
0
30
0
70
8
0
VERTEX
8
0
62
5
10
0.04605178
20
0.44131027
30
0
70
32
0
VERTEX
8
0
62
5
10
0.04605178
20
0.44131027
30
0
70
32
0
SEQEND
8
0
0
POLYLINE
8
0
62
5
66
1
10
0
20
0
30
0
70
8
0
VERTEX
8
0
62
5
10
0.074336051
20
0.44131027
30
0
70
32
0
VERTEX
8
0
62
5
10
0.074336051
20
0.44131027
30
0
70
32
0
SEQEND
8
0
0
POLYLINE
8
0
62
5
66
1
10
0
20
0
30
0
70
8
0
VERTEX
8
0
62
5
10
0.10262032
20
0.44131027
30
0
70
32
0
VERTEX
8
0
62
5
10
0.10262032
20
0.44131027
30
0
70
32
0
SEQEND
8
0
0
POLYLINE
8
0
62
30
66
1
10
0
20
0
30
0
70
8
0
VERTEX
8
0
62
30
10
0.017767509
20
0.44131027
30
0
70
32
0
VERTEX
8
0
62
30
10
0.04605178
20
0.40131027
30
0
70
32
0
SEQEND
8
0
0
POLYLINE
8
0
62
30
66
1
10
0
20
0
30
0
70
8
0
VERTEX
8
0
62
30
10
0.04605178
20
0.44131027
30
0
70
32
0
VERTEX
8
0
62
30
10
0.017767509
20
0.40131027
30
0
70
32
0
SEQEND
8
0
0
POLYLINE
8
0
62
30
66
1
10
0
20
0
30
0
70
8
0
VERTEX
8
0
62
30
10
0.074336051
20
0.44131027
30
0
70
32
0
VERTEX
8
0
62
30
10
0.10262032
20
0.40131027
30
0
70
32
0
SEQEND
8
0
0
POLYLINE
8
0
62
30
66
1
10
0
20
0
30
0
70
8
0
VERTEX
8
0
62
30
10
0.10262032
20
0.44131027
30
0
70
32
0
VERTEX
8
0
62
30
10
0.074336051
20
0.40131027
30
0
70
32
0
SEQEND
8
0
0
POLYLINE
8
0
62
30
66
1
10
0
20
0
30
0
70
8
0
VERTEX
8
0
62
30
10
0.04605178
20
0.42131027
30
0
70
32
0
VERTEX
8
0
62
30
10
0.074336051
20
0.42131027
30
0
70
32
0
SEQEND
8
0
0
POLYLINE
8
0
62
30
66
1
10
0
20
0
30
0
70
8
0
VERTEX
8
0
62
30
10
0.10262032
20
0.42131027
30
0
70
32
0
VERTEX
8
0
62
30
10
0.13090459
20
0.42131027
30
0
70
32
0
SEQEND
8
0
0
POLYLINE
8
0
62
5
66
1
10
0
20
0
30
0
70
8
0
VERTEX
8
0
62
5
10
0.017767509
20
0.42131027
30
0
70
32
0
VERTEX
8
0
62
5
10
0.031909644
20
0.42131027
30
0
70
32
0
SEQEND
8
0
0
POLYLINE
8
0
62
5
66
1
10
0
20
0
30
0
70
8
0
VERTEX
8
0
62
5
10
0.074336051
20
0.42131027
30
0
70
32
0
VERTEX
8
0
62
5
10
0.088478187
20
0.42131027
30
0
70
32
0
SEQEND
8
0
0
POLYLINE
8
0
62
5
66
1
10
0
20
0
30
0
70
8
0
VERTEX
8
0
62
5
10
0.031909644
20
0.42131027
30
0
70
32
0
VERTEX
8
0
62
5
10
0.04605178
20
0.42131027
30
0
70
32
0
SEQEND
8
0
0
POLYLINE
8
0
62
5
66
1
10
0
20
0
30
0
70
8
0
VERTEX
8
0
62
5
10
0.088478187
20
0.42131027
30
0
70
32
0
VERTEX
8
0
62
5
10
0.10262032
20
0.42131027
30
0
70
32
0
SEQEND
8
0
0
POLYLINE
8
0
62
5
66
1
10
0
20
0
30
0
70
8
0
VERTEX
8
0
62
5
10
0.04605178
20
0.40131027
30
0
70
32
0
VERTEX
8
0
62
5
10
0.04605178
20
0.44131027
30
0
70
32
0
SEQEND
8
0
0
POLYLINE
8
0
62
5
66
1
10
0
20
0
30
0
70
8
0
VERTEX
8
0
62
5
10
0.074336051
20
0.40131027
30
0
70
32
0
VERTEX
8
0
62
5
10
0.074336051
20
0.44131027
30
0
70
32
0
SEQEND
8
0
0
POLYLINE
8
0
62
5
66
1
10
0
20
0
30
0
70
8
0
VERTEX
8
0
62
5
10
0.10262032
20
0.40131027
30
0
70
32
0
VERTEX
8
0
62
5
10
0.10262032
20
0.44131027
30
0
70
32
0
SEQEND
8
0
0
POLYLINE
8
0
62
5
66
1
10
0
20
0
30
0
70
8
0
VERTEX
8
0
62
5
10
0.017767509
20
0.40131027
30
0
70
32
0
VERTEX
8
0
62
5
10
0.017767509
20
0.44131027
30
0
70
32
0
SEQEND
8
0
0
POLYLINE
8
0
62
5
66
1
10
0
20
0
30
0
70
8
0
VERTEX
8
0
62
5
10
0.24404168
20
0.44131027
30
0
70
32
0
VERTEX
8
0
62
5
10
0.24404168
20
0.40131027
30
0
70
32
0
SEQEND
8
0
0
POLYLINE
8
0
62
5
66
1
10
0
20
0
30
0
70
8
0
VERTEX
8
0
62
5
10
0.13090459
20
0.40131027
30
0
70
32
0
VERTEX
8
0
62
5
10
0.24404168
20
0.40131027
30
0
70
32
0
SEQEND
8
0
0
POLYLINE
8
0
62
5
66
1
10
0
20
0
30
0
70
8
0
VERTEX
8
0
62
5
10
0.13090459
20
0.44131027
30
0
70
32
0
VERTEX
8
0
62
5
10
0.24404168
20
0.44131027
30
0
70
32
0
SEQEND
8
0
0
POLYLINE
8
0
62
5
66
1
10
0
20
0
30
0
70
8
0
VERTEX
8
0
62
5
10
0.15918886
20
0.40131027
30
0
70
32
0
VERTEX
8
0
62
5
10
0.15918886
20
0.40131027
30
0
70
32
0
SEQEND
8
0
0
POLYLINE
8
0
62
5
66
1
10
0
20
0
30
0
70
8
0
VERTEX
8
0
62
5
10
0.18747314
20
0.40131027
30
0
70
32
0
VERTEX
8
0
62
5
10
0.18747314
20
0.40131027
30
0
70
32
0
SEQEND
8
0
0
POLYLINE
8
0
62
5
66
1
10
0
20
0
30
0
70
8
0
VERTEX
8
0
62
5
10
0.21575741
20
0.40131027
30
0
70
32
0
VERTEX
8
0
62
5
10
0.21575741
20
0.40131027
30
0
70
32
0
SEQEND
8
0
0
POLYLINE
8
0
62
5
66
1
10
0
20
0
30
0
70
8
0
VERTEX
8
0
62
5
10
0.15918886
20
0.44131027
30
0
70
32
0
VERTEX
8
0
62
5
10
0.15918886
20
0.44131027
30
0
70
32
0
SEQEND
8
0
0
POLYLINE
8
0
62
5
66
1
10
0
20
0
30
0
70
8
0
VERTEX
8
0
62
5
10
0.18747314
20
0.44131027
30
0
70
32
0
VERTEX
8
0
62
5
10
0.18747314
20
0.44131027
30
0
70
32
0
SEQEND
8
0
0
POLYLINE
8
0
62
5
66
1
10
0
20
0
30
0
70
8
0
VERTEX
8
0
62
5
10
0.21575741
20
0.44131027
30
0
70
32
0
VERTEX
8
0
62
5
10
0.21575741
20
0.44131027
30
0
70
32
0
SEQEND
8
0
0
POLYLINE
8
0
62
30
66
1
10
0
20
0
30
0
70
8
0
VERTEX
8
0
62
30
10
0.13090459
20
0.44131027
30
0
70
32
0
VERTEX
8
0
62
30
10
0.15918886
20
0.40131027
30
0
70
32
0
SEQEND
8
0
0
POLYLINE
8
0
62
30
66
1
10
0
20
0
30
0
70
8
0
VERTEX
8
0
62
30
10
0.15918886
20
0.44131027
30
0
70
32
0
VERTEX
8
0
62
30
10
0.13090459
20
0.40131027
30
0
70
32
0
SEQEND
8
0
0
POLYLINE
8
0
62
30
66
1
10
0
20
0
30
0
70
8
0
VERTEX
8
0
62
30
10
0.18747314
20
0.44131027
30
0
70
32
0
VERTEX
8
0
62
30
10
0.21575741
20
0.40131027
30
0
70
32
0
SEQEND
8
0
0
POLYLINE
8
0
62
30
66
1
10
0
20
0
30
0
70
8
0
VERTEX
8
0
62
30
10
0.21575741
20
0.44131027
30
0
70
32
0
VERTEX
8
0
62
30
10
0.18747314
20
0.40131027
30
0
70
32
0
SEQEND
8
0
0
POLYLINE
8
0
62
30
66
1
10
0
20
0
30
0
70
8
0
VERTEX
8
0
62
30
10
0.15918886
20
0.42131027
30
0
70
32
0
VERTEX
8
0
62
30
10
0.18747314
20
0.42131027
30
0
70
32
0
SEQEND
8
0
0
POLYLINE
8
0
62
30
66
1
10
0
20
0
30
0
70
8
0
VERTEX
8
0
62
30
10
0.21575741
20
0.42131027
30
0
70
32
0
VERTEX
8
0
62
30
10
0.24404168
20
0.42131027
30
0
70
32
0
SEQEND
8
0
0
POLYLINE
8
0
62
5
66
1
10
0
20
0
30
0
70
8
0
VERTEX
8
0
62
5
10
0.13090459
20
0.42131027
30
0
70
32
0
VERTEX
8
0
62
5
10
0.14504673
20
0.42131027
30
0
70
32
0
SEQEND
8
0
0
POLYLINE
8
0
62
5
66
1
10
0
20
0
30
0
70
8
0
VERTEX
8
0
62
5
10
0.18747314
20
0.42131027
30
0
70
32
0
VERTEX
8
0
62
5
10
0.20161527
20
0.42131027
30
0
70
32
0
SEQEND
8
0
0
POLYLINE
8
0
62
5
66
1
10
0
20
0
30
0
70
8
0
VERTEX
8
0
62
5
10
0.14504673
20
0.42131027
30
0
70
32
0
VERTEX
8
0
62
5
10
0.15918886
20
0.42131027
30
0
70
32
0
SEQEND
8
0
0
POLYLINE
8
0
62
5
66
1
10
0
20
0
30
0
70
8
0
VERTEX
8
0
62
5
10
0.20161527
20
0.42131027
30
0
70
32
0
VERTEX
8
0
62
5
10
0.21575741
20
0.42131027
30
0
70
32
0
SEQEND
8
0
0
POLYLINE
8
0
62
5
66
1
10
0
20
0
30
0
70
8
0
VERTEX
8
0
62
5
10
0.15918886
20
0.40131027
30
0
70
32
0
VERTEX
8
0
62
5
10
0.15918886
20
0.44131027
30
0
70
32
0
SEQEND
8
0
0
POLYLINE
8
0
62
5
66
1
10
0
20
0
30
0
70
8
0
VERTEX
8
0
62
5
10
0.18747314
20
0.40131027
30
0
70
32
0
VERTEX
8
0
62
5
10
0.18747314
20
0.44131027
30
0
70
32
0
SEQEND
8
0
0
POLYLINE
8
0
62
5
66
1
10
0
20
0
30
0
70
8
0
VERTEX
8
0
62
5
10
0.21575741
20
0.40131027
30
0
70
32
0
VERTEX
8
0
62
5
10
0.21575741
20
0.44131027
30
0
70
32
0
SEQEND
8
0
0
POLYLINE
8
0
62
5
66
1
10
0
20
0
30
0
70
8
0
VERTEX
8
0
62
5
10
0.13090459
20
0.40131027
30
0
70
32
0
VERTEX
8
0
62
5
10
0.13090459
20
0.44131027
30
0
70
32
0
SEQEND
8
0
0
POLYLINE
8
0
62
5
66
1
10
0
20
0
30
0
70
8
0
VERTEX
8
0
62
5
10
-0.095369576
20
0.40131027
30
0
70
32
0
VERTEX
8
0
62
5
10
-0.095369576
20
0.44131027
30
0
70
32
0
SEQEND
8
0
0
POLYLINE
8
0
62
5
66
1
10
0
20
0
30
0
70
8
0
VERTEX
8
0
62
5
10
-0.095369576
20
0.40131027
30
0
70
32
0
VERTEX
8
0
62
5
10
0.017767509
20
0.40131027
30
0
70
32
0
SEQEND
8
0
0
POLYLINE
8
0
62
5
66
1
10
0
20
0
30
0
70
8
0
VERTEX
8
0
62
5
10
-0.095369576
20
0.44131027
30
0
70
32
0
VERTEX
8
0
62
5
10
0.017767509
20
0.44131027
30
0
70
32
0
SEQEND
8
0
0
POLYLINE
8
0
62
5
66
1
10
0
20
0
30
0
70
8
0
VERTEX
8
0
62
5
10
-0.067085305
20
0.40131027
30
0
70
32
0
VERTEX
8
0
62
5
10
-0.067085305
20
0.40131027
30
0
70
32
0
SEQEND
8
0
0
POLYLINE
8
0
62
5
66
1
10
0
20
0
30
0
70
8
0
VERTEX
8
0
62
5
10
-0.038801034
20
0.40131027
30
0
70
32
0
VERTEX
8
0
62
5
10
-0.038801034
20
0.40131027
30
0
70
32
0
SEQEND
8
0
0
POLYLINE
8
0
62
5
66
1
10
0
20
0
30
0
70
8
0
VERTEX
8
0
62
5
10
-0.010516763
20
0.40131027
30
0
70
32
0
VERTEX
8
0
62
5
10
-0.010516763
20
0.40131027
30
0
70
32
0
SEQEND
8
0
0
POLYLINE
8
0
62
5
66
1
10
0
20
0
30
0
70
8
0
VERTEX
8
0
62
5
10
-0.067085305
20
0.44131027
30
0
70
32
0
VERTEX
8
0
62
5
10
-0.067085305
20
0.44131027
30
0
70
32
0
SEQEND
8
0
0
POLYLINE
8
0
62
5
66
1
10
0
20
0
30
0
70
8
0
VERTEX
8
0
62
5
10
-0.038801034
20
0.44131027
30
0
70
32
0
VERTEX
8
0
62
5
10
-0.038801034
20
0.44131027
30
0
70
32
0
SEQEND
8
0
0
POLYLINE
8
0
62
5
66
1
10
0
20
0
30
0
70
8
0
VERTEX
8
0
62
5
10
-0.010516763
20
0.44131027
30
0
70
32
0
VERTEX
8
0
62
5
10
-0.010516763
20
0.44131027
30
0
70
32
0
SEQEND
8
0
0
POLYLINE
8
0
62
30
66
1
10
0
20
0
30
0
70
8
0
VERTEX
8
0
62
30
10
-0.095369576
20
0.44131027
30
0
70
32
0
VERTEX
8
0
62
30
10
-0.067085305
20
0.40131027
30
0
70
32
0
SEQEND
8
0
0
POLYLINE
8
0
62
30
66
1
10
0
20
0
30
0
70
8
0
VERTEX
8
0
62
30
10
-0.067085305
20
0.44131027
30
0
70
32
0
VERTEX
8
0
62
30
10
-0.095369576
20
0.40131027
30
0
70
32
0
SEQEND
8
0
0
POLYLINE
8
0
62
30
66
1
10
0
20
0
30
0
70
8
0
VERTEX
8
0
62
30
10
-0.038801034
20
0.44131027
30
0
70
32
0
VERTEX
8
0
62
30
10
-0.010516763
20
0.40131027
30
0
70
32
0
SEQEND
8
0
0
POLYLINE
8
0
62
30
66
1
10
0
20
0
30
0
70
8
0
VERTEX
8
0
62
30
10
-0.010516763
20
0.44131027
30
0
70
32
0
VERTEX
8
0
62
30
10
-0.038801034
20
0.40131027
30
0
70
32
0
SEQEND
8
0
0
POLYLINE
8
0
62
30
66
1
10
0
20
0
30
0
70
8
0
VERTEX
8
0
62
30
10
-0.067085305
20
0.42131027
30
0
70
32
0
VERTEX
8
0
62
30
10
-0.038801034
20
0.42131027
30
0
70
32
0
SEQEND
8
0
0
POLYLINE
8
0
62
30
66
1
10
0
20
0
30
0
70
8
0
VERTEX
8
0
62
30
10
-0.010516763
20
0.42131027
30
0
70
32
0
VERTEX
8
0
62
30
10
0.017767509
20
0.42131027
30
0
70
32
0
SEQEND
8
0
0
POLYLINE
8
0
62
5
66
1
10
0
20
0
30
0
70
8
0
VERTEX
8
0
62
5
10
-0.095369576
20
0.42131027
30
0
70
32
0
VERTEX
8
0
62
5
10
-0.081227441
20
0.42131027
30
0
70
32
0
SEQEND
8
0
0
POLYLINE
8
0
62
5
66
1
10
0
20
0
30
0
70
8
0
VERTEX
8
0
62
5
10
-0.038801034
20
0.42131027
30
0
70
32
0
VERTEX
8
0
62
5
10
-0.024658898
20
0.42131027
30
0
70
32
0
SEQEND
8
0
0
POLYLINE
8
0
62
5
66
1
10
0
20
0
30
0
70
8
0
VERTEX
8
0
62
5
10
-0.081227441
20
0.42131027
30
0
70
32
0
VERTEX
8
0
62
5
10
-0.067085305
20
0.42131027
30
0
70
32
0
SEQEND
8
0
0
POLYLINE
8
0
62
5
66
1
10
0
20
0
30
0
70
8
0
VERTEX
8
0
62
5
10
-0.024658898
20
0.42131027
30
0
70
32
0
VERTEX
8
0
62
5
10
-0.010516763
20
0.42131027
30
0
70
32
0
SEQEND
8
0
0
POLYLINE
8
0
62
5
66
1
10
0
20
0
30
0
70
8
0
VERTEX
8
0
62
5
10
-0.067085305
20
0.40131027
30
0
70
32
0
VERTEX
8
0
62
5
10
-0.067085305
20
0.44131027
30
0
70
32
0
SEQEND
8
0
0
POLYLINE
8
0
62
5
66
1
10
0
20
0
30
0
70
8
0
VERTEX
8
0
62
5
10
-0.038801034
20
0.40131027
30
0
70
32
0
VERTEX
8
0
62
5
10
-0.038801034
20
0.44131027
30
0
70
32
0
SEQEND
8
0
0
POLYLINE
8
0
62
5
66
1
10
0
20
0
30
0
70
8
0
VERTEX
8
0
62
5
10
-0.010516763
20
0.40131027
30
0
70
32
0
VERTEX
8
0
62
5
10
-0.010516763
20
0.44131027
30
0
70
32
0
SEQEND
8
0
0
POLYLINE
8
0
62
5
66
1
10
0
20
0
30
0
70
8
0
VERTEX
8
0
62
5
10
-0.095369576
20
0.40131027
30
0
70
32
0
VERTEX
8
0
62
5
10
-0.095369576
20
0.44131027
30
0
70
32
0
SEQEND
8
0
0
POLYLINE
8
0
62
5
66
1
10
0
20
0
30
0
70
8
0
VERTEX
8
0
62
5
10
0.017767509
20
0.44131027
30
0
70
32
0
VERTEX
8
0
62
5
10
0.017767509
20
0.53830217
30
0
70
32
0
SEQEND
8
0
0
POLYLINE
8
0
62
5
66
1
10
0
20
0
30
0
70
8
0
VERTEX
8
0
62
5
10
0.13090459
20
0.53830217
30
0
70
32
0
VERTEX
8
0
62
5
10
0.13090459
20
0.44131027
30
0
70
32
0
SEQEND
8
0
0
POLYLINE
8
0
62
5
66
1
10
0
20
0
30
0
70
8
0
VERTEX
8
0
62
5
10
0.017767509
20
0.44132988
30
0
70
32
0
VERTEX
8
0
62
5
10
0.04605178
20
0.45413362
30
0
70
32
0
VERTEX
8
0
62
5
10
0.074336051
20
0.46555824
30
0
70
32
0
VERTEX
8
0
62
5
10
0.10262032
20
0.45275449
30
0
70
32
0
VERTEX
8
0
62
5
10
0.13090459
20
0.44132988
30
0
70
32
0
SEQEND
8
0
0
POLYLINE
8
0
62
5
66
1
10
0
20
0
30
0
70
8
0
VERTEX
8
0
62
5
10
0.017767509
20
0.48982583
30
0
70
32
0
VERTEX
8
0
62
5
10
0.04605178
20
0.50262958
30
0
70
32
0
VERTEX
8
0
62
5
10
0.074336051
20
0.51405419
30
0
70
32
0
VERTEX
8
0
62
5
10
0.10262032
20
0.50125045
30
0
70
32
0
VERTEX
8
0
62
5
10
0.13090459
20
0.48982583
30
0
70
32
0
SEQEND
8
0
0
POLYLINE
8
0
62
5
66
1
10
0
20
0
30
0
70
8
0
VERTEX
8
0
62
5
10
0.017767509
20
0.48978661
30
0
70
32
0
VERTEX
8
0
62
5
10
0.04605178
20
0.47698286
30
0
70
32
0
VERTEX
8
0
62
5
10
0.074336051
20
0.46555824
30
0
70
32
0
VERTEX
8
0
62
5
10
0.10262032
20
0.47836199
30
0
70
32
0
VERTEX
8
0
62
5
10
0.13090459
20
0.48978661
30
0
70
32
0
SEQEND
8
0
0
POLYLINE
8
0
62
5
66
1
10
0
20
0
30
0
70
8
0
VERTEX
8
0
62
5
10
0.017767509
20
0.53828256
30
0
70
32
0
VERTEX
8
0
62
5
10
0.04605178
20
0.52547881
30
0
70
32
0
VERTEX
8
0
62
5
10
0.074336051
20
0.51405419
30
0
70
32
0
VERTEX
8
0
62
5
10
0.10262032
20
0.52685794
30
0
70
32
0
VERTEX
8
0
62
5
10
0.13090459
20
0.53828256
30
0
70
32
0
SEQEND
8
0
0
POLYLINE
8
0
62
30
66
1
10
0
20
0
30
0
70
8
0
VERTEX
8
0
62
30
10
0.017767509
20
0.46555824
30
0
70
32
0
VERTEX
8
0
62
30
10
0.13090459
20
0.46555824
30
0
70
32
0
SEQEND
8
0
0
POLYLINE
8
0
62
30
66
1
10
0
20
0
30
0
70
8
0
VERTEX
8
0
62
30
10
0.017767509
20
0.51405419
30
0
70
32
0
VERTEX
8
0
62
30
10
0.13090459
20
0.51405419
30
0
70
32
0
SEQEND
8
0
0
POLYLINE
8
0
62
30
66
1
10
0
20
0
30
0
70
8
0
VERTEX
8
0
62
30
10
0.04605178
20
0.45413362
30
0
70
32
0
VERTEX
8
0
62
30
10
0.04605178
20
0.46555824
30
0
70
32
0
SEQEND
8
0
0
POLYLINE
8
0
62
30
66
1
10
0
20
0
30
0
70
8
0
VERTEX
8
0
62
30
10
0.074336051
20
0.46555824
30
0
70
32
0
VERTEX
8
0
62
30
10
0.074336051
20
0.46555824
30
0
70
32
0
SEQEND
8
0
0
POLYLINE
8
0
62
30
66
1
10
0
20
0
30
0
70
8
0
VERTEX
8
0
62
30
10
0.10262032
20
0.45275449
30
0
70
32
0
VERTEX
8
0
62
30
10
0.10262032
20
0.46555824
30
0
70
32
0
SEQEND
8
0
0
POLYLINE
8
0
62
30
66
1
10
0
20
0
30
0
70
8
0
VERTEX
8
0
62
30
10
0.04605178
20
0.50262958
30
0
70
32
0
VERTEX
8
0
62
30
10
0.04605178
20
0.51405419
30
0
70
32
0
SEQEND
8
0
0
POLYLINE
8
0
62
30
66
1
10
0
20
0
30
0
70
8
0
VERTEX
8
0
62
30
10
0.074336051
20
0.51405419
30
0
70
32
0
VERTEX
8
0
62
30
10
0.074336051
20
0.51405419
30
0
70
32
0
SEQEND
8
0
0
POLYLINE
8
0
62
30
66
1
10
0
20
0
30
0
70
8
0
VERTEX
8
0
62
30
10
0.10262032
20
0.50125045
30
0
70
32
0
VERTEX
8
0
62
30
10
0.10262032
20
0.51405419
30
0
70
32
0
SEQEND
8
0
0
POLYLINE
8
0
62
5
66
1
10
0
20
0
30
0
70
8
0
VERTEX
8
0
62
5
10
0.04605178
20
0.44131027
30
0
70
32
0
VERTEX
8
0
62
5
10
0.04605178
20
0.45413362
30
0
70
32
0
SEQEND
8
0
0
POLYLINE
8
0
62
5
66
1
10
0
20
0
30
0
70
8
0
VERTEX
8
0
62
5
10
0.074336051
20
0.44131027
30
0
70
32
0
VERTEX
8
0
62
5
10
0.074336051
20
0.46555824
30
0
70
32
0
SEQEND
8
0
0
POLYLINE
8
0
62
5
66
1
10
0
20
0
30
0
70
8
0
VERTEX
8
0
62
5
10
0.10262032
20
0.44131027
30
0
70
32
0
VERTEX
8
0
62
5
10
0.10262032
20
0.45275449
30
0
70
32
0
SEQEND
8
0
0
POLYLINE
8
0
62
5
66
1
10
0
20
0
30
0
70
8
0
VERTEX
8
0
62
5
10
0.04605178
20
0.48980622
30
0
70
32
0
VERTEX
8
0
62
5
10
0.04605178
20
0.50262958
30
0
70
32
0
SEQEND
8
0
0
POLYLINE
8
0
62
5
66
1
10
0
20
0
30
0
70
8
0
VERTEX
8
0
62
5
10
0.074336051
20
0.48980622
30
0
70
32
0
VERTEX
8
0
62
5
10
0.074336051
20
0.51405419
30
0
70
32
0
SEQEND
8
0
0
POLYLINE
8
0
62
5
66
1
10
0
20
0
30
0
70
8
0
VERTEX
8
0
62
5
10
0.10262032
20
0.48980622
30
0
70
32
0
VERTEX
8
0
62
5
10
0.10262032
20
0.50125045
30
0
70
32
0
SEQEND
8
0
0
POLYLINE
8
0
62
5
66
1
10
0
20
0
30
0
70
8
0
VERTEX
8
0
62
5
10
0.04605178
20
0.46555824
30
0
70
32
0
VERTEX
8
0
62
5
10
0.04605178
20
0.48980622
30
0
70
32
0
SEQEND
8
0
0
POLYLINE
8
0
62
5
66
1
10
0
20
0
30
0
70
8
0
VERTEX
8
0
62
5
10
0.074336051
20
0.46555824
30
0
70
32
0
VERTEX
8
0
62
5
10
0.074336051
20
0.48980622
30
0
70
32
0
SEQEND
8
0
0
POLYLINE
8
0
62
5
66
1
10
0
20
0
30
0
70
8
0
VERTEX
8
0
62
5
10
0.10262032
20
0.46555824
30
0
70
32
0
VERTEX
8
0
62
5
10
0.10262032
20
0.48980622
30
0
70
32
0
SEQEND
8
0
0
POLYLINE
8
0
62
5
66
1
10
0
20
0
30
0
70
8
0
VERTEX
8
0
62
5
10
0.04605178
20
0.51405419
30
0
70
32
0
VERTEX
8
0
62
5
10
0.04605178
20
0.53830217
30
0
70
32
0
SEQEND
8
0
0
POLYLINE
8
0
62
5
66
1
10
0
20
0
30
0
70
8
0
VERTEX
8
0
62
5
10
0.074336051
20
0.51405419
30
0
70
32
0
VERTEX
8
0
62
5
10
0.074336051
20
0.53830217
30
0
70
32
0
SEQEND
8
0
0
POLYLINE
8
0
62
5
66
1
10
0
20
0
30
0
70
8
0
VERTEX
8
0
62
5
10
0.10262032
20
0.51405419
30
0
70
32
0
VERTEX
8
0
62
5
10
0.10262032
20
0.53830217
30
0
70
32
0
SEQEND
8
0
0
POLYLINE
8
0
62
5
66
1
10
0
20
0
30
0
70
8
0
VERTEX
8
0
62
5
10
0.24404168
20
0.53830217
30
0
70
32
0
VERTEX
8
0
62
5
10
0.24404168
20
0.44131027
30
0
70
32
0
SEQEND
8
0
0
POLYLINE
8
0
62
5
66
1
10
0
20
0
30
0
70
8
0
VERTEX
8
0
62
5
10
0.13090459
20
0.44132988
30
0
70
32
0
VERTEX
8
0
62
5
10
0.15918886
20
0.45413362
30
0
70
32
0
VERTEX
8
0
62
5
10
0.18747314
20
0.46555824
30
0
70
32
0
VERTEX
8
0
62
5
10
0.21575741
20
0.45275449
30
0
70
32
0
VERTEX
8
0
62
5
10
0.24404168
20
0.44132988
30
0
70
32
0
SEQEND
8
0
0
POLYLINE
8
0
62
5
66
1
10
0
20
0
30
0
70
8
0
VERTEX
8
0
62
5
10
0.13090459
20
0.48982583
30
0
70
32
0
VERTEX
8
0
62
5
10
0.15918886
20
0.50262958
30
0
70
32
0
VERTEX
8
0
62
5
10
0.18747314
20
0.51405419
30
0
70
32
0
VERTEX
8
0
62
5
10
0.21575741
20
0.50125045
30
0
70
32
0
VERTEX
8
0
62
5
10
0.24404168
20
0.48982583
30
0
70
32
0
SEQEND
8
0
0
POLYLINE
8
0
62
5
66
1
10
0
20
0
30
0
70
8
0
VERTEX
8
0
62
5
10
0.13090459
20
0.48978661
30
0
70
32
0
VERTEX
8
0
62
5
10
0.15918886
20
0.47698286
30
0
70
32
0
VERTEX
8
0
62
5
10
0.18747314
20
0.46555824
30
0
70
32
0
VERTEX
8
0
62
5
10
0.21575741
20
0.47836199
30
0
70
32
0
VERTEX
8
0
62
5
10
0.24404168
20
0.48978661
30
0
70
32
0
SEQEND
8
0
0
POLYLINE
8
0
62
5
66
1
10
0
20
0
30
0
70
8
0
VERTEX
8
0
62
5
10
0.13090459
20
0.53828256
30
0
70
32
0
VERTEX
8
0
62
5
10
0.15918886
20
0.52547881
30
0
70
32
0
VERTEX
8
0
62
5
10
0.18747314
20
0.51405419
30
0
70
32
0
VERTEX
8
0
62
5
10
0.21575741
20
0.52685794
30
0
70
32
0
VERTEX
8
0
62
5
10
0.24404168
20
0.53828256
30
0
70
32
0
SEQEND
8
0
0
POLYLINE
8
0
62
30
66
1
10
0
20
0
30
0
70
8
0
VERTEX
8
0
62
30
10
0.13090459
20
0.46555824
30
0
70
32
0
VERTEX
8
0
62
30
10
0.24404168
20
0.46555824
30
0
70
32
0
SEQEND
8
0
0
POLYLINE
8
0
62
30
66
1
10
0
20
0
30
0
70
8
0
VERTEX
8
0
62
30
10
0.13090459
20
0.51405419
30
0
70
32
0
VERTEX
8
0
62
30
10
0.24404168
20
0.51405419
30
0
70
32
0
SEQEND
8
0
0
POLYLINE
8
0
62
30
66
1
10
0
20
0
30
0
70
8
0
VERTEX
8
0
62
30
10
0.15918886
20
0.45413362
30
0
70
32
0
VERTEX
8
0
62
30
10
0.15918886
20
0.46555824
30
0
70
32
0
SEQEND
8
0
0
POLYLINE
8
0
62
30
66
1
10
0
20
0
30
0
70
8
0
VERTEX
8
0
62
30
10
0.18747314
20
0.46555824
30
0
70
32
0
VERTEX
8
0
62
30
10
0.18747314
20
0.46555824
30
0
70
32
0
SEQEND
8
0
0
POLYLINE
8
0
62
30
66
1
10
0
20
0
30
0
70
8
0
VERTEX
8
0
62
30
10
0.21575741
20
0.45275449
30
0
70
32
0
VERTEX
8
0
62
30
10
0.21575741
20
0.46555824
30
0
70
32
0
SEQEND
8
0
0
POLYLINE
8
0
62
30
66
1
10
0
20
0
30
0
70
8
0
VERTEX
8
0
62
30
10
0.15918886
20
0.50262958
30
0
70
32
0
VERTEX
8
0
62
30
10
0.15918886
20
0.51405419
30
0
70
32
0
SEQEND
8
0
0
POLYLINE
8
0
62
30
66
1
10
0
20
0
30
0
70
8
0
VERTEX
8
0
62
30
10
0.18747314
20
0.51405419
30
0
70
32
0
VERTEX
8
0
62
30
10
0.18747314
20
0.51405419
30
0
70
32
0
SEQEND
8
0
0
POLYLINE
8
0
62
30
66
1
10
0
20
0
30
0
70
8
0
VERTEX
8
0
62
30
10
0.21575741
20
0.50125045
30
0
70
32
0
VERTEX
8
0
62
30
10
0.21575741
20
0.51405419
30
0
70
32
0
SEQEND
8
0
0
POLYLINE
8
0
62
5
66
1
10
0
20
0
30
0
70
8
0
VERTEX
8
0
62
5
10
0.15918886
20
0.44131027
30
0
70
32
0
VERTEX
8
0
62
5
10
0.15918886
20
0.45413362
30
0
70
32
0
SEQEND
8
0
0
POLYLINE
8
0
62
5
66
1
10
0
20
0
30
0
70
8
0
VERTEX
8
0
62
5
10
0.18747314
20
0.44131027
30
0
70
32
0
VERTEX
8
0
62
5
10
0.18747314
20
0.46555824
30
0
70
32
0
SEQEND
8
0
0
POLYLINE
8
0
62
5
66
1
10
0
20
0
30
0
70
8
0
VERTEX
8
0
62
5
10
0.21575741
20
0.44131027
30
0
70
32
0
VERTEX
8
0
62
5
10
0.21575741
20
0.45275449
30
0
70
32
0
SEQEND
8
0
0
POLYLINE
8
0
62
5
66
1
10
0
20
0
30
0
70
8
0
VERTEX
8
0
62
5
10
0.15918886
20
0.48980622
30
0
70
32
0
VERTEX
8
0
62
5
10
0.15918886
20
0.50262958
30
0
70
32
0
SEQEND
8
0
0
POLYLINE
8
0
62
5
66
1
10
0
20
0
30
0
70
8
0
VERTEX
8
0
62
5
10
0.18747314
20
0.48980622
30
0
70
32
0
VERTEX
8
0
62
5
10
0.18747314
20
0.51405419
30
0
70
32
0
SEQEND
8
0
0
POLYLINE
8
0
62
5
66
1
10
0
20
0
30
0
70
8
0
VERTEX
8
0
62
5
10
0.21575741
20
0.48980622
30
0
70
32
0
VERTEX
8
0
62
5
10
0.21575741
20
0.50125045
30
0
70
32
0
SEQEND
8
0
0
POLYLINE
8
0
62
5
66
1
10
0
20
0
30
0
70
8
0
VERTEX
8
0
62
5
10
0.15918886
20
0.46555824
30
0
70
32
0
VERTEX
8
0
62
5
10
0.15918886
20
0.48980622
30
0
70
32
0
SEQEND
8
0
0
POLYLINE
8
0
62
5
66
1
10
0
20
0
30
0
70
8
0
VERTEX
8
0
62
5
10
0.18747314
20
0.46555824
30
0
70
32
0
VERTEX
8
0
62
5
10
0.18747314
20
0.48980622
30
0
70
32
0
SEQEND
8
0
0
POLYLINE
8
0
62
5
66
1
10
0
20
0
30
0
70
8
0
VERTEX
8
0
62
5
10
0.21575741
20
0.46555824
30
0
70
32
0
VERTEX
8
0
62
5
10
0.21575741
20
0.48980622
30
0
70
32
0
SEQEND
8
0
0
POLYLINE
8
0
62
5
66
1
10
0
20
0
30
0
70
8
0
VERTEX
8
0
62
5
10
0.15918886
20
0.51405419
30
0
70
32
0
VERTEX
8
0
62
5
10
0.15918886
20
0.53830217
30
0
70
32
0
SEQEND
8
0
0
POLYLINE
8
0
62
5
66
1
10
0
20
0
30
0
70
8
0
VERTEX
8
0
62
5
10
0.18747314
20
0.51405419
30
0
70
32
0
VERTEX
8
0
62
5
10
0.18747314
20
0.53830217
30
0
70
32
0
SEQEND
8
0
0
POLYLINE
8
0
62
5
66
1
10
0
20
0
30
0
70
8
0
VERTEX
8
0
62
5
10
0.21575741
20
0.51405419
30
0
70
32
0
VERTEX
8
0
62
5
10
0.21575741
20
0.53830217
30
0
70
32
0
SEQEND
8
0
0
POLYLINE
8
0
62
5
66
1
10
0
20
0
30
0
70
8
0
VERTEX
8
0
62
5
10
-0.095369576
20
0.44131027
30
0
70
32
0
VERTEX
8
0
62
5
10
-0.095369576
20
0.53830217
30
0
70
32
0
SEQEND
8
0
0
POLYLINE
8
0
62
5
66
1
10
0
20
0
30
0
70
8
0
VERTEX
8
0
62
5
10
-0.095369576
20
0.44132988
30
0
70
32
0
VERTEX
8
0
62
5
10
-0.067085305
20
0.45413362
30
0
70
32
0
VERTEX
8
0
62
5
10
-0.038801034
20
0.46555824
30
0
70
32
0
VERTEX
8
0
62
5
10
-0.010516763
20
0.45275449
30
0
70
32
0
VERTEX
8
0
62
5
10
0.017767509
20
0.44132988
30
0
70
32
0
SEQEND
8
0
0
POLYLINE
8
0
62
5
66
1
10
0
20
0
30
0
70
8
0
VERTEX
8
0
62
5
10
-0.095369576
20
0.48982583
30
0
70
32
0
VERTEX
8
0
62
5
10
-0.067085305
20
0.50262958
30
0
70
32
0
VERTEX
8
0
62
5
10
-0.038801034
20
0.51405419
30
0
70
32
0
VERTEX
8
0
62
5
10
-0.010516763
20
0.50125045
30
0
70
32
0
VERTEX
8
0
62
5
10
0.017767509
20
0.48982583
30
0
70
32
0
SEQEND
8
0
0
POLYLINE
8
0
62
5
66
1
10
0
20
0
30
0
70
8
0
VERTEX
8
0
62
5
10
-0.095369576
20
0.48978661
30
0
70
32
0
VERTEX
8
0
62
5
10
-0.067085305
20
0.47698286
30
0
70
32
0
VERTEX
8
0
62
5
10
-0.038801034
20
0.46555824
30
0
70
32
0
VERTEX
8
0
62
5
10
-0.010516763
20
0.47836199
30
0
70
32
0
VERTEX
8
0
62
5
10
0.017767509
20
0.48978661
30
0
70
32
0
SEQEND
8
0
0
POLYLINE
8
0
62
5
66
1
10
0
20
0
30
0
70
8
0
VERTEX
8
0
62
5
10
-0.095369576
20
0.53828256
30
0
70
32
0
VERTEX
8
0
62
5
10
-0.067085305
20
0.52547881
30
0
70
32
0
VERTEX
8
0
62
5
10
-0.038801034
20
0.51405419
30
0
70
32
0
VERTEX
8
0
62
5
10
-0.010516763
20
0.52685794
30
0
70
32
0
VERTEX
8
0
62
5
10
0.017767509
20
0.53828256
30
0
70
32
0
SEQEND
8
0
0
POLYLINE
8
0
62
30
66
1
10
0
20
0
30
0
70
8
0
VERTEX
8
0
62
30
10
-0.095369576
20
0.46555824
30
0
70
32
0
VERTEX
8
0
62
30
10
0.017767509
20
0.46555824
30
0
70
32
0
SEQEND
8
0
0
POLYLINE
8
0
62
30
66
1
10
0
20
0
30
0
70
8
0
VERTEX
8
0
62
30
10
-0.095369576
20
0.51405419
30
0
70
32
0
VERTEX
8
0
62
30
10
0.017767509
20
0.51405419
30
0
70
32
0
SEQEND
8
0
0
POLYLINE
8
0
62
30
66
1
10
0
20
0
30
0
70
8
0
VERTEX
8
0
62
30
10
-0.067085305
20
0.45413362
30
0
70
32
0
VERTEX
8
0
62
30
10
-0.067085305
20
0.46555824
30
0
70
32
0
SEQEND
8
0
0
POLYLINE
8
0
62
30
66
1
10
0
20
0
30
0
70
8
0
VERTEX
8
0
62
30
10
-0.038801034
20
0.46555824
30
0
70
32
0
VERTEX
8
0
62
30
10
-0.038801034
20
0.46555824
30
0
70
32
0
SEQEND
8
0
0
POLYLINE
8
0
62
30
66
1
10
0
20
0
30
0
70
8
0
VERTEX
8
0
62
30
10
-0.010516763
20
0.45275449
30
0
70
32
0
VERTEX
8
0
62
30
10
-0.010516763
20
0.46555824
30
0
70
32
0
SEQEND
8
0
0
POLYLINE
8
0
62
30
66
1
10
0
20
0
30
0
70
8
0
VERTEX
8
0
62
30
10
-0.067085305
20
0.50262958
30
0
70
32
0
VERTEX
8
0
62
30
10
-0.067085305
20
0.51405419
30
0
70
32
0
SEQEND
8
0
0
POLYLINE
8
0
62
30
66
1
10
0
20
0
30
0
70
8
0
VERTEX
8
0
62
30
10
-0.038801034
20
0.51405419
30
0
70
32
0
VERTEX
8
0
62
30
10
-0.038801034
20
0.51405419
30
0
70
32
0
SEQEND
8
0
0
POLYLINE
8
0
62
30
66
1
10
0
20
0
30
0
70
8
0
VERTEX
8
0
62
30
10
-0.010516763
20
0.50125045
30
0
70
32
0
VERTEX
8
0
62
30
10
-0.010516763
20
0.51405419
30
0
70
32
0
SEQEND
8
0
0
POLYLINE
8
0
62
5
66
1
10
0
20
0
30
0
70
8
0
VERTEX
8
0
62
5
10
-0.067085305
20
0.44131027
30
0
70
32
0
VERTEX
8
0
62
5
10
-0.067085305
20
0.45413362
30
0
70
32
0
SEQEND
8
0
0
POLYLINE
8
0
62
5
66
1
10
0
20
0
30
0
70
8
0
VERTEX
8
0
62
5
10
-0.038801034
20
0.44131027
30
0
70
32
0
VERTEX
8
0
62
5
10
-0.038801034
20
0.46555824
30
0
70
32
0
SEQEND
8
0
0
POLYLINE
8
0
62
5
66
1
10
0
20
0
30
0
70
8
0
VERTEX
8
0
62
5
10
-0.010516763
20
0.44131027
30
0
70
32
0
VERTEX
8
0
62
5
10
-0.010516763
20
0.45275449
30
0
70
32
0
SEQEND
8
0
0
POLYLINE
8
0
62
5
66
1
10
0
20
0
30
0
70
8
0
VERTEX
8
0
62
5
10
-0.067085305
20
0.48980622
30
0
70
32
0
VERTEX
8
0
62
5
10
-0.067085305
20
0.50262958
30
0
70
32
0
SEQEND
8
0
0
POLYLINE
8
0
62
5
66
1
10
0
20
0
30
0
70
8
0
VERTEX
8
0
62
5
10
-0.038801034
20
0.48980622
30
0
70
32
0
VERTEX
8
0
62
5
10
-0.038801034
20
0.51405419
30
0
70
32
0
SEQEND
8
0
0
POLYLINE
8
0
62
5
66
1
10
0
20
0
30
0
70
8
0
VERTEX
8
0
62
5
10
-0.010516763
20
0.48980622
30
0
70
32
0
VERTEX
8
0
62
5
10
-0.010516763
20
0.50125045
30
0
70
32
0
SEQEND
8
0
0
POLYLINE
8
0
62
5
66
1
10
0
20
0
30
0
70
8
0
VERTEX
8
0
62
5
10
-0.067085305
20
0.46555824
30
0
70
32
0
VERTEX
8
0
62
5
10
-0.067085305
20
0.48980622
30
0
70
32
0
SEQEND
8
0
0
POLYLINE
8
0
62
5
66
1
10
0
20
0
30
0
70
8
0
VERTEX
8
0
62
5
10
-0.038801034
20
0.46555824
30
0
70
32
0
VERTEX
8
0
62
5
10
-0.038801034
20
0.48980622
30
0
70
32
0
SEQEND
8
0
0
POLYLINE
8
0
62
5
66
1
10
0
20
0
30
0
70
8
0
VERTEX
8
0
62
5
10
-0.010516763
20
0.46555824
30
0
70
32
0
VERTEX
8
0
62
5
10
-0.010516763
20
0.48980622
30
0
70
32
0
SEQEND
8
0
0
POLYLINE
8
0
62
5
66
1
10
0
20
0
30
0
70
8
0
VERTEX
8
0
62
5
10
-0.067085305
20
0.51405419
30
0
70
32
0
VERTEX
8
0
62
5
10
-0.067085305
20
0.53830217
30
0
70
32
0
SEQEND
8
0
0
POLYLINE
8
0
62
5
66
1
10
0
20
0
30
0
70
8
0
VERTEX
8
0
62
5
10
-0.038801034
20
0.51405419
30
0
70
32
0
VERTEX
8
0
62
5
10
-0.038801034
20
0.53830217
30
0
70
32
0
SEQEND
8
0
0
POLYLINE
8
0
62
5
66
1
10
0
20
0
30
0
70
8
0
VERTEX
8
0
62
5
10
-0.010516763
20
0.51405419
30
0
70
32
0
VERTEX
8
0
62
5
10
-0.010516763
20
0.53830217
30
0
70
32
0
SEQEND
8
0
0
POLYLINE
8
0
62
30
66
1
10
0
20
0
30
0
70
8
0
VERTEX
8
0
62
30
10
0.017767509
20
0.54859763
30
0
70
32
0
VERTEX
8
0
62
30
10
0.13090459
20
0.54859763
30
0
70
32
0
SEQEND
8
0
0
POLYLINE
8
0
62
30
66
1
10
0
20
0
30
0
70
8
0
VERTEX
8
0
62
30
10
0.017767509
20
0.53830217
30
0
70
32
0
VERTEX
8
0
62
30
10
0.13090459
20
0.53830217
30
0
70
32
0
SEQEND
8
0
0
POLYLINE
8
0
62
5
66
1
10
0
20
0
30
0
70
8
0
VERTEX
8
0
62
5
10
0.017767509
20
0.53830217
30
0
70
32
0
VERTEX
8
0
62
5
10
0.035535019
20
0.54859763
30
0
70
32
0
VERTEX
8
0
62
5
10
0.04605178
20
0.53830217
30
0
70
32
0
VERTEX
8
0
62
5
10
0.06381929
20
0.54859763
30
0
70
32
0
VERTEX
8
0
62
5
10
0.074336051
20
0.53830217
30
0
70
32
0
VERTEX
8
0
62
5
10
0.092103562
20
0.54859763
30
0
70
32
0
VERTEX
8
0
62
5
10
0.10262032
20
0.53830217
30
0
70
32
0
VERTEX
8
0
62
5
10
0.12038783
20
0.54859763
30
0
70
32
0
VERTEX
8
0
62
5
10
0.13090459
20
0.53830217
30
0
70
32
0
SEQEND
8
0
0
POLYLINE
8
0
62
5
66
1
10
0
20
0
30
0
70
8
0
VERTEX
8
0
62
5
10
0.04605178
20
0.53830217
30
0
70
32
0
VERTEX
8
0
62
5
10
0.04605178
20
0.53830217
30
0
70
32
0
SEQEND
8
0
0
POLYLINE
8
0
62
5
66
1
10
0
20
0
30
0
70
8
0
VERTEX
8
0
62
5
10
0.074336051
20
0.53830217
30
0
70
32
0
VERTEX
8
0
62
5
10
0.074336051
20
0.53830217
30
0
70
32
0
SEQEND
8
0
0
POLYLINE
8
0
62
5
66
1
10
0
20
0
30
0
70
8
0
VERTEX
8
0
62
5
10
0.10262032
20
0.53830217
30
0
70
32
0
VERTEX
8
0
62
5
10
0.10262032
20
0.53830217
30
0
70
32
0
SEQEND
8
0
0
POLYLINE
8
0
62
5
66
1
10
0
20
0
30
0
70
8
0
VERTEX
8
0
62
5
10
0.035535019
20
0.54859763
30
0
70
32
0
VERTEX
8
0
62
5
10
0.035535019
20
0.54859763
30
0
70
32
0
SEQEND
8
0
0
POLYLINE
8
0
62
5
66
1
10
0
20
0
30
0
70
8
0
VERTEX
8
0
62
5
10
0.06381929
20
0.54859763
30
0
70
32
0
VERTEX
8
0
62
5
10
0.06381929
20
0.54859763
30
0
70
32
0
SEQEND
8
0
0
POLYLINE
8
0
62
5
66
1
10
0
20
0
30
0
70
8
0
VERTEX
8
0
62
5
10
0.092103562
20
0.54859763
30
0
70
32
0
VERTEX
8
0
62
5
10
0.092103562
20
0.54859763
30
0
70
32
0
SEQEND
8
0
0
POLYLINE
8
0
62
5
66
1
10
0
20
0
30
0
70
8
0
VERTEX
8
0
62
5
10
0.12038783
20
0.54859763
30
0
70
32
0
VERTEX
8
0
62
5
10
0.12038783
20
0.54859763
30
0
70
32
0
SEQEND
8
0
0
POLYLINE
8
0
62
30
66
1
10
0
20
0
30
0
70
8
0
VERTEX
8
0
62
30
10
0.13090459
20
0.54859763
30
0
70
32
0
VERTEX
8
0
62
30
10
0.24404168
20
0.54859763
30
0
70
32
0
SEQEND
8
0
0
POLYLINE
8
0
62
30
66
1
10
0
20
0
30
0
70
8
0
VERTEX
8
0
62
30
10
0.13090459
20
0.53830217
30
0
70
32
0
VERTEX
8
0
62
30
10
0.24404168
20
0.53830217
30
0
70
32
0
SEQEND
8
0
0
POLYLINE
8
0
62
5
66
1
10
0
20
0
30
0
70
8
0
VERTEX
8
0
62
5
10
0.13090459
20
0.53830217
30
0
70
32
0
VERTEX
8
0
62
5
10
0.1486721
20
0.54859763
30
0
70
32
0
VERTEX
8
0
62
5
10
0.15918886
20
0.53830217
30
0
70
32
0
VERTEX
8
0
62
5
10
0.17695638
20
0.54859763
30
0
70
32
0
VERTEX
8
0
62
5
10
0.18747314
20
0.53830217
30
0
70
32
0
VERTEX
8
0
62
5
10
0.20524065
20
0.54859763
30
0
70
32
0
VERTEX
8
0
62
5
10
0.21575741
20
0.53830217
30
0
70
32
0
VERTEX
8
0
62
5
10
0.23352492
20
0.54859763
30
0
70
32
0
VERTEX
8
0
62
5
10
0.24404168
20
0.53830217
30
0
70
32
0
SEQEND
8
0
0
POLYLINE
8
0
62
5
66
1
10
0
20
0
30
0
70
8
0
VERTEX
8
0
62
5
10
0.15918886
20
0.53830217
30
0
70
32
0
VERTEX
8
0
62
5
10
0.15918886
20
0.53830217
30
0
70
32
0
SEQEND
8
0
0
POLYLINE
8
0
62
5
66
1
10
0
20
0
30
0
70
8
0
VERTEX
8
0
62
5
10
0.18747314
20
0.53830217
30
0
70
32
0
VERTEX
8
0
62
5
10
0.18747314
20
0.53830217
30
0
70
32
0
SEQEND
8
0
0
POLYLINE
8
0
62
5
66
1
10
0
20
0
30
0
70
8
0
VERTEX
8
0
62
5
10
0.21575741
20
0.53830217
30
0
70
32
0
VERTEX
8
0
62
5
10
0.21575741
20
0.53830217
30
0
70
32
0
SEQEND
8
0
0
POLYLINE
8
0
62
5
66
1
10
0
20
0
30
0
70
8
0
VERTEX
8
0
62
5
10
0.1486721
20
0.54859763
30
0
70
32
0
VERTEX
8
0
62
5
10
0.1486721
20
0.54859763
30
0
70
32
0
SEQEND
8
0
0
POLYLINE
8
0
62
5
66
1
10
0
20
0
30
0
70
8
0
VERTEX
8
0
62
5
10
0.17695638
20
0.54859763
30
0
70
32
0
VERTEX
8
0
62
5
10
0.17695638
20
0.54859763
30
0
70
32
0
SEQEND
8
0
0
POLYLINE
8
0
62
5
66
1
10
0
20
0
30
0
70
8
0
VERTEX
8
0
62
5
10
0.20524065
20
0.54859763
30
0
70
32
0
VERTEX
8
0
62
5
10
0.20524065
20
0.54859763
30
0
70
32
0
SEQEND
8
0
0
POLYLINE
8
0
62
5
66
1
10
0
20
0
30
0
70
8
0
VERTEX
8
0
62
5
10
0.23352492
20
0.54859763
30
0
70
32
0
VERTEX
8
0
62
5
10
0.23352492
20
0.54859763
30
0
70
32
0
SEQEND
8
0
0
POLYLINE
8
0
62
30
66
1
10
0
20
0
30
0
70
8
0
VERTEX
8
0
62
30
10
-0.095369576
20
0.54859763
30
0
70
32
0
VERTEX
8
0
62
30
10
0.017767509
20
0.54859763
30
0
70
32
0
SEQEND
8
0
0
POLYLINE
8
0
62
30
66
1
10
0
20
0
30
0
70
8
0
VERTEX
8
0
62
30
10
-0.095369576
20
0.53830217
30
0
70
32
0
VERTEX
8
0
62
30
10
0.017767509
20
0.53830217
30
0
70
32
0
SEQEND
8
0
0
POLYLINE
8
0
62
5
66
1
10
0
20
0
30
0
70
8
0
VERTEX
8
0
62
5
10
-0.095369576
20
0.53830217
30
0
70
32
0
VERTEX
8
0
62
5
10
-0.077602066
20
0.54859763
30
0
70
32
0
VERTEX
8
0
62
5
10
-0.067085305
20
0.53830217
30
0
70
32
0
VERTEX
8
0
62
5
10
-0.049317795
20
0.54859763
30
0
70
32
0
VERTEX
8
0
62
5
10
-0.038801034
20
0.53830217
30
0
70
32
0
VERTEX
8
0
62
5
10
-0.021033523
20
0.54859763
30
0
70
32
0
VERTEX
8
0
62
5
10
-0.010516763
20
0.53830217
30
0
70
32
0
VERTEX
8
0
62
5
10
0.0072507479
20
0.54859763
30
0
70
32
0
VERTEX
8
0
62
5
10
0.017767509
20
0.53830217
30
0
70
32
0
SEQEND
8
0
0
POLYLINE
8
0
62
5
66
1
10
0
20
0
30
0
70
8
0
VERTEX
8
0
62
5
10
-0.067085305
20
0.53830217
30
0
70
32
0
VERTEX
8
0
62
5
10
-0.067085305
20
0.53830217
30
0
70
32
0
SEQEND
8
0
0
POLYLINE
8
0
62
5
66
1
10
0
20
0
30
0
70
8
0
VERTEX
8
0
62
5
10
-0.038801034
20
0.53830217
30
0
70
32
0
VERTEX
8
0
62
5
10
-0.038801034
20
0.53830217
30
0
70
32
0
SEQEND
8
0
0
POLYLINE
8
0
62
5
66
1
10
0
20
0
30
0
70
8
0
VERTEX
8
0
62
5
10
-0.010516763
20
0.53830217
30
0
70
32
0
VERTEX
8
0
62
5
10
-0.010516763
20
0.53830217
30
0
70
32
0
SEQEND
8
0
0
POLYLINE
8
0
62
5
66
1
10
0
20
0
30
0
70
8
0
VERTEX
8
0
62
5
10
-0.077602066
20
0.54859763
30
0
70
32
0
VERTEX
8
0
62
5
10
-0.077602066
20
0.54859763
30
0
70
32
0
SEQEND
8
0
0
POLYLINE
8
0
62
5
66
1
10
0
20
0
30
0
70
8
0
VERTEX
8
0
62
5
10
-0.049317795
20
0.54859763
30
0
70
32
0
VERTEX
8
0
62
5
10
-0.049317795
20
0.54859763
30
0
70
32
0
SEQEND
8
0
0
POLYLINE
8
0
62
5
66
1
10
0
20
0
30
0
70
8
0
VERTEX
8
0
62
5
10
-0.021033523
20
0.54859763
30
0
70
32
0
VERTEX
8
0
62
5
10
-0.021033523
20
0.54859763
30
0
70
32
0
SEQEND
8
0
0
POLYLINE
8
0
62
5
66
1
10
0
20
0
30
0
70
8
0
VERTEX
8
0
62
5
10
0.0072507479
20
0.54859763
30
0
70
32
0
VERTEX
8
0
62
5
10
0.0072507479
20
0.54859763
30
0
70
32
0
SEQEND
8
0
0
POLYLINE
8
0
62
5
66
1
10
0
20
0
30
0
70
8
0
VERTEX
8
0
62
5
10
0.06381929
20
0.54859763
30
0
70
32
0
VERTEX
8
0
62
5
10
0.06381929
20
0.58334334
30
0
70
32
0
SEQEND
8
0
0
POLYLINE
8
0
62
5
66
1
10
0
20
0
30
0
70
8
0
VERTEX
8
0
62
5
10
0.17695638
20
0.54859763
30
0
70
32
0
VERTEX
8
0
62
5
10
0.17695638
20
0.58334334
30
0
70
32
0
SEQEND
8
0
0
POLYLINE
8
0
62
5
66
1
10
0
20
0
30
0
70
8
0
VERTEX
8
0
62
5
10
0.092103562
20
0.54859763
30
0
70
32
0
VERTEX
8
0
62
5
10
0.092103562
20
0.58334334
30
0
70
32
0
SEQEND
8
0
0
POLYLINE
8
0
62
5
66
1
10
0
20
0
30
0
70
8
0
VERTEX
8
0
62
5
10
0.12038783
20
0.54859763
30
0
70
32
0
VERTEX
8
0
62
5
10
0.12038783
20
0.58334334
30
0
70
32
0
SEQEND
8
0
0
POLYLINE
8
0
62
5
66
1
10
0
20
0
30
0
70
8
0
VERTEX
8
0
62
5
10
0.1486721
20
0.54859763
30
0
70
32
0
VERTEX
8
0
62
5
10
0.1486721
20
0.58334334
30
0
70
32
0
SEQEND
8
0
0
POLYLINE
8
0
62
5
66
1
10
0
20
0
30
0
70
8
0
VERTEX
8
0
62
5
10
0.29009346
20
0.54859763
30
0
70
32
0
VERTEX
8
0
62
5
10
0.29009346
20
0.58334334
30
0
70
32
0
SEQEND
8
0
0
POLYLINE
8
0
62
5
66
1
10
0
20
0
30
0
70
8
0
VERTEX
8
0
62
5
10
0.20524065
20
0.54859763
30
0
70
32
0
VERTEX
8
0
62
5
10
0.20524065
20
0.58334334
30
0
70
32
0
SEQEND
8
0
0
POLYLINE
8
0
62
5
66
1
10
0
20
0
30
0
70
8
0
VERTEX
8
0
62
5
10
0.23352492
20
0.54859763
30
0
70
32
0
VERTEX
8
0
62
5
10
0.23352492
20
0.58334334
30
0
70
32
0
SEQEND
8
0
0
POLYLINE
8
0
62
5
66
1
10
0
20
0
30
0
70
8
0
VERTEX
8
0
62
5
10
0.26180919
20
0.54859763
30
0
70
32
0
VERTEX
8
0
62
5
10
0.26180919
20
0.58334334
30
0
70
32
0
SEQEND
8
0
0
POLYLINE
8
0
62
5
66
1
10
0
20
0
30
0
70
8
0
VERTEX
8
0
62
5
10
-0.049317795
20
0.54859763
30
0
70
32
0
VERTEX
8
0
62
5
10
-0.049317795
20
0.58334334
30
0
70
32
0
SEQEND
8
0
0
POLYLINE
8
0
62
5
66
1
10
0
20
0
30
0
70
8
0
VERTEX
8
0
62
5
10
-0.021033523
20
0.54859763
30
0
70
32
0
VERTEX
8
0
62
5
10
-0.021033523
20
0.58334334
30
0
70
32
0
SEQEND
8
0
0
POLYLINE
8
0
62
5
66
1
10
0
20
0
30
0
70
8
0
VERTEX
8
0
62
5
10
0.0072507479
20
0.54859763
30
0
70
32
0
VERTEX
8
0
62
5
10
0.0072507479
20
0.58334334
30
0
70
32
0
SEQEND
8
0
0
POLYLINE
8
0
62
5
66
1
10
0
20
0
30
0
70
8
0
VERTEX
8
0
62
5
10
0.035535019
20
0.54859763
30
0
70
32
0
VERTEX
8
0
62
5
10
0.035535019
20
0.58334334
30
0
70
32
0
SEQEND
8
0
0
POLYLINE
8
0
62
5
66
1
10
0
20
0
30
0
70
8
0
VERTEX
8
0
62
5
10
0.06381929
20
0.58334334
30
0
70
32
0
VERTEX
8
0
62
5
10
0.06381929
20
0.62262559
30
0
70
32
0
SEQEND
8
0
0
POLYLINE
8
0
62
5
66
1
10
0
20
0
30
0
70
8
0
VERTEX
8
0
62
5
10
0.17695638
20
0.62262559
30
0
70
32
0
VERTEX
8
0
62
5
10
0.17695638
20
0.58334334
30
0
70
32
0
SEQEND
8
0
0
POLYLINE
8
0
62
5
66
1
10
0
20
0
30
0
70
8
0
VERTEX
8
0
62
5
10
0.06381929
20
0.59292175
30
0
70
32
0
VERTEX
8
0
62
5
10
0.092103562
20
0.58334636
30
0
70
32
0
VERTEX
8
0
62
5
10
0.12038783
20
0.59340907
30
0
70
32
0
VERTEX
8
0
62
5
10
0.1486721
20
0.60298446
30
0
70
32
0
VERTEX
8
0
62
5
10
0.17695638
20
0.59292175
30
0
70
32
0
SEQEND
8
0
0
POLYLINE
8
0
62
5
66
1
10
0
20
0
30
0
70
8
0
SEQEND
8
0
0
POLYLINE
8
0
62
5
66
1
10
0
20
0
30
0
70
8
0
VERTEX
8
0
62
5
10
0.06381929
20
0.61304717
30
0
70
32
0
VERTEX
8
0
62
5
10
0.092103562
20
0.62262256
30
0
70
32
0
VERTEX
8
0
62
5
10
0.12038783
20
0.61255986
30
0
70
32
0
VERTEX
8
0
62
5
10
0.1486721
20
0.60298446
30
0
70
32
0
VERTEX
8
0
62
5
10
0.17695638
20
0.61304717
30
0
70
32
0
SEQEND
8
0
0
POLYLINE
8
0
62
30
66
1
10
0
20
0
30
0
70
8
0
VERTEX
8
0
62
30
10
0.06381929
20
0.60298446
30
0
70
32
0
VERTEX
8
0
62
30
10
0.17695638
20
0.60298446
30
0
70
32
0
SEQEND
8
0
0
POLYLINE
8
0
62
30
66
1
10
0
20
0
30
0
70
8
0
VERTEX
8
0
62
30
10
0.092103562
20
0.58334636
30
0
70
32
0
VERTEX
8
0
62
30
10
0.092103562
20
0.60298446
30
0
70
32
0
SEQEND
8
0
0
POLYLINE
8
0
62
30
66
1
10
0
20
0
30
0
70
8
0
VERTEX
8
0
62
30
10
0.12038783
20
0.59340907
30
0
70
32
0
VERTEX
8
0
62
30
10
0.12038783
20
0.60298446
30
0
70
32
0
SEQEND
8
0
0
POLYLINE
8
0
62
30
66
1
10
0
20
0
30
0
70
8
0
VERTEX
8
0
62
30
10
0.1486721
20
0.60298446
30
0
70
32
0
VERTEX
8
0
62
30
10
0.1486721
20
0.60298446
30
0
70
32
0
SEQEND
8
0
0
POLYLINE
8
0
62
5
66
1
10
0
20
0
30
0
70
8
0
VERTEX
8
0
62
5
10
0.092103562
20
0.58334334
30
0
70
32
0
VERTEX
8
0
62
5
10
0.092103562
20
0.58334636
30
0
70
32
0
SEQEND
8
0
0
POLYLINE
8
0
62
5
66
1
10
0
20
0
30
0
70
8
0
VERTEX
8
0
62
5
10
0.12038783
20
0.58334334
30
0
70
32
0
VERTEX
8
0
62
5
10
0.12038783
20
0.59340907
30
0
70
32
0
SEQEND
8
0
0
POLYLINE
8
0
62
5
66
1
10
0
20
0
30
0
70
8
0
VERTEX
8
0
62
5
10
0.1486721
20
0.58334334
30
0
70
32
0
VERTEX
8
0
62
5
10
0.1486721
20
0.60298446
30
0
70
32
0
SEQEND
8
0
0
POLYLINE
8
0
62
5
66
1
10
0
20
0
30
0
70
8
0
VERTEX
8
0
62
5
10
0.092103562
20
0.60298446
30
0
70
32
0
VERTEX
8
0
62
5
10
0.092103562
20
0.62262559
30
0
70
32
0
SEQEND
8
0
0
POLYLINE
8
0
62
5
66
1
10
0
20
0
30
0
70
8
0
VERTEX
8
0
62
5
10
0.12038783
20
0.60298446
30
0
70
32
0
VERTEX
8
0
62
5
10
0.12038783
20
0.62262559
30
0
70
32
0
SEQEND
8
0
0
POLYLINE
8
0
62
5
66
1
10
0
20
0
30
0
70
8
0
VERTEX
8
0
62
5
10
0.1486721
20
0.60298446
30
0
70
32
0
VERTEX
8
0
62
5
10
0.1486721
20
0.62262559
30
0
70
32
0
SEQEND
8
0
0
POLYLINE
8
0
62
5
66
1
10
0
20
0
30
0
70
8
0
VERTEX
8
0
62
5
10
0.29009346
20
0.62262559
30
0
70
32
0
VERTEX
8
0
62
5
10
0.29009346
20
0.58334334
30
0
70
32
0
SEQEND
8
0
0
POLYLINE
8
0
62
5
66
1
10
0
20
0
30
0
70
8
0
VERTEX
8
0
62
5
10
0.17695638
20
0.59292175
30
0
70
32
0
VERTEX
8
0
62
5
10
0.20524065
20
0.58334636
30
0
70
32
0
VERTEX
8
0
62
5
10
0.23352492
20
0.59340907
30
0
70
32
0
VERTEX
8
0
62
5
10
0.26180919
20
0.60298446
30
0
70
32
0
VERTEX
8
0
62
5
10
0.29009346
20
0.59292175
30
0
70
32
0
SEQEND
8
0
0
POLYLINE
8
0
62
5
66
1
10
0
20
0
30
0
70
8
0
SEQEND
8
0
0
POLYLINE
8
0
62
5
66
1
10
0
20
0
30
0
70
8
0
VERTEX
8
0
62
5
10
0.17695638
20
0.61304717
30
0
70
32
0
VERTEX
8
0
62
5
10
0.20524065
20
0.62262256
30
0
70
32
0
VERTEX
8
0
62
5
10
0.23352492
20
0.61255986
30
0
70
32
0
VERTEX
8
0
62
5
10
0.26180919
20
0.60298446
30
0
70
32
0
VERTEX
8
0
62
5
10
0.29009346
20
0.61304717
30
0
70
32
0
SEQEND
8
0
0
POLYLINE
8
0
62
30
66
1
10
0
20
0
30
0
70
8
0
VERTEX
8
0
62
30
10
0.17695638
20
0.60298446
30
0
70
32
0
VERTEX
8
0
62
30
10
0.29009346
20
0.60298446
30
0
70
32
0
SEQEND
8
0
0
POLYLINE
8
0
62
30
66
1
10
0
20
0
30
0
70
8
0
VERTEX
8
0
62
30
10
0.20524065
20
0.58334636
30
0
70
32
0
VERTEX
8
0
62
30
10
0.20524065
20
0.60298446
30
0
70
32
0
SEQEND
8
0
0
POLYLINE
8
0
62
30
66
1
10
0
20
0
30
0
70
8
0
VERTEX
8
0
62
30
10
0.23352492
20
0.59340907
30
0
70
32
0
VERTEX
8
0
62
30
10
0.23352492
20
0.60298446
30
0
70
32
0
SEQEND
8
0
0
POLYLINE
8
0
62
30
66
1
10
0
20
0
30
0
70
8
0
VERTEX
8
0
62
30
10
0.26180919
20
0.60298446
30
0
70
32
0
VERTEX
8
0
62
30
10
0.26180919
20
0.60298446
30
0
70
32
0
SEQEND
8
0
0
POLYLINE
8
0
62
5
66
1
10
0
20
0
30
0
70
8
0
VERTEX
8
0
62
5
10
0.20524065
20
0.58334334
30
0
70
32
0
VERTEX
8
0
62
5
10
0.20524065
20
0.58334636
30
0
70
32
0
SEQEND
8
0
0
POLYLINE
8
0
62
5
66
1
10
0
20
0
30
0
70
8
0
VERTEX
8
0
62
5
10
0.23352492
20
0.58334334
30
0
70
32
0
VERTEX
8
0
62
5
10
0.23352492
20
0.59340907
30
0
70
32
0
SEQEND
8
0
0
POLYLINE
8
0
62
5
66
1
10
0
20
0
30
0
70
8
0
VERTEX
8
0
62
5
10
0.26180919
20
0.58334334
30
0
70
32
0
VERTEX
8
0
62
5
10
0.26180919
20
0.60298446
30
0
70
32
0
SEQEND
8
0
0
POLYLINE
8
0
62
5
66
1
10
0
20
0
30
0
70
8
0
VERTEX
8
0
62
5
10
0.20524065
20
0.60298446
30
0
70
32
0
VERTEX
8
0
62
5
10
0.20524065
20
0.62262559
30
0
70
32
0
SEQEND
8
0
0
POLYLINE
8
0
62
5
66
1
10
0
20
0
30
0
70
8
0
VERTEX
8
0
62
5
10
0.23352492
20
0.60298446
30
0
70
32
0
VERTEX
8
0
62
5
10
0.23352492
20
0.62262559
30
0
70
32
0
SEQEND
8
0
0
POLYLINE
8
0
62
5
66
1
10
0
20
0
30
0
70
8
0
VERTEX
8
0
62
5
10
0.26180919
20
0.60298446
30
0
70
32
0
VERTEX
8
0
62
5
10
0.26180919
20
0.62262559
30
0
70
32
0
SEQEND
8
0
0
POLYLINE
8
0
62
5
66
1
10
0
20
0
30
0
70
8
0
VERTEX
8
0
62
5
10
-0.049317795
20
0.58334334
30
0
70
32
0
VERTEX
8
0
62
5
10
-0.049317795
20
0.62262559
30
0
70
32
0
SEQEND
8
0
0
POLYLINE
8
0
62
5
66
1
10
0
20
0
30
0
70
8
0
VERTEX
8
0
62
5
10
-0.049317795
20
0.59292175
30
0
70
32
0
VERTEX
8
0
62
5
10
-0.021033523
20
0.58334636
30
0
70
32
0
VERTEX
8
0
62
5
10
0.0072507479
20
0.59340907
30
0
70
32
0
VERTEX
8
0
62
5
10
0.035535019
20
0.60298446
30
0
70
32
0
VERTEX
8
0
62
5
10
0.06381929
20
0.59292175
30
0
70
32
0
SEQEND
8
0
0
POLYLINE
8
0
62
5
66
1
10
0
20
0
30
0
70
8
0
SEQEND
8
0
0
POLYLINE
8
0
62
5
66
1
10
0
20
0
30
0
70
8
0
VERTEX
8
0
62
5
10
-0.049317795
20
0.61304717
30
0
70
32
0
VERTEX
8
0
62
5
10
-0.021033523
20
0.62262256
30
0
70
32
0
VERTEX
8
0
62
5
10
0.0072507479
20
0.61255986
30
0
70
32
0
VERTEX
8
0
62
5
10
0.035535019
20
0.60298446
30
0
70
32
0
VERTEX
8
0
62
5
10
0.06381929
20
0.61304717
30
0
70
32
0
SEQEND
8
0
0
POLYLINE
8
0
62
30
66
1
10
0
20
0
30
0
70
8
0
VERTEX
8
0
62
30
10
-0.049317795
20
0.60298446
30
0
70
32
0
VERTEX
8
0
62
30
10
0.06381929
20
0.60298446
30
0
70
32
0
SEQEND
8
0
0
POLYLINE
8
0
62
30
66
1
10
0
20
0
30
0
70
8
0
VERTEX
8
0
62
30
10
-0.021033523
20
0.58334636
30
0
70
32
0
VERTEX
8
0
62
30
10
-0.021033523
20
0.60298446
30
0
70
32
0
SEQEND
8
0
0
POLYLINE
8
0
62
30
66
1
10
0
20
0
30
0
70
8
0
VERTEX
8
0
62
30
10
0.0072507479
20
0.59340907
30
0
70
32
0
VERTEX
8
0
62
30
10
0.0072507479
20
0.60298446
30
0
70
32
0
SEQEND
8
0
0
POLYLINE
8
0
62
30
66
1
10
0
20
0
30
0
70
8
0
VERTEX
8
0
62
30
10
0.035535019
20
0.60298446
30
0
70
32
0
VERTEX
8
0
62
30
10
0.035535019
20
0.60298446
30
0
70
32
0
SEQEND
8
0
0
POLYLINE
8
0
62
5
66
1
10
0
20
0
30
0
70
8
0
VERTEX
8
0
62
5
10
-0.021033523
20
0.58334334
30
0
70
32
0
VERTEX
8
0
62
5
10
-0.021033523
20
0.58334636
30
0
70
32
0
SEQEND
8
0
0
POLYLINE
8
0
62
5
66
1
10
0
20
0
30
0
70
8
0
VERTEX
8
0
62
5
10
0.0072507479
20
0.58334334
30
0
70
32
0
VERTEX
8
0
62
5
10
0.0072507479
20
0.59340907
30
0
70
32
0
SEQEND
8
0
0
POLYLINE
8
0
62
5
66
1
10
0
20
0
30
0
70
8
0
VERTEX
8
0
62
5
10
0.035535019
20
0.58334334
30
0
70
32
0
VERTEX
8
0
62
5
10
0.035535019
20
0.60298446
30
0
70
32
0
SEQEND
8
0
0
POLYLINE
8
0
62
5
66
1
10
0
20
0
30
0
70
8
0
VERTEX
8
0
62
5
10
-0.021033523
20
0.60298446
30
0
70
32
0
VERTEX
8
0
62
5
10
-0.021033523
20
0.62262559
30
0
70
32
0
SEQEND
8
0
0
POLYLINE
8
0
62
5
66
1
10
0
20
0
30
0
70
8
0
VERTEX
8
0
62
5
10
0.0072507479
20
0.60298446
30
0
70
32
0
VERTEX
8
0
62
5
10
0.0072507479
20
0.62262559
30
0
70
32
0
SEQEND
8
0
0
POLYLINE
8
0
62
5
66
1
10
0
20
0
30
0
70
8
0
VERTEX
8
0
62
5
10
0.035535019
20
0.60298446
30
0
70
32
0
VERTEX
8
0
62
5
10
0.035535019
20
0.62262559
30
0
70
32
0
SEQEND
8
0
0
POLYLINE
8
0
62
5
66
1
10
0
20
0
30
0
70
8
0
VERTEX
8
0
62
5
10
0.06381929
20
0.62262559
30
0
70
32
0
VERTEX
8
0
62
5
10
0.06381929
20
0.66262559
30
0
70
32
0
SEQEND
8
0
0
POLYLINE
8
0
62
5
66
1
10
0
20
0
30
0
70
8
0
VERTEX
8
0
62
5
10
0.17695638
20
0.66262559
30
0
70
32
0
VERTEX
8
0
62
5
10
0.17695638
20
0.62262559
30
0
70
32
0
SEQEND
8
0
0
POLYLINE
8
0
62
5
66
1
10
0
20
0
30
0
70
8
0
VERTEX
8
0
62
5
10
0.06381929
20
0.62262559
30
0
70
32
0
VERTEX
8
0
62
5
10
0.17695638
20
0.62262559
30
0
70
32
0
SEQEND
8
0
0
POLYLINE
8
0
62
5
66
1
10
0
20
0
30
0
70
8
0
VERTEX
8
0
62
5
10
0.06381929
20
0.66262559
30
0
70
32
0
VERTEX
8
0
62
5
10
0.17695638
20
0.66262559
30
0
70
32
0
SEQEND
8
0
0
POLYLINE
8
0
62
5
66
1
10
0
20
0
30
0
70
8
0
VERTEX
8
0
62
5
10
0.092103562
20
0.62262559
30
0
70
32
0
VERTEX
8
0
62
5
10
0.092103562
20
0.62262559
30
0
70
32
0
SEQEND
8
0
0
POLYLINE
8
0
62
5
66
1
10
0
20
0
30
0
70
8
0
VERTEX
8
0
62
5
10
0.12038783
20
0.62262559
30
0
70
32
0
VERTEX
8
0
62
5
10
0.12038783
20
0.62262559
30
0
70
32
0
SEQEND
8
0
0
POLYLINE
8
0
62
5
66
1
10
0
20
0
30
0
70
8
0
VERTEX
8
0
62
5
10
0.1486721
20
0.62262559
30
0
70
32
0
VERTEX
8
0
62
5
10
0.1486721
20
0.62262559
30
0
70
32
0
SEQEND
8
0
0
POLYLINE
8
0
62
5
66
1
10
0
20
0
30
0
70
8
0
VERTEX
8
0
62
5
10
0.092103562
20
0.66262559
30
0
70
32
0
VERTEX
8
0
62
5
10
0.092103562
20
0.66262559
30
0
70
32
0
SEQEND
8
0
0
POLYLINE
8
0
62
5
66
1
10
0
20
0
30
0
70
8
0
VERTEX
8
0
62
5
10
0.12038783
20
0.66262559
30
0
70
32
0
VERTEX
8
0
62
5
10
0.12038783
20
0.66262559
30
0
70
32
0
SEQEND
8
0
0
POLYLINE
8
0
62
5
66
1
10
0
20
0
30
0
70
8
0
VERTEX
8
0
62
5
10
0.1486721
20
0.66262559
30
0
70
32
0
VERTEX
8
0
62
5
10
0.1486721
20
0.66262559
30
0
70
32
0
SEQEND
8
0
0
POLYLINE
8
0
62
30
66
1
10
0
20
0
30
0
70
8
0
VERTEX
8
0
62
30
10
0.06381929
20
0.62262559
30
0
70
32
0
VERTEX
8
0
62
30
10
0.077961426
20
0.64262559
30
0
70
32
0
SEQEND
8
0
0
POLYLINE
8
0
62
30
66
1
10
0
20
0
30
0
70
8
0
VERTEX
8
0
62
30
10
0.077961426
20
0.64262559
30
0
70
32
0
VERTEX
8
0
62
30
10
0.092103562
20
0.62262559
30
0
70
32
0
SEQEND
8
0
0
POLYLINE
8
0
62
30
66
1
10
0
20
0
30
0
70
8
0
VERTEX
8
0
62
30
10
0.12038783
20
0.62262559
30
0
70
32
0
VERTEX
8
0
62
30
10
0.13452997
20
0.64262559
30
0
70
32
0
SEQEND
8
0
0
POLYLINE
8
0
62
30
66
1
10
0
20
0
30
0
70
8
0
VERTEX
8
0
62
30
10
0.13452997
20
0.64262559
30
0
70
32
0
VERTEX
8
0
62
30
10
0.1486721
20
0.62262559
30
0
70
32
0
SEQEND
8
0
0
POLYLINE
8
0
62
30
66
1
10
0
20
0
30
0
70
8
0
VERTEX
8
0
62
30
10
0.092103562
20
0.64262559
30
0
70
32
0
VERTEX
8
0
62
30
10
0.12038783
20
0.64262559
30
0
70
32
0
SEQEND
8
0
0
POLYLINE
8
0
62
30
66
1
10
0
20
0
30
0
70
8
0
VERTEX
8
0
62
30
10
0.1486721
20
0.64262559
30
0
70
32
0
VERTEX
8
0
62
30
10
0.17695638
20
0.64262559
30
0
70
32
0
SEQEND
8
0
0
POLYLINE
8
0
62
5
66
1
10
0
20
0
30
0
70
8
0
VERTEX
8
0
62
5
10
0.06381929
20
0.64262559
30
0
70
32
0
VERTEX
8
0
62
5
10
0.077961426
20
0.64262559
30
0
70
32
0
SEQEND
8
0
0
POLYLINE
8
0
62
5
66
1
10
0
20
0
30
0
70
8
0
VERTEX
8
0
62
5
10
0.12038783
20
0.64262559
30
0
70
32
0
VERTEX
8
0
62
5
10
0.13452997
20
0.64262559
30
0
70
32
0
SEQEND
8
0
0
POLYLINE
8
0
62
5
66
1
10
0
20
0
30
0
70
8
0
VERTEX
8
0
62
5
10
0.077961426
20
0.64262559
30
0
70
32
0
VERTEX
8
0
62
5
10
0.092103562
20
0.64262559
30
0
70
32
0
SEQEND
8
0
0
POLYLINE
8
0
62
5
66
1
10
0
20
0
30
0
70
8
0
VERTEX
8
0
62
5
10
0.13452997
20
0.64262559
30
0
70
32
0
VERTEX
8
0
62
5
10
0.1486721
20
0.64262559
30
0
70
32
0
SEQEND
8
0
0
POLYLINE
8
0
62
5
66
1
10
0
20
0
30
0
70
8
0
VERTEX
8
0
62
5
10
0.092103562
20
0.62262559
30
0
70
32
0
VERTEX
8
0
62
5
10
0.092103562
20
0.66262559
30
0
70
32
0
SEQEND
8
0
0
POLYLINE
8
0
62
5
66
1
10
0
20
0
30
0
70
8
0
VERTEX
8
0
62
5
10
0.12038783
20
0.62262559
30
0
70
32
0
VERTEX
8
0
62
5
10
0.12038783
20
0.66262559
30
0
70
32
0
SEQEND
8
0
0
POLYLINE
8
0
62
5
66
1
10
0
20
0
30
0
70
8
0
VERTEX
8
0
62
5
10
0.1486721
20
0.62262559
30
0
70
32
0
VERTEX
8
0
62
5
10
0.1486721
20
0.66262559
30
0
70
32
0
SEQEND
8
0
0
POLYLINE
8
0
62
5
66
1
10
0
20
0
30
0
70
8
0
VERTEX
8
0
62
5
10
0.06381929
20
0.62262559
30
0
70
32
0
VERTEX
8
0
62
5
10
0.06381929
20
0.66262559
30
0
70
32
0
SEQEND
8
0
0
POLYLINE
8
0
62
5
66
1
10
0
20
0
30
0
70
8
0
VERTEX
8
0
62
5
10
0.29009346
20
0.66262559
30
0
70
32
0
VERTEX
8
0
62
5
10
0.29009346
20
0.62262559
30
0
70
32
0
SEQEND
8
0
0
POLYLINE
8
0
62
5
66
1
10
0
20
0
30
0
70
8
0
VERTEX
8
0
62
5
10
0.17695638
20
0.62262559
30
0
70
32
0
VERTEX
8
0
62
5
10
0.29009346
20
0.62262559
30
0
70
32
0
SEQEND
8
0
0
POLYLINE
8
0
62
5
66
1
10
0
20
0
30
0
70
8
0
VERTEX
8
0
62
5
10
0.17695638
20
0.66262559
30
0
70
32
0
VERTEX
8
0
62
5
10
0.29009346
20
0.66262559
30
0
70
32
0
SEQEND
8
0
0
POLYLINE
8
0
62
5
66
1
10
0
20
0
30
0
70
8
0
VERTEX
8
0
62
5
10
0.20524065
20
0.62262559
30
0
70
32
0
VERTEX
8
0
62
5
10
0.20524065
20
0.62262559
30
0
70
32
0
SEQEND
8
0
0
POLYLINE
8
0
62
5
66
1
10
0
20
0
30
0
70
8
0
VERTEX
8
0
62
5
10
0.23352492
20
0.62262559
30
0
70
32
0
VERTEX
8
0
62
5
10
0.23352492
20
0.62262559
30
0
70
32
0
SEQEND
8
0
0
POLYLINE
8
0
62
5
66
1
10
0
20
0
30
0
70
8
0
VERTEX
8
0
62
5
10
0.26180919
20
0.62262559
30
0
70
32
0
VERTEX
8
0
62
5
10
0.26180919
20
0.62262559
30
0
70
32
0
SEQEND
8
0
0
POLYLINE
8
0
62
5
66
1
10
0
20
0
30
0
70
8
0
VERTEX
8
0
62
5
10
0.20524065
20
0.66262559
30
0
70
32
0
VERTEX
8
0
62
5
10
0.20524065
20
0.66262559
30
0
70
32
0
SEQEND
8
0
0
POLYLINE
8
0
62
5
66
1
10
0
20
0
30
0
70
8
0
VERTEX
8
0
62
5
10
0.23352492
20
0.66262559
30
0
70
32
0
VERTEX
8
0
62
5
10
0.23352492
20
0.66262559
30
0
70
32
0
SEQEND
8
0
0
POLYLINE
8
0
62
5
66
1
10
0
20
0
30
0
70
8
0
VERTEX
8
0
62
5
10
0.26180919
20
0.66262559
30
0
70
32
0
VERTEX
8
0
62
5
10
0.26180919
20
0.66262559
30
0
70
32
0
SEQEND
8
0
0
POLYLINE
8
0
62
30
66
1
10
0
20
0
30
0
70
8
0
VERTEX
8
0
62
30
10
0.17695638
20
0.62262559
30
0
70
32
0
VERTEX
8
0
62
30
10
0.19109851
20
0.64262559
30
0
70
32
0
SEQEND
8
0
0
POLYLINE
8
0
62
30
66
1
10
0
20
0
30
0
70
8
0
VERTEX
8
0
62
30
10
0.19109851
20
0.64262559
30
0
70
32
0
VERTEX
8
0
62
30
10
0.20524065
20
0.62262559
30
0
70
32
0
SEQEND
8
0
0
POLYLINE
8
0
62
30
66
1
10
0
20
0
30
0
70
8
0
VERTEX
8
0
62
30
10
0.23352492
20
0.62262559
30
0
70
32
0
VERTEX
8
0
62
30
10
0.24766705
20
0.64262559
30
0
70
32
0
SEQEND
8
0
0
POLYLINE
8
0
62
30
66
1
10
0
20
0
30
0
70
8
0
VERTEX
8
0
62
30
10
0.24766705
20
0.64262559
30
0
70
32
0
VERTEX
8
0
62
30
10
0.26180919
20
0.62262559
30
0
70
32
0
SEQEND
8
0
0
POLYLINE
8
0
62
30
66
1
10
0
20
0
30
0
70
8
0
VERTEX
8
0
62
30
10
0.20524065
20
0.64262559
30
0
70
32
0
VERTEX
8
0
62
30
10
0.23352492
20
0.64262559
30
0
70
32
0
SEQEND
8
0
0
POLYLINE
8
0
62
30
66
1
10
0
20
0
30
0
70
8
0
VERTEX
8
0
62
30
10
0.26180919
20
0.64262559
30
0
70
32
0
VERTEX
8
0
62
30
10
0.29009346
20
0.64262559
30
0
70
32
0
SEQEND
8
0
0
POLYLINE
8
0
62
5
66
1
10
0
20
0
30
0
70
8
0
VERTEX
8
0
62
5
10
0.17695638
20
0.64262559
30
0
70
32
0
VERTEX
8
0
62
5
10
0.19109851
20
0.64262559
30
0
70
32
0
SEQEND
8
0
0
POLYLINE
8
0
62
5
66
1
10
0
20
0
30
0
70
8
0
VERTEX
8
0
62
5
10
0.23352492
20
0.64262559
30
0
70
32
0
VERTEX
8
0
62
5
10
0.24766705
20
0.64262559
30
0
70
32
0
SEQEND
8
0
0
POLYLINE
8
0
62
5
66
1
10
0
20
0
30
0
70
8
0
VERTEX
8
0
62
5
10
0.19109851
20
0.64262559
30
0
70
32
0
VERTEX
8
0
62
5
10
0.20524065
20
0.64262559
30
0
70
32
0
SEQEND
8
0
0
POLYLINE
8
0
62
5
66
1
10
0
20
0
30
0
70
8
0
VERTEX
8
0
62
5
10
0.24766705
20
0.64262559
30
0
70
32
0
VERTEX
8
0
62
5
10
0.26180919
20
0.64262559
30
0
70
32
0
SEQEND
8
0
0
POLYLINE
8
0
62
5
66
1
10
0
20
0
30
0
70
8
0
VERTEX
8
0
62
5
10
0.20524065
20
0.62262559
30
0
70
32
0
VERTEX
8
0
62
5
10
0.20524065
20
0.66262559
30
0
70
32
0
SEQEND
8
0
0
POLYLINE
8
0
62
5
66
1
10
0
20
0
30
0
70
8
0
VERTEX
8
0
62
5
10
0.23352492
20
0.62262559
30
0
70
32
0
VERTEX
8
0
62
5
10
0.23352492
20
0.66262559
30
0
70
32
0
SEQEND
8
0
0
POLYLINE
8
0
62
5
66
1
10
0
20
0
30
0
70
8
0
VERTEX
8
0
62
5
10
0.26180919
20
0.62262559
30
0
70
32
0
VERTEX
8
0
62
5
10
0.26180919
20
0.66262559
30
0
70
32
0
SEQEND
8
0
0
POLYLINE
8
0
62
5
66
1
10
0
20
0
30
0
70
8
0
VERTEX
8
0
62
5
10
0.17695638
20
0.62262559
30
0
70
32
0
VERTEX
8
0
62
5
10
0.17695638
20
0.66262559
30
0
70
32
0
SEQEND
8
0
0
POLYLINE
8
0
62
5
66
1
10
0
20
0
30
0
70
8
0
VERTEX
8
0
62
5
10
-0.049317795
20
0.62262559
30
0
70
32
0
VERTEX
8
0
62
5
10
-0.049317795
20
0.66262559
30
0
70
32
0
SEQEND
8
0
0
POLYLINE
8
0
62
5
66
1
10
0
20
0
30
0
70
8
0
VERTEX
8
0
62
5
10
-0.049317795
20
0.62262559
30
0
70
32
0
VERTEX
8
0
62
5
10
0.06381929
20
0.62262559
30
0
70
32
0
SEQEND
8
0
0
POLYLINE
8
0
62
5
66
1
10
0
20
0
30
0
70
8
0
VERTEX
8
0
62
5
10
-0.049317795
20
0.66262559
30
0
70
32
0
VERTEX
8
0
62
5
10
0.06381929
20
0.66262559
30
0
70
32
0
SEQEND
8
0
0
POLYLINE
8
0
62
5
66
1
10
0
20
0
30
0
70
8
0
VERTEX
8
0
62
5
10
-0.021033523
20
0.62262559
30
0
70
32
0
VERTEX
8
0
62
5
10
-0.021033523
20
0.62262559
30
0
70
32
0
SEQEND
8
0
0
POLYLINE
8
0
62
5
66
1
10
0
20
0
30
0
70
8
0
VERTEX
8
0
62
5
10
0.0072507479
20
0.62262559
30
0
70
32
0
VERTEX
8
0
62
5
10
0.0072507479
20
0.62262559
30
0
70
32
0
SEQEND
8
0
0
POLYLINE
8
0
62
5
66
1
10
0
20
0
30
0
70
8
0
VERTEX
8
0
62
5
10
0.035535019
20
0.62262559
30
0
70
32
0
VERTEX
8
0
62
5
10
0.035535019
20
0.62262559
30
0
70
32
0
SEQEND
8
0
0
POLYLINE
8
0
62
5
66
1
10
0
20
0
30
0
70
8
0
VERTEX
8
0
62
5
10
-0.021033523
20
0.66262559
30
0
70
32
0
VERTEX
8
0
62
5
10
-0.021033523
20
0.66262559
30
0
70
32
0
SEQEND
8
0
0
POLYLINE
8
0
62
5
66
1
10
0
20
0
30
0
70
8
0
VERTEX
8
0
62
5
10
0.0072507479
20
0.66262559
30
0
70
32
0
VERTEX
8
0
62
5
10
0.0072507479
20
0.66262559
30
0
70
32
0
SEQEND
8
0
0
POLYLINE
8
0
62
5
66
1
10
0
20
0
30
0
70
8
0
VERTEX
8
0
62
5
10
0.035535019
20
0.66262559
30
0
70
32
0
VERTEX
8
0
62
5
10
0.035535019
20
0.66262559
30
0
70
32
0
SEQEND
8
0
0
POLYLINE
8
0
62
30
66
1
10
0
20
0
30
0
70
8
0
VERTEX
8
0
62
30
10
-0.049317795
20
0.62262559
30
0
70
32
0
VERTEX
8
0
62
30
10
-0.035175659
20
0.64262559
30
0
70
32
0
SEQEND
8
0
0
POLYLINE
8
0
62
30
66
1
10
0
20
0
30
0
70
8
0
VERTEX
8
0
62
30
10
-0.035175659
20
0.64262559
30
0
70
32
0
VERTEX
8
0
62
30
10
-0.021033523
20
0.62262559
30
0
70
32
0
SEQEND
8
0
0
POLYLINE
8
0
62
30
66
1
10
0
20
0
30
0
70
8
0
VERTEX
8
0
62
30
10
0.0072507479
20
0.62262559
30
0
70
32
0
VERTEX
8
0
62
30
10
0.021392884
20
0.64262559
30
0
70
32
0
SEQEND
8
0
0
POLYLINE
8
0
62
30
66
1
10
0
20
0
30
0
70
8
0
VERTEX
8
0
62
30
10
0.021392884
20
0.64262559
30
0
70
32
0
VERTEX
8
0
62
30
10
0.035535019
20
0.62262559
30
0
70
32
0
SEQEND
8
0
0
POLYLINE
8
0
62
30
66
1
10
0
20
0
30
0
70
8
0
VERTEX
8
0
62
30
10
-0.021033523
20
0.64262559
30
0
70
32
0
VERTEX
8
0
62
30
10
0.0072507479
20
0.64262559
30
0
70
32
0
SEQEND
8
0
0
POLYLINE
8
0
62
30
66
1
10
0
20
0
30
0
70
8
0
VERTEX
8
0
62
30
10
0.035535019
20
0.64262559
30
0
70
32
0
VERTEX
8
0
62
30
10
0.06381929
20
0.64262559
30
0
70
32
0
SEQEND
8
0
0
POLYLINE
8
0
62
5
66
1
10
0
20
0
30
0
70
8
0
VERTEX
8
0
62
5
10
-0.049317795
20
0.64262559
30
0
70
32
0
VERTEX
8
0
62
5
10
-0.035175659
20
0.64262559
30
0
70
32
0
SEQEND
8
0
0
POLYLINE
8
0
62
5
66
1
10
0
20
0
30
0
70
8
0
VERTEX
8
0
62
5
10
0.0072507479
20
0.64262559
30
0
70
32
0
VERTEX
8
0
62
5
10
0.021392884
20
0.64262559
30
0
70
32
0
SEQEND
8
0
0
POLYLINE
8
0
62
5
66
1
10
0
20
0
30
0
70
8
0
VERTEX
8
0
62
5
10
-0.035175659
20
0.64262559
30
0
70
32
0
VERTEX
8
0
62
5
10
-0.021033523
20
0.64262559
30
0
70
32
0
SEQEND
8
0
0
POLYLINE
8
0
62
5
66
1
10
0
20
0
30
0
70
8
0
VERTEX
8
0
62
5
10
0.021392884
20
0.64262559
30
0
70
32
0
VERTEX
8
0
62
5
10
0.035535019
20
0.64262559
30
0
70
32
0
SEQEND
8
0
0
POLYLINE
8
0
62
5
66
1
10
0
20
0
30
0
70
8
0
VERTEX
8
0
62
5
10
-0.021033523
20
0.62262559
30
0
70
32
0
VERTEX
8
0
62
5
10
-0.021033523
20
0.66262559
30
0
70
32
0
SEQEND
8
0
0
POLYLINE
8
0
62
5
66
1
10
0
20
0
30
0
70
8
0
VERTEX
8
0
62
5
10
0.0072507479
20
0.62262559
30
0
70
32
0
VERTEX
8
0
62
5
10
0.0072507479
20
0.66262559
30
0
70
32
0
SEQEND
8
0
0
POLYLINE
8
0
62
5
66
1
10
0
20
0
30
0
70
8
0
VERTEX
8
0
62
5
10
0.035535019
20
0.62262559
30
0
70
32
0
VERTEX
8
0
62
5
10
0.035535019
20
0.66262559
30
0
70
32
0
SEQEND
8
0
0
POLYLINE
8
0
62
5
66
1
10
0
20
0
30
0
70
8
0
VERTEX
8
0
62
5
10
-0.049317795
20
0.62262559
30
0
70
32
0
VERTEX
8
0
62
5
10
-0.049317795
20
0.66262559
30
0
70
32
0
SEQEND
8
0
0
POLYLINE
8
0
62
18
66
1
10
0
20
0
30
0
70
8
0
VERTEX
8
0
62
18
10
0
20
0
30
0
70
32
0
VERTEX
8
0
62
18
10
0.14142136
20
0
30
0
70
32
0
VERTEX
8
0
62
18
10
0.14142136
20
0.16795056
30
0
70
32
0
VERTEX
8
0
62
18
10
0
20
0.16795056
30
0
70
32
0
VERTEX
8
0
62
18
10
0
20
0
30
0
70
32
0
SEQEND
8
0
0
POLYLINE
8
0
62
5
66
1
10
0
20
0
30
0
70
8
0
VERTEX
8
0
62
5
10
0
20
0.16795056
30
0
70
32
0
VERTEX
8
0
62
5
10
0.14142136
20
0.16795056
30
0
70
32
0
SEQEND
8
0
0
POLYLINE
8
0
62
18
66
1
10
0
20
0
30
0
70
8
0
VERTEX
8
0
62
18
10
0
20
0.14795056
30
0
70
32
0
VERTEX
8
0
62
18
10
0.14142136
20
0.14795056
30
0
70
32
0
VERTEX
8
0
62
18
10
0.14142136
20
0.36405543
30
0
70
32
0
VERTEX
8
0
62
18
10
0
20
0.36405543
30
0
70
32
0
VERTEX
8
0
62
18
10
0
20
0.14795056
30
0
70
32
0
SEQEND
8
0
0
POLYLINE
8
0
62
5
66
1
10
0
20
0
30
0
70
8
0
VERTEX
8
0
62
5
10
0
20
0.36405543
30
0
70
32
0
VERTEX
8
0
62
5
10
0.14142136
20
0.36405543
30
0
70
32
0
SEQEND
8
0
0
POLYLINE
8
0
62
18
66
1
10
0
20
0
30
0
70
8
0
VERTEX
8
0
62
18
10
0
20
0.34405543
30
0
70
32
0
VERTEX
8
0
62
18
10
0.14142136
20
0.34405543
30
0
70
32
0
VERTEX
8
0
62
18
10
0.14142136
20
0.56597049
30
0
70
32
0
VERTEX
8
0
62
18
10
0
20
0.56597049
30
0
70
32
0
VERTEX
8
0
62
18
10
0
20
0.34405543
30
0
70
32
0
SEQEND
8
0
0
POLYLINE
8
0
62
5
66
1
10
0
20
0
30
0
70
8
0
VERTEX
8
0
62
5
10
0
20
0.56597049
30
0
70
32
0
VERTEX
8
0
62
5
10
0.14142136
20
0.56597049
30
0
70
32
0
SEQEND
8
0
0
POLYLINE
8
0
62
18
66
1
10
0
20
0
30
0
70
8
0
VERTEX
8
0
62
18
10
0
20
0.54597049
30
0
70
32
0
VERTEX
8
0
62
18
10
0.14142136
20
0.54597049
30
0
70
32
0
VERTEX
8
0
62
18
10
0.14142136
20
0.66262559
30
0
70
32
0
VERTEX
8
0
62
18
10
0
20
0.66262559
30
0
70
32
0
VERTEX
8
0
62
18
10
0
20
0.54597049
30
0
70
32
0
SEQEND
8
0
0
POLYLINE
8
0
62
18
66
1
10
0
20
0
30
0
70
8
0
VERTEX
8
0
62
18
10
0.14142136
20
0
30
0
70
32
0
VERTEX
8
0
62
18
10
0
20
0
30
0
70
32
0
VERTEX
8
0
62
18
10
0
20
0.66262559
30
0
70
32
0
VERTEX
8
0
62
18
10
0.14142136
20
0.66262559
30
0
70
32
0
VERTEX
8
0
62
18
10
0.14142136
20
0
30
0
70
32
0
SEQEND
8
0
0
ENDSEC
0
EOF
