0
SECTION
2
HEADER
9
$ACADVER
1
AC1006
9
$INSUNITS
70
6
0
ENDSEC
0
SECTION
2
ENTITIES
0
POLYLINE
8
0
62
5
66
1
10
0
20
0
30
0
70
8
0
VERTEX
8
0
62
5
10
0
20
0
30
0
70
32
0
VERTEX
8
0
62
5
10
0
20
0.1
30
0
70
32
0
SEQEND
8
0
0
POLYLINE
8
0
62
5
66
1
10
0
20
0
30
0
70
8
0
VERTEX
8
0
62
5
10
0.11313708
20
0
30
0
70
32
0
VERTEX
8
0
62
5
10
0.11313708
20
0.1
30
0
70
32
0
SEQEND
8
0
0
POLYLINE
8
0
62
5
66
1
10
0
20
0
30
0
70
8
0
VERTEX
8
0
62
5
10
0.028284271
20
0
30
0
70
32
0
VERTEX
8
0
62
5
10
0.028284271
20
0.1
30
0
70
32
0
SEQEND
8
0
0
POLYLINE
8
0
62
5
66
1
10
0
20
0
30
0
70
8
0
VERTEX
8
0
62
5
10
0.056568542
20
0
30
0
70
32
0
VERTEX
8
0
62
5
10
0.056568542
20
0.1
30
0
70
32
0
SEQEND
8
0
0
POLYLINE
8
0
62
5
66
1
10
0
20
0
30
0
70
8
0
VERTEX
8
0
62
5
10
0.084852814
20
0
30
0
70
32
0
VERTEX
8
0
62
5
10
0.084852814
20
0.1
30
0
70
32
0
SEQEND
8
0
0
POLYLINE
8
0
62
5
66
1
10
0
20
0
30
0
70
8
0
VERTEX
8
0
62
5
10
0.22627417
20
0
30
0
70
32
0
VERTEX
8
0
62
5
10
0.22627417
20
0.1
30
0
70
32
0
SEQEND
8
0
0
POLYLINE
8
0
62
5
66
1
10
0
20
0
30
0
70
8
0
VERTEX
8
0
62
5
10
0.14142136
20
0
30
0
70
32
0
VERTEX
8
0
62
5
10
0.14142136
20
0.1
30
0
70
32
0
SEQEND
8
0
0
POLYLINE
8
0
62
5
66
1
10
0
20
0
30
0
70
8
0
VERTEX
8
0
62
5
10
0.16970563
20
0
30
0
70
32
0
VERTEX
8
0
62
5
10
0.16970563
20
0.1
30
0
70
32
0
SEQEND
8
0
0
POLYLINE
8
0
62
5
66
1
10
0
20
0
30
0
70
8
0
VERTEX
8
0
62
5
10
0.1979899
20
0
30
0
70
32
0
VERTEX
8
0
62
5
10
0.1979899
20
0.1
30
0
70
32
0
SEQEND
8
0
0
POLYLINE
8
0
62
5
66
1
10
0
20
0
30
0
70
8
0
VERTEX
8
0
62
5
10
-0.11313708
20
0
30
0
70
32
0
VERTEX
8
0
62
5
10
-0.11313708
20
0.1
30
0
70
32
0
SEQEND
8
0
0
POLYLINE
8
0
62
5
66
1
10
0
20
0
30
0
70
8
0
VERTEX
8
0
62
5
10
-0.084852814
20
0
30
0
70
32
0
VERTEX
8
0
62
5
10
-0.084852814
20
0.1
30
0
70
32
0
SEQEND
8
0
0
POLYLINE
8
0
62
5
66
1
10
0
20
0
30
0
70
8
0
VERTEX
8
0
62
5
10
-0.056568542
20
0
30
0
70
32
0
VERTEX
8
0
62
5
10
-0.056568542
20
0.1
30
0
70
32
0
SEQEND
8
0
0
POLYLINE
8
0
62
5
66
1
10
0
20
0
30
0
70
8
0
VERTEX
8
0
62
5
10
-0.028284271
20
0
30
0
70
32
0
VERTEX
8
0
62
5
10
-0.028284271
20
0.1
30
0
70
32
0
SEQEND
8
0
0
POLYLINE
8
0
62
5
66
1
10
0
20
0
30
0
70
8
0
VERTEX
8
0
62
5
10
0
20
0.1
30
0
70
32
0
VERTEX
8
0
62
5
10
0
20
0.14
30
0
70
32
0
SEQEND
8
0
0
POLYLINE
8
0
62
5
66
1
10
0
20
0
30
0
70
8
0
VERTEX
8
0
62
5
10
0.11313708
20
0.14
30
0
70
32
0
VERTEX
8
0
62
5
10
0.11313708
20
0.1
30
0
70
32
0
SEQEND
8
0
0
POLYLINE
8
0
62
5
66
1
10
0
20
0
30
0
70
8
0
VERTEX
8
0
62
5
10
0
20
0.1
30
0
70
32
0
VERTEX
8
0
62
5
10
0.11313708
20
0.1
30
0
70
32
0
SEQEND
8
0
0
POLYLINE
8
0
62
5
66
1
10
0
20
0
30
0
70
8
0
VERTEX
8
0
62
5
10
0
20
0.14
30
0
70
32
0
VERTEX
8
0
62
5
10
0.11313708
20
0.14
30
0
70
32
0
SEQEND
8
0
0
POLYLINE
8
0
62
5
66
1
10
0
20
0
30
0
70
8
0
VERTEX
8
0
62
5
10
0.028284271
20
0.1
30
0
70
32
0
VERTEX
8
0
62
5
10
0.028284271
20
0.1
30
0
70
32
0
SEQEND
8
0
0
POLYLINE
8
0
62
5
66
1
10
0
20
0
30
0
70
8
0
VERTEX
8
0
62
5
10
0.056568542
20
0.1
30
0
70
32
0
VERTEX
8
0
62
5
10
0.056568542
20
0.1
30
0
70
32
0
SEQEND
8
0
0
POLYLINE
8
0
62
5
66
1
10
0
20
0
30
0
70
8
0
VERTEX
8
0
62
5
10
0.084852814
20
0.1
30
0
70
32
0
VERTEX
8
0
62
5
10
0.084852814
20
0.1
30
0
70
32
0
SEQEND
8
0
0
POLYLINE
8
0
62
5
66
1
10
0
20
0
30
0
70
8
0
VERTEX
8
0
62
5
10
0.028284271
20
0.14
30
0
70
32
0
VERTEX
8
0
62
5
10
0.028284271
20
0.14
30
0
70
32
0
SEQEND
8
0
0
POLYLINE
8
0
62
5
66
1
10
0
20
0
30
0
70
8
0
VERTEX
8
0
62
5
10
0.056568542
20
0.14
30
0
70
32
0
VERTEX
8
0
62
5
10
0.056568542
20
0.14
30
0
70
32
0
SEQEND
8
0
0
POLYLINE
8
0
62
5
66
1
10
0
20
0
30
0
70
8
0
VERTEX
8
0
62
5
10
0.084852814
20
0.14
30
0
70
32
0
VERTEX
8
0
62
5
10
0.084852814
20
0.14
30
0
70
32
0
SEQEND
8
0
0
POLYLINE
8
0
62
30
66
1
10
0
20
0
30
0
70
8
0
VERTEX
8
0
62
30
10
0
20
0.14
30
0
70
32
0
VERTEX
8
0
62
30
10
0.028284271
20
0.1
30
0
70
32
0
SEQEND
8
0
0
POLYLINE
8
0
62
30
66
1
10
0
20
0
30
0
70
8
0
VERTEX
8
0
62
30
10
0.028284271
20
0.14
30
0
70
32
0
VERTEX
8
0
62
30
10
0
20
0.1
30
0
70
32
0
SEQEND
8
0
0
POLYLINE
8
0
62
30
66
1
10
0
20
0
30
0
70
8
0
VERTEX
8
0
62
30
10
0.056568542
20
0.14
30
0
70
32
0
VERTEX
8
0
62
30
10
0.084852814
20
0.1
30
0
70
32
0
SEQEND
8
0
0
POLYLINE
8
0
62
30
66
1
10
0
20
0
30
0
70
8
0
VERTEX
8
0
62
30
10
0.084852814
20
0.14
30
0
70
32
0
VERTEX
8
0
62
30
10
0.056568542
20
0.1
30
0
70
32
0
SEQEND
8
0
0
POLYLINE
8
0
62
30
66
1
10
0
20
0
30
0
70
8
0
VERTEX
8
0
62
30
10
0.028284271
20
0.12
30
0
70
32
0
VERTEX
8
0
62
30
10
0.056568542
20
0.12
30
0
70
32
0
SEQEND
8
0
0
POLYLINE
8
0
62
30
66
1
10
0
20
0
30
0
70
8
0
VERTEX
8
0
62
30
10
0.084852814
20
0.12
30
0
70
32
0
VERTEX
8
0
62
30
10
0.11313708
20
0.12
30
0
70
32
0
SEQEND
8
0
0
POLYLINE
8
0
62
5
66
1
10
0
20
0
30
0
70
8
0
VERTEX
8
0
62
5
10
0
20
0.12
30
0
70
32
0
VERTEX
8
0
62
5
10
0.014142136
20
0.12
30
0
70
32
0
SEQEND
8
0
0
POLYLINE
8
0
62
5
66
1
10
0
20
0
30
0
70
8
0
VERTEX
8
0
62
5
10
0.056568542
20
0.12
30
0
70
32
0
VERTEX
8
0
62
5
10
0.070710678
20
0.12
30
0
70
32
0
SEQEND
8
0
0
POLYLINE
8
0
62
5
66
1
10
0
20
0
30
0
70
8
0
VERTEX
8
0
62
5
10
0.014142136
20
0.12
30
0
70
32
0
VERTEX
8
0
62
5
10
0.028284271
20
0.12
30
0
70
32
0
SEQEND
8
0
0
POLYLINE
8
0
62
5
66
1
10
0
20
0
30
0
70
8
0
VERTEX
8
0
62
5
10
0.070710678
20
0.12
30
0
70
32
0
VERTEX
8
0
62
5
10
0.084852814
20
0.12
30
0
70
32
0
SEQEND
8
0
0
POLYLINE
8
0
62
5
66
1
10
0
20
0
30
0
70
8
0
VERTEX
8
0
62
5
10
0.028284271
20
0.1
30
0
70
32
0
VERTEX
8
0
62
5
10
0.028284271
20
0.14
30
0
70
32
0
SEQEND
8
0
0
POLYLINE
8
0
62
5
66
1
10
0
20
0
30
0
70
8
0
VERTEX
8
0
62
5
10
0.056568542
20
0.1
30
0
70
32
0
VERTEX
8
0
62
5
10
0.056568542
20
0.14
30
0
70
32
0
SEQEND
8
0
0
POLYLINE
8
0
62
5
66
1
10
0
20
0
30
0
70
8
0
VERTEX
8
0
62
5
10
0.084852814
20
0.1
30
0
70
32
0
VERTEX
8
0
62
5
10
0.084852814
20
0.14
30
0
70
32
0
SEQEND
8
0
0
POLYLINE
8
0
62
5
66
1
10
0
20
0
30
0
70
8
0
VERTEX
8
0
62
5
10
0
20
0.1
30
0
70
32
0
VERTEX
8
0
62
5
10
0
20
0.14
30
0
70
32
0
SEQEND
8
0
0
POLYLINE
8
0
62
5
66
1
10
0
20
0
30
0
70
8
0
VERTEX
8
0
62
5
10
0.22627417
20
0.14
30
0
70
32
0
VERTEX
8
0
62
5
10
0.22627417
20
0.1
30
0
70
32
0
SEQEND
8
0
0
POLYLINE
8
0
62
5
66
1
10
0
20
0
30
0
70
8
0
VERTEX
8
0
62
5
10
0.11313708
20
0.1
30
0
70
32
0
VERTEX
8
0
62
5
10
0.22627417
20
0.1
30
0
70
32
0
SEQEND
8
0
0
POLYLINE
8
0
62
5
66
1
10
0
20
0
30
0
70
8
0
VERTEX
8
0
62
5
10
0.11313708
20
0.14
30
0
70
32
0
VERTEX
8
0
62
5
10
0.22627417
20
0.14
30
0
70
32
0
SEQEND
8
0
0
POLYLINE
8
0
62
5
66
1
10
0
20
0
30
0
70
8
0
VERTEX
8
0
62
5
10
0.14142136
20
0.1
30
0
70
32
0
VERTEX
8
0
62
5
10
0.14142136
20
0.1
30
0
70
32
0
SEQEND
8
0
0
POLYLINE
8
0
62
5
66
1
10
0
20
0
30
0
70
8
0
VERTEX
8
0
62
5
10
0.16970563
20
0.1
30
0
70
32
0
VERTEX
8
0
62
5
10
0.16970563
20
0.1
30
0
70
32
0
SEQEND
8
0
0
POLYLINE
8
0
62
5
66
1
10
0
20
0
30
0
70
8
0
VERTEX
8
0
62
5
10
0.1979899
20
0.1
30
0
70
32
0
VERTEX
8
0
62
5
10
0.1979899
20
0.1
30
0
70
32
0
SEQEND
8
0
0
POLYLINE
8
0
62
5
66
1
10
0
20
0
30
0
70
8
0
VERTEX
8
0
62
5
10
0.14142136
20
0.14
30
0
70
32
0
VERTEX
8
0
62
5
10
0.14142136
20
0.14
30
0
70
32
0
SEQEND
8
0
0
POLYLINE
8
0
62
5
66
1
10
0
20
0
30
0
70
8
0
VERTEX
8
0
62
5
10
0.16970563
20
0.14
30
0
70
32
0
VERTEX
8
0
62
5
10
0.16970563
20
0.14
30
0
70
32
0
SEQEND
8
0
0
POLYLINE
8
0
62
5
66
1
10
0
20
0
30
0
70
8
0
VERTEX
8
0
62
5
10
0.1979899
20
0.14
30
0
70
32
0
VERTEX
8
0
62
5
10
0.1979899
20
0.14
30
0
70
32
0
SEQEND
8
0
0
POLYLINE
8
0
62
30
66
1
10
0
20
0
30
0
70
8
0
VERTEX
8
0
62
30
10
0.11313708
20
0.14
30
0
70
32
0
VERTEX
8
0
62
30
10
0.14142136
20
0.1
30
0
70
32
0
SEQEND
8
0
0
POLYLINE
8
0
62
30
66
1
10
0
20
0
30
0
70
8
0
VERTEX
8
0
62
30
10
0.14142136
20
0.14
30
0
70
32
0
VERTEX
8
0
62
30
10
0.11313708
20
0.1
30
0
70
32
0
SEQEND
8
0
0
POLYLINE
8
0
62
30
66
1
10
0
20
0
30
0
70
8
0
VERTEX
8
0
62
30
10
0.16970563
20
0.14
30
0
70
32
0
VERTEX
8
0
62
30
10
0.1979899
20
0.1
30
0
70
32
0
SEQEND
8
0
0
POLYLINE
8
0
62
30
66
1
10
0
20
0
30
0
70
8
0
VERTEX
8
0
62
30
10
0.1979899
20
0.14
30
0
70
32
0
VERTEX
8
0
62
30
10
0.16970563
20
0.1
30
0
70
32
0
SEQEND
8
0
0
POLYLINE
8
0
62
30
66
1
10
0
20
0
30
0
70
8
0
VERTEX
8
0
62
30
10
0.14142136
20
0.12
30
0
70
32
0
VERTEX
8
0
62
30
10
0.16970563
20
0.12
30
0
70
32
0
SEQEND
8
0
0
POLYLINE
8
0
62
30
66
1
10
0
20
0
30
0
70
8
0
VERTEX
8
0
62
30
10
0.1979899
20
0.12
30
0
70
32
0
VERTEX
8
0
62
30
10
0.22627417
20
0.12
30
0
70
32
0
SEQEND
8
0
0
POLYLINE
8
0
62
5
66
1
10
0
20
0
30
0
70
8
0
VERTEX
8
0
62
5
10
0.11313708
20
0.12
30
0
70
32
0
VERTEX
8
0
62
5
10
0.12727922
20
0.12
30
0
70
32
0
SEQEND
8
0
0
POLYLINE
8
0
62
5
66
1
10
0
20
0
30
0
70
8
0
VERTEX
8
0
62
5
10
0.16970563
20
0.12
30
0
70
32
0
VERTEX
8
0
62
5
10
0.18384776
20
0.12
30
0
70
32
0
SEQEND
8
0
0
POLYLINE
8
0
62
5
66
1
10
0
20
0
30
0
70
8
0
VERTEX
8
0
62
5
10
0.12727922
20
0.12
30
0
70
32
0
VERTEX
8
0
62
5
10
0.14142136
20
0.12
30
0
70
32
0
SEQEND
8
0
0
POLYLINE
8
0
62
5
66
1
10
0
20
0
30
0
70
8
0
VERTEX
8
0
62
5
10
0.18384776
20
0.12
30
0
70
32
0
VERTEX
8
0
62
5
10
0.1979899
20
0.12
30
0
70
32
0
SEQEND
8
0
0
POLYLINE
8
0
62
5
66
1
10
0
20
0
30
0
70
8
0
VERTEX
8
0
62
5
10
0.14142136
20
0.1
30
0
70
32
0
VERTEX
8
0
62
5
10
0.14142136
20
0.14
30
0
70
32
0
SEQEND
8
0
0
POLYLINE
8
0
62
5
66
1
10
0
20
0
30
0
70
8
0
VERTEX
8
0
62
5
10
0.16970563
20
0.1
30
0
70
32
0
VERTEX
8
0
62
5
10
0.16970563
20
0.14
30
0
70
32
0
SEQEND
8
0
0
POLYLINE
8
0
62
5
66
1
10
0
20
0
30
0
70
8
0
VERTEX
8
0
62
5
10
0.1979899
20
0.1
30
0
70
32
0
VERTEX
8
0
62
5
10
0.1979899
20
0.14
30
0
70
32
0
SEQEND
8
0
0
POLYLINE
8
0
62
5
66
1
10
0
20
0
30
0
70
8
0
VERTEX
8
0
62
5
10
0.11313708
20
0.1
30
0
70
32
0
VERTEX
8
0
62
5
10
0.11313708
20
0.14
30
0
70
32
0
SEQEND
8
0
0
POLYLINE
8
0
62
5
66
1
10
0
20
0
30
0
70
8
0
VERTEX
8
0
62
5
10
-0.11313708
20
0.1
30
0
70
32
0
VERTEX
8
0
62
5
10
-0.11313708
20
0.14
30
0
70
32
0
SEQEND
8
0
0
POLYLINE
8
0
62
5
66
1
10
0
20
0
30
0
70
8
0
VERTEX
8
0
62
5
10
-0.11313708
20
0.1
30
0
70
32
0
VERTEX
8
0
62
5
10
0
20
0.1
30
0
70
32
0
SEQEND
8
0
0
POLYLINE
8
0
62
5
66
1
10
0
20
0
30
0
70
8
0
VERTEX
8
0
62
5
10
-0.11313708
20
0.14
30
0
70
32
0
VERTEX
8
0
62
5
10
0
20
0.14
30
0
70
32
0
SEQEND
8
0
0
POLYLINE
8
0
62
5
66
1
10
0
20
0
30
0
70
8
0
VERTEX
8
0
62
5
10
-0.084852814
20
0.1
30
0
70
32
0
VERTEX
8
0
62
5
10
-0.084852814
20
0.1
30
0
70
32
0
SEQEND
8
0
0
POLYLINE
8
0
62
5
66
1
10
0
20
0
30
0
70
8
0
VERTEX
8
0
62
5
10
-0.056568542
20
0.1
30
0
70
32
0
VERTEX
8
0
62
5
10
-0.056568542
20
0.1
30
0
70
32
0
SEQEND
8
0
0
POLYLINE
8
0
62
5
66
1
10
0
20
0
30
0
70
8
0
VERTEX
8
0
62
5
10
-0.028284271
20
0.1
30
0
70
32
0
VERTEX
8
0
62
5
10
-0.028284271
20
0.1
30
0
70
32
0
SEQEND
8
0
0
POLYLINE
8
0
62
5
66
1
10
0
20
0
30
0
70
8
0
VERTEX
8
0
62
5
10
-0.084852814
20
0.14
30
0
70
32
0
VERTEX
8
0
62
5
10
-0.084852814
20
0.14
30
0
70
32
0
SEQEND
8
0
0
POLYLINE
8
0
62
5
66
1
10
0
20
0
30
0
70
8
0
VERTEX
8
0
62
5
10
-0.056568542
20
0.14
30
0
70
32
0
VERTEX
8
0
62
5
10
-0.056568542
20
0.14
30
0
70
32
0
SEQEND
8
0
0
POLYLINE
8
0
62
5
66
1
10
0
20
0
30
0
70
8
0
VERTEX
8
0
62
5
10
-0.028284271
20
0.14
30
0
70
32
0
VERTEX
8
0
62
5
10
-0.028284271
20
0.14
30
0
70
32
0
SEQEND
8
0
0
POLYLINE
8
0
62
30
66
1
10
0
20
0
30
0
70
8
0
VERTEX
8
0
62
30
10
-0.11313708
20
0.14
30
0
70
32
0
VERTEX
8
0
62
30
10
-0.084852814
20
0.1
30
0
70
32
0
SEQEND
8
0
0
POLYLINE
8
0
62
30
66
1
10
0
20
0
30
0
70
8
0
VERTEX
8
0
62
30
10
-0.084852814
20
0.14
30
0
70
32
0
VERTEX
8
0
62
30
10
-0.11313708
20
0.1
30
0
70
32
0
SEQEND
8
0
0
POLYLINE
8
0
62
30
66
1
10
0
20
0
30
0
70
8
0
VERTEX
8
0
62
30
10
-0.056568542
20
0.14
30
0
70
32
0
VERTEX
8
0
62
30
10
-0.028284271
20
0.1
30
0
70
32
0
SEQEND
8
0
0
POLYLINE
8
0
62
30
66
1
10
0
20
0
30
0
70
8
0
VERTEX
8
0
62
30
10
-0.028284271
20
0.14
30
0
70
32
0
VERTEX
8
0
62
30
10
-0.056568542
20
0.1
30
0
70
32
0
SEQEND
8
0
0
POLYLINE
8
0
62
30
66
1
10
0
20
0
30
0
70
8
0
VERTEX
8
0
62
30
10
-0.084852814
20
0.12
30
0
70
32
0
VERTEX
8
0
62
30
10
-0.056568542
20
0.12
30
0
70
32
0
SEQEND
8
0
0
POLYLINE
8
0
62
30
66
1
10
0
20
0
30
0
70
8
0
VERTEX
8
0
62
30
10
-0.028284271
20
0.12
30
0
70
32
0
VERTEX
8
0
62
30
10
0
20
0.12
30
0
70
32
0
SEQEND
8
0
0
POLYLINE
8
0
62
5
66
1
10
0
20
0
30
0
70
8
0
VERTEX
8
0
62
5
10
-0.11313708
20
0.12
30
0
70
32
0
VERTEX
8
0
62
5
10
-0.098994949
20
0.12
30
0
70
32
0
SEQEND
8
0
0
POLYLINE
8
0
62
5
66
1
10
0
20
0
30
0
70
8
0
VERTEX
8
0
62
5
10
-0.056568542
20
0.12
30
0
70
32
0
VERTEX
8
0
62
5
10
-0.042426407
20
0.12
30
0
70
32
0
SEQEND
8
0
0
POLYLINE
8
0
62
5
66
1
10
0
20
0
30
0
70
8
0
VERTEX
8
0
62
5
10
-0.098994949
20
0.12
30
0
70
32
0
VERTEX
8
0
62
5
10
-0.084852814
20
0.12
30
0
70
32
0
SEQEND
8
0
0
POLYLINE
8
0
62
5
66
1
10
0
20
0
30
0
70
8
0
VERTEX
8
0
62
5
10
-0.042426407
20
0.12
30
0
70
32
0
VERTEX
8
0
62
5
10
-0.028284271
20
0.12
30
0
70
32
0
SEQEND
8
0
0
POLYLINE
8
0
62
5
66
1
10
0
20
0
30
0
70
8
0
VERTEX
8
0
62
5
10
-0.084852814
20
0.1
30
0
70
32
0
VERTEX
8
0
62
5
10
-0.084852814
20
0.14
30
0
70
32
0
SEQEND
8
0
0
POLYLINE
8
0
62
5
66
1
10
0
20
0
30
0
70
8
0
VERTEX
8
0
62
5
10
-0.056568542
20
0.1
30
0
70
32
0
VERTEX
8
0
62
5
10
-0.056568542
20
0.14
30
0
70
32
0
SEQEND
8
0
0
POLYLINE
8
0
62
5
66
1
10
0
20
0
30
0
70
8
0
VERTEX
8
0
62
5
10
-0.028284271
20
0.1
30
0
70
32
0
VERTEX
8
0
62
5
10
-0.028284271
20
0.14
30
0
70
32
0
SEQEND
8
0
0
POLYLINE
8
0
62
5
66
1
10
0
20
0
30
0
70
8
0
VERTEX
8
0
62
5
10
-0.11313708
20
0.1
30
0
70
32
0
VERTEX
8
0
62
5
10
-0.11313708
20
0.14
30
0
70
32
0
SEQEND
8
0
0
POLYLINE
8
0
62
5
66
1
10
0
20
0
30
0
70
8
0
VERTEX
8
0
62
5
10
0
20
0.14
30
0
70
32
0
VERTEX
8
0
62
5
10
0
20
0.21537013
30
0
70
32
0
SEQEND
8
0
0
POLYLINE
8
0
62
5
66
1
10
0
20
0
30
0
70
8
0
VERTEX
8
0
62
5
10
0.11313708
20
0.21537013
30
0
70
32
0
VERTEX
8
0
62
5
10
0.11313708
20
0.14
30
0
70
32
0
SEQEND
8
0
0
POLYLINE
8
0
62
5
66
1
10
0
20
0
30
0
70
8
0
VERTEX
8
0
62
5
10
0
20
0.1400705
30
0
70
32
0
VERTEX
8
0
62
5
10
0.028284271
20
0.1506091
30
0
70
32
0
VERTEX
8
0
62
5
10
0.056568542
20
0.15884253
30
0
70
32
0
VERTEX
8
0
62
5
10
0.084852814
20
0.14830393
30
0
70
32
0
VERTEX
8
0
62
5
10
0.11313708
20
0.1400705
30
0
70
32
0
SEQEND
8
0
0
POLYLINE
8
0
62
5
66
1
10
0
20
0
30
0
70
8
0
VERTEX
8
0
62
5
10
0
20
0.17775557
30
0
70
32
0
VERTEX
8
0
62
5
10
0.028284271
20
0.18829417
30
0
70
32
0
VERTEX
8
0
62
5
10
0.056568542
20
0.1965276
30
0
70
32
0
VERTEX
8
0
62
5
10
0.084852814
20
0.185989
30
0
70
32
0
VERTEX
8
0
62
5
10
0.11313708
20
0.17775557
30
0
70
32
0
SEQEND
8
0
0
POLYLINE
8
0
62
30
66
1
10
0
20
0
30
0
70
8
0
VERTEX
8
0
62
30
10
0
20
0.15884253
30
0
70
32
0
VERTEX
8
0
62
30
10
0.11313708
20
0.15884253
30
0
70
32
0
SEQEND
8
0
0
POLYLINE
8
0
62
30
66
1
10
0
20
0
30
0
70
8
0
VERTEX
8
0
62
30
10
0
20
0.1965276
30
0
70
32
0
VERTEX
8
0
62
30
10
0.11313708
20
0.1965276
30
0
70
32
0
SEQEND
8
0
0
POLYLINE
8
0
62
30
66
1
10
0
20
0
30
0
70
8
0
VERTEX
8
0
62
30
10
0.028284271
20
0.1506091
30
0
70
32
0
VERTEX
8
0
62
30
10
0.028284271
20
0.15884253
30
0
70
32
0
SEQEND
8
0
0
POLYLINE
8
0
62
30
66
1
10
0
20
0
30
0
70
8
0
VERTEX
8
0
62
30
10
0.056568542
20
0.15884253
30
0
70
32
0
VERTEX
8
0
62
30
10
0.056568542
20
0.15884253
30
0
70
32
0
SEQEND
8
0
0
POLYLINE
8
0
62
30
66
1
10
0
20
0
30
0
70
8
0
VERTEX
8
0
62
30
10
0.084852814
20
0.14830393
30
0
70
32
0
VERTEX
8
0
62
30
10
0.084852814
20
0.15884253
30
0
70
32
0
SEQEND
8
0
0
POLYLINE
8
0
62
30
66
1
10
0
20
0
30
0
70
8
0
VERTEX
8
0
62
30
10
0.028284271
20
0.18829417
30
0
70
32
0
VERTEX
8
0
62
30
10
0.028284271
20
0.1965276
30
0
70
32
0
SEQEND
8
0
0
POLYLINE
8
0
62
30
66
1
10
0
20
0
30
0
70
8
0
VERTEX
8
0
62
30
10
0.056568542
20
0.1965276
30
0
70
32
0
VERTEX
8
0
62
30
10
0.056568542
20
0.1965276
30
0
70
32
0
SEQEND
8
0
0
POLYLINE
8
0
62
30
66
1
10
0
20
0
30
0
70
8
0
VERTEX
8
0
62
30
10
0.084852814
20
0.185989
30
0
70
32
0
VERTEX
8
0
62
30
10
0.084852814
20
0.1965276
30
0
70
32
0
SEQEND
8
0
0
POLYLINE
8
0
62
5
66
1
10
0
20
0
30
0
70
8
0
VERTEX
8
0
62
5
10
0.028284271
20
0.14
30
0
70
32
0
VERTEX
8
0
62
5
10
0.028284271
20
0.1506091
30
0
70
32
0
SEQEND
8
0
0
POLYLINE
8
0
62
5
66
1
10
0
20
0
30
0
70
8
0
VERTEX
8
0
62
5
10
0.056568542
20
0.14
30
0
70
32
0
VERTEX
8
0
62
5
10
0.056568542
20
0.15884253
30
0
70
32
0
SEQEND
8
0
0
POLYLINE
8
0
62
5
66
1
10
0
20
0
30
0
70
8
0
VERTEX
8
0
62
5
10
0.084852814
20
0.14
30
0
70
32
0
VERTEX
8
0
62
5
10
0.084852814
20
0.14830393
30
0
70
32
0
SEQEND
8
0
0
POLYLINE
8
0
62
5
66
1
10
0
20
0
30
0
70
8
0
VERTEX
8
0
62
5
10
0.028284271
20
0.17768506
30
0
70
32
0
VERTEX
8
0
62
5
10
0.028284271
20
0.18829417
30
0
70
32
0
SEQEND
8
0
0
POLYLINE
8
0
62
5
66
1
10
0
20
0
30
0
70
8
0
VERTEX
8
0
62
5
10
0.056568542
20
0.17768506
30
0
70
32
0
VERTEX
8
0
62
5
10
0.056568542
20
0.1965276
30
0
70
32
0
SEQEND
8
0
0
POLYLINE
8
0
62
5
66
1
10
0
20
0
30
0
70
8
0
VERTEX
8
0
62
5
10
0.084852814
20
0.17768506
30
0
70
32
0
VERTEX
8
0
62
5
10
0.084852814
20
0.185989
30
0
70
32
0
SEQEND
8
0
0
POLYLINE
8
0
62
5
66
1
10
0
20
0
30
0
70
8
0
VERTEX
8
0
62
5
10
0.028284271
20
0.15884253
30
0
70
32
0
VERTEX
8
0
62
5
10
0.028284271
20
0.17768506
30
0
70
32
0
SEQEND
8
0
0
POLYLINE
8
0
62
5
66
1
10
0
20
0
30
0
70
8
0
VERTEX
8
0
62
5
10
0.056568542
20
0.15884253
30
0
70
32
0
VERTEX
8
0
62
5
10
0.056568542
20
0.17768506
30
0
70
32
0
SEQEND
8
0
0
POLYLINE
8
0
62
5
66
1
10
0
20
0
30
0
70
8
0
VERTEX
8
0
62
5
10
0.084852814
20
0.15884253
30
0
70
32
0
VERTEX
8
0
62
5
10
0.084852814
20
0.17768506
30
0
70
32
0
SEQEND
8
0
0
POLYLINE
8
0
62
5
66
1
10
0
20
0
30
0
70
8
0
VERTEX
8
0
62
5
10
0.028284271
20
0.1965276
30
0
70
32
0
VERTEX
8
0
62
5
10
0.028284271
20
0.21537013
30
0
70
32
0
SEQEND
8
0
0
POLYLINE
8
0
62
5
66
1
10
0
20
0
30
0
70
8
0
VERTEX
8
0
62
5
10
0.056568542
20
0.1965276
30
0
70
32
0
VERTEX
8
0
62
5
10
0.056568542
20
0.21537013
30
0
70
32
0
SEQEND
8
0
0
POLYLINE
8
0
62
5
66
1
10
0
20
0
30
0
70
8
0
VERTEX
8
0
62
5
10
0.084852814
20
0.1965276
30
0
70
32
0
VERTEX
8
0
62
5
10
0.084852814
20
0.21537013
30
0
70
32
0
SEQEND
8
0
0
POLYLINE
8
0
62
30
66
1
10
0
20
0
30
0
70
8
0
VERTEX
8
0
62
30
10
0
20
0.1400705
30
0
70
32
0
VERTEX
8
0
62
30
10
0.010734517
20
0.15884253
30
0
70
32
0
SEQEND
8
0
0
POLYLINE
8
0
62
30
66
1
10
0
20
0
30
0
70
8
0
VERTEX
8
0
62
30
10
0.028284271
20
0.1506091
30
0
70
32
0
VERTEX
8
0
62
30
10
0.036237281
20
0.15884253
30
0
70
32
0
SEQEND
8
0
0
POLYLINE
8
0
62
30
66
1
10
0
20
0
30
0
70
8
0
VERTEX
8
0
62
30
10
0.056568542
20
0.15884253
30
0
70
32
0
VERTEX
8
0
62
30
10
0.056568542
20
0.15884253
30
0
70
32
0
SEQEND
8
0
0
POLYLINE
8
0
62
30
66
1
10
0
20
0
30
0
70
8
0
VERTEX
8
0
62
30
10
0.084852814
20
0.14830393
30
0
70
32
0
VERTEX
8
0
62
30
10
0.093633978
20
0.15884253
30
0
70
32
0
SEQEND
8
0
0
POLYLINE
8
0
62
30
66
1
10
0
20
0
30
0
70
8
0
VERTEX
8
0
62
30
10
0
20
0.17775557
30
0
70
32
0
VERTEX
8
0
62
30
10
0.010734517
20
0.1965276
30
0
70
32
0
SEQEND
8
0
0
POLYLINE
8
0
62
30
66
1
10
0
20
0
30
0
70
8
0
VERTEX
8
0
62
30
10
0.028284271
20
0.18829417
30
0
70
32
0
VERTEX
8
0
62
30
10
0.036237281
20
0.1965276
30
0
70
32
0
SEQEND
8
0
0
POLYLINE
8
0
62
30
66
1
10
0
20
0
30
0
70
8
0
VERTEX
8
0
62
30
10
0.056568542
20
0.1965276
30
0
70
32
0
VERTEX
8
0
62
30
10
0.056568542
20
0.1965276
30
0
70
32
0
SEQEND
8
0
0
POLYLINE
8
0
62
30
66
1
10
0
20
0
30
0
70
8
0
VERTEX
8
0
62
30
10
0.084852814
20
0.185989
30
0
70
32
0
VERTEX
8
0
62
30
10
0.093633978
20
0.1965276
30
0
70
32
0
SEQEND
8
0
0
POLYLINE
8
0
62
5
66
1
10
0
20
0
30
0
70
8
0
VERTEX
8
0
62
5
10
0.22627417
20
0.21537013
30
0
70
32
0
VERTEX
8
0
62
5
10
0.22627417
20
0.14
30
0
70
32
0
SEQEND
8
0
0
POLYLINE
8
0
62
5
66
1
10
0
20
0
30
0
70
8
0
VERTEX
8
0
62
5
10
0.11313708
20
0.1400705
30
0
70
32
0
VERTEX
8
0
62
5
10
0.14142136
20
0.1506091
30
0
70
32
0
VERTEX
8
0
62
5
10
0.16970563
20
0.15884253
30
0
70
32
0
VERTEX
8
0
62
5
10
0.1979899
20
0.14830393
30
0
70
32
0
VERTEX
8
0
62
5
10
0.22627417
20
0.1400705
30
0
70
32
0
SEQEND
8
0
0
POLYLINE
8
0
62
5
66
1
10
0
20
0
30
0
70
8
0
VERTEX
8
0
62
5
10
0.11313708
20
0.17775557
30
0
70
32
0
VERTEX
8
0
62
5
10
0.14142136
20
0.18829417
30
0
70
32
0
VERTEX
8
0
62
5
10
0.16970563
20
0.1965276
30
0
70
32
0
VERTEX
8
0
62
5
10
0.1979899
20
0.185989
30
0
70
32
0
VERTEX
8
0
62
5
10
0.22627417
20
0.17775557
30
0
70
32
0
SEQEND
8
0
0
POLYLINE
8
0
62
30
66
1
10
0
20
0
30
0
70
8
0
VERTEX
8
0
62
30
10
0.11313708
20
0.15884253
30
0
70
32
0
VERTEX
8
0
62
30
10
0.22627417
20
0.15884253
30
0
70
32
0
SEQEND
8
0
0
POLYLINE
8
0
62
30
66
1
10
0
20
0
30
0
70
8
0
VERTEX
8
0
62
30
10
0.11313708
20
0.1965276
30
0
70
32
0
VERTEX
8
0
62
30
10
0.22627417
20
0.1965276
30
0
70
32
0
SEQEND
8
0
0
POLYLINE
8
0
62
30
66
1
10
0
20
0
30
0
70
8
0
VERTEX
8
0
62
30
10
0.14142136
20
0.1506091
30
0
70
32
0
VERTEX
8
0
62
30
10
0.14142136
20
0.15884253
30
0
70
32
0
SEQEND
8
0
0
POLYLINE
8
0
62
30
66
1
10
0
20
0
30
0
70
8
0
VERTEX
8
0
62
30
10
0.16970563
20
0.15884253
30
0
70
32
0
VERTEX
8
0
62
30
10
0.16970563
20
0.15884253
30
0
70
32
0
SEQEND
8
0
0
POLYLINE
8
0
62
30
66
1
10
0
20
0
30
0
70
8
0
VERTEX
8
0
62
30
10
0.1979899
20
0.14830393
30
0
70
32
0
VERTEX
8
0
62
30
10
0.1979899
20
0.15884253
30
0
70
32
0
SEQEND
8
0
0
POLYLINE
8
0
62
30
66
1
10
0
20
0
30
0
70
8
0
VERTEX
8
0
62
30
10
0.14142136
20
0.18829417
30
0
70
32
0
VERTEX
8
0
62
30
10
0.14142136
20
0.1965276
30
0
70
32
0
SEQEND
8
0
0
POLYLINE
8
0
62
30
66
1
10
0
20
0
30
0
70
8
0
VERTEX
8
0
62
30
10
0.16970563
20
0.1965276
30
0
70
32
0
VERTEX
8
0
62
30
10
0.16970563
20
0.1965276
30
0
70
32
0
SEQEND
8
0
0
POLYLINE
8
0
62
30
66
1
10
0
20
0
30
0
70
8
0
VERTEX
8
0
62
30
10
0.1979899
20
0.185989
30
0
70
32
0
VERTEX
8
0
62
30
10
0.1979899
20
0.1965276
30
0
70
32
0
SEQEND
8
0
0
POLYLINE
8
0
62
5
66
1
10
0
20
0
30
0
70
8
0
VERTEX
8
0
62
5
10
0.14142136
20
0.14
30
0
70
32
0
VERTEX
8
0
62
5
10
0.14142136
20
0.1506091
30
0
70
32
0
SEQEND
8
0
0
POLYLINE
8
0
62
5
66
1
10
0
20
0
30
0
70
8
0
VERTEX
8
0
62
5
10
0.16970563
20
0.14
30
0
70
32
0
VERTEX
8
0
62
5
10
0.16970563
20
0.15884253
30
0
70
32
0
SEQEND
8
0
0
POLYLINE
8
0
62
5
66
1
10
0
20
0
30
0
70
8
0
VERTEX
8
0
62
5
10
0.1979899
20
0.14
30
0
70
32
0
VERTEX
8
0
62
5
10
0.1979899
20
0.14830393
30
0
70
32
0
SEQEND
8
0
0
POLYLINE
8
0
62
5
66
1
10
0
20
0
30
0
70
8
0
VERTEX
8
0
62
5
10
0.14142136
20
0.17768506
30
0
70
32
0
VERTEX
8
0
62
5
10
0.14142136
20
0.18829417
30
0
70
32
0
SEQEND
8
0
0
POLYLINE
8
0
62
5
66
1
10
0
20
0
30
0
70
8
0
VERTEX
8
0
62
5
10
0.16970563
20
0.17768506
30
0
70
32
0
VERTEX
8
0
62
5
10
0.16970563
20
0.1965276
30
0
70
32
0
SEQEND
8
0
0
POLYLINE
8
0
62
5
66
1
10
0
20
0
30
0
70
8
0
VERTEX
8
0
62
5
10
0.1979899
20
0.17768506
30
0
70
32
0
VERTEX
8
0
62
5
10
0.1979899
20
0.185989
30
0
70
32
0
SEQEND
8
0
0
POLYLINE
8
0
62
5
66
1
10
0
20
0
30
0
70
8
0
VERTEX
8
0
62
5
10
0.14142136
20
0.15884253
30
0
70
32
0
VERTEX
8
0
62
5
10
0.14142136
20
0.17768506
30
0
70
32
0
SEQEND
8
0
0
POLYLINE
8
0
62
5
66
1
10
0
20
0
30
0
70
8
0
VERTEX
8
0
62
5
10
0.16970563
20
0.15884253
30
0
70
32
0
VERTEX
8
0
62
5
10
0.16970563
20
0.17768506
30
0
70
32
0
SEQEND
8
0
0
POLYLINE
8
0
62
5
66
1
10
0
20
0
30
0
70
8
0
VERTEX
8
0
62
5
10
0.1979899
20
0.15884253
30
0
70
32
0
VERTEX
8
0
62
5
10
0.1979899
20
0.17768506
30
0
70
32
0
SEQEND
8
0
0
POLYLINE
8
0
62
5
66
1
10
0
20
0
30
0
70
8
0
VERTEX
8
0
62
5
10
0.14142136
20
0.1965276
30
0
70
32
0
VERTEX
8
0
62
5
10
0.14142136
20
0.21537013
30
0
70
32
0
SEQEND
8
0
0
POLYLINE
8
0
62
5
66
1
10
0
20
0
30
0
70
8
0
VERTEX
8
0
62
5
10
0.16970563
20
0.1965276
30
0
70
32
0
VERTEX
8
0
62
5
10
0.16970563
20
0.21537013
30
0
70
32
0
SEQEND
8
0
0
POLYLINE
8
0
62
5
66
1
10
0
20
0
30
0
70
8
0
VERTEX
8
0
62
5
10
0.1979899
20
0.1965276
30
0
70
32
0
VERTEX
8
0
62
5
10
0.1979899
20
0.21537013
30
0
70
32
0
SEQEND
8
0
0
POLYLINE
8
0
62
30
66
1
10
0
20
0
30
0
70
8
0
VERTEX
8
0
62
30
10
0.11313708
20
0.1400705
30
0
70
32
0
VERTEX
8
0
62
30
10
0.1238716
20
0.15884253
30
0
70
32
0
SEQEND
8
0
0
POLYLINE
8
0
62
30
66
1
10
0
20
0
30
0
70
8
0
VERTEX
8
0
62
30
10
0.14142136
20
0.1506091
30
0
70
32
0
VERTEX
8
0
62
30
10
0.14937437
20
0.15884253
30
0
70
32
0
SEQEND
8
0
0
POLYLINE
8
0
62
30
66
1
10
0
20
0
30
0
70
8
0
VERTEX
8
0
62
30
10
0.16970563
20
0.15884253
30
0
70
32
0
VERTEX
8
0
62
30
10
0.16970563
20
0.15884253
30
0
70
32
0
SEQEND
8
0
0
POLYLINE
8
0
62
30
66
1
10
0
20
0
30
0
70
8
0
VERTEX
8
0
62
30
10
0.1979899
20
0.14830393
30
0
70
32
0
VERTEX
8
0
62
30
10
0.20677106
20
0.15884253
30
0
70
32
0
SEQEND
8
0
0
POLYLINE
8
0
62
30
66
1
10
0
20
0
30
0
70
8
0
VERTEX
8
0
62
30
10
0.11313708
20
0.17775557
30
0
70
32
0
VERTEX
8
0
62
30
10
0.1238716
20
0.1965276
30
0
70
32
0
SEQEND
8
0
0
POLYLINE
8
0
62
30
66
1
10
0
20
0
30
0
70
8
0
VERTEX
8
0
62
30
10
0.14142136
20
0.18829417
30
0
70
32
0
VERTEX
8
0
62
30
10
0.14937437
20
0.1965276
30
0
70
32
0
SEQEND
8
0
0
POLYLINE
8
0
62
30
66
1
10
0
20
0
30
0
70
8
0
VERTEX
8
0
62
30
10
0.16970563
20
0.1965276
30
0
70
32
0
VERTEX
8
0
62
30
10
0.16970563
20
0.1965276
30
0
70
32
0
SEQEND
8
0
0
POLYLINE
8
0
62
30
66
1
10
0
20
0
30
0
70
8
0
VERTEX
8
0
62
30
10
0.1979899
20
0.185989
30
0
70
32
0
VERTEX
8
0
62
30
10
0.20677106
20
0.1965276
30
0
70
32
0
SEQEND
8
0
0
POLYLINE
8
0
62
5
66
1
10
0
20
0
30
0
70
8
0
VERTEX
8
0
62
5
10
-0.11313708
20
0.14
30
0
70
32
0
VERTEX
8
0
62
5
10
-0.11313708
20
0.21537013
30
0
70
32
0
SEQEND
8
0
0
POLYLINE
8
0
62
5
66
1
10
0
20
0
30
0
70
8
0
VERTEX
8
0
62
5
10
-0.11313708
20
0.1400705
30
0
70
32
0
VERTEX
8
0
62
5
10
-0.084852814
20
0.1506091
30
0
70
32
0
VERTEX
8
0
62
5
10
-0.056568542
20
0.15884253
30
0
70
32
0
VERTEX
8
0
62
5
10
-0.028284271
20
0.14830393
30
0
70
32
0
VERTEX
8
0
62
5
10
0
20
0.1400705
30
0
70
32
0
SEQEND
8
0
0
POLYLINE
8
0
62
5
66
1
10
0
20
0
30
0
70
8
0
VERTEX
8
0
62
5
10
-0.11313708
20
0.17775557
30
0
70
32
0
VERTEX
8
0
62
5
10
-0.084852814
20
0.18829417
30
0
70
32
0
VERTEX
8
0
62
5
10
-0.056568542
20
0.1965276
30
0
70
32
0
VERTEX
8
0
62
5
10
-0.028284271
20
0.185989
30
0
70
32
0
VERTEX
8
0
62
5
10
0
20
0.17775557
30
0
70
32
0
SEQEND
8
0
0
POLYLINE
8
0
62
30
66
1
10
0
20
0
30
0
70
8
0
VERTEX
8
0
62
30
10
-0.11313708
20
0.15884253
30
0
70
32
0
VERTEX
8
0
62
30
10
0
20
0.15884253
30
0
70
32
0
SEQEND
8
0
0
POLYLINE
8
0
62
30
66
1
10
0
20
0
30
0
70
8
0
VERTEX
8
0
62
30
10
-0.11313708
20
0.1965276
30
0
70
32
0
VERTEX
8
0
62
30
10
0
20
0.1965276
30
0
70
32
0
SEQEND
8
0
0
POLYLINE
8
0
62
30
66
1
10
0
20
0
30
0
70
8
0
VERTEX
8
0
62
30
10
-0.084852814
20
0.1506091
30
0
70
32
0
VERTEX
8
0
62
30
10
-0.084852814
20
0.15884253
30
0
70
32
0
SEQEND
8
0
0
POLYLINE
8
0
62
30
66
1
10
0
20
0
30
0
70
8
0
VERTEX
8
0
62
30
10
-0.056568542
20
0.15884253
30
0
70
32
0
VERTEX
8
0
62
30
10
-0.056568542
20
0.15884253
30
0
70
32
0
SEQEND
8
0
0
POLYLINE
8
0
62
30
66
1
10
0
20
0
30
0
70
8
0
VERTEX
8
0
62
30
10
-0.028284271
20
0.14830393
30
0
70
32
0
VERTEX
8
0
62
30
10
-0.028284271
20
0.15884253
30
0
70
32
0
SEQEND
8
0
0
POLYLINE
8
0
62
30
66
1
10
0
20
0
30
0
70
8
0
VERTEX
8
0
62
30
10
-0.084852814
20
0.18829417
30
0
70
32
0
VERTEX
8
0
62
30
10
-0.084852814
20
0.1965276
30
0
70
32
0
SEQEND
8
0
0
POLYLINE
8
0
62
30
66
1
10
0
20
0
30
0
70
8
0
VERTEX
8
0
62
30
10
-0.056568542
20
0.1965276
30
0
70
32
0
VERTEX
8
0
62
30
10
-0.056568542
20
0.1965276
30
0
70
32
0
SEQEND
8
0
0
POLYLINE
8
0
62
30
66
1
10
0
20
0
30
0
70
8
0
VERTEX
8
0
62
30
10
-0.028284271
20
0.185989
30
0
70
32
0
VERTEX
8
0
62
30
10
-0.028284271
20
0.1965276
30
0
70
32
0
SEQEND
8
0
0
POLYLINE
8
0
62
5
66
1
10
0
20
0
30
0
70
8
0
VERTEX
8
0
62
5
10
-0.084852814
20
0.14
30
0
70
32
0
VERTEX
8
0
62
5
10
-0.084852814
20
0.1506091
30
0
70
32
0
SEQEND
8
0
0
POLYLINE
8
0
62
5
66
1
10
0
20
0
30
0
70
8
0
VERTEX
8
0
62
5
10
-0.056568542
20
0.14
30
0
70
32
0
VERTEX
8
0
62
5
10
-0.056568542
20
0.15884253
30
0
70
32
0
SEQEND
8
0
0
POLYLINE
8
0
62
5
66
1
10
0
20
0
30
0
70
8
0
VERTEX
8
0
62
5
10
-0.028284271
20
0.14
30
0
70
32
0
VERTEX
8
0
62
5
10
-0.028284271
20
0.14830393
30
0
70
32
0
SEQEND
8
0
0
POLYLINE
8
0
62
5
66
1
10
0
20
0
30
0
70
8
0
VERTEX
8
0
62
5
10
-0.084852814
20
0.17768506
30
0
70
32
0
VERTEX
8
0
62
5
10
-0.084852814
20
0.18829417
30
0
70
32
0
SEQEND
8
0
0
POLYLINE
8
0
62
5
66
1
10
0
20
0
30
0
70
8
0
VERTEX
8
0
62
5
10
-0.056568542
20
0.17768506
30
0
70
32
0
VERTEX
8
0
62
5
10
-0.056568542
20
0.1965276
30
0
70
32
0
SEQEND
8
0
0
POLYLINE
8
0
62
5
66
1
10
0
20
0
30
0
70
8
0
VERTEX
8
0
62
5
10
-0.028284271
20
0.17768506
30
0
70
32
0
VERTEX
8
0
62
5
10
-0.028284271
20
0.185989
30
0
70
32
0
SEQEND
8
0
0
POLYLINE
8
0
62
5
66
1
10
0
20
0
30
0
70
8
0
VERTEX
8
0
62
5
10
-0.084852814
20
0.15884253
30
0
70
32
0
VERTEX
8
0
62
5
10
-0.084852814
20
0.17768506
30
0
70
32
0
SEQEND
8
0
0
POLYLINE
8
0
62
5
66
1
10
0
20
0
30
0
70
8
0
VERTEX
8
0
62
5
10
-0.056568542
20
0.15884253
30
0
70
32
0
VERTEX
8
0
62
5
10
-0.056568542
20
0.17768506
30
0
70
32
0
SEQEND
8
0
0
POLYLINE
8
0
62
5
66
1
10
0
20
0
30
0
70
8
0
VERTEX
8
0
62
5
10
-0.028284271
20
0.15884253
30
0
70
32
0
VERTEX
8
0
62
5
10
-0.028284271
20
0.17768506
30
0
70
32
0
SEQEND
8
0
0
POLYLINE
8
0
62
5
66
1
10
0
20
0
30
0
70
8
0
VERTEX
8
0
62
5
10
-0.084852814
20
0.1965276
30
0
70
32
0
VERTEX
8
0
62
5
10
-0.084852814
20
0.21537013
30
0
70
32
0
SEQEND
8
0
0
POLYLINE
8
0
62
5
66
1
10
0
20
0
30
0
70
8
0
VERTEX
8
0
62
5
10
-0.056568542
20
0.1965276
30
0
70
32
0
VERTEX
8
0
62
5
10
-0.056568542
20
0.21537013
30
0
70
32
0
SEQEND
8
0
0
POLYLINE
8
0
62
5
66
1
10
0
20
0
30
0
70
8
0
VERTEX
8
0
62
5
10
-0.028284271
20
0.1965276
30
0
70
32
0
VERTEX
8
0
62
5
10
-0.028284271
20
0.21537013
30
0
70
32
0
SEQEND
8
0
0
POLYLINE
8
0
62
30
66
1
10
0
20
0
30
0
70
8
0
VERTEX
8
0
62
30
10
-0.11313708
20
0.1400705
30
0
70
32
0
VERTEX
8
0
62
30
10
-0.10240257
20
0.15884253
30
0
70
32
0
SEQEND
8
0
0
POLYLINE
8
0
62
30
66
1
10
0
20
0
30
0
70
8
0
VERTEX
8
0
62
30
10
-0.084852814
20
0.1506091
30
0
70
32
0
VERTEX
8
0
62
30
10
-0.076899804
20
0.15884253
30
0
70
32
0
SEQEND
8
0
0
POLYLINE
8
0
62
30
66
1
10
0
20
0
30
0
70
8
0
VERTEX
8
0
62
30
10
-0.056568542
20
0.15884253
30
0
70
32
0
VERTEX
8
0
62
30
10
-0.056568542
20
0.15884253
30
0
70
32
0
SEQEND
8
0
0
POLYLINE
8
0
62
30
66
1
10
0
20
0
30
0
70
8
0
VERTEX
8
0
62
30
10
-0.028284271
20
0.14830393
30
0
70
32
0
VERTEX
8
0
62
30
10
-0.019503107
20
0.15884253
30
0
70
32
0
SEQEND
8
0
0
POLYLINE
8
0
62
30
66
1
10
0
20
0
30
0
70
8
0
VERTEX
8
0
62
30
10
-0.11313708
20
0.17775557
30
0
70
32
0
VERTEX
8
0
62
30
10
-0.10240257
20
0.1965276
30
0
70
32
0
SEQEND
8
0
0
POLYLINE
8
0
62
30
66
1
10
0
20
0
30
0
70
8
0
VERTEX
8
0
62
30
10
-0.084852814
20
0.18829417
30
0
70
32
0
VERTEX
8
0
62
30
10
-0.076899804
20
0.1965276
30
0
70
32
0
SEQEND
8
0
0
POLYLINE
8
0
62
30
66
1
10
0
20
0
30
0
70
8
0
VERTEX
8
0
62
30
10
-0.056568542
20
0.1965276
30
0
70
32
0
VERTEX
8
0
62
30
10
-0.056568542
20
0.1965276
30
0
70
32
0
SEQEND
8
0
0
POLYLINE
8
0
62
30
66
1
10
0
20
0
30
0
70
8
0
VERTEX
8
0
62
30
10
-0.028284271
20
0.185989
30
0
70
32
0
VERTEX
8
0
62
30
10
-0.019503107
20
0.1965276
30
0
70
32
0
SEQEND
8
0
0
POLYLINE
8
0
62
30
66
1
10
0
20
0
30
0
70
8
0
VERTEX
8
0
62
30
10
0
20
0.24851101
30
0
70
32
0
VERTEX
8
0
62
30
10
0.11313708
20
0.24851101
30
0
70
32
0
SEQEND
8
0
0
POLYLINE
8
0
62
30
66
1
10
0
20
0
30
0
70
8
0
VERTEX
8
0
62
30
10
0
20
0.21537013
30
0
70
32
0
VERTEX
8
0
62
30
10
0.11313708
20
0.21537013
30
0
70
32
0
SEQEND
8
0
0
POLYLINE
8
0
62
5
66
1
10
0
20
0
30
0
70
8
0
VERTEX
8
0
62
5
10
0
20
0.21537013
30
0
70
32
0
VERTEX
8
0
62
5
10
0.0098172503
20
0.24851101
30
0
70
32
0
VERTEX
8
0
62
5
10
0.028284271
20
0.21537013
30
0
70
32
0
VERTEX
8
0
62
5
10
0.038101522
20
0.24851101
30
0
70
32
0
VERTEX
8
0
62
5
10
0.056568542
20
0.21537013
30
0
70
32
0
VERTEX
8
0
62
5
10
0.066385793
20
0.24851101
30
0
70
32
0
VERTEX
8
0
62
5
10
0.084852814
20
0.21537013
30
0
70
32
0
VERTEX
8
0
62
5
10
0.094670064
20
0.24851101
30
0
70
32
0
VERTEX
8
0
62
5
10
0.11313708
20
0.21537013
30
0
70
32
0
SEQEND
8
0
0
POLYLINE
8
0
62
5
66
1
10
0
20
0
30
0
70
8
0
VERTEX
8
0
62
5
10
0.028284271
20
0.21537013
30
0
70
32
0
VERTEX
8
0
62
5
10
0.028284271
20
0.21537013
30
0
70
32
0
SEQEND
8
0
0
POLYLINE
8
0
62
5
66
1
10
0
20
0
30
0
70
8
0
VERTEX
8
0
62
5
10
0.056568542
20
0.21537013
30
0
70
32
0
VERTEX
8
0
62
5
10
0.056568542
20
0.21537013
30
0
70
32
0
SEQEND
8
0
0
POLYLINE
8
0
62
5
66
1
10
0
20
0
30
0
70
8
0
VERTEX
8
0
62
5
10
0.084852814
20
0.21537013
30
0
70
32
0
VERTEX
8
0
62
5
10
0.084852814
20
0.21537013
30
0
70
32
0
SEQEND
8
0
0
POLYLINE
8
0
62
5
66
1
10
0
20
0
30
0
70
8
0
VERTEX
8
0
62
5
10
0.0098172503
20
0.24851101
30
0
70
32
0
VERTEX
8
0
62
5
10
0.0098172503
20
0.24851101
30
0
70
32
0
SEQEND
8
0
0
POLYLINE
8
0
62
5
66
1
10
0
20
0
30
0
70
8
0
VERTEX
8
0
62
5
10
0.038101522
20
0.24851101
30
0
70
32
0
VERTEX
8
0
62
5
10
0.038101522
20
0.24851101
30
0
70
32
0
SEQEND
8
0
0
POLYLINE
8
0
62
5
66
1
10
0
20
0
30
0
70
8
0
VERTEX
8
0
62
5
10
0.066385793
20
0.24851101
30
0
70
32
0
VERTEX
8
0
62
5
10
0.066385793
20
0.24851101
30
0
70
32
0
SEQEND
8
0
0
POLYLINE
8
0
62
5
66
1
10
0
20
0
30
0
70
8
0
VERTEX
8
0
62
5
10
0.094670064
20
0.24851101
30
0
70
32
0
VERTEX
8
0
62
5
10
0.094670064
20
0.24851101
30
0
70
32
0
SEQEND
8
0
0
POLYLINE
8
0
62
30
66
1
10
0
20
0
30
0
70
8
0
VERTEX
8
0
62
30
10
0.11313708
20
0.24851101
30
0
70
32
0
VERTEX
8
0
62
30
10
0.22627417
20
0.24851101
30
0
70
32
0
SEQEND
8
0
0
POLYLINE
8
0
62
30
66
1
10
0
20
0
30
0
70
8
0
VERTEX
8
0
62
30
10
0.11313708
20
0.21537013
30
0
70
32
0
VERTEX
8
0
62
30
10
0.22627417
20
0.21537013
30
0
70
32
0
SEQEND
8
0
0
POLYLINE
8
0
62
5
66
1
10
0
20
0
30
0
70
8
0
VERTEX
8
0
62
5
10
0.11313708
20
0.21537013
30
0
70
32
0
VERTEX
8
0
62
5
10
0.12295434
20
0.24851101
30
0
70
32
0
VERTEX
8
0
62
5
10
0.14142136
20
0.21537013
30
0
70
32
0
VERTEX
8
0
62
5
10
0.15123861
20
0.24851101
30
0
70
32
0
VERTEX
8
0
62
5
10
0.16970563
20
0.21537013
30
0
70
32
0
VERTEX
8
0
62
5
10
0.17952288
20
0.24851101
30
0
70
32
0
VERTEX
8
0
62
5
10
0.1979899
20
0.21537013
30
0
70
32
0
VERTEX
8
0
62
5
10
0.20780715
20
0.24851101
30
0
70
32
0
VERTEX
8
0
62
5
10
0.22627417
20
0.21537013
30
0
70
32
0
SEQEND
8
0
0
POLYLINE
8
0
62
5
66
1
10
0
20
0
30
0
70
8
0
VERTEX
8
0
62
5
10
0.14142136
20
0.21537013
30
0
70
32
0
VERTEX
8
0
62
5
10
0.14142136
20
0.21537013
30
0
70
32
0
SEQEND
8
0
0
POLYLINE
8
0
62
5
66
1
10
0
20
0
30
0
70
8
0
VERTEX
8
0
62
5
10
0.16970563
20
0.21537013
30
0
70
32
0
VERTEX
8
0
62
5
10
0.16970563
20
0.21537013
30
0
70
32
0
SEQEND
8
0
0
POLYLINE
8
0
62
5
66
1
10
0
20
0
30
0
70
8
0
VERTEX
8
0
62
5
10
0.1979899
20
0.21537013
30
0
70
32
0
VERTEX
8
0
62
5
10
0.1979899
20
0.21537013
30
0
70
32
0
SEQEND
8
0
0
POLYLINE
8
0
62
5
66
1
10
0
20
0
30
0
70
8
0
VERTEX
8
0
62
5
10
0.12295434
20
0.24851101
30
0
70
32
0
VERTEX
8
0
62
5
10
0.12295434
20
0.24851101
30
0
70
32
0
SEQEND
8
0
0
POLYLINE
8
0
62
5
66
1
10
0
20
0
30
0
70
8
0
VERTEX
8
0
62
5
10
0.15123861
20
0.24851101
30
0
70
32
0
VERTEX
8
0
62
5
10
0.15123861
20
0.24851101
30
0
70
32
0
SEQEND
8
0
0
POLYLINE
8
0
62
5
66
1
10
0
20
0
30
0
70
8
0
VERTEX
8
0
62
5
10
0.17952288
20
0.24851101
30
0
70
32
0
VERTEX
8
0
62
5
10
0.17952288
20
0.24851101
30
0
70
32
0
SEQEND
8
0
0
POLYLINE
8
0
62
5
66
1
10
0
20
0
30
0
70
8
0
VERTEX
8
0
62
5
10
0.20780715
20
0.24851101
30
0
70
32
0
VERTEX
8
0
62
5
10
0.20780715
20
0.24851101
30
0
70
32
0
SEQEND
8
0
0
POLYLINE
8
0
62
30
66
1
10
0
20
0
30
0
70
8
0
VERTEX
8
0
62
30
10
-0.11313708
20
0.24851101
30
0
70
32
0
VERTEX
8
0
62
30
10
0
20
0.24851101
30
0
70
32
0
SEQEND
8
0
0
POLYLINE
8
0
62
30
66
1
10
0
20
0
30
0
70
8
0
VERTEX
8
0
62
30
10
-0.11313708
20
0.21537013
30
0
70
32
0
VERTEX
8
0
62
30
10
0
20
0.21537013
30
0
70
32
0
SEQEND
8
0
0
POLYLINE
8
0
62
5
66
1
10
0
20
0
30
0
70
8
0
VERTEX
8
0
62
5
10
-0.11313708
20
0.21537013
30
0
70
32
0
VERTEX
8
0
62
5
10
-0.10331983
20
0.24851101
30
0
70
32
0
VERTEX
8
0
62
5
10
-0.084852814
20
0.21537013
30
0
70
32
0
VERTEX
8
0
62
5
10
-0.075035563
20
0.24851101
30
0
70
32
0
VERTEX
8
0
62
5
10
-0.056568542
20
0.21537013
30
0
70
32
0
VERTEX
8
0
62
5
10
-0.046751292
20
0.24851101
30
0
70
32
0
VERTEX
8
0
62
5
10
-0.028284271
20
0.21537013
30
0
70
32
0
VERTEX
8
0
62
5
10
-0.018467021
20
0.24851101
30
0
70
32
0
VERTEX
8
0
62
5
10
0
20
0.21537013
30
0
70
32
0
SEQEND
8
0
0
POLYLINE
8
0
62
5
66
1
10
0
20
0
30
0
70
8
0
VERTEX
8
0
62
5
10
-0.084852814
20
0.21537013
30
0
70
32
0
VERTEX
8
0
62
5
10
-0.084852814
20
0.21537013
30
0
70
32
0
SEQEND
8
0
0
POLYLINE
8
0
62
5
66
1
10
0
20
0
30
0
70
8
0
VERTEX
8
0
62
5
10
-0.056568542
20
0.21537013
30
0
70
32
0
VERTEX
8
0
62
5
10
-0.056568542
20
0.21537013
30
0
70
32
0
SEQEND
8
0
0
POLYLINE
8
0
62
5
66
1
10
0
20
0
30
0
70
8
0
VERTEX
8
0
62
5
10
-0.028284271
20
0.21537013
30
0
70
32
0
VERTEX
8
0
62
5
10
-0.028284271
20
0.21537013
30
0
70
32
0
SEQEND
8
0
0
POLYLINE
8
0
62
5
66
1
10
0
20
0
30
0
70
8
0
VERTEX
8
0
62
5
10
-0.10331983
20
0.24851101
30
0
70
32
0
VERTEX
8
0
62
5
10
-0.10331983
20
0.24851101
30
0
70
32
0
SEQEND
8
0
0
POLYLINE
8
0
62
5
66
1
10
0
20
0
30
0
70
8
0
VERTEX
8
0
62
5
10
-0.075035563
20
0.24851101
30
0
70
32
0
VERTEX
8
0
62
5
10
-0.075035563
20
0.24851101
30
0
70
32
0
SEQEND
8
0
0
POLYLINE
8
0
62
5
66
1
10
0
20
0
30
0
70
8
0
VERTEX
8
0
62
5
10
-0.046751292
20
0.24851101
30
0
70
32
0
VERTEX
8
0
62
5
10
-0.046751292
20
0.24851101
30
0
70
32
0
SEQEND
8
0
0
POLYLINE
8
0
62
5
66
1
10
0
20
0
30
0
70
8
0
VERTEX
8
0
62
5
10
-0.018467021
20
0.24851101
30
0
70
32
0
VERTEX
8
0
62
5
10
-0.018467021
20
0.24851101
30
0
70
32
0
SEQEND
8
0
0
POLYLINE
8
0
62
5
66
1
10
0
20
0
30
0
70
8
0
VERTEX
8
0
62
5
10
0.0098172503
20
0.24851101
30
0
70
32
0
VERTEX
8
0
62
5
10
0.0098172503
20
0.37931308
30
0
70
32
0
SEQEND
8
0
0
POLYLINE
8
0
62
5
66
1
10
0
20
0
30
0
70
8
0
VERTEX
8
0
62
5
10
0.12295434
20
0.24851101
30
0
70
32
0
VERTEX
8
0
62
5
10
0.12295434
20
0.37931308
30
0
70
32
0
SEQEND
8
0
0
POLYLINE
8
0
62
5
66
1
10
0
20
0
30
0
70
8
0
VERTEX
8
0
62
5
10
0.038101522
20
0.24851101
30
0
70
32
0
VERTEX
8
0
62
5
10
0.038101522
20
0.37931308
30
0
70
32
0
SEQEND
8
0
0
POLYLINE
8
0
62
5
66
1
10
0
20
0
30
0
70
8
0
VERTEX
8
0
62
5
10
0.066385793
20
0.24851101
30
0
70
32
0
VERTEX
8
0
62
5
10
0.066385793
20
0.37931308
30
0
70
32
0
SEQEND
8
0
0
POLYLINE
8
0
62
5
66
1
10
0
20
0
30
0
70
8
0
VERTEX
8
0
62
5
10
0.094670064
20
0.24851101
30
0
70
32
0
VERTEX
8
0
62
5
10
0.094670064
20
0.37931308
30
0
70
32
0
SEQEND
8
0
0
POLYLINE
8
0
62
5
66
1
10
0
20
0
30
0
70
8
0
VERTEX
8
0
62
5
10
0.23609142
20
0.24851101
30
0
70
32
0
VERTEX
8
0
62
5
10
0.23609142
20
0.37931308
30
0
70
32
0
SEQEND
8
0
0
POLYLINE
8
0
62
5
66
1
10
0
20
0
30
0
70
8
0
VERTEX
8
0
62
5
10
0.15123861
20
0.24851101
30
0
70
32
0
VERTEX
8
0
62
5
10
0.15123861
20
0.37931308
30
0
70
32
0
SEQEND
8
0
0
POLYLINE
8
0
62
5
66
1
10
0
20
0
30
0
70
8
0
VERTEX
8
0
62
5
10
0.17952288
20
0.24851101
30
0
70
32
0
VERTEX
8
0
62
5
10
0.17952288
20
0.37931308
30
0
70
32
0
SEQEND
8
0
0
POLYLINE
8
0
62
5
66
1
10
0
20
0
30
0
70
8
0
VERTEX
8
0
62
5
10
0.20780715
20
0.24851101
30
0
70
32
0
VERTEX
8
0
62
5
10
0.20780715
20
0.37931308
30
0
70
32
0
SEQEND
8
0
0
POLYLINE
8
0
62
5
66
1
10
0
20
0
30
0
70
8
0
VERTEX
8
0
62
5
10
-0.10331983
20
0.24851101
30
0
70
32
0
VERTEX
8
0
62
5
10
-0.10331983
20
0.37931308
30
0
70
32
0
SEQEND
8
0
0
POLYLINE
8
0
62
5
66
1
10
0
20
0
30
0
70
8
0
VERTEX
8
0
62
5
10
-0.075035563
20
0.24851101
30
0
70
32
0
VERTEX
8
0
62
5
10
-0.075035563
20
0.37931308
30
0
70
32
0
SEQEND
8
0
0
POLYLINE
8
0
62
5
66
1
10
0
20
0
30
0
70
8
0
VERTEX
8
0
62
5
10
-0.046751292
20
0.24851101
30
0
70
32
0
VERTEX
8
0
62
5
10
-0.046751292
20
0.37931308
30
0
70
32
0
SEQEND
8
0
0
POLYLINE
8
0
62
5
66
1
10
0
20
0
30
0
70
8
0
VERTEX
8
0
62
5
10
-0.018467021
20
0.24851101
30
0
70
32
0
VERTEX
8
0
62
5
10
-0.018467021
20
0.37931308
30
0
70
32
0
SEQEND
8
0
0
POLYLINE
8
0
62
5
66
1
10
0
20
0
30
0
70
8
0
VERTEX
8
0
62
5
10
0.0098172503
20
0.37931308
30
0
70
32
0
VERTEX
8
0
62
5
10
0.0098172503
20
0.41625533
30
0
70
32
0
SEQEND
8
0
0
POLYLINE
8
0
62
5
66
1
10
0
20
0
30
0
70
8
0
VERTEX
8
0
62
5
10
0.12295434
20
0.41625533
30
0
70
32
0
VERTEX
8
0
62
5
10
0.12295434
20
0.37931308
30
0
70
32
0
SEQEND
8
0
0
POLYLINE
8
0
62
5
66
1
10
0
20
0
30
0
70
8
0
VERTEX
8
0
62
5
10
0.0098172503
20
0.38415332
30
0
70
32
0
VERTEX
8
0
62
5
10
0.038101522
20
0.38072077
30
0
70
32
0
VERTEX
8
0
62
5
10
0.066385793
20
0.39435165
30
0
70
32
0
VERTEX
8
0
62
5
10
0.094670064
20
0.39778421
30
0
70
32
0
VERTEX
8
0
62
5
10
0.12295434
20
0.38415332
30
0
70
32
0
SEQEND
8
0
0
POLYLINE
8
0
62
5
66
1
10
0
20
0
30
0
70
8
0
SEQEND
8
0
0
POLYLINE
8
0
62
30
66
1
10
0
20
0
30
0
70
8
0
VERTEX
8
0
62
30
10
0.0098172503
20
0.39778421
30
0
70
32
0
VERTEX
8
0
62
30
10
0.12295434
20
0.39778421
30
0
70
32
0
SEQEND
8
0
0
POLYLINE
8
0
62
30
66
1
10
0
20
0
30
0
70
8
0
VERTEX
8
0
62
30
10
0.038101522
20
0.38072077
30
0
70
32
0
VERTEX
8
0
62
30
10
0.038101522
20
0.39778421
30
0
70
32
0
SEQEND
8
0
0
POLYLINE
8
0
62
30
66
1
10
0
20
0
30
0
70
8
0
VERTEX
8
0
62
30
10
0.066385793
20
0.39435165
30
0
70
32
0
VERTEX
8
0
62
30
10
0.066385793
20
0.39778421
30
0
70
32
0
SEQEND
8
0
0
POLYLINE
8
0
62
30
66
1
10
0
20
0
30
0
70
8
0
VERTEX
8
0
62
30
10
0.094670064
20
0.39778421
30
0
70
32
0
VERTEX
8
0
62
30
10
0.094670064
20
0.39778421
30
0
70
32
0
SEQEND
8
0
0
POLYLINE
8
0
62
5
66
1
10
0
20
0
30
0
70
8
0
VERTEX
8
0
62
5
10
0.038101522
20
0.37931308
30
0
70
32
0
VERTEX
8
0
62
5
10
0.038101522
20
0.38072077
30
0
70
32
0
SEQEND
8
0
0
POLYLINE
8
0
62
5
66
1
10
0
20
0
30
0
70
8
0
VERTEX
8
0
62
5
10
0.066385793
20
0.37931308
30
0
70
32
0
VERTEX
8
0
62
5
10
0.066385793
20
0.39435165
30
0
70
32
0
SEQEND
8
0
0
POLYLINE
8
0
62
5
66
1
10
0
20
0
30
0
70
8
0
VERTEX
8
0
62
5
10
0.094670064
20
0.37931308
30
0
70
32
0
VERTEX
8
0
62
5
10
0.094670064
20
0.39778421
30
0
70
32
0
SEQEND
8
0
0
POLYLINE
8
0
62
5
66
1
10
0
20
0
30
0
70
8
0
VERTEX
8
0
62
5
10
0.038101522
20
0.39778421
30
0
70
32
0
VERTEX
8
0
62
5
10
0.038101522
20
0.41625533
30
0
70
32
0
SEQEND
8
0
0
POLYLINE
8
0
62
5
66
1
10
0
20
0
30
0
70
8
0
VERTEX
8
0
62
5
10
0.066385793
20
0.39778421
30
0
70
32
0
VERTEX
8
0
62
5
10
0.066385793
20
0.41625533
30
0
70
32
0
SEQEND
8
0
0
POLYLINE
8
0
62
5
66
1
10
0
20
0
30
0
70
8
0
VERTEX
8
0
62
5
10
0.094670064
20
0.39778421
30
0
70
32
0
VERTEX
8
0
62
5
10
0.094670064
20
0.41625533
30
0
70
32
0
SEQEND
8
0
0
POLYLINE
8
0
62
30
66
1
10
0
20
0
30
0
70
8
0
VERTEX
8
0
62
30
10
0.0098172503
20
0.38415332
30
0
70
32
0
VERTEX
8
0
62
30
10
0.019044467
20
0.39778421
30
0
70
32
0
SEQEND
8
0
0
POLYLINE
8
0
62
30
66
1
10
0
20
0
30
0
70
8
0
VERTEX
8
0
62
30
10
0.038101522
20
0.38072077
30
0
70
32
0
VERTEX
8
0
62
30
10
0.048022322
20
0.39778421
30
0
70
32
0
SEQEND
8
0
0
POLYLINE
8
0
62
30
66
1
10
0
20
0
30
0
70
8
0
VERTEX
8
0
62
30
10
0.066385793
20
0.39435165
30
0
70
32
0
VERTEX
8
0
62
30
10
0.070925507
20
0.39778421
30
0
70
32
0
SEQEND
8
0
0
POLYLINE
8
0
62
30
66
1
10
0
20
0
30
0
70
8
0
VERTEX
8
0
62
30
10
0.094670064
20
0.39778421
30
0
70
32
0
VERTEX
8
0
62
30
10
0.094670064
20
0.39778421
30
0
70
32
0
SEQEND
8
0
0
POLYLINE
8
0
62
5
66
1
10
0
20
0
30
0
70
8
0
VERTEX
8
0
62
5
10
0.23609142
20
0.41625533
30
0
70
32
0
VERTEX
8
0
62
5
10
0.23609142
20
0.37931308
30
0
70
32
0
SEQEND
8
0
0
POLYLINE
8
0
62
5
66
1
10
0
20
0
30
0
70
8
0
VERTEX
8
0
62
5
10
0.12295434
20
0.38415332
30
0
70
32
0
VERTEX
8
0
62
5
10
0.15123861
20
0.38072077
30
0
70
32
0
VERTEX
8
0
62
5
10
0.17952288
20
0.39435165
30
0
70
32
0
VERTEX
8
0
62
5
10
0.20780715
20
0.39778421
30
0
70
32
0
VERTEX
8
0
62
5
10
0.23609142
20
0.38415332
30
0
70
32
0
SEQEND
8
0
0
POLYLINE
8
0
62
5
66
1
10
0
20
0
30
0
70
8
0
SEQEND
8
0
0
POLYLINE
8
0
62
30
66
1
10
0
20
0
30
0
70
8
0
VERTEX
8
0
62
30
10
0.12295434
20
0.39778421
30
0
70
32
0
VERTEX
8
0
62
30
10
0.23609142
20
0.39778421
30
0
70
32
0
SEQEND
8
0
0
POLYLINE
8
0
62
30
66
1
10
0
20
0
30
0
70
8
0
VERTEX
8
0
62
30
10
0.15123861
20
0.38072077
30
0
70
32
0
VERTEX
8
0
62
30
10
0.15123861
20
0.39778421
30
0
70
32
0
SEQEND
8
0
0
POLYLINE
8
0
62
30
66
1
10
0
20
0
30
0
70
8
0
VERTEX
8
0
62
30
10
0.17952288
20
0.39435165
30
0
70
32
0
VERTEX
8
0
62
30
10
0.17952288
20
0.39778421
30
0
70
32
0
SEQEND
8
0
0
POLYLINE
8
0
62
30
66
1
10
0
20
0
30
0
70
8
0
VERTEX
8
0
62
30
10
0.20780715
20
0.39778421
30
0
70
32
0
VERTEX
8
0
62
30
10
0.20780715
20
0.39778421
30
0
70
32
0
SEQEND
8
0
0
POLYLINE
8
0
62
5
66
1
10
0
20
0
30
0
70
8
0
VERTEX
8
0
62
5
10
0.15123861
20
0.37931308
30
0
70
32
0
VERTEX
8
0
62
5
10
0.15123861
20
0.38072077
30
0
70
32
0
SEQEND
8
0
0
POLYLINE
8
0
62
5
66
1
10
0
20
0
30
0
70
8
0
VERTEX
8
0
62
5
10
0.17952288
20
0.37931308
30
0
70
32
0
VERTEX
8
0
62
5
10
0.17952288
20
0.39435165
30
0
70
32
0
SEQEND
8
0
0
POLYLINE
8
0
62
5
66
1
10
0
20
0
30
0
70
8
0
VERTEX
8
0
62
5
10
0.20780715
20
0.37931308
30
0
70
32
0
VERTEX
8
0
62
5
10
0.20780715
20
0.39778421
30
0
70
32
0
SEQEND
8
0
0
POLYLINE
8
0
62
5
66
1
10
0
20
0
30
0
70
8
0
VERTEX
8
0
62
5
10
0.15123861
20
0.39778421
30
0
70
32
0
VERTEX
8
0
62
5
10
0.15123861
20
0.41625533
30
0
70
32
0
SEQEND
8
0
0
POLYLINE
8
0
62
5
66
1
10
0
20
0
30
0
70
8
0
VERTEX
8
0
62
5
10
0.17952288
20
0.39778421
30
0
70
32
0
VERTEX
8
0
62
5
10
0.17952288
20
0.41625533
30
0
70
32
0
SEQEND
8
0
0
POLYLINE
8
0
62
5
66
1
10
0
20
0
30
0
70
8
0
VERTEX
8
0
62
5
10
0.20780715
20
0.39778421
30
0
70
32
0
VERTEX
8
0
62
5
10
0.20780715
20
0.41625533
30
0
70
32
0
SEQEND
8
0
0
POLYLINE
8
0
62
30
66
1
10
0
20
0
30
0
70
8
0
VERTEX
8
0
62
30
10
0.12295434
20
0.38415332
30
0
70
32
0
VERTEX
8
0
62
30
10
0.13218155
20
0.39778421
30
0
70
32
0
SEQEND
8
0
0
POLYLINE
8
0
62
30
66
1
10
0
20
0
30
0
70
8
0
VERTEX
8
0
62
30
10
0.15123861
20
0.38072077
30
0
70
32
0
VERTEX
8
0
62
30
10
0.16115941
20
0.39778421
30
0
70
32
0
SEQEND
8
0
0
POLYLINE
8
0
62
30
66
1
10
0
20
0
30
0
70
8
0
VERTEX
8
0
62
30
10
0.17952288
20
0.39435165
30
0
70
32
0
VERTEX
8
0
62
30
10
0.18406259
20
0.39778421
30
0
70
32
0
SEQEND
8
0
0
POLYLINE
8
0
62
30
66
1
10
0
20
0
30
0
70
8
0
VERTEX
8
0
62
30
10
0.20780715
20
0.39778421
30
0
70
32
0
VERTEX
8
0
62
30
10
0.20780715
20
0.39778421
30
0
70
32
0
SEQEND
8
0
0
POLYLINE
8
0
62
5
66
1
10
0
20
0
30
0
70
8
0
VERTEX
8
0
62
5
10
-0.10331983
20
0.37931308
30
0
70
32
0
VERTEX
8
0
62
5
10
-0.10331983
20
0.41625533
30
0
70
32
0
SEQEND
8
0
0
POLYLINE
8
0
62
5
66
1
10
0
20
0
30
0
70
8
0
VERTEX
8
0
62
5
10
-0.10331983
20
0.38415332
30
0
70
32
0
VERTEX
8
0
62
5
10
-0.075035563
20
0.38072077
30
0
70
32
0
VERTEX
8
0
62
5
10
-0.046751292
20
0.39435165
30
0
70
32
0
VERTEX
8
0
62
5
10
-0.018467021
20
0.39778421
30
0
70
32
0
VERTEX
8
0
62
5
10
0.0098172503
20
0.38415332
30
0
70
32
0
SEQEND
8
0
0
POLYLINE
8
0
62
5
66
1
10
0
20
0
30
0
70
8
0
SEQEND
8
0
0
POLYLINE
8
0
62
30
66
1
10
0
20
0
30
0
70
8
0
VERTEX
8
0
62
30
10
-0.10331983
20
0.39778421
30
0
70
32
0
VERTEX
8
0
62
30
10
0.0098172503
20
0.39778421
30
0
70
32
0
SEQEND
8
0
0
POLYLINE
8
0
62
30
66
1
10
0
20
0
30
0
70
8
0
VERTEX
8
0
62
30
10
-0.075035563
20
0.38072077
30
0
70
32
0
VERTEX
8
0
62
30
10
-0.075035563
20
0.39778421
30
0
70
32
0
SEQEND
8
0
0
POLYLINE
8
0
62
30
66
1
10
0
20
0
30
0
70
8
0
VERTEX
8
0
62
30
10
-0.046751292
20
0.39435165
30
0
70
32
0
VERTEX
8
0
62
30
10
-0.046751292
20
0.39778421
30
0
70
32
0
SEQEND
8
0
0
POLYLINE
8
0
62
30
66
1
10
0
20
0
30
0
70
8
0
VERTEX
8
0
62
30
10
-0.018467021
20
0.39778421
30
0
70
32
0
VERTEX
8
0
62
30
10
-0.018467021
20
0.39778421
30
0
70
32
0
SEQEND
8
0
0
POLYLINE
8
0
62
5
66
1
10
0
20
0
30
0
70
8
0
VERTEX
8
0
62
5
10
-0.075035563
20
0.37931308
30
0
70
32
0
VERTEX
8
0
62
5
10
-0.075035563
20
0.38072077
30
0
70
32
0
SEQEND
8
0
0
POLYLINE
8
0
62
5
66
1
10
0
20
0
30
0
70
8
0
VERTEX
8
0
62
5
10
-0.046751292
20
0.37931308
30
0
70
32
0
VERTEX
8
0
62
5
10
-0.046751292
20
0.39435165
30
0
70
32
0
SEQEND
8
0
0
POLYLINE
8
0
62
5
66
1
10
0
20
0
30
0
70
8
0
VERTEX
8
0
62
5
10
-0.018467021
20
0.37931308
30
0
70
32
0
VERTEX
8
0
62
5
10
-0.018467021
20
0.39778421
30
0
70
32
0
SEQEND
8
0
0
POLYLINE
8
0
62
5
66
1
10
0
20
0
30
0
70
8
0
VERTEX
8
0
62
5
10
-0.075035563
20
0.39778421
30
0
70
32
0
VERTEX
8
0
62
5
10
-0.075035563
20
0.41625533
30
0
70
32
0
SEQEND
8
0
0
POLYLINE
8
0
62
5
66
1
10
0
20
0
30
0
70
8
0
VERTEX
8
0
62
5
10
-0.046751292
20
0.39778421
30
0
70
32
0
VERTEX
8
0
62
5
10
-0.046751292
20
0.41625533
30
0
70
32
0
SEQEND
8
0
0
POLYLINE
8
0
62
5
66
1
10
0
20
0
30
0
70
8
0
VERTEX
8
0
62
5
10
-0.018467021
20
0.39778421
30
0
70
32
0
VERTEX
8
0
62
5
10
-0.018467021
20
0.41625533
30
0
70
32
0
SEQEND
8
0
0
POLYLINE
8
0
62
30
66
1
10
0
20
0
30
0
70
8
0
VERTEX
8
0
62
30
10
-0.10331983
20
0.38415332
30
0
70
32
0
VERTEX
8
0
62
30
10
-0.094092618
20
0.39778421
30
0
70
32
0
SEQEND
8
0
0
POLYLINE
8
0
62
30
66
1
10
0
20
0
30
0
70
8
0
VERTEX
8
0
62
30
10
-0.075035563
20
0.38072077
30
0
70
32
0
VERTEX
8
0
62
30
10
-0.065114763
20
0.39778421
30
0
70
32
0
SEQEND
8
0
0
POLYLINE
8
0
62
30
66
1
10
0
20
0
30
0
70
8
0
VERTEX
8
0
62
30
10
-0.046751292
20
0.39435165
30
0
70
32
0
VERTEX
8
0
62
30
10
-0.042211578
20
0.39778421
30
0
70
32
0
SEQEND
8
0
0
POLYLINE
8
0
62
30
66
1
10
0
20
0
30
0
70
8
0
VERTEX
8
0
62
30
10
-0.018467021
20
0.39778421
30
0
70
32
0
VERTEX
8
0
62
30
10
-0.018467021
20
0.39778421
30
0
70
32
0
SEQEND
8
0
0
POLYLINE
8
0
62
5
66
1
10
0
20
0
30
0
70
8
0
VERTEX
8
0
62
5
10
0.0098172503
20
0.41625533
30
0
70
32
0
VERTEX
8
0
62
5
10
0.0098172503
20
0.45625533
30
0
70
32
0
SEQEND
8
0
0
POLYLINE
8
0
62
5
66
1
10
0
20
0
30
0
70
8
0
VERTEX
8
0
62
5
10
0.12295434
20
0.45625533
30
0
70
32
0
VERTEX
8
0
62
5
10
0.12295434
20
0.41625533
30
0
70
32
0
SEQEND
8
0
0
POLYLINE
8
0
62
5
66
1
10
0
20
0
30
0
70
8
0
VERTEX
8
0
62
5
10
0.0098172503
20
0.41625533
30
0
70
32
0
VERTEX
8
0
62
5
10
0.12295434
20
0.41625533
30
0
70
32
0
SEQEND
8
0
0
POLYLINE
8
0
62
5
66
1
10
0
20
0
30
0
70
8
0
VERTEX
8
0
62
5
10
0.0098172503
20
0.45625533
30
0
70
32
0
VERTEX
8
0
62
5
10
0.12295434
20
0.45625533
30
0
70
32
0
SEQEND
8
0
0
POLYLINE
8
0
62
5
66
1
10
0
20
0
30
0
70
8
0
VERTEX
8
0
62
5
10
0.038101522
20
0.41625533
30
0
70
32
0
VERTEX
8
0
62
5
10
0.038101522
20
0.41625533
30
0
70
32
0
SEQEND
8
0
0
POLYLINE
8
0
62
5
66
1
10
0
20
0
30
0
70
8
0
VERTEX
8
0
62
5
10
0.066385793
20
0.41625533
30
0
70
32
0
VERTEX
8
0
62
5
10
0.066385793
20
0.41625533
30
0
70
32
0
SEQEND
8
0
0
POLYLINE
8
0
62
5
66
1
10
0
20
0
30
0
70
8
0
VERTEX
8
0
62
5
10
0.094670064
20
0.41625533
30
0
70
32
0
VERTEX
8
0
62
5
10
0.094670064
20
0.41625533
30
0
70
32
0
SEQEND
8
0
0
POLYLINE
8
0
62
5
66
1
10
0
20
0
30
0
70
8
0
VERTEX
8
0
62
5
10
0.038101522
20
0.45625533
30
0
70
32
0
VERTEX
8
0
62
5
10
0.038101522
20
0.45625533
30
0
70
32
0
SEQEND
8
0
0
POLYLINE
8
0
62
5
66
1
10
0
20
0
30
0
70
8
0
VERTEX
8
0
62
5
10
0.066385793
20
0.45625533
30
0
70
32
0
VERTEX
8
0
62
5
10
0.066385793
20
0.45625533
30
0
70
32
0
SEQEND
8
0
0
POLYLINE
8
0
62
5
66
1
10
0
20
0
30
0
70
8
0
VERTEX
8
0
62
5
10
0.094670064
20
0.45625533
30
0
70
32
0
VERTEX
8
0
62
5
10
0.094670064
20
0.45625533
30
0
70
32
0
SEQEND
8
0
0
POLYLINE
8
0
62
30
66
1
10
0
20
0
30
0
70
8
0
VERTEX
8
0
62
30
10
0.0098172503
20
0.45625533
30
0
70
32
0
VERTEX
8
0
62
30
10
0.038101522
20
0.41625533
30
0
70
32
0
SEQEND
8
0
0
POLYLINE
8
0
62
30
66
1
10
0
20
0
30
0
70
8
0
VERTEX
8
0
62
30
10
0.038101522
20
0.45625533
30
0
70
32
0
VERTEX
8
0
62
30
10
0.0098172503
20
0.41625533
30
0
70
32
0
SEQEND
8
0
0
POLYLINE
8
0
62
30
66
1
10
0
20
0
30
0
70
8
0
VERTEX
8
0
62
30
10
0.066385793
20
0.45625533
30
0
70
32
0
VERTEX
8
0
62
30
10
0.094670064
20
0.41625533
30
0
70
32
0
SEQEND
8
0
0
POLYLINE
8
0
62
30
66
1
10
0
20
0
30
0
70
8
0
VERTEX
8
0
62
30
10
0.094670064
20
0.45625533
30
0
70
32
0
VERTEX
8
0
62
30
10
0.066385793
20
0.41625533
30
0
70
32
0
SEQEND
8
0
0
POLYLINE
8
0
62
30
66
1
10
0
20
0
30
0
70
8
0
VERTEX
8
0
62
30
10
0.038101522
20
0.43625533
30
0
70
32
0
VERTEX
8
0
62
30
10
0.066385793
20
0.43625533
30
0
70
32
0
SEQEND
8
0
0
POLYLINE
8
0
62
30
66
1
10
0
20
0
30
0
70
8
0
VERTEX
8
0
62
30
10
0.094670064
20
0.43625533
30
0
70
32
0
VERTEX
8
0
62
30
10
0.12295434
20
0.43625533
30
0
70
32
0
SEQEND
8
0
0
POLYLINE
8
0
62
5
66
1
10
0
20
0
30
0
70
8
0
VERTEX
8
0
62
5
10
0.0098172503
20
0.43625533
30
0
70
32
0
VERTEX
8
0
62
5
10
0.023959386
20
0.43625533
30
0
70
32
0
SEQEND
8
0
0
POLYLINE
8
0
62
5
66
1
10
0
20
0
30
0
70
8
0
VERTEX
8
0
62
5
10
0.066385793
20
0.43625533
30
0
70
32
0
VERTEX
8
0
62
5
10
0.080527928
20
0.43625533
30
0
70
32
0
SEQEND
8
0
0
POLYLINE
8
0
62
5
66
1
10
0
20
0
30
0
70
8
0
VERTEX
8
0
62
5
10
0.023959386
20
0.43625533
30
0
70
32
0
VERTEX
8
0
62
5
10
0.038101522
20
0.43625533
30
0
70
32
0
SEQEND
8
0
0
POLYLINE
8
0
62
5
66
1
10
0
20
0
30
0
70
8
0
VERTEX
8
0
62
5
10
0.080527928
20
0.43625533
30
0
70
32
0
VERTEX
8
0
62
5
10
0.094670064
20
0.43625533
30
0
70
32
0
SEQEND
8
0
0
POLYLINE
8
0
62
5
66
1
10
0
20
0
30
0
70
8
0
VERTEX
8
0
62
5
10
0.038101522
20
0.41625533
30
0
70
32
0
VERTEX
8
0
62
5
10
0.038101522
20
0.45625533
30
0
70
32
0
SEQEND
8
0
0
POLYLINE
8
0
62
5
66
1
10
0
20
0
30
0
70
8
0
VERTEX
8
0
62
5
10
0.066385793
20
0.41625533
30
0
70
32
0
VERTEX
8
0
62
5
10
0.066385793
20
0.45625533
30
0
70
32
0
SEQEND
8
0
0
POLYLINE
8
0
62
5
66
1
10
0
20
0
30
0
70
8
0
VERTEX
8
0
62
5
10
0.094670064
20
0.41625533
30
0
70
32
0
VERTEX
8
0
62
5
10
0.094670064
20
0.45625533
30
0
70
32
0
SEQEND
8
0
0
POLYLINE
8
0
62
5
66
1
10
0
20
0
30
0
70
8
0
VERTEX
8
0
62
5
10
0.0098172503
20
0.41625533
30
0
70
32
0
VERTEX
8
0
62
5
10
0.0098172503
20
0.45625533
30
0
70
32
0
SEQEND
8
0
0
POLYLINE
8
0
62
5
66
1
10
0
20
0
30
0
70
8
0
VERTEX
8
0
62
5
10
0.23609142
20
0.45625533
30
0
70
32
0
VERTEX
8
0
62
5
10
0.23609142
20
0.41625533
30
0
70
32
0
SEQEND
8
0
0
POLYLINE
8
0
62
5
66
1
10
0
20
0
30
0
70
8
0
VERTEX
8
0
62
5
10
0.12295434
20
0.41625533
30
0
70
32
0
VERTEX
8
0
62
5
10
0.23609142
20
0.41625533
30
0
70
32
0
SEQEND
8
0
0
POLYLINE
8
0
62
5
66
1
10
0
20
0
30
0
70
8
0
VERTEX
8
0
62
5
10
0.12295434
20
0.45625533
30
0
70
32
0
VERTEX
8
0
62
5
10
0.23609142
20
0.45625533
30
0
70
32
0
SEQEND
8
0
0
POLYLINE
8
0
62
5
66
1
10
0
20
0
30
0
70
8
0
VERTEX
8
0
62
5
10
0.15123861
20
0.41625533
30
0
70
32
0
VERTEX
8
0
62
5
10
0.15123861
20
0.41625533
30
0
70
32
0
SEQEND
8
0
0
POLYLINE
8
0
62
5
66
1
10
0
20
0
30
0
70
8
0
VERTEX
8
0
62
5
10
0.17952288
20
0.41625533
30
0
70
32
0
VERTEX
8
0
62
5
10
0.17952288
20
0.41625533
30
0
70
32
0
SEQEND
8
0
0
POLYLINE
8
0
62
5
66
1
10
0
20
0
30
0
70
8
0
VERTEX
8
0
62
5
10
0.20780715
20
0.41625533
30
0
70
32
0
VERTEX
8
0
62
5
10
0.20780715
20
0.41625533
30
0
70
32
0
SEQEND
8
0
0
POLYLINE
8
0
62
5
66
1
10
0
20
0
30
0
70
8
0
VERTEX
8
0
62
5
10
0.15123861
20
0.45625533
30
0
70
32
0
VERTEX
8
0
62
5
10
0.15123861
20
0.45625533
30
0
70
32
0
SEQEND
8
0
0
POLYLINE
8
0
62
5
66
1
10
0
20
0
30
0
70
8
0
VERTEX
8
0
62
5
10
0.17952288
20
0.45625533
30
0
70
32
0
VERTEX
8
0
62
5
10
0.17952288
20
0.45625533
30
0
70
32
0
SEQEND
8
0
0
POLYLINE
8
0
62
5
66
1
10
0
20
0
30
0
70
8
0
VERTEX
8
0
62
5
10
0.20780715
20
0.45625533
30
0
70
32
0
VERTEX
8
0
62
5
10
0.20780715
20
0.45625533
30
0
70
32
0
SEQEND
8
0
0
POLYLINE
8
0
62
30
66
1
10
0
20
0
30
0
70
8
0
VERTEX
8
0
62
30
10
0.12295434
20
0.45625533
30
0
70
32
0
VERTEX
8
0
62
30
10
0.15123861
20
0.41625533
30
0
70
32
0
SEQEND
8
0
0
POLYLINE
8
0
62
30
66
1
10
0
20
0
30
0
70
8
0
VERTEX
8
0
62
30
10
0.15123861
20
0.45625533
30
0
70
32
0
VERTEX
8
0
62
30
10
0.12295434
20
0.41625533
30
0
70
32
0
SEQEND
8
0
0
POLYLINE
8
0
62
30
66
1
10
0
20
0
30
0
70
8
0
VERTEX
8
0
62
30
10
0.17952288
20
0.45625533
30
0
70
32
0
VERTEX
8
0
62
30
10
0.20780715
20
0.41625533
30
0
70
32
0
SEQEND
8
0
0
POLYLINE
8
0
62
30
66
1
10
0
20
0
30
0
70
8
0
VERTEX
8
0
62
30
10
0.20780715
20
0.45625533
30
0
70
32
0
VERTEX
8
0
62
30
10
0.17952288
20
0.41625533
30
0
70
32
0
SEQEND
8
0
0
POLYLINE
8
0
62
30
66
1
10
0
20
0
30
0
70
8
0
VERTEX
8
0
62
30
10
0.15123861
20
0.43625533
30
0
70
32
0
VERTEX
8
0
62
30
10
0.17952288
20
0.43625533
30
0
70
32
0
SEQEND
8
0
0
POLYLINE
8
0
62
30
66
1
10
0
20
0
30
0
70
8
0
VERTEX
8
0
62
30
10
0.20780715
20
0.43625533
30
0
70
32
0
VERTEX
8
0
62
30
10
0.23609142
20
0.43625533
30
0
70
32
0
SEQEND
8
0
0
POLYLINE
8
0
62
5
66
1
10
0
20
0
30
0
70
8
0
VERTEX
8
0
62
5
10
0.12295434
20
0.43625533
30
0
70
32
0
VERTEX
8
0
62
5
10
0.13709647
20
0.43625533
30
0
70
32
0
SEQEND
8
0
0
POLYLINE
8
0
62
5
66
1
10
0
20
0
30
0
70
8
0
VERTEX
8
0
62
5
10
0.17952288
20
0.43625533
30
0
70
32
0
VERTEX
8
0
62
5
10
0.19366501
20
0.43625533
30
0
70
32
0
SEQEND
8
0
0
POLYLINE
8
0
62
5
66
1
10
0
20
0
30
0
70
8
0
VERTEX
8
0
62
5
10
0.13709647
20
0.43625533
30
0
70
32
0
VERTEX
8
0
62
5
10
0.15123861
20
0.43625533
30
0
70
32
0
SEQEND
8
0
0
POLYLINE
8
0
62
5
66
1
10
0
20
0
30
0
70
8
0
VERTEX
8
0
62
5
10
0.19366501
20
0.43625533
30
0
70
32
0
VERTEX
8
0
62
5
10
0.20780715
20
0.43625533
30
0
70
32
0
SEQEND
8
0
0
POLYLINE
8
0
62
5
66
1
10
0
20
0
30
0
70
8
0
VERTEX
8
0
62
5
10
0.15123861
20
0.41625533
30
0
70
32
0
VERTEX
8
0
62
5
10
0.15123861
20
0.45625533
30
0
70
32
0
SEQEND
8
0
0
POLYLINE
8
0
62
5
66
1
10
0
20
0
30
0
70
8
0
VERTEX
8
0
62
5
10
0.17952288
20
0.41625533
30
0
70
32
0
VERTEX
8
0
62
5
10
0.17952288
20
0.45625533
30
0
70
32
0
SEQEND
8
0
0
POLYLINE
8
0
62
5
66
1
10
0
20
0
30
0
70
8
0
VERTEX
8
0
62
5
10
0.20780715
20
0.41625533
30
0
70
32
0
VERTEX
8
0
62
5
10
0.20780715
20
0.45625533
30
0
70
32
0
SEQEND
8
0
0
POLYLINE
8
0
62
5
66
1
10
0
20
0
30
0
70
8
0
VERTEX
8
0
62
5
10
0.12295434
20
0.41625533
30
0
70
32
0
VERTEX
8
0
62
5
10
0.12295434
20
0.45625533
30
0
70
32
0
SEQEND
8
0
0
POLYLINE
8
0
62
5
66
1
10
0
20
0
30
0
70
8
0
VERTEX
8
0
62
5
10
-0.10331983
20
0.41625533
30
0
70
32
0
VERTEX
8
0
62
5
10
-0.10331983
20
0.45625533
30
0
70
32
0
SEQEND
8
0
0
POLYLINE
8
0
62
5
66
1
10
0
20
0
30
0
70
8
0
VERTEX
8
0
62
5
10
-0.10331983
20
0.41625533
30
0
70
32
0
VERTEX
8
0
62
5
10
0.0098172503
20
0.41625533
30
0
70
32
0
SEQEND
8
0
0
POLYLINE
8
0
62
5
66
1
10
0
20
0
30
0
70
8
0
VERTEX
8
0
62
5
10
-0.10331983
20
0.45625533
30
0
70
32
0
VERTEX
8
0
62
5
10
0.0098172503
20
0.45625533
30
0
70
32
0
SEQEND
8
0
0
POLYLINE
8
0
62
5
66
1
10
0
20
0
30
0
70
8
0
VERTEX
8
0
62
5
10
-0.075035563
20
0.41625533
30
0
70
32
0
VERTEX
8
0
62
5
10
-0.075035563
20
0.41625533
30
0
70
32
0
SEQEND
8
0
0
POLYLINE
8
0
62
5
66
1
10
0
20
0
30
0
70
8
0
VERTEX
8
0
62
5
10
-0.046751292
20
0.41625533
30
0
70
32
0
VERTEX
8
0
62
5
10
-0.046751292
20
0.41625533
30
0
70
32
0
SEQEND
8
0
0
POLYLINE
8
0
62
5
66
1
10
0
20
0
30
0
70
8
0
VERTEX
8
0
62
5
10
-0.018467021
20
0.41625533
30
0
70
32
0
VERTEX
8
0
62
5
10
-0.018467021
20
0.41625533
30
0
70
32
0
SEQEND
8
0
0
POLYLINE
8
0
62
5
66
1
10
0
20
0
30
0
70
8
0
VERTEX
8
0
62
5
10
-0.075035563
20
0.45625533
30
0
70
32
0
VERTEX
8
0
62
5
10
-0.075035563
20
0.45625533
30
0
70
32
0
SEQEND
8
0
0
POLYLINE
8
0
62
5
66
1
10
0
20
0
30
0
70
8
0
VERTEX
8
0
62
5
10
-0.046751292
20
0.45625533
30
0
70
32
0
VERTEX
8
0
62
5
10
-0.046751292
20
0.45625533
30
0
70
32
0
SEQEND
8
0
0
POLYLINE
8
0
62
5
66
1
10
0
20
0
30
0
70
8
0
VERTEX
8
0
62
5
10
-0.018467021
20
0.45625533
30
0
70
32
0
VERTEX
8
0
62
5
10
-0.018467021
20
0.45625533
30
0
70
32
0
SEQEND
8
0
0
POLYLINE
8
0
62
30
66
1
10
0
20
0
30
0
70
8
0
VERTEX
8
0
62
30
10
-0.10331983
20
0.45625533
30
0
70
32
0
VERTEX
8
0
62
30
10
-0.075035563
20
0.41625533
30
0
70
32
0
SEQEND
8
0
0
POLYLINE
8
0
62
30
66
1
10
0
20
0
30
0
70
8
0
VERTEX
8
0
62
30
10
-0.075035563
20
0.45625533
30
0
70
32
0
VERTEX
8
0
62
30
10
-0.10331983
20
0.41625533
30
0
70
32
0
SEQEND
8
0
0
POLYLINE
8
0
62
30
66
1
10
0
20
0
30
0
70
8
0
VERTEX
8
0
62
30
10
-0.046751292
20
0.45625533
30
0
70
32
0
VERTEX
8
0
62
30
10
-0.018467021
20
0.41625533
30
0
70
32
0
SEQEND
8
0
0
POLYLINE
8
0
62
30
66
1
10
0
20
0
30
0
70
8
0
VERTEX
8
0
62
30
10
-0.018467021
20
0.45625533
30
0
70
32
0
VERTEX
8
0
62
30
10
-0.046751292
20
0.41625533
30
0
70
32
0
SEQEND
8
0
0
POLYLINE
8
0
62
30
66
1
10
0
20
0
30
0
70
8
0
VERTEX
8
0
62
30
10
-0.075035563
20
0.43625533
30
0
70
32
0
VERTEX
8
0
62
30
10
-0.046751292
20
0.43625533
30
0
70
32
0
SEQEND
8
0
0
POLYLINE
8
0
62
30
66
1
10
0
20
0
30
0
70
8
0
VERTEX
8
0
62
30
10
-0.018467021
20
0.43625533
30
0
70
32
0
VERTEX
8
0
62
30
10
0.0098172503
20
0.43625533
30
0
70
32
0
SEQEND
8
0
0
POLYLINE
8
0
62
5
66
1
10
0
20
0
30
0
70
8
0
VERTEX
8
0
62
5
10
-0.10331983
20
0.43625533
30
0
70
32
0
VERTEX
8
0
62
5
10
-0.089177699
20
0.43625533
30
0
70
32
0
SEQEND
8
0
0
POLYLINE
8
0
62
5
66
1
10
0
20
0
30
0
70
8
0
VERTEX
8
0
62
5
10
-0.046751292
20
0.43625533
30
0
70
32
0
VERTEX
8
0
62
5
10
-0.032609157
20
0.43625533
30
0
70
32
0
SEQEND
8
0
0
POLYLINE
8
0
62
5
66
1
10
0
20
0
30
0
70
8
0
VERTEX
8
0
62
5
10
-0.089177699
20
0.43625533
30
0
70
32
0
VERTEX
8
0
62
5
10
-0.075035563
20
0.43625533
30
0
70
32
0
SEQEND
8
0
0
POLYLINE
8
0
62
5
66
1
10
0
20
0
30
0
70
8
0
VERTEX
8
0
62
5
10
-0.032609157
20
0.43625533
30
0
70
32
0
VERTEX
8
0
62
5
10
-0.018467021
20
0.43625533
30
0
70
32
0
SEQEND
8
0
0
POLYLINE
8
0
62
5
66
1
10
0
20
0
30
0
70
8
0
VERTEX
8
0
62
5
10
-0.075035563
20
0.41625533
30
0
70
32
0
VERTEX
8
0
62
5
10
-0.075035563
20
0.45625533
30
0
70
32
0
SEQEND
8
0
0
POLYLINE
8
0
62
5
66
1
10
0
20
0
30
0
70
8
0
VERTEX
8
0
62
5
10
-0.046751292
20
0.41625533
30
0
70
32
0
VERTEX
8
0
62
5
10
-0.046751292
20
0.45625533
30
0
70
32
0
SEQEND
8
0
0
POLYLINE
8
0
62
5
66
1
10
0
20
0
30
0
70
8
0
VERTEX
8
0
62
5
10
-0.018467021
20
0.41625533
30
0
70
32
0
VERTEX
8
0
62
5
10
-0.018467021
20
0.45625533
30
0
70
32
0
SEQEND
8
0
0
POLYLINE
8
0
62
5
66
1
10
0
20
0
30
0
70
8
0
VERTEX
8
0
62
5
10
-0.10331983
20
0.41625533
30
0
70
32
0
VERTEX
8
0
62
5
10
-0.10331983
20
0.45625533
30
0
70
32
0
SEQEND
8
0
0
POLYLINE
8
0
62
5
66
1
10
0
20
0
30
0
70
8
0
VERTEX
8
0
62
5
10
0.0098172503
20
0.45625533
30
0
70
32
0
VERTEX
8
0
62
5
10
0.0098172503
20
0.531517
30
0
70
32
0
SEQEND
8
0
0
POLYLINE
8
0
62
5
66
1
10
0
20
0
30
0
70
8
0
VERTEX
8
0
62
5
10
0.12295434
20
0.531517
30
0
70
32
0
VERTEX
8
0
62
5
10
0.12295434
20
0.45625533
30
0
70
32
0
SEQEND
8
0
0
POLYLINE
8
0
62
5
66
1
10
0
20
0
30
0
70
8
0
VERTEX
8
0
62
5
10
0.0098172503
20
0.457412
30
0
70
32
0
VERTEX
8
0
62
5
10
0.038101522
20
0.46157626
30
0
70
32
0
VERTEX
8
0
62
5
10
0.066385793
20
0.47507074
30
0
70
32
0
VERTEX
8
0
62
5
10
0.094670064
20
0.47090648
30
0
70
32
0
VERTEX
8
0
62
5
10
0.12295434
20
0.457412
30
0
70
32
0
SEQEND
8
0
0
POLYLINE
8
0
62
5
66
1
10
0
20
0
30
0
70
8
0
VERTEX
8
0
62
5
10
0.0098172503
20
0.49504283
30
0
70
32
0
VERTEX
8
0
62
5
10
0.038101522
20
0.49920709
30
0
70
32
0
VERTEX
8
0
62
5
10
0.066385793
20
0.51270158
30
0
70
32
0
VERTEX
8
0
62
5
10
0.094670064
20
0.50853732
30
0
70
32
0
VERTEX
8
0
62
5
10
0.12295434
20
0.49504283
30
0
70
32
0
SEQEND
8
0
0
POLYLINE
8
0
62
30
66
1
10
0
20
0
30
0
70
8
0
VERTEX
8
0
62
30
10
0.0098172503
20
0.47507074
30
0
70
32
0
VERTEX
8
0
62
30
10
0.12295434
20
0.47507074
30
0
70
32
0
SEQEND
8
0
0
POLYLINE
8
0
62
30
66
1
10
0
20
0
30
0
70
8
0
VERTEX
8
0
62
30
10
0.0098172503
20
0.51270158
30
0
70
32
0
VERTEX
8
0
62
30
10
0.12295434
20
0.51270158
30
0
70
32
0
SEQEND
8
0
0
POLYLINE
8
0
62
30
66
1
10
0
20
0
30
0
70
8
0
VERTEX
8
0
62
30
10
0.038101522
20
0.46157626
30
0
70
32
0
VERTEX
8
0
62
30
10
0.038101522
20
0.47507074
30
0
70
32
0
SEQEND
8
0
0
POLYLINE
8
0
62
30
66
1
10
0
20
0
30
0
70
8
0
VERTEX
8
0
62
30
10
0.066385793
20
0.47507074
30
0
70
32
0
VERTEX
8
0
62
30
10
0.066385793
20
0.47507074
30
0
70
32
0
SEQEND
8
0
0
POLYLINE
8
0
62
30
66
1
10
0
20
0
30
0
70
8
0
VERTEX
8
0
62
30
10
0.094670064
20
0.47090648
30
0
70
32
0
VERTEX
8
0
62
30
10
0.094670064
20
0.47507074
30
0
70
32
0
SEQEND
8
0
0
POLYLINE
8
0
62
30
66
1
10
0
20
0
30
0
70
8
0
VERTEX
8
0
62
30
10
0.038101522
20
0.49920709
30
0
70
32
0
VERTEX
8
0
62
30
10
0.038101522
20
0.51270158
30
0
70
32
0
SEQEND
8
0
0
POLYLINE
8
0
62
30
66
1
10
0
20
0
30
0
70
8
0
VERTEX
8
0
62
30
10
0.066385793
20
0.51270158
30
0
70
32
0
VERTEX
8
0
62
30
10
0.066385793
20
0.51270158
30
0
70
32
0
SEQEND
8
0
0
POLYLINE
8
0
62
30
66
1
10
0
20
0
30
0
70
8
0
VERTEX
8
0
62
30
10
0.094670064
20
0.50853732
30
0
70
32
0
VERTEX
8
0
62
30
10
0.094670064
20
0.51270158
30
0
70
32
0
SEQEND
8
0
0
POLYLINE
8
0
62
5
66
1
10
0
20
0
30
0
70
8
0
VERTEX
8
0
62
5
10
0.038101522
20
0.45625533
30
0
70
32
0
VERTEX
8
0
62
5
10
0.038101522
20
0.46157626
30
0
70
32
0
SEQEND
8
0
0
POLYLINE
8
0
62
5
66
1
10
0
20
0
30
0
70
8
0
VERTEX
8
0
62
5
10
0.066385793
20
0.45625533
30
0
70
32
0
VERTEX
8
0
62
5
10
0.066385793
20
0.47507074
30
0
70
32
0
SEQEND
8
0
0
POLYLINE
8
0
62
5
66
1
10
0
20
0
30
0
70
8
0
VERTEX
8
0
62
5
10
0.094670064
20
0.45625533
30
0
70
32
0
VERTEX
8
0
62
5
10
0.094670064
20
0.47090648
30
0
70
32
0
SEQEND
8
0
0
POLYLINE
8
0
62
5
66
1
10
0
20
0
30
0
70
8
0
VERTEX
8
0
62
5
10
0.038101522
20
0.49388616
30
0
70
32
0
VERTEX
8
0
62
5
10
0.038101522
20
0.49920709
30
0
70
32
0
SEQEND
8
0
0
POLYLINE
8
0
62
5
66
1
10
0
20
0
30
0
70
8
0
VERTEX
8
0
62
5
10
0.066385793
20
0.49388616
30
0
70
32
0
VERTEX
8
0
62
5
10
0.066385793
20
0.51270158
30
0
70
32
0
SEQEND
8
0
0
POLYLINE
8
0
62
5
66
1
10
0
20
0
30
0
70
8
0
VERTEX
8
0
62
5
10
0.094670064
20
0.49388616
30
0
70
32
0
VERTEX
8
0
62
5
10
0.094670064
20
0.50853732
30
0
70
32
0
SEQEND
8
0
0
POLYLINE
8
0
62
5
66
1
10
0
20
0
30
0
70
8
0
VERTEX
8
0
62
5
10
0.038101522
20
0.47507074
30
0
70
32
0
VERTEX
8
0
62
5
10
0.038101522
20
0.49388616
30
0
70
32
0
SEQEND
8
0
0
POLYLINE
8
0
62
5
66
1
10
0
20
0
30
0
70
8
0
VERTEX
8
0
62
5
10
0.066385793
20
0.47507074
30
0
70
32
0
VERTEX
8
0
62
5
10
0.066385793
20
0.49388616
30
0
70
32
0
SEQEND
8
0
0
POLYLINE
8
0
62
5
66
1
10
0
20
0
30
0
70
8
0
VERTEX
8
0
62
5
10
0.094670064
20
0.47507074
30
0
70
32
0
VERTEX
8
0
62
5
10
0.094670064
20
0.49388616
30
0
70
32
0
SEQEND
8
0
0
POLYLINE
8
0
62
5
66
1
10
0
20
0
30
0
70
8
0
VERTEX
8
0
62
5
10
0.038101522
20
0.51270158
30
0
70
32
0
VERTEX
8
0
62
5
10
0.038101522
20
0.531517
30
0
70
32
0
SEQEND
8
0
0
POLYLINE
8
0
62
5
66
1
10
0
20
0
30
0
70
8
0
VERTEX
8
0
62
5
10
0.066385793
20
0.51270158
30
0
70
32
0
VERTEX
8
0
62
5
10
0.066385793
20
0.531517
30
0
70
32
0
SEQEND
8
0
0
POLYLINE
8
0
62
5
66
1
10
0
20
0
30
0
70
8
0
VERTEX
8
0
62
5
10
0.094670064
20
0.51270158
30
0
70
32
0
VERTEX
8
0
62
5
10
0.094670064
20
0.531517
30
0
70
32
0
SEQEND
8
0
0
POLYLINE
8
0
62
30
66
1
10
0
20
0
30
0
70
8
0
VERTEX
8
0
62
30
10
0.0098172503
20
0.457412
30
0
70
32
0
VERTEX
8
0
62
30
10
0.020040641
20
0.47507074
30
0
70
32
0
SEQEND
8
0
0
POLYLINE
8
0
62
30
66
1
10
0
20
0
30
0
70
8
0
VERTEX
8
0
62
30
10
0.038101522
20
0.46157626
30
0
70
32
0
VERTEX
8
0
62
30
10
0.047350295
20
0.47507074
30
0
70
32
0
SEQEND
8
0
0
POLYLINE
8
0
62
30
66
1
10
0
20
0
30
0
70
8
0
VERTEX
8
0
62
30
10
0.066385793
20
0.47507074
30
0
70
32
0
VERTEX
8
0
62
30
10
0.066385793
20
0.47507074
30
0
70
32
0
SEQEND
8
0
0
POLYLINE
8
0
62
30
66
1
10
0
20
0
30
0
70
8
0
VERTEX
8
0
62
30
10
0.094670064
20
0.47090648
30
0
70
32
0
VERTEX
8
0
62
30
10
0.099915816
20
0.47507074
30
0
70
32
0
SEQEND
8
0
0
POLYLINE
8
0
62
30
66
1
10
0
20
0
30
0
70
8
0
VERTEX
8
0
62
30
10
0.0098172503
20
0.49504283
30
0
70
32
0
VERTEX
8
0
62
30
10
0.020040641
20
0.51270158
30
0
70
32
0
SEQEND
8
0
0
POLYLINE
8
0
62
30
66
1
10
0
20
0
30
0
70
8
0
VERTEX
8
0
62
30
10
0.038101522
20
0.49920709
30
0
70
32
0
VERTEX
8
0
62
30
10
0.047350295
20
0.51270158
30
0
70
32
0
SEQEND
8
0
0
POLYLINE
8
0
62
30
66
1
10
0
20
0
30
0
70
8
0
VERTEX
8
0
62
30
10
0.066385793
20
0.51270158
30
0
70
32
0
VERTEX
8
0
62
30
10
0.066385793
20
0.51270158
30
0
70
32
0
SEQEND
8
0
0
POLYLINE
8
0
62
30
66
1
10
0
20
0
30
0
70
8
0
VERTEX
8
0
62
30
10
0.094670064
20
0.50853732
30
0
70
32
0
VERTEX
8
0
62
30
10
0.099915816
20
0.51270158
30
0
70
32
0
SEQEND
8
0
0
POLYLINE
8
0
62
5
66
1
10
0
20
0
30
0
70
8
0
VERTEX
8
0
62
5
10
0.23609142
20
0.531517
30
0
70
32
0
VERTEX
8
0
62
5
10
0.23609142
20
0.45625533
30
0
70
32
0
SEQEND
8
0
0
POLYLINE
8
0
62
5
66
1
10
0
20
0
30
0
70
8
0
VERTEX
8
0
62
5
10
0.12295434
20
0.457412
30
0
70
32
0
VERTEX
8
0
62
5
10
0.15123861
20
0.46157626
30
0
70
32
0
VERTEX
8
0
62
5
10
0.17952288
20
0.47507074
30
0
70
32
0
VERTEX
8
0
62
5
10
0.20780715
20
0.47090648
30
0
70
32
0
VERTEX
8
0
62
5
10
0.23609142
20
0.457412
30
0
70
32
0
SEQEND
8
0
0
POLYLINE
8
0
62
5
66
1
10
0
20
0
30
0
70
8
0
VERTEX
8
0
62
5
10
0.12295434
20
0.49504283
30
0
70
32
0
VERTEX
8
0
62
5
10
0.15123861
20
0.49920709
30
0
70
32
0
VERTEX
8
0
62
5
10
0.17952288
20
0.51270158
30
0
70
32
0
VERTEX
8
0
62
5
10
0.20780715
20
0.50853732
30
0
70
32
0
VERTEX
8
0
62
5
10
0.23609142
20
0.49504283
30
0
70
32
0
SEQEND
8
0
0
POLYLINE
8
0
62
30
66
1
10
0
20
0
30
0
70
8
0
VERTEX
8
0
62
30
10
0.12295434
20
0.47507074
30
0
70
32
0
VERTEX
8
0
62
30
10
0.23609142
20
0.47507074
30
0
70
32
0
SEQEND
8
0
0
POLYLINE
8
0
62
30
66
1
10
0
20
0
30
0
70
8
0
VERTEX
8
0
62
30
10
0.12295434
20
0.51270158
30
0
70
32
0
VERTEX
8
0
62
30
10
0.23609142
20
0.51270158
30
0
70
32
0
SEQEND
8
0
0
POLYLINE
8
0
62
30
66
1
10
0
20
0
30
0
70
8
0
VERTEX
8
0
62
30
10
0.15123861
20
0.46157626
30
0
70
32
0
VERTEX
8
0
62
30
10
0.15123861
20
0.47507074
30
0
70
32
0
SEQEND
8
0
0
POLYLINE
8
0
62
30
66
1
10
0
20
0
30
0
70
8
0
VERTEX
8
0
62
30
10
0.17952288
20
0.47507074
30
0
70
32
0
VERTEX
8
0
62
30
10
0.17952288
20
0.47507074
30
0
70
32
0
SEQEND
8
0
0
POLYLINE
8
0
62
30
66
1
10
0
20
0
30
0
70
8
0
VERTEX
8
0
62
30
10
0.20780715
20
0.47090648
30
0
70
32
0
VERTEX
8
0
62
30
10
0.20780715
20
0.47507074
30
0
70
32
0
SEQEND
8
0
0
POLYLINE
8
0
62
30
66
1
10
0
20
0
30
0
70
8
0
VERTEX
8
0
62
30
10
0.15123861
20
0.49920709
30
0
70
32
0
VERTEX
8
0
62
30
10
0.15123861
20
0.51270158
30
0
70
32
0
SEQEND
8
0
0
POLYLINE
8
0
62
30
66
1
10
0
20
0
30
0
70
8
0
VERTEX
8
0
62
30
10
0.17952288
20
0.51270158
30
0
70
32
0
VERTEX
8
0
62
30
10
0.17952288
20
0.51270158
30
0
70
32
0
SEQEND
8
0
0
POLYLINE
8
0
62
30
66
1
10
0
20
0
30
0
70
8
0
VERTEX
8
0
62
30
10
0.20780715
20
0.50853732
30
0
70
32
0
VERTEX
8
0
62
30
10
0.20780715
20
0.51270158
30
0
70
32
0
SEQEND
8
0
0
POLYLINE
8
0
62
5
66
1
10
0
20
0
30
0
70
8
0
VERTEX
8
0
62
5
10
0.15123861
20
0.45625533
30
0
70
32
0
VERTEX
8
0
62
5
10
0.15123861
20
0.46157626
30
0
70
32
0
SEQEND
8
0
0
POLYLINE
8
0
62
5
66
1
10
0
20
0
30
0
70
8
0
VERTEX
8
0
62
5
10
0.17952288
20
0.45625533
30
0
70
32
0
VERTEX
8
0
62
5
10
0.17952288
20
0.47507074
30
0
70
32
0
SEQEND
8
0
0
POLYLINE
8
0
62
5
66
1
10
0
20
0
30
0
70
8
0
VERTEX
8
0
62
5
10
0.20780715
20
0.45625533
30
0
70
32
0
VERTEX
8
0
62
5
10
0.20780715
20
0.47090648
30
0
70
32
0
SEQEND
8
0
0
POLYLINE
8
0
62
5
66
1
10
0
20
0
30
0
70
8
0
VERTEX
8
0
62
5
10
0.15123861
20
0.49388616
30
0
70
32
0
VERTEX
8
0
62
5
10
0.15123861
20
0.49920709
30
0
70
32
0
SEQEND
8
0
0
POLYLINE
8
0
62
5
66
1
10
0
20
0
30
0
70
8
0
VERTEX
8
0
62
5
10
0.17952288
20
0.49388616
30
0
70
32
0
VERTEX
8
0
62
5
10
0.17952288
20
0.51270158
30
0
70
32
0
SEQEND
8
0
0
POLYLINE
8
0
62
5
66
1
10
0
20
0
30
0
70
8
0
VERTEX
8
0
62
5
10
0.20780715
20
0.49388616
30
0
70
32
0
VERTEX
8
0
62
5
10
0.20780715
20
0.50853732
30
0
70
32
0
SEQEND
8
0
0
POLYLINE
8
0
62
5
66
1
10
0
20
0
30
0
70
8
0
VERTEX
8
0
62
5
10
0.15123861
20
0.47507074
30
0
70
32
0
VERTEX
8
0
62
5
10
0.15123861
20
0.49388616
30
0
70
32
0
SEQEND
8
0
0
POLYLINE
8
0
62
5
66
1
10
0
20
0
30
0
70
8
0
VERTEX
8
0
62
5
10
0.17952288
20
0.47507074
30
0
70
32
0
VERTEX
8
0
62
5
10
0.17952288
20
0.49388616
30
0
70
32
0
SEQEND
8
0
0
POLYLINE
8
0
62
5
66
1
10
0
20
0
30
0
70
8
0
VERTEX
8
0
62
5
10
0.20780715
20
0.47507074
30
0
70
32
0
VERTEX
8
0
62
5
10
0.20780715
20
0.49388616
30
0
70
32
0
SEQEND
8
0
0
POLYLINE
8
0
62
5
66
1
10
0
20
0
30
0
70
8
0
VERTEX
8
0
62
5
10
0.15123861
20
0.51270158
30
0
70
32
0
VERTEX
8
0
62
5
10
0.15123861
20
0.531517
30
0
70
32
0
SEQEND
8
0
0
POLYLINE
8
0
62
5
66
1
10
0
20
0
30
0
70
8
0
VERTEX
8
0
62
5
10
0.17952288
20
0.51270158
30
0
70
32
0
VERTEX
8
0
62
5
10
0.17952288
20
0.531517
30
0
70
32
0
SEQEND
8
0
0
POLYLINE
8
0
62
5
66
1
10
0
20
0
30
0
70
8
0
VERTEX
8
0
62
5
10
0.20780715
20
0.51270158
30
0
70
32
0
VERTEX
8
0
62
5
10
0.20780715
20
0.531517
30
0
70
32
0
SEQEND
8
0
0
POLYLINE
8
0
62
30
66
1
10
0
20
0
30
0
70
8
0
VERTEX
8
0
62
30
10
0.12295434
20
0.457412
30
0
70
32
0
VERTEX
8
0
62
30
10
0.13317773
20
0.47507074
30
0
70
32
0
SEQEND
8
0
0
POLYLINE
8
0
62
30
66
1
10
0
20
0
30
0
70
8
0
VERTEX
8
0
62
30
10
0.15123861
20
0.46157626
30
0
70
32
0
VERTEX
8
0
62
30
10
0.16048738
20
0.47507074
30
0
70
32
0
SEQEND
8
0
0
POLYLINE
8
0
62
30
66
1
10
0
20
0
30
0
70
8
0
VERTEX
8
0
62
30
10
0.17952288
20
0.47507074
30
0
70
32
0
VERTEX
8
0
62
30
10
0.17952288
20
0.47507074
30
0
70
32
0
SEQEND
8
0
0
POLYLINE
8
0
62
30
66
1
10
0
20
0
30
0
70
8
0
VERTEX
8
0
62
30
10
0.20780715
20
0.47090648
30
0
70
32
0
VERTEX
8
0
62
30
10
0.2130529
20
0.47507074
30
0
70
32
0
SEQEND
8
0
0
POLYLINE
8
0
62
30
66
1
10
0
20
0
30
0
70
8
0
VERTEX
8
0
62
30
10
0.12295434
20
0.49504283
30
0
70
32
0
VERTEX
8
0
62
30
10
0.13317773
20
0.51270158
30
0
70
32
0
SEQEND
8
0
0
POLYLINE
8
0
62
30
66
1
10
0
20
0
30
0
70
8
0
VERTEX
8
0
62
30
10
0.15123861
20
0.49920709
30
0
70
32
0
VERTEX
8
0
62
30
10
0.16048738
20
0.51270158
30
0
70
32
0
SEQEND
8
0
0
POLYLINE
8
0
62
30
66
1
10
0
20
0
30
0
70
8
0
VERTEX
8
0
62
30
10
0.17952288
20
0.51270158
30
0
70
32
0
VERTEX
8
0
62
30
10
0.17952288
20
0.51270158
30
0
70
32
0
SEQEND
8
0
0
POLYLINE
8
0
62
30
66
1
10
0
20
0
30
0
70
8
0
VERTEX
8
0
62
30
10
0.20780715
20
0.50853732
30
0
70
32
0
VERTEX
8
0
62
30
10
0.2130529
20
0.51270158
30
0
70
32
0
SEQEND
8
0
0
POLYLINE
8
0
62
5
66
1
10
0
20
0
30
0
70
8
0
VERTEX
8
0
62
5
10
-0.10331983
20
0.45625533
30
0
70
32
0
VERTEX
8
0
62
5
10
-0.10331983
20
0.531517
30
0
70
32
0
SEQEND
8
0
0
POLYLINE
8
0
62
5
66
1
10
0
20
0
30
0
70
8
0
VERTEX
8
0
62
5
10
-0.10331983
20
0.457412
30
0
70
32
0
VERTEX
8
0
62
5
10
-0.075035563
20
0.46157626
30
0
70
32
0
VERTEX
8
0
62
5
10
-0.046751292
20
0.47507074
30
0
70
32
0
VERTEX
8
0
62
5
10
-0.018467021
20
0.47090648
30
0
70
32
0
VERTEX
8
0
62
5
10
0.0098172503
20
0.457412
30
0
70
32
0
SEQEND
8
0
0
POLYLINE
8
0
62
5
66
1
10
0
20
0
30
0
70
8
0
VERTEX
8
0
62
5
10
-0.10331983
20
0.49504283
30
0
70
32
0
VERTEX
8
0
62
5
10
-0.075035563
20
0.49920709
30
0
70
32
0
VERTEX
8
0
62
5
10
-0.046751292
20
0.51270158
30
0
70
32
0
VERTEX
8
0
62
5
10
-0.018467021
20
0.50853732
30
0
70
32
0
VERTEX
8
0
62
5
10
0.0098172503
20
0.49504283
30
0
70
32
0
SEQEND
8
0
0
POLYLINE
8
0
62
30
66
1
10
0
20
0
30
0
70
8
0
VERTEX
8
0
62
30
10
-0.10331983
20
0.47507074
30
0
70
32
0
VERTEX
8
0
62
30
10
0.0098172503
20
0.47507074
30
0
70
32
0
SEQEND
8
0
0
POLYLINE
8
0
62
30
66
1
10
0
20
0
30
0
70
8
0
VERTEX
8
0
62
30
10
-0.10331983
20
0.51270158
30
0
70
32
0
VERTEX
8
0
62
30
10
0.0098172503
20
0.51270158
30
0
70
32
0
SEQEND
8
0
0
POLYLINE
8
0
62
30
66
1
10
0
20
0
30
0
70
8
0
VERTEX
8
0
62
30
10
-0.075035563
20
0.46157626
30
0
70
32
0
VERTEX
8
0
62
30
10
-0.075035563
20
0.47507074
30
0
70
32
0
SEQEND
8
0
0
POLYLINE
8
0
62
30
66
1
10
0
20
0
30
0
70
8
0
VERTEX
8
0
62
30
10
-0.046751292
20
0.47507074
30
0
70
32
0
VERTEX
8
0
62
30
10
-0.046751292
20
0.47507074
30
0
70
32
0
SEQEND
8
0
0
POLYLINE
8
0
62
30
66
1
10
0
20
0
30
0
70
8
0
VERTEX
8
0
62
30
10
-0.018467021
20
0.47090648
30
0
70
32
0
VERTEX
8
0
62
30
10
-0.018467021
20
0.47507074
30
0
70
32
0
SEQEND
8
0
0
POLYLINE
8
0
62
30
66
1
10
0
20
0
30
0
70
8
0
VERTEX
8
0
62
30
10
-0.075035563
20
0.49920709
30
0
70
32
0
VERTEX
8
0
62
30
10
-0.075035563
20
0.51270158
30
0
70
32
0
SEQEND
8
0
0
POLYLINE
8
0
62
30
66
1
10
0
20
0
30
0
70
8
0
VERTEX
8
0
62
30
10
-0.046751292
20
0.51270158
30
0
70
32
0
VERTEX
8
0
62
30
10
-0.046751292
20
0.51270158
30
0
70
32
0
SEQEND
8
0
0
POLYLINE
8
0
62
30
66
1
10
0
20
0
30
0
70
8
0
VERTEX
8
0
62
30
10
-0.018467021
20
0.50853732
30
0
70
32
0
VERTEX
8
0
62
30
10
-0.018467021
20
0.51270158
30
0
70
32
0
SEQEND
8
0
0
POLYLINE
8
0
62
5
66
1
10
0
20
0
30
0
70
8
0
VERTEX
8
0
62
5
10
-0.075035563
20
0.45625533
30
0
70
32
0
VERTEX
8
0
62
5
10
-0.075035563
20
0.46157626
30
0
70
32
0
SEQEND
8
0
0
POLYLINE
8
0
62
5
66
1
10
0
20
0
30
0
70
8
0
VERTEX
8
0
62
5
10
-0.046751292
20
0.45625533
30
0
70
32
0
VERTEX
8
0
62
5
10
-0.046751292
20
0.47507074
30
0
70
32
0
SEQEND
8
0
0
POLYLINE
8
0
62
5
66
1
10
0
20
0
30
0
70
8
0
VERTEX
8
0
62
5
10
-0.018467021
20
0.45625533
30
0
70
32
0
VERTEX
8
0
62
5
10
-0.018467021
20
0.47090648
30
0
70
32
0
SEQEND
8
0
0
POLYLINE
8
0
62
5
66
1
10
0
20
0
30
0
70
8
0
VERTEX
8
0
62
5
10
-0.075035563
20
0.49388616
30
0
70
32
0
VERTEX
8
0
62
5
10
-0.075035563
20
0.49920709
30
0
70
32
0
SEQEND
8
0
0
POLYLINE
8
0
62
5
66
1
10
0
20
0
30
0
70
8
0
VERTEX
8
0
62
5
10
-0.046751292
20
0.49388616
30
0
70
32
0
VERTEX
8
0
62
5
10
-0.046751292
20
0.51270158
30
0
70
32
0
SEQEND
8
0
0
POLYLINE
8
0
62
5
66
1
10
0
20
0
30
0
70
8
0
VERTEX
8
0
62
5
10
-0.018467021
20
0.49388616
30
0
70
32
0
VERTEX
8
0
62
5
10
-0.018467021
20
0.50853732
30
0
70
32
0
SEQEND
8
0
0
POLYLINE
8
0
62
5
66
1
10
0
20
0
30
0
70
8
0
VERTEX
8
0
62
5
10
-0.075035563
20
0.47507074
30
0
70
32
0
VERTEX
8
0
62
5
10
-0.075035563
20
0.49388616
30
0
70
32
0
SEQEND
8
0
0
POLYLINE
8
0
62
5
66
1
10
0
20
0
30
0
70
8
0
VERTEX
8
0
62
5
10
-0.046751292
20
0.47507074
30
0
70
32
0
VERTEX
8
0
62
5
10
-0.046751292
20
0.49388616
30
0
70
32
0
SEQEND
8
0
0
POLYLINE
8
0
62
5
66
1
10
0
20
0
30
0
70
8
0
VERTEX
8
0
62
5
10
-0.018467021
20
0.47507074
30
0
70
32
0
VERTEX
8
0
62
5
10
-0.018467021
20
0.49388616
30
0
70
32
0
SEQEND
8
0
0
POLYLINE
8
0
62
5
66
1
10
0
20
0
30
0
70
8
0
VERTEX
8
0
62
5
10
-0.075035563
20
0.51270158
30
0
70
32
0
VERTEX
8
0
62
5
10
-0.075035563
20
0.531517
30
0
70
32
0
SEQEND
8
0
0
POLYLINE
8
0
62
5
66
1
10
0
20
0
30
0
70
8
0
VERTEX
8
0
62
5
10
-0.046751292
20
0.51270158
30
0
70
32
0
VERTEX
8
0
62
5
10
-0.046751292
20
0.531517
30
0
70
32
0
SEQEND
8
0
0
POLYLINE
8
0
62
5
66
1
10
0
20
0
30
0
70
8
0
VERTEX
8
0
62
5
10
-0.018467021
20
0.51270158
30
0
70
32
0
VERTEX
8
0
62
5
10
-0.018467021
20
0.531517
30
0
70
32
0
SEQEND
8
0
0
POLYLINE
8
0
62
30
66
1
10
0
20
0
30
0
70
8
0
VERTEX
8
0
62
30
10
-0.10331983
20
0.457412
30
0
70
32
0
VERTEX
8
0
62
30
10
-0.093096444
20
0.47507074
30
0
70
32
0
SEQEND
8
0
0
POLYLINE
8
0
62
30
66
1
10
0
20
0
30
0
70
8
0
VERTEX
8
0
62
30
10
-0.075035563
20
0.46157626
30
0
70
32
0
VERTEX
8
0
62
30
10
-0.06578679
20
0.47507074
30
0
70
32
0
SEQEND
8
0
0
POLYLINE
8
0
62
30
66
1
10
0
20
0
30
0
70
8
0
VERTEX
8
0
62
30
10
-0.046751292
20
0.47507074
30
0
70
32
0
VERTEX
8
0
62
30
10
-0.046751292
20
0.47507074
30
0
70
32
0
SEQEND
8
0
0
POLYLINE
8
0
62
30
66
1
10
0
20
0
30
0
70
8
0
VERTEX
8
0
62
30
10
-0.018467021
20
0.47090648
30
0
70
32
0
VERTEX
8
0
62
30
10
-0.013221269
20
0.47507074
30
0
70
32
0
SEQEND
8
0
0
POLYLINE
8
0
62
30
66
1
10
0
20
0
30
0
70
8
0
VERTEX
8
0
62
30
10
-0.10331983
20
0.49504283
30
0
70
32
0
VERTEX
8
0
62
30
10
-0.093096444
20
0.51270158
30
0
70
32
0
SEQEND
8
0
0
POLYLINE
8
0
62
30
66
1
10
0
20
0
30
0
70
8
0
VERTEX
8
0
62
30
10
-0.075035563
20
0.49920709
30
0
70
32
0
VERTEX
8
0
62
30
10
-0.06578679
20
0.51270158
30
0
70
32
0
SEQEND
8
0
0
POLYLINE
8
0
62
30
66
1
10
0
20
0
30
0
70
8
0
VERTEX
8
0
62
30
10
-0.046751292
20
0.51270158
30
0
70
32
0
VERTEX
8
0
62
30
10
-0.046751292
20
0.51270158
30
0
70
32
0
SEQEND
8
0
0
POLYLINE
8
0
62
30
66
1
10
0
20
0
30
0
70
8
0
VERTEX
8
0
62
30
10
-0.018467021
20
0.50853732
30
0
70
32
0
VERTEX
8
0
62
30
10
-0.013221269
20
0.51270158
30
0
70
32
0
SEQEND
8
0
0
POLYLINE
8
0
62
30
66
1
10
0
20
0
30
0
70
8
0
VERTEX
8
0
62
30
10
0.0098172503
20
0.5550279
30
0
70
32
0
VERTEX
8
0
62
30
10
0.12295434
20
0.5550279
30
0
70
32
0
SEQEND
8
0
0
POLYLINE
8
0
62
30
66
1
10
0
20
0
30
0
70
8
0
VERTEX
8
0
62
30
10
0.0098172503
20
0.531517
30
0
70
32
0
VERTEX
8
0
62
30
10
0.12295434
20
0.531517
30
0
70
32
0
SEQEND
8
0
0
POLYLINE
8
0
62
5
66
1
10
0
20
0
30
0
70
8
0
VERTEX
8
0
62
5
10
0.0098172503
20
0.531517
30
0
70
32
0
VERTEX
8
0
62
5
10
0.032538703
20
0.5550279
30
0
70
32
0
VERTEX
8
0
62
5
10
0.038101522
20
0.531517
30
0
70
32
0
VERTEX
8
0
62
5
10
0.060822974
20
0.5550279
30
0
70
32
0
VERTEX
8
0
62
5
10
0.066385793
20
0.531517
30
0
70
32
0
VERTEX
8
0
62
5
10
0.089107245
20
0.5550279
30
0
70
32
0
VERTEX
8
0
62
5
10
0.094670064
20
0.531517
30
0
70
32
0
VERTEX
8
0
62
5
10
0.11739152
20
0.5550279
30
0
70
32
0
VERTEX
8
0
62
5
10
0.12295434
20
0.531517
30
0
70
32
0
SEQEND
8
0
0
POLYLINE
8
0
62
5
66
1
10
0
20
0
30
0
70
8
0
VERTEX
8
0
62
5
10
0.038101522
20
0.531517
30
0
70
32
0
VERTEX
8
0
62
5
10
0.038101522
20
0.531517
30
0
70
32
0
SEQEND
8
0
0
POLYLINE
8
0
62
5
66
1
10
0
20
0
30
0
70
8
0
VERTEX
8
0
62
5
10
0.066385793
20
0.531517
30
0
70
32
0
VERTEX
8
0
62
5
10
0.066385793
20
0.531517
30
0
70
32
0
SEQEND
8
0
0
POLYLINE
8
0
62
5
66
1
10
0
20
0
30
0
70
8
0
VERTEX
8
0
62
5
10
0.094670064
20
0.531517
30
0
70
32
0
VERTEX
8
0
62
5
10
0.094670064
20
0.531517
30
0
70
32
0
SEQEND
8
0
0
POLYLINE
8
0
62
5
66
1
10
0
20
0
30
0
70
8
0
VERTEX
8
0
62
5
10
0.032538703
20
0.5550279
30
0
70
32
0
VERTEX
8
0
62
5
10
0.032538703
20
0.5550279
30
0
70
32
0
SEQEND
8
0
0
POLYLINE
8
0
62
5
66
1
10
0
20
0
30
0
70
8
0
VERTEX
8
0
62
5
10
0.060822974
20
0.5550279
30
0
70
32
0
VERTEX
8
0
62
5
10
0.060822974
20
0.5550279
30
0
70
32
0
SEQEND
8
0
0
POLYLINE
8
0
62
5
66
1
10
0
20
0
30
0
70
8
0
VERTEX
8
0
62
5
10
0.089107245
20
0.5550279
30
0
70
32
0
VERTEX
8
0
62
5
10
0.089107245
20
0.5550279
30
0
70
32
0
SEQEND
8
0
0
POLYLINE
8
0
62
5
66
1
10
0
20
0
30
0
70
8
0
VERTEX
8
0
62
5
10
0.11739152
20
0.5550279
30
0
70
32
0
VERTEX
8
0
62
5
10
0.11739152
20
0.5550279
30
0
70
32
0
SEQEND
8
0
0
POLYLINE
8
0
62
30
66
1
10
0
20
0
30
0
70
8
0
VERTEX
8
0
62
30
10
0.12295434
20
0.5550279
30
0
70
32
0
VERTEX
8
0
62
30
10
0.23609142
20
0.5550279
30
0
70
32
0
SEQEND
8
0
0
POLYLINE
8
0
62
30
66
1
10
0
20
0
30
0
70
8
0
VERTEX
8
0
62
30
10
0.12295434
20
0.531517
30
0
70
32
0
VERTEX
8
0
62
30
10
0.23609142
20
0.531517
30
0
70
32
0
SEQEND
8
0
0
POLYLINE
8
0
62
5
66
1
10
0
20
0
30
0
70
8
0
VERTEX
8
0
62
5
10
0.12295434
20
0.531517
30
0
70
32
0
VERTEX
8
0
62
5
10
0.14567579
20
0.5550279
30
0
70
32
0
VERTEX
8
0
62
5
10
0.15123861
20
0.531517
30
0
70
32
0
VERTEX
8
0
62
5
10
0.17396006
20
0.5550279
30
0
70
32
0
VERTEX
8
0
62
5
10
0.17952288
20
0.531517
30
0
70
32
0
VERTEX
8
0
62
5
10
0.20224433
20
0.5550279
30
0
70
32
0
VERTEX
8
0
62
5
10
0.20780715
20
0.531517
30
0
70
32
0
VERTEX
8
0
62
5
10
0.2305286
20
0.5550279
30
0
70
32
0
VERTEX
8
0
62
5
10
0.23609142
20
0.531517
30
0
70
32
0
SEQEND
8
0
0
POLYLINE
8
0
62
5
66
1
10
0
20
0
30
0
70
8
0
VERTEX
8
0
62
5
10
0.15123861
20
0.531517
30
0
70
32
0
VERTEX
8
0
62
5
10
0.15123861
20
0.531517
30
0
70
32
0
SEQEND
8
0
0
POLYLINE
8
0
62
5
66
1
10
0
20
0
30
0
70
8
0
VERTEX
8
0
62
5
10
0.17952288
20
0.531517
30
0
70
32
0
VERTEX
8
0
62
5
10
0.17952288
20
0.531517
30
0
70
32
0
SEQEND
8
0
0
POLYLINE
8
0
62
5
66
1
10
0
20
0
30
0
70
8
0
VERTEX
8
0
62
5
10
0.20780715
20
0.531517
30
0
70
32
0
VERTEX
8
0
62
5
10
0.20780715
20
0.531517
30
0
70
32
0
SEQEND
8
0
0
POLYLINE
8
0
62
5
66
1
10
0
20
0
30
0
70
8
0
VERTEX
8
0
62
5
10
0.14567579
20
0.5550279
30
0
70
32
0
VERTEX
8
0
62
5
10
0.14567579
20
0.5550279
30
0
70
32
0
SEQEND
8
0
0
POLYLINE
8
0
62
5
66
1
10
0
20
0
30
0
70
8
0
VERTEX
8
0
62
5
10
0.17396006
20
0.5550279
30
0
70
32
0
VERTEX
8
0
62
5
10
0.17396006
20
0.5550279
30
0
70
32
0
SEQEND
8
0
0
POLYLINE
8
0
62
5
66
1
10
0
20
0
30
0
70
8
0
VERTEX
8
0
62
5
10
0.20224433
20
0.5550279
30
0
70
32
0
VERTEX
8
0
62
5
10
0.20224433
20
0.5550279
30
0
70
32
0
SEQEND
8
0
0
POLYLINE
8
0
62
5
66
1
10
0
20
0
30
0
70
8
0
VERTEX
8
0
62
5
10
0.2305286
20
0.5550279
30
0
70
32
0
VERTEX
8
0
62
5
10
0.2305286
20
0.5550279
30
0
70
32
0
SEQEND
8
0
0
POLYLINE
8
0
62
30
66
1
10
0
20
0
30
0
70
8
0
VERTEX
8
0
62
30
10
-0.10331983
20
0.5550279
30
0
70
32
0
VERTEX
8
0
62
30
10
0.0098172503
20
0.5550279
30
0
70
32
0
SEQEND
8
0
0
POLYLINE
8
0
62
30
66
1
10
0
20
0
30
0
70
8
0
VERTEX
8
0
62
30
10
-0.10331983
20
0.531517
30
0
70
32
0
VERTEX
8
0
62
30
10
0.0098172503
20
0.531517
30
0
70
32
0
SEQEND
8
0
0
POLYLINE
8
0
62
5
66
1
10
0
20
0
30
0
70
8
0
VERTEX
8
0
62
5
10
-0.10331983
20
0.531517
30
0
70
32
0
VERTEX
8
0
62
5
10
-0.080598382
20
0.5550279
30
0
70
32
0
VERTEX
8
0
62
5
10
-0.075035563
20
0.531517
30
0
70
32
0
VERTEX
8
0
62
5
10
-0.052314111
20
0.5550279
30
0
70
32
0
VERTEX
8
0
62
5
10
-0.046751292
20
0.531517
30
0
70
32
0
VERTEX
8
0
62
5
10
-0.02402984
20
0.5550279
30
0
70
32
0
VERTEX
8
0
62
5
10
-0.018467021
20
0.531517
30
0
70
32
0
VERTEX
8
0
62
5
10
0.0042544316
20
0.5550279
30
0
70
32
0
VERTEX
8
0
62
5
10
0.0098172503
20
0.531517
30
0
70
32
0
SEQEND
8
0
0
POLYLINE
8
0
62
5
66
1
10
0
20
0
30
0
70
8
0
VERTEX
8
0
62
5
10
-0.075035563
20
0.531517
30
0
70
32
0
VERTEX
8
0
62
5
10
-0.075035563
20
0.531517
30
0
70
32
0
SEQEND
8
0
0
POLYLINE
8
0
62
5
66
1
10
0
20
0
30
0
70
8
0
VERTEX
8
0
62
5
10
-0.046751292
20
0.531517
30
0
70
32
0
VERTEX
8
0
62
5
10
-0.046751292
20
0.531517
30
0
70
32
0
SEQEND
8
0
0
POLYLINE
8
0
62
5
66
1
10
0
20
0
30
0
70
8
0
VERTEX
8
0
62
5
10
-0.018467021
20
0.531517
30
0
70
32
0
VERTEX
8
0
62
5
10
-0.018467021
20
0.531517
30
0
70
32
0
SEQEND
8
0
0
POLYLINE
8
0
62
5
66
1
10
0
20
0
30
0
70
8
0
VERTEX
8
0
62
5
10
-0.080598382
20
0.5550279
30
0
70
32
0
VERTEX
8
0
62
5
10
-0.080598382
20
0.5550279
30
0
70
32
0
SEQEND
8
0
0
POLYLINE
8
0
62
5
66
1
10
0
20
0
30
0
70
8
0
VERTEX
8
0
62
5
10
-0.052314111
20
0.5550279
30
0
70
32
0
VERTEX
8
0
62
5
10
-0.052314111
20
0.5550279
30
0
70
32
0
SEQEND
8
0
0
POLYLINE
8
0
62
5
66
1
10
0
20
0
30
0
70
8
0
VERTEX
8
0
62
5
10
-0.02402984
20
0.5550279
30
0
70
32
0
VERTEX
8
0
62
5
10
-0.02402984
20
0.5550279
30
0
70
32
0
SEQEND
8
0
0
POLYLINE
8
0
62
5
66
1
10
0
20
0
30
0
70
8
0
VERTEX
8
0
62
5
10
0.0042544316
20
0.5550279
30
0
70
32
0
VERTEX
8
0
62
5
10
0.0042544316
20
0.5550279
30
0
70
32
0
SEQEND
8
0
0
POLYLINE
8
0
62
5
66
1
10
0
20
0
30
0
70
8
0
VERTEX
8
0
62
5
10
0.032538703
20
0.5550279
30
0
70
32
0
VERTEX
8
0
62
5
10
0.032538703
20
0.64775226
30
0
70
32
0
SEQEND
8
0
0
POLYLINE
8
0
62
5
66
1
10
0
20
0
30
0
70
8
0
VERTEX
8
0
62
5
10
0.14567579
20
0.5550279
30
0
70
32
0
VERTEX
8
0
62
5
10
0.14567579
20
0.64775226
30
0
70
32
0
SEQEND
8
0
0
POLYLINE
8
0
62
5
66
1
10
0
20
0
30
0
70
8
0
VERTEX
8
0
62
5
10
0.060822974
20
0.5550279
30
0
70
32
0
VERTEX
8
0
62
5
10
0.060822974
20
0.64775226
30
0
70
32
0
SEQEND
8
0
0
POLYLINE
8
0
62
5
66
1
10
0
20
0
30
0
70
8
0
VERTEX
8
0
62
5
10
0.089107245
20
0.5550279
30
0
70
32
0
VERTEX
8
0
62
5
10
0.089107245
20
0.64775226
30
0
70
32
0
SEQEND
8
0
0
POLYLINE
8
0
62
5
66
1
10
0
20
0
30
0
70
8
0
VERTEX
8
0
62
5
10
0.11739152
20
0.5550279
30
0
70
32
0
VERTEX
8
0
62
5
10
0.11739152
20
0.64775226
30
0
70
32
0
SEQEND
8
0
0
POLYLINE
8
0
62
5
66
1
10
0
20
0
30
0
70
8
0
VERTEX
8
0
62
5
10
0.25881287
20
0.5550279
30
0
70
32
0
VERTEX
8
0
62
5
10
0.25881287
20
0.64775226
30
0
70
32
0
SEQEND
8
0
0
POLYLINE
8
0
62
5
66
1
10
0
20
0
30
0
70
8
0
VERTEX
8
0
62
5
10
0.17396006
20
0.5550279
30
0
70
32
0
VERTEX
8
0
62
5
10
0.17396006
20
0.64775226
30
0
70
32
0
SEQEND
8
0
0
POLYLINE
8
0
62
5
66
1
10
0
20
0
30
0
70
8
0
VERTEX
8
0
62
5
10
0.20224433
20
0.5550279
30
0
70
32
0
VERTEX
8
0
62
5
10
0.20224433
20
0.64775226
30
0
70
32
0
SEQEND
8
0
0
POLYLINE
8
0
62
5
66
1
10
0
20
0
30
0
70
8
0
VERTEX
8
0
62
5
10
0.2305286
20
0.5550279
30
0
70
32
0
VERTEX
8
0
62
5
10
0.2305286
20
0.64775226
30
0
70
32
0
SEQEND
8
0
0
POLYLINE
8
0
62
5
66
1
10
0
20
0
30
0
70
8
0
VERTEX
8
0
62
5
10
-0.080598382
20
0.5550279
30
0
70
32
0
VERTEX
8
0
62
5
10
-0.080598382
20
0.64775226
30
0
70
32
0
SEQEND
8
0
0
POLYLINE
8
0
62
5
66
1
10
0
20
0
30
0
70
8
0
VERTEX
8
0
62
5
10
-0.052314111
20
0.5550279
30
0
70
32
0
VERTEX
8
0
62
5
10
-0.052314111
20
0.64775226
30
0
70
32
0
SEQEND
8
0
0
POLYLINE
8
0
62
5
66
1
10
0
20
0
30
0
70
8
0
VERTEX
8
0
62
5
10
-0.02402984
20
0.5550279
30
0
70
32
0
VERTEX
8
0
62
5
10
-0.02402984
20
0.64775226
30
0
70
32
0
SEQEND
8
0
0
POLYLINE
8
0
62
5
66
1
10
0
20
0
30
0
70
8
0
VERTEX
8
0
62
5
10
0.0042544316
20
0.5550279
30
0
70
32
0
VERTEX
8
0
62
5
10
0.0042544316
20
0.64775226
30
0
70
32
0
SEQEND
8
0
0
POLYLINE
8
0
62
5
66
1
10
0
20
0
30
0
70
8
0
VERTEX
8
0
62
5
10
0.032538703
20
0.64775226
30
0
70
32
0
VERTEX
8
0
62
5
10
0.032538703
20
0.66430261
30
0
70
32
0
SEQEND
8
0
0
POLYLINE
8
0
62
5
66
1
10
0
20
0
30
0
70
8
0
VERTEX
8
0
62
5
10
0.14567579
20
0.66430261
30
0
70
32
0
VERTEX
8
0
62
5
10
0.14567579
20
0.64775226
30
0
70
32
0
SEQEND
8
0
0
POLYLINE
8
0
62
5
66
1
10
0
20
0
30
0
70
8
0
VERTEX
8
0
62
5
10
0.032538703
20
0.6518501
30
0
70
32
0
VERTEX
8
0
62
5
10
0.060822974
20
0.64775245
30
0
70
32
0
VERTEX
8
0
62
5
10
0.089107245
20
0.65192979
30
0
70
32
0
VERTEX
8
0
62
5
10
0.11739152
20
0.65602744
30
0
70
32
0
VERTEX
8
0
62
5
10
0.14567579
20
0.6518501
30
0
70
32
0
SEQEND
8
0
0
POLYLINE
8
0
62
5
66
1
10
0
20
0
30
0
70
8
0
SEQEND
8
0
0
POLYLINE
8
0
62
30
66
1
10
0
20
0
30
0
70
8
0
VERTEX
8
0
62
30
10
0.032538703
20
0.65602744
30
0
70
32
0
VERTEX
8
0
62
30
10
0.14567579
20
0.65602744
30
0
70
32
0
SEQEND
8
0
0
POLYLINE
8
0
62
30
66
1
10
0
20
0
30
0
70
8
0
VERTEX
8
0
62
30
10
0.060822974
20
0.64775245
30
0
70
32
0
VERTEX
8
0
62
30
10
0.060822974
20
0.65602744
30
0
70
32
0
SEQEND
8
0
0
POLYLINE
8
0
62
30
66
1
10
0
20
0
30
0
70
8
0
VERTEX
8
0
62
30
10
0.089107245
20
0.65192979
30
0
70
32
0
VERTEX
8
0
62
30
10
0.089107245
20
0.65602744
30
0
70
32
0
SEQEND
8
0
0
POLYLINE
8
0
62
30
66
1
10
0
20
0
30
0
70
8
0
VERTEX
8
0
62
30
10
0.11739152
20
0.65602744
30
0
70
32
0
VERTEX
8
0
62
30
10
0.11739152
20
0.65602744
30
0
70
32
0
SEQEND
8
0
0
POLYLINE
8
0
62
5
66
1
10
0
20
0
30
0
70
8
0
VERTEX
8
0
62
5
10
0.060822974
20
0.64775226
30
0
70
32
0
VERTEX
8
0
62
5
10
0.060822974
20
0.64775245
30
0
70
32
0
SEQEND
8
0
0
POLYLINE
8
0
62
5
66
1
10
0
20
0
30
0
70
8
0
VERTEX
8
0
62
5
10
0.089107245
20
0.64775226
30
0
70
32
0
VERTEX
8
0
62
5
10
0.089107245
20
0.65192979
30
0
70
32
0
SEQEND
8
0
0
POLYLINE
8
0
62
5
66
1
10
0
20
0
30
0
70
8
0
VERTEX
8
0
62
5
10
0.11739152
20
0.64775226
30
0
70
32
0
VERTEX
8
0
62
5
10
0.11739152
20
0.65602744
30
0
70
32
0
SEQEND
8
0
0
POLYLINE
8
0
62
5
66
1
10
0
20
0
30
0
70
8
0
VERTEX
8
0
62
5
10
0.060822974
20
0.65602744
30
0
70
32
0
VERTEX
8
0
62
5
10
0.060822974
20
0.66430261
30
0
70
32
0
SEQEND
8
0
0
POLYLINE
8
0
62
5
66
1
10
0
20
0
30
0
70
8
0
VERTEX
8
0
62
5
10
0.089107245
20
0.65602744
30
0
70
32
0
VERTEX
8
0
62
5
10
0.089107245
20
0.66430261
30
0
70
32
0
SEQEND
8
0
0
POLYLINE
8
0
62
5
66
1
10
0
20
0
30
0
70
8
0
VERTEX
8
0
62
5
10
0.11739152
20
0.65602744
30
0
70
32
0
VERTEX
8
0
62
5
10
0.11739152
20
0.66430261
30
0
70
32
0
SEQEND
8
0
0
POLYLINE
8
0
62
30
66
1
10
0
20
0
30
0
70
8
0
VERTEX
8
0
62
30
10
0.032538703
20
0.6518501
30
0
70
32
0
VERTEX
8
0
62
30
10
0.036618154
20
0.65602744
30
0
70
32
0
SEQEND
8
0
0
POLYLINE
8
0
62
30
66
1
10
0
20
0
30
0
70
8
0
VERTEX
8
0
62
30
10
0.060822974
20
0.64775245
30
0
70
32
0
VERTEX
8
0
62
30
10
0.067121766
20
0.65602744
30
0
70
32
0
SEQEND
8
0
0
POLYLINE
8
0
62
30
66
1
10
0
20
0
30
0
70
8
0
VERTEX
8
0
62
30
10
0.089107245
20
0.65192979
30
0
70
32
0
VERTEX
8
0
62
30
10
0.093131022
20
0.65602744
30
0
70
32
0
SEQEND
8
0
0
POLYLINE
8
0
62
30
66
1
10
0
20
0
30
0
70
8
0
VERTEX
8
0
62
30
10
0.11739152
20
0.65602744
30
0
70
32
0
VERTEX
8
0
62
30
10
0.11739152
20
0.65602744
30
0
70
32
0
SEQEND
8
0
0
POLYLINE
8
0
62
5
66
1
10
0
20
0
30
0
70
8
0
VERTEX
8
0
62
5
10
0.25881287
20
0.66430261
30
0
70
32
0
VERTEX
8
0
62
5
10
0.25881287
20
0.64775226
30
0
70
32
0
SEQEND
8
0
0
POLYLINE
8
0
62
5
66
1
10
0
20
0
30
0
70
8
0
VERTEX
8
0
62
5
10
0.14567579
20
0.6518501
30
0
70
32
0
VERTEX
8
0
62
5
10
0.17396006
20
0.64775245
30
0
70
32
0
VERTEX
8
0
62
5
10
0.20224433
20
0.65192979
30
0
70
32
0
VERTEX
8
0
62
5
10
0.2305286
20
0.65602744
30
0
70
32
0
VERTEX
8
0
62
5
10
0.25881287
20
0.6518501
30
0
70
32
0
SEQEND
8
0
0
POLYLINE
8
0
62
5
66
1
10
0
20
0
30
0
70
8
0
SEQEND
8
0
0
POLYLINE
8
0
62
30
66
1
10
0
20
0
30
0
70
8
0
VERTEX
8
0
62
30
10
0.14567579
20
0.65602744
30
0
70
32
0
VERTEX
8
0
62
30
10
0.25881287
20
0.65602744
30
0
70
32
0
SEQEND
8
0
0
POLYLINE
8
0
62
30
66
1
10
0
20
0
30
0
70
8
0
VERTEX
8
0
62
30
10
0.17396006
20
0.64775245
30
0
70
32
0
VERTEX
8
0
62
30
10
0.17396006
20
0.65602744
30
0
70
32
0
SEQEND
8
0
0
POLYLINE
8
0
62
30
66
1
10
0
20
0
30
0
70
8
0
VERTEX
8
0
62
30
10
0.20224433
20
0.65192979
30
0
70
32
0
VERTEX
8
0
62
30
10
0.20224433
20
0.65602744
30
0
70
32
0
SEQEND
8
0
0
POLYLINE
8
0
62
30
66
1
10
0
20
0
30
0
70
8
0
VERTEX
8
0
62
30
10
0.2305286
20
0.65602744
30
0
70
32
0
VERTEX
8
0
62
30
10
0.2305286
20
0.65602744
30
0
70
32
0
SEQEND
8
0
0
POLYLINE
8
0
62
5
66
1
10
0
20
0
30
0
70
8
0
VERTEX
8
0
62
5
10
0.17396006
20
0.64775226
30
0
70
32
0
VERTEX
8
0
62
5
10
0.17396006
20
0.64775245
30
0
70
32
0
SEQEND
8
0
0
POLYLINE
8
0
62
5
66
1
10
0
20
0
30
0
70
8
0
VERTEX
8
0
62
5
10
0.20224433
20
0.64775226
30
0
70
32
0
VERTEX
8
0
62
5
10
0.20224433
20
0.65192979
30
0
70
32
0
SEQEND
8
0
0
POLYLINE
8
0
62
5
66
1
10
0
20
0
30
0
70
8
0
VERTEX
8
0
62
5
10
0.2305286
20
0.64775226
30
0
70
32
0
VERTEX
8
0
62
5
10
0.2305286
20
0.65602744
30
0
70
32
0
SEQEND
8
0
0
POLYLINE
8
0
62
5
66
1
10
0
20
0
30
0
70
8
0
VERTEX
8
0
62
5
10
0.17396006
20
0.65602744
30
0
70
32
0
VERTEX
8
0
62
5
10
0.17396006
20
0.66430261
30
0
70
32
0
SEQEND
8
0
0
POLYLINE
8
0
62
5
66
1
10
0
20
0
30
0
70
8
0
VERTEX
8
0
62
5
10
0.20224433
20
0.65602744
30
0
70
32
0
VERTEX
8
0
62
5
10
0.20224433
20
0.66430261
30
0
70
32
0
SEQEND
8
0
0
POLYLINE
8
0
62
5
66
1
10
0
20
0
30
0
70
8
0
VERTEX
8
0
62
5
10
0.2305286
20
0.65602744
30
0
70
32
0
VERTEX
8
0
62
5
10
0.2305286
20
0.66430261
30
0
70
32
0
SEQEND
8
0
0
POLYLINE
8
0
62
30
66
1
10
0
20
0
30
0
70
8
0
VERTEX
8
0
62
30
10
0.14567579
20
0.6518501
30
0
70
32
0
VERTEX
8
0
62
30
10
0.14975524
20
0.65602744
30
0
70
32
0
SEQEND
8
0
0
POLYLINE
8
0
62
30
66
1
10
0
20
0
30
0
70
8
0
VERTEX
8
0
62
30
10
0.17396006
20
0.64775245
30
0
70
32
0
VERTEX
8
0
62
30
10
0.18025885
20
0.65602744
30
0
70
32
0
SEQEND
8
0
0
POLYLINE
8
0
62
30
66
1
10
0
20
0
30
0
70
8
0
VERTEX
8
0
62
30
10
0.20224433
20
0.65192979
30
0
70
32
0
VERTEX
8
0
62
30
10
0.20626811
20
0.65602744
30
0
70
32
0
SEQEND
8
0
0
POLYLINE
8
0
62
30
66
1
10
0
20
0
30
0
70
8
0
VERTEX
8
0
62
30
10
0.2305286
20
0.65602744
30
0
70
32
0
VERTEX
8
0
62
30
10
0.2305286
20
0.65602744
30
0
70
32
0
SEQEND
8
0
0
POLYLINE
8
0
62
5
66
1
10
0
20
0
30
0
70
8
0
VERTEX
8
0
62
5
10
-0.080598382
20
0.64775226
30
0
70
32
0
VERTEX
8
0
62
5
10
-0.080598382
20
0.66430261
30
0
70
32
0
SEQEND
8
0
0
POLYLINE
8
0
62
5
66
1
10
0
20
0
30
0
70
8
0
VERTEX
8
0
62
5
10
-0.080598382
20
0.6518501
30
0
70
32
0
VERTEX
8
0
62
5
10
-0.052314111
20
0.64775245
30
0
70
32
0
VERTEX
8
0
62
5
10
-0.02402984
20
0.65192979
30
0
70
32
0
VERTEX
8
0
62
5
10
0.0042544316
20
0.65602744
30
0
70
32
0
VERTEX
8
0
62
5
10
0.032538703
20
0.6518501
30
0
70
32
0
SEQEND
8
0
0
POLYLINE
8
0
62
5
66
1
10
0
20
0
30
0
70
8
0
SEQEND
8
0
0
POLYLINE
8
0
62
30
66
1
10
0
20
0
30
0
70
8
0
VERTEX
8
0
62
30
10
-0.080598382
20
0.65602744
30
0
70
32
0
VERTEX
8
0
62
30
10
0.032538703
20
0.65602744
30
0
70
32
0
SEQEND
8
0
0
POLYLINE
8
0
62
30
66
1
10
0
20
0
30
0
70
8
0
VERTEX
8
0
62
30
10
-0.052314111
20
0.64775245
30
0
70
32
0
VERTEX
8
0
62
30
10
-0.052314111
20
0.65602744
30
0
70
32
0
SEQEND
8
0
0
POLYLINE
8
0
62
30
66
1
10
0
20
0
30
0
70
8
0
VERTEX
8
0
62
30
10
-0.02402984
20
0.65192979
30
0
70
32
0
VERTEX
8
0
62
30
10
-0.02402984
20
0.65602744
30
0
70
32
0
SEQEND
8
0
0
POLYLINE
8
0
62
30
66
1
10
0
20
0
30
0
70
8
0
VERTEX
8
0
62
30
10
0.0042544316
20
0.65602744
30
0
70
32
0
VERTEX
8
0
62
30
10
0.0042544316
20
0.65602744
30
0
70
32
0
SEQEND
8
0
0
POLYLINE
8
0
62
5
66
1
10
0
20
0
30
0
70
8
0
VERTEX
8
0
62
5
10
-0.052314111
20
0.64775226
30
0
70
32
0
VERTEX
8
0
62
5
10
-0.052314111
20
0.64775245
30
0
70
32
0
SEQEND
8
0
0
POLYLINE
8
0
62
5
66
1
10
0
20
0
30
0
70
8
0
VERTEX
8
0
62
5
10
-0.02402984
20
0.64775226
30
0
70
32
0
VERTEX
8
0
62
5
10
-0.02402984
20
0.65192979
30
0
70
32
0
SEQEND
8
0
0
POLYLINE
8
0
62
5
66
1
10
0
20
0
30
0
70
8
0
VERTEX
8
0
62
5
10
0.0042544316
20
0.64775226
30
0
70
32
0
VERTEX
8
0
62
5
10
0.0042544316
20
0.65602744
30
0
70
32
0
SEQEND
8
0
0
POLYLINE
8
0
62
5
66
1
10
0
20
0
30
0
70
8
0
VERTEX
8
0
62
5
10
-0.052314111
20
0.65602744
30
0
70
32
0
VERTEX
8
0
62
5
10
-0.052314111
20
0.66430261
30
0
70
32
0
SEQEND
8
0
0
POLYLINE
8
0
62
5
66
1
10
0
20
0
30
0
70
8
0
VERTEX
8
0
62
5
10
-0.02402984
20
0.65602744
30
0
70
32
0
VERTEX
8
0
62
5
10
-0.02402984
20
0.66430261
30
0
70
32
0
SEQEND
8
0
0
POLYLINE
8
0
62
5
66
1
10
0
20
0
30
0
70
8
0
VERTEX
8
0
62
5
10
0.0042544316
20
0.65602744
30
0
70
32
0
VERTEX
8
0
62
5
10
0.0042544316
20
0.66430261
30
0
70
32
0
SEQEND
8
0
0
POLYLINE
8
0
62
30
66
1
10
0
20
0
30
0
70
8
0
VERTEX
8
0
62
30
10
-0.080598382
20
0.6518501
30
0
70
32
0
VERTEX
8
0
62
30
10
-0.076518931
20
0.65602744
30
0
70
32
0
SEQEND
8
0
0
POLYLINE
8
0
62
30
66
1
10
0
20
0
30
0
70
8
0
VERTEX
8
0
62
30
10
-0.052314111
20
0.64775245
30
0
70
32
0
VERTEX
8
0
62
30
10
-0.046015319
20
0.65602744
30
0
70
32
0
SEQEND
8
0
0
POLYLINE
8
0
62
30
66
1
10
0
20
0
30
0
70
8
0
VERTEX
8
0
62
30
10
-0.02402984
20
0.65192979
30
0
70
32
0
VERTEX
8
0
62
30
10
-0.020006063
20
0.65602744
30
0
70
32
0
SEQEND
8
0
0
POLYLINE
8
0
62
30
66
1
10
0
20
0
30
0
70
8
0
VERTEX
8
0
62
30
10
0.0042544316
20
0.65602744
30
0
70
32
0
VERTEX
8
0
62
30
10
0.0042544316
20
0.65602744
30
0
70
32
0
SEQEND
8
0
0
POLYLINE
8
0
62
5
66
1
10
0
20
0
30
0
70
8
0
VERTEX
8
0
62
5
10
0.032538703
20
0.66430261
30
0
70
32
0
VERTEX
8
0
62
5
10
0.032538703
20
0.70430261
30
0
70
32
0
SEQEND
8
0
0
POLYLINE
8
0
62
5
66
1
10
0
20
0
30
0
70
8
0
VERTEX
8
0
62
5
10
0.14567579
20
0.70430261
30
0
70
32
0
VERTEX
8
0
62
5
10
0.14567579
20
0.66430261
30
0
70
32
0
SEQEND
8
0
0
POLYLINE
8
0
62
5
66
1
10
0
20
0
30
0
70
8
0
VERTEX
8
0
62
5
10
0.032538703
20
0.66430261
30
0
70
32
0
VERTEX
8
0
62
5
10
0.14567579
20
0.66430261
30
0
70
32
0
SEQEND
8
0
0
POLYLINE
8
0
62
5
66
1
10
0
20
0
30
0
70
8
0
VERTEX
8
0
62
5
10
0.032538703
20
0.70430261
30
0
70
32
0
VERTEX
8
0
62
5
10
0.14567579
20
0.70430261
30
0
70
32
0
SEQEND
8
0
0
POLYLINE
8
0
62
5
66
1
10
0
20
0
30
0
70
8
0
VERTEX
8
0
62
5
10
0.060822974
20
0.66430261
30
0
70
32
0
VERTEX
8
0
62
5
10
0.060822974
20
0.66430261
30
0
70
32
0
SEQEND
8
0
0
POLYLINE
8
0
62
5
66
1
10
0
20
0
30
0
70
8
0
VERTEX
8
0
62
5
10
0.089107245
20
0.66430261
30
0
70
32
0
VERTEX
8
0
62
5
10
0.089107245
20
0.66430261
30
0
70
32
0
SEQEND
8
0
0
POLYLINE
8
0
62
5
66
1
10
0
20
0
30
0
70
8
0
VERTEX
8
0
62
5
10
0.11739152
20
0.66430261
30
0
70
32
0
VERTEX
8
0
62
5
10
0.11739152
20
0.66430261
30
0
70
32
0
SEQEND
8
0
0
POLYLINE
8
0
62
5
66
1
10
0
20
0
30
0
70
8
0
VERTEX
8
0
62
5
10
0.060822974
20
0.70430261
30
0
70
32
0
VERTEX
8
0
62
5
10
0.060822974
20
0.70430261
30
0
70
32
0
SEQEND
8
0
0
POLYLINE
8
0
62
5
66
1
10
0
20
0
30
0
70
8
0
VERTEX
8
0
62
5
10
0.089107245
20
0.70430261
30
0
70
32
0
VERTEX
8
0
62
5
10
0.089107245
20
0.70430261
30
0
70
32
0
SEQEND
8
0
0
POLYLINE
8
0
62
5
66
1
10
0
20
0
30
0
70
8
0
VERTEX
8
0
62
5
10
0.11739152
20
0.70430261
30
0
70
32
0
VERTEX
8
0
62
5
10
0.11739152
20
0.70430261
30
0
70
32
0
SEQEND
8
0
0
POLYLINE
8
0
62
30
66
1
10
0
20
0
30
0
70
8
0
VERTEX
8
0
62
30
10
0.032538703
20
0.70430261
30
0
70
32
0
VERTEX
8
0
62
30
10
0.060822974
20
0.66430261
30
0
70
32
0
SEQEND
8
0
0
POLYLINE
8
0
62
30
66
1
10
0
20
0
30
0
70
8
0
VERTEX
8
0
62
30
10
0.060822974
20
0.70430261
30
0
70
32
0
VERTEX
8
0
62
30
10
0.032538703
20
0.66430261
30
0
70
32
0
SEQEND
8
0
0
POLYLINE
8
0
62
30
66
1
10
0
20
0
30
0
70
8
0
VERTEX
8
0
62
30
10
0.089107245
20
0.70430261
30
0
70
32
0
VERTEX
8
0
62
30
10
0.11739152
20
0.66430261
30
0
70
32
0
SEQEND
8
0
0
POLYLINE
8
0
62
30
66
1
10
0
20
0
30
0
70
8
0
VERTEX
8
0
62
30
10
0.11739152
20
0.70430261
30
0
70
32
0
VERTEX
8
0
62
30
10
0.089107245
20
0.66430261
30
0
70
32
0
SEQEND
8
0
0
POLYLINE
8
0
62
30
66
1
10
0
20
0
30
0
70
8
0
VERTEX
8
0
62
30
10
0.060822974
20
0.68430261
30
0
70
32
0
VERTEX
8
0
62
30
10
0.089107245
20
0.68430261
30
0
70
32
0
SEQEND
8
0
0
POLYLINE
8
0
62
30
66
1
10
0
20
0
30
0
70
8
0
VERTEX
8
0
62
30
10
0.11739152
20
0.68430261
30
0
70
32
0
VERTEX
8
0
62
30
10
0.14567579
20
0.68430261
30
0
70
32
0
SEQEND
8
0
0
POLYLINE
8
0
62
5
66
1
10
0
20
0
30
0
70
8
0
VERTEX
8
0
62
5
10
0.032538703
20
0.68430261
30
0
70
32
0
VERTEX
8
0
62
5
10
0.046680839
20
0.68430261
30
0
70
32
0
SEQEND
8
0
0
POLYLINE
8
0
62
5
66
1
10
0
20
0
30
0
70
8
0
VERTEX
8
0
62
5
10
0.089107245
20
0.68430261
30
0
70
32
0
VERTEX
8
0
62
5
10
0.10324938
20
0.68430261
30
0
70
32
0
SEQEND
8
0
0
POLYLINE
8
0
62
5
66
1
10
0
20
0
30
0
70
8
0
VERTEX
8
0
62
5
10
0.046680839
20
0.68430261
30
0
70
32
0
VERTEX
8
0
62
5
10
0.060822974
20
0.68430261
30
0
70
32
0
SEQEND
8
0
0
POLYLINE
8
0
62
5
66
1
10
0
20
0
30
0
70
8
0
VERTEX
8
0
62
5
10
0.10324938
20
0.68430261
30
0
70
32
0
VERTEX
8
0
62
5
10
0.11739152
20
0.68430261
30
0
70
32
0
SEQEND
8
0
0
POLYLINE
8
0
62
5
66
1
10
0
20
0
30
0
70
8
0
VERTEX
8
0
62
5
10
0.060822974
20
0.66430261
30
0
70
32
0
VERTEX
8
0
62
5
10
0.060822974
20
0.70430261
30
0
70
32
0
SEQEND
8
0
0
POLYLINE
8
0
62
5
66
1
10
0
20
0
30
0
70
8
0
VERTEX
8
0
62
5
10
0.089107245
20
0.66430261
30
0
70
32
0
VERTEX
8
0
62
5
10
0.089107245
20
0.70430261
30
0
70
32
0
SEQEND
8
0
0
POLYLINE
8
0
62
5
66
1
10
0
20
0
30
0
70
8
0
VERTEX
8
0
62
5
10
0.11739152
20
0.66430261
30
0
70
32
0
VERTEX
8
0
62
5
10
0.11739152
20
0.70430261
30
0
70
32
0
SEQEND
8
0
0
POLYLINE
8
0
62
5
66
1
10
0
20
0
30
0
70
8
0
VERTEX
8
0
62
5
10
0.032538703
20
0.66430261
30
0
70
32
0
VERTEX
8
0
62
5
10
0.032538703
20
0.70430261
30
0
70
32
0
SEQEND
8
0
0
POLYLINE
8
0
62
5
66
1
10
0
20
0
30
0
70
8
0
VERTEX
8
0
62
5
10
0.25881287
20
0.70430261
30
0
70
32
0
VERTEX
8
0
62
5
10
0.25881287
20
0.66430261
30
0
70
32
0
SEQEND
8
0
0
POLYLINE
8
0
62
5
66
1
10
0
20
0
30
0
70
8
0
VERTEX
8
0
62
5
10
0.14567579
20
0.66430261
30
0
70
32
0
VERTEX
8
0
62
5
10
0.25881287
20
0.66430261
30
0
70
32
0
SEQEND
8
0
0
POLYLINE
8
0
62
5
66
1
10
0
20
0
30
0
70
8
0
VERTEX
8
0
62
5
10
0.14567579
20
0.70430261
30
0
70
32
0
VERTEX
8
0
62
5
10
0.25881287
20
0.70430261
30
0
70
32
0
SEQEND
8
0
0
POLYLINE
8
0
62
5
66
1
10
0
20
0
30
0
70
8
0
VERTEX
8
0
62
5
10
0.17396006
20
0.66430261
30
0
70
32
0
VERTEX
8
0
62
5
10
0.17396006
20
0.66430261
30
0
70
32
0
SEQEND
8
0
0
POLYLINE
8
0
62
5
66
1
10
0
20
0
30
0
70
8
0
VERTEX
8
0
62
5
10
0.20224433
20
0.66430261
30
0
70
32
0
VERTEX
8
0
62
5
10
0.20224433
20
0.66430261
30
0
70
32
0
SEQEND
8
0
0
POLYLINE
8
0
62
5
66
1
10
0
20
0
30
0
70
8
0
VERTEX
8
0
62
5
10
0.2305286
20
0.66430261
30
0
70
32
0
VERTEX
8
0
62
5
10
0.2305286
20
0.66430261
30
0
70
32
0
SEQEND
8
0
0
POLYLINE
8
0
62
5
66
1
10
0
20
0
30
0
70
8
0
VERTEX
8
0
62
5
10
0.17396006
20
0.70430261
30
0
70
32
0
VERTEX
8
0
62
5
10
0.17396006
20
0.70430261
30
0
70
32
0
SEQEND
8
0
0
POLYLINE
8
0
62
5
66
1
10
0
20
0
30
0
70
8
0
VERTEX
8
0
62
5
10
0.20224433
20
0.70430261
30
0
70
32
0
VERTEX
8
0
62
5
10
0.20224433
20
0.70430261
30
0
70
32
0
SEQEND
8
0
0
POLYLINE
8
0
62
5
66
1
10
0
20
0
30
0
70
8
0
VERTEX
8
0
62
5
10
0.2305286
20
0.70430261
30
0
70
32
0
VERTEX
8
0
62
5
10
0.2305286
20
0.70430261
30
0
70
32
0
SEQEND
8
0
0
POLYLINE
8
0
62
30
66
1
10
0
20
0
30
0
70
8
0
VERTEX
8
0
62
30
10
0.14567579
20
0.70430261
30
0
70
32
0
VERTEX
8
0
62
30
10
0.17396006
20
0.66430261
30
0
70
32
0
SEQEND
8
0
0
POLYLINE
8
0
62
30
66
1
10
0
20
0
30
0
70
8
0
VERTEX
8
0
62
30
10
0.17396006
20
0.70430261
30
0
70
32
0
VERTEX
8
0
62
30
10
0.14567579
20
0.66430261
30
0
70
32
0
SEQEND
8
0
0
POLYLINE
8
0
62
30
66
1
10
0
20
0
30
0
70
8
0
VERTEX
8
0
62
30
10
0.20224433
20
0.70430261
30
0
70
32
0
VERTEX
8
0
62
30
10
0.2305286
20
0.66430261
30
0
70
32
0
SEQEND
8
0
0
POLYLINE
8
0
62
30
66
1
10
0
20
0
30
0
70
8
0
VERTEX
8
0
62
30
10
0.2305286
20
0.70430261
30
0
70
32
0
VERTEX
8
0
62
30
10
0.20224433
20
0.66430261
30
0
70
32
0
SEQEND
8
0
0
POLYLINE
8
0
62
30
66
1
10
0
20
0
30
0
70
8
0
VERTEX
8
0
62
30
10
0.17396006
20
0.68430261
30
0
70
32
0
VERTEX
8
0
62
30
10
0.20224433
20
0.68430261
30
0
70
32
0
SEQEND
8
0
0
POLYLINE
8
0
62
30
66
1
10
0
20
0
30
0
70
8
0
VERTEX
8
0
62
30
10
0.2305286
20
0.68430261
30
0
70
32
0
VERTEX
8
0
62
30
10
0.25881287
20
0.68430261
30
0
70
32
0
SEQEND
8
0
0
POLYLINE
8
0
62
5
66
1
10
0
20
0
30
0
70
8
0
VERTEX
8
0
62
5
10
0.14567579
20
0.68430261
30
0
70
32
0
VERTEX
8
0
62
5
10
0.15981792
20
0.68430261
30
0
70
32
0
SEQEND
8
0
0
POLYLINE
8
0
62
5
66
1
10
0
20
0
30
0
70
8
0
VERTEX
8
0
62
5
10
0.20224433
20
0.68430261
30
0
70
32
0
VERTEX
8
0
62
5
10
0.21638647
20
0.68430261
30
0
70
32
0
SEQEND
8
0
0
POLYLINE
8
0
62
5
66
1
10
0
20
0
30
0
70
8
0
VERTEX
8
0
62
5
10
0.15981792
20
0.68430261
30
0
70
32
0
VERTEX
8
0
62
5
10
0.17396006
20
0.68430261
30
0
70
32
0
SEQEND
8
0
0
POLYLINE
8
0
62
5
66
1
10
0
20
0
30
0
70
8
0
VERTEX
8
0
62
5
10
0.21638647
20
0.68430261
30
0
70
32
0
VERTEX
8
0
62
5
10
0.2305286
20
0.68430261
30
0
70
32
0
SEQEND
8
0
0
POLYLINE
8
0
62
5
66
1
10
0
20
0
30
0
70
8
0
VERTEX
8
0
62
5
10
0.17396006
20
0.66430261
30
0
70
32
0
VERTEX
8
0
62
5
10
0.17396006
20
0.70430261
30
0
70
32
0
SEQEND
8
0
0
POLYLINE
8
0
62
5
66
1
10
0
20
0
30
0
70
8
0
VERTEX
8
0
62
5
10
0.20224433
20
0.66430261
30
0
70
32
0
VERTEX
8
0
62
5
10
0.20224433
20
0.70430261
30
0
70
32
0
SEQEND
8
0
0
POLYLINE
8
0
62
5
66
1
10
0
20
0
30
0
70
8
0
VERTEX
8
0
62
5
10
0.2305286
20
0.66430261
30
0
70
32
0
VERTEX
8
0
62
5
10
0.2305286
20
0.70430261
30
0
70
32
0
SEQEND
8
0
0
POLYLINE
8
0
62
5
66
1
10
0
20
0
30
0
70
8
0
VERTEX
8
0
62
5
10
0.14567579
20
0.66430261
30
0
70
32
0
VERTEX
8
0
62
5
10
0.14567579
20
0.70430261
30
0
70
32
0
SEQEND
8
0
0
POLYLINE
8
0
62
5
66
1
10
0
20
0
30
0
70
8
0
VERTEX
8
0
62
5
10
-0.080598382
20
0.66430261
30
0
70
32
0
VERTEX
8
0
62
5
10
-0.080598382
20
0.70430261
30
0
70
32
0
SEQEND
8
0
0
POLYLINE
8
0
62
5
66
1
10
0
20
0
30
0
70
8
0
VERTEX
8
0
62
5
10
-0.080598382
20
0.66430261
30
0
70
32
0
VERTEX
8
0
62
5
10
0.032538703
20
0.66430261
30
0
70
32
0
SEQEND
8
0
0
POLYLINE
8
0
62
5
66
1
10
0
20
0
30
0
70
8
0
VERTEX
8
0
62
5
10
-0.080598382
20
0.70430261
30
0
70
32
0
VERTEX
8
0
62
5
10
0.032538703
20
0.70430261
30
0
70
32
0
SEQEND
8
0
0
POLYLINE
8
0
62
5
66
1
10
0
20
0
30
0
70
8
0
VERTEX
8
0
62
5
10
-0.052314111
20
0.66430261
30
0
70
32
0
VERTEX
8
0
62
5
10
-0.052314111
20
0.66430261
30
0
70
32
0
SEQEND
8
0
0
POLYLINE
8
0
62
5
66
1
10
0
20
0
30
0
70
8
0
VERTEX
8
0
62
5
10
-0.02402984
20
0.66430261
30
0
70
32
0
VERTEX
8
0
62
5
10
-0.02402984
20
0.66430261
30
0
70
32
0
SEQEND
8
0
0
POLYLINE
8
0
62
5
66
1
10
0
20
0
30
0
70
8
0
VERTEX
8
0
62
5
10
0.0042544316
20
0.66430261
30
0
70
32
0
VERTEX
8
0
62
5
10
0.0042544316
20
0.66430261
30
0
70
32
0
SEQEND
8
0
0
POLYLINE
8
0
62
5
66
1
10
0
20
0
30
0
70
8
0
VERTEX
8
0
62
5
10
-0.052314111
20
0.70430261
30
0
70
32
0
VERTEX
8
0
62
5
10
-0.052314111
20
0.70430261
30
0
70
32
0
SEQEND
8
0
0
POLYLINE
8
0
62
5
66
1
10
0
20
0
30
0
70
8
0
VERTEX
8
0
62
5
10
-0.02402984
20
0.70430261
30
0
70
32
0
VERTEX
8
0
62
5
10
-0.02402984
20
0.70430261
30
0
70
32
0
SEQEND
8
0
0
POLYLINE
8
0
62
5
66
1
10
0
20
0
30
0
70
8
0
VERTEX
8
0
62
5
10
0.0042544316
20
0.70430261
30
0
70
32
0
VERTEX
8
0
62
5
10
0.0042544316
20
0.70430261
30
0
70
32
0
SEQEND
8
0
0
POLYLINE
8
0
62
30
66
1
10
0
20
0
30
0
70
8
0
VERTEX
8
0
62
30
10
-0.080598382
20
0.70430261
30
0
70
32
0
VERTEX
8
0
62
30
10
-0.052314111
20
0.66430261
30
0
70
32
0
SEQEND
8
0
0
POLYLINE
8
0
62
30
66
1
10
0
20
0
30
0
70
8
0
VERTEX
8
0
62
30
10
-0.052314111
20
0.70430261
30
0
70
32
0
VERTEX
8
0
62
30
10
-0.080598382
20
0.66430261
30
0
70
32
0
SEQEND
8
0
0
POLYLINE
8
0
62
30
66
1
10
0
20
0
30
0
70
8
0
VERTEX
8
0
62
30
10
-0.02402984
20
0.70430261
30
0
70
32
0
VERTEX
8
0
62
30
10
0.0042544316
20
0.66430261
30
0
70
32
0
SEQEND
8
0
0
POLYLINE
8
0
62
30
66
1
10
0
20
0
30
0
70
8
0
VERTEX
8
0
62
30
10
0.0042544316
20
0.70430261
30
0
70
32
0
VERTEX
8
0
62
30
10
-0.02402984
20
0.66430261
30
0
70
32
0
SEQEND
8
0
0
POLYLINE
8
0
62
30
66
1
10
0
20
0
30
0
70
8
0
VERTEX
8
0
62
30
10
-0.052314111
20
0.68430261
30
0
70
32
0
VERTEX
8
0
62
30
10
-0.02402984
20
0.68430261
30
0
70
32
0
SEQEND
8
0
0
POLYLINE
8
0
62
30
66
1
10
0
20
0
30
0
70
8
0
VERTEX
8
0
62
30
10
0.0042544316
20
0.68430261
30
0
70
32
0
VERTEX
8
0
62
30
10
0.032538703
20
0.68430261
30
0
70
32
0
SEQEND
8
0
0
POLYLINE
8
0
62
5
66
1
10
0
20
0
30
0
70
8
0
VERTEX
8
0
62
5
10
-0.080598382
20
0.68430261
30
0
70
32
0
VERTEX
8
0
62
5
10
-0.066456246
20
0.68430261
30
0
70
32
0
SEQEND
8
0
0
POLYLINE
8
0
62
5
66
1
10
0
20
0
30
0
70
8
0
VERTEX
8
0
62
5
10
-0.02402984
20
0.68430261
30
0
70
32
0
VERTEX
8
0
62
5
10
-0.009887704
20
0.68430261
30
0
70
32
0
SEQEND
8
0
0
POLYLINE
8
0
62
5
66
1
10
0
20
0
30
0
70
8
0
VERTEX
8
0
62
5
10
-0.066456246
20
0.68430261
30
0
70
32
0
VERTEX
8
0
62
5
10
-0.052314111
20
0.68430261
30
0
70
32
0
SEQEND
8
0
0
POLYLINE
8
0
62
5
66
1
10
0
20
0
30
0
70
8
0
VERTEX
8
0
62
5
10
-0.009887704
20
0.68430261
30
0
70
32
0
VERTEX
8
0
62
5
10
0.0042544316
20
0.68430261
30
0
70
32
0
SEQEND
8
0
0
POLYLINE
8
0
62
5
66
1
10
0
20
0
30
0
70
8
0
VERTEX
8
0
62
5
10
-0.052314111
20
0.66430261
30
0
70
32
0
VERTEX
8
0
62
5
10
-0.052314111
20
0.70430261
30
0
70
32
0
SEQEND
8
0
0
POLYLINE
8
0
62
5
66
1
10
0
20
0
30
0
70
8
0
VERTEX
8
0
62
5
10
-0.02402984
20
0.66430261
30
0
70
32
0
VERTEX
8
0
62
5
10
-0.02402984
20
0.70430261
30
0
70
32
0
SEQEND
8
0
0
POLYLINE
8
0
62
5
66
1
10
0
20
0
30
0
70
8
0
VERTEX
8
0
62
5
10
0.0042544316
20
0.66430261
30
0
70
32
0
VERTEX
8
0
62
5
10
0.0042544316
20
0.70430261
30
0
70
32
0
SEQEND
8
0
0
POLYLINE
8
0
62
5
66
1
10
0
20
0
30
0
70
8
0
VERTEX
8
0
62
5
10
-0.080598382
20
0.66430261
30
0
70
32
0
VERTEX
8
0
62
5
10
-0.080598382
20
0.70430261
30
0
70
32
0
SEQEND
8
0
0
POLYLINE
8
0
62
5
66
1
10
0
20
0
30
0
70
8
0
VERTEX
8
0
62
5
10
0.032538703
20
0.70430261
30
0
70
32
0
VERTEX
8
0
62
5
10
0.032538703
20
0.79282744
30
0
70
32
0
SEQEND
8
0
0
POLYLINE
8
0
62
5
66
1
10
0
20
0
30
0
70
8
0
VERTEX
8
0
62
5
10
0.14567579
20
0.79282744
30
0
70
32
0
VERTEX
8
0
62
5
10
0.14567579
20
0.70430261
30
0
70
32
0
SEQEND
8
0
0
POLYLINE
8
0
62
5
66
1
10
0
20
0
30
0
70
8
0
VERTEX
8
0
62
5
10
0.032538703
20
0.71897223
30
0
70
32
0
VERTEX
8
0
62
5
10
0.060822974
20
0.70480982
30
0
70
32
0
VERTEX
8
0
62
5
10
0.089107245
20
0.7122714
30
0
70
32
0
VERTEX
8
0
62
5
10
0.11739152
20
0.72643382
30
0
70
32
0
VERTEX
8
0
62
5
10
0.14567579
20
0.71897223
30
0
70
32
0
SEQEND
8
0
0
POLYLINE
8
0
62
5
66
1
10
0
20
0
30
0
70
8
0
VERTEX
8
0
62
5
10
0.032538703
20
0.76323465
30
0
70
32
0
VERTEX
8
0
62
5
10
0.060822974
20
0.74907224
30
0
70
32
0
VERTEX
8
0
62
5
10
0.089107245
20
0.75653382
30
0
70
32
0
VERTEX
8
0
62
5
10
0.11739152
20
0.77069623
30
0
70
32
0
VERTEX
8
0
62
5
10
0.14567579
20
0.76323465
30
0
70
32
0
SEQEND
8
0
0
POLYLINE
8
0
62
30
66
1
10
0
20
0
30
0
70
8
0
VERTEX
8
0
62
30
10
0.032538703
20
0.72643382
30
0
70
32
0
VERTEX
8
0
62
30
10
0.14567579
20
0.72643382
30
0
70
32
0
SEQEND
8
0
0
POLYLINE
8
0
62
30
66
1
10
0
20
0
30
0
70
8
0
VERTEX
8
0
62
30
10
0.032538703
20
0.77069623
30
0
70
32
0
VERTEX
8
0
62
30
10
0.14567579
20
0.77069623
30
0
70
32
0
SEQEND
8
0
0
POLYLINE
8
0
62
30
66
1
10
0
20
0
30
0
70
8
0
VERTEX
8
0
62
30
10
0.060822974
20
0.70480982
30
0
70
32
0
VERTEX
8
0
62
30
10
0.060822974
20
0.72643382
30
0
70
32
0
SEQEND
8
0
0
POLYLINE
8
0
62
30
66
1
10
0
20
0
30
0
70
8
0
VERTEX
8
0
62
30
10
0.089107245
20
0.7122714
30
0
70
32
0
VERTEX
8
0
62
30
10
0.089107245
20
0.72643382
30
0
70
32
0
SEQEND
8
0
0
POLYLINE
8
0
62
30
66
1
10
0
20
0
30
0
70
8
0
VERTEX
8
0
62
30
10
0.11739152
20
0.72643382
30
0
70
32
0
VERTEX
8
0
62
30
10
0.11739152
20
0.72643382
30
0
70
32
0
SEQEND
8
0
0
POLYLINE
8
0
62
30
66
1
10
0
20
0
30
0
70
8
0
VERTEX
8
0
62
30
10
0.060822974
20
0.74907224
30
0
70
32
0
VERTEX
8
0
62
30
10
0.060822974
20
0.77069623
30
0
70
32
0
SEQEND
8
0
0
POLYLINE
8
0
62
30
66
1
10
0
20
0
30
0
70
8
0
VERTEX
8
0
62
30
10
0.089107245
20
0.75653382
30
0
70
32
0
VERTEX
8
0
62
30
10
0.089107245
20
0.77069623
30
0
70
32
0
SEQEND
8
0
0
POLYLINE
8
0
62
30
66
1
10
0
20
0
30
0
70
8
0
VERTEX
8
0
62
30
10
0.11739152
20
0.77069623
30
0
70
32
0
VERTEX
8
0
62
30
10
0.11739152
20
0.77069623
30
0
70
32
0
SEQEND
8
0
0
POLYLINE
8
0
62
5
66
1
10
0
20
0
30
0
70
8
0
VERTEX
8
0
62
5
10
0.060822974
20
0.70430261
30
0
70
32
0
VERTEX
8
0
62
5
10
0.060822974
20
0.70480982
30
0
70
32
0
SEQEND
8
0
0
POLYLINE
8
0
62
5
66
1
10
0
20
0
30
0
70
8
0
VERTEX
8
0
62
5
10
0.089107245
20
0.70430261
30
0
70
32
0
VERTEX
8
0
62
5
10
0.089107245
20
0.7122714
30
0
70
32
0
SEQEND
8
0
0
POLYLINE
8
0
62
5
66
1
10
0
20
0
30
0
70
8
0
VERTEX
8
0
62
5
10
0.11739152
20
0.70430261
30
0
70
32
0
VERTEX
8
0
62
5
10
0.11739152
20
0.72643382
30
0
70
32
0
SEQEND
8
0
0
POLYLINE
8
0
62
5
66
1
10
0
20
0
30
0
70
8
0
VERTEX
8
0
62
5
10
0.060822974
20
0.74856502
30
0
70
32
0
VERTEX
8
0
62
5
10
0.060822974
20
0.74907224
30
0
70
32
0
SEQEND
8
0
0
POLYLINE
8
0
62
5
66
1
10
0
20
0
30
0
70
8
0
VERTEX
8
0
62
5
10
0.089107245
20
0.74856502
30
0
70
32
0
VERTEX
8
0
62
5
10
0.089107245
20
0.75653382
30
0
70
32
0
SEQEND
8
0
0
POLYLINE
8
0
62
5
66
1
10
0
20
0
30
0
70
8
0
VERTEX
8
0
62
5
10
0.11739152
20
0.74856502
30
0
70
32
0
VERTEX
8
0
62
5
10
0.11739152
20
0.77069623
30
0
70
32
0
SEQEND
8
0
0
POLYLINE
8
0
62
5
66
1
10
0
20
0
30
0
70
8
0
VERTEX
8
0
62
5
10
0.060822974
20
0.72643382
30
0
70
32
0
VERTEX
8
0
62
5
10
0.060822974
20
0.74856502
30
0
70
32
0
SEQEND
8
0
0
POLYLINE
8
0
62
5
66
1
10
0
20
0
30
0
70
8
0
VERTEX
8
0
62
5
10
0.089107245
20
0.72643382
30
0
70
32
0
VERTEX
8
0
62
5
10
0.089107245
20
0.74856502
30
0
70
32
0
SEQEND
8
0
0
POLYLINE
8
0
62
5
66
1
10
0
20
0
30
0
70
8
0
VERTEX
8
0
62
5
10
0.11739152
20
0.72643382
30
0
70
32
0
VERTEX
8
0
62
5
10
0.11739152
20
0.74856502
30
0
70
32
0
SEQEND
8
0
0
POLYLINE
8
0
62
5
66
1
10
0
20
0
30
0
70
8
0
VERTEX
8
0
62
5
10
0.060822974
20
0.77069623
30
0
70
32
0
VERTEX
8
0
62
5
10
0.060822974
20
0.79282744
30
0
70
32
0
SEQEND
8
0
0
POLYLINE
8
0
62
5
66
1
10
0
20
0
30
0
70
8
0
VERTEX
8
0
62
5
10
0.089107245
20
0.77069623
30
0
70
32
0
VERTEX
8
0
62
5
10
0.089107245
20
0.79282744
30
0
70
32
0
SEQEND
8
0
0
POLYLINE
8
0
62
5
66
1
10
0
20
0
30
0
70
8
0
VERTEX
8
0
62
5
10
0.11739152
20
0.77069623
30
0
70
32
0
VERTEX
8
0
62
5
10
0.11739152
20
0.79282744
30
0
70
32
0
SEQEND
8
0
0
POLYLINE
8
0
62
30
66
1
10
0
20
0
30
0
70
8
0
VERTEX
8
0
62
30
10
0.032538703
20
0.71897223
30
0
70
32
0
VERTEX
8
0
62
30
10
0.040581653
20
0.72643382
30
0
70
32
0
SEQEND
8
0
0
POLYLINE
8
0
62
30
66
1
10
0
20
0
30
0
70
8
0
VERTEX
8
0
62
30
10
0.060822974
20
0.70480982
30
0
70
32
0
VERTEX
8
0
62
30
10
0.072356638
20
0.72643382
30
0
70
32
0
SEQEND
8
0
0
POLYLINE
8
0
62
30
66
1
10
0
20
0
30
0
70
8
0
VERTEX
8
0
62
30
10
0.089107245
20
0.7122714
30
0
70
32
0
VERTEX
8
0
62
30
10
0.09914512
20
0.72643382
30
0
70
32
0
SEQEND
8
0
0
POLYLINE
8
0
62
30
66
1
10
0
20
0
30
0
70
8
0
VERTEX
8
0
62
30
10
0.11739152
20
0.72643382
30
0
70
32
0
VERTEX
8
0
62
30
10
0.11739152
20
0.72643382
30
0
70
32
0
SEQEND
8
0
0
POLYLINE
8
0
62
30
66
1
10
0
20
0
30
0
70
8
0
VERTEX
8
0
62
30
10
0.032538703
20
0.76323465
30
0
70
32
0
VERTEX
8
0
62
30
10
0.040581653
20
0.77069623
30
0
70
32
0
SEQEND
8
0
0
POLYLINE
8
0
62
30
66
1
10
0
20
0
30
0
70
8
0
VERTEX
8
0
62
30
10
0.060822974
20
0.74907224
30
0
70
32
0
VERTEX
8
0
62
30
10
0.072356638
20
0.77069623
30
0
70
32
0
SEQEND
8
0
0
POLYLINE
8
0
62
30
66
1
10
0
20
0
30
0
70
8
0
VERTEX
8
0
62
30
10
0.089107245
20
0.75653382
30
0
70
32
0
VERTEX
8
0
62
30
10
0.09914512
20
0.77069623
30
0
70
32
0
SEQEND
8
0
0
POLYLINE
8
0
62
30
66
1
10
0
20
0
30
0
70
8
0
VERTEX
8
0
62
30
10
0.11739152
20
0.77069623
30
0
70
32
0
VERTEX
8
0
62
30
10
0.11739152
20
0.77069623
30
0
70
32
0
SEQEND
8
0
0
POLYLINE
8
0
62
5
66
1
10
0
20
0
30
0
70
8
0
VERTEX
8
0
62
5
10
0.25881287
20
0.79282744
30
0
70
32
0
VERTEX
8
0
62
5
10
0.25881287
20
0.70430261
30
0
70
32
0
SEQEND
8
0
0
POLYLINE
8
0
62
5
66
1
10
0
20
0
30
0
70
8
0
VERTEX
8
0
62
5
10
0.14567579
20
0.71897223
30
0
70
32
0
VERTEX
8
0
62
5
10
0.17396006
20
0.70480982
30
0
70
32
0
VERTEX
8
0
62
5
10
0.20224433
20
0.7122714
30
0
70
32
0
VERTEX
8
0
62
5
10
0.2305286
20
0.72643382
30
0
70
32
0
VERTEX
8
0
62
5
10
0.25881287
20
0.71897223
30
0
70
32
0
SEQEND
8
0
0
POLYLINE
8
0
62
5
66
1
10
0
20
0
30
0
70
8
0
VERTEX
8
0
62
5
10
0.14567579
20
0.76323465
30
0
70
32
0
VERTEX
8
0
62
5
10
0.17396006
20
0.74907224
30
0
70
32
0
VERTEX
8
0
62
5
10
0.20224433
20
0.75653382
30
0
70
32
0
VERTEX
8
0
62
5
10
0.2305286
20
0.77069623
30
0
70
32
0
VERTEX
8
0
62
5
10
0.25881287
20
0.76323465
30
0
70
32
0
SEQEND
8
0
0
POLYLINE
8
0
62
30
66
1
10
0
20
0
30
0
70
8
0
VERTEX
8
0
62
30
10
0.14567579
20
0.72643382
30
0
70
32
0
VERTEX
8
0
62
30
10
0.25881287
20
0.72643382
30
0
70
32
0
SEQEND
8
0
0
POLYLINE
8
0
62
30
66
1
10
0
20
0
30
0
70
8
0
VERTEX
8
0
62
30
10
0.14567579
20
0.77069623
30
0
70
32
0
VERTEX
8
0
62
30
10
0.25881287
20
0.77069623
30
0
70
32
0
SEQEND
8
0
0
POLYLINE
8
0
62
30
66
1
10
0
20
0
30
0
70
8
0
VERTEX
8
0
62
30
10
0.17396006
20
0.70480982
30
0
70
32
0
VERTEX
8
0
62
30
10
0.17396006
20
0.72643382
30
0
70
32
0
SEQEND
8
0
0
POLYLINE
8
0
62
30
66
1
10
0
20
0
30
0
70
8
0
VERTEX
8
0
62
30
10
0.20224433
20
0.7122714
30
0
70
32
0
VERTEX
8
0
62
30
10
0.20224433
20
0.72643382
30
0
70
32
0
SEQEND
8
0
0
POLYLINE
8
0
62
30
66
1
10
0
20
0
30
0
70
8
0
VERTEX
8
0
62
30
10
0.2305286
20
0.72643382
30
0
70
32
0
VERTEX
8
0
62
30
10
0.2305286
20
0.72643382
30
0
70
32
0
SEQEND
8
0
0
POLYLINE
8
0
62
30
66
1
10
0
20
0
30
0
70
8
0
VERTEX
8
0
62
30
10
0.17396006
20
0.74907224
30
0
70
32
0
VERTEX
8
0
62
30
10
0.17396006
20
0.77069623
30
0
70
32
0
SEQEND
8
0
0
POLYLINE
8
0
62
30
66
1
10
0
20
0
30
0
70
8
0
VERTEX
8
0
62
30
10
0.20224433
20
0.75653382
30
0
70
32
0
VERTEX
8
0
62
30
10
0.20224433
20
0.77069623
30
0
70
32
0
SEQEND
8
0
0
POLYLINE
8
0
62
30
66
1
10
0
20
0
30
0
70
8
0
VERTEX
8
0
62
30
10
0.2305286
20
0.77069623
30
0
70
32
0
VERTEX
8
0
62
30
10
0.2305286
20
0.77069623
30
0
70
32
0
SEQEND
8
0
0
POLYLINE
8
0
62
5
66
1
10
0
20
0
30
0
70
8
0
VERTEX
8
0
62
5
10
0.17396006
20
0.70430261
30
0
70
32
0
VERTEX
8
0
62
5
10
0.17396006
20
0.70480982
30
0
70
32
0
SEQEND
8
0
0
POLYLINE
8
0
62
5
66
1
10
0
20
0
30
0
70
8
0
VERTEX
8
0
62
5
10
0.20224433
20
0.70430261
30
0
70
32
0
VERTEX
8
0
62
5
10
0.20224433
20
0.7122714
30
0
70
32
0
SEQEND
8
0
0
POLYLINE
8
0
62
5
66
1
10
0
20
0
30
0
70
8
0
VERTEX
8
0
62
5
10
0.2305286
20
0.70430261
30
0
70
32
0
VERTEX
8
0
62
5
10
0.2305286
20
0.72643382
30
0
70
32
0
SEQEND
8
0
0
POLYLINE
8
0
62
5
66
1
10
0
20
0
30
0
70
8
0
VERTEX
8
0
62
5
10
0.17396006
20
0.74856502
30
0
70
32
0
VERTEX
8
0
62
5
10
0.17396006
20
0.74907224
30
0
70
32
0
SEQEND
8
0
0
POLYLINE
8
0
62
5
66
1
10
0
20
0
30
0
70
8
0
VERTEX
8
0
62
5
10
0.20224433
20
0.74856502
30
0
70
32
0
VERTEX
8
0
62
5
10
0.20224433
20
0.75653382
30
0
70
32
0
SEQEND
8
0
0
POLYLINE
8
0
62
5
66
1
10
0
20
0
30
0
70
8
0
VERTEX
8
0
62
5
10
0.2305286
20
0.74856502
30
0
70
32
0
VERTEX
8
0
62
5
10
0.2305286
20
0.77069623
30
0
70
32
0
SEQEND
8
0
0
POLYLINE
8
0
62
5
66
1
10
0
20
0
30
0
70
8
0
VERTEX
8
0
62
5
10
0.17396006
20
0.72643382
30
0
70
32
0
VERTEX
8
0
62
5
10
0.17396006
20
0.74856502
30
0
70
32
0
SEQEND
8
0
0
POLYLINE
8
0
62
5
66
1
10
0
20
0
30
0
70
8
0
VERTEX
8
0
62
5
10
0.20224433
20
0.72643382
30
0
70
32
0
VERTEX
8
0
62
5
10
0.20224433
20
0.74856502
30
0
70
32
0
SEQEND
8
0
0
POLYLINE
8
0
62
5
66
1
10
0
20
0
30
0
70
8
0
VERTEX
8
0
62
5
10
0.2305286
20
0.72643382
30
0
70
32
0
VERTEX
8
0
62
5
10
0.2305286
20
0.74856502
30
0
70
32
0
SEQEND
8
0
0
POLYLINE
8
0
62
5
66
1
10
0
20
0
30
0
70
8
0
VERTEX
8
0
62
5
10
0.17396006
20
0.77069623
30
0
70
32
0
VERTEX
8
0
62
5
10
0.17396006
20
0.79282744
30
0
70
32
0
SEQEND
8
0
0
POLYLINE
8
0
62
5
66
1
10
0
20
0
30
0
70
8
0
VERTEX
8
0
62
5
10
0.20224433
20
0.77069623
30
0
70
32
0
VERTEX
8
0
62
5
10
0.20224433
20
0.79282744
30
0
70
32
0
SEQEND
8
0
0
POLYLINE
8
0
62
5
66
1
10
0
20
0
30
0
70
8
0
VERTEX
8
0
62
5
10
0.2305286
20
0.77069623
30
0
70
32
0
VERTEX
8
0
62
5
10
0.2305286
20
0.79282744
30
0
70
32
0
SEQEND
8
0
0
POLYLINE
8
0
62
30
66
1
10
0
20
0
30
0
70
8
0
VERTEX
8
0
62
30
10
0.14567579
20
0.71897223
30
0
70
32
0
VERTEX
8
0
62
30
10
0.15371874
20
0.72643382
30
0
70
32
0
SEQEND
8
0
0
POLYLINE
8
0
62
30
66
1
10
0
20
0
30
0
70
8
0
VERTEX
8
0
62
30
10
0.17396006
20
0.70480982
30
0
70
32
0
VERTEX
8
0
62
30
10
0.18549372
20
0.72643382
30
0
70
32
0
SEQEND
8
0
0
POLYLINE
8
0
62
30
66
1
10
0
20
0
30
0
70
8
0
VERTEX
8
0
62
30
10
0.20224433
20
0.7122714
30
0
70
32
0
VERTEX
8
0
62
30
10
0.21228221
20
0.72643382
30
0
70
32
0
SEQEND
8
0
0
POLYLINE
8
0
62
30
66
1
10
0
20
0
30
0
70
8
0
VERTEX
8
0
62
30
10
0.2305286
20
0.72643382
30
0
70
32
0
VERTEX
8
0
62
30
10
0.2305286
20
0.72643382
30
0
70
32
0
SEQEND
8
0
0
POLYLINE
8
0
62
30
66
1
10
0
20
0
30
0
70
8
0
VERTEX
8
0
62
30
10
0.14567579
20
0.76323465
30
0
70
32
0
VERTEX
8
0
62
30
10
0.15371874
20
0.77069623
30
0
70
32
0
SEQEND
8
0
0
POLYLINE
8
0
62
30
66
1
10
0
20
0
30
0
70
8
0
VERTEX
8
0
62
30
10
0.17396006
20
0.74907224
30
0
70
32
0
VERTEX
8
0
62
30
10
0.18549372
20
0.77069623
30
0
70
32
0
SEQEND
8
0
0
POLYLINE
8
0
62
30
66
1
10
0
20
0
30
0
70
8
0
VERTEX
8
0
62
30
10
0.20224433
20
0.75653382
30
0
70
32
0
VERTEX
8
0
62
30
10
0.21228221
20
0.77069623
30
0
70
32
0
SEQEND
8
0
0
POLYLINE
8
0
62
30
66
1
10
0
20
0
30
0
70
8
0
VERTEX
8
0
62
30
10
0.2305286
20
0.77069623
30
0
70
32
0
VERTEX
8
0
62
30
10
0.2305286
20
0.77069623
30
0
70
32
0
SEQEND
8
0
0
POLYLINE
8
0
62
5
66
1
10
0
20
0
30
0
70
8
0
VERTEX
8
0
62
5
10
-0.080598382
20
0.70430261
30
0
70
32
0
VERTEX
8
0
62
5
10
-0.080598382
20
0.79282744
30
0
70
32
0
SEQEND
8
0
0
POLYLINE
8
0
62
5
66
1
10
0
20
0
30
0
70
8
0
VERTEX
8
0
62
5
10
-0.080598382
20
0.71897223
30
0
70
32
0
VERTEX
8
0
62
5
10
-0.052314111
20
0.70480982
30
0
70
32
0
VERTEX
8
0
62
5
10
-0.02402984
20
0.7122714
30
0
70
32
0
VERTEX
8
0
62
5
10
0.0042544316
20
0.72643382
30
0
70
32
0
VERTEX
8
0
62
5
10
0.032538703
20
0.71897223
30
0
70
32
0
SEQEND
8
0
0
POLYLINE
8
0
62
5
66
1
10
0
20
0
30
0
70
8
0
VERTEX
8
0
62
5
10
-0.080598382
20
0.76323465
30
0
70
32
0
VERTEX
8
0
62
5
10
-0.052314111
20
0.74907224
30
0
70
32
0
VERTEX
8
0
62
5
10
-0.02402984
20
0.75653382
30
0
70
32
0
VERTEX
8
0
62
5
10
0.0042544316
20
0.77069623
30
0
70
32
0
VERTEX
8
0
62
5
10
0.032538703
20
0.76323465
30
0
70
32
0
SEQEND
8
0
0
POLYLINE
8
0
62
30
66
1
10
0
20
0
30
0
70
8
0
VERTEX
8
0
62
30
10
-0.080598382
20
0.72643382
30
0
70
32
0
VERTEX
8
0
62
30
10
0.032538703
20
0.72643382
30
0
70
32
0
SEQEND
8
0
0
POLYLINE
8
0
62
30
66
1
10
0
20
0
30
0
70
8
0
VERTEX
8
0
62
30
10
-0.080598382
20
0.77069623
30
0
70
32
0
VERTEX
8
0
62
30
10
0.032538703
20
0.77069623
30
0
70
32
0
SEQEND
8
0
0
POLYLINE
8
0
62
30
66
1
10
0
20
0
30
0
70
8
0
VERTEX
8
0
62
30
10
-0.052314111
20
0.70480982
30
0
70
32
0
VERTEX
8
0
62
30
10
-0.052314111
20
0.72643382
30
0
70
32
0
SEQEND
8
0
0
POLYLINE
8
0
62
30
66
1
10
0
20
0
30
0
70
8
0
VERTEX
8
0
62
30
10
-0.02402984
20
0.7122714
30
0
70
32
0
VERTEX
8
0
62
30
10
-0.02402984
20
0.72643382
30
0
70
32
0
SEQEND
8
0
0
POLYLINE
8
0
62
30
66
1
10
0
20
0
30
0
70
8
0
VERTEX
8
0
62
30
10
0.0042544316
20
0.72643382
30
0
70
32
0
VERTEX
8
0
62
30
10
0.0042544316
20
0.72643382
30
0
70
32
0
SEQEND
8
0
0
POLYLINE
8
0
62
30
66
1
10
0
20
0
30
0
70
8
0
VERTEX
8
0
62
30
10
-0.052314111
20
0.74907224
30
0
70
32
0
VERTEX
8
0
62
30
10
-0.052314111
20
0.77069623
30
0
70
32
0
SEQEND
8
0
0
POLYLINE
8
0
62
30
66
1
10
0
20
0
30
0
70
8
0
VERTEX
8
0
62
30
10
-0.02402984
20
0.75653382
30
0
70
32
0
VERTEX
8
0
62
30
10
-0.02402984
20
0.77069623
30
0
70
32
0
SEQEND
8
0
0
POLYLINE
8
0
62
30
66
1
10
0
20
0
30
0
70
8
0
VERTEX
8
0
62
30
10
0.0042544316
20
0.77069623
30
0
70
32
0
VERTEX
8
0
62
30
10
0.0042544316
20
0.77069623
30
0
70
32
0
SEQEND
8
0
0
POLYLINE
8
0
62
5
66
1
10
0
20
0
30
0
70
8
0
VERTEX
8
0
62
5
10
-0.052314111
20
0.70430261
30
0
70
32
0
VERTEX
8
0
62
5
10
-0.052314111
20
0.70480982
30
0
70
32
0
SEQEND
8
0
0
POLYLINE
8
0
62
5
66
1
10
0
20
0
30
0
70
8
0
VERTEX
8
0
62
5
10
-0.02402984
20
0.70430261
30
0
70
32
0
VERTEX
8
0
62
5
10
-0.02402984
20
0.7122714
30
0
70
32
0
SEQEND
8
0
0
POLYLINE
8
0
62
5
66
1
10
0
20
0
30
0
70
8
0
VERTEX
8
0
62
5
10
0.0042544316
20
0.70430261
30
0
70
32
0
VERTEX
8
0
62
5
10
0.0042544316
20
0.72643382
30
0
70
32
0
SEQEND
8
0
0
POLYLINE
8
0
62
5
66
1
10
0
20
0
30
0
70
8
0
VERTEX
8
0
62
5
10
-0.052314111
20
0.74856502
30
0
70
32
0
VERTEX
8
0
62
5
10
-0.052314111
20
0.74907224
30
0
70
32
0
SEQEND
8
0
0
POLYLINE
8
0
62
5
66
1
10
0
20
0
30
0
70
8
0
VERTEX
8
0
62
5
10
-0.02402984
20
0.74856502
30
0
70
32
0
VERTEX
8
0
62
5
10
-0.02402984
20
0.75653382
30
0
70
32
0
SEQEND
8
0
0
POLYLINE
8
0
62
5
66
1
10
0
20
0
30
0
70
8
0
VERTEX
8
0
62
5
10
0.0042544316
20
0.74856502
30
0
70
32
0
VERTEX
8
0
62
5
10
0.0042544316
20
0.77069623
30
0
70
32
0
SEQEND
8
0
0
POLYLINE
8
0
62
5
66
1
10
0
20
0
30
0
70
8
0
VERTEX
8
0
62
5
10
-0.052314111
20
0.72643382
30
0
70
32
0
VERTEX
8
0
62
5
10
-0.052314111
20
0.74856502
30
0
70
32
0
SEQEND
8
0
0
POLYLINE
8
0
62
5
66
1
10
0
20
0
30
0
70
8
0
VERTEX
8
0
62
5
10
-0.02402984
20
0.72643382
30
0
70
32
0
VERTEX
8
0
62
5
10
-0.02402984
20
0.74856502
30
0
70
32
0
SEQEND
8
0
0
POLYLINE
8
0
62
5
66
1
10
0
20
0
30
0
70
8
0
VERTEX
8
0
62
5
10
0.0042544316
20
0.72643382
30
0
70
32
0
VERTEX
8
0
62
5
10
0.0042544316
20
0.74856502
30
0
70
32
0
SEQEND
8
0
0
POLYLINE
8
0
62
5
66
1
10
0
20
0
30
0
70
8
0
VERTEX
8
0
62
5
10
-0.052314111
20
0.77069623
30
0
70
32
0
VERTEX
8
0
62
5
10
-0.052314111
20
0.79282744
30
0
70
32
0
SEQEND
8
0
0
POLYLINE
8
0
62
5
66
1
10
0
20
0
30
0
70
8
0
VERTEX
8
0
62
5
10
-0.02402984
20
0.77069623
30
0
70
32
0
VERTEX
8
0
62
5
10
-0.02402984
20
0.79282744
30
0
70
32
0
SEQEND
8
0
0
POLYLINE
8
0
62
5
66
1
10
0
20
0
30
0
70
8
0
VERTEX
8
0
62
5
10
0.0042544316
20
0.77069623
30
0
70
32
0
VERTEX
8
0
62
5
10
0.0042544316
20
0.79282744
30
0
70
32
0
SEQEND
8
0
0
POLYLINE
8
0
62
30
66
1
10
0
20
0
30
0
70
8
0
VERTEX
8
0
62
30
10
-0.080598382
20
0.71897223
30
0
70
32
0
VERTEX
8
0
62
30
10
-0.072555432
20
0.72643382
30
0
70
32
0
SEQEND
8
0
0
POLYLINE
8
0
62
30
66
1
10
0
20
0
30
0
70
8
0
VERTEX
8
0
62
30
10
-0.052314111
20
0.70480982
30
0
70
32
0
VERTEX
8
0
62
30
10
-0.040780447
20
0.72643382
30
0
70
32
0
SEQEND
8
0
0
POLYLINE
8
0
62
30
66
1
10
0
20
0
30
0
70
8
0
VERTEX
8
0
62
30
10
-0.02402984
20
0.7122714
30
0
70
32
0
VERTEX
8
0
62
30
10
-0.013991965
20
0.72643382
30
0
70
32
0
SEQEND
8
0
0
POLYLINE
8
0
62
30
66
1
10
0
20
0
30
0
70
8
0
VERTEX
8
0
62
30
10
0.0042544316
20
0.72643382
30
0
70
32
0
VERTEX
8
0
62
30
10
0.0042544316
20
0.72643382
30
0
70
32
0
SEQEND
8
0
0
POLYLINE
8
0
62
30
66
1
10
0
20
0
30
0
70
8
0
VERTEX
8
0
62
30
10
-0.080598382
20
0.76323465
30
0
70
32
0
VERTEX
8
0
62
30
10
-0.072555432
20
0.77069623
30
0
70
32
0
SEQEND
8
0
0
POLYLINE
8
0
62
30
66
1
10
0
20
0
30
0
70
8
0
VERTEX
8
0
62
30
10
-0.052314111
20
0.74907224
30
0
70
32
0
VERTEX
8
0
62
30
10
-0.040780447
20
0.77069623
30
0
70
32
0
SEQEND
8
0
0
POLYLINE
8
0
62
30
66
1
10
0
20
0
30
0
70
8
0
VERTEX
8
0
62
30
10
-0.02402984
20
0.75653382
30
0
70
32
0
VERTEX
8
0
62
30
10
-0.013991965
20
0.77069623
30
0
70
32
0
SEQEND
8
0
0
POLYLINE
8
0
62
30
66
1
10
0
20
0
30
0
70
8
0
VERTEX
8
0
62
30
10
0.0042544316
20
0.77069623
30
0
70
32
0
VERTEX
8
0
62
30
10
0.0042544316
20
0.77069623
30
0
70
32
0
SEQEND
8
0
0
POLYLINE
8
0
62
30
66
1
10
0
20
0
30
0
70
8
0
VERTEX
8
0
62
30
10
0.032538703
20
0.80616278
30
0
70
32
0
VERTEX
8
0
62
30
10
0.14567579
20
0.80616278
30
0
70
32
0
SEQEND
8
0
0
POLYLINE
8
0
62
30
66
1
10
0
20
0
30
0
70
8
0
VERTEX
8
0
62
30
10
0.032538703
20
0.79282744
30
0
70
32
0
VERTEX
8
0
62
30
10
0.14567579
20
0.79282744
30
0
70
32
0
SEQEND
8
0
0
POLYLINE
8
0
62
5
66
1
10
0
20
0
30
0
70
8
0
VERTEX
8
0
62
5
10
0.032538703
20
0.79282744
30
0
70
32
0
VERTEX
8
0
62
5
10
0.050205868
20
0.80616278
30
0
70
32
0
VERTEX
8
0
62
5
10
0.060822974
20
0.79282744
30
0
70
32
0
VERTEX
8
0
62
5
10
0.078490139
20
0.80616278
30
0
70
32
0
VERTEX
8
0
62
5
10
0.089107245
20
0.79282744
30
0
70
32
0
VERTEX
8
0
62
5
10
0.10677441
20
0.80616278
30
0
70
32
0
VERTEX
8
0
62
5
10
0.11739152
20
0.79282744
30
0
70
32
0
VERTEX
8
0
62
5
10
0.13505868
20
0.80616278
30
0
70
32
0
VERTEX
8
0
62
5
10
0.14567579
20
0.79282744
30
0
70
32
0
SEQEND
8
0
0
POLYLINE
8
0
62
5
66
1
10
0
20
0
30
0
70
8
0
VERTEX
8
0
62
5
10
0.060822974
20
0.79282744
30
0
70
32
0
VERTEX
8
0
62
5
10
0.060822974
20
0.79282744
30
0
70
32
0
SEQEND
8
0
0
POLYLINE
8
0
62
5
66
1
10
0
20
0
30
0
70
8
0
VERTEX
8
0
62
5
10
0.089107245
20
0.79282744
30
0
70
32
0
VERTEX
8
0
62
5
10
0.089107245
20
0.79282744
30
0
70
32
0
SEQEND
8
0
0
POLYLINE
8
0
62
5
66
1
10
0
20
0
30
0
70
8
0
VERTEX
8
0
62
5
10
0.11739152
20
0.79282744
30
0
70
32
0
VERTEX
8
0
62
5
10
0.11739152
20
0.79282744
30
0
70
32
0
SEQEND
8
0
0
POLYLINE
8
0
62
5
66
1
10
0
20
0
30
0
70
8
0
VERTEX
8
0
62
5
10
0.050205868
20
0.80616278
30
0
70
32
0
VERTEX
8
0
62
5
10
0.050205868
20
0.80616278
30
0
70
32
0
SEQEND
8
0
0
POLYLINE
8
0
62
5
66
1
10
0
20
0
30
0
70
8
0
VERTEX
8
0
62
5
10
0.078490139
20
0.80616278
30
0
70
32
0
VERTEX
8
0
62
5
10
0.078490139
20
0.80616278
30
0
70
32
0
SEQEND
8
0
0
POLYLINE
8
0
62
5
66
1
10
0
20
0
30
0
70
8
0
VERTEX
8
0
62
5
10
0.10677441
20
0.80616278
30
0
70
32
0
VERTEX
8
0
62
5
10
0.10677441
20
0.80616278
30
0
70
32
0
SEQEND
8
0
0
POLYLINE
8
0
62
5
66
1
10
0
20
0
30
0
70
8
0
VERTEX
8
0
62
5
10
0.13505868
20
0.80616278
30
0
70
32
0
VERTEX
8
0
62
5
10
0.13505868
20
0.80616278
30
0
70
32
0
SEQEND
8
0
0
POLYLINE
8
0
62
30
66
1
10
0
20
0
30
0
70
8
0
VERTEX
8
0
62
30
10
0.14567579
20
0.80616278
30
0
70
32
0
VERTEX
8
0
62
30
10
0.25881287
20
0.80616278
30
0
70
32
0
SEQEND
8
0
0
POLYLINE
8
0
62
30
66
1
10
0
20
0
30
0
70
8
0
VERTEX
8
0
62
30
10
0.14567579
20
0.79282744
30
0
70
32
0
VERTEX
8
0
62
30
10
0.25881287
20
0.79282744
30
0
70
32
0
SEQEND
8
0
0
POLYLINE
8
0
62
5
66
1
10
0
20
0
30
0
70
8
0
VERTEX
8
0
62
5
10
0.14567579
20
0.79282744
30
0
70
32
0
VERTEX
8
0
62
5
10
0.16334295
20
0.80616278
30
0
70
32
0
VERTEX
8
0
62
5
10
0.17396006
20
0.79282744
30
0
70
32
0
VERTEX
8
0
62
5
10
0.19162722
20
0.80616278
30
0
70
32
0
VERTEX
8
0
62
5
10
0.20224433
20
0.79282744
30
0
70
32
0
VERTEX
8
0
62
5
10
0.2199115
20
0.80616278
30
0
70
32
0
VERTEX
8
0
62
5
10
0.2305286
20
0.79282744
30
0
70
32
0
VERTEX
8
0
62
5
10
0.24819577
20
0.80616278
30
0
70
32
0
VERTEX
8
0
62
5
10
0.25881287
20
0.79282744
30
0
70
32
0
SEQEND
8
0
0
POLYLINE
8
0
62
5
66
1
10
0
20
0
30
0
70
8
0
VERTEX
8
0
62
5
10
0.17396006
20
0.79282744
30
0
70
32
0
VERTEX
8
0
62
5
10
0.17396006
20
0.79282744
30
0
70
32
0
SEQEND
8
0
0
POLYLINE
8
0
62
5
66
1
10
0
20
0
30
0
70
8
0
VERTEX
8
0
62
5
10
0.20224433
20
0.79282744
30
0
70
32
0
VERTEX
8
0
62
5
10
0.20224433
20
0.79282744
30
0
70
32
0
SEQEND
8
0
0
POLYLINE
8
0
62
5
66
1
10
0
20
0
30
0
70
8
0
VERTEX
8
0
62
5
10
0.2305286
20
0.79282744
30
0
70
32
0
VERTEX
8
0
62
5
10
0.2305286
20
0.79282744
30
0
70
32
0
SEQEND
8
0
0
POLYLINE
8
0
62
5
66
1
10
0
20
0
30
0
70
8
0
VERTEX
8
0
62
5
10
0.16334295
20
0.80616278
30
0
70
32
0
VERTEX
8
0
62
5
10
0.16334295
20
0.80616278
30
0
70
32
0
SEQEND
8
0
0
POLYLINE
8
0
62
5
66
1
10
0
20
0
30
0
70
8
0
VERTEX
8
0
62
5
10
0.19162722
20
0.80616278
30
0
70
32
0
VERTEX
8
0
62
5
10
0.19162722
20
0.80616278
30
0
70
32
0
SEQEND
8
0
0
POLYLINE
8
0
62
5
66
1
10
0
20
0
30
0
70
8
0
VERTEX
8
0
62
5
10
0.2199115
20
0.80616278
30
0
70
32
0
VERTEX
8
0
62
5
10
0.2199115
20
0.80616278
30
0
70
32
0
SEQEND
8
0
0
POLYLINE
8
0
62
5
66
1
10
0
20
0
30
0
70
8
0
VERTEX
8
0
62
5
10
0.24819577
20
0.80616278
30
0
70
32
0
VERTEX
8
0
62
5
10
0.24819577
20
0.80616278
30
0
70
32
0
SEQEND
8
0
0
POLYLINE
8
0
62
30
66
1
10
0
20
0
30
0
70
8
0
VERTEX
8
0
62
30
10
-0.080598382
20
0.80616278
30
0
70
32
0
VERTEX
8
0
62
30
10
0.032538703
20
0.80616278
30
0
70
32
0
SEQEND
8
0
0
POLYLINE
8
0
62
30
66
1
10
0
20
0
30
0
70
8
0
VERTEX
8
0
62
30
10
-0.080598382
20
0.79282744
30
0
70
32
0
VERTEX
8
0
62
30
10
0.032538703
20
0.79282744
30
0
70
32
0
SEQEND
8
0
0
POLYLINE
8
0
62
5
66
1
10
0
20
0
30
0
70
8
0
VERTEX
8
0
62
5
10
-0.080598382
20
0.79282744
30
0
70
32
0
VERTEX
8
0
62
5
10
-0.062931217
20
0.80616278
30
0
70
32
0
VERTEX
8
0
62
5
10
-0.052314111
20
0.79282744
30
0
70
32
0
VERTEX
8
0
62
5
10
-0.034646946
20
0.80616278
30
0
70
32
0
VERTEX
8
0
62
5
10
-0.02402984
20
0.79282744
30
0
70
32
0
VERTEX
8
0
62
5
10
-0.0063626748
20
0.80616278
30
0
70
32
0
VERTEX
8
0
62
5
10
0.0042544316
20
0.79282744
30
0
70
32
0
VERTEX
8
0
62
5
10
0.021921596
20
0.80616278
30
0
70
32
0
VERTEX
8
0
62
5
10
0.032538703
20
0.79282744
30
0
70
32
0
SEQEND
8
0
0
POLYLINE
8
0
62
5
66
1
10
0
20
0
30
0
70
8
0
VERTEX
8
0
62
5
10
-0.052314111
20
0.79282744
30
0
70
32
0
VERTEX
8
0
62
5
10
-0.052314111
20
0.79282744
30
0
70
32
0
SEQEND
8
0
0
POLYLINE
8
0
62
5
66
1
10
0
20
0
30
0
70
8
0
VERTEX
8
0
62
5
10
-0.02402984
20
0.79282744
30
0
70
32
0
VERTEX
8
0
62
5
10
-0.02402984
20
0.79282744
30
0
70
32
0
SEQEND
8
0
0
POLYLINE
8
0
62
5
66
1
10
0
20
0
30
0
70
8
0
VERTEX
8
0
62
5
10
0.0042544316
20
0.79282744
30
0
70
32
0
VERTEX
8
0
62
5
10
0.0042544316
20
0.79282744
30
0
70
32
0
SEQEND
8
0
0
POLYLINE
8
0
62
5
66
1
10
0
20
0
30
0
70
8
0
VERTEX
8
0
62
5
10
-0.062931217
20
0.80616278
30
0
70
32
0
VERTEX
8
0
62
5
10
-0.062931217
20
0.80616278
30
0
70
32
0
SEQEND
8
0
0
POLYLINE
8
0
62
5
66
1
10
0
20
0
30
0
70
8
0
VERTEX
8
0
62
5
10
-0.034646946
20
0.80616278
30
0
70
32
0
VERTEX
8
0
62
5
10
-0.034646946
20
0.80616278
30
0
70
32
0
SEQEND
8
0
0
POLYLINE
8
0
62
5
66
1
10
0
20
0
30
0
70
8
0
VERTEX
8
0
62
5
10
-0.0063626748
20
0.80616278
30
0
70
32
0
VERTEX
8
0
62
5
10
-0.0063626748
20
0.80616278
30
0
70
32
0
SEQEND
8
0
0
POLYLINE
8
0
62
5
66
1
10
0
20
0
30
0
70
8
0
VERTEX
8
0
62
5
10
0.021921596
20
0.80616278
30
0
70
32
0
VERTEX
8
0
62
5
10
0.021921596
20
0.80616278
30
0
70
32
0
SEQEND
8
0
0
POLYLINE
8
0
62
5
66
1
10
0
20
0
30
0
70
8
0
VERTEX
8
0
62
5
10
0.021921596
20
0.80616278
30
0
70
32
0
VERTEX
8
0
62
5
10
0.021921596
20
0.85467452
30
0
70
32
0
SEQEND
8
0
0
POLYLINE
8
0
62
5
66
1
10
0
20
0
30
0
70
8
0
VERTEX
8
0
62
5
10
0.13505868
20
0.80616278
30
0
70
32
0
VERTEX
8
0
62
5
10
0.13505868
20
0.85467452
30
0
70
32
0
SEQEND
8
0
0
POLYLINE
8
0
62
5
66
1
10
0
20
0
30
0
70
8
0
VERTEX
8
0
62
5
10
0.050205868
20
0.80616278
30
0
70
32
0
VERTEX
8
0
62
5
10
0.050205868
20
0.85467452
30
0
70
32
0
SEQEND
8
0
0
POLYLINE
8
0
62
5
66
1
10
0
20
0
30
0
70
8
0
VERTEX
8
0
62
5
10
0.078490139
20
0.80616278
30
0
70
32
0
VERTEX
8
0
62
5
10
0.078490139
20
0.85467452
30
0
70
32
0
SEQEND
8
0
0
POLYLINE
8
0
62
5
66
1
10
0
20
0
30
0
70
8
0
VERTEX
8
0
62
5
10
0.10677441
20
0.80616278
30
0
70
32
0
VERTEX
8
0
62
5
10
0.10677441
20
0.85467452
30
0
70
32
0
SEQEND
8
0
0
POLYLINE
8
0
62
5
66
1
10
0
20
0
30
0
70
8
0
VERTEX
8
0
62
5
10
0.24819577
20
0.80616278
30
0
70
32
0
VERTEX
8
0
62
5
10
0.24819577
20
0.85467452
30
0
70
32
0
SEQEND
8
0
0
POLYLINE
8
0
62
5
66
1
10
0
20
0
30
0
70
8
0
VERTEX
8
0
62
5
10
0.16334295
20
0.80616278
30
0
70
32
0
VERTEX
8
0
62
5
10
0.16334295
20
0.85467452
30
0
70
32
0
SEQEND
8
0
0
POLYLINE
8
0
62
5
66
1
10
0
20
0
30
0
70
8
0
VERTEX
8
0
62
5
10
0.19162722
20
0.80616278
30
0
70
32
0
VERTEX
8
0
62
5
10
0.19162722
20
0.85467452
30
0
70
32
0
SEQEND
8
0
0
POLYLINE
8
0
62
5
66
1
10
0
20
0
30
0
70
8
0
VERTEX
8
0
62
5
10
0.2199115
20
0.80616278
30
0
70
32
0
VERTEX
8
0
62
5
10
0.2199115
20
0.85467452
30
0
70
32
0
SEQEND
8
0
0
POLYLINE
8
0
62
5
66
1
10
0
20
0
30
0
70
8
0
VERTEX
8
0
62
5
10
-0.091215489
20
0.80616278
30
0
70
32
0
VERTEX
8
0
62
5
10
-0.091215489
20
0.85467452
30
0
70
32
0
SEQEND
8
0
0
POLYLINE
8
0
62
5
66
1
10
0
20
0
30
0
70
8
0
VERTEX
8
0
62
5
10
-0.062931217
20
0.80616278
30
0
70
32
0
VERTEX
8
0
62
5
10
-0.062931217
20
0.85467452
30
0
70
32
0
SEQEND
8
0
0
POLYLINE
8
0
62
5
66
1
10
0
20
0
30
0
70
8
0
VERTEX
8
0
62
5
10
-0.034646946
20
0.80616278
30
0
70
32
0
VERTEX
8
0
62
5
10
-0.034646946
20
0.85467452
30
0
70
32
0
SEQEND
8
0
0
POLYLINE
8
0
62
5
66
1
10
0
20
0
30
0
70
8
0
VERTEX
8
0
62
5
10
-0.0063626748
20
0.80616278
30
0
70
32
0
VERTEX
8
0
62
5
10
-0.0063626748
20
0.85467452
30
0
70
32
0
SEQEND
8
0
0
POLYLINE
8
0
62
5
66
1
10
0
20
0
30
0
70
8
0
VERTEX
8
0
62
5
10
0.021921596
20
0.85467452
30
0
70
32
0
VERTEX
8
0
62
5
10
0.021921596
20
0.8827021
30
0
70
32
0
SEQEND
8
0
0
POLYLINE
8
0
62
5
66
1
10
0
20
0
30
0
70
8
0
VERTEX
8
0
62
5
10
0.13505868
20
0.8827021
30
0
70
32
0
VERTEX
8
0
62
5
10
0.13505868
20
0.85467452
30
0
70
32
0
SEQEND
8
0
0
POLYLINE
8
0
62
5
66
1
10
0
20
0
30
0
70
8
0
VERTEX
8
0
62
5
10
0.021921596
20
0.86122429
30
0
70
32
0
VERTEX
8
0
62
5
10
0.050205868
20
0.86868831
30
0
70
32
0
VERTEX
8
0
62
5
10
0.078490139
20
0.86215396
30
0
70
32
0
VERTEX
8
0
62
5
10
0.10677441
20
0.85468994
30
0
70
32
0
VERTEX
8
0
62
5
10
0.13505868
20
0.86122429
30
0
70
32
0
SEQEND
8
0
0
POLYLINE
8
0
62
5
66
1
10
0
20
0
30
0
70
8
0
SEQEND
8
0
0
POLYLINE
8
0
62
30
66
1
10
0
20
0
30
0
70
8
0
VERTEX
8
0
62
30
10
0.021921596
20
0.86868831
30
0
70
32
0
VERTEX
8
0
62
30
10
0.13505868
20
0.86868831
30
0
70
32
0
SEQEND
8
0
0
POLYLINE
8
0
62
30
66
1
10
0
20
0
30
0
70
8
0
VERTEX
8
0
62
30
10
0.050205868
20
0.86868831
30
0
70
32
0
VERTEX
8
0
62
30
10
0.050205868
20
0.86868831
30
0
70
32
0
SEQEND
8
0
0
POLYLINE
8
0
62
30
66
1
10
0
20
0
30
0
70
8
0
VERTEX
8
0
62
30
10
0.078490139
20
0.86215396
30
0
70
32
0
VERTEX
8
0
62
30
10
0.078490139
20
0.86868831
30
0
70
32
0
SEQEND
8
0
0
POLYLINE
8
0
62
30
66
1
10
0
20
0
30
0
70
8
0
VERTEX
8
0
62
30
10
0.10677441
20
0.85468994
30
0
70
32
0
VERTEX
8
0
62
30
10
0.10677441
20
0.86868831
30
0
70
32
0
SEQEND
8
0
0
POLYLINE
8
0
62
5
66
1
10
0
20
0
30
0
70
8
0
VERTEX
8
0
62
5
10
0.050205868
20
0.85467452
30
0
70
32
0
VERTEX
8
0
62
5
10
0.050205868
20
0.86868831
30
0
70
32
0
SEQEND
8
0
0
POLYLINE
8
0
62
5
66
1
10
0
20
0
30
0
70
8
0
VERTEX
8
0
62
5
10
0.078490139
20
0.85467452
30
0
70
32
0
VERTEX
8
0
62
5
10
0.078490139
20
0.86215396
30
0
70
32
0
SEQEND
8
0
0
POLYLINE
8
0
62
5
66
1
10
0
20
0
30
0
70
8
0
VERTEX
8
0
62
5
10
0.10677441
20
0.85467452
30
0
70
32
0
VERTEX
8
0
62
5
10
0.10677441
20
0.85468994
30
0
70
32
0
SEQEND
8
0
0
POLYLINE
8
0
62
5
66
1
10
0
20
0
30
0
70
8
0
VERTEX
8
0
62
5
10
0.050205868
20
0.86868831
30
0
70
32
0
VERTEX
8
0
62
5
10
0.050205868
20
0.8827021
30
0
70
32
0
SEQEND
8
0
0
POLYLINE
8
0
62
5
66
1
10
0
20
0
30
0
70
8
0
VERTEX
8
0
62
5
10
0.078490139
20
0.86868831
30
0
70
32
0
VERTEX
8
0
62
5
10
0.078490139
20
0.8827021
30
0
70
32
0
SEQEND
8
0
0
POLYLINE
8
0
62
5
66
1
10
0
20
0
30
0
70
8
0
VERTEX
8
0
62
5
10
0.10677441
20
0.86868831
30
0
70
32
0
VERTEX
8
0
62
5
10
0.10677441
20
0.8827021
30
0
70
32
0
SEQEND
8
0
0
POLYLINE
8
0
62
30
66
1
10
0
20
0
30
0
70
8
0
VERTEX
8
0
62
30
10
0.021921596
20
0.86122429
30
0
70
32
0
VERTEX
8
0
62
30
10
0.028753083
20
0.86868831
30
0
70
32
0
SEQEND
8
0
0
POLYLINE
8
0
62
30
66
1
10
0
20
0
30
0
70
8
0
VERTEX
8
0
62
30
10
0.050205868
20
0.86868831
30
0
70
32
0
VERTEX
8
0
62
30
10
0.050205868
20
0.86868831
30
0
70
32
0
SEQEND
8
0
0
POLYLINE
8
0
62
30
66
1
10
0
20
0
30
0
70
8
0
VERTEX
8
0
62
30
10
0.078490139
20
0.86215396
30
0
70
32
0
VERTEX
8
0
62
30
10
0.084853607
20
0.86868831
30
0
70
32
0
SEQEND
8
0
0
POLYLINE
8
0
62
30
66
1
10
0
20
0
30
0
70
8
0
VERTEX
8
0
62
30
10
0.10677441
20
0.85468994
30
0
70
32
0
VERTEX
8
0
62
30
10
0.11577867
20
0.86868831
30
0
70
32
0
SEQEND
8
0
0
POLYLINE
8
0
62
5
66
1
10
0
20
0
30
0
70
8
0
VERTEX
8
0
62
5
10
0.24819577
20
0.8827021
30
0
70
32
0
VERTEX
8
0
62
5
10
0.24819577
20
0.85467452
30
0
70
32
0
SEQEND
8
0
0
POLYLINE
8
0
62
5
66
1
10
0
20
0
30
0
70
8
0
VERTEX
8
0
62
5
10
0.13505868
20
0.86122429
30
0
70
32
0
VERTEX
8
0
62
5
10
0.16334295
20
0.86868831
30
0
70
32
0
VERTEX
8
0
62
5
10
0.19162722
20
0.86215396
30
0
70
32
0
VERTEX
8
0
62
5
10
0.2199115
20
0.85468994
30
0
70
32
0
VERTEX
8
0
62
5
10
0.24819577
20
0.86122429
30
0
70
32
0
SEQEND
8
0
0
POLYLINE
8
0
62
5
66
1
10
0
20
0
30
0
70
8
0
SEQEND
8
0
0
POLYLINE
8
0
62
30
66
1
10
0
20
0
30
0
70
8
0
VERTEX
8
0
62
30
10
0.13505868
20
0.86868831
30
0
70
32
0
VERTEX
8
0
62
30
10
0.24819577
20
0.86868831
30
0
70
32
0
SEQEND
8
0
0
POLYLINE
8
0
62
30
66
1
10
0
20
0
30
0
70
8
0
VERTEX
8
0
62
30
10
0.16334295
20
0.86868831
30
0
70
32
0
VERTEX
8
0
62
30
10
0.16334295
20
0.86868831
30
0
70
32
0
SEQEND
8
0
0
POLYLINE
8
0
62
30
66
1
10
0
20
0
30
0
70
8
0
VERTEX
8
0
62
30
10
0.19162722
20
0.86215396
30
0
70
32
0
VERTEX
8
0
62
30
10
0.19162722
20
0.86868831
30
0
70
32
0
SEQEND
8
0
0
POLYLINE
8
0
62
30
66
1
10
0
20
0
30
0
70
8
0
VERTEX
8
0
62
30
10
0.2199115
20
0.85468994
30
0
70
32
0
VERTEX
8
0
62
30
10
0.2199115
20
0.86868831
30
0
70
32
0
SEQEND
8
0
0
POLYLINE
8
0
62
5
66
1
10
0
20
0
30
0
70
8
0
VERTEX
8
0
62
5
10
0.16334295
20
0.85467452
30
0
70
32
0
VERTEX
8
0
62
5
10
0.16334295
20
0.86868831
30
0
70
32
0
SEQEND
8
0
0
POLYLINE
8
0
62
5
66
1
10
0
20
0
30
0
70
8
0
VERTEX
8
0
62
5
10
0.19162722
20
0.85467452
30
0
70
32
0
VERTEX
8
0
62
5
10
0.19162722
20
0.86215396
30
0
70
32
0
SEQEND
8
0
0
POLYLINE
8
0
62
5
66
1
10
0
20
0
30
0
70
8
0
VERTEX
8
0
62
5
10
0.2199115
20
0.85467452
30
0
70
32
0
VERTEX
8
0
62
5
10
0.2199115
20
0.85468994
30
0
70
32
0
SEQEND
8
0
0
POLYLINE
8
0
62
5
66
1
10
0
20
0
30
0
70
8
0
VERTEX
8
0
62
5
10
0.16334295
20
0.86868831
30
0
70
32
0
VERTEX
8
0
62
5
10
0.16334295
20
0.8827021
30
0
70
32
0
SEQEND
8
0
0
POLYLINE
8
0
62
5
66
1
10
0
20
0
30
0
70
8
0
VERTEX
8
0
62
5
10
0.19162722
20
0.86868831
30
0
70
32
0
VERTEX
8
0
62
5
10
0.19162722
20
0.8827021
30
0
70
32
0
SEQEND
8
0
0
POLYLINE
8
0
62
5
66
1
10
0
20
0
30
0
70
8
0
VERTEX
8
0
62
5
10
0.2199115
20
0.86868831
30
0
70
32
0
VERTEX
8
0
62
5
10
0.2199115
20
0.8827021
30
0
70
32
0
SEQEND
8
0
0
POLYLINE
8
0
62
30
66
1
10
0
20
0
30
0
70
8
0
VERTEX
8
0
62
30
10
0.13505868
20
0.86122429
30
0
70
32
0
VERTEX
8
0
62
30
10
0.14189017
20
0.86868831
30
0
70
32
0
SEQEND
8
0
0
POLYLINE
8
0
62
30
66
1
10
0
20
0
30
0
70
8
0
VERTEX
8
0
62
30
10
0.16334295
20
0.86868831
30
0
70
32
0
VERTEX
8
0
62
30
10
0.16334295
20
0.86868831
30
0
70
32
0
SEQEND
8
0
0
POLYLINE
8
0
62
30
66
1
10
0
20
0
30
0
70
8
0
VERTEX
8
0
62
30
10
0.19162722
20
0.86215396
30
0
70
32
0
VERTEX
8
0
62
30
10
0.19799069
20
0.86868831
30
0
70
32
0
SEQEND
8
0
0
POLYLINE
8
0
62
30
66
1
10
0
20
0
30
0
70
8
0
VERTEX
8
0
62
30
10
0.2199115
20
0.85468994
30
0
70
32
0
VERTEX
8
0
62
30
10
0.22891575
20
0.86868831
30
0
70
32
0
SEQEND
8
0
0
POLYLINE
8
0
62
5
66
1
10
0
20
0
30
0
70
8
0
VERTEX
8
0
62
5
10
-0.091215489
20
0.85467452
30
0
70
32
0
VERTEX
8
0
62
5
10
-0.091215489
20
0.8827021
30
0
70
32
0
SEQEND
8
0
0
POLYLINE
8
0
62
5
66
1
10
0
20
0
30
0
70
8
0
VERTEX
8
0
62
5
10
-0.091215489
20
0.86122429
30
0
70
32
0
VERTEX
8
0
62
5
10
-0.062931217
20
0.86868831
30
0
70
32
0
VERTEX
8
0
62
5
10
-0.034646946
20
0.86215396
30
0
70
32
0
VERTEX
8
0
62
5
10
-0.0063626748
20
0.85468994
30
0
70
32
0
VERTEX
8
0
62
5
10
0.021921596
20
0.86122429
30
0
70
32
0
SEQEND
8
0
0
POLYLINE
8
0
62
5
66
1
10
0
20
0
30
0
70
8
0
SEQEND
8
0
0
POLYLINE
8
0
62
30
66
1
10
0
20
0
30
0
70
8
0
VERTEX
8
0
62
30
10
-0.091215489
20
0.86868831
30
0
70
32
0
VERTEX
8
0
62
30
10
0.021921596
20
0.86868831
30
0
70
32
0
SEQEND
8
0
0
POLYLINE
8
0
62
30
66
1
10
0
20
0
30
0
70
8
0
VERTEX
8
0
62
30
10
-0.062931217
20
0.86868831
30
0
70
32
0
VERTEX
8
0
62
30
10
-0.062931217
20
0.86868831
30
0
70
32
0
SEQEND
8
0
0
POLYLINE
8
0
62
30
66
1
10
0
20
0
30
0
70
8
0
VERTEX
8
0
62
30
10
-0.034646946
20
0.86215396
30
0
70
32
0
VERTEX
8
0
62
30
10
-0.034646946
20
0.86868831
30
0
70
32
0
SEQEND
8
0
0
POLYLINE
8
0
62
30
66
1
10
0
20
0
30
0
70
8
0
VERTEX
8
0
62
30
10
-0.0063626748
20
0.85468994
30
0
70
32
0
VERTEX
8
0
62
30
10
-0.0063626748
20
0.86868831
30
0
70
32
0
SEQEND
8
0
0
POLYLINE
8
0
62
5
66
1
10
0
20
0
30
0
70
8
0
VERTEX
8
0
62
5
10
-0.062931217
20
0.85467452
30
0
70
32
0
VERTEX
8
0
62
5
10
-0.062931217
20
0.86868831
30
0
70
32
0
SEQEND
8
0
0
POLYLINE
8
0
62
5
66
1
10
0
20
0
30
0
70
8
0
VERTEX
8
0
62
5
10
-0.034646946
20
0.85467452
30
0
70
32
0
VERTEX
8
0
62
5
10
-0.034646946
20
0.86215396
30
0
70
32
0
SEQEND
8
0
0
POLYLINE
8
0
62
5
66
1
10
0
20
0
30
0
70
8
0
VERTEX
8
0
62
5
10
-0.0063626748
20
0.85467452
30
0
70
32
0
VERTEX
8
0
62
5
10
-0.0063626748
20
0.85468994
30
0
70
32
0
SEQEND
8
0
0
POLYLINE
8
0
62
5
66
1
10
0
20
0
30
0
70
8
0
VERTEX
8
0
62
5
10
-0.062931217
20
0.86868831
30
0
70
32
0
VERTEX
8
0
62
5
10
-0.062931217
20
0.8827021
30
0
70
32
0
SEQEND
8
0
0
POLYLINE
8
0
62
5
66
1
10
0
20
0
30
0
70
8
0
VERTEX
8
0
62
5
10
-0.034646946
20
0.86868831
30
0
70
32
0
VERTEX
8
0
62
5
10
-0.034646946
20
0.8827021
30
0
70
32
0
SEQEND
8
0
0
POLYLINE
8
0
62
5
66
1
10
0
20
0
30
0
70
8
0
VERTEX
8
0
62
5
10
-0.0063626748
20
0.86868831
30
0
70
32
0
VERTEX
8
0
62
5
10
-0.0063626748
20
0.8827021
30
0
70
32
0
SEQEND
8
0
0
POLYLINE
8
0
62
30
66
1
10
0
20
0
30
0
70
8
0
VERTEX
8
0
62
30
10
-0.091215489
20
0.86122429
30
0
70
32
0
VERTEX
8
0
62
30
10
-0.084384002
20
0.86868831
30
0
70
32
0
SEQEND
8
0
0
POLYLINE
8
0
62
30
66
1
10
0
20
0
30
0
70
8
0
VERTEX
8
0
62
30
10
-0.062931217
20
0.86868831
30
0
70
32
0
VERTEX
8
0
62
30
10
-0.062931217
20
0.86868831
30
0
70
32
0
SEQEND
8
0
0
POLYLINE
8
0
62
30
66
1
10
0
20
0
30
0
70
8
0
VERTEX
8
0
62
30
10
-0.034646946
20
0.86215396
30
0
70
32
0
VERTEX
8
0
62
30
10
-0.028283478
20
0.86868831
30
0
70
32
0
SEQEND
8
0
0
POLYLINE
8
0
62
30
66
1
10
0
20
0
30
0
70
8
0
VERTEX
8
0
62
30
10
-0.0063626748
20
0.85468994
30
0
70
32
0
VERTEX
8
0
62
30
10
0.0026415808
20
0.86868831
30
0
70
32
0
SEQEND
8
0
0
POLYLINE
8
0
62
5
66
1
10
0
20
0
30
0
70
8
0
VERTEX
8
0
62
5
10
0.021921596
20
0.8827021
30
0
70
32
0
VERTEX
8
0
62
5
10
0.021921596
20
0.9227021
30
0
70
32
0
SEQEND
8
0
0
POLYLINE
8
0
62
5
66
1
10
0
20
0
30
0
70
8
0
VERTEX
8
0
62
5
10
0.13505868
20
0.9227021
30
0
70
32
0
VERTEX
8
0
62
5
10
0.13505868
20
0.8827021
30
0
70
32
0
SEQEND
8
0
0
POLYLINE
8
0
62
5
66
1
10
0
20
0
30
0
70
8
0
VERTEX
8
0
62
5
10
0.021921596
20
0.8827021
30
0
70
32
0
VERTEX
8
0
62
5
10
0.13505868
20
0.8827021
30
0
70
32
0
SEQEND
8
0
0
POLYLINE
8
0
62
5
66
1
10
0
20
0
30
0
70
8
0
VERTEX
8
0
62
5
10
0.021921596
20
0.9227021
30
0
70
32
0
VERTEX
8
0
62
5
10
0.13505868
20
0.9227021
30
0
70
32
0
SEQEND
8
0
0
POLYLINE
8
0
62
5
66
1
10
0
20
0
30
0
70
8
0
VERTEX
8
0
62
5
10
0.050205868
20
0.8827021
30
0
70
32
0
VERTEX
8
0
62
5
10
0.050205868
20
0.8827021
30
0
70
32
0
SEQEND
8
0
0
POLYLINE
8
0
62
5
66
1
10
0
20
0
30
0
70
8
0
VERTEX
8
0
62
5
10
0.078490139
20
0.8827021
30
0
70
32
0
VERTEX
8
0
62
5
10
0.078490139
20
0.8827021
30
0
70
32
0
SEQEND
8
0
0
POLYLINE
8
0
62
5
66
1
10
0
20
0
30
0
70
8
0
VERTEX
8
0
62
5
10
0.10677441
20
0.8827021
30
0
70
32
0
VERTEX
8
0
62
5
10
0.10677441
20
0.8827021
30
0
70
32
0
SEQEND
8
0
0
POLYLINE
8
0
62
5
66
1
10
0
20
0
30
0
70
8
0
VERTEX
8
0
62
5
10
0.050205868
20
0.9227021
30
0
70
32
0
VERTEX
8
0
62
5
10
0.050205868
20
0.9227021
30
0
70
32
0
SEQEND
8
0
0
POLYLINE
8
0
62
5
66
1
10
0
20
0
30
0
70
8
0
VERTEX
8
0
62
5
10
0.078490139
20
0.9227021
30
0
70
32
0
VERTEX
8
0
62
5
10
0.078490139
20
0.9227021
30
0
70
32
0
SEQEND
8
0
0
POLYLINE
8
0
62
5
66
1
10
0
20
0
30
0
70
8
0
VERTEX
8
0
62
5
10
0.10677441
20
0.9227021
30
0
70
32
0
VERTEX
8
0
62
5
10
0.10677441
20
0.9227021
30
0
70
32
0
SEQEND
8
0
0
POLYLINE
8
0
62
30
66
1
10
0
20
0
30
0
70
8
0
VERTEX
8
0
62
30
10
0.021921596
20
0.8827021
30
0
70
32
0
VERTEX
8
0
62
30
10
0.036063732
20
0.9027021
30
0
70
32
0
SEQEND
8
0
0
POLYLINE
8
0
62
30
66
1
10
0
20
0
30
0
70
8
0
VERTEX
8
0
62
30
10
0.036063732
20
0.9027021
30
0
70
32
0
VERTEX
8
0
62
30
10
0.050205868
20
0.8827021
30
0
70
32
0
SEQEND
8
0
0
POLYLINE
8
0
62
30
66
1
10
0
20
0
30
0
70
8
0
VERTEX
8
0
62
30
10
0.078490139
20
0.8827021
30
0
70
32
0
VERTEX
8
0
62
30
10
0.092632275
20
0.9027021
30
0
70
32
0
SEQEND
8
0
0
POLYLINE
8
0
62
30
66
1
10
0
20
0
30
0
70
8
0
VERTEX
8
0
62
30
10
0.092632275
20
0.9027021
30
0
70
32
0
VERTEX
8
0
62
30
10
0.10677441
20
0.8827021
30
0
70
32
0
SEQEND
8
0
0
POLYLINE
8
0
62
30
66
1
10
0
20
0
30
0
70
8
0
VERTEX
8
0
62
30
10
0.050205868
20
0.9027021
30
0
70
32
0
VERTEX
8
0
62
30
10
0.078490139
20
0.9027021
30
0
70
32
0
SEQEND
8
0
0
POLYLINE
8
0
62
30
66
1
10
0
20
0
30
0
70
8
0
VERTEX
8
0
62
30
10
0.10677441
20
0.9027021
30
0
70
32
0
VERTEX
8
0
62
30
10
0.13505868
20
0.9027021
30
0
70
32
0
SEQEND
8
0
0
POLYLINE
8
0
62
5
66
1
10
0
20
0
30
0
70
8
0
VERTEX
8
0
62
5
10
0.021921596
20
0.9027021
30
0
70
32
0
VERTEX
8
0
62
5
10
0.036063732
20
0.9027021
30
0
70
32
0
SEQEND
8
0
0
POLYLINE
8
0
62
5
66
1
10
0
20
0
30
0
70
8
0
VERTEX
8
0
62
5
10
0.078490139
20
0.9027021
30
0
70
32
0
VERTEX
8
0
62
5
10
0.092632275
20
0.9027021
30
0
70
32
0
SEQEND
8
0
0
POLYLINE
8
0
62
5
66
1
10
0
20
0
30
0
70
8
0
VERTEX
8
0
62
5
10
0.036063732
20
0.9027021
30
0
70
32
0
VERTEX
8
0
62
5
10
0.050205868
20
0.9027021
30
0
70
32
0
SEQEND
8
0
0
POLYLINE
8
0
62
5
66
1
10
0
20
0
30
0
70
8
0
VERTEX
8
0
62
5
10
0.092632275
20
0.9027021
30
0
70
32
0
VERTEX
8
0
62
5
10
0.10677441
20
0.9027021
30
0
70
32
0
SEQEND
8
0
0
POLYLINE
8
0
62
5
66
1
10
0
20
0
30
0
70
8
0
VERTEX
8
0
62
5
10
0.050205868
20
0.8827021
30
0
70
32
0
VERTEX
8
0
62
5
10
0.050205868
20
0.9227021
30
0
70
32
0
SEQEND
8
0
0
POLYLINE
8
0
62
5
66
1
10
0
20
0
30
0
70
8
0
VERTEX
8
0
62
5
10
0.078490139
20
0.8827021
30
0
70
32
0
VERTEX
8
0
62
5
10
0.078490139
20
0.9227021
30
0
70
32
0
SEQEND
8
0
0
POLYLINE
8
0
62
5
66
1
10
0
20
0
30
0
70
8
0
VERTEX
8
0
62
5
10
0.10677441
20
0.8827021
30
0
70
32
0
VERTEX
8
0
62
5
10
0.10677441
20
0.9227021
30
0
70
32
0
SEQEND
8
0
0
POLYLINE
8
0
62
5
66
1
10
0
20
0
30
0
70
8
0
VERTEX
8
0
62
5
10
0.021921596
20
0.8827021
30
0
70
32
0
VERTEX
8
0
62
5
10
0.021921596
20
0.9227021
30
0
70
32
0
SEQEND
8
0
0
POLYLINE
8
0
62
5
66
1
10
0
20
0
30
0
70
8
0
VERTEX
8
0
62
5
10
0.24819577
20
0.9227021
30
0
70
32
0
VERTEX
8
0
62
5
10
0.24819577
20
0.8827021
30
0
70
32
0
SEQEND
8
0
0
POLYLINE
8
0
62
5
66
1
10
0
20
0
30
0
70
8
0
VERTEX
8
0
62
5
10
0.13505868
20
0.8827021
30
0
70
32
0
VERTEX
8
0
62
5
10
0.24819577
20
0.8827021
30
0
70
32
0
SEQEND
8
0
0
POLYLINE
8
0
62
5
66
1
10
0
20
0
30
0
70
8
0
VERTEX
8
0
62
5
10
0.13505868
20
0.9227021
30
0
70
32
0
VERTEX
8
0
62
5
10
0.24819577
20
0.9227021
30
0
70
32
0
SEQEND
8
0
0
POLYLINE
8
0
62
5
66
1
10
0
20
0
30
0
70
8
0
VERTEX
8
0
62
5
10
0.16334295
20
0.8827021
30
0
70
32
0
VERTEX
8
0
62
5
10
0.16334295
20
0.8827021
30
0
70
32
0
SEQEND
8
0
0
POLYLINE
8
0
62
5
66
1
10
0
20
0
30
0
70
8
0
VERTEX
8
0
62
5
10
0.19162722
20
0.8827021
30
0
70
32
0
VERTEX
8
0
62
5
10
0.19162722
20
0.8827021
30
0
70
32
0
SEQEND
8
0
0
POLYLINE
8
0
62
5
66
1
10
0
20
0
30
0
70
8
0
VERTEX
8
0
62
5
10
0.2199115
20
0.8827021
30
0
70
32
0
VERTEX
8
0
62
5
10
0.2199115
20
0.8827021
30
0
70
32
0
SEQEND
8
0
0
POLYLINE
8
0
62
5
66
1
10
0
20
0
30
0
70
8
0
VERTEX
8
0
62
5
10
0.16334295
20
0.9227021
30
0
70
32
0
VERTEX
8
0
62
5
10
0.16334295
20
0.9227021
30
0
70
32
0
SEQEND
8
0
0
POLYLINE
8
0
62
5
66
1
10
0
20
0
30
0
70
8
0
VERTEX
8
0
62
5
10
0.19162722
20
0.9227021
30
0
70
32
0
VERTEX
8
0
62
5
10
0.19162722
20
0.9227021
30
0
70
32
0
SEQEND
8
0
0
POLYLINE
8
0
62
5
66
1
10
0
20
0
30
0
70
8
0
VERTEX
8
0
62
5
10
0.2199115
20
0.9227021
30
0
70
32
0
VERTEX
8
0
62
5
10
0.2199115
20
0.9227021
30
0
70
32
0
SEQEND
8
0
0
POLYLINE
8
0
62
30
66
1
10
0
20
0
30
0
70
8
0
VERTEX
8
0
62
30
10
0.13505868
20
0.8827021
30
0
70
32
0
VERTEX
8
0
62
30
10
0.14920082
20
0.9027021
30
0
70
32
0
SEQEND
8
0
0
POLYLINE
8
0
62
30
66
1
10
0
20
0
30
0
70
8
0
VERTEX
8
0
62
30
10
0.14920082
20
0.9027021
30
0
70
32
0
VERTEX
8
0
62
30
10
0.16334295
20
0.8827021
30
0
70
32
0
SEQEND
8
0
0
POLYLINE
8
0
62
30
66
1
10
0
20
0
30
0
70
8
0
VERTEX
8
0
62
30
10
0.19162722
20
0.8827021
30
0
70
32
0
VERTEX
8
0
62
30
10
0.20576936
20
0.9027021
30
0
70
32
0
SEQEND
8
0
0
POLYLINE
8
0
62
30
66
1
10
0
20
0
30
0
70
8
0
VERTEX
8
0
62
30
10
0.20576936
20
0.9027021
30
0
70
32
0
VERTEX
8
0
62
30
10
0.2199115
20
0.8827021
30
0
70
32
0
SEQEND
8
0
0
POLYLINE
8
0
62
30
66
1
10
0
20
0
30
0
70
8
0
VERTEX
8
0
62
30
10
0.16334295
20
0.9027021
30
0
70
32
0
VERTEX
8
0
62
30
10
0.19162722
20
0.9027021
30
0
70
32
0
SEQEND
8
0
0
POLYLINE
8
0
62
30
66
1
10
0
20
0
30
0
70
8
0
VERTEX
8
0
62
30
10
0.2199115
20
0.9027021
30
0
70
32
0
VERTEX
8
0
62
30
10
0.24819577
20
0.9027021
30
0
70
32
0
SEQEND
8
0
0
POLYLINE
8
0
62
5
66
1
10
0
20
0
30
0
70
8
0
VERTEX
8
0
62
5
10
0.13505868
20
0.9027021
30
0
70
32
0
VERTEX
8
0
62
5
10
0.14920082
20
0.9027021
30
0
70
32
0
SEQEND
8
0
0
POLYLINE
8
0
62
5
66
1
10
0
20
0
30
0
70
8
0
VERTEX
8
0
62
5
10
0.19162722
20
0.9027021
30
0
70
32
0
VERTEX
8
0
62
5
10
0.20576936
20
0.9027021
30
0
70
32
0
SEQEND
8
0
0
POLYLINE
8
0
62
5
66
1
10
0
20
0
30
0
70
8
0
VERTEX
8
0
62
5
10
0.14920082
20
0.9027021
30
0
70
32
0
VERTEX
8
0
62
5
10
0.16334295
20
0.9027021
30
0
70
32
0
SEQEND
8
0
0
POLYLINE
8
0
62
5
66
1
10
0
20
0
30
0
70
8
0
VERTEX
8
0
62
5
10
0.20576936
20
0.9027021
30
0
70
32
0
VERTEX
8
0
62
5
10
0.2199115
20
0.9027021
30
0
70
32
0
SEQEND
8
0
0
POLYLINE
8
0
62
5
66
1
10
0
20
0
30
0
70
8
0
VERTEX
8
0
62
5
10
0.16334295
20
0.8827021
30
0
70
32
0
VERTEX
8
0
62
5
10
0.16334295
20
0.9227021
30
0
70
32
0
SEQEND
8
0
0
POLYLINE
8
0
62
5
66
1
10
0
20
0
30
0
70
8
0
VERTEX
8
0
62
5
10
0.19162722
20
0.8827021
30
0
70
32
0
VERTEX
8
0
62
5
10
0.19162722
20
0.9227021
30
0
70
32
0
SEQEND
8
0
0
POLYLINE
8
0
62
5
66
1
10
0
20
0
30
0
70
8
0
VERTEX
8
0
62
5
10
0.2199115
20
0.8827021
30
0
70
32
0
VERTEX
8
0
62
5
10
0.2199115
20
0.9227021
30
0
70
32
0
SEQEND
8
0
0
POLYLINE
8
0
62
5
66
1
10
0
20
0
30
0
70
8
0
VERTEX
8
0
62
5
10
0.13505868
20
0.8827021
30
0
70
32
0
VERTEX
8
0
62
5
10
0.13505868
20
0.9227021
30
0
70
32
0
SEQEND
8
0
0
POLYLINE
8
0
62
5
66
1
10
0
20
0
30
0
70
8
0
VERTEX
8
0
62
5
10
-0.091215489
20
0.8827021
30
0
70
32
0
VERTEX
8
0
62
5
10
-0.091215489
20
0.9227021
30
0
70
32
0
SEQEND
8
0
0
POLYLINE
8
0
62
5
66
1
10
0
20
0
30
0
70
8
0
VERTEX
8
0
62
5
10
-0.091215489
20
0.8827021
30
0
70
32
0
VERTEX
8
0
62
5
10
0.021921596
20
0.8827021
30
0
70
32
0
SEQEND
8
0
0
POLYLINE
8
0
62
5
66
1
10
0
20
0
30
0
70
8
0
VERTEX
8
0
62
5
10
-0.091215489
20
0.9227021
30
0
70
32
0
VERTEX
8
0
62
5
10
0.021921596
20
0.9227021
30
0
70
32
0
SEQEND
8
0
0
POLYLINE
8
0
62
5
66
1
10
0
20
0
30
0
70
8
0
VERTEX
8
0
62
5
10
-0.062931217
20
0.8827021
30
0
70
32
0
VERTEX
8
0
62
5
10
-0.062931217
20
0.8827021
30
0
70
32
0
SEQEND
8
0
0
POLYLINE
8
0
62
5
66
1
10
0
20
0
30
0
70
8
0
VERTEX
8
0
62
5
10
-0.034646946
20
0.8827021
30
0
70
32
0
VERTEX
8
0
62
5
10
-0.034646946
20
0.8827021
30
0
70
32
0
SEQEND
8
0
0
POLYLINE
8
0
62
5
66
1
10
0
20
0
30
0
70
8
0
VERTEX
8
0
62
5
10
-0.0063626748
20
0.8827021
30
0
70
32
0
VERTEX
8
0
62
5
10
-0.0063626748
20
0.8827021
30
0
70
32
0
SEQEND
8
0
0
POLYLINE
8
0
62
5
66
1
10
0
20
0
30
0
70
8
0
VERTEX
8
0
62
5
10
-0.062931217
20
0.9227021
30
0
70
32
0
VERTEX
8
0
62
5
10
-0.062931217
20
0.9227021
30
0
70
32
0
SEQEND
8
0
0
POLYLINE
8
0
62
5
66
1
10
0
20
0
30
0
70
8
0
VERTEX
8
0
62
5
10
-0.034646946
20
0.9227021
30
0
70
32
0
VERTEX
8
0
62
5
10
-0.034646946
20
0.9227021
30
0
70
32
0
SEQEND
8
0
0
POLYLINE
8
0
62
5
66
1
10
0
20
0
30
0
70
8
0
VERTEX
8
0
62
5
10
-0.0063626748
20
0.9227021
30
0
70
32
0
VERTEX
8
0
62
5
10
-0.0063626748
20
0.9227021
30
0
70
32
0
SEQEND
8
0
0
POLYLINE
8
0
62
30
66
1
10
0
20
0
30
0
70
8
0
VERTEX
8
0
62
30
10
-0.091215489
20
0.8827021
30
0
70
32
0
VERTEX
8
0
62
30
10
-0.077073353
20
0.9027021
30
0
70
32
0
SEQEND
8
0
0
POLYLINE
8
0
62
30
66
1
10
0
20
0
30
0
70
8
0
VERTEX
8
0
62
30
10
-0.077073353
20
0.9027021
30
0
70
32
0
VERTEX
8
0
62
30
10
-0.062931217
20
0.8827021
30
0
70
32
0
SEQEND
8
0
0
POLYLINE
8
0
62
30
66
1
10
0
20
0
30
0
70
8
0
VERTEX
8
0
62
30
10
-0.034646946
20
0.8827021
30
0
70
32
0
VERTEX
8
0
62
30
10
-0.02050481
20
0.9027021
30
0
70
32
0
SEQEND
8
0
0
POLYLINE
8
0
62
30
66
1
10
0
20
0
30
0
70
8
0
VERTEX
8
0
62
30
10
-0.02050481
20
0.9027021
30
0
70
32
0
VERTEX
8
0
62
30
10
-0.0063626748
20
0.8827021
30
0
70
32
0
SEQEND
8
0
0
POLYLINE
8
0
62
30
66
1
10
0
20
0
30
0
70
8
0
VERTEX
8
0
62
30
10
-0.062931217
20
0.9027021
30
0
70
32
0
VERTEX
8
0
62
30
10
-0.034646946
20
0.9027021
30
0
70
32
0
SEQEND
8
0
0
POLYLINE
8
0
62
30
66
1
10
0
20
0
30
0
70
8
0
VERTEX
8
0
62
30
10
-0.0063626748
20
0.9027021
30
0
70
32
0
VERTEX
8
0
62
30
10
0.021921596
20
0.9027021
30
0
70
32
0
SEQEND
8
0
0
POLYLINE
8
0
62
5
66
1
10
0
20
0
30
0
70
8
0
VERTEX
8
0
62
5
10
-0.091215489
20
0.9027021
30
0
70
32
0
VERTEX
8
0
62
5
10
-0.077073353
20
0.9027021
30
0
70
32
0
SEQEND
8
0
0
POLYLINE
8
0
62
5
66
1
10
0
20
0
30
0
70
8
0
VERTEX
8
0
62
5
10
-0.034646946
20
0.9027021
30
0
70
32
0
VERTEX
8
0
62
5
10
-0.02050481
20
0.9027021
30
0
70
32
0
SEQEND
8
0
0
POLYLINE
8
0
62
5
66
1
10
0
20
0
30
0
70
8
0
VERTEX
8
0
62
5
10
-0.077073353
20
0.9027021
30
0
70
32
0
VERTEX
8
0
62
5
10
-0.062931217
20
0.9027021
30
0
70
32
0
SEQEND
8
0
0
POLYLINE
8
0
62
5
66
1
10
0
20
0
30
0
70
8
0
VERTEX
8
0
62
5
10
-0.02050481
20
0.9027021
30
0
70
32
0
VERTEX
8
0
62
5
10
-0.0063626748
20
0.9027021
30
0
70
32
0
SEQEND
8
0
0
POLYLINE
8
0
62
5
66
1
10
0
20
0
30
0
70
8
0
VERTEX
8
0
62
5
10
-0.062931217
20
0.8827021
30
0
70
32
0
VERTEX
8
0
62
5
10
-0.062931217
20
0.9227021
30
0
70
32
0
SEQEND
8
0
0
POLYLINE
8
0
62
5
66
1
10
0
20
0
30
0
70
8
0
VERTEX
8
0
62
5
10
-0.034646946
20
0.8827021
30
0
70
32
0
VERTEX
8
0
62
5
10
-0.034646946
20
0.9227021
30
0
70
32
0
SEQEND
8
0
0
POLYLINE
8
0
62
5
66
1
10
0
20
0
30
0
70
8
0
VERTEX
8
0
62
5
10
-0.0063626748
20
0.8827021
30
0
70
32
0
VERTEX
8
0
62
5
10
-0.0063626748
20
0.9227021
30
0
70
32
0
SEQEND
8
0
0
POLYLINE
8
0
62
5
66
1
10
0
20
0
30
0
70
8
0
VERTEX
8
0
62
5
10
-0.091215489
20
0.8827021
30
0
70
32
0
VERTEX
8
0
62
5
10
-0.091215489
20
0.9227021
30
0
70
32
0
SEQEND
8
0
0
POLYLINE
8
0
62
18
66
1
10
0
20
0
30
0
70
8
0
VERTEX
8
0
62
18
10
0
20
0
30
0
70
32
0
VERTEX
8
0
62
18
10
0.14142136
20
0
30
0
70
32
0
VERTEX
8
0
62
18
10
0.14142136
20
0.31391205
30
0
70
32
0
VERTEX
8
0
62
18
10
0
20
0.31391205
30
0
70
32
0
VERTEX
8
0
62
18
10
0
20
0
30
0
70
32
0
SEQEND
8
0
0
POLYLINE
8
0
62
5
66
1
10
0
20
0
30
0
70
8
0
VERTEX
8
0
62
5
10
0
20
0.31391205
30
0
70
32
0
VERTEX
8
0
62
5
10
0.14142136
20
0.31391205
30
0
70
32
0
SEQEND
8
0
0
POLYLINE
8
0
62
18
66
1
10
0
20
0
30
0
70
8
0
VERTEX
8
0
62
18
10
0
20
0.29391205
30
0
70
32
0
VERTEX
8
0
62
18
10
0.14142136
20
0.29391205
30
0
70
32
0
VERTEX
8
0
62
18
10
0.14142136
20
0.60139008
30
0
70
32
0
VERTEX
8
0
62
18
10
0
20
0.60139008
30
0
70
32
0
VERTEX
8
0
62
18
10
0
20
0.29391205
30
0
70
32
0
SEQEND
8
0
0
POLYLINE
8
0
62
5
66
1
10
0
20
0
30
0
70
8
0
VERTEX
8
0
62
5
10
0
20
0.60139008
30
0
70
32
0
VERTEX
8
0
62
5
10
0.14142136
20
0.60139008
30
0
70
32
0
SEQEND
8
0
0
POLYLINE
8
0
62
18
66
1
10
0
20
0
30
0
70
8
0
VERTEX
8
0
62
18
10
0
20
0.58139008
30
0
70
32
0
VERTEX
8
0
62
18
10
0.14142136
20
0.58139008
30
0
70
32
0
VERTEX
8
0
62
18
10
0.14142136
20
0.83041865
30
0
70
32
0
VERTEX
8
0
62
18
10
0
20
0.83041865
30
0
70
32
0
VERTEX
8
0
62
18
10
0
20
0.58139008
30
0
70
32
0
SEQEND
8
0
0
POLYLINE
8
0
62
5
66
1
10
0
20
0
30
0
70
8
0
VERTEX
8
0
62
5
10
0
20
0.83041865
30
0
70
32
0
VERTEX
8
0
62
5
10
0.14142136
20
0.83041865
30
0
70
32
0
SEQEND
8
0
0
POLYLINE
8
0
62
18
66
1
10
0
20
0
30
0
70
8
0
VERTEX
8
0
62
18
10
0
20
0.81041865
30
0
70
32
0
VERTEX
8
0
62
18
10
0.14142136
20
0.81041865
30
0
70
32
0
VERTEX
8
0
62
18
10
0.14142136
20
0.9227021
30
0
70
32
0
VERTEX
8
0
62
18
10
0
20
0.9227021
30
0
70
32
0
VERTEX
8
0
62
18
10
0
20
0.81041865
30
0
70
32
0
SEQEND
8
0
0
POLYLINE
8
0
62
18
66
1
10
0
20
0
30
0
70
8
0
VERTEX
8
0
62
18
10
0.14142136
20
0
30
0
70
32
0
VERTEX
8
0
62
18
10
0
20
0
30
0
70
32
0
VERTEX
8
0
62
18
10
0
20
0.9227021
30
0
70
32
0
VERTEX
8
0
62
18
10
0.14142136
20
0.9227021
30
0
70
32
0
VERTEX
8
0
62
18
10
0.14142136
20
0
30
0
70
32
0
SEQEND
8
0
0
ENDSEC
0
EOF
