0
SECTION
2
HEADER
9
$ACADVER
1
AC1006
9
$INSUNITS
70
6
0
ENDSEC
0
SECTION
2
ENTITIES
0
POLYLINE
8
0
62
5
66
1
10
0
20
0
30
0
70
8
0
VERTEX
8
0
62
5
10
0
20
0
30
0
70
32
0
VERTEX
8
0
62
5
10
0
20
0.1
30
0
70
32
0
SEQEND
8
0
0
POLYLINE
8
0
62
5
66
1
10
0
20
0
30
0
70
8
0
VERTEX
8
0
62
5
10
0.11313708
20
0
30
0
70
32
0
VERTEX
8
0
62
5
10
0.11313708
20
0.1
30
0
70
32
0
SEQEND
8
0
0
POLYLINE
8
0
62
5
66
1
10
0
20
0
30
0
70
8
0
VERTEX
8
0
62
5
10
0.028284271
20
0
30
0
70
32
0
VERTEX
8
0
62
5
10
0.028284271
20
0.1
30
0
70
32
0
SEQEND
8
0
0
POLYLINE
8
0
62
5
66
1
10
0
20
0
30
0
70
8
0
VERTEX
8
0
62
5
10
0.056568542
20
0
30
0
70
32
0
VERTEX
8
0
62
5
10
0.056568542
20
0.1
30
0
70
32
0
SEQEND
8
0
0
POLYLINE
8
0
62
5
66
1
10
0
20
0
30
0
70
8
0
VERTEX
8
0
62
5
10
0.084852814
20
0
30
0
70
32
0
VERTEX
8
0
62
5
10
0.084852814
20
0.1
30
0
70
32
0
SEQEND
8
0
0
POLYLINE
8
0
62
5
66
1
10
0
20
0
30
0
70
8
0
VERTEX
8
0
62
5
10
0.22627417
20
0
30
0
70
32
0
VERTEX
8
0
62
5
10
0.22627417
20
0.1
30
0
70
32
0
SEQEND
8
0
0
POLYLINE
8
0
62
5
66
1
10
0
20
0
30
0
70
8
0
VERTEX
8
0
62
5
10
0.14142136
20
0
30
0
70
32
0
VERTEX
8
0
62
5
10
0.14142136
20
0.1
30
0
70
32
0
SEQEND
8
0
0
POLYLINE
8
0
62
5
66
1
10
0
20
0
30
0
70
8
0
VERTEX
8
0
62
5
10
0.16970563
20
0
30
0
70
32
0
VERTEX
8
0
62
5
10
0.16970563
20
0.1
30
0
70
32
0
SEQEND
8
0
0
POLYLINE
8
0
62
5
66
1
10
0
20
0
30
0
70
8
0
VERTEX
8
0
62
5
10
0.1979899
20
0
30
0
70
32
0
VERTEX
8
0
62
5
10
0.1979899
20
0.1
30
0
70
32
0
SEQEND
8
0
0
POLYLINE
8
0
62
5
66
1
10
0
20
0
30
0
70
8
0
VERTEX
8
0
62
5
10
-0.11313708
20
0
30
0
70
32
0
VERTEX
8
0
62
5
10
-0.11313708
20
0.1
30
0
70
32
0
SEQEND
8
0
0
POLYLINE
8
0
62
5
66
1
10
0
20
0
30
0
70
8
0
VERTEX
8
0
62
5
10
-0.084852814
20
0
30
0
70
32
0
VERTEX
8
0
62
5
10
-0.084852814
20
0.1
30
0
70
32
0
SEQEND
8
0
0
POLYLINE
8
0
62
5
66
1
10
0
20
0
30
0
70
8
0
VERTEX
8
0
62
5
10
-0.056568542
20
0
30
0
70
32
0
VERTEX
8
0
62
5
10
-0.056568542
20
0.1
30
0
70
32
0
SEQEND
8
0
0
POLYLINE
8
0
62
5
66
1
10
0
20
0
30
0
70
8
0
VERTEX
8
0
62
5
10
-0.028284271
20
0
30
0
70
32
0
VERTEX
8
0
62
5
10
-0.028284271
20
0.1
30
0
70
32
0
SEQEND
8
0
0
POLYLINE
8
0
62
5
66
1
10
0
20
0
30
0
70
8
0
VERTEX
8
0
62
5
10
0
20
0.1
30
0
70
32
0
VERTEX
8
0
62
5
10
0
20
0.14
30
0
70
32
0
SEQEND
8
0
0
POLYLINE
8
0
62
5
66
1
10
0
20
0
30
0
70
8
0
VERTEX
8
0
62
5
10
0.11313708
20
0.14
30
0
70
32
0
VERTEX
8
0
62
5
10
0.11313708
20
0.1
30
0
70
32
0
SEQEND
8
0
0
POLYLINE
8
0
62
5
66
1
10
0
20
0
30
0
70
8
0
VERTEX
8
0
62
5
10
0
20
0.1
30
0
70
32
0
VERTEX
8
0
62
5
10
0.11313708
20
0.1
30
0
70
32
0
SEQEND
8
0
0
POLYLINE
8
0
62
5
66
1
10
0
20
0
30
0
70
8
0
VERTEX
8
0
62
5
10
0
20
0.14
30
0
70
32
0
VERTEX
8
0
62
5
10
0.11313708
20
0.14
30
0
70
32
0
SEQEND
8
0
0
POLYLINE
8
0
62
5
66
1
10
0
20
0
30
0
70
8
0
VERTEX
8
0
62
5
10
0.028284271
20
0.1
30
0
70
32
0
VERTEX
8
0
62
5
10
0.028284271
20
0.1
30
0
70
32
0
SEQEND
8
0
0
POLYLINE
8
0
62
5
66
1
10
0
20
0
30
0
70
8
0
VERTEX
8
0
62
5
10
0.056568542
20
0.1
30
0
70
32
0
VERTEX
8
0
62
5
10
0.056568542
20
0.1
30
0
70
32
0
SEQEND
8
0
0
POLYLINE
8
0
62
5
66
1
10
0
20
0
30
0
70
8
0
VERTEX
8
0
62
5
10
0.084852814
20
0.1
30
0
70
32
0
VERTEX
8
0
62
5
10
0.084852814
20
0.1
30
0
70
32
0
SEQEND
8
0
0
POLYLINE
8
0
62
5
66
1
10
0
20
0
30
0
70
8
0
VERTEX
8
0
62
5
10
0.028284271
20
0.14
30
0
70
32
0
VERTEX
8
0
62
5
10
0.028284271
20
0.14
30
0
70
32
0
SEQEND
8
0
0
POLYLINE
8
0
62
5
66
1
10
0
20
0
30
0
70
8
0
VERTEX
8
0
62
5
10
0.056568542
20
0.14
30
0
70
32
0
VERTEX
8
0
62
5
10
0.056568542
20
0.14
30
0
70
32
0
SEQEND
8
0
0
POLYLINE
8
0
62
5
66
1
10
0
20
0
30
0
70
8
0
VERTEX
8
0
62
5
10
0.084852814
20
0.14
30
0
70
32
0
VERTEX
8
0
62
5
10
0.084852814
20
0.14
30
0
70
32
0
SEQEND
8
0
0
POLYLINE
8
0
62
30
66
1
10
0
20
0
30
0
70
8
0
VERTEX
8
0
62
30
10
0
20
0.14
30
0
70
32
0
VERTEX
8
0
62
30
10
0.028284271
20
0.1
30
0
70
32
0
SEQEND
8
0
0
POLYLINE
8
0
62
30
66
1
10
0
20
0
30
0
70
8
0
VERTEX
8
0
62
30
10
0.028284271
20
0.14
30
0
70
32
0
VERTEX
8
0
62
30
10
0
20
0.1
30
0
70
32
0
SEQEND
8
0
0
POLYLINE
8
0
62
30
66
1
10
0
20
0
30
0
70
8
0
VERTEX
8
0
62
30
10
0.056568542
20
0.14
30
0
70
32
0
VERTEX
8
0
62
30
10
0.084852814
20
0.1
30
0
70
32
0
SEQEND
8
0
0
POLYLINE
8
0
62
30
66
1
10
0
20
0
30
0
70
8
0
VERTEX
8
0
62
30
10
0.084852814
20
0.14
30
0
70
32
0
VERTEX
8
0
62
30
10
0.056568542
20
0.1
30
0
70
32
0
SEQEND
8
0
0
POLYLINE
8
0
62
30
66
1
10
0
20
0
30
0
70
8
0
VERTEX
8
0
62
30
10
0.028284271
20
0.12
30
0
70
32
0
VERTEX
8
0
62
30
10
0.056568542
20
0.12
30
0
70
32
0
SEQEND
8
0
0
POLYLINE
8
0
62
30
66
1
10
0
20
0
30
0
70
8
0
VERTEX
8
0
62
30
10
0.084852814
20
0.12
30
0
70
32
0
VERTEX
8
0
62
30
10
0.11313708
20
0.12
30
0
70
32
0
SEQEND
8
0
0
POLYLINE
8
0
62
5
66
1
10
0
20
0
30
0
70
8
0
VERTEX
8
0
62
5
10
0
20
0.12
30
0
70
32
0
VERTEX
8
0
62
5
10
0.014142136
20
0.12
30
0
70
32
0
SEQEND
8
0
0
POLYLINE
8
0
62
5
66
1
10
0
20
0
30
0
70
8
0
VERTEX
8
0
62
5
10
0.056568542
20
0.12
30
0
70
32
0
VERTEX
8
0
62
5
10
0.070710678
20
0.12
30
0
70
32
0
SEQEND
8
0
0
POLYLINE
8
0
62
5
66
1
10
0
20
0
30
0
70
8
0
VERTEX
8
0
62
5
10
0.014142136
20
0.12
30
0
70
32
0
VERTEX
8
0
62
5
10
0.028284271
20
0.12
30
0
70
32
0
SEQEND
8
0
0
POLYLINE
8
0
62
5
66
1
10
0
20
0
30
0
70
8
0
VERTEX
8
0
62
5
10
0.070710678
20
0.12
30
0
70
32
0
VERTEX
8
0
62
5
10
0.084852814
20
0.12
30
0
70
32
0
SEQEND
8
0
0
POLYLINE
8
0
62
5
66
1
10
0
20
0
30
0
70
8
0
VERTEX
8
0
62
5
10
0.028284271
20
0.1
30
0
70
32
0
VERTEX
8
0
62
5
10
0.028284271
20
0.14
30
0
70
32
0
SEQEND
8
0
0
POLYLINE
8
0
62
5
66
1
10
0
20
0
30
0
70
8
0
VERTEX
8
0
62
5
10
0.056568542
20
0.1
30
0
70
32
0
VERTEX
8
0
62
5
10
0.056568542
20
0.14
30
0
70
32
0
SEQEND
8
0
0
POLYLINE
8
0
62
5
66
1
10
0
20
0
30
0
70
8
0
VERTEX
8
0
62
5
10
0.084852814
20
0.1
30
0
70
32
0
VERTEX
8
0
62
5
10
0.084852814
20
0.14
30
0
70
32
0
SEQEND
8
0
0
POLYLINE
8
0
62
5
66
1
10
0
20
0
30
0
70
8
0
VERTEX
8
0
62
5
10
0
20
0.1
30
0
70
32
0
VERTEX
8
0
62
5
10
0
20
0.14
30
0
70
32
0
SEQEND
8
0
0
POLYLINE
8
0
62
5
66
1
10
0
20
0
30
0
70
8
0
VERTEX
8
0
62
5
10
0.22627417
20
0.14
30
0
70
32
0
VERTEX
8
0
62
5
10
0.22627417
20
0.1
30
0
70
32
0
SEQEND
8
0
0
POLYLINE
8
0
62
5
66
1
10
0
20
0
30
0
70
8
0
VERTEX
8
0
62
5
10
0.11313708
20
0.1
30
0
70
32
0
VERTEX
8
0
62
5
10
0.22627417
20
0.1
30
0
70
32
0
SEQEND
8
0
0
POLYLINE
8
0
62
5
66
1
10
0
20
0
30
0
70
8
0
VERTEX
8
0
62
5
10
0.11313708
20
0.14
30
0
70
32
0
VERTEX
8
0
62
5
10
0.22627417
20
0.14
30
0
70
32
0
SEQEND
8
0
0
POLYLINE
8
0
62
5
66
1
10
0
20
0
30
0
70
8
0
VERTEX
8
0
62
5
10
0.14142136
20
0.1
30
0
70
32
0
VERTEX
8
0
62
5
10
0.14142136
20
0.1
30
0
70
32
0
SEQEND
8
0
0
POLYLINE
8
0
62
5
66
1
10
0
20
0
30
0
70
8
0
VERTEX
8
0
62
5
10
0.16970563
20
0.1
30
0
70
32
0
VERTEX
8
0
62
5
10
0.16970563
20
0.1
30
0
70
32
0
SEQEND
8
0
0
POLYLINE
8
0
62
5
66
1
10
0
20
0
30
0
70
8
0
VERTEX
8
0
62
5
10
0.1979899
20
0.1
30
0
70
32
0
VERTEX
8
0
62
5
10
0.1979899
20
0.1
30
0
70
32
0
SEQEND
8
0
0
POLYLINE
8
0
62
5
66
1
10
0
20
0
30
0
70
8
0
VERTEX
8
0
62
5
10
0.14142136
20
0.14
30
0
70
32
0
VERTEX
8
0
62
5
10
0.14142136
20
0.14
30
0
70
32
0
SEQEND
8
0
0
POLYLINE
8
0
62
5
66
1
10
0
20
0
30
0
70
8
0
VERTEX
8
0
62
5
10
0.16970563
20
0.14
30
0
70
32
0
VERTEX
8
0
62
5
10
0.16970563
20
0.14
30
0
70
32
0
SEQEND
8
0
0
POLYLINE
8
0
62
5
66
1
10
0
20
0
30
0
70
8
0
VERTEX
8
0
62
5
10
0.1979899
20
0.14
30
0
70
32
0
VERTEX
8
0
62
5
10
0.1979899
20
0.14
30
0
70
32
0
SEQEND
8
0
0
POLYLINE
8
0
62
30
66
1
10
0
20
0
30
0
70
8
0
VERTEX
8
0
62
30
10
0.11313708
20
0.14
30
0
70
32
0
VERTEX
8
0
62
30
10
0.14142136
20
0.1
30
0
70
32
0
SEQEND
8
0
0
POLYLINE
8
0
62
30
66
1
10
0
20
0
30
0
70
8
0
VERTEX
8
0
62
30
10
0.14142136
20
0.14
30
0
70
32
0
VERTEX
8
0
62
30
10
0.11313708
20
0.1
30
0
70
32
0
SEQEND
8
0
0
POLYLINE
8
0
62
30
66
1
10
0
20
0
30
0
70
8
0
VERTEX
8
0
62
30
10
0.16970563
20
0.14
30
0
70
32
0
VERTEX
8
0
62
30
10
0.1979899
20
0.1
30
0
70
32
0
SEQEND
8
0
0
POLYLINE
8
0
62
30
66
1
10
0
20
0
30
0
70
8
0
VERTEX
8
0
62
30
10
0.1979899
20
0.14
30
0
70
32
0
VERTEX
8
0
62
30
10
0.16970563
20
0.1
30
0
70
32
0
SEQEND
8
0
0
POLYLINE
8
0
62
30
66
1
10
0
20
0
30
0
70
8
0
VERTEX
8
0
62
30
10
0.14142136
20
0.12
30
0
70
32
0
VERTEX
8
0
62
30
10
0.16970563
20
0.12
30
0
70
32
0
SEQEND
8
0
0
POLYLINE
8
0
62
30
66
1
10
0
20
0
30
0
70
8
0
VERTEX
8
0
62
30
10
0.1979899
20
0.12
30
0
70
32
0
VERTEX
8
0
62
30
10
0.22627417
20
0.12
30
0
70
32
0
SEQEND
8
0
0
POLYLINE
8
0
62
5
66
1
10
0
20
0
30
0
70
8
0
VERTEX
8
0
62
5
10
0.11313708
20
0.12
30
0
70
32
0
VERTEX
8
0
62
5
10
0.12727922
20
0.12
30
0
70
32
0
SEQEND
8
0
0
POLYLINE
8
0
62
5
66
1
10
0
20
0
30
0
70
8
0
VERTEX
8
0
62
5
10
0.16970563
20
0.12
30
0
70
32
0
VERTEX
8
0
62
5
10
0.18384776
20
0.12
30
0
70
32
0
SEQEND
8
0
0
POLYLINE
8
0
62
5
66
1
10
0
20
0
30
0
70
8
0
VERTEX
8
0
62
5
10
0.12727922
20
0.12
30
0
70
32
0
VERTEX
8
0
62
5
10
0.14142136
20
0.12
30
0
70
32
0
SEQEND
8
0
0
POLYLINE
8
0
62
5
66
1
10
0
20
0
30
0
70
8
0
VERTEX
8
0
62
5
10
0.18384776
20
0.12
30
0
70
32
0
VERTEX
8
0
62
5
10
0.1979899
20
0.12
30
0
70
32
0
SEQEND
8
0
0
POLYLINE
8
0
62
5
66
1
10
0
20
0
30
0
70
8
0
VERTEX
8
0
62
5
10
0.14142136
20
0.1
30
0
70
32
0
VERTEX
8
0
62
5
10
0.14142136
20
0.14
30
0
70
32
0
SEQEND
8
0
0
POLYLINE
8
0
62
5
66
1
10
0
20
0
30
0
70
8
0
VERTEX
8
0
62
5
10
0.16970563
20
0.1
30
0
70
32
0
VERTEX
8
0
62
5
10
0.16970563
20
0.14
30
0
70
32
0
SEQEND
8
0
0
POLYLINE
8
0
62
5
66
1
10
0
20
0
30
0
70
8
0
VERTEX
8
0
62
5
10
0.1979899
20
0.1
30
0
70
32
0
VERTEX
8
0
62
5
10
0.1979899
20
0.14
30
0
70
32
0
SEQEND
8
0
0
POLYLINE
8
0
62
5
66
1
10
0
20
0
30
0
70
8
0
VERTEX
8
0
62
5
10
0.11313708
20
0.1
30
0
70
32
0
VERTEX
8
0
62
5
10
0.11313708
20
0.14
30
0
70
32
0
SEQEND
8
0
0
POLYLINE
8
0
62
5
66
1
10
0
20
0
30
0
70
8
0
VERTEX
8
0
62
5
10
-0.11313708
20
0.1
30
0
70
32
0
VERTEX
8
0
62
5
10
-0.11313708
20
0.14
30
0
70
32
0
SEQEND
8
0
0
POLYLINE
8
0
62
5
66
1
10
0
20
0
30
0
70
8
0
VERTEX
8
0
62
5
10
-0.11313708
20
0.1
30
0
70
32
0
VERTEX
8
0
62
5
10
0
20
0.1
30
0
70
32
0
SEQEND
8
0
0
POLYLINE
8
0
62
5
66
1
10
0
20
0
30
0
70
8
0
VERTEX
8
0
62
5
10
-0.11313708
20
0.14
30
0
70
32
0
VERTEX
8
0
62
5
10
0
20
0.14
30
0
70
32
0
SEQEND
8
0
0
POLYLINE
8
0
62
5
66
1
10
0
20
0
30
0
70
8
0
VERTEX
8
0
62
5
10
-0.084852814
20
0.1
30
0
70
32
0
VERTEX
8
0
62
5
10
-0.084852814
20
0.1
30
0
70
32
0
SEQEND
8
0
0
POLYLINE
8
0
62
5
66
1
10
0
20
0
30
0
70
8
0
VERTEX
8
0
62
5
10
-0.056568542
20
0.1
30
0
70
32
0
VERTEX
8
0
62
5
10
-0.056568542
20
0.1
30
0
70
32
0
SEQEND
8
0
0
POLYLINE
8
0
62
5
66
1
10
0
20
0
30
0
70
8
0
VERTEX
8
0
62
5
10
-0.028284271
20
0.1
30
0
70
32
0
VERTEX
8
0
62
5
10
-0.028284271
20
0.1
30
0
70
32
0
SEQEND
8
0
0
POLYLINE
8
0
62
5
66
1
10
0
20
0
30
0
70
8
0
VERTEX
8
0
62
5
10
-0.084852814
20
0.14
30
0
70
32
0
VERTEX
8
0
62
5
10
-0.084852814
20
0.14
30
0
70
32
0
SEQEND
8
0
0
POLYLINE
8
0
62
5
66
1
10
0
20
0
30
0
70
8
0
VERTEX
8
0
62
5
10
-0.056568542
20
0.14
30
0
70
32
0
VERTEX
8
0
62
5
10
-0.056568542
20
0.14
30
0
70
32
0
SEQEND
8
0
0
POLYLINE
8
0
62
5
66
1
10
0
20
0
30
0
70
8
0
VERTEX
8
0
62
5
10
-0.028284271
20
0.14
30
0
70
32
0
VERTEX
8
0
62
5
10
-0.028284271
20
0.14
30
0
70
32
0
SEQEND
8
0
0
POLYLINE
8
0
62
30
66
1
10
0
20
0
30
0
70
8
0
VERTEX
8
0
62
30
10
-0.11313708
20
0.14
30
0
70
32
0
VERTEX
8
0
62
30
10
-0.084852814
20
0.1
30
0
70
32
0
SEQEND
8
0
0
POLYLINE
8
0
62
30
66
1
10
0
20
0
30
0
70
8
0
VERTEX
8
0
62
30
10
-0.084852814
20
0.14
30
0
70
32
0
VERTEX
8
0
62
30
10
-0.11313708
20
0.1
30
0
70
32
0
SEQEND
8
0
0
POLYLINE
8
0
62
30
66
1
10
0
20
0
30
0
70
8
0
VERTEX
8
0
62
30
10
-0.056568542
20
0.14
30
0
70
32
0
VERTEX
8
0
62
30
10
-0.028284271
20
0.1
30
0
70
32
0
SEQEND
8
0
0
POLYLINE
8
0
62
30
66
1
10
0
20
0
30
0
70
8
0
VERTEX
8
0
62
30
10
-0.028284271
20
0.14
30
0
70
32
0
VERTEX
8
0
62
30
10
-0.056568542
20
0.1
30
0
70
32
0
SEQEND
8
0
0
POLYLINE
8
0
62
30
66
1
10
0
20
0
30
0
70
8
0
VERTEX
8
0
62
30
10
-0.084852814
20
0.12
30
0
70
32
0
VERTEX
8
0
62
30
10
-0.056568542
20
0.12
30
0
70
32
0
SEQEND
8
0
0
POLYLINE
8
0
62
30
66
1
10
0
20
0
30
0
70
8
0
VERTEX
8
0
62
30
10
-0.028284271
20
0.12
30
0
70
32
0
VERTEX
8
0
62
30
10
0
20
0.12
30
0
70
32
0
SEQEND
8
0
0
POLYLINE
8
0
62
5
66
1
10
0
20
0
30
0
70
8
0
VERTEX
8
0
62
5
10
-0.11313708
20
0.12
30
0
70
32
0
VERTEX
8
0
62
5
10
-0.098994949
20
0.12
30
0
70
32
0
SEQEND
8
0
0
POLYLINE
8
0
62
5
66
1
10
0
20
0
30
0
70
8
0
VERTEX
8
0
62
5
10
-0.056568542
20
0.12
30
0
70
32
0
VERTEX
8
0
62
5
10
-0.042426407
20
0.12
30
0
70
32
0
SEQEND
8
0
0
POLYLINE
8
0
62
5
66
1
10
0
20
0
30
0
70
8
0
VERTEX
8
0
62
5
10
-0.098994949
20
0.12
30
0
70
32
0
VERTEX
8
0
62
5
10
-0.084852814
20
0.12
30
0
70
32
0
SEQEND
8
0
0
POLYLINE
8
0
62
5
66
1
10
0
20
0
30
0
70
8
0
VERTEX
8
0
62
5
10
-0.042426407
20
0.12
30
0
70
32
0
VERTEX
8
0
62
5
10
-0.028284271
20
0.12
30
0
70
32
0
SEQEND
8
0
0
POLYLINE
8
0
62
5
66
1
10
0
20
0
30
0
70
8
0
VERTEX
8
0
62
5
10
-0.084852814
20
0.1
30
0
70
32
0
VERTEX
8
0
62
5
10
-0.084852814
20
0.14
30
0
70
32
0
SEQEND
8
0
0
POLYLINE
8
0
62
5
66
1
10
0
20
0
30
0
70
8
0
VERTEX
8
0
62
5
10
-0.056568542
20
0.1
30
0
70
32
0
VERTEX
8
0
62
5
10
-0.056568542
20
0.14
30
0
70
32
0
SEQEND
8
0
0
POLYLINE
8
0
62
5
66
1
10
0
20
0
30
0
70
8
0
VERTEX
8
0
62
5
10
-0.028284271
20
0.1
30
0
70
32
0
VERTEX
8
0
62
5
10
-0.028284271
20
0.14
30
0
70
32
0
SEQEND
8
0
0
POLYLINE
8
0
62
5
66
1
10
0
20
0
30
0
70
8
0
VERTEX
8
0
62
5
10
-0.11313708
20
0.1
30
0
70
32
0
VERTEX
8
0
62
5
10
-0.11313708
20
0.14
30
0
70
32
0
SEQEND
8
0
0
POLYLINE
8
0
62
5
66
1
10
0
20
0
30
0
70
8
0
VERTEX
8
0
62
5
10
0
20
0.14
30
0
70
32
0
VERTEX
8
0
62
5
10
0
20
0.21728155
30
0
70
32
0
SEQEND
8
0
0
POLYLINE
8
0
62
5
66
1
10
0
20
0
30
0
70
8
0
VERTEX
8
0
62
5
10
0.11313708
20
0.21728155
30
0
70
32
0
VERTEX
8
0
62
5
10
0.11313708
20
0.14
30
0
70
32
0
SEQEND
8
0
0
POLYLINE
8
0
62
5
66
1
10
0
20
0
30
0
70
8
0
VERTEX
8
0
62
5
10
0
20
0.14331484
30
0
70
32
0
VERTEX
8
0
62
5
10
0.028284271
20
0.14331486
30
0
70
32
0
VERTEX
8
0
62
5
10
0.056568542
20
0.15932039
30
0
70
32
0
VERTEX
8
0
62
5
10
0.084852814
20
0.15932037
30
0
70
32
0
VERTEX
8
0
62
5
10
0.11313708
20
0.14331484
30
0
70
32
0
SEQEND
8
0
0
POLYLINE
8
0
62
5
66
1
10
0
20
0
30
0
70
8
0
VERTEX
8
0
62
5
10
0
20
0.18195562
30
0
70
32
0
VERTEX
8
0
62
5
10
0.028284271
20
0.18195564
30
0
70
32
0
VERTEX
8
0
62
5
10
0.056568542
20
0.19796116
30
0
70
32
0
VERTEX
8
0
62
5
10
0.084852814
20
0.19796115
30
0
70
32
0
VERTEX
8
0
62
5
10
0.11313708
20
0.18195562
30
0
70
32
0
SEQEND
8
0
0
POLYLINE
8
0
62
5
66
1
10
0
20
0
30
0
70
8
0
VERTEX
8
0
62
5
10
0
20
0.17532593
30
0
70
32
0
VERTEX
8
0
62
5
10
0.028284271
20
0.17532591
30
0
70
32
0
VERTEX
8
0
62
5
10
0.056568542
20
0.15932039
30
0
70
32
0
VERTEX
8
0
62
5
10
0.084852814
20
0.1593204
30
0
70
32
0
VERTEX
8
0
62
5
10
0.11313708
20
0.17532593
30
0
70
32
0
SEQEND
8
0
0
POLYLINE
8
0
62
5
66
1
10
0
20
0
30
0
70
8
0
VERTEX
8
0
62
5
10
0
20
0.21396671
30
0
70
32
0
VERTEX
8
0
62
5
10
0.028284271
20
0.21396669
30
0
70
32
0
VERTEX
8
0
62
5
10
0.056568542
20
0.19796116
30
0
70
32
0
VERTEX
8
0
62
5
10
0.084852814
20
0.19796118
30
0
70
32
0
VERTEX
8
0
62
5
10
0.11313708
20
0.21396671
30
0
70
32
0
SEQEND
8
0
0
POLYLINE
8
0
62
30
66
1
10
0
20
0
30
0
70
8
0
VERTEX
8
0
62
30
10
0
20
0.15932039
30
0
70
32
0
VERTEX
8
0
62
30
10
0.11313708
20
0.15932039
30
0
70
32
0
SEQEND
8
0
0
POLYLINE
8
0
62
30
66
1
10
0
20
0
30
0
70
8
0
VERTEX
8
0
62
30
10
0
20
0.19796116
30
0
70
32
0
VERTEX
8
0
62
30
10
0.11313708
20
0.19796116
30
0
70
32
0
SEQEND
8
0
0
POLYLINE
8
0
62
30
66
1
10
0
20
0
30
0
70
8
0
VERTEX
8
0
62
30
10
0.028284271
20
0.14331486
30
0
70
32
0
VERTEX
8
0
62
30
10
0.028284271
20
0.15932039
30
0
70
32
0
SEQEND
8
0
0
POLYLINE
8
0
62
30
66
1
10
0
20
0
30
0
70
8
0
VERTEX
8
0
62
30
10
0.056568542
20
0.15932039
30
0
70
32
0
VERTEX
8
0
62
30
10
0.056568542
20
0.15932039
30
0
70
32
0
SEQEND
8
0
0
POLYLINE
8
0
62
30
66
1
10
0
20
0
30
0
70
8
0
VERTEX
8
0
62
30
10
0.084852814
20
0.15932037
30
0
70
32
0
VERTEX
8
0
62
30
10
0.084852814
20
0.15932039
30
0
70
32
0
SEQEND
8
0
0
POLYLINE
8
0
62
30
66
1
10
0
20
0
30
0
70
8
0
VERTEX
8
0
62
30
10
0.028284271
20
0.18195564
30
0
70
32
0
VERTEX
8
0
62
30
10
0.028284271
20
0.19796116
30
0
70
32
0
SEQEND
8
0
0
POLYLINE
8
0
62
30
66
1
10
0
20
0
30
0
70
8
0
VERTEX
8
0
62
30
10
0.056568542
20
0.19796116
30
0
70
32
0
VERTEX
8
0
62
30
10
0.056568542
20
0.19796116
30
0
70
32
0
SEQEND
8
0
0
POLYLINE
8
0
62
30
66
1
10
0
20
0
30
0
70
8
0
VERTEX
8
0
62
30
10
0.084852814
20
0.19796115
30
0
70
32
0
VERTEX
8
0
62
30
10
0.084852814
20
0.19796116
30
0
70
32
0
SEQEND
8
0
0
POLYLINE
8
0
62
5
66
1
10
0
20
0
30
0
70
8
0
VERTEX
8
0
62
5
10
0.028284271
20
0.14
30
0
70
32
0
VERTEX
8
0
62
5
10
0.028284271
20
0.14331486
30
0
70
32
0
SEQEND
8
0
0
POLYLINE
8
0
62
5
66
1
10
0
20
0
30
0
70
8
0
VERTEX
8
0
62
5
10
0.056568542
20
0.14
30
0
70
32
0
VERTEX
8
0
62
5
10
0.056568542
20
0.15932039
30
0
70
32
0
SEQEND
8
0
0
POLYLINE
8
0
62
5
66
1
10
0
20
0
30
0
70
8
0
VERTEX
8
0
62
5
10
0.084852814
20
0.14
30
0
70
32
0
VERTEX
8
0
62
5
10
0.084852814
20
0.15932037
30
0
70
32
0
SEQEND
8
0
0
POLYLINE
8
0
62
5
66
1
10
0
20
0
30
0
70
8
0
VERTEX
8
0
62
5
10
0.028284271
20
0.17864078
30
0
70
32
0
VERTEX
8
0
62
5
10
0.028284271
20
0.18195564
30
0
70
32
0
SEQEND
8
0
0
POLYLINE
8
0
62
5
66
1
10
0
20
0
30
0
70
8
0
VERTEX
8
0
62
5
10
0.056568542
20
0.17864078
30
0
70
32
0
VERTEX
8
0
62
5
10
0.056568542
20
0.19796116
30
0
70
32
0
SEQEND
8
0
0
POLYLINE
8
0
62
5
66
1
10
0
20
0
30
0
70
8
0
VERTEX
8
0
62
5
10
0.084852814
20
0.17864078
30
0
70
32
0
VERTEX
8
0
62
5
10
0.084852814
20
0.19796115
30
0
70
32
0
SEQEND
8
0
0
POLYLINE
8
0
62
5
66
1
10
0
20
0
30
0
70
8
0
VERTEX
8
0
62
5
10
0.028284271
20
0.15932039
30
0
70
32
0
VERTEX
8
0
62
5
10
0.028284271
20
0.17864078
30
0
70
32
0
SEQEND
8
0
0
POLYLINE
8
0
62
5
66
1
10
0
20
0
30
0
70
8
0
VERTEX
8
0
62
5
10
0.056568542
20
0.15932039
30
0
70
32
0
VERTEX
8
0
62
5
10
0.056568542
20
0.17864078
30
0
70
32
0
SEQEND
8
0
0
POLYLINE
8
0
62
5
66
1
10
0
20
0
30
0
70
8
0
VERTEX
8
0
62
5
10
0.084852814
20
0.15932039
30
0
70
32
0
VERTEX
8
0
62
5
10
0.084852814
20
0.17864078
30
0
70
32
0
SEQEND
8
0
0
POLYLINE
8
0
62
5
66
1
10
0
20
0
30
0
70
8
0
VERTEX
8
0
62
5
10
0.028284271
20
0.19796116
30
0
70
32
0
VERTEX
8
0
62
5
10
0.028284271
20
0.21728155
30
0
70
32
0
SEQEND
8
0
0
POLYLINE
8
0
62
5
66
1
10
0
20
0
30
0
70
8
0
VERTEX
8
0
62
5
10
0.056568542
20
0.19796116
30
0
70
32
0
VERTEX
8
0
62
5
10
0.056568542
20
0.21728155
30
0
70
32
0
SEQEND
8
0
0
POLYLINE
8
0
62
5
66
1
10
0
20
0
30
0
70
8
0
VERTEX
8
0
62
5
10
0.084852814
20
0.19796116
30
0
70
32
0
VERTEX
8
0
62
5
10
0.084852814
20
0.21728155
30
0
70
32
0
SEQEND
8
0
0
POLYLINE
8
0
62
30
66
1
10
0
20
0
30
0
70
8
0
VERTEX
8
0
62
30
10
0
20
0.14331484
30
0
70
32
0
VERTEX
8
0
62
30
10
0.0093332766
20
0.15932039
30
0
70
32
0
VERTEX
8
0
62
30
10
0
20
0.17532593
30
0
70
32
0
SEQEND
8
0
0
POLYLINE
8
0
62
30
66
1
10
0
20
0
30
0
70
8
0
VERTEX
8
0
62
30
10
0.028284271
20
0.14331486
30
0
70
32
0
VERTEX
8
0
62
30
10
0.037617544
20
0.15932039
30
0
70
32
0
VERTEX
8
0
62
30
10
0.028284271
20
0.17532591
30
0
70
32
0
SEQEND
8
0
0
POLYLINE
8
0
62
30
66
1
10
0
20
0
30
0
70
8
0
VERTEX
8
0
62
30
10
0.056568542
20
0.15932039
30
0
70
32
0
VERTEX
8
0
62
30
10
0.056568542
20
0.15932039
30
0
70
32
0
VERTEX
8
0
62
30
10
0.056568542
20
0.15932039
30
0
70
32
0
SEQEND
8
0
0
POLYLINE
8
0
62
30
66
1
10
0
20
0
30
0
70
8
0
VERTEX
8
0
62
30
10
0.084852814
20
0.15932037
30
0
70
32
0
VERTEX
8
0
62
30
10
0.084852843
20
0.15932039
30
0
70
32
0
VERTEX
8
0
62
30
10
0.084852814
20
0.1593204
30
0
70
32
0
SEQEND
8
0
0
POLYLINE
8
0
62
30
66
1
10
0
20
0
30
0
70
8
0
VERTEX
8
0
62
30
10
0
20
0.18195562
30
0
70
32
0
VERTEX
8
0
62
30
10
0.0093332766
20
0.19796116
30
0
70
32
0
VERTEX
8
0
62
30
10
0
20
0.21396671
30
0
70
32
0
SEQEND
8
0
0
POLYLINE
8
0
62
30
66
1
10
0
20
0
30
0
70
8
0
VERTEX
8
0
62
30
10
0.028284271
20
0.18195564
30
0
70
32
0
VERTEX
8
0
62
30
10
0.037617544
20
0.19796116
30
0
70
32
0
VERTEX
8
0
62
30
10
0.028284271
20
0.21396669
30
0
70
32
0
SEQEND
8
0
0
POLYLINE
8
0
62
30
66
1
10
0
20
0
30
0
70
8
0
VERTEX
8
0
62
30
10
0.056568542
20
0.19796116
30
0
70
32
0
VERTEX
8
0
62
30
10
0.056568542
20
0.19796116
30
0
70
32
0
VERTEX
8
0
62
30
10
0.056568542
20
0.19796116
30
0
70
32
0
SEQEND
8
0
0
POLYLINE
8
0
62
30
66
1
10
0
20
0
30
0
70
8
0
VERTEX
8
0
62
30
10
0.084852814
20
0.19796115
30
0
70
32
0
VERTEX
8
0
62
30
10
0.084852843
20
0.19796116
30
0
70
32
0
VERTEX
8
0
62
30
10
0.084852814
20
0.19796118
30
0
70
32
0
SEQEND
8
0
0
POLYLINE
8
0
62
5
66
1
10
0
20
0
30
0
70
8
0
VERTEX
8
0
62
5
10
0.22627417
20
0.21728155
30
0
70
32
0
VERTEX
8
0
62
5
10
0.22627417
20
0.14
30
0
70
32
0
SEQEND
8
0
0
POLYLINE
8
0
62
5
66
1
10
0
20
0
30
0
70
8
0
VERTEX
8
0
62
5
10
0.11313708
20
0.14331484
30
0
70
32
0
VERTEX
8
0
62
5
10
0.14142136
20
0.14331486
30
0
70
32
0
VERTEX
8
0
62
5
10
0.16970563
20
0.15932039
30
0
70
32
0
VERTEX
8
0
62
5
10
0.1979899
20
0.15932037
30
0
70
32
0
VERTEX
8
0
62
5
10
0.22627417
20
0.14331484
30
0
70
32
0
SEQEND
8
0
0
POLYLINE
8
0
62
5
66
1
10
0
20
0
30
0
70
8
0
VERTEX
8
0
62
5
10
0.11313708
20
0.18195562
30
0
70
32
0
VERTEX
8
0
62
5
10
0.14142136
20
0.18195564
30
0
70
32
0
VERTEX
8
0
62
5
10
0.16970563
20
0.19796116
30
0
70
32
0
VERTEX
8
0
62
5
10
0.1979899
20
0.19796115
30
0
70
32
0
VERTEX
8
0
62
5
10
0.22627417
20
0.18195562
30
0
70
32
0
SEQEND
8
0
0
POLYLINE
8
0
62
5
66
1
10
0
20
0
30
0
70
8
0
VERTEX
8
0
62
5
10
0.11313708
20
0.17532593
30
0
70
32
0
VERTEX
8
0
62
5
10
0.14142136
20
0.17532591
30
0
70
32
0
VERTEX
8
0
62
5
10
0.16970563
20
0.15932039
30
0
70
32
0
VERTEX
8
0
62
5
10
0.1979899
20
0.1593204
30
0
70
32
0
VERTEX
8
0
62
5
10
0.22627417
20
0.17532593
30
0
70
32
0
SEQEND
8
0
0
POLYLINE
8
0
62
5
66
1
10
0
20
0
30
0
70
8
0
VERTEX
8
0
62
5
10
0.11313708
20
0.21396671
30
0
70
32
0
VERTEX
8
0
62
5
10
0.14142136
20
0.21396669
30
0
70
32
0
VERTEX
8
0
62
5
10
0.16970563
20
0.19796116
30
0
70
32
0
VERTEX
8
0
62
5
10
0.1979899
20
0.19796118
30
0
70
32
0
VERTEX
8
0
62
5
10
0.22627417
20
0.21396671
30
0
70
32
0
SEQEND
8
0
0
POLYLINE
8
0
62
30
66
1
10
0
20
0
30
0
70
8
0
VERTEX
8
0
62
30
10
0.11313708
20
0.15932039
30
0
70
32
0
VERTEX
8
0
62
30
10
0.22627417
20
0.15932039
30
0
70
32
0
SEQEND
8
0
0
POLYLINE
8
0
62
30
66
1
10
0
20
0
30
0
70
8
0
VERTEX
8
0
62
30
10
0.11313708
20
0.19796116
30
0
70
32
0
VERTEX
8
0
62
30
10
0.22627417
20
0.19796116
30
0
70
32
0
SEQEND
8
0
0
POLYLINE
8
0
62
30
66
1
10
0
20
0
30
0
70
8
0
VERTEX
8
0
62
30
10
0.14142136
20
0.14331486
30
0
70
32
0
VERTEX
8
0
62
30
10
0.14142136
20
0.15932039
30
0
70
32
0
SEQEND
8
0
0
POLYLINE
8
0
62
30
66
1
10
0
20
0
30
0
70
8
0
VERTEX
8
0
62
30
10
0.16970563
20
0.15932039
30
0
70
32
0
VERTEX
8
0
62
30
10
0.16970563
20
0.15932039
30
0
70
32
0
SEQEND
8
0
0
POLYLINE
8
0
62
30
66
1
10
0
20
0
30
0
70
8
0
VERTEX
8
0
62
30
10
0.1979899
20
0.15932037
30
0
70
32
0
VERTEX
8
0
62
30
10
0.1979899
20
0.15932039
30
0
70
32
0
SEQEND
8
0
0
POLYLINE
8
0
62
30
66
1
10
0
20
0
30
0
70
8
0
VERTEX
8
0
62
30
10
0.14142136
20
0.18195564
30
0
70
32
0
VERTEX
8
0
62
30
10
0.14142136
20
0.19796116
30
0
70
32
0
SEQEND
8
0
0
POLYLINE
8
0
62
30
66
1
10
0
20
0
30
0
70
8
0
VERTEX
8
0
62
30
10
0.16970563
20
0.19796116
30
0
70
32
0
VERTEX
8
0
62
30
10
0.16970563
20
0.19796116
30
0
70
32
0
SEQEND
8
0
0
POLYLINE
8
0
62
30
66
1
10
0
20
0
30
0
70
8
0
VERTEX
8
0
62
30
10
0.1979899
20
0.19796115
30
0
70
32
0
VERTEX
8
0
62
30
10
0.1979899
20
0.19796116
30
0
70
32
0
SEQEND
8
0
0
POLYLINE
8
0
62
5
66
1
10
0
20
0
30
0
70
8
0
VERTEX
8
0
62
5
10
0.14142136
20
0.14
30
0
70
32
0
VERTEX
8
0
62
5
10
0.14142136
20
0.14331486
30
0
70
32
0
SEQEND
8
0
0
POLYLINE
8
0
62
5
66
1
10
0
20
0
30
0
70
8
0
VERTEX
8
0
62
5
10
0.16970563
20
0.14
30
0
70
32
0
VERTEX
8
0
62
5
10
0.16970563
20
0.15932039
30
0
70
32
0
SEQEND
8
0
0
POLYLINE
8
0
62
5
66
1
10
0
20
0
30
0
70
8
0
VERTEX
8
0
62
5
10
0.1979899
20
0.14
30
0
70
32
0
VERTEX
8
0
62
5
10
0.1979899
20
0.15932037
30
0
70
32
0
SEQEND
8
0
0
POLYLINE
8
0
62
5
66
1
10
0
20
0
30
0
70
8
0
VERTEX
8
0
62
5
10
0.14142136
20
0.17864078
30
0
70
32
0
VERTEX
8
0
62
5
10
0.14142136
20
0.18195564
30
0
70
32
0
SEQEND
8
0
0
POLYLINE
8
0
62
5
66
1
10
0
20
0
30
0
70
8
0
VERTEX
8
0
62
5
10
0.16970563
20
0.17864078
30
0
70
32
0
VERTEX
8
0
62
5
10
0.16970563
20
0.19796116
30
0
70
32
0
SEQEND
8
0
0
POLYLINE
8
0
62
5
66
1
10
0
20
0
30
0
70
8
0
VERTEX
8
0
62
5
10
0.1979899
20
0.17864078
30
0
70
32
0
VERTEX
8
0
62
5
10
0.1979899
20
0.19796115
30
0
70
32
0
SEQEND
8
0
0
POLYLINE
8
0
62
5
66
1
10
0
20
0
30
0
70
8
0
VERTEX
8
0
62
5
10
0.14142136
20
0.15932039
30
0
70
32
0
VERTEX
8
0
62
5
10
0.14142136
20
0.17864078
30
0
70
32
0
SEQEND
8
0
0
POLYLINE
8
0
62
5
66
1
10
0
20
0
30
0
70
8
0
VERTEX
8
0
62
5
10
0.16970563
20
0.15932039
30
0
70
32
0
VERTEX
8
0
62
5
10
0.16970563
20
0.17864078
30
0
70
32
0
SEQEND
8
0
0
POLYLINE
8
0
62
5
66
1
10
0
20
0
30
0
70
8
0
VERTEX
8
0
62
5
10
0.1979899
20
0.15932039
30
0
70
32
0
VERTEX
8
0
62
5
10
0.1979899
20
0.17864078
30
0
70
32
0
SEQEND
8
0
0
POLYLINE
8
0
62
5
66
1
10
0
20
0
30
0
70
8
0
VERTEX
8
0
62
5
10
0.14142136
20
0.19796116
30
0
70
32
0
VERTEX
8
0
62
5
10
0.14142136
20
0.21728155
30
0
70
32
0
SEQEND
8
0
0
POLYLINE
8
0
62
5
66
1
10
0
20
0
30
0
70
8
0
VERTEX
8
0
62
5
10
0.16970563
20
0.19796116
30
0
70
32
0
VERTEX
8
0
62
5
10
0.16970563
20
0.21728155
30
0
70
32
0
SEQEND
8
0
0
POLYLINE
8
0
62
5
66
1
10
0
20
0
30
0
70
8
0
VERTEX
8
0
62
5
10
0.1979899
20
0.19796116
30
0
70
32
0
VERTEX
8
0
62
5
10
0.1979899
20
0.21728155
30
0
70
32
0
SEQEND
8
0
0
POLYLINE
8
0
62
30
66
1
10
0
20
0
30
0
70
8
0
VERTEX
8
0
62
30
10
0.11313708
20
0.14331484
30
0
70
32
0
VERTEX
8
0
62
30
10
0.12247036
20
0.15932039
30
0
70
32
0
VERTEX
8
0
62
30
10
0.11313708
20
0.17532593
30
0
70
32
0
SEQEND
8
0
0
POLYLINE
8
0
62
30
66
1
10
0
20
0
30
0
70
8
0
VERTEX
8
0
62
30
10
0.14142136
20
0.14331486
30
0
70
32
0
VERTEX
8
0
62
30
10
0.15075463
20
0.15932039
30
0
70
32
0
VERTEX
8
0
62
30
10
0.14142136
20
0.17532591
30
0
70
32
0
SEQEND
8
0
0
POLYLINE
8
0
62
30
66
1
10
0
20
0
30
0
70
8
0
VERTEX
8
0
62
30
10
0.16970563
20
0.15932039
30
0
70
32
0
VERTEX
8
0
62
30
10
0.16970563
20
0.15932039
30
0
70
32
0
VERTEX
8
0
62
30
10
0.16970563
20
0.15932039
30
0
70
32
0
SEQEND
8
0
0
POLYLINE
8
0
62
30
66
1
10
0
20
0
30
0
70
8
0
VERTEX
8
0
62
30
10
0.1979899
20
0.15932037
30
0
70
32
0
VERTEX
8
0
62
30
10
0.19798993
20
0.15932039
30
0
70
32
0
VERTEX
8
0
62
30
10
0.1979899
20
0.1593204
30
0
70
32
0
SEQEND
8
0
0
POLYLINE
8
0
62
30
66
1
10
0
20
0
30
0
70
8
0
VERTEX
8
0
62
30
10
0.11313708
20
0.18195562
30
0
70
32
0
VERTEX
8
0
62
30
10
0.12247036
20
0.19796116
30
0
70
32
0
VERTEX
8
0
62
30
10
0.11313708
20
0.21396671
30
0
70
32
0
SEQEND
8
0
0
POLYLINE
8
0
62
30
66
1
10
0
20
0
30
0
70
8
0
VERTEX
8
0
62
30
10
0.14142136
20
0.18195564
30
0
70
32
0
VERTEX
8
0
62
30
10
0.15075463
20
0.19796116
30
0
70
32
0
VERTEX
8
0
62
30
10
0.14142136
20
0.21396669
30
0
70
32
0
SEQEND
8
0
0
POLYLINE
8
0
62
30
66
1
10
0
20
0
30
0
70
8
0
VERTEX
8
0
62
30
10
0.16970563
20
0.19796116
30
0
70
32
0
VERTEX
8
0
62
30
10
0.16970563
20
0.19796116
30
0
70
32
0
VERTEX
8
0
62
30
10
0.16970563
20
0.19796116
30
0
70
32
0
SEQEND
8
0
0
POLYLINE
8
0
62
30
66
1
10
0
20
0
30
0
70
8
0
VERTEX
8
0
62
30
10
0.1979899
20
0.19796115
30
0
70
32
0
VERTEX
8
0
62
30
10
0.19798993
20
0.19796116
30
0
70
32
0
VERTEX
8
0
62
30
10
0.1979899
20
0.19796118
30
0
70
32
0
SEQEND
8
0
0
POLYLINE
8
0
62
5
66
1
10
0
20
0
30
0
70
8
0
VERTEX
8
0
62
5
10
-0.11313708
20
0.14
30
0
70
32
0
VERTEX
8
0
62
5
10
-0.11313708
20
0.21728155
30
0
70
32
0
SEQEND
8
0
0
POLYLINE
8
0
62
5
66
1
10
0
20
0
30
0
70
8
0
VERTEX
8
0
62
5
10
-0.11313708
20
0.14331484
30
0
70
32
0
VERTEX
8
0
62
5
10
-0.084852814
20
0.14331486
30
0
70
32
0
VERTEX
8
0
62
5
10
-0.056568542
20
0.15932039
30
0
70
32
0
VERTEX
8
0
62
5
10
-0.028284271
20
0.15932037
30
0
70
32
0
VERTEX
8
0
62
5
10
0
20
0.14331484
30
0
70
32
0
SEQEND
8
0
0
POLYLINE
8
0
62
5
66
1
10
0
20
0
30
0
70
8
0
VERTEX
8
0
62
5
10
-0.11313708
20
0.18195562
30
0
70
32
0
VERTEX
8
0
62
5
10
-0.084852814
20
0.18195564
30
0
70
32
0
VERTEX
8
0
62
5
10
-0.056568542
20
0.19796116
30
0
70
32
0
VERTEX
8
0
62
5
10
-0.028284271
20
0.19796115
30
0
70
32
0
VERTEX
8
0
62
5
10
0
20
0.18195562
30
0
70
32
0
SEQEND
8
0
0
POLYLINE
8
0
62
5
66
1
10
0
20
0
30
0
70
8
0
VERTEX
8
0
62
5
10
-0.11313708
20
0.17532593
30
0
70
32
0
VERTEX
8
0
62
5
10
-0.084852814
20
0.17532591
30
0
70
32
0
VERTEX
8
0
62
5
10
-0.056568542
20
0.15932039
30
0
70
32
0
VERTEX
8
0
62
5
10
-0.028284271
20
0.1593204
30
0
70
32
0
VERTEX
8
0
62
5
10
0
20
0.17532593
30
0
70
32
0
SEQEND
8
0
0
POLYLINE
8
0
62
5
66
1
10
0
20
0
30
0
70
8
0
VERTEX
8
0
62
5
10
-0.11313708
20
0.21396671
30
0
70
32
0
VERTEX
8
0
62
5
10
-0.084852814
20
0.21396669
30
0
70
32
0
VERTEX
8
0
62
5
10
-0.056568542
20
0.19796116
30
0
70
32
0
VERTEX
8
0
62
5
10
-0.028284271
20
0.19796118
30
0
70
32
0
VERTEX
8
0
62
5
10
0
20
0.21396671
30
0
70
32
0
SEQEND
8
0
0
POLYLINE
8
0
62
30
66
1
10
0
20
0
30
0
70
8
0
VERTEX
8
0
62
30
10
-0.11313708
20
0.15932039
30
0
70
32
0
VERTEX
8
0
62
30
10
0
20
0.15932039
30
0
70
32
0
SEQEND
8
0
0
POLYLINE
8
0
62
30
66
1
10
0
20
0
30
0
70
8
0
VERTEX
8
0
62
30
10
-0.11313708
20
0.19796116
30
0
70
32
0
VERTEX
8
0
62
30
10
0
20
0.19796116
30
0
70
32
0
SEQEND
8
0
0
POLYLINE
8
0
62
30
66
1
10
0
20
0
30
0
70
8
0
VERTEX
8
0
62
30
10
-0.084852814
20
0.14331486
30
0
70
32
0
VERTEX
8
0
62
30
10
-0.084852814
20
0.15932039
30
0
70
32
0
SEQEND
8
0
0
POLYLINE
8
0
62
30
66
1
10
0
20
0
30
0
70
8
0
VERTEX
8
0
62
30
10
-0.056568542
20
0.15932039
30
0
70
32
0
VERTEX
8
0
62
30
10
-0.056568542
20
0.15932039
30
0
70
32
0
SEQEND
8
0
0
POLYLINE
8
0
62
30
66
1
10
0
20
0
30
0
70
8
0
VERTEX
8
0
62
30
10
-0.028284271
20
0.15932037
30
0
70
32
0
VERTEX
8
0
62
30
10
-0.028284271
20
0.15932039
30
0
70
32
0
SEQEND
8
0
0
POLYLINE
8
0
62
30
66
1
10
0
20
0
30
0
70
8
0
VERTEX
8
0
62
30
10
-0.084852814
20
0.18195564
30
0
70
32
0
VERTEX
8
0
62
30
10
-0.084852814
20
0.19796116
30
0
70
32
0
SEQEND
8
0
0
POLYLINE
8
0
62
30
66
1
10
0
20
0
30
0
70
8
0
VERTEX
8
0
62
30
10
-0.056568542
20
0.19796116
30
0
70
32
0
VERTEX
8
0
62
30
10
-0.056568542
20
0.19796116
30
0
70
32
0
SEQEND
8
0
0
POLYLINE
8
0
62
30
66
1
10
0
20
0
30
0
70
8
0
VERTEX
8
0
62
30
10
-0.028284271
20
0.19796115
30
0
70
32
0
VERTEX
8
0
62
30
10
-0.028284271
20
0.19796116
30
0
70
32
0
SEQEND
8
0
0
POLYLINE
8
0
62
5
66
1
10
0
20
0
30
0
70
8
0
VERTEX
8
0
62
5
10
-0.084852814
20
0.14
30
0
70
32
0
VERTEX
8
0
62
5
10
-0.084852814
20
0.14331486
30
0
70
32
0
SEQEND
8
0
0
POLYLINE
8
0
62
5
66
1
10
0
20
0
30
0
70
8
0
VERTEX
8
0
62
5
10
-0.056568542
20
0.14
30
0
70
32
0
VERTEX
8
0
62
5
10
-0.056568542
20
0.15932039
30
0
70
32
0
SEQEND
8
0
0
POLYLINE
8
0
62
5
66
1
10
0
20
0
30
0
70
8
0
VERTEX
8
0
62
5
10
-0.028284271
20
0.14
30
0
70
32
0
VERTEX
8
0
62
5
10
-0.028284271
20
0.15932037
30
0
70
32
0
SEQEND
8
0
0
POLYLINE
8
0
62
5
66
1
10
0
20
0
30
0
70
8
0
VERTEX
8
0
62
5
10
-0.084852814
20
0.17864078
30
0
70
32
0
VERTEX
8
0
62
5
10
-0.084852814
20
0.18195564
30
0
70
32
0
SEQEND
8
0
0
POLYLINE
8
0
62
5
66
1
10
0
20
0
30
0
70
8
0
VERTEX
8
0
62
5
10
-0.056568542
20
0.17864078
30
0
70
32
0
VERTEX
8
0
62
5
10
-0.056568542
20
0.19796116
30
0
70
32
0
SEQEND
8
0
0
POLYLINE
8
0
62
5
66
1
10
0
20
0
30
0
70
8
0
VERTEX
8
0
62
5
10
-0.028284271
20
0.17864078
30
0
70
32
0
VERTEX
8
0
62
5
10
-0.028284271
20
0.19796115
30
0
70
32
0
SEQEND
8
0
0
POLYLINE
8
0
62
5
66
1
10
0
20
0
30
0
70
8
0
VERTEX
8
0
62
5
10
-0.084852814
20
0.15932039
30
0
70
32
0
VERTEX
8
0
62
5
10
-0.084852814
20
0.17864078
30
0
70
32
0
SEQEND
8
0
0
POLYLINE
8
0
62
5
66
1
10
0
20
0
30
0
70
8
0
VERTEX
8
0
62
5
10
-0.056568542
20
0.15932039
30
0
70
32
0
VERTEX
8
0
62
5
10
-0.056568542
20
0.17864078
30
0
70
32
0
SEQEND
8
0
0
POLYLINE
8
0
62
5
66
1
10
0
20
0
30
0
70
8
0
VERTEX
8
0
62
5
10
-0.028284271
20
0.15932039
30
0
70
32
0
VERTEX
8
0
62
5
10
-0.028284271
20
0.17864078
30
0
70
32
0
SEQEND
8
0
0
POLYLINE
8
0
62
5
66
1
10
0
20
0
30
0
70
8
0
VERTEX
8
0
62
5
10
-0.084852814
20
0.19796116
30
0
70
32
0
VERTEX
8
0
62
5
10
-0.084852814
20
0.21728155
30
0
70
32
0
SEQEND
8
0
0
POLYLINE
8
0
62
5
66
1
10
0
20
0
30
0
70
8
0
VERTEX
8
0
62
5
10
-0.056568542
20
0.19796116
30
0
70
32
0
VERTEX
8
0
62
5
10
-0.056568542
20
0.21728155
30
0
70
32
0
SEQEND
8
0
0
POLYLINE
8
0
62
5
66
1
10
0
20
0
30
0
70
8
0
VERTEX
8
0
62
5
10
-0.028284271
20
0.19796116
30
0
70
32
0
VERTEX
8
0
62
5
10
-0.028284271
20
0.21728155
30
0
70
32
0
SEQEND
8
0
0
POLYLINE
8
0
62
30
66
1
10
0
20
0
30
0
70
8
0
VERTEX
8
0
62
30
10
-0.11313708
20
0.14331484
30
0
70
32
0
VERTEX
8
0
62
30
10
-0.10380381
20
0.15932039
30
0
70
32
0
VERTEX
8
0
62
30
10
-0.11313708
20
0.17532593
30
0
70
32
0
SEQEND
8
0
0
POLYLINE
8
0
62
30
66
1
10
0
20
0
30
0
70
8
0
VERTEX
8
0
62
30
10
-0.084852814
20
0.14331486
30
0
70
32
0
VERTEX
8
0
62
30
10
-0.075519541
20
0.15932039
30
0
70
32
0
VERTEX
8
0
62
30
10
-0.084852814
20
0.17532591
30
0
70
32
0
SEQEND
8
0
0
POLYLINE
8
0
62
30
66
1
10
0
20
0
30
0
70
8
0
VERTEX
8
0
62
30
10
-0.056568542
20
0.15932039
30
0
70
32
0
VERTEX
8
0
62
30
10
-0.056568542
20
0.15932039
30
0
70
32
0
VERTEX
8
0
62
30
10
-0.056568542
20
0.15932039
30
0
70
32
0
SEQEND
8
0
0
POLYLINE
8
0
62
30
66
1
10
0
20
0
30
0
70
8
0
VERTEX
8
0
62
30
10
-0.028284271
20
0.15932037
30
0
70
32
0
VERTEX
8
0
62
30
10
-0.028284242
20
0.15932039
30
0
70
32
0
VERTEX
8
0
62
30
10
-0.028284271
20
0.1593204
30
0
70
32
0
SEQEND
8
0
0
POLYLINE
8
0
62
30
66
1
10
0
20
0
30
0
70
8
0
VERTEX
8
0
62
30
10
-0.11313708
20
0.18195562
30
0
70
32
0
VERTEX
8
0
62
30
10
-0.10380381
20
0.19796116
30
0
70
32
0
VERTEX
8
0
62
30
10
-0.11313708
20
0.21396671
30
0
70
32
0
SEQEND
8
0
0
POLYLINE
8
0
62
30
66
1
10
0
20
0
30
0
70
8
0
VERTEX
8
0
62
30
10
-0.084852814
20
0.18195564
30
0
70
32
0
VERTEX
8
0
62
30
10
-0.075519541
20
0.19796116
30
0
70
32
0
VERTEX
8
0
62
30
10
-0.084852814
20
0.21396669
30
0
70
32
0
SEQEND
8
0
0
POLYLINE
8
0
62
30
66
1
10
0
20
0
30
0
70
8
0
VERTEX
8
0
62
30
10
-0.056568542
20
0.19796116
30
0
70
32
0
VERTEX
8
0
62
30
10
-0.056568542
20
0.19796116
30
0
70
32
0
VERTEX
8
0
62
30
10
-0.056568542
20
0.19796116
30
0
70
32
0
SEQEND
8
0
0
POLYLINE
8
0
62
30
66
1
10
0
20
0
30
0
70
8
0
VERTEX
8
0
62
30
10
-0.028284271
20
0.19796115
30
0
70
32
0
VERTEX
8
0
62
30
10
-0.028284242
20
0.19796116
30
0
70
32
0
VERTEX
8
0
62
30
10
-0.028284271
20
0.19796118
30
0
70
32
0
SEQEND
8
0
0
POLYLINE
8
0
62
5
66
1
10
0
20
0
30
0
70
8
0
VERTEX
8
0
62
5
10
0
20
0.21728155
30
0
70
32
0
VERTEX
8
0
62
5
10
0
20
0.22982152
30
0
70
32
0
SEQEND
8
0
0
POLYLINE
8
0
62
5
66
1
10
0
20
0
30
0
70
8
0
VERTEX
8
0
62
5
10
0.028284271
20
0.21728155
30
0
70
32
0
VERTEX
8
0
62
5
10
0.028284271
20
0.22982152
30
0
70
32
0
SEQEND
8
0
0
POLYLINE
8
0
62
5
66
1
10
0
20
0
30
0
70
8
0
VERTEX
8
0
62
5
10
0.056568542
20
0.21728155
30
0
70
32
0
VERTEX
8
0
62
5
10
0.056568542
20
0.22982152
30
0
70
32
0
SEQEND
8
0
0
POLYLINE
8
0
62
5
66
1
10
0
20
0
30
0
70
8
0
VERTEX
8
0
62
5
10
0.084852814
20
0.21728155
30
0
70
32
0
VERTEX
8
0
62
5
10
0.084852814
20
0.22982152
30
0
70
32
0
SEQEND
8
0
0
POLYLINE
8
0
62
5
66
1
10
0
20
0
30
0
70
8
0
VERTEX
8
0
62
5
10
0.11313708
20
0.21728155
30
0
70
32
0
VERTEX
8
0
62
5
10
0.11313708
20
0.22982152
30
0
70
32
0
SEQEND
8
0
0
POLYLINE
8
0
62
5
66
1
10
0
20
0
30
0
70
8
0
VERTEX
8
0
62
5
10
0.028284271
20
0.21728155
30
0
70
32
0
VERTEX
8
0
62
5
10
0.028284271
20
0.21728155
30
0
70
32
0
SEQEND
8
0
0
POLYLINE
8
0
62
5
66
1
10
0
20
0
30
0
70
8
0
VERTEX
8
0
62
5
10
0.056568542
20
0.21728155
30
0
70
32
0
VERTEX
8
0
62
5
10
0.056568542
20
0.21728155
30
0
70
32
0
SEQEND
8
0
0
POLYLINE
8
0
62
5
66
1
10
0
20
0
30
0
70
8
0
VERTEX
8
0
62
5
10
0.084852814
20
0.21728155
30
0
70
32
0
VERTEX
8
0
62
5
10
0.084852814
20
0.21728155
30
0
70
32
0
SEQEND
8
0
0
POLYLINE
8
0
62
5
66
1
10
0
20
0
30
0
70
8
0
VERTEX
8
0
62
5
10
0.028284253
20
0.22982152
30
0
70
32
0
VERTEX
8
0
62
5
10
0.028284253
20
0.22982152
30
0
70
32
0
SEQEND
8
0
0
POLYLINE
8
0
62
5
66
1
10
0
20
0
30
0
70
8
0
VERTEX
8
0
62
5
10
0.056568524
20
0.22982152
30
0
70
32
0
VERTEX
8
0
62
5
10
0.056568524
20
0.22982152
30
0
70
32
0
SEQEND
8
0
0
POLYLINE
8
0
62
5
66
1
10
0
20
0
30
0
70
8
0
VERTEX
8
0
62
5
10
0.084852795
20
0.22982152
30
0
70
32
0
VERTEX
8
0
62
5
10
0.084852795
20
0.22982152
30
0
70
32
0
SEQEND
8
0
0
POLYLINE
8
0
62
5
66
1
10
0
20
0
30
0
70
8
0
VERTEX
8
0
62
5
10
0.11313707
20
0.22982152
30
0
70
32
0
VERTEX
8
0
62
5
10
0.11313707
20
0.22982152
30
0
70
32
0
SEQEND
8
0
0
POLYLINE
8
0
62
5
66
1
10
0
20
0
30
0
70
8
0
VERTEX
8
0
62
5
10
0.14142136
20
0.21728155
30
0
70
32
0
VERTEX
8
0
62
5
10
0.14142136
20
0.22982152
30
0
70
32
0
SEQEND
8
0
0
POLYLINE
8
0
62
5
66
1
10
0
20
0
30
0
70
8
0
VERTEX
8
0
62
5
10
0.16970563
20
0.21728155
30
0
70
32
0
VERTEX
8
0
62
5
10
0.16970563
20
0.22982152
30
0
70
32
0
SEQEND
8
0
0
POLYLINE
8
0
62
5
66
1
10
0
20
0
30
0
70
8
0
VERTEX
8
0
62
5
10
0.1979899
20
0.21728155
30
0
70
32
0
VERTEX
8
0
62
5
10
0.1979899
20
0.22982152
30
0
70
32
0
SEQEND
8
0
0
POLYLINE
8
0
62
5
66
1
10
0
20
0
30
0
70
8
0
VERTEX
8
0
62
5
10
0.22627417
20
0.21728155
30
0
70
32
0
VERTEX
8
0
62
5
10
0.22627417
20
0.22982152
30
0
70
32
0
SEQEND
8
0
0
POLYLINE
8
0
62
5
66
1
10
0
20
0
30
0
70
8
0
VERTEX
8
0
62
5
10
0.14142136
20
0.21728155
30
0
70
32
0
VERTEX
8
0
62
5
10
0.14142136
20
0.21728155
30
0
70
32
0
SEQEND
8
0
0
POLYLINE
8
0
62
5
66
1
10
0
20
0
30
0
70
8
0
VERTEX
8
0
62
5
10
0.16970563
20
0.21728155
30
0
70
32
0
VERTEX
8
0
62
5
10
0.16970563
20
0.21728155
30
0
70
32
0
SEQEND
8
0
0
POLYLINE
8
0
62
5
66
1
10
0
20
0
30
0
70
8
0
VERTEX
8
0
62
5
10
0.1979899
20
0.21728155
30
0
70
32
0
VERTEX
8
0
62
5
10
0.1979899
20
0.21728155
30
0
70
32
0
SEQEND
8
0
0
POLYLINE
8
0
62
5
66
1
10
0
20
0
30
0
70
8
0
VERTEX
8
0
62
5
10
0.14142134
20
0.22982152
30
0
70
32
0
VERTEX
8
0
62
5
10
0.14142134
20
0.22982152
30
0
70
32
0
SEQEND
8
0
0
POLYLINE
8
0
62
5
66
1
10
0
20
0
30
0
70
8
0
VERTEX
8
0
62
5
10
0.16970561
20
0.22982152
30
0
70
32
0
VERTEX
8
0
62
5
10
0.16970561
20
0.22982152
30
0
70
32
0
SEQEND
8
0
0
POLYLINE
8
0
62
5
66
1
10
0
20
0
30
0
70
8
0
VERTEX
8
0
62
5
10
0.19798988
20
0.22982152
30
0
70
32
0
VERTEX
8
0
62
5
10
0.19798988
20
0.22982152
30
0
70
32
0
SEQEND
8
0
0
POLYLINE
8
0
62
5
66
1
10
0
20
0
30
0
70
8
0
VERTEX
8
0
62
5
10
0.22627415
20
0.22982152
30
0
70
32
0
VERTEX
8
0
62
5
10
0.22627415
20
0.22982152
30
0
70
32
0
SEQEND
8
0
0
POLYLINE
8
0
62
5
66
1
10
0
20
0
30
0
70
8
0
VERTEX
8
0
62
5
10
-0.084852814
20
0.21728155
30
0
70
32
0
VERTEX
8
0
62
5
10
-0.084852814
20
0.22982152
30
0
70
32
0
SEQEND
8
0
0
POLYLINE
8
0
62
5
66
1
10
0
20
0
30
0
70
8
0
VERTEX
8
0
62
5
10
-0.056568542
20
0.21728155
30
0
70
32
0
VERTEX
8
0
62
5
10
-0.056568542
20
0.22982152
30
0
70
32
0
SEQEND
8
0
0
POLYLINE
8
0
62
5
66
1
10
0
20
0
30
0
70
8
0
VERTEX
8
0
62
5
10
-0.028284271
20
0.21728155
30
0
70
32
0
VERTEX
8
0
62
5
10
-0.028284271
20
0.22982152
30
0
70
32
0
SEQEND
8
0
0
POLYLINE
8
0
62
5
66
1
10
0
20
0
30
0
70
8
0
VERTEX
8
0
62
5
10
0
20
0.21728155
30
0
70
32
0
VERTEX
8
0
62
5
10
0
20
0.22982152
30
0
70
32
0
SEQEND
8
0
0
POLYLINE
8
0
62
5
66
1
10
0
20
0
30
0
70
8
0
VERTEX
8
0
62
5
10
-0.084852814
20
0.21728155
30
0
70
32
0
VERTEX
8
0
62
5
10
-0.084852814
20
0.21728155
30
0
70
32
0
SEQEND
8
0
0
POLYLINE
8
0
62
5
66
1
10
0
20
0
30
0
70
8
0
VERTEX
8
0
62
5
10
-0.056568542
20
0.21728155
30
0
70
32
0
VERTEX
8
0
62
5
10
-0.056568542
20
0.21728155
30
0
70
32
0
SEQEND
8
0
0
POLYLINE
8
0
62
5
66
1
10
0
20
0
30
0
70
8
0
VERTEX
8
0
62
5
10
-0.028284271
20
0.21728155
30
0
70
32
0
VERTEX
8
0
62
5
10
-0.028284271
20
0.21728155
30
0
70
32
0
SEQEND
8
0
0
POLYLINE
8
0
62
5
66
1
10
0
20
0
30
0
70
8
0
VERTEX
8
0
62
5
10
-0.084852832
20
0.22982152
30
0
70
32
0
VERTEX
8
0
62
5
10
-0.084852832
20
0.22982152
30
0
70
32
0
SEQEND
8
0
0
POLYLINE
8
0
62
5
66
1
10
0
20
0
30
0
70
8
0
VERTEX
8
0
62
5
10
-0.056568561
20
0.22982152
30
0
70
32
0
VERTEX
8
0
62
5
10
-0.056568561
20
0.22982152
30
0
70
32
0
SEQEND
8
0
0
POLYLINE
8
0
62
5
66
1
10
0
20
0
30
0
70
8
0
VERTEX
8
0
62
5
10
-0.02828429
20
0.22982152
30
0
70
32
0
VERTEX
8
0
62
5
10
-0.02828429
20
0.22982152
30
0
70
32
0
SEQEND
8
0
0
POLYLINE
8
0
62
5
66
1
10
0
20
0
30
0
70
8
0
VERTEX
8
0
62
5
10
-1.8522969e-08
20
0.22982152
30
0
70
32
0
VERTEX
8
0
62
5
10
-1.8522969e-08
20
0.22982152
30
0
70
32
0
SEQEND
8
0
0
POLYLINE
8
0
62
5
66
1
10
0
20
0
30
0
70
8
0
VERTEX
8
0
62
5
10
-0.02828429
20
0.22982152
30
0
70
32
0
VERTEX
8
0
62
5
10
-0.02828429
20
0.27998137
30
0
70
32
0
SEQEND
8
0
0
POLYLINE
8
0
62
5
66
1
10
0
20
0
30
0
70
8
0
VERTEX
8
0
62
5
10
0.084852795
20
0.22982152
30
0
70
32
0
VERTEX
8
0
62
5
10
0.084852795
20
0.27998137
30
0
70
32
0
SEQEND
8
0
0
POLYLINE
8
0
62
5
66
1
10
0
20
0
30
0
70
8
0
VERTEX
8
0
62
5
10
-1.8522969e-08
20
0.22982152
30
0
70
32
0
VERTEX
8
0
62
5
10
-1.8522969e-08
20
0.27998137
30
0
70
32
0
SEQEND
8
0
0
POLYLINE
8
0
62
5
66
1
10
0
20
0
30
0
70
8
0
VERTEX
8
0
62
5
10
0.028284253
20
0.22982152
30
0
70
32
0
VERTEX
8
0
62
5
10
0.028284253
20
0.27998137
30
0
70
32
0
SEQEND
8
0
0
POLYLINE
8
0
62
5
66
1
10
0
20
0
30
0
70
8
0
VERTEX
8
0
62
5
10
0.056568524
20
0.22982152
30
0
70
32
0
VERTEX
8
0
62
5
10
0.056568524
20
0.27998137
30
0
70
32
0
SEQEND
8
0
0
POLYLINE
8
0
62
5
66
1
10
0
20
0
30
0
70
8
0
VERTEX
8
0
62
5
10
0.19798988
20
0.22982152
30
0
70
32
0
VERTEX
8
0
62
5
10
0.19798988
20
0.27998137
30
0
70
32
0
SEQEND
8
0
0
POLYLINE
8
0
62
5
66
1
10
0
20
0
30
0
70
8
0
VERTEX
8
0
62
5
10
0.11313707
20
0.22982152
30
0
70
32
0
VERTEX
8
0
62
5
10
0.11313707
20
0.27998137
30
0
70
32
0
SEQEND
8
0
0
POLYLINE
8
0
62
5
66
1
10
0
20
0
30
0
70
8
0
VERTEX
8
0
62
5
10
0.14142134
20
0.22982152
30
0
70
32
0
VERTEX
8
0
62
5
10
0.14142134
20
0.27998137
30
0
70
32
0
SEQEND
8
0
0
POLYLINE
8
0
62
5
66
1
10
0
20
0
30
0
70
8
0
VERTEX
8
0
62
5
10
0.16970561
20
0.22982152
30
0
70
32
0
VERTEX
8
0
62
5
10
0.16970561
20
0.27998137
30
0
70
32
0
SEQEND
8
0
0
POLYLINE
8
0
62
5
66
1
10
0
20
0
30
0
70
8
0
VERTEX
8
0
62
5
10
-0.14142137
20
0.22982152
30
0
70
32
0
VERTEX
8
0
62
5
10
-0.14142137
20
0.27998137
30
0
70
32
0
SEQEND
8
0
0
POLYLINE
8
0
62
5
66
1
10
0
20
0
30
0
70
8
0
VERTEX
8
0
62
5
10
-0.1131371
20
0.22982152
30
0
70
32
0
VERTEX
8
0
62
5
10
-0.1131371
20
0.27998137
30
0
70
32
0
SEQEND
8
0
0
POLYLINE
8
0
62
5
66
1
10
0
20
0
30
0
70
8
0
VERTEX
8
0
62
5
10
-0.084852832
20
0.22982152
30
0
70
32
0
VERTEX
8
0
62
5
10
-0.084852832
20
0.27998137
30
0
70
32
0
SEQEND
8
0
0
POLYLINE
8
0
62
5
66
1
10
0
20
0
30
0
70
8
0
VERTEX
8
0
62
5
10
-0.056568561
20
0.22982152
30
0
70
32
0
VERTEX
8
0
62
5
10
-0.056568561
20
0.27998137
30
0
70
32
0
SEQEND
8
0
0
POLYLINE
8
0
62
5
66
1
10
0
20
0
30
0
70
8
0
VERTEX
8
0
62
5
10
-0.02828429
20
0.27998137
30
0
70
32
0
VERTEX
8
0
62
5
10
-0.02828429
20
0.29701844
30
0
70
32
0
SEQEND
8
0
0
POLYLINE
8
0
62
5
66
1
10
0
20
0
30
0
70
8
0
VERTEX
8
0
62
5
10
0.084852795
20
0.29701844
30
0
70
32
0
VERTEX
8
0
62
5
10
0.084852795
20
0.27998137
30
0
70
32
0
SEQEND
8
0
0
POLYLINE
8
0
62
5
66
1
10
0
20
0
30
0
70
8
0
VERTEX
8
0
62
5
10
-0.02828429
20
0.28144293
30
0
70
32
0
VERTEX
8
0
62
5
10
-1.8522969e-08
20
0.28849991
30
0
70
32
0
VERTEX
8
0
62
5
10
0.028284253
20
0.28849989
30
0
70
32
0
VERTEX
8
0
62
5
10
0.056568524
20
0.28144291
30
0
70
32
0
VERTEX
8
0
62
5
10
0.084852795
20
0.28144293
30
0
70
32
0
SEQEND
8
0
0
POLYLINE
8
0
62
5
66
1
10
0
20
0
30
0
70
8
0
SEQEND
8
0
0
POLYLINE
8
0
62
5
66
1
10
0
20
0
30
0
70
8
0
VERTEX
8
0
62
5
10
-0.02828429
20
0.29555689
30
0
70
32
0
VERTEX
8
0
62
5
10
-1.8522969e-08
20
0.28849991
30
0
70
32
0
VERTEX
8
0
62
5
10
0.028284253
20
0.28849992
30
0
70
32
0
VERTEX
8
0
62
5
10
0.056568524
20
0.2955569
30
0
70
32
0
VERTEX
8
0
62
5
10
0.084852795
20
0.29555689
30
0
70
32
0
SEQEND
8
0
0
POLYLINE
8
0
62
30
66
1
10
0
20
0
30
0
70
8
0
VERTEX
8
0
62
30
10
-0.02828429
20
0.28849991
30
0
70
32
0
VERTEX
8
0
62
30
10
0.084852795
20
0.28849991
30
0
70
32
0
SEQEND
8
0
0
POLYLINE
8
0
62
30
66
1
10
0
20
0
30
0
70
8
0
VERTEX
8
0
62
30
10
-1.8522969e-08
20
0.28849991
30
0
70
32
0
VERTEX
8
0
62
30
10
-1.8522969e-08
20
0.28849991
30
0
70
32
0
SEQEND
8
0
0
POLYLINE
8
0
62
30
66
1
10
0
20
0
30
0
70
8
0
VERTEX
8
0
62
30
10
0.028284253
20
0.28849989
30
0
70
32
0
VERTEX
8
0
62
30
10
0.028284253
20
0.28849991
30
0
70
32
0
SEQEND
8
0
0
POLYLINE
8
0
62
30
66
1
10
0
20
0
30
0
70
8
0
VERTEX
8
0
62
30
10
0.056568524
20
0.28144291
30
0
70
32
0
VERTEX
8
0
62
30
10
0.056568524
20
0.28849991
30
0
70
32
0
SEQEND
8
0
0
POLYLINE
8
0
62
5
66
1
10
0
20
0
30
0
70
8
0
VERTEX
8
0
62
5
10
-1.8522969e-08
20
0.27998137
30
0
70
32
0
VERTEX
8
0
62
5
10
-1.8522969e-08
20
0.28849991
30
0
70
32
0
SEQEND
8
0
0
POLYLINE
8
0
62
5
66
1
10
0
20
0
30
0
70
8
0
VERTEX
8
0
62
5
10
0.028284253
20
0.27998137
30
0
70
32
0
VERTEX
8
0
62
5
10
0.028284253
20
0.28849989
30
0
70
32
0
SEQEND
8
0
0
POLYLINE
8
0
62
5
66
1
10
0
20
0
30
0
70
8
0
VERTEX
8
0
62
5
10
0.056568524
20
0.27998137
30
0
70
32
0
VERTEX
8
0
62
5
10
0.056568524
20
0.28144291
30
0
70
32
0
SEQEND
8
0
0
POLYLINE
8
0
62
5
66
1
10
0
20
0
30
0
70
8
0
VERTEX
8
0
62
5
10
-1.8522969e-08
20
0.28849991
30
0
70
32
0
VERTEX
8
0
62
5
10
-1.8522969e-08
20
0.29701844
30
0
70
32
0
SEQEND
8
0
0
POLYLINE
8
0
62
5
66
1
10
0
20
0
30
0
70
8
0
VERTEX
8
0
62
5
10
0.028284253
20
0.28849991
30
0
70
32
0
VERTEX
8
0
62
5
10
0.028284253
20
0.29701844
30
0
70
32
0
SEQEND
8
0
0
POLYLINE
8
0
62
5
66
1
10
0
20
0
30
0
70
8
0
VERTEX
8
0
62
5
10
0.056568524
20
0.28849991
30
0
70
32
0
VERTEX
8
0
62
5
10
0.056568524
20
0.29701844
30
0
70
32
0
SEQEND
8
0
0
POLYLINE
8
0
62
30
66
1
10
0
20
0
30
0
70
8
0
VERTEX
8
0
62
30
10
-0.02828429
20
0.28144293
30
0
70
32
0
VERTEX
8
0
62
30
10
-0.022771702
20
0.28849991
30
0
70
32
0
VERTEX
8
0
62
30
10
-0.02828429
20
0.29555689
30
0
70
32
0
SEQEND
8
0
0
POLYLINE
8
0
62
30
66
1
10
0
20
0
30
0
70
8
0
VERTEX
8
0
62
30
10
-1.8522969e-08
20
0.28849991
30
0
70
32
0
VERTEX
8
0
62
30
10
-1.8522969e-08
20
0.28849991
30
0
70
32
0
VERTEX
8
0
62
30
10
-1.8522969e-08
20
0.28849991
30
0
70
32
0
SEQEND
8
0
0
POLYLINE
8
0
62
30
66
1
10
0
20
0
30
0
70
8
0
VERTEX
8
0
62
30
10
0.028284253
20
0.28849989
30
0
70
32
0
VERTEX
8
0
62
30
10
0.028284271
20
0.28849991
30
0
70
32
0
VERTEX
8
0
62
30
10
0.028284253
20
0.28849992
30
0
70
32
0
SEQEND
8
0
0
POLYLINE
8
0
62
30
66
1
10
0
20
0
30
0
70
8
0
VERTEX
8
0
62
30
10
0.056568524
20
0.28144291
30
0
70
32
0
VERTEX
8
0
62
30
10
0.062081119
20
0.28849991
30
0
70
32
0
VERTEX
8
0
62
30
10
0.056568524
20
0.2955569
30
0
70
32
0
SEQEND
8
0
0
POLYLINE
8
0
62
5
66
1
10
0
20
0
30
0
70
8
0
VERTEX
8
0
62
5
10
0.19798988
20
0.29701844
30
0
70
32
0
VERTEX
8
0
62
5
10
0.19798988
20
0.27998137
30
0
70
32
0
SEQEND
8
0
0
POLYLINE
8
0
62
5
66
1
10
0
20
0
30
0
70
8
0
VERTEX
8
0
62
5
10
0.084852795
20
0.28144293
30
0
70
32
0
VERTEX
8
0
62
5
10
0.11313707
20
0.28849991
30
0
70
32
0
VERTEX
8
0
62
5
10
0.14142134
20
0.28849989
30
0
70
32
0
VERTEX
8
0
62
5
10
0.16970561
20
0.28144291
30
0
70
32
0
VERTEX
8
0
62
5
10
0.19798988
20
0.28144293
30
0
70
32
0
SEQEND
8
0
0
POLYLINE
8
0
62
5
66
1
10
0
20
0
30
0
70
8
0
SEQEND
8
0
0
POLYLINE
8
0
62
5
66
1
10
0
20
0
30
0
70
8
0
VERTEX
8
0
62
5
10
0.084852795
20
0.29555689
30
0
70
32
0
VERTEX
8
0
62
5
10
0.11313707
20
0.28849991
30
0
70
32
0
VERTEX
8
0
62
5
10
0.14142134
20
0.28849992
30
0
70
32
0
VERTEX
8
0
62
5
10
0.16970561
20
0.2955569
30
0
70
32
0
VERTEX
8
0
62
5
10
0.19798988
20
0.29555689
30
0
70
32
0
SEQEND
8
0
0
POLYLINE
8
0
62
30
66
1
10
0
20
0
30
0
70
8
0
VERTEX
8
0
62
30
10
0.084852795
20
0.28849991
30
0
70
32
0
VERTEX
8
0
62
30
10
0.19798988
20
0.28849991
30
0
70
32
0
SEQEND
8
0
0
POLYLINE
8
0
62
30
66
1
10
0
20
0
30
0
70
8
0
VERTEX
8
0
62
30
10
0.11313707
20
0.28849991
30
0
70
32
0
VERTEX
8
0
62
30
10
0.11313707
20
0.28849991
30
0
70
32
0
SEQEND
8
0
0
POLYLINE
8
0
62
30
66
1
10
0
20
0
30
0
70
8
0
VERTEX
8
0
62
30
10
0.14142134
20
0.28849989
30
0
70
32
0
VERTEX
8
0
62
30
10
0.14142134
20
0.28849991
30
0
70
32
0
SEQEND
8
0
0
POLYLINE
8
0
62
30
66
1
10
0
20
0
30
0
70
8
0
VERTEX
8
0
62
30
10
0.16970561
20
0.28144291
30
0
70
32
0
VERTEX
8
0
62
30
10
0.16970561
20
0.28849991
30
0
70
32
0
SEQEND
8
0
0
POLYLINE
8
0
62
5
66
1
10
0
20
0
30
0
70
8
0
VERTEX
8
0
62
5
10
0.11313707
20
0.27998137
30
0
70
32
0
VERTEX
8
0
62
5
10
0.11313707
20
0.28849991
30
0
70
32
0
SEQEND
8
0
0
POLYLINE
8
0
62
5
66
1
10
0
20
0
30
0
70
8
0
VERTEX
8
0
62
5
10
0.14142134
20
0.27998137
30
0
70
32
0
VERTEX
8
0
62
5
10
0.14142134
20
0.28849989
30
0
70
32
0
SEQEND
8
0
0
POLYLINE
8
0
62
5
66
1
10
0
20
0
30
0
70
8
0
VERTEX
8
0
62
5
10
0.16970561
20
0.27998137
30
0
70
32
0
VERTEX
8
0
62
5
10
0.16970561
20
0.28144291
30
0
70
32
0
SEQEND
8
0
0
POLYLINE
8
0
62
5
66
1
10
0
20
0
30
0
70
8
0
VERTEX
8
0
62
5
10
0.11313707
20
0.28849991
30
0
70
32
0
VERTEX
8
0
62
5
10
0.11313707
20
0.29701844
30
0
70
32
0
SEQEND
8
0
0
POLYLINE
8
0
62
5
66
1
10
0
20
0
30
0
70
8
0
VERTEX
8
0
62
5
10
0.14142134
20
0.28849991
30
0
70
32
0
VERTEX
8
0
62
5
10
0.14142134
20
0.29701844
30
0
70
32
0
SEQEND
8
0
0
POLYLINE
8
0
62
5
66
1
10
0
20
0
30
0
70
8
0
VERTEX
8
0
62
5
10
0.16970561
20
0.28849991
30
0
70
32
0
VERTEX
8
0
62
5
10
0.16970561
20
0.29701844
30
0
70
32
0
SEQEND
8
0
0
POLYLINE
8
0
62
30
66
1
10
0
20
0
30
0
70
8
0
VERTEX
8
0
62
30
10
0.084852795
20
0.28144293
30
0
70
32
0
VERTEX
8
0
62
30
10
0.090365383
20
0.28849991
30
0
70
32
0
VERTEX
8
0
62
30
10
0.084852795
20
0.29555689
30
0
70
32
0
SEQEND
8
0
0
POLYLINE
8
0
62
30
66
1
10
0
20
0
30
0
70
8
0
VERTEX
8
0
62
30
10
0.11313707
20
0.28849991
30
0
70
32
0
VERTEX
8
0
62
30
10
0.11313707
20
0.28849991
30
0
70
32
0
VERTEX
8
0
62
30
10
0.11313707
20
0.28849991
30
0
70
32
0
SEQEND
8
0
0
POLYLINE
8
0
62
30
66
1
10
0
20
0
30
0
70
8
0
VERTEX
8
0
62
30
10
0.14142134
20
0.28849989
30
0
70
32
0
VERTEX
8
0
62
30
10
0.14142136
20
0.28849991
30
0
70
32
0
VERTEX
8
0
62
30
10
0.14142134
20
0.28849992
30
0
70
32
0
SEQEND
8
0
0
POLYLINE
8
0
62
30
66
1
10
0
20
0
30
0
70
8
0
VERTEX
8
0
62
30
10
0.16970561
20
0.28144291
30
0
70
32
0
VERTEX
8
0
62
30
10
0.1752182
20
0.28849991
30
0
70
32
0
VERTEX
8
0
62
30
10
0.16970561
20
0.2955569
30
0
70
32
0
SEQEND
8
0
0
POLYLINE
8
0
62
5
66
1
10
0
20
0
30
0
70
8
0
VERTEX
8
0
62
5
10
-0.14142137
20
0.27998137
30
0
70
32
0
VERTEX
8
0
62
5
10
-0.14142137
20
0.29701844
30
0
70
32
0
SEQEND
8
0
0
POLYLINE
8
0
62
5
66
1
10
0
20
0
30
0
70
8
0
VERTEX
8
0
62
5
10
-0.14142137
20
0.28144293
30
0
70
32
0
VERTEX
8
0
62
5
10
-0.1131371
20
0.28849991
30
0
70
32
0
VERTEX
8
0
62
5
10
-0.084852832
20
0.28849989
30
0
70
32
0
VERTEX
8
0
62
5
10
-0.056568561
20
0.28144291
30
0
70
32
0
VERTEX
8
0
62
5
10
-0.02828429
20
0.28144293
30
0
70
32
0
SEQEND
8
0
0
POLYLINE
8
0
62
5
66
1
10
0
20
0
30
0
70
8
0
SEQEND
8
0
0
POLYLINE
8
0
62
5
66
1
10
0
20
0
30
0
70
8
0
VERTEX
8
0
62
5
10
-0.14142137
20
0.29555689
30
0
70
32
0
VERTEX
8
0
62
5
10
-0.1131371
20
0.28849991
30
0
70
32
0
VERTEX
8
0
62
5
10
-0.084852832
20
0.28849992
30
0
70
32
0
VERTEX
8
0
62
5
10
-0.056568561
20
0.2955569
30
0
70
32
0
VERTEX
8
0
62
5
10
-0.02828429
20
0.29555689
30
0
70
32
0
SEQEND
8
0
0
POLYLINE
8
0
62
30
66
1
10
0
20
0
30
0
70
8
0
VERTEX
8
0
62
30
10
-0.14142137
20
0.28849991
30
0
70
32
0
VERTEX
8
0
62
30
10
-0.02828429
20
0.28849991
30
0
70
32
0
SEQEND
8
0
0
POLYLINE
8
0
62
30
66
1
10
0
20
0
30
0
70
8
0
VERTEX
8
0
62
30
10
-0.1131371
20
0.28849991
30
0
70
32
0
VERTEX
8
0
62
30
10
-0.1131371
20
0.28849991
30
0
70
32
0
SEQEND
8
0
0
POLYLINE
8
0
62
30
66
1
10
0
20
0
30
0
70
8
0
VERTEX
8
0
62
30
10
-0.084852832
20
0.28849989
30
0
70
32
0
VERTEX
8
0
62
30
10
-0.084852832
20
0.28849991
30
0
70
32
0
SEQEND
8
0
0
POLYLINE
8
0
62
30
66
1
10
0
20
0
30
0
70
8
0
VERTEX
8
0
62
30
10
-0.056568561
20
0.28144291
30
0
70
32
0
VERTEX
8
0
62
30
10
-0.056568561
20
0.28849991
30
0
70
32
0
SEQEND
8
0
0
POLYLINE
8
0
62
5
66
1
10
0
20
0
30
0
70
8
0
VERTEX
8
0
62
5
10
-0.1131371
20
0.27998137
30
0
70
32
0
VERTEX
8
0
62
5
10
-0.1131371
20
0.28849991
30
0
70
32
0
SEQEND
8
0
0
POLYLINE
8
0
62
5
66
1
10
0
20
0
30
0
70
8
0
VERTEX
8
0
62
5
10
-0.084852832
20
0.27998137
30
0
70
32
0
VERTEX
8
0
62
5
10
-0.084852832
20
0.28849989
30
0
70
32
0
SEQEND
8
0
0
POLYLINE
8
0
62
5
66
1
10
0
20
0
30
0
70
8
0
VERTEX
8
0
62
5
10
-0.056568561
20
0.27998137
30
0
70
32
0
VERTEX
8
0
62
5
10
-0.056568561
20
0.28144291
30
0
70
32
0
SEQEND
8
0
0
POLYLINE
8
0
62
5
66
1
10
0
20
0
30
0
70
8
0
VERTEX
8
0
62
5
10
-0.1131371
20
0.28849991
30
0
70
32
0
VERTEX
8
0
62
5
10
-0.1131371
20
0.29701844
30
0
70
32
0
SEQEND
8
0
0
POLYLINE
8
0
62
5
66
1
10
0
20
0
30
0
70
8
0
VERTEX
8
0
62
5
10
-0.084852832
20
0.28849991
30
0
70
32
0
VERTEX
8
0
62
5
10
-0.084852832
20
0.29701844
30
0
70
32
0
SEQEND
8
0
0
POLYLINE
8
0
62
5
66
1
10
0
20
0
30
0
70
8
0
VERTEX
8
0
62
5
10
-0.056568561
20
0.28849991
30
0
70
32
0
VERTEX
8
0
62
5
10
-0.056568561
20
0.29701844
30
0
70
32
0
SEQEND
8
0
0
POLYLINE
8
0
62
30
66
1
10
0
20
0
30
0
70
8
0
VERTEX
8
0
62
30
10
-0.14142137
20
0.28144293
30
0
70
32
0
VERTEX
8
0
62
30
10
-0.13590879
20
0.28849991
30
0
70
32
0
VERTEX
8
0
62
30
10
-0.14142137
20
0.29555689
30
0
70
32
0
SEQEND
8
0
0
POLYLINE
8
0
62
30
66
1
10
0
20
0
30
0
70
8
0
VERTEX
8
0
62
30
10
-0.1131371
20
0.28849991
30
0
70
32
0
VERTEX
8
0
62
30
10
-0.1131371
20
0.28849991
30
0
70
32
0
VERTEX
8
0
62
30
10
-0.1131371
20
0.28849991
30
0
70
32
0
SEQEND
8
0
0
POLYLINE
8
0
62
30
66
1
10
0
20
0
30
0
70
8
0
VERTEX
8
0
62
30
10
-0.084852832
20
0.28849989
30
0
70
32
0
VERTEX
8
0
62
30
10
-0.084852814
20
0.28849991
30
0
70
32
0
VERTEX
8
0
62
30
10
-0.084852832
20
0.28849992
30
0
70
32
0
SEQEND
8
0
0
POLYLINE
8
0
62
30
66
1
10
0
20
0
30
0
70
8
0
VERTEX
8
0
62
30
10
-0.056568561
20
0.28144291
30
0
70
32
0
VERTEX
8
0
62
30
10
-0.051055966
20
0.28849991
30
0
70
32
0
VERTEX
8
0
62
30
10
-0.056568561
20
0.2955569
30
0
70
32
0
SEQEND
8
0
0
POLYLINE
8
0
62
5
66
1
10
0
20
0
30
0
70
8
0
VERTEX
8
0
62
5
10
-0.02828429
20
0.29701844
30
0
70
32
0
VERTEX
8
0
62
5
10
-0.02828429
20
0.48177053
30
0
70
32
0
SEQEND
8
0
0
POLYLINE
8
0
62
5
66
1
10
0
20
0
30
0
70
8
0
VERTEX
8
0
62
5
10
0.084852795
20
0.48177053
30
0
70
32
0
VERTEX
8
0
62
5
10
0.084852795
20
0.29701844
30
0
70
32
0
SEQEND
8
0
0
POLYLINE
8
0
62
30
66
1
10
0
20
0
30
0
70
8
0
VERTEX
8
0
62
30
10
-0.02828429
20
0.43558251
30
0
70
32
0
VERTEX
8
0
62
30
10
0.084852795
20
0.43558251
30
0
70
32
0
SEQEND
8
0
0
POLYLINE
8
0
62
30
66
1
10
0
20
0
30
0
70
8
0
VERTEX
8
0
62
30
10
-0.02828429
20
0.38939448
30
0
70
32
0
VERTEX
8
0
62
30
10
0.084852795
20
0.38939448
30
0
70
32
0
SEQEND
8
0
0
POLYLINE
8
0
62
30
66
1
10
0
20
0
30
0
70
8
0
VERTEX
8
0
62
30
10
-0.02828429
20
0.41248849
30
0
70
32
0
VERTEX
8
0
62
30
10
0.084852795
20
0.41248849
30
0
70
32
0
SEQEND
8
0
0
POLYLINE
8
0
62
5
66
1
10
0
20
0
30
0
70
8
0
VERTEX
8
0
62
5
10
-0.02828429
20
0.34320646
30
0
70
32
0
VERTEX
8
0
62
5
10
0.084852795
20
0.34320646
30
0
70
32
0
SEQEND
8
0
0
POLYLINE
8
0
62
5
66
1
10
0
20
0
30
0
70
8
0
VERTEX
8
0
62
5
10
-1.8522969e-08
20
0.29701844
30
0
70
32
0
VERTEX
8
0
62
5
10
-1.8522969e-08
20
0.38939448
30
0
70
32
0
SEQEND
8
0
0
POLYLINE
8
0
62
5
66
1
10
0
20
0
30
0
70
8
0
VERTEX
8
0
62
5
10
0.028284253
20
0.29701844
30
0
70
32
0
VERTEX
8
0
62
5
10
0.028284253
20
0.38939448
30
0
70
32
0
SEQEND
8
0
0
POLYLINE
8
0
62
5
66
1
10
0
20
0
30
0
70
8
0
VERTEX
8
0
62
5
10
0.056568524
20
0.29701844
30
0
70
32
0
VERTEX
8
0
62
5
10
0.056568524
20
0.38939448
30
0
70
32
0
SEQEND
8
0
0
POLYLINE
8
0
62
5
66
1
10
0
20
0
30
0
70
8
0
VERTEX
8
0
62
5
10
-1.8522969e-08
20
0.43558251
30
0
70
32
0
VERTEX
8
0
62
5
10
-1.8522969e-08
20
0.48177053
30
0
70
32
0
SEQEND
8
0
0
POLYLINE
8
0
62
5
66
1
10
0
20
0
30
0
70
8
0
VERTEX
8
0
62
5
10
0.028284253
20
0.43558251
30
0
70
32
0
VERTEX
8
0
62
5
10
0.028284253
20
0.48177053
30
0
70
32
0
SEQEND
8
0
0
POLYLINE
8
0
62
5
66
1
10
0
20
0
30
0
70
8
0
VERTEX
8
0
62
5
10
0.056568524
20
0.43558251
30
0
70
32
0
VERTEX
8
0
62
5
10
0.056568524
20
0.48177053
30
0
70
32
0
SEQEND
8
0
0
POLYLINE
8
0
62
30
66
1
10
0
20
0
30
0
70
8
0
VERTEX
8
0
62
30
10
-1.8522969e-08
20
0.38939448
30
0
70
32
0
VERTEX
8
0
62
30
10
-1.8522969e-08
20
0.43558251
30
0
70
32
0
SEQEND
8
0
0
POLYLINE
8
0
62
30
66
1
10
0
20
0
30
0
70
8
0
VERTEX
8
0
62
30
10
0.028284253
20
0.38939448
30
0
70
32
0
VERTEX
8
0
62
30
10
0.028284253
20
0.43558251
30
0
70
32
0
SEQEND
8
0
0
POLYLINE
8
0
62
30
66
1
10
0
20
0
30
0
70
8
0
VERTEX
8
0
62
30
10
0.056568524
20
0.38939448
30
0
70
32
0
VERTEX
8
0
62
30
10
0.056568524
20
0.43558251
30
0
70
32
0
SEQEND
8
0
0
POLYLINE
8
0
62
30
66
1
10
0
20
0
30
0
70
8
0
VERTEX
8
0
62
30
10
0.084852795
20
0.38939448
30
0
70
32
0
VERTEX
8
0
62
30
10
0.084852795
20
0.43558251
30
0
70
32
0
SEQEND
8
0
0
POLYLINE
8
0
62
5
66
1
10
0
20
0
30
0
70
8
0
VERTEX
8
0
62
5
10
-1.8522969e-08
20
0.38939448
30
0
70
32
0
VERTEX
8
0
62
5
10
-0.0047829448
20
0.40094149
30
0
70
32
0
VERTEX
8
0
62
5
10
-1.8522969e-08
20
0.41248849
30
0
70
32
0
VERTEX
8
0
62
5
10
-0.0047829448
20
0.4240355
30
0
70
32
0
VERTEX
8
0
62
5
10
-1.8522969e-08
20
0.43558251
30
0
70
32
0
SEQEND
8
0
0
POLYLINE
8
0
62
5
66
1
10
0
20
0
30
0
70
8
0
VERTEX
8
0
62
5
10
0.028284253
20
0.38939448
30
0
70
32
0
VERTEX
8
0
62
5
10
0.023501326
20
0.40094149
30
0
70
32
0
VERTEX
8
0
62
5
10
0.028284253
20
0.41248849
30
0
70
32
0
VERTEX
8
0
62
5
10
0.023501326
20
0.4240355
30
0
70
32
0
VERTEX
8
0
62
5
10
0.028284253
20
0.43558251
30
0
70
32
0
SEQEND
8
0
0
POLYLINE
8
0
62
5
66
1
10
0
20
0
30
0
70
8
0
VERTEX
8
0
62
5
10
0.056568524
20
0.38939448
30
0
70
32
0
VERTEX
8
0
62
5
10
0.051785598
20
0.40094149
30
0
70
32
0
VERTEX
8
0
62
5
10
0.056568524
20
0.41248849
30
0
70
32
0
VERTEX
8
0
62
5
10
0.051785598
20
0.4240355
30
0
70
32
0
VERTEX
8
0
62
5
10
0.056568524
20
0.43558251
30
0
70
32
0
SEQEND
8
0
0
POLYLINE
8
0
62
5
66
1
10
0
20
0
30
0
70
8
0
VERTEX
8
0
62
5
10
0.084852795
20
0.38939448
30
0
70
32
0
VERTEX
8
0
62
5
10
0.080069869
20
0.40094149
30
0
70
32
0
VERTEX
8
0
62
5
10
0.084852795
20
0.41248849
30
0
70
32
0
VERTEX
8
0
62
5
10
0.080069869
20
0.4240355
30
0
70
32
0
VERTEX
8
0
62
5
10
0.084852795
20
0.43558251
30
0
70
32
0
SEQEND
8
0
0
POLYLINE
8
0
62
5
66
1
10
0
20
0
30
0
70
8
0
VERTEX
8
0
62
5
10
-0.02828429
20
0.40094149
30
0
70
32
0
VERTEX
8
0
62
5
10
-0.0047829448
20
0.40094149
30
0
70
32
0
SEQEND
8
0
0
POLYLINE
8
0
62
5
66
1
10
0
20
0
30
0
70
8
0
VERTEX
8
0
62
5
10
-0.02828429
20
0.4240355
30
0
70
32
0
VERTEX
8
0
62
5
10
-0.0047829448
20
0.4240355
30
0
70
32
0
SEQEND
8
0
0
POLYLINE
8
0
62
5
66
1
10
0
20
0
30
0
70
8
0
VERTEX
8
0
62
5
10
-1.8522969e-08
20
0.40094149
30
0
70
32
0
VERTEX
8
0
62
5
10
0.023501326
20
0.40094149
30
0
70
32
0
SEQEND
8
0
0
POLYLINE
8
0
62
5
66
1
10
0
20
0
30
0
70
8
0
VERTEX
8
0
62
5
10
-1.8522969e-08
20
0.4240355
30
0
70
32
0
VERTEX
8
0
62
5
10
0.023501326
20
0.4240355
30
0
70
32
0
SEQEND
8
0
0
POLYLINE
8
0
62
5
66
1
10
0
20
0
30
0
70
8
0
VERTEX
8
0
62
5
10
0.028284253
20
0.40094149
30
0
70
32
0
VERTEX
8
0
62
5
10
0.051785598
20
0.40094149
30
0
70
32
0
SEQEND
8
0
0
POLYLINE
8
0
62
5
66
1
10
0
20
0
30
0
70
8
0
VERTEX
8
0
62
5
10
0.028284253
20
0.4240355
30
0
70
32
0
VERTEX
8
0
62
5
10
0.051785598
20
0.4240355
30
0
70
32
0
SEQEND
8
0
0
POLYLINE
8
0
62
5
66
1
10
0
20
0
30
0
70
8
0
VERTEX
8
0
62
5
10
0.056568524
20
0.40094149
30
0
70
32
0
VERTEX
8
0
62
5
10
0.080069869
20
0.40094149
30
0
70
32
0
SEQEND
8
0
0
POLYLINE
8
0
62
5
66
1
10
0
20
0
30
0
70
8
0
VERTEX
8
0
62
5
10
0.056568524
20
0.4240355
30
0
70
32
0
VERTEX
8
0
62
5
10
0.080069869
20
0.4240355
30
0
70
32
0
SEQEND
8
0
0
POLYLINE
8
0
62
30
66
1
10
0
20
0
30
0
70
8
0
VERTEX
8
0
62
30
10
-0.0047829448
20
0.40094149
30
0
70
32
0
VERTEX
8
0
62
30
10
-1.8522969e-08
20
0.40094149
30
0
70
32
0
SEQEND
8
0
0
POLYLINE
8
0
62
30
66
1
10
0
20
0
30
0
70
8
0
VERTEX
8
0
62
30
10
-0.0047829448
20
0.4240355
30
0
70
32
0
VERTEX
8
0
62
30
10
-1.8522969e-08
20
0.4240355
30
0
70
32
0
SEQEND
8
0
0
POLYLINE
8
0
62
30
66
1
10
0
20
0
30
0
70
8
0
VERTEX
8
0
62
30
10
0.023501326
20
0.40094149
30
0
70
32
0
VERTEX
8
0
62
30
10
0.028284253
20
0.40094149
30
0
70
32
0
SEQEND
8
0
0
POLYLINE
8
0
62
30
66
1
10
0
20
0
30
0
70
8
0
VERTEX
8
0
62
30
10
0.023501326
20
0.4240355
30
0
70
32
0
VERTEX
8
0
62
30
10
0.028284253
20
0.4240355
30
0
70
32
0
SEQEND
8
0
0
POLYLINE
8
0
62
30
66
1
10
0
20
0
30
0
70
8
0
VERTEX
8
0
62
30
10
0.051785598
20
0.40094149
30
0
70
32
0
VERTEX
8
0
62
30
10
0.056568524
20
0.40094149
30
0
70
32
0
SEQEND
8
0
0
POLYLINE
8
0
62
30
66
1
10
0
20
0
30
0
70
8
0
VERTEX
8
0
62
30
10
0.051785598
20
0.4240355
30
0
70
32
0
VERTEX
8
0
62
30
10
0.056568524
20
0.4240355
30
0
70
32
0
SEQEND
8
0
0
POLYLINE
8
0
62
30
66
1
10
0
20
0
30
0
70
8
0
VERTEX
8
0
62
30
10
0.080069869
20
0.40094149
30
0
70
32
0
VERTEX
8
0
62
30
10
0.084852795
20
0.40094149
30
0
70
32
0
SEQEND
8
0
0
POLYLINE
8
0
62
30
66
1
10
0
20
0
30
0
70
8
0
VERTEX
8
0
62
30
10
0.080069869
20
0.4240355
30
0
70
32
0
VERTEX
8
0
62
30
10
0.084852795
20
0.4240355
30
0
70
32
0
SEQEND
8
0
0
POLYLINE
8
0
62
5
66
1
10
0
20
0
30
0
70
8
0
VERTEX
8
0
62
5
10
0.19798988
20
0.48177053
30
0
70
32
0
VERTEX
8
0
62
5
10
0.19798988
20
0.29701844
30
0
70
32
0
SEQEND
8
0
0
POLYLINE
8
0
62
30
66
1
10
0
20
0
30
0
70
8
0
VERTEX
8
0
62
30
10
0.084852795
20
0.43558251
30
0
70
32
0
VERTEX
8
0
62
30
10
0.19798988
20
0.43558251
30
0
70
32
0
SEQEND
8
0
0
POLYLINE
8
0
62
30
66
1
10
0
20
0
30
0
70
8
0
VERTEX
8
0
62
30
10
0.084852795
20
0.38939448
30
0
70
32
0
VERTEX
8
0
62
30
10
0.19798988
20
0.38939448
30
0
70
32
0
SEQEND
8
0
0
POLYLINE
8
0
62
30
66
1
10
0
20
0
30
0
70
8
0
VERTEX
8
0
62
30
10
0.084852795
20
0.41248849
30
0
70
32
0
VERTEX
8
0
62
30
10
0.19798988
20
0.41248849
30
0
70
32
0
SEQEND
8
0
0
POLYLINE
8
0
62
5
66
1
10
0
20
0
30
0
70
8
0
VERTEX
8
0
62
5
10
0.084852795
20
0.34320646
30
0
70
32
0
VERTEX
8
0
62
5
10
0.19798988
20
0.34320646
30
0
70
32
0
SEQEND
8
0
0
POLYLINE
8
0
62
5
66
1
10
0
20
0
30
0
70
8
0
VERTEX
8
0
62
5
10
0.11313707
20
0.29701844
30
0
70
32
0
VERTEX
8
0
62
5
10
0.11313707
20
0.38939448
30
0
70
32
0
SEQEND
8
0
0
POLYLINE
8
0
62
5
66
1
10
0
20
0
30
0
70
8
0
VERTEX
8
0
62
5
10
0.14142134
20
0.29701844
30
0
70
32
0
VERTEX
8
0
62
5
10
0.14142134
20
0.38939448
30
0
70
32
0
SEQEND
8
0
0
POLYLINE
8
0
62
5
66
1
10
0
20
0
30
0
70
8
0
VERTEX
8
0
62
5
10
0.16970561
20
0.29701844
30
0
70
32
0
VERTEX
8
0
62
5
10
0.16970561
20
0.38939448
30
0
70
32
0
SEQEND
8
0
0
POLYLINE
8
0
62
5
66
1
10
0
20
0
30
0
70
8
0
VERTEX
8
0
62
5
10
0.11313707
20
0.43558251
30
0
70
32
0
VERTEX
8
0
62
5
10
0.11313707
20
0.48177053
30
0
70
32
0
SEQEND
8
0
0
POLYLINE
8
0
62
5
66
1
10
0
20
0
30
0
70
8
0
VERTEX
8
0
62
5
10
0.14142134
20
0.43558251
30
0
70
32
0
VERTEX
8
0
62
5
10
0.14142134
20
0.48177053
30
0
70
32
0
SEQEND
8
0
0
POLYLINE
8
0
62
5
66
1
10
0
20
0
30
0
70
8
0
VERTEX
8
0
62
5
10
0.16970561
20
0.43558251
30
0
70
32
0
VERTEX
8
0
62
5
10
0.16970561
20
0.48177053
30
0
70
32
0
SEQEND
8
0
0
POLYLINE
8
0
62
30
66
1
10
0
20
0
30
0
70
8
0
VERTEX
8
0
62
30
10
0.11313707
20
0.38939448
30
0
70
32
0
VERTEX
8
0
62
30
10
0.11313707
20
0.43558251
30
0
70
32
0
SEQEND
8
0
0
POLYLINE
8
0
62
30
66
1
10
0
20
0
30
0
70
8
0
VERTEX
8
0
62
30
10
0.14142134
20
0.38939448
30
0
70
32
0
VERTEX
8
0
62
30
10
0.14142134
20
0.43558251
30
0
70
32
0
SEQEND
8
0
0
POLYLINE
8
0
62
30
66
1
10
0
20
0
30
0
70
8
0
VERTEX
8
0
62
30
10
0.16970561
20
0.38939448
30
0
70
32
0
VERTEX
8
0
62
30
10
0.16970561
20
0.43558251
30
0
70
32
0
SEQEND
8
0
0
POLYLINE
8
0
62
30
66
1
10
0
20
0
30
0
70
8
0
VERTEX
8
0
62
30
10
0.19798988
20
0.38939448
30
0
70
32
0
VERTEX
8
0
62
30
10
0.19798988
20
0.43558251
30
0
70
32
0
SEQEND
8
0
0
POLYLINE
8
0
62
5
66
1
10
0
20
0
30
0
70
8
0
VERTEX
8
0
62
5
10
0.11313707
20
0.38939448
30
0
70
32
0
VERTEX
8
0
62
5
10
0.10835414
20
0.40094149
30
0
70
32
0
VERTEX
8
0
62
5
10
0.11313707
20
0.41248849
30
0
70
32
0
VERTEX
8
0
62
5
10
0.10835414
20
0.4240355
30
0
70
32
0
VERTEX
8
0
62
5
10
0.11313707
20
0.43558251
30
0
70
32
0
SEQEND
8
0
0
POLYLINE
8
0
62
5
66
1
10
0
20
0
30
0
70
8
0
VERTEX
8
0
62
5
10
0.14142134
20
0.38939448
30
0
70
32
0
VERTEX
8
0
62
5
10
0.13663841
20
0.40094149
30
0
70
32
0
VERTEX
8
0
62
5
10
0.14142134
20
0.41248849
30
0
70
32
0
VERTEX
8
0
62
5
10
0.13663841
20
0.4240355
30
0
70
32
0
VERTEX
8
0
62
5
10
0.14142134
20
0.43558251
30
0
70
32
0
SEQEND
8
0
0
POLYLINE
8
0
62
5
66
1
10
0
20
0
30
0
70
8
0
VERTEX
8
0
62
5
10
0.16970561
20
0.38939448
30
0
70
32
0
VERTEX
8
0
62
5
10
0.16492268
20
0.40094149
30
0
70
32
0
VERTEX
8
0
62
5
10
0.16970561
20
0.41248849
30
0
70
32
0
VERTEX
8
0
62
5
10
0.16492268
20
0.4240355
30
0
70
32
0
VERTEX
8
0
62
5
10
0.16970561
20
0.43558251
30
0
70
32
0
SEQEND
8
0
0
POLYLINE
8
0
62
5
66
1
10
0
20
0
30
0
70
8
0
VERTEX
8
0
62
5
10
0.19798988
20
0.38939448
30
0
70
32
0
VERTEX
8
0
62
5
10
0.19320695
20
0.40094149
30
0
70
32
0
VERTEX
8
0
62
5
10
0.19798988
20
0.41248849
30
0
70
32
0
VERTEX
8
0
62
5
10
0.19320695
20
0.4240355
30
0
70
32
0
VERTEX
8
0
62
5
10
0.19798988
20
0.43558251
30
0
70
32
0
SEQEND
8
0
0
POLYLINE
8
0
62
5
66
1
10
0
20
0
30
0
70
8
0
VERTEX
8
0
62
5
10
0.084852795
20
0.40094149
30
0
70
32
0
VERTEX
8
0
62
5
10
0.10835414
20
0.40094149
30
0
70
32
0
SEQEND
8
0
0
POLYLINE
8
0
62
5
66
1
10
0
20
0
30
0
70
8
0
VERTEX
8
0
62
5
10
0.084852795
20
0.4240355
30
0
70
32
0
VERTEX
8
0
62
5
10
0.10835414
20
0.4240355
30
0
70
32
0
SEQEND
8
0
0
POLYLINE
8
0
62
5
66
1
10
0
20
0
30
0
70
8
0
VERTEX
8
0
62
5
10
0.11313707
20
0.40094149
30
0
70
32
0
VERTEX
8
0
62
5
10
0.13663841
20
0.40094149
30
0
70
32
0
SEQEND
8
0
0
POLYLINE
8
0
62
5
66
1
10
0
20
0
30
0
70
8
0
VERTEX
8
0
62
5
10
0.11313707
20
0.4240355
30
0
70
32
0
VERTEX
8
0
62
5
10
0.13663841
20
0.4240355
30
0
70
32
0
SEQEND
8
0
0
POLYLINE
8
0
62
5
66
1
10
0
20
0
30
0
70
8
0
VERTEX
8
0
62
5
10
0.14142134
20
0.40094149
30
0
70
32
0
VERTEX
8
0
62
5
10
0.16492268
20
0.40094149
30
0
70
32
0
SEQEND
8
0
0
POLYLINE
8
0
62
5
66
1
10
0
20
0
30
0
70
8
0
VERTEX
8
0
62
5
10
0.14142134
20
0.4240355
30
0
70
32
0
VERTEX
8
0
62
5
10
0.16492268
20
0.4240355
30
0
70
32
0
SEQEND
8
0
0
POLYLINE
8
0
62
5
66
1
10
0
20
0
30
0
70
8
0
VERTEX
8
0
62
5
10
0.16970561
20
0.40094149
30
0
70
32
0
VERTEX
8
0
62
5
10
0.19320695
20
0.40094149
30
0
70
32
0
SEQEND
8
0
0
POLYLINE
8
0
62
5
66
1
10
0
20
0
30
0
70
8
0
VERTEX
8
0
62
5
10
0.16970561
20
0.4240355
30
0
70
32
0
VERTEX
8
0
62
5
10
0.19320695
20
0.4240355
30
0
70
32
0
SEQEND
8
0
0
POLYLINE
8
0
62
30
66
1
10
0
20
0
30
0
70
8
0
VERTEX
8
0
62
30
10
0.10835414
20
0.40094149
30
0
70
32
0
VERTEX
8
0
62
30
10
0.11313707
20
0.40094149
30
0
70
32
0
SEQEND
8
0
0
POLYLINE
8
0
62
30
66
1
10
0
20
0
30
0
70
8
0
VERTEX
8
0
62
30
10
0.10835414
20
0.4240355
30
0
70
32
0
VERTEX
8
0
62
30
10
0.11313707
20
0.4240355
30
0
70
32
0
SEQEND
8
0
0
POLYLINE
8
0
62
30
66
1
10
0
20
0
30
0
70
8
0
VERTEX
8
0
62
30
10
0.13663841
20
0.40094149
30
0
70
32
0
VERTEX
8
0
62
30
10
0.14142134
20
0.40094149
30
0
70
32
0
SEQEND
8
0
0
POLYLINE
8
0
62
30
66
1
10
0
20
0
30
0
70
8
0
VERTEX
8
0
62
30
10
0.13663841
20
0.4240355
30
0
70
32
0
VERTEX
8
0
62
30
10
0.14142134
20
0.4240355
30
0
70
32
0
SEQEND
8
0
0
POLYLINE
8
0
62
30
66
1
10
0
20
0
30
0
70
8
0
VERTEX
8
0
62
30
10
0.16492268
20
0.40094149
30
0
70
32
0
VERTEX
8
0
62
30
10
0.16970561
20
0.40094149
30
0
70
32
0
SEQEND
8
0
0
POLYLINE
8
0
62
30
66
1
10
0
20
0
30
0
70
8
0
VERTEX
8
0
62
30
10
0.16492268
20
0.4240355
30
0
70
32
0
VERTEX
8
0
62
30
10
0.16970561
20
0.4240355
30
0
70
32
0
SEQEND
8
0
0
POLYLINE
8
0
62
30
66
1
10
0
20
0
30
0
70
8
0
VERTEX
8
0
62
30
10
0.19320695
20
0.40094149
30
0
70
32
0
VERTEX
8
0
62
30
10
0.19798988
20
0.40094149
30
0
70
32
0
SEQEND
8
0
0
POLYLINE
8
0
62
30
66
1
10
0
20
0
30
0
70
8
0
VERTEX
8
0
62
30
10
0.19320695
20
0.4240355
30
0
70
32
0
VERTEX
8
0
62
30
10
0.19798988
20
0.4240355
30
0
70
32
0
SEQEND
8
0
0
POLYLINE
8
0
62
5
66
1
10
0
20
0
30
0
70
8
0
VERTEX
8
0
62
5
10
-0.14142137
20
0.29701844
30
0
70
32
0
VERTEX
8
0
62
5
10
-0.14142137
20
0.48177053
30
0
70
32
0
SEQEND
8
0
0
POLYLINE
8
0
62
30
66
1
10
0
20
0
30
0
70
8
0
VERTEX
8
0
62
30
10
-0.14142137
20
0.43558251
30
0
70
32
0
VERTEX
8
0
62
30
10
-0.02828429
20
0.43558251
30
0
70
32
0
SEQEND
8
0
0
POLYLINE
8
0
62
30
66
1
10
0
20
0
30
0
70
8
0
VERTEX
8
0
62
30
10
-0.14142137
20
0.38939448
30
0
70
32
0
VERTEX
8
0
62
30
10
-0.02828429
20
0.38939448
30
0
70
32
0
SEQEND
8
0
0
POLYLINE
8
0
62
30
66
1
10
0
20
0
30
0
70
8
0
VERTEX
8
0
62
30
10
-0.14142137
20
0.41248849
30
0
70
32
0
VERTEX
8
0
62
30
10
-0.02828429
20
0.41248849
30
0
70
32
0
SEQEND
8
0
0
POLYLINE
8
0
62
5
66
1
10
0
20
0
30
0
70
8
0
VERTEX
8
0
62
5
10
-0.14142137
20
0.34320646
30
0
70
32
0
VERTEX
8
0
62
5
10
-0.02828429
20
0.34320646
30
0
70
32
0
SEQEND
8
0
0
POLYLINE
8
0
62
5
66
1
10
0
20
0
30
0
70
8
0
VERTEX
8
0
62
5
10
-0.1131371
20
0.29701844
30
0
70
32
0
VERTEX
8
0
62
5
10
-0.1131371
20
0.38939448
30
0
70
32
0
SEQEND
8
0
0
POLYLINE
8
0
62
5
66
1
10
0
20
0
30
0
70
8
0
VERTEX
8
0
62
5
10
-0.084852832
20
0.29701844
30
0
70
32
0
VERTEX
8
0
62
5
10
-0.084852832
20
0.38939448
30
0
70
32
0
SEQEND
8
0
0
POLYLINE
8
0
62
5
66
1
10
0
20
0
30
0
70
8
0
VERTEX
8
0
62
5
10
-0.056568561
20
0.29701844
30
0
70
32
0
VERTEX
8
0
62
5
10
-0.056568561
20
0.38939448
30
0
70
32
0
SEQEND
8
0
0
POLYLINE
8
0
62
5
66
1
10
0
20
0
30
0
70
8
0
VERTEX
8
0
62
5
10
-0.1131371
20
0.43558251
30
0
70
32
0
VERTEX
8
0
62
5
10
-0.1131371
20
0.48177053
30
0
70
32
0
SEQEND
8
0
0
POLYLINE
8
0
62
5
66
1
10
0
20
0
30
0
70
8
0
VERTEX
8
0
62
5
10
-0.084852832
20
0.43558251
30
0
70
32
0
VERTEX
8
0
62
5
10
-0.084852832
20
0.48177053
30
0
70
32
0
SEQEND
8
0
0
POLYLINE
8
0
62
5
66
1
10
0
20
0
30
0
70
8
0
VERTEX
8
0
62
5
10
-0.056568561
20
0.43558251
30
0
70
32
0
VERTEX
8
0
62
5
10
-0.056568561
20
0.48177053
30
0
70
32
0
SEQEND
8
0
0
POLYLINE
8
0
62
30
66
1
10
0
20
0
30
0
70
8
0
VERTEX
8
0
62
30
10
-0.1131371
20
0.38939448
30
0
70
32
0
VERTEX
8
0
62
30
10
-0.1131371
20
0.43558251
30
0
70
32
0
SEQEND
8
0
0
POLYLINE
8
0
62
30
66
1
10
0
20
0
30
0
70
8
0
VERTEX
8
0
62
30
10
-0.084852832
20
0.38939448
30
0
70
32
0
VERTEX
8
0
62
30
10
-0.084852832
20
0.43558251
30
0
70
32
0
SEQEND
8
0
0
POLYLINE
8
0
62
30
66
1
10
0
20
0
30
0
70
8
0
VERTEX
8
0
62
30
10
-0.056568561
20
0.38939448
30
0
70
32
0
VERTEX
8
0
62
30
10
-0.056568561
20
0.43558251
30
0
70
32
0
SEQEND
8
0
0
POLYLINE
8
0
62
30
66
1
10
0
20
0
30
0
70
8
0
VERTEX
8
0
62
30
10
-0.02828429
20
0.38939448
30
0
70
32
0
VERTEX
8
0
62
30
10
-0.02828429
20
0.43558251
30
0
70
32
0
SEQEND
8
0
0
POLYLINE
8
0
62
5
66
1
10
0
20
0
30
0
70
8
0
VERTEX
8
0
62
5
10
-0.1131371
20
0.38939448
30
0
70
32
0
VERTEX
8
0
62
5
10
-0.11792003
20
0.40094149
30
0
70
32
0
VERTEX
8
0
62
5
10
-0.1131371
20
0.41248849
30
0
70
32
0
VERTEX
8
0
62
5
10
-0.11792003
20
0.4240355
30
0
70
32
0
VERTEX
8
0
62
5
10
-0.1131371
20
0.43558251
30
0
70
32
0
SEQEND
8
0
0
POLYLINE
8
0
62
5
66
1
10
0
20
0
30
0
70
8
0
VERTEX
8
0
62
5
10
-0.084852832
20
0.38939448
30
0
70
32
0
VERTEX
8
0
62
5
10
-0.089635759
20
0.40094149
30
0
70
32
0
VERTEX
8
0
62
5
10
-0.084852832
20
0.41248849
30
0
70
32
0
VERTEX
8
0
62
5
10
-0.089635759
20
0.4240355
30
0
70
32
0
VERTEX
8
0
62
5
10
-0.084852832
20
0.43558251
30
0
70
32
0
SEQEND
8
0
0
POLYLINE
8
0
62
5
66
1
10
0
20
0
30
0
70
8
0
VERTEX
8
0
62
5
10
-0.056568561
20
0.38939448
30
0
70
32
0
VERTEX
8
0
62
5
10
-0.061351487
20
0.40094149
30
0
70
32
0
VERTEX
8
0
62
5
10
-0.056568561
20
0.41248849
30
0
70
32
0
VERTEX
8
0
62
5
10
-0.061351487
20
0.4240355
30
0
70
32
0
VERTEX
8
0
62
5
10
-0.056568561
20
0.43558251
30
0
70
32
0
SEQEND
8
0
0
POLYLINE
8
0
62
5
66
1
10
0
20
0
30
0
70
8
0
VERTEX
8
0
62
5
10
-0.02828429
20
0.38939448
30
0
70
32
0
VERTEX
8
0
62
5
10
-0.033067216
20
0.40094149
30
0
70
32
0
VERTEX
8
0
62
5
10
-0.02828429
20
0.41248849
30
0
70
32
0
VERTEX
8
0
62
5
10
-0.033067216
20
0.4240355
30
0
70
32
0
VERTEX
8
0
62
5
10
-0.02828429
20
0.43558251
30
0
70
32
0
SEQEND
8
0
0
POLYLINE
8
0
62
5
66
1
10
0
20
0
30
0
70
8
0
VERTEX
8
0
62
5
10
-0.14142137
20
0.40094149
30
0
70
32
0
VERTEX
8
0
62
5
10
-0.11792003
20
0.40094149
30
0
70
32
0
SEQEND
8
0
0
POLYLINE
8
0
62
5
66
1
10
0
20
0
30
0
70
8
0
VERTEX
8
0
62
5
10
-0.14142137
20
0.4240355
30
0
70
32
0
VERTEX
8
0
62
5
10
-0.11792003
20
0.4240355
30
0
70
32
0
SEQEND
8
0
0
POLYLINE
8
0
62
5
66
1
10
0
20
0
30
0
70
8
0
VERTEX
8
0
62
5
10
-0.1131371
20
0.40094149
30
0
70
32
0
VERTEX
8
0
62
5
10
-0.089635759
20
0.40094149
30
0
70
32
0
SEQEND
8
0
0
POLYLINE
8
0
62
5
66
1
10
0
20
0
30
0
70
8
0
VERTEX
8
0
62
5
10
-0.1131371
20
0.4240355
30
0
70
32
0
VERTEX
8
0
62
5
10
-0.089635759
20
0.4240355
30
0
70
32
0
SEQEND
8
0
0
POLYLINE
8
0
62
5
66
1
10
0
20
0
30
0
70
8
0
VERTEX
8
0
62
5
10
-0.084852832
20
0.40094149
30
0
70
32
0
VERTEX
8
0
62
5
10
-0.061351487
20
0.40094149
30
0
70
32
0
SEQEND
8
0
0
POLYLINE
8
0
62
5
66
1
10
0
20
0
30
0
70
8
0
VERTEX
8
0
62
5
10
-0.084852832
20
0.4240355
30
0
70
32
0
VERTEX
8
0
62
5
10
-0.061351487
20
0.4240355
30
0
70
32
0
SEQEND
8
0
0
POLYLINE
8
0
62
5
66
1
10
0
20
0
30
0
70
8
0
VERTEX
8
0
62
5
10
-0.056568561
20
0.40094149
30
0
70
32
0
VERTEX
8
0
62
5
10
-0.033067216
20
0.40094149
30
0
70
32
0
SEQEND
8
0
0
POLYLINE
8
0
62
5
66
1
10
0
20
0
30
0
70
8
0
VERTEX
8
0
62
5
10
-0.056568561
20
0.4240355
30
0
70
32
0
VERTEX
8
0
62
5
10
-0.033067216
20
0.4240355
30
0
70
32
0
SEQEND
8
0
0
POLYLINE
8
0
62
30
66
1
10
0
20
0
30
0
70
8
0
VERTEX
8
0
62
30
10
-0.11792003
20
0.40094149
30
0
70
32
0
VERTEX
8
0
62
30
10
-0.1131371
20
0.40094149
30
0
70
32
0
SEQEND
8
0
0
POLYLINE
8
0
62
30
66
1
10
0
20
0
30
0
70
8
0
VERTEX
8
0
62
30
10
-0.11792003
20
0.4240355
30
0
70
32
0
VERTEX
8
0
62
30
10
-0.1131371
20
0.4240355
30
0
70
32
0
SEQEND
8
0
0
POLYLINE
8
0
62
30
66
1
10
0
20
0
30
0
70
8
0
VERTEX
8
0
62
30
10
-0.089635759
20
0.40094149
30
0
70
32
0
VERTEX
8
0
62
30
10
-0.084852832
20
0.40094149
30
0
70
32
0
SEQEND
8
0
0
POLYLINE
8
0
62
30
66
1
10
0
20
0
30
0
70
8
0
VERTEX
8
0
62
30
10
-0.089635759
20
0.4240355
30
0
70
32
0
VERTEX
8
0
62
30
10
-0.084852832
20
0.4240355
30
0
70
32
0
SEQEND
8
0
0
POLYLINE
8
0
62
30
66
1
10
0
20
0
30
0
70
8
0
VERTEX
8
0
62
30
10
-0.061351487
20
0.40094149
30
0
70
32
0
VERTEX
8
0
62
30
10
-0.056568561
20
0.40094149
30
0
70
32
0
SEQEND
8
0
0
POLYLINE
8
0
62
30
66
1
10
0
20
0
30
0
70
8
0
VERTEX
8
0
62
30
10
-0.061351487
20
0.4240355
30
0
70
32
0
VERTEX
8
0
62
30
10
-0.056568561
20
0.4240355
30
0
70
32
0
SEQEND
8
0
0
POLYLINE
8
0
62
30
66
1
10
0
20
0
30
0
70
8
0
VERTEX
8
0
62
30
10
-0.033067216
20
0.40094149
30
0
70
32
0
VERTEX
8
0
62
30
10
-0.02828429
20
0.40094149
30
0
70
32
0
SEQEND
8
0
0
POLYLINE
8
0
62
30
66
1
10
0
20
0
30
0
70
8
0
VERTEX
8
0
62
30
10
-0.033067216
20
0.4240355
30
0
70
32
0
VERTEX
8
0
62
30
10
-0.02828429
20
0.4240355
30
0
70
32
0
SEQEND
8
0
0
POLYLINE
8
0
62
5
66
1
10
0
20
0
30
0
70
8
0
VERTEX
8
0
62
5
10
-0.02828429
20
0.48177053
30
0
70
32
0
VERTEX
8
0
62
5
10
-0.02828429
20
0.49777044
30
0
70
32
0
SEQEND
8
0
0
POLYLINE
8
0
62
5
66
1
10
0
20
0
30
0
70
8
0
VERTEX
8
0
62
5
10
-1.8522969e-08
20
0.48177053
30
0
70
32
0
VERTEX
8
0
62
5
10
-1.8522969e-08
20
0.49777044
30
0
70
32
0
SEQEND
8
0
0
POLYLINE
8
0
62
5
66
1
10
0
20
0
30
0
70
8
0
VERTEX
8
0
62
5
10
0.028284253
20
0.48177053
30
0
70
32
0
VERTEX
8
0
62
5
10
0.028284253
20
0.49777044
30
0
70
32
0
SEQEND
8
0
0
POLYLINE
8
0
62
5
66
1
10
0
20
0
30
0
70
8
0
VERTEX
8
0
62
5
10
0.056568524
20
0.48177053
30
0
70
32
0
VERTEX
8
0
62
5
10
0.056568524
20
0.49777044
30
0
70
32
0
SEQEND
8
0
0
POLYLINE
8
0
62
5
66
1
10
0
20
0
30
0
70
8
0
VERTEX
8
0
62
5
10
0.084852795
20
0.48177053
30
0
70
32
0
VERTEX
8
0
62
5
10
0.084852795
20
0.49777044
30
0
70
32
0
SEQEND
8
0
0
POLYLINE
8
0
62
5
66
1
10
0
20
0
30
0
70
8
0
VERTEX
8
0
62
5
10
-1.8522969e-08
20
0.48177053
30
0
70
32
0
VERTEX
8
0
62
5
10
-1.8522969e-08
20
0.48177053
30
0
70
32
0
SEQEND
8
0
0
POLYLINE
8
0
62
5
66
1
10
0
20
0
30
0
70
8
0
VERTEX
8
0
62
5
10
0.028284253
20
0.48177053
30
0
70
32
0
VERTEX
8
0
62
5
10
0.028284253
20
0.48177053
30
0
70
32
0
SEQEND
8
0
0
POLYLINE
8
0
62
5
66
1
10
0
20
0
30
0
70
8
0
VERTEX
8
0
62
5
10
0.056568524
20
0.48177053
30
0
70
32
0
VERTEX
8
0
62
5
10
0.056568524
20
0.48177053
30
0
70
32
0
SEQEND
8
0
0
POLYLINE
8
0
62
5
66
1
10
0
20
0
30
0
70
8
0
VERTEX
8
0
62
5
10
-0.02828429
20
0.49777044
30
0
70
32
0
VERTEX
8
0
62
5
10
-0.02828429
20
0.49777044
30
0
70
32
0
SEQEND
8
0
0
POLYLINE
8
0
62
5
66
1
10
0
20
0
30
0
70
8
0
VERTEX
8
0
62
5
10
-1.8522969e-08
20
0.49777044
30
0
70
32
0
VERTEX
8
0
62
5
10
-1.8522969e-08
20
0.49777044
30
0
70
32
0
SEQEND
8
0
0
POLYLINE
8
0
62
5
66
1
10
0
20
0
30
0
70
8
0
VERTEX
8
0
62
5
10
0.028284253
20
0.49777044
30
0
70
32
0
VERTEX
8
0
62
5
10
0.028284253
20
0.49777044
30
0
70
32
0
SEQEND
8
0
0
POLYLINE
8
0
62
5
66
1
10
0
20
0
30
0
70
8
0
VERTEX
8
0
62
5
10
0.056568524
20
0.49777044
30
0
70
32
0
VERTEX
8
0
62
5
10
0.056568524
20
0.49777044
30
0
70
32
0
SEQEND
8
0
0
POLYLINE
8
0
62
5
66
1
10
0
20
0
30
0
70
8
0
VERTEX
8
0
62
5
10
0.11313707
20
0.48177053
30
0
70
32
0
VERTEX
8
0
62
5
10
0.11313707
20
0.49777044
30
0
70
32
0
SEQEND
8
0
0
POLYLINE
8
0
62
5
66
1
10
0
20
0
30
0
70
8
0
VERTEX
8
0
62
5
10
0.14142134
20
0.48177053
30
0
70
32
0
VERTEX
8
0
62
5
10
0.14142134
20
0.49777044
30
0
70
32
0
SEQEND
8
0
0
POLYLINE
8
0
62
5
66
1
10
0
20
0
30
0
70
8
0
VERTEX
8
0
62
5
10
0.16970561
20
0.48177053
30
0
70
32
0
VERTEX
8
0
62
5
10
0.16970561
20
0.49777044
30
0
70
32
0
SEQEND
8
0
0
POLYLINE
8
0
62
5
66
1
10
0
20
0
30
0
70
8
0
VERTEX
8
0
62
5
10
0.19798988
20
0.48177053
30
0
70
32
0
VERTEX
8
0
62
5
10
0.19798988
20
0.49777044
30
0
70
32
0
SEQEND
8
0
0
POLYLINE
8
0
62
5
66
1
10
0
20
0
30
0
70
8
0
VERTEX
8
0
62
5
10
0.11313707
20
0.48177053
30
0
70
32
0
VERTEX
8
0
62
5
10
0.11313707
20
0.48177053
30
0
70
32
0
SEQEND
8
0
0
POLYLINE
8
0
62
5
66
1
10
0
20
0
30
0
70
8
0
VERTEX
8
0
62
5
10
0.14142134
20
0.48177053
30
0
70
32
0
VERTEX
8
0
62
5
10
0.14142134
20
0.48177053
30
0
70
32
0
SEQEND
8
0
0
POLYLINE
8
0
62
5
66
1
10
0
20
0
30
0
70
8
0
VERTEX
8
0
62
5
10
0.16970561
20
0.48177053
30
0
70
32
0
VERTEX
8
0
62
5
10
0.16970561
20
0.48177053
30
0
70
32
0
SEQEND
8
0
0
POLYLINE
8
0
62
5
66
1
10
0
20
0
30
0
70
8
0
VERTEX
8
0
62
5
10
0.084852795
20
0.49777044
30
0
70
32
0
VERTEX
8
0
62
5
10
0.084852795
20
0.49777044
30
0
70
32
0
SEQEND
8
0
0
POLYLINE
8
0
62
5
66
1
10
0
20
0
30
0
70
8
0
VERTEX
8
0
62
5
10
0.11313707
20
0.49777044
30
0
70
32
0
VERTEX
8
0
62
5
10
0.11313707
20
0.49777044
30
0
70
32
0
SEQEND
8
0
0
POLYLINE
8
0
62
5
66
1
10
0
20
0
30
0
70
8
0
VERTEX
8
0
62
5
10
0.14142134
20
0.49777044
30
0
70
32
0
VERTEX
8
0
62
5
10
0.14142134
20
0.49777044
30
0
70
32
0
SEQEND
8
0
0
POLYLINE
8
0
62
5
66
1
10
0
20
0
30
0
70
8
0
VERTEX
8
0
62
5
10
0.16970561
20
0.49777044
30
0
70
32
0
VERTEX
8
0
62
5
10
0.16970561
20
0.49777044
30
0
70
32
0
SEQEND
8
0
0
POLYLINE
8
0
62
5
66
1
10
0
20
0
30
0
70
8
0
VERTEX
8
0
62
5
10
-0.1131371
20
0.48177053
30
0
70
32
0
VERTEX
8
0
62
5
10
-0.1131371
20
0.49777044
30
0
70
32
0
SEQEND
8
0
0
POLYLINE
8
0
62
5
66
1
10
0
20
0
30
0
70
8
0
VERTEX
8
0
62
5
10
-0.084852832
20
0.48177053
30
0
70
32
0
VERTEX
8
0
62
5
10
-0.084852832
20
0.49777044
30
0
70
32
0
SEQEND
8
0
0
POLYLINE
8
0
62
5
66
1
10
0
20
0
30
0
70
8
0
VERTEX
8
0
62
5
10
-0.056568561
20
0.48177053
30
0
70
32
0
VERTEX
8
0
62
5
10
-0.056568561
20
0.49777044
30
0
70
32
0
SEQEND
8
0
0
POLYLINE
8
0
62
5
66
1
10
0
20
0
30
0
70
8
0
VERTEX
8
0
62
5
10
-0.02828429
20
0.48177053
30
0
70
32
0
VERTEX
8
0
62
5
10
-0.02828429
20
0.49777044
30
0
70
32
0
SEQEND
8
0
0
POLYLINE
8
0
62
5
66
1
10
0
20
0
30
0
70
8
0
VERTEX
8
0
62
5
10
-0.1131371
20
0.48177053
30
0
70
32
0
VERTEX
8
0
62
5
10
-0.1131371
20
0.48177053
30
0
70
32
0
SEQEND
8
0
0
POLYLINE
8
0
62
5
66
1
10
0
20
0
30
0
70
8
0
VERTEX
8
0
62
5
10
-0.084852832
20
0.48177053
30
0
70
32
0
VERTEX
8
0
62
5
10
-0.084852832
20
0.48177053
30
0
70
32
0
SEQEND
8
0
0
POLYLINE
8
0
62
5
66
1
10
0
20
0
30
0
70
8
0
VERTEX
8
0
62
5
10
-0.056568561
20
0.48177053
30
0
70
32
0
VERTEX
8
0
62
5
10
-0.056568561
20
0.48177053
30
0
70
32
0
SEQEND
8
0
0
POLYLINE
8
0
62
5
66
1
10
0
20
0
30
0
70
8
0
VERTEX
8
0
62
5
10
-0.14142137
20
0.49777044
30
0
70
32
0
VERTEX
8
0
62
5
10
-0.14142137
20
0.49777044
30
0
70
32
0
SEQEND
8
0
0
POLYLINE
8
0
62
5
66
1
10
0
20
0
30
0
70
8
0
VERTEX
8
0
62
5
10
-0.1131371
20
0.49777044
30
0
70
32
0
VERTEX
8
0
62
5
10
-0.1131371
20
0.49777044
30
0
70
32
0
SEQEND
8
0
0
POLYLINE
8
0
62
5
66
1
10
0
20
0
30
0
70
8
0
VERTEX
8
0
62
5
10
-0.084852832
20
0.49777044
30
0
70
32
0
VERTEX
8
0
62
5
10
-0.084852832
20
0.49777044
30
0
70
32
0
SEQEND
8
0
0
POLYLINE
8
0
62
5
66
1
10
0
20
0
30
0
70
8
0
VERTEX
8
0
62
5
10
-0.056568561
20
0.49777044
30
0
70
32
0
VERTEX
8
0
62
5
10
-0.056568561
20
0.49777044
30
0
70
32
0
SEQEND
8
0
0
POLYLINE
8
0
62
5
66
1
10
0
20
0
30
0
70
8
0
VERTEX
8
0
62
5
10
-0.02828429
20
0.49777044
30
0
70
32
0
VERTEX
8
0
62
5
10
-0.02828429
20
0.5617701
30
0
70
32
0
SEQEND
8
0
0
POLYLINE
8
0
62
5
66
1
10
0
20
0
30
0
70
8
0
VERTEX
8
0
62
5
10
0.084852795
20
0.49777044
30
0
70
32
0
VERTEX
8
0
62
5
10
0.084852795
20
0.5617701
30
0
70
32
0
SEQEND
8
0
0
POLYLINE
8
0
62
5
66
1
10
0
20
0
30
0
70
8
0
VERTEX
8
0
62
5
10
-1.8522969e-08
20
0.49777044
30
0
70
32
0
VERTEX
8
0
62
5
10
-1.8522969e-08
20
0.5617701
30
0
70
32
0
SEQEND
8
0
0
POLYLINE
8
0
62
5
66
1
10
0
20
0
30
0
70
8
0
VERTEX
8
0
62
5
10
0.028284253
20
0.49777044
30
0
70
32
0
VERTEX
8
0
62
5
10
0.028284253
20
0.5617701
30
0
70
32
0
SEQEND
8
0
0
POLYLINE
8
0
62
5
66
1
10
0
20
0
30
0
70
8
0
VERTEX
8
0
62
5
10
0.056568524
20
0.49777044
30
0
70
32
0
VERTEX
8
0
62
5
10
0.056568524
20
0.5617701
30
0
70
32
0
SEQEND
8
0
0
POLYLINE
8
0
62
5
66
1
10
0
20
0
30
0
70
8
0
VERTEX
8
0
62
5
10
0.19798988
20
0.49777044
30
0
70
32
0
VERTEX
8
0
62
5
10
0.19798988
20
0.5617701
30
0
70
32
0
SEQEND
8
0
0
POLYLINE
8
0
62
5
66
1
10
0
20
0
30
0
70
8
0
VERTEX
8
0
62
5
10
0.11313707
20
0.49777044
30
0
70
32
0
VERTEX
8
0
62
5
10
0.11313707
20
0.5617701
30
0
70
32
0
SEQEND
8
0
0
POLYLINE
8
0
62
5
66
1
10
0
20
0
30
0
70
8
0
VERTEX
8
0
62
5
10
0.14142134
20
0.49777044
30
0
70
32
0
VERTEX
8
0
62
5
10
0.14142134
20
0.5617701
30
0
70
32
0
SEQEND
8
0
0
POLYLINE
8
0
62
5
66
1
10
0
20
0
30
0
70
8
0
VERTEX
8
0
62
5
10
0.16970561
20
0.49777044
30
0
70
32
0
VERTEX
8
0
62
5
10
0.16970561
20
0.5617701
30
0
70
32
0
SEQEND
8
0
0
POLYLINE
8
0
62
5
66
1
10
0
20
0
30
0
70
8
0
VERTEX
8
0
62
5
10
-0.14142137
20
0.49777044
30
0
70
32
0
VERTEX
8
0
62
5
10
-0.14142137
20
0.5617701
30
0
70
32
0
SEQEND
8
0
0
POLYLINE
8
0
62
5
66
1
10
0
20
0
30
0
70
8
0
VERTEX
8
0
62
5
10
-0.1131371
20
0.49777044
30
0
70
32
0
VERTEX
8
0
62
5
10
-0.1131371
20
0.5617701
30
0
70
32
0
SEQEND
8
0
0
POLYLINE
8
0
62
5
66
1
10
0
20
0
30
0
70
8
0
VERTEX
8
0
62
5
10
-0.084852832
20
0.49777044
30
0
70
32
0
VERTEX
8
0
62
5
10
-0.084852832
20
0.5617701
30
0
70
32
0
SEQEND
8
0
0
POLYLINE
8
0
62
5
66
1
10
0
20
0
30
0
70
8
0
VERTEX
8
0
62
5
10
-0.056568561
20
0.49777044
30
0
70
32
0
VERTEX
8
0
62
5
10
-0.056568561
20
0.5617701
30
0
70
32
0
SEQEND
8
0
0
POLYLINE
8
0
62
5
66
1
10
0
20
0
30
0
70
8
0
VERTEX
8
0
62
5
10
-0.02828429
20
0.5617701
30
0
70
32
0
VERTEX
8
0
62
5
10
-0.02828429
20
0.6017701
30
0
70
32
0
SEQEND
8
0
0
POLYLINE
8
0
62
5
66
1
10
0
20
0
30
0
70
8
0
VERTEX
8
0
62
5
10
0.084852795
20
0.6017701
30
0
70
32
0
VERTEX
8
0
62
5
10
0.084852795
20
0.5617701
30
0
70
32
0
SEQEND
8
0
0
POLYLINE
8
0
62
5
66
1
10
0
20
0
30
0
70
8
0
VERTEX
8
0
62
5
10
-0.02828429
20
0.5617701
30
0
70
32
0
VERTEX
8
0
62
5
10
0.084852795
20
0.5617701
30
0
70
32
0
SEQEND
8
0
0
POLYLINE
8
0
62
5
66
1
10
0
20
0
30
0
70
8
0
VERTEX
8
0
62
5
10
-0.02828429
20
0.6017701
30
0
70
32
0
VERTEX
8
0
62
5
10
0.084852795
20
0.6017701
30
0
70
32
0
SEQEND
8
0
0
POLYLINE
8
0
62
5
66
1
10
0
20
0
30
0
70
8
0
VERTEX
8
0
62
5
10
-1.8522969e-08
20
0.5617701
30
0
70
32
0
VERTEX
8
0
62
5
10
-1.8522969e-08
20
0.5617701
30
0
70
32
0
SEQEND
8
0
0
POLYLINE
8
0
62
5
66
1
10
0
20
0
30
0
70
8
0
VERTEX
8
0
62
5
10
0.028284253
20
0.5617701
30
0
70
32
0
VERTEX
8
0
62
5
10
0.028284253
20
0.5617701
30
0
70
32
0
SEQEND
8
0
0
POLYLINE
8
0
62
5
66
1
10
0
20
0
30
0
70
8
0
VERTEX
8
0
62
5
10
0.056568524
20
0.5617701
30
0
70
32
0
VERTEX
8
0
62
5
10
0.056568524
20
0.5617701
30
0
70
32
0
SEQEND
8
0
0
POLYLINE
8
0
62
5
66
1
10
0
20
0
30
0
70
8
0
VERTEX
8
0
62
5
10
-1.8522969e-08
20
0.6017701
30
0
70
32
0
VERTEX
8
0
62
5
10
-1.8522969e-08
20
0.6017701
30
0
70
32
0
SEQEND
8
0
0
POLYLINE
8
0
62
5
66
1
10
0
20
0
30
0
70
8
0
VERTEX
8
0
62
5
10
0.028284253
20
0.6017701
30
0
70
32
0
VERTEX
8
0
62
5
10
0.028284253
20
0.6017701
30
0
70
32
0
SEQEND
8
0
0
POLYLINE
8
0
62
5
66
1
10
0
20
0
30
0
70
8
0
VERTEX
8
0
62
5
10
0.056568524
20
0.6017701
30
0
70
32
0
VERTEX
8
0
62
5
10
0.056568524
20
0.6017701
30
0
70
32
0
SEQEND
8
0
0
POLYLINE
8
0
62
30
66
1
10
0
20
0
30
0
70
8
0
VERTEX
8
0
62
30
10
-0.02828429
20
0.5617701
30
0
70
32
0
VERTEX
8
0
62
30
10
-0.014142154
20
0.5817701
30
0
70
32
0
SEQEND
8
0
0
POLYLINE
8
0
62
30
66
1
10
0
20
0
30
0
70
8
0
VERTEX
8
0
62
30
10
-0.014142154
20
0.5817701
30
0
70
32
0
VERTEX
8
0
62
30
10
-1.8522969e-08
20
0.5617701
30
0
70
32
0
SEQEND
8
0
0
POLYLINE
8
0
62
30
66
1
10
0
20
0
30
0
70
8
0
VERTEX
8
0
62
30
10
0.028284253
20
0.5617701
30
0
70
32
0
VERTEX
8
0
62
30
10
0.042426388
20
0.5817701
30
0
70
32
0
SEQEND
8
0
0
POLYLINE
8
0
62
30
66
1
10
0
20
0
30
0
70
8
0
VERTEX
8
0
62
30
10
0.042426388
20
0.5817701
30
0
70
32
0
VERTEX
8
0
62
30
10
0.056568524
20
0.5617701
30
0
70
32
0
SEQEND
8
0
0
POLYLINE
8
0
62
30
66
1
10
0
20
0
30
0
70
8
0
VERTEX
8
0
62
30
10
-1.8522969e-08
20
0.5817701
30
0
70
32
0
VERTEX
8
0
62
30
10
0.028284253
20
0.5817701
30
0
70
32
0
SEQEND
8
0
0
POLYLINE
8
0
62
30
66
1
10
0
20
0
30
0
70
8
0
VERTEX
8
0
62
30
10
0.056568524
20
0.5817701
30
0
70
32
0
VERTEX
8
0
62
30
10
0.084852795
20
0.5817701
30
0
70
32
0
SEQEND
8
0
0
POLYLINE
8
0
62
5
66
1
10
0
20
0
30
0
70
8
0
VERTEX
8
0
62
5
10
-0.02828429
20
0.5817701
30
0
70
32
0
VERTEX
8
0
62
5
10
-0.014142154
20
0.5817701
30
0
70
32
0
SEQEND
8
0
0
POLYLINE
8
0
62
5
66
1
10
0
20
0
30
0
70
8
0
VERTEX
8
0
62
5
10
0.028284253
20
0.5817701
30
0
70
32
0
VERTEX
8
0
62
5
10
0.042426388
20
0.5817701
30
0
70
32
0
SEQEND
8
0
0
POLYLINE
8
0
62
5
66
1
10
0
20
0
30
0
70
8
0
VERTEX
8
0
62
5
10
-0.014142154
20
0.5817701
30
0
70
32
0
VERTEX
8
0
62
5
10
-1.8522969e-08
20
0.5817701
30
0
70
32
0
SEQEND
8
0
0
POLYLINE
8
0
62
5
66
1
10
0
20
0
30
0
70
8
0
VERTEX
8
0
62
5
10
0.042426388
20
0.5817701
30
0
70
32
0
VERTEX
8
0
62
5
10
0.056568524
20
0.5817701
30
0
70
32
0
SEQEND
8
0
0
POLYLINE
8
0
62
5
66
1
10
0
20
0
30
0
70
8
0
VERTEX
8
0
62
5
10
-1.8522969e-08
20
0.5617701
30
0
70
32
0
VERTEX
8
0
62
5
10
-1.8522969e-08
20
0.6017701
30
0
70
32
0
SEQEND
8
0
0
POLYLINE
8
0
62
5
66
1
10
0
20
0
30
0
70
8
0
VERTEX
8
0
62
5
10
0.028284253
20
0.5617701
30
0
70
32
0
VERTEX
8
0
62
5
10
0.028284253
20
0.6017701
30
0
70
32
0
SEQEND
8
0
0
POLYLINE
8
0
62
5
66
1
10
0
20
0
30
0
70
8
0
VERTEX
8
0
62
5
10
0.056568524
20
0.5617701
30
0
70
32
0
VERTEX
8
0
62
5
10
0.056568524
20
0.6017701
30
0
70
32
0
SEQEND
8
0
0
POLYLINE
8
0
62
5
66
1
10
0
20
0
30
0
70
8
0
VERTEX
8
0
62
5
10
-0.02828429
20
0.5617701
30
0
70
32
0
VERTEX
8
0
62
5
10
-0.02828429
20
0.6017701
30
0
70
32
0
SEQEND
8
0
0
POLYLINE
8
0
62
5
66
1
10
0
20
0
30
0
70
8
0
VERTEX
8
0
62
5
10
0.19798988
20
0.6017701
30
0
70
32
0
VERTEX
8
0
62
5
10
0.19798988
20
0.5617701
30
0
70
32
0
SEQEND
8
0
0
POLYLINE
8
0
62
5
66
1
10
0
20
0
30
0
70
8
0
VERTEX
8
0
62
5
10
0.084852795
20
0.5617701
30
0
70
32
0
VERTEX
8
0
62
5
10
0.19798988
20
0.5617701
30
0
70
32
0
SEQEND
8
0
0
POLYLINE
8
0
62
5
66
1
10
0
20
0
30
0
70
8
0
VERTEX
8
0
62
5
10
0.084852795
20
0.6017701
30
0
70
32
0
VERTEX
8
0
62
5
10
0.19798988
20
0.6017701
30
0
70
32
0
SEQEND
8
0
0
POLYLINE
8
0
62
5
66
1
10
0
20
0
30
0
70
8
0
VERTEX
8
0
62
5
10
0.11313707
20
0.5617701
30
0
70
32
0
VERTEX
8
0
62
5
10
0.11313707
20
0.5617701
30
0
70
32
0
SEQEND
8
0
0
POLYLINE
8
0
62
5
66
1
10
0
20
0
30
0
70
8
0
VERTEX
8
0
62
5
10
0.14142134
20
0.5617701
30
0
70
32
0
VERTEX
8
0
62
5
10
0.14142134
20
0.5617701
30
0
70
32
0
SEQEND
8
0
0
POLYLINE
8
0
62
5
66
1
10
0
20
0
30
0
70
8
0
VERTEX
8
0
62
5
10
0.16970561
20
0.5617701
30
0
70
32
0
VERTEX
8
0
62
5
10
0.16970561
20
0.5617701
30
0
70
32
0
SEQEND
8
0
0
POLYLINE
8
0
62
5
66
1
10
0
20
0
30
0
70
8
0
VERTEX
8
0
62
5
10
0.11313707
20
0.6017701
30
0
70
32
0
VERTEX
8
0
62
5
10
0.11313707
20
0.6017701
30
0
70
32
0
SEQEND
8
0
0
POLYLINE
8
0
62
5
66
1
10
0
20
0
30
0
70
8
0
VERTEX
8
0
62
5
10
0.14142134
20
0.6017701
30
0
70
32
0
VERTEX
8
0
62
5
10
0.14142134
20
0.6017701
30
0
70
32
0
SEQEND
8
0
0
POLYLINE
8
0
62
5
66
1
10
0
20
0
30
0
70
8
0
VERTEX
8
0
62
5
10
0.16970561
20
0.6017701
30
0
70
32
0
VERTEX
8
0
62
5
10
0.16970561
20
0.6017701
30
0
70
32
0
SEQEND
8
0
0
POLYLINE
8
0
62
30
66
1
10
0
20
0
30
0
70
8
0
VERTEX
8
0
62
30
10
0.084852795
20
0.5617701
30
0
70
32
0
VERTEX
8
0
62
30
10
0.098994931
20
0.5817701
30
0
70
32
0
SEQEND
8
0
0
POLYLINE
8
0
62
30
66
1
10
0
20
0
30
0
70
8
0
VERTEX
8
0
62
30
10
0.098994931
20
0.5817701
30
0
70
32
0
VERTEX
8
0
62
30
10
0.11313707
20
0.5617701
30
0
70
32
0
SEQEND
8
0
0
POLYLINE
8
0
62
30
66
1
10
0
20
0
30
0
70
8
0
VERTEX
8
0
62
30
10
0.14142134
20
0.5617701
30
0
70
32
0
VERTEX
8
0
62
30
10
0.15556347
20
0.5817701
30
0
70
32
0
SEQEND
8
0
0
POLYLINE
8
0
62
30
66
1
10
0
20
0
30
0
70
8
0
VERTEX
8
0
62
30
10
0.15556347
20
0.5817701
30
0
70
32
0
VERTEX
8
0
62
30
10
0.16970561
20
0.5617701
30
0
70
32
0
SEQEND
8
0
0
POLYLINE
8
0
62
30
66
1
10
0
20
0
30
0
70
8
0
VERTEX
8
0
62
30
10
0.11313707
20
0.5817701
30
0
70
32
0
VERTEX
8
0
62
30
10
0.14142134
20
0.5817701
30
0
70
32
0
SEQEND
8
0
0
POLYLINE
8
0
62
30
66
1
10
0
20
0
30
0
70
8
0
VERTEX
8
0
62
30
10
0.16970561
20
0.5817701
30
0
70
32
0
VERTEX
8
0
62
30
10
0.19798988
20
0.5817701
30
0
70
32
0
SEQEND
8
0
0
POLYLINE
8
0
62
5
66
1
10
0
20
0
30
0
70
8
0
VERTEX
8
0
62
5
10
0.084852795
20
0.5817701
30
0
70
32
0
VERTEX
8
0
62
5
10
0.098994931
20
0.5817701
30
0
70
32
0
SEQEND
8
0
0
POLYLINE
8
0
62
5
66
1
10
0
20
0
30
0
70
8
0
VERTEX
8
0
62
5
10
0.14142134
20
0.5817701
30
0
70
32
0
VERTEX
8
0
62
5
10
0.15556347
20
0.5817701
30
0
70
32
0
SEQEND
8
0
0
POLYLINE
8
0
62
5
66
1
10
0
20
0
30
0
70
8
0
VERTEX
8
0
62
5
10
0.098994931
20
0.5817701
30
0
70
32
0
VERTEX
8
0
62
5
10
0.11313707
20
0.5817701
30
0
70
32
0
SEQEND
8
0
0
POLYLINE
8
0
62
5
66
1
10
0
20
0
30
0
70
8
0
VERTEX
8
0
62
5
10
0.15556347
20
0.5817701
30
0
70
32
0
VERTEX
8
0
62
5
10
0.16970561
20
0.5817701
30
0
70
32
0
SEQEND
8
0
0
POLYLINE
8
0
62
5
66
1
10
0
20
0
30
0
70
8
0
VERTEX
8
0
62
5
10
0.11313707
20
0.5617701
30
0
70
32
0
VERTEX
8
0
62
5
10
0.11313707
20
0.6017701
30
0
70
32
0
SEQEND
8
0
0
POLYLINE
8
0
62
5
66
1
10
0
20
0
30
0
70
8
0
VERTEX
8
0
62
5
10
0.14142134
20
0.5617701
30
0
70
32
0
VERTEX
8
0
62
5
10
0.14142134
20
0.6017701
30
0
70
32
0
SEQEND
8
0
0
POLYLINE
8
0
62
5
66
1
10
0
20
0
30
0
70
8
0
VERTEX
8
0
62
5
10
0.16970561
20
0.5617701
30
0
70
32
0
VERTEX
8
0
62
5
10
0.16970561
20
0.6017701
30
0
70
32
0
SEQEND
8
0
0
POLYLINE
8
0
62
5
66
1
10
0
20
0
30
0
70
8
0
VERTEX
8
0
62
5
10
0.084852795
20
0.5617701
30
0
70
32
0
VERTEX
8
0
62
5
10
0.084852795
20
0.6017701
30
0
70
32
0
SEQEND
8
0
0
POLYLINE
8
0
62
5
66
1
10
0
20
0
30
0
70
8
0
VERTEX
8
0
62
5
10
-0.14142137
20
0.5617701
30
0
70
32
0
VERTEX
8
0
62
5
10
-0.14142137
20
0.6017701
30
0
70
32
0
SEQEND
8
0
0
POLYLINE
8
0
62
5
66
1
10
0
20
0
30
0
70
8
0
VERTEX
8
0
62
5
10
-0.14142137
20
0.5617701
30
0
70
32
0
VERTEX
8
0
62
5
10
-0.02828429
20
0.5617701
30
0
70
32
0
SEQEND
8
0
0
POLYLINE
8
0
62
5
66
1
10
0
20
0
30
0
70
8
0
VERTEX
8
0
62
5
10
-0.14142137
20
0.6017701
30
0
70
32
0
VERTEX
8
0
62
5
10
-0.02828429
20
0.6017701
30
0
70
32
0
SEQEND
8
0
0
POLYLINE
8
0
62
5
66
1
10
0
20
0
30
0
70
8
0
VERTEX
8
0
62
5
10
-0.1131371
20
0.5617701
30
0
70
32
0
VERTEX
8
0
62
5
10
-0.1131371
20
0.5617701
30
0
70
32
0
SEQEND
8
0
0
POLYLINE
8
0
62
5
66
1
10
0
20
0
30
0
70
8
0
VERTEX
8
0
62
5
10
-0.084852832
20
0.5617701
30
0
70
32
0
VERTEX
8
0
62
5
10
-0.084852832
20
0.5617701
30
0
70
32
0
SEQEND
8
0
0
POLYLINE
8
0
62
5
66
1
10
0
20
0
30
0
70
8
0
VERTEX
8
0
62
5
10
-0.056568561
20
0.5617701
30
0
70
32
0
VERTEX
8
0
62
5
10
-0.056568561
20
0.5617701
30
0
70
32
0
SEQEND
8
0
0
POLYLINE
8
0
62
5
66
1
10
0
20
0
30
0
70
8
0
VERTEX
8
0
62
5
10
-0.1131371
20
0.6017701
30
0
70
32
0
VERTEX
8
0
62
5
10
-0.1131371
20
0.6017701
30
0
70
32
0
SEQEND
8
0
0
POLYLINE
8
0
62
5
66
1
10
0
20
0
30
0
70
8
0
VERTEX
8
0
62
5
10
-0.084852832
20
0.6017701
30
0
70
32
0
VERTEX
8
0
62
5
10
-0.084852832
20
0.6017701
30
0
70
32
0
SEQEND
8
0
0
POLYLINE
8
0
62
5
66
1
10
0
20
0
30
0
70
8
0
VERTEX
8
0
62
5
10
-0.056568561
20
0.6017701
30
0
70
32
0
VERTEX
8
0
62
5
10
-0.056568561
20
0.6017701
30
0
70
32
0
SEQEND
8
0
0
POLYLINE
8
0
62
30
66
1
10
0
20
0
30
0
70
8
0
VERTEX
8
0
62
30
10
-0.14142137
20
0.5617701
30
0
70
32
0
VERTEX
8
0
62
30
10
-0.12727924
20
0.5817701
30
0
70
32
0
SEQEND
8
0
0
POLYLINE
8
0
62
30
66
1
10
0
20
0
30
0
70
8
0
VERTEX
8
0
62
30
10
-0.12727924
20
0.5817701
30
0
70
32
0
VERTEX
8
0
62
30
10
-0.1131371
20
0.5617701
30
0
70
32
0
SEQEND
8
0
0
POLYLINE
8
0
62
30
66
1
10
0
20
0
30
0
70
8
0
VERTEX
8
0
62
30
10
-0.084852832
20
0.5617701
30
0
70
32
0
VERTEX
8
0
62
30
10
-0.070710697
20
0.5817701
30
0
70
32
0
SEQEND
8
0
0
POLYLINE
8
0
62
30
66
1
10
0
20
0
30
0
70
8
0
VERTEX
8
0
62
30
10
-0.070710697
20
0.5817701
30
0
70
32
0
VERTEX
8
0
62
30
10
-0.056568561
20
0.5617701
30
0
70
32
0
SEQEND
8
0
0
POLYLINE
8
0
62
30
66
1
10
0
20
0
30
0
70
8
0
VERTEX
8
0
62
30
10
-0.1131371
20
0.5817701
30
0
70
32
0
VERTEX
8
0
62
30
10
-0.084852832
20
0.5817701
30
0
70
32
0
SEQEND
8
0
0
POLYLINE
8
0
62
30
66
1
10
0
20
0
30
0
70
8
0
VERTEX
8
0
62
30
10
-0.056568561
20
0.5817701
30
0
70
32
0
VERTEX
8
0
62
30
10
-0.02828429
20
0.5817701
30
0
70
32
0
SEQEND
8
0
0
POLYLINE
8
0
62
5
66
1
10
0
20
0
30
0
70
8
0
VERTEX
8
0
62
5
10
-0.14142137
20
0.5817701
30
0
70
32
0
VERTEX
8
0
62
5
10
-0.12727924
20
0.5817701
30
0
70
32
0
SEQEND
8
0
0
POLYLINE
8
0
62
5
66
1
10
0
20
0
30
0
70
8
0
VERTEX
8
0
62
5
10
-0.084852832
20
0.5817701
30
0
70
32
0
VERTEX
8
0
62
5
10
-0.070710697
20
0.5817701
30
0
70
32
0
SEQEND
8
0
0
POLYLINE
8
0
62
5
66
1
10
0
20
0
30
0
70
8
0
VERTEX
8
0
62
5
10
-0.12727924
20
0.5817701
30
0
70
32
0
VERTEX
8
0
62
5
10
-0.1131371
20
0.5817701
30
0
70
32
0
SEQEND
8
0
0
POLYLINE
8
0
62
5
66
1
10
0
20
0
30
0
70
8
0
VERTEX
8
0
62
5
10
-0.070710697
20
0.5817701
30
0
70
32
0
VERTEX
8
0
62
5
10
-0.056568561
20
0.5817701
30
0
70
32
0
SEQEND
8
0
0
POLYLINE
8
0
62
5
66
1
10
0
20
0
30
0
70
8
0
VERTEX
8
0
62
5
10
-0.1131371
20
0.5617701
30
0
70
32
0
VERTEX
8
0
62
5
10
-0.1131371
20
0.6017701
30
0
70
32
0
SEQEND
8
0
0
POLYLINE
8
0
62
5
66
1
10
0
20
0
30
0
70
8
0
VERTEX
8
0
62
5
10
-0.084852832
20
0.5617701
30
0
70
32
0
VERTEX
8
0
62
5
10
-0.084852832
20
0.6017701
30
0
70
32
0
SEQEND
8
0
0
POLYLINE
8
0
62
5
66
1
10
0
20
0
30
0
70
8
0
VERTEX
8
0
62
5
10
-0.056568561
20
0.5617701
30
0
70
32
0
VERTEX
8
0
62
5
10
-0.056568561
20
0.6017701
30
0
70
32
0
SEQEND
8
0
0
POLYLINE
8
0
62
5
66
1
10
0
20
0
30
0
70
8
0
VERTEX
8
0
62
5
10
-0.14142137
20
0.5617701
30
0
70
32
0
VERTEX
8
0
62
5
10
-0.14142137
20
0.6017701
30
0
70
32
0
SEQEND
8
0
0
POLYLINE
8
0
62
18
66
1
10
0
20
0
30
0
70
8
0
VERTEX
8
0
62
18
10
0.14142136
20
0
30
0
70
32
0
VERTEX
8
0
62
18
10
0
20
0
30
0
70
32
0
VERTEX
8
0
62
18
10
0
20
0.6017701
30
0
70
32
0
VERTEX
8
0
62
18
10
0.14142136
20
0.6017701
30
0
70
32
0
VERTEX
8
0
62
18
10
0.14142136
20
0
30
0
70
32
0
SEQEND
8
0
0
ENDSEC
0
EOF
