0
SECTION
2
HEADER
9
$ACADVER
1
AC1006
9
$INSUNITS
70
6
0
ENDSEC
0
SECTION
2
ENTITIES
0
POLYLINE
8
0
62
5
66
1
10
0
20
0
30
0
70
8
0
VERTEX
8
0
62
5
10
0
20
0
30
0
70
32
0
VERTEX
8
0
62
5
10
0
20
0.1
30
0
70
32
0
SEQEND
8
0
0
POLYLINE
8
0
62
5
66
1
10
0
20
0
30
0
70
8
0
VERTEX
8
0
62
5
10
0.16970563
20
0
30
0
70
32
0
VERTEX
8
0
62
5
10
0.16970563
20
0.1
30
0
70
32
0
SEQEND
8
0
0
POLYLINE
8
0
62
5
66
1
10
0
20
0
30
0
70
8
0
VERTEX
8
0
62
5
10
0.042426407
20
0
30
0
70
32
0
VERTEX
8
0
62
5
10
0.042426407
20
0.1
30
0
70
32
0
SEQEND
8
0
0
POLYLINE
8
0
62
5
66
1
10
0
20
0
30
0
70
8
0
VERTEX
8
0
62
5
10
0.084852814
20
0
30
0
70
32
0
VERTEX
8
0
62
5
10
0.084852814
20
0.1
30
0
70
32
0
SEQEND
8
0
0
POLYLINE
8
0
62
5
66
1
10
0
20
0
30
0
70
8
0
VERTEX
8
0
62
5
10
0.12727922
20
0
30
0
70
32
0
VERTEX
8
0
62
5
10
0.12727922
20
0.1
30
0
70
32
0
SEQEND
8
0
0
POLYLINE
8
0
62
5
66
1
10
0
20
0
30
0
70
8
0
VERTEX
8
0
62
5
10
0.33941125
20
0
30
0
70
32
0
VERTEX
8
0
62
5
10
0.33941125
20
0.1
30
0
70
32
0
SEQEND
8
0
0
POLYLINE
8
0
62
5
66
1
10
0
20
0
30
0
70
8
0
VERTEX
8
0
62
5
10
0.21213203
20
0
30
0
70
32
0
VERTEX
8
0
62
5
10
0.21213203
20
0.1
30
0
70
32
0
SEQEND
8
0
0
POLYLINE
8
0
62
5
66
1
10
0
20
0
30
0
70
8
0
VERTEX
8
0
62
5
10
0.25455844
20
0
30
0
70
32
0
VERTEX
8
0
62
5
10
0.25455844
20
0.1
30
0
70
32
0
SEQEND
8
0
0
POLYLINE
8
0
62
5
66
1
10
0
20
0
30
0
70
8
0
VERTEX
8
0
62
5
10
0.29698485
20
0
30
0
70
32
0
VERTEX
8
0
62
5
10
0.29698485
20
0.1
30
0
70
32
0
SEQEND
8
0
0
POLYLINE
8
0
62
5
66
1
10
0
20
0
30
0
70
8
0
VERTEX
8
0
62
5
10
-0.16970563
20
0
30
0
70
32
0
VERTEX
8
0
62
5
10
-0.16970563
20
0.1
30
0
70
32
0
SEQEND
8
0
0
POLYLINE
8
0
62
5
66
1
10
0
20
0
30
0
70
8
0
VERTEX
8
0
62
5
10
-0.12727922
20
0
30
0
70
32
0
VERTEX
8
0
62
5
10
-0.12727922
20
0.1
30
0
70
32
0
SEQEND
8
0
0
POLYLINE
8
0
62
5
66
1
10
0
20
0
30
0
70
8
0
VERTEX
8
0
62
5
10
-0.084852814
20
0
30
0
70
32
0
VERTEX
8
0
62
5
10
-0.084852814
20
0.1
30
0
70
32
0
SEQEND
8
0
0
POLYLINE
8
0
62
5
66
1
10
0
20
0
30
0
70
8
0
VERTEX
8
0
62
5
10
-0.042426407
20
0
30
0
70
32
0
VERTEX
8
0
62
5
10
-0.042426407
20
0.1
30
0
70
32
0
SEQEND
8
0
0
POLYLINE
8
0
62
5
66
1
10
0
20
0
30
0
70
8
0
VERTEX
8
0
62
5
10
0
20
0.1
30
0
70
32
0
VERTEX
8
0
62
5
10
0
20
0.16
30
0
70
32
0
SEQEND
8
0
0
POLYLINE
8
0
62
5
66
1
10
0
20
0
30
0
70
8
0
VERTEX
8
0
62
5
10
0.16970563
20
0.16
30
0
70
32
0
VERTEX
8
0
62
5
10
0.16970563
20
0.1
30
0
70
32
0
SEQEND
8
0
0
POLYLINE
8
0
62
5
66
1
10
0
20
0
30
0
70
8
0
VERTEX
8
0
62
5
10
0
20
0.1
30
0
70
32
0
VERTEX
8
0
62
5
10
0.16970563
20
0.1
30
0
70
32
0
SEQEND
8
0
0
POLYLINE
8
0
62
5
66
1
10
0
20
0
30
0
70
8
0
VERTEX
8
0
62
5
10
0
20
0.16
30
0
70
32
0
VERTEX
8
0
62
5
10
0.16970563
20
0.16
30
0
70
32
0
SEQEND
8
0
0
POLYLINE
8
0
62
5
66
1
10
0
20
0
30
0
70
8
0
VERTEX
8
0
62
5
10
0.042426407
20
0.1
30
0
70
32
0
VERTEX
8
0
62
5
10
0.042426407
20
0.1
30
0
70
32
0
SEQEND
8
0
0
POLYLINE
8
0
62
5
66
1
10
0
20
0
30
0
70
8
0
VERTEX
8
0
62
5
10
0.084852814
20
0.1
30
0
70
32
0
VERTEX
8
0
62
5
10
0.084852814
20
0.1
30
0
70
32
0
SEQEND
8
0
0
POLYLINE
8
0
62
5
66
1
10
0
20
0
30
0
70
8
0
VERTEX
8
0
62
5
10
0.12727922
20
0.1
30
0
70
32
0
VERTEX
8
0
62
5
10
0.12727922
20
0.1
30
0
70
32
0
SEQEND
8
0
0
POLYLINE
8
0
62
5
66
1
10
0
20
0
30
0
70
8
0
VERTEX
8
0
62
5
10
0.042426407
20
0.16
30
0
70
32
0
VERTEX
8
0
62
5
10
0.042426407
20
0.16
30
0
70
32
0
SEQEND
8
0
0
POLYLINE
8
0
62
5
66
1
10
0
20
0
30
0
70
8
0
VERTEX
8
0
62
5
10
0.084852814
20
0.16
30
0
70
32
0
VERTEX
8
0
62
5
10
0.084852814
20
0.16
30
0
70
32
0
SEQEND
8
0
0
POLYLINE
8
0
62
5
66
1
10
0
20
0
30
0
70
8
0
VERTEX
8
0
62
5
10
0.12727922
20
0.16
30
0
70
32
0
VERTEX
8
0
62
5
10
0.12727922
20
0.16
30
0
70
32
0
SEQEND
8
0
0
POLYLINE
8
0
62
30
66
1
10
0
20
0
30
0
70
8
0
VERTEX
8
0
62
30
10
0
20
0.16
30
0
70
32
0
VERTEX
8
0
62
30
10
0.042426407
20
0.1
30
0
70
32
0
SEQEND
8
0
0
POLYLINE
8
0
62
30
66
1
10
0
20
0
30
0
70
8
0
VERTEX
8
0
62
30
10
0.042426407
20
0.16
30
0
70
32
0
VERTEX
8
0
62
30
10
0
20
0.1
30
0
70
32
0
SEQEND
8
0
0
POLYLINE
8
0
62
30
66
1
10
0
20
0
30
0
70
8
0
VERTEX
8
0
62
30
10
0.084852814
20
0.16
30
0
70
32
0
VERTEX
8
0
62
30
10
0.12727922
20
0.1
30
0
70
32
0
SEQEND
8
0
0
POLYLINE
8
0
62
30
66
1
10
0
20
0
30
0
70
8
0
VERTEX
8
0
62
30
10
0.12727922
20
0.16
30
0
70
32
0
VERTEX
8
0
62
30
10
0.084852814
20
0.1
30
0
70
32
0
SEQEND
8
0
0
POLYLINE
8
0
62
30
66
1
10
0
20
0
30
0
70
8
0
VERTEX
8
0
62
30
10
0.042426407
20
0.13
30
0
70
32
0
VERTEX
8
0
62
30
10
0.084852814
20
0.13
30
0
70
32
0
SEQEND
8
0
0
POLYLINE
8
0
62
30
66
1
10
0
20
0
30
0
70
8
0
VERTEX
8
0
62
30
10
0.12727922
20
0.13
30
0
70
32
0
VERTEX
8
0
62
30
10
0.16970563
20
0.13
30
0
70
32
0
SEQEND
8
0
0
POLYLINE
8
0
62
5
66
1
10
0
20
0
30
0
70
8
0
VERTEX
8
0
62
5
10
0
20
0.13
30
0
70
32
0
VERTEX
8
0
62
5
10
0.021213203
20
0.13
30
0
70
32
0
SEQEND
8
0
0
POLYLINE
8
0
62
5
66
1
10
0
20
0
30
0
70
8
0
VERTEX
8
0
62
5
10
0.084852814
20
0.13
30
0
70
32
0
VERTEX
8
0
62
5
10
0.10606602
20
0.13
30
0
70
32
0
SEQEND
8
0
0
POLYLINE
8
0
62
5
66
1
10
0
20
0
30
0
70
8
0
VERTEX
8
0
62
5
10
0.021213203
20
0.13
30
0
70
32
0
VERTEX
8
0
62
5
10
0.042426407
20
0.13
30
0
70
32
0
SEQEND
8
0
0
POLYLINE
8
0
62
5
66
1
10
0
20
0
30
0
70
8
0
VERTEX
8
0
62
5
10
0.10606602
20
0.13
30
0
70
32
0
VERTEX
8
0
62
5
10
0.12727922
20
0.13
30
0
70
32
0
SEQEND
8
0
0
POLYLINE
8
0
62
5
66
1
10
0
20
0
30
0
70
8
0
VERTEX
8
0
62
5
10
0.042426407
20
0.1
30
0
70
32
0
VERTEX
8
0
62
5
10
0.042426407
20
0.16
30
0
70
32
0
SEQEND
8
0
0
POLYLINE
8
0
62
5
66
1
10
0
20
0
30
0
70
8
0
VERTEX
8
0
62
5
10
0.084852814
20
0.1
30
0
70
32
0
VERTEX
8
0
62
5
10
0.084852814
20
0.16
30
0
70
32
0
SEQEND
8
0
0
POLYLINE
8
0
62
5
66
1
10
0
20
0
30
0
70
8
0
VERTEX
8
0
62
5
10
0.12727922
20
0.1
30
0
70
32
0
VERTEX
8
0
62
5
10
0.12727922
20
0.16
30
0
70
32
0
SEQEND
8
0
0
POLYLINE
8
0
62
5
66
1
10
0
20
0
30
0
70
8
0
VERTEX
8
0
62
5
10
0
20
0.1
30
0
70
32
0
VERTEX
8
0
62
5
10
0
20
0.16
30
0
70
32
0
SEQEND
8
0
0
POLYLINE
8
0
62
5
66
1
10
0
20
0
30
0
70
8
0
VERTEX
8
0
62
5
10
0.33941125
20
0.16
30
0
70
32
0
VERTEX
8
0
62
5
10
0.33941125
20
0.1
30
0
70
32
0
SEQEND
8
0
0
POLYLINE
8
0
62
5
66
1
10
0
20
0
30
0
70
8
0
VERTEX
8
0
62
5
10
0.16970563
20
0.1
30
0
70
32
0
VERTEX
8
0
62
5
10
0.33941125
20
0.1
30
0
70
32
0
SEQEND
8
0
0
POLYLINE
8
0
62
5
66
1
10
0
20
0
30
0
70
8
0
VERTEX
8
0
62
5
10
0.16970563
20
0.16
30
0
70
32
0
VERTEX
8
0
62
5
10
0.33941125
20
0.16
30
0
70
32
0
SEQEND
8
0
0
POLYLINE
8
0
62
5
66
1
10
0
20
0
30
0
70
8
0
VERTEX
8
0
62
5
10
0.21213203
20
0.1
30
0
70
32
0
VERTEX
8
0
62
5
10
0.21213203
20
0.1
30
0
70
32
0
SEQEND
8
0
0
POLYLINE
8
0
62
5
66
1
10
0
20
0
30
0
70
8
0
VERTEX
8
0
62
5
10
0.25455844
20
0.1
30
0
70
32
0
VERTEX
8
0
62
5
10
0.25455844
20
0.1
30
0
70
32
0
SEQEND
8
0
0
POLYLINE
8
0
62
5
66
1
10
0
20
0
30
0
70
8
0
VERTEX
8
0
62
5
10
0.29698485
20
0.1
30
0
70
32
0
VERTEX
8
0
62
5
10
0.29698485
20
0.1
30
0
70
32
0
SEQEND
8
0
0
POLYLINE
8
0
62
5
66
1
10
0
20
0
30
0
70
8
0
VERTEX
8
0
62
5
10
0.21213203
20
0.16
30
0
70
32
0
VERTEX
8
0
62
5
10
0.21213203
20
0.16
30
0
70
32
0
SEQEND
8
0
0
POLYLINE
8
0
62
5
66
1
10
0
20
0
30
0
70
8
0
VERTEX
8
0
62
5
10
0.25455844
20
0.16
30
0
70
32
0
VERTEX
8
0
62
5
10
0.25455844
20
0.16
30
0
70
32
0
SEQEND
8
0
0
POLYLINE
8
0
62
5
66
1
10
0
20
0
30
0
70
8
0
VERTEX
8
0
62
5
10
0.29698485
20
0.16
30
0
70
32
0
VERTEX
8
0
62
5
10
0.29698485
20
0.16
30
0
70
32
0
SEQEND
8
0
0
POLYLINE
8
0
62
30
66
1
10
0
20
0
30
0
70
8
0
VERTEX
8
0
62
30
10
0.16970563
20
0.16
30
0
70
32
0
VERTEX
8
0
62
30
10
0.21213203
20
0.1
30
0
70
32
0
SEQEND
8
0
0
POLYLINE
8
0
62
30
66
1
10
0
20
0
30
0
70
8
0
VERTEX
8
0
62
30
10
0.21213203
20
0.16
30
0
70
32
0
VERTEX
8
0
62
30
10
0.16970563
20
0.1
30
0
70
32
0
SEQEND
8
0
0
POLYLINE
8
0
62
30
66
1
10
0
20
0
30
0
70
8
0
VERTEX
8
0
62
30
10
0.25455844
20
0.16
30
0
70
32
0
VERTEX
8
0
62
30
10
0.29698485
20
0.1
30
0
70
32
0
SEQEND
8
0
0
POLYLINE
8
0
62
30
66
1
10
0
20
0
30
0
70
8
0
VERTEX
8
0
62
30
10
0.29698485
20
0.16
30
0
70
32
0
VERTEX
8
0
62
30
10
0.25455844
20
0.1
30
0
70
32
0
SEQEND
8
0
0
POLYLINE
8
0
62
30
66
1
10
0
20
0
30
0
70
8
0
VERTEX
8
0
62
30
10
0.21213203
20
0.13
30
0
70
32
0
VERTEX
8
0
62
30
10
0.25455844
20
0.13
30
0
70
32
0
SEQEND
8
0
0
POLYLINE
8
0
62
30
66
1
10
0
20
0
30
0
70
8
0
VERTEX
8
0
62
30
10
0.29698485
20
0.13
30
0
70
32
0
VERTEX
8
0
62
30
10
0.33941125
20
0.13
30
0
70
32
0
SEQEND
8
0
0
POLYLINE
8
0
62
5
66
1
10
0
20
0
30
0
70
8
0
VERTEX
8
0
62
5
10
0.16970563
20
0.13
30
0
70
32
0
VERTEX
8
0
62
5
10
0.19091883
20
0.13
30
0
70
32
0
SEQEND
8
0
0
POLYLINE
8
0
62
5
66
1
10
0
20
0
30
0
70
8
0
VERTEX
8
0
62
5
10
0.25455844
20
0.13
30
0
70
32
0
VERTEX
8
0
62
5
10
0.27577164
20
0.13
30
0
70
32
0
SEQEND
8
0
0
POLYLINE
8
0
62
5
66
1
10
0
20
0
30
0
70
8
0
VERTEX
8
0
62
5
10
0.19091883
20
0.13
30
0
70
32
0
VERTEX
8
0
62
5
10
0.21213203
20
0.13
30
0
70
32
0
SEQEND
8
0
0
POLYLINE
8
0
62
5
66
1
10
0
20
0
30
0
70
8
0
VERTEX
8
0
62
5
10
0.27577164
20
0.13
30
0
70
32
0
VERTEX
8
0
62
5
10
0.29698485
20
0.13
30
0
70
32
0
SEQEND
8
0
0
POLYLINE
8
0
62
5
66
1
10
0
20
0
30
0
70
8
0
VERTEX
8
0
62
5
10
0.21213203
20
0.1
30
0
70
32
0
VERTEX
8
0
62
5
10
0.21213203
20
0.16
30
0
70
32
0
SEQEND
8
0
0
POLYLINE
8
0
62
5
66
1
10
0
20
0
30
0
70
8
0
VERTEX
8
0
62
5
10
0.25455844
20
0.1
30
0
70
32
0
VERTEX
8
0
62
5
10
0.25455844
20
0.16
30
0
70
32
0
SEQEND
8
0
0
POLYLINE
8
0
62
5
66
1
10
0
20
0
30
0
70
8
0
VERTEX
8
0
62
5
10
0.29698485
20
0.1
30
0
70
32
0
VERTEX
8
0
62
5
10
0.29698485
20
0.16
30
0
70
32
0
SEQEND
8
0
0
POLYLINE
8
0
62
5
66
1
10
0
20
0
30
0
70
8
0
VERTEX
8
0
62
5
10
0.16970563
20
0.1
30
0
70
32
0
VERTEX
8
0
62
5
10
0.16970563
20
0.16
30
0
70
32
0
SEQEND
8
0
0
POLYLINE
8
0
62
5
66
1
10
0
20
0
30
0
70
8
0
VERTEX
8
0
62
5
10
-0.16970563
20
0.1
30
0
70
32
0
VERTEX
8
0
62
5
10
-0.16970563
20
0.16
30
0
70
32
0
SEQEND
8
0
0
POLYLINE
8
0
62
5
66
1
10
0
20
0
30
0
70
8
0
VERTEX
8
0
62
5
10
-0.16970563
20
0.1
30
0
70
32
0
VERTEX
8
0
62
5
10
0
20
0.1
30
0
70
32
0
SEQEND
8
0
0
POLYLINE
8
0
62
5
66
1
10
0
20
0
30
0
70
8
0
VERTEX
8
0
62
5
10
-0.16970563
20
0.16
30
0
70
32
0
VERTEX
8
0
62
5
10
0
20
0.16
30
0
70
32
0
SEQEND
8
0
0
POLYLINE
8
0
62
5
66
1
10
0
20
0
30
0
70
8
0
VERTEX
8
0
62
5
10
-0.12727922
20
0.1
30
0
70
32
0
VERTEX
8
0
62
5
10
-0.12727922
20
0.1
30
0
70
32
0
SEQEND
8
0
0
POLYLINE
8
0
62
5
66
1
10
0
20
0
30
0
70
8
0
VERTEX
8
0
62
5
10
-0.084852814
20
0.1
30
0
70
32
0
VERTEX
8
0
62
5
10
-0.084852814
20
0.1
30
0
70
32
0
SEQEND
8
0
0
POLYLINE
8
0
62
5
66
1
10
0
20
0
30
0
70
8
0
VERTEX
8
0
62
5
10
-0.042426407
20
0.1
30
0
70
32
0
VERTEX
8
0
62
5
10
-0.042426407
20
0.1
30
0
70
32
0
SEQEND
8
0
0
POLYLINE
8
0
62
5
66
1
10
0
20
0
30
0
70
8
0
VERTEX
8
0
62
5
10
-0.12727922
20
0.16
30
0
70
32
0
VERTEX
8
0
62
5
10
-0.12727922
20
0.16
30
0
70
32
0
SEQEND
8
0
0
POLYLINE
8
0
62
5
66
1
10
0
20
0
30
0
70
8
0
VERTEX
8
0
62
5
10
-0.084852814
20
0.16
30
0
70
32
0
VERTEX
8
0
62
5
10
-0.084852814
20
0.16
30
0
70
32
0
SEQEND
8
0
0
POLYLINE
8
0
62
5
66
1
10
0
20
0
30
0
70
8
0
VERTEX
8
0
62
5
10
-0.042426407
20
0.16
30
0
70
32
0
VERTEX
8
0
62
5
10
-0.042426407
20
0.16
30
0
70
32
0
SEQEND
8
0
0
POLYLINE
8
0
62
30
66
1
10
0
20
0
30
0
70
8
0
VERTEX
8
0
62
30
10
-0.16970563
20
0.16
30
0
70
32
0
VERTEX
8
0
62
30
10
-0.12727922
20
0.1
30
0
70
32
0
SEQEND
8
0
0
POLYLINE
8
0
62
30
66
1
10
0
20
0
30
0
70
8
0
VERTEX
8
0
62
30
10
-0.12727922
20
0.16
30
0
70
32
0
VERTEX
8
0
62
30
10
-0.16970563
20
0.1
30
0
70
32
0
SEQEND
8
0
0
POLYLINE
8
0
62
30
66
1
10
0
20
0
30
0
70
8
0
VERTEX
8
0
62
30
10
-0.084852814
20
0.16
30
0
70
32
0
VERTEX
8
0
62
30
10
-0.042426407
20
0.1
30
0
70
32
0
SEQEND
8
0
0
POLYLINE
8
0
62
30
66
1
10
0
20
0
30
0
70
8
0
VERTEX
8
0
62
30
10
-0.042426407
20
0.16
30
0
70
32
0
VERTEX
8
0
62
30
10
-0.084852814
20
0.1
30
0
70
32
0
SEQEND
8
0
0
POLYLINE
8
0
62
30
66
1
10
0
20
0
30
0
70
8
0
VERTEX
8
0
62
30
10
-0.12727922
20
0.13
30
0
70
32
0
VERTEX
8
0
62
30
10
-0.084852814
20
0.13
30
0
70
32
0
SEQEND
8
0
0
POLYLINE
8
0
62
30
66
1
10
0
20
0
30
0
70
8
0
VERTEX
8
0
62
30
10
-0.042426407
20
0.13
30
0
70
32
0
VERTEX
8
0
62
30
10
0
20
0.13
30
0
70
32
0
SEQEND
8
0
0
POLYLINE
8
0
62
5
66
1
10
0
20
0
30
0
70
8
0
VERTEX
8
0
62
5
10
-0.16970563
20
0.13
30
0
70
32
0
VERTEX
8
0
62
5
10
-0.14849242
20
0.13
30
0
70
32
0
SEQEND
8
0
0
POLYLINE
8
0
62
5
66
1
10
0
20
0
30
0
70
8
0
VERTEX
8
0
62
5
10
-0.084852814
20
0.13
30
0
70
32
0
VERTEX
8
0
62
5
10
-0.06363961
20
0.13
30
0
70
32
0
SEQEND
8
0
0
POLYLINE
8
0
62
5
66
1
10
0
20
0
30
0
70
8
0
VERTEX
8
0
62
5
10
-0.14849242
20
0.13
30
0
70
32
0
VERTEX
8
0
62
5
10
-0.12727922
20
0.13
30
0
70
32
0
SEQEND
8
0
0
POLYLINE
8
0
62
5
66
1
10
0
20
0
30
0
70
8
0
VERTEX
8
0
62
5
10
-0.06363961
20
0.13
30
0
70
32
0
VERTEX
8
0
62
5
10
-0.042426407
20
0.13
30
0
70
32
0
SEQEND
8
0
0
POLYLINE
8
0
62
5
66
1
10
0
20
0
30
0
70
8
0
VERTEX
8
0
62
5
10
-0.12727922
20
0.1
30
0
70
32
0
VERTEX
8
0
62
5
10
-0.12727922
20
0.16
30
0
70
32
0
SEQEND
8
0
0
POLYLINE
8
0
62
5
66
1
10
0
20
0
30
0
70
8
0
VERTEX
8
0
62
5
10
-0.084852814
20
0.1
30
0
70
32
0
VERTEX
8
0
62
5
10
-0.084852814
20
0.16
30
0
70
32
0
SEQEND
8
0
0
POLYLINE
8
0
62
5
66
1
10
0
20
0
30
0
70
8
0
VERTEX
8
0
62
5
10
-0.042426407
20
0.1
30
0
70
32
0
VERTEX
8
0
62
5
10
-0.042426407
20
0.16
30
0
70
32
0
SEQEND
8
0
0
POLYLINE
8
0
62
5
66
1
10
0
20
0
30
0
70
8
0
VERTEX
8
0
62
5
10
-0.16970563
20
0.1
30
0
70
32
0
VERTEX
8
0
62
5
10
-0.16970563
20
0.16
30
0
70
32
0
SEQEND
8
0
0
POLYLINE
8
0
62
5
66
1
10
0
20
0
30
0
70
8
0
VERTEX
8
0
62
5
10
0
20
0.16
30
0
70
32
0
VERTEX
8
0
62
5
10
0
20
0.30343897
30
0
70
32
0
SEQEND
8
0
0
POLYLINE
8
0
62
5
66
1
10
0
20
0
30
0
70
8
0
VERTEX
8
0
62
5
10
0.16970563
20
0.30343897
30
0
70
32
0
VERTEX
8
0
62
5
10
0.16970563
20
0.16
30
0
70
32
0
SEQEND
8
0
0
POLYLINE
8
0
62
5
66
1
10
0
20
0
30
0
70
8
0
VERTEX
8
0
62
5
10
0
20
0.1600079
30
0
70
32
0
VERTEX
8
0
62
5
10
0.042426407
20
0.19661642
30
0
70
32
0
VERTEX
8
0
62
5
10
0.084852814
20
0.23171949
30
0
70
32
0
VERTEX
8
0
62
5
10
0.12727922
20
0.19511097
30
0
70
32
0
VERTEX
8
0
62
5
10
0.16970563
20
0.1600079
30
0
70
32
0
SEQEND
8
0
0
POLYLINE
8
0
62
5
66
1
10
0
20
0
30
0
70
8
0
SEQEND
8
0
0
POLYLINE
8
0
62
5
66
1
10
0
20
0
30
0
70
8
0
VERTEX
8
0
62
5
10
0
20
0.30343107
30
0
70
32
0
VERTEX
8
0
62
5
10
0.042426407
20
0.26682256
30
0
70
32
0
VERTEX
8
0
62
5
10
0.084852814
20
0.23171949
30
0
70
32
0
VERTEX
8
0
62
5
10
0.12727922
20
0.268328
30
0
70
32
0
VERTEX
8
0
62
5
10
0.16970563
20
0.30343107
30
0
70
32
0
SEQEND
8
0
0
POLYLINE
8
0
62
30
66
1
10
0
20
0
30
0
70
8
0
VERTEX
8
0
62
30
10
0
20
0.23171949
30
0
70
32
0
VERTEX
8
0
62
30
10
0.16970563
20
0.23171949
30
0
70
32
0
SEQEND
8
0
0
POLYLINE
8
0
62
30
66
1
10
0
20
0
30
0
70
8
0
VERTEX
8
0
62
30
10
0.042426407
20
0.19661642
30
0
70
32
0
VERTEX
8
0
62
30
10
0.042426407
20
0.23171949
30
0
70
32
0
SEQEND
8
0
0
POLYLINE
8
0
62
30
66
1
10
0
20
0
30
0
70
8
0
VERTEX
8
0
62
30
10
0.084852814
20
0.23171949
30
0
70
32
0
VERTEX
8
0
62
30
10
0.084852814
20
0.23171949
30
0
70
32
0
SEQEND
8
0
0
POLYLINE
8
0
62
30
66
1
10
0
20
0
30
0
70
8
0
VERTEX
8
0
62
30
10
0.12727922
20
0.19511097
30
0
70
32
0
VERTEX
8
0
62
30
10
0.12727922
20
0.23171949
30
0
70
32
0
SEQEND
8
0
0
POLYLINE
8
0
62
5
66
1
10
0
20
0
30
0
70
8
0
VERTEX
8
0
62
5
10
0.042426407
20
0.16
30
0
70
32
0
VERTEX
8
0
62
5
10
0.042426407
20
0.19661642
30
0
70
32
0
SEQEND
8
0
0
POLYLINE
8
0
62
5
66
1
10
0
20
0
30
0
70
8
0
VERTEX
8
0
62
5
10
0.084852814
20
0.16
30
0
70
32
0
VERTEX
8
0
62
5
10
0.084852814
20
0.23171949
30
0
70
32
0
SEQEND
8
0
0
POLYLINE
8
0
62
5
66
1
10
0
20
0
30
0
70
8
0
VERTEX
8
0
62
5
10
0.12727922
20
0.16
30
0
70
32
0
VERTEX
8
0
62
5
10
0.12727922
20
0.19511097
30
0
70
32
0
SEQEND
8
0
0
POLYLINE
8
0
62
5
66
1
10
0
20
0
30
0
70
8
0
VERTEX
8
0
62
5
10
0.042426407
20
0.23171949
30
0
70
32
0
VERTEX
8
0
62
5
10
0.042426407
20
0.30343897
30
0
70
32
0
SEQEND
8
0
0
POLYLINE
8
0
62
5
66
1
10
0
20
0
30
0
70
8
0
VERTEX
8
0
62
5
10
0.084852814
20
0.23171949
30
0
70
32
0
VERTEX
8
0
62
5
10
0.084852814
20
0.30343897
30
0
70
32
0
SEQEND
8
0
0
POLYLINE
8
0
62
5
66
1
10
0
20
0
30
0
70
8
0
VERTEX
8
0
62
5
10
0.12727922
20
0.23171949
30
0
70
32
0
VERTEX
8
0
62
5
10
0.12727922
20
0.30343897
30
0
70
32
0
SEQEND
8
0
0
POLYLINE
8
0
62
5
66
1
10
0
20
0
30
0
70
8
0
VERTEX
8
0
62
5
10
0.33941125
20
0.30343897
30
0
70
32
0
VERTEX
8
0
62
5
10
0.33941125
20
0.16
30
0
70
32
0
SEQEND
8
0
0
POLYLINE
8
0
62
5
66
1
10
0
20
0
30
0
70
8
0
VERTEX
8
0
62
5
10
0.16970563
20
0.1600079
30
0
70
32
0
VERTEX
8
0
62
5
10
0.21213203
20
0.19661642
30
0
70
32
0
VERTEX
8
0
62
5
10
0.25455844
20
0.23171949
30
0
70
32
0
VERTEX
8
0
62
5
10
0.29698485
20
0.19511097
30
0
70
32
0
VERTEX
8
0
62
5
10
0.33941125
20
0.1600079
30
0
70
32
0
SEQEND
8
0
0
POLYLINE
8
0
62
5
66
1
10
0
20
0
30
0
70
8
0
SEQEND
8
0
0
POLYLINE
8
0
62
5
66
1
10
0
20
0
30
0
70
8
0
VERTEX
8
0
62
5
10
0.16970563
20
0.30343107
30
0
70
32
0
VERTEX
8
0
62
5
10
0.21213203
20
0.26682256
30
0
70
32
0
VERTEX
8
0
62
5
10
0.25455844
20
0.23171949
30
0
70
32
0
VERTEX
8
0
62
5
10
0.29698485
20
0.268328
30
0
70
32
0
VERTEX
8
0
62
5
10
0.33941125
20
0.30343107
30
0
70
32
0
SEQEND
8
0
0
POLYLINE
8
0
62
30
66
1
10
0
20
0
30
0
70
8
0
VERTEX
8
0
62
30
10
0.16970563
20
0.23171949
30
0
70
32
0
VERTEX
8
0
62
30
10
0.33941125
20
0.23171949
30
0
70
32
0
SEQEND
8
0
0
POLYLINE
8
0
62
30
66
1
10
0
20
0
30
0
70
8
0
VERTEX
8
0
62
30
10
0.21213203
20
0.19661642
30
0
70
32
0
VERTEX
8
0
62
30
10
0.21213203
20
0.23171949
30
0
70
32
0
SEQEND
8
0
0
POLYLINE
8
0
62
30
66
1
10
0
20
0
30
0
70
8
0
VERTEX
8
0
62
30
10
0.25455844
20
0.23171949
30
0
70
32
0
VERTEX
8
0
62
30
10
0.25455844
20
0.23171949
30
0
70
32
0
SEQEND
8
0
0
POLYLINE
8
0
62
30
66
1
10
0
20
0
30
0
70
8
0
VERTEX
8
0
62
30
10
0.29698485
20
0.19511097
30
0
70
32
0
VERTEX
8
0
62
30
10
0.29698485
20
0.23171949
30
0
70
32
0
SEQEND
8
0
0
POLYLINE
8
0
62
5
66
1
10
0
20
0
30
0
70
8
0
VERTEX
8
0
62
5
10
0.21213203
20
0.16
30
0
70
32
0
VERTEX
8
0
62
5
10
0.21213203
20
0.19661642
30
0
70
32
0
SEQEND
8
0
0
POLYLINE
8
0
62
5
66
1
10
0
20
0
30
0
70
8
0
VERTEX
8
0
62
5
10
0.25455844
20
0.16
30
0
70
32
0
VERTEX
8
0
62
5
10
0.25455844
20
0.23171949
30
0
70
32
0
SEQEND
8
0
0
POLYLINE
8
0
62
5
66
1
10
0
20
0
30
0
70
8
0
VERTEX
8
0
62
5
10
0.29698485
20
0.16
30
0
70
32
0
VERTEX
8
0
62
5
10
0.29698485
20
0.19511097
30
0
70
32
0
SEQEND
8
0
0
POLYLINE
8
0
62
5
66
1
10
0
20
0
30
0
70
8
0
VERTEX
8
0
62
5
10
0.21213203
20
0.23171949
30
0
70
32
0
VERTEX
8
0
62
5
10
0.21213203
20
0.30343897
30
0
70
32
0
SEQEND
8
0
0
POLYLINE
8
0
62
5
66
1
10
0
20
0
30
0
70
8
0
VERTEX
8
0
62
5
10
0.25455844
20
0.23171949
30
0
70
32
0
VERTEX
8
0
62
5
10
0.25455844
20
0.30343897
30
0
70
32
0
SEQEND
8
0
0
POLYLINE
8
0
62
5
66
1
10
0
20
0
30
0
70
8
0
VERTEX
8
0
62
5
10
0.29698485
20
0.23171949
30
0
70
32
0
VERTEX
8
0
62
5
10
0.29698485
20
0.30343897
30
0
70
32
0
SEQEND
8
0
0
POLYLINE
8
0
62
5
66
1
10
0
20
0
30
0
70
8
0
VERTEX
8
0
62
5
10
-0.16970563
20
0.16
30
0
70
32
0
VERTEX
8
0
62
5
10
-0.16970563
20
0.30343897
30
0
70
32
0
SEQEND
8
0
0
POLYLINE
8
0
62
5
66
1
10
0
20
0
30
0
70
8
0
VERTEX
8
0
62
5
10
-0.16970563
20
0.1600079
30
0
70
32
0
VERTEX
8
0
62
5
10
-0.12727922
20
0.19661642
30
0
70
32
0
VERTEX
8
0
62
5
10
-0.084852814
20
0.23171949
30
0
70
32
0
VERTEX
8
0
62
5
10
-0.042426407
20
0.19511097
30
0
70
32
0
VERTEX
8
0
62
5
10
0
20
0.1600079
30
0
70
32
0
SEQEND
8
0
0
POLYLINE
8
0
62
5
66
1
10
0
20
0
30
0
70
8
0
SEQEND
8
0
0
POLYLINE
8
0
62
5
66
1
10
0
20
0
30
0
70
8
0
VERTEX
8
0
62
5
10
-0.16970563
20
0.30343107
30
0
70
32
0
VERTEX
8
0
62
5
10
-0.12727922
20
0.26682256
30
0
70
32
0
VERTEX
8
0
62
5
10
-0.084852814
20
0.23171949
30
0
70
32
0
VERTEX
8
0
62
5
10
-0.042426407
20
0.268328
30
0
70
32
0
VERTEX
8
0
62
5
10
0
20
0.30343107
30
0
70
32
0
SEQEND
8
0
0
POLYLINE
8
0
62
30
66
1
10
0
20
0
30
0
70
8
0
VERTEX
8
0
62
30
10
-0.16970563
20
0.23171949
30
0
70
32
0
VERTEX
8
0
62
30
10
0
20
0.23171949
30
0
70
32
0
SEQEND
8
0
0
POLYLINE
8
0
62
30
66
1
10
0
20
0
30
0
70
8
0
VERTEX
8
0
62
30
10
-0.12727922
20
0.19661642
30
0
70
32
0
VERTEX
8
0
62
30
10
-0.12727922
20
0.23171949
30
0
70
32
0
SEQEND
8
0
0
POLYLINE
8
0
62
30
66
1
10
0
20
0
30
0
70
8
0
VERTEX
8
0
62
30
10
-0.084852814
20
0.23171949
30
0
70
32
0
VERTEX
8
0
62
30
10
-0.084852814
20
0.23171949
30
0
70
32
0
SEQEND
8
0
0
POLYLINE
8
0
62
30
66
1
10
0
20
0
30
0
70
8
0
VERTEX
8
0
62
30
10
-0.042426407
20
0.19511097
30
0
70
32
0
VERTEX
8
0
62
30
10
-0.042426407
20
0.23171949
30
0
70
32
0
SEQEND
8
0
0
POLYLINE
8
0
62
5
66
1
10
0
20
0
30
0
70
8
0
VERTEX
8
0
62
5
10
-0.12727922
20
0.16
30
0
70
32
0
VERTEX
8
0
62
5
10
-0.12727922
20
0.19661642
30
0
70
32
0
SEQEND
8
0
0
POLYLINE
8
0
62
5
66
1
10
0
20
0
30
0
70
8
0
VERTEX
8
0
62
5
10
-0.084852814
20
0.16
30
0
70
32
0
VERTEX
8
0
62
5
10
-0.084852814
20
0.23171949
30
0
70
32
0
SEQEND
8
0
0
POLYLINE
8
0
62
5
66
1
10
0
20
0
30
0
70
8
0
VERTEX
8
0
62
5
10
-0.042426407
20
0.16
30
0
70
32
0
VERTEX
8
0
62
5
10
-0.042426407
20
0.19511097
30
0
70
32
0
SEQEND
8
0
0
POLYLINE
8
0
62
5
66
1
10
0
20
0
30
0
70
8
0
VERTEX
8
0
62
5
10
-0.12727922
20
0.23171949
30
0
70
32
0
VERTEX
8
0
62
5
10
-0.12727922
20
0.30343897
30
0
70
32
0
SEQEND
8
0
0
POLYLINE
8
0
62
5
66
1
10
0
20
0
30
0
70
8
0
VERTEX
8
0
62
5
10
-0.084852814
20
0.23171949
30
0
70
32
0
VERTEX
8
0
62
5
10
-0.084852814
20
0.30343897
30
0
70
32
0
SEQEND
8
0
0
POLYLINE
8
0
62
5
66
1
10
0
20
0
30
0
70
8
0
VERTEX
8
0
62
5
10
-0.042426407
20
0.23171949
30
0
70
32
0
VERTEX
8
0
62
5
10
-0.042426407
20
0.30343897
30
0
70
32
0
SEQEND
8
0
0
POLYLINE
8
0
62
30
66
1
10
0
20
0
30
0
70
8
0
VERTEX
8
0
62
30
10
0
20
0.35895058
30
0
70
32
0
VERTEX
8
0
62
30
10
0.16970563
20
0.35895058
30
0
70
32
0
SEQEND
8
0
0
POLYLINE
8
0
62
30
66
1
10
0
20
0
30
0
70
8
0
VERTEX
8
0
62
30
10
0
20
0.30343897
30
0
70
32
0
VERTEX
8
0
62
30
10
0.16970563
20
0.30343897
30
0
70
32
0
SEQEND
8
0
0
POLYLINE
8
0
62
5
66
1
10
0
20
0
30
0
70
8
0
VERTEX
8
0
62
5
10
0
20
0.30343897
30
0
70
32
0
VERTEX
8
0
62
5
10
0.018310589
20
0.35895058
30
0
70
32
0
VERTEX
8
0
62
5
10
0.042426407
20
0.30343897
30
0
70
32
0
VERTEX
8
0
62
5
10
0.060736996
20
0.35895058
30
0
70
32
0
VERTEX
8
0
62
5
10
0.084852814
20
0.30343897
30
0
70
32
0
VERTEX
8
0
62
5
10
0.1031634
20
0.35895058
30
0
70
32
0
VERTEX
8
0
62
5
10
0.12727922
20
0.30343897
30
0
70
32
0
VERTEX
8
0
62
5
10
0.14558981
20
0.35895058
30
0
70
32
0
VERTEX
8
0
62
5
10
0.16970563
20
0.30343897
30
0
70
32
0
SEQEND
8
0
0
POLYLINE
8
0
62
5
66
1
10
0
20
0
30
0
70
8
0
VERTEX
8
0
62
5
10
0.042426407
20
0.30343897
30
0
70
32
0
VERTEX
8
0
62
5
10
0.042426407
20
0.30343897
30
0
70
32
0
SEQEND
8
0
0
POLYLINE
8
0
62
5
66
1
10
0
20
0
30
0
70
8
0
VERTEX
8
0
62
5
10
0.084852814
20
0.30343897
30
0
70
32
0
VERTEX
8
0
62
5
10
0.084852814
20
0.30343897
30
0
70
32
0
SEQEND
8
0
0
POLYLINE
8
0
62
5
66
1
10
0
20
0
30
0
70
8
0
VERTEX
8
0
62
5
10
0.12727922
20
0.30343897
30
0
70
32
0
VERTEX
8
0
62
5
10
0.12727922
20
0.30343897
30
0
70
32
0
SEQEND
8
0
0
POLYLINE
8
0
62
5
66
1
10
0
20
0
30
0
70
8
0
VERTEX
8
0
62
5
10
0.018310589
20
0.35895058
30
0
70
32
0
VERTEX
8
0
62
5
10
0.018310589
20
0.35895058
30
0
70
32
0
SEQEND
8
0
0
POLYLINE
8
0
62
5
66
1
10
0
20
0
30
0
70
8
0
VERTEX
8
0
62
5
10
0.060736996
20
0.35895058
30
0
70
32
0
VERTEX
8
0
62
5
10
0.060736996
20
0.35895058
30
0
70
32
0
SEQEND
8
0
0
POLYLINE
8
0
62
5
66
1
10
0
20
0
30
0
70
8
0
VERTEX
8
0
62
5
10
0.1031634
20
0.35895058
30
0
70
32
0
VERTEX
8
0
62
5
10
0.1031634
20
0.35895058
30
0
70
32
0
SEQEND
8
0
0
POLYLINE
8
0
62
5
66
1
10
0
20
0
30
0
70
8
0
VERTEX
8
0
62
5
10
0.14558981
20
0.35895058
30
0
70
32
0
VERTEX
8
0
62
5
10
0.14558981
20
0.35895058
30
0
70
32
0
SEQEND
8
0
0
POLYLINE
8
0
62
30
66
1
10
0
20
0
30
0
70
8
0
VERTEX
8
0
62
30
10
0.16970563
20
0.35895058
30
0
70
32
0
VERTEX
8
0
62
30
10
0.33941125
20
0.35895058
30
0
70
32
0
SEQEND
8
0
0
POLYLINE
8
0
62
30
66
1
10
0
20
0
30
0
70
8
0
VERTEX
8
0
62
30
10
0.16970563
20
0.30343897
30
0
70
32
0
VERTEX
8
0
62
30
10
0.33941125
20
0.30343897
30
0
70
32
0
SEQEND
8
0
0
POLYLINE
8
0
62
5
66
1
10
0
20
0
30
0
70
8
0
VERTEX
8
0
62
5
10
0.16970563
20
0.30343897
30
0
70
32
0
VERTEX
8
0
62
5
10
0.18801622
20
0.35895058
30
0
70
32
0
VERTEX
8
0
62
5
10
0.21213203
20
0.30343897
30
0
70
32
0
VERTEX
8
0
62
5
10
0.23044262
20
0.35895058
30
0
70
32
0
VERTEX
8
0
62
5
10
0.25455844
20
0.30343897
30
0
70
32
0
VERTEX
8
0
62
5
10
0.27286903
20
0.35895058
30
0
70
32
0
VERTEX
8
0
62
5
10
0.29698485
20
0.30343897
30
0
70
32
0
VERTEX
8
0
62
5
10
0.31529544
20
0.35895058
30
0
70
32
0
VERTEX
8
0
62
5
10
0.33941125
20
0.30343897
30
0
70
32
0
SEQEND
8
0
0
POLYLINE
8
0
62
5
66
1
10
0
20
0
30
0
70
8
0
VERTEX
8
0
62
5
10
0.21213203
20
0.30343897
30
0
70
32
0
VERTEX
8
0
62
5
10
0.21213203
20
0.30343897
30
0
70
32
0
SEQEND
8
0
0
POLYLINE
8
0
62
5
66
1
10
0
20
0
30
0
70
8
0
VERTEX
8
0
62
5
10
0.25455844
20
0.30343897
30
0
70
32
0
VERTEX
8
0
62
5
10
0.25455844
20
0.30343897
30
0
70
32
0
SEQEND
8
0
0
POLYLINE
8
0
62
5
66
1
10
0
20
0
30
0
70
8
0
VERTEX
8
0
62
5
10
0.29698485
20
0.30343897
30
0
70
32
0
VERTEX
8
0
62
5
10
0.29698485
20
0.30343897
30
0
70
32
0
SEQEND
8
0
0
POLYLINE
8
0
62
5
66
1
10
0
20
0
30
0
70
8
0
VERTEX
8
0
62
5
10
0.18801622
20
0.35895058
30
0
70
32
0
VERTEX
8
0
62
5
10
0.18801622
20
0.35895058
30
0
70
32
0
SEQEND
8
0
0
POLYLINE
8
0
62
5
66
1
10
0
20
0
30
0
70
8
0
VERTEX
8
0
62
5
10
0.23044262
20
0.35895058
30
0
70
32
0
VERTEX
8
0
62
5
10
0.23044262
20
0.35895058
30
0
70
32
0
SEQEND
8
0
0
POLYLINE
8
0
62
5
66
1
10
0
20
0
30
0
70
8
0
VERTEX
8
0
62
5
10
0.27286903
20
0.35895058
30
0
70
32
0
VERTEX
8
0
62
5
10
0.27286903
20
0.35895058
30
0
70
32
0
SEQEND
8
0
0
POLYLINE
8
0
62
5
66
1
10
0
20
0
30
0
70
8
0
VERTEX
8
0
62
5
10
0.31529544
20
0.35895058
30
0
70
32
0
VERTEX
8
0
62
5
10
0.31529544
20
0.35895058
30
0
70
32
0
SEQEND
8
0
0
POLYLINE
8
0
62
30
66
1
10
0
20
0
30
0
70
8
0
VERTEX
8
0
62
30
10
-0.16970563
20
0.35895058
30
0
70
32
0
VERTEX
8
0
62
30
10
0
20
0.35895058
30
0
70
32
0
SEQEND
8
0
0
POLYLINE
8
0
62
30
66
1
10
0
20
0
30
0
70
8
0
VERTEX
8
0
62
30
10
-0.16970563
20
0.30343897
30
0
70
32
0
VERTEX
8
0
62
30
10
0
20
0.30343897
30
0
70
32
0
SEQEND
8
0
0
POLYLINE
8
0
62
5
66
1
10
0
20
0
30
0
70
8
0
VERTEX
8
0
62
5
10
-0.16970563
20
0.30343897
30
0
70
32
0
VERTEX
8
0
62
5
10
-0.15139504
20
0.35895058
30
0
70
32
0
VERTEX
8
0
62
5
10
-0.12727922
20
0.30343897
30
0
70
32
0
VERTEX
8
0
62
5
10
-0.10896863
20
0.35895058
30
0
70
32
0
VERTEX
8
0
62
5
10
-0.084852814
20
0.30343897
30
0
70
32
0
VERTEX
8
0
62
5
10
-0.066542225
20
0.35895058
30
0
70
32
0
VERTEX
8
0
62
5
10
-0.042426407
20
0.30343897
30
0
70
32
0
VERTEX
8
0
62
5
10
-0.024115818
20
0.35895058
30
0
70
32
0
VERTEX
8
0
62
5
10
0
20
0.30343897
30
0
70
32
0
SEQEND
8
0
0
POLYLINE
8
0
62
5
66
1
10
0
20
0
30
0
70
8
0
VERTEX
8
0
62
5
10
-0.12727922
20
0.30343897
30
0
70
32
0
VERTEX
8
0
62
5
10
-0.12727922
20
0.30343897
30
0
70
32
0
SEQEND
8
0
0
POLYLINE
8
0
62
5
66
1
10
0
20
0
30
0
70
8
0
VERTEX
8
0
62
5
10
-0.084852814
20
0.30343897
30
0
70
32
0
VERTEX
8
0
62
5
10
-0.084852814
20
0.30343897
30
0
70
32
0
SEQEND
8
0
0
POLYLINE
8
0
62
5
66
1
10
0
20
0
30
0
70
8
0
VERTEX
8
0
62
5
10
-0.042426407
20
0.30343897
30
0
70
32
0
VERTEX
8
0
62
5
10
-0.042426407
20
0.30343897
30
0
70
32
0
SEQEND
8
0
0
POLYLINE
8
0
62
5
66
1
10
0
20
0
30
0
70
8
0
VERTEX
8
0
62
5
10
-0.15139504
20
0.35895058
30
0
70
32
0
VERTEX
8
0
62
5
10
-0.15139504
20
0.35895058
30
0
70
32
0
SEQEND
8
0
0
POLYLINE
8
0
62
5
66
1
10
0
20
0
30
0
70
8
0
VERTEX
8
0
62
5
10
-0.10896863
20
0.35895058
30
0
70
32
0
VERTEX
8
0
62
5
10
-0.10896863
20
0.35895058
30
0
70
32
0
SEQEND
8
0
0
POLYLINE
8
0
62
5
66
1
10
0
20
0
30
0
70
8
0
VERTEX
8
0
62
5
10
-0.066542225
20
0.35895058
30
0
70
32
0
VERTEX
8
0
62
5
10
-0.066542225
20
0.35895058
30
0
70
32
0
SEQEND
8
0
0
POLYLINE
8
0
62
5
66
1
10
0
20
0
30
0
70
8
0
VERTEX
8
0
62
5
10
-0.024115818
20
0.35895058
30
0
70
32
0
VERTEX
8
0
62
5
10
-0.024115818
20
0.35895058
30
0
70
32
0
SEQEND
8
0
0
POLYLINE
8
0
62
5
66
1
10
0
20
0
30
0
70
8
0
VERTEX
8
0
62
5
10
0.018310589
20
0.35895058
30
0
70
32
0
VERTEX
8
0
62
5
10
0.018310589
20
0.57828717
30
0
70
32
0
SEQEND
8
0
0
POLYLINE
8
0
62
5
66
1
10
0
20
0
30
0
70
8
0
VERTEX
8
0
62
5
10
0.18801622
20
0.35895058
30
0
70
32
0
VERTEX
8
0
62
5
10
0.18801622
20
0.57828717
30
0
70
32
0
SEQEND
8
0
0
POLYLINE
8
0
62
5
66
1
10
0
20
0
30
0
70
8
0
VERTEX
8
0
62
5
10
0.060736996
20
0.35895058
30
0
70
32
0
VERTEX
8
0
62
5
10
0.060736996
20
0.57828717
30
0
70
32
0
SEQEND
8
0
0
POLYLINE
8
0
62
5
66
1
10
0
20
0
30
0
70
8
0
VERTEX
8
0
62
5
10
0.1031634
20
0.35895058
30
0
70
32
0
VERTEX
8
0
62
5
10
0.1031634
20
0.57828717
30
0
70
32
0
SEQEND
8
0
0
POLYLINE
8
0
62
5
66
1
10
0
20
0
30
0
70
8
0
VERTEX
8
0
62
5
10
0.14558981
20
0.35895058
30
0
70
32
0
VERTEX
8
0
62
5
10
0.14558981
20
0.57828717
30
0
70
32
0
SEQEND
8
0
0
POLYLINE
8
0
62
5
66
1
10
0
20
0
30
0
70
8
0
VERTEX
8
0
62
5
10
0.35772184
20
0.35895058
30
0
70
32
0
VERTEX
8
0
62
5
10
0.35772184
20
0.57828717
30
0
70
32
0
SEQEND
8
0
0
POLYLINE
8
0
62
5
66
1
10
0
20
0
30
0
70
8
0
VERTEX
8
0
62
5
10
0.23044262
20
0.35895058
30
0
70
32
0
VERTEX
8
0
62
5
10
0.23044262
20
0.57828717
30
0
70
32
0
SEQEND
8
0
0
POLYLINE
8
0
62
5
66
1
10
0
20
0
30
0
70
8
0
VERTEX
8
0
62
5
10
0.27286903
20
0.35895058
30
0
70
32
0
VERTEX
8
0
62
5
10
0.27286903
20
0.57828717
30
0
70
32
0
SEQEND
8
0
0
POLYLINE
8
0
62
5
66
1
10
0
20
0
30
0
70
8
0
VERTEX
8
0
62
5
10
0.31529544
20
0.35895058
30
0
70
32
0
VERTEX
8
0
62
5
10
0.31529544
20
0.57828717
30
0
70
32
0
SEQEND
8
0
0
POLYLINE
8
0
62
5
66
1
10
0
20
0
30
0
70
8
0
VERTEX
8
0
62
5
10
-0.15139504
20
0.35895058
30
0
70
32
0
VERTEX
8
0
62
5
10
-0.15139504
20
0.57828717
30
0
70
32
0
SEQEND
8
0
0
POLYLINE
8
0
62
5
66
1
10
0
20
0
30
0
70
8
0
VERTEX
8
0
62
5
10
-0.10896863
20
0.35895058
30
0
70
32
0
VERTEX
8
0
62
5
10
-0.10896863
20
0.57828717
30
0
70
32
0
SEQEND
8
0
0
POLYLINE
8
0
62
5
66
1
10
0
20
0
30
0
70
8
0
VERTEX
8
0
62
5
10
-0.066542225
20
0.35895058
30
0
70
32
0
VERTEX
8
0
62
5
10
-0.066542225
20
0.57828717
30
0
70
32
0
SEQEND
8
0
0
POLYLINE
8
0
62
5
66
1
10
0
20
0
30
0
70
8
0
VERTEX
8
0
62
5
10
-0.024115818
20
0.35895058
30
0
70
32
0
VERTEX
8
0
62
5
10
-0.024115818
20
0.57828717
30
0
70
32
0
SEQEND
8
0
0
POLYLINE
8
0
62
5
66
1
10
0
20
0
30
0
70
8
0
VERTEX
8
0
62
5
10
0.018310589
20
0.57828717
30
0
70
32
0
VERTEX
8
0
62
5
10
0.018310589
20
0.62679985
30
0
70
32
0
SEQEND
8
0
0
POLYLINE
8
0
62
5
66
1
10
0
20
0
30
0
70
8
0
VERTEX
8
0
62
5
10
0.18801622
20
0.62679985
30
0
70
32
0
VERTEX
8
0
62
5
10
0.18801622
20
0.57828717
30
0
70
32
0
SEQEND
8
0
0
POLYLINE
8
0
62
5
66
1
10
0
20
0
30
0
70
8
0
VERTEX
8
0
62
5
10
0.018310589
20
0.58461526
30
0
70
32
0
VERTEX
8
0
62
5
10
0.060736996
20
0.58015729
30
0
70
32
0
VERTEX
8
0
62
5
10
0.1031634
20
0.59808554
30
0
70
32
0
VERTEX
8
0
62
5
10
0.14558981
20
0.60254351
30
0
70
32
0
VERTEX
8
0
62
5
10
0.18801622
20
0.58461526
30
0
70
32
0
SEQEND
8
0
0
POLYLINE
8
0
62
5
66
1
10
0
20
0
30
0
70
8
0
SEQEND
8
0
0
POLYLINE
8
0
62
5
66
1
10
0
20
0
30
0
70
8
0
VERTEX
8
0
62
5
10
0.018310589
20
0.62047177
30
0
70
32
0
VERTEX
8
0
62
5
10
0.060736996
20
0.62492973
30
0
70
32
0
VERTEX
8
0
62
5
10
0.1031634
20
0.60700148
30
0
70
32
0
VERTEX
8
0
62
5
10
0.14558981
20
0.60254351
30
0
70
32
0
VERTEX
8
0
62
5
10
0.18801622
20
0.62047177
30
0
70
32
0
SEQEND
8
0
0
POLYLINE
8
0
62
30
66
1
10
0
20
0
30
0
70
8
0
VERTEX
8
0
62
30
10
0.018310589
20
0.60254351
30
0
70
32
0
VERTEX
8
0
62
30
10
0.18801622
20
0.60254351
30
0
70
32
0
SEQEND
8
0
0
POLYLINE
8
0
62
30
66
1
10
0
20
0
30
0
70
8
0
VERTEX
8
0
62
30
10
0.060736996
20
0.58015729
30
0
70
32
0
VERTEX
8
0
62
30
10
0.060736996
20
0.60254351
30
0
70
32
0
SEQEND
8
0
0
POLYLINE
8
0
62
30
66
1
10
0
20
0
30
0
70
8
0
VERTEX
8
0
62
30
10
0.1031634
20
0.59808554
30
0
70
32
0
VERTEX
8
0
62
30
10
0.1031634
20
0.60254351
30
0
70
32
0
SEQEND
8
0
0
POLYLINE
8
0
62
30
66
1
10
0
20
0
30
0
70
8
0
VERTEX
8
0
62
30
10
0.14558981
20
0.60254351
30
0
70
32
0
VERTEX
8
0
62
30
10
0.14558981
20
0.60254351
30
0
70
32
0
SEQEND
8
0
0
POLYLINE
8
0
62
5
66
1
10
0
20
0
30
0
70
8
0
VERTEX
8
0
62
5
10
0.060736996
20
0.57828717
30
0
70
32
0
VERTEX
8
0
62
5
10
0.060736996
20
0.58015729
30
0
70
32
0
SEQEND
8
0
0
POLYLINE
8
0
62
5
66
1
10
0
20
0
30
0
70
8
0
VERTEX
8
0
62
5
10
0.1031634
20
0.57828717
30
0
70
32
0
VERTEX
8
0
62
5
10
0.1031634
20
0.59808554
30
0
70
32
0
SEQEND
8
0
0
POLYLINE
8
0
62
5
66
1
10
0
20
0
30
0
70
8
0
VERTEX
8
0
62
5
10
0.14558981
20
0.57828717
30
0
70
32
0
VERTEX
8
0
62
5
10
0.14558981
20
0.60254351
30
0
70
32
0
SEQEND
8
0
0
POLYLINE
8
0
62
5
66
1
10
0
20
0
30
0
70
8
0
VERTEX
8
0
62
5
10
0.060736996
20
0.60254351
30
0
70
32
0
VERTEX
8
0
62
5
10
0.060736996
20
0.62679985
30
0
70
32
0
SEQEND
8
0
0
POLYLINE
8
0
62
5
66
1
10
0
20
0
30
0
70
8
0
VERTEX
8
0
62
5
10
0.1031634
20
0.60254351
30
0
70
32
0
VERTEX
8
0
62
5
10
0.1031634
20
0.62679985
30
0
70
32
0
SEQEND
8
0
0
POLYLINE
8
0
62
5
66
1
10
0
20
0
30
0
70
8
0
VERTEX
8
0
62
5
10
0.14558981
20
0.60254351
30
0
70
32
0
VERTEX
8
0
62
5
10
0.14558981
20
0.62679985
30
0
70
32
0
SEQEND
8
0
0
POLYLINE
8
0
62
5
66
1
10
0
20
0
30
0
70
8
0
VERTEX
8
0
62
5
10
0.35772184
20
0.62679985
30
0
70
32
0
VERTEX
8
0
62
5
10
0.35772184
20
0.57828717
30
0
70
32
0
SEQEND
8
0
0
POLYLINE
8
0
62
5
66
1
10
0
20
0
30
0
70
8
0
VERTEX
8
0
62
5
10
0.18801622
20
0.58461526
30
0
70
32
0
VERTEX
8
0
62
5
10
0.23044262
20
0.58015729
30
0
70
32
0
VERTEX
8
0
62
5
10
0.27286903
20
0.59808554
30
0
70
32
0
VERTEX
8
0
62
5
10
0.31529544
20
0.60254351
30
0
70
32
0
VERTEX
8
0
62
5
10
0.35772184
20
0.58461526
30
0
70
32
0
SEQEND
8
0
0
POLYLINE
8
0
62
5
66
1
10
0
20
0
30
0
70
8
0
SEQEND
8
0
0
POLYLINE
8
0
62
5
66
1
10
0
20
0
30
0
70
8
0
VERTEX
8
0
62
5
10
0.18801622
20
0.62047177
30
0
70
32
0
VERTEX
8
0
62
5
10
0.23044262
20
0.62492973
30
0
70
32
0
VERTEX
8
0
62
5
10
0.27286903
20
0.60700148
30
0
70
32
0
VERTEX
8
0
62
5
10
0.31529544
20
0.60254351
30
0
70
32
0
VERTEX
8
0
62
5
10
0.35772184
20
0.62047177
30
0
70
32
0
SEQEND
8
0
0
POLYLINE
8
0
62
30
66
1
10
0
20
0
30
0
70
8
0
VERTEX
8
0
62
30
10
0.18801622
20
0.60254351
30
0
70
32
0
VERTEX
8
0
62
30
10
0.35772184
20
0.60254351
30
0
70
32
0
SEQEND
8
0
0
POLYLINE
8
0
62
30
66
1
10
0
20
0
30
0
70
8
0
VERTEX
8
0
62
30
10
0.23044262
20
0.58015729
30
0
70
32
0
VERTEX
8
0
62
30
10
0.23044262
20
0.60254351
30
0
70
32
0
SEQEND
8
0
0
POLYLINE
8
0
62
30
66
1
10
0
20
0
30
0
70
8
0
VERTEX
8
0
62
30
10
0.27286903
20
0.59808554
30
0
70
32
0
VERTEX
8
0
62
30
10
0.27286903
20
0.60254351
30
0
70
32
0
SEQEND
8
0
0
POLYLINE
8
0
62
30
66
1
10
0
20
0
30
0
70
8
0
VERTEX
8
0
62
30
10
0.31529544
20
0.60254351
30
0
70
32
0
VERTEX
8
0
62
30
10
0.31529544
20
0.60254351
30
0
70
32
0
SEQEND
8
0
0
POLYLINE
8
0
62
5
66
1
10
0
20
0
30
0
70
8
0
VERTEX
8
0
62
5
10
0.23044262
20
0.57828717
30
0
70
32
0
VERTEX
8
0
62
5
10
0.23044262
20
0.58015729
30
0
70
32
0
SEQEND
8
0
0
POLYLINE
8
0
62
5
66
1
10
0
20
0
30
0
70
8
0
VERTEX
8
0
62
5
10
0.27286903
20
0.57828717
30
0
70
32
0
VERTEX
8
0
62
5
10
0.27286903
20
0.59808554
30
0
70
32
0
SEQEND
8
0
0
POLYLINE
8
0
62
5
66
1
10
0
20
0
30
0
70
8
0
VERTEX
8
0
62
5
10
0.31529544
20
0.57828717
30
0
70
32
0
VERTEX
8
0
62
5
10
0.31529544
20
0.60254351
30
0
70
32
0
SEQEND
8
0
0
POLYLINE
8
0
62
5
66
1
10
0
20
0
30
0
70
8
0
VERTEX
8
0
62
5
10
0.23044262
20
0.60254351
30
0
70
32
0
VERTEX
8
0
62
5
10
0.23044262
20
0.62679985
30
0
70
32
0
SEQEND
8
0
0
POLYLINE
8
0
62
5
66
1
10
0
20
0
30
0
70
8
0
VERTEX
8
0
62
5
10
0.27286903
20
0.60254351
30
0
70
32
0
VERTEX
8
0
62
5
10
0.27286903
20
0.62679985
30
0
70
32
0
SEQEND
8
0
0
POLYLINE
8
0
62
5
66
1
10
0
20
0
30
0
70
8
0
VERTEX
8
0
62
5
10
0.31529544
20
0.60254351
30
0
70
32
0
VERTEX
8
0
62
5
10
0.31529544
20
0.62679985
30
0
70
32
0
SEQEND
8
0
0
POLYLINE
8
0
62
5
66
1
10
0
20
0
30
0
70
8
0
VERTEX
8
0
62
5
10
-0.15139504
20
0.57828717
30
0
70
32
0
VERTEX
8
0
62
5
10
-0.15139504
20
0.62679985
30
0
70
32
0
SEQEND
8
0
0
POLYLINE
8
0
62
5
66
1
10
0
20
0
30
0
70
8
0
VERTEX
8
0
62
5
10
-0.15139504
20
0.58461526
30
0
70
32
0
VERTEX
8
0
62
5
10
-0.10896863
20
0.58015729
30
0
70
32
0
VERTEX
8
0
62
5
10
-0.066542225
20
0.59808554
30
0
70
32
0
VERTEX
8
0
62
5
10
-0.024115818
20
0.60254351
30
0
70
32
0
VERTEX
8
0
62
5
10
0.018310589
20
0.58461526
30
0
70
32
0
SEQEND
8
0
0
POLYLINE
8
0
62
5
66
1
10
0
20
0
30
0
70
8
0
SEQEND
8
0
0
POLYLINE
8
0
62
5
66
1
10
0
20
0
30
0
70
8
0
VERTEX
8
0
62
5
10
-0.15139504
20
0.62047177
30
0
70
32
0
VERTEX
8
0
62
5
10
-0.10896863
20
0.62492973
30
0
70
32
0
VERTEX
8
0
62
5
10
-0.066542225
20
0.60700148
30
0
70
32
0
VERTEX
8
0
62
5
10
-0.024115818
20
0.60254351
30
0
70
32
0
VERTEX
8
0
62
5
10
0.018310589
20
0.62047177
30
0
70
32
0
SEQEND
8
0
0
POLYLINE
8
0
62
30
66
1
10
0
20
0
30
0
70
8
0
VERTEX
8
0
62
30
10
-0.15139504
20
0.60254351
30
0
70
32
0
VERTEX
8
0
62
30
10
0.018310589
20
0.60254351
30
0
70
32
0
SEQEND
8
0
0
POLYLINE
8
0
62
30
66
1
10
0
20
0
30
0
70
8
0
VERTEX
8
0
62
30
10
-0.10896863
20
0.58015729
30
0
70
32
0
VERTEX
8
0
62
30
10
-0.10896863
20
0.60254351
30
0
70
32
0
SEQEND
8
0
0
POLYLINE
8
0
62
30
66
1
10
0
20
0
30
0
70
8
0
VERTEX
8
0
62
30
10
-0.066542225
20
0.59808554
30
0
70
32
0
VERTEX
8
0
62
30
10
-0.066542225
20
0.60254351
30
0
70
32
0
SEQEND
8
0
0
POLYLINE
8
0
62
30
66
1
10
0
20
0
30
0
70
8
0
VERTEX
8
0
62
30
10
-0.024115818
20
0.60254351
30
0
70
32
0
VERTEX
8
0
62
30
10
-0.024115818
20
0.60254351
30
0
70
32
0
SEQEND
8
0
0
POLYLINE
8
0
62
5
66
1
10
0
20
0
30
0
70
8
0
VERTEX
8
0
62
5
10
-0.10896863
20
0.57828717
30
0
70
32
0
VERTEX
8
0
62
5
10
-0.10896863
20
0.58015729
30
0
70
32
0
SEQEND
8
0
0
POLYLINE
8
0
62
5
66
1
10
0
20
0
30
0
70
8
0
VERTEX
8
0
62
5
10
-0.066542225
20
0.57828717
30
0
70
32
0
VERTEX
8
0
62
5
10
-0.066542225
20
0.59808554
30
0
70
32
0
SEQEND
8
0
0
POLYLINE
8
0
62
5
66
1
10
0
20
0
30
0
70
8
0
VERTEX
8
0
62
5
10
-0.024115818
20
0.57828717
30
0
70
32
0
VERTEX
8
0
62
5
10
-0.024115818
20
0.60254351
30
0
70
32
0
SEQEND
8
0
0
POLYLINE
8
0
62
5
66
1
10
0
20
0
30
0
70
8
0
VERTEX
8
0
62
5
10
-0.10896863
20
0.60254351
30
0
70
32
0
VERTEX
8
0
62
5
10
-0.10896863
20
0.62679985
30
0
70
32
0
SEQEND
8
0
0
POLYLINE
8
0
62
5
66
1
10
0
20
0
30
0
70
8
0
VERTEX
8
0
62
5
10
-0.066542225
20
0.60254351
30
0
70
32
0
VERTEX
8
0
62
5
10
-0.066542225
20
0.62679985
30
0
70
32
0
SEQEND
8
0
0
POLYLINE
8
0
62
5
66
1
10
0
20
0
30
0
70
8
0
VERTEX
8
0
62
5
10
-0.024115818
20
0.60254351
30
0
70
32
0
VERTEX
8
0
62
5
10
-0.024115818
20
0.62679985
30
0
70
32
0
SEQEND
8
0
0
POLYLINE
8
0
62
5
66
1
10
0
20
0
30
0
70
8
0
VERTEX
8
0
62
5
10
0.018310589
20
0.62679985
30
0
70
32
0
VERTEX
8
0
62
5
10
0.018310589
20
0.68679985
30
0
70
32
0
SEQEND
8
0
0
POLYLINE
8
0
62
5
66
1
10
0
20
0
30
0
70
8
0
VERTEX
8
0
62
5
10
0.18801622
20
0.68679985
30
0
70
32
0
VERTEX
8
0
62
5
10
0.18801622
20
0.62679985
30
0
70
32
0
SEQEND
8
0
0
POLYLINE
8
0
62
5
66
1
10
0
20
0
30
0
70
8
0
VERTEX
8
0
62
5
10
0.018310589
20
0.62679985
30
0
70
32
0
VERTEX
8
0
62
5
10
0.18801622
20
0.62679985
30
0
70
32
0
SEQEND
8
0
0
POLYLINE
8
0
62
5
66
1
10
0
20
0
30
0
70
8
0
VERTEX
8
0
62
5
10
0.018310589
20
0.68679985
30
0
70
32
0
VERTEX
8
0
62
5
10
0.18801622
20
0.68679985
30
0
70
32
0
SEQEND
8
0
0
POLYLINE
8
0
62
5
66
1
10
0
20
0
30
0
70
8
0
VERTEX
8
0
62
5
10
0.060736996
20
0.62679985
30
0
70
32
0
VERTEX
8
0
62
5
10
0.060736996
20
0.62679985
30
0
70
32
0
SEQEND
8
0
0
POLYLINE
8
0
62
5
66
1
10
0
20
0
30
0
70
8
0
VERTEX
8
0
62
5
10
0.1031634
20
0.62679985
30
0
70
32
0
VERTEX
8
0
62
5
10
0.1031634
20
0.62679985
30
0
70
32
0
SEQEND
8
0
0
POLYLINE
8
0
62
5
66
1
10
0
20
0
30
0
70
8
0
VERTEX
8
0
62
5
10
0.14558981
20
0.62679985
30
0
70
32
0
VERTEX
8
0
62
5
10
0.14558981
20
0.62679985
30
0
70
32
0
SEQEND
8
0
0
POLYLINE
8
0
62
5
66
1
10
0
20
0
30
0
70
8
0
VERTEX
8
0
62
5
10
0.060736996
20
0.68679985
30
0
70
32
0
VERTEX
8
0
62
5
10
0.060736996
20
0.68679985
30
0
70
32
0
SEQEND
8
0
0
POLYLINE
8
0
62
5
66
1
10
0
20
0
30
0
70
8
0
VERTEX
8
0
62
5
10
0.1031634
20
0.68679985
30
0
70
32
0
VERTEX
8
0
62
5
10
0.1031634
20
0.68679985
30
0
70
32
0
SEQEND
8
0
0
POLYLINE
8
0
62
5
66
1
10
0
20
0
30
0
70
8
0
VERTEX
8
0
62
5
10
0.14558981
20
0.68679985
30
0
70
32
0
VERTEX
8
0
62
5
10
0.14558981
20
0.68679985
30
0
70
32
0
SEQEND
8
0
0
POLYLINE
8
0
62
30
66
1
10
0
20
0
30
0
70
8
0
VERTEX
8
0
62
30
10
0.018310589
20
0.68679985
30
0
70
32
0
VERTEX
8
0
62
30
10
0.060736996
20
0.62679985
30
0
70
32
0
SEQEND
8
0
0
POLYLINE
8
0
62
30
66
1
10
0
20
0
30
0
70
8
0
VERTEX
8
0
62
30
10
0.060736996
20
0.68679985
30
0
70
32
0
VERTEX
8
0
62
30
10
0.018310589
20
0.62679985
30
0
70
32
0
SEQEND
8
0
0
POLYLINE
8
0
62
30
66
1
10
0
20
0
30
0
70
8
0
VERTEX
8
0
62
30
10
0.1031634
20
0.68679985
30
0
70
32
0
VERTEX
8
0
62
30
10
0.14558981
20
0.62679985
30
0
70
32
0
SEQEND
8
0
0
POLYLINE
8
0
62
30
66
1
10
0
20
0
30
0
70
8
0
VERTEX
8
0
62
30
10
0.14558981
20
0.68679985
30
0
70
32
0
VERTEX
8
0
62
30
10
0.1031634
20
0.62679985
30
0
70
32
0
SEQEND
8
0
0
POLYLINE
8
0
62
30
66
1
10
0
20
0
30
0
70
8
0
VERTEX
8
0
62
30
10
0.060736996
20
0.65679985
30
0
70
32
0
VERTEX
8
0
62
30
10
0.1031634
20
0.65679985
30
0
70
32
0
SEQEND
8
0
0
POLYLINE
8
0
62
30
66
1
10
0
20
0
30
0
70
8
0
VERTEX
8
0
62
30
10
0.14558981
20
0.65679985
30
0
70
32
0
VERTEX
8
0
62
30
10
0.18801622
20
0.65679985
30
0
70
32
0
SEQEND
8
0
0
POLYLINE
8
0
62
5
66
1
10
0
20
0
30
0
70
8
0
VERTEX
8
0
62
5
10
0.018310589
20
0.65679985
30
0
70
32
0
VERTEX
8
0
62
5
10
0.039523793
20
0.65679985
30
0
70
32
0
SEQEND
8
0
0
POLYLINE
8
0
62
5
66
1
10
0
20
0
30
0
70
8
0
VERTEX
8
0
62
5
10
0.1031634
20
0.65679985
30
0
70
32
0
VERTEX
8
0
62
5
10
0.12437661
20
0.65679985
30
0
70
32
0
SEQEND
8
0
0
POLYLINE
8
0
62
5
66
1
10
0
20
0
30
0
70
8
0
VERTEX
8
0
62
5
10
0.039523793
20
0.65679985
30
0
70
32
0
VERTEX
8
0
62
5
10
0.060736996
20
0.65679985
30
0
70
32
0
SEQEND
8
0
0
POLYLINE
8
0
62
5
66
1
10
0
20
0
30
0
70
8
0
VERTEX
8
0
62
5
10
0.12437661
20
0.65679985
30
0
70
32
0
VERTEX
8
0
62
5
10
0.14558981
20
0.65679985
30
0
70
32
0
SEQEND
8
0
0
POLYLINE
8
0
62
5
66
1
10
0
20
0
30
0
70
8
0
VERTEX
8
0
62
5
10
0.060736996
20
0.62679985
30
0
70
32
0
VERTEX
8
0
62
5
10
0.060736996
20
0.68679985
30
0
70
32
0
SEQEND
8
0
0
POLYLINE
8
0
62
5
66
1
10
0
20
0
30
0
70
8
0
VERTEX
8
0
62
5
10
0.1031634
20
0.62679985
30
0
70
32
0
VERTEX
8
0
62
5
10
0.1031634
20
0.68679985
30
0
70
32
0
SEQEND
8
0
0
POLYLINE
8
0
62
5
66
1
10
0
20
0
30
0
70
8
0
VERTEX
8
0
62
5
10
0.14558981
20
0.62679985
30
0
70
32
0
VERTEX
8
0
62
5
10
0.14558981
20
0.68679985
30
0
70
32
0
SEQEND
8
0
0
POLYLINE
8
0
62
5
66
1
10
0
20
0
30
0
70
8
0
VERTEX
8
0
62
5
10
0.018310589
20
0.62679985
30
0
70
32
0
VERTEX
8
0
62
5
10
0.018310589
20
0.68679985
30
0
70
32
0
SEQEND
8
0
0
POLYLINE
8
0
62
5
66
1
10
0
20
0
30
0
70
8
0
VERTEX
8
0
62
5
10
0.35772184
20
0.68679985
30
0
70
32
0
VERTEX
8
0
62
5
10
0.35772184
20
0.62679985
30
0
70
32
0
SEQEND
8
0
0
POLYLINE
8
0
62
5
66
1
10
0
20
0
30
0
70
8
0
VERTEX
8
0
62
5
10
0.18801622
20
0.62679985
30
0
70
32
0
VERTEX
8
0
62
5
10
0.35772184
20
0.62679985
30
0
70
32
0
SEQEND
8
0
0
POLYLINE
8
0
62
5
66
1
10
0
20
0
30
0
70
8
0
VERTEX
8
0
62
5
10
0.18801622
20
0.68679985
30
0
70
32
0
VERTEX
8
0
62
5
10
0.35772184
20
0.68679985
30
0
70
32
0
SEQEND
8
0
0
POLYLINE
8
0
62
5
66
1
10
0
20
0
30
0
70
8
0
VERTEX
8
0
62
5
10
0.23044262
20
0.62679985
30
0
70
32
0
VERTEX
8
0
62
5
10
0.23044262
20
0.62679985
30
0
70
32
0
SEQEND
8
0
0
POLYLINE
8
0
62
5
66
1
10
0
20
0
30
0
70
8
0
VERTEX
8
0
62
5
10
0.27286903
20
0.62679985
30
0
70
32
0
VERTEX
8
0
62
5
10
0.27286903
20
0.62679985
30
0
70
32
0
SEQEND
8
0
0
POLYLINE
8
0
62
5
66
1
10
0
20
0
30
0
70
8
0
VERTEX
8
0
62
5
10
0.31529544
20
0.62679985
30
0
70
32
0
VERTEX
8
0
62
5
10
0.31529544
20
0.62679985
30
0
70
32
0
SEQEND
8
0
0
POLYLINE
8
0
62
5
66
1
10
0
20
0
30
0
70
8
0
VERTEX
8
0
62
5
10
0.23044262
20
0.68679985
30
0
70
32
0
VERTEX
8
0
62
5
10
0.23044262
20
0.68679985
30
0
70
32
0
SEQEND
8
0
0
POLYLINE
8
0
62
5
66
1
10
0
20
0
30
0
70
8
0
VERTEX
8
0
62
5
10
0.27286903
20
0.68679985
30
0
70
32
0
VERTEX
8
0
62
5
10
0.27286903
20
0.68679985
30
0
70
32
0
SEQEND
8
0
0
POLYLINE
8
0
62
5
66
1
10
0
20
0
30
0
70
8
0
VERTEX
8
0
62
5
10
0.31529544
20
0.68679985
30
0
70
32
0
VERTEX
8
0
62
5
10
0.31529544
20
0.68679985
30
0
70
32
0
SEQEND
8
0
0
POLYLINE
8
0
62
30
66
1
10
0
20
0
30
0
70
8
0
VERTEX
8
0
62
30
10
0.18801622
20
0.68679985
30
0
70
32
0
VERTEX
8
0
62
30
10
0.23044262
20
0.62679985
30
0
70
32
0
SEQEND
8
0
0
POLYLINE
8
0
62
30
66
1
10
0
20
0
30
0
70
8
0
VERTEX
8
0
62
30
10
0.23044262
20
0.68679985
30
0
70
32
0
VERTEX
8
0
62
30
10
0.18801622
20
0.62679985
30
0
70
32
0
SEQEND
8
0
0
POLYLINE
8
0
62
30
66
1
10
0
20
0
30
0
70
8
0
VERTEX
8
0
62
30
10
0.27286903
20
0.68679985
30
0
70
32
0
VERTEX
8
0
62
30
10
0.31529544
20
0.62679985
30
0
70
32
0
SEQEND
8
0
0
POLYLINE
8
0
62
30
66
1
10
0
20
0
30
0
70
8
0
VERTEX
8
0
62
30
10
0.31529544
20
0.68679985
30
0
70
32
0
VERTEX
8
0
62
30
10
0.27286903
20
0.62679985
30
0
70
32
0
SEQEND
8
0
0
POLYLINE
8
0
62
30
66
1
10
0
20
0
30
0
70
8
0
VERTEX
8
0
62
30
10
0.23044262
20
0.65679985
30
0
70
32
0
VERTEX
8
0
62
30
10
0.27286903
20
0.65679985
30
0
70
32
0
SEQEND
8
0
0
POLYLINE
8
0
62
30
66
1
10
0
20
0
30
0
70
8
0
VERTEX
8
0
62
30
10
0.31529544
20
0.65679985
30
0
70
32
0
VERTEX
8
0
62
30
10
0.35772184
20
0.65679985
30
0
70
32
0
SEQEND
8
0
0
POLYLINE
8
0
62
5
66
1
10
0
20
0
30
0
70
8
0
VERTEX
8
0
62
5
10
0.18801622
20
0.65679985
30
0
70
32
0
VERTEX
8
0
62
5
10
0.20922942
20
0.65679985
30
0
70
32
0
SEQEND
8
0
0
POLYLINE
8
0
62
5
66
1
10
0
20
0
30
0
70
8
0
VERTEX
8
0
62
5
10
0.27286903
20
0.65679985
30
0
70
32
0
VERTEX
8
0
62
5
10
0.29408223
20
0.65679985
30
0
70
32
0
SEQEND
8
0
0
POLYLINE
8
0
62
5
66
1
10
0
20
0
30
0
70
8
0
VERTEX
8
0
62
5
10
0.20922942
20
0.65679985
30
0
70
32
0
VERTEX
8
0
62
5
10
0.23044262
20
0.65679985
30
0
70
32
0
SEQEND
8
0
0
POLYLINE
8
0
62
5
66
1
10
0
20
0
30
0
70
8
0
VERTEX
8
0
62
5
10
0.29408223
20
0.65679985
30
0
70
32
0
VERTEX
8
0
62
5
10
0.31529544
20
0.65679985
30
0
70
32
0
SEQEND
8
0
0
POLYLINE
8
0
62
5
66
1
10
0
20
0
30
0
70
8
0
VERTEX
8
0
62
5
10
0.23044262
20
0.62679985
30
0
70
32
0
VERTEX
8
0
62
5
10
0.23044262
20
0.68679985
30
0
70
32
0
SEQEND
8
0
0
POLYLINE
8
0
62
5
66
1
10
0
20
0
30
0
70
8
0
VERTEX
8
0
62
5
10
0.27286903
20
0.62679985
30
0
70
32
0
VERTEX
8
0
62
5
10
0.27286903
20
0.68679985
30
0
70
32
0
SEQEND
8
0
0
POLYLINE
8
0
62
5
66
1
10
0
20
0
30
0
70
8
0
VERTEX
8
0
62
5
10
0.31529544
20
0.62679985
30
0
70
32
0
VERTEX
8
0
62
5
10
0.31529544
20
0.68679985
30
0
70
32
0
SEQEND
8
0
0
POLYLINE
8
0
62
5
66
1
10
0
20
0
30
0
70
8
0
VERTEX
8
0
62
5
10
0.18801622
20
0.62679985
30
0
70
32
0
VERTEX
8
0
62
5
10
0.18801622
20
0.68679985
30
0
70
32
0
SEQEND
8
0
0
POLYLINE
8
0
62
5
66
1
10
0
20
0
30
0
70
8
0
VERTEX
8
0
62
5
10
-0.15139504
20
0.62679985
30
0
70
32
0
VERTEX
8
0
62
5
10
-0.15139504
20
0.68679985
30
0
70
32
0
SEQEND
8
0
0
POLYLINE
8
0
62
5
66
1
10
0
20
0
30
0
70
8
0
VERTEX
8
0
62
5
10
-0.15139504
20
0.62679985
30
0
70
32
0
VERTEX
8
0
62
5
10
0.018310589
20
0.62679985
30
0
70
32
0
SEQEND
8
0
0
POLYLINE
8
0
62
5
66
1
10
0
20
0
30
0
70
8
0
VERTEX
8
0
62
5
10
-0.15139504
20
0.68679985
30
0
70
32
0
VERTEX
8
0
62
5
10
0.018310589
20
0.68679985
30
0
70
32
0
SEQEND
8
0
0
POLYLINE
8
0
62
5
66
1
10
0
20
0
30
0
70
8
0
VERTEX
8
0
62
5
10
-0.10896863
20
0.62679985
30
0
70
32
0
VERTEX
8
0
62
5
10
-0.10896863
20
0.62679985
30
0
70
32
0
SEQEND
8
0
0
POLYLINE
8
0
62
5
66
1
10
0
20
0
30
0
70
8
0
VERTEX
8
0
62
5
10
-0.066542225
20
0.62679985
30
0
70
32
0
VERTEX
8
0
62
5
10
-0.066542225
20
0.62679985
30
0
70
32
0
SEQEND
8
0
0
POLYLINE
8
0
62
5
66
1
10
0
20
0
30
0
70
8
0
VERTEX
8
0
62
5
10
-0.024115818
20
0.62679985
30
0
70
32
0
VERTEX
8
0
62
5
10
-0.024115818
20
0.62679985
30
0
70
32
0
SEQEND
8
0
0
POLYLINE
8
0
62
5
66
1
10
0
20
0
30
0
70
8
0
VERTEX
8
0
62
5
10
-0.10896863
20
0.68679985
30
0
70
32
0
VERTEX
8
0
62
5
10
-0.10896863
20
0.68679985
30
0
70
32
0
SEQEND
8
0
0
POLYLINE
8
0
62
5
66
1
10
0
20
0
30
0
70
8
0
VERTEX
8
0
62
5
10
-0.066542225
20
0.68679985
30
0
70
32
0
VERTEX
8
0
62
5
10
-0.066542225
20
0.68679985
30
0
70
32
0
SEQEND
8
0
0
POLYLINE
8
0
62
5
66
1
10
0
20
0
30
0
70
8
0
VERTEX
8
0
62
5
10
-0.024115818
20
0.68679985
30
0
70
32
0
VERTEX
8
0
62
5
10
-0.024115818
20
0.68679985
30
0
70
32
0
SEQEND
8
0
0
POLYLINE
8
0
62
30
66
1
10
0
20
0
30
0
70
8
0
VERTEX
8
0
62
30
10
-0.15139504
20
0.68679985
30
0
70
32
0
VERTEX
8
0
62
30
10
-0.10896863
20
0.62679985
30
0
70
32
0
SEQEND
8
0
0
POLYLINE
8
0
62
30
66
1
10
0
20
0
30
0
70
8
0
VERTEX
8
0
62
30
10
-0.10896863
20
0.68679985
30
0
70
32
0
VERTEX
8
0
62
30
10
-0.15139504
20
0.62679985
30
0
70
32
0
SEQEND
8
0
0
POLYLINE
8
0
62
30
66
1
10
0
20
0
30
0
70
8
0
VERTEX
8
0
62
30
10
-0.066542225
20
0.68679985
30
0
70
32
0
VERTEX
8
0
62
30
10
-0.024115818
20
0.62679985
30
0
70
32
0
SEQEND
8
0
0
POLYLINE
8
0
62
30
66
1
10
0
20
0
30
0
70
8
0
VERTEX
8
0
62
30
10
-0.024115818
20
0.68679985
30
0
70
32
0
VERTEX
8
0
62
30
10
-0.066542225
20
0.62679985
30
0
70
32
0
SEQEND
8
0
0
POLYLINE
8
0
62
30
66
1
10
0
20
0
30
0
70
8
0
VERTEX
8
0
62
30
10
-0.10896863
20
0.65679985
30
0
70
32
0
VERTEX
8
0
62
30
10
-0.066542225
20
0.65679985
30
0
70
32
0
SEQEND
8
0
0
POLYLINE
8
0
62
30
66
1
10
0
20
0
30
0
70
8
0
VERTEX
8
0
62
30
10
-0.024115818
20
0.65679985
30
0
70
32
0
VERTEX
8
0
62
30
10
0.018310589
20
0.65679985
30
0
70
32
0
SEQEND
8
0
0
POLYLINE
8
0
62
5
66
1
10
0
20
0
30
0
70
8
0
VERTEX
8
0
62
5
10
-0.15139504
20
0.65679985
30
0
70
32
0
VERTEX
8
0
62
5
10
-0.13018183
20
0.65679985
30
0
70
32
0
SEQEND
8
0
0
POLYLINE
8
0
62
5
66
1
10
0
20
0
30
0
70
8
0
VERTEX
8
0
62
5
10
-0.066542225
20
0.65679985
30
0
70
32
0
VERTEX
8
0
62
5
10
-0.045329021
20
0.65679985
30
0
70
32
0
SEQEND
8
0
0
POLYLINE
8
0
62
5
66
1
10
0
20
0
30
0
70
8
0
VERTEX
8
0
62
5
10
-0.13018183
20
0.65679985
30
0
70
32
0
VERTEX
8
0
62
5
10
-0.10896863
20
0.65679985
30
0
70
32
0
SEQEND
8
0
0
POLYLINE
8
0
62
5
66
1
10
0
20
0
30
0
70
8
0
VERTEX
8
0
62
5
10
-0.045329021
20
0.65679985
30
0
70
32
0
VERTEX
8
0
62
5
10
-0.024115818
20
0.65679985
30
0
70
32
0
SEQEND
8
0
0
POLYLINE
8
0
62
5
66
1
10
0
20
0
30
0
70
8
0
VERTEX
8
0
62
5
10
-0.10896863
20
0.62679985
30
0
70
32
0
VERTEX
8
0
62
5
10
-0.10896863
20
0.68679985
30
0
70
32
0
SEQEND
8
0
0
POLYLINE
8
0
62
5
66
1
10
0
20
0
30
0
70
8
0
VERTEX
8
0
62
5
10
-0.066542225
20
0.62679985
30
0
70
32
0
VERTEX
8
0
62
5
10
-0.066542225
20
0.68679985
30
0
70
32
0
SEQEND
8
0
0
POLYLINE
8
0
62
5
66
1
10
0
20
0
30
0
70
8
0
VERTEX
8
0
62
5
10
-0.024115818
20
0.62679985
30
0
70
32
0
VERTEX
8
0
62
5
10
-0.024115818
20
0.68679985
30
0
70
32
0
SEQEND
8
0
0
POLYLINE
8
0
62
5
66
1
10
0
20
0
30
0
70
8
0
VERTEX
8
0
62
5
10
-0.15139504
20
0.62679985
30
0
70
32
0
VERTEX
8
0
62
5
10
-0.15139504
20
0.68679985
30
0
70
32
0
SEQEND
8
0
0
POLYLINE
8
0
62
5
66
1
10
0
20
0
30
0
70
8
0
VERTEX
8
0
62
5
10
0.018310589
20
0.68679985
30
0
70
32
0
VERTEX
8
0
62
5
10
0.018310589
20
0.83914943
30
0
70
32
0
SEQEND
8
0
0
POLYLINE
8
0
62
5
66
1
10
0
20
0
30
0
70
8
0
VERTEX
8
0
62
5
10
0.18801622
20
0.83914943
30
0
70
32
0
VERTEX
8
0
62
5
10
0.18801622
20
0.68679985
30
0
70
32
0
SEQEND
8
0
0
POLYLINE
8
0
62
5
66
1
10
0
20
0
30
0
70
8
0
VERTEX
8
0
62
5
10
0.018310589
20
0.68767262
30
0
70
32
0
VERTEX
8
0
62
5
10
0.060736996
20
0.71716992
30
0
70
32
0
VERTEX
8
0
62
5
10
0.1031634
20
0.76297464
30
0
70
32
0
VERTEX
8
0
62
5
10
0.14558981
20
0.73347734
30
0
70
32
0
VERTEX
8
0
62
5
10
0.18801622
20
0.68767262
30
0
70
32
0
SEQEND
8
0
0
POLYLINE
8
0
62
5
66
1
10
0
20
0
30
0
70
8
0
SEQEND
8
0
0
POLYLINE
8
0
62
5
66
1
10
0
20
0
30
0
70
8
0
VERTEX
8
0
62
5
10
0.018310589
20
0.83827666
30
0
70
32
0
VERTEX
8
0
62
5
10
0.060736996
20
0.80877936
30
0
70
32
0
VERTEX
8
0
62
5
10
0.1031634
20
0.76297464
30
0
70
32
0
VERTEX
8
0
62
5
10
0.14558981
20
0.79247195
30
0
70
32
0
VERTEX
8
0
62
5
10
0.18801622
20
0.83827666
30
0
70
32
0
SEQEND
8
0
0
POLYLINE
8
0
62
30
66
1
10
0
20
0
30
0
70
8
0
VERTEX
8
0
62
30
10
0.018310589
20
0.76297464
30
0
70
32
0
VERTEX
8
0
62
30
10
0.18801622
20
0.76297464
30
0
70
32
0
SEQEND
8
0
0
POLYLINE
8
0
62
30
66
1
10
0
20
0
30
0
70
8
0
VERTEX
8
0
62
30
10
0.060736996
20
0.71716992
30
0
70
32
0
VERTEX
8
0
62
30
10
0.060736996
20
0.76297464
30
0
70
32
0
SEQEND
8
0
0
POLYLINE
8
0
62
30
66
1
10
0
20
0
30
0
70
8
0
VERTEX
8
0
62
30
10
0.1031634
20
0.76297464
30
0
70
32
0
VERTEX
8
0
62
30
10
0.1031634
20
0.76297464
30
0
70
32
0
SEQEND
8
0
0
POLYLINE
8
0
62
30
66
1
10
0
20
0
30
0
70
8
0
VERTEX
8
0
62
30
10
0.14558981
20
0.73347734
30
0
70
32
0
VERTEX
8
0
62
30
10
0.14558981
20
0.76297464
30
0
70
32
0
SEQEND
8
0
0
POLYLINE
8
0
62
5
66
1
10
0
20
0
30
0
70
8
0
VERTEX
8
0
62
5
10
0.060736996
20
0.68679985
30
0
70
32
0
VERTEX
8
0
62
5
10
0.060736996
20
0.71716992
30
0
70
32
0
SEQEND
8
0
0
POLYLINE
8
0
62
5
66
1
10
0
20
0
30
0
70
8
0
VERTEX
8
0
62
5
10
0.1031634
20
0.68679985
30
0
70
32
0
VERTEX
8
0
62
5
10
0.1031634
20
0.76297464
30
0
70
32
0
SEQEND
8
0
0
POLYLINE
8
0
62
5
66
1
10
0
20
0
30
0
70
8
0
VERTEX
8
0
62
5
10
0.14558981
20
0.68679985
30
0
70
32
0
VERTEX
8
0
62
5
10
0.14558981
20
0.73347734
30
0
70
32
0
SEQEND
8
0
0
POLYLINE
8
0
62
5
66
1
10
0
20
0
30
0
70
8
0
VERTEX
8
0
62
5
10
0.060736996
20
0.76297464
30
0
70
32
0
VERTEX
8
0
62
5
10
0.060736996
20
0.83914943
30
0
70
32
0
SEQEND
8
0
0
POLYLINE
8
0
62
5
66
1
10
0
20
0
30
0
70
8
0
VERTEX
8
0
62
5
10
0.1031634
20
0.76297464
30
0
70
32
0
VERTEX
8
0
62
5
10
0.1031634
20
0.83914943
30
0
70
32
0
SEQEND
8
0
0
POLYLINE
8
0
62
5
66
1
10
0
20
0
30
0
70
8
0
VERTEX
8
0
62
5
10
0.14558981
20
0.76297464
30
0
70
32
0
VERTEX
8
0
62
5
10
0.14558981
20
0.83914943
30
0
70
32
0
SEQEND
8
0
0
POLYLINE
8
0
62
5
66
1
10
0
20
0
30
0
70
8
0
VERTEX
8
0
62
5
10
0.35772184
20
0.83914943
30
0
70
32
0
VERTEX
8
0
62
5
10
0.35772184
20
0.68679985
30
0
70
32
0
SEQEND
8
0
0
POLYLINE
8
0
62
5
66
1
10
0
20
0
30
0
70
8
0
VERTEX
8
0
62
5
10
0.18801622
20
0.68767262
30
0
70
32
0
VERTEX
8
0
62
5
10
0.23044262
20
0.71716992
30
0
70
32
0
VERTEX
8
0
62
5
10
0.27286903
20
0.76297464
30
0
70
32
0
VERTEX
8
0
62
5
10
0.31529544
20
0.73347734
30
0
70
32
0
VERTEX
8
0
62
5
10
0.35772184
20
0.68767262
30
0
70
32
0
SEQEND
8
0
0
POLYLINE
8
0
62
5
66
1
10
0
20
0
30
0
70
8
0
SEQEND
8
0
0
POLYLINE
8
0
62
5
66
1
10
0
20
0
30
0
70
8
0
VERTEX
8
0
62
5
10
0.18801622
20
0.83827666
30
0
70
32
0
VERTEX
8
0
62
5
10
0.23044262
20
0.80877936
30
0
70
32
0
VERTEX
8
0
62
5
10
0.27286903
20
0.76297464
30
0
70
32
0
VERTEX
8
0
62
5
10
0.31529544
20
0.79247195
30
0
70
32
0
VERTEX
8
0
62
5
10
0.35772184
20
0.83827666
30
0
70
32
0
SEQEND
8
0
0
POLYLINE
8
0
62
30
66
1
10
0
20
0
30
0
70
8
0
VERTEX
8
0
62
30
10
0.18801622
20
0.76297464
30
0
70
32
0
VERTEX
8
0
62
30
10
0.35772184
20
0.76297464
30
0
70
32
0
SEQEND
8
0
0
POLYLINE
8
0
62
30
66
1
10
0
20
0
30
0
70
8
0
VERTEX
8
0
62
30
10
0.23044262
20
0.71716992
30
0
70
32
0
VERTEX
8
0
62
30
10
0.23044262
20
0.76297464
30
0
70
32
0
SEQEND
8
0
0
POLYLINE
8
0
62
30
66
1
10
0
20
0
30
0
70
8
0
VERTEX
8
0
62
30
10
0.27286903
20
0.76297464
30
0
70
32
0
VERTEX
8
0
62
30
10
0.27286903
20
0.76297464
30
0
70
32
0
SEQEND
8
0
0
POLYLINE
8
0
62
30
66
1
10
0
20
0
30
0
70
8
0
VERTEX
8
0
62
30
10
0.31529544
20
0.73347734
30
0
70
32
0
VERTEX
8
0
62
30
10
0.31529544
20
0.76297464
30
0
70
32
0
SEQEND
8
0
0
POLYLINE
8
0
62
5
66
1
10
0
20
0
30
0
70
8
0
VERTEX
8
0
62
5
10
0.23044262
20
0.68679985
30
0
70
32
0
VERTEX
8
0
62
5
10
0.23044262
20
0.71716992
30
0
70
32
0
SEQEND
8
0
0
POLYLINE
8
0
62
5
66
1
10
0
20
0
30
0
70
8
0
VERTEX
8
0
62
5
10
0.27286903
20
0.68679985
30
0
70
32
0
VERTEX
8
0
62
5
10
0.27286903
20
0.76297464
30
0
70
32
0
SEQEND
8
0
0
POLYLINE
8
0
62
5
66
1
10
0
20
0
30
0
70
8
0
VERTEX
8
0
62
5
10
0.31529544
20
0.68679985
30
0
70
32
0
VERTEX
8
0
62
5
10
0.31529544
20
0.73347734
30
0
70
32
0
SEQEND
8
0
0
POLYLINE
8
0
62
5
66
1
10
0
20
0
30
0
70
8
0
VERTEX
8
0
62
5
10
0.23044262
20
0.76297464
30
0
70
32
0
VERTEX
8
0
62
5
10
0.23044262
20
0.83914943
30
0
70
32
0
SEQEND
8
0
0
POLYLINE
8
0
62
5
66
1
10
0
20
0
30
0
70
8
0
VERTEX
8
0
62
5
10
0.27286903
20
0.76297464
30
0
70
32
0
VERTEX
8
0
62
5
10
0.27286903
20
0.83914943
30
0
70
32
0
SEQEND
8
0
0
POLYLINE
8
0
62
5
66
1
10
0
20
0
30
0
70
8
0
VERTEX
8
0
62
5
10
0.31529544
20
0.76297464
30
0
70
32
0
VERTEX
8
0
62
5
10
0.31529544
20
0.83914943
30
0
70
32
0
SEQEND
8
0
0
POLYLINE
8
0
62
5
66
1
10
0
20
0
30
0
70
8
0
VERTEX
8
0
62
5
10
-0.15139504
20
0.68679985
30
0
70
32
0
VERTEX
8
0
62
5
10
-0.15139504
20
0.83914943
30
0
70
32
0
SEQEND
8
0
0
POLYLINE
8
0
62
5
66
1
10
0
20
0
30
0
70
8
0
VERTEX
8
0
62
5
10
-0.15139504
20
0.68767262
30
0
70
32
0
VERTEX
8
0
62
5
10
-0.10896863
20
0.71716992
30
0
70
32
0
VERTEX
8
0
62
5
10
-0.066542225
20
0.76297464
30
0
70
32
0
VERTEX
8
0
62
5
10
-0.024115818
20
0.73347734
30
0
70
32
0
VERTEX
8
0
62
5
10
0.018310589
20
0.68767262
30
0
70
32
0
SEQEND
8
0
0
POLYLINE
8
0
62
5
66
1
10
0
20
0
30
0
70
8
0
SEQEND
8
0
0
POLYLINE
8
0
62
5
66
1
10
0
20
0
30
0
70
8
0
VERTEX
8
0
62
5
10
-0.15139504
20
0.83827666
30
0
70
32
0
VERTEX
8
0
62
5
10
-0.10896863
20
0.80877936
30
0
70
32
0
VERTEX
8
0
62
5
10
-0.066542225
20
0.76297464
30
0
70
32
0
VERTEX
8
0
62
5
10
-0.024115818
20
0.79247195
30
0
70
32
0
VERTEX
8
0
62
5
10
0.018310589
20
0.83827666
30
0
70
32
0
SEQEND
8
0
0
POLYLINE
8
0
62
30
66
1
10
0
20
0
30
0
70
8
0
VERTEX
8
0
62
30
10
-0.15139504
20
0.76297464
30
0
70
32
0
VERTEX
8
0
62
30
10
0.018310589
20
0.76297464
30
0
70
32
0
SEQEND
8
0
0
POLYLINE
8
0
62
30
66
1
10
0
20
0
30
0
70
8
0
VERTEX
8
0
62
30
10
-0.10896863
20
0.71716992
30
0
70
32
0
VERTEX
8
0
62
30
10
-0.10896863
20
0.76297464
30
0
70
32
0
SEQEND
8
0
0
POLYLINE
8
0
62
30
66
1
10
0
20
0
30
0
70
8
0
VERTEX
8
0
62
30
10
-0.066542225
20
0.76297464
30
0
70
32
0
VERTEX
8
0
62
30
10
-0.066542225
20
0.76297464
30
0
70
32
0
SEQEND
8
0
0
POLYLINE
8
0
62
30
66
1
10
0
20
0
30
0
70
8
0
VERTEX
8
0
62
30
10
-0.024115818
20
0.73347734
30
0
70
32
0
VERTEX
8
0
62
30
10
-0.024115818
20
0.76297464
30
0
70
32
0
SEQEND
8
0
0
POLYLINE
8
0
62
5
66
1
10
0
20
0
30
0
70
8
0
VERTEX
8
0
62
5
10
-0.10896863
20
0.68679985
30
0
70
32
0
VERTEX
8
0
62
5
10
-0.10896863
20
0.71716992
30
0
70
32
0
SEQEND
8
0
0
POLYLINE
8
0
62
5
66
1
10
0
20
0
30
0
70
8
0
VERTEX
8
0
62
5
10
-0.066542225
20
0.68679985
30
0
70
32
0
VERTEX
8
0
62
5
10
-0.066542225
20
0.76297464
30
0
70
32
0
SEQEND
8
0
0
POLYLINE
8
0
62
5
66
1
10
0
20
0
30
0
70
8
0
VERTEX
8
0
62
5
10
-0.024115818
20
0.68679985
30
0
70
32
0
VERTEX
8
0
62
5
10
-0.024115818
20
0.73347734
30
0
70
32
0
SEQEND
8
0
0
POLYLINE
8
0
62
5
66
1
10
0
20
0
30
0
70
8
0
VERTEX
8
0
62
5
10
-0.10896863
20
0.76297464
30
0
70
32
0
VERTEX
8
0
62
5
10
-0.10896863
20
0.83914943
30
0
70
32
0
SEQEND
8
0
0
POLYLINE
8
0
62
5
66
1
10
0
20
0
30
0
70
8
0
VERTEX
8
0
62
5
10
-0.066542225
20
0.76297464
30
0
70
32
0
VERTEX
8
0
62
5
10
-0.066542225
20
0.83914943
30
0
70
32
0
SEQEND
8
0
0
POLYLINE
8
0
62
5
66
1
10
0
20
0
30
0
70
8
0
VERTEX
8
0
62
5
10
-0.024115818
20
0.76297464
30
0
70
32
0
VERTEX
8
0
62
5
10
-0.024115818
20
0.83914943
30
0
70
32
0
SEQEND
8
0
0
POLYLINE
8
0
62
30
66
1
10
0
20
0
30
0
70
8
0
VERTEX
8
0
62
30
10
0.018310589
20
0.87920689
30
0
70
32
0
VERTEX
8
0
62
30
10
0.18801622
20
0.87920689
30
0
70
32
0
SEQEND
8
0
0
POLYLINE
8
0
62
30
66
1
10
0
20
0
30
0
70
8
0
VERTEX
8
0
62
30
10
0.018310589
20
0.83914943
30
0
70
32
0
VERTEX
8
0
62
30
10
0.18801622
20
0.83914943
30
0
70
32
0
SEQEND
8
0
0
POLYLINE
8
0
62
5
66
1
10
0
20
0
30
0
70
8
0
VERTEX
8
0
62
5
10
0.018310589
20
0.83914943
30
0
70
32
0
VERTEX
8
0
62
5
10
0.043713773
20
0.87920689
30
0
70
32
0
VERTEX
8
0
62
5
10
0.060736996
20
0.83914943
30
0
70
32
0
VERTEX
8
0
62
5
10
0.08614018
20
0.87920689
30
0
70
32
0
VERTEX
8
0
62
5
10
0.1031634
20
0.83914943
30
0
70
32
0
VERTEX
8
0
62
5
10
0.12856659
20
0.87920689
30
0
70
32
0
VERTEX
8
0
62
5
10
0.14558981
20
0.83914943
30
0
70
32
0
VERTEX
8
0
62
5
10
0.17099299
20
0.87920689
30
0
70
32
0
VERTEX
8
0
62
5
10
0.18801622
20
0.83914943
30
0
70
32
0
SEQEND
8
0
0
POLYLINE
8
0
62
5
66
1
10
0
20
0
30
0
70
8
0
VERTEX
8
0
62
5
10
0.060736996
20
0.83914943
30
0
70
32
0
VERTEX
8
0
62
5
10
0.060736996
20
0.83914943
30
0
70
32
0
SEQEND
8
0
0
POLYLINE
8
0
62
5
66
1
10
0
20
0
30
0
70
8
0
VERTEX
8
0
62
5
10
0.1031634
20
0.83914943
30
0
70
32
0
VERTEX
8
0
62
5
10
0.1031634
20
0.83914943
30
0
70
32
0
SEQEND
8
0
0
POLYLINE
8
0
62
5
66
1
10
0
20
0
30
0
70
8
0
VERTEX
8
0
62
5
10
0.14558981
20
0.83914943
30
0
70
32
0
VERTEX
8
0
62
5
10
0.14558981
20
0.83914943
30
0
70
32
0
SEQEND
8
0
0
POLYLINE
8
0
62
5
66
1
10
0
20
0
30
0
70
8
0
VERTEX
8
0
62
5
10
0.043713773
20
0.87920689
30
0
70
32
0
VERTEX
8
0
62
5
10
0.043713773
20
0.87920689
30
0
70
32
0
SEQEND
8
0
0
POLYLINE
8
0
62
5
66
1
10
0
20
0
30
0
70
8
0
VERTEX
8
0
62
5
10
0.08614018
20
0.87920689
30
0
70
32
0
VERTEX
8
0
62
5
10
0.08614018
20
0.87920689
30
0
70
32
0
SEQEND
8
0
0
POLYLINE
8
0
62
5
66
1
10
0
20
0
30
0
70
8
0
VERTEX
8
0
62
5
10
0.12856659
20
0.87920689
30
0
70
32
0
VERTEX
8
0
62
5
10
0.12856659
20
0.87920689
30
0
70
32
0
SEQEND
8
0
0
POLYLINE
8
0
62
5
66
1
10
0
20
0
30
0
70
8
0
VERTEX
8
0
62
5
10
0.17099299
20
0.87920689
30
0
70
32
0
VERTEX
8
0
62
5
10
0.17099299
20
0.87920689
30
0
70
32
0
SEQEND
8
0
0
POLYLINE
8
0
62
30
66
1
10
0
20
0
30
0
70
8
0
VERTEX
8
0
62
30
10
0.18801622
20
0.87920689
30
0
70
32
0
VERTEX
8
0
62
30
10
0.35772184
20
0.87920689
30
0
70
32
0
SEQEND
8
0
0
POLYLINE
8
0
62
30
66
1
10
0
20
0
30
0
70
8
0
VERTEX
8
0
62
30
10
0.18801622
20
0.83914943
30
0
70
32
0
VERTEX
8
0
62
30
10
0.35772184
20
0.83914943
30
0
70
32
0
SEQEND
8
0
0
POLYLINE
8
0
62
5
66
1
10
0
20
0
30
0
70
8
0
VERTEX
8
0
62
5
10
0.18801622
20
0.83914943
30
0
70
32
0
VERTEX
8
0
62
5
10
0.2134194
20
0.87920689
30
0
70
32
0
VERTEX
8
0
62
5
10
0.23044262
20
0.83914943
30
0
70
32
0
VERTEX
8
0
62
5
10
0.25584581
20
0.87920689
30
0
70
32
0
VERTEX
8
0
62
5
10
0.27286903
20
0.83914943
30
0
70
32
0
VERTEX
8
0
62
5
10
0.29827221
20
0.87920689
30
0
70
32
0
VERTEX
8
0
62
5
10
0.31529544
20
0.83914943
30
0
70
32
0
VERTEX
8
0
62
5
10
0.34069862
20
0.87920689
30
0
70
32
0
VERTEX
8
0
62
5
10
0.35772184
20
0.83914943
30
0
70
32
0
SEQEND
8
0
0
POLYLINE
8
0
62
5
66
1
10
0
20
0
30
0
70
8
0
VERTEX
8
0
62
5
10
0.23044262
20
0.83914943
30
0
70
32
0
VERTEX
8
0
62
5
10
0.23044262
20
0.83914943
30
0
70
32
0
SEQEND
8
0
0
POLYLINE
8
0
62
5
66
1
10
0
20
0
30
0
70
8
0
VERTEX
8
0
62
5
10
0.27286903
20
0.83914943
30
0
70
32
0
VERTEX
8
0
62
5
10
0.27286903
20
0.83914943
30
0
70
32
0
SEQEND
8
0
0
POLYLINE
8
0
62
5
66
1
10
0
20
0
30
0
70
8
0
VERTEX
8
0
62
5
10
0.31529544
20
0.83914943
30
0
70
32
0
VERTEX
8
0
62
5
10
0.31529544
20
0.83914943
30
0
70
32
0
SEQEND
8
0
0
POLYLINE
8
0
62
5
66
1
10
0
20
0
30
0
70
8
0
VERTEX
8
0
62
5
10
0.2134194
20
0.87920689
30
0
70
32
0
VERTEX
8
0
62
5
10
0.2134194
20
0.87920689
30
0
70
32
0
SEQEND
8
0
0
POLYLINE
8
0
62
5
66
1
10
0
20
0
30
0
70
8
0
VERTEX
8
0
62
5
10
0.25584581
20
0.87920689
30
0
70
32
0
VERTEX
8
0
62
5
10
0.25584581
20
0.87920689
30
0
70
32
0
SEQEND
8
0
0
POLYLINE
8
0
62
5
66
1
10
0
20
0
30
0
70
8
0
VERTEX
8
0
62
5
10
0.29827221
20
0.87920689
30
0
70
32
0
VERTEX
8
0
62
5
10
0.29827221
20
0.87920689
30
0
70
32
0
SEQEND
8
0
0
POLYLINE
8
0
62
5
66
1
10
0
20
0
30
0
70
8
0
VERTEX
8
0
62
5
10
0.34069862
20
0.87920689
30
0
70
32
0
VERTEX
8
0
62
5
10
0.34069862
20
0.87920689
30
0
70
32
0
SEQEND
8
0
0
POLYLINE
8
0
62
30
66
1
10
0
20
0
30
0
70
8
0
VERTEX
8
0
62
30
10
-0.15139504
20
0.87920689
30
0
70
32
0
VERTEX
8
0
62
30
10
0.018310589
20
0.87920689
30
0
70
32
0
SEQEND
8
0
0
POLYLINE
8
0
62
30
66
1
10
0
20
0
30
0
70
8
0
VERTEX
8
0
62
30
10
-0.15139504
20
0.83914943
30
0
70
32
0
VERTEX
8
0
62
30
10
0.018310589
20
0.83914943
30
0
70
32
0
SEQEND
8
0
0
POLYLINE
8
0
62
5
66
1
10
0
20
0
30
0
70
8
0
VERTEX
8
0
62
5
10
-0.15139504
20
0.83914943
30
0
70
32
0
VERTEX
8
0
62
5
10
-0.12599185
20
0.87920689
30
0
70
32
0
VERTEX
8
0
62
5
10
-0.10896863
20
0.83914943
30
0
70
32
0
VERTEX
8
0
62
5
10
-0.083565448
20
0.87920689
30
0
70
32
0
VERTEX
8
0
62
5
10
-0.066542225
20
0.83914943
30
0
70
32
0
VERTEX
8
0
62
5
10
-0.041139041
20
0.87920689
30
0
70
32
0
VERTEX
8
0
62
5
10
-0.024115818
20
0.83914943
30
0
70
32
0
VERTEX
8
0
62
5
10
0.0012873662
20
0.87920689
30
0
70
32
0
VERTEX
8
0
62
5
10
0.018310589
20
0.83914943
30
0
70
32
0
SEQEND
8
0
0
POLYLINE
8
0
62
5
66
1
10
0
20
0
30
0
70
8
0
VERTEX
8
0
62
5
10
-0.10896863
20
0.83914943
30
0
70
32
0
VERTEX
8
0
62
5
10
-0.10896863
20
0.83914943
30
0
70
32
0
SEQEND
8
0
0
POLYLINE
8
0
62
5
66
1
10
0
20
0
30
0
70
8
0
VERTEX
8
0
62
5
10
-0.066542225
20
0.83914943
30
0
70
32
0
VERTEX
8
0
62
5
10
-0.066542225
20
0.83914943
30
0
70
32
0
SEQEND
8
0
0
POLYLINE
8
0
62
5
66
1
10
0
20
0
30
0
70
8
0
VERTEX
8
0
62
5
10
-0.024115818
20
0.83914943
30
0
70
32
0
VERTEX
8
0
62
5
10
-0.024115818
20
0.83914943
30
0
70
32
0
SEQEND
8
0
0
POLYLINE
8
0
62
5
66
1
10
0
20
0
30
0
70
8
0
VERTEX
8
0
62
5
10
-0.12599185
20
0.87920689
30
0
70
32
0
VERTEX
8
0
62
5
10
-0.12599185
20
0.87920689
30
0
70
32
0
SEQEND
8
0
0
POLYLINE
8
0
62
5
66
1
10
0
20
0
30
0
70
8
0
VERTEX
8
0
62
5
10
-0.083565448
20
0.87920689
30
0
70
32
0
VERTEX
8
0
62
5
10
-0.083565448
20
0.87920689
30
0
70
32
0
SEQEND
8
0
0
POLYLINE
8
0
62
5
66
1
10
0
20
0
30
0
70
8
0
VERTEX
8
0
62
5
10
-0.041139041
20
0.87920689
30
0
70
32
0
VERTEX
8
0
62
5
10
-0.041139041
20
0.87920689
30
0
70
32
0
SEQEND
8
0
0
POLYLINE
8
0
62
5
66
1
10
0
20
0
30
0
70
8
0
VERTEX
8
0
62
5
10
0.0012873662
20
0.87920689
30
0
70
32
0
VERTEX
8
0
62
5
10
0.0012873662
20
0.87920689
30
0
70
32
0
SEQEND
8
0
0
POLYLINE
8
0
62
5
66
1
10
0
20
0
30
0
70
8
0
VERTEX
8
0
62
5
10
0.043713773
20
0.87920689
30
0
70
32
0
VERTEX
8
0
62
5
10
0.043713773
20
1.0357942
30
0
70
32
0
SEQEND
8
0
0
POLYLINE
8
0
62
5
66
1
10
0
20
0
30
0
70
8
0
VERTEX
8
0
62
5
10
0.2134194
20
0.87920689
30
0
70
32
0
VERTEX
8
0
62
5
10
0.2134194
20
1.0357942
30
0
70
32
0
SEQEND
8
0
0
POLYLINE
8
0
62
5
66
1
10
0
20
0
30
0
70
8
0
VERTEX
8
0
62
5
10
0.08614018
20
0.87920689
30
0
70
32
0
VERTEX
8
0
62
5
10
0.08614018
20
1.0357942
30
0
70
32
0
SEQEND
8
0
0
POLYLINE
8
0
62
5
66
1
10
0
20
0
30
0
70
8
0
VERTEX
8
0
62
5
10
0.12856659
20
0.87920689
30
0
70
32
0
VERTEX
8
0
62
5
10
0.12856659
20
1.0357942
30
0
70
32
0
SEQEND
8
0
0
POLYLINE
8
0
62
5
66
1
10
0
20
0
30
0
70
8
0
VERTEX
8
0
62
5
10
0.17099299
20
0.87920689
30
0
70
32
0
VERTEX
8
0
62
5
10
0.17099299
20
1.0357942
30
0
70
32
0
SEQEND
8
0
0
POLYLINE
8
0
62
5
66
1
10
0
20
0
30
0
70
8
0
VERTEX
8
0
62
5
10
0.38312503
20
0.87920689
30
0
70
32
0
VERTEX
8
0
62
5
10
0.38312503
20
1.0357942
30
0
70
32
0
SEQEND
8
0
0
POLYLINE
8
0
62
5
66
1
10
0
20
0
30
0
70
8
0
VERTEX
8
0
62
5
10
0.25584581
20
0.87920689
30
0
70
32
0
VERTEX
8
0
62
5
10
0.25584581
20
1.0357942
30
0
70
32
0
SEQEND
8
0
0
POLYLINE
8
0
62
5
66
1
10
0
20
0
30
0
70
8
0
VERTEX
8
0
62
5
10
0.29827221
20
0.87920689
30
0
70
32
0
VERTEX
8
0
62
5
10
0.29827221
20
1.0357942
30
0
70
32
0
SEQEND
8
0
0
POLYLINE
8
0
62
5
66
1
10
0
20
0
30
0
70
8
0
VERTEX
8
0
62
5
10
0.34069862
20
0.87920689
30
0
70
32
0
VERTEX
8
0
62
5
10
0.34069862
20
1.0357942
30
0
70
32
0
SEQEND
8
0
0
POLYLINE
8
0
62
5
66
1
10
0
20
0
30
0
70
8
0
VERTEX
8
0
62
5
10
-0.12599185
20
0.87920689
30
0
70
32
0
VERTEX
8
0
62
5
10
-0.12599185
20
1.0357942
30
0
70
32
0
SEQEND
8
0
0
POLYLINE
8
0
62
5
66
1
10
0
20
0
30
0
70
8
0
VERTEX
8
0
62
5
10
-0.083565448
20
0.87920689
30
0
70
32
0
VERTEX
8
0
62
5
10
-0.083565448
20
1.0357942
30
0
70
32
0
SEQEND
8
0
0
POLYLINE
8
0
62
5
66
1
10
0
20
0
30
0
70
8
0
VERTEX
8
0
62
5
10
-0.041139041
20
0.87920689
30
0
70
32
0
VERTEX
8
0
62
5
10
-0.041139041
20
1.0357942
30
0
70
32
0
SEQEND
8
0
0
POLYLINE
8
0
62
5
66
1
10
0
20
0
30
0
70
8
0
VERTEX
8
0
62
5
10
0.0012873662
20
0.87920689
30
0
70
32
0
VERTEX
8
0
62
5
10
0.0012873662
20
1.0357942
30
0
70
32
0
SEQEND
8
0
0
POLYLINE
8
0
62
5
66
1
10
0
20
0
30
0
70
8
0
VERTEX
8
0
62
5
10
0.043713773
20
1.0357942
30
0
70
32
0
VERTEX
8
0
62
5
10
0.043713773
20
1.0729385
30
0
70
32
0
SEQEND
8
0
0
POLYLINE
8
0
62
5
66
1
10
0
20
0
30
0
70
8
0
VERTEX
8
0
62
5
10
0.2134194
20
1.0729385
30
0
70
32
0
VERTEX
8
0
62
5
10
0.2134194
20
1.0357942
30
0
70
32
0
SEQEND
8
0
0
POLYLINE
8
0
62
5
66
1
10
0
20
0
30
0
70
8
0
VERTEX
8
0
62
5
10
0.043713773
20
1.0420969
30
0
70
32
0
VERTEX
8
0
62
5
10
0.08614018
20
1.0363705
30
0
70
32
0
VERTEX
8
0
62
5
10
0.12856659
20
1.0486399
30
0
70
32
0
VERTEX
8
0
62
5
10
0.17099299
20
1.0543663
30
0
70
32
0
VERTEX
8
0
62
5
10
0.2134194
20
1.0420969
30
0
70
32
0
SEQEND
8
0
0
POLYLINE
8
0
62
5
66
1
10
0
20
0
30
0
70
8
0
SEQEND
8
0
0
POLYLINE
8
0
62
5
66
1
10
0
20
0
30
0
70
8
0
VERTEX
8
0
62
5
10
0.043713773
20
1.0666358
30
0
70
32
0
VERTEX
8
0
62
5
10
0.08614018
20
1.0723622
30
0
70
32
0
VERTEX
8
0
62
5
10
0.12856659
20
1.0600927
30
0
70
32
0
VERTEX
8
0
62
5
10
0.17099299
20
1.0543663
30
0
70
32
0
VERTEX
8
0
62
5
10
0.2134194
20
1.0666358
30
0
70
32
0
SEQEND
8
0
0
POLYLINE
8
0
62
30
66
1
10
0
20
0
30
0
70
8
0
VERTEX
8
0
62
30
10
0.043713773
20
1.0543663
30
0
70
32
0
VERTEX
8
0
62
30
10
0.2134194
20
1.0543663
30
0
70
32
0
SEQEND
8
0
0
POLYLINE
8
0
62
30
66
1
10
0
20
0
30
0
70
8
0
VERTEX
8
0
62
30
10
0.08614018
20
1.0363705
30
0
70
32
0
VERTEX
8
0
62
30
10
0.08614018
20
1.0543663
30
0
70
32
0
SEQEND
8
0
0
POLYLINE
8
0
62
30
66
1
10
0
20
0
30
0
70
8
0
VERTEX
8
0
62
30
10
0.12856659
20
1.0486399
30
0
70
32
0
VERTEX
8
0
62
30
10
0.12856659
20
1.0543663
30
0
70
32
0
SEQEND
8
0
0
POLYLINE
8
0
62
30
66
1
10
0
20
0
30
0
70
8
0
VERTEX
8
0
62
30
10
0.17099299
20
1.0543663
30
0
70
32
0
VERTEX
8
0
62
30
10
0.17099299
20
1.0543663
30
0
70
32
0
SEQEND
8
0
0
POLYLINE
8
0
62
5
66
1
10
0
20
0
30
0
70
8
0
VERTEX
8
0
62
5
10
0.08614018
20
1.0357942
30
0
70
32
0
VERTEX
8
0
62
5
10
0.08614018
20
1.0363705
30
0
70
32
0
SEQEND
8
0
0
POLYLINE
8
0
62
5
66
1
10
0
20
0
30
0
70
8
0
VERTEX
8
0
62
5
10
0.12856659
20
1.0357942
30
0
70
32
0
VERTEX
8
0
62
5
10
0.12856659
20
1.0486399
30
0
70
32
0
SEQEND
8
0
0
POLYLINE
8
0
62
5
66
1
10
0
20
0
30
0
70
8
0
VERTEX
8
0
62
5
10
0.17099299
20
1.0357942
30
0
70
32
0
VERTEX
8
0
62
5
10
0.17099299
20
1.0543663
30
0
70
32
0
SEQEND
8
0
0
POLYLINE
8
0
62
5
66
1
10
0
20
0
30
0
70
8
0
VERTEX
8
0
62
5
10
0.08614018
20
1.0543663
30
0
70
32
0
VERTEX
8
0
62
5
10
0.08614018
20
1.0729385
30
0
70
32
0
SEQEND
8
0
0
POLYLINE
8
0
62
5
66
1
10
0
20
0
30
0
70
8
0
VERTEX
8
0
62
5
10
0.12856659
20
1.0543663
30
0
70
32
0
VERTEX
8
0
62
5
10
0.12856659
20
1.0729385
30
0
70
32
0
SEQEND
8
0
0
POLYLINE
8
0
62
5
66
1
10
0
20
0
30
0
70
8
0
VERTEX
8
0
62
5
10
0.17099299
20
1.0543663
30
0
70
32
0
VERTEX
8
0
62
5
10
0.17099299
20
1.0729385
30
0
70
32
0
SEQEND
8
0
0
POLYLINE
8
0
62
5
66
1
10
0
20
0
30
0
70
8
0
VERTEX
8
0
62
5
10
0.38312503
20
1.0729385
30
0
70
32
0
VERTEX
8
0
62
5
10
0.38312503
20
1.0357942
30
0
70
32
0
SEQEND
8
0
0
POLYLINE
8
0
62
5
66
1
10
0
20
0
30
0
70
8
0
VERTEX
8
0
62
5
10
0.2134194
20
1.0420969
30
0
70
32
0
VERTEX
8
0
62
5
10
0.25584581
20
1.0363705
30
0
70
32
0
VERTEX
8
0
62
5
10
0.29827221
20
1.0486399
30
0
70
32
0
VERTEX
8
0
62
5
10
0.34069862
20
1.0543663
30
0
70
32
0
VERTEX
8
0
62
5
10
0.38312503
20
1.0420969
30
0
70
32
0
SEQEND
8
0
0
POLYLINE
8
0
62
5
66
1
10
0
20
0
30
0
70
8
0
SEQEND
8
0
0
POLYLINE
8
0
62
5
66
1
10
0
20
0
30
0
70
8
0
VERTEX
8
0
62
5
10
0.2134194
20
1.0666358
30
0
70
32
0
VERTEX
8
0
62
5
10
0.25584581
20
1.0723622
30
0
70
32
0
VERTEX
8
0
62
5
10
0.29827221
20
1.0600927
30
0
70
32
0
VERTEX
8
0
62
5
10
0.34069862
20
1.0543663
30
0
70
32
0
VERTEX
8
0
62
5
10
0.38312503
20
1.0666358
30
0
70
32
0
SEQEND
8
0
0
POLYLINE
8
0
62
30
66
1
10
0
20
0
30
0
70
8
0
VERTEX
8
0
62
30
10
0.2134194
20
1.0543663
30
0
70
32
0
VERTEX
8
0
62
30
10
0.38312503
20
1.0543663
30
0
70
32
0
SEQEND
8
0
0
POLYLINE
8
0
62
30
66
1
10
0
20
0
30
0
70
8
0
VERTEX
8
0
62
30
10
0.25584581
20
1.0363705
30
0
70
32
0
VERTEX
8
0
62
30
10
0.25584581
20
1.0543663
30
0
70
32
0
SEQEND
8
0
0
POLYLINE
8
0
62
30
66
1
10
0
20
0
30
0
70
8
0
VERTEX
8
0
62
30
10
0.29827221
20
1.0486399
30
0
70
32
0
VERTEX
8
0
62
30
10
0.29827221
20
1.0543663
30
0
70
32
0
SEQEND
8
0
0
POLYLINE
8
0
62
30
66
1
10
0
20
0
30
0
70
8
0
VERTEX
8
0
62
30
10
0.34069862
20
1.0543663
30
0
70
32
0
VERTEX
8
0
62
30
10
0.34069862
20
1.0543663
30
0
70
32
0
SEQEND
8
0
0
POLYLINE
8
0
62
5
66
1
10
0
20
0
30
0
70
8
0
VERTEX
8
0
62
5
10
0.25584581
20
1.0357942
30
0
70
32
0
VERTEX
8
0
62
5
10
0.25584581
20
1.0363705
30
0
70
32
0
SEQEND
8
0
0
POLYLINE
8
0
62
5
66
1
10
0
20
0
30
0
70
8
0
VERTEX
8
0
62
5
10
0.29827221
20
1.0357942
30
0
70
32
0
VERTEX
8
0
62
5
10
0.29827221
20
1.0486399
30
0
70
32
0
SEQEND
8
0
0
POLYLINE
8
0
62
5
66
1
10
0
20
0
30
0
70
8
0
VERTEX
8
0
62
5
10
0.34069862
20
1.0357942
30
0
70
32
0
VERTEX
8
0
62
5
10
0.34069862
20
1.0543663
30
0
70
32
0
SEQEND
8
0
0
POLYLINE
8
0
62
5
66
1
10
0
20
0
30
0
70
8
0
VERTEX
8
0
62
5
10
0.25584581
20
1.0543663
30
0
70
32
0
VERTEX
8
0
62
5
10
0.25584581
20
1.0729385
30
0
70
32
0
SEQEND
8
0
0
POLYLINE
8
0
62
5
66
1
10
0
20
0
30
0
70
8
0
VERTEX
8
0
62
5
10
0.29827221
20
1.0543663
30
0
70
32
0
VERTEX
8
0
62
5
10
0.29827221
20
1.0729385
30
0
70
32
0
SEQEND
8
0
0
POLYLINE
8
0
62
5
66
1
10
0
20
0
30
0
70
8
0
VERTEX
8
0
62
5
10
0.34069862
20
1.0543663
30
0
70
32
0
VERTEX
8
0
62
5
10
0.34069862
20
1.0729385
30
0
70
32
0
SEQEND
8
0
0
POLYLINE
8
0
62
5
66
1
10
0
20
0
30
0
70
8
0
VERTEX
8
0
62
5
10
-0.12599185
20
1.0357942
30
0
70
32
0
VERTEX
8
0
62
5
10
-0.12599185
20
1.0729385
30
0
70
32
0
SEQEND
8
0
0
POLYLINE
8
0
62
5
66
1
10
0
20
0
30
0
70
8
0
VERTEX
8
0
62
5
10
-0.12599185
20
1.0420969
30
0
70
32
0
VERTEX
8
0
62
5
10
-0.083565448
20
1.0363705
30
0
70
32
0
VERTEX
8
0
62
5
10
-0.041139041
20
1.0486399
30
0
70
32
0
VERTEX
8
0
62
5
10
0.0012873662
20
1.0543663
30
0
70
32
0
VERTEX
8
0
62
5
10
0.043713773
20
1.0420969
30
0
70
32
0
SEQEND
8
0
0
POLYLINE
8
0
62
5
66
1
10
0
20
0
30
0
70
8
0
SEQEND
8
0
0
POLYLINE
8
0
62
5
66
1
10
0
20
0
30
0
70
8
0
VERTEX
8
0
62
5
10
-0.12599185
20
1.0666358
30
0
70
32
0
VERTEX
8
0
62
5
10
-0.083565448
20
1.0723622
30
0
70
32
0
VERTEX
8
0
62
5
10
-0.041139041
20
1.0600927
30
0
70
32
0
VERTEX
8
0
62
5
10
0.0012873662
20
1.0543663
30
0
70
32
0
VERTEX
8
0
62
5
10
0.043713773
20
1.0666358
30
0
70
32
0
SEQEND
8
0
0
POLYLINE
8
0
62
30
66
1
10
0
20
0
30
0
70
8
0
VERTEX
8
0
62
30
10
-0.12599185
20
1.0543663
30
0
70
32
0
VERTEX
8
0
62
30
10
0.043713773
20
1.0543663
30
0
70
32
0
SEQEND
8
0
0
POLYLINE
8
0
62
30
66
1
10
0
20
0
30
0
70
8
0
VERTEX
8
0
62
30
10
-0.083565448
20
1.0363705
30
0
70
32
0
VERTEX
8
0
62
30
10
-0.083565448
20
1.0543663
30
0
70
32
0
SEQEND
8
0
0
POLYLINE
8
0
62
30
66
1
10
0
20
0
30
0
70
8
0
VERTEX
8
0
62
30
10
-0.041139041
20
1.0486399
30
0
70
32
0
VERTEX
8
0
62
30
10
-0.041139041
20
1.0543663
30
0
70
32
0
SEQEND
8
0
0
POLYLINE
8
0
62
30
66
1
10
0
20
0
30
0
70
8
0
VERTEX
8
0
62
30
10
0.0012873662
20
1.0543663
30
0
70
32
0
VERTEX
8
0
62
30
10
0.0012873662
20
1.0543663
30
0
70
32
0
SEQEND
8
0
0
POLYLINE
8
0
62
5
66
1
10
0
20
0
30
0
70
8
0
VERTEX
8
0
62
5
10
-0.083565448
20
1.0357942
30
0
70
32
0
VERTEX
8
0
62
5
10
-0.083565448
20
1.0363705
30
0
70
32
0
SEQEND
8
0
0
POLYLINE
8
0
62
5
66
1
10
0
20
0
30
0
70
8
0
VERTEX
8
0
62
5
10
-0.041139041
20
1.0357942
30
0
70
32
0
VERTEX
8
0
62
5
10
-0.041139041
20
1.0486399
30
0
70
32
0
SEQEND
8
0
0
POLYLINE
8
0
62
5
66
1
10
0
20
0
30
0
70
8
0
VERTEX
8
0
62
5
10
0.0012873662
20
1.0357942
30
0
70
32
0
VERTEX
8
0
62
5
10
0.0012873662
20
1.0543663
30
0
70
32
0
SEQEND
8
0
0
POLYLINE
8
0
62
5
66
1
10
0
20
0
30
0
70
8
0
VERTEX
8
0
62
5
10
-0.083565448
20
1.0543663
30
0
70
32
0
VERTEX
8
0
62
5
10
-0.083565448
20
1.0729385
30
0
70
32
0
SEQEND
8
0
0
POLYLINE
8
0
62
5
66
1
10
0
20
0
30
0
70
8
0
VERTEX
8
0
62
5
10
-0.041139041
20
1.0543663
30
0
70
32
0
VERTEX
8
0
62
5
10
-0.041139041
20
1.0729385
30
0
70
32
0
SEQEND
8
0
0
POLYLINE
8
0
62
5
66
1
10
0
20
0
30
0
70
8
0
VERTEX
8
0
62
5
10
0.0012873662
20
1.0543663
30
0
70
32
0
VERTEX
8
0
62
5
10
0.0012873662
20
1.0729385
30
0
70
32
0
SEQEND
8
0
0
POLYLINE
8
0
62
5
66
1
10
0
20
0
30
0
70
8
0
VERTEX
8
0
62
5
10
0.043713773
20
1.0729385
30
0
70
32
0
VERTEX
8
0
62
5
10
0.043713773
20
1.1329385
30
0
70
32
0
SEQEND
8
0
0
POLYLINE
8
0
62
5
66
1
10
0
20
0
30
0
70
8
0
VERTEX
8
0
62
5
10
0.2134194
20
1.1329385
30
0
70
32
0
VERTEX
8
0
62
5
10
0.2134194
20
1.0729385
30
0
70
32
0
SEQEND
8
0
0
POLYLINE
8
0
62
5
66
1
10
0
20
0
30
0
70
8
0
VERTEX
8
0
62
5
10
0.043713773
20
1.0729385
30
0
70
32
0
VERTEX
8
0
62
5
10
0.2134194
20
1.0729385
30
0
70
32
0
SEQEND
8
0
0
POLYLINE
8
0
62
5
66
1
10
0
20
0
30
0
70
8
0
VERTEX
8
0
62
5
10
0.043713773
20
1.1329385
30
0
70
32
0
VERTEX
8
0
62
5
10
0.2134194
20
1.1329385
30
0
70
32
0
SEQEND
8
0
0
POLYLINE
8
0
62
5
66
1
10
0
20
0
30
0
70
8
0
VERTEX
8
0
62
5
10
0.08614018
20
1.0729385
30
0
70
32
0
VERTEX
8
0
62
5
10
0.08614018
20
1.0729385
30
0
70
32
0
SEQEND
8
0
0
POLYLINE
8
0
62
5
66
1
10
0
20
0
30
0
70
8
0
VERTEX
8
0
62
5
10
0.12856659
20
1.0729385
30
0
70
32
0
VERTEX
8
0
62
5
10
0.12856659
20
1.0729385
30
0
70
32
0
SEQEND
8
0
0
POLYLINE
8
0
62
5
66
1
10
0
20
0
30
0
70
8
0
VERTEX
8
0
62
5
10
0.17099299
20
1.0729385
30
0
70
32
0
VERTEX
8
0
62
5
10
0.17099299
20
1.0729385
30
0
70
32
0
SEQEND
8
0
0
POLYLINE
8
0
62
5
66
1
10
0
20
0
30
0
70
8
0
VERTEX
8
0
62
5
10
0.08614018
20
1.1329385
30
0
70
32
0
VERTEX
8
0
62
5
10
0.08614018
20
1.1329385
30
0
70
32
0
SEQEND
8
0
0
POLYLINE
8
0
62
5
66
1
10
0
20
0
30
0
70
8
0
VERTEX
8
0
62
5
10
0.12856659
20
1.1329385
30
0
70
32
0
VERTEX
8
0
62
5
10
0.12856659
20
1.1329385
30
0
70
32
0
SEQEND
8
0
0
POLYLINE
8
0
62
5
66
1
10
0
20
0
30
0
70
8
0
VERTEX
8
0
62
5
10
0.17099299
20
1.1329385
30
0
70
32
0
VERTEX
8
0
62
5
10
0.17099299
20
1.1329385
30
0
70
32
0
SEQEND
8
0
0
POLYLINE
8
0
62
30
66
1
10
0
20
0
30
0
70
8
0
VERTEX
8
0
62
30
10
0.043713773
20
1.1329385
30
0
70
32
0
VERTEX
8
0
62
30
10
0.08614018
20
1.0729385
30
0
70
32
0
SEQEND
8
0
0
POLYLINE
8
0
62
30
66
1
10
0
20
0
30
0
70
8
0
VERTEX
8
0
62
30
10
0.08614018
20
1.1329385
30
0
70
32
0
VERTEX
8
0
62
30
10
0.043713773
20
1.0729385
30
0
70
32
0
SEQEND
8
0
0
POLYLINE
8
0
62
30
66
1
10
0
20
0
30
0
70
8
0
VERTEX
8
0
62
30
10
0.12856659
20
1.1329385
30
0
70
32
0
VERTEX
8
0
62
30
10
0.17099299
20
1.0729385
30
0
70
32
0
SEQEND
8
0
0
POLYLINE
8
0
62
30
66
1
10
0
20
0
30
0
70
8
0
VERTEX
8
0
62
30
10
0.17099299
20
1.1329385
30
0
70
32
0
VERTEX
8
0
62
30
10
0.12856659
20
1.0729385
30
0
70
32
0
SEQEND
8
0
0
POLYLINE
8
0
62
30
66
1
10
0
20
0
30
0
70
8
0
VERTEX
8
0
62
30
10
0.08614018
20
1.1029385
30
0
70
32
0
VERTEX
8
0
62
30
10
0.12856659
20
1.1029385
30
0
70
32
0
SEQEND
8
0
0
POLYLINE
8
0
62
30
66
1
10
0
20
0
30
0
70
8
0
VERTEX
8
0
62
30
10
0.17099299
20
1.1029385
30
0
70
32
0
VERTEX
8
0
62
30
10
0.2134194
20
1.1029385
30
0
70
32
0
SEQEND
8
0
0
POLYLINE
8
0
62
5
66
1
10
0
20
0
30
0
70
8
0
VERTEX
8
0
62
5
10
0.043713773
20
1.1029385
30
0
70
32
0
VERTEX
8
0
62
5
10
0.064926976
20
1.1029385
30
0
70
32
0
SEQEND
8
0
0
POLYLINE
8
0
62
5
66
1
10
0
20
0
30
0
70
8
0
VERTEX
8
0
62
5
10
0.12856659
20
1.1029385
30
0
70
32
0
VERTEX
8
0
62
5
10
0.14977979
20
1.1029385
30
0
70
32
0
SEQEND
8
0
0
POLYLINE
8
0
62
5
66
1
10
0
20
0
30
0
70
8
0
VERTEX
8
0
62
5
10
0.064926976
20
1.1029385
30
0
70
32
0
VERTEX
8
0
62
5
10
0.08614018
20
1.1029385
30
0
70
32
0
SEQEND
8
0
0
POLYLINE
8
0
62
5
66
1
10
0
20
0
30
0
70
8
0
VERTEX
8
0
62
5
10
0.14977979
20
1.1029385
30
0
70
32
0
VERTEX
8
0
62
5
10
0.17099299
20
1.1029385
30
0
70
32
0
SEQEND
8
0
0
POLYLINE
8
0
62
5
66
1
10
0
20
0
30
0
70
8
0
VERTEX
8
0
62
5
10
0.08614018
20
1.0729385
30
0
70
32
0
VERTEX
8
0
62
5
10
0.08614018
20
1.1329385
30
0
70
32
0
SEQEND
8
0
0
POLYLINE
8
0
62
5
66
1
10
0
20
0
30
0
70
8
0
VERTEX
8
0
62
5
10
0.12856659
20
1.0729385
30
0
70
32
0
VERTEX
8
0
62
5
10
0.12856659
20
1.1329385
30
0
70
32
0
SEQEND
8
0
0
POLYLINE
8
0
62
5
66
1
10
0
20
0
30
0
70
8
0
VERTEX
8
0
62
5
10
0.17099299
20
1.0729385
30
0
70
32
0
VERTEX
8
0
62
5
10
0.17099299
20
1.1329385
30
0
70
32
0
SEQEND
8
0
0
POLYLINE
8
0
62
5
66
1
10
0
20
0
30
0
70
8
0
VERTEX
8
0
62
5
10
0.043713773
20
1.0729385
30
0
70
32
0
VERTEX
8
0
62
5
10
0.043713773
20
1.1329385
30
0
70
32
0
SEQEND
8
0
0
POLYLINE
8
0
62
5
66
1
10
0
20
0
30
0
70
8
0
VERTEX
8
0
62
5
10
0.38312503
20
1.1329385
30
0
70
32
0
VERTEX
8
0
62
5
10
0.38312503
20
1.0729385
30
0
70
32
0
SEQEND
8
0
0
POLYLINE
8
0
62
5
66
1
10
0
20
0
30
0
70
8
0
VERTEX
8
0
62
5
10
0.2134194
20
1.0729385
30
0
70
32
0
VERTEX
8
0
62
5
10
0.38312503
20
1.0729385
30
0
70
32
0
SEQEND
8
0
0
POLYLINE
8
0
62
5
66
1
10
0
20
0
30
0
70
8
0
VERTEX
8
0
62
5
10
0.2134194
20
1.1329385
30
0
70
32
0
VERTEX
8
0
62
5
10
0.38312503
20
1.1329385
30
0
70
32
0
SEQEND
8
0
0
POLYLINE
8
0
62
5
66
1
10
0
20
0
30
0
70
8
0
VERTEX
8
0
62
5
10
0.25584581
20
1.0729385
30
0
70
32
0
VERTEX
8
0
62
5
10
0.25584581
20
1.0729385
30
0
70
32
0
SEQEND
8
0
0
POLYLINE
8
0
62
5
66
1
10
0
20
0
30
0
70
8
0
VERTEX
8
0
62
5
10
0.29827221
20
1.0729385
30
0
70
32
0
VERTEX
8
0
62
5
10
0.29827221
20
1.0729385
30
0
70
32
0
SEQEND
8
0
0
POLYLINE
8
0
62
5
66
1
10
0
20
0
30
0
70
8
0
VERTEX
8
0
62
5
10
0.34069862
20
1.0729385
30
0
70
32
0
VERTEX
8
0
62
5
10
0.34069862
20
1.0729385
30
0
70
32
0
SEQEND
8
0
0
POLYLINE
8
0
62
5
66
1
10
0
20
0
30
0
70
8
0
VERTEX
8
0
62
5
10
0.25584581
20
1.1329385
30
0
70
32
0
VERTEX
8
0
62
5
10
0.25584581
20
1.1329385
30
0
70
32
0
SEQEND
8
0
0
POLYLINE
8
0
62
5
66
1
10
0
20
0
30
0
70
8
0
VERTEX
8
0
62
5
10
0.29827221
20
1.1329385
30
0
70
32
0
VERTEX
8
0
62
5
10
0.29827221
20
1.1329385
30
0
70
32
0
SEQEND
8
0
0
POLYLINE
8
0
62
5
66
1
10
0
20
0
30
0
70
8
0
VERTEX
8
0
62
5
10
0.34069862
20
1.1329385
30
0
70
32
0
VERTEX
8
0
62
5
10
0.34069862
20
1.1329385
30
0
70
32
0
SEQEND
8
0
0
POLYLINE
8
0
62
30
66
1
10
0
20
0
30
0
70
8
0
VERTEX
8
0
62
30
10
0.2134194
20
1.1329385
30
0
70
32
0
VERTEX
8
0
62
30
10
0.25584581
20
1.0729385
30
0
70
32
0
SEQEND
8
0
0
POLYLINE
8
0
62
30
66
1
10
0
20
0
30
0
70
8
0
VERTEX
8
0
62
30
10
0.25584581
20
1.1329385
30
0
70
32
0
VERTEX
8
0
62
30
10
0.2134194
20
1.0729385
30
0
70
32
0
SEQEND
8
0
0
POLYLINE
8
0
62
30
66
1
10
0
20
0
30
0
70
8
0
VERTEX
8
0
62
30
10
0.29827221
20
1.1329385
30
0
70
32
0
VERTEX
8
0
62
30
10
0.34069862
20
1.0729385
30
0
70
32
0
SEQEND
8
0
0
POLYLINE
8
0
62
30
66
1
10
0
20
0
30
0
70
8
0
VERTEX
8
0
62
30
10
0.34069862
20
1.1329385
30
0
70
32
0
VERTEX
8
0
62
30
10
0.29827221
20
1.0729385
30
0
70
32
0
SEQEND
8
0
0
POLYLINE
8
0
62
30
66
1
10
0
20
0
30
0
70
8
0
VERTEX
8
0
62
30
10
0.25584581
20
1.1029385
30
0
70
32
0
VERTEX
8
0
62
30
10
0.29827221
20
1.1029385
30
0
70
32
0
SEQEND
8
0
0
POLYLINE
8
0
62
30
66
1
10
0
20
0
30
0
70
8
0
VERTEX
8
0
62
30
10
0.34069862
20
1.1029385
30
0
70
32
0
VERTEX
8
0
62
30
10
0.38312503
20
1.1029385
30
0
70
32
0
SEQEND
8
0
0
POLYLINE
8
0
62
5
66
1
10
0
20
0
30
0
70
8
0
VERTEX
8
0
62
5
10
0.2134194
20
1.1029385
30
0
70
32
0
VERTEX
8
0
62
5
10
0.2346326
20
1.1029385
30
0
70
32
0
SEQEND
8
0
0
POLYLINE
8
0
62
5
66
1
10
0
20
0
30
0
70
8
0
VERTEX
8
0
62
5
10
0.29827221
20
1.1029385
30
0
70
32
0
VERTEX
8
0
62
5
10
0.31948542
20
1.1029385
30
0
70
32
0
SEQEND
8
0
0
POLYLINE
8
0
62
5
66
1
10
0
20
0
30
0
70
8
0
VERTEX
8
0
62
5
10
0.2346326
20
1.1029385
30
0
70
32
0
VERTEX
8
0
62
5
10
0.25584581
20
1.1029385
30
0
70
32
0
SEQEND
8
0
0
POLYLINE
8
0
62
5
66
1
10
0
20
0
30
0
70
8
0
VERTEX
8
0
62
5
10
0.31948542
20
1.1029385
30
0
70
32
0
VERTEX
8
0
62
5
10
0.34069862
20
1.1029385
30
0
70
32
0
SEQEND
8
0
0
POLYLINE
8
0
62
5
66
1
10
0
20
0
30
0
70
8
0
VERTEX
8
0
62
5
10
0.25584581
20
1.0729385
30
0
70
32
0
VERTEX
8
0
62
5
10
0.25584581
20
1.1329385
30
0
70
32
0
SEQEND
8
0
0
POLYLINE
8
0
62
5
66
1
10
0
20
0
30
0
70
8
0
VERTEX
8
0
62
5
10
0.29827221
20
1.0729385
30
0
70
32
0
VERTEX
8
0
62
5
10
0.29827221
20
1.1329385
30
0
70
32
0
SEQEND
8
0
0
POLYLINE
8
0
62
5
66
1
10
0
20
0
30
0
70
8
0
VERTEX
8
0
62
5
10
0.34069862
20
1.0729385
30
0
70
32
0
VERTEX
8
0
62
5
10
0.34069862
20
1.1329385
30
0
70
32
0
SEQEND
8
0
0
POLYLINE
8
0
62
5
66
1
10
0
20
0
30
0
70
8
0
VERTEX
8
0
62
5
10
0.2134194
20
1.0729385
30
0
70
32
0
VERTEX
8
0
62
5
10
0.2134194
20
1.1329385
30
0
70
32
0
SEQEND
8
0
0
POLYLINE
8
0
62
5
66
1
10
0
20
0
30
0
70
8
0
VERTEX
8
0
62
5
10
-0.12599185
20
1.0729385
30
0
70
32
0
VERTEX
8
0
62
5
10
-0.12599185
20
1.1329385
30
0
70
32
0
SEQEND
8
0
0
POLYLINE
8
0
62
5
66
1
10
0
20
0
30
0
70
8
0
VERTEX
8
0
62
5
10
-0.12599185
20
1.0729385
30
0
70
32
0
VERTEX
8
0
62
5
10
0.043713773
20
1.0729385
30
0
70
32
0
SEQEND
8
0
0
POLYLINE
8
0
62
5
66
1
10
0
20
0
30
0
70
8
0
VERTEX
8
0
62
5
10
-0.12599185
20
1.1329385
30
0
70
32
0
VERTEX
8
0
62
5
10
0.043713773
20
1.1329385
30
0
70
32
0
SEQEND
8
0
0
POLYLINE
8
0
62
5
66
1
10
0
20
0
30
0
70
8
0
VERTEX
8
0
62
5
10
-0.083565448
20
1.0729385
30
0
70
32
0
VERTEX
8
0
62
5
10
-0.083565448
20
1.0729385
30
0
70
32
0
SEQEND
8
0
0
POLYLINE
8
0
62
5
66
1
10
0
20
0
30
0
70
8
0
VERTEX
8
0
62
5
10
-0.041139041
20
1.0729385
30
0
70
32
0
VERTEX
8
0
62
5
10
-0.041139041
20
1.0729385
30
0
70
32
0
SEQEND
8
0
0
POLYLINE
8
0
62
5
66
1
10
0
20
0
30
0
70
8
0
VERTEX
8
0
62
5
10
0.0012873662
20
1.0729385
30
0
70
32
0
VERTEX
8
0
62
5
10
0.0012873662
20
1.0729385
30
0
70
32
0
SEQEND
8
0
0
POLYLINE
8
0
62
5
66
1
10
0
20
0
30
0
70
8
0
VERTEX
8
0
62
5
10
-0.083565448
20
1.1329385
30
0
70
32
0
VERTEX
8
0
62
5
10
-0.083565448
20
1.1329385
30
0
70
32
0
SEQEND
8
0
0
POLYLINE
8
0
62
5
66
1
10
0
20
0
30
0
70
8
0
VERTEX
8
0
62
5
10
-0.041139041
20
1.1329385
30
0
70
32
0
VERTEX
8
0
62
5
10
-0.041139041
20
1.1329385
30
0
70
32
0
SEQEND
8
0
0
POLYLINE
8
0
62
5
66
1
10
0
20
0
30
0
70
8
0
VERTEX
8
0
62
5
10
0.0012873662
20
1.1329385
30
0
70
32
0
VERTEX
8
0
62
5
10
0.0012873662
20
1.1329385
30
0
70
32
0
SEQEND
8
0
0
POLYLINE
8
0
62
30
66
1
10
0
20
0
30
0
70
8
0
VERTEX
8
0
62
30
10
-0.12599185
20
1.1329385
30
0
70
32
0
VERTEX
8
0
62
30
10
-0.083565448
20
1.0729385
30
0
70
32
0
SEQEND
8
0
0
POLYLINE
8
0
62
30
66
1
10
0
20
0
30
0
70
8
0
VERTEX
8
0
62
30
10
-0.083565448
20
1.1329385
30
0
70
32
0
VERTEX
8
0
62
30
10
-0.12599185
20
1.0729385
30
0
70
32
0
SEQEND
8
0
0
POLYLINE
8
0
62
30
66
1
10
0
20
0
30
0
70
8
0
VERTEX
8
0
62
30
10
-0.041139041
20
1.1329385
30
0
70
32
0
VERTEX
8
0
62
30
10
0.0012873662
20
1.0729385
30
0
70
32
0
SEQEND
8
0
0
POLYLINE
8
0
62
30
66
1
10
0
20
0
30
0
70
8
0
VERTEX
8
0
62
30
10
0.0012873662
20
1.1329385
30
0
70
32
0
VERTEX
8
0
62
30
10
-0.041139041
20
1.0729385
30
0
70
32
0
SEQEND
8
0
0
POLYLINE
8
0
62
30
66
1
10
0
20
0
30
0
70
8
0
VERTEX
8
0
62
30
10
-0.083565448
20
1.1029385
30
0
70
32
0
VERTEX
8
0
62
30
10
-0.041139041
20
1.1029385
30
0
70
32
0
SEQEND
8
0
0
POLYLINE
8
0
62
30
66
1
10
0
20
0
30
0
70
8
0
VERTEX
8
0
62
30
10
0.0012873662
20
1.1029385
30
0
70
32
0
VERTEX
8
0
62
30
10
0.043713773
20
1.1029385
30
0
70
32
0
SEQEND
8
0
0
POLYLINE
8
0
62
5
66
1
10
0
20
0
30
0
70
8
0
VERTEX
8
0
62
5
10
-0.12599185
20
1.1029385
30
0
70
32
0
VERTEX
8
0
62
5
10
-0.10477865
20
1.1029385
30
0
70
32
0
SEQEND
8
0
0
POLYLINE
8
0
62
5
66
1
10
0
20
0
30
0
70
8
0
VERTEX
8
0
62
5
10
-0.041139041
20
1.1029385
30
0
70
32
0
VERTEX
8
0
62
5
10
-0.019925837
20
1.1029385
30
0
70
32
0
SEQEND
8
0
0
POLYLINE
8
0
62
5
66
1
10
0
20
0
30
0
70
8
0
VERTEX
8
0
62
5
10
-0.10477865
20
1.1029385
30
0
70
32
0
VERTEX
8
0
62
5
10
-0.083565448
20
1.1029385
30
0
70
32
0
SEQEND
8
0
0
POLYLINE
8
0
62
5
66
1
10
0
20
0
30
0
70
8
0
VERTEX
8
0
62
5
10
-0.019925837
20
1.1029385
30
0
70
32
0
VERTEX
8
0
62
5
10
0.0012873662
20
1.1029385
30
0
70
32
0
SEQEND
8
0
0
POLYLINE
8
0
62
5
66
1
10
0
20
0
30
0
70
8
0
VERTEX
8
0
62
5
10
-0.083565448
20
1.0729385
30
0
70
32
0
VERTEX
8
0
62
5
10
-0.083565448
20
1.1329385
30
0
70
32
0
SEQEND
8
0
0
POLYLINE
8
0
62
5
66
1
10
0
20
0
30
0
70
8
0
VERTEX
8
0
62
5
10
-0.041139041
20
1.0729385
30
0
70
32
0
VERTEX
8
0
62
5
10
-0.041139041
20
1.1329385
30
0
70
32
0
SEQEND
8
0
0
POLYLINE
8
0
62
5
66
1
10
0
20
0
30
0
70
8
0
VERTEX
8
0
62
5
10
0.0012873662
20
1.0729385
30
0
70
32
0
VERTEX
8
0
62
5
10
0.0012873662
20
1.1329385
30
0
70
32
0
SEQEND
8
0
0
POLYLINE
8
0
62
5
66
1
10
0
20
0
30
0
70
8
0
VERTEX
8
0
62
5
10
-0.12599185
20
1.0729385
30
0
70
32
0
VERTEX
8
0
62
5
10
-0.12599185
20
1.1329385
30
0
70
32
0
SEQEND
8
0
0
POLYLINE
8
0
62
5
66
1
10
0
20
0
30
0
70
8
0
VERTEX
8
0
62
5
10
0.043713773
20
1.1329385
30
0
70
32
0
VERTEX
8
0
62
5
10
0.043713773
20
1.3199384
30
0
70
32
0
SEQEND
8
0
0
POLYLINE
8
0
62
5
66
1
10
0
20
0
30
0
70
8
0
VERTEX
8
0
62
5
10
0.2134194
20
1.3199384
30
0
70
32
0
VERTEX
8
0
62
5
10
0.2134194
20
1.1329385
30
0
70
32
0
SEQEND
8
0
0
POLYLINE
8
0
62
5
66
1
10
0
20
0
30
0
70
8
0
VERTEX
8
0
62
5
10
0.043713773
20
1.1643553
30
0
70
32
0
VERTEX
8
0
62
5
10
0.08614018
20
1.1359758
30
0
70
32
0
VERTEX
8
0
62
5
10
0.12856659
20
1.1980589
30
0
70
32
0
VERTEX
8
0
62
5
10
0.17099299
20
1.2264385
30
0
70
32
0
VERTEX
8
0
62
5
10
0.2134194
20
1.1643553
30
0
70
32
0
SEQEND
8
0
0
POLYLINE
8
0
62
5
66
1
10
0
20
0
30
0
70
8
0
SEQEND
8
0
0
POLYLINE
8
0
62
5
66
1
10
0
20
0
30
0
70
8
0
VERTEX
8
0
62
5
10
0.043713773
20
1.2885216
30
0
70
32
0
VERTEX
8
0
62
5
10
0.08614018
20
1.3169011
30
0
70
32
0
VERTEX
8
0
62
5
10
0.12856659
20
1.254818
30
0
70
32
0
VERTEX
8
0
62
5
10
0.17099299
20
1.2264385
30
0
70
32
0
VERTEX
8
0
62
5
10
0.2134194
20
1.2885216
30
0
70
32
0
SEQEND
8
0
0
POLYLINE
8
0
62
30
66
1
10
0
20
0
30
0
70
8
0
VERTEX
8
0
62
30
10
0.043713773
20
1.2264385
30
0
70
32
0
VERTEX
8
0
62
30
10
0.2134194
20
1.2264385
30
0
70
32
0
SEQEND
8
0
0
POLYLINE
8
0
62
30
66
1
10
0
20
0
30
0
70
8
0
VERTEX
8
0
62
30
10
0.08614018
20
1.1359758
30
0
70
32
0
VERTEX
8
0
62
30
10
0.08614018
20
1.2264385
30
0
70
32
0
SEQEND
8
0
0
POLYLINE
8
0
62
30
66
1
10
0
20
0
30
0
70
8
0
VERTEX
8
0
62
30
10
0.12856659
20
1.1980589
30
0
70
32
0
VERTEX
8
0
62
30
10
0.12856659
20
1.2264385
30
0
70
32
0
SEQEND
8
0
0
POLYLINE
8
0
62
30
66
1
10
0
20
0
30
0
70
8
0
VERTEX
8
0
62
30
10
0.17099299
20
1.2264385
30
0
70
32
0
VERTEX
8
0
62
30
10
0.17099299
20
1.2264385
30
0
70
32
0
SEQEND
8
0
0
POLYLINE
8
0
62
5
66
1
10
0
20
0
30
0
70
8
0
VERTEX
8
0
62
5
10
0.08614018
20
1.1329385
30
0
70
32
0
VERTEX
8
0
62
5
10
0.08614018
20
1.1359758
30
0
70
32
0
SEQEND
8
0
0
POLYLINE
8
0
62
5
66
1
10
0
20
0
30
0
70
8
0
VERTEX
8
0
62
5
10
0.12856659
20
1.1329385
30
0
70
32
0
VERTEX
8
0
62
5
10
0.12856659
20
1.1980589
30
0
70
32
0
SEQEND
8
0
0
POLYLINE
8
0
62
5
66
1
10
0
20
0
30
0
70
8
0
VERTEX
8
0
62
5
10
0.17099299
20
1.1329385
30
0
70
32
0
VERTEX
8
0
62
5
10
0.17099299
20
1.2264385
30
0
70
32
0
SEQEND
8
0
0
POLYLINE
8
0
62
5
66
1
10
0
20
0
30
0
70
8
0
VERTEX
8
0
62
5
10
0.08614018
20
1.2264385
30
0
70
32
0
VERTEX
8
0
62
5
10
0.08614018
20
1.3199384
30
0
70
32
0
SEQEND
8
0
0
POLYLINE
8
0
62
5
66
1
10
0
20
0
30
0
70
8
0
VERTEX
8
0
62
5
10
0.12856659
20
1.2264385
30
0
70
32
0
VERTEX
8
0
62
5
10
0.12856659
20
1.3199384
30
0
70
32
0
SEQEND
8
0
0
POLYLINE
8
0
62
5
66
1
10
0
20
0
30
0
70
8
0
VERTEX
8
0
62
5
10
0.17099299
20
1.2264385
30
0
70
32
0
VERTEX
8
0
62
5
10
0.17099299
20
1.3199384
30
0
70
32
0
SEQEND
8
0
0
POLYLINE
8
0
62
5
66
1
10
0
20
0
30
0
70
8
0
VERTEX
8
0
62
5
10
0.38312503
20
1.3199384
30
0
70
32
0
VERTEX
8
0
62
5
10
0.38312503
20
1.1329385
30
0
70
32
0
SEQEND
8
0
0
POLYLINE
8
0
62
5
66
1
10
0
20
0
30
0
70
8
0
VERTEX
8
0
62
5
10
0.2134194
20
1.1643553
30
0
70
32
0
VERTEX
8
0
62
5
10
0.25584581
20
1.1359758
30
0
70
32
0
VERTEX
8
0
62
5
10
0.29827221
20
1.1980589
30
0
70
32
0
VERTEX
8
0
62
5
10
0.34069862
20
1.2264385
30
0
70
32
0
VERTEX
8
0
62
5
10
0.38312503
20
1.1643553
30
0
70
32
0
SEQEND
8
0
0
POLYLINE
8
0
62
5
66
1
10
0
20
0
30
0
70
8
0
SEQEND
8
0
0
POLYLINE
8
0
62
5
66
1
10
0
20
0
30
0
70
8
0
VERTEX
8
0
62
5
10
0.2134194
20
1.2885216
30
0
70
32
0
VERTEX
8
0
62
5
10
0.25584581
20
1.3169011
30
0
70
32
0
VERTEX
8
0
62
5
10
0.29827221
20
1.254818
30
0
70
32
0
VERTEX
8
0
62
5
10
0.34069862
20
1.2264385
30
0
70
32
0
VERTEX
8
0
62
5
10
0.38312503
20
1.2885216
30
0
70
32
0
SEQEND
8
0
0
POLYLINE
8
0
62
30
66
1
10
0
20
0
30
0
70
8
0
VERTEX
8
0
62
30
10
0.2134194
20
1.2264385
30
0
70
32
0
VERTEX
8
0
62
30
10
0.38312503
20
1.2264385
30
0
70
32
0
SEQEND
8
0
0
POLYLINE
8
0
62
30
66
1
10
0
20
0
30
0
70
8
0
VERTEX
8
0
62
30
10
0.25584581
20
1.1359758
30
0
70
32
0
VERTEX
8
0
62
30
10
0.25584581
20
1.2264385
30
0
70
32
0
SEQEND
8
0
0
POLYLINE
8
0
62
30
66
1
10
0
20
0
30
0
70
8
0
VERTEX
8
0
62
30
10
0.29827221
20
1.1980589
30
0
70
32
0
VERTEX
8
0
62
30
10
0.29827221
20
1.2264385
30
0
70
32
0
SEQEND
8
0
0
POLYLINE
8
0
62
30
66
1
10
0
20
0
30
0
70
8
0
VERTEX
8
0
62
30
10
0.34069862
20
1.2264385
30
0
70
32
0
VERTEX
8
0
62
30
10
0.34069862
20
1.2264385
30
0
70
32
0
SEQEND
8
0
0
POLYLINE
8
0
62
5
66
1
10
0
20
0
30
0
70
8
0
VERTEX
8
0
62
5
10
0.25584581
20
1.1329385
30
0
70
32
0
VERTEX
8
0
62
5
10
0.25584581
20
1.1359758
30
0
70
32
0
SEQEND
8
0
0
POLYLINE
8
0
62
5
66
1
10
0
20
0
30
0
70
8
0
VERTEX
8
0
62
5
10
0.29827221
20
1.1329385
30
0
70
32
0
VERTEX
8
0
62
5
10
0.29827221
20
1.1980589
30
0
70
32
0
SEQEND
8
0
0
POLYLINE
8
0
62
5
66
1
10
0
20
0
30
0
70
8
0
VERTEX
8
0
62
5
10
0.34069862
20
1.1329385
30
0
70
32
0
VERTEX
8
0
62
5
10
0.34069862
20
1.2264385
30
0
70
32
0
SEQEND
8
0
0
POLYLINE
8
0
62
5
66
1
10
0
20
0
30
0
70
8
0
VERTEX
8
0
62
5
10
0.25584581
20
1.2264385
30
0
70
32
0
VERTEX
8
0
62
5
10
0.25584581
20
1.3199384
30
0
70
32
0
SEQEND
8
0
0
POLYLINE
8
0
62
5
66
1
10
0
20
0
30
0
70
8
0
VERTEX
8
0
62
5
10
0.29827221
20
1.2264385
30
0
70
32
0
VERTEX
8
0
62
5
10
0.29827221
20
1.3199384
30
0
70
32
0
SEQEND
8
0
0
POLYLINE
8
0
62
5
66
1
10
0
20
0
30
0
70
8
0
VERTEX
8
0
62
5
10
0.34069862
20
1.2264385
30
0
70
32
0
VERTEX
8
0
62
5
10
0.34069862
20
1.3199384
30
0
70
32
0
SEQEND
8
0
0
POLYLINE
8
0
62
5
66
1
10
0
20
0
30
0
70
8
0
VERTEX
8
0
62
5
10
-0.12599185
20
1.1329385
30
0
70
32
0
VERTEX
8
0
62
5
10
-0.12599185
20
1.3199384
30
0
70
32
0
SEQEND
8
0
0
POLYLINE
8
0
62
5
66
1
10
0
20
0
30
0
70
8
0
VERTEX
8
0
62
5
10
-0.12599185
20
1.1643553
30
0
70
32
0
VERTEX
8
0
62
5
10
-0.083565448
20
1.1359758
30
0
70
32
0
VERTEX
8
0
62
5
10
-0.041139041
20
1.1980589
30
0
70
32
0
VERTEX
8
0
62
5
10
0.0012873662
20
1.2264385
30
0
70
32
0
VERTEX
8
0
62
5
10
0.043713773
20
1.1643553
30
0
70
32
0
SEQEND
8
0
0
POLYLINE
8
0
62
5
66
1
10
0
20
0
30
0
70
8
0
SEQEND
8
0
0
POLYLINE
8
0
62
5
66
1
10
0
20
0
30
0
70
8
0
VERTEX
8
0
62
5
10
-0.12599185
20
1.2885216
30
0
70
32
0
VERTEX
8
0
62
5
10
-0.083565448
20
1.3169011
30
0
70
32
0
VERTEX
8
0
62
5
10
-0.041139041
20
1.254818
30
0
70
32
0
VERTEX
8
0
62
5
10
0.0012873662
20
1.2264385
30
0
70
32
0
VERTEX
8
0
62
5
10
0.043713773
20
1.2885216
30
0
70
32
0
SEQEND
8
0
0
POLYLINE
8
0
62
30
66
1
10
0
20
0
30
0
70
8
0
VERTEX
8
0
62
30
10
-0.12599185
20
1.2264385
30
0
70
32
0
VERTEX
8
0
62
30
10
0.043713773
20
1.2264385
30
0
70
32
0
SEQEND
8
0
0
POLYLINE
8
0
62
30
66
1
10
0
20
0
30
0
70
8
0
VERTEX
8
0
62
30
10
-0.083565448
20
1.1359758
30
0
70
32
0
VERTEX
8
0
62
30
10
-0.083565448
20
1.2264385
30
0
70
32
0
SEQEND
8
0
0
POLYLINE
8
0
62
30
66
1
10
0
20
0
30
0
70
8
0
VERTEX
8
0
62
30
10
-0.041139041
20
1.1980589
30
0
70
32
0
VERTEX
8
0
62
30
10
-0.041139041
20
1.2264385
30
0
70
32
0
SEQEND
8
0
0
POLYLINE
8
0
62
30
66
1
10
0
20
0
30
0
70
8
0
VERTEX
8
0
62
30
10
0.0012873662
20
1.2264385
30
0
70
32
0
VERTEX
8
0
62
30
10
0.0012873662
20
1.2264385
30
0
70
32
0
SEQEND
8
0
0
POLYLINE
8
0
62
5
66
1
10
0
20
0
30
0
70
8
0
VERTEX
8
0
62
5
10
-0.083565448
20
1.1329385
30
0
70
32
0
VERTEX
8
0
62
5
10
-0.083565448
20
1.1359758
30
0
70
32
0
SEQEND
8
0
0
POLYLINE
8
0
62
5
66
1
10
0
20
0
30
0
70
8
0
VERTEX
8
0
62
5
10
-0.041139041
20
1.1329385
30
0
70
32
0
VERTEX
8
0
62
5
10
-0.041139041
20
1.1980589
30
0
70
32
0
SEQEND
8
0
0
POLYLINE
8
0
62
5
66
1
10
0
20
0
30
0
70
8
0
VERTEX
8
0
62
5
10
0.0012873662
20
1.1329385
30
0
70
32
0
VERTEX
8
0
62
5
10
0.0012873662
20
1.2264385
30
0
70
32
0
SEQEND
8
0
0
POLYLINE
8
0
62
5
66
1
10
0
20
0
30
0
70
8
0
VERTEX
8
0
62
5
10
-0.083565448
20
1.2264385
30
0
70
32
0
VERTEX
8
0
62
5
10
-0.083565448
20
1.3199384
30
0
70
32
0
SEQEND
8
0
0
POLYLINE
8
0
62
5
66
1
10
0
20
0
30
0
70
8
0
VERTEX
8
0
62
5
10
-0.041139041
20
1.2264385
30
0
70
32
0
VERTEX
8
0
62
5
10
-0.041139041
20
1.3199384
30
0
70
32
0
SEQEND
8
0
0
POLYLINE
8
0
62
5
66
1
10
0
20
0
30
0
70
8
0
VERTEX
8
0
62
5
10
0.0012873662
20
1.2264385
30
0
70
32
0
VERTEX
8
0
62
5
10
0.0012873662
20
1.3199384
30
0
70
32
0
SEQEND
8
0
0
POLYLINE
8
0
62
30
66
1
10
0
20
0
30
0
70
8
0
VERTEX
8
0
62
30
10
0.043713773
20
1.3378079
30
0
70
32
0
VERTEX
8
0
62
30
10
0.2134194
20
1.3378079
30
0
70
32
0
SEQEND
8
0
0
POLYLINE
8
0
62
30
66
1
10
0
20
0
30
0
70
8
0
VERTEX
8
0
62
30
10
0.043713773
20
1.3199384
30
0
70
32
0
VERTEX
8
0
62
30
10
0.2134194
20
1.3199384
30
0
70
32
0
SEQEND
8
0
0
POLYLINE
8
0
62
5
66
1
10
0
20
0
30
0
70
8
0
VERTEX
8
0
62
5
10
0.043713773
20
1.3199384
30
0
70
32
0
VERTEX
8
0
62
5
10
0.046668701
20
1.3378079
30
0
70
32
0
VERTEX
8
0
62
5
10
0.08614018
20
1.3199384
30
0
70
32
0
VERTEX
8
0
62
5
10
0.089095107
20
1.3378079
30
0
70
32
0
VERTEX
8
0
62
5
10
0.12856659
20
1.3199384
30
0
70
32
0
VERTEX
8
0
62
5
10
0.13152151
20
1.3378079
30
0
70
32
0
VERTEX
8
0
62
5
10
0.17099299
20
1.3199384
30
0
70
32
0
VERTEX
8
0
62
5
10
0.17394792
20
1.3378079
30
0
70
32
0
VERTEX
8
0
62
5
10
0.2134194
20
1.3199384
30
0
70
32
0
SEQEND
8
0
0
POLYLINE
8
0
62
5
66
1
10
0
20
0
30
0
70
8
0
VERTEX
8
0
62
5
10
0.08614018
20
1.3199384
30
0
70
32
0
VERTEX
8
0
62
5
10
0.08614018
20
1.3199384
30
0
70
32
0
SEQEND
8
0
0
POLYLINE
8
0
62
5
66
1
10
0
20
0
30
0
70
8
0
VERTEX
8
0
62
5
10
0.12856659
20
1.3199384
30
0
70
32
0
VERTEX
8
0
62
5
10
0.12856659
20
1.3199384
30
0
70
32
0
SEQEND
8
0
0
POLYLINE
8
0
62
5
66
1
10
0
20
0
30
0
70
8
0
VERTEX
8
0
62
5
10
0.17099299
20
1.3199384
30
0
70
32
0
VERTEX
8
0
62
5
10
0.17099299
20
1.3199384
30
0
70
32
0
SEQEND
8
0
0
POLYLINE
8
0
62
5
66
1
10
0
20
0
30
0
70
8
0
VERTEX
8
0
62
5
10
0.046668701
20
1.3378079
30
0
70
32
0
VERTEX
8
0
62
5
10
0.046668701
20
1.3378079
30
0
70
32
0
SEQEND
8
0
0
POLYLINE
8
0
62
5
66
1
10
0
20
0
30
0
70
8
0
VERTEX
8
0
62
5
10
0.089095107
20
1.3378079
30
0
70
32
0
VERTEX
8
0
62
5
10
0.089095107
20
1.3378079
30
0
70
32
0
SEQEND
8
0
0
POLYLINE
8
0
62
5
66
1
10
0
20
0
30
0
70
8
0
VERTEX
8
0
62
5
10
0.13152151
20
1.3378079
30
0
70
32
0
VERTEX
8
0
62
5
10
0.13152151
20
1.3378079
30
0
70
32
0
SEQEND
8
0
0
POLYLINE
8
0
62
5
66
1
10
0
20
0
30
0
70
8
0
VERTEX
8
0
62
5
10
0.17394792
20
1.3378079
30
0
70
32
0
VERTEX
8
0
62
5
10
0.17394792
20
1.3378079
30
0
70
32
0
SEQEND
8
0
0
POLYLINE
8
0
62
30
66
1
10
0
20
0
30
0
70
8
0
VERTEX
8
0
62
30
10
0.2134194
20
1.3199384
30
0
70
32
0
VERTEX
8
0
62
30
10
0.38312503
20
1.3199384
30
0
70
32
0
SEQEND
8
0
0
POLYLINE
8
0
62
5
66
1
10
0
20
0
30
0
70
8
0
VERTEX
8
0
62
5
10
0.2134194
20
1.3199384
30
0
70
32
0
VERTEX
8
0
62
5
10
0.21637433
20
1.3378079
30
0
70
32
0
VERTEX
8
0
62
5
10
0.25584581
20
1.3199384
30
0
70
32
0
VERTEX
8
0
62
5
10
0.25880073
20
1.3378079
30
0
70
32
0
VERTEX
8
0
62
5
10
0.29827221
20
1.3199384
30
0
70
32
0
VERTEX
8
0
62
5
10
0.30122714
20
1.3378079
30
0
70
32
0
VERTEX
8
0
62
5
10
0.34069862
20
1.3199384
30
0
70
32
0
VERTEX
8
0
62
5
10
0.34365355
20
1.3378079
30
0
70
32
0
VERTEX
8
0
62
5
10
0.38312503
20
1.3199384
30
0
70
32
0
SEQEND
8
0
0
POLYLINE
8
0
62
5
66
1
10
0
20
0
30
0
70
8
0
VERTEX
8
0
62
5
10
0.25584581
20
1.3199384
30
0
70
32
0
VERTEX
8
0
62
5
10
0.25584581
20
1.3199384
30
0
70
32
0
SEQEND
8
0
0
POLYLINE
8
0
62
5
66
1
10
0
20
0
30
0
70
8
0
VERTEX
8
0
62
5
10
0.29827221
20
1.3199384
30
0
70
32
0
VERTEX
8
0
62
5
10
0.29827221
20
1.3199384
30
0
70
32
0
SEQEND
8
0
0
POLYLINE
8
0
62
5
66
1
10
0
20
0
30
0
70
8
0
VERTEX
8
0
62
5
10
0.34069862
20
1.3199384
30
0
70
32
0
VERTEX
8
0
62
5
10
0.34069862
20
1.3199384
30
0
70
32
0
SEQEND
8
0
0
POLYLINE
8
0
62
5
66
1
10
0
20
0
30
0
70
8
0
VERTEX
8
0
62
5
10
0.21637433
20
1.3378079
30
0
70
32
0
VERTEX
8
0
62
5
10
0.21637433
20
1.3378079
30
0
70
32
0
SEQEND
8
0
0
POLYLINE
8
0
62
5
66
1
10
0
20
0
30
0
70
8
0
VERTEX
8
0
62
5
10
0.25880073
20
1.3378079
30
0
70
32
0
VERTEX
8
0
62
5
10
0.25880073
20
1.3378079
30
0
70
32
0
SEQEND
8
0
0
POLYLINE
8
0
62
5
66
1
10
0
20
0
30
0
70
8
0
VERTEX
8
0
62
5
10
0.30122714
20
1.3378079
30
0
70
32
0
VERTEX
8
0
62
5
10
0.30122714
20
1.3378079
30
0
70
32
0
SEQEND
8
0
0
POLYLINE
8
0
62
5
66
1
10
0
20
0
30
0
70
8
0
VERTEX
8
0
62
5
10
0.34365355
20
1.3378079
30
0
70
32
0
VERTEX
8
0
62
5
10
0.34365355
20
1.3378079
30
0
70
32
0
SEQEND
8
0
0
POLYLINE
8
0
62
30
66
1
10
0
20
0
30
0
70
8
0
VERTEX
8
0
62
30
10
-0.12599185
20
1.3199384
30
0
70
32
0
VERTEX
8
0
62
30
10
0.043713773
20
1.3199384
30
0
70
32
0
SEQEND
8
0
0
POLYLINE
8
0
62
5
66
1
10
0
20
0
30
0
70
8
0
VERTEX
8
0
62
5
10
-0.12599185
20
1.3199384
30
0
70
32
0
VERTEX
8
0
62
5
10
-0.12303693
20
1.3378079
30
0
70
32
0
VERTEX
8
0
62
5
10
-0.083565448
20
1.3199384
30
0
70
32
0
VERTEX
8
0
62
5
10
-0.08061052
20
1.3378079
30
0
70
32
0
VERTEX
8
0
62
5
10
-0.041139041
20
1.3199384
30
0
70
32
0
VERTEX
8
0
62
5
10
-0.038184113
20
1.3378079
30
0
70
32
0
VERTEX
8
0
62
5
10
0.0012873662
20
1.3199384
30
0
70
32
0
VERTEX
8
0
62
5
10
0.0042422937
20
1.3378079
30
0
70
32
0
VERTEX
8
0
62
5
10
0.043713773
20
1.3199384
30
0
70
32
0
SEQEND
8
0
0
POLYLINE
8
0
62
5
66
1
10
0
20
0
30
0
70
8
0
VERTEX
8
0
62
5
10
-0.083565448
20
1.3199384
30
0
70
32
0
VERTEX
8
0
62
5
10
-0.083565448
20
1.3199384
30
0
70
32
0
SEQEND
8
0
0
POLYLINE
8
0
62
5
66
1
10
0
20
0
30
0
70
8
0
VERTEX
8
0
62
5
10
-0.041139041
20
1.3199384
30
0
70
32
0
VERTEX
8
0
62
5
10
-0.041139041
20
1.3199384
30
0
70
32
0
SEQEND
8
0
0
POLYLINE
8
0
62
5
66
1
10
0
20
0
30
0
70
8
0
VERTEX
8
0
62
5
10
0.0012873662
20
1.3199384
30
0
70
32
0
VERTEX
8
0
62
5
10
0.0012873662
20
1.3199384
30
0
70
32
0
SEQEND
8
0
0
POLYLINE
8
0
62
5
66
1
10
0
20
0
30
0
70
8
0
VERTEX
8
0
62
5
10
-0.12303693
20
1.3378079
30
0
70
32
0
VERTEX
8
0
62
5
10
-0.12303693
20
1.3378079
30
0
70
32
0
SEQEND
8
0
0
POLYLINE
8
0
62
5
66
1
10
0
20
0
30
0
70
8
0
VERTEX
8
0
62
5
10
-0.08061052
20
1.3378079
30
0
70
32
0
VERTEX
8
0
62
5
10
-0.08061052
20
1.3378079
30
0
70
32
0
SEQEND
8
0
0
POLYLINE
8
0
62
5
66
1
10
0
20
0
30
0
70
8
0
VERTEX
8
0
62
5
10
-0.038184113
20
1.3378079
30
0
70
32
0
VERTEX
8
0
62
5
10
-0.038184113
20
1.3378079
30
0
70
32
0
SEQEND
8
0
0
POLYLINE
8
0
62
5
66
1
10
0
20
0
30
0
70
8
0
VERTEX
8
0
62
5
10
0.0042422937
20
1.3378079
30
0
70
32
0
VERTEX
8
0
62
5
10
0.0042422937
20
1.3378079
30
0
70
32
0
SEQEND
8
0
0
POLYLINE
8
0
62
5
66
1
10
0
20
0
30
0
70
8
0
VERTEX
8
0
62
5
10
0.0042422937
20
1.3378079
30
0
70
32
0
VERTEX
8
0
62
5
10
0.0042422937
20
1.4085306
30
0
70
32
0
SEQEND
8
0
0
POLYLINE
8
0
62
5
66
1
10
0
20
0
30
0
70
8
0
VERTEX
8
0
62
5
10
0.17394792
20
1.3378079
30
0
70
32
0
VERTEX
8
0
62
5
10
0.17394792
20
1.4085306
30
0
70
32
0
SEQEND
8
0
0
POLYLINE
8
0
62
5
66
1
10
0
20
0
30
0
70
8
0
VERTEX
8
0
62
5
10
0.046668701
20
1.3378079
30
0
70
32
0
VERTEX
8
0
62
5
10
0.046668701
20
1.4085306
30
0
70
32
0
SEQEND
8
0
0
POLYLINE
8
0
62
5
66
1
10
0
20
0
30
0
70
8
0
VERTEX
8
0
62
5
10
0.089095107
20
1.3378079
30
0
70
32
0
VERTEX
8
0
62
5
10
0.089095107
20
1.4085306
30
0
70
32
0
SEQEND
8
0
0
POLYLINE
8
0
62
5
66
1
10
0
20
0
30
0
70
8
0
VERTEX
8
0
62
5
10
0.13152151
20
1.3378079
30
0
70
32
0
VERTEX
8
0
62
5
10
0.13152151
20
1.4085306
30
0
70
32
0
SEQEND
8
0
0
POLYLINE
8
0
62
5
66
1
10
0
20
0
30
0
70
8
0
VERTEX
8
0
62
5
10
0.34365355
20
1.3378079
30
0
70
32
0
VERTEX
8
0
62
5
10
0.34365355
20
1.4085306
30
0
70
32
0
SEQEND
8
0
0
POLYLINE
8
0
62
5
66
1
10
0
20
0
30
0
70
8
0
VERTEX
8
0
62
5
10
0.21637433
20
1.3378079
30
0
70
32
0
VERTEX
8
0
62
5
10
0.21637433
20
1.4085306
30
0
70
32
0
SEQEND
8
0
0
POLYLINE
8
0
62
5
66
1
10
0
20
0
30
0
70
8
0
VERTEX
8
0
62
5
10
0.25880073
20
1.3378079
30
0
70
32
0
VERTEX
8
0
62
5
10
0.25880073
20
1.4085306
30
0
70
32
0
SEQEND
8
0
0
POLYLINE
8
0
62
5
66
1
10
0
20
0
30
0
70
8
0
VERTEX
8
0
62
5
10
0.30122714
20
1.3378079
30
0
70
32
0
VERTEX
8
0
62
5
10
0.30122714
20
1.4085306
30
0
70
32
0
SEQEND
8
0
0
POLYLINE
8
0
62
5
66
1
10
0
20
0
30
0
70
8
0
VERTEX
8
0
62
5
10
-0.16546333
20
1.3378079
30
0
70
32
0
VERTEX
8
0
62
5
10
-0.16546333
20
1.4085306
30
0
70
32
0
SEQEND
8
0
0
POLYLINE
8
0
62
5
66
1
10
0
20
0
30
0
70
8
0
VERTEX
8
0
62
5
10
-0.12303693
20
1.3378079
30
0
70
32
0
VERTEX
8
0
62
5
10
-0.12303693
20
1.4085306
30
0
70
32
0
SEQEND
8
0
0
POLYLINE
8
0
62
5
66
1
10
0
20
0
30
0
70
8
0
VERTEX
8
0
62
5
10
-0.08061052
20
1.3378079
30
0
70
32
0
VERTEX
8
0
62
5
10
-0.08061052
20
1.4085306
30
0
70
32
0
SEQEND
8
0
0
POLYLINE
8
0
62
5
66
1
10
0
20
0
30
0
70
8
0
VERTEX
8
0
62
5
10
-0.038184113
20
1.3378079
30
0
70
32
0
VERTEX
8
0
62
5
10
-0.038184113
20
1.4085306
30
0
70
32
0
SEQEND
8
0
0
POLYLINE
8
0
62
5
66
1
10
0
20
0
30
0
70
8
0
VERTEX
8
0
62
5
10
0.0042422937
20
1.4085306
30
0
70
32
0
VERTEX
8
0
62
5
10
0.0042422937
20
1.4879722
30
0
70
32
0
SEQEND
8
0
0
POLYLINE
8
0
62
5
66
1
10
0
20
0
30
0
70
8
0
VERTEX
8
0
62
5
10
0.17394792
20
1.4879722
30
0
70
32
0
VERTEX
8
0
62
5
10
0.17394792
20
1.4085306
30
0
70
32
0
SEQEND
8
0
0
POLYLINE
8
0
62
5
66
1
10
0
20
0
30
0
70
8
0
VERTEX
8
0
62
5
10
0.0042422937
20
1.4345696
30
0
70
32
0
VERTEX
8
0
62
5
10
0.046668701
20
1.4482514
30
0
70
32
0
VERTEX
8
0
62
5
10
0.089095107
20
1.4230479
30
0
70
32
0
VERTEX
8
0
62
5
10
0.13152151
20
1.4093661
30
0
70
32
0
VERTEX
8
0
62
5
10
0.17394792
20
1.4345696
30
0
70
32
0
SEQEND
8
0
0
POLYLINE
8
0
62
5
66
1
10
0
20
0
30
0
70
8
0
SEQEND
8
0
0
POLYLINE
8
0
62
5
66
1
10
0
20
0
30
0
70
8
0
VERTEX
8
0
62
5
10
0.0042422937
20
1.4619332
30
0
70
32
0
VERTEX
8
0
62
5
10
0.046668701
20
1.4482514
30
0
70
32
0
VERTEX
8
0
62
5
10
0.089095107
20
1.4734549
30
0
70
32
0
VERTEX
8
0
62
5
10
0.13152151
20
1.4871367
30
0
70
32
0
VERTEX
8
0
62
5
10
0.17394792
20
1.4619332
30
0
70
32
0
SEQEND
8
0
0
POLYLINE
8
0
62
30
66
1
10
0
20
0
30
0
70
8
0
VERTEX
8
0
62
30
10
0.0042422937
20
1.4482514
30
0
70
32
0
VERTEX
8
0
62
30
10
0.17394792
20
1.4482514
30
0
70
32
0
SEQEND
8
0
0
POLYLINE
8
0
62
30
66
1
10
0
20
0
30
0
70
8
0
VERTEX
8
0
62
30
10
0.046668701
20
1.4482514
30
0
70
32
0
VERTEX
8
0
62
30
10
0.046668701
20
1.4482514
30
0
70
32
0
SEQEND
8
0
0
POLYLINE
8
0
62
30
66
1
10
0
20
0
30
0
70
8
0
VERTEX
8
0
62
30
10
0.089095107
20
1.4230479
30
0
70
32
0
VERTEX
8
0
62
30
10
0.089095107
20
1.4482514
30
0
70
32
0
SEQEND
8
0
0
POLYLINE
8
0
62
30
66
1
10
0
20
0
30
0
70
8
0
VERTEX
8
0
62
30
10
0.13152151
20
1.4093661
30
0
70
32
0
VERTEX
8
0
62
30
10
0.13152151
20
1.4482514
30
0
70
32
0
SEQEND
8
0
0
POLYLINE
8
0
62
5
66
1
10
0
20
0
30
0
70
8
0
VERTEX
8
0
62
5
10
0.046668701
20
1.4085306
30
0
70
32
0
VERTEX
8
0
62
5
10
0.046668701
20
1.4482514
30
0
70
32
0
SEQEND
8
0
0
POLYLINE
8
0
62
5
66
1
10
0
20
0
30
0
70
8
0
VERTEX
8
0
62
5
10
0.089095107
20
1.4085306
30
0
70
32
0
VERTEX
8
0
62
5
10
0.089095107
20
1.4230479
30
0
70
32
0
SEQEND
8
0
0
POLYLINE
8
0
62
5
66
1
10
0
20
0
30
0
70
8
0
VERTEX
8
0
62
5
10
0.13152151
20
1.4085306
30
0
70
32
0
VERTEX
8
0
62
5
10
0.13152151
20
1.4093661
30
0
70
32
0
SEQEND
8
0
0
POLYLINE
8
0
62
5
66
1
10
0
20
0
30
0
70
8
0
VERTEX
8
0
62
5
10
0.046668701
20
1.4482514
30
0
70
32
0
VERTEX
8
0
62
5
10
0.046668701
20
1.4879722
30
0
70
32
0
SEQEND
8
0
0
POLYLINE
8
0
62
5
66
1
10
0
20
0
30
0
70
8
0
VERTEX
8
0
62
5
10
0.089095107
20
1.4482514
30
0
70
32
0
VERTEX
8
0
62
5
10
0.089095107
20
1.4879722
30
0
70
32
0
SEQEND
8
0
0
POLYLINE
8
0
62
5
66
1
10
0
20
0
30
0
70
8
0
VERTEX
8
0
62
5
10
0.13152151
20
1.4482514
30
0
70
32
0
VERTEX
8
0
62
5
10
0.13152151
20
1.4879722
30
0
70
32
0
SEQEND
8
0
0
POLYLINE
8
0
62
5
66
1
10
0
20
0
30
0
70
8
0
VERTEX
8
0
62
5
10
0.34365355
20
1.4879722
30
0
70
32
0
VERTEX
8
0
62
5
10
0.34365355
20
1.4085306
30
0
70
32
0
SEQEND
8
0
0
POLYLINE
8
0
62
5
66
1
10
0
20
0
30
0
70
8
0
VERTEX
8
0
62
5
10
0.17394792
20
1.4345696
30
0
70
32
0
VERTEX
8
0
62
5
10
0.21637433
20
1.4482514
30
0
70
32
0
VERTEX
8
0
62
5
10
0.25880073
20
1.4230479
30
0
70
32
0
VERTEX
8
0
62
5
10
0.30122714
20
1.4093661
30
0
70
32
0
VERTEX
8
0
62
5
10
0.34365355
20
1.4345696
30
0
70
32
0
SEQEND
8
0
0
POLYLINE
8
0
62
5
66
1
10
0
20
0
30
0
70
8
0
SEQEND
8
0
0
POLYLINE
8
0
62
5
66
1
10
0
20
0
30
0
70
8
0
VERTEX
8
0
62
5
10
0.17394792
20
1.4619332
30
0
70
32
0
VERTEX
8
0
62
5
10
0.21637433
20
1.4482514
30
0
70
32
0
VERTEX
8
0
62
5
10
0.25880073
20
1.4734549
30
0
70
32
0
VERTEX
8
0
62
5
10
0.30122714
20
1.4871367
30
0
70
32
0
VERTEX
8
0
62
5
10
0.34365355
20
1.4619332
30
0
70
32
0
SEQEND
8
0
0
POLYLINE
8
0
62
30
66
1
10
0
20
0
30
0
70
8
0
VERTEX
8
0
62
30
10
0.17394792
20
1.4482514
30
0
70
32
0
VERTEX
8
0
62
30
10
0.34365355
20
1.4482514
30
0
70
32
0
SEQEND
8
0
0
POLYLINE
8
0
62
30
66
1
10
0
20
0
30
0
70
8
0
VERTEX
8
0
62
30
10
0.21637433
20
1.4482514
30
0
70
32
0
VERTEX
8
0
62
30
10
0.21637433
20
1.4482514
30
0
70
32
0
SEQEND
8
0
0
POLYLINE
8
0
62
30
66
1
10
0
20
0
30
0
70
8
0
VERTEX
8
0
62
30
10
0.25880073
20
1.4230479
30
0
70
32
0
VERTEX
8
0
62
30
10
0.25880073
20
1.4482514
30
0
70
32
0
SEQEND
8
0
0
POLYLINE
8
0
62
30
66
1
10
0
20
0
30
0
70
8
0
VERTEX
8
0
62
30
10
0.30122714
20
1.4093661
30
0
70
32
0
VERTEX
8
0
62
30
10
0.30122714
20
1.4482514
30
0
70
32
0
SEQEND
8
0
0
POLYLINE
8
0
62
5
66
1
10
0
20
0
30
0
70
8
0
VERTEX
8
0
62
5
10
0.21637433
20
1.4085306
30
0
70
32
0
VERTEX
8
0
62
5
10
0.21637433
20
1.4482514
30
0
70
32
0
SEQEND
8
0
0
POLYLINE
8
0
62
5
66
1
10
0
20
0
30
0
70
8
0
VERTEX
8
0
62
5
10
0.25880073
20
1.4085306
30
0
70
32
0
VERTEX
8
0
62
5
10
0.25880073
20
1.4230479
30
0
70
32
0
SEQEND
8
0
0
POLYLINE
8
0
62
5
66
1
10
0
20
0
30
0
70
8
0
VERTEX
8
0
62
5
10
0.30122714
20
1.4085306
30
0
70
32
0
VERTEX
8
0
62
5
10
0.30122714
20
1.4093661
30
0
70
32
0
SEQEND
8
0
0
POLYLINE
8
0
62
5
66
1
10
0
20
0
30
0
70
8
0
VERTEX
8
0
62
5
10
0.21637433
20
1.4482514
30
0
70
32
0
VERTEX
8
0
62
5
10
0.21637433
20
1.4879722
30
0
70
32
0
SEQEND
8
0
0
POLYLINE
8
0
62
5
66
1
10
0
20
0
30
0
70
8
0
VERTEX
8
0
62
5
10
0.25880073
20
1.4482514
30
0
70
32
0
VERTEX
8
0
62
5
10
0.25880073
20
1.4879722
30
0
70
32
0
SEQEND
8
0
0
POLYLINE
8
0
62
5
66
1
10
0
20
0
30
0
70
8
0
VERTEX
8
0
62
5
10
0.30122714
20
1.4482514
30
0
70
32
0
VERTEX
8
0
62
5
10
0.30122714
20
1.4879722
30
0
70
32
0
SEQEND
8
0
0
POLYLINE
8
0
62
5
66
1
10
0
20
0
30
0
70
8
0
VERTEX
8
0
62
5
10
-0.16546333
20
1.4085306
30
0
70
32
0
VERTEX
8
0
62
5
10
-0.16546333
20
1.4879722
30
0
70
32
0
SEQEND
8
0
0
POLYLINE
8
0
62
5
66
1
10
0
20
0
30
0
70
8
0
VERTEX
8
0
62
5
10
-0.16546333
20
1.4345696
30
0
70
32
0
VERTEX
8
0
62
5
10
-0.12303693
20
1.4482514
30
0
70
32
0
VERTEX
8
0
62
5
10
-0.08061052
20
1.4230479
30
0
70
32
0
VERTEX
8
0
62
5
10
-0.038184113
20
1.4093661
30
0
70
32
0
VERTEX
8
0
62
5
10
0.0042422937
20
1.4345696
30
0
70
32
0
SEQEND
8
0
0
POLYLINE
8
0
62
5
66
1
10
0
20
0
30
0
70
8
0
SEQEND
8
0
0
POLYLINE
8
0
62
5
66
1
10
0
20
0
30
0
70
8
0
VERTEX
8
0
62
5
10
-0.16546333
20
1.4619332
30
0
70
32
0
VERTEX
8
0
62
5
10
-0.12303693
20
1.4482514
30
0
70
32
0
VERTEX
8
0
62
5
10
-0.08061052
20
1.4734549
30
0
70
32
0
VERTEX
8
0
62
5
10
-0.038184113
20
1.4871367
30
0
70
32
0
VERTEX
8
0
62
5
10
0.0042422937
20
1.4619332
30
0
70
32
0
SEQEND
8
0
0
POLYLINE
8
0
62
30
66
1
10
0
20
0
30
0
70
8
0
VERTEX
8
0
62
30
10
-0.16546333
20
1.4482514
30
0
70
32
0
VERTEX
8
0
62
30
10
0.0042422937
20
1.4482514
30
0
70
32
0
SEQEND
8
0
0
POLYLINE
8
0
62
30
66
1
10
0
20
0
30
0
70
8
0
VERTEX
8
0
62
30
10
-0.12303693
20
1.4482514
30
0
70
32
0
VERTEX
8
0
62
30
10
-0.12303693
20
1.4482514
30
0
70
32
0
SEQEND
8
0
0
POLYLINE
8
0
62
30
66
1
10
0
20
0
30
0
70
8
0
VERTEX
8
0
62
30
10
-0.08061052
20
1.4230479
30
0
70
32
0
VERTEX
8
0
62
30
10
-0.08061052
20
1.4482514
30
0
70
32
0
SEQEND
8
0
0
POLYLINE
8
0
62
30
66
1
10
0
20
0
30
0
70
8
0
VERTEX
8
0
62
30
10
-0.038184113
20
1.4093661
30
0
70
32
0
VERTEX
8
0
62
30
10
-0.038184113
20
1.4482514
30
0
70
32
0
SEQEND
8
0
0
POLYLINE
8
0
62
5
66
1
10
0
20
0
30
0
70
8
0
VERTEX
8
0
62
5
10
-0.12303693
20
1.4085306
30
0
70
32
0
VERTEX
8
0
62
5
10
-0.12303693
20
1.4482514
30
0
70
32
0
SEQEND
8
0
0
POLYLINE
8
0
62
5
66
1
10
0
20
0
30
0
70
8
0
VERTEX
8
0
62
5
10
-0.08061052
20
1.4085306
30
0
70
32
0
VERTEX
8
0
62
5
10
-0.08061052
20
1.4230479
30
0
70
32
0
SEQEND
8
0
0
POLYLINE
8
0
62
5
66
1
10
0
20
0
30
0
70
8
0
VERTEX
8
0
62
5
10
-0.038184113
20
1.4085306
30
0
70
32
0
VERTEX
8
0
62
5
10
-0.038184113
20
1.4093661
30
0
70
32
0
SEQEND
8
0
0
POLYLINE
8
0
62
5
66
1
10
0
20
0
30
0
70
8
0
VERTEX
8
0
62
5
10
-0.12303693
20
1.4482514
30
0
70
32
0
VERTEX
8
0
62
5
10
-0.12303693
20
1.4879722
30
0
70
32
0
SEQEND
8
0
0
POLYLINE
8
0
62
5
66
1
10
0
20
0
30
0
70
8
0
VERTEX
8
0
62
5
10
-0.08061052
20
1.4482514
30
0
70
32
0
VERTEX
8
0
62
5
10
-0.08061052
20
1.4879722
30
0
70
32
0
SEQEND
8
0
0
POLYLINE
8
0
62
5
66
1
10
0
20
0
30
0
70
8
0
VERTEX
8
0
62
5
10
-0.038184113
20
1.4482514
30
0
70
32
0
VERTEX
8
0
62
5
10
-0.038184113
20
1.4879722
30
0
70
32
0
SEQEND
8
0
0
POLYLINE
8
0
62
5
66
1
10
0
20
0
30
0
70
8
0
VERTEX
8
0
62
5
10
0.0042422937
20
1.4879722
30
0
70
32
0
VERTEX
8
0
62
5
10
0.0042422937
20
1.5479722
30
0
70
32
0
SEQEND
8
0
0
POLYLINE
8
0
62
5
66
1
10
0
20
0
30
0
70
8
0
VERTEX
8
0
62
5
10
0.17394792
20
1.5479722
30
0
70
32
0
VERTEX
8
0
62
5
10
0.17394792
20
1.4879722
30
0
70
32
0
SEQEND
8
0
0
POLYLINE
8
0
62
5
66
1
10
0
20
0
30
0
70
8
0
VERTEX
8
0
62
5
10
0.0042422937
20
1.4879722
30
0
70
32
0
VERTEX
8
0
62
5
10
0.17394792
20
1.4879722
30
0
70
32
0
SEQEND
8
0
0
POLYLINE
8
0
62
5
66
1
10
0
20
0
30
0
70
8
0
VERTEX
8
0
62
5
10
0.0042422937
20
1.5479722
30
0
70
32
0
VERTEX
8
0
62
5
10
0.17394792
20
1.5479722
30
0
70
32
0
SEQEND
8
0
0
POLYLINE
8
0
62
5
66
1
10
0
20
0
30
0
70
8
0
VERTEX
8
0
62
5
10
0.046668701
20
1.4879722
30
0
70
32
0
VERTEX
8
0
62
5
10
0.046668701
20
1.4879722
30
0
70
32
0
SEQEND
8
0
0
POLYLINE
8
0
62
5
66
1
10
0
20
0
30
0
70
8
0
VERTEX
8
0
62
5
10
0.089095107
20
1.4879722
30
0
70
32
0
VERTEX
8
0
62
5
10
0.089095107
20
1.4879722
30
0
70
32
0
SEQEND
8
0
0
POLYLINE
8
0
62
5
66
1
10
0
20
0
30
0
70
8
0
VERTEX
8
0
62
5
10
0.13152151
20
1.4879722
30
0
70
32
0
VERTEX
8
0
62
5
10
0.13152151
20
1.4879722
30
0
70
32
0
SEQEND
8
0
0
POLYLINE
8
0
62
5
66
1
10
0
20
0
30
0
70
8
0
VERTEX
8
0
62
5
10
0.046668701
20
1.5479722
30
0
70
32
0
VERTEX
8
0
62
5
10
0.046668701
20
1.5479722
30
0
70
32
0
SEQEND
8
0
0
POLYLINE
8
0
62
5
66
1
10
0
20
0
30
0
70
8
0
VERTEX
8
0
62
5
10
0.089095107
20
1.5479722
30
0
70
32
0
VERTEX
8
0
62
5
10
0.089095107
20
1.5479722
30
0
70
32
0
SEQEND
8
0
0
POLYLINE
8
0
62
5
66
1
10
0
20
0
30
0
70
8
0
VERTEX
8
0
62
5
10
0.13152151
20
1.5479722
30
0
70
32
0
VERTEX
8
0
62
5
10
0.13152151
20
1.5479722
30
0
70
32
0
SEQEND
8
0
0
POLYLINE
8
0
62
30
66
1
10
0
20
0
30
0
70
8
0
VERTEX
8
0
62
30
10
0.0042422937
20
1.4879722
30
0
70
32
0
VERTEX
8
0
62
30
10
0.025455497
20
1.5179722
30
0
70
32
0
SEQEND
8
0
0
POLYLINE
8
0
62
30
66
1
10
0
20
0
30
0
70
8
0
VERTEX
8
0
62
30
10
0.025455497
20
1.5179722
30
0
70
32
0
VERTEX
8
0
62
30
10
0.046668701
20
1.4879722
30
0
70
32
0
SEQEND
8
0
0
POLYLINE
8
0
62
30
66
1
10
0
20
0
30
0
70
8
0
VERTEX
8
0
62
30
10
0.089095107
20
1.4879722
30
0
70
32
0
VERTEX
8
0
62
30
10
0.11030831
20
1.5179722
30
0
70
32
0
SEQEND
8
0
0
POLYLINE
8
0
62
30
66
1
10
0
20
0
30
0
70
8
0
VERTEX
8
0
62
30
10
0.11030831
20
1.5179722
30
0
70
32
0
VERTEX
8
0
62
30
10
0.13152151
20
1.4879722
30
0
70
32
0
SEQEND
8
0
0
POLYLINE
8
0
62
30
66
1
10
0
20
0
30
0
70
8
0
VERTEX
8
0
62
30
10
0.046668701
20
1.5179722
30
0
70
32
0
VERTEX
8
0
62
30
10
0.089095107
20
1.5179722
30
0
70
32
0
SEQEND
8
0
0
POLYLINE
8
0
62
30
66
1
10
0
20
0
30
0
70
8
0
VERTEX
8
0
62
30
10
0.13152151
20
1.5179722
30
0
70
32
0
VERTEX
8
0
62
30
10
0.17394792
20
1.5179722
30
0
70
32
0
SEQEND
8
0
0
POLYLINE
8
0
62
5
66
1
10
0
20
0
30
0
70
8
0
VERTEX
8
0
62
5
10
0.0042422937
20
1.5179722
30
0
70
32
0
VERTEX
8
0
62
5
10
0.025455497
20
1.5179722
30
0
70
32
0
SEQEND
8
0
0
POLYLINE
8
0
62
5
66
1
10
0
20
0
30
0
70
8
0
VERTEX
8
0
62
5
10
0.089095107
20
1.5179722
30
0
70
32
0
VERTEX
8
0
62
5
10
0.11030831
20
1.5179722
30
0
70
32
0
SEQEND
8
0
0
POLYLINE
8
0
62
5
66
1
10
0
20
0
30
0
70
8
0
VERTEX
8
0
62
5
10
0.025455497
20
1.5179722
30
0
70
32
0
VERTEX
8
0
62
5
10
0.046668701
20
1.5179722
30
0
70
32
0
SEQEND
8
0
0
POLYLINE
8
0
62
5
66
1
10
0
20
0
30
0
70
8
0
VERTEX
8
0
62
5
10
0.11030831
20
1.5179722
30
0
70
32
0
VERTEX
8
0
62
5
10
0.13152151
20
1.5179722
30
0
70
32
0
SEQEND
8
0
0
POLYLINE
8
0
62
5
66
1
10
0
20
0
30
0
70
8
0
VERTEX
8
0
62
5
10
0.046668701
20
1.4879722
30
0
70
32
0
VERTEX
8
0
62
5
10
0.046668701
20
1.5479722
30
0
70
32
0
SEQEND
8
0
0
POLYLINE
8
0
62
5
66
1
10
0
20
0
30
0
70
8
0
VERTEX
8
0
62
5
10
0.089095107
20
1.4879722
30
0
70
32
0
VERTEX
8
0
62
5
10
0.089095107
20
1.5479722
30
0
70
32
0
SEQEND
8
0
0
POLYLINE
8
0
62
5
66
1
10
0
20
0
30
0
70
8
0
VERTEX
8
0
62
5
10
0.13152151
20
1.4879722
30
0
70
32
0
VERTEX
8
0
62
5
10
0.13152151
20
1.5479722
30
0
70
32
0
SEQEND
8
0
0
POLYLINE
8
0
62
5
66
1
10
0
20
0
30
0
70
8
0
VERTEX
8
0
62
5
10
0.0042422937
20
1.4879722
30
0
70
32
0
VERTEX
8
0
62
5
10
0.0042422937
20
1.5479722
30
0
70
32
0
SEQEND
8
0
0
POLYLINE
8
0
62
5
66
1
10
0
20
0
30
0
70
8
0
VERTEX
8
0
62
5
10
0.34365355
20
1.5479722
30
0
70
32
0
VERTEX
8
0
62
5
10
0.34365355
20
1.4879722
30
0
70
32
0
SEQEND
8
0
0
POLYLINE
8
0
62
5
66
1
10
0
20
0
30
0
70
8
0
VERTEX
8
0
62
5
10
0.17394792
20
1.4879722
30
0
70
32
0
VERTEX
8
0
62
5
10
0.34365355
20
1.4879722
30
0
70
32
0
SEQEND
8
0
0
POLYLINE
8
0
62
5
66
1
10
0
20
0
30
0
70
8
0
VERTEX
8
0
62
5
10
0.17394792
20
1.5479722
30
0
70
32
0
VERTEX
8
0
62
5
10
0.34365355
20
1.5479722
30
0
70
32
0
SEQEND
8
0
0
POLYLINE
8
0
62
5
66
1
10
0
20
0
30
0
70
8
0
VERTEX
8
0
62
5
10
0.21637433
20
1.4879722
30
0
70
32
0
VERTEX
8
0
62
5
10
0.21637433
20
1.4879722
30
0
70
32
0
SEQEND
8
0
0
POLYLINE
8
0
62
5
66
1
10
0
20
0
30
0
70
8
0
VERTEX
8
0
62
5
10
0.25880073
20
1.4879722
30
0
70
32
0
VERTEX
8
0
62
5
10
0.25880073
20
1.4879722
30
0
70
32
0
SEQEND
8
0
0
POLYLINE
8
0
62
5
66
1
10
0
20
0
30
0
70
8
0
VERTEX
8
0
62
5
10
0.30122714
20
1.4879722
30
0
70
32
0
VERTEX
8
0
62
5
10
0.30122714
20
1.4879722
30
0
70
32
0
SEQEND
8
0
0
POLYLINE
8
0
62
5
66
1
10
0
20
0
30
0
70
8
0
VERTEX
8
0
62
5
10
0.21637433
20
1.5479722
30
0
70
32
0
VERTEX
8
0
62
5
10
0.21637433
20
1.5479722
30
0
70
32
0
SEQEND
8
0
0
POLYLINE
8
0
62
5
66
1
10
0
20
0
30
0
70
8
0
VERTEX
8
0
62
5
10
0.25880073
20
1.5479722
30
0
70
32
0
VERTEX
8
0
62
5
10
0.25880073
20
1.5479722
30
0
70
32
0
SEQEND
8
0
0
POLYLINE
8
0
62
5
66
1
10
0
20
0
30
0
70
8
0
VERTEX
8
0
62
5
10
0.30122714
20
1.5479722
30
0
70
32
0
VERTEX
8
0
62
5
10
0.30122714
20
1.5479722
30
0
70
32
0
SEQEND
8
0
0
POLYLINE
8
0
62
30
66
1
10
0
20
0
30
0
70
8
0
VERTEX
8
0
62
30
10
0.17394792
20
1.4879722
30
0
70
32
0
VERTEX
8
0
62
30
10
0.19516112
20
1.5179722
30
0
70
32
0
SEQEND
8
0
0
POLYLINE
8
0
62
30
66
1
10
0
20
0
30
0
70
8
0
VERTEX
8
0
62
30
10
0.19516112
20
1.5179722
30
0
70
32
0
VERTEX
8
0
62
30
10
0.21637433
20
1.4879722
30
0
70
32
0
SEQEND
8
0
0
POLYLINE
8
0
62
30
66
1
10
0
20
0
30
0
70
8
0
VERTEX
8
0
62
30
10
0.25880073
20
1.4879722
30
0
70
32
0
VERTEX
8
0
62
30
10
0.28001394
20
1.5179722
30
0
70
32
0
SEQEND
8
0
0
POLYLINE
8
0
62
30
66
1
10
0
20
0
30
0
70
8
0
VERTEX
8
0
62
30
10
0.28001394
20
1.5179722
30
0
70
32
0
VERTEX
8
0
62
30
10
0.30122714
20
1.4879722
30
0
70
32
0
SEQEND
8
0
0
POLYLINE
8
0
62
30
66
1
10
0
20
0
30
0
70
8
0
VERTEX
8
0
62
30
10
0.21637433
20
1.5179722
30
0
70
32
0
VERTEX
8
0
62
30
10
0.25880073
20
1.5179722
30
0
70
32
0
SEQEND
8
0
0
POLYLINE
8
0
62
30
66
1
10
0
20
0
30
0
70
8
0
VERTEX
8
0
62
30
10
0.30122714
20
1.5179722
30
0
70
32
0
VERTEX
8
0
62
30
10
0.34365355
20
1.5179722
30
0
70
32
0
SEQEND
8
0
0
POLYLINE
8
0
62
5
66
1
10
0
20
0
30
0
70
8
0
VERTEX
8
0
62
5
10
0.17394792
20
1.5179722
30
0
70
32
0
VERTEX
8
0
62
5
10
0.19516112
20
1.5179722
30
0
70
32
0
SEQEND
8
0
0
POLYLINE
8
0
62
5
66
1
10
0
20
0
30
0
70
8
0
VERTEX
8
0
62
5
10
0.25880073
20
1.5179722
30
0
70
32
0
VERTEX
8
0
62
5
10
0.28001394
20
1.5179722
30
0
70
32
0
SEQEND
8
0
0
POLYLINE
8
0
62
5
66
1
10
0
20
0
30
0
70
8
0
VERTEX
8
0
62
5
10
0.19516112
20
1.5179722
30
0
70
32
0
VERTEX
8
0
62
5
10
0.21637433
20
1.5179722
30
0
70
32
0
SEQEND
8
0
0
POLYLINE
8
0
62
5
66
1
10
0
20
0
30
0
70
8
0
VERTEX
8
0
62
5
10
0.28001394
20
1.5179722
30
0
70
32
0
VERTEX
8
0
62
5
10
0.30122714
20
1.5179722
30
0
70
32
0
SEQEND
8
0
0
POLYLINE
8
0
62
5
66
1
10
0
20
0
30
0
70
8
0
VERTEX
8
0
62
5
10
0.21637433
20
1.4879722
30
0
70
32
0
VERTEX
8
0
62
5
10
0.21637433
20
1.5479722
30
0
70
32
0
SEQEND
8
0
0
POLYLINE
8
0
62
5
66
1
10
0
20
0
30
0
70
8
0
VERTEX
8
0
62
5
10
0.25880073
20
1.4879722
30
0
70
32
0
VERTEX
8
0
62
5
10
0.25880073
20
1.5479722
30
0
70
32
0
SEQEND
8
0
0
POLYLINE
8
0
62
5
66
1
10
0
20
0
30
0
70
8
0
VERTEX
8
0
62
5
10
0.30122714
20
1.4879722
30
0
70
32
0
VERTEX
8
0
62
5
10
0.30122714
20
1.5479722
30
0
70
32
0
SEQEND
8
0
0
POLYLINE
8
0
62
5
66
1
10
0
20
0
30
0
70
8
0
VERTEX
8
0
62
5
10
0.17394792
20
1.4879722
30
0
70
32
0
VERTEX
8
0
62
5
10
0.17394792
20
1.5479722
30
0
70
32
0
SEQEND
8
0
0
POLYLINE
8
0
62
5
66
1
10
0
20
0
30
0
70
8
0
VERTEX
8
0
62
5
10
-0.16546333
20
1.4879722
30
0
70
32
0
VERTEX
8
0
62
5
10
-0.16546333
20
1.5479722
30
0
70
32
0
SEQEND
8
0
0
POLYLINE
8
0
62
5
66
1
10
0
20
0
30
0
70
8
0
VERTEX
8
0
62
5
10
-0.16546333
20
1.4879722
30
0
70
32
0
VERTEX
8
0
62
5
10
0.0042422937
20
1.4879722
30
0
70
32
0
SEQEND
8
0
0
POLYLINE
8
0
62
5
66
1
10
0
20
0
30
0
70
8
0
VERTEX
8
0
62
5
10
-0.16546333
20
1.5479722
30
0
70
32
0
VERTEX
8
0
62
5
10
0.0042422937
20
1.5479722
30
0
70
32
0
SEQEND
8
0
0
POLYLINE
8
0
62
5
66
1
10
0
20
0
30
0
70
8
0
VERTEX
8
0
62
5
10
-0.12303693
20
1.4879722
30
0
70
32
0
VERTEX
8
0
62
5
10
-0.12303693
20
1.4879722
30
0
70
32
0
SEQEND
8
0
0
POLYLINE
8
0
62
5
66
1
10
0
20
0
30
0
70
8
0
VERTEX
8
0
62
5
10
-0.08061052
20
1.4879722
30
0
70
32
0
VERTEX
8
0
62
5
10
-0.08061052
20
1.4879722
30
0
70
32
0
SEQEND
8
0
0
POLYLINE
8
0
62
5
66
1
10
0
20
0
30
0
70
8
0
VERTEX
8
0
62
5
10
-0.038184113
20
1.4879722
30
0
70
32
0
VERTEX
8
0
62
5
10
-0.038184113
20
1.4879722
30
0
70
32
0
SEQEND
8
0
0
POLYLINE
8
0
62
5
66
1
10
0
20
0
30
0
70
8
0
VERTEX
8
0
62
5
10
-0.12303693
20
1.5479722
30
0
70
32
0
VERTEX
8
0
62
5
10
-0.12303693
20
1.5479722
30
0
70
32
0
SEQEND
8
0
0
POLYLINE
8
0
62
5
66
1
10
0
20
0
30
0
70
8
0
VERTEX
8
0
62
5
10
-0.08061052
20
1.5479722
30
0
70
32
0
VERTEX
8
0
62
5
10
-0.08061052
20
1.5479722
30
0
70
32
0
SEQEND
8
0
0
POLYLINE
8
0
62
5
66
1
10
0
20
0
30
0
70
8
0
VERTEX
8
0
62
5
10
-0.038184113
20
1.5479722
30
0
70
32
0
VERTEX
8
0
62
5
10
-0.038184113
20
1.5479722
30
0
70
32
0
SEQEND
8
0
0
POLYLINE
8
0
62
30
66
1
10
0
20
0
30
0
70
8
0
VERTEX
8
0
62
30
10
-0.16546333
20
1.4879722
30
0
70
32
0
VERTEX
8
0
62
30
10
-0.14425013
20
1.5179722
30
0
70
32
0
SEQEND
8
0
0
POLYLINE
8
0
62
30
66
1
10
0
20
0
30
0
70
8
0
VERTEX
8
0
62
30
10
-0.14425013
20
1.5179722
30
0
70
32
0
VERTEX
8
0
62
30
10
-0.12303693
20
1.4879722
30
0
70
32
0
SEQEND
8
0
0
POLYLINE
8
0
62
30
66
1
10
0
20
0
30
0
70
8
0
VERTEX
8
0
62
30
10
-0.08061052
20
1.4879722
30
0
70
32
0
VERTEX
8
0
62
30
10
-0.059397317
20
1.5179722
30
0
70
32
0
SEQEND
8
0
0
POLYLINE
8
0
62
30
66
1
10
0
20
0
30
0
70
8
0
VERTEX
8
0
62
30
10
-0.059397317
20
1.5179722
30
0
70
32
0
VERTEX
8
0
62
30
10
-0.038184113
20
1.4879722
30
0
70
32
0
SEQEND
8
0
0
POLYLINE
8
0
62
30
66
1
10
0
20
0
30
0
70
8
0
VERTEX
8
0
62
30
10
-0.12303693
20
1.5179722
30
0
70
32
0
VERTEX
8
0
62
30
10
-0.08061052
20
1.5179722
30
0
70
32
0
SEQEND
8
0
0
POLYLINE
8
0
62
30
66
1
10
0
20
0
30
0
70
8
0
VERTEX
8
0
62
30
10
-0.038184113
20
1.5179722
30
0
70
32
0
VERTEX
8
0
62
30
10
0.0042422937
20
1.5179722
30
0
70
32
0
SEQEND
8
0
0
POLYLINE
8
0
62
5
66
1
10
0
20
0
30
0
70
8
0
VERTEX
8
0
62
5
10
-0.16546333
20
1.5179722
30
0
70
32
0
VERTEX
8
0
62
5
10
-0.14425013
20
1.5179722
30
0
70
32
0
SEQEND
8
0
0
POLYLINE
8
0
62
5
66
1
10
0
20
0
30
0
70
8
0
VERTEX
8
0
62
5
10
-0.08061052
20
1.5179722
30
0
70
32
0
VERTEX
8
0
62
5
10
-0.059397317
20
1.5179722
30
0
70
32
0
SEQEND
8
0
0
POLYLINE
8
0
62
5
66
1
10
0
20
0
30
0
70
8
0
VERTEX
8
0
62
5
10
-0.14425013
20
1.5179722
30
0
70
32
0
VERTEX
8
0
62
5
10
-0.12303693
20
1.5179722
30
0
70
32
0
SEQEND
8
0
0
POLYLINE
8
0
62
5
66
1
10
0
20
0
30
0
70
8
0
VERTEX
8
0
62
5
10
-0.059397317
20
1.5179722
30
0
70
32
0
VERTEX
8
0
62
5
10
-0.038184113
20
1.5179722
30
0
70
32
0
SEQEND
8
0
0
POLYLINE
8
0
62
5
66
1
10
0
20
0
30
0
70
8
0
VERTEX
8
0
62
5
10
-0.12303693
20
1.4879722
30
0
70
32
0
VERTEX
8
0
62
5
10
-0.12303693
20
1.5479722
30
0
70
32
0
SEQEND
8
0
0
POLYLINE
8
0
62
5
66
1
10
0
20
0
30
0
70
8
0
VERTEX
8
0
62
5
10
-0.08061052
20
1.4879722
30
0
70
32
0
VERTEX
8
0
62
5
10
-0.08061052
20
1.5479722
30
0
70
32
0
SEQEND
8
0
0
POLYLINE
8
0
62
5
66
1
10
0
20
0
30
0
70
8
0
VERTEX
8
0
62
5
10
-0.038184113
20
1.4879722
30
0
70
32
0
VERTEX
8
0
62
5
10
-0.038184113
20
1.5479722
30
0
70
32
0
SEQEND
8
0
0
POLYLINE
8
0
62
5
66
1
10
0
20
0
30
0
70
8
0
VERTEX
8
0
62
5
10
-0.16546333
20
1.4879722
30
0
70
32
0
VERTEX
8
0
62
5
10
-0.16546333
20
1.5479722
30
0
70
32
0
SEQEND
8
0
0
POLYLINE
8
0
62
18
66
1
10
0
20
0
30
0
70
8
0
VERTEX
8
0
62
18
10
0
20
0
30
0
70
32
0
VERTEX
8
0
62
18
10
0.21213203
20
0
30
0
70
32
0
VERTEX
8
0
62
18
10
0.21213203
20
0.46861887
30
0
70
32
0
VERTEX
8
0
62
18
10
0
20
0.46861887
30
0
70
32
0
VERTEX
8
0
62
18
10
0
20
0
30
0
70
32
0
SEQEND
8
0
0
POLYLINE
8
0
62
5
66
1
10
0
20
0
30
0
70
8
0
VERTEX
8
0
62
5
10
0
20
0.46861887
30
0
70
32
0
VERTEX
8
0
62
5
10
0.21213203
20
0.46861887
30
0
70
32
0
SEQEND
8
0
0
POLYLINE
8
0
62
18
66
1
10
0
20
0
30
0
70
8
0
VERTEX
8
0
62
18
10
0
20
0.44861887
30
0
70
32
0
VERTEX
8
0
62
18
10
0.21213203
20
0.44861887
30
0
70
32
0
VERTEX
8
0
62
18
10
0.21213203
20
0.95750053
30
0
70
32
0
VERTEX
8
0
62
18
10
0
20
0.95750053
30
0
70
32
0
VERTEX
8
0
62
18
10
0
20
0.44861887
30
0
70
32
0
SEQEND
8
0
0
POLYLINE
8
0
62
5
66
1
10
0
20
0
30
0
70
8
0
VERTEX
8
0
62
5
10
0
20
0.95750053
30
0
70
32
0
VERTEX
8
0
62
5
10
0.21213203
20
0.95750053
30
0
70
32
0
SEQEND
8
0
0
POLYLINE
8
0
62
18
66
1
10
0
20
0
30
0
70
8
0
VERTEX
8
0
62
18
10
0
20
0.93750053
30
0
70
32
0
VERTEX
8
0
62
18
10
0.21213203
20
0.93750053
30
0
70
32
0
VERTEX
8
0
62
18
10
0.21213203
20
1.3731693
30
0
70
32
0
VERTEX
8
0
62
18
10
0
20
1.3731693
30
0
70
32
0
VERTEX
8
0
62
18
10
0
20
0.93750053
30
0
70
32
0
SEQEND
8
0
0
POLYLINE
8
0
62
5
66
1
10
0
20
0
30
0
70
8
0
VERTEX
8
0
62
5
10
0
20
1.3731693
30
0
70
32
0
VERTEX
8
0
62
5
10
0.21213203
20
1.3731693
30
0
70
32
0
SEQEND
8
0
0
POLYLINE
8
0
62
18
66
1
10
0
20
0
30
0
70
8
0
VERTEX
8
0
62
18
10
0
20
1.3531693
30
0
70
32
0
VERTEX
8
0
62
18
10
0.21213203
20
1.3531693
30
0
70
32
0
VERTEX
8
0
62
18
10
0.21213203
20
1.5479722
30
0
70
32
0
VERTEX
8
0
62
18
10
0
20
1.5479722
30
0
70
32
0
VERTEX
8
0
62
18
10
0
20
1.3531693
30
0
70
32
0
SEQEND
8
0
0
POLYLINE
8
0
62
18
66
1
10
0
20
0
30
0
70
8
0
VERTEX
8
0
62
18
10
0.21213203
20
0
30
0
70
32
0
VERTEX
8
0
62
18
10
0
20
0
30
0
70
32
0
VERTEX
8
0
62
18
10
0
20
1.5479722
30
0
70
32
0
VERTEX
8
0
62
18
10
0.21213203
20
1.5479722
30
0
70
32
0
VERTEX
8
0
62
18
10
0.21213203
20
0
30
0
70
32
0
SEQEND
8
0
0
ENDSEC
0
EOF
