0
SECTION
2
HEADER
9
$ACADVER
1
AC1006
9
$INSUNITS
70
6
0
ENDSEC
0
SECTION
2
ENTITIES
0
POLYLINE
8
0
62
5
66
1
10
0
20
0
30
0
70
8
0
VERTEX
8
0
62
5
10
0
20
0
30
0
70
32
0
VERTEX
8
0
62
5
10
0
20
0.1
30
0
70
32
0
SEQEND
8
0
0
POLYLINE
8
0
62
5
66
1
10
0
20
0
30
0
70
8
0
VERTEX
8
0
62
5
10
0.11313708
20
0
30
0
70
32
0
VERTEX
8
0
62
5
10
0.11313708
20
0.1
30
0
70
32
0
SEQEND
8
0
0
POLYLINE
8
0
62
5
66
1
10
0
20
0
30
0
70
8
0
VERTEX
8
0
62
5
10
0.028284271
20
0
30
0
70
32
0
VERTEX
8
0
62
5
10
0.028284271
20
0.1
30
0
70
32
0
SEQEND
8
0
0
POLYLINE
8
0
62
5
66
1
10
0
20
0
30
0
70
8
0
VERTEX
8
0
62
5
10
0.056568542
20
0
30
0
70
32
0
VERTEX
8
0
62
5
10
0.056568542
20
0.1
30
0
70
32
0
SEQEND
8
0
0
POLYLINE
8
0
62
5
66
1
10
0
20
0
30
0
70
8
0
VERTEX
8
0
62
5
10
0.084852814
20
0
30
0
70
32
0
VERTEX
8
0
62
5
10
0.084852814
20
0.1
30
0
70
32
0
SEQEND
8
0
0
POLYLINE
8
0
62
5
66
1
10
0
20
0
30
0
70
8
0
VERTEX
8
0
62
5
10
0.22627417
20
0
30
0
70
32
0
VERTEX
8
0
62
5
10
0.22627417
20
0.1
30
0
70
32
0
SEQEND
8
0
0
POLYLINE
8
0
62
5
66
1
10
0
20
0
30
0
70
8
0
VERTEX
8
0
62
5
10
0.14142136
20
0
30
0
70
32
0
VERTEX
8
0
62
5
10
0.14142136
20
0.1
30
0
70
32
0
SEQEND
8
0
0
POLYLINE
8
0
62
5
66
1
10
0
20
0
30
0
70
8
0
VERTEX
8
0
62
5
10
0.16970563
20
0
30
0
70
32
0
VERTEX
8
0
62
5
10
0.16970563
20
0.1
30
0
70
32
0
SEQEND
8
0
0
POLYLINE
8
0
62
5
66
1
10
0
20
0
30
0
70
8
0
VERTEX
8
0
62
5
10
0.1979899
20
0
30
0
70
32
0
VERTEX
8
0
62
5
10
0.1979899
20
0.1
30
0
70
32
0
SEQEND
8
0
0
POLYLINE
8
0
62
5
66
1
10
0
20
0
30
0
70
8
0
VERTEX
8
0
62
5
10
-0.11313708
20
0
30
0
70
32
0
VERTEX
8
0
62
5
10
-0.11313708
20
0.1
30
0
70
32
0
SEQEND
8
0
0
POLYLINE
8
0
62
5
66
1
10
0
20
0
30
0
70
8
0
VERTEX
8
0
62
5
10
-0.084852814
20
0
30
0
70
32
0
VERTEX
8
0
62
5
10
-0.084852814
20
0.1
30
0
70
32
0
SEQEND
8
0
0
POLYLINE
8
0
62
5
66
1
10
0
20
0
30
0
70
8
0
VERTEX
8
0
62
5
10
-0.056568542
20
0
30
0
70
32
0
VERTEX
8
0
62
5
10
-0.056568542
20
0.1
30
0
70
32
0
SEQEND
8
0
0
POLYLINE
8
0
62
5
66
1
10
0
20
0
30
0
70
8
0
VERTEX
8
0
62
5
10
-0.028284271
20
0
30
0
70
32
0
VERTEX
8
0
62
5
10
-0.028284271
20
0.1
30
0
70
32
0
SEQEND
8
0
0
POLYLINE
8
0
62
5
66
1
10
0
20
0
30
0
70
8
0
VERTEX
8
0
62
5
10
0
20
0.1
30
0
70
32
0
VERTEX
8
0
62
5
10
0
20
0.15656854
30
0
70
32
0
SEQEND
8
0
0
POLYLINE
8
0
62
5
66
1
10
0
20
0
30
0
70
8
0
VERTEX
8
0
62
5
10
0.11313708
20
0.15656854
30
0
70
32
0
VERTEX
8
0
62
5
10
0.11313708
20
0.1
30
0
70
32
0
SEQEND
8
0
0
POLYLINE
8
0
62
5
66
1
10
0
20
0
30
0
70
8
0
VERTEX
8
0
62
5
10
0
20
0.1
30
0
70
32
0
VERTEX
8
0
62
5
10
0.11313708
20
0.1
30
0
70
32
0
SEQEND
8
0
0
POLYLINE
8
0
62
5
66
1
10
0
20
0
30
0
70
8
0
VERTEX
8
0
62
5
10
0
20
0.15656854
30
0
70
32
0
VERTEX
8
0
62
5
10
0.11313708
20
0.15656854
30
0
70
32
0
SEQEND
8
0
0
POLYLINE
8
0
62
5
66
1
10
0
20
0
30
0
70
8
0
VERTEX
8
0
62
5
10
0.028284271
20
0.1
30
0
70
32
0
VERTEX
8
0
62
5
10
0.028284271
20
0.1
30
0
70
32
0
SEQEND
8
0
0
POLYLINE
8
0
62
5
66
1
10
0
20
0
30
0
70
8
0
VERTEX
8
0
62
5
10
0.056568542
20
0.1
30
0
70
32
0
VERTEX
8
0
62
5
10
0.056568542
20
0.1
30
0
70
32
0
SEQEND
8
0
0
POLYLINE
8
0
62
5
66
1
10
0
20
0
30
0
70
8
0
VERTEX
8
0
62
5
10
0.084852814
20
0.1
30
0
70
32
0
VERTEX
8
0
62
5
10
0.084852814
20
0.1
30
0
70
32
0
SEQEND
8
0
0
POLYLINE
8
0
62
5
66
1
10
0
20
0
30
0
70
8
0
VERTEX
8
0
62
5
10
0.028284271
20
0.15656854
30
0
70
32
0
VERTEX
8
0
62
5
10
0.028284271
20
0.15656854
30
0
70
32
0
SEQEND
8
0
0
POLYLINE
8
0
62
5
66
1
10
0
20
0
30
0
70
8
0
VERTEX
8
0
62
5
10
0.056568542
20
0.15656854
30
0
70
32
0
VERTEX
8
0
62
5
10
0.056568542
20
0.15656854
30
0
70
32
0
SEQEND
8
0
0
POLYLINE
8
0
62
5
66
1
10
0
20
0
30
0
70
8
0
VERTEX
8
0
62
5
10
0.084852814
20
0.15656854
30
0
70
32
0
VERTEX
8
0
62
5
10
0.084852814
20
0.15656854
30
0
70
32
0
SEQEND
8
0
0
POLYLINE
8
0
62
30
66
1
10
0
20
0
30
0
70
8
0
VERTEX
8
0
62
30
10
0
20
0.15656854
30
0
70
32
0
VERTEX
8
0
62
30
10
0.028284271
20
0.1
30
0
70
32
0
SEQEND
8
0
0
POLYLINE
8
0
62
30
66
1
10
0
20
0
30
0
70
8
0
VERTEX
8
0
62
30
10
0.028284271
20
0.15656854
30
0
70
32
0
VERTEX
8
0
62
30
10
0
20
0.1
30
0
70
32
0
SEQEND
8
0
0
POLYLINE
8
0
62
30
66
1
10
0
20
0
30
0
70
8
0
VERTEX
8
0
62
30
10
0.056568542
20
0.15656854
30
0
70
32
0
VERTEX
8
0
62
30
10
0.084852814
20
0.1
30
0
70
32
0
SEQEND
8
0
0
POLYLINE
8
0
62
30
66
1
10
0
20
0
30
0
70
8
0
VERTEX
8
0
62
30
10
0.084852814
20
0.15656854
30
0
70
32
0
VERTEX
8
0
62
30
10
0.056568542
20
0.1
30
0
70
32
0
SEQEND
8
0
0
POLYLINE
8
0
62
30
66
1
10
0
20
0
30
0
70
8
0
VERTEX
8
0
62
30
10
0.028284271
20
0.12828427
30
0
70
32
0
VERTEX
8
0
62
30
10
0.056568542
20
0.12828427
30
0
70
32
0
SEQEND
8
0
0
POLYLINE
8
0
62
30
66
1
10
0
20
0
30
0
70
8
0
VERTEX
8
0
62
30
10
0.084852814
20
0.12828427
30
0
70
32
0
VERTEX
8
0
62
30
10
0.11313708
20
0.12828427
30
0
70
32
0
SEQEND
8
0
0
POLYLINE
8
0
62
5
66
1
10
0
20
0
30
0
70
8
0
VERTEX
8
0
62
5
10
0
20
0.12828427
30
0
70
32
0
VERTEX
8
0
62
5
10
0.014142136
20
0.12828427
30
0
70
32
0
SEQEND
8
0
0
POLYLINE
8
0
62
5
66
1
10
0
20
0
30
0
70
8
0
VERTEX
8
0
62
5
10
0.056568542
20
0.12828427
30
0
70
32
0
VERTEX
8
0
62
5
10
0.070710678
20
0.12828427
30
0
70
32
0
SEQEND
8
0
0
POLYLINE
8
0
62
5
66
1
10
0
20
0
30
0
70
8
0
VERTEX
8
0
62
5
10
0.014142136
20
0.12828427
30
0
70
32
0
VERTEX
8
0
62
5
10
0.028284271
20
0.12828427
30
0
70
32
0
SEQEND
8
0
0
POLYLINE
8
0
62
5
66
1
10
0
20
0
30
0
70
8
0
VERTEX
8
0
62
5
10
0.070710678
20
0.12828427
30
0
70
32
0
VERTEX
8
0
62
5
10
0.084852814
20
0.12828427
30
0
70
32
0
SEQEND
8
0
0
POLYLINE
8
0
62
5
66
1
10
0
20
0
30
0
70
8
0
VERTEX
8
0
62
5
10
0.028284271
20
0.1
30
0
70
32
0
VERTEX
8
0
62
5
10
0.028284271
20
0.15656854
30
0
70
32
0
SEQEND
8
0
0
POLYLINE
8
0
62
5
66
1
10
0
20
0
30
0
70
8
0
VERTEX
8
0
62
5
10
0.056568542
20
0.1
30
0
70
32
0
VERTEX
8
0
62
5
10
0.056568542
20
0.15656854
30
0
70
32
0
SEQEND
8
0
0
POLYLINE
8
0
62
5
66
1
10
0
20
0
30
0
70
8
0
VERTEX
8
0
62
5
10
0.084852814
20
0.1
30
0
70
32
0
VERTEX
8
0
62
5
10
0.084852814
20
0.15656854
30
0
70
32
0
SEQEND
8
0
0
POLYLINE
8
0
62
5
66
1
10
0
20
0
30
0
70
8
0
VERTEX
8
0
62
5
10
0
20
0.1
30
0
70
32
0
VERTEX
8
0
62
5
10
0
20
0.15656854
30
0
70
32
0
SEQEND
8
0
0
POLYLINE
8
0
62
5
66
1
10
0
20
0
30
0
70
8
0
VERTEX
8
0
62
5
10
0.22627417
20
0.15656854
30
0
70
32
0
VERTEX
8
0
62
5
10
0.22627417
20
0.1
30
0
70
32
0
SEQEND
8
0
0
POLYLINE
8
0
62
5
66
1
10
0
20
0
30
0
70
8
0
VERTEX
8
0
62
5
10
0.11313708
20
0.1
30
0
70
32
0
VERTEX
8
0
62
5
10
0.22627417
20
0.1
30
0
70
32
0
SEQEND
8
0
0
POLYLINE
8
0
62
5
66
1
10
0
20
0
30
0
70
8
0
VERTEX
8
0
62
5
10
0.11313708
20
0.15656854
30
0
70
32
0
VERTEX
8
0
62
5
10
0.22627417
20
0.15656854
30
0
70
32
0
SEQEND
8
0
0
POLYLINE
8
0
62
5
66
1
10
0
20
0
30
0
70
8
0
VERTEX
8
0
62
5
10
0.14142136
20
0.1
30
0
70
32
0
VERTEX
8
0
62
5
10
0.14142136
20
0.1
30
0
70
32
0
SEQEND
8
0
0
POLYLINE
8
0
62
5
66
1
10
0
20
0
30
0
70
8
0
VERTEX
8
0
62
5
10
0.16970563
20
0.1
30
0
70
32
0
VERTEX
8
0
62
5
10
0.16970563
20
0.1
30
0
70
32
0
SEQEND
8
0
0
POLYLINE
8
0
62
5
66
1
10
0
20
0
30
0
70
8
0
VERTEX
8
0
62
5
10
0.1979899
20
0.1
30
0
70
32
0
VERTEX
8
0
62
5
10
0.1979899
20
0.1
30
0
70
32
0
SEQEND
8
0
0
POLYLINE
8
0
62
5
66
1
10
0
20
0
30
0
70
8
0
VERTEX
8
0
62
5
10
0.14142136
20
0.15656854
30
0
70
32
0
VERTEX
8
0
62
5
10
0.14142136
20
0.15656854
30
0
70
32
0
SEQEND
8
0
0
POLYLINE
8
0
62
5
66
1
10
0
20
0
30
0
70
8
0
VERTEX
8
0
62
5
10
0.16970563
20
0.15656854
30
0
70
32
0
VERTEX
8
0
62
5
10
0.16970563
20
0.15656854
30
0
70
32
0
SEQEND
8
0
0
POLYLINE
8
0
62
5
66
1
10
0
20
0
30
0
70
8
0
VERTEX
8
0
62
5
10
0.1979899
20
0.15656854
30
0
70
32
0
VERTEX
8
0
62
5
10
0.1979899
20
0.15656854
30
0
70
32
0
SEQEND
8
0
0
POLYLINE
8
0
62
30
66
1
10
0
20
0
30
0
70
8
0
VERTEX
8
0
62
30
10
0.11313708
20
0.15656854
30
0
70
32
0
VERTEX
8
0
62
30
10
0.14142136
20
0.1
30
0
70
32
0
SEQEND
8
0
0
POLYLINE
8
0
62
30
66
1
10
0
20
0
30
0
70
8
0
VERTEX
8
0
62
30
10
0.14142136
20
0.15656854
30
0
70
32
0
VERTEX
8
0
62
30
10
0.11313708
20
0.1
30
0
70
32
0
SEQEND
8
0
0
POLYLINE
8
0
62
30
66
1
10
0
20
0
30
0
70
8
0
VERTEX
8
0
62
30
10
0.16970563
20
0.15656854
30
0
70
32
0
VERTEX
8
0
62
30
10
0.1979899
20
0.1
30
0
70
32
0
SEQEND
8
0
0
POLYLINE
8
0
62
30
66
1
10
0
20
0
30
0
70
8
0
VERTEX
8
0
62
30
10
0.1979899
20
0.15656854
30
0
70
32
0
VERTEX
8
0
62
30
10
0.16970563
20
0.1
30
0
70
32
0
SEQEND
8
0
0
POLYLINE
8
0
62
30
66
1
10
0
20
0
30
0
70
8
0
VERTEX
8
0
62
30
10
0.14142136
20
0.12828427
30
0
70
32
0
VERTEX
8
0
62
30
10
0.16970563
20
0.12828427
30
0
70
32
0
SEQEND
8
0
0
POLYLINE
8
0
62
30
66
1
10
0
20
0
30
0
70
8
0
VERTEX
8
0
62
30
10
0.1979899
20
0.12828427
30
0
70
32
0
VERTEX
8
0
62
30
10
0.22627417
20
0.12828427
30
0
70
32
0
SEQEND
8
0
0
POLYLINE
8
0
62
5
66
1
10
0
20
0
30
0
70
8
0
VERTEX
8
0
62
5
10
0.11313708
20
0.12828427
30
0
70
32
0
VERTEX
8
0
62
5
10
0.12727922
20
0.12828427
30
0
70
32
0
SEQEND
8
0
0
POLYLINE
8
0
62
5
66
1
10
0
20
0
30
0
70
8
0
VERTEX
8
0
62
5
10
0.16970563
20
0.12828427
30
0
70
32
0
VERTEX
8
0
62
5
10
0.18384776
20
0.12828427
30
0
70
32
0
SEQEND
8
0
0
POLYLINE
8
0
62
5
66
1
10
0
20
0
30
0
70
8
0
VERTEX
8
0
62
5
10
0.12727922
20
0.12828427
30
0
70
32
0
VERTEX
8
0
62
5
10
0.14142136
20
0.12828427
30
0
70
32
0
SEQEND
8
0
0
POLYLINE
8
0
62
5
66
1
10
0
20
0
30
0
70
8
0
VERTEX
8
0
62
5
10
0.18384776
20
0.12828427
30
0
70
32
0
VERTEX
8
0
62
5
10
0.1979899
20
0.12828427
30
0
70
32
0
SEQEND
8
0
0
POLYLINE
8
0
62
5
66
1
10
0
20
0
30
0
70
8
0
VERTEX
8
0
62
5
10
0.14142136
20
0.1
30
0
70
32
0
VERTEX
8
0
62
5
10
0.14142136
20
0.15656854
30
0
70
32
0
SEQEND
8
0
0
POLYLINE
8
0
62
5
66
1
10
0
20
0
30
0
70
8
0
VERTEX
8
0
62
5
10
0.16970563
20
0.1
30
0
70
32
0
VERTEX
8
0
62
5
10
0.16970563
20
0.15656854
30
0
70
32
0
SEQEND
8
0
0
POLYLINE
8
0
62
5
66
1
10
0
20
0
30
0
70
8
0
VERTEX
8
0
62
5
10
0.1979899
20
0.1
30
0
70
32
0
VERTEX
8
0
62
5
10
0.1979899
20
0.15656854
30
0
70
32
0
SEQEND
8
0
0
POLYLINE
8
0
62
5
66
1
10
0
20
0
30
0
70
8
0
VERTEX
8
0
62
5
10
0.11313708
20
0.1
30
0
70
32
0
VERTEX
8
0
62
5
10
0.11313708
20
0.15656854
30
0
70
32
0
SEQEND
8
0
0
POLYLINE
8
0
62
5
66
1
10
0
20
0
30
0
70
8
0
VERTEX
8
0
62
5
10
-0.11313708
20
0.1
30
0
70
32
0
VERTEX
8
0
62
5
10
-0.11313708
20
0.15656854
30
0
70
32
0
SEQEND
8
0
0
POLYLINE
8
0
62
5
66
1
10
0
20
0
30
0
70
8
0
VERTEX
8
0
62
5
10
-0.11313708
20
0.1
30
0
70
32
0
VERTEX
8
0
62
5
10
0
20
0.1
30
0
70
32
0
SEQEND
8
0
0
POLYLINE
8
0
62
5
66
1
10
0
20
0
30
0
70
8
0
VERTEX
8
0
62
5
10
-0.11313708
20
0.15656854
30
0
70
32
0
VERTEX
8
0
62
5
10
0
20
0.15656854
30
0
70
32
0
SEQEND
8
0
0
POLYLINE
8
0
62
5
66
1
10
0
20
0
30
0
70
8
0
VERTEX
8
0
62
5
10
-0.084852814
20
0.1
30
0
70
32
0
VERTEX
8
0
62
5
10
-0.084852814
20
0.1
30
0
70
32
0
SEQEND
8
0
0
POLYLINE
8
0
62
5
66
1
10
0
20
0
30
0
70
8
0
VERTEX
8
0
62
5
10
-0.056568542
20
0.1
30
0
70
32
0
VERTEX
8
0
62
5
10
-0.056568542
20
0.1
30
0
70
32
0
SEQEND
8
0
0
POLYLINE
8
0
62
5
66
1
10
0
20
0
30
0
70
8
0
VERTEX
8
0
62
5
10
-0.028284271
20
0.1
30
0
70
32
0
VERTEX
8
0
62
5
10
-0.028284271
20
0.1
30
0
70
32
0
SEQEND
8
0
0
POLYLINE
8
0
62
5
66
1
10
0
20
0
30
0
70
8
0
VERTEX
8
0
62
5
10
-0.084852814
20
0.15656854
30
0
70
32
0
VERTEX
8
0
62
5
10
-0.084852814
20
0.15656854
30
0
70
32
0
SEQEND
8
0
0
POLYLINE
8
0
62
5
66
1
10
0
20
0
30
0
70
8
0
VERTEX
8
0
62
5
10
-0.056568542
20
0.15656854
30
0
70
32
0
VERTEX
8
0
62
5
10
-0.056568542
20
0.15656854
30
0
70
32
0
SEQEND
8
0
0
POLYLINE
8
0
62
5
66
1
10
0
20
0
30
0
70
8
0
VERTEX
8
0
62
5
10
-0.028284271
20
0.15656854
30
0
70
32
0
VERTEX
8
0
62
5
10
-0.028284271
20
0.15656854
30
0
70
32
0
SEQEND
8
0
0
POLYLINE
8
0
62
30
66
1
10
0
20
0
30
0
70
8
0
VERTEX
8
0
62
30
10
-0.11313708
20
0.15656854
30
0
70
32
0
VERTEX
8
0
62
30
10
-0.084852814
20
0.1
30
0
70
32
0
SEQEND
8
0
0
POLYLINE
8
0
62
30
66
1
10
0
20
0
30
0
70
8
0
VERTEX
8
0
62
30
10
-0.084852814
20
0.15656854
30
0
70
32
0
VERTEX
8
0
62
30
10
-0.11313708
20
0.1
30
0
70
32
0
SEQEND
8
0
0
POLYLINE
8
0
62
30
66
1
10
0
20
0
30
0
70
8
0
VERTEX
8
0
62
30
10
-0.056568542
20
0.15656854
30
0
70
32
0
VERTEX
8
0
62
30
10
-0.028284271
20
0.1
30
0
70
32
0
SEQEND
8
0
0
POLYLINE
8
0
62
30
66
1
10
0
20
0
30
0
70
8
0
VERTEX
8
0
62
30
10
-0.028284271
20
0.15656854
30
0
70
32
0
VERTEX
8
0
62
30
10
-0.056568542
20
0.1
30
0
70
32
0
SEQEND
8
0
0
POLYLINE
8
0
62
30
66
1
10
0
20
0
30
0
70
8
0
VERTEX
8
0
62
30
10
-0.084852814
20
0.12828427
30
0
70
32
0
VERTEX
8
0
62
30
10
-0.056568542
20
0.12828427
30
0
70
32
0
SEQEND
8
0
0
POLYLINE
8
0
62
30
66
1
10
0
20
0
30
0
70
8
0
VERTEX
8
0
62
30
10
-0.028284271
20
0.12828427
30
0
70
32
0
VERTEX
8
0
62
30
10
0
20
0.12828427
30
0
70
32
0
SEQEND
8
0
0
POLYLINE
8
0
62
5
66
1
10
0
20
0
30
0
70
8
0
VERTEX
8
0
62
5
10
-0.11313708
20
0.12828427
30
0
70
32
0
VERTEX
8
0
62
5
10
-0.098994949
20
0.12828427
30
0
70
32
0
SEQEND
8
0
0
POLYLINE
8
0
62
5
66
1
10
0
20
0
30
0
70
8
0
VERTEX
8
0
62
5
10
-0.056568542
20
0.12828427
30
0
70
32
0
VERTEX
8
0
62
5
10
-0.042426407
20
0.12828427
30
0
70
32
0
SEQEND
8
0
0
POLYLINE
8
0
62
5
66
1
10
0
20
0
30
0
70
8
0
VERTEX
8
0
62
5
10
-0.098994949
20
0.12828427
30
0
70
32
0
VERTEX
8
0
62
5
10
-0.084852814
20
0.12828427
30
0
70
32
0
SEQEND
8
0
0
POLYLINE
8
0
62
5
66
1
10
0
20
0
30
0
70
8
0
VERTEX
8
0
62
5
10
-0.042426407
20
0.12828427
30
0
70
32
0
VERTEX
8
0
62
5
10
-0.028284271
20
0.12828427
30
0
70
32
0
SEQEND
8
0
0
POLYLINE
8
0
62
5
66
1
10
0
20
0
30
0
70
8
0
VERTEX
8
0
62
5
10
-0.084852814
20
0.1
30
0
70
32
0
VERTEX
8
0
62
5
10
-0.084852814
20
0.15656854
30
0
70
32
0
SEQEND
8
0
0
POLYLINE
8
0
62
5
66
1
10
0
20
0
30
0
70
8
0
VERTEX
8
0
62
5
10
-0.056568542
20
0.1
30
0
70
32
0
VERTEX
8
0
62
5
10
-0.056568542
20
0.15656854
30
0
70
32
0
SEQEND
8
0
0
POLYLINE
8
0
62
5
66
1
10
0
20
0
30
0
70
8
0
VERTEX
8
0
62
5
10
-0.028284271
20
0.1
30
0
70
32
0
VERTEX
8
0
62
5
10
-0.028284271
20
0.15656854
30
0
70
32
0
SEQEND
8
0
0
POLYLINE
8
0
62
5
66
1
10
0
20
0
30
0
70
8
0
VERTEX
8
0
62
5
10
-0.11313708
20
0.1
30
0
70
32
0
VERTEX
8
0
62
5
10
-0.11313708
20
0.15656854
30
0
70
32
0
SEQEND
8
0
0
POLYLINE
8
0
62
5
66
1
10
0
20
0
30
0
70
8
0
VERTEX
8
0
62
5
10
0
20
0.15656854
30
0
70
32
0
VERTEX
8
0
62
5
10
0
20
0.17677056
30
0
70
32
0
SEQEND
8
0
0
POLYLINE
8
0
62
5
66
1
10
0
20
0
30
0
70
8
0
VERTEX
8
0
62
5
10
0.028284271
20
0.15656854
30
0
70
32
0
VERTEX
8
0
62
5
10
0.028284271
20
0.17677056
30
0
70
32
0
SEQEND
8
0
0
POLYLINE
8
0
62
5
66
1
10
0
20
0
30
0
70
8
0
VERTEX
8
0
62
5
10
0.056568542
20
0.15656854
30
0
70
32
0
VERTEX
8
0
62
5
10
0.056568542
20
0.17677056
30
0
70
32
0
SEQEND
8
0
0
POLYLINE
8
0
62
5
66
1
10
0
20
0
30
0
70
8
0
VERTEX
8
0
62
5
10
0.084852814
20
0.15656854
30
0
70
32
0
VERTEX
8
0
62
5
10
0.084852814
20
0.17677056
30
0
70
32
0
SEQEND
8
0
0
POLYLINE
8
0
62
5
66
1
10
0
20
0
30
0
70
8
0
VERTEX
8
0
62
5
10
0.11313708
20
0.15656854
30
0
70
32
0
VERTEX
8
0
62
5
10
0.11313708
20
0.17677056
30
0
70
32
0
SEQEND
8
0
0
POLYLINE
8
0
62
5
66
1
10
0
20
0
30
0
70
8
0
VERTEX
8
0
62
5
10
0.028284271
20
0.15656854
30
0
70
32
0
VERTEX
8
0
62
5
10
0.028284271
20
0.15656854
30
0
70
32
0
SEQEND
8
0
0
POLYLINE
8
0
62
5
66
1
10
0
20
0
30
0
70
8
0
VERTEX
8
0
62
5
10
0.056568542
20
0.15656854
30
0
70
32
0
VERTEX
8
0
62
5
10
0.056568542
20
0.15656854
30
0
70
32
0
SEQEND
8
0
0
POLYLINE
8
0
62
5
66
1
10
0
20
0
30
0
70
8
0
VERTEX
8
0
62
5
10
0.084852814
20
0.15656854
30
0
70
32
0
VERTEX
8
0
62
5
10
0.084852814
20
0.15656854
30
0
70
32
0
SEQEND
8
0
0
POLYLINE
8
0
62
5
66
1
10
0
20
0
30
0
70
8
0
VERTEX
8
0
62
5
10
2.9836228e-19
20
0.17677056
30
0
70
32
0
VERTEX
8
0
62
5
10
2.9836228e-19
20
0.17677056
30
0
70
32
0
SEQEND
8
0
0
POLYLINE
8
0
62
5
66
1
10
0
20
0
30
0
70
8
0
VERTEX
8
0
62
5
10
0.028284271
20
0.17677056
30
0
70
32
0
VERTEX
8
0
62
5
10
0.028284271
20
0.17677056
30
0
70
32
0
SEQEND
8
0
0
POLYLINE
8
0
62
5
66
1
10
0
20
0
30
0
70
8
0
VERTEX
8
0
62
5
10
0.056568542
20
0.17677056
30
0
70
32
0
VERTEX
8
0
62
5
10
0.056568542
20
0.17677056
30
0
70
32
0
SEQEND
8
0
0
POLYLINE
8
0
62
5
66
1
10
0
20
0
30
0
70
8
0
VERTEX
8
0
62
5
10
0.084852814
20
0.17677056
30
0
70
32
0
VERTEX
8
0
62
5
10
0.084852814
20
0.17677056
30
0
70
32
0
SEQEND
8
0
0
POLYLINE
8
0
62
5
66
1
10
0
20
0
30
0
70
8
0
VERTEX
8
0
62
5
10
0.14142136
20
0.15656854
30
0
70
32
0
VERTEX
8
0
62
5
10
0.14142136
20
0.17677056
30
0
70
32
0
SEQEND
8
0
0
POLYLINE
8
0
62
5
66
1
10
0
20
0
30
0
70
8
0
VERTEX
8
0
62
5
10
0.16970563
20
0.15656854
30
0
70
32
0
VERTEX
8
0
62
5
10
0.16970563
20
0.17677056
30
0
70
32
0
SEQEND
8
0
0
POLYLINE
8
0
62
5
66
1
10
0
20
0
30
0
70
8
0
VERTEX
8
0
62
5
10
0.1979899
20
0.15656854
30
0
70
32
0
VERTEX
8
0
62
5
10
0.1979899
20
0.17677056
30
0
70
32
0
SEQEND
8
0
0
POLYLINE
8
0
62
5
66
1
10
0
20
0
30
0
70
8
0
VERTEX
8
0
62
5
10
0.22627417
20
0.15656854
30
0
70
32
0
VERTEX
8
0
62
5
10
0.22627417
20
0.17677056
30
0
70
32
0
SEQEND
8
0
0
POLYLINE
8
0
62
5
66
1
10
0
20
0
30
0
70
8
0
VERTEX
8
0
62
5
10
0.14142136
20
0.15656854
30
0
70
32
0
VERTEX
8
0
62
5
10
0.14142136
20
0.15656854
30
0
70
32
0
SEQEND
8
0
0
POLYLINE
8
0
62
5
66
1
10
0
20
0
30
0
70
8
0
VERTEX
8
0
62
5
10
0.16970563
20
0.15656854
30
0
70
32
0
VERTEX
8
0
62
5
10
0.16970563
20
0.15656854
30
0
70
32
0
SEQEND
8
0
0
POLYLINE
8
0
62
5
66
1
10
0
20
0
30
0
70
8
0
VERTEX
8
0
62
5
10
0.1979899
20
0.15656854
30
0
70
32
0
VERTEX
8
0
62
5
10
0.1979899
20
0.15656854
30
0
70
32
0
SEQEND
8
0
0
POLYLINE
8
0
62
5
66
1
10
0
20
0
30
0
70
8
0
VERTEX
8
0
62
5
10
0.11313708
20
0.17677056
30
0
70
32
0
VERTEX
8
0
62
5
10
0.11313708
20
0.17677056
30
0
70
32
0
SEQEND
8
0
0
POLYLINE
8
0
62
5
66
1
10
0
20
0
30
0
70
8
0
VERTEX
8
0
62
5
10
0.14142136
20
0.17677056
30
0
70
32
0
VERTEX
8
0
62
5
10
0.14142136
20
0.17677056
30
0
70
32
0
SEQEND
8
0
0
POLYLINE
8
0
62
5
66
1
10
0
20
0
30
0
70
8
0
VERTEX
8
0
62
5
10
0.16970563
20
0.17677056
30
0
70
32
0
VERTEX
8
0
62
5
10
0.16970563
20
0.17677056
30
0
70
32
0
SEQEND
8
0
0
POLYLINE
8
0
62
5
66
1
10
0
20
0
30
0
70
8
0
VERTEX
8
0
62
5
10
0.1979899
20
0.17677056
30
0
70
32
0
VERTEX
8
0
62
5
10
0.1979899
20
0.17677056
30
0
70
32
0
SEQEND
8
0
0
POLYLINE
8
0
62
5
66
1
10
0
20
0
30
0
70
8
0
VERTEX
8
0
62
5
10
-0.084852814
20
0.15656854
30
0
70
32
0
VERTEX
8
0
62
5
10
-0.084852814
20
0.17677056
30
0
70
32
0
SEQEND
8
0
0
POLYLINE
8
0
62
5
66
1
10
0
20
0
30
0
70
8
0
VERTEX
8
0
62
5
10
-0.056568542
20
0.15656854
30
0
70
32
0
VERTEX
8
0
62
5
10
-0.056568542
20
0.17677056
30
0
70
32
0
SEQEND
8
0
0
POLYLINE
8
0
62
5
66
1
10
0
20
0
30
0
70
8
0
VERTEX
8
0
62
5
10
-0.028284271
20
0.15656854
30
0
70
32
0
VERTEX
8
0
62
5
10
-0.028284271
20
0.17677056
30
0
70
32
0
SEQEND
8
0
0
POLYLINE
8
0
62
5
66
1
10
0
20
0
30
0
70
8
0
VERTEX
8
0
62
5
10
0
20
0.15656854
30
0
70
32
0
VERTEX
8
0
62
5
10
0
20
0.17677056
30
0
70
32
0
SEQEND
8
0
0
POLYLINE
8
0
62
5
66
1
10
0
20
0
30
0
70
8
0
VERTEX
8
0
62
5
10
-0.084852814
20
0.15656854
30
0
70
32
0
VERTEX
8
0
62
5
10
-0.084852814
20
0.15656854
30
0
70
32
0
SEQEND
8
0
0
POLYLINE
8
0
62
5
66
1
10
0
20
0
30
0
70
8
0
VERTEX
8
0
62
5
10
-0.056568542
20
0.15656854
30
0
70
32
0
VERTEX
8
0
62
5
10
-0.056568542
20
0.15656854
30
0
70
32
0
SEQEND
8
0
0
POLYLINE
8
0
62
5
66
1
10
0
20
0
30
0
70
8
0
VERTEX
8
0
62
5
10
-0.028284271
20
0.15656854
30
0
70
32
0
VERTEX
8
0
62
5
10
-0.028284271
20
0.15656854
30
0
70
32
0
SEQEND
8
0
0
POLYLINE
8
0
62
5
66
1
10
0
20
0
30
0
70
8
0
VERTEX
8
0
62
5
10
-0.11313708
20
0.17677056
30
0
70
32
0
VERTEX
8
0
62
5
10
-0.11313708
20
0.17677056
30
0
70
32
0
SEQEND
8
0
0
POLYLINE
8
0
62
5
66
1
10
0
20
0
30
0
70
8
0
VERTEX
8
0
62
5
10
-0.084852814
20
0.17677056
30
0
70
32
0
VERTEX
8
0
62
5
10
-0.084852814
20
0.17677056
30
0
70
32
0
SEQEND
8
0
0
POLYLINE
8
0
62
5
66
1
10
0
20
0
30
0
70
8
0
VERTEX
8
0
62
5
10
-0.056568542
20
0.17677056
30
0
70
32
0
VERTEX
8
0
62
5
10
-0.056568542
20
0.17677056
30
0
70
32
0
SEQEND
8
0
0
POLYLINE
8
0
62
5
66
1
10
0
20
0
30
0
70
8
0
VERTEX
8
0
62
5
10
-0.028284271
20
0.17677056
30
0
70
32
0
VERTEX
8
0
62
5
10
-0.028284271
20
0.17677056
30
0
70
32
0
SEQEND
8
0
0
POLYLINE
8
0
62
5
66
1
10
0
20
0
30
0
70
8
0
VERTEX
8
0
62
5
10
2.9836228e-19
20
0.17677056
30
0
70
32
0
VERTEX
8
0
62
5
10
2.9836228e-19
20
0.25757865
30
0
70
32
0
SEQEND
8
0
0
POLYLINE
8
0
62
5
66
1
10
0
20
0
30
0
70
8
0
VERTEX
8
0
62
5
10
0.11313708
20
0.17677056
30
0
70
32
0
VERTEX
8
0
62
5
10
0.11313708
20
0.25757865
30
0
70
32
0
SEQEND
8
0
0
POLYLINE
8
0
62
5
66
1
10
0
20
0
30
0
70
8
0
VERTEX
8
0
62
5
10
0.028284271
20
0.17677056
30
0
70
32
0
VERTEX
8
0
62
5
10
0.028284271
20
0.25757865
30
0
70
32
0
SEQEND
8
0
0
POLYLINE
8
0
62
5
66
1
10
0
20
0
30
0
70
8
0
VERTEX
8
0
62
5
10
0.056568542
20
0.17677056
30
0
70
32
0
VERTEX
8
0
62
5
10
0.056568542
20
0.25757865
30
0
70
32
0
SEQEND
8
0
0
POLYLINE
8
0
62
5
66
1
10
0
20
0
30
0
70
8
0
VERTEX
8
0
62
5
10
0.084852814
20
0.17677056
30
0
70
32
0
VERTEX
8
0
62
5
10
0.084852814
20
0.25757865
30
0
70
32
0
SEQEND
8
0
0
POLYLINE
8
0
62
5
66
1
10
0
20
0
30
0
70
8
0
VERTEX
8
0
62
5
10
0.22627417
20
0.17677056
30
0
70
32
0
VERTEX
8
0
62
5
10
0.22627417
20
0.25757865
30
0
70
32
0
SEQEND
8
0
0
POLYLINE
8
0
62
5
66
1
10
0
20
0
30
0
70
8
0
VERTEX
8
0
62
5
10
0.14142136
20
0.17677056
30
0
70
32
0
VERTEX
8
0
62
5
10
0.14142136
20
0.25757865
30
0
70
32
0
SEQEND
8
0
0
POLYLINE
8
0
62
5
66
1
10
0
20
0
30
0
70
8
0
VERTEX
8
0
62
5
10
0.16970563
20
0.17677056
30
0
70
32
0
VERTEX
8
0
62
5
10
0.16970563
20
0.25757865
30
0
70
32
0
SEQEND
8
0
0
POLYLINE
8
0
62
5
66
1
10
0
20
0
30
0
70
8
0
VERTEX
8
0
62
5
10
0.1979899
20
0.17677056
30
0
70
32
0
VERTEX
8
0
62
5
10
0.1979899
20
0.25757865
30
0
70
32
0
SEQEND
8
0
0
POLYLINE
8
0
62
5
66
1
10
0
20
0
30
0
70
8
0
VERTEX
8
0
62
5
10
-0.11313708
20
0.17677056
30
0
70
32
0
VERTEX
8
0
62
5
10
-0.11313708
20
0.25757865
30
0
70
32
0
SEQEND
8
0
0
POLYLINE
8
0
62
5
66
1
10
0
20
0
30
0
70
8
0
VERTEX
8
0
62
5
10
-0.084852814
20
0.17677056
30
0
70
32
0
VERTEX
8
0
62
5
10
-0.084852814
20
0.25757865
30
0
70
32
0
SEQEND
8
0
0
POLYLINE
8
0
62
5
66
1
10
0
20
0
30
0
70
8
0
VERTEX
8
0
62
5
10
-0.056568542
20
0.17677056
30
0
70
32
0
VERTEX
8
0
62
5
10
-0.056568542
20
0.25757865
30
0
70
32
0
SEQEND
8
0
0
POLYLINE
8
0
62
5
66
1
10
0
20
0
30
0
70
8
0
VERTEX
8
0
62
5
10
-0.028284271
20
0.17677056
30
0
70
32
0
VERTEX
8
0
62
5
10
-0.028284271
20
0.25757865
30
0
70
32
0
SEQEND
8
0
0
POLYLINE
8
0
62
5
66
1
10
0
20
0
30
0
70
8
0
VERTEX
8
0
62
5
10
2.9836228e-19
20
0.25757865
30
0
70
32
0
VERTEX
8
0
62
5
10
2.9836228e-19
20
0.3141472
30
0
70
32
0
SEQEND
8
0
0
POLYLINE
8
0
62
5
66
1
10
0
20
0
30
0
70
8
0
VERTEX
8
0
62
5
10
0.11313708
20
0.3141472
30
0
70
32
0
VERTEX
8
0
62
5
10
0.11313708
20
0.25757865
30
0
70
32
0
SEQEND
8
0
0
POLYLINE
8
0
62
5
66
1
10
0
20
0
30
0
70
8
0
VERTEX
8
0
62
5
10
2.9836228e-19
20
0.25757865
30
0
70
32
0
VERTEX
8
0
62
5
10
0.11313708
20
0.25757865
30
0
70
32
0
SEQEND
8
0
0
POLYLINE
8
0
62
5
66
1
10
0
20
0
30
0
70
8
0
VERTEX
8
0
62
5
10
2.9836228e-19
20
0.3141472
30
0
70
32
0
VERTEX
8
0
62
5
10
0.11313708
20
0.3141472
30
0
70
32
0
SEQEND
8
0
0
POLYLINE
8
0
62
5
66
1
10
0
20
0
30
0
70
8
0
VERTEX
8
0
62
5
10
0.028284271
20
0.25757865
30
0
70
32
0
VERTEX
8
0
62
5
10
0.028284271
20
0.25757865
30
0
70
32
0
SEQEND
8
0
0
POLYLINE
8
0
62
5
66
1
10
0
20
0
30
0
70
8
0
VERTEX
8
0
62
5
10
0.056568542
20
0.25757865
30
0
70
32
0
VERTEX
8
0
62
5
10
0.056568542
20
0.25757865
30
0
70
32
0
SEQEND
8
0
0
POLYLINE
8
0
62
5
66
1
10
0
20
0
30
0
70
8
0
VERTEX
8
0
62
5
10
0.084852814
20
0.25757865
30
0
70
32
0
VERTEX
8
0
62
5
10
0.084852814
20
0.25757865
30
0
70
32
0
SEQEND
8
0
0
POLYLINE
8
0
62
5
66
1
10
0
20
0
30
0
70
8
0
VERTEX
8
0
62
5
10
0.028284271
20
0.3141472
30
0
70
32
0
VERTEX
8
0
62
5
10
0.028284271
20
0.3141472
30
0
70
32
0
SEQEND
8
0
0
POLYLINE
8
0
62
5
66
1
10
0
20
0
30
0
70
8
0
VERTEX
8
0
62
5
10
0.056568542
20
0.3141472
30
0
70
32
0
VERTEX
8
0
62
5
10
0.056568542
20
0.3141472
30
0
70
32
0
SEQEND
8
0
0
POLYLINE
8
0
62
5
66
1
10
0
20
0
30
0
70
8
0
VERTEX
8
0
62
5
10
0.084852814
20
0.3141472
30
0
70
32
0
VERTEX
8
0
62
5
10
0.084852814
20
0.3141472
30
0
70
32
0
SEQEND
8
0
0
POLYLINE
8
0
62
30
66
1
10
0
20
0
30
0
70
8
0
VERTEX
8
0
62
30
10
2.9836228e-19
20
0.3141472
30
0
70
32
0
VERTEX
8
0
62
30
10
0.028284271
20
0.25757865
30
0
70
32
0
SEQEND
8
0
0
POLYLINE
8
0
62
30
66
1
10
0
20
0
30
0
70
8
0
VERTEX
8
0
62
30
10
0.028284271
20
0.3141472
30
0
70
32
0
VERTEX
8
0
62
30
10
2.9836228e-19
20
0.25757865
30
0
70
32
0
SEQEND
8
0
0
POLYLINE
8
0
62
30
66
1
10
0
20
0
30
0
70
8
0
VERTEX
8
0
62
30
10
0.056568542
20
0.3141472
30
0
70
32
0
VERTEX
8
0
62
30
10
0.084852814
20
0.25757865
30
0
70
32
0
SEQEND
8
0
0
POLYLINE
8
0
62
30
66
1
10
0
20
0
30
0
70
8
0
VERTEX
8
0
62
30
10
0.084852814
20
0.3141472
30
0
70
32
0
VERTEX
8
0
62
30
10
0.056568542
20
0.25757865
30
0
70
32
0
SEQEND
8
0
0
POLYLINE
8
0
62
30
66
1
10
0
20
0
30
0
70
8
0
VERTEX
8
0
62
30
10
0.028284271
20
0.28586293
30
0
70
32
0
VERTEX
8
0
62
30
10
0.056568542
20
0.28586293
30
0
70
32
0
SEQEND
8
0
0
POLYLINE
8
0
62
30
66
1
10
0
20
0
30
0
70
8
0
VERTEX
8
0
62
30
10
0.084852814
20
0.28586293
30
0
70
32
0
VERTEX
8
0
62
30
10
0.11313708
20
0.28586293
30
0
70
32
0
SEQEND
8
0
0
POLYLINE
8
0
62
5
66
1
10
0
20
0
30
0
70
8
0
VERTEX
8
0
62
5
10
2.9836228e-19
20
0.28586293
30
0
70
32
0
VERTEX
8
0
62
5
10
0.014142136
20
0.28586293
30
0
70
32
0
SEQEND
8
0
0
POLYLINE
8
0
62
5
66
1
10
0
20
0
30
0
70
8
0
VERTEX
8
0
62
5
10
0.056568542
20
0.28586293
30
0
70
32
0
VERTEX
8
0
62
5
10
0.070710678
20
0.28586293
30
0
70
32
0
SEQEND
8
0
0
POLYLINE
8
0
62
5
66
1
10
0
20
0
30
0
70
8
0
VERTEX
8
0
62
5
10
0.014142136
20
0.28586293
30
0
70
32
0
VERTEX
8
0
62
5
10
0.028284271
20
0.28586293
30
0
70
32
0
SEQEND
8
0
0
POLYLINE
8
0
62
5
66
1
10
0
20
0
30
0
70
8
0
VERTEX
8
0
62
5
10
0.070710678
20
0.28586293
30
0
70
32
0
VERTEX
8
0
62
5
10
0.084852814
20
0.28586293
30
0
70
32
0
SEQEND
8
0
0
POLYLINE
8
0
62
5
66
1
10
0
20
0
30
0
70
8
0
VERTEX
8
0
62
5
10
0.028284271
20
0.25757865
30
0
70
32
0
VERTEX
8
0
62
5
10
0.028284271
20
0.3141472
30
0
70
32
0
SEQEND
8
0
0
POLYLINE
8
0
62
5
66
1
10
0
20
0
30
0
70
8
0
VERTEX
8
0
62
5
10
0.056568542
20
0.25757865
30
0
70
32
0
VERTEX
8
0
62
5
10
0.056568542
20
0.3141472
30
0
70
32
0
SEQEND
8
0
0
POLYLINE
8
0
62
5
66
1
10
0
20
0
30
0
70
8
0
VERTEX
8
0
62
5
10
0.084852814
20
0.25757865
30
0
70
32
0
VERTEX
8
0
62
5
10
0.084852814
20
0.3141472
30
0
70
32
0
SEQEND
8
0
0
POLYLINE
8
0
62
5
66
1
10
0
20
0
30
0
70
8
0
VERTEX
8
0
62
5
10
2.9836228e-19
20
0.25757865
30
0
70
32
0
VERTEX
8
0
62
5
10
2.9836228e-19
20
0.3141472
30
0
70
32
0
SEQEND
8
0
0
POLYLINE
8
0
62
5
66
1
10
0
20
0
30
0
70
8
0
VERTEX
8
0
62
5
10
0.22627417
20
0.3141472
30
0
70
32
0
VERTEX
8
0
62
5
10
0.22627417
20
0.25757865
30
0
70
32
0
SEQEND
8
0
0
POLYLINE
8
0
62
5
66
1
10
0
20
0
30
0
70
8
0
VERTEX
8
0
62
5
10
0.11313708
20
0.25757865
30
0
70
32
0
VERTEX
8
0
62
5
10
0.22627417
20
0.25757865
30
0
70
32
0
SEQEND
8
0
0
POLYLINE
8
0
62
5
66
1
10
0
20
0
30
0
70
8
0
VERTEX
8
0
62
5
10
0.11313708
20
0.3141472
30
0
70
32
0
VERTEX
8
0
62
5
10
0.22627417
20
0.3141472
30
0
70
32
0
SEQEND
8
0
0
POLYLINE
8
0
62
5
66
1
10
0
20
0
30
0
70
8
0
VERTEX
8
0
62
5
10
0.14142136
20
0.25757865
30
0
70
32
0
VERTEX
8
0
62
5
10
0.14142136
20
0.25757865
30
0
70
32
0
SEQEND
8
0
0
POLYLINE
8
0
62
5
66
1
10
0
20
0
30
0
70
8
0
VERTEX
8
0
62
5
10
0.16970563
20
0.25757865
30
0
70
32
0
VERTEX
8
0
62
5
10
0.16970563
20
0.25757865
30
0
70
32
0
SEQEND
8
0
0
POLYLINE
8
0
62
5
66
1
10
0
20
0
30
0
70
8
0
VERTEX
8
0
62
5
10
0.1979899
20
0.25757865
30
0
70
32
0
VERTEX
8
0
62
5
10
0.1979899
20
0.25757865
30
0
70
32
0
SEQEND
8
0
0
POLYLINE
8
0
62
5
66
1
10
0
20
0
30
0
70
8
0
VERTEX
8
0
62
5
10
0.14142136
20
0.3141472
30
0
70
32
0
VERTEX
8
0
62
5
10
0.14142136
20
0.3141472
30
0
70
32
0
SEQEND
8
0
0
POLYLINE
8
0
62
5
66
1
10
0
20
0
30
0
70
8
0
VERTEX
8
0
62
5
10
0.16970563
20
0.3141472
30
0
70
32
0
VERTEX
8
0
62
5
10
0.16970563
20
0.3141472
30
0
70
32
0
SEQEND
8
0
0
POLYLINE
8
0
62
5
66
1
10
0
20
0
30
0
70
8
0
VERTEX
8
0
62
5
10
0.1979899
20
0.3141472
30
0
70
32
0
VERTEX
8
0
62
5
10
0.1979899
20
0.3141472
30
0
70
32
0
SEQEND
8
0
0
POLYLINE
8
0
62
30
66
1
10
0
20
0
30
0
70
8
0
VERTEX
8
0
62
30
10
0.11313708
20
0.3141472
30
0
70
32
0
VERTEX
8
0
62
30
10
0.14142136
20
0.25757865
30
0
70
32
0
SEQEND
8
0
0
POLYLINE
8
0
62
30
66
1
10
0
20
0
30
0
70
8
0
VERTEX
8
0
62
30
10
0.14142136
20
0.3141472
30
0
70
32
0
VERTEX
8
0
62
30
10
0.11313708
20
0.25757865
30
0
70
32
0
SEQEND
8
0
0
POLYLINE
8
0
62
30
66
1
10
0
20
0
30
0
70
8
0
VERTEX
8
0
62
30
10
0.16970563
20
0.3141472
30
0
70
32
0
VERTEX
8
0
62
30
10
0.1979899
20
0.25757865
30
0
70
32
0
SEQEND
8
0
0
POLYLINE
8
0
62
30
66
1
10
0
20
0
30
0
70
8
0
VERTEX
8
0
62
30
10
0.1979899
20
0.3141472
30
0
70
32
0
VERTEX
8
0
62
30
10
0.16970563
20
0.25757865
30
0
70
32
0
SEQEND
8
0
0
POLYLINE
8
0
62
30
66
1
10
0
20
0
30
0
70
8
0
VERTEX
8
0
62
30
10
0.14142136
20
0.28586293
30
0
70
32
0
VERTEX
8
0
62
30
10
0.16970563
20
0.28586293
30
0
70
32
0
SEQEND
8
0
0
POLYLINE
8
0
62
30
66
1
10
0
20
0
30
0
70
8
0
VERTEX
8
0
62
30
10
0.1979899
20
0.28586293
30
0
70
32
0
VERTEX
8
0
62
30
10
0.22627417
20
0.28586293
30
0
70
32
0
SEQEND
8
0
0
POLYLINE
8
0
62
5
66
1
10
0
20
0
30
0
70
8
0
VERTEX
8
0
62
5
10
0.11313708
20
0.28586293
30
0
70
32
0
VERTEX
8
0
62
5
10
0.12727922
20
0.28586293
30
0
70
32
0
SEQEND
8
0
0
POLYLINE
8
0
62
5
66
1
10
0
20
0
30
0
70
8
0
VERTEX
8
0
62
5
10
0.16970563
20
0.28586293
30
0
70
32
0
VERTEX
8
0
62
5
10
0.18384776
20
0.28586293
30
0
70
32
0
SEQEND
8
0
0
POLYLINE
8
0
62
5
66
1
10
0
20
0
30
0
70
8
0
VERTEX
8
0
62
5
10
0.12727922
20
0.28586293
30
0
70
32
0
VERTEX
8
0
62
5
10
0.14142136
20
0.28586293
30
0
70
32
0
SEQEND
8
0
0
POLYLINE
8
0
62
5
66
1
10
0
20
0
30
0
70
8
0
VERTEX
8
0
62
5
10
0.18384776
20
0.28586293
30
0
70
32
0
VERTEX
8
0
62
5
10
0.1979899
20
0.28586293
30
0
70
32
0
SEQEND
8
0
0
POLYLINE
8
0
62
5
66
1
10
0
20
0
30
0
70
8
0
VERTEX
8
0
62
5
10
0.14142136
20
0.25757865
30
0
70
32
0
VERTEX
8
0
62
5
10
0.14142136
20
0.3141472
30
0
70
32
0
SEQEND
8
0
0
POLYLINE
8
0
62
5
66
1
10
0
20
0
30
0
70
8
0
VERTEX
8
0
62
5
10
0.16970563
20
0.25757865
30
0
70
32
0
VERTEX
8
0
62
5
10
0.16970563
20
0.3141472
30
0
70
32
0
SEQEND
8
0
0
POLYLINE
8
0
62
5
66
1
10
0
20
0
30
0
70
8
0
VERTEX
8
0
62
5
10
0.1979899
20
0.25757865
30
0
70
32
0
VERTEX
8
0
62
5
10
0.1979899
20
0.3141472
30
0
70
32
0
SEQEND
8
0
0
POLYLINE
8
0
62
5
66
1
10
0
20
0
30
0
70
8
0
VERTEX
8
0
62
5
10
0.11313708
20
0.25757865
30
0
70
32
0
VERTEX
8
0
62
5
10
0.11313708
20
0.3141472
30
0
70
32
0
SEQEND
8
0
0
POLYLINE
8
0
62
5
66
1
10
0
20
0
30
0
70
8
0
VERTEX
8
0
62
5
10
-0.11313708
20
0.25757865
30
0
70
32
0
VERTEX
8
0
62
5
10
-0.11313708
20
0.3141472
30
0
70
32
0
SEQEND
8
0
0
POLYLINE
8
0
62
5
66
1
10
0
20
0
30
0
70
8
0
VERTEX
8
0
62
5
10
-0.11313708
20
0.25757865
30
0
70
32
0
VERTEX
8
0
62
5
10
0
20
0.25757865
30
0
70
32
0
SEQEND
8
0
0
POLYLINE
8
0
62
5
66
1
10
0
20
0
30
0
70
8
0
VERTEX
8
0
62
5
10
-0.11313708
20
0.3141472
30
0
70
32
0
VERTEX
8
0
62
5
10
0
20
0.3141472
30
0
70
32
0
SEQEND
8
0
0
POLYLINE
8
0
62
5
66
1
10
0
20
0
30
0
70
8
0
VERTEX
8
0
62
5
10
-0.084852814
20
0.25757865
30
0
70
32
0
VERTEX
8
0
62
5
10
-0.084852814
20
0.25757865
30
0
70
32
0
SEQEND
8
0
0
POLYLINE
8
0
62
5
66
1
10
0
20
0
30
0
70
8
0
VERTEX
8
0
62
5
10
-0.056568542
20
0.25757865
30
0
70
32
0
VERTEX
8
0
62
5
10
-0.056568542
20
0.25757865
30
0
70
32
0
SEQEND
8
0
0
POLYLINE
8
0
62
5
66
1
10
0
20
0
30
0
70
8
0
VERTEX
8
0
62
5
10
-0.028284271
20
0.25757865
30
0
70
32
0
VERTEX
8
0
62
5
10
-0.028284271
20
0.25757865
30
0
70
32
0
SEQEND
8
0
0
POLYLINE
8
0
62
5
66
1
10
0
20
0
30
0
70
8
0
VERTEX
8
0
62
5
10
-0.084852814
20
0.3141472
30
0
70
32
0
VERTEX
8
0
62
5
10
-0.084852814
20
0.3141472
30
0
70
32
0
SEQEND
8
0
0
POLYLINE
8
0
62
5
66
1
10
0
20
0
30
0
70
8
0
VERTEX
8
0
62
5
10
-0.056568542
20
0.3141472
30
0
70
32
0
VERTEX
8
0
62
5
10
-0.056568542
20
0.3141472
30
0
70
32
0
SEQEND
8
0
0
POLYLINE
8
0
62
5
66
1
10
0
20
0
30
0
70
8
0
VERTEX
8
0
62
5
10
-0.028284271
20
0.3141472
30
0
70
32
0
VERTEX
8
0
62
5
10
-0.028284271
20
0.3141472
30
0
70
32
0
SEQEND
8
0
0
POLYLINE
8
0
62
30
66
1
10
0
20
0
30
0
70
8
0
VERTEX
8
0
62
30
10
-0.11313708
20
0.3141472
30
0
70
32
0
VERTEX
8
0
62
30
10
-0.084852814
20
0.25757865
30
0
70
32
0
SEQEND
8
0
0
POLYLINE
8
0
62
30
66
1
10
0
20
0
30
0
70
8
0
VERTEX
8
0
62
30
10
-0.084852814
20
0.3141472
30
0
70
32
0
VERTEX
8
0
62
30
10
-0.11313708
20
0.25757865
30
0
70
32
0
SEQEND
8
0
0
POLYLINE
8
0
62
30
66
1
10
0
20
0
30
0
70
8
0
VERTEX
8
0
62
30
10
-0.056568542
20
0.3141472
30
0
70
32
0
VERTEX
8
0
62
30
10
-0.028284271
20
0.25757865
30
0
70
32
0
SEQEND
8
0
0
POLYLINE
8
0
62
30
66
1
10
0
20
0
30
0
70
8
0
VERTEX
8
0
62
30
10
-0.028284271
20
0.3141472
30
0
70
32
0
VERTEX
8
0
62
30
10
-0.056568542
20
0.25757865
30
0
70
32
0
SEQEND
8
0
0
POLYLINE
8
0
62
30
66
1
10
0
20
0
30
0
70
8
0
VERTEX
8
0
62
30
10
-0.084852814
20
0.28586293
30
0
70
32
0
VERTEX
8
0
62
30
10
-0.056568542
20
0.28586293
30
0
70
32
0
SEQEND
8
0
0
POLYLINE
8
0
62
30
66
1
10
0
20
0
30
0
70
8
0
VERTEX
8
0
62
30
10
-0.028284271
20
0.28586293
30
0
70
32
0
VERTEX
8
0
62
30
10
0
20
0.28586293
30
0
70
32
0
SEQEND
8
0
0
POLYLINE
8
0
62
5
66
1
10
0
20
0
30
0
70
8
0
VERTEX
8
0
62
5
10
-0.11313708
20
0.28586293
30
0
70
32
0
VERTEX
8
0
62
5
10
-0.098994949
20
0.28586293
30
0
70
32
0
SEQEND
8
0
0
POLYLINE
8
0
62
5
66
1
10
0
20
0
30
0
70
8
0
VERTEX
8
0
62
5
10
-0.056568542
20
0.28586293
30
0
70
32
0
VERTEX
8
0
62
5
10
-0.042426407
20
0.28586293
30
0
70
32
0
SEQEND
8
0
0
POLYLINE
8
0
62
5
66
1
10
0
20
0
30
0
70
8
0
VERTEX
8
0
62
5
10
-0.098994949
20
0.28586293
30
0
70
32
0
VERTEX
8
0
62
5
10
-0.084852814
20
0.28586293
30
0
70
32
0
SEQEND
8
0
0
POLYLINE
8
0
62
5
66
1
10
0
20
0
30
0
70
8
0
VERTEX
8
0
62
5
10
-0.042426407
20
0.28586293
30
0
70
32
0
VERTEX
8
0
62
5
10
-0.028284271
20
0.28586293
30
0
70
32
0
SEQEND
8
0
0
POLYLINE
8
0
62
5
66
1
10
0
20
0
30
0
70
8
0
VERTEX
8
0
62
5
10
-0.084852814
20
0.25757865
30
0
70
32
0
VERTEX
8
0
62
5
10
-0.084852814
20
0.3141472
30
0
70
32
0
SEQEND
8
0
0
POLYLINE
8
0
62
5
66
1
10
0
20
0
30
0
70
8
0
VERTEX
8
0
62
5
10
-0.056568542
20
0.25757865
30
0
70
32
0
VERTEX
8
0
62
5
10
-0.056568542
20
0.3141472
30
0
70
32
0
SEQEND
8
0
0
POLYLINE
8
0
62
5
66
1
10
0
20
0
30
0
70
8
0
VERTEX
8
0
62
5
10
-0.028284271
20
0.25757865
30
0
70
32
0
VERTEX
8
0
62
5
10
-0.028284271
20
0.3141472
30
0
70
32
0
SEQEND
8
0
0
POLYLINE
8
0
62
5
66
1
10
0
20
0
30
0
70
8
0
VERTEX
8
0
62
5
10
-0.11313708
20
0.25757865
30
0
70
32
0
VERTEX
8
0
62
5
10
-0.11313708
20
0.3141472
30
0
70
32
0
SEQEND
8
0
0
POLYLINE
8
0
62
5
66
1
10
0
20
0
30
0
70
8
0
VERTEX
8
0
62
5
10
2.9836228e-19
20
0.3141472
30
0
70
32
0
VERTEX
8
0
62
5
10
2.9836228e-19
20
0.33434924
30
0
70
32
0
SEQEND
8
0
0
POLYLINE
8
0
62
5
66
1
10
0
20
0
30
0
70
8
0
VERTEX
8
0
62
5
10
0.028284271
20
0.3141472
30
0
70
32
0
VERTEX
8
0
62
5
10
0.028284271
20
0.33434924
30
0
70
32
0
SEQEND
8
0
0
POLYLINE
8
0
62
5
66
1
10
0
20
0
30
0
70
8
0
VERTEX
8
0
62
5
10
0.056568542
20
0.3141472
30
0
70
32
0
VERTEX
8
0
62
5
10
0.056568542
20
0.33434924
30
0
70
32
0
SEQEND
8
0
0
POLYLINE
8
0
62
5
66
1
10
0
20
0
30
0
70
8
0
VERTEX
8
0
62
5
10
0.084852814
20
0.3141472
30
0
70
32
0
VERTEX
8
0
62
5
10
0.084852814
20
0.33434924
30
0
70
32
0
SEQEND
8
0
0
POLYLINE
8
0
62
5
66
1
10
0
20
0
30
0
70
8
0
VERTEX
8
0
62
5
10
0.11313708
20
0.3141472
30
0
70
32
0
VERTEX
8
0
62
5
10
0.11313708
20
0.33434924
30
0
70
32
0
SEQEND
8
0
0
POLYLINE
8
0
62
5
66
1
10
0
20
0
30
0
70
8
0
VERTEX
8
0
62
5
10
0.028284271
20
0.3141472
30
0
70
32
0
VERTEX
8
0
62
5
10
0.028284271
20
0.3141472
30
0
70
32
0
SEQEND
8
0
0
POLYLINE
8
0
62
5
66
1
10
0
20
0
30
0
70
8
0
VERTEX
8
0
62
5
10
0.056568542
20
0.3141472
30
0
70
32
0
VERTEX
8
0
62
5
10
0.056568542
20
0.3141472
30
0
70
32
0
SEQEND
8
0
0
POLYLINE
8
0
62
5
66
1
10
0
20
0
30
0
70
8
0
VERTEX
8
0
62
5
10
0.084852814
20
0.3141472
30
0
70
32
0
VERTEX
8
0
62
5
10
0.084852814
20
0.3141472
30
0
70
32
0
SEQEND
8
0
0
POLYLINE
8
0
62
5
66
1
10
0
20
0
30
0
70
8
0
VERTEX
8
0
62
5
10
0.028284271
20
0.33434924
30
0
70
32
0
VERTEX
8
0
62
5
10
0.028284271
20
0.33434924
30
0
70
32
0
SEQEND
8
0
0
POLYLINE
8
0
62
5
66
1
10
0
20
0
30
0
70
8
0
VERTEX
8
0
62
5
10
0.056568542
20
0.33434924
30
0
70
32
0
VERTEX
8
0
62
5
10
0.056568542
20
0.33434924
30
0
70
32
0
SEQEND
8
0
0
POLYLINE
8
0
62
5
66
1
10
0
20
0
30
0
70
8
0
VERTEX
8
0
62
5
10
0.084852814
20
0.33434924
30
0
70
32
0
VERTEX
8
0
62
5
10
0.084852814
20
0.33434924
30
0
70
32
0
SEQEND
8
0
0
POLYLINE
8
0
62
5
66
1
10
0
20
0
30
0
70
8
0
VERTEX
8
0
62
5
10
0.14142136
20
0.3141472
30
0
70
32
0
VERTEX
8
0
62
5
10
0.14142136
20
0.33434924
30
0
70
32
0
SEQEND
8
0
0
POLYLINE
8
0
62
5
66
1
10
0
20
0
30
0
70
8
0
VERTEX
8
0
62
5
10
0.16970563
20
0.3141472
30
0
70
32
0
VERTEX
8
0
62
5
10
0.16970563
20
0.33434924
30
0
70
32
0
SEQEND
8
0
0
POLYLINE
8
0
62
5
66
1
10
0
20
0
30
0
70
8
0
VERTEX
8
0
62
5
10
0.1979899
20
0.3141472
30
0
70
32
0
VERTEX
8
0
62
5
10
0.1979899
20
0.33434924
30
0
70
32
0
SEQEND
8
0
0
POLYLINE
8
0
62
5
66
1
10
0
20
0
30
0
70
8
0
VERTEX
8
0
62
5
10
0.22627417
20
0.3141472
30
0
70
32
0
VERTEX
8
0
62
5
10
0.22627417
20
0.33434924
30
0
70
32
0
SEQEND
8
0
0
POLYLINE
8
0
62
5
66
1
10
0
20
0
30
0
70
8
0
VERTEX
8
0
62
5
10
0.14142136
20
0.3141472
30
0
70
32
0
VERTEX
8
0
62
5
10
0.14142136
20
0.3141472
30
0
70
32
0
SEQEND
8
0
0
POLYLINE
8
0
62
5
66
1
10
0
20
0
30
0
70
8
0
VERTEX
8
0
62
5
10
0.16970563
20
0.3141472
30
0
70
32
0
VERTEX
8
0
62
5
10
0.16970563
20
0.3141472
30
0
70
32
0
SEQEND
8
0
0
POLYLINE
8
0
62
5
66
1
10
0
20
0
30
0
70
8
0
VERTEX
8
0
62
5
10
0.1979899
20
0.3141472
30
0
70
32
0
VERTEX
8
0
62
5
10
0.1979899
20
0.3141472
30
0
70
32
0
SEQEND
8
0
0
POLYLINE
8
0
62
5
66
1
10
0
20
0
30
0
70
8
0
VERTEX
8
0
62
5
10
0.14142136
20
0.33434924
30
0
70
32
0
VERTEX
8
0
62
5
10
0.14142136
20
0.33434924
30
0
70
32
0
SEQEND
8
0
0
POLYLINE
8
0
62
5
66
1
10
0
20
0
30
0
70
8
0
VERTEX
8
0
62
5
10
0.16970563
20
0.33434924
30
0
70
32
0
VERTEX
8
0
62
5
10
0.16970563
20
0.33434924
30
0
70
32
0
SEQEND
8
0
0
POLYLINE
8
0
62
5
66
1
10
0
20
0
30
0
70
8
0
VERTEX
8
0
62
5
10
0.1979899
20
0.33434924
30
0
70
32
0
VERTEX
8
0
62
5
10
0.1979899
20
0.33434924
30
0
70
32
0
SEQEND
8
0
0
POLYLINE
8
0
62
5
66
1
10
0
20
0
30
0
70
8
0
VERTEX
8
0
62
5
10
-0.084852814
20
0.3141472
30
0
70
32
0
VERTEX
8
0
62
5
10
-0.084852814
20
0.33434924
30
0
70
32
0
SEQEND
8
0
0
POLYLINE
8
0
62
5
66
1
10
0
20
0
30
0
70
8
0
VERTEX
8
0
62
5
10
-0.056568542
20
0.3141472
30
0
70
32
0
VERTEX
8
0
62
5
10
-0.056568542
20
0.33434924
30
0
70
32
0
SEQEND
8
0
0
POLYLINE
8
0
62
5
66
1
10
0
20
0
30
0
70
8
0
VERTEX
8
0
62
5
10
-0.028284271
20
0.3141472
30
0
70
32
0
VERTEX
8
0
62
5
10
-0.028284271
20
0.33434924
30
0
70
32
0
SEQEND
8
0
0
POLYLINE
8
0
62
5
66
1
10
0
20
0
30
0
70
8
0
VERTEX
8
0
62
5
10
0
20
0.3141472
30
0
70
32
0
VERTEX
8
0
62
5
10
0
20
0.33434924
30
0
70
32
0
SEQEND
8
0
0
POLYLINE
8
0
62
5
66
1
10
0
20
0
30
0
70
8
0
VERTEX
8
0
62
5
10
-0.084852814
20
0.3141472
30
0
70
32
0
VERTEX
8
0
62
5
10
-0.084852814
20
0.3141472
30
0
70
32
0
SEQEND
8
0
0
POLYLINE
8
0
62
5
66
1
10
0
20
0
30
0
70
8
0
VERTEX
8
0
62
5
10
-0.056568542
20
0.3141472
30
0
70
32
0
VERTEX
8
0
62
5
10
-0.056568542
20
0.3141472
30
0
70
32
0
SEQEND
8
0
0
POLYLINE
8
0
62
5
66
1
10
0
20
0
30
0
70
8
0
VERTEX
8
0
62
5
10
-0.028284271
20
0.3141472
30
0
70
32
0
VERTEX
8
0
62
5
10
-0.028284271
20
0.3141472
30
0
70
32
0
SEQEND
8
0
0
POLYLINE
8
0
62
5
66
1
10
0
20
0
30
0
70
8
0
VERTEX
8
0
62
5
10
-0.084852814
20
0.33434924
30
0
70
32
0
VERTEX
8
0
62
5
10
-0.084852814
20
0.33434924
30
0
70
32
0
SEQEND
8
0
0
POLYLINE
8
0
62
5
66
1
10
0
20
0
30
0
70
8
0
VERTEX
8
0
62
5
10
-0.056568542
20
0.33434924
30
0
70
32
0
VERTEX
8
0
62
5
10
-0.056568542
20
0.33434924
30
0
70
32
0
SEQEND
8
0
0
POLYLINE
8
0
62
5
66
1
10
0
20
0
30
0
70
8
0
VERTEX
8
0
62
5
10
-0.028284271
20
0.33434924
30
0
70
32
0
VERTEX
8
0
62
5
10
-0.028284271
20
0.33434924
30
0
70
32
0
SEQEND
8
0
0
POLYLINE
8
0
62
5
66
1
10
0
20
0
30
0
70
8
0
VERTEX
8
0
62
5
10
2.9836228e-19
20
0.33434924
30
0
70
32
0
VERTEX
8
0
62
5
10
2.9836228e-19
20
0.4151574
30
0
70
32
0
SEQEND
8
0
0
POLYLINE
8
0
62
5
66
1
10
0
20
0
30
0
70
8
0
VERTEX
8
0
62
5
10
0.11313708
20
0.33434924
30
0
70
32
0
VERTEX
8
0
62
5
10
0.11313708
20
0.4151574
30
0
70
32
0
SEQEND
8
0
0
POLYLINE
8
0
62
5
66
1
10
0
20
0
30
0
70
8
0
VERTEX
8
0
62
5
10
0.028284271
20
0.33434924
30
0
70
32
0
VERTEX
8
0
62
5
10
0.028284271
20
0.4151574
30
0
70
32
0
SEQEND
8
0
0
POLYLINE
8
0
62
5
66
1
10
0
20
0
30
0
70
8
0
VERTEX
8
0
62
5
10
0.056568542
20
0.33434924
30
0
70
32
0
VERTEX
8
0
62
5
10
0.056568542
20
0.4151574
30
0
70
32
0
SEQEND
8
0
0
POLYLINE
8
0
62
5
66
1
10
0
20
0
30
0
70
8
0
VERTEX
8
0
62
5
10
0.084852814
20
0.33434924
30
0
70
32
0
VERTEX
8
0
62
5
10
0.084852814
20
0.4151574
30
0
70
32
0
SEQEND
8
0
0
POLYLINE
8
0
62
5
66
1
10
0
20
0
30
0
70
8
0
VERTEX
8
0
62
5
10
0.22627417
20
0.33434924
30
0
70
32
0
VERTEX
8
0
62
5
10
0.22627417
20
0.4151574
30
0
70
32
0
SEQEND
8
0
0
POLYLINE
8
0
62
5
66
1
10
0
20
0
30
0
70
8
0
VERTEX
8
0
62
5
10
0.14142136
20
0.33434924
30
0
70
32
0
VERTEX
8
0
62
5
10
0.14142136
20
0.4151574
30
0
70
32
0
SEQEND
8
0
0
POLYLINE
8
0
62
5
66
1
10
0
20
0
30
0
70
8
0
VERTEX
8
0
62
5
10
0.16970563
20
0.33434924
30
0
70
32
0
VERTEX
8
0
62
5
10
0.16970563
20
0.4151574
30
0
70
32
0
SEQEND
8
0
0
POLYLINE
8
0
62
5
66
1
10
0
20
0
30
0
70
8
0
VERTEX
8
0
62
5
10
0.1979899
20
0.33434924
30
0
70
32
0
VERTEX
8
0
62
5
10
0.1979899
20
0.4151574
30
0
70
32
0
SEQEND
8
0
0
POLYLINE
8
0
62
5
66
1
10
0
20
0
30
0
70
8
0
VERTEX
8
0
62
5
10
-0.11313708
20
0.33434924
30
0
70
32
0
VERTEX
8
0
62
5
10
-0.11313708
20
0.4151574
30
0
70
32
0
SEQEND
8
0
0
POLYLINE
8
0
62
5
66
1
10
0
20
0
30
0
70
8
0
VERTEX
8
0
62
5
10
-0.084852814
20
0.33434924
30
0
70
32
0
VERTEX
8
0
62
5
10
-0.084852814
20
0.4151574
30
0
70
32
0
SEQEND
8
0
0
POLYLINE
8
0
62
5
66
1
10
0
20
0
30
0
70
8
0
VERTEX
8
0
62
5
10
-0.056568542
20
0.33434924
30
0
70
32
0
VERTEX
8
0
62
5
10
-0.056568542
20
0.4151574
30
0
70
32
0
SEQEND
8
0
0
POLYLINE
8
0
62
5
66
1
10
0
20
0
30
0
70
8
0
VERTEX
8
0
62
5
10
-0.028284271
20
0.33434924
30
0
70
32
0
VERTEX
8
0
62
5
10
-0.028284271
20
0.4151574
30
0
70
32
0
SEQEND
8
0
0
POLYLINE
8
0
62
5
66
1
10
0
20
0
30
0
70
8
0
VERTEX
8
0
62
5
10
2.9836228e-19
20
0.4151574
30
0
70
32
0
VERTEX
8
0
62
5
10
2.9836228e-19
20
0.47172594
30
0
70
32
0
SEQEND
8
0
0
POLYLINE
8
0
62
5
66
1
10
0
20
0
30
0
70
8
0
VERTEX
8
0
62
5
10
0.11313708
20
0.47172594
30
0
70
32
0
VERTEX
8
0
62
5
10
0.11313708
20
0.4151574
30
0
70
32
0
SEQEND
8
0
0
POLYLINE
8
0
62
5
66
1
10
0
20
0
30
0
70
8
0
VERTEX
8
0
62
5
10
2.9836228e-19
20
0.4151574
30
0
70
32
0
VERTEX
8
0
62
5
10
0.11313708
20
0.4151574
30
0
70
32
0
SEQEND
8
0
0
POLYLINE
8
0
62
5
66
1
10
0
20
0
30
0
70
8
0
VERTEX
8
0
62
5
10
2.9836228e-19
20
0.47172594
30
0
70
32
0
VERTEX
8
0
62
5
10
0.11313708
20
0.47172594
30
0
70
32
0
SEQEND
8
0
0
POLYLINE
8
0
62
5
66
1
10
0
20
0
30
0
70
8
0
VERTEX
8
0
62
5
10
0.028284271
20
0.4151574
30
0
70
32
0
VERTEX
8
0
62
5
10
0.028284271
20
0.4151574
30
0
70
32
0
SEQEND
8
0
0
POLYLINE
8
0
62
5
66
1
10
0
20
0
30
0
70
8
0
VERTEX
8
0
62
5
10
0.056568542
20
0.4151574
30
0
70
32
0
VERTEX
8
0
62
5
10
0.056568542
20
0.4151574
30
0
70
32
0
SEQEND
8
0
0
POLYLINE
8
0
62
5
66
1
10
0
20
0
30
0
70
8
0
VERTEX
8
0
62
5
10
0.084852814
20
0.4151574
30
0
70
32
0
VERTEX
8
0
62
5
10
0.084852814
20
0.4151574
30
0
70
32
0
SEQEND
8
0
0
POLYLINE
8
0
62
5
66
1
10
0
20
0
30
0
70
8
0
VERTEX
8
0
62
5
10
0.028284271
20
0.47172594
30
0
70
32
0
VERTEX
8
0
62
5
10
0.028284271
20
0.47172594
30
0
70
32
0
SEQEND
8
0
0
POLYLINE
8
0
62
5
66
1
10
0
20
0
30
0
70
8
0
VERTEX
8
0
62
5
10
0.056568542
20
0.47172594
30
0
70
32
0
VERTEX
8
0
62
5
10
0.056568542
20
0.47172594
30
0
70
32
0
SEQEND
8
0
0
POLYLINE
8
0
62
5
66
1
10
0
20
0
30
0
70
8
0
VERTEX
8
0
62
5
10
0.084852814
20
0.47172594
30
0
70
32
0
VERTEX
8
0
62
5
10
0.084852814
20
0.47172594
30
0
70
32
0
SEQEND
8
0
0
POLYLINE
8
0
62
30
66
1
10
0
20
0
30
0
70
8
0
VERTEX
8
0
62
30
10
2.9836228e-19
20
0.47172594
30
0
70
32
0
VERTEX
8
0
62
30
10
0.028284271
20
0.4151574
30
0
70
32
0
SEQEND
8
0
0
POLYLINE
8
0
62
30
66
1
10
0
20
0
30
0
70
8
0
VERTEX
8
0
62
30
10
0.028284271
20
0.47172594
30
0
70
32
0
VERTEX
8
0
62
30
10
2.9836228e-19
20
0.4151574
30
0
70
32
0
SEQEND
8
0
0
POLYLINE
8
0
62
30
66
1
10
0
20
0
30
0
70
8
0
VERTEX
8
0
62
30
10
0.056568542
20
0.47172594
30
0
70
32
0
VERTEX
8
0
62
30
10
0.084852814
20
0.4151574
30
0
70
32
0
SEQEND
8
0
0
POLYLINE
8
0
62
30
66
1
10
0
20
0
30
0
70
8
0
VERTEX
8
0
62
30
10
0.084852814
20
0.47172594
30
0
70
32
0
VERTEX
8
0
62
30
10
0.056568542
20
0.4151574
30
0
70
32
0
SEQEND
8
0
0
POLYLINE
8
0
62
30
66
1
10
0
20
0
30
0
70
8
0
VERTEX
8
0
62
30
10
0.028284271
20
0.44344167
30
0
70
32
0
VERTEX
8
0
62
30
10
0.056568542
20
0.44344167
30
0
70
32
0
SEQEND
8
0
0
POLYLINE
8
0
62
30
66
1
10
0
20
0
30
0
70
8
0
VERTEX
8
0
62
30
10
0.084852814
20
0.44344167
30
0
70
32
0
VERTEX
8
0
62
30
10
0.11313708
20
0.44344167
30
0
70
32
0
SEQEND
8
0
0
POLYLINE
8
0
62
5
66
1
10
0
20
0
30
0
70
8
0
VERTEX
8
0
62
5
10
2.9836228e-19
20
0.44344167
30
0
70
32
0
VERTEX
8
0
62
5
10
0.014142136
20
0.44344167
30
0
70
32
0
SEQEND
8
0
0
POLYLINE
8
0
62
5
66
1
10
0
20
0
30
0
70
8
0
VERTEX
8
0
62
5
10
0.056568542
20
0.44344167
30
0
70
32
0
VERTEX
8
0
62
5
10
0.070710678
20
0.44344167
30
0
70
32
0
SEQEND
8
0
0
POLYLINE
8
0
62
5
66
1
10
0
20
0
30
0
70
8
0
VERTEX
8
0
62
5
10
0.014142136
20
0.44344167
30
0
70
32
0
VERTEX
8
0
62
5
10
0.028284271
20
0.44344167
30
0
70
32
0
SEQEND
8
0
0
POLYLINE
8
0
62
5
66
1
10
0
20
0
30
0
70
8
0
VERTEX
8
0
62
5
10
0.070710678
20
0.44344167
30
0
70
32
0
VERTEX
8
0
62
5
10
0.084852814
20
0.44344167
30
0
70
32
0
SEQEND
8
0
0
POLYLINE
8
0
62
5
66
1
10
0
20
0
30
0
70
8
0
VERTEX
8
0
62
5
10
0.028284271
20
0.4151574
30
0
70
32
0
VERTEX
8
0
62
5
10
0.028284271
20
0.47172594
30
0
70
32
0
SEQEND
8
0
0
POLYLINE
8
0
62
5
66
1
10
0
20
0
30
0
70
8
0
VERTEX
8
0
62
5
10
0.056568542
20
0.4151574
30
0
70
32
0
VERTEX
8
0
62
5
10
0.056568542
20
0.47172594
30
0
70
32
0
SEQEND
8
0
0
POLYLINE
8
0
62
5
66
1
10
0
20
0
30
0
70
8
0
VERTEX
8
0
62
5
10
0.084852814
20
0.4151574
30
0
70
32
0
VERTEX
8
0
62
5
10
0.084852814
20
0.47172594
30
0
70
32
0
SEQEND
8
0
0
POLYLINE
8
0
62
5
66
1
10
0
20
0
30
0
70
8
0
VERTEX
8
0
62
5
10
2.9836228e-19
20
0.4151574
30
0
70
32
0
VERTEX
8
0
62
5
10
2.9836228e-19
20
0.47172594
30
0
70
32
0
SEQEND
8
0
0
POLYLINE
8
0
62
5
66
1
10
0
20
0
30
0
70
8
0
VERTEX
8
0
62
5
10
0.22627417
20
0.47172594
30
0
70
32
0
VERTEX
8
0
62
5
10
0.22627417
20
0.4151574
30
0
70
32
0
SEQEND
8
0
0
POLYLINE
8
0
62
5
66
1
10
0
20
0
30
0
70
8
0
VERTEX
8
0
62
5
10
0.11313708
20
0.4151574
30
0
70
32
0
VERTEX
8
0
62
5
10
0.22627417
20
0.4151574
30
0
70
32
0
SEQEND
8
0
0
POLYLINE
8
0
62
5
66
1
10
0
20
0
30
0
70
8
0
VERTEX
8
0
62
5
10
0.11313708
20
0.47172594
30
0
70
32
0
VERTEX
8
0
62
5
10
0.22627417
20
0.47172594
30
0
70
32
0
SEQEND
8
0
0
POLYLINE
8
0
62
5
66
1
10
0
20
0
30
0
70
8
0
VERTEX
8
0
62
5
10
0.14142136
20
0.4151574
30
0
70
32
0
VERTEX
8
0
62
5
10
0.14142136
20
0.4151574
30
0
70
32
0
SEQEND
8
0
0
POLYLINE
8
0
62
5
66
1
10
0
20
0
30
0
70
8
0
VERTEX
8
0
62
5
10
0.16970563
20
0.4151574
30
0
70
32
0
VERTEX
8
0
62
5
10
0.16970563
20
0.4151574
30
0
70
32
0
SEQEND
8
0
0
POLYLINE
8
0
62
5
66
1
10
0
20
0
30
0
70
8
0
VERTEX
8
0
62
5
10
0.1979899
20
0.4151574
30
0
70
32
0
VERTEX
8
0
62
5
10
0.1979899
20
0.4151574
30
0
70
32
0
SEQEND
8
0
0
POLYLINE
8
0
62
5
66
1
10
0
20
0
30
0
70
8
0
VERTEX
8
0
62
5
10
0.14142136
20
0.47172594
30
0
70
32
0
VERTEX
8
0
62
5
10
0.14142136
20
0.47172594
30
0
70
32
0
SEQEND
8
0
0
POLYLINE
8
0
62
5
66
1
10
0
20
0
30
0
70
8
0
VERTEX
8
0
62
5
10
0.16970563
20
0.47172594
30
0
70
32
0
VERTEX
8
0
62
5
10
0.16970563
20
0.47172594
30
0
70
32
0
SEQEND
8
0
0
POLYLINE
8
0
62
5
66
1
10
0
20
0
30
0
70
8
0
VERTEX
8
0
62
5
10
0.1979899
20
0.47172594
30
0
70
32
0
VERTEX
8
0
62
5
10
0.1979899
20
0.47172594
30
0
70
32
0
SEQEND
8
0
0
POLYLINE
8
0
62
30
66
1
10
0
20
0
30
0
70
8
0
VERTEX
8
0
62
30
10
0.11313708
20
0.47172594
30
0
70
32
0
VERTEX
8
0
62
30
10
0.14142136
20
0.4151574
30
0
70
32
0
SEQEND
8
0
0
POLYLINE
8
0
62
30
66
1
10
0
20
0
30
0
70
8
0
VERTEX
8
0
62
30
10
0.14142136
20
0.47172594
30
0
70
32
0
VERTEX
8
0
62
30
10
0.11313708
20
0.4151574
30
0
70
32
0
SEQEND
8
0
0
POLYLINE
8
0
62
30
66
1
10
0
20
0
30
0
70
8
0
VERTEX
8
0
62
30
10
0.16970563
20
0.47172594
30
0
70
32
0
VERTEX
8
0
62
30
10
0.1979899
20
0.4151574
30
0
70
32
0
SEQEND
8
0
0
POLYLINE
8
0
62
30
66
1
10
0
20
0
30
0
70
8
0
VERTEX
8
0
62
30
10
0.1979899
20
0.47172594
30
0
70
32
0
VERTEX
8
0
62
30
10
0.16970563
20
0.4151574
30
0
70
32
0
SEQEND
8
0
0
POLYLINE
8
0
62
30
66
1
10
0
20
0
30
0
70
8
0
VERTEX
8
0
62
30
10
0.14142136
20
0.44344167
30
0
70
32
0
VERTEX
8
0
62
30
10
0.16970563
20
0.44344167
30
0
70
32
0
SEQEND
8
0
0
POLYLINE
8
0
62
30
66
1
10
0
20
0
30
0
70
8
0
VERTEX
8
0
62
30
10
0.1979899
20
0.44344167
30
0
70
32
0
VERTEX
8
0
62
30
10
0.22627417
20
0.44344167
30
0
70
32
0
SEQEND
8
0
0
POLYLINE
8
0
62
5
66
1
10
0
20
0
30
0
70
8
0
VERTEX
8
0
62
5
10
0.11313708
20
0.44344167
30
0
70
32
0
VERTEX
8
0
62
5
10
0.12727922
20
0.44344167
30
0
70
32
0
SEQEND
8
0
0
POLYLINE
8
0
62
5
66
1
10
0
20
0
30
0
70
8
0
VERTEX
8
0
62
5
10
0.16970563
20
0.44344167
30
0
70
32
0
VERTEX
8
0
62
5
10
0.18384776
20
0.44344167
30
0
70
32
0
SEQEND
8
0
0
POLYLINE
8
0
62
5
66
1
10
0
20
0
30
0
70
8
0
VERTEX
8
0
62
5
10
0.12727922
20
0.44344167
30
0
70
32
0
VERTEX
8
0
62
5
10
0.14142136
20
0.44344167
30
0
70
32
0
SEQEND
8
0
0
POLYLINE
8
0
62
5
66
1
10
0
20
0
30
0
70
8
0
VERTEX
8
0
62
5
10
0.18384776
20
0.44344167
30
0
70
32
0
VERTEX
8
0
62
5
10
0.1979899
20
0.44344167
30
0
70
32
0
SEQEND
8
0
0
POLYLINE
8
0
62
5
66
1
10
0
20
0
30
0
70
8
0
VERTEX
8
0
62
5
10
0.14142136
20
0.4151574
30
0
70
32
0
VERTEX
8
0
62
5
10
0.14142136
20
0.47172594
30
0
70
32
0
SEQEND
8
0
0
POLYLINE
8
0
62
5
66
1
10
0
20
0
30
0
70
8
0
VERTEX
8
0
62
5
10
0.16970563
20
0.4151574
30
0
70
32
0
VERTEX
8
0
62
5
10
0.16970563
20
0.47172594
30
0
70
32
0
SEQEND
8
0
0
POLYLINE
8
0
62
5
66
1
10
0
20
0
30
0
70
8
0
VERTEX
8
0
62
5
10
0.1979899
20
0.4151574
30
0
70
32
0
VERTEX
8
0
62
5
10
0.1979899
20
0.47172594
30
0
70
32
0
SEQEND
8
0
0
POLYLINE
8
0
62
5
66
1
10
0
20
0
30
0
70
8
0
VERTEX
8
0
62
5
10
0.11313708
20
0.4151574
30
0
70
32
0
VERTEX
8
0
62
5
10
0.11313708
20
0.47172594
30
0
70
32
0
SEQEND
8
0
0
POLYLINE
8
0
62
5
66
1
10
0
20
0
30
0
70
8
0
VERTEX
8
0
62
5
10
-0.11313708
20
0.4151574
30
0
70
32
0
VERTEX
8
0
62
5
10
-0.11313708
20
0.47172594
30
0
70
32
0
SEQEND
8
0
0
POLYLINE
8
0
62
5
66
1
10
0
20
0
30
0
70
8
0
VERTEX
8
0
62
5
10
-0.11313708
20
0.4151574
30
0
70
32
0
VERTEX
8
0
62
5
10
0
20
0.4151574
30
0
70
32
0
SEQEND
8
0
0
POLYLINE
8
0
62
5
66
1
10
0
20
0
30
0
70
8
0
VERTEX
8
0
62
5
10
-0.11313708
20
0.47172594
30
0
70
32
0
VERTEX
8
0
62
5
10
0
20
0.47172594
30
0
70
32
0
SEQEND
8
0
0
POLYLINE
8
0
62
5
66
1
10
0
20
0
30
0
70
8
0
VERTEX
8
0
62
5
10
-0.084852814
20
0.4151574
30
0
70
32
0
VERTEX
8
0
62
5
10
-0.084852814
20
0.4151574
30
0
70
32
0
SEQEND
8
0
0
POLYLINE
8
0
62
5
66
1
10
0
20
0
30
0
70
8
0
VERTEX
8
0
62
5
10
-0.056568542
20
0.4151574
30
0
70
32
0
VERTEX
8
0
62
5
10
-0.056568542
20
0.4151574
30
0
70
32
0
SEQEND
8
0
0
POLYLINE
8
0
62
5
66
1
10
0
20
0
30
0
70
8
0
VERTEX
8
0
62
5
10
-0.028284271
20
0.4151574
30
0
70
32
0
VERTEX
8
0
62
5
10
-0.028284271
20
0.4151574
30
0
70
32
0
SEQEND
8
0
0
POLYLINE
8
0
62
5
66
1
10
0
20
0
30
0
70
8
0
VERTEX
8
0
62
5
10
-0.084852814
20
0.47172594
30
0
70
32
0
VERTEX
8
0
62
5
10
-0.084852814
20
0.47172594
30
0
70
32
0
SEQEND
8
0
0
POLYLINE
8
0
62
5
66
1
10
0
20
0
30
0
70
8
0
VERTEX
8
0
62
5
10
-0.056568542
20
0.47172594
30
0
70
32
0
VERTEX
8
0
62
5
10
-0.056568542
20
0.47172594
30
0
70
32
0
SEQEND
8
0
0
POLYLINE
8
0
62
5
66
1
10
0
20
0
30
0
70
8
0
VERTEX
8
0
62
5
10
-0.028284271
20
0.47172594
30
0
70
32
0
VERTEX
8
0
62
5
10
-0.028284271
20
0.47172594
30
0
70
32
0
SEQEND
8
0
0
POLYLINE
8
0
62
30
66
1
10
0
20
0
30
0
70
8
0
VERTEX
8
0
62
30
10
-0.11313708
20
0.47172594
30
0
70
32
0
VERTEX
8
0
62
30
10
-0.084852814
20
0.4151574
30
0
70
32
0
SEQEND
8
0
0
POLYLINE
8
0
62
30
66
1
10
0
20
0
30
0
70
8
0
VERTEX
8
0
62
30
10
-0.084852814
20
0.47172594
30
0
70
32
0
VERTEX
8
0
62
30
10
-0.11313708
20
0.4151574
30
0
70
32
0
SEQEND
8
0
0
POLYLINE
8
0
62
30
66
1
10
0
20
0
30
0
70
8
0
VERTEX
8
0
62
30
10
-0.056568542
20
0.47172594
30
0
70
32
0
VERTEX
8
0
62
30
10
-0.028284271
20
0.4151574
30
0
70
32
0
SEQEND
8
0
0
POLYLINE
8
0
62
30
66
1
10
0
20
0
30
0
70
8
0
VERTEX
8
0
62
30
10
-0.028284271
20
0.47172594
30
0
70
32
0
VERTEX
8
0
62
30
10
-0.056568542
20
0.4151574
30
0
70
32
0
SEQEND
8
0
0
POLYLINE
8
0
62
30
66
1
10
0
20
0
30
0
70
8
0
VERTEX
8
0
62
30
10
-0.084852814
20
0.44344167
30
0
70
32
0
VERTEX
8
0
62
30
10
-0.056568542
20
0.44344167
30
0
70
32
0
SEQEND
8
0
0
POLYLINE
8
0
62
30
66
1
10
0
20
0
30
0
70
8
0
VERTEX
8
0
62
30
10
-0.028284271
20
0.44344167
30
0
70
32
0
VERTEX
8
0
62
30
10
0
20
0.44344167
30
0
70
32
0
SEQEND
8
0
0
POLYLINE
8
0
62
5
66
1
10
0
20
0
30
0
70
8
0
VERTEX
8
0
62
5
10
-0.11313708
20
0.44344167
30
0
70
32
0
VERTEX
8
0
62
5
10
-0.098994949
20
0.44344167
30
0
70
32
0
SEQEND
8
0
0
POLYLINE
8
0
62
5
66
1
10
0
20
0
30
0
70
8
0
VERTEX
8
0
62
5
10
-0.056568542
20
0.44344167
30
0
70
32
0
VERTEX
8
0
62
5
10
-0.042426407
20
0.44344167
30
0
70
32
0
SEQEND
8
0
0
POLYLINE
8
0
62
5
66
1
10
0
20
0
30
0
70
8
0
VERTEX
8
0
62
5
10
-0.098994949
20
0.44344167
30
0
70
32
0
VERTEX
8
0
62
5
10
-0.084852814
20
0.44344167
30
0
70
32
0
SEQEND
8
0
0
POLYLINE
8
0
62
5
66
1
10
0
20
0
30
0
70
8
0
VERTEX
8
0
62
5
10
-0.042426407
20
0.44344167
30
0
70
32
0
VERTEX
8
0
62
5
10
-0.028284271
20
0.44344167
30
0
70
32
0
SEQEND
8
0
0
POLYLINE
8
0
62
5
66
1
10
0
20
0
30
0
70
8
0
VERTEX
8
0
62
5
10
-0.084852814
20
0.4151574
30
0
70
32
0
VERTEX
8
0
62
5
10
-0.084852814
20
0.47172594
30
0
70
32
0
SEQEND
8
0
0
POLYLINE
8
0
62
5
66
1
10
0
20
0
30
0
70
8
0
VERTEX
8
0
62
5
10
-0.056568542
20
0.4151574
30
0
70
32
0
VERTEX
8
0
62
5
10
-0.056568542
20
0.47172594
30
0
70
32
0
SEQEND
8
0
0
POLYLINE
8
0
62
5
66
1
10
0
20
0
30
0
70
8
0
VERTEX
8
0
62
5
10
-0.028284271
20
0.4151574
30
0
70
32
0
VERTEX
8
0
62
5
10
-0.028284271
20
0.47172594
30
0
70
32
0
SEQEND
8
0
0
POLYLINE
8
0
62
5
66
1
10
0
20
0
30
0
70
8
0
VERTEX
8
0
62
5
10
-0.11313708
20
0.4151574
30
0
70
32
0
VERTEX
8
0
62
5
10
-0.11313708
20
0.47172594
30
0
70
32
0
SEQEND
8
0
0
POLYLINE
8
0
62
5
66
1
10
0
20
0
30
0
70
8
0
VERTEX
8
0
62
5
10
2.9836228e-19
20
0.47172594
30
0
70
32
0
VERTEX
8
0
62
5
10
2.9836228e-19
20
0.49399854
30
0
70
32
0
SEQEND
8
0
0
POLYLINE
8
0
62
5
66
1
10
0
20
0
30
0
70
8
0
VERTEX
8
0
62
5
10
0.028284271
20
0.47172594
30
0
70
32
0
VERTEX
8
0
62
5
10
0.028284271
20
0.49399854
30
0
70
32
0
SEQEND
8
0
0
POLYLINE
8
0
62
5
66
1
10
0
20
0
30
0
70
8
0
VERTEX
8
0
62
5
10
0.056568542
20
0.47172594
30
0
70
32
0
VERTEX
8
0
62
5
10
0.056568542
20
0.49399854
30
0
70
32
0
SEQEND
8
0
0
POLYLINE
8
0
62
5
66
1
10
0
20
0
30
0
70
8
0
VERTEX
8
0
62
5
10
0.084852814
20
0.47172594
30
0
70
32
0
VERTEX
8
0
62
5
10
0.084852814
20
0.49399854
30
0
70
32
0
SEQEND
8
0
0
POLYLINE
8
0
62
5
66
1
10
0
20
0
30
0
70
8
0
VERTEX
8
0
62
5
10
0.11313708
20
0.47172594
30
0
70
32
0
VERTEX
8
0
62
5
10
0.11313708
20
0.49399854
30
0
70
32
0
SEQEND
8
0
0
POLYLINE
8
0
62
5
66
1
10
0
20
0
30
0
70
8
0
VERTEX
8
0
62
5
10
0.028284271
20
0.47172594
30
0
70
32
0
VERTEX
8
0
62
5
10
0.028284271
20
0.47172594
30
0
70
32
0
SEQEND
8
0
0
POLYLINE
8
0
62
5
66
1
10
0
20
0
30
0
70
8
0
VERTEX
8
0
62
5
10
0.056568542
20
0.47172594
30
0
70
32
0
VERTEX
8
0
62
5
10
0.056568542
20
0.47172594
30
0
70
32
0
SEQEND
8
0
0
POLYLINE
8
0
62
5
66
1
10
0
20
0
30
0
70
8
0
VERTEX
8
0
62
5
10
0.084852814
20
0.47172594
30
0
70
32
0
VERTEX
8
0
62
5
10
0.084852814
20
0.47172594
30
0
70
32
0
SEQEND
8
0
0
POLYLINE
8
0
62
5
66
1
10
0
20
0
30
0
70
8
0
VERTEX
8
0
62
5
10
2.9857809e-19
20
0.49399854
30
0
70
32
0
VERTEX
8
0
62
5
10
2.9857809e-19
20
0.49399854
30
0
70
32
0
SEQEND
8
0
0
POLYLINE
8
0
62
5
66
1
10
0
20
0
30
0
70
8
0
VERTEX
8
0
62
5
10
0.028284271
20
0.49399854
30
0
70
32
0
VERTEX
8
0
62
5
10
0.028284271
20
0.49399854
30
0
70
32
0
SEQEND
8
0
0
POLYLINE
8
0
62
5
66
1
10
0
20
0
30
0
70
8
0
VERTEX
8
0
62
5
10
0.056568542
20
0.49399854
30
0
70
32
0
VERTEX
8
0
62
5
10
0.056568542
20
0.49399854
30
0
70
32
0
SEQEND
8
0
0
POLYLINE
8
0
62
5
66
1
10
0
20
0
30
0
70
8
0
VERTEX
8
0
62
5
10
0.084852814
20
0.49399854
30
0
70
32
0
VERTEX
8
0
62
5
10
0.084852814
20
0.49399854
30
0
70
32
0
SEQEND
8
0
0
POLYLINE
8
0
62
5
66
1
10
0
20
0
30
0
70
8
0
VERTEX
8
0
62
5
10
0.14142136
20
0.47172594
30
0
70
32
0
VERTEX
8
0
62
5
10
0.14142136
20
0.49399854
30
0
70
32
0
SEQEND
8
0
0
POLYLINE
8
0
62
5
66
1
10
0
20
0
30
0
70
8
0
VERTEX
8
0
62
5
10
0.16970563
20
0.47172594
30
0
70
32
0
VERTEX
8
0
62
5
10
0.16970563
20
0.49399854
30
0
70
32
0
SEQEND
8
0
0
POLYLINE
8
0
62
5
66
1
10
0
20
0
30
0
70
8
0
VERTEX
8
0
62
5
10
0.1979899
20
0.47172594
30
0
70
32
0
VERTEX
8
0
62
5
10
0.1979899
20
0.49399854
30
0
70
32
0
SEQEND
8
0
0
POLYLINE
8
0
62
5
66
1
10
0
20
0
30
0
70
8
0
VERTEX
8
0
62
5
10
0.22627417
20
0.47172594
30
0
70
32
0
VERTEX
8
0
62
5
10
0.22627417
20
0.49399854
30
0
70
32
0
SEQEND
8
0
0
POLYLINE
8
0
62
5
66
1
10
0
20
0
30
0
70
8
0
VERTEX
8
0
62
5
10
0.14142136
20
0.47172594
30
0
70
32
0
VERTEX
8
0
62
5
10
0.14142136
20
0.47172594
30
0
70
32
0
SEQEND
8
0
0
POLYLINE
8
0
62
5
66
1
10
0
20
0
30
0
70
8
0
VERTEX
8
0
62
5
10
0.16970563
20
0.47172594
30
0
70
32
0
VERTEX
8
0
62
5
10
0.16970563
20
0.47172594
30
0
70
32
0
SEQEND
8
0
0
POLYLINE
8
0
62
5
66
1
10
0
20
0
30
0
70
8
0
VERTEX
8
0
62
5
10
0.1979899
20
0.47172594
30
0
70
32
0
VERTEX
8
0
62
5
10
0.1979899
20
0.47172594
30
0
70
32
0
SEQEND
8
0
0
POLYLINE
8
0
62
5
66
1
10
0
20
0
30
0
70
8
0
VERTEX
8
0
62
5
10
0.11313708
20
0.49399854
30
0
70
32
0
VERTEX
8
0
62
5
10
0.11313708
20
0.49399854
30
0
70
32
0
SEQEND
8
0
0
POLYLINE
8
0
62
5
66
1
10
0
20
0
30
0
70
8
0
VERTEX
8
0
62
5
10
0.14142136
20
0.49399854
30
0
70
32
0
VERTEX
8
0
62
5
10
0.14142136
20
0.49399854
30
0
70
32
0
SEQEND
8
0
0
POLYLINE
8
0
62
5
66
1
10
0
20
0
30
0
70
8
0
VERTEX
8
0
62
5
10
0.16970563
20
0.49399854
30
0
70
32
0
VERTEX
8
0
62
5
10
0.16970563
20
0.49399854
30
0
70
32
0
SEQEND
8
0
0
POLYLINE
8
0
62
5
66
1
10
0
20
0
30
0
70
8
0
VERTEX
8
0
62
5
10
0.1979899
20
0.49399854
30
0
70
32
0
VERTEX
8
0
62
5
10
0.1979899
20
0.49399854
30
0
70
32
0
SEQEND
8
0
0
POLYLINE
8
0
62
5
66
1
10
0
20
0
30
0
70
8
0
VERTEX
8
0
62
5
10
-0.084852814
20
0.47172594
30
0
70
32
0
VERTEX
8
0
62
5
10
-0.084852814
20
0.49399854
30
0
70
32
0
SEQEND
8
0
0
POLYLINE
8
0
62
5
66
1
10
0
20
0
30
0
70
8
0
VERTEX
8
0
62
5
10
-0.056568542
20
0.47172594
30
0
70
32
0
VERTEX
8
0
62
5
10
-0.056568542
20
0.49399854
30
0
70
32
0
SEQEND
8
0
0
POLYLINE
8
0
62
5
66
1
10
0
20
0
30
0
70
8
0
VERTEX
8
0
62
5
10
-0.028284271
20
0.47172594
30
0
70
32
0
VERTEX
8
0
62
5
10
-0.028284271
20
0.49399854
30
0
70
32
0
SEQEND
8
0
0
POLYLINE
8
0
62
5
66
1
10
0
20
0
30
0
70
8
0
VERTEX
8
0
62
5
10
0
20
0.47172594
30
0
70
32
0
VERTEX
8
0
62
5
10
0
20
0.49399854
30
0
70
32
0
SEQEND
8
0
0
POLYLINE
8
0
62
5
66
1
10
0
20
0
30
0
70
8
0
VERTEX
8
0
62
5
10
-0.084852814
20
0.47172594
30
0
70
32
0
VERTEX
8
0
62
5
10
-0.084852814
20
0.47172594
30
0
70
32
0
SEQEND
8
0
0
POLYLINE
8
0
62
5
66
1
10
0
20
0
30
0
70
8
0
VERTEX
8
0
62
5
10
-0.056568542
20
0.47172594
30
0
70
32
0
VERTEX
8
0
62
5
10
-0.056568542
20
0.47172594
30
0
70
32
0
SEQEND
8
0
0
POLYLINE
8
0
62
5
66
1
10
0
20
0
30
0
70
8
0
VERTEX
8
0
62
5
10
-0.028284271
20
0.47172594
30
0
70
32
0
VERTEX
8
0
62
5
10
-0.028284271
20
0.47172594
30
0
70
32
0
SEQEND
8
0
0
POLYLINE
8
0
62
5
66
1
10
0
20
0
30
0
70
8
0
VERTEX
8
0
62
5
10
-0.11313708
20
0.49399854
30
0
70
32
0
VERTEX
8
0
62
5
10
-0.11313708
20
0.49399854
30
0
70
32
0
SEQEND
8
0
0
POLYLINE
8
0
62
5
66
1
10
0
20
0
30
0
70
8
0
VERTEX
8
0
62
5
10
-0.084852814
20
0.49399854
30
0
70
32
0
VERTEX
8
0
62
5
10
-0.084852814
20
0.49399854
30
0
70
32
0
SEQEND
8
0
0
POLYLINE
8
0
62
5
66
1
10
0
20
0
30
0
70
8
0
VERTEX
8
0
62
5
10
-0.056568542
20
0.49399854
30
0
70
32
0
VERTEX
8
0
62
5
10
-0.056568542
20
0.49399854
30
0
70
32
0
SEQEND
8
0
0
POLYLINE
8
0
62
5
66
1
10
0
20
0
30
0
70
8
0
VERTEX
8
0
62
5
10
-0.028284271
20
0.49399854
30
0
70
32
0
VERTEX
8
0
62
5
10
-0.028284271
20
0.49399854
30
0
70
32
0
SEQEND
8
0
0
POLYLINE
8
0
62
5
66
1
10
0
20
0
30
0
70
8
0
VERTEX
8
0
62
5
10
2.9857809e-19
20
0.49399854
30
0
70
32
0
VERTEX
8
0
62
5
10
2.9857809e-19
20
0.58308891
30
0
70
32
0
SEQEND
8
0
0
POLYLINE
8
0
62
5
66
1
10
0
20
0
30
0
70
8
0
VERTEX
8
0
62
5
10
0.11313708
20
0.49399854
30
0
70
32
0
VERTEX
8
0
62
5
10
0.11313708
20
0.58308891
30
0
70
32
0
SEQEND
8
0
0
POLYLINE
8
0
62
5
66
1
10
0
20
0
30
0
70
8
0
VERTEX
8
0
62
5
10
0.028284271
20
0.49399854
30
0
70
32
0
VERTEX
8
0
62
5
10
0.028284271
20
0.58308891
30
0
70
32
0
SEQEND
8
0
0
POLYLINE
8
0
62
5
66
1
10
0
20
0
30
0
70
8
0
VERTEX
8
0
62
5
10
0.056568542
20
0.49399854
30
0
70
32
0
VERTEX
8
0
62
5
10
0.056568542
20
0.58308891
30
0
70
32
0
SEQEND
8
0
0
POLYLINE
8
0
62
5
66
1
10
0
20
0
30
0
70
8
0
VERTEX
8
0
62
5
10
0.084852814
20
0.49399854
30
0
70
32
0
VERTEX
8
0
62
5
10
0.084852814
20
0.58308891
30
0
70
32
0
SEQEND
8
0
0
POLYLINE
8
0
62
5
66
1
10
0
20
0
30
0
70
8
0
VERTEX
8
0
62
5
10
0.22627417
20
0.49399854
30
0
70
32
0
VERTEX
8
0
62
5
10
0.22627417
20
0.58308891
30
0
70
32
0
SEQEND
8
0
0
POLYLINE
8
0
62
5
66
1
10
0
20
0
30
0
70
8
0
VERTEX
8
0
62
5
10
0.14142136
20
0.49399854
30
0
70
32
0
VERTEX
8
0
62
5
10
0.14142136
20
0.58308891
30
0
70
32
0
SEQEND
8
0
0
POLYLINE
8
0
62
5
66
1
10
0
20
0
30
0
70
8
0
VERTEX
8
0
62
5
10
0.16970563
20
0.49399854
30
0
70
32
0
VERTEX
8
0
62
5
10
0.16970563
20
0.58308891
30
0
70
32
0
SEQEND
8
0
0
POLYLINE
8
0
62
5
66
1
10
0
20
0
30
0
70
8
0
VERTEX
8
0
62
5
10
0.1979899
20
0.49399854
30
0
70
32
0
VERTEX
8
0
62
5
10
0.1979899
20
0.58308891
30
0
70
32
0
SEQEND
8
0
0
POLYLINE
8
0
62
5
66
1
10
0
20
0
30
0
70
8
0
VERTEX
8
0
62
5
10
-0.11313708
20
0.49399854
30
0
70
32
0
VERTEX
8
0
62
5
10
-0.11313708
20
0.58308891
30
0
70
32
0
SEQEND
8
0
0
POLYLINE
8
0
62
5
66
1
10
0
20
0
30
0
70
8
0
VERTEX
8
0
62
5
10
-0.084852814
20
0.49399854
30
0
70
32
0
VERTEX
8
0
62
5
10
-0.084852814
20
0.58308891
30
0
70
32
0
SEQEND
8
0
0
POLYLINE
8
0
62
5
66
1
10
0
20
0
30
0
70
8
0
VERTEX
8
0
62
5
10
-0.056568542
20
0.49399854
30
0
70
32
0
VERTEX
8
0
62
5
10
-0.056568542
20
0.58308891
30
0
70
32
0
SEQEND
8
0
0
POLYLINE
8
0
62
5
66
1
10
0
20
0
30
0
70
8
0
VERTEX
8
0
62
5
10
-0.028284271
20
0.49399854
30
0
70
32
0
VERTEX
8
0
62
5
10
-0.028284271
20
0.58308891
30
0
70
32
0
SEQEND
8
0
0
POLYLINE
8
0
62
5
66
1
10
0
20
0
30
0
70
8
0
VERTEX
8
0
62
5
10
2.9857809e-19
20
0.58308891
30
0
70
32
0
VERTEX
8
0
62
5
10
2.9857809e-19
20
0.62308891
30
0
70
32
0
SEQEND
8
0
0
POLYLINE
8
0
62
5
66
1
10
0
20
0
30
0
70
8
0
VERTEX
8
0
62
5
10
0.11313708
20
0.62308891
30
0
70
32
0
VERTEX
8
0
62
5
10
0.11313708
20
0.58308891
30
0
70
32
0
SEQEND
8
0
0
POLYLINE
8
0
62
5
66
1
10
0
20
0
30
0
70
8
0
VERTEX
8
0
62
5
10
2.9857809e-19
20
0.58308891
30
0
70
32
0
VERTEX
8
0
62
5
10
0.11313708
20
0.58308891
30
0
70
32
0
SEQEND
8
0
0
POLYLINE
8
0
62
5
66
1
10
0
20
0
30
0
70
8
0
VERTEX
8
0
62
5
10
2.9857809e-19
20
0.62308891
30
0
70
32
0
VERTEX
8
0
62
5
10
0.11313708
20
0.62308891
30
0
70
32
0
SEQEND
8
0
0
POLYLINE
8
0
62
5
66
1
10
0
20
0
30
0
70
8
0
VERTEX
8
0
62
5
10
0.028284271
20
0.58308891
30
0
70
32
0
VERTEX
8
0
62
5
10
0.028284271
20
0.58308891
30
0
70
32
0
SEQEND
8
0
0
POLYLINE
8
0
62
5
66
1
10
0
20
0
30
0
70
8
0
VERTEX
8
0
62
5
10
0.056568542
20
0.58308891
30
0
70
32
0
VERTEX
8
0
62
5
10
0.056568542
20
0.58308891
30
0
70
32
0
SEQEND
8
0
0
POLYLINE
8
0
62
5
66
1
10
0
20
0
30
0
70
8
0
VERTEX
8
0
62
5
10
0.084852814
20
0.58308891
30
0
70
32
0
VERTEX
8
0
62
5
10
0.084852814
20
0.58308891
30
0
70
32
0
SEQEND
8
0
0
POLYLINE
8
0
62
5
66
1
10
0
20
0
30
0
70
8
0
VERTEX
8
0
62
5
10
0.028284271
20
0.62308891
30
0
70
32
0
VERTEX
8
0
62
5
10
0.028284271
20
0.62308891
30
0
70
32
0
SEQEND
8
0
0
POLYLINE
8
0
62
5
66
1
10
0
20
0
30
0
70
8
0
VERTEX
8
0
62
5
10
0.056568542
20
0.62308891
30
0
70
32
0
VERTEX
8
0
62
5
10
0.056568542
20
0.62308891
30
0
70
32
0
SEQEND
8
0
0
POLYLINE
8
0
62
5
66
1
10
0
20
0
30
0
70
8
0
VERTEX
8
0
62
5
10
0.084852814
20
0.62308891
30
0
70
32
0
VERTEX
8
0
62
5
10
0.084852814
20
0.62308891
30
0
70
32
0
SEQEND
8
0
0
POLYLINE
8
0
62
30
66
1
10
0
20
0
30
0
70
8
0
VERTEX
8
0
62
30
10
2.9857809e-19
20
0.58308891
30
0
70
32
0
VERTEX
8
0
62
30
10
0.014142136
20
0.60308891
30
0
70
32
0
SEQEND
8
0
0
POLYLINE
8
0
62
30
66
1
10
0
20
0
30
0
70
8
0
VERTEX
8
0
62
30
10
0.014142136
20
0.60308891
30
0
70
32
0
VERTEX
8
0
62
30
10
0.028284271
20
0.58308891
30
0
70
32
0
SEQEND
8
0
0
POLYLINE
8
0
62
30
66
1
10
0
20
0
30
0
70
8
0
VERTEX
8
0
62
30
10
0.056568542
20
0.58308891
30
0
70
32
0
VERTEX
8
0
62
30
10
0.070710678
20
0.60308891
30
0
70
32
0
SEQEND
8
0
0
POLYLINE
8
0
62
30
66
1
10
0
20
0
30
0
70
8
0
VERTEX
8
0
62
30
10
0.070710678
20
0.60308891
30
0
70
32
0
VERTEX
8
0
62
30
10
0.084852814
20
0.58308891
30
0
70
32
0
SEQEND
8
0
0
POLYLINE
8
0
62
30
66
1
10
0
20
0
30
0
70
8
0
VERTEX
8
0
62
30
10
0.028284271
20
0.60308891
30
0
70
32
0
VERTEX
8
0
62
30
10
0.056568542
20
0.60308891
30
0
70
32
0
SEQEND
8
0
0
POLYLINE
8
0
62
30
66
1
10
0
20
0
30
0
70
8
0
VERTEX
8
0
62
30
10
0.084852814
20
0.60308891
30
0
70
32
0
VERTEX
8
0
62
30
10
0.11313708
20
0.60308891
30
0
70
32
0
SEQEND
8
0
0
POLYLINE
8
0
62
5
66
1
10
0
20
0
30
0
70
8
0
VERTEX
8
0
62
5
10
2.9857809e-19
20
0.60308891
30
0
70
32
0
VERTEX
8
0
62
5
10
0.014142136
20
0.60308891
30
0
70
32
0
SEQEND
8
0
0
POLYLINE
8
0
62
5
66
1
10
0
20
0
30
0
70
8
0
VERTEX
8
0
62
5
10
0.056568542
20
0.60308891
30
0
70
32
0
VERTEX
8
0
62
5
10
0.070710678
20
0.60308891
30
0
70
32
0
SEQEND
8
0
0
POLYLINE
8
0
62
5
66
1
10
0
20
0
30
0
70
8
0
VERTEX
8
0
62
5
10
0.014142136
20
0.60308891
30
0
70
32
0
VERTEX
8
0
62
5
10
0.028284271
20
0.60308891
30
0
70
32
0
SEQEND
8
0
0
POLYLINE
8
0
62
5
66
1
10
0
20
0
30
0
70
8
0
VERTEX
8
0
62
5
10
0.070710678
20
0.60308891
30
0
70
32
0
VERTEX
8
0
62
5
10
0.084852814
20
0.60308891
30
0
70
32
0
SEQEND
8
0
0
POLYLINE
8
0
62
5
66
1
10
0
20
0
30
0
70
8
0
VERTEX
8
0
62
5
10
0.028284271
20
0.58308891
30
0
70
32
0
VERTEX
8
0
62
5
10
0.028284271
20
0.62308891
30
0
70
32
0
SEQEND
8
0
0
POLYLINE
8
0
62
5
66
1
10
0
20
0
30
0
70
8
0
VERTEX
8
0
62
5
10
0.056568542
20
0.58308891
30
0
70
32
0
VERTEX
8
0
62
5
10
0.056568542
20
0.62308891
30
0
70
32
0
SEQEND
8
0
0
POLYLINE
8
0
62
5
66
1
10
0
20
0
30
0
70
8
0
VERTEX
8
0
62
5
10
0.084852814
20
0.58308891
30
0
70
32
0
VERTEX
8
0
62
5
10
0.084852814
20
0.62308891
30
0
70
32
0
SEQEND
8
0
0
POLYLINE
8
0
62
5
66
1
10
0
20
0
30
0
70
8
0
VERTEX
8
0
62
5
10
2.9857809e-19
20
0.58308891
30
0
70
32
0
VERTEX
8
0
62
5
10
2.9857809e-19
20
0.62308891
30
0
70
32
0
SEQEND
8
0
0
POLYLINE
8
0
62
5
66
1
10
0
20
0
30
0
70
8
0
VERTEX
8
0
62
5
10
0.22627417
20
0.62308891
30
0
70
32
0
VERTEX
8
0
62
5
10
0.22627417
20
0.58308891
30
0
70
32
0
SEQEND
8
0
0
POLYLINE
8
0
62
5
66
1
10
0
20
0
30
0
70
8
0
VERTEX
8
0
62
5
10
0.11313708
20
0.58308891
30
0
70
32
0
VERTEX
8
0
62
5
10
0.22627417
20
0.58308891
30
0
70
32
0
SEQEND
8
0
0
POLYLINE
8
0
62
5
66
1
10
0
20
0
30
0
70
8
0
VERTEX
8
0
62
5
10
0.11313708
20
0.62308891
30
0
70
32
0
VERTEX
8
0
62
5
10
0.22627417
20
0.62308891
30
0
70
32
0
SEQEND
8
0
0
POLYLINE
8
0
62
5
66
1
10
0
20
0
30
0
70
8
0
VERTEX
8
0
62
5
10
0.14142136
20
0.58308891
30
0
70
32
0
VERTEX
8
0
62
5
10
0.14142136
20
0.58308891
30
0
70
32
0
SEQEND
8
0
0
POLYLINE
8
0
62
5
66
1
10
0
20
0
30
0
70
8
0
VERTEX
8
0
62
5
10
0.16970563
20
0.58308891
30
0
70
32
0
VERTEX
8
0
62
5
10
0.16970563
20
0.58308891
30
0
70
32
0
SEQEND
8
0
0
POLYLINE
8
0
62
5
66
1
10
0
20
0
30
0
70
8
0
VERTEX
8
0
62
5
10
0.1979899
20
0.58308891
30
0
70
32
0
VERTEX
8
0
62
5
10
0.1979899
20
0.58308891
30
0
70
32
0
SEQEND
8
0
0
POLYLINE
8
0
62
5
66
1
10
0
20
0
30
0
70
8
0
VERTEX
8
0
62
5
10
0.14142136
20
0.62308891
30
0
70
32
0
VERTEX
8
0
62
5
10
0.14142136
20
0.62308891
30
0
70
32
0
SEQEND
8
0
0
POLYLINE
8
0
62
5
66
1
10
0
20
0
30
0
70
8
0
VERTEX
8
0
62
5
10
0.16970563
20
0.62308891
30
0
70
32
0
VERTEX
8
0
62
5
10
0.16970563
20
0.62308891
30
0
70
32
0
SEQEND
8
0
0
POLYLINE
8
0
62
5
66
1
10
0
20
0
30
0
70
8
0
VERTEX
8
0
62
5
10
0.1979899
20
0.62308891
30
0
70
32
0
VERTEX
8
0
62
5
10
0.1979899
20
0.62308891
30
0
70
32
0
SEQEND
8
0
0
POLYLINE
8
0
62
30
66
1
10
0
20
0
30
0
70
8
0
VERTEX
8
0
62
30
10
0.11313708
20
0.58308891
30
0
70
32
0
VERTEX
8
0
62
30
10
0.12727922
20
0.60308891
30
0
70
32
0
SEQEND
8
0
0
POLYLINE
8
0
62
30
66
1
10
0
20
0
30
0
70
8
0
VERTEX
8
0
62
30
10
0.12727922
20
0.60308891
30
0
70
32
0
VERTEX
8
0
62
30
10
0.14142136
20
0.58308891
30
0
70
32
0
SEQEND
8
0
0
POLYLINE
8
0
62
30
66
1
10
0
20
0
30
0
70
8
0
VERTEX
8
0
62
30
10
0.16970563
20
0.58308891
30
0
70
32
0
VERTEX
8
0
62
30
10
0.18384776
20
0.60308891
30
0
70
32
0
SEQEND
8
0
0
POLYLINE
8
0
62
30
66
1
10
0
20
0
30
0
70
8
0
VERTEX
8
0
62
30
10
0.18384776
20
0.60308891
30
0
70
32
0
VERTEX
8
0
62
30
10
0.1979899
20
0.58308891
30
0
70
32
0
SEQEND
8
0
0
POLYLINE
8
0
62
30
66
1
10
0
20
0
30
0
70
8
0
VERTEX
8
0
62
30
10
0.14142136
20
0.60308891
30
0
70
32
0
VERTEX
8
0
62
30
10
0.16970563
20
0.60308891
30
0
70
32
0
SEQEND
8
0
0
POLYLINE
8
0
62
30
66
1
10
0
20
0
30
0
70
8
0
VERTEX
8
0
62
30
10
0.1979899
20
0.60308891
30
0
70
32
0
VERTEX
8
0
62
30
10
0.22627417
20
0.60308891
30
0
70
32
0
SEQEND
8
0
0
POLYLINE
8
0
62
5
66
1
10
0
20
0
30
0
70
8
0
VERTEX
8
0
62
5
10
0.11313708
20
0.60308891
30
0
70
32
0
VERTEX
8
0
62
5
10
0.12727922
20
0.60308891
30
0
70
32
0
SEQEND
8
0
0
POLYLINE
8
0
62
5
66
1
10
0
20
0
30
0
70
8
0
VERTEX
8
0
62
5
10
0.16970563
20
0.60308891
30
0
70
32
0
VERTEX
8
0
62
5
10
0.18384776
20
0.60308891
30
0
70
32
0
SEQEND
8
0
0
POLYLINE
8
0
62
5
66
1
10
0
20
0
30
0
70
8
0
VERTEX
8
0
62
5
10
0.12727922
20
0.60308891
30
0
70
32
0
VERTEX
8
0
62
5
10
0.14142136
20
0.60308891
30
0
70
32
0
SEQEND
8
0
0
POLYLINE
8
0
62
5
66
1
10
0
20
0
30
0
70
8
0
VERTEX
8
0
62
5
10
0.18384776
20
0.60308891
30
0
70
32
0
VERTEX
8
0
62
5
10
0.1979899
20
0.60308891
30
0
70
32
0
SEQEND
8
0
0
POLYLINE
8
0
62
5
66
1
10
0
20
0
30
0
70
8
0
VERTEX
8
0
62
5
10
0.14142136
20
0.58308891
30
0
70
32
0
VERTEX
8
0
62
5
10
0.14142136
20
0.62308891
30
0
70
32
0
SEQEND
8
0
0
POLYLINE
8
0
62
5
66
1
10
0
20
0
30
0
70
8
0
VERTEX
8
0
62
5
10
0.16970563
20
0.58308891
30
0
70
32
0
VERTEX
8
0
62
5
10
0.16970563
20
0.62308891
30
0
70
32
0
SEQEND
8
0
0
POLYLINE
8
0
62
5
66
1
10
0
20
0
30
0
70
8
0
VERTEX
8
0
62
5
10
0.1979899
20
0.58308891
30
0
70
32
0
VERTEX
8
0
62
5
10
0.1979899
20
0.62308891
30
0
70
32
0
SEQEND
8
0
0
POLYLINE
8
0
62
5
66
1
10
0
20
0
30
0
70
8
0
VERTEX
8
0
62
5
10
0.11313708
20
0.58308891
30
0
70
32
0
VERTEX
8
0
62
5
10
0.11313708
20
0.62308891
30
0
70
32
0
SEQEND
8
0
0
POLYLINE
8
0
62
5
66
1
10
0
20
0
30
0
70
8
0
VERTEX
8
0
62
5
10
-0.11313708
20
0.58308891
30
0
70
32
0
VERTEX
8
0
62
5
10
-0.11313708
20
0.62308891
30
0
70
32
0
SEQEND
8
0
0
POLYLINE
8
0
62
5
66
1
10
0
20
0
30
0
70
8
0
VERTEX
8
0
62
5
10
-0.11313708
20
0.58308891
30
0
70
32
0
VERTEX
8
0
62
5
10
0
20
0.58308891
30
0
70
32
0
SEQEND
8
0
0
POLYLINE
8
0
62
5
66
1
10
0
20
0
30
0
70
8
0
VERTEX
8
0
62
5
10
-0.11313708
20
0.62308891
30
0
70
32
0
VERTEX
8
0
62
5
10
0
20
0.62308891
30
0
70
32
0
SEQEND
8
0
0
POLYLINE
8
0
62
5
66
1
10
0
20
0
30
0
70
8
0
VERTEX
8
0
62
5
10
-0.084852814
20
0.58308891
30
0
70
32
0
VERTEX
8
0
62
5
10
-0.084852814
20
0.58308891
30
0
70
32
0
SEQEND
8
0
0
POLYLINE
8
0
62
5
66
1
10
0
20
0
30
0
70
8
0
VERTEX
8
0
62
5
10
-0.056568542
20
0.58308891
30
0
70
32
0
VERTEX
8
0
62
5
10
-0.056568542
20
0.58308891
30
0
70
32
0
SEQEND
8
0
0
POLYLINE
8
0
62
5
66
1
10
0
20
0
30
0
70
8
0
VERTEX
8
0
62
5
10
-0.028284271
20
0.58308891
30
0
70
32
0
VERTEX
8
0
62
5
10
-0.028284271
20
0.58308891
30
0
70
32
0
SEQEND
8
0
0
POLYLINE
8
0
62
5
66
1
10
0
20
0
30
0
70
8
0
VERTEX
8
0
62
5
10
-0.084852814
20
0.62308891
30
0
70
32
0
VERTEX
8
0
62
5
10
-0.084852814
20
0.62308891
30
0
70
32
0
SEQEND
8
0
0
POLYLINE
8
0
62
5
66
1
10
0
20
0
30
0
70
8
0
VERTEX
8
0
62
5
10
-0.056568542
20
0.62308891
30
0
70
32
0
VERTEX
8
0
62
5
10
-0.056568542
20
0.62308891
30
0
70
32
0
SEQEND
8
0
0
POLYLINE
8
0
62
5
66
1
10
0
20
0
30
0
70
8
0
VERTEX
8
0
62
5
10
-0.028284271
20
0.62308891
30
0
70
32
0
VERTEX
8
0
62
5
10
-0.028284271
20
0.62308891
30
0
70
32
0
SEQEND
8
0
0
POLYLINE
8
0
62
30
66
1
10
0
20
0
30
0
70
8
0
VERTEX
8
0
62
30
10
-0.11313708
20
0.58308891
30
0
70
32
0
VERTEX
8
0
62
30
10
-0.098994949
20
0.60308891
30
0
70
32
0
SEQEND
8
0
0
POLYLINE
8
0
62
30
66
1
10
0
20
0
30
0
70
8
0
VERTEX
8
0
62
30
10
-0.098994949
20
0.60308891
30
0
70
32
0
VERTEX
8
0
62
30
10
-0.084852814
20
0.58308891
30
0
70
32
0
SEQEND
8
0
0
POLYLINE
8
0
62
30
66
1
10
0
20
0
30
0
70
8
0
VERTEX
8
0
62
30
10
-0.056568542
20
0.58308891
30
0
70
32
0
VERTEX
8
0
62
30
10
-0.042426407
20
0.60308891
30
0
70
32
0
SEQEND
8
0
0
POLYLINE
8
0
62
30
66
1
10
0
20
0
30
0
70
8
0
VERTEX
8
0
62
30
10
-0.042426407
20
0.60308891
30
0
70
32
0
VERTEX
8
0
62
30
10
-0.028284271
20
0.58308891
30
0
70
32
0
SEQEND
8
0
0
POLYLINE
8
0
62
30
66
1
10
0
20
0
30
0
70
8
0
VERTEX
8
0
62
30
10
-0.084852814
20
0.60308891
30
0
70
32
0
VERTEX
8
0
62
30
10
-0.056568542
20
0.60308891
30
0
70
32
0
SEQEND
8
0
0
POLYLINE
8
0
62
30
66
1
10
0
20
0
30
0
70
8
0
VERTEX
8
0
62
30
10
-0.028284271
20
0.60308891
30
0
70
32
0
VERTEX
8
0
62
30
10
0
20
0.60308891
30
0
70
32
0
SEQEND
8
0
0
POLYLINE
8
0
62
5
66
1
10
0
20
0
30
0
70
8
0
VERTEX
8
0
62
5
10
-0.11313708
20
0.60308891
30
0
70
32
0
VERTEX
8
0
62
5
10
-0.098994949
20
0.60308891
30
0
70
32
0
SEQEND
8
0
0
POLYLINE
8
0
62
5
66
1
10
0
20
0
30
0
70
8
0
VERTEX
8
0
62
5
10
-0.056568542
20
0.60308891
30
0
70
32
0
VERTEX
8
0
62
5
10
-0.042426407
20
0.60308891
30
0
70
32
0
SEQEND
8
0
0
POLYLINE
8
0
62
5
66
1
10
0
20
0
30
0
70
8
0
VERTEX
8
0
62
5
10
-0.098994949
20
0.60308891
30
0
70
32
0
VERTEX
8
0
62
5
10
-0.084852814
20
0.60308891
30
0
70
32
0
SEQEND
8
0
0
POLYLINE
8
0
62
5
66
1
10
0
20
0
30
0
70
8
0
VERTEX
8
0
62
5
10
-0.042426407
20
0.60308891
30
0
70
32
0
VERTEX
8
0
62
5
10
-0.028284271
20
0.60308891
30
0
70
32
0
SEQEND
8
0
0
POLYLINE
8
0
62
5
66
1
10
0
20
0
30
0
70
8
0
VERTEX
8
0
62
5
10
-0.084852814
20
0.58308891
30
0
70
32
0
VERTEX
8
0
62
5
10
-0.084852814
20
0.62308891
30
0
70
32
0
SEQEND
8
0
0
POLYLINE
8
0
62
5
66
1
10
0
20
0
30
0
70
8
0
VERTEX
8
0
62
5
10
-0.056568542
20
0.58308891
30
0
70
32
0
VERTEX
8
0
62
5
10
-0.056568542
20
0.62308891
30
0
70
32
0
SEQEND
8
0
0
POLYLINE
8
0
62
5
66
1
10
0
20
0
30
0
70
8
0
VERTEX
8
0
62
5
10
-0.028284271
20
0.58308891
30
0
70
32
0
VERTEX
8
0
62
5
10
-0.028284271
20
0.62308891
30
0
70
32
0
SEQEND
8
0
0
POLYLINE
8
0
62
5
66
1
10
0
20
0
30
0
70
8
0
VERTEX
8
0
62
5
10
-0.11313708
20
0.58308891
30
0
70
32
0
VERTEX
8
0
62
5
10
-0.11313708
20
0.62308891
30
0
70
32
0
SEQEND
8
0
0
POLYLINE
8
0
62
18
66
1
10
0
20
0
30
0
70
8
0
VERTEX
8
0
62
18
10
0
20
0
30
0
70
32
0
VERTEX
8
0
62
18
10
0.14142136
20
0
30
0
70
32
0
VERTEX
8
0
62
18
10
0.14142136
20
0.21717461
30
0
70
32
0
VERTEX
8
0
62
18
10
0
20
0.21717461
30
0
70
32
0
VERTEX
8
0
62
18
10
0
20
0
30
0
70
32
0
SEQEND
8
0
0
POLYLINE
8
0
62
5
66
1
10
0
20
0
30
0
70
8
0
VERTEX
8
0
62
5
10
0
20
0.21717461
30
0
70
32
0
VERTEX
8
0
62
5
10
0.14142136
20
0.21717461
30
0
70
32
0
SEQEND
8
0
0
POLYLINE
8
0
62
18
66
1
10
0
20
0
30
0
70
8
0
VERTEX
8
0
62
18
10
0
20
0.19717461
30
0
70
32
0
VERTEX
8
0
62
18
10
0.14142136
20
0.19717461
30
0
70
32
0
VERTEX
8
0
62
18
10
0.14142136
20
0.37475332
30
0
70
32
0
VERTEX
8
0
62
18
10
0
20
0.37475332
30
0
70
32
0
VERTEX
8
0
62
18
10
0
20
0.19717461
30
0
70
32
0
SEQEND
8
0
0
POLYLINE
8
0
62
5
66
1
10
0
20
0
30
0
70
8
0
VERTEX
8
0
62
5
10
0
20
0.37475332
30
0
70
32
0
VERTEX
8
0
62
5
10
0.14142136
20
0.37475332
30
0
70
32
0
SEQEND
8
0
0
POLYLINE
8
0
62
18
66
1
10
0
20
0
30
0
70
8
0
VERTEX
8
0
62
18
10
0
20
0.35475332
30
0
70
32
0
VERTEX
8
0
62
18
10
0.14142136
20
0.35475332
30
0
70
32
0
VERTEX
8
0
62
18
10
0.14142136
20
0.53854372
30
0
70
32
0
VERTEX
8
0
62
18
10
0
20
0.53854372
30
0
70
32
0
VERTEX
8
0
62
18
10
0
20
0.35475332
30
0
70
32
0
SEQEND
8
0
0
POLYLINE
8
0
62
5
66
1
10
0
20
0
30
0
70
8
0
VERTEX
8
0
62
5
10
0
20
0.53854372
30
0
70
32
0
VERTEX
8
0
62
5
10
0.14142136
20
0.53854372
30
0
70
32
0
SEQEND
8
0
0
POLYLINE
8
0
62
18
66
1
10
0
20
0
30
0
70
8
0
VERTEX
8
0
62
18
10
0
20
0.51854372
30
0
70
32
0
VERTEX
8
0
62
18
10
0.14142136
20
0.51854372
30
0
70
32
0
VERTEX
8
0
62
18
10
0.14142136
20
0.62308891
30
0
70
32
0
VERTEX
8
0
62
18
10
0
20
0.62308891
30
0
70
32
0
VERTEX
8
0
62
18
10
0
20
0.51854372
30
0
70
32
0
SEQEND
8
0
0
POLYLINE
8
0
62
18
66
1
10
0
20
0
30
0
70
8
0
VERTEX
8
0
62
18
10
0.14142136
20
0
30
0
70
32
0
VERTEX
8
0
62
18
10
0
20
0
30
0
70
32
0
VERTEX
8
0
62
18
10
0
20
0.62308891
30
0
70
32
0
VERTEX
8
0
62
18
10
0.14142136
20
0.62308891
30
0
70
32
0
VERTEX
8
0
62
18
10
0.14142136
20
0
30
0
70
32
0
SEQEND
8
0
0
ENDSEC
0
EOF
