0
SECTION
2
HEADER
9
$ACADVER
1
AC1006
9
$INSUNITS
70
6
0
ENDSEC
0
SECTION
2
ENTITIES
0
POLYLINE
8
0
62
5
66
1
10
0
20
0
30
0
70
8
0
VERTEX
8
0
62
5
10
0
20
0
30
0
70
32
0
VERTEX
8
0
62
5
10
0
20
0.1
30
0
70
32
0
SEQEND
8
0
0
POLYLINE
8
0
62
5
66
1
10
0
20
0
30
0
70
8
0
VERTEX
8
0
62
5
10
0.16970563
20
0
30
0
70
32
0
VERTEX
8
0
62
5
10
0.16970563
20
0.1
30
0
70
32
0
SEQEND
8
0
0
POLYLINE
8
0
62
5
66
1
10
0
20
0
30
0
70
8
0
VERTEX
8
0
62
5
10
0.042426407
20
0
30
0
70
32
0
VERTEX
8
0
62
5
10
0.042426407
20
0.1
30
0
70
32
0
SEQEND
8
0
0
POLYLINE
8
0
62
5
66
1
10
0
20
0
30
0
70
8
0
VERTEX
8
0
62
5
10
0.084852814
20
0
30
0
70
32
0
VERTEX
8
0
62
5
10
0.084852814
20
0.1
30
0
70
32
0
SEQEND
8
0
0
POLYLINE
8
0
62
5
66
1
10
0
20
0
30
0
70
8
0
VERTEX
8
0
62
5
10
0.12727922
20
0
30
0
70
32
0
VERTEX
8
0
62
5
10
0.12727922
20
0.1
30
0
70
32
0
SEQEND
8
0
0
POLYLINE
8
0
62
5
66
1
10
0
20
0
30
0
70
8
0
VERTEX
8
0
62
5
10
0.33941125
20
0
30
0
70
32
0
VERTEX
8
0
62
5
10
0.33941125
20
0.1
30
0
70
32
0
SEQEND
8
0
0
POLYLINE
8
0
62
5
66
1
10
0
20
0
30
0
70
8
0
VERTEX
8
0
62
5
10
0.21213203
20
0
30
0
70
32
0
VERTEX
8
0
62
5
10
0.21213203
20
0.1
30
0
70
32
0
SEQEND
8
0
0
POLYLINE
8
0
62
5
66
1
10
0
20
0
30
0
70
8
0
VERTEX
8
0
62
5
10
0.25455844
20
0
30
0
70
32
0
VERTEX
8
0
62
5
10
0.25455844
20
0.1
30
0
70
32
0
SEQEND
8
0
0
POLYLINE
8
0
62
5
66
1
10
0
20
0
30
0
70
8
0
VERTEX
8
0
62
5
10
0.29698485
20
0
30
0
70
32
0
VERTEX
8
0
62
5
10
0.29698485
20
0.1
30
0
70
32
0
SEQEND
8
0
0
POLYLINE
8
0
62
5
66
1
10
0
20
0
30
0
70
8
0
VERTEX
8
0
62
5
10
-0.16970563
20
0
30
0
70
32
0
VERTEX
8
0
62
5
10
-0.16970563
20
0.1
30
0
70
32
0
SEQEND
8
0
0
POLYLINE
8
0
62
5
66
1
10
0
20
0
30
0
70
8
0
VERTEX
8
0
62
5
10
-0.12727922
20
0
30
0
70
32
0
VERTEX
8
0
62
5
10
-0.12727922
20
0.1
30
0
70
32
0
SEQEND
8
0
0
POLYLINE
8
0
62
5
66
1
10
0
20
0
30
0
70
8
0
VERTEX
8
0
62
5
10
-0.084852814
20
0
30
0
70
32
0
VERTEX
8
0
62
5
10
-0.084852814
20
0.1
30
0
70
32
0
SEQEND
8
0
0
POLYLINE
8
0
62
5
66
1
10
0
20
0
30
0
70
8
0
VERTEX
8
0
62
5
10
-0.042426407
20
0
30
0
70
32
0
VERTEX
8
0
62
5
10
-0.042426407
20
0.1
30
0
70
32
0
SEQEND
8
0
0
POLYLINE
8
0
62
5
66
1
10
0
20
0
30
0
70
8
0
VERTEX
8
0
62
5
10
0
20
0.1
30
0
70
32
0
VERTEX
8
0
62
5
10
0
20
0.16
30
0
70
32
0
SEQEND
8
0
0
POLYLINE
8
0
62
5
66
1
10
0
20
0
30
0
70
8
0
VERTEX
8
0
62
5
10
0.16970563
20
0.16
30
0
70
32
0
VERTEX
8
0
62
5
10
0.16970563
20
0.1
30
0
70
32
0
SEQEND
8
0
0
POLYLINE
8
0
62
5
66
1
10
0
20
0
30
0
70
8
0
VERTEX
8
0
62
5
10
0
20
0.1
30
0
70
32
0
VERTEX
8
0
62
5
10
0.16970563
20
0.1
30
0
70
32
0
SEQEND
8
0
0
POLYLINE
8
0
62
5
66
1
10
0
20
0
30
0
70
8
0
VERTEX
8
0
62
5
10
0
20
0.16
30
0
70
32
0
VERTEX
8
0
62
5
10
0.16970563
20
0.16
30
0
70
32
0
SEQEND
8
0
0
POLYLINE
8
0
62
5
66
1
10
0
20
0
30
0
70
8
0
VERTEX
8
0
62
5
10
0.042426407
20
0.1
30
0
70
32
0
VERTEX
8
0
62
5
10
0.042426407
20
0.1
30
0
70
32
0
SEQEND
8
0
0
POLYLINE
8
0
62
5
66
1
10
0
20
0
30
0
70
8
0
VERTEX
8
0
62
5
10
0.084852814
20
0.1
30
0
70
32
0
VERTEX
8
0
62
5
10
0.084852814
20
0.1
30
0
70
32
0
SEQEND
8
0
0
POLYLINE
8
0
62
5
66
1
10
0
20
0
30
0
70
8
0
VERTEX
8
0
62
5
10
0.12727922
20
0.1
30
0
70
32
0
VERTEX
8
0
62
5
10
0.12727922
20
0.1
30
0
70
32
0
SEQEND
8
0
0
POLYLINE
8
0
62
5
66
1
10
0
20
0
30
0
70
8
0
VERTEX
8
0
62
5
10
0.042426407
20
0.16
30
0
70
32
0
VERTEX
8
0
62
5
10
0.042426407
20
0.16
30
0
70
32
0
SEQEND
8
0
0
POLYLINE
8
0
62
5
66
1
10
0
20
0
30
0
70
8
0
VERTEX
8
0
62
5
10
0.084852814
20
0.16
30
0
70
32
0
VERTEX
8
0
62
5
10
0.084852814
20
0.16
30
0
70
32
0
SEQEND
8
0
0
POLYLINE
8
0
62
5
66
1
10
0
20
0
30
0
70
8
0
VERTEX
8
0
62
5
10
0.12727922
20
0.16
30
0
70
32
0
VERTEX
8
0
62
5
10
0.12727922
20
0.16
30
0
70
32
0
SEQEND
8
0
0
POLYLINE
8
0
62
30
66
1
10
0
20
0
30
0
70
8
0
VERTEX
8
0
62
30
10
0
20
0.16
30
0
70
32
0
VERTEX
8
0
62
30
10
0.042426407
20
0.1
30
0
70
32
0
SEQEND
8
0
0
POLYLINE
8
0
62
30
66
1
10
0
20
0
30
0
70
8
0
VERTEX
8
0
62
30
10
0.042426407
20
0.16
30
0
70
32
0
VERTEX
8
0
62
30
10
0
20
0.1
30
0
70
32
0
SEQEND
8
0
0
POLYLINE
8
0
62
30
66
1
10
0
20
0
30
0
70
8
0
VERTEX
8
0
62
30
10
0.084852814
20
0.16
30
0
70
32
0
VERTEX
8
0
62
30
10
0.12727922
20
0.1
30
0
70
32
0
SEQEND
8
0
0
POLYLINE
8
0
62
30
66
1
10
0
20
0
30
0
70
8
0
VERTEX
8
0
62
30
10
0.12727922
20
0.16
30
0
70
32
0
VERTEX
8
0
62
30
10
0.084852814
20
0.1
30
0
70
32
0
SEQEND
8
0
0
POLYLINE
8
0
62
30
66
1
10
0
20
0
30
0
70
8
0
VERTEX
8
0
62
30
10
0.042426407
20
0.13
30
0
70
32
0
VERTEX
8
0
62
30
10
0.084852814
20
0.13
30
0
70
32
0
SEQEND
8
0
0
POLYLINE
8
0
62
30
66
1
10
0
20
0
30
0
70
8
0
VERTEX
8
0
62
30
10
0.12727922
20
0.13
30
0
70
32
0
VERTEX
8
0
62
30
10
0.16970563
20
0.13
30
0
70
32
0
SEQEND
8
0
0
POLYLINE
8
0
62
5
66
1
10
0
20
0
30
0
70
8
0
VERTEX
8
0
62
5
10
0
20
0.13
30
0
70
32
0
VERTEX
8
0
62
5
10
0.021213203
20
0.13
30
0
70
32
0
SEQEND
8
0
0
POLYLINE
8
0
62
5
66
1
10
0
20
0
30
0
70
8
0
VERTEX
8
0
62
5
10
0.084852814
20
0.13
30
0
70
32
0
VERTEX
8
0
62
5
10
0.10606602
20
0.13
30
0
70
32
0
SEQEND
8
0
0
POLYLINE
8
0
62
5
66
1
10
0
20
0
30
0
70
8
0
VERTEX
8
0
62
5
10
0.021213203
20
0.13
30
0
70
32
0
VERTEX
8
0
62
5
10
0.042426407
20
0.13
30
0
70
32
0
SEQEND
8
0
0
POLYLINE
8
0
62
5
66
1
10
0
20
0
30
0
70
8
0
VERTEX
8
0
62
5
10
0.10606602
20
0.13
30
0
70
32
0
VERTEX
8
0
62
5
10
0.12727922
20
0.13
30
0
70
32
0
SEQEND
8
0
0
POLYLINE
8
0
62
5
66
1
10
0
20
0
30
0
70
8
0
VERTEX
8
0
62
5
10
0.042426407
20
0.1
30
0
70
32
0
VERTEX
8
0
62
5
10
0.042426407
20
0.16
30
0
70
32
0
SEQEND
8
0
0
POLYLINE
8
0
62
5
66
1
10
0
20
0
30
0
70
8
0
VERTEX
8
0
62
5
10
0.084852814
20
0.1
30
0
70
32
0
VERTEX
8
0
62
5
10
0.084852814
20
0.16
30
0
70
32
0
SEQEND
8
0
0
POLYLINE
8
0
62
5
66
1
10
0
20
0
30
0
70
8
0
VERTEX
8
0
62
5
10
0.12727922
20
0.1
30
0
70
32
0
VERTEX
8
0
62
5
10
0.12727922
20
0.16
30
0
70
32
0
SEQEND
8
0
0
POLYLINE
8
0
62
5
66
1
10
0
20
0
30
0
70
8
0
VERTEX
8
0
62
5
10
0
20
0.1
30
0
70
32
0
VERTEX
8
0
62
5
10
0
20
0.16
30
0
70
32
0
SEQEND
8
0
0
POLYLINE
8
0
62
5
66
1
10
0
20
0
30
0
70
8
0
VERTEX
8
0
62
5
10
0.33941125
20
0.16
30
0
70
32
0
VERTEX
8
0
62
5
10
0.33941125
20
0.1
30
0
70
32
0
SEQEND
8
0
0
POLYLINE
8
0
62
5
66
1
10
0
20
0
30
0
70
8
0
VERTEX
8
0
62
5
10
0.16970563
20
0.1
30
0
70
32
0
VERTEX
8
0
62
5
10
0.33941125
20
0.1
30
0
70
32
0
SEQEND
8
0
0
POLYLINE
8
0
62
5
66
1
10
0
20
0
30
0
70
8
0
VERTEX
8
0
62
5
10
0.16970563
20
0.16
30
0
70
32
0
VERTEX
8
0
62
5
10
0.33941125
20
0.16
30
0
70
32
0
SEQEND
8
0
0
POLYLINE
8
0
62
5
66
1
10
0
20
0
30
0
70
8
0
VERTEX
8
0
62
5
10
0.21213203
20
0.1
30
0
70
32
0
VERTEX
8
0
62
5
10
0.21213203
20
0.1
30
0
70
32
0
SEQEND
8
0
0
POLYLINE
8
0
62
5
66
1
10
0
20
0
30
0
70
8
0
VERTEX
8
0
62
5
10
0.25455844
20
0.1
30
0
70
32
0
VERTEX
8
0
62
5
10
0.25455844
20
0.1
30
0
70
32
0
SEQEND
8
0
0
POLYLINE
8
0
62
5
66
1
10
0
20
0
30
0
70
8
0
VERTEX
8
0
62
5
10
0.29698485
20
0.1
30
0
70
32
0
VERTEX
8
0
62
5
10
0.29698485
20
0.1
30
0
70
32
0
SEQEND
8
0
0
POLYLINE
8
0
62
5
66
1
10
0
20
0
30
0
70
8
0
VERTEX
8
0
62
5
10
0.21213203
20
0.16
30
0
70
32
0
VERTEX
8
0
62
5
10
0.21213203
20
0.16
30
0
70
32
0
SEQEND
8
0
0
POLYLINE
8
0
62
5
66
1
10
0
20
0
30
0
70
8
0
VERTEX
8
0
62
5
10
0.25455844
20
0.16
30
0
70
32
0
VERTEX
8
0
62
5
10
0.25455844
20
0.16
30
0
70
32
0
SEQEND
8
0
0
POLYLINE
8
0
62
5
66
1
10
0
20
0
30
0
70
8
0
VERTEX
8
0
62
5
10
0.29698485
20
0.16
30
0
70
32
0
VERTEX
8
0
62
5
10
0.29698485
20
0.16
30
0
70
32
0
SEQEND
8
0
0
POLYLINE
8
0
62
30
66
1
10
0
20
0
30
0
70
8
0
VERTEX
8
0
62
30
10
0.16970563
20
0.16
30
0
70
32
0
VERTEX
8
0
62
30
10
0.21213203
20
0.1
30
0
70
32
0
SEQEND
8
0
0
POLYLINE
8
0
62
30
66
1
10
0
20
0
30
0
70
8
0
VERTEX
8
0
62
30
10
0.21213203
20
0.16
30
0
70
32
0
VERTEX
8
0
62
30
10
0.16970563
20
0.1
30
0
70
32
0
SEQEND
8
0
0
POLYLINE
8
0
62
30
66
1
10
0
20
0
30
0
70
8
0
VERTEX
8
0
62
30
10
0.25455844
20
0.16
30
0
70
32
0
VERTEX
8
0
62
30
10
0.29698485
20
0.1
30
0
70
32
0
SEQEND
8
0
0
POLYLINE
8
0
62
30
66
1
10
0
20
0
30
0
70
8
0
VERTEX
8
0
62
30
10
0.29698485
20
0.16
30
0
70
32
0
VERTEX
8
0
62
30
10
0.25455844
20
0.1
30
0
70
32
0
SEQEND
8
0
0
POLYLINE
8
0
62
30
66
1
10
0
20
0
30
0
70
8
0
VERTEX
8
0
62
30
10
0.21213203
20
0.13
30
0
70
32
0
VERTEX
8
0
62
30
10
0.25455844
20
0.13
30
0
70
32
0
SEQEND
8
0
0
POLYLINE
8
0
62
30
66
1
10
0
20
0
30
0
70
8
0
VERTEX
8
0
62
30
10
0.29698485
20
0.13
30
0
70
32
0
VERTEX
8
0
62
30
10
0.33941125
20
0.13
30
0
70
32
0
SEQEND
8
0
0
POLYLINE
8
0
62
5
66
1
10
0
20
0
30
0
70
8
0
VERTEX
8
0
62
5
10
0.16970563
20
0.13
30
0
70
32
0
VERTEX
8
0
62
5
10
0.19091883
20
0.13
30
0
70
32
0
SEQEND
8
0
0
POLYLINE
8
0
62
5
66
1
10
0
20
0
30
0
70
8
0
VERTEX
8
0
62
5
10
0.25455844
20
0.13
30
0
70
32
0
VERTEX
8
0
62
5
10
0.27577164
20
0.13
30
0
70
32
0
SEQEND
8
0
0
POLYLINE
8
0
62
5
66
1
10
0
20
0
30
0
70
8
0
VERTEX
8
0
62
5
10
0.19091883
20
0.13
30
0
70
32
0
VERTEX
8
0
62
5
10
0.21213203
20
0.13
30
0
70
32
0
SEQEND
8
0
0
POLYLINE
8
0
62
5
66
1
10
0
20
0
30
0
70
8
0
VERTEX
8
0
62
5
10
0.27577164
20
0.13
30
0
70
32
0
VERTEX
8
0
62
5
10
0.29698485
20
0.13
30
0
70
32
0
SEQEND
8
0
0
POLYLINE
8
0
62
5
66
1
10
0
20
0
30
0
70
8
0
VERTEX
8
0
62
5
10
0.21213203
20
0.1
30
0
70
32
0
VERTEX
8
0
62
5
10
0.21213203
20
0.16
30
0
70
32
0
SEQEND
8
0
0
POLYLINE
8
0
62
5
66
1
10
0
20
0
30
0
70
8
0
VERTEX
8
0
62
5
10
0.25455844
20
0.1
30
0
70
32
0
VERTEX
8
0
62
5
10
0.25455844
20
0.16
30
0
70
32
0
SEQEND
8
0
0
POLYLINE
8
0
62
5
66
1
10
0
20
0
30
0
70
8
0
VERTEX
8
0
62
5
10
0.29698485
20
0.1
30
0
70
32
0
VERTEX
8
0
62
5
10
0.29698485
20
0.16
30
0
70
32
0
SEQEND
8
0
0
POLYLINE
8
0
62
5
66
1
10
0
20
0
30
0
70
8
0
VERTEX
8
0
62
5
10
0.16970563
20
0.1
30
0
70
32
0
VERTEX
8
0
62
5
10
0.16970563
20
0.16
30
0
70
32
0
SEQEND
8
0
0
POLYLINE
8
0
62
5
66
1
10
0
20
0
30
0
70
8
0
VERTEX
8
0
62
5
10
-0.16970563
20
0.1
30
0
70
32
0
VERTEX
8
0
62
5
10
-0.16970563
20
0.16
30
0
70
32
0
SEQEND
8
0
0
POLYLINE
8
0
62
5
66
1
10
0
20
0
30
0
70
8
0
VERTEX
8
0
62
5
10
-0.16970563
20
0.1
30
0
70
32
0
VERTEX
8
0
62
5
10
0
20
0.1
30
0
70
32
0
SEQEND
8
0
0
POLYLINE
8
0
62
5
66
1
10
0
20
0
30
0
70
8
0
VERTEX
8
0
62
5
10
-0.16970563
20
0.16
30
0
70
32
0
VERTEX
8
0
62
5
10
0
20
0.16
30
0
70
32
0
SEQEND
8
0
0
POLYLINE
8
0
62
5
66
1
10
0
20
0
30
0
70
8
0
VERTEX
8
0
62
5
10
-0.12727922
20
0.1
30
0
70
32
0
VERTEX
8
0
62
5
10
-0.12727922
20
0.1
30
0
70
32
0
SEQEND
8
0
0
POLYLINE
8
0
62
5
66
1
10
0
20
0
30
0
70
8
0
VERTEX
8
0
62
5
10
-0.084852814
20
0.1
30
0
70
32
0
VERTEX
8
0
62
5
10
-0.084852814
20
0.1
30
0
70
32
0
SEQEND
8
0
0
POLYLINE
8
0
62
5
66
1
10
0
20
0
30
0
70
8
0
VERTEX
8
0
62
5
10
-0.042426407
20
0.1
30
0
70
32
0
VERTEX
8
0
62
5
10
-0.042426407
20
0.1
30
0
70
32
0
SEQEND
8
0
0
POLYLINE
8
0
62
5
66
1
10
0
20
0
30
0
70
8
0
VERTEX
8
0
62
5
10
-0.12727922
20
0.16
30
0
70
32
0
VERTEX
8
0
62
5
10
-0.12727922
20
0.16
30
0
70
32
0
SEQEND
8
0
0
POLYLINE
8
0
62
5
66
1
10
0
20
0
30
0
70
8
0
VERTEX
8
0
62
5
10
-0.084852814
20
0.16
30
0
70
32
0
VERTEX
8
0
62
5
10
-0.084852814
20
0.16
30
0
70
32
0
SEQEND
8
0
0
POLYLINE
8
0
62
5
66
1
10
0
20
0
30
0
70
8
0
VERTEX
8
0
62
5
10
-0.042426407
20
0.16
30
0
70
32
0
VERTEX
8
0
62
5
10
-0.042426407
20
0.16
30
0
70
32
0
SEQEND
8
0
0
POLYLINE
8
0
62
30
66
1
10
0
20
0
30
0
70
8
0
VERTEX
8
0
62
30
10
-0.16970563
20
0.16
30
0
70
32
0
VERTEX
8
0
62
30
10
-0.12727922
20
0.1
30
0
70
32
0
SEQEND
8
0
0
POLYLINE
8
0
62
30
66
1
10
0
20
0
30
0
70
8
0
VERTEX
8
0
62
30
10
-0.12727922
20
0.16
30
0
70
32
0
VERTEX
8
0
62
30
10
-0.16970563
20
0.1
30
0
70
32
0
SEQEND
8
0
0
POLYLINE
8
0
62
30
66
1
10
0
20
0
30
0
70
8
0
VERTEX
8
0
62
30
10
-0.084852814
20
0.16
30
0
70
32
0
VERTEX
8
0
62
30
10
-0.042426407
20
0.1
30
0
70
32
0
SEQEND
8
0
0
POLYLINE
8
0
62
30
66
1
10
0
20
0
30
0
70
8
0
VERTEX
8
0
62
30
10
-0.042426407
20
0.16
30
0
70
32
0
VERTEX
8
0
62
30
10
-0.084852814
20
0.1
30
0
70
32
0
SEQEND
8
0
0
POLYLINE
8
0
62
30
66
1
10
0
20
0
30
0
70
8
0
VERTEX
8
0
62
30
10
-0.12727922
20
0.13
30
0
70
32
0
VERTEX
8
0
62
30
10
-0.084852814
20
0.13
30
0
70
32
0
SEQEND
8
0
0
POLYLINE
8
0
62
30
66
1
10
0
20
0
30
0
70
8
0
VERTEX
8
0
62
30
10
-0.042426407
20
0.13
30
0
70
32
0
VERTEX
8
0
62
30
10
0
20
0.13
30
0
70
32
0
SEQEND
8
0
0
POLYLINE
8
0
62
5
66
1
10
0
20
0
30
0
70
8
0
VERTEX
8
0
62
5
10
-0.16970563
20
0.13
30
0
70
32
0
VERTEX
8
0
62
5
10
-0.14849242
20
0.13
30
0
70
32
0
SEQEND
8
0
0
POLYLINE
8
0
62
5
66
1
10
0
20
0
30
0
70
8
0
VERTEX
8
0
62
5
10
-0.084852814
20
0.13
30
0
70
32
0
VERTEX
8
0
62
5
10
-0.06363961
20
0.13
30
0
70
32
0
SEQEND
8
0
0
POLYLINE
8
0
62
5
66
1
10
0
20
0
30
0
70
8
0
VERTEX
8
0
62
5
10
-0.14849242
20
0.13
30
0
70
32
0
VERTEX
8
0
62
5
10
-0.12727922
20
0.13
30
0
70
32
0
SEQEND
8
0
0
POLYLINE
8
0
62
5
66
1
10
0
20
0
30
0
70
8
0
VERTEX
8
0
62
5
10
-0.06363961
20
0.13
30
0
70
32
0
VERTEX
8
0
62
5
10
-0.042426407
20
0.13
30
0
70
32
0
SEQEND
8
0
0
POLYLINE
8
0
62
5
66
1
10
0
20
0
30
0
70
8
0
VERTEX
8
0
62
5
10
-0.12727922
20
0.1
30
0
70
32
0
VERTEX
8
0
62
5
10
-0.12727922
20
0.16
30
0
70
32
0
SEQEND
8
0
0
POLYLINE
8
0
62
5
66
1
10
0
20
0
30
0
70
8
0
VERTEX
8
0
62
5
10
-0.084852814
20
0.1
30
0
70
32
0
VERTEX
8
0
62
5
10
-0.084852814
20
0.16
30
0
70
32
0
SEQEND
8
0
0
POLYLINE
8
0
62
5
66
1
10
0
20
0
30
0
70
8
0
VERTEX
8
0
62
5
10
-0.042426407
20
0.1
30
0
70
32
0
VERTEX
8
0
62
5
10
-0.042426407
20
0.16
30
0
70
32
0
SEQEND
8
0
0
POLYLINE
8
0
62
5
66
1
10
0
20
0
30
0
70
8
0
VERTEX
8
0
62
5
10
-0.16970563
20
0.1
30
0
70
32
0
VERTEX
8
0
62
5
10
-0.16970563
20
0.16
30
0
70
32
0
SEQEND
8
0
0
POLYLINE
8
0
62
5
66
1
10
0
20
0
30
0
70
8
0
VERTEX
8
0
62
5
10
0
20
0.16
30
0
70
32
0
VERTEX
8
0
62
5
10
0
20
0.27211026
30
0
70
32
0
SEQEND
8
0
0
POLYLINE
8
0
62
5
66
1
10
0
20
0
30
0
70
8
0
VERTEX
8
0
62
5
10
0.16970563
20
0.27211026
30
0
70
32
0
VERTEX
8
0
62
5
10
0.16970563
20
0.16
30
0
70
32
0
SEQEND
8
0
0
POLYLINE
8
0
62
5
66
1
10
0
20
0
30
0
70
8
0
VERTEX
8
0
62
5
10
0
20
0.16000307
30
0
70
32
0
VERTEX
8
0
62
5
10
0.042426407
20
0.17430875
30
0
70
32
0
VERTEX
8
0
62
5
10
0.084852814
20
0.18802757
30
0
70
32
0
VERTEX
8
0
62
5
10
0.12727922
20
0.17372189
30
0
70
32
0
VERTEX
8
0
62
5
10
0.16970563
20
0.16000307
30
0
70
32
0
SEQEND
8
0
0
POLYLINE
8
0
62
5
66
1
10
0
20
0
30
0
70
8
0
VERTEX
8
0
62
5
10
0
20
0.2160582
30
0
70
32
0
VERTEX
8
0
62
5
10
0.042426407
20
0.23036388
30
0
70
32
0
VERTEX
8
0
62
5
10
0.084852814
20
0.2440827
30
0
70
32
0
VERTEX
8
0
62
5
10
0.12727922
20
0.22977702
30
0
70
32
0
VERTEX
8
0
62
5
10
0.16970563
20
0.2160582
30
0
70
32
0
SEQEND
8
0
0
POLYLINE
8
0
62
5
66
1
10
0
20
0
30
0
70
8
0
VERTEX
8
0
62
5
10
0
20
0.21605206
30
0
70
32
0
VERTEX
8
0
62
5
10
0.042426407
20
0.20174638
30
0
70
32
0
VERTEX
8
0
62
5
10
0.084852814
20
0.18802757
30
0
70
32
0
VERTEX
8
0
62
5
10
0.12727922
20
0.20233324
30
0
70
32
0
VERTEX
8
0
62
5
10
0.16970563
20
0.21605206
30
0
70
32
0
SEQEND
8
0
0
POLYLINE
8
0
62
5
66
1
10
0
20
0
30
0
70
8
0
VERTEX
8
0
62
5
10
0
20
0.27210719
30
0
70
32
0
VERTEX
8
0
62
5
10
0.042426407
20
0.25780151
30
0
70
32
0
VERTEX
8
0
62
5
10
0.084852814
20
0.2440827
30
0
70
32
0
VERTEX
8
0
62
5
10
0.12727922
20
0.25838837
30
0
70
32
0
VERTEX
8
0
62
5
10
0.16970563
20
0.27210719
30
0
70
32
0
SEQEND
8
0
0
POLYLINE
8
0
62
30
66
1
10
0
20
0
30
0
70
8
0
VERTEX
8
0
62
30
10
0
20
0.2440827
30
0
70
32
0
VERTEX
8
0
62
30
10
0.16970563
20
0.2440827
30
0
70
32
0
SEQEND
8
0
0
POLYLINE
8
0
62
30
66
1
10
0
20
0
30
0
70
8
0
VERTEX
8
0
62
30
10
0.042426407
20
0.17430875
30
0
70
32
0
VERTEX
8
0
62
30
10
0.042426407
20
0.18802757
30
0
70
32
0
SEQEND
8
0
0
POLYLINE
8
0
62
30
66
1
10
0
20
0
30
0
70
8
0
VERTEX
8
0
62
30
10
0.084852814
20
0.18802757
30
0
70
32
0
VERTEX
8
0
62
30
10
0.084852814
20
0.18802757
30
0
70
32
0
SEQEND
8
0
0
POLYLINE
8
0
62
30
66
1
10
0
20
0
30
0
70
8
0
VERTEX
8
0
62
30
10
0.12727922
20
0.17372189
30
0
70
32
0
VERTEX
8
0
62
30
10
0.12727922
20
0.18802757
30
0
70
32
0
SEQEND
8
0
0
POLYLINE
8
0
62
30
66
1
10
0
20
0
30
0
70
8
0
VERTEX
8
0
62
30
10
0.042426407
20
0.23036388
30
0
70
32
0
VERTEX
8
0
62
30
10
0.042426407
20
0.2440827
30
0
70
32
0
SEQEND
8
0
0
POLYLINE
8
0
62
30
66
1
10
0
20
0
30
0
70
8
0
VERTEX
8
0
62
30
10
0.042426407
20
0.2440827
30
0
70
32
0
VERTEX
8
0
62
30
10
0.084852814
20
0.2440827
30
0
70
32
0
SEQEND
8
0
0
POLYLINE
8
0
62
30
66
1
10
0
20
0
30
0
70
8
0
VERTEX
8
0
62
30
10
0.084852814
20
0.2440827
30
0
70
32
0
VERTEX
8
0
62
30
10
0.084852814
20
0.2440827
30
0
70
32
0
SEQEND
8
0
0
POLYLINE
8
0
62
30
66
1
10
0
20
0
30
0
70
8
0
VERTEX
8
0
62
30
10
0.084852814
20
0.2440827
30
0
70
32
0
VERTEX
8
0
62
30
10
0.12727922
20
0.22977702
30
0
70
32
0
SEQEND
8
0
0
POLYLINE
8
0
62
30
66
1
10
0
20
0
30
0
70
8
0
VERTEX
8
0
62
30
10
0.12727922
20
0.22977702
30
0
70
32
0
VERTEX
8
0
62
30
10
0.12727922
20
0.2440827
30
0
70
32
0
SEQEND
8
0
0
POLYLINE
8
0
62
5
66
1
10
0
20
0
30
0
70
8
0
VERTEX
8
0
62
5
10
0.042426407
20
0.16
30
0
70
32
0
VERTEX
8
0
62
5
10
0.042426407
20
0.17430875
30
0
70
32
0
SEQEND
8
0
0
POLYLINE
8
0
62
5
66
1
10
0
20
0
30
0
70
8
0
VERTEX
8
0
62
5
10
0.084852814
20
0.16
30
0
70
32
0
VERTEX
8
0
62
5
10
0.084852814
20
0.18802757
30
0
70
32
0
SEQEND
8
0
0
POLYLINE
8
0
62
5
66
1
10
0
20
0
30
0
70
8
0
VERTEX
8
0
62
5
10
0.12727922
20
0.16
30
0
70
32
0
VERTEX
8
0
62
5
10
0.12727922
20
0.17372189
30
0
70
32
0
SEQEND
8
0
0
POLYLINE
8
0
62
5
66
1
10
0
20
0
30
0
70
8
0
VERTEX
8
0
62
5
10
0.042426407
20
0.21605513
30
0
70
32
0
VERTEX
8
0
62
5
10
0.042426407
20
0.23036388
30
0
70
32
0
SEQEND
8
0
0
POLYLINE
8
0
62
5
66
1
10
0
20
0
30
0
70
8
0
VERTEX
8
0
62
5
10
0.084852814
20
0.21605513
30
0
70
32
0
VERTEX
8
0
62
5
10
0.084852814
20
0.2440827
30
0
70
32
0
SEQEND
8
0
0
POLYLINE
8
0
62
5
66
1
10
0
20
0
30
0
70
8
0
VERTEX
8
0
62
5
10
0.12727922
20
0.21605513
30
0
70
32
0
VERTEX
8
0
62
5
10
0.12727922
20
0.22977702
30
0
70
32
0
SEQEND
8
0
0
POLYLINE
8
0
62
5
66
1
10
0
20
0
30
0
70
8
0
VERTEX
8
0
62
5
10
0.042426407
20
0.18802757
30
0
70
32
0
VERTEX
8
0
62
5
10
0.042426407
20
0.21605513
30
0
70
32
0
SEQEND
8
0
0
POLYLINE
8
0
62
5
66
1
10
0
20
0
30
0
70
8
0
VERTEX
8
0
62
5
10
0.084852814
20
0.18802757
30
0
70
32
0
VERTEX
8
0
62
5
10
0.084852814
20
0.21605513
30
0
70
32
0
SEQEND
8
0
0
POLYLINE
8
0
62
5
66
1
10
0
20
0
30
0
70
8
0
VERTEX
8
0
62
5
10
0.12727922
20
0.18802757
30
0
70
32
0
VERTEX
8
0
62
5
10
0.12727922
20
0.21605513
30
0
70
32
0
SEQEND
8
0
0
POLYLINE
8
0
62
5
66
1
10
0
20
0
30
0
70
8
0
VERTEX
8
0
62
5
10
0.042426407
20
0.2440827
30
0
70
32
0
VERTEX
8
0
62
5
10
0.042426407
20
0.27211026
30
0
70
32
0
SEQEND
8
0
0
POLYLINE
8
0
62
5
66
1
10
0
20
0
30
0
70
8
0
VERTEX
8
0
62
5
10
0.084852814
20
0.2440827
30
0
70
32
0
VERTEX
8
0
62
5
10
0.084852814
20
0.27211026
30
0
70
32
0
SEQEND
8
0
0
POLYLINE
8
0
62
5
66
1
10
0
20
0
30
0
70
8
0
VERTEX
8
0
62
5
10
0.12727922
20
0.2440827
30
0
70
32
0
VERTEX
8
0
62
5
10
0.12727922
20
0.27211026
30
0
70
32
0
SEQEND
8
0
0
POLYLINE
8
0
62
5
66
1
10
0
20
0
30
0
70
8
0
VERTEX
8
0
62
5
10
0.33941125
20
0.27211026
30
0
70
32
0
VERTEX
8
0
62
5
10
0.33941125
20
0.16
30
0
70
32
0
SEQEND
8
0
0
POLYLINE
8
0
62
5
66
1
10
0
20
0
30
0
70
8
0
VERTEX
8
0
62
5
10
0.16970563
20
0.16000307
30
0
70
32
0
VERTEX
8
0
62
5
10
0.21213203
20
0.17430875
30
0
70
32
0
VERTEX
8
0
62
5
10
0.25455844
20
0.18802757
30
0
70
32
0
VERTEX
8
0
62
5
10
0.29698485
20
0.17372189
30
0
70
32
0
VERTEX
8
0
62
5
10
0.33941125
20
0.16000307
30
0
70
32
0
SEQEND
8
0
0
POLYLINE
8
0
62
5
66
1
10
0
20
0
30
0
70
8
0
VERTEX
8
0
62
5
10
0.16970563
20
0.2160582
30
0
70
32
0
VERTEX
8
0
62
5
10
0.21213203
20
0.23036388
30
0
70
32
0
VERTEX
8
0
62
5
10
0.25455844
20
0.2440827
30
0
70
32
0
VERTEX
8
0
62
5
10
0.29698485
20
0.22977702
30
0
70
32
0
VERTEX
8
0
62
5
10
0.33941125
20
0.2160582
30
0
70
32
0
SEQEND
8
0
0
POLYLINE
8
0
62
5
66
1
10
0
20
0
30
0
70
8
0
VERTEX
8
0
62
5
10
0.16970563
20
0.21605206
30
0
70
32
0
VERTEX
8
0
62
5
10
0.21213203
20
0.20174638
30
0
70
32
0
VERTEX
8
0
62
5
10
0.25455844
20
0.18802757
30
0
70
32
0
VERTEX
8
0
62
5
10
0.29698485
20
0.20233324
30
0
70
32
0
VERTEX
8
0
62
5
10
0.33941125
20
0.21605206
30
0
70
32
0
SEQEND
8
0
0
POLYLINE
8
0
62
5
66
1
10
0
20
0
30
0
70
8
0
VERTEX
8
0
62
5
10
0.16970563
20
0.27210719
30
0
70
32
0
VERTEX
8
0
62
5
10
0.21213203
20
0.25780151
30
0
70
32
0
VERTEX
8
0
62
5
10
0.25455844
20
0.2440827
30
0
70
32
0
VERTEX
8
0
62
5
10
0.29698485
20
0.25838837
30
0
70
32
0
VERTEX
8
0
62
5
10
0.33941125
20
0.27210719
30
0
70
32
0
SEQEND
8
0
0
POLYLINE
8
0
62
30
66
1
10
0
20
0
30
0
70
8
0
VERTEX
8
0
62
30
10
0.16970563
20
0.2440827
30
0
70
32
0
VERTEX
8
0
62
30
10
0.33941125
20
0.2440827
30
0
70
32
0
SEQEND
8
0
0
POLYLINE
8
0
62
30
66
1
10
0
20
0
30
0
70
8
0
VERTEX
8
0
62
30
10
0.21213203
20
0.17430875
30
0
70
32
0
VERTEX
8
0
62
30
10
0.21213203
20
0.18802757
30
0
70
32
0
SEQEND
8
0
0
POLYLINE
8
0
62
30
66
1
10
0
20
0
30
0
70
8
0
VERTEX
8
0
62
30
10
0.25455844
20
0.18802757
30
0
70
32
0
VERTEX
8
0
62
30
10
0.25455844
20
0.18802757
30
0
70
32
0
SEQEND
8
0
0
POLYLINE
8
0
62
30
66
1
10
0
20
0
30
0
70
8
0
VERTEX
8
0
62
30
10
0.29698485
20
0.17372189
30
0
70
32
0
VERTEX
8
0
62
30
10
0.29698485
20
0.18802757
30
0
70
32
0
SEQEND
8
0
0
POLYLINE
8
0
62
30
66
1
10
0
20
0
30
0
70
8
0
VERTEX
8
0
62
30
10
0.21213203
20
0.23036388
30
0
70
32
0
VERTEX
8
0
62
30
10
0.21213203
20
0.2440827
30
0
70
32
0
SEQEND
8
0
0
POLYLINE
8
0
62
30
66
1
10
0
20
0
30
0
70
8
0
VERTEX
8
0
62
30
10
0.21213203
20
0.2440827
30
0
70
32
0
VERTEX
8
0
62
30
10
0.25455844
20
0.2440827
30
0
70
32
0
SEQEND
8
0
0
POLYLINE
8
0
62
30
66
1
10
0
20
0
30
0
70
8
0
VERTEX
8
0
62
30
10
0.25455844
20
0.2440827
30
0
70
32
0
VERTEX
8
0
62
30
10
0.25455844
20
0.2440827
30
0
70
32
0
SEQEND
8
0
0
POLYLINE
8
0
62
30
66
1
10
0
20
0
30
0
70
8
0
VERTEX
8
0
62
30
10
0.25455844
20
0.2440827
30
0
70
32
0
VERTEX
8
0
62
30
10
0.29698485
20
0.22977702
30
0
70
32
0
SEQEND
8
0
0
POLYLINE
8
0
62
30
66
1
10
0
20
0
30
0
70
8
0
VERTEX
8
0
62
30
10
0.29698485
20
0.22977702
30
0
70
32
0
VERTEX
8
0
62
30
10
0.29698485
20
0.2440827
30
0
70
32
0
SEQEND
8
0
0
POLYLINE
8
0
62
5
66
1
10
0
20
0
30
0
70
8
0
VERTEX
8
0
62
5
10
0.21213203
20
0.16
30
0
70
32
0
VERTEX
8
0
62
5
10
0.21213203
20
0.17430875
30
0
70
32
0
SEQEND
8
0
0
POLYLINE
8
0
62
5
66
1
10
0
20
0
30
0
70
8
0
VERTEX
8
0
62
5
10
0.25455844
20
0.16
30
0
70
32
0
VERTEX
8
0
62
5
10
0.25455844
20
0.18802757
30
0
70
32
0
SEQEND
8
0
0
POLYLINE
8
0
62
5
66
1
10
0
20
0
30
0
70
8
0
VERTEX
8
0
62
5
10
0.29698485
20
0.16
30
0
70
32
0
VERTEX
8
0
62
5
10
0.29698485
20
0.17372189
30
0
70
32
0
SEQEND
8
0
0
POLYLINE
8
0
62
5
66
1
10
0
20
0
30
0
70
8
0
VERTEX
8
0
62
5
10
0.21213203
20
0.21605513
30
0
70
32
0
VERTEX
8
0
62
5
10
0.21213203
20
0.23036388
30
0
70
32
0
SEQEND
8
0
0
POLYLINE
8
0
62
5
66
1
10
0
20
0
30
0
70
8
0
VERTEX
8
0
62
5
10
0.25455844
20
0.21605513
30
0
70
32
0
VERTEX
8
0
62
5
10
0.25455844
20
0.2440827
30
0
70
32
0
SEQEND
8
0
0
POLYLINE
8
0
62
5
66
1
10
0
20
0
30
0
70
8
0
VERTEX
8
0
62
5
10
0.29698485
20
0.21605513
30
0
70
32
0
VERTEX
8
0
62
5
10
0.29698485
20
0.22977702
30
0
70
32
0
SEQEND
8
0
0
POLYLINE
8
0
62
5
66
1
10
0
20
0
30
0
70
8
0
VERTEX
8
0
62
5
10
0.21213203
20
0.18802757
30
0
70
32
0
VERTEX
8
0
62
5
10
0.21213203
20
0.21605513
30
0
70
32
0
SEQEND
8
0
0
POLYLINE
8
0
62
5
66
1
10
0
20
0
30
0
70
8
0
VERTEX
8
0
62
5
10
0.25455844
20
0.18802757
30
0
70
32
0
VERTEX
8
0
62
5
10
0.25455844
20
0.21605513
30
0
70
32
0
SEQEND
8
0
0
POLYLINE
8
0
62
5
66
1
10
0
20
0
30
0
70
8
0
VERTEX
8
0
62
5
10
0.29698485
20
0.18802757
30
0
70
32
0
VERTEX
8
0
62
5
10
0.29698485
20
0.21605513
30
0
70
32
0
SEQEND
8
0
0
POLYLINE
8
0
62
5
66
1
10
0
20
0
30
0
70
8
0
VERTEX
8
0
62
5
10
0.21213203
20
0.2440827
30
0
70
32
0
VERTEX
8
0
62
5
10
0.21213203
20
0.27211026
30
0
70
32
0
SEQEND
8
0
0
POLYLINE
8
0
62
5
66
1
10
0
20
0
30
0
70
8
0
VERTEX
8
0
62
5
10
0.25455844
20
0.2440827
30
0
70
32
0
VERTEX
8
0
62
5
10
0.25455844
20
0.27211026
30
0
70
32
0
SEQEND
8
0
0
POLYLINE
8
0
62
5
66
1
10
0
20
0
30
0
70
8
0
VERTEX
8
0
62
5
10
0.29698485
20
0.2440827
30
0
70
32
0
VERTEX
8
0
62
5
10
0.29698485
20
0.27211026
30
0
70
32
0
SEQEND
8
0
0
POLYLINE
8
0
62
5
66
1
10
0
20
0
30
0
70
8
0
VERTEX
8
0
62
5
10
-0.16970563
20
0.16
30
0
70
32
0
VERTEX
8
0
62
5
10
-0.16970563
20
0.27211026
30
0
70
32
0
SEQEND
8
0
0
POLYLINE
8
0
62
5
66
1
10
0
20
0
30
0
70
8
0
VERTEX
8
0
62
5
10
-0.16970563
20
0.16000307
30
0
70
32
0
VERTEX
8
0
62
5
10
-0.12727922
20
0.17430875
30
0
70
32
0
VERTEX
8
0
62
5
10
-0.084852814
20
0.18802757
30
0
70
32
0
VERTEX
8
0
62
5
10
-0.042426407
20
0.17372189
30
0
70
32
0
VERTEX
8
0
62
5
10
0
20
0.16000307
30
0
70
32
0
SEQEND
8
0
0
POLYLINE
8
0
62
5
66
1
10
0
20
0
30
0
70
8
0
VERTEX
8
0
62
5
10
-0.16970563
20
0.2160582
30
0
70
32
0
VERTEX
8
0
62
5
10
-0.12727922
20
0.23036388
30
0
70
32
0
VERTEX
8
0
62
5
10
-0.084852814
20
0.2440827
30
0
70
32
0
VERTEX
8
0
62
5
10
-0.042426407
20
0.22977702
30
0
70
32
0
VERTEX
8
0
62
5
10
0
20
0.2160582
30
0
70
32
0
SEQEND
8
0
0
POLYLINE
8
0
62
5
66
1
10
0
20
0
30
0
70
8
0
VERTEX
8
0
62
5
10
-0.16970563
20
0.21605206
30
0
70
32
0
VERTEX
8
0
62
5
10
-0.12727922
20
0.20174638
30
0
70
32
0
VERTEX
8
0
62
5
10
-0.084852814
20
0.18802757
30
0
70
32
0
VERTEX
8
0
62
5
10
-0.042426407
20
0.20233324
30
0
70
32
0
VERTEX
8
0
62
5
10
0
20
0.21605206
30
0
70
32
0
SEQEND
8
0
0
POLYLINE
8
0
62
5
66
1
10
0
20
0
30
0
70
8
0
VERTEX
8
0
62
5
10
-0.16970563
20
0.27210719
30
0
70
32
0
VERTEX
8
0
62
5
10
-0.12727922
20
0.25780151
30
0
70
32
0
VERTEX
8
0
62
5
10
-0.084852814
20
0.2440827
30
0
70
32
0
VERTEX
8
0
62
5
10
-0.042426407
20
0.25838837
30
0
70
32
0
VERTEX
8
0
62
5
10
0
20
0.27210719
30
0
70
32
0
SEQEND
8
0
0
POLYLINE
8
0
62
30
66
1
10
0
20
0
30
0
70
8
0
VERTEX
8
0
62
30
10
-0.16970563
20
0.2440827
30
0
70
32
0
VERTEX
8
0
62
30
10
0
20
0.2440827
30
0
70
32
0
SEQEND
8
0
0
POLYLINE
8
0
62
30
66
1
10
0
20
0
30
0
70
8
0
VERTEX
8
0
62
30
10
-0.12727922
20
0.17430875
30
0
70
32
0
VERTEX
8
0
62
30
10
-0.12727922
20
0.18802757
30
0
70
32
0
SEQEND
8
0
0
POLYLINE
8
0
62
30
66
1
10
0
20
0
30
0
70
8
0
VERTEX
8
0
62
30
10
-0.084852814
20
0.18802757
30
0
70
32
0
VERTEX
8
0
62
30
10
-0.084852814
20
0.18802757
30
0
70
32
0
SEQEND
8
0
0
POLYLINE
8
0
62
30
66
1
10
0
20
0
30
0
70
8
0
VERTEX
8
0
62
30
10
-0.042426407
20
0.17372189
30
0
70
32
0
VERTEX
8
0
62
30
10
-0.042426407
20
0.18802757
30
0
70
32
0
SEQEND
8
0
0
POLYLINE
8
0
62
30
66
1
10
0
20
0
30
0
70
8
0
VERTEX
8
0
62
30
10
-0.12727922
20
0.23036388
30
0
70
32
0
VERTEX
8
0
62
30
10
-0.12727922
20
0.2440827
30
0
70
32
0
SEQEND
8
0
0
POLYLINE
8
0
62
30
66
1
10
0
20
0
30
0
70
8
0
VERTEX
8
0
62
30
10
-0.12727922
20
0.2440827
30
0
70
32
0
VERTEX
8
0
62
30
10
-0.084852814
20
0.2440827
30
0
70
32
0
SEQEND
8
0
0
POLYLINE
8
0
62
30
66
1
10
0
20
0
30
0
70
8
0
VERTEX
8
0
62
30
10
-0.084852814
20
0.2440827
30
0
70
32
0
VERTEX
8
0
62
30
10
-0.084852814
20
0.2440827
30
0
70
32
0
SEQEND
8
0
0
POLYLINE
8
0
62
30
66
1
10
0
20
0
30
0
70
8
0
VERTEX
8
0
62
30
10
-0.084852814
20
0.2440827
30
0
70
32
0
VERTEX
8
0
62
30
10
-0.042426407
20
0.22977702
30
0
70
32
0
SEQEND
8
0
0
POLYLINE
8
0
62
30
66
1
10
0
20
0
30
0
70
8
0
VERTEX
8
0
62
30
10
-0.042426407
20
0.22977702
30
0
70
32
0
VERTEX
8
0
62
30
10
-0.042426407
20
0.2440827
30
0
70
32
0
SEQEND
8
0
0
POLYLINE
8
0
62
5
66
1
10
0
20
0
30
0
70
8
0
VERTEX
8
0
62
5
10
-0.12727922
20
0.16
30
0
70
32
0
VERTEX
8
0
62
5
10
-0.12727922
20
0.17430875
30
0
70
32
0
SEQEND
8
0
0
POLYLINE
8
0
62
5
66
1
10
0
20
0
30
0
70
8
0
VERTEX
8
0
62
5
10
-0.084852814
20
0.16
30
0
70
32
0
VERTEX
8
0
62
5
10
-0.084852814
20
0.18802757
30
0
70
32
0
SEQEND
8
0
0
POLYLINE
8
0
62
5
66
1
10
0
20
0
30
0
70
8
0
VERTEX
8
0
62
5
10
-0.042426407
20
0.16
30
0
70
32
0
VERTEX
8
0
62
5
10
-0.042426407
20
0.17372189
30
0
70
32
0
SEQEND
8
0
0
POLYLINE
8
0
62
5
66
1
10
0
20
0
30
0
70
8
0
VERTEX
8
0
62
5
10
-0.12727922
20
0.21605513
30
0
70
32
0
VERTEX
8
0
62
5
10
-0.12727922
20
0.23036388
30
0
70
32
0
SEQEND
8
0
0
POLYLINE
8
0
62
5
66
1
10
0
20
0
30
0
70
8
0
VERTEX
8
0
62
5
10
-0.084852814
20
0.21605513
30
0
70
32
0
VERTEX
8
0
62
5
10
-0.084852814
20
0.2440827
30
0
70
32
0
SEQEND
8
0
0
POLYLINE
8
0
62
5
66
1
10
0
20
0
30
0
70
8
0
VERTEX
8
0
62
5
10
-0.042426407
20
0.21605513
30
0
70
32
0
VERTEX
8
0
62
5
10
-0.042426407
20
0.22977702
30
0
70
32
0
SEQEND
8
0
0
POLYLINE
8
0
62
5
66
1
10
0
20
0
30
0
70
8
0
VERTEX
8
0
62
5
10
-0.12727922
20
0.18802757
30
0
70
32
0
VERTEX
8
0
62
5
10
-0.12727922
20
0.21605513
30
0
70
32
0
SEQEND
8
0
0
POLYLINE
8
0
62
5
66
1
10
0
20
0
30
0
70
8
0
VERTEX
8
0
62
5
10
-0.084852814
20
0.18802757
30
0
70
32
0
VERTEX
8
0
62
5
10
-0.084852814
20
0.21605513
30
0
70
32
0
SEQEND
8
0
0
POLYLINE
8
0
62
5
66
1
10
0
20
0
30
0
70
8
0
VERTEX
8
0
62
5
10
-0.042426407
20
0.18802757
30
0
70
32
0
VERTEX
8
0
62
5
10
-0.042426407
20
0.21605513
30
0
70
32
0
SEQEND
8
0
0
POLYLINE
8
0
62
5
66
1
10
0
20
0
30
0
70
8
0
VERTEX
8
0
62
5
10
-0.12727922
20
0.2440827
30
0
70
32
0
VERTEX
8
0
62
5
10
-0.12727922
20
0.27211026
30
0
70
32
0
SEQEND
8
0
0
POLYLINE
8
0
62
5
66
1
10
0
20
0
30
0
70
8
0
VERTEX
8
0
62
5
10
-0.084852814
20
0.2440827
30
0
70
32
0
VERTEX
8
0
62
5
10
-0.084852814
20
0.27211026
30
0
70
32
0
SEQEND
8
0
0
POLYLINE
8
0
62
5
66
1
10
0
20
0
30
0
70
8
0
VERTEX
8
0
62
5
10
-0.042426407
20
0.2440827
30
0
70
32
0
VERTEX
8
0
62
5
10
-0.042426407
20
0.27211026
30
0
70
32
0
SEQEND
8
0
0
POLYLINE
8
0
62
30
66
1
10
0
20
0
30
0
70
8
0
VERTEX
8
0
62
30
10
0
20
0.32768607
30
0
70
32
0
VERTEX
8
0
62
30
10
0.16970563
20
0.32768607
30
0
70
32
0
SEQEND
8
0
0
POLYLINE
8
0
62
30
66
1
10
0
20
0
30
0
70
8
0
VERTEX
8
0
62
30
10
0
20
0.27211026
30
0
70
32
0
VERTEX
8
0
62
30
10
0.16970563
20
0.27211026
30
0
70
32
0
SEQEND
8
0
0
POLYLINE
8
0
62
5
66
1
10
0
20
0
30
0
70
8
0
VERTEX
8
0
62
5
10
0
20
0.27211026
30
0
70
32
0
VERTEX
8
0
62
5
10
0.018314844
20
0.32768607
30
0
70
32
0
VERTEX
8
0
62
5
10
0.042426407
20
0.27211026
30
0
70
32
0
VERTEX
8
0
62
5
10
0.060741251
20
0.32768607
30
0
70
32
0
VERTEX
8
0
62
5
10
0.084852814
20
0.27211026
30
0
70
32
0
VERTEX
8
0
62
5
10
0.10316766
20
0.32768607
30
0
70
32
0
VERTEX
8
0
62
5
10
0.12727922
20
0.27211026
30
0
70
32
0
VERTEX
8
0
62
5
10
0.14559406
20
0.32768607
30
0
70
32
0
VERTEX
8
0
62
5
10
0.16970563
20
0.27211026
30
0
70
32
0
SEQEND
8
0
0
POLYLINE
8
0
62
5
66
1
10
0
20
0
30
0
70
8
0
VERTEX
8
0
62
5
10
0.042426407
20
0.27211026
30
0
70
32
0
VERTEX
8
0
62
5
10
0.042426407
20
0.27211026
30
0
70
32
0
SEQEND
8
0
0
POLYLINE
8
0
62
5
66
1
10
0
20
0
30
0
70
8
0
VERTEX
8
0
62
5
10
0.084852814
20
0.27211026
30
0
70
32
0
VERTEX
8
0
62
5
10
0.084852814
20
0.27211026
30
0
70
32
0
SEQEND
8
0
0
POLYLINE
8
0
62
5
66
1
10
0
20
0
30
0
70
8
0
VERTEX
8
0
62
5
10
0.12727922
20
0.27211026
30
0
70
32
0
VERTEX
8
0
62
5
10
0.12727922
20
0.27211026
30
0
70
32
0
SEQEND
8
0
0
POLYLINE
8
0
62
5
66
1
10
0
20
0
30
0
70
8
0
VERTEX
8
0
62
5
10
0.018314844
20
0.32768607
30
0
70
32
0
VERTEX
8
0
62
5
10
0.018314844
20
0.32768607
30
0
70
32
0
SEQEND
8
0
0
POLYLINE
8
0
62
5
66
1
10
0
20
0
30
0
70
8
0
VERTEX
8
0
62
5
10
0.060741251
20
0.32768607
30
0
70
32
0
VERTEX
8
0
62
5
10
0.060741251
20
0.32768607
30
0
70
32
0
SEQEND
8
0
0
POLYLINE
8
0
62
5
66
1
10
0
20
0
30
0
70
8
0
VERTEX
8
0
62
5
10
0.10316766
20
0.32768607
30
0
70
32
0
VERTEX
8
0
62
5
10
0.10316766
20
0.32768607
30
0
70
32
0
SEQEND
8
0
0
POLYLINE
8
0
62
5
66
1
10
0
20
0
30
0
70
8
0
VERTEX
8
0
62
5
10
0.14559406
20
0.32768607
30
0
70
32
0
VERTEX
8
0
62
5
10
0.14559406
20
0.32768607
30
0
70
32
0
SEQEND
8
0
0
POLYLINE
8
0
62
30
66
1
10
0
20
0
30
0
70
8
0
VERTEX
8
0
62
30
10
0.16970563
20
0.32768607
30
0
70
32
0
VERTEX
8
0
62
30
10
0.33941125
20
0.32768607
30
0
70
32
0
SEQEND
8
0
0
POLYLINE
8
0
62
30
66
1
10
0
20
0
30
0
70
8
0
VERTEX
8
0
62
30
10
0.16970563
20
0.27211026
30
0
70
32
0
VERTEX
8
0
62
30
10
0.33941125
20
0.27211026
30
0
70
32
0
SEQEND
8
0
0
POLYLINE
8
0
62
5
66
1
10
0
20
0
30
0
70
8
0
VERTEX
8
0
62
5
10
0.16970563
20
0.27211026
30
0
70
32
0
VERTEX
8
0
62
5
10
0.18802047
20
0.32768607
30
0
70
32
0
VERTEX
8
0
62
5
10
0.21213203
20
0.27211026
30
0
70
32
0
VERTEX
8
0
62
5
10
0.23044688
20
0.32768607
30
0
70
32
0
VERTEX
8
0
62
5
10
0.25455844
20
0.27211026
30
0
70
32
0
VERTEX
8
0
62
5
10
0.27287329
20
0.32768607
30
0
70
32
0
VERTEX
8
0
62
5
10
0.29698485
20
0.27211026
30
0
70
32
0
VERTEX
8
0
62
5
10
0.31529969
20
0.32768607
30
0
70
32
0
VERTEX
8
0
62
5
10
0.33941125
20
0.27211026
30
0
70
32
0
SEQEND
8
0
0
POLYLINE
8
0
62
5
66
1
10
0
20
0
30
0
70
8
0
VERTEX
8
0
62
5
10
0.21213203
20
0.27211026
30
0
70
32
0
VERTEX
8
0
62
5
10
0.21213203
20
0.27211026
30
0
70
32
0
SEQEND
8
0
0
POLYLINE
8
0
62
5
66
1
10
0
20
0
30
0
70
8
0
VERTEX
8
0
62
5
10
0.25455844
20
0.27211026
30
0
70
32
0
VERTEX
8
0
62
5
10
0.25455844
20
0.27211026
30
0
70
32
0
SEQEND
8
0
0
POLYLINE
8
0
62
5
66
1
10
0
20
0
30
0
70
8
0
VERTEX
8
0
62
5
10
0.29698485
20
0.27211026
30
0
70
32
0
VERTEX
8
0
62
5
10
0.29698485
20
0.27211026
30
0
70
32
0
SEQEND
8
0
0
POLYLINE
8
0
62
5
66
1
10
0
20
0
30
0
70
8
0
VERTEX
8
0
62
5
10
0.18802047
20
0.32768607
30
0
70
32
0
VERTEX
8
0
62
5
10
0.18802047
20
0.32768607
30
0
70
32
0
SEQEND
8
0
0
POLYLINE
8
0
62
5
66
1
10
0
20
0
30
0
70
8
0
VERTEX
8
0
62
5
10
0.23044688
20
0.32768607
30
0
70
32
0
VERTEX
8
0
62
5
10
0.23044688
20
0.32768607
30
0
70
32
0
SEQEND
8
0
0
POLYLINE
8
0
62
5
66
1
10
0
20
0
30
0
70
8
0
VERTEX
8
0
62
5
10
0.27287329
20
0.32768607
30
0
70
32
0
VERTEX
8
0
62
5
10
0.27287329
20
0.32768607
30
0
70
32
0
SEQEND
8
0
0
POLYLINE
8
0
62
5
66
1
10
0
20
0
30
0
70
8
0
VERTEX
8
0
62
5
10
0.31529969
20
0.32768607
30
0
70
32
0
VERTEX
8
0
62
5
10
0.31529969
20
0.32768607
30
0
70
32
0
SEQEND
8
0
0
POLYLINE
8
0
62
30
66
1
10
0
20
0
30
0
70
8
0
VERTEX
8
0
62
30
10
-0.16970563
20
0.32768607
30
0
70
32
0
VERTEX
8
0
62
30
10
0
20
0.32768607
30
0
70
32
0
SEQEND
8
0
0
POLYLINE
8
0
62
30
66
1
10
0
20
0
30
0
70
8
0
VERTEX
8
0
62
30
10
-0.16970563
20
0.27211026
30
0
70
32
0
VERTEX
8
0
62
30
10
0
20
0.27211026
30
0
70
32
0
SEQEND
8
0
0
POLYLINE
8
0
62
5
66
1
10
0
20
0
30
0
70
8
0
VERTEX
8
0
62
5
10
-0.16970563
20
0.27211026
30
0
70
32
0
VERTEX
8
0
62
5
10
-0.15139078
20
0.32768607
30
0
70
32
0
VERTEX
8
0
62
5
10
-0.12727922
20
0.27211026
30
0
70
32
0
VERTEX
8
0
62
5
10
-0.10896438
20
0.32768607
30
0
70
32
0
VERTEX
8
0
62
5
10
-0.084852814
20
0.27211026
30
0
70
32
0
VERTEX
8
0
62
5
10
-0.066537969
20
0.32768607
30
0
70
32
0
VERTEX
8
0
62
5
10
-0.042426407
20
0.27211026
30
0
70
32
0
VERTEX
8
0
62
5
10
-0.024111563
20
0.32768607
30
0
70
32
0
VERTEX
8
0
62
5
10
0
20
0.27211026
30
0
70
32
0
SEQEND
8
0
0
POLYLINE
8
0
62
5
66
1
10
0
20
0
30
0
70
8
0
VERTEX
8
0
62
5
10
-0.12727922
20
0.27211026
30
0
70
32
0
VERTEX
8
0
62
5
10
-0.12727922
20
0.27211026
30
0
70
32
0
SEQEND
8
0
0
POLYLINE
8
0
62
5
66
1
10
0
20
0
30
0
70
8
0
VERTEX
8
0
62
5
10
-0.084852814
20
0.27211026
30
0
70
32
0
VERTEX
8
0
62
5
10
-0.084852814
20
0.27211026
30
0
70
32
0
SEQEND
8
0
0
POLYLINE
8
0
62
5
66
1
10
0
20
0
30
0
70
8
0
VERTEX
8
0
62
5
10
-0.042426407
20
0.27211026
30
0
70
32
0
VERTEX
8
0
62
5
10
-0.042426407
20
0.27211026
30
0
70
32
0
SEQEND
8
0
0
POLYLINE
8
0
62
5
66
1
10
0
20
0
30
0
70
8
0
VERTEX
8
0
62
5
10
-0.15139078
20
0.32768607
30
0
70
32
0
VERTEX
8
0
62
5
10
-0.15139078
20
0.32768607
30
0
70
32
0
SEQEND
8
0
0
POLYLINE
8
0
62
5
66
1
10
0
20
0
30
0
70
8
0
VERTEX
8
0
62
5
10
-0.10896438
20
0.32768607
30
0
70
32
0
VERTEX
8
0
62
5
10
-0.10896438
20
0.32768607
30
0
70
32
0
SEQEND
8
0
0
POLYLINE
8
0
62
5
66
1
10
0
20
0
30
0
70
8
0
VERTEX
8
0
62
5
10
-0.066537969
20
0.32768607
30
0
70
32
0
VERTEX
8
0
62
5
10
-0.066537969
20
0.32768607
30
0
70
32
0
SEQEND
8
0
0
POLYLINE
8
0
62
5
66
1
10
0
20
0
30
0
70
8
0
VERTEX
8
0
62
5
10
-0.024111563
20
0.32768607
30
0
70
32
0
VERTEX
8
0
62
5
10
-0.024111563
20
0.32768607
30
0
70
32
0
SEQEND
8
0
0
POLYLINE
8
0
62
5
66
1
10
0
20
0
30
0
70
8
0
VERTEX
8
0
62
5
10
0.018314844
20
0.32768607
30
0
70
32
0
VERTEX
8
0
62
5
10
0.018314844
20
0.54728241
30
0
70
32
0
SEQEND
8
0
0
POLYLINE
8
0
62
5
66
1
10
0
20
0
30
0
70
8
0
VERTEX
8
0
62
5
10
0.18802047
20
0.32768607
30
0
70
32
0
VERTEX
8
0
62
5
10
0.18802047
20
0.54728241
30
0
70
32
0
SEQEND
8
0
0
POLYLINE
8
0
62
5
66
1
10
0
20
0
30
0
70
8
0
VERTEX
8
0
62
5
10
0.060741251
20
0.32768607
30
0
70
32
0
VERTEX
8
0
62
5
10
0.060741251
20
0.54728241
30
0
70
32
0
SEQEND
8
0
0
POLYLINE
8
0
62
5
66
1
10
0
20
0
30
0
70
8
0
VERTEX
8
0
62
5
10
0.10316766
20
0.32768607
30
0
70
32
0
VERTEX
8
0
62
5
10
0.10316766
20
0.54728241
30
0
70
32
0
SEQEND
8
0
0
POLYLINE
8
0
62
5
66
1
10
0
20
0
30
0
70
8
0
VERTEX
8
0
62
5
10
0.14559406
20
0.32768607
30
0
70
32
0
VERTEX
8
0
62
5
10
0.14559406
20
0.54728241
30
0
70
32
0
SEQEND
8
0
0
POLYLINE
8
0
62
5
66
1
10
0
20
0
30
0
70
8
0
VERTEX
8
0
62
5
10
0.3577261
20
0.32768607
30
0
70
32
0
VERTEX
8
0
62
5
10
0.3577261
20
0.54728241
30
0
70
32
0
SEQEND
8
0
0
POLYLINE
8
0
62
5
66
1
10
0
20
0
30
0
70
8
0
VERTEX
8
0
62
5
10
0.23044688
20
0.32768607
30
0
70
32
0
VERTEX
8
0
62
5
10
0.23044688
20
0.54728241
30
0
70
32
0
SEQEND
8
0
0
POLYLINE
8
0
62
5
66
1
10
0
20
0
30
0
70
8
0
VERTEX
8
0
62
5
10
0.27287329
20
0.32768607
30
0
70
32
0
VERTEX
8
0
62
5
10
0.27287329
20
0.54728241
30
0
70
32
0
SEQEND
8
0
0
POLYLINE
8
0
62
5
66
1
10
0
20
0
30
0
70
8
0
VERTEX
8
0
62
5
10
0.31529969
20
0.32768607
30
0
70
32
0
VERTEX
8
0
62
5
10
0.31529969
20
0.54728241
30
0
70
32
0
SEQEND
8
0
0
POLYLINE
8
0
62
5
66
1
10
0
20
0
30
0
70
8
0
VERTEX
8
0
62
5
10
-0.15139078
20
0.32768607
30
0
70
32
0
VERTEX
8
0
62
5
10
-0.15139078
20
0.54728241
30
0
70
32
0
SEQEND
8
0
0
POLYLINE
8
0
62
5
66
1
10
0
20
0
30
0
70
8
0
VERTEX
8
0
62
5
10
-0.10896438
20
0.32768607
30
0
70
32
0
VERTEX
8
0
62
5
10
-0.10896438
20
0.54728241
30
0
70
32
0
SEQEND
8
0
0
POLYLINE
8
0
62
5
66
1
10
0
20
0
30
0
70
8
0
VERTEX
8
0
62
5
10
-0.066537969
20
0.32768607
30
0
70
32
0
VERTEX
8
0
62
5
10
-0.066537969
20
0.54728241
30
0
70
32
0
SEQEND
8
0
0
POLYLINE
8
0
62
5
66
1
10
0
20
0
30
0
70
8
0
VERTEX
8
0
62
5
10
-0.024111563
20
0.32768607
30
0
70
32
0
VERTEX
8
0
62
5
10
-0.024111563
20
0.54728241
30
0
70
32
0
SEQEND
8
0
0
POLYLINE
8
0
62
5
66
1
10
0
20
0
30
0
70
8
0
VERTEX
8
0
62
5
10
0.018314844
20
0.54728241
30
0
70
32
0
VERTEX
8
0
62
5
10
0.018314844
20
0.59578611
30
0
70
32
0
SEQEND
8
0
0
POLYLINE
8
0
62
5
66
1
10
0
20
0
30
0
70
8
0
VERTEX
8
0
62
5
10
0.18802047
20
0.59578611
30
0
70
32
0
VERTEX
8
0
62
5
10
0.18802047
20
0.54728241
30
0
70
32
0
SEQEND
8
0
0
POLYLINE
8
0
62
5
66
1
10
0
20
0
30
0
70
8
0
VERTEX
8
0
62
5
10
0.018314844
20
0.55360691
30
0
70
32
0
VERTEX
8
0
62
5
10
0.060741251
20
0.54915403
30
0
70
32
0
VERTEX
8
0
62
5
10
0.10316766
20
0.56708137
30
0
70
32
0
VERTEX
8
0
62
5
10
0.14559406
20
0.57153426
30
0
70
32
0
VERTEX
8
0
62
5
10
0.18802047
20
0.55360691
30
0
70
32
0
SEQEND
8
0
0
POLYLINE
8
0
62
5
66
1
10
0
20
0
30
0
70
8
0
SEQEND
8
0
0
POLYLINE
8
0
62
5
66
1
10
0
20
0
30
0
70
8
0
VERTEX
8
0
62
5
10
0.018314844
20
0.5894616
30
0
70
32
0
VERTEX
8
0
62
5
10
0.060741251
20
0.59391449
30
0
70
32
0
VERTEX
8
0
62
5
10
0.10316766
20
0.57598715
30
0
70
32
0
VERTEX
8
0
62
5
10
0.14559406
20
0.57153426
30
0
70
32
0
VERTEX
8
0
62
5
10
0.18802047
20
0.5894616
30
0
70
32
0
SEQEND
8
0
0
POLYLINE
8
0
62
30
66
1
10
0
20
0
30
0
70
8
0
VERTEX
8
0
62
30
10
0.018314844
20
0.57153426
30
0
70
32
0
VERTEX
8
0
62
30
10
0.18802047
20
0.57153426
30
0
70
32
0
SEQEND
8
0
0
POLYLINE
8
0
62
30
66
1
10
0
20
0
30
0
70
8
0
VERTEX
8
0
62
30
10
0.060741251
20
0.54915403
30
0
70
32
0
VERTEX
8
0
62
30
10
0.060741251
20
0.57153426
30
0
70
32
0
SEQEND
8
0
0
POLYLINE
8
0
62
30
66
1
10
0
20
0
30
0
70
8
0
VERTEX
8
0
62
30
10
0.10316766
20
0.56708137
30
0
70
32
0
VERTEX
8
0
62
30
10
0.10316766
20
0.57153426
30
0
70
32
0
SEQEND
8
0
0
POLYLINE
8
0
62
30
66
1
10
0
20
0
30
0
70
8
0
VERTEX
8
0
62
30
10
0.14559406
20
0.57153426
30
0
70
32
0
VERTEX
8
0
62
30
10
0.14559406
20
0.57153426
30
0
70
32
0
SEQEND
8
0
0
POLYLINE
8
0
62
5
66
1
10
0
20
0
30
0
70
8
0
VERTEX
8
0
62
5
10
0.060741251
20
0.54728241
30
0
70
32
0
VERTEX
8
0
62
5
10
0.060741251
20
0.54915403
30
0
70
32
0
SEQEND
8
0
0
POLYLINE
8
0
62
5
66
1
10
0
20
0
30
0
70
8
0
VERTEX
8
0
62
5
10
0.10316766
20
0.54728241
30
0
70
32
0
VERTEX
8
0
62
5
10
0.10316766
20
0.56708137
30
0
70
32
0
SEQEND
8
0
0
POLYLINE
8
0
62
5
66
1
10
0
20
0
30
0
70
8
0
VERTEX
8
0
62
5
10
0.14559406
20
0.54728241
30
0
70
32
0
VERTEX
8
0
62
5
10
0.14559406
20
0.57153426
30
0
70
32
0
SEQEND
8
0
0
POLYLINE
8
0
62
5
66
1
10
0
20
0
30
0
70
8
0
VERTEX
8
0
62
5
10
0.060741251
20
0.57153426
30
0
70
32
0
VERTEX
8
0
62
5
10
0.060741251
20
0.59578611
30
0
70
32
0
SEQEND
8
0
0
POLYLINE
8
0
62
5
66
1
10
0
20
0
30
0
70
8
0
VERTEX
8
0
62
5
10
0.10316766
20
0.57153426
30
0
70
32
0
VERTEX
8
0
62
5
10
0.10316766
20
0.59578611
30
0
70
32
0
SEQEND
8
0
0
POLYLINE
8
0
62
5
66
1
10
0
20
0
30
0
70
8
0
VERTEX
8
0
62
5
10
0.14559406
20
0.57153426
30
0
70
32
0
VERTEX
8
0
62
5
10
0.14559406
20
0.59578611
30
0
70
32
0
SEQEND
8
0
0
POLYLINE
8
0
62
5
66
1
10
0
20
0
30
0
70
8
0
VERTEX
8
0
62
5
10
0.3577261
20
0.59578611
30
0
70
32
0
VERTEX
8
0
62
5
10
0.3577261
20
0.54728241
30
0
70
32
0
SEQEND
8
0
0
POLYLINE
8
0
62
5
66
1
10
0
20
0
30
0
70
8
0
VERTEX
8
0
62
5
10
0.18802047
20
0.55360691
30
0
70
32
0
VERTEX
8
0
62
5
10
0.23044688
20
0.54915403
30
0
70
32
0
VERTEX
8
0
62
5
10
0.27287329
20
0.56708137
30
0
70
32
0
VERTEX
8
0
62
5
10
0.31529969
20
0.57153426
30
0
70
32
0
VERTEX
8
0
62
5
10
0.3577261
20
0.55360691
30
0
70
32
0
SEQEND
8
0
0
POLYLINE
8
0
62
5
66
1
10
0
20
0
30
0
70
8
0
SEQEND
8
0
0
POLYLINE
8
0
62
5
66
1
10
0
20
0
30
0
70
8
0
VERTEX
8
0
62
5
10
0.18802047
20
0.5894616
30
0
70
32
0
VERTEX
8
0
62
5
10
0.23044688
20
0.59391449
30
0
70
32
0
VERTEX
8
0
62
5
10
0.27287329
20
0.57598715
30
0
70
32
0
VERTEX
8
0
62
5
10
0.31529969
20
0.57153426
30
0
70
32
0
VERTEX
8
0
62
5
10
0.3577261
20
0.5894616
30
0
70
32
0
SEQEND
8
0
0
POLYLINE
8
0
62
30
66
1
10
0
20
0
30
0
70
8
0
VERTEX
8
0
62
30
10
0.18802047
20
0.57153426
30
0
70
32
0
VERTEX
8
0
62
30
10
0.3577261
20
0.57153426
30
0
70
32
0
SEQEND
8
0
0
POLYLINE
8
0
62
30
66
1
10
0
20
0
30
0
70
8
0
VERTEX
8
0
62
30
10
0.23044688
20
0.54915403
30
0
70
32
0
VERTEX
8
0
62
30
10
0.23044688
20
0.57153426
30
0
70
32
0
SEQEND
8
0
0
POLYLINE
8
0
62
30
66
1
10
0
20
0
30
0
70
8
0
VERTEX
8
0
62
30
10
0.27287329
20
0.56708137
30
0
70
32
0
VERTEX
8
0
62
30
10
0.27287329
20
0.57153426
30
0
70
32
0
SEQEND
8
0
0
POLYLINE
8
0
62
30
66
1
10
0
20
0
30
0
70
8
0
VERTEX
8
0
62
30
10
0.31529969
20
0.57153426
30
0
70
32
0
VERTEX
8
0
62
30
10
0.31529969
20
0.57153426
30
0
70
32
0
SEQEND
8
0
0
POLYLINE
8
0
62
5
66
1
10
0
20
0
30
0
70
8
0
VERTEX
8
0
62
5
10
0.23044688
20
0.54728241
30
0
70
32
0
VERTEX
8
0
62
5
10
0.23044688
20
0.54915403
30
0
70
32
0
SEQEND
8
0
0
POLYLINE
8
0
62
5
66
1
10
0
20
0
30
0
70
8
0
VERTEX
8
0
62
5
10
0.27287329
20
0.54728241
30
0
70
32
0
VERTEX
8
0
62
5
10
0.27287329
20
0.56708137
30
0
70
32
0
SEQEND
8
0
0
POLYLINE
8
0
62
5
66
1
10
0
20
0
30
0
70
8
0
VERTEX
8
0
62
5
10
0.31529969
20
0.54728241
30
0
70
32
0
VERTEX
8
0
62
5
10
0.31529969
20
0.57153426
30
0
70
32
0
SEQEND
8
0
0
POLYLINE
8
0
62
5
66
1
10
0
20
0
30
0
70
8
0
VERTEX
8
0
62
5
10
0.23044688
20
0.57153426
30
0
70
32
0
VERTEX
8
0
62
5
10
0.23044688
20
0.59578611
30
0
70
32
0
SEQEND
8
0
0
POLYLINE
8
0
62
5
66
1
10
0
20
0
30
0
70
8
0
VERTEX
8
0
62
5
10
0.27287329
20
0.57153426
30
0
70
32
0
VERTEX
8
0
62
5
10
0.27287329
20
0.59578611
30
0
70
32
0
SEQEND
8
0
0
POLYLINE
8
0
62
5
66
1
10
0
20
0
30
0
70
8
0
VERTEX
8
0
62
5
10
0.31529969
20
0.57153426
30
0
70
32
0
VERTEX
8
0
62
5
10
0.31529969
20
0.59578611
30
0
70
32
0
SEQEND
8
0
0
POLYLINE
8
0
62
5
66
1
10
0
20
0
30
0
70
8
0
VERTEX
8
0
62
5
10
-0.15139078
20
0.54728241
30
0
70
32
0
VERTEX
8
0
62
5
10
-0.15139078
20
0.59578611
30
0
70
32
0
SEQEND
8
0
0
POLYLINE
8
0
62
5
66
1
10
0
20
0
30
0
70
8
0
VERTEX
8
0
62
5
10
-0.15139078
20
0.55360691
30
0
70
32
0
VERTEX
8
0
62
5
10
-0.10896438
20
0.54915403
30
0
70
32
0
VERTEX
8
0
62
5
10
-0.066537969
20
0.56708137
30
0
70
32
0
VERTEX
8
0
62
5
10
-0.024111563
20
0.57153426
30
0
70
32
0
VERTEX
8
0
62
5
10
0.018314844
20
0.55360691
30
0
70
32
0
SEQEND
8
0
0
POLYLINE
8
0
62
5
66
1
10
0
20
0
30
0
70
8
0
SEQEND
8
0
0
POLYLINE
8
0
62
5
66
1
10
0
20
0
30
0
70
8
0
VERTEX
8
0
62
5
10
-0.15139078
20
0.5894616
30
0
70
32
0
VERTEX
8
0
62
5
10
-0.10896438
20
0.59391449
30
0
70
32
0
VERTEX
8
0
62
5
10
-0.066537969
20
0.57598715
30
0
70
32
0
VERTEX
8
0
62
5
10
-0.024111563
20
0.57153426
30
0
70
32
0
VERTEX
8
0
62
5
10
0.018314844
20
0.5894616
30
0
70
32
0
SEQEND
8
0
0
POLYLINE
8
0
62
30
66
1
10
0
20
0
30
0
70
8
0
VERTEX
8
0
62
30
10
-0.15139078
20
0.57153426
30
0
70
32
0
VERTEX
8
0
62
30
10
0.018314844
20
0.57153426
30
0
70
32
0
SEQEND
8
0
0
POLYLINE
8
0
62
30
66
1
10
0
20
0
30
0
70
8
0
VERTEX
8
0
62
30
10
-0.10896438
20
0.54915403
30
0
70
32
0
VERTEX
8
0
62
30
10
-0.10896438
20
0.57153426
30
0
70
32
0
SEQEND
8
0
0
POLYLINE
8
0
62
30
66
1
10
0
20
0
30
0
70
8
0
VERTEX
8
0
62
30
10
-0.066537969
20
0.56708137
30
0
70
32
0
VERTEX
8
0
62
30
10
-0.066537969
20
0.57153426
30
0
70
32
0
SEQEND
8
0
0
POLYLINE
8
0
62
30
66
1
10
0
20
0
30
0
70
8
0
VERTEX
8
0
62
30
10
-0.024111563
20
0.57153426
30
0
70
32
0
VERTEX
8
0
62
30
10
-0.024111563
20
0.57153426
30
0
70
32
0
SEQEND
8
0
0
POLYLINE
8
0
62
5
66
1
10
0
20
0
30
0
70
8
0
VERTEX
8
0
62
5
10
-0.10896438
20
0.54728241
30
0
70
32
0
VERTEX
8
0
62
5
10
-0.10896438
20
0.54915403
30
0
70
32
0
SEQEND
8
0
0
POLYLINE
8
0
62
5
66
1
10
0
20
0
30
0
70
8
0
VERTEX
8
0
62
5
10
-0.066537969
20
0.54728241
30
0
70
32
0
VERTEX
8
0
62
5
10
-0.066537969
20
0.56708137
30
0
70
32
0
SEQEND
8
0
0
POLYLINE
8
0
62
5
66
1
10
0
20
0
30
0
70
8
0
VERTEX
8
0
62
5
10
-0.024111563
20
0.54728241
30
0
70
32
0
VERTEX
8
0
62
5
10
-0.024111563
20
0.57153426
30
0
70
32
0
SEQEND
8
0
0
POLYLINE
8
0
62
5
66
1
10
0
20
0
30
0
70
8
0
VERTEX
8
0
62
5
10
-0.10896438
20
0.57153426
30
0
70
32
0
VERTEX
8
0
62
5
10
-0.10896438
20
0.59578611
30
0
70
32
0
SEQEND
8
0
0
POLYLINE
8
0
62
5
66
1
10
0
20
0
30
0
70
8
0
VERTEX
8
0
62
5
10
-0.066537969
20
0.57153426
30
0
70
32
0
VERTEX
8
0
62
5
10
-0.066537969
20
0.59578611
30
0
70
32
0
SEQEND
8
0
0
POLYLINE
8
0
62
5
66
1
10
0
20
0
30
0
70
8
0
VERTEX
8
0
62
5
10
-0.024111563
20
0.57153426
30
0
70
32
0
VERTEX
8
0
62
5
10
-0.024111563
20
0.59578611
30
0
70
32
0
SEQEND
8
0
0
POLYLINE
8
0
62
5
66
1
10
0
20
0
30
0
70
8
0
VERTEX
8
0
62
5
10
0.018314844
20
0.59578611
30
0
70
32
0
VERTEX
8
0
62
5
10
0.018314844
20
0.65578611
30
0
70
32
0
SEQEND
8
0
0
POLYLINE
8
0
62
5
66
1
10
0
20
0
30
0
70
8
0
VERTEX
8
0
62
5
10
0.18802047
20
0.65578611
30
0
70
32
0
VERTEX
8
0
62
5
10
0.18802047
20
0.59578611
30
0
70
32
0
SEQEND
8
0
0
POLYLINE
8
0
62
5
66
1
10
0
20
0
30
0
70
8
0
VERTEX
8
0
62
5
10
0.018314844
20
0.59578611
30
0
70
32
0
VERTEX
8
0
62
5
10
0.18802047
20
0.59578611
30
0
70
32
0
SEQEND
8
0
0
POLYLINE
8
0
62
5
66
1
10
0
20
0
30
0
70
8
0
VERTEX
8
0
62
5
10
0.018314844
20
0.65578611
30
0
70
32
0
VERTEX
8
0
62
5
10
0.18802047
20
0.65578611
30
0
70
32
0
SEQEND
8
0
0
POLYLINE
8
0
62
5
66
1
10
0
20
0
30
0
70
8
0
VERTEX
8
0
62
5
10
0.060741251
20
0.59578611
30
0
70
32
0
VERTEX
8
0
62
5
10
0.060741251
20
0.59578611
30
0
70
32
0
SEQEND
8
0
0
POLYLINE
8
0
62
5
66
1
10
0
20
0
30
0
70
8
0
VERTEX
8
0
62
5
10
0.10316766
20
0.59578611
30
0
70
32
0
VERTEX
8
0
62
5
10
0.10316766
20
0.59578611
30
0
70
32
0
SEQEND
8
0
0
POLYLINE
8
0
62
5
66
1
10
0
20
0
30
0
70
8
0
VERTEX
8
0
62
5
10
0.14559406
20
0.59578611
30
0
70
32
0
VERTEX
8
0
62
5
10
0.14559406
20
0.59578611
30
0
70
32
0
SEQEND
8
0
0
POLYLINE
8
0
62
5
66
1
10
0
20
0
30
0
70
8
0
VERTEX
8
0
62
5
10
0.060741251
20
0.65578611
30
0
70
32
0
VERTEX
8
0
62
5
10
0.060741251
20
0.65578611
30
0
70
32
0
SEQEND
8
0
0
POLYLINE
8
0
62
5
66
1
10
0
20
0
30
0
70
8
0
VERTEX
8
0
62
5
10
0.10316766
20
0.65578611
30
0
70
32
0
VERTEX
8
0
62
5
10
0.10316766
20
0.65578611
30
0
70
32
0
SEQEND
8
0
0
POLYLINE
8
0
62
5
66
1
10
0
20
0
30
0
70
8
0
VERTEX
8
0
62
5
10
0.14559406
20
0.65578611
30
0
70
32
0
VERTEX
8
0
62
5
10
0.14559406
20
0.65578611
30
0
70
32
0
SEQEND
8
0
0
POLYLINE
8
0
62
30
66
1
10
0
20
0
30
0
70
8
0
VERTEX
8
0
62
30
10
0.018314844
20
0.65578611
30
0
70
32
0
VERTEX
8
0
62
30
10
0.060741251
20
0.59578611
30
0
70
32
0
SEQEND
8
0
0
POLYLINE
8
0
62
30
66
1
10
0
20
0
30
0
70
8
0
VERTEX
8
0
62
30
10
0.060741251
20
0.65578611
30
0
70
32
0
VERTEX
8
0
62
30
10
0.018314844
20
0.59578611
30
0
70
32
0
SEQEND
8
0
0
POLYLINE
8
0
62
30
66
1
10
0
20
0
30
0
70
8
0
VERTEX
8
0
62
30
10
0.10316766
20
0.65578611
30
0
70
32
0
VERTEX
8
0
62
30
10
0.14559406
20
0.59578611
30
0
70
32
0
SEQEND
8
0
0
POLYLINE
8
0
62
30
66
1
10
0
20
0
30
0
70
8
0
VERTEX
8
0
62
30
10
0.14559406
20
0.65578611
30
0
70
32
0
VERTEX
8
0
62
30
10
0.10316766
20
0.59578611
30
0
70
32
0
SEQEND
8
0
0
POLYLINE
8
0
62
30
66
1
10
0
20
0
30
0
70
8
0
VERTEX
8
0
62
30
10
0.060741251
20
0.62578611
30
0
70
32
0
VERTEX
8
0
62
30
10
0.10316766
20
0.62578611
30
0
70
32
0
SEQEND
8
0
0
POLYLINE
8
0
62
30
66
1
10
0
20
0
30
0
70
8
0
VERTEX
8
0
62
30
10
0.14559406
20
0.62578611
30
0
70
32
0
VERTEX
8
0
62
30
10
0.18802047
20
0.62578611
30
0
70
32
0
SEQEND
8
0
0
POLYLINE
8
0
62
5
66
1
10
0
20
0
30
0
70
8
0
VERTEX
8
0
62
5
10
0.018314844
20
0.62578611
30
0
70
32
0
VERTEX
8
0
62
5
10
0.039528048
20
0.62578611
30
0
70
32
0
SEQEND
8
0
0
POLYLINE
8
0
62
5
66
1
10
0
20
0
30
0
70
8
0
VERTEX
8
0
62
5
10
0.10316766
20
0.62578611
30
0
70
32
0
VERTEX
8
0
62
5
10
0.12438086
20
0.62578611
30
0
70
32
0
SEQEND
8
0
0
POLYLINE
8
0
62
5
66
1
10
0
20
0
30
0
70
8
0
VERTEX
8
0
62
5
10
0.039528048
20
0.62578611
30
0
70
32
0
VERTEX
8
0
62
5
10
0.060741251
20
0.62578611
30
0
70
32
0
SEQEND
8
0
0
POLYLINE
8
0
62
5
66
1
10
0
20
0
30
0
70
8
0
VERTEX
8
0
62
5
10
0.12438086
20
0.62578611
30
0
70
32
0
VERTEX
8
0
62
5
10
0.14559406
20
0.62578611
30
0
70
32
0
SEQEND
8
0
0
POLYLINE
8
0
62
5
66
1
10
0
20
0
30
0
70
8
0
VERTEX
8
0
62
5
10
0.060741251
20
0.59578611
30
0
70
32
0
VERTEX
8
0
62
5
10
0.060741251
20
0.65578611
30
0
70
32
0
SEQEND
8
0
0
POLYLINE
8
0
62
5
66
1
10
0
20
0
30
0
70
8
0
VERTEX
8
0
62
5
10
0.10316766
20
0.59578611
30
0
70
32
0
VERTEX
8
0
62
5
10
0.10316766
20
0.65578611
30
0
70
32
0
SEQEND
8
0
0
POLYLINE
8
0
62
5
66
1
10
0
20
0
30
0
70
8
0
VERTEX
8
0
62
5
10
0.14559406
20
0.59578611
30
0
70
32
0
VERTEX
8
0
62
5
10
0.14559406
20
0.65578611
30
0
70
32
0
SEQEND
8
0
0
POLYLINE
8
0
62
5
66
1
10
0
20
0
30
0
70
8
0
VERTEX
8
0
62
5
10
0.018314844
20
0.59578611
30
0
70
32
0
VERTEX
8
0
62
5
10
0.018314844
20
0.65578611
30
0
70
32
0
SEQEND
8
0
0
POLYLINE
8
0
62
5
66
1
10
0
20
0
30
0
70
8
0
VERTEX
8
0
62
5
10
0.3577261
20
0.65578611
30
0
70
32
0
VERTEX
8
0
62
5
10
0.3577261
20
0.59578611
30
0
70
32
0
SEQEND
8
0
0
POLYLINE
8
0
62
5
66
1
10
0
20
0
30
0
70
8
0
VERTEX
8
0
62
5
10
0.18802047
20
0.59578611
30
0
70
32
0
VERTEX
8
0
62
5
10
0.3577261
20
0.59578611
30
0
70
32
0
SEQEND
8
0
0
POLYLINE
8
0
62
5
66
1
10
0
20
0
30
0
70
8
0
VERTEX
8
0
62
5
10
0.18802047
20
0.65578611
30
0
70
32
0
VERTEX
8
0
62
5
10
0.3577261
20
0.65578611
30
0
70
32
0
SEQEND
8
0
0
POLYLINE
8
0
62
5
66
1
10
0
20
0
30
0
70
8
0
VERTEX
8
0
62
5
10
0.23044688
20
0.59578611
30
0
70
32
0
VERTEX
8
0
62
5
10
0.23044688
20
0.59578611
30
0
70
32
0
SEQEND
8
0
0
POLYLINE
8
0
62
5
66
1
10
0
20
0
30
0
70
8
0
VERTEX
8
0
62
5
10
0.27287329
20
0.59578611
30
0
70
32
0
VERTEX
8
0
62
5
10
0.27287329
20
0.59578611
30
0
70
32
0
SEQEND
8
0
0
POLYLINE
8
0
62
5
66
1
10
0
20
0
30
0
70
8
0
VERTEX
8
0
62
5
10
0.31529969
20
0.59578611
30
0
70
32
0
VERTEX
8
0
62
5
10
0.31529969
20
0.59578611
30
0
70
32
0
SEQEND
8
0
0
POLYLINE
8
0
62
5
66
1
10
0
20
0
30
0
70
8
0
VERTEX
8
0
62
5
10
0.23044688
20
0.65578611
30
0
70
32
0
VERTEX
8
0
62
5
10
0.23044688
20
0.65578611
30
0
70
32
0
SEQEND
8
0
0
POLYLINE
8
0
62
5
66
1
10
0
20
0
30
0
70
8
0
VERTEX
8
0
62
5
10
0.27287329
20
0.65578611
30
0
70
32
0
VERTEX
8
0
62
5
10
0.27287329
20
0.65578611
30
0
70
32
0
SEQEND
8
0
0
POLYLINE
8
0
62
5
66
1
10
0
20
0
30
0
70
8
0
VERTEX
8
0
62
5
10
0.31529969
20
0.65578611
30
0
70
32
0
VERTEX
8
0
62
5
10
0.31529969
20
0.65578611
30
0
70
32
0
SEQEND
8
0
0
POLYLINE
8
0
62
30
66
1
10
0
20
0
30
0
70
8
0
VERTEX
8
0
62
30
10
0.18802047
20
0.65578611
30
0
70
32
0
VERTEX
8
0
62
30
10
0.23044688
20
0.59578611
30
0
70
32
0
SEQEND
8
0
0
POLYLINE
8
0
62
30
66
1
10
0
20
0
30
0
70
8
0
VERTEX
8
0
62
30
10
0.23044688
20
0.65578611
30
0
70
32
0
VERTEX
8
0
62
30
10
0.18802047
20
0.59578611
30
0
70
32
0
SEQEND
8
0
0
POLYLINE
8
0
62
30
66
1
10
0
20
0
30
0
70
8
0
VERTEX
8
0
62
30
10
0.27287329
20
0.65578611
30
0
70
32
0
VERTEX
8
0
62
30
10
0.31529969
20
0.59578611
30
0
70
32
0
SEQEND
8
0
0
POLYLINE
8
0
62
30
66
1
10
0
20
0
30
0
70
8
0
VERTEX
8
0
62
30
10
0.31529969
20
0.65578611
30
0
70
32
0
VERTEX
8
0
62
30
10
0.27287329
20
0.59578611
30
0
70
32
0
SEQEND
8
0
0
POLYLINE
8
0
62
30
66
1
10
0
20
0
30
0
70
8
0
VERTEX
8
0
62
30
10
0.23044688
20
0.62578611
30
0
70
32
0
VERTEX
8
0
62
30
10
0.27287329
20
0.62578611
30
0
70
32
0
SEQEND
8
0
0
POLYLINE
8
0
62
30
66
1
10
0
20
0
30
0
70
8
0
VERTEX
8
0
62
30
10
0.31529969
20
0.62578611
30
0
70
32
0
VERTEX
8
0
62
30
10
0.3577261
20
0.62578611
30
0
70
32
0
SEQEND
8
0
0
POLYLINE
8
0
62
5
66
1
10
0
20
0
30
0
70
8
0
VERTEX
8
0
62
5
10
0.18802047
20
0.62578611
30
0
70
32
0
VERTEX
8
0
62
5
10
0.20923368
20
0.62578611
30
0
70
32
0
SEQEND
8
0
0
POLYLINE
8
0
62
5
66
1
10
0
20
0
30
0
70
8
0
VERTEX
8
0
62
5
10
0.27287329
20
0.62578611
30
0
70
32
0
VERTEX
8
0
62
5
10
0.29408649
20
0.62578611
30
0
70
32
0
SEQEND
8
0
0
POLYLINE
8
0
62
5
66
1
10
0
20
0
30
0
70
8
0
VERTEX
8
0
62
5
10
0.20923368
20
0.62578611
30
0
70
32
0
VERTEX
8
0
62
5
10
0.23044688
20
0.62578611
30
0
70
32
0
SEQEND
8
0
0
POLYLINE
8
0
62
5
66
1
10
0
20
0
30
0
70
8
0
VERTEX
8
0
62
5
10
0.29408649
20
0.62578611
30
0
70
32
0
VERTEX
8
0
62
5
10
0.31529969
20
0.62578611
30
0
70
32
0
SEQEND
8
0
0
POLYLINE
8
0
62
5
66
1
10
0
20
0
30
0
70
8
0
VERTEX
8
0
62
5
10
0.23044688
20
0.59578611
30
0
70
32
0
VERTEX
8
0
62
5
10
0.23044688
20
0.65578611
30
0
70
32
0
SEQEND
8
0
0
POLYLINE
8
0
62
5
66
1
10
0
20
0
30
0
70
8
0
VERTEX
8
0
62
5
10
0.27287329
20
0.59578611
30
0
70
32
0
VERTEX
8
0
62
5
10
0.27287329
20
0.65578611
30
0
70
32
0
SEQEND
8
0
0
POLYLINE
8
0
62
5
66
1
10
0
20
0
30
0
70
8
0
VERTEX
8
0
62
5
10
0.31529969
20
0.59578611
30
0
70
32
0
VERTEX
8
0
62
5
10
0.31529969
20
0.65578611
30
0
70
32
0
SEQEND
8
0
0
POLYLINE
8
0
62
5
66
1
10
0
20
0
30
0
70
8
0
VERTEX
8
0
62
5
10
0.18802047
20
0.59578611
30
0
70
32
0
VERTEX
8
0
62
5
10
0.18802047
20
0.65578611
30
0
70
32
0
SEQEND
8
0
0
POLYLINE
8
0
62
5
66
1
10
0
20
0
30
0
70
8
0
VERTEX
8
0
62
5
10
-0.15139078
20
0.59578611
30
0
70
32
0
VERTEX
8
0
62
5
10
-0.15139078
20
0.65578611
30
0
70
32
0
SEQEND
8
0
0
POLYLINE
8
0
62
5
66
1
10
0
20
0
30
0
70
8
0
VERTEX
8
0
62
5
10
-0.15139078
20
0.59578611
30
0
70
32
0
VERTEX
8
0
62
5
10
0.018314844
20
0.59578611
30
0
70
32
0
SEQEND
8
0
0
POLYLINE
8
0
62
5
66
1
10
0
20
0
30
0
70
8
0
VERTEX
8
0
62
5
10
-0.15139078
20
0.65578611
30
0
70
32
0
VERTEX
8
0
62
5
10
0.018314844
20
0.65578611
30
0
70
32
0
SEQEND
8
0
0
POLYLINE
8
0
62
5
66
1
10
0
20
0
30
0
70
8
0
VERTEX
8
0
62
5
10
-0.10896438
20
0.59578611
30
0
70
32
0
VERTEX
8
0
62
5
10
-0.10896438
20
0.59578611
30
0
70
32
0
SEQEND
8
0
0
POLYLINE
8
0
62
5
66
1
10
0
20
0
30
0
70
8
0
VERTEX
8
0
62
5
10
-0.066537969
20
0.59578611
30
0
70
32
0
VERTEX
8
0
62
5
10
-0.066537969
20
0.59578611
30
0
70
32
0
SEQEND
8
0
0
POLYLINE
8
0
62
5
66
1
10
0
20
0
30
0
70
8
0
VERTEX
8
0
62
5
10
-0.024111563
20
0.59578611
30
0
70
32
0
VERTEX
8
0
62
5
10
-0.024111563
20
0.59578611
30
0
70
32
0
SEQEND
8
0
0
POLYLINE
8
0
62
5
66
1
10
0
20
0
30
0
70
8
0
VERTEX
8
0
62
5
10
-0.10896438
20
0.65578611
30
0
70
32
0
VERTEX
8
0
62
5
10
-0.10896438
20
0.65578611
30
0
70
32
0
SEQEND
8
0
0
POLYLINE
8
0
62
5
66
1
10
0
20
0
30
0
70
8
0
VERTEX
8
0
62
5
10
-0.066537969
20
0.65578611
30
0
70
32
0
VERTEX
8
0
62
5
10
-0.066537969
20
0.65578611
30
0
70
32
0
SEQEND
8
0
0
POLYLINE
8
0
62
5
66
1
10
0
20
0
30
0
70
8
0
VERTEX
8
0
62
5
10
-0.024111563
20
0.65578611
30
0
70
32
0
VERTEX
8
0
62
5
10
-0.024111563
20
0.65578611
30
0
70
32
0
SEQEND
8
0
0
POLYLINE
8
0
62
30
66
1
10
0
20
0
30
0
70
8
0
VERTEX
8
0
62
30
10
-0.15139078
20
0.65578611
30
0
70
32
0
VERTEX
8
0
62
30
10
-0.10896438
20
0.59578611
30
0
70
32
0
SEQEND
8
0
0
POLYLINE
8
0
62
30
66
1
10
0
20
0
30
0
70
8
0
VERTEX
8
0
62
30
10
-0.10896438
20
0.65578611
30
0
70
32
0
VERTEX
8
0
62
30
10
-0.15139078
20
0.59578611
30
0
70
32
0
SEQEND
8
0
0
POLYLINE
8
0
62
30
66
1
10
0
20
0
30
0
70
8
0
VERTEX
8
0
62
30
10
-0.066537969
20
0.65578611
30
0
70
32
0
VERTEX
8
0
62
30
10
-0.024111563
20
0.59578611
30
0
70
32
0
SEQEND
8
0
0
POLYLINE
8
0
62
30
66
1
10
0
20
0
30
0
70
8
0
VERTEX
8
0
62
30
10
-0.024111563
20
0.65578611
30
0
70
32
0
VERTEX
8
0
62
30
10
-0.066537969
20
0.59578611
30
0
70
32
0
SEQEND
8
0
0
POLYLINE
8
0
62
30
66
1
10
0
20
0
30
0
70
8
0
VERTEX
8
0
62
30
10
-0.10896438
20
0.62578611
30
0
70
32
0
VERTEX
8
0
62
30
10
-0.066537969
20
0.62578611
30
0
70
32
0
SEQEND
8
0
0
POLYLINE
8
0
62
30
66
1
10
0
20
0
30
0
70
8
0
VERTEX
8
0
62
30
10
-0.024111563
20
0.62578611
30
0
70
32
0
VERTEX
8
0
62
30
10
0.018314844
20
0.62578611
30
0
70
32
0
SEQEND
8
0
0
POLYLINE
8
0
62
5
66
1
10
0
20
0
30
0
70
8
0
VERTEX
8
0
62
5
10
-0.15139078
20
0.62578611
30
0
70
32
0
VERTEX
8
0
62
5
10
-0.13017758
20
0.62578611
30
0
70
32
0
SEQEND
8
0
0
POLYLINE
8
0
62
5
66
1
10
0
20
0
30
0
70
8
0
VERTEX
8
0
62
5
10
-0.066537969
20
0.62578611
30
0
70
32
0
VERTEX
8
0
62
5
10
-0.045324766
20
0.62578611
30
0
70
32
0
SEQEND
8
0
0
POLYLINE
8
0
62
5
66
1
10
0
20
0
30
0
70
8
0
VERTEX
8
0
62
5
10
-0.13017758
20
0.62578611
30
0
70
32
0
VERTEX
8
0
62
5
10
-0.10896438
20
0.62578611
30
0
70
32
0
SEQEND
8
0
0
POLYLINE
8
0
62
5
66
1
10
0
20
0
30
0
70
8
0
VERTEX
8
0
62
5
10
-0.045324766
20
0.62578611
30
0
70
32
0
VERTEX
8
0
62
5
10
-0.024111563
20
0.62578611
30
0
70
32
0
SEQEND
8
0
0
POLYLINE
8
0
62
5
66
1
10
0
20
0
30
0
70
8
0
VERTEX
8
0
62
5
10
-0.10896438
20
0.59578611
30
0
70
32
0
VERTEX
8
0
62
5
10
-0.10896438
20
0.65578611
30
0
70
32
0
SEQEND
8
0
0
POLYLINE
8
0
62
5
66
1
10
0
20
0
30
0
70
8
0
VERTEX
8
0
62
5
10
-0.066537969
20
0.59578611
30
0
70
32
0
VERTEX
8
0
62
5
10
-0.066537969
20
0.65578611
30
0
70
32
0
SEQEND
8
0
0
POLYLINE
8
0
62
5
66
1
10
0
20
0
30
0
70
8
0
VERTEX
8
0
62
5
10
-0.024111563
20
0.59578611
30
0
70
32
0
VERTEX
8
0
62
5
10
-0.024111563
20
0.65578611
30
0
70
32
0
SEQEND
8
0
0
POLYLINE
8
0
62
5
66
1
10
0
20
0
30
0
70
8
0
VERTEX
8
0
62
5
10
-0.15139078
20
0.59578611
30
0
70
32
0
VERTEX
8
0
62
5
10
-0.15139078
20
0.65578611
30
0
70
32
0
SEQEND
8
0
0
POLYLINE
8
0
62
5
66
1
10
0
20
0
30
0
70
8
0
VERTEX
8
0
62
5
10
0.018314844
20
0.65578611
30
0
70
32
0
VERTEX
8
0
62
5
10
0.018314844
20
0.77172499
30
0
70
32
0
SEQEND
8
0
0
POLYLINE
8
0
62
5
66
1
10
0
20
0
30
0
70
8
0
VERTEX
8
0
62
5
10
0.18802047
20
0.77172499
30
0
70
32
0
VERTEX
8
0
62
5
10
0.18802047
20
0.65578611
30
0
70
32
0
SEQEND
8
0
0
POLYLINE
8
0
62
5
66
1
10
0
20
0
30
0
70
8
0
VERTEX
8
0
62
5
10
0.018314844
20
0.65611986
30
0
70
32
0
VERTEX
8
0
62
5
10
0.060741251
20
0.6673351
30
0
70
32
0
VERTEX
8
0
62
5
10
0.10316766
20
0.68477083
30
0
70
32
0
VERTEX
8
0
62
5
10
0.14559406
20
0.67355559
30
0
70
32
0
VERTEX
8
0
62
5
10
0.18802047
20
0.65611986
30
0
70
32
0
SEQEND
8
0
0
POLYLINE
8
0
62
5
66
1
10
0
20
0
30
0
70
8
0
VERTEX
8
0
62
5
10
0.018314844
20
0.7140893
30
0
70
32
0
VERTEX
8
0
62
5
10
0.060741251
20
0.72530453
30
0
70
32
0
VERTEX
8
0
62
5
10
0.10316766
20
0.74274027
30
0
70
32
0
VERTEX
8
0
62
5
10
0.14559406
20
0.73152503
30
0
70
32
0
VERTEX
8
0
62
5
10
0.18802047
20
0.7140893
30
0
70
32
0
SEQEND
8
0
0
POLYLINE
8
0
62
5
66
1
10
0
20
0
30
0
70
8
0
VERTEX
8
0
62
5
10
0.018314844
20
0.7134218
30
0
70
32
0
VERTEX
8
0
62
5
10
0.060741251
20
0.70220656
30
0
70
32
0
VERTEX
8
0
62
5
10
0.10316766
20
0.68477083
30
0
70
32
0
VERTEX
8
0
62
5
10
0.14559406
20
0.69598607
30
0
70
32
0
VERTEX
8
0
62
5
10
0.18802047
20
0.7134218
30
0
70
32
0
SEQEND
8
0
0
POLYLINE
8
0
62
5
66
1
10
0
20
0
30
0
70
8
0
VERTEX
8
0
62
5
10
0.018314844
20
0.77139124
30
0
70
32
0
VERTEX
8
0
62
5
10
0.060741251
20
0.760176
30
0
70
32
0
VERTEX
8
0
62
5
10
0.10316766
20
0.74274027
30
0
70
32
0
VERTEX
8
0
62
5
10
0.14559406
20
0.7539555
30
0
70
32
0
VERTEX
8
0
62
5
10
0.18802047
20
0.77139124
30
0
70
32
0
SEQEND
8
0
0
POLYLINE
8
0
62
30
66
1
10
0
20
0
30
0
70
8
0
VERTEX
8
0
62
30
10
0.018314844
20
0.74274027
30
0
70
32
0
VERTEX
8
0
62
30
10
0.18802047
20
0.74274027
30
0
70
32
0
SEQEND
8
0
0
POLYLINE
8
0
62
30
66
1
10
0
20
0
30
0
70
8
0
VERTEX
8
0
62
30
10
0.060741251
20
0.6673351
30
0
70
32
0
VERTEX
8
0
62
30
10
0.060741251
20
0.68477083
30
0
70
32
0
SEQEND
8
0
0
POLYLINE
8
0
62
30
66
1
10
0
20
0
30
0
70
8
0
VERTEX
8
0
62
30
10
0.10316766
20
0.68477083
30
0
70
32
0
VERTEX
8
0
62
30
10
0.10316766
20
0.68477083
30
0
70
32
0
SEQEND
8
0
0
POLYLINE
8
0
62
30
66
1
10
0
20
0
30
0
70
8
0
VERTEX
8
0
62
30
10
0.14559406
20
0.67355559
30
0
70
32
0
VERTEX
8
0
62
30
10
0.14559406
20
0.68477083
30
0
70
32
0
SEQEND
8
0
0
POLYLINE
8
0
62
30
66
1
10
0
20
0
30
0
70
8
0
VERTEX
8
0
62
30
10
0.060741251
20
0.72530453
30
0
70
32
0
VERTEX
8
0
62
30
10
0.060741251
20
0.74274027
30
0
70
32
0
SEQEND
8
0
0
POLYLINE
8
0
62
30
66
1
10
0
20
0
30
0
70
8
0
VERTEX
8
0
62
30
10
0.060741251
20
0.74274027
30
0
70
32
0
VERTEX
8
0
62
30
10
0.10316766
20
0.74274027
30
0
70
32
0
SEQEND
8
0
0
POLYLINE
8
0
62
30
66
1
10
0
20
0
30
0
70
8
0
VERTEX
8
0
62
30
10
0.10316766
20
0.74274027
30
0
70
32
0
VERTEX
8
0
62
30
10
0.10316766
20
0.74274027
30
0
70
32
0
SEQEND
8
0
0
POLYLINE
8
0
62
30
66
1
10
0
20
0
30
0
70
8
0
VERTEX
8
0
62
30
10
0.10316766
20
0.74274027
30
0
70
32
0
VERTEX
8
0
62
30
10
0.14559406
20
0.73152503
30
0
70
32
0
SEQEND
8
0
0
POLYLINE
8
0
62
30
66
1
10
0
20
0
30
0
70
8
0
VERTEX
8
0
62
30
10
0.14559406
20
0.73152503
30
0
70
32
0
VERTEX
8
0
62
30
10
0.14559406
20
0.74274027
30
0
70
32
0
SEQEND
8
0
0
POLYLINE
8
0
62
5
66
1
10
0
20
0
30
0
70
8
0
VERTEX
8
0
62
5
10
0.060741251
20
0.65578611
30
0
70
32
0
VERTEX
8
0
62
5
10
0.060741251
20
0.6673351
30
0
70
32
0
SEQEND
8
0
0
POLYLINE
8
0
62
5
66
1
10
0
20
0
30
0
70
8
0
VERTEX
8
0
62
5
10
0.10316766
20
0.65578611
30
0
70
32
0
VERTEX
8
0
62
5
10
0.10316766
20
0.68477083
30
0
70
32
0
SEQEND
8
0
0
POLYLINE
8
0
62
5
66
1
10
0
20
0
30
0
70
8
0
VERTEX
8
0
62
5
10
0.14559406
20
0.65578611
30
0
70
32
0
VERTEX
8
0
62
5
10
0.14559406
20
0.67355559
30
0
70
32
0
SEQEND
8
0
0
POLYLINE
8
0
62
5
66
1
10
0
20
0
30
0
70
8
0
VERTEX
8
0
62
5
10
0.060741251
20
0.71375555
30
0
70
32
0
VERTEX
8
0
62
5
10
0.060741251
20
0.72530453
30
0
70
32
0
SEQEND
8
0
0
POLYLINE
8
0
62
5
66
1
10
0
20
0
30
0
70
8
0
VERTEX
8
0
62
5
10
0.10316766
20
0.71375555
30
0
70
32
0
VERTEX
8
0
62
5
10
0.10316766
20
0.74274027
30
0
70
32
0
SEQEND
8
0
0
POLYLINE
8
0
62
5
66
1
10
0
20
0
30
0
70
8
0
VERTEX
8
0
62
5
10
0.14559406
20
0.71375555
30
0
70
32
0
VERTEX
8
0
62
5
10
0.14559406
20
0.73152503
30
0
70
32
0
SEQEND
8
0
0
POLYLINE
8
0
62
5
66
1
10
0
20
0
30
0
70
8
0
VERTEX
8
0
62
5
10
0.060741251
20
0.68477083
30
0
70
32
0
VERTEX
8
0
62
5
10
0.060741251
20
0.71375555
30
0
70
32
0
SEQEND
8
0
0
POLYLINE
8
0
62
5
66
1
10
0
20
0
30
0
70
8
0
VERTEX
8
0
62
5
10
0.10316766
20
0.68477083
30
0
70
32
0
VERTEX
8
0
62
5
10
0.10316766
20
0.71375555
30
0
70
32
0
SEQEND
8
0
0
POLYLINE
8
0
62
5
66
1
10
0
20
0
30
0
70
8
0
VERTEX
8
0
62
5
10
0.14559406
20
0.68477083
30
0
70
32
0
VERTEX
8
0
62
5
10
0.14559406
20
0.71375555
30
0
70
32
0
SEQEND
8
0
0
POLYLINE
8
0
62
5
66
1
10
0
20
0
30
0
70
8
0
VERTEX
8
0
62
5
10
0.060741251
20
0.74274027
30
0
70
32
0
VERTEX
8
0
62
5
10
0.060741251
20
0.77172499
30
0
70
32
0
SEQEND
8
0
0
POLYLINE
8
0
62
5
66
1
10
0
20
0
30
0
70
8
0
VERTEX
8
0
62
5
10
0.10316766
20
0.74274027
30
0
70
32
0
VERTEX
8
0
62
5
10
0.10316766
20
0.77172499
30
0
70
32
0
SEQEND
8
0
0
POLYLINE
8
0
62
5
66
1
10
0
20
0
30
0
70
8
0
VERTEX
8
0
62
5
10
0.14559406
20
0.74274027
30
0
70
32
0
VERTEX
8
0
62
5
10
0.14559406
20
0.77172499
30
0
70
32
0
SEQEND
8
0
0
POLYLINE
8
0
62
5
66
1
10
0
20
0
30
0
70
8
0
VERTEX
8
0
62
5
10
0.3577261
20
0.77172499
30
0
70
32
0
VERTEX
8
0
62
5
10
0.3577261
20
0.65578611
30
0
70
32
0
SEQEND
8
0
0
POLYLINE
8
0
62
5
66
1
10
0
20
0
30
0
70
8
0
VERTEX
8
0
62
5
10
0.18802047
20
0.65611986
30
0
70
32
0
VERTEX
8
0
62
5
10
0.23044688
20
0.6673351
30
0
70
32
0
VERTEX
8
0
62
5
10
0.27287329
20
0.68477083
30
0
70
32
0
VERTEX
8
0
62
5
10
0.31529969
20
0.67355559
30
0
70
32
0
VERTEX
8
0
62
5
10
0.3577261
20
0.65611986
30
0
70
32
0
SEQEND
8
0
0
POLYLINE
8
0
62
5
66
1
10
0
20
0
30
0
70
8
0
VERTEX
8
0
62
5
10
0.18802047
20
0.7140893
30
0
70
32
0
VERTEX
8
0
62
5
10
0.23044688
20
0.72530453
30
0
70
32
0
VERTEX
8
0
62
5
10
0.27287329
20
0.74274027
30
0
70
32
0
VERTEX
8
0
62
5
10
0.31529969
20
0.73152503
30
0
70
32
0
VERTEX
8
0
62
5
10
0.3577261
20
0.7140893
30
0
70
32
0
SEQEND
8
0
0
POLYLINE
8
0
62
5
66
1
10
0
20
0
30
0
70
8
0
VERTEX
8
0
62
5
10
0.18802047
20
0.7134218
30
0
70
32
0
VERTEX
8
0
62
5
10
0.23044688
20
0.70220656
30
0
70
32
0
VERTEX
8
0
62
5
10
0.27287329
20
0.68477083
30
0
70
32
0
VERTEX
8
0
62
5
10
0.31529969
20
0.69598607
30
0
70
32
0
VERTEX
8
0
62
5
10
0.3577261
20
0.7134218
30
0
70
32
0
SEQEND
8
0
0
POLYLINE
8
0
62
5
66
1
10
0
20
0
30
0
70
8
0
VERTEX
8
0
62
5
10
0.18802047
20
0.77139124
30
0
70
32
0
VERTEX
8
0
62
5
10
0.23044688
20
0.760176
30
0
70
32
0
VERTEX
8
0
62
5
10
0.27287329
20
0.74274027
30
0
70
32
0
VERTEX
8
0
62
5
10
0.31529969
20
0.7539555
30
0
70
32
0
VERTEX
8
0
62
5
10
0.3577261
20
0.77139124
30
0
70
32
0
SEQEND
8
0
0
POLYLINE
8
0
62
30
66
1
10
0
20
0
30
0
70
8
0
VERTEX
8
0
62
30
10
0.18802047
20
0.74274027
30
0
70
32
0
VERTEX
8
0
62
30
10
0.3577261
20
0.74274027
30
0
70
32
0
SEQEND
8
0
0
POLYLINE
8
0
62
30
66
1
10
0
20
0
30
0
70
8
0
VERTEX
8
0
62
30
10
0.23044688
20
0.6673351
30
0
70
32
0
VERTEX
8
0
62
30
10
0.23044688
20
0.68477083
30
0
70
32
0
SEQEND
8
0
0
POLYLINE
8
0
62
30
66
1
10
0
20
0
30
0
70
8
0
VERTEX
8
0
62
30
10
0.27287329
20
0.68477083
30
0
70
32
0
VERTEX
8
0
62
30
10
0.27287329
20
0.68477083
30
0
70
32
0
SEQEND
8
0
0
POLYLINE
8
0
62
30
66
1
10
0
20
0
30
0
70
8
0
VERTEX
8
0
62
30
10
0.31529969
20
0.67355559
30
0
70
32
0
VERTEX
8
0
62
30
10
0.31529969
20
0.68477083
30
0
70
32
0
SEQEND
8
0
0
POLYLINE
8
0
62
30
66
1
10
0
20
0
30
0
70
8
0
VERTEX
8
0
62
30
10
0.23044688
20
0.72530453
30
0
70
32
0
VERTEX
8
0
62
30
10
0.23044688
20
0.74274027
30
0
70
32
0
SEQEND
8
0
0
POLYLINE
8
0
62
30
66
1
10
0
20
0
30
0
70
8
0
VERTEX
8
0
62
30
10
0.23044688
20
0.74274027
30
0
70
32
0
VERTEX
8
0
62
30
10
0.27287329
20
0.74274027
30
0
70
32
0
SEQEND
8
0
0
POLYLINE
8
0
62
30
66
1
10
0
20
0
30
0
70
8
0
VERTEX
8
0
62
30
10
0.27287329
20
0.74274027
30
0
70
32
0
VERTEX
8
0
62
30
10
0.27287329
20
0.74274027
30
0
70
32
0
SEQEND
8
0
0
POLYLINE
8
0
62
30
66
1
10
0
20
0
30
0
70
8
0
VERTEX
8
0
62
30
10
0.27287329
20
0.74274027
30
0
70
32
0
VERTEX
8
0
62
30
10
0.31529969
20
0.73152503
30
0
70
32
0
SEQEND
8
0
0
POLYLINE
8
0
62
30
66
1
10
0
20
0
30
0
70
8
0
VERTEX
8
0
62
30
10
0.31529969
20
0.73152503
30
0
70
32
0
VERTEX
8
0
62
30
10
0.31529969
20
0.74274027
30
0
70
32
0
SEQEND
8
0
0
POLYLINE
8
0
62
5
66
1
10
0
20
0
30
0
70
8
0
VERTEX
8
0
62
5
10
0.23044688
20
0.65578611
30
0
70
32
0
VERTEX
8
0
62
5
10
0.23044688
20
0.6673351
30
0
70
32
0
SEQEND
8
0
0
POLYLINE
8
0
62
5
66
1
10
0
20
0
30
0
70
8
0
VERTEX
8
0
62
5
10
0.27287329
20
0.65578611
30
0
70
32
0
VERTEX
8
0
62
5
10
0.27287329
20
0.68477083
30
0
70
32
0
SEQEND
8
0
0
POLYLINE
8
0
62
5
66
1
10
0
20
0
30
0
70
8
0
VERTEX
8
0
62
5
10
0.31529969
20
0.65578611
30
0
70
32
0
VERTEX
8
0
62
5
10
0.31529969
20
0.67355559
30
0
70
32
0
SEQEND
8
0
0
POLYLINE
8
0
62
5
66
1
10
0
20
0
30
0
70
8
0
VERTEX
8
0
62
5
10
0.23044688
20
0.71375555
30
0
70
32
0
VERTEX
8
0
62
5
10
0.23044688
20
0.72530453
30
0
70
32
0
SEQEND
8
0
0
POLYLINE
8
0
62
5
66
1
10
0
20
0
30
0
70
8
0
VERTEX
8
0
62
5
10
0.27287329
20
0.71375555
30
0
70
32
0
VERTEX
8
0
62
5
10
0.27287329
20
0.74274027
30
0
70
32
0
SEQEND
8
0
0
POLYLINE
8
0
62
5
66
1
10
0
20
0
30
0
70
8
0
VERTEX
8
0
62
5
10
0.31529969
20
0.71375555
30
0
70
32
0
VERTEX
8
0
62
5
10
0.31529969
20
0.73152503
30
0
70
32
0
SEQEND
8
0
0
POLYLINE
8
0
62
5
66
1
10
0
20
0
30
0
70
8
0
VERTEX
8
0
62
5
10
0.23044688
20
0.68477083
30
0
70
32
0
VERTEX
8
0
62
5
10
0.23044688
20
0.71375555
30
0
70
32
0
SEQEND
8
0
0
POLYLINE
8
0
62
5
66
1
10
0
20
0
30
0
70
8
0
VERTEX
8
0
62
5
10
0.27287329
20
0.68477083
30
0
70
32
0
VERTEX
8
0
62
5
10
0.27287329
20
0.71375555
30
0
70
32
0
SEQEND
8
0
0
POLYLINE
8
0
62
5
66
1
10
0
20
0
30
0
70
8
0
VERTEX
8
0
62
5
10
0.31529969
20
0.68477083
30
0
70
32
0
VERTEX
8
0
62
5
10
0.31529969
20
0.71375555
30
0
70
32
0
SEQEND
8
0
0
POLYLINE
8
0
62
5
66
1
10
0
20
0
30
0
70
8
0
VERTEX
8
0
62
5
10
0.23044688
20
0.74274027
30
0
70
32
0
VERTEX
8
0
62
5
10
0.23044688
20
0.77172499
30
0
70
32
0
SEQEND
8
0
0
POLYLINE
8
0
62
5
66
1
10
0
20
0
30
0
70
8
0
VERTEX
8
0
62
5
10
0.27287329
20
0.74274027
30
0
70
32
0
VERTEX
8
0
62
5
10
0.27287329
20
0.77172499
30
0
70
32
0
SEQEND
8
0
0
POLYLINE
8
0
62
5
66
1
10
0
20
0
30
0
70
8
0
VERTEX
8
0
62
5
10
0.31529969
20
0.74274027
30
0
70
32
0
VERTEX
8
0
62
5
10
0.31529969
20
0.77172499
30
0
70
32
0
SEQEND
8
0
0
POLYLINE
8
0
62
5
66
1
10
0
20
0
30
0
70
8
0
VERTEX
8
0
62
5
10
-0.15139078
20
0.65578611
30
0
70
32
0
VERTEX
8
0
62
5
10
-0.15139078
20
0.77172499
30
0
70
32
0
SEQEND
8
0
0
POLYLINE
8
0
62
5
66
1
10
0
20
0
30
0
70
8
0
VERTEX
8
0
62
5
10
-0.15139078
20
0.65611986
30
0
70
32
0
VERTEX
8
0
62
5
10
-0.10896438
20
0.6673351
30
0
70
32
0
VERTEX
8
0
62
5
10
-0.066537969
20
0.68477083
30
0
70
32
0
VERTEX
8
0
62
5
10
-0.024111563
20
0.67355559
30
0
70
32
0
VERTEX
8
0
62
5
10
0.018314844
20
0.65611986
30
0
70
32
0
SEQEND
8
0
0
POLYLINE
8
0
62
5
66
1
10
0
20
0
30
0
70
8
0
VERTEX
8
0
62
5
10
-0.15139078
20
0.7140893
30
0
70
32
0
VERTEX
8
0
62
5
10
-0.10896438
20
0.72530453
30
0
70
32
0
VERTEX
8
0
62
5
10
-0.066537969
20
0.74274027
30
0
70
32
0
VERTEX
8
0
62
5
10
-0.024111563
20
0.73152503
30
0
70
32
0
VERTEX
8
0
62
5
10
0.018314844
20
0.7140893
30
0
70
32
0
SEQEND
8
0
0
POLYLINE
8
0
62
5
66
1
10
0
20
0
30
0
70
8
0
VERTEX
8
0
62
5
10
-0.15139078
20
0.7134218
30
0
70
32
0
VERTEX
8
0
62
5
10
-0.10896438
20
0.70220656
30
0
70
32
0
VERTEX
8
0
62
5
10
-0.066537969
20
0.68477083
30
0
70
32
0
VERTEX
8
0
62
5
10
-0.024111563
20
0.69598607
30
0
70
32
0
VERTEX
8
0
62
5
10
0.018314844
20
0.7134218
30
0
70
32
0
SEQEND
8
0
0
POLYLINE
8
0
62
5
66
1
10
0
20
0
30
0
70
8
0
VERTEX
8
0
62
5
10
-0.15139078
20
0.77139124
30
0
70
32
0
VERTEX
8
0
62
5
10
-0.10896438
20
0.760176
30
0
70
32
0
VERTEX
8
0
62
5
10
-0.066537969
20
0.74274027
30
0
70
32
0
VERTEX
8
0
62
5
10
-0.024111563
20
0.7539555
30
0
70
32
0
VERTEX
8
0
62
5
10
0.018314844
20
0.77139124
30
0
70
32
0
SEQEND
8
0
0
POLYLINE
8
0
62
30
66
1
10
0
20
0
30
0
70
8
0
VERTEX
8
0
62
30
10
-0.15139078
20
0.74274027
30
0
70
32
0
VERTEX
8
0
62
30
10
0.018314844
20
0.74274027
30
0
70
32
0
SEQEND
8
0
0
POLYLINE
8
0
62
30
66
1
10
0
20
0
30
0
70
8
0
VERTEX
8
0
62
30
10
-0.10896438
20
0.6673351
30
0
70
32
0
VERTEX
8
0
62
30
10
-0.10896438
20
0.68477083
30
0
70
32
0
SEQEND
8
0
0
POLYLINE
8
0
62
30
66
1
10
0
20
0
30
0
70
8
0
VERTEX
8
0
62
30
10
-0.066537969
20
0.68477083
30
0
70
32
0
VERTEX
8
0
62
30
10
-0.066537969
20
0.68477083
30
0
70
32
0
SEQEND
8
0
0
POLYLINE
8
0
62
30
66
1
10
0
20
0
30
0
70
8
0
VERTEX
8
0
62
30
10
-0.024111563
20
0.67355559
30
0
70
32
0
VERTEX
8
0
62
30
10
-0.024111563
20
0.68477083
30
0
70
32
0
SEQEND
8
0
0
POLYLINE
8
0
62
30
66
1
10
0
20
0
30
0
70
8
0
VERTEX
8
0
62
30
10
-0.10896438
20
0.72530453
30
0
70
32
0
VERTEX
8
0
62
30
10
-0.10896438
20
0.74274027
30
0
70
32
0
SEQEND
8
0
0
POLYLINE
8
0
62
30
66
1
10
0
20
0
30
0
70
8
0
VERTEX
8
0
62
30
10
-0.10896438
20
0.74274027
30
0
70
32
0
VERTEX
8
0
62
30
10
-0.066537969
20
0.74274027
30
0
70
32
0
SEQEND
8
0
0
POLYLINE
8
0
62
30
66
1
10
0
20
0
30
0
70
8
0
VERTEX
8
0
62
30
10
-0.066537969
20
0.74274027
30
0
70
32
0
VERTEX
8
0
62
30
10
-0.066537969
20
0.74274027
30
0
70
32
0
SEQEND
8
0
0
POLYLINE
8
0
62
30
66
1
10
0
20
0
30
0
70
8
0
VERTEX
8
0
62
30
10
-0.066537969
20
0.74274027
30
0
70
32
0
VERTEX
8
0
62
30
10
-0.024111563
20
0.73152503
30
0
70
32
0
SEQEND
8
0
0
POLYLINE
8
0
62
30
66
1
10
0
20
0
30
0
70
8
0
VERTEX
8
0
62
30
10
-0.024111563
20
0.73152503
30
0
70
32
0
VERTEX
8
0
62
30
10
-0.024111563
20
0.74274027
30
0
70
32
0
SEQEND
8
0
0
POLYLINE
8
0
62
5
66
1
10
0
20
0
30
0
70
8
0
VERTEX
8
0
62
5
10
-0.10896438
20
0.65578611
30
0
70
32
0
VERTEX
8
0
62
5
10
-0.10896438
20
0.6673351
30
0
70
32
0
SEQEND
8
0
0
POLYLINE
8
0
62
5
66
1
10
0
20
0
30
0
70
8
0
VERTEX
8
0
62
5
10
-0.066537969
20
0.65578611
30
0
70
32
0
VERTEX
8
0
62
5
10
-0.066537969
20
0.68477083
30
0
70
32
0
SEQEND
8
0
0
POLYLINE
8
0
62
5
66
1
10
0
20
0
30
0
70
8
0
VERTEX
8
0
62
5
10
-0.024111563
20
0.65578611
30
0
70
32
0
VERTEX
8
0
62
5
10
-0.024111563
20
0.67355559
30
0
70
32
0
SEQEND
8
0
0
POLYLINE
8
0
62
5
66
1
10
0
20
0
30
0
70
8
0
VERTEX
8
0
62
5
10
-0.10896438
20
0.71375555
30
0
70
32
0
VERTEX
8
0
62
5
10
-0.10896438
20
0.72530453
30
0
70
32
0
SEQEND
8
0
0
POLYLINE
8
0
62
5
66
1
10
0
20
0
30
0
70
8
0
VERTEX
8
0
62
5
10
-0.066537969
20
0.71375555
30
0
70
32
0
VERTEX
8
0
62
5
10
-0.066537969
20
0.74274027
30
0
70
32
0
SEQEND
8
0
0
POLYLINE
8
0
62
5
66
1
10
0
20
0
30
0
70
8
0
VERTEX
8
0
62
5
10
-0.024111563
20
0.71375555
30
0
70
32
0
VERTEX
8
0
62
5
10
-0.024111563
20
0.73152503
30
0
70
32
0
SEQEND
8
0
0
POLYLINE
8
0
62
5
66
1
10
0
20
0
30
0
70
8
0
VERTEX
8
0
62
5
10
-0.10896438
20
0.68477083
30
0
70
32
0
VERTEX
8
0
62
5
10
-0.10896438
20
0.71375555
30
0
70
32
0
SEQEND
8
0
0
POLYLINE
8
0
62
5
66
1
10
0
20
0
30
0
70
8
0
VERTEX
8
0
62
5
10
-0.066537969
20
0.68477083
30
0
70
32
0
VERTEX
8
0
62
5
10
-0.066537969
20
0.71375555
30
0
70
32
0
SEQEND
8
0
0
POLYLINE
8
0
62
5
66
1
10
0
20
0
30
0
70
8
0
VERTEX
8
0
62
5
10
-0.024111563
20
0.68477083
30
0
70
32
0
VERTEX
8
0
62
5
10
-0.024111563
20
0.71375555
30
0
70
32
0
SEQEND
8
0
0
POLYLINE
8
0
62
5
66
1
10
0
20
0
30
0
70
8
0
VERTEX
8
0
62
5
10
-0.10896438
20
0.74274027
30
0
70
32
0
VERTEX
8
0
62
5
10
-0.10896438
20
0.77172499
30
0
70
32
0
SEQEND
8
0
0
POLYLINE
8
0
62
5
66
1
10
0
20
0
30
0
70
8
0
VERTEX
8
0
62
5
10
-0.066537969
20
0.74274027
30
0
70
32
0
VERTEX
8
0
62
5
10
-0.066537969
20
0.77172499
30
0
70
32
0
SEQEND
8
0
0
POLYLINE
8
0
62
5
66
1
10
0
20
0
30
0
70
8
0
VERTEX
8
0
62
5
10
-0.024111563
20
0.74274027
30
0
70
32
0
VERTEX
8
0
62
5
10
-0.024111563
20
0.77172499
30
0
70
32
0
SEQEND
8
0
0
POLYLINE
8
0
62
30
66
1
10
0
20
0
30
0
70
8
0
VERTEX
8
0
62
30
10
0.018314844
20
0.8118217
30
0
70
32
0
VERTEX
8
0
62
30
10
0.18802047
20
0.8118217
30
0
70
32
0
SEQEND
8
0
0
POLYLINE
8
0
62
30
66
1
10
0
20
0
30
0
70
8
0
VERTEX
8
0
62
30
10
0.018314844
20
0.77172499
30
0
70
32
0
VERTEX
8
0
62
30
10
0.18802047
20
0.77172499
30
0
70
32
0
SEQEND
8
0
0
POLYLINE
8
0
62
5
66
1
10
0
20
0
30
0
70
8
0
VERTEX
8
0
62
5
10
0.018314844
20
0.77172499
30
0
70
32
0
VERTEX
8
0
62
5
10
0.043737873
20
0.8118217
30
0
70
32
0
VERTEX
8
0
62
5
10
0.060741251
20
0.77172499
30
0
70
32
0
VERTEX
8
0
62
5
10
0.086164279
20
0.8118217
30
0
70
32
0
VERTEX
8
0
62
5
10
0.10316766
20
0.77172499
30
0
70
32
0
VERTEX
8
0
62
5
10
0.12859069
20
0.8118217
30
0
70
32
0
VERTEX
8
0
62
5
10
0.14559406
20
0.77172499
30
0
70
32
0
VERTEX
8
0
62
5
10
0.17101709
20
0.8118217
30
0
70
32
0
VERTEX
8
0
62
5
10
0.18802047
20
0.77172499
30
0
70
32
0
SEQEND
8
0
0
POLYLINE
8
0
62
5
66
1
10
0
20
0
30
0
70
8
0
VERTEX
8
0
62
5
10
0.060741251
20
0.77172499
30
0
70
32
0
VERTEX
8
0
62
5
10
0.060741251
20
0.77172499
30
0
70
32
0
SEQEND
8
0
0
POLYLINE
8
0
62
5
66
1
10
0
20
0
30
0
70
8
0
VERTEX
8
0
62
5
10
0.10316766
20
0.77172499
30
0
70
32
0
VERTEX
8
0
62
5
10
0.10316766
20
0.77172499
30
0
70
32
0
SEQEND
8
0
0
POLYLINE
8
0
62
5
66
1
10
0
20
0
30
0
70
8
0
VERTEX
8
0
62
5
10
0.14559406
20
0.77172499
30
0
70
32
0
VERTEX
8
0
62
5
10
0.14559406
20
0.77172499
30
0
70
32
0
SEQEND
8
0
0
POLYLINE
8
0
62
5
66
1
10
0
20
0
30
0
70
8
0
VERTEX
8
0
62
5
10
0.043737873
20
0.8118217
30
0
70
32
0
VERTEX
8
0
62
5
10
0.043737873
20
0.8118217
30
0
70
32
0
SEQEND
8
0
0
POLYLINE
8
0
62
5
66
1
10
0
20
0
30
0
70
8
0
VERTEX
8
0
62
5
10
0.086164279
20
0.8118217
30
0
70
32
0
VERTEX
8
0
62
5
10
0.086164279
20
0.8118217
30
0
70
32
0
SEQEND
8
0
0
POLYLINE
8
0
62
5
66
1
10
0
20
0
30
0
70
8
0
VERTEX
8
0
62
5
10
0.12859069
20
0.8118217
30
0
70
32
0
VERTEX
8
0
62
5
10
0.12859069
20
0.8118217
30
0
70
32
0
SEQEND
8
0
0
POLYLINE
8
0
62
5
66
1
10
0
20
0
30
0
70
8
0
VERTEX
8
0
62
5
10
0.17101709
20
0.8118217
30
0
70
32
0
VERTEX
8
0
62
5
10
0.17101709
20
0.8118217
30
0
70
32
0
SEQEND
8
0
0
POLYLINE
8
0
62
30
66
1
10
0
20
0
30
0
70
8
0
VERTEX
8
0
62
30
10
0.18802047
20
0.8118217
30
0
70
32
0
VERTEX
8
0
62
30
10
0.3577261
20
0.8118217
30
0
70
32
0
SEQEND
8
0
0
POLYLINE
8
0
62
30
66
1
10
0
20
0
30
0
70
8
0
VERTEX
8
0
62
30
10
0.18802047
20
0.77172499
30
0
70
32
0
VERTEX
8
0
62
30
10
0.3577261
20
0.77172499
30
0
70
32
0
SEQEND
8
0
0
POLYLINE
8
0
62
5
66
1
10
0
20
0
30
0
70
8
0
VERTEX
8
0
62
5
10
0.18802047
20
0.77172499
30
0
70
32
0
VERTEX
8
0
62
5
10
0.2134435
20
0.8118217
30
0
70
32
0
VERTEX
8
0
62
5
10
0.23044688
20
0.77172499
30
0
70
32
0
VERTEX
8
0
62
5
10
0.25586991
20
0.8118217
30
0
70
32
0
VERTEX
8
0
62
5
10
0.27287329
20
0.77172499
30
0
70
32
0
VERTEX
8
0
62
5
10
0.29829631
20
0.8118217
30
0
70
32
0
VERTEX
8
0
62
5
10
0.31529969
20
0.77172499
30
0
70
32
0
VERTEX
8
0
62
5
10
0.34072272
20
0.8118217
30
0
70
32
0
VERTEX
8
0
62
5
10
0.3577261
20
0.77172499
30
0
70
32
0
SEQEND
8
0
0
POLYLINE
8
0
62
5
66
1
10
0
20
0
30
0
70
8
0
VERTEX
8
0
62
5
10
0.23044688
20
0.77172499
30
0
70
32
0
VERTEX
8
0
62
5
10
0.23044688
20
0.77172499
30
0
70
32
0
SEQEND
8
0
0
POLYLINE
8
0
62
5
66
1
10
0
20
0
30
0
70
8
0
VERTEX
8
0
62
5
10
0.27287329
20
0.77172499
30
0
70
32
0
VERTEX
8
0
62
5
10
0.27287329
20
0.77172499
30
0
70
32
0
SEQEND
8
0
0
POLYLINE
8
0
62
5
66
1
10
0
20
0
30
0
70
8
0
VERTEX
8
0
62
5
10
0.31529969
20
0.77172499
30
0
70
32
0
VERTEX
8
0
62
5
10
0.31529969
20
0.77172499
30
0
70
32
0
SEQEND
8
0
0
POLYLINE
8
0
62
5
66
1
10
0
20
0
30
0
70
8
0
VERTEX
8
0
62
5
10
0.2134435
20
0.8118217
30
0
70
32
0
VERTEX
8
0
62
5
10
0.2134435
20
0.8118217
30
0
70
32
0
SEQEND
8
0
0
POLYLINE
8
0
62
5
66
1
10
0
20
0
30
0
70
8
0
VERTEX
8
0
62
5
10
0.25586991
20
0.8118217
30
0
70
32
0
VERTEX
8
0
62
5
10
0.25586991
20
0.8118217
30
0
70
32
0
SEQEND
8
0
0
POLYLINE
8
0
62
5
66
1
10
0
20
0
30
0
70
8
0
VERTEX
8
0
62
5
10
0.29829631
20
0.8118217
30
0
70
32
0
VERTEX
8
0
62
5
10
0.29829631
20
0.8118217
30
0
70
32
0
SEQEND
8
0
0
POLYLINE
8
0
62
5
66
1
10
0
20
0
30
0
70
8
0
VERTEX
8
0
62
5
10
0.34072272
20
0.8118217
30
0
70
32
0
VERTEX
8
0
62
5
10
0.34072272
20
0.8118217
30
0
70
32
0
SEQEND
8
0
0
POLYLINE
8
0
62
30
66
1
10
0
20
0
30
0
70
8
0
VERTEX
8
0
62
30
10
-0.15139078
20
0.8118217
30
0
70
32
0
VERTEX
8
0
62
30
10
0.018314844
20
0.8118217
30
0
70
32
0
SEQEND
8
0
0
POLYLINE
8
0
62
30
66
1
10
0
20
0
30
0
70
8
0
VERTEX
8
0
62
30
10
-0.15139078
20
0.77172499
30
0
70
32
0
VERTEX
8
0
62
30
10
0.018314844
20
0.77172499
30
0
70
32
0
SEQEND
8
0
0
POLYLINE
8
0
62
5
66
1
10
0
20
0
30
0
70
8
0
VERTEX
8
0
62
5
10
-0.15139078
20
0.77172499
30
0
70
32
0
VERTEX
8
0
62
5
10
-0.12596775
20
0.8118217
30
0
70
32
0
VERTEX
8
0
62
5
10
-0.10896438
20
0.77172499
30
0
70
32
0
VERTEX
8
0
62
5
10
-0.083541348
20
0.8118217
30
0
70
32
0
VERTEX
8
0
62
5
10
-0.066537969
20
0.77172499
30
0
70
32
0
VERTEX
8
0
62
5
10
-0.041114941
20
0.8118217
30
0
70
32
0
VERTEX
8
0
62
5
10
-0.024111563
20
0.77172499
30
0
70
32
0
VERTEX
8
0
62
5
10
0.0013114656
20
0.8118217
30
0
70
32
0
VERTEX
8
0
62
5
10
0.018314844
20
0.77172499
30
0
70
32
0
SEQEND
8
0
0
POLYLINE
8
0
62
5
66
1
10
0
20
0
30
0
70
8
0
VERTEX
8
0
62
5
10
-0.10896438
20
0.77172499
30
0
70
32
0
VERTEX
8
0
62
5
10
-0.10896438
20
0.77172499
30
0
70
32
0
SEQEND
8
0
0
POLYLINE
8
0
62
5
66
1
10
0
20
0
30
0
70
8
0
VERTEX
8
0
62
5
10
-0.066537969
20
0.77172499
30
0
70
32
0
VERTEX
8
0
62
5
10
-0.066537969
20
0.77172499
30
0
70
32
0
SEQEND
8
0
0
POLYLINE
8
0
62
5
66
1
10
0
20
0
30
0
70
8
0
VERTEX
8
0
62
5
10
-0.024111563
20
0.77172499
30
0
70
32
0
VERTEX
8
0
62
5
10
-0.024111563
20
0.77172499
30
0
70
32
0
SEQEND
8
0
0
POLYLINE
8
0
62
5
66
1
10
0
20
0
30
0
70
8
0
VERTEX
8
0
62
5
10
-0.12596775
20
0.8118217
30
0
70
32
0
VERTEX
8
0
62
5
10
-0.12596775
20
0.8118217
30
0
70
32
0
SEQEND
8
0
0
POLYLINE
8
0
62
5
66
1
10
0
20
0
30
0
70
8
0
VERTEX
8
0
62
5
10
-0.083541348
20
0.8118217
30
0
70
32
0
VERTEX
8
0
62
5
10
-0.083541348
20
0.8118217
30
0
70
32
0
SEQEND
8
0
0
POLYLINE
8
0
62
5
66
1
10
0
20
0
30
0
70
8
0
VERTEX
8
0
62
5
10
-0.041114941
20
0.8118217
30
0
70
32
0
VERTEX
8
0
62
5
10
-0.041114941
20
0.8118217
30
0
70
32
0
SEQEND
8
0
0
POLYLINE
8
0
62
5
66
1
10
0
20
0
30
0
70
8
0
VERTEX
8
0
62
5
10
0.0013114656
20
0.8118217
30
0
70
32
0
VERTEX
8
0
62
5
10
0.0013114656
20
0.8118217
30
0
70
32
0
SEQEND
8
0
0
POLYLINE
8
0
62
5
66
1
10
0
20
0
30
0
70
8
0
VERTEX
8
0
62
5
10
0.043737873
20
0.8118217
30
0
70
32
0
VERTEX
8
0
62
5
10
0.043737873
20
0.96857205
30
0
70
32
0
SEQEND
8
0
0
POLYLINE
8
0
62
5
66
1
10
0
20
0
30
0
70
8
0
VERTEX
8
0
62
5
10
0.2134435
20
0.8118217
30
0
70
32
0
VERTEX
8
0
62
5
10
0.2134435
20
0.96857205
30
0
70
32
0
SEQEND
8
0
0
POLYLINE
8
0
62
5
66
1
10
0
20
0
30
0
70
8
0
VERTEX
8
0
62
5
10
0.086164279
20
0.8118217
30
0
70
32
0
VERTEX
8
0
62
5
10
0.086164279
20
0.96857205
30
0
70
32
0
SEQEND
8
0
0
POLYLINE
8
0
62
5
66
1
10
0
20
0
30
0
70
8
0
VERTEX
8
0
62
5
10
0.12859069
20
0.8118217
30
0
70
32
0
VERTEX
8
0
62
5
10
0.12859069
20
0.96857205
30
0
70
32
0
SEQEND
8
0
0
POLYLINE
8
0
62
5
66
1
10
0
20
0
30
0
70
8
0
VERTEX
8
0
62
5
10
0.17101709
20
0.8118217
30
0
70
32
0
VERTEX
8
0
62
5
10
0.17101709
20
0.96857205
30
0
70
32
0
SEQEND
8
0
0
POLYLINE
8
0
62
5
66
1
10
0
20
0
30
0
70
8
0
VERTEX
8
0
62
5
10
0.38314913
20
0.8118217
30
0
70
32
0
VERTEX
8
0
62
5
10
0.38314913
20
0.96857205
30
0
70
32
0
SEQEND
8
0
0
POLYLINE
8
0
62
5
66
1
10
0
20
0
30
0
70
8
0
VERTEX
8
0
62
5
10
0.25586991
20
0.8118217
30
0
70
32
0
VERTEX
8
0
62
5
10
0.25586991
20
0.96857205
30
0
70
32
0
SEQEND
8
0
0
POLYLINE
8
0
62
5
66
1
10
0
20
0
30
0
70
8
0
VERTEX
8
0
62
5
10
0.29829631
20
0.8118217
30
0
70
32
0
VERTEX
8
0
62
5
10
0.29829631
20
0.96857205
30
0
70
32
0
SEQEND
8
0
0
POLYLINE
8
0
62
5
66
1
10
0
20
0
30
0
70
8
0
VERTEX
8
0
62
5
10
0.34072272
20
0.8118217
30
0
70
32
0
VERTEX
8
0
62
5
10
0.34072272
20
0.96857205
30
0
70
32
0
SEQEND
8
0
0
POLYLINE
8
0
62
5
66
1
10
0
20
0
30
0
70
8
0
VERTEX
8
0
62
5
10
-0.12596775
20
0.8118217
30
0
70
32
0
VERTEX
8
0
62
5
10
-0.12596775
20
0.96857205
30
0
70
32
0
SEQEND
8
0
0
POLYLINE
8
0
62
5
66
1
10
0
20
0
30
0
70
8
0
VERTEX
8
0
62
5
10
-0.083541348
20
0.8118217
30
0
70
32
0
VERTEX
8
0
62
5
10
-0.083541348
20
0.96857205
30
0
70
32
0
SEQEND
8
0
0
POLYLINE
8
0
62
5
66
1
10
0
20
0
30
0
70
8
0
VERTEX
8
0
62
5
10
-0.041114941
20
0.8118217
30
0
70
32
0
VERTEX
8
0
62
5
10
-0.041114941
20
0.96857205
30
0
70
32
0
SEQEND
8
0
0
POLYLINE
8
0
62
5
66
1
10
0
20
0
30
0
70
8
0
VERTEX
8
0
62
5
10
0.0013114656
20
0.8118217
30
0
70
32
0
VERTEX
8
0
62
5
10
0.0013114656
20
0.96857205
30
0
70
32
0
SEQEND
8
0
0
POLYLINE
8
0
62
5
66
1
10
0
20
0
30
0
70
8
0
VERTEX
8
0
62
5
10
0.043737873
20
0.96857205
30
0
70
32
0
VERTEX
8
0
62
5
10
0.043737873
20
1.0056801
30
0
70
32
0
SEQEND
8
0
0
POLYLINE
8
0
62
5
66
1
10
0
20
0
30
0
70
8
0
VERTEX
8
0
62
5
10
0.2134435
20
1.0056801
30
0
70
32
0
VERTEX
8
0
62
5
10
0.2134435
20
0.96857205
30
0
70
32
0
SEQEND
8
0
0
POLYLINE
8
0
62
5
66
1
10
0
20
0
30
0
70
8
0
VERTEX
8
0
62
5
10
0.043737873
20
0.97486812
30
0
70
32
0
VERTEX
8
0
62
5
10
0.086164279
20
0.96914797
30
0
70
32
0
VERTEX
8
0
62
5
10
0.12859069
20
0.98140593
30
0
70
32
0
VERTEX
8
0
62
5
10
0.17101709
20
0.98712607
30
0
70
32
0
VERTEX
8
0
62
5
10
0.2134435
20
0.97486812
30
0
70
32
0
SEQEND
8
0
0
POLYLINE
8
0
62
5
66
1
10
0
20
0
30
0
70
8
0
SEQEND
8
0
0
POLYLINE
8
0
62
5
66
1
10
0
20
0
30
0
70
8
0
VERTEX
8
0
62
5
10
0.043737873
20
0.99938403
30
0
70
32
0
VERTEX
8
0
62
5
10
0.086164279
20
1.0051042
30
0
70
32
0
VERTEX
8
0
62
5
10
0.12859069
20
0.99284622
30
0
70
32
0
VERTEX
8
0
62
5
10
0.17101709
20
0.98712607
30
0
70
32
0
VERTEX
8
0
62
5
10
0.2134435
20
0.99938403
30
0
70
32
0
SEQEND
8
0
0
POLYLINE
8
0
62
30
66
1
10
0
20
0
30
0
70
8
0
VERTEX
8
0
62
30
10
0.043737873
20
0.98712607
30
0
70
32
0
VERTEX
8
0
62
30
10
0.2134435
20
0.98712607
30
0
70
32
0
SEQEND
8
0
0
POLYLINE
8
0
62
30
66
1
10
0
20
0
30
0
70
8
0
VERTEX
8
0
62
30
10
0.086164279
20
0.96914797
30
0
70
32
0
VERTEX
8
0
62
30
10
0.086164279
20
0.98712607
30
0
70
32
0
SEQEND
8
0
0
POLYLINE
8
0
62
30
66
1
10
0
20
0
30
0
70
8
0
VERTEX
8
0
62
30
10
0.12859069
20
0.98140593
30
0
70
32
0
VERTEX
8
0
62
30
10
0.12859069
20
0.98712607
30
0
70
32
0
SEQEND
8
0
0
POLYLINE
8
0
62
30
66
1
10
0
20
0
30
0
70
8
0
VERTEX
8
0
62
30
10
0.17101709
20
0.98712607
30
0
70
32
0
VERTEX
8
0
62
30
10
0.17101709
20
0.98712607
30
0
70
32
0
SEQEND
8
0
0
POLYLINE
8
0
62
5
66
1
10
0
20
0
30
0
70
8
0
VERTEX
8
0
62
5
10
0.086164279
20
0.96857205
30
0
70
32
0
VERTEX
8
0
62
5
10
0.086164279
20
0.96914797
30
0
70
32
0
SEQEND
8
0
0
POLYLINE
8
0
62
5
66
1
10
0
20
0
30
0
70
8
0
VERTEX
8
0
62
5
10
0.12859069
20
0.96857205
30
0
70
32
0
VERTEX
8
0
62
5
10
0.12859069
20
0.98140593
30
0
70
32
0
SEQEND
8
0
0
POLYLINE
8
0
62
5
66
1
10
0
20
0
30
0
70
8
0
VERTEX
8
0
62
5
10
0.17101709
20
0.96857205
30
0
70
32
0
VERTEX
8
0
62
5
10
0.17101709
20
0.98712607
30
0
70
32
0
SEQEND
8
0
0
POLYLINE
8
0
62
5
66
1
10
0
20
0
30
0
70
8
0
VERTEX
8
0
62
5
10
0.086164279
20
0.98712607
30
0
70
32
0
VERTEX
8
0
62
5
10
0.086164279
20
1.0056801
30
0
70
32
0
SEQEND
8
0
0
POLYLINE
8
0
62
5
66
1
10
0
20
0
30
0
70
8
0
VERTEX
8
0
62
5
10
0.12859069
20
0.98712607
30
0
70
32
0
VERTEX
8
0
62
5
10
0.12859069
20
1.0056801
30
0
70
32
0
SEQEND
8
0
0
POLYLINE
8
0
62
5
66
1
10
0
20
0
30
0
70
8
0
VERTEX
8
0
62
5
10
0.17101709
20
0.98712607
30
0
70
32
0
VERTEX
8
0
62
5
10
0.17101709
20
1.0056801
30
0
70
32
0
SEQEND
8
0
0
POLYLINE
8
0
62
5
66
1
10
0
20
0
30
0
70
8
0
VERTEX
8
0
62
5
10
0.38314913
20
1.0056801
30
0
70
32
0
VERTEX
8
0
62
5
10
0.38314913
20
0.96857205
30
0
70
32
0
SEQEND
8
0
0
POLYLINE
8
0
62
5
66
1
10
0
20
0
30
0
70
8
0
VERTEX
8
0
62
5
10
0.2134435
20
0.97486812
30
0
70
32
0
VERTEX
8
0
62
5
10
0.25586991
20
0.96914797
30
0
70
32
0
VERTEX
8
0
62
5
10
0.29829631
20
0.98140593
30
0
70
32
0
VERTEX
8
0
62
5
10
0.34072272
20
0.98712607
30
0
70
32
0
VERTEX
8
0
62
5
10
0.38314913
20
0.97486812
30
0
70
32
0
SEQEND
8
0
0
POLYLINE
8
0
62
5
66
1
10
0
20
0
30
0
70
8
0
SEQEND
8
0
0
POLYLINE
8
0
62
5
66
1
10
0
20
0
30
0
70
8
0
VERTEX
8
0
62
5
10
0.2134435
20
0.99938403
30
0
70
32
0
VERTEX
8
0
62
5
10
0.25586991
20
1.0051042
30
0
70
32
0
VERTEX
8
0
62
5
10
0.29829631
20
0.99284622
30
0
70
32
0
VERTEX
8
0
62
5
10
0.34072272
20
0.98712607
30
0
70
32
0
VERTEX
8
0
62
5
10
0.38314913
20
0.99938403
30
0
70
32
0
SEQEND
8
0
0
POLYLINE
8
0
62
30
66
1
10
0
20
0
30
0
70
8
0
VERTEX
8
0
62
30
10
0.2134435
20
0.98712607
30
0
70
32
0
VERTEX
8
0
62
30
10
0.38314913
20
0.98712607
30
0
70
32
0
SEQEND
8
0
0
POLYLINE
8
0
62
30
66
1
10
0
20
0
30
0
70
8
0
VERTEX
8
0
62
30
10
0.25586991
20
0.96914797
30
0
70
32
0
VERTEX
8
0
62
30
10
0.25586991
20
0.98712607
30
0
70
32
0
SEQEND
8
0
0
POLYLINE
8
0
62
30
66
1
10
0
20
0
30
0
70
8
0
VERTEX
8
0
62
30
10
0.29829631
20
0.98140593
30
0
70
32
0
VERTEX
8
0
62
30
10
0.29829631
20
0.98712607
30
0
70
32
0
SEQEND
8
0
0
POLYLINE
8
0
62
30
66
1
10
0
20
0
30
0
70
8
0
VERTEX
8
0
62
30
10
0.34072272
20
0.98712607
30
0
70
32
0
VERTEX
8
0
62
30
10
0.34072272
20
0.98712607
30
0
70
32
0
SEQEND
8
0
0
POLYLINE
8
0
62
5
66
1
10
0
20
0
30
0
70
8
0
VERTEX
8
0
62
5
10
0.25586991
20
0.96857205
30
0
70
32
0
VERTEX
8
0
62
5
10
0.25586991
20
0.96914797
30
0
70
32
0
SEQEND
8
0
0
POLYLINE
8
0
62
5
66
1
10
0
20
0
30
0
70
8
0
VERTEX
8
0
62
5
10
0.29829631
20
0.96857205
30
0
70
32
0
VERTEX
8
0
62
5
10
0.29829631
20
0.98140593
30
0
70
32
0
SEQEND
8
0
0
POLYLINE
8
0
62
5
66
1
10
0
20
0
30
0
70
8
0
VERTEX
8
0
62
5
10
0.34072272
20
0.96857205
30
0
70
32
0
VERTEX
8
0
62
5
10
0.34072272
20
0.98712607
30
0
70
32
0
SEQEND
8
0
0
POLYLINE
8
0
62
5
66
1
10
0
20
0
30
0
70
8
0
VERTEX
8
0
62
5
10
0.25586991
20
0.98712607
30
0
70
32
0
VERTEX
8
0
62
5
10
0.25586991
20
1.0056801
30
0
70
32
0
SEQEND
8
0
0
POLYLINE
8
0
62
5
66
1
10
0
20
0
30
0
70
8
0
VERTEX
8
0
62
5
10
0.29829631
20
0.98712607
30
0
70
32
0
VERTEX
8
0
62
5
10
0.29829631
20
1.0056801
30
0
70
32
0
SEQEND
8
0
0
POLYLINE
8
0
62
5
66
1
10
0
20
0
30
0
70
8
0
VERTEX
8
0
62
5
10
0.34072272
20
0.98712607
30
0
70
32
0
VERTEX
8
0
62
5
10
0.34072272
20
1.0056801
30
0
70
32
0
SEQEND
8
0
0
POLYLINE
8
0
62
5
66
1
10
0
20
0
30
0
70
8
0
VERTEX
8
0
62
5
10
-0.12596775
20
0.96857205
30
0
70
32
0
VERTEX
8
0
62
5
10
-0.12596775
20
1.0056801
30
0
70
32
0
SEQEND
8
0
0
POLYLINE
8
0
62
5
66
1
10
0
20
0
30
0
70
8
0
VERTEX
8
0
62
5
10
-0.12596775
20
0.97486812
30
0
70
32
0
VERTEX
8
0
62
5
10
-0.083541348
20
0.96914797
30
0
70
32
0
VERTEX
8
0
62
5
10
-0.041114941
20
0.98140593
30
0
70
32
0
VERTEX
8
0
62
5
10
0.0013114656
20
0.98712607
30
0
70
32
0
VERTEX
8
0
62
5
10
0.043737873
20
0.97486812
30
0
70
32
0
SEQEND
8
0
0
POLYLINE
8
0
62
5
66
1
10
0
20
0
30
0
70
8
0
SEQEND
8
0
0
POLYLINE
8
0
62
5
66
1
10
0
20
0
30
0
70
8
0
VERTEX
8
0
62
5
10
-0.12596775
20
0.99938403
30
0
70
32
0
VERTEX
8
0
62
5
10
-0.083541348
20
1.0051042
30
0
70
32
0
VERTEX
8
0
62
5
10
-0.041114941
20
0.99284622
30
0
70
32
0
VERTEX
8
0
62
5
10
0.0013114656
20
0.98712607
30
0
70
32
0
VERTEX
8
0
62
5
10
0.043737873
20
0.99938403
30
0
70
32
0
SEQEND
8
0
0
POLYLINE
8
0
62
30
66
1
10
0
20
0
30
0
70
8
0
VERTEX
8
0
62
30
10
-0.12596775
20
0.98712607
30
0
70
32
0
VERTEX
8
0
62
30
10
0.043737873
20
0.98712607
30
0
70
32
0
SEQEND
8
0
0
POLYLINE
8
0
62
30
66
1
10
0
20
0
30
0
70
8
0
VERTEX
8
0
62
30
10
-0.083541348
20
0.96914797
30
0
70
32
0
VERTEX
8
0
62
30
10
-0.083541348
20
0.98712607
30
0
70
32
0
SEQEND
8
0
0
POLYLINE
8
0
62
30
66
1
10
0
20
0
30
0
70
8
0
VERTEX
8
0
62
30
10
-0.041114941
20
0.98140593
30
0
70
32
0
VERTEX
8
0
62
30
10
-0.041114941
20
0.98712607
30
0
70
32
0
SEQEND
8
0
0
POLYLINE
8
0
62
30
66
1
10
0
20
0
30
0
70
8
0
VERTEX
8
0
62
30
10
0.0013114656
20
0.98712607
30
0
70
32
0
VERTEX
8
0
62
30
10
0.0013114656
20
0.98712607
30
0
70
32
0
SEQEND
8
0
0
POLYLINE
8
0
62
5
66
1
10
0
20
0
30
0
70
8
0
VERTEX
8
0
62
5
10
-0.083541348
20
0.96857205
30
0
70
32
0
VERTEX
8
0
62
5
10
-0.083541348
20
0.96914797
30
0
70
32
0
SEQEND
8
0
0
POLYLINE
8
0
62
5
66
1
10
0
20
0
30
0
70
8
0
VERTEX
8
0
62
5
10
-0.041114941
20
0.96857205
30
0
70
32
0
VERTEX
8
0
62
5
10
-0.041114941
20
0.98140593
30
0
70
32
0
SEQEND
8
0
0
POLYLINE
8
0
62
5
66
1
10
0
20
0
30
0
70
8
0
VERTEX
8
0
62
5
10
0.0013114656
20
0.96857205
30
0
70
32
0
VERTEX
8
0
62
5
10
0.0013114656
20
0.98712607
30
0
70
32
0
SEQEND
8
0
0
POLYLINE
8
0
62
5
66
1
10
0
20
0
30
0
70
8
0
VERTEX
8
0
62
5
10
-0.083541348
20
0.98712607
30
0
70
32
0
VERTEX
8
0
62
5
10
-0.083541348
20
1.0056801
30
0
70
32
0
SEQEND
8
0
0
POLYLINE
8
0
62
5
66
1
10
0
20
0
30
0
70
8
0
VERTEX
8
0
62
5
10
-0.041114941
20
0.98712607
30
0
70
32
0
VERTEX
8
0
62
5
10
-0.041114941
20
1.0056801
30
0
70
32
0
SEQEND
8
0
0
POLYLINE
8
0
62
5
66
1
10
0
20
0
30
0
70
8
0
VERTEX
8
0
62
5
10
0.0013114656
20
0.98712607
30
0
70
32
0
VERTEX
8
0
62
5
10
0.0013114656
20
1.0056801
30
0
70
32
0
SEQEND
8
0
0
POLYLINE
8
0
62
5
66
1
10
0
20
0
30
0
70
8
0
VERTEX
8
0
62
5
10
0.043737873
20
1.0056801
30
0
70
32
0
VERTEX
8
0
62
5
10
0.043737873
20
1.0656801
30
0
70
32
0
SEQEND
8
0
0
POLYLINE
8
0
62
5
66
1
10
0
20
0
30
0
70
8
0
VERTEX
8
0
62
5
10
0.2134435
20
1.0656801
30
0
70
32
0
VERTEX
8
0
62
5
10
0.2134435
20
1.0056801
30
0
70
32
0
SEQEND
8
0
0
POLYLINE
8
0
62
5
66
1
10
0
20
0
30
0
70
8
0
VERTEX
8
0
62
5
10
0.043737873
20
1.0056801
30
0
70
32
0
VERTEX
8
0
62
5
10
0.2134435
20
1.0056801
30
0
70
32
0
SEQEND
8
0
0
POLYLINE
8
0
62
5
66
1
10
0
20
0
30
0
70
8
0
VERTEX
8
0
62
5
10
0.043737873
20
1.0656801
30
0
70
32
0
VERTEX
8
0
62
5
10
0.2134435
20
1.0656801
30
0
70
32
0
SEQEND
8
0
0
POLYLINE
8
0
62
5
66
1
10
0
20
0
30
0
70
8
0
VERTEX
8
0
62
5
10
0.086164279
20
1.0056801
30
0
70
32
0
VERTEX
8
0
62
5
10
0.086164279
20
1.0056801
30
0
70
32
0
SEQEND
8
0
0
POLYLINE
8
0
62
5
66
1
10
0
20
0
30
0
70
8
0
VERTEX
8
0
62
5
10
0.12859069
20
1.0056801
30
0
70
32
0
VERTEX
8
0
62
5
10
0.12859069
20
1.0056801
30
0
70
32
0
SEQEND
8
0
0
POLYLINE
8
0
62
5
66
1
10
0
20
0
30
0
70
8
0
VERTEX
8
0
62
5
10
0.17101709
20
1.0056801
30
0
70
32
0
VERTEX
8
0
62
5
10
0.17101709
20
1.0056801
30
0
70
32
0
SEQEND
8
0
0
POLYLINE
8
0
62
5
66
1
10
0
20
0
30
0
70
8
0
VERTEX
8
0
62
5
10
0.086164279
20
1.0656801
30
0
70
32
0
VERTEX
8
0
62
5
10
0.086164279
20
1.0656801
30
0
70
32
0
SEQEND
8
0
0
POLYLINE
8
0
62
5
66
1
10
0
20
0
30
0
70
8
0
VERTEX
8
0
62
5
10
0.12859069
20
1.0656801
30
0
70
32
0
VERTEX
8
0
62
5
10
0.12859069
20
1.0656801
30
0
70
32
0
SEQEND
8
0
0
POLYLINE
8
0
62
5
66
1
10
0
20
0
30
0
70
8
0
VERTEX
8
0
62
5
10
0.17101709
20
1.0656801
30
0
70
32
0
VERTEX
8
0
62
5
10
0.17101709
20
1.0656801
30
0
70
32
0
SEQEND
8
0
0
POLYLINE
8
0
62
30
66
1
10
0
20
0
30
0
70
8
0
VERTEX
8
0
62
30
10
0.043737873
20
1.0656801
30
0
70
32
0
VERTEX
8
0
62
30
10
0.086164279
20
1.0056801
30
0
70
32
0
SEQEND
8
0
0
POLYLINE
8
0
62
30
66
1
10
0
20
0
30
0
70
8
0
VERTEX
8
0
62
30
10
0.086164279
20
1.0656801
30
0
70
32
0
VERTEX
8
0
62
30
10
0.043737873
20
1.0056801
30
0
70
32
0
SEQEND
8
0
0
POLYLINE
8
0
62
30
66
1
10
0
20
0
30
0
70
8
0
VERTEX
8
0
62
30
10
0.12859069
20
1.0656801
30
0
70
32
0
VERTEX
8
0
62
30
10
0.17101709
20
1.0056801
30
0
70
32
0
SEQEND
8
0
0
POLYLINE
8
0
62
30
66
1
10
0
20
0
30
0
70
8
0
VERTEX
8
0
62
30
10
0.17101709
20
1.0656801
30
0
70
32
0
VERTEX
8
0
62
30
10
0.12859069
20
1.0056801
30
0
70
32
0
SEQEND
8
0
0
POLYLINE
8
0
62
30
66
1
10
0
20
0
30
0
70
8
0
VERTEX
8
0
62
30
10
0.086164279
20
1.0356801
30
0
70
32
0
VERTEX
8
0
62
30
10
0.12859069
20
1.0356801
30
0
70
32
0
SEQEND
8
0
0
POLYLINE
8
0
62
30
66
1
10
0
20
0
30
0
70
8
0
VERTEX
8
0
62
30
10
0.17101709
20
1.0356801
30
0
70
32
0
VERTEX
8
0
62
30
10
0.2134435
20
1.0356801
30
0
70
32
0
SEQEND
8
0
0
POLYLINE
8
0
62
5
66
1
10
0
20
0
30
0
70
8
0
VERTEX
8
0
62
5
10
0.043737873
20
1.0356801
30
0
70
32
0
VERTEX
8
0
62
5
10
0.064951076
20
1.0356801
30
0
70
32
0
SEQEND
8
0
0
POLYLINE
8
0
62
5
66
1
10
0
20
0
30
0
70
8
0
VERTEX
8
0
62
5
10
0.12859069
20
1.0356801
30
0
70
32
0
VERTEX
8
0
62
5
10
0.14980389
20
1.0356801
30
0
70
32
0
SEQEND
8
0
0
POLYLINE
8
0
62
5
66
1
10
0
20
0
30
0
70
8
0
VERTEX
8
0
62
5
10
0.064951076
20
1.0356801
30
0
70
32
0
VERTEX
8
0
62
5
10
0.086164279
20
1.0356801
30
0
70
32
0
SEQEND
8
0
0
POLYLINE
8
0
62
5
66
1
10
0
20
0
30
0
70
8
0
VERTEX
8
0
62
5
10
0.14980389
20
1.0356801
30
0
70
32
0
VERTEX
8
0
62
5
10
0.17101709
20
1.0356801
30
0
70
32
0
SEQEND
8
0
0
POLYLINE
8
0
62
5
66
1
10
0
20
0
30
0
70
8
0
VERTEX
8
0
62
5
10
0.086164279
20
1.0056801
30
0
70
32
0
VERTEX
8
0
62
5
10
0.086164279
20
1.0656801
30
0
70
32
0
SEQEND
8
0
0
POLYLINE
8
0
62
5
66
1
10
0
20
0
30
0
70
8
0
VERTEX
8
0
62
5
10
0.12859069
20
1.0056801
30
0
70
32
0
VERTEX
8
0
62
5
10
0.12859069
20
1.0656801
30
0
70
32
0
SEQEND
8
0
0
POLYLINE
8
0
62
5
66
1
10
0
20
0
30
0
70
8
0
VERTEX
8
0
62
5
10
0.17101709
20
1.0056801
30
0
70
32
0
VERTEX
8
0
62
5
10
0.17101709
20
1.0656801
30
0
70
32
0
SEQEND
8
0
0
POLYLINE
8
0
62
5
66
1
10
0
20
0
30
0
70
8
0
VERTEX
8
0
62
5
10
0.043737873
20
1.0056801
30
0
70
32
0
VERTEX
8
0
62
5
10
0.043737873
20
1.0656801
30
0
70
32
0
SEQEND
8
0
0
POLYLINE
8
0
62
5
66
1
10
0
20
0
30
0
70
8
0
VERTEX
8
0
62
5
10
0.38314913
20
1.0656801
30
0
70
32
0
VERTEX
8
0
62
5
10
0.38314913
20
1.0056801
30
0
70
32
0
SEQEND
8
0
0
POLYLINE
8
0
62
5
66
1
10
0
20
0
30
0
70
8
0
VERTEX
8
0
62
5
10
0.2134435
20
1.0056801
30
0
70
32
0
VERTEX
8
0
62
5
10
0.38314913
20
1.0056801
30
0
70
32
0
SEQEND
8
0
0
POLYLINE
8
0
62
5
66
1
10
0
20
0
30
0
70
8
0
VERTEX
8
0
62
5
10
0.2134435
20
1.0656801
30
0
70
32
0
VERTEX
8
0
62
5
10
0.38314913
20
1.0656801
30
0
70
32
0
SEQEND
8
0
0
POLYLINE
8
0
62
5
66
1
10
0
20
0
30
0
70
8
0
VERTEX
8
0
62
5
10
0.25586991
20
1.0056801
30
0
70
32
0
VERTEX
8
0
62
5
10
0.25586991
20
1.0056801
30
0
70
32
0
SEQEND
8
0
0
POLYLINE
8
0
62
5
66
1
10
0
20
0
30
0
70
8
0
VERTEX
8
0
62
5
10
0.29829631
20
1.0056801
30
0
70
32
0
VERTEX
8
0
62
5
10
0.29829631
20
1.0056801
30
0
70
32
0
SEQEND
8
0
0
POLYLINE
8
0
62
5
66
1
10
0
20
0
30
0
70
8
0
VERTEX
8
0
62
5
10
0.34072272
20
1.0056801
30
0
70
32
0
VERTEX
8
0
62
5
10
0.34072272
20
1.0056801
30
0
70
32
0
SEQEND
8
0
0
POLYLINE
8
0
62
5
66
1
10
0
20
0
30
0
70
8
0
VERTEX
8
0
62
5
10
0.25586991
20
1.0656801
30
0
70
32
0
VERTEX
8
0
62
5
10
0.25586991
20
1.0656801
30
0
70
32
0
SEQEND
8
0
0
POLYLINE
8
0
62
5
66
1
10
0
20
0
30
0
70
8
0
VERTEX
8
0
62
5
10
0.29829631
20
1.0656801
30
0
70
32
0
VERTEX
8
0
62
5
10
0.29829631
20
1.0656801
30
0
70
32
0
SEQEND
8
0
0
POLYLINE
8
0
62
5
66
1
10
0
20
0
30
0
70
8
0
VERTEX
8
0
62
5
10
0.34072272
20
1.0656801
30
0
70
32
0
VERTEX
8
0
62
5
10
0.34072272
20
1.0656801
30
0
70
32
0
SEQEND
8
0
0
POLYLINE
8
0
62
30
66
1
10
0
20
0
30
0
70
8
0
VERTEX
8
0
62
30
10
0.2134435
20
1.0656801
30
0
70
32
0
VERTEX
8
0
62
30
10
0.25586991
20
1.0056801
30
0
70
32
0
SEQEND
8
0
0
POLYLINE
8
0
62
30
66
1
10
0
20
0
30
0
70
8
0
VERTEX
8
0
62
30
10
0.25586991
20
1.0656801
30
0
70
32
0
VERTEX
8
0
62
30
10
0.2134435
20
1.0056801
30
0
70
32
0
SEQEND
8
0
0
POLYLINE
8
0
62
30
66
1
10
0
20
0
30
0
70
8
0
VERTEX
8
0
62
30
10
0.29829631
20
1.0656801
30
0
70
32
0
VERTEX
8
0
62
30
10
0.34072272
20
1.0056801
30
0
70
32
0
SEQEND
8
0
0
POLYLINE
8
0
62
30
66
1
10
0
20
0
30
0
70
8
0
VERTEX
8
0
62
30
10
0.34072272
20
1.0656801
30
0
70
32
0
VERTEX
8
0
62
30
10
0.29829631
20
1.0056801
30
0
70
32
0
SEQEND
8
0
0
POLYLINE
8
0
62
30
66
1
10
0
20
0
30
0
70
8
0
VERTEX
8
0
62
30
10
0.25586991
20
1.0356801
30
0
70
32
0
VERTEX
8
0
62
30
10
0.29829631
20
1.0356801
30
0
70
32
0
SEQEND
8
0
0
POLYLINE
8
0
62
30
66
1
10
0
20
0
30
0
70
8
0
VERTEX
8
0
62
30
10
0.34072272
20
1.0356801
30
0
70
32
0
VERTEX
8
0
62
30
10
0.38314913
20
1.0356801
30
0
70
32
0
SEQEND
8
0
0
POLYLINE
8
0
62
5
66
1
10
0
20
0
30
0
70
8
0
VERTEX
8
0
62
5
10
0.2134435
20
1.0356801
30
0
70
32
0
VERTEX
8
0
62
5
10
0.2346567
20
1.0356801
30
0
70
32
0
SEQEND
8
0
0
POLYLINE
8
0
62
5
66
1
10
0
20
0
30
0
70
8
0
VERTEX
8
0
62
5
10
0.29829631
20
1.0356801
30
0
70
32
0
VERTEX
8
0
62
5
10
0.31950952
20
1.0356801
30
0
70
32
0
SEQEND
8
0
0
POLYLINE
8
0
62
5
66
1
10
0
20
0
30
0
70
8
0
VERTEX
8
0
62
5
10
0.2346567
20
1.0356801
30
0
70
32
0
VERTEX
8
0
62
5
10
0.25586991
20
1.0356801
30
0
70
32
0
SEQEND
8
0
0
POLYLINE
8
0
62
5
66
1
10
0
20
0
30
0
70
8
0
VERTEX
8
0
62
5
10
0.31950952
20
1.0356801
30
0
70
32
0
VERTEX
8
0
62
5
10
0.34072272
20
1.0356801
30
0
70
32
0
SEQEND
8
0
0
POLYLINE
8
0
62
5
66
1
10
0
20
0
30
0
70
8
0
VERTEX
8
0
62
5
10
0.25586991
20
1.0056801
30
0
70
32
0
VERTEX
8
0
62
5
10
0.25586991
20
1.0656801
30
0
70
32
0
SEQEND
8
0
0
POLYLINE
8
0
62
5
66
1
10
0
20
0
30
0
70
8
0
VERTEX
8
0
62
5
10
0.29829631
20
1.0056801
30
0
70
32
0
VERTEX
8
0
62
5
10
0.29829631
20
1.0656801
30
0
70
32
0
SEQEND
8
0
0
POLYLINE
8
0
62
5
66
1
10
0
20
0
30
0
70
8
0
VERTEX
8
0
62
5
10
0.34072272
20
1.0056801
30
0
70
32
0
VERTEX
8
0
62
5
10
0.34072272
20
1.0656801
30
0
70
32
0
SEQEND
8
0
0
POLYLINE
8
0
62
5
66
1
10
0
20
0
30
0
70
8
0
VERTEX
8
0
62
5
10
0.2134435
20
1.0056801
30
0
70
32
0
VERTEX
8
0
62
5
10
0.2134435
20
1.0656801
30
0
70
32
0
SEQEND
8
0
0
POLYLINE
8
0
62
5
66
1
10
0
20
0
30
0
70
8
0
VERTEX
8
0
62
5
10
-0.12596775
20
1.0056801
30
0
70
32
0
VERTEX
8
0
62
5
10
-0.12596775
20
1.0656801
30
0
70
32
0
SEQEND
8
0
0
POLYLINE
8
0
62
5
66
1
10
0
20
0
30
0
70
8
0
VERTEX
8
0
62
5
10
-0.12596775
20
1.0056801
30
0
70
32
0
VERTEX
8
0
62
5
10
0.043737873
20
1.0056801
30
0
70
32
0
SEQEND
8
0
0
POLYLINE
8
0
62
5
66
1
10
0
20
0
30
0
70
8
0
VERTEX
8
0
62
5
10
-0.12596775
20
1.0656801
30
0
70
32
0
VERTEX
8
0
62
5
10
0.043737873
20
1.0656801
30
0
70
32
0
SEQEND
8
0
0
POLYLINE
8
0
62
5
66
1
10
0
20
0
30
0
70
8
0
VERTEX
8
0
62
5
10
-0.083541348
20
1.0056801
30
0
70
32
0
VERTEX
8
0
62
5
10
-0.083541348
20
1.0056801
30
0
70
32
0
SEQEND
8
0
0
POLYLINE
8
0
62
5
66
1
10
0
20
0
30
0
70
8
0
VERTEX
8
0
62
5
10
-0.041114941
20
1.0056801
30
0
70
32
0
VERTEX
8
0
62
5
10
-0.041114941
20
1.0056801
30
0
70
32
0
SEQEND
8
0
0
POLYLINE
8
0
62
5
66
1
10
0
20
0
30
0
70
8
0
VERTEX
8
0
62
5
10
0.0013114656
20
1.0056801
30
0
70
32
0
VERTEX
8
0
62
5
10
0.0013114656
20
1.0056801
30
0
70
32
0
SEQEND
8
0
0
POLYLINE
8
0
62
5
66
1
10
0
20
0
30
0
70
8
0
VERTEX
8
0
62
5
10
-0.083541348
20
1.0656801
30
0
70
32
0
VERTEX
8
0
62
5
10
-0.083541348
20
1.0656801
30
0
70
32
0
SEQEND
8
0
0
POLYLINE
8
0
62
5
66
1
10
0
20
0
30
0
70
8
0
VERTEX
8
0
62
5
10
-0.041114941
20
1.0656801
30
0
70
32
0
VERTEX
8
0
62
5
10
-0.041114941
20
1.0656801
30
0
70
32
0
SEQEND
8
0
0
POLYLINE
8
0
62
5
66
1
10
0
20
0
30
0
70
8
0
VERTEX
8
0
62
5
10
0.0013114656
20
1.0656801
30
0
70
32
0
VERTEX
8
0
62
5
10
0.0013114656
20
1.0656801
30
0
70
32
0
SEQEND
8
0
0
POLYLINE
8
0
62
30
66
1
10
0
20
0
30
0
70
8
0
VERTEX
8
0
62
30
10
-0.12596775
20
1.0656801
30
0
70
32
0
VERTEX
8
0
62
30
10
-0.083541348
20
1.0056801
30
0
70
32
0
SEQEND
8
0
0
POLYLINE
8
0
62
30
66
1
10
0
20
0
30
0
70
8
0
VERTEX
8
0
62
30
10
-0.083541348
20
1.0656801
30
0
70
32
0
VERTEX
8
0
62
30
10
-0.12596775
20
1.0056801
30
0
70
32
0
SEQEND
8
0
0
POLYLINE
8
0
62
30
66
1
10
0
20
0
30
0
70
8
0
VERTEX
8
0
62
30
10
-0.041114941
20
1.0656801
30
0
70
32
0
VERTEX
8
0
62
30
10
0.0013114656
20
1.0056801
30
0
70
32
0
SEQEND
8
0
0
POLYLINE
8
0
62
30
66
1
10
0
20
0
30
0
70
8
0
VERTEX
8
0
62
30
10
0.0013114656
20
1.0656801
30
0
70
32
0
VERTEX
8
0
62
30
10
-0.041114941
20
1.0056801
30
0
70
32
0
SEQEND
8
0
0
POLYLINE
8
0
62
30
66
1
10
0
20
0
30
0
70
8
0
VERTEX
8
0
62
30
10
-0.083541348
20
1.0356801
30
0
70
32
0
VERTEX
8
0
62
30
10
-0.041114941
20
1.0356801
30
0
70
32
0
SEQEND
8
0
0
POLYLINE
8
0
62
30
66
1
10
0
20
0
30
0
70
8
0
VERTEX
8
0
62
30
10
0.0013114656
20
1.0356801
30
0
70
32
0
VERTEX
8
0
62
30
10
0.043737873
20
1.0356801
30
0
70
32
0
SEQEND
8
0
0
POLYLINE
8
0
62
5
66
1
10
0
20
0
30
0
70
8
0
VERTEX
8
0
62
5
10
-0.12596775
20
1.0356801
30
0
70
32
0
VERTEX
8
0
62
5
10
-0.10475455
20
1.0356801
30
0
70
32
0
SEQEND
8
0
0
POLYLINE
8
0
62
5
66
1
10
0
20
0
30
0
70
8
0
VERTEX
8
0
62
5
10
-0.041114941
20
1.0356801
30
0
70
32
0
VERTEX
8
0
62
5
10
-0.019901738
20
1.0356801
30
0
70
32
0
SEQEND
8
0
0
POLYLINE
8
0
62
5
66
1
10
0
20
0
30
0
70
8
0
VERTEX
8
0
62
5
10
-0.10475455
20
1.0356801
30
0
70
32
0
VERTEX
8
0
62
5
10
-0.083541348
20
1.0356801
30
0
70
32
0
SEQEND
8
0
0
POLYLINE
8
0
62
5
66
1
10
0
20
0
30
0
70
8
0
VERTEX
8
0
62
5
10
-0.019901738
20
1.0356801
30
0
70
32
0
VERTEX
8
0
62
5
10
0.0013114656
20
1.0356801
30
0
70
32
0
SEQEND
8
0
0
POLYLINE
8
0
62
5
66
1
10
0
20
0
30
0
70
8
0
VERTEX
8
0
62
5
10
-0.083541348
20
1.0056801
30
0
70
32
0
VERTEX
8
0
62
5
10
-0.083541348
20
1.0656801
30
0
70
32
0
SEQEND
8
0
0
POLYLINE
8
0
62
5
66
1
10
0
20
0
30
0
70
8
0
VERTEX
8
0
62
5
10
-0.041114941
20
1.0056801
30
0
70
32
0
VERTEX
8
0
62
5
10
-0.041114941
20
1.0656801
30
0
70
32
0
SEQEND
8
0
0
POLYLINE
8
0
62
5
66
1
10
0
20
0
30
0
70
8
0
VERTEX
8
0
62
5
10
0.0013114656
20
1.0056801
30
0
70
32
0
VERTEX
8
0
62
5
10
0.0013114656
20
1.0656801
30
0
70
32
0
SEQEND
8
0
0
POLYLINE
8
0
62
5
66
1
10
0
20
0
30
0
70
8
0
VERTEX
8
0
62
5
10
-0.12596775
20
1.0056801
30
0
70
32
0
VERTEX
8
0
62
5
10
-0.12596775
20
1.0656801
30
0
70
32
0
SEQEND
8
0
0
POLYLINE
8
0
62
5
66
1
10
0
20
0
30
0
70
8
0
VERTEX
8
0
62
5
10
0.043737873
20
1.0656801
30
0
70
32
0
VERTEX
8
0
62
5
10
0.043737873
20
1.1948953
30
0
70
32
0
SEQEND
8
0
0
POLYLINE
8
0
62
5
66
1
10
0
20
0
30
0
70
8
0
VERTEX
8
0
62
5
10
0.2134435
20
1.1948953
30
0
70
32
0
VERTEX
8
0
62
5
10
0.2134435
20
1.0656801
30
0
70
32
0
SEQEND
8
0
0
POLYLINE
8
0
62
5
66
1
10
0
20
0
30
0
70
8
0
VERTEX
8
0
62
5
10
0.043737873
20
1.0765345
30
0
70
32
0
VERTEX
8
0
62
5
10
0.086164279
20
1.0667295
30
0
70
32
0
VERTEX
8
0
62
5
10
0.12859069
20
1.0881789
30
0
70
32
0
VERTEX
8
0
62
5
10
0.17101709
20
1.0979839
30
0
70
32
0
VERTEX
8
0
62
5
10
0.2134435
20
1.0765345
30
0
70
32
0
SEQEND
8
0
0
POLYLINE
8
0
62
5
66
1
10
0
20
0
30
0
70
8
0
VERTEX
8
0
62
5
10
0.043737873
20
1.1411421
30
0
70
32
0
VERTEX
8
0
62
5
10
0.086164279
20
1.1313371
30
0
70
32
0
VERTEX
8
0
62
5
10
0.12859069
20
1.1527865
30
0
70
32
0
VERTEX
8
0
62
5
10
0.17101709
20
1.1625915
30
0
70
32
0
VERTEX
8
0
62
5
10
0.2134435
20
1.1411421
30
0
70
32
0
SEQEND
8
0
0
POLYLINE
8
0
62
5
66
1
10
0
20
0
30
0
70
8
0
VERTEX
8
0
62
5
10
0.043737873
20
1.1194333
30
0
70
32
0
VERTEX
8
0
62
5
10
0.086164279
20
1.1292383
30
0
70
32
0
VERTEX
8
0
62
5
10
0.12859069
20
1.1077889
30
0
70
32
0
VERTEX
8
0
62
5
10
0.17101709
20
1.0979839
30
0
70
32
0
VERTEX
8
0
62
5
10
0.2134435
20
1.1194333
30
0
70
32
0
SEQEND
8
0
0
POLYLINE
8
0
62
5
66
1
10
0
20
0
30
0
70
8
0
VERTEX
8
0
62
5
10
0.043737873
20
1.1840409
30
0
70
32
0
VERTEX
8
0
62
5
10
0.086164279
20
1.1938459
30
0
70
32
0
VERTEX
8
0
62
5
10
0.12859069
20
1.1723965
30
0
70
32
0
VERTEX
8
0
62
5
10
0.17101709
20
1.1625915
30
0
70
32
0
VERTEX
8
0
62
5
10
0.2134435
20
1.1840409
30
0
70
32
0
SEQEND
8
0
0
POLYLINE
8
0
62
30
66
1
10
0
20
0
30
0
70
8
0
VERTEX
8
0
62
30
10
0.043737873
20
1.1625915
30
0
70
32
0
VERTEX
8
0
62
30
10
0.2134435
20
1.1625915
30
0
70
32
0
SEQEND
8
0
0
POLYLINE
8
0
62
30
66
1
10
0
20
0
30
0
70
8
0
VERTEX
8
0
62
30
10
0.086164279
20
1.0667295
30
0
70
32
0
VERTEX
8
0
62
30
10
0.086164279
20
1.0979839
30
0
70
32
0
SEQEND
8
0
0
POLYLINE
8
0
62
30
66
1
10
0
20
0
30
0
70
8
0
VERTEX
8
0
62
30
10
0.12859069
20
1.0881789
30
0
70
32
0
VERTEX
8
0
62
30
10
0.12859069
20
1.0979839
30
0
70
32
0
SEQEND
8
0
0
POLYLINE
8
0
62
30
66
1
10
0
20
0
30
0
70
8
0
VERTEX
8
0
62
30
10
0.17101709
20
1.0979839
30
0
70
32
0
VERTEX
8
0
62
30
10
0.17101709
20
1.0979839
30
0
70
32
0
SEQEND
8
0
0
POLYLINE
8
0
62
30
66
1
10
0
20
0
30
0
70
8
0
VERTEX
8
0
62
30
10
0.086164279
20
1.1313371
30
0
70
32
0
VERTEX
8
0
62
30
10
0.086164279
20
1.1625915
30
0
70
32
0
SEQEND
8
0
0
POLYLINE
8
0
62
30
66
1
10
0
20
0
30
0
70
8
0
VERTEX
8
0
62
30
10
0.086164279
20
1.1625915
30
0
70
32
0
VERTEX
8
0
62
30
10
0.12859069
20
1.1527865
30
0
70
32
0
SEQEND
8
0
0
POLYLINE
8
0
62
30
66
1
10
0
20
0
30
0
70
8
0
VERTEX
8
0
62
30
10
0.12859069
20
1.1527865
30
0
70
32
0
VERTEX
8
0
62
30
10
0.12859069
20
1.1625915
30
0
70
32
0
SEQEND
8
0
0
POLYLINE
8
0
62
30
66
1
10
0
20
0
30
0
70
8
0
VERTEX
8
0
62
30
10
0.12859069
20
1.1625915
30
0
70
32
0
VERTEX
8
0
62
30
10
0.17101709
20
1.1625915
30
0
70
32
0
SEQEND
8
0
0
POLYLINE
8
0
62
30
66
1
10
0
20
0
30
0
70
8
0
VERTEX
8
0
62
30
10
0.17101709
20
1.1625915
30
0
70
32
0
VERTEX
8
0
62
30
10
0.17101709
20
1.1625915
30
0
70
32
0
SEQEND
8
0
0
POLYLINE
8
0
62
5
66
1
10
0
20
0
30
0
70
8
0
VERTEX
8
0
62
5
10
0.086164279
20
1.0656801
30
0
70
32
0
VERTEX
8
0
62
5
10
0.086164279
20
1.0667295
30
0
70
32
0
SEQEND
8
0
0
POLYLINE
8
0
62
5
66
1
10
0
20
0
30
0
70
8
0
VERTEX
8
0
62
5
10
0.12859069
20
1.0656801
30
0
70
32
0
VERTEX
8
0
62
5
10
0.12859069
20
1.0881789
30
0
70
32
0
SEQEND
8
0
0
POLYLINE
8
0
62
5
66
1
10
0
20
0
30
0
70
8
0
VERTEX
8
0
62
5
10
0.17101709
20
1.0656801
30
0
70
32
0
VERTEX
8
0
62
5
10
0.17101709
20
1.0979839
30
0
70
32
0
SEQEND
8
0
0
POLYLINE
8
0
62
5
66
1
10
0
20
0
30
0
70
8
0
VERTEX
8
0
62
5
10
0.086164279
20
1.1302877
30
0
70
32
0
VERTEX
8
0
62
5
10
0.086164279
20
1.1313371
30
0
70
32
0
SEQEND
8
0
0
POLYLINE
8
0
62
5
66
1
10
0
20
0
30
0
70
8
0
VERTEX
8
0
62
5
10
0.12859069
20
1.1302877
30
0
70
32
0
VERTEX
8
0
62
5
10
0.12859069
20
1.1527865
30
0
70
32
0
SEQEND
8
0
0
POLYLINE
8
0
62
5
66
1
10
0
20
0
30
0
70
8
0
VERTEX
8
0
62
5
10
0.17101709
20
1.1302877
30
0
70
32
0
VERTEX
8
0
62
5
10
0.17101709
20
1.1625915
30
0
70
32
0
SEQEND
8
0
0
POLYLINE
8
0
62
5
66
1
10
0
20
0
30
0
70
8
0
VERTEX
8
0
62
5
10
0.086164279
20
1.0979839
30
0
70
32
0
VERTEX
8
0
62
5
10
0.086164279
20
1.1302877
30
0
70
32
0
SEQEND
8
0
0
POLYLINE
8
0
62
5
66
1
10
0
20
0
30
0
70
8
0
VERTEX
8
0
62
5
10
0.12859069
20
1.0979839
30
0
70
32
0
VERTEX
8
0
62
5
10
0.12859069
20
1.1302877
30
0
70
32
0
SEQEND
8
0
0
POLYLINE
8
0
62
5
66
1
10
0
20
0
30
0
70
8
0
VERTEX
8
0
62
5
10
0.17101709
20
1.0979839
30
0
70
32
0
VERTEX
8
0
62
5
10
0.17101709
20
1.1302877
30
0
70
32
0
SEQEND
8
0
0
POLYLINE
8
0
62
5
66
1
10
0
20
0
30
0
70
8
0
VERTEX
8
0
62
5
10
0.086164279
20
1.1625915
30
0
70
32
0
VERTEX
8
0
62
5
10
0.086164279
20
1.1948953
30
0
70
32
0
SEQEND
8
0
0
POLYLINE
8
0
62
5
66
1
10
0
20
0
30
0
70
8
0
VERTEX
8
0
62
5
10
0.12859069
20
1.1625915
30
0
70
32
0
VERTEX
8
0
62
5
10
0.12859069
20
1.1948953
30
0
70
32
0
SEQEND
8
0
0
POLYLINE
8
0
62
5
66
1
10
0
20
0
30
0
70
8
0
VERTEX
8
0
62
5
10
0.17101709
20
1.1625915
30
0
70
32
0
VERTEX
8
0
62
5
10
0.17101709
20
1.1948953
30
0
70
32
0
SEQEND
8
0
0
POLYLINE
8
0
62
5
66
1
10
0
20
0
30
0
70
8
0
VERTEX
8
0
62
5
10
0.38314913
20
1.1948953
30
0
70
32
0
VERTEX
8
0
62
5
10
0.38314913
20
1.0656801
30
0
70
32
0
SEQEND
8
0
0
POLYLINE
8
0
62
5
66
1
10
0
20
0
30
0
70
8
0
VERTEX
8
0
62
5
10
0.2134435
20
1.0765345
30
0
70
32
0
VERTEX
8
0
62
5
10
0.25586991
20
1.0667295
30
0
70
32
0
VERTEX
8
0
62
5
10
0.29829631
20
1.0881789
30
0
70
32
0
VERTEX
8
0
62
5
10
0.34072272
20
1.0979839
30
0
70
32
0
VERTEX
8
0
62
5
10
0.38314913
20
1.0765345
30
0
70
32
0
SEQEND
8
0
0
POLYLINE
8
0
62
5
66
1
10
0
20
0
30
0
70
8
0
VERTEX
8
0
62
5
10
0.2134435
20
1.1411421
30
0
70
32
0
VERTEX
8
0
62
5
10
0.25586991
20
1.1313371
30
0
70
32
0
VERTEX
8
0
62
5
10
0.29829631
20
1.1527865
30
0
70
32
0
VERTEX
8
0
62
5
10
0.34072272
20
1.1625915
30
0
70
32
0
VERTEX
8
0
62
5
10
0.38314913
20
1.1411421
30
0
70
32
0
SEQEND
8
0
0
POLYLINE
8
0
62
5
66
1
10
0
20
0
30
0
70
8
0
VERTEX
8
0
62
5
10
0.2134435
20
1.1194333
30
0
70
32
0
VERTEX
8
0
62
5
10
0.25586991
20
1.1292383
30
0
70
32
0
VERTEX
8
0
62
5
10
0.29829631
20
1.1077889
30
0
70
32
0
VERTEX
8
0
62
5
10
0.34072272
20
1.0979839
30
0
70
32
0
VERTEX
8
0
62
5
10
0.38314913
20
1.1194333
30
0
70
32
0
SEQEND
8
0
0
POLYLINE
8
0
62
5
66
1
10
0
20
0
30
0
70
8
0
VERTEX
8
0
62
5
10
0.2134435
20
1.1840409
30
0
70
32
0
VERTEX
8
0
62
5
10
0.25586991
20
1.1938459
30
0
70
32
0
VERTEX
8
0
62
5
10
0.29829631
20
1.1723965
30
0
70
32
0
VERTEX
8
0
62
5
10
0.34072272
20
1.1625915
30
0
70
32
0
VERTEX
8
0
62
5
10
0.38314913
20
1.1840409
30
0
70
32
0
SEQEND
8
0
0
POLYLINE
8
0
62
30
66
1
10
0
20
0
30
0
70
8
0
VERTEX
8
0
62
30
10
0.2134435
20
1.1625915
30
0
70
32
0
VERTEX
8
0
62
30
10
0.38314913
20
1.1625915
30
0
70
32
0
SEQEND
8
0
0
POLYLINE
8
0
62
30
66
1
10
0
20
0
30
0
70
8
0
VERTEX
8
0
62
30
10
0.25586991
20
1.0667295
30
0
70
32
0
VERTEX
8
0
62
30
10
0.25586991
20
1.0979839
30
0
70
32
0
SEQEND
8
0
0
POLYLINE
8
0
62
30
66
1
10
0
20
0
30
0
70
8
0
VERTEX
8
0
62
30
10
0.29829631
20
1.0881789
30
0
70
32
0
VERTEX
8
0
62
30
10
0.29829631
20
1.0979839
30
0
70
32
0
SEQEND
8
0
0
POLYLINE
8
0
62
30
66
1
10
0
20
0
30
0
70
8
0
VERTEX
8
0
62
30
10
0.34072272
20
1.0979839
30
0
70
32
0
VERTEX
8
0
62
30
10
0.34072272
20
1.0979839
30
0
70
32
0
SEQEND
8
0
0
POLYLINE
8
0
62
30
66
1
10
0
20
0
30
0
70
8
0
VERTEX
8
0
62
30
10
0.25586991
20
1.1313371
30
0
70
32
0
VERTEX
8
0
62
30
10
0.25586991
20
1.1625915
30
0
70
32
0
SEQEND
8
0
0
POLYLINE
8
0
62
30
66
1
10
0
20
0
30
0
70
8
0
VERTEX
8
0
62
30
10
0.25586991
20
1.1625915
30
0
70
32
0
VERTEX
8
0
62
30
10
0.29829631
20
1.1527865
30
0
70
32
0
SEQEND
8
0
0
POLYLINE
8
0
62
30
66
1
10
0
20
0
30
0
70
8
0
VERTEX
8
0
62
30
10
0.29829631
20
1.1527865
30
0
70
32
0
VERTEX
8
0
62
30
10
0.29829631
20
1.1625915
30
0
70
32
0
SEQEND
8
0
0
POLYLINE
8
0
62
30
66
1
10
0
20
0
30
0
70
8
0
VERTEX
8
0
62
30
10
0.29829631
20
1.1625915
30
0
70
32
0
VERTEX
8
0
62
30
10
0.34072272
20
1.1625915
30
0
70
32
0
SEQEND
8
0
0
POLYLINE
8
0
62
30
66
1
10
0
20
0
30
0
70
8
0
VERTEX
8
0
62
30
10
0.34072272
20
1.1625915
30
0
70
32
0
VERTEX
8
0
62
30
10
0.34072272
20
1.1625915
30
0
70
32
0
SEQEND
8
0
0
POLYLINE
8
0
62
5
66
1
10
0
20
0
30
0
70
8
0
VERTEX
8
0
62
5
10
0.25586991
20
1.0656801
30
0
70
32
0
VERTEX
8
0
62
5
10
0.25586991
20
1.0667295
30
0
70
32
0
SEQEND
8
0
0
POLYLINE
8
0
62
5
66
1
10
0
20
0
30
0
70
8
0
VERTEX
8
0
62
5
10
0.29829631
20
1.0656801
30
0
70
32
0
VERTEX
8
0
62
5
10
0.29829631
20
1.0881789
30
0
70
32
0
SEQEND
8
0
0
POLYLINE
8
0
62
5
66
1
10
0
20
0
30
0
70
8
0
VERTEX
8
0
62
5
10
0.34072272
20
1.0656801
30
0
70
32
0
VERTEX
8
0
62
5
10
0.34072272
20
1.0979839
30
0
70
32
0
SEQEND
8
0
0
POLYLINE
8
0
62
5
66
1
10
0
20
0
30
0
70
8
0
VERTEX
8
0
62
5
10
0.25586991
20
1.1302877
30
0
70
32
0
VERTEX
8
0
62
5
10
0.25586991
20
1.1313371
30
0
70
32
0
SEQEND
8
0
0
POLYLINE
8
0
62
5
66
1
10
0
20
0
30
0
70
8
0
VERTEX
8
0
62
5
10
0.29829631
20
1.1302877
30
0
70
32
0
VERTEX
8
0
62
5
10
0.29829631
20
1.1527865
30
0
70
32
0
SEQEND
8
0
0
POLYLINE
8
0
62
5
66
1
10
0
20
0
30
0
70
8
0
VERTEX
8
0
62
5
10
0.34072272
20
1.1302877
30
0
70
32
0
VERTEX
8
0
62
5
10
0.34072272
20
1.1625915
30
0
70
32
0
SEQEND
8
0
0
POLYLINE
8
0
62
5
66
1
10
0
20
0
30
0
70
8
0
VERTEX
8
0
62
5
10
0.25586991
20
1.0979839
30
0
70
32
0
VERTEX
8
0
62
5
10
0.25586991
20
1.1302877
30
0
70
32
0
SEQEND
8
0
0
POLYLINE
8
0
62
5
66
1
10
0
20
0
30
0
70
8
0
VERTEX
8
0
62
5
10
0.29829631
20
1.0979839
30
0
70
32
0
VERTEX
8
0
62
5
10
0.29829631
20
1.1302877
30
0
70
32
0
SEQEND
8
0
0
POLYLINE
8
0
62
5
66
1
10
0
20
0
30
0
70
8
0
VERTEX
8
0
62
5
10
0.34072272
20
1.0979839
30
0
70
32
0
VERTEX
8
0
62
5
10
0.34072272
20
1.1302877
30
0
70
32
0
SEQEND
8
0
0
POLYLINE
8
0
62
5
66
1
10
0
20
0
30
0
70
8
0
VERTEX
8
0
62
5
10
0.25586991
20
1.1625915
30
0
70
32
0
VERTEX
8
0
62
5
10
0.25586991
20
1.1948953
30
0
70
32
0
SEQEND
8
0
0
POLYLINE
8
0
62
5
66
1
10
0
20
0
30
0
70
8
0
VERTEX
8
0
62
5
10
0.29829631
20
1.1625915
30
0
70
32
0
VERTEX
8
0
62
5
10
0.29829631
20
1.1948953
30
0
70
32
0
SEQEND
8
0
0
POLYLINE
8
0
62
5
66
1
10
0
20
0
30
0
70
8
0
VERTEX
8
0
62
5
10
0.34072272
20
1.1625915
30
0
70
32
0
VERTEX
8
0
62
5
10
0.34072272
20
1.1948953
30
0
70
32
0
SEQEND
8
0
0
POLYLINE
8
0
62
5
66
1
10
0
20
0
30
0
70
8
0
VERTEX
8
0
62
5
10
-0.12596775
20
1.0656801
30
0
70
32
0
VERTEX
8
0
62
5
10
-0.12596775
20
1.1948953
30
0
70
32
0
SEQEND
8
0
0
POLYLINE
8
0
62
5
66
1
10
0
20
0
30
0
70
8
0
VERTEX
8
0
62
5
10
-0.12596775
20
1.0765345
30
0
70
32
0
VERTEX
8
0
62
5
10
-0.083541348
20
1.0667295
30
0
70
32
0
VERTEX
8
0
62
5
10
-0.041114941
20
1.0881789
30
0
70
32
0
VERTEX
8
0
62
5
10
0.0013114656
20
1.0979839
30
0
70
32
0
VERTEX
8
0
62
5
10
0.043737873
20
1.0765345
30
0
70
32
0
SEQEND
8
0
0
POLYLINE
8
0
62
5
66
1
10
0
20
0
30
0
70
8
0
VERTEX
8
0
62
5
10
-0.12596775
20
1.1411421
30
0
70
32
0
VERTEX
8
0
62
5
10
-0.083541348
20
1.1313371
30
0
70
32
0
VERTEX
8
0
62
5
10
-0.041114941
20
1.1527865
30
0
70
32
0
VERTEX
8
0
62
5
10
0.0013114656
20
1.1625915
30
0
70
32
0
VERTEX
8
0
62
5
10
0.043737873
20
1.1411421
30
0
70
32
0
SEQEND
8
0
0
POLYLINE
8
0
62
5
66
1
10
0
20
0
30
0
70
8
0
VERTEX
8
0
62
5
10
-0.12596775
20
1.1194333
30
0
70
32
0
VERTEX
8
0
62
5
10
-0.083541348
20
1.1292383
30
0
70
32
0
VERTEX
8
0
62
5
10
-0.041114941
20
1.1077889
30
0
70
32
0
VERTEX
8
0
62
5
10
0.0013114656
20
1.0979839
30
0
70
32
0
VERTEX
8
0
62
5
10
0.043737873
20
1.1194333
30
0
70
32
0
SEQEND
8
0
0
POLYLINE
8
0
62
5
66
1
10
0
20
0
30
0
70
8
0
VERTEX
8
0
62
5
10
-0.12596775
20
1.1840409
30
0
70
32
0
VERTEX
8
0
62
5
10
-0.083541348
20
1.1938459
30
0
70
32
0
VERTEX
8
0
62
5
10
-0.041114941
20
1.1723965
30
0
70
32
0
VERTEX
8
0
62
5
10
0.0013114656
20
1.1625915
30
0
70
32
0
VERTEX
8
0
62
5
10
0.043737873
20
1.1840409
30
0
70
32
0
SEQEND
8
0
0
POLYLINE
8
0
62
30
66
1
10
0
20
0
30
0
70
8
0
VERTEX
8
0
62
30
10
-0.12596775
20
1.1625915
30
0
70
32
0
VERTEX
8
0
62
30
10
0.043737873
20
1.1625915
30
0
70
32
0
SEQEND
8
0
0
POLYLINE
8
0
62
30
66
1
10
0
20
0
30
0
70
8
0
VERTEX
8
0
62
30
10
-0.083541348
20
1.0667295
30
0
70
32
0
VERTEX
8
0
62
30
10
-0.083541348
20
1.0979839
30
0
70
32
0
SEQEND
8
0
0
POLYLINE
8
0
62
30
66
1
10
0
20
0
30
0
70
8
0
VERTEX
8
0
62
30
10
-0.041114941
20
1.0881789
30
0
70
32
0
VERTEX
8
0
62
30
10
-0.041114941
20
1.0979839
30
0
70
32
0
SEQEND
8
0
0
POLYLINE
8
0
62
30
66
1
10
0
20
0
30
0
70
8
0
VERTEX
8
0
62
30
10
0.0013114656
20
1.0979839
30
0
70
32
0
VERTEX
8
0
62
30
10
0.0013114656
20
1.0979839
30
0
70
32
0
SEQEND
8
0
0
POLYLINE
8
0
62
30
66
1
10
0
20
0
30
0
70
8
0
VERTEX
8
0
62
30
10
-0.083541348
20
1.1313371
30
0
70
32
0
VERTEX
8
0
62
30
10
-0.083541348
20
1.1625915
30
0
70
32
0
SEQEND
8
0
0
POLYLINE
8
0
62
30
66
1
10
0
20
0
30
0
70
8
0
VERTEX
8
0
62
30
10
-0.083541348
20
1.1625915
30
0
70
32
0
VERTEX
8
0
62
30
10
-0.041114941
20
1.1527865
30
0
70
32
0
SEQEND
8
0
0
POLYLINE
8
0
62
30
66
1
10
0
20
0
30
0
70
8
0
VERTEX
8
0
62
30
10
-0.041114941
20
1.1527865
30
0
70
32
0
VERTEX
8
0
62
30
10
-0.041114941
20
1.1625915
30
0
70
32
0
SEQEND
8
0
0
POLYLINE
8
0
62
30
66
1
10
0
20
0
30
0
70
8
0
VERTEX
8
0
62
30
10
-0.041114941
20
1.1625915
30
0
70
32
0
VERTEX
8
0
62
30
10
0.0013114656
20
1.1625915
30
0
70
32
0
SEQEND
8
0
0
POLYLINE
8
0
62
30
66
1
10
0
20
0
30
0
70
8
0
VERTEX
8
0
62
30
10
0.0013114656
20
1.1625915
30
0
70
32
0
VERTEX
8
0
62
30
10
0.0013114656
20
1.1625915
30
0
70
32
0
SEQEND
8
0
0
POLYLINE
8
0
62
5
66
1
10
0
20
0
30
0
70
8
0
VERTEX
8
0
62
5
10
-0.083541348
20
1.0656801
30
0
70
32
0
VERTEX
8
0
62
5
10
-0.083541348
20
1.0667295
30
0
70
32
0
SEQEND
8
0
0
POLYLINE
8
0
62
5
66
1
10
0
20
0
30
0
70
8
0
VERTEX
8
0
62
5
10
-0.041114941
20
1.0656801
30
0
70
32
0
VERTEX
8
0
62
5
10
-0.041114941
20
1.0881789
30
0
70
32
0
SEQEND
8
0
0
POLYLINE
8
0
62
5
66
1
10
0
20
0
30
0
70
8
0
VERTEX
8
0
62
5
10
0.0013114656
20
1.0656801
30
0
70
32
0
VERTEX
8
0
62
5
10
0.0013114656
20
1.0979839
30
0
70
32
0
SEQEND
8
0
0
POLYLINE
8
0
62
5
66
1
10
0
20
0
30
0
70
8
0
VERTEX
8
0
62
5
10
-0.083541348
20
1.1302877
30
0
70
32
0
VERTEX
8
0
62
5
10
-0.083541348
20
1.1313371
30
0
70
32
0
SEQEND
8
0
0
POLYLINE
8
0
62
5
66
1
10
0
20
0
30
0
70
8
0
VERTEX
8
0
62
5
10
-0.041114941
20
1.1302877
30
0
70
32
0
VERTEX
8
0
62
5
10
-0.041114941
20
1.1527865
30
0
70
32
0
SEQEND
8
0
0
POLYLINE
8
0
62
5
66
1
10
0
20
0
30
0
70
8
0
VERTEX
8
0
62
5
10
0.0013114656
20
1.1302877
30
0
70
32
0
VERTEX
8
0
62
5
10
0.0013114656
20
1.1625915
30
0
70
32
0
SEQEND
8
0
0
POLYLINE
8
0
62
5
66
1
10
0
20
0
30
0
70
8
0
VERTEX
8
0
62
5
10
-0.083541348
20
1.0979839
30
0
70
32
0
VERTEX
8
0
62
5
10
-0.083541348
20
1.1302877
30
0
70
32
0
SEQEND
8
0
0
POLYLINE
8
0
62
5
66
1
10
0
20
0
30
0
70
8
0
VERTEX
8
0
62
5
10
-0.041114941
20
1.0979839
30
0
70
32
0
VERTEX
8
0
62
5
10
-0.041114941
20
1.1302877
30
0
70
32
0
SEQEND
8
0
0
POLYLINE
8
0
62
5
66
1
10
0
20
0
30
0
70
8
0
VERTEX
8
0
62
5
10
0.0013114656
20
1.0979839
30
0
70
32
0
VERTEX
8
0
62
5
10
0.0013114656
20
1.1302877
30
0
70
32
0
SEQEND
8
0
0
POLYLINE
8
0
62
5
66
1
10
0
20
0
30
0
70
8
0
VERTEX
8
0
62
5
10
-0.083541348
20
1.1625915
30
0
70
32
0
VERTEX
8
0
62
5
10
-0.083541348
20
1.1948953
30
0
70
32
0
SEQEND
8
0
0
POLYLINE
8
0
62
5
66
1
10
0
20
0
30
0
70
8
0
VERTEX
8
0
62
5
10
-0.041114941
20
1.1625915
30
0
70
32
0
VERTEX
8
0
62
5
10
-0.041114941
20
1.1948953
30
0
70
32
0
SEQEND
8
0
0
POLYLINE
8
0
62
5
66
1
10
0
20
0
30
0
70
8
0
VERTEX
8
0
62
5
10
0.0013114656
20
1.1625915
30
0
70
32
0
VERTEX
8
0
62
5
10
0.0013114656
20
1.1948953
30
0
70
32
0
SEQEND
8
0
0
POLYLINE
8
0
62
30
66
1
10
0
20
0
30
0
70
8
0
VERTEX
8
0
62
30
10
0.043737873
20
1.2127648
30
0
70
32
0
VERTEX
8
0
62
30
10
0.2134435
20
1.2127648
30
0
70
32
0
SEQEND
8
0
0
POLYLINE
8
0
62
30
66
1
10
0
20
0
30
0
70
8
0
VERTEX
8
0
62
30
10
0.043737873
20
1.1948953
30
0
70
32
0
VERTEX
8
0
62
30
10
0.2134435
20
1.1948953
30
0
70
32
0
SEQEND
8
0
0
POLYLINE
8
0
62
5
66
1
10
0
20
0
30
0
70
8
0
VERTEX
8
0
62
5
10
0.043737873
20
1.1948953
30
0
70
32
0
VERTEX
8
0
62
5
10
0.0466928
20
1.2127648
30
0
70
32
0
VERTEX
8
0
62
5
10
0.086164279
20
1.1948953
30
0
70
32
0
VERTEX
8
0
62
5
10
0.089119207
20
1.2127648
30
0
70
32
0
VERTEX
8
0
62
5
10
0.12859069
20
1.1948953
30
0
70
32
0
VERTEX
8
0
62
5
10
0.13154561
20
1.2127648
30
0
70
32
0
VERTEX
8
0
62
5
10
0.17101709
20
1.1948953
30
0
70
32
0
VERTEX
8
0
62
5
10
0.17397202
20
1.2127648
30
0
70
32
0
VERTEX
8
0
62
5
10
0.2134435
20
1.1948953
30
0
70
32
0
SEQEND
8
0
0
POLYLINE
8
0
62
5
66
1
10
0
20
0
30
0
70
8
0
VERTEX
8
0
62
5
10
0.086164279
20
1.1948953
30
0
70
32
0
VERTEX
8
0
62
5
10
0.086164279
20
1.1948953
30
0
70
32
0
SEQEND
8
0
0
POLYLINE
8
0
62
5
66
1
10
0
20
0
30
0
70
8
0
VERTEX
8
0
62
5
10
0.12859069
20
1.1948953
30
0
70
32
0
VERTEX
8
0
62
5
10
0.12859069
20
1.1948953
30
0
70
32
0
SEQEND
8
0
0
POLYLINE
8
0
62
5
66
1
10
0
20
0
30
0
70
8
0
VERTEX
8
0
62
5
10
0.17101709
20
1.1948953
30
0
70
32
0
VERTEX
8
0
62
5
10
0.17101709
20
1.1948953
30
0
70
32
0
SEQEND
8
0
0
POLYLINE
8
0
62
5
66
1
10
0
20
0
30
0
70
8
0
VERTEX
8
0
62
5
10
0.0466928
20
1.2127648
30
0
70
32
0
VERTEX
8
0
62
5
10
0.0466928
20
1.2127648
30
0
70
32
0
SEQEND
8
0
0
POLYLINE
8
0
62
5
66
1
10
0
20
0
30
0
70
8
0
VERTEX
8
0
62
5
10
0.089119207
20
1.2127648
30
0
70
32
0
VERTEX
8
0
62
5
10
0.089119207
20
1.2127648
30
0
70
32
0
SEQEND
8
0
0
POLYLINE
8
0
62
5
66
1
10
0
20
0
30
0
70
8
0
VERTEX
8
0
62
5
10
0.13154561
20
1.2127648
30
0
70
32
0
VERTEX
8
0
62
5
10
0.13154561
20
1.2127648
30
0
70
32
0
SEQEND
8
0
0
POLYLINE
8
0
62
5
66
1
10
0
20
0
30
0
70
8
0
VERTEX
8
0
62
5
10
0.17397202
20
1.2127648
30
0
70
32
0
VERTEX
8
0
62
5
10
0.17397202
20
1.2127648
30
0
70
32
0
SEQEND
8
0
0
POLYLINE
8
0
62
30
66
1
10
0
20
0
30
0
70
8
0
VERTEX
8
0
62
30
10
0.2134435
20
1.2127648
30
0
70
32
0
VERTEX
8
0
62
30
10
0.38314913
20
1.2127648
30
0
70
32
0
SEQEND
8
0
0
POLYLINE
8
0
62
30
66
1
10
0
20
0
30
0
70
8
0
VERTEX
8
0
62
30
10
0.2134435
20
1.1948953
30
0
70
32
0
VERTEX
8
0
62
30
10
0.38314913
20
1.1948953
30
0
70
32
0
SEQEND
8
0
0
POLYLINE
8
0
62
5
66
1
10
0
20
0
30
0
70
8
0
VERTEX
8
0
62
5
10
0.2134435
20
1.1948953
30
0
70
32
0
VERTEX
8
0
62
5
10
0.21639843
20
1.2127648
30
0
70
32
0
VERTEX
8
0
62
5
10
0.25586991
20
1.1948953
30
0
70
32
0
VERTEX
8
0
62
5
10
0.25882483
20
1.2127648
30
0
70
32
0
VERTEX
8
0
62
5
10
0.29829631
20
1.1948953
30
0
70
32
0
VERTEX
8
0
62
5
10
0.30125124
20
1.2127648
30
0
70
32
0
VERTEX
8
0
62
5
10
0.34072272
20
1.1948953
30
0
70
32
0
VERTEX
8
0
62
5
10
0.34367765
20
1.2127648
30
0
70
32
0
VERTEX
8
0
62
5
10
0.38314913
20
1.1948953
30
0
70
32
0
SEQEND
8
0
0
POLYLINE
8
0
62
5
66
1
10
0
20
0
30
0
70
8
0
VERTEX
8
0
62
5
10
0.25586991
20
1.1948953
30
0
70
32
0
VERTEX
8
0
62
5
10
0.25586991
20
1.1948953
30
0
70
32
0
SEQEND
8
0
0
POLYLINE
8
0
62
5
66
1
10
0
20
0
30
0
70
8
0
VERTEX
8
0
62
5
10
0.29829631
20
1.1948953
30
0
70
32
0
VERTEX
8
0
62
5
10
0.29829631
20
1.1948953
30
0
70
32
0
SEQEND
8
0
0
POLYLINE
8
0
62
5
66
1
10
0
20
0
30
0
70
8
0
VERTEX
8
0
62
5
10
0.34072272
20
1.1948953
30
0
70
32
0
VERTEX
8
0
62
5
10
0.34072272
20
1.1948953
30
0
70
32
0
SEQEND
8
0
0
POLYLINE
8
0
62
5
66
1
10
0
20
0
30
0
70
8
0
VERTEX
8
0
62
5
10
0.21639843
20
1.2127648
30
0
70
32
0
VERTEX
8
0
62
5
10
0.21639843
20
1.2127648
30
0
70
32
0
SEQEND
8
0
0
POLYLINE
8
0
62
5
66
1
10
0
20
0
30
0
70
8
0
VERTEX
8
0
62
5
10
0.25882483
20
1.2127648
30
0
70
32
0
VERTEX
8
0
62
5
10
0.25882483
20
1.2127648
30
0
70
32
0
SEQEND
8
0
0
POLYLINE
8
0
62
5
66
1
10
0
20
0
30
0
70
8
0
VERTEX
8
0
62
5
10
0.30125124
20
1.2127648
30
0
70
32
0
VERTEX
8
0
62
5
10
0.30125124
20
1.2127648
30
0
70
32
0
SEQEND
8
0
0
POLYLINE
8
0
62
5
66
1
10
0
20
0
30
0
70
8
0
VERTEX
8
0
62
5
10
0.34367765
20
1.2127648
30
0
70
32
0
VERTEX
8
0
62
5
10
0.34367765
20
1.2127648
30
0
70
32
0
SEQEND
8
0
0
POLYLINE
8
0
62
30
66
1
10
0
20
0
30
0
70
8
0
VERTEX
8
0
62
30
10
-0.12596775
20
1.2127648
30
0
70
32
0
VERTEX
8
0
62
30
10
0.043737873
20
1.2127648
30
0
70
32
0
SEQEND
8
0
0
POLYLINE
8
0
62
30
66
1
10
0
20
0
30
0
70
8
0
VERTEX
8
0
62
30
10
-0.12596775
20
1.1948953
30
0
70
32
0
VERTEX
8
0
62
30
10
0.043737873
20
1.1948953
30
0
70
32
0
SEQEND
8
0
0
POLYLINE
8
0
62
5
66
1
10
0
20
0
30
0
70
8
0
VERTEX
8
0
62
5
10
-0.12596775
20
1.1948953
30
0
70
32
0
VERTEX
8
0
62
5
10
-0.12301283
20
1.2127648
30
0
70
32
0
VERTEX
8
0
62
5
10
-0.083541348
20
1.1948953
30
0
70
32
0
VERTEX
8
0
62
5
10
-0.080586421
20
1.2127648
30
0
70
32
0
VERTEX
8
0
62
5
10
-0.041114941
20
1.1948953
30
0
70
32
0
VERTEX
8
0
62
5
10
-0.038160014
20
1.2127648
30
0
70
32
0
VERTEX
8
0
62
5
10
0.0013114656
20
1.1948953
30
0
70
32
0
VERTEX
8
0
62
5
10
0.0042663931
20
1.2127648
30
0
70
32
0
VERTEX
8
0
62
5
10
0.043737873
20
1.1948953
30
0
70
32
0
SEQEND
8
0
0
POLYLINE
8
0
62
5
66
1
10
0
20
0
30
0
70
8
0
VERTEX
8
0
62
5
10
-0.083541348
20
1.1948953
30
0
70
32
0
VERTEX
8
0
62
5
10
-0.083541348
20
1.1948953
30
0
70
32
0
SEQEND
8
0
0
POLYLINE
8
0
62
5
66
1
10
0
20
0
30
0
70
8
0
VERTEX
8
0
62
5
10
-0.041114941
20
1.1948953
30
0
70
32
0
VERTEX
8
0
62
5
10
-0.041114941
20
1.1948953
30
0
70
32
0
SEQEND
8
0
0
POLYLINE
8
0
62
5
66
1
10
0
20
0
30
0
70
8
0
VERTEX
8
0
62
5
10
0.0013114656
20
1.1948953
30
0
70
32
0
VERTEX
8
0
62
5
10
0.0013114656
20
1.1948953
30
0
70
32
0
SEQEND
8
0
0
POLYLINE
8
0
62
5
66
1
10
0
20
0
30
0
70
8
0
VERTEX
8
0
62
5
10
-0.12301283
20
1.2127648
30
0
70
32
0
VERTEX
8
0
62
5
10
-0.12301283
20
1.2127648
30
0
70
32
0
SEQEND
8
0
0
POLYLINE
8
0
62
5
66
1
10
0
20
0
30
0
70
8
0
VERTEX
8
0
62
5
10
-0.080586421
20
1.2127648
30
0
70
32
0
VERTEX
8
0
62
5
10
-0.080586421
20
1.2127648
30
0
70
32
0
SEQEND
8
0
0
POLYLINE
8
0
62
5
66
1
10
0
20
0
30
0
70
8
0
VERTEX
8
0
62
5
10
-0.038160014
20
1.2127648
30
0
70
32
0
VERTEX
8
0
62
5
10
-0.038160014
20
1.2127648
30
0
70
32
0
SEQEND
8
0
0
POLYLINE
8
0
62
5
66
1
10
0
20
0
30
0
70
8
0
VERTEX
8
0
62
5
10
0.0042663931
20
1.2127648
30
0
70
32
0
VERTEX
8
0
62
5
10
0.0042663931
20
1.2127648
30
0
70
32
0
SEQEND
8
0
0
POLYLINE
8
0
62
5
66
1
10
0
20
0
30
0
70
8
0
VERTEX
8
0
62
5
10
0.0042663931
20
1.2127648
30
0
70
32
0
VERTEX
8
0
62
5
10
0.0042663931
20
1.2834875
30
0
70
32
0
SEQEND
8
0
0
POLYLINE
8
0
62
5
66
1
10
0
20
0
30
0
70
8
0
VERTEX
8
0
62
5
10
0.17397202
20
1.2127648
30
0
70
32
0
VERTEX
8
0
62
5
10
0.17397202
20
1.2834875
30
0
70
32
0
SEQEND
8
0
0
POLYLINE
8
0
62
5
66
1
10
0
20
0
30
0
70
8
0
VERTEX
8
0
62
5
10
0.0466928
20
1.2127648
30
0
70
32
0
VERTEX
8
0
62
5
10
0.0466928
20
1.2834875
30
0
70
32
0
SEQEND
8
0
0
POLYLINE
8
0
62
5
66
1
10
0
20
0
30
0
70
8
0
VERTEX
8
0
62
5
10
0.089119207
20
1.2127648
30
0
70
32
0
VERTEX
8
0
62
5
10
0.089119207
20
1.2834875
30
0
70
32
0
SEQEND
8
0
0
POLYLINE
8
0
62
5
66
1
10
0
20
0
30
0
70
8
0
VERTEX
8
0
62
5
10
0.13154561
20
1.2127648
30
0
70
32
0
VERTEX
8
0
62
5
10
0.13154561
20
1.2834875
30
0
70
32
0
SEQEND
8
0
0
POLYLINE
8
0
62
5
66
1
10
0
20
0
30
0
70
8
0
VERTEX
8
0
62
5
10
0.34367765
20
1.2127648
30
0
70
32
0
VERTEX
8
0
62
5
10
0.34367765
20
1.2834875
30
0
70
32
0
SEQEND
8
0
0
POLYLINE
8
0
62
5
66
1
10
0
20
0
30
0
70
8
0
VERTEX
8
0
62
5
10
0.21639843
20
1.2127648
30
0
70
32
0
VERTEX
8
0
62
5
10
0.21639843
20
1.2834875
30
0
70
32
0
SEQEND
8
0
0
POLYLINE
8
0
62
5
66
1
10
0
20
0
30
0
70
8
0
VERTEX
8
0
62
5
10
0.25882483
20
1.2127648
30
0
70
32
0
VERTEX
8
0
62
5
10
0.25882483
20
1.2834875
30
0
70
32
0
SEQEND
8
0
0
POLYLINE
8
0
62
5
66
1
10
0
20
0
30
0
70
8
0
VERTEX
8
0
62
5
10
0.30125124
20
1.2127648
30
0
70
32
0
VERTEX
8
0
62
5
10
0.30125124
20
1.2834875
30
0
70
32
0
SEQEND
8
0
0
POLYLINE
8
0
62
5
66
1
10
0
20
0
30
0
70
8
0
VERTEX
8
0
62
5
10
-0.16543923
20
1.2127648
30
0
70
32
0
VERTEX
8
0
62
5
10
-0.16543923
20
1.2834875
30
0
70
32
0
SEQEND
8
0
0
POLYLINE
8
0
62
5
66
1
10
0
20
0
30
0
70
8
0
VERTEX
8
0
62
5
10
-0.12301283
20
1.2127648
30
0
70
32
0
VERTEX
8
0
62
5
10
-0.12301283
20
1.2834875
30
0
70
32
0
SEQEND
8
0
0
POLYLINE
8
0
62
5
66
1
10
0
20
0
30
0
70
8
0
VERTEX
8
0
62
5
10
-0.080586421
20
1.2127648
30
0
70
32
0
VERTEX
8
0
62
5
10
-0.080586421
20
1.2834875
30
0
70
32
0
SEQEND
8
0
0
POLYLINE
8
0
62
5
66
1
10
0
20
0
30
0
70
8
0
VERTEX
8
0
62
5
10
-0.038160014
20
1.2127648
30
0
70
32
0
VERTEX
8
0
62
5
10
-0.038160014
20
1.2834875
30
0
70
32
0
SEQEND
8
0
0
POLYLINE
8
0
62
5
66
1
10
0
20
0
30
0
70
8
0
VERTEX
8
0
62
5
10
0.0042663931
20
1.2834875
30
0
70
32
0
VERTEX
8
0
62
5
10
0.0042663931
20
1.3629291
30
0
70
32
0
SEQEND
8
0
0
POLYLINE
8
0
62
5
66
1
10
0
20
0
30
0
70
8
0
VERTEX
8
0
62
5
10
0.17397202
20
1.3629291
30
0
70
32
0
VERTEX
8
0
62
5
10
0.17397202
20
1.2834875
30
0
70
32
0
SEQEND
8
0
0
POLYLINE
8
0
62
5
66
1
10
0
20
0
30
0
70
8
0
VERTEX
8
0
62
5
10
0.0042663931
20
1.3095265
30
0
70
32
0
VERTEX
8
0
62
5
10
0.0466928
20
1.3232083
30
0
70
32
0
VERTEX
8
0
62
5
10
0.089119207
20
1.2980048
30
0
70
32
0
VERTEX
8
0
62
5
10
0.13154561
20
1.284323
30
0
70
32
0
VERTEX
8
0
62
5
10
0.17397202
20
1.3095265
30
0
70
32
0
SEQEND
8
0
0
POLYLINE
8
0
62
5
66
1
10
0
20
0
30
0
70
8
0
SEQEND
8
0
0
POLYLINE
8
0
62
5
66
1
10
0
20
0
30
0
70
8
0
VERTEX
8
0
62
5
10
0.0042663931
20
1.3368901
30
0
70
32
0
VERTEX
8
0
62
5
10
0.0466928
20
1.3232083
30
0
70
32
0
VERTEX
8
0
62
5
10
0.089119207
20
1.3484118
30
0
70
32
0
VERTEX
8
0
62
5
10
0.13154561
20
1.3620936
30
0
70
32
0
VERTEX
8
0
62
5
10
0.17397202
20
1.3368901
30
0
70
32
0
SEQEND
8
0
0
POLYLINE
8
0
62
30
66
1
10
0
20
0
30
0
70
8
0
VERTEX
8
0
62
30
10
0.0042663931
20
1.3232083
30
0
70
32
0
VERTEX
8
0
62
30
10
0.17397202
20
1.3232083
30
0
70
32
0
SEQEND
8
0
0
POLYLINE
8
0
62
30
66
1
10
0
20
0
30
0
70
8
0
VERTEX
8
0
62
30
10
0.0466928
20
1.3232083
30
0
70
32
0
VERTEX
8
0
62
30
10
0.0466928
20
1.3232083
30
0
70
32
0
SEQEND
8
0
0
POLYLINE
8
0
62
30
66
1
10
0
20
0
30
0
70
8
0
VERTEX
8
0
62
30
10
0.089119207
20
1.2980048
30
0
70
32
0
VERTEX
8
0
62
30
10
0.089119207
20
1.3232083
30
0
70
32
0
SEQEND
8
0
0
POLYLINE
8
0
62
30
66
1
10
0
20
0
30
0
70
8
0
VERTEX
8
0
62
30
10
0.13154561
20
1.284323
30
0
70
32
0
VERTEX
8
0
62
30
10
0.13154561
20
1.3232083
30
0
70
32
0
SEQEND
8
0
0
POLYLINE
8
0
62
5
66
1
10
0
20
0
30
0
70
8
0
VERTEX
8
0
62
5
10
0.0466928
20
1.2834875
30
0
70
32
0
VERTEX
8
0
62
5
10
0.0466928
20
1.3232083
30
0
70
32
0
SEQEND
8
0
0
POLYLINE
8
0
62
5
66
1
10
0
20
0
30
0
70
8
0
VERTEX
8
0
62
5
10
0.089119207
20
1.2834875
30
0
70
32
0
VERTEX
8
0
62
5
10
0.089119207
20
1.2980048
30
0
70
32
0
SEQEND
8
0
0
POLYLINE
8
0
62
5
66
1
10
0
20
0
30
0
70
8
0
VERTEX
8
0
62
5
10
0.13154561
20
1.2834875
30
0
70
32
0
VERTEX
8
0
62
5
10
0.13154561
20
1.284323
30
0
70
32
0
SEQEND
8
0
0
POLYLINE
8
0
62
5
66
1
10
0
20
0
30
0
70
8
0
VERTEX
8
0
62
5
10
0.0466928
20
1.3232083
30
0
70
32
0
VERTEX
8
0
62
5
10
0.0466928
20
1.3629291
30
0
70
32
0
SEQEND
8
0
0
POLYLINE
8
0
62
5
66
1
10
0
20
0
30
0
70
8
0
VERTEX
8
0
62
5
10
0.089119207
20
1.3232083
30
0
70
32
0
VERTEX
8
0
62
5
10
0.089119207
20
1.3629291
30
0
70
32
0
SEQEND
8
0
0
POLYLINE
8
0
62
5
66
1
10
0
20
0
30
0
70
8
0
VERTEX
8
0
62
5
10
0.13154561
20
1.3232083
30
0
70
32
0
VERTEX
8
0
62
5
10
0.13154561
20
1.3629291
30
0
70
32
0
SEQEND
8
0
0
POLYLINE
8
0
62
5
66
1
10
0
20
0
30
0
70
8
0
VERTEX
8
0
62
5
10
0.34367765
20
1.3629291
30
0
70
32
0
VERTEX
8
0
62
5
10
0.34367765
20
1.2834875
30
0
70
32
0
SEQEND
8
0
0
POLYLINE
8
0
62
5
66
1
10
0
20
0
30
0
70
8
0
VERTEX
8
0
62
5
10
0.17397202
20
1.3095265
30
0
70
32
0
VERTEX
8
0
62
5
10
0.21639843
20
1.3232083
30
0
70
32
0
VERTEX
8
0
62
5
10
0.25882483
20
1.2980048
30
0
70
32
0
VERTEX
8
0
62
5
10
0.30125124
20
1.284323
30
0
70
32
0
VERTEX
8
0
62
5
10
0.34367765
20
1.3095265
30
0
70
32
0
SEQEND
8
0
0
POLYLINE
8
0
62
5
66
1
10
0
20
0
30
0
70
8
0
SEQEND
8
0
0
POLYLINE
8
0
62
5
66
1
10
0
20
0
30
0
70
8
0
VERTEX
8
0
62
5
10
0.17397202
20
1.3368901
30
0
70
32
0
VERTEX
8
0
62
5
10
0.21639843
20
1.3232083
30
0
70
32
0
VERTEX
8
0
62
5
10
0.25882483
20
1.3484118
30
0
70
32
0
VERTEX
8
0
62
5
10
0.30125124
20
1.3620936
30
0
70
32
0
VERTEX
8
0
62
5
10
0.34367765
20
1.3368901
30
0
70
32
0
SEQEND
8
0
0
POLYLINE
8
0
62
30
66
1
10
0
20
0
30
0
70
8
0
VERTEX
8
0
62
30
10
0.17397202
20
1.3232083
30
0
70
32
0
VERTEX
8
0
62
30
10
0.34367765
20
1.3232083
30
0
70
32
0
SEQEND
8
0
0
POLYLINE
8
0
62
30
66
1
10
0
20
0
30
0
70
8
0
VERTEX
8
0
62
30
10
0.21639843
20
1.3232083
30
0
70
32
0
VERTEX
8
0
62
30
10
0.21639843
20
1.3232083
30
0
70
32
0
SEQEND
8
0
0
POLYLINE
8
0
62
30
66
1
10
0
20
0
30
0
70
8
0
VERTEX
8
0
62
30
10
0.25882483
20
1.2980048
30
0
70
32
0
VERTEX
8
0
62
30
10
0.25882483
20
1.3232083
30
0
70
32
0
SEQEND
8
0
0
POLYLINE
8
0
62
30
66
1
10
0
20
0
30
0
70
8
0
VERTEX
8
0
62
30
10
0.30125124
20
1.284323
30
0
70
32
0
VERTEX
8
0
62
30
10
0.30125124
20
1.3232083
30
0
70
32
0
SEQEND
8
0
0
POLYLINE
8
0
62
5
66
1
10
0
20
0
30
0
70
8
0
VERTEX
8
0
62
5
10
0.21639843
20
1.2834875
30
0
70
32
0
VERTEX
8
0
62
5
10
0.21639843
20
1.3232083
30
0
70
32
0
SEQEND
8
0
0
POLYLINE
8
0
62
5
66
1
10
0
20
0
30
0
70
8
0
VERTEX
8
0
62
5
10
0.25882483
20
1.2834875
30
0
70
32
0
VERTEX
8
0
62
5
10
0.25882483
20
1.2980048
30
0
70
32
0
SEQEND
8
0
0
POLYLINE
8
0
62
5
66
1
10
0
20
0
30
0
70
8
0
VERTEX
8
0
62
5
10
0.30125124
20
1.2834875
30
0
70
32
0
VERTEX
8
0
62
5
10
0.30125124
20
1.284323
30
0
70
32
0
SEQEND
8
0
0
POLYLINE
8
0
62
5
66
1
10
0
20
0
30
0
70
8
0
VERTEX
8
0
62
5
10
0.21639843
20
1.3232083
30
0
70
32
0
VERTEX
8
0
62
5
10
0.21639843
20
1.3629291
30
0
70
32
0
SEQEND
8
0
0
POLYLINE
8
0
62
5
66
1
10
0
20
0
30
0
70
8
0
VERTEX
8
0
62
5
10
0.25882483
20
1.3232083
30
0
70
32
0
VERTEX
8
0
62
5
10
0.25882483
20
1.3629291
30
0
70
32
0
SEQEND
8
0
0
POLYLINE
8
0
62
5
66
1
10
0
20
0
30
0
70
8
0
VERTEX
8
0
62
5
10
0.30125124
20
1.3232083
30
0
70
32
0
VERTEX
8
0
62
5
10
0.30125124
20
1.3629291
30
0
70
32
0
SEQEND
8
0
0
POLYLINE
8
0
62
5
66
1
10
0
20
0
30
0
70
8
0
VERTEX
8
0
62
5
10
-0.16543923
20
1.2834875
30
0
70
32
0
VERTEX
8
0
62
5
10
-0.16543923
20
1.3629291
30
0
70
32
0
SEQEND
8
0
0
POLYLINE
8
0
62
5
66
1
10
0
20
0
30
0
70
8
0
VERTEX
8
0
62
5
10
-0.16543923
20
1.3095265
30
0
70
32
0
VERTEX
8
0
62
5
10
-0.12301283
20
1.3232083
30
0
70
32
0
VERTEX
8
0
62
5
10
-0.080586421
20
1.2980048
30
0
70
32
0
VERTEX
8
0
62
5
10
-0.038160014
20
1.284323
30
0
70
32
0
VERTEX
8
0
62
5
10
0.0042663931
20
1.3095265
30
0
70
32
0
SEQEND
8
0
0
POLYLINE
8
0
62
5
66
1
10
0
20
0
30
0
70
8
0
SEQEND
8
0
0
POLYLINE
8
0
62
5
66
1
10
0
20
0
30
0
70
8
0
VERTEX
8
0
62
5
10
-0.16543923
20
1.3368901
30
0
70
32
0
VERTEX
8
0
62
5
10
-0.12301283
20
1.3232083
30
0
70
32
0
VERTEX
8
0
62
5
10
-0.080586421
20
1.3484118
30
0
70
32
0
VERTEX
8
0
62
5
10
-0.038160014
20
1.3620936
30
0
70
32
0
VERTEX
8
0
62
5
10
0.0042663931
20
1.3368901
30
0
70
32
0
SEQEND
8
0
0
POLYLINE
8
0
62
30
66
1
10
0
20
0
30
0
70
8
0
VERTEX
8
0
62
30
10
-0.16543923
20
1.3232083
30
0
70
32
0
VERTEX
8
0
62
30
10
0.0042663931
20
1.3232083
30
0
70
32
0
SEQEND
8
0
0
POLYLINE
8
0
62
30
66
1
10
0
20
0
30
0
70
8
0
VERTEX
8
0
62
30
10
-0.12301283
20
1.3232083
30
0
70
32
0
VERTEX
8
0
62
30
10
-0.12301283
20
1.3232083
30
0
70
32
0
SEQEND
8
0
0
POLYLINE
8
0
62
30
66
1
10
0
20
0
30
0
70
8
0
VERTEX
8
0
62
30
10
-0.080586421
20
1.2980048
30
0
70
32
0
VERTEX
8
0
62
30
10
-0.080586421
20
1.3232083
30
0
70
32
0
SEQEND
8
0
0
POLYLINE
8
0
62
30
66
1
10
0
20
0
30
0
70
8
0
VERTEX
8
0
62
30
10
-0.038160014
20
1.284323
30
0
70
32
0
VERTEX
8
0
62
30
10
-0.038160014
20
1.3232083
30
0
70
32
0
SEQEND
8
0
0
POLYLINE
8
0
62
5
66
1
10
0
20
0
30
0
70
8
0
VERTEX
8
0
62
5
10
-0.12301283
20
1.2834875
30
0
70
32
0
VERTEX
8
0
62
5
10
-0.12301283
20
1.3232083
30
0
70
32
0
SEQEND
8
0
0
POLYLINE
8
0
62
5
66
1
10
0
20
0
30
0
70
8
0
VERTEX
8
0
62
5
10
-0.080586421
20
1.2834875
30
0
70
32
0
VERTEX
8
0
62
5
10
-0.080586421
20
1.2980048
30
0
70
32
0
SEQEND
8
0
0
POLYLINE
8
0
62
5
66
1
10
0
20
0
30
0
70
8
0
VERTEX
8
0
62
5
10
-0.038160014
20
1.2834875
30
0
70
32
0
VERTEX
8
0
62
5
10
-0.038160014
20
1.284323
30
0
70
32
0
SEQEND
8
0
0
POLYLINE
8
0
62
5
66
1
10
0
20
0
30
0
70
8
0
VERTEX
8
0
62
5
10
-0.12301283
20
1.3232083
30
0
70
32
0
VERTEX
8
0
62
5
10
-0.12301283
20
1.3629291
30
0
70
32
0
SEQEND
8
0
0
POLYLINE
8
0
62
5
66
1
10
0
20
0
30
0
70
8
0
VERTEX
8
0
62
5
10
-0.080586421
20
1.3232083
30
0
70
32
0
VERTEX
8
0
62
5
10
-0.080586421
20
1.3629291
30
0
70
32
0
SEQEND
8
0
0
POLYLINE
8
0
62
5
66
1
10
0
20
0
30
0
70
8
0
VERTEX
8
0
62
5
10
-0.038160014
20
1.3232083
30
0
70
32
0
VERTEX
8
0
62
5
10
-0.038160014
20
1.3629291
30
0
70
32
0
SEQEND
8
0
0
POLYLINE
8
0
62
5
66
1
10
0
20
0
30
0
70
8
0
VERTEX
8
0
62
5
10
0.0042663931
20
1.3629291
30
0
70
32
0
VERTEX
8
0
62
5
10
0.0042663931
20
1.4229291
30
0
70
32
0
SEQEND
8
0
0
POLYLINE
8
0
62
5
66
1
10
0
20
0
30
0
70
8
0
VERTEX
8
0
62
5
10
0.17397202
20
1.4229291
30
0
70
32
0
VERTEX
8
0
62
5
10
0.17397202
20
1.3629291
30
0
70
32
0
SEQEND
8
0
0
POLYLINE
8
0
62
5
66
1
10
0
20
0
30
0
70
8
0
VERTEX
8
0
62
5
10
0.0042663931
20
1.3629291
30
0
70
32
0
VERTEX
8
0
62
5
10
0.17397202
20
1.3629291
30
0
70
32
0
SEQEND
8
0
0
POLYLINE
8
0
62
5
66
1
10
0
20
0
30
0
70
8
0
VERTEX
8
0
62
5
10
0.0042663931
20
1.4229291
30
0
70
32
0
VERTEX
8
0
62
5
10
0.17397202
20
1.4229291
30
0
70
32
0
SEQEND
8
0
0
POLYLINE
8
0
62
5
66
1
10
0
20
0
30
0
70
8
0
VERTEX
8
0
62
5
10
0.0466928
20
1.3629291
30
0
70
32
0
VERTEX
8
0
62
5
10
0.0466928
20
1.3629291
30
0
70
32
0
SEQEND
8
0
0
POLYLINE
8
0
62
5
66
1
10
0
20
0
30
0
70
8
0
VERTEX
8
0
62
5
10
0.089119207
20
1.3629291
30
0
70
32
0
VERTEX
8
0
62
5
10
0.089119207
20
1.3629291
30
0
70
32
0
SEQEND
8
0
0
POLYLINE
8
0
62
5
66
1
10
0
20
0
30
0
70
8
0
VERTEX
8
0
62
5
10
0.13154561
20
1.3629291
30
0
70
32
0
VERTEX
8
0
62
5
10
0.13154561
20
1.3629291
30
0
70
32
0
SEQEND
8
0
0
POLYLINE
8
0
62
5
66
1
10
0
20
0
30
0
70
8
0
VERTEX
8
0
62
5
10
0.0466928
20
1.4229291
30
0
70
32
0
VERTEX
8
0
62
5
10
0.0466928
20
1.4229291
30
0
70
32
0
SEQEND
8
0
0
POLYLINE
8
0
62
5
66
1
10
0
20
0
30
0
70
8
0
VERTEX
8
0
62
5
10
0.089119207
20
1.4229291
30
0
70
32
0
VERTEX
8
0
62
5
10
0.089119207
20
1.4229291
30
0
70
32
0
SEQEND
8
0
0
POLYLINE
8
0
62
5
66
1
10
0
20
0
30
0
70
8
0
VERTEX
8
0
62
5
10
0.13154561
20
1.4229291
30
0
70
32
0
VERTEX
8
0
62
5
10
0.13154561
20
1.4229291
30
0
70
32
0
SEQEND
8
0
0
POLYLINE
8
0
62
30
66
1
10
0
20
0
30
0
70
8
0
VERTEX
8
0
62
30
10
0.0042663931
20
1.3629291
30
0
70
32
0
VERTEX
8
0
62
30
10
0.025479597
20
1.3929291
30
0
70
32
0
SEQEND
8
0
0
POLYLINE
8
0
62
30
66
1
10
0
20
0
30
0
70
8
0
VERTEX
8
0
62
30
10
0.025479597
20
1.3929291
30
0
70
32
0
VERTEX
8
0
62
30
10
0.0466928
20
1.3629291
30
0
70
32
0
SEQEND
8
0
0
POLYLINE
8
0
62
30
66
1
10
0
20
0
30
0
70
8
0
VERTEX
8
0
62
30
10
0.089119207
20
1.3629291
30
0
70
32
0
VERTEX
8
0
62
30
10
0.11033241
20
1.3929291
30
0
70
32
0
SEQEND
8
0
0
POLYLINE
8
0
62
30
66
1
10
0
20
0
30
0
70
8
0
VERTEX
8
0
62
30
10
0.11033241
20
1.3929291
30
0
70
32
0
VERTEX
8
0
62
30
10
0.13154561
20
1.3629291
30
0
70
32
0
SEQEND
8
0
0
POLYLINE
8
0
62
30
66
1
10
0
20
0
30
0
70
8
0
VERTEX
8
0
62
30
10
0.0466928
20
1.3929291
30
0
70
32
0
VERTEX
8
0
62
30
10
0.089119207
20
1.3929291
30
0
70
32
0
SEQEND
8
0
0
POLYLINE
8
0
62
30
66
1
10
0
20
0
30
0
70
8
0
VERTEX
8
0
62
30
10
0.13154561
20
1.3929291
30
0
70
32
0
VERTEX
8
0
62
30
10
0.17397202
20
1.3929291
30
0
70
32
0
SEQEND
8
0
0
POLYLINE
8
0
62
5
66
1
10
0
20
0
30
0
70
8
0
VERTEX
8
0
62
5
10
0.0042663931
20
1.3929291
30
0
70
32
0
VERTEX
8
0
62
5
10
0.025479597
20
1.3929291
30
0
70
32
0
SEQEND
8
0
0
POLYLINE
8
0
62
5
66
1
10
0
20
0
30
0
70
8
0
VERTEX
8
0
62
5
10
0.089119207
20
1.3929291
30
0
70
32
0
VERTEX
8
0
62
5
10
0.11033241
20
1.3929291
30
0
70
32
0
SEQEND
8
0
0
POLYLINE
8
0
62
5
66
1
10
0
20
0
30
0
70
8
0
VERTEX
8
0
62
5
10
0.025479597
20
1.3929291
30
0
70
32
0
VERTEX
8
0
62
5
10
0.0466928
20
1.3929291
30
0
70
32
0
SEQEND
8
0
0
POLYLINE
8
0
62
5
66
1
10
0
20
0
30
0
70
8
0
VERTEX
8
0
62
5
10
0.11033241
20
1.3929291
30
0
70
32
0
VERTEX
8
0
62
5
10
0.13154561
20
1.3929291
30
0
70
32
0
SEQEND
8
0
0
POLYLINE
8
0
62
5
66
1
10
0
20
0
30
0
70
8
0
VERTEX
8
0
62
5
10
0.0466928
20
1.3629291
30
0
70
32
0
VERTEX
8
0
62
5
10
0.0466928
20
1.4229291
30
0
70
32
0
SEQEND
8
0
0
POLYLINE
8
0
62
5
66
1
10
0
20
0
30
0
70
8
0
VERTEX
8
0
62
5
10
0.089119207
20
1.3629291
30
0
70
32
0
VERTEX
8
0
62
5
10
0.089119207
20
1.4229291
30
0
70
32
0
SEQEND
8
0
0
POLYLINE
8
0
62
5
66
1
10
0
20
0
30
0
70
8
0
VERTEX
8
0
62
5
10
0.13154561
20
1.3629291
30
0
70
32
0
VERTEX
8
0
62
5
10
0.13154561
20
1.4229291
30
0
70
32
0
SEQEND
8
0
0
POLYLINE
8
0
62
5
66
1
10
0
20
0
30
0
70
8
0
VERTEX
8
0
62
5
10
0.0042663931
20
1.3629291
30
0
70
32
0
VERTEX
8
0
62
5
10
0.0042663931
20
1.4229291
30
0
70
32
0
SEQEND
8
0
0
POLYLINE
8
0
62
5
66
1
10
0
20
0
30
0
70
8
0
VERTEX
8
0
62
5
10
0.34367765
20
1.4229291
30
0
70
32
0
VERTEX
8
0
62
5
10
0.34367765
20
1.3629291
30
0
70
32
0
SEQEND
8
0
0
POLYLINE
8
0
62
5
66
1
10
0
20
0
30
0
70
8
0
VERTEX
8
0
62
5
10
0.17397202
20
1.3629291
30
0
70
32
0
VERTEX
8
0
62
5
10
0.34367765
20
1.3629291
30
0
70
32
0
SEQEND
8
0
0
POLYLINE
8
0
62
5
66
1
10
0
20
0
30
0
70
8
0
VERTEX
8
0
62
5
10
0.17397202
20
1.4229291
30
0
70
32
0
VERTEX
8
0
62
5
10
0.34367765
20
1.4229291
30
0
70
32
0
SEQEND
8
0
0
POLYLINE
8
0
62
5
66
1
10
0
20
0
30
0
70
8
0
VERTEX
8
0
62
5
10
0.21639843
20
1.3629291
30
0
70
32
0
VERTEX
8
0
62
5
10
0.21639843
20
1.3629291
30
0
70
32
0
SEQEND
8
0
0
POLYLINE
8
0
62
5
66
1
10
0
20
0
30
0
70
8
0
VERTEX
8
0
62
5
10
0.25882483
20
1.3629291
30
0
70
32
0
VERTEX
8
0
62
5
10
0.25882483
20
1.3629291
30
0
70
32
0
SEQEND
8
0
0
POLYLINE
8
0
62
5
66
1
10
0
20
0
30
0
70
8
0
VERTEX
8
0
62
5
10
0.30125124
20
1.3629291
30
0
70
32
0
VERTEX
8
0
62
5
10
0.30125124
20
1.3629291
30
0
70
32
0
SEQEND
8
0
0
POLYLINE
8
0
62
5
66
1
10
0
20
0
30
0
70
8
0
VERTEX
8
0
62
5
10
0.21639843
20
1.4229291
30
0
70
32
0
VERTEX
8
0
62
5
10
0.21639843
20
1.4229291
30
0
70
32
0
SEQEND
8
0
0
POLYLINE
8
0
62
5
66
1
10
0
20
0
30
0
70
8
0
VERTEX
8
0
62
5
10
0.25882483
20
1.4229291
30
0
70
32
0
VERTEX
8
0
62
5
10
0.25882483
20
1.4229291
30
0
70
32
0
SEQEND
8
0
0
POLYLINE
8
0
62
5
66
1
10
0
20
0
30
0
70
8
0
VERTEX
8
0
62
5
10
0.30125124
20
1.4229291
30
0
70
32
0
VERTEX
8
0
62
5
10
0.30125124
20
1.4229291
30
0
70
32
0
SEQEND
8
0
0
POLYLINE
8
0
62
30
66
1
10
0
20
0
30
0
70
8
0
VERTEX
8
0
62
30
10
0.17397202
20
1.3629291
30
0
70
32
0
VERTEX
8
0
62
30
10
0.19518522
20
1.3929291
30
0
70
32
0
SEQEND
8
0
0
POLYLINE
8
0
62
30
66
1
10
0
20
0
30
0
70
8
0
VERTEX
8
0
62
30
10
0.19518522
20
1.3929291
30
0
70
32
0
VERTEX
8
0
62
30
10
0.21639843
20
1.3629291
30
0
70
32
0
SEQEND
8
0
0
POLYLINE
8
0
62
30
66
1
10
0
20
0
30
0
70
8
0
VERTEX
8
0
62
30
10
0.25882483
20
1.3629291
30
0
70
32
0
VERTEX
8
0
62
30
10
0.28003804
20
1.3929291
30
0
70
32
0
SEQEND
8
0
0
POLYLINE
8
0
62
30
66
1
10
0
20
0
30
0
70
8
0
VERTEX
8
0
62
30
10
0.28003804
20
1.3929291
30
0
70
32
0
VERTEX
8
0
62
30
10
0.30125124
20
1.3629291
30
0
70
32
0
SEQEND
8
0
0
POLYLINE
8
0
62
30
66
1
10
0
20
0
30
0
70
8
0
VERTEX
8
0
62
30
10
0.21639843
20
1.3929291
30
0
70
32
0
VERTEX
8
0
62
30
10
0.25882483
20
1.3929291
30
0
70
32
0
SEQEND
8
0
0
POLYLINE
8
0
62
30
66
1
10
0
20
0
30
0
70
8
0
VERTEX
8
0
62
30
10
0.30125124
20
1.3929291
30
0
70
32
0
VERTEX
8
0
62
30
10
0.34367765
20
1.3929291
30
0
70
32
0
SEQEND
8
0
0
POLYLINE
8
0
62
5
66
1
10
0
20
0
30
0
70
8
0
VERTEX
8
0
62
5
10
0.17397202
20
1.3929291
30
0
70
32
0
VERTEX
8
0
62
5
10
0.19518522
20
1.3929291
30
0
70
32
0
SEQEND
8
0
0
POLYLINE
8
0
62
5
66
1
10
0
20
0
30
0
70
8
0
VERTEX
8
0
62
5
10
0.25882483
20
1.3929291
30
0
70
32
0
VERTEX
8
0
62
5
10
0.28003804
20
1.3929291
30
0
70
32
0
SEQEND
8
0
0
POLYLINE
8
0
62
5
66
1
10
0
20
0
30
0
70
8
0
VERTEX
8
0
62
5
10
0.19518522
20
1.3929291
30
0
70
32
0
VERTEX
8
0
62
5
10
0.21639843
20
1.3929291
30
0
70
32
0
SEQEND
8
0
0
POLYLINE
8
0
62
5
66
1
10
0
20
0
30
0
70
8
0
VERTEX
8
0
62
5
10
0.28003804
20
1.3929291
30
0
70
32
0
VERTEX
8
0
62
5
10
0.30125124
20
1.3929291
30
0
70
32
0
SEQEND
8
0
0
POLYLINE
8
0
62
5
66
1
10
0
20
0
30
0
70
8
0
VERTEX
8
0
62
5
10
0.21639843
20
1.3629291
30
0
70
32
0
VERTEX
8
0
62
5
10
0.21639843
20
1.4229291
30
0
70
32
0
SEQEND
8
0
0
POLYLINE
8
0
62
5
66
1
10
0
20
0
30
0
70
8
0
VERTEX
8
0
62
5
10
0.25882483
20
1.3629291
30
0
70
32
0
VERTEX
8
0
62
5
10
0.25882483
20
1.4229291
30
0
70
32
0
SEQEND
8
0
0
POLYLINE
8
0
62
5
66
1
10
0
20
0
30
0
70
8
0
VERTEX
8
0
62
5
10
0.30125124
20
1.3629291
30
0
70
32
0
VERTEX
8
0
62
5
10
0.30125124
20
1.4229291
30
0
70
32
0
SEQEND
8
0
0
POLYLINE
8
0
62
5
66
1
10
0
20
0
30
0
70
8
0
VERTEX
8
0
62
5
10
0.17397202
20
1.3629291
30
0
70
32
0
VERTEX
8
0
62
5
10
0.17397202
20
1.4229291
30
0
70
32
0
SEQEND
8
0
0
POLYLINE
8
0
62
5
66
1
10
0
20
0
30
0
70
8
0
VERTEX
8
0
62
5
10
-0.16543923
20
1.3629291
30
0
70
32
0
VERTEX
8
0
62
5
10
-0.16543923
20
1.4229291
30
0
70
32
0
SEQEND
8
0
0
POLYLINE
8
0
62
5
66
1
10
0
20
0
30
0
70
8
0
VERTEX
8
0
62
5
10
-0.16543923
20
1.3629291
30
0
70
32
0
VERTEX
8
0
62
5
10
0.0042663931
20
1.3629291
30
0
70
32
0
SEQEND
8
0
0
POLYLINE
8
0
62
5
66
1
10
0
20
0
30
0
70
8
0
VERTEX
8
0
62
5
10
-0.16543923
20
1.4229291
30
0
70
32
0
VERTEX
8
0
62
5
10
0.0042663931
20
1.4229291
30
0
70
32
0
SEQEND
8
0
0
POLYLINE
8
0
62
5
66
1
10
0
20
0
30
0
70
8
0
VERTEX
8
0
62
5
10
-0.12301283
20
1.3629291
30
0
70
32
0
VERTEX
8
0
62
5
10
-0.12301283
20
1.3629291
30
0
70
32
0
SEQEND
8
0
0
POLYLINE
8
0
62
5
66
1
10
0
20
0
30
0
70
8
0
VERTEX
8
0
62
5
10
-0.080586421
20
1.3629291
30
0
70
32
0
VERTEX
8
0
62
5
10
-0.080586421
20
1.3629291
30
0
70
32
0
SEQEND
8
0
0
POLYLINE
8
0
62
5
66
1
10
0
20
0
30
0
70
8
0
VERTEX
8
0
62
5
10
-0.038160014
20
1.3629291
30
0
70
32
0
VERTEX
8
0
62
5
10
-0.038160014
20
1.3629291
30
0
70
32
0
SEQEND
8
0
0
POLYLINE
8
0
62
5
66
1
10
0
20
0
30
0
70
8
0
VERTEX
8
0
62
5
10
-0.12301283
20
1.4229291
30
0
70
32
0
VERTEX
8
0
62
5
10
-0.12301283
20
1.4229291
30
0
70
32
0
SEQEND
8
0
0
POLYLINE
8
0
62
5
66
1
10
0
20
0
30
0
70
8
0
VERTEX
8
0
62
5
10
-0.080586421
20
1.4229291
30
0
70
32
0
VERTEX
8
0
62
5
10
-0.080586421
20
1.4229291
30
0
70
32
0
SEQEND
8
0
0
POLYLINE
8
0
62
5
66
1
10
0
20
0
30
0
70
8
0
VERTEX
8
0
62
5
10
-0.038160014
20
1.4229291
30
0
70
32
0
VERTEX
8
0
62
5
10
-0.038160014
20
1.4229291
30
0
70
32
0
SEQEND
8
0
0
POLYLINE
8
0
62
30
66
1
10
0
20
0
30
0
70
8
0
VERTEX
8
0
62
30
10
-0.16543923
20
1.3629291
30
0
70
32
0
VERTEX
8
0
62
30
10
-0.14422603
20
1.3929291
30
0
70
32
0
SEQEND
8
0
0
POLYLINE
8
0
62
30
66
1
10
0
20
0
30
0
70
8
0
VERTEX
8
0
62
30
10
-0.14422603
20
1.3929291
30
0
70
32
0
VERTEX
8
0
62
30
10
-0.12301283
20
1.3629291
30
0
70
32
0
SEQEND
8
0
0
POLYLINE
8
0
62
30
66
1
10
0
20
0
30
0
70
8
0
VERTEX
8
0
62
30
10
-0.080586421
20
1.3629291
30
0
70
32
0
VERTEX
8
0
62
30
10
-0.059373217
20
1.3929291
30
0
70
32
0
SEQEND
8
0
0
POLYLINE
8
0
62
30
66
1
10
0
20
0
30
0
70
8
0
VERTEX
8
0
62
30
10
-0.059373217
20
1.3929291
30
0
70
32
0
VERTEX
8
0
62
30
10
-0.038160014
20
1.3629291
30
0
70
32
0
SEQEND
8
0
0
POLYLINE
8
0
62
30
66
1
10
0
20
0
30
0
70
8
0
VERTEX
8
0
62
30
10
-0.12301283
20
1.3929291
30
0
70
32
0
VERTEX
8
0
62
30
10
-0.080586421
20
1.3929291
30
0
70
32
0
SEQEND
8
0
0
POLYLINE
8
0
62
30
66
1
10
0
20
0
30
0
70
8
0
VERTEX
8
0
62
30
10
-0.038160014
20
1.3929291
30
0
70
32
0
VERTEX
8
0
62
30
10
0.0042663931
20
1.3929291
30
0
70
32
0
SEQEND
8
0
0
POLYLINE
8
0
62
5
66
1
10
0
20
0
30
0
70
8
0
VERTEX
8
0
62
5
10
-0.16543923
20
1.3929291
30
0
70
32
0
VERTEX
8
0
62
5
10
-0.14422603
20
1.3929291
30
0
70
32
0
SEQEND
8
0
0
POLYLINE
8
0
62
5
66
1
10
0
20
0
30
0
70
8
0
VERTEX
8
0
62
5
10
-0.080586421
20
1.3929291
30
0
70
32
0
VERTEX
8
0
62
5
10
-0.059373217
20
1.3929291
30
0
70
32
0
SEQEND
8
0
0
POLYLINE
8
0
62
5
66
1
10
0
20
0
30
0
70
8
0
VERTEX
8
0
62
5
10
-0.14422603
20
1.3929291
30
0
70
32
0
VERTEX
8
0
62
5
10
-0.12301283
20
1.3929291
30
0
70
32
0
SEQEND
8
0
0
POLYLINE
8
0
62
5
66
1
10
0
20
0
30
0
70
8
0
VERTEX
8
0
62
5
10
-0.059373217
20
1.3929291
30
0
70
32
0
VERTEX
8
0
62
5
10
-0.038160014
20
1.3929291
30
0
70
32
0
SEQEND
8
0
0
POLYLINE
8
0
62
5
66
1
10
0
20
0
30
0
70
8
0
VERTEX
8
0
62
5
10
-0.12301283
20
1.3629291
30
0
70
32
0
VERTEX
8
0
62
5
10
-0.12301283
20
1.4229291
30
0
70
32
0
SEQEND
8
0
0
POLYLINE
8
0
62
5
66
1
10
0
20
0
30
0
70
8
0
VERTEX
8
0
62
5
10
-0.080586421
20
1.3629291
30
0
70
32
0
VERTEX
8
0
62
5
10
-0.080586421
20
1.4229291
30
0
70
32
0
SEQEND
8
0
0
POLYLINE
8
0
62
5
66
1
10
0
20
0
30
0
70
8
0
VERTEX
8
0
62
5
10
-0.038160014
20
1.3629291
30
0
70
32
0
VERTEX
8
0
62
5
10
-0.038160014
20
1.4229291
30
0
70
32
0
SEQEND
8
0
0
POLYLINE
8
0
62
5
66
1
10
0
20
0
30
0
70
8
0
VERTEX
8
0
62
5
10
-0.16543923
20
1.3629291
30
0
70
32
0
VERTEX
8
0
62
5
10
-0.16543923
20
1.4229291
30
0
70
32
0
SEQEND
8
0
0
POLYLINE
8
0
62
18
66
1
10
0
20
0
30
0
70
8
0
VERTEX
8
0
62
18
10
0
20
0
30
0
70
32
0
VERTEX
8
0
62
18
10
0.21213203
20
0
30
0
70
32
0
VERTEX
8
0
62
18
10
0.21213203
20
0.43748424
30
0
70
32
0
VERTEX
8
0
62
18
10
0
20
0.43748424
30
0
70
32
0
VERTEX
8
0
62
18
10
0
20
0
30
0
70
32
0
SEQEND
8
0
0
POLYLINE
8
0
62
5
66
1
10
0
20
0
30
0
70
8
0
VERTEX
8
0
62
5
10
0
20
0.43748424
30
0
70
32
0
VERTEX
8
0
62
5
10
0.21213203
20
0.43748424
30
0
70
32
0
SEQEND
8
0
0
POLYLINE
8
0
62
18
66
1
10
0
20
0
30
0
70
8
0
VERTEX
8
0
62
18
10
0
20
0.41748424
30
0
70
32
0
VERTEX
8
0
62
18
10
0.21213203
20
0.41748424
30
0
70
32
0
VERTEX
8
0
62
18
10
0.21213203
20
0.89019687
30
0
70
32
0
VERTEX
8
0
62
18
10
0
20
0.89019687
30
0
70
32
0
VERTEX
8
0
62
18
10
0
20
0.41748424
30
0
70
32
0
SEQEND
8
0
0
POLYLINE
8
0
62
5
66
1
10
0
20
0
30
0
70
8
0
VERTEX
8
0
62
5
10
0
20
0.89019687
30
0
70
32
0
VERTEX
8
0
62
5
10
0.21213203
20
0.89019687
30
0
70
32
0
SEQEND
8
0
0
POLYLINE
8
0
62
18
66
1
10
0
20
0
30
0
70
8
0
VERTEX
8
0
62
18
10
0
20
0.87019687
30
0
70
32
0
VERTEX
8
0
62
18
10
0.21213203
20
0.87019687
30
0
70
32
0
VERTEX
8
0
62
18
10
0.21213203
20
1.2481262
30
0
70
32
0
VERTEX
8
0
62
18
10
0
20
1.2481262
30
0
70
32
0
VERTEX
8
0
62
18
10
0
20
0.87019687
30
0
70
32
0
SEQEND
8
0
0
POLYLINE
8
0
62
5
66
1
10
0
20
0
30
0
70
8
0
VERTEX
8
0
62
5
10
0
20
1.2481262
30
0
70
32
0
VERTEX
8
0
62
5
10
0.21213203
20
1.2481262
30
0
70
32
0
SEQEND
8
0
0
POLYLINE
8
0
62
18
66
1
10
0
20
0
30
0
70
8
0
VERTEX
8
0
62
18
10
0
20
1.2281262
30
0
70
32
0
VERTEX
8
0
62
18
10
0.21213203
20
1.2281262
30
0
70
32
0
VERTEX
8
0
62
18
10
0.21213203
20
1.4229291
30
0
70
32
0
VERTEX
8
0
62
18
10
0
20
1.4229291
30
0
70
32
0
VERTEX
8
0
62
18
10
0
20
1.2281262
30
0
70
32
0
SEQEND
8
0
0
POLYLINE
8
0
62
18
66
1
10
0
20
0
30
0
70
8
0
VERTEX
8
0
62
18
10
0.21213203
20
0
30
0
70
32
0
VERTEX
8
0
62
18
10
0
20
0
30
0
70
32
0
VERTEX
8
0
62
18
10
0
20
1.4229291
30
0
70
32
0
VERTEX
8
0
62
18
10
0.21213203
20
1.4229291
30
0
70
32
0
VERTEX
8
0
62
18
10
0.21213203
20
0
30
0
70
32
0
SEQEND
8
0
0
ENDSEC
0
EOF
