0
SECTION
2
HEADER
9
$ACADVER
1
AC1006
9
$INSUNITS
70
6
0
ENDSEC
0
SECTION
2
ENTITIES
0
POLYLINE
8
0
62
5
66
1
10
0
20
0
30
0
70
8
0
VERTEX
8
0
62
5
10
0
20
0
30
0
70
32
0
VERTEX
8
0
62
5
10
0
20
0.1
30
0
70
32
0
SEQEND
8
0
0
POLYLINE
8
0
62
5
66
1
10
0
20
0
30
0
70
8
0
VERTEX
8
0
62
5
10
0.28284271
20
0
30
0
70
32
0
VERTEX
8
0
62
5
10
0.28284271
20
0.1
30
0
70
32
0
SEQEND
8
0
0
POLYLINE
8
0
62
5
66
1
10
0
20
0
30
0
70
8
0
VERTEX
8
0
62
5
10
0.070710678
20
0
30
0
70
32
0
VERTEX
8
0
62
5
10
0.070710678
20
0.1
30
0
70
32
0
SEQEND
8
0
0
POLYLINE
8
0
62
5
66
1
10
0
20
0
30
0
70
8
0
VERTEX
8
0
62
5
10
0.14142136
20
0
30
0
70
32
0
VERTEX
8
0
62
5
10
0.14142136
20
0.1
30
0
70
32
0
SEQEND
8
0
0
POLYLINE
8
0
62
5
66
1
10
0
20
0
30
0
70
8
0
VERTEX
8
0
62
5
10
0.21213203
20
0
30
0
70
32
0
VERTEX
8
0
62
5
10
0.21213203
20
0.1
30
0
70
32
0
SEQEND
8
0
0
POLYLINE
8
0
62
5
66
1
10
0
20
0
30
0
70
8
0
VERTEX
8
0
62
5
10
0.56568542
20
0
30
0
70
32
0
VERTEX
8
0
62
5
10
0.56568542
20
0.1
30
0
70
32
0
SEQEND
8
0
0
POLYLINE
8
0
62
5
66
1
10
0
20
0
30
0
70
8
0
VERTEX
8
0
62
5
10
0.35355339
20
0
30
0
70
32
0
VERTEX
8
0
62
5
10
0.35355339
20
0.1
30
0
70
32
0
SEQEND
8
0
0
POLYLINE
8
0
62
5
66
1
10
0
20
0
30
0
70
8
0
VERTEX
8
0
62
5
10
0.42426407
20
0
30
0
70
32
0
VERTEX
8
0
62
5
10
0.42426407
20
0.1
30
0
70
32
0
SEQEND
8
0
0
POLYLINE
8
0
62
5
66
1
10
0
20
0
30
0
70
8
0
VERTEX
8
0
62
5
10
0.49497475
20
0
30
0
70
32
0
VERTEX
8
0
62
5
10
0.49497475
20
0.1
30
0
70
32
0
SEQEND
8
0
0
POLYLINE
8
0
62
5
66
1
10
0
20
0
30
0
70
8
0
VERTEX
8
0
62
5
10
-0.28284271
20
0
30
0
70
32
0
VERTEX
8
0
62
5
10
-0.28284271
20
0.1
30
0
70
32
0
SEQEND
8
0
0
POLYLINE
8
0
62
5
66
1
10
0
20
0
30
0
70
8
0
VERTEX
8
0
62
5
10
-0.21213203
20
0
30
0
70
32
0
VERTEX
8
0
62
5
10
-0.21213203
20
0.1
30
0
70
32
0
SEQEND
8
0
0
POLYLINE
8
0
62
5
66
1
10
0
20
0
30
0
70
8
0
VERTEX
8
0
62
5
10
-0.14142136
20
0
30
0
70
32
0
VERTEX
8
0
62
5
10
-0.14142136
20
0.1
30
0
70
32
0
SEQEND
8
0
0
POLYLINE
8
0
62
5
66
1
10
0
20
0
30
0
70
8
0
VERTEX
8
0
62
5
10
-0.070710678
20
0
30
0
70
32
0
VERTEX
8
0
62
5
10
-0.070710678
20
0.1
30
0
70
32
0
SEQEND
8
0
0
POLYLINE
8
0
62
5
66
1
10
0
20
0
30
0
70
8
0
VERTEX
8
0
62
5
10
0
20
0.1
30
0
70
32
0
VERTEX
8
0
62
5
10
0
20
0.101
30
0
70
32
0
SEQEND
8
0
0
POLYLINE
8
0
62
5
66
1
10
0
20
0
30
0
70
8
0
VERTEX
8
0
62
5
10
0.28284271
20
0.1
30
0
70
32
0
VERTEX
8
0
62
5
10
0.28284271
20
0.101
30
0
70
32
0
SEQEND
8
0
0
POLYLINE
8
0
62
5
66
1
10
0
20
0
30
0
70
8
0
VERTEX
8
0
62
5
10
0.070710678
20
0.1
30
0
70
32
0
VERTEX
8
0
62
5
10
0.070710678
20
0.101
30
0
70
32
0
SEQEND
8
0
0
POLYLINE
8
0
62
5
66
1
10
0
20
0
30
0
70
8
0
VERTEX
8
0
62
5
10
0.14142136
20
0.1
30
0
70
32
0
VERTEX
8
0
62
5
10
0.14142136
20
0.101
30
0
70
32
0
SEQEND
8
0
0
POLYLINE
8
0
62
5
66
1
10
0
20
0
30
0
70
8
0
VERTEX
8
0
62
5
10
0.21213203
20
0.1
30
0
70
32
0
VERTEX
8
0
62
5
10
0.21213203
20
0.101
30
0
70
32
0
SEQEND
8
0
0
POLYLINE
8
0
62
5
66
1
10
0
20
0
30
0
70
8
0
VERTEX
8
0
62
5
10
0.56568542
20
0.1
30
0
70
32
0
VERTEX
8
0
62
5
10
0.56568542
20
0.101
30
0
70
32
0
SEQEND
8
0
0
POLYLINE
8
0
62
5
66
1
10
0
20
0
30
0
70
8
0
VERTEX
8
0
62
5
10
0.35355339
20
0.1
30
0
70
32
0
VERTEX
8
0
62
5
10
0.35355339
20
0.101
30
0
70
32
0
SEQEND
8
0
0
POLYLINE
8
0
62
5
66
1
10
0
20
0
30
0
70
8
0
VERTEX
8
0
62
5
10
0.42426407
20
0.1
30
0
70
32
0
VERTEX
8
0
62
5
10
0.42426407
20
0.101
30
0
70
32
0
SEQEND
8
0
0
POLYLINE
8
0
62
5
66
1
10
0
20
0
30
0
70
8
0
VERTEX
8
0
62
5
10
0.49497475
20
0.1
30
0
70
32
0
VERTEX
8
0
62
5
10
0.49497475
20
0.101
30
0
70
32
0
SEQEND
8
0
0
POLYLINE
8
0
62
5
66
1
10
0
20
0
30
0
70
8
0
VERTEX
8
0
62
5
10
-0.28284271
20
0.1
30
0
70
32
0
VERTEX
8
0
62
5
10
-0.28284271
20
0.101
30
0
70
32
0
SEQEND
8
0
0
POLYLINE
8
0
62
5
66
1
10
0
20
0
30
0
70
8
0
VERTEX
8
0
62
5
10
-0.21213203
20
0.1
30
0
70
32
0
VERTEX
8
0
62
5
10
-0.21213203
20
0.101
30
0
70
32
0
SEQEND
8
0
0
POLYLINE
8
0
62
5
66
1
10
0
20
0
30
0
70
8
0
VERTEX
8
0
62
5
10
-0.14142136
20
0.1
30
0
70
32
0
VERTEX
8
0
62
5
10
-0.14142136
20
0.101
30
0
70
32
0
SEQEND
8
0
0
POLYLINE
8
0
62
5
66
1
10
0
20
0
30
0
70
8
0
VERTEX
8
0
62
5
10
-0.070710678
20
0.1
30
0
70
32
0
VERTEX
8
0
62
5
10
-0.070710678
20
0.101
30
0
70
32
0
SEQEND
8
0
0
POLYLINE
8
0
62
5
66
1
10
0
20
0
30
0
70
8
0
VERTEX
8
0
62
5
10
0
20
0.101
30
0
70
32
0
VERTEX
8
0
62
5
10
0
20
0.12870254
30
0
70
32
0
SEQEND
8
0
0
POLYLINE
8
0
62
5
66
1
10
0
20
0
30
0
70
8
0
VERTEX
8
0
62
5
10
0.28284271
20
0.12870254
30
0
70
32
0
VERTEX
8
0
62
5
10
0.28284271
20
0.101
30
0
70
32
0
SEQEND
8
0
0
POLYLINE
8
0
62
5
66
1
10
0
20
0
30
0
70
8
0
VERTEX
8
0
62
5
10
0
20
0.10337651
30
0
70
32
0
VERTEX
8
0
62
5
10
0.070710678
20
0.1033765
30
0
70
32
0
VERTEX
8
0
62
5
10
0.14142136
20
0.11485126
30
0
70
32
0
VERTEX
8
0
62
5
10
0.21213203
20
0.11485127
30
0
70
32
0
VERTEX
8
0
62
5
10
0.28284271
20
0.10337651
30
0
70
32
0
SEQEND
8
0
0
POLYLINE
8
0
62
5
66
1
10
0
20
0
30
0
70
8
0
SEQEND
8
0
0
POLYLINE
8
0
62
5
66
1
10
0
20
0
30
0
70
8
0
VERTEX
8
0
62
5
10
0
20
0.12632603
30
0
70
32
0
VERTEX
8
0
62
5
10
0.070710678
20
0.12632605
30
0
70
32
0
VERTEX
8
0
62
5
10
0.14142136
20
0.11485128
30
0
70
32
0
VERTEX
8
0
62
5
10
0.21213203
20
0.11485127
30
0
70
32
0
VERTEX
8
0
62
5
10
0.28284271
20
0.12632603
30
0
70
32
0
SEQEND
8
0
0
POLYLINE
8
0
62
30
66
1
10
0
20
0
30
0
70
8
0
VERTEX
8
0
62
30
10
0
20
0.11485127
30
0
70
32
0
VERTEX
8
0
62
30
10
0.28284271
20
0.11485127
30
0
70
32
0
SEQEND
8
0
0
POLYLINE
8
0
62
30
66
1
10
0
20
0
30
0
70
8
0
VERTEX
8
0
62
30
10
0.070710678
20
0.1033765
30
0
70
32
0
VERTEX
8
0
62
30
10
0.070710678
20
0.11485127
30
0
70
32
0
SEQEND
8
0
0
POLYLINE
8
0
62
30
66
1
10
0
20
0
30
0
70
8
0
VERTEX
8
0
62
30
10
0.14142136
20
0.11485126
30
0
70
32
0
VERTEX
8
0
62
30
10
0.14142136
20
0.11485127
30
0
70
32
0
SEQEND
8
0
0
POLYLINE
8
0
62
30
66
1
10
0
20
0
30
0
70
8
0
VERTEX
8
0
62
30
10
0.21213203
20
0.11485127
30
0
70
32
0
VERTEX
8
0
62
30
10
0.21213203
20
0.11485127
30
0
70
32
0
SEQEND
8
0
0
POLYLINE
8
0
62
5
66
1
10
0
20
0
30
0
70
8
0
VERTEX
8
0
62
5
10
0.070710678
20
0.101
30
0
70
32
0
VERTEX
8
0
62
5
10
0.070710678
20
0.1033765
30
0
70
32
0
SEQEND
8
0
0
POLYLINE
8
0
62
5
66
1
10
0
20
0
30
0
70
8
0
VERTEX
8
0
62
5
10
0.14142136
20
0.101
30
0
70
32
0
VERTEX
8
0
62
5
10
0.14142136
20
0.11485126
30
0
70
32
0
SEQEND
8
0
0
POLYLINE
8
0
62
5
66
1
10
0
20
0
30
0
70
8
0
VERTEX
8
0
62
5
10
0.21213203
20
0.101
30
0
70
32
0
VERTEX
8
0
62
5
10
0.21213203
20
0.11485127
30
0
70
32
0
SEQEND
8
0
0
POLYLINE
8
0
62
5
66
1
10
0
20
0
30
0
70
8
0
VERTEX
8
0
62
5
10
0.070710678
20
0.11485127
30
0
70
32
0
VERTEX
8
0
62
5
10
0.070710678
20
0.12870254
30
0
70
32
0
SEQEND
8
0
0
POLYLINE
8
0
62
5
66
1
10
0
20
0
30
0
70
8
0
VERTEX
8
0
62
5
10
0.14142136
20
0.11485127
30
0
70
32
0
VERTEX
8
0
62
5
10
0.14142136
20
0.12870254
30
0
70
32
0
SEQEND
8
0
0
POLYLINE
8
0
62
5
66
1
10
0
20
0
30
0
70
8
0
VERTEX
8
0
62
5
10
0.21213203
20
0.11485127
30
0
70
32
0
VERTEX
8
0
62
5
10
0.21213203
20
0.12870254
30
0
70
32
0
SEQEND
8
0
0
POLYLINE
8
0
62
30
66
1
10
0
20
0
30
0
70
8
0
VERTEX
8
0
62
30
10
0
20
0.10337651
30
0
70
32
0
VERTEX
8
0
62
30
10
0.0097627734
20
0.11485127
30
0
70
32
0
VERTEX
8
0
62
30
10
0
20
0.12632603
30
0
70
32
0
SEQEND
8
0
0
POLYLINE
8
0
62
30
66
1
10
0
20
0
30
0
70
8
0
VERTEX
8
0
62
30
10
0.070710678
20
0.1033765
30
0
70
32
0
VERTEX
8
0
62
30
10
0.080473459
20
0.11485127
30
0
70
32
0
VERTEX
8
0
62
30
10
0.070710678
20
0.12632605
30
0
70
32
0
SEQEND
8
0
0
POLYLINE
8
0
62
30
66
1
10
0
20
0
30
0
70
8
0
VERTEX
8
0
62
30
10
0.14142136
20
0.11485126
30
0
70
32
0
VERTEX
8
0
62
30
10
0.14142137
20
0.11485127
30
0
70
32
0
VERTEX
8
0
62
30
10
0.14142136
20
0.11485128
30
0
70
32
0
SEQEND
8
0
0
POLYLINE
8
0
62
30
66
1
10
0
20
0
30
0
70
8
0
VERTEX
8
0
62
30
10
0.21213203
20
0.11485127
30
0
70
32
0
VERTEX
8
0
62
30
10
0.21213203
20
0.11485127
30
0
70
32
0
VERTEX
8
0
62
30
10
0.21213203
20
0.11485127
30
0
70
32
0
SEQEND
8
0
0
POLYLINE
8
0
62
5
66
1
10
0
20
0
30
0
70
8
0
VERTEX
8
0
62
5
10
0.56568542
20
0.12870254
30
0
70
32
0
VERTEX
8
0
62
5
10
0.56568542
20
0.101
30
0
70
32
0
SEQEND
8
0
0
POLYLINE
8
0
62
5
66
1
10
0
20
0
30
0
70
8
0
VERTEX
8
0
62
5
10
0.28284271
20
0.10337651
30
0
70
32
0
VERTEX
8
0
62
5
10
0.35355339
20
0.1033765
30
0
70
32
0
VERTEX
8
0
62
5
10
0.42426407
20
0.11485126
30
0
70
32
0
VERTEX
8
0
62
5
10
0.49497475
20
0.11485127
30
0
70
32
0
VERTEX
8
0
62
5
10
0.56568542
20
0.10337651
30
0
70
32
0
SEQEND
8
0
0
POLYLINE
8
0
62
5
66
1
10
0
20
0
30
0
70
8
0
SEQEND
8
0
0
POLYLINE
8
0
62
5
66
1
10
0
20
0
30
0
70
8
0
VERTEX
8
0
62
5
10
0.28284271
20
0.12632603
30
0
70
32
0
VERTEX
8
0
62
5
10
0.35355339
20
0.12632605
30
0
70
32
0
VERTEX
8
0
62
5
10
0.42426407
20
0.11485128
30
0
70
32
0
VERTEX
8
0
62
5
10
0.49497475
20
0.11485127
30
0
70
32
0
VERTEX
8
0
62
5
10
0.56568542
20
0.12632603
30
0
70
32
0
SEQEND
8
0
0
POLYLINE
8
0
62
30
66
1
10
0
20
0
30
0
70
8
0
VERTEX
8
0
62
30
10
0.28284271
20
0.11485127
30
0
70
32
0
VERTEX
8
0
62
30
10
0.56568542
20
0.11485127
30
0
70
32
0
SEQEND
8
0
0
POLYLINE
8
0
62
30
66
1
10
0
20
0
30
0
70
8
0
VERTEX
8
0
62
30
10
0.35355339
20
0.1033765
30
0
70
32
0
VERTEX
8
0
62
30
10
0.35355339
20
0.11485127
30
0
70
32
0
SEQEND
8
0
0
POLYLINE
8
0
62
30
66
1
10
0
20
0
30
0
70
8
0
VERTEX
8
0
62
30
10
0.42426407
20
0.11485126
30
0
70
32
0
VERTEX
8
0
62
30
10
0.42426407
20
0.11485127
30
0
70
32
0
SEQEND
8
0
0
POLYLINE
8
0
62
30
66
1
10
0
20
0
30
0
70
8
0
VERTEX
8
0
62
30
10
0.49497475
20
0.11485127
30
0
70
32
0
VERTEX
8
0
62
30
10
0.49497475
20
0.11485127
30
0
70
32
0
SEQEND
8
0
0
POLYLINE
8
0
62
5
66
1
10
0
20
0
30
0
70
8
0
VERTEX
8
0
62
5
10
0.35355339
20
0.101
30
0
70
32
0
VERTEX
8
0
62
5
10
0.35355339
20
0.1033765
30
0
70
32
0
SEQEND
8
0
0
POLYLINE
8
0
62
5
66
1
10
0
20
0
30
0
70
8
0
VERTEX
8
0
62
5
10
0.42426407
20
0.101
30
0
70
32
0
VERTEX
8
0
62
5
10
0.42426407
20
0.11485126
30
0
70
32
0
SEQEND
8
0
0
POLYLINE
8
0
62
5
66
1
10
0
20
0
30
0
70
8
0
VERTEX
8
0
62
5
10
0.49497475
20
0.101
30
0
70
32
0
VERTEX
8
0
62
5
10
0.49497475
20
0.11485127
30
0
70
32
0
SEQEND
8
0
0
POLYLINE
8
0
62
5
66
1
10
0
20
0
30
0
70
8
0
VERTEX
8
0
62
5
10
0.35355339
20
0.11485127
30
0
70
32
0
VERTEX
8
0
62
5
10
0.35355339
20
0.12870254
30
0
70
32
0
SEQEND
8
0
0
POLYLINE
8
0
62
5
66
1
10
0
20
0
30
0
70
8
0
VERTEX
8
0
62
5
10
0.42426407
20
0.11485127
30
0
70
32
0
VERTEX
8
0
62
5
10
0.42426407
20
0.12870254
30
0
70
32
0
SEQEND
8
0
0
POLYLINE
8
0
62
5
66
1
10
0
20
0
30
0
70
8
0
VERTEX
8
0
62
5
10
0.49497475
20
0.11485127
30
0
70
32
0
VERTEX
8
0
62
5
10
0.49497475
20
0.12870254
30
0
70
32
0
SEQEND
8
0
0
POLYLINE
8
0
62
30
66
1
10
0
20
0
30
0
70
8
0
VERTEX
8
0
62
30
10
0.28284271
20
0.10337651
30
0
70
32
0
VERTEX
8
0
62
30
10
0.29260549
20
0.11485127
30
0
70
32
0
VERTEX
8
0
62
30
10
0.28284271
20
0.12632603
30
0
70
32
0
SEQEND
8
0
0
POLYLINE
8
0
62
30
66
1
10
0
20
0
30
0
70
8
0
VERTEX
8
0
62
30
10
0.35355339
20
0.1033765
30
0
70
32
0
VERTEX
8
0
62
30
10
0.36331617
20
0.11485127
30
0
70
32
0
VERTEX
8
0
62
30
10
0.35355339
20
0.12632605
30
0
70
32
0
SEQEND
8
0
0
POLYLINE
8
0
62
30
66
1
10
0
20
0
30
0
70
8
0
VERTEX
8
0
62
30
10
0.42426407
20
0.11485126
30
0
70
32
0
VERTEX
8
0
62
30
10
0.42426408
20
0.11485127
30
0
70
32
0
VERTEX
8
0
62
30
10
0.42426407
20
0.11485128
30
0
70
32
0
SEQEND
8
0
0
POLYLINE
8
0
62
30
66
1
10
0
20
0
30
0
70
8
0
VERTEX
8
0
62
30
10
0.49497475
20
0.11485127
30
0
70
32
0
VERTEX
8
0
62
30
10
0.49497475
20
0.11485127
30
0
70
32
0
VERTEX
8
0
62
30
10
0.49497475
20
0.11485127
30
0
70
32
0
SEQEND
8
0
0
POLYLINE
8
0
62
5
66
1
10
0
20
0
30
0
70
8
0
VERTEX
8
0
62
5
10
-0.28284271
20
0.101
30
0
70
32
0
VERTEX
8
0
62
5
10
-0.28284271
20
0.12870254
30
0
70
32
0
SEQEND
8
0
0
POLYLINE
8
0
62
5
66
1
10
0
20
0
30
0
70
8
0
VERTEX
8
0
62
5
10
-0.28284271
20
0.10337651
30
0
70
32
0
VERTEX
8
0
62
5
10
-0.21213203
20
0.1033765
30
0
70
32
0
VERTEX
8
0
62
5
10
-0.14142136
20
0.11485126
30
0
70
32
0
VERTEX
8
0
62
5
10
-0.070710678
20
0.11485127
30
0
70
32
0
VERTEX
8
0
62
5
10
0
20
0.10337651
30
0
70
32
0
SEQEND
8
0
0
POLYLINE
8
0
62
5
66
1
10
0
20
0
30
0
70
8
0
SEQEND
8
0
0
POLYLINE
8
0
62
5
66
1
10
0
20
0
30
0
70
8
0
VERTEX
8
0
62
5
10
-0.28284271
20
0.12632603
30
0
70
32
0
VERTEX
8
0
62
5
10
-0.21213203
20
0.12632605
30
0
70
32
0
VERTEX
8
0
62
5
10
-0.14142136
20
0.11485128
30
0
70
32
0
VERTEX
8
0
62
5
10
-0.070710678
20
0.11485127
30
0
70
32
0
VERTEX
8
0
62
5
10
0
20
0.12632603
30
0
70
32
0
SEQEND
8
0
0
POLYLINE
8
0
62
30
66
1
10
0
20
0
30
0
70
8
0
VERTEX
8
0
62
30
10
-0.28284271
20
0.11485127
30
0
70
32
0
VERTEX
8
0
62
30
10
0
20
0.11485127
30
0
70
32
0
SEQEND
8
0
0
POLYLINE
8
0
62
30
66
1
10
0
20
0
30
0
70
8
0
VERTEX
8
0
62
30
10
-0.21213203
20
0.1033765
30
0
70
32
0
VERTEX
8
0
62
30
10
-0.21213203
20
0.11485127
30
0
70
32
0
SEQEND
8
0
0
POLYLINE
8
0
62
30
66
1
10
0
20
0
30
0
70
8
0
VERTEX
8
0
62
30
10
-0.14142136
20
0.11485126
30
0
70
32
0
VERTEX
8
0
62
30
10
-0.14142136
20
0.11485127
30
0
70
32
0
SEQEND
8
0
0
POLYLINE
8
0
62
30
66
1
10
0
20
0
30
0
70
8
0
VERTEX
8
0
62
30
10
-0.070710678
20
0.11485127
30
0
70
32
0
VERTEX
8
0
62
30
10
-0.070710678
20
0.11485127
30
0
70
32
0
SEQEND
8
0
0
POLYLINE
8
0
62
5
66
1
10
0
20
0
30
0
70
8
0
VERTEX
8
0
62
5
10
-0.21213203
20
0.101
30
0
70
32
0
VERTEX
8
0
62
5
10
-0.21213203
20
0.1033765
30
0
70
32
0
SEQEND
8
0
0
POLYLINE
8
0
62
5
66
1
10
0
20
0
30
0
70
8
0
VERTEX
8
0
62
5
10
-0.14142136
20
0.101
30
0
70
32
0
VERTEX
8
0
62
5
10
-0.14142136
20
0.11485126
30
0
70
32
0
SEQEND
8
0
0
POLYLINE
8
0
62
5
66
1
10
0
20
0
30
0
70
8
0
VERTEX
8
0
62
5
10
-0.070710678
20
0.101
30
0
70
32
0
VERTEX
8
0
62
5
10
-0.070710678
20
0.11485127
30
0
70
32
0
SEQEND
8
0
0
POLYLINE
8
0
62
5
66
1
10
0
20
0
30
0
70
8
0
VERTEX
8
0
62
5
10
-0.21213203
20
0.11485127
30
0
70
32
0
VERTEX
8
0
62
5
10
-0.21213203
20
0.12870254
30
0
70
32
0
SEQEND
8
0
0
POLYLINE
8
0
62
5
66
1
10
0
20
0
30
0
70
8
0
VERTEX
8
0
62
5
10
-0.14142136
20
0.11485127
30
0
70
32
0
VERTEX
8
0
62
5
10
-0.14142136
20
0.12870254
30
0
70
32
0
SEQEND
8
0
0
POLYLINE
8
0
62
5
66
1
10
0
20
0
30
0
70
8
0
VERTEX
8
0
62
5
10
-0.070710678
20
0.11485127
30
0
70
32
0
VERTEX
8
0
62
5
10
-0.070710678
20
0.12870254
30
0
70
32
0
SEQEND
8
0
0
POLYLINE
8
0
62
30
66
1
10
0
20
0
30
0
70
8
0
VERTEX
8
0
62
30
10
-0.28284271
20
0.10337651
30
0
70
32
0
VERTEX
8
0
62
30
10
-0.27307994
20
0.11485127
30
0
70
32
0
VERTEX
8
0
62
30
10
-0.28284271
20
0.12632603
30
0
70
32
0
SEQEND
8
0
0
POLYLINE
8
0
62
30
66
1
10
0
20
0
30
0
70
8
0
VERTEX
8
0
62
30
10
-0.21213203
20
0.1033765
30
0
70
32
0
VERTEX
8
0
62
30
10
-0.20236925
20
0.11485127
30
0
70
32
0
VERTEX
8
0
62
30
10
-0.21213203
20
0.12632605
30
0
70
32
0
SEQEND
8
0
0
POLYLINE
8
0
62
30
66
1
10
0
20
0
30
0
70
8
0
VERTEX
8
0
62
30
10
-0.14142136
20
0.11485126
30
0
70
32
0
VERTEX
8
0
62
30
10
-0.14142134
20
0.11485127
30
0
70
32
0
VERTEX
8
0
62
30
10
-0.14142136
20
0.11485128
30
0
70
32
0
SEQEND
8
0
0
POLYLINE
8
0
62
30
66
1
10
0
20
0
30
0
70
8
0
VERTEX
8
0
62
30
10
-0.070710678
20
0.11485127
30
0
70
32
0
VERTEX
8
0
62
30
10
-0.070710678
20
0.11485127
30
0
70
32
0
VERTEX
8
0
62
30
10
-0.070710678
20
0.11485127
30
0
70
32
0
SEQEND
8
0
0
POLYLINE
8
0
62
5
66
1
10
0
20
0
30
0
70
8
0
VERTEX
8
0
62
5
10
0
20
0.12870254
30
0
70
32
0
VERTEX
8
0
62
5
10
0
20
0.16032532
30
0
70
32
0
SEQEND
8
0
0
POLYLINE
8
0
62
5
66
1
10
0
20
0
30
0
70
8
0
VERTEX
8
0
62
5
10
0.070710678
20
0.12870254
30
0
70
32
0
VERTEX
8
0
62
5
10
0.070710678
20
0.16032532
30
0
70
32
0
SEQEND
8
0
0
POLYLINE
8
0
62
5
66
1
10
0
20
0
30
0
70
8
0
VERTEX
8
0
62
5
10
0.14142136
20
0.12870254
30
0
70
32
0
VERTEX
8
0
62
5
10
0.14142136
20
0.16032532
30
0
70
32
0
SEQEND
8
0
0
POLYLINE
8
0
62
5
66
1
10
0
20
0
30
0
70
8
0
VERTEX
8
0
62
5
10
0.21213203
20
0.12870254
30
0
70
32
0
VERTEX
8
0
62
5
10
0.21213203
20
0.16032532
30
0
70
32
0
SEQEND
8
0
0
POLYLINE
8
0
62
5
66
1
10
0
20
0
30
0
70
8
0
VERTEX
8
0
62
5
10
0.28284271
20
0.12870254
30
0
70
32
0
VERTEX
8
0
62
5
10
0.28284271
20
0.16032532
30
0
70
32
0
SEQEND
8
0
0
POLYLINE
8
0
62
5
66
1
10
0
20
0
30
0
70
8
0
VERTEX
8
0
62
5
10
0.070710678
20
0.12870254
30
0
70
32
0
VERTEX
8
0
62
5
10
0.070710678
20
0.12870254
30
0
70
32
0
SEQEND
8
0
0
POLYLINE
8
0
62
5
66
1
10
0
20
0
30
0
70
8
0
VERTEX
8
0
62
5
10
0.14142136
20
0.12870254
30
0
70
32
0
VERTEX
8
0
62
5
10
0.14142136
20
0.12870254
30
0
70
32
0
SEQEND
8
0
0
POLYLINE
8
0
62
5
66
1
10
0
20
0
30
0
70
8
0
VERTEX
8
0
62
5
10
0.21213203
20
0.12870254
30
0
70
32
0
VERTEX
8
0
62
5
10
0.21213203
20
0.12870254
30
0
70
32
0
SEQEND
8
0
0
POLYLINE
8
0
62
5
66
1
10
0
20
0
30
0
70
8
0
VERTEX
8
0
62
5
10
1.0525923e-08
20
0.16032532
30
0
70
32
0
VERTEX
8
0
62
5
10
1.0525923e-08
20
0.16032532
30
0
70
32
0
SEQEND
8
0
0
POLYLINE
8
0
62
5
66
1
10
0
20
0
30
0
70
8
0
VERTEX
8
0
62
5
10
0.070710689
20
0.16032532
30
0
70
32
0
VERTEX
8
0
62
5
10
0.070710689
20
0.16032532
30
0
70
32
0
SEQEND
8
0
0
POLYLINE
8
0
62
5
66
1
10
0
20
0
30
0
70
8
0
VERTEX
8
0
62
5
10
0.14142137
20
0.16032532
30
0
70
32
0
VERTEX
8
0
62
5
10
0.14142137
20
0.16032532
30
0
70
32
0
SEQEND
8
0
0
POLYLINE
8
0
62
5
66
1
10
0
20
0
30
0
70
8
0
VERTEX
8
0
62
5
10
0.21213204
20
0.16032532
30
0
70
32
0
VERTEX
8
0
62
5
10
0.21213204
20
0.16032532
30
0
70
32
0
SEQEND
8
0
0
POLYLINE
8
0
62
5
66
1
10
0
20
0
30
0
70
8
0
VERTEX
8
0
62
5
10
0.35355339
20
0.12870254
30
0
70
32
0
VERTEX
8
0
62
5
10
0.35355339
20
0.16032532
30
0
70
32
0
SEQEND
8
0
0
POLYLINE
8
0
62
5
66
1
10
0
20
0
30
0
70
8
0
VERTEX
8
0
62
5
10
0.42426407
20
0.12870254
30
0
70
32
0
VERTEX
8
0
62
5
10
0.42426407
20
0.16032532
30
0
70
32
0
SEQEND
8
0
0
POLYLINE
8
0
62
5
66
1
10
0
20
0
30
0
70
8
0
VERTEX
8
0
62
5
10
0.49497475
20
0.12870254
30
0
70
32
0
VERTEX
8
0
62
5
10
0.49497475
20
0.16032532
30
0
70
32
0
SEQEND
8
0
0
POLYLINE
8
0
62
5
66
1
10
0
20
0
30
0
70
8
0
VERTEX
8
0
62
5
10
0.56568542
20
0.12870254
30
0
70
32
0
VERTEX
8
0
62
5
10
0.56568542
20
0.16032532
30
0
70
32
0
SEQEND
8
0
0
POLYLINE
8
0
62
5
66
1
10
0
20
0
30
0
70
8
0
VERTEX
8
0
62
5
10
0.35355339
20
0.12870254
30
0
70
32
0
VERTEX
8
0
62
5
10
0.35355339
20
0.12870254
30
0
70
32
0
SEQEND
8
0
0
POLYLINE
8
0
62
5
66
1
10
0
20
0
30
0
70
8
0
VERTEX
8
0
62
5
10
0.42426407
20
0.12870254
30
0
70
32
0
VERTEX
8
0
62
5
10
0.42426407
20
0.12870254
30
0
70
32
0
SEQEND
8
0
0
POLYLINE
8
0
62
5
66
1
10
0
20
0
30
0
70
8
0
VERTEX
8
0
62
5
10
0.49497475
20
0.12870254
30
0
70
32
0
VERTEX
8
0
62
5
10
0.49497475
20
0.12870254
30
0
70
32
0
SEQEND
8
0
0
POLYLINE
8
0
62
5
66
1
10
0
20
0
30
0
70
8
0
VERTEX
8
0
62
5
10
0.28284272
20
0.16032532
30
0
70
32
0
VERTEX
8
0
62
5
10
0.28284272
20
0.16032532
30
0
70
32
0
SEQEND
8
0
0
POLYLINE
8
0
62
5
66
1
10
0
20
0
30
0
70
8
0
VERTEX
8
0
62
5
10
0.3535534
20
0.16032532
30
0
70
32
0
VERTEX
8
0
62
5
10
0.3535534
20
0.16032532
30
0
70
32
0
SEQEND
8
0
0
POLYLINE
8
0
62
5
66
1
10
0
20
0
30
0
70
8
0
VERTEX
8
0
62
5
10
0.42426408
20
0.16032532
30
0
70
32
0
VERTEX
8
0
62
5
10
0.42426408
20
0.16032532
30
0
70
32
0
SEQEND
8
0
0
POLYLINE
8
0
62
5
66
1
10
0
20
0
30
0
70
8
0
VERTEX
8
0
62
5
10
0.49497476
20
0.16032532
30
0
70
32
0
VERTEX
8
0
62
5
10
0.49497476
20
0.16032532
30
0
70
32
0
SEQEND
8
0
0
POLYLINE
8
0
62
5
66
1
10
0
20
0
30
0
70
8
0
VERTEX
8
0
62
5
10
-0.21213203
20
0.12870254
30
0
70
32
0
VERTEX
8
0
62
5
10
-0.21213203
20
0.16032532
30
0
70
32
0
SEQEND
8
0
0
POLYLINE
8
0
62
5
66
1
10
0
20
0
30
0
70
8
0
VERTEX
8
0
62
5
10
-0.14142136
20
0.12870254
30
0
70
32
0
VERTEX
8
0
62
5
10
-0.14142136
20
0.16032532
30
0
70
32
0
SEQEND
8
0
0
POLYLINE
8
0
62
5
66
1
10
0
20
0
30
0
70
8
0
VERTEX
8
0
62
5
10
-0.070710678
20
0.12870254
30
0
70
32
0
VERTEX
8
0
62
5
10
-0.070710678
20
0.16032532
30
0
70
32
0
SEQEND
8
0
0
POLYLINE
8
0
62
5
66
1
10
0
20
0
30
0
70
8
0
VERTEX
8
0
62
5
10
0
20
0.12870254
30
0
70
32
0
VERTEX
8
0
62
5
10
0
20
0.16032532
30
0
70
32
0
SEQEND
8
0
0
POLYLINE
8
0
62
5
66
1
10
0
20
0
30
0
70
8
0
VERTEX
8
0
62
5
10
-0.21213203
20
0.12870254
30
0
70
32
0
VERTEX
8
0
62
5
10
-0.21213203
20
0.12870254
30
0
70
32
0
SEQEND
8
0
0
POLYLINE
8
0
62
5
66
1
10
0
20
0
30
0
70
8
0
VERTEX
8
0
62
5
10
-0.14142136
20
0.12870254
30
0
70
32
0
VERTEX
8
0
62
5
10
-0.14142136
20
0.12870254
30
0
70
32
0
SEQEND
8
0
0
POLYLINE
8
0
62
5
66
1
10
0
20
0
30
0
70
8
0
VERTEX
8
0
62
5
10
-0.070710678
20
0.12870254
30
0
70
32
0
VERTEX
8
0
62
5
10
-0.070710678
20
0.12870254
30
0
70
32
0
SEQEND
8
0
0
POLYLINE
8
0
62
5
66
1
10
0
20
0
30
0
70
8
0
VERTEX
8
0
62
5
10
-0.2828427
20
0.16032532
30
0
70
32
0
VERTEX
8
0
62
5
10
-0.2828427
20
0.16032532
30
0
70
32
0
SEQEND
8
0
0
POLYLINE
8
0
62
5
66
1
10
0
20
0
30
0
70
8
0
VERTEX
8
0
62
5
10
-0.21213202
20
0.16032532
30
0
70
32
0
VERTEX
8
0
62
5
10
-0.21213202
20
0.16032532
30
0
70
32
0
SEQEND
8
0
0
POLYLINE
8
0
62
5
66
1
10
0
20
0
30
0
70
8
0
VERTEX
8
0
62
5
10
-0.14142135
20
0.16032532
30
0
70
32
0
VERTEX
8
0
62
5
10
-0.14142135
20
0.16032532
30
0
70
32
0
SEQEND
8
0
0
POLYLINE
8
0
62
5
66
1
10
0
20
0
30
0
70
8
0
VERTEX
8
0
62
5
10
-0.070710668
20
0.16032532
30
0
70
32
0
VERTEX
8
0
62
5
10
-0.070710668
20
0.16032532
30
0
70
32
0
SEQEND
8
0
0
POLYLINE
8
0
62
5
66
1
10
0
20
0
30
0
70
8
0
VERTEX
8
0
62
5
10
1.0525923e-08
20
0.16032532
30
0
70
32
0
VERTEX
8
0
62
5
10
1.0525923e-08
20
0.28681644
30
0
70
32
0
SEQEND
8
0
0
POLYLINE
8
0
62
5
66
1
10
0
20
0
30
0
70
8
0
VERTEX
8
0
62
5
10
0.28284272
20
0.16032532
30
0
70
32
0
VERTEX
8
0
62
5
10
0.28284272
20
0.28681644
30
0
70
32
0
SEQEND
8
0
0
POLYLINE
8
0
62
5
66
1
10
0
20
0
30
0
70
8
0
VERTEX
8
0
62
5
10
0.070710689
20
0.16032532
30
0
70
32
0
VERTEX
8
0
62
5
10
0.070710689
20
0.28681644
30
0
70
32
0
SEQEND
8
0
0
POLYLINE
8
0
62
5
66
1
10
0
20
0
30
0
70
8
0
VERTEX
8
0
62
5
10
0.14142137
20
0.16032532
30
0
70
32
0
VERTEX
8
0
62
5
10
0.14142137
20
0.28681644
30
0
70
32
0
SEQEND
8
0
0
POLYLINE
8
0
62
5
66
1
10
0
20
0
30
0
70
8
0
VERTEX
8
0
62
5
10
0.21213204
20
0.16032532
30
0
70
32
0
VERTEX
8
0
62
5
10
0.21213204
20
0.28681644
30
0
70
32
0
SEQEND
8
0
0
POLYLINE
8
0
62
5
66
1
10
0
20
0
30
0
70
8
0
VERTEX
8
0
62
5
10
0.56568544
20
0.16032532
30
0
70
32
0
VERTEX
8
0
62
5
10
0.56568544
20
0.28681644
30
0
70
32
0
SEQEND
8
0
0
POLYLINE
8
0
62
5
66
1
10
0
20
0
30
0
70
8
0
VERTEX
8
0
62
5
10
0.3535534
20
0.16032532
30
0
70
32
0
VERTEX
8
0
62
5
10
0.3535534
20
0.28681644
30
0
70
32
0
SEQEND
8
0
0
POLYLINE
8
0
62
5
66
1
10
0
20
0
30
0
70
8
0
VERTEX
8
0
62
5
10
0.42426408
20
0.16032532
30
0
70
32
0
VERTEX
8
0
62
5
10
0.42426408
20
0.28681644
30
0
70
32
0
SEQEND
8
0
0
POLYLINE
8
0
62
5
66
1
10
0
20
0
30
0
70
8
0
VERTEX
8
0
62
5
10
0.49497476
20
0.16032532
30
0
70
32
0
VERTEX
8
0
62
5
10
0.49497476
20
0.28681644
30
0
70
32
0
SEQEND
8
0
0
POLYLINE
8
0
62
5
66
1
10
0
20
0
30
0
70
8
0
VERTEX
8
0
62
5
10
-0.2828427
20
0.16032532
30
0
70
32
0
VERTEX
8
0
62
5
10
-0.2828427
20
0.28681644
30
0
70
32
0
SEQEND
8
0
0
POLYLINE
8
0
62
5
66
1
10
0
20
0
30
0
70
8
0
VERTEX
8
0
62
5
10
-0.21213202
20
0.16032532
30
0
70
32
0
VERTEX
8
0
62
5
10
-0.21213202
20
0.28681644
30
0
70
32
0
SEQEND
8
0
0
POLYLINE
8
0
62
5
66
1
10
0
20
0
30
0
70
8
0
VERTEX
8
0
62
5
10
-0.14142135
20
0.16032532
30
0
70
32
0
VERTEX
8
0
62
5
10
-0.14142135
20
0.28681644
30
0
70
32
0
SEQEND
8
0
0
POLYLINE
8
0
62
5
66
1
10
0
20
0
30
0
70
8
0
VERTEX
8
0
62
5
10
-0.070710668
20
0.16032532
30
0
70
32
0
VERTEX
8
0
62
5
10
-0.070710668
20
0.28681644
30
0
70
32
0
SEQEND
8
0
0
POLYLINE
8
0
62
5
66
1
10
0
20
0
30
0
70
8
0
VERTEX
8
0
62
5
10
1.0525923e-08
20
0.28681644
30
0
70
32
0
VERTEX
8
0
62
5
10
1.0525923e-08
20
0.40985776
30
0
70
32
0
SEQEND
8
0
0
POLYLINE
8
0
62
5
66
1
10
0
20
0
30
0
70
8
0
VERTEX
8
0
62
5
10
0.28284272
20
0.40985776
30
0
70
32
0
VERTEX
8
0
62
5
10
0.28284272
20
0.28681644
30
0
70
32
0
SEQEND
8
0
0
POLYLINE
8
0
62
5
66
1
10
0
20
0
30
0
70
8
0
VERTEX
8
0
62
5
10
1.0525923e-08
20
0.29737171
30
0
70
32
0
VERTEX
8
0
62
5
10
0.070710689
20
0.29737173
30
0
70
32
0
VERTEX
8
0
62
5
10
0.14142137
20
0.3483371
30
0
70
32
0
VERTEX
8
0
62
5
10
0.21213204
20
0.34833708
30
0
70
32
0
VERTEX
8
0
62
5
10
0.28284272
20
0.29737171
30
0
70
32
0
SEQEND
8
0
0
POLYLINE
8
0
62
5
66
1
10
0
20
0
30
0
70
8
0
SEQEND
8
0
0
POLYLINE
8
0
62
5
66
1
10
0
20
0
30
0
70
8
0
VERTEX
8
0
62
5
10
1.0525923e-08
20
0.39930249
30
0
70
32
0
VERTEX
8
0
62
5
10
0.070710689
20
0.39930248
30
0
70
32
0
VERTEX
8
0
62
5
10
0.14142137
20
0.3483371
30
0
70
32
0
VERTEX
8
0
62
5
10
0.21213204
20
0.34833712
30
0
70
32
0
VERTEX
8
0
62
5
10
0.28284272
20
0.39930249
30
0
70
32
0
SEQEND
8
0
0
POLYLINE
8
0
62
30
66
1
10
0
20
0
30
0
70
8
0
VERTEX
8
0
62
30
10
1.0525923e-08
20
0.3483371
30
0
70
32
0
VERTEX
8
0
62
30
10
0.28284272
20
0.3483371
30
0
70
32
0
SEQEND
8
0
0
POLYLINE
8
0
62
30
66
1
10
0
20
0
30
0
70
8
0
VERTEX
8
0
62
30
10
0.070710689
20
0.29737173
30
0
70
32
0
VERTEX
8
0
62
30
10
0.070710689
20
0.3483371
30
0
70
32
0
SEQEND
8
0
0
POLYLINE
8
0
62
30
66
1
10
0
20
0
30
0
70
8
0
VERTEX
8
0
62
30
10
0.14142137
20
0.3483371
30
0
70
32
0
VERTEX
8
0
62
30
10
0.14142137
20
0.3483371
30
0
70
32
0
SEQEND
8
0
0
POLYLINE
8
0
62
30
66
1
10
0
20
0
30
0
70
8
0
VERTEX
8
0
62
30
10
0.21213204
20
0.34833708
30
0
70
32
0
VERTEX
8
0
62
30
10
0.21213204
20
0.3483371
30
0
70
32
0
SEQEND
8
0
0
POLYLINE
8
0
62
5
66
1
10
0
20
0
30
0
70
8
0
VERTEX
8
0
62
5
10
0.070710689
20
0.28681644
30
0
70
32
0
VERTEX
8
0
62
5
10
0.070710689
20
0.29737173
30
0
70
32
0
SEQEND
8
0
0
POLYLINE
8
0
62
5
66
1
10
0
20
0
30
0
70
8
0
VERTEX
8
0
62
5
10
0.14142137
20
0.28681644
30
0
70
32
0
VERTEX
8
0
62
5
10
0.14142137
20
0.3483371
30
0
70
32
0
SEQEND
8
0
0
POLYLINE
8
0
62
5
66
1
10
0
20
0
30
0
70
8
0
VERTEX
8
0
62
5
10
0.21213204
20
0.28681644
30
0
70
32
0
VERTEX
8
0
62
5
10
0.21213204
20
0.34833708
30
0
70
32
0
SEQEND
8
0
0
POLYLINE
8
0
62
5
66
1
10
0
20
0
30
0
70
8
0
VERTEX
8
0
62
5
10
0.070710689
20
0.3483371
30
0
70
32
0
VERTEX
8
0
62
5
10
0.070710689
20
0.40985776
30
0
70
32
0
SEQEND
8
0
0
POLYLINE
8
0
62
5
66
1
10
0
20
0
30
0
70
8
0
VERTEX
8
0
62
5
10
0.14142137
20
0.3483371
30
0
70
32
0
VERTEX
8
0
62
5
10
0.14142137
20
0.40985776
30
0
70
32
0
SEQEND
8
0
0
POLYLINE
8
0
62
5
66
1
10
0
20
0
30
0
70
8
0
VERTEX
8
0
62
5
10
0.21213204
20
0.3483371
30
0
70
32
0
VERTEX
8
0
62
5
10
0.21213204
20
0.40985776
30
0
70
32
0
SEQEND
8
0
0
POLYLINE
8
0
62
30
66
1
10
0
20
0
30
0
70
8
0
VERTEX
8
0
62
30
10
1.0525923e-08
20
0.29737171
30
0
70
32
0
VERTEX
8
0
62
30
10
0.026090123
20
0.3483371
30
0
70
32
0
VERTEX
8
0
62
30
10
1.0525923e-08
20
0.39930249
30
0
70
32
0
SEQEND
8
0
0
POLYLINE
8
0
62
30
66
1
10
0
20
0
30
0
70
8
0
VERTEX
8
0
62
30
10
0.070710689
20
0.29737173
30
0
70
32
0
VERTEX
8
0
62
30
10
0.096800799
20
0.3483371
30
0
70
32
0
VERTEX
8
0
62
30
10
0.070710689
20
0.39930248
30
0
70
32
0
SEQEND
8
0
0
POLYLINE
8
0
62
30
66
1
10
0
20
0
30
0
70
8
0
VERTEX
8
0
62
30
10
0.14142137
20
0.3483371
30
0
70
32
0
VERTEX
8
0
62
30
10
0.14142137
20
0.3483371
30
0
70
32
0
VERTEX
8
0
62
30
10
0.14142137
20
0.3483371
30
0
70
32
0
SEQEND
8
0
0
POLYLINE
8
0
62
30
66
1
10
0
20
0
30
0
70
8
0
VERTEX
8
0
62
30
10
0.21213204
20
0.34833708
30
0
70
32
0
VERTEX
8
0
62
30
10
0.21213208
20
0.3483371
30
0
70
32
0
VERTEX
8
0
62
30
10
0.21213204
20
0.34833712
30
0
70
32
0
SEQEND
8
0
0
POLYLINE
8
0
62
5
66
1
10
0
20
0
30
0
70
8
0
VERTEX
8
0
62
5
10
0.56568544
20
0.40985776
30
0
70
32
0
VERTEX
8
0
62
5
10
0.56568544
20
0.28681644
30
0
70
32
0
SEQEND
8
0
0
POLYLINE
8
0
62
5
66
1
10
0
20
0
30
0
70
8
0
VERTEX
8
0
62
5
10
0.28284272
20
0.29737171
30
0
70
32
0
VERTEX
8
0
62
5
10
0.3535534
20
0.29737173
30
0
70
32
0
VERTEX
8
0
62
5
10
0.42426408
20
0.3483371
30
0
70
32
0
VERTEX
8
0
62
5
10
0.49497476
20
0.34833708
30
0
70
32
0
VERTEX
8
0
62
5
10
0.56568544
20
0.29737171
30
0
70
32
0
SEQEND
8
0
0
POLYLINE
8
0
62
5
66
1
10
0
20
0
30
0
70
8
0
SEQEND
8
0
0
POLYLINE
8
0
62
5
66
1
10
0
20
0
30
0
70
8
0
VERTEX
8
0
62
5
10
0.28284272
20
0.39930249
30
0
70
32
0
VERTEX
8
0
62
5
10
0.3535534
20
0.39930248
30
0
70
32
0
VERTEX
8
0
62
5
10
0.42426408
20
0.3483371
30
0
70
32
0
VERTEX
8
0
62
5
10
0.49497476
20
0.34833712
30
0
70
32
0
VERTEX
8
0
62
5
10
0.56568544
20
0.39930249
30
0
70
32
0
SEQEND
8
0
0
POLYLINE
8
0
62
30
66
1
10
0
20
0
30
0
70
8
0
VERTEX
8
0
62
30
10
0.28284272
20
0.3483371
30
0
70
32
0
VERTEX
8
0
62
30
10
0.56568544
20
0.3483371
30
0
70
32
0
SEQEND
8
0
0
POLYLINE
8
0
62
30
66
1
10
0
20
0
30
0
70
8
0
VERTEX
8
0
62
30
10
0.3535534
20
0.29737173
30
0
70
32
0
VERTEX
8
0
62
30
10
0.3535534
20
0.3483371
30
0
70
32
0
SEQEND
8
0
0
POLYLINE
8
0
62
30
66
1
10
0
20
0
30
0
70
8
0
VERTEX
8
0
62
30
10
0.42426408
20
0.3483371
30
0
70
32
0
VERTEX
8
0
62
30
10
0.42426408
20
0.3483371
30
0
70
32
0
SEQEND
8
0
0
POLYLINE
8
0
62
30
66
1
10
0
20
0
30
0
70
8
0
VERTEX
8
0
62
30
10
0.49497476
20
0.34833708
30
0
70
32
0
VERTEX
8
0
62
30
10
0.49497476
20
0.3483371
30
0
70
32
0
SEQEND
8
0
0
POLYLINE
8
0
62
5
66
1
10
0
20
0
30
0
70
8
0
VERTEX
8
0
62
5
10
0.3535534
20
0.28681644
30
0
70
32
0
VERTEX
8
0
62
5
10
0.3535534
20
0.29737173
30
0
70
32
0
SEQEND
8
0
0
POLYLINE
8
0
62
5
66
1
10
0
20
0
30
0
70
8
0
VERTEX
8
0
62
5
10
0.42426408
20
0.28681644
30
0
70
32
0
VERTEX
8
0
62
5
10
0.42426408
20
0.3483371
30
0
70
32
0
SEQEND
8
0
0
POLYLINE
8
0
62
5
66
1
10
0
20
0
30
0
70
8
0
VERTEX
8
0
62
5
10
0.49497476
20
0.28681644
30
0
70
32
0
VERTEX
8
0
62
5
10
0.49497476
20
0.34833708
30
0
70
32
0
SEQEND
8
0
0
POLYLINE
8
0
62
5
66
1
10
0
20
0
30
0
70
8
0
VERTEX
8
0
62
5
10
0.3535534
20
0.3483371
30
0
70
32
0
VERTEX
8
0
62
5
10
0.3535534
20
0.40985776
30
0
70
32
0
SEQEND
8
0
0
POLYLINE
8
0
62
5
66
1
10
0
20
0
30
0
70
8
0
VERTEX
8
0
62
5
10
0.42426408
20
0.3483371
30
0
70
32
0
VERTEX
8
0
62
5
10
0.42426408
20
0.40985776
30
0
70
32
0
SEQEND
8
0
0
POLYLINE
8
0
62
5
66
1
10
0
20
0
30
0
70
8
0
VERTEX
8
0
62
5
10
0.49497476
20
0.3483371
30
0
70
32
0
VERTEX
8
0
62
5
10
0.49497476
20
0.40985776
30
0
70
32
0
SEQEND
8
0
0
POLYLINE
8
0
62
30
66
1
10
0
20
0
30
0
70
8
0
VERTEX
8
0
62
30
10
0.28284272
20
0.29737171
30
0
70
32
0
VERTEX
8
0
62
30
10
0.30893284
20
0.3483371
30
0
70
32
0
VERTEX
8
0
62
30
10
0.28284272
20
0.39930249
30
0
70
32
0
SEQEND
8
0
0
POLYLINE
8
0
62
30
66
1
10
0
20
0
30
0
70
8
0
VERTEX
8
0
62
30
10
0.3535534
20
0.29737173
30
0
70
32
0
VERTEX
8
0
62
30
10
0.37964351
20
0.3483371
30
0
70
32
0
VERTEX
8
0
62
30
10
0.3535534
20
0.39930248
30
0
70
32
0
SEQEND
8
0
0
POLYLINE
8
0
62
30
66
1
10
0
20
0
30
0
70
8
0
VERTEX
8
0
62
30
10
0.42426408
20
0.3483371
30
0
70
32
0
VERTEX
8
0
62
30
10
0.42426408
20
0.3483371
30
0
70
32
0
VERTEX
8
0
62
30
10
0.42426408
20
0.3483371
30
0
70
32
0
SEQEND
8
0
0
POLYLINE
8
0
62
30
66
1
10
0
20
0
30
0
70
8
0
VERTEX
8
0
62
30
10
0.49497476
20
0.34833708
30
0
70
32
0
VERTEX
8
0
62
30
10
0.49497479
20
0.3483371
30
0
70
32
0
VERTEX
8
0
62
30
10
0.49497476
20
0.34833712
30
0
70
32
0
SEQEND
8
0
0
POLYLINE
8
0
62
5
66
1
10
0
20
0
30
0
70
8
0
VERTEX
8
0
62
5
10
-0.2828427
20
0.28681644
30
0
70
32
0
VERTEX
8
0
62
5
10
-0.2828427
20
0.40985776
30
0
70
32
0
SEQEND
8
0
0
POLYLINE
8
0
62
5
66
1
10
0
20
0
30
0
70
8
0
VERTEX
8
0
62
5
10
-0.2828427
20
0.29737171
30
0
70
32
0
VERTEX
8
0
62
5
10
-0.21213202
20
0.29737173
30
0
70
32
0
VERTEX
8
0
62
5
10
-0.14142135
20
0.3483371
30
0
70
32
0
VERTEX
8
0
62
5
10
-0.070710668
20
0.34833708
30
0
70
32
0
VERTEX
8
0
62
5
10
1.0525923e-08
20
0.29737171
30
0
70
32
0
SEQEND
8
0
0
POLYLINE
8
0
62
5
66
1
10
0
20
0
30
0
70
8
0
SEQEND
8
0
0
POLYLINE
8
0
62
5
66
1
10
0
20
0
30
0
70
8
0
VERTEX
8
0
62
5
10
-0.2828427
20
0.39930249
30
0
70
32
0
VERTEX
8
0
62
5
10
-0.21213202
20
0.39930248
30
0
70
32
0
VERTEX
8
0
62
5
10
-0.14142135
20
0.3483371
30
0
70
32
0
VERTEX
8
0
62
5
10
-0.070710668
20
0.34833712
30
0
70
32
0
VERTEX
8
0
62
5
10
1.0525923e-08
20
0.39930249
30
0
70
32
0
SEQEND
8
0
0
POLYLINE
8
0
62
30
66
1
10
0
20
0
30
0
70
8
0
VERTEX
8
0
62
30
10
-0.2828427
20
0.3483371
30
0
70
32
0
VERTEX
8
0
62
30
10
1.0525923e-08
20
0.3483371
30
0
70
32
0
SEQEND
8
0
0
POLYLINE
8
0
62
30
66
1
10
0
20
0
30
0
70
8
0
VERTEX
8
0
62
30
10
-0.21213202
20
0.29737173
30
0
70
32
0
VERTEX
8
0
62
30
10
-0.21213202
20
0.3483371
30
0
70
32
0
SEQEND
8
0
0
POLYLINE
8
0
62
30
66
1
10
0
20
0
30
0
70
8
0
VERTEX
8
0
62
30
10
-0.14142135
20
0.3483371
30
0
70
32
0
VERTEX
8
0
62
30
10
-0.14142135
20
0.3483371
30
0
70
32
0
SEQEND
8
0
0
POLYLINE
8
0
62
30
66
1
10
0
20
0
30
0
70
8
0
VERTEX
8
0
62
30
10
-0.070710668
20
0.34833708
30
0
70
32
0
VERTEX
8
0
62
30
10
-0.070710668
20
0.3483371
30
0
70
32
0
SEQEND
8
0
0
POLYLINE
8
0
62
5
66
1
10
0
20
0
30
0
70
8
0
VERTEX
8
0
62
5
10
-0.21213202
20
0.28681644
30
0
70
32
0
VERTEX
8
0
62
5
10
-0.21213202
20
0.29737173
30
0
70
32
0
SEQEND
8
0
0
POLYLINE
8
0
62
5
66
1
10
0
20
0
30
0
70
8
0
VERTEX
8
0
62
5
10
-0.14142135
20
0.28681644
30
0
70
32
0
VERTEX
8
0
62
5
10
-0.14142135
20
0.3483371
30
0
70
32
0
SEQEND
8
0
0
POLYLINE
8
0
62
5
66
1
10
0
20
0
30
0
70
8
0
VERTEX
8
0
62
5
10
-0.070710668
20
0.28681644
30
0
70
32
0
VERTEX
8
0
62
5
10
-0.070710668
20
0.34833708
30
0
70
32
0
SEQEND
8
0
0
POLYLINE
8
0
62
5
66
1
10
0
20
0
30
0
70
8
0
VERTEX
8
0
62
5
10
-0.21213202
20
0.3483371
30
0
70
32
0
VERTEX
8
0
62
5
10
-0.21213202
20
0.40985776
30
0
70
32
0
SEQEND
8
0
0
POLYLINE
8
0
62
5
66
1
10
0
20
0
30
0
70
8
0
VERTEX
8
0
62
5
10
-0.14142135
20
0.3483371
30
0
70
32
0
VERTEX
8
0
62
5
10
-0.14142135
20
0.40985776
30
0
70
32
0
SEQEND
8
0
0
POLYLINE
8
0
62
5
66
1
10
0
20
0
30
0
70
8
0
VERTEX
8
0
62
5
10
-0.070710668
20
0.3483371
30
0
70
32
0
VERTEX
8
0
62
5
10
-0.070710668
20
0.40985776
30
0
70
32
0
SEQEND
8
0
0
POLYLINE
8
0
62
30
66
1
10
0
20
0
30
0
70
8
0
VERTEX
8
0
62
30
10
-0.2828427
20
0.29737171
30
0
70
32
0
VERTEX
8
0
62
30
10
-0.25675259
20
0.3483371
30
0
70
32
0
VERTEX
8
0
62
30
10
-0.2828427
20
0.39930249
30
0
70
32
0
SEQEND
8
0
0
POLYLINE
8
0
62
30
66
1
10
0
20
0
30
0
70
8
0
VERTEX
8
0
62
30
10
-0.21213202
20
0.29737173
30
0
70
32
0
VERTEX
8
0
62
30
10
-0.18604191
20
0.3483371
30
0
70
32
0
VERTEX
8
0
62
30
10
-0.21213202
20
0.39930248
30
0
70
32
0
SEQEND
8
0
0
POLYLINE
8
0
62
30
66
1
10
0
20
0
30
0
70
8
0
VERTEX
8
0
62
30
10
-0.14142135
20
0.3483371
30
0
70
32
0
VERTEX
8
0
62
30
10
-0.14142135
20
0.3483371
30
0
70
32
0
VERTEX
8
0
62
30
10
-0.14142135
20
0.3483371
30
0
70
32
0
SEQEND
8
0
0
POLYLINE
8
0
62
30
66
1
10
0
20
0
30
0
70
8
0
VERTEX
8
0
62
30
10
-0.070710668
20
0.34833708
30
0
70
32
0
VERTEX
8
0
62
30
10
-0.070710632
20
0.3483371
30
0
70
32
0
VERTEX
8
0
62
30
10
-0.070710668
20
0.34833712
30
0
70
32
0
SEQEND
8
0
0
POLYLINE
8
0
62
5
66
1
10
0
20
0
30
0
70
8
0
VERTEX
8
0
62
5
10
1.0525923e-08
20
0.40985776
30
0
70
32
0
VERTEX
8
0
62
5
10
1.0525923e-08
20
0.41085776
30
0
70
32
0
SEQEND
8
0
0
POLYLINE
8
0
62
5
66
1
10
0
20
0
30
0
70
8
0
VERTEX
8
0
62
5
10
0.28284272
20
0.40985776
30
0
70
32
0
VERTEX
8
0
62
5
10
0.28284272
20
0.41085776
30
0
70
32
0
SEQEND
8
0
0
POLYLINE
8
0
62
5
66
1
10
0
20
0
30
0
70
8
0
VERTEX
8
0
62
5
10
0.070710689
20
0.40985776
30
0
70
32
0
VERTEX
8
0
62
5
10
0.070710689
20
0.41085776
30
0
70
32
0
SEQEND
8
0
0
POLYLINE
8
0
62
5
66
1
10
0
20
0
30
0
70
8
0
VERTEX
8
0
62
5
10
0.14142137
20
0.40985776
30
0
70
32
0
VERTEX
8
0
62
5
10
0.14142137
20
0.41085776
30
0
70
32
0
SEQEND
8
0
0
POLYLINE
8
0
62
5
66
1
10
0
20
0
30
0
70
8
0
VERTEX
8
0
62
5
10
0.21213204
20
0.40985776
30
0
70
32
0
VERTEX
8
0
62
5
10
0.21213204
20
0.41085776
30
0
70
32
0
SEQEND
8
0
0
POLYLINE
8
0
62
5
66
1
10
0
20
0
30
0
70
8
0
VERTEX
8
0
62
5
10
0.56568544
20
0.40985776
30
0
70
32
0
VERTEX
8
0
62
5
10
0.56568544
20
0.41085776
30
0
70
32
0
SEQEND
8
0
0
POLYLINE
8
0
62
5
66
1
10
0
20
0
30
0
70
8
0
VERTEX
8
0
62
5
10
0.3535534
20
0.40985776
30
0
70
32
0
VERTEX
8
0
62
5
10
0.3535534
20
0.41085776
30
0
70
32
0
SEQEND
8
0
0
POLYLINE
8
0
62
5
66
1
10
0
20
0
30
0
70
8
0
VERTEX
8
0
62
5
10
0.42426408
20
0.40985776
30
0
70
32
0
VERTEX
8
0
62
5
10
0.42426408
20
0.41085776
30
0
70
32
0
SEQEND
8
0
0
POLYLINE
8
0
62
5
66
1
10
0
20
0
30
0
70
8
0
VERTEX
8
0
62
5
10
0.49497476
20
0.40985776
30
0
70
32
0
VERTEX
8
0
62
5
10
0.49497476
20
0.41085776
30
0
70
32
0
SEQEND
8
0
0
POLYLINE
8
0
62
5
66
1
10
0
20
0
30
0
70
8
0
VERTEX
8
0
62
5
10
-0.2828427
20
0.40985776
30
0
70
32
0
VERTEX
8
0
62
5
10
-0.2828427
20
0.41085776
30
0
70
32
0
SEQEND
8
0
0
POLYLINE
8
0
62
5
66
1
10
0
20
0
30
0
70
8
0
VERTEX
8
0
62
5
10
-0.21213202
20
0.40985776
30
0
70
32
0
VERTEX
8
0
62
5
10
-0.21213202
20
0.41085776
30
0
70
32
0
SEQEND
8
0
0
POLYLINE
8
0
62
5
66
1
10
0
20
0
30
0
70
8
0
VERTEX
8
0
62
5
10
-0.14142135
20
0.40985776
30
0
70
32
0
VERTEX
8
0
62
5
10
-0.14142135
20
0.41085776
30
0
70
32
0
SEQEND
8
0
0
POLYLINE
8
0
62
5
66
1
10
0
20
0
30
0
70
8
0
VERTEX
8
0
62
5
10
-0.070710668
20
0.40985776
30
0
70
32
0
VERTEX
8
0
62
5
10
-0.070710668
20
0.41085776
30
0
70
32
0
SEQEND
8
0
0
POLYLINE
8
0
62
5
66
1
10
0
20
0
30
0
70
8
0
VERTEX
8
0
62
5
10
1.0525923e-08
20
0.41085776
30
0
70
32
0
VERTEX
8
0
62
5
10
1.0525923e-08
20
0.5338991
30
0
70
32
0
SEQEND
8
0
0
POLYLINE
8
0
62
5
66
1
10
0
20
0
30
0
70
8
0
VERTEX
8
0
62
5
10
0.28284272
20
0.5338991
30
0
70
32
0
VERTEX
8
0
62
5
10
0.28284272
20
0.41085776
30
0
70
32
0
SEQEND
8
0
0
POLYLINE
8
0
62
5
66
1
10
0
20
0
30
0
70
8
0
VERTEX
8
0
62
5
10
1.0525923e-08
20
0.42141304
30
0
70
32
0
VERTEX
8
0
62
5
10
0.070710689
20
0.42141304
30
0
70
32
0
VERTEX
8
0
62
5
10
0.14142137
20
0.47237843
30
0
70
32
0
VERTEX
8
0
62
5
10
0.21213204
20
0.47237843
30
0
70
32
0
VERTEX
8
0
62
5
10
0.28284272
20
0.42141304
30
0
70
32
0
SEQEND
8
0
0
POLYLINE
8
0
62
5
66
1
10
0
20
0
30
0
70
8
0
SEQEND
8
0
0
POLYLINE
8
0
62
5
66
1
10
0
20
0
30
0
70
8
0
VERTEX
8
0
62
5
10
1.0525923e-08
20
0.52334382
30
0
70
32
0
VERTEX
8
0
62
5
10
0.070710689
20
0.52334382
30
0
70
32
0
VERTEX
8
0
62
5
10
0.14142137
20
0.47237843
30
0
70
32
0
VERTEX
8
0
62
5
10
0.21213204
20
0.47237843
30
0
70
32
0
VERTEX
8
0
62
5
10
0.28284272
20
0.52334382
30
0
70
32
0
SEQEND
8
0
0
POLYLINE
8
0
62
30
66
1
10
0
20
0
30
0
70
8
0
VERTEX
8
0
62
30
10
1.0525923e-08
20
0.47237843
30
0
70
32
0
VERTEX
8
0
62
30
10
0.28284272
20
0.47237843
30
0
70
32
0
SEQEND
8
0
0
POLYLINE
8
0
62
30
66
1
10
0
20
0
30
0
70
8
0
VERTEX
8
0
62
30
10
0.070710689
20
0.42141304
30
0
70
32
0
VERTEX
8
0
62
30
10
0.070710689
20
0.47237843
30
0
70
32
0
SEQEND
8
0
0
POLYLINE
8
0
62
30
66
1
10
0
20
0
30
0
70
8
0
VERTEX
8
0
62
30
10
0.14142137
20
0.47237843
30
0
70
32
0
VERTEX
8
0
62
30
10
0.14142137
20
0.47237843
30
0
70
32
0
SEQEND
8
0
0
POLYLINE
8
0
62
30
66
1
10
0
20
0
30
0
70
8
0
VERTEX
8
0
62
30
10
0.21213204
20
0.47237843
30
0
70
32
0
VERTEX
8
0
62
30
10
0.21213204
20
0.47237843
30
0
70
32
0
SEQEND
8
0
0
POLYLINE
8
0
62
5
66
1
10
0
20
0
30
0
70
8
0
VERTEX
8
0
62
5
10
0.070710689
20
0.41085776
30
0
70
32
0
VERTEX
8
0
62
5
10
0.070710689
20
0.42141304
30
0
70
32
0
SEQEND
8
0
0
POLYLINE
8
0
62
5
66
1
10
0
20
0
30
0
70
8
0
VERTEX
8
0
62
5
10
0.14142137
20
0.41085776
30
0
70
32
0
VERTEX
8
0
62
5
10
0.14142137
20
0.47237843
30
0
70
32
0
SEQEND
8
0
0
POLYLINE
8
0
62
5
66
1
10
0
20
0
30
0
70
8
0
VERTEX
8
0
62
5
10
0.21213204
20
0.41085776
30
0
70
32
0
VERTEX
8
0
62
5
10
0.21213204
20
0.47237843
30
0
70
32
0
SEQEND
8
0
0
POLYLINE
8
0
62
5
66
1
10
0
20
0
30
0
70
8
0
VERTEX
8
0
62
5
10
0.070710689
20
0.47237843
30
0
70
32
0
VERTEX
8
0
62
5
10
0.070710689
20
0.5338991
30
0
70
32
0
SEQEND
8
0
0
POLYLINE
8
0
62
5
66
1
10
0
20
0
30
0
70
8
0
VERTEX
8
0
62
5
10
0.14142137
20
0.47237843
30
0
70
32
0
VERTEX
8
0
62
5
10
0.14142137
20
0.5338991
30
0
70
32
0
SEQEND
8
0
0
POLYLINE
8
0
62
5
66
1
10
0
20
0
30
0
70
8
0
VERTEX
8
0
62
5
10
0.21213204
20
0.47237843
30
0
70
32
0
VERTEX
8
0
62
5
10
0.21213204
20
0.5338991
30
0
70
32
0
SEQEND
8
0
0
POLYLINE
8
0
62
30
66
1
10
0
20
0
30
0
70
8
0
VERTEX
8
0
62
30
10
1.0525923e-08
20
0.42141304
30
0
70
32
0
VERTEX
8
0
62
30
10
0.026090122
20
0.47237843
30
0
70
32
0
VERTEX
8
0
62
30
10
1.0525923e-08
20
0.52334382
30
0
70
32
0
SEQEND
8
0
0
POLYLINE
8
0
62
30
66
1
10
0
20
0
30
0
70
8
0
VERTEX
8
0
62
30
10
0.070710689
20
0.42141304
30
0
70
32
0
VERTEX
8
0
62
30
10
0.0968008
20
0.47237843
30
0
70
32
0
VERTEX
8
0
62
30
10
0.070710689
20
0.52334382
30
0
70
32
0
SEQEND
8
0
0
POLYLINE
8
0
62
30
66
1
10
0
20
0
30
0
70
8
0
VERTEX
8
0
62
30
10
0.14142137
20
0.47237843
30
0
70
32
0
VERTEX
8
0
62
30
10
0.14142137
20
0.47237843
30
0
70
32
0
VERTEX
8
0
62
30
10
0.14142137
20
0.47237843
30
0
70
32
0
SEQEND
8
0
0
POLYLINE
8
0
62
30
66
1
10
0
20
0
30
0
70
8
0
VERTEX
8
0
62
30
10
0.21213204
20
0.47237843
30
0
70
32
0
VERTEX
8
0
62
30
10
0.21213204
20
0.47237843
30
0
70
32
0
VERTEX
8
0
62
30
10
0.21213204
20
0.47237843
30
0
70
32
0
SEQEND
8
0
0
POLYLINE
8
0
62
5
66
1
10
0
20
0
30
0
70
8
0
VERTEX
8
0
62
5
10
0.56568544
20
0.5338991
30
0
70
32
0
VERTEX
8
0
62
5
10
0.56568544
20
0.41085776
30
0
70
32
0
SEQEND
8
0
0
POLYLINE
8
0
62
5
66
1
10
0
20
0
30
0
70
8
0
VERTEX
8
0
62
5
10
0.28284272
20
0.42141304
30
0
70
32
0
VERTEX
8
0
62
5
10
0.3535534
20
0.42141304
30
0
70
32
0
VERTEX
8
0
62
5
10
0.42426408
20
0.47237843
30
0
70
32
0
VERTEX
8
0
62
5
10
0.49497476
20
0.47237843
30
0
70
32
0
VERTEX
8
0
62
5
10
0.56568544
20
0.42141304
30
0
70
32
0
SEQEND
8
0
0
POLYLINE
8
0
62
5
66
1
10
0
20
0
30
0
70
8
0
SEQEND
8
0
0
POLYLINE
8
0
62
5
66
1
10
0
20
0
30
0
70
8
0
VERTEX
8
0
62
5
10
0.28284272
20
0.52334382
30
0
70
32
0
VERTEX
8
0
62
5
10
0.3535534
20
0.52334382
30
0
70
32
0
VERTEX
8
0
62
5
10
0.42426408
20
0.47237843
30
0
70
32
0
VERTEX
8
0
62
5
10
0.49497476
20
0.47237843
30
0
70
32
0
VERTEX
8
0
62
5
10
0.56568544
20
0.52334382
30
0
70
32
0
SEQEND
8
0
0
POLYLINE
8
0
62
30
66
1
10
0
20
0
30
0
70
8
0
VERTEX
8
0
62
30
10
0.28284272
20
0.47237843
30
0
70
32
0
VERTEX
8
0
62
30
10
0.56568544
20
0.47237843
30
0
70
32
0
SEQEND
8
0
0
POLYLINE
8
0
62
30
66
1
10
0
20
0
30
0
70
8
0
VERTEX
8
0
62
30
10
0.3535534
20
0.42141304
30
0
70
32
0
VERTEX
8
0
62
30
10
0.3535534
20
0.47237843
30
0
70
32
0
SEQEND
8
0
0
POLYLINE
8
0
62
30
66
1
10
0
20
0
30
0
70
8
0
VERTEX
8
0
62
30
10
0.42426408
20
0.47237843
30
0
70
32
0
VERTEX
8
0
62
30
10
0.42426408
20
0.47237843
30
0
70
32
0
SEQEND
8
0
0
POLYLINE
8
0
62
30
66
1
10
0
20
0
30
0
70
8
0
VERTEX
8
0
62
30
10
0.49497476
20
0.47237843
30
0
70
32
0
VERTEX
8
0
62
30
10
0.49497476
20
0.47237843
30
0
70
32
0
SEQEND
8
0
0
POLYLINE
8
0
62
5
66
1
10
0
20
0
30
0
70
8
0
VERTEX
8
0
62
5
10
0.3535534
20
0.41085776
30
0
70
32
0
VERTEX
8
0
62
5
10
0.3535534
20
0.42141304
30
0
70
32
0
SEQEND
8
0
0
POLYLINE
8
0
62
5
66
1
10
0
20
0
30
0
70
8
0
VERTEX
8
0
62
5
10
0.42426408
20
0.41085776
30
0
70
32
0
VERTEX
8
0
62
5
10
0.42426408
20
0.47237843
30
0
70
32
0
SEQEND
8
0
0
POLYLINE
8
0
62
5
66
1
10
0
20
0
30
0
70
8
0
VERTEX
8
0
62
5
10
0.49497476
20
0.41085776
30
0
70
32
0
VERTEX
8
0
62
5
10
0.49497476
20
0.47237843
30
0
70
32
0
SEQEND
8
0
0
POLYLINE
8
0
62
5
66
1
10
0
20
0
30
0
70
8
0
VERTEX
8
0
62
5
10
0.3535534
20
0.47237843
30
0
70
32
0
VERTEX
8
0
62
5
10
0.3535534
20
0.5338991
30
0
70
32
0
SEQEND
8
0
0
POLYLINE
8
0
62
5
66
1
10
0
20
0
30
0
70
8
0
VERTEX
8
0
62
5
10
0.42426408
20
0.47237843
30
0
70
32
0
VERTEX
8
0
62
5
10
0.42426408
20
0.5338991
30
0
70
32
0
SEQEND
8
0
0
POLYLINE
8
0
62
5
66
1
10
0
20
0
30
0
70
8
0
VERTEX
8
0
62
5
10
0.49497476
20
0.47237843
30
0
70
32
0
VERTEX
8
0
62
5
10
0.49497476
20
0.5338991
30
0
70
32
0
SEQEND
8
0
0
POLYLINE
8
0
62
30
66
1
10
0
20
0
30
0
70
8
0
VERTEX
8
0
62
30
10
0.28284272
20
0.42141304
30
0
70
32
0
VERTEX
8
0
62
30
10
0.30893283
20
0.47237843
30
0
70
32
0
VERTEX
8
0
62
30
10
0.28284272
20
0.52334382
30
0
70
32
0
SEQEND
8
0
0
POLYLINE
8
0
62
30
66
1
10
0
20
0
30
0
70
8
0
VERTEX
8
0
62
30
10
0.3535534
20
0.42141304
30
0
70
32
0
VERTEX
8
0
62
30
10
0.37964351
20
0.47237843
30
0
70
32
0
VERTEX
8
0
62
30
10
0.3535534
20
0.52334382
30
0
70
32
0
SEQEND
8
0
0
POLYLINE
8
0
62
30
66
1
10
0
20
0
30
0
70
8
0
VERTEX
8
0
62
30
10
0.42426408
20
0.47237843
30
0
70
32
0
VERTEX
8
0
62
30
10
0.42426408
20
0.47237843
30
0
70
32
0
VERTEX
8
0
62
30
10
0.42426408
20
0.47237843
30
0
70
32
0
SEQEND
8
0
0
POLYLINE
8
0
62
30
66
1
10
0
20
0
30
0
70
8
0
VERTEX
8
0
62
30
10
0.49497476
20
0.47237843
30
0
70
32
0
VERTEX
8
0
62
30
10
0.49497476
20
0.47237843
30
0
70
32
0
VERTEX
8
0
62
30
10
0.49497476
20
0.47237843
30
0
70
32
0
SEQEND
8
0
0
POLYLINE
8
0
62
5
66
1
10
0
20
0
30
0
70
8
0
VERTEX
8
0
62
5
10
-0.2828427
20
0.41085776
30
0
70
32
0
VERTEX
8
0
62
5
10
-0.2828427
20
0.5338991
30
0
70
32
0
SEQEND
8
0
0
POLYLINE
8
0
62
5
66
1
10
0
20
0
30
0
70
8
0
VERTEX
8
0
62
5
10
-0.2828427
20
0.42141304
30
0
70
32
0
VERTEX
8
0
62
5
10
-0.21213202
20
0.42141304
30
0
70
32
0
VERTEX
8
0
62
5
10
-0.14142135
20
0.47237843
30
0
70
32
0
VERTEX
8
0
62
5
10
-0.070710668
20
0.47237843
30
0
70
32
0
VERTEX
8
0
62
5
10
1.0525923e-08
20
0.42141304
30
0
70
32
0
SEQEND
8
0
0
POLYLINE
8
0
62
5
66
1
10
0
20
0
30
0
70
8
0
SEQEND
8
0
0
POLYLINE
8
0
62
5
66
1
10
0
20
0
30
0
70
8
0
VERTEX
8
0
62
5
10
-0.2828427
20
0.52334382
30
0
70
32
0
VERTEX
8
0
62
5
10
-0.21213202
20
0.52334382
30
0
70
32
0
VERTEX
8
0
62
5
10
-0.14142135
20
0.47237843
30
0
70
32
0
VERTEX
8
0
62
5
10
-0.070710668
20
0.47237843
30
0
70
32
0
VERTEX
8
0
62
5
10
1.0525923e-08
20
0.52334382
30
0
70
32
0
SEQEND
8
0
0
POLYLINE
8
0
62
30
66
1
10
0
20
0
30
0
70
8
0
VERTEX
8
0
62
30
10
-0.2828427
20
0.47237843
30
0
70
32
0
VERTEX
8
0
62
30
10
1.0525923e-08
20
0.47237843
30
0
70
32
0
SEQEND
8
0
0
POLYLINE
8
0
62
30
66
1
10
0
20
0
30
0
70
8
0
VERTEX
8
0
62
30
10
-0.21213202
20
0.42141304
30
0
70
32
0
VERTEX
8
0
62
30
10
-0.21213202
20
0.47237843
30
0
70
32
0
SEQEND
8
0
0
POLYLINE
8
0
62
30
66
1
10
0
20
0
30
0
70
8
0
VERTEX
8
0
62
30
10
-0.14142135
20
0.47237843
30
0
70
32
0
VERTEX
8
0
62
30
10
-0.14142135
20
0.47237843
30
0
70
32
0
SEQEND
8
0
0
POLYLINE
8
0
62
30
66
1
10
0
20
0
30
0
70
8
0
VERTEX
8
0
62
30
10
-0.070710668
20
0.47237843
30
0
70
32
0
VERTEX
8
0
62
30
10
-0.070710668
20
0.47237843
30
0
70
32
0
SEQEND
8
0
0
POLYLINE
8
0
62
5
66
1
10
0
20
0
30
0
70
8
0
VERTEX
8
0
62
5
10
-0.21213202
20
0.41085776
30
0
70
32
0
VERTEX
8
0
62
5
10
-0.21213202
20
0.42141304
30
0
70
32
0
SEQEND
8
0
0
POLYLINE
8
0
62
5
66
1
10
0
20
0
30
0
70
8
0
VERTEX
8
0
62
5
10
-0.14142135
20
0.41085776
30
0
70
32
0
VERTEX
8
0
62
5
10
-0.14142135
20
0.47237843
30
0
70
32
0
SEQEND
8
0
0
POLYLINE
8
0
62
5
66
1
10
0
20
0
30
0
70
8
0
VERTEX
8
0
62
5
10
-0.070710668
20
0.41085776
30
0
70
32
0
VERTEX
8
0
62
5
10
-0.070710668
20
0.47237843
30
0
70
32
0
SEQEND
8
0
0
POLYLINE
8
0
62
5
66
1
10
0
20
0
30
0
70
8
0
VERTEX
8
0
62
5
10
-0.21213202
20
0.47237843
30
0
70
32
0
VERTEX
8
0
62
5
10
-0.21213202
20
0.5338991
30
0
70
32
0
SEQEND
8
0
0
POLYLINE
8
0
62
5
66
1
10
0
20
0
30
0
70
8
0
VERTEX
8
0
62
5
10
-0.14142135
20
0.47237843
30
0
70
32
0
VERTEX
8
0
62
5
10
-0.14142135
20
0.5338991
30
0
70
32
0
SEQEND
8
0
0
POLYLINE
8
0
62
5
66
1
10
0
20
0
30
0
70
8
0
VERTEX
8
0
62
5
10
-0.070710668
20
0.47237843
30
0
70
32
0
VERTEX
8
0
62
5
10
-0.070710668
20
0.5338991
30
0
70
32
0
SEQEND
8
0
0
POLYLINE
8
0
62
30
66
1
10
0
20
0
30
0
70
8
0
VERTEX
8
0
62
30
10
-0.2828427
20
0.42141304
30
0
70
32
0
VERTEX
8
0
62
30
10
-0.25675259
20
0.47237843
30
0
70
32
0
VERTEX
8
0
62
30
10
-0.2828427
20
0.52334382
30
0
70
32
0
SEQEND
8
0
0
POLYLINE
8
0
62
30
66
1
10
0
20
0
30
0
70
8
0
VERTEX
8
0
62
30
10
-0.21213202
20
0.42141304
30
0
70
32
0
VERTEX
8
0
62
30
10
-0.18604191
20
0.47237843
30
0
70
32
0
VERTEX
8
0
62
30
10
-0.21213202
20
0.52334382
30
0
70
32
0
SEQEND
8
0
0
POLYLINE
8
0
62
30
66
1
10
0
20
0
30
0
70
8
0
VERTEX
8
0
62
30
10
-0.14142135
20
0.47237843
30
0
70
32
0
VERTEX
8
0
62
30
10
-0.14142134
20
0.47237843
30
0
70
32
0
VERTEX
8
0
62
30
10
-0.14142135
20
0.47237843
30
0
70
32
0
SEQEND
8
0
0
POLYLINE
8
0
62
30
66
1
10
0
20
0
30
0
70
8
0
VERTEX
8
0
62
30
10
-0.070710668
20
0.47237843
30
0
70
32
0
VERTEX
8
0
62
30
10
-0.070710668
20
0.47237843
30
0
70
32
0
VERTEX
8
0
62
30
10
-0.070710668
20
0.47237843
30
0
70
32
0
SEQEND
8
0
0
POLYLINE
8
0
62
5
66
1
10
0
20
0
30
0
70
8
0
VERTEX
8
0
62
5
10
1.0525923e-08
20
0.5338991
30
0
70
32
0
VERTEX
8
0
62
5
10
1.0525923e-08
20
0.56552199
30
0
70
32
0
SEQEND
8
0
0
POLYLINE
8
0
62
5
66
1
10
0
20
0
30
0
70
8
0
VERTEX
8
0
62
5
10
0.070710689
20
0.5338991
30
0
70
32
0
VERTEX
8
0
62
5
10
0.070710689
20
0.56552199
30
0
70
32
0
SEQEND
8
0
0
POLYLINE
8
0
62
5
66
1
10
0
20
0
30
0
70
8
0
VERTEX
8
0
62
5
10
0.14142137
20
0.5338991
30
0
70
32
0
VERTEX
8
0
62
5
10
0.14142137
20
0.56552199
30
0
70
32
0
SEQEND
8
0
0
POLYLINE
8
0
62
5
66
1
10
0
20
0
30
0
70
8
0
VERTEX
8
0
62
5
10
0.21213204
20
0.5338991
30
0
70
32
0
VERTEX
8
0
62
5
10
0.21213204
20
0.56552199
30
0
70
32
0
SEQEND
8
0
0
POLYLINE
8
0
62
5
66
1
10
0
20
0
30
0
70
8
0
VERTEX
8
0
62
5
10
0.28284272
20
0.5338991
30
0
70
32
0
VERTEX
8
0
62
5
10
0.28284272
20
0.56552199
30
0
70
32
0
SEQEND
8
0
0
POLYLINE
8
0
62
5
66
1
10
0
20
0
30
0
70
8
0
VERTEX
8
0
62
5
10
0.070710689
20
0.5338991
30
0
70
32
0
VERTEX
8
0
62
5
10
0.070710689
20
0.5338991
30
0
70
32
0
SEQEND
8
0
0
POLYLINE
8
0
62
5
66
1
10
0
20
0
30
0
70
8
0
VERTEX
8
0
62
5
10
0.14142137
20
0.5338991
30
0
70
32
0
VERTEX
8
0
62
5
10
0.14142137
20
0.5338991
30
0
70
32
0
SEQEND
8
0
0
POLYLINE
8
0
62
5
66
1
10
0
20
0
30
0
70
8
0
VERTEX
8
0
62
5
10
0.21213204
20
0.5338991
30
0
70
32
0
VERTEX
8
0
62
5
10
0.21213204
20
0.5338991
30
0
70
32
0
SEQEND
8
0
0
POLYLINE
8
0
62
5
66
1
10
0
20
0
30
0
70
8
0
VERTEX
8
0
62
5
10
1.0947197e-08
20
0.56552199
30
0
70
32
0
VERTEX
8
0
62
5
10
1.0947197e-08
20
0.56552199
30
0
70
32
0
SEQEND
8
0
0
POLYLINE
8
0
62
5
66
1
10
0
20
0
30
0
70
8
0
VERTEX
8
0
62
5
10
0.070710689
20
0.56552199
30
0
70
32
0
VERTEX
8
0
62
5
10
0.070710689
20
0.56552199
30
0
70
32
0
SEQEND
8
0
0
POLYLINE
8
0
62
5
66
1
10
0
20
0
30
0
70
8
0
VERTEX
8
0
62
5
10
0.14142137
20
0.56552199
30
0
70
32
0
VERTEX
8
0
62
5
10
0.14142137
20
0.56552199
30
0
70
32
0
SEQEND
8
0
0
POLYLINE
8
0
62
5
66
1
10
0
20
0
30
0
70
8
0
VERTEX
8
0
62
5
10
0.21213205
20
0.56552199
30
0
70
32
0
VERTEX
8
0
62
5
10
0.21213205
20
0.56552199
30
0
70
32
0
SEQEND
8
0
0
POLYLINE
8
0
62
5
66
1
10
0
20
0
30
0
70
8
0
VERTEX
8
0
62
5
10
0.3535534
20
0.5338991
30
0
70
32
0
VERTEX
8
0
62
5
10
0.3535534
20
0.56552199
30
0
70
32
0
SEQEND
8
0
0
POLYLINE
8
0
62
5
66
1
10
0
20
0
30
0
70
8
0
VERTEX
8
0
62
5
10
0.42426408
20
0.5338991
30
0
70
32
0
VERTEX
8
0
62
5
10
0.42426408
20
0.56552199
30
0
70
32
0
SEQEND
8
0
0
POLYLINE
8
0
62
5
66
1
10
0
20
0
30
0
70
8
0
VERTEX
8
0
62
5
10
0.49497476
20
0.5338991
30
0
70
32
0
VERTEX
8
0
62
5
10
0.49497476
20
0.56552199
30
0
70
32
0
SEQEND
8
0
0
POLYLINE
8
0
62
5
66
1
10
0
20
0
30
0
70
8
0
VERTEX
8
0
62
5
10
0.56568544
20
0.5338991
30
0
70
32
0
VERTEX
8
0
62
5
10
0.56568544
20
0.56552199
30
0
70
32
0
SEQEND
8
0
0
POLYLINE
8
0
62
5
66
1
10
0
20
0
30
0
70
8
0
VERTEX
8
0
62
5
10
0.3535534
20
0.5338991
30
0
70
32
0
VERTEX
8
0
62
5
10
0.3535534
20
0.5338991
30
0
70
32
0
SEQEND
8
0
0
POLYLINE
8
0
62
5
66
1
10
0
20
0
30
0
70
8
0
VERTEX
8
0
62
5
10
0.42426408
20
0.5338991
30
0
70
32
0
VERTEX
8
0
62
5
10
0.42426408
20
0.5338991
30
0
70
32
0
SEQEND
8
0
0
POLYLINE
8
0
62
5
66
1
10
0
20
0
30
0
70
8
0
VERTEX
8
0
62
5
10
0.49497476
20
0.5338991
30
0
70
32
0
VERTEX
8
0
62
5
10
0.49497476
20
0.5338991
30
0
70
32
0
SEQEND
8
0
0
POLYLINE
8
0
62
5
66
1
10
0
20
0
30
0
70
8
0
VERTEX
8
0
62
5
10
0.28284272
20
0.56552199
30
0
70
32
0
VERTEX
8
0
62
5
10
0.28284272
20
0.56552199
30
0
70
32
0
SEQEND
8
0
0
POLYLINE
8
0
62
5
66
1
10
0
20
0
30
0
70
8
0
VERTEX
8
0
62
5
10
0.3535534
20
0.56552199
30
0
70
32
0
VERTEX
8
0
62
5
10
0.3535534
20
0.56552199
30
0
70
32
0
SEQEND
8
0
0
POLYLINE
8
0
62
5
66
1
10
0
20
0
30
0
70
8
0
VERTEX
8
0
62
5
10
0.42426408
20
0.56552199
30
0
70
32
0
VERTEX
8
0
62
5
10
0.42426408
20
0.56552199
30
0
70
32
0
SEQEND
8
0
0
POLYLINE
8
0
62
5
66
1
10
0
20
0
30
0
70
8
0
VERTEX
8
0
62
5
10
0.49497476
20
0.56552199
30
0
70
32
0
VERTEX
8
0
62
5
10
0.49497476
20
0.56552199
30
0
70
32
0
SEQEND
8
0
0
POLYLINE
8
0
62
5
66
1
10
0
20
0
30
0
70
8
0
VERTEX
8
0
62
5
10
-0.21213202
20
0.5338991
30
0
70
32
0
VERTEX
8
0
62
5
10
-0.21213202
20
0.56552199
30
0
70
32
0
SEQEND
8
0
0
POLYLINE
8
0
62
5
66
1
10
0
20
0
30
0
70
8
0
VERTEX
8
0
62
5
10
-0.14142135
20
0.5338991
30
0
70
32
0
VERTEX
8
0
62
5
10
-0.14142135
20
0.56552199
30
0
70
32
0
SEQEND
8
0
0
POLYLINE
8
0
62
5
66
1
10
0
20
0
30
0
70
8
0
VERTEX
8
0
62
5
10
-0.070710668
20
0.5338991
30
0
70
32
0
VERTEX
8
0
62
5
10
-0.070710668
20
0.56552199
30
0
70
32
0
SEQEND
8
0
0
POLYLINE
8
0
62
5
66
1
10
0
20
0
30
0
70
8
0
VERTEX
8
0
62
5
10
1.0525923e-08
20
0.5338991
30
0
70
32
0
VERTEX
8
0
62
5
10
1.0525923e-08
20
0.56552199
30
0
70
32
0
SEQEND
8
0
0
POLYLINE
8
0
62
5
66
1
10
0
20
0
30
0
70
8
0
VERTEX
8
0
62
5
10
-0.21213202
20
0.5338991
30
0
70
32
0
VERTEX
8
0
62
5
10
-0.21213202
20
0.5338991
30
0
70
32
0
SEQEND
8
0
0
POLYLINE
8
0
62
5
66
1
10
0
20
0
30
0
70
8
0
VERTEX
8
0
62
5
10
-0.14142135
20
0.5338991
30
0
70
32
0
VERTEX
8
0
62
5
10
-0.14142135
20
0.5338991
30
0
70
32
0
SEQEND
8
0
0
POLYLINE
8
0
62
5
66
1
10
0
20
0
30
0
70
8
0
VERTEX
8
0
62
5
10
-0.070710668
20
0.5338991
30
0
70
32
0
VERTEX
8
0
62
5
10
-0.070710668
20
0.5338991
30
0
70
32
0
SEQEND
8
0
0
POLYLINE
8
0
62
5
66
1
10
0
20
0
30
0
70
8
0
VERTEX
8
0
62
5
10
-0.2828427
20
0.56552199
30
0
70
32
0
VERTEX
8
0
62
5
10
-0.2828427
20
0.56552199
30
0
70
32
0
SEQEND
8
0
0
POLYLINE
8
0
62
5
66
1
10
0
20
0
30
0
70
8
0
VERTEX
8
0
62
5
10
-0.21213202
20
0.56552199
30
0
70
32
0
VERTEX
8
0
62
5
10
-0.21213202
20
0.56552199
30
0
70
32
0
SEQEND
8
0
0
POLYLINE
8
0
62
5
66
1
10
0
20
0
30
0
70
8
0
VERTEX
8
0
62
5
10
-0.14142135
20
0.56552199
30
0
70
32
0
VERTEX
8
0
62
5
10
-0.14142135
20
0.56552199
30
0
70
32
0
SEQEND
8
0
0
POLYLINE
8
0
62
5
66
1
10
0
20
0
30
0
70
8
0
VERTEX
8
0
62
5
10
-0.070710667
20
0.56552199
30
0
70
32
0
VERTEX
8
0
62
5
10
-0.070710667
20
0.56552199
30
0
70
32
0
SEQEND
8
0
0
POLYLINE
8
0
62
5
66
1
10
0
20
0
30
0
70
8
0
VERTEX
8
0
62
5
10
1.0947197e-08
20
0.56552199
30
0
70
32
0
VERTEX
8
0
62
5
10
1.0947197e-08
20
0.69201353
30
0
70
32
0
SEQEND
8
0
0
POLYLINE
8
0
62
5
66
1
10
0
20
0
30
0
70
8
0
VERTEX
8
0
62
5
10
0.28284272
20
0.56552199
30
0
70
32
0
VERTEX
8
0
62
5
10
0.28284272
20
0.69201353
30
0
70
32
0
SEQEND
8
0
0
POLYLINE
8
0
62
5
66
1
10
0
20
0
30
0
70
8
0
VERTEX
8
0
62
5
10
0.070710689
20
0.56552199
30
0
70
32
0
VERTEX
8
0
62
5
10
0.070710689
20
0.69201353
30
0
70
32
0
SEQEND
8
0
0
POLYLINE
8
0
62
5
66
1
10
0
20
0
30
0
70
8
0
VERTEX
8
0
62
5
10
0.14142137
20
0.56552199
30
0
70
32
0
VERTEX
8
0
62
5
10
0.14142137
20
0.69201353
30
0
70
32
0
SEQEND
8
0
0
POLYLINE
8
0
62
5
66
1
10
0
20
0
30
0
70
8
0
VERTEX
8
0
62
5
10
0.21213205
20
0.56552199
30
0
70
32
0
VERTEX
8
0
62
5
10
0.21213205
20
0.69201353
30
0
70
32
0
SEQEND
8
0
0
POLYLINE
8
0
62
5
66
1
10
0
20
0
30
0
70
8
0
VERTEX
8
0
62
5
10
0.56568544
20
0.56552199
30
0
70
32
0
VERTEX
8
0
62
5
10
0.56568544
20
0.69201353
30
0
70
32
0
SEQEND
8
0
0
POLYLINE
8
0
62
5
66
1
10
0
20
0
30
0
70
8
0
VERTEX
8
0
62
5
10
0.3535534
20
0.56552199
30
0
70
32
0
VERTEX
8
0
62
5
10
0.3535534
20
0.69201353
30
0
70
32
0
SEQEND
8
0
0
POLYLINE
8
0
62
5
66
1
10
0
20
0
30
0
70
8
0
VERTEX
8
0
62
5
10
0.42426408
20
0.56552199
30
0
70
32
0
VERTEX
8
0
62
5
10
0.42426408
20
0.69201353
30
0
70
32
0
SEQEND
8
0
0
POLYLINE
8
0
62
5
66
1
10
0
20
0
30
0
70
8
0
VERTEX
8
0
62
5
10
0.49497476
20
0.56552199
30
0
70
32
0
VERTEX
8
0
62
5
10
0.49497476
20
0.69201353
30
0
70
32
0
SEQEND
8
0
0
POLYLINE
8
0
62
5
66
1
10
0
20
0
30
0
70
8
0
VERTEX
8
0
62
5
10
-0.2828427
20
0.56552199
30
0
70
32
0
VERTEX
8
0
62
5
10
-0.2828427
20
0.69201353
30
0
70
32
0
SEQEND
8
0
0
POLYLINE
8
0
62
5
66
1
10
0
20
0
30
0
70
8
0
VERTEX
8
0
62
5
10
-0.21213202
20
0.56552199
30
0
70
32
0
VERTEX
8
0
62
5
10
-0.21213202
20
0.69201353
30
0
70
32
0
SEQEND
8
0
0
POLYLINE
8
0
62
5
66
1
10
0
20
0
30
0
70
8
0
VERTEX
8
0
62
5
10
-0.14142135
20
0.56552199
30
0
70
32
0
VERTEX
8
0
62
5
10
-0.14142135
20
0.69201353
30
0
70
32
0
SEQEND
8
0
0
POLYLINE
8
0
62
5
66
1
10
0
20
0
30
0
70
8
0
VERTEX
8
0
62
5
10
-0.070710667
20
0.56552199
30
0
70
32
0
VERTEX
8
0
62
5
10
-0.070710667
20
0.69201353
30
0
70
32
0
SEQEND
8
0
0
POLYLINE
8
0
62
5
66
1
10
0
20
0
30
0
70
8
0
VERTEX
8
0
62
5
10
1.0947197e-08
20
0.69201353
30
0
70
32
0
VERTEX
8
0
62
5
10
1.0947197e-08
20
0.71971603
30
0
70
32
0
SEQEND
8
0
0
POLYLINE
8
0
62
5
66
1
10
0
20
0
30
0
70
8
0
VERTEX
8
0
62
5
10
0.28284272
20
0.71971603
30
0
70
32
0
VERTEX
8
0
62
5
10
0.28284272
20
0.69201353
30
0
70
32
0
SEQEND
8
0
0
POLYLINE
8
0
62
5
66
1
10
0
20
0
30
0
70
8
0
VERTEX
8
0
62
5
10
1.0947197e-08
20
0.69439002
30
0
70
32
0
VERTEX
8
0
62
5
10
0.070710689
20
0.69439002
30
0
70
32
0
VERTEX
8
0
62
5
10
0.14142137
20
0.70586478
30
0
70
32
0
VERTEX
8
0
62
5
10
0.21213205
20
0.70586478
30
0
70
32
0
VERTEX
8
0
62
5
10
0.28284272
20
0.69439002
30
0
70
32
0
SEQEND
8
0
0
POLYLINE
8
0
62
5
66
1
10
0
20
0
30
0
70
8
0
SEQEND
8
0
0
POLYLINE
8
0
62
5
66
1
10
0
20
0
30
0
70
8
0
VERTEX
8
0
62
5
10
1.0947197e-08
20
0.71733953
30
0
70
32
0
VERTEX
8
0
62
5
10
0.070710689
20
0.71733953
30
0
70
32
0
VERTEX
8
0
62
5
10
0.14142137
20
0.70586478
30
0
70
32
0
VERTEX
8
0
62
5
10
0.21213205
20
0.70586478
30
0
70
32
0
VERTEX
8
0
62
5
10
0.28284272
20
0.71733953
30
0
70
32
0
SEQEND
8
0
0
POLYLINE
8
0
62
30
66
1
10
0
20
0
30
0
70
8
0
VERTEX
8
0
62
30
10
1.0947197e-08
20
0.70586478
30
0
70
32
0
VERTEX
8
0
62
30
10
0.28284272
20
0.70586478
30
0
70
32
0
SEQEND
8
0
0
POLYLINE
8
0
62
30
66
1
10
0
20
0
30
0
70
8
0
VERTEX
8
0
62
30
10
0.070710689
20
0.69439002
30
0
70
32
0
VERTEX
8
0
62
30
10
0.070710689
20
0.70586478
30
0
70
32
0
SEQEND
8
0
0
POLYLINE
8
0
62
30
66
1
10
0
20
0
30
0
70
8
0
VERTEX
8
0
62
30
10
0.14142137
20
0.70586478
30
0
70
32
0
VERTEX
8
0
62
30
10
0.14142137
20
0.70586478
30
0
70
32
0
SEQEND
8
0
0
POLYLINE
8
0
62
30
66
1
10
0
20
0
30
0
70
8
0
VERTEX
8
0
62
30
10
0.21213205
20
0.70586478
30
0
70
32
0
VERTEX
8
0
62
30
10
0.21213205
20
0.70586478
30
0
70
32
0
SEQEND
8
0
0
POLYLINE
8
0
62
5
66
1
10
0
20
0
30
0
70
8
0
VERTEX
8
0
62
5
10
0.070710689
20
0.69201353
30
0
70
32
0
VERTEX
8
0
62
5
10
0.070710689
20
0.69439002
30
0
70
32
0
SEQEND
8
0
0
POLYLINE
8
0
62
5
66
1
10
0
20
0
30
0
70
8
0
VERTEX
8
0
62
5
10
0.14142137
20
0.69201353
30
0
70
32
0
VERTEX
8
0
62
5
10
0.14142137
20
0.70586478
30
0
70
32
0
SEQEND
8
0
0
POLYLINE
8
0
62
5
66
1
10
0
20
0
30
0
70
8
0
VERTEX
8
0
62
5
10
0.21213205
20
0.69201353
30
0
70
32
0
VERTEX
8
0
62
5
10
0.21213205
20
0.70586478
30
0
70
32
0
SEQEND
8
0
0
POLYLINE
8
0
62
5
66
1
10
0
20
0
30
0
70
8
0
VERTEX
8
0
62
5
10
0.070710689
20
0.70586478
30
0
70
32
0
VERTEX
8
0
62
5
10
0.070710689
20
0.71971603
30
0
70
32
0
SEQEND
8
0
0
POLYLINE
8
0
62
5
66
1
10
0
20
0
30
0
70
8
0
VERTEX
8
0
62
5
10
0.14142137
20
0.70586478
30
0
70
32
0
VERTEX
8
0
62
5
10
0.14142137
20
0.71971603
30
0
70
32
0
SEQEND
8
0
0
POLYLINE
8
0
62
5
66
1
10
0
20
0
30
0
70
8
0
VERTEX
8
0
62
5
10
0.21213205
20
0.70586478
30
0
70
32
0
VERTEX
8
0
62
5
10
0.21213205
20
0.71971603
30
0
70
32
0
SEQEND
8
0
0
POLYLINE
8
0
62
30
66
1
10
0
20
0
30
0
70
8
0
VERTEX
8
0
62
30
10
1.0947197e-08
20
0.69439002
30
0
70
32
0
VERTEX
8
0
62
30
10
0.0097627746
20
0.70586478
30
0
70
32
0
VERTEX
8
0
62
30
10
1.0947197e-08
20
0.71733953
30
0
70
32
0
SEQEND
8
0
0
POLYLINE
8
0
62
30
66
1
10
0
20
0
30
0
70
8
0
VERTEX
8
0
62
30
10
0.070710689
20
0.69439002
30
0
70
32
0
VERTEX
8
0
62
30
10
0.080473452
20
0.70586478
30
0
70
32
0
VERTEX
8
0
62
30
10
0.070710689
20
0.71733953
30
0
70
32
0
SEQEND
8
0
0
POLYLINE
8
0
62
30
66
1
10
0
20
0
30
0
70
8
0
VERTEX
8
0
62
30
10
0.14142137
20
0.70586478
30
0
70
32
0
VERTEX
8
0
62
30
10
0.14142137
20
0.70586478
30
0
70
32
0
VERTEX
8
0
62
30
10
0.14142137
20
0.70586478
30
0
70
32
0
SEQEND
8
0
0
POLYLINE
8
0
62
30
66
1
10
0
20
0
30
0
70
8
0
VERTEX
8
0
62
30
10
0.21213205
20
0.70586478
30
0
70
32
0
VERTEX
8
0
62
30
10
0.21213205
20
0.70586478
30
0
70
32
0
VERTEX
8
0
62
30
10
0.21213205
20
0.70586478
30
0
70
32
0
SEQEND
8
0
0
POLYLINE
8
0
62
5
66
1
10
0
20
0
30
0
70
8
0
VERTEX
8
0
62
5
10
0.56568544
20
0.71971603
30
0
70
32
0
VERTEX
8
0
62
5
10
0.56568544
20
0.69201353
30
0
70
32
0
SEQEND
8
0
0
POLYLINE
8
0
62
5
66
1
10
0
20
0
30
0
70
8
0
VERTEX
8
0
62
5
10
0.28284272
20
0.69439002
30
0
70
32
0
VERTEX
8
0
62
5
10
0.3535534
20
0.69439002
30
0
70
32
0
VERTEX
8
0
62
5
10
0.42426408
20
0.70586478
30
0
70
32
0
VERTEX
8
0
62
5
10
0.49497476
20
0.70586478
30
0
70
32
0
VERTEX
8
0
62
5
10
0.56568544
20
0.69439002
30
0
70
32
0
SEQEND
8
0
0
POLYLINE
8
0
62
5
66
1
10
0
20
0
30
0
70
8
0
SEQEND
8
0
0
POLYLINE
8
0
62
5
66
1
10
0
20
0
30
0
70
8
0
VERTEX
8
0
62
5
10
0.28284272
20
0.71733953
30
0
70
32
0
VERTEX
8
0
62
5
10
0.3535534
20
0.71733953
30
0
70
32
0
VERTEX
8
0
62
5
10
0.42426408
20
0.70586478
30
0
70
32
0
VERTEX
8
0
62
5
10
0.49497476
20
0.70586478
30
0
70
32
0
VERTEX
8
0
62
5
10
0.56568544
20
0.71733953
30
0
70
32
0
SEQEND
8
0
0
POLYLINE
8
0
62
30
66
1
10
0
20
0
30
0
70
8
0
VERTEX
8
0
62
30
10
0.28284272
20
0.70586478
30
0
70
32
0
VERTEX
8
0
62
30
10
0.56568544
20
0.70586478
30
0
70
32
0
SEQEND
8
0
0
POLYLINE
8
0
62
30
66
1
10
0
20
0
30
0
70
8
0
VERTEX
8
0
62
30
10
0.3535534
20
0.69439002
30
0
70
32
0
VERTEX
8
0
62
30
10
0.3535534
20
0.70586478
30
0
70
32
0
SEQEND
8
0
0
POLYLINE
8
0
62
30
66
1
10
0
20
0
30
0
70
8
0
VERTEX
8
0
62
30
10
0.42426408
20
0.70586478
30
0
70
32
0
VERTEX
8
0
62
30
10
0.42426408
20
0.70586478
30
0
70
32
0
SEQEND
8
0
0
POLYLINE
8
0
62
30
66
1
10
0
20
0
30
0
70
8
0
VERTEX
8
0
62
30
10
0.49497476
20
0.70586478
30
0
70
32
0
VERTEX
8
0
62
30
10
0.49497476
20
0.70586478
30
0
70
32
0
SEQEND
8
0
0
POLYLINE
8
0
62
5
66
1
10
0
20
0
30
0
70
8
0
VERTEX
8
0
62
5
10
0.3535534
20
0.69201353
30
0
70
32
0
VERTEX
8
0
62
5
10
0.3535534
20
0.69439002
30
0
70
32
0
SEQEND
8
0
0
POLYLINE
8
0
62
5
66
1
10
0
20
0
30
0
70
8
0
VERTEX
8
0
62
5
10
0.42426408
20
0.69201353
30
0
70
32
0
VERTEX
8
0
62
5
10
0.42426408
20
0.70586478
30
0
70
32
0
SEQEND
8
0
0
POLYLINE
8
0
62
5
66
1
10
0
20
0
30
0
70
8
0
VERTEX
8
0
62
5
10
0.49497476
20
0.69201353
30
0
70
32
0
VERTEX
8
0
62
5
10
0.49497476
20
0.70586478
30
0
70
32
0
SEQEND
8
0
0
POLYLINE
8
0
62
5
66
1
10
0
20
0
30
0
70
8
0
VERTEX
8
0
62
5
10
0.3535534
20
0.70586478
30
0
70
32
0
VERTEX
8
0
62
5
10
0.3535534
20
0.71971603
30
0
70
32
0
SEQEND
8
0
0
POLYLINE
8
0
62
5
66
1
10
0
20
0
30
0
70
8
0
VERTEX
8
0
62
5
10
0.42426408
20
0.70586478
30
0
70
32
0
VERTEX
8
0
62
5
10
0.42426408
20
0.71971603
30
0
70
32
0
SEQEND
8
0
0
POLYLINE
8
0
62
5
66
1
10
0
20
0
30
0
70
8
0
VERTEX
8
0
62
5
10
0.49497476
20
0.70586478
30
0
70
32
0
VERTEX
8
0
62
5
10
0.49497476
20
0.71971603
30
0
70
32
0
SEQEND
8
0
0
POLYLINE
8
0
62
30
66
1
10
0
20
0
30
0
70
8
0
VERTEX
8
0
62
30
10
0.28284272
20
0.69439002
30
0
70
32
0
VERTEX
8
0
62
30
10
0.29260549
20
0.70586478
30
0
70
32
0
VERTEX
8
0
62
30
10
0.28284272
20
0.71733953
30
0
70
32
0
SEQEND
8
0
0
POLYLINE
8
0
62
30
66
1
10
0
20
0
30
0
70
8
0
VERTEX
8
0
62
30
10
0.3535534
20
0.69439002
30
0
70
32
0
VERTEX
8
0
62
30
10
0.36331616
20
0.70586478
30
0
70
32
0
VERTEX
8
0
62
30
10
0.3535534
20
0.71733953
30
0
70
32
0
SEQEND
8
0
0
POLYLINE
8
0
62
30
66
1
10
0
20
0
30
0
70
8
0
VERTEX
8
0
62
30
10
0.42426408
20
0.70586478
30
0
70
32
0
VERTEX
8
0
62
30
10
0.42426408
20
0.70586478
30
0
70
32
0
VERTEX
8
0
62
30
10
0.42426408
20
0.70586478
30
0
70
32
0
SEQEND
8
0
0
POLYLINE
8
0
62
30
66
1
10
0
20
0
30
0
70
8
0
VERTEX
8
0
62
30
10
0.49497476
20
0.70586478
30
0
70
32
0
VERTEX
8
0
62
30
10
0.49497476
20
0.70586478
30
0
70
32
0
VERTEX
8
0
62
30
10
0.49497476
20
0.70586478
30
0
70
32
0
SEQEND
8
0
0
POLYLINE
8
0
62
5
66
1
10
0
20
0
30
0
70
8
0
VERTEX
8
0
62
5
10
-0.2828427
20
0.69201353
30
0
70
32
0
VERTEX
8
0
62
5
10
-0.2828427
20
0.71971603
30
0
70
32
0
SEQEND
8
0
0
POLYLINE
8
0
62
5
66
1
10
0
20
0
30
0
70
8
0
VERTEX
8
0
62
5
10
-0.2828427
20
0.69439002
30
0
70
32
0
VERTEX
8
0
62
5
10
-0.21213202
20
0.69439002
30
0
70
32
0
VERTEX
8
0
62
5
10
-0.14142135
20
0.70586478
30
0
70
32
0
VERTEX
8
0
62
5
10
-0.070710667
20
0.70586478
30
0
70
32
0
VERTEX
8
0
62
5
10
1.0947197e-08
20
0.69439002
30
0
70
32
0
SEQEND
8
0
0
POLYLINE
8
0
62
5
66
1
10
0
20
0
30
0
70
8
0
SEQEND
8
0
0
POLYLINE
8
0
62
5
66
1
10
0
20
0
30
0
70
8
0
VERTEX
8
0
62
5
10
-0.2828427
20
0.71733953
30
0
70
32
0
VERTEX
8
0
62
5
10
-0.21213202
20
0.71733953
30
0
70
32
0
VERTEX
8
0
62
5
10
-0.14142135
20
0.70586478
30
0
70
32
0
VERTEX
8
0
62
5
10
-0.070710667
20
0.70586478
30
0
70
32
0
VERTEX
8
0
62
5
10
1.0947197e-08
20
0.71733953
30
0
70
32
0
SEQEND
8
0
0
POLYLINE
8
0
62
30
66
1
10
0
20
0
30
0
70
8
0
VERTEX
8
0
62
30
10
-0.2828427
20
0.70586478
30
0
70
32
0
VERTEX
8
0
62
30
10
1.0947197e-08
20
0.70586478
30
0
70
32
0
SEQEND
8
0
0
POLYLINE
8
0
62
30
66
1
10
0
20
0
30
0
70
8
0
VERTEX
8
0
62
30
10
-0.21213202
20
0.69439002
30
0
70
32
0
VERTEX
8
0
62
30
10
-0.21213202
20
0.70586478
30
0
70
32
0
SEQEND
8
0
0
POLYLINE
8
0
62
30
66
1
10
0
20
0
30
0
70
8
0
VERTEX
8
0
62
30
10
-0.14142135
20
0.70586478
30
0
70
32
0
VERTEX
8
0
62
30
10
-0.14142135
20
0.70586478
30
0
70
32
0
SEQEND
8
0
0
POLYLINE
8
0
62
30
66
1
10
0
20
0
30
0
70
8
0
VERTEX
8
0
62
30
10
-0.070710667
20
0.70586478
30
0
70
32
0
VERTEX
8
0
62
30
10
-0.070710667
20
0.70586478
30
0
70
32
0
SEQEND
8
0
0
POLYLINE
8
0
62
5
66
1
10
0
20
0
30
0
70
8
0
VERTEX
8
0
62
5
10
-0.21213202
20
0.69201353
30
0
70
32
0
VERTEX
8
0
62
5
10
-0.21213202
20
0.69439002
30
0
70
32
0
SEQEND
8
0
0
POLYLINE
8
0
62
5
66
1
10
0
20
0
30
0
70
8
0
VERTEX
8
0
62
5
10
-0.14142135
20
0.69201353
30
0
70
32
0
VERTEX
8
0
62
5
10
-0.14142135
20
0.70586478
30
0
70
32
0
SEQEND
8
0
0
POLYLINE
8
0
62
5
66
1
10
0
20
0
30
0
70
8
0
VERTEX
8
0
62
5
10
-0.070710667
20
0.69201353
30
0
70
32
0
VERTEX
8
0
62
5
10
-0.070710667
20
0.70586478
30
0
70
32
0
SEQEND
8
0
0
POLYLINE
8
0
62
5
66
1
10
0
20
0
30
0
70
8
0
VERTEX
8
0
62
5
10
-0.21213202
20
0.70586478
30
0
70
32
0
VERTEX
8
0
62
5
10
-0.21213202
20
0.71971603
30
0
70
32
0
SEQEND
8
0
0
POLYLINE
8
0
62
5
66
1
10
0
20
0
30
0
70
8
0
VERTEX
8
0
62
5
10
-0.14142135
20
0.70586478
30
0
70
32
0
VERTEX
8
0
62
5
10
-0.14142135
20
0.71971603
30
0
70
32
0
SEQEND
8
0
0
POLYLINE
8
0
62
5
66
1
10
0
20
0
30
0
70
8
0
VERTEX
8
0
62
5
10
-0.070710667
20
0.70586478
30
0
70
32
0
VERTEX
8
0
62
5
10
-0.070710667
20
0.71971603
30
0
70
32
0
SEQEND
8
0
0
POLYLINE
8
0
62
30
66
1
10
0
20
0
30
0
70
8
0
VERTEX
8
0
62
30
10
-0.2828427
20
0.69439002
30
0
70
32
0
VERTEX
8
0
62
30
10
-0.27307994
20
0.70586478
30
0
70
32
0
VERTEX
8
0
62
30
10
-0.2828427
20
0.71733953
30
0
70
32
0
SEQEND
8
0
0
POLYLINE
8
0
62
30
66
1
10
0
20
0
30
0
70
8
0
VERTEX
8
0
62
30
10
-0.21213202
20
0.69439002
30
0
70
32
0
VERTEX
8
0
62
30
10
-0.20236926
20
0.70586478
30
0
70
32
0
VERTEX
8
0
62
30
10
-0.21213202
20
0.71733953
30
0
70
32
0
SEQEND
8
0
0
POLYLINE
8
0
62
30
66
1
10
0
20
0
30
0
70
8
0
VERTEX
8
0
62
30
10
-0.14142135
20
0.70586478
30
0
70
32
0
VERTEX
8
0
62
30
10
-0.14142135
20
0.70586478
30
0
70
32
0
VERTEX
8
0
62
30
10
-0.14142135
20
0.70586478
30
0
70
32
0
SEQEND
8
0
0
POLYLINE
8
0
62
30
66
1
10
0
20
0
30
0
70
8
0
VERTEX
8
0
62
30
10
-0.070710667
20
0.70586478
30
0
70
32
0
VERTEX
8
0
62
30
10
-0.070710667
20
0.70586478
30
0
70
32
0
VERTEX
8
0
62
30
10
-0.070710667
20
0.70586478
30
0
70
32
0
SEQEND
8
0
0
POLYLINE
8
0
62
5
66
1
10
0
20
0
30
0
70
8
0
VERTEX
8
0
62
5
10
1.0947197e-08
20
0.71971603
30
0
70
32
0
VERTEX
8
0
62
5
10
1.0947197e-08
20
0.72071603
30
0
70
32
0
SEQEND
8
0
0
POLYLINE
8
0
62
5
66
1
10
0
20
0
30
0
70
8
0
VERTEX
8
0
62
5
10
0.28284272
20
0.71971603
30
0
70
32
0
VERTEX
8
0
62
5
10
0.28284272
20
0.72071603
30
0
70
32
0
SEQEND
8
0
0
POLYLINE
8
0
62
5
66
1
10
0
20
0
30
0
70
8
0
VERTEX
8
0
62
5
10
0.070710689
20
0.71971603
30
0
70
32
0
VERTEX
8
0
62
5
10
0.070710689
20
0.72071603
30
0
70
32
0
SEQEND
8
0
0
POLYLINE
8
0
62
5
66
1
10
0
20
0
30
0
70
8
0
VERTEX
8
0
62
5
10
0.14142137
20
0.71971603
30
0
70
32
0
VERTEX
8
0
62
5
10
0.14142137
20
0.72071603
30
0
70
32
0
SEQEND
8
0
0
POLYLINE
8
0
62
5
66
1
10
0
20
0
30
0
70
8
0
VERTEX
8
0
62
5
10
0.21213205
20
0.71971603
30
0
70
32
0
VERTEX
8
0
62
5
10
0.21213205
20
0.72071603
30
0
70
32
0
SEQEND
8
0
0
POLYLINE
8
0
62
5
66
1
10
0
20
0
30
0
70
8
0
VERTEX
8
0
62
5
10
0.56568544
20
0.71971603
30
0
70
32
0
VERTEX
8
0
62
5
10
0.56568544
20
0.72071603
30
0
70
32
0
SEQEND
8
0
0
POLYLINE
8
0
62
5
66
1
10
0
20
0
30
0
70
8
0
VERTEX
8
0
62
5
10
0.3535534
20
0.71971603
30
0
70
32
0
VERTEX
8
0
62
5
10
0.3535534
20
0.72071603
30
0
70
32
0
SEQEND
8
0
0
POLYLINE
8
0
62
5
66
1
10
0
20
0
30
0
70
8
0
VERTEX
8
0
62
5
10
0.42426408
20
0.71971603
30
0
70
32
0
VERTEX
8
0
62
5
10
0.42426408
20
0.72071603
30
0
70
32
0
SEQEND
8
0
0
POLYLINE
8
0
62
5
66
1
10
0
20
0
30
0
70
8
0
VERTEX
8
0
62
5
10
0.49497476
20
0.71971603
30
0
70
32
0
VERTEX
8
0
62
5
10
0.49497476
20
0.72071603
30
0
70
32
0
SEQEND
8
0
0
POLYLINE
8
0
62
5
66
1
10
0
20
0
30
0
70
8
0
VERTEX
8
0
62
5
10
-0.2828427
20
0.71971603
30
0
70
32
0
VERTEX
8
0
62
5
10
-0.2828427
20
0.72071603
30
0
70
32
0
SEQEND
8
0
0
POLYLINE
8
0
62
5
66
1
10
0
20
0
30
0
70
8
0
VERTEX
8
0
62
5
10
-0.21213202
20
0.71971603
30
0
70
32
0
VERTEX
8
0
62
5
10
-0.21213202
20
0.72071603
30
0
70
32
0
SEQEND
8
0
0
POLYLINE
8
0
62
5
66
1
10
0
20
0
30
0
70
8
0
VERTEX
8
0
62
5
10
-0.14142135
20
0.71971603
30
0
70
32
0
VERTEX
8
0
62
5
10
-0.14142135
20
0.72071603
30
0
70
32
0
SEQEND
8
0
0
POLYLINE
8
0
62
5
66
1
10
0
20
0
30
0
70
8
0
VERTEX
8
0
62
5
10
-0.070710667
20
0.71971603
30
0
70
32
0
VERTEX
8
0
62
5
10
-0.070710667
20
0.72071603
30
0
70
32
0
SEQEND
8
0
0
POLYLINE
8
0
62
5
66
1
10
0
20
0
30
0
70
8
0
VERTEX
8
0
62
5
10
1.0947197e-08
20
0.72071603
30
0
70
32
0
VERTEX
8
0
62
5
10
1.0947197e-08
20
0.86213754
30
0
70
32
0
SEQEND
8
0
0
POLYLINE
8
0
62
5
66
1
10
0
20
0
30
0
70
8
0
VERTEX
8
0
62
5
10
0.28284272
20
0.86213754
30
0
70
32
0
VERTEX
8
0
62
5
10
0.28284272
20
0.72071603
30
0
70
32
0
SEQEND
8
0
0
POLYLINE
8
0
62
5
66
1
10
0
20
0
30
0
70
8
0
VERTEX
8
0
62
5
10
1.0947197e-08
20
0.72678208
30
0
70
32
0
VERTEX
8
0
62
5
10
0.070710689
20
0.726782
30
0
70
32
0
VERTEX
8
0
62
5
10
0.14142137
20
0.75607133
30
0
70
32
0
VERTEX
8
0
62
5
10
0.21213205
20
0.7560714
30
0
70
32
0
VERTEX
8
0
62
5
10
0.28284272
20
0.72678208
30
0
70
32
0
SEQEND
8
0
0
POLYLINE
8
0
62
5
66
1
10
0
20
0
30
0
70
8
0
VERTEX
8
0
62
5
10
1.0947197e-08
20
0.79749284
30
0
70
32
0
VERTEX
8
0
62
5
10
0.070710689
20
0.79749276
30
0
70
32
0
VERTEX
8
0
62
5
10
0.14142137
20
0.82678208
30
0
70
32
0
VERTEX
8
0
62
5
10
0.21213205
20
0.82678216
30
0
70
32
0
VERTEX
8
0
62
5
10
0.28284272
20
0.79749284
30
0
70
32
0
SEQEND
8
0
0
POLYLINE
8
0
62
5
66
1
10
0
20
0
30
0
70
8
0
VERTEX
8
0
62
5
10
1.0947197e-08
20
0.78536073
30
0
70
32
0
VERTEX
8
0
62
5
10
0.070710689
20
0.7853608
30
0
70
32
0
VERTEX
8
0
62
5
10
0.14142137
20
0.75607148
30
0
70
32
0
VERTEX
8
0
62
5
10
0.21213205
20
0.7560714
30
0
70
32
0
VERTEX
8
0
62
5
10
0.28284272
20
0.78536073
30
0
70
32
0
SEQEND
8
0
0
POLYLINE
8
0
62
5
66
1
10
0
20
0
30
0
70
8
0
VERTEX
8
0
62
5
10
1.0947197e-08
20
0.85607148
30
0
70
32
0
VERTEX
8
0
62
5
10
0.070710689
20
0.85607156
30
0
70
32
0
VERTEX
8
0
62
5
10
0.14142137
20
0.82678224
30
0
70
32
0
VERTEX
8
0
62
5
10
0.21213205
20
0.82678216
30
0
70
32
0
VERTEX
8
0
62
5
10
0.28284272
20
0.85607148
30
0
70
32
0
SEQEND
8
0
0
POLYLINE
8
0
62
30
66
1
10
0
20
0
30
0
70
8
0
VERTEX
8
0
62
30
10
1.0947197e-08
20
0.7560714
30
0
70
32
0
VERTEX
8
0
62
30
10
0.28284272
20
0.7560714
30
0
70
32
0
SEQEND
8
0
0
POLYLINE
8
0
62
30
66
1
10
0
20
0
30
0
70
8
0
VERTEX
8
0
62
30
10
1.0947197e-08
20
0.82678216
30
0
70
32
0
VERTEX
8
0
62
30
10
0.28284272
20
0.82678216
30
0
70
32
0
SEQEND
8
0
0
POLYLINE
8
0
62
30
66
1
10
0
20
0
30
0
70
8
0
VERTEX
8
0
62
30
10
0.070710689
20
0.726782
30
0
70
32
0
VERTEX
8
0
62
30
10
0.070710689
20
0.7560714
30
0
70
32
0
SEQEND
8
0
0
POLYLINE
8
0
62
30
66
1
10
0
20
0
30
0
70
8
0
VERTEX
8
0
62
30
10
0.14142137
20
0.75607133
30
0
70
32
0
VERTEX
8
0
62
30
10
0.14142137
20
0.7560714
30
0
70
32
0
SEQEND
8
0
0
POLYLINE
8
0
62
30
66
1
10
0
20
0
30
0
70
8
0
VERTEX
8
0
62
30
10
0.21213205
20
0.7560714
30
0
70
32
0
VERTEX
8
0
62
30
10
0.21213205
20
0.7560714
30
0
70
32
0
SEQEND
8
0
0
POLYLINE
8
0
62
30
66
1
10
0
20
0
30
0
70
8
0
VERTEX
8
0
62
30
10
0.070710689
20
0.79749276
30
0
70
32
0
VERTEX
8
0
62
30
10
0.070710689
20
0.82678216
30
0
70
32
0
SEQEND
8
0
0
POLYLINE
8
0
62
30
66
1
10
0
20
0
30
0
70
8
0
VERTEX
8
0
62
30
10
0.14142137
20
0.82678208
30
0
70
32
0
VERTEX
8
0
62
30
10
0.14142137
20
0.82678216
30
0
70
32
0
SEQEND
8
0
0
POLYLINE
8
0
62
30
66
1
10
0
20
0
30
0
70
8
0
VERTEX
8
0
62
30
10
0.21213205
20
0.82678216
30
0
70
32
0
VERTEX
8
0
62
30
10
0.21213205
20
0.82678216
30
0
70
32
0
SEQEND
8
0
0
POLYLINE
8
0
62
5
66
1
10
0
20
0
30
0
70
8
0
VERTEX
8
0
62
5
10
0.070710689
20
0.72071603
30
0
70
32
0
VERTEX
8
0
62
5
10
0.070710689
20
0.726782
30
0
70
32
0
SEQEND
8
0
0
POLYLINE
8
0
62
5
66
1
10
0
20
0
30
0
70
8
0
VERTEX
8
0
62
5
10
0.14142137
20
0.72071603
30
0
70
32
0
VERTEX
8
0
62
5
10
0.14142137
20
0.75607133
30
0
70
32
0
SEQEND
8
0
0
POLYLINE
8
0
62
5
66
1
10
0
20
0
30
0
70
8
0
VERTEX
8
0
62
5
10
0.21213205
20
0.72071603
30
0
70
32
0
VERTEX
8
0
62
5
10
0.21213205
20
0.7560714
30
0
70
32
0
SEQEND
8
0
0
POLYLINE
8
0
62
5
66
1
10
0
20
0
30
0
70
8
0
VERTEX
8
0
62
5
10
0.070710689
20
0.79142678
30
0
70
32
0
VERTEX
8
0
62
5
10
0.070710689
20
0.79749276
30
0
70
32
0
SEQEND
8
0
0
POLYLINE
8
0
62
5
66
1
10
0
20
0
30
0
70
8
0
VERTEX
8
0
62
5
10
0.14142137
20
0.79142678
30
0
70
32
0
VERTEX
8
0
62
5
10
0.14142137
20
0.82678208
30
0
70
32
0
SEQEND
8
0
0
POLYLINE
8
0
62
5
66
1
10
0
20
0
30
0
70
8
0
VERTEX
8
0
62
5
10
0.21213205
20
0.79142678
30
0
70
32
0
VERTEX
8
0
62
5
10
0.21213205
20
0.82678216
30
0
70
32
0
SEQEND
8
0
0
POLYLINE
8
0
62
5
66
1
10
0
20
0
30
0
70
8
0
VERTEX
8
0
62
5
10
0.070710689
20
0.7560714
30
0
70
32
0
VERTEX
8
0
62
5
10
0.070710689
20
0.79142678
30
0
70
32
0
SEQEND
8
0
0
POLYLINE
8
0
62
5
66
1
10
0
20
0
30
0
70
8
0
VERTEX
8
0
62
5
10
0.14142137
20
0.7560714
30
0
70
32
0
VERTEX
8
0
62
5
10
0.14142137
20
0.79142678
30
0
70
32
0
SEQEND
8
0
0
POLYLINE
8
0
62
5
66
1
10
0
20
0
30
0
70
8
0
VERTEX
8
0
62
5
10
0.21213205
20
0.7560714
30
0
70
32
0
VERTEX
8
0
62
5
10
0.21213205
20
0.79142678
30
0
70
32
0
SEQEND
8
0
0
POLYLINE
8
0
62
5
66
1
10
0
20
0
30
0
70
8
0
VERTEX
8
0
62
5
10
0.070710689
20
0.82678216
30
0
70
32
0
VERTEX
8
0
62
5
10
0.070710689
20
0.86213754
30
0
70
32
0
SEQEND
8
0
0
POLYLINE
8
0
62
5
66
1
10
0
20
0
30
0
70
8
0
VERTEX
8
0
62
5
10
0.14142137
20
0.82678216
30
0
70
32
0
VERTEX
8
0
62
5
10
0.14142137
20
0.86213754
30
0
70
32
0
SEQEND
8
0
0
POLYLINE
8
0
62
5
66
1
10
0
20
0
30
0
70
8
0
VERTEX
8
0
62
5
10
0.21213205
20
0.82678216
30
0
70
32
0
VERTEX
8
0
62
5
10
0.21213205
20
0.86213754
30
0
70
32
0
SEQEND
8
0
0
POLYLINE
8
0
62
30
66
1
10
0
20
0
30
0
70
8
0
VERTEX
8
0
62
30
10
1.0947197e-08
20
0.72678208
30
0
70
32
0
VERTEX
8
0
62
30
10
0.019570524
20
0.7560714
30
0
70
32
0
VERTEX
8
0
62
30
10
1.0947197e-08
20
0.78536073
30
0
70
32
0
SEQEND
8
0
0
POLYLINE
8
0
62
30
66
1
10
0
20
0
30
0
70
8
0
VERTEX
8
0
62
30
10
0.070710689
20
0.726782
30
0
70
32
0
VERTEX
8
0
62
30
10
0.090281227
20
0.7560714
30
0
70
32
0
VERTEX
8
0
62
30
10
0.070710689
20
0.7853608
30
0
70
32
0
SEQEND
8
0
0
POLYLINE
8
0
62
30
66
1
10
0
20
0
30
0
70
8
0
VERTEX
8
0
62
30
10
0.14142137
20
0.75607133
30
0
70
32
0
VERTEX
8
0
62
30
10
0.14142148
20
0.7560714
30
0
70
32
0
VERTEX
8
0
62
30
10
0.14142137
20
0.75607148
30
0
70
32
0
SEQEND
8
0
0
POLYLINE
8
0
62
30
66
1
10
0
20
0
30
0
70
8
0
VERTEX
8
0
62
30
10
0.21213205
20
0.7560714
30
0
70
32
0
VERTEX
8
0
62
30
10
0.21213205
20
0.7560714
30
0
70
32
0
VERTEX
8
0
62
30
10
0.21213205
20
0.7560714
30
0
70
32
0
SEQEND
8
0
0
POLYLINE
8
0
62
30
66
1
10
0
20
0
30
0
70
8
0
VERTEX
8
0
62
30
10
1.0947197e-08
20
0.79749284
30
0
70
32
0
VERTEX
8
0
62
30
10
0.019570524
20
0.82678216
30
0
70
32
0
VERTEX
8
0
62
30
10
1.0947197e-08
20
0.85607148
30
0
70
32
0
SEQEND
8
0
0
POLYLINE
8
0
62
30
66
1
10
0
20
0
30
0
70
8
0
VERTEX
8
0
62
30
10
0.070710689
20
0.79749276
30
0
70
32
0
VERTEX
8
0
62
30
10
0.090281227
20
0.82678216
30
0
70
32
0
VERTEX
8
0
62
30
10
0.070710689
20
0.85607156
30
0
70
32
0
SEQEND
8
0
0
POLYLINE
8
0
62
30
66
1
10
0
20
0
30
0
70
8
0
VERTEX
8
0
62
30
10
0.14142137
20
0.82678208
30
0
70
32
0
VERTEX
8
0
62
30
10
0.14142148
20
0.82678216
30
0
70
32
0
VERTEX
8
0
62
30
10
0.14142137
20
0.82678224
30
0
70
32
0
SEQEND
8
0
0
POLYLINE
8
0
62
30
66
1
10
0
20
0
30
0
70
8
0
VERTEX
8
0
62
30
10
0.21213205
20
0.82678216
30
0
70
32
0
VERTEX
8
0
62
30
10
0.21213205
20
0.82678216
30
0
70
32
0
VERTEX
8
0
62
30
10
0.21213205
20
0.82678216
30
0
70
32
0
SEQEND
8
0
0
POLYLINE
8
0
62
5
66
1
10
0
20
0
30
0
70
8
0
VERTEX
8
0
62
5
10
0.56568544
20
0.86213754
30
0
70
32
0
VERTEX
8
0
62
5
10
0.56568544
20
0.72071603
30
0
70
32
0
SEQEND
8
0
0
POLYLINE
8
0
62
5
66
1
10
0
20
0
30
0
70
8
0
VERTEX
8
0
62
5
10
0.28284272
20
0.72678208
30
0
70
32
0
VERTEX
8
0
62
5
10
0.3535534
20
0.726782
30
0
70
32
0
VERTEX
8
0
62
5
10
0.42426408
20
0.75607133
30
0
70
32
0
VERTEX
8
0
62
5
10
0.49497476
20
0.7560714
30
0
70
32
0
VERTEX
8
0
62
5
10
0.56568544
20
0.72678208
30
0
70
32
0
SEQEND
8
0
0
POLYLINE
8
0
62
5
66
1
10
0
20
0
30
0
70
8
0
VERTEX
8
0
62
5
10
0.28284272
20
0.79749284
30
0
70
32
0
VERTEX
8
0
62
5
10
0.3535534
20
0.79749276
30
0
70
32
0
VERTEX
8
0
62
5
10
0.42426408
20
0.82678208
30
0
70
32
0
VERTEX
8
0
62
5
10
0.49497476
20
0.82678216
30
0
70
32
0
VERTEX
8
0
62
5
10
0.56568544
20
0.79749284
30
0
70
32
0
SEQEND
8
0
0
POLYLINE
8
0
62
5
66
1
10
0
20
0
30
0
70
8
0
VERTEX
8
0
62
5
10
0.28284272
20
0.78536073
30
0
70
32
0
VERTEX
8
0
62
5
10
0.3535534
20
0.7853608
30
0
70
32
0
VERTEX
8
0
62
5
10
0.42426408
20
0.75607148
30
0
70
32
0
VERTEX
8
0
62
5
10
0.49497476
20
0.7560714
30
0
70
32
0
VERTEX
8
0
62
5
10
0.56568544
20
0.78536073
30
0
70
32
0
SEQEND
8
0
0
POLYLINE
8
0
62
5
66
1
10
0
20
0
30
0
70
8
0
VERTEX
8
0
62
5
10
0.28284272
20
0.85607148
30
0
70
32
0
VERTEX
8
0
62
5
10
0.3535534
20
0.85607156
30
0
70
32
0
VERTEX
8
0
62
5
10
0.42426408
20
0.82678224
30
0
70
32
0
VERTEX
8
0
62
5
10
0.49497476
20
0.82678216
30
0
70
32
0
VERTEX
8
0
62
5
10
0.56568544
20
0.85607148
30
0
70
32
0
SEQEND
8
0
0
POLYLINE
8
0
62
30
66
1
10
0
20
0
30
0
70
8
0
VERTEX
8
0
62
30
10
0.28284272
20
0.7560714
30
0
70
32
0
VERTEX
8
0
62
30
10
0.56568544
20
0.7560714
30
0
70
32
0
SEQEND
8
0
0
POLYLINE
8
0
62
30
66
1
10
0
20
0
30
0
70
8
0
VERTEX
8
0
62
30
10
0.28284272
20
0.82678216
30
0
70
32
0
VERTEX
8
0
62
30
10
0.56568544
20
0.82678216
30
0
70
32
0
SEQEND
8
0
0
POLYLINE
8
0
62
30
66
1
10
0
20
0
30
0
70
8
0
VERTEX
8
0
62
30
10
0.3535534
20
0.726782
30
0
70
32
0
VERTEX
8
0
62
30
10
0.3535534
20
0.7560714
30
0
70
32
0
SEQEND
8
0
0
POLYLINE
8
0
62
30
66
1
10
0
20
0
30
0
70
8
0
VERTEX
8
0
62
30
10
0.42426408
20
0.75607133
30
0
70
32
0
VERTEX
8
0
62
30
10
0.42426408
20
0.7560714
30
0
70
32
0
SEQEND
8
0
0
POLYLINE
8
0
62
30
66
1
10
0
20
0
30
0
70
8
0
VERTEX
8
0
62
30
10
0.49497476
20
0.7560714
30
0
70
32
0
VERTEX
8
0
62
30
10
0.49497476
20
0.7560714
30
0
70
32
0
SEQEND
8
0
0
POLYLINE
8
0
62
30
66
1
10
0
20
0
30
0
70
8
0
VERTEX
8
0
62
30
10
0.3535534
20
0.79749276
30
0
70
32
0
VERTEX
8
0
62
30
10
0.3535534
20
0.82678216
30
0
70
32
0
SEQEND
8
0
0
POLYLINE
8
0
62
30
66
1
10
0
20
0
30
0
70
8
0
VERTEX
8
0
62
30
10
0.42426408
20
0.82678208
30
0
70
32
0
VERTEX
8
0
62
30
10
0.42426408
20
0.82678216
30
0
70
32
0
SEQEND
8
0
0
POLYLINE
8
0
62
30
66
1
10
0
20
0
30
0
70
8
0
VERTEX
8
0
62
30
10
0.49497476
20
0.82678216
30
0
70
32
0
VERTEX
8
0
62
30
10
0.49497476
20
0.82678216
30
0
70
32
0
SEQEND
8
0
0
POLYLINE
8
0
62
5
66
1
10
0
20
0
30
0
70
8
0
VERTEX
8
0
62
5
10
0.3535534
20
0.72071603
30
0
70
32
0
VERTEX
8
0
62
5
10
0.3535534
20
0.726782
30
0
70
32
0
SEQEND
8
0
0
POLYLINE
8
0
62
5
66
1
10
0
20
0
30
0
70
8
0
VERTEX
8
0
62
5
10
0.42426408
20
0.72071603
30
0
70
32
0
VERTEX
8
0
62
5
10
0.42426408
20
0.75607133
30
0
70
32
0
SEQEND
8
0
0
POLYLINE
8
0
62
5
66
1
10
0
20
0
30
0
70
8
0
VERTEX
8
0
62
5
10
0.49497476
20
0.72071603
30
0
70
32
0
VERTEX
8
0
62
5
10
0.49497476
20
0.7560714
30
0
70
32
0
SEQEND
8
0
0
POLYLINE
8
0
62
5
66
1
10
0
20
0
30
0
70
8
0
VERTEX
8
0
62
5
10
0.3535534
20
0.79142678
30
0
70
32
0
VERTEX
8
0
62
5
10
0.3535534
20
0.79749276
30
0
70
32
0
SEQEND
8
0
0
POLYLINE
8
0
62
5
66
1
10
0
20
0
30
0
70
8
0
VERTEX
8
0
62
5
10
0.42426408
20
0.79142678
30
0
70
32
0
VERTEX
8
0
62
5
10
0.42426408
20
0.82678208
30
0
70
32
0
SEQEND
8
0
0
POLYLINE
8
0
62
5
66
1
10
0
20
0
30
0
70
8
0
VERTEX
8
0
62
5
10
0.49497476
20
0.79142678
30
0
70
32
0
VERTEX
8
0
62
5
10
0.49497476
20
0.82678216
30
0
70
32
0
SEQEND
8
0
0
POLYLINE
8
0
62
5
66
1
10
0
20
0
30
0
70
8
0
VERTEX
8
0
62
5
10
0.3535534
20
0.7560714
30
0
70
32
0
VERTEX
8
0
62
5
10
0.3535534
20
0.79142678
30
0
70
32
0
SEQEND
8
0
0
POLYLINE
8
0
62
5
66
1
10
0
20
0
30
0
70
8
0
VERTEX
8
0
62
5
10
0.42426408
20
0.7560714
30
0
70
32
0
VERTEX
8
0
62
5
10
0.42426408
20
0.79142678
30
0
70
32
0
SEQEND
8
0
0
POLYLINE
8
0
62
5
66
1
10
0
20
0
30
0
70
8
0
VERTEX
8
0
62
5
10
0.49497476
20
0.7560714
30
0
70
32
0
VERTEX
8
0
62
5
10
0.49497476
20
0.79142678
30
0
70
32
0
SEQEND
8
0
0
POLYLINE
8
0
62
5
66
1
10
0
20
0
30
0
70
8
0
VERTEX
8
0
62
5
10
0.3535534
20
0.82678216
30
0
70
32
0
VERTEX
8
0
62
5
10
0.3535534
20
0.86213754
30
0
70
32
0
SEQEND
8
0
0
POLYLINE
8
0
62
5
66
1
10
0
20
0
30
0
70
8
0
VERTEX
8
0
62
5
10
0.42426408
20
0.82678216
30
0
70
32
0
VERTEX
8
0
62
5
10
0.42426408
20
0.86213754
30
0
70
32
0
SEQEND
8
0
0
POLYLINE
8
0
62
5
66
1
10
0
20
0
30
0
70
8
0
VERTEX
8
0
62
5
10
0.49497476
20
0.82678216
30
0
70
32
0
VERTEX
8
0
62
5
10
0.49497476
20
0.86213754
30
0
70
32
0
SEQEND
8
0
0
POLYLINE
8
0
62
30
66
1
10
0
20
0
30
0
70
8
0
VERTEX
8
0
62
30
10
0.28284272
20
0.72678208
30
0
70
32
0
VERTEX
8
0
62
30
10
0.30241324
20
0.7560714
30
0
70
32
0
VERTEX
8
0
62
30
10
0.28284272
20
0.78536073
30
0
70
32
0
SEQEND
8
0
0
POLYLINE
8
0
62
30
66
1
10
0
20
0
30
0
70
8
0
VERTEX
8
0
62
30
10
0.3535534
20
0.726782
30
0
70
32
0
VERTEX
8
0
62
30
10
0.37312394
20
0.7560714
30
0
70
32
0
VERTEX
8
0
62
30
10
0.3535534
20
0.7853608
30
0
70
32
0
SEQEND
8
0
0
POLYLINE
8
0
62
30
66
1
10
0
20
0
30
0
70
8
0
VERTEX
8
0
62
30
10
0.42426408
20
0.75607133
30
0
70
32
0
VERTEX
8
0
62
30
10
0.4242642
20
0.7560714
30
0
70
32
0
VERTEX
8
0
62
30
10
0.42426408
20
0.75607148
30
0
70
32
0
SEQEND
8
0
0
POLYLINE
8
0
62
30
66
1
10
0
20
0
30
0
70
8
0
VERTEX
8
0
62
30
10
0.49497476
20
0.7560714
30
0
70
32
0
VERTEX
8
0
62
30
10
0.49497476
20
0.7560714
30
0
70
32
0
VERTEX
8
0
62
30
10
0.49497476
20
0.7560714
30
0
70
32
0
SEQEND
8
0
0
POLYLINE
8
0
62
30
66
1
10
0
20
0
30
0
70
8
0
VERTEX
8
0
62
30
10
0.28284272
20
0.79749284
30
0
70
32
0
VERTEX
8
0
62
30
10
0.30241324
20
0.82678216
30
0
70
32
0
VERTEX
8
0
62
30
10
0.28284272
20
0.85607148
30
0
70
32
0
SEQEND
8
0
0
POLYLINE
8
0
62
30
66
1
10
0
20
0
30
0
70
8
0
VERTEX
8
0
62
30
10
0.3535534
20
0.79749276
30
0
70
32
0
VERTEX
8
0
62
30
10
0.37312394
20
0.82678216
30
0
70
32
0
VERTEX
8
0
62
30
10
0.3535534
20
0.85607156
30
0
70
32
0
SEQEND
8
0
0
POLYLINE
8
0
62
30
66
1
10
0
20
0
30
0
70
8
0
VERTEX
8
0
62
30
10
0.42426408
20
0.82678208
30
0
70
32
0
VERTEX
8
0
62
30
10
0.4242642
20
0.82678216
30
0
70
32
0
VERTEX
8
0
62
30
10
0.42426408
20
0.82678224
30
0
70
32
0
SEQEND
8
0
0
POLYLINE
8
0
62
30
66
1
10
0
20
0
30
0
70
8
0
VERTEX
8
0
62
30
10
0.49497476
20
0.82678216
30
0
70
32
0
VERTEX
8
0
62
30
10
0.49497476
20
0.82678216
30
0
70
32
0
VERTEX
8
0
62
30
10
0.49497476
20
0.82678216
30
0
70
32
0
SEQEND
8
0
0
POLYLINE
8
0
62
5
66
1
10
0
20
0
30
0
70
8
0
VERTEX
8
0
62
5
10
-0.2828427
20
0.72071603
30
0
70
32
0
VERTEX
8
0
62
5
10
-0.2828427
20
0.86213754
30
0
70
32
0
SEQEND
8
0
0
POLYLINE
8
0
62
5
66
1
10
0
20
0
30
0
70
8
0
VERTEX
8
0
62
5
10
-0.2828427
20
0.72678208
30
0
70
32
0
VERTEX
8
0
62
5
10
-0.21213202
20
0.726782
30
0
70
32
0
VERTEX
8
0
62
5
10
-0.14142135
20
0.75607133
30
0
70
32
0
VERTEX
8
0
62
5
10
-0.070710667
20
0.7560714
30
0
70
32
0
VERTEX
8
0
62
5
10
1.0947197e-08
20
0.72678208
30
0
70
32
0
SEQEND
8
0
0
POLYLINE
8
0
62
5
66
1
10
0
20
0
30
0
70
8
0
VERTEX
8
0
62
5
10
-0.2828427
20
0.79749284
30
0
70
32
0
VERTEX
8
0
62
5
10
-0.21213202
20
0.79749276
30
0
70
32
0
VERTEX
8
0
62
5
10
-0.14142135
20
0.82678208
30
0
70
32
0
VERTEX
8
0
62
5
10
-0.070710667
20
0.82678216
30
0
70
32
0
VERTEX
8
0
62
5
10
1.0947197e-08
20
0.79749284
30
0
70
32
0
SEQEND
8
0
0
POLYLINE
8
0
62
5
66
1
10
0
20
0
30
0
70
8
0
VERTEX
8
0
62
5
10
-0.2828427
20
0.78536073
30
0
70
32
0
VERTEX
8
0
62
5
10
-0.21213202
20
0.7853608
30
0
70
32
0
VERTEX
8
0
62
5
10
-0.14142135
20
0.75607148
30
0
70
32
0
VERTEX
8
0
62
5
10
-0.070710667
20
0.7560714
30
0
70
32
0
VERTEX
8
0
62
5
10
1.0947197e-08
20
0.78536073
30
0
70
32
0
SEQEND
8
0
0
POLYLINE
8
0
62
5
66
1
10
0
20
0
30
0
70
8
0
VERTEX
8
0
62
5
10
-0.2828427
20
0.85607148
30
0
70
32
0
VERTEX
8
0
62
5
10
-0.21213202
20
0.85607156
30
0
70
32
0
VERTEX
8
0
62
5
10
-0.14142135
20
0.82678224
30
0
70
32
0
VERTEX
8
0
62
5
10
-0.070710667
20
0.82678216
30
0
70
32
0
VERTEX
8
0
62
5
10
1.0947197e-08
20
0.85607148
30
0
70
32
0
SEQEND
8
0
0
POLYLINE
8
0
62
30
66
1
10
0
20
0
30
0
70
8
0
VERTEX
8
0
62
30
10
-0.2828427
20
0.7560714
30
0
70
32
0
VERTEX
8
0
62
30
10
1.0947197e-08
20
0.7560714
30
0
70
32
0
SEQEND
8
0
0
POLYLINE
8
0
62
30
66
1
10
0
20
0
30
0
70
8
0
VERTEX
8
0
62
30
10
-0.2828427
20
0.82678216
30
0
70
32
0
VERTEX
8
0
62
30
10
1.0947197e-08
20
0.82678216
30
0
70
32
0
SEQEND
8
0
0
POLYLINE
8
0
62
30
66
1
10
0
20
0
30
0
70
8
0
VERTEX
8
0
62
30
10
-0.21213202
20
0.726782
30
0
70
32
0
VERTEX
8
0
62
30
10
-0.21213202
20
0.7560714
30
0
70
32
0
SEQEND
8
0
0
POLYLINE
8
0
62
30
66
1
10
0
20
0
30
0
70
8
0
VERTEX
8
0
62
30
10
-0.14142135
20
0.75607133
30
0
70
32
0
VERTEX
8
0
62
30
10
-0.14142135
20
0.7560714
30
0
70
32
0
SEQEND
8
0
0
POLYLINE
8
0
62
30
66
1
10
0
20
0
30
0
70
8
0
VERTEX
8
0
62
30
10
-0.070710667
20
0.7560714
30
0
70
32
0
VERTEX
8
0
62
30
10
-0.070710667
20
0.7560714
30
0
70
32
0
SEQEND
8
0
0
POLYLINE
8
0
62
30
66
1
10
0
20
0
30
0
70
8
0
VERTEX
8
0
62
30
10
-0.21213202
20
0.79749276
30
0
70
32
0
VERTEX
8
0
62
30
10
-0.21213202
20
0.82678216
30
0
70
32
0
SEQEND
8
0
0
POLYLINE
8
0
62
30
66
1
10
0
20
0
30
0
70
8
0
VERTEX
8
0
62
30
10
-0.14142135
20
0.82678208
30
0
70
32
0
VERTEX
8
0
62
30
10
-0.14142135
20
0.82678216
30
0
70
32
0
SEQEND
8
0
0
POLYLINE
8
0
62
30
66
1
10
0
20
0
30
0
70
8
0
VERTEX
8
0
62
30
10
-0.070710667
20
0.82678216
30
0
70
32
0
VERTEX
8
0
62
30
10
-0.070710667
20
0.82678216
30
0
70
32
0
SEQEND
8
0
0
POLYLINE
8
0
62
5
66
1
10
0
20
0
30
0
70
8
0
VERTEX
8
0
62
5
10
-0.21213202
20
0.72071603
30
0
70
32
0
VERTEX
8
0
62
5
10
-0.21213202
20
0.726782
30
0
70
32
0
SEQEND
8
0
0
POLYLINE
8
0
62
5
66
1
10
0
20
0
30
0
70
8
0
VERTEX
8
0
62
5
10
-0.14142135
20
0.72071603
30
0
70
32
0
VERTEX
8
0
62
5
10
-0.14142135
20
0.75607133
30
0
70
32
0
SEQEND
8
0
0
POLYLINE
8
0
62
5
66
1
10
0
20
0
30
0
70
8
0
VERTEX
8
0
62
5
10
-0.070710667
20
0.72071603
30
0
70
32
0
VERTEX
8
0
62
5
10
-0.070710667
20
0.7560714
30
0
70
32
0
SEQEND
8
0
0
POLYLINE
8
0
62
5
66
1
10
0
20
0
30
0
70
8
0
VERTEX
8
0
62
5
10
-0.21213202
20
0.79142678
30
0
70
32
0
VERTEX
8
0
62
5
10
-0.21213202
20
0.79749276
30
0
70
32
0
SEQEND
8
0
0
POLYLINE
8
0
62
5
66
1
10
0
20
0
30
0
70
8
0
VERTEX
8
0
62
5
10
-0.14142135
20
0.79142678
30
0
70
32
0
VERTEX
8
0
62
5
10
-0.14142135
20
0.82678208
30
0
70
32
0
SEQEND
8
0
0
POLYLINE
8
0
62
5
66
1
10
0
20
0
30
0
70
8
0
VERTEX
8
0
62
5
10
-0.070710667
20
0.79142678
30
0
70
32
0
VERTEX
8
0
62
5
10
-0.070710667
20
0.82678216
30
0
70
32
0
SEQEND
8
0
0
POLYLINE
8
0
62
5
66
1
10
0
20
0
30
0
70
8
0
VERTEX
8
0
62
5
10
-0.21213202
20
0.7560714
30
0
70
32
0
VERTEX
8
0
62
5
10
-0.21213202
20
0.79142678
30
0
70
32
0
SEQEND
8
0
0
POLYLINE
8
0
62
5
66
1
10
0
20
0
30
0
70
8
0
VERTEX
8
0
62
5
10
-0.14142135
20
0.7560714
30
0
70
32
0
VERTEX
8
0
62
5
10
-0.14142135
20
0.79142678
30
0
70
32
0
SEQEND
8
0
0
POLYLINE
8
0
62
5
66
1
10
0
20
0
30
0
70
8
0
VERTEX
8
0
62
5
10
-0.070710667
20
0.7560714
30
0
70
32
0
VERTEX
8
0
62
5
10
-0.070710667
20
0.79142678
30
0
70
32
0
SEQEND
8
0
0
POLYLINE
8
0
62
5
66
1
10
0
20
0
30
0
70
8
0
VERTEX
8
0
62
5
10
-0.21213202
20
0.82678216
30
0
70
32
0
VERTEX
8
0
62
5
10
-0.21213202
20
0.86213754
30
0
70
32
0
SEQEND
8
0
0
POLYLINE
8
0
62
5
66
1
10
0
20
0
30
0
70
8
0
VERTEX
8
0
62
5
10
-0.14142135
20
0.82678216
30
0
70
32
0
VERTEX
8
0
62
5
10
-0.14142135
20
0.86213754
30
0
70
32
0
SEQEND
8
0
0
POLYLINE
8
0
62
5
66
1
10
0
20
0
30
0
70
8
0
VERTEX
8
0
62
5
10
-0.070710667
20
0.82678216
30
0
70
32
0
VERTEX
8
0
62
5
10
-0.070710667
20
0.86213754
30
0
70
32
0
SEQEND
8
0
0
POLYLINE
8
0
62
30
66
1
10
0
20
0
30
0
70
8
0
VERTEX
8
0
62
30
10
-0.2828427
20
0.72678208
30
0
70
32
0
VERTEX
8
0
62
30
10
-0.26327219
20
0.7560714
30
0
70
32
0
VERTEX
8
0
62
30
10
-0.2828427
20
0.78536073
30
0
70
32
0
SEQEND
8
0
0
POLYLINE
8
0
62
30
66
1
10
0
20
0
30
0
70
8
0
VERTEX
8
0
62
30
10
-0.21213202
20
0.726782
30
0
70
32
0
VERTEX
8
0
62
30
10
-0.19256149
20
0.7560714
30
0
70
32
0
VERTEX
8
0
62
30
10
-0.21213202
20
0.7853608
30
0
70
32
0
SEQEND
8
0
0
POLYLINE
8
0
62
30
66
1
10
0
20
0
30
0
70
8
0
VERTEX
8
0
62
30
10
-0.14142135
20
0.75607133
30
0
70
32
0
VERTEX
8
0
62
30
10
-0.14142123
20
0.7560714
30
0
70
32
0
VERTEX
8
0
62
30
10
-0.14142135
20
0.75607148
30
0
70
32
0
SEQEND
8
0
0
POLYLINE
8
0
62
30
66
1
10
0
20
0
30
0
70
8
0
VERTEX
8
0
62
30
10
-0.070710667
20
0.7560714
30
0
70
32
0
VERTEX
8
0
62
30
10
-0.070710667
20
0.7560714
30
0
70
32
0
VERTEX
8
0
62
30
10
-0.070710667
20
0.7560714
30
0
70
32
0
SEQEND
8
0
0
POLYLINE
8
0
62
30
66
1
10
0
20
0
30
0
70
8
0
VERTEX
8
0
62
30
10
-0.2828427
20
0.79749284
30
0
70
32
0
VERTEX
8
0
62
30
10
-0.26327219
20
0.82678216
30
0
70
32
0
VERTEX
8
0
62
30
10
-0.2828427
20
0.85607148
30
0
70
32
0
SEQEND
8
0
0
POLYLINE
8
0
62
30
66
1
10
0
20
0
30
0
70
8
0
VERTEX
8
0
62
30
10
-0.21213202
20
0.79749276
30
0
70
32
0
VERTEX
8
0
62
30
10
-0.19256149
20
0.82678216
30
0
70
32
0
VERTEX
8
0
62
30
10
-0.21213202
20
0.85607156
30
0
70
32
0
SEQEND
8
0
0
POLYLINE
8
0
62
30
66
1
10
0
20
0
30
0
70
8
0
VERTEX
8
0
62
30
10
-0.14142135
20
0.82678208
30
0
70
32
0
VERTEX
8
0
62
30
10
-0.14142123
20
0.82678216
30
0
70
32
0
VERTEX
8
0
62
30
10
-0.14142135
20
0.82678224
30
0
70
32
0
SEQEND
8
0
0
POLYLINE
8
0
62
30
66
1
10
0
20
0
30
0
70
8
0
VERTEX
8
0
62
30
10
-0.070710667
20
0.82678216
30
0
70
32
0
VERTEX
8
0
62
30
10
-0.070710667
20
0.82678216
30
0
70
32
0
VERTEX
8
0
62
30
10
-0.070710667
20
0.82678216
30
0
70
32
0
SEQEND
8
0
0
POLYLINE
8
0
62
5
66
1
10
0
20
0
30
0
70
8
0
VERTEX
8
0
62
5
10
1.0947197e-08
20
0.86213754
30
0
70
32
0
VERTEX
8
0
62
5
10
1.0947197e-08
20
0.86213775
30
0
70
32
0
SEQEND
8
0
0
POLYLINE
8
0
62
5
66
1
10
0
20
0
30
0
70
8
0
VERTEX
8
0
62
5
10
0.070710689
20
0.86213754
30
0
70
32
0
VERTEX
8
0
62
5
10
0.070710689
20
0.86213775
30
0
70
32
0
SEQEND
8
0
0
POLYLINE
8
0
62
5
66
1
10
0
20
0
30
0
70
8
0
VERTEX
8
0
62
5
10
0.14142137
20
0.86213754
30
0
70
32
0
VERTEX
8
0
62
5
10
0.14142137
20
0.86213775
30
0
70
32
0
SEQEND
8
0
0
POLYLINE
8
0
62
5
66
1
10
0
20
0
30
0
70
8
0
VERTEX
8
0
62
5
10
0.21213205
20
0.86213754
30
0
70
32
0
VERTEX
8
0
62
5
10
0.21213205
20
0.86213775
30
0
70
32
0
SEQEND
8
0
0
POLYLINE
8
0
62
5
66
1
10
0
20
0
30
0
70
8
0
VERTEX
8
0
62
5
10
0.28284272
20
0.86213754
30
0
70
32
0
VERTEX
8
0
62
5
10
0.28284272
20
0.86213775
30
0
70
32
0
SEQEND
8
0
0
POLYLINE
8
0
62
5
66
1
10
0
20
0
30
0
70
8
0
VERTEX
8
0
62
5
10
0.070710689
20
0.86213754
30
0
70
32
0
VERTEX
8
0
62
5
10
0.070710689
20
0.86213754
30
0
70
32
0
SEQEND
8
0
0
POLYLINE
8
0
62
5
66
1
10
0
20
0
30
0
70
8
0
VERTEX
8
0
62
5
10
0.14142137
20
0.86213754
30
0
70
32
0
VERTEX
8
0
62
5
10
0.14142137
20
0.86213754
30
0
70
32
0
SEQEND
8
0
0
POLYLINE
8
0
62
5
66
1
10
0
20
0
30
0
70
8
0
VERTEX
8
0
62
5
10
0.21213205
20
0.86213754
30
0
70
32
0
VERTEX
8
0
62
5
10
0.21213205
20
0.86213754
30
0
70
32
0
SEQEND
8
0
0
POLYLINE
8
0
62
5
66
1
10
0
20
0
30
0
70
8
0
VERTEX
8
0
62
5
10
2.0082148e-07
20
0.86213775
30
0
70
32
0
VERTEX
8
0
62
5
10
2.0082148e-07
20
0.86213775
30
0
70
32
0
SEQEND
8
0
0
POLYLINE
8
0
62
5
66
1
10
0
20
0
30
0
70
8
0
VERTEX
8
0
62
5
10
0.070710879
20
0.86213775
30
0
70
32
0
VERTEX
8
0
62
5
10
0.070710879
20
0.86213775
30
0
70
32
0
SEQEND
8
0
0
POLYLINE
8
0
62
5
66
1
10
0
20
0
30
0
70
8
0
VERTEX
8
0
62
5
10
0.14142156
20
0.86213775
30
0
70
32
0
VERTEX
8
0
62
5
10
0.14142156
20
0.86213775
30
0
70
32
0
SEQEND
8
0
0
POLYLINE
8
0
62
5
66
1
10
0
20
0
30
0
70
8
0
VERTEX
8
0
62
5
10
0.21213224
20
0.86213775
30
0
70
32
0
VERTEX
8
0
62
5
10
0.21213224
20
0.86213775
30
0
70
32
0
SEQEND
8
0
0
POLYLINE
8
0
62
5
66
1
10
0
20
0
30
0
70
8
0
VERTEX
8
0
62
5
10
0.3535534
20
0.86213754
30
0
70
32
0
VERTEX
8
0
62
5
10
0.3535534
20
0.86213775
30
0
70
32
0
SEQEND
8
0
0
POLYLINE
8
0
62
5
66
1
10
0
20
0
30
0
70
8
0
VERTEX
8
0
62
5
10
0.42426408
20
0.86213754
30
0
70
32
0
VERTEX
8
0
62
5
10
0.42426408
20
0.86213775
30
0
70
32
0
SEQEND
8
0
0
POLYLINE
8
0
62
5
66
1
10
0
20
0
30
0
70
8
0
VERTEX
8
0
62
5
10
0.49497476
20
0.86213754
30
0
70
32
0
VERTEX
8
0
62
5
10
0.49497476
20
0.86213775
30
0
70
32
0
SEQEND
8
0
0
POLYLINE
8
0
62
5
66
1
10
0
20
0
30
0
70
8
0
VERTEX
8
0
62
5
10
0.56568544
20
0.86213754
30
0
70
32
0
VERTEX
8
0
62
5
10
0.56568544
20
0.86213775
30
0
70
32
0
SEQEND
8
0
0
POLYLINE
8
0
62
5
66
1
10
0
20
0
30
0
70
8
0
VERTEX
8
0
62
5
10
0.3535534
20
0.86213754
30
0
70
32
0
VERTEX
8
0
62
5
10
0.3535534
20
0.86213754
30
0
70
32
0
SEQEND
8
0
0
POLYLINE
8
0
62
5
66
1
10
0
20
0
30
0
70
8
0
VERTEX
8
0
62
5
10
0.42426408
20
0.86213754
30
0
70
32
0
VERTEX
8
0
62
5
10
0.42426408
20
0.86213754
30
0
70
32
0
SEQEND
8
0
0
POLYLINE
8
0
62
5
66
1
10
0
20
0
30
0
70
8
0
VERTEX
8
0
62
5
10
0.49497476
20
0.86213754
30
0
70
32
0
VERTEX
8
0
62
5
10
0.49497476
20
0.86213754
30
0
70
32
0
SEQEND
8
0
0
POLYLINE
8
0
62
5
66
1
10
0
20
0
30
0
70
8
0
VERTEX
8
0
62
5
10
0.28284291
20
0.86213775
30
0
70
32
0
VERTEX
8
0
62
5
10
0.28284291
20
0.86213775
30
0
70
32
0
SEQEND
8
0
0
POLYLINE
8
0
62
5
66
1
10
0
20
0
30
0
70
8
0
VERTEX
8
0
62
5
10
0.35355359
20
0.86213775
30
0
70
32
0
VERTEX
8
0
62
5
10
0.35355359
20
0.86213775
30
0
70
32
0
SEQEND
8
0
0
POLYLINE
8
0
62
5
66
1
10
0
20
0
30
0
70
8
0
VERTEX
8
0
62
5
10
0.42426427
20
0.86213775
30
0
70
32
0
VERTEX
8
0
62
5
10
0.42426427
20
0.86213775
30
0
70
32
0
SEQEND
8
0
0
POLYLINE
8
0
62
5
66
1
10
0
20
0
30
0
70
8
0
VERTEX
8
0
62
5
10
0.49497495
20
0.86213775
30
0
70
32
0
VERTEX
8
0
62
5
10
0.49497495
20
0.86213775
30
0
70
32
0
SEQEND
8
0
0
POLYLINE
8
0
62
5
66
1
10
0
20
0
30
0
70
8
0
VERTEX
8
0
62
5
10
-0.21213202
20
0.86213754
30
0
70
32
0
VERTEX
8
0
62
5
10
-0.21213202
20
0.86213775
30
0
70
32
0
SEQEND
8
0
0
POLYLINE
8
0
62
5
66
1
10
0
20
0
30
0
70
8
0
VERTEX
8
0
62
5
10
-0.14142135
20
0.86213754
30
0
70
32
0
VERTEX
8
0
62
5
10
-0.14142135
20
0.86213775
30
0
70
32
0
SEQEND
8
0
0
POLYLINE
8
0
62
5
66
1
10
0
20
0
30
0
70
8
0
VERTEX
8
0
62
5
10
-0.070710667
20
0.86213754
30
0
70
32
0
VERTEX
8
0
62
5
10
-0.070710667
20
0.86213775
30
0
70
32
0
SEQEND
8
0
0
POLYLINE
8
0
62
5
66
1
10
0
20
0
30
0
70
8
0
VERTEX
8
0
62
5
10
1.0947197e-08
20
0.86213754
30
0
70
32
0
VERTEX
8
0
62
5
10
1.0947197e-08
20
0.86213775
30
0
70
32
0
SEQEND
8
0
0
POLYLINE
8
0
62
5
66
1
10
0
20
0
30
0
70
8
0
VERTEX
8
0
62
5
10
-0.21213202
20
0.86213754
30
0
70
32
0
VERTEX
8
0
62
5
10
-0.21213202
20
0.86213754
30
0
70
32
0
SEQEND
8
0
0
POLYLINE
8
0
62
5
66
1
10
0
20
0
30
0
70
8
0
VERTEX
8
0
62
5
10
-0.14142135
20
0.86213754
30
0
70
32
0
VERTEX
8
0
62
5
10
-0.14142135
20
0.86213754
30
0
70
32
0
SEQEND
8
0
0
POLYLINE
8
0
62
5
66
1
10
0
20
0
30
0
70
8
0
VERTEX
8
0
62
5
10
-0.070710667
20
0.86213754
30
0
70
32
0
VERTEX
8
0
62
5
10
-0.070710667
20
0.86213754
30
0
70
32
0
SEQEND
8
0
0
POLYLINE
8
0
62
5
66
1
10
0
20
0
30
0
70
8
0
VERTEX
8
0
62
5
10
-0.28284251
20
0.86213775
30
0
70
32
0
VERTEX
8
0
62
5
10
-0.28284251
20
0.86213775
30
0
70
32
0
SEQEND
8
0
0
POLYLINE
8
0
62
5
66
1
10
0
20
0
30
0
70
8
0
VERTEX
8
0
62
5
10
-0.21213183
20
0.86213775
30
0
70
32
0
VERTEX
8
0
62
5
10
-0.21213183
20
0.86213775
30
0
70
32
0
SEQEND
8
0
0
POLYLINE
8
0
62
5
66
1
10
0
20
0
30
0
70
8
0
VERTEX
8
0
62
5
10
-0.14142116
20
0.86213775
30
0
70
32
0
VERTEX
8
0
62
5
10
-0.14142116
20
0.86213775
30
0
70
32
0
SEQEND
8
0
0
POLYLINE
8
0
62
5
66
1
10
0
20
0
30
0
70
8
0
VERTEX
8
0
62
5
10
-0.070710477
20
0.86213775
30
0
70
32
0
VERTEX
8
0
62
5
10
-0.070710477
20
0.86213775
30
0
70
32
0
SEQEND
8
0
0
POLYLINE
8
0
62
5
66
1
10
0
20
0
30
0
70
8
0
VERTEX
8
0
62
5
10
2.0082148e-07
20
0.86213775
30
0
70
32
0
VERTEX
8
0
62
5
10
2.0082148e-07
20
0.8621381
30
0
70
32
0
SEQEND
8
0
0
POLYLINE
8
0
62
5
66
1
10
0
20
0
30
0
70
8
0
VERTEX
8
0
62
5
10
0.28284291
20
0.86213775
30
0
70
32
0
VERTEX
8
0
62
5
10
0.28284291
20
0.8621381
30
0
70
32
0
SEQEND
8
0
0
POLYLINE
8
0
62
5
66
1
10
0
20
0
30
0
70
8
0
VERTEX
8
0
62
5
10
0.070710879
20
0.86213775
30
0
70
32
0
VERTEX
8
0
62
5
10
0.070710879
20
0.8621381
30
0
70
32
0
SEQEND
8
0
0
POLYLINE
8
0
62
5
66
1
10
0
20
0
30
0
70
8
0
VERTEX
8
0
62
5
10
0.14142156
20
0.86213775
30
0
70
32
0
VERTEX
8
0
62
5
10
0.14142156
20
0.8621381
30
0
70
32
0
SEQEND
8
0
0
POLYLINE
8
0
62
5
66
1
10
0
20
0
30
0
70
8
0
VERTEX
8
0
62
5
10
0.21213224
20
0.86213775
30
0
70
32
0
VERTEX
8
0
62
5
10
0.21213224
20
0.8621381
30
0
70
32
0
SEQEND
8
0
0
POLYLINE
8
0
62
5
66
1
10
0
20
0
30
0
70
8
0
VERTEX
8
0
62
5
10
0.56568563
20
0.86213775
30
0
70
32
0
VERTEX
8
0
62
5
10
0.56568563
20
0.8621381
30
0
70
32
0
SEQEND
8
0
0
POLYLINE
8
0
62
5
66
1
10
0
20
0
30
0
70
8
0
VERTEX
8
0
62
5
10
0.35355359
20
0.86213775
30
0
70
32
0
VERTEX
8
0
62
5
10
0.35355359
20
0.8621381
30
0
70
32
0
SEQEND
8
0
0
POLYLINE
8
0
62
5
66
1
10
0
20
0
30
0
70
8
0
VERTEX
8
0
62
5
10
0.42426427
20
0.86213775
30
0
70
32
0
VERTEX
8
0
62
5
10
0.42426427
20
0.8621381
30
0
70
32
0
SEQEND
8
0
0
POLYLINE
8
0
62
5
66
1
10
0
20
0
30
0
70
8
0
VERTEX
8
0
62
5
10
0.49497495
20
0.86213775
30
0
70
32
0
VERTEX
8
0
62
5
10
0.49497495
20
0.8621381
30
0
70
32
0
SEQEND
8
0
0
POLYLINE
8
0
62
5
66
1
10
0
20
0
30
0
70
8
0
VERTEX
8
0
62
5
10
-0.28284251
20
0.86213775
30
0
70
32
0
VERTEX
8
0
62
5
10
-0.28284251
20
0.8621381
30
0
70
32
0
SEQEND
8
0
0
POLYLINE
8
0
62
5
66
1
10
0
20
0
30
0
70
8
0
VERTEX
8
0
62
5
10
-0.21213183
20
0.86213775
30
0
70
32
0
VERTEX
8
0
62
5
10
-0.21213183
20
0.8621381
30
0
70
32
0
SEQEND
8
0
0
POLYLINE
8
0
62
5
66
1
10
0
20
0
30
0
70
8
0
VERTEX
8
0
62
5
10
-0.14142116
20
0.86213775
30
0
70
32
0
VERTEX
8
0
62
5
10
-0.14142116
20
0.8621381
30
0
70
32
0
SEQEND
8
0
0
POLYLINE
8
0
62
5
66
1
10
0
20
0
30
0
70
8
0
VERTEX
8
0
62
5
10
-0.070710477
20
0.86213775
30
0
70
32
0
VERTEX
8
0
62
5
10
-0.070710477
20
0.8621381
30
0
70
32
0
SEQEND
8
0
0
POLYLINE
8
0
62
5
66
1
10
0
20
0
30
0
70
8
0
VERTEX
8
0
62
5
10
2.0082148e-07
20
0.8621381
30
0
70
32
0
VERTEX
8
0
62
5
10
2.0082148e-07
20
1.032849
30
0
70
32
0
SEQEND
8
0
0
POLYLINE
8
0
62
5
66
1
10
0
20
0
30
0
70
8
0
VERTEX
8
0
62
5
10
0.28284291
20
1.032849
30
0
70
32
0
VERTEX
8
0
62
5
10
0.28284291
20
0.8621381
30
0
70
32
0
SEQEND
8
0
0
POLYLINE
8
0
62
5
66
1
10
0
20
0
30
0
70
8
0
VERTEX
8
0
62
5
10
2.0082148e-07
20
0.87678266
30
0
70
32
0
VERTEX
8
0
62
5
10
0.070710879
20
0.87678285
30
0
70
32
0
VERTEX
8
0
62
5
10
0.14142156
20
0.94749353
30
0
70
32
0
VERTEX
8
0
62
5
10
0.21213224
20
0.94749334
30
0
70
32
0
VERTEX
8
0
62
5
10
0.28284291
20
0.87678266
30
0
70
32
0
SEQEND
8
0
0
POLYLINE
8
0
62
5
66
1
10
0
20
0
30
0
70
8
0
SEQEND
8
0
0
POLYLINE
8
0
62
5
66
1
10
0
20
0
30
0
70
8
0
VERTEX
8
0
62
5
10
2.0082148e-07
20
1.0182044
30
0
70
32
0
VERTEX
8
0
62
5
10
0.070710879
20
1.0182042
30
0
70
32
0
VERTEX
8
0
62
5
10
0.14142156
20
0.94749353
30
0
70
32
0
VERTEX
8
0
62
5
10
0.21213224
20
0.94749372
30
0
70
32
0
VERTEX
8
0
62
5
10
0.28284291
20
1.0182044
30
0
70
32
0
SEQEND
8
0
0
POLYLINE
8
0
62
30
66
1
10
0
20
0
30
0
70
8
0
VERTEX
8
0
62
30
10
2.0082148e-07
20
0.94749353
30
0
70
32
0
VERTEX
8
0
62
30
10
0.28284291
20
0.94749353
30
0
70
32
0
SEQEND
8
0
0
POLYLINE
8
0
62
30
66
1
10
0
20
0
30
0
70
8
0
VERTEX
8
0
62
30
10
0.070710879
20
0.87678285
30
0
70
32
0
VERTEX
8
0
62
30
10
0.070710879
20
0.94749353
30
0
70
32
0
SEQEND
8
0
0
POLYLINE
8
0
62
30
66
1
10
0
20
0
30
0
70
8
0
VERTEX
8
0
62
30
10
0.14142156
20
0.94749353
30
0
70
32
0
VERTEX
8
0
62
30
10
0.14142156
20
0.94749353
30
0
70
32
0
SEQEND
8
0
0
POLYLINE
8
0
62
30
66
1
10
0
20
0
30
0
70
8
0
VERTEX
8
0
62
30
10
0.21213224
20
0.94749334
30
0
70
32
0
VERTEX
8
0
62
30
10
0.21213224
20
0.94749353
30
0
70
32
0
SEQEND
8
0
0
POLYLINE
8
0
62
5
66
1
10
0
20
0
30
0
70
8
0
VERTEX
8
0
62
5
10
0.070710879
20
0.8621381
30
0
70
32
0
VERTEX
8
0
62
5
10
0.070710879
20
0.87678285
30
0
70
32
0
SEQEND
8
0
0
POLYLINE
8
0
62
5
66
1
10
0
20
0
30
0
70
8
0
VERTEX
8
0
62
5
10
0.14142156
20
0.8621381
30
0
70
32
0
VERTEX
8
0
62
5
10
0.14142156
20
0.94749353
30
0
70
32
0
SEQEND
8
0
0
POLYLINE
8
0
62
5
66
1
10
0
20
0
30
0
70
8
0
VERTEX
8
0
62
5
10
0.21213224
20
0.8621381
30
0
70
32
0
VERTEX
8
0
62
5
10
0.21213224
20
0.94749334
30
0
70
32
0
SEQEND
8
0
0
POLYLINE
8
0
62
5
66
1
10
0
20
0
30
0
70
8
0
VERTEX
8
0
62
5
10
0.070710879
20
0.94749353
30
0
70
32
0
VERTEX
8
0
62
5
10
0.070710879
20
1.032849
30
0
70
32
0
SEQEND
8
0
0
POLYLINE
8
0
62
5
66
1
10
0
20
0
30
0
70
8
0
VERTEX
8
0
62
5
10
0.14142156
20
0.94749353
30
0
70
32
0
VERTEX
8
0
62
5
10
0.14142156
20
1.032849
30
0
70
32
0
SEQEND
8
0
0
POLYLINE
8
0
62
5
66
1
10
0
20
0
30
0
70
8
0
VERTEX
8
0
62
5
10
0.21213224
20
0.94749353
30
0
70
32
0
VERTEX
8
0
62
5
10
0.21213224
20
1.032849
30
0
70
32
0
SEQEND
8
0
0
POLYLINE
8
0
62
30
66
1
10
0
20
0
30
0
70
8
0
VERTEX
8
0
62
30
10
2.0082148e-07
20
0.87678266
30
0
70
32
0
VERTEX
8
0
62
30
10
0.029289569
20
0.94749353
30
0
70
32
0
VERTEX
8
0
62
30
10
2.0082148e-07
20
1.0182044
30
0
70
32
0
SEQEND
8
0
0
POLYLINE
8
0
62
30
66
1
10
0
20
0
30
0
70
8
0
VERTEX
8
0
62
30
10
0.070710879
20
0.87678285
30
0
70
32
0
VERTEX
8
0
62
30
10
0.10000023
20
0.94749353
30
0
70
32
0
VERTEX
8
0
62
30
10
0.070710879
20
1.0182042
30
0
70
32
0
SEQEND
8
0
0
POLYLINE
8
0
62
30
66
1
10
0
20
0
30
0
70
8
0
VERTEX
8
0
62
30
10
0.14142156
20
0.94749353
30
0
70
32
0
VERTEX
8
0
62
30
10
0.14142156
20
0.94749353
30
0
70
32
0
VERTEX
8
0
62
30
10
0.14142156
20
0.94749353
30
0
70
32
0
SEQEND
8
0
0
POLYLINE
8
0
62
30
66
1
10
0
20
0
30
0
70
8
0
VERTEX
8
0
62
30
10
0.21213224
20
0.94749334
30
0
70
32
0
VERTEX
8
0
62
30
10
0.21213269
20
0.94749353
30
0
70
32
0
VERTEX
8
0
62
30
10
0.21213224
20
0.94749372
30
0
70
32
0
SEQEND
8
0
0
POLYLINE
8
0
62
5
66
1
10
0
20
0
30
0
70
8
0
VERTEX
8
0
62
5
10
0.56568563
20
1.032849
30
0
70
32
0
VERTEX
8
0
62
5
10
0.56568563
20
0.8621381
30
0
70
32
0
SEQEND
8
0
0
POLYLINE
8
0
62
5
66
1
10
0
20
0
30
0
70
8
0
VERTEX
8
0
62
5
10
0.28284291
20
0.87678266
30
0
70
32
0
VERTEX
8
0
62
5
10
0.35355359
20
0.87678285
30
0
70
32
0
VERTEX
8
0
62
5
10
0.42426427
20
0.94749353
30
0
70
32
0
VERTEX
8
0
62
5
10
0.49497495
20
0.94749334
30
0
70
32
0
VERTEX
8
0
62
5
10
0.56568563
20
0.87678266
30
0
70
32
0
SEQEND
8
0
0
POLYLINE
8
0
62
5
66
1
10
0
20
0
30
0
70
8
0
SEQEND
8
0
0
POLYLINE
8
0
62
5
66
1
10
0
20
0
30
0
70
8
0
VERTEX
8
0
62
5
10
0.28284291
20
1.0182044
30
0
70
32
0
VERTEX
8
0
62
5
10
0.35355359
20
1.0182042
30
0
70
32
0
VERTEX
8
0
62
5
10
0.42426427
20
0.94749353
30
0
70
32
0
VERTEX
8
0
62
5
10
0.49497495
20
0.94749372
30
0
70
32
0
VERTEX
8
0
62
5
10
0.56568563
20
1.0182044
30
0
70
32
0
SEQEND
8
0
0
POLYLINE
8
0
62
30
66
1
10
0
20
0
30
0
70
8
0
VERTEX
8
0
62
30
10
0.28284291
20
0.94749353
30
0
70
32
0
VERTEX
8
0
62
30
10
0.56568563
20
0.94749353
30
0
70
32
0
SEQEND
8
0
0
POLYLINE
8
0
62
30
66
1
10
0
20
0
30
0
70
8
0
VERTEX
8
0
62
30
10
0.35355359
20
0.87678285
30
0
70
32
0
VERTEX
8
0
62
30
10
0.35355359
20
0.94749353
30
0
70
32
0
SEQEND
8
0
0
POLYLINE
8
0
62
30
66
1
10
0
20
0
30
0
70
8
0
VERTEX
8
0
62
30
10
0.42426427
20
0.94749353
30
0
70
32
0
VERTEX
8
0
62
30
10
0.42426427
20
0.94749353
30
0
70
32
0
SEQEND
8
0
0
POLYLINE
8
0
62
30
66
1
10
0
20
0
30
0
70
8
0
VERTEX
8
0
62
30
10
0.49497495
20
0.94749334
30
0
70
32
0
VERTEX
8
0
62
30
10
0.49497495
20
0.94749353
30
0
70
32
0
SEQEND
8
0
0
POLYLINE
8
0
62
5
66
1
10
0
20
0
30
0
70
8
0
VERTEX
8
0
62
5
10
0.35355359
20
0.8621381
30
0
70
32
0
VERTEX
8
0
62
5
10
0.35355359
20
0.87678285
30
0
70
32
0
SEQEND
8
0
0
POLYLINE
8
0
62
5
66
1
10
0
20
0
30
0
70
8
0
VERTEX
8
0
62
5
10
0.42426427
20
0.8621381
30
0
70
32
0
VERTEX
8
0
62
5
10
0.42426427
20
0.94749353
30
0
70
32
0
SEQEND
8
0
0
POLYLINE
8
0
62
5
66
1
10
0
20
0
30
0
70
8
0
VERTEX
8
0
62
5
10
0.49497495
20
0.8621381
30
0
70
32
0
VERTEX
8
0
62
5
10
0.49497495
20
0.94749334
30
0
70
32
0
SEQEND
8
0
0
POLYLINE
8
0
62
5
66
1
10
0
20
0
30
0
70
8
0
VERTEX
8
0
62
5
10
0.35355359
20
0.94749353
30
0
70
32
0
VERTEX
8
0
62
5
10
0.35355359
20
1.032849
30
0
70
32
0
SEQEND
8
0
0
POLYLINE
8
0
62
5
66
1
10
0
20
0
30
0
70
8
0
VERTEX
8
0
62
5
10
0.42426427
20
0.94749353
30
0
70
32
0
VERTEX
8
0
62
5
10
0.42426427
20
1.032849
30
0
70
32
0
SEQEND
8
0
0
POLYLINE
8
0
62
5
66
1
10
0
20
0
30
0
70
8
0
VERTEX
8
0
62
5
10
0.49497495
20
0.94749353
30
0
70
32
0
VERTEX
8
0
62
5
10
0.49497495
20
1.032849
30
0
70
32
0
SEQEND
8
0
0
POLYLINE
8
0
62
30
66
1
10
0
20
0
30
0
70
8
0
VERTEX
8
0
62
30
10
0.28284291
20
0.87678266
30
0
70
32
0
VERTEX
8
0
62
30
10
0.31213228
20
0.94749353
30
0
70
32
0
VERTEX
8
0
62
30
10
0.28284291
20
1.0182044
30
0
70
32
0
SEQEND
8
0
0
POLYLINE
8
0
62
30
66
1
10
0
20
0
30
0
70
8
0
VERTEX
8
0
62
30
10
0.35355359
20
0.87678285
30
0
70
32
0
VERTEX
8
0
62
30
10
0.38284295
20
0.94749353
30
0
70
32
0
VERTEX
8
0
62
30
10
0.35355359
20
1.0182042
30
0
70
32
0
SEQEND
8
0
0
POLYLINE
8
0
62
30
66
1
10
0
20
0
30
0
70
8
0
VERTEX
8
0
62
30
10
0.42426427
20
0.94749353
30
0
70
32
0
VERTEX
8
0
62
30
10
0.42426427
20
0.94749353
30
0
70
32
0
VERTEX
8
0
62
30
10
0.42426427
20
0.94749353
30
0
70
32
0
SEQEND
8
0
0
POLYLINE
8
0
62
30
66
1
10
0
20
0
30
0
70
8
0
VERTEX
8
0
62
30
10
0.49497495
20
0.94749334
30
0
70
32
0
VERTEX
8
0
62
30
10
0.49497541
20
0.94749353
30
0
70
32
0
VERTEX
8
0
62
30
10
0.49497495
20
0.94749372
30
0
70
32
0
SEQEND
8
0
0
POLYLINE
8
0
62
5
66
1
10
0
20
0
30
0
70
8
0
VERTEX
8
0
62
5
10
-0.28284251
20
0.8621381
30
0
70
32
0
VERTEX
8
0
62
5
10
-0.28284251
20
1.032849
30
0
70
32
0
SEQEND
8
0
0
POLYLINE
8
0
62
5
66
1
10
0
20
0
30
0
70
8
0
VERTEX
8
0
62
5
10
-0.28284251
20
0.87678266
30
0
70
32
0
VERTEX
8
0
62
5
10
-0.21213183
20
0.87678285
30
0
70
32
0
VERTEX
8
0
62
5
10
-0.14142116
20
0.94749353
30
0
70
32
0
VERTEX
8
0
62
5
10
-0.070710477
20
0.94749334
30
0
70
32
0
VERTEX
8
0
62
5
10
2.0082148e-07
20
0.87678266
30
0
70
32
0
SEQEND
8
0
0
POLYLINE
8
0
62
5
66
1
10
0
20
0
30
0
70
8
0
SEQEND
8
0
0
POLYLINE
8
0
62
5
66
1
10
0
20
0
30
0
70
8
0
VERTEX
8
0
62
5
10
-0.28284251
20
1.0182044
30
0
70
32
0
VERTEX
8
0
62
5
10
-0.21213183
20
1.0182042
30
0
70
32
0
VERTEX
8
0
62
5
10
-0.14142116
20
0.94749353
30
0
70
32
0
VERTEX
8
0
62
5
10
-0.070710477
20
0.94749372
30
0
70
32
0
VERTEX
8
0
62
5
10
2.0082148e-07
20
1.0182044
30
0
70
32
0
SEQEND
8
0
0
POLYLINE
8
0
62
30
66
1
10
0
20
0
30
0
70
8
0
VERTEX
8
0
62
30
10
-0.28284251
20
0.94749353
30
0
70
32
0
VERTEX
8
0
62
30
10
2.0082148e-07
20
0.94749353
30
0
70
32
0
SEQEND
8
0
0
POLYLINE
8
0
62
30
66
1
10
0
20
0
30
0
70
8
0
VERTEX
8
0
62
30
10
-0.21213183
20
0.87678285
30
0
70
32
0
VERTEX
8
0
62
30
10
-0.21213183
20
0.94749353
30
0
70
32
0
SEQEND
8
0
0
POLYLINE
8
0
62
30
66
1
10
0
20
0
30
0
70
8
0
VERTEX
8
0
62
30
10
-0.14142116
20
0.94749353
30
0
70
32
0
VERTEX
8
0
62
30
10
-0.14142116
20
0.94749353
30
0
70
32
0
SEQEND
8
0
0
POLYLINE
8
0
62
30
66
1
10
0
20
0
30
0
70
8
0
VERTEX
8
0
62
30
10
-0.070710477
20
0.94749334
30
0
70
32
0
VERTEX
8
0
62
30
10
-0.070710477
20
0.94749353
30
0
70
32
0
SEQEND
8
0
0
POLYLINE
8
0
62
5
66
1
10
0
20
0
30
0
70
8
0
VERTEX
8
0
62
5
10
-0.21213183
20
0.8621381
30
0
70
32
0
VERTEX
8
0
62
5
10
-0.21213183
20
0.87678285
30
0
70
32
0
SEQEND
8
0
0
POLYLINE
8
0
62
5
66
1
10
0
20
0
30
0
70
8
0
VERTEX
8
0
62
5
10
-0.14142116
20
0.8621381
30
0
70
32
0
VERTEX
8
0
62
5
10
-0.14142116
20
0.94749353
30
0
70
32
0
SEQEND
8
0
0
POLYLINE
8
0
62
5
66
1
10
0
20
0
30
0
70
8
0
VERTEX
8
0
62
5
10
-0.070710477
20
0.8621381
30
0
70
32
0
VERTEX
8
0
62
5
10
-0.070710477
20
0.94749334
30
0
70
32
0
SEQEND
8
0
0
POLYLINE
8
0
62
5
66
1
10
0
20
0
30
0
70
8
0
VERTEX
8
0
62
5
10
-0.21213183
20
0.94749353
30
0
70
32
0
VERTEX
8
0
62
5
10
-0.21213183
20
1.032849
30
0
70
32
0
SEQEND
8
0
0
POLYLINE
8
0
62
5
66
1
10
0
20
0
30
0
70
8
0
VERTEX
8
0
62
5
10
-0.14142116
20
0.94749353
30
0
70
32
0
VERTEX
8
0
62
5
10
-0.14142116
20
1.032849
30
0
70
32
0
SEQEND
8
0
0
POLYLINE
8
0
62
5
66
1
10
0
20
0
30
0
70
8
0
VERTEX
8
0
62
5
10
-0.070710477
20
0.94749353
30
0
70
32
0
VERTEX
8
0
62
5
10
-0.070710477
20
1.032849
30
0
70
32
0
SEQEND
8
0
0
POLYLINE
8
0
62
30
66
1
10
0
20
0
30
0
70
8
0
VERTEX
8
0
62
30
10
-0.28284251
20
0.87678266
30
0
70
32
0
VERTEX
8
0
62
30
10
-0.25355314
20
0.94749353
30
0
70
32
0
VERTEX
8
0
62
30
10
-0.28284251
20
1.0182044
30
0
70
32
0
SEQEND
8
0
0
POLYLINE
8
0
62
30
66
1
10
0
20
0
30
0
70
8
0
VERTEX
8
0
62
30
10
-0.21213183
20
0.87678285
30
0
70
32
0
VERTEX
8
0
62
30
10
-0.18284248
20
0.94749353
30
0
70
32
0
VERTEX
8
0
62
30
10
-0.21213183
20
1.0182042
30
0
70
32
0
SEQEND
8
0
0
POLYLINE
8
0
62
30
66
1
10
0
20
0
30
0
70
8
0
VERTEX
8
0
62
30
10
-0.14142116
20
0.94749353
30
0
70
32
0
VERTEX
8
0
62
30
10
-0.14142116
20
0.94749353
30
0
70
32
0
VERTEX
8
0
62
30
10
-0.14142116
20
0.94749353
30
0
70
32
0
SEQEND
8
0
0
POLYLINE
8
0
62
30
66
1
10
0
20
0
30
0
70
8
0
VERTEX
8
0
62
30
10
-0.070710477
20
0.94749334
30
0
70
32
0
VERTEX
8
0
62
30
10
-0.070710019
20
0.94749353
30
0
70
32
0
VERTEX
8
0
62
30
10
-0.070710477
20
0.94749372
30
0
70
32
0
SEQEND
8
0
0
POLYLINE
8
0
62
5
66
1
10
0
20
0
30
0
70
8
0
VERTEX
8
0
62
5
10
2.0082148e-07
20
1.032849
30
0
70
32
0
VERTEX
8
0
62
5
10
2.0082148e-07
20
1.033849
30
0
70
32
0
SEQEND
8
0
0
POLYLINE
8
0
62
5
66
1
10
0
20
0
30
0
70
8
0
VERTEX
8
0
62
5
10
0.28284291
20
1.032849
30
0
70
32
0
VERTEX
8
0
62
5
10
0.28284291
20
1.033849
30
0
70
32
0
SEQEND
8
0
0
POLYLINE
8
0
62
5
66
1
10
0
20
0
30
0
70
8
0
VERTEX
8
0
62
5
10
0.070710879
20
1.032849
30
0
70
32
0
VERTEX
8
0
62
5
10
0.070710879
20
1.033849
30
0
70
32
0
SEQEND
8
0
0
POLYLINE
8
0
62
5
66
1
10
0
20
0
30
0
70
8
0
VERTEX
8
0
62
5
10
0.14142156
20
1.032849
30
0
70
32
0
VERTEX
8
0
62
5
10
0.14142156
20
1.033849
30
0
70
32
0
SEQEND
8
0
0
POLYLINE
8
0
62
5
66
1
10
0
20
0
30
0
70
8
0
VERTEX
8
0
62
5
10
0.21213224
20
1.032849
30
0
70
32
0
VERTEX
8
0
62
5
10
0.21213224
20
1.033849
30
0
70
32
0
SEQEND
8
0
0
POLYLINE
8
0
62
5
66
1
10
0
20
0
30
0
70
8
0
VERTEX
8
0
62
5
10
0.56568563
20
1.032849
30
0
70
32
0
VERTEX
8
0
62
5
10
0.56568563
20
1.033849
30
0
70
32
0
SEQEND
8
0
0
POLYLINE
8
0
62
5
66
1
10
0
20
0
30
0
70
8
0
VERTEX
8
0
62
5
10
0.35355359
20
1.032849
30
0
70
32
0
VERTEX
8
0
62
5
10
0.35355359
20
1.033849
30
0
70
32
0
SEQEND
8
0
0
POLYLINE
8
0
62
5
66
1
10
0
20
0
30
0
70
8
0
VERTEX
8
0
62
5
10
0.42426427
20
1.032849
30
0
70
32
0
VERTEX
8
0
62
5
10
0.42426427
20
1.033849
30
0
70
32
0
SEQEND
8
0
0
POLYLINE
8
0
62
5
66
1
10
0
20
0
30
0
70
8
0
VERTEX
8
0
62
5
10
0.49497495
20
1.032849
30
0
70
32
0
VERTEX
8
0
62
5
10
0.49497495
20
1.033849
30
0
70
32
0
SEQEND
8
0
0
POLYLINE
8
0
62
5
66
1
10
0
20
0
30
0
70
8
0
VERTEX
8
0
62
5
10
-0.28284251
20
1.032849
30
0
70
32
0
VERTEX
8
0
62
5
10
-0.28284251
20
1.033849
30
0
70
32
0
SEQEND
8
0
0
POLYLINE
8
0
62
5
66
1
10
0
20
0
30
0
70
8
0
VERTEX
8
0
62
5
10
-0.21213183
20
1.032849
30
0
70
32
0
VERTEX
8
0
62
5
10
-0.21213183
20
1.033849
30
0
70
32
0
SEQEND
8
0
0
POLYLINE
8
0
62
5
66
1
10
0
20
0
30
0
70
8
0
VERTEX
8
0
62
5
10
-0.14142116
20
1.032849
30
0
70
32
0
VERTEX
8
0
62
5
10
-0.14142116
20
1.033849
30
0
70
32
0
SEQEND
8
0
0
POLYLINE
8
0
62
5
66
1
10
0
20
0
30
0
70
8
0
VERTEX
8
0
62
5
10
-0.070710477
20
1.032849
30
0
70
32
0
VERTEX
8
0
62
5
10
-0.070710477
20
1.033849
30
0
70
32
0
SEQEND
8
0
0
POLYLINE
8
0
62
5
66
1
10
0
20
0
30
0
70
8
0
VERTEX
8
0
62
5
10
2.0082148e-07
20
1.033849
30
0
70
32
0
VERTEX
8
0
62
5
10
2.0082148e-07
20
1.1752704
30
0
70
32
0
SEQEND
8
0
0
POLYLINE
8
0
62
5
66
1
10
0
20
0
30
0
70
8
0
VERTEX
8
0
62
5
10
0.28284291
20
1.1752704
30
0
70
32
0
VERTEX
8
0
62
5
10
0.28284291
20
1.033849
30
0
70
32
0
SEQEND
8
0
0
POLYLINE
8
0
62
5
66
1
10
0
20
0
30
0
70
8
0
VERTEX
8
0
62
5
10
2.0082148e-07
20
1.039915
30
0
70
32
0
VERTEX
8
0
62
5
10
0.070710879
20
1.0692043
30
0
70
32
0
VERTEX
8
0
62
5
10
0.14142156
20
1.0692043
30
0
70
32
0
VERTEX
8
0
62
5
10
0.21213224
20
1.039915
30
0
70
32
0
VERTEX
8
0
62
5
10
0.28284291
20
1.039915
30
0
70
32
0
SEQEND
8
0
0
POLYLINE
8
0
62
5
66
1
10
0
20
0
30
0
70
8
0
VERTEX
8
0
62
5
10
2.0082148e-07
20
1.1106257
30
0
70
32
0
VERTEX
8
0
62
5
10
0.070710879
20
1.1399151
30
0
70
32
0
VERTEX
8
0
62
5
10
0.14142156
20
1.139915
30
0
70
32
0
VERTEX
8
0
62
5
10
0.21213224
20
1.1106257
30
0
70
32
0
VERTEX
8
0
62
5
10
0.28284291
20
1.1106257
30
0
70
32
0
SEQEND
8
0
0
POLYLINE
8
0
62
5
66
1
10
0
20
0
30
0
70
8
0
VERTEX
8
0
62
5
10
2.0082148e-07
20
1.0984937
30
0
70
32
0
VERTEX
8
0
62
5
10
0.070710879
20
1.0692043
30
0
70
32
0
VERTEX
8
0
62
5
10
0.14142156
20
1.0692044
30
0
70
32
0
VERTEX
8
0
62
5
10
0.21213224
20
1.0984937
30
0
70
32
0
VERTEX
8
0
62
5
10
0.28284291
20
1.0984937
30
0
70
32
0
SEQEND
8
0
0
POLYLINE
8
0
62
5
66
1
10
0
20
0
30
0
70
8
0
VERTEX
8
0
62
5
10
2.0082148e-07
20
1.1692044
30
0
70
32
0
VERTEX
8
0
62
5
10
0.070710879
20
1.1399151
30
0
70
32
0
VERTEX
8
0
62
5
10
0.14142156
20
1.1399151
30
0
70
32
0
VERTEX
8
0
62
5
10
0.21213224
20
1.1692044
30
0
70
32
0
VERTEX
8
0
62
5
10
0.28284291
20
1.1692044
30
0
70
32
0
SEQEND
8
0
0
POLYLINE
8
0
62
30
66
1
10
0
20
0
30
0
70
8
0
VERTEX
8
0
62
30
10
2.0082148e-07
20
1.0692043
30
0
70
32
0
VERTEX
8
0
62
30
10
0.28284291
20
1.0692043
30
0
70
32
0
SEQEND
8
0
0
POLYLINE
8
0
62
30
66
1
10
0
20
0
30
0
70
8
0
VERTEX
8
0
62
30
10
2.0082148e-07
20
1.1399151
30
0
70
32
0
VERTEX
8
0
62
30
10
0.28284291
20
1.1399151
30
0
70
32
0
SEQEND
8
0
0
POLYLINE
8
0
62
30
66
1
10
0
20
0
30
0
70
8
0
VERTEX
8
0
62
30
10
0.070710879
20
1.0692043
30
0
70
32
0
VERTEX
8
0
62
30
10
0.070710879
20
1.0692043
30
0
70
32
0
SEQEND
8
0
0
POLYLINE
8
0
62
30
66
1
10
0
20
0
30
0
70
8
0
VERTEX
8
0
62
30
10
0.14142156
20
1.0692043
30
0
70
32
0
VERTEX
8
0
62
30
10
0.14142156
20
1.0692043
30
0
70
32
0
SEQEND
8
0
0
POLYLINE
8
0
62
30
66
1
10
0
20
0
30
0
70
8
0
VERTEX
8
0
62
30
10
0.21213224
20
1.039915
30
0
70
32
0
VERTEX
8
0
62
30
10
0.21213224
20
1.0692043
30
0
70
32
0
SEQEND
8
0
0
POLYLINE
8
0
62
30
66
1
10
0
20
0
30
0
70
8
0
VERTEX
8
0
62
30
10
0.070710879
20
1.1399151
30
0
70
32
0
VERTEX
8
0
62
30
10
0.070710879
20
1.1399151
30
0
70
32
0
SEQEND
8
0
0
POLYLINE
8
0
62
30
66
1
10
0
20
0
30
0
70
8
0
VERTEX
8
0
62
30
10
0.14142156
20
1.139915
30
0
70
32
0
VERTEX
8
0
62
30
10
0.14142156
20
1.1399151
30
0
70
32
0
SEQEND
8
0
0
POLYLINE
8
0
62
30
66
1
10
0
20
0
30
0
70
8
0
VERTEX
8
0
62
30
10
0.21213224
20
1.1106257
30
0
70
32
0
VERTEX
8
0
62
30
10
0.21213224
20
1.1399151
30
0
70
32
0
SEQEND
8
0
0
POLYLINE
8
0
62
5
66
1
10
0
20
0
30
0
70
8
0
VERTEX
8
0
62
5
10
0.070710879
20
1.033849
30
0
70
32
0
VERTEX
8
0
62
5
10
0.070710879
20
1.0692043
30
0
70
32
0
SEQEND
8
0
0
POLYLINE
8
0
62
5
66
1
10
0
20
0
30
0
70
8
0
VERTEX
8
0
62
5
10
0.14142156
20
1.033849
30
0
70
32
0
VERTEX
8
0
62
5
10
0.14142156
20
1.0692043
30
0
70
32
0
SEQEND
8
0
0
POLYLINE
8
0
62
5
66
1
10
0
20
0
30
0
70
8
0
VERTEX
8
0
62
5
10
0.21213224
20
1.033849
30
0
70
32
0
VERTEX
8
0
62
5
10
0.21213224
20
1.039915
30
0
70
32
0
SEQEND
8
0
0
POLYLINE
8
0
62
5
66
1
10
0
20
0
30
0
70
8
0
VERTEX
8
0
62
5
10
0.070710879
20
1.1045597
30
0
70
32
0
VERTEX
8
0
62
5
10
0.070710879
20
1.1399151
30
0
70
32
0
SEQEND
8
0
0
POLYLINE
8
0
62
5
66
1
10
0
20
0
30
0
70
8
0
VERTEX
8
0
62
5
10
0.14142156
20
1.1045597
30
0
70
32
0
VERTEX
8
0
62
5
10
0.14142156
20
1.139915
30
0
70
32
0
SEQEND
8
0
0
POLYLINE
8
0
62
5
66
1
10
0
20
0
30
0
70
8
0
VERTEX
8
0
62
5
10
0.21213224
20
1.1045597
30
0
70
32
0
VERTEX
8
0
62
5
10
0.21213224
20
1.1106257
30
0
70
32
0
SEQEND
8
0
0
POLYLINE
8
0
62
5
66
1
10
0
20
0
30
0
70
8
0
VERTEX
8
0
62
5
10
0.070710879
20
1.0692043
30
0
70
32
0
VERTEX
8
0
62
5
10
0.070710879
20
1.1045597
30
0
70
32
0
SEQEND
8
0
0
POLYLINE
8
0
62
5
66
1
10
0
20
0
30
0
70
8
0
VERTEX
8
0
62
5
10
0.14142156
20
1.0692043
30
0
70
32
0
VERTEX
8
0
62
5
10
0.14142156
20
1.1045597
30
0
70
32
0
SEQEND
8
0
0
POLYLINE
8
0
62
5
66
1
10
0
20
0
30
0
70
8
0
VERTEX
8
0
62
5
10
0.21213224
20
1.0692043
30
0
70
32
0
VERTEX
8
0
62
5
10
0.21213224
20
1.1045597
30
0
70
32
0
SEQEND
8
0
0
POLYLINE
8
0
62
5
66
1
10
0
20
0
30
0
70
8
0
VERTEX
8
0
62
5
10
0.070710879
20
1.1399151
30
0
70
32
0
VERTEX
8
0
62
5
10
0.070710879
20
1.1752704
30
0
70
32
0
SEQEND
8
0
0
POLYLINE
8
0
62
5
66
1
10
0
20
0
30
0
70
8
0
VERTEX
8
0
62
5
10
0.14142156
20
1.1399151
30
0
70
32
0
VERTEX
8
0
62
5
10
0.14142156
20
1.1752704
30
0
70
32
0
SEQEND
8
0
0
POLYLINE
8
0
62
5
66
1
10
0
20
0
30
0
70
8
0
VERTEX
8
0
62
5
10
0.21213224
20
1.1399151
30
0
70
32
0
VERTEX
8
0
62
5
10
0.21213224
20
1.1752704
30
0
70
32
0
SEQEND
8
0
0
POLYLINE
8
0
62
30
66
1
10
0
20
0
30
0
70
8
0
VERTEX
8
0
62
30
10
2.0082148e-07
20
1.039915
30
0
70
32
0
VERTEX
8
0
62
30
10
0.019570708
20
1.0692043
30
0
70
32
0
VERTEX
8
0
62
30
10
2.0082148e-07
20
1.0984937
30
0
70
32
0
SEQEND
8
0
0
POLYLINE
8
0
62
30
66
1
10
0
20
0
30
0
70
8
0
VERTEX
8
0
62
30
10
0.070710879
20
1.0692043
30
0
70
32
0
VERTEX
8
0
62
30
10
0.070710879
20
1.0692043
30
0
70
32
0
VERTEX
8
0
62
30
10
0.070710879
20
1.0692043
30
0
70
32
0
SEQEND
8
0
0
POLYLINE
8
0
62
30
66
1
10
0
20
0
30
0
70
8
0
VERTEX
8
0
62
30
10
0.14142156
20
1.0692043
30
0
70
32
0
VERTEX
8
0
62
30
10
0.14142162
20
1.0692043
30
0
70
32
0
VERTEX
8
0
62
30
10
0.14142156
20
1.0692044
30
0
70
32
0
SEQEND
8
0
0
POLYLINE
8
0
62
30
66
1
10
0
20
0
30
0
70
8
0
VERTEX
8
0
62
30
10
0.21213224
20
1.039915
30
0
70
32
0
VERTEX
8
0
62
30
10
0.23170276
20
1.0692043
30
0
70
32
0
VERTEX
8
0
62
30
10
0.21213224
20
1.0984937
30
0
70
32
0
SEQEND
8
0
0
POLYLINE
8
0
62
30
66
1
10
0
20
0
30
0
70
8
0
VERTEX
8
0
62
30
10
2.0082148e-07
20
1.1106257
30
0
70
32
0
VERTEX
8
0
62
30
10
0.019570708
20
1.1399151
30
0
70
32
0
VERTEX
8
0
62
30
10
2.0082148e-07
20
1.1692044
30
0
70
32
0
SEQEND
8
0
0
POLYLINE
8
0
62
30
66
1
10
0
20
0
30
0
70
8
0
VERTEX
8
0
62
30
10
0.070710879
20
1.1399151
30
0
70
32
0
VERTEX
8
0
62
30
10
0.070710879
20
1.1399151
30
0
70
32
0
VERTEX
8
0
62
30
10
0.070710879
20
1.1399151
30
0
70
32
0
SEQEND
8
0
0
POLYLINE
8
0
62
30
66
1
10
0
20
0
30
0
70
8
0
VERTEX
8
0
62
30
10
0.14142156
20
1.139915
30
0
70
32
0
VERTEX
8
0
62
30
10
0.14142162
20
1.1399151
30
0
70
32
0
VERTEX
8
0
62
30
10
0.14142156
20
1.1399151
30
0
70
32
0
SEQEND
8
0
0
POLYLINE
8
0
62
30
66
1
10
0
20
0
30
0
70
8
0
VERTEX
8
0
62
30
10
0.21213224
20
1.1106257
30
0
70
32
0
VERTEX
8
0
62
30
10
0.23170276
20
1.1399151
30
0
70
32
0
VERTEX
8
0
62
30
10
0.21213224
20
1.1692044
30
0
70
32
0
SEQEND
8
0
0
POLYLINE
8
0
62
5
66
1
10
0
20
0
30
0
70
8
0
VERTEX
8
0
62
5
10
0.56568563
20
1.1752704
30
0
70
32
0
VERTEX
8
0
62
5
10
0.56568563
20
1.033849
30
0
70
32
0
SEQEND
8
0
0
POLYLINE
8
0
62
5
66
1
10
0
20
0
30
0
70
8
0
VERTEX
8
0
62
5
10
0.28284291
20
1.039915
30
0
70
32
0
VERTEX
8
0
62
5
10
0.35355359
20
1.0692043
30
0
70
32
0
VERTEX
8
0
62
5
10
0.42426427
20
1.0692043
30
0
70
32
0
VERTEX
8
0
62
5
10
0.49497495
20
1.039915
30
0
70
32
0
VERTEX
8
0
62
5
10
0.56568563
20
1.039915
30
0
70
32
0
SEQEND
8
0
0
POLYLINE
8
0
62
5
66
1
10
0
20
0
30
0
70
8
0
VERTEX
8
0
62
5
10
0.28284291
20
1.1106257
30
0
70
32
0
VERTEX
8
0
62
5
10
0.35355359
20
1.1399151
30
0
70
32
0
VERTEX
8
0
62
5
10
0.42426427
20
1.139915
30
0
70
32
0
VERTEX
8
0
62
5
10
0.49497495
20
1.1106257
30
0
70
32
0
VERTEX
8
0
62
5
10
0.56568563
20
1.1106257
30
0
70
32
0
SEQEND
8
0
0
POLYLINE
8
0
62
5
66
1
10
0
20
0
30
0
70
8
0
VERTEX
8
0
62
5
10
0.28284291
20
1.0984937
30
0
70
32
0
VERTEX
8
0
62
5
10
0.35355359
20
1.0692043
30
0
70
32
0
VERTEX
8
0
62
5
10
0.42426427
20
1.0692044
30
0
70
32
0
VERTEX
8
0
62
5
10
0.49497495
20
1.0984937
30
0
70
32
0
VERTEX
8
0
62
5
10
0.56568563
20
1.0984937
30
0
70
32
0
SEQEND
8
0
0
POLYLINE
8
0
62
5
66
1
10
0
20
0
30
0
70
8
0
VERTEX
8
0
62
5
10
0.28284291
20
1.1692044
30
0
70
32
0
VERTEX
8
0
62
5
10
0.35355359
20
1.1399151
30
0
70
32
0
VERTEX
8
0
62
5
10
0.42426427
20
1.1399151
30
0
70
32
0
VERTEX
8
0
62
5
10
0.49497495
20
1.1692044
30
0
70
32
0
VERTEX
8
0
62
5
10
0.56568563
20
1.1692044
30
0
70
32
0
SEQEND
8
0
0
POLYLINE
8
0
62
30
66
1
10
0
20
0
30
0
70
8
0
VERTEX
8
0
62
30
10
0.28284291
20
1.0692043
30
0
70
32
0
VERTEX
8
0
62
30
10
0.56568563
20
1.0692043
30
0
70
32
0
SEQEND
8
0
0
POLYLINE
8
0
62
30
66
1
10
0
20
0
30
0
70
8
0
VERTEX
8
0
62
30
10
0.28284291
20
1.1399151
30
0
70
32
0
VERTEX
8
0
62
30
10
0.56568563
20
1.1399151
30
0
70
32
0
SEQEND
8
0
0
POLYLINE
8
0
62
30
66
1
10
0
20
0
30
0
70
8
0
VERTEX
8
0
62
30
10
0.35355359
20
1.0692043
30
0
70
32
0
VERTEX
8
0
62
30
10
0.35355359
20
1.0692043
30
0
70
32
0
SEQEND
8
0
0
POLYLINE
8
0
62
30
66
1
10
0
20
0
30
0
70
8
0
VERTEX
8
0
62
30
10
0.42426427
20
1.0692043
30
0
70
32
0
VERTEX
8
0
62
30
10
0.42426427
20
1.0692043
30
0
70
32
0
SEQEND
8
0
0
POLYLINE
8
0
62
30
66
1
10
0
20
0
30
0
70
8
0
VERTEX
8
0
62
30
10
0.49497495
20
1.039915
30
0
70
32
0
VERTEX
8
0
62
30
10
0.49497495
20
1.0692043
30
0
70
32
0
SEQEND
8
0
0
POLYLINE
8
0
62
30
66
1
10
0
20
0
30
0
70
8
0
VERTEX
8
0
62
30
10
0.35355359
20
1.1399151
30
0
70
32
0
VERTEX
8
0
62
30
10
0.35355359
20
1.1399151
30
0
70
32
0
SEQEND
8
0
0
POLYLINE
8
0
62
30
66
1
10
0
20
0
30
0
70
8
0
VERTEX
8
0
62
30
10
0.42426427
20
1.139915
30
0
70
32
0
VERTEX
8
0
62
30
10
0.42426427
20
1.1399151
30
0
70
32
0
SEQEND
8
0
0
POLYLINE
8
0
62
30
66
1
10
0
20
0
30
0
70
8
0
VERTEX
8
0
62
30
10
0.49497495
20
1.1106257
30
0
70
32
0
VERTEX
8
0
62
30
10
0.49497495
20
1.1399151
30
0
70
32
0
SEQEND
8
0
0
POLYLINE
8
0
62
5
66
1
10
0
20
0
30
0
70
8
0
VERTEX
8
0
62
5
10
0.35355359
20
1.033849
30
0
70
32
0
VERTEX
8
0
62
5
10
0.35355359
20
1.0692043
30
0
70
32
0
SEQEND
8
0
0
POLYLINE
8
0
62
5
66
1
10
0
20
0
30
0
70
8
0
VERTEX
8
0
62
5
10
0.42426427
20
1.033849
30
0
70
32
0
VERTEX
8
0
62
5
10
0.42426427
20
1.0692043
30
0
70
32
0
SEQEND
8
0
0
POLYLINE
8
0
62
5
66
1
10
0
20
0
30
0
70
8
0
VERTEX
8
0
62
5
10
0.49497495
20
1.033849
30
0
70
32
0
VERTEX
8
0
62
5
10
0.49497495
20
1.039915
30
0
70
32
0
SEQEND
8
0
0
POLYLINE
8
0
62
5
66
1
10
0
20
0
30
0
70
8
0
VERTEX
8
0
62
5
10
0.35355359
20
1.1045597
30
0
70
32
0
VERTEX
8
0
62
5
10
0.35355359
20
1.1399151
30
0
70
32
0
SEQEND
8
0
0
POLYLINE
8
0
62
5
66
1
10
0
20
0
30
0
70
8
0
VERTEX
8
0
62
5
10
0.42426427
20
1.1045597
30
0
70
32
0
VERTEX
8
0
62
5
10
0.42426427
20
1.139915
30
0
70
32
0
SEQEND
8
0
0
POLYLINE
8
0
62
5
66
1
10
0
20
0
30
0
70
8
0
VERTEX
8
0
62
5
10
0.49497495
20
1.1045597
30
0
70
32
0
VERTEX
8
0
62
5
10
0.49497495
20
1.1106257
30
0
70
32
0
SEQEND
8
0
0
POLYLINE
8
0
62
5
66
1
10
0
20
0
30
0
70
8
0
VERTEX
8
0
62
5
10
0.35355359
20
1.0692043
30
0
70
32
0
VERTEX
8
0
62
5
10
0.35355359
20
1.1045597
30
0
70
32
0
SEQEND
8
0
0
POLYLINE
8
0
62
5
66
1
10
0
20
0
30
0
70
8
0
VERTEX
8
0
62
5
10
0.42426427
20
1.0692043
30
0
70
32
0
VERTEX
8
0
62
5
10
0.42426427
20
1.1045597
30
0
70
32
0
SEQEND
8
0
0
POLYLINE
8
0
62
5
66
1
10
0
20
0
30
0
70
8
0
VERTEX
8
0
62
5
10
0.49497495
20
1.0692043
30
0
70
32
0
VERTEX
8
0
62
5
10
0.49497495
20
1.1045597
30
0
70
32
0
SEQEND
8
0
0
POLYLINE
8
0
62
5
66
1
10
0
20
0
30
0
70
8
0
VERTEX
8
0
62
5
10
0.35355359
20
1.1399151
30
0
70
32
0
VERTEX
8
0
62
5
10
0.35355359
20
1.1752704
30
0
70
32
0
SEQEND
8
0
0
POLYLINE
8
0
62
5
66
1
10
0
20
0
30
0
70
8
0
VERTEX
8
0
62
5
10
0.42426427
20
1.1399151
30
0
70
32
0
VERTEX
8
0
62
5
10
0.42426427
20
1.1752704
30
0
70
32
0
SEQEND
8
0
0
POLYLINE
8
0
62
5
66
1
10
0
20
0
30
0
70
8
0
VERTEX
8
0
62
5
10
0.49497495
20
1.1399151
30
0
70
32
0
VERTEX
8
0
62
5
10
0.49497495
20
1.1752704
30
0
70
32
0
SEQEND
8
0
0
POLYLINE
8
0
62
30
66
1
10
0
20
0
30
0
70
8
0
VERTEX
8
0
62
30
10
0.28284291
20
1.039915
30
0
70
32
0
VERTEX
8
0
62
30
10
0.30241342
20
1.0692043
30
0
70
32
0
VERTEX
8
0
62
30
10
0.28284291
20
1.0984937
30
0
70
32
0
SEQEND
8
0
0
POLYLINE
8
0
62
30
66
1
10
0
20
0
30
0
70
8
0
VERTEX
8
0
62
30
10
0.35355359
20
1.0692043
30
0
70
32
0
VERTEX
8
0
62
30
10
0.35355359
20
1.0692043
30
0
70
32
0
VERTEX
8
0
62
30
10
0.35355359
20
1.0692043
30
0
70
32
0
SEQEND
8
0
0
POLYLINE
8
0
62
30
66
1
10
0
20
0
30
0
70
8
0
VERTEX
8
0
62
30
10
0.42426427
20
1.0692043
30
0
70
32
0
VERTEX
8
0
62
30
10
0.42426433
20
1.0692043
30
0
70
32
0
VERTEX
8
0
62
30
10
0.42426427
20
1.0692044
30
0
70
32
0
SEQEND
8
0
0
POLYLINE
8
0
62
30
66
1
10
0
20
0
30
0
70
8
0
VERTEX
8
0
62
30
10
0.49497495
20
1.039915
30
0
70
32
0
VERTEX
8
0
62
30
10
0.51454547
20
1.0692043
30
0
70
32
0
VERTEX
8
0
62
30
10
0.49497495
20
1.0984937
30
0
70
32
0
SEQEND
8
0
0
POLYLINE
8
0
62
30
66
1
10
0
20
0
30
0
70
8
0
VERTEX
8
0
62
30
10
0.28284291
20
1.1106257
30
0
70
32
0
VERTEX
8
0
62
30
10
0.30241342
20
1.1399151
30
0
70
32
0
VERTEX
8
0
62
30
10
0.28284291
20
1.1692044
30
0
70
32
0
SEQEND
8
0
0
POLYLINE
8
0
62
30
66
1
10
0
20
0
30
0
70
8
0
VERTEX
8
0
62
30
10
0.35355359
20
1.1399151
30
0
70
32
0
VERTEX
8
0
62
30
10
0.35355359
20
1.1399151
30
0
70
32
0
VERTEX
8
0
62
30
10
0.35355359
20
1.1399151
30
0
70
32
0
SEQEND
8
0
0
POLYLINE
8
0
62
30
66
1
10
0
20
0
30
0
70
8
0
VERTEX
8
0
62
30
10
0.42426427
20
1.139915
30
0
70
32
0
VERTEX
8
0
62
30
10
0.42426433
20
1.1399151
30
0
70
32
0
VERTEX
8
0
62
30
10
0.42426427
20
1.1399151
30
0
70
32
0
SEQEND
8
0
0
POLYLINE
8
0
62
30
66
1
10
0
20
0
30
0
70
8
0
VERTEX
8
0
62
30
10
0.49497495
20
1.1106257
30
0
70
32
0
VERTEX
8
0
62
30
10
0.51454547
20
1.1399151
30
0
70
32
0
VERTEX
8
0
62
30
10
0.49497495
20
1.1692044
30
0
70
32
0
SEQEND
8
0
0
POLYLINE
8
0
62
5
66
1
10
0
20
0
30
0
70
8
0
VERTEX
8
0
62
5
10
-0.28284251
20
1.033849
30
0
70
32
0
VERTEX
8
0
62
5
10
-0.28284251
20
1.1752704
30
0
70
32
0
SEQEND
8
0
0
POLYLINE
8
0
62
5
66
1
10
0
20
0
30
0
70
8
0
VERTEX
8
0
62
5
10
-0.28284251
20
1.039915
30
0
70
32
0
VERTEX
8
0
62
5
10
-0.21213183
20
1.0692043
30
0
70
32
0
VERTEX
8
0
62
5
10
-0.14142116
20
1.0692043
30
0
70
32
0
VERTEX
8
0
62
5
10
-0.070710477
20
1.039915
30
0
70
32
0
VERTEX
8
0
62
5
10
2.0082148e-07
20
1.039915
30
0
70
32
0
SEQEND
8
0
0
POLYLINE
8
0
62
5
66
1
10
0
20
0
30
0
70
8
0
VERTEX
8
0
62
5
10
-0.28284251
20
1.1106257
30
0
70
32
0
VERTEX
8
0
62
5
10
-0.21213183
20
1.1399151
30
0
70
32
0
VERTEX
8
0
62
5
10
-0.14142116
20
1.139915
30
0
70
32
0
VERTEX
8
0
62
5
10
-0.070710477
20
1.1106257
30
0
70
32
0
VERTEX
8
0
62
5
10
2.0082148e-07
20
1.1106257
30
0
70
32
0
SEQEND
8
0
0
POLYLINE
8
0
62
5
66
1
10
0
20
0
30
0
70
8
0
VERTEX
8
0
62
5
10
-0.28284251
20
1.0984937
30
0
70
32
0
VERTEX
8
0
62
5
10
-0.21213183
20
1.0692043
30
0
70
32
0
VERTEX
8
0
62
5
10
-0.14142116
20
1.0692044
30
0
70
32
0
VERTEX
8
0
62
5
10
-0.070710477
20
1.0984937
30
0
70
32
0
VERTEX
8
0
62
5
10
2.0082148e-07
20
1.0984937
30
0
70
32
0
SEQEND
8
0
0
POLYLINE
8
0
62
5
66
1
10
0
20
0
30
0
70
8
0
VERTEX
8
0
62
5
10
-0.28284251
20
1.1692044
30
0
70
32
0
VERTEX
8
0
62
5
10
-0.21213183
20
1.1399151
30
0
70
32
0
VERTEX
8
0
62
5
10
-0.14142116
20
1.1399151
30
0
70
32
0
VERTEX
8
0
62
5
10
-0.070710477
20
1.1692044
30
0
70
32
0
VERTEX
8
0
62
5
10
2.0082148e-07
20
1.1692044
30
0
70
32
0
SEQEND
8
0
0
POLYLINE
8
0
62
30
66
1
10
0
20
0
30
0
70
8
0
VERTEX
8
0
62
30
10
-0.28284251
20
1.0692043
30
0
70
32
0
VERTEX
8
0
62
30
10
2.0082148e-07
20
1.0692043
30
0
70
32
0
SEQEND
8
0
0
POLYLINE
8
0
62
30
66
1
10
0
20
0
30
0
70
8
0
VERTEX
8
0
62
30
10
-0.28284251
20
1.1399151
30
0
70
32
0
VERTEX
8
0
62
30
10
2.0082148e-07
20
1.1399151
30
0
70
32
0
SEQEND
8
0
0
POLYLINE
8
0
62
30
66
1
10
0
20
0
30
0
70
8
0
VERTEX
8
0
62
30
10
-0.21213183
20
1.0692043
30
0
70
32
0
VERTEX
8
0
62
30
10
-0.21213183
20
1.0692043
30
0
70
32
0
SEQEND
8
0
0
POLYLINE
8
0
62
30
66
1
10
0
20
0
30
0
70
8
0
VERTEX
8
0
62
30
10
-0.14142116
20
1.0692043
30
0
70
32
0
VERTEX
8
0
62
30
10
-0.14142116
20
1.0692043
30
0
70
32
0
SEQEND
8
0
0
POLYLINE
8
0
62
30
66
1
10
0
20
0
30
0
70
8
0
VERTEX
8
0
62
30
10
-0.070710477
20
1.039915
30
0
70
32
0
VERTEX
8
0
62
30
10
-0.070710477
20
1.0692043
30
0
70
32
0
SEQEND
8
0
0
POLYLINE
8
0
62
30
66
1
10
0
20
0
30
0
70
8
0
VERTEX
8
0
62
30
10
-0.21213183
20
1.1399151
30
0
70
32
0
VERTEX
8
0
62
30
10
-0.21213183
20
1.1399151
30
0
70
32
0
SEQEND
8
0
0
POLYLINE
8
0
62
30
66
1
10
0
20
0
30
0
70
8
0
VERTEX
8
0
62
30
10
-0.14142116
20
1.139915
30
0
70
32
0
VERTEX
8
0
62
30
10
-0.14142116
20
1.1399151
30
0
70
32
0
SEQEND
8
0
0
POLYLINE
8
0
62
30
66
1
10
0
20
0
30
0
70
8
0
VERTEX
8
0
62
30
10
-0.070710477
20
1.1106257
30
0
70
32
0
VERTEX
8
0
62
30
10
-0.070710477
20
1.1399151
30
0
70
32
0
SEQEND
8
0
0
POLYLINE
8
0
62
5
66
1
10
0
20
0
30
0
70
8
0
VERTEX
8
0
62
5
10
-0.21213183
20
1.033849
30
0
70
32
0
VERTEX
8
0
62
5
10
-0.21213183
20
1.0692043
30
0
70
32
0
SEQEND
8
0
0
POLYLINE
8
0
62
5
66
1
10
0
20
0
30
0
70
8
0
VERTEX
8
0
62
5
10
-0.14142116
20
1.033849
30
0
70
32
0
VERTEX
8
0
62
5
10
-0.14142116
20
1.0692043
30
0
70
32
0
SEQEND
8
0
0
POLYLINE
8
0
62
5
66
1
10
0
20
0
30
0
70
8
0
VERTEX
8
0
62
5
10
-0.070710477
20
1.033849
30
0
70
32
0
VERTEX
8
0
62
5
10
-0.070710477
20
1.039915
30
0
70
32
0
SEQEND
8
0
0
POLYLINE
8
0
62
5
66
1
10
0
20
0
30
0
70
8
0
VERTEX
8
0
62
5
10
-0.21213183
20
1.1045597
30
0
70
32
0
VERTEX
8
0
62
5
10
-0.21213183
20
1.1399151
30
0
70
32
0
SEQEND
8
0
0
POLYLINE
8
0
62
5
66
1
10
0
20
0
30
0
70
8
0
VERTEX
8
0
62
5
10
-0.14142116
20
1.1045597
30
0
70
32
0
VERTEX
8
0
62
5
10
-0.14142116
20
1.139915
30
0
70
32
0
SEQEND
8
0
0
POLYLINE
8
0
62
5
66
1
10
0
20
0
30
0
70
8
0
VERTEX
8
0
62
5
10
-0.070710477
20
1.1045597
30
0
70
32
0
VERTEX
8
0
62
5
10
-0.070710477
20
1.1106257
30
0
70
32
0
SEQEND
8
0
0
POLYLINE
8
0
62
5
66
1
10
0
20
0
30
0
70
8
0
VERTEX
8
0
62
5
10
-0.21213183
20
1.0692043
30
0
70
32
0
VERTEX
8
0
62
5
10
-0.21213183
20
1.1045597
30
0
70
32
0
SEQEND
8
0
0
POLYLINE
8
0
62
5
66
1
10
0
20
0
30
0
70
8
0
VERTEX
8
0
62
5
10
-0.14142116
20
1.0692043
30
0
70
32
0
VERTEX
8
0
62
5
10
-0.14142116
20
1.1045597
30
0
70
32
0
SEQEND
8
0
0
POLYLINE
8
0
62
5
66
1
10
0
20
0
30
0
70
8
0
VERTEX
8
0
62
5
10
-0.070710477
20
1.0692043
30
0
70
32
0
VERTEX
8
0
62
5
10
-0.070710477
20
1.1045597
30
0
70
32
0
SEQEND
8
0
0
POLYLINE
8
0
62
5
66
1
10
0
20
0
30
0
70
8
0
VERTEX
8
0
62
5
10
-0.21213183
20
1.1399151
30
0
70
32
0
VERTEX
8
0
62
5
10
-0.21213183
20
1.1752704
30
0
70
32
0
SEQEND
8
0
0
POLYLINE
8
0
62
5
66
1
10
0
20
0
30
0
70
8
0
VERTEX
8
0
62
5
10
-0.14142116
20
1.1399151
30
0
70
32
0
VERTEX
8
0
62
5
10
-0.14142116
20
1.1752704
30
0
70
32
0
SEQEND
8
0
0
POLYLINE
8
0
62
5
66
1
10
0
20
0
30
0
70
8
0
VERTEX
8
0
62
5
10
-0.070710477
20
1.1399151
30
0
70
32
0
VERTEX
8
0
62
5
10
-0.070710477
20
1.1752704
30
0
70
32
0
SEQEND
8
0
0
POLYLINE
8
0
62
30
66
1
10
0
20
0
30
0
70
8
0
VERTEX
8
0
62
30
10
-0.28284251
20
1.039915
30
0
70
32
0
VERTEX
8
0
62
30
10
-0.263272
20
1.0692043
30
0
70
32
0
VERTEX
8
0
62
30
10
-0.28284251
20
1.0984937
30
0
70
32
0
SEQEND
8
0
0
POLYLINE
8
0
62
30
66
1
10
0
20
0
30
0
70
8
0
VERTEX
8
0
62
30
10
-0.21213183
20
1.0692043
30
0
70
32
0
VERTEX
8
0
62
30
10
-0.21213183
20
1.0692043
30
0
70
32
0
VERTEX
8
0
62
30
10
-0.21213183
20
1.0692043
30
0
70
32
0
SEQEND
8
0
0
POLYLINE
8
0
62
30
66
1
10
0
20
0
30
0
70
8
0
VERTEX
8
0
62
30
10
-0.14142116
20
1.0692043
30
0
70
32
0
VERTEX
8
0
62
30
10
-0.14142109
20
1.0692043
30
0
70
32
0
VERTEX
8
0
62
30
10
-0.14142116
20
1.0692044
30
0
70
32
0
SEQEND
8
0
0
POLYLINE
8
0
62
30
66
1
10
0
20
0
30
0
70
8
0
VERTEX
8
0
62
30
10
-0.070710477
20
1.039915
30
0
70
32
0
VERTEX
8
0
62
30
10
-0.051139957
20
1.0692043
30
0
70
32
0
VERTEX
8
0
62
30
10
-0.070710477
20
1.0984937
30
0
70
32
0
SEQEND
8
0
0
POLYLINE
8
0
62
30
66
1
10
0
20
0
30
0
70
8
0
VERTEX
8
0
62
30
10
-0.28284251
20
1.1106257
30
0
70
32
0
VERTEX
8
0
62
30
10
-0.263272
20
1.1399151
30
0
70
32
0
VERTEX
8
0
62
30
10
-0.28284251
20
1.1692044
30
0
70
32
0
SEQEND
8
0
0
POLYLINE
8
0
62
30
66
1
10
0
20
0
30
0
70
8
0
VERTEX
8
0
62
30
10
-0.21213183
20
1.1399151
30
0
70
32
0
VERTEX
8
0
62
30
10
-0.21213183
20
1.1399151
30
0
70
32
0
VERTEX
8
0
62
30
10
-0.21213183
20
1.1399151
30
0
70
32
0
SEQEND
8
0
0
POLYLINE
8
0
62
30
66
1
10
0
20
0
30
0
70
8
0
VERTEX
8
0
62
30
10
-0.14142116
20
1.139915
30
0
70
32
0
VERTEX
8
0
62
30
10
-0.14142109
20
1.1399151
30
0
70
32
0
VERTEX
8
0
62
30
10
-0.14142116
20
1.1399151
30
0
70
32
0
SEQEND
8
0
0
POLYLINE
8
0
62
30
66
1
10
0
20
0
30
0
70
8
0
VERTEX
8
0
62
30
10
-0.070710477
20
1.1106257
30
0
70
32
0
VERTEX
8
0
62
30
10
-0.051139957
20
1.1399151
30
0
70
32
0
VERTEX
8
0
62
30
10
-0.070710477
20
1.1692044
30
0
70
32
0
SEQEND
8
0
0
POLYLINE
8
0
62
5
66
1
10
0
20
0
30
0
70
8
0
VERTEX
8
0
62
5
10
2.0082148e-07
20
1.1752704
30
0
70
32
0
VERTEX
8
0
62
5
10
2.0082148e-07
20
1.1823414
30
0
70
32
0
SEQEND
8
0
0
POLYLINE
8
0
62
5
66
1
10
0
20
0
30
0
70
8
0
VERTEX
8
0
62
5
10
0.070710879
20
1.1752704
30
0
70
32
0
VERTEX
8
0
62
5
10
0.070710879
20
1.1823414
30
0
70
32
0
SEQEND
8
0
0
POLYLINE
8
0
62
5
66
1
10
0
20
0
30
0
70
8
0
VERTEX
8
0
62
5
10
0.14142156
20
1.1752704
30
0
70
32
0
VERTEX
8
0
62
5
10
0.14142156
20
1.1823414
30
0
70
32
0
SEQEND
8
0
0
POLYLINE
8
0
62
5
66
1
10
0
20
0
30
0
70
8
0
VERTEX
8
0
62
5
10
0.21213224
20
1.1752704
30
0
70
32
0
VERTEX
8
0
62
5
10
0.21213224
20
1.1823414
30
0
70
32
0
SEQEND
8
0
0
POLYLINE
8
0
62
5
66
1
10
0
20
0
30
0
70
8
0
VERTEX
8
0
62
5
10
0.28284291
20
1.1752704
30
0
70
32
0
VERTEX
8
0
62
5
10
0.28284291
20
1.1823414
30
0
70
32
0
SEQEND
8
0
0
POLYLINE
8
0
62
5
66
1
10
0
20
0
30
0
70
8
0
VERTEX
8
0
62
5
10
0.070710879
20
1.1752704
30
0
70
32
0
VERTEX
8
0
62
5
10
0.070710879
20
1.1752704
30
0
70
32
0
SEQEND
8
0
0
POLYLINE
8
0
62
5
66
1
10
0
20
0
30
0
70
8
0
VERTEX
8
0
62
5
10
0.14142156
20
1.1752704
30
0
70
32
0
VERTEX
8
0
62
5
10
0.14142156
20
1.1752704
30
0
70
32
0
SEQEND
8
0
0
POLYLINE
8
0
62
5
66
1
10
0
20
0
30
0
70
8
0
VERTEX
8
0
62
5
10
0.21213224
20
1.1752704
30
0
70
32
0
VERTEX
8
0
62
5
10
0.21213224
20
1.1752704
30
0
70
32
0
SEQEND
8
0
0
POLYLINE
8
0
62
5
66
1
10
0
20
0
30
0
70
8
0
VERTEX
8
0
62
5
10
0.070710828
20
1.1823414
30
0
70
32
0
VERTEX
8
0
62
5
10
0.070710828
20
1.1823414
30
0
70
32
0
SEQEND
8
0
0
POLYLINE
8
0
62
5
66
1
10
0
20
0
30
0
70
8
0
VERTEX
8
0
62
5
10
0.14142151
20
1.1823414
30
0
70
32
0
VERTEX
8
0
62
5
10
0.14142151
20
1.1823414
30
0
70
32
0
SEQEND
8
0
0
POLYLINE
8
0
62
5
66
1
10
0
20
0
30
0
70
8
0
VERTEX
8
0
62
5
10
0.21213218
20
1.1823414
30
0
70
32
0
VERTEX
8
0
62
5
10
0.21213218
20
1.1823414
30
0
70
32
0
SEQEND
8
0
0
POLYLINE
8
0
62
5
66
1
10
0
20
0
30
0
70
8
0
VERTEX
8
0
62
5
10
0.28284286
20
1.1823414
30
0
70
32
0
VERTEX
8
0
62
5
10
0.28284286
20
1.1823414
30
0
70
32
0
SEQEND
8
0
0
POLYLINE
8
0
62
5
66
1
10
0
20
0
30
0
70
8
0
VERTEX
8
0
62
5
10
0.35355359
20
1.1752704
30
0
70
32
0
VERTEX
8
0
62
5
10
0.35355359
20
1.1823414
30
0
70
32
0
SEQEND
8
0
0
POLYLINE
8
0
62
5
66
1
10
0
20
0
30
0
70
8
0
VERTEX
8
0
62
5
10
0.42426427
20
1.1752704
30
0
70
32
0
VERTEX
8
0
62
5
10
0.42426427
20
1.1823414
30
0
70
32
0
SEQEND
8
0
0
POLYLINE
8
0
62
5
66
1
10
0
20
0
30
0
70
8
0
VERTEX
8
0
62
5
10
0.49497495
20
1.1752704
30
0
70
32
0
VERTEX
8
0
62
5
10
0.49497495
20
1.1823414
30
0
70
32
0
SEQEND
8
0
0
POLYLINE
8
0
62
5
66
1
10
0
20
0
30
0
70
8
0
VERTEX
8
0
62
5
10
0.56568563
20
1.1752704
30
0
70
32
0
VERTEX
8
0
62
5
10
0.56568563
20
1.1823414
30
0
70
32
0
SEQEND
8
0
0
POLYLINE
8
0
62
5
66
1
10
0
20
0
30
0
70
8
0
VERTEX
8
0
62
5
10
0.35355359
20
1.1752704
30
0
70
32
0
VERTEX
8
0
62
5
10
0.35355359
20
1.1752704
30
0
70
32
0
SEQEND
8
0
0
POLYLINE
8
0
62
5
66
1
10
0
20
0
30
0
70
8
0
VERTEX
8
0
62
5
10
0.42426427
20
1.1752704
30
0
70
32
0
VERTEX
8
0
62
5
10
0.42426427
20
1.1752704
30
0
70
32
0
SEQEND
8
0
0
POLYLINE
8
0
62
5
66
1
10
0
20
0
30
0
70
8
0
VERTEX
8
0
62
5
10
0.49497495
20
1.1752704
30
0
70
32
0
VERTEX
8
0
62
5
10
0.49497495
20
1.1752704
30
0
70
32
0
SEQEND
8
0
0
POLYLINE
8
0
62
5
66
1
10
0
20
0
30
0
70
8
0
VERTEX
8
0
62
5
10
0.35355354
20
1.1823414
30
0
70
32
0
VERTEX
8
0
62
5
10
0.35355354
20
1.1823414
30
0
70
32
0
SEQEND
8
0
0
POLYLINE
8
0
62
5
66
1
10
0
20
0
30
0
70
8
0
VERTEX
8
0
62
5
10
0.42426422
20
1.1823414
30
0
70
32
0
VERTEX
8
0
62
5
10
0.42426422
20
1.1823414
30
0
70
32
0
SEQEND
8
0
0
POLYLINE
8
0
62
5
66
1
10
0
20
0
30
0
70
8
0
VERTEX
8
0
62
5
10
0.4949749
20
1.1823414
30
0
70
32
0
VERTEX
8
0
62
5
10
0.4949749
20
1.1823414
30
0
70
32
0
SEQEND
8
0
0
POLYLINE
8
0
62
5
66
1
10
0
20
0
30
0
70
8
0
VERTEX
8
0
62
5
10
0.56568557
20
1.1823414
30
0
70
32
0
VERTEX
8
0
62
5
10
0.56568557
20
1.1823414
30
0
70
32
0
SEQEND
8
0
0
POLYLINE
8
0
62
5
66
1
10
0
20
0
30
0
70
8
0
VERTEX
8
0
62
5
10
-0.21213183
20
1.1752704
30
0
70
32
0
VERTEX
8
0
62
5
10
-0.21213183
20
1.1823414
30
0
70
32
0
SEQEND
8
0
0
POLYLINE
8
0
62
5
66
1
10
0
20
0
30
0
70
8
0
VERTEX
8
0
62
5
10
-0.14142116
20
1.1752704
30
0
70
32
0
VERTEX
8
0
62
5
10
-0.14142116
20
1.1823414
30
0
70
32
0
SEQEND
8
0
0
POLYLINE
8
0
62
5
66
1
10
0
20
0
30
0
70
8
0
VERTEX
8
0
62
5
10
-0.070710477
20
1.1752704
30
0
70
32
0
VERTEX
8
0
62
5
10
-0.070710477
20
1.1823414
30
0
70
32
0
SEQEND
8
0
0
POLYLINE
8
0
62
5
66
1
10
0
20
0
30
0
70
8
0
VERTEX
8
0
62
5
10
2.0082148e-07
20
1.1752704
30
0
70
32
0
VERTEX
8
0
62
5
10
2.0082148e-07
20
1.1823414
30
0
70
32
0
SEQEND
8
0
0
POLYLINE
8
0
62
5
66
1
10
0
20
0
30
0
70
8
0
VERTEX
8
0
62
5
10
-0.21213183
20
1.1752704
30
0
70
32
0
VERTEX
8
0
62
5
10
-0.21213183
20
1.1752704
30
0
70
32
0
SEQEND
8
0
0
POLYLINE
8
0
62
5
66
1
10
0
20
0
30
0
70
8
0
VERTEX
8
0
62
5
10
-0.14142116
20
1.1752704
30
0
70
32
0
VERTEX
8
0
62
5
10
-0.14142116
20
1.1752704
30
0
70
32
0
SEQEND
8
0
0
POLYLINE
8
0
62
5
66
1
10
0
20
0
30
0
70
8
0
VERTEX
8
0
62
5
10
-0.070710477
20
1.1752704
30
0
70
32
0
VERTEX
8
0
62
5
10
-0.070710477
20
1.1752704
30
0
70
32
0
SEQEND
8
0
0
POLYLINE
8
0
62
5
66
1
10
0
20
0
30
0
70
8
0
VERTEX
8
0
62
5
10
-0.21213188
20
1.1823414
30
0
70
32
0
VERTEX
8
0
62
5
10
-0.21213188
20
1.1823414
30
0
70
32
0
SEQEND
8
0
0
POLYLINE
8
0
62
5
66
1
10
0
20
0
30
0
70
8
0
VERTEX
8
0
62
5
10
-0.14142121
20
1.1823414
30
0
70
32
0
VERTEX
8
0
62
5
10
-0.14142121
20
1.1823414
30
0
70
32
0
SEQEND
8
0
0
POLYLINE
8
0
62
5
66
1
10
0
20
0
30
0
70
8
0
VERTEX
8
0
62
5
10
-0.070710529
20
1.1823414
30
0
70
32
0
VERTEX
8
0
62
5
10
-0.070710529
20
1.1823414
30
0
70
32
0
SEQEND
8
0
0
POLYLINE
8
0
62
5
66
1
10
0
20
0
30
0
70
8
0
VERTEX
8
0
62
5
10
1.4961541e-07
20
1.1823414
30
0
70
32
0
VERTEX
8
0
62
5
10
1.4961541e-07
20
1.1823414
30
0
70
32
0
SEQEND
8
0
0
POLYLINE
8
0
62
5
66
1
10
0
20
0
30
0
70
8
0
VERTEX
8
0
62
5
10
1.4961541e-07
20
1.1823414
30
0
70
32
0
VERTEX
8
0
62
5
10
1.4961541e-07
20
1.2106256
30
0
70
32
0
SEQEND
8
0
0
POLYLINE
8
0
62
5
66
1
10
0
20
0
30
0
70
8
0
VERTEX
8
0
62
5
10
0.28284286
20
1.1823414
30
0
70
32
0
VERTEX
8
0
62
5
10
0.28284286
20
1.2106256
30
0
70
32
0
SEQEND
8
0
0
POLYLINE
8
0
62
5
66
1
10
0
20
0
30
0
70
8
0
VERTEX
8
0
62
5
10
0.070710828
20
1.1823414
30
0
70
32
0
VERTEX
8
0
62
5
10
0.070710828
20
1.2106256
30
0
70
32
0
SEQEND
8
0
0
POLYLINE
8
0
62
5
66
1
10
0
20
0
30
0
70
8
0
VERTEX
8
0
62
5
10
0.14142151
20
1.1823414
30
0
70
32
0
VERTEX
8
0
62
5
10
0.14142151
20
1.2106256
30
0
70
32
0
SEQEND
8
0
0
POLYLINE
8
0
62
5
66
1
10
0
20
0
30
0
70
8
0
VERTEX
8
0
62
5
10
0.21213218
20
1.1823414
30
0
70
32
0
VERTEX
8
0
62
5
10
0.21213218
20
1.2106256
30
0
70
32
0
SEQEND
8
0
0
POLYLINE
8
0
62
5
66
1
10
0
20
0
30
0
70
8
0
VERTEX
8
0
62
5
10
0.56568557
20
1.1823414
30
0
70
32
0
VERTEX
8
0
62
5
10
0.56568557
20
1.2106256
30
0
70
32
0
SEQEND
8
0
0
POLYLINE
8
0
62
5
66
1
10
0
20
0
30
0
70
8
0
VERTEX
8
0
62
5
10
0.35355354
20
1.1823414
30
0
70
32
0
VERTEX
8
0
62
5
10
0.35355354
20
1.2106256
30
0
70
32
0
SEQEND
8
0
0
POLYLINE
8
0
62
5
66
1
10
0
20
0
30
0
70
8
0
VERTEX
8
0
62
5
10
0.42426422
20
1.1823414
30
0
70
32
0
VERTEX
8
0
62
5
10
0.42426422
20
1.2106256
30
0
70
32
0
SEQEND
8
0
0
POLYLINE
8
0
62
5
66
1
10
0
20
0
30
0
70
8
0
VERTEX
8
0
62
5
10
0.4949749
20
1.1823414
30
0
70
32
0
VERTEX
8
0
62
5
10
0.4949749
20
1.2106256
30
0
70
32
0
SEQEND
8
0
0
POLYLINE
8
0
62
5
66
1
10
0
20
0
30
0
70
8
0
VERTEX
8
0
62
5
10
-0.28284256
20
1.1823414
30
0
70
32
0
VERTEX
8
0
62
5
10
-0.28284256
20
1.2106256
30
0
70
32
0
SEQEND
8
0
0
POLYLINE
8
0
62
5
66
1
10
0
20
0
30
0
70
8
0
VERTEX
8
0
62
5
10
-0.21213188
20
1.1823414
30
0
70
32
0
VERTEX
8
0
62
5
10
-0.21213188
20
1.2106256
30
0
70
32
0
SEQEND
8
0
0
POLYLINE
8
0
62
5
66
1
10
0
20
0
30
0
70
8
0
VERTEX
8
0
62
5
10
-0.14142121
20
1.1823414
30
0
70
32
0
VERTEX
8
0
62
5
10
-0.14142121
20
1.2106256
30
0
70
32
0
SEQEND
8
0
0
POLYLINE
8
0
62
5
66
1
10
0
20
0
30
0
70
8
0
VERTEX
8
0
62
5
10
-0.070710529
20
1.1823414
30
0
70
32
0
VERTEX
8
0
62
5
10
-0.070710529
20
1.2106256
30
0
70
32
0
SEQEND
8
0
0
POLYLINE
8
0
62
5
66
1
10
0
20
0
30
0
70
8
0
VERTEX
8
0
62
5
10
1.4961541e-07
20
1.2106256
30
0
70
32
0
VERTEX
8
0
62
5
10
1.4961541e-07
20
1.2871623
30
0
70
32
0
SEQEND
8
0
0
POLYLINE
8
0
62
5
66
1
10
0
20
0
30
0
70
8
0
VERTEX
8
0
62
5
10
0.28284286
20
1.2871623
30
0
70
32
0
VERTEX
8
0
62
5
10
0.28284286
20
1.2106256
30
0
70
32
0
SEQEND
8
0
0
POLYLINE
8
0
62
5
66
1
10
0
20
0
30
0
70
8
0
VERTEX
8
0
62
5
10
1.4961541e-07
20
1.2106256
30
0
70
32
0
VERTEX
8
0
62
5
10
0.28284286
20
1.2106256
30
0
70
32
0
SEQEND
8
0
0
POLYLINE
8
0
62
5
66
1
10
0
20
0
30
0
70
8
0
VERTEX
8
0
62
5
10
1.4961541e-07
20
1.2871623
30
0
70
32
0
VERTEX
8
0
62
5
10
0.28284286
20
1.2871623
30
0
70
32
0
SEQEND
8
0
0
POLYLINE
8
0
62
5
66
1
10
0
20
0
30
0
70
8
0
VERTEX
8
0
62
5
10
0.070710828
20
1.2106256
30
0
70
32
0
VERTEX
8
0
62
5
10
0.070710828
20
1.2106256
30
0
70
32
0
SEQEND
8
0
0
POLYLINE
8
0
62
5
66
1
10
0
20
0
30
0
70
8
0
VERTEX
8
0
62
5
10
0.14142151
20
1.2106256
30
0
70
32
0
VERTEX
8
0
62
5
10
0.14142151
20
1.2106256
30
0
70
32
0
SEQEND
8
0
0
POLYLINE
8
0
62
5
66
1
10
0
20
0
30
0
70
8
0
VERTEX
8
0
62
5
10
0.21213218
20
1.2106256
30
0
70
32
0
VERTEX
8
0
62
5
10
0.21213218
20
1.2106256
30
0
70
32
0
SEQEND
8
0
0
POLYLINE
8
0
62
5
66
1
10
0
20
0
30
0
70
8
0
VERTEX
8
0
62
5
10
0.070710828
20
1.2871623
30
0
70
32
0
VERTEX
8
0
62
5
10
0.070710828
20
1.2871623
30
0
70
32
0
SEQEND
8
0
0
POLYLINE
8
0
62
5
66
1
10
0
20
0
30
0
70
8
0
VERTEX
8
0
62
5
10
0.14142151
20
1.2871623
30
0
70
32
0
VERTEX
8
0
62
5
10
0.14142151
20
1.2871623
30
0
70
32
0
SEQEND
8
0
0
POLYLINE
8
0
62
5
66
1
10
0
20
0
30
0
70
8
0
VERTEX
8
0
62
5
10
0.21213218
20
1.2871623
30
0
70
32
0
VERTEX
8
0
62
5
10
0.21213218
20
1.2871623
30
0
70
32
0
SEQEND
8
0
0
POLYLINE
8
0
62
30
66
1
10
0
20
0
30
0
70
8
0
VERTEX
8
0
62
30
10
1.4961541e-07
20
1.2871623
30
0
70
32
0
VERTEX
8
0
62
30
10
0.070710828
20
1.2106256
30
0
70
32
0
SEQEND
8
0
0
POLYLINE
8
0
62
30
66
1
10
0
20
0
30
0
70
8
0
VERTEX
8
0
62
30
10
0.070710828
20
1.2871623
30
0
70
32
0
VERTEX
8
0
62
30
10
1.4961541e-07
20
1.2106256
30
0
70
32
0
SEQEND
8
0
0
POLYLINE
8
0
62
30
66
1
10
0
20
0
30
0
70
8
0
VERTEX
8
0
62
30
10
0.14142151
20
1.2871623
30
0
70
32
0
VERTEX
8
0
62
30
10
0.21213218
20
1.2106256
30
0
70
32
0
SEQEND
8
0
0
POLYLINE
8
0
62
30
66
1
10
0
20
0
30
0
70
8
0
VERTEX
8
0
62
30
10
0.21213218
20
1.2871623
30
0
70
32
0
VERTEX
8
0
62
30
10
0.14142151
20
1.2106256
30
0
70
32
0
SEQEND
8
0
0
POLYLINE
8
0
62
30
66
1
10
0
20
0
30
0
70
8
0
VERTEX
8
0
62
30
10
0.070710828
20
1.2488939
30
0
70
32
0
VERTEX
8
0
62
30
10
0.14142151
20
1.2488939
30
0
70
32
0
SEQEND
8
0
0
POLYLINE
8
0
62
30
66
1
10
0
20
0
30
0
70
8
0
VERTEX
8
0
62
30
10
0.21213218
20
1.2488939
30
0
70
32
0
VERTEX
8
0
62
30
10
0.28284286
20
1.2488939
30
0
70
32
0
SEQEND
8
0
0
POLYLINE
8
0
62
5
66
1
10
0
20
0
30
0
70
8
0
VERTEX
8
0
62
5
10
1.4961541e-07
20
1.2488939
30
0
70
32
0
VERTEX
8
0
62
5
10
0.035355489
20
1.2488939
30
0
70
32
0
SEQEND
8
0
0
POLYLINE
8
0
62
5
66
1
10
0
20
0
30
0
70
8
0
VERTEX
8
0
62
5
10
0.14142151
20
1.2488939
30
0
70
32
0
VERTEX
8
0
62
5
10
0.17677684
20
1.2488939
30
0
70
32
0
SEQEND
8
0
0
POLYLINE
8
0
62
5
66
1
10
0
20
0
30
0
70
8
0
VERTEX
8
0
62
5
10
0.035355489
20
1.2488939
30
0
70
32
0
VERTEX
8
0
62
5
10
0.070710828
20
1.2488939
30
0
70
32
0
SEQEND
8
0
0
POLYLINE
8
0
62
5
66
1
10
0
20
0
30
0
70
8
0
VERTEX
8
0
62
5
10
0.17677684
20
1.2488939
30
0
70
32
0
VERTEX
8
0
62
5
10
0.21213218
20
1.2488939
30
0
70
32
0
SEQEND
8
0
0
POLYLINE
8
0
62
5
66
1
10
0
20
0
30
0
70
8
0
VERTEX
8
0
62
5
10
0.070710828
20
1.2106256
30
0
70
32
0
VERTEX
8
0
62
5
10
0.070710828
20
1.2871623
30
0
70
32
0
SEQEND
8
0
0
POLYLINE
8
0
62
5
66
1
10
0
20
0
30
0
70
8
0
VERTEX
8
0
62
5
10
0.14142151
20
1.2106256
30
0
70
32
0
VERTEX
8
0
62
5
10
0.14142151
20
1.2871623
30
0
70
32
0
SEQEND
8
0
0
POLYLINE
8
0
62
5
66
1
10
0
20
0
30
0
70
8
0
VERTEX
8
0
62
5
10
0.21213218
20
1.2106256
30
0
70
32
0
VERTEX
8
0
62
5
10
0.21213218
20
1.2871623
30
0
70
32
0
SEQEND
8
0
0
POLYLINE
8
0
62
5
66
1
10
0
20
0
30
0
70
8
0
VERTEX
8
0
62
5
10
1.4961541e-07
20
1.2106256
30
0
70
32
0
VERTEX
8
0
62
5
10
1.4961541e-07
20
1.2871623
30
0
70
32
0
SEQEND
8
0
0
POLYLINE
8
0
62
5
66
1
10
0
20
0
30
0
70
8
0
VERTEX
8
0
62
5
10
0.017677819
20
1.2680281
30
0
70
32
0
VERTEX
8
0
62
5
10
0.017677819
20
1.2297598
30
0
70
32
0
VERTEX
8
0
62
5
10
0.053033158
20
1.2297598
30
0
70
32
0
VERTEX
8
0
62
5
10
0.053033158
20
1.2680281
30
0
70
32
0
VERTEX
8
0
62
5
10
0.017677819
20
1.2680281
30
0
70
32
0
SEQEND
8
0
0
POLYLINE
8
0
62
5
66
1
10
0
20
0
30
0
70
8
0
VERTEX
8
0
62
5
10
0.15909918
20
1.2680281
30
0
70
32
0
VERTEX
8
0
62
5
10
0.15909918
20
1.2297598
30
0
70
32
0
VERTEX
8
0
62
5
10
0.19445451
20
1.2297598
30
0
70
32
0
VERTEX
8
0
62
5
10
0.19445451
20
1.2680281
30
0
70
32
0
VERTEX
8
0
62
5
10
0.15909918
20
1.2680281
30
0
70
32
0
SEQEND
8
0
0
POLYLINE
8
0
62
5
66
1
10
0
20
0
30
0
70
8
0
VERTEX
8
0
62
5
10
0.56568557
20
1.2871623
30
0
70
32
0
VERTEX
8
0
62
5
10
0.56568557
20
1.2106256
30
0
70
32
0
SEQEND
8
0
0
POLYLINE
8
0
62
5
66
1
10
0
20
0
30
0
70
8
0
VERTEX
8
0
62
5
10
0.28284286
20
1.2106256
30
0
70
32
0
VERTEX
8
0
62
5
10
0.56568557
20
1.2106256
30
0
70
32
0
SEQEND
8
0
0
POLYLINE
8
0
62
5
66
1
10
0
20
0
30
0
70
8
0
VERTEX
8
0
62
5
10
0.28284286
20
1.2871623
30
0
70
32
0
VERTEX
8
0
62
5
10
0.56568557
20
1.2871623
30
0
70
32
0
SEQEND
8
0
0
POLYLINE
8
0
62
5
66
1
10
0
20
0
30
0
70
8
0
VERTEX
8
0
62
5
10
0.35355354
20
1.2106256
30
0
70
32
0
VERTEX
8
0
62
5
10
0.35355354
20
1.2106256
30
0
70
32
0
SEQEND
8
0
0
POLYLINE
8
0
62
5
66
1
10
0
20
0
30
0
70
8
0
VERTEX
8
0
62
5
10
0.42426422
20
1.2106256
30
0
70
32
0
VERTEX
8
0
62
5
10
0.42426422
20
1.2106256
30
0
70
32
0
SEQEND
8
0
0
POLYLINE
8
0
62
5
66
1
10
0
20
0
30
0
70
8
0
VERTEX
8
0
62
5
10
0.4949749
20
1.2106256
30
0
70
32
0
VERTEX
8
0
62
5
10
0.4949749
20
1.2106256
30
0
70
32
0
SEQEND
8
0
0
POLYLINE
8
0
62
5
66
1
10
0
20
0
30
0
70
8
0
VERTEX
8
0
62
5
10
0.35355354
20
1.2871623
30
0
70
32
0
VERTEX
8
0
62
5
10
0.35355354
20
1.2871623
30
0
70
32
0
SEQEND
8
0
0
POLYLINE
8
0
62
5
66
1
10
0
20
0
30
0
70
8
0
VERTEX
8
0
62
5
10
0.42426422
20
1.2871623
30
0
70
32
0
VERTEX
8
0
62
5
10
0.42426422
20
1.2871623
30
0
70
32
0
SEQEND
8
0
0
POLYLINE
8
0
62
5
66
1
10
0
20
0
30
0
70
8
0
VERTEX
8
0
62
5
10
0.4949749
20
1.2871623
30
0
70
32
0
VERTEX
8
0
62
5
10
0.4949749
20
1.2871623
30
0
70
32
0
SEQEND
8
0
0
POLYLINE
8
0
62
30
66
1
10
0
20
0
30
0
70
8
0
VERTEX
8
0
62
30
10
0.28284286
20
1.2871623
30
0
70
32
0
VERTEX
8
0
62
30
10
0.35355354
20
1.2106256
30
0
70
32
0
SEQEND
8
0
0
POLYLINE
8
0
62
30
66
1
10
0
20
0
30
0
70
8
0
VERTEX
8
0
62
30
10
0.35355354
20
1.2871623
30
0
70
32
0
VERTEX
8
0
62
30
10
0.28284286
20
1.2106256
30
0
70
32
0
SEQEND
8
0
0
POLYLINE
8
0
62
30
66
1
10
0
20
0
30
0
70
8
0
VERTEX
8
0
62
30
10
0.42426422
20
1.2871623
30
0
70
32
0
VERTEX
8
0
62
30
10
0.4949749
20
1.2106256
30
0
70
32
0
SEQEND
8
0
0
POLYLINE
8
0
62
30
66
1
10
0
20
0
30
0
70
8
0
VERTEX
8
0
62
30
10
0.4949749
20
1.2871623
30
0
70
32
0
VERTEX
8
0
62
30
10
0.42426422
20
1.2106256
30
0
70
32
0
SEQEND
8
0
0
POLYLINE
8
0
62
30
66
1
10
0
20
0
30
0
70
8
0
VERTEX
8
0
62
30
10
0.35355354
20
1.2488939
30
0
70
32
0
VERTEX
8
0
62
30
10
0.42426422
20
1.2488939
30
0
70
32
0
SEQEND
8
0
0
POLYLINE
8
0
62
30
66
1
10
0
20
0
30
0
70
8
0
VERTEX
8
0
62
30
10
0.4949749
20
1.2488939
30
0
70
32
0
VERTEX
8
0
62
30
10
0.56568557
20
1.2488939
30
0
70
32
0
SEQEND
8
0
0
POLYLINE
8
0
62
5
66
1
10
0
20
0
30
0
70
8
0
VERTEX
8
0
62
5
10
0.28284286
20
1.2488939
30
0
70
32
0
VERTEX
8
0
62
5
10
0.3181982
20
1.2488939
30
0
70
32
0
SEQEND
8
0
0
POLYLINE
8
0
62
5
66
1
10
0
20
0
30
0
70
8
0
VERTEX
8
0
62
5
10
0.42426422
20
1.2488939
30
0
70
32
0
VERTEX
8
0
62
5
10
0.45961956
20
1.2488939
30
0
70
32
0
SEQEND
8
0
0
POLYLINE
8
0
62
5
66
1
10
0
20
0
30
0
70
8
0
VERTEX
8
0
62
5
10
0.3181982
20
1.2488939
30
0
70
32
0
VERTEX
8
0
62
5
10
0.35355354
20
1.2488939
30
0
70
32
0
SEQEND
8
0
0
POLYLINE
8
0
62
5
66
1
10
0
20
0
30
0
70
8
0
VERTEX
8
0
62
5
10
0.45961956
20
1.2488939
30
0
70
32
0
VERTEX
8
0
62
5
10
0.4949749
20
1.2488939
30
0
70
32
0
SEQEND
8
0
0
POLYLINE
8
0
62
5
66
1
10
0
20
0
30
0
70
8
0
VERTEX
8
0
62
5
10
0.35355354
20
1.2106256
30
0
70
32
0
VERTEX
8
0
62
5
10
0.35355354
20
1.2871623
30
0
70
32
0
SEQEND
8
0
0
POLYLINE
8
0
62
5
66
1
10
0
20
0
30
0
70
8
0
VERTEX
8
0
62
5
10
0.42426422
20
1.2106256
30
0
70
32
0
VERTEX
8
0
62
5
10
0.42426422
20
1.2871623
30
0
70
32
0
SEQEND
8
0
0
POLYLINE
8
0
62
5
66
1
10
0
20
0
30
0
70
8
0
VERTEX
8
0
62
5
10
0.4949749
20
1.2106256
30
0
70
32
0
VERTEX
8
0
62
5
10
0.4949749
20
1.2871623
30
0
70
32
0
SEQEND
8
0
0
POLYLINE
8
0
62
5
66
1
10
0
20
0
30
0
70
8
0
VERTEX
8
0
62
5
10
0.28284286
20
1.2106256
30
0
70
32
0
VERTEX
8
0
62
5
10
0.28284286
20
1.2871623
30
0
70
32
0
SEQEND
8
0
0
POLYLINE
8
0
62
5
66
1
10
0
20
0
30
0
70
8
0
VERTEX
8
0
62
5
10
0.30052053
20
1.2680281
30
0
70
32
0
VERTEX
8
0
62
5
10
0.30052053
20
1.2297598
30
0
70
32
0
VERTEX
8
0
62
5
10
0.33587587
20
1.2297598
30
0
70
32
0
VERTEX
8
0
62
5
10
0.33587587
20
1.2680281
30
0
70
32
0
VERTEX
8
0
62
5
10
0.30052053
20
1.2680281
30
0
70
32
0
SEQEND
8
0
0
POLYLINE
8
0
62
5
66
1
10
0
20
0
30
0
70
8
0
VERTEX
8
0
62
5
10
0.44194189
20
1.2680281
30
0
70
32
0
VERTEX
8
0
62
5
10
0.44194189
20
1.2297598
30
0
70
32
0
VERTEX
8
0
62
5
10
0.47729723
20
1.2297598
30
0
70
32
0
VERTEX
8
0
62
5
10
0.47729723
20
1.2680281
30
0
70
32
0
VERTEX
8
0
62
5
10
0.44194189
20
1.2680281
30
0
70
32
0
SEQEND
8
0
0
POLYLINE
8
0
62
5
66
1
10
0
20
0
30
0
70
8
0
VERTEX
8
0
62
5
10
-0.28284256
20
1.2106256
30
0
70
32
0
VERTEX
8
0
62
5
10
-0.28284256
20
1.2871623
30
0
70
32
0
SEQEND
8
0
0
POLYLINE
8
0
62
5
66
1
10
0
20
0
30
0
70
8
0
VERTEX
8
0
62
5
10
-0.28284256
20
1.2106256
30
0
70
32
0
VERTEX
8
0
62
5
10
1.4961541e-07
20
1.2106256
30
0
70
32
0
SEQEND
8
0
0
POLYLINE
8
0
62
5
66
1
10
0
20
0
30
0
70
8
0
VERTEX
8
0
62
5
10
-0.28284256
20
1.2871623
30
0
70
32
0
VERTEX
8
0
62
5
10
1.4961541e-07
20
1.2871623
30
0
70
32
0
SEQEND
8
0
0
POLYLINE
8
0
62
5
66
1
10
0
20
0
30
0
70
8
0
VERTEX
8
0
62
5
10
-0.21213188
20
1.2106256
30
0
70
32
0
VERTEX
8
0
62
5
10
-0.21213188
20
1.2106256
30
0
70
32
0
SEQEND
8
0
0
POLYLINE
8
0
62
5
66
1
10
0
20
0
30
0
70
8
0
VERTEX
8
0
62
5
10
-0.14142121
20
1.2106256
30
0
70
32
0
VERTEX
8
0
62
5
10
-0.14142121
20
1.2106256
30
0
70
32
0
SEQEND
8
0
0
POLYLINE
8
0
62
5
66
1
10
0
20
0
30
0
70
8
0
VERTEX
8
0
62
5
10
-0.070710529
20
1.2106256
30
0
70
32
0
VERTEX
8
0
62
5
10
-0.070710529
20
1.2106256
30
0
70
32
0
SEQEND
8
0
0
POLYLINE
8
0
62
5
66
1
10
0
20
0
30
0
70
8
0
VERTEX
8
0
62
5
10
-0.21213188
20
1.2871623
30
0
70
32
0
VERTEX
8
0
62
5
10
-0.21213188
20
1.2871623
30
0
70
32
0
SEQEND
8
0
0
POLYLINE
8
0
62
5
66
1
10
0
20
0
30
0
70
8
0
VERTEX
8
0
62
5
10
-0.14142121
20
1.2871623
30
0
70
32
0
VERTEX
8
0
62
5
10
-0.14142121
20
1.2871623
30
0
70
32
0
SEQEND
8
0
0
POLYLINE
8
0
62
5
66
1
10
0
20
0
30
0
70
8
0
VERTEX
8
0
62
5
10
-0.070710529
20
1.2871623
30
0
70
32
0
VERTEX
8
0
62
5
10
-0.070710529
20
1.2871623
30
0
70
32
0
SEQEND
8
0
0
POLYLINE
8
0
62
30
66
1
10
0
20
0
30
0
70
8
0
VERTEX
8
0
62
30
10
-0.28284256
20
1.2871623
30
0
70
32
0
VERTEX
8
0
62
30
10
-0.21213188
20
1.2106256
30
0
70
32
0
SEQEND
8
0
0
POLYLINE
8
0
62
30
66
1
10
0
20
0
30
0
70
8
0
VERTEX
8
0
62
30
10
-0.21213188
20
1.2871623
30
0
70
32
0
VERTEX
8
0
62
30
10
-0.28284256
20
1.2106256
30
0
70
32
0
SEQEND
8
0
0
POLYLINE
8
0
62
30
66
1
10
0
20
0
30
0
70
8
0
VERTEX
8
0
62
30
10
-0.14142121
20
1.2871623
30
0
70
32
0
VERTEX
8
0
62
30
10
-0.070710529
20
1.2106256
30
0
70
32
0
SEQEND
8
0
0
POLYLINE
8
0
62
30
66
1
10
0
20
0
30
0
70
8
0
VERTEX
8
0
62
30
10
-0.070710529
20
1.2871623
30
0
70
32
0
VERTEX
8
0
62
30
10
-0.14142121
20
1.2106256
30
0
70
32
0
SEQEND
8
0
0
POLYLINE
8
0
62
30
66
1
10
0
20
0
30
0
70
8
0
VERTEX
8
0
62
30
10
-0.21213188
20
1.2488939
30
0
70
32
0
VERTEX
8
0
62
30
10
-0.14142121
20
1.2488939
30
0
70
32
0
SEQEND
8
0
0
POLYLINE
8
0
62
30
66
1
10
0
20
0
30
0
70
8
0
VERTEX
8
0
62
30
10
-0.070710529
20
1.2488939
30
0
70
32
0
VERTEX
8
0
62
30
10
1.4961541e-07
20
1.2488939
30
0
70
32
0
SEQEND
8
0
0
POLYLINE
8
0
62
5
66
1
10
0
20
0
30
0
70
8
0
VERTEX
8
0
62
5
10
-0.28284256
20
1.2488939
30
0
70
32
0
VERTEX
8
0
62
5
10
-0.24748722
20
1.2488939
30
0
70
32
0
SEQEND
8
0
0
POLYLINE
8
0
62
5
66
1
10
0
20
0
30
0
70
8
0
VERTEX
8
0
62
5
10
-0.14142121
20
1.2488939
30
0
70
32
0
VERTEX
8
0
62
5
10
-0.10606587
20
1.2488939
30
0
70
32
0
SEQEND
8
0
0
POLYLINE
8
0
62
5
66
1
10
0
20
0
30
0
70
8
0
VERTEX
8
0
62
5
10
-0.24748722
20
1.2488939
30
0
70
32
0
VERTEX
8
0
62
5
10
-0.21213188
20
1.2488939
30
0
70
32
0
SEQEND
8
0
0
POLYLINE
8
0
62
5
66
1
10
0
20
0
30
0
70
8
0
VERTEX
8
0
62
5
10
-0.10606587
20
1.2488939
30
0
70
32
0
VERTEX
8
0
62
5
10
-0.070710529
20
1.2488939
30
0
70
32
0
SEQEND
8
0
0
POLYLINE
8
0
62
5
66
1
10
0
20
0
30
0
70
8
0
VERTEX
8
0
62
5
10
-0.21213188
20
1.2106256
30
0
70
32
0
VERTEX
8
0
62
5
10
-0.21213188
20
1.2871623
30
0
70
32
0
SEQEND
8
0
0
POLYLINE
8
0
62
5
66
1
10
0
20
0
30
0
70
8
0
VERTEX
8
0
62
5
10
-0.14142121
20
1.2106256
30
0
70
32
0
VERTEX
8
0
62
5
10
-0.14142121
20
1.2871623
30
0
70
32
0
SEQEND
8
0
0
POLYLINE
8
0
62
5
66
1
10
0
20
0
30
0
70
8
0
VERTEX
8
0
62
5
10
-0.070710529
20
1.2106256
30
0
70
32
0
VERTEX
8
0
62
5
10
-0.070710529
20
1.2871623
30
0
70
32
0
SEQEND
8
0
0
POLYLINE
8
0
62
5
66
1
10
0
20
0
30
0
70
8
0
VERTEX
8
0
62
5
10
-0.28284256
20
1.2106256
30
0
70
32
0
VERTEX
8
0
62
5
10
-0.28284256
20
1.2871623
30
0
70
32
0
SEQEND
8
0
0
POLYLINE
8
0
62
5
66
1
10
0
20
0
30
0
70
8
0
VERTEX
8
0
62
5
10
-0.26516489
20
1.2680281
30
0
70
32
0
VERTEX
8
0
62
5
10
-0.26516489
20
1.2297598
30
0
70
32
0
VERTEX
8
0
62
5
10
-0.22980955
20
1.2297598
30
0
70
32
0
VERTEX
8
0
62
5
10
-0.22980955
20
1.2680281
30
0
70
32
0
VERTEX
8
0
62
5
10
-0.26516489
20
1.2680281
30
0
70
32
0
SEQEND
8
0
0
POLYLINE
8
0
62
5
66
1
10
0
20
0
30
0
70
8
0
VERTEX
8
0
62
5
10
-0.12374354
20
1.2680281
30
0
70
32
0
VERTEX
8
0
62
5
10
-0.12374354
20
1.2297598
30
0
70
32
0
VERTEX
8
0
62
5
10
-0.088388198
20
1.2297598
30
0
70
32
0
VERTEX
8
0
62
5
10
-0.088388198
20
1.2680281
30
0
70
32
0
VERTEX
8
0
62
5
10
-0.12374354
20
1.2680281
30
0
70
32
0
SEQEND
8
0
0
POLYLINE
8
0
62
5
66
1
10
0
20
0
30
0
70
8
0
VERTEX
8
0
62
5
10
1.4961541e-07
20
1.2871623
30
0
70
32
0
VERTEX
8
0
62
5
10
1.4961541e-07
20
1.311139
30
0
70
32
0
SEQEND
8
0
0
POLYLINE
8
0
62
5
66
1
10
0
20
0
30
0
70
8
0
VERTEX
8
0
62
5
10
0.070710828
20
1.2871623
30
0
70
32
0
VERTEX
8
0
62
5
10
0.070710828
20
1.311139
30
0
70
32
0
SEQEND
8
0
0
POLYLINE
8
0
62
5
66
1
10
0
20
0
30
0
70
8
0
VERTEX
8
0
62
5
10
0.14142151
20
1.2871623
30
0
70
32
0
VERTEX
8
0
62
5
10
0.14142151
20
1.311139
30
0
70
32
0
SEQEND
8
0
0
POLYLINE
8
0
62
5
66
1
10
0
20
0
30
0
70
8
0
VERTEX
8
0
62
5
10
0.21213218
20
1.2871623
30
0
70
32
0
VERTEX
8
0
62
5
10
0.21213218
20
1.311139
30
0
70
32
0
SEQEND
8
0
0
POLYLINE
8
0
62
5
66
1
10
0
20
0
30
0
70
8
0
VERTEX
8
0
62
5
10
0.28284286
20
1.2871623
30
0
70
32
0
VERTEX
8
0
62
5
10
0.28284286
20
1.311139
30
0
70
32
0
SEQEND
8
0
0
POLYLINE
8
0
62
5
66
1
10
0
20
0
30
0
70
8
0
VERTEX
8
0
62
5
10
0.070710828
20
1.2871623
30
0
70
32
0
VERTEX
8
0
62
5
10
0.070710828
20
1.2871623
30
0
70
32
0
SEQEND
8
0
0
POLYLINE
8
0
62
5
66
1
10
0
20
0
30
0
70
8
0
VERTEX
8
0
62
5
10
0.14142151
20
1.2871623
30
0
70
32
0
VERTEX
8
0
62
5
10
0.14142151
20
1.2871623
30
0
70
32
0
SEQEND
8
0
0
POLYLINE
8
0
62
5
66
1
10
0
20
0
30
0
70
8
0
VERTEX
8
0
62
5
10
0.21213218
20
1.2871623
30
0
70
32
0
VERTEX
8
0
62
5
10
0.21213218
20
1.2871623
30
0
70
32
0
SEQEND
8
0
0
POLYLINE
8
0
62
5
66
1
10
0
20
0
30
0
70
8
0
VERTEX
8
0
62
5
10
0.070710828
20
1.311139
30
0
70
32
0
VERTEX
8
0
62
5
10
0.070710828
20
1.311139
30
0
70
32
0
SEQEND
8
0
0
POLYLINE
8
0
62
5
66
1
10
0
20
0
30
0
70
8
0
VERTEX
8
0
62
5
10
0.14142151
20
1.311139
30
0
70
32
0
VERTEX
8
0
62
5
10
0.14142151
20
1.311139
30
0
70
32
0
SEQEND
8
0
0
POLYLINE
8
0
62
5
66
1
10
0
20
0
30
0
70
8
0
VERTEX
8
0
62
5
10
0.21213218
20
1.311139
30
0
70
32
0
VERTEX
8
0
62
5
10
0.21213218
20
1.311139
30
0
70
32
0
SEQEND
8
0
0
POLYLINE
8
0
62
5
66
1
10
0
20
0
30
0
70
8
0
VERTEX
8
0
62
5
10
0.28284286
20
1.311139
30
0
70
32
0
VERTEX
8
0
62
5
10
0.28284286
20
1.311139
30
0
70
32
0
SEQEND
8
0
0
POLYLINE
8
0
62
5
66
1
10
0
20
0
30
0
70
8
0
VERTEX
8
0
62
5
10
0.35355354
20
1.2871623
30
0
70
32
0
VERTEX
8
0
62
5
10
0.35355354
20
1.311139
30
0
70
32
0
SEQEND
8
0
0
POLYLINE
8
0
62
5
66
1
10
0
20
0
30
0
70
8
0
VERTEX
8
0
62
5
10
0.42426422
20
1.2871623
30
0
70
32
0
VERTEX
8
0
62
5
10
0.42426422
20
1.311139
30
0
70
32
0
SEQEND
8
0
0
POLYLINE
8
0
62
5
66
1
10
0
20
0
30
0
70
8
0
VERTEX
8
0
62
5
10
0.4949749
20
1.2871623
30
0
70
32
0
VERTEX
8
0
62
5
10
0.4949749
20
1.311139
30
0
70
32
0
SEQEND
8
0
0
POLYLINE
8
0
62
5
66
1
10
0
20
0
30
0
70
8
0
VERTEX
8
0
62
5
10
0.56568557
20
1.2871623
30
0
70
32
0
VERTEX
8
0
62
5
10
0.56568557
20
1.311139
30
0
70
32
0
SEQEND
8
0
0
POLYLINE
8
0
62
5
66
1
10
0
20
0
30
0
70
8
0
VERTEX
8
0
62
5
10
0.35355354
20
1.2871623
30
0
70
32
0
VERTEX
8
0
62
5
10
0.35355354
20
1.2871623
30
0
70
32
0
SEQEND
8
0
0
POLYLINE
8
0
62
5
66
1
10
0
20
0
30
0
70
8
0
VERTEX
8
0
62
5
10
0.42426422
20
1.2871623
30
0
70
32
0
VERTEX
8
0
62
5
10
0.42426422
20
1.2871623
30
0
70
32
0
SEQEND
8
0
0
POLYLINE
8
0
62
5
66
1
10
0
20
0
30
0
70
8
0
VERTEX
8
0
62
5
10
0.4949749
20
1.2871623
30
0
70
32
0
VERTEX
8
0
62
5
10
0.4949749
20
1.2871623
30
0
70
32
0
SEQEND
8
0
0
POLYLINE
8
0
62
5
66
1
10
0
20
0
30
0
70
8
0
VERTEX
8
0
62
5
10
0.35355354
20
1.311139
30
0
70
32
0
VERTEX
8
0
62
5
10
0.35355354
20
1.311139
30
0
70
32
0
SEQEND
8
0
0
POLYLINE
8
0
62
5
66
1
10
0
20
0
30
0
70
8
0
VERTEX
8
0
62
5
10
0.42426422
20
1.311139
30
0
70
32
0
VERTEX
8
0
62
5
10
0.42426422
20
1.311139
30
0
70
32
0
SEQEND
8
0
0
POLYLINE
8
0
62
5
66
1
10
0
20
0
30
0
70
8
0
VERTEX
8
0
62
5
10
0.4949749
20
1.311139
30
0
70
32
0
VERTEX
8
0
62
5
10
0.4949749
20
1.311139
30
0
70
32
0
SEQEND
8
0
0
POLYLINE
8
0
62
5
66
1
10
0
20
0
30
0
70
8
0
VERTEX
8
0
62
5
10
0.56568557
20
1.311139
30
0
70
32
0
VERTEX
8
0
62
5
10
0.56568557
20
1.311139
30
0
70
32
0
SEQEND
8
0
0
POLYLINE
8
0
62
5
66
1
10
0
20
0
30
0
70
8
0
VERTEX
8
0
62
5
10
-0.21213188
20
1.2871623
30
0
70
32
0
VERTEX
8
0
62
5
10
-0.21213188
20
1.311139
30
0
70
32
0
SEQEND
8
0
0
POLYLINE
8
0
62
5
66
1
10
0
20
0
30
0
70
8
0
VERTEX
8
0
62
5
10
-0.14142121
20
1.2871623
30
0
70
32
0
VERTEX
8
0
62
5
10
-0.14142121
20
1.311139
30
0
70
32
0
SEQEND
8
0
0
POLYLINE
8
0
62
5
66
1
10
0
20
0
30
0
70
8
0
VERTEX
8
0
62
5
10
-0.070710529
20
1.2871623
30
0
70
32
0
VERTEX
8
0
62
5
10
-0.070710529
20
1.311139
30
0
70
32
0
SEQEND
8
0
0
POLYLINE
8
0
62
5
66
1
10
0
20
0
30
0
70
8
0
VERTEX
8
0
62
5
10
1.4961541e-07
20
1.2871623
30
0
70
32
0
VERTEX
8
0
62
5
10
1.4961541e-07
20
1.311139
30
0
70
32
0
SEQEND
8
0
0
POLYLINE
8
0
62
5
66
1
10
0
20
0
30
0
70
8
0
VERTEX
8
0
62
5
10
-0.21213188
20
1.2871623
30
0
70
32
0
VERTEX
8
0
62
5
10
-0.21213188
20
1.2871623
30
0
70
32
0
SEQEND
8
0
0
POLYLINE
8
0
62
5
66
1
10
0
20
0
30
0
70
8
0
VERTEX
8
0
62
5
10
-0.14142121
20
1.2871623
30
0
70
32
0
VERTEX
8
0
62
5
10
-0.14142121
20
1.2871623
30
0
70
32
0
SEQEND
8
0
0
POLYLINE
8
0
62
5
66
1
10
0
20
0
30
0
70
8
0
VERTEX
8
0
62
5
10
-0.070710529
20
1.2871623
30
0
70
32
0
VERTEX
8
0
62
5
10
-0.070710529
20
1.2871623
30
0
70
32
0
SEQEND
8
0
0
POLYLINE
8
0
62
5
66
1
10
0
20
0
30
0
70
8
0
VERTEX
8
0
62
5
10
-0.21213188
20
1.311139
30
0
70
32
0
VERTEX
8
0
62
5
10
-0.21213188
20
1.311139
30
0
70
32
0
SEQEND
8
0
0
POLYLINE
8
0
62
5
66
1
10
0
20
0
30
0
70
8
0
VERTEX
8
0
62
5
10
-0.14142121
20
1.311139
30
0
70
32
0
VERTEX
8
0
62
5
10
-0.14142121
20
1.311139
30
0
70
32
0
SEQEND
8
0
0
POLYLINE
8
0
62
5
66
1
10
0
20
0
30
0
70
8
0
VERTEX
8
0
62
5
10
-0.070710529
20
1.311139
30
0
70
32
0
VERTEX
8
0
62
5
10
-0.070710529
20
1.311139
30
0
70
32
0
SEQEND
8
0
0
POLYLINE
8
0
62
5
66
1
10
0
20
0
30
0
70
8
0
VERTEX
8
0
62
5
10
1.4961541e-07
20
1.311139
30
0
70
32
0
VERTEX
8
0
62
5
10
1.4961541e-07
20
1.311139
30
0
70
32
0
SEQEND
8
0
0
POLYLINE
8
0
62
5
66
1
10
0
20
0
30
0
70
8
0
VERTEX
8
0
62
5
10
1.4961541e-07
20
1.311139
30
0
70
32
0
VERTEX
8
0
62
5
10
1.4961541e-07
20
1.4070458
30
0
70
32
0
SEQEND
8
0
0
POLYLINE
8
0
62
5
66
1
10
0
20
0
30
0
70
8
0
VERTEX
8
0
62
5
10
0.28284286
20
1.311139
30
0
70
32
0
VERTEX
8
0
62
5
10
0.28284286
20
1.4070458
30
0
70
32
0
SEQEND
8
0
0
POLYLINE
8
0
62
5
66
1
10
0
20
0
30
0
70
8
0
VERTEX
8
0
62
5
10
0.070710828
20
1.311139
30
0
70
32
0
VERTEX
8
0
62
5
10
0.070710828
20
1.4070458
30
0
70
32
0
SEQEND
8
0
0
POLYLINE
8
0
62
5
66
1
10
0
20
0
30
0
70
8
0
VERTEX
8
0
62
5
10
0.14142151
20
1.311139
30
0
70
32
0
VERTEX
8
0
62
5
10
0.14142151
20
1.4070458
30
0
70
32
0
SEQEND
8
0
0
POLYLINE
8
0
62
5
66
1
10
0
20
0
30
0
70
8
0
VERTEX
8
0
62
5
10
0.21213218
20
1.311139
30
0
70
32
0
VERTEX
8
0
62
5
10
0.21213218
20
1.4070458
30
0
70
32
0
SEQEND
8
0
0
POLYLINE
8
0
62
5
66
1
10
0
20
0
30
0
70
8
0
VERTEX
8
0
62
5
10
0.56568557
20
1.311139
30
0
70
32
0
VERTEX
8
0
62
5
10
0.56568557
20
1.4070458
30
0
70
32
0
SEQEND
8
0
0
POLYLINE
8
0
62
5
66
1
10
0
20
0
30
0
70
8
0
VERTEX
8
0
62
5
10
0.35355354
20
1.311139
30
0
70
32
0
VERTEX
8
0
62
5
10
0.35355354
20
1.4070458
30
0
70
32
0
SEQEND
8
0
0
POLYLINE
8
0
62
5
66
1
10
0
20
0
30
0
70
8
0
VERTEX
8
0
62
5
10
0.42426422
20
1.311139
30
0
70
32
0
VERTEX
8
0
62
5
10
0.42426422
20
1.4070458
30
0
70
32
0
SEQEND
8
0
0
POLYLINE
8
0
62
5
66
1
10
0
20
0
30
0
70
8
0
VERTEX
8
0
62
5
10
0.4949749
20
1.311139
30
0
70
32
0
VERTEX
8
0
62
5
10
0.4949749
20
1.4070458
30
0
70
32
0
SEQEND
8
0
0
POLYLINE
8
0
62
5
66
1
10
0
20
0
30
0
70
8
0
VERTEX
8
0
62
5
10
-0.28284256
20
1.311139
30
0
70
32
0
VERTEX
8
0
62
5
10
-0.28284256
20
1.4070458
30
0
70
32
0
SEQEND
8
0
0
POLYLINE
8
0
62
5
66
1
10
0
20
0
30
0
70
8
0
VERTEX
8
0
62
5
10
-0.21213188
20
1.311139
30
0
70
32
0
VERTEX
8
0
62
5
10
-0.21213188
20
1.4070458
30
0
70
32
0
SEQEND
8
0
0
POLYLINE
8
0
62
5
66
1
10
0
20
0
30
0
70
8
0
VERTEX
8
0
62
5
10
-0.14142121
20
1.311139
30
0
70
32
0
VERTEX
8
0
62
5
10
-0.14142121
20
1.4070458
30
0
70
32
0
SEQEND
8
0
0
POLYLINE
8
0
62
5
66
1
10
0
20
0
30
0
70
8
0
VERTEX
8
0
62
5
10
-0.070710529
20
1.311139
30
0
70
32
0
VERTEX
8
0
62
5
10
-0.070710529
20
1.4070458
30
0
70
32
0
SEQEND
8
0
0
POLYLINE
8
0
62
5
66
1
10
0
20
0
30
0
70
8
0
VERTEX
8
0
62
5
10
1.4961541e-07
20
1.4070458
30
0
70
32
0
VERTEX
8
0
62
5
10
1.4961541e-07
20
1.4835825
30
0
70
32
0
SEQEND
8
0
0
POLYLINE
8
0
62
5
66
1
10
0
20
0
30
0
70
8
0
VERTEX
8
0
62
5
10
0.28284286
20
1.4835825
30
0
70
32
0
VERTEX
8
0
62
5
10
0.28284286
20
1.4070458
30
0
70
32
0
SEQEND
8
0
0
POLYLINE
8
0
62
5
66
1
10
0
20
0
30
0
70
8
0
VERTEX
8
0
62
5
10
1.4961541e-07
20
1.4070458
30
0
70
32
0
VERTEX
8
0
62
5
10
0.28284286
20
1.4070458
30
0
70
32
0
SEQEND
8
0
0
POLYLINE
8
0
62
5
66
1
10
0
20
0
30
0
70
8
0
VERTEX
8
0
62
5
10
1.4961541e-07
20
1.4835825
30
0
70
32
0
VERTEX
8
0
62
5
10
0.28284286
20
1.4835825
30
0
70
32
0
SEQEND
8
0
0
POLYLINE
8
0
62
5
66
1
10
0
20
0
30
0
70
8
0
VERTEX
8
0
62
5
10
0.070710828
20
1.4070458
30
0
70
32
0
VERTEX
8
0
62
5
10
0.070710828
20
1.4070458
30
0
70
32
0
SEQEND
8
0
0
POLYLINE
8
0
62
5
66
1
10
0
20
0
30
0
70
8
0
VERTEX
8
0
62
5
10
0.14142151
20
1.4070458
30
0
70
32
0
VERTEX
8
0
62
5
10
0.14142151
20
1.4070458
30
0
70
32
0
SEQEND
8
0
0
POLYLINE
8
0
62
5
66
1
10
0
20
0
30
0
70
8
0
VERTEX
8
0
62
5
10
0.21213218
20
1.4070458
30
0
70
32
0
VERTEX
8
0
62
5
10
0.21213218
20
1.4070458
30
0
70
32
0
SEQEND
8
0
0
POLYLINE
8
0
62
5
66
1
10
0
20
0
30
0
70
8
0
VERTEX
8
0
62
5
10
0.070710828
20
1.4835825
30
0
70
32
0
VERTEX
8
0
62
5
10
0.070710828
20
1.4835825
30
0
70
32
0
SEQEND
8
0
0
POLYLINE
8
0
62
5
66
1
10
0
20
0
30
0
70
8
0
VERTEX
8
0
62
5
10
0.14142151
20
1.4835825
30
0
70
32
0
VERTEX
8
0
62
5
10
0.14142151
20
1.4835825
30
0
70
32
0
SEQEND
8
0
0
POLYLINE
8
0
62
5
66
1
10
0
20
0
30
0
70
8
0
VERTEX
8
0
62
5
10
0.21213218
20
1.4835825
30
0
70
32
0
VERTEX
8
0
62
5
10
0.21213218
20
1.4835825
30
0
70
32
0
SEQEND
8
0
0
POLYLINE
8
0
62
30
66
1
10
0
20
0
30
0
70
8
0
VERTEX
8
0
62
30
10
1.4961541e-07
20
1.4070458
30
0
70
32
0
VERTEX
8
0
62
30
10
0.035355489
20
1.4453142
30
0
70
32
0
SEQEND
8
0
0
POLYLINE
8
0
62
30
66
1
10
0
20
0
30
0
70
8
0
VERTEX
8
0
62
30
10
0.035355489
20
1.4453142
30
0
70
32
0
VERTEX
8
0
62
30
10
0.070710828
20
1.4070458
30
0
70
32
0
SEQEND
8
0
0
POLYLINE
8
0
62
30
66
1
10
0
20
0
30
0
70
8
0
VERTEX
8
0
62
30
10
0.14142151
20
1.4070458
30
0
70
32
0
VERTEX
8
0
62
30
10
0.17677684
20
1.4453142
30
0
70
32
0
SEQEND
8
0
0
POLYLINE
8
0
62
30
66
1
10
0
20
0
30
0
70
8
0
VERTEX
8
0
62
30
10
0.17677684
20
1.4453142
30
0
70
32
0
VERTEX
8
0
62
30
10
0.21213218
20
1.4070458
30
0
70
32
0
SEQEND
8
0
0
POLYLINE
8
0
62
30
66
1
10
0
20
0
30
0
70
8
0
VERTEX
8
0
62
30
10
0.070710828
20
1.4453142
30
0
70
32
0
VERTEX
8
0
62
30
10
0.14142151
20
1.4453142
30
0
70
32
0
SEQEND
8
0
0
POLYLINE
8
0
62
30
66
1
10
0
20
0
30
0
70
8
0
VERTEX
8
0
62
30
10
0.21213218
20
1.4453142
30
0
70
32
0
VERTEX
8
0
62
30
10
0.28284286
20
1.4453142
30
0
70
32
0
SEQEND
8
0
0
POLYLINE
8
0
62
5
66
1
10
0
20
0
30
0
70
8
0
VERTEX
8
0
62
5
10
1.4961541e-07
20
1.4453142
30
0
70
32
0
VERTEX
8
0
62
5
10
0.035355489
20
1.4453142
30
0
70
32
0
SEQEND
8
0
0
POLYLINE
8
0
62
5
66
1
10
0
20
0
30
0
70
8
0
VERTEX
8
0
62
5
10
0.14142151
20
1.4453142
30
0
70
32
0
VERTEX
8
0
62
5
10
0.17677684
20
1.4453142
30
0
70
32
0
SEQEND
8
0
0
POLYLINE
8
0
62
5
66
1
10
0
20
0
30
0
70
8
0
VERTEX
8
0
62
5
10
0.035355489
20
1.4453142
30
0
70
32
0
VERTEX
8
0
62
5
10
0.070710828
20
1.4453142
30
0
70
32
0
SEQEND
8
0
0
POLYLINE
8
0
62
5
66
1
10
0
20
0
30
0
70
8
0
VERTEX
8
0
62
5
10
0.17677684
20
1.4453142
30
0
70
32
0
VERTEX
8
0
62
5
10
0.21213218
20
1.4453142
30
0
70
32
0
SEQEND
8
0
0
POLYLINE
8
0
62
5
66
1
10
0
20
0
30
0
70
8
0
VERTEX
8
0
62
5
10
0.070710828
20
1.4070458
30
0
70
32
0
VERTEX
8
0
62
5
10
0.070710828
20
1.4835825
30
0
70
32
0
SEQEND
8
0
0
POLYLINE
8
0
62
5
66
1
10
0
20
0
30
0
70
8
0
VERTEX
8
0
62
5
10
0.14142151
20
1.4070458
30
0
70
32
0
VERTEX
8
0
62
5
10
0.14142151
20
1.4835825
30
0
70
32
0
SEQEND
8
0
0
POLYLINE
8
0
62
5
66
1
10
0
20
0
30
0
70
8
0
VERTEX
8
0
62
5
10
0.21213218
20
1.4070458
30
0
70
32
0
VERTEX
8
0
62
5
10
0.21213218
20
1.4835825
30
0
70
32
0
SEQEND
8
0
0
POLYLINE
8
0
62
5
66
1
10
0
20
0
30
0
70
8
0
VERTEX
8
0
62
5
10
1.4961541e-07
20
1.4070458
30
0
70
32
0
VERTEX
8
0
62
5
10
1.4961541e-07
20
1.4835825
30
0
70
32
0
SEQEND
8
0
0
POLYLINE
8
0
62
5
66
1
10
0
20
0
30
0
70
8
0
VERTEX
8
0
62
5
10
0.56568557
20
1.4835825
30
0
70
32
0
VERTEX
8
0
62
5
10
0.56568557
20
1.4070458
30
0
70
32
0
SEQEND
8
0
0
POLYLINE
8
0
62
5
66
1
10
0
20
0
30
0
70
8
0
VERTEX
8
0
62
5
10
0.28284286
20
1.4070458
30
0
70
32
0
VERTEX
8
0
62
5
10
0.56568557
20
1.4070458
30
0
70
32
0
SEQEND
8
0
0
POLYLINE
8
0
62
5
66
1
10
0
20
0
30
0
70
8
0
VERTEX
8
0
62
5
10
0.28284286
20
1.4835825
30
0
70
32
0
VERTEX
8
0
62
5
10
0.56568557
20
1.4835825
30
0
70
32
0
SEQEND
8
0
0
POLYLINE
8
0
62
5
66
1
10
0
20
0
30
0
70
8
0
VERTEX
8
0
62
5
10
0.35355354
20
1.4070458
30
0
70
32
0
VERTEX
8
0
62
5
10
0.35355354
20
1.4070458
30
0
70
32
0
SEQEND
8
0
0
POLYLINE
8
0
62
5
66
1
10
0
20
0
30
0
70
8
0
VERTEX
8
0
62
5
10
0.42426422
20
1.4070458
30
0
70
32
0
VERTEX
8
0
62
5
10
0.42426422
20
1.4070458
30
0
70
32
0
SEQEND
8
0
0
POLYLINE
8
0
62
5
66
1
10
0
20
0
30
0
70
8
0
VERTEX
8
0
62
5
10
0.4949749
20
1.4070458
30
0
70
32
0
VERTEX
8
0
62
5
10
0.4949749
20
1.4070458
30
0
70
32
0
SEQEND
8
0
0
POLYLINE
8
0
62
5
66
1
10
0
20
0
30
0
70
8
0
VERTEX
8
0
62
5
10
0.35355354
20
1.4835825
30
0
70
32
0
VERTEX
8
0
62
5
10
0.35355354
20
1.4835825
30
0
70
32
0
SEQEND
8
0
0
POLYLINE
8
0
62
5
66
1
10
0
20
0
30
0
70
8
0
VERTEX
8
0
62
5
10
0.42426422
20
1.4835825
30
0
70
32
0
VERTEX
8
0
62
5
10
0.42426422
20
1.4835825
30
0
70
32
0
SEQEND
8
0
0
POLYLINE
8
0
62
5
66
1
10
0
20
0
30
0
70
8
0
VERTEX
8
0
62
5
10
0.4949749
20
1.4835825
30
0
70
32
0
VERTEX
8
0
62
5
10
0.4949749
20
1.4835825
30
0
70
32
0
SEQEND
8
0
0
POLYLINE
8
0
62
30
66
1
10
0
20
0
30
0
70
8
0
VERTEX
8
0
62
30
10
0.28284286
20
1.4070458
30
0
70
32
0
VERTEX
8
0
62
30
10
0.3181982
20
1.4453142
30
0
70
32
0
SEQEND
8
0
0
POLYLINE
8
0
62
30
66
1
10
0
20
0
30
0
70
8
0
VERTEX
8
0
62
30
10
0.3181982
20
1.4453142
30
0
70
32
0
VERTEX
8
0
62
30
10
0.35355354
20
1.4070458
30
0
70
32
0
SEQEND
8
0
0
POLYLINE
8
0
62
30
66
1
10
0
20
0
30
0
70
8
0
VERTEX
8
0
62
30
10
0.42426422
20
1.4070458
30
0
70
32
0
VERTEX
8
0
62
30
10
0.45961956
20
1.4453142
30
0
70
32
0
SEQEND
8
0
0
POLYLINE
8
0
62
30
66
1
10
0
20
0
30
0
70
8
0
VERTEX
8
0
62
30
10
0.45961956
20
1.4453142
30
0
70
32
0
VERTEX
8
0
62
30
10
0.4949749
20
1.4070458
30
0
70
32
0
SEQEND
8
0
0
POLYLINE
8
0
62
30
66
1
10
0
20
0
30
0
70
8
0
VERTEX
8
0
62
30
10
0.35355354
20
1.4453142
30
0
70
32
0
VERTEX
8
0
62
30
10
0.42426422
20
1.4453142
30
0
70
32
0
SEQEND
8
0
0
POLYLINE
8
0
62
30
66
1
10
0
20
0
30
0
70
8
0
VERTEX
8
0
62
30
10
0.4949749
20
1.4453142
30
0
70
32
0
VERTEX
8
0
62
30
10
0.56568557
20
1.4453142
30
0
70
32
0
SEQEND
8
0
0
POLYLINE
8
0
62
5
66
1
10
0
20
0
30
0
70
8
0
VERTEX
8
0
62
5
10
0.28284286
20
1.4453142
30
0
70
32
0
VERTEX
8
0
62
5
10
0.3181982
20
1.4453142
30
0
70
32
0
SEQEND
8
0
0
POLYLINE
8
0
62
5
66
1
10
0
20
0
30
0
70
8
0
VERTEX
8
0
62
5
10
0.42426422
20
1.4453142
30
0
70
32
0
VERTEX
8
0
62
5
10
0.45961956
20
1.4453142
30
0
70
32
0
SEQEND
8
0
0
POLYLINE
8
0
62
5
66
1
10
0
20
0
30
0
70
8
0
VERTEX
8
0
62
5
10
0.3181982
20
1.4453142
30
0
70
32
0
VERTEX
8
0
62
5
10
0.35355354
20
1.4453142
30
0
70
32
0
SEQEND
8
0
0
POLYLINE
8
0
62
5
66
1
10
0
20
0
30
0
70
8
0
VERTEX
8
0
62
5
10
0.45961956
20
1.4453142
30
0
70
32
0
VERTEX
8
0
62
5
10
0.4949749
20
1.4453142
30
0
70
32
0
SEQEND
8
0
0
POLYLINE
8
0
62
5
66
1
10
0
20
0
30
0
70
8
0
VERTEX
8
0
62
5
10
0.35355354
20
1.4070458
30
0
70
32
0
VERTEX
8
0
62
5
10
0.35355354
20
1.4835825
30
0
70
32
0
SEQEND
8
0
0
POLYLINE
8
0
62
5
66
1
10
0
20
0
30
0
70
8
0
VERTEX
8
0
62
5
10
0.42426422
20
1.4070458
30
0
70
32
0
VERTEX
8
0
62
5
10
0.42426422
20
1.4835825
30
0
70
32
0
SEQEND
8
0
0
POLYLINE
8
0
62
5
66
1
10
0
20
0
30
0
70
8
0
VERTEX
8
0
62
5
10
0.4949749
20
1.4070458
30
0
70
32
0
VERTEX
8
0
62
5
10
0.4949749
20
1.4835825
30
0
70
32
0
SEQEND
8
0
0
POLYLINE
8
0
62
5
66
1
10
0
20
0
30
0
70
8
0
VERTEX
8
0
62
5
10
0.28284286
20
1.4070458
30
0
70
32
0
VERTEX
8
0
62
5
10
0.28284286
20
1.4835825
30
0
70
32
0
SEQEND
8
0
0
POLYLINE
8
0
62
5
66
1
10
0
20
0
30
0
70
8
0
VERTEX
8
0
62
5
10
-0.28284256
20
1.4070458
30
0
70
32
0
VERTEX
8
0
62
5
10
-0.28284256
20
1.4835825
30
0
70
32
0
SEQEND
8
0
0
POLYLINE
8
0
62
5
66
1
10
0
20
0
30
0
70
8
0
VERTEX
8
0
62
5
10
-0.28284256
20
1.4070458
30
0
70
32
0
VERTEX
8
0
62
5
10
1.4961541e-07
20
1.4070458
30
0
70
32
0
SEQEND
8
0
0
POLYLINE
8
0
62
5
66
1
10
0
20
0
30
0
70
8
0
VERTEX
8
0
62
5
10
-0.28284256
20
1.4835825
30
0
70
32
0
VERTEX
8
0
62
5
10
1.4961541e-07
20
1.4835825
30
0
70
32
0
SEQEND
8
0
0
POLYLINE
8
0
62
5
66
1
10
0
20
0
30
0
70
8
0
VERTEX
8
0
62
5
10
-0.21213188
20
1.4070458
30
0
70
32
0
VERTEX
8
0
62
5
10
-0.21213188
20
1.4070458
30
0
70
32
0
SEQEND
8
0
0
POLYLINE
8
0
62
5
66
1
10
0
20
0
30
0
70
8
0
VERTEX
8
0
62
5
10
-0.14142121
20
1.4070458
30
0
70
32
0
VERTEX
8
0
62
5
10
-0.14142121
20
1.4070458
30
0
70
32
0
SEQEND
8
0
0
POLYLINE
8
0
62
5
66
1
10
0
20
0
30
0
70
8
0
VERTEX
8
0
62
5
10
-0.070710529
20
1.4070458
30
0
70
32
0
VERTEX
8
0
62
5
10
-0.070710529
20
1.4070458
30
0
70
32
0
SEQEND
8
0
0
POLYLINE
8
0
62
5
66
1
10
0
20
0
30
0
70
8
0
VERTEX
8
0
62
5
10
-0.21213188
20
1.4835825
30
0
70
32
0
VERTEX
8
0
62
5
10
-0.21213188
20
1.4835825
30
0
70
32
0
SEQEND
8
0
0
POLYLINE
8
0
62
5
66
1
10
0
20
0
30
0
70
8
0
VERTEX
8
0
62
5
10
-0.14142121
20
1.4835825
30
0
70
32
0
VERTEX
8
0
62
5
10
-0.14142121
20
1.4835825
30
0
70
32
0
SEQEND
8
0
0
POLYLINE
8
0
62
5
66
1
10
0
20
0
30
0
70
8
0
VERTEX
8
0
62
5
10
-0.070710529
20
1.4835825
30
0
70
32
0
VERTEX
8
0
62
5
10
-0.070710529
20
1.4835825
30
0
70
32
0
SEQEND
8
0
0
POLYLINE
8
0
62
30
66
1
10
0
20
0
30
0
70
8
0
VERTEX
8
0
62
30
10
-0.28284256
20
1.4070458
30
0
70
32
0
VERTEX
8
0
62
30
10
-0.24748722
20
1.4453142
30
0
70
32
0
SEQEND
8
0
0
POLYLINE
8
0
62
30
66
1
10
0
20
0
30
0
70
8
0
VERTEX
8
0
62
30
10
-0.24748722
20
1.4453142
30
0
70
32
0
VERTEX
8
0
62
30
10
-0.21213188
20
1.4070458
30
0
70
32
0
SEQEND
8
0
0
POLYLINE
8
0
62
30
66
1
10
0
20
0
30
0
70
8
0
VERTEX
8
0
62
30
10
-0.14142121
20
1.4070458
30
0
70
32
0
VERTEX
8
0
62
30
10
-0.10606587
20
1.4453142
30
0
70
32
0
SEQEND
8
0
0
POLYLINE
8
0
62
30
66
1
10
0
20
0
30
0
70
8
0
VERTEX
8
0
62
30
10
-0.10606587
20
1.4453142
30
0
70
32
0
VERTEX
8
0
62
30
10
-0.070710529
20
1.4070458
30
0
70
32
0
SEQEND
8
0
0
POLYLINE
8
0
62
30
66
1
10
0
20
0
30
0
70
8
0
VERTEX
8
0
62
30
10
-0.21213188
20
1.4453142
30
0
70
32
0
VERTEX
8
0
62
30
10
-0.14142121
20
1.4453142
30
0
70
32
0
SEQEND
8
0
0
POLYLINE
8
0
62
30
66
1
10
0
20
0
30
0
70
8
0
VERTEX
8
0
62
30
10
-0.070710529
20
1.4453142
30
0
70
32
0
VERTEX
8
0
62
30
10
1.4961541e-07
20
1.4453142
30
0
70
32
0
SEQEND
8
0
0
POLYLINE
8
0
62
5
66
1
10
0
20
0
30
0
70
8
0
VERTEX
8
0
62
5
10
-0.28284256
20
1.4453142
30
0
70
32
0
VERTEX
8
0
62
5
10
-0.24748722
20
1.4453142
30
0
70
32
0
SEQEND
8
0
0
POLYLINE
8
0
62
5
66
1
10
0
20
0
30
0
70
8
0
VERTEX
8
0
62
5
10
-0.14142121
20
1.4453142
30
0
70
32
0
VERTEX
8
0
62
5
10
-0.10606587
20
1.4453142
30
0
70
32
0
SEQEND
8
0
0
POLYLINE
8
0
62
5
66
1
10
0
20
0
30
0
70
8
0
VERTEX
8
0
62
5
10
-0.24748722
20
1.4453142
30
0
70
32
0
VERTEX
8
0
62
5
10
-0.21213188
20
1.4453142
30
0
70
32
0
SEQEND
8
0
0
POLYLINE
8
0
62
5
66
1
10
0
20
0
30
0
70
8
0
VERTEX
8
0
62
5
10
-0.10606587
20
1.4453142
30
0
70
32
0
VERTEX
8
0
62
5
10
-0.070710529
20
1.4453142
30
0
70
32
0
SEQEND
8
0
0
POLYLINE
8
0
62
5
66
1
10
0
20
0
30
0
70
8
0
VERTEX
8
0
62
5
10
-0.21213188
20
1.4070458
30
0
70
32
0
VERTEX
8
0
62
5
10
-0.21213188
20
1.4835825
30
0
70
32
0
SEQEND
8
0
0
POLYLINE
8
0
62
5
66
1
10
0
20
0
30
0
70
8
0
VERTEX
8
0
62
5
10
-0.14142121
20
1.4070458
30
0
70
32
0
VERTEX
8
0
62
5
10
-0.14142121
20
1.4835825
30
0
70
32
0
SEQEND
8
0
0
POLYLINE
8
0
62
5
66
1
10
0
20
0
30
0
70
8
0
VERTEX
8
0
62
5
10
-0.070710529
20
1.4070458
30
0
70
32
0
VERTEX
8
0
62
5
10
-0.070710529
20
1.4835825
30
0
70
32
0
SEQEND
8
0
0
POLYLINE
8
0
62
5
66
1
10
0
20
0
30
0
70
8
0
VERTEX
8
0
62
5
10
-0.28284256
20
1.4070458
30
0
70
32
0
VERTEX
8
0
62
5
10
-0.28284256
20
1.4835825
30
0
70
32
0
SEQEND
8
0
0
POLYLINE
8
0
62
18
66
1
10
0
20
0
30
0
70
8
0
VERTEX
8
0
62
18
10
0
20
0
30
0
70
32
0
VERTEX
8
0
62
18
10
0.35355339
20
0
30
0
70
32
0
VERTEX
8
0
62
18
10
0.35355339
20
0.22357088
30
0
70
32
0
VERTEX
8
0
62
18
10
0
20
0.22357088
30
0
70
32
0
VERTEX
8
0
62
18
10
0
20
0
30
0
70
32
0
SEQEND
8
0
0
POLYLINE
8
0
62
5
66
1
10
0
20
0
30
0
70
8
0
VERTEX
8
0
62
5
10
0
20
0.22357088
30
0
70
32
0
VERTEX
8
0
62
5
10
0.35355339
20
0.22357088
30
0
70
32
0
SEQEND
8
0
0
POLYLINE
8
0
62
18
66
1
10
0
20
0
30
0
70
8
0
VERTEX
8
0
62
18
10
0
20
0.20357088
30
0
70
32
0
VERTEX
8
0
62
18
10
0.35355339
20
0.20357088
30
0
70
32
0
VERTEX
8
0
62
18
10
0.35355339
20
0.62876776
30
0
70
32
0
VERTEX
8
0
62
18
10
0
20
0.62876776
30
0
70
32
0
VERTEX
8
0
62
18
10
0
20
0.20357088
30
0
70
32
0
SEQEND
8
0
0
POLYLINE
8
0
62
5
66
1
10
0
20
0
30
0
70
8
0
VERTEX
8
0
62
5
10
0
20
0.62876776
30
0
70
32
0
VERTEX
8
0
62
5
10
0.35355339
20
0.62876776
30
0
70
32
0
SEQEND
8
0
0
POLYLINE
8
0
62
18
66
1
10
0
20
0
30
0
70
8
0
VERTEX
8
0
62
18
10
0
20
0.60876776
30
0
70
32
0
VERTEX
8
0
62
18
10
0.35355339
20
0.60876776
30
0
70
32
0
VERTEX
8
0
62
18
10
0.35355339
20
0.86213792
30
0
70
32
0
VERTEX
8
0
62
18
10
0
20
0.86213792
30
0
70
32
0
VERTEX
8
0
62
18
10
0
20
0.60876776
30
0
70
32
0
SEQEND
8
0
0
POLYLINE
8
0
62
5
66
1
10
0
20
0
30
0
70
8
0
VERTEX
8
0
62
5
10
0
20
0.86213792
30
0
70
32
0
VERTEX
8
0
62
5
10
0.35355339
20
0.86213792
30
0
70
32
0
SEQEND
8
0
0
POLYLINE
8
0
62
18
66
1
10
0
20
0
30
0
70
8
0
VERTEX
8
0
62
18
10
0
20
0.84213792
30
0
70
32
0
VERTEX
8
0
62
18
10
0.35355339
20
0.84213792
30
0
70
32
0
VERTEX
8
0
62
18
10
0.35355339
20
1.1964835
30
0
70
32
0
VERTEX
8
0
62
18
10
0
20
1.1964835
30
0
70
32
0
VERTEX
8
0
62
18
10
0
20
0.84213792
30
0
70
32
0
SEQEND
8
0
0
POLYLINE
8
0
62
5
66
1
10
0
20
0
30
0
70
8
0
VERTEX
8
0
62
5
10
0
20
1.1964835
30
0
70
32
0
VERTEX
8
0
62
5
10
0.35355339
20
1.1964835
30
0
70
32
0
SEQEND
8
0
0
POLYLINE
8
0
62
18
66
1
10
0
20
0
30
0
70
8
0
VERTEX
8
0
62
18
10
0
20
1.1764835
30
0
70
32
0
VERTEX
8
0
62
18
10
0.35355339
20
1.1764835
30
0
70
32
0
VERTEX
8
0
62
18
10
0.35355339
20
1.3590924
30
0
70
32
0
VERTEX
8
0
62
18
10
0
20
1.3590924
30
0
70
32
0
VERTEX
8
0
62
18
10
0
20
1.1764835
30
0
70
32
0
SEQEND
8
0
0
POLYLINE
8
0
62
5
66
1
10
0
20
0
30
0
70
8
0
VERTEX
8
0
62
5
10
0
20
1.3590924
30
0
70
32
0
VERTEX
8
0
62
5
10
0.35355339
20
1.3590924
30
0
70
32
0
SEQEND
8
0
0
POLYLINE
8
0
62
18
66
1
10
0
20
0
30
0
70
8
0
VERTEX
8
0
62
18
10
0
20
1.3390924
30
0
70
32
0
VERTEX
8
0
62
18
10
0.35355339
20
1.3390924
30
0
70
32
0
VERTEX
8
0
62
18
10
0.35355339
20
1.4835825
30
0
70
32
0
VERTEX
8
0
62
18
10
0
20
1.4835825
30
0
70
32
0
VERTEX
8
0
62
18
10
0
20
1.3390924
30
0
70
32
0
SEQEND
8
0
0
POLYLINE
8
0
62
18
66
1
10
0
20
0
30
0
70
8
0
VERTEX
8
0
62
18
10
0.35355339
20
0
30
0
70
32
0
VERTEX
8
0
62
18
10
0
20
0
30
0
70
32
0
VERTEX
8
0
62
18
10
0
20
1.4835825
30
0
70
32
0
VERTEX
8
0
62
18
10
0.35355339
20
1.4835825
30
0
70
32
0
VERTEX
8
0
62
18
10
0.35355339
20
0
30
0
70
32
0
SEQEND
8
0
0
ENDSEC
0
EOF
