0
SECTION
2
HEADER
9
$ACADVER
1
AC1006
9
$INSUNITS
70
6
0
ENDSEC
0
SECTION
2
ENTITIES
0
POLYLINE
8
0
62
5
66
1
10
0
20
0
30
0
70
8
0
VERTEX
8
0
62
5
10
0
20
0
30
0
70
32
0
VERTEX
8
0
62
5
10
0
20
0.1
30
0
70
32
0
SEQEND
8
0
0
POLYLINE
8
0
62
5
66
1
10
0
20
0
30
0
70
8
0
VERTEX
8
0
62
5
10
0.11313708
20
0
30
0
70
32
0
VERTEX
8
0
62
5
10
0.11313708
20
0.1
30
0
70
32
0
SEQEND
8
0
0
POLYLINE
8
0
62
5
66
1
10
0
20
0
30
0
70
8
0
VERTEX
8
0
62
5
10
0.028284271
20
0
30
0
70
32
0
VERTEX
8
0
62
5
10
0.028284271
20
0.1
30
0
70
32
0
SEQEND
8
0
0
POLYLINE
8
0
62
5
66
1
10
0
20
0
30
0
70
8
0
VERTEX
8
0
62
5
10
0.056568542
20
0
30
0
70
32
0
VERTEX
8
0
62
5
10
0.056568542
20
0.1
30
0
70
32
0
SEQEND
8
0
0
POLYLINE
8
0
62
5
66
1
10
0
20
0
30
0
70
8
0
VERTEX
8
0
62
5
10
0.084852814
20
0
30
0
70
32
0
VERTEX
8
0
62
5
10
0.084852814
20
0.1
30
0
70
32
0
SEQEND
8
0
0
POLYLINE
8
0
62
5
66
1
10
0
20
0
30
0
70
8
0
VERTEX
8
0
62
5
10
0.22627417
20
0
30
0
70
32
0
VERTEX
8
0
62
5
10
0.22627417
20
0.1
30
0
70
32
0
SEQEND
8
0
0
POLYLINE
8
0
62
5
66
1
10
0
20
0
30
0
70
8
0
VERTEX
8
0
62
5
10
0.14142136
20
0
30
0
70
32
0
VERTEX
8
0
62
5
10
0.14142136
20
0.1
30
0
70
32
0
SEQEND
8
0
0
POLYLINE
8
0
62
5
66
1
10
0
20
0
30
0
70
8
0
VERTEX
8
0
62
5
10
0.16970563
20
0
30
0
70
32
0
VERTEX
8
0
62
5
10
0.16970563
20
0.1
30
0
70
32
0
SEQEND
8
0
0
POLYLINE
8
0
62
5
66
1
10
0
20
0
30
0
70
8
0
VERTEX
8
0
62
5
10
0.1979899
20
0
30
0
70
32
0
VERTEX
8
0
62
5
10
0.1979899
20
0.1
30
0
70
32
0
SEQEND
8
0
0
POLYLINE
8
0
62
5
66
1
10
0
20
0
30
0
70
8
0
VERTEX
8
0
62
5
10
-0.11313708
20
0
30
0
70
32
0
VERTEX
8
0
62
5
10
-0.11313708
20
0.1
30
0
70
32
0
SEQEND
8
0
0
POLYLINE
8
0
62
5
66
1
10
0
20
0
30
0
70
8
0
VERTEX
8
0
62
5
10
-0.084852814
20
0
30
0
70
32
0
VERTEX
8
0
62
5
10
-0.084852814
20
0.1
30
0
70
32
0
SEQEND
8
0
0
POLYLINE
8
0
62
5
66
1
10
0
20
0
30
0
70
8
0
VERTEX
8
0
62
5
10
-0.056568542
20
0
30
0
70
32
0
VERTEX
8
0
62
5
10
-0.056568542
20
0.1
30
0
70
32
0
SEQEND
8
0
0
POLYLINE
8
0
62
5
66
1
10
0
20
0
30
0
70
8
0
VERTEX
8
0
62
5
10
-0.028284271
20
0
30
0
70
32
0
VERTEX
8
0
62
5
10
-0.028284271
20
0.1
30
0
70
32
0
SEQEND
8
0
0
POLYLINE
8
0
62
5
66
1
10
0
20
0
30
0
70
8
0
VERTEX
8
0
62
5
10
0
20
0.1
30
0
70
32
0
VERTEX
8
0
62
5
10
0
20
0.14
30
0
70
32
0
SEQEND
8
0
0
POLYLINE
8
0
62
5
66
1
10
0
20
0
30
0
70
8
0
VERTEX
8
0
62
5
10
0.11313708
20
0.14
30
0
70
32
0
VERTEX
8
0
62
5
10
0.11313708
20
0.1
30
0
70
32
0
SEQEND
8
0
0
POLYLINE
8
0
62
5
66
1
10
0
20
0
30
0
70
8
0
VERTEX
8
0
62
5
10
0
20
0.1
30
0
70
32
0
VERTEX
8
0
62
5
10
0.11313708
20
0.1
30
0
70
32
0
SEQEND
8
0
0
POLYLINE
8
0
62
5
66
1
10
0
20
0
30
0
70
8
0
VERTEX
8
0
62
5
10
0
20
0.14
30
0
70
32
0
VERTEX
8
0
62
5
10
0.11313708
20
0.14
30
0
70
32
0
SEQEND
8
0
0
POLYLINE
8
0
62
5
66
1
10
0
20
0
30
0
70
8
0
VERTEX
8
0
62
5
10
0.028284271
20
0.1
30
0
70
32
0
VERTEX
8
0
62
5
10
0.028284271
20
0.1
30
0
70
32
0
SEQEND
8
0
0
POLYLINE
8
0
62
5
66
1
10
0
20
0
30
0
70
8
0
VERTEX
8
0
62
5
10
0.056568542
20
0.1
30
0
70
32
0
VERTEX
8
0
62
5
10
0.056568542
20
0.1
30
0
70
32
0
SEQEND
8
0
0
POLYLINE
8
0
62
5
66
1
10
0
20
0
30
0
70
8
0
VERTEX
8
0
62
5
10
0.084852814
20
0.1
30
0
70
32
0
VERTEX
8
0
62
5
10
0.084852814
20
0.1
30
0
70
32
0
SEQEND
8
0
0
POLYLINE
8
0
62
5
66
1
10
0
20
0
30
0
70
8
0
VERTEX
8
0
62
5
10
0.028284271
20
0.14
30
0
70
32
0
VERTEX
8
0
62
5
10
0.028284271
20
0.14
30
0
70
32
0
SEQEND
8
0
0
POLYLINE
8
0
62
5
66
1
10
0
20
0
30
0
70
8
0
VERTEX
8
0
62
5
10
0.056568542
20
0.14
30
0
70
32
0
VERTEX
8
0
62
5
10
0.056568542
20
0.14
30
0
70
32
0
SEQEND
8
0
0
POLYLINE
8
0
62
5
66
1
10
0
20
0
30
0
70
8
0
VERTEX
8
0
62
5
10
0.084852814
20
0.14
30
0
70
32
0
VERTEX
8
0
62
5
10
0.084852814
20
0.14
30
0
70
32
0
SEQEND
8
0
0
POLYLINE
8
0
62
30
66
1
10
0
20
0
30
0
70
8
0
VERTEX
8
0
62
30
10
0
20
0.14
30
0
70
32
0
VERTEX
8
0
62
30
10
0.028284271
20
0.1
30
0
70
32
0
SEQEND
8
0
0
POLYLINE
8
0
62
30
66
1
10
0
20
0
30
0
70
8
0
VERTEX
8
0
62
30
10
0.028284271
20
0.14
30
0
70
32
0
VERTEX
8
0
62
30
10
0
20
0.1
30
0
70
32
0
SEQEND
8
0
0
POLYLINE
8
0
62
30
66
1
10
0
20
0
30
0
70
8
0
VERTEX
8
0
62
30
10
0.056568542
20
0.14
30
0
70
32
0
VERTEX
8
0
62
30
10
0.084852814
20
0.1
30
0
70
32
0
SEQEND
8
0
0
POLYLINE
8
0
62
30
66
1
10
0
20
0
30
0
70
8
0
VERTEX
8
0
62
30
10
0.084852814
20
0.14
30
0
70
32
0
VERTEX
8
0
62
30
10
0.056568542
20
0.1
30
0
70
32
0
SEQEND
8
0
0
POLYLINE
8
0
62
30
66
1
10
0
20
0
30
0
70
8
0
VERTEX
8
0
62
30
10
0.028284271
20
0.12
30
0
70
32
0
VERTEX
8
0
62
30
10
0.056568542
20
0.12
30
0
70
32
0
SEQEND
8
0
0
POLYLINE
8
0
62
30
66
1
10
0
20
0
30
0
70
8
0
VERTEX
8
0
62
30
10
0.084852814
20
0.12
30
0
70
32
0
VERTEX
8
0
62
30
10
0.11313708
20
0.12
30
0
70
32
0
SEQEND
8
0
0
POLYLINE
8
0
62
5
66
1
10
0
20
0
30
0
70
8
0
VERTEX
8
0
62
5
10
0
20
0.12
30
0
70
32
0
VERTEX
8
0
62
5
10
0.014142136
20
0.12
30
0
70
32
0
SEQEND
8
0
0
POLYLINE
8
0
62
5
66
1
10
0
20
0
30
0
70
8
0
VERTEX
8
0
62
5
10
0.056568542
20
0.12
30
0
70
32
0
VERTEX
8
0
62
5
10
0.070710678
20
0.12
30
0
70
32
0
SEQEND
8
0
0
POLYLINE
8
0
62
5
66
1
10
0
20
0
30
0
70
8
0
VERTEX
8
0
62
5
10
0.014142136
20
0.12
30
0
70
32
0
VERTEX
8
0
62
5
10
0.028284271
20
0.12
30
0
70
32
0
SEQEND
8
0
0
POLYLINE
8
0
62
5
66
1
10
0
20
0
30
0
70
8
0
VERTEX
8
0
62
5
10
0.070710678
20
0.12
30
0
70
32
0
VERTEX
8
0
62
5
10
0.084852814
20
0.12
30
0
70
32
0
SEQEND
8
0
0
POLYLINE
8
0
62
5
66
1
10
0
20
0
30
0
70
8
0
VERTEX
8
0
62
5
10
0.028284271
20
0.1
30
0
70
32
0
VERTEX
8
0
62
5
10
0.028284271
20
0.14
30
0
70
32
0
SEQEND
8
0
0
POLYLINE
8
0
62
5
66
1
10
0
20
0
30
0
70
8
0
VERTEX
8
0
62
5
10
0.056568542
20
0.1
30
0
70
32
0
VERTEX
8
0
62
5
10
0.056568542
20
0.14
30
0
70
32
0
SEQEND
8
0
0
POLYLINE
8
0
62
5
66
1
10
0
20
0
30
0
70
8
0
VERTEX
8
0
62
5
10
0.084852814
20
0.1
30
0
70
32
0
VERTEX
8
0
62
5
10
0.084852814
20
0.14
30
0
70
32
0
SEQEND
8
0
0
POLYLINE
8
0
62
5
66
1
10
0
20
0
30
0
70
8
0
VERTEX
8
0
62
5
10
0
20
0.1
30
0
70
32
0
VERTEX
8
0
62
5
10
0
20
0.14
30
0
70
32
0
SEQEND
8
0
0
POLYLINE
8
0
62
5
66
1
10
0
20
0
30
0
70
8
0
VERTEX
8
0
62
5
10
0.22627417
20
0.14
30
0
70
32
0
VERTEX
8
0
62
5
10
0.22627417
20
0.1
30
0
70
32
0
SEQEND
8
0
0
POLYLINE
8
0
62
5
66
1
10
0
20
0
30
0
70
8
0
VERTEX
8
0
62
5
10
0.11313708
20
0.1
30
0
70
32
0
VERTEX
8
0
62
5
10
0.22627417
20
0.1
30
0
70
32
0
SEQEND
8
0
0
POLYLINE
8
0
62
5
66
1
10
0
20
0
30
0
70
8
0
VERTEX
8
0
62
5
10
0.11313708
20
0.14
30
0
70
32
0
VERTEX
8
0
62
5
10
0.22627417
20
0.14
30
0
70
32
0
SEQEND
8
0
0
POLYLINE
8
0
62
5
66
1
10
0
20
0
30
0
70
8
0
VERTEX
8
0
62
5
10
0.14142136
20
0.1
30
0
70
32
0
VERTEX
8
0
62
5
10
0.14142136
20
0.1
30
0
70
32
0
SEQEND
8
0
0
POLYLINE
8
0
62
5
66
1
10
0
20
0
30
0
70
8
0
VERTEX
8
0
62
5
10
0.16970563
20
0.1
30
0
70
32
0
VERTEX
8
0
62
5
10
0.16970563
20
0.1
30
0
70
32
0
SEQEND
8
0
0
POLYLINE
8
0
62
5
66
1
10
0
20
0
30
0
70
8
0
VERTEX
8
0
62
5
10
0.1979899
20
0.1
30
0
70
32
0
VERTEX
8
0
62
5
10
0.1979899
20
0.1
30
0
70
32
0
SEQEND
8
0
0
POLYLINE
8
0
62
5
66
1
10
0
20
0
30
0
70
8
0
VERTEX
8
0
62
5
10
0.14142136
20
0.14
30
0
70
32
0
VERTEX
8
0
62
5
10
0.14142136
20
0.14
30
0
70
32
0
SEQEND
8
0
0
POLYLINE
8
0
62
5
66
1
10
0
20
0
30
0
70
8
0
VERTEX
8
0
62
5
10
0.16970563
20
0.14
30
0
70
32
0
VERTEX
8
0
62
5
10
0.16970563
20
0.14
30
0
70
32
0
SEQEND
8
0
0
POLYLINE
8
0
62
5
66
1
10
0
20
0
30
0
70
8
0
VERTEX
8
0
62
5
10
0.1979899
20
0.14
30
0
70
32
0
VERTEX
8
0
62
5
10
0.1979899
20
0.14
30
0
70
32
0
SEQEND
8
0
0
POLYLINE
8
0
62
30
66
1
10
0
20
0
30
0
70
8
0
VERTEX
8
0
62
30
10
0.11313708
20
0.14
30
0
70
32
0
VERTEX
8
0
62
30
10
0.14142136
20
0.1
30
0
70
32
0
SEQEND
8
0
0
POLYLINE
8
0
62
30
66
1
10
0
20
0
30
0
70
8
0
VERTEX
8
0
62
30
10
0.14142136
20
0.14
30
0
70
32
0
VERTEX
8
0
62
30
10
0.11313708
20
0.1
30
0
70
32
0
SEQEND
8
0
0
POLYLINE
8
0
62
30
66
1
10
0
20
0
30
0
70
8
0
VERTEX
8
0
62
30
10
0.16970563
20
0.14
30
0
70
32
0
VERTEX
8
0
62
30
10
0.1979899
20
0.1
30
0
70
32
0
SEQEND
8
0
0
POLYLINE
8
0
62
30
66
1
10
0
20
0
30
0
70
8
0
VERTEX
8
0
62
30
10
0.1979899
20
0.14
30
0
70
32
0
VERTEX
8
0
62
30
10
0.16970563
20
0.1
30
0
70
32
0
SEQEND
8
0
0
POLYLINE
8
0
62
30
66
1
10
0
20
0
30
0
70
8
0
VERTEX
8
0
62
30
10
0.14142136
20
0.12
30
0
70
32
0
VERTEX
8
0
62
30
10
0.16970563
20
0.12
30
0
70
32
0
SEQEND
8
0
0
POLYLINE
8
0
62
30
66
1
10
0
20
0
30
0
70
8
0
VERTEX
8
0
62
30
10
0.1979899
20
0.12
30
0
70
32
0
VERTEX
8
0
62
30
10
0.22627417
20
0.12
30
0
70
32
0
SEQEND
8
0
0
POLYLINE
8
0
62
5
66
1
10
0
20
0
30
0
70
8
0
VERTEX
8
0
62
5
10
0.11313708
20
0.12
30
0
70
32
0
VERTEX
8
0
62
5
10
0.12727922
20
0.12
30
0
70
32
0
SEQEND
8
0
0
POLYLINE
8
0
62
5
66
1
10
0
20
0
30
0
70
8
0
VERTEX
8
0
62
5
10
0.16970563
20
0.12
30
0
70
32
0
VERTEX
8
0
62
5
10
0.18384776
20
0.12
30
0
70
32
0
SEQEND
8
0
0
POLYLINE
8
0
62
5
66
1
10
0
20
0
30
0
70
8
0
VERTEX
8
0
62
5
10
0.12727922
20
0.12
30
0
70
32
0
VERTEX
8
0
62
5
10
0.14142136
20
0.12
30
0
70
32
0
SEQEND
8
0
0
POLYLINE
8
0
62
5
66
1
10
0
20
0
30
0
70
8
0
VERTEX
8
0
62
5
10
0.18384776
20
0.12
30
0
70
32
0
VERTEX
8
0
62
5
10
0.1979899
20
0.12
30
0
70
32
0
SEQEND
8
0
0
POLYLINE
8
0
62
5
66
1
10
0
20
0
30
0
70
8
0
VERTEX
8
0
62
5
10
0.14142136
20
0.1
30
0
70
32
0
VERTEX
8
0
62
5
10
0.14142136
20
0.14
30
0
70
32
0
SEQEND
8
0
0
POLYLINE
8
0
62
5
66
1
10
0
20
0
30
0
70
8
0
VERTEX
8
0
62
5
10
0.16970563
20
0.1
30
0
70
32
0
VERTEX
8
0
62
5
10
0.16970563
20
0.14
30
0
70
32
0
SEQEND
8
0
0
POLYLINE
8
0
62
5
66
1
10
0
20
0
30
0
70
8
0
VERTEX
8
0
62
5
10
0.1979899
20
0.1
30
0
70
32
0
VERTEX
8
0
62
5
10
0.1979899
20
0.14
30
0
70
32
0
SEQEND
8
0
0
POLYLINE
8
0
62
5
66
1
10
0
20
0
30
0
70
8
0
VERTEX
8
0
62
5
10
0.11313708
20
0.1
30
0
70
32
0
VERTEX
8
0
62
5
10
0.11313708
20
0.14
30
0
70
32
0
SEQEND
8
0
0
POLYLINE
8
0
62
5
66
1
10
0
20
0
30
0
70
8
0
VERTEX
8
0
62
5
10
-0.11313708
20
0.1
30
0
70
32
0
VERTEX
8
0
62
5
10
-0.11313708
20
0.14
30
0
70
32
0
SEQEND
8
0
0
POLYLINE
8
0
62
5
66
1
10
0
20
0
30
0
70
8
0
VERTEX
8
0
62
5
10
-0.11313708
20
0.1
30
0
70
32
0
VERTEX
8
0
62
5
10
0
20
0.1
30
0
70
32
0
SEQEND
8
0
0
POLYLINE
8
0
62
5
66
1
10
0
20
0
30
0
70
8
0
VERTEX
8
0
62
5
10
-0.11313708
20
0.14
30
0
70
32
0
VERTEX
8
0
62
5
10
0
20
0.14
30
0
70
32
0
SEQEND
8
0
0
POLYLINE
8
0
62
5
66
1
10
0
20
0
30
0
70
8
0
VERTEX
8
0
62
5
10
-0.084852814
20
0.1
30
0
70
32
0
VERTEX
8
0
62
5
10
-0.084852814
20
0.1
30
0
70
32
0
SEQEND
8
0
0
POLYLINE
8
0
62
5
66
1
10
0
20
0
30
0
70
8
0
VERTEX
8
0
62
5
10
-0.056568542
20
0.1
30
0
70
32
0
VERTEX
8
0
62
5
10
-0.056568542
20
0.1
30
0
70
32
0
SEQEND
8
0
0
POLYLINE
8
0
62
5
66
1
10
0
20
0
30
0
70
8
0
VERTEX
8
0
62
5
10
-0.028284271
20
0.1
30
0
70
32
0
VERTEX
8
0
62
5
10
-0.028284271
20
0.1
30
0
70
32
0
SEQEND
8
0
0
POLYLINE
8
0
62
5
66
1
10
0
20
0
30
0
70
8
0
VERTEX
8
0
62
5
10
-0.084852814
20
0.14
30
0
70
32
0
VERTEX
8
0
62
5
10
-0.084852814
20
0.14
30
0
70
32
0
SEQEND
8
0
0
POLYLINE
8
0
62
5
66
1
10
0
20
0
30
0
70
8
0
VERTEX
8
0
62
5
10
-0.056568542
20
0.14
30
0
70
32
0
VERTEX
8
0
62
5
10
-0.056568542
20
0.14
30
0
70
32
0
SEQEND
8
0
0
POLYLINE
8
0
62
5
66
1
10
0
20
0
30
0
70
8
0
VERTEX
8
0
62
5
10
-0.028284271
20
0.14
30
0
70
32
0
VERTEX
8
0
62
5
10
-0.028284271
20
0.14
30
0
70
32
0
SEQEND
8
0
0
POLYLINE
8
0
62
30
66
1
10
0
20
0
30
0
70
8
0
VERTEX
8
0
62
30
10
-0.11313708
20
0.14
30
0
70
32
0
VERTEX
8
0
62
30
10
-0.084852814
20
0.1
30
0
70
32
0
SEQEND
8
0
0
POLYLINE
8
0
62
30
66
1
10
0
20
0
30
0
70
8
0
VERTEX
8
0
62
30
10
-0.084852814
20
0.14
30
0
70
32
0
VERTEX
8
0
62
30
10
-0.11313708
20
0.1
30
0
70
32
0
SEQEND
8
0
0
POLYLINE
8
0
62
30
66
1
10
0
20
0
30
0
70
8
0
VERTEX
8
0
62
30
10
-0.056568542
20
0.14
30
0
70
32
0
VERTEX
8
0
62
30
10
-0.028284271
20
0.1
30
0
70
32
0
SEQEND
8
0
0
POLYLINE
8
0
62
30
66
1
10
0
20
0
30
0
70
8
0
VERTEX
8
0
62
30
10
-0.028284271
20
0.14
30
0
70
32
0
VERTEX
8
0
62
30
10
-0.056568542
20
0.1
30
0
70
32
0
SEQEND
8
0
0
POLYLINE
8
0
62
30
66
1
10
0
20
0
30
0
70
8
0
VERTEX
8
0
62
30
10
-0.084852814
20
0.12
30
0
70
32
0
VERTEX
8
0
62
30
10
-0.056568542
20
0.12
30
0
70
32
0
SEQEND
8
0
0
POLYLINE
8
0
62
30
66
1
10
0
20
0
30
0
70
8
0
VERTEX
8
0
62
30
10
-0.028284271
20
0.12
30
0
70
32
0
VERTEX
8
0
62
30
10
0
20
0.12
30
0
70
32
0
SEQEND
8
0
0
POLYLINE
8
0
62
5
66
1
10
0
20
0
30
0
70
8
0
VERTEX
8
0
62
5
10
-0.11313708
20
0.12
30
0
70
32
0
VERTEX
8
0
62
5
10
-0.098994949
20
0.12
30
0
70
32
0
SEQEND
8
0
0
POLYLINE
8
0
62
5
66
1
10
0
20
0
30
0
70
8
0
VERTEX
8
0
62
5
10
-0.056568542
20
0.12
30
0
70
32
0
VERTEX
8
0
62
5
10
-0.042426407
20
0.12
30
0
70
32
0
SEQEND
8
0
0
POLYLINE
8
0
62
5
66
1
10
0
20
0
30
0
70
8
0
VERTEX
8
0
62
5
10
-0.098994949
20
0.12
30
0
70
32
0
VERTEX
8
0
62
5
10
-0.084852814
20
0.12
30
0
70
32
0
SEQEND
8
0
0
POLYLINE
8
0
62
5
66
1
10
0
20
0
30
0
70
8
0
VERTEX
8
0
62
5
10
-0.042426407
20
0.12
30
0
70
32
0
VERTEX
8
0
62
5
10
-0.028284271
20
0.12
30
0
70
32
0
SEQEND
8
0
0
POLYLINE
8
0
62
5
66
1
10
0
20
0
30
0
70
8
0
VERTEX
8
0
62
5
10
-0.084852814
20
0.1
30
0
70
32
0
VERTEX
8
0
62
5
10
-0.084852814
20
0.14
30
0
70
32
0
SEQEND
8
0
0
POLYLINE
8
0
62
5
66
1
10
0
20
0
30
0
70
8
0
VERTEX
8
0
62
5
10
-0.056568542
20
0.1
30
0
70
32
0
VERTEX
8
0
62
5
10
-0.056568542
20
0.14
30
0
70
32
0
SEQEND
8
0
0
POLYLINE
8
0
62
5
66
1
10
0
20
0
30
0
70
8
0
VERTEX
8
0
62
5
10
-0.028284271
20
0.1
30
0
70
32
0
VERTEX
8
0
62
5
10
-0.028284271
20
0.14
30
0
70
32
0
SEQEND
8
0
0
POLYLINE
8
0
62
5
66
1
10
0
20
0
30
0
70
8
0
VERTEX
8
0
62
5
10
-0.11313708
20
0.1
30
0
70
32
0
VERTEX
8
0
62
5
10
-0.11313708
20
0.14
30
0
70
32
0
SEQEND
8
0
0
POLYLINE
8
0
62
5
66
1
10
0
20
0
30
0
70
8
0
VERTEX
8
0
62
5
10
0
20
0.14
30
0
70
32
0
VERTEX
8
0
62
5
10
0
20
0.21773351
30
0
70
32
0
SEQEND
8
0
0
POLYLINE
8
0
62
5
66
1
10
0
20
0
30
0
70
8
0
VERTEX
8
0
62
5
10
0.11313708
20
0.21773351
30
0
70
32
0
VERTEX
8
0
62
5
10
0.11313708
20
0.14
30
0
70
32
0
SEQEND
8
0
0
POLYLINE
8
0
62
5
66
1
10
0
20
0
30
0
70
8
0
VERTEX
8
0
62
5
10
0
20
0.14320032
30
0
70
32
0
VERTEX
8
0
62
5
10
0.028284271
20
0.14343059
30
0
70
32
0
VERTEX
8
0
62
5
10
0.056568542
20
0.15943338
30
0
70
32
0
VERTEX
8
0
62
5
10
0.084852814
20
0.15920311
30
0
70
32
0
VERTEX
8
0
62
5
10
0.11313708
20
0.14320032
30
0
70
32
0
SEQEND
8
0
0
POLYLINE
8
0
62
5
66
1
10
0
20
0
30
0
70
8
0
VERTEX
8
0
62
5
10
0
20
0.18206708
30
0
70
32
0
VERTEX
8
0
62
5
10
0.028284271
20
0.18229735
30
0
70
32
0
VERTEX
8
0
62
5
10
0.056568542
20
0.19830014
30
0
70
32
0
VERTEX
8
0
62
5
10
0.084852814
20
0.19806987
30
0
70
32
0
VERTEX
8
0
62
5
10
0.11313708
20
0.18206708
30
0
70
32
0
SEQEND
8
0
0
POLYLINE
8
0
62
5
66
1
10
0
20
0
30
0
70
8
0
VERTEX
8
0
62
5
10
0
20
0.17566643
30
0
70
32
0
VERTEX
8
0
62
5
10
0.028284271
20
0.17543617
30
0
70
32
0
VERTEX
8
0
62
5
10
0.056568542
20
0.15943338
30
0
70
32
0
VERTEX
8
0
62
5
10
0.084852814
20
0.15966365
30
0
70
32
0
VERTEX
8
0
62
5
10
0.11313708
20
0.17566643
30
0
70
32
0
SEQEND
8
0
0
POLYLINE
8
0
62
5
66
1
10
0
20
0
30
0
70
8
0
VERTEX
8
0
62
5
10
0
20
0.21453319
30
0
70
32
0
VERTEX
8
0
62
5
10
0.028284271
20
0.21430292
30
0
70
32
0
VERTEX
8
0
62
5
10
0.056568542
20
0.19830014
30
0
70
32
0
VERTEX
8
0
62
5
10
0.084852814
20
0.19853041
30
0
70
32
0
VERTEX
8
0
62
5
10
0.11313708
20
0.21453319
30
0
70
32
0
SEQEND
8
0
0
POLYLINE
8
0
62
30
66
1
10
0
20
0
30
0
70
8
0
VERTEX
8
0
62
30
10
0
20
0.19830014
30
0
70
32
0
VERTEX
8
0
62
30
10
0.11313708
20
0.19830014
30
0
70
32
0
SEQEND
8
0
0
POLYLINE
8
0
62
30
66
1
10
0
20
0
30
0
70
8
0
VERTEX
8
0
62
30
10
0.028284271
20
0.14343059
30
0
70
32
0
VERTEX
8
0
62
30
10
0.028284271
20
0.15943338
30
0
70
32
0
SEQEND
8
0
0
POLYLINE
8
0
62
30
66
1
10
0
20
0
30
0
70
8
0
VERTEX
8
0
62
30
10
0.056568542
20
0.15943338
30
0
70
32
0
VERTEX
8
0
62
30
10
0.056568542
20
0.15943338
30
0
70
32
0
SEQEND
8
0
0
POLYLINE
8
0
62
30
66
1
10
0
20
0
30
0
70
8
0
VERTEX
8
0
62
30
10
0.084852814
20
0.15920311
30
0
70
32
0
VERTEX
8
0
62
30
10
0.084852814
20
0.15943338
30
0
70
32
0
SEQEND
8
0
0
POLYLINE
8
0
62
30
66
1
10
0
20
0
30
0
70
8
0
VERTEX
8
0
62
30
10
0.028284271
20
0.18229735
30
0
70
32
0
VERTEX
8
0
62
30
10
0.028284271
20
0.19830014
30
0
70
32
0
SEQEND
8
0
0
POLYLINE
8
0
62
30
66
1
10
0
20
0
30
0
70
8
0
VERTEX
8
0
62
30
10
0.028284271
20
0.19830014
30
0
70
32
0
VERTEX
8
0
62
30
10
0.056568542
20
0.19830014
30
0
70
32
0
SEQEND
8
0
0
POLYLINE
8
0
62
30
66
1
10
0
20
0
30
0
70
8
0
VERTEX
8
0
62
30
10
0.056568542
20
0.19830014
30
0
70
32
0
VERTEX
8
0
62
30
10
0.056568542
20
0.19830014
30
0
70
32
0
SEQEND
8
0
0
POLYLINE
8
0
62
30
66
1
10
0
20
0
30
0
70
8
0
VERTEX
8
0
62
30
10
0.056568542
20
0.19830014
30
0
70
32
0
VERTEX
8
0
62
30
10
0.084852814
20
0.19806987
30
0
70
32
0
SEQEND
8
0
0
POLYLINE
8
0
62
30
66
1
10
0
20
0
30
0
70
8
0
VERTEX
8
0
62
30
10
0.084852814
20
0.19806987
30
0
70
32
0
VERTEX
8
0
62
30
10
0.084852814
20
0.19830014
30
0
70
32
0
SEQEND
8
0
0
POLYLINE
8
0
62
5
66
1
10
0
20
0
30
0
70
8
0
VERTEX
8
0
62
5
10
0.028284271
20
0.14
30
0
70
32
0
VERTEX
8
0
62
5
10
0.028284271
20
0.14343059
30
0
70
32
0
SEQEND
8
0
0
POLYLINE
8
0
62
5
66
1
10
0
20
0
30
0
70
8
0
VERTEX
8
0
62
5
10
0.056568542
20
0.14
30
0
70
32
0
VERTEX
8
0
62
5
10
0.056568542
20
0.15943338
30
0
70
32
0
SEQEND
8
0
0
POLYLINE
8
0
62
5
66
1
10
0
20
0
30
0
70
8
0
VERTEX
8
0
62
5
10
0.084852814
20
0.14
30
0
70
32
0
VERTEX
8
0
62
5
10
0.084852814
20
0.15920311
30
0
70
32
0
SEQEND
8
0
0
POLYLINE
8
0
62
5
66
1
10
0
20
0
30
0
70
8
0
VERTEX
8
0
62
5
10
0.028284271
20
0.17886676
30
0
70
32
0
VERTEX
8
0
62
5
10
0.028284271
20
0.18229735
30
0
70
32
0
SEQEND
8
0
0
POLYLINE
8
0
62
5
66
1
10
0
20
0
30
0
70
8
0
VERTEX
8
0
62
5
10
0.056568542
20
0.17886676
30
0
70
32
0
VERTEX
8
0
62
5
10
0.056568542
20
0.19830014
30
0
70
32
0
SEQEND
8
0
0
POLYLINE
8
0
62
5
66
1
10
0
20
0
30
0
70
8
0
VERTEX
8
0
62
5
10
0.084852814
20
0.17886676
30
0
70
32
0
VERTEX
8
0
62
5
10
0.084852814
20
0.19806987
30
0
70
32
0
SEQEND
8
0
0
POLYLINE
8
0
62
5
66
1
10
0
20
0
30
0
70
8
0
VERTEX
8
0
62
5
10
0.028284271
20
0.15943338
30
0
70
32
0
VERTEX
8
0
62
5
10
0.028284271
20
0.17886676
30
0
70
32
0
SEQEND
8
0
0
POLYLINE
8
0
62
5
66
1
10
0
20
0
30
0
70
8
0
VERTEX
8
0
62
5
10
0.056568542
20
0.15943338
30
0
70
32
0
VERTEX
8
0
62
5
10
0.056568542
20
0.17886676
30
0
70
32
0
SEQEND
8
0
0
POLYLINE
8
0
62
5
66
1
10
0
20
0
30
0
70
8
0
VERTEX
8
0
62
5
10
0.084852814
20
0.15943338
30
0
70
32
0
VERTEX
8
0
62
5
10
0.084852814
20
0.17886676
30
0
70
32
0
SEQEND
8
0
0
POLYLINE
8
0
62
5
66
1
10
0
20
0
30
0
70
8
0
VERTEX
8
0
62
5
10
0.028284271
20
0.19830014
30
0
70
32
0
VERTEX
8
0
62
5
10
0.028284271
20
0.21773351
30
0
70
32
0
SEQEND
8
0
0
POLYLINE
8
0
62
5
66
1
10
0
20
0
30
0
70
8
0
VERTEX
8
0
62
5
10
0.056568542
20
0.19830014
30
0
70
32
0
VERTEX
8
0
62
5
10
0.056568542
20
0.21773351
30
0
70
32
0
SEQEND
8
0
0
POLYLINE
8
0
62
5
66
1
10
0
20
0
30
0
70
8
0
VERTEX
8
0
62
5
10
0.084852814
20
0.19830014
30
0
70
32
0
VERTEX
8
0
62
5
10
0.084852814
20
0.21773351
30
0
70
32
0
SEQEND
8
0
0
POLYLINE
8
0
62
5
66
1
10
0
20
0
30
0
70
8
0
VERTEX
8
0
62
5
10
0.22627417
20
0.21773351
30
0
70
32
0
VERTEX
8
0
62
5
10
0.22627417
20
0.14
30
0
70
32
0
SEQEND
8
0
0
POLYLINE
8
0
62
5
66
1
10
0
20
0
30
0
70
8
0
VERTEX
8
0
62
5
10
0.11313708
20
0.14320032
30
0
70
32
0
VERTEX
8
0
62
5
10
0.14142136
20
0.14343059
30
0
70
32
0
VERTEX
8
0
62
5
10
0.16970563
20
0.15943338
30
0
70
32
0
VERTEX
8
0
62
5
10
0.1979899
20
0.15920311
30
0
70
32
0
VERTEX
8
0
62
5
10
0.22627417
20
0.14320032
30
0
70
32
0
SEQEND
8
0
0
POLYLINE
8
0
62
5
66
1
10
0
20
0
30
0
70
8
0
VERTEX
8
0
62
5
10
0.11313708
20
0.18206708
30
0
70
32
0
VERTEX
8
0
62
5
10
0.14142136
20
0.18229735
30
0
70
32
0
VERTEX
8
0
62
5
10
0.16970563
20
0.19830014
30
0
70
32
0
VERTEX
8
0
62
5
10
0.1979899
20
0.19806987
30
0
70
32
0
VERTEX
8
0
62
5
10
0.22627417
20
0.18206708
30
0
70
32
0
SEQEND
8
0
0
POLYLINE
8
0
62
5
66
1
10
0
20
0
30
0
70
8
0
VERTEX
8
0
62
5
10
0.11313708
20
0.17566643
30
0
70
32
0
VERTEX
8
0
62
5
10
0.14142136
20
0.17543617
30
0
70
32
0
VERTEX
8
0
62
5
10
0.16970563
20
0.15943338
30
0
70
32
0
VERTEX
8
0
62
5
10
0.1979899
20
0.15966365
30
0
70
32
0
VERTEX
8
0
62
5
10
0.22627417
20
0.17566643
30
0
70
32
0
SEQEND
8
0
0
POLYLINE
8
0
62
5
66
1
10
0
20
0
30
0
70
8
0
VERTEX
8
0
62
5
10
0.11313708
20
0.21453319
30
0
70
32
0
VERTEX
8
0
62
5
10
0.14142136
20
0.21430292
30
0
70
32
0
VERTEX
8
0
62
5
10
0.16970563
20
0.19830014
30
0
70
32
0
VERTEX
8
0
62
5
10
0.1979899
20
0.19853041
30
0
70
32
0
VERTEX
8
0
62
5
10
0.22627417
20
0.21453319
30
0
70
32
0
SEQEND
8
0
0
POLYLINE
8
0
62
30
66
1
10
0
20
0
30
0
70
8
0
VERTEX
8
0
62
30
10
0.11313708
20
0.19830014
30
0
70
32
0
VERTEX
8
0
62
30
10
0.22627417
20
0.19830014
30
0
70
32
0
SEQEND
8
0
0
POLYLINE
8
0
62
30
66
1
10
0
20
0
30
0
70
8
0
VERTEX
8
0
62
30
10
0.14142136
20
0.14343059
30
0
70
32
0
VERTEX
8
0
62
30
10
0.14142136
20
0.15943338
30
0
70
32
0
SEQEND
8
0
0
POLYLINE
8
0
62
30
66
1
10
0
20
0
30
0
70
8
0
VERTEX
8
0
62
30
10
0.16970563
20
0.15943338
30
0
70
32
0
VERTEX
8
0
62
30
10
0.16970563
20
0.15943338
30
0
70
32
0
SEQEND
8
0
0
POLYLINE
8
0
62
30
66
1
10
0
20
0
30
0
70
8
0
VERTEX
8
0
62
30
10
0.1979899
20
0.15920311
30
0
70
32
0
VERTEX
8
0
62
30
10
0.1979899
20
0.15943338
30
0
70
32
0
SEQEND
8
0
0
POLYLINE
8
0
62
30
66
1
10
0
20
0
30
0
70
8
0
VERTEX
8
0
62
30
10
0.14142136
20
0.18229735
30
0
70
32
0
VERTEX
8
0
62
30
10
0.14142136
20
0.19830014
30
0
70
32
0
SEQEND
8
0
0
POLYLINE
8
0
62
30
66
1
10
0
20
0
30
0
70
8
0
VERTEX
8
0
62
30
10
0.14142136
20
0.19830014
30
0
70
32
0
VERTEX
8
0
62
30
10
0.16970563
20
0.19830014
30
0
70
32
0
SEQEND
8
0
0
POLYLINE
8
0
62
30
66
1
10
0
20
0
30
0
70
8
0
VERTEX
8
0
62
30
10
0.16970563
20
0.19830014
30
0
70
32
0
VERTEX
8
0
62
30
10
0.16970563
20
0.19830014
30
0
70
32
0
SEQEND
8
0
0
POLYLINE
8
0
62
30
66
1
10
0
20
0
30
0
70
8
0
VERTEX
8
0
62
30
10
0.16970563
20
0.19830014
30
0
70
32
0
VERTEX
8
0
62
30
10
0.1979899
20
0.19806987
30
0
70
32
0
SEQEND
8
0
0
POLYLINE
8
0
62
30
66
1
10
0
20
0
30
0
70
8
0
VERTEX
8
0
62
30
10
0.1979899
20
0.19806987
30
0
70
32
0
VERTEX
8
0
62
30
10
0.1979899
20
0.19830014
30
0
70
32
0
SEQEND
8
0
0
POLYLINE
8
0
62
5
66
1
10
0
20
0
30
0
70
8
0
VERTEX
8
0
62
5
10
0.14142136
20
0.14
30
0
70
32
0
VERTEX
8
0
62
5
10
0.14142136
20
0.14343059
30
0
70
32
0
SEQEND
8
0
0
POLYLINE
8
0
62
5
66
1
10
0
20
0
30
0
70
8
0
VERTEX
8
0
62
5
10
0.16970563
20
0.14
30
0
70
32
0
VERTEX
8
0
62
5
10
0.16970563
20
0.15943338
30
0
70
32
0
SEQEND
8
0
0
POLYLINE
8
0
62
5
66
1
10
0
20
0
30
0
70
8
0
VERTEX
8
0
62
5
10
0.1979899
20
0.14
30
0
70
32
0
VERTEX
8
0
62
5
10
0.1979899
20
0.15920311
30
0
70
32
0
SEQEND
8
0
0
POLYLINE
8
0
62
5
66
1
10
0
20
0
30
0
70
8
0
VERTEX
8
0
62
5
10
0.14142136
20
0.17886676
30
0
70
32
0
VERTEX
8
0
62
5
10
0.14142136
20
0.18229735
30
0
70
32
0
SEQEND
8
0
0
POLYLINE
8
0
62
5
66
1
10
0
20
0
30
0
70
8
0
VERTEX
8
0
62
5
10
0.16970563
20
0.17886676
30
0
70
32
0
VERTEX
8
0
62
5
10
0.16970563
20
0.19830014
30
0
70
32
0
SEQEND
8
0
0
POLYLINE
8
0
62
5
66
1
10
0
20
0
30
0
70
8
0
VERTEX
8
0
62
5
10
0.1979899
20
0.17886676
30
0
70
32
0
VERTEX
8
0
62
5
10
0.1979899
20
0.19806987
30
0
70
32
0
SEQEND
8
0
0
POLYLINE
8
0
62
5
66
1
10
0
20
0
30
0
70
8
0
VERTEX
8
0
62
5
10
0.14142136
20
0.15943338
30
0
70
32
0
VERTEX
8
0
62
5
10
0.14142136
20
0.17886676
30
0
70
32
0
SEQEND
8
0
0
POLYLINE
8
0
62
5
66
1
10
0
20
0
30
0
70
8
0
VERTEX
8
0
62
5
10
0.16970563
20
0.15943338
30
0
70
32
0
VERTEX
8
0
62
5
10
0.16970563
20
0.17886676
30
0
70
32
0
SEQEND
8
0
0
POLYLINE
8
0
62
5
66
1
10
0
20
0
30
0
70
8
0
VERTEX
8
0
62
5
10
0.1979899
20
0.15943338
30
0
70
32
0
VERTEX
8
0
62
5
10
0.1979899
20
0.17886676
30
0
70
32
0
SEQEND
8
0
0
POLYLINE
8
0
62
5
66
1
10
0
20
0
30
0
70
8
0
VERTEX
8
0
62
5
10
0.14142136
20
0.19830014
30
0
70
32
0
VERTEX
8
0
62
5
10
0.14142136
20
0.21773351
30
0
70
32
0
SEQEND
8
0
0
POLYLINE
8
0
62
5
66
1
10
0
20
0
30
0
70
8
0
VERTEX
8
0
62
5
10
0.16970563
20
0.19830014
30
0
70
32
0
VERTEX
8
0
62
5
10
0.16970563
20
0.21773351
30
0
70
32
0
SEQEND
8
0
0
POLYLINE
8
0
62
5
66
1
10
0
20
0
30
0
70
8
0
VERTEX
8
0
62
5
10
0.1979899
20
0.19830014
30
0
70
32
0
VERTEX
8
0
62
5
10
0.1979899
20
0.21773351
30
0
70
32
0
SEQEND
8
0
0
POLYLINE
8
0
62
5
66
1
10
0
20
0
30
0
70
8
0
VERTEX
8
0
62
5
10
-0.11313708
20
0.14
30
0
70
32
0
VERTEX
8
0
62
5
10
-0.11313708
20
0.21773351
30
0
70
32
0
SEQEND
8
0
0
POLYLINE
8
0
62
5
66
1
10
0
20
0
30
0
70
8
0
VERTEX
8
0
62
5
10
-0.11313708
20
0.14320032
30
0
70
32
0
VERTEX
8
0
62
5
10
-0.084852814
20
0.14343059
30
0
70
32
0
VERTEX
8
0
62
5
10
-0.056568542
20
0.15943338
30
0
70
32
0
VERTEX
8
0
62
5
10
-0.028284271
20
0.15920311
30
0
70
32
0
VERTEX
8
0
62
5
10
0
20
0.14320032
30
0
70
32
0
SEQEND
8
0
0
POLYLINE
8
0
62
5
66
1
10
0
20
0
30
0
70
8
0
VERTEX
8
0
62
5
10
-0.11313708
20
0.18206708
30
0
70
32
0
VERTEX
8
0
62
5
10
-0.084852814
20
0.18229735
30
0
70
32
0
VERTEX
8
0
62
5
10
-0.056568542
20
0.19830014
30
0
70
32
0
VERTEX
8
0
62
5
10
-0.028284271
20
0.19806987
30
0
70
32
0
VERTEX
8
0
62
5
10
0
20
0.18206708
30
0
70
32
0
SEQEND
8
0
0
POLYLINE
8
0
62
5
66
1
10
0
20
0
30
0
70
8
0
VERTEX
8
0
62
5
10
-0.11313708
20
0.17566643
30
0
70
32
0
VERTEX
8
0
62
5
10
-0.084852814
20
0.17543617
30
0
70
32
0
VERTEX
8
0
62
5
10
-0.056568542
20
0.15943338
30
0
70
32
0
VERTEX
8
0
62
5
10
-0.028284271
20
0.15966365
30
0
70
32
0
VERTEX
8
0
62
5
10
0
20
0.17566643
30
0
70
32
0
SEQEND
8
0
0
POLYLINE
8
0
62
5
66
1
10
0
20
0
30
0
70
8
0
VERTEX
8
0
62
5
10
-0.11313708
20
0.21453319
30
0
70
32
0
VERTEX
8
0
62
5
10
-0.084852814
20
0.21430292
30
0
70
32
0
VERTEX
8
0
62
5
10
-0.056568542
20
0.19830014
30
0
70
32
0
VERTEX
8
0
62
5
10
-0.028284271
20
0.19853041
30
0
70
32
0
VERTEX
8
0
62
5
10
0
20
0.21453319
30
0
70
32
0
SEQEND
8
0
0
POLYLINE
8
0
62
30
66
1
10
0
20
0
30
0
70
8
0
VERTEX
8
0
62
30
10
-0.11313708
20
0.19830014
30
0
70
32
0
VERTEX
8
0
62
30
10
0
20
0.19830014
30
0
70
32
0
SEQEND
8
0
0
POLYLINE
8
0
62
30
66
1
10
0
20
0
30
0
70
8
0
VERTEX
8
0
62
30
10
-0.084852814
20
0.14343059
30
0
70
32
0
VERTEX
8
0
62
30
10
-0.084852814
20
0.15943338
30
0
70
32
0
SEQEND
8
0
0
POLYLINE
8
0
62
30
66
1
10
0
20
0
30
0
70
8
0
VERTEX
8
0
62
30
10
-0.056568542
20
0.15943338
30
0
70
32
0
VERTEX
8
0
62
30
10
-0.056568542
20
0.15943338
30
0
70
32
0
SEQEND
8
0
0
POLYLINE
8
0
62
30
66
1
10
0
20
0
30
0
70
8
0
VERTEX
8
0
62
30
10
-0.028284271
20
0.15920311
30
0
70
32
0
VERTEX
8
0
62
30
10
-0.028284271
20
0.15943338
30
0
70
32
0
SEQEND
8
0
0
POLYLINE
8
0
62
30
66
1
10
0
20
0
30
0
70
8
0
VERTEX
8
0
62
30
10
-0.084852814
20
0.18229735
30
0
70
32
0
VERTEX
8
0
62
30
10
-0.084852814
20
0.19830014
30
0
70
32
0
SEQEND
8
0
0
POLYLINE
8
0
62
30
66
1
10
0
20
0
30
0
70
8
0
VERTEX
8
0
62
30
10
-0.084852814
20
0.19830014
30
0
70
32
0
VERTEX
8
0
62
30
10
-0.056568542
20
0.19830014
30
0
70
32
0
SEQEND
8
0
0
POLYLINE
8
0
62
30
66
1
10
0
20
0
30
0
70
8
0
VERTEX
8
0
62
30
10
-0.056568542
20
0.19830014
30
0
70
32
0
VERTEX
8
0
62
30
10
-0.056568542
20
0.19830014
30
0
70
32
0
SEQEND
8
0
0
POLYLINE
8
0
62
30
66
1
10
0
20
0
30
0
70
8
0
VERTEX
8
0
62
30
10
-0.056568542
20
0.19830014
30
0
70
32
0
VERTEX
8
0
62
30
10
-0.028284271
20
0.19806987
30
0
70
32
0
SEQEND
8
0
0
POLYLINE
8
0
62
30
66
1
10
0
20
0
30
0
70
8
0
VERTEX
8
0
62
30
10
-0.028284271
20
0.19806987
30
0
70
32
0
VERTEX
8
0
62
30
10
-0.028284271
20
0.19830014
30
0
70
32
0
SEQEND
8
0
0
POLYLINE
8
0
62
5
66
1
10
0
20
0
30
0
70
8
0
VERTEX
8
0
62
5
10
-0.084852814
20
0.14
30
0
70
32
0
VERTEX
8
0
62
5
10
-0.084852814
20
0.14343059
30
0
70
32
0
SEQEND
8
0
0
POLYLINE
8
0
62
5
66
1
10
0
20
0
30
0
70
8
0
VERTEX
8
0
62
5
10
-0.056568542
20
0.14
30
0
70
32
0
VERTEX
8
0
62
5
10
-0.056568542
20
0.15943338
30
0
70
32
0
SEQEND
8
0
0
POLYLINE
8
0
62
5
66
1
10
0
20
0
30
0
70
8
0
VERTEX
8
0
62
5
10
-0.028284271
20
0.14
30
0
70
32
0
VERTEX
8
0
62
5
10
-0.028284271
20
0.15920311
30
0
70
32
0
SEQEND
8
0
0
POLYLINE
8
0
62
5
66
1
10
0
20
0
30
0
70
8
0
VERTEX
8
0
62
5
10
-0.084852814
20
0.17886676
30
0
70
32
0
VERTEX
8
0
62
5
10
-0.084852814
20
0.18229735
30
0
70
32
0
SEQEND
8
0
0
POLYLINE
8
0
62
5
66
1
10
0
20
0
30
0
70
8
0
VERTEX
8
0
62
5
10
-0.056568542
20
0.17886676
30
0
70
32
0
VERTEX
8
0
62
5
10
-0.056568542
20
0.19830014
30
0
70
32
0
SEQEND
8
0
0
POLYLINE
8
0
62
5
66
1
10
0
20
0
30
0
70
8
0
VERTEX
8
0
62
5
10
-0.028284271
20
0.17886676
30
0
70
32
0
VERTEX
8
0
62
5
10
-0.028284271
20
0.19806987
30
0
70
32
0
SEQEND
8
0
0
POLYLINE
8
0
62
5
66
1
10
0
20
0
30
0
70
8
0
VERTEX
8
0
62
5
10
-0.084852814
20
0.15943338
30
0
70
32
0
VERTEX
8
0
62
5
10
-0.084852814
20
0.17886676
30
0
70
32
0
SEQEND
8
0
0
POLYLINE
8
0
62
5
66
1
10
0
20
0
30
0
70
8
0
VERTEX
8
0
62
5
10
-0.056568542
20
0.15943338
30
0
70
32
0
VERTEX
8
0
62
5
10
-0.056568542
20
0.17886676
30
0
70
32
0
SEQEND
8
0
0
POLYLINE
8
0
62
5
66
1
10
0
20
0
30
0
70
8
0
VERTEX
8
0
62
5
10
-0.028284271
20
0.15943338
30
0
70
32
0
VERTEX
8
0
62
5
10
-0.028284271
20
0.17886676
30
0
70
32
0
SEQEND
8
0
0
POLYLINE
8
0
62
5
66
1
10
0
20
0
30
0
70
8
0
VERTEX
8
0
62
5
10
-0.084852814
20
0.19830014
30
0
70
32
0
VERTEX
8
0
62
5
10
-0.084852814
20
0.21773351
30
0
70
32
0
SEQEND
8
0
0
POLYLINE
8
0
62
5
66
1
10
0
20
0
30
0
70
8
0
VERTEX
8
0
62
5
10
-0.056568542
20
0.19830014
30
0
70
32
0
VERTEX
8
0
62
5
10
-0.056568542
20
0.21773351
30
0
70
32
0
SEQEND
8
0
0
POLYLINE
8
0
62
5
66
1
10
0
20
0
30
0
70
8
0
VERTEX
8
0
62
5
10
-0.028284271
20
0.19830014
30
0
70
32
0
VERTEX
8
0
62
5
10
-0.028284271
20
0.21773351
30
0
70
32
0
SEQEND
8
0
0
POLYLINE
8
0
62
30
66
1
10
0
20
0
30
0
70
8
0
VERTEX
8
0
62
30
10
0
20
0.23027925
30
0
70
32
0
VERTEX
8
0
62
30
10
0.11313708
20
0.23027925
30
0
70
32
0
SEQEND
8
0
0
POLYLINE
8
0
62
30
66
1
10
0
20
0
30
0
70
8
0
VERTEX
8
0
62
30
10
0
20
0.21773351
30
0
70
32
0
VERTEX
8
0
62
30
10
0.11313708
20
0.21773351
30
0
70
32
0
SEQEND
8
0
0
POLYLINE
8
0
62
5
66
1
10
0
20
0
30
0
70
8
0
VERTEX
8
0
62
5
10
0
20
0.21773351
30
0
70
32
0
VERTEX
8
0
62
5
10
0.02802776
20
0.23027925
30
0
70
32
0
VERTEX
8
0
62
5
10
0.028284271
20
0.21773351
30
0
70
32
0
VERTEX
8
0
62
5
10
0.056312032
20
0.23027925
30
0
70
32
0
VERTEX
8
0
62
5
10
0.056568542
20
0.21773351
30
0
70
32
0
VERTEX
8
0
62
5
10
0.084596303
20
0.23027925
30
0
70
32
0
VERTEX
8
0
62
5
10
0.084852814
20
0.21773351
30
0
70
32
0
VERTEX
8
0
62
5
10
0.11288057
20
0.23027925
30
0
70
32
0
VERTEX
8
0
62
5
10
0.11313708
20
0.21773351
30
0
70
32
0
SEQEND
8
0
0
POLYLINE
8
0
62
5
66
1
10
0
20
0
30
0
70
8
0
VERTEX
8
0
62
5
10
0.028284271
20
0.21773351
30
0
70
32
0
VERTEX
8
0
62
5
10
0.028284271
20
0.21773351
30
0
70
32
0
SEQEND
8
0
0
POLYLINE
8
0
62
5
66
1
10
0
20
0
30
0
70
8
0
VERTEX
8
0
62
5
10
0.056568542
20
0.21773351
30
0
70
32
0
VERTEX
8
0
62
5
10
0.056568542
20
0.21773351
30
0
70
32
0
SEQEND
8
0
0
POLYLINE
8
0
62
5
66
1
10
0
20
0
30
0
70
8
0
VERTEX
8
0
62
5
10
0.084852814
20
0.21773351
30
0
70
32
0
VERTEX
8
0
62
5
10
0.084852814
20
0.21773351
30
0
70
32
0
SEQEND
8
0
0
POLYLINE
8
0
62
5
66
1
10
0
20
0
30
0
70
8
0
VERTEX
8
0
62
5
10
0.02802776
20
0.23027925
30
0
70
32
0
VERTEX
8
0
62
5
10
0.02802776
20
0.23027925
30
0
70
32
0
SEQEND
8
0
0
POLYLINE
8
0
62
5
66
1
10
0
20
0
30
0
70
8
0
VERTEX
8
0
62
5
10
0.056312032
20
0.23027925
30
0
70
32
0
VERTEX
8
0
62
5
10
0.056312032
20
0.23027925
30
0
70
32
0
SEQEND
8
0
0
POLYLINE
8
0
62
5
66
1
10
0
20
0
30
0
70
8
0
VERTEX
8
0
62
5
10
0.084596303
20
0.23027925
30
0
70
32
0
VERTEX
8
0
62
5
10
0.084596303
20
0.23027925
30
0
70
32
0
SEQEND
8
0
0
POLYLINE
8
0
62
5
66
1
10
0
20
0
30
0
70
8
0
VERTEX
8
0
62
5
10
0.11288057
20
0.23027925
30
0
70
32
0
VERTEX
8
0
62
5
10
0.11288057
20
0.23027925
30
0
70
32
0
SEQEND
8
0
0
POLYLINE
8
0
62
30
66
1
10
0
20
0
30
0
70
8
0
VERTEX
8
0
62
30
10
0.11313708
20
0.21773351
30
0
70
32
0
VERTEX
8
0
62
30
10
0.22627417
20
0.21773351
30
0
70
32
0
SEQEND
8
0
0
POLYLINE
8
0
62
5
66
1
10
0
20
0
30
0
70
8
0
VERTEX
8
0
62
5
10
0.11313708
20
0.21773351
30
0
70
32
0
VERTEX
8
0
62
5
10
0.14116485
20
0.23027925
30
0
70
32
0
VERTEX
8
0
62
5
10
0.14142136
20
0.21773351
30
0
70
32
0
VERTEX
8
0
62
5
10
0.16944912
20
0.23027925
30
0
70
32
0
VERTEX
8
0
62
5
10
0.16970563
20
0.21773351
30
0
70
32
0
VERTEX
8
0
62
5
10
0.19773339
20
0.23027925
30
0
70
32
0
VERTEX
8
0
62
5
10
0.1979899
20
0.21773351
30
0
70
32
0
VERTEX
8
0
62
5
10
0.22601766
20
0.23027925
30
0
70
32
0
VERTEX
8
0
62
5
10
0.22627417
20
0.21773351
30
0
70
32
0
SEQEND
8
0
0
POLYLINE
8
0
62
5
66
1
10
0
20
0
30
0
70
8
0
VERTEX
8
0
62
5
10
0.14142136
20
0.21773351
30
0
70
32
0
VERTEX
8
0
62
5
10
0.14142136
20
0.21773351
30
0
70
32
0
SEQEND
8
0
0
POLYLINE
8
0
62
5
66
1
10
0
20
0
30
0
70
8
0
VERTEX
8
0
62
5
10
0.16970563
20
0.21773351
30
0
70
32
0
VERTEX
8
0
62
5
10
0.16970563
20
0.21773351
30
0
70
32
0
SEQEND
8
0
0
POLYLINE
8
0
62
5
66
1
10
0
20
0
30
0
70
8
0
VERTEX
8
0
62
5
10
0.1979899
20
0.21773351
30
0
70
32
0
VERTEX
8
0
62
5
10
0.1979899
20
0.21773351
30
0
70
32
0
SEQEND
8
0
0
POLYLINE
8
0
62
5
66
1
10
0
20
0
30
0
70
8
0
VERTEX
8
0
62
5
10
0.14116485
20
0.23027925
30
0
70
32
0
VERTEX
8
0
62
5
10
0.14116485
20
0.23027925
30
0
70
32
0
SEQEND
8
0
0
POLYLINE
8
0
62
5
66
1
10
0
20
0
30
0
70
8
0
VERTEX
8
0
62
5
10
0.16944912
20
0.23027925
30
0
70
32
0
VERTEX
8
0
62
5
10
0.16944912
20
0.23027925
30
0
70
32
0
SEQEND
8
0
0
POLYLINE
8
0
62
5
66
1
10
0
20
0
30
0
70
8
0
VERTEX
8
0
62
5
10
0.19773339
20
0.23027925
30
0
70
32
0
VERTEX
8
0
62
5
10
0.19773339
20
0.23027925
30
0
70
32
0
SEQEND
8
0
0
POLYLINE
8
0
62
5
66
1
10
0
20
0
30
0
70
8
0
VERTEX
8
0
62
5
10
0.22601766
20
0.23027925
30
0
70
32
0
VERTEX
8
0
62
5
10
0.22601766
20
0.23027925
30
0
70
32
0
SEQEND
8
0
0
POLYLINE
8
0
62
30
66
1
10
0
20
0
30
0
70
8
0
VERTEX
8
0
62
30
10
-0.11313708
20
0.21773351
30
0
70
32
0
VERTEX
8
0
62
30
10
0
20
0.21773351
30
0
70
32
0
SEQEND
8
0
0
POLYLINE
8
0
62
5
66
1
10
0
20
0
30
0
70
8
0
VERTEX
8
0
62
5
10
-0.11313708
20
0.21773351
30
0
70
32
0
VERTEX
8
0
62
5
10
-0.085109325
20
0.23027925
30
0
70
32
0
VERTEX
8
0
62
5
10
-0.084852814
20
0.21773351
30
0
70
32
0
VERTEX
8
0
62
5
10
-0.056825053
20
0.23027925
30
0
70
32
0
VERTEX
8
0
62
5
10
-0.056568542
20
0.21773351
30
0
70
32
0
VERTEX
8
0
62
5
10
-0.028540782
20
0.23027925
30
0
70
32
0
VERTEX
8
0
62
5
10
-0.028284271
20
0.21773351
30
0
70
32
0
VERTEX
8
0
62
5
10
-0.00025651096
20
0.23027925
30
0
70
32
0
VERTEX
8
0
62
5
10
0
20
0.21773351
30
0
70
32
0
SEQEND
8
0
0
POLYLINE
8
0
62
5
66
1
10
0
20
0
30
0
70
8
0
VERTEX
8
0
62
5
10
-0.084852814
20
0.21773351
30
0
70
32
0
VERTEX
8
0
62
5
10
-0.084852814
20
0.21773351
30
0
70
32
0
SEQEND
8
0
0
POLYLINE
8
0
62
5
66
1
10
0
20
0
30
0
70
8
0
VERTEX
8
0
62
5
10
-0.056568542
20
0.21773351
30
0
70
32
0
VERTEX
8
0
62
5
10
-0.056568542
20
0.21773351
30
0
70
32
0
SEQEND
8
0
0
POLYLINE
8
0
62
5
66
1
10
0
20
0
30
0
70
8
0
VERTEX
8
0
62
5
10
-0.028284271
20
0.21773351
30
0
70
32
0
VERTEX
8
0
62
5
10
-0.028284271
20
0.21773351
30
0
70
32
0
SEQEND
8
0
0
POLYLINE
8
0
62
5
66
1
10
0
20
0
30
0
70
8
0
VERTEX
8
0
62
5
10
-0.085109325
20
0.23027925
30
0
70
32
0
VERTEX
8
0
62
5
10
-0.085109325
20
0.23027925
30
0
70
32
0
SEQEND
8
0
0
POLYLINE
8
0
62
5
66
1
10
0
20
0
30
0
70
8
0
VERTEX
8
0
62
5
10
-0.056825053
20
0.23027925
30
0
70
32
0
VERTEX
8
0
62
5
10
-0.056825053
20
0.23027925
30
0
70
32
0
SEQEND
8
0
0
POLYLINE
8
0
62
5
66
1
10
0
20
0
30
0
70
8
0
VERTEX
8
0
62
5
10
-0.028540782
20
0.23027925
30
0
70
32
0
VERTEX
8
0
62
5
10
-0.028540782
20
0.23027925
30
0
70
32
0
SEQEND
8
0
0
POLYLINE
8
0
62
5
66
1
10
0
20
0
30
0
70
8
0
VERTEX
8
0
62
5
10
-0.00025651096
20
0.23027925
30
0
70
32
0
VERTEX
8
0
62
5
10
-0.00025651096
20
0.23027925
30
0
70
32
0
SEQEND
8
0
0
POLYLINE
8
0
62
5
66
1
10
0
20
0
30
0
70
8
0
VERTEX
8
0
62
5
10
-0.028540782
20
0.23027925
30
0
70
32
0
VERTEX
8
0
62
5
10
-0.028540782
20
0.28045209
30
0
70
32
0
SEQEND
8
0
0
POLYLINE
8
0
62
5
66
1
10
0
20
0
30
0
70
8
0
VERTEX
8
0
62
5
10
0.084596303
20
0.23027925
30
0
70
32
0
VERTEX
8
0
62
5
10
0.084596303
20
0.28045209
30
0
70
32
0
SEQEND
8
0
0
POLYLINE
8
0
62
5
66
1
10
0
20
0
30
0
70
8
0
VERTEX
8
0
62
5
10
-0.00025651096
20
0.23027925
30
0
70
32
0
VERTEX
8
0
62
5
10
-0.00025651096
20
0.28045209
30
0
70
32
0
SEQEND
8
0
0
POLYLINE
8
0
62
5
66
1
10
0
20
0
30
0
70
8
0
VERTEX
8
0
62
5
10
0.02802776
20
0.23027925
30
0
70
32
0
VERTEX
8
0
62
5
10
0.02802776
20
0.28045209
30
0
70
32
0
SEQEND
8
0
0
POLYLINE
8
0
62
5
66
1
10
0
20
0
30
0
70
8
0
VERTEX
8
0
62
5
10
0.056312032
20
0.23027925
30
0
70
32
0
VERTEX
8
0
62
5
10
0.056312032
20
0.28045209
30
0
70
32
0
SEQEND
8
0
0
POLYLINE
8
0
62
5
66
1
10
0
20
0
30
0
70
8
0
VERTEX
8
0
62
5
10
0.19773339
20
0.23027925
30
0
70
32
0
VERTEX
8
0
62
5
10
0.19773339
20
0.28045209
30
0
70
32
0
SEQEND
8
0
0
POLYLINE
8
0
62
5
66
1
10
0
20
0
30
0
70
8
0
VERTEX
8
0
62
5
10
0.11288057
20
0.23027925
30
0
70
32
0
VERTEX
8
0
62
5
10
0.11288057
20
0.28045209
30
0
70
32
0
SEQEND
8
0
0
POLYLINE
8
0
62
5
66
1
10
0
20
0
30
0
70
8
0
VERTEX
8
0
62
5
10
0.14116485
20
0.23027925
30
0
70
32
0
VERTEX
8
0
62
5
10
0.14116485
20
0.28045209
30
0
70
32
0
SEQEND
8
0
0
POLYLINE
8
0
62
5
66
1
10
0
20
0
30
0
70
8
0
VERTEX
8
0
62
5
10
0.16944912
20
0.23027925
30
0
70
32
0
VERTEX
8
0
62
5
10
0.16944912
20
0.28045209
30
0
70
32
0
SEQEND
8
0
0
POLYLINE
8
0
62
5
66
1
10
0
20
0
30
0
70
8
0
VERTEX
8
0
62
5
10
-0.14167787
20
0.23027925
30
0
70
32
0
VERTEX
8
0
62
5
10
-0.14167787
20
0.28045209
30
0
70
32
0
SEQEND
8
0
0
POLYLINE
8
0
62
5
66
1
10
0
20
0
30
0
70
8
0
VERTEX
8
0
62
5
10
-0.1133936
20
0.23027925
30
0
70
32
0
VERTEX
8
0
62
5
10
-0.1133936
20
0.28045209
30
0
70
32
0
SEQEND
8
0
0
POLYLINE
8
0
62
5
66
1
10
0
20
0
30
0
70
8
0
VERTEX
8
0
62
5
10
-0.085109325
20
0.23027925
30
0
70
32
0
VERTEX
8
0
62
5
10
-0.085109325
20
0.28045209
30
0
70
32
0
SEQEND
8
0
0
POLYLINE
8
0
62
5
66
1
10
0
20
0
30
0
70
8
0
VERTEX
8
0
62
5
10
-0.056825053
20
0.23027925
30
0
70
32
0
VERTEX
8
0
62
5
10
-0.056825053
20
0.28045209
30
0
70
32
0
SEQEND
8
0
0
POLYLINE
8
0
62
5
66
1
10
0
20
0
30
0
70
8
0
VERTEX
8
0
62
5
10
-0.028540782
20
0.28045209
30
0
70
32
0
VERTEX
8
0
62
5
10
-0.028540782
20
0.29768023
30
0
70
32
0
SEQEND
8
0
0
POLYLINE
8
0
62
5
66
1
10
0
20
0
30
0
70
8
0
VERTEX
8
0
62
5
10
0.084596303
20
0.29768023
30
0
70
32
0
VERTEX
8
0
62
5
10
0.084596303
20
0.28045209
30
0
70
32
0
SEQEND
8
0
0
POLYLINE
8
0
62
5
66
1
10
0
20
0
30
0
70
8
0
VERTEX
8
0
62
5
10
-0.028540782
20
0.28201058
30
0
70
32
0
VERTEX
8
0
62
5
10
-0.00025651096
20
0.28906616
30
0
70
32
0
VERTEX
8
0
62
5
10
0.02802776
20
0.28887534
30
0
70
32
0
VERTEX
8
0
62
5
10
0.056312032
20
0.28181976
30
0
70
32
0
VERTEX
8
0
62
5
10
0.084596303
20
0.28201058
30
0
70
32
0
SEQEND
8
0
0
POLYLINE
8
0
62
5
66
1
10
0
20
0
30
0
70
8
0
SEQEND
8
0
0
POLYLINE
8
0
62
5
66
1
10
0
20
0
30
0
70
8
0
VERTEX
8
0
62
5
10
-0.028540782
20
0.29612174
30
0
70
32
0
VERTEX
8
0
62
5
10
-0.00025651096
20
0.28906616
30
0
70
32
0
VERTEX
8
0
62
5
10
0.02802776
20
0.28925698
30
0
70
32
0
VERTEX
8
0
62
5
10
0.056312032
20
0.29631256
30
0
70
32
0
VERTEX
8
0
62
5
10
0.084596303
20
0.29612174
30
0
70
32
0
SEQEND
8
0
0
POLYLINE
8
0
62
30
66
1
10
0
20
0
30
0
70
8
0
VERTEX
8
0
62
30
10
-0.028540782
20
0.28906616
30
0
70
32
0
VERTEX
8
0
62
30
10
0.084596303
20
0.28906616
30
0
70
32
0
SEQEND
8
0
0
POLYLINE
8
0
62
30
66
1
10
0
20
0
30
0
70
8
0
VERTEX
8
0
62
30
10
-0.00025651096
20
0.28906616
30
0
70
32
0
VERTEX
8
0
62
30
10
-0.00025651096
20
0.28906616
30
0
70
32
0
SEQEND
8
0
0
POLYLINE
8
0
62
30
66
1
10
0
20
0
30
0
70
8
0
VERTEX
8
0
62
30
10
0.02802776
20
0.28887534
30
0
70
32
0
VERTEX
8
0
62
30
10
0.02802776
20
0.28906616
30
0
70
32
0
SEQEND
8
0
0
POLYLINE
8
0
62
30
66
1
10
0
20
0
30
0
70
8
0
VERTEX
8
0
62
30
10
0.056312032
20
0.28181976
30
0
70
32
0
VERTEX
8
0
62
30
10
0.056312032
20
0.28906616
30
0
70
32
0
SEQEND
8
0
0
POLYLINE
8
0
62
5
66
1
10
0
20
0
30
0
70
8
0
VERTEX
8
0
62
5
10
-0.00025651096
20
0.28045209
30
0
70
32
0
VERTEX
8
0
62
5
10
-0.00025651096
20
0.28906616
30
0
70
32
0
SEQEND
8
0
0
POLYLINE
8
0
62
5
66
1
10
0
20
0
30
0
70
8
0
VERTEX
8
0
62
5
10
0.02802776
20
0.28045209
30
0
70
32
0
VERTEX
8
0
62
5
10
0.02802776
20
0.28887534
30
0
70
32
0
SEQEND
8
0
0
POLYLINE
8
0
62
5
66
1
10
0
20
0
30
0
70
8
0
VERTEX
8
0
62
5
10
0.056312032
20
0.28045209
30
0
70
32
0
VERTEX
8
0
62
5
10
0.056312032
20
0.28181976
30
0
70
32
0
SEQEND
8
0
0
POLYLINE
8
0
62
5
66
1
10
0
20
0
30
0
70
8
0
VERTEX
8
0
62
5
10
-0.00025651096
20
0.28906616
30
0
70
32
0
VERTEX
8
0
62
5
10
-0.00025651096
20
0.29768023
30
0
70
32
0
SEQEND
8
0
0
POLYLINE
8
0
62
5
66
1
10
0
20
0
30
0
70
8
0
VERTEX
8
0
62
5
10
0.02802776
20
0.28906616
30
0
70
32
0
VERTEX
8
0
62
5
10
0.02802776
20
0.29768023
30
0
70
32
0
SEQEND
8
0
0
POLYLINE
8
0
62
5
66
1
10
0
20
0
30
0
70
8
0
VERTEX
8
0
62
5
10
0.056312032
20
0.28906616
30
0
70
32
0
VERTEX
8
0
62
5
10
0.056312032
20
0.29768023
30
0
70
32
0
SEQEND
8
0
0
POLYLINE
8
0
62
5
66
1
10
0
20
0
30
0
70
8
0
VERTEX
8
0
62
5
10
0.19773339
20
0.29768023
30
0
70
32
0
VERTEX
8
0
62
5
10
0.19773339
20
0.28045209
30
0
70
32
0
SEQEND
8
0
0
POLYLINE
8
0
62
5
66
1
10
0
20
0
30
0
70
8
0
VERTEX
8
0
62
5
10
0.084596303
20
0.28201058
30
0
70
32
0
VERTEX
8
0
62
5
10
0.11288057
20
0.28906616
30
0
70
32
0
VERTEX
8
0
62
5
10
0.14116485
20
0.28887534
30
0
70
32
0
VERTEX
8
0
62
5
10
0.16944912
20
0.28181976
30
0
70
32
0
VERTEX
8
0
62
5
10
0.19773339
20
0.28201058
30
0
70
32
0
SEQEND
8
0
0
POLYLINE
8
0
62
5
66
1
10
0
20
0
30
0
70
8
0
SEQEND
8
0
0
POLYLINE
8
0
62
5
66
1
10
0
20
0
30
0
70
8
0
VERTEX
8
0
62
5
10
0.084596303
20
0.29612174
30
0
70
32
0
VERTEX
8
0
62
5
10
0.11288057
20
0.28906616
30
0
70
32
0
VERTEX
8
0
62
5
10
0.14116485
20
0.28925698
30
0
70
32
0
VERTEX
8
0
62
5
10
0.16944912
20
0.29631256
30
0
70
32
0
VERTEX
8
0
62
5
10
0.19773339
20
0.29612174
30
0
70
32
0
SEQEND
8
0
0
POLYLINE
8
0
62
30
66
1
10
0
20
0
30
0
70
8
0
VERTEX
8
0
62
30
10
0.084596303
20
0.28906616
30
0
70
32
0
VERTEX
8
0
62
30
10
0.19773339
20
0.28906616
30
0
70
32
0
SEQEND
8
0
0
POLYLINE
8
0
62
30
66
1
10
0
20
0
30
0
70
8
0
VERTEX
8
0
62
30
10
0.11288057
20
0.28906616
30
0
70
32
0
VERTEX
8
0
62
30
10
0.11288057
20
0.28906616
30
0
70
32
0
SEQEND
8
0
0
POLYLINE
8
0
62
30
66
1
10
0
20
0
30
0
70
8
0
VERTEX
8
0
62
30
10
0.14116485
20
0.28887534
30
0
70
32
0
VERTEX
8
0
62
30
10
0.14116485
20
0.28906616
30
0
70
32
0
SEQEND
8
0
0
POLYLINE
8
0
62
30
66
1
10
0
20
0
30
0
70
8
0
VERTEX
8
0
62
30
10
0.16944912
20
0.28181976
30
0
70
32
0
VERTEX
8
0
62
30
10
0.16944912
20
0.28906616
30
0
70
32
0
SEQEND
8
0
0
POLYLINE
8
0
62
5
66
1
10
0
20
0
30
0
70
8
0
VERTEX
8
0
62
5
10
0.11288057
20
0.28045209
30
0
70
32
0
VERTEX
8
0
62
5
10
0.11288057
20
0.28906616
30
0
70
32
0
SEQEND
8
0
0
POLYLINE
8
0
62
5
66
1
10
0
20
0
30
0
70
8
0
VERTEX
8
0
62
5
10
0.14116485
20
0.28045209
30
0
70
32
0
VERTEX
8
0
62
5
10
0.14116485
20
0.28887534
30
0
70
32
0
SEQEND
8
0
0
POLYLINE
8
0
62
5
66
1
10
0
20
0
30
0
70
8
0
VERTEX
8
0
62
5
10
0.16944912
20
0.28045209
30
0
70
32
0
VERTEX
8
0
62
5
10
0.16944912
20
0.28181976
30
0
70
32
0
SEQEND
8
0
0
POLYLINE
8
0
62
5
66
1
10
0
20
0
30
0
70
8
0
VERTEX
8
0
62
5
10
0.11288057
20
0.28906616
30
0
70
32
0
VERTEX
8
0
62
5
10
0.11288057
20
0.29768023
30
0
70
32
0
SEQEND
8
0
0
POLYLINE
8
0
62
5
66
1
10
0
20
0
30
0
70
8
0
VERTEX
8
0
62
5
10
0.14116485
20
0.28906616
30
0
70
32
0
VERTEX
8
0
62
5
10
0.14116485
20
0.29768023
30
0
70
32
0
SEQEND
8
0
0
POLYLINE
8
0
62
5
66
1
10
0
20
0
30
0
70
8
0
VERTEX
8
0
62
5
10
0.16944912
20
0.28906616
30
0
70
32
0
VERTEX
8
0
62
5
10
0.16944912
20
0.29768023
30
0
70
32
0
SEQEND
8
0
0
POLYLINE
8
0
62
5
66
1
10
0
20
0
30
0
70
8
0
VERTEX
8
0
62
5
10
-0.14167787
20
0.28045209
30
0
70
32
0
VERTEX
8
0
62
5
10
-0.14167787
20
0.29768023
30
0
70
32
0
SEQEND
8
0
0
POLYLINE
8
0
62
5
66
1
10
0
20
0
30
0
70
8
0
VERTEX
8
0
62
5
10
-0.14167787
20
0.28201058
30
0
70
32
0
VERTEX
8
0
62
5
10
-0.1133936
20
0.28906616
30
0
70
32
0
VERTEX
8
0
62
5
10
-0.085109325
20
0.28887534
30
0
70
32
0
VERTEX
8
0
62
5
10
-0.056825053
20
0.28181976
30
0
70
32
0
VERTEX
8
0
62
5
10
-0.028540782
20
0.28201058
30
0
70
32
0
SEQEND
8
0
0
POLYLINE
8
0
62
5
66
1
10
0
20
0
30
0
70
8
0
SEQEND
8
0
0
POLYLINE
8
0
62
5
66
1
10
0
20
0
30
0
70
8
0
VERTEX
8
0
62
5
10
-0.14167787
20
0.29612174
30
0
70
32
0
VERTEX
8
0
62
5
10
-0.1133936
20
0.28906616
30
0
70
32
0
VERTEX
8
0
62
5
10
-0.085109325
20
0.28925698
30
0
70
32
0
VERTEX
8
0
62
5
10
-0.056825053
20
0.29631256
30
0
70
32
0
VERTEX
8
0
62
5
10
-0.028540782
20
0.29612174
30
0
70
32
0
SEQEND
8
0
0
POLYLINE
8
0
62
30
66
1
10
0
20
0
30
0
70
8
0
VERTEX
8
0
62
30
10
-0.14167787
20
0.28906616
30
0
70
32
0
VERTEX
8
0
62
30
10
-0.028540782
20
0.28906616
30
0
70
32
0
SEQEND
8
0
0
POLYLINE
8
0
62
30
66
1
10
0
20
0
30
0
70
8
0
VERTEX
8
0
62
30
10
-0.1133936
20
0.28906616
30
0
70
32
0
VERTEX
8
0
62
30
10
-0.1133936
20
0.28906616
30
0
70
32
0
SEQEND
8
0
0
POLYLINE
8
0
62
30
66
1
10
0
20
0
30
0
70
8
0
VERTEX
8
0
62
30
10
-0.085109325
20
0.28887534
30
0
70
32
0
VERTEX
8
0
62
30
10
-0.085109325
20
0.28906616
30
0
70
32
0
SEQEND
8
0
0
POLYLINE
8
0
62
30
66
1
10
0
20
0
30
0
70
8
0
VERTEX
8
0
62
30
10
-0.056825053
20
0.28181976
30
0
70
32
0
VERTEX
8
0
62
30
10
-0.056825053
20
0.28906616
30
0
70
32
0
SEQEND
8
0
0
POLYLINE
8
0
62
5
66
1
10
0
20
0
30
0
70
8
0
VERTEX
8
0
62
5
10
-0.1133936
20
0.28045209
30
0
70
32
0
VERTEX
8
0
62
5
10
-0.1133936
20
0.28906616
30
0
70
32
0
SEQEND
8
0
0
POLYLINE
8
0
62
5
66
1
10
0
20
0
30
0
70
8
0
VERTEX
8
0
62
5
10
-0.085109325
20
0.28045209
30
0
70
32
0
VERTEX
8
0
62
5
10
-0.085109325
20
0.28887534
30
0
70
32
0
SEQEND
8
0
0
POLYLINE
8
0
62
5
66
1
10
0
20
0
30
0
70
8
0
VERTEX
8
0
62
5
10
-0.056825053
20
0.28045209
30
0
70
32
0
VERTEX
8
0
62
5
10
-0.056825053
20
0.28181976
30
0
70
32
0
SEQEND
8
0
0
POLYLINE
8
0
62
5
66
1
10
0
20
0
30
0
70
8
0
VERTEX
8
0
62
5
10
-0.1133936
20
0.28906616
30
0
70
32
0
VERTEX
8
0
62
5
10
-0.1133936
20
0.29768023
30
0
70
32
0
SEQEND
8
0
0
POLYLINE
8
0
62
5
66
1
10
0
20
0
30
0
70
8
0
VERTEX
8
0
62
5
10
-0.085109325
20
0.28906616
30
0
70
32
0
VERTEX
8
0
62
5
10
-0.085109325
20
0.29768023
30
0
70
32
0
SEQEND
8
0
0
POLYLINE
8
0
62
5
66
1
10
0
20
0
30
0
70
8
0
VERTEX
8
0
62
5
10
-0.056825053
20
0.28906616
30
0
70
32
0
VERTEX
8
0
62
5
10
-0.056825053
20
0.29768023
30
0
70
32
0
SEQEND
8
0
0
POLYLINE
8
0
62
5
66
1
10
0
20
0
30
0
70
8
0
VERTEX
8
0
62
5
10
-0.028540782
20
0.29768023
30
0
70
32
0
VERTEX
8
0
62
5
10
-0.028540782
20
0.48243232
30
0
70
32
0
SEQEND
8
0
0
POLYLINE
8
0
62
5
66
1
10
0
20
0
30
0
70
8
0
VERTEX
8
0
62
5
10
0.084596303
20
0.48243232
30
0
70
32
0
VERTEX
8
0
62
5
10
0.084596303
20
0.29768023
30
0
70
32
0
SEQEND
8
0
0
POLYLINE
8
0
62
30
66
1
10
0
20
0
30
0
70
8
0
VERTEX
8
0
62
30
10
-0.028540782
20
0.4362443
30
0
70
32
0
VERTEX
8
0
62
30
10
0.084596303
20
0.4362443
30
0
70
32
0
SEQEND
8
0
0
POLYLINE
8
0
62
30
66
1
10
0
20
0
30
0
70
8
0
VERTEX
8
0
62
30
10
-0.028540782
20
0.39005627
30
0
70
32
0
VERTEX
8
0
62
30
10
0.084596303
20
0.39005627
30
0
70
32
0
SEQEND
8
0
0
POLYLINE
8
0
62
30
66
1
10
0
20
0
30
0
70
8
0
VERTEX
8
0
62
30
10
-0.028540782
20
0.41315029
30
0
70
32
0
VERTEX
8
0
62
30
10
0.084596303
20
0.41315029
30
0
70
32
0
SEQEND
8
0
0
POLYLINE
8
0
62
5
66
1
10
0
20
0
30
0
70
8
0
VERTEX
8
0
62
5
10
-0.028540782
20
0.34386825
30
0
70
32
0
VERTEX
8
0
62
5
10
0.084596303
20
0.34386825
30
0
70
32
0
SEQEND
8
0
0
POLYLINE
8
0
62
5
66
1
10
0
20
0
30
0
70
8
0
VERTEX
8
0
62
5
10
-0.00025651096
20
0.29768023
30
0
70
32
0
VERTEX
8
0
62
5
10
-0.00025651096
20
0.39005627
30
0
70
32
0
SEQEND
8
0
0
POLYLINE
8
0
62
5
66
1
10
0
20
0
30
0
70
8
0
VERTEX
8
0
62
5
10
0.02802776
20
0.29768023
30
0
70
32
0
VERTEX
8
0
62
5
10
0.02802776
20
0.39005627
30
0
70
32
0
SEQEND
8
0
0
POLYLINE
8
0
62
5
66
1
10
0
20
0
30
0
70
8
0
VERTEX
8
0
62
5
10
0.056312032
20
0.29768023
30
0
70
32
0
VERTEX
8
0
62
5
10
0.056312032
20
0.39005627
30
0
70
32
0
SEQEND
8
0
0
POLYLINE
8
0
62
5
66
1
10
0
20
0
30
0
70
8
0
VERTEX
8
0
62
5
10
-0.00025651096
20
0.4362443
30
0
70
32
0
VERTEX
8
0
62
5
10
-0.00025651096
20
0.48243232
30
0
70
32
0
SEQEND
8
0
0
POLYLINE
8
0
62
5
66
1
10
0
20
0
30
0
70
8
0
VERTEX
8
0
62
5
10
0.02802776
20
0.4362443
30
0
70
32
0
VERTEX
8
0
62
5
10
0.02802776
20
0.48243232
30
0
70
32
0
SEQEND
8
0
0
POLYLINE
8
0
62
5
66
1
10
0
20
0
30
0
70
8
0
VERTEX
8
0
62
5
10
0.056312032
20
0.4362443
30
0
70
32
0
VERTEX
8
0
62
5
10
0.056312032
20
0.48243232
30
0
70
32
0
SEQEND
8
0
0
POLYLINE
8
0
62
30
66
1
10
0
20
0
30
0
70
8
0
VERTEX
8
0
62
30
10
-0.00025651096
20
0.39005627
30
0
70
32
0
VERTEX
8
0
62
30
10
-0.00025651096
20
0.4362443
30
0
70
32
0
SEQEND
8
0
0
POLYLINE
8
0
62
30
66
1
10
0
20
0
30
0
70
8
0
VERTEX
8
0
62
30
10
0.02802776
20
0.39005627
30
0
70
32
0
VERTEX
8
0
62
30
10
0.02802776
20
0.4362443
30
0
70
32
0
SEQEND
8
0
0
POLYLINE
8
0
62
30
66
1
10
0
20
0
30
0
70
8
0
VERTEX
8
0
62
30
10
0.056312032
20
0.39005627
30
0
70
32
0
VERTEX
8
0
62
30
10
0.056312032
20
0.4362443
30
0
70
32
0
SEQEND
8
0
0
POLYLINE
8
0
62
30
66
1
10
0
20
0
30
0
70
8
0
VERTEX
8
0
62
30
10
0.084596303
20
0.39005627
30
0
70
32
0
VERTEX
8
0
62
30
10
0.084596303
20
0.4362443
30
0
70
32
0
SEQEND
8
0
0
POLYLINE
8
0
62
5
66
1
10
0
20
0
30
0
70
8
0
VERTEX
8
0
62
5
10
-0.00025651096
20
0.39005627
30
0
70
32
0
VERTEX
8
0
62
5
10
-0.0050394372
20
0.40160328
30
0
70
32
0
VERTEX
8
0
62
5
10
-0.00025651096
20
0.41315029
30
0
70
32
0
VERTEX
8
0
62
5
10
-0.0050394372
20
0.42469729
30
0
70
32
0
VERTEX
8
0
62
5
10
-0.00025651096
20
0.4362443
30
0
70
32
0
SEQEND
8
0
0
POLYLINE
8
0
62
5
66
1
10
0
20
0
30
0
70
8
0
VERTEX
8
0
62
5
10
0.02802776
20
0.39005627
30
0
70
32
0
VERTEX
8
0
62
5
10
0.023244834
20
0.40160328
30
0
70
32
0
VERTEX
8
0
62
5
10
0.02802776
20
0.41315029
30
0
70
32
0
VERTEX
8
0
62
5
10
0.023244834
20
0.42469729
30
0
70
32
0
VERTEX
8
0
62
5
10
0.02802776
20
0.4362443
30
0
70
32
0
SEQEND
8
0
0
POLYLINE
8
0
62
5
66
1
10
0
20
0
30
0
70
8
0
VERTEX
8
0
62
5
10
0.056312032
20
0.39005627
30
0
70
32
0
VERTEX
8
0
62
5
10
0.051529105
20
0.40160328
30
0
70
32
0
VERTEX
8
0
62
5
10
0.056312032
20
0.41315029
30
0
70
32
0
VERTEX
8
0
62
5
10
0.051529105
20
0.42469729
30
0
70
32
0
VERTEX
8
0
62
5
10
0.056312032
20
0.4362443
30
0
70
32
0
SEQEND
8
0
0
POLYLINE
8
0
62
5
66
1
10
0
20
0
30
0
70
8
0
VERTEX
8
0
62
5
10
0.084596303
20
0.39005627
30
0
70
32
0
VERTEX
8
0
62
5
10
0.079813377
20
0.40160328
30
0
70
32
0
VERTEX
8
0
62
5
10
0.084596303
20
0.41315029
30
0
70
32
0
VERTEX
8
0
62
5
10
0.079813377
20
0.42469729
30
0
70
32
0
VERTEX
8
0
62
5
10
0.084596303
20
0.4362443
30
0
70
32
0
SEQEND
8
0
0
POLYLINE
8
0
62
5
66
1
10
0
20
0
30
0
70
8
0
VERTEX
8
0
62
5
10
-0.028540782
20
0.40160328
30
0
70
32
0
VERTEX
8
0
62
5
10
-0.0050394372
20
0.40160328
30
0
70
32
0
SEQEND
8
0
0
POLYLINE
8
0
62
5
66
1
10
0
20
0
30
0
70
8
0
VERTEX
8
0
62
5
10
-0.028540782
20
0.42469729
30
0
70
32
0
VERTEX
8
0
62
5
10
-0.0050394372
20
0.42469729
30
0
70
32
0
SEQEND
8
0
0
POLYLINE
8
0
62
5
66
1
10
0
20
0
30
0
70
8
0
VERTEX
8
0
62
5
10
-0.00025651096
20
0.40160328
30
0
70
32
0
VERTEX
8
0
62
5
10
0.023244834
20
0.40160328
30
0
70
32
0
SEQEND
8
0
0
POLYLINE
8
0
62
5
66
1
10
0
20
0
30
0
70
8
0
VERTEX
8
0
62
5
10
-0.00025651096
20
0.42469729
30
0
70
32
0
VERTEX
8
0
62
5
10
0.023244834
20
0.42469729
30
0
70
32
0
SEQEND
8
0
0
POLYLINE
8
0
62
5
66
1
10
0
20
0
30
0
70
8
0
VERTEX
8
0
62
5
10
0.02802776
20
0.40160328
30
0
70
32
0
VERTEX
8
0
62
5
10
0.051529105
20
0.40160328
30
0
70
32
0
SEQEND
8
0
0
POLYLINE
8
0
62
5
66
1
10
0
20
0
30
0
70
8
0
VERTEX
8
0
62
5
10
0.02802776
20
0.42469729
30
0
70
32
0
VERTEX
8
0
62
5
10
0.051529105
20
0.42469729
30
0
70
32
0
SEQEND
8
0
0
POLYLINE
8
0
62
5
66
1
10
0
20
0
30
0
70
8
0
VERTEX
8
0
62
5
10
0.056312032
20
0.40160328
30
0
70
32
0
VERTEX
8
0
62
5
10
0.079813377
20
0.40160328
30
0
70
32
0
SEQEND
8
0
0
POLYLINE
8
0
62
5
66
1
10
0
20
0
30
0
70
8
0
VERTEX
8
0
62
5
10
0.056312032
20
0.42469729
30
0
70
32
0
VERTEX
8
0
62
5
10
0.079813377
20
0.42469729
30
0
70
32
0
SEQEND
8
0
0
POLYLINE
8
0
62
30
66
1
10
0
20
0
30
0
70
8
0
VERTEX
8
0
62
30
10
-0.0050394372
20
0.40160328
30
0
70
32
0
VERTEX
8
0
62
30
10
-0.00025651096
20
0.40160328
30
0
70
32
0
SEQEND
8
0
0
POLYLINE
8
0
62
30
66
1
10
0
20
0
30
0
70
8
0
VERTEX
8
0
62
30
10
-0.0050394372
20
0.42469729
30
0
70
32
0
VERTEX
8
0
62
30
10
-0.00025651096
20
0.42469729
30
0
70
32
0
SEQEND
8
0
0
POLYLINE
8
0
62
30
66
1
10
0
20
0
30
0
70
8
0
VERTEX
8
0
62
30
10
0.023244834
20
0.40160328
30
0
70
32
0
VERTEX
8
0
62
30
10
0.02802776
20
0.40160328
30
0
70
32
0
SEQEND
8
0
0
POLYLINE
8
0
62
30
66
1
10
0
20
0
30
0
70
8
0
VERTEX
8
0
62
30
10
0.023244834
20
0.42469729
30
0
70
32
0
VERTEX
8
0
62
30
10
0.02802776
20
0.42469729
30
0
70
32
0
SEQEND
8
0
0
POLYLINE
8
0
62
30
66
1
10
0
20
0
30
0
70
8
0
VERTEX
8
0
62
30
10
0.051529105
20
0.40160328
30
0
70
32
0
VERTEX
8
0
62
30
10
0.056312032
20
0.40160328
30
0
70
32
0
SEQEND
8
0
0
POLYLINE
8
0
62
30
66
1
10
0
20
0
30
0
70
8
0
VERTEX
8
0
62
30
10
0.051529105
20
0.42469729
30
0
70
32
0
VERTEX
8
0
62
30
10
0.056312032
20
0.42469729
30
0
70
32
0
SEQEND
8
0
0
POLYLINE
8
0
62
30
66
1
10
0
20
0
30
0
70
8
0
VERTEX
8
0
62
30
10
0.079813377
20
0.40160328
30
0
70
32
0
VERTEX
8
0
62
30
10
0.084596303
20
0.40160328
30
0
70
32
0
SEQEND
8
0
0
POLYLINE
8
0
62
30
66
1
10
0
20
0
30
0
70
8
0
VERTEX
8
0
62
30
10
0.079813377
20
0.42469729
30
0
70
32
0
VERTEX
8
0
62
30
10
0.084596303
20
0.42469729
30
0
70
32
0
SEQEND
8
0
0
POLYLINE
8
0
62
5
66
1
10
0
20
0
30
0
70
8
0
VERTEX
8
0
62
5
10
0.19773339
20
0.48243232
30
0
70
32
0
VERTEX
8
0
62
5
10
0.19773339
20
0.29768023
30
0
70
32
0
SEQEND
8
0
0
POLYLINE
8
0
62
30
66
1
10
0
20
0
30
0
70
8
0
VERTEX
8
0
62
30
10
0.084596303
20
0.4362443
30
0
70
32
0
VERTEX
8
0
62
30
10
0.19773339
20
0.4362443
30
0
70
32
0
SEQEND
8
0
0
POLYLINE
8
0
62
30
66
1
10
0
20
0
30
0
70
8
0
VERTEX
8
0
62
30
10
0.084596303
20
0.39005627
30
0
70
32
0
VERTEX
8
0
62
30
10
0.19773339
20
0.39005627
30
0
70
32
0
SEQEND
8
0
0
POLYLINE
8
0
62
30
66
1
10
0
20
0
30
0
70
8
0
VERTEX
8
0
62
30
10
0.084596303
20
0.41315029
30
0
70
32
0
VERTEX
8
0
62
30
10
0.19773339
20
0.41315029
30
0
70
32
0
SEQEND
8
0
0
POLYLINE
8
0
62
5
66
1
10
0
20
0
30
0
70
8
0
VERTEX
8
0
62
5
10
0.084596303
20
0.34386825
30
0
70
32
0
VERTEX
8
0
62
5
10
0.19773339
20
0.34386825
30
0
70
32
0
SEQEND
8
0
0
POLYLINE
8
0
62
5
66
1
10
0
20
0
30
0
70
8
0
VERTEX
8
0
62
5
10
0.11288057
20
0.29768023
30
0
70
32
0
VERTEX
8
0
62
5
10
0.11288057
20
0.39005627
30
0
70
32
0
SEQEND
8
0
0
POLYLINE
8
0
62
5
66
1
10
0
20
0
30
0
70
8
0
VERTEX
8
0
62
5
10
0.14116485
20
0.29768023
30
0
70
32
0
VERTEX
8
0
62
5
10
0.14116485
20
0.39005627
30
0
70
32
0
SEQEND
8
0
0
POLYLINE
8
0
62
5
66
1
10
0
20
0
30
0
70
8
0
VERTEX
8
0
62
5
10
0.16944912
20
0.29768023
30
0
70
32
0
VERTEX
8
0
62
5
10
0.16944912
20
0.39005627
30
0
70
32
0
SEQEND
8
0
0
POLYLINE
8
0
62
5
66
1
10
0
20
0
30
0
70
8
0
VERTEX
8
0
62
5
10
0.11288057
20
0.4362443
30
0
70
32
0
VERTEX
8
0
62
5
10
0.11288057
20
0.48243232
30
0
70
32
0
SEQEND
8
0
0
POLYLINE
8
0
62
5
66
1
10
0
20
0
30
0
70
8
0
VERTEX
8
0
62
5
10
0.14116485
20
0.4362443
30
0
70
32
0
VERTEX
8
0
62
5
10
0.14116485
20
0.48243232
30
0
70
32
0
SEQEND
8
0
0
POLYLINE
8
0
62
5
66
1
10
0
20
0
30
0
70
8
0
VERTEX
8
0
62
5
10
0.16944912
20
0.4362443
30
0
70
32
0
VERTEX
8
0
62
5
10
0.16944912
20
0.48243232
30
0
70
32
0
SEQEND
8
0
0
POLYLINE
8
0
62
30
66
1
10
0
20
0
30
0
70
8
0
VERTEX
8
0
62
30
10
0.11288057
20
0.39005627
30
0
70
32
0
VERTEX
8
0
62
30
10
0.11288057
20
0.4362443
30
0
70
32
0
SEQEND
8
0
0
POLYLINE
8
0
62
30
66
1
10
0
20
0
30
0
70
8
0
VERTEX
8
0
62
30
10
0.14116485
20
0.39005627
30
0
70
32
0
VERTEX
8
0
62
30
10
0.14116485
20
0.4362443
30
0
70
32
0
SEQEND
8
0
0
POLYLINE
8
0
62
30
66
1
10
0
20
0
30
0
70
8
0
VERTEX
8
0
62
30
10
0.16944912
20
0.39005627
30
0
70
32
0
VERTEX
8
0
62
30
10
0.16944912
20
0.4362443
30
0
70
32
0
SEQEND
8
0
0
POLYLINE
8
0
62
30
66
1
10
0
20
0
30
0
70
8
0
VERTEX
8
0
62
30
10
0.19773339
20
0.39005627
30
0
70
32
0
VERTEX
8
0
62
30
10
0.19773339
20
0.4362443
30
0
70
32
0
SEQEND
8
0
0
POLYLINE
8
0
62
5
66
1
10
0
20
0
30
0
70
8
0
VERTEX
8
0
62
5
10
0.11288057
20
0.39005627
30
0
70
32
0
VERTEX
8
0
62
5
10
0.10809765
20
0.40160328
30
0
70
32
0
VERTEX
8
0
62
5
10
0.11288057
20
0.41315029
30
0
70
32
0
VERTEX
8
0
62
5
10
0.10809765
20
0.42469729
30
0
70
32
0
VERTEX
8
0
62
5
10
0.11288057
20
0.4362443
30
0
70
32
0
SEQEND
8
0
0
POLYLINE
8
0
62
5
66
1
10
0
20
0
30
0
70
8
0
VERTEX
8
0
62
5
10
0.14116485
20
0.39005627
30
0
70
32
0
VERTEX
8
0
62
5
10
0.13638192
20
0.40160328
30
0
70
32
0
VERTEX
8
0
62
5
10
0.14116485
20
0.41315029
30
0
70
32
0
VERTEX
8
0
62
5
10
0.13638192
20
0.42469729
30
0
70
32
0
VERTEX
8
0
62
5
10
0.14116485
20
0.4362443
30
0
70
32
0
SEQEND
8
0
0
POLYLINE
8
0
62
5
66
1
10
0
20
0
30
0
70
8
0
VERTEX
8
0
62
5
10
0.16944912
20
0.39005627
30
0
70
32
0
VERTEX
8
0
62
5
10
0.16466619
20
0.40160328
30
0
70
32
0
VERTEX
8
0
62
5
10
0.16944912
20
0.41315029
30
0
70
32
0
VERTEX
8
0
62
5
10
0.16466619
20
0.42469729
30
0
70
32
0
VERTEX
8
0
62
5
10
0.16944912
20
0.4362443
30
0
70
32
0
SEQEND
8
0
0
POLYLINE
8
0
62
5
66
1
10
0
20
0
30
0
70
8
0
VERTEX
8
0
62
5
10
0.19773339
20
0.39005627
30
0
70
32
0
VERTEX
8
0
62
5
10
0.19295046
20
0.40160328
30
0
70
32
0
VERTEX
8
0
62
5
10
0.19773339
20
0.41315029
30
0
70
32
0
VERTEX
8
0
62
5
10
0.19295046
20
0.42469729
30
0
70
32
0
VERTEX
8
0
62
5
10
0.19773339
20
0.4362443
30
0
70
32
0
SEQEND
8
0
0
POLYLINE
8
0
62
5
66
1
10
0
20
0
30
0
70
8
0
VERTEX
8
0
62
5
10
0.084596303
20
0.40160328
30
0
70
32
0
VERTEX
8
0
62
5
10
0.10809765
20
0.40160328
30
0
70
32
0
SEQEND
8
0
0
POLYLINE
8
0
62
5
66
1
10
0
20
0
30
0
70
8
0
VERTEX
8
0
62
5
10
0.084596303
20
0.42469729
30
0
70
32
0
VERTEX
8
0
62
5
10
0.10809765
20
0.42469729
30
0
70
32
0
SEQEND
8
0
0
POLYLINE
8
0
62
5
66
1
10
0
20
0
30
0
70
8
0
VERTEX
8
0
62
5
10
0.11288057
20
0.40160328
30
0
70
32
0
VERTEX
8
0
62
5
10
0.13638192
20
0.40160328
30
0
70
32
0
SEQEND
8
0
0
POLYLINE
8
0
62
5
66
1
10
0
20
0
30
0
70
8
0
VERTEX
8
0
62
5
10
0.11288057
20
0.42469729
30
0
70
32
0
VERTEX
8
0
62
5
10
0.13638192
20
0.42469729
30
0
70
32
0
SEQEND
8
0
0
POLYLINE
8
0
62
5
66
1
10
0
20
0
30
0
70
8
0
VERTEX
8
0
62
5
10
0.14116485
20
0.40160328
30
0
70
32
0
VERTEX
8
0
62
5
10
0.16466619
20
0.40160328
30
0
70
32
0
SEQEND
8
0
0
POLYLINE
8
0
62
5
66
1
10
0
20
0
30
0
70
8
0
VERTEX
8
0
62
5
10
0.14116485
20
0.42469729
30
0
70
32
0
VERTEX
8
0
62
5
10
0.16466619
20
0.42469729
30
0
70
32
0
SEQEND
8
0
0
POLYLINE
8
0
62
5
66
1
10
0
20
0
30
0
70
8
0
VERTEX
8
0
62
5
10
0.16944912
20
0.40160328
30
0
70
32
0
VERTEX
8
0
62
5
10
0.19295046
20
0.40160328
30
0
70
32
0
SEQEND
8
0
0
POLYLINE
8
0
62
5
66
1
10
0
20
0
30
0
70
8
0
VERTEX
8
0
62
5
10
0.16944912
20
0.42469729
30
0
70
32
0
VERTEX
8
0
62
5
10
0.19295046
20
0.42469729
30
0
70
32
0
SEQEND
8
0
0
POLYLINE
8
0
62
30
66
1
10
0
20
0
30
0
70
8
0
VERTEX
8
0
62
30
10
0.10809765
20
0.40160328
30
0
70
32
0
VERTEX
8
0
62
30
10
0.11288057
20
0.40160328
30
0
70
32
0
SEQEND
8
0
0
POLYLINE
8
0
62
30
66
1
10
0
20
0
30
0
70
8
0
VERTEX
8
0
62
30
10
0.10809765
20
0.42469729
30
0
70
32
0
VERTEX
8
0
62
30
10
0.11288057
20
0.42469729
30
0
70
32
0
SEQEND
8
0
0
POLYLINE
8
0
62
30
66
1
10
0
20
0
30
0
70
8
0
VERTEX
8
0
62
30
10
0.13638192
20
0.40160328
30
0
70
32
0
VERTEX
8
0
62
30
10
0.14116485
20
0.40160328
30
0
70
32
0
SEQEND
8
0
0
POLYLINE
8
0
62
30
66
1
10
0
20
0
30
0
70
8
0
VERTEX
8
0
62
30
10
0.13638192
20
0.42469729
30
0
70
32
0
VERTEX
8
0
62
30
10
0.14116485
20
0.42469729
30
0
70
32
0
SEQEND
8
0
0
POLYLINE
8
0
62
30
66
1
10
0
20
0
30
0
70
8
0
VERTEX
8
0
62
30
10
0.16466619
20
0.40160328
30
0
70
32
0
VERTEX
8
0
62
30
10
0.16944912
20
0.40160328
30
0
70
32
0
SEQEND
8
0
0
POLYLINE
8
0
62
30
66
1
10
0
20
0
30
0
70
8
0
VERTEX
8
0
62
30
10
0.16466619
20
0.42469729
30
0
70
32
0
VERTEX
8
0
62
30
10
0.16944912
20
0.42469729
30
0
70
32
0
SEQEND
8
0
0
POLYLINE
8
0
62
30
66
1
10
0
20
0
30
0
70
8
0
VERTEX
8
0
62
30
10
0.19295046
20
0.40160328
30
0
70
32
0
VERTEX
8
0
62
30
10
0.19773339
20
0.40160328
30
0
70
32
0
SEQEND
8
0
0
POLYLINE
8
0
62
30
66
1
10
0
20
0
30
0
70
8
0
VERTEX
8
0
62
30
10
0.19295046
20
0.42469729
30
0
70
32
0
VERTEX
8
0
62
30
10
0.19773339
20
0.42469729
30
0
70
32
0
SEQEND
8
0
0
POLYLINE
8
0
62
5
66
1
10
0
20
0
30
0
70
8
0
VERTEX
8
0
62
5
10
-0.14167787
20
0.29768023
30
0
70
32
0
VERTEX
8
0
62
5
10
-0.14167787
20
0.48243232
30
0
70
32
0
SEQEND
8
0
0
POLYLINE
8
0
62
30
66
1
10
0
20
0
30
0
70
8
0
VERTEX
8
0
62
30
10
-0.14167787
20
0.4362443
30
0
70
32
0
VERTEX
8
0
62
30
10
-0.028540782
20
0.4362443
30
0
70
32
0
SEQEND
8
0
0
POLYLINE
8
0
62
30
66
1
10
0
20
0
30
0
70
8
0
VERTEX
8
0
62
30
10
-0.14167787
20
0.39005627
30
0
70
32
0
VERTEX
8
0
62
30
10
-0.028540782
20
0.39005627
30
0
70
32
0
SEQEND
8
0
0
POLYLINE
8
0
62
30
66
1
10
0
20
0
30
0
70
8
0
VERTEX
8
0
62
30
10
-0.14167787
20
0.41315029
30
0
70
32
0
VERTEX
8
0
62
30
10
-0.028540782
20
0.41315029
30
0
70
32
0
SEQEND
8
0
0
POLYLINE
8
0
62
5
66
1
10
0
20
0
30
0
70
8
0
VERTEX
8
0
62
5
10
-0.14167787
20
0.34386825
30
0
70
32
0
VERTEX
8
0
62
5
10
-0.028540782
20
0.34386825
30
0
70
32
0
SEQEND
8
0
0
POLYLINE
8
0
62
5
66
1
10
0
20
0
30
0
70
8
0
VERTEX
8
0
62
5
10
-0.1133936
20
0.29768023
30
0
70
32
0
VERTEX
8
0
62
5
10
-0.1133936
20
0.39005627
30
0
70
32
0
SEQEND
8
0
0
POLYLINE
8
0
62
5
66
1
10
0
20
0
30
0
70
8
0
VERTEX
8
0
62
5
10
-0.085109325
20
0.29768023
30
0
70
32
0
VERTEX
8
0
62
5
10
-0.085109325
20
0.39005627
30
0
70
32
0
SEQEND
8
0
0
POLYLINE
8
0
62
5
66
1
10
0
20
0
30
0
70
8
0
VERTEX
8
0
62
5
10
-0.056825053
20
0.29768023
30
0
70
32
0
VERTEX
8
0
62
5
10
-0.056825053
20
0.39005627
30
0
70
32
0
SEQEND
8
0
0
POLYLINE
8
0
62
5
66
1
10
0
20
0
30
0
70
8
0
VERTEX
8
0
62
5
10
-0.1133936
20
0.4362443
30
0
70
32
0
VERTEX
8
0
62
5
10
-0.1133936
20
0.48243232
30
0
70
32
0
SEQEND
8
0
0
POLYLINE
8
0
62
5
66
1
10
0
20
0
30
0
70
8
0
VERTEX
8
0
62
5
10
-0.085109325
20
0.4362443
30
0
70
32
0
VERTEX
8
0
62
5
10
-0.085109325
20
0.48243232
30
0
70
32
0
SEQEND
8
0
0
POLYLINE
8
0
62
5
66
1
10
0
20
0
30
0
70
8
0
VERTEX
8
0
62
5
10
-0.056825053
20
0.4362443
30
0
70
32
0
VERTEX
8
0
62
5
10
-0.056825053
20
0.48243232
30
0
70
32
0
SEQEND
8
0
0
POLYLINE
8
0
62
30
66
1
10
0
20
0
30
0
70
8
0
VERTEX
8
0
62
30
10
-0.1133936
20
0.39005627
30
0
70
32
0
VERTEX
8
0
62
30
10
-0.1133936
20
0.4362443
30
0
70
32
0
SEQEND
8
0
0
POLYLINE
8
0
62
30
66
1
10
0
20
0
30
0
70
8
0
VERTEX
8
0
62
30
10
-0.085109325
20
0.39005627
30
0
70
32
0
VERTEX
8
0
62
30
10
-0.085109325
20
0.4362443
30
0
70
32
0
SEQEND
8
0
0
POLYLINE
8
0
62
30
66
1
10
0
20
0
30
0
70
8
0
VERTEX
8
0
62
30
10
-0.056825053
20
0.39005627
30
0
70
32
0
VERTEX
8
0
62
30
10
-0.056825053
20
0.4362443
30
0
70
32
0
SEQEND
8
0
0
POLYLINE
8
0
62
30
66
1
10
0
20
0
30
0
70
8
0
VERTEX
8
0
62
30
10
-0.028540782
20
0.39005627
30
0
70
32
0
VERTEX
8
0
62
30
10
-0.028540782
20
0.4362443
30
0
70
32
0
SEQEND
8
0
0
POLYLINE
8
0
62
5
66
1
10
0
20
0
30
0
70
8
0
VERTEX
8
0
62
5
10
-0.1133936
20
0.39005627
30
0
70
32
0
VERTEX
8
0
62
5
10
-0.11817652
20
0.40160328
30
0
70
32
0
VERTEX
8
0
62
5
10
-0.1133936
20
0.41315029
30
0
70
32
0
VERTEX
8
0
62
5
10
-0.11817652
20
0.42469729
30
0
70
32
0
VERTEX
8
0
62
5
10
-0.1133936
20
0.4362443
30
0
70
32
0
SEQEND
8
0
0
POLYLINE
8
0
62
5
66
1
10
0
20
0
30
0
70
8
0
VERTEX
8
0
62
5
10
-0.085109325
20
0.39005627
30
0
70
32
0
VERTEX
8
0
62
5
10
-0.089892251
20
0.40160328
30
0
70
32
0
VERTEX
8
0
62
5
10
-0.085109325
20
0.41315029
30
0
70
32
0
VERTEX
8
0
62
5
10
-0.089892251
20
0.42469729
30
0
70
32
0
VERTEX
8
0
62
5
10
-0.085109325
20
0.4362443
30
0
70
32
0
SEQEND
8
0
0
POLYLINE
8
0
62
5
66
1
10
0
20
0
30
0
70
8
0
VERTEX
8
0
62
5
10
-0.056825053
20
0.39005627
30
0
70
32
0
VERTEX
8
0
62
5
10
-0.06160798
20
0.40160328
30
0
70
32
0
VERTEX
8
0
62
5
10
-0.056825053
20
0.41315029
30
0
70
32
0
VERTEX
8
0
62
5
10
-0.06160798
20
0.42469729
30
0
70
32
0
VERTEX
8
0
62
5
10
-0.056825053
20
0.4362443
30
0
70
32
0
SEQEND
8
0
0
POLYLINE
8
0
62
5
66
1
10
0
20
0
30
0
70
8
0
VERTEX
8
0
62
5
10
-0.028540782
20
0.39005627
30
0
70
32
0
VERTEX
8
0
62
5
10
-0.033323708
20
0.40160328
30
0
70
32
0
VERTEX
8
0
62
5
10
-0.028540782
20
0.41315029
30
0
70
32
0
VERTEX
8
0
62
5
10
-0.033323708
20
0.42469729
30
0
70
32
0
VERTEX
8
0
62
5
10
-0.028540782
20
0.4362443
30
0
70
32
0
SEQEND
8
0
0
POLYLINE
8
0
62
5
66
1
10
0
20
0
30
0
70
8
0
VERTEX
8
0
62
5
10
-0.14167787
20
0.40160328
30
0
70
32
0
VERTEX
8
0
62
5
10
-0.11817652
20
0.40160328
30
0
70
32
0
SEQEND
8
0
0
POLYLINE
8
0
62
5
66
1
10
0
20
0
30
0
70
8
0
VERTEX
8
0
62
5
10
-0.14167787
20
0.42469729
30
0
70
32
0
VERTEX
8
0
62
5
10
-0.11817652
20
0.42469729
30
0
70
32
0
SEQEND
8
0
0
POLYLINE
8
0
62
5
66
1
10
0
20
0
30
0
70
8
0
VERTEX
8
0
62
5
10
-0.1133936
20
0.40160328
30
0
70
32
0
VERTEX
8
0
62
5
10
-0.089892251
20
0.40160328
30
0
70
32
0
SEQEND
8
0
0
POLYLINE
8
0
62
5
66
1
10
0
20
0
30
0
70
8
0
VERTEX
8
0
62
5
10
-0.1133936
20
0.42469729
30
0
70
32
0
VERTEX
8
0
62
5
10
-0.089892251
20
0.42469729
30
0
70
32
0
SEQEND
8
0
0
POLYLINE
8
0
62
5
66
1
10
0
20
0
30
0
70
8
0
VERTEX
8
0
62
5
10
-0.085109325
20
0.40160328
30
0
70
32
0
VERTEX
8
0
62
5
10
-0.06160798
20
0.40160328
30
0
70
32
0
SEQEND
8
0
0
POLYLINE
8
0
62
5
66
1
10
0
20
0
30
0
70
8
0
VERTEX
8
0
62
5
10
-0.085109325
20
0.42469729
30
0
70
32
0
VERTEX
8
0
62
5
10
-0.06160798
20
0.42469729
30
0
70
32
0
SEQEND
8
0
0
POLYLINE
8
0
62
5
66
1
10
0
20
0
30
0
70
8
0
VERTEX
8
0
62
5
10
-0.056825053
20
0.40160328
30
0
70
32
0
VERTEX
8
0
62
5
10
-0.033323708
20
0.40160328
30
0
70
32
0
SEQEND
8
0
0
POLYLINE
8
0
62
5
66
1
10
0
20
0
30
0
70
8
0
VERTEX
8
0
62
5
10
-0.056825053
20
0.42469729
30
0
70
32
0
VERTEX
8
0
62
5
10
-0.033323708
20
0.42469729
30
0
70
32
0
SEQEND
8
0
0
POLYLINE
8
0
62
30
66
1
10
0
20
0
30
0
70
8
0
VERTEX
8
0
62
30
10
-0.11817652
20
0.40160328
30
0
70
32
0
VERTEX
8
0
62
30
10
-0.1133936
20
0.40160328
30
0
70
32
0
SEQEND
8
0
0
POLYLINE
8
0
62
30
66
1
10
0
20
0
30
0
70
8
0
VERTEX
8
0
62
30
10
-0.11817652
20
0.42469729
30
0
70
32
0
VERTEX
8
0
62
30
10
-0.1133936
20
0.42469729
30
0
70
32
0
SEQEND
8
0
0
POLYLINE
8
0
62
30
66
1
10
0
20
0
30
0
70
8
0
VERTEX
8
0
62
30
10
-0.089892251
20
0.40160328
30
0
70
32
0
VERTEX
8
0
62
30
10
-0.085109325
20
0.40160328
30
0
70
32
0
SEQEND
8
0
0
POLYLINE
8
0
62
30
66
1
10
0
20
0
30
0
70
8
0
VERTEX
8
0
62
30
10
-0.089892251
20
0.42469729
30
0
70
32
0
VERTEX
8
0
62
30
10
-0.085109325
20
0.42469729
30
0
70
32
0
SEQEND
8
0
0
POLYLINE
8
0
62
30
66
1
10
0
20
0
30
0
70
8
0
VERTEX
8
0
62
30
10
-0.06160798
20
0.40160328
30
0
70
32
0
VERTEX
8
0
62
30
10
-0.056825053
20
0.40160328
30
0
70
32
0
SEQEND
8
0
0
POLYLINE
8
0
62
30
66
1
10
0
20
0
30
0
70
8
0
VERTEX
8
0
62
30
10
-0.06160798
20
0.42469729
30
0
70
32
0
VERTEX
8
0
62
30
10
-0.056825053
20
0.42469729
30
0
70
32
0
SEQEND
8
0
0
POLYLINE
8
0
62
30
66
1
10
0
20
0
30
0
70
8
0
VERTEX
8
0
62
30
10
-0.033323708
20
0.40160328
30
0
70
32
0
VERTEX
8
0
62
30
10
-0.028540782
20
0.40160328
30
0
70
32
0
SEQEND
8
0
0
POLYLINE
8
0
62
30
66
1
10
0
20
0
30
0
70
8
0
VERTEX
8
0
62
30
10
-0.033323708
20
0.42469729
30
0
70
32
0
VERTEX
8
0
62
30
10
-0.028540782
20
0.42469729
30
0
70
32
0
SEQEND
8
0
0
POLYLINE
8
0
62
5
66
1
10
0
20
0
30
0
70
8
0
VERTEX
8
0
62
5
10
-0.028540782
20
0.48243232
30
0
70
32
0
VERTEX
8
0
62
5
10
-0.028540782
20
0.48289159
30
0
70
32
0
SEQEND
8
0
0
POLYLINE
8
0
62
5
66
1
10
0
20
0
30
0
70
8
0
VERTEX
8
0
62
5
10
0.084596303
20
0.48289159
30
0
70
32
0
VERTEX
8
0
62
5
10
0.084596303
20
0.48243232
30
0
70
32
0
SEQEND
8
0
0
POLYLINE
8
0
62
5
66
1
10
0
20
0
30
0
70
8
0
VERTEX
8
0
62
5
10
-0.028540782
20
0.48247172
30
0
70
32
0
VERTEX
8
0
62
5
10
-0.00025651096
20
0.48247172
30
0
70
32
0
VERTEX
8
0
62
5
10
0.02802776
20
0.48266195
30
0
70
32
0
VERTEX
8
0
62
5
10
0.056312032
20
0.48266195
30
0
70
32
0
VERTEX
8
0
62
5
10
0.084596303
20
0.48247172
30
0
70
32
0
SEQEND
8
0
0
POLYLINE
8
0
62
5
66
1
10
0
20
0
30
0
70
8
0
SEQEND
8
0
0
POLYLINE
8
0
62
5
66
1
10
0
20
0
30
0
70
8
0
VERTEX
8
0
62
5
10
-0.028540782
20
0.48285219
30
0
70
32
0
VERTEX
8
0
62
5
10
-0.00025651096
20
0.48285219
30
0
70
32
0
VERTEX
8
0
62
5
10
0.02802776
20
0.48266195
30
0
70
32
0
VERTEX
8
0
62
5
10
0.056312032
20
0.48266195
30
0
70
32
0
VERTEX
8
0
62
5
10
0.084596303
20
0.48285219
30
0
70
32
0
SEQEND
8
0
0
POLYLINE
8
0
62
30
66
1
10
0
20
0
30
0
70
8
0
VERTEX
8
0
62
30
10
-0.028540782
20
0.48266195
30
0
70
32
0
VERTEX
8
0
62
30
10
0.084596303
20
0.48266195
30
0
70
32
0
SEQEND
8
0
0
POLYLINE
8
0
62
30
66
1
10
0
20
0
30
0
70
8
0
VERTEX
8
0
62
30
10
-0.00025651096
20
0.48247172
30
0
70
32
0
VERTEX
8
0
62
30
10
-0.00025651096
20
0.48266195
30
0
70
32
0
SEQEND
8
0
0
POLYLINE
8
0
62
30
66
1
10
0
20
0
30
0
70
8
0
VERTEX
8
0
62
30
10
0.02802776
20
0.48266195
30
0
70
32
0
VERTEX
8
0
62
30
10
0.02802776
20
0.48266195
30
0
70
32
0
SEQEND
8
0
0
POLYLINE
8
0
62
30
66
1
10
0
20
0
30
0
70
8
0
VERTEX
8
0
62
30
10
0.056312032
20
0.48266195
30
0
70
32
0
VERTEX
8
0
62
30
10
0.056312032
20
0.48266195
30
0
70
32
0
SEQEND
8
0
0
POLYLINE
8
0
62
5
66
1
10
0
20
0
30
0
70
8
0
VERTEX
8
0
62
5
10
-0.00025651096
20
0.48243232
30
0
70
32
0
VERTEX
8
0
62
5
10
-0.00025651096
20
0.48247172
30
0
70
32
0
SEQEND
8
0
0
POLYLINE
8
0
62
5
66
1
10
0
20
0
30
0
70
8
0
VERTEX
8
0
62
5
10
0.02802776
20
0.48243232
30
0
70
32
0
VERTEX
8
0
62
5
10
0.02802776
20
0.48266195
30
0
70
32
0
SEQEND
8
0
0
POLYLINE
8
0
62
5
66
1
10
0
20
0
30
0
70
8
0
VERTEX
8
0
62
5
10
0.056312032
20
0.48243232
30
0
70
32
0
VERTEX
8
0
62
5
10
0.056312032
20
0.48266195
30
0
70
32
0
SEQEND
8
0
0
POLYLINE
8
0
62
5
66
1
10
0
20
0
30
0
70
8
0
VERTEX
8
0
62
5
10
-0.00025651096
20
0.48266195
30
0
70
32
0
VERTEX
8
0
62
5
10
-0.00025651096
20
0.48289159
30
0
70
32
0
SEQEND
8
0
0
POLYLINE
8
0
62
5
66
1
10
0
20
0
30
0
70
8
0
VERTEX
8
0
62
5
10
0.02802776
20
0.48266195
30
0
70
32
0
VERTEX
8
0
62
5
10
0.02802776
20
0.48289159
30
0
70
32
0
SEQEND
8
0
0
POLYLINE
8
0
62
5
66
1
10
0
20
0
30
0
70
8
0
VERTEX
8
0
62
5
10
0.056312032
20
0.48266195
30
0
70
32
0
VERTEX
8
0
62
5
10
0.056312032
20
0.48289159
30
0
70
32
0
SEQEND
8
0
0
POLYLINE
8
0
62
5
66
1
10
0
20
0
30
0
70
8
0
VERTEX
8
0
62
5
10
0.19773339
20
0.48289159
30
0
70
32
0
VERTEX
8
0
62
5
10
0.19773339
20
0.48243232
30
0
70
32
0
SEQEND
8
0
0
POLYLINE
8
0
62
5
66
1
10
0
20
0
30
0
70
8
0
VERTEX
8
0
62
5
10
0.084596303
20
0.48247172
30
0
70
32
0
VERTEX
8
0
62
5
10
0.11288057
20
0.48247172
30
0
70
32
0
VERTEX
8
0
62
5
10
0.14116485
20
0.48266195
30
0
70
32
0
VERTEX
8
0
62
5
10
0.16944912
20
0.48266195
30
0
70
32
0
VERTEX
8
0
62
5
10
0.19773339
20
0.48247172
30
0
70
32
0
SEQEND
8
0
0
POLYLINE
8
0
62
5
66
1
10
0
20
0
30
0
70
8
0
SEQEND
8
0
0
POLYLINE
8
0
62
5
66
1
10
0
20
0
30
0
70
8
0
VERTEX
8
0
62
5
10
0.084596303
20
0.48285219
30
0
70
32
0
VERTEX
8
0
62
5
10
0.11288057
20
0.48285219
30
0
70
32
0
VERTEX
8
0
62
5
10
0.14116485
20
0.48266195
30
0
70
32
0
VERTEX
8
0
62
5
10
0.16944912
20
0.48266195
30
0
70
32
0
VERTEX
8
0
62
5
10
0.19773339
20
0.48285219
30
0
70
32
0
SEQEND
8
0
0
POLYLINE
8
0
62
30
66
1
10
0
20
0
30
0
70
8
0
VERTEX
8
0
62
30
10
0.084596303
20
0.48266195
30
0
70
32
0
VERTEX
8
0
62
30
10
0.19773339
20
0.48266195
30
0
70
32
0
SEQEND
8
0
0
POLYLINE
8
0
62
30
66
1
10
0
20
0
30
0
70
8
0
VERTEX
8
0
62
30
10
0.11288057
20
0.48247172
30
0
70
32
0
VERTEX
8
0
62
30
10
0.11288057
20
0.48266195
30
0
70
32
0
SEQEND
8
0
0
POLYLINE
8
0
62
30
66
1
10
0
20
0
30
0
70
8
0
VERTEX
8
0
62
30
10
0.14116485
20
0.48266195
30
0
70
32
0
VERTEX
8
0
62
30
10
0.14116485
20
0.48266195
30
0
70
32
0
SEQEND
8
0
0
POLYLINE
8
0
62
30
66
1
10
0
20
0
30
0
70
8
0
VERTEX
8
0
62
30
10
0.16944912
20
0.48266195
30
0
70
32
0
VERTEX
8
0
62
30
10
0.16944912
20
0.48266195
30
0
70
32
0
SEQEND
8
0
0
POLYLINE
8
0
62
5
66
1
10
0
20
0
30
0
70
8
0
VERTEX
8
0
62
5
10
0.11288057
20
0.48243232
30
0
70
32
0
VERTEX
8
0
62
5
10
0.11288057
20
0.48247172
30
0
70
32
0
SEQEND
8
0
0
POLYLINE
8
0
62
5
66
1
10
0
20
0
30
0
70
8
0
VERTEX
8
0
62
5
10
0.14116485
20
0.48243232
30
0
70
32
0
VERTEX
8
0
62
5
10
0.14116485
20
0.48266195
30
0
70
32
0
SEQEND
8
0
0
POLYLINE
8
0
62
5
66
1
10
0
20
0
30
0
70
8
0
VERTEX
8
0
62
5
10
0.16944912
20
0.48243232
30
0
70
32
0
VERTEX
8
0
62
5
10
0.16944912
20
0.48266195
30
0
70
32
0
SEQEND
8
0
0
POLYLINE
8
0
62
5
66
1
10
0
20
0
30
0
70
8
0
VERTEX
8
0
62
5
10
0.11288057
20
0.48266195
30
0
70
32
0
VERTEX
8
0
62
5
10
0.11288057
20
0.48289159
30
0
70
32
0
SEQEND
8
0
0
POLYLINE
8
0
62
5
66
1
10
0
20
0
30
0
70
8
0
VERTEX
8
0
62
5
10
0.14116485
20
0.48266195
30
0
70
32
0
VERTEX
8
0
62
5
10
0.14116485
20
0.48289159
30
0
70
32
0
SEQEND
8
0
0
POLYLINE
8
0
62
5
66
1
10
0
20
0
30
0
70
8
0
VERTEX
8
0
62
5
10
0.16944912
20
0.48266195
30
0
70
32
0
VERTEX
8
0
62
5
10
0.16944912
20
0.48289159
30
0
70
32
0
SEQEND
8
0
0
POLYLINE
8
0
62
5
66
1
10
0
20
0
30
0
70
8
0
VERTEX
8
0
62
5
10
-0.14167787
20
0.48243232
30
0
70
32
0
VERTEX
8
0
62
5
10
-0.14167787
20
0.48289159
30
0
70
32
0
SEQEND
8
0
0
POLYLINE
8
0
62
5
66
1
10
0
20
0
30
0
70
8
0
VERTEX
8
0
62
5
10
-0.14167787
20
0.48247172
30
0
70
32
0
VERTEX
8
0
62
5
10
-0.1133936
20
0.48247172
30
0
70
32
0
VERTEX
8
0
62
5
10
-0.085109325
20
0.48266195
30
0
70
32
0
VERTEX
8
0
62
5
10
-0.056825053
20
0.48266195
30
0
70
32
0
VERTEX
8
0
62
5
10
-0.028540782
20
0.48247172
30
0
70
32
0
SEQEND
8
0
0
POLYLINE
8
0
62
5
66
1
10
0
20
0
30
0
70
8
0
SEQEND
8
0
0
POLYLINE
8
0
62
5
66
1
10
0
20
0
30
0
70
8
0
VERTEX
8
0
62
5
10
-0.14167787
20
0.48285219
30
0
70
32
0
VERTEX
8
0
62
5
10
-0.1133936
20
0.48285219
30
0
70
32
0
VERTEX
8
0
62
5
10
-0.085109325
20
0.48266195
30
0
70
32
0
VERTEX
8
0
62
5
10
-0.056825053
20
0.48266195
30
0
70
32
0
VERTEX
8
0
62
5
10
-0.028540782
20
0.48285219
30
0
70
32
0
SEQEND
8
0
0
POLYLINE
8
0
62
30
66
1
10
0
20
0
30
0
70
8
0
VERTEX
8
0
62
30
10
-0.14167787
20
0.48266195
30
0
70
32
0
VERTEX
8
0
62
30
10
-0.028540782
20
0.48266195
30
0
70
32
0
SEQEND
8
0
0
POLYLINE
8
0
62
30
66
1
10
0
20
0
30
0
70
8
0
VERTEX
8
0
62
30
10
-0.1133936
20
0.48247172
30
0
70
32
0
VERTEX
8
0
62
30
10
-0.1133936
20
0.48266195
30
0
70
32
0
SEQEND
8
0
0
POLYLINE
8
0
62
30
66
1
10
0
20
0
30
0
70
8
0
VERTEX
8
0
62
30
10
-0.085109325
20
0.48266195
30
0
70
32
0
VERTEX
8
0
62
30
10
-0.085109325
20
0.48266195
30
0
70
32
0
SEQEND
8
0
0
POLYLINE
8
0
62
30
66
1
10
0
20
0
30
0
70
8
0
VERTEX
8
0
62
30
10
-0.056825053
20
0.48266195
30
0
70
32
0
VERTEX
8
0
62
30
10
-0.056825053
20
0.48266195
30
0
70
32
0
SEQEND
8
0
0
POLYLINE
8
0
62
5
66
1
10
0
20
0
30
0
70
8
0
VERTEX
8
0
62
5
10
-0.1133936
20
0.48243232
30
0
70
32
0
VERTEX
8
0
62
5
10
-0.1133936
20
0.48247172
30
0
70
32
0
SEQEND
8
0
0
POLYLINE
8
0
62
5
66
1
10
0
20
0
30
0
70
8
0
VERTEX
8
0
62
5
10
-0.085109325
20
0.48243232
30
0
70
32
0
VERTEX
8
0
62
5
10
-0.085109325
20
0.48266195
30
0
70
32
0
SEQEND
8
0
0
POLYLINE
8
0
62
5
66
1
10
0
20
0
30
0
70
8
0
VERTEX
8
0
62
5
10
-0.056825053
20
0.48243232
30
0
70
32
0
VERTEX
8
0
62
5
10
-0.056825053
20
0.48266195
30
0
70
32
0
SEQEND
8
0
0
POLYLINE
8
0
62
5
66
1
10
0
20
0
30
0
70
8
0
VERTEX
8
0
62
5
10
-0.1133936
20
0.48266195
30
0
70
32
0
VERTEX
8
0
62
5
10
-0.1133936
20
0.48289159
30
0
70
32
0
SEQEND
8
0
0
POLYLINE
8
0
62
5
66
1
10
0
20
0
30
0
70
8
0
VERTEX
8
0
62
5
10
-0.085109325
20
0.48266195
30
0
70
32
0
VERTEX
8
0
62
5
10
-0.085109325
20
0.48289159
30
0
70
32
0
SEQEND
8
0
0
POLYLINE
8
0
62
5
66
1
10
0
20
0
30
0
70
8
0
VERTEX
8
0
62
5
10
-0.056825053
20
0.48266195
30
0
70
32
0
VERTEX
8
0
62
5
10
-0.056825053
20
0.48289159
30
0
70
32
0
SEQEND
8
0
0
POLYLINE
8
0
62
5
66
1
10
0
20
0
30
0
70
8
0
VERTEX
8
0
62
5
10
-0.028540782
20
0.48289159
30
0
70
32
0
VERTEX
8
0
62
5
10
-0.028540782
20
0.50277568
30
0
70
32
0
SEQEND
8
0
0
POLYLINE
8
0
62
5
66
1
10
0
20
0
30
0
70
8
0
VERTEX
8
0
62
5
10
-0.00025651096
20
0.48289159
30
0
70
32
0
VERTEX
8
0
62
5
10
-0.00025651096
20
0.50277568
30
0
70
32
0
SEQEND
8
0
0
POLYLINE
8
0
62
5
66
1
10
0
20
0
30
0
70
8
0
VERTEX
8
0
62
5
10
0.02802776
20
0.48289159
30
0
70
32
0
VERTEX
8
0
62
5
10
0.02802776
20
0.50277568
30
0
70
32
0
SEQEND
8
0
0
POLYLINE
8
0
62
5
66
1
10
0
20
0
30
0
70
8
0
VERTEX
8
0
62
5
10
0.056312032
20
0.48289159
30
0
70
32
0
VERTEX
8
0
62
5
10
0.056312032
20
0.50277568
30
0
70
32
0
SEQEND
8
0
0
POLYLINE
8
0
62
5
66
1
10
0
20
0
30
0
70
8
0
VERTEX
8
0
62
5
10
0.084596303
20
0.48289159
30
0
70
32
0
VERTEX
8
0
62
5
10
0.084596303
20
0.50277568
30
0
70
32
0
SEQEND
8
0
0
POLYLINE
8
0
62
5
66
1
10
0
20
0
30
0
70
8
0
VERTEX
8
0
62
5
10
-0.00025651096
20
0.48289159
30
0
70
32
0
VERTEX
8
0
62
5
10
-0.00025651096
20
0.48289159
30
0
70
32
0
SEQEND
8
0
0
POLYLINE
8
0
62
5
66
1
10
0
20
0
30
0
70
8
0
VERTEX
8
0
62
5
10
0.02802776
20
0.48289159
30
0
70
32
0
VERTEX
8
0
62
5
10
0.02802776
20
0.48289159
30
0
70
32
0
SEQEND
8
0
0
POLYLINE
8
0
62
5
66
1
10
0
20
0
30
0
70
8
0
VERTEX
8
0
62
5
10
0.056312032
20
0.48289159
30
0
70
32
0
VERTEX
8
0
62
5
10
0.056312032
20
0.48289159
30
0
70
32
0
SEQEND
8
0
0
POLYLINE
8
0
62
5
66
1
10
0
20
0
30
0
70
8
0
VERTEX
8
0
62
5
10
-0.00025651096
20
0.50277568
30
0
70
32
0
VERTEX
8
0
62
5
10
-0.00025651096
20
0.50277568
30
0
70
32
0
SEQEND
8
0
0
POLYLINE
8
0
62
5
66
1
10
0
20
0
30
0
70
8
0
VERTEX
8
0
62
5
10
0.02802776
20
0.50277568
30
0
70
32
0
VERTEX
8
0
62
5
10
0.02802776
20
0.50277568
30
0
70
32
0
SEQEND
8
0
0
POLYLINE
8
0
62
5
66
1
10
0
20
0
30
0
70
8
0
VERTEX
8
0
62
5
10
0.056312032
20
0.50277568
30
0
70
32
0
VERTEX
8
0
62
5
10
0.056312032
20
0.50277568
30
0
70
32
0
SEQEND
8
0
0
POLYLINE
8
0
62
5
66
1
10
0
20
0
30
0
70
8
0
VERTEX
8
0
62
5
10
0.084596303
20
0.50277568
30
0
70
32
0
VERTEX
8
0
62
5
10
0.084596303
20
0.50277568
30
0
70
32
0
SEQEND
8
0
0
POLYLINE
8
0
62
5
66
1
10
0
20
0
30
0
70
8
0
VERTEX
8
0
62
5
10
0.11288057
20
0.48289159
30
0
70
32
0
VERTEX
8
0
62
5
10
0.11288057
20
0.50277568
30
0
70
32
0
SEQEND
8
0
0
POLYLINE
8
0
62
5
66
1
10
0
20
0
30
0
70
8
0
VERTEX
8
0
62
5
10
0.14116485
20
0.48289159
30
0
70
32
0
VERTEX
8
0
62
5
10
0.14116485
20
0.50277568
30
0
70
32
0
SEQEND
8
0
0
POLYLINE
8
0
62
5
66
1
10
0
20
0
30
0
70
8
0
VERTEX
8
0
62
5
10
0.16944912
20
0.48289159
30
0
70
32
0
VERTEX
8
0
62
5
10
0.16944912
20
0.50277568
30
0
70
32
0
SEQEND
8
0
0
POLYLINE
8
0
62
5
66
1
10
0
20
0
30
0
70
8
0
VERTEX
8
0
62
5
10
0.19773339
20
0.48289159
30
0
70
32
0
VERTEX
8
0
62
5
10
0.19773339
20
0.50277568
30
0
70
32
0
SEQEND
8
0
0
POLYLINE
8
0
62
5
66
1
10
0
20
0
30
0
70
8
0
VERTEX
8
0
62
5
10
0.11288057
20
0.48289159
30
0
70
32
0
VERTEX
8
0
62
5
10
0.11288057
20
0.48289159
30
0
70
32
0
SEQEND
8
0
0
POLYLINE
8
0
62
5
66
1
10
0
20
0
30
0
70
8
0
VERTEX
8
0
62
5
10
0.14116485
20
0.48289159
30
0
70
32
0
VERTEX
8
0
62
5
10
0.14116485
20
0.48289159
30
0
70
32
0
SEQEND
8
0
0
POLYLINE
8
0
62
5
66
1
10
0
20
0
30
0
70
8
0
VERTEX
8
0
62
5
10
0.16944912
20
0.48289159
30
0
70
32
0
VERTEX
8
0
62
5
10
0.16944912
20
0.48289159
30
0
70
32
0
SEQEND
8
0
0
POLYLINE
8
0
62
5
66
1
10
0
20
0
30
0
70
8
0
VERTEX
8
0
62
5
10
0.11288057
20
0.50277568
30
0
70
32
0
VERTEX
8
0
62
5
10
0.11288057
20
0.50277568
30
0
70
32
0
SEQEND
8
0
0
POLYLINE
8
0
62
5
66
1
10
0
20
0
30
0
70
8
0
VERTEX
8
0
62
5
10
0.14116485
20
0.50277568
30
0
70
32
0
VERTEX
8
0
62
5
10
0.14116485
20
0.50277568
30
0
70
32
0
SEQEND
8
0
0
POLYLINE
8
0
62
5
66
1
10
0
20
0
30
0
70
8
0
VERTEX
8
0
62
5
10
0.16944912
20
0.50277568
30
0
70
32
0
VERTEX
8
0
62
5
10
0.16944912
20
0.50277568
30
0
70
32
0
SEQEND
8
0
0
POLYLINE
8
0
62
5
66
1
10
0
20
0
30
0
70
8
0
VERTEX
8
0
62
5
10
0.19773339
20
0.50277568
30
0
70
32
0
VERTEX
8
0
62
5
10
0.19773339
20
0.50277568
30
0
70
32
0
SEQEND
8
0
0
POLYLINE
8
0
62
5
66
1
10
0
20
0
30
0
70
8
0
VERTEX
8
0
62
5
10
-0.1133936
20
0.48289159
30
0
70
32
0
VERTEX
8
0
62
5
10
-0.1133936
20
0.50277568
30
0
70
32
0
SEQEND
8
0
0
POLYLINE
8
0
62
5
66
1
10
0
20
0
30
0
70
8
0
VERTEX
8
0
62
5
10
-0.085109325
20
0.48289159
30
0
70
32
0
VERTEX
8
0
62
5
10
-0.085109325
20
0.50277568
30
0
70
32
0
SEQEND
8
0
0
POLYLINE
8
0
62
5
66
1
10
0
20
0
30
0
70
8
0
VERTEX
8
0
62
5
10
-0.056825053
20
0.48289159
30
0
70
32
0
VERTEX
8
0
62
5
10
-0.056825053
20
0.50277568
30
0
70
32
0
SEQEND
8
0
0
POLYLINE
8
0
62
5
66
1
10
0
20
0
30
0
70
8
0
VERTEX
8
0
62
5
10
-0.028540782
20
0.48289159
30
0
70
32
0
VERTEX
8
0
62
5
10
-0.028540782
20
0.50277568
30
0
70
32
0
SEQEND
8
0
0
POLYLINE
8
0
62
5
66
1
10
0
20
0
30
0
70
8
0
VERTEX
8
0
62
5
10
-0.1133936
20
0.48289159
30
0
70
32
0
VERTEX
8
0
62
5
10
-0.1133936
20
0.48289159
30
0
70
32
0
SEQEND
8
0
0
POLYLINE
8
0
62
5
66
1
10
0
20
0
30
0
70
8
0
VERTEX
8
0
62
5
10
-0.085109325
20
0.48289159
30
0
70
32
0
VERTEX
8
0
62
5
10
-0.085109325
20
0.48289159
30
0
70
32
0
SEQEND
8
0
0
POLYLINE
8
0
62
5
66
1
10
0
20
0
30
0
70
8
0
VERTEX
8
0
62
5
10
-0.056825053
20
0.48289159
30
0
70
32
0
VERTEX
8
0
62
5
10
-0.056825053
20
0.48289159
30
0
70
32
0
SEQEND
8
0
0
POLYLINE
8
0
62
5
66
1
10
0
20
0
30
0
70
8
0
VERTEX
8
0
62
5
10
-0.1133936
20
0.50277568
30
0
70
32
0
VERTEX
8
0
62
5
10
-0.1133936
20
0.50277568
30
0
70
32
0
SEQEND
8
0
0
POLYLINE
8
0
62
5
66
1
10
0
20
0
30
0
70
8
0
VERTEX
8
0
62
5
10
-0.085109325
20
0.50277568
30
0
70
32
0
VERTEX
8
0
62
5
10
-0.085109325
20
0.50277568
30
0
70
32
0
SEQEND
8
0
0
POLYLINE
8
0
62
5
66
1
10
0
20
0
30
0
70
8
0
VERTEX
8
0
62
5
10
-0.056825053
20
0.50277568
30
0
70
32
0
VERTEX
8
0
62
5
10
-0.056825053
20
0.50277568
30
0
70
32
0
SEQEND
8
0
0
POLYLINE
8
0
62
5
66
1
10
0
20
0
30
0
70
8
0
VERTEX
8
0
62
5
10
-0.028540782
20
0.50277568
30
0
70
32
0
VERTEX
8
0
62
5
10
-0.028540782
20
0.50277568
30
0
70
32
0
SEQEND
8
0
0
POLYLINE
8
0
62
5
66
1
10
0
20
0
30
0
70
8
0
VERTEX
8
0
62
5
10
-0.028540782
20
0.50277568
30
0
70
32
0
VERTEX
8
0
62
5
10
-0.028540782
20
0.58231202
30
0
70
32
0
SEQEND
8
0
0
POLYLINE
8
0
62
5
66
1
10
0
20
0
30
0
70
8
0
VERTEX
8
0
62
5
10
0.084596303
20
0.50277568
30
0
70
32
0
VERTEX
8
0
62
5
10
0.084596303
20
0.58231202
30
0
70
32
0
SEQEND
8
0
0
POLYLINE
8
0
62
5
66
1
10
0
20
0
30
0
70
8
0
VERTEX
8
0
62
5
10
-0.00025651096
20
0.50277568
30
0
70
32
0
VERTEX
8
0
62
5
10
-0.00025651096
20
0.58231202
30
0
70
32
0
SEQEND
8
0
0
POLYLINE
8
0
62
5
66
1
10
0
20
0
30
0
70
8
0
VERTEX
8
0
62
5
10
0.02802776
20
0.50277568
30
0
70
32
0
VERTEX
8
0
62
5
10
0.02802776
20
0.58231202
30
0
70
32
0
SEQEND
8
0
0
POLYLINE
8
0
62
5
66
1
10
0
20
0
30
0
70
8
0
VERTEX
8
0
62
5
10
0.056312032
20
0.50277568
30
0
70
32
0
VERTEX
8
0
62
5
10
0.056312032
20
0.58231202
30
0
70
32
0
SEQEND
8
0
0
POLYLINE
8
0
62
5
66
1
10
0
20
0
30
0
70
8
0
VERTEX
8
0
62
5
10
0.19773339
20
0.50277568
30
0
70
32
0
VERTEX
8
0
62
5
10
0.19773339
20
0.58231202
30
0
70
32
0
SEQEND
8
0
0
POLYLINE
8
0
62
5
66
1
10
0
20
0
30
0
70
8
0
VERTEX
8
0
62
5
10
0.11288057
20
0.50277568
30
0
70
32
0
VERTEX
8
0
62
5
10
0.11288057
20
0.58231202
30
0
70
32
0
SEQEND
8
0
0
POLYLINE
8
0
62
5
66
1
10
0
20
0
30
0
70
8
0
VERTEX
8
0
62
5
10
0.14116485
20
0.50277568
30
0
70
32
0
VERTEX
8
0
62
5
10
0.14116485
20
0.58231202
30
0
70
32
0
SEQEND
8
0
0
POLYLINE
8
0
62
5
66
1
10
0
20
0
30
0
70
8
0
VERTEX
8
0
62
5
10
0.16944912
20
0.50277568
30
0
70
32
0
VERTEX
8
0
62
5
10
0.16944912
20
0.58231202
30
0
70
32
0
SEQEND
8
0
0
POLYLINE
8
0
62
5
66
1
10
0
20
0
30
0
70
8
0
VERTEX
8
0
62
5
10
-0.14167787
20
0.50277568
30
0
70
32
0
VERTEX
8
0
62
5
10
-0.14167787
20
0.58231202
30
0
70
32
0
SEQEND
8
0
0
POLYLINE
8
0
62
5
66
1
10
0
20
0
30
0
70
8
0
VERTEX
8
0
62
5
10
-0.1133936
20
0.50277568
30
0
70
32
0
VERTEX
8
0
62
5
10
-0.1133936
20
0.58231202
30
0
70
32
0
SEQEND
8
0
0
POLYLINE
8
0
62
5
66
1
10
0
20
0
30
0
70
8
0
VERTEX
8
0
62
5
10
-0.085109325
20
0.50277568
30
0
70
32
0
VERTEX
8
0
62
5
10
-0.085109325
20
0.58231202
30
0
70
32
0
SEQEND
8
0
0
POLYLINE
8
0
62
5
66
1
10
0
20
0
30
0
70
8
0
VERTEX
8
0
62
5
10
-0.056825053
20
0.50277568
30
0
70
32
0
VERTEX
8
0
62
5
10
-0.056825053
20
0.58231202
30
0
70
32
0
SEQEND
8
0
0
POLYLINE
8
0
62
5
66
1
10
0
20
0
30
0
70
8
0
VERTEX
8
0
62
5
10
-0.028540782
20
0.58231202
30
0
70
32
0
VERTEX
8
0
62
5
10
-0.028540782
20
0.58277129
30
0
70
32
0
SEQEND
8
0
0
POLYLINE
8
0
62
5
66
1
10
0
20
0
30
0
70
8
0
VERTEX
8
0
62
5
10
0.084596303
20
0.58277129
30
0
70
32
0
VERTEX
8
0
62
5
10
0.084596303
20
0.58231202
30
0
70
32
0
SEQEND
8
0
0
POLYLINE
8
0
62
5
66
1
10
0
20
0
30
0
70
8
0
VERTEX
8
0
62
5
10
-0.028540782
20
0.58254166
30
0
70
32
0
VERTEX
8
0
62
5
10
-0.00025651096
20
0.58254166
30
0
70
32
0
VERTEX
8
0
62
5
10
0.02802776
20
0.58235142
30
0
70
32
0
VERTEX
8
0
62
5
10
0.056312032
20
0.58235142
30
0
70
32
0
VERTEX
8
0
62
5
10
0.084596303
20
0.58254166
30
0
70
32
0
SEQEND
8
0
0
POLYLINE
8
0
62
5
66
1
10
0
20
0
30
0
70
8
0
SEQEND
8
0
0
POLYLINE
8
0
62
5
66
1
10
0
20
0
30
0
70
8
0
VERTEX
8
0
62
5
10
-0.028540782
20
0.58254166
30
0
70
32
0
VERTEX
8
0
62
5
10
-0.00025651096
20
0.58254166
30
0
70
32
0
VERTEX
8
0
62
5
10
0.02802776
20
0.58273189
30
0
70
32
0
VERTEX
8
0
62
5
10
0.056312032
20
0.58273189
30
0
70
32
0
VERTEX
8
0
62
5
10
0.084596303
20
0.58254166
30
0
70
32
0
SEQEND
8
0
0
POLYLINE
8
0
62
30
66
1
10
0
20
0
30
0
70
8
0
VERTEX
8
0
62
30
10
-0.028540782
20
0.58254166
30
0
70
32
0
VERTEX
8
0
62
30
10
0.084596303
20
0.58254166
30
0
70
32
0
SEQEND
8
0
0
POLYLINE
8
0
62
30
66
1
10
0
20
0
30
0
70
8
0
VERTEX
8
0
62
30
10
-0.00025651096
20
0.58254166
30
0
70
32
0
VERTEX
8
0
62
30
10
-0.00025651096
20
0.58254166
30
0
70
32
0
SEQEND
8
0
0
POLYLINE
8
0
62
30
66
1
10
0
20
0
30
0
70
8
0
VERTEX
8
0
62
30
10
0.02802776
20
0.58235142
30
0
70
32
0
VERTEX
8
0
62
30
10
0.02802776
20
0.58254166
30
0
70
32
0
SEQEND
8
0
0
POLYLINE
8
0
62
30
66
1
10
0
20
0
30
0
70
8
0
VERTEX
8
0
62
30
10
0.056312032
20
0.58235142
30
0
70
32
0
VERTEX
8
0
62
30
10
0.056312032
20
0.58254166
30
0
70
32
0
SEQEND
8
0
0
POLYLINE
8
0
62
5
66
1
10
0
20
0
30
0
70
8
0
VERTEX
8
0
62
5
10
-0.00025651096
20
0.58231202
30
0
70
32
0
VERTEX
8
0
62
5
10
-0.00025651096
20
0.58254166
30
0
70
32
0
SEQEND
8
0
0
POLYLINE
8
0
62
5
66
1
10
0
20
0
30
0
70
8
0
VERTEX
8
0
62
5
10
0.02802776
20
0.58231202
30
0
70
32
0
VERTEX
8
0
62
5
10
0.02802776
20
0.58235142
30
0
70
32
0
SEQEND
8
0
0
POLYLINE
8
0
62
5
66
1
10
0
20
0
30
0
70
8
0
VERTEX
8
0
62
5
10
0.056312032
20
0.58231202
30
0
70
32
0
VERTEX
8
0
62
5
10
0.056312032
20
0.58235142
30
0
70
32
0
SEQEND
8
0
0
POLYLINE
8
0
62
5
66
1
10
0
20
0
30
0
70
8
0
VERTEX
8
0
62
5
10
-0.00025651096
20
0.58254166
30
0
70
32
0
VERTEX
8
0
62
5
10
-0.00025651096
20
0.58277129
30
0
70
32
0
SEQEND
8
0
0
POLYLINE
8
0
62
5
66
1
10
0
20
0
30
0
70
8
0
VERTEX
8
0
62
5
10
0.02802776
20
0.58254166
30
0
70
32
0
VERTEX
8
0
62
5
10
0.02802776
20
0.58277129
30
0
70
32
0
SEQEND
8
0
0
POLYLINE
8
0
62
5
66
1
10
0
20
0
30
0
70
8
0
VERTEX
8
0
62
5
10
0.056312032
20
0.58254166
30
0
70
32
0
VERTEX
8
0
62
5
10
0.056312032
20
0.58277129
30
0
70
32
0
SEQEND
8
0
0
POLYLINE
8
0
62
5
66
1
10
0
20
0
30
0
70
8
0
VERTEX
8
0
62
5
10
0.19773339
20
0.58277129
30
0
70
32
0
VERTEX
8
0
62
5
10
0.19773339
20
0.58231202
30
0
70
32
0
SEQEND
8
0
0
POLYLINE
8
0
62
5
66
1
10
0
20
0
30
0
70
8
0
VERTEX
8
0
62
5
10
0.084596303
20
0.58254166
30
0
70
32
0
VERTEX
8
0
62
5
10
0.11288057
20
0.58254166
30
0
70
32
0
VERTEX
8
0
62
5
10
0.14116485
20
0.58235142
30
0
70
32
0
VERTEX
8
0
62
5
10
0.16944912
20
0.58235142
30
0
70
32
0
VERTEX
8
0
62
5
10
0.19773339
20
0.58254166
30
0
70
32
0
SEQEND
8
0
0
POLYLINE
8
0
62
5
66
1
10
0
20
0
30
0
70
8
0
SEQEND
8
0
0
POLYLINE
8
0
62
5
66
1
10
0
20
0
30
0
70
8
0
VERTEX
8
0
62
5
10
0.084596303
20
0.58254166
30
0
70
32
0
VERTEX
8
0
62
5
10
0.11288057
20
0.58254166
30
0
70
32
0
VERTEX
8
0
62
5
10
0.14116485
20
0.58273189
30
0
70
32
0
VERTEX
8
0
62
5
10
0.16944912
20
0.58273189
30
0
70
32
0
VERTEX
8
0
62
5
10
0.19773339
20
0.58254166
30
0
70
32
0
SEQEND
8
0
0
POLYLINE
8
0
62
30
66
1
10
0
20
0
30
0
70
8
0
VERTEX
8
0
62
30
10
0.084596303
20
0.58254166
30
0
70
32
0
VERTEX
8
0
62
30
10
0.19773339
20
0.58254166
30
0
70
32
0
SEQEND
8
0
0
POLYLINE
8
0
62
30
66
1
10
0
20
0
30
0
70
8
0
VERTEX
8
0
62
30
10
0.11288057
20
0.58254166
30
0
70
32
0
VERTEX
8
0
62
30
10
0.11288057
20
0.58254166
30
0
70
32
0
SEQEND
8
0
0
POLYLINE
8
0
62
30
66
1
10
0
20
0
30
0
70
8
0
VERTEX
8
0
62
30
10
0.14116485
20
0.58235142
30
0
70
32
0
VERTEX
8
0
62
30
10
0.14116485
20
0.58254166
30
0
70
32
0
SEQEND
8
0
0
POLYLINE
8
0
62
30
66
1
10
0
20
0
30
0
70
8
0
VERTEX
8
0
62
30
10
0.16944912
20
0.58235142
30
0
70
32
0
VERTEX
8
0
62
30
10
0.16944912
20
0.58254166
30
0
70
32
0
SEQEND
8
0
0
POLYLINE
8
0
62
5
66
1
10
0
20
0
30
0
70
8
0
VERTEX
8
0
62
5
10
0.11288057
20
0.58231202
30
0
70
32
0
VERTEX
8
0
62
5
10
0.11288057
20
0.58254166
30
0
70
32
0
SEQEND
8
0
0
POLYLINE
8
0
62
5
66
1
10
0
20
0
30
0
70
8
0
VERTEX
8
0
62
5
10
0.14116485
20
0.58231202
30
0
70
32
0
VERTEX
8
0
62
5
10
0.14116485
20
0.58235142
30
0
70
32
0
SEQEND
8
0
0
POLYLINE
8
0
62
5
66
1
10
0
20
0
30
0
70
8
0
VERTEX
8
0
62
5
10
0.16944912
20
0.58231202
30
0
70
32
0
VERTEX
8
0
62
5
10
0.16944912
20
0.58235142
30
0
70
32
0
SEQEND
8
0
0
POLYLINE
8
0
62
5
66
1
10
0
20
0
30
0
70
8
0
VERTEX
8
0
62
5
10
0.11288057
20
0.58254166
30
0
70
32
0
VERTEX
8
0
62
5
10
0.11288057
20
0.58277129
30
0
70
32
0
SEQEND
8
0
0
POLYLINE
8
0
62
5
66
1
10
0
20
0
30
0
70
8
0
VERTEX
8
0
62
5
10
0.14116485
20
0.58254166
30
0
70
32
0
VERTEX
8
0
62
5
10
0.14116485
20
0.58277129
30
0
70
32
0
SEQEND
8
0
0
POLYLINE
8
0
62
5
66
1
10
0
20
0
30
0
70
8
0
VERTEX
8
0
62
5
10
0.16944912
20
0.58254166
30
0
70
32
0
VERTEX
8
0
62
5
10
0.16944912
20
0.58277129
30
0
70
32
0
SEQEND
8
0
0
POLYLINE
8
0
62
5
66
1
10
0
20
0
30
0
70
8
0
VERTEX
8
0
62
5
10
-0.14167787
20
0.58231202
30
0
70
32
0
VERTEX
8
0
62
5
10
-0.14167787
20
0.58277129
30
0
70
32
0
SEQEND
8
0
0
POLYLINE
8
0
62
5
66
1
10
0
20
0
30
0
70
8
0
VERTEX
8
0
62
5
10
-0.14167787
20
0.58254166
30
0
70
32
0
VERTEX
8
0
62
5
10
-0.1133936
20
0.58254166
30
0
70
32
0
VERTEX
8
0
62
5
10
-0.085109325
20
0.58235142
30
0
70
32
0
VERTEX
8
0
62
5
10
-0.056825053
20
0.58235142
30
0
70
32
0
VERTEX
8
0
62
5
10
-0.028540782
20
0.58254166
30
0
70
32
0
SEQEND
8
0
0
POLYLINE
8
0
62
5
66
1
10
0
20
0
30
0
70
8
0
SEQEND
8
0
0
POLYLINE
8
0
62
5
66
1
10
0
20
0
30
0
70
8
0
VERTEX
8
0
62
5
10
-0.14167787
20
0.58254166
30
0
70
32
0
VERTEX
8
0
62
5
10
-0.1133936
20
0.58254166
30
0
70
32
0
VERTEX
8
0
62
5
10
-0.085109325
20
0.58273189
30
0
70
32
0
VERTEX
8
0
62
5
10
-0.056825053
20
0.58273189
30
0
70
32
0
VERTEX
8
0
62
5
10
-0.028540782
20
0.58254166
30
0
70
32
0
SEQEND
8
0
0
POLYLINE
8
0
62
30
66
1
10
0
20
0
30
0
70
8
0
VERTEX
8
0
62
30
10
-0.14167787
20
0.58254166
30
0
70
32
0
VERTEX
8
0
62
30
10
-0.028540782
20
0.58254166
30
0
70
32
0
SEQEND
8
0
0
POLYLINE
8
0
62
30
66
1
10
0
20
0
30
0
70
8
0
VERTEX
8
0
62
30
10
-0.1133936
20
0.58254166
30
0
70
32
0
VERTEX
8
0
62
30
10
-0.1133936
20
0.58254166
30
0
70
32
0
SEQEND
8
0
0
POLYLINE
8
0
62
30
66
1
10
0
20
0
30
0
70
8
0
VERTEX
8
0
62
30
10
-0.085109325
20
0.58235142
30
0
70
32
0
VERTEX
8
0
62
30
10
-0.085109325
20
0.58254166
30
0
70
32
0
SEQEND
8
0
0
POLYLINE
8
0
62
30
66
1
10
0
20
0
30
0
70
8
0
VERTEX
8
0
62
30
10
-0.056825053
20
0.58235142
30
0
70
32
0
VERTEX
8
0
62
30
10
-0.056825053
20
0.58254166
30
0
70
32
0
SEQEND
8
0
0
POLYLINE
8
0
62
5
66
1
10
0
20
0
30
0
70
8
0
VERTEX
8
0
62
5
10
-0.1133936
20
0.58231202
30
0
70
32
0
VERTEX
8
0
62
5
10
-0.1133936
20
0.58254166
30
0
70
32
0
SEQEND
8
0
0
POLYLINE
8
0
62
5
66
1
10
0
20
0
30
0
70
8
0
VERTEX
8
0
62
5
10
-0.085109325
20
0.58231202
30
0
70
32
0
VERTEX
8
0
62
5
10
-0.085109325
20
0.58235142
30
0
70
32
0
SEQEND
8
0
0
POLYLINE
8
0
62
5
66
1
10
0
20
0
30
0
70
8
0
VERTEX
8
0
62
5
10
-0.056825053
20
0.58231202
30
0
70
32
0
VERTEX
8
0
62
5
10
-0.056825053
20
0.58235142
30
0
70
32
0
SEQEND
8
0
0
POLYLINE
8
0
62
5
66
1
10
0
20
0
30
0
70
8
0
VERTEX
8
0
62
5
10
-0.1133936
20
0.58254166
30
0
70
32
0
VERTEX
8
0
62
5
10
-0.1133936
20
0.58277129
30
0
70
32
0
SEQEND
8
0
0
POLYLINE
8
0
62
5
66
1
10
0
20
0
30
0
70
8
0
VERTEX
8
0
62
5
10
-0.085109325
20
0.58254166
30
0
70
32
0
VERTEX
8
0
62
5
10
-0.085109325
20
0.58277129
30
0
70
32
0
SEQEND
8
0
0
POLYLINE
8
0
62
5
66
1
10
0
20
0
30
0
70
8
0
VERTEX
8
0
62
5
10
-0.056825053
20
0.58254166
30
0
70
32
0
VERTEX
8
0
62
5
10
-0.056825053
20
0.58277129
30
0
70
32
0
SEQEND
8
0
0
POLYLINE
8
0
62
5
66
1
10
0
20
0
30
0
70
8
0
VERTEX
8
0
62
5
10
-0.028540782
20
0.58277129
30
0
70
32
0
VERTEX
8
0
62
5
10
-0.028540782
20
0.58377129
30
0
70
32
0
SEQEND
8
0
0
POLYLINE
8
0
62
5
66
1
10
0
20
0
30
0
70
8
0
VERTEX
8
0
62
5
10
0.084596303
20
0.58277129
30
0
70
32
0
VERTEX
8
0
62
5
10
0.084596303
20
0.58377129
30
0
70
32
0
SEQEND
8
0
0
POLYLINE
8
0
62
5
66
1
10
0
20
0
30
0
70
8
0
VERTEX
8
0
62
5
10
-0.00025651096
20
0.58277129
30
0
70
32
0
VERTEX
8
0
62
5
10
-0.00025651096
20
0.58377129
30
0
70
32
0
SEQEND
8
0
0
POLYLINE
8
0
62
5
66
1
10
0
20
0
30
0
70
8
0
VERTEX
8
0
62
5
10
0.02802776
20
0.58277129
30
0
70
32
0
VERTEX
8
0
62
5
10
0.02802776
20
0.58377129
30
0
70
32
0
SEQEND
8
0
0
POLYLINE
8
0
62
5
66
1
10
0
20
0
30
0
70
8
0
VERTEX
8
0
62
5
10
0.056312032
20
0.58277129
30
0
70
32
0
VERTEX
8
0
62
5
10
0.056312032
20
0.58377129
30
0
70
32
0
SEQEND
8
0
0
POLYLINE
8
0
62
5
66
1
10
0
20
0
30
0
70
8
0
VERTEX
8
0
62
5
10
0.19773339
20
0.58277129
30
0
70
32
0
VERTEX
8
0
62
5
10
0.19773339
20
0.58377129
30
0
70
32
0
SEQEND
8
0
0
POLYLINE
8
0
62
5
66
1
10
0
20
0
30
0
70
8
0
VERTEX
8
0
62
5
10
0.11288057
20
0.58277129
30
0
70
32
0
VERTEX
8
0
62
5
10
0.11288057
20
0.58377129
30
0
70
32
0
SEQEND
8
0
0
POLYLINE
8
0
62
5
66
1
10
0
20
0
30
0
70
8
0
VERTEX
8
0
62
5
10
0.14116485
20
0.58277129
30
0
70
32
0
VERTEX
8
0
62
5
10
0.14116485
20
0.58377129
30
0
70
32
0
SEQEND
8
0
0
POLYLINE
8
0
62
5
66
1
10
0
20
0
30
0
70
8
0
VERTEX
8
0
62
5
10
0.16944912
20
0.58277129
30
0
70
32
0
VERTEX
8
0
62
5
10
0.16944912
20
0.58377129
30
0
70
32
0
SEQEND
8
0
0
POLYLINE
8
0
62
5
66
1
10
0
20
0
30
0
70
8
0
VERTEX
8
0
62
5
10
-0.14167787
20
0.58277129
30
0
70
32
0
VERTEX
8
0
62
5
10
-0.14167787
20
0.58377129
30
0
70
32
0
SEQEND
8
0
0
POLYLINE
8
0
62
5
66
1
10
0
20
0
30
0
70
8
0
VERTEX
8
0
62
5
10
-0.1133936
20
0.58277129
30
0
70
32
0
VERTEX
8
0
62
5
10
-0.1133936
20
0.58377129
30
0
70
32
0
SEQEND
8
0
0
POLYLINE
8
0
62
5
66
1
10
0
20
0
30
0
70
8
0
VERTEX
8
0
62
5
10
-0.085109325
20
0.58277129
30
0
70
32
0
VERTEX
8
0
62
5
10
-0.085109325
20
0.58377129
30
0
70
32
0
SEQEND
8
0
0
POLYLINE
8
0
62
5
66
1
10
0
20
0
30
0
70
8
0
VERTEX
8
0
62
5
10
-0.056825053
20
0.58277129
30
0
70
32
0
VERTEX
8
0
62
5
10
-0.056825053
20
0.58377129
30
0
70
32
0
SEQEND
8
0
0
POLYLINE
8
0
62
18
66
1
10
0
20
0
30
0
70
8
0
VERTEX
8
0
62
18
10
0
20
0
30
0
70
32
0
VERTEX
8
0
62
18
10
0.14142136
20
0
30
0
70
32
0
VERTEX
8
0
62
18
10
0.14142136
20
0.25536567
30
0
70
32
0
VERTEX
8
0
62
18
10
0
20
0.25536567
30
0
70
32
0
VERTEX
8
0
62
18
10
0
20
0
30
0
70
32
0
SEQEND
8
0
0
POLYLINE
8
0
62
5
66
1
10
0
20
0
30
0
70
8
0
VERTEX
8
0
62
5
10
0
20
0.25536567
30
0
70
32
0
VERTEX
8
0
62
5
10
0.14142136
20
0.25536567
30
0
70
32
0
SEQEND
8
0
0
POLYLINE
8
0
62
18
66
1
10
0
20
0
30
0
70
8
0
VERTEX
8
0
62
18
10
0
20
0.23536567
30
0
70
32
0
VERTEX
8
0
62
18
10
0.14142136
20
0.23536567
30
0
70
32
0
VERTEX
8
0
62
18
10
0.14142136
20
0.54254385
30
0
70
32
0
VERTEX
8
0
62
18
10
0
20
0.54254385
30
0
70
32
0
VERTEX
8
0
62
18
10
0
20
0.23536567
30
0
70
32
0
SEQEND
8
0
0
POLYLINE
8
0
62
5
66
1
10
0
20
0
30
0
70
8
0
VERTEX
8
0
62
5
10
0
20
0.54254385
30
0
70
32
0
VERTEX
8
0
62
5
10
0.14142136
20
0.54254385
30
0
70
32
0
SEQEND
8
0
0
POLYLINE
8
0
62
18
66
1
10
0
20
0
30
0
70
8
0
VERTEX
8
0
62
18
10
0.14142136
20
0
30
0
70
32
0
VERTEX
8
0
62
18
10
0
20
0
30
0
70
32
0
VERTEX
8
0
62
18
10
0
20
0.58377129
30
0
70
32
0
VERTEX
8
0
62
18
10
0.14142136
20
0.58377129
30
0
70
32
0
VERTEX
8
0
62
18
10
0.14142136
20
0
30
0
70
32
0
SEQEND
8
0
0
ENDSEC
0
EOF
