0
SECTION
2
HEADER
9
$ACADVER
1
AC1006
9
$INSUNITS
70
6
0
ENDSEC
0
SECTION
2
ENTITIES
0
POLYLINE
8
0
62
5
66
1
10
0
20
0
30
0
70
8
0
VERTEX
8
0
62
5
10
0
20
0
30
0
70
32
0
VERTEX
8
0
62
5
10
0
20
0.1
30
0
70
32
0
SEQEND
8
0
0
POLYLINE
8
0
62
5
66
1
10
0
20
0
30
0
70
8
0
VERTEX
8
0
62
5
10
0.11313708
20
0
30
0
70
32
0
VERTEX
8
0
62
5
10
0.11313708
20
0.1
30
0
70
32
0
SEQEND
8
0
0
POLYLINE
8
0
62
5
66
1
10
0
20
0
30
0
70
8
0
VERTEX
8
0
62
5
10
0.028284271
20
0
30
0
70
32
0
VERTEX
8
0
62
5
10
0.028284271
20
0.1
30
0
70
32
0
SEQEND
8
0
0
POLYLINE
8
0
62
5
66
1
10
0
20
0
30
0
70
8
0
VERTEX
8
0
62
5
10
0.056568542
20
0
30
0
70
32
0
VERTEX
8
0
62
5
10
0.056568542
20
0.1
30
0
70
32
0
SEQEND
8
0
0
POLYLINE
8
0
62
5
66
1
10
0
20
0
30
0
70
8
0
VERTEX
8
0
62
5
10
0.084852814
20
0
30
0
70
32
0
VERTEX
8
0
62
5
10
0.084852814
20
0.1
30
0
70
32
0
SEQEND
8
0
0
POLYLINE
8
0
62
5
66
1
10
0
20
0
30
0
70
8
0
VERTEX
8
0
62
5
10
0.22627417
20
0
30
0
70
32
0
VERTEX
8
0
62
5
10
0.22627417
20
0.1
30
0
70
32
0
SEQEND
8
0
0
POLYLINE
8
0
62
5
66
1
10
0
20
0
30
0
70
8
0
VERTEX
8
0
62
5
10
0.14142136
20
0
30
0
70
32
0
VERTEX
8
0
62
5
10
0.14142136
20
0.1
30
0
70
32
0
SEQEND
8
0
0
POLYLINE
8
0
62
5
66
1
10
0
20
0
30
0
70
8
0
VERTEX
8
0
62
5
10
0.16970563
20
0
30
0
70
32
0
VERTEX
8
0
62
5
10
0.16970563
20
0.1
30
0
70
32
0
SEQEND
8
0
0
POLYLINE
8
0
62
5
66
1
10
0
20
0
30
0
70
8
0
VERTEX
8
0
62
5
10
0.1979899
20
0
30
0
70
32
0
VERTEX
8
0
62
5
10
0.1979899
20
0.1
30
0
70
32
0
SEQEND
8
0
0
POLYLINE
8
0
62
5
66
1
10
0
20
0
30
0
70
8
0
VERTEX
8
0
62
5
10
-0.11313708
20
0
30
0
70
32
0
VERTEX
8
0
62
5
10
-0.11313708
20
0.1
30
0
70
32
0
SEQEND
8
0
0
POLYLINE
8
0
62
5
66
1
10
0
20
0
30
0
70
8
0
VERTEX
8
0
62
5
10
-0.084852814
20
0
30
0
70
32
0
VERTEX
8
0
62
5
10
-0.084852814
20
0.1
30
0
70
32
0
SEQEND
8
0
0
POLYLINE
8
0
62
5
66
1
10
0
20
0
30
0
70
8
0
VERTEX
8
0
62
5
10
-0.056568542
20
0
30
0
70
32
0
VERTEX
8
0
62
5
10
-0.056568542
20
0.1
30
0
70
32
0
SEQEND
8
0
0
POLYLINE
8
0
62
5
66
1
10
0
20
0
30
0
70
8
0
VERTEX
8
0
62
5
10
-0.028284271
20
0
30
0
70
32
0
VERTEX
8
0
62
5
10
-0.028284271
20
0.1
30
0
70
32
0
SEQEND
8
0
0
POLYLINE
8
0
62
5
66
1
10
0
20
0
30
0
70
8
0
VERTEX
8
0
62
5
10
0
20
0.1
30
0
70
32
0
VERTEX
8
0
62
5
10
0
20
0.101
30
0
70
32
0
SEQEND
8
0
0
POLYLINE
8
0
62
5
66
1
10
0
20
0
30
0
70
8
0
VERTEX
8
0
62
5
10
0.11313708
20
0.1
30
0
70
32
0
VERTEX
8
0
62
5
10
0.11313708
20
0.101
30
0
70
32
0
SEQEND
8
0
0
POLYLINE
8
0
62
5
66
1
10
0
20
0
30
0
70
8
0
VERTEX
8
0
62
5
10
0.028284271
20
0.1
30
0
70
32
0
VERTEX
8
0
62
5
10
0.028284271
20
0.101
30
0
70
32
0
SEQEND
8
0
0
POLYLINE
8
0
62
5
66
1
10
0
20
0
30
0
70
8
0
VERTEX
8
0
62
5
10
0.056568542
20
0.1
30
0
70
32
0
VERTEX
8
0
62
5
10
0.056568542
20
0.101
30
0
70
32
0
SEQEND
8
0
0
POLYLINE
8
0
62
5
66
1
10
0
20
0
30
0
70
8
0
VERTEX
8
0
62
5
10
0.084852814
20
0.1
30
0
70
32
0
VERTEX
8
0
62
5
10
0.084852814
20
0.101
30
0
70
32
0
SEQEND
8
0
0
POLYLINE
8
0
62
5
66
1
10
0
20
0
30
0
70
8
0
VERTEX
8
0
62
5
10
0.22627417
20
0.1
30
0
70
32
0
VERTEX
8
0
62
5
10
0.22627417
20
0.101
30
0
70
32
0
SEQEND
8
0
0
POLYLINE
8
0
62
5
66
1
10
0
20
0
30
0
70
8
0
VERTEX
8
0
62
5
10
0.14142136
20
0.1
30
0
70
32
0
VERTEX
8
0
62
5
10
0.14142136
20
0.101
30
0
70
32
0
SEQEND
8
0
0
POLYLINE
8
0
62
5
66
1
10
0
20
0
30
0
70
8
0
VERTEX
8
0
62
5
10
0.16970563
20
0.1
30
0
70
32
0
VERTEX
8
0
62
5
10
0.16970563
20
0.101
30
0
70
32
0
SEQEND
8
0
0
POLYLINE
8
0
62
5
66
1
10
0
20
0
30
0
70
8
0
VERTEX
8
0
62
5
10
0.1979899
20
0.1
30
0
70
32
0
VERTEX
8
0
62
5
10
0.1979899
20
0.101
30
0
70
32
0
SEQEND
8
0
0
POLYLINE
8
0
62
5
66
1
10
0
20
0
30
0
70
8
0
VERTEX
8
0
62
5
10
-0.11313708
20
0.1
30
0
70
32
0
VERTEX
8
0
62
5
10
-0.11313708
20
0.101
30
0
70
32
0
SEQEND
8
0
0
POLYLINE
8
0
62
5
66
1
10
0
20
0
30
0
70
8
0
VERTEX
8
0
62
5
10
-0.084852814
20
0.1
30
0
70
32
0
VERTEX
8
0
62
5
10
-0.084852814
20
0.101
30
0
70
32
0
SEQEND
8
0
0
POLYLINE
8
0
62
5
66
1
10
0
20
0
30
0
70
8
0
VERTEX
8
0
62
5
10
-0.056568542
20
0.1
30
0
70
32
0
VERTEX
8
0
62
5
10
-0.056568542
20
0.101
30
0
70
32
0
SEQEND
8
0
0
POLYLINE
8
0
62
5
66
1
10
0
20
0
30
0
70
8
0
VERTEX
8
0
62
5
10
-0.028284271
20
0.1
30
0
70
32
0
VERTEX
8
0
62
5
10
-0.028284271
20
0.101
30
0
70
32
0
SEQEND
8
0
0
POLYLINE
8
0
62
5
66
1
10
0
20
0
30
0
70
8
0
VERTEX
8
0
62
5
10
0
20
0.101
30
0
70
32
0
VERTEX
8
0
62
5
10
0
20
0.16929276
30
0
70
32
0
SEQEND
8
0
0
POLYLINE
8
0
62
5
66
1
10
0
20
0
30
0
70
8
0
VERTEX
8
0
62
5
10
0.11313708
20
0.16929276
30
0
70
32
0
VERTEX
8
0
62
5
10
0.11313708
20
0.101
30
0
70
32
0
SEQEND
8
0
0
POLYLINE
8
0
62
5
66
1
10
0
20
0
30
0
70
8
0
VERTEX
8
0
62
5
10
0
20
0.1039293
30
0
70
32
0
VERTEX
8
0
62
5
10
0.028284271
20
0.1039293
30
0
70
32
0
VERTEX
8
0
62
5
10
0.056568542
20
0.11807319
30
0
70
32
0
VERTEX
8
0
62
5
10
0.084852814
20
0.11807319
30
0
70
32
0
VERTEX
8
0
62
5
10
0.11313708
20
0.1039293
30
0
70
32
0
SEQEND
8
0
0
POLYLINE
8
0
62
5
66
1
10
0
20
0
30
0
70
8
0
VERTEX
8
0
62
5
10
0
20
0.13807568
30
0
70
32
0
VERTEX
8
0
62
5
10
0.028284271
20
0.13807568
30
0
70
32
0
VERTEX
8
0
62
5
10
0.056568542
20
0.15221957
30
0
70
32
0
VERTEX
8
0
62
5
10
0.084852814
20
0.15221957
30
0
70
32
0
VERTEX
8
0
62
5
10
0.11313708
20
0.13807568
30
0
70
32
0
SEQEND
8
0
0
POLYLINE
8
0
62
5
66
1
10
0
20
0
30
0
70
8
0
VERTEX
8
0
62
5
10
0
20
0.13221708
30
0
70
32
0
VERTEX
8
0
62
5
10
0.028284271
20
0.13221708
30
0
70
32
0
VERTEX
8
0
62
5
10
0.056568542
20
0.11807319
30
0
70
32
0
VERTEX
8
0
62
5
10
0.084852814
20
0.11807319
30
0
70
32
0
VERTEX
8
0
62
5
10
0.11313708
20
0.13221708
30
0
70
32
0
SEQEND
8
0
0
POLYLINE
8
0
62
5
66
1
10
0
20
0
30
0
70
8
0
VERTEX
8
0
62
5
10
0
20
0.16636347
30
0
70
32
0
VERTEX
8
0
62
5
10
0.028284271
20
0.16636347
30
0
70
32
0
VERTEX
8
0
62
5
10
0.056568542
20
0.15221957
30
0
70
32
0
VERTEX
8
0
62
5
10
0.084852814
20
0.15221957
30
0
70
32
0
VERTEX
8
0
62
5
10
0.11313708
20
0.16636347
30
0
70
32
0
SEQEND
8
0
0
POLYLINE
8
0
62
30
66
1
10
0
20
0
30
0
70
8
0
VERTEX
8
0
62
30
10
0
20
0.11807319
30
0
70
32
0
VERTEX
8
0
62
30
10
0.11313708
20
0.11807319
30
0
70
32
0
SEQEND
8
0
0
POLYLINE
8
0
62
30
66
1
10
0
20
0
30
0
70
8
0
VERTEX
8
0
62
30
10
0
20
0.15221957
30
0
70
32
0
VERTEX
8
0
62
30
10
0.11313708
20
0.15221957
30
0
70
32
0
SEQEND
8
0
0
POLYLINE
8
0
62
30
66
1
10
0
20
0
30
0
70
8
0
VERTEX
8
0
62
30
10
0.028284271
20
0.1039293
30
0
70
32
0
VERTEX
8
0
62
30
10
0.028284271
20
0.11807319
30
0
70
32
0
SEQEND
8
0
0
POLYLINE
8
0
62
30
66
1
10
0
20
0
30
0
70
8
0
VERTEX
8
0
62
30
10
0.056568542
20
0.11807319
30
0
70
32
0
VERTEX
8
0
62
30
10
0.056568542
20
0.11807319
30
0
70
32
0
SEQEND
8
0
0
POLYLINE
8
0
62
30
66
1
10
0
20
0
30
0
70
8
0
VERTEX
8
0
62
30
10
0.084852814
20
0.11807319
30
0
70
32
0
VERTEX
8
0
62
30
10
0.084852814
20
0.11807319
30
0
70
32
0
SEQEND
8
0
0
POLYLINE
8
0
62
30
66
1
10
0
20
0
30
0
70
8
0
VERTEX
8
0
62
30
10
0.028284271
20
0.13807568
30
0
70
32
0
VERTEX
8
0
62
30
10
0.028284271
20
0.15221957
30
0
70
32
0
SEQEND
8
0
0
POLYLINE
8
0
62
30
66
1
10
0
20
0
30
0
70
8
0
VERTEX
8
0
62
30
10
0.056568542
20
0.15221957
30
0
70
32
0
VERTEX
8
0
62
30
10
0.056568542
20
0.15221957
30
0
70
32
0
SEQEND
8
0
0
POLYLINE
8
0
62
30
66
1
10
0
20
0
30
0
70
8
0
VERTEX
8
0
62
30
10
0.084852814
20
0.15221957
30
0
70
32
0
VERTEX
8
0
62
30
10
0.084852814
20
0.15221957
30
0
70
32
0
SEQEND
8
0
0
POLYLINE
8
0
62
5
66
1
10
0
20
0
30
0
70
8
0
VERTEX
8
0
62
5
10
0.028284271
20
0.101
30
0
70
32
0
VERTEX
8
0
62
5
10
0.028284271
20
0.1039293
30
0
70
32
0
SEQEND
8
0
0
POLYLINE
8
0
62
5
66
1
10
0
20
0
30
0
70
8
0
VERTEX
8
0
62
5
10
0.056568542
20
0.101
30
0
70
32
0
VERTEX
8
0
62
5
10
0.056568542
20
0.11807319
30
0
70
32
0
SEQEND
8
0
0
POLYLINE
8
0
62
5
66
1
10
0
20
0
30
0
70
8
0
VERTEX
8
0
62
5
10
0.084852814
20
0.101
30
0
70
32
0
VERTEX
8
0
62
5
10
0.084852814
20
0.11807319
30
0
70
32
0
SEQEND
8
0
0
POLYLINE
8
0
62
5
66
1
10
0
20
0
30
0
70
8
0
VERTEX
8
0
62
5
10
0.028284271
20
0.13514638
30
0
70
32
0
VERTEX
8
0
62
5
10
0.028284271
20
0.13807568
30
0
70
32
0
SEQEND
8
0
0
POLYLINE
8
0
62
5
66
1
10
0
20
0
30
0
70
8
0
VERTEX
8
0
62
5
10
0.056568542
20
0.13514638
30
0
70
32
0
VERTEX
8
0
62
5
10
0.056568542
20
0.15221957
30
0
70
32
0
SEQEND
8
0
0
POLYLINE
8
0
62
5
66
1
10
0
20
0
30
0
70
8
0
VERTEX
8
0
62
5
10
0.084852814
20
0.13514638
30
0
70
32
0
VERTEX
8
0
62
5
10
0.084852814
20
0.15221957
30
0
70
32
0
SEQEND
8
0
0
POLYLINE
8
0
62
5
66
1
10
0
20
0
30
0
70
8
0
VERTEX
8
0
62
5
10
0.028284271
20
0.11807319
30
0
70
32
0
VERTEX
8
0
62
5
10
0.028284271
20
0.13514638
30
0
70
32
0
SEQEND
8
0
0
POLYLINE
8
0
62
5
66
1
10
0
20
0
30
0
70
8
0
VERTEX
8
0
62
5
10
0.056568542
20
0.11807319
30
0
70
32
0
VERTEX
8
0
62
5
10
0.056568542
20
0.13514638
30
0
70
32
0
SEQEND
8
0
0
POLYLINE
8
0
62
5
66
1
10
0
20
0
30
0
70
8
0
VERTEX
8
0
62
5
10
0.084852814
20
0.11807319
30
0
70
32
0
VERTEX
8
0
62
5
10
0.084852814
20
0.13514638
30
0
70
32
0
SEQEND
8
0
0
POLYLINE
8
0
62
5
66
1
10
0
20
0
30
0
70
8
0
VERTEX
8
0
62
5
10
0.028284271
20
0.15221957
30
0
70
32
0
VERTEX
8
0
62
5
10
0.028284271
20
0.16929276
30
0
70
32
0
SEQEND
8
0
0
POLYLINE
8
0
62
5
66
1
10
0
20
0
30
0
70
8
0
VERTEX
8
0
62
5
10
0.056568542
20
0.15221957
30
0
70
32
0
VERTEX
8
0
62
5
10
0.056568542
20
0.16929276
30
0
70
32
0
SEQEND
8
0
0
POLYLINE
8
0
62
5
66
1
10
0
20
0
30
0
70
8
0
VERTEX
8
0
62
5
10
0.084852814
20
0.15221957
30
0
70
32
0
VERTEX
8
0
62
5
10
0.084852814
20
0.16929276
30
0
70
32
0
SEQEND
8
0
0
POLYLINE
8
0
62
30
66
1
10
0
20
0
30
0
70
8
0
VERTEX
8
0
62
30
10
0
20
0.1039293
30
0
70
32
0
VERTEX
8
0
62
30
10
0.0087409212
20
0.11807319
30
0
70
32
0
VERTEX
8
0
62
30
10
0
20
0.13221708
30
0
70
32
0
SEQEND
8
0
0
POLYLINE
8
0
62
30
66
1
10
0
20
0
30
0
70
8
0
VERTEX
8
0
62
30
10
0.028284271
20
0.1039293
30
0
70
32
0
VERTEX
8
0
62
30
10
0.037025192
20
0.11807319
30
0
70
32
0
VERTEX
8
0
62
30
10
0.028284271
20
0.13221708
30
0
70
32
0
SEQEND
8
0
0
POLYLINE
8
0
62
30
66
1
10
0
20
0
30
0
70
8
0
VERTEX
8
0
62
30
10
0.056568542
20
0.11807319
30
0
70
32
0
VERTEX
8
0
62
30
10
0.056568542
20
0.11807319
30
0
70
32
0
VERTEX
8
0
62
30
10
0.056568542
20
0.11807319
30
0
70
32
0
SEQEND
8
0
0
POLYLINE
8
0
62
30
66
1
10
0
20
0
30
0
70
8
0
VERTEX
8
0
62
30
10
0.084852814
20
0.11807319
30
0
70
32
0
VERTEX
8
0
62
30
10
0.084852814
20
0.11807319
30
0
70
32
0
VERTEX
8
0
62
30
10
0.084852814
20
0.11807319
30
0
70
32
0
SEQEND
8
0
0
POLYLINE
8
0
62
30
66
1
10
0
20
0
30
0
70
8
0
VERTEX
8
0
62
30
10
0
20
0.13807568
30
0
70
32
0
VERTEX
8
0
62
30
10
0.0087409212
20
0.15221957
30
0
70
32
0
VERTEX
8
0
62
30
10
0
20
0.16636347
30
0
70
32
0
SEQEND
8
0
0
POLYLINE
8
0
62
30
66
1
10
0
20
0
30
0
70
8
0
VERTEX
8
0
62
30
10
0.028284271
20
0.13807568
30
0
70
32
0
VERTEX
8
0
62
30
10
0.037025192
20
0.15221957
30
0
70
32
0
VERTEX
8
0
62
30
10
0.028284271
20
0.16636347
30
0
70
32
0
SEQEND
8
0
0
POLYLINE
8
0
62
30
66
1
10
0
20
0
30
0
70
8
0
VERTEX
8
0
62
30
10
0.056568542
20
0.15221957
30
0
70
32
0
VERTEX
8
0
62
30
10
0.056568542
20
0.15221957
30
0
70
32
0
VERTEX
8
0
62
30
10
0.056568542
20
0.15221957
30
0
70
32
0
SEQEND
8
0
0
POLYLINE
8
0
62
30
66
1
10
0
20
0
30
0
70
8
0
VERTEX
8
0
62
30
10
0.084852814
20
0.15221957
30
0
70
32
0
VERTEX
8
0
62
30
10
0.084852814
20
0.15221957
30
0
70
32
0
VERTEX
8
0
62
30
10
0.084852814
20
0.15221957
30
0
70
32
0
SEQEND
8
0
0
POLYLINE
8
0
62
5
66
1
10
0
20
0
30
0
70
8
0
VERTEX
8
0
62
5
10
0.22627417
20
0.16929276
30
0
70
32
0
VERTEX
8
0
62
5
10
0.22627417
20
0.101
30
0
70
32
0
SEQEND
8
0
0
POLYLINE
8
0
62
5
66
1
10
0
20
0
30
0
70
8
0
VERTEX
8
0
62
5
10
0.11313708
20
0.1039293
30
0
70
32
0
VERTEX
8
0
62
5
10
0.14142136
20
0.1039293
30
0
70
32
0
VERTEX
8
0
62
5
10
0.16970563
20
0.11807319
30
0
70
32
0
VERTEX
8
0
62
5
10
0.1979899
20
0.11807319
30
0
70
32
0
VERTEX
8
0
62
5
10
0.22627417
20
0.1039293
30
0
70
32
0
SEQEND
8
0
0
POLYLINE
8
0
62
5
66
1
10
0
20
0
30
0
70
8
0
VERTEX
8
0
62
5
10
0.11313708
20
0.13807568
30
0
70
32
0
VERTEX
8
0
62
5
10
0.14142136
20
0.13807568
30
0
70
32
0
VERTEX
8
0
62
5
10
0.16970563
20
0.15221957
30
0
70
32
0
VERTEX
8
0
62
5
10
0.1979899
20
0.15221957
30
0
70
32
0
VERTEX
8
0
62
5
10
0.22627417
20
0.13807568
30
0
70
32
0
SEQEND
8
0
0
POLYLINE
8
0
62
5
66
1
10
0
20
0
30
0
70
8
0
VERTEX
8
0
62
5
10
0.11313708
20
0.13221708
30
0
70
32
0
VERTEX
8
0
62
5
10
0.14142136
20
0.13221708
30
0
70
32
0
VERTEX
8
0
62
5
10
0.16970563
20
0.11807319
30
0
70
32
0
VERTEX
8
0
62
5
10
0.1979899
20
0.11807319
30
0
70
32
0
VERTEX
8
0
62
5
10
0.22627417
20
0.13221708
30
0
70
32
0
SEQEND
8
0
0
POLYLINE
8
0
62
5
66
1
10
0
20
0
30
0
70
8
0
VERTEX
8
0
62
5
10
0.11313708
20
0.16636347
30
0
70
32
0
VERTEX
8
0
62
5
10
0.14142136
20
0.16636347
30
0
70
32
0
VERTEX
8
0
62
5
10
0.16970563
20
0.15221957
30
0
70
32
0
VERTEX
8
0
62
5
10
0.1979899
20
0.15221957
30
0
70
32
0
VERTEX
8
0
62
5
10
0.22627417
20
0.16636347
30
0
70
32
0
SEQEND
8
0
0
POLYLINE
8
0
62
30
66
1
10
0
20
0
30
0
70
8
0
VERTEX
8
0
62
30
10
0.11313708
20
0.11807319
30
0
70
32
0
VERTEX
8
0
62
30
10
0.22627417
20
0.11807319
30
0
70
32
0
SEQEND
8
0
0
POLYLINE
8
0
62
30
66
1
10
0
20
0
30
0
70
8
0
VERTEX
8
0
62
30
10
0.11313708
20
0.15221957
30
0
70
32
0
VERTEX
8
0
62
30
10
0.22627417
20
0.15221957
30
0
70
32
0
SEQEND
8
0
0
POLYLINE
8
0
62
30
66
1
10
0
20
0
30
0
70
8
0
VERTEX
8
0
62
30
10
0.14142136
20
0.1039293
30
0
70
32
0
VERTEX
8
0
62
30
10
0.14142136
20
0.11807319
30
0
70
32
0
SEQEND
8
0
0
POLYLINE
8
0
62
30
66
1
10
0
20
0
30
0
70
8
0
VERTEX
8
0
62
30
10
0.16970563
20
0.11807319
30
0
70
32
0
VERTEX
8
0
62
30
10
0.16970563
20
0.11807319
30
0
70
32
0
SEQEND
8
0
0
POLYLINE
8
0
62
30
66
1
10
0
20
0
30
0
70
8
0
VERTEX
8
0
62
30
10
0.1979899
20
0.11807319
30
0
70
32
0
VERTEX
8
0
62
30
10
0.1979899
20
0.11807319
30
0
70
32
0
SEQEND
8
0
0
POLYLINE
8
0
62
30
66
1
10
0
20
0
30
0
70
8
0
VERTEX
8
0
62
30
10
0.14142136
20
0.13807568
30
0
70
32
0
VERTEX
8
0
62
30
10
0.14142136
20
0.15221957
30
0
70
32
0
SEQEND
8
0
0
POLYLINE
8
0
62
30
66
1
10
0
20
0
30
0
70
8
0
VERTEX
8
0
62
30
10
0.16970563
20
0.15221957
30
0
70
32
0
VERTEX
8
0
62
30
10
0.16970563
20
0.15221957
30
0
70
32
0
SEQEND
8
0
0
POLYLINE
8
0
62
30
66
1
10
0
20
0
30
0
70
8
0
VERTEX
8
0
62
30
10
0.1979899
20
0.15221957
30
0
70
32
0
VERTEX
8
0
62
30
10
0.1979899
20
0.15221957
30
0
70
32
0
SEQEND
8
0
0
POLYLINE
8
0
62
5
66
1
10
0
20
0
30
0
70
8
0
VERTEX
8
0
62
5
10
0.14142136
20
0.101
30
0
70
32
0
VERTEX
8
0
62
5
10
0.14142136
20
0.1039293
30
0
70
32
0
SEQEND
8
0
0
POLYLINE
8
0
62
5
66
1
10
0
20
0
30
0
70
8
0
VERTEX
8
0
62
5
10
0.16970563
20
0.101
30
0
70
32
0
VERTEX
8
0
62
5
10
0.16970563
20
0.11807319
30
0
70
32
0
SEQEND
8
0
0
POLYLINE
8
0
62
5
66
1
10
0
20
0
30
0
70
8
0
VERTEX
8
0
62
5
10
0.1979899
20
0.101
30
0
70
32
0
VERTEX
8
0
62
5
10
0.1979899
20
0.11807319
30
0
70
32
0
SEQEND
8
0
0
POLYLINE
8
0
62
5
66
1
10
0
20
0
30
0
70
8
0
VERTEX
8
0
62
5
10
0.14142136
20
0.13514638
30
0
70
32
0
VERTEX
8
0
62
5
10
0.14142136
20
0.13807568
30
0
70
32
0
SEQEND
8
0
0
POLYLINE
8
0
62
5
66
1
10
0
20
0
30
0
70
8
0
VERTEX
8
0
62
5
10
0.16970563
20
0.13514638
30
0
70
32
0
VERTEX
8
0
62
5
10
0.16970563
20
0.15221957
30
0
70
32
0
SEQEND
8
0
0
POLYLINE
8
0
62
5
66
1
10
0
20
0
30
0
70
8
0
VERTEX
8
0
62
5
10
0.1979899
20
0.13514638
30
0
70
32
0
VERTEX
8
0
62
5
10
0.1979899
20
0.15221957
30
0
70
32
0
SEQEND
8
0
0
POLYLINE
8
0
62
5
66
1
10
0
20
0
30
0
70
8
0
VERTEX
8
0
62
5
10
0.14142136
20
0.11807319
30
0
70
32
0
VERTEX
8
0
62
5
10
0.14142136
20
0.13514638
30
0
70
32
0
SEQEND
8
0
0
POLYLINE
8
0
62
5
66
1
10
0
20
0
30
0
70
8
0
VERTEX
8
0
62
5
10
0.16970563
20
0.11807319
30
0
70
32
0
VERTEX
8
0
62
5
10
0.16970563
20
0.13514638
30
0
70
32
0
SEQEND
8
0
0
POLYLINE
8
0
62
5
66
1
10
0
20
0
30
0
70
8
0
VERTEX
8
0
62
5
10
0.1979899
20
0.11807319
30
0
70
32
0
VERTEX
8
0
62
5
10
0.1979899
20
0.13514638
30
0
70
32
0
SEQEND
8
0
0
POLYLINE
8
0
62
5
66
1
10
0
20
0
30
0
70
8
0
VERTEX
8
0
62
5
10
0.14142136
20
0.15221957
30
0
70
32
0
VERTEX
8
0
62
5
10
0.14142136
20
0.16929276
30
0
70
32
0
SEQEND
8
0
0
POLYLINE
8
0
62
5
66
1
10
0
20
0
30
0
70
8
0
VERTEX
8
0
62
5
10
0.16970563
20
0.15221957
30
0
70
32
0
VERTEX
8
0
62
5
10
0.16970563
20
0.16929276
30
0
70
32
0
SEQEND
8
0
0
POLYLINE
8
0
62
5
66
1
10
0
20
0
30
0
70
8
0
VERTEX
8
0
62
5
10
0.1979899
20
0.15221957
30
0
70
32
0
VERTEX
8
0
62
5
10
0.1979899
20
0.16929276
30
0
70
32
0
SEQEND
8
0
0
POLYLINE
8
0
62
30
66
1
10
0
20
0
30
0
70
8
0
VERTEX
8
0
62
30
10
0.11313708
20
0.1039293
30
0
70
32
0
VERTEX
8
0
62
30
10
0.12187801
20
0.11807319
30
0
70
32
0
VERTEX
8
0
62
30
10
0.11313708
20
0.13221708
30
0
70
32
0
SEQEND
8
0
0
POLYLINE
8
0
62
30
66
1
10
0
20
0
30
0
70
8
0
VERTEX
8
0
62
30
10
0.14142136
20
0.1039293
30
0
70
32
0
VERTEX
8
0
62
30
10
0.15016228
20
0.11807319
30
0
70
32
0
VERTEX
8
0
62
30
10
0.14142136
20
0.13221708
30
0
70
32
0
SEQEND
8
0
0
POLYLINE
8
0
62
30
66
1
10
0
20
0
30
0
70
8
0
VERTEX
8
0
62
30
10
0.16970563
20
0.11807319
30
0
70
32
0
VERTEX
8
0
62
30
10
0.16970563
20
0.11807319
30
0
70
32
0
VERTEX
8
0
62
30
10
0.16970563
20
0.11807319
30
0
70
32
0
SEQEND
8
0
0
POLYLINE
8
0
62
30
66
1
10
0
20
0
30
0
70
8
0
VERTEX
8
0
62
30
10
0.1979899
20
0.11807319
30
0
70
32
0
VERTEX
8
0
62
30
10
0.1979899
20
0.11807319
30
0
70
32
0
VERTEX
8
0
62
30
10
0.1979899
20
0.11807319
30
0
70
32
0
SEQEND
8
0
0
POLYLINE
8
0
62
30
66
1
10
0
20
0
30
0
70
8
0
VERTEX
8
0
62
30
10
0.11313708
20
0.13807568
30
0
70
32
0
VERTEX
8
0
62
30
10
0.12187801
20
0.15221957
30
0
70
32
0
VERTEX
8
0
62
30
10
0.11313708
20
0.16636347
30
0
70
32
0
SEQEND
8
0
0
POLYLINE
8
0
62
30
66
1
10
0
20
0
30
0
70
8
0
VERTEX
8
0
62
30
10
0.14142136
20
0.13807568
30
0
70
32
0
VERTEX
8
0
62
30
10
0.15016228
20
0.15221957
30
0
70
32
0
VERTEX
8
0
62
30
10
0.14142136
20
0.16636347
30
0
70
32
0
SEQEND
8
0
0
POLYLINE
8
0
62
30
66
1
10
0
20
0
30
0
70
8
0
VERTEX
8
0
62
30
10
0.16970563
20
0.15221957
30
0
70
32
0
VERTEX
8
0
62
30
10
0.16970563
20
0.15221957
30
0
70
32
0
VERTEX
8
0
62
30
10
0.16970563
20
0.15221957
30
0
70
32
0
SEQEND
8
0
0
POLYLINE
8
0
62
30
66
1
10
0
20
0
30
0
70
8
0
VERTEX
8
0
62
30
10
0.1979899
20
0.15221957
30
0
70
32
0
VERTEX
8
0
62
30
10
0.1979899
20
0.15221957
30
0
70
32
0
VERTEX
8
0
62
30
10
0.1979899
20
0.15221957
30
0
70
32
0
SEQEND
8
0
0
POLYLINE
8
0
62
5
66
1
10
0
20
0
30
0
70
8
0
VERTEX
8
0
62
5
10
-0.11313708
20
0.101
30
0
70
32
0
VERTEX
8
0
62
5
10
-0.11313708
20
0.16929276
30
0
70
32
0
SEQEND
8
0
0
POLYLINE
8
0
62
5
66
1
10
0
20
0
30
0
70
8
0
VERTEX
8
0
62
5
10
-0.11313708
20
0.1039293
30
0
70
32
0
VERTEX
8
0
62
5
10
-0.084852814
20
0.1039293
30
0
70
32
0
VERTEX
8
0
62
5
10
-0.056568542
20
0.11807319
30
0
70
32
0
VERTEX
8
0
62
5
10
-0.028284271
20
0.11807319
30
0
70
32
0
VERTEX
8
0
62
5
10
0
20
0.1039293
30
0
70
32
0
SEQEND
8
0
0
POLYLINE
8
0
62
5
66
1
10
0
20
0
30
0
70
8
0
VERTEX
8
0
62
5
10
-0.11313708
20
0.13807568
30
0
70
32
0
VERTEX
8
0
62
5
10
-0.084852814
20
0.13807568
30
0
70
32
0
VERTEX
8
0
62
5
10
-0.056568542
20
0.15221957
30
0
70
32
0
VERTEX
8
0
62
5
10
-0.028284271
20
0.15221957
30
0
70
32
0
VERTEX
8
0
62
5
10
0
20
0.13807568
30
0
70
32
0
SEQEND
8
0
0
POLYLINE
8
0
62
5
66
1
10
0
20
0
30
0
70
8
0
VERTEX
8
0
62
5
10
-0.11313708
20
0.13221708
30
0
70
32
0
VERTEX
8
0
62
5
10
-0.084852814
20
0.13221708
30
0
70
32
0
VERTEX
8
0
62
5
10
-0.056568542
20
0.11807319
30
0
70
32
0
VERTEX
8
0
62
5
10
-0.028284271
20
0.11807319
30
0
70
32
0
VERTEX
8
0
62
5
10
0
20
0.13221708
30
0
70
32
0
SEQEND
8
0
0
POLYLINE
8
0
62
5
66
1
10
0
20
0
30
0
70
8
0
VERTEX
8
0
62
5
10
-0.11313708
20
0.16636347
30
0
70
32
0
VERTEX
8
0
62
5
10
-0.084852814
20
0.16636347
30
0
70
32
0
VERTEX
8
0
62
5
10
-0.056568542
20
0.15221957
30
0
70
32
0
VERTEX
8
0
62
5
10
-0.028284271
20
0.15221957
30
0
70
32
0
VERTEX
8
0
62
5
10
0
20
0.16636347
30
0
70
32
0
SEQEND
8
0
0
POLYLINE
8
0
62
30
66
1
10
0
20
0
30
0
70
8
0
VERTEX
8
0
62
30
10
-0.11313708
20
0.11807319
30
0
70
32
0
VERTEX
8
0
62
30
10
0
20
0.11807319
30
0
70
32
0
SEQEND
8
0
0
POLYLINE
8
0
62
30
66
1
10
0
20
0
30
0
70
8
0
VERTEX
8
0
62
30
10
-0.11313708
20
0.15221957
30
0
70
32
0
VERTEX
8
0
62
30
10
0
20
0.15221957
30
0
70
32
0
SEQEND
8
0
0
POLYLINE
8
0
62
30
66
1
10
0
20
0
30
0
70
8
0
VERTEX
8
0
62
30
10
-0.084852814
20
0.1039293
30
0
70
32
0
VERTEX
8
0
62
30
10
-0.084852814
20
0.11807319
30
0
70
32
0
SEQEND
8
0
0
POLYLINE
8
0
62
30
66
1
10
0
20
0
30
0
70
8
0
VERTEX
8
0
62
30
10
-0.056568542
20
0.11807319
30
0
70
32
0
VERTEX
8
0
62
30
10
-0.056568542
20
0.11807319
30
0
70
32
0
SEQEND
8
0
0
POLYLINE
8
0
62
30
66
1
10
0
20
0
30
0
70
8
0
VERTEX
8
0
62
30
10
-0.028284271
20
0.11807319
30
0
70
32
0
VERTEX
8
0
62
30
10
-0.028284271
20
0.11807319
30
0
70
32
0
SEQEND
8
0
0
POLYLINE
8
0
62
30
66
1
10
0
20
0
30
0
70
8
0
VERTEX
8
0
62
30
10
-0.084852814
20
0.13807568
30
0
70
32
0
VERTEX
8
0
62
30
10
-0.084852814
20
0.15221957
30
0
70
32
0
SEQEND
8
0
0
POLYLINE
8
0
62
30
66
1
10
0
20
0
30
0
70
8
0
VERTEX
8
0
62
30
10
-0.056568542
20
0.15221957
30
0
70
32
0
VERTEX
8
0
62
30
10
-0.056568542
20
0.15221957
30
0
70
32
0
SEQEND
8
0
0
POLYLINE
8
0
62
30
66
1
10
0
20
0
30
0
70
8
0
VERTEX
8
0
62
30
10
-0.028284271
20
0.15221957
30
0
70
32
0
VERTEX
8
0
62
30
10
-0.028284271
20
0.15221957
30
0
70
32
0
SEQEND
8
0
0
POLYLINE
8
0
62
5
66
1
10
0
20
0
30
0
70
8
0
VERTEX
8
0
62
5
10
-0.084852814
20
0.101
30
0
70
32
0
VERTEX
8
0
62
5
10
-0.084852814
20
0.1039293
30
0
70
32
0
SEQEND
8
0
0
POLYLINE
8
0
62
5
66
1
10
0
20
0
30
0
70
8
0
VERTEX
8
0
62
5
10
-0.056568542
20
0.101
30
0
70
32
0
VERTEX
8
0
62
5
10
-0.056568542
20
0.11807319
30
0
70
32
0
SEQEND
8
0
0
POLYLINE
8
0
62
5
66
1
10
0
20
0
30
0
70
8
0
VERTEX
8
0
62
5
10
-0.028284271
20
0.101
30
0
70
32
0
VERTEX
8
0
62
5
10
-0.028284271
20
0.11807319
30
0
70
32
0
SEQEND
8
0
0
POLYLINE
8
0
62
5
66
1
10
0
20
0
30
0
70
8
0
VERTEX
8
0
62
5
10
-0.084852814
20
0.13514638
30
0
70
32
0
VERTEX
8
0
62
5
10
-0.084852814
20
0.13807568
30
0
70
32
0
SEQEND
8
0
0
POLYLINE
8
0
62
5
66
1
10
0
20
0
30
0
70
8
0
VERTEX
8
0
62
5
10
-0.056568542
20
0.13514638
30
0
70
32
0
VERTEX
8
0
62
5
10
-0.056568542
20
0.15221957
30
0
70
32
0
SEQEND
8
0
0
POLYLINE
8
0
62
5
66
1
10
0
20
0
30
0
70
8
0
VERTEX
8
0
62
5
10
-0.028284271
20
0.13514638
30
0
70
32
0
VERTEX
8
0
62
5
10
-0.028284271
20
0.15221957
30
0
70
32
0
SEQEND
8
0
0
POLYLINE
8
0
62
5
66
1
10
0
20
0
30
0
70
8
0
VERTEX
8
0
62
5
10
-0.084852814
20
0.11807319
30
0
70
32
0
VERTEX
8
0
62
5
10
-0.084852814
20
0.13514638
30
0
70
32
0
SEQEND
8
0
0
POLYLINE
8
0
62
5
66
1
10
0
20
0
30
0
70
8
0
VERTEX
8
0
62
5
10
-0.056568542
20
0.11807319
30
0
70
32
0
VERTEX
8
0
62
5
10
-0.056568542
20
0.13514638
30
0
70
32
0
SEQEND
8
0
0
POLYLINE
8
0
62
5
66
1
10
0
20
0
30
0
70
8
0
VERTEX
8
0
62
5
10
-0.028284271
20
0.11807319
30
0
70
32
0
VERTEX
8
0
62
5
10
-0.028284271
20
0.13514638
30
0
70
32
0
SEQEND
8
0
0
POLYLINE
8
0
62
5
66
1
10
0
20
0
30
0
70
8
0
VERTEX
8
0
62
5
10
-0.084852814
20
0.15221957
30
0
70
32
0
VERTEX
8
0
62
5
10
-0.084852814
20
0.16929276
30
0
70
32
0
SEQEND
8
0
0
POLYLINE
8
0
62
5
66
1
10
0
20
0
30
0
70
8
0
VERTEX
8
0
62
5
10
-0.056568542
20
0.15221957
30
0
70
32
0
VERTEX
8
0
62
5
10
-0.056568542
20
0.16929276
30
0
70
32
0
SEQEND
8
0
0
POLYLINE
8
0
62
5
66
1
10
0
20
0
30
0
70
8
0
VERTEX
8
0
62
5
10
-0.028284271
20
0.15221957
30
0
70
32
0
VERTEX
8
0
62
5
10
-0.028284271
20
0.16929276
30
0
70
32
0
SEQEND
8
0
0
POLYLINE
8
0
62
30
66
1
10
0
20
0
30
0
70
8
0
VERTEX
8
0
62
30
10
-0.11313708
20
0.1039293
30
0
70
32
0
VERTEX
8
0
62
30
10
-0.10439616
20
0.11807319
30
0
70
32
0
VERTEX
8
0
62
30
10
-0.11313708
20
0.13221708
30
0
70
32
0
SEQEND
8
0
0
POLYLINE
8
0
62
30
66
1
10
0
20
0
30
0
70
8
0
VERTEX
8
0
62
30
10
-0.084852814
20
0.1039293
30
0
70
32
0
VERTEX
8
0
62
30
10
-0.076111893
20
0.11807319
30
0
70
32
0
VERTEX
8
0
62
30
10
-0.084852814
20
0.13221708
30
0
70
32
0
SEQEND
8
0
0
POLYLINE
8
0
62
30
66
1
10
0
20
0
30
0
70
8
0
VERTEX
8
0
62
30
10
-0.056568542
20
0.11807319
30
0
70
32
0
VERTEX
8
0
62
30
10
-0.056568542
20
0.11807319
30
0
70
32
0
VERTEX
8
0
62
30
10
-0.056568542
20
0.11807319
30
0
70
32
0
SEQEND
8
0
0
POLYLINE
8
0
62
30
66
1
10
0
20
0
30
0
70
8
0
VERTEX
8
0
62
30
10
-0.028284271
20
0.11807319
30
0
70
32
0
VERTEX
8
0
62
30
10
-0.028284271
20
0.11807319
30
0
70
32
0
VERTEX
8
0
62
30
10
-0.028284271
20
0.11807319
30
0
70
32
0
SEQEND
8
0
0
POLYLINE
8
0
62
30
66
1
10
0
20
0
30
0
70
8
0
VERTEX
8
0
62
30
10
-0.11313708
20
0.13807568
30
0
70
32
0
VERTEX
8
0
62
30
10
-0.10439616
20
0.15221957
30
0
70
32
0
VERTEX
8
0
62
30
10
-0.11313708
20
0.16636347
30
0
70
32
0
SEQEND
8
0
0
POLYLINE
8
0
62
30
66
1
10
0
20
0
30
0
70
8
0
VERTEX
8
0
62
30
10
-0.084852814
20
0.13807568
30
0
70
32
0
VERTEX
8
0
62
30
10
-0.076111893
20
0.15221957
30
0
70
32
0
VERTEX
8
0
62
30
10
-0.084852814
20
0.16636347
30
0
70
32
0
SEQEND
8
0
0
POLYLINE
8
0
62
30
66
1
10
0
20
0
30
0
70
8
0
VERTEX
8
0
62
30
10
-0.056568542
20
0.15221957
30
0
70
32
0
VERTEX
8
0
62
30
10
-0.056568542
20
0.15221957
30
0
70
32
0
VERTEX
8
0
62
30
10
-0.056568542
20
0.15221957
30
0
70
32
0
SEQEND
8
0
0
POLYLINE
8
0
62
30
66
1
10
0
20
0
30
0
70
8
0
VERTEX
8
0
62
30
10
-0.028284271
20
0.15221957
30
0
70
32
0
VERTEX
8
0
62
30
10
-0.028284271
20
0.15221957
30
0
70
32
0
VERTEX
8
0
62
30
10
-0.028284271
20
0.15221957
30
0
70
32
0
SEQEND
8
0
0
POLYLINE
8
0
62
5
66
1
10
0
20
0
30
0
70
8
0
VERTEX
8
0
62
5
10
0
20
0.16929276
30
0
70
32
0
VERTEX
8
0
62
5
10
0
20
0.17224943
30
0
70
32
0
SEQEND
8
0
0
POLYLINE
8
0
62
5
66
1
10
0
20
0
30
0
70
8
0
VERTEX
8
0
62
5
10
0.028284271
20
0.16929276
30
0
70
32
0
VERTEX
8
0
62
5
10
0.028284271
20
0.17224943
30
0
70
32
0
SEQEND
8
0
0
POLYLINE
8
0
62
5
66
1
10
0
20
0
30
0
70
8
0
VERTEX
8
0
62
5
10
0.056568542
20
0.16929276
30
0
70
32
0
VERTEX
8
0
62
5
10
0.056568542
20
0.17224943
30
0
70
32
0
SEQEND
8
0
0
POLYLINE
8
0
62
5
66
1
10
0
20
0
30
0
70
8
0
VERTEX
8
0
62
5
10
0.084852814
20
0.16929276
30
0
70
32
0
VERTEX
8
0
62
5
10
0.084852814
20
0.17224943
30
0
70
32
0
SEQEND
8
0
0
POLYLINE
8
0
62
5
66
1
10
0
20
0
30
0
70
8
0
VERTEX
8
0
62
5
10
0.11313708
20
0.16929276
30
0
70
32
0
VERTEX
8
0
62
5
10
0.11313708
20
0.17224943
30
0
70
32
0
SEQEND
8
0
0
POLYLINE
8
0
62
5
66
1
10
0
20
0
30
0
70
8
0
VERTEX
8
0
62
5
10
0.028284271
20
0.16929276
30
0
70
32
0
VERTEX
8
0
62
5
10
0.028284271
20
0.16929276
30
0
70
32
0
SEQEND
8
0
0
POLYLINE
8
0
62
5
66
1
10
0
20
0
30
0
70
8
0
VERTEX
8
0
62
5
10
0.056568542
20
0.16929276
30
0
70
32
0
VERTEX
8
0
62
5
10
0.056568542
20
0.16929276
30
0
70
32
0
SEQEND
8
0
0
POLYLINE
8
0
62
5
66
1
10
0
20
0
30
0
70
8
0
VERTEX
8
0
62
5
10
0.084852814
20
0.16929276
30
0
70
32
0
VERTEX
8
0
62
5
10
0.084852814
20
0.16929276
30
0
70
32
0
SEQEND
8
0
0
POLYLINE
8
0
62
5
66
1
10
0
20
0
30
0
70
8
0
VERTEX
8
0
62
5
10
6.6907606e-13
20
0.17224943
30
0
70
32
0
VERTEX
8
0
62
5
10
6.6907606e-13
20
0.17224943
30
0
70
32
0
SEQEND
8
0
0
POLYLINE
8
0
62
5
66
1
10
0
20
0
30
0
70
8
0
VERTEX
8
0
62
5
10
0.028284271
20
0.17224943
30
0
70
32
0
VERTEX
8
0
62
5
10
0.028284271
20
0.17224943
30
0
70
32
0
SEQEND
8
0
0
POLYLINE
8
0
62
5
66
1
10
0
20
0
30
0
70
8
0
VERTEX
8
0
62
5
10
0.056568542
20
0.17224943
30
0
70
32
0
VERTEX
8
0
62
5
10
0.056568542
20
0.17224943
30
0
70
32
0
SEQEND
8
0
0
POLYLINE
8
0
62
5
66
1
10
0
20
0
30
0
70
8
0
VERTEX
8
0
62
5
10
0.084852814
20
0.17224943
30
0
70
32
0
VERTEX
8
0
62
5
10
0.084852814
20
0.17224943
30
0
70
32
0
SEQEND
8
0
0
POLYLINE
8
0
62
5
66
1
10
0
20
0
30
0
70
8
0
VERTEX
8
0
62
5
10
0.14142136
20
0.16929276
30
0
70
32
0
VERTEX
8
0
62
5
10
0.14142136
20
0.17224943
30
0
70
32
0
SEQEND
8
0
0
POLYLINE
8
0
62
5
66
1
10
0
20
0
30
0
70
8
0
VERTEX
8
0
62
5
10
0.16970563
20
0.16929276
30
0
70
32
0
VERTEX
8
0
62
5
10
0.16970563
20
0.17224943
30
0
70
32
0
SEQEND
8
0
0
POLYLINE
8
0
62
5
66
1
10
0
20
0
30
0
70
8
0
VERTEX
8
0
62
5
10
0.1979899
20
0.16929276
30
0
70
32
0
VERTEX
8
0
62
5
10
0.1979899
20
0.17224943
30
0
70
32
0
SEQEND
8
0
0
POLYLINE
8
0
62
5
66
1
10
0
20
0
30
0
70
8
0
VERTEX
8
0
62
5
10
0.22627417
20
0.16929276
30
0
70
32
0
VERTEX
8
0
62
5
10
0.22627417
20
0.17224943
30
0
70
32
0
SEQEND
8
0
0
POLYLINE
8
0
62
5
66
1
10
0
20
0
30
0
70
8
0
VERTEX
8
0
62
5
10
0.14142136
20
0.16929276
30
0
70
32
0
VERTEX
8
0
62
5
10
0.14142136
20
0.16929276
30
0
70
32
0
SEQEND
8
0
0
POLYLINE
8
0
62
5
66
1
10
0
20
0
30
0
70
8
0
VERTEX
8
0
62
5
10
0.16970563
20
0.16929276
30
0
70
32
0
VERTEX
8
0
62
5
10
0.16970563
20
0.16929276
30
0
70
32
0
SEQEND
8
0
0
POLYLINE
8
0
62
5
66
1
10
0
20
0
30
0
70
8
0
VERTEX
8
0
62
5
10
0.1979899
20
0.16929276
30
0
70
32
0
VERTEX
8
0
62
5
10
0.1979899
20
0.16929276
30
0
70
32
0
SEQEND
8
0
0
POLYLINE
8
0
62
5
66
1
10
0
20
0
30
0
70
8
0
VERTEX
8
0
62
5
10
0.11313708
20
0.17224943
30
0
70
32
0
VERTEX
8
0
62
5
10
0.11313708
20
0.17224943
30
0
70
32
0
SEQEND
8
0
0
POLYLINE
8
0
62
5
66
1
10
0
20
0
30
0
70
8
0
VERTEX
8
0
62
5
10
0.14142136
20
0.17224943
30
0
70
32
0
VERTEX
8
0
62
5
10
0.14142136
20
0.17224943
30
0
70
32
0
SEQEND
8
0
0
POLYLINE
8
0
62
5
66
1
10
0
20
0
30
0
70
8
0
VERTEX
8
0
62
5
10
0.16970563
20
0.17224943
30
0
70
32
0
VERTEX
8
0
62
5
10
0.16970563
20
0.17224943
30
0
70
32
0
SEQEND
8
0
0
POLYLINE
8
0
62
5
66
1
10
0
20
0
30
0
70
8
0
VERTEX
8
0
62
5
10
0.1979899
20
0.17224943
30
0
70
32
0
VERTEX
8
0
62
5
10
0.1979899
20
0.17224943
30
0
70
32
0
SEQEND
8
0
0
POLYLINE
8
0
62
5
66
1
10
0
20
0
30
0
70
8
0
VERTEX
8
0
62
5
10
-0.084852814
20
0.16929276
30
0
70
32
0
VERTEX
8
0
62
5
10
-0.084852814
20
0.17224943
30
0
70
32
0
SEQEND
8
0
0
POLYLINE
8
0
62
5
66
1
10
0
20
0
30
0
70
8
0
VERTEX
8
0
62
5
10
-0.056568542
20
0.16929276
30
0
70
32
0
VERTEX
8
0
62
5
10
-0.056568542
20
0.17224943
30
0
70
32
0
SEQEND
8
0
0
POLYLINE
8
0
62
5
66
1
10
0
20
0
30
0
70
8
0
VERTEX
8
0
62
5
10
-0.028284271
20
0.16929276
30
0
70
32
0
VERTEX
8
0
62
5
10
-0.028284271
20
0.17224943
30
0
70
32
0
SEQEND
8
0
0
POLYLINE
8
0
62
5
66
1
10
0
20
0
30
0
70
8
0
VERTEX
8
0
62
5
10
0
20
0.16929276
30
0
70
32
0
VERTEX
8
0
62
5
10
0
20
0.17224943
30
0
70
32
0
SEQEND
8
0
0
POLYLINE
8
0
62
5
66
1
10
0
20
0
30
0
70
8
0
VERTEX
8
0
62
5
10
-0.084852814
20
0.16929276
30
0
70
32
0
VERTEX
8
0
62
5
10
-0.084852814
20
0.16929276
30
0
70
32
0
SEQEND
8
0
0
POLYLINE
8
0
62
5
66
1
10
0
20
0
30
0
70
8
0
VERTEX
8
0
62
5
10
-0.056568542
20
0.16929276
30
0
70
32
0
VERTEX
8
0
62
5
10
-0.056568542
20
0.16929276
30
0
70
32
0
SEQEND
8
0
0
POLYLINE
8
0
62
5
66
1
10
0
20
0
30
0
70
8
0
VERTEX
8
0
62
5
10
-0.028284271
20
0.16929276
30
0
70
32
0
VERTEX
8
0
62
5
10
-0.028284271
20
0.16929276
30
0
70
32
0
SEQEND
8
0
0
POLYLINE
8
0
62
5
66
1
10
0
20
0
30
0
70
8
0
VERTEX
8
0
62
5
10
-0.11313708
20
0.17224943
30
0
70
32
0
VERTEX
8
0
62
5
10
-0.11313708
20
0.17224943
30
0
70
32
0
SEQEND
8
0
0
POLYLINE
8
0
62
5
66
1
10
0
20
0
30
0
70
8
0
VERTEX
8
0
62
5
10
-0.084852814
20
0.17224943
30
0
70
32
0
VERTEX
8
0
62
5
10
-0.084852814
20
0.17224943
30
0
70
32
0
SEQEND
8
0
0
POLYLINE
8
0
62
5
66
1
10
0
20
0
30
0
70
8
0
VERTEX
8
0
62
5
10
-0.056568542
20
0.17224943
30
0
70
32
0
VERTEX
8
0
62
5
10
-0.056568542
20
0.17224943
30
0
70
32
0
SEQEND
8
0
0
POLYLINE
8
0
62
5
66
1
10
0
20
0
30
0
70
8
0
VERTEX
8
0
62
5
10
-0.028284271
20
0.17224943
30
0
70
32
0
VERTEX
8
0
62
5
10
-0.028284271
20
0.17224943
30
0
70
32
0
SEQEND
8
0
0
POLYLINE
8
0
62
5
66
1
10
0
20
0
30
0
70
8
0
VERTEX
8
0
62
5
10
-0.028284271
20
0.17224943
30
0
70
32
0
VERTEX
8
0
62
5
10
-0.028284271
20
0.18407611
30
0
70
32
0
SEQEND
8
0
0
POLYLINE
8
0
62
5
66
1
10
0
20
0
30
0
70
8
0
VERTEX
8
0
62
5
10
0.084852814
20
0.17224943
30
0
70
32
0
VERTEX
8
0
62
5
10
0.084852814
20
0.18407611
30
0
70
32
0
SEQEND
8
0
0
POLYLINE
8
0
62
5
66
1
10
0
20
0
30
0
70
8
0
VERTEX
8
0
62
5
10
6.6907591e-13
20
0.17224943
30
0
70
32
0
VERTEX
8
0
62
5
10
6.6907591e-13
20
0.18407611
30
0
70
32
0
SEQEND
8
0
0
POLYLINE
8
0
62
5
66
1
10
0
20
0
30
0
70
8
0
VERTEX
8
0
62
5
10
0.028284271
20
0.17224943
30
0
70
32
0
VERTEX
8
0
62
5
10
0.028284271
20
0.18407611
30
0
70
32
0
SEQEND
8
0
0
POLYLINE
8
0
62
5
66
1
10
0
20
0
30
0
70
8
0
VERTEX
8
0
62
5
10
0.056568542
20
0.17224943
30
0
70
32
0
VERTEX
8
0
62
5
10
0.056568542
20
0.18407611
30
0
70
32
0
SEQEND
8
0
0
POLYLINE
8
0
62
5
66
1
10
0
20
0
30
0
70
8
0
VERTEX
8
0
62
5
10
0.1979899
20
0.17224943
30
0
70
32
0
VERTEX
8
0
62
5
10
0.1979899
20
0.18407611
30
0
70
32
0
SEQEND
8
0
0
POLYLINE
8
0
62
5
66
1
10
0
20
0
30
0
70
8
0
VERTEX
8
0
62
5
10
0.11313708
20
0.17224943
30
0
70
32
0
VERTEX
8
0
62
5
10
0.11313708
20
0.18407611
30
0
70
32
0
SEQEND
8
0
0
POLYLINE
8
0
62
5
66
1
10
0
20
0
30
0
70
8
0
VERTEX
8
0
62
5
10
0.14142136
20
0.17224943
30
0
70
32
0
VERTEX
8
0
62
5
10
0.14142136
20
0.18407611
30
0
70
32
0
SEQEND
8
0
0
POLYLINE
8
0
62
5
66
1
10
0
20
0
30
0
70
8
0
VERTEX
8
0
62
5
10
0.16970563
20
0.17224943
30
0
70
32
0
VERTEX
8
0
62
5
10
0.16970563
20
0.18407611
30
0
70
32
0
SEQEND
8
0
0
POLYLINE
8
0
62
5
66
1
10
0
20
0
30
0
70
8
0
VERTEX
8
0
62
5
10
-0.14142136
20
0.17224943
30
0
70
32
0
VERTEX
8
0
62
5
10
-0.14142136
20
0.18407611
30
0
70
32
0
SEQEND
8
0
0
POLYLINE
8
0
62
5
66
1
10
0
20
0
30
0
70
8
0
VERTEX
8
0
62
5
10
-0.11313708
20
0.17224943
30
0
70
32
0
VERTEX
8
0
62
5
10
-0.11313708
20
0.18407611
30
0
70
32
0
SEQEND
8
0
0
POLYLINE
8
0
62
5
66
1
10
0
20
0
30
0
70
8
0
VERTEX
8
0
62
5
10
-0.084852814
20
0.17224943
30
0
70
32
0
VERTEX
8
0
62
5
10
-0.084852814
20
0.18407611
30
0
70
32
0
SEQEND
8
0
0
POLYLINE
8
0
62
5
66
1
10
0
20
0
30
0
70
8
0
VERTEX
8
0
62
5
10
-0.056568542
20
0.17224943
30
0
70
32
0
VERTEX
8
0
62
5
10
-0.056568542
20
0.18407611
30
0
70
32
0
SEQEND
8
0
0
POLYLINE
8
0
62
5
66
1
10
0
20
0
30
0
70
8
0
VERTEX
8
0
62
5
10
-0.028284271
20
0.18407611
30
0
70
32
0
VERTEX
8
0
62
5
10
-0.028284271
20
0.20156306
30
0
70
32
0
SEQEND
8
0
0
POLYLINE
8
0
62
5
66
1
10
0
20
0
30
0
70
8
0
VERTEX
8
0
62
5
10
0.084852814
20
0.20156306
30
0
70
32
0
VERTEX
8
0
62
5
10
0.084852814
20
0.18407611
30
0
70
32
0
SEQEND
8
0
0
POLYLINE
8
0
62
5
66
1
10
0
20
0
30
0
70
8
0
VERTEX
8
0
62
5
10
-0.028284271
20
0.19281958
30
0
70
32
0
VERTEX
8
0
62
5
10
6.6907591e-13
20
0.18557625
30
0
70
32
0
VERTEX
8
0
62
5
10
0.028284271
20
0.18557625
30
0
70
32
0
VERTEX
8
0
62
5
10
0.056568542
20
0.19281958
30
0
70
32
0
VERTEX
8
0
62
5
10
0.084852814
20
0.19281958
30
0
70
32
0
SEQEND
8
0
0
POLYLINE
8
0
62
5
66
1
10
0
20
0
30
0
70
8
0
SEQEND
8
0
0
POLYLINE
8
0
62
5
66
1
10
0
20
0
30
0
70
8
0
VERTEX
8
0
62
5
10
-0.028284271
20
0.19281958
30
0
70
32
0
VERTEX
8
0
62
5
10
6.6907591e-13
20
0.20006291
30
0
70
32
0
VERTEX
8
0
62
5
10
0.028284271
20
0.20006291
30
0
70
32
0
VERTEX
8
0
62
5
10
0.056568542
20
0.19281958
30
0
70
32
0
VERTEX
8
0
62
5
10
0.084852814
20
0.19281958
30
0
70
32
0
SEQEND
8
0
0
POLYLINE
8
0
62
30
66
1
10
0
20
0
30
0
70
8
0
VERTEX
8
0
62
30
10
-0.028284271
20
0.19281958
30
0
70
32
0
VERTEX
8
0
62
30
10
0.084852814
20
0.19281958
30
0
70
32
0
SEQEND
8
0
0
POLYLINE
8
0
62
30
66
1
10
0
20
0
30
0
70
8
0
VERTEX
8
0
62
30
10
6.6907591e-13
20
0.18557625
30
0
70
32
0
VERTEX
8
0
62
30
10
6.6907591e-13
20
0.19281958
30
0
70
32
0
SEQEND
8
0
0
POLYLINE
8
0
62
30
66
1
10
0
20
0
30
0
70
8
0
VERTEX
8
0
62
30
10
0.028284271
20
0.18557625
30
0
70
32
0
VERTEX
8
0
62
30
10
0.028284271
20
0.19281958
30
0
70
32
0
SEQEND
8
0
0
POLYLINE
8
0
62
30
66
1
10
0
20
0
30
0
70
8
0
VERTEX
8
0
62
30
10
0.056568542
20
0.19281958
30
0
70
32
0
VERTEX
8
0
62
30
10
0.056568542
20
0.19281958
30
0
70
32
0
SEQEND
8
0
0
POLYLINE
8
0
62
5
66
1
10
0
20
0
30
0
70
8
0
VERTEX
8
0
62
5
10
6.6907591e-13
20
0.18407611
30
0
70
32
0
VERTEX
8
0
62
5
10
6.6907591e-13
20
0.18557625
30
0
70
32
0
SEQEND
8
0
0
POLYLINE
8
0
62
5
66
1
10
0
20
0
30
0
70
8
0
VERTEX
8
0
62
5
10
0.028284271
20
0.18407611
30
0
70
32
0
VERTEX
8
0
62
5
10
0.028284271
20
0.18557625
30
0
70
32
0
SEQEND
8
0
0
POLYLINE
8
0
62
5
66
1
10
0
20
0
30
0
70
8
0
VERTEX
8
0
62
5
10
0.056568542
20
0.18407611
30
0
70
32
0
VERTEX
8
0
62
5
10
0.056568542
20
0.19281958
30
0
70
32
0
SEQEND
8
0
0
POLYLINE
8
0
62
5
66
1
10
0
20
0
30
0
70
8
0
VERTEX
8
0
62
5
10
6.6907591e-13
20
0.19281958
30
0
70
32
0
VERTEX
8
0
62
5
10
6.6907591e-13
20
0.20156306
30
0
70
32
0
SEQEND
8
0
0
POLYLINE
8
0
62
5
66
1
10
0
20
0
30
0
70
8
0
VERTEX
8
0
62
5
10
0.028284271
20
0.19281958
30
0
70
32
0
VERTEX
8
0
62
5
10
0.028284271
20
0.20156306
30
0
70
32
0
SEQEND
8
0
0
POLYLINE
8
0
62
5
66
1
10
0
20
0
30
0
70
8
0
VERTEX
8
0
62
5
10
0.056568542
20
0.19281958
30
0
70
32
0
VERTEX
8
0
62
5
10
0.056568542
20
0.20156306
30
0
70
32
0
SEQEND
8
0
0
POLYLINE
8
0
62
30
66
1
10
0
20
0
30
0
70
8
0
VERTEX
8
0
62
30
10
-0.028284271
20
0.19281958
30
0
70
32
0
VERTEX
8
0
62
30
10
-0.028284271
20
0.19281958
30
0
70
32
0
VERTEX
8
0
62
30
10
-0.028284271
20
0.19281958
30
0
70
32
0
SEQEND
8
0
0
POLYLINE
8
0
62
30
66
1
10
0
20
0
30
0
70
8
0
VERTEX
8
0
62
30
10
6.6907591e-13
20
0.18557625
30
0
70
32
0
VERTEX
8
0
62
30
10
0.0056221288
20
0.19281958
30
0
70
32
0
VERTEX
8
0
62
30
10
6.6907591e-13
20
0.20006291
30
0
70
32
0
SEQEND
8
0
0
POLYLINE
8
0
62
30
66
1
10
0
20
0
30
0
70
8
0
VERTEX
8
0
62
30
10
0.028284271
20
0.18557625
30
0
70
32
0
VERTEX
8
0
62
30
10
0.0339064
20
0.19281958
30
0
70
32
0
VERTEX
8
0
62
30
10
0.028284271
20
0.20006291
30
0
70
32
0
SEQEND
8
0
0
POLYLINE
8
0
62
30
66
1
10
0
20
0
30
0
70
8
0
VERTEX
8
0
62
30
10
0.056568542
20
0.19281958
30
0
70
32
0
VERTEX
8
0
62
30
10
0.056568542
20
0.19281958
30
0
70
32
0
VERTEX
8
0
62
30
10
0.056568542
20
0.19281958
30
0
70
32
0
SEQEND
8
0
0
POLYLINE
8
0
62
5
66
1
10
0
20
0
30
0
70
8
0
VERTEX
8
0
62
5
10
0.1979899
20
0.20156306
30
0
70
32
0
VERTEX
8
0
62
5
10
0.1979899
20
0.18407611
30
0
70
32
0
SEQEND
8
0
0
POLYLINE
8
0
62
5
66
1
10
0
20
0
30
0
70
8
0
VERTEX
8
0
62
5
10
0.084852814
20
0.19281958
30
0
70
32
0
VERTEX
8
0
62
5
10
0.11313708
20
0.18557625
30
0
70
32
0
VERTEX
8
0
62
5
10
0.14142136
20
0.18557625
30
0
70
32
0
VERTEX
8
0
62
5
10
0.16970563
20
0.19281958
30
0
70
32
0
VERTEX
8
0
62
5
10
0.1979899
20
0.19281958
30
0
70
32
0
SEQEND
8
0
0
POLYLINE
8
0
62
5
66
1
10
0
20
0
30
0
70
8
0
SEQEND
8
0
0
POLYLINE
8
0
62
5
66
1
10
0
20
0
30
0
70
8
0
VERTEX
8
0
62
5
10
0.084852814
20
0.19281958
30
0
70
32
0
VERTEX
8
0
62
5
10
0.11313708
20
0.20006291
30
0
70
32
0
VERTEX
8
0
62
5
10
0.14142136
20
0.20006291
30
0
70
32
0
VERTEX
8
0
62
5
10
0.16970563
20
0.19281958
30
0
70
32
0
VERTEX
8
0
62
5
10
0.1979899
20
0.19281958
30
0
70
32
0
SEQEND
8
0
0
POLYLINE
8
0
62
30
66
1
10
0
20
0
30
0
70
8
0
VERTEX
8
0
62
30
10
0.084852814
20
0.19281958
30
0
70
32
0
VERTEX
8
0
62
30
10
0.1979899
20
0.19281958
30
0
70
32
0
SEQEND
8
0
0
POLYLINE
8
0
62
30
66
1
10
0
20
0
30
0
70
8
0
VERTEX
8
0
62
30
10
0.11313708
20
0.18557625
30
0
70
32
0
VERTEX
8
0
62
30
10
0.11313708
20
0.19281958
30
0
70
32
0
SEQEND
8
0
0
POLYLINE
8
0
62
30
66
1
10
0
20
0
30
0
70
8
0
VERTEX
8
0
62
30
10
0.14142136
20
0.18557625
30
0
70
32
0
VERTEX
8
0
62
30
10
0.14142136
20
0.19281958
30
0
70
32
0
SEQEND
8
0
0
POLYLINE
8
0
62
30
66
1
10
0
20
0
30
0
70
8
0
VERTEX
8
0
62
30
10
0.16970563
20
0.19281958
30
0
70
32
0
VERTEX
8
0
62
30
10
0.16970563
20
0.19281958
30
0
70
32
0
SEQEND
8
0
0
POLYLINE
8
0
62
5
66
1
10
0
20
0
30
0
70
8
0
VERTEX
8
0
62
5
10
0.11313708
20
0.18407611
30
0
70
32
0
VERTEX
8
0
62
5
10
0.11313708
20
0.18557625
30
0
70
32
0
SEQEND
8
0
0
POLYLINE
8
0
62
5
66
1
10
0
20
0
30
0
70
8
0
VERTEX
8
0
62
5
10
0.14142136
20
0.18407611
30
0
70
32
0
VERTEX
8
0
62
5
10
0.14142136
20
0.18557625
30
0
70
32
0
SEQEND
8
0
0
POLYLINE
8
0
62
5
66
1
10
0
20
0
30
0
70
8
0
VERTEX
8
0
62
5
10
0.16970563
20
0.18407611
30
0
70
32
0
VERTEX
8
0
62
5
10
0.16970563
20
0.19281958
30
0
70
32
0
SEQEND
8
0
0
POLYLINE
8
0
62
5
66
1
10
0
20
0
30
0
70
8
0
VERTEX
8
0
62
5
10
0.11313708
20
0.19281958
30
0
70
32
0
VERTEX
8
0
62
5
10
0.11313708
20
0.20156306
30
0
70
32
0
SEQEND
8
0
0
POLYLINE
8
0
62
5
66
1
10
0
20
0
30
0
70
8
0
VERTEX
8
0
62
5
10
0.14142136
20
0.19281958
30
0
70
32
0
VERTEX
8
0
62
5
10
0.14142136
20
0.20156306
30
0
70
32
0
SEQEND
8
0
0
POLYLINE
8
0
62
5
66
1
10
0
20
0
30
0
70
8
0
VERTEX
8
0
62
5
10
0.16970563
20
0.19281958
30
0
70
32
0
VERTEX
8
0
62
5
10
0.16970563
20
0.20156306
30
0
70
32
0
SEQEND
8
0
0
POLYLINE
8
0
62
30
66
1
10
0
20
0
30
0
70
8
0
VERTEX
8
0
62
30
10
0.084852814
20
0.19281958
30
0
70
32
0
VERTEX
8
0
62
30
10
0.084852814
20
0.19281958
30
0
70
32
0
VERTEX
8
0
62
30
10
0.084852814
20
0.19281958
30
0
70
32
0
SEQEND
8
0
0
POLYLINE
8
0
62
30
66
1
10
0
20
0
30
0
70
8
0
VERTEX
8
0
62
30
10
0.11313708
20
0.18557625
30
0
70
32
0
VERTEX
8
0
62
30
10
0.11875921
20
0.19281958
30
0
70
32
0
VERTEX
8
0
62
30
10
0.11313708
20
0.20006291
30
0
70
32
0
SEQEND
8
0
0
POLYLINE
8
0
62
30
66
1
10
0
20
0
30
0
70
8
0
VERTEX
8
0
62
30
10
0.14142136
20
0.18557625
30
0
70
32
0
VERTEX
8
0
62
30
10
0.14704349
20
0.19281958
30
0
70
32
0
VERTEX
8
0
62
30
10
0.14142136
20
0.20006291
30
0
70
32
0
SEQEND
8
0
0
POLYLINE
8
0
62
30
66
1
10
0
20
0
30
0
70
8
0
VERTEX
8
0
62
30
10
0.16970563
20
0.19281958
30
0
70
32
0
VERTEX
8
0
62
30
10
0.16970563
20
0.19281958
30
0
70
32
0
VERTEX
8
0
62
30
10
0.16970563
20
0.19281958
30
0
70
32
0
SEQEND
8
0
0
POLYLINE
8
0
62
5
66
1
10
0
20
0
30
0
70
8
0
VERTEX
8
0
62
5
10
-0.14142136
20
0.18407611
30
0
70
32
0
VERTEX
8
0
62
5
10
-0.14142136
20
0.20156306
30
0
70
32
0
SEQEND
8
0
0
POLYLINE
8
0
62
5
66
1
10
0
20
0
30
0
70
8
0
VERTEX
8
0
62
5
10
-0.14142136
20
0.19281958
30
0
70
32
0
VERTEX
8
0
62
5
10
-0.11313708
20
0.18557625
30
0
70
32
0
VERTEX
8
0
62
5
10
-0.084852814
20
0.18557625
30
0
70
32
0
VERTEX
8
0
62
5
10
-0.056568542
20
0.19281958
30
0
70
32
0
VERTEX
8
0
62
5
10
-0.028284271
20
0.19281958
30
0
70
32
0
SEQEND
8
0
0
POLYLINE
8
0
62
5
66
1
10
0
20
0
30
0
70
8
0
SEQEND
8
0
0
POLYLINE
8
0
62
5
66
1
10
0
20
0
30
0
70
8
0
VERTEX
8
0
62
5
10
-0.14142136
20
0.19281958
30
0
70
32
0
VERTEX
8
0
62
5
10
-0.11313708
20
0.20006291
30
0
70
32
0
VERTEX
8
0
62
5
10
-0.084852814
20
0.20006291
30
0
70
32
0
VERTEX
8
0
62
5
10
-0.056568542
20
0.19281958
30
0
70
32
0
VERTEX
8
0
62
5
10
-0.028284271
20
0.19281958
30
0
70
32
0
SEQEND
8
0
0
POLYLINE
8
0
62
30
66
1
10
0
20
0
30
0
70
8
0
VERTEX
8
0
62
30
10
-0.14142136
20
0.19281958
30
0
70
32
0
VERTEX
8
0
62
30
10
-0.028284271
20
0.19281958
30
0
70
32
0
SEQEND
8
0
0
POLYLINE
8
0
62
30
66
1
10
0
20
0
30
0
70
8
0
VERTEX
8
0
62
30
10
-0.11313708
20
0.18557625
30
0
70
32
0
VERTEX
8
0
62
30
10
-0.11313708
20
0.19281958
30
0
70
32
0
SEQEND
8
0
0
POLYLINE
8
0
62
30
66
1
10
0
20
0
30
0
70
8
0
VERTEX
8
0
62
30
10
-0.084852814
20
0.18557625
30
0
70
32
0
VERTEX
8
0
62
30
10
-0.084852814
20
0.19281958
30
0
70
32
0
SEQEND
8
0
0
POLYLINE
8
0
62
30
66
1
10
0
20
0
30
0
70
8
0
VERTEX
8
0
62
30
10
-0.056568542
20
0.19281958
30
0
70
32
0
VERTEX
8
0
62
30
10
-0.056568542
20
0.19281958
30
0
70
32
0
SEQEND
8
0
0
POLYLINE
8
0
62
5
66
1
10
0
20
0
30
0
70
8
0
VERTEX
8
0
62
5
10
-0.11313708
20
0.18407611
30
0
70
32
0
VERTEX
8
0
62
5
10
-0.11313708
20
0.18557625
30
0
70
32
0
SEQEND
8
0
0
POLYLINE
8
0
62
5
66
1
10
0
20
0
30
0
70
8
0
VERTEX
8
0
62
5
10
-0.084852814
20
0.18407611
30
0
70
32
0
VERTEX
8
0
62
5
10
-0.084852814
20
0.18557625
30
0
70
32
0
SEQEND
8
0
0
POLYLINE
8
0
62
5
66
1
10
0
20
0
30
0
70
8
0
VERTEX
8
0
62
5
10
-0.056568542
20
0.18407611
30
0
70
32
0
VERTEX
8
0
62
5
10
-0.056568542
20
0.19281958
30
0
70
32
0
SEQEND
8
0
0
POLYLINE
8
0
62
5
66
1
10
0
20
0
30
0
70
8
0
VERTEX
8
0
62
5
10
-0.11313708
20
0.19281958
30
0
70
32
0
VERTEX
8
0
62
5
10
-0.11313708
20
0.20156306
30
0
70
32
0
SEQEND
8
0
0
POLYLINE
8
0
62
5
66
1
10
0
20
0
30
0
70
8
0
VERTEX
8
0
62
5
10
-0.084852814
20
0.19281958
30
0
70
32
0
VERTEX
8
0
62
5
10
-0.084852814
20
0.20156306
30
0
70
32
0
SEQEND
8
0
0
POLYLINE
8
0
62
5
66
1
10
0
20
0
30
0
70
8
0
VERTEX
8
0
62
5
10
-0.056568542
20
0.19281958
30
0
70
32
0
VERTEX
8
0
62
5
10
-0.056568542
20
0.20156306
30
0
70
32
0
SEQEND
8
0
0
POLYLINE
8
0
62
30
66
1
10
0
20
0
30
0
70
8
0
VERTEX
8
0
62
30
10
-0.14142136
20
0.19281958
30
0
70
32
0
VERTEX
8
0
62
30
10
-0.14142136
20
0.19281958
30
0
70
32
0
VERTEX
8
0
62
30
10
-0.14142136
20
0.19281958
30
0
70
32
0
SEQEND
8
0
0
POLYLINE
8
0
62
30
66
1
10
0
20
0
30
0
70
8
0
VERTEX
8
0
62
30
10
-0.11313708
20
0.18557625
30
0
70
32
0
VERTEX
8
0
62
30
10
-0.10751496
20
0.19281958
30
0
70
32
0
VERTEX
8
0
62
30
10
-0.11313708
20
0.20006291
30
0
70
32
0
SEQEND
8
0
0
POLYLINE
8
0
62
30
66
1
10
0
20
0
30
0
70
8
0
VERTEX
8
0
62
30
10
-0.084852814
20
0.18557625
30
0
70
32
0
VERTEX
8
0
62
30
10
-0.079230685
20
0.19281958
30
0
70
32
0
VERTEX
8
0
62
30
10
-0.084852814
20
0.20006291
30
0
70
32
0
SEQEND
8
0
0
POLYLINE
8
0
62
30
66
1
10
0
20
0
30
0
70
8
0
VERTEX
8
0
62
30
10
-0.056568542
20
0.19281958
30
0
70
32
0
VERTEX
8
0
62
30
10
-0.056568542
20
0.19281958
30
0
70
32
0
VERTEX
8
0
62
30
10
-0.056568542
20
0.19281958
30
0
70
32
0
SEQEND
8
0
0
POLYLINE
8
0
62
5
66
1
10
0
20
0
30
0
70
8
0
VERTEX
8
0
62
5
10
-0.028284271
20
0.20156306
30
0
70
32
0
VERTEX
8
0
62
5
10
-0.028284271
20
0.24156306
30
0
70
32
0
SEQEND
8
0
0
POLYLINE
8
0
62
5
66
1
10
0
20
0
30
0
70
8
0
VERTEX
8
0
62
5
10
0.084852814
20
0.24156306
30
0
70
32
0
VERTEX
8
0
62
5
10
0.084852814
20
0.20156306
30
0
70
32
0
SEQEND
8
0
0
POLYLINE
8
0
62
5
66
1
10
0
20
0
30
0
70
8
0
VERTEX
8
0
62
5
10
-0.028284271
20
0.20156306
30
0
70
32
0
VERTEX
8
0
62
5
10
0.084852814
20
0.20156306
30
0
70
32
0
SEQEND
8
0
0
POLYLINE
8
0
62
5
66
1
10
0
20
0
30
0
70
8
0
VERTEX
8
0
62
5
10
-0.028284271
20
0.24156306
30
0
70
32
0
VERTEX
8
0
62
5
10
0.084852814
20
0.24156306
30
0
70
32
0
SEQEND
8
0
0
POLYLINE
8
0
62
5
66
1
10
0
20
0
30
0
70
8
0
VERTEX
8
0
62
5
10
6.6907591e-13
20
0.20156306
30
0
70
32
0
VERTEX
8
0
62
5
10
6.6907591e-13
20
0.20156306
30
0
70
32
0
SEQEND
8
0
0
POLYLINE
8
0
62
5
66
1
10
0
20
0
30
0
70
8
0
VERTEX
8
0
62
5
10
0.028284271
20
0.20156306
30
0
70
32
0
VERTEX
8
0
62
5
10
0.028284271
20
0.20156306
30
0
70
32
0
SEQEND
8
0
0
POLYLINE
8
0
62
5
66
1
10
0
20
0
30
0
70
8
0
VERTEX
8
0
62
5
10
0.056568542
20
0.20156306
30
0
70
32
0
VERTEX
8
0
62
5
10
0.056568542
20
0.20156306
30
0
70
32
0
SEQEND
8
0
0
POLYLINE
8
0
62
5
66
1
10
0
20
0
30
0
70
8
0
VERTEX
8
0
62
5
10
6.6907591e-13
20
0.24156306
30
0
70
32
0
VERTEX
8
0
62
5
10
6.6907591e-13
20
0.24156306
30
0
70
32
0
SEQEND
8
0
0
POLYLINE
8
0
62
5
66
1
10
0
20
0
30
0
70
8
0
VERTEX
8
0
62
5
10
0.028284271
20
0.24156306
30
0
70
32
0
VERTEX
8
0
62
5
10
0.028284271
20
0.24156306
30
0
70
32
0
SEQEND
8
0
0
POLYLINE
8
0
62
5
66
1
10
0
20
0
30
0
70
8
0
VERTEX
8
0
62
5
10
0.056568542
20
0.24156306
30
0
70
32
0
VERTEX
8
0
62
5
10
0.056568542
20
0.24156306
30
0
70
32
0
SEQEND
8
0
0
POLYLINE
8
0
62
30
66
1
10
0
20
0
30
0
70
8
0
VERTEX
8
0
62
30
10
-0.028284271
20
0.24156306
30
0
70
32
0
VERTEX
8
0
62
30
10
6.6907591e-13
20
0.20156306
30
0
70
32
0
SEQEND
8
0
0
POLYLINE
8
0
62
30
66
1
10
0
20
0
30
0
70
8
0
VERTEX
8
0
62
30
10
6.6907591e-13
20
0.24156306
30
0
70
32
0
VERTEX
8
0
62
30
10
-0.028284271
20
0.20156306
30
0
70
32
0
SEQEND
8
0
0
POLYLINE
8
0
62
30
66
1
10
0
20
0
30
0
70
8
0
VERTEX
8
0
62
30
10
0.028284271
20
0.24156306
30
0
70
32
0
VERTEX
8
0
62
30
10
0.056568542
20
0.20156306
30
0
70
32
0
SEQEND
8
0
0
POLYLINE
8
0
62
30
66
1
10
0
20
0
30
0
70
8
0
VERTEX
8
0
62
30
10
0.056568542
20
0.24156306
30
0
70
32
0
VERTEX
8
0
62
30
10
0.028284271
20
0.20156306
30
0
70
32
0
SEQEND
8
0
0
POLYLINE
8
0
62
30
66
1
10
0
20
0
30
0
70
8
0
VERTEX
8
0
62
30
10
6.6907591e-13
20
0.22156306
30
0
70
32
0
VERTEX
8
0
62
30
10
0.028284271
20
0.22156306
30
0
70
32
0
SEQEND
8
0
0
POLYLINE
8
0
62
30
66
1
10
0
20
0
30
0
70
8
0
VERTEX
8
0
62
30
10
0.056568542
20
0.22156306
30
0
70
32
0
VERTEX
8
0
62
30
10
0.084852814
20
0.22156306
30
0
70
32
0
SEQEND
8
0
0
POLYLINE
8
0
62
5
66
1
10
0
20
0
30
0
70
8
0
VERTEX
8
0
62
5
10
-0.028284271
20
0.22156306
30
0
70
32
0
VERTEX
8
0
62
5
10
-0.014142136
20
0.22156306
30
0
70
32
0
SEQEND
8
0
0
POLYLINE
8
0
62
5
66
1
10
0
20
0
30
0
70
8
0
VERTEX
8
0
62
5
10
0.028284271
20
0.22156306
30
0
70
32
0
VERTEX
8
0
62
5
10
0.042426407
20
0.22156306
30
0
70
32
0
SEQEND
8
0
0
POLYLINE
8
0
62
5
66
1
10
0
20
0
30
0
70
8
0
VERTEX
8
0
62
5
10
-0.014142136
20
0.22156306
30
0
70
32
0
VERTEX
8
0
62
5
10
6.6907591e-13
20
0.22156306
30
0
70
32
0
SEQEND
8
0
0
POLYLINE
8
0
62
5
66
1
10
0
20
0
30
0
70
8
0
VERTEX
8
0
62
5
10
0.042426407
20
0.22156306
30
0
70
32
0
VERTEX
8
0
62
5
10
0.056568542
20
0.22156306
30
0
70
32
0
SEQEND
8
0
0
POLYLINE
8
0
62
5
66
1
10
0
20
0
30
0
70
8
0
VERTEX
8
0
62
5
10
6.6907591e-13
20
0.20156306
30
0
70
32
0
VERTEX
8
0
62
5
10
6.6907591e-13
20
0.24156306
30
0
70
32
0
SEQEND
8
0
0
POLYLINE
8
0
62
5
66
1
10
0
20
0
30
0
70
8
0
VERTEX
8
0
62
5
10
0.028284271
20
0.20156306
30
0
70
32
0
VERTEX
8
0
62
5
10
0.028284271
20
0.24156306
30
0
70
32
0
SEQEND
8
0
0
POLYLINE
8
0
62
5
66
1
10
0
20
0
30
0
70
8
0
VERTEX
8
0
62
5
10
0.056568542
20
0.20156306
30
0
70
32
0
VERTEX
8
0
62
5
10
0.056568542
20
0.24156306
30
0
70
32
0
SEQEND
8
0
0
POLYLINE
8
0
62
5
66
1
10
0
20
0
30
0
70
8
0
VERTEX
8
0
62
5
10
-0.028284271
20
0.20156306
30
0
70
32
0
VERTEX
8
0
62
5
10
-0.028284271
20
0.24156306
30
0
70
32
0
SEQEND
8
0
0
POLYLINE
8
0
62
5
66
1
10
0
20
0
30
0
70
8
0
VERTEX
8
0
62
5
10
0.1979899
20
0.24156306
30
0
70
32
0
VERTEX
8
0
62
5
10
0.1979899
20
0.20156306
30
0
70
32
0
SEQEND
8
0
0
POLYLINE
8
0
62
5
66
1
10
0
20
0
30
0
70
8
0
VERTEX
8
0
62
5
10
0.084852814
20
0.20156306
30
0
70
32
0
VERTEX
8
0
62
5
10
0.1979899
20
0.20156306
30
0
70
32
0
SEQEND
8
0
0
POLYLINE
8
0
62
5
66
1
10
0
20
0
30
0
70
8
0
VERTEX
8
0
62
5
10
0.084852814
20
0.24156306
30
0
70
32
0
VERTEX
8
0
62
5
10
0.1979899
20
0.24156306
30
0
70
32
0
SEQEND
8
0
0
POLYLINE
8
0
62
5
66
1
10
0
20
0
30
0
70
8
0
VERTEX
8
0
62
5
10
0.11313708
20
0.20156306
30
0
70
32
0
VERTEX
8
0
62
5
10
0.11313708
20
0.20156306
30
0
70
32
0
SEQEND
8
0
0
POLYLINE
8
0
62
5
66
1
10
0
20
0
30
0
70
8
0
VERTEX
8
0
62
5
10
0.14142136
20
0.20156306
30
0
70
32
0
VERTEX
8
0
62
5
10
0.14142136
20
0.20156306
30
0
70
32
0
SEQEND
8
0
0
POLYLINE
8
0
62
5
66
1
10
0
20
0
30
0
70
8
0
VERTEX
8
0
62
5
10
0.16970563
20
0.20156306
30
0
70
32
0
VERTEX
8
0
62
5
10
0.16970563
20
0.20156306
30
0
70
32
0
SEQEND
8
0
0
POLYLINE
8
0
62
5
66
1
10
0
20
0
30
0
70
8
0
VERTEX
8
0
62
5
10
0.11313708
20
0.24156306
30
0
70
32
0
VERTEX
8
0
62
5
10
0.11313708
20
0.24156306
30
0
70
32
0
SEQEND
8
0
0
POLYLINE
8
0
62
5
66
1
10
0
20
0
30
0
70
8
0
VERTEX
8
0
62
5
10
0.14142136
20
0.24156306
30
0
70
32
0
VERTEX
8
0
62
5
10
0.14142136
20
0.24156306
30
0
70
32
0
SEQEND
8
0
0
POLYLINE
8
0
62
5
66
1
10
0
20
0
30
0
70
8
0
VERTEX
8
0
62
5
10
0.16970563
20
0.24156306
30
0
70
32
0
VERTEX
8
0
62
5
10
0.16970563
20
0.24156306
30
0
70
32
0
SEQEND
8
0
0
POLYLINE
8
0
62
30
66
1
10
0
20
0
30
0
70
8
0
VERTEX
8
0
62
30
10
0.084852814
20
0.24156306
30
0
70
32
0
VERTEX
8
0
62
30
10
0.11313708
20
0.20156306
30
0
70
32
0
SEQEND
8
0
0
POLYLINE
8
0
62
30
66
1
10
0
20
0
30
0
70
8
0
VERTEX
8
0
62
30
10
0.11313708
20
0.24156306
30
0
70
32
0
VERTEX
8
0
62
30
10
0.084852814
20
0.20156306
30
0
70
32
0
SEQEND
8
0
0
POLYLINE
8
0
62
30
66
1
10
0
20
0
30
0
70
8
0
VERTEX
8
0
62
30
10
0.14142136
20
0.24156306
30
0
70
32
0
VERTEX
8
0
62
30
10
0.16970563
20
0.20156306
30
0
70
32
0
SEQEND
8
0
0
POLYLINE
8
0
62
30
66
1
10
0
20
0
30
0
70
8
0
VERTEX
8
0
62
30
10
0.16970563
20
0.24156306
30
0
70
32
0
VERTEX
8
0
62
30
10
0.14142136
20
0.20156306
30
0
70
32
0
SEQEND
8
0
0
POLYLINE
8
0
62
30
66
1
10
0
20
0
30
0
70
8
0
VERTEX
8
0
62
30
10
0.11313708
20
0.22156306
30
0
70
32
0
VERTEX
8
0
62
30
10
0.14142136
20
0.22156306
30
0
70
32
0
SEQEND
8
0
0
POLYLINE
8
0
62
30
66
1
10
0
20
0
30
0
70
8
0
VERTEX
8
0
62
30
10
0.16970563
20
0.22156306
30
0
70
32
0
VERTEX
8
0
62
30
10
0.1979899
20
0.22156306
30
0
70
32
0
SEQEND
8
0
0
POLYLINE
8
0
62
5
66
1
10
0
20
0
30
0
70
8
0
VERTEX
8
0
62
5
10
0.084852814
20
0.22156306
30
0
70
32
0
VERTEX
8
0
62
5
10
0.098994949
20
0.22156306
30
0
70
32
0
SEQEND
8
0
0
POLYLINE
8
0
62
5
66
1
10
0
20
0
30
0
70
8
0
VERTEX
8
0
62
5
10
0.14142136
20
0.22156306
30
0
70
32
0
VERTEX
8
0
62
5
10
0.15556349
20
0.22156306
30
0
70
32
0
SEQEND
8
0
0
POLYLINE
8
0
62
5
66
1
10
0
20
0
30
0
70
8
0
VERTEX
8
0
62
5
10
0.098994949
20
0.22156306
30
0
70
32
0
VERTEX
8
0
62
5
10
0.11313708
20
0.22156306
30
0
70
32
0
SEQEND
8
0
0
POLYLINE
8
0
62
5
66
1
10
0
20
0
30
0
70
8
0
VERTEX
8
0
62
5
10
0.15556349
20
0.22156306
30
0
70
32
0
VERTEX
8
0
62
5
10
0.16970563
20
0.22156306
30
0
70
32
0
SEQEND
8
0
0
POLYLINE
8
0
62
5
66
1
10
0
20
0
30
0
70
8
0
VERTEX
8
0
62
5
10
0.11313708
20
0.20156306
30
0
70
32
0
VERTEX
8
0
62
5
10
0.11313708
20
0.24156306
30
0
70
32
0
SEQEND
8
0
0
POLYLINE
8
0
62
5
66
1
10
0
20
0
30
0
70
8
0
VERTEX
8
0
62
5
10
0.14142136
20
0.20156306
30
0
70
32
0
VERTEX
8
0
62
5
10
0.14142136
20
0.24156306
30
0
70
32
0
SEQEND
8
0
0
POLYLINE
8
0
62
5
66
1
10
0
20
0
30
0
70
8
0
VERTEX
8
0
62
5
10
0.16970563
20
0.20156306
30
0
70
32
0
VERTEX
8
0
62
5
10
0.16970563
20
0.24156306
30
0
70
32
0
SEQEND
8
0
0
POLYLINE
8
0
62
5
66
1
10
0
20
0
30
0
70
8
0
VERTEX
8
0
62
5
10
0.084852814
20
0.20156306
30
0
70
32
0
VERTEX
8
0
62
5
10
0.084852814
20
0.24156306
30
0
70
32
0
SEQEND
8
0
0
POLYLINE
8
0
62
5
66
1
10
0
20
0
30
0
70
8
0
VERTEX
8
0
62
5
10
-0.14142136
20
0.20156306
30
0
70
32
0
VERTEX
8
0
62
5
10
-0.14142136
20
0.24156306
30
0
70
32
0
SEQEND
8
0
0
POLYLINE
8
0
62
5
66
1
10
0
20
0
30
0
70
8
0
VERTEX
8
0
62
5
10
-0.14142136
20
0.20156306
30
0
70
32
0
VERTEX
8
0
62
5
10
-0.028284271
20
0.20156306
30
0
70
32
0
SEQEND
8
0
0
POLYLINE
8
0
62
5
66
1
10
0
20
0
30
0
70
8
0
VERTEX
8
0
62
5
10
-0.14142136
20
0.24156306
30
0
70
32
0
VERTEX
8
0
62
5
10
-0.028284271
20
0.24156306
30
0
70
32
0
SEQEND
8
0
0
POLYLINE
8
0
62
5
66
1
10
0
20
0
30
0
70
8
0
VERTEX
8
0
62
5
10
-0.11313708
20
0.20156306
30
0
70
32
0
VERTEX
8
0
62
5
10
-0.11313708
20
0.20156306
30
0
70
32
0
SEQEND
8
0
0
POLYLINE
8
0
62
5
66
1
10
0
20
0
30
0
70
8
0
VERTEX
8
0
62
5
10
-0.084852814
20
0.20156306
30
0
70
32
0
VERTEX
8
0
62
5
10
-0.084852814
20
0.20156306
30
0
70
32
0
SEQEND
8
0
0
POLYLINE
8
0
62
5
66
1
10
0
20
0
30
0
70
8
0
VERTEX
8
0
62
5
10
-0.056568542
20
0.20156306
30
0
70
32
0
VERTEX
8
0
62
5
10
-0.056568542
20
0.20156306
30
0
70
32
0
SEQEND
8
0
0
POLYLINE
8
0
62
5
66
1
10
0
20
0
30
0
70
8
0
VERTEX
8
0
62
5
10
-0.11313708
20
0.24156306
30
0
70
32
0
VERTEX
8
0
62
5
10
-0.11313708
20
0.24156306
30
0
70
32
0
SEQEND
8
0
0
POLYLINE
8
0
62
5
66
1
10
0
20
0
30
0
70
8
0
VERTEX
8
0
62
5
10
-0.084852814
20
0.24156306
30
0
70
32
0
VERTEX
8
0
62
5
10
-0.084852814
20
0.24156306
30
0
70
32
0
SEQEND
8
0
0
POLYLINE
8
0
62
5
66
1
10
0
20
0
30
0
70
8
0
VERTEX
8
0
62
5
10
-0.056568542
20
0.24156306
30
0
70
32
0
VERTEX
8
0
62
5
10
-0.056568542
20
0.24156306
30
0
70
32
0
SEQEND
8
0
0
POLYLINE
8
0
62
30
66
1
10
0
20
0
30
0
70
8
0
VERTEX
8
0
62
30
10
-0.14142136
20
0.24156306
30
0
70
32
0
VERTEX
8
0
62
30
10
-0.11313708
20
0.20156306
30
0
70
32
0
SEQEND
8
0
0
POLYLINE
8
0
62
30
66
1
10
0
20
0
30
0
70
8
0
VERTEX
8
0
62
30
10
-0.11313708
20
0.24156306
30
0
70
32
0
VERTEX
8
0
62
30
10
-0.14142136
20
0.20156306
30
0
70
32
0
SEQEND
8
0
0
POLYLINE
8
0
62
30
66
1
10
0
20
0
30
0
70
8
0
VERTEX
8
0
62
30
10
-0.084852814
20
0.24156306
30
0
70
32
0
VERTEX
8
0
62
30
10
-0.056568542
20
0.20156306
30
0
70
32
0
SEQEND
8
0
0
POLYLINE
8
0
62
30
66
1
10
0
20
0
30
0
70
8
0
VERTEX
8
0
62
30
10
-0.056568542
20
0.24156306
30
0
70
32
0
VERTEX
8
0
62
30
10
-0.084852814
20
0.20156306
30
0
70
32
0
SEQEND
8
0
0
POLYLINE
8
0
62
30
66
1
10
0
20
0
30
0
70
8
0
VERTEX
8
0
62
30
10
-0.11313708
20
0.22156306
30
0
70
32
0
VERTEX
8
0
62
30
10
-0.084852814
20
0.22156306
30
0
70
32
0
SEQEND
8
0
0
POLYLINE
8
0
62
30
66
1
10
0
20
0
30
0
70
8
0
VERTEX
8
0
62
30
10
-0.056568542
20
0.22156306
30
0
70
32
0
VERTEX
8
0
62
30
10
-0.028284271
20
0.22156306
30
0
70
32
0
SEQEND
8
0
0
POLYLINE
8
0
62
5
66
1
10
0
20
0
30
0
70
8
0
VERTEX
8
0
62
5
10
-0.14142136
20
0.22156306
30
0
70
32
0
VERTEX
8
0
62
5
10
-0.12727922
20
0.22156306
30
0
70
32
0
SEQEND
8
0
0
POLYLINE
8
0
62
5
66
1
10
0
20
0
30
0
70
8
0
VERTEX
8
0
62
5
10
-0.084852814
20
0.22156306
30
0
70
32
0
VERTEX
8
0
62
5
10
-0.070710678
20
0.22156306
30
0
70
32
0
SEQEND
8
0
0
POLYLINE
8
0
62
5
66
1
10
0
20
0
30
0
70
8
0
VERTEX
8
0
62
5
10
-0.12727922
20
0.22156306
30
0
70
32
0
VERTEX
8
0
62
5
10
-0.11313708
20
0.22156306
30
0
70
32
0
SEQEND
8
0
0
POLYLINE
8
0
62
5
66
1
10
0
20
0
30
0
70
8
0
VERTEX
8
0
62
5
10
-0.070710678
20
0.22156306
30
0
70
32
0
VERTEX
8
0
62
5
10
-0.056568542
20
0.22156306
30
0
70
32
0
SEQEND
8
0
0
POLYLINE
8
0
62
5
66
1
10
0
20
0
30
0
70
8
0
VERTEX
8
0
62
5
10
-0.11313708
20
0.20156306
30
0
70
32
0
VERTEX
8
0
62
5
10
-0.11313708
20
0.24156306
30
0
70
32
0
SEQEND
8
0
0
POLYLINE
8
0
62
5
66
1
10
0
20
0
30
0
70
8
0
VERTEX
8
0
62
5
10
-0.084852814
20
0.20156306
30
0
70
32
0
VERTEX
8
0
62
5
10
-0.084852814
20
0.24156306
30
0
70
32
0
SEQEND
8
0
0
POLYLINE
8
0
62
5
66
1
10
0
20
0
30
0
70
8
0
VERTEX
8
0
62
5
10
-0.056568542
20
0.20156306
30
0
70
32
0
VERTEX
8
0
62
5
10
-0.056568542
20
0.24156306
30
0
70
32
0
SEQEND
8
0
0
POLYLINE
8
0
62
5
66
1
10
0
20
0
30
0
70
8
0
VERTEX
8
0
62
5
10
-0.14142136
20
0.20156306
30
0
70
32
0
VERTEX
8
0
62
5
10
-0.14142136
20
0.24156306
30
0
70
32
0
SEQEND
8
0
0
POLYLINE
8
0
62
5
66
1
10
0
20
0
30
0
70
8
0
VERTEX
8
0
62
5
10
-0.028284271
20
0.24156306
30
0
70
32
0
VERTEX
8
0
62
5
10
-0.028284271
20
0.24769129
30
0
70
32
0
SEQEND
8
0
0
POLYLINE
8
0
62
5
66
1
10
0
20
0
30
0
70
8
0
VERTEX
8
0
62
5
10
6.6907591e-13
20
0.24156306
30
0
70
32
0
VERTEX
8
0
62
5
10
6.6907591e-13
20
0.24769129
30
0
70
32
0
SEQEND
8
0
0
POLYLINE
8
0
62
5
66
1
10
0
20
0
30
0
70
8
0
VERTEX
8
0
62
5
10
0.028284271
20
0.24156306
30
0
70
32
0
VERTEX
8
0
62
5
10
0.028284271
20
0.24769129
30
0
70
32
0
SEQEND
8
0
0
POLYLINE
8
0
62
5
66
1
10
0
20
0
30
0
70
8
0
VERTEX
8
0
62
5
10
0.056568542
20
0.24156306
30
0
70
32
0
VERTEX
8
0
62
5
10
0.056568542
20
0.24769129
30
0
70
32
0
SEQEND
8
0
0
POLYLINE
8
0
62
5
66
1
10
0
20
0
30
0
70
8
0
VERTEX
8
0
62
5
10
0.084852814
20
0.24156306
30
0
70
32
0
VERTEX
8
0
62
5
10
0.084852814
20
0.24769129
30
0
70
32
0
SEQEND
8
0
0
POLYLINE
8
0
62
5
66
1
10
0
20
0
30
0
70
8
0
VERTEX
8
0
62
5
10
6.6907591e-13
20
0.24156306
30
0
70
32
0
VERTEX
8
0
62
5
10
6.6907591e-13
20
0.24156306
30
0
70
32
0
SEQEND
8
0
0
POLYLINE
8
0
62
5
66
1
10
0
20
0
30
0
70
8
0
VERTEX
8
0
62
5
10
0.028284271
20
0.24156306
30
0
70
32
0
VERTEX
8
0
62
5
10
0.028284271
20
0.24156306
30
0
70
32
0
SEQEND
8
0
0
POLYLINE
8
0
62
5
66
1
10
0
20
0
30
0
70
8
0
VERTEX
8
0
62
5
10
0.056568542
20
0.24156306
30
0
70
32
0
VERTEX
8
0
62
5
10
0.056568542
20
0.24156306
30
0
70
32
0
SEQEND
8
0
0
POLYLINE
8
0
62
5
66
1
10
0
20
0
30
0
70
8
0
VERTEX
8
0
62
5
10
6.6907591e-13
20
0.24769129
30
0
70
32
0
VERTEX
8
0
62
5
10
6.6907591e-13
20
0.24769129
30
0
70
32
0
SEQEND
8
0
0
POLYLINE
8
0
62
5
66
1
10
0
20
0
30
0
70
8
0
VERTEX
8
0
62
5
10
0.028284271
20
0.24769129
30
0
70
32
0
VERTEX
8
0
62
5
10
0.028284271
20
0.24769129
30
0
70
32
0
SEQEND
8
0
0
POLYLINE
8
0
62
5
66
1
10
0
20
0
30
0
70
8
0
VERTEX
8
0
62
5
10
0.056568542
20
0.24769129
30
0
70
32
0
VERTEX
8
0
62
5
10
0.056568542
20
0.24769129
30
0
70
32
0
SEQEND
8
0
0
POLYLINE
8
0
62
5
66
1
10
0
20
0
30
0
70
8
0
VERTEX
8
0
62
5
10
0.084852814
20
0.24769129
30
0
70
32
0
VERTEX
8
0
62
5
10
0.084852814
20
0.24769129
30
0
70
32
0
SEQEND
8
0
0
POLYLINE
8
0
62
5
66
1
10
0
20
0
30
0
70
8
0
VERTEX
8
0
62
5
10
0.11313708
20
0.24156306
30
0
70
32
0
VERTEX
8
0
62
5
10
0.11313708
20
0.24769129
30
0
70
32
0
SEQEND
8
0
0
POLYLINE
8
0
62
5
66
1
10
0
20
0
30
0
70
8
0
VERTEX
8
0
62
5
10
0.14142136
20
0.24156306
30
0
70
32
0
VERTEX
8
0
62
5
10
0.14142136
20
0.24769129
30
0
70
32
0
SEQEND
8
0
0
POLYLINE
8
0
62
5
66
1
10
0
20
0
30
0
70
8
0
VERTEX
8
0
62
5
10
0.16970563
20
0.24156306
30
0
70
32
0
VERTEX
8
0
62
5
10
0.16970563
20
0.24769129
30
0
70
32
0
SEQEND
8
0
0
POLYLINE
8
0
62
5
66
1
10
0
20
0
30
0
70
8
0
VERTEX
8
0
62
5
10
0.1979899
20
0.24156306
30
0
70
32
0
VERTEX
8
0
62
5
10
0.1979899
20
0.24769129
30
0
70
32
0
SEQEND
8
0
0
POLYLINE
8
0
62
5
66
1
10
0
20
0
30
0
70
8
0
VERTEX
8
0
62
5
10
0.11313708
20
0.24156306
30
0
70
32
0
VERTEX
8
0
62
5
10
0.11313708
20
0.24156306
30
0
70
32
0
SEQEND
8
0
0
POLYLINE
8
0
62
5
66
1
10
0
20
0
30
0
70
8
0
VERTEX
8
0
62
5
10
0.14142136
20
0.24156306
30
0
70
32
0
VERTEX
8
0
62
5
10
0.14142136
20
0.24156306
30
0
70
32
0
SEQEND
8
0
0
POLYLINE
8
0
62
5
66
1
10
0
20
0
30
0
70
8
0
VERTEX
8
0
62
5
10
0.16970563
20
0.24156306
30
0
70
32
0
VERTEX
8
0
62
5
10
0.16970563
20
0.24156306
30
0
70
32
0
SEQEND
8
0
0
POLYLINE
8
0
62
5
66
1
10
0
20
0
30
0
70
8
0
VERTEX
8
0
62
5
10
0.11313708
20
0.24769129
30
0
70
32
0
VERTEX
8
0
62
5
10
0.11313708
20
0.24769129
30
0
70
32
0
SEQEND
8
0
0
POLYLINE
8
0
62
5
66
1
10
0
20
0
30
0
70
8
0
VERTEX
8
0
62
5
10
0.14142136
20
0.24769129
30
0
70
32
0
VERTEX
8
0
62
5
10
0.14142136
20
0.24769129
30
0
70
32
0
SEQEND
8
0
0
POLYLINE
8
0
62
5
66
1
10
0
20
0
30
0
70
8
0
VERTEX
8
0
62
5
10
0.16970563
20
0.24769129
30
0
70
32
0
VERTEX
8
0
62
5
10
0.16970563
20
0.24769129
30
0
70
32
0
SEQEND
8
0
0
POLYLINE
8
0
62
5
66
1
10
0
20
0
30
0
70
8
0
VERTEX
8
0
62
5
10
0.1979899
20
0.24769129
30
0
70
32
0
VERTEX
8
0
62
5
10
0.1979899
20
0.24769129
30
0
70
32
0
SEQEND
8
0
0
POLYLINE
8
0
62
5
66
1
10
0
20
0
30
0
70
8
0
VERTEX
8
0
62
5
10
-0.11313708
20
0.24156306
30
0
70
32
0
VERTEX
8
0
62
5
10
-0.11313708
20
0.24769129
30
0
70
32
0
SEQEND
8
0
0
POLYLINE
8
0
62
5
66
1
10
0
20
0
30
0
70
8
0
VERTEX
8
0
62
5
10
-0.084852814
20
0.24156306
30
0
70
32
0
VERTEX
8
0
62
5
10
-0.084852814
20
0.24769129
30
0
70
32
0
SEQEND
8
0
0
POLYLINE
8
0
62
5
66
1
10
0
20
0
30
0
70
8
0
VERTEX
8
0
62
5
10
-0.056568542
20
0.24156306
30
0
70
32
0
VERTEX
8
0
62
5
10
-0.056568542
20
0.24769129
30
0
70
32
0
SEQEND
8
0
0
POLYLINE
8
0
62
5
66
1
10
0
20
0
30
0
70
8
0
VERTEX
8
0
62
5
10
-0.028284271
20
0.24156306
30
0
70
32
0
VERTEX
8
0
62
5
10
-0.028284271
20
0.24769129
30
0
70
32
0
SEQEND
8
0
0
POLYLINE
8
0
62
5
66
1
10
0
20
0
30
0
70
8
0
VERTEX
8
0
62
5
10
-0.11313708
20
0.24156306
30
0
70
32
0
VERTEX
8
0
62
5
10
-0.11313708
20
0.24156306
30
0
70
32
0
SEQEND
8
0
0
POLYLINE
8
0
62
5
66
1
10
0
20
0
30
0
70
8
0
VERTEX
8
0
62
5
10
-0.084852814
20
0.24156306
30
0
70
32
0
VERTEX
8
0
62
5
10
-0.084852814
20
0.24156306
30
0
70
32
0
SEQEND
8
0
0
POLYLINE
8
0
62
5
66
1
10
0
20
0
30
0
70
8
0
VERTEX
8
0
62
5
10
-0.056568542
20
0.24156306
30
0
70
32
0
VERTEX
8
0
62
5
10
-0.056568542
20
0.24156306
30
0
70
32
0
SEQEND
8
0
0
POLYLINE
8
0
62
5
66
1
10
0
20
0
30
0
70
8
0
VERTEX
8
0
62
5
10
-0.11313708
20
0.24769129
30
0
70
32
0
VERTEX
8
0
62
5
10
-0.11313708
20
0.24769129
30
0
70
32
0
SEQEND
8
0
0
POLYLINE
8
0
62
5
66
1
10
0
20
0
30
0
70
8
0
VERTEX
8
0
62
5
10
-0.084852814
20
0.24769129
30
0
70
32
0
VERTEX
8
0
62
5
10
-0.084852814
20
0.24769129
30
0
70
32
0
SEQEND
8
0
0
POLYLINE
8
0
62
5
66
1
10
0
20
0
30
0
70
8
0
VERTEX
8
0
62
5
10
-0.056568542
20
0.24769129
30
0
70
32
0
VERTEX
8
0
62
5
10
-0.056568542
20
0.24769129
30
0
70
32
0
SEQEND
8
0
0
POLYLINE
8
0
62
5
66
1
10
0
20
0
30
0
70
8
0
VERTEX
8
0
62
5
10
-0.028284271
20
0.24769129
30
0
70
32
0
VERTEX
8
0
62
5
10
-0.028284271
20
0.24769129
30
0
70
32
0
SEQEND
8
0
0
POLYLINE
8
0
62
5
66
1
10
0
20
0
30
0
70
8
0
VERTEX
8
0
62
5
10
-0.028284271
20
0.24769129
30
0
70
32
0
VERTEX
8
0
62
5
10
-0.028284271
20
0.27220425
30
0
70
32
0
SEQEND
8
0
0
POLYLINE
8
0
62
5
66
1
10
0
20
0
30
0
70
8
0
VERTEX
8
0
62
5
10
0.084852814
20
0.24769129
30
0
70
32
0
VERTEX
8
0
62
5
10
0.084852814
20
0.27220425
30
0
70
32
0
SEQEND
8
0
0
POLYLINE
8
0
62
5
66
1
10
0
20
0
30
0
70
8
0
VERTEX
8
0
62
5
10
6.6907591e-13
20
0.24769129
30
0
70
32
0
VERTEX
8
0
62
5
10
6.6907591e-13
20
0.27220425
30
0
70
32
0
SEQEND
8
0
0
POLYLINE
8
0
62
5
66
1
10
0
20
0
30
0
70
8
0
VERTEX
8
0
62
5
10
0.028284271
20
0.24769129
30
0
70
32
0
VERTEX
8
0
62
5
10
0.028284271
20
0.27220425
30
0
70
32
0
SEQEND
8
0
0
POLYLINE
8
0
62
5
66
1
10
0
20
0
30
0
70
8
0
VERTEX
8
0
62
5
10
0.056568542
20
0.24769129
30
0
70
32
0
VERTEX
8
0
62
5
10
0.056568542
20
0.27220425
30
0
70
32
0
SEQEND
8
0
0
POLYLINE
8
0
62
5
66
1
10
0
20
0
30
0
70
8
0
VERTEX
8
0
62
5
10
0.1979899
20
0.24769129
30
0
70
32
0
VERTEX
8
0
62
5
10
0.1979899
20
0.27220425
30
0
70
32
0
SEQEND
8
0
0
POLYLINE
8
0
62
5
66
1
10
0
20
0
30
0
70
8
0
VERTEX
8
0
62
5
10
0.11313708
20
0.24769129
30
0
70
32
0
VERTEX
8
0
62
5
10
0.11313708
20
0.27220425
30
0
70
32
0
SEQEND
8
0
0
POLYLINE
8
0
62
5
66
1
10
0
20
0
30
0
70
8
0
VERTEX
8
0
62
5
10
0.14142136
20
0.24769129
30
0
70
32
0
VERTEX
8
0
62
5
10
0.14142136
20
0.27220425
30
0
70
32
0
SEQEND
8
0
0
POLYLINE
8
0
62
5
66
1
10
0
20
0
30
0
70
8
0
VERTEX
8
0
62
5
10
0.16970563
20
0.24769129
30
0
70
32
0
VERTEX
8
0
62
5
10
0.16970563
20
0.27220425
30
0
70
32
0
SEQEND
8
0
0
POLYLINE
8
0
62
5
66
1
10
0
20
0
30
0
70
8
0
VERTEX
8
0
62
5
10
-0.14142136
20
0.24769129
30
0
70
32
0
VERTEX
8
0
62
5
10
-0.14142136
20
0.27220425
30
0
70
32
0
SEQEND
8
0
0
POLYLINE
8
0
62
5
66
1
10
0
20
0
30
0
70
8
0
VERTEX
8
0
62
5
10
-0.11313708
20
0.24769129
30
0
70
32
0
VERTEX
8
0
62
5
10
-0.11313708
20
0.27220425
30
0
70
32
0
SEQEND
8
0
0
POLYLINE
8
0
62
5
66
1
10
0
20
0
30
0
70
8
0
VERTEX
8
0
62
5
10
-0.084852814
20
0.24769129
30
0
70
32
0
VERTEX
8
0
62
5
10
-0.084852814
20
0.27220425
30
0
70
32
0
SEQEND
8
0
0
POLYLINE
8
0
62
5
66
1
10
0
20
0
30
0
70
8
0
VERTEX
8
0
62
5
10
-0.056568542
20
0.24769129
30
0
70
32
0
VERTEX
8
0
62
5
10
-0.056568542
20
0.27220425
30
0
70
32
0
SEQEND
8
0
0
POLYLINE
8
0
62
5
66
1
10
0
20
0
30
0
70
8
0
VERTEX
8
0
62
5
10
-0.028284271
20
0.27220425
30
0
70
32
0
VERTEX
8
0
62
5
10
-0.028284271
20
0.31220425
30
0
70
32
0
SEQEND
8
0
0
POLYLINE
8
0
62
5
66
1
10
0
20
0
30
0
70
8
0
VERTEX
8
0
62
5
10
0.084852814
20
0.31220425
30
0
70
32
0
VERTEX
8
0
62
5
10
0.084852814
20
0.27220425
30
0
70
32
0
SEQEND
8
0
0
POLYLINE
8
0
62
5
66
1
10
0
20
0
30
0
70
8
0
VERTEX
8
0
62
5
10
-0.028284271
20
0.27220425
30
0
70
32
0
VERTEX
8
0
62
5
10
0.084852814
20
0.27220425
30
0
70
32
0
SEQEND
8
0
0
POLYLINE
8
0
62
5
66
1
10
0
20
0
30
0
70
8
0
VERTEX
8
0
62
5
10
-0.028284271
20
0.31220425
30
0
70
32
0
VERTEX
8
0
62
5
10
0.084852814
20
0.31220425
30
0
70
32
0
SEQEND
8
0
0
POLYLINE
8
0
62
5
66
1
10
0
20
0
30
0
70
8
0
VERTEX
8
0
62
5
10
6.6907591e-13
20
0.27220425
30
0
70
32
0
VERTEX
8
0
62
5
10
6.6907591e-13
20
0.27220425
30
0
70
32
0
SEQEND
8
0
0
POLYLINE
8
0
62
5
66
1
10
0
20
0
30
0
70
8
0
VERTEX
8
0
62
5
10
0.028284271
20
0.27220425
30
0
70
32
0
VERTEX
8
0
62
5
10
0.028284271
20
0.27220425
30
0
70
32
0
SEQEND
8
0
0
POLYLINE
8
0
62
5
66
1
10
0
20
0
30
0
70
8
0
VERTEX
8
0
62
5
10
0.056568542
20
0.27220425
30
0
70
32
0
VERTEX
8
0
62
5
10
0.056568542
20
0.27220425
30
0
70
32
0
SEQEND
8
0
0
POLYLINE
8
0
62
5
66
1
10
0
20
0
30
0
70
8
0
VERTEX
8
0
62
5
10
6.6907591e-13
20
0.31220425
30
0
70
32
0
VERTEX
8
0
62
5
10
6.6907591e-13
20
0.31220425
30
0
70
32
0
SEQEND
8
0
0
POLYLINE
8
0
62
5
66
1
10
0
20
0
30
0
70
8
0
VERTEX
8
0
62
5
10
0.028284271
20
0.31220425
30
0
70
32
0
VERTEX
8
0
62
5
10
0.028284271
20
0.31220425
30
0
70
32
0
SEQEND
8
0
0
POLYLINE
8
0
62
5
66
1
10
0
20
0
30
0
70
8
0
VERTEX
8
0
62
5
10
0.056568542
20
0.31220425
30
0
70
32
0
VERTEX
8
0
62
5
10
0.056568542
20
0.31220425
30
0
70
32
0
SEQEND
8
0
0
POLYLINE
8
0
62
30
66
1
10
0
20
0
30
0
70
8
0
VERTEX
8
0
62
30
10
-0.028284271
20
0.27220425
30
0
70
32
0
VERTEX
8
0
62
30
10
-0.014142136
20
0.29220425
30
0
70
32
0
SEQEND
8
0
0
POLYLINE
8
0
62
30
66
1
10
0
20
0
30
0
70
8
0
VERTEX
8
0
62
30
10
-0.014142136
20
0.29220425
30
0
70
32
0
VERTEX
8
0
62
30
10
6.6907591e-13
20
0.27220425
30
0
70
32
0
SEQEND
8
0
0
POLYLINE
8
0
62
30
66
1
10
0
20
0
30
0
70
8
0
VERTEX
8
0
62
30
10
0.028284271
20
0.27220425
30
0
70
32
0
VERTEX
8
0
62
30
10
0.042426407
20
0.29220425
30
0
70
32
0
SEQEND
8
0
0
POLYLINE
8
0
62
30
66
1
10
0
20
0
30
0
70
8
0
VERTEX
8
0
62
30
10
0.042426407
20
0.29220425
30
0
70
32
0
VERTEX
8
0
62
30
10
0.056568542
20
0.27220425
30
0
70
32
0
SEQEND
8
0
0
POLYLINE
8
0
62
30
66
1
10
0
20
0
30
0
70
8
0
VERTEX
8
0
62
30
10
6.6907591e-13
20
0.29220425
30
0
70
32
0
VERTEX
8
0
62
30
10
0.028284271
20
0.29220425
30
0
70
32
0
SEQEND
8
0
0
POLYLINE
8
0
62
30
66
1
10
0
20
0
30
0
70
8
0
VERTEX
8
0
62
30
10
0.056568542
20
0.29220425
30
0
70
32
0
VERTEX
8
0
62
30
10
0.084852814
20
0.29220425
30
0
70
32
0
SEQEND
8
0
0
POLYLINE
8
0
62
5
66
1
10
0
20
0
30
0
70
8
0
VERTEX
8
0
62
5
10
-0.028284271
20
0.29220425
30
0
70
32
0
VERTEX
8
0
62
5
10
-0.014142136
20
0.29220425
30
0
70
32
0
SEQEND
8
0
0
POLYLINE
8
0
62
5
66
1
10
0
20
0
30
0
70
8
0
VERTEX
8
0
62
5
10
0.028284271
20
0.29220425
30
0
70
32
0
VERTEX
8
0
62
5
10
0.042426407
20
0.29220425
30
0
70
32
0
SEQEND
8
0
0
POLYLINE
8
0
62
5
66
1
10
0
20
0
30
0
70
8
0
VERTEX
8
0
62
5
10
-0.014142136
20
0.29220425
30
0
70
32
0
VERTEX
8
0
62
5
10
6.6907591e-13
20
0.29220425
30
0
70
32
0
SEQEND
8
0
0
POLYLINE
8
0
62
5
66
1
10
0
20
0
30
0
70
8
0
VERTEX
8
0
62
5
10
0.042426407
20
0.29220425
30
0
70
32
0
VERTEX
8
0
62
5
10
0.056568542
20
0.29220425
30
0
70
32
0
SEQEND
8
0
0
POLYLINE
8
0
62
5
66
1
10
0
20
0
30
0
70
8
0
VERTEX
8
0
62
5
10
6.6907591e-13
20
0.27220425
30
0
70
32
0
VERTEX
8
0
62
5
10
6.6907591e-13
20
0.31220425
30
0
70
32
0
SEQEND
8
0
0
POLYLINE
8
0
62
5
66
1
10
0
20
0
30
0
70
8
0
VERTEX
8
0
62
5
10
0.028284271
20
0.27220425
30
0
70
32
0
VERTEX
8
0
62
5
10
0.028284271
20
0.31220425
30
0
70
32
0
SEQEND
8
0
0
POLYLINE
8
0
62
5
66
1
10
0
20
0
30
0
70
8
0
VERTEX
8
0
62
5
10
0.056568542
20
0.27220425
30
0
70
32
0
VERTEX
8
0
62
5
10
0.056568542
20
0.31220425
30
0
70
32
0
SEQEND
8
0
0
POLYLINE
8
0
62
5
66
1
10
0
20
0
30
0
70
8
0
VERTEX
8
0
62
5
10
-0.028284271
20
0.27220425
30
0
70
32
0
VERTEX
8
0
62
5
10
-0.028284271
20
0.31220425
30
0
70
32
0
SEQEND
8
0
0
POLYLINE
8
0
62
5
66
1
10
0
20
0
30
0
70
8
0
VERTEX
8
0
62
5
10
0.1979899
20
0.31220425
30
0
70
32
0
VERTEX
8
0
62
5
10
0.1979899
20
0.27220425
30
0
70
32
0
SEQEND
8
0
0
POLYLINE
8
0
62
5
66
1
10
0
20
0
30
0
70
8
0
VERTEX
8
0
62
5
10
0.084852814
20
0.27220425
30
0
70
32
0
VERTEX
8
0
62
5
10
0.1979899
20
0.27220425
30
0
70
32
0
SEQEND
8
0
0
POLYLINE
8
0
62
5
66
1
10
0
20
0
30
0
70
8
0
VERTEX
8
0
62
5
10
0.084852814
20
0.31220425
30
0
70
32
0
VERTEX
8
0
62
5
10
0.1979899
20
0.31220425
30
0
70
32
0
SEQEND
8
0
0
POLYLINE
8
0
62
5
66
1
10
0
20
0
30
0
70
8
0
VERTEX
8
0
62
5
10
0.11313708
20
0.27220425
30
0
70
32
0
VERTEX
8
0
62
5
10
0.11313708
20
0.27220425
30
0
70
32
0
SEQEND
8
0
0
POLYLINE
8
0
62
5
66
1
10
0
20
0
30
0
70
8
0
VERTEX
8
0
62
5
10
0.14142136
20
0.27220425
30
0
70
32
0
VERTEX
8
0
62
5
10
0.14142136
20
0.27220425
30
0
70
32
0
SEQEND
8
0
0
POLYLINE
8
0
62
5
66
1
10
0
20
0
30
0
70
8
0
VERTEX
8
0
62
5
10
0.16970563
20
0.27220425
30
0
70
32
0
VERTEX
8
0
62
5
10
0.16970563
20
0.27220425
30
0
70
32
0
SEQEND
8
0
0
POLYLINE
8
0
62
5
66
1
10
0
20
0
30
0
70
8
0
VERTEX
8
0
62
5
10
0.11313708
20
0.31220425
30
0
70
32
0
VERTEX
8
0
62
5
10
0.11313708
20
0.31220425
30
0
70
32
0
SEQEND
8
0
0
POLYLINE
8
0
62
5
66
1
10
0
20
0
30
0
70
8
0
VERTEX
8
0
62
5
10
0.14142136
20
0.31220425
30
0
70
32
0
VERTEX
8
0
62
5
10
0.14142136
20
0.31220425
30
0
70
32
0
SEQEND
8
0
0
POLYLINE
8
0
62
5
66
1
10
0
20
0
30
0
70
8
0
VERTEX
8
0
62
5
10
0.16970563
20
0.31220425
30
0
70
32
0
VERTEX
8
0
62
5
10
0.16970563
20
0.31220425
30
0
70
32
0
SEQEND
8
0
0
POLYLINE
8
0
62
30
66
1
10
0
20
0
30
0
70
8
0
VERTEX
8
0
62
30
10
0.084852814
20
0.27220425
30
0
70
32
0
VERTEX
8
0
62
30
10
0.098994949
20
0.29220425
30
0
70
32
0
SEQEND
8
0
0
POLYLINE
8
0
62
30
66
1
10
0
20
0
30
0
70
8
0
VERTEX
8
0
62
30
10
0.098994949
20
0.29220425
30
0
70
32
0
VERTEX
8
0
62
30
10
0.11313708
20
0.27220425
30
0
70
32
0
SEQEND
8
0
0
POLYLINE
8
0
62
30
66
1
10
0
20
0
30
0
70
8
0
VERTEX
8
0
62
30
10
0.14142136
20
0.27220425
30
0
70
32
0
VERTEX
8
0
62
30
10
0.15556349
20
0.29220425
30
0
70
32
0
SEQEND
8
0
0
POLYLINE
8
0
62
30
66
1
10
0
20
0
30
0
70
8
0
VERTEX
8
0
62
30
10
0.15556349
20
0.29220425
30
0
70
32
0
VERTEX
8
0
62
30
10
0.16970563
20
0.27220425
30
0
70
32
0
SEQEND
8
0
0
POLYLINE
8
0
62
30
66
1
10
0
20
0
30
0
70
8
0
VERTEX
8
0
62
30
10
0.11313708
20
0.29220425
30
0
70
32
0
VERTEX
8
0
62
30
10
0.14142136
20
0.29220425
30
0
70
32
0
SEQEND
8
0
0
POLYLINE
8
0
62
30
66
1
10
0
20
0
30
0
70
8
0
VERTEX
8
0
62
30
10
0.16970563
20
0.29220425
30
0
70
32
0
VERTEX
8
0
62
30
10
0.1979899
20
0.29220425
30
0
70
32
0
SEQEND
8
0
0
POLYLINE
8
0
62
5
66
1
10
0
20
0
30
0
70
8
0
VERTEX
8
0
62
5
10
0.084852814
20
0.29220425
30
0
70
32
0
VERTEX
8
0
62
5
10
0.098994949
20
0.29220425
30
0
70
32
0
SEQEND
8
0
0
POLYLINE
8
0
62
5
66
1
10
0
20
0
30
0
70
8
0
VERTEX
8
0
62
5
10
0.14142136
20
0.29220425
30
0
70
32
0
VERTEX
8
0
62
5
10
0.15556349
20
0.29220425
30
0
70
32
0
SEQEND
8
0
0
POLYLINE
8
0
62
5
66
1
10
0
20
0
30
0
70
8
0
VERTEX
8
0
62
5
10
0.098994949
20
0.29220425
30
0
70
32
0
VERTEX
8
0
62
5
10
0.11313708
20
0.29220425
30
0
70
32
0
SEQEND
8
0
0
POLYLINE
8
0
62
5
66
1
10
0
20
0
30
0
70
8
0
VERTEX
8
0
62
5
10
0.15556349
20
0.29220425
30
0
70
32
0
VERTEX
8
0
62
5
10
0.16970563
20
0.29220425
30
0
70
32
0
SEQEND
8
0
0
POLYLINE
8
0
62
5
66
1
10
0
20
0
30
0
70
8
0
VERTEX
8
0
62
5
10
0.11313708
20
0.27220425
30
0
70
32
0
VERTEX
8
0
62
5
10
0.11313708
20
0.31220425
30
0
70
32
0
SEQEND
8
0
0
POLYLINE
8
0
62
5
66
1
10
0
20
0
30
0
70
8
0
VERTEX
8
0
62
5
10
0.14142136
20
0.27220425
30
0
70
32
0
VERTEX
8
0
62
5
10
0.14142136
20
0.31220425
30
0
70
32
0
SEQEND
8
0
0
POLYLINE
8
0
62
5
66
1
10
0
20
0
30
0
70
8
0
VERTEX
8
0
62
5
10
0.16970563
20
0.27220425
30
0
70
32
0
VERTEX
8
0
62
5
10
0.16970563
20
0.31220425
30
0
70
32
0
SEQEND
8
0
0
POLYLINE
8
0
62
5
66
1
10
0
20
0
30
0
70
8
0
VERTEX
8
0
62
5
10
0.084852814
20
0.27220425
30
0
70
32
0
VERTEX
8
0
62
5
10
0.084852814
20
0.31220425
30
0
70
32
0
SEQEND
8
0
0
POLYLINE
8
0
62
5
66
1
10
0
20
0
30
0
70
8
0
VERTEX
8
0
62
5
10
-0.14142136
20
0.27220425
30
0
70
32
0
VERTEX
8
0
62
5
10
-0.14142136
20
0.31220425
30
0
70
32
0
SEQEND
8
0
0
POLYLINE
8
0
62
5
66
1
10
0
20
0
30
0
70
8
0
VERTEX
8
0
62
5
10
-0.14142136
20
0.27220425
30
0
70
32
0
VERTEX
8
0
62
5
10
-0.028284271
20
0.27220425
30
0
70
32
0
SEQEND
8
0
0
POLYLINE
8
0
62
5
66
1
10
0
20
0
30
0
70
8
0
VERTEX
8
0
62
5
10
-0.14142136
20
0.31220425
30
0
70
32
0
VERTEX
8
0
62
5
10
-0.028284271
20
0.31220425
30
0
70
32
0
SEQEND
8
0
0
POLYLINE
8
0
62
5
66
1
10
0
20
0
30
0
70
8
0
VERTEX
8
0
62
5
10
-0.11313708
20
0.27220425
30
0
70
32
0
VERTEX
8
0
62
5
10
-0.11313708
20
0.27220425
30
0
70
32
0
SEQEND
8
0
0
POLYLINE
8
0
62
5
66
1
10
0
20
0
30
0
70
8
0
VERTEX
8
0
62
5
10
-0.084852814
20
0.27220425
30
0
70
32
0
VERTEX
8
0
62
5
10
-0.084852814
20
0.27220425
30
0
70
32
0
SEQEND
8
0
0
POLYLINE
8
0
62
5
66
1
10
0
20
0
30
0
70
8
0
VERTEX
8
0
62
5
10
-0.056568542
20
0.27220425
30
0
70
32
0
VERTEX
8
0
62
5
10
-0.056568542
20
0.27220425
30
0
70
32
0
SEQEND
8
0
0
POLYLINE
8
0
62
5
66
1
10
0
20
0
30
0
70
8
0
VERTEX
8
0
62
5
10
-0.11313708
20
0.31220425
30
0
70
32
0
VERTEX
8
0
62
5
10
-0.11313708
20
0.31220425
30
0
70
32
0
SEQEND
8
0
0
POLYLINE
8
0
62
5
66
1
10
0
20
0
30
0
70
8
0
VERTEX
8
0
62
5
10
-0.084852814
20
0.31220425
30
0
70
32
0
VERTEX
8
0
62
5
10
-0.084852814
20
0.31220425
30
0
70
32
0
SEQEND
8
0
0
POLYLINE
8
0
62
5
66
1
10
0
20
0
30
0
70
8
0
VERTEX
8
0
62
5
10
-0.056568542
20
0.31220425
30
0
70
32
0
VERTEX
8
0
62
5
10
-0.056568542
20
0.31220425
30
0
70
32
0
SEQEND
8
0
0
POLYLINE
8
0
62
30
66
1
10
0
20
0
30
0
70
8
0
VERTEX
8
0
62
30
10
-0.14142136
20
0.27220425
30
0
70
32
0
VERTEX
8
0
62
30
10
-0.12727922
20
0.29220425
30
0
70
32
0
SEQEND
8
0
0
POLYLINE
8
0
62
30
66
1
10
0
20
0
30
0
70
8
0
VERTEX
8
0
62
30
10
-0.12727922
20
0.29220425
30
0
70
32
0
VERTEX
8
0
62
30
10
-0.11313708
20
0.27220425
30
0
70
32
0
SEQEND
8
0
0
POLYLINE
8
0
62
30
66
1
10
0
20
0
30
0
70
8
0
VERTEX
8
0
62
30
10
-0.084852814
20
0.27220425
30
0
70
32
0
VERTEX
8
0
62
30
10
-0.070710678
20
0.29220425
30
0
70
32
0
SEQEND
8
0
0
POLYLINE
8
0
62
30
66
1
10
0
20
0
30
0
70
8
0
VERTEX
8
0
62
30
10
-0.070710678
20
0.29220425
30
0
70
32
0
VERTEX
8
0
62
30
10
-0.056568542
20
0.27220425
30
0
70
32
0
SEQEND
8
0
0
POLYLINE
8
0
62
30
66
1
10
0
20
0
30
0
70
8
0
VERTEX
8
0
62
30
10
-0.11313708
20
0.29220425
30
0
70
32
0
VERTEX
8
0
62
30
10
-0.084852814
20
0.29220425
30
0
70
32
0
SEQEND
8
0
0
POLYLINE
8
0
62
30
66
1
10
0
20
0
30
0
70
8
0
VERTEX
8
0
62
30
10
-0.056568542
20
0.29220425
30
0
70
32
0
VERTEX
8
0
62
30
10
-0.028284271
20
0.29220425
30
0
70
32
0
SEQEND
8
0
0
POLYLINE
8
0
62
5
66
1
10
0
20
0
30
0
70
8
0
VERTEX
8
0
62
5
10
-0.14142136
20
0.29220425
30
0
70
32
0
VERTEX
8
0
62
5
10
-0.12727922
20
0.29220425
30
0
70
32
0
SEQEND
8
0
0
POLYLINE
8
0
62
5
66
1
10
0
20
0
30
0
70
8
0
VERTEX
8
0
62
5
10
-0.084852814
20
0.29220425
30
0
70
32
0
VERTEX
8
0
62
5
10
-0.070710678
20
0.29220425
30
0
70
32
0
SEQEND
8
0
0
POLYLINE
8
0
62
5
66
1
10
0
20
0
30
0
70
8
0
VERTEX
8
0
62
5
10
-0.12727922
20
0.29220425
30
0
70
32
0
VERTEX
8
0
62
5
10
-0.11313708
20
0.29220425
30
0
70
32
0
SEQEND
8
0
0
POLYLINE
8
0
62
5
66
1
10
0
20
0
30
0
70
8
0
VERTEX
8
0
62
5
10
-0.070710678
20
0.29220425
30
0
70
32
0
VERTEX
8
0
62
5
10
-0.056568542
20
0.29220425
30
0
70
32
0
SEQEND
8
0
0
POLYLINE
8
0
62
5
66
1
10
0
20
0
30
0
70
8
0
VERTEX
8
0
62
5
10
-0.11313708
20
0.27220425
30
0
70
32
0
VERTEX
8
0
62
5
10
-0.11313708
20
0.31220425
30
0
70
32
0
SEQEND
8
0
0
POLYLINE
8
0
62
5
66
1
10
0
20
0
30
0
70
8
0
VERTEX
8
0
62
5
10
-0.084852814
20
0.27220425
30
0
70
32
0
VERTEX
8
0
62
5
10
-0.084852814
20
0.31220425
30
0
70
32
0
SEQEND
8
0
0
POLYLINE
8
0
62
5
66
1
10
0
20
0
30
0
70
8
0
VERTEX
8
0
62
5
10
-0.056568542
20
0.27220425
30
0
70
32
0
VERTEX
8
0
62
5
10
-0.056568542
20
0.31220425
30
0
70
32
0
SEQEND
8
0
0
POLYLINE
8
0
62
5
66
1
10
0
20
0
30
0
70
8
0
VERTEX
8
0
62
5
10
-0.14142136
20
0.27220425
30
0
70
32
0
VERTEX
8
0
62
5
10
-0.14142136
20
0.31220425
30
0
70
32
0
SEQEND
8
0
0
POLYLINE
8
0
62
18
66
1
10
0
20
0
30
0
70
8
0
VERTEX
8
0
62
18
10
0.14142136
20
0
30
0
70
32
0
VERTEX
8
0
62
18
10
0
20
0
30
0
70
32
0
VERTEX
8
0
62
18
10
0
20
0.31220425
30
0
70
32
0
VERTEX
8
0
62
18
10
0.14142136
20
0.31220425
30
0
70
32
0
VERTEX
8
0
62
18
10
0.14142136
20
0
30
0
70
32
0
SEQEND
8
0
0
ENDSEC
0
EOF
