0
SECTION
2
HEADER
9
$ACADVER
1
AC1006
9
$INSUNITS
70
6
0
ENDSEC
0
SECTION
2
ENTITIES
0
POLYLINE
8
0
62
5
66
1
10
0
20
0
30
0
70
8
0
VERTEX
8
0
62
5
10
0
20
0
30
0
70
32
0
VERTEX
8
0
62
5
10
0
20
0.1
30
0
70
32
0
SEQEND
8
0
0
POLYLINE
8
0
62
5
66
1
10
0
20
0
30
0
70
8
0
VERTEX
8
0
62
5
10
0.28284271
20
0
30
0
70
32
0
VERTEX
8
0
62
5
10
0.28284271
20
0.1
30
0
70
32
0
SEQEND
8
0
0
POLYLINE
8
0
62
5
66
1
10
0
20
0
30
0
70
8
0
VERTEX
8
0
62
5
10
0.070710678
20
0
30
0
70
32
0
VERTEX
8
0
62
5
10
0.070710678
20
0.1
30
0
70
32
0
SEQEND
8
0
0
POLYLINE
8
0
62
5
66
1
10
0
20
0
30
0
70
8
0
VERTEX
8
0
62
5
10
0.14142136
20
0
30
0
70
32
0
VERTEX
8
0
62
5
10
0.14142136
20
0.1
30
0
70
32
0
SEQEND
8
0
0
POLYLINE
8
0
62
5
66
1
10
0
20
0
30
0
70
8
0
VERTEX
8
0
62
5
10
0.21213203
20
0
30
0
70
32
0
VERTEX
8
0
62
5
10
0.21213203
20
0.1
30
0
70
32
0
SEQEND
8
0
0
POLYLINE
8
0
62
5
66
1
10
0
20
0
30
0
70
8
0
VERTEX
8
0
62
5
10
0.56568542
20
0
30
0
70
32
0
VERTEX
8
0
62
5
10
0.56568542
20
0.1
30
0
70
32
0
SEQEND
8
0
0
POLYLINE
8
0
62
5
66
1
10
0
20
0
30
0
70
8
0
VERTEX
8
0
62
5
10
0.35355339
20
0
30
0
70
32
0
VERTEX
8
0
62
5
10
0.35355339
20
0.1
30
0
70
32
0
SEQEND
8
0
0
POLYLINE
8
0
62
5
66
1
10
0
20
0
30
0
70
8
0
VERTEX
8
0
62
5
10
0.42426407
20
0
30
0
70
32
0
VERTEX
8
0
62
5
10
0.42426407
20
0.1
30
0
70
32
0
SEQEND
8
0
0
POLYLINE
8
0
62
5
66
1
10
0
20
0
30
0
70
8
0
VERTEX
8
0
62
5
10
0.49497475
20
0
30
0
70
32
0
VERTEX
8
0
62
5
10
0.49497475
20
0.1
30
0
70
32
0
SEQEND
8
0
0
POLYLINE
8
0
62
5
66
1
10
0
20
0
30
0
70
8
0
VERTEX
8
0
62
5
10
-0.28284271
20
0
30
0
70
32
0
VERTEX
8
0
62
5
10
-0.28284271
20
0.1
30
0
70
32
0
SEQEND
8
0
0
POLYLINE
8
0
62
5
66
1
10
0
20
0
30
0
70
8
0
VERTEX
8
0
62
5
10
-0.21213203
20
0
30
0
70
32
0
VERTEX
8
0
62
5
10
-0.21213203
20
0.1
30
0
70
32
0
SEQEND
8
0
0
POLYLINE
8
0
62
5
66
1
10
0
20
0
30
0
70
8
0
VERTEX
8
0
62
5
10
-0.14142136
20
0
30
0
70
32
0
VERTEX
8
0
62
5
10
-0.14142136
20
0.1
30
0
70
32
0
SEQEND
8
0
0
POLYLINE
8
0
62
5
66
1
10
0
20
0
30
0
70
8
0
VERTEX
8
0
62
5
10
-0.070710678
20
0
30
0
70
32
0
VERTEX
8
0
62
5
10
-0.070710678
20
0.1
30
0
70
32
0
SEQEND
8
0
0
POLYLINE
8
0
62
5
66
1
10
0
20
0
30
0
70
8
0
VERTEX
8
0
62
5
10
0
20
0.1
30
0
70
32
0
VERTEX
8
0
62
5
10
0
20
0.101
30
0
70
32
0
SEQEND
8
0
0
POLYLINE
8
0
62
5
66
1
10
0
20
0
30
0
70
8
0
VERTEX
8
0
62
5
10
0.28284271
20
0.1
30
0
70
32
0
VERTEX
8
0
62
5
10
0.28284271
20
0.101
30
0
70
32
0
SEQEND
8
0
0
POLYLINE
8
0
62
5
66
1
10
0
20
0
30
0
70
8
0
VERTEX
8
0
62
5
10
0.070710678
20
0.1
30
0
70
32
0
VERTEX
8
0
62
5
10
0.070710678
20
0.101
30
0
70
32
0
SEQEND
8
0
0
POLYLINE
8
0
62
5
66
1
10
0
20
0
30
0
70
8
0
VERTEX
8
0
62
5
10
0.14142136
20
0.1
30
0
70
32
0
VERTEX
8
0
62
5
10
0.14142136
20
0.101
30
0
70
32
0
SEQEND
8
0
0
POLYLINE
8
0
62
5
66
1
10
0
20
0
30
0
70
8
0
VERTEX
8
0
62
5
10
0.21213203
20
0.1
30
0
70
32
0
VERTEX
8
0
62
5
10
0.21213203
20
0.101
30
0
70
32
0
SEQEND
8
0
0
POLYLINE
8
0
62
5
66
1
10
0
20
0
30
0
70
8
0
VERTEX
8
0
62
5
10
0.56568542
20
0.1
30
0
70
32
0
VERTEX
8
0
62
5
10
0.56568542
20
0.101
30
0
70
32
0
SEQEND
8
0
0
POLYLINE
8
0
62
5
66
1
10
0
20
0
30
0
70
8
0
VERTEX
8
0
62
5
10
0.35355339
20
0.1
30
0
70
32
0
VERTEX
8
0
62
5
10
0.35355339
20
0.101
30
0
70
32
0
SEQEND
8
0
0
POLYLINE
8
0
62
5
66
1
10
0
20
0
30
0
70
8
0
VERTEX
8
0
62
5
10
0.42426407
20
0.1
30
0
70
32
0
VERTEX
8
0
62
5
10
0.42426407
20
0.101
30
0
70
32
0
SEQEND
8
0
0
POLYLINE
8
0
62
5
66
1
10
0
20
0
30
0
70
8
0
VERTEX
8
0
62
5
10
0.49497475
20
0.1
30
0
70
32
0
VERTEX
8
0
62
5
10
0.49497475
20
0.101
30
0
70
32
0
SEQEND
8
0
0
POLYLINE
8
0
62
5
66
1
10
0
20
0
30
0
70
8
0
VERTEX
8
0
62
5
10
-0.28284271
20
0.1
30
0
70
32
0
VERTEX
8
0
62
5
10
-0.28284271
20
0.101
30
0
70
32
0
SEQEND
8
0
0
POLYLINE
8
0
62
5
66
1
10
0
20
0
30
0
70
8
0
VERTEX
8
0
62
5
10
-0.21213203
20
0.1
30
0
70
32
0
VERTEX
8
0
62
5
10
-0.21213203
20
0.101
30
0
70
32
0
SEQEND
8
0
0
POLYLINE
8
0
62
5
66
1
10
0
20
0
30
0
70
8
0
VERTEX
8
0
62
5
10
-0.14142136
20
0.1
30
0
70
32
0
VERTEX
8
0
62
5
10
-0.14142136
20
0.101
30
0
70
32
0
SEQEND
8
0
0
POLYLINE
8
0
62
5
66
1
10
0
20
0
30
0
70
8
0
VERTEX
8
0
62
5
10
-0.070710678
20
0.1
30
0
70
32
0
VERTEX
8
0
62
5
10
-0.070710678
20
0.101
30
0
70
32
0
SEQEND
8
0
0
POLYLINE
8
0
62
5
66
1
10
0
20
0
30
0
70
8
0
VERTEX
8
0
62
5
10
0
20
0.101
30
0
70
32
0
VERTEX
8
0
62
5
10
0
20
0.12870253
30
0
70
32
0
SEQEND
8
0
0
POLYLINE
8
0
62
5
66
1
10
0
20
0
30
0
70
8
0
VERTEX
8
0
62
5
10
0.28284271
20
0.12870253
30
0
70
32
0
VERTEX
8
0
62
5
10
0.28284271
20
0.101
30
0
70
32
0
SEQEND
8
0
0
POLYLINE
8
0
62
5
66
1
10
0
20
0
30
0
70
8
0
VERTEX
8
0
62
5
10
0
20
0.11485126
30
0
70
32
0
VERTEX
8
0
62
5
10
0.070710678
20
0.11485126
30
0
70
32
0
VERTEX
8
0
62
5
10
0.14142136
20
0.1033765
30
0
70
32
0
VERTEX
8
0
62
5
10
0.21213203
20
0.1033765
30
0
70
32
0
VERTEX
8
0
62
5
10
0.28284271
20
0.11485126
30
0
70
32
0
SEQEND
8
0
0
POLYLINE
8
0
62
5
66
1
10
0
20
0
30
0
70
8
0
SEQEND
8
0
0
POLYLINE
8
0
62
5
66
1
10
0
20
0
30
0
70
8
0
VERTEX
8
0
62
5
10
0
20
0.11485126
30
0
70
32
0
VERTEX
8
0
62
5
10
0.070710678
20
0.11485126
30
0
70
32
0
VERTEX
8
0
62
5
10
0.14142136
20
0.12632603
30
0
70
32
0
VERTEX
8
0
62
5
10
0.21213203
20
0.12632603
30
0
70
32
0
VERTEX
8
0
62
5
10
0.28284271
20
0.11485126
30
0
70
32
0
SEQEND
8
0
0
POLYLINE
8
0
62
30
66
1
10
0
20
0
30
0
70
8
0
VERTEX
8
0
62
30
10
0
20
0.11485126
30
0
70
32
0
VERTEX
8
0
62
30
10
0.28284271
20
0.11485126
30
0
70
32
0
SEQEND
8
0
0
POLYLINE
8
0
62
30
66
1
10
0
20
0
30
0
70
8
0
VERTEX
8
0
62
30
10
0.070710678
20
0.11485126
30
0
70
32
0
VERTEX
8
0
62
30
10
0.070710678
20
0.11485126
30
0
70
32
0
SEQEND
8
0
0
POLYLINE
8
0
62
30
66
1
10
0
20
0
30
0
70
8
0
VERTEX
8
0
62
30
10
0.14142136
20
0.1033765
30
0
70
32
0
VERTEX
8
0
62
30
10
0.14142136
20
0.11485126
30
0
70
32
0
SEQEND
8
0
0
POLYLINE
8
0
62
30
66
1
10
0
20
0
30
0
70
8
0
VERTEX
8
0
62
30
10
0.21213203
20
0.1033765
30
0
70
32
0
VERTEX
8
0
62
30
10
0.21213203
20
0.11485126
30
0
70
32
0
SEQEND
8
0
0
POLYLINE
8
0
62
5
66
1
10
0
20
0
30
0
70
8
0
VERTEX
8
0
62
5
10
0.070710678
20
0.101
30
0
70
32
0
VERTEX
8
0
62
5
10
0.070710678
20
0.11485126
30
0
70
32
0
SEQEND
8
0
0
POLYLINE
8
0
62
5
66
1
10
0
20
0
30
0
70
8
0
VERTEX
8
0
62
5
10
0.14142136
20
0.101
30
0
70
32
0
VERTEX
8
0
62
5
10
0.14142136
20
0.1033765
30
0
70
32
0
SEQEND
8
0
0
POLYLINE
8
0
62
5
66
1
10
0
20
0
30
0
70
8
0
VERTEX
8
0
62
5
10
0.21213203
20
0.101
30
0
70
32
0
VERTEX
8
0
62
5
10
0.21213203
20
0.1033765
30
0
70
32
0
SEQEND
8
0
0
POLYLINE
8
0
62
5
66
1
10
0
20
0
30
0
70
8
0
VERTEX
8
0
62
5
10
0.070710678
20
0.11485126
30
0
70
32
0
VERTEX
8
0
62
5
10
0.070710678
20
0.12870253
30
0
70
32
0
SEQEND
8
0
0
POLYLINE
8
0
62
5
66
1
10
0
20
0
30
0
70
8
0
VERTEX
8
0
62
5
10
0.14142136
20
0.11485126
30
0
70
32
0
VERTEX
8
0
62
5
10
0.14142136
20
0.12870253
30
0
70
32
0
SEQEND
8
0
0
POLYLINE
8
0
62
5
66
1
10
0
20
0
30
0
70
8
0
VERTEX
8
0
62
5
10
0.21213203
20
0.11485126
30
0
70
32
0
VERTEX
8
0
62
5
10
0.21213203
20
0.12870253
30
0
70
32
0
SEQEND
8
0
0
POLYLINE
8
0
62
30
66
1
10
0
20
0
30
0
70
8
0
VERTEX
8
0
62
30
10
0
20
0.11485126
30
0
70
32
0
VERTEX
8
0
62
30
10
0
20
0.11485126
30
0
70
32
0
VERTEX
8
0
62
30
10
0
20
0.11485126
30
0
70
32
0
SEQEND
8
0
0
POLYLINE
8
0
62
30
66
1
10
0
20
0
30
0
70
8
0
VERTEX
8
0
62
30
10
0.070710678
20
0.11485126
30
0
70
32
0
VERTEX
8
0
62
30
10
0.070710678
20
0.11485126
30
0
70
32
0
VERTEX
8
0
62
30
10
0.070710678
20
0.11485126
30
0
70
32
0
SEQEND
8
0
0
POLYLINE
8
0
62
30
66
1
10
0
20
0
30
0
70
8
0
VERTEX
8
0
62
30
10
0.14142136
20
0.1033765
30
0
70
32
0
VERTEX
8
0
62
30
10
0.15118413
20
0.11485126
30
0
70
32
0
VERTEX
8
0
62
30
10
0.14142136
20
0.12632603
30
0
70
32
0
SEQEND
8
0
0
POLYLINE
8
0
62
30
66
1
10
0
20
0
30
0
70
8
0
VERTEX
8
0
62
30
10
0.21213203
20
0.1033765
30
0
70
32
0
VERTEX
8
0
62
30
10
0.22189481
20
0.11485126
30
0
70
32
0
VERTEX
8
0
62
30
10
0.21213203
20
0.12632603
30
0
70
32
0
SEQEND
8
0
0
POLYLINE
8
0
62
5
66
1
10
0
20
0
30
0
70
8
0
VERTEX
8
0
62
5
10
0.56568542
20
0.12870253
30
0
70
32
0
VERTEX
8
0
62
5
10
0.56568542
20
0.101
30
0
70
32
0
SEQEND
8
0
0
POLYLINE
8
0
62
5
66
1
10
0
20
0
30
0
70
8
0
VERTEX
8
0
62
5
10
0.28284271
20
0.11485126
30
0
70
32
0
VERTEX
8
0
62
5
10
0.35355339
20
0.11485126
30
0
70
32
0
VERTEX
8
0
62
5
10
0.42426407
20
0.1033765
30
0
70
32
0
VERTEX
8
0
62
5
10
0.49497475
20
0.1033765
30
0
70
32
0
VERTEX
8
0
62
5
10
0.56568542
20
0.11485126
30
0
70
32
0
SEQEND
8
0
0
POLYLINE
8
0
62
5
66
1
10
0
20
0
30
0
70
8
0
SEQEND
8
0
0
POLYLINE
8
0
62
5
66
1
10
0
20
0
30
0
70
8
0
VERTEX
8
0
62
5
10
0.28284271
20
0.11485126
30
0
70
32
0
VERTEX
8
0
62
5
10
0.35355339
20
0.11485126
30
0
70
32
0
VERTEX
8
0
62
5
10
0.42426407
20
0.12632603
30
0
70
32
0
VERTEX
8
0
62
5
10
0.49497475
20
0.12632603
30
0
70
32
0
VERTEX
8
0
62
5
10
0.56568542
20
0.11485126
30
0
70
32
0
SEQEND
8
0
0
POLYLINE
8
0
62
30
66
1
10
0
20
0
30
0
70
8
0
VERTEX
8
0
62
30
10
0.28284271
20
0.11485126
30
0
70
32
0
VERTEX
8
0
62
30
10
0.56568542
20
0.11485126
30
0
70
32
0
SEQEND
8
0
0
POLYLINE
8
0
62
30
66
1
10
0
20
0
30
0
70
8
0
VERTEX
8
0
62
30
10
0.35355339
20
0.11485126
30
0
70
32
0
VERTEX
8
0
62
30
10
0.35355339
20
0.11485126
30
0
70
32
0
SEQEND
8
0
0
POLYLINE
8
0
62
30
66
1
10
0
20
0
30
0
70
8
0
VERTEX
8
0
62
30
10
0.42426407
20
0.1033765
30
0
70
32
0
VERTEX
8
0
62
30
10
0.42426407
20
0.11485126
30
0
70
32
0
SEQEND
8
0
0
POLYLINE
8
0
62
30
66
1
10
0
20
0
30
0
70
8
0
VERTEX
8
0
62
30
10
0.49497475
20
0.1033765
30
0
70
32
0
VERTEX
8
0
62
30
10
0.49497475
20
0.11485126
30
0
70
32
0
SEQEND
8
0
0
POLYLINE
8
0
62
5
66
1
10
0
20
0
30
0
70
8
0
VERTEX
8
0
62
5
10
0.35355339
20
0.101
30
0
70
32
0
VERTEX
8
0
62
5
10
0.35355339
20
0.11485126
30
0
70
32
0
SEQEND
8
0
0
POLYLINE
8
0
62
5
66
1
10
0
20
0
30
0
70
8
0
VERTEX
8
0
62
5
10
0.42426407
20
0.101
30
0
70
32
0
VERTEX
8
0
62
5
10
0.42426407
20
0.1033765
30
0
70
32
0
SEQEND
8
0
0
POLYLINE
8
0
62
5
66
1
10
0
20
0
30
0
70
8
0
VERTEX
8
0
62
5
10
0.49497475
20
0.101
30
0
70
32
0
VERTEX
8
0
62
5
10
0.49497475
20
0.1033765
30
0
70
32
0
SEQEND
8
0
0
POLYLINE
8
0
62
5
66
1
10
0
20
0
30
0
70
8
0
VERTEX
8
0
62
5
10
0.35355339
20
0.11485126
30
0
70
32
0
VERTEX
8
0
62
5
10
0.35355339
20
0.12870253
30
0
70
32
0
SEQEND
8
0
0
POLYLINE
8
0
62
5
66
1
10
0
20
0
30
0
70
8
0
VERTEX
8
0
62
5
10
0.42426407
20
0.11485126
30
0
70
32
0
VERTEX
8
0
62
5
10
0.42426407
20
0.12870253
30
0
70
32
0
SEQEND
8
0
0
POLYLINE
8
0
62
5
66
1
10
0
20
0
30
0
70
8
0
VERTEX
8
0
62
5
10
0.49497475
20
0.11485126
30
0
70
32
0
VERTEX
8
0
62
5
10
0.49497475
20
0.12870253
30
0
70
32
0
SEQEND
8
0
0
POLYLINE
8
0
62
30
66
1
10
0
20
0
30
0
70
8
0
VERTEX
8
0
62
30
10
0.28284271
20
0.11485126
30
0
70
32
0
VERTEX
8
0
62
30
10
0.28284271
20
0.11485126
30
0
70
32
0
VERTEX
8
0
62
30
10
0.28284271
20
0.11485126
30
0
70
32
0
SEQEND
8
0
0
POLYLINE
8
0
62
30
66
1
10
0
20
0
30
0
70
8
0
VERTEX
8
0
62
30
10
0.35355339
20
0.11485126
30
0
70
32
0
VERTEX
8
0
62
30
10
0.35355339
20
0.11485126
30
0
70
32
0
VERTEX
8
0
62
30
10
0.35355339
20
0.11485126
30
0
70
32
0
SEQEND
8
0
0
POLYLINE
8
0
62
30
66
1
10
0
20
0
30
0
70
8
0
VERTEX
8
0
62
30
10
0.42426407
20
0.1033765
30
0
70
32
0
VERTEX
8
0
62
30
10
0.43402684
20
0.11485126
30
0
70
32
0
VERTEX
8
0
62
30
10
0.42426407
20
0.12632603
30
0
70
32
0
SEQEND
8
0
0
POLYLINE
8
0
62
30
66
1
10
0
20
0
30
0
70
8
0
VERTEX
8
0
62
30
10
0.49497475
20
0.1033765
30
0
70
32
0
VERTEX
8
0
62
30
10
0.50473752
20
0.11485126
30
0
70
32
0
VERTEX
8
0
62
30
10
0.49497475
20
0.12632603
30
0
70
32
0
SEQEND
8
0
0
POLYLINE
8
0
62
5
66
1
10
0
20
0
30
0
70
8
0
VERTEX
8
0
62
5
10
-0.28284271
20
0.101
30
0
70
32
0
VERTEX
8
0
62
5
10
-0.28284271
20
0.12870253
30
0
70
32
0
SEQEND
8
0
0
POLYLINE
8
0
62
5
66
1
10
0
20
0
30
0
70
8
0
VERTEX
8
0
62
5
10
-0.28284271
20
0.11485126
30
0
70
32
0
VERTEX
8
0
62
5
10
-0.21213203
20
0.11485126
30
0
70
32
0
VERTEX
8
0
62
5
10
-0.14142136
20
0.1033765
30
0
70
32
0
VERTEX
8
0
62
5
10
-0.070710678
20
0.1033765
30
0
70
32
0
VERTEX
8
0
62
5
10
0
20
0.11485126
30
0
70
32
0
SEQEND
8
0
0
POLYLINE
8
0
62
5
66
1
10
0
20
0
30
0
70
8
0
SEQEND
8
0
0
POLYLINE
8
0
62
5
66
1
10
0
20
0
30
0
70
8
0
VERTEX
8
0
62
5
10
-0.28284271
20
0.11485126
30
0
70
32
0
VERTEX
8
0
62
5
10
-0.21213203
20
0.11485126
30
0
70
32
0
VERTEX
8
0
62
5
10
-0.14142136
20
0.12632603
30
0
70
32
0
VERTEX
8
0
62
5
10
-0.070710678
20
0.12632603
30
0
70
32
0
VERTEX
8
0
62
5
10
0
20
0.11485126
30
0
70
32
0
SEQEND
8
0
0
POLYLINE
8
0
62
30
66
1
10
0
20
0
30
0
70
8
0
VERTEX
8
0
62
30
10
-0.28284271
20
0.11485126
30
0
70
32
0
VERTEX
8
0
62
30
10
0
20
0.11485126
30
0
70
32
0
SEQEND
8
0
0
POLYLINE
8
0
62
30
66
1
10
0
20
0
30
0
70
8
0
VERTEX
8
0
62
30
10
-0.21213203
20
0.11485126
30
0
70
32
0
VERTEX
8
0
62
30
10
-0.21213203
20
0.11485126
30
0
70
32
0
SEQEND
8
0
0
POLYLINE
8
0
62
30
66
1
10
0
20
0
30
0
70
8
0
VERTEX
8
0
62
30
10
-0.14142136
20
0.1033765
30
0
70
32
0
VERTEX
8
0
62
30
10
-0.14142136
20
0.11485126
30
0
70
32
0
SEQEND
8
0
0
POLYLINE
8
0
62
30
66
1
10
0
20
0
30
0
70
8
0
VERTEX
8
0
62
30
10
-0.070710678
20
0.1033765
30
0
70
32
0
VERTEX
8
0
62
30
10
-0.070710678
20
0.11485126
30
0
70
32
0
SEQEND
8
0
0
POLYLINE
8
0
62
5
66
1
10
0
20
0
30
0
70
8
0
VERTEX
8
0
62
5
10
-0.21213203
20
0.101
30
0
70
32
0
VERTEX
8
0
62
5
10
-0.21213203
20
0.11485126
30
0
70
32
0
SEQEND
8
0
0
POLYLINE
8
0
62
5
66
1
10
0
20
0
30
0
70
8
0
VERTEX
8
0
62
5
10
-0.14142136
20
0.101
30
0
70
32
0
VERTEX
8
0
62
5
10
-0.14142136
20
0.1033765
30
0
70
32
0
SEQEND
8
0
0
POLYLINE
8
0
62
5
66
1
10
0
20
0
30
0
70
8
0
VERTEX
8
0
62
5
10
-0.070710678
20
0.101
30
0
70
32
0
VERTEX
8
0
62
5
10
-0.070710678
20
0.1033765
30
0
70
32
0
SEQEND
8
0
0
POLYLINE
8
0
62
5
66
1
10
0
20
0
30
0
70
8
0
VERTEX
8
0
62
5
10
-0.21213203
20
0.11485126
30
0
70
32
0
VERTEX
8
0
62
5
10
-0.21213203
20
0.12870253
30
0
70
32
0
SEQEND
8
0
0
POLYLINE
8
0
62
5
66
1
10
0
20
0
30
0
70
8
0
VERTEX
8
0
62
5
10
-0.14142136
20
0.11485126
30
0
70
32
0
VERTEX
8
0
62
5
10
-0.14142136
20
0.12870253
30
0
70
32
0
SEQEND
8
0
0
POLYLINE
8
0
62
5
66
1
10
0
20
0
30
0
70
8
0
VERTEX
8
0
62
5
10
-0.070710678
20
0.11485126
30
0
70
32
0
VERTEX
8
0
62
5
10
-0.070710678
20
0.12870253
30
0
70
32
0
SEQEND
8
0
0
POLYLINE
8
0
62
30
66
1
10
0
20
0
30
0
70
8
0
VERTEX
8
0
62
30
10
-0.28284271
20
0.11485126
30
0
70
32
0
VERTEX
8
0
62
30
10
-0.28284271
20
0.11485126
30
0
70
32
0
VERTEX
8
0
62
30
10
-0.28284271
20
0.11485126
30
0
70
32
0
SEQEND
8
0
0
POLYLINE
8
0
62
30
66
1
10
0
20
0
30
0
70
8
0
VERTEX
8
0
62
30
10
-0.21213203
20
0.11485126
30
0
70
32
0
VERTEX
8
0
62
30
10
-0.21213203
20
0.11485126
30
0
70
32
0
VERTEX
8
0
62
30
10
-0.21213203
20
0.11485126
30
0
70
32
0
SEQEND
8
0
0
POLYLINE
8
0
62
30
66
1
10
0
20
0
30
0
70
8
0
VERTEX
8
0
62
30
10
-0.14142136
20
0.1033765
30
0
70
32
0
VERTEX
8
0
62
30
10
-0.13165858
20
0.11485126
30
0
70
32
0
VERTEX
8
0
62
30
10
-0.14142136
20
0.12632603
30
0
70
32
0
SEQEND
8
0
0
POLYLINE
8
0
62
30
66
1
10
0
20
0
30
0
70
8
0
VERTEX
8
0
62
30
10
-0.070710678
20
0.1033765
30
0
70
32
0
VERTEX
8
0
62
30
10
-0.060947906
20
0.11485126
30
0
70
32
0
VERTEX
8
0
62
30
10
-0.070710678
20
0.12632603
30
0
70
32
0
SEQEND
8
0
0
POLYLINE
8
0
62
5
66
1
10
0
20
0
30
0
70
8
0
VERTEX
8
0
62
5
10
0
20
0.12870253
30
0
70
32
0
VERTEX
8
0
62
5
10
0
20
0.16032531
30
0
70
32
0
SEQEND
8
0
0
POLYLINE
8
0
62
5
66
1
10
0
20
0
30
0
70
8
0
VERTEX
8
0
62
5
10
0.070710678
20
0.12870253
30
0
70
32
0
VERTEX
8
0
62
5
10
0.070710678
20
0.16032531
30
0
70
32
0
SEQEND
8
0
0
POLYLINE
8
0
62
5
66
1
10
0
20
0
30
0
70
8
0
VERTEX
8
0
62
5
10
0.14142136
20
0.12870253
30
0
70
32
0
VERTEX
8
0
62
5
10
0.14142136
20
0.16032531
30
0
70
32
0
SEQEND
8
0
0
POLYLINE
8
0
62
5
66
1
10
0
20
0
30
0
70
8
0
VERTEX
8
0
62
5
10
0.21213203
20
0.12870253
30
0
70
32
0
VERTEX
8
0
62
5
10
0.21213203
20
0.16032531
30
0
70
32
0
SEQEND
8
0
0
POLYLINE
8
0
62
5
66
1
10
0
20
0
30
0
70
8
0
VERTEX
8
0
62
5
10
0.28284271
20
0.12870253
30
0
70
32
0
VERTEX
8
0
62
5
10
0.28284271
20
0.16032531
30
0
70
32
0
SEQEND
8
0
0
POLYLINE
8
0
62
5
66
1
10
0
20
0
30
0
70
8
0
VERTEX
8
0
62
5
10
0.070710678
20
0.12870253
30
0
70
32
0
VERTEX
8
0
62
5
10
0.070710678
20
0.12870253
30
0
70
32
0
SEQEND
8
0
0
POLYLINE
8
0
62
5
66
1
10
0
20
0
30
0
70
8
0
VERTEX
8
0
62
5
10
0.14142136
20
0.12870253
30
0
70
32
0
VERTEX
8
0
62
5
10
0.14142136
20
0.12870253
30
0
70
32
0
SEQEND
8
0
0
POLYLINE
8
0
62
5
66
1
10
0
20
0
30
0
70
8
0
VERTEX
8
0
62
5
10
0.21213203
20
0.12870253
30
0
70
32
0
VERTEX
8
0
62
5
10
0.21213203
20
0.12870253
30
0
70
32
0
SEQEND
8
0
0
POLYLINE
8
0
62
5
66
1
10
0
20
0
30
0
70
8
0
VERTEX
8
0
62
5
10
0.070710678
20
0.16032531
30
0
70
32
0
VERTEX
8
0
62
5
10
0.070710678
20
0.16032531
30
0
70
32
0
SEQEND
8
0
0
POLYLINE
8
0
62
5
66
1
10
0
20
0
30
0
70
8
0
VERTEX
8
0
62
5
10
0.14142136
20
0.16032531
30
0
70
32
0
VERTEX
8
0
62
5
10
0.14142136
20
0.16032531
30
0
70
32
0
SEQEND
8
0
0
POLYLINE
8
0
62
5
66
1
10
0
20
0
30
0
70
8
0
VERTEX
8
0
62
5
10
0.21213203
20
0.16032531
30
0
70
32
0
VERTEX
8
0
62
5
10
0.21213203
20
0.16032531
30
0
70
32
0
SEQEND
8
0
0
POLYLINE
8
0
62
5
66
1
10
0
20
0
30
0
70
8
0
VERTEX
8
0
62
5
10
0.28284271
20
0.16032531
30
0
70
32
0
VERTEX
8
0
62
5
10
0.28284271
20
0.16032531
30
0
70
32
0
SEQEND
8
0
0
POLYLINE
8
0
62
5
66
1
10
0
20
0
30
0
70
8
0
VERTEX
8
0
62
5
10
0.35355339
20
0.12870253
30
0
70
32
0
VERTEX
8
0
62
5
10
0.35355339
20
0.16032531
30
0
70
32
0
SEQEND
8
0
0
POLYLINE
8
0
62
5
66
1
10
0
20
0
30
0
70
8
0
VERTEX
8
0
62
5
10
0.42426407
20
0.12870253
30
0
70
32
0
VERTEX
8
0
62
5
10
0.42426407
20
0.16032531
30
0
70
32
0
SEQEND
8
0
0
POLYLINE
8
0
62
5
66
1
10
0
20
0
30
0
70
8
0
VERTEX
8
0
62
5
10
0.49497475
20
0.12870253
30
0
70
32
0
VERTEX
8
0
62
5
10
0.49497475
20
0.16032531
30
0
70
32
0
SEQEND
8
0
0
POLYLINE
8
0
62
5
66
1
10
0
20
0
30
0
70
8
0
VERTEX
8
0
62
5
10
0.56568542
20
0.12870253
30
0
70
32
0
VERTEX
8
0
62
5
10
0.56568542
20
0.16032531
30
0
70
32
0
SEQEND
8
0
0
POLYLINE
8
0
62
5
66
1
10
0
20
0
30
0
70
8
0
VERTEX
8
0
62
5
10
0.35355339
20
0.12870253
30
0
70
32
0
VERTEX
8
0
62
5
10
0.35355339
20
0.12870253
30
0
70
32
0
SEQEND
8
0
0
POLYLINE
8
0
62
5
66
1
10
0
20
0
30
0
70
8
0
VERTEX
8
0
62
5
10
0.42426407
20
0.12870253
30
0
70
32
0
VERTEX
8
0
62
5
10
0.42426407
20
0.12870253
30
0
70
32
0
SEQEND
8
0
0
POLYLINE
8
0
62
5
66
1
10
0
20
0
30
0
70
8
0
VERTEX
8
0
62
5
10
0.49497475
20
0.12870253
30
0
70
32
0
VERTEX
8
0
62
5
10
0.49497475
20
0.12870253
30
0
70
32
0
SEQEND
8
0
0
POLYLINE
8
0
62
5
66
1
10
0
20
0
30
0
70
8
0
VERTEX
8
0
62
5
10
0.35355339
20
0.16032531
30
0
70
32
0
VERTEX
8
0
62
5
10
0.35355339
20
0.16032531
30
0
70
32
0
SEQEND
8
0
0
POLYLINE
8
0
62
5
66
1
10
0
20
0
30
0
70
8
0
VERTEX
8
0
62
5
10
0.42426407
20
0.16032531
30
0
70
32
0
VERTEX
8
0
62
5
10
0.42426407
20
0.16032531
30
0
70
32
0
SEQEND
8
0
0
POLYLINE
8
0
62
5
66
1
10
0
20
0
30
0
70
8
0
VERTEX
8
0
62
5
10
0.49497475
20
0.16032531
30
0
70
32
0
VERTEX
8
0
62
5
10
0.49497475
20
0.16032531
30
0
70
32
0
SEQEND
8
0
0
POLYLINE
8
0
62
5
66
1
10
0
20
0
30
0
70
8
0
VERTEX
8
0
62
5
10
0.56568542
20
0.16032531
30
0
70
32
0
VERTEX
8
0
62
5
10
0.56568542
20
0.16032531
30
0
70
32
0
SEQEND
8
0
0
POLYLINE
8
0
62
5
66
1
10
0
20
0
30
0
70
8
0
VERTEX
8
0
62
5
10
-0.21213203
20
0.12870253
30
0
70
32
0
VERTEX
8
0
62
5
10
-0.21213203
20
0.16032531
30
0
70
32
0
SEQEND
8
0
0
POLYLINE
8
0
62
5
66
1
10
0
20
0
30
0
70
8
0
VERTEX
8
0
62
5
10
-0.14142136
20
0.12870253
30
0
70
32
0
VERTEX
8
0
62
5
10
-0.14142136
20
0.16032531
30
0
70
32
0
SEQEND
8
0
0
POLYLINE
8
0
62
5
66
1
10
0
20
0
30
0
70
8
0
VERTEX
8
0
62
5
10
-0.070710678
20
0.12870253
30
0
70
32
0
VERTEX
8
0
62
5
10
-0.070710678
20
0.16032531
30
0
70
32
0
SEQEND
8
0
0
POLYLINE
8
0
62
5
66
1
10
0
20
0
30
0
70
8
0
VERTEX
8
0
62
5
10
0
20
0.12870253
30
0
70
32
0
VERTEX
8
0
62
5
10
0
20
0.16032531
30
0
70
32
0
SEQEND
8
0
0
POLYLINE
8
0
62
5
66
1
10
0
20
0
30
0
70
8
0
VERTEX
8
0
62
5
10
-0.21213203
20
0.12870253
30
0
70
32
0
VERTEX
8
0
62
5
10
-0.21213203
20
0.12870253
30
0
70
32
0
SEQEND
8
0
0
POLYLINE
8
0
62
5
66
1
10
0
20
0
30
0
70
8
0
VERTEX
8
0
62
5
10
-0.14142136
20
0.12870253
30
0
70
32
0
VERTEX
8
0
62
5
10
-0.14142136
20
0.12870253
30
0
70
32
0
SEQEND
8
0
0
POLYLINE
8
0
62
5
66
1
10
0
20
0
30
0
70
8
0
VERTEX
8
0
62
5
10
-0.070710678
20
0.12870253
30
0
70
32
0
VERTEX
8
0
62
5
10
-0.070710678
20
0.12870253
30
0
70
32
0
SEQEND
8
0
0
POLYLINE
8
0
62
5
66
1
10
0
20
0
30
0
70
8
0
VERTEX
8
0
62
5
10
-0.21213203
20
0.16032531
30
0
70
32
0
VERTEX
8
0
62
5
10
-0.21213203
20
0.16032531
30
0
70
32
0
SEQEND
8
0
0
POLYLINE
8
0
62
5
66
1
10
0
20
0
30
0
70
8
0
VERTEX
8
0
62
5
10
-0.14142136
20
0.16032531
30
0
70
32
0
VERTEX
8
0
62
5
10
-0.14142136
20
0.16032531
30
0
70
32
0
SEQEND
8
0
0
POLYLINE
8
0
62
5
66
1
10
0
20
0
30
0
70
8
0
VERTEX
8
0
62
5
10
-0.070710678
20
0.16032531
30
0
70
32
0
VERTEX
8
0
62
5
10
-0.070710678
20
0.16032531
30
0
70
32
0
SEQEND
8
0
0
POLYLINE
8
0
62
5
66
1
10
0
20
0
30
0
70
8
0
VERTEX
8
0
62
5
10
-9.1876506e-13
20
0.16032531
30
0
70
32
0
VERTEX
8
0
62
5
10
-9.1876506e-13
20
0.16032531
30
0
70
32
0
SEQEND
8
0
0
POLYLINE
8
0
62
5
66
1
10
0
20
0
30
0
70
8
0
VERTEX
8
0
62
5
10
-9.1875119e-13
20
0.16032531
30
0
70
32
0
VERTEX
8
0
62
5
10
-9.1875119e-13
20
0.28681641
30
0
70
32
0
SEQEND
8
0
0
POLYLINE
8
0
62
5
66
1
10
0
20
0
30
0
70
8
0
VERTEX
8
0
62
5
10
0.28284271
20
0.16032531
30
0
70
32
0
VERTEX
8
0
62
5
10
0.28284271
20
0.28681641
30
0
70
32
0
SEQEND
8
0
0
POLYLINE
8
0
62
5
66
1
10
0
20
0
30
0
70
8
0
VERTEX
8
0
62
5
10
0.070710678
20
0.16032531
30
0
70
32
0
VERTEX
8
0
62
5
10
0.070710678
20
0.28681641
30
0
70
32
0
SEQEND
8
0
0
POLYLINE
8
0
62
5
66
1
10
0
20
0
30
0
70
8
0
VERTEX
8
0
62
5
10
0.14142136
20
0.16032531
30
0
70
32
0
VERTEX
8
0
62
5
10
0.14142136
20
0.28681641
30
0
70
32
0
SEQEND
8
0
0
POLYLINE
8
0
62
5
66
1
10
0
20
0
30
0
70
8
0
VERTEX
8
0
62
5
10
0.21213203
20
0.16032531
30
0
70
32
0
VERTEX
8
0
62
5
10
0.21213203
20
0.28681641
30
0
70
32
0
SEQEND
8
0
0
POLYLINE
8
0
62
5
66
1
10
0
20
0
30
0
70
8
0
VERTEX
8
0
62
5
10
0.56568542
20
0.16032531
30
0
70
32
0
VERTEX
8
0
62
5
10
0.56568542
20
0.28681641
30
0
70
32
0
SEQEND
8
0
0
POLYLINE
8
0
62
5
66
1
10
0
20
0
30
0
70
8
0
VERTEX
8
0
62
5
10
0.35355339
20
0.16032531
30
0
70
32
0
VERTEX
8
0
62
5
10
0.35355339
20
0.28681641
30
0
70
32
0
SEQEND
8
0
0
POLYLINE
8
0
62
5
66
1
10
0
20
0
30
0
70
8
0
VERTEX
8
0
62
5
10
0.42426407
20
0.16032531
30
0
70
32
0
VERTEX
8
0
62
5
10
0.42426407
20
0.28681641
30
0
70
32
0
SEQEND
8
0
0
POLYLINE
8
0
62
5
66
1
10
0
20
0
30
0
70
8
0
VERTEX
8
0
62
5
10
0.49497475
20
0.16032531
30
0
70
32
0
VERTEX
8
0
62
5
10
0.49497475
20
0.28681641
30
0
70
32
0
SEQEND
8
0
0
POLYLINE
8
0
62
5
66
1
10
0
20
0
30
0
70
8
0
VERTEX
8
0
62
5
10
-0.28284271
20
0.16032531
30
0
70
32
0
VERTEX
8
0
62
5
10
-0.28284271
20
0.28681641
30
0
70
32
0
SEQEND
8
0
0
POLYLINE
8
0
62
5
66
1
10
0
20
0
30
0
70
8
0
VERTEX
8
0
62
5
10
-0.21213203
20
0.16032531
30
0
70
32
0
VERTEX
8
0
62
5
10
-0.21213203
20
0.28681641
30
0
70
32
0
SEQEND
8
0
0
POLYLINE
8
0
62
5
66
1
10
0
20
0
30
0
70
8
0
VERTEX
8
0
62
5
10
-0.14142136
20
0.16032531
30
0
70
32
0
VERTEX
8
0
62
5
10
-0.14142136
20
0.28681641
30
0
70
32
0
SEQEND
8
0
0
POLYLINE
8
0
62
5
66
1
10
0
20
0
30
0
70
8
0
VERTEX
8
0
62
5
10
-0.070710678
20
0.16032531
30
0
70
32
0
VERTEX
8
0
62
5
10
-0.070710678
20
0.28681641
30
0
70
32
0
SEQEND
8
0
0
POLYLINE
8
0
62
5
66
1
10
0
20
0
30
0
70
8
0
VERTEX
8
0
62
5
10
-9.1875119e-13
20
0.28681641
30
0
70
32
0
VERTEX
8
0
62
5
10
-9.1875119e-13
20
0.40985771
30
0
70
32
0
SEQEND
8
0
0
POLYLINE
8
0
62
5
66
1
10
0
20
0
30
0
70
8
0
VERTEX
8
0
62
5
10
0.28284271
20
0.40985771
30
0
70
32
0
VERTEX
8
0
62
5
10
0.28284271
20
0.28681641
30
0
70
32
0
SEQEND
8
0
0
POLYLINE
8
0
62
5
66
1
10
0
20
0
30
0
70
8
0
VERTEX
8
0
62
5
10
-9.1875119e-13
20
0.34833706
30
0
70
32
0
VERTEX
8
0
62
5
10
0.070710678
20
0.34833706
30
0
70
32
0
VERTEX
8
0
62
5
10
0.14142136
20
0.29737169
30
0
70
32
0
VERTEX
8
0
62
5
10
0.21213203
20
0.29737169
30
0
70
32
0
VERTEX
8
0
62
5
10
0.28284271
20
0.34833706
30
0
70
32
0
SEQEND
8
0
0
POLYLINE
8
0
62
5
66
1
10
0
20
0
30
0
70
8
0
SEQEND
8
0
0
POLYLINE
8
0
62
5
66
1
10
0
20
0
30
0
70
8
0
VERTEX
8
0
62
5
10
-9.1875119e-13
20
0.34833706
30
0
70
32
0
VERTEX
8
0
62
5
10
0.070710678
20
0.34833706
30
0
70
32
0
VERTEX
8
0
62
5
10
0.14142136
20
0.39930243
30
0
70
32
0
VERTEX
8
0
62
5
10
0.21213203
20
0.39930243
30
0
70
32
0
VERTEX
8
0
62
5
10
0.28284271
20
0.34833706
30
0
70
32
0
SEQEND
8
0
0
POLYLINE
8
0
62
30
66
1
10
0
20
0
30
0
70
8
0
VERTEX
8
0
62
30
10
-9.1875119e-13
20
0.34833706
30
0
70
32
0
VERTEX
8
0
62
30
10
0.28284271
20
0.34833706
30
0
70
32
0
SEQEND
8
0
0
POLYLINE
8
0
62
30
66
1
10
0
20
0
30
0
70
8
0
VERTEX
8
0
62
30
10
0.070710678
20
0.34833706
30
0
70
32
0
VERTEX
8
0
62
30
10
0.070710678
20
0.34833706
30
0
70
32
0
SEQEND
8
0
0
POLYLINE
8
0
62
30
66
1
10
0
20
0
30
0
70
8
0
VERTEX
8
0
62
30
10
0.14142136
20
0.29737169
30
0
70
32
0
VERTEX
8
0
62
30
10
0.14142136
20
0.34833706
30
0
70
32
0
SEQEND
8
0
0
POLYLINE
8
0
62
30
66
1
10
0
20
0
30
0
70
8
0
VERTEX
8
0
62
30
10
0.21213203
20
0.29737169
30
0
70
32
0
VERTEX
8
0
62
30
10
0.21213203
20
0.34833706
30
0
70
32
0
SEQEND
8
0
0
POLYLINE
8
0
62
5
66
1
10
0
20
0
30
0
70
8
0
VERTEX
8
0
62
5
10
0.070710678
20
0.28681641
30
0
70
32
0
VERTEX
8
0
62
5
10
0.070710678
20
0.34833706
30
0
70
32
0
SEQEND
8
0
0
POLYLINE
8
0
62
5
66
1
10
0
20
0
30
0
70
8
0
VERTEX
8
0
62
5
10
0.14142136
20
0.28681641
30
0
70
32
0
VERTEX
8
0
62
5
10
0.14142136
20
0.29737169
30
0
70
32
0
SEQEND
8
0
0
POLYLINE
8
0
62
5
66
1
10
0
20
0
30
0
70
8
0
VERTEX
8
0
62
5
10
0.21213203
20
0.28681641
30
0
70
32
0
VERTEX
8
0
62
5
10
0.21213203
20
0.29737169
30
0
70
32
0
SEQEND
8
0
0
POLYLINE
8
0
62
5
66
1
10
0
20
0
30
0
70
8
0
VERTEX
8
0
62
5
10
0.070710678
20
0.34833706
30
0
70
32
0
VERTEX
8
0
62
5
10
0.070710678
20
0.40985771
30
0
70
32
0
SEQEND
8
0
0
POLYLINE
8
0
62
5
66
1
10
0
20
0
30
0
70
8
0
VERTEX
8
0
62
5
10
0.14142136
20
0.34833706
30
0
70
32
0
VERTEX
8
0
62
5
10
0.14142136
20
0.40985771
30
0
70
32
0
SEQEND
8
0
0
POLYLINE
8
0
62
5
66
1
10
0
20
0
30
0
70
8
0
VERTEX
8
0
62
5
10
0.21213203
20
0.34833706
30
0
70
32
0
VERTEX
8
0
62
5
10
0.21213203
20
0.40985771
30
0
70
32
0
SEQEND
8
0
0
POLYLINE
8
0
62
30
66
1
10
0
20
0
30
0
70
8
0
VERTEX
8
0
62
30
10
-9.1875119e-13
20
0.34833706
30
0
70
32
0
VERTEX
8
0
62
30
10
2.1695765e-12
20
0.34833706
30
0
70
32
0
VERTEX
8
0
62
30
10
-9.1875119e-13
20
0.34833706
30
0
70
32
0
SEQEND
8
0
0
POLYLINE
8
0
62
30
66
1
10
0
20
0
30
0
70
8
0
VERTEX
8
0
62
30
10
0.070710678
20
0.34833706
30
0
70
32
0
VERTEX
8
0
62
30
10
0.070710678
20
0.34833706
30
0
70
32
0
VERTEX
8
0
62
30
10
0.070710678
20
0.34833706
30
0
70
32
0
SEQEND
8
0
0
POLYLINE
8
0
62
30
66
1
10
0
20
0
30
0
70
8
0
VERTEX
8
0
62
30
10
0.14142136
20
0.29737169
30
0
70
32
0
VERTEX
8
0
62
30
10
0.16751146
20
0.34833706
30
0
70
32
0
VERTEX
8
0
62
30
10
0.14142136
20
0.39930243
30
0
70
32
0
SEQEND
8
0
0
POLYLINE
8
0
62
30
66
1
10
0
20
0
30
0
70
8
0
VERTEX
8
0
62
30
10
0.21213203
20
0.29737169
30
0
70
32
0
VERTEX
8
0
62
30
10
0.23822214
20
0.34833706
30
0
70
32
0
VERTEX
8
0
62
30
10
0.21213203
20
0.39930243
30
0
70
32
0
SEQEND
8
0
0
POLYLINE
8
0
62
5
66
1
10
0
20
0
30
0
70
8
0
VERTEX
8
0
62
5
10
0.56568542
20
0.40985771
30
0
70
32
0
VERTEX
8
0
62
5
10
0.56568542
20
0.28681641
30
0
70
32
0
SEQEND
8
0
0
POLYLINE
8
0
62
5
66
1
10
0
20
0
30
0
70
8
0
VERTEX
8
0
62
5
10
0.28284271
20
0.34833706
30
0
70
32
0
VERTEX
8
0
62
5
10
0.35355339
20
0.34833706
30
0
70
32
0
VERTEX
8
0
62
5
10
0.42426407
20
0.29737169
30
0
70
32
0
VERTEX
8
0
62
5
10
0.49497475
20
0.29737169
30
0
70
32
0
VERTEX
8
0
62
5
10
0.56568542
20
0.34833706
30
0
70
32
0
SEQEND
8
0
0
POLYLINE
8
0
62
5
66
1
10
0
20
0
30
0
70
8
0
SEQEND
8
0
0
POLYLINE
8
0
62
5
66
1
10
0
20
0
30
0
70
8
0
VERTEX
8
0
62
5
10
0.28284271
20
0.34833706
30
0
70
32
0
VERTEX
8
0
62
5
10
0.35355339
20
0.34833706
30
0
70
32
0
VERTEX
8
0
62
5
10
0.42426407
20
0.39930243
30
0
70
32
0
VERTEX
8
0
62
5
10
0.49497475
20
0.39930243
30
0
70
32
0
VERTEX
8
0
62
5
10
0.56568542
20
0.34833706
30
0
70
32
0
SEQEND
8
0
0
POLYLINE
8
0
62
30
66
1
10
0
20
0
30
0
70
8
0
VERTEX
8
0
62
30
10
0.28284271
20
0.34833706
30
0
70
32
0
VERTEX
8
0
62
30
10
0.56568542
20
0.34833706
30
0
70
32
0
SEQEND
8
0
0
POLYLINE
8
0
62
30
66
1
10
0
20
0
30
0
70
8
0
VERTEX
8
0
62
30
10
0.35355339
20
0.34833706
30
0
70
32
0
VERTEX
8
0
62
30
10
0.35355339
20
0.34833706
30
0
70
32
0
SEQEND
8
0
0
POLYLINE
8
0
62
30
66
1
10
0
20
0
30
0
70
8
0
VERTEX
8
0
62
30
10
0.42426407
20
0.29737169
30
0
70
32
0
VERTEX
8
0
62
30
10
0.42426407
20
0.34833706
30
0
70
32
0
SEQEND
8
0
0
POLYLINE
8
0
62
30
66
1
10
0
20
0
30
0
70
8
0
VERTEX
8
0
62
30
10
0.49497475
20
0.29737169
30
0
70
32
0
VERTEX
8
0
62
30
10
0.49497475
20
0.34833706
30
0
70
32
0
SEQEND
8
0
0
POLYLINE
8
0
62
5
66
1
10
0
20
0
30
0
70
8
0
VERTEX
8
0
62
5
10
0.35355339
20
0.28681641
30
0
70
32
0
VERTEX
8
0
62
5
10
0.35355339
20
0.34833706
30
0
70
32
0
SEQEND
8
0
0
POLYLINE
8
0
62
5
66
1
10
0
20
0
30
0
70
8
0
VERTEX
8
0
62
5
10
0.42426407
20
0.28681641
30
0
70
32
0
VERTEX
8
0
62
5
10
0.42426407
20
0.29737169
30
0
70
32
0
SEQEND
8
0
0
POLYLINE
8
0
62
5
66
1
10
0
20
0
30
0
70
8
0
VERTEX
8
0
62
5
10
0.49497475
20
0.28681641
30
0
70
32
0
VERTEX
8
0
62
5
10
0.49497475
20
0.29737169
30
0
70
32
0
SEQEND
8
0
0
POLYLINE
8
0
62
5
66
1
10
0
20
0
30
0
70
8
0
VERTEX
8
0
62
5
10
0.35355339
20
0.34833706
30
0
70
32
0
VERTEX
8
0
62
5
10
0.35355339
20
0.40985771
30
0
70
32
0
SEQEND
8
0
0
POLYLINE
8
0
62
5
66
1
10
0
20
0
30
0
70
8
0
VERTEX
8
0
62
5
10
0.42426407
20
0.34833706
30
0
70
32
0
VERTEX
8
0
62
5
10
0.42426407
20
0.40985771
30
0
70
32
0
SEQEND
8
0
0
POLYLINE
8
0
62
5
66
1
10
0
20
0
30
0
70
8
0
VERTEX
8
0
62
5
10
0.49497475
20
0.34833706
30
0
70
32
0
VERTEX
8
0
62
5
10
0.49497475
20
0.40985771
30
0
70
32
0
SEQEND
8
0
0
POLYLINE
8
0
62
30
66
1
10
0
20
0
30
0
70
8
0
VERTEX
8
0
62
30
10
0.28284271
20
0.34833706
30
0
70
32
0
VERTEX
8
0
62
30
10
0.28284271
20
0.34833706
30
0
70
32
0
VERTEX
8
0
62
30
10
0.28284271
20
0.34833706
30
0
70
32
0
SEQEND
8
0
0
POLYLINE
8
0
62
30
66
1
10
0
20
0
30
0
70
8
0
VERTEX
8
0
62
30
10
0.35355339
20
0.34833706
30
0
70
32
0
VERTEX
8
0
62
30
10
0.35355339
20
0.34833706
30
0
70
32
0
VERTEX
8
0
62
30
10
0.35355339
20
0.34833706
30
0
70
32
0
SEQEND
8
0
0
POLYLINE
8
0
62
30
66
1
10
0
20
0
30
0
70
8
0
VERTEX
8
0
62
30
10
0.42426407
20
0.29737169
30
0
70
32
0
VERTEX
8
0
62
30
10
0.45035418
20
0.34833706
30
0
70
32
0
VERTEX
8
0
62
30
10
0.42426407
20
0.39930243
30
0
70
32
0
SEQEND
8
0
0
POLYLINE
8
0
62
30
66
1
10
0
20
0
30
0
70
8
0
VERTEX
8
0
62
30
10
0.49497475
20
0.29737169
30
0
70
32
0
VERTEX
8
0
62
30
10
0.52106485
20
0.34833706
30
0
70
32
0
VERTEX
8
0
62
30
10
0.49497475
20
0.39930243
30
0
70
32
0
SEQEND
8
0
0
POLYLINE
8
0
62
5
66
1
10
0
20
0
30
0
70
8
0
VERTEX
8
0
62
5
10
-0.28284271
20
0.28681641
30
0
70
32
0
VERTEX
8
0
62
5
10
-0.28284271
20
0.40985771
30
0
70
32
0
SEQEND
8
0
0
POLYLINE
8
0
62
5
66
1
10
0
20
0
30
0
70
8
0
VERTEX
8
0
62
5
10
-0.28284271
20
0.34833706
30
0
70
32
0
VERTEX
8
0
62
5
10
-0.21213203
20
0.34833706
30
0
70
32
0
VERTEX
8
0
62
5
10
-0.14142136
20
0.29737169
30
0
70
32
0
VERTEX
8
0
62
5
10
-0.070710678
20
0.29737169
30
0
70
32
0
VERTEX
8
0
62
5
10
-9.1876506e-13
20
0.34833706
30
0
70
32
0
SEQEND
8
0
0
POLYLINE
8
0
62
5
66
1
10
0
20
0
30
0
70
8
0
SEQEND
8
0
0
POLYLINE
8
0
62
5
66
1
10
0
20
0
30
0
70
8
0
VERTEX
8
0
62
5
10
-0.28284271
20
0.34833706
30
0
70
32
0
VERTEX
8
0
62
5
10
-0.21213203
20
0.34833706
30
0
70
32
0
VERTEX
8
0
62
5
10
-0.14142136
20
0.39930243
30
0
70
32
0
VERTEX
8
0
62
5
10
-0.070710678
20
0.39930243
30
0
70
32
0
VERTEX
8
0
62
5
10
-9.1876506e-13
20
0.34833706
30
0
70
32
0
SEQEND
8
0
0
POLYLINE
8
0
62
30
66
1
10
0
20
0
30
0
70
8
0
VERTEX
8
0
62
30
10
-0.28284271
20
0.34833706
30
0
70
32
0
VERTEX
8
0
62
30
10
-9.1876506e-13
20
0.34833706
30
0
70
32
0
SEQEND
8
0
0
POLYLINE
8
0
62
30
66
1
10
0
20
0
30
0
70
8
0
VERTEX
8
0
62
30
10
-0.21213203
20
0.34833706
30
0
70
32
0
VERTEX
8
0
62
30
10
-0.21213203
20
0.34833706
30
0
70
32
0
SEQEND
8
0
0
POLYLINE
8
0
62
30
66
1
10
0
20
0
30
0
70
8
0
VERTEX
8
0
62
30
10
-0.14142136
20
0.29737169
30
0
70
32
0
VERTEX
8
0
62
30
10
-0.14142136
20
0.34833706
30
0
70
32
0
SEQEND
8
0
0
POLYLINE
8
0
62
30
66
1
10
0
20
0
30
0
70
8
0
VERTEX
8
0
62
30
10
-0.070710678
20
0.29737169
30
0
70
32
0
VERTEX
8
0
62
30
10
-0.070710678
20
0.34833706
30
0
70
32
0
SEQEND
8
0
0
POLYLINE
8
0
62
5
66
1
10
0
20
0
30
0
70
8
0
VERTEX
8
0
62
5
10
-0.21213203
20
0.28681641
30
0
70
32
0
VERTEX
8
0
62
5
10
-0.21213203
20
0.34833706
30
0
70
32
0
SEQEND
8
0
0
POLYLINE
8
0
62
5
66
1
10
0
20
0
30
0
70
8
0
VERTEX
8
0
62
5
10
-0.14142136
20
0.28681641
30
0
70
32
0
VERTEX
8
0
62
5
10
-0.14142136
20
0.29737169
30
0
70
32
0
SEQEND
8
0
0
POLYLINE
8
0
62
5
66
1
10
0
20
0
30
0
70
8
0
VERTEX
8
0
62
5
10
-0.070710678
20
0.28681641
30
0
70
32
0
VERTEX
8
0
62
5
10
-0.070710678
20
0.29737169
30
0
70
32
0
SEQEND
8
0
0
POLYLINE
8
0
62
5
66
1
10
0
20
0
30
0
70
8
0
VERTEX
8
0
62
5
10
-0.21213203
20
0.34833706
30
0
70
32
0
VERTEX
8
0
62
5
10
-0.21213203
20
0.40985771
30
0
70
32
0
SEQEND
8
0
0
POLYLINE
8
0
62
5
66
1
10
0
20
0
30
0
70
8
0
VERTEX
8
0
62
5
10
-0.14142136
20
0.34833706
30
0
70
32
0
VERTEX
8
0
62
5
10
-0.14142136
20
0.40985771
30
0
70
32
0
SEQEND
8
0
0
POLYLINE
8
0
62
5
66
1
10
0
20
0
30
0
70
8
0
VERTEX
8
0
62
5
10
-0.070710678
20
0.34833706
30
0
70
32
0
VERTEX
8
0
62
5
10
-0.070710678
20
0.40985771
30
0
70
32
0
SEQEND
8
0
0
POLYLINE
8
0
62
30
66
1
10
0
20
0
30
0
70
8
0
VERTEX
8
0
62
30
10
-0.28284271
20
0.34833706
30
0
70
32
0
VERTEX
8
0
62
30
10
-0.28284271
20
0.34833706
30
0
70
32
0
VERTEX
8
0
62
30
10
-0.28284271
20
0.34833706
30
0
70
32
0
SEQEND
8
0
0
POLYLINE
8
0
62
30
66
1
10
0
20
0
30
0
70
8
0
VERTEX
8
0
62
30
10
-0.21213203
20
0.34833706
30
0
70
32
0
VERTEX
8
0
62
30
10
-0.21213203
20
0.34833706
30
0
70
32
0
VERTEX
8
0
62
30
10
-0.21213203
20
0.34833706
30
0
70
32
0
SEQEND
8
0
0
POLYLINE
8
0
62
30
66
1
10
0
20
0
30
0
70
8
0
VERTEX
8
0
62
30
10
-0.14142136
20
0.29737169
30
0
70
32
0
VERTEX
8
0
62
30
10
-0.11533125
20
0.34833706
30
0
70
32
0
VERTEX
8
0
62
30
10
-0.14142136
20
0.39930243
30
0
70
32
0
SEQEND
8
0
0
POLYLINE
8
0
62
30
66
1
10
0
20
0
30
0
70
8
0
VERTEX
8
0
62
30
10
-0.070710678
20
0.29737169
30
0
70
32
0
VERTEX
8
0
62
30
10
-0.044620571
20
0.34833706
30
0
70
32
0
VERTEX
8
0
62
30
10
-0.070710678
20
0.39930243
30
0
70
32
0
SEQEND
8
0
0
POLYLINE
8
0
62
5
66
1
10
0
20
0
30
0
70
8
0
VERTEX
8
0
62
5
10
-9.1875119e-13
20
0.40985771
30
0
70
32
0
VERTEX
8
0
62
5
10
-9.1875119e-13
20
0.41085771
30
0
70
32
0
SEQEND
8
0
0
POLYLINE
8
0
62
5
66
1
10
0
20
0
30
0
70
8
0
VERTEX
8
0
62
5
10
0.28284271
20
0.40985771
30
0
70
32
0
VERTEX
8
0
62
5
10
0.28284271
20
0.41085771
30
0
70
32
0
SEQEND
8
0
0
POLYLINE
8
0
62
5
66
1
10
0
20
0
30
0
70
8
0
VERTEX
8
0
62
5
10
0.070710678
20
0.40985771
30
0
70
32
0
VERTEX
8
0
62
5
10
0.070710678
20
0.41085771
30
0
70
32
0
SEQEND
8
0
0
POLYLINE
8
0
62
5
66
1
10
0
20
0
30
0
70
8
0
VERTEX
8
0
62
5
10
0.14142136
20
0.40985771
30
0
70
32
0
VERTEX
8
0
62
5
10
0.14142136
20
0.41085771
30
0
70
32
0
SEQEND
8
0
0
POLYLINE
8
0
62
5
66
1
10
0
20
0
30
0
70
8
0
VERTEX
8
0
62
5
10
0.21213203
20
0.40985771
30
0
70
32
0
VERTEX
8
0
62
5
10
0.21213203
20
0.41085771
30
0
70
32
0
SEQEND
8
0
0
POLYLINE
8
0
62
5
66
1
10
0
20
0
30
0
70
8
0
VERTEX
8
0
62
5
10
0.56568542
20
0.40985771
30
0
70
32
0
VERTEX
8
0
62
5
10
0.56568542
20
0.41085771
30
0
70
32
0
SEQEND
8
0
0
POLYLINE
8
0
62
5
66
1
10
0
20
0
30
0
70
8
0
VERTEX
8
0
62
5
10
0.35355339
20
0.40985771
30
0
70
32
0
VERTEX
8
0
62
5
10
0.35355339
20
0.41085771
30
0
70
32
0
SEQEND
8
0
0
POLYLINE
8
0
62
5
66
1
10
0
20
0
30
0
70
8
0
VERTEX
8
0
62
5
10
0.42426407
20
0.40985771
30
0
70
32
0
VERTEX
8
0
62
5
10
0.42426407
20
0.41085771
30
0
70
32
0
SEQEND
8
0
0
POLYLINE
8
0
62
5
66
1
10
0
20
0
30
0
70
8
0
VERTEX
8
0
62
5
10
0.49497475
20
0.40985771
30
0
70
32
0
VERTEX
8
0
62
5
10
0.49497475
20
0.41085771
30
0
70
32
0
SEQEND
8
0
0
POLYLINE
8
0
62
5
66
1
10
0
20
0
30
0
70
8
0
VERTEX
8
0
62
5
10
-0.28284271
20
0.40985771
30
0
70
32
0
VERTEX
8
0
62
5
10
-0.28284271
20
0.41085771
30
0
70
32
0
SEQEND
8
0
0
POLYLINE
8
0
62
5
66
1
10
0
20
0
30
0
70
8
0
VERTEX
8
0
62
5
10
-0.21213203
20
0.40985771
30
0
70
32
0
VERTEX
8
0
62
5
10
-0.21213203
20
0.41085771
30
0
70
32
0
SEQEND
8
0
0
POLYLINE
8
0
62
5
66
1
10
0
20
0
30
0
70
8
0
VERTEX
8
0
62
5
10
-0.14142136
20
0.40985771
30
0
70
32
0
VERTEX
8
0
62
5
10
-0.14142136
20
0.41085771
30
0
70
32
0
SEQEND
8
0
0
POLYLINE
8
0
62
5
66
1
10
0
20
0
30
0
70
8
0
VERTEX
8
0
62
5
10
-0.070710678
20
0.40985771
30
0
70
32
0
VERTEX
8
0
62
5
10
-0.070710678
20
0.41085771
30
0
70
32
0
SEQEND
8
0
0
POLYLINE
8
0
62
5
66
1
10
0
20
0
30
0
70
8
0
VERTEX
8
0
62
5
10
-9.1875119e-13
20
0.41085771
30
0
70
32
0
VERTEX
8
0
62
5
10
-9.1875119e-13
20
0.533899
30
0
70
32
0
SEQEND
8
0
0
POLYLINE
8
0
62
5
66
1
10
0
20
0
30
0
70
8
0
VERTEX
8
0
62
5
10
0.28284271
20
0.533899
30
0
70
32
0
VERTEX
8
0
62
5
10
0.28284271
20
0.41085771
30
0
70
32
0
SEQEND
8
0
0
POLYLINE
8
0
62
5
66
1
10
0
20
0
30
0
70
8
0
VERTEX
8
0
62
5
10
-9.1875119e-13
20
0.47237836
30
0
70
32
0
VERTEX
8
0
62
5
10
0.070710678
20
0.47237836
30
0
70
32
0
VERTEX
8
0
62
5
10
0.14142136
20
0.42141298
30
0
70
32
0
VERTEX
8
0
62
5
10
0.21213203
20
0.42141298
30
0
70
32
0
VERTEX
8
0
62
5
10
0.28284271
20
0.47237836
30
0
70
32
0
SEQEND
8
0
0
POLYLINE
8
0
62
5
66
1
10
0
20
0
30
0
70
8
0
SEQEND
8
0
0
POLYLINE
8
0
62
5
66
1
10
0
20
0
30
0
70
8
0
VERTEX
8
0
62
5
10
-9.1875119e-13
20
0.47237836
30
0
70
32
0
VERTEX
8
0
62
5
10
0.070710678
20
0.47237836
30
0
70
32
0
VERTEX
8
0
62
5
10
0.14142136
20
0.52334373
30
0
70
32
0
VERTEX
8
0
62
5
10
0.21213203
20
0.52334373
30
0
70
32
0
VERTEX
8
0
62
5
10
0.28284271
20
0.47237836
30
0
70
32
0
SEQEND
8
0
0
POLYLINE
8
0
62
30
66
1
10
0
20
0
30
0
70
8
0
VERTEX
8
0
62
30
10
-9.1875119e-13
20
0.47237836
30
0
70
32
0
VERTEX
8
0
62
30
10
0.28284271
20
0.47237836
30
0
70
32
0
SEQEND
8
0
0
POLYLINE
8
0
62
30
66
1
10
0
20
0
30
0
70
8
0
VERTEX
8
0
62
30
10
0.070710678
20
0.47237836
30
0
70
32
0
VERTEX
8
0
62
30
10
0.070710678
20
0.47237836
30
0
70
32
0
SEQEND
8
0
0
POLYLINE
8
0
62
30
66
1
10
0
20
0
30
0
70
8
0
VERTEX
8
0
62
30
10
0.14142136
20
0.42141298
30
0
70
32
0
VERTEX
8
0
62
30
10
0.14142136
20
0.47237836
30
0
70
32
0
SEQEND
8
0
0
POLYLINE
8
0
62
30
66
1
10
0
20
0
30
0
70
8
0
VERTEX
8
0
62
30
10
0.21213203
20
0.42141298
30
0
70
32
0
VERTEX
8
0
62
30
10
0.21213203
20
0.47237836
30
0
70
32
0
SEQEND
8
0
0
POLYLINE
8
0
62
5
66
1
10
0
20
0
30
0
70
8
0
VERTEX
8
0
62
5
10
0.070710678
20
0.41085771
30
0
70
32
0
VERTEX
8
0
62
5
10
0.070710678
20
0.47237836
30
0
70
32
0
SEQEND
8
0
0
POLYLINE
8
0
62
5
66
1
10
0
20
0
30
0
70
8
0
VERTEX
8
0
62
5
10
0.14142136
20
0.41085771
30
0
70
32
0
VERTEX
8
0
62
5
10
0.14142136
20
0.42141298
30
0
70
32
0
SEQEND
8
0
0
POLYLINE
8
0
62
5
66
1
10
0
20
0
30
0
70
8
0
VERTEX
8
0
62
5
10
0.21213203
20
0.41085771
30
0
70
32
0
VERTEX
8
0
62
5
10
0.21213203
20
0.42141298
30
0
70
32
0
SEQEND
8
0
0
POLYLINE
8
0
62
5
66
1
10
0
20
0
30
0
70
8
0
VERTEX
8
0
62
5
10
0.070710678
20
0.47237836
30
0
70
32
0
VERTEX
8
0
62
5
10
0.070710678
20
0.533899
30
0
70
32
0
SEQEND
8
0
0
POLYLINE
8
0
62
5
66
1
10
0
20
0
30
0
70
8
0
VERTEX
8
0
62
5
10
0.14142136
20
0.47237836
30
0
70
32
0
VERTEX
8
0
62
5
10
0.14142136
20
0.533899
30
0
70
32
0
SEQEND
8
0
0
POLYLINE
8
0
62
5
66
1
10
0
20
0
30
0
70
8
0
VERTEX
8
0
62
5
10
0.21213203
20
0.47237836
30
0
70
32
0
VERTEX
8
0
62
5
10
0.21213203
20
0.533899
30
0
70
32
0
SEQEND
8
0
0
POLYLINE
8
0
62
30
66
1
10
0
20
0
30
0
70
8
0
VERTEX
8
0
62
30
10
-9.1875119e-13
20
0.47237836
30
0
70
32
0
VERTEX
8
0
62
30
10
-9.1875119e-13
20
0.47237836
30
0
70
32
0
VERTEX
8
0
62
30
10
-9.1875119e-13
20
0.47237836
30
0
70
32
0
SEQEND
8
0
0
POLYLINE
8
0
62
30
66
1
10
0
20
0
30
0
70
8
0
VERTEX
8
0
62
30
10
0.070710678
20
0.47237836
30
0
70
32
0
VERTEX
8
0
62
30
10
0.070710678
20
0.47237836
30
0
70
32
0
VERTEX
8
0
62
30
10
0.070710678
20
0.47237836
30
0
70
32
0
SEQEND
8
0
0
POLYLINE
8
0
62
30
66
1
10
0
20
0
30
0
70
8
0
VERTEX
8
0
62
30
10
0.14142136
20
0.42141298
30
0
70
32
0
VERTEX
8
0
62
30
10
0.16751146
20
0.47237836
30
0
70
32
0
VERTEX
8
0
62
30
10
0.14142136
20
0.52334373
30
0
70
32
0
SEQEND
8
0
0
POLYLINE
8
0
62
30
66
1
10
0
20
0
30
0
70
8
0
VERTEX
8
0
62
30
10
0.21213203
20
0.42141298
30
0
70
32
0
VERTEX
8
0
62
30
10
0.23822214
20
0.47237836
30
0
70
32
0
VERTEX
8
0
62
30
10
0.21213203
20
0.52334373
30
0
70
32
0
SEQEND
8
0
0
POLYLINE
8
0
62
5
66
1
10
0
20
0
30
0
70
8
0
VERTEX
8
0
62
5
10
0.56568542
20
0.533899
30
0
70
32
0
VERTEX
8
0
62
5
10
0.56568542
20
0.41085771
30
0
70
32
0
SEQEND
8
0
0
POLYLINE
8
0
62
5
66
1
10
0
20
0
30
0
70
8
0
VERTEX
8
0
62
5
10
0.28284271
20
0.47237836
30
0
70
32
0
VERTEX
8
0
62
5
10
0.35355339
20
0.47237836
30
0
70
32
0
VERTEX
8
0
62
5
10
0.42426407
20
0.42141298
30
0
70
32
0
VERTEX
8
0
62
5
10
0.49497475
20
0.42141298
30
0
70
32
0
VERTEX
8
0
62
5
10
0.56568542
20
0.47237836
30
0
70
32
0
SEQEND
8
0
0
POLYLINE
8
0
62
5
66
1
10
0
20
0
30
0
70
8
0
SEQEND
8
0
0
POLYLINE
8
0
62
5
66
1
10
0
20
0
30
0
70
8
0
VERTEX
8
0
62
5
10
0.28284271
20
0.47237836
30
0
70
32
0
VERTEX
8
0
62
5
10
0.35355339
20
0.47237836
30
0
70
32
0
VERTEX
8
0
62
5
10
0.42426407
20
0.52334373
30
0
70
32
0
VERTEX
8
0
62
5
10
0.49497475
20
0.52334373
30
0
70
32
0
VERTEX
8
0
62
5
10
0.56568542
20
0.47237836
30
0
70
32
0
SEQEND
8
0
0
POLYLINE
8
0
62
30
66
1
10
0
20
0
30
0
70
8
0
VERTEX
8
0
62
30
10
0.28284271
20
0.47237836
30
0
70
32
0
VERTEX
8
0
62
30
10
0.56568542
20
0.47237836
30
0
70
32
0
SEQEND
8
0
0
POLYLINE
8
0
62
30
66
1
10
0
20
0
30
0
70
8
0
VERTEX
8
0
62
30
10
0.35355339
20
0.47237836
30
0
70
32
0
VERTEX
8
0
62
30
10
0.35355339
20
0.47237836
30
0
70
32
0
SEQEND
8
0
0
POLYLINE
8
0
62
30
66
1
10
0
20
0
30
0
70
8
0
VERTEX
8
0
62
30
10
0.42426407
20
0.42141298
30
0
70
32
0
VERTEX
8
0
62
30
10
0.42426407
20
0.47237836
30
0
70
32
0
SEQEND
8
0
0
POLYLINE
8
0
62
30
66
1
10
0
20
0
30
0
70
8
0
VERTEX
8
0
62
30
10
0.49497475
20
0.42141298
30
0
70
32
0
VERTEX
8
0
62
30
10
0.49497475
20
0.47237836
30
0
70
32
0
SEQEND
8
0
0
POLYLINE
8
0
62
5
66
1
10
0
20
0
30
0
70
8
0
VERTEX
8
0
62
5
10
0.35355339
20
0.41085771
30
0
70
32
0
VERTEX
8
0
62
5
10
0.35355339
20
0.47237836
30
0
70
32
0
SEQEND
8
0
0
POLYLINE
8
0
62
5
66
1
10
0
20
0
30
0
70
8
0
VERTEX
8
0
62
5
10
0.42426407
20
0.41085771
30
0
70
32
0
VERTEX
8
0
62
5
10
0.42426407
20
0.42141298
30
0
70
32
0
SEQEND
8
0
0
POLYLINE
8
0
62
5
66
1
10
0
20
0
30
0
70
8
0
VERTEX
8
0
62
5
10
0.49497475
20
0.41085771
30
0
70
32
0
VERTEX
8
0
62
5
10
0.49497475
20
0.42141298
30
0
70
32
0
SEQEND
8
0
0
POLYLINE
8
0
62
5
66
1
10
0
20
0
30
0
70
8
0
VERTEX
8
0
62
5
10
0.35355339
20
0.47237836
30
0
70
32
0
VERTEX
8
0
62
5
10
0.35355339
20
0.533899
30
0
70
32
0
SEQEND
8
0
0
POLYLINE
8
0
62
5
66
1
10
0
20
0
30
0
70
8
0
VERTEX
8
0
62
5
10
0.42426407
20
0.47237836
30
0
70
32
0
VERTEX
8
0
62
5
10
0.42426407
20
0.533899
30
0
70
32
0
SEQEND
8
0
0
POLYLINE
8
0
62
5
66
1
10
0
20
0
30
0
70
8
0
VERTEX
8
0
62
5
10
0.49497475
20
0.47237836
30
0
70
32
0
VERTEX
8
0
62
5
10
0.49497475
20
0.533899
30
0
70
32
0
SEQEND
8
0
0
POLYLINE
8
0
62
30
66
1
10
0
20
0
30
0
70
8
0
VERTEX
8
0
62
30
10
0.28284271
20
0.47237836
30
0
70
32
0
VERTEX
8
0
62
30
10
0.28284271
20
0.47237836
30
0
70
32
0
VERTEX
8
0
62
30
10
0.28284271
20
0.47237836
30
0
70
32
0
SEQEND
8
0
0
POLYLINE
8
0
62
30
66
1
10
0
20
0
30
0
70
8
0
VERTEX
8
0
62
30
10
0.35355339
20
0.47237836
30
0
70
32
0
VERTEX
8
0
62
30
10
0.35355339
20
0.47237836
30
0
70
32
0
VERTEX
8
0
62
30
10
0.35355339
20
0.47237836
30
0
70
32
0
SEQEND
8
0
0
POLYLINE
8
0
62
30
66
1
10
0
20
0
30
0
70
8
0
VERTEX
8
0
62
30
10
0.42426407
20
0.42141298
30
0
70
32
0
VERTEX
8
0
62
30
10
0.45035418
20
0.47237836
30
0
70
32
0
VERTEX
8
0
62
30
10
0.42426407
20
0.52334373
30
0
70
32
0
SEQEND
8
0
0
POLYLINE
8
0
62
30
66
1
10
0
20
0
30
0
70
8
0
VERTEX
8
0
62
30
10
0.49497475
20
0.42141298
30
0
70
32
0
VERTEX
8
0
62
30
10
0.52106485
20
0.47237836
30
0
70
32
0
VERTEX
8
0
62
30
10
0.49497475
20
0.52334373
30
0
70
32
0
SEQEND
8
0
0
POLYLINE
8
0
62
5
66
1
10
0
20
0
30
0
70
8
0
VERTEX
8
0
62
5
10
-0.28284271
20
0.41085771
30
0
70
32
0
VERTEX
8
0
62
5
10
-0.28284271
20
0.533899
30
0
70
32
0
SEQEND
8
0
0
POLYLINE
8
0
62
5
66
1
10
0
20
0
30
0
70
8
0
VERTEX
8
0
62
5
10
-0.28284271
20
0.47237836
30
0
70
32
0
VERTEX
8
0
62
5
10
-0.21213203
20
0.47237836
30
0
70
32
0
VERTEX
8
0
62
5
10
-0.14142136
20
0.42141298
30
0
70
32
0
VERTEX
8
0
62
5
10
-0.070710678
20
0.42141298
30
0
70
32
0
VERTEX
8
0
62
5
10
-9.1876506e-13
20
0.47237836
30
0
70
32
0
SEQEND
8
0
0
POLYLINE
8
0
62
5
66
1
10
0
20
0
30
0
70
8
0
SEQEND
8
0
0
POLYLINE
8
0
62
5
66
1
10
0
20
0
30
0
70
8
0
VERTEX
8
0
62
5
10
-0.28284271
20
0.47237836
30
0
70
32
0
VERTEX
8
0
62
5
10
-0.21213203
20
0.47237836
30
0
70
32
0
VERTEX
8
0
62
5
10
-0.14142136
20
0.52334373
30
0
70
32
0
VERTEX
8
0
62
5
10
-0.070710678
20
0.52334373
30
0
70
32
0
VERTEX
8
0
62
5
10
-9.1876506e-13
20
0.47237836
30
0
70
32
0
SEQEND
8
0
0
POLYLINE
8
0
62
30
66
1
10
0
20
0
30
0
70
8
0
VERTEX
8
0
62
30
10
-0.28284271
20
0.47237836
30
0
70
32
0
VERTEX
8
0
62
30
10
-9.1876506e-13
20
0.47237836
30
0
70
32
0
SEQEND
8
0
0
POLYLINE
8
0
62
30
66
1
10
0
20
0
30
0
70
8
0
VERTEX
8
0
62
30
10
-0.21213203
20
0.47237836
30
0
70
32
0
VERTEX
8
0
62
30
10
-0.21213203
20
0.47237836
30
0
70
32
0
SEQEND
8
0
0
POLYLINE
8
0
62
30
66
1
10
0
20
0
30
0
70
8
0
VERTEX
8
0
62
30
10
-0.14142136
20
0.42141298
30
0
70
32
0
VERTEX
8
0
62
30
10
-0.14142136
20
0.47237836
30
0
70
32
0
SEQEND
8
0
0
POLYLINE
8
0
62
30
66
1
10
0
20
0
30
0
70
8
0
VERTEX
8
0
62
30
10
-0.070710678
20
0.42141298
30
0
70
32
0
VERTEX
8
0
62
30
10
-0.070710678
20
0.47237836
30
0
70
32
0
SEQEND
8
0
0
POLYLINE
8
0
62
5
66
1
10
0
20
0
30
0
70
8
0
VERTEX
8
0
62
5
10
-0.21213203
20
0.41085771
30
0
70
32
0
VERTEX
8
0
62
5
10
-0.21213203
20
0.47237836
30
0
70
32
0
SEQEND
8
0
0
POLYLINE
8
0
62
5
66
1
10
0
20
0
30
0
70
8
0
VERTEX
8
0
62
5
10
-0.14142136
20
0.41085771
30
0
70
32
0
VERTEX
8
0
62
5
10
-0.14142136
20
0.42141298
30
0
70
32
0
SEQEND
8
0
0
POLYLINE
8
0
62
5
66
1
10
0
20
0
30
0
70
8
0
VERTEX
8
0
62
5
10
-0.070710678
20
0.41085771
30
0
70
32
0
VERTEX
8
0
62
5
10
-0.070710678
20
0.42141298
30
0
70
32
0
SEQEND
8
0
0
POLYLINE
8
0
62
5
66
1
10
0
20
0
30
0
70
8
0
VERTEX
8
0
62
5
10
-0.21213203
20
0.47237836
30
0
70
32
0
VERTEX
8
0
62
5
10
-0.21213203
20
0.533899
30
0
70
32
0
SEQEND
8
0
0
POLYLINE
8
0
62
5
66
1
10
0
20
0
30
0
70
8
0
VERTEX
8
0
62
5
10
-0.14142136
20
0.47237836
30
0
70
32
0
VERTEX
8
0
62
5
10
-0.14142136
20
0.533899
30
0
70
32
0
SEQEND
8
0
0
POLYLINE
8
0
62
5
66
1
10
0
20
0
30
0
70
8
0
VERTEX
8
0
62
5
10
-0.070710678
20
0.47237836
30
0
70
32
0
VERTEX
8
0
62
5
10
-0.070710678
20
0.533899
30
0
70
32
0
SEQEND
8
0
0
POLYLINE
8
0
62
30
66
1
10
0
20
0
30
0
70
8
0
VERTEX
8
0
62
30
10
-0.28284271
20
0.47237836
30
0
70
32
0
VERTEX
8
0
62
30
10
-0.28284271
20
0.47237836
30
0
70
32
0
VERTEX
8
0
62
30
10
-0.28284271
20
0.47237836
30
0
70
32
0
SEQEND
8
0
0
POLYLINE
8
0
62
30
66
1
10
0
20
0
30
0
70
8
0
VERTEX
8
0
62
30
10
-0.21213203
20
0.47237836
30
0
70
32
0
VERTEX
8
0
62
30
10
-0.21213203
20
0.47237836
30
0
70
32
0
VERTEX
8
0
62
30
10
-0.21213203
20
0.47237836
30
0
70
32
0
SEQEND
8
0
0
POLYLINE
8
0
62
30
66
1
10
0
20
0
30
0
70
8
0
VERTEX
8
0
62
30
10
-0.14142136
20
0.42141298
30
0
70
32
0
VERTEX
8
0
62
30
10
-0.11533125
20
0.47237836
30
0
70
32
0
VERTEX
8
0
62
30
10
-0.14142136
20
0.52334373
30
0
70
32
0
SEQEND
8
0
0
POLYLINE
8
0
62
30
66
1
10
0
20
0
30
0
70
8
0
VERTEX
8
0
62
30
10
-0.070710678
20
0.42141298
30
0
70
32
0
VERTEX
8
0
62
30
10
-0.044620571
20
0.47237836
30
0
70
32
0
VERTEX
8
0
62
30
10
-0.070710678
20
0.52334373
30
0
70
32
0
SEQEND
8
0
0
POLYLINE
8
0
62
5
66
1
10
0
20
0
30
0
70
8
0
VERTEX
8
0
62
5
10
-9.1875119e-13
20
0.533899
30
0
70
32
0
VERTEX
8
0
62
5
10
-9.1875119e-13
20
0.56552178
30
0
70
32
0
SEQEND
8
0
0
POLYLINE
8
0
62
5
66
1
10
0
20
0
30
0
70
8
0
VERTEX
8
0
62
5
10
0.070710678
20
0.533899
30
0
70
32
0
VERTEX
8
0
62
5
10
0.070710678
20
0.56552178
30
0
70
32
0
SEQEND
8
0
0
POLYLINE
8
0
62
5
66
1
10
0
20
0
30
0
70
8
0
VERTEX
8
0
62
5
10
0.14142136
20
0.533899
30
0
70
32
0
VERTEX
8
0
62
5
10
0.14142136
20
0.56552178
30
0
70
32
0
SEQEND
8
0
0
POLYLINE
8
0
62
5
66
1
10
0
20
0
30
0
70
8
0
VERTEX
8
0
62
5
10
0.21213203
20
0.533899
30
0
70
32
0
VERTEX
8
0
62
5
10
0.21213203
20
0.56552178
30
0
70
32
0
SEQEND
8
0
0
POLYLINE
8
0
62
5
66
1
10
0
20
0
30
0
70
8
0
VERTEX
8
0
62
5
10
0.28284271
20
0.533899
30
0
70
32
0
VERTEX
8
0
62
5
10
0.28284271
20
0.56552178
30
0
70
32
0
SEQEND
8
0
0
POLYLINE
8
0
62
5
66
1
10
0
20
0
30
0
70
8
0
VERTEX
8
0
62
5
10
0.070710678
20
0.533899
30
0
70
32
0
VERTEX
8
0
62
5
10
0.070710678
20
0.533899
30
0
70
32
0
SEQEND
8
0
0
POLYLINE
8
0
62
5
66
1
10
0
20
0
30
0
70
8
0
VERTEX
8
0
62
5
10
0.14142136
20
0.533899
30
0
70
32
0
VERTEX
8
0
62
5
10
0.14142136
20
0.533899
30
0
70
32
0
SEQEND
8
0
0
POLYLINE
8
0
62
5
66
1
10
0
20
0
30
0
70
8
0
VERTEX
8
0
62
5
10
0.21213203
20
0.533899
30
0
70
32
0
VERTEX
8
0
62
5
10
0.21213203
20
0.533899
30
0
70
32
0
SEQEND
8
0
0
POLYLINE
8
0
62
5
66
1
10
0
20
0
30
0
70
8
0
VERTEX
8
0
62
5
10
0.070710678
20
0.56552178
30
0
70
32
0
VERTEX
8
0
62
5
10
0.070710678
20
0.56552178
30
0
70
32
0
SEQEND
8
0
0
POLYLINE
8
0
62
5
66
1
10
0
20
0
30
0
70
8
0
VERTEX
8
0
62
5
10
0.14142136
20
0.56552178
30
0
70
32
0
VERTEX
8
0
62
5
10
0.14142136
20
0.56552178
30
0
70
32
0
SEQEND
8
0
0
POLYLINE
8
0
62
5
66
1
10
0
20
0
30
0
70
8
0
VERTEX
8
0
62
5
10
0.21213203
20
0.56552178
30
0
70
32
0
VERTEX
8
0
62
5
10
0.21213203
20
0.56552178
30
0
70
32
0
SEQEND
8
0
0
POLYLINE
8
0
62
5
66
1
10
0
20
0
30
0
70
8
0
VERTEX
8
0
62
5
10
0.28284271
20
0.56552178
30
0
70
32
0
VERTEX
8
0
62
5
10
0.28284271
20
0.56552178
30
0
70
32
0
SEQEND
8
0
0
POLYLINE
8
0
62
5
66
1
10
0
20
0
30
0
70
8
0
VERTEX
8
0
62
5
10
0.35355339
20
0.533899
30
0
70
32
0
VERTEX
8
0
62
5
10
0.35355339
20
0.56552178
30
0
70
32
0
SEQEND
8
0
0
POLYLINE
8
0
62
5
66
1
10
0
20
0
30
0
70
8
0
VERTEX
8
0
62
5
10
0.42426407
20
0.533899
30
0
70
32
0
VERTEX
8
0
62
5
10
0.42426407
20
0.56552178
30
0
70
32
0
SEQEND
8
0
0
POLYLINE
8
0
62
5
66
1
10
0
20
0
30
0
70
8
0
VERTEX
8
0
62
5
10
0.49497475
20
0.533899
30
0
70
32
0
VERTEX
8
0
62
5
10
0.49497475
20
0.56552178
30
0
70
32
0
SEQEND
8
0
0
POLYLINE
8
0
62
5
66
1
10
0
20
0
30
0
70
8
0
VERTEX
8
0
62
5
10
0.56568542
20
0.533899
30
0
70
32
0
VERTEX
8
0
62
5
10
0.56568542
20
0.56552178
30
0
70
32
0
SEQEND
8
0
0
POLYLINE
8
0
62
5
66
1
10
0
20
0
30
0
70
8
0
VERTEX
8
0
62
5
10
0.35355339
20
0.533899
30
0
70
32
0
VERTEX
8
0
62
5
10
0.35355339
20
0.533899
30
0
70
32
0
SEQEND
8
0
0
POLYLINE
8
0
62
5
66
1
10
0
20
0
30
0
70
8
0
VERTEX
8
0
62
5
10
0.42426407
20
0.533899
30
0
70
32
0
VERTEX
8
0
62
5
10
0.42426407
20
0.533899
30
0
70
32
0
SEQEND
8
0
0
POLYLINE
8
0
62
5
66
1
10
0
20
0
30
0
70
8
0
VERTEX
8
0
62
5
10
0.49497475
20
0.533899
30
0
70
32
0
VERTEX
8
0
62
5
10
0.49497475
20
0.533899
30
0
70
32
0
SEQEND
8
0
0
POLYLINE
8
0
62
5
66
1
10
0
20
0
30
0
70
8
0
VERTEX
8
0
62
5
10
0.35355339
20
0.56552178
30
0
70
32
0
VERTEX
8
0
62
5
10
0.35355339
20
0.56552178
30
0
70
32
0
SEQEND
8
0
0
POLYLINE
8
0
62
5
66
1
10
0
20
0
30
0
70
8
0
VERTEX
8
0
62
5
10
0.42426407
20
0.56552178
30
0
70
32
0
VERTEX
8
0
62
5
10
0.42426407
20
0.56552178
30
0
70
32
0
SEQEND
8
0
0
POLYLINE
8
0
62
5
66
1
10
0
20
0
30
0
70
8
0
VERTEX
8
0
62
5
10
0.49497475
20
0.56552178
30
0
70
32
0
VERTEX
8
0
62
5
10
0.49497475
20
0.56552178
30
0
70
32
0
SEQEND
8
0
0
POLYLINE
8
0
62
5
66
1
10
0
20
0
30
0
70
8
0
VERTEX
8
0
62
5
10
0.56568542
20
0.56552178
30
0
70
32
0
VERTEX
8
0
62
5
10
0.56568542
20
0.56552178
30
0
70
32
0
SEQEND
8
0
0
POLYLINE
8
0
62
5
66
1
10
0
20
0
30
0
70
8
0
VERTEX
8
0
62
5
10
-0.21213203
20
0.533899
30
0
70
32
0
VERTEX
8
0
62
5
10
-0.21213203
20
0.56552178
30
0
70
32
0
SEQEND
8
0
0
POLYLINE
8
0
62
5
66
1
10
0
20
0
30
0
70
8
0
VERTEX
8
0
62
5
10
-0.14142136
20
0.533899
30
0
70
32
0
VERTEX
8
0
62
5
10
-0.14142136
20
0.56552178
30
0
70
32
0
SEQEND
8
0
0
POLYLINE
8
0
62
5
66
1
10
0
20
0
30
0
70
8
0
VERTEX
8
0
62
5
10
-0.070710678
20
0.533899
30
0
70
32
0
VERTEX
8
0
62
5
10
-0.070710678
20
0.56552178
30
0
70
32
0
SEQEND
8
0
0
POLYLINE
8
0
62
5
66
1
10
0
20
0
30
0
70
8
0
VERTEX
8
0
62
5
10
-9.1876506e-13
20
0.533899
30
0
70
32
0
VERTEX
8
0
62
5
10
-9.1876506e-13
20
0.56552178
30
0
70
32
0
SEQEND
8
0
0
POLYLINE
8
0
62
5
66
1
10
0
20
0
30
0
70
8
0
VERTEX
8
0
62
5
10
-0.21213203
20
0.533899
30
0
70
32
0
VERTEX
8
0
62
5
10
-0.21213203
20
0.533899
30
0
70
32
0
SEQEND
8
0
0
POLYLINE
8
0
62
5
66
1
10
0
20
0
30
0
70
8
0
VERTEX
8
0
62
5
10
-0.14142136
20
0.533899
30
0
70
32
0
VERTEX
8
0
62
5
10
-0.14142136
20
0.533899
30
0
70
32
0
SEQEND
8
0
0
POLYLINE
8
0
62
5
66
1
10
0
20
0
30
0
70
8
0
VERTEX
8
0
62
5
10
-0.070710678
20
0.533899
30
0
70
32
0
VERTEX
8
0
62
5
10
-0.070710678
20
0.533899
30
0
70
32
0
SEQEND
8
0
0
POLYLINE
8
0
62
5
66
1
10
0
20
0
30
0
70
8
0
VERTEX
8
0
62
5
10
-0.21213203
20
0.56552178
30
0
70
32
0
VERTEX
8
0
62
5
10
-0.21213203
20
0.56552178
30
0
70
32
0
SEQEND
8
0
0
POLYLINE
8
0
62
5
66
1
10
0
20
0
30
0
70
8
0
VERTEX
8
0
62
5
10
-0.14142136
20
0.56552178
30
0
70
32
0
VERTEX
8
0
62
5
10
-0.14142136
20
0.56552178
30
0
70
32
0
SEQEND
8
0
0
POLYLINE
8
0
62
5
66
1
10
0
20
0
30
0
70
8
0
VERTEX
8
0
62
5
10
-0.070710678
20
0.56552178
30
0
70
32
0
VERTEX
8
0
62
5
10
-0.070710678
20
0.56552178
30
0
70
32
0
SEQEND
8
0
0
POLYLINE
8
0
62
5
66
1
10
0
20
0
30
0
70
8
0
VERTEX
8
0
62
5
10
-2.6015634e-11
20
0.56552178
30
0
70
32
0
VERTEX
8
0
62
5
10
-2.6015634e-11
20
0.56552178
30
0
70
32
0
SEQEND
8
0
0
POLYLINE
8
0
62
5
66
1
10
0
20
0
30
0
70
8
0
VERTEX
8
0
62
5
10
-2.6015592e-11
20
0.56552178
30
0
70
32
0
VERTEX
8
0
62
5
10
-2.6015592e-11
20
0.69201289
30
0
70
32
0
SEQEND
8
0
0
POLYLINE
8
0
62
5
66
1
10
0
20
0
30
0
70
8
0
VERTEX
8
0
62
5
10
0.28284271
20
0.56552178
30
0
70
32
0
VERTEX
8
0
62
5
10
0.28284271
20
0.69201289
30
0
70
32
0
SEQEND
8
0
0
POLYLINE
8
0
62
5
66
1
10
0
20
0
30
0
70
8
0
VERTEX
8
0
62
5
10
0.070710678
20
0.56552178
30
0
70
32
0
VERTEX
8
0
62
5
10
0.070710678
20
0.69201289
30
0
70
32
0
SEQEND
8
0
0
POLYLINE
8
0
62
5
66
1
10
0
20
0
30
0
70
8
0
VERTEX
8
0
62
5
10
0.14142136
20
0.56552178
30
0
70
32
0
VERTEX
8
0
62
5
10
0.14142136
20
0.69201289
30
0
70
32
0
SEQEND
8
0
0
POLYLINE
8
0
62
5
66
1
10
0
20
0
30
0
70
8
0
VERTEX
8
0
62
5
10
0.21213203
20
0.56552178
30
0
70
32
0
VERTEX
8
0
62
5
10
0.21213203
20
0.69201289
30
0
70
32
0
SEQEND
8
0
0
POLYLINE
8
0
62
5
66
1
10
0
20
0
30
0
70
8
0
VERTEX
8
0
62
5
10
0.56568542
20
0.56552178
30
0
70
32
0
VERTEX
8
0
62
5
10
0.56568542
20
0.69201289
30
0
70
32
0
SEQEND
8
0
0
POLYLINE
8
0
62
5
66
1
10
0
20
0
30
0
70
8
0
VERTEX
8
0
62
5
10
0.35355339
20
0.56552178
30
0
70
32
0
VERTEX
8
0
62
5
10
0.35355339
20
0.69201289
30
0
70
32
0
SEQEND
8
0
0
POLYLINE
8
0
62
5
66
1
10
0
20
0
30
0
70
8
0
VERTEX
8
0
62
5
10
0.42426407
20
0.56552178
30
0
70
32
0
VERTEX
8
0
62
5
10
0.42426407
20
0.69201289
30
0
70
32
0
SEQEND
8
0
0
POLYLINE
8
0
62
5
66
1
10
0
20
0
30
0
70
8
0
VERTEX
8
0
62
5
10
0.49497475
20
0.56552178
30
0
70
32
0
VERTEX
8
0
62
5
10
0.49497475
20
0.69201289
30
0
70
32
0
SEQEND
8
0
0
POLYLINE
8
0
62
5
66
1
10
0
20
0
30
0
70
8
0
VERTEX
8
0
62
5
10
-0.28284271
20
0.56552178
30
0
70
32
0
VERTEX
8
0
62
5
10
-0.28284271
20
0.69201289
30
0
70
32
0
SEQEND
8
0
0
POLYLINE
8
0
62
5
66
1
10
0
20
0
30
0
70
8
0
VERTEX
8
0
62
5
10
-0.21213203
20
0.56552178
30
0
70
32
0
VERTEX
8
0
62
5
10
-0.21213203
20
0.69201289
30
0
70
32
0
SEQEND
8
0
0
POLYLINE
8
0
62
5
66
1
10
0
20
0
30
0
70
8
0
VERTEX
8
0
62
5
10
-0.14142136
20
0.56552178
30
0
70
32
0
VERTEX
8
0
62
5
10
-0.14142136
20
0.69201289
30
0
70
32
0
SEQEND
8
0
0
POLYLINE
8
0
62
5
66
1
10
0
20
0
30
0
70
8
0
VERTEX
8
0
62
5
10
-0.070710678
20
0.56552178
30
0
70
32
0
VERTEX
8
0
62
5
10
-0.070710678
20
0.69201289
30
0
70
32
0
SEQEND
8
0
0
POLYLINE
8
0
62
5
66
1
10
0
20
0
30
0
70
8
0
VERTEX
8
0
62
5
10
-2.6015592e-11
20
0.69201289
30
0
70
32
0
VERTEX
8
0
62
5
10
-2.6015592e-11
20
0.71971542
30
0
70
32
0
SEQEND
8
0
0
POLYLINE
8
0
62
5
66
1
10
0
20
0
30
0
70
8
0
VERTEX
8
0
62
5
10
0.28284271
20
0.71971542
30
0
70
32
0
VERTEX
8
0
62
5
10
0.28284271
20
0.69201289
30
0
70
32
0
SEQEND
8
0
0
POLYLINE
8
0
62
5
66
1
10
0
20
0
30
0
70
8
0
VERTEX
8
0
62
5
10
-2.6015592e-11
20
0.70586415
30
0
70
32
0
VERTEX
8
0
62
5
10
0.070710678
20
0.70586415
30
0
70
32
0
VERTEX
8
0
62
5
10
0.14142136
20
0.69438939
30
0
70
32
0
VERTEX
8
0
62
5
10
0.21213203
20
0.69438939
30
0
70
32
0
VERTEX
8
0
62
5
10
0.28284271
20
0.70586415
30
0
70
32
0
SEQEND
8
0
0
POLYLINE
8
0
62
5
66
1
10
0
20
0
30
0
70
8
0
SEQEND
8
0
0
POLYLINE
8
0
62
5
66
1
10
0
20
0
30
0
70
8
0
VERTEX
8
0
62
5
10
-2.6015592e-11
20
0.70586415
30
0
70
32
0
VERTEX
8
0
62
5
10
0.070710678
20
0.70586415
30
0
70
32
0
VERTEX
8
0
62
5
10
0.14142136
20
0.71733891
30
0
70
32
0
VERTEX
8
0
62
5
10
0.21213203
20
0.71733891
30
0
70
32
0
VERTEX
8
0
62
5
10
0.28284271
20
0.70586415
30
0
70
32
0
SEQEND
8
0
0
POLYLINE
8
0
62
30
66
1
10
0
20
0
30
0
70
8
0
VERTEX
8
0
62
30
10
-2.6015592e-11
20
0.70586415
30
0
70
32
0
VERTEX
8
0
62
30
10
0.28284271
20
0.70586415
30
0
70
32
0
SEQEND
8
0
0
POLYLINE
8
0
62
30
66
1
10
0
20
0
30
0
70
8
0
VERTEX
8
0
62
30
10
0.070710678
20
0.70586415
30
0
70
32
0
VERTEX
8
0
62
30
10
0.070710678
20
0.70586415
30
0
70
32
0
SEQEND
8
0
0
POLYLINE
8
0
62
30
66
1
10
0
20
0
30
0
70
8
0
VERTEX
8
0
62
30
10
0.14142136
20
0.69438939
30
0
70
32
0
VERTEX
8
0
62
30
10
0.14142136
20
0.70586415
30
0
70
32
0
SEQEND
8
0
0
POLYLINE
8
0
62
30
66
1
10
0
20
0
30
0
70
8
0
VERTEX
8
0
62
30
10
0.21213203
20
0.69438939
30
0
70
32
0
VERTEX
8
0
62
30
10
0.21213203
20
0.70586415
30
0
70
32
0
SEQEND
8
0
0
POLYLINE
8
0
62
5
66
1
10
0
20
0
30
0
70
8
0
VERTEX
8
0
62
5
10
0.070710678
20
0.69201289
30
0
70
32
0
VERTEX
8
0
62
5
10
0.070710678
20
0.70586415
30
0
70
32
0
SEQEND
8
0
0
POLYLINE
8
0
62
5
66
1
10
0
20
0
30
0
70
8
0
VERTEX
8
0
62
5
10
0.14142136
20
0.69201289
30
0
70
32
0
VERTEX
8
0
62
5
10
0.14142136
20
0.69438939
30
0
70
32
0
SEQEND
8
0
0
POLYLINE
8
0
62
5
66
1
10
0
20
0
30
0
70
8
0
VERTEX
8
0
62
5
10
0.21213203
20
0.69201289
30
0
70
32
0
VERTEX
8
0
62
5
10
0.21213203
20
0.69438939
30
0
70
32
0
SEQEND
8
0
0
POLYLINE
8
0
62
5
66
1
10
0
20
0
30
0
70
8
0
VERTEX
8
0
62
5
10
0.070710678
20
0.70586415
30
0
70
32
0
VERTEX
8
0
62
5
10
0.070710678
20
0.71971542
30
0
70
32
0
SEQEND
8
0
0
POLYLINE
8
0
62
5
66
1
10
0
20
0
30
0
70
8
0
VERTEX
8
0
62
5
10
0.14142136
20
0.70586415
30
0
70
32
0
VERTEX
8
0
62
5
10
0.14142136
20
0.71971542
30
0
70
32
0
SEQEND
8
0
0
POLYLINE
8
0
62
5
66
1
10
0
20
0
30
0
70
8
0
VERTEX
8
0
62
5
10
0.21213203
20
0.70586415
30
0
70
32
0
VERTEX
8
0
62
5
10
0.21213203
20
0.71971542
30
0
70
32
0
SEQEND
8
0
0
POLYLINE
8
0
62
30
66
1
10
0
20
0
30
0
70
8
0
VERTEX
8
0
62
30
10
-2.6015592e-11
20
0.70586415
30
0
70
32
0
VERTEX
8
0
62
30
10
8.2690516e-12
20
0.70586415
30
0
70
32
0
VERTEX
8
0
62
30
10
-2.6015592e-11
20
0.70586415
30
0
70
32
0
SEQEND
8
0
0
POLYLINE
8
0
62
30
66
1
10
0
20
0
30
0
70
8
0
VERTEX
8
0
62
30
10
0.070710678
20
0.70586415
30
0
70
32
0
VERTEX
8
0
62
30
10
0.070710678
20
0.70586415
30
0
70
32
0
VERTEX
8
0
62
30
10
0.070710678
20
0.70586415
30
0
70
32
0
SEQEND
8
0
0
POLYLINE
8
0
62
30
66
1
10
0
20
0
30
0
70
8
0
VERTEX
8
0
62
30
10
0.14142136
20
0.69438939
30
0
70
32
0
VERTEX
8
0
62
30
10
0.15118413
20
0.70586415
30
0
70
32
0
VERTEX
8
0
62
30
10
0.14142136
20
0.71733891
30
0
70
32
0
SEQEND
8
0
0
POLYLINE
8
0
62
30
66
1
10
0
20
0
30
0
70
8
0
VERTEX
8
0
62
30
10
0.21213203
20
0.69438939
30
0
70
32
0
VERTEX
8
0
62
30
10
0.22189481
20
0.70586415
30
0
70
32
0
VERTEX
8
0
62
30
10
0.21213203
20
0.71733891
30
0
70
32
0
SEQEND
8
0
0
POLYLINE
8
0
62
5
66
1
10
0
20
0
30
0
70
8
0
VERTEX
8
0
62
5
10
0.56568542
20
0.71971542
30
0
70
32
0
VERTEX
8
0
62
5
10
0.56568542
20
0.69201289
30
0
70
32
0
SEQEND
8
0
0
POLYLINE
8
0
62
5
66
1
10
0
20
0
30
0
70
8
0
VERTEX
8
0
62
5
10
0.28284271
20
0.70586415
30
0
70
32
0
VERTEX
8
0
62
5
10
0.35355339
20
0.70586415
30
0
70
32
0
VERTEX
8
0
62
5
10
0.42426407
20
0.69438939
30
0
70
32
0
VERTEX
8
0
62
5
10
0.49497475
20
0.69438939
30
0
70
32
0
VERTEX
8
0
62
5
10
0.56568542
20
0.70586415
30
0
70
32
0
SEQEND
8
0
0
POLYLINE
8
0
62
5
66
1
10
0
20
0
30
0
70
8
0
SEQEND
8
0
0
POLYLINE
8
0
62
5
66
1
10
0
20
0
30
0
70
8
0
VERTEX
8
0
62
5
10
0.28284271
20
0.70586415
30
0
70
32
0
VERTEX
8
0
62
5
10
0.35355339
20
0.70586415
30
0
70
32
0
VERTEX
8
0
62
5
10
0.42426407
20
0.71733891
30
0
70
32
0
VERTEX
8
0
62
5
10
0.49497475
20
0.71733891
30
0
70
32
0
VERTEX
8
0
62
5
10
0.56568542
20
0.70586415
30
0
70
32
0
SEQEND
8
0
0
POLYLINE
8
0
62
30
66
1
10
0
20
0
30
0
70
8
0
VERTEX
8
0
62
30
10
0.28284271
20
0.70586415
30
0
70
32
0
VERTEX
8
0
62
30
10
0.56568542
20
0.70586415
30
0
70
32
0
SEQEND
8
0
0
POLYLINE
8
0
62
30
66
1
10
0
20
0
30
0
70
8
0
VERTEX
8
0
62
30
10
0.35355339
20
0.70586415
30
0
70
32
0
VERTEX
8
0
62
30
10
0.35355339
20
0.70586415
30
0
70
32
0
SEQEND
8
0
0
POLYLINE
8
0
62
30
66
1
10
0
20
0
30
0
70
8
0
VERTEX
8
0
62
30
10
0.42426407
20
0.69438939
30
0
70
32
0
VERTEX
8
0
62
30
10
0.42426407
20
0.70586415
30
0
70
32
0
SEQEND
8
0
0
POLYLINE
8
0
62
30
66
1
10
0
20
0
30
0
70
8
0
VERTEX
8
0
62
30
10
0.49497475
20
0.69438939
30
0
70
32
0
VERTEX
8
0
62
30
10
0.49497475
20
0.70586415
30
0
70
32
0
SEQEND
8
0
0
POLYLINE
8
0
62
5
66
1
10
0
20
0
30
0
70
8
0
VERTEX
8
0
62
5
10
0.35355339
20
0.69201289
30
0
70
32
0
VERTEX
8
0
62
5
10
0.35355339
20
0.70586415
30
0
70
32
0
SEQEND
8
0
0
POLYLINE
8
0
62
5
66
1
10
0
20
0
30
0
70
8
0
VERTEX
8
0
62
5
10
0.42426407
20
0.69201289
30
0
70
32
0
VERTEX
8
0
62
5
10
0.42426407
20
0.69438939
30
0
70
32
0
SEQEND
8
0
0
POLYLINE
8
0
62
5
66
1
10
0
20
0
30
0
70
8
0
VERTEX
8
0
62
5
10
0.49497475
20
0.69201289
30
0
70
32
0
VERTEX
8
0
62
5
10
0.49497475
20
0.69438939
30
0
70
32
0
SEQEND
8
0
0
POLYLINE
8
0
62
5
66
1
10
0
20
0
30
0
70
8
0
VERTEX
8
0
62
5
10
0.35355339
20
0.70586415
30
0
70
32
0
VERTEX
8
0
62
5
10
0.35355339
20
0.71971542
30
0
70
32
0
SEQEND
8
0
0
POLYLINE
8
0
62
5
66
1
10
0
20
0
30
0
70
8
0
VERTEX
8
0
62
5
10
0.42426407
20
0.70586415
30
0
70
32
0
VERTEX
8
0
62
5
10
0.42426407
20
0.71971542
30
0
70
32
0
SEQEND
8
0
0
POLYLINE
8
0
62
5
66
1
10
0
20
0
30
0
70
8
0
VERTEX
8
0
62
5
10
0.49497475
20
0.70586415
30
0
70
32
0
VERTEX
8
0
62
5
10
0.49497475
20
0.71971542
30
0
70
32
0
SEQEND
8
0
0
POLYLINE
8
0
62
30
66
1
10
0
20
0
30
0
70
8
0
VERTEX
8
0
62
30
10
0.28284271
20
0.70586415
30
0
70
32
0
VERTEX
8
0
62
30
10
0.28284271
20
0.70586415
30
0
70
32
0
VERTEX
8
0
62
30
10
0.28284271
20
0.70586415
30
0
70
32
0
SEQEND
8
0
0
POLYLINE
8
0
62
30
66
1
10
0
20
0
30
0
70
8
0
VERTEX
8
0
62
30
10
0.35355339
20
0.70586415
30
0
70
32
0
VERTEX
8
0
62
30
10
0.35355339
20
0.70586415
30
0
70
32
0
VERTEX
8
0
62
30
10
0.35355339
20
0.70586415
30
0
70
32
0
SEQEND
8
0
0
POLYLINE
8
0
62
30
66
1
10
0
20
0
30
0
70
8
0
VERTEX
8
0
62
30
10
0.42426407
20
0.69438939
30
0
70
32
0
VERTEX
8
0
62
30
10
0.43402684
20
0.70586415
30
0
70
32
0
VERTEX
8
0
62
30
10
0.42426407
20
0.71733891
30
0
70
32
0
SEQEND
8
0
0
POLYLINE
8
0
62
30
66
1
10
0
20
0
30
0
70
8
0
VERTEX
8
0
62
30
10
0.49497475
20
0.69438939
30
0
70
32
0
VERTEX
8
0
62
30
10
0.50473752
20
0.70586415
30
0
70
32
0
VERTEX
8
0
62
30
10
0.49497475
20
0.71733891
30
0
70
32
0
SEQEND
8
0
0
POLYLINE
8
0
62
5
66
1
10
0
20
0
30
0
70
8
0
VERTEX
8
0
62
5
10
-0.28284271
20
0.69201289
30
0
70
32
0
VERTEX
8
0
62
5
10
-0.28284271
20
0.71971542
30
0
70
32
0
SEQEND
8
0
0
POLYLINE
8
0
62
5
66
1
10
0
20
0
30
0
70
8
0
VERTEX
8
0
62
5
10
-0.28284271
20
0.70586415
30
0
70
32
0
VERTEX
8
0
62
5
10
-0.21213203
20
0.70586415
30
0
70
32
0
VERTEX
8
0
62
5
10
-0.14142136
20
0.69438939
30
0
70
32
0
VERTEX
8
0
62
5
10
-0.070710678
20
0.69438939
30
0
70
32
0
VERTEX
8
0
62
5
10
-2.6015579e-11
20
0.70586415
30
0
70
32
0
SEQEND
8
0
0
POLYLINE
8
0
62
5
66
1
10
0
20
0
30
0
70
8
0
SEQEND
8
0
0
POLYLINE
8
0
62
5
66
1
10
0
20
0
30
0
70
8
0
VERTEX
8
0
62
5
10
-0.28284271
20
0.70586415
30
0
70
32
0
VERTEX
8
0
62
5
10
-0.21213203
20
0.70586415
30
0
70
32
0
VERTEX
8
0
62
5
10
-0.14142136
20
0.71733891
30
0
70
32
0
VERTEX
8
0
62
5
10
-0.070710678
20
0.71733891
30
0
70
32
0
VERTEX
8
0
62
5
10
-2.6015579e-11
20
0.70586415
30
0
70
32
0
SEQEND
8
0
0
POLYLINE
8
0
62
30
66
1
10
0
20
0
30
0
70
8
0
VERTEX
8
0
62
30
10
-0.28284271
20
0.70586415
30
0
70
32
0
VERTEX
8
0
62
30
10
-2.6015579e-11
20
0.70586415
30
0
70
32
0
SEQEND
8
0
0
POLYLINE
8
0
62
30
66
1
10
0
20
0
30
0
70
8
0
VERTEX
8
0
62
30
10
-0.21213203
20
0.70586415
30
0
70
32
0
VERTEX
8
0
62
30
10
-0.21213203
20
0.70586415
30
0
70
32
0
SEQEND
8
0
0
POLYLINE
8
0
62
30
66
1
10
0
20
0
30
0
70
8
0
VERTEX
8
0
62
30
10
-0.14142136
20
0.69438939
30
0
70
32
0
VERTEX
8
0
62
30
10
-0.14142136
20
0.70586415
30
0
70
32
0
SEQEND
8
0
0
POLYLINE
8
0
62
30
66
1
10
0
20
0
30
0
70
8
0
VERTEX
8
0
62
30
10
-0.070710678
20
0.69438939
30
0
70
32
0
VERTEX
8
0
62
30
10
-0.070710678
20
0.70586415
30
0
70
32
0
SEQEND
8
0
0
POLYLINE
8
0
62
5
66
1
10
0
20
0
30
0
70
8
0
VERTEX
8
0
62
5
10
-0.21213203
20
0.69201289
30
0
70
32
0
VERTEX
8
0
62
5
10
-0.21213203
20
0.70586415
30
0
70
32
0
SEQEND
8
0
0
POLYLINE
8
0
62
5
66
1
10
0
20
0
30
0
70
8
0
VERTEX
8
0
62
5
10
-0.14142136
20
0.69201289
30
0
70
32
0
VERTEX
8
0
62
5
10
-0.14142136
20
0.69438939
30
0
70
32
0
SEQEND
8
0
0
POLYLINE
8
0
62
5
66
1
10
0
20
0
30
0
70
8
0
VERTEX
8
0
62
5
10
-0.070710678
20
0.69201289
30
0
70
32
0
VERTEX
8
0
62
5
10
-0.070710678
20
0.69438939
30
0
70
32
0
SEQEND
8
0
0
POLYLINE
8
0
62
5
66
1
10
0
20
0
30
0
70
8
0
VERTEX
8
0
62
5
10
-0.21213203
20
0.70586415
30
0
70
32
0
VERTEX
8
0
62
5
10
-0.21213203
20
0.71971542
30
0
70
32
0
SEQEND
8
0
0
POLYLINE
8
0
62
5
66
1
10
0
20
0
30
0
70
8
0
VERTEX
8
0
62
5
10
-0.14142136
20
0.70586415
30
0
70
32
0
VERTEX
8
0
62
5
10
-0.14142136
20
0.71971542
30
0
70
32
0
SEQEND
8
0
0
POLYLINE
8
0
62
5
66
1
10
0
20
0
30
0
70
8
0
VERTEX
8
0
62
5
10
-0.070710678
20
0.70586415
30
0
70
32
0
VERTEX
8
0
62
5
10
-0.070710678
20
0.71971542
30
0
70
32
0
SEQEND
8
0
0
POLYLINE
8
0
62
30
66
1
10
0
20
0
30
0
70
8
0
VERTEX
8
0
62
30
10
-0.28284271
20
0.70586415
30
0
70
32
0
VERTEX
8
0
62
30
10
-0.28284271
20
0.70586415
30
0
70
32
0
VERTEX
8
0
62
30
10
-0.28284271
20
0.70586415
30
0
70
32
0
SEQEND
8
0
0
POLYLINE
8
0
62
30
66
1
10
0
20
0
30
0
70
8
0
VERTEX
8
0
62
30
10
-0.21213203
20
0.70586415
30
0
70
32
0
VERTEX
8
0
62
30
10
-0.21213203
20
0.70586415
30
0
70
32
0
VERTEX
8
0
62
30
10
-0.21213203
20
0.70586415
30
0
70
32
0
SEQEND
8
0
0
POLYLINE
8
0
62
30
66
1
10
0
20
0
30
0
70
8
0
VERTEX
8
0
62
30
10
-0.14142136
20
0.69438939
30
0
70
32
0
VERTEX
8
0
62
30
10
-0.13165858
20
0.70586415
30
0
70
32
0
VERTEX
8
0
62
30
10
-0.14142136
20
0.71733891
30
0
70
32
0
SEQEND
8
0
0
POLYLINE
8
0
62
30
66
1
10
0
20
0
30
0
70
8
0
VERTEX
8
0
62
30
10
-0.070710678
20
0.69438939
30
0
70
32
0
VERTEX
8
0
62
30
10
-0.060947906
20
0.70586415
30
0
70
32
0
VERTEX
8
0
62
30
10
-0.070710678
20
0.71733891
30
0
70
32
0
SEQEND
8
0
0
POLYLINE
8
0
62
5
66
1
10
0
20
0
30
0
70
8
0
VERTEX
8
0
62
5
10
-2.6015592e-11
20
0.71971542
30
0
70
32
0
VERTEX
8
0
62
5
10
-2.6015592e-11
20
0.72071542
30
0
70
32
0
SEQEND
8
0
0
POLYLINE
8
0
62
5
66
1
10
0
20
0
30
0
70
8
0
VERTEX
8
0
62
5
10
0.28284271
20
0.71971542
30
0
70
32
0
VERTEX
8
0
62
5
10
0.28284271
20
0.72071542
30
0
70
32
0
SEQEND
8
0
0
POLYLINE
8
0
62
5
66
1
10
0
20
0
30
0
70
8
0
VERTEX
8
0
62
5
10
0.070710678
20
0.71971542
30
0
70
32
0
VERTEX
8
0
62
5
10
0.070710678
20
0.72071542
30
0
70
32
0
SEQEND
8
0
0
POLYLINE
8
0
62
5
66
1
10
0
20
0
30
0
70
8
0
VERTEX
8
0
62
5
10
0.14142136
20
0.71971542
30
0
70
32
0
VERTEX
8
0
62
5
10
0.14142136
20
0.72071542
30
0
70
32
0
SEQEND
8
0
0
POLYLINE
8
0
62
5
66
1
10
0
20
0
30
0
70
8
0
VERTEX
8
0
62
5
10
0.21213203
20
0.71971542
30
0
70
32
0
VERTEX
8
0
62
5
10
0.21213203
20
0.72071542
30
0
70
32
0
SEQEND
8
0
0
POLYLINE
8
0
62
5
66
1
10
0
20
0
30
0
70
8
0
VERTEX
8
0
62
5
10
0.56568542
20
0.71971542
30
0
70
32
0
VERTEX
8
0
62
5
10
0.56568542
20
0.72071542
30
0
70
32
0
SEQEND
8
0
0
POLYLINE
8
0
62
5
66
1
10
0
20
0
30
0
70
8
0
VERTEX
8
0
62
5
10
0.35355339
20
0.71971542
30
0
70
32
0
VERTEX
8
0
62
5
10
0.35355339
20
0.72071542
30
0
70
32
0
SEQEND
8
0
0
POLYLINE
8
0
62
5
66
1
10
0
20
0
30
0
70
8
0
VERTEX
8
0
62
5
10
0.42426407
20
0.71971542
30
0
70
32
0
VERTEX
8
0
62
5
10
0.42426407
20
0.72071542
30
0
70
32
0
SEQEND
8
0
0
POLYLINE
8
0
62
5
66
1
10
0
20
0
30
0
70
8
0
VERTEX
8
0
62
5
10
0.49497475
20
0.71971542
30
0
70
32
0
VERTEX
8
0
62
5
10
0.49497475
20
0.72071542
30
0
70
32
0
SEQEND
8
0
0
POLYLINE
8
0
62
5
66
1
10
0
20
0
30
0
70
8
0
VERTEX
8
0
62
5
10
-0.28284271
20
0.71971542
30
0
70
32
0
VERTEX
8
0
62
5
10
-0.28284271
20
0.72071542
30
0
70
32
0
SEQEND
8
0
0
POLYLINE
8
0
62
5
66
1
10
0
20
0
30
0
70
8
0
VERTEX
8
0
62
5
10
-0.21213203
20
0.71971542
30
0
70
32
0
VERTEX
8
0
62
5
10
-0.21213203
20
0.72071542
30
0
70
32
0
SEQEND
8
0
0
POLYLINE
8
0
62
5
66
1
10
0
20
0
30
0
70
8
0
VERTEX
8
0
62
5
10
-0.14142136
20
0.71971542
30
0
70
32
0
VERTEX
8
0
62
5
10
-0.14142136
20
0.72071542
30
0
70
32
0
SEQEND
8
0
0
POLYLINE
8
0
62
5
66
1
10
0
20
0
30
0
70
8
0
VERTEX
8
0
62
5
10
-0.070710678
20
0.71971542
30
0
70
32
0
VERTEX
8
0
62
5
10
-0.070710678
20
0.72071542
30
0
70
32
0
SEQEND
8
0
0
POLYLINE
8
0
62
5
66
1
10
0
20
0
30
0
70
8
0
VERTEX
8
0
62
5
10
-2.6015592e-11
20
0.72071542
30
0
70
32
0
VERTEX
8
0
62
5
10
-2.6015592e-11
20
0.89142629
30
0
70
32
0
SEQEND
8
0
0
POLYLINE
8
0
62
5
66
1
10
0
20
0
30
0
70
8
0
VERTEX
8
0
62
5
10
0.28284271
20
0.89142629
30
0
70
32
0
VERTEX
8
0
62
5
10
0.28284271
20
0.72071542
30
0
70
32
0
SEQEND
8
0
0
POLYLINE
8
0
62
5
66
1
10
0
20
0
30
0
70
8
0
VERTEX
8
0
62
5
10
-2.6015592e-11
20
0.80607066
30
0
70
32
0
VERTEX
8
0
62
5
10
0.070710678
20
0.80607085
30
0
70
32
0
VERTEX
8
0
62
5
10
0.14142136
20
0.73536018
30
0
70
32
0
VERTEX
8
0
62
5
10
0.21213203
20
0.73535998
30
0
70
32
0
VERTEX
8
0
62
5
10
0.28284271
20
0.80607066
30
0
70
32
0
SEQEND
8
0
0
POLYLINE
8
0
62
5
66
1
10
0
20
0
30
0
70
8
0
SEQEND
8
0
0
POLYLINE
8
0
62
5
66
1
10
0
20
0
30
0
70
8
0
VERTEX
8
0
62
5
10
-2.6015592e-11
20
0.80607105
30
0
70
32
0
VERTEX
8
0
62
5
10
0.070710678
20
0.80607085
30
0
70
32
0
VERTEX
8
0
62
5
10
0.14142136
20
0.87678153
30
0
70
32
0
VERTEX
8
0
62
5
10
0.21213203
20
0.87678173
30
0
70
32
0
VERTEX
8
0
62
5
10
0.28284271
20
0.80607105
30
0
70
32
0
SEQEND
8
0
0
POLYLINE
8
0
62
30
66
1
10
0
20
0
30
0
70
8
0
VERTEX
8
0
62
30
10
-2.6015592e-11
20
0.80607085
30
0
70
32
0
VERTEX
8
0
62
30
10
0.28284271
20
0.80607085
30
0
70
32
0
SEQEND
8
0
0
POLYLINE
8
0
62
30
66
1
10
0
20
0
30
0
70
8
0
VERTEX
8
0
62
30
10
0.070710678
20
0.80607085
30
0
70
32
0
VERTEX
8
0
62
30
10
0.070710678
20
0.80607085
30
0
70
32
0
SEQEND
8
0
0
POLYLINE
8
0
62
30
66
1
10
0
20
0
30
0
70
8
0
VERTEX
8
0
62
30
10
0.14142136
20
0.73536018
30
0
70
32
0
VERTEX
8
0
62
30
10
0.14142136
20
0.80607085
30
0
70
32
0
SEQEND
8
0
0
POLYLINE
8
0
62
30
66
1
10
0
20
0
30
0
70
8
0
VERTEX
8
0
62
30
10
0.21213203
20
0.73535998
30
0
70
32
0
VERTEX
8
0
62
30
10
0.21213203
20
0.80607085
30
0
70
32
0
SEQEND
8
0
0
POLYLINE
8
0
62
5
66
1
10
0
20
0
30
0
70
8
0
VERTEX
8
0
62
5
10
0.070710678
20
0.72071542
30
0
70
32
0
VERTEX
8
0
62
5
10
0.070710678
20
0.80607085
30
0
70
32
0
SEQEND
8
0
0
POLYLINE
8
0
62
5
66
1
10
0
20
0
30
0
70
8
0
VERTEX
8
0
62
5
10
0.14142136
20
0.72071542
30
0
70
32
0
VERTEX
8
0
62
5
10
0.14142136
20
0.73536018
30
0
70
32
0
SEQEND
8
0
0
POLYLINE
8
0
62
5
66
1
10
0
20
0
30
0
70
8
0
VERTEX
8
0
62
5
10
0.21213203
20
0.72071542
30
0
70
32
0
VERTEX
8
0
62
5
10
0.21213203
20
0.73535998
30
0
70
32
0
SEQEND
8
0
0
POLYLINE
8
0
62
5
66
1
10
0
20
0
30
0
70
8
0
VERTEX
8
0
62
5
10
0.070710678
20
0.80607085
30
0
70
32
0
VERTEX
8
0
62
5
10
0.070710678
20
0.89142629
30
0
70
32
0
SEQEND
8
0
0
POLYLINE
8
0
62
5
66
1
10
0
20
0
30
0
70
8
0
VERTEX
8
0
62
5
10
0.14142136
20
0.80607085
30
0
70
32
0
VERTEX
8
0
62
5
10
0.14142136
20
0.89142629
30
0
70
32
0
SEQEND
8
0
0
POLYLINE
8
0
62
5
66
1
10
0
20
0
30
0
70
8
0
VERTEX
8
0
62
5
10
0.21213203
20
0.80607085
30
0
70
32
0
VERTEX
8
0
62
5
10
0.21213203
20
0.89142629
30
0
70
32
0
SEQEND
8
0
0
POLYLINE
8
0
62
30
66
1
10
0
20
0
30
0
70
8
0
VERTEX
8
0
62
30
10
-2.6015592e-11
20
0.80607066
30
0
70
32
0
VERTEX
8
0
62
30
10
4.7681321e-07
20
0.80607085
30
0
70
32
0
VERTEX
8
0
62
30
10
-2.6015592e-11
20
0.80607105
30
0
70
32
0
SEQEND
8
0
0
POLYLINE
8
0
62
30
66
1
10
0
20
0
30
0
70
8
0
VERTEX
8
0
62
30
10
0.070710678
20
0.80607085
30
0
70
32
0
VERTEX
8
0
62
30
10
0.070710678
20
0.80607085
30
0
70
32
0
VERTEX
8
0
62
30
10
0.070710678
20
0.80607085
30
0
70
32
0
SEQEND
8
0
0
POLYLINE
8
0
62
30
66
1
10
0
20
0
30
0
70
8
0
VERTEX
8
0
62
30
10
0.14142136
20
0.73536018
30
0
70
32
0
VERTEX
8
0
62
30
10
0.17071071
20
0.80607085
30
0
70
32
0
VERTEX
8
0
62
30
10
0.14142136
20
0.87678153
30
0
70
32
0
SEQEND
8
0
0
POLYLINE
8
0
62
30
66
1
10
0
20
0
30
0
70
8
0
VERTEX
8
0
62
30
10
0.21213203
20
0.73535998
30
0
70
32
0
VERTEX
8
0
62
30
10
0.2414214
20
0.80607085
30
0
70
32
0
VERTEX
8
0
62
30
10
0.21213203
20
0.87678173
30
0
70
32
0
SEQEND
8
0
0
POLYLINE
8
0
62
5
66
1
10
0
20
0
30
0
70
8
0
VERTEX
8
0
62
5
10
0.56568542
20
0.89142629
30
0
70
32
0
VERTEX
8
0
62
5
10
0.56568542
20
0.72071542
30
0
70
32
0
SEQEND
8
0
0
POLYLINE
8
0
62
5
66
1
10
0
20
0
30
0
70
8
0
VERTEX
8
0
62
5
10
0.28284271
20
0.80607066
30
0
70
32
0
VERTEX
8
0
62
5
10
0.35355339
20
0.80607085
30
0
70
32
0
VERTEX
8
0
62
5
10
0.42426407
20
0.73536018
30
0
70
32
0
VERTEX
8
0
62
5
10
0.49497475
20
0.73535998
30
0
70
32
0
VERTEX
8
0
62
5
10
0.56568542
20
0.80607066
30
0
70
32
0
SEQEND
8
0
0
POLYLINE
8
0
62
5
66
1
10
0
20
0
30
0
70
8
0
SEQEND
8
0
0
POLYLINE
8
0
62
5
66
1
10
0
20
0
30
0
70
8
0
VERTEX
8
0
62
5
10
0.28284271
20
0.80607105
30
0
70
32
0
VERTEX
8
0
62
5
10
0.35355339
20
0.80607085
30
0
70
32
0
VERTEX
8
0
62
5
10
0.42426407
20
0.87678153
30
0
70
32
0
VERTEX
8
0
62
5
10
0.49497475
20
0.87678173
30
0
70
32
0
VERTEX
8
0
62
5
10
0.56568542
20
0.80607105
30
0
70
32
0
SEQEND
8
0
0
POLYLINE
8
0
62
30
66
1
10
0
20
0
30
0
70
8
0
VERTEX
8
0
62
30
10
0.28284271
20
0.80607085
30
0
70
32
0
VERTEX
8
0
62
30
10
0.56568542
20
0.80607085
30
0
70
32
0
SEQEND
8
0
0
POLYLINE
8
0
62
30
66
1
10
0
20
0
30
0
70
8
0
VERTEX
8
0
62
30
10
0.35355339
20
0.80607085
30
0
70
32
0
VERTEX
8
0
62
30
10
0.35355339
20
0.80607085
30
0
70
32
0
SEQEND
8
0
0
POLYLINE
8
0
62
30
66
1
10
0
20
0
30
0
70
8
0
VERTEX
8
0
62
30
10
0.42426407
20
0.73536018
30
0
70
32
0
VERTEX
8
0
62
30
10
0.42426407
20
0.80607085
30
0
70
32
0
SEQEND
8
0
0
POLYLINE
8
0
62
30
66
1
10
0
20
0
30
0
70
8
0
VERTEX
8
0
62
30
10
0.49497475
20
0.73535998
30
0
70
32
0
VERTEX
8
0
62
30
10
0.49497475
20
0.80607085
30
0
70
32
0
SEQEND
8
0
0
POLYLINE
8
0
62
5
66
1
10
0
20
0
30
0
70
8
0
VERTEX
8
0
62
5
10
0.35355339
20
0.72071542
30
0
70
32
0
VERTEX
8
0
62
5
10
0.35355339
20
0.80607085
30
0
70
32
0
SEQEND
8
0
0
POLYLINE
8
0
62
5
66
1
10
0
20
0
30
0
70
8
0
VERTEX
8
0
62
5
10
0.42426407
20
0.72071542
30
0
70
32
0
VERTEX
8
0
62
5
10
0.42426407
20
0.73536018
30
0
70
32
0
SEQEND
8
0
0
POLYLINE
8
0
62
5
66
1
10
0
20
0
30
0
70
8
0
VERTEX
8
0
62
5
10
0.49497475
20
0.72071542
30
0
70
32
0
VERTEX
8
0
62
5
10
0.49497475
20
0.73535998
30
0
70
32
0
SEQEND
8
0
0
POLYLINE
8
0
62
5
66
1
10
0
20
0
30
0
70
8
0
VERTEX
8
0
62
5
10
0.35355339
20
0.80607085
30
0
70
32
0
VERTEX
8
0
62
5
10
0.35355339
20
0.89142629
30
0
70
32
0
SEQEND
8
0
0
POLYLINE
8
0
62
5
66
1
10
0
20
0
30
0
70
8
0
VERTEX
8
0
62
5
10
0.42426407
20
0.80607085
30
0
70
32
0
VERTEX
8
0
62
5
10
0.42426407
20
0.89142629
30
0
70
32
0
SEQEND
8
0
0
POLYLINE
8
0
62
5
66
1
10
0
20
0
30
0
70
8
0
VERTEX
8
0
62
5
10
0.49497475
20
0.80607085
30
0
70
32
0
VERTEX
8
0
62
5
10
0.49497475
20
0.89142629
30
0
70
32
0
SEQEND
8
0
0
POLYLINE
8
0
62
30
66
1
10
0
20
0
30
0
70
8
0
VERTEX
8
0
62
30
10
0.28284271
20
0.80607066
30
0
70
32
0
VERTEX
8
0
62
30
10
0.28284319
20
0.80607085
30
0
70
32
0
VERTEX
8
0
62
30
10
0.28284271
20
0.80607105
30
0
70
32
0
SEQEND
8
0
0
POLYLINE
8
0
62
30
66
1
10
0
20
0
30
0
70
8
0
VERTEX
8
0
62
30
10
0.35355339
20
0.80607085
30
0
70
32
0
VERTEX
8
0
62
30
10
0.35355339
20
0.80607085
30
0
70
32
0
VERTEX
8
0
62
30
10
0.35355339
20
0.80607085
30
0
70
32
0
SEQEND
8
0
0
POLYLINE
8
0
62
30
66
1
10
0
20
0
30
0
70
8
0
VERTEX
8
0
62
30
10
0.42426407
20
0.73536018
30
0
70
32
0
VERTEX
8
0
62
30
10
0.45355342
20
0.80607085
30
0
70
32
0
VERTEX
8
0
62
30
10
0.42426407
20
0.87678153
30
0
70
32
0
SEQEND
8
0
0
POLYLINE
8
0
62
30
66
1
10
0
20
0
30
0
70
8
0
VERTEX
8
0
62
30
10
0.49497475
20
0.73535998
30
0
70
32
0
VERTEX
8
0
62
30
10
0.52426412
20
0.80607085
30
0
70
32
0
VERTEX
8
0
62
30
10
0.49497475
20
0.87678173
30
0
70
32
0
SEQEND
8
0
0
POLYLINE
8
0
62
5
66
1
10
0
20
0
30
0
70
8
0
VERTEX
8
0
62
5
10
-0.28284271
20
0.72071542
30
0
70
32
0
VERTEX
8
0
62
5
10
-0.28284271
20
0.89142629
30
0
70
32
0
SEQEND
8
0
0
POLYLINE
8
0
62
5
66
1
10
0
20
0
30
0
70
8
0
VERTEX
8
0
62
5
10
-0.28284271
20
0.80607066
30
0
70
32
0
VERTEX
8
0
62
5
10
-0.21213203
20
0.80607085
30
0
70
32
0
VERTEX
8
0
62
5
10
-0.14142136
20
0.73536018
30
0
70
32
0
VERTEX
8
0
62
5
10
-0.070710678
20
0.73535998
30
0
70
32
0
VERTEX
8
0
62
5
10
-2.6015579e-11
20
0.80607066
30
0
70
32
0
SEQEND
8
0
0
POLYLINE
8
0
62
5
66
1
10
0
20
0
30
0
70
8
0
SEQEND
8
0
0
POLYLINE
8
0
62
5
66
1
10
0
20
0
30
0
70
8
0
VERTEX
8
0
62
5
10
-0.28284271
20
0.80607105
30
0
70
32
0
VERTEX
8
0
62
5
10
-0.21213203
20
0.80607085
30
0
70
32
0
VERTEX
8
0
62
5
10
-0.14142136
20
0.87678153
30
0
70
32
0
VERTEX
8
0
62
5
10
-0.070710678
20
0.87678173
30
0
70
32
0
VERTEX
8
0
62
5
10
-2.6015579e-11
20
0.80607105
30
0
70
32
0
SEQEND
8
0
0
POLYLINE
8
0
62
30
66
1
10
0
20
0
30
0
70
8
0
VERTEX
8
0
62
30
10
-0.28284271
20
0.80607085
30
0
70
32
0
VERTEX
8
0
62
30
10
-2.6015579e-11
20
0.80607085
30
0
70
32
0
SEQEND
8
0
0
POLYLINE
8
0
62
30
66
1
10
0
20
0
30
0
70
8
0
VERTEX
8
0
62
30
10
-0.21213203
20
0.80607085
30
0
70
32
0
VERTEX
8
0
62
30
10
-0.21213203
20
0.80607085
30
0
70
32
0
SEQEND
8
0
0
POLYLINE
8
0
62
30
66
1
10
0
20
0
30
0
70
8
0
VERTEX
8
0
62
30
10
-0.14142136
20
0.73536018
30
0
70
32
0
VERTEX
8
0
62
30
10
-0.14142136
20
0.80607085
30
0
70
32
0
SEQEND
8
0
0
POLYLINE
8
0
62
30
66
1
10
0
20
0
30
0
70
8
0
VERTEX
8
0
62
30
10
-0.070710678
20
0.73535998
30
0
70
32
0
VERTEX
8
0
62
30
10
-0.070710678
20
0.80607085
30
0
70
32
0
SEQEND
8
0
0
POLYLINE
8
0
62
5
66
1
10
0
20
0
30
0
70
8
0
VERTEX
8
0
62
5
10
-0.21213203
20
0.72071542
30
0
70
32
0
VERTEX
8
0
62
5
10
-0.21213203
20
0.80607085
30
0
70
32
0
SEQEND
8
0
0
POLYLINE
8
0
62
5
66
1
10
0
20
0
30
0
70
8
0
VERTEX
8
0
62
5
10
-0.14142136
20
0.72071542
30
0
70
32
0
VERTEX
8
0
62
5
10
-0.14142136
20
0.73536018
30
0
70
32
0
SEQEND
8
0
0
POLYLINE
8
0
62
5
66
1
10
0
20
0
30
0
70
8
0
VERTEX
8
0
62
5
10
-0.070710678
20
0.72071542
30
0
70
32
0
VERTEX
8
0
62
5
10
-0.070710678
20
0.73535998
30
0
70
32
0
SEQEND
8
0
0
POLYLINE
8
0
62
5
66
1
10
0
20
0
30
0
70
8
0
VERTEX
8
0
62
5
10
-0.21213203
20
0.80607085
30
0
70
32
0
VERTEX
8
0
62
5
10
-0.21213203
20
0.89142629
30
0
70
32
0
SEQEND
8
0
0
POLYLINE
8
0
62
5
66
1
10
0
20
0
30
0
70
8
0
VERTEX
8
0
62
5
10
-0.14142136
20
0.80607085
30
0
70
32
0
VERTEX
8
0
62
5
10
-0.14142136
20
0.89142629
30
0
70
32
0
SEQEND
8
0
0
POLYLINE
8
0
62
5
66
1
10
0
20
0
30
0
70
8
0
VERTEX
8
0
62
5
10
-0.070710678
20
0.80607085
30
0
70
32
0
VERTEX
8
0
62
5
10
-0.070710678
20
0.89142629
30
0
70
32
0
SEQEND
8
0
0
POLYLINE
8
0
62
30
66
1
10
0
20
0
30
0
70
8
0
VERTEX
8
0
62
30
10
-0.28284271
20
0.80607066
30
0
70
32
0
VERTEX
8
0
62
30
10
-0.28284224
20
0.80607085
30
0
70
32
0
VERTEX
8
0
62
30
10
-0.28284271
20
0.80607105
30
0
70
32
0
SEQEND
8
0
0
POLYLINE
8
0
62
30
66
1
10
0
20
0
30
0
70
8
0
VERTEX
8
0
62
30
10
-0.21213203
20
0.80607085
30
0
70
32
0
VERTEX
8
0
62
30
10
-0.21213203
20
0.80607085
30
0
70
32
0
VERTEX
8
0
62
30
10
-0.21213203
20
0.80607085
30
0
70
32
0
SEQEND
8
0
0
POLYLINE
8
0
62
30
66
1
10
0
20
0
30
0
70
8
0
VERTEX
8
0
62
30
10
-0.14142136
20
0.73536018
30
0
70
32
0
VERTEX
8
0
62
30
10
-0.112132
20
0.80607085
30
0
70
32
0
VERTEX
8
0
62
30
10
-0.14142136
20
0.87678153
30
0
70
32
0
SEQEND
8
0
0
POLYLINE
8
0
62
30
66
1
10
0
20
0
30
0
70
8
0
VERTEX
8
0
62
30
10
-0.070710678
20
0.73535998
30
0
70
32
0
VERTEX
8
0
62
30
10
-0.041421308
20
0.80607085
30
0
70
32
0
VERTEX
8
0
62
30
10
-0.070710678
20
0.87678173
30
0
70
32
0
SEQEND
8
0
0
POLYLINE
8
0
62
5
66
1
10
0
20
0
30
0
70
8
0
VERTEX
8
0
62
5
10
-2.6015592e-11
20
0.89142629
30
0
70
32
0
VERTEX
8
0
62
5
10
-2.6015592e-11
20
0.8914265
30
0
70
32
0
SEQEND
8
0
0
POLYLINE
8
0
62
5
66
1
10
0
20
0
30
0
70
8
0
VERTEX
8
0
62
5
10
0.070710678
20
0.89142629
30
0
70
32
0
VERTEX
8
0
62
5
10
0.070710678
20
0.8914265
30
0
70
32
0
SEQEND
8
0
0
POLYLINE
8
0
62
5
66
1
10
0
20
0
30
0
70
8
0
VERTEX
8
0
62
5
10
0.14142136
20
0.89142629
30
0
70
32
0
VERTEX
8
0
62
5
10
0.14142136
20
0.8914265
30
0
70
32
0
SEQEND
8
0
0
POLYLINE
8
0
62
5
66
1
10
0
20
0
30
0
70
8
0
VERTEX
8
0
62
5
10
0.21213203
20
0.89142629
30
0
70
32
0
VERTEX
8
0
62
5
10
0.21213203
20
0.8914265
30
0
70
32
0
SEQEND
8
0
0
POLYLINE
8
0
62
5
66
1
10
0
20
0
30
0
70
8
0
VERTEX
8
0
62
5
10
0.28284271
20
0.89142629
30
0
70
32
0
VERTEX
8
0
62
5
10
0.28284271
20
0.8914265
30
0
70
32
0
SEQEND
8
0
0
POLYLINE
8
0
62
5
66
1
10
0
20
0
30
0
70
8
0
VERTEX
8
0
62
5
10
0.070710678
20
0.89142629
30
0
70
32
0
VERTEX
8
0
62
5
10
0.070710678
20
0.89142629
30
0
70
32
0
SEQEND
8
0
0
POLYLINE
8
0
62
5
66
1
10
0
20
0
30
0
70
8
0
VERTEX
8
0
62
5
10
0.14142136
20
0.89142629
30
0
70
32
0
VERTEX
8
0
62
5
10
0.14142136
20
0.89142629
30
0
70
32
0
SEQEND
8
0
0
POLYLINE
8
0
62
5
66
1
10
0
20
0
30
0
70
8
0
VERTEX
8
0
62
5
10
0.21213203
20
0.89142629
30
0
70
32
0
VERTEX
8
0
62
5
10
0.21213203
20
0.89142629
30
0
70
32
0
SEQEND
8
0
0
POLYLINE
8
0
62
5
66
1
10
0
20
0
30
0
70
8
0
VERTEX
8
0
62
5
10
1.9748914e-07
20
0.8914265
30
0
70
32
0
VERTEX
8
0
62
5
10
1.9748914e-07
20
0.8914265
30
0
70
32
0
SEQEND
8
0
0
POLYLINE
8
0
62
5
66
1
10
0
20
0
30
0
70
8
0
VERTEX
8
0
62
5
10
0.070710876
20
0.8914265
30
0
70
32
0
VERTEX
8
0
62
5
10
0.070710876
20
0.8914265
30
0
70
32
0
SEQEND
8
0
0
POLYLINE
8
0
62
5
66
1
10
0
20
0
30
0
70
8
0
VERTEX
8
0
62
5
10
0.14142155
20
0.8914265
30
0
70
32
0
VERTEX
8
0
62
5
10
0.14142155
20
0.8914265
30
0
70
32
0
SEQEND
8
0
0
POLYLINE
8
0
62
5
66
1
10
0
20
0
30
0
70
8
0
VERTEX
8
0
62
5
10
0.21213223
20
0.8914265
30
0
70
32
0
VERTEX
8
0
62
5
10
0.21213223
20
0.8914265
30
0
70
32
0
SEQEND
8
0
0
POLYLINE
8
0
62
5
66
1
10
0
20
0
30
0
70
8
0
VERTEX
8
0
62
5
10
0.35355339
20
0.89142629
30
0
70
32
0
VERTEX
8
0
62
5
10
0.35355339
20
0.8914265
30
0
70
32
0
SEQEND
8
0
0
POLYLINE
8
0
62
5
66
1
10
0
20
0
30
0
70
8
0
VERTEX
8
0
62
5
10
0.42426407
20
0.89142629
30
0
70
32
0
VERTEX
8
0
62
5
10
0.42426407
20
0.8914265
30
0
70
32
0
SEQEND
8
0
0
POLYLINE
8
0
62
5
66
1
10
0
20
0
30
0
70
8
0
VERTEX
8
0
62
5
10
0.49497475
20
0.89142629
30
0
70
32
0
VERTEX
8
0
62
5
10
0.49497475
20
0.8914265
30
0
70
32
0
SEQEND
8
0
0
POLYLINE
8
0
62
5
66
1
10
0
20
0
30
0
70
8
0
VERTEX
8
0
62
5
10
0.56568542
20
0.89142629
30
0
70
32
0
VERTEX
8
0
62
5
10
0.56568542
20
0.8914265
30
0
70
32
0
SEQEND
8
0
0
POLYLINE
8
0
62
5
66
1
10
0
20
0
30
0
70
8
0
VERTEX
8
0
62
5
10
0.35355339
20
0.89142629
30
0
70
32
0
VERTEX
8
0
62
5
10
0.35355339
20
0.89142629
30
0
70
32
0
SEQEND
8
0
0
POLYLINE
8
0
62
5
66
1
10
0
20
0
30
0
70
8
0
VERTEX
8
0
62
5
10
0.42426407
20
0.89142629
30
0
70
32
0
VERTEX
8
0
62
5
10
0.42426407
20
0.89142629
30
0
70
32
0
SEQEND
8
0
0
POLYLINE
8
0
62
5
66
1
10
0
20
0
30
0
70
8
0
VERTEX
8
0
62
5
10
0.49497475
20
0.89142629
30
0
70
32
0
VERTEX
8
0
62
5
10
0.49497475
20
0.89142629
30
0
70
32
0
SEQEND
8
0
0
POLYLINE
8
0
62
5
66
1
10
0
20
0
30
0
70
8
0
VERTEX
8
0
62
5
10
0.28284291
20
0.8914265
30
0
70
32
0
VERTEX
8
0
62
5
10
0.28284291
20
0.8914265
30
0
70
32
0
SEQEND
8
0
0
POLYLINE
8
0
62
5
66
1
10
0
20
0
30
0
70
8
0
VERTEX
8
0
62
5
10
0.35355359
20
0.8914265
30
0
70
32
0
VERTEX
8
0
62
5
10
0.35355359
20
0.8914265
30
0
70
32
0
SEQEND
8
0
0
POLYLINE
8
0
62
5
66
1
10
0
20
0
30
0
70
8
0
VERTEX
8
0
62
5
10
0.42426427
20
0.8914265
30
0
70
32
0
VERTEX
8
0
62
5
10
0.42426427
20
0.8914265
30
0
70
32
0
SEQEND
8
0
0
POLYLINE
8
0
62
5
66
1
10
0
20
0
30
0
70
8
0
VERTEX
8
0
62
5
10
0.49497494
20
0.8914265
30
0
70
32
0
VERTEX
8
0
62
5
10
0.49497494
20
0.8914265
30
0
70
32
0
SEQEND
8
0
0
POLYLINE
8
0
62
5
66
1
10
0
20
0
30
0
70
8
0
VERTEX
8
0
62
5
10
-0.21213203
20
0.89142629
30
0
70
32
0
VERTEX
8
0
62
5
10
-0.21213203
20
0.8914265
30
0
70
32
0
SEQEND
8
0
0
POLYLINE
8
0
62
5
66
1
10
0
20
0
30
0
70
8
0
VERTEX
8
0
62
5
10
-0.14142136
20
0.89142629
30
0
70
32
0
VERTEX
8
0
62
5
10
-0.14142136
20
0.8914265
30
0
70
32
0
SEQEND
8
0
0
POLYLINE
8
0
62
5
66
1
10
0
20
0
30
0
70
8
0
VERTEX
8
0
62
5
10
-0.070710678
20
0.89142629
30
0
70
32
0
VERTEX
8
0
62
5
10
-0.070710678
20
0.8914265
30
0
70
32
0
SEQEND
8
0
0
POLYLINE
8
0
62
5
66
1
10
0
20
0
30
0
70
8
0
VERTEX
8
0
62
5
10
-2.6015579e-11
20
0.89142629
30
0
70
32
0
VERTEX
8
0
62
5
10
-2.6015579e-11
20
0.8914265
30
0
70
32
0
SEQEND
8
0
0
POLYLINE
8
0
62
5
66
1
10
0
20
0
30
0
70
8
0
VERTEX
8
0
62
5
10
-0.21213203
20
0.89142629
30
0
70
32
0
VERTEX
8
0
62
5
10
-0.21213203
20
0.89142629
30
0
70
32
0
SEQEND
8
0
0
POLYLINE
8
0
62
5
66
1
10
0
20
0
30
0
70
8
0
VERTEX
8
0
62
5
10
-0.14142136
20
0.89142629
30
0
70
32
0
VERTEX
8
0
62
5
10
-0.14142136
20
0.89142629
30
0
70
32
0
SEQEND
8
0
0
POLYLINE
8
0
62
5
66
1
10
0
20
0
30
0
70
8
0
VERTEX
8
0
62
5
10
-0.070710678
20
0.89142629
30
0
70
32
0
VERTEX
8
0
62
5
10
-0.070710678
20
0.89142629
30
0
70
32
0
SEQEND
8
0
0
POLYLINE
8
0
62
5
66
1
10
0
20
0
30
0
70
8
0
VERTEX
8
0
62
5
10
-0.28284251
20
0.8914265
30
0
70
32
0
VERTEX
8
0
62
5
10
-0.28284251
20
0.8914265
30
0
70
32
0
SEQEND
8
0
0
POLYLINE
8
0
62
5
66
1
10
0
20
0
30
0
70
8
0
VERTEX
8
0
62
5
10
-0.21213184
20
0.8914265
30
0
70
32
0
VERTEX
8
0
62
5
10
-0.21213184
20
0.8914265
30
0
70
32
0
SEQEND
8
0
0
POLYLINE
8
0
62
5
66
1
10
0
20
0
30
0
70
8
0
VERTEX
8
0
62
5
10
-0.14142116
20
0.8914265
30
0
70
32
0
VERTEX
8
0
62
5
10
-0.14142116
20
0.8914265
30
0
70
32
0
SEQEND
8
0
0
POLYLINE
8
0
62
5
66
1
10
0
20
0
30
0
70
8
0
VERTEX
8
0
62
5
10
-0.070710481
20
0.8914265
30
0
70
32
0
VERTEX
8
0
62
5
10
-0.070710481
20
0.8914265
30
0
70
32
0
SEQEND
8
0
0
POLYLINE
8
0
62
5
66
1
10
0
20
0
30
0
70
8
0
VERTEX
8
0
62
5
10
1.9748914e-07
20
0.8914265
30
0
70
32
0
VERTEX
8
0
62
5
10
1.9748914e-07
20
0.89142678
30
0
70
32
0
SEQEND
8
0
0
POLYLINE
8
0
62
5
66
1
10
0
20
0
30
0
70
8
0
VERTEX
8
0
62
5
10
0.28284291
20
0.8914265
30
0
70
32
0
VERTEX
8
0
62
5
10
0.28284291
20
0.89142678
30
0
70
32
0
SEQEND
8
0
0
POLYLINE
8
0
62
5
66
1
10
0
20
0
30
0
70
8
0
VERTEX
8
0
62
5
10
0.070710876
20
0.8914265
30
0
70
32
0
VERTEX
8
0
62
5
10
0.070710876
20
0.89142678
30
0
70
32
0
SEQEND
8
0
0
POLYLINE
8
0
62
5
66
1
10
0
20
0
30
0
70
8
0
VERTEX
8
0
62
5
10
0.14142155
20
0.8914265
30
0
70
32
0
VERTEX
8
0
62
5
10
0.14142155
20
0.89142678
30
0
70
32
0
SEQEND
8
0
0
POLYLINE
8
0
62
5
66
1
10
0
20
0
30
0
70
8
0
VERTEX
8
0
62
5
10
0.21213223
20
0.8914265
30
0
70
32
0
VERTEX
8
0
62
5
10
0.21213223
20
0.89142678
30
0
70
32
0
SEQEND
8
0
0
POLYLINE
8
0
62
5
66
1
10
0
20
0
30
0
70
8
0
VERTEX
8
0
62
5
10
0.56568562
20
0.8914265
30
0
70
32
0
VERTEX
8
0
62
5
10
0.56568562
20
0.89142678
30
0
70
32
0
SEQEND
8
0
0
POLYLINE
8
0
62
5
66
1
10
0
20
0
30
0
70
8
0
VERTEX
8
0
62
5
10
0.35355359
20
0.8914265
30
0
70
32
0
VERTEX
8
0
62
5
10
0.35355359
20
0.89142678
30
0
70
32
0
SEQEND
8
0
0
POLYLINE
8
0
62
5
66
1
10
0
20
0
30
0
70
8
0
VERTEX
8
0
62
5
10
0.42426427
20
0.8914265
30
0
70
32
0
VERTEX
8
0
62
5
10
0.42426427
20
0.89142678
30
0
70
32
0
SEQEND
8
0
0
POLYLINE
8
0
62
5
66
1
10
0
20
0
30
0
70
8
0
VERTEX
8
0
62
5
10
0.49497494
20
0.8914265
30
0
70
32
0
VERTEX
8
0
62
5
10
0.49497494
20
0.89142678
30
0
70
32
0
SEQEND
8
0
0
POLYLINE
8
0
62
5
66
1
10
0
20
0
30
0
70
8
0
VERTEX
8
0
62
5
10
-0.28284251
20
0.8914265
30
0
70
32
0
VERTEX
8
0
62
5
10
-0.28284251
20
0.89142678
30
0
70
32
0
SEQEND
8
0
0
POLYLINE
8
0
62
5
66
1
10
0
20
0
30
0
70
8
0
VERTEX
8
0
62
5
10
-0.21213184
20
0.8914265
30
0
70
32
0
VERTEX
8
0
62
5
10
-0.21213184
20
0.89142678
30
0
70
32
0
SEQEND
8
0
0
POLYLINE
8
0
62
5
66
1
10
0
20
0
30
0
70
8
0
VERTEX
8
0
62
5
10
-0.14142116
20
0.8914265
30
0
70
32
0
VERTEX
8
0
62
5
10
-0.14142116
20
0.89142678
30
0
70
32
0
SEQEND
8
0
0
POLYLINE
8
0
62
5
66
1
10
0
20
0
30
0
70
8
0
VERTEX
8
0
62
5
10
-0.070710481
20
0.8914265
30
0
70
32
0
VERTEX
8
0
62
5
10
-0.070710481
20
0.89142678
30
0
70
32
0
SEQEND
8
0
0
POLYLINE
8
0
62
5
66
1
10
0
20
0
30
0
70
8
0
VERTEX
8
0
62
5
10
1.9748914e-07
20
0.89142678
30
0
70
32
0
VERTEX
8
0
62
5
10
1.9748914e-07
20
1.0621377
30
0
70
32
0
SEQEND
8
0
0
POLYLINE
8
0
62
5
66
1
10
0
20
0
30
0
70
8
0
VERTEX
8
0
62
5
10
0.28284291
20
1.0621377
30
0
70
32
0
VERTEX
8
0
62
5
10
0.28284291
20
0.89142678
30
0
70
32
0
SEQEND
8
0
0
POLYLINE
8
0
62
5
66
1
10
0
20
0
30
0
70
8
0
VERTEX
8
0
62
5
10
1.9748914e-07
20
0.97678222
30
0
70
32
0
VERTEX
8
0
62
5
10
0.070710876
20
0.97678202
30
0
70
32
0
VERTEX
8
0
62
5
10
0.14142155
20
0.90607134
30
0
70
32
0
VERTEX
8
0
62
5
10
0.21213223
20
0.90607154
30
0
70
32
0
VERTEX
8
0
62
5
10
0.28284291
20
0.97678222
30
0
70
32
0
SEQEND
8
0
0
POLYLINE
8
0
62
5
66
1
10
0
20
0
30
0
70
8
0
SEQEND
8
0
0
POLYLINE
8
0
62
5
66
1
10
0
20
0
30
0
70
8
0
VERTEX
8
0
62
5
10
1.9748914e-07
20
0.97678222
30
0
70
32
0
VERTEX
8
0
62
5
10
0.070710876
20
0.97678241
30
0
70
32
0
VERTEX
8
0
62
5
10
0.14142155
20
1.0474931
30
0
70
32
0
VERTEX
8
0
62
5
10
0.21213223
20
1.0474929
30
0
70
32
0
VERTEX
8
0
62
5
10
0.28284291
20
0.97678222
30
0
70
32
0
SEQEND
8
0
0
POLYLINE
8
0
62
30
66
1
10
0
20
0
30
0
70
8
0
VERTEX
8
0
62
30
10
1.9748914e-07
20
0.97678222
30
0
70
32
0
VERTEX
8
0
62
30
10
0.28284291
20
0.97678222
30
0
70
32
0
SEQEND
8
0
0
POLYLINE
8
0
62
30
66
1
10
0
20
0
30
0
70
8
0
VERTEX
8
0
62
30
10
0.070710876
20
0.97678202
30
0
70
32
0
VERTEX
8
0
62
30
10
0.070710876
20
0.97678222
30
0
70
32
0
SEQEND
8
0
0
POLYLINE
8
0
62
30
66
1
10
0
20
0
30
0
70
8
0
VERTEX
8
0
62
30
10
0.14142155
20
0.90607134
30
0
70
32
0
VERTEX
8
0
62
30
10
0.14142155
20
0.97678222
30
0
70
32
0
SEQEND
8
0
0
POLYLINE
8
0
62
30
66
1
10
0
20
0
30
0
70
8
0
VERTEX
8
0
62
30
10
0.21213223
20
0.90607154
30
0
70
32
0
VERTEX
8
0
62
30
10
0.21213223
20
0.97678222
30
0
70
32
0
SEQEND
8
0
0
POLYLINE
8
0
62
5
66
1
10
0
20
0
30
0
70
8
0
VERTEX
8
0
62
5
10
0.070710876
20
0.89142678
30
0
70
32
0
VERTEX
8
0
62
5
10
0.070710876
20
0.97678202
30
0
70
32
0
SEQEND
8
0
0
POLYLINE
8
0
62
5
66
1
10
0
20
0
30
0
70
8
0
VERTEX
8
0
62
5
10
0.14142155
20
0.89142678
30
0
70
32
0
VERTEX
8
0
62
5
10
0.14142155
20
0.90607134
30
0
70
32
0
SEQEND
8
0
0
POLYLINE
8
0
62
5
66
1
10
0
20
0
30
0
70
8
0
VERTEX
8
0
62
5
10
0.21213223
20
0.89142678
30
0
70
32
0
VERTEX
8
0
62
5
10
0.21213223
20
0.90607154
30
0
70
32
0
SEQEND
8
0
0
POLYLINE
8
0
62
5
66
1
10
0
20
0
30
0
70
8
0
VERTEX
8
0
62
5
10
0.070710876
20
0.97678222
30
0
70
32
0
VERTEX
8
0
62
5
10
0.070710876
20
1.0621377
30
0
70
32
0
SEQEND
8
0
0
POLYLINE
8
0
62
5
66
1
10
0
20
0
30
0
70
8
0
VERTEX
8
0
62
5
10
0.14142155
20
0.97678222
30
0
70
32
0
VERTEX
8
0
62
5
10
0.14142155
20
1.0621377
30
0
70
32
0
SEQEND
8
0
0
POLYLINE
8
0
62
5
66
1
10
0
20
0
30
0
70
8
0
VERTEX
8
0
62
5
10
0.21213223
20
0.97678222
30
0
70
32
0
VERTEX
8
0
62
5
10
0.21213223
20
1.0621377
30
0
70
32
0
SEQEND
8
0
0
POLYLINE
8
0
62
30
66
1
10
0
20
0
30
0
70
8
0
VERTEX
8
0
62
30
10
1.9748914e-07
20
0.97678222
30
0
70
32
0
VERTEX
8
0
62
30
10
1.9748914e-07
20
0.97678222
30
0
70
32
0
VERTEX
8
0
62
30
10
1.9748914e-07
20
0.97678222
30
0
70
32
0
SEQEND
8
0
0
POLYLINE
8
0
62
30
66
1
10
0
20
0
30
0
70
8
0
VERTEX
8
0
62
30
10
0.070710876
20
0.97678202
30
0
70
32
0
VERTEX
8
0
62
30
10
0.070711352
20
0.97678222
30
0
70
32
0
VERTEX
8
0
62
30
10
0.070710876
20
0.97678241
30
0
70
32
0
SEQEND
8
0
0
POLYLINE
8
0
62
30
66
1
10
0
20
0
30
0
70
8
0
VERTEX
8
0
62
30
10
0.14142155
20
0.90607134
30
0
70
32
0
VERTEX
8
0
62
30
10
0.17071092
20
0.97678222
30
0
70
32
0
VERTEX
8
0
62
30
10
0.14142155
20
1.0474931
30
0
70
32
0
SEQEND
8
0
0
POLYLINE
8
0
62
30
66
1
10
0
20
0
30
0
70
8
0
VERTEX
8
0
62
30
10
0.21213223
20
0.90607154
30
0
70
32
0
VERTEX
8
0
62
30
10
0.24142159
20
0.97678222
30
0
70
32
0
VERTEX
8
0
62
30
10
0.21213223
20
1.0474929
30
0
70
32
0
SEQEND
8
0
0
POLYLINE
8
0
62
5
66
1
10
0
20
0
30
0
70
8
0
VERTEX
8
0
62
5
10
0.56568562
20
1.0621377
30
0
70
32
0
VERTEX
8
0
62
5
10
0.56568562
20
0.89142678
30
0
70
32
0
SEQEND
8
0
0
POLYLINE
8
0
62
5
66
1
10
0
20
0
30
0
70
8
0
VERTEX
8
0
62
5
10
0.28284291
20
0.97678222
30
0
70
32
0
VERTEX
8
0
62
5
10
0.35355359
20
0.97678202
30
0
70
32
0
VERTEX
8
0
62
5
10
0.42426427
20
0.90607134
30
0
70
32
0
VERTEX
8
0
62
5
10
0.49497494
20
0.90607154
30
0
70
32
0
VERTEX
8
0
62
5
10
0.56568562
20
0.97678222
30
0
70
32
0
SEQEND
8
0
0
POLYLINE
8
0
62
5
66
1
10
0
20
0
30
0
70
8
0
SEQEND
8
0
0
POLYLINE
8
0
62
5
66
1
10
0
20
0
30
0
70
8
0
VERTEX
8
0
62
5
10
0.28284291
20
0.97678222
30
0
70
32
0
VERTEX
8
0
62
5
10
0.35355359
20
0.97678241
30
0
70
32
0
VERTEX
8
0
62
5
10
0.42426427
20
1.0474931
30
0
70
32
0
VERTEX
8
0
62
5
10
0.49497494
20
1.0474929
30
0
70
32
0
VERTEX
8
0
62
5
10
0.56568562
20
0.97678222
30
0
70
32
0
SEQEND
8
0
0
POLYLINE
8
0
62
30
66
1
10
0
20
0
30
0
70
8
0
VERTEX
8
0
62
30
10
0.28284291
20
0.97678222
30
0
70
32
0
VERTEX
8
0
62
30
10
0.56568562
20
0.97678222
30
0
70
32
0
SEQEND
8
0
0
POLYLINE
8
0
62
30
66
1
10
0
20
0
30
0
70
8
0
VERTEX
8
0
62
30
10
0.35355359
20
0.97678202
30
0
70
32
0
VERTEX
8
0
62
30
10
0.35355359
20
0.97678222
30
0
70
32
0
SEQEND
8
0
0
POLYLINE
8
0
62
30
66
1
10
0
20
0
30
0
70
8
0
VERTEX
8
0
62
30
10
0.42426427
20
0.90607134
30
0
70
32
0
VERTEX
8
0
62
30
10
0.42426427
20
0.97678222
30
0
70
32
0
SEQEND
8
0
0
POLYLINE
8
0
62
30
66
1
10
0
20
0
30
0
70
8
0
VERTEX
8
0
62
30
10
0.49497494
20
0.90607154
30
0
70
32
0
VERTEX
8
0
62
30
10
0.49497494
20
0.97678222
30
0
70
32
0
SEQEND
8
0
0
POLYLINE
8
0
62
5
66
1
10
0
20
0
30
0
70
8
0
VERTEX
8
0
62
5
10
0.35355359
20
0.89142678
30
0
70
32
0
VERTEX
8
0
62
5
10
0.35355359
20
0.97678202
30
0
70
32
0
SEQEND
8
0
0
POLYLINE
8
0
62
5
66
1
10
0
20
0
30
0
70
8
0
VERTEX
8
0
62
5
10
0.42426427
20
0.89142678
30
0
70
32
0
VERTEX
8
0
62
5
10
0.42426427
20
0.90607134
30
0
70
32
0
SEQEND
8
0
0
POLYLINE
8
0
62
5
66
1
10
0
20
0
30
0
70
8
0
VERTEX
8
0
62
5
10
0.49497494
20
0.89142678
30
0
70
32
0
VERTEX
8
0
62
5
10
0.49497494
20
0.90607154
30
0
70
32
0
SEQEND
8
0
0
POLYLINE
8
0
62
5
66
1
10
0
20
0
30
0
70
8
0
VERTEX
8
0
62
5
10
0.35355359
20
0.97678222
30
0
70
32
0
VERTEX
8
0
62
5
10
0.35355359
20
1.0621377
30
0
70
32
0
SEQEND
8
0
0
POLYLINE
8
0
62
5
66
1
10
0
20
0
30
0
70
8
0
VERTEX
8
0
62
5
10
0.42426427
20
0.97678222
30
0
70
32
0
VERTEX
8
0
62
5
10
0.42426427
20
1.0621377
30
0
70
32
0
SEQEND
8
0
0
POLYLINE
8
0
62
5
66
1
10
0
20
0
30
0
70
8
0
VERTEX
8
0
62
5
10
0.49497494
20
0.97678222
30
0
70
32
0
VERTEX
8
0
62
5
10
0.49497494
20
1.0621377
30
0
70
32
0
SEQEND
8
0
0
POLYLINE
8
0
62
30
66
1
10
0
20
0
30
0
70
8
0
VERTEX
8
0
62
30
10
0.28284291
20
0.97678222
30
0
70
32
0
VERTEX
8
0
62
30
10
0.28284291
20
0.97678222
30
0
70
32
0
VERTEX
8
0
62
30
10
0.28284291
20
0.97678222
30
0
70
32
0
SEQEND
8
0
0
POLYLINE
8
0
62
30
66
1
10
0
20
0
30
0
70
8
0
VERTEX
8
0
62
30
10
0.35355359
20
0.97678202
30
0
70
32
0
VERTEX
8
0
62
30
10
0.35355406
20
0.97678222
30
0
70
32
0
VERTEX
8
0
62
30
10
0.35355359
20
0.97678241
30
0
70
32
0
SEQEND
8
0
0
POLYLINE
8
0
62
30
66
1
10
0
20
0
30
0
70
8
0
VERTEX
8
0
62
30
10
0.42426427
20
0.90607134
30
0
70
32
0
VERTEX
8
0
62
30
10
0.45355364
20
0.97678222
30
0
70
32
0
VERTEX
8
0
62
30
10
0.42426427
20
1.0474931
30
0
70
32
0
SEQEND
8
0
0
POLYLINE
8
0
62
30
66
1
10
0
20
0
30
0
70
8
0
VERTEX
8
0
62
30
10
0.49497494
20
0.90607154
30
0
70
32
0
VERTEX
8
0
62
30
10
0.5242643
20
0.97678222
30
0
70
32
0
VERTEX
8
0
62
30
10
0.49497494
20
1.0474929
30
0
70
32
0
SEQEND
8
0
0
POLYLINE
8
0
62
5
66
1
10
0
20
0
30
0
70
8
0
VERTEX
8
0
62
5
10
-0.28284251
20
0.89142678
30
0
70
32
0
VERTEX
8
0
62
5
10
-0.28284251
20
1.0621377
30
0
70
32
0
SEQEND
8
0
0
POLYLINE
8
0
62
5
66
1
10
0
20
0
30
0
70
8
0
VERTEX
8
0
62
5
10
-0.28284251
20
0.97678222
30
0
70
32
0
VERTEX
8
0
62
5
10
-0.21213184
20
0.97678202
30
0
70
32
0
VERTEX
8
0
62
5
10
-0.14142116
20
0.90607134
30
0
70
32
0
VERTEX
8
0
62
5
10
-0.070710481
20
0.90607154
30
0
70
32
0
VERTEX
8
0
62
5
10
1.9748914e-07
20
0.97678222
30
0
70
32
0
SEQEND
8
0
0
POLYLINE
8
0
62
5
66
1
10
0
20
0
30
0
70
8
0
SEQEND
8
0
0
POLYLINE
8
0
62
5
66
1
10
0
20
0
30
0
70
8
0
VERTEX
8
0
62
5
10
-0.28284251
20
0.97678222
30
0
70
32
0
VERTEX
8
0
62
5
10
-0.21213184
20
0.97678241
30
0
70
32
0
VERTEX
8
0
62
5
10
-0.14142116
20
1.0474931
30
0
70
32
0
VERTEX
8
0
62
5
10
-0.070710481
20
1.0474929
30
0
70
32
0
VERTEX
8
0
62
5
10
1.9748914e-07
20
0.97678222
30
0
70
32
0
SEQEND
8
0
0
POLYLINE
8
0
62
30
66
1
10
0
20
0
30
0
70
8
0
VERTEX
8
0
62
30
10
-0.28284251
20
0.97678222
30
0
70
32
0
VERTEX
8
0
62
30
10
1.9748914e-07
20
0.97678222
30
0
70
32
0
SEQEND
8
0
0
POLYLINE
8
0
62
30
66
1
10
0
20
0
30
0
70
8
0
VERTEX
8
0
62
30
10
-0.21213184
20
0.97678202
30
0
70
32
0
VERTEX
8
0
62
30
10
-0.21213184
20
0.97678222
30
0
70
32
0
SEQEND
8
0
0
POLYLINE
8
0
62
30
66
1
10
0
20
0
30
0
70
8
0
VERTEX
8
0
62
30
10
-0.14142116
20
0.90607134
30
0
70
32
0
VERTEX
8
0
62
30
10
-0.14142116
20
0.97678222
30
0
70
32
0
SEQEND
8
0
0
POLYLINE
8
0
62
30
66
1
10
0
20
0
30
0
70
8
0
VERTEX
8
0
62
30
10
-0.070710481
20
0.90607154
30
0
70
32
0
VERTEX
8
0
62
30
10
-0.070710481
20
0.97678222
30
0
70
32
0
SEQEND
8
0
0
POLYLINE
8
0
62
5
66
1
10
0
20
0
30
0
70
8
0
VERTEX
8
0
62
5
10
-0.21213184
20
0.89142678
30
0
70
32
0
VERTEX
8
0
62
5
10
-0.21213184
20
0.97678202
30
0
70
32
0
SEQEND
8
0
0
POLYLINE
8
0
62
5
66
1
10
0
20
0
30
0
70
8
0
VERTEX
8
0
62
5
10
-0.14142116
20
0.89142678
30
0
70
32
0
VERTEX
8
0
62
5
10
-0.14142116
20
0.90607134
30
0
70
32
0
SEQEND
8
0
0
POLYLINE
8
0
62
5
66
1
10
0
20
0
30
0
70
8
0
VERTEX
8
0
62
5
10
-0.070710481
20
0.89142678
30
0
70
32
0
VERTEX
8
0
62
5
10
-0.070710481
20
0.90607154
30
0
70
32
0
SEQEND
8
0
0
POLYLINE
8
0
62
5
66
1
10
0
20
0
30
0
70
8
0
VERTEX
8
0
62
5
10
-0.21213184
20
0.97678222
30
0
70
32
0
VERTEX
8
0
62
5
10
-0.21213184
20
1.0621377
30
0
70
32
0
SEQEND
8
0
0
POLYLINE
8
0
62
5
66
1
10
0
20
0
30
0
70
8
0
VERTEX
8
0
62
5
10
-0.14142116
20
0.97678222
30
0
70
32
0
VERTEX
8
0
62
5
10
-0.14142116
20
1.0621377
30
0
70
32
0
SEQEND
8
0
0
POLYLINE
8
0
62
5
66
1
10
0
20
0
30
0
70
8
0
VERTEX
8
0
62
5
10
-0.070710481
20
0.97678222
30
0
70
32
0
VERTEX
8
0
62
5
10
-0.070710481
20
1.0621377
30
0
70
32
0
SEQEND
8
0
0
POLYLINE
8
0
62
30
66
1
10
0
20
0
30
0
70
8
0
VERTEX
8
0
62
30
10
-0.28284251
20
0.97678222
30
0
70
32
0
VERTEX
8
0
62
30
10
-0.28284251
20
0.97678222
30
0
70
32
0
VERTEX
8
0
62
30
10
-0.28284251
20
0.97678222
30
0
70
32
0
SEQEND
8
0
0
POLYLINE
8
0
62
30
66
1
10
0
20
0
30
0
70
8
0
VERTEX
8
0
62
30
10
-0.21213184
20
0.97678202
30
0
70
32
0
VERTEX
8
0
62
30
10
-0.21213136
20
0.97678222
30
0
70
32
0
VERTEX
8
0
62
30
10
-0.21213184
20
0.97678241
30
0
70
32
0
SEQEND
8
0
0
POLYLINE
8
0
62
30
66
1
10
0
20
0
30
0
70
8
0
VERTEX
8
0
62
30
10
-0.14142116
20
0.90607134
30
0
70
32
0
VERTEX
8
0
62
30
10
-0.11213179
20
0.97678222
30
0
70
32
0
VERTEX
8
0
62
30
10
-0.14142116
20
1.0474931
30
0
70
32
0
SEQEND
8
0
0
POLYLINE
8
0
62
30
66
1
10
0
20
0
30
0
70
8
0
VERTEX
8
0
62
30
10
-0.070710481
20
0.90607154
30
0
70
32
0
VERTEX
8
0
62
30
10
-0.041421125
20
0.97678222
30
0
70
32
0
VERTEX
8
0
62
30
10
-0.070710481
20
1.0474929
30
0
70
32
0
SEQEND
8
0
0
POLYLINE
8
0
62
5
66
1
10
0
20
0
30
0
70
8
0
VERTEX
8
0
62
5
10
1.9748914e-07
20
1.0621377
30
0
70
32
0
VERTEX
8
0
62
5
10
1.9748914e-07
20
1.0631377
30
0
70
32
0
SEQEND
8
0
0
POLYLINE
8
0
62
5
66
1
10
0
20
0
30
0
70
8
0
VERTEX
8
0
62
5
10
0.28284291
20
1.0621377
30
0
70
32
0
VERTEX
8
0
62
5
10
0.28284291
20
1.0631377
30
0
70
32
0
SEQEND
8
0
0
POLYLINE
8
0
62
5
66
1
10
0
20
0
30
0
70
8
0
VERTEX
8
0
62
5
10
0.070710876
20
1.0621377
30
0
70
32
0
VERTEX
8
0
62
5
10
0.070710876
20
1.0631377
30
0
70
32
0
SEQEND
8
0
0
POLYLINE
8
0
62
5
66
1
10
0
20
0
30
0
70
8
0
VERTEX
8
0
62
5
10
0.14142155
20
1.0621377
30
0
70
32
0
VERTEX
8
0
62
5
10
0.14142155
20
1.0631377
30
0
70
32
0
SEQEND
8
0
0
POLYLINE
8
0
62
5
66
1
10
0
20
0
30
0
70
8
0
VERTEX
8
0
62
5
10
0.21213223
20
1.0621377
30
0
70
32
0
VERTEX
8
0
62
5
10
0.21213223
20
1.0631377
30
0
70
32
0
SEQEND
8
0
0
POLYLINE
8
0
62
5
66
1
10
0
20
0
30
0
70
8
0
VERTEX
8
0
62
5
10
0.56568562
20
1.0621377
30
0
70
32
0
VERTEX
8
0
62
5
10
0.56568562
20
1.0631377
30
0
70
32
0
SEQEND
8
0
0
POLYLINE
8
0
62
5
66
1
10
0
20
0
30
0
70
8
0
VERTEX
8
0
62
5
10
0.35355359
20
1.0621377
30
0
70
32
0
VERTEX
8
0
62
5
10
0.35355359
20
1.0631377
30
0
70
32
0
SEQEND
8
0
0
POLYLINE
8
0
62
5
66
1
10
0
20
0
30
0
70
8
0
VERTEX
8
0
62
5
10
0.42426427
20
1.0621377
30
0
70
32
0
VERTEX
8
0
62
5
10
0.42426427
20
1.0631377
30
0
70
32
0
SEQEND
8
0
0
POLYLINE
8
0
62
5
66
1
10
0
20
0
30
0
70
8
0
VERTEX
8
0
62
5
10
0.49497494
20
1.0621377
30
0
70
32
0
VERTEX
8
0
62
5
10
0.49497494
20
1.0631377
30
0
70
32
0
SEQEND
8
0
0
POLYLINE
8
0
62
5
66
1
10
0
20
0
30
0
70
8
0
VERTEX
8
0
62
5
10
-0.28284251
20
1.0621377
30
0
70
32
0
VERTEX
8
0
62
5
10
-0.28284251
20
1.0631377
30
0
70
32
0
SEQEND
8
0
0
POLYLINE
8
0
62
5
66
1
10
0
20
0
30
0
70
8
0
VERTEX
8
0
62
5
10
-0.21213184
20
1.0621377
30
0
70
32
0
VERTEX
8
0
62
5
10
-0.21213184
20
1.0631377
30
0
70
32
0
SEQEND
8
0
0
POLYLINE
8
0
62
5
66
1
10
0
20
0
30
0
70
8
0
VERTEX
8
0
62
5
10
-0.14142116
20
1.0621377
30
0
70
32
0
VERTEX
8
0
62
5
10
-0.14142116
20
1.0631377
30
0
70
32
0
SEQEND
8
0
0
POLYLINE
8
0
62
5
66
1
10
0
20
0
30
0
70
8
0
VERTEX
8
0
62
5
10
-0.070710481
20
1.0621377
30
0
70
32
0
VERTEX
8
0
62
5
10
-0.070710481
20
1.0631377
30
0
70
32
0
SEQEND
8
0
0
POLYLINE
8
0
62
5
66
1
10
0
20
0
30
0
70
8
0
VERTEX
8
0
62
5
10
1.9748914e-07
20
1.0631377
30
0
70
32
0
VERTEX
8
0
62
5
10
1.9748914e-07
20
1.2338483
30
0
70
32
0
SEQEND
8
0
0
POLYLINE
8
0
62
5
66
1
10
0
20
0
30
0
70
8
0
VERTEX
8
0
62
5
10
0.28284291
20
1.2338483
30
0
70
32
0
VERTEX
8
0
62
5
10
0.28284291
20
1.0631377
30
0
70
32
0
SEQEND
8
0
0
POLYLINE
8
0
62
5
66
1
10
0
20
0
30
0
70
8
0
VERTEX
8
0
62
5
10
1.9748914e-07
20
1.0777823
30
0
70
32
0
VERTEX
8
0
62
5
10
0.070710876
20
1.148493
30
0
70
32
0
VERTEX
8
0
62
5
10
0.14142155
20
1.148493
30
0
70
32
0
VERTEX
8
0
62
5
10
0.21213223
20
1.0777823
30
0
70
32
0
VERTEX
8
0
62
5
10
0.28284291
20
1.0777823
30
0
70
32
0
SEQEND
8
0
0
POLYLINE
8
0
62
5
66
1
10
0
20
0
30
0
70
8
0
SEQEND
8
0
0
POLYLINE
8
0
62
5
66
1
10
0
20
0
30
0
70
8
0
VERTEX
8
0
62
5
10
1.9748914e-07
20
1.2192037
30
0
70
32
0
VERTEX
8
0
62
5
10
0.070710876
20
1.148493
30
0
70
32
0
VERTEX
8
0
62
5
10
0.14142155
20
1.148493
30
0
70
32
0
VERTEX
8
0
62
5
10
0.21213223
20
1.2192037
30
0
70
32
0
VERTEX
8
0
62
5
10
0.28284291
20
1.2192037
30
0
70
32
0
SEQEND
8
0
0
POLYLINE
8
0
62
30
66
1
10
0
20
0
30
0
70
8
0
VERTEX
8
0
62
30
10
1.9748914e-07
20
1.148493
30
0
70
32
0
VERTEX
8
0
62
30
10
0.28284291
20
1.148493
30
0
70
32
0
SEQEND
8
0
0
POLYLINE
8
0
62
30
66
1
10
0
20
0
30
0
70
8
0
VERTEX
8
0
62
30
10
0.070710876
20
1.148493
30
0
70
32
0
VERTEX
8
0
62
30
10
0.070710876
20
1.148493
30
0
70
32
0
SEQEND
8
0
0
POLYLINE
8
0
62
30
66
1
10
0
20
0
30
0
70
8
0
VERTEX
8
0
62
30
10
0.14142155
20
1.148493
30
0
70
32
0
VERTEX
8
0
62
30
10
0.14142155
20
1.148493
30
0
70
32
0
SEQEND
8
0
0
POLYLINE
8
0
62
30
66
1
10
0
20
0
30
0
70
8
0
VERTEX
8
0
62
30
10
0.21213223
20
1.0777823
30
0
70
32
0
VERTEX
8
0
62
30
10
0.21213223
20
1.148493
30
0
70
32
0
SEQEND
8
0
0
POLYLINE
8
0
62
5
66
1
10
0
20
0
30
0
70
8
0
VERTEX
8
0
62
5
10
0.070710876
20
1.0631377
30
0
70
32
0
VERTEX
8
0
62
5
10
0.070710876
20
1.148493
30
0
70
32
0
SEQEND
8
0
0
POLYLINE
8
0
62
5
66
1
10
0
20
0
30
0
70
8
0
VERTEX
8
0
62
5
10
0.14142155
20
1.0631377
30
0
70
32
0
VERTEX
8
0
62
5
10
0.14142155
20
1.148493
30
0
70
32
0
SEQEND
8
0
0
POLYLINE
8
0
62
5
66
1
10
0
20
0
30
0
70
8
0
VERTEX
8
0
62
5
10
0.21213223
20
1.0631377
30
0
70
32
0
VERTEX
8
0
62
5
10
0.21213223
20
1.0777823
30
0
70
32
0
SEQEND
8
0
0
POLYLINE
8
0
62
5
66
1
10
0
20
0
30
0
70
8
0
VERTEX
8
0
62
5
10
0.070710876
20
1.148493
30
0
70
32
0
VERTEX
8
0
62
5
10
0.070710876
20
1.2338483
30
0
70
32
0
SEQEND
8
0
0
POLYLINE
8
0
62
5
66
1
10
0
20
0
30
0
70
8
0
VERTEX
8
0
62
5
10
0.14142155
20
1.148493
30
0
70
32
0
VERTEX
8
0
62
5
10
0.14142155
20
1.2338483
30
0
70
32
0
SEQEND
8
0
0
POLYLINE
8
0
62
5
66
1
10
0
20
0
30
0
70
8
0
VERTEX
8
0
62
5
10
0.21213223
20
1.148493
30
0
70
32
0
VERTEX
8
0
62
5
10
0.21213223
20
1.2338483
30
0
70
32
0
SEQEND
8
0
0
POLYLINE
8
0
62
30
66
1
10
0
20
0
30
0
70
8
0
VERTEX
8
0
62
30
10
1.9748914e-07
20
1.0777823
30
0
70
32
0
VERTEX
8
0
62
30
10
0.029289519
20
1.148493
30
0
70
32
0
VERTEX
8
0
62
30
10
1.9748914e-07
20
1.2192037
30
0
70
32
0
SEQEND
8
0
0
POLYLINE
8
0
62
30
66
1
10
0
20
0
30
0
70
8
0
VERTEX
8
0
62
30
10
0.070710876
20
1.148493
30
0
70
32
0
VERTEX
8
0
62
30
10
0.070710876
20
1.148493
30
0
70
32
0
VERTEX
8
0
62
30
10
0.070710876
20
1.148493
30
0
70
32
0
SEQEND
8
0
0
POLYLINE
8
0
62
30
66
1
10
0
20
0
30
0
70
8
0
VERTEX
8
0
62
30
10
0.14142155
20
1.148493
30
0
70
32
0
VERTEX
8
0
62
30
10
0.14142155
20
1.148493
30
0
70
32
0
VERTEX
8
0
62
30
10
0.14142155
20
1.148493
30
0
70
32
0
SEQEND
8
0
0
POLYLINE
8
0
62
30
66
1
10
0
20
0
30
0
70
8
0
VERTEX
8
0
62
30
10
0.21213223
20
1.0777823
30
0
70
32
0
VERTEX
8
0
62
30
10
0.24142155
20
1.148493
30
0
70
32
0
VERTEX
8
0
62
30
10
0.21213223
20
1.2192037
30
0
70
32
0
SEQEND
8
0
0
POLYLINE
8
0
62
5
66
1
10
0
20
0
30
0
70
8
0
VERTEX
8
0
62
5
10
0.56568562
20
1.2338483
30
0
70
32
0
VERTEX
8
0
62
5
10
0.56568562
20
1.0631377
30
0
70
32
0
SEQEND
8
0
0
POLYLINE
8
0
62
5
66
1
10
0
20
0
30
0
70
8
0
VERTEX
8
0
62
5
10
0.28284291
20
1.0777823
30
0
70
32
0
VERTEX
8
0
62
5
10
0.35355359
20
1.148493
30
0
70
32
0
VERTEX
8
0
62
5
10
0.42426427
20
1.148493
30
0
70
32
0
VERTEX
8
0
62
5
10
0.49497494
20
1.0777823
30
0
70
32
0
VERTEX
8
0
62
5
10
0.56568562
20
1.0777823
30
0
70
32
0
SEQEND
8
0
0
POLYLINE
8
0
62
5
66
1
10
0
20
0
30
0
70
8
0
SEQEND
8
0
0
POLYLINE
8
0
62
5
66
1
10
0
20
0
30
0
70
8
0
VERTEX
8
0
62
5
10
0.28284291
20
1.2192037
30
0
70
32
0
VERTEX
8
0
62
5
10
0.35355359
20
1.148493
30
0
70
32
0
VERTEX
8
0
62
5
10
0.42426427
20
1.148493
30
0
70
32
0
VERTEX
8
0
62
5
10
0.49497494
20
1.2192037
30
0
70
32
0
VERTEX
8
0
62
5
10
0.56568562
20
1.2192037
30
0
70
32
0
SEQEND
8
0
0
POLYLINE
8
0
62
30
66
1
10
0
20
0
30
0
70
8
0
VERTEX
8
0
62
30
10
0.28284291
20
1.148493
30
0
70
32
0
VERTEX
8
0
62
30
10
0.56568562
20
1.148493
30
0
70
32
0
SEQEND
8
0
0
POLYLINE
8
0
62
30
66
1
10
0
20
0
30
0
70
8
0
VERTEX
8
0
62
30
10
0.35355359
20
1.148493
30
0
70
32
0
VERTEX
8
0
62
30
10
0.35355359
20
1.148493
30
0
70
32
0
SEQEND
8
0
0
POLYLINE
8
0
62
30
66
1
10
0
20
0
30
0
70
8
0
VERTEX
8
0
62
30
10
0.42426427
20
1.148493
30
0
70
32
0
VERTEX
8
0
62
30
10
0.42426427
20
1.148493
30
0
70
32
0
SEQEND
8
0
0
POLYLINE
8
0
62
30
66
1
10
0
20
0
30
0
70
8
0
VERTEX
8
0
62
30
10
0.49497494
20
1.0777823
30
0
70
32
0
VERTEX
8
0
62
30
10
0.49497494
20
1.148493
30
0
70
32
0
SEQEND
8
0
0
POLYLINE
8
0
62
5
66
1
10
0
20
0
30
0
70
8
0
VERTEX
8
0
62
5
10
0.35355359
20
1.0631377
30
0
70
32
0
VERTEX
8
0
62
5
10
0.35355359
20
1.148493
30
0
70
32
0
SEQEND
8
0
0
POLYLINE
8
0
62
5
66
1
10
0
20
0
30
0
70
8
0
VERTEX
8
0
62
5
10
0.42426427
20
1.0631377
30
0
70
32
0
VERTEX
8
0
62
5
10
0.42426427
20
1.148493
30
0
70
32
0
SEQEND
8
0
0
POLYLINE
8
0
62
5
66
1
10
0
20
0
30
0
70
8
0
VERTEX
8
0
62
5
10
0.49497494
20
1.0631377
30
0
70
32
0
VERTEX
8
0
62
5
10
0.49497494
20
1.0777823
30
0
70
32
0
SEQEND
8
0
0
POLYLINE
8
0
62
5
66
1
10
0
20
0
30
0
70
8
0
VERTEX
8
0
62
5
10
0.35355359
20
1.148493
30
0
70
32
0
VERTEX
8
0
62
5
10
0.35355359
20
1.2338483
30
0
70
32
0
SEQEND
8
0
0
POLYLINE
8
0
62
5
66
1
10
0
20
0
30
0
70
8
0
VERTEX
8
0
62
5
10
0.42426427
20
1.148493
30
0
70
32
0
VERTEX
8
0
62
5
10
0.42426427
20
1.2338483
30
0
70
32
0
SEQEND
8
0
0
POLYLINE
8
0
62
5
66
1
10
0
20
0
30
0
70
8
0
VERTEX
8
0
62
5
10
0.49497494
20
1.148493
30
0
70
32
0
VERTEX
8
0
62
5
10
0.49497494
20
1.2338483
30
0
70
32
0
SEQEND
8
0
0
POLYLINE
8
0
62
30
66
1
10
0
20
0
30
0
70
8
0
VERTEX
8
0
62
30
10
0.28284291
20
1.0777823
30
0
70
32
0
VERTEX
8
0
62
30
10
0.31213223
20
1.148493
30
0
70
32
0
VERTEX
8
0
62
30
10
0.28284291
20
1.2192037
30
0
70
32
0
SEQEND
8
0
0
POLYLINE
8
0
62
30
66
1
10
0
20
0
30
0
70
8
0
VERTEX
8
0
62
30
10
0.35355359
20
1.148493
30
0
70
32
0
VERTEX
8
0
62
30
10
0.35355359
20
1.148493
30
0
70
32
0
VERTEX
8
0
62
30
10
0.35355359
20
1.148493
30
0
70
32
0
SEQEND
8
0
0
POLYLINE
8
0
62
30
66
1
10
0
20
0
30
0
70
8
0
VERTEX
8
0
62
30
10
0.42426427
20
1.148493
30
0
70
32
0
VERTEX
8
0
62
30
10
0.42426427
20
1.148493
30
0
70
32
0
VERTEX
8
0
62
30
10
0.42426427
20
1.148493
30
0
70
32
0
SEQEND
8
0
0
POLYLINE
8
0
62
30
66
1
10
0
20
0
30
0
70
8
0
VERTEX
8
0
62
30
10
0.49497494
20
1.0777823
30
0
70
32
0
VERTEX
8
0
62
30
10
0.52426427
20
1.148493
30
0
70
32
0
VERTEX
8
0
62
30
10
0.49497494
20
1.2192037
30
0
70
32
0
SEQEND
8
0
0
POLYLINE
8
0
62
5
66
1
10
0
20
0
30
0
70
8
0
VERTEX
8
0
62
5
10
-0.28284251
20
1.0631377
30
0
70
32
0
VERTEX
8
0
62
5
10
-0.28284251
20
1.2338483
30
0
70
32
0
SEQEND
8
0
0
POLYLINE
8
0
62
5
66
1
10
0
20
0
30
0
70
8
0
VERTEX
8
0
62
5
10
-0.28284251
20
1.0777823
30
0
70
32
0
VERTEX
8
0
62
5
10
-0.21213184
20
1.148493
30
0
70
32
0
VERTEX
8
0
62
5
10
-0.14142116
20
1.148493
30
0
70
32
0
VERTEX
8
0
62
5
10
-0.070710481
20
1.0777823
30
0
70
32
0
VERTEX
8
0
62
5
10
1.9748914e-07
20
1.0777823
30
0
70
32
0
SEQEND
8
0
0
POLYLINE
8
0
62
5
66
1
10
0
20
0
30
0
70
8
0
SEQEND
8
0
0
POLYLINE
8
0
62
5
66
1
10
0
20
0
30
0
70
8
0
VERTEX
8
0
62
5
10
-0.28284251
20
1.2192037
30
0
70
32
0
VERTEX
8
0
62
5
10
-0.21213184
20
1.148493
30
0
70
32
0
VERTEX
8
0
62
5
10
-0.14142116
20
1.148493
30
0
70
32
0
VERTEX
8
0
62
5
10
-0.070710481
20
1.2192037
30
0
70
32
0
VERTEX
8
0
62
5
10
1.9748914e-07
20
1.2192037
30
0
70
32
0
SEQEND
8
0
0
POLYLINE
8
0
62
30
66
1
10
0
20
0
30
0
70
8
0
VERTEX
8
0
62
30
10
-0.28284251
20
1.148493
30
0
70
32
0
VERTEX
8
0
62
30
10
1.9748914e-07
20
1.148493
30
0
70
32
0
SEQEND
8
0
0
POLYLINE
8
0
62
30
66
1
10
0
20
0
30
0
70
8
0
VERTEX
8
0
62
30
10
-0.21213184
20
1.148493
30
0
70
32
0
VERTEX
8
0
62
30
10
-0.21213184
20
1.148493
30
0
70
32
0
SEQEND
8
0
0
POLYLINE
8
0
62
30
66
1
10
0
20
0
30
0
70
8
0
VERTEX
8
0
62
30
10
-0.14142116
20
1.148493
30
0
70
32
0
VERTEX
8
0
62
30
10
-0.14142116
20
1.148493
30
0
70
32
0
SEQEND
8
0
0
POLYLINE
8
0
62
30
66
1
10
0
20
0
30
0
70
8
0
VERTEX
8
0
62
30
10
-0.070710481
20
1.0777823
30
0
70
32
0
VERTEX
8
0
62
30
10
-0.070710481
20
1.148493
30
0
70
32
0
SEQEND
8
0
0
POLYLINE
8
0
62
5
66
1
10
0
20
0
30
0
70
8
0
VERTEX
8
0
62
5
10
-0.21213184
20
1.0631377
30
0
70
32
0
VERTEX
8
0
62
5
10
-0.21213184
20
1.148493
30
0
70
32
0
SEQEND
8
0
0
POLYLINE
8
0
62
5
66
1
10
0
20
0
30
0
70
8
0
VERTEX
8
0
62
5
10
-0.14142116
20
1.0631377
30
0
70
32
0
VERTEX
8
0
62
5
10
-0.14142116
20
1.148493
30
0
70
32
0
SEQEND
8
0
0
POLYLINE
8
0
62
5
66
1
10
0
20
0
30
0
70
8
0
VERTEX
8
0
62
5
10
-0.070710481
20
1.0631377
30
0
70
32
0
VERTEX
8
0
62
5
10
-0.070710481
20
1.0777823
30
0
70
32
0
SEQEND
8
0
0
POLYLINE
8
0
62
5
66
1
10
0
20
0
30
0
70
8
0
VERTEX
8
0
62
5
10
-0.21213184
20
1.148493
30
0
70
32
0
VERTEX
8
0
62
5
10
-0.21213184
20
1.2338483
30
0
70
32
0
SEQEND
8
0
0
POLYLINE
8
0
62
5
66
1
10
0
20
0
30
0
70
8
0
VERTEX
8
0
62
5
10
-0.14142116
20
1.148493
30
0
70
32
0
VERTEX
8
0
62
5
10
-0.14142116
20
1.2338483
30
0
70
32
0
SEQEND
8
0
0
POLYLINE
8
0
62
5
66
1
10
0
20
0
30
0
70
8
0
VERTEX
8
0
62
5
10
-0.070710481
20
1.148493
30
0
70
32
0
VERTEX
8
0
62
5
10
-0.070710481
20
1.2338483
30
0
70
32
0
SEQEND
8
0
0
POLYLINE
8
0
62
30
66
1
10
0
20
0
30
0
70
8
0
VERTEX
8
0
62
30
10
-0.28284251
20
1.0777823
30
0
70
32
0
VERTEX
8
0
62
30
10
-0.25355319
20
1.148493
30
0
70
32
0
VERTEX
8
0
62
30
10
-0.28284251
20
1.2192037
30
0
70
32
0
SEQEND
8
0
0
POLYLINE
8
0
62
30
66
1
10
0
20
0
30
0
70
8
0
VERTEX
8
0
62
30
10
-0.21213184
20
1.148493
30
0
70
32
0
VERTEX
8
0
62
30
10
-0.21213184
20
1.148493
30
0
70
32
0
VERTEX
8
0
62
30
10
-0.21213184
20
1.148493
30
0
70
32
0
SEQEND
8
0
0
POLYLINE
8
0
62
30
66
1
10
0
20
0
30
0
70
8
0
VERTEX
8
0
62
30
10
-0.14142116
20
1.148493
30
0
70
32
0
VERTEX
8
0
62
30
10
-0.14142116
20
1.148493
30
0
70
32
0
VERTEX
8
0
62
30
10
-0.14142116
20
1.148493
30
0
70
32
0
SEQEND
8
0
0
POLYLINE
8
0
62
30
66
1
10
0
20
0
30
0
70
8
0
VERTEX
8
0
62
30
10
-0.070710481
20
1.0777823
30
0
70
32
0
VERTEX
8
0
62
30
10
-0.041421159
20
1.148493
30
0
70
32
0
VERTEX
8
0
62
30
10
-0.070710481
20
1.2192037
30
0
70
32
0
SEQEND
8
0
0
POLYLINE
8
0
62
5
66
1
10
0
20
0
30
0
70
8
0
VERTEX
8
0
62
5
10
1.9748914e-07
20
1.2338483
30
0
70
32
0
VERTEX
8
0
62
5
10
1.9748914e-07
20
1.2516009
30
0
70
32
0
SEQEND
8
0
0
POLYLINE
8
0
62
5
66
1
10
0
20
0
30
0
70
8
0
VERTEX
8
0
62
5
10
0.070710876
20
1.2338483
30
0
70
32
0
VERTEX
8
0
62
5
10
0.070710876
20
1.2516009
30
0
70
32
0
SEQEND
8
0
0
POLYLINE
8
0
62
5
66
1
10
0
20
0
30
0
70
8
0
VERTEX
8
0
62
5
10
0.14142155
20
1.2338483
30
0
70
32
0
VERTEX
8
0
62
5
10
0.14142155
20
1.2516009
30
0
70
32
0
SEQEND
8
0
0
POLYLINE
8
0
62
5
66
1
10
0
20
0
30
0
70
8
0
VERTEX
8
0
62
5
10
0.21213223
20
1.2338483
30
0
70
32
0
VERTEX
8
0
62
5
10
0.21213223
20
1.2516009
30
0
70
32
0
SEQEND
8
0
0
POLYLINE
8
0
62
5
66
1
10
0
20
0
30
0
70
8
0
VERTEX
8
0
62
5
10
0.28284291
20
1.2338483
30
0
70
32
0
VERTEX
8
0
62
5
10
0.28284291
20
1.2516009
30
0
70
32
0
SEQEND
8
0
0
POLYLINE
8
0
62
5
66
1
10
0
20
0
30
0
70
8
0
VERTEX
8
0
62
5
10
0.070710876
20
1.2338483
30
0
70
32
0
VERTEX
8
0
62
5
10
0.070710876
20
1.2338483
30
0
70
32
0
SEQEND
8
0
0
POLYLINE
8
0
62
5
66
1
10
0
20
0
30
0
70
8
0
VERTEX
8
0
62
5
10
0.14142155
20
1.2338483
30
0
70
32
0
VERTEX
8
0
62
5
10
0.14142155
20
1.2338483
30
0
70
32
0
SEQEND
8
0
0
POLYLINE
8
0
62
5
66
1
10
0
20
0
30
0
70
8
0
VERTEX
8
0
62
5
10
0.21213223
20
1.2338483
30
0
70
32
0
VERTEX
8
0
62
5
10
0.21213223
20
1.2338483
30
0
70
32
0
SEQEND
8
0
0
POLYLINE
8
0
62
5
66
1
10
0
20
0
30
0
70
8
0
VERTEX
8
0
62
5
10
1.9750004e-07
20
1.2516009
30
0
70
32
0
VERTEX
8
0
62
5
10
1.9750004e-07
20
1.2516009
30
0
70
32
0
SEQEND
8
0
0
POLYLINE
8
0
62
5
66
1
10
0
20
0
30
0
70
8
0
VERTEX
8
0
62
5
10
0.070710876
20
1.2516009
30
0
70
32
0
VERTEX
8
0
62
5
10
0.070710876
20
1.2516009
30
0
70
32
0
SEQEND
8
0
0
POLYLINE
8
0
62
5
66
1
10
0
20
0
30
0
70
8
0
VERTEX
8
0
62
5
10
0.14142155
20
1.2516009
30
0
70
32
0
VERTEX
8
0
62
5
10
0.14142155
20
1.2516009
30
0
70
32
0
SEQEND
8
0
0
POLYLINE
8
0
62
5
66
1
10
0
20
0
30
0
70
8
0
VERTEX
8
0
62
5
10
0.21213223
20
1.2516009
30
0
70
32
0
VERTEX
8
0
62
5
10
0.21213223
20
1.2516009
30
0
70
32
0
SEQEND
8
0
0
POLYLINE
8
0
62
5
66
1
10
0
20
0
30
0
70
8
0
VERTEX
8
0
62
5
10
0.35355359
20
1.2338483
30
0
70
32
0
VERTEX
8
0
62
5
10
0.35355359
20
1.2516009
30
0
70
32
0
SEQEND
8
0
0
POLYLINE
8
0
62
5
66
1
10
0
20
0
30
0
70
8
0
VERTEX
8
0
62
5
10
0.42426427
20
1.2338483
30
0
70
32
0
VERTEX
8
0
62
5
10
0.42426427
20
1.2516009
30
0
70
32
0
SEQEND
8
0
0
POLYLINE
8
0
62
5
66
1
10
0
20
0
30
0
70
8
0
VERTEX
8
0
62
5
10
0.49497494
20
1.2338483
30
0
70
32
0
VERTEX
8
0
62
5
10
0.49497494
20
1.2516009
30
0
70
32
0
SEQEND
8
0
0
POLYLINE
8
0
62
5
66
1
10
0
20
0
30
0
70
8
0
VERTEX
8
0
62
5
10
0.56568562
20
1.2338483
30
0
70
32
0
VERTEX
8
0
62
5
10
0.56568562
20
1.2516009
30
0
70
32
0
SEQEND
8
0
0
POLYLINE
8
0
62
5
66
1
10
0
20
0
30
0
70
8
0
VERTEX
8
0
62
5
10
0.35355359
20
1.2338483
30
0
70
32
0
VERTEX
8
0
62
5
10
0.35355359
20
1.2338483
30
0
70
32
0
SEQEND
8
0
0
POLYLINE
8
0
62
5
66
1
10
0
20
0
30
0
70
8
0
VERTEX
8
0
62
5
10
0.42426427
20
1.2338483
30
0
70
32
0
VERTEX
8
0
62
5
10
0.42426427
20
1.2338483
30
0
70
32
0
SEQEND
8
0
0
POLYLINE
8
0
62
5
66
1
10
0
20
0
30
0
70
8
0
VERTEX
8
0
62
5
10
0.49497494
20
1.2338483
30
0
70
32
0
VERTEX
8
0
62
5
10
0.49497494
20
1.2338483
30
0
70
32
0
SEQEND
8
0
0
POLYLINE
8
0
62
5
66
1
10
0
20
0
30
0
70
8
0
VERTEX
8
0
62
5
10
0.28284291
20
1.2516009
30
0
70
32
0
VERTEX
8
0
62
5
10
0.28284291
20
1.2516009
30
0
70
32
0
SEQEND
8
0
0
POLYLINE
8
0
62
5
66
1
10
0
20
0
30
0
70
8
0
VERTEX
8
0
62
5
10
0.35355359
20
1.2516009
30
0
70
32
0
VERTEX
8
0
62
5
10
0.35355359
20
1.2516009
30
0
70
32
0
SEQEND
8
0
0
POLYLINE
8
0
62
5
66
1
10
0
20
0
30
0
70
8
0
VERTEX
8
0
62
5
10
0.42426427
20
1.2516009
30
0
70
32
0
VERTEX
8
0
62
5
10
0.42426427
20
1.2516009
30
0
70
32
0
SEQEND
8
0
0
POLYLINE
8
0
62
5
66
1
10
0
20
0
30
0
70
8
0
VERTEX
8
0
62
5
10
0.49497494
20
1.2516009
30
0
70
32
0
VERTEX
8
0
62
5
10
0.49497494
20
1.2516009
30
0
70
32
0
SEQEND
8
0
0
POLYLINE
8
0
62
5
66
1
10
0
20
0
30
0
70
8
0
VERTEX
8
0
62
5
10
-0.21213184
20
1.2338483
30
0
70
32
0
VERTEX
8
0
62
5
10
-0.21213184
20
1.2516009
30
0
70
32
0
SEQEND
8
0
0
POLYLINE
8
0
62
5
66
1
10
0
20
0
30
0
70
8
0
VERTEX
8
0
62
5
10
-0.14142116
20
1.2338483
30
0
70
32
0
VERTEX
8
0
62
5
10
-0.14142116
20
1.2516009
30
0
70
32
0
SEQEND
8
0
0
POLYLINE
8
0
62
5
66
1
10
0
20
0
30
0
70
8
0
VERTEX
8
0
62
5
10
-0.070710481
20
1.2338483
30
0
70
32
0
VERTEX
8
0
62
5
10
-0.070710481
20
1.2516009
30
0
70
32
0
SEQEND
8
0
0
POLYLINE
8
0
62
5
66
1
10
0
20
0
30
0
70
8
0
VERTEX
8
0
62
5
10
1.9748914e-07
20
1.2338483
30
0
70
32
0
VERTEX
8
0
62
5
10
1.9748914e-07
20
1.2516009
30
0
70
32
0
SEQEND
8
0
0
POLYLINE
8
0
62
5
66
1
10
0
20
0
30
0
70
8
0
VERTEX
8
0
62
5
10
-0.21213184
20
1.2338483
30
0
70
32
0
VERTEX
8
0
62
5
10
-0.21213184
20
1.2338483
30
0
70
32
0
SEQEND
8
0
0
POLYLINE
8
0
62
5
66
1
10
0
20
0
30
0
70
8
0
VERTEX
8
0
62
5
10
-0.14142116
20
1.2338483
30
0
70
32
0
VERTEX
8
0
62
5
10
-0.14142116
20
1.2338483
30
0
70
32
0
SEQEND
8
0
0
POLYLINE
8
0
62
5
66
1
10
0
20
0
30
0
70
8
0
VERTEX
8
0
62
5
10
-0.070710481
20
1.2338483
30
0
70
32
0
VERTEX
8
0
62
5
10
-0.070710481
20
1.2338483
30
0
70
32
0
SEQEND
8
0
0
POLYLINE
8
0
62
5
66
1
10
0
20
0
30
0
70
8
0
VERTEX
8
0
62
5
10
-0.28284251
20
1.2516009
30
0
70
32
0
VERTEX
8
0
62
5
10
-0.28284251
20
1.2516009
30
0
70
32
0
SEQEND
8
0
0
POLYLINE
8
0
62
5
66
1
10
0
20
0
30
0
70
8
0
VERTEX
8
0
62
5
10
-0.21213184
20
1.2516009
30
0
70
32
0
VERTEX
8
0
62
5
10
-0.21213184
20
1.2516009
30
0
70
32
0
SEQEND
8
0
0
POLYLINE
8
0
62
5
66
1
10
0
20
0
30
0
70
8
0
VERTEX
8
0
62
5
10
-0.14142116
20
1.2516009
30
0
70
32
0
VERTEX
8
0
62
5
10
-0.14142116
20
1.2516009
30
0
70
32
0
SEQEND
8
0
0
POLYLINE
8
0
62
5
66
1
10
0
20
0
30
0
70
8
0
VERTEX
8
0
62
5
10
-0.070710481
20
1.2516009
30
0
70
32
0
VERTEX
8
0
62
5
10
-0.070710481
20
1.2516009
30
0
70
32
0
SEQEND
8
0
0
POLYLINE
8
0
62
5
66
1
10
0
20
0
30
0
70
8
0
VERTEX
8
0
62
5
10
1.9750004e-07
20
1.2516009
30
0
70
32
0
VERTEX
8
0
62
5
10
1.9750004e-07
20
1.3226111
30
0
70
32
0
SEQEND
8
0
0
POLYLINE
8
0
62
5
66
1
10
0
20
0
30
0
70
8
0
VERTEX
8
0
62
5
10
0.28284291
20
1.2516009
30
0
70
32
0
VERTEX
8
0
62
5
10
0.28284291
20
1.3226111
30
0
70
32
0
SEQEND
8
0
0
POLYLINE
8
0
62
5
66
1
10
0
20
0
30
0
70
8
0
VERTEX
8
0
62
5
10
0.070710876
20
1.2516009
30
0
70
32
0
VERTEX
8
0
62
5
10
0.070710876
20
1.3226111
30
0
70
32
0
SEQEND
8
0
0
POLYLINE
8
0
62
5
66
1
10
0
20
0
30
0
70
8
0
VERTEX
8
0
62
5
10
0.14142155
20
1.2516009
30
0
70
32
0
VERTEX
8
0
62
5
10
0.14142155
20
1.3226111
30
0
70
32
0
SEQEND
8
0
0
POLYLINE
8
0
62
5
66
1
10
0
20
0
30
0
70
8
0
VERTEX
8
0
62
5
10
0.21213223
20
1.2516009
30
0
70
32
0
VERTEX
8
0
62
5
10
0.21213223
20
1.3226111
30
0
70
32
0
SEQEND
8
0
0
POLYLINE
8
0
62
5
66
1
10
0
20
0
30
0
70
8
0
VERTEX
8
0
62
5
10
0.56568562
20
1.2516009
30
0
70
32
0
VERTEX
8
0
62
5
10
0.56568562
20
1.3226111
30
0
70
32
0
SEQEND
8
0
0
POLYLINE
8
0
62
5
66
1
10
0
20
0
30
0
70
8
0
VERTEX
8
0
62
5
10
0.35355359
20
1.2516009
30
0
70
32
0
VERTEX
8
0
62
5
10
0.35355359
20
1.3226111
30
0
70
32
0
SEQEND
8
0
0
POLYLINE
8
0
62
5
66
1
10
0
20
0
30
0
70
8
0
VERTEX
8
0
62
5
10
0.42426427
20
1.2516009
30
0
70
32
0
VERTEX
8
0
62
5
10
0.42426427
20
1.3226111
30
0
70
32
0
SEQEND
8
0
0
POLYLINE
8
0
62
5
66
1
10
0
20
0
30
0
70
8
0
VERTEX
8
0
62
5
10
0.49497494
20
1.2516009
30
0
70
32
0
VERTEX
8
0
62
5
10
0.49497494
20
1.3226111
30
0
70
32
0
SEQEND
8
0
0
POLYLINE
8
0
62
5
66
1
10
0
20
0
30
0
70
8
0
VERTEX
8
0
62
5
10
-0.28284251
20
1.2516009
30
0
70
32
0
VERTEX
8
0
62
5
10
-0.28284251
20
1.3226111
30
0
70
32
0
SEQEND
8
0
0
POLYLINE
8
0
62
5
66
1
10
0
20
0
30
0
70
8
0
VERTEX
8
0
62
5
10
-0.21213184
20
1.2516009
30
0
70
32
0
VERTEX
8
0
62
5
10
-0.21213184
20
1.3226111
30
0
70
32
0
SEQEND
8
0
0
POLYLINE
8
0
62
5
66
1
10
0
20
0
30
0
70
8
0
VERTEX
8
0
62
5
10
-0.14142116
20
1.2516009
30
0
70
32
0
VERTEX
8
0
62
5
10
-0.14142116
20
1.3226111
30
0
70
32
0
SEQEND
8
0
0
POLYLINE
8
0
62
5
66
1
10
0
20
0
30
0
70
8
0
VERTEX
8
0
62
5
10
-0.070710481
20
1.2516009
30
0
70
32
0
VERTEX
8
0
62
5
10
-0.070710481
20
1.3226111
30
0
70
32
0
SEQEND
8
0
0
POLYLINE
8
0
62
5
66
1
10
0
20
0
30
0
70
8
0
VERTEX
8
0
62
5
10
1.9750004e-07
20
1.3226111
30
0
70
32
0
VERTEX
8
0
62
5
10
1.9750004e-07
20
1.4640324
30
0
70
32
0
SEQEND
8
0
0
POLYLINE
8
0
62
5
66
1
10
0
20
0
30
0
70
8
0
VERTEX
8
0
62
5
10
0.28284291
20
1.4640324
30
0
70
32
0
VERTEX
8
0
62
5
10
0.28284291
20
1.3226111
30
0
70
32
0
SEQEND
8
0
0
POLYLINE
8
0
62
5
66
1
10
0
20
0
30
0
70
8
0
VERTEX
8
0
62
5
10
1.9750004e-07
20
1.3226111
30
0
70
32
0
VERTEX
8
0
62
5
10
0.28284291
20
1.3226111
30
0
70
32
0
SEQEND
8
0
0
POLYLINE
8
0
62
5
66
1
10
0
20
0
30
0
70
8
0
VERTEX
8
0
62
5
10
1.9750004e-07
20
1.4640324
30
0
70
32
0
VERTEX
8
0
62
5
10
0.28284291
20
1.4640324
30
0
70
32
0
SEQEND
8
0
0
POLYLINE
8
0
62
5
66
1
10
0
20
0
30
0
70
8
0
VERTEX
8
0
62
5
10
0.070710876
20
1.3226111
30
0
70
32
0
VERTEX
8
0
62
5
10
0.070710876
20
1.3226111
30
0
70
32
0
SEQEND
8
0
0
POLYLINE
8
0
62
5
66
1
10
0
20
0
30
0
70
8
0
VERTEX
8
0
62
5
10
0.14142155
20
1.3226111
30
0
70
32
0
VERTEX
8
0
62
5
10
0.14142155
20
1.3226111
30
0
70
32
0
SEQEND
8
0
0
POLYLINE
8
0
62
5
66
1
10
0
20
0
30
0
70
8
0
VERTEX
8
0
62
5
10
0.21213223
20
1.3226111
30
0
70
32
0
VERTEX
8
0
62
5
10
0.21213223
20
1.3226111
30
0
70
32
0
SEQEND
8
0
0
POLYLINE
8
0
62
5
66
1
10
0
20
0
30
0
70
8
0
VERTEX
8
0
62
5
10
0.070710876
20
1.4640324
30
0
70
32
0
VERTEX
8
0
62
5
10
0.070710876
20
1.4640324
30
0
70
32
0
SEQEND
8
0
0
POLYLINE
8
0
62
5
66
1
10
0
20
0
30
0
70
8
0
VERTEX
8
0
62
5
10
0.14142155
20
1.4640324
30
0
70
32
0
VERTEX
8
0
62
5
10
0.14142155
20
1.4640324
30
0
70
32
0
SEQEND
8
0
0
POLYLINE
8
0
62
5
66
1
10
0
20
0
30
0
70
8
0
VERTEX
8
0
62
5
10
0.21213223
20
1.4640324
30
0
70
32
0
VERTEX
8
0
62
5
10
0.21213223
20
1.4640324
30
0
70
32
0
SEQEND
8
0
0
POLYLINE
8
0
62
30
66
1
10
0
20
0
30
0
70
8
0
VERTEX
8
0
62
30
10
1.9750004e-07
20
1.4640324
30
0
70
32
0
VERTEX
8
0
62
30
10
0.070710876
20
1.3226111
30
0
70
32
0
SEQEND
8
0
0
POLYLINE
8
0
62
30
66
1
10
0
20
0
30
0
70
8
0
VERTEX
8
0
62
30
10
0.070710876
20
1.4640324
30
0
70
32
0
VERTEX
8
0
62
30
10
1.9750004e-07
20
1.3226111
30
0
70
32
0
SEQEND
8
0
0
POLYLINE
8
0
62
30
66
1
10
0
20
0
30
0
70
8
0
VERTEX
8
0
62
30
10
0.14142155
20
1.4640324
30
0
70
32
0
VERTEX
8
0
62
30
10
0.21213223
20
1.3226111
30
0
70
32
0
SEQEND
8
0
0
POLYLINE
8
0
62
30
66
1
10
0
20
0
30
0
70
8
0
VERTEX
8
0
62
30
10
0.21213223
20
1.4640324
30
0
70
32
0
VERTEX
8
0
62
30
10
0.14142155
20
1.3226111
30
0
70
32
0
SEQEND
8
0
0
POLYLINE
8
0
62
30
66
1
10
0
20
0
30
0
70
8
0
VERTEX
8
0
62
30
10
0.070710876
20
1.3933218
30
0
70
32
0
VERTEX
8
0
62
30
10
0.14142155
20
1.3933218
30
0
70
32
0
SEQEND
8
0
0
POLYLINE
8
0
62
30
66
1
10
0
20
0
30
0
70
8
0
VERTEX
8
0
62
30
10
0.21213223
20
1.3933218
30
0
70
32
0
VERTEX
8
0
62
30
10
0.28284291
20
1.3933218
30
0
70
32
0
SEQEND
8
0
0
POLYLINE
8
0
62
5
66
1
10
0
20
0
30
0
70
8
0
VERTEX
8
0
62
5
10
1.9750004e-07
20
1.3933218
30
0
70
32
0
VERTEX
8
0
62
5
10
0.035355537
20
1.3933218
30
0
70
32
0
SEQEND
8
0
0
POLYLINE
8
0
62
5
66
1
10
0
20
0
30
0
70
8
0
VERTEX
8
0
62
5
10
0.14142155
20
1.3933218
30
0
70
32
0
VERTEX
8
0
62
5
10
0.17677689
20
1.3933218
30
0
70
32
0
SEQEND
8
0
0
POLYLINE
8
0
62
5
66
1
10
0
20
0
30
0
70
8
0
VERTEX
8
0
62
5
10
0.035355537
20
1.3933218
30
0
70
32
0
VERTEX
8
0
62
5
10
0.070710876
20
1.3933218
30
0
70
32
0
SEQEND
8
0
0
POLYLINE
8
0
62
5
66
1
10
0
20
0
30
0
70
8
0
VERTEX
8
0
62
5
10
0.17677689
20
1.3933218
30
0
70
32
0
VERTEX
8
0
62
5
10
0.21213223
20
1.3933218
30
0
70
32
0
SEQEND
8
0
0
POLYLINE
8
0
62
5
66
1
10
0
20
0
30
0
70
8
0
VERTEX
8
0
62
5
10
0.070710876
20
1.3226111
30
0
70
32
0
VERTEX
8
0
62
5
10
0.070710876
20
1.4640324
30
0
70
32
0
SEQEND
8
0
0
POLYLINE
8
0
62
5
66
1
10
0
20
0
30
0
70
8
0
VERTEX
8
0
62
5
10
0.14142155
20
1.3226111
30
0
70
32
0
VERTEX
8
0
62
5
10
0.14142155
20
1.4640324
30
0
70
32
0
SEQEND
8
0
0
POLYLINE
8
0
62
5
66
1
10
0
20
0
30
0
70
8
0
VERTEX
8
0
62
5
10
0.21213223
20
1.3226111
30
0
70
32
0
VERTEX
8
0
62
5
10
0.21213223
20
1.4640324
30
0
70
32
0
SEQEND
8
0
0
POLYLINE
8
0
62
5
66
1
10
0
20
0
30
0
70
8
0
VERTEX
8
0
62
5
10
1.9750004e-07
20
1.3226111
30
0
70
32
0
VERTEX
8
0
62
5
10
1.9750004e-07
20
1.4640324
30
0
70
32
0
SEQEND
8
0
0
POLYLINE
8
0
62
5
66
1
10
0
20
0
30
0
70
8
0
VERTEX
8
0
62
5
10
0.011785311
20
1.4404622
30
0
70
32
0
VERTEX
8
0
62
5
10
0.011785311
20
1.3461813
30
0
70
32
0
VERTEX
8
0
62
5
10
0.058925763
20
1.3461813
30
0
70
32
0
VERTEX
8
0
62
5
10
0.058925763
20
1.4404622
30
0
70
32
0
VERTEX
8
0
62
5
10
0.011785311
20
1.4404622
30
0
70
32
0
SEQEND
8
0
0
POLYLINE
8
0
62
5
66
1
10
0
20
0
30
0
70
8
0
VERTEX
8
0
62
5
10
0.023570424
20
1.416892
30
0
70
32
0
VERTEX
8
0
62
5
10
0.023570424
20
1.3697515
30
0
70
32
0
VERTEX
8
0
62
5
10
0.04714065
20
1.3697515
30
0
70
32
0
VERTEX
8
0
62
5
10
0.04714065
20
1.416892
30
0
70
32
0
VERTEX
8
0
62
5
10
0.023570424
20
1.416892
30
0
70
32
0
SEQEND
8
0
0
POLYLINE
8
0
62
5
66
1
10
0
20
0
30
0
70
8
0
VERTEX
8
0
62
5
10
0.15320667
20
1.4404622
30
0
70
32
0
VERTEX
8
0
62
5
10
0.15320667
20
1.3461813
30
0
70
32
0
VERTEX
8
0
62
5
10
0.20034712
20
1.3461813
30
0
70
32
0
VERTEX
8
0
62
5
10
0.20034712
20
1.4404622
30
0
70
32
0
VERTEX
8
0
62
5
10
0.15320667
20
1.4404622
30
0
70
32
0
SEQEND
8
0
0
POLYLINE
8
0
62
5
66
1
10
0
20
0
30
0
70
8
0
VERTEX
8
0
62
5
10
0.16499178
20
1.416892
30
0
70
32
0
VERTEX
8
0
62
5
10
0.16499178
20
1.3697515
30
0
70
32
0
VERTEX
8
0
62
5
10
0.18856201
20
1.3697515
30
0
70
32
0
VERTEX
8
0
62
5
10
0.18856201
20
1.416892
30
0
70
32
0
VERTEX
8
0
62
5
10
0.16499178
20
1.416892
30
0
70
32
0
SEQEND
8
0
0
POLYLINE
8
0
62
5
66
1
10
0
20
0
30
0
70
8
0
VERTEX
8
0
62
5
10
0.56568562
20
1.4640324
30
0
70
32
0
VERTEX
8
0
62
5
10
0.56568562
20
1.3226111
30
0
70
32
0
SEQEND
8
0
0
POLYLINE
8
0
62
5
66
1
10
0
20
0
30
0
70
8
0
VERTEX
8
0
62
5
10
0.28284291
20
1.3226111
30
0
70
32
0
VERTEX
8
0
62
5
10
0.56568562
20
1.3226111
30
0
70
32
0
SEQEND
8
0
0
POLYLINE
8
0
62
5
66
1
10
0
20
0
30
0
70
8
0
VERTEX
8
0
62
5
10
0.28284291
20
1.4640324
30
0
70
32
0
VERTEX
8
0
62
5
10
0.56568562
20
1.4640324
30
0
70
32
0
SEQEND
8
0
0
POLYLINE
8
0
62
5
66
1
10
0
20
0
30
0
70
8
0
VERTEX
8
0
62
5
10
0.35355359
20
1.3226111
30
0
70
32
0
VERTEX
8
0
62
5
10
0.35355359
20
1.3226111
30
0
70
32
0
SEQEND
8
0
0
POLYLINE
8
0
62
5
66
1
10
0
20
0
30
0
70
8
0
VERTEX
8
0
62
5
10
0.42426427
20
1.3226111
30
0
70
32
0
VERTEX
8
0
62
5
10
0.42426427
20
1.3226111
30
0
70
32
0
SEQEND
8
0
0
POLYLINE
8
0
62
5
66
1
10
0
20
0
30
0
70
8
0
VERTEX
8
0
62
5
10
0.49497494
20
1.3226111
30
0
70
32
0
VERTEX
8
0
62
5
10
0.49497494
20
1.3226111
30
0
70
32
0
SEQEND
8
0
0
POLYLINE
8
0
62
5
66
1
10
0
20
0
30
0
70
8
0
VERTEX
8
0
62
5
10
0.35355359
20
1.4640324
30
0
70
32
0
VERTEX
8
0
62
5
10
0.35355359
20
1.4640324
30
0
70
32
0
SEQEND
8
0
0
POLYLINE
8
0
62
5
66
1
10
0
20
0
30
0
70
8
0
VERTEX
8
0
62
5
10
0.42426427
20
1.4640324
30
0
70
32
0
VERTEX
8
0
62
5
10
0.42426427
20
1.4640324
30
0
70
32
0
SEQEND
8
0
0
POLYLINE
8
0
62
5
66
1
10
0
20
0
30
0
70
8
0
VERTEX
8
0
62
5
10
0.49497494
20
1.4640324
30
0
70
32
0
VERTEX
8
0
62
5
10
0.49497494
20
1.4640324
30
0
70
32
0
SEQEND
8
0
0
POLYLINE
8
0
62
30
66
1
10
0
20
0
30
0
70
8
0
VERTEX
8
0
62
30
10
0.28284291
20
1.4640324
30
0
70
32
0
VERTEX
8
0
62
30
10
0.35355359
20
1.3226111
30
0
70
32
0
SEQEND
8
0
0
POLYLINE
8
0
62
30
66
1
10
0
20
0
30
0
70
8
0
VERTEX
8
0
62
30
10
0.35355359
20
1.4640324
30
0
70
32
0
VERTEX
8
0
62
30
10
0.28284291
20
1.3226111
30
0
70
32
0
SEQEND
8
0
0
POLYLINE
8
0
62
30
66
1
10
0
20
0
30
0
70
8
0
VERTEX
8
0
62
30
10
0.42426427
20
1.4640324
30
0
70
32
0
VERTEX
8
0
62
30
10
0.49497494
20
1.3226111
30
0
70
32
0
SEQEND
8
0
0
POLYLINE
8
0
62
30
66
1
10
0
20
0
30
0
70
8
0
VERTEX
8
0
62
30
10
0.49497494
20
1.4640324
30
0
70
32
0
VERTEX
8
0
62
30
10
0.42426427
20
1.3226111
30
0
70
32
0
SEQEND
8
0
0
POLYLINE
8
0
62
30
66
1
10
0
20
0
30
0
70
8
0
VERTEX
8
0
62
30
10
0.35355359
20
1.3933218
30
0
70
32
0
VERTEX
8
0
62
30
10
0.42426427
20
1.3933218
30
0
70
32
0
SEQEND
8
0
0
POLYLINE
8
0
62
30
66
1
10
0
20
0
30
0
70
8
0
VERTEX
8
0
62
30
10
0.49497494
20
1.3933218
30
0
70
32
0
VERTEX
8
0
62
30
10
0.56568562
20
1.3933218
30
0
70
32
0
SEQEND
8
0
0
POLYLINE
8
0
62
5
66
1
10
0
20
0
30
0
70
8
0
VERTEX
8
0
62
5
10
0.28284291
20
1.3933218
30
0
70
32
0
VERTEX
8
0
62
5
10
0.31819825
20
1.3933218
30
0
70
32
0
SEQEND
8
0
0
POLYLINE
8
0
62
5
66
1
10
0
20
0
30
0
70
8
0
VERTEX
8
0
62
5
10
0.42426427
20
1.3933218
30
0
70
32
0
VERTEX
8
0
62
5
10
0.45961961
20
1.3933218
30
0
70
32
0
SEQEND
8
0
0
POLYLINE
8
0
62
5
66
1
10
0
20
0
30
0
70
8
0
VERTEX
8
0
62
5
10
0.31819825
20
1.3933218
30
0
70
32
0
VERTEX
8
0
62
5
10
0.35355359
20
1.3933218
30
0
70
32
0
SEQEND
8
0
0
POLYLINE
8
0
62
5
66
1
10
0
20
0
30
0
70
8
0
VERTEX
8
0
62
5
10
0.45961961
20
1.3933218
30
0
70
32
0
VERTEX
8
0
62
5
10
0.49497494
20
1.3933218
30
0
70
32
0
SEQEND
8
0
0
POLYLINE
8
0
62
5
66
1
10
0
20
0
30
0
70
8
0
VERTEX
8
0
62
5
10
0.35355359
20
1.3226111
30
0
70
32
0
VERTEX
8
0
62
5
10
0.35355359
20
1.4640324
30
0
70
32
0
SEQEND
8
0
0
POLYLINE
8
0
62
5
66
1
10
0
20
0
30
0
70
8
0
VERTEX
8
0
62
5
10
0.42426427
20
1.3226111
30
0
70
32
0
VERTEX
8
0
62
5
10
0.42426427
20
1.4640324
30
0
70
32
0
SEQEND
8
0
0
POLYLINE
8
0
62
5
66
1
10
0
20
0
30
0
70
8
0
VERTEX
8
0
62
5
10
0.49497494
20
1.3226111
30
0
70
32
0
VERTEX
8
0
62
5
10
0.49497494
20
1.4640324
30
0
70
32
0
SEQEND
8
0
0
POLYLINE
8
0
62
5
66
1
10
0
20
0
30
0
70
8
0
VERTEX
8
0
62
5
10
0.28284291
20
1.3226111
30
0
70
32
0
VERTEX
8
0
62
5
10
0.28284291
20
1.4640324
30
0
70
32
0
SEQEND
8
0
0
POLYLINE
8
0
62
5
66
1
10
0
20
0
30
0
70
8
0
VERTEX
8
0
62
5
10
0.29462802
20
1.4404622
30
0
70
32
0
VERTEX
8
0
62
5
10
0.29462802
20
1.3461813
30
0
70
32
0
VERTEX
8
0
62
5
10
0.34176848
20
1.3461813
30
0
70
32
0
VERTEX
8
0
62
5
10
0.34176848
20
1.4404622
30
0
70
32
0
VERTEX
8
0
62
5
10
0.29462802
20
1.4404622
30
0
70
32
0
SEQEND
8
0
0
POLYLINE
8
0
62
5
66
1
10
0
20
0
30
0
70
8
0
VERTEX
8
0
62
5
10
0.30641314
20
1.416892
30
0
70
32
0
VERTEX
8
0
62
5
10
0.30641314
20
1.3697515
30
0
70
32
0
VERTEX
8
0
62
5
10
0.32998336
20
1.3697515
30
0
70
32
0
VERTEX
8
0
62
5
10
0.32998336
20
1.416892
30
0
70
32
0
VERTEX
8
0
62
5
10
0.30641314
20
1.416892
30
0
70
32
0
SEQEND
8
0
0
POLYLINE
8
0
62
5
66
1
10
0
20
0
30
0
70
8
0
VERTEX
8
0
62
5
10
0.43604938
20
1.4404622
30
0
70
32
0
VERTEX
8
0
62
5
10
0.43604938
20
1.3461813
30
0
70
32
0
VERTEX
8
0
62
5
10
0.48318983
20
1.3461813
30
0
70
32
0
VERTEX
8
0
62
5
10
0.48318983
20
1.4404622
30
0
70
32
0
VERTEX
8
0
62
5
10
0.43604938
20
1.4404622
30
0
70
32
0
SEQEND
8
0
0
POLYLINE
8
0
62
5
66
1
10
0
20
0
30
0
70
8
0
VERTEX
8
0
62
5
10
0.44783449
20
1.416892
30
0
70
32
0
VERTEX
8
0
62
5
10
0.44783449
20
1.3697515
30
0
70
32
0
VERTEX
8
0
62
5
10
0.47140472
20
1.3697515
30
0
70
32
0
VERTEX
8
0
62
5
10
0.47140472
20
1.416892
30
0
70
32
0
VERTEX
8
0
62
5
10
0.44783449
20
1.416892
30
0
70
32
0
SEQEND
8
0
0
POLYLINE
8
0
62
5
66
1
10
0
20
0
30
0
70
8
0
VERTEX
8
0
62
5
10
-0.28284251
20
1.3226111
30
0
70
32
0
VERTEX
8
0
62
5
10
-0.28284251
20
1.4640324
30
0
70
32
0
SEQEND
8
0
0
POLYLINE
8
0
62
5
66
1
10
0
20
0
30
0
70
8
0
VERTEX
8
0
62
5
10
-0.28284251
20
1.3226111
30
0
70
32
0
VERTEX
8
0
62
5
10
1.9750004e-07
20
1.3226111
30
0
70
32
0
SEQEND
8
0
0
POLYLINE
8
0
62
5
66
1
10
0
20
0
30
0
70
8
0
VERTEX
8
0
62
5
10
-0.28284251
20
1.4640324
30
0
70
32
0
VERTEX
8
0
62
5
10
1.9750004e-07
20
1.4640324
30
0
70
32
0
SEQEND
8
0
0
POLYLINE
8
0
62
5
66
1
10
0
20
0
30
0
70
8
0
VERTEX
8
0
62
5
10
-0.21213184
20
1.3226111
30
0
70
32
0
VERTEX
8
0
62
5
10
-0.21213184
20
1.3226111
30
0
70
32
0
SEQEND
8
0
0
POLYLINE
8
0
62
5
66
1
10
0
20
0
30
0
70
8
0
VERTEX
8
0
62
5
10
-0.14142116
20
1.3226111
30
0
70
32
0
VERTEX
8
0
62
5
10
-0.14142116
20
1.3226111
30
0
70
32
0
SEQEND
8
0
0
POLYLINE
8
0
62
5
66
1
10
0
20
0
30
0
70
8
0
VERTEX
8
0
62
5
10
-0.070710481
20
1.3226111
30
0
70
32
0
VERTEX
8
0
62
5
10
-0.070710481
20
1.3226111
30
0
70
32
0
SEQEND
8
0
0
POLYLINE
8
0
62
5
66
1
10
0
20
0
30
0
70
8
0
VERTEX
8
0
62
5
10
-0.21213184
20
1.4640324
30
0
70
32
0
VERTEX
8
0
62
5
10
-0.21213184
20
1.4640324
30
0
70
32
0
SEQEND
8
0
0
POLYLINE
8
0
62
5
66
1
10
0
20
0
30
0
70
8
0
VERTEX
8
0
62
5
10
-0.14142116
20
1.4640324
30
0
70
32
0
VERTEX
8
0
62
5
10
-0.14142116
20
1.4640324
30
0
70
32
0
SEQEND
8
0
0
POLYLINE
8
0
62
5
66
1
10
0
20
0
30
0
70
8
0
VERTEX
8
0
62
5
10
-0.070710481
20
1.4640324
30
0
70
32
0
VERTEX
8
0
62
5
10
-0.070710481
20
1.4640324
30
0
70
32
0
SEQEND
8
0
0
POLYLINE
8
0
62
30
66
1
10
0
20
0
30
0
70
8
0
VERTEX
8
0
62
30
10
-0.28284251
20
1.4640324
30
0
70
32
0
VERTEX
8
0
62
30
10
-0.21213184
20
1.3226111
30
0
70
32
0
SEQEND
8
0
0
POLYLINE
8
0
62
30
66
1
10
0
20
0
30
0
70
8
0
VERTEX
8
0
62
30
10
-0.21213184
20
1.4640324
30
0
70
32
0
VERTEX
8
0
62
30
10
-0.28284251
20
1.3226111
30
0
70
32
0
SEQEND
8
0
0
POLYLINE
8
0
62
30
66
1
10
0
20
0
30
0
70
8
0
VERTEX
8
0
62
30
10
-0.14142116
20
1.4640324
30
0
70
32
0
VERTEX
8
0
62
30
10
-0.070710481
20
1.3226111
30
0
70
32
0
SEQEND
8
0
0
POLYLINE
8
0
62
30
66
1
10
0
20
0
30
0
70
8
0
VERTEX
8
0
62
30
10
-0.070710481
20
1.4640324
30
0
70
32
0
VERTEX
8
0
62
30
10
-0.14142116
20
1.3226111
30
0
70
32
0
SEQEND
8
0
0
POLYLINE
8
0
62
30
66
1
10
0
20
0
30
0
70
8
0
VERTEX
8
0
62
30
10
-0.21213184
20
1.3933218
30
0
70
32
0
VERTEX
8
0
62
30
10
-0.14142116
20
1.3933218
30
0
70
32
0
SEQEND
8
0
0
POLYLINE
8
0
62
30
66
1
10
0
20
0
30
0
70
8
0
VERTEX
8
0
62
30
10
-0.070710481
20
1.3933218
30
0
70
32
0
VERTEX
8
0
62
30
10
1.9750004e-07
20
1.3933218
30
0
70
32
0
SEQEND
8
0
0
POLYLINE
8
0
62
5
66
1
10
0
20
0
30
0
70
8
0
VERTEX
8
0
62
5
10
-0.28284251
20
1.3933218
30
0
70
32
0
VERTEX
8
0
62
5
10
-0.24748718
20
1.3933218
30
0
70
32
0
SEQEND
8
0
0
POLYLINE
8
0
62
5
66
1
10
0
20
0
30
0
70
8
0
VERTEX
8
0
62
5
10
-0.14142116
20
1.3933218
30
0
70
32
0
VERTEX
8
0
62
5
10
-0.10606582
20
1.3933218
30
0
70
32
0
SEQEND
8
0
0
POLYLINE
8
0
62
5
66
1
10
0
20
0
30
0
70
8
0
VERTEX
8
0
62
5
10
-0.24748718
20
1.3933218
30
0
70
32
0
VERTEX
8
0
62
5
10
-0.21213184
20
1.3933218
30
0
70
32
0
SEQEND
8
0
0
POLYLINE
8
0
62
5
66
1
10
0
20
0
30
0
70
8
0
VERTEX
8
0
62
5
10
-0.10606582
20
1.3933218
30
0
70
32
0
VERTEX
8
0
62
5
10
-0.070710481
20
1.3933218
30
0
70
32
0
SEQEND
8
0
0
POLYLINE
8
0
62
5
66
1
10
0
20
0
30
0
70
8
0
VERTEX
8
0
62
5
10
-0.21213184
20
1.3226111
30
0
70
32
0
VERTEX
8
0
62
5
10
-0.21213184
20
1.4640324
30
0
70
32
0
SEQEND
8
0
0
POLYLINE
8
0
62
5
66
1
10
0
20
0
30
0
70
8
0
VERTEX
8
0
62
5
10
-0.14142116
20
1.3226111
30
0
70
32
0
VERTEX
8
0
62
5
10
-0.14142116
20
1.4640324
30
0
70
32
0
SEQEND
8
0
0
POLYLINE
8
0
62
5
66
1
10
0
20
0
30
0
70
8
0
VERTEX
8
0
62
5
10
-0.070710481
20
1.3226111
30
0
70
32
0
VERTEX
8
0
62
5
10
-0.070710481
20
1.4640324
30
0
70
32
0
SEQEND
8
0
0
POLYLINE
8
0
62
5
66
1
10
0
20
0
30
0
70
8
0
VERTEX
8
0
62
5
10
-0.28284251
20
1.3226111
30
0
70
32
0
VERTEX
8
0
62
5
10
-0.28284251
20
1.4640324
30
0
70
32
0
SEQEND
8
0
0
POLYLINE
8
0
62
5
66
1
10
0
20
0
30
0
70
8
0
VERTEX
8
0
62
5
10
-0.2710574
20
1.4404622
30
0
70
32
0
VERTEX
8
0
62
5
10
-0.2710574
20
1.3461813
30
0
70
32
0
VERTEX
8
0
62
5
10
-0.22391695
20
1.3461813
30
0
70
32
0
VERTEX
8
0
62
5
10
-0.22391695
20
1.4404622
30
0
70
32
0
VERTEX
8
0
62
5
10
-0.2710574
20
1.4404622
30
0
70
32
0
SEQEND
8
0
0
POLYLINE
8
0
62
5
66
1
10
0
20
0
30
0
70
8
0
VERTEX
8
0
62
5
10
-0.25927229
20
1.416892
30
0
70
32
0
VERTEX
8
0
62
5
10
-0.25927229
20
1.3697515
30
0
70
32
0
VERTEX
8
0
62
5
10
-0.23570206
20
1.3697515
30
0
70
32
0
VERTEX
8
0
62
5
10
-0.23570206
20
1.416892
30
0
70
32
0
VERTEX
8
0
62
5
10
-0.25927229
20
1.416892
30
0
70
32
0
SEQEND
8
0
0
POLYLINE
8
0
62
5
66
1
10
0
20
0
30
0
70
8
0
VERTEX
8
0
62
5
10
-0.12963605
20
1.4404622
30
0
70
32
0
VERTEX
8
0
62
5
10
-0.12963605
20
1.3461813
30
0
70
32
0
VERTEX
8
0
62
5
10
-0.082495594
20
1.3461813
30
0
70
32
0
VERTEX
8
0
62
5
10
-0.082495594
20
1.4404622
30
0
70
32
0
VERTEX
8
0
62
5
10
-0.12963605
20
1.4404622
30
0
70
32
0
SEQEND
8
0
0
POLYLINE
8
0
62
5
66
1
10
0
20
0
30
0
70
8
0
VERTEX
8
0
62
5
10
-0.11785093
20
1.416892
30
0
70
32
0
VERTEX
8
0
62
5
10
-0.11785093
20
1.3697515
30
0
70
32
0
VERTEX
8
0
62
5
10
-0.094280707
20
1.3697515
30
0
70
32
0
VERTEX
8
0
62
5
10
-0.094280707
20
1.416892
30
0
70
32
0
VERTEX
8
0
62
5
10
-0.11785093
20
1.416892
30
0
70
32
0
SEQEND
8
0
0
POLYLINE
8
0
62
5
66
1
10
0
20
0
30
0
70
8
0
VERTEX
8
0
62
5
10
1.9750004e-07
20
1.4640324
30
0
70
32
0
VERTEX
8
0
62
5
10
1.9750004e-07
20
1.4886953
30
0
70
32
0
SEQEND
8
0
0
POLYLINE
8
0
62
5
66
1
10
0
20
0
30
0
70
8
0
VERTEX
8
0
62
5
10
0.070710876
20
1.4640324
30
0
70
32
0
VERTEX
8
0
62
5
10
0.070710876
20
1.4886953
30
0
70
32
0
SEQEND
8
0
0
POLYLINE
8
0
62
5
66
1
10
0
20
0
30
0
70
8
0
VERTEX
8
0
62
5
10
0.14142155
20
1.4640324
30
0
70
32
0
VERTEX
8
0
62
5
10
0.14142155
20
1.4886953
30
0
70
32
0
SEQEND
8
0
0
POLYLINE
8
0
62
5
66
1
10
0
20
0
30
0
70
8
0
VERTEX
8
0
62
5
10
0.21213223
20
1.4640324
30
0
70
32
0
VERTEX
8
0
62
5
10
0.21213223
20
1.4886953
30
0
70
32
0
SEQEND
8
0
0
POLYLINE
8
0
62
5
66
1
10
0
20
0
30
0
70
8
0
VERTEX
8
0
62
5
10
0.28284291
20
1.4640324
30
0
70
32
0
VERTEX
8
0
62
5
10
0.28284291
20
1.4886953
30
0
70
32
0
SEQEND
8
0
0
POLYLINE
8
0
62
5
66
1
10
0
20
0
30
0
70
8
0
VERTEX
8
0
62
5
10
0.070710876
20
1.4640324
30
0
70
32
0
VERTEX
8
0
62
5
10
0.070710876
20
1.4640324
30
0
70
32
0
SEQEND
8
0
0
POLYLINE
8
0
62
5
66
1
10
0
20
0
30
0
70
8
0
VERTEX
8
0
62
5
10
0.14142155
20
1.4640324
30
0
70
32
0
VERTEX
8
0
62
5
10
0.14142155
20
1.4640324
30
0
70
32
0
SEQEND
8
0
0
POLYLINE
8
0
62
5
66
1
10
0
20
0
30
0
70
8
0
VERTEX
8
0
62
5
10
0.21213223
20
1.4640324
30
0
70
32
0
VERTEX
8
0
62
5
10
0.21213223
20
1.4640324
30
0
70
32
0
SEQEND
8
0
0
POLYLINE
8
0
62
5
66
1
10
0
20
0
30
0
70
8
0
VERTEX
8
0
62
5
10
0.070710876
20
1.4886953
30
0
70
32
0
VERTEX
8
0
62
5
10
0.070710876
20
1.4886953
30
0
70
32
0
SEQEND
8
0
0
POLYLINE
8
0
62
5
66
1
10
0
20
0
30
0
70
8
0
VERTEX
8
0
62
5
10
0.14142155
20
1.4886953
30
0
70
32
0
VERTEX
8
0
62
5
10
0.14142155
20
1.4886953
30
0
70
32
0
SEQEND
8
0
0
POLYLINE
8
0
62
5
66
1
10
0
20
0
30
0
70
8
0
VERTEX
8
0
62
5
10
0.21213223
20
1.4886953
30
0
70
32
0
VERTEX
8
0
62
5
10
0.21213223
20
1.4886953
30
0
70
32
0
SEQEND
8
0
0
POLYLINE
8
0
62
5
66
1
10
0
20
0
30
0
70
8
0
VERTEX
8
0
62
5
10
0.28284291
20
1.4886953
30
0
70
32
0
VERTEX
8
0
62
5
10
0.28284291
20
1.4886953
30
0
70
32
0
SEQEND
8
0
0
POLYLINE
8
0
62
5
66
1
10
0
20
0
30
0
70
8
0
VERTEX
8
0
62
5
10
0.35355359
20
1.4640324
30
0
70
32
0
VERTEX
8
0
62
5
10
0.35355359
20
1.4886953
30
0
70
32
0
SEQEND
8
0
0
POLYLINE
8
0
62
5
66
1
10
0
20
0
30
0
70
8
0
VERTEX
8
0
62
5
10
0.42426427
20
1.4640324
30
0
70
32
0
VERTEX
8
0
62
5
10
0.42426427
20
1.4886953
30
0
70
32
0
SEQEND
8
0
0
POLYLINE
8
0
62
5
66
1
10
0
20
0
30
0
70
8
0
VERTEX
8
0
62
5
10
0.49497494
20
1.4640324
30
0
70
32
0
VERTEX
8
0
62
5
10
0.49497494
20
1.4886953
30
0
70
32
0
SEQEND
8
0
0
POLYLINE
8
0
62
5
66
1
10
0
20
0
30
0
70
8
0
VERTEX
8
0
62
5
10
0.56568562
20
1.4640324
30
0
70
32
0
VERTEX
8
0
62
5
10
0.56568562
20
1.4886953
30
0
70
32
0
SEQEND
8
0
0
POLYLINE
8
0
62
5
66
1
10
0
20
0
30
0
70
8
0
VERTEX
8
0
62
5
10
0.35355359
20
1.4640324
30
0
70
32
0
VERTEX
8
0
62
5
10
0.35355359
20
1.4640324
30
0
70
32
0
SEQEND
8
0
0
POLYLINE
8
0
62
5
66
1
10
0
20
0
30
0
70
8
0
VERTEX
8
0
62
5
10
0.42426427
20
1.4640324
30
0
70
32
0
VERTEX
8
0
62
5
10
0.42426427
20
1.4640324
30
0
70
32
0
SEQEND
8
0
0
POLYLINE
8
0
62
5
66
1
10
0
20
0
30
0
70
8
0
VERTEX
8
0
62
5
10
0.49497494
20
1.4640324
30
0
70
32
0
VERTEX
8
0
62
5
10
0.49497494
20
1.4640324
30
0
70
32
0
SEQEND
8
0
0
POLYLINE
8
0
62
5
66
1
10
0
20
0
30
0
70
8
0
VERTEX
8
0
62
5
10
0.35355359
20
1.4886953
30
0
70
32
0
VERTEX
8
0
62
5
10
0.35355359
20
1.4886953
30
0
70
32
0
SEQEND
8
0
0
POLYLINE
8
0
62
5
66
1
10
0
20
0
30
0
70
8
0
VERTEX
8
0
62
5
10
0.42426427
20
1.4886953
30
0
70
32
0
VERTEX
8
0
62
5
10
0.42426427
20
1.4886953
30
0
70
32
0
SEQEND
8
0
0
POLYLINE
8
0
62
5
66
1
10
0
20
0
30
0
70
8
0
VERTEX
8
0
62
5
10
0.49497494
20
1.4886953
30
0
70
32
0
VERTEX
8
0
62
5
10
0.49497494
20
1.4886953
30
0
70
32
0
SEQEND
8
0
0
POLYLINE
8
0
62
5
66
1
10
0
20
0
30
0
70
8
0
VERTEX
8
0
62
5
10
0.56568562
20
1.4886953
30
0
70
32
0
VERTEX
8
0
62
5
10
0.56568562
20
1.4886953
30
0
70
32
0
SEQEND
8
0
0
POLYLINE
8
0
62
5
66
1
10
0
20
0
30
0
70
8
0
VERTEX
8
0
62
5
10
-0.21213184
20
1.4640324
30
0
70
32
0
VERTEX
8
0
62
5
10
-0.21213184
20
1.4886953
30
0
70
32
0
SEQEND
8
0
0
POLYLINE
8
0
62
5
66
1
10
0
20
0
30
0
70
8
0
VERTEX
8
0
62
5
10
-0.14142116
20
1.4640324
30
0
70
32
0
VERTEX
8
0
62
5
10
-0.14142116
20
1.4886953
30
0
70
32
0
SEQEND
8
0
0
POLYLINE
8
0
62
5
66
1
10
0
20
0
30
0
70
8
0
VERTEX
8
0
62
5
10
-0.070710481
20
1.4640324
30
0
70
32
0
VERTEX
8
0
62
5
10
-0.070710481
20
1.4886953
30
0
70
32
0
SEQEND
8
0
0
POLYLINE
8
0
62
5
66
1
10
0
20
0
30
0
70
8
0
VERTEX
8
0
62
5
10
1.9750004e-07
20
1.4640324
30
0
70
32
0
VERTEX
8
0
62
5
10
1.9750004e-07
20
1.4886953
30
0
70
32
0
SEQEND
8
0
0
POLYLINE
8
0
62
5
66
1
10
0
20
0
30
0
70
8
0
VERTEX
8
0
62
5
10
-0.21213184
20
1.4640324
30
0
70
32
0
VERTEX
8
0
62
5
10
-0.21213184
20
1.4640324
30
0
70
32
0
SEQEND
8
0
0
POLYLINE
8
0
62
5
66
1
10
0
20
0
30
0
70
8
0
VERTEX
8
0
62
5
10
-0.14142116
20
1.4640324
30
0
70
32
0
VERTEX
8
0
62
5
10
-0.14142116
20
1.4640324
30
0
70
32
0
SEQEND
8
0
0
POLYLINE
8
0
62
5
66
1
10
0
20
0
30
0
70
8
0
VERTEX
8
0
62
5
10
-0.070710481
20
1.4640324
30
0
70
32
0
VERTEX
8
0
62
5
10
-0.070710481
20
1.4640324
30
0
70
32
0
SEQEND
8
0
0
POLYLINE
8
0
62
5
66
1
10
0
20
0
30
0
70
8
0
VERTEX
8
0
62
5
10
-0.21213184
20
1.4886953
30
0
70
32
0
VERTEX
8
0
62
5
10
-0.21213184
20
1.4886953
30
0
70
32
0
SEQEND
8
0
0
POLYLINE
8
0
62
5
66
1
10
0
20
0
30
0
70
8
0
VERTEX
8
0
62
5
10
-0.14142116
20
1.4886953
30
0
70
32
0
VERTEX
8
0
62
5
10
-0.14142116
20
1.4886953
30
0
70
32
0
SEQEND
8
0
0
POLYLINE
8
0
62
5
66
1
10
0
20
0
30
0
70
8
0
VERTEX
8
0
62
5
10
-0.070710481
20
1.4886953
30
0
70
32
0
VERTEX
8
0
62
5
10
-0.070710481
20
1.4886953
30
0
70
32
0
SEQEND
8
0
0
POLYLINE
8
0
62
5
66
1
10
0
20
0
30
0
70
8
0
VERTEX
8
0
62
5
10
1.9750004e-07
20
1.4886953
30
0
70
32
0
VERTEX
8
0
62
5
10
1.9750004e-07
20
1.4886953
30
0
70
32
0
SEQEND
8
0
0
POLYLINE
8
0
62
5
66
1
10
0
20
0
30
0
70
8
0
VERTEX
8
0
62
5
10
1.9750004e-07
20
1.4886953
30
0
70
32
0
VERTEX
8
0
62
5
10
1.9750004e-07
20
1.5873468
30
0
70
32
0
SEQEND
8
0
0
POLYLINE
8
0
62
5
66
1
10
0
20
0
30
0
70
8
0
VERTEX
8
0
62
5
10
0.28284291
20
1.4886953
30
0
70
32
0
VERTEX
8
0
62
5
10
0.28284291
20
1.5873468
30
0
70
32
0
SEQEND
8
0
0
POLYLINE
8
0
62
5
66
1
10
0
20
0
30
0
70
8
0
VERTEX
8
0
62
5
10
0.070710876
20
1.4886953
30
0
70
32
0
VERTEX
8
0
62
5
10
0.070710876
20
1.5873468
30
0
70
32
0
SEQEND
8
0
0
POLYLINE
8
0
62
5
66
1
10
0
20
0
30
0
70
8
0
VERTEX
8
0
62
5
10
0.14142155
20
1.4886953
30
0
70
32
0
VERTEX
8
0
62
5
10
0.14142155
20
1.5873468
30
0
70
32
0
SEQEND
8
0
0
POLYLINE
8
0
62
5
66
1
10
0
20
0
30
0
70
8
0
VERTEX
8
0
62
5
10
0.21213223
20
1.4886953
30
0
70
32
0
VERTEX
8
0
62
5
10
0.21213223
20
1.5873468
30
0
70
32
0
SEQEND
8
0
0
POLYLINE
8
0
62
5
66
1
10
0
20
0
30
0
70
8
0
VERTEX
8
0
62
5
10
0.56568562
20
1.4886953
30
0
70
32
0
VERTEX
8
0
62
5
10
0.56568562
20
1.5873468
30
0
70
32
0
SEQEND
8
0
0
POLYLINE
8
0
62
5
66
1
10
0
20
0
30
0
70
8
0
VERTEX
8
0
62
5
10
0.35355359
20
1.4886953
30
0
70
32
0
VERTEX
8
0
62
5
10
0.35355359
20
1.5873468
30
0
70
32
0
SEQEND
8
0
0
POLYLINE
8
0
62
5
66
1
10
0
20
0
30
0
70
8
0
VERTEX
8
0
62
5
10
0.42426427
20
1.4886953
30
0
70
32
0
VERTEX
8
0
62
5
10
0.42426427
20
1.5873468
30
0
70
32
0
SEQEND
8
0
0
POLYLINE
8
0
62
5
66
1
10
0
20
0
30
0
70
8
0
VERTEX
8
0
62
5
10
0.49497494
20
1.4886953
30
0
70
32
0
VERTEX
8
0
62
5
10
0.49497494
20
1.5873468
30
0
70
32
0
SEQEND
8
0
0
POLYLINE
8
0
62
5
66
1
10
0
20
0
30
0
70
8
0
VERTEX
8
0
62
5
10
-0.28284251
20
1.4886953
30
0
70
32
0
VERTEX
8
0
62
5
10
-0.28284251
20
1.5873468
30
0
70
32
0
SEQEND
8
0
0
POLYLINE
8
0
62
5
66
1
10
0
20
0
30
0
70
8
0
VERTEX
8
0
62
5
10
-0.21213184
20
1.4886953
30
0
70
32
0
VERTEX
8
0
62
5
10
-0.21213184
20
1.5873468
30
0
70
32
0
SEQEND
8
0
0
POLYLINE
8
0
62
5
66
1
10
0
20
0
30
0
70
8
0
VERTEX
8
0
62
5
10
-0.14142116
20
1.4886953
30
0
70
32
0
VERTEX
8
0
62
5
10
-0.14142116
20
1.5873468
30
0
70
32
0
SEQEND
8
0
0
POLYLINE
8
0
62
5
66
1
10
0
20
0
30
0
70
8
0
VERTEX
8
0
62
5
10
-0.070710481
20
1.4886953
30
0
70
32
0
VERTEX
8
0
62
5
10
-0.070710481
20
1.5873468
30
0
70
32
0
SEQEND
8
0
0
POLYLINE
8
0
62
5
66
1
10
0
20
0
30
0
70
8
0
VERTEX
8
0
62
5
10
1.9750004e-07
20
1.5873468
30
0
70
32
0
VERTEX
8
0
62
5
10
1.9750004e-07
20
1.6638834
30
0
70
32
0
SEQEND
8
0
0
POLYLINE
8
0
62
5
66
1
10
0
20
0
30
0
70
8
0
VERTEX
8
0
62
5
10
0.28284291
20
1.6638834
30
0
70
32
0
VERTEX
8
0
62
5
10
0.28284291
20
1.5873468
30
0
70
32
0
SEQEND
8
0
0
POLYLINE
8
0
62
5
66
1
10
0
20
0
30
0
70
8
0
VERTEX
8
0
62
5
10
1.9750004e-07
20
1.5873468
30
0
70
32
0
VERTEX
8
0
62
5
10
0.28284291
20
1.5873468
30
0
70
32
0
SEQEND
8
0
0
POLYLINE
8
0
62
5
66
1
10
0
20
0
30
0
70
8
0
VERTEX
8
0
62
5
10
1.9750004e-07
20
1.6638834
30
0
70
32
0
VERTEX
8
0
62
5
10
0.28284291
20
1.6638834
30
0
70
32
0
SEQEND
8
0
0
POLYLINE
8
0
62
5
66
1
10
0
20
0
30
0
70
8
0
VERTEX
8
0
62
5
10
0.070710876
20
1.5873468
30
0
70
32
0
VERTEX
8
0
62
5
10
0.070710876
20
1.5873468
30
0
70
32
0
SEQEND
8
0
0
POLYLINE
8
0
62
5
66
1
10
0
20
0
30
0
70
8
0
VERTEX
8
0
62
5
10
0.14142155
20
1.5873468
30
0
70
32
0
VERTEX
8
0
62
5
10
0.14142155
20
1.5873468
30
0
70
32
0
SEQEND
8
0
0
POLYLINE
8
0
62
5
66
1
10
0
20
0
30
0
70
8
0
VERTEX
8
0
62
5
10
0.21213223
20
1.5873468
30
0
70
32
0
VERTEX
8
0
62
5
10
0.21213223
20
1.5873468
30
0
70
32
0
SEQEND
8
0
0
POLYLINE
8
0
62
5
66
1
10
0
20
0
30
0
70
8
0
VERTEX
8
0
62
5
10
0.070710876
20
1.6638834
30
0
70
32
0
VERTEX
8
0
62
5
10
0.070710876
20
1.6638834
30
0
70
32
0
SEQEND
8
0
0
POLYLINE
8
0
62
5
66
1
10
0
20
0
30
0
70
8
0
VERTEX
8
0
62
5
10
0.14142155
20
1.6638834
30
0
70
32
0
VERTEX
8
0
62
5
10
0.14142155
20
1.6638834
30
0
70
32
0
SEQEND
8
0
0
POLYLINE
8
0
62
5
66
1
10
0
20
0
30
0
70
8
0
VERTEX
8
0
62
5
10
0.21213223
20
1.6638834
30
0
70
32
0
VERTEX
8
0
62
5
10
0.21213223
20
1.6638834
30
0
70
32
0
SEQEND
8
0
0
POLYLINE
8
0
62
30
66
1
10
0
20
0
30
0
70
8
0
VERTEX
8
0
62
30
10
1.9750004e-07
20
1.5873468
30
0
70
32
0
VERTEX
8
0
62
30
10
0.035355537
20
1.6256151
30
0
70
32
0
SEQEND
8
0
0
POLYLINE
8
0
62
30
66
1
10
0
20
0
30
0
70
8
0
VERTEX
8
0
62
30
10
0.035355537
20
1.6256151
30
0
70
32
0
VERTEX
8
0
62
30
10
0.070710876
20
1.5873468
30
0
70
32
0
SEQEND
8
0
0
POLYLINE
8
0
62
30
66
1
10
0
20
0
30
0
70
8
0
VERTEX
8
0
62
30
10
0.14142155
20
1.5873468
30
0
70
32
0
VERTEX
8
0
62
30
10
0.17677689
20
1.6256151
30
0
70
32
0
SEQEND
8
0
0
POLYLINE
8
0
62
30
66
1
10
0
20
0
30
0
70
8
0
VERTEX
8
0
62
30
10
0.17677689
20
1.6256151
30
0
70
32
0
VERTEX
8
0
62
30
10
0.21213223
20
1.5873468
30
0
70
32
0
SEQEND
8
0
0
POLYLINE
8
0
62
30
66
1
10
0
20
0
30
0
70
8
0
VERTEX
8
0
62
30
10
0.070710876
20
1.6256151
30
0
70
32
0
VERTEX
8
0
62
30
10
0.14142155
20
1.6256151
30
0
70
32
0
SEQEND
8
0
0
POLYLINE
8
0
62
30
66
1
10
0
20
0
30
0
70
8
0
VERTEX
8
0
62
30
10
0.21213223
20
1.6256151
30
0
70
32
0
VERTEX
8
0
62
30
10
0.28284291
20
1.6256151
30
0
70
32
0
SEQEND
8
0
0
POLYLINE
8
0
62
5
66
1
10
0
20
0
30
0
70
8
0
VERTEX
8
0
62
5
10
1.9750004e-07
20
1.6256151
30
0
70
32
0
VERTEX
8
0
62
5
10
0.035355537
20
1.6256151
30
0
70
32
0
SEQEND
8
0
0
POLYLINE
8
0
62
5
66
1
10
0
20
0
30
0
70
8
0
VERTEX
8
0
62
5
10
0.14142155
20
1.6256151
30
0
70
32
0
VERTEX
8
0
62
5
10
0.17677689
20
1.6256151
30
0
70
32
0
SEQEND
8
0
0
POLYLINE
8
0
62
5
66
1
10
0
20
0
30
0
70
8
0
VERTEX
8
0
62
5
10
0.035355537
20
1.6256151
30
0
70
32
0
VERTEX
8
0
62
5
10
0.070710876
20
1.6256151
30
0
70
32
0
SEQEND
8
0
0
POLYLINE
8
0
62
5
66
1
10
0
20
0
30
0
70
8
0
VERTEX
8
0
62
5
10
0.17677689
20
1.6256151
30
0
70
32
0
VERTEX
8
0
62
5
10
0.21213223
20
1.6256151
30
0
70
32
0
SEQEND
8
0
0
POLYLINE
8
0
62
5
66
1
10
0
20
0
30
0
70
8
0
VERTEX
8
0
62
5
10
0.070710876
20
1.5873468
30
0
70
32
0
VERTEX
8
0
62
5
10
0.070710876
20
1.6638834
30
0
70
32
0
SEQEND
8
0
0
POLYLINE
8
0
62
5
66
1
10
0
20
0
30
0
70
8
0
VERTEX
8
0
62
5
10
0.14142155
20
1.5873468
30
0
70
32
0
VERTEX
8
0
62
5
10
0.14142155
20
1.6638834
30
0
70
32
0
SEQEND
8
0
0
POLYLINE
8
0
62
5
66
1
10
0
20
0
30
0
70
8
0
VERTEX
8
0
62
5
10
0.21213223
20
1.5873468
30
0
70
32
0
VERTEX
8
0
62
5
10
0.21213223
20
1.6638834
30
0
70
32
0
SEQEND
8
0
0
POLYLINE
8
0
62
5
66
1
10
0
20
0
30
0
70
8
0
VERTEX
8
0
62
5
10
1.9750004e-07
20
1.5873468
30
0
70
32
0
VERTEX
8
0
62
5
10
1.9750004e-07
20
1.6638834
30
0
70
32
0
SEQEND
8
0
0
POLYLINE
8
0
62
5
66
1
10
0
20
0
30
0
70
8
0
VERTEX
8
0
62
5
10
0.56568562
20
1.6638834
30
0
70
32
0
VERTEX
8
0
62
5
10
0.56568562
20
1.5873468
30
0
70
32
0
SEQEND
8
0
0
POLYLINE
8
0
62
5
66
1
10
0
20
0
30
0
70
8
0
VERTEX
8
0
62
5
10
0.28284291
20
1.5873468
30
0
70
32
0
VERTEX
8
0
62
5
10
0.56568562
20
1.5873468
30
0
70
32
0
SEQEND
8
0
0
POLYLINE
8
0
62
5
66
1
10
0
20
0
30
0
70
8
0
VERTEX
8
0
62
5
10
0.28284291
20
1.6638834
30
0
70
32
0
VERTEX
8
0
62
5
10
0.56568562
20
1.6638834
30
0
70
32
0
SEQEND
8
0
0
POLYLINE
8
0
62
5
66
1
10
0
20
0
30
0
70
8
0
VERTEX
8
0
62
5
10
0.35355359
20
1.5873468
30
0
70
32
0
VERTEX
8
0
62
5
10
0.35355359
20
1.5873468
30
0
70
32
0
SEQEND
8
0
0
POLYLINE
8
0
62
5
66
1
10
0
20
0
30
0
70
8
0
VERTEX
8
0
62
5
10
0.42426427
20
1.5873468
30
0
70
32
0
VERTEX
8
0
62
5
10
0.42426427
20
1.5873468
30
0
70
32
0
SEQEND
8
0
0
POLYLINE
8
0
62
5
66
1
10
0
20
0
30
0
70
8
0
VERTEX
8
0
62
5
10
0.49497494
20
1.5873468
30
0
70
32
0
VERTEX
8
0
62
5
10
0.49497494
20
1.5873468
30
0
70
32
0
SEQEND
8
0
0
POLYLINE
8
0
62
5
66
1
10
0
20
0
30
0
70
8
0
VERTEX
8
0
62
5
10
0.35355359
20
1.6638834
30
0
70
32
0
VERTEX
8
0
62
5
10
0.35355359
20
1.6638834
30
0
70
32
0
SEQEND
8
0
0
POLYLINE
8
0
62
5
66
1
10
0
20
0
30
0
70
8
0
VERTEX
8
0
62
5
10
0.42426427
20
1.6638834
30
0
70
32
0
VERTEX
8
0
62
5
10
0.42426427
20
1.6638834
30
0
70
32
0
SEQEND
8
0
0
POLYLINE
8
0
62
5
66
1
10
0
20
0
30
0
70
8
0
VERTEX
8
0
62
5
10
0.49497494
20
1.6638834
30
0
70
32
0
VERTEX
8
0
62
5
10
0.49497494
20
1.6638834
30
0
70
32
0
SEQEND
8
0
0
POLYLINE
8
0
62
30
66
1
10
0
20
0
30
0
70
8
0
VERTEX
8
0
62
30
10
0.28284291
20
1.5873468
30
0
70
32
0
VERTEX
8
0
62
30
10
0.31819825
20
1.6256151
30
0
70
32
0
SEQEND
8
0
0
POLYLINE
8
0
62
30
66
1
10
0
20
0
30
0
70
8
0
VERTEX
8
0
62
30
10
0.31819825
20
1.6256151
30
0
70
32
0
VERTEX
8
0
62
30
10
0.35355359
20
1.5873468
30
0
70
32
0
SEQEND
8
0
0
POLYLINE
8
0
62
30
66
1
10
0
20
0
30
0
70
8
0
VERTEX
8
0
62
30
10
0.42426427
20
1.5873468
30
0
70
32
0
VERTEX
8
0
62
30
10
0.45961961
20
1.6256151
30
0
70
32
0
SEQEND
8
0
0
POLYLINE
8
0
62
30
66
1
10
0
20
0
30
0
70
8
0
VERTEX
8
0
62
30
10
0.45961961
20
1.6256151
30
0
70
32
0
VERTEX
8
0
62
30
10
0.49497494
20
1.5873468
30
0
70
32
0
SEQEND
8
0
0
POLYLINE
8
0
62
30
66
1
10
0
20
0
30
0
70
8
0
VERTEX
8
0
62
30
10
0.35355359
20
1.6256151
30
0
70
32
0
VERTEX
8
0
62
30
10
0.42426427
20
1.6256151
30
0
70
32
0
SEQEND
8
0
0
POLYLINE
8
0
62
30
66
1
10
0
20
0
30
0
70
8
0
VERTEX
8
0
62
30
10
0.49497494
20
1.6256151
30
0
70
32
0
VERTEX
8
0
62
30
10
0.56568562
20
1.6256151
30
0
70
32
0
SEQEND
8
0
0
POLYLINE
8
0
62
5
66
1
10
0
20
0
30
0
70
8
0
VERTEX
8
0
62
5
10
0.28284291
20
1.6256151
30
0
70
32
0
VERTEX
8
0
62
5
10
0.31819825
20
1.6256151
30
0
70
32
0
SEQEND
8
0
0
POLYLINE
8
0
62
5
66
1
10
0
20
0
30
0
70
8
0
VERTEX
8
0
62
5
10
0.42426427
20
1.6256151
30
0
70
32
0
VERTEX
8
0
62
5
10
0.45961961
20
1.6256151
30
0
70
32
0
SEQEND
8
0
0
POLYLINE
8
0
62
5
66
1
10
0
20
0
30
0
70
8
0
VERTEX
8
0
62
5
10
0.31819825
20
1.6256151
30
0
70
32
0
VERTEX
8
0
62
5
10
0.35355359
20
1.6256151
30
0
70
32
0
SEQEND
8
0
0
POLYLINE
8
0
62
5
66
1
10
0
20
0
30
0
70
8
0
VERTEX
8
0
62
5
10
0.45961961
20
1.6256151
30
0
70
32
0
VERTEX
8
0
62
5
10
0.49497494
20
1.6256151
30
0
70
32
0
SEQEND
8
0
0
POLYLINE
8
0
62
5
66
1
10
0
20
0
30
0
70
8
0
VERTEX
8
0
62
5
10
0.35355359
20
1.5873468
30
0
70
32
0
VERTEX
8
0
62
5
10
0.35355359
20
1.6638834
30
0
70
32
0
SEQEND
8
0
0
POLYLINE
8
0
62
5
66
1
10
0
20
0
30
0
70
8
0
VERTEX
8
0
62
5
10
0.42426427
20
1.5873468
30
0
70
32
0
VERTEX
8
0
62
5
10
0.42426427
20
1.6638834
30
0
70
32
0
SEQEND
8
0
0
POLYLINE
8
0
62
5
66
1
10
0
20
0
30
0
70
8
0
VERTEX
8
0
62
5
10
0.49497494
20
1.5873468
30
0
70
32
0
VERTEX
8
0
62
5
10
0.49497494
20
1.6638834
30
0
70
32
0
SEQEND
8
0
0
POLYLINE
8
0
62
5
66
1
10
0
20
0
30
0
70
8
0
VERTEX
8
0
62
5
10
0.28284291
20
1.5873468
30
0
70
32
0
VERTEX
8
0
62
5
10
0.28284291
20
1.6638834
30
0
70
32
0
SEQEND
8
0
0
POLYLINE
8
0
62
5
66
1
10
0
20
0
30
0
70
8
0
VERTEX
8
0
62
5
10
-0.28284251
20
1.5873468
30
0
70
32
0
VERTEX
8
0
62
5
10
-0.28284251
20
1.6638834
30
0
70
32
0
SEQEND
8
0
0
POLYLINE
8
0
62
5
66
1
10
0
20
0
30
0
70
8
0
VERTEX
8
0
62
5
10
-0.28284251
20
1.5873468
30
0
70
32
0
VERTEX
8
0
62
5
10
1.9750004e-07
20
1.5873468
30
0
70
32
0
SEQEND
8
0
0
POLYLINE
8
0
62
5
66
1
10
0
20
0
30
0
70
8
0
VERTEX
8
0
62
5
10
-0.28284251
20
1.6638834
30
0
70
32
0
VERTEX
8
0
62
5
10
1.9750004e-07
20
1.6638834
30
0
70
32
0
SEQEND
8
0
0
POLYLINE
8
0
62
5
66
1
10
0
20
0
30
0
70
8
0
VERTEX
8
0
62
5
10
-0.21213184
20
1.5873468
30
0
70
32
0
VERTEX
8
0
62
5
10
-0.21213184
20
1.5873468
30
0
70
32
0
SEQEND
8
0
0
POLYLINE
8
0
62
5
66
1
10
0
20
0
30
0
70
8
0
VERTEX
8
0
62
5
10
-0.14142116
20
1.5873468
30
0
70
32
0
VERTEX
8
0
62
5
10
-0.14142116
20
1.5873468
30
0
70
32
0
SEQEND
8
0
0
POLYLINE
8
0
62
5
66
1
10
0
20
0
30
0
70
8
0
VERTEX
8
0
62
5
10
-0.070710481
20
1.5873468
30
0
70
32
0
VERTEX
8
0
62
5
10
-0.070710481
20
1.5873468
30
0
70
32
0
SEQEND
8
0
0
POLYLINE
8
0
62
5
66
1
10
0
20
0
30
0
70
8
0
VERTEX
8
0
62
5
10
-0.21213184
20
1.6638834
30
0
70
32
0
VERTEX
8
0
62
5
10
-0.21213184
20
1.6638834
30
0
70
32
0
SEQEND
8
0
0
POLYLINE
8
0
62
5
66
1
10
0
20
0
30
0
70
8
0
VERTEX
8
0
62
5
10
-0.14142116
20
1.6638834
30
0
70
32
0
VERTEX
8
0
62
5
10
-0.14142116
20
1.6638834
30
0
70
32
0
SEQEND
8
0
0
POLYLINE
8
0
62
5
66
1
10
0
20
0
30
0
70
8
0
VERTEX
8
0
62
5
10
-0.070710481
20
1.6638834
30
0
70
32
0
VERTEX
8
0
62
5
10
-0.070710481
20
1.6638834
30
0
70
32
0
SEQEND
8
0
0
POLYLINE
8
0
62
30
66
1
10
0
20
0
30
0
70
8
0
VERTEX
8
0
62
30
10
-0.28284251
20
1.5873468
30
0
70
32
0
VERTEX
8
0
62
30
10
-0.24748718
20
1.6256151
30
0
70
32
0
SEQEND
8
0
0
POLYLINE
8
0
62
30
66
1
10
0
20
0
30
0
70
8
0
VERTEX
8
0
62
30
10
-0.24748718
20
1.6256151
30
0
70
32
0
VERTEX
8
0
62
30
10
-0.21213184
20
1.5873468
30
0
70
32
0
SEQEND
8
0
0
POLYLINE
8
0
62
30
66
1
10
0
20
0
30
0
70
8
0
VERTEX
8
0
62
30
10
-0.14142116
20
1.5873468
30
0
70
32
0
VERTEX
8
0
62
30
10
-0.10606582
20
1.6256151
30
0
70
32
0
SEQEND
8
0
0
POLYLINE
8
0
62
30
66
1
10
0
20
0
30
0
70
8
0
VERTEX
8
0
62
30
10
-0.10606582
20
1.6256151
30
0
70
32
0
VERTEX
8
0
62
30
10
-0.070710481
20
1.5873468
30
0
70
32
0
SEQEND
8
0
0
POLYLINE
8
0
62
30
66
1
10
0
20
0
30
0
70
8
0
VERTEX
8
0
62
30
10
-0.21213184
20
1.6256151
30
0
70
32
0
VERTEX
8
0
62
30
10
-0.14142116
20
1.6256151
30
0
70
32
0
SEQEND
8
0
0
POLYLINE
8
0
62
30
66
1
10
0
20
0
30
0
70
8
0
VERTEX
8
0
62
30
10
-0.070710481
20
1.6256151
30
0
70
32
0
VERTEX
8
0
62
30
10
1.9750004e-07
20
1.6256151
30
0
70
32
0
SEQEND
8
0
0
POLYLINE
8
0
62
5
66
1
10
0
20
0
30
0
70
8
0
VERTEX
8
0
62
5
10
-0.28284251
20
1.6256151
30
0
70
32
0
VERTEX
8
0
62
5
10
-0.24748718
20
1.6256151
30
0
70
32
0
SEQEND
8
0
0
POLYLINE
8
0
62
5
66
1
10
0
20
0
30
0
70
8
0
VERTEX
8
0
62
5
10
-0.14142116
20
1.6256151
30
0
70
32
0
VERTEX
8
0
62
5
10
-0.10606582
20
1.6256151
30
0
70
32
0
SEQEND
8
0
0
POLYLINE
8
0
62
5
66
1
10
0
20
0
30
0
70
8
0
VERTEX
8
0
62
5
10
-0.24748718
20
1.6256151
30
0
70
32
0
VERTEX
8
0
62
5
10
-0.21213184
20
1.6256151
30
0
70
32
0
SEQEND
8
0
0
POLYLINE
8
0
62
5
66
1
10
0
20
0
30
0
70
8
0
VERTEX
8
0
62
5
10
-0.10606582
20
1.6256151
30
0
70
32
0
VERTEX
8
0
62
5
10
-0.070710481
20
1.6256151
30
0
70
32
0
SEQEND
8
0
0
POLYLINE
8
0
62
5
66
1
10
0
20
0
30
0
70
8
0
VERTEX
8
0
62
5
10
-0.21213184
20
1.5873468
30
0
70
32
0
VERTEX
8
0
62
5
10
-0.21213184
20
1.6638834
30
0
70
32
0
SEQEND
8
0
0
POLYLINE
8
0
62
5
66
1
10
0
20
0
30
0
70
8
0
VERTEX
8
0
62
5
10
-0.14142116
20
1.5873468
30
0
70
32
0
VERTEX
8
0
62
5
10
-0.14142116
20
1.6638834
30
0
70
32
0
SEQEND
8
0
0
POLYLINE
8
0
62
5
66
1
10
0
20
0
30
0
70
8
0
VERTEX
8
0
62
5
10
-0.070710481
20
1.5873468
30
0
70
32
0
VERTEX
8
0
62
5
10
-0.070710481
20
1.6638834
30
0
70
32
0
SEQEND
8
0
0
POLYLINE
8
0
62
5
66
1
10
0
20
0
30
0
70
8
0
VERTEX
8
0
62
5
10
-0.28284251
20
1.5873468
30
0
70
32
0
VERTEX
8
0
62
5
10
-0.28284251
20
1.6638834
30
0
70
32
0
SEQEND
8
0
0
POLYLINE
8
0
62
18
66
1
10
0
20
0
30
0
70
8
0
VERTEX
8
0
62
18
10
0
20
0
30
0
70
32
0
VERTEX
8
0
62
18
10
0.35355339
20
0
30
0
70
32
0
VERTEX
8
0
62
18
10
0.35355339
20
0.22357086
30
0
70
32
0
VERTEX
8
0
62
18
10
0
20
0.22357086
30
0
70
32
0
VERTEX
8
0
62
18
10
0
20
0
30
0
70
32
0
SEQEND
8
0
0
POLYLINE
8
0
62
5
66
1
10
0
20
0
30
0
70
8
0
VERTEX
8
0
62
5
10
0
20
0.22357086
30
0
70
32
0
VERTEX
8
0
62
5
10
0.35355339
20
0.22357086
30
0
70
32
0
SEQEND
8
0
0
POLYLINE
8
0
62
18
66
1
10
0
20
0
30
0
70
8
0
VERTEX
8
0
62
18
10
0
20
0.20357086
30
0
70
32
0
VERTEX
8
0
62
18
10
0.35355339
20
0.20357086
30
0
70
32
0
VERTEX
8
0
62
18
10
0.35355339
20
0.62876733
30
0
70
32
0
VERTEX
8
0
62
18
10
0
20
0.62876733
30
0
70
32
0
VERTEX
8
0
62
18
10
0
20
0.20357086
30
0
70
32
0
SEQEND
8
0
0
POLYLINE
8
0
62
5
66
1
10
0
20
0
30
0
70
8
0
VERTEX
8
0
62
5
10
0
20
0.62876733
30
0
70
32
0
VERTEX
8
0
62
5
10
0.35355339
20
0.62876733
30
0
70
32
0
SEQEND
8
0
0
POLYLINE
8
0
62
18
66
1
10
0
20
0
30
0
70
8
0
VERTEX
8
0
62
18
10
0
20
0.60876733
30
0
70
32
0
VERTEX
8
0
62
18
10
0.35355339
20
0.60876733
30
0
70
32
0
VERTEX
8
0
62
18
10
0.35355339
20
0.89142664
30
0
70
32
0
VERTEX
8
0
62
18
10
0
20
0.89142664
30
0
70
32
0
VERTEX
8
0
62
18
10
0
20
0.60876733
30
0
70
32
0
SEQEND
8
0
0
POLYLINE
8
0
62
5
66
1
10
0
20
0
30
0
70
8
0
VERTEX
8
0
62
5
10
0
20
0.89142664
30
0
70
32
0
VERTEX
8
0
62
5
10
0.35355339
20
0.89142664
30
0
70
32
0
SEQEND
8
0
0
POLYLINE
8
0
62
18
66
1
10
0
20
0
30
0
70
8
0
VERTEX
8
0
62
18
10
0
20
0.87142664
30
0
70
32
0
VERTEX
8
0
62
18
10
0.35355339
20
0.87142664
30
0
70
32
0
VERTEX
8
0
62
18
10
0.35355339
20
1.287106
30
0
70
32
0
VERTEX
8
0
62
18
10
0
20
1.287106
30
0
70
32
0
VERTEX
8
0
62
18
10
0
20
0.87142664
30
0
70
32
0
SEQEND
8
0
0
POLYLINE
8
0
62
5
66
1
10
0
20
0
30
0
70
8
0
VERTEX
8
0
62
5
10
0
20
1.287106
30
0
70
32
0
VERTEX
8
0
62
5
10
0.35355339
20
1.287106
30
0
70
32
0
SEQEND
8
0
0
POLYLINE
8
0
62
18
66
1
10
0
20
0
30
0
70
8
0
VERTEX
8
0
62
18
10
0
20
1.267106
30
0
70
32
0
VERTEX
8
0
62
18
10
0.35355339
20
1.267106
30
0
70
32
0
VERTEX
8
0
62
18
10
0.35355339
20
1.538021
30
0
70
32
0
VERTEX
8
0
62
18
10
0
20
1.538021
30
0
70
32
0
VERTEX
8
0
62
18
10
0
20
1.267106
30
0
70
32
0
SEQEND
8
0
0
POLYLINE
8
0
62
5
66
1
10
0
20
0
30
0
70
8
0
VERTEX
8
0
62
5
10
0
20
1.538021
30
0
70
32
0
VERTEX
8
0
62
5
10
0.35355339
20
1.538021
30
0
70
32
0
SEQEND
8
0
0
POLYLINE
8
0
62
18
66
1
10
0
20
0
30
0
70
8
0
VERTEX
8
0
62
18
10
0
20
1.518021
30
0
70
32
0
VERTEX
8
0
62
18
10
0.35355339
20
1.518021
30
0
70
32
0
VERTEX
8
0
62
18
10
0.35355339
20
1.6638834
30
0
70
32
0
VERTEX
8
0
62
18
10
0
20
1.6638834
30
0
70
32
0
VERTEX
8
0
62
18
10
0
20
1.518021
30
0
70
32
0
SEQEND
8
0
0
POLYLINE
8
0
62
18
66
1
10
0
20
0
30
0
70
8
0
VERTEX
8
0
62
18
10
0.35355339
20
0
30
0
70
32
0
VERTEX
8
0
62
18
10
0
20
0
30
0
70
32
0
VERTEX
8
0
62
18
10
0
20
1.6638834
30
0
70
32
0
VERTEX
8
0
62
18
10
0.35355339
20
1.6638834
30
0
70
32
0
VERTEX
8
0
62
18
10
0.35355339
20
0
30
0
70
32
0
SEQEND
8
0
0
ENDSEC
0
EOF
