0
SECTION
2
HEADER
9
$ACADVER
1
AC1006
9
$INSUNITS
70
6
0
ENDSEC
0
SECTION
2
ENTITIES
0
POLYLINE
8
0
62
5
66
1
10
0
20
0
30
0
70
8
0
VERTEX
8
0
62
5
10
0
20
0
30
0
70
32
0
VERTEX
8
0
62
5
10
0
20
0.1
30
0
70
32
0
SEQEND
8
0
0
POLYLINE
8
0
62
5
66
1
10
0
20
0
30
0
70
8
0
VERTEX
8
0
62
5
10
0.16970563
20
0
30
0
70
32
0
VERTEX
8
0
62
5
10
0.16970563
20
0.1
30
0
70
32
0
SEQEND
8
0
0
POLYLINE
8
0
62
5
66
1
10
0
20
0
30
0
70
8
0
VERTEX
8
0
62
5
10
0.042426407
20
0
30
0
70
32
0
VERTEX
8
0
62
5
10
0.042426407
20
0.1
30
0
70
32
0
SEQEND
8
0
0
POLYLINE
8
0
62
5
66
1
10
0
20
0
30
0
70
8
0
VERTEX
8
0
62
5
10
0.084852814
20
0
30
0
70
32
0
VERTEX
8
0
62
5
10
0.084852814
20
0.1
30
0
70
32
0
SEQEND
8
0
0
POLYLINE
8
0
62
5
66
1
10
0
20
0
30
0
70
8
0
VERTEX
8
0
62
5
10
0.12727922
20
0
30
0
70
32
0
VERTEX
8
0
62
5
10
0.12727922
20
0.1
30
0
70
32
0
SEQEND
8
0
0
POLYLINE
8
0
62
5
66
1
10
0
20
0
30
0
70
8
0
VERTEX
8
0
62
5
10
0.33941125
20
0
30
0
70
32
0
VERTEX
8
0
62
5
10
0.33941125
20
0.1
30
0
70
32
0
SEQEND
8
0
0
POLYLINE
8
0
62
5
66
1
10
0
20
0
30
0
70
8
0
VERTEX
8
0
62
5
10
0.21213203
20
0
30
0
70
32
0
VERTEX
8
0
62
5
10
0.21213203
20
0.1
30
0
70
32
0
SEQEND
8
0
0
POLYLINE
8
0
62
5
66
1
10
0
20
0
30
0
70
8
0
VERTEX
8
0
62
5
10
0.25455844
20
0
30
0
70
32
0
VERTEX
8
0
62
5
10
0.25455844
20
0.1
30
0
70
32
0
SEQEND
8
0
0
POLYLINE
8
0
62
5
66
1
10
0
20
0
30
0
70
8
0
VERTEX
8
0
62
5
10
0.29698485
20
0
30
0
70
32
0
VERTEX
8
0
62
5
10
0.29698485
20
0.1
30
0
70
32
0
SEQEND
8
0
0
POLYLINE
8
0
62
5
66
1
10
0
20
0
30
0
70
8
0
VERTEX
8
0
62
5
10
-0.16970563
20
0
30
0
70
32
0
VERTEX
8
0
62
5
10
-0.16970563
20
0.1
30
0
70
32
0
SEQEND
8
0
0
POLYLINE
8
0
62
5
66
1
10
0
20
0
30
0
70
8
0
VERTEX
8
0
62
5
10
-0.12727922
20
0
30
0
70
32
0
VERTEX
8
0
62
5
10
-0.12727922
20
0.1
30
0
70
32
0
SEQEND
8
0
0
POLYLINE
8
0
62
5
66
1
10
0
20
0
30
0
70
8
0
VERTEX
8
0
62
5
10
-0.084852814
20
0
30
0
70
32
0
VERTEX
8
0
62
5
10
-0.084852814
20
0.1
30
0
70
32
0
SEQEND
8
0
0
POLYLINE
8
0
62
5
66
1
10
0
20
0
30
0
70
8
0
VERTEX
8
0
62
5
10
-0.042426407
20
0
30
0
70
32
0
VERTEX
8
0
62
5
10
-0.042426407
20
0.1
30
0
70
32
0
SEQEND
8
0
0
POLYLINE
8
0
62
5
66
1
10
0
20
0
30
0
70
8
0
VERTEX
8
0
62
5
10
0
20
0.1
30
0
70
32
0
VERTEX
8
0
62
5
10
0
20
0.16
30
0
70
32
0
SEQEND
8
0
0
POLYLINE
8
0
62
5
66
1
10
0
20
0
30
0
70
8
0
VERTEX
8
0
62
5
10
0.16970563
20
0.16
30
0
70
32
0
VERTEX
8
0
62
5
10
0.16970563
20
0.1
30
0
70
32
0
SEQEND
8
0
0
POLYLINE
8
0
62
5
66
1
10
0
20
0
30
0
70
8
0
VERTEX
8
0
62
5
10
0
20
0.1
30
0
70
32
0
VERTEX
8
0
62
5
10
0.16970563
20
0.1
30
0
70
32
0
SEQEND
8
0
0
POLYLINE
8
0
62
5
66
1
10
0
20
0
30
0
70
8
0
VERTEX
8
0
62
5
10
0
20
0.16
30
0
70
32
0
VERTEX
8
0
62
5
10
0.16970563
20
0.16
30
0
70
32
0
SEQEND
8
0
0
POLYLINE
8
0
62
5
66
1
10
0
20
0
30
0
70
8
0
VERTEX
8
0
62
5
10
0.042426407
20
0.1
30
0
70
32
0
VERTEX
8
0
62
5
10
0.042426407
20
0.1
30
0
70
32
0
SEQEND
8
0
0
POLYLINE
8
0
62
5
66
1
10
0
20
0
30
0
70
8
0
VERTEX
8
0
62
5
10
0.084852814
20
0.1
30
0
70
32
0
VERTEX
8
0
62
5
10
0.084852814
20
0.1
30
0
70
32
0
SEQEND
8
0
0
POLYLINE
8
0
62
5
66
1
10
0
20
0
30
0
70
8
0
VERTEX
8
0
62
5
10
0.12727922
20
0.1
30
0
70
32
0
VERTEX
8
0
62
5
10
0.12727922
20
0.1
30
0
70
32
0
SEQEND
8
0
0
POLYLINE
8
0
62
5
66
1
10
0
20
0
30
0
70
8
0
VERTEX
8
0
62
5
10
0.042426407
20
0.16
30
0
70
32
0
VERTEX
8
0
62
5
10
0.042426407
20
0.16
30
0
70
32
0
SEQEND
8
0
0
POLYLINE
8
0
62
5
66
1
10
0
20
0
30
0
70
8
0
VERTEX
8
0
62
5
10
0.084852814
20
0.16
30
0
70
32
0
VERTEX
8
0
62
5
10
0.084852814
20
0.16
30
0
70
32
0
SEQEND
8
0
0
POLYLINE
8
0
62
5
66
1
10
0
20
0
30
0
70
8
0
VERTEX
8
0
62
5
10
0.12727922
20
0.16
30
0
70
32
0
VERTEX
8
0
62
5
10
0.12727922
20
0.16
30
0
70
32
0
SEQEND
8
0
0
POLYLINE
8
0
62
30
66
1
10
0
20
0
30
0
70
8
0
VERTEX
8
0
62
30
10
0
20
0.16
30
0
70
32
0
VERTEX
8
0
62
30
10
0.042426407
20
0.1
30
0
70
32
0
SEQEND
8
0
0
POLYLINE
8
0
62
30
66
1
10
0
20
0
30
0
70
8
0
VERTEX
8
0
62
30
10
0.042426407
20
0.16
30
0
70
32
0
VERTEX
8
0
62
30
10
0
20
0.1
30
0
70
32
0
SEQEND
8
0
0
POLYLINE
8
0
62
30
66
1
10
0
20
0
30
0
70
8
0
VERTEX
8
0
62
30
10
0.084852814
20
0.16
30
0
70
32
0
VERTEX
8
0
62
30
10
0.12727922
20
0.1
30
0
70
32
0
SEQEND
8
0
0
POLYLINE
8
0
62
30
66
1
10
0
20
0
30
0
70
8
0
VERTEX
8
0
62
30
10
0.12727922
20
0.16
30
0
70
32
0
VERTEX
8
0
62
30
10
0.084852814
20
0.1
30
0
70
32
0
SEQEND
8
0
0
POLYLINE
8
0
62
30
66
1
10
0
20
0
30
0
70
8
0
VERTEX
8
0
62
30
10
0.042426407
20
0.13
30
0
70
32
0
VERTEX
8
0
62
30
10
0.084852814
20
0.13
30
0
70
32
0
SEQEND
8
0
0
POLYLINE
8
0
62
30
66
1
10
0
20
0
30
0
70
8
0
VERTEX
8
0
62
30
10
0.12727922
20
0.13
30
0
70
32
0
VERTEX
8
0
62
30
10
0.16970563
20
0.13
30
0
70
32
0
SEQEND
8
0
0
POLYLINE
8
0
62
5
66
1
10
0
20
0
30
0
70
8
0
VERTEX
8
0
62
5
10
0
20
0.13
30
0
70
32
0
VERTEX
8
0
62
5
10
0.021213203
20
0.13
30
0
70
32
0
SEQEND
8
0
0
POLYLINE
8
0
62
5
66
1
10
0
20
0
30
0
70
8
0
VERTEX
8
0
62
5
10
0.084852814
20
0.13
30
0
70
32
0
VERTEX
8
0
62
5
10
0.10606602
20
0.13
30
0
70
32
0
SEQEND
8
0
0
POLYLINE
8
0
62
5
66
1
10
0
20
0
30
0
70
8
0
VERTEX
8
0
62
5
10
0.021213203
20
0.13
30
0
70
32
0
VERTEX
8
0
62
5
10
0.042426407
20
0.13
30
0
70
32
0
SEQEND
8
0
0
POLYLINE
8
0
62
5
66
1
10
0
20
0
30
0
70
8
0
VERTEX
8
0
62
5
10
0.10606602
20
0.13
30
0
70
32
0
VERTEX
8
0
62
5
10
0.12727922
20
0.13
30
0
70
32
0
SEQEND
8
0
0
POLYLINE
8
0
62
5
66
1
10
0
20
0
30
0
70
8
0
VERTEX
8
0
62
5
10
0.042426407
20
0.1
30
0
70
32
0
VERTEX
8
0
62
5
10
0.042426407
20
0.16
30
0
70
32
0
SEQEND
8
0
0
POLYLINE
8
0
62
5
66
1
10
0
20
0
30
0
70
8
0
VERTEX
8
0
62
5
10
0.084852814
20
0.1
30
0
70
32
0
VERTEX
8
0
62
5
10
0.084852814
20
0.16
30
0
70
32
0
SEQEND
8
0
0
POLYLINE
8
0
62
5
66
1
10
0
20
0
30
0
70
8
0
VERTEX
8
0
62
5
10
0.12727922
20
0.1
30
0
70
32
0
VERTEX
8
0
62
5
10
0.12727922
20
0.16
30
0
70
32
0
SEQEND
8
0
0
POLYLINE
8
0
62
5
66
1
10
0
20
0
30
0
70
8
0
VERTEX
8
0
62
5
10
0
20
0.1
30
0
70
32
0
VERTEX
8
0
62
5
10
0
20
0.16
30
0
70
32
0
SEQEND
8
0
0
POLYLINE
8
0
62
5
66
1
10
0
20
0
30
0
70
8
0
VERTEX
8
0
62
5
10
0.33941125
20
0.16
30
0
70
32
0
VERTEX
8
0
62
5
10
0.33941125
20
0.1
30
0
70
32
0
SEQEND
8
0
0
POLYLINE
8
0
62
5
66
1
10
0
20
0
30
0
70
8
0
VERTEX
8
0
62
5
10
0.16970563
20
0.1
30
0
70
32
0
VERTEX
8
0
62
5
10
0.33941125
20
0.1
30
0
70
32
0
SEQEND
8
0
0
POLYLINE
8
0
62
5
66
1
10
0
20
0
30
0
70
8
0
VERTEX
8
0
62
5
10
0.16970563
20
0.16
30
0
70
32
0
VERTEX
8
0
62
5
10
0.33941125
20
0.16
30
0
70
32
0
SEQEND
8
0
0
POLYLINE
8
0
62
5
66
1
10
0
20
0
30
0
70
8
0
VERTEX
8
0
62
5
10
0.21213203
20
0.1
30
0
70
32
0
VERTEX
8
0
62
5
10
0.21213203
20
0.1
30
0
70
32
0
SEQEND
8
0
0
POLYLINE
8
0
62
5
66
1
10
0
20
0
30
0
70
8
0
VERTEX
8
0
62
5
10
0.25455844
20
0.1
30
0
70
32
0
VERTEX
8
0
62
5
10
0.25455844
20
0.1
30
0
70
32
0
SEQEND
8
0
0
POLYLINE
8
0
62
5
66
1
10
0
20
0
30
0
70
8
0
VERTEX
8
0
62
5
10
0.29698485
20
0.1
30
0
70
32
0
VERTEX
8
0
62
5
10
0.29698485
20
0.1
30
0
70
32
0
SEQEND
8
0
0
POLYLINE
8
0
62
5
66
1
10
0
20
0
30
0
70
8
0
VERTEX
8
0
62
5
10
0.21213203
20
0.16
30
0
70
32
0
VERTEX
8
0
62
5
10
0.21213203
20
0.16
30
0
70
32
0
SEQEND
8
0
0
POLYLINE
8
0
62
5
66
1
10
0
20
0
30
0
70
8
0
VERTEX
8
0
62
5
10
0.25455844
20
0.16
30
0
70
32
0
VERTEX
8
0
62
5
10
0.25455844
20
0.16
30
0
70
32
0
SEQEND
8
0
0
POLYLINE
8
0
62
5
66
1
10
0
20
0
30
0
70
8
0
VERTEX
8
0
62
5
10
0.29698485
20
0.16
30
0
70
32
0
VERTEX
8
0
62
5
10
0.29698485
20
0.16
30
0
70
32
0
SEQEND
8
0
0
POLYLINE
8
0
62
30
66
1
10
0
20
0
30
0
70
8
0
VERTEX
8
0
62
30
10
0.16970563
20
0.16
30
0
70
32
0
VERTEX
8
0
62
30
10
0.21213203
20
0.1
30
0
70
32
0
SEQEND
8
0
0
POLYLINE
8
0
62
30
66
1
10
0
20
0
30
0
70
8
0
VERTEX
8
0
62
30
10
0.21213203
20
0.16
30
0
70
32
0
VERTEX
8
0
62
30
10
0.16970563
20
0.1
30
0
70
32
0
SEQEND
8
0
0
POLYLINE
8
0
62
30
66
1
10
0
20
0
30
0
70
8
0
VERTEX
8
0
62
30
10
0.25455844
20
0.16
30
0
70
32
0
VERTEX
8
0
62
30
10
0.29698485
20
0.1
30
0
70
32
0
SEQEND
8
0
0
POLYLINE
8
0
62
30
66
1
10
0
20
0
30
0
70
8
0
VERTEX
8
0
62
30
10
0.29698485
20
0.16
30
0
70
32
0
VERTEX
8
0
62
30
10
0.25455844
20
0.1
30
0
70
32
0
SEQEND
8
0
0
POLYLINE
8
0
62
30
66
1
10
0
20
0
30
0
70
8
0
VERTEX
8
0
62
30
10
0.21213203
20
0.13
30
0
70
32
0
VERTEX
8
0
62
30
10
0.25455844
20
0.13
30
0
70
32
0
SEQEND
8
0
0
POLYLINE
8
0
62
30
66
1
10
0
20
0
30
0
70
8
0
VERTEX
8
0
62
30
10
0.29698485
20
0.13
30
0
70
32
0
VERTEX
8
0
62
30
10
0.33941125
20
0.13
30
0
70
32
0
SEQEND
8
0
0
POLYLINE
8
0
62
5
66
1
10
0
20
0
30
0
70
8
0
VERTEX
8
0
62
5
10
0.16970563
20
0.13
30
0
70
32
0
VERTEX
8
0
62
5
10
0.19091883
20
0.13
30
0
70
32
0
SEQEND
8
0
0
POLYLINE
8
0
62
5
66
1
10
0
20
0
30
0
70
8
0
VERTEX
8
0
62
5
10
0.25455844
20
0.13
30
0
70
32
0
VERTEX
8
0
62
5
10
0.27577164
20
0.13
30
0
70
32
0
SEQEND
8
0
0
POLYLINE
8
0
62
5
66
1
10
0
20
0
30
0
70
8
0
VERTEX
8
0
62
5
10
0.19091883
20
0.13
30
0
70
32
0
VERTEX
8
0
62
5
10
0.21213203
20
0.13
30
0
70
32
0
SEQEND
8
0
0
POLYLINE
8
0
62
5
66
1
10
0
20
0
30
0
70
8
0
VERTEX
8
0
62
5
10
0.27577164
20
0.13
30
0
70
32
0
VERTEX
8
0
62
5
10
0.29698485
20
0.13
30
0
70
32
0
SEQEND
8
0
0
POLYLINE
8
0
62
5
66
1
10
0
20
0
30
0
70
8
0
VERTEX
8
0
62
5
10
0.21213203
20
0.1
30
0
70
32
0
VERTEX
8
0
62
5
10
0.21213203
20
0.16
30
0
70
32
0
SEQEND
8
0
0
POLYLINE
8
0
62
5
66
1
10
0
20
0
30
0
70
8
0
VERTEX
8
0
62
5
10
0.25455844
20
0.1
30
0
70
32
0
VERTEX
8
0
62
5
10
0.25455844
20
0.16
30
0
70
32
0
SEQEND
8
0
0
POLYLINE
8
0
62
5
66
1
10
0
20
0
30
0
70
8
0
VERTEX
8
0
62
5
10
0.29698485
20
0.1
30
0
70
32
0
VERTEX
8
0
62
5
10
0.29698485
20
0.16
30
0
70
32
0
SEQEND
8
0
0
POLYLINE
8
0
62
5
66
1
10
0
20
0
30
0
70
8
0
VERTEX
8
0
62
5
10
0.16970563
20
0.1
30
0
70
32
0
VERTEX
8
0
62
5
10
0.16970563
20
0.16
30
0
70
32
0
SEQEND
8
0
0
POLYLINE
8
0
62
5
66
1
10
0
20
0
30
0
70
8
0
VERTEX
8
0
62
5
10
-0.16970563
20
0.1
30
0
70
32
0
VERTEX
8
0
62
5
10
-0.16970563
20
0.16
30
0
70
32
0
SEQEND
8
0
0
POLYLINE
8
0
62
5
66
1
10
0
20
0
30
0
70
8
0
VERTEX
8
0
62
5
10
-0.16970563
20
0.1
30
0
70
32
0
VERTEX
8
0
62
5
10
0
20
0.1
30
0
70
32
0
SEQEND
8
0
0
POLYLINE
8
0
62
5
66
1
10
0
20
0
30
0
70
8
0
VERTEX
8
0
62
5
10
-0.16970563
20
0.16
30
0
70
32
0
VERTEX
8
0
62
5
10
0
20
0.16
30
0
70
32
0
SEQEND
8
0
0
POLYLINE
8
0
62
5
66
1
10
0
20
0
30
0
70
8
0
VERTEX
8
0
62
5
10
-0.12727922
20
0.1
30
0
70
32
0
VERTEX
8
0
62
5
10
-0.12727922
20
0.1
30
0
70
32
0
SEQEND
8
0
0
POLYLINE
8
0
62
5
66
1
10
0
20
0
30
0
70
8
0
VERTEX
8
0
62
5
10
-0.084852814
20
0.1
30
0
70
32
0
VERTEX
8
0
62
5
10
-0.084852814
20
0.1
30
0
70
32
0
SEQEND
8
0
0
POLYLINE
8
0
62
5
66
1
10
0
20
0
30
0
70
8
0
VERTEX
8
0
62
5
10
-0.042426407
20
0.1
30
0
70
32
0
VERTEX
8
0
62
5
10
-0.042426407
20
0.1
30
0
70
32
0
SEQEND
8
0
0
POLYLINE
8
0
62
5
66
1
10
0
20
0
30
0
70
8
0
VERTEX
8
0
62
5
10
-0.12727922
20
0.16
30
0
70
32
0
VERTEX
8
0
62
5
10
-0.12727922
20
0.16
30
0
70
32
0
SEQEND
8
0
0
POLYLINE
8
0
62
5
66
1
10
0
20
0
30
0
70
8
0
VERTEX
8
0
62
5
10
-0.084852814
20
0.16
30
0
70
32
0
VERTEX
8
0
62
5
10
-0.084852814
20
0.16
30
0
70
32
0
SEQEND
8
0
0
POLYLINE
8
0
62
5
66
1
10
0
20
0
30
0
70
8
0
VERTEX
8
0
62
5
10
-0.042426407
20
0.16
30
0
70
32
0
VERTEX
8
0
62
5
10
-0.042426407
20
0.16
30
0
70
32
0
SEQEND
8
0
0
POLYLINE
8
0
62
30
66
1
10
0
20
0
30
0
70
8
0
VERTEX
8
0
62
30
10
-0.16970563
20
0.16
30
0
70
32
0
VERTEX
8
0
62
30
10
-0.12727922
20
0.1
30
0
70
32
0
SEQEND
8
0
0
POLYLINE
8
0
62
30
66
1
10
0
20
0
30
0
70
8
0
VERTEX
8
0
62
30
10
-0.12727922
20
0.16
30
0
70
32
0
VERTEX
8
0
62
30
10
-0.16970563
20
0.1
30
0
70
32
0
SEQEND
8
0
0
POLYLINE
8
0
62
30
66
1
10
0
20
0
30
0
70
8
0
VERTEX
8
0
62
30
10
-0.084852814
20
0.16
30
0
70
32
0
VERTEX
8
0
62
30
10
-0.042426407
20
0.1
30
0
70
32
0
SEQEND
8
0
0
POLYLINE
8
0
62
30
66
1
10
0
20
0
30
0
70
8
0
VERTEX
8
0
62
30
10
-0.042426407
20
0.16
30
0
70
32
0
VERTEX
8
0
62
30
10
-0.084852814
20
0.1
30
0
70
32
0
SEQEND
8
0
0
POLYLINE
8
0
62
30
66
1
10
0
20
0
30
0
70
8
0
VERTEX
8
0
62
30
10
-0.12727922
20
0.13
30
0
70
32
0
VERTEX
8
0
62
30
10
-0.084852814
20
0.13
30
0
70
32
0
SEQEND
8
0
0
POLYLINE
8
0
62
30
66
1
10
0
20
0
30
0
70
8
0
VERTEX
8
0
62
30
10
-0.042426407
20
0.13
30
0
70
32
0
VERTEX
8
0
62
30
10
0
20
0.13
30
0
70
32
0
SEQEND
8
0
0
POLYLINE
8
0
62
5
66
1
10
0
20
0
30
0
70
8
0
VERTEX
8
0
62
5
10
-0.16970563
20
0.13
30
0
70
32
0
VERTEX
8
0
62
5
10
-0.14849242
20
0.13
30
0
70
32
0
SEQEND
8
0
0
POLYLINE
8
0
62
5
66
1
10
0
20
0
30
0
70
8
0
VERTEX
8
0
62
5
10
-0.084852814
20
0.13
30
0
70
32
0
VERTEX
8
0
62
5
10
-0.06363961
20
0.13
30
0
70
32
0
SEQEND
8
0
0
POLYLINE
8
0
62
5
66
1
10
0
20
0
30
0
70
8
0
VERTEX
8
0
62
5
10
-0.14849242
20
0.13
30
0
70
32
0
VERTEX
8
0
62
5
10
-0.12727922
20
0.13
30
0
70
32
0
SEQEND
8
0
0
POLYLINE
8
0
62
5
66
1
10
0
20
0
30
0
70
8
0
VERTEX
8
0
62
5
10
-0.06363961
20
0.13
30
0
70
32
0
VERTEX
8
0
62
5
10
-0.042426407
20
0.13
30
0
70
32
0
SEQEND
8
0
0
POLYLINE
8
0
62
5
66
1
10
0
20
0
30
0
70
8
0
VERTEX
8
0
62
5
10
-0.12727922
20
0.1
30
0
70
32
0
VERTEX
8
0
62
5
10
-0.12727922
20
0.16
30
0
70
32
0
SEQEND
8
0
0
POLYLINE
8
0
62
5
66
1
10
0
20
0
30
0
70
8
0
VERTEX
8
0
62
5
10
-0.084852814
20
0.1
30
0
70
32
0
VERTEX
8
0
62
5
10
-0.084852814
20
0.16
30
0
70
32
0
SEQEND
8
0
0
POLYLINE
8
0
62
5
66
1
10
0
20
0
30
0
70
8
0
VERTEX
8
0
62
5
10
-0.042426407
20
0.1
30
0
70
32
0
VERTEX
8
0
62
5
10
-0.042426407
20
0.16
30
0
70
32
0
SEQEND
8
0
0
POLYLINE
8
0
62
5
66
1
10
0
20
0
30
0
70
8
0
VERTEX
8
0
62
5
10
-0.16970563
20
0.1
30
0
70
32
0
VERTEX
8
0
62
5
10
-0.16970563
20
0.16
30
0
70
32
0
SEQEND
8
0
0
POLYLINE
8
0
62
5
66
1
10
0
20
0
30
0
70
8
0
VERTEX
8
0
62
5
10
0
20
0.16
30
0
70
32
0
VERTEX
8
0
62
5
10
0
20
0.27211403
30
0
70
32
0
SEQEND
8
0
0
POLYLINE
8
0
62
5
66
1
10
0
20
0
30
0
70
8
0
VERTEX
8
0
62
5
10
0.16970563
20
0.27211403
30
0
70
32
0
VERTEX
8
0
62
5
10
0.16970563
20
0.16
30
0
70
32
0
SEQEND
8
0
0
POLYLINE
8
0
62
5
66
1
10
0
20
0
30
0
70
8
0
VERTEX
8
0
62
5
10
0
20
0.16000328
30
0
70
32
0
VERTEX
8
0
62
5
10
0.042426407
20
0.17431928
30
0
70
32
0
VERTEX
8
0
62
5
10
0.084852814
20
0.18802851
30
0
70
32
0
VERTEX
8
0
62
5
10
0.12727922
20
0.17371251
30
0
70
32
0
VERTEX
8
0
62
5
10
0.16970563
20
0.16000328
30
0
70
32
0
SEQEND
8
0
0
POLYLINE
8
0
62
5
66
1
10
0
20
0
30
0
70
8
0
VERTEX
8
0
62
5
10
0
20
0.2160603
30
0
70
32
0
VERTEX
8
0
62
5
10
0.042426407
20
0.2303763
30
0
70
32
0
VERTEX
8
0
62
5
10
0.084852814
20
0.24408552
30
0
70
32
0
VERTEX
8
0
62
5
10
0.12727922
20
0.22976953
30
0
70
32
0
VERTEX
8
0
62
5
10
0.16970563
20
0.2160603
30
0
70
32
0
SEQEND
8
0
0
POLYLINE
8
0
62
5
66
1
10
0
20
0
30
0
70
8
0
VERTEX
8
0
62
5
10
0
20
0.21605373
30
0
70
32
0
VERTEX
8
0
62
5
10
0.042426407
20
0.20173774
30
0
70
32
0
VERTEX
8
0
62
5
10
0.084852814
20
0.18802851
30
0
70
32
0
VERTEX
8
0
62
5
10
0.12727922
20
0.20234451
30
0
70
32
0
VERTEX
8
0
62
5
10
0.16970563
20
0.21605373
30
0
70
32
0
SEQEND
8
0
0
POLYLINE
8
0
62
5
66
1
10
0
20
0
30
0
70
8
0
VERTEX
8
0
62
5
10
0
20
0.27211075
30
0
70
32
0
VERTEX
8
0
62
5
10
0.042426407
20
0.25779475
30
0
70
32
0
VERTEX
8
0
62
5
10
0.084852814
20
0.24408552
30
0
70
32
0
VERTEX
8
0
62
5
10
0.12727922
20
0.25840152
30
0
70
32
0
VERTEX
8
0
62
5
10
0.16970563
20
0.27211075
30
0
70
32
0
SEQEND
8
0
0
POLYLINE
8
0
62
30
66
1
10
0
20
0
30
0
70
8
0
VERTEX
8
0
62
30
10
0
20
0.18802851
30
0
70
32
0
VERTEX
8
0
62
30
10
0.16970563
20
0.18802851
30
0
70
32
0
SEQEND
8
0
0
POLYLINE
8
0
62
30
66
1
10
0
20
0
30
0
70
8
0
VERTEX
8
0
62
30
10
0
20
0.24408552
30
0
70
32
0
VERTEX
8
0
62
30
10
0.16970563
20
0.24408552
30
0
70
32
0
SEQEND
8
0
0
POLYLINE
8
0
62
30
66
1
10
0
20
0
30
0
70
8
0
VERTEX
8
0
62
30
10
0.042426407
20
0.17431928
30
0
70
32
0
VERTEX
8
0
62
30
10
0.042426407
20
0.18802851
30
0
70
32
0
SEQEND
8
0
0
POLYLINE
8
0
62
30
66
1
10
0
20
0
30
0
70
8
0
VERTEX
8
0
62
30
10
0.084852814
20
0.18802851
30
0
70
32
0
VERTEX
8
0
62
30
10
0.084852814
20
0.18802851
30
0
70
32
0
SEQEND
8
0
0
POLYLINE
8
0
62
30
66
1
10
0
20
0
30
0
70
8
0
VERTEX
8
0
62
30
10
0.12727922
20
0.17371251
30
0
70
32
0
VERTEX
8
0
62
30
10
0.12727922
20
0.18802851
30
0
70
32
0
SEQEND
8
0
0
POLYLINE
8
0
62
30
66
1
10
0
20
0
30
0
70
8
0
VERTEX
8
0
62
30
10
0.042426407
20
0.2303763
30
0
70
32
0
VERTEX
8
0
62
30
10
0.042426407
20
0.24408552
30
0
70
32
0
SEQEND
8
0
0
POLYLINE
8
0
62
30
66
1
10
0
20
0
30
0
70
8
0
VERTEX
8
0
62
30
10
0.042426407
20
0.24408552
30
0
70
32
0
VERTEX
8
0
62
30
10
0.084852814
20
0.24408552
30
0
70
32
0
SEQEND
8
0
0
POLYLINE
8
0
62
30
66
1
10
0
20
0
30
0
70
8
0
VERTEX
8
0
62
30
10
0.084852814
20
0.24408552
30
0
70
32
0
VERTEX
8
0
62
30
10
0.084852814
20
0.24408552
30
0
70
32
0
SEQEND
8
0
0
POLYLINE
8
0
62
30
66
1
10
0
20
0
30
0
70
8
0
VERTEX
8
0
62
30
10
0.084852814
20
0.24408552
30
0
70
32
0
VERTEX
8
0
62
30
10
0.12727922
20
0.22976953
30
0
70
32
0
SEQEND
8
0
0
POLYLINE
8
0
62
30
66
1
10
0
20
0
30
0
70
8
0
VERTEX
8
0
62
30
10
0.12727922
20
0.22976953
30
0
70
32
0
VERTEX
8
0
62
30
10
0.12727922
20
0.24408552
30
0
70
32
0
SEQEND
8
0
0
POLYLINE
8
0
62
5
66
1
10
0
20
0
30
0
70
8
0
VERTEX
8
0
62
5
10
0.042426407
20
0.16
30
0
70
32
0
VERTEX
8
0
62
5
10
0.042426407
20
0.17431928
30
0
70
32
0
SEQEND
8
0
0
POLYLINE
8
0
62
5
66
1
10
0
20
0
30
0
70
8
0
VERTEX
8
0
62
5
10
0.084852814
20
0.16
30
0
70
32
0
VERTEX
8
0
62
5
10
0.084852814
20
0.18802851
30
0
70
32
0
SEQEND
8
0
0
POLYLINE
8
0
62
5
66
1
10
0
20
0
30
0
70
8
0
VERTEX
8
0
62
5
10
0.12727922
20
0.16
30
0
70
32
0
VERTEX
8
0
62
5
10
0.12727922
20
0.17371251
30
0
70
32
0
SEQEND
8
0
0
POLYLINE
8
0
62
5
66
1
10
0
20
0
30
0
70
8
0
VERTEX
8
0
62
5
10
0.042426407
20
0.21605702
30
0
70
32
0
VERTEX
8
0
62
5
10
0.042426407
20
0.2303763
30
0
70
32
0
SEQEND
8
0
0
POLYLINE
8
0
62
5
66
1
10
0
20
0
30
0
70
8
0
VERTEX
8
0
62
5
10
0.084852814
20
0.21605702
30
0
70
32
0
VERTEX
8
0
62
5
10
0.084852814
20
0.24408552
30
0
70
32
0
SEQEND
8
0
0
POLYLINE
8
0
62
5
66
1
10
0
20
0
30
0
70
8
0
VERTEX
8
0
62
5
10
0.12727922
20
0.21605702
30
0
70
32
0
VERTEX
8
0
62
5
10
0.12727922
20
0.22976953
30
0
70
32
0
SEQEND
8
0
0
POLYLINE
8
0
62
5
66
1
10
0
20
0
30
0
70
8
0
VERTEX
8
0
62
5
10
0.042426407
20
0.18802851
30
0
70
32
0
VERTEX
8
0
62
5
10
0.042426407
20
0.21605702
30
0
70
32
0
SEQEND
8
0
0
POLYLINE
8
0
62
5
66
1
10
0
20
0
30
0
70
8
0
VERTEX
8
0
62
5
10
0.084852814
20
0.18802851
30
0
70
32
0
VERTEX
8
0
62
5
10
0.084852814
20
0.21605702
30
0
70
32
0
SEQEND
8
0
0
POLYLINE
8
0
62
5
66
1
10
0
20
0
30
0
70
8
0
VERTEX
8
0
62
5
10
0.12727922
20
0.18802851
30
0
70
32
0
VERTEX
8
0
62
5
10
0.12727922
20
0.21605702
30
0
70
32
0
SEQEND
8
0
0
POLYLINE
8
0
62
5
66
1
10
0
20
0
30
0
70
8
0
VERTEX
8
0
62
5
10
0.042426407
20
0.24408552
30
0
70
32
0
VERTEX
8
0
62
5
10
0.042426407
20
0.27211403
30
0
70
32
0
SEQEND
8
0
0
POLYLINE
8
0
62
5
66
1
10
0
20
0
30
0
70
8
0
VERTEX
8
0
62
5
10
0.084852814
20
0.24408552
30
0
70
32
0
VERTEX
8
0
62
5
10
0.084852814
20
0.27211403
30
0
70
32
0
SEQEND
8
0
0
POLYLINE
8
0
62
5
66
1
10
0
20
0
30
0
70
8
0
VERTEX
8
0
62
5
10
0.12727922
20
0.24408552
30
0
70
32
0
VERTEX
8
0
62
5
10
0.12727922
20
0.27211403
30
0
70
32
0
SEQEND
8
0
0
POLYLINE
8
0
62
5
66
1
10
0
20
0
30
0
70
8
0
VERTEX
8
0
62
5
10
0.33941125
20
0.27211403
30
0
70
32
0
VERTEX
8
0
62
5
10
0.33941125
20
0.16
30
0
70
32
0
SEQEND
8
0
0
POLYLINE
8
0
62
5
66
1
10
0
20
0
30
0
70
8
0
VERTEX
8
0
62
5
10
0.16970563
20
0.16000328
30
0
70
32
0
VERTEX
8
0
62
5
10
0.21213203
20
0.17431928
30
0
70
32
0
VERTEX
8
0
62
5
10
0.25455844
20
0.18802851
30
0
70
32
0
VERTEX
8
0
62
5
10
0.29698485
20
0.17371251
30
0
70
32
0
VERTEX
8
0
62
5
10
0.33941125
20
0.16000328
30
0
70
32
0
SEQEND
8
0
0
POLYLINE
8
0
62
5
66
1
10
0
20
0
30
0
70
8
0
VERTEX
8
0
62
5
10
0.16970563
20
0.2160603
30
0
70
32
0
VERTEX
8
0
62
5
10
0.21213203
20
0.2303763
30
0
70
32
0
VERTEX
8
0
62
5
10
0.25455844
20
0.24408552
30
0
70
32
0
VERTEX
8
0
62
5
10
0.29698485
20
0.22976953
30
0
70
32
0
VERTEX
8
0
62
5
10
0.33941125
20
0.2160603
30
0
70
32
0
SEQEND
8
0
0
POLYLINE
8
0
62
5
66
1
10
0
20
0
30
0
70
8
0
VERTEX
8
0
62
5
10
0.16970563
20
0.21605373
30
0
70
32
0
VERTEX
8
0
62
5
10
0.21213203
20
0.20173774
30
0
70
32
0
VERTEX
8
0
62
5
10
0.25455844
20
0.18802851
30
0
70
32
0
VERTEX
8
0
62
5
10
0.29698485
20
0.20234451
30
0
70
32
0
VERTEX
8
0
62
5
10
0.33941125
20
0.21605373
30
0
70
32
0
SEQEND
8
0
0
POLYLINE
8
0
62
5
66
1
10
0
20
0
30
0
70
8
0
VERTEX
8
0
62
5
10
0.16970563
20
0.27211075
30
0
70
32
0
VERTEX
8
0
62
5
10
0.21213203
20
0.25779475
30
0
70
32
0
VERTEX
8
0
62
5
10
0.25455844
20
0.24408552
30
0
70
32
0
VERTEX
8
0
62
5
10
0.29698485
20
0.25840152
30
0
70
32
0
VERTEX
8
0
62
5
10
0.33941125
20
0.27211075
30
0
70
32
0
SEQEND
8
0
0
POLYLINE
8
0
62
30
66
1
10
0
20
0
30
0
70
8
0
VERTEX
8
0
62
30
10
0.16970563
20
0.18802851
30
0
70
32
0
VERTEX
8
0
62
30
10
0.33941125
20
0.18802851
30
0
70
32
0
SEQEND
8
0
0
POLYLINE
8
0
62
30
66
1
10
0
20
0
30
0
70
8
0
VERTEX
8
0
62
30
10
0.16970563
20
0.24408552
30
0
70
32
0
VERTEX
8
0
62
30
10
0.33941125
20
0.24408552
30
0
70
32
0
SEQEND
8
0
0
POLYLINE
8
0
62
30
66
1
10
0
20
0
30
0
70
8
0
VERTEX
8
0
62
30
10
0.21213203
20
0.17431928
30
0
70
32
0
VERTEX
8
0
62
30
10
0.21213203
20
0.18802851
30
0
70
32
0
SEQEND
8
0
0
POLYLINE
8
0
62
30
66
1
10
0
20
0
30
0
70
8
0
VERTEX
8
0
62
30
10
0.25455844
20
0.18802851
30
0
70
32
0
VERTEX
8
0
62
30
10
0.25455844
20
0.18802851
30
0
70
32
0
SEQEND
8
0
0
POLYLINE
8
0
62
30
66
1
10
0
20
0
30
0
70
8
0
VERTEX
8
0
62
30
10
0.29698485
20
0.17371251
30
0
70
32
0
VERTEX
8
0
62
30
10
0.29698485
20
0.18802851
30
0
70
32
0
SEQEND
8
0
0
POLYLINE
8
0
62
30
66
1
10
0
20
0
30
0
70
8
0
VERTEX
8
0
62
30
10
0.21213203
20
0.2303763
30
0
70
32
0
VERTEX
8
0
62
30
10
0.21213203
20
0.24408552
30
0
70
32
0
SEQEND
8
0
0
POLYLINE
8
0
62
30
66
1
10
0
20
0
30
0
70
8
0
VERTEX
8
0
62
30
10
0.21213203
20
0.24408552
30
0
70
32
0
VERTEX
8
0
62
30
10
0.25455844
20
0.24408552
30
0
70
32
0
SEQEND
8
0
0
POLYLINE
8
0
62
30
66
1
10
0
20
0
30
0
70
8
0
VERTEX
8
0
62
30
10
0.25455844
20
0.24408552
30
0
70
32
0
VERTEX
8
0
62
30
10
0.25455844
20
0.24408552
30
0
70
32
0
SEQEND
8
0
0
POLYLINE
8
0
62
30
66
1
10
0
20
0
30
0
70
8
0
VERTEX
8
0
62
30
10
0.25455844
20
0.24408552
30
0
70
32
0
VERTEX
8
0
62
30
10
0.29698485
20
0.22976953
30
0
70
32
0
SEQEND
8
0
0
POLYLINE
8
0
62
30
66
1
10
0
20
0
30
0
70
8
0
VERTEX
8
0
62
30
10
0.29698485
20
0.22976953
30
0
70
32
0
VERTEX
8
0
62
30
10
0.29698485
20
0.24408552
30
0
70
32
0
SEQEND
8
0
0
POLYLINE
8
0
62
5
66
1
10
0
20
0
30
0
70
8
0
VERTEX
8
0
62
5
10
0.21213203
20
0.16
30
0
70
32
0
VERTEX
8
0
62
5
10
0.21213203
20
0.17431928
30
0
70
32
0
SEQEND
8
0
0
POLYLINE
8
0
62
5
66
1
10
0
20
0
30
0
70
8
0
VERTEX
8
0
62
5
10
0.25455844
20
0.16
30
0
70
32
0
VERTEX
8
0
62
5
10
0.25455844
20
0.18802851
30
0
70
32
0
SEQEND
8
0
0
POLYLINE
8
0
62
5
66
1
10
0
20
0
30
0
70
8
0
VERTEX
8
0
62
5
10
0.29698485
20
0.16
30
0
70
32
0
VERTEX
8
0
62
5
10
0.29698485
20
0.17371251
30
0
70
32
0
SEQEND
8
0
0
POLYLINE
8
0
62
5
66
1
10
0
20
0
30
0
70
8
0
VERTEX
8
0
62
5
10
0.21213203
20
0.21605702
30
0
70
32
0
VERTEX
8
0
62
5
10
0.21213203
20
0.2303763
30
0
70
32
0
SEQEND
8
0
0
POLYLINE
8
0
62
5
66
1
10
0
20
0
30
0
70
8
0
VERTEX
8
0
62
5
10
0.25455844
20
0.21605702
30
0
70
32
0
VERTEX
8
0
62
5
10
0.25455844
20
0.24408552
30
0
70
32
0
SEQEND
8
0
0
POLYLINE
8
0
62
5
66
1
10
0
20
0
30
0
70
8
0
VERTEX
8
0
62
5
10
0.29698485
20
0.21605702
30
0
70
32
0
VERTEX
8
0
62
5
10
0.29698485
20
0.22976953
30
0
70
32
0
SEQEND
8
0
0
POLYLINE
8
0
62
5
66
1
10
0
20
0
30
0
70
8
0
VERTEX
8
0
62
5
10
0.21213203
20
0.18802851
30
0
70
32
0
VERTEX
8
0
62
5
10
0.21213203
20
0.21605702
30
0
70
32
0
SEQEND
8
0
0
POLYLINE
8
0
62
5
66
1
10
0
20
0
30
0
70
8
0
VERTEX
8
0
62
5
10
0.25455844
20
0.18802851
30
0
70
32
0
VERTEX
8
0
62
5
10
0.25455844
20
0.21605702
30
0
70
32
0
SEQEND
8
0
0
POLYLINE
8
0
62
5
66
1
10
0
20
0
30
0
70
8
0
VERTEX
8
0
62
5
10
0.29698485
20
0.18802851
30
0
70
32
0
VERTEX
8
0
62
5
10
0.29698485
20
0.21605702
30
0
70
32
0
SEQEND
8
0
0
POLYLINE
8
0
62
5
66
1
10
0
20
0
30
0
70
8
0
VERTEX
8
0
62
5
10
0.21213203
20
0.24408552
30
0
70
32
0
VERTEX
8
0
62
5
10
0.21213203
20
0.27211403
30
0
70
32
0
SEQEND
8
0
0
POLYLINE
8
0
62
5
66
1
10
0
20
0
30
0
70
8
0
VERTEX
8
0
62
5
10
0.25455844
20
0.24408552
30
0
70
32
0
VERTEX
8
0
62
5
10
0.25455844
20
0.27211403
30
0
70
32
0
SEQEND
8
0
0
POLYLINE
8
0
62
5
66
1
10
0
20
0
30
0
70
8
0
VERTEX
8
0
62
5
10
0.29698485
20
0.24408552
30
0
70
32
0
VERTEX
8
0
62
5
10
0.29698485
20
0.27211403
30
0
70
32
0
SEQEND
8
0
0
POLYLINE
8
0
62
5
66
1
10
0
20
0
30
0
70
8
0
VERTEX
8
0
62
5
10
-0.16970563
20
0.16
30
0
70
32
0
VERTEX
8
0
62
5
10
-0.16970563
20
0.27211403
30
0
70
32
0
SEQEND
8
0
0
POLYLINE
8
0
62
5
66
1
10
0
20
0
30
0
70
8
0
VERTEX
8
0
62
5
10
-0.16970563
20
0.16000328
30
0
70
32
0
VERTEX
8
0
62
5
10
-0.12727922
20
0.17431928
30
0
70
32
0
VERTEX
8
0
62
5
10
-0.084852814
20
0.18802851
30
0
70
32
0
VERTEX
8
0
62
5
10
-0.042426407
20
0.17371251
30
0
70
32
0
VERTEX
8
0
62
5
10
0
20
0.16000328
30
0
70
32
0
SEQEND
8
0
0
POLYLINE
8
0
62
5
66
1
10
0
20
0
30
0
70
8
0
VERTEX
8
0
62
5
10
-0.16970563
20
0.2160603
30
0
70
32
0
VERTEX
8
0
62
5
10
-0.12727922
20
0.2303763
30
0
70
32
0
VERTEX
8
0
62
5
10
-0.084852814
20
0.24408552
30
0
70
32
0
VERTEX
8
0
62
5
10
-0.042426407
20
0.22976953
30
0
70
32
0
VERTEX
8
0
62
5
10
0
20
0.2160603
30
0
70
32
0
SEQEND
8
0
0
POLYLINE
8
0
62
5
66
1
10
0
20
0
30
0
70
8
0
VERTEX
8
0
62
5
10
-0.16970563
20
0.21605373
30
0
70
32
0
VERTEX
8
0
62
5
10
-0.12727922
20
0.20173774
30
0
70
32
0
VERTEX
8
0
62
5
10
-0.084852814
20
0.18802851
30
0
70
32
0
VERTEX
8
0
62
5
10
-0.042426407
20
0.20234451
30
0
70
32
0
VERTEX
8
0
62
5
10
0
20
0.21605373
30
0
70
32
0
SEQEND
8
0
0
POLYLINE
8
0
62
5
66
1
10
0
20
0
30
0
70
8
0
VERTEX
8
0
62
5
10
-0.16970563
20
0.27211075
30
0
70
32
0
VERTEX
8
0
62
5
10
-0.12727922
20
0.25779475
30
0
70
32
0
VERTEX
8
0
62
5
10
-0.084852814
20
0.24408552
30
0
70
32
0
VERTEX
8
0
62
5
10
-0.042426407
20
0.25840152
30
0
70
32
0
VERTEX
8
0
62
5
10
0
20
0.27211075
30
0
70
32
0
SEQEND
8
0
0
POLYLINE
8
0
62
30
66
1
10
0
20
0
30
0
70
8
0
VERTEX
8
0
62
30
10
-0.16970563
20
0.18802851
30
0
70
32
0
VERTEX
8
0
62
30
10
0
20
0.18802851
30
0
70
32
0
SEQEND
8
0
0
POLYLINE
8
0
62
30
66
1
10
0
20
0
30
0
70
8
0
VERTEX
8
0
62
30
10
-0.16970563
20
0.24408552
30
0
70
32
0
VERTEX
8
0
62
30
10
0
20
0.24408552
30
0
70
32
0
SEQEND
8
0
0
POLYLINE
8
0
62
30
66
1
10
0
20
0
30
0
70
8
0
VERTEX
8
0
62
30
10
-0.12727922
20
0.17431928
30
0
70
32
0
VERTEX
8
0
62
30
10
-0.12727922
20
0.18802851
30
0
70
32
0
SEQEND
8
0
0
POLYLINE
8
0
62
30
66
1
10
0
20
0
30
0
70
8
0
VERTEX
8
0
62
30
10
-0.084852814
20
0.18802851
30
0
70
32
0
VERTEX
8
0
62
30
10
-0.084852814
20
0.18802851
30
0
70
32
0
SEQEND
8
0
0
POLYLINE
8
0
62
30
66
1
10
0
20
0
30
0
70
8
0
VERTEX
8
0
62
30
10
-0.042426407
20
0.17371251
30
0
70
32
0
VERTEX
8
0
62
30
10
-0.042426407
20
0.18802851
30
0
70
32
0
SEQEND
8
0
0
POLYLINE
8
0
62
30
66
1
10
0
20
0
30
0
70
8
0
VERTEX
8
0
62
30
10
-0.12727922
20
0.2303763
30
0
70
32
0
VERTEX
8
0
62
30
10
-0.12727922
20
0.24408552
30
0
70
32
0
SEQEND
8
0
0
POLYLINE
8
0
62
30
66
1
10
0
20
0
30
0
70
8
0
VERTEX
8
0
62
30
10
-0.12727922
20
0.24408552
30
0
70
32
0
VERTEX
8
0
62
30
10
-0.084852814
20
0.24408552
30
0
70
32
0
SEQEND
8
0
0
POLYLINE
8
0
62
30
66
1
10
0
20
0
30
0
70
8
0
VERTEX
8
0
62
30
10
-0.084852814
20
0.24408552
30
0
70
32
0
VERTEX
8
0
62
30
10
-0.084852814
20
0.24408552
30
0
70
32
0
SEQEND
8
0
0
POLYLINE
8
0
62
30
66
1
10
0
20
0
30
0
70
8
0
VERTEX
8
0
62
30
10
-0.084852814
20
0.24408552
30
0
70
32
0
VERTEX
8
0
62
30
10
-0.042426407
20
0.22976953
30
0
70
32
0
SEQEND
8
0
0
POLYLINE
8
0
62
30
66
1
10
0
20
0
30
0
70
8
0
VERTEX
8
0
62
30
10
-0.042426407
20
0.22976953
30
0
70
32
0
VERTEX
8
0
62
30
10
-0.042426407
20
0.24408552
30
0
70
32
0
SEQEND
8
0
0
POLYLINE
8
0
62
5
66
1
10
0
20
0
30
0
70
8
0
VERTEX
8
0
62
5
10
-0.12727922
20
0.16
30
0
70
32
0
VERTEX
8
0
62
5
10
-0.12727922
20
0.17431928
30
0
70
32
0
SEQEND
8
0
0
POLYLINE
8
0
62
5
66
1
10
0
20
0
30
0
70
8
0
VERTEX
8
0
62
5
10
-0.084852814
20
0.16
30
0
70
32
0
VERTEX
8
0
62
5
10
-0.084852814
20
0.18802851
30
0
70
32
0
SEQEND
8
0
0
POLYLINE
8
0
62
5
66
1
10
0
20
0
30
0
70
8
0
VERTEX
8
0
62
5
10
-0.042426407
20
0.16
30
0
70
32
0
VERTEX
8
0
62
5
10
-0.042426407
20
0.17371251
30
0
70
32
0
SEQEND
8
0
0
POLYLINE
8
0
62
5
66
1
10
0
20
0
30
0
70
8
0
VERTEX
8
0
62
5
10
-0.12727922
20
0.21605702
30
0
70
32
0
VERTEX
8
0
62
5
10
-0.12727922
20
0.2303763
30
0
70
32
0
SEQEND
8
0
0
POLYLINE
8
0
62
5
66
1
10
0
20
0
30
0
70
8
0
VERTEX
8
0
62
5
10
-0.084852814
20
0.21605702
30
0
70
32
0
VERTEX
8
0
62
5
10
-0.084852814
20
0.24408552
30
0
70
32
0
SEQEND
8
0
0
POLYLINE
8
0
62
5
66
1
10
0
20
0
30
0
70
8
0
VERTEX
8
0
62
5
10
-0.042426407
20
0.21605702
30
0
70
32
0
VERTEX
8
0
62
5
10
-0.042426407
20
0.22976953
30
0
70
32
0
SEQEND
8
0
0
POLYLINE
8
0
62
5
66
1
10
0
20
0
30
0
70
8
0
VERTEX
8
0
62
5
10
-0.12727922
20
0.18802851
30
0
70
32
0
VERTEX
8
0
62
5
10
-0.12727922
20
0.21605702
30
0
70
32
0
SEQEND
8
0
0
POLYLINE
8
0
62
5
66
1
10
0
20
0
30
0
70
8
0
VERTEX
8
0
62
5
10
-0.084852814
20
0.18802851
30
0
70
32
0
VERTEX
8
0
62
5
10
-0.084852814
20
0.21605702
30
0
70
32
0
SEQEND
8
0
0
POLYLINE
8
0
62
5
66
1
10
0
20
0
30
0
70
8
0
VERTEX
8
0
62
5
10
-0.042426407
20
0.18802851
30
0
70
32
0
VERTEX
8
0
62
5
10
-0.042426407
20
0.21605702
30
0
70
32
0
SEQEND
8
0
0
POLYLINE
8
0
62
5
66
1
10
0
20
0
30
0
70
8
0
VERTEX
8
0
62
5
10
-0.12727922
20
0.24408552
30
0
70
32
0
VERTEX
8
0
62
5
10
-0.12727922
20
0.27211403
30
0
70
32
0
SEQEND
8
0
0
POLYLINE
8
0
62
5
66
1
10
0
20
0
30
0
70
8
0
VERTEX
8
0
62
5
10
-0.084852814
20
0.24408552
30
0
70
32
0
VERTEX
8
0
62
5
10
-0.084852814
20
0.27211403
30
0
70
32
0
SEQEND
8
0
0
POLYLINE
8
0
62
5
66
1
10
0
20
0
30
0
70
8
0
VERTEX
8
0
62
5
10
-0.042426407
20
0.24408552
30
0
70
32
0
VERTEX
8
0
62
5
10
-0.042426407
20
0.27211403
30
0
70
32
0
SEQEND
8
0
0
POLYLINE
8
0
62
30
66
1
10
0
20
0
30
0
70
8
0
VERTEX
8
0
62
30
10
0
20
0.3276664
30
0
70
32
0
VERTEX
8
0
62
30
10
0.16970563
20
0.3276664
30
0
70
32
0
SEQEND
8
0
0
POLYLINE
8
0
62
30
66
1
10
0
20
0
30
0
70
8
0
VERTEX
8
0
62
30
10
0
20
0.27211403
30
0
70
32
0
VERTEX
8
0
62
30
10
0.16970563
20
0.27211403
30
0
70
32
0
SEQEND
8
0
0
POLYLINE
8
0
62
5
66
1
10
0
20
0
30
0
70
8
0
VERTEX
8
0
62
5
10
0
20
0.27211403
30
0
70
32
0
VERTEX
8
0
62
5
10
0.018290625
20
0.3276664
30
0
70
32
0
VERTEX
8
0
62
5
10
0.042426407
20
0.27211403
30
0
70
32
0
VERTEX
8
0
62
5
10
0.060717032
20
0.3276664
30
0
70
32
0
VERTEX
8
0
62
5
10
0.084852814
20
0.27211403
30
0
70
32
0
VERTEX
8
0
62
5
10
0.10314344
20
0.3276664
30
0
70
32
0
VERTEX
8
0
62
5
10
0.12727922
20
0.27211403
30
0
70
32
0
VERTEX
8
0
62
5
10
0.14556985
20
0.3276664
30
0
70
32
0
VERTEX
8
0
62
5
10
0.16970563
20
0.27211403
30
0
70
32
0
SEQEND
8
0
0
POLYLINE
8
0
62
5
66
1
10
0
20
0
30
0
70
8
0
VERTEX
8
0
62
5
10
0.042426407
20
0.27211403
30
0
70
32
0
VERTEX
8
0
62
5
10
0.042426407
20
0.27211403
30
0
70
32
0
SEQEND
8
0
0
POLYLINE
8
0
62
5
66
1
10
0
20
0
30
0
70
8
0
VERTEX
8
0
62
5
10
0.084852814
20
0.27211403
30
0
70
32
0
VERTEX
8
0
62
5
10
0.084852814
20
0.27211403
30
0
70
32
0
SEQEND
8
0
0
POLYLINE
8
0
62
5
66
1
10
0
20
0
30
0
70
8
0
VERTEX
8
0
62
5
10
0.12727922
20
0.27211403
30
0
70
32
0
VERTEX
8
0
62
5
10
0.12727922
20
0.27211403
30
0
70
32
0
SEQEND
8
0
0
POLYLINE
8
0
62
5
66
1
10
0
20
0
30
0
70
8
0
VERTEX
8
0
62
5
10
0.018290625
20
0.3276664
30
0
70
32
0
VERTEX
8
0
62
5
10
0.018290625
20
0.3276664
30
0
70
32
0
SEQEND
8
0
0
POLYLINE
8
0
62
5
66
1
10
0
20
0
30
0
70
8
0
VERTEX
8
0
62
5
10
0.060717032
20
0.3276664
30
0
70
32
0
VERTEX
8
0
62
5
10
0.060717032
20
0.3276664
30
0
70
32
0
SEQEND
8
0
0
POLYLINE
8
0
62
5
66
1
10
0
20
0
30
0
70
8
0
VERTEX
8
0
62
5
10
0.10314344
20
0.3276664
30
0
70
32
0
VERTEX
8
0
62
5
10
0.10314344
20
0.3276664
30
0
70
32
0
SEQEND
8
0
0
POLYLINE
8
0
62
5
66
1
10
0
20
0
30
0
70
8
0
VERTEX
8
0
62
5
10
0.14556985
20
0.3276664
30
0
70
32
0
VERTEX
8
0
62
5
10
0.14556985
20
0.3276664
30
0
70
32
0
SEQEND
8
0
0
POLYLINE
8
0
62
30
66
1
10
0
20
0
30
0
70
8
0
VERTEX
8
0
62
30
10
0.16970563
20
0.3276664
30
0
70
32
0
VERTEX
8
0
62
30
10
0.33941125
20
0.3276664
30
0
70
32
0
SEQEND
8
0
0
POLYLINE
8
0
62
30
66
1
10
0
20
0
30
0
70
8
0
VERTEX
8
0
62
30
10
0.16970563
20
0.27211403
30
0
70
32
0
VERTEX
8
0
62
30
10
0.33941125
20
0.27211403
30
0
70
32
0
SEQEND
8
0
0
POLYLINE
8
0
62
5
66
1
10
0
20
0
30
0
70
8
0
VERTEX
8
0
62
5
10
0.16970563
20
0.27211403
30
0
70
32
0
VERTEX
8
0
62
5
10
0.18799625
20
0.3276664
30
0
70
32
0
VERTEX
8
0
62
5
10
0.21213203
20
0.27211403
30
0
70
32
0
VERTEX
8
0
62
5
10
0.23042266
20
0.3276664
30
0
70
32
0
VERTEX
8
0
62
5
10
0.25455844
20
0.27211403
30
0
70
32
0
VERTEX
8
0
62
5
10
0.27284907
20
0.3276664
30
0
70
32
0
VERTEX
8
0
62
5
10
0.29698485
20
0.27211403
30
0
70
32
0
VERTEX
8
0
62
5
10
0.31527547
20
0.3276664
30
0
70
32
0
VERTEX
8
0
62
5
10
0.33941125
20
0.27211403
30
0
70
32
0
SEQEND
8
0
0
POLYLINE
8
0
62
5
66
1
10
0
20
0
30
0
70
8
0
VERTEX
8
0
62
5
10
0.21213203
20
0.27211403
30
0
70
32
0
VERTEX
8
0
62
5
10
0.21213203
20
0.27211403
30
0
70
32
0
SEQEND
8
0
0
POLYLINE
8
0
62
5
66
1
10
0
20
0
30
0
70
8
0
VERTEX
8
0
62
5
10
0.25455844
20
0.27211403
30
0
70
32
0
VERTEX
8
0
62
5
10
0.25455844
20
0.27211403
30
0
70
32
0
SEQEND
8
0
0
POLYLINE
8
0
62
5
66
1
10
0
20
0
30
0
70
8
0
VERTEX
8
0
62
5
10
0.29698485
20
0.27211403
30
0
70
32
0
VERTEX
8
0
62
5
10
0.29698485
20
0.27211403
30
0
70
32
0
SEQEND
8
0
0
POLYLINE
8
0
62
5
66
1
10
0
20
0
30
0
70
8
0
VERTEX
8
0
62
5
10
0.18799625
20
0.3276664
30
0
70
32
0
VERTEX
8
0
62
5
10
0.18799625
20
0.3276664
30
0
70
32
0
SEQEND
8
0
0
POLYLINE
8
0
62
5
66
1
10
0
20
0
30
0
70
8
0
VERTEX
8
0
62
5
10
0.23042266
20
0.3276664
30
0
70
32
0
VERTEX
8
0
62
5
10
0.23042266
20
0.3276664
30
0
70
32
0
SEQEND
8
0
0
POLYLINE
8
0
62
5
66
1
10
0
20
0
30
0
70
8
0
VERTEX
8
0
62
5
10
0.27284907
20
0.3276664
30
0
70
32
0
VERTEX
8
0
62
5
10
0.27284907
20
0.3276664
30
0
70
32
0
SEQEND
8
0
0
POLYLINE
8
0
62
5
66
1
10
0
20
0
30
0
70
8
0
VERTEX
8
0
62
5
10
0.31527547
20
0.3276664
30
0
70
32
0
VERTEX
8
0
62
5
10
0.31527547
20
0.3276664
30
0
70
32
0
SEQEND
8
0
0
POLYLINE
8
0
62
30
66
1
10
0
20
0
30
0
70
8
0
VERTEX
8
0
62
30
10
-0.16970563
20
0.3276664
30
0
70
32
0
VERTEX
8
0
62
30
10
0
20
0.3276664
30
0
70
32
0
SEQEND
8
0
0
POLYLINE
8
0
62
30
66
1
10
0
20
0
30
0
70
8
0
VERTEX
8
0
62
30
10
-0.16970563
20
0.27211403
30
0
70
32
0
VERTEX
8
0
62
30
10
0
20
0.27211403
30
0
70
32
0
SEQEND
8
0
0
POLYLINE
8
0
62
5
66
1
10
0
20
0
30
0
70
8
0
VERTEX
8
0
62
5
10
-0.16970563
20
0.27211403
30
0
70
32
0
VERTEX
8
0
62
5
10
-0.151415
20
0.3276664
30
0
70
32
0
VERTEX
8
0
62
5
10
-0.12727922
20
0.27211403
30
0
70
32
0
VERTEX
8
0
62
5
10
-0.1089886
20
0.3276664
30
0
70
32
0
VERTEX
8
0
62
5
10
-0.084852814
20
0.27211403
30
0
70
32
0
VERTEX
8
0
62
5
10
-0.066562189
20
0.3276664
30
0
70
32
0
VERTEX
8
0
62
5
10
-0.042426407
20
0.27211403
30
0
70
32
0
VERTEX
8
0
62
5
10
-0.024135782
20
0.3276664
30
0
70
32
0
VERTEX
8
0
62
5
10
0
20
0.27211403
30
0
70
32
0
SEQEND
8
0
0
POLYLINE
8
0
62
5
66
1
10
0
20
0
30
0
70
8
0
VERTEX
8
0
62
5
10
-0.12727922
20
0.27211403
30
0
70
32
0
VERTEX
8
0
62
5
10
-0.12727922
20
0.27211403
30
0
70
32
0
SEQEND
8
0
0
POLYLINE
8
0
62
5
66
1
10
0
20
0
30
0
70
8
0
VERTEX
8
0
62
5
10
-0.084852814
20
0.27211403
30
0
70
32
0
VERTEX
8
0
62
5
10
-0.084852814
20
0.27211403
30
0
70
32
0
SEQEND
8
0
0
POLYLINE
8
0
62
5
66
1
10
0
20
0
30
0
70
8
0
VERTEX
8
0
62
5
10
-0.042426407
20
0.27211403
30
0
70
32
0
VERTEX
8
0
62
5
10
-0.042426407
20
0.27211403
30
0
70
32
0
SEQEND
8
0
0
POLYLINE
8
0
62
5
66
1
10
0
20
0
30
0
70
8
0
VERTEX
8
0
62
5
10
-0.151415
20
0.3276664
30
0
70
32
0
VERTEX
8
0
62
5
10
-0.151415
20
0.3276664
30
0
70
32
0
SEQEND
8
0
0
POLYLINE
8
0
62
5
66
1
10
0
20
0
30
0
70
8
0
VERTEX
8
0
62
5
10
-0.1089886
20
0.3276664
30
0
70
32
0
VERTEX
8
0
62
5
10
-0.1089886
20
0.3276664
30
0
70
32
0
SEQEND
8
0
0
POLYLINE
8
0
62
5
66
1
10
0
20
0
30
0
70
8
0
VERTEX
8
0
62
5
10
-0.066562189
20
0.3276664
30
0
70
32
0
VERTEX
8
0
62
5
10
-0.066562189
20
0.3276664
30
0
70
32
0
SEQEND
8
0
0
POLYLINE
8
0
62
5
66
1
10
0
20
0
30
0
70
8
0
VERTEX
8
0
62
5
10
-0.024135782
20
0.3276664
30
0
70
32
0
VERTEX
8
0
62
5
10
-0.024135782
20
0.3276664
30
0
70
32
0
SEQEND
8
0
0
POLYLINE
8
0
62
5
66
1
10
0
20
0
30
0
70
8
0
VERTEX
8
0
62
5
10
0.018290625
20
0.3276664
30
0
70
32
0
VERTEX
8
0
62
5
10
0.018290625
20
0.54716929
30
0
70
32
0
SEQEND
8
0
0
POLYLINE
8
0
62
5
66
1
10
0
20
0
30
0
70
8
0
VERTEX
8
0
62
5
10
0.18799625
20
0.3276664
30
0
70
32
0
VERTEX
8
0
62
5
10
0.18799625
20
0.54716929
30
0
70
32
0
SEQEND
8
0
0
POLYLINE
8
0
62
5
66
1
10
0
20
0
30
0
70
8
0
VERTEX
8
0
62
5
10
0.060717032
20
0.3276664
30
0
70
32
0
VERTEX
8
0
62
5
10
0.060717032
20
0.54716929
30
0
70
32
0
SEQEND
8
0
0
POLYLINE
8
0
62
5
66
1
10
0
20
0
30
0
70
8
0
VERTEX
8
0
62
5
10
0.10314344
20
0.3276664
30
0
70
32
0
VERTEX
8
0
62
5
10
0.10314344
20
0.54716929
30
0
70
32
0
SEQEND
8
0
0
POLYLINE
8
0
62
5
66
1
10
0
20
0
30
0
70
8
0
VERTEX
8
0
62
5
10
0.14556985
20
0.3276664
30
0
70
32
0
VERTEX
8
0
62
5
10
0.14556985
20
0.54716929
30
0
70
32
0
SEQEND
8
0
0
POLYLINE
8
0
62
5
66
1
10
0
20
0
30
0
70
8
0
VERTEX
8
0
62
5
10
0.35770188
20
0.3276664
30
0
70
32
0
VERTEX
8
0
62
5
10
0.35770188
20
0.54716929
30
0
70
32
0
SEQEND
8
0
0
POLYLINE
8
0
62
5
66
1
10
0
20
0
30
0
70
8
0
VERTEX
8
0
62
5
10
0.23042266
20
0.3276664
30
0
70
32
0
VERTEX
8
0
62
5
10
0.23042266
20
0.54716929
30
0
70
32
0
SEQEND
8
0
0
POLYLINE
8
0
62
5
66
1
10
0
20
0
30
0
70
8
0
VERTEX
8
0
62
5
10
0.27284907
20
0.3276664
30
0
70
32
0
VERTEX
8
0
62
5
10
0.27284907
20
0.54716929
30
0
70
32
0
SEQEND
8
0
0
POLYLINE
8
0
62
5
66
1
10
0
20
0
30
0
70
8
0
VERTEX
8
0
62
5
10
0.31527547
20
0.3276664
30
0
70
32
0
VERTEX
8
0
62
5
10
0.31527547
20
0.54716929
30
0
70
32
0
SEQEND
8
0
0
POLYLINE
8
0
62
5
66
1
10
0
20
0
30
0
70
8
0
VERTEX
8
0
62
5
10
-0.151415
20
0.3276664
30
0
70
32
0
VERTEX
8
0
62
5
10
-0.151415
20
0.54716929
30
0
70
32
0
SEQEND
8
0
0
POLYLINE
8
0
62
5
66
1
10
0
20
0
30
0
70
8
0
VERTEX
8
0
62
5
10
-0.1089886
20
0.3276664
30
0
70
32
0
VERTEX
8
0
62
5
10
-0.1089886
20
0.54716929
30
0
70
32
0
SEQEND
8
0
0
POLYLINE
8
0
62
5
66
1
10
0
20
0
30
0
70
8
0
VERTEX
8
0
62
5
10
-0.066562189
20
0.3276664
30
0
70
32
0
VERTEX
8
0
62
5
10
-0.066562189
20
0.54716929
30
0
70
32
0
SEQEND
8
0
0
POLYLINE
8
0
62
5
66
1
10
0
20
0
30
0
70
8
0
VERTEX
8
0
62
5
10
-0.024135782
20
0.3276664
30
0
70
32
0
VERTEX
8
0
62
5
10
-0.024135782
20
0.54716929
30
0
70
32
0
SEQEND
8
0
0
POLYLINE
8
0
62
5
66
1
10
0
20
0
30
0
70
8
0
VERTEX
8
0
62
5
10
0.018290625
20
0.54716929
30
0
70
32
0
VERTEX
8
0
62
5
10
0.018290625
20
0.59571832
30
0
70
32
0
SEQEND
8
0
0
POLYLINE
8
0
62
5
66
1
10
0
20
0
30
0
70
8
0
VERTEX
8
0
62
5
10
0.18799625
20
0.59571832
30
0
70
32
0
VERTEX
8
0
62
5
10
0.18799625
20
0.54716929
30
0
70
32
0
SEQEND
8
0
0
POLYLINE
8
0
62
5
66
1
10
0
20
0
30
0
70
8
0
VERTEX
8
0
62
5
10
0.018290625
20
0.55349901
30
0
70
32
0
VERTEX
8
0
62
5
10
0.060717032
20
0.54904319
30
0
70
32
0
VERTEX
8
0
62
5
10
0.10314344
20
0.56698799
30
0
70
32
0
VERTEX
8
0
62
5
10
0.14556985
20
0.5714438
30
0
70
32
0
VERTEX
8
0
62
5
10
0.18799625
20
0.55349901
30
0
70
32
0
SEQEND
8
0
0
POLYLINE
8
0
62
5
66
1
10
0
20
0
30
0
70
8
0
SEQEND
8
0
0
POLYLINE
8
0
62
5
66
1
10
0
20
0
30
0
70
8
0
VERTEX
8
0
62
5
10
0.018290625
20
0.5893886
30
0
70
32
0
VERTEX
8
0
62
5
10
0.060717032
20
0.59384442
30
0
70
32
0
VERTEX
8
0
62
5
10
0.10314344
20
0.57589962
30
0
70
32
0
VERTEX
8
0
62
5
10
0.14556985
20
0.5714438
30
0
70
32
0
VERTEX
8
0
62
5
10
0.18799625
20
0.5893886
30
0
70
32
0
SEQEND
8
0
0
POLYLINE
8
0
62
30
66
1
10
0
20
0
30
0
70
8
0
VERTEX
8
0
62
30
10
0.018290625
20
0.5714438
30
0
70
32
0
VERTEX
8
0
62
30
10
0.18799625
20
0.5714438
30
0
70
32
0
SEQEND
8
0
0
POLYLINE
8
0
62
30
66
1
10
0
20
0
30
0
70
8
0
VERTEX
8
0
62
30
10
0.060717032
20
0.54904319
30
0
70
32
0
VERTEX
8
0
62
30
10
0.060717032
20
0.5714438
30
0
70
32
0
SEQEND
8
0
0
POLYLINE
8
0
62
30
66
1
10
0
20
0
30
0
70
8
0
VERTEX
8
0
62
30
10
0.10314344
20
0.56698799
30
0
70
32
0
VERTEX
8
0
62
30
10
0.10314344
20
0.5714438
30
0
70
32
0
SEQEND
8
0
0
POLYLINE
8
0
62
30
66
1
10
0
20
0
30
0
70
8
0
VERTEX
8
0
62
30
10
0.14556985
20
0.5714438
30
0
70
32
0
VERTEX
8
0
62
30
10
0.14556985
20
0.5714438
30
0
70
32
0
SEQEND
8
0
0
POLYLINE
8
0
62
5
66
1
10
0
20
0
30
0
70
8
0
VERTEX
8
0
62
5
10
0.060717032
20
0.54716929
30
0
70
32
0
VERTEX
8
0
62
5
10
0.060717032
20
0.54904319
30
0
70
32
0
SEQEND
8
0
0
POLYLINE
8
0
62
5
66
1
10
0
20
0
30
0
70
8
0
VERTEX
8
0
62
5
10
0.10314344
20
0.54716929
30
0
70
32
0
VERTEX
8
0
62
5
10
0.10314344
20
0.56698799
30
0
70
32
0
SEQEND
8
0
0
POLYLINE
8
0
62
5
66
1
10
0
20
0
30
0
70
8
0
VERTEX
8
0
62
5
10
0.14556985
20
0.54716929
30
0
70
32
0
VERTEX
8
0
62
5
10
0.14556985
20
0.5714438
30
0
70
32
0
SEQEND
8
0
0
POLYLINE
8
0
62
5
66
1
10
0
20
0
30
0
70
8
0
VERTEX
8
0
62
5
10
0.060717032
20
0.5714438
30
0
70
32
0
VERTEX
8
0
62
5
10
0.060717032
20
0.59571832
30
0
70
32
0
SEQEND
8
0
0
POLYLINE
8
0
62
5
66
1
10
0
20
0
30
0
70
8
0
VERTEX
8
0
62
5
10
0.10314344
20
0.5714438
30
0
70
32
0
VERTEX
8
0
62
5
10
0.10314344
20
0.59571832
30
0
70
32
0
SEQEND
8
0
0
POLYLINE
8
0
62
5
66
1
10
0
20
0
30
0
70
8
0
VERTEX
8
0
62
5
10
0.14556985
20
0.5714438
30
0
70
32
0
VERTEX
8
0
62
5
10
0.14556985
20
0.59571832
30
0
70
32
0
SEQEND
8
0
0
POLYLINE
8
0
62
5
66
1
10
0
20
0
30
0
70
8
0
VERTEX
8
0
62
5
10
0.35770188
20
0.59571832
30
0
70
32
0
VERTEX
8
0
62
5
10
0.35770188
20
0.54716929
30
0
70
32
0
SEQEND
8
0
0
POLYLINE
8
0
62
5
66
1
10
0
20
0
30
0
70
8
0
VERTEX
8
0
62
5
10
0.18799625
20
0.55349901
30
0
70
32
0
VERTEX
8
0
62
5
10
0.23042266
20
0.54904319
30
0
70
32
0
VERTEX
8
0
62
5
10
0.27284907
20
0.56698799
30
0
70
32
0
VERTEX
8
0
62
5
10
0.31527547
20
0.5714438
30
0
70
32
0
VERTEX
8
0
62
5
10
0.35770188
20
0.55349901
30
0
70
32
0
SEQEND
8
0
0
POLYLINE
8
0
62
5
66
1
10
0
20
0
30
0
70
8
0
SEQEND
8
0
0
POLYLINE
8
0
62
5
66
1
10
0
20
0
30
0
70
8
0
VERTEX
8
0
62
5
10
0.18799625
20
0.5893886
30
0
70
32
0
VERTEX
8
0
62
5
10
0.23042266
20
0.59384442
30
0
70
32
0
VERTEX
8
0
62
5
10
0.27284907
20
0.57589962
30
0
70
32
0
VERTEX
8
0
62
5
10
0.31527547
20
0.5714438
30
0
70
32
0
VERTEX
8
0
62
5
10
0.35770188
20
0.5893886
30
0
70
32
0
SEQEND
8
0
0
POLYLINE
8
0
62
30
66
1
10
0
20
0
30
0
70
8
0
VERTEX
8
0
62
30
10
0.18799625
20
0.5714438
30
0
70
32
0
VERTEX
8
0
62
30
10
0.35770188
20
0.5714438
30
0
70
32
0
SEQEND
8
0
0
POLYLINE
8
0
62
30
66
1
10
0
20
0
30
0
70
8
0
VERTEX
8
0
62
30
10
0.23042266
20
0.54904319
30
0
70
32
0
VERTEX
8
0
62
30
10
0.23042266
20
0.5714438
30
0
70
32
0
SEQEND
8
0
0
POLYLINE
8
0
62
30
66
1
10
0
20
0
30
0
70
8
0
VERTEX
8
0
62
30
10
0.27284907
20
0.56698799
30
0
70
32
0
VERTEX
8
0
62
30
10
0.27284907
20
0.5714438
30
0
70
32
0
SEQEND
8
0
0
POLYLINE
8
0
62
30
66
1
10
0
20
0
30
0
70
8
0
VERTEX
8
0
62
30
10
0.31527547
20
0.5714438
30
0
70
32
0
VERTEX
8
0
62
30
10
0.31527547
20
0.5714438
30
0
70
32
0
SEQEND
8
0
0
POLYLINE
8
0
62
5
66
1
10
0
20
0
30
0
70
8
0
VERTEX
8
0
62
5
10
0.23042266
20
0.54716929
30
0
70
32
0
VERTEX
8
0
62
5
10
0.23042266
20
0.54904319
30
0
70
32
0
SEQEND
8
0
0
POLYLINE
8
0
62
5
66
1
10
0
20
0
30
0
70
8
0
VERTEX
8
0
62
5
10
0.27284907
20
0.54716929
30
0
70
32
0
VERTEX
8
0
62
5
10
0.27284907
20
0.56698799
30
0
70
32
0
SEQEND
8
0
0
POLYLINE
8
0
62
5
66
1
10
0
20
0
30
0
70
8
0
VERTEX
8
0
62
5
10
0.31527547
20
0.54716929
30
0
70
32
0
VERTEX
8
0
62
5
10
0.31527547
20
0.5714438
30
0
70
32
0
SEQEND
8
0
0
POLYLINE
8
0
62
5
66
1
10
0
20
0
30
0
70
8
0
VERTEX
8
0
62
5
10
0.23042266
20
0.5714438
30
0
70
32
0
VERTEX
8
0
62
5
10
0.23042266
20
0.59571832
30
0
70
32
0
SEQEND
8
0
0
POLYLINE
8
0
62
5
66
1
10
0
20
0
30
0
70
8
0
VERTEX
8
0
62
5
10
0.27284907
20
0.5714438
30
0
70
32
0
VERTEX
8
0
62
5
10
0.27284907
20
0.59571832
30
0
70
32
0
SEQEND
8
0
0
POLYLINE
8
0
62
5
66
1
10
0
20
0
30
0
70
8
0
VERTEX
8
0
62
5
10
0.31527547
20
0.5714438
30
0
70
32
0
VERTEX
8
0
62
5
10
0.31527547
20
0.59571832
30
0
70
32
0
SEQEND
8
0
0
POLYLINE
8
0
62
5
66
1
10
0
20
0
30
0
70
8
0
VERTEX
8
0
62
5
10
-0.151415
20
0.54716929
30
0
70
32
0
VERTEX
8
0
62
5
10
-0.151415
20
0.59571832
30
0
70
32
0
SEQEND
8
0
0
POLYLINE
8
0
62
5
66
1
10
0
20
0
30
0
70
8
0
VERTEX
8
0
62
5
10
-0.151415
20
0.55349901
30
0
70
32
0
VERTEX
8
0
62
5
10
-0.1089886
20
0.54904319
30
0
70
32
0
VERTEX
8
0
62
5
10
-0.066562189
20
0.56698799
30
0
70
32
0
VERTEX
8
0
62
5
10
-0.024135782
20
0.5714438
30
0
70
32
0
VERTEX
8
0
62
5
10
0.018290625
20
0.55349901
30
0
70
32
0
SEQEND
8
0
0
POLYLINE
8
0
62
5
66
1
10
0
20
0
30
0
70
8
0
SEQEND
8
0
0
POLYLINE
8
0
62
5
66
1
10
0
20
0
30
0
70
8
0
VERTEX
8
0
62
5
10
-0.151415
20
0.5893886
30
0
70
32
0
VERTEX
8
0
62
5
10
-0.1089886
20
0.59384442
30
0
70
32
0
VERTEX
8
0
62
5
10
-0.066562189
20
0.57589962
30
0
70
32
0
VERTEX
8
0
62
5
10
-0.024135782
20
0.5714438
30
0
70
32
0
VERTEX
8
0
62
5
10
0.018290625
20
0.5893886
30
0
70
32
0
SEQEND
8
0
0
POLYLINE
8
0
62
30
66
1
10
0
20
0
30
0
70
8
0
VERTEX
8
0
62
30
10
-0.151415
20
0.5714438
30
0
70
32
0
VERTEX
8
0
62
30
10
0.018290625
20
0.5714438
30
0
70
32
0
SEQEND
8
0
0
POLYLINE
8
0
62
30
66
1
10
0
20
0
30
0
70
8
0
VERTEX
8
0
62
30
10
-0.1089886
20
0.54904319
30
0
70
32
0
VERTEX
8
0
62
30
10
-0.1089886
20
0.5714438
30
0
70
32
0
SEQEND
8
0
0
POLYLINE
8
0
62
30
66
1
10
0
20
0
30
0
70
8
0
VERTEX
8
0
62
30
10
-0.066562189
20
0.56698799
30
0
70
32
0
VERTEX
8
0
62
30
10
-0.066562189
20
0.5714438
30
0
70
32
0
SEQEND
8
0
0
POLYLINE
8
0
62
30
66
1
10
0
20
0
30
0
70
8
0
VERTEX
8
0
62
30
10
-0.024135782
20
0.5714438
30
0
70
32
0
VERTEX
8
0
62
30
10
-0.024135782
20
0.5714438
30
0
70
32
0
SEQEND
8
0
0
POLYLINE
8
0
62
5
66
1
10
0
20
0
30
0
70
8
0
VERTEX
8
0
62
5
10
-0.1089886
20
0.54716929
30
0
70
32
0
VERTEX
8
0
62
5
10
-0.1089886
20
0.54904319
30
0
70
32
0
SEQEND
8
0
0
POLYLINE
8
0
62
5
66
1
10
0
20
0
30
0
70
8
0
VERTEX
8
0
62
5
10
-0.066562189
20
0.54716929
30
0
70
32
0
VERTEX
8
0
62
5
10
-0.066562189
20
0.56698799
30
0
70
32
0
SEQEND
8
0
0
POLYLINE
8
0
62
5
66
1
10
0
20
0
30
0
70
8
0
VERTEX
8
0
62
5
10
-0.024135782
20
0.54716929
30
0
70
32
0
VERTEX
8
0
62
5
10
-0.024135782
20
0.5714438
30
0
70
32
0
SEQEND
8
0
0
POLYLINE
8
0
62
5
66
1
10
0
20
0
30
0
70
8
0
VERTEX
8
0
62
5
10
-0.1089886
20
0.5714438
30
0
70
32
0
VERTEX
8
0
62
5
10
-0.1089886
20
0.59571832
30
0
70
32
0
SEQEND
8
0
0
POLYLINE
8
0
62
5
66
1
10
0
20
0
30
0
70
8
0
VERTEX
8
0
62
5
10
-0.066562189
20
0.5714438
30
0
70
32
0
VERTEX
8
0
62
5
10
-0.066562189
20
0.59571832
30
0
70
32
0
SEQEND
8
0
0
POLYLINE
8
0
62
5
66
1
10
0
20
0
30
0
70
8
0
VERTEX
8
0
62
5
10
-0.024135782
20
0.5714438
30
0
70
32
0
VERTEX
8
0
62
5
10
-0.024135782
20
0.59571832
30
0
70
32
0
SEQEND
8
0
0
POLYLINE
8
0
62
5
66
1
10
0
20
0
30
0
70
8
0
VERTEX
8
0
62
5
10
0.018290625
20
0.59571832
30
0
70
32
0
VERTEX
8
0
62
5
10
0.018290625
20
0.65571832
30
0
70
32
0
SEQEND
8
0
0
POLYLINE
8
0
62
5
66
1
10
0
20
0
30
0
70
8
0
VERTEX
8
0
62
5
10
0.18799625
20
0.65571832
30
0
70
32
0
VERTEX
8
0
62
5
10
0.18799625
20
0.59571832
30
0
70
32
0
SEQEND
8
0
0
POLYLINE
8
0
62
5
66
1
10
0
20
0
30
0
70
8
0
VERTEX
8
0
62
5
10
0.018290625
20
0.59571832
30
0
70
32
0
VERTEX
8
0
62
5
10
0.18799625
20
0.59571832
30
0
70
32
0
SEQEND
8
0
0
POLYLINE
8
0
62
5
66
1
10
0
20
0
30
0
70
8
0
VERTEX
8
0
62
5
10
0.018290625
20
0.65571832
30
0
70
32
0
VERTEX
8
0
62
5
10
0.18799625
20
0.65571832
30
0
70
32
0
SEQEND
8
0
0
POLYLINE
8
0
62
5
66
1
10
0
20
0
30
0
70
8
0
VERTEX
8
0
62
5
10
0.060717032
20
0.59571832
30
0
70
32
0
VERTEX
8
0
62
5
10
0.060717032
20
0.59571832
30
0
70
32
0
SEQEND
8
0
0
POLYLINE
8
0
62
5
66
1
10
0
20
0
30
0
70
8
0
VERTEX
8
0
62
5
10
0.10314344
20
0.59571832
30
0
70
32
0
VERTEX
8
0
62
5
10
0.10314344
20
0.59571832
30
0
70
32
0
SEQEND
8
0
0
POLYLINE
8
0
62
5
66
1
10
0
20
0
30
0
70
8
0
VERTEX
8
0
62
5
10
0.14556985
20
0.59571832
30
0
70
32
0
VERTEX
8
0
62
5
10
0.14556985
20
0.59571832
30
0
70
32
0
SEQEND
8
0
0
POLYLINE
8
0
62
5
66
1
10
0
20
0
30
0
70
8
0
VERTEX
8
0
62
5
10
0.060717032
20
0.65571832
30
0
70
32
0
VERTEX
8
0
62
5
10
0.060717032
20
0.65571832
30
0
70
32
0
SEQEND
8
0
0
POLYLINE
8
0
62
5
66
1
10
0
20
0
30
0
70
8
0
VERTEX
8
0
62
5
10
0.10314344
20
0.65571832
30
0
70
32
0
VERTEX
8
0
62
5
10
0.10314344
20
0.65571832
30
0
70
32
0
SEQEND
8
0
0
POLYLINE
8
0
62
5
66
1
10
0
20
0
30
0
70
8
0
VERTEX
8
0
62
5
10
0.14556985
20
0.65571832
30
0
70
32
0
VERTEX
8
0
62
5
10
0.14556985
20
0.65571832
30
0
70
32
0
SEQEND
8
0
0
POLYLINE
8
0
62
30
66
1
10
0
20
0
30
0
70
8
0
VERTEX
8
0
62
30
10
0.018290625
20
0.65571832
30
0
70
32
0
VERTEX
8
0
62
30
10
0.060717032
20
0.59571832
30
0
70
32
0
SEQEND
8
0
0
POLYLINE
8
0
62
30
66
1
10
0
20
0
30
0
70
8
0
VERTEX
8
0
62
30
10
0.060717032
20
0.65571832
30
0
70
32
0
VERTEX
8
0
62
30
10
0.018290625
20
0.59571832
30
0
70
32
0
SEQEND
8
0
0
POLYLINE
8
0
62
30
66
1
10
0
20
0
30
0
70
8
0
VERTEX
8
0
62
30
10
0.10314344
20
0.65571832
30
0
70
32
0
VERTEX
8
0
62
30
10
0.14556985
20
0.59571832
30
0
70
32
0
SEQEND
8
0
0
POLYLINE
8
0
62
30
66
1
10
0
20
0
30
0
70
8
0
VERTEX
8
0
62
30
10
0.14556985
20
0.65571832
30
0
70
32
0
VERTEX
8
0
62
30
10
0.10314344
20
0.59571832
30
0
70
32
0
SEQEND
8
0
0
POLYLINE
8
0
62
30
66
1
10
0
20
0
30
0
70
8
0
VERTEX
8
0
62
30
10
0.060717032
20
0.62571832
30
0
70
32
0
VERTEX
8
0
62
30
10
0.10314344
20
0.62571832
30
0
70
32
0
SEQEND
8
0
0
POLYLINE
8
0
62
30
66
1
10
0
20
0
30
0
70
8
0
VERTEX
8
0
62
30
10
0.14556985
20
0.62571832
30
0
70
32
0
VERTEX
8
0
62
30
10
0.18799625
20
0.62571832
30
0
70
32
0
SEQEND
8
0
0
POLYLINE
8
0
62
5
66
1
10
0
20
0
30
0
70
8
0
VERTEX
8
0
62
5
10
0.018290625
20
0.62571832
30
0
70
32
0
VERTEX
8
0
62
5
10
0.039503828
20
0.62571832
30
0
70
32
0
SEQEND
8
0
0
POLYLINE
8
0
62
5
66
1
10
0
20
0
30
0
70
8
0
VERTEX
8
0
62
5
10
0.10314344
20
0.62571832
30
0
70
32
0
VERTEX
8
0
62
5
10
0.12435664
20
0.62571832
30
0
70
32
0
SEQEND
8
0
0
POLYLINE
8
0
62
5
66
1
10
0
20
0
30
0
70
8
0
VERTEX
8
0
62
5
10
0.039503828
20
0.62571832
30
0
70
32
0
VERTEX
8
0
62
5
10
0.060717032
20
0.62571832
30
0
70
32
0
SEQEND
8
0
0
POLYLINE
8
0
62
5
66
1
10
0
20
0
30
0
70
8
0
VERTEX
8
0
62
5
10
0.12435664
20
0.62571832
30
0
70
32
0
VERTEX
8
0
62
5
10
0.14556985
20
0.62571832
30
0
70
32
0
SEQEND
8
0
0
POLYLINE
8
0
62
5
66
1
10
0
20
0
30
0
70
8
0
VERTEX
8
0
62
5
10
0.060717032
20
0.59571832
30
0
70
32
0
VERTEX
8
0
62
5
10
0.060717032
20
0.65571832
30
0
70
32
0
SEQEND
8
0
0
POLYLINE
8
0
62
5
66
1
10
0
20
0
30
0
70
8
0
VERTEX
8
0
62
5
10
0.10314344
20
0.59571832
30
0
70
32
0
VERTEX
8
0
62
5
10
0.10314344
20
0.65571832
30
0
70
32
0
SEQEND
8
0
0
POLYLINE
8
0
62
5
66
1
10
0
20
0
30
0
70
8
0
VERTEX
8
0
62
5
10
0.14556985
20
0.59571832
30
0
70
32
0
VERTEX
8
0
62
5
10
0.14556985
20
0.65571832
30
0
70
32
0
SEQEND
8
0
0
POLYLINE
8
0
62
5
66
1
10
0
20
0
30
0
70
8
0
VERTEX
8
0
62
5
10
0.018290625
20
0.59571832
30
0
70
32
0
VERTEX
8
0
62
5
10
0.018290625
20
0.65571832
30
0
70
32
0
SEQEND
8
0
0
POLYLINE
8
0
62
5
66
1
10
0
20
0
30
0
70
8
0
VERTEX
8
0
62
5
10
0.35770188
20
0.65571832
30
0
70
32
0
VERTEX
8
0
62
5
10
0.35770188
20
0.59571832
30
0
70
32
0
SEQEND
8
0
0
POLYLINE
8
0
62
5
66
1
10
0
20
0
30
0
70
8
0
VERTEX
8
0
62
5
10
0.18799625
20
0.59571832
30
0
70
32
0
VERTEX
8
0
62
5
10
0.35770188
20
0.59571832
30
0
70
32
0
SEQEND
8
0
0
POLYLINE
8
0
62
5
66
1
10
0
20
0
30
0
70
8
0
VERTEX
8
0
62
5
10
0.18799625
20
0.65571832
30
0
70
32
0
VERTEX
8
0
62
5
10
0.35770188
20
0.65571832
30
0
70
32
0
SEQEND
8
0
0
POLYLINE
8
0
62
5
66
1
10
0
20
0
30
0
70
8
0
VERTEX
8
0
62
5
10
0.23042266
20
0.59571832
30
0
70
32
0
VERTEX
8
0
62
5
10
0.23042266
20
0.59571832
30
0
70
32
0
SEQEND
8
0
0
POLYLINE
8
0
62
5
66
1
10
0
20
0
30
0
70
8
0
VERTEX
8
0
62
5
10
0.27284907
20
0.59571832
30
0
70
32
0
VERTEX
8
0
62
5
10
0.27284907
20
0.59571832
30
0
70
32
0
SEQEND
8
0
0
POLYLINE
8
0
62
5
66
1
10
0
20
0
30
0
70
8
0
VERTEX
8
0
62
5
10
0.31527547
20
0.59571832
30
0
70
32
0
VERTEX
8
0
62
5
10
0.31527547
20
0.59571832
30
0
70
32
0
SEQEND
8
0
0
POLYLINE
8
0
62
5
66
1
10
0
20
0
30
0
70
8
0
VERTEX
8
0
62
5
10
0.23042266
20
0.65571832
30
0
70
32
0
VERTEX
8
0
62
5
10
0.23042266
20
0.65571832
30
0
70
32
0
SEQEND
8
0
0
POLYLINE
8
0
62
5
66
1
10
0
20
0
30
0
70
8
0
VERTEX
8
0
62
5
10
0.27284907
20
0.65571832
30
0
70
32
0
VERTEX
8
0
62
5
10
0.27284907
20
0.65571832
30
0
70
32
0
SEQEND
8
0
0
POLYLINE
8
0
62
5
66
1
10
0
20
0
30
0
70
8
0
VERTEX
8
0
62
5
10
0.31527547
20
0.65571832
30
0
70
32
0
VERTEX
8
0
62
5
10
0.31527547
20
0.65571832
30
0
70
32
0
SEQEND
8
0
0
POLYLINE
8
0
62
30
66
1
10
0
20
0
30
0
70
8
0
VERTEX
8
0
62
30
10
0.18799625
20
0.65571832
30
0
70
32
0
VERTEX
8
0
62
30
10
0.23042266
20
0.59571832
30
0
70
32
0
SEQEND
8
0
0
POLYLINE
8
0
62
30
66
1
10
0
20
0
30
0
70
8
0
VERTEX
8
0
62
30
10
0.23042266
20
0.65571832
30
0
70
32
0
VERTEX
8
0
62
30
10
0.18799625
20
0.59571832
30
0
70
32
0
SEQEND
8
0
0
POLYLINE
8
0
62
30
66
1
10
0
20
0
30
0
70
8
0
VERTEX
8
0
62
30
10
0.27284907
20
0.65571832
30
0
70
32
0
VERTEX
8
0
62
30
10
0.31527547
20
0.59571832
30
0
70
32
0
SEQEND
8
0
0
POLYLINE
8
0
62
30
66
1
10
0
20
0
30
0
70
8
0
VERTEX
8
0
62
30
10
0.31527547
20
0.65571832
30
0
70
32
0
VERTEX
8
0
62
30
10
0.27284907
20
0.59571832
30
0
70
32
0
SEQEND
8
0
0
POLYLINE
8
0
62
30
66
1
10
0
20
0
30
0
70
8
0
VERTEX
8
0
62
30
10
0.23042266
20
0.62571832
30
0
70
32
0
VERTEX
8
0
62
30
10
0.27284907
20
0.62571832
30
0
70
32
0
SEQEND
8
0
0
POLYLINE
8
0
62
30
66
1
10
0
20
0
30
0
70
8
0
VERTEX
8
0
62
30
10
0.31527547
20
0.62571832
30
0
70
32
0
VERTEX
8
0
62
30
10
0.35770188
20
0.62571832
30
0
70
32
0
SEQEND
8
0
0
POLYLINE
8
0
62
5
66
1
10
0
20
0
30
0
70
8
0
VERTEX
8
0
62
5
10
0.18799625
20
0.62571832
30
0
70
32
0
VERTEX
8
0
62
5
10
0.20920946
20
0.62571832
30
0
70
32
0
SEQEND
8
0
0
POLYLINE
8
0
62
5
66
1
10
0
20
0
30
0
70
8
0
VERTEX
8
0
62
5
10
0.27284907
20
0.62571832
30
0
70
32
0
VERTEX
8
0
62
5
10
0.29406227
20
0.62571832
30
0
70
32
0
SEQEND
8
0
0
POLYLINE
8
0
62
5
66
1
10
0
20
0
30
0
70
8
0
VERTEX
8
0
62
5
10
0.20920946
20
0.62571832
30
0
70
32
0
VERTEX
8
0
62
5
10
0.23042266
20
0.62571832
30
0
70
32
0
SEQEND
8
0
0
POLYLINE
8
0
62
5
66
1
10
0
20
0
30
0
70
8
0
VERTEX
8
0
62
5
10
0.29406227
20
0.62571832
30
0
70
32
0
VERTEX
8
0
62
5
10
0.31527547
20
0.62571832
30
0
70
32
0
SEQEND
8
0
0
POLYLINE
8
0
62
5
66
1
10
0
20
0
30
0
70
8
0
VERTEX
8
0
62
5
10
0.23042266
20
0.59571832
30
0
70
32
0
VERTEX
8
0
62
5
10
0.23042266
20
0.65571832
30
0
70
32
0
SEQEND
8
0
0
POLYLINE
8
0
62
5
66
1
10
0
20
0
30
0
70
8
0
VERTEX
8
0
62
5
10
0.27284907
20
0.59571832
30
0
70
32
0
VERTEX
8
0
62
5
10
0.27284907
20
0.65571832
30
0
70
32
0
SEQEND
8
0
0
POLYLINE
8
0
62
5
66
1
10
0
20
0
30
0
70
8
0
VERTEX
8
0
62
5
10
0.31527547
20
0.59571832
30
0
70
32
0
VERTEX
8
0
62
5
10
0.31527547
20
0.65571832
30
0
70
32
0
SEQEND
8
0
0
POLYLINE
8
0
62
5
66
1
10
0
20
0
30
0
70
8
0
VERTEX
8
0
62
5
10
0.18799625
20
0.59571832
30
0
70
32
0
VERTEX
8
0
62
5
10
0.18799625
20
0.65571832
30
0
70
32
0
SEQEND
8
0
0
POLYLINE
8
0
62
5
66
1
10
0
20
0
30
0
70
8
0
VERTEX
8
0
62
5
10
-0.151415
20
0.59571832
30
0
70
32
0
VERTEX
8
0
62
5
10
-0.151415
20
0.65571832
30
0
70
32
0
SEQEND
8
0
0
POLYLINE
8
0
62
5
66
1
10
0
20
0
30
0
70
8
0
VERTEX
8
0
62
5
10
-0.151415
20
0.59571832
30
0
70
32
0
VERTEX
8
0
62
5
10
0.018290625
20
0.59571832
30
0
70
32
0
SEQEND
8
0
0
POLYLINE
8
0
62
5
66
1
10
0
20
0
30
0
70
8
0
VERTEX
8
0
62
5
10
-0.151415
20
0.65571832
30
0
70
32
0
VERTEX
8
0
62
5
10
0.018290625
20
0.65571832
30
0
70
32
0
SEQEND
8
0
0
POLYLINE
8
0
62
5
66
1
10
0
20
0
30
0
70
8
0
VERTEX
8
0
62
5
10
-0.1089886
20
0.59571832
30
0
70
32
0
VERTEX
8
0
62
5
10
-0.1089886
20
0.59571832
30
0
70
32
0
SEQEND
8
0
0
POLYLINE
8
0
62
5
66
1
10
0
20
0
30
0
70
8
0
VERTEX
8
0
62
5
10
-0.066562189
20
0.59571832
30
0
70
32
0
VERTEX
8
0
62
5
10
-0.066562189
20
0.59571832
30
0
70
32
0
SEQEND
8
0
0
POLYLINE
8
0
62
5
66
1
10
0
20
0
30
0
70
8
0
VERTEX
8
0
62
5
10
-0.024135782
20
0.59571832
30
0
70
32
0
VERTEX
8
0
62
5
10
-0.024135782
20
0.59571832
30
0
70
32
0
SEQEND
8
0
0
POLYLINE
8
0
62
5
66
1
10
0
20
0
30
0
70
8
0
VERTEX
8
0
62
5
10
-0.1089886
20
0.65571832
30
0
70
32
0
VERTEX
8
0
62
5
10
-0.1089886
20
0.65571832
30
0
70
32
0
SEQEND
8
0
0
POLYLINE
8
0
62
5
66
1
10
0
20
0
30
0
70
8
0
VERTEX
8
0
62
5
10
-0.066562189
20
0.65571832
30
0
70
32
0
VERTEX
8
0
62
5
10
-0.066562189
20
0.65571832
30
0
70
32
0
SEQEND
8
0
0
POLYLINE
8
0
62
5
66
1
10
0
20
0
30
0
70
8
0
VERTEX
8
0
62
5
10
-0.024135782
20
0.65571832
30
0
70
32
0
VERTEX
8
0
62
5
10
-0.024135782
20
0.65571832
30
0
70
32
0
SEQEND
8
0
0
POLYLINE
8
0
62
30
66
1
10
0
20
0
30
0
70
8
0
VERTEX
8
0
62
30
10
-0.151415
20
0.65571832
30
0
70
32
0
VERTEX
8
0
62
30
10
-0.1089886
20
0.59571832
30
0
70
32
0
SEQEND
8
0
0
POLYLINE
8
0
62
30
66
1
10
0
20
0
30
0
70
8
0
VERTEX
8
0
62
30
10
-0.1089886
20
0.65571832
30
0
70
32
0
VERTEX
8
0
62
30
10
-0.151415
20
0.59571832
30
0
70
32
0
SEQEND
8
0
0
POLYLINE
8
0
62
30
66
1
10
0
20
0
30
0
70
8
0
VERTEX
8
0
62
30
10
-0.066562189
20
0.65571832
30
0
70
32
0
VERTEX
8
0
62
30
10
-0.024135782
20
0.59571832
30
0
70
32
0
SEQEND
8
0
0
POLYLINE
8
0
62
30
66
1
10
0
20
0
30
0
70
8
0
VERTEX
8
0
62
30
10
-0.024135782
20
0.65571832
30
0
70
32
0
VERTEX
8
0
62
30
10
-0.066562189
20
0.59571832
30
0
70
32
0
SEQEND
8
0
0
POLYLINE
8
0
62
30
66
1
10
0
20
0
30
0
70
8
0
VERTEX
8
0
62
30
10
-0.1089886
20
0.62571832
30
0
70
32
0
VERTEX
8
0
62
30
10
-0.066562189
20
0.62571832
30
0
70
32
0
SEQEND
8
0
0
POLYLINE
8
0
62
30
66
1
10
0
20
0
30
0
70
8
0
VERTEX
8
0
62
30
10
-0.024135782
20
0.62571832
30
0
70
32
0
VERTEX
8
0
62
30
10
0.018290625
20
0.62571832
30
0
70
32
0
SEQEND
8
0
0
POLYLINE
8
0
62
5
66
1
10
0
20
0
30
0
70
8
0
VERTEX
8
0
62
5
10
-0.151415
20
0.62571832
30
0
70
32
0
VERTEX
8
0
62
5
10
-0.1302018
20
0.62571832
30
0
70
32
0
SEQEND
8
0
0
POLYLINE
8
0
62
5
66
1
10
0
20
0
30
0
70
8
0
VERTEX
8
0
62
5
10
-0.066562189
20
0.62571832
30
0
70
32
0
VERTEX
8
0
62
5
10
-0.045348985
20
0.62571832
30
0
70
32
0
SEQEND
8
0
0
POLYLINE
8
0
62
5
66
1
10
0
20
0
30
0
70
8
0
VERTEX
8
0
62
5
10
-0.1302018
20
0.62571832
30
0
70
32
0
VERTEX
8
0
62
5
10
-0.1089886
20
0.62571832
30
0
70
32
0
SEQEND
8
0
0
POLYLINE
8
0
62
5
66
1
10
0
20
0
30
0
70
8
0
VERTEX
8
0
62
5
10
-0.045348985
20
0.62571832
30
0
70
32
0
VERTEX
8
0
62
5
10
-0.024135782
20
0.62571832
30
0
70
32
0
SEQEND
8
0
0
POLYLINE
8
0
62
5
66
1
10
0
20
0
30
0
70
8
0
VERTEX
8
0
62
5
10
-0.1089886
20
0.59571832
30
0
70
32
0
VERTEX
8
0
62
5
10
-0.1089886
20
0.65571832
30
0
70
32
0
SEQEND
8
0
0
POLYLINE
8
0
62
5
66
1
10
0
20
0
30
0
70
8
0
VERTEX
8
0
62
5
10
-0.066562189
20
0.59571832
30
0
70
32
0
VERTEX
8
0
62
5
10
-0.066562189
20
0.65571832
30
0
70
32
0
SEQEND
8
0
0
POLYLINE
8
0
62
5
66
1
10
0
20
0
30
0
70
8
0
VERTEX
8
0
62
5
10
-0.024135782
20
0.59571832
30
0
70
32
0
VERTEX
8
0
62
5
10
-0.024135782
20
0.65571832
30
0
70
32
0
SEQEND
8
0
0
POLYLINE
8
0
62
5
66
1
10
0
20
0
30
0
70
8
0
VERTEX
8
0
62
5
10
-0.151415
20
0.59571832
30
0
70
32
0
VERTEX
8
0
62
5
10
-0.151415
20
0.65571832
30
0
70
32
0
SEQEND
8
0
0
POLYLINE
8
0
62
5
66
1
10
0
20
0
30
0
70
8
0
VERTEX
8
0
62
5
10
0.018290625
20
0.65571832
30
0
70
32
0
VERTEX
8
0
62
5
10
0.018290625
20
0.77164854
30
0
70
32
0
SEQEND
8
0
0
POLYLINE
8
0
62
5
66
1
10
0
20
0
30
0
70
8
0
VERTEX
8
0
62
5
10
0.18799625
20
0.77164854
30
0
70
32
0
VERTEX
8
0
62
5
10
0.18799625
20
0.65571832
30
0
70
32
0
SEQEND
8
0
0
POLYLINE
8
0
62
5
66
1
10
0
20
0
30
0
70
8
0
VERTEX
8
0
62
5
10
0.018290625
20
0.65605266
30
0
70
32
0
VERTEX
8
0
62
5
10
0.060717032
20
0.66726392
30
0
70
32
0
VERTEX
8
0
62
5
10
0.10314344
20
0.68470088
30
0
70
32
0
VERTEX
8
0
62
5
10
0.14556985
20
0.67348961
30
0
70
32
0
VERTEX
8
0
62
5
10
0.18799625
20
0.65605266
30
0
70
32
0
SEQEND
8
0
0
POLYLINE
8
0
62
5
66
1
10
0
20
0
30
0
70
8
0
VERTEX
8
0
62
5
10
0.018290625
20
0.71401777
30
0
70
32
0
VERTEX
8
0
62
5
10
0.060717032
20
0.72522903
30
0
70
32
0
VERTEX
8
0
62
5
10
0.10314344
20
0.74266599
30
0
70
32
0
VERTEX
8
0
62
5
10
0.14556985
20
0.73145472
30
0
70
32
0
VERTEX
8
0
62
5
10
0.18799625
20
0.71401777
30
0
70
32
0
SEQEND
8
0
0
POLYLINE
8
0
62
5
66
1
10
0
20
0
30
0
70
8
0
VERTEX
8
0
62
5
10
0.018290625
20
0.7133491
30
0
70
32
0
VERTEX
8
0
62
5
10
0.060717032
20
0.70213784
30
0
70
32
0
VERTEX
8
0
62
5
10
0.10314344
20
0.68470088
30
0
70
32
0
VERTEX
8
0
62
5
10
0.14556985
20
0.69591214
30
0
70
32
0
VERTEX
8
0
62
5
10
0.18799625
20
0.7133491
30
0
70
32
0
SEQEND
8
0
0
POLYLINE
8
0
62
5
66
1
10
0
20
0
30
0
70
8
0
VERTEX
8
0
62
5
10
0.018290625
20
0.77131421
30
0
70
32
0
VERTEX
8
0
62
5
10
0.060717032
20
0.76010295
30
0
70
32
0
VERTEX
8
0
62
5
10
0.10314344
20
0.74266599
30
0
70
32
0
VERTEX
8
0
62
5
10
0.14556985
20
0.75387725
30
0
70
32
0
VERTEX
8
0
62
5
10
0.18799625
20
0.77131421
30
0
70
32
0
SEQEND
8
0
0
POLYLINE
8
0
62
30
66
1
10
0
20
0
30
0
70
8
0
VERTEX
8
0
62
30
10
0.018290625
20
0.68470088
30
0
70
32
0
VERTEX
8
0
62
30
10
0.18799625
20
0.68470088
30
0
70
32
0
SEQEND
8
0
0
POLYLINE
8
0
62
30
66
1
10
0
20
0
30
0
70
8
0
VERTEX
8
0
62
30
10
0.018290625
20
0.74266599
30
0
70
32
0
VERTEX
8
0
62
30
10
0.18799625
20
0.74266599
30
0
70
32
0
SEQEND
8
0
0
POLYLINE
8
0
62
30
66
1
10
0
20
0
30
0
70
8
0
VERTEX
8
0
62
30
10
0.060717032
20
0.66726392
30
0
70
32
0
VERTEX
8
0
62
30
10
0.060717032
20
0.68470088
30
0
70
32
0
SEQEND
8
0
0
POLYLINE
8
0
62
30
66
1
10
0
20
0
30
0
70
8
0
VERTEX
8
0
62
30
10
0.10314344
20
0.68470088
30
0
70
32
0
VERTEX
8
0
62
30
10
0.10314344
20
0.68470088
30
0
70
32
0
SEQEND
8
0
0
POLYLINE
8
0
62
30
66
1
10
0
20
0
30
0
70
8
0
VERTEX
8
0
62
30
10
0.14556985
20
0.67348961
30
0
70
32
0
VERTEX
8
0
62
30
10
0.14556985
20
0.68470088
30
0
70
32
0
SEQEND
8
0
0
POLYLINE
8
0
62
30
66
1
10
0
20
0
30
0
70
8
0
VERTEX
8
0
62
30
10
0.060717032
20
0.72522903
30
0
70
32
0
VERTEX
8
0
62
30
10
0.060717032
20
0.74266599
30
0
70
32
0
SEQEND
8
0
0
POLYLINE
8
0
62
30
66
1
10
0
20
0
30
0
70
8
0
VERTEX
8
0
62
30
10
0.060717032
20
0.74266599
30
0
70
32
0
VERTEX
8
0
62
30
10
0.10314344
20
0.74266599
30
0
70
32
0
SEQEND
8
0
0
POLYLINE
8
0
62
30
66
1
10
0
20
0
30
0
70
8
0
VERTEX
8
0
62
30
10
0.10314344
20
0.74266599
30
0
70
32
0
VERTEX
8
0
62
30
10
0.10314344
20
0.74266599
30
0
70
32
0
SEQEND
8
0
0
POLYLINE
8
0
62
30
66
1
10
0
20
0
30
0
70
8
0
VERTEX
8
0
62
30
10
0.10314344
20
0.74266599
30
0
70
32
0
VERTEX
8
0
62
30
10
0.14556985
20
0.73145472
30
0
70
32
0
SEQEND
8
0
0
POLYLINE
8
0
62
30
66
1
10
0
20
0
30
0
70
8
0
VERTEX
8
0
62
30
10
0.14556985
20
0.73145472
30
0
70
32
0
VERTEX
8
0
62
30
10
0.14556985
20
0.74266599
30
0
70
32
0
SEQEND
8
0
0
POLYLINE
8
0
62
5
66
1
10
0
20
0
30
0
70
8
0
VERTEX
8
0
62
5
10
0.060717032
20
0.65571832
30
0
70
32
0
VERTEX
8
0
62
5
10
0.060717032
20
0.66726392
30
0
70
32
0
SEQEND
8
0
0
POLYLINE
8
0
62
5
66
1
10
0
20
0
30
0
70
8
0
VERTEX
8
0
62
5
10
0.10314344
20
0.65571832
30
0
70
32
0
VERTEX
8
0
62
5
10
0.10314344
20
0.68470088
30
0
70
32
0
SEQEND
8
0
0
POLYLINE
8
0
62
5
66
1
10
0
20
0
30
0
70
8
0
VERTEX
8
0
62
5
10
0.14556985
20
0.65571832
30
0
70
32
0
VERTEX
8
0
62
5
10
0.14556985
20
0.67348961
30
0
70
32
0
SEQEND
8
0
0
POLYLINE
8
0
62
5
66
1
10
0
20
0
30
0
70
8
0
VERTEX
8
0
62
5
10
0.060717032
20
0.71368343
30
0
70
32
0
VERTEX
8
0
62
5
10
0.060717032
20
0.72522903
30
0
70
32
0
SEQEND
8
0
0
POLYLINE
8
0
62
5
66
1
10
0
20
0
30
0
70
8
0
VERTEX
8
0
62
5
10
0.10314344
20
0.71368343
30
0
70
32
0
VERTEX
8
0
62
5
10
0.10314344
20
0.74266599
30
0
70
32
0
SEQEND
8
0
0
POLYLINE
8
0
62
5
66
1
10
0
20
0
30
0
70
8
0
VERTEX
8
0
62
5
10
0.14556985
20
0.71368343
30
0
70
32
0
VERTEX
8
0
62
5
10
0.14556985
20
0.73145472
30
0
70
32
0
SEQEND
8
0
0
POLYLINE
8
0
62
5
66
1
10
0
20
0
30
0
70
8
0
VERTEX
8
0
62
5
10
0.060717032
20
0.68470088
30
0
70
32
0
VERTEX
8
0
62
5
10
0.060717032
20
0.71368343
30
0
70
32
0
SEQEND
8
0
0
POLYLINE
8
0
62
5
66
1
10
0
20
0
30
0
70
8
0
VERTEX
8
0
62
5
10
0.10314344
20
0.68470088
30
0
70
32
0
VERTEX
8
0
62
5
10
0.10314344
20
0.71368343
30
0
70
32
0
SEQEND
8
0
0
POLYLINE
8
0
62
5
66
1
10
0
20
0
30
0
70
8
0
VERTEX
8
0
62
5
10
0.14556985
20
0.68470088
30
0
70
32
0
VERTEX
8
0
62
5
10
0.14556985
20
0.71368343
30
0
70
32
0
SEQEND
8
0
0
POLYLINE
8
0
62
5
66
1
10
0
20
0
30
0
70
8
0
VERTEX
8
0
62
5
10
0.060717032
20
0.74266599
30
0
70
32
0
VERTEX
8
0
62
5
10
0.060717032
20
0.77164854
30
0
70
32
0
SEQEND
8
0
0
POLYLINE
8
0
62
5
66
1
10
0
20
0
30
0
70
8
0
VERTEX
8
0
62
5
10
0.10314344
20
0.74266599
30
0
70
32
0
VERTEX
8
0
62
5
10
0.10314344
20
0.77164854
30
0
70
32
0
SEQEND
8
0
0
POLYLINE
8
0
62
5
66
1
10
0
20
0
30
0
70
8
0
VERTEX
8
0
62
5
10
0.14556985
20
0.74266599
30
0
70
32
0
VERTEX
8
0
62
5
10
0.14556985
20
0.77164854
30
0
70
32
0
SEQEND
8
0
0
POLYLINE
8
0
62
5
66
1
10
0
20
0
30
0
70
8
0
VERTEX
8
0
62
5
10
0.35770188
20
0.77164854
30
0
70
32
0
VERTEX
8
0
62
5
10
0.35770188
20
0.65571832
30
0
70
32
0
SEQEND
8
0
0
POLYLINE
8
0
62
5
66
1
10
0
20
0
30
0
70
8
0
VERTEX
8
0
62
5
10
0.18799625
20
0.65605266
30
0
70
32
0
VERTEX
8
0
62
5
10
0.23042266
20
0.66726392
30
0
70
32
0
VERTEX
8
0
62
5
10
0.27284907
20
0.68470088
30
0
70
32
0
VERTEX
8
0
62
5
10
0.31527547
20
0.67348961
30
0
70
32
0
VERTEX
8
0
62
5
10
0.35770188
20
0.65605266
30
0
70
32
0
SEQEND
8
0
0
POLYLINE
8
0
62
5
66
1
10
0
20
0
30
0
70
8
0
VERTEX
8
0
62
5
10
0.18799625
20
0.71401777
30
0
70
32
0
VERTEX
8
0
62
5
10
0.23042266
20
0.72522903
30
0
70
32
0
VERTEX
8
0
62
5
10
0.27284907
20
0.74266599
30
0
70
32
0
VERTEX
8
0
62
5
10
0.31527547
20
0.73145472
30
0
70
32
0
VERTEX
8
0
62
5
10
0.35770188
20
0.71401777
30
0
70
32
0
SEQEND
8
0
0
POLYLINE
8
0
62
5
66
1
10
0
20
0
30
0
70
8
0
VERTEX
8
0
62
5
10
0.18799625
20
0.7133491
30
0
70
32
0
VERTEX
8
0
62
5
10
0.23042266
20
0.70213784
30
0
70
32
0
VERTEX
8
0
62
5
10
0.27284907
20
0.68470088
30
0
70
32
0
VERTEX
8
0
62
5
10
0.31527547
20
0.69591214
30
0
70
32
0
VERTEX
8
0
62
5
10
0.35770188
20
0.7133491
30
0
70
32
0
SEQEND
8
0
0
POLYLINE
8
0
62
5
66
1
10
0
20
0
30
0
70
8
0
VERTEX
8
0
62
5
10
0.18799625
20
0.77131421
30
0
70
32
0
VERTEX
8
0
62
5
10
0.23042266
20
0.76010295
30
0
70
32
0
VERTEX
8
0
62
5
10
0.27284907
20
0.74266599
30
0
70
32
0
VERTEX
8
0
62
5
10
0.31527547
20
0.75387725
30
0
70
32
0
VERTEX
8
0
62
5
10
0.35770188
20
0.77131421
30
0
70
32
0
SEQEND
8
0
0
POLYLINE
8
0
62
30
66
1
10
0
20
0
30
0
70
8
0
VERTEX
8
0
62
30
10
0.18799625
20
0.68470088
30
0
70
32
0
VERTEX
8
0
62
30
10
0.35770188
20
0.68470088
30
0
70
32
0
SEQEND
8
0
0
POLYLINE
8
0
62
30
66
1
10
0
20
0
30
0
70
8
0
VERTEX
8
0
62
30
10
0.18799625
20
0.74266599
30
0
70
32
0
VERTEX
8
0
62
30
10
0.35770188
20
0.74266599
30
0
70
32
0
SEQEND
8
0
0
POLYLINE
8
0
62
30
66
1
10
0
20
0
30
0
70
8
0
VERTEX
8
0
62
30
10
0.23042266
20
0.66726392
30
0
70
32
0
VERTEX
8
0
62
30
10
0.23042266
20
0.68470088
30
0
70
32
0
SEQEND
8
0
0
POLYLINE
8
0
62
30
66
1
10
0
20
0
30
0
70
8
0
VERTEX
8
0
62
30
10
0.27284907
20
0.68470088
30
0
70
32
0
VERTEX
8
0
62
30
10
0.27284907
20
0.68470088
30
0
70
32
0
SEQEND
8
0
0
POLYLINE
8
0
62
30
66
1
10
0
20
0
30
0
70
8
0
VERTEX
8
0
62
30
10
0.31527547
20
0.67348961
30
0
70
32
0
VERTEX
8
0
62
30
10
0.31527547
20
0.68470088
30
0
70
32
0
SEQEND
8
0
0
POLYLINE
8
0
62
30
66
1
10
0
20
0
30
0
70
8
0
VERTEX
8
0
62
30
10
0.23042266
20
0.72522903
30
0
70
32
0
VERTEX
8
0
62
30
10
0.23042266
20
0.74266599
30
0
70
32
0
SEQEND
8
0
0
POLYLINE
8
0
62
30
66
1
10
0
20
0
30
0
70
8
0
VERTEX
8
0
62
30
10
0.23042266
20
0.74266599
30
0
70
32
0
VERTEX
8
0
62
30
10
0.27284907
20
0.74266599
30
0
70
32
0
SEQEND
8
0
0
POLYLINE
8
0
62
30
66
1
10
0
20
0
30
0
70
8
0
VERTEX
8
0
62
30
10
0.27284907
20
0.74266599
30
0
70
32
0
VERTEX
8
0
62
30
10
0.27284907
20
0.74266599
30
0
70
32
0
SEQEND
8
0
0
POLYLINE
8
0
62
30
66
1
10
0
20
0
30
0
70
8
0
VERTEX
8
0
62
30
10
0.27284907
20
0.74266599
30
0
70
32
0
VERTEX
8
0
62
30
10
0.31527547
20
0.73145472
30
0
70
32
0
SEQEND
8
0
0
POLYLINE
8
0
62
30
66
1
10
0
20
0
30
0
70
8
0
VERTEX
8
0
62
30
10
0.31527547
20
0.73145472
30
0
70
32
0
VERTEX
8
0
62
30
10
0.31527547
20
0.74266599
30
0
70
32
0
SEQEND
8
0
0
POLYLINE
8
0
62
5
66
1
10
0
20
0
30
0
70
8
0
VERTEX
8
0
62
5
10
0.23042266
20
0.65571832
30
0
70
32
0
VERTEX
8
0
62
5
10
0.23042266
20
0.66726392
30
0
70
32
0
SEQEND
8
0
0
POLYLINE
8
0
62
5
66
1
10
0
20
0
30
0
70
8
0
VERTEX
8
0
62
5
10
0.27284907
20
0.65571832
30
0
70
32
0
VERTEX
8
0
62
5
10
0.27284907
20
0.68470088
30
0
70
32
0
SEQEND
8
0
0
POLYLINE
8
0
62
5
66
1
10
0
20
0
30
0
70
8
0
VERTEX
8
0
62
5
10
0.31527547
20
0.65571832
30
0
70
32
0
VERTEX
8
0
62
5
10
0.31527547
20
0.67348961
30
0
70
32
0
SEQEND
8
0
0
POLYLINE
8
0
62
5
66
1
10
0
20
0
30
0
70
8
0
VERTEX
8
0
62
5
10
0.23042266
20
0.71368343
30
0
70
32
0
VERTEX
8
0
62
5
10
0.23042266
20
0.72522903
30
0
70
32
0
SEQEND
8
0
0
POLYLINE
8
0
62
5
66
1
10
0
20
0
30
0
70
8
0
VERTEX
8
0
62
5
10
0.27284907
20
0.71368343
30
0
70
32
0
VERTEX
8
0
62
5
10
0.27284907
20
0.74266599
30
0
70
32
0
SEQEND
8
0
0
POLYLINE
8
0
62
5
66
1
10
0
20
0
30
0
70
8
0
VERTEX
8
0
62
5
10
0.31527547
20
0.71368343
30
0
70
32
0
VERTEX
8
0
62
5
10
0.31527547
20
0.73145472
30
0
70
32
0
SEQEND
8
0
0
POLYLINE
8
0
62
5
66
1
10
0
20
0
30
0
70
8
0
VERTEX
8
0
62
5
10
0.23042266
20
0.68470088
30
0
70
32
0
VERTEX
8
0
62
5
10
0.23042266
20
0.71368343
30
0
70
32
0
SEQEND
8
0
0
POLYLINE
8
0
62
5
66
1
10
0
20
0
30
0
70
8
0
VERTEX
8
0
62
5
10
0.27284907
20
0.68470088
30
0
70
32
0
VERTEX
8
0
62
5
10
0.27284907
20
0.71368343
30
0
70
32
0
SEQEND
8
0
0
POLYLINE
8
0
62
5
66
1
10
0
20
0
30
0
70
8
0
VERTEX
8
0
62
5
10
0.31527547
20
0.68470088
30
0
70
32
0
VERTEX
8
0
62
5
10
0.31527547
20
0.71368343
30
0
70
32
0
SEQEND
8
0
0
POLYLINE
8
0
62
5
66
1
10
0
20
0
30
0
70
8
0
VERTEX
8
0
62
5
10
0.23042266
20
0.74266599
30
0
70
32
0
VERTEX
8
0
62
5
10
0.23042266
20
0.77164854
30
0
70
32
0
SEQEND
8
0
0
POLYLINE
8
0
62
5
66
1
10
0
20
0
30
0
70
8
0
VERTEX
8
0
62
5
10
0.27284907
20
0.74266599
30
0
70
32
0
VERTEX
8
0
62
5
10
0.27284907
20
0.77164854
30
0
70
32
0
SEQEND
8
0
0
POLYLINE
8
0
62
5
66
1
10
0
20
0
30
0
70
8
0
VERTEX
8
0
62
5
10
0.31527547
20
0.74266599
30
0
70
32
0
VERTEX
8
0
62
5
10
0.31527547
20
0.77164854
30
0
70
32
0
SEQEND
8
0
0
POLYLINE
8
0
62
5
66
1
10
0
20
0
30
0
70
8
0
VERTEX
8
0
62
5
10
-0.151415
20
0.65571832
30
0
70
32
0
VERTEX
8
0
62
5
10
-0.151415
20
0.77164854
30
0
70
32
0
SEQEND
8
0
0
POLYLINE
8
0
62
5
66
1
10
0
20
0
30
0
70
8
0
VERTEX
8
0
62
5
10
-0.151415
20
0.65605266
30
0
70
32
0
VERTEX
8
0
62
5
10
-0.1089886
20
0.66726392
30
0
70
32
0
VERTEX
8
0
62
5
10
-0.066562189
20
0.68470088
30
0
70
32
0
VERTEX
8
0
62
5
10
-0.024135782
20
0.67348961
30
0
70
32
0
VERTEX
8
0
62
5
10
0.018290625
20
0.65605266
30
0
70
32
0
SEQEND
8
0
0
POLYLINE
8
0
62
5
66
1
10
0
20
0
30
0
70
8
0
VERTEX
8
0
62
5
10
-0.151415
20
0.71401777
30
0
70
32
0
VERTEX
8
0
62
5
10
-0.1089886
20
0.72522903
30
0
70
32
0
VERTEX
8
0
62
5
10
-0.066562189
20
0.74266599
30
0
70
32
0
VERTEX
8
0
62
5
10
-0.024135782
20
0.73145472
30
0
70
32
0
VERTEX
8
0
62
5
10
0.018290625
20
0.71401777
30
0
70
32
0
SEQEND
8
0
0
POLYLINE
8
0
62
5
66
1
10
0
20
0
30
0
70
8
0
VERTEX
8
0
62
5
10
-0.151415
20
0.7133491
30
0
70
32
0
VERTEX
8
0
62
5
10
-0.1089886
20
0.70213784
30
0
70
32
0
VERTEX
8
0
62
5
10
-0.066562189
20
0.68470088
30
0
70
32
0
VERTEX
8
0
62
5
10
-0.024135782
20
0.69591214
30
0
70
32
0
VERTEX
8
0
62
5
10
0.018290625
20
0.7133491
30
0
70
32
0
SEQEND
8
0
0
POLYLINE
8
0
62
5
66
1
10
0
20
0
30
0
70
8
0
VERTEX
8
0
62
5
10
-0.151415
20
0.77131421
30
0
70
32
0
VERTEX
8
0
62
5
10
-0.1089886
20
0.76010295
30
0
70
32
0
VERTEX
8
0
62
5
10
-0.066562189
20
0.74266599
30
0
70
32
0
VERTEX
8
0
62
5
10
-0.024135782
20
0.75387725
30
0
70
32
0
VERTEX
8
0
62
5
10
0.018290625
20
0.77131421
30
0
70
32
0
SEQEND
8
0
0
POLYLINE
8
0
62
30
66
1
10
0
20
0
30
0
70
8
0
VERTEX
8
0
62
30
10
-0.151415
20
0.68470088
30
0
70
32
0
VERTEX
8
0
62
30
10
0.018290625
20
0.68470088
30
0
70
32
0
SEQEND
8
0
0
POLYLINE
8
0
62
30
66
1
10
0
20
0
30
0
70
8
0
VERTEX
8
0
62
30
10
-0.151415
20
0.74266599
30
0
70
32
0
VERTEX
8
0
62
30
10
0.018290625
20
0.74266599
30
0
70
32
0
SEQEND
8
0
0
POLYLINE
8
0
62
30
66
1
10
0
20
0
30
0
70
8
0
VERTEX
8
0
62
30
10
-0.1089886
20
0.66726392
30
0
70
32
0
VERTEX
8
0
62
30
10
-0.1089886
20
0.68470088
30
0
70
32
0
SEQEND
8
0
0
POLYLINE
8
0
62
30
66
1
10
0
20
0
30
0
70
8
0
VERTEX
8
0
62
30
10
-0.066562189
20
0.68470088
30
0
70
32
0
VERTEX
8
0
62
30
10
-0.066562189
20
0.68470088
30
0
70
32
0
SEQEND
8
0
0
POLYLINE
8
0
62
30
66
1
10
0
20
0
30
0
70
8
0
VERTEX
8
0
62
30
10
-0.024135782
20
0.67348961
30
0
70
32
0
VERTEX
8
0
62
30
10
-0.024135782
20
0.68470088
30
0
70
32
0
SEQEND
8
0
0
POLYLINE
8
0
62
30
66
1
10
0
20
0
30
0
70
8
0
VERTEX
8
0
62
30
10
-0.1089886
20
0.72522903
30
0
70
32
0
VERTEX
8
0
62
30
10
-0.1089886
20
0.74266599
30
0
70
32
0
SEQEND
8
0
0
POLYLINE
8
0
62
30
66
1
10
0
20
0
30
0
70
8
0
VERTEX
8
0
62
30
10
-0.1089886
20
0.74266599
30
0
70
32
0
VERTEX
8
0
62
30
10
-0.066562189
20
0.74266599
30
0
70
32
0
SEQEND
8
0
0
POLYLINE
8
0
62
30
66
1
10
0
20
0
30
0
70
8
0
VERTEX
8
0
62
30
10
-0.066562189
20
0.74266599
30
0
70
32
0
VERTEX
8
0
62
30
10
-0.066562189
20
0.74266599
30
0
70
32
0
SEQEND
8
0
0
POLYLINE
8
0
62
30
66
1
10
0
20
0
30
0
70
8
0
VERTEX
8
0
62
30
10
-0.066562189
20
0.74266599
30
0
70
32
0
VERTEX
8
0
62
30
10
-0.024135782
20
0.73145472
30
0
70
32
0
SEQEND
8
0
0
POLYLINE
8
0
62
30
66
1
10
0
20
0
30
0
70
8
0
VERTEX
8
0
62
30
10
-0.024135782
20
0.73145472
30
0
70
32
0
VERTEX
8
0
62
30
10
-0.024135782
20
0.74266599
30
0
70
32
0
SEQEND
8
0
0
POLYLINE
8
0
62
5
66
1
10
0
20
0
30
0
70
8
0
VERTEX
8
0
62
5
10
-0.1089886
20
0.65571832
30
0
70
32
0
VERTEX
8
0
62
5
10
-0.1089886
20
0.66726392
30
0
70
32
0
SEQEND
8
0
0
POLYLINE
8
0
62
5
66
1
10
0
20
0
30
0
70
8
0
VERTEX
8
0
62
5
10
-0.066562189
20
0.65571832
30
0
70
32
0
VERTEX
8
0
62
5
10
-0.066562189
20
0.68470088
30
0
70
32
0
SEQEND
8
0
0
POLYLINE
8
0
62
5
66
1
10
0
20
0
30
0
70
8
0
VERTEX
8
0
62
5
10
-0.024135782
20
0.65571832
30
0
70
32
0
VERTEX
8
0
62
5
10
-0.024135782
20
0.67348961
30
0
70
32
0
SEQEND
8
0
0
POLYLINE
8
0
62
5
66
1
10
0
20
0
30
0
70
8
0
VERTEX
8
0
62
5
10
-0.1089886
20
0.71368343
30
0
70
32
0
VERTEX
8
0
62
5
10
-0.1089886
20
0.72522903
30
0
70
32
0
SEQEND
8
0
0
POLYLINE
8
0
62
5
66
1
10
0
20
0
30
0
70
8
0
VERTEX
8
0
62
5
10
-0.066562189
20
0.71368343
30
0
70
32
0
VERTEX
8
0
62
5
10
-0.066562189
20
0.74266599
30
0
70
32
0
SEQEND
8
0
0
POLYLINE
8
0
62
5
66
1
10
0
20
0
30
0
70
8
0
VERTEX
8
0
62
5
10
-0.024135782
20
0.71368343
30
0
70
32
0
VERTEX
8
0
62
5
10
-0.024135782
20
0.73145472
30
0
70
32
0
SEQEND
8
0
0
POLYLINE
8
0
62
5
66
1
10
0
20
0
30
0
70
8
0
VERTEX
8
0
62
5
10
-0.1089886
20
0.68470088
30
0
70
32
0
VERTEX
8
0
62
5
10
-0.1089886
20
0.71368343
30
0
70
32
0
SEQEND
8
0
0
POLYLINE
8
0
62
5
66
1
10
0
20
0
30
0
70
8
0
VERTEX
8
0
62
5
10
-0.066562189
20
0.68470088
30
0
70
32
0
VERTEX
8
0
62
5
10
-0.066562189
20
0.71368343
30
0
70
32
0
SEQEND
8
0
0
POLYLINE
8
0
62
5
66
1
10
0
20
0
30
0
70
8
0
VERTEX
8
0
62
5
10
-0.024135782
20
0.68470088
30
0
70
32
0
VERTEX
8
0
62
5
10
-0.024135782
20
0.71368343
30
0
70
32
0
SEQEND
8
0
0
POLYLINE
8
0
62
5
66
1
10
0
20
0
30
0
70
8
0
VERTEX
8
0
62
5
10
-0.1089886
20
0.74266599
30
0
70
32
0
VERTEX
8
0
62
5
10
-0.1089886
20
0.77164854
30
0
70
32
0
SEQEND
8
0
0
POLYLINE
8
0
62
5
66
1
10
0
20
0
30
0
70
8
0
VERTEX
8
0
62
5
10
-0.066562189
20
0.74266599
30
0
70
32
0
VERTEX
8
0
62
5
10
-0.066562189
20
0.77164854
30
0
70
32
0
SEQEND
8
0
0
POLYLINE
8
0
62
5
66
1
10
0
20
0
30
0
70
8
0
VERTEX
8
0
62
5
10
-0.024135782
20
0.74266599
30
0
70
32
0
VERTEX
8
0
62
5
10
-0.024135782
20
0.77164854
30
0
70
32
0
SEQEND
8
0
0
POLYLINE
8
0
62
30
66
1
10
0
20
0
30
0
70
8
0
VERTEX
8
0
62
30
10
0.018290625
20
0.81175976
30
0
70
32
0
VERTEX
8
0
62
30
10
0.18799625
20
0.81175976
30
0
70
32
0
SEQEND
8
0
0
POLYLINE
8
0
62
30
66
1
10
0
20
0
30
0
70
8
0
VERTEX
8
0
62
30
10
0.018290625
20
0.77164854
30
0
70
32
0
VERTEX
8
0
62
30
10
0.18799625
20
0.77164854
30
0
70
32
0
SEQEND
8
0
0
POLYLINE
8
0
62
5
66
1
10
0
20
0
30
0
70
8
0
VERTEX
8
0
62
5
10
0.018290625
20
0.77164854
30
0
70
32
0
VERTEX
8
0
62
5
10
0.043720918
20
0.81175976
30
0
70
32
0
VERTEX
8
0
62
5
10
0.060717032
20
0.77164854
30
0
70
32
0
VERTEX
8
0
62
5
10
0.086147325
20
0.81175976
30
0
70
32
0
VERTEX
8
0
62
5
10
0.10314344
20
0.77164854
30
0
70
32
0
VERTEX
8
0
62
5
10
0.12857373
20
0.81175976
30
0
70
32
0
VERTEX
8
0
62
5
10
0.14556985
20
0.77164854
30
0
70
32
0
VERTEX
8
0
62
5
10
0.17100014
20
0.81175976
30
0
70
32
0
VERTEX
8
0
62
5
10
0.18799625
20
0.77164854
30
0
70
32
0
SEQEND
8
0
0
POLYLINE
8
0
62
5
66
1
10
0
20
0
30
0
70
8
0
VERTEX
8
0
62
5
10
0.060717032
20
0.77164854
30
0
70
32
0
VERTEX
8
0
62
5
10
0.060717032
20
0.77164854
30
0
70
32
0
SEQEND
8
0
0
POLYLINE
8
0
62
5
66
1
10
0
20
0
30
0
70
8
0
VERTEX
8
0
62
5
10
0.10314344
20
0.77164854
30
0
70
32
0
VERTEX
8
0
62
5
10
0.10314344
20
0.77164854
30
0
70
32
0
SEQEND
8
0
0
POLYLINE
8
0
62
5
66
1
10
0
20
0
30
0
70
8
0
VERTEX
8
0
62
5
10
0.14556985
20
0.77164854
30
0
70
32
0
VERTEX
8
0
62
5
10
0.14556985
20
0.77164854
30
0
70
32
0
SEQEND
8
0
0
POLYLINE
8
0
62
5
66
1
10
0
20
0
30
0
70
8
0
VERTEX
8
0
62
5
10
0.043720918
20
0.81175976
30
0
70
32
0
VERTEX
8
0
62
5
10
0.043720918
20
0.81175976
30
0
70
32
0
SEQEND
8
0
0
POLYLINE
8
0
62
5
66
1
10
0
20
0
30
0
70
8
0
VERTEX
8
0
62
5
10
0.086147325
20
0.81175976
30
0
70
32
0
VERTEX
8
0
62
5
10
0.086147325
20
0.81175976
30
0
70
32
0
SEQEND
8
0
0
POLYLINE
8
0
62
5
66
1
10
0
20
0
30
0
70
8
0
VERTEX
8
0
62
5
10
0.12857373
20
0.81175976
30
0
70
32
0
VERTEX
8
0
62
5
10
0.12857373
20
0.81175976
30
0
70
32
0
SEQEND
8
0
0
POLYLINE
8
0
62
5
66
1
10
0
20
0
30
0
70
8
0
VERTEX
8
0
62
5
10
0.17100014
20
0.81175976
30
0
70
32
0
VERTEX
8
0
62
5
10
0.17100014
20
0.81175976
30
0
70
32
0
SEQEND
8
0
0
POLYLINE
8
0
62
30
66
1
10
0
20
0
30
0
70
8
0
VERTEX
8
0
62
30
10
0.18799625
20
0.81175976
30
0
70
32
0
VERTEX
8
0
62
30
10
0.35770188
20
0.81175976
30
0
70
32
0
SEQEND
8
0
0
POLYLINE
8
0
62
30
66
1
10
0
20
0
30
0
70
8
0
VERTEX
8
0
62
30
10
0.18799625
20
0.77164854
30
0
70
32
0
VERTEX
8
0
62
30
10
0.35770188
20
0.77164854
30
0
70
32
0
SEQEND
8
0
0
POLYLINE
8
0
62
5
66
1
10
0
20
0
30
0
70
8
0
VERTEX
8
0
62
5
10
0.18799625
20
0.77164854
30
0
70
32
0
VERTEX
8
0
62
5
10
0.21342655
20
0.81175976
30
0
70
32
0
VERTEX
8
0
62
5
10
0.23042266
20
0.77164854
30
0
70
32
0
VERTEX
8
0
62
5
10
0.25585295
20
0.81175976
30
0
70
32
0
VERTEX
8
0
62
5
10
0.27284907
20
0.77164854
30
0
70
32
0
VERTEX
8
0
62
5
10
0.29827936
20
0.81175976
30
0
70
32
0
VERTEX
8
0
62
5
10
0.31527547
20
0.77164854
30
0
70
32
0
VERTEX
8
0
62
5
10
0.34070577
20
0.81175976
30
0
70
32
0
VERTEX
8
0
62
5
10
0.35770188
20
0.77164854
30
0
70
32
0
SEQEND
8
0
0
POLYLINE
8
0
62
5
66
1
10
0
20
0
30
0
70
8
0
VERTEX
8
0
62
5
10
0.23042266
20
0.77164854
30
0
70
32
0
VERTEX
8
0
62
5
10
0.23042266
20
0.77164854
30
0
70
32
0
SEQEND
8
0
0
POLYLINE
8
0
62
5
66
1
10
0
20
0
30
0
70
8
0
VERTEX
8
0
62
5
10
0.27284907
20
0.77164854
30
0
70
32
0
VERTEX
8
0
62
5
10
0.27284907
20
0.77164854
30
0
70
32
0
SEQEND
8
0
0
POLYLINE
8
0
62
5
66
1
10
0
20
0
30
0
70
8
0
VERTEX
8
0
62
5
10
0.31527547
20
0.77164854
30
0
70
32
0
VERTEX
8
0
62
5
10
0.31527547
20
0.77164854
30
0
70
32
0
SEQEND
8
0
0
POLYLINE
8
0
62
5
66
1
10
0
20
0
30
0
70
8
0
VERTEX
8
0
62
5
10
0.21342655
20
0.81175976
30
0
70
32
0
VERTEX
8
0
62
5
10
0.21342655
20
0.81175976
30
0
70
32
0
SEQEND
8
0
0
POLYLINE
8
0
62
5
66
1
10
0
20
0
30
0
70
8
0
VERTEX
8
0
62
5
10
0.25585295
20
0.81175976
30
0
70
32
0
VERTEX
8
0
62
5
10
0.25585295
20
0.81175976
30
0
70
32
0
SEQEND
8
0
0
POLYLINE
8
0
62
5
66
1
10
0
20
0
30
0
70
8
0
VERTEX
8
0
62
5
10
0.29827936
20
0.81175976
30
0
70
32
0
VERTEX
8
0
62
5
10
0.29827936
20
0.81175976
30
0
70
32
0
SEQEND
8
0
0
POLYLINE
8
0
62
5
66
1
10
0
20
0
30
0
70
8
0
VERTEX
8
0
62
5
10
0.34070577
20
0.81175976
30
0
70
32
0
VERTEX
8
0
62
5
10
0.34070577
20
0.81175976
30
0
70
32
0
SEQEND
8
0
0
POLYLINE
8
0
62
30
66
1
10
0
20
0
30
0
70
8
0
VERTEX
8
0
62
30
10
-0.151415
20
0.81175976
30
0
70
32
0
VERTEX
8
0
62
30
10
0.018290625
20
0.81175976
30
0
70
32
0
SEQEND
8
0
0
POLYLINE
8
0
62
30
66
1
10
0
20
0
30
0
70
8
0
VERTEX
8
0
62
30
10
-0.151415
20
0.77164854
30
0
70
32
0
VERTEX
8
0
62
30
10
0.018290625
20
0.77164854
30
0
70
32
0
SEQEND
8
0
0
POLYLINE
8
0
62
5
66
1
10
0
20
0
30
0
70
8
0
VERTEX
8
0
62
5
10
-0.151415
20
0.77164854
30
0
70
32
0
VERTEX
8
0
62
5
10
-0.12598471
20
0.81175976
30
0
70
32
0
VERTEX
8
0
62
5
10
-0.1089886
20
0.77164854
30
0
70
32
0
VERTEX
8
0
62
5
10
-0.083558303
20
0.81175976
30
0
70
32
0
VERTEX
8
0
62
5
10
-0.066562189
20
0.77164854
30
0
70
32
0
VERTEX
8
0
62
5
10
-0.041131896
20
0.81175976
30
0
70
32
0
VERTEX
8
0
62
5
10
-0.024135782
20
0.77164854
30
0
70
32
0
VERTEX
8
0
62
5
10
0.0012945112
20
0.81175976
30
0
70
32
0
VERTEX
8
0
62
5
10
0.018290625
20
0.77164854
30
0
70
32
0
SEQEND
8
0
0
POLYLINE
8
0
62
5
66
1
10
0
20
0
30
0
70
8
0
VERTEX
8
0
62
5
10
-0.1089886
20
0.77164854
30
0
70
32
0
VERTEX
8
0
62
5
10
-0.1089886
20
0.77164854
30
0
70
32
0
SEQEND
8
0
0
POLYLINE
8
0
62
5
66
1
10
0
20
0
30
0
70
8
0
VERTEX
8
0
62
5
10
-0.066562189
20
0.77164854
30
0
70
32
0
VERTEX
8
0
62
5
10
-0.066562189
20
0.77164854
30
0
70
32
0
SEQEND
8
0
0
POLYLINE
8
0
62
5
66
1
10
0
20
0
30
0
70
8
0
VERTEX
8
0
62
5
10
-0.024135782
20
0.77164854
30
0
70
32
0
VERTEX
8
0
62
5
10
-0.024135782
20
0.77164854
30
0
70
32
0
SEQEND
8
0
0
POLYLINE
8
0
62
5
66
1
10
0
20
0
30
0
70
8
0
VERTEX
8
0
62
5
10
-0.12598471
20
0.81175976
30
0
70
32
0
VERTEX
8
0
62
5
10
-0.12598471
20
0.81175976
30
0
70
32
0
SEQEND
8
0
0
POLYLINE
8
0
62
5
66
1
10
0
20
0
30
0
70
8
0
VERTEX
8
0
62
5
10
-0.083558303
20
0.81175976
30
0
70
32
0
VERTEX
8
0
62
5
10
-0.083558303
20
0.81175976
30
0
70
32
0
SEQEND
8
0
0
POLYLINE
8
0
62
5
66
1
10
0
20
0
30
0
70
8
0
VERTEX
8
0
62
5
10
-0.041131896
20
0.81175976
30
0
70
32
0
VERTEX
8
0
62
5
10
-0.041131896
20
0.81175976
30
0
70
32
0
SEQEND
8
0
0
POLYLINE
8
0
62
5
66
1
10
0
20
0
30
0
70
8
0
VERTEX
8
0
62
5
10
0.0012945112
20
0.81175976
30
0
70
32
0
VERTEX
8
0
62
5
10
0.0012945112
20
0.81175976
30
0
70
32
0
SEQEND
8
0
0
POLYLINE
8
0
62
5
66
1
10
0
20
0
30
0
70
8
0
VERTEX
8
0
62
5
10
0.043720918
20
0.81175976
30
0
70
32
0
VERTEX
8
0
62
5
10
0.043720918
20
0.96857036
30
0
70
32
0
SEQEND
8
0
0
POLYLINE
8
0
62
5
66
1
10
0
20
0
30
0
70
8
0
VERTEX
8
0
62
5
10
0.21342655
20
0.81175976
30
0
70
32
0
VERTEX
8
0
62
5
10
0.21342655
20
0.96857036
30
0
70
32
0
SEQEND
8
0
0
POLYLINE
8
0
62
5
66
1
10
0
20
0
30
0
70
8
0
VERTEX
8
0
62
5
10
0.086147325
20
0.81175976
30
0
70
32
0
VERTEX
8
0
62
5
10
0.086147325
20
0.96857036
30
0
70
32
0
SEQEND
8
0
0
POLYLINE
8
0
62
5
66
1
10
0
20
0
30
0
70
8
0
VERTEX
8
0
62
5
10
0.12857373
20
0.81175976
30
0
70
32
0
VERTEX
8
0
62
5
10
0.12857373
20
0.96857036
30
0
70
32
0
SEQEND
8
0
0
POLYLINE
8
0
62
5
66
1
10
0
20
0
30
0
70
8
0
VERTEX
8
0
62
5
10
0.17100014
20
0.81175976
30
0
70
32
0
VERTEX
8
0
62
5
10
0.17100014
20
0.96857036
30
0
70
32
0
SEQEND
8
0
0
POLYLINE
8
0
62
5
66
1
10
0
20
0
30
0
70
8
0
VERTEX
8
0
62
5
10
0.38313217
20
0.81175976
30
0
70
32
0
VERTEX
8
0
62
5
10
0.38313217
20
0.96857036
30
0
70
32
0
SEQEND
8
0
0
POLYLINE
8
0
62
5
66
1
10
0
20
0
30
0
70
8
0
VERTEX
8
0
62
5
10
0.25585295
20
0.81175976
30
0
70
32
0
VERTEX
8
0
62
5
10
0.25585295
20
0.96857036
30
0
70
32
0
SEQEND
8
0
0
POLYLINE
8
0
62
5
66
1
10
0
20
0
30
0
70
8
0
VERTEX
8
0
62
5
10
0.29827936
20
0.81175976
30
0
70
32
0
VERTEX
8
0
62
5
10
0.29827936
20
0.96857036
30
0
70
32
0
SEQEND
8
0
0
POLYLINE
8
0
62
5
66
1
10
0
20
0
30
0
70
8
0
VERTEX
8
0
62
5
10
0.34070577
20
0.81175976
30
0
70
32
0
VERTEX
8
0
62
5
10
0.34070577
20
0.96857036
30
0
70
32
0
SEQEND
8
0
0
POLYLINE
8
0
62
5
66
1
10
0
20
0
30
0
70
8
0
VERTEX
8
0
62
5
10
-0.12598471
20
0.81175976
30
0
70
32
0
VERTEX
8
0
62
5
10
-0.12598471
20
0.96857036
30
0
70
32
0
SEQEND
8
0
0
POLYLINE
8
0
62
5
66
1
10
0
20
0
30
0
70
8
0
VERTEX
8
0
62
5
10
-0.083558303
20
0.81175976
30
0
70
32
0
VERTEX
8
0
62
5
10
-0.083558303
20
0.96857036
30
0
70
32
0
SEQEND
8
0
0
POLYLINE
8
0
62
5
66
1
10
0
20
0
30
0
70
8
0
VERTEX
8
0
62
5
10
-0.041131896
20
0.81175976
30
0
70
32
0
VERTEX
8
0
62
5
10
-0.041131896
20
0.96857036
30
0
70
32
0
SEQEND
8
0
0
POLYLINE
8
0
62
5
66
1
10
0
20
0
30
0
70
8
0
VERTEX
8
0
62
5
10
0.0012945112
20
0.81175976
30
0
70
32
0
VERTEX
8
0
62
5
10
0.0012945112
20
0.96857036
30
0
70
32
0
SEQEND
8
0
0
POLYLINE
8
0
62
5
66
1
10
0
20
0
30
0
70
8
0
VERTEX
8
0
62
5
10
0.043720918
20
0.96857036
30
0
70
32
0
VERTEX
8
0
62
5
10
0.043720918
20
1.0056651
30
0
70
32
0
SEQEND
8
0
0
POLYLINE
8
0
62
5
66
1
10
0
20
0
30
0
70
8
0
VERTEX
8
0
62
5
10
0.21342655
20
1.0056651
30
0
70
32
0
VERTEX
8
0
62
5
10
0.21342655
20
0.96857036
30
0
70
32
0
SEQEND
8
0
0
POLYLINE
8
0
62
5
66
1
10
0
20
0
30
0
70
8
0
VERTEX
8
0
62
5
10
0.043720918
20
0.974864
30
0
70
32
0
VERTEX
8
0
62
5
10
0.086147325
20
0.96914616
30
0
70
32
0
VERTEX
8
0
62
5
10
0.12857373
20
0.98139989
30
0
70
32
0
VERTEX
8
0
62
5
10
0.17100014
20
0.98711773
30
0
70
32
0
VERTEX
8
0
62
5
10
0.21342655
20
0.974864
30
0
70
32
0
SEQEND
8
0
0
POLYLINE
8
0
62
5
66
1
10
0
20
0
30
0
70
8
0
SEQEND
8
0
0
POLYLINE
8
0
62
5
66
1
10
0
20
0
30
0
70
8
0
VERTEX
8
0
62
5
10
0.043720918
20
0.99937147
30
0
70
32
0
VERTEX
8
0
62
5
10
0.086147325
20
1.0050893
30
0
70
32
0
VERTEX
8
0
62
5
10
0.12857373
20
0.99283558
30
0
70
32
0
VERTEX
8
0
62
5
10
0.17100014
20
0.98711773
30
0
70
32
0
VERTEX
8
0
62
5
10
0.21342655
20
0.99937147
30
0
70
32
0
SEQEND
8
0
0
POLYLINE
8
0
62
30
66
1
10
0
20
0
30
0
70
8
0
VERTEX
8
0
62
30
10
0.043720918
20
0.98711773
30
0
70
32
0
VERTEX
8
0
62
30
10
0.21342655
20
0.98711773
30
0
70
32
0
SEQEND
8
0
0
POLYLINE
8
0
62
30
66
1
10
0
20
0
30
0
70
8
0
VERTEX
8
0
62
30
10
0.086147325
20
0.96914616
30
0
70
32
0
VERTEX
8
0
62
30
10
0.086147325
20
0.98711773
30
0
70
32
0
SEQEND
8
0
0
POLYLINE
8
0
62
30
66
1
10
0
20
0
30
0
70
8
0
VERTEX
8
0
62
30
10
0.12857373
20
0.98139989
30
0
70
32
0
VERTEX
8
0
62
30
10
0.12857373
20
0.98711773
30
0
70
32
0
SEQEND
8
0
0
POLYLINE
8
0
62
30
66
1
10
0
20
0
30
0
70
8
0
VERTEX
8
0
62
30
10
0.17100014
20
0.98711773
30
0
70
32
0
VERTEX
8
0
62
30
10
0.17100014
20
0.98711773
30
0
70
32
0
SEQEND
8
0
0
POLYLINE
8
0
62
5
66
1
10
0
20
0
30
0
70
8
0
VERTEX
8
0
62
5
10
0.086147325
20
0.96857036
30
0
70
32
0
VERTEX
8
0
62
5
10
0.086147325
20
0.96914616
30
0
70
32
0
SEQEND
8
0
0
POLYLINE
8
0
62
5
66
1
10
0
20
0
30
0
70
8
0
VERTEX
8
0
62
5
10
0.12857373
20
0.96857036
30
0
70
32
0
VERTEX
8
0
62
5
10
0.12857373
20
0.98139989
30
0
70
32
0
SEQEND
8
0
0
POLYLINE
8
0
62
5
66
1
10
0
20
0
30
0
70
8
0
VERTEX
8
0
62
5
10
0.17100014
20
0.96857036
30
0
70
32
0
VERTEX
8
0
62
5
10
0.17100014
20
0.98711773
30
0
70
32
0
SEQEND
8
0
0
POLYLINE
8
0
62
5
66
1
10
0
20
0
30
0
70
8
0
VERTEX
8
0
62
5
10
0.086147325
20
0.98711773
30
0
70
32
0
VERTEX
8
0
62
5
10
0.086147325
20
1.0056651
30
0
70
32
0
SEQEND
8
0
0
POLYLINE
8
0
62
5
66
1
10
0
20
0
30
0
70
8
0
VERTEX
8
0
62
5
10
0.12857373
20
0.98711773
30
0
70
32
0
VERTEX
8
0
62
5
10
0.12857373
20
1.0056651
30
0
70
32
0
SEQEND
8
0
0
POLYLINE
8
0
62
5
66
1
10
0
20
0
30
0
70
8
0
VERTEX
8
0
62
5
10
0.17100014
20
0.98711773
30
0
70
32
0
VERTEX
8
0
62
5
10
0.17100014
20
1.0056651
30
0
70
32
0
SEQEND
8
0
0
POLYLINE
8
0
62
5
66
1
10
0
20
0
30
0
70
8
0
VERTEX
8
0
62
5
10
0.38313217
20
1.0056651
30
0
70
32
0
VERTEX
8
0
62
5
10
0.38313217
20
0.96857036
30
0
70
32
0
SEQEND
8
0
0
POLYLINE
8
0
62
5
66
1
10
0
20
0
30
0
70
8
0
VERTEX
8
0
62
5
10
0.21342655
20
0.974864
30
0
70
32
0
VERTEX
8
0
62
5
10
0.25585295
20
0.96914616
30
0
70
32
0
VERTEX
8
0
62
5
10
0.29827936
20
0.98139989
30
0
70
32
0
VERTEX
8
0
62
5
10
0.34070577
20
0.98711773
30
0
70
32
0
VERTEX
8
0
62
5
10
0.38313217
20
0.974864
30
0
70
32
0
SEQEND
8
0
0
POLYLINE
8
0
62
5
66
1
10
0
20
0
30
0
70
8
0
SEQEND
8
0
0
POLYLINE
8
0
62
5
66
1
10
0
20
0
30
0
70
8
0
VERTEX
8
0
62
5
10
0.21342655
20
0.99937147
30
0
70
32
0
VERTEX
8
0
62
5
10
0.25585295
20
1.0050893
30
0
70
32
0
VERTEX
8
0
62
5
10
0.29827936
20
0.99283558
30
0
70
32
0
VERTEX
8
0
62
5
10
0.34070577
20
0.98711773
30
0
70
32
0
VERTEX
8
0
62
5
10
0.38313217
20
0.99937147
30
0
70
32
0
SEQEND
8
0
0
POLYLINE
8
0
62
30
66
1
10
0
20
0
30
0
70
8
0
VERTEX
8
0
62
30
10
0.21342655
20
0.98711773
30
0
70
32
0
VERTEX
8
0
62
30
10
0.38313217
20
0.98711773
30
0
70
32
0
SEQEND
8
0
0
POLYLINE
8
0
62
30
66
1
10
0
20
0
30
0
70
8
0
VERTEX
8
0
62
30
10
0.25585295
20
0.96914616
30
0
70
32
0
VERTEX
8
0
62
30
10
0.25585295
20
0.98711773
30
0
70
32
0
SEQEND
8
0
0
POLYLINE
8
0
62
30
66
1
10
0
20
0
30
0
70
8
0
VERTEX
8
0
62
30
10
0.29827936
20
0.98139989
30
0
70
32
0
VERTEX
8
0
62
30
10
0.29827936
20
0.98711773
30
0
70
32
0
SEQEND
8
0
0
POLYLINE
8
0
62
30
66
1
10
0
20
0
30
0
70
8
0
VERTEX
8
0
62
30
10
0.34070577
20
0.98711773
30
0
70
32
0
VERTEX
8
0
62
30
10
0.34070577
20
0.98711773
30
0
70
32
0
SEQEND
8
0
0
POLYLINE
8
0
62
5
66
1
10
0
20
0
30
0
70
8
0
VERTEX
8
0
62
5
10
0.25585295
20
0.96857036
30
0
70
32
0
VERTEX
8
0
62
5
10
0.25585295
20
0.96914616
30
0
70
32
0
SEQEND
8
0
0
POLYLINE
8
0
62
5
66
1
10
0
20
0
30
0
70
8
0
VERTEX
8
0
62
5
10
0.29827936
20
0.96857036
30
0
70
32
0
VERTEX
8
0
62
5
10
0.29827936
20
0.98139989
30
0
70
32
0
SEQEND
8
0
0
POLYLINE
8
0
62
5
66
1
10
0
20
0
30
0
70
8
0
VERTEX
8
0
62
5
10
0.34070577
20
0.96857036
30
0
70
32
0
VERTEX
8
0
62
5
10
0.34070577
20
0.98711773
30
0
70
32
0
SEQEND
8
0
0
POLYLINE
8
0
62
5
66
1
10
0
20
0
30
0
70
8
0
VERTEX
8
0
62
5
10
0.25585295
20
0.98711773
30
0
70
32
0
VERTEX
8
0
62
5
10
0.25585295
20
1.0056651
30
0
70
32
0
SEQEND
8
0
0
POLYLINE
8
0
62
5
66
1
10
0
20
0
30
0
70
8
0
VERTEX
8
0
62
5
10
0.29827936
20
0.98711773
30
0
70
32
0
VERTEX
8
0
62
5
10
0.29827936
20
1.0056651
30
0
70
32
0
SEQEND
8
0
0
POLYLINE
8
0
62
5
66
1
10
0
20
0
30
0
70
8
0
VERTEX
8
0
62
5
10
0.34070577
20
0.98711773
30
0
70
32
0
VERTEX
8
0
62
5
10
0.34070577
20
1.0056651
30
0
70
32
0
SEQEND
8
0
0
POLYLINE
8
0
62
5
66
1
10
0
20
0
30
0
70
8
0
VERTEX
8
0
62
5
10
-0.12598471
20
0.96857036
30
0
70
32
0
VERTEX
8
0
62
5
10
-0.12598471
20
1.0056651
30
0
70
32
0
SEQEND
8
0
0
POLYLINE
8
0
62
5
66
1
10
0
20
0
30
0
70
8
0
VERTEX
8
0
62
5
10
-0.12598471
20
0.974864
30
0
70
32
0
VERTEX
8
0
62
5
10
-0.083558303
20
0.96914616
30
0
70
32
0
VERTEX
8
0
62
5
10
-0.041131896
20
0.98139989
30
0
70
32
0
VERTEX
8
0
62
5
10
0.0012945112
20
0.98711773
30
0
70
32
0
VERTEX
8
0
62
5
10
0.043720918
20
0.974864
30
0
70
32
0
SEQEND
8
0
0
POLYLINE
8
0
62
5
66
1
10
0
20
0
30
0
70
8
0
SEQEND
8
0
0
POLYLINE
8
0
62
5
66
1
10
0
20
0
30
0
70
8
0
VERTEX
8
0
62
5
10
-0.12598471
20
0.99937147
30
0
70
32
0
VERTEX
8
0
62
5
10
-0.083558303
20
1.0050893
30
0
70
32
0
VERTEX
8
0
62
5
10
-0.041131896
20
0.99283558
30
0
70
32
0
VERTEX
8
0
62
5
10
0.0012945112
20
0.98711773
30
0
70
32
0
VERTEX
8
0
62
5
10
0.043720918
20
0.99937147
30
0
70
32
0
SEQEND
8
0
0
POLYLINE
8
0
62
30
66
1
10
0
20
0
30
0
70
8
0
VERTEX
8
0
62
30
10
-0.12598471
20
0.98711773
30
0
70
32
0
VERTEX
8
0
62
30
10
0.043720918
20
0.98711773
30
0
70
32
0
SEQEND
8
0
0
POLYLINE
8
0
62
30
66
1
10
0
20
0
30
0
70
8
0
VERTEX
8
0
62
30
10
-0.083558303
20
0.96914616
30
0
70
32
0
VERTEX
8
0
62
30
10
-0.083558303
20
0.98711773
30
0
70
32
0
SEQEND
8
0
0
POLYLINE
8
0
62
30
66
1
10
0
20
0
30
0
70
8
0
VERTEX
8
0
62
30
10
-0.041131896
20
0.98139989
30
0
70
32
0
VERTEX
8
0
62
30
10
-0.041131896
20
0.98711773
30
0
70
32
0
SEQEND
8
0
0
POLYLINE
8
0
62
30
66
1
10
0
20
0
30
0
70
8
0
VERTEX
8
0
62
30
10
0.0012945112
20
0.98711773
30
0
70
32
0
VERTEX
8
0
62
30
10
0.0012945112
20
0.98711773
30
0
70
32
0
SEQEND
8
0
0
POLYLINE
8
0
62
5
66
1
10
0
20
0
30
0
70
8
0
VERTEX
8
0
62
5
10
-0.083558303
20
0.96857036
30
0
70
32
0
VERTEX
8
0
62
5
10
-0.083558303
20
0.96914616
30
0
70
32
0
SEQEND
8
0
0
POLYLINE
8
0
62
5
66
1
10
0
20
0
30
0
70
8
0
VERTEX
8
0
62
5
10
-0.041131896
20
0.96857036
30
0
70
32
0
VERTEX
8
0
62
5
10
-0.041131896
20
0.98139989
30
0
70
32
0
SEQEND
8
0
0
POLYLINE
8
0
62
5
66
1
10
0
20
0
30
0
70
8
0
VERTEX
8
0
62
5
10
0.0012945112
20
0.96857036
30
0
70
32
0
VERTEX
8
0
62
5
10
0.0012945112
20
0.98711773
30
0
70
32
0
SEQEND
8
0
0
POLYLINE
8
0
62
5
66
1
10
0
20
0
30
0
70
8
0
VERTEX
8
0
62
5
10
-0.083558303
20
0.98711773
30
0
70
32
0
VERTEX
8
0
62
5
10
-0.083558303
20
1.0056651
30
0
70
32
0
SEQEND
8
0
0
POLYLINE
8
0
62
5
66
1
10
0
20
0
30
0
70
8
0
VERTEX
8
0
62
5
10
-0.041131896
20
0.98711773
30
0
70
32
0
VERTEX
8
0
62
5
10
-0.041131896
20
1.0056651
30
0
70
32
0
SEQEND
8
0
0
POLYLINE
8
0
62
5
66
1
10
0
20
0
30
0
70
8
0
VERTEX
8
0
62
5
10
0.0012945112
20
0.98711773
30
0
70
32
0
VERTEX
8
0
62
5
10
0.0012945112
20
1.0056651
30
0
70
32
0
SEQEND
8
0
0
POLYLINE
8
0
62
5
66
1
10
0
20
0
30
0
70
8
0
VERTEX
8
0
62
5
10
0.043720918
20
1.0056651
30
0
70
32
0
VERTEX
8
0
62
5
10
0.043720918
20
1.0656651
30
0
70
32
0
SEQEND
8
0
0
POLYLINE
8
0
62
5
66
1
10
0
20
0
30
0
70
8
0
VERTEX
8
0
62
5
10
0.21342655
20
1.0656651
30
0
70
32
0
VERTEX
8
0
62
5
10
0.21342655
20
1.0056651
30
0
70
32
0
SEQEND
8
0
0
POLYLINE
8
0
62
5
66
1
10
0
20
0
30
0
70
8
0
VERTEX
8
0
62
5
10
0.043720918
20
1.0056651
30
0
70
32
0
VERTEX
8
0
62
5
10
0.21342655
20
1.0056651
30
0
70
32
0
SEQEND
8
0
0
POLYLINE
8
0
62
5
66
1
10
0
20
0
30
0
70
8
0
VERTEX
8
0
62
5
10
0.043720918
20
1.0656651
30
0
70
32
0
VERTEX
8
0
62
5
10
0.21342655
20
1.0656651
30
0
70
32
0
SEQEND
8
0
0
POLYLINE
8
0
62
5
66
1
10
0
20
0
30
0
70
8
0
VERTEX
8
0
62
5
10
0.086147325
20
1.0056651
30
0
70
32
0
VERTEX
8
0
62
5
10
0.086147325
20
1.0056651
30
0
70
32
0
SEQEND
8
0
0
POLYLINE
8
0
62
5
66
1
10
0
20
0
30
0
70
8
0
VERTEX
8
0
62
5
10
0.12857373
20
1.0056651
30
0
70
32
0
VERTEX
8
0
62
5
10
0.12857373
20
1.0056651
30
0
70
32
0
SEQEND
8
0
0
POLYLINE
8
0
62
5
66
1
10
0
20
0
30
0
70
8
0
VERTEX
8
0
62
5
10
0.17100014
20
1.0056651
30
0
70
32
0
VERTEX
8
0
62
5
10
0.17100014
20
1.0056651
30
0
70
32
0
SEQEND
8
0
0
POLYLINE
8
0
62
5
66
1
10
0
20
0
30
0
70
8
0
VERTEX
8
0
62
5
10
0.086147325
20
1.0656651
30
0
70
32
0
VERTEX
8
0
62
5
10
0.086147325
20
1.0656651
30
0
70
32
0
SEQEND
8
0
0
POLYLINE
8
0
62
5
66
1
10
0
20
0
30
0
70
8
0
VERTEX
8
0
62
5
10
0.12857373
20
1.0656651
30
0
70
32
0
VERTEX
8
0
62
5
10
0.12857373
20
1.0656651
30
0
70
32
0
SEQEND
8
0
0
POLYLINE
8
0
62
5
66
1
10
0
20
0
30
0
70
8
0
VERTEX
8
0
62
5
10
0.17100014
20
1.0656651
30
0
70
32
0
VERTEX
8
0
62
5
10
0.17100014
20
1.0656651
30
0
70
32
0
SEQEND
8
0
0
POLYLINE
8
0
62
30
66
1
10
0
20
0
30
0
70
8
0
VERTEX
8
0
62
30
10
0.043720918
20
1.0656651
30
0
70
32
0
VERTEX
8
0
62
30
10
0.086147325
20
1.0056651
30
0
70
32
0
SEQEND
8
0
0
POLYLINE
8
0
62
30
66
1
10
0
20
0
30
0
70
8
0
VERTEX
8
0
62
30
10
0.086147325
20
1.0656651
30
0
70
32
0
VERTEX
8
0
62
30
10
0.043720918
20
1.0056651
30
0
70
32
0
SEQEND
8
0
0
POLYLINE
8
0
62
30
66
1
10
0
20
0
30
0
70
8
0
VERTEX
8
0
62
30
10
0.12857373
20
1.0656651
30
0
70
32
0
VERTEX
8
0
62
30
10
0.17100014
20
1.0056651
30
0
70
32
0
SEQEND
8
0
0
POLYLINE
8
0
62
30
66
1
10
0
20
0
30
0
70
8
0
VERTEX
8
0
62
30
10
0.17100014
20
1.0656651
30
0
70
32
0
VERTEX
8
0
62
30
10
0.12857373
20
1.0056651
30
0
70
32
0
SEQEND
8
0
0
POLYLINE
8
0
62
30
66
1
10
0
20
0
30
0
70
8
0
VERTEX
8
0
62
30
10
0.086147325
20
1.0356651
30
0
70
32
0
VERTEX
8
0
62
30
10
0.12857373
20
1.0356651
30
0
70
32
0
SEQEND
8
0
0
POLYLINE
8
0
62
30
66
1
10
0
20
0
30
0
70
8
0
VERTEX
8
0
62
30
10
0.17100014
20
1.0356651
30
0
70
32
0
VERTEX
8
0
62
30
10
0.21342655
20
1.0356651
30
0
70
32
0
SEQEND
8
0
0
POLYLINE
8
0
62
5
66
1
10
0
20
0
30
0
70
8
0
VERTEX
8
0
62
5
10
0.043720918
20
1.0356651
30
0
70
32
0
VERTEX
8
0
62
5
10
0.064934122
20
1.0356651
30
0
70
32
0
SEQEND
8
0
0
POLYLINE
8
0
62
5
66
1
10
0
20
0
30
0
70
8
0
VERTEX
8
0
62
5
10
0.12857373
20
1.0356651
30
0
70
32
0
VERTEX
8
0
62
5
10
0.14978694
20
1.0356651
30
0
70
32
0
SEQEND
8
0
0
POLYLINE
8
0
62
5
66
1
10
0
20
0
30
0
70
8
0
VERTEX
8
0
62
5
10
0.064934122
20
1.0356651
30
0
70
32
0
VERTEX
8
0
62
5
10
0.086147325
20
1.0356651
30
0
70
32
0
SEQEND
8
0
0
POLYLINE
8
0
62
5
66
1
10
0
20
0
30
0
70
8
0
VERTEX
8
0
62
5
10
0.14978694
20
1.0356651
30
0
70
32
0
VERTEX
8
0
62
5
10
0.17100014
20
1.0356651
30
0
70
32
0
SEQEND
8
0
0
POLYLINE
8
0
62
5
66
1
10
0
20
0
30
0
70
8
0
VERTEX
8
0
62
5
10
0.086147325
20
1.0056651
30
0
70
32
0
VERTEX
8
0
62
5
10
0.086147325
20
1.0656651
30
0
70
32
0
SEQEND
8
0
0
POLYLINE
8
0
62
5
66
1
10
0
20
0
30
0
70
8
0
VERTEX
8
0
62
5
10
0.12857373
20
1.0056651
30
0
70
32
0
VERTEX
8
0
62
5
10
0.12857373
20
1.0656651
30
0
70
32
0
SEQEND
8
0
0
POLYLINE
8
0
62
5
66
1
10
0
20
0
30
0
70
8
0
VERTEX
8
0
62
5
10
0.17100014
20
1.0056651
30
0
70
32
0
VERTEX
8
0
62
5
10
0.17100014
20
1.0656651
30
0
70
32
0
SEQEND
8
0
0
POLYLINE
8
0
62
5
66
1
10
0
20
0
30
0
70
8
0
VERTEX
8
0
62
5
10
0.043720918
20
1.0056651
30
0
70
32
0
VERTEX
8
0
62
5
10
0.043720918
20
1.0656651
30
0
70
32
0
SEQEND
8
0
0
POLYLINE
8
0
62
5
66
1
10
0
20
0
30
0
70
8
0
VERTEX
8
0
62
5
10
0.38313217
20
1.0656651
30
0
70
32
0
VERTEX
8
0
62
5
10
0.38313217
20
1.0056651
30
0
70
32
0
SEQEND
8
0
0
POLYLINE
8
0
62
5
66
1
10
0
20
0
30
0
70
8
0
VERTEX
8
0
62
5
10
0.21342655
20
1.0056651
30
0
70
32
0
VERTEX
8
0
62
5
10
0.38313217
20
1.0056651
30
0
70
32
0
SEQEND
8
0
0
POLYLINE
8
0
62
5
66
1
10
0
20
0
30
0
70
8
0
VERTEX
8
0
62
5
10
0.21342655
20
1.0656651
30
0
70
32
0
VERTEX
8
0
62
5
10
0.38313217
20
1.0656651
30
0
70
32
0
SEQEND
8
0
0
POLYLINE
8
0
62
5
66
1
10
0
20
0
30
0
70
8
0
VERTEX
8
0
62
5
10
0.25585295
20
1.0056651
30
0
70
32
0
VERTEX
8
0
62
5
10
0.25585295
20
1.0056651
30
0
70
32
0
SEQEND
8
0
0
POLYLINE
8
0
62
5
66
1
10
0
20
0
30
0
70
8
0
VERTEX
8
0
62
5
10
0.29827936
20
1.0056651
30
0
70
32
0
VERTEX
8
0
62
5
10
0.29827936
20
1.0056651
30
0
70
32
0
SEQEND
8
0
0
POLYLINE
8
0
62
5
66
1
10
0
20
0
30
0
70
8
0
VERTEX
8
0
62
5
10
0.34070577
20
1.0056651
30
0
70
32
0
VERTEX
8
0
62
5
10
0.34070577
20
1.0056651
30
0
70
32
0
SEQEND
8
0
0
POLYLINE
8
0
62
5
66
1
10
0
20
0
30
0
70
8
0
VERTEX
8
0
62
5
10
0.25585295
20
1.0656651
30
0
70
32
0
VERTEX
8
0
62
5
10
0.25585295
20
1.0656651
30
0
70
32
0
SEQEND
8
0
0
POLYLINE
8
0
62
5
66
1
10
0
20
0
30
0
70
8
0
VERTEX
8
0
62
5
10
0.29827936
20
1.0656651
30
0
70
32
0
VERTEX
8
0
62
5
10
0.29827936
20
1.0656651
30
0
70
32
0
SEQEND
8
0
0
POLYLINE
8
0
62
5
66
1
10
0
20
0
30
0
70
8
0
VERTEX
8
0
62
5
10
0.34070577
20
1.0656651
30
0
70
32
0
VERTEX
8
0
62
5
10
0.34070577
20
1.0656651
30
0
70
32
0
SEQEND
8
0
0
POLYLINE
8
0
62
30
66
1
10
0
20
0
30
0
70
8
0
VERTEX
8
0
62
30
10
0.21342655
20
1.0656651
30
0
70
32
0
VERTEX
8
0
62
30
10
0.25585295
20
1.0056651
30
0
70
32
0
SEQEND
8
0
0
POLYLINE
8
0
62
30
66
1
10
0
20
0
30
0
70
8
0
VERTEX
8
0
62
30
10
0.25585295
20
1.0656651
30
0
70
32
0
VERTEX
8
0
62
30
10
0.21342655
20
1.0056651
30
0
70
32
0
SEQEND
8
0
0
POLYLINE
8
0
62
30
66
1
10
0
20
0
30
0
70
8
0
VERTEX
8
0
62
30
10
0.29827936
20
1.0656651
30
0
70
32
0
VERTEX
8
0
62
30
10
0.34070577
20
1.0056651
30
0
70
32
0
SEQEND
8
0
0
POLYLINE
8
0
62
30
66
1
10
0
20
0
30
0
70
8
0
VERTEX
8
0
62
30
10
0.34070577
20
1.0656651
30
0
70
32
0
VERTEX
8
0
62
30
10
0.29827936
20
1.0056651
30
0
70
32
0
SEQEND
8
0
0
POLYLINE
8
0
62
30
66
1
10
0
20
0
30
0
70
8
0
VERTEX
8
0
62
30
10
0.25585295
20
1.0356651
30
0
70
32
0
VERTEX
8
0
62
30
10
0.29827936
20
1.0356651
30
0
70
32
0
SEQEND
8
0
0
POLYLINE
8
0
62
30
66
1
10
0
20
0
30
0
70
8
0
VERTEX
8
0
62
30
10
0.34070577
20
1.0356651
30
0
70
32
0
VERTEX
8
0
62
30
10
0.38313217
20
1.0356651
30
0
70
32
0
SEQEND
8
0
0
POLYLINE
8
0
62
5
66
1
10
0
20
0
30
0
70
8
0
VERTEX
8
0
62
5
10
0.21342655
20
1.0356651
30
0
70
32
0
VERTEX
8
0
62
5
10
0.23463975
20
1.0356651
30
0
70
32
0
SEQEND
8
0
0
POLYLINE
8
0
62
5
66
1
10
0
20
0
30
0
70
8
0
VERTEX
8
0
62
5
10
0.29827936
20
1.0356651
30
0
70
32
0
VERTEX
8
0
62
5
10
0.31949256
20
1.0356651
30
0
70
32
0
SEQEND
8
0
0
POLYLINE
8
0
62
5
66
1
10
0
20
0
30
0
70
8
0
VERTEX
8
0
62
5
10
0.23463975
20
1.0356651
30
0
70
32
0
VERTEX
8
0
62
5
10
0.25585295
20
1.0356651
30
0
70
32
0
SEQEND
8
0
0
POLYLINE
8
0
62
5
66
1
10
0
20
0
30
0
70
8
0
VERTEX
8
0
62
5
10
0.31949256
20
1.0356651
30
0
70
32
0
VERTEX
8
0
62
5
10
0.34070577
20
1.0356651
30
0
70
32
0
SEQEND
8
0
0
POLYLINE
8
0
62
5
66
1
10
0
20
0
30
0
70
8
0
VERTEX
8
0
62
5
10
0.25585295
20
1.0056651
30
0
70
32
0
VERTEX
8
0
62
5
10
0.25585295
20
1.0656651
30
0
70
32
0
SEQEND
8
0
0
POLYLINE
8
0
62
5
66
1
10
0
20
0
30
0
70
8
0
VERTEX
8
0
62
5
10
0.29827936
20
1.0056651
30
0
70
32
0
VERTEX
8
0
62
5
10
0.29827936
20
1.0656651
30
0
70
32
0
SEQEND
8
0
0
POLYLINE
8
0
62
5
66
1
10
0
20
0
30
0
70
8
0
VERTEX
8
0
62
5
10
0.34070577
20
1.0056651
30
0
70
32
0
VERTEX
8
0
62
5
10
0.34070577
20
1.0656651
30
0
70
32
0
SEQEND
8
0
0
POLYLINE
8
0
62
5
66
1
10
0
20
0
30
0
70
8
0
VERTEX
8
0
62
5
10
0.21342655
20
1.0056651
30
0
70
32
0
VERTEX
8
0
62
5
10
0.21342655
20
1.0656651
30
0
70
32
0
SEQEND
8
0
0
POLYLINE
8
0
62
5
66
1
10
0
20
0
30
0
70
8
0
VERTEX
8
0
62
5
10
-0.12598471
20
1.0056651
30
0
70
32
0
VERTEX
8
0
62
5
10
-0.12598471
20
1.0656651
30
0
70
32
0
SEQEND
8
0
0
POLYLINE
8
0
62
5
66
1
10
0
20
0
30
0
70
8
0
VERTEX
8
0
62
5
10
-0.12598471
20
1.0056651
30
0
70
32
0
VERTEX
8
0
62
5
10
0.043720918
20
1.0056651
30
0
70
32
0
SEQEND
8
0
0
POLYLINE
8
0
62
5
66
1
10
0
20
0
30
0
70
8
0
VERTEX
8
0
62
5
10
-0.12598471
20
1.0656651
30
0
70
32
0
VERTEX
8
0
62
5
10
0.043720918
20
1.0656651
30
0
70
32
0
SEQEND
8
0
0
POLYLINE
8
0
62
5
66
1
10
0
20
0
30
0
70
8
0
VERTEX
8
0
62
5
10
-0.083558303
20
1.0056651
30
0
70
32
0
VERTEX
8
0
62
5
10
-0.083558303
20
1.0056651
30
0
70
32
0
SEQEND
8
0
0
POLYLINE
8
0
62
5
66
1
10
0
20
0
30
0
70
8
0
VERTEX
8
0
62
5
10
-0.041131896
20
1.0056651
30
0
70
32
0
VERTEX
8
0
62
5
10
-0.041131896
20
1.0056651
30
0
70
32
0
SEQEND
8
0
0
POLYLINE
8
0
62
5
66
1
10
0
20
0
30
0
70
8
0
VERTEX
8
0
62
5
10
0.0012945112
20
1.0056651
30
0
70
32
0
VERTEX
8
0
62
5
10
0.0012945112
20
1.0056651
30
0
70
32
0
SEQEND
8
0
0
POLYLINE
8
0
62
5
66
1
10
0
20
0
30
0
70
8
0
VERTEX
8
0
62
5
10
-0.083558303
20
1.0656651
30
0
70
32
0
VERTEX
8
0
62
5
10
-0.083558303
20
1.0656651
30
0
70
32
0
SEQEND
8
0
0
POLYLINE
8
0
62
5
66
1
10
0
20
0
30
0
70
8
0
VERTEX
8
0
62
5
10
-0.041131896
20
1.0656651
30
0
70
32
0
VERTEX
8
0
62
5
10
-0.041131896
20
1.0656651
30
0
70
32
0
SEQEND
8
0
0
POLYLINE
8
0
62
5
66
1
10
0
20
0
30
0
70
8
0
VERTEX
8
0
62
5
10
0.0012945112
20
1.0656651
30
0
70
32
0
VERTEX
8
0
62
5
10
0.0012945112
20
1.0656651
30
0
70
32
0
SEQEND
8
0
0
POLYLINE
8
0
62
30
66
1
10
0
20
0
30
0
70
8
0
VERTEX
8
0
62
30
10
-0.12598471
20
1.0656651
30
0
70
32
0
VERTEX
8
0
62
30
10
-0.083558303
20
1.0056651
30
0
70
32
0
SEQEND
8
0
0
POLYLINE
8
0
62
30
66
1
10
0
20
0
30
0
70
8
0
VERTEX
8
0
62
30
10
-0.083558303
20
1.0656651
30
0
70
32
0
VERTEX
8
0
62
30
10
-0.12598471
20
1.0056651
30
0
70
32
0
SEQEND
8
0
0
POLYLINE
8
0
62
30
66
1
10
0
20
0
30
0
70
8
0
VERTEX
8
0
62
30
10
-0.041131896
20
1.0656651
30
0
70
32
0
VERTEX
8
0
62
30
10
0.0012945112
20
1.0056651
30
0
70
32
0
SEQEND
8
0
0
POLYLINE
8
0
62
30
66
1
10
0
20
0
30
0
70
8
0
VERTEX
8
0
62
30
10
0.0012945112
20
1.0656651
30
0
70
32
0
VERTEX
8
0
62
30
10
-0.041131896
20
1.0056651
30
0
70
32
0
SEQEND
8
0
0
POLYLINE
8
0
62
30
66
1
10
0
20
0
30
0
70
8
0
VERTEX
8
0
62
30
10
-0.083558303
20
1.0356651
30
0
70
32
0
VERTEX
8
0
62
30
10
-0.041131896
20
1.0356651
30
0
70
32
0
SEQEND
8
0
0
POLYLINE
8
0
62
30
66
1
10
0
20
0
30
0
70
8
0
VERTEX
8
0
62
30
10
0.0012945112
20
1.0356651
30
0
70
32
0
VERTEX
8
0
62
30
10
0.043720918
20
1.0356651
30
0
70
32
0
SEQEND
8
0
0
POLYLINE
8
0
62
5
66
1
10
0
20
0
30
0
70
8
0
VERTEX
8
0
62
5
10
-0.12598471
20
1.0356651
30
0
70
32
0
VERTEX
8
0
62
5
10
-0.10477151
20
1.0356651
30
0
70
32
0
SEQEND
8
0
0
POLYLINE
8
0
62
5
66
1
10
0
20
0
30
0
70
8
0
VERTEX
8
0
62
5
10
-0.041131896
20
1.0356651
30
0
70
32
0
VERTEX
8
0
62
5
10
-0.019918692
20
1.0356651
30
0
70
32
0
SEQEND
8
0
0
POLYLINE
8
0
62
5
66
1
10
0
20
0
30
0
70
8
0
VERTEX
8
0
62
5
10
-0.10477151
20
1.0356651
30
0
70
32
0
VERTEX
8
0
62
5
10
-0.083558303
20
1.0356651
30
0
70
32
0
SEQEND
8
0
0
POLYLINE
8
0
62
5
66
1
10
0
20
0
30
0
70
8
0
VERTEX
8
0
62
5
10
-0.019918692
20
1.0356651
30
0
70
32
0
VERTEX
8
0
62
5
10
0.0012945112
20
1.0356651
30
0
70
32
0
SEQEND
8
0
0
POLYLINE
8
0
62
5
66
1
10
0
20
0
30
0
70
8
0
VERTEX
8
0
62
5
10
-0.083558303
20
1.0056651
30
0
70
32
0
VERTEX
8
0
62
5
10
-0.083558303
20
1.0656651
30
0
70
32
0
SEQEND
8
0
0
POLYLINE
8
0
62
5
66
1
10
0
20
0
30
0
70
8
0
VERTEX
8
0
62
5
10
-0.041131896
20
1.0056651
30
0
70
32
0
VERTEX
8
0
62
5
10
-0.041131896
20
1.0656651
30
0
70
32
0
SEQEND
8
0
0
POLYLINE
8
0
62
5
66
1
10
0
20
0
30
0
70
8
0
VERTEX
8
0
62
5
10
0.0012945112
20
1.0056651
30
0
70
32
0
VERTEX
8
0
62
5
10
0.0012945112
20
1.0656651
30
0
70
32
0
SEQEND
8
0
0
POLYLINE
8
0
62
5
66
1
10
0
20
0
30
0
70
8
0
VERTEX
8
0
62
5
10
-0.12598471
20
1.0056651
30
0
70
32
0
VERTEX
8
0
62
5
10
-0.12598471
20
1.0656651
30
0
70
32
0
SEQEND
8
0
0
POLYLINE
8
0
62
5
66
1
10
0
20
0
30
0
70
8
0
VERTEX
8
0
62
5
10
0.043720918
20
1.0656651
30
0
70
32
0
VERTEX
8
0
62
5
10
0.043720918
20
1.1948803
30
0
70
32
0
SEQEND
8
0
0
POLYLINE
8
0
62
5
66
1
10
0
20
0
30
0
70
8
0
VERTEX
8
0
62
5
10
0.21342655
20
1.1948803
30
0
70
32
0
VERTEX
8
0
62
5
10
0.21342655
20
1.0656651
30
0
70
32
0
SEQEND
8
0
0
POLYLINE
8
0
62
5
66
1
10
0
20
0
30
0
70
8
0
VERTEX
8
0
62
5
10
0.043720918
20
1.0765195
30
0
70
32
0
VERTEX
8
0
62
5
10
0.086147325
20
1.0667145
30
0
70
32
0
VERTEX
8
0
62
5
10
0.12857373
20
1.0881639
30
0
70
32
0
VERTEX
8
0
62
5
10
0.17100014
20
1.0979689
30
0
70
32
0
VERTEX
8
0
62
5
10
0.21342655
20
1.0765195
30
0
70
32
0
SEQEND
8
0
0
POLYLINE
8
0
62
5
66
1
10
0
20
0
30
0
70
8
0
VERTEX
8
0
62
5
10
0.043720918
20
1.1411271
30
0
70
32
0
VERTEX
8
0
62
5
10
0.086147325
20
1.1313221
30
0
70
32
0
VERTEX
8
0
62
5
10
0.12857373
20
1.1527715
30
0
70
32
0
VERTEX
8
0
62
5
10
0.17100014
20
1.1625765
30
0
70
32
0
VERTEX
8
0
62
5
10
0.21342655
20
1.1411271
30
0
70
32
0
SEQEND
8
0
0
POLYLINE
8
0
62
5
66
1
10
0
20
0
30
0
70
8
0
VERTEX
8
0
62
5
10
0.043720918
20
1.1194183
30
0
70
32
0
VERTEX
8
0
62
5
10
0.086147325
20
1.1292233
30
0
70
32
0
VERTEX
8
0
62
5
10
0.12857373
20
1.1077739
30
0
70
32
0
VERTEX
8
0
62
5
10
0.17100014
20
1.0979689
30
0
70
32
0
VERTEX
8
0
62
5
10
0.21342655
20
1.1194183
30
0
70
32
0
SEQEND
8
0
0
POLYLINE
8
0
62
5
66
1
10
0
20
0
30
0
70
8
0
VERTEX
8
0
62
5
10
0.043720918
20
1.1840259
30
0
70
32
0
VERTEX
8
0
62
5
10
0.086147325
20
1.1938309
30
0
70
32
0
VERTEX
8
0
62
5
10
0.12857373
20
1.1723815
30
0
70
32
0
VERTEX
8
0
62
5
10
0.17100014
20
1.1625765
30
0
70
32
0
VERTEX
8
0
62
5
10
0.21342655
20
1.1840259
30
0
70
32
0
SEQEND
8
0
0
POLYLINE
8
0
62
30
66
1
10
0
20
0
30
0
70
8
0
VERTEX
8
0
62
30
10
0.043720918
20
1.0979689
30
0
70
32
0
VERTEX
8
0
62
30
10
0.21342655
20
1.0979689
30
0
70
32
0
SEQEND
8
0
0
POLYLINE
8
0
62
30
66
1
10
0
20
0
30
0
70
8
0
VERTEX
8
0
62
30
10
0.043720918
20
1.1625765
30
0
70
32
0
VERTEX
8
0
62
30
10
0.21342655
20
1.1625765
30
0
70
32
0
SEQEND
8
0
0
POLYLINE
8
0
62
30
66
1
10
0
20
0
30
0
70
8
0
VERTEX
8
0
62
30
10
0.086147325
20
1.0667145
30
0
70
32
0
VERTEX
8
0
62
30
10
0.086147325
20
1.0979689
30
0
70
32
0
SEQEND
8
0
0
POLYLINE
8
0
62
30
66
1
10
0
20
0
30
0
70
8
0
VERTEX
8
0
62
30
10
0.12857373
20
1.0881639
30
0
70
32
0
VERTEX
8
0
62
30
10
0.12857373
20
1.0979689
30
0
70
32
0
SEQEND
8
0
0
POLYLINE
8
0
62
30
66
1
10
0
20
0
30
0
70
8
0
VERTEX
8
0
62
30
10
0.17100014
20
1.0979689
30
0
70
32
0
VERTEX
8
0
62
30
10
0.17100014
20
1.0979689
30
0
70
32
0
SEQEND
8
0
0
POLYLINE
8
0
62
30
66
1
10
0
20
0
30
0
70
8
0
VERTEX
8
0
62
30
10
0.086147325
20
1.1313221
30
0
70
32
0
VERTEX
8
0
62
30
10
0.086147325
20
1.1625765
30
0
70
32
0
SEQEND
8
0
0
POLYLINE
8
0
62
30
66
1
10
0
20
0
30
0
70
8
0
VERTEX
8
0
62
30
10
0.086147325
20
1.1625765
30
0
70
32
0
VERTEX
8
0
62
30
10
0.12857373
20
1.1527715
30
0
70
32
0
SEQEND
8
0
0
POLYLINE
8
0
62
30
66
1
10
0
20
0
30
0
70
8
0
VERTEX
8
0
62
30
10
0.12857373
20
1.1527715
30
0
70
32
0
VERTEX
8
0
62
30
10
0.12857373
20
1.1625765
30
0
70
32
0
SEQEND
8
0
0
POLYLINE
8
0
62
30
66
1
10
0
20
0
30
0
70
8
0
VERTEX
8
0
62
30
10
0.12857373
20
1.1625765
30
0
70
32
0
VERTEX
8
0
62
30
10
0.17100014
20
1.1625765
30
0
70
32
0
SEQEND
8
0
0
POLYLINE
8
0
62
30
66
1
10
0
20
0
30
0
70
8
0
VERTEX
8
0
62
30
10
0.17100014
20
1.1625765
30
0
70
32
0
VERTEX
8
0
62
30
10
0.17100014
20
1.1625765
30
0
70
32
0
SEQEND
8
0
0
POLYLINE
8
0
62
5
66
1
10
0
20
0
30
0
70
8
0
VERTEX
8
0
62
5
10
0.086147325
20
1.0656651
30
0
70
32
0
VERTEX
8
0
62
5
10
0.086147325
20
1.0667145
30
0
70
32
0
SEQEND
8
0
0
POLYLINE
8
0
62
5
66
1
10
0
20
0
30
0
70
8
0
VERTEX
8
0
62
5
10
0.12857373
20
1.0656651
30
0
70
32
0
VERTEX
8
0
62
5
10
0.12857373
20
1.0881639
30
0
70
32
0
SEQEND
8
0
0
POLYLINE
8
0
62
5
66
1
10
0
20
0
30
0
70
8
0
VERTEX
8
0
62
5
10
0.17100014
20
1.0656651
30
0
70
32
0
VERTEX
8
0
62
5
10
0.17100014
20
1.0979689
30
0
70
32
0
SEQEND
8
0
0
POLYLINE
8
0
62
5
66
1
10
0
20
0
30
0
70
8
0
VERTEX
8
0
62
5
10
0.086147325
20
1.1302727
30
0
70
32
0
VERTEX
8
0
62
5
10
0.086147325
20
1.1313221
30
0
70
32
0
SEQEND
8
0
0
POLYLINE
8
0
62
5
66
1
10
0
20
0
30
0
70
8
0
VERTEX
8
0
62
5
10
0.12857373
20
1.1302727
30
0
70
32
0
VERTEX
8
0
62
5
10
0.12857373
20
1.1527715
30
0
70
32
0
SEQEND
8
0
0
POLYLINE
8
0
62
5
66
1
10
0
20
0
30
0
70
8
0
VERTEX
8
0
62
5
10
0.17100014
20
1.1302727
30
0
70
32
0
VERTEX
8
0
62
5
10
0.17100014
20
1.1625765
30
0
70
32
0
SEQEND
8
0
0
POLYLINE
8
0
62
5
66
1
10
0
20
0
30
0
70
8
0
VERTEX
8
0
62
5
10
0.086147325
20
1.0979689
30
0
70
32
0
VERTEX
8
0
62
5
10
0.086147325
20
1.1302727
30
0
70
32
0
SEQEND
8
0
0
POLYLINE
8
0
62
5
66
1
10
0
20
0
30
0
70
8
0
VERTEX
8
0
62
5
10
0.12857373
20
1.0979689
30
0
70
32
0
VERTEX
8
0
62
5
10
0.12857373
20
1.1302727
30
0
70
32
0
SEQEND
8
0
0
POLYLINE
8
0
62
5
66
1
10
0
20
0
30
0
70
8
0
VERTEX
8
0
62
5
10
0.17100014
20
1.0979689
30
0
70
32
0
VERTEX
8
0
62
5
10
0.17100014
20
1.1302727
30
0
70
32
0
SEQEND
8
0
0
POLYLINE
8
0
62
5
66
1
10
0
20
0
30
0
70
8
0
VERTEX
8
0
62
5
10
0.086147325
20
1.1625765
30
0
70
32
0
VERTEX
8
0
62
5
10
0.086147325
20
1.1948803
30
0
70
32
0
SEQEND
8
0
0
POLYLINE
8
0
62
5
66
1
10
0
20
0
30
0
70
8
0
VERTEX
8
0
62
5
10
0.12857373
20
1.1625765
30
0
70
32
0
VERTEX
8
0
62
5
10
0.12857373
20
1.1948803
30
0
70
32
0
SEQEND
8
0
0
POLYLINE
8
0
62
5
66
1
10
0
20
0
30
0
70
8
0
VERTEX
8
0
62
5
10
0.17100014
20
1.1625765
30
0
70
32
0
VERTEX
8
0
62
5
10
0.17100014
20
1.1948803
30
0
70
32
0
SEQEND
8
0
0
POLYLINE
8
0
62
5
66
1
10
0
20
0
30
0
70
8
0
VERTEX
8
0
62
5
10
0.38313217
20
1.1948803
30
0
70
32
0
VERTEX
8
0
62
5
10
0.38313217
20
1.0656651
30
0
70
32
0
SEQEND
8
0
0
POLYLINE
8
0
62
5
66
1
10
0
20
0
30
0
70
8
0
VERTEX
8
0
62
5
10
0.21342655
20
1.0765195
30
0
70
32
0
VERTEX
8
0
62
5
10
0.25585295
20
1.0667145
30
0
70
32
0
VERTEX
8
0
62
5
10
0.29827936
20
1.0881639
30
0
70
32
0
VERTEX
8
0
62
5
10
0.34070577
20
1.0979689
30
0
70
32
0
VERTEX
8
0
62
5
10
0.38313217
20
1.0765195
30
0
70
32
0
SEQEND
8
0
0
POLYLINE
8
0
62
5
66
1
10
0
20
0
30
0
70
8
0
VERTEX
8
0
62
5
10
0.21342655
20
1.1411271
30
0
70
32
0
VERTEX
8
0
62
5
10
0.25585295
20
1.1313221
30
0
70
32
0
VERTEX
8
0
62
5
10
0.29827936
20
1.1527715
30
0
70
32
0
VERTEX
8
0
62
5
10
0.34070577
20
1.1625765
30
0
70
32
0
VERTEX
8
0
62
5
10
0.38313217
20
1.1411271
30
0
70
32
0
SEQEND
8
0
0
POLYLINE
8
0
62
5
66
1
10
0
20
0
30
0
70
8
0
VERTEX
8
0
62
5
10
0.21342655
20
1.1194183
30
0
70
32
0
VERTEX
8
0
62
5
10
0.25585295
20
1.1292233
30
0
70
32
0
VERTEX
8
0
62
5
10
0.29827936
20
1.1077739
30
0
70
32
0
VERTEX
8
0
62
5
10
0.34070577
20
1.0979689
30
0
70
32
0
VERTEX
8
0
62
5
10
0.38313217
20
1.1194183
30
0
70
32
0
SEQEND
8
0
0
POLYLINE
8
0
62
5
66
1
10
0
20
0
30
0
70
8
0
VERTEX
8
0
62
5
10
0.21342655
20
1.1840259
30
0
70
32
0
VERTEX
8
0
62
5
10
0.25585295
20
1.1938309
30
0
70
32
0
VERTEX
8
0
62
5
10
0.29827936
20
1.1723815
30
0
70
32
0
VERTEX
8
0
62
5
10
0.34070577
20
1.1625765
30
0
70
32
0
VERTEX
8
0
62
5
10
0.38313217
20
1.1840259
30
0
70
32
0
SEQEND
8
0
0
POLYLINE
8
0
62
30
66
1
10
0
20
0
30
0
70
8
0
VERTEX
8
0
62
30
10
0.21342655
20
1.0979689
30
0
70
32
0
VERTEX
8
0
62
30
10
0.38313217
20
1.0979689
30
0
70
32
0
SEQEND
8
0
0
POLYLINE
8
0
62
30
66
1
10
0
20
0
30
0
70
8
0
VERTEX
8
0
62
30
10
0.21342655
20
1.1625765
30
0
70
32
0
VERTEX
8
0
62
30
10
0.38313217
20
1.1625765
30
0
70
32
0
SEQEND
8
0
0
POLYLINE
8
0
62
30
66
1
10
0
20
0
30
0
70
8
0
VERTEX
8
0
62
30
10
0.25585295
20
1.0667145
30
0
70
32
0
VERTEX
8
0
62
30
10
0.25585295
20
1.0979689
30
0
70
32
0
SEQEND
8
0
0
POLYLINE
8
0
62
30
66
1
10
0
20
0
30
0
70
8
0
VERTEX
8
0
62
30
10
0.29827936
20
1.0881639
30
0
70
32
0
VERTEX
8
0
62
30
10
0.29827936
20
1.0979689
30
0
70
32
0
SEQEND
8
0
0
POLYLINE
8
0
62
30
66
1
10
0
20
0
30
0
70
8
0
VERTEX
8
0
62
30
10
0.34070577
20
1.0979689
30
0
70
32
0
VERTEX
8
0
62
30
10
0.34070577
20
1.0979689
30
0
70
32
0
SEQEND
8
0
0
POLYLINE
8
0
62
30
66
1
10
0
20
0
30
0
70
8
0
VERTEX
8
0
62
30
10
0.25585295
20
1.1313221
30
0
70
32
0
VERTEX
8
0
62
30
10
0.25585295
20
1.1625765
30
0
70
32
0
SEQEND
8
0
0
POLYLINE
8
0
62
30
66
1
10
0
20
0
30
0
70
8
0
VERTEX
8
0
62
30
10
0.25585295
20
1.1625765
30
0
70
32
0
VERTEX
8
0
62
30
10
0.29827936
20
1.1527715
30
0
70
32
0
SEQEND
8
0
0
POLYLINE
8
0
62
30
66
1
10
0
20
0
30
0
70
8
0
VERTEX
8
0
62
30
10
0.29827936
20
1.1527715
30
0
70
32
0
VERTEX
8
0
62
30
10
0.29827936
20
1.1625765
30
0
70
32
0
SEQEND
8
0
0
POLYLINE
8
0
62
30
66
1
10
0
20
0
30
0
70
8
0
VERTEX
8
0
62
30
10
0.29827936
20
1.1625765
30
0
70
32
0
VERTEX
8
0
62
30
10
0.34070577
20
1.1625765
30
0
70
32
0
SEQEND
8
0
0
POLYLINE
8
0
62
30
66
1
10
0
20
0
30
0
70
8
0
VERTEX
8
0
62
30
10
0.34070577
20
1.1625765
30
0
70
32
0
VERTEX
8
0
62
30
10
0.34070577
20
1.1625765
30
0
70
32
0
SEQEND
8
0
0
POLYLINE
8
0
62
5
66
1
10
0
20
0
30
0
70
8
0
VERTEX
8
0
62
5
10
0.25585295
20
1.0656651
30
0
70
32
0
VERTEX
8
0
62
5
10
0.25585295
20
1.0667145
30
0
70
32
0
SEQEND
8
0
0
POLYLINE
8
0
62
5
66
1
10
0
20
0
30
0
70
8
0
VERTEX
8
0
62
5
10
0.29827936
20
1.0656651
30
0
70
32
0
VERTEX
8
0
62
5
10
0.29827936
20
1.0881639
30
0
70
32
0
SEQEND
8
0
0
POLYLINE
8
0
62
5
66
1
10
0
20
0
30
0
70
8
0
VERTEX
8
0
62
5
10
0.34070577
20
1.0656651
30
0
70
32
0
VERTEX
8
0
62
5
10
0.34070577
20
1.0979689
30
0
70
32
0
SEQEND
8
0
0
POLYLINE
8
0
62
5
66
1
10
0
20
0
30
0
70
8
0
VERTEX
8
0
62
5
10
0.25585295
20
1.1302727
30
0
70
32
0
VERTEX
8
0
62
5
10
0.25585295
20
1.1313221
30
0
70
32
0
SEQEND
8
0
0
POLYLINE
8
0
62
5
66
1
10
0
20
0
30
0
70
8
0
VERTEX
8
0
62
5
10
0.29827936
20
1.1302727
30
0
70
32
0
VERTEX
8
0
62
5
10
0.29827936
20
1.1527715
30
0
70
32
0
SEQEND
8
0
0
POLYLINE
8
0
62
5
66
1
10
0
20
0
30
0
70
8
0
VERTEX
8
0
62
5
10
0.34070577
20
1.1302727
30
0
70
32
0
VERTEX
8
0
62
5
10
0.34070577
20
1.1625765
30
0
70
32
0
SEQEND
8
0
0
POLYLINE
8
0
62
5
66
1
10
0
20
0
30
0
70
8
0
VERTEX
8
0
62
5
10
0.25585295
20
1.0979689
30
0
70
32
0
VERTEX
8
0
62
5
10
0.25585295
20
1.1302727
30
0
70
32
0
SEQEND
8
0
0
POLYLINE
8
0
62
5
66
1
10
0
20
0
30
0
70
8
0
VERTEX
8
0
62
5
10
0.29827936
20
1.0979689
30
0
70
32
0
VERTEX
8
0
62
5
10
0.29827936
20
1.1302727
30
0
70
32
0
SEQEND
8
0
0
POLYLINE
8
0
62
5
66
1
10
0
20
0
30
0
70
8
0
VERTEX
8
0
62
5
10
0.34070577
20
1.0979689
30
0
70
32
0
VERTEX
8
0
62
5
10
0.34070577
20
1.1302727
30
0
70
32
0
SEQEND
8
0
0
POLYLINE
8
0
62
5
66
1
10
0
20
0
30
0
70
8
0
VERTEX
8
0
62
5
10
0.25585295
20
1.1625765
30
0
70
32
0
VERTEX
8
0
62
5
10
0.25585295
20
1.1948803
30
0
70
32
0
SEQEND
8
0
0
POLYLINE
8
0
62
5
66
1
10
0
20
0
30
0
70
8
0
VERTEX
8
0
62
5
10
0.29827936
20
1.1625765
30
0
70
32
0
VERTEX
8
0
62
5
10
0.29827936
20
1.1948803
30
0
70
32
0
SEQEND
8
0
0
POLYLINE
8
0
62
5
66
1
10
0
20
0
30
0
70
8
0
VERTEX
8
0
62
5
10
0.34070577
20
1.1625765
30
0
70
32
0
VERTEX
8
0
62
5
10
0.34070577
20
1.1948803
30
0
70
32
0
SEQEND
8
0
0
POLYLINE
8
0
62
5
66
1
10
0
20
0
30
0
70
8
0
VERTEX
8
0
62
5
10
-0.12598471
20
1.0656651
30
0
70
32
0
VERTEX
8
0
62
5
10
-0.12598471
20
1.1948803
30
0
70
32
0
SEQEND
8
0
0
POLYLINE
8
0
62
5
66
1
10
0
20
0
30
0
70
8
0
VERTEX
8
0
62
5
10
-0.12598471
20
1.0765195
30
0
70
32
0
VERTEX
8
0
62
5
10
-0.083558303
20
1.0667145
30
0
70
32
0
VERTEX
8
0
62
5
10
-0.041131896
20
1.0881639
30
0
70
32
0
VERTEX
8
0
62
5
10
0.0012945112
20
1.0979689
30
0
70
32
0
VERTEX
8
0
62
5
10
0.043720918
20
1.0765195
30
0
70
32
0
SEQEND
8
0
0
POLYLINE
8
0
62
5
66
1
10
0
20
0
30
0
70
8
0
VERTEX
8
0
62
5
10
-0.12598471
20
1.1411271
30
0
70
32
0
VERTEX
8
0
62
5
10
-0.083558303
20
1.1313221
30
0
70
32
0
VERTEX
8
0
62
5
10
-0.041131896
20
1.1527715
30
0
70
32
0
VERTEX
8
0
62
5
10
0.0012945112
20
1.1625765
30
0
70
32
0
VERTEX
8
0
62
5
10
0.043720918
20
1.1411271
30
0
70
32
0
SEQEND
8
0
0
POLYLINE
8
0
62
5
66
1
10
0
20
0
30
0
70
8
0
VERTEX
8
0
62
5
10
-0.12598471
20
1.1194183
30
0
70
32
0
VERTEX
8
0
62
5
10
-0.083558303
20
1.1292233
30
0
70
32
0
VERTEX
8
0
62
5
10
-0.041131896
20
1.1077739
30
0
70
32
0
VERTEX
8
0
62
5
10
0.0012945112
20
1.0979689
30
0
70
32
0
VERTEX
8
0
62
5
10
0.043720918
20
1.1194183
30
0
70
32
0
SEQEND
8
0
0
POLYLINE
8
0
62
5
66
1
10
0
20
0
30
0
70
8
0
VERTEX
8
0
62
5
10
-0.12598471
20
1.1840259
30
0
70
32
0
VERTEX
8
0
62
5
10
-0.083558303
20
1.1938309
30
0
70
32
0
VERTEX
8
0
62
5
10
-0.041131896
20
1.1723815
30
0
70
32
0
VERTEX
8
0
62
5
10
0.0012945112
20
1.1625765
30
0
70
32
0
VERTEX
8
0
62
5
10
0.043720918
20
1.1840259
30
0
70
32
0
SEQEND
8
0
0
POLYLINE
8
0
62
30
66
1
10
0
20
0
30
0
70
8
0
VERTEX
8
0
62
30
10
-0.12598471
20
1.0979689
30
0
70
32
0
VERTEX
8
0
62
30
10
0.043720918
20
1.0979689
30
0
70
32
0
SEQEND
8
0
0
POLYLINE
8
0
62
30
66
1
10
0
20
0
30
0
70
8
0
VERTEX
8
0
62
30
10
-0.12598471
20
1.1625765
30
0
70
32
0
VERTEX
8
0
62
30
10
0.043720918
20
1.1625765
30
0
70
32
0
SEQEND
8
0
0
POLYLINE
8
0
62
30
66
1
10
0
20
0
30
0
70
8
0
VERTEX
8
0
62
30
10
-0.083558303
20
1.0667145
30
0
70
32
0
VERTEX
8
0
62
30
10
-0.083558303
20
1.0979689
30
0
70
32
0
SEQEND
8
0
0
POLYLINE
8
0
62
30
66
1
10
0
20
0
30
0
70
8
0
VERTEX
8
0
62
30
10
-0.041131896
20
1.0881639
30
0
70
32
0
VERTEX
8
0
62
30
10
-0.041131896
20
1.0979689
30
0
70
32
0
SEQEND
8
0
0
POLYLINE
8
0
62
30
66
1
10
0
20
0
30
0
70
8
0
VERTEX
8
0
62
30
10
0.0012945112
20
1.0979689
30
0
70
32
0
VERTEX
8
0
62
30
10
0.0012945112
20
1.0979689
30
0
70
32
0
SEQEND
8
0
0
POLYLINE
8
0
62
30
66
1
10
0
20
0
30
0
70
8
0
VERTEX
8
0
62
30
10
-0.083558303
20
1.1313221
30
0
70
32
0
VERTEX
8
0
62
30
10
-0.083558303
20
1.1625765
30
0
70
32
0
SEQEND
8
0
0
POLYLINE
8
0
62
30
66
1
10
0
20
0
30
0
70
8
0
VERTEX
8
0
62
30
10
-0.083558303
20
1.1625765
30
0
70
32
0
VERTEX
8
0
62
30
10
-0.041131896
20
1.1527715
30
0
70
32
0
SEQEND
8
0
0
POLYLINE
8
0
62
30
66
1
10
0
20
0
30
0
70
8
0
VERTEX
8
0
62
30
10
-0.041131896
20
1.1527715
30
0
70
32
0
VERTEX
8
0
62
30
10
-0.041131896
20
1.1625765
30
0
70
32
0
SEQEND
8
0
0
POLYLINE
8
0
62
30
66
1
10
0
20
0
30
0
70
8
0
VERTEX
8
0
62
30
10
-0.041131896
20
1.1625765
30
0
70
32
0
VERTEX
8
0
62
30
10
0.0012945112
20
1.1625765
30
0
70
32
0
SEQEND
8
0
0
POLYLINE
8
0
62
30
66
1
10
0
20
0
30
0
70
8
0
VERTEX
8
0
62
30
10
0.0012945112
20
1.1625765
30
0
70
32
0
VERTEX
8
0
62
30
10
0.0012945112
20
1.1625765
30
0
70
32
0
SEQEND
8
0
0
POLYLINE
8
0
62
5
66
1
10
0
20
0
30
0
70
8
0
VERTEX
8
0
62
5
10
-0.083558303
20
1.0656651
30
0
70
32
0
VERTEX
8
0
62
5
10
-0.083558303
20
1.0667145
30
0
70
32
0
SEQEND
8
0
0
POLYLINE
8
0
62
5
66
1
10
0
20
0
30
0
70
8
0
VERTEX
8
0
62
5
10
-0.041131896
20
1.0656651
30
0
70
32
0
VERTEX
8
0
62
5
10
-0.041131896
20
1.0881639
30
0
70
32
0
SEQEND
8
0
0
POLYLINE
8
0
62
5
66
1
10
0
20
0
30
0
70
8
0
VERTEX
8
0
62
5
10
0.0012945112
20
1.0656651
30
0
70
32
0
VERTEX
8
0
62
5
10
0.0012945112
20
1.0979689
30
0
70
32
0
SEQEND
8
0
0
POLYLINE
8
0
62
5
66
1
10
0
20
0
30
0
70
8
0
VERTEX
8
0
62
5
10
-0.083558303
20
1.1302727
30
0
70
32
0
VERTEX
8
0
62
5
10
-0.083558303
20
1.1313221
30
0
70
32
0
SEQEND
8
0
0
POLYLINE
8
0
62
5
66
1
10
0
20
0
30
0
70
8
0
VERTEX
8
0
62
5
10
-0.041131896
20
1.1302727
30
0
70
32
0
VERTEX
8
0
62
5
10
-0.041131896
20
1.1527715
30
0
70
32
0
SEQEND
8
0
0
POLYLINE
8
0
62
5
66
1
10
0
20
0
30
0
70
8
0
VERTEX
8
0
62
5
10
0.0012945112
20
1.1302727
30
0
70
32
0
VERTEX
8
0
62
5
10
0.0012945112
20
1.1625765
30
0
70
32
0
SEQEND
8
0
0
POLYLINE
8
0
62
5
66
1
10
0
20
0
30
0
70
8
0
VERTEX
8
0
62
5
10
-0.083558303
20
1.0979689
30
0
70
32
0
VERTEX
8
0
62
5
10
-0.083558303
20
1.1302727
30
0
70
32
0
SEQEND
8
0
0
POLYLINE
8
0
62
5
66
1
10
0
20
0
30
0
70
8
0
VERTEX
8
0
62
5
10
-0.041131896
20
1.0979689
30
0
70
32
0
VERTEX
8
0
62
5
10
-0.041131896
20
1.1302727
30
0
70
32
0
SEQEND
8
0
0
POLYLINE
8
0
62
5
66
1
10
0
20
0
30
0
70
8
0
VERTEX
8
0
62
5
10
0.0012945112
20
1.0979689
30
0
70
32
0
VERTEX
8
0
62
5
10
0.0012945112
20
1.1302727
30
0
70
32
0
SEQEND
8
0
0
POLYLINE
8
0
62
5
66
1
10
0
20
0
30
0
70
8
0
VERTEX
8
0
62
5
10
-0.083558303
20
1.1625765
30
0
70
32
0
VERTEX
8
0
62
5
10
-0.083558303
20
1.1948803
30
0
70
32
0
SEQEND
8
0
0
POLYLINE
8
0
62
5
66
1
10
0
20
0
30
0
70
8
0
VERTEX
8
0
62
5
10
-0.041131896
20
1.1625765
30
0
70
32
0
VERTEX
8
0
62
5
10
-0.041131896
20
1.1948803
30
0
70
32
0
SEQEND
8
0
0
POLYLINE
8
0
62
5
66
1
10
0
20
0
30
0
70
8
0
VERTEX
8
0
62
5
10
0.0012945112
20
1.1625765
30
0
70
32
0
VERTEX
8
0
62
5
10
0.0012945112
20
1.1948803
30
0
70
32
0
SEQEND
8
0
0
POLYLINE
8
0
62
30
66
1
10
0
20
0
30
0
70
8
0
VERTEX
8
0
62
30
10
0.043720918
20
1.2127498
30
0
70
32
0
VERTEX
8
0
62
30
10
0.21342655
20
1.2127498
30
0
70
32
0
SEQEND
8
0
0
POLYLINE
8
0
62
30
66
1
10
0
20
0
30
0
70
8
0
VERTEX
8
0
62
30
10
0.043720918
20
1.1948803
30
0
70
32
0
VERTEX
8
0
62
30
10
0.21342655
20
1.1948803
30
0
70
32
0
SEQEND
8
0
0
POLYLINE
8
0
62
5
66
1
10
0
20
0
30
0
70
8
0
VERTEX
8
0
62
5
10
0.043720918
20
1.1948803
30
0
70
32
0
VERTEX
8
0
62
5
10
0.046675846
20
1.2127498
30
0
70
32
0
VERTEX
8
0
62
5
10
0.086147325
20
1.1948803
30
0
70
32
0
VERTEX
8
0
62
5
10
0.089102252
20
1.2127498
30
0
70
32
0
VERTEX
8
0
62
5
10
0.12857373
20
1.1948803
30
0
70
32
0
VERTEX
8
0
62
5
10
0.13152866
20
1.2127498
30
0
70
32
0
VERTEX
8
0
62
5
10
0.17100014
20
1.1948803
30
0
70
32
0
VERTEX
8
0
62
5
10
0.17395507
20
1.2127498
30
0
70
32
0
VERTEX
8
0
62
5
10
0.21342655
20
1.1948803
30
0
70
32
0
SEQEND
8
0
0
POLYLINE
8
0
62
5
66
1
10
0
20
0
30
0
70
8
0
VERTEX
8
0
62
5
10
0.086147325
20
1.1948803
30
0
70
32
0
VERTEX
8
0
62
5
10
0.086147325
20
1.1948803
30
0
70
32
0
SEQEND
8
0
0
POLYLINE
8
0
62
5
66
1
10
0
20
0
30
0
70
8
0
VERTEX
8
0
62
5
10
0.12857373
20
1.1948803
30
0
70
32
0
VERTEX
8
0
62
5
10
0.12857373
20
1.1948803
30
0
70
32
0
SEQEND
8
0
0
POLYLINE
8
0
62
5
66
1
10
0
20
0
30
0
70
8
0
VERTEX
8
0
62
5
10
0.17100014
20
1.1948803
30
0
70
32
0
VERTEX
8
0
62
5
10
0.17100014
20
1.1948803
30
0
70
32
0
SEQEND
8
0
0
POLYLINE
8
0
62
5
66
1
10
0
20
0
30
0
70
8
0
VERTEX
8
0
62
5
10
0.046675846
20
1.2127498
30
0
70
32
0
VERTEX
8
0
62
5
10
0.046675846
20
1.2127498
30
0
70
32
0
SEQEND
8
0
0
POLYLINE
8
0
62
5
66
1
10
0
20
0
30
0
70
8
0
VERTEX
8
0
62
5
10
0.089102252
20
1.2127498
30
0
70
32
0
VERTEX
8
0
62
5
10
0.089102252
20
1.2127498
30
0
70
32
0
SEQEND
8
0
0
POLYLINE
8
0
62
5
66
1
10
0
20
0
30
0
70
8
0
VERTEX
8
0
62
5
10
0.13152866
20
1.2127498
30
0
70
32
0
VERTEX
8
0
62
5
10
0.13152866
20
1.2127498
30
0
70
32
0
SEQEND
8
0
0
POLYLINE
8
0
62
5
66
1
10
0
20
0
30
0
70
8
0
VERTEX
8
0
62
5
10
0.17395507
20
1.2127498
30
0
70
32
0
VERTEX
8
0
62
5
10
0.17395507
20
1.2127498
30
0
70
32
0
SEQEND
8
0
0
POLYLINE
8
0
62
30
66
1
10
0
20
0
30
0
70
8
0
VERTEX
8
0
62
30
10
0.21342655
20
1.2127498
30
0
70
32
0
VERTEX
8
0
62
30
10
0.38313217
20
1.2127498
30
0
70
32
0
SEQEND
8
0
0
POLYLINE
8
0
62
30
66
1
10
0
20
0
30
0
70
8
0
VERTEX
8
0
62
30
10
0.21342655
20
1.1948803
30
0
70
32
0
VERTEX
8
0
62
30
10
0.38313217
20
1.1948803
30
0
70
32
0
SEQEND
8
0
0
POLYLINE
8
0
62
5
66
1
10
0
20
0
30
0
70
8
0
VERTEX
8
0
62
5
10
0.21342655
20
1.1948803
30
0
70
32
0
VERTEX
8
0
62
5
10
0.21638147
20
1.2127498
30
0
70
32
0
VERTEX
8
0
62
5
10
0.25585295
20
1.1948803
30
0
70
32
0
VERTEX
8
0
62
5
10
0.25880788
20
1.2127498
30
0
70
32
0
VERTEX
8
0
62
5
10
0.29827936
20
1.1948803
30
0
70
32
0
VERTEX
8
0
62
5
10
0.30123429
20
1.2127498
30
0
70
32
0
VERTEX
8
0
62
5
10
0.34070577
20
1.1948803
30
0
70
32
0
VERTEX
8
0
62
5
10
0.34366069
20
1.2127498
30
0
70
32
0
VERTEX
8
0
62
5
10
0.38313217
20
1.1948803
30
0
70
32
0
SEQEND
8
0
0
POLYLINE
8
0
62
5
66
1
10
0
20
0
30
0
70
8
0
VERTEX
8
0
62
5
10
0.25585295
20
1.1948803
30
0
70
32
0
VERTEX
8
0
62
5
10
0.25585295
20
1.1948803
30
0
70
32
0
SEQEND
8
0
0
POLYLINE
8
0
62
5
66
1
10
0
20
0
30
0
70
8
0
VERTEX
8
0
62
5
10
0.29827936
20
1.1948803
30
0
70
32
0
VERTEX
8
0
62
5
10
0.29827936
20
1.1948803
30
0
70
32
0
SEQEND
8
0
0
POLYLINE
8
0
62
5
66
1
10
0
20
0
30
0
70
8
0
VERTEX
8
0
62
5
10
0.34070577
20
1.1948803
30
0
70
32
0
VERTEX
8
0
62
5
10
0.34070577
20
1.1948803
30
0
70
32
0
SEQEND
8
0
0
POLYLINE
8
0
62
5
66
1
10
0
20
0
30
0
70
8
0
VERTEX
8
0
62
5
10
0.21638147
20
1.2127498
30
0
70
32
0
VERTEX
8
0
62
5
10
0.21638147
20
1.2127498
30
0
70
32
0
SEQEND
8
0
0
POLYLINE
8
0
62
5
66
1
10
0
20
0
30
0
70
8
0
VERTEX
8
0
62
5
10
0.25880788
20
1.2127498
30
0
70
32
0
VERTEX
8
0
62
5
10
0.25880788
20
1.2127498
30
0
70
32
0
SEQEND
8
0
0
POLYLINE
8
0
62
5
66
1
10
0
20
0
30
0
70
8
0
VERTEX
8
0
62
5
10
0.30123429
20
1.2127498
30
0
70
32
0
VERTEX
8
0
62
5
10
0.30123429
20
1.2127498
30
0
70
32
0
SEQEND
8
0
0
POLYLINE
8
0
62
5
66
1
10
0
20
0
30
0
70
8
0
VERTEX
8
0
62
5
10
0.34366069
20
1.2127498
30
0
70
32
0
VERTEX
8
0
62
5
10
0.34366069
20
1.2127498
30
0
70
32
0
SEQEND
8
0
0
POLYLINE
8
0
62
30
66
1
10
0
20
0
30
0
70
8
0
VERTEX
8
0
62
30
10
-0.12598471
20
1.2127498
30
0
70
32
0
VERTEX
8
0
62
30
10
0.043720918
20
1.2127498
30
0
70
32
0
SEQEND
8
0
0
POLYLINE
8
0
62
30
66
1
10
0
20
0
30
0
70
8
0
VERTEX
8
0
62
30
10
-0.12598471
20
1.1948803
30
0
70
32
0
VERTEX
8
0
62
30
10
0.043720918
20
1.1948803
30
0
70
32
0
SEQEND
8
0
0
POLYLINE
8
0
62
5
66
1
10
0
20
0
30
0
70
8
0
VERTEX
8
0
62
5
10
-0.12598471
20
1.1948803
30
0
70
32
0
VERTEX
8
0
62
5
10
-0.12302978
20
1.2127498
30
0
70
32
0
VERTEX
8
0
62
5
10
-0.083558303
20
1.1948803
30
0
70
32
0
VERTEX
8
0
62
5
10
-0.080603375
20
1.2127498
30
0
70
32
0
VERTEX
8
0
62
5
10
-0.041131896
20
1.1948803
30
0
70
32
0
VERTEX
8
0
62
5
10
-0.038176968
20
1.2127498
30
0
70
32
0
VERTEX
8
0
62
5
10
0.0012945112
20
1.1948803
30
0
70
32
0
VERTEX
8
0
62
5
10
0.0042494387
20
1.2127498
30
0
70
32
0
VERTEX
8
0
62
5
10
0.043720918
20
1.1948803
30
0
70
32
0
SEQEND
8
0
0
POLYLINE
8
0
62
5
66
1
10
0
20
0
30
0
70
8
0
VERTEX
8
0
62
5
10
-0.083558303
20
1.1948803
30
0
70
32
0
VERTEX
8
0
62
5
10
-0.083558303
20
1.1948803
30
0
70
32
0
SEQEND
8
0
0
POLYLINE
8
0
62
5
66
1
10
0
20
0
30
0
70
8
0
VERTEX
8
0
62
5
10
-0.041131896
20
1.1948803
30
0
70
32
0
VERTEX
8
0
62
5
10
-0.041131896
20
1.1948803
30
0
70
32
0
SEQEND
8
0
0
POLYLINE
8
0
62
5
66
1
10
0
20
0
30
0
70
8
0
VERTEX
8
0
62
5
10
0.0012945112
20
1.1948803
30
0
70
32
0
VERTEX
8
0
62
5
10
0.0012945112
20
1.1948803
30
0
70
32
0
SEQEND
8
0
0
POLYLINE
8
0
62
5
66
1
10
0
20
0
30
0
70
8
0
VERTEX
8
0
62
5
10
-0.12302978
20
1.2127498
30
0
70
32
0
VERTEX
8
0
62
5
10
-0.12302978
20
1.2127498
30
0
70
32
0
SEQEND
8
0
0
POLYLINE
8
0
62
5
66
1
10
0
20
0
30
0
70
8
0
VERTEX
8
0
62
5
10
-0.080603375
20
1.2127498
30
0
70
32
0
VERTEX
8
0
62
5
10
-0.080603375
20
1.2127498
30
0
70
32
0
SEQEND
8
0
0
POLYLINE
8
0
62
5
66
1
10
0
20
0
30
0
70
8
0
VERTEX
8
0
62
5
10
-0.038176968
20
1.2127498
30
0
70
32
0
VERTEX
8
0
62
5
10
-0.038176968
20
1.2127498
30
0
70
32
0
SEQEND
8
0
0
POLYLINE
8
0
62
5
66
1
10
0
20
0
30
0
70
8
0
VERTEX
8
0
62
5
10
0.0042494387
20
1.2127498
30
0
70
32
0
VERTEX
8
0
62
5
10
0.0042494387
20
1.2127498
30
0
70
32
0
SEQEND
8
0
0
POLYLINE
8
0
62
5
66
1
10
0
20
0
30
0
70
8
0
VERTEX
8
0
62
5
10
0.0042494387
20
1.2127498
30
0
70
32
0
VERTEX
8
0
62
5
10
0.0042494387
20
1.2834725
30
0
70
32
0
SEQEND
8
0
0
POLYLINE
8
0
62
5
66
1
10
0
20
0
30
0
70
8
0
VERTEX
8
0
62
5
10
0.17395507
20
1.2127498
30
0
70
32
0
VERTEX
8
0
62
5
10
0.17395507
20
1.2834725
30
0
70
32
0
SEQEND
8
0
0
POLYLINE
8
0
62
5
66
1
10
0
20
0
30
0
70
8
0
VERTEX
8
0
62
5
10
0.046675846
20
1.2127498
30
0
70
32
0
VERTEX
8
0
62
5
10
0.046675846
20
1.2834725
30
0
70
32
0
SEQEND
8
0
0
POLYLINE
8
0
62
5
66
1
10
0
20
0
30
0
70
8
0
VERTEX
8
0
62
5
10
0.089102252
20
1.2127498
30
0
70
32
0
VERTEX
8
0
62
5
10
0.089102252
20
1.2834725
30
0
70
32
0
SEQEND
8
0
0
POLYLINE
8
0
62
5
66
1
10
0
20
0
30
0
70
8
0
VERTEX
8
0
62
5
10
0.13152866
20
1.2127498
30
0
70
32
0
VERTEX
8
0
62
5
10
0.13152866
20
1.2834725
30
0
70
32
0
SEQEND
8
0
0
POLYLINE
8
0
62
5
66
1
10
0
20
0
30
0
70
8
0
VERTEX
8
0
62
5
10
0.34366069
20
1.2127498
30
0
70
32
0
VERTEX
8
0
62
5
10
0.34366069
20
1.2834725
30
0
70
32
0
SEQEND
8
0
0
POLYLINE
8
0
62
5
66
1
10
0
20
0
30
0
70
8
0
VERTEX
8
0
62
5
10
0.21638147
20
1.2127498
30
0
70
32
0
VERTEX
8
0
62
5
10
0.21638147
20
1.2834725
30
0
70
32
0
SEQEND
8
0
0
POLYLINE
8
0
62
5
66
1
10
0
20
0
30
0
70
8
0
VERTEX
8
0
62
5
10
0.25880788
20
1.2127498
30
0
70
32
0
VERTEX
8
0
62
5
10
0.25880788
20
1.2834725
30
0
70
32
0
SEQEND
8
0
0
POLYLINE
8
0
62
5
66
1
10
0
20
0
30
0
70
8
0
VERTEX
8
0
62
5
10
0.30123429
20
1.2127498
30
0
70
32
0
VERTEX
8
0
62
5
10
0.30123429
20
1.2834725
30
0
70
32
0
SEQEND
8
0
0
POLYLINE
8
0
62
5
66
1
10
0
20
0
30
0
70
8
0
VERTEX
8
0
62
5
10
-0.16545619
20
1.2127498
30
0
70
32
0
VERTEX
8
0
62
5
10
-0.16545619
20
1.2834725
30
0
70
32
0
SEQEND
8
0
0
POLYLINE
8
0
62
5
66
1
10
0
20
0
30
0
70
8
0
VERTEX
8
0
62
5
10
-0.12302978
20
1.2127498
30
0
70
32
0
VERTEX
8
0
62
5
10
-0.12302978
20
1.2834725
30
0
70
32
0
SEQEND
8
0
0
POLYLINE
8
0
62
5
66
1
10
0
20
0
30
0
70
8
0
VERTEX
8
0
62
5
10
-0.080603375
20
1.2127498
30
0
70
32
0
VERTEX
8
0
62
5
10
-0.080603375
20
1.2834725
30
0
70
32
0
SEQEND
8
0
0
POLYLINE
8
0
62
5
66
1
10
0
20
0
30
0
70
8
0
VERTEX
8
0
62
5
10
-0.038176968
20
1.2127498
30
0
70
32
0
VERTEX
8
0
62
5
10
-0.038176968
20
1.2834725
30
0
70
32
0
SEQEND
8
0
0
POLYLINE
8
0
62
5
66
1
10
0
20
0
30
0
70
8
0
VERTEX
8
0
62
5
10
0.0042494387
20
1.2834725
30
0
70
32
0
VERTEX
8
0
62
5
10
0.0042494387
20
1.3629141
30
0
70
32
0
SEQEND
8
0
0
POLYLINE
8
0
62
5
66
1
10
0
20
0
30
0
70
8
0
VERTEX
8
0
62
5
10
0.17395507
20
1.3629141
30
0
70
32
0
VERTEX
8
0
62
5
10
0.17395507
20
1.2834725
30
0
70
32
0
SEQEND
8
0
0
POLYLINE
8
0
62
5
66
1
10
0
20
0
30
0
70
8
0
VERTEX
8
0
62
5
10
0.0042494387
20
1.3095115
30
0
70
32
0
VERTEX
8
0
62
5
10
0.046675846
20
1.3231933
30
0
70
32
0
VERTEX
8
0
62
5
10
0.089102252
20
1.2979898
30
0
70
32
0
VERTEX
8
0
62
5
10
0.13152866
20
1.2843081
30
0
70
32
0
VERTEX
8
0
62
5
10
0.17395507
20
1.3095115
30
0
70
32
0
SEQEND
8
0
0
POLYLINE
8
0
62
5
66
1
10
0
20
0
30
0
70
8
0
SEQEND
8
0
0
POLYLINE
8
0
62
5
66
1
10
0
20
0
30
0
70
8
0
VERTEX
8
0
62
5
10
0.0042494387
20
1.3368751
30
0
70
32
0
VERTEX
8
0
62
5
10
0.046675846
20
1.3231933
30
0
70
32
0
VERTEX
8
0
62
5
10
0.089102252
20
1.3483968
30
0
70
32
0
VERTEX
8
0
62
5
10
0.13152866
20
1.3620786
30
0
70
32
0
VERTEX
8
0
62
5
10
0.17395507
20
1.3368751
30
0
70
32
0
SEQEND
8
0
0
POLYLINE
8
0
62
30
66
1
10
0
20
0
30
0
70
8
0
VERTEX
8
0
62
30
10
0.0042494387
20
1.3231933
30
0
70
32
0
VERTEX
8
0
62
30
10
0.17395507
20
1.3231933
30
0
70
32
0
SEQEND
8
0
0
POLYLINE
8
0
62
30
66
1
10
0
20
0
30
0
70
8
0
VERTEX
8
0
62
30
10
0.046675846
20
1.3231933
30
0
70
32
0
VERTEX
8
0
62
30
10
0.046675846
20
1.3231933
30
0
70
32
0
SEQEND
8
0
0
POLYLINE
8
0
62
30
66
1
10
0
20
0
30
0
70
8
0
VERTEX
8
0
62
30
10
0.089102252
20
1.2979898
30
0
70
32
0
VERTEX
8
0
62
30
10
0.089102252
20
1.3231933
30
0
70
32
0
SEQEND
8
0
0
POLYLINE
8
0
62
30
66
1
10
0
20
0
30
0
70
8
0
VERTEX
8
0
62
30
10
0.13152866
20
1.2843081
30
0
70
32
0
VERTEX
8
0
62
30
10
0.13152866
20
1.3231933
30
0
70
32
0
SEQEND
8
0
0
POLYLINE
8
0
62
5
66
1
10
0
20
0
30
0
70
8
0
VERTEX
8
0
62
5
10
0.046675846
20
1.2834725
30
0
70
32
0
VERTEX
8
0
62
5
10
0.046675846
20
1.3231933
30
0
70
32
0
SEQEND
8
0
0
POLYLINE
8
0
62
5
66
1
10
0
20
0
30
0
70
8
0
VERTEX
8
0
62
5
10
0.089102252
20
1.2834725
30
0
70
32
0
VERTEX
8
0
62
5
10
0.089102252
20
1.2979898
30
0
70
32
0
SEQEND
8
0
0
POLYLINE
8
0
62
5
66
1
10
0
20
0
30
0
70
8
0
VERTEX
8
0
62
5
10
0.13152866
20
1.2834725
30
0
70
32
0
VERTEX
8
0
62
5
10
0.13152866
20
1.2843081
30
0
70
32
0
SEQEND
8
0
0
POLYLINE
8
0
62
5
66
1
10
0
20
0
30
0
70
8
0
VERTEX
8
0
62
5
10
0.046675846
20
1.3231933
30
0
70
32
0
VERTEX
8
0
62
5
10
0.046675846
20
1.3629141
30
0
70
32
0
SEQEND
8
0
0
POLYLINE
8
0
62
5
66
1
10
0
20
0
30
0
70
8
0
VERTEX
8
0
62
5
10
0.089102252
20
1.3231933
30
0
70
32
0
VERTEX
8
0
62
5
10
0.089102252
20
1.3629141
30
0
70
32
0
SEQEND
8
0
0
POLYLINE
8
0
62
5
66
1
10
0
20
0
30
0
70
8
0
VERTEX
8
0
62
5
10
0.13152866
20
1.3231933
30
0
70
32
0
VERTEX
8
0
62
5
10
0.13152866
20
1.3629141
30
0
70
32
0
SEQEND
8
0
0
POLYLINE
8
0
62
5
66
1
10
0
20
0
30
0
70
8
0
VERTEX
8
0
62
5
10
0.34366069
20
1.3629141
30
0
70
32
0
VERTEX
8
0
62
5
10
0.34366069
20
1.2834725
30
0
70
32
0
SEQEND
8
0
0
POLYLINE
8
0
62
5
66
1
10
0
20
0
30
0
70
8
0
VERTEX
8
0
62
5
10
0.17395507
20
1.3095115
30
0
70
32
0
VERTEX
8
0
62
5
10
0.21638147
20
1.3231933
30
0
70
32
0
VERTEX
8
0
62
5
10
0.25880788
20
1.2979898
30
0
70
32
0
VERTEX
8
0
62
5
10
0.30123429
20
1.2843081
30
0
70
32
0
VERTEX
8
0
62
5
10
0.34366069
20
1.3095115
30
0
70
32
0
SEQEND
8
0
0
POLYLINE
8
0
62
5
66
1
10
0
20
0
30
0
70
8
0
SEQEND
8
0
0
POLYLINE
8
0
62
5
66
1
10
0
20
0
30
0
70
8
0
VERTEX
8
0
62
5
10
0.17395507
20
1.3368751
30
0
70
32
0
VERTEX
8
0
62
5
10
0.21638147
20
1.3231933
30
0
70
32
0
VERTEX
8
0
62
5
10
0.25880788
20
1.3483968
30
0
70
32
0
VERTEX
8
0
62
5
10
0.30123429
20
1.3620786
30
0
70
32
0
VERTEX
8
0
62
5
10
0.34366069
20
1.3368751
30
0
70
32
0
SEQEND
8
0
0
POLYLINE
8
0
62
30
66
1
10
0
20
0
30
0
70
8
0
VERTEX
8
0
62
30
10
0.17395507
20
1.3231933
30
0
70
32
0
VERTEX
8
0
62
30
10
0.34366069
20
1.3231933
30
0
70
32
0
SEQEND
8
0
0
POLYLINE
8
0
62
30
66
1
10
0
20
0
30
0
70
8
0
VERTEX
8
0
62
30
10
0.21638147
20
1.3231933
30
0
70
32
0
VERTEX
8
0
62
30
10
0.21638147
20
1.3231933
30
0
70
32
0
SEQEND
8
0
0
POLYLINE
8
0
62
30
66
1
10
0
20
0
30
0
70
8
0
VERTEX
8
0
62
30
10
0.25880788
20
1.2979898
30
0
70
32
0
VERTEX
8
0
62
30
10
0.25880788
20
1.3231933
30
0
70
32
0
SEQEND
8
0
0
POLYLINE
8
0
62
30
66
1
10
0
20
0
30
0
70
8
0
VERTEX
8
0
62
30
10
0.30123429
20
1.2843081
30
0
70
32
0
VERTEX
8
0
62
30
10
0.30123429
20
1.3231933
30
0
70
32
0
SEQEND
8
0
0
POLYLINE
8
0
62
5
66
1
10
0
20
0
30
0
70
8
0
VERTEX
8
0
62
5
10
0.21638147
20
1.2834725
30
0
70
32
0
VERTEX
8
0
62
5
10
0.21638147
20
1.3231933
30
0
70
32
0
SEQEND
8
0
0
POLYLINE
8
0
62
5
66
1
10
0
20
0
30
0
70
8
0
VERTEX
8
0
62
5
10
0.25880788
20
1.2834725
30
0
70
32
0
VERTEX
8
0
62
5
10
0.25880788
20
1.2979898
30
0
70
32
0
SEQEND
8
0
0
POLYLINE
8
0
62
5
66
1
10
0
20
0
30
0
70
8
0
VERTEX
8
0
62
5
10
0.30123429
20
1.2834725
30
0
70
32
0
VERTEX
8
0
62
5
10
0.30123429
20
1.2843081
30
0
70
32
0
SEQEND
8
0
0
POLYLINE
8
0
62
5
66
1
10
0
20
0
30
0
70
8
0
VERTEX
8
0
62
5
10
0.21638147
20
1.3231933
30
0
70
32
0
VERTEX
8
0
62
5
10
0.21638147
20
1.3629141
30
0
70
32
0
SEQEND
8
0
0
POLYLINE
8
0
62
5
66
1
10
0
20
0
30
0
70
8
0
VERTEX
8
0
62
5
10
0.25880788
20
1.3231933
30
0
70
32
0
VERTEX
8
0
62
5
10
0.25880788
20
1.3629141
30
0
70
32
0
SEQEND
8
0
0
POLYLINE
8
0
62
5
66
1
10
0
20
0
30
0
70
8
0
VERTEX
8
0
62
5
10
0.30123429
20
1.3231933
30
0
70
32
0
VERTEX
8
0
62
5
10
0.30123429
20
1.3629141
30
0
70
32
0
SEQEND
8
0
0
POLYLINE
8
0
62
5
66
1
10
0
20
0
30
0
70
8
0
VERTEX
8
0
62
5
10
-0.16545619
20
1.2834725
30
0
70
32
0
VERTEX
8
0
62
5
10
-0.16545619
20
1.3629141
30
0
70
32
0
SEQEND
8
0
0
POLYLINE
8
0
62
5
66
1
10
0
20
0
30
0
70
8
0
VERTEX
8
0
62
5
10
-0.16545619
20
1.3095115
30
0
70
32
0
VERTEX
8
0
62
5
10
-0.12302978
20
1.3231933
30
0
70
32
0
VERTEX
8
0
62
5
10
-0.080603375
20
1.2979898
30
0
70
32
0
VERTEX
8
0
62
5
10
-0.038176968
20
1.2843081
30
0
70
32
0
VERTEX
8
0
62
5
10
0.0042494387
20
1.3095115
30
0
70
32
0
SEQEND
8
0
0
POLYLINE
8
0
62
5
66
1
10
0
20
0
30
0
70
8
0
SEQEND
8
0
0
POLYLINE
8
0
62
5
66
1
10
0
20
0
30
0
70
8
0
VERTEX
8
0
62
5
10
-0.16545619
20
1.3368751
30
0
70
32
0
VERTEX
8
0
62
5
10
-0.12302978
20
1.3231933
30
0
70
32
0
VERTEX
8
0
62
5
10
-0.080603375
20
1.3483968
30
0
70
32
0
VERTEX
8
0
62
5
10
-0.038176968
20
1.3620786
30
0
70
32
0
VERTEX
8
0
62
5
10
0.0042494387
20
1.3368751
30
0
70
32
0
SEQEND
8
0
0
POLYLINE
8
0
62
30
66
1
10
0
20
0
30
0
70
8
0
VERTEX
8
0
62
30
10
-0.16545619
20
1.3231933
30
0
70
32
0
VERTEX
8
0
62
30
10
0.0042494387
20
1.3231933
30
0
70
32
0
SEQEND
8
0
0
POLYLINE
8
0
62
30
66
1
10
0
20
0
30
0
70
8
0
VERTEX
8
0
62
30
10
-0.12302978
20
1.3231933
30
0
70
32
0
VERTEX
8
0
62
30
10
-0.12302978
20
1.3231933
30
0
70
32
0
SEQEND
8
0
0
POLYLINE
8
0
62
30
66
1
10
0
20
0
30
0
70
8
0
VERTEX
8
0
62
30
10
-0.080603375
20
1.2979898
30
0
70
32
0
VERTEX
8
0
62
30
10
-0.080603375
20
1.3231933
30
0
70
32
0
SEQEND
8
0
0
POLYLINE
8
0
62
30
66
1
10
0
20
0
30
0
70
8
0
VERTEX
8
0
62
30
10
-0.038176968
20
1.2843081
30
0
70
32
0
VERTEX
8
0
62
30
10
-0.038176968
20
1.3231933
30
0
70
32
0
SEQEND
8
0
0
POLYLINE
8
0
62
5
66
1
10
0
20
0
30
0
70
8
0
VERTEX
8
0
62
5
10
-0.12302978
20
1.2834725
30
0
70
32
0
VERTEX
8
0
62
5
10
-0.12302978
20
1.3231933
30
0
70
32
0
SEQEND
8
0
0
POLYLINE
8
0
62
5
66
1
10
0
20
0
30
0
70
8
0
VERTEX
8
0
62
5
10
-0.080603375
20
1.2834725
30
0
70
32
0
VERTEX
8
0
62
5
10
-0.080603375
20
1.2979898
30
0
70
32
0
SEQEND
8
0
0
POLYLINE
8
0
62
5
66
1
10
0
20
0
30
0
70
8
0
VERTEX
8
0
62
5
10
-0.038176968
20
1.2834725
30
0
70
32
0
VERTEX
8
0
62
5
10
-0.038176968
20
1.2843081
30
0
70
32
0
SEQEND
8
0
0
POLYLINE
8
0
62
5
66
1
10
0
20
0
30
0
70
8
0
VERTEX
8
0
62
5
10
-0.12302978
20
1.3231933
30
0
70
32
0
VERTEX
8
0
62
5
10
-0.12302978
20
1.3629141
30
0
70
32
0
SEQEND
8
0
0
POLYLINE
8
0
62
5
66
1
10
0
20
0
30
0
70
8
0
VERTEX
8
0
62
5
10
-0.080603375
20
1.3231933
30
0
70
32
0
VERTEX
8
0
62
5
10
-0.080603375
20
1.3629141
30
0
70
32
0
SEQEND
8
0
0
POLYLINE
8
0
62
5
66
1
10
0
20
0
30
0
70
8
0
VERTEX
8
0
62
5
10
-0.038176968
20
1.3231933
30
0
70
32
0
VERTEX
8
0
62
5
10
-0.038176968
20
1.3629141
30
0
70
32
0
SEQEND
8
0
0
POLYLINE
8
0
62
5
66
1
10
0
20
0
30
0
70
8
0
VERTEX
8
0
62
5
10
0.0042494387
20
1.3629141
30
0
70
32
0
VERTEX
8
0
62
5
10
0.0042494387
20
1.4229141
30
0
70
32
0
SEQEND
8
0
0
POLYLINE
8
0
62
5
66
1
10
0
20
0
30
0
70
8
0
VERTEX
8
0
62
5
10
0.17395507
20
1.4229141
30
0
70
32
0
VERTEX
8
0
62
5
10
0.17395507
20
1.3629141
30
0
70
32
0
SEQEND
8
0
0
POLYLINE
8
0
62
5
66
1
10
0
20
0
30
0
70
8
0
VERTEX
8
0
62
5
10
0.0042494387
20
1.3629141
30
0
70
32
0
VERTEX
8
0
62
5
10
0.17395507
20
1.3629141
30
0
70
32
0
SEQEND
8
0
0
POLYLINE
8
0
62
5
66
1
10
0
20
0
30
0
70
8
0
VERTEX
8
0
62
5
10
0.0042494387
20
1.4229141
30
0
70
32
0
VERTEX
8
0
62
5
10
0.17395507
20
1.4229141
30
0
70
32
0
SEQEND
8
0
0
POLYLINE
8
0
62
5
66
1
10
0
20
0
30
0
70
8
0
VERTEX
8
0
62
5
10
0.046675846
20
1.3629141
30
0
70
32
0
VERTEX
8
0
62
5
10
0.046675846
20
1.3629141
30
0
70
32
0
SEQEND
8
0
0
POLYLINE
8
0
62
5
66
1
10
0
20
0
30
0
70
8
0
VERTEX
8
0
62
5
10
0.089102252
20
1.3629141
30
0
70
32
0
VERTEX
8
0
62
5
10
0.089102252
20
1.3629141
30
0
70
32
0
SEQEND
8
0
0
POLYLINE
8
0
62
5
66
1
10
0
20
0
30
0
70
8
0
VERTEX
8
0
62
5
10
0.13152866
20
1.3629141
30
0
70
32
0
VERTEX
8
0
62
5
10
0.13152866
20
1.3629141
30
0
70
32
0
SEQEND
8
0
0
POLYLINE
8
0
62
5
66
1
10
0
20
0
30
0
70
8
0
VERTEX
8
0
62
5
10
0.046675846
20
1.4229141
30
0
70
32
0
VERTEX
8
0
62
5
10
0.046675846
20
1.4229141
30
0
70
32
0
SEQEND
8
0
0
POLYLINE
8
0
62
5
66
1
10
0
20
0
30
0
70
8
0
VERTEX
8
0
62
5
10
0.089102252
20
1.4229141
30
0
70
32
0
VERTEX
8
0
62
5
10
0.089102252
20
1.4229141
30
0
70
32
0
SEQEND
8
0
0
POLYLINE
8
0
62
5
66
1
10
0
20
0
30
0
70
8
0
VERTEX
8
0
62
5
10
0.13152866
20
1.4229141
30
0
70
32
0
VERTEX
8
0
62
5
10
0.13152866
20
1.4229141
30
0
70
32
0
SEQEND
8
0
0
POLYLINE
8
0
62
30
66
1
10
0
20
0
30
0
70
8
0
VERTEX
8
0
62
30
10
0.0042494387
20
1.3629141
30
0
70
32
0
VERTEX
8
0
62
30
10
0.025462642
20
1.3929141
30
0
70
32
0
SEQEND
8
0
0
POLYLINE
8
0
62
30
66
1
10
0
20
0
30
0
70
8
0
VERTEX
8
0
62
30
10
0.025462642
20
1.3929141
30
0
70
32
0
VERTEX
8
0
62
30
10
0.046675846
20
1.3629141
30
0
70
32
0
SEQEND
8
0
0
POLYLINE
8
0
62
30
66
1
10
0
20
0
30
0
70
8
0
VERTEX
8
0
62
30
10
0.089102252
20
1.3629141
30
0
70
32
0
VERTEX
8
0
62
30
10
0.11031546
20
1.3929141
30
0
70
32
0
SEQEND
8
0
0
POLYLINE
8
0
62
30
66
1
10
0
20
0
30
0
70
8
0
VERTEX
8
0
62
30
10
0.11031546
20
1.3929141
30
0
70
32
0
VERTEX
8
0
62
30
10
0.13152866
20
1.3629141
30
0
70
32
0
SEQEND
8
0
0
POLYLINE
8
0
62
30
66
1
10
0
20
0
30
0
70
8
0
VERTEX
8
0
62
30
10
0.046675846
20
1.3929141
30
0
70
32
0
VERTEX
8
0
62
30
10
0.089102252
20
1.3929141
30
0
70
32
0
SEQEND
8
0
0
POLYLINE
8
0
62
30
66
1
10
0
20
0
30
0
70
8
0
VERTEX
8
0
62
30
10
0.13152866
20
1.3929141
30
0
70
32
0
VERTEX
8
0
62
30
10
0.17395507
20
1.3929141
30
0
70
32
0
SEQEND
8
0
0
POLYLINE
8
0
62
5
66
1
10
0
20
0
30
0
70
8
0
VERTEX
8
0
62
5
10
0.0042494387
20
1.3929141
30
0
70
32
0
VERTEX
8
0
62
5
10
0.025462642
20
1.3929141
30
0
70
32
0
SEQEND
8
0
0
POLYLINE
8
0
62
5
66
1
10
0
20
0
30
0
70
8
0
VERTEX
8
0
62
5
10
0.089102252
20
1.3929141
30
0
70
32
0
VERTEX
8
0
62
5
10
0.11031546
20
1.3929141
30
0
70
32
0
SEQEND
8
0
0
POLYLINE
8
0
62
5
66
1
10
0
20
0
30
0
70
8
0
VERTEX
8
0
62
5
10
0.025462642
20
1.3929141
30
0
70
32
0
VERTEX
8
0
62
5
10
0.046675846
20
1.3929141
30
0
70
32
0
SEQEND
8
0
0
POLYLINE
8
0
62
5
66
1
10
0
20
0
30
0
70
8
0
VERTEX
8
0
62
5
10
0.11031546
20
1.3929141
30
0
70
32
0
VERTEX
8
0
62
5
10
0.13152866
20
1.3929141
30
0
70
32
0
SEQEND
8
0
0
POLYLINE
8
0
62
5
66
1
10
0
20
0
30
0
70
8
0
VERTEX
8
0
62
5
10
0.046675846
20
1.3629141
30
0
70
32
0
VERTEX
8
0
62
5
10
0.046675846
20
1.4229141
30
0
70
32
0
SEQEND
8
0
0
POLYLINE
8
0
62
5
66
1
10
0
20
0
30
0
70
8
0
VERTEX
8
0
62
5
10
0.089102252
20
1.3629141
30
0
70
32
0
VERTEX
8
0
62
5
10
0.089102252
20
1.4229141
30
0
70
32
0
SEQEND
8
0
0
POLYLINE
8
0
62
5
66
1
10
0
20
0
30
0
70
8
0
VERTEX
8
0
62
5
10
0.13152866
20
1.3629141
30
0
70
32
0
VERTEX
8
0
62
5
10
0.13152866
20
1.4229141
30
0
70
32
0
SEQEND
8
0
0
POLYLINE
8
0
62
5
66
1
10
0
20
0
30
0
70
8
0
VERTEX
8
0
62
5
10
0.0042494387
20
1.3629141
30
0
70
32
0
VERTEX
8
0
62
5
10
0.0042494387
20
1.4229141
30
0
70
32
0
SEQEND
8
0
0
POLYLINE
8
0
62
5
66
1
10
0
20
0
30
0
70
8
0
VERTEX
8
0
62
5
10
0.34366069
20
1.4229141
30
0
70
32
0
VERTEX
8
0
62
5
10
0.34366069
20
1.3629141
30
0
70
32
0
SEQEND
8
0
0
POLYLINE
8
0
62
5
66
1
10
0
20
0
30
0
70
8
0
VERTEX
8
0
62
5
10
0.17395507
20
1.3629141
30
0
70
32
0
VERTEX
8
0
62
5
10
0.34366069
20
1.3629141
30
0
70
32
0
SEQEND
8
0
0
POLYLINE
8
0
62
5
66
1
10
0
20
0
30
0
70
8
0
VERTEX
8
0
62
5
10
0.17395507
20
1.4229141
30
0
70
32
0
VERTEX
8
0
62
5
10
0.34366069
20
1.4229141
30
0
70
32
0
SEQEND
8
0
0
POLYLINE
8
0
62
5
66
1
10
0
20
0
30
0
70
8
0
VERTEX
8
0
62
5
10
0.21638147
20
1.3629141
30
0
70
32
0
VERTEX
8
0
62
5
10
0.21638147
20
1.3629141
30
0
70
32
0
SEQEND
8
0
0
POLYLINE
8
0
62
5
66
1
10
0
20
0
30
0
70
8
0
VERTEX
8
0
62
5
10
0.25880788
20
1.3629141
30
0
70
32
0
VERTEX
8
0
62
5
10
0.25880788
20
1.3629141
30
0
70
32
0
SEQEND
8
0
0
POLYLINE
8
0
62
5
66
1
10
0
20
0
30
0
70
8
0
VERTEX
8
0
62
5
10
0.30123429
20
1.3629141
30
0
70
32
0
VERTEX
8
0
62
5
10
0.30123429
20
1.3629141
30
0
70
32
0
SEQEND
8
0
0
POLYLINE
8
0
62
5
66
1
10
0
20
0
30
0
70
8
0
VERTEX
8
0
62
5
10
0.21638147
20
1.4229141
30
0
70
32
0
VERTEX
8
0
62
5
10
0.21638147
20
1.4229141
30
0
70
32
0
SEQEND
8
0
0
POLYLINE
8
0
62
5
66
1
10
0
20
0
30
0
70
8
0
VERTEX
8
0
62
5
10
0.25880788
20
1.4229141
30
0
70
32
0
VERTEX
8
0
62
5
10
0.25880788
20
1.4229141
30
0
70
32
0
SEQEND
8
0
0
POLYLINE
8
0
62
5
66
1
10
0
20
0
30
0
70
8
0
VERTEX
8
0
62
5
10
0.30123429
20
1.4229141
30
0
70
32
0
VERTEX
8
0
62
5
10
0.30123429
20
1.4229141
30
0
70
32
0
SEQEND
8
0
0
POLYLINE
8
0
62
30
66
1
10
0
20
0
30
0
70
8
0
VERTEX
8
0
62
30
10
0.17395507
20
1.3629141
30
0
70
32
0
VERTEX
8
0
62
30
10
0.19516827
20
1.3929141
30
0
70
32
0
SEQEND
8
0
0
POLYLINE
8
0
62
30
66
1
10
0
20
0
30
0
70
8
0
VERTEX
8
0
62
30
10
0.19516827
20
1.3929141
30
0
70
32
0
VERTEX
8
0
62
30
10
0.21638147
20
1.3629141
30
0
70
32
0
SEQEND
8
0
0
POLYLINE
8
0
62
30
66
1
10
0
20
0
30
0
70
8
0
VERTEX
8
0
62
30
10
0.25880788
20
1.3629141
30
0
70
32
0
VERTEX
8
0
62
30
10
0.28002108
20
1.3929141
30
0
70
32
0
SEQEND
8
0
0
POLYLINE
8
0
62
30
66
1
10
0
20
0
30
0
70
8
0
VERTEX
8
0
62
30
10
0.28002108
20
1.3929141
30
0
70
32
0
VERTEX
8
0
62
30
10
0.30123429
20
1.3629141
30
0
70
32
0
SEQEND
8
0
0
POLYLINE
8
0
62
30
66
1
10
0
20
0
30
0
70
8
0
VERTEX
8
0
62
30
10
0.21638147
20
1.3929141
30
0
70
32
0
VERTEX
8
0
62
30
10
0.25880788
20
1.3929141
30
0
70
32
0
SEQEND
8
0
0
POLYLINE
8
0
62
30
66
1
10
0
20
0
30
0
70
8
0
VERTEX
8
0
62
30
10
0.30123429
20
1.3929141
30
0
70
32
0
VERTEX
8
0
62
30
10
0.34366069
20
1.3929141
30
0
70
32
0
SEQEND
8
0
0
POLYLINE
8
0
62
5
66
1
10
0
20
0
30
0
70
8
0
VERTEX
8
0
62
5
10
0.17395507
20
1.3929141
30
0
70
32
0
VERTEX
8
0
62
5
10
0.19516827
20
1.3929141
30
0
70
32
0
SEQEND
8
0
0
POLYLINE
8
0
62
5
66
1
10
0
20
0
30
0
70
8
0
VERTEX
8
0
62
5
10
0.25880788
20
1.3929141
30
0
70
32
0
VERTEX
8
0
62
5
10
0.28002108
20
1.3929141
30
0
70
32
0
SEQEND
8
0
0
POLYLINE
8
0
62
5
66
1
10
0
20
0
30
0
70
8
0
VERTEX
8
0
62
5
10
0.19516827
20
1.3929141
30
0
70
32
0
VERTEX
8
0
62
5
10
0.21638147
20
1.3929141
30
0
70
32
0
SEQEND
8
0
0
POLYLINE
8
0
62
5
66
1
10
0
20
0
30
0
70
8
0
VERTEX
8
0
62
5
10
0.28002108
20
1.3929141
30
0
70
32
0
VERTEX
8
0
62
5
10
0.30123429
20
1.3929141
30
0
70
32
0
SEQEND
8
0
0
POLYLINE
8
0
62
5
66
1
10
0
20
0
30
0
70
8
0
VERTEX
8
0
62
5
10
0.21638147
20
1.3629141
30
0
70
32
0
VERTEX
8
0
62
5
10
0.21638147
20
1.4229141
30
0
70
32
0
SEQEND
8
0
0
POLYLINE
8
0
62
5
66
1
10
0
20
0
30
0
70
8
0
VERTEX
8
0
62
5
10
0.25880788
20
1.3629141
30
0
70
32
0
VERTEX
8
0
62
5
10
0.25880788
20
1.4229141
30
0
70
32
0
SEQEND
8
0
0
POLYLINE
8
0
62
5
66
1
10
0
20
0
30
0
70
8
0
VERTEX
8
0
62
5
10
0.30123429
20
1.3629141
30
0
70
32
0
VERTEX
8
0
62
5
10
0.30123429
20
1.4229141
30
0
70
32
0
SEQEND
8
0
0
POLYLINE
8
0
62
5
66
1
10
0
20
0
30
0
70
8
0
VERTEX
8
0
62
5
10
0.17395507
20
1.3629141
30
0
70
32
0
VERTEX
8
0
62
5
10
0.17395507
20
1.4229141
30
0
70
32
0
SEQEND
8
0
0
POLYLINE
8
0
62
5
66
1
10
0
20
0
30
0
70
8
0
VERTEX
8
0
62
5
10
-0.16545619
20
1.3629141
30
0
70
32
0
VERTEX
8
0
62
5
10
-0.16545619
20
1.4229141
30
0
70
32
0
SEQEND
8
0
0
POLYLINE
8
0
62
5
66
1
10
0
20
0
30
0
70
8
0
VERTEX
8
0
62
5
10
-0.16545619
20
1.3629141
30
0
70
32
0
VERTEX
8
0
62
5
10
0.0042494387
20
1.3629141
30
0
70
32
0
SEQEND
8
0
0
POLYLINE
8
0
62
5
66
1
10
0
20
0
30
0
70
8
0
VERTEX
8
0
62
5
10
-0.16545619
20
1.4229141
30
0
70
32
0
VERTEX
8
0
62
5
10
0.0042494387
20
1.4229141
30
0
70
32
0
SEQEND
8
0
0
POLYLINE
8
0
62
5
66
1
10
0
20
0
30
0
70
8
0
VERTEX
8
0
62
5
10
-0.12302978
20
1.3629141
30
0
70
32
0
VERTEX
8
0
62
5
10
-0.12302978
20
1.3629141
30
0
70
32
0
SEQEND
8
0
0
POLYLINE
8
0
62
5
66
1
10
0
20
0
30
0
70
8
0
VERTEX
8
0
62
5
10
-0.080603375
20
1.3629141
30
0
70
32
0
VERTEX
8
0
62
5
10
-0.080603375
20
1.3629141
30
0
70
32
0
SEQEND
8
0
0
POLYLINE
8
0
62
5
66
1
10
0
20
0
30
0
70
8
0
VERTEX
8
0
62
5
10
-0.038176968
20
1.3629141
30
0
70
32
0
VERTEX
8
0
62
5
10
-0.038176968
20
1.3629141
30
0
70
32
0
SEQEND
8
0
0
POLYLINE
8
0
62
5
66
1
10
0
20
0
30
0
70
8
0
VERTEX
8
0
62
5
10
-0.12302978
20
1.4229141
30
0
70
32
0
VERTEX
8
0
62
5
10
-0.12302978
20
1.4229141
30
0
70
32
0
SEQEND
8
0
0
POLYLINE
8
0
62
5
66
1
10
0
20
0
30
0
70
8
0
VERTEX
8
0
62
5
10
-0.080603375
20
1.4229141
30
0
70
32
0
VERTEX
8
0
62
5
10
-0.080603375
20
1.4229141
30
0
70
32
0
SEQEND
8
0
0
POLYLINE
8
0
62
5
66
1
10
0
20
0
30
0
70
8
0
VERTEX
8
0
62
5
10
-0.038176968
20
1.4229141
30
0
70
32
0
VERTEX
8
0
62
5
10
-0.038176968
20
1.4229141
30
0
70
32
0
SEQEND
8
0
0
POLYLINE
8
0
62
30
66
1
10
0
20
0
30
0
70
8
0
VERTEX
8
0
62
30
10
-0.16545619
20
1.3629141
30
0
70
32
0
VERTEX
8
0
62
30
10
-0.14424299
20
1.3929141
30
0
70
32
0
SEQEND
8
0
0
POLYLINE
8
0
62
30
66
1
10
0
20
0
30
0
70
8
0
VERTEX
8
0
62
30
10
-0.14424299
20
1.3929141
30
0
70
32
0
VERTEX
8
0
62
30
10
-0.12302978
20
1.3629141
30
0
70
32
0
SEQEND
8
0
0
POLYLINE
8
0
62
30
66
1
10
0
20
0
30
0
70
8
0
VERTEX
8
0
62
30
10
-0.080603375
20
1.3629141
30
0
70
32
0
VERTEX
8
0
62
30
10
-0.059390172
20
1.3929141
30
0
70
32
0
SEQEND
8
0
0
POLYLINE
8
0
62
30
66
1
10
0
20
0
30
0
70
8
0
VERTEX
8
0
62
30
10
-0.059390172
20
1.3929141
30
0
70
32
0
VERTEX
8
0
62
30
10
-0.038176968
20
1.3629141
30
0
70
32
0
SEQEND
8
0
0
POLYLINE
8
0
62
30
66
1
10
0
20
0
30
0
70
8
0
VERTEX
8
0
62
30
10
-0.12302978
20
1.3929141
30
0
70
32
0
VERTEX
8
0
62
30
10
-0.080603375
20
1.3929141
30
0
70
32
0
SEQEND
8
0
0
POLYLINE
8
0
62
30
66
1
10
0
20
0
30
0
70
8
0
VERTEX
8
0
62
30
10
-0.038176968
20
1.3929141
30
0
70
32
0
VERTEX
8
0
62
30
10
0.0042494387
20
1.3929141
30
0
70
32
0
SEQEND
8
0
0
POLYLINE
8
0
62
5
66
1
10
0
20
0
30
0
70
8
0
VERTEX
8
0
62
5
10
-0.16545619
20
1.3929141
30
0
70
32
0
VERTEX
8
0
62
5
10
-0.14424299
20
1.3929141
30
0
70
32
0
SEQEND
8
0
0
POLYLINE
8
0
62
5
66
1
10
0
20
0
30
0
70
8
0
VERTEX
8
0
62
5
10
-0.080603375
20
1.3929141
30
0
70
32
0
VERTEX
8
0
62
5
10
-0.059390172
20
1.3929141
30
0
70
32
0
SEQEND
8
0
0
POLYLINE
8
0
62
5
66
1
10
0
20
0
30
0
70
8
0
VERTEX
8
0
62
5
10
-0.14424299
20
1.3929141
30
0
70
32
0
VERTEX
8
0
62
5
10
-0.12302978
20
1.3929141
30
0
70
32
0
SEQEND
8
0
0
POLYLINE
8
0
62
5
66
1
10
0
20
0
30
0
70
8
0
VERTEX
8
0
62
5
10
-0.059390172
20
1.3929141
30
0
70
32
0
VERTEX
8
0
62
5
10
-0.038176968
20
1.3929141
30
0
70
32
0
SEQEND
8
0
0
POLYLINE
8
0
62
5
66
1
10
0
20
0
30
0
70
8
0
VERTEX
8
0
62
5
10
-0.12302978
20
1.3629141
30
0
70
32
0
VERTEX
8
0
62
5
10
-0.12302978
20
1.4229141
30
0
70
32
0
SEQEND
8
0
0
POLYLINE
8
0
62
5
66
1
10
0
20
0
30
0
70
8
0
VERTEX
8
0
62
5
10
-0.080603375
20
1.3629141
30
0
70
32
0
VERTEX
8
0
62
5
10
-0.080603375
20
1.4229141
30
0
70
32
0
SEQEND
8
0
0
POLYLINE
8
0
62
5
66
1
10
0
20
0
30
0
70
8
0
VERTEX
8
0
62
5
10
-0.038176968
20
1.3629141
30
0
70
32
0
VERTEX
8
0
62
5
10
-0.038176968
20
1.4229141
30
0
70
32
0
SEQEND
8
0
0
POLYLINE
8
0
62
5
66
1
10
0
20
0
30
0
70
8
0
VERTEX
8
0
62
5
10
-0.16545619
20
1.3629141
30
0
70
32
0
VERTEX
8
0
62
5
10
-0.16545619
20
1.4229141
30
0
70
32
0
SEQEND
8
0
0
POLYLINE
8
0
62
18
66
1
10
0
20
0
30
0
70
8
0
VERTEX
8
0
62
18
10
0
20
0
30
0
70
32
0
VERTEX
8
0
62
18
10
0.21213203
20
0
30
0
70
32
0
VERTEX
8
0
62
18
10
0.21213203
20
0.43741784
30
0
70
32
0
VERTEX
8
0
62
18
10
0
20
0.43741784
30
0
70
32
0
VERTEX
8
0
62
18
10
0
20
0
30
0
70
32
0
SEQEND
8
0
0
POLYLINE
8
0
62
5
66
1
10
0
20
0
30
0
70
8
0
VERTEX
8
0
62
5
10
0
20
0.43741784
30
0
70
32
0
VERTEX
8
0
62
5
10
0.21213203
20
0.43741784
30
0
70
32
0
SEQEND
8
0
0
POLYLINE
8
0
62
18
66
1
10
0
20
0
30
0
70
8
0
VERTEX
8
0
62
18
10
0
20
0.41741784
30
0
70
32
0
VERTEX
8
0
62
18
10
0.21213203
20
0.41741784
30
0
70
32
0
VERTEX
8
0
62
18
10
0.21213203
20
0.89016506
30
0
70
32
0
VERTEX
8
0
62
18
10
0
20
0.89016506
30
0
70
32
0
VERTEX
8
0
62
18
10
0
20
0.41741784
30
0
70
32
0
SEQEND
8
0
0
POLYLINE
8
0
62
5
66
1
10
0
20
0
30
0
70
8
0
VERTEX
8
0
62
5
10
0
20
0.89016506
30
0
70
32
0
VERTEX
8
0
62
5
10
0.21213203
20
0.89016506
30
0
70
32
0
SEQEND
8
0
0
POLYLINE
8
0
62
18
66
1
10
0
20
0
30
0
70
8
0
VERTEX
8
0
62
18
10
0
20
0.87016506
30
0
70
32
0
VERTEX
8
0
62
18
10
0.21213203
20
0.87016506
30
0
70
32
0
VERTEX
8
0
62
18
10
0.21213203
20
1.2481112
30
0
70
32
0
VERTEX
8
0
62
18
10
0
20
1.2481112
30
0
70
32
0
VERTEX
8
0
62
18
10
0
20
0.87016506
30
0
70
32
0
SEQEND
8
0
0
POLYLINE
8
0
62
5
66
1
10
0
20
0
30
0
70
8
0
VERTEX
8
0
62
5
10
0
20
1.2481112
30
0
70
32
0
VERTEX
8
0
62
5
10
0.21213203
20
1.2481112
30
0
70
32
0
SEQEND
8
0
0
POLYLINE
8
0
62
18
66
1
10
0
20
0
30
0
70
8
0
VERTEX
8
0
62
18
10
0
20
1.2281112
30
0
70
32
0
VERTEX
8
0
62
18
10
0.21213203
20
1.2281112
30
0
70
32
0
VERTEX
8
0
62
18
10
0.21213203
20
1.4229141
30
0
70
32
0
VERTEX
8
0
62
18
10
0
20
1.4229141
30
0
70
32
0
VERTEX
8
0
62
18
10
0
20
1.2281112
30
0
70
32
0
SEQEND
8
0
0
POLYLINE
8
0
62
18
66
1
10
0
20
0
30
0
70
8
0
VERTEX
8
0
62
18
10
0.21213203
20
0
30
0
70
32
0
VERTEX
8
0
62
18
10
0
20
0
30
0
70
32
0
VERTEX
8
0
62
18
10
0
20
1.4229141
30
0
70
32
0
VERTEX
8
0
62
18
10
0.21213203
20
1.4229141
30
0
70
32
0
VERTEX
8
0
62
18
10
0.21213203
20
0
30
0
70
32
0
SEQEND
8
0
0
ENDSEC
0
EOF
