0
SECTION
2
HEADER
9
$ACADVER
1
AC1006
9
$INSUNITS
70
6
0
ENDSEC
0
SECTION
2
ENTITIES
0
POLYLINE
8
0
62
5
66
1
10
0
20
0
30
0
70
8
0
VERTEX
8
0
62
5
10
0
20
0
30
0
70
32
0
VERTEX
8
0
62
5
10
0
20
0.1
30
0
70
32
0
SEQEND
8
0
0
POLYLINE
8
0
62
5
66
1
10
0
20
0
30
0
70
8
0
VERTEX
8
0
62
5
10
0.28284271
20
0
30
0
70
32
0
VERTEX
8
0
62
5
10
0.28284271
20
0.1
30
0
70
32
0
SEQEND
8
0
0
POLYLINE
8
0
62
5
66
1
10
0
20
0
30
0
70
8
0
VERTEX
8
0
62
5
10
0.070710678
20
0
30
0
70
32
0
VERTEX
8
0
62
5
10
0.070710678
20
0.1
30
0
70
32
0
SEQEND
8
0
0
POLYLINE
8
0
62
5
66
1
10
0
20
0
30
0
70
8
0
VERTEX
8
0
62
5
10
0.14142136
20
0
30
0
70
32
0
VERTEX
8
0
62
5
10
0.14142136
20
0.1
30
0
70
32
0
SEQEND
8
0
0
POLYLINE
8
0
62
5
66
1
10
0
20
0
30
0
70
8
0
VERTEX
8
0
62
5
10
0.21213203
20
0
30
0
70
32
0
VERTEX
8
0
62
5
10
0.21213203
20
0.1
30
0
70
32
0
SEQEND
8
0
0
POLYLINE
8
0
62
5
66
1
10
0
20
0
30
0
70
8
0
VERTEX
8
0
62
5
10
0.56568542
20
0
30
0
70
32
0
VERTEX
8
0
62
5
10
0.56568542
20
0.1
30
0
70
32
0
SEQEND
8
0
0
POLYLINE
8
0
62
5
66
1
10
0
20
0
30
0
70
8
0
VERTEX
8
0
62
5
10
0.35355339
20
0
30
0
70
32
0
VERTEX
8
0
62
5
10
0.35355339
20
0.1
30
0
70
32
0
SEQEND
8
0
0
POLYLINE
8
0
62
5
66
1
10
0
20
0
30
0
70
8
0
VERTEX
8
0
62
5
10
0.42426407
20
0
30
0
70
32
0
VERTEX
8
0
62
5
10
0.42426407
20
0.1
30
0
70
32
0
SEQEND
8
0
0
POLYLINE
8
0
62
5
66
1
10
0
20
0
30
0
70
8
0
VERTEX
8
0
62
5
10
0.49497475
20
0
30
0
70
32
0
VERTEX
8
0
62
5
10
0.49497475
20
0.1
30
0
70
32
0
SEQEND
8
0
0
POLYLINE
8
0
62
5
66
1
10
0
20
0
30
0
70
8
0
VERTEX
8
0
62
5
10
-0.28284271
20
0
30
0
70
32
0
VERTEX
8
0
62
5
10
-0.28284271
20
0.1
30
0
70
32
0
SEQEND
8
0
0
POLYLINE
8
0
62
5
66
1
10
0
20
0
30
0
70
8
0
VERTEX
8
0
62
5
10
-0.21213203
20
0
30
0
70
32
0
VERTEX
8
0
62
5
10
-0.21213203
20
0.1
30
0
70
32
0
SEQEND
8
0
0
POLYLINE
8
0
62
5
66
1
10
0
20
0
30
0
70
8
0
VERTEX
8
0
62
5
10
-0.14142136
20
0
30
0
70
32
0
VERTEX
8
0
62
5
10
-0.14142136
20
0.1
30
0
70
32
0
SEQEND
8
0
0
POLYLINE
8
0
62
5
66
1
10
0
20
0
30
0
70
8
0
VERTEX
8
0
62
5
10
-0.070710678
20
0
30
0
70
32
0
VERTEX
8
0
62
5
10
-0.070710678
20
0.1
30
0
70
32
0
SEQEND
8
0
0
POLYLINE
8
0
62
5
66
1
10
0
20
0
30
0
70
8
0
VERTEX
8
0
62
5
10
0
20
0.1
30
0
70
32
0
VERTEX
8
0
62
5
10
0
20
0.101
30
0
70
32
0
SEQEND
8
0
0
POLYLINE
8
0
62
5
66
1
10
0
20
0
30
0
70
8
0
VERTEX
8
0
62
5
10
0.28284271
20
0.1
30
0
70
32
0
VERTEX
8
0
62
5
10
0.28284271
20
0.101
30
0
70
32
0
SEQEND
8
0
0
POLYLINE
8
0
62
5
66
1
10
0
20
0
30
0
70
8
0
VERTEX
8
0
62
5
10
0.070710678
20
0.1
30
0
70
32
0
VERTEX
8
0
62
5
10
0.070710678
20
0.101
30
0
70
32
0
SEQEND
8
0
0
POLYLINE
8
0
62
5
66
1
10
0
20
0
30
0
70
8
0
VERTEX
8
0
62
5
10
0.14142136
20
0.1
30
0
70
32
0
VERTEX
8
0
62
5
10
0.14142136
20
0.101
30
0
70
32
0
SEQEND
8
0
0
POLYLINE
8
0
62
5
66
1
10
0
20
0
30
0
70
8
0
VERTEX
8
0
62
5
10
0.21213203
20
0.1
30
0
70
32
0
VERTEX
8
0
62
5
10
0.21213203
20
0.101
30
0
70
32
0
SEQEND
8
0
0
POLYLINE
8
0
62
5
66
1
10
0
20
0
30
0
70
8
0
VERTEX
8
0
62
5
10
0.56568542
20
0.1
30
0
70
32
0
VERTEX
8
0
62
5
10
0.56568542
20
0.101
30
0
70
32
0
SEQEND
8
0
0
POLYLINE
8
0
62
5
66
1
10
0
20
0
30
0
70
8
0
VERTEX
8
0
62
5
10
0.35355339
20
0.1
30
0
70
32
0
VERTEX
8
0
62
5
10
0.35355339
20
0.101
30
0
70
32
0
SEQEND
8
0
0
POLYLINE
8
0
62
5
66
1
10
0
20
0
30
0
70
8
0
VERTEX
8
0
62
5
10
0.42426407
20
0.1
30
0
70
32
0
VERTEX
8
0
62
5
10
0.42426407
20
0.101
30
0
70
32
0
SEQEND
8
0
0
POLYLINE
8
0
62
5
66
1
10
0
20
0
30
0
70
8
0
VERTEX
8
0
62
5
10
0.49497475
20
0.1
30
0
70
32
0
VERTEX
8
0
62
5
10
0.49497475
20
0.101
30
0
70
32
0
SEQEND
8
0
0
POLYLINE
8
0
62
5
66
1
10
0
20
0
30
0
70
8
0
VERTEX
8
0
62
5
10
-0.28284271
20
0.1
30
0
70
32
0
VERTEX
8
0
62
5
10
-0.28284271
20
0.101
30
0
70
32
0
SEQEND
8
0
0
POLYLINE
8
0
62
5
66
1
10
0
20
0
30
0
70
8
0
VERTEX
8
0
62
5
10
-0.21213203
20
0.1
30
0
70
32
0
VERTEX
8
0
62
5
10
-0.21213203
20
0.101
30
0
70
32
0
SEQEND
8
0
0
POLYLINE
8
0
62
5
66
1
10
0
20
0
30
0
70
8
0
VERTEX
8
0
62
5
10
-0.14142136
20
0.1
30
0
70
32
0
VERTEX
8
0
62
5
10
-0.14142136
20
0.101
30
0
70
32
0
SEQEND
8
0
0
POLYLINE
8
0
62
5
66
1
10
0
20
0
30
0
70
8
0
VERTEX
8
0
62
5
10
-0.070710678
20
0.1
30
0
70
32
0
VERTEX
8
0
62
5
10
-0.070710678
20
0.101
30
0
70
32
0
SEQEND
8
0
0
POLYLINE
8
0
62
5
66
1
10
0
20
0
30
0
70
8
0
VERTEX
8
0
62
5
10
0
20
0.101
30
0
70
32
0
VERTEX
8
0
62
5
10
0
20
0.12870255
30
0
70
32
0
SEQEND
8
0
0
POLYLINE
8
0
62
5
66
1
10
0
20
0
30
0
70
8
0
VERTEX
8
0
62
5
10
0.28284271
20
0.12870255
30
0
70
32
0
VERTEX
8
0
62
5
10
0.28284271
20
0.101
30
0
70
32
0
SEQEND
8
0
0
POLYLINE
8
0
62
5
66
1
10
0
20
0
30
0
70
8
0
VERTEX
8
0
62
5
10
0
20
0.11485125
30
0
70
32
0
VERTEX
8
0
62
5
10
0.070710678
20
0.11485127
30
0
70
32
0
VERTEX
8
0
62
5
10
0.14142136
20
0.10337651
30
0
70
32
0
VERTEX
8
0
62
5
10
0.21213203
20
0.10337649
30
0
70
32
0
VERTEX
8
0
62
5
10
0.28284271
20
0.11485125
30
0
70
32
0
SEQEND
8
0
0
POLYLINE
8
0
62
5
66
1
10
0
20
0
30
0
70
8
0
SEQEND
8
0
0
POLYLINE
8
0
62
5
66
1
10
0
20
0
30
0
70
8
0
VERTEX
8
0
62
5
10
0
20
0.1148513
30
0
70
32
0
VERTEX
8
0
62
5
10
0.070710678
20
0.11485127
30
0
70
32
0
VERTEX
8
0
62
5
10
0.14142136
20
0.12632603
30
0
70
32
0
VERTEX
8
0
62
5
10
0.21213203
20
0.12632606
30
0
70
32
0
VERTEX
8
0
62
5
10
0.28284271
20
0.1148513
30
0
70
32
0
SEQEND
8
0
0
POLYLINE
8
0
62
30
66
1
10
0
20
0
30
0
70
8
0
VERTEX
8
0
62
30
10
0
20
0.11485127
30
0
70
32
0
VERTEX
8
0
62
30
10
0.28284271
20
0.11485127
30
0
70
32
0
SEQEND
8
0
0
POLYLINE
8
0
62
30
66
1
10
0
20
0
30
0
70
8
0
VERTEX
8
0
62
30
10
0.070710678
20
0.11485127
30
0
70
32
0
VERTEX
8
0
62
30
10
0.070710678
20
0.11485127
30
0
70
32
0
SEQEND
8
0
0
POLYLINE
8
0
62
30
66
1
10
0
20
0
30
0
70
8
0
VERTEX
8
0
62
30
10
0.14142136
20
0.10337651
30
0
70
32
0
VERTEX
8
0
62
30
10
0.14142136
20
0.11485127
30
0
70
32
0
SEQEND
8
0
0
POLYLINE
8
0
62
30
66
1
10
0
20
0
30
0
70
8
0
VERTEX
8
0
62
30
10
0.21213203
20
0.10337649
30
0
70
32
0
VERTEX
8
0
62
30
10
0.21213203
20
0.11485127
30
0
70
32
0
SEQEND
8
0
0
POLYLINE
8
0
62
5
66
1
10
0
20
0
30
0
70
8
0
VERTEX
8
0
62
5
10
0.070710678
20
0.101
30
0
70
32
0
VERTEX
8
0
62
5
10
0.070710678
20
0.11485127
30
0
70
32
0
SEQEND
8
0
0
POLYLINE
8
0
62
5
66
1
10
0
20
0
30
0
70
8
0
VERTEX
8
0
62
5
10
0.14142136
20
0.101
30
0
70
32
0
VERTEX
8
0
62
5
10
0.14142136
20
0.10337651
30
0
70
32
0
SEQEND
8
0
0
POLYLINE
8
0
62
5
66
1
10
0
20
0
30
0
70
8
0
VERTEX
8
0
62
5
10
0.21213203
20
0.101
30
0
70
32
0
VERTEX
8
0
62
5
10
0.21213203
20
0.10337649
30
0
70
32
0
SEQEND
8
0
0
POLYLINE
8
0
62
5
66
1
10
0
20
0
30
0
70
8
0
VERTEX
8
0
62
5
10
0.070710678
20
0.11485127
30
0
70
32
0
VERTEX
8
0
62
5
10
0.070710678
20
0.12870255
30
0
70
32
0
SEQEND
8
0
0
POLYLINE
8
0
62
5
66
1
10
0
20
0
30
0
70
8
0
VERTEX
8
0
62
5
10
0.14142136
20
0.11485127
30
0
70
32
0
VERTEX
8
0
62
5
10
0.14142136
20
0.12870255
30
0
70
32
0
SEQEND
8
0
0
POLYLINE
8
0
62
5
66
1
10
0
20
0
30
0
70
8
0
VERTEX
8
0
62
5
10
0.21213203
20
0.11485127
30
0
70
32
0
VERTEX
8
0
62
5
10
0.21213203
20
0.12870255
30
0
70
32
0
SEQEND
8
0
0
POLYLINE
8
0
62
30
66
1
10
0
20
0
30
0
70
8
0
VERTEX
8
0
62
30
10
0
20
0.11485125
30
0
70
32
0
VERTEX
8
0
62
30
10
2.8629697e-08
20
0.11485127
30
0
70
32
0
VERTEX
8
0
62
30
10
0
20
0.1148513
30
0
70
32
0
SEQEND
8
0
0
POLYLINE
8
0
62
30
66
1
10
0
20
0
30
0
70
8
0
VERTEX
8
0
62
30
10
0.070710678
20
0.11485127
30
0
70
32
0
VERTEX
8
0
62
30
10
0.070710678
20
0.11485127
30
0
70
32
0
VERTEX
8
0
62
30
10
0.070710678
20
0.11485127
30
0
70
32
0
SEQEND
8
0
0
POLYLINE
8
0
62
30
66
1
10
0
20
0
30
0
70
8
0
VERTEX
8
0
62
30
10
0.14142136
20
0.10337651
30
0
70
32
0
VERTEX
8
0
62
30
10
0.15118413
20
0.11485127
30
0
70
32
0
VERTEX
8
0
62
30
10
0.14142136
20
0.12632603
30
0
70
32
0
SEQEND
8
0
0
POLYLINE
8
0
62
30
66
1
10
0
20
0
30
0
70
8
0
VERTEX
8
0
62
30
10
0.21213203
20
0.10337649
30
0
70
32
0
VERTEX
8
0
62
30
10
0.22189482
20
0.11485127
30
0
70
32
0
VERTEX
8
0
62
30
10
0.21213203
20
0.12632606
30
0
70
32
0
SEQEND
8
0
0
POLYLINE
8
0
62
5
66
1
10
0
20
0
30
0
70
8
0
VERTEX
8
0
62
5
10
0.56568542
20
0.12870255
30
0
70
32
0
VERTEX
8
0
62
5
10
0.56568542
20
0.101
30
0
70
32
0
SEQEND
8
0
0
POLYLINE
8
0
62
5
66
1
10
0
20
0
30
0
70
8
0
VERTEX
8
0
62
5
10
0.28284271
20
0.11485125
30
0
70
32
0
VERTEX
8
0
62
5
10
0.35355339
20
0.11485127
30
0
70
32
0
VERTEX
8
0
62
5
10
0.42426407
20
0.10337651
30
0
70
32
0
VERTEX
8
0
62
5
10
0.49497475
20
0.10337649
30
0
70
32
0
VERTEX
8
0
62
5
10
0.56568542
20
0.11485125
30
0
70
32
0
SEQEND
8
0
0
POLYLINE
8
0
62
5
66
1
10
0
20
0
30
0
70
8
0
SEQEND
8
0
0
POLYLINE
8
0
62
5
66
1
10
0
20
0
30
0
70
8
0
VERTEX
8
0
62
5
10
0.28284271
20
0.1148513
30
0
70
32
0
VERTEX
8
0
62
5
10
0.35355339
20
0.11485127
30
0
70
32
0
VERTEX
8
0
62
5
10
0.42426407
20
0.12632603
30
0
70
32
0
VERTEX
8
0
62
5
10
0.49497475
20
0.12632606
30
0
70
32
0
VERTEX
8
0
62
5
10
0.56568542
20
0.1148513
30
0
70
32
0
SEQEND
8
0
0
POLYLINE
8
0
62
30
66
1
10
0
20
0
30
0
70
8
0
VERTEX
8
0
62
30
10
0.28284271
20
0.11485127
30
0
70
32
0
VERTEX
8
0
62
30
10
0.56568542
20
0.11485127
30
0
70
32
0
SEQEND
8
0
0
POLYLINE
8
0
62
30
66
1
10
0
20
0
30
0
70
8
0
VERTEX
8
0
62
30
10
0.35355339
20
0.11485127
30
0
70
32
0
VERTEX
8
0
62
30
10
0.35355339
20
0.11485127
30
0
70
32
0
SEQEND
8
0
0
POLYLINE
8
0
62
30
66
1
10
0
20
0
30
0
70
8
0
VERTEX
8
0
62
30
10
0.42426407
20
0.10337651
30
0
70
32
0
VERTEX
8
0
62
30
10
0.42426407
20
0.11485127
30
0
70
32
0
SEQEND
8
0
0
POLYLINE
8
0
62
30
66
1
10
0
20
0
30
0
70
8
0
VERTEX
8
0
62
30
10
0.49497475
20
0.10337649
30
0
70
32
0
VERTEX
8
0
62
30
10
0.49497475
20
0.11485127
30
0
70
32
0
SEQEND
8
0
0
POLYLINE
8
0
62
5
66
1
10
0
20
0
30
0
70
8
0
VERTEX
8
0
62
5
10
0.35355339
20
0.101
30
0
70
32
0
VERTEX
8
0
62
5
10
0.35355339
20
0.11485127
30
0
70
32
0
SEQEND
8
0
0
POLYLINE
8
0
62
5
66
1
10
0
20
0
30
0
70
8
0
VERTEX
8
0
62
5
10
0.42426407
20
0.101
30
0
70
32
0
VERTEX
8
0
62
5
10
0.42426407
20
0.10337651
30
0
70
32
0
SEQEND
8
0
0
POLYLINE
8
0
62
5
66
1
10
0
20
0
30
0
70
8
0
VERTEX
8
0
62
5
10
0.49497475
20
0.101
30
0
70
32
0
VERTEX
8
0
62
5
10
0.49497475
20
0.10337649
30
0
70
32
0
SEQEND
8
0
0
POLYLINE
8
0
62
5
66
1
10
0
20
0
30
0
70
8
0
VERTEX
8
0
62
5
10
0.35355339
20
0.11485127
30
0
70
32
0
VERTEX
8
0
62
5
10
0.35355339
20
0.12870255
30
0
70
32
0
SEQEND
8
0
0
POLYLINE
8
0
62
5
66
1
10
0
20
0
30
0
70
8
0
VERTEX
8
0
62
5
10
0.42426407
20
0.11485127
30
0
70
32
0
VERTEX
8
0
62
5
10
0.42426407
20
0.12870255
30
0
70
32
0
SEQEND
8
0
0
POLYLINE
8
0
62
5
66
1
10
0
20
0
30
0
70
8
0
VERTEX
8
0
62
5
10
0.49497475
20
0.11485127
30
0
70
32
0
VERTEX
8
0
62
5
10
0.49497475
20
0.12870255
30
0
70
32
0
SEQEND
8
0
0
POLYLINE
8
0
62
30
66
1
10
0
20
0
30
0
70
8
0
VERTEX
8
0
62
30
10
0.28284271
20
0.11485125
30
0
70
32
0
VERTEX
8
0
62
30
10
0.28284274
20
0.11485127
30
0
70
32
0
VERTEX
8
0
62
30
10
0.28284271
20
0.1148513
30
0
70
32
0
SEQEND
8
0
0
POLYLINE
8
0
62
30
66
1
10
0
20
0
30
0
70
8
0
VERTEX
8
0
62
30
10
0.35355339
20
0.11485127
30
0
70
32
0
VERTEX
8
0
62
30
10
0.35355339
20
0.11485127
30
0
70
32
0
VERTEX
8
0
62
30
10
0.35355339
20
0.11485127
30
0
70
32
0
SEQEND
8
0
0
POLYLINE
8
0
62
30
66
1
10
0
20
0
30
0
70
8
0
VERTEX
8
0
62
30
10
0.42426407
20
0.10337651
30
0
70
32
0
VERTEX
8
0
62
30
10
0.43402684
20
0.11485127
30
0
70
32
0
VERTEX
8
0
62
30
10
0.42426407
20
0.12632603
30
0
70
32
0
SEQEND
8
0
0
POLYLINE
8
0
62
30
66
1
10
0
20
0
30
0
70
8
0
VERTEX
8
0
62
30
10
0.49497475
20
0.10337649
30
0
70
32
0
VERTEX
8
0
62
30
10
0.50473753
20
0.11485127
30
0
70
32
0
VERTEX
8
0
62
30
10
0.49497475
20
0.12632606
30
0
70
32
0
SEQEND
8
0
0
POLYLINE
8
0
62
5
66
1
10
0
20
0
30
0
70
8
0
VERTEX
8
0
62
5
10
-0.28284271
20
0.101
30
0
70
32
0
VERTEX
8
0
62
5
10
-0.28284271
20
0.12870255
30
0
70
32
0
SEQEND
8
0
0
POLYLINE
8
0
62
5
66
1
10
0
20
0
30
0
70
8
0
VERTEX
8
0
62
5
10
-0.28284271
20
0.11485125
30
0
70
32
0
VERTEX
8
0
62
5
10
-0.21213203
20
0.11485127
30
0
70
32
0
VERTEX
8
0
62
5
10
-0.14142136
20
0.10337651
30
0
70
32
0
VERTEX
8
0
62
5
10
-0.070710678
20
0.10337649
30
0
70
32
0
VERTEX
8
0
62
5
10
0
20
0.11485125
30
0
70
32
0
SEQEND
8
0
0
POLYLINE
8
0
62
5
66
1
10
0
20
0
30
0
70
8
0
SEQEND
8
0
0
POLYLINE
8
0
62
5
66
1
10
0
20
0
30
0
70
8
0
VERTEX
8
0
62
5
10
-0.28284271
20
0.1148513
30
0
70
32
0
VERTEX
8
0
62
5
10
-0.21213203
20
0.11485127
30
0
70
32
0
VERTEX
8
0
62
5
10
-0.14142136
20
0.12632603
30
0
70
32
0
VERTEX
8
0
62
5
10
-0.070710678
20
0.12632606
30
0
70
32
0
VERTEX
8
0
62
5
10
0
20
0.1148513
30
0
70
32
0
SEQEND
8
0
0
POLYLINE
8
0
62
30
66
1
10
0
20
0
30
0
70
8
0
VERTEX
8
0
62
30
10
-0.28284271
20
0.11485127
30
0
70
32
0
VERTEX
8
0
62
30
10
0
20
0.11485127
30
0
70
32
0
SEQEND
8
0
0
POLYLINE
8
0
62
30
66
1
10
0
20
0
30
0
70
8
0
VERTEX
8
0
62
30
10
-0.21213203
20
0.11485127
30
0
70
32
0
VERTEX
8
0
62
30
10
-0.21213203
20
0.11485127
30
0
70
32
0
SEQEND
8
0
0
POLYLINE
8
0
62
30
66
1
10
0
20
0
30
0
70
8
0
VERTEX
8
0
62
30
10
-0.14142136
20
0.10337651
30
0
70
32
0
VERTEX
8
0
62
30
10
-0.14142136
20
0.11485127
30
0
70
32
0
SEQEND
8
0
0
POLYLINE
8
0
62
30
66
1
10
0
20
0
30
0
70
8
0
VERTEX
8
0
62
30
10
-0.070710678
20
0.10337649
30
0
70
32
0
VERTEX
8
0
62
30
10
-0.070710678
20
0.11485127
30
0
70
32
0
SEQEND
8
0
0
POLYLINE
8
0
62
5
66
1
10
0
20
0
30
0
70
8
0
VERTEX
8
0
62
5
10
-0.21213203
20
0.101
30
0
70
32
0
VERTEX
8
0
62
5
10
-0.21213203
20
0.11485127
30
0
70
32
0
SEQEND
8
0
0
POLYLINE
8
0
62
5
66
1
10
0
20
0
30
0
70
8
0
VERTEX
8
0
62
5
10
-0.14142136
20
0.101
30
0
70
32
0
VERTEX
8
0
62
5
10
-0.14142136
20
0.10337651
30
0
70
32
0
SEQEND
8
0
0
POLYLINE
8
0
62
5
66
1
10
0
20
0
30
0
70
8
0
VERTEX
8
0
62
5
10
-0.070710678
20
0.101
30
0
70
32
0
VERTEX
8
0
62
5
10
-0.070710678
20
0.10337649
30
0
70
32
0
SEQEND
8
0
0
POLYLINE
8
0
62
5
66
1
10
0
20
0
30
0
70
8
0
VERTEX
8
0
62
5
10
-0.21213203
20
0.11485127
30
0
70
32
0
VERTEX
8
0
62
5
10
-0.21213203
20
0.12870255
30
0
70
32
0
SEQEND
8
0
0
POLYLINE
8
0
62
5
66
1
10
0
20
0
30
0
70
8
0
VERTEX
8
0
62
5
10
-0.14142136
20
0.11485127
30
0
70
32
0
VERTEX
8
0
62
5
10
-0.14142136
20
0.12870255
30
0
70
32
0
SEQEND
8
0
0
POLYLINE
8
0
62
5
66
1
10
0
20
0
30
0
70
8
0
VERTEX
8
0
62
5
10
-0.070710678
20
0.11485127
30
0
70
32
0
VERTEX
8
0
62
5
10
-0.070710678
20
0.12870255
30
0
70
32
0
SEQEND
8
0
0
POLYLINE
8
0
62
30
66
1
10
0
20
0
30
0
70
8
0
VERTEX
8
0
62
30
10
-0.28284271
20
0.11485125
30
0
70
32
0
VERTEX
8
0
62
30
10
-0.28284268
20
0.11485127
30
0
70
32
0
VERTEX
8
0
62
30
10
-0.28284271
20
0.1148513
30
0
70
32
0
SEQEND
8
0
0
POLYLINE
8
0
62
30
66
1
10
0
20
0
30
0
70
8
0
VERTEX
8
0
62
30
10
-0.21213203
20
0.11485127
30
0
70
32
0
VERTEX
8
0
62
30
10
-0.21213203
20
0.11485127
30
0
70
32
0
VERTEX
8
0
62
30
10
-0.21213203
20
0.11485127
30
0
70
32
0
SEQEND
8
0
0
POLYLINE
8
0
62
30
66
1
10
0
20
0
30
0
70
8
0
VERTEX
8
0
62
30
10
-0.14142136
20
0.10337651
30
0
70
32
0
VERTEX
8
0
62
30
10
-0.13165858
20
0.11485127
30
0
70
32
0
VERTEX
8
0
62
30
10
-0.14142136
20
0.12632603
30
0
70
32
0
SEQEND
8
0
0
POLYLINE
8
0
62
30
66
1
10
0
20
0
30
0
70
8
0
VERTEX
8
0
62
30
10
-0.070710678
20
0.10337649
30
0
70
32
0
VERTEX
8
0
62
30
10
-0.06094789
20
0.11485127
30
0
70
32
0
VERTEX
8
0
62
30
10
-0.070710678
20
0.12632606
30
0
70
32
0
SEQEND
8
0
0
POLYLINE
8
0
62
5
66
1
10
0
20
0
30
0
70
8
0
VERTEX
8
0
62
5
10
0
20
0.12870255
30
0
70
32
0
VERTEX
8
0
62
5
10
0
20
0.16032535
30
0
70
32
0
SEQEND
8
0
0
POLYLINE
8
0
62
5
66
1
10
0
20
0
30
0
70
8
0
VERTEX
8
0
62
5
10
0.070710678
20
0.12870255
30
0
70
32
0
VERTEX
8
0
62
5
10
0.070710678
20
0.16032535
30
0
70
32
0
SEQEND
8
0
0
POLYLINE
8
0
62
5
66
1
10
0
20
0
30
0
70
8
0
VERTEX
8
0
62
5
10
0.14142136
20
0.12870255
30
0
70
32
0
VERTEX
8
0
62
5
10
0.14142136
20
0.16032535
30
0
70
32
0
SEQEND
8
0
0
POLYLINE
8
0
62
5
66
1
10
0
20
0
30
0
70
8
0
VERTEX
8
0
62
5
10
0.21213203
20
0.12870255
30
0
70
32
0
VERTEX
8
0
62
5
10
0.21213203
20
0.16032535
30
0
70
32
0
SEQEND
8
0
0
POLYLINE
8
0
62
5
66
1
10
0
20
0
30
0
70
8
0
VERTEX
8
0
62
5
10
0.28284271
20
0.12870255
30
0
70
32
0
VERTEX
8
0
62
5
10
0.28284271
20
0.16032535
30
0
70
32
0
SEQEND
8
0
0
POLYLINE
8
0
62
5
66
1
10
0
20
0
30
0
70
8
0
VERTEX
8
0
62
5
10
0.070710678
20
0.12870255
30
0
70
32
0
VERTEX
8
0
62
5
10
0.070710678
20
0.12870255
30
0
70
32
0
SEQEND
8
0
0
POLYLINE
8
0
62
5
66
1
10
0
20
0
30
0
70
8
0
VERTEX
8
0
62
5
10
0.14142136
20
0.12870255
30
0
70
32
0
VERTEX
8
0
62
5
10
0.14142136
20
0.12870255
30
0
70
32
0
SEQEND
8
0
0
POLYLINE
8
0
62
5
66
1
10
0
20
0
30
0
70
8
0
VERTEX
8
0
62
5
10
0.21213203
20
0.12870255
30
0
70
32
0
VERTEX
8
0
62
5
10
0.21213203
20
0.12870255
30
0
70
32
0
SEQEND
8
0
0
POLYLINE
8
0
62
5
66
1
10
0
20
0
30
0
70
8
0
VERTEX
8
0
62
5
10
2.0957363e-08
20
0.16032535
30
0
70
32
0
VERTEX
8
0
62
5
10
2.0957363e-08
20
0.16032535
30
0
70
32
0
SEQEND
8
0
0
POLYLINE
8
0
62
5
66
1
10
0
20
0
30
0
70
8
0
VERTEX
8
0
62
5
10
0.070710699
20
0.16032535
30
0
70
32
0
VERTEX
8
0
62
5
10
0.070710699
20
0.16032535
30
0
70
32
0
SEQEND
8
0
0
POLYLINE
8
0
62
5
66
1
10
0
20
0
30
0
70
8
0
VERTEX
8
0
62
5
10
0.14142138
20
0.16032535
30
0
70
32
0
VERTEX
8
0
62
5
10
0.14142138
20
0.16032535
30
0
70
32
0
SEQEND
8
0
0
POLYLINE
8
0
62
5
66
1
10
0
20
0
30
0
70
8
0
VERTEX
8
0
62
5
10
0.21213206
20
0.16032535
30
0
70
32
0
VERTEX
8
0
62
5
10
0.21213206
20
0.16032535
30
0
70
32
0
SEQEND
8
0
0
POLYLINE
8
0
62
5
66
1
10
0
20
0
30
0
70
8
0
VERTEX
8
0
62
5
10
0.35355339
20
0.12870255
30
0
70
32
0
VERTEX
8
0
62
5
10
0.35355339
20
0.16032535
30
0
70
32
0
SEQEND
8
0
0
POLYLINE
8
0
62
5
66
1
10
0
20
0
30
0
70
8
0
VERTEX
8
0
62
5
10
0.42426407
20
0.12870255
30
0
70
32
0
VERTEX
8
0
62
5
10
0.42426407
20
0.16032535
30
0
70
32
0
SEQEND
8
0
0
POLYLINE
8
0
62
5
66
1
10
0
20
0
30
0
70
8
0
VERTEX
8
0
62
5
10
0.49497475
20
0.12870255
30
0
70
32
0
VERTEX
8
0
62
5
10
0.49497475
20
0.16032535
30
0
70
32
0
SEQEND
8
0
0
POLYLINE
8
0
62
5
66
1
10
0
20
0
30
0
70
8
0
VERTEX
8
0
62
5
10
0.56568542
20
0.12870255
30
0
70
32
0
VERTEX
8
0
62
5
10
0.56568542
20
0.16032535
30
0
70
32
0
SEQEND
8
0
0
POLYLINE
8
0
62
5
66
1
10
0
20
0
30
0
70
8
0
VERTEX
8
0
62
5
10
0.35355339
20
0.12870255
30
0
70
32
0
VERTEX
8
0
62
5
10
0.35355339
20
0.12870255
30
0
70
32
0
SEQEND
8
0
0
POLYLINE
8
0
62
5
66
1
10
0
20
0
30
0
70
8
0
VERTEX
8
0
62
5
10
0.42426407
20
0.12870255
30
0
70
32
0
VERTEX
8
0
62
5
10
0.42426407
20
0.12870255
30
0
70
32
0
SEQEND
8
0
0
POLYLINE
8
0
62
5
66
1
10
0
20
0
30
0
70
8
0
VERTEX
8
0
62
5
10
0.49497475
20
0.12870255
30
0
70
32
0
VERTEX
8
0
62
5
10
0.49497475
20
0.12870255
30
0
70
32
0
SEQEND
8
0
0
POLYLINE
8
0
62
5
66
1
10
0
20
0
30
0
70
8
0
VERTEX
8
0
62
5
10
0.28284273
20
0.16032535
30
0
70
32
0
VERTEX
8
0
62
5
10
0.28284273
20
0.16032535
30
0
70
32
0
SEQEND
8
0
0
POLYLINE
8
0
62
5
66
1
10
0
20
0
30
0
70
8
0
VERTEX
8
0
62
5
10
0.35355341
20
0.16032535
30
0
70
32
0
VERTEX
8
0
62
5
10
0.35355341
20
0.16032535
30
0
70
32
0
SEQEND
8
0
0
POLYLINE
8
0
62
5
66
1
10
0
20
0
30
0
70
8
0
VERTEX
8
0
62
5
10
0.42426409
20
0.16032535
30
0
70
32
0
VERTEX
8
0
62
5
10
0.42426409
20
0.16032535
30
0
70
32
0
SEQEND
8
0
0
POLYLINE
8
0
62
5
66
1
10
0
20
0
30
0
70
8
0
VERTEX
8
0
62
5
10
0.49497477
20
0.16032535
30
0
70
32
0
VERTEX
8
0
62
5
10
0.49497477
20
0.16032535
30
0
70
32
0
SEQEND
8
0
0
POLYLINE
8
0
62
5
66
1
10
0
20
0
30
0
70
8
0
VERTEX
8
0
62
5
10
-0.21213203
20
0.12870255
30
0
70
32
0
VERTEX
8
0
62
5
10
-0.21213203
20
0.16032535
30
0
70
32
0
SEQEND
8
0
0
POLYLINE
8
0
62
5
66
1
10
0
20
0
30
0
70
8
0
VERTEX
8
0
62
5
10
-0.14142136
20
0.12870255
30
0
70
32
0
VERTEX
8
0
62
5
10
-0.14142136
20
0.16032535
30
0
70
32
0
SEQEND
8
0
0
POLYLINE
8
0
62
5
66
1
10
0
20
0
30
0
70
8
0
VERTEX
8
0
62
5
10
-0.070710678
20
0.12870255
30
0
70
32
0
VERTEX
8
0
62
5
10
-0.070710678
20
0.16032535
30
0
70
32
0
SEQEND
8
0
0
POLYLINE
8
0
62
5
66
1
10
0
20
0
30
0
70
8
0
VERTEX
8
0
62
5
10
0
20
0.12870255
30
0
70
32
0
VERTEX
8
0
62
5
10
0
20
0.16032535
30
0
70
32
0
SEQEND
8
0
0
POLYLINE
8
0
62
5
66
1
10
0
20
0
30
0
70
8
0
VERTEX
8
0
62
5
10
-0.21213203
20
0.12870255
30
0
70
32
0
VERTEX
8
0
62
5
10
-0.21213203
20
0.12870255
30
0
70
32
0
SEQEND
8
0
0
POLYLINE
8
0
62
5
66
1
10
0
20
0
30
0
70
8
0
VERTEX
8
0
62
5
10
-0.14142136
20
0.12870255
30
0
70
32
0
VERTEX
8
0
62
5
10
-0.14142136
20
0.12870255
30
0
70
32
0
SEQEND
8
0
0
POLYLINE
8
0
62
5
66
1
10
0
20
0
30
0
70
8
0
VERTEX
8
0
62
5
10
-0.070710678
20
0.12870255
30
0
70
32
0
VERTEX
8
0
62
5
10
-0.070710678
20
0.12870255
30
0
70
32
0
SEQEND
8
0
0
POLYLINE
8
0
62
5
66
1
10
0
20
0
30
0
70
8
0
VERTEX
8
0
62
5
10
-0.28284269
20
0.16032535
30
0
70
32
0
VERTEX
8
0
62
5
10
-0.28284269
20
0.16032535
30
0
70
32
0
SEQEND
8
0
0
POLYLINE
8
0
62
5
66
1
10
0
20
0
30
0
70
8
0
VERTEX
8
0
62
5
10
-0.21213201
20
0.16032535
30
0
70
32
0
VERTEX
8
0
62
5
10
-0.21213201
20
0.16032535
30
0
70
32
0
SEQEND
8
0
0
POLYLINE
8
0
62
5
66
1
10
0
20
0
30
0
70
8
0
VERTEX
8
0
62
5
10
-0.14142134
20
0.16032535
30
0
70
32
0
VERTEX
8
0
62
5
10
-0.14142134
20
0.16032535
30
0
70
32
0
SEQEND
8
0
0
POLYLINE
8
0
62
5
66
1
10
0
20
0
30
0
70
8
0
VERTEX
8
0
62
5
10
-0.070710657
20
0.16032535
30
0
70
32
0
VERTEX
8
0
62
5
10
-0.070710657
20
0.16032535
30
0
70
32
0
SEQEND
8
0
0
POLYLINE
8
0
62
5
66
1
10
0
20
0
30
0
70
8
0
VERTEX
8
0
62
5
10
2.0957363e-08
20
0.16032535
30
0
70
32
0
VERTEX
8
0
62
5
10
2.0957363e-08
20
0.28681656
30
0
70
32
0
SEQEND
8
0
0
POLYLINE
8
0
62
5
66
1
10
0
20
0
30
0
70
8
0
VERTEX
8
0
62
5
10
0.28284273
20
0.16032535
30
0
70
32
0
VERTEX
8
0
62
5
10
0.28284273
20
0.28681656
30
0
70
32
0
SEQEND
8
0
0
POLYLINE
8
0
62
5
66
1
10
0
20
0
30
0
70
8
0
VERTEX
8
0
62
5
10
0.070710699
20
0.16032535
30
0
70
32
0
VERTEX
8
0
62
5
10
0.070710699
20
0.28681656
30
0
70
32
0
SEQEND
8
0
0
POLYLINE
8
0
62
5
66
1
10
0
20
0
30
0
70
8
0
VERTEX
8
0
62
5
10
0.14142138
20
0.16032535
30
0
70
32
0
VERTEX
8
0
62
5
10
0.14142138
20
0.28681656
30
0
70
32
0
SEQEND
8
0
0
POLYLINE
8
0
62
5
66
1
10
0
20
0
30
0
70
8
0
VERTEX
8
0
62
5
10
0.21213206
20
0.16032535
30
0
70
32
0
VERTEX
8
0
62
5
10
0.21213206
20
0.28681656
30
0
70
32
0
SEQEND
8
0
0
POLYLINE
8
0
62
5
66
1
10
0
20
0
30
0
70
8
0
VERTEX
8
0
62
5
10
0.56568545
20
0.16032535
30
0
70
32
0
VERTEX
8
0
62
5
10
0.56568545
20
0.28681656
30
0
70
32
0
SEQEND
8
0
0
POLYLINE
8
0
62
5
66
1
10
0
20
0
30
0
70
8
0
VERTEX
8
0
62
5
10
0.35355341
20
0.16032535
30
0
70
32
0
VERTEX
8
0
62
5
10
0.35355341
20
0.28681656
30
0
70
32
0
SEQEND
8
0
0
POLYLINE
8
0
62
5
66
1
10
0
20
0
30
0
70
8
0
VERTEX
8
0
62
5
10
0.42426409
20
0.16032535
30
0
70
32
0
VERTEX
8
0
62
5
10
0.42426409
20
0.28681656
30
0
70
32
0
SEQEND
8
0
0
POLYLINE
8
0
62
5
66
1
10
0
20
0
30
0
70
8
0
VERTEX
8
0
62
5
10
0.49497477
20
0.16032535
30
0
70
32
0
VERTEX
8
0
62
5
10
0.49497477
20
0.28681656
30
0
70
32
0
SEQEND
8
0
0
POLYLINE
8
0
62
5
66
1
10
0
20
0
30
0
70
8
0
VERTEX
8
0
62
5
10
-0.28284269
20
0.16032535
30
0
70
32
0
VERTEX
8
0
62
5
10
-0.28284269
20
0.28681656
30
0
70
32
0
SEQEND
8
0
0
POLYLINE
8
0
62
5
66
1
10
0
20
0
30
0
70
8
0
VERTEX
8
0
62
5
10
-0.21213201
20
0.16032535
30
0
70
32
0
VERTEX
8
0
62
5
10
-0.21213201
20
0.28681656
30
0
70
32
0
SEQEND
8
0
0
POLYLINE
8
0
62
5
66
1
10
0
20
0
30
0
70
8
0
VERTEX
8
0
62
5
10
-0.14142134
20
0.16032535
30
0
70
32
0
VERTEX
8
0
62
5
10
-0.14142134
20
0.28681656
30
0
70
32
0
SEQEND
8
0
0
POLYLINE
8
0
62
5
66
1
10
0
20
0
30
0
70
8
0
VERTEX
8
0
62
5
10
-0.070710657
20
0.16032535
30
0
70
32
0
VERTEX
8
0
62
5
10
-0.070710657
20
0.28681656
30
0
70
32
0
SEQEND
8
0
0
POLYLINE
8
0
62
5
66
1
10
0
20
0
30
0
70
8
0
VERTEX
8
0
62
5
10
2.0957363e-08
20
0.28681656
30
0
70
32
0
VERTEX
8
0
62
5
10
2.0957363e-08
20
0.4098579
30
0
70
32
0
SEQEND
8
0
0
POLYLINE
8
0
62
5
66
1
10
0
20
0
30
0
70
8
0
VERTEX
8
0
62
5
10
0.28284273
20
0.4098579
30
0
70
32
0
VERTEX
8
0
62
5
10
0.28284273
20
0.28681656
30
0
70
32
0
SEQEND
8
0
0
POLYLINE
8
0
62
5
66
1
10
0
20
0
30
0
70
8
0
VERTEX
8
0
62
5
10
2.0957363e-08
20
0.34833723
30
0
70
32
0
VERTEX
8
0
62
5
10
0.070710699
20
0.34833719
30
0
70
32
0
VERTEX
8
0
62
5
10
0.14142138
20
0.29737182
30
0
70
32
0
VERTEX
8
0
62
5
10
0.21213206
20
0.29737185
30
0
70
32
0
VERTEX
8
0
62
5
10
0.28284273
20
0.34833723
30
0
70
32
0
SEQEND
8
0
0
POLYLINE
8
0
62
5
66
1
10
0
20
0
30
0
70
8
0
SEQEND
8
0
0
POLYLINE
8
0
62
5
66
1
10
0
20
0
30
0
70
8
0
VERTEX
8
0
62
5
10
2.0957363e-08
20
0.34833723
30
0
70
32
0
VERTEX
8
0
62
5
10
0.070710699
20
0.34833727
30
0
70
32
0
VERTEX
8
0
62
5
10
0.14142138
20
0.39930264
30
0
70
32
0
VERTEX
8
0
62
5
10
0.21213206
20
0.39930261
30
0
70
32
0
VERTEX
8
0
62
5
10
0.28284273
20
0.34833723
30
0
70
32
0
SEQEND
8
0
0
POLYLINE
8
0
62
30
66
1
10
0
20
0
30
0
70
8
0
VERTEX
8
0
62
30
10
2.0957363e-08
20
0.34833723
30
0
70
32
0
VERTEX
8
0
62
30
10
0.28284273
20
0.34833723
30
0
70
32
0
SEQEND
8
0
0
POLYLINE
8
0
62
30
66
1
10
0
20
0
30
0
70
8
0
VERTEX
8
0
62
30
10
0.070710699
20
0.34833719
30
0
70
32
0
VERTEX
8
0
62
30
10
0.070710699
20
0.34833723
30
0
70
32
0
SEQEND
8
0
0
POLYLINE
8
0
62
30
66
1
10
0
20
0
30
0
70
8
0
VERTEX
8
0
62
30
10
0.14142138
20
0.29737182
30
0
70
32
0
VERTEX
8
0
62
30
10
0.14142138
20
0.34833723
30
0
70
32
0
SEQEND
8
0
0
POLYLINE
8
0
62
30
66
1
10
0
20
0
30
0
70
8
0
VERTEX
8
0
62
30
10
0.21213206
20
0.29737185
30
0
70
32
0
VERTEX
8
0
62
30
10
0.21213206
20
0.34833723
30
0
70
32
0
SEQEND
8
0
0
POLYLINE
8
0
62
5
66
1
10
0
20
0
30
0
70
8
0
VERTEX
8
0
62
5
10
0.070710699
20
0.28681656
30
0
70
32
0
VERTEX
8
0
62
5
10
0.070710699
20
0.34833719
30
0
70
32
0
SEQEND
8
0
0
POLYLINE
8
0
62
5
66
1
10
0
20
0
30
0
70
8
0
VERTEX
8
0
62
5
10
0.14142138
20
0.28681656
30
0
70
32
0
VERTEX
8
0
62
5
10
0.14142138
20
0.29737182
30
0
70
32
0
SEQEND
8
0
0
POLYLINE
8
0
62
5
66
1
10
0
20
0
30
0
70
8
0
VERTEX
8
0
62
5
10
0.21213206
20
0.28681656
30
0
70
32
0
VERTEX
8
0
62
5
10
0.21213206
20
0.29737185
30
0
70
32
0
SEQEND
8
0
0
POLYLINE
8
0
62
5
66
1
10
0
20
0
30
0
70
8
0
VERTEX
8
0
62
5
10
0.070710699
20
0.34833723
30
0
70
32
0
VERTEX
8
0
62
5
10
0.070710699
20
0.4098579
30
0
70
32
0
SEQEND
8
0
0
POLYLINE
8
0
62
5
66
1
10
0
20
0
30
0
70
8
0
VERTEX
8
0
62
5
10
0.14142138
20
0.34833723
30
0
70
32
0
VERTEX
8
0
62
5
10
0.14142138
20
0.4098579
30
0
70
32
0
SEQEND
8
0
0
POLYLINE
8
0
62
5
66
1
10
0
20
0
30
0
70
8
0
VERTEX
8
0
62
5
10
0.21213206
20
0.34833723
30
0
70
32
0
VERTEX
8
0
62
5
10
0.21213206
20
0.4098579
30
0
70
32
0
SEQEND
8
0
0
POLYLINE
8
0
62
30
66
1
10
0
20
0
30
0
70
8
0
VERTEX
8
0
62
30
10
2.0957363e-08
20
0.34833723
30
0
70
32
0
VERTEX
8
0
62
30
10
2.0957363e-08
20
0.34833723
30
0
70
32
0
VERTEX
8
0
62
30
10
2.0957363e-08
20
0.34833723
30
0
70
32
0
SEQEND
8
0
0
POLYLINE
8
0
62
30
66
1
10
0
20
0
30
0
70
8
0
VERTEX
8
0
62
30
10
0.070710699
20
0.34833719
30
0
70
32
0
VERTEX
8
0
62
30
10
0.07071077
20
0.34833723
30
0
70
32
0
VERTEX
8
0
62
30
10
0.070710699
20
0.34833727
30
0
70
32
0
SEQEND
8
0
0
POLYLINE
8
0
62
30
66
1
10
0
20
0
30
0
70
8
0
VERTEX
8
0
62
30
10
0.14142138
20
0.29737182
30
0
70
32
0
VERTEX
8
0
62
30
10
0.1675115
20
0.34833723
30
0
70
32
0
VERTEX
8
0
62
30
10
0.14142138
20
0.39930264
30
0
70
32
0
SEQEND
8
0
0
POLYLINE
8
0
62
30
66
1
10
0
20
0
30
0
70
8
0
VERTEX
8
0
62
30
10
0.21213206
20
0.29737185
30
0
70
32
0
VERTEX
8
0
62
30
10
0.23822217
20
0.34833723
30
0
70
32
0
VERTEX
8
0
62
30
10
0.21213206
20
0.39930261
30
0
70
32
0
SEQEND
8
0
0
POLYLINE
8
0
62
5
66
1
10
0
20
0
30
0
70
8
0
VERTEX
8
0
62
5
10
0.56568545
20
0.4098579
30
0
70
32
0
VERTEX
8
0
62
5
10
0.56568545
20
0.28681656
30
0
70
32
0
SEQEND
8
0
0
POLYLINE
8
0
62
5
66
1
10
0
20
0
30
0
70
8
0
VERTEX
8
0
62
5
10
0.28284273
20
0.34833723
30
0
70
32
0
VERTEX
8
0
62
5
10
0.35355341
20
0.34833719
30
0
70
32
0
VERTEX
8
0
62
5
10
0.42426409
20
0.29737182
30
0
70
32
0
VERTEX
8
0
62
5
10
0.49497477
20
0.29737185
30
0
70
32
0
VERTEX
8
0
62
5
10
0.56568545
20
0.34833723
30
0
70
32
0
SEQEND
8
0
0
POLYLINE
8
0
62
5
66
1
10
0
20
0
30
0
70
8
0
SEQEND
8
0
0
POLYLINE
8
0
62
5
66
1
10
0
20
0
30
0
70
8
0
VERTEX
8
0
62
5
10
0.28284273
20
0.34833723
30
0
70
32
0
VERTEX
8
0
62
5
10
0.35355341
20
0.34833727
30
0
70
32
0
VERTEX
8
0
62
5
10
0.42426409
20
0.39930264
30
0
70
32
0
VERTEX
8
0
62
5
10
0.49497477
20
0.39930261
30
0
70
32
0
VERTEX
8
0
62
5
10
0.56568545
20
0.34833723
30
0
70
32
0
SEQEND
8
0
0
POLYLINE
8
0
62
30
66
1
10
0
20
0
30
0
70
8
0
VERTEX
8
0
62
30
10
0.28284273
20
0.34833723
30
0
70
32
0
VERTEX
8
0
62
30
10
0.56568545
20
0.34833723
30
0
70
32
0
SEQEND
8
0
0
POLYLINE
8
0
62
30
66
1
10
0
20
0
30
0
70
8
0
VERTEX
8
0
62
30
10
0.35355341
20
0.34833719
30
0
70
32
0
VERTEX
8
0
62
30
10
0.35355341
20
0.34833723
30
0
70
32
0
SEQEND
8
0
0
POLYLINE
8
0
62
30
66
1
10
0
20
0
30
0
70
8
0
VERTEX
8
0
62
30
10
0.42426409
20
0.29737182
30
0
70
32
0
VERTEX
8
0
62
30
10
0.42426409
20
0.34833723
30
0
70
32
0
SEQEND
8
0
0
POLYLINE
8
0
62
30
66
1
10
0
20
0
30
0
70
8
0
VERTEX
8
0
62
30
10
0.49497477
20
0.29737185
30
0
70
32
0
VERTEX
8
0
62
30
10
0.49497477
20
0.34833723
30
0
70
32
0
SEQEND
8
0
0
POLYLINE
8
0
62
5
66
1
10
0
20
0
30
0
70
8
0
VERTEX
8
0
62
5
10
0.35355341
20
0.28681656
30
0
70
32
0
VERTEX
8
0
62
5
10
0.35355341
20
0.34833719
30
0
70
32
0
SEQEND
8
0
0
POLYLINE
8
0
62
5
66
1
10
0
20
0
30
0
70
8
0
VERTEX
8
0
62
5
10
0.42426409
20
0.28681656
30
0
70
32
0
VERTEX
8
0
62
5
10
0.42426409
20
0.29737182
30
0
70
32
0
SEQEND
8
0
0
POLYLINE
8
0
62
5
66
1
10
0
20
0
30
0
70
8
0
VERTEX
8
0
62
5
10
0.49497477
20
0.28681656
30
0
70
32
0
VERTEX
8
0
62
5
10
0.49497477
20
0.29737185
30
0
70
32
0
SEQEND
8
0
0
POLYLINE
8
0
62
5
66
1
10
0
20
0
30
0
70
8
0
VERTEX
8
0
62
5
10
0.35355341
20
0.34833723
30
0
70
32
0
VERTEX
8
0
62
5
10
0.35355341
20
0.4098579
30
0
70
32
0
SEQEND
8
0
0
POLYLINE
8
0
62
5
66
1
10
0
20
0
30
0
70
8
0
VERTEX
8
0
62
5
10
0.42426409
20
0.34833723
30
0
70
32
0
VERTEX
8
0
62
5
10
0.42426409
20
0.4098579
30
0
70
32
0
SEQEND
8
0
0
POLYLINE
8
0
62
5
66
1
10
0
20
0
30
0
70
8
0
VERTEX
8
0
62
5
10
0.49497477
20
0.34833723
30
0
70
32
0
VERTEX
8
0
62
5
10
0.49497477
20
0.4098579
30
0
70
32
0
SEQEND
8
0
0
POLYLINE
8
0
62
30
66
1
10
0
20
0
30
0
70
8
0
VERTEX
8
0
62
30
10
0.28284273
20
0.34833723
30
0
70
32
0
VERTEX
8
0
62
30
10
0.28284273
20
0.34833723
30
0
70
32
0
VERTEX
8
0
62
30
10
0.28284273
20
0.34833723
30
0
70
32
0
SEQEND
8
0
0
POLYLINE
8
0
62
30
66
1
10
0
20
0
30
0
70
8
0
VERTEX
8
0
62
30
10
0.35355341
20
0.34833719
30
0
70
32
0
VERTEX
8
0
62
30
10
0.35355348
20
0.34833723
30
0
70
32
0
VERTEX
8
0
62
30
10
0.35355341
20
0.34833727
30
0
70
32
0
SEQEND
8
0
0
POLYLINE
8
0
62
30
66
1
10
0
20
0
30
0
70
8
0
VERTEX
8
0
62
30
10
0.42426409
20
0.29737182
30
0
70
32
0
VERTEX
8
0
62
30
10
0.45035421
20
0.34833723
30
0
70
32
0
VERTEX
8
0
62
30
10
0.42426409
20
0.39930264
30
0
70
32
0
SEQEND
8
0
0
POLYLINE
8
0
62
30
66
1
10
0
20
0
30
0
70
8
0
VERTEX
8
0
62
30
10
0.49497477
20
0.29737185
30
0
70
32
0
VERTEX
8
0
62
30
10
0.52106488
20
0.34833723
30
0
70
32
0
VERTEX
8
0
62
30
10
0.49497477
20
0.39930261
30
0
70
32
0
SEQEND
8
0
0
POLYLINE
8
0
62
5
66
1
10
0
20
0
30
0
70
8
0
VERTEX
8
0
62
5
10
-0.28284269
20
0.28681656
30
0
70
32
0
VERTEX
8
0
62
5
10
-0.28284269
20
0.4098579
30
0
70
32
0
SEQEND
8
0
0
POLYLINE
8
0
62
5
66
1
10
0
20
0
30
0
70
8
0
VERTEX
8
0
62
5
10
-0.28284269
20
0.34833723
30
0
70
32
0
VERTEX
8
0
62
5
10
-0.21213201
20
0.34833719
30
0
70
32
0
VERTEX
8
0
62
5
10
-0.14142134
20
0.29737182
30
0
70
32
0
VERTEX
8
0
62
5
10
-0.070710657
20
0.29737185
30
0
70
32
0
VERTEX
8
0
62
5
10
2.0957363e-08
20
0.34833723
30
0
70
32
0
SEQEND
8
0
0
POLYLINE
8
0
62
5
66
1
10
0
20
0
30
0
70
8
0
SEQEND
8
0
0
POLYLINE
8
0
62
5
66
1
10
0
20
0
30
0
70
8
0
VERTEX
8
0
62
5
10
-0.28284269
20
0.34833723
30
0
70
32
0
VERTEX
8
0
62
5
10
-0.21213201
20
0.34833727
30
0
70
32
0
VERTEX
8
0
62
5
10
-0.14142134
20
0.39930264
30
0
70
32
0
VERTEX
8
0
62
5
10
-0.070710657
20
0.39930261
30
0
70
32
0
VERTEX
8
0
62
5
10
2.0957363e-08
20
0.34833723
30
0
70
32
0
SEQEND
8
0
0
POLYLINE
8
0
62
30
66
1
10
0
20
0
30
0
70
8
0
VERTEX
8
0
62
30
10
-0.28284269
20
0.34833723
30
0
70
32
0
VERTEX
8
0
62
30
10
2.0957363e-08
20
0.34833723
30
0
70
32
0
SEQEND
8
0
0
POLYLINE
8
0
62
30
66
1
10
0
20
0
30
0
70
8
0
VERTEX
8
0
62
30
10
-0.21213201
20
0.34833719
30
0
70
32
0
VERTEX
8
0
62
30
10
-0.21213201
20
0.34833723
30
0
70
32
0
SEQEND
8
0
0
POLYLINE
8
0
62
30
66
1
10
0
20
0
30
0
70
8
0
VERTEX
8
0
62
30
10
-0.14142134
20
0.29737182
30
0
70
32
0
VERTEX
8
0
62
30
10
-0.14142134
20
0.34833723
30
0
70
32
0
SEQEND
8
0
0
POLYLINE
8
0
62
30
66
1
10
0
20
0
30
0
70
8
0
VERTEX
8
0
62
30
10
-0.070710657
20
0.29737185
30
0
70
32
0
VERTEX
8
0
62
30
10
-0.070710657
20
0.34833723
30
0
70
32
0
SEQEND
8
0
0
POLYLINE
8
0
62
5
66
1
10
0
20
0
30
0
70
8
0
VERTEX
8
0
62
5
10
-0.21213201
20
0.28681656
30
0
70
32
0
VERTEX
8
0
62
5
10
-0.21213201
20
0.34833719
30
0
70
32
0
SEQEND
8
0
0
POLYLINE
8
0
62
5
66
1
10
0
20
0
30
0
70
8
0
VERTEX
8
0
62
5
10
-0.14142134
20
0.28681656
30
0
70
32
0
VERTEX
8
0
62
5
10
-0.14142134
20
0.29737182
30
0
70
32
0
SEQEND
8
0
0
POLYLINE
8
0
62
5
66
1
10
0
20
0
30
0
70
8
0
VERTEX
8
0
62
5
10
-0.070710657
20
0.28681656
30
0
70
32
0
VERTEX
8
0
62
5
10
-0.070710657
20
0.29737185
30
0
70
32
0
SEQEND
8
0
0
POLYLINE
8
0
62
5
66
1
10
0
20
0
30
0
70
8
0
VERTEX
8
0
62
5
10
-0.21213201
20
0.34833723
30
0
70
32
0
VERTEX
8
0
62
5
10
-0.21213201
20
0.4098579
30
0
70
32
0
SEQEND
8
0
0
POLYLINE
8
0
62
5
66
1
10
0
20
0
30
0
70
8
0
VERTEX
8
0
62
5
10
-0.14142134
20
0.34833723
30
0
70
32
0
VERTEX
8
0
62
5
10
-0.14142134
20
0.4098579
30
0
70
32
0
SEQEND
8
0
0
POLYLINE
8
0
62
5
66
1
10
0
20
0
30
0
70
8
0
VERTEX
8
0
62
5
10
-0.070710657
20
0.34833723
30
0
70
32
0
VERTEX
8
0
62
5
10
-0.070710657
20
0.4098579
30
0
70
32
0
SEQEND
8
0
0
POLYLINE
8
0
62
30
66
1
10
0
20
0
30
0
70
8
0
VERTEX
8
0
62
30
10
-0.28284269
20
0.34833723
30
0
70
32
0
VERTEX
8
0
62
30
10
-0.28284269
20
0.34833723
30
0
70
32
0
VERTEX
8
0
62
30
10
-0.28284269
20
0.34833723
30
0
70
32
0
SEQEND
8
0
0
POLYLINE
8
0
62
30
66
1
10
0
20
0
30
0
70
8
0
VERTEX
8
0
62
30
10
-0.21213201
20
0.34833719
30
0
70
32
0
VERTEX
8
0
62
30
10
-0.21213194
20
0.34833723
30
0
70
32
0
VERTEX
8
0
62
30
10
-0.21213201
20
0.34833727
30
0
70
32
0
SEQEND
8
0
0
POLYLINE
8
0
62
30
66
1
10
0
20
0
30
0
70
8
0
VERTEX
8
0
62
30
10
-0.14142134
20
0.29737182
30
0
70
32
0
VERTEX
8
0
62
30
10
-0.11533122
20
0.34833723
30
0
70
32
0
VERTEX
8
0
62
30
10
-0.14142134
20
0.39930264
30
0
70
32
0
SEQEND
8
0
0
POLYLINE
8
0
62
30
66
1
10
0
20
0
30
0
70
8
0
VERTEX
8
0
62
30
10
-0.070710657
20
0.29737185
30
0
70
32
0
VERTEX
8
0
62
30
10
-0.044620543
20
0.34833723
30
0
70
32
0
VERTEX
8
0
62
30
10
-0.070710657
20
0.39930261
30
0
70
32
0
SEQEND
8
0
0
POLYLINE
8
0
62
5
66
1
10
0
20
0
30
0
70
8
0
VERTEX
8
0
62
5
10
2.0957363e-08
20
0.4098579
30
0
70
32
0
VERTEX
8
0
62
5
10
2.0957363e-08
20
0.4108579
30
0
70
32
0
SEQEND
8
0
0
POLYLINE
8
0
62
5
66
1
10
0
20
0
30
0
70
8
0
VERTEX
8
0
62
5
10
0.28284273
20
0.4098579
30
0
70
32
0
VERTEX
8
0
62
5
10
0.28284273
20
0.4108579
30
0
70
32
0
SEQEND
8
0
0
POLYLINE
8
0
62
5
66
1
10
0
20
0
30
0
70
8
0
VERTEX
8
0
62
5
10
0.070710699
20
0.4098579
30
0
70
32
0
VERTEX
8
0
62
5
10
0.070710699
20
0.4108579
30
0
70
32
0
SEQEND
8
0
0
POLYLINE
8
0
62
5
66
1
10
0
20
0
30
0
70
8
0
VERTEX
8
0
62
5
10
0.14142138
20
0.4098579
30
0
70
32
0
VERTEX
8
0
62
5
10
0.14142138
20
0.4108579
30
0
70
32
0
SEQEND
8
0
0
POLYLINE
8
0
62
5
66
1
10
0
20
0
30
0
70
8
0
VERTEX
8
0
62
5
10
0.21213206
20
0.4098579
30
0
70
32
0
VERTEX
8
0
62
5
10
0.21213206
20
0.4108579
30
0
70
32
0
SEQEND
8
0
0
POLYLINE
8
0
62
5
66
1
10
0
20
0
30
0
70
8
0
VERTEX
8
0
62
5
10
0.56568545
20
0.4098579
30
0
70
32
0
VERTEX
8
0
62
5
10
0.56568545
20
0.4108579
30
0
70
32
0
SEQEND
8
0
0
POLYLINE
8
0
62
5
66
1
10
0
20
0
30
0
70
8
0
VERTEX
8
0
62
5
10
0.35355341
20
0.4098579
30
0
70
32
0
VERTEX
8
0
62
5
10
0.35355341
20
0.4108579
30
0
70
32
0
SEQEND
8
0
0
POLYLINE
8
0
62
5
66
1
10
0
20
0
30
0
70
8
0
VERTEX
8
0
62
5
10
0.42426409
20
0.4098579
30
0
70
32
0
VERTEX
8
0
62
5
10
0.42426409
20
0.4108579
30
0
70
32
0
SEQEND
8
0
0
POLYLINE
8
0
62
5
66
1
10
0
20
0
30
0
70
8
0
VERTEX
8
0
62
5
10
0.49497477
20
0.4098579
30
0
70
32
0
VERTEX
8
0
62
5
10
0.49497477
20
0.4108579
30
0
70
32
0
SEQEND
8
0
0
POLYLINE
8
0
62
5
66
1
10
0
20
0
30
0
70
8
0
VERTEX
8
0
62
5
10
-0.28284269
20
0.4098579
30
0
70
32
0
VERTEX
8
0
62
5
10
-0.28284269
20
0.4108579
30
0
70
32
0
SEQEND
8
0
0
POLYLINE
8
0
62
5
66
1
10
0
20
0
30
0
70
8
0
VERTEX
8
0
62
5
10
-0.21213201
20
0.4098579
30
0
70
32
0
VERTEX
8
0
62
5
10
-0.21213201
20
0.4108579
30
0
70
32
0
SEQEND
8
0
0
POLYLINE
8
0
62
5
66
1
10
0
20
0
30
0
70
8
0
VERTEX
8
0
62
5
10
-0.14142134
20
0.4098579
30
0
70
32
0
VERTEX
8
0
62
5
10
-0.14142134
20
0.4108579
30
0
70
32
0
SEQEND
8
0
0
POLYLINE
8
0
62
5
66
1
10
0
20
0
30
0
70
8
0
VERTEX
8
0
62
5
10
-0.070710657
20
0.4098579
30
0
70
32
0
VERTEX
8
0
62
5
10
-0.070710657
20
0.4108579
30
0
70
32
0
SEQEND
8
0
0
POLYLINE
8
0
62
5
66
1
10
0
20
0
30
0
70
8
0
VERTEX
8
0
62
5
10
2.0957363e-08
20
0.4108579
30
0
70
32
0
VERTEX
8
0
62
5
10
2.0957363e-08
20
0.53389929
30
0
70
32
0
SEQEND
8
0
0
POLYLINE
8
0
62
5
66
1
10
0
20
0
30
0
70
8
0
VERTEX
8
0
62
5
10
0.28284273
20
0.53389929
30
0
70
32
0
VERTEX
8
0
62
5
10
0.28284273
20
0.4108579
30
0
70
32
0
SEQEND
8
0
0
POLYLINE
8
0
62
5
66
1
10
0
20
0
30
0
70
8
0
VERTEX
8
0
62
5
10
2.0957363e-08
20
0.47237859
30
0
70
32
0
VERTEX
8
0
62
5
10
0.070710699
20
0.47237851
30
0
70
32
0
VERTEX
8
0
62
5
10
0.14142138
20
0.42141314
30
0
70
32
0
VERTEX
8
0
62
5
10
0.21213206
20
0.42141322
30
0
70
32
0
VERTEX
8
0
62
5
10
0.28284273
20
0.47237859
30
0
70
32
0
SEQEND
8
0
0
POLYLINE
8
0
62
5
66
1
10
0
20
0
30
0
70
8
0
SEQEND
8
0
0
POLYLINE
8
0
62
5
66
1
10
0
20
0
30
0
70
8
0
VERTEX
8
0
62
5
10
2.0957363e-08
20
0.47237859
30
0
70
32
0
VERTEX
8
0
62
5
10
0.070710699
20
0.47237868
30
0
70
32
0
VERTEX
8
0
62
5
10
0.14142138
20
0.52334405
30
0
70
32
0
VERTEX
8
0
62
5
10
0.21213206
20
0.52334397
30
0
70
32
0
VERTEX
8
0
62
5
10
0.28284273
20
0.47237859
30
0
70
32
0
SEQEND
8
0
0
POLYLINE
8
0
62
30
66
1
10
0
20
0
30
0
70
8
0
VERTEX
8
0
62
30
10
2.0957363e-08
20
0.47237859
30
0
70
32
0
VERTEX
8
0
62
30
10
0.28284273
20
0.47237859
30
0
70
32
0
SEQEND
8
0
0
POLYLINE
8
0
62
30
66
1
10
0
20
0
30
0
70
8
0
VERTEX
8
0
62
30
10
0.070710699
20
0.47237851
30
0
70
32
0
VERTEX
8
0
62
30
10
0.070710699
20
0.47237859
30
0
70
32
0
SEQEND
8
0
0
POLYLINE
8
0
62
30
66
1
10
0
20
0
30
0
70
8
0
VERTEX
8
0
62
30
10
0.14142138
20
0.42141314
30
0
70
32
0
VERTEX
8
0
62
30
10
0.14142138
20
0.47237859
30
0
70
32
0
SEQEND
8
0
0
POLYLINE
8
0
62
30
66
1
10
0
20
0
30
0
70
8
0
VERTEX
8
0
62
30
10
0.21213206
20
0.42141322
30
0
70
32
0
VERTEX
8
0
62
30
10
0.21213206
20
0.47237859
30
0
70
32
0
SEQEND
8
0
0
POLYLINE
8
0
62
5
66
1
10
0
20
0
30
0
70
8
0
VERTEX
8
0
62
5
10
0.070710699
20
0.4108579
30
0
70
32
0
VERTEX
8
0
62
5
10
0.070710699
20
0.47237851
30
0
70
32
0
SEQEND
8
0
0
POLYLINE
8
0
62
5
66
1
10
0
20
0
30
0
70
8
0
VERTEX
8
0
62
5
10
0.14142138
20
0.4108579
30
0
70
32
0
VERTEX
8
0
62
5
10
0.14142138
20
0.42141314
30
0
70
32
0
SEQEND
8
0
0
POLYLINE
8
0
62
5
66
1
10
0
20
0
30
0
70
8
0
VERTEX
8
0
62
5
10
0.21213206
20
0.4108579
30
0
70
32
0
VERTEX
8
0
62
5
10
0.21213206
20
0.42141322
30
0
70
32
0
SEQEND
8
0
0
POLYLINE
8
0
62
5
66
1
10
0
20
0
30
0
70
8
0
VERTEX
8
0
62
5
10
0.070710699
20
0.47237859
30
0
70
32
0
VERTEX
8
0
62
5
10
0.070710699
20
0.53389929
30
0
70
32
0
SEQEND
8
0
0
POLYLINE
8
0
62
5
66
1
10
0
20
0
30
0
70
8
0
VERTEX
8
0
62
5
10
0.14142138
20
0.47237859
30
0
70
32
0
VERTEX
8
0
62
5
10
0.14142138
20
0.53389929
30
0
70
32
0
SEQEND
8
0
0
POLYLINE
8
0
62
5
66
1
10
0
20
0
30
0
70
8
0
VERTEX
8
0
62
5
10
0.21213206
20
0.47237859
30
0
70
32
0
VERTEX
8
0
62
5
10
0.21213206
20
0.53389929
30
0
70
32
0
SEQEND
8
0
0
POLYLINE
8
0
62
30
66
1
10
0
20
0
30
0
70
8
0
VERTEX
8
0
62
30
10
2.0957363e-08
20
0.47237859
30
0
70
32
0
VERTEX
8
0
62
30
10
2.0957363e-08
20
0.47237859
30
0
70
32
0
VERTEX
8
0
62
30
10
2.0957363e-08
20
0.47237859
30
0
70
32
0
SEQEND
8
0
0
POLYLINE
8
0
62
30
66
1
10
0
20
0
30
0
70
8
0
VERTEX
8
0
62
30
10
0.070710699
20
0.47237851
30
0
70
32
0
VERTEX
8
0
62
30
10
0.070710859
20
0.47237859
30
0
70
32
0
VERTEX
8
0
62
30
10
0.070710699
20
0.47237868
30
0
70
32
0
SEQEND
8
0
0
POLYLINE
8
0
62
30
66
1
10
0
20
0
30
0
70
8
0
VERTEX
8
0
62
30
10
0.14142138
20
0.42141314
30
0
70
32
0
VERTEX
8
0
62
30
10
0.16751151
20
0.47237859
30
0
70
32
0
VERTEX
8
0
62
30
10
0.14142138
20
0.52334405
30
0
70
32
0
SEQEND
8
0
0
POLYLINE
8
0
62
30
66
1
10
0
20
0
30
0
70
8
0
VERTEX
8
0
62
30
10
0.21213206
20
0.42141322
30
0
70
32
0
VERTEX
8
0
62
30
10
0.23822218
20
0.47237859
30
0
70
32
0
VERTEX
8
0
62
30
10
0.21213206
20
0.52334397
30
0
70
32
0
SEQEND
8
0
0
POLYLINE
8
0
62
5
66
1
10
0
20
0
30
0
70
8
0
VERTEX
8
0
62
5
10
0.56568545
20
0.53389929
30
0
70
32
0
VERTEX
8
0
62
5
10
0.56568545
20
0.4108579
30
0
70
32
0
SEQEND
8
0
0
POLYLINE
8
0
62
5
66
1
10
0
20
0
30
0
70
8
0
VERTEX
8
0
62
5
10
0.28284273
20
0.47237859
30
0
70
32
0
VERTEX
8
0
62
5
10
0.35355341
20
0.47237851
30
0
70
32
0
VERTEX
8
0
62
5
10
0.42426409
20
0.42141314
30
0
70
32
0
VERTEX
8
0
62
5
10
0.49497477
20
0.42141322
30
0
70
32
0
VERTEX
8
0
62
5
10
0.56568545
20
0.47237859
30
0
70
32
0
SEQEND
8
0
0
POLYLINE
8
0
62
5
66
1
10
0
20
0
30
0
70
8
0
SEQEND
8
0
0
POLYLINE
8
0
62
5
66
1
10
0
20
0
30
0
70
8
0
VERTEX
8
0
62
5
10
0.28284273
20
0.47237859
30
0
70
32
0
VERTEX
8
0
62
5
10
0.35355341
20
0.47237868
30
0
70
32
0
VERTEX
8
0
62
5
10
0.42426409
20
0.52334405
30
0
70
32
0
VERTEX
8
0
62
5
10
0.49497477
20
0.52334397
30
0
70
32
0
VERTEX
8
0
62
5
10
0.56568545
20
0.47237859
30
0
70
32
0
SEQEND
8
0
0
POLYLINE
8
0
62
30
66
1
10
0
20
0
30
0
70
8
0
VERTEX
8
0
62
30
10
0.28284273
20
0.47237859
30
0
70
32
0
VERTEX
8
0
62
30
10
0.56568545
20
0.47237859
30
0
70
32
0
SEQEND
8
0
0
POLYLINE
8
0
62
30
66
1
10
0
20
0
30
0
70
8
0
VERTEX
8
0
62
30
10
0.35355341
20
0.47237851
30
0
70
32
0
VERTEX
8
0
62
30
10
0.35355341
20
0.47237859
30
0
70
32
0
SEQEND
8
0
0
POLYLINE
8
0
62
30
66
1
10
0
20
0
30
0
70
8
0
VERTEX
8
0
62
30
10
0.42426409
20
0.42141314
30
0
70
32
0
VERTEX
8
0
62
30
10
0.42426409
20
0.47237859
30
0
70
32
0
SEQEND
8
0
0
POLYLINE
8
0
62
30
66
1
10
0
20
0
30
0
70
8
0
VERTEX
8
0
62
30
10
0.49497477
20
0.42141322
30
0
70
32
0
VERTEX
8
0
62
30
10
0.49497477
20
0.47237859
30
0
70
32
0
SEQEND
8
0
0
POLYLINE
8
0
62
5
66
1
10
0
20
0
30
0
70
8
0
VERTEX
8
0
62
5
10
0.35355341
20
0.4108579
30
0
70
32
0
VERTEX
8
0
62
5
10
0.35355341
20
0.47237851
30
0
70
32
0
SEQEND
8
0
0
POLYLINE
8
0
62
5
66
1
10
0
20
0
30
0
70
8
0
VERTEX
8
0
62
5
10
0.42426409
20
0.4108579
30
0
70
32
0
VERTEX
8
0
62
5
10
0.42426409
20
0.42141314
30
0
70
32
0
SEQEND
8
0
0
POLYLINE
8
0
62
5
66
1
10
0
20
0
30
0
70
8
0
VERTEX
8
0
62
5
10
0.49497477
20
0.4108579
30
0
70
32
0
VERTEX
8
0
62
5
10
0.49497477
20
0.42141322
30
0
70
32
0
SEQEND
8
0
0
POLYLINE
8
0
62
5
66
1
10
0
20
0
30
0
70
8
0
VERTEX
8
0
62
5
10
0.35355341
20
0.47237859
30
0
70
32
0
VERTEX
8
0
62
5
10
0.35355341
20
0.53389929
30
0
70
32
0
SEQEND
8
0
0
POLYLINE
8
0
62
5
66
1
10
0
20
0
30
0
70
8
0
VERTEX
8
0
62
5
10
0.42426409
20
0.47237859
30
0
70
32
0
VERTEX
8
0
62
5
10
0.42426409
20
0.53389929
30
0
70
32
0
SEQEND
8
0
0
POLYLINE
8
0
62
5
66
1
10
0
20
0
30
0
70
8
0
VERTEX
8
0
62
5
10
0.49497477
20
0.47237859
30
0
70
32
0
VERTEX
8
0
62
5
10
0.49497477
20
0.53389929
30
0
70
32
0
SEQEND
8
0
0
POLYLINE
8
0
62
30
66
1
10
0
20
0
30
0
70
8
0
VERTEX
8
0
62
30
10
0.28284273
20
0.47237859
30
0
70
32
0
VERTEX
8
0
62
30
10
0.28284273
20
0.47237859
30
0
70
32
0
VERTEX
8
0
62
30
10
0.28284273
20
0.47237859
30
0
70
32
0
SEQEND
8
0
0
POLYLINE
8
0
62
30
66
1
10
0
20
0
30
0
70
8
0
VERTEX
8
0
62
30
10
0.35355341
20
0.47237851
30
0
70
32
0
VERTEX
8
0
62
30
10
0.35355357
20
0.47237859
30
0
70
32
0
VERTEX
8
0
62
30
10
0.35355341
20
0.47237868
30
0
70
32
0
SEQEND
8
0
0
POLYLINE
8
0
62
30
66
1
10
0
20
0
30
0
70
8
0
VERTEX
8
0
62
30
10
0.42426409
20
0.42141314
30
0
70
32
0
VERTEX
8
0
62
30
10
0.45035422
20
0.47237859
30
0
70
32
0
VERTEX
8
0
62
30
10
0.42426409
20
0.52334405
30
0
70
32
0
SEQEND
8
0
0
POLYLINE
8
0
62
30
66
1
10
0
20
0
30
0
70
8
0
VERTEX
8
0
62
30
10
0.49497477
20
0.42141322
30
0
70
32
0
VERTEX
8
0
62
30
10
0.52106489
20
0.47237859
30
0
70
32
0
VERTEX
8
0
62
30
10
0.49497477
20
0.52334397
30
0
70
32
0
SEQEND
8
0
0
POLYLINE
8
0
62
5
66
1
10
0
20
0
30
0
70
8
0
VERTEX
8
0
62
5
10
-0.28284269
20
0.4108579
30
0
70
32
0
VERTEX
8
0
62
5
10
-0.28284269
20
0.53389929
30
0
70
32
0
SEQEND
8
0
0
POLYLINE
8
0
62
5
66
1
10
0
20
0
30
0
70
8
0
VERTEX
8
0
62
5
10
-0.28284269
20
0.47237859
30
0
70
32
0
VERTEX
8
0
62
5
10
-0.21213201
20
0.47237851
30
0
70
32
0
VERTEX
8
0
62
5
10
-0.14142134
20
0.42141314
30
0
70
32
0
VERTEX
8
0
62
5
10
-0.070710657
20
0.42141322
30
0
70
32
0
VERTEX
8
0
62
5
10
2.0957363e-08
20
0.47237859
30
0
70
32
0
SEQEND
8
0
0
POLYLINE
8
0
62
5
66
1
10
0
20
0
30
0
70
8
0
SEQEND
8
0
0
POLYLINE
8
0
62
5
66
1
10
0
20
0
30
0
70
8
0
VERTEX
8
0
62
5
10
-0.28284269
20
0.47237859
30
0
70
32
0
VERTEX
8
0
62
5
10
-0.21213201
20
0.47237868
30
0
70
32
0
VERTEX
8
0
62
5
10
-0.14142134
20
0.52334405
30
0
70
32
0
VERTEX
8
0
62
5
10
-0.070710657
20
0.52334397
30
0
70
32
0
VERTEX
8
0
62
5
10
2.0957363e-08
20
0.47237859
30
0
70
32
0
SEQEND
8
0
0
POLYLINE
8
0
62
30
66
1
10
0
20
0
30
0
70
8
0
VERTEX
8
0
62
30
10
-0.28284269
20
0.47237859
30
0
70
32
0
VERTEX
8
0
62
30
10
2.0957363e-08
20
0.47237859
30
0
70
32
0
SEQEND
8
0
0
POLYLINE
8
0
62
30
66
1
10
0
20
0
30
0
70
8
0
VERTEX
8
0
62
30
10
-0.21213201
20
0.47237851
30
0
70
32
0
VERTEX
8
0
62
30
10
-0.21213201
20
0.47237859
30
0
70
32
0
SEQEND
8
0
0
POLYLINE
8
0
62
30
66
1
10
0
20
0
30
0
70
8
0
VERTEX
8
0
62
30
10
-0.14142134
20
0.42141314
30
0
70
32
0
VERTEX
8
0
62
30
10
-0.14142134
20
0.47237859
30
0
70
32
0
SEQEND
8
0
0
POLYLINE
8
0
62
30
66
1
10
0
20
0
30
0
70
8
0
VERTEX
8
0
62
30
10
-0.070710657
20
0.42141322
30
0
70
32
0
VERTEX
8
0
62
30
10
-0.070710657
20
0.47237859
30
0
70
32
0
SEQEND
8
0
0
POLYLINE
8
0
62
5
66
1
10
0
20
0
30
0
70
8
0
VERTEX
8
0
62
5
10
-0.21213201
20
0.4108579
30
0
70
32
0
VERTEX
8
0
62
5
10
-0.21213201
20
0.47237851
30
0
70
32
0
SEQEND
8
0
0
POLYLINE
8
0
62
5
66
1
10
0
20
0
30
0
70
8
0
VERTEX
8
0
62
5
10
-0.14142134
20
0.4108579
30
0
70
32
0
VERTEX
8
0
62
5
10
-0.14142134
20
0.42141314
30
0
70
32
0
SEQEND
8
0
0
POLYLINE
8
0
62
5
66
1
10
0
20
0
30
0
70
8
0
VERTEX
8
0
62
5
10
-0.070710657
20
0.4108579
30
0
70
32
0
VERTEX
8
0
62
5
10
-0.070710657
20
0.42141322
30
0
70
32
0
SEQEND
8
0
0
POLYLINE
8
0
62
5
66
1
10
0
20
0
30
0
70
8
0
VERTEX
8
0
62
5
10
-0.21213201
20
0.47237859
30
0
70
32
0
VERTEX
8
0
62
5
10
-0.21213201
20
0.53389929
30
0
70
32
0
SEQEND
8
0
0
POLYLINE
8
0
62
5
66
1
10
0
20
0
30
0
70
8
0
VERTEX
8
0
62
5
10
-0.14142134
20
0.47237859
30
0
70
32
0
VERTEX
8
0
62
5
10
-0.14142134
20
0.53389929
30
0
70
32
0
SEQEND
8
0
0
POLYLINE
8
0
62
5
66
1
10
0
20
0
30
0
70
8
0
VERTEX
8
0
62
5
10
-0.070710657
20
0.47237859
30
0
70
32
0
VERTEX
8
0
62
5
10
-0.070710657
20
0.53389929
30
0
70
32
0
SEQEND
8
0
0
POLYLINE
8
0
62
30
66
1
10
0
20
0
30
0
70
8
0
VERTEX
8
0
62
30
10
-0.28284269
20
0.47237859
30
0
70
32
0
VERTEX
8
0
62
30
10
-0.28284269
20
0.47237859
30
0
70
32
0
VERTEX
8
0
62
30
10
-0.28284269
20
0.47237859
30
0
70
32
0
SEQEND
8
0
0
POLYLINE
8
0
62
30
66
1
10
0
20
0
30
0
70
8
0
VERTEX
8
0
62
30
10
-0.21213201
20
0.47237851
30
0
70
32
0
VERTEX
8
0
62
30
10
-0.21213185
20
0.47237859
30
0
70
32
0
VERTEX
8
0
62
30
10
-0.21213201
20
0.47237868
30
0
70
32
0
SEQEND
8
0
0
POLYLINE
8
0
62
30
66
1
10
0
20
0
30
0
70
8
0
VERTEX
8
0
62
30
10
-0.14142134
20
0.42141314
30
0
70
32
0
VERTEX
8
0
62
30
10
-0.1153312
20
0.47237859
30
0
70
32
0
VERTEX
8
0
62
30
10
-0.14142134
20
0.52334405
30
0
70
32
0
SEQEND
8
0
0
POLYLINE
8
0
62
30
66
1
10
0
20
0
30
0
70
8
0
VERTEX
8
0
62
30
10
-0.070710657
20
0.42141322
30
0
70
32
0
VERTEX
8
0
62
30
10
-0.044620534
20
0.47237859
30
0
70
32
0
VERTEX
8
0
62
30
10
-0.070710657
20
0.52334397
30
0
70
32
0
SEQEND
8
0
0
POLYLINE
8
0
62
5
66
1
10
0
20
0
30
0
70
8
0
VERTEX
8
0
62
5
10
2.0957363e-08
20
0.53389929
30
0
70
32
0
VERTEX
8
0
62
5
10
2.0957363e-08
20
0.56552209
30
0
70
32
0
SEQEND
8
0
0
POLYLINE
8
0
62
5
66
1
10
0
20
0
30
0
70
8
0
VERTEX
8
0
62
5
10
0.070710699
20
0.53389929
30
0
70
32
0
VERTEX
8
0
62
5
10
0.070710699
20
0.56552209
30
0
70
32
0
SEQEND
8
0
0
POLYLINE
8
0
62
5
66
1
10
0
20
0
30
0
70
8
0
VERTEX
8
0
62
5
10
0.14142138
20
0.53389929
30
0
70
32
0
VERTEX
8
0
62
5
10
0.14142138
20
0.56552209
30
0
70
32
0
SEQEND
8
0
0
POLYLINE
8
0
62
5
66
1
10
0
20
0
30
0
70
8
0
VERTEX
8
0
62
5
10
0.21213206
20
0.53389929
30
0
70
32
0
VERTEX
8
0
62
5
10
0.21213206
20
0.56552209
30
0
70
32
0
SEQEND
8
0
0
POLYLINE
8
0
62
5
66
1
10
0
20
0
30
0
70
8
0
VERTEX
8
0
62
5
10
0.28284273
20
0.53389929
30
0
70
32
0
VERTEX
8
0
62
5
10
0.28284273
20
0.56552209
30
0
70
32
0
SEQEND
8
0
0
POLYLINE
8
0
62
5
66
1
10
0
20
0
30
0
70
8
0
VERTEX
8
0
62
5
10
0.070710699
20
0.53389929
30
0
70
32
0
VERTEX
8
0
62
5
10
0.070710699
20
0.53389929
30
0
70
32
0
SEQEND
8
0
0
POLYLINE
8
0
62
5
66
1
10
0
20
0
30
0
70
8
0
VERTEX
8
0
62
5
10
0.14142138
20
0.53389929
30
0
70
32
0
VERTEX
8
0
62
5
10
0.14142138
20
0.53389929
30
0
70
32
0
SEQEND
8
0
0
POLYLINE
8
0
62
5
66
1
10
0
20
0
30
0
70
8
0
VERTEX
8
0
62
5
10
0.21213206
20
0.53389929
30
0
70
32
0
VERTEX
8
0
62
5
10
0.21213206
20
0.53389929
30
0
70
32
0
SEQEND
8
0
0
POLYLINE
8
0
62
5
66
1
10
0
20
0
30
0
70
8
0
VERTEX
8
0
62
5
10
0.070710651
20
0.56552209
30
0
70
32
0
VERTEX
8
0
62
5
10
0.070710651
20
0.56552209
30
0
70
32
0
SEQEND
8
0
0
POLYLINE
8
0
62
5
66
1
10
0
20
0
30
0
70
8
0
VERTEX
8
0
62
5
10
0.14142133
20
0.56552209
30
0
70
32
0
VERTEX
8
0
62
5
10
0.14142133
20
0.56552209
30
0
70
32
0
SEQEND
8
0
0
POLYLINE
8
0
62
5
66
1
10
0
20
0
30
0
70
8
0
VERTEX
8
0
62
5
10
0.21213201
20
0.56552209
30
0
70
32
0
VERTEX
8
0
62
5
10
0.21213201
20
0.56552209
30
0
70
32
0
SEQEND
8
0
0
POLYLINE
8
0
62
5
66
1
10
0
20
0
30
0
70
8
0
VERTEX
8
0
62
5
10
0.28284269
20
0.56552209
30
0
70
32
0
VERTEX
8
0
62
5
10
0.28284269
20
0.56552209
30
0
70
32
0
SEQEND
8
0
0
POLYLINE
8
0
62
5
66
1
10
0
20
0
30
0
70
8
0
VERTEX
8
0
62
5
10
0.35355341
20
0.53389929
30
0
70
32
0
VERTEX
8
0
62
5
10
0.35355341
20
0.56552209
30
0
70
32
0
SEQEND
8
0
0
POLYLINE
8
0
62
5
66
1
10
0
20
0
30
0
70
8
0
VERTEX
8
0
62
5
10
0.42426409
20
0.53389929
30
0
70
32
0
VERTEX
8
0
62
5
10
0.42426409
20
0.56552209
30
0
70
32
0
SEQEND
8
0
0
POLYLINE
8
0
62
5
66
1
10
0
20
0
30
0
70
8
0
VERTEX
8
0
62
5
10
0.49497477
20
0.53389929
30
0
70
32
0
VERTEX
8
0
62
5
10
0.49497477
20
0.56552209
30
0
70
32
0
SEQEND
8
0
0
POLYLINE
8
0
62
5
66
1
10
0
20
0
30
0
70
8
0
VERTEX
8
0
62
5
10
0.56568545
20
0.53389929
30
0
70
32
0
VERTEX
8
0
62
5
10
0.56568545
20
0.56552209
30
0
70
32
0
SEQEND
8
0
0
POLYLINE
8
0
62
5
66
1
10
0
20
0
30
0
70
8
0
VERTEX
8
0
62
5
10
0.35355341
20
0.53389929
30
0
70
32
0
VERTEX
8
0
62
5
10
0.35355341
20
0.53389929
30
0
70
32
0
SEQEND
8
0
0
POLYLINE
8
0
62
5
66
1
10
0
20
0
30
0
70
8
0
VERTEX
8
0
62
5
10
0.42426409
20
0.53389929
30
0
70
32
0
VERTEX
8
0
62
5
10
0.42426409
20
0.53389929
30
0
70
32
0
SEQEND
8
0
0
POLYLINE
8
0
62
5
66
1
10
0
20
0
30
0
70
8
0
VERTEX
8
0
62
5
10
0.49497477
20
0.53389929
30
0
70
32
0
VERTEX
8
0
62
5
10
0.49497477
20
0.53389929
30
0
70
32
0
SEQEND
8
0
0
POLYLINE
8
0
62
5
66
1
10
0
20
0
30
0
70
8
0
VERTEX
8
0
62
5
10
0.35355336
20
0.56552209
30
0
70
32
0
VERTEX
8
0
62
5
10
0.35355336
20
0.56552209
30
0
70
32
0
SEQEND
8
0
0
POLYLINE
8
0
62
5
66
1
10
0
20
0
30
0
70
8
0
VERTEX
8
0
62
5
10
0.42426404
20
0.56552209
30
0
70
32
0
VERTEX
8
0
62
5
10
0.42426404
20
0.56552209
30
0
70
32
0
SEQEND
8
0
0
POLYLINE
8
0
62
5
66
1
10
0
20
0
30
0
70
8
0
VERTEX
8
0
62
5
10
0.49497472
20
0.56552209
30
0
70
32
0
VERTEX
8
0
62
5
10
0.49497472
20
0.56552209
30
0
70
32
0
SEQEND
8
0
0
POLYLINE
8
0
62
5
66
1
10
0
20
0
30
0
70
8
0
VERTEX
8
0
62
5
10
0.5656854
20
0.56552209
30
0
70
32
0
VERTEX
8
0
62
5
10
0.5656854
20
0.56552209
30
0
70
32
0
SEQEND
8
0
0
POLYLINE
8
0
62
5
66
1
10
0
20
0
30
0
70
8
0
VERTEX
8
0
62
5
10
-0.21213201
20
0.53389929
30
0
70
32
0
VERTEX
8
0
62
5
10
-0.21213201
20
0.56552209
30
0
70
32
0
SEQEND
8
0
0
POLYLINE
8
0
62
5
66
1
10
0
20
0
30
0
70
8
0
VERTEX
8
0
62
5
10
-0.14142134
20
0.53389929
30
0
70
32
0
VERTEX
8
0
62
5
10
-0.14142134
20
0.56552209
30
0
70
32
0
SEQEND
8
0
0
POLYLINE
8
0
62
5
66
1
10
0
20
0
30
0
70
8
0
VERTEX
8
0
62
5
10
-0.070710657
20
0.53389929
30
0
70
32
0
VERTEX
8
0
62
5
10
-0.070710657
20
0.56552209
30
0
70
32
0
SEQEND
8
0
0
POLYLINE
8
0
62
5
66
1
10
0
20
0
30
0
70
8
0
VERTEX
8
0
62
5
10
2.0957363e-08
20
0.53389929
30
0
70
32
0
VERTEX
8
0
62
5
10
2.0957363e-08
20
0.56552209
30
0
70
32
0
SEQEND
8
0
0
POLYLINE
8
0
62
5
66
1
10
0
20
0
30
0
70
8
0
VERTEX
8
0
62
5
10
-0.21213201
20
0.53389929
30
0
70
32
0
VERTEX
8
0
62
5
10
-0.21213201
20
0.53389929
30
0
70
32
0
SEQEND
8
0
0
POLYLINE
8
0
62
5
66
1
10
0
20
0
30
0
70
8
0
VERTEX
8
0
62
5
10
-0.14142134
20
0.53389929
30
0
70
32
0
VERTEX
8
0
62
5
10
-0.14142134
20
0.53389929
30
0
70
32
0
SEQEND
8
0
0
POLYLINE
8
0
62
5
66
1
10
0
20
0
30
0
70
8
0
VERTEX
8
0
62
5
10
-0.070710657
20
0.53389929
30
0
70
32
0
VERTEX
8
0
62
5
10
-0.070710657
20
0.53389929
30
0
70
32
0
SEQEND
8
0
0
POLYLINE
8
0
62
5
66
1
10
0
20
0
30
0
70
8
0
VERTEX
8
0
62
5
10
-0.21213206
20
0.56552209
30
0
70
32
0
VERTEX
8
0
62
5
10
-0.21213206
20
0.56552209
30
0
70
32
0
SEQEND
8
0
0
POLYLINE
8
0
62
5
66
1
10
0
20
0
30
0
70
8
0
VERTEX
8
0
62
5
10
-0.14142138
20
0.56552209
30
0
70
32
0
VERTEX
8
0
62
5
10
-0.14142138
20
0.56552209
30
0
70
32
0
SEQEND
8
0
0
POLYLINE
8
0
62
5
66
1
10
0
20
0
30
0
70
8
0
VERTEX
8
0
62
5
10
-0.070710705
20
0.56552209
30
0
70
32
0
VERTEX
8
0
62
5
10
-0.070710705
20
0.56552209
30
0
70
32
0
SEQEND
8
0
0
POLYLINE
8
0
62
5
66
1
10
0
20
0
30
0
70
8
0
VERTEX
8
0
62
5
10
-2.6626857e-08
20
0.56552209
30
0
70
32
0
VERTEX
8
0
62
5
10
-2.6626857e-08
20
0.56552209
30
0
70
32
0
SEQEND
8
0
0
POLYLINE
8
0
62
5
66
1
10
0
20
0
30
0
70
8
0
VERTEX
8
0
62
5
10
-2.6626857e-08
20
0.56552209
30
0
70
32
0
VERTEX
8
0
62
5
10
-2.6626857e-08
20
0.69201328
30
0
70
32
0
SEQEND
8
0
0
POLYLINE
8
0
62
5
66
1
10
0
20
0
30
0
70
8
0
VERTEX
8
0
62
5
10
0.28284269
20
0.56552209
30
0
70
32
0
VERTEX
8
0
62
5
10
0.28284269
20
0.69201328
30
0
70
32
0
SEQEND
8
0
0
POLYLINE
8
0
62
5
66
1
10
0
20
0
30
0
70
8
0
VERTEX
8
0
62
5
10
0.070710651
20
0.56552209
30
0
70
32
0
VERTEX
8
0
62
5
10
0.070710651
20
0.69201328
30
0
70
32
0
SEQEND
8
0
0
POLYLINE
8
0
62
5
66
1
10
0
20
0
30
0
70
8
0
VERTEX
8
0
62
5
10
0.14142133
20
0.56552209
30
0
70
32
0
VERTEX
8
0
62
5
10
0.14142133
20
0.69201328
30
0
70
32
0
SEQEND
8
0
0
POLYLINE
8
0
62
5
66
1
10
0
20
0
30
0
70
8
0
VERTEX
8
0
62
5
10
0.21213201
20
0.56552209
30
0
70
32
0
VERTEX
8
0
62
5
10
0.21213201
20
0.69201328
30
0
70
32
0
SEQEND
8
0
0
POLYLINE
8
0
62
5
66
1
10
0
20
0
30
0
70
8
0
VERTEX
8
0
62
5
10
0.5656854
20
0.56552209
30
0
70
32
0
VERTEX
8
0
62
5
10
0.5656854
20
0.69201328
30
0
70
32
0
SEQEND
8
0
0
POLYLINE
8
0
62
5
66
1
10
0
20
0
30
0
70
8
0
VERTEX
8
0
62
5
10
0.35355336
20
0.56552209
30
0
70
32
0
VERTEX
8
0
62
5
10
0.35355336
20
0.69201328
30
0
70
32
0
SEQEND
8
0
0
POLYLINE
8
0
62
5
66
1
10
0
20
0
30
0
70
8
0
VERTEX
8
0
62
5
10
0.42426404
20
0.56552209
30
0
70
32
0
VERTEX
8
0
62
5
10
0.42426404
20
0.69201328
30
0
70
32
0
SEQEND
8
0
0
POLYLINE
8
0
62
5
66
1
10
0
20
0
30
0
70
8
0
VERTEX
8
0
62
5
10
0.49497472
20
0.56552209
30
0
70
32
0
VERTEX
8
0
62
5
10
0.49497472
20
0.69201328
30
0
70
32
0
SEQEND
8
0
0
POLYLINE
8
0
62
5
66
1
10
0
20
0
30
0
70
8
0
VERTEX
8
0
62
5
10
-0.28284274
20
0.56552209
30
0
70
32
0
VERTEX
8
0
62
5
10
-0.28284274
20
0.69201328
30
0
70
32
0
SEQEND
8
0
0
POLYLINE
8
0
62
5
66
1
10
0
20
0
30
0
70
8
0
VERTEX
8
0
62
5
10
-0.21213206
20
0.56552209
30
0
70
32
0
VERTEX
8
0
62
5
10
-0.21213206
20
0.69201328
30
0
70
32
0
SEQEND
8
0
0
POLYLINE
8
0
62
5
66
1
10
0
20
0
30
0
70
8
0
VERTEX
8
0
62
5
10
-0.14142138
20
0.56552209
30
0
70
32
0
VERTEX
8
0
62
5
10
-0.14142138
20
0.69201328
30
0
70
32
0
SEQEND
8
0
0
POLYLINE
8
0
62
5
66
1
10
0
20
0
30
0
70
8
0
VERTEX
8
0
62
5
10
-0.070710705
20
0.56552209
30
0
70
32
0
VERTEX
8
0
62
5
10
-0.070710705
20
0.69201328
30
0
70
32
0
SEQEND
8
0
0
POLYLINE
8
0
62
5
66
1
10
0
20
0
30
0
70
8
0
VERTEX
8
0
62
5
10
-2.6626857e-08
20
0.69201328
30
0
70
32
0
VERTEX
8
0
62
5
10
-2.6626857e-08
20
0.71971586
30
0
70
32
0
SEQEND
8
0
0
POLYLINE
8
0
62
5
66
1
10
0
20
0
30
0
70
8
0
VERTEX
8
0
62
5
10
0.28284269
20
0.71971586
30
0
70
32
0
VERTEX
8
0
62
5
10
0.28284269
20
0.69201328
30
0
70
32
0
SEQEND
8
0
0
POLYLINE
8
0
62
5
66
1
10
0
20
0
30
0
70
8
0
VERTEX
8
0
62
5
10
-2.6626857e-08
20
0.70586451
30
0
70
32
0
VERTEX
8
0
62
5
10
0.070710651
20
0.70586457
30
0
70
32
0
VERTEX
8
0
62
5
10
0.14142133
20
0.69438981
30
0
70
32
0
VERTEX
8
0
62
5
10
0.21213201
20
0.69438975
30
0
70
32
0
VERTEX
8
0
62
5
10
0.28284269
20
0.70586451
30
0
70
32
0
SEQEND
8
0
0
POLYLINE
8
0
62
5
66
1
10
0
20
0
30
0
70
8
0
SEQEND
8
0
0
POLYLINE
8
0
62
5
66
1
10
0
20
0
30
0
70
8
0
VERTEX
8
0
62
5
10
-2.6626857e-08
20
0.70586463
30
0
70
32
0
VERTEX
8
0
62
5
10
0.070710651
20
0.70586457
30
0
70
32
0
VERTEX
8
0
62
5
10
0.14142133
20
0.71733933
30
0
70
32
0
VERTEX
8
0
62
5
10
0.21213201
20
0.71733939
30
0
70
32
0
VERTEX
8
0
62
5
10
0.28284269
20
0.70586463
30
0
70
32
0
SEQEND
8
0
0
POLYLINE
8
0
62
30
66
1
10
0
20
0
30
0
70
8
0
VERTEX
8
0
62
30
10
-2.6626857e-08
20
0.70586457
30
0
70
32
0
VERTEX
8
0
62
30
10
0.28284269
20
0.70586457
30
0
70
32
0
SEQEND
8
0
0
POLYLINE
8
0
62
30
66
1
10
0
20
0
30
0
70
8
0
VERTEX
8
0
62
30
10
0.070710651
20
0.70586457
30
0
70
32
0
VERTEX
8
0
62
30
10
0.070710651
20
0.70586457
30
0
70
32
0
SEQEND
8
0
0
POLYLINE
8
0
62
30
66
1
10
0
20
0
30
0
70
8
0
VERTEX
8
0
62
30
10
0.14142133
20
0.69438981
30
0
70
32
0
VERTEX
8
0
62
30
10
0.14142133
20
0.70586457
30
0
70
32
0
SEQEND
8
0
0
POLYLINE
8
0
62
30
66
1
10
0
20
0
30
0
70
8
0
VERTEX
8
0
62
30
10
0.21213201
20
0.69438975
30
0
70
32
0
VERTEX
8
0
62
30
10
0.21213201
20
0.70586457
30
0
70
32
0
SEQEND
8
0
0
POLYLINE
8
0
62
5
66
1
10
0
20
0
30
0
70
8
0
VERTEX
8
0
62
5
10
0.070710651
20
0.69201328
30
0
70
32
0
VERTEX
8
0
62
5
10
0.070710651
20
0.70586457
30
0
70
32
0
SEQEND
8
0
0
POLYLINE
8
0
62
5
66
1
10
0
20
0
30
0
70
8
0
VERTEX
8
0
62
5
10
0.14142133
20
0.69201328
30
0
70
32
0
VERTEX
8
0
62
5
10
0.14142133
20
0.69438981
30
0
70
32
0
SEQEND
8
0
0
POLYLINE
8
0
62
5
66
1
10
0
20
0
30
0
70
8
0
VERTEX
8
0
62
5
10
0.21213201
20
0.69201328
30
0
70
32
0
VERTEX
8
0
62
5
10
0.21213201
20
0.69438975
30
0
70
32
0
SEQEND
8
0
0
POLYLINE
8
0
62
5
66
1
10
0
20
0
30
0
70
8
0
VERTEX
8
0
62
5
10
0.070710651
20
0.70586457
30
0
70
32
0
VERTEX
8
0
62
5
10
0.070710651
20
0.71971586
30
0
70
32
0
SEQEND
8
0
0
POLYLINE
8
0
62
5
66
1
10
0
20
0
30
0
70
8
0
VERTEX
8
0
62
5
10
0.14142133
20
0.70586457
30
0
70
32
0
VERTEX
8
0
62
5
10
0.14142133
20
0.71971586
30
0
70
32
0
SEQEND
8
0
0
POLYLINE
8
0
62
5
66
1
10
0
20
0
30
0
70
8
0
VERTEX
8
0
62
5
10
0.21213201
20
0.70586457
30
0
70
32
0
VERTEX
8
0
62
5
10
0.21213201
20
0.71971586
30
0
70
32
0
SEQEND
8
0
0
POLYLINE
8
0
62
30
66
1
10
0
20
0
30
0
70
8
0
VERTEX
8
0
62
30
10
-2.6626857e-08
20
0.70586451
30
0
70
32
0
VERTEX
8
0
62
30
10
3.8377535e-08
20
0.70586457
30
0
70
32
0
VERTEX
8
0
62
30
10
-2.6626857e-08
20
0.70586463
30
0
70
32
0
SEQEND
8
0
0
POLYLINE
8
0
62
30
66
1
10
0
20
0
30
0
70
8
0
VERTEX
8
0
62
30
10
0.070710651
20
0.70586457
30
0
70
32
0
VERTEX
8
0
62
30
10
0.070710651
20
0.70586457
30
0
70
32
0
VERTEX
8
0
62
30
10
0.070710651
20
0.70586457
30
0
70
32
0
SEQEND
8
0
0
POLYLINE
8
0
62
30
66
1
10
0
20
0
30
0
70
8
0
VERTEX
8
0
62
30
10
0.14142133
20
0.69438981
30
0
70
32
0
VERTEX
8
0
62
30
10
0.15118411
20
0.70586457
30
0
70
32
0
VERTEX
8
0
62
30
10
0.14142133
20
0.71733933
30
0
70
32
0
SEQEND
8
0
0
POLYLINE
8
0
62
30
66
1
10
0
20
0
30
0
70
8
0
VERTEX
8
0
62
30
10
0.21213201
20
0.69438975
30
0
70
32
0
VERTEX
8
0
62
30
10
0.22189482
20
0.70586457
30
0
70
32
0
VERTEX
8
0
62
30
10
0.21213201
20
0.71733939
30
0
70
32
0
SEQEND
8
0
0
POLYLINE
8
0
62
5
66
1
10
0
20
0
30
0
70
8
0
VERTEX
8
0
62
5
10
0.5656854
20
0.71971586
30
0
70
32
0
VERTEX
8
0
62
5
10
0.5656854
20
0.69201328
30
0
70
32
0
SEQEND
8
0
0
POLYLINE
8
0
62
5
66
1
10
0
20
0
30
0
70
8
0
VERTEX
8
0
62
5
10
0.28284269
20
0.70586451
30
0
70
32
0
VERTEX
8
0
62
5
10
0.35355336
20
0.70586457
30
0
70
32
0
VERTEX
8
0
62
5
10
0.42426404
20
0.69438981
30
0
70
32
0
VERTEX
8
0
62
5
10
0.49497472
20
0.69438975
30
0
70
32
0
VERTEX
8
0
62
5
10
0.5656854
20
0.70586451
30
0
70
32
0
SEQEND
8
0
0
POLYLINE
8
0
62
5
66
1
10
0
20
0
30
0
70
8
0
SEQEND
8
0
0
POLYLINE
8
0
62
5
66
1
10
0
20
0
30
0
70
8
0
VERTEX
8
0
62
5
10
0.28284269
20
0.70586463
30
0
70
32
0
VERTEX
8
0
62
5
10
0.35355336
20
0.70586457
30
0
70
32
0
VERTEX
8
0
62
5
10
0.42426404
20
0.71733933
30
0
70
32
0
VERTEX
8
0
62
5
10
0.49497472
20
0.71733939
30
0
70
32
0
VERTEX
8
0
62
5
10
0.5656854
20
0.70586463
30
0
70
32
0
SEQEND
8
0
0
POLYLINE
8
0
62
30
66
1
10
0
20
0
30
0
70
8
0
VERTEX
8
0
62
30
10
0.28284269
20
0.70586457
30
0
70
32
0
VERTEX
8
0
62
30
10
0.5656854
20
0.70586457
30
0
70
32
0
SEQEND
8
0
0
POLYLINE
8
0
62
30
66
1
10
0
20
0
30
0
70
8
0
VERTEX
8
0
62
30
10
0.35355336
20
0.70586457
30
0
70
32
0
VERTEX
8
0
62
30
10
0.35355336
20
0.70586457
30
0
70
32
0
SEQEND
8
0
0
POLYLINE
8
0
62
30
66
1
10
0
20
0
30
0
70
8
0
VERTEX
8
0
62
30
10
0.42426404
20
0.69438981
30
0
70
32
0
VERTEX
8
0
62
30
10
0.42426404
20
0.70586457
30
0
70
32
0
SEQEND
8
0
0
POLYLINE
8
0
62
30
66
1
10
0
20
0
30
0
70
8
0
VERTEX
8
0
62
30
10
0.49497472
20
0.69438975
30
0
70
32
0
VERTEX
8
0
62
30
10
0.49497472
20
0.70586457
30
0
70
32
0
SEQEND
8
0
0
POLYLINE
8
0
62
5
66
1
10
0
20
0
30
0
70
8
0
VERTEX
8
0
62
5
10
0.35355336
20
0.69201328
30
0
70
32
0
VERTEX
8
0
62
5
10
0.35355336
20
0.70586457
30
0
70
32
0
SEQEND
8
0
0
POLYLINE
8
0
62
5
66
1
10
0
20
0
30
0
70
8
0
VERTEX
8
0
62
5
10
0.42426404
20
0.69201328
30
0
70
32
0
VERTEX
8
0
62
5
10
0.42426404
20
0.69438981
30
0
70
32
0
SEQEND
8
0
0
POLYLINE
8
0
62
5
66
1
10
0
20
0
30
0
70
8
0
VERTEX
8
0
62
5
10
0.49497472
20
0.69201328
30
0
70
32
0
VERTEX
8
0
62
5
10
0.49497472
20
0.69438975
30
0
70
32
0
SEQEND
8
0
0
POLYLINE
8
0
62
5
66
1
10
0
20
0
30
0
70
8
0
VERTEX
8
0
62
5
10
0.35355336
20
0.70586457
30
0
70
32
0
VERTEX
8
0
62
5
10
0.35355336
20
0.71971586
30
0
70
32
0
SEQEND
8
0
0
POLYLINE
8
0
62
5
66
1
10
0
20
0
30
0
70
8
0
VERTEX
8
0
62
5
10
0.42426404
20
0.70586457
30
0
70
32
0
VERTEX
8
0
62
5
10
0.42426404
20
0.71971586
30
0
70
32
0
SEQEND
8
0
0
POLYLINE
8
0
62
5
66
1
10
0
20
0
30
0
70
8
0
VERTEX
8
0
62
5
10
0.49497472
20
0.70586457
30
0
70
32
0
VERTEX
8
0
62
5
10
0.49497472
20
0.71971586
30
0
70
32
0
SEQEND
8
0
0
POLYLINE
8
0
62
30
66
1
10
0
20
0
30
0
70
8
0
VERTEX
8
0
62
30
10
0.28284269
20
0.70586451
30
0
70
32
0
VERTEX
8
0
62
30
10
0.28284275
20
0.70586457
30
0
70
32
0
VERTEX
8
0
62
30
10
0.28284269
20
0.70586463
30
0
70
32
0
SEQEND
8
0
0
POLYLINE
8
0
62
30
66
1
10
0
20
0
30
0
70
8
0
VERTEX
8
0
62
30
10
0.35355336
20
0.70586457
30
0
70
32
0
VERTEX
8
0
62
30
10
0.35355336
20
0.70586457
30
0
70
32
0
VERTEX
8
0
62
30
10
0.35355336
20
0.70586457
30
0
70
32
0
SEQEND
8
0
0
POLYLINE
8
0
62
30
66
1
10
0
20
0
30
0
70
8
0
VERTEX
8
0
62
30
10
0.42426404
20
0.69438981
30
0
70
32
0
VERTEX
8
0
62
30
10
0.43402682
20
0.70586457
30
0
70
32
0
VERTEX
8
0
62
30
10
0.42426404
20
0.71733933
30
0
70
32
0
SEQEND
8
0
0
POLYLINE
8
0
62
30
66
1
10
0
20
0
30
0
70
8
0
VERTEX
8
0
62
30
10
0.49497472
20
0.69438975
30
0
70
32
0
VERTEX
8
0
62
30
10
0.50473753
20
0.70586457
30
0
70
32
0
VERTEX
8
0
62
30
10
0.49497472
20
0.71733939
30
0
70
32
0
SEQEND
8
0
0
POLYLINE
8
0
62
5
66
1
10
0
20
0
30
0
70
8
0
VERTEX
8
0
62
5
10
-0.28284274
20
0.69201328
30
0
70
32
0
VERTEX
8
0
62
5
10
-0.28284274
20
0.71971586
30
0
70
32
0
SEQEND
8
0
0
POLYLINE
8
0
62
5
66
1
10
0
20
0
30
0
70
8
0
VERTEX
8
0
62
5
10
-0.28284274
20
0.70586451
30
0
70
32
0
VERTEX
8
0
62
5
10
-0.21213206
20
0.70586457
30
0
70
32
0
VERTEX
8
0
62
5
10
-0.14142138
20
0.69438981
30
0
70
32
0
VERTEX
8
0
62
5
10
-0.070710705
20
0.69438975
30
0
70
32
0
VERTEX
8
0
62
5
10
-2.6626857e-08
20
0.70586451
30
0
70
32
0
SEQEND
8
0
0
POLYLINE
8
0
62
5
66
1
10
0
20
0
30
0
70
8
0
SEQEND
8
0
0
POLYLINE
8
0
62
5
66
1
10
0
20
0
30
0
70
8
0
VERTEX
8
0
62
5
10
-0.28284274
20
0.70586463
30
0
70
32
0
VERTEX
8
0
62
5
10
-0.21213206
20
0.70586457
30
0
70
32
0
VERTEX
8
0
62
5
10
-0.14142138
20
0.71733933
30
0
70
32
0
VERTEX
8
0
62
5
10
-0.070710705
20
0.71733939
30
0
70
32
0
VERTEX
8
0
62
5
10
-2.6626857e-08
20
0.70586463
30
0
70
32
0
SEQEND
8
0
0
POLYLINE
8
0
62
30
66
1
10
0
20
0
30
0
70
8
0
VERTEX
8
0
62
30
10
-0.28284274
20
0.70586457
30
0
70
32
0
VERTEX
8
0
62
30
10
-2.6626857e-08
20
0.70586457
30
0
70
32
0
SEQEND
8
0
0
POLYLINE
8
0
62
30
66
1
10
0
20
0
30
0
70
8
0
VERTEX
8
0
62
30
10
-0.21213206
20
0.70586457
30
0
70
32
0
VERTEX
8
0
62
30
10
-0.21213206
20
0.70586457
30
0
70
32
0
SEQEND
8
0
0
POLYLINE
8
0
62
30
66
1
10
0
20
0
30
0
70
8
0
VERTEX
8
0
62
30
10
-0.14142138
20
0.69438981
30
0
70
32
0
VERTEX
8
0
62
30
10
-0.14142138
20
0.70586457
30
0
70
32
0
SEQEND
8
0
0
POLYLINE
8
0
62
30
66
1
10
0
20
0
30
0
70
8
0
VERTEX
8
0
62
30
10
-0.070710705
20
0.69438975
30
0
70
32
0
VERTEX
8
0
62
30
10
-0.070710705
20
0.70586457
30
0
70
32
0
SEQEND
8
0
0
POLYLINE
8
0
62
5
66
1
10
0
20
0
30
0
70
8
0
VERTEX
8
0
62
5
10
-0.21213206
20
0.69201328
30
0
70
32
0
VERTEX
8
0
62
5
10
-0.21213206
20
0.70586457
30
0
70
32
0
SEQEND
8
0
0
POLYLINE
8
0
62
5
66
1
10
0
20
0
30
0
70
8
0
VERTEX
8
0
62
5
10
-0.14142138
20
0.69201328
30
0
70
32
0
VERTEX
8
0
62
5
10
-0.14142138
20
0.69438981
30
0
70
32
0
SEQEND
8
0
0
POLYLINE
8
0
62
5
66
1
10
0
20
0
30
0
70
8
0
VERTEX
8
0
62
5
10
-0.070710705
20
0.69201328
30
0
70
32
0
VERTEX
8
0
62
5
10
-0.070710705
20
0.69438975
30
0
70
32
0
SEQEND
8
0
0
POLYLINE
8
0
62
5
66
1
10
0
20
0
30
0
70
8
0
VERTEX
8
0
62
5
10
-0.21213206
20
0.70586457
30
0
70
32
0
VERTEX
8
0
62
5
10
-0.21213206
20
0.71971586
30
0
70
32
0
SEQEND
8
0
0
POLYLINE
8
0
62
5
66
1
10
0
20
0
30
0
70
8
0
VERTEX
8
0
62
5
10
-0.14142138
20
0.70586457
30
0
70
32
0
VERTEX
8
0
62
5
10
-0.14142138
20
0.71971586
30
0
70
32
0
SEQEND
8
0
0
POLYLINE
8
0
62
5
66
1
10
0
20
0
30
0
70
8
0
VERTEX
8
0
62
5
10
-0.070710705
20
0.70586457
30
0
70
32
0
VERTEX
8
0
62
5
10
-0.070710705
20
0.71971586
30
0
70
32
0
SEQEND
8
0
0
POLYLINE
8
0
62
30
66
1
10
0
20
0
30
0
70
8
0
VERTEX
8
0
62
30
10
-0.28284274
20
0.70586451
30
0
70
32
0
VERTEX
8
0
62
30
10
-0.28284267
20
0.70586457
30
0
70
32
0
VERTEX
8
0
62
30
10
-0.28284274
20
0.70586463
30
0
70
32
0
SEQEND
8
0
0
POLYLINE
8
0
62
30
66
1
10
0
20
0
30
0
70
8
0
VERTEX
8
0
62
30
10
-0.21213206
20
0.70586457
30
0
70
32
0
VERTEX
8
0
62
30
10
-0.21213206
20
0.70586457
30
0
70
32
0
VERTEX
8
0
62
30
10
-0.21213206
20
0.70586457
30
0
70
32
0
SEQEND
8
0
0
POLYLINE
8
0
62
30
66
1
10
0
20
0
30
0
70
8
0
VERTEX
8
0
62
30
10
-0.14142138
20
0.69438981
30
0
70
32
0
VERTEX
8
0
62
30
10
-0.13165861
20
0.70586457
30
0
70
32
0
VERTEX
8
0
62
30
10
-0.14142138
20
0.71733933
30
0
70
32
0
SEQEND
8
0
0
POLYLINE
8
0
62
30
66
1
10
0
20
0
30
0
70
8
0
VERTEX
8
0
62
30
10
-0.070710705
20
0.69438975
30
0
70
32
0
VERTEX
8
0
62
30
10
-0.060947894
20
0.70586457
30
0
70
32
0
VERTEX
8
0
62
30
10
-0.070710705
20
0.71733939
30
0
70
32
0
SEQEND
8
0
0
POLYLINE
8
0
62
5
66
1
10
0
20
0
30
0
70
8
0
VERTEX
8
0
62
5
10
-2.6626857e-08
20
0.71971586
30
0
70
32
0
VERTEX
8
0
62
5
10
-2.6626857e-08
20
0.72071586
30
0
70
32
0
SEQEND
8
0
0
POLYLINE
8
0
62
5
66
1
10
0
20
0
30
0
70
8
0
VERTEX
8
0
62
5
10
0.28284269
20
0.71971586
30
0
70
32
0
VERTEX
8
0
62
5
10
0.28284269
20
0.72071586
30
0
70
32
0
SEQEND
8
0
0
POLYLINE
8
0
62
5
66
1
10
0
20
0
30
0
70
8
0
VERTEX
8
0
62
5
10
0.070710651
20
0.71971586
30
0
70
32
0
VERTEX
8
0
62
5
10
0.070710651
20
0.72071586
30
0
70
32
0
SEQEND
8
0
0
POLYLINE
8
0
62
5
66
1
10
0
20
0
30
0
70
8
0
VERTEX
8
0
62
5
10
0.14142133
20
0.71971586
30
0
70
32
0
VERTEX
8
0
62
5
10
0.14142133
20
0.72071586
30
0
70
32
0
SEQEND
8
0
0
POLYLINE
8
0
62
5
66
1
10
0
20
0
30
0
70
8
0
VERTEX
8
0
62
5
10
0.21213201
20
0.71971586
30
0
70
32
0
VERTEX
8
0
62
5
10
0.21213201
20
0.72071586
30
0
70
32
0
SEQEND
8
0
0
POLYLINE
8
0
62
5
66
1
10
0
20
0
30
0
70
8
0
VERTEX
8
0
62
5
10
0.5656854
20
0.71971586
30
0
70
32
0
VERTEX
8
0
62
5
10
0.5656854
20
0.72071586
30
0
70
32
0
SEQEND
8
0
0
POLYLINE
8
0
62
5
66
1
10
0
20
0
30
0
70
8
0
VERTEX
8
0
62
5
10
0.35355336
20
0.71971586
30
0
70
32
0
VERTEX
8
0
62
5
10
0.35355336
20
0.72071586
30
0
70
32
0
SEQEND
8
0
0
POLYLINE
8
0
62
5
66
1
10
0
20
0
30
0
70
8
0
VERTEX
8
0
62
5
10
0.42426404
20
0.71971586
30
0
70
32
0
VERTEX
8
0
62
5
10
0.42426404
20
0.72071586
30
0
70
32
0
SEQEND
8
0
0
POLYLINE
8
0
62
5
66
1
10
0
20
0
30
0
70
8
0
VERTEX
8
0
62
5
10
0.49497472
20
0.71971586
30
0
70
32
0
VERTEX
8
0
62
5
10
0.49497472
20
0.72071586
30
0
70
32
0
SEQEND
8
0
0
POLYLINE
8
0
62
5
66
1
10
0
20
0
30
0
70
8
0
VERTEX
8
0
62
5
10
-0.28284274
20
0.71971586
30
0
70
32
0
VERTEX
8
0
62
5
10
-0.28284274
20
0.72071586
30
0
70
32
0
SEQEND
8
0
0
POLYLINE
8
0
62
5
66
1
10
0
20
0
30
0
70
8
0
VERTEX
8
0
62
5
10
-0.21213206
20
0.71971586
30
0
70
32
0
VERTEX
8
0
62
5
10
-0.21213206
20
0.72071586
30
0
70
32
0
SEQEND
8
0
0
POLYLINE
8
0
62
5
66
1
10
0
20
0
30
0
70
8
0
VERTEX
8
0
62
5
10
-0.14142138
20
0.71971586
30
0
70
32
0
VERTEX
8
0
62
5
10
-0.14142138
20
0.72071586
30
0
70
32
0
SEQEND
8
0
0
POLYLINE
8
0
62
5
66
1
10
0
20
0
30
0
70
8
0
VERTEX
8
0
62
5
10
-0.070710705
20
0.71971586
30
0
70
32
0
VERTEX
8
0
62
5
10
-0.070710705
20
0.72071586
30
0
70
32
0
SEQEND
8
0
0
POLYLINE
8
0
62
5
66
1
10
0
20
0
30
0
70
8
0
VERTEX
8
0
62
5
10
-2.6626857e-08
20
0.72071586
30
0
70
32
0
VERTEX
8
0
62
5
10
-2.6626857e-08
20
0.89142668
30
0
70
32
0
SEQEND
8
0
0
POLYLINE
8
0
62
5
66
1
10
0
20
0
30
0
70
8
0
VERTEX
8
0
62
5
10
0.28284269
20
0.89142668
30
0
70
32
0
VERTEX
8
0
62
5
10
0.28284269
20
0.72071586
30
0
70
32
0
SEQEND
8
0
0
POLYLINE
8
0
62
5
66
1
10
0
20
0
30
0
70
8
0
VERTEX
8
0
62
5
10
-2.6626857e-08
20
0.80607127
30
0
70
32
0
VERTEX
8
0
62
5
10
0.070710651
20
0.80607113
30
0
70
32
0
VERTEX
8
0
62
5
10
0.14142133
20
0.73536045
30
0
70
32
0
VERTEX
8
0
62
5
10
0.21213201
20
0.73536059
30
0
70
32
0
VERTEX
8
0
62
5
10
0.28284269
20
0.80607127
30
0
70
32
0
SEQEND
8
0
0
POLYLINE
8
0
62
5
66
1
10
0
20
0
30
0
70
8
0
SEQEND
8
0
0
POLYLINE
8
0
62
5
66
1
10
0
20
0
30
0
70
8
0
VERTEX
8
0
62
5
10
-2.6626857e-08
20
0.80607127
30
0
70
32
0
VERTEX
8
0
62
5
10
0.070710651
20
0.80607142
30
0
70
32
0
VERTEX
8
0
62
5
10
0.14142133
20
0.8767821
30
0
70
32
0
VERTEX
8
0
62
5
10
0.21213201
20
0.87678195
30
0
70
32
0
VERTEX
8
0
62
5
10
0.28284269
20
0.80607127
30
0
70
32
0
SEQEND
8
0
0
POLYLINE
8
0
62
30
66
1
10
0
20
0
30
0
70
8
0
VERTEX
8
0
62
30
10
-2.6626857e-08
20
0.80607127
30
0
70
32
0
VERTEX
8
0
62
30
10
0.28284269
20
0.80607127
30
0
70
32
0
SEQEND
8
0
0
POLYLINE
8
0
62
30
66
1
10
0
20
0
30
0
70
8
0
VERTEX
8
0
62
30
10
0.070710651
20
0.80607113
30
0
70
32
0
VERTEX
8
0
62
30
10
0.070710651
20
0.80607127
30
0
70
32
0
SEQEND
8
0
0
POLYLINE
8
0
62
30
66
1
10
0
20
0
30
0
70
8
0
VERTEX
8
0
62
30
10
0.14142133
20
0.73536045
30
0
70
32
0
VERTEX
8
0
62
30
10
0.14142133
20
0.80607127
30
0
70
32
0
SEQEND
8
0
0
POLYLINE
8
0
62
30
66
1
10
0
20
0
30
0
70
8
0
VERTEX
8
0
62
30
10
0.21213201
20
0.73536059
30
0
70
32
0
VERTEX
8
0
62
30
10
0.21213201
20
0.80607127
30
0
70
32
0
SEQEND
8
0
0
POLYLINE
8
0
62
5
66
1
10
0
20
0
30
0
70
8
0
VERTEX
8
0
62
5
10
0.070710651
20
0.72071586
30
0
70
32
0
VERTEX
8
0
62
5
10
0.070710651
20
0.80607113
30
0
70
32
0
SEQEND
8
0
0
POLYLINE
8
0
62
5
66
1
10
0
20
0
30
0
70
8
0
VERTEX
8
0
62
5
10
0.14142133
20
0.72071586
30
0
70
32
0
VERTEX
8
0
62
5
10
0.14142133
20
0.73536045
30
0
70
32
0
SEQEND
8
0
0
POLYLINE
8
0
62
5
66
1
10
0
20
0
30
0
70
8
0
VERTEX
8
0
62
5
10
0.21213201
20
0.72071586
30
0
70
32
0
VERTEX
8
0
62
5
10
0.21213201
20
0.73536059
30
0
70
32
0
SEQEND
8
0
0
POLYLINE
8
0
62
5
66
1
10
0
20
0
30
0
70
8
0
VERTEX
8
0
62
5
10
0.070710651
20
0.80607127
30
0
70
32
0
VERTEX
8
0
62
5
10
0.070710651
20
0.89142668
30
0
70
32
0
SEQEND
8
0
0
POLYLINE
8
0
62
5
66
1
10
0
20
0
30
0
70
8
0
VERTEX
8
0
62
5
10
0.14142133
20
0.80607127
30
0
70
32
0
VERTEX
8
0
62
5
10
0.14142133
20
0.89142668
30
0
70
32
0
SEQEND
8
0
0
POLYLINE
8
0
62
5
66
1
10
0
20
0
30
0
70
8
0
VERTEX
8
0
62
5
10
0.21213201
20
0.80607127
30
0
70
32
0
VERTEX
8
0
62
5
10
0.21213201
20
0.89142668
30
0
70
32
0
SEQEND
8
0
0
POLYLINE
8
0
62
30
66
1
10
0
20
0
30
0
70
8
0
VERTEX
8
0
62
30
10
-2.6626857e-08
20
0.80607127
30
0
70
32
0
VERTEX
8
0
62
30
10
-2.6626857e-08
20
0.80607127
30
0
70
32
0
VERTEX
8
0
62
30
10
-2.6626857e-08
20
0.80607127
30
0
70
32
0
SEQEND
8
0
0
POLYLINE
8
0
62
30
66
1
10
0
20
0
30
0
70
8
0
VERTEX
8
0
62
30
10
0.070710651
20
0.80607113
30
0
70
32
0
VERTEX
8
0
62
30
10
0.070711003
20
0.80607127
30
0
70
32
0
VERTEX
8
0
62
30
10
0.070710651
20
0.80607142
30
0
70
32
0
SEQEND
8
0
0
POLYLINE
8
0
62
30
66
1
10
0
20
0
30
0
70
8
0
VERTEX
8
0
62
30
10
0.14142133
20
0.73536045
30
0
70
32
0
VERTEX
8
0
62
30
10
0.17071069
20
0.80607127
30
0
70
32
0
VERTEX
8
0
62
30
10
0.14142133
20
0.8767821
30
0
70
32
0
SEQEND
8
0
0
POLYLINE
8
0
62
30
66
1
10
0
20
0
30
0
70
8
0
VERTEX
8
0
62
30
10
0.21213201
20
0.73536059
30
0
70
32
0
VERTEX
8
0
62
30
10
0.24142135
20
0.80607127
30
0
70
32
0
VERTEX
8
0
62
30
10
0.21213201
20
0.87678195
30
0
70
32
0
SEQEND
8
0
0
POLYLINE
8
0
62
5
66
1
10
0
20
0
30
0
70
8
0
VERTEX
8
0
62
5
10
0.5656854
20
0.89142668
30
0
70
32
0
VERTEX
8
0
62
5
10
0.5656854
20
0.72071586
30
0
70
32
0
SEQEND
8
0
0
POLYLINE
8
0
62
5
66
1
10
0
20
0
30
0
70
8
0
VERTEX
8
0
62
5
10
0.28284269
20
0.80607127
30
0
70
32
0
VERTEX
8
0
62
5
10
0.35355336
20
0.80607113
30
0
70
32
0
VERTEX
8
0
62
5
10
0.42426404
20
0.73536045
30
0
70
32
0
VERTEX
8
0
62
5
10
0.49497472
20
0.73536059
30
0
70
32
0
VERTEX
8
0
62
5
10
0.5656854
20
0.80607127
30
0
70
32
0
SEQEND
8
0
0
POLYLINE
8
0
62
5
66
1
10
0
20
0
30
0
70
8
0
SEQEND
8
0
0
POLYLINE
8
0
62
5
66
1
10
0
20
0
30
0
70
8
0
VERTEX
8
0
62
5
10
0.28284269
20
0.80607127
30
0
70
32
0
VERTEX
8
0
62
5
10
0.35355336
20
0.80607142
30
0
70
32
0
VERTEX
8
0
62
5
10
0.42426404
20
0.8767821
30
0
70
32
0
VERTEX
8
0
62
5
10
0.49497472
20
0.87678195
30
0
70
32
0
VERTEX
8
0
62
5
10
0.5656854
20
0.80607127
30
0
70
32
0
SEQEND
8
0
0
POLYLINE
8
0
62
30
66
1
10
0
20
0
30
0
70
8
0
VERTEX
8
0
62
30
10
0.28284269
20
0.80607127
30
0
70
32
0
VERTEX
8
0
62
30
10
0.5656854
20
0.80607127
30
0
70
32
0
SEQEND
8
0
0
POLYLINE
8
0
62
30
66
1
10
0
20
0
30
0
70
8
0
VERTEX
8
0
62
30
10
0.35355336
20
0.80607113
30
0
70
32
0
VERTEX
8
0
62
30
10
0.35355336
20
0.80607127
30
0
70
32
0
SEQEND
8
0
0
POLYLINE
8
0
62
30
66
1
10
0
20
0
30
0
70
8
0
VERTEX
8
0
62
30
10
0.42426404
20
0.73536045
30
0
70
32
0
VERTEX
8
0
62
30
10
0.42426404
20
0.80607127
30
0
70
32
0
SEQEND
8
0
0
POLYLINE
8
0
62
30
66
1
10
0
20
0
30
0
70
8
0
VERTEX
8
0
62
30
10
0.49497472
20
0.73536059
30
0
70
32
0
VERTEX
8
0
62
30
10
0.49497472
20
0.80607127
30
0
70
32
0
SEQEND
8
0
0
POLYLINE
8
0
62
5
66
1
10
0
20
0
30
0
70
8
0
VERTEX
8
0
62
5
10
0.35355336
20
0.72071586
30
0
70
32
0
VERTEX
8
0
62
5
10
0.35355336
20
0.80607113
30
0
70
32
0
SEQEND
8
0
0
POLYLINE
8
0
62
5
66
1
10
0
20
0
30
0
70
8
0
VERTEX
8
0
62
5
10
0.42426404
20
0.72071586
30
0
70
32
0
VERTEX
8
0
62
5
10
0.42426404
20
0.73536045
30
0
70
32
0
SEQEND
8
0
0
POLYLINE
8
0
62
5
66
1
10
0
20
0
30
0
70
8
0
VERTEX
8
0
62
5
10
0.49497472
20
0.72071586
30
0
70
32
0
VERTEX
8
0
62
5
10
0.49497472
20
0.73536059
30
0
70
32
0
SEQEND
8
0
0
POLYLINE
8
0
62
5
66
1
10
0
20
0
30
0
70
8
0
VERTEX
8
0
62
5
10
0.35355336
20
0.80607127
30
0
70
32
0
VERTEX
8
0
62
5
10
0.35355336
20
0.89142668
30
0
70
32
0
SEQEND
8
0
0
POLYLINE
8
0
62
5
66
1
10
0
20
0
30
0
70
8
0
VERTEX
8
0
62
5
10
0.42426404
20
0.80607127
30
0
70
32
0
VERTEX
8
0
62
5
10
0.42426404
20
0.89142668
30
0
70
32
0
SEQEND
8
0
0
POLYLINE
8
0
62
5
66
1
10
0
20
0
30
0
70
8
0
VERTEX
8
0
62
5
10
0.49497472
20
0.80607127
30
0
70
32
0
VERTEX
8
0
62
5
10
0.49497472
20
0.89142668
30
0
70
32
0
SEQEND
8
0
0
POLYLINE
8
0
62
30
66
1
10
0
20
0
30
0
70
8
0
VERTEX
8
0
62
30
10
0.28284269
20
0.80607127
30
0
70
32
0
VERTEX
8
0
62
30
10
0.28284269
20
0.80607127
30
0
70
32
0
VERTEX
8
0
62
30
10
0.28284269
20
0.80607127
30
0
70
32
0
SEQEND
8
0
0
POLYLINE
8
0
62
30
66
1
10
0
20
0
30
0
70
8
0
VERTEX
8
0
62
30
10
0.35355336
20
0.80607113
30
0
70
32
0
VERTEX
8
0
62
30
10
0.35355372
20
0.80607127
30
0
70
32
0
VERTEX
8
0
62
30
10
0.35355336
20
0.80607142
30
0
70
32
0
SEQEND
8
0
0
POLYLINE
8
0
62
30
66
1
10
0
20
0
30
0
70
8
0
VERTEX
8
0
62
30
10
0.42426404
20
0.73536045
30
0
70
32
0
VERTEX
8
0
62
30
10
0.4535534
20
0.80607127
30
0
70
32
0
VERTEX
8
0
62
30
10
0.42426404
20
0.8767821
30
0
70
32
0
SEQEND
8
0
0
POLYLINE
8
0
62
30
66
1
10
0
20
0
30
0
70
8
0
VERTEX
8
0
62
30
10
0.49497472
20
0.73536059
30
0
70
32
0
VERTEX
8
0
62
30
10
0.52426407
20
0.80607127
30
0
70
32
0
VERTEX
8
0
62
30
10
0.49497472
20
0.87678195
30
0
70
32
0
SEQEND
8
0
0
POLYLINE
8
0
62
5
66
1
10
0
20
0
30
0
70
8
0
VERTEX
8
0
62
5
10
-0.28284274
20
0.72071586
30
0
70
32
0
VERTEX
8
0
62
5
10
-0.28284274
20
0.89142668
30
0
70
32
0
SEQEND
8
0
0
POLYLINE
8
0
62
5
66
1
10
0
20
0
30
0
70
8
0
VERTEX
8
0
62
5
10
-0.28284274
20
0.80607127
30
0
70
32
0
VERTEX
8
0
62
5
10
-0.21213206
20
0.80607113
30
0
70
32
0
VERTEX
8
0
62
5
10
-0.14142138
20
0.73536045
30
0
70
32
0
VERTEX
8
0
62
5
10
-0.070710705
20
0.73536059
30
0
70
32
0
VERTEX
8
0
62
5
10
-2.6626857e-08
20
0.80607127
30
0
70
32
0
SEQEND
8
0
0
POLYLINE
8
0
62
5
66
1
10
0
20
0
30
0
70
8
0
SEQEND
8
0
0
POLYLINE
8
0
62
5
66
1
10
0
20
0
30
0
70
8
0
VERTEX
8
0
62
5
10
-0.28284274
20
0.80607127
30
0
70
32
0
VERTEX
8
0
62
5
10
-0.21213206
20
0.80607142
30
0
70
32
0
VERTEX
8
0
62
5
10
-0.14142138
20
0.8767821
30
0
70
32
0
VERTEX
8
0
62
5
10
-0.070710705
20
0.87678195
30
0
70
32
0
VERTEX
8
0
62
5
10
-2.6626857e-08
20
0.80607127
30
0
70
32
0
SEQEND
8
0
0
POLYLINE
8
0
62
30
66
1
10
0
20
0
30
0
70
8
0
VERTEX
8
0
62
30
10
-0.28284274
20
0.80607127
30
0
70
32
0
VERTEX
8
0
62
30
10
-2.6626857e-08
20
0.80607127
30
0
70
32
0
SEQEND
8
0
0
POLYLINE
8
0
62
30
66
1
10
0
20
0
30
0
70
8
0
VERTEX
8
0
62
30
10
-0.21213206
20
0.80607113
30
0
70
32
0
VERTEX
8
0
62
30
10
-0.21213206
20
0.80607127
30
0
70
32
0
SEQEND
8
0
0
POLYLINE
8
0
62
30
66
1
10
0
20
0
30
0
70
8
0
VERTEX
8
0
62
30
10
-0.14142138
20
0.73536045
30
0
70
32
0
VERTEX
8
0
62
30
10
-0.14142138
20
0.80607127
30
0
70
32
0
SEQEND
8
0
0
POLYLINE
8
0
62
30
66
1
10
0
20
0
30
0
70
8
0
VERTEX
8
0
62
30
10
-0.070710705
20
0.73536059
30
0
70
32
0
VERTEX
8
0
62
30
10
-0.070710705
20
0.80607127
30
0
70
32
0
SEQEND
8
0
0
POLYLINE
8
0
62
5
66
1
10
0
20
0
30
0
70
8
0
VERTEX
8
0
62
5
10
-0.21213206
20
0.72071586
30
0
70
32
0
VERTEX
8
0
62
5
10
-0.21213206
20
0.80607113
30
0
70
32
0
SEQEND
8
0
0
POLYLINE
8
0
62
5
66
1
10
0
20
0
30
0
70
8
0
VERTEX
8
0
62
5
10
-0.14142138
20
0.72071586
30
0
70
32
0
VERTEX
8
0
62
5
10
-0.14142138
20
0.73536045
30
0
70
32
0
SEQEND
8
0
0
POLYLINE
8
0
62
5
66
1
10
0
20
0
30
0
70
8
0
VERTEX
8
0
62
5
10
-0.070710705
20
0.72071586
30
0
70
32
0
VERTEX
8
0
62
5
10
-0.070710705
20
0.73536059
30
0
70
32
0
SEQEND
8
0
0
POLYLINE
8
0
62
5
66
1
10
0
20
0
30
0
70
8
0
VERTEX
8
0
62
5
10
-0.21213206
20
0.80607127
30
0
70
32
0
VERTEX
8
0
62
5
10
-0.21213206
20
0.89142668
30
0
70
32
0
SEQEND
8
0
0
POLYLINE
8
0
62
5
66
1
10
0
20
0
30
0
70
8
0
VERTEX
8
0
62
5
10
-0.14142138
20
0.80607127
30
0
70
32
0
VERTEX
8
0
62
5
10
-0.14142138
20
0.89142668
30
0
70
32
0
SEQEND
8
0
0
POLYLINE
8
0
62
5
66
1
10
0
20
0
30
0
70
8
0
VERTEX
8
0
62
5
10
-0.070710705
20
0.80607127
30
0
70
32
0
VERTEX
8
0
62
5
10
-0.070710705
20
0.89142668
30
0
70
32
0
SEQEND
8
0
0
POLYLINE
8
0
62
30
66
1
10
0
20
0
30
0
70
8
0
VERTEX
8
0
62
30
10
-0.28284274
20
0.80607127
30
0
70
32
0
VERTEX
8
0
62
30
10
-0.28284274
20
0.80607127
30
0
70
32
0
VERTEX
8
0
62
30
10
-0.28284274
20
0.80607127
30
0
70
32
0
SEQEND
8
0
0
POLYLINE
8
0
62
30
66
1
10
0
20
0
30
0
70
8
0
VERTEX
8
0
62
30
10
-0.21213206
20
0.80607113
30
0
70
32
0
VERTEX
8
0
62
30
10
-0.21213171
20
0.80607127
30
0
70
32
0
VERTEX
8
0
62
30
10
-0.21213206
20
0.80607142
30
0
70
32
0
SEQEND
8
0
0
POLYLINE
8
0
62
30
66
1
10
0
20
0
30
0
70
8
0
VERTEX
8
0
62
30
10
-0.14142138
20
0.73536045
30
0
70
32
0
VERTEX
8
0
62
30
10
-0.11213203
20
0.80607127
30
0
70
32
0
VERTEX
8
0
62
30
10
-0.14142138
20
0.8767821
30
0
70
32
0
SEQEND
8
0
0
POLYLINE
8
0
62
30
66
1
10
0
20
0
30
0
70
8
0
VERTEX
8
0
62
30
10
-0.070710705
20
0.73536059
30
0
70
32
0
VERTEX
8
0
62
30
10
-0.041421358
20
0.80607127
30
0
70
32
0
VERTEX
8
0
62
30
10
-0.070710705
20
0.87678195
30
0
70
32
0
SEQEND
8
0
0
POLYLINE
8
0
62
5
66
1
10
0
20
0
30
0
70
8
0
VERTEX
8
0
62
5
10
-2.6626857e-08
20
0.89142668
30
0
70
32
0
VERTEX
8
0
62
5
10
-2.6626857e-08
20
0.89142684
30
0
70
32
0
SEQEND
8
0
0
POLYLINE
8
0
62
5
66
1
10
0
20
0
30
0
70
8
0
VERTEX
8
0
62
5
10
0.070710651
20
0.89142668
30
0
70
32
0
VERTEX
8
0
62
5
10
0.070710651
20
0.89142684
30
0
70
32
0
SEQEND
8
0
0
POLYLINE
8
0
62
5
66
1
10
0
20
0
30
0
70
8
0
VERTEX
8
0
62
5
10
0.14142133
20
0.89142668
30
0
70
32
0
VERTEX
8
0
62
5
10
0.14142133
20
0.89142684
30
0
70
32
0
SEQEND
8
0
0
POLYLINE
8
0
62
5
66
1
10
0
20
0
30
0
70
8
0
VERTEX
8
0
62
5
10
0.21213201
20
0.89142668
30
0
70
32
0
VERTEX
8
0
62
5
10
0.21213201
20
0.89142684
30
0
70
32
0
SEQEND
8
0
0
POLYLINE
8
0
62
5
66
1
10
0
20
0
30
0
70
8
0
VERTEX
8
0
62
5
10
0.28284269
20
0.89142668
30
0
70
32
0
VERTEX
8
0
62
5
10
0.28284269
20
0.89142684
30
0
70
32
0
SEQEND
8
0
0
POLYLINE
8
0
62
5
66
1
10
0
20
0
30
0
70
8
0
VERTEX
8
0
62
5
10
0.070710651
20
0.89142668
30
0
70
32
0
VERTEX
8
0
62
5
10
0.070710651
20
0.89142668
30
0
70
32
0
SEQEND
8
0
0
POLYLINE
8
0
62
5
66
1
10
0
20
0
30
0
70
8
0
VERTEX
8
0
62
5
10
0.14142133
20
0.89142668
30
0
70
32
0
VERTEX
8
0
62
5
10
0.14142133
20
0.89142668
30
0
70
32
0
SEQEND
8
0
0
POLYLINE
8
0
62
5
66
1
10
0
20
0
30
0
70
8
0
VERTEX
8
0
62
5
10
0.21213201
20
0.89142668
30
0
70
32
0
VERTEX
8
0
62
5
10
0.21213201
20
0.89142668
30
0
70
32
0
SEQEND
8
0
0
POLYLINE
8
0
62
5
66
1
10
0
20
0
30
0
70
8
0
VERTEX
8
0
62
5
10
0.070710506
20
0.89142684
30
0
70
32
0
VERTEX
8
0
62
5
10
0.070710506
20
0.89142684
30
0
70
32
0
SEQEND
8
0
0
POLYLINE
8
0
62
5
66
1
10
0
20
0
30
0
70
8
0
VERTEX
8
0
62
5
10
0.14142118
20
0.89142684
30
0
70
32
0
VERTEX
8
0
62
5
10
0.14142118
20
0.89142684
30
0
70
32
0
SEQEND
8
0
0
POLYLINE
8
0
62
5
66
1
10
0
20
0
30
0
70
8
0
VERTEX
8
0
62
5
10
0.21213186
20
0.89142684
30
0
70
32
0
VERTEX
8
0
62
5
10
0.21213186
20
0.89142684
30
0
70
32
0
SEQEND
8
0
0
POLYLINE
8
0
62
5
66
1
10
0
20
0
30
0
70
8
0
VERTEX
8
0
62
5
10
0.28284254
20
0.89142684
30
0
70
32
0
VERTEX
8
0
62
5
10
0.28284254
20
0.89142684
30
0
70
32
0
SEQEND
8
0
0
POLYLINE
8
0
62
5
66
1
10
0
20
0
30
0
70
8
0
VERTEX
8
0
62
5
10
0.35355336
20
0.89142668
30
0
70
32
0
VERTEX
8
0
62
5
10
0.35355336
20
0.89142684
30
0
70
32
0
SEQEND
8
0
0
POLYLINE
8
0
62
5
66
1
10
0
20
0
30
0
70
8
0
VERTEX
8
0
62
5
10
0.42426404
20
0.89142668
30
0
70
32
0
VERTEX
8
0
62
5
10
0.42426404
20
0.89142684
30
0
70
32
0
SEQEND
8
0
0
POLYLINE
8
0
62
5
66
1
10
0
20
0
30
0
70
8
0
VERTEX
8
0
62
5
10
0.49497472
20
0.89142668
30
0
70
32
0
VERTEX
8
0
62
5
10
0.49497472
20
0.89142684
30
0
70
32
0
SEQEND
8
0
0
POLYLINE
8
0
62
5
66
1
10
0
20
0
30
0
70
8
0
VERTEX
8
0
62
5
10
0.5656854
20
0.89142668
30
0
70
32
0
VERTEX
8
0
62
5
10
0.5656854
20
0.89142684
30
0
70
32
0
SEQEND
8
0
0
POLYLINE
8
0
62
5
66
1
10
0
20
0
30
0
70
8
0
VERTEX
8
0
62
5
10
0.35355336
20
0.89142668
30
0
70
32
0
VERTEX
8
0
62
5
10
0.35355336
20
0.89142668
30
0
70
32
0
SEQEND
8
0
0
POLYLINE
8
0
62
5
66
1
10
0
20
0
30
0
70
8
0
VERTEX
8
0
62
5
10
0.42426404
20
0.89142668
30
0
70
32
0
VERTEX
8
0
62
5
10
0.42426404
20
0.89142668
30
0
70
32
0
SEQEND
8
0
0
POLYLINE
8
0
62
5
66
1
10
0
20
0
30
0
70
8
0
VERTEX
8
0
62
5
10
0.49497472
20
0.89142668
30
0
70
32
0
VERTEX
8
0
62
5
10
0.49497472
20
0.89142668
30
0
70
32
0
SEQEND
8
0
0
POLYLINE
8
0
62
5
66
1
10
0
20
0
30
0
70
8
0
VERTEX
8
0
62
5
10
0.35355322
20
0.89142684
30
0
70
32
0
VERTEX
8
0
62
5
10
0.35355322
20
0.89142684
30
0
70
32
0
SEQEND
8
0
0
POLYLINE
8
0
62
5
66
1
10
0
20
0
30
0
70
8
0
VERTEX
8
0
62
5
10
0.4242639
20
0.89142684
30
0
70
32
0
VERTEX
8
0
62
5
10
0.4242639
20
0.89142684
30
0
70
32
0
SEQEND
8
0
0
POLYLINE
8
0
62
5
66
1
10
0
20
0
30
0
70
8
0
VERTEX
8
0
62
5
10
0.49497457
20
0.89142684
30
0
70
32
0
VERTEX
8
0
62
5
10
0.49497457
20
0.89142684
30
0
70
32
0
SEQEND
8
0
0
POLYLINE
8
0
62
5
66
1
10
0
20
0
30
0
70
8
0
VERTEX
8
0
62
5
10
0.56568525
20
0.89142684
30
0
70
32
0
VERTEX
8
0
62
5
10
0.56568525
20
0.89142684
30
0
70
32
0
SEQEND
8
0
0
POLYLINE
8
0
62
5
66
1
10
0
20
0
30
0
70
8
0
VERTEX
8
0
62
5
10
-0.21213206
20
0.89142668
30
0
70
32
0
VERTEX
8
0
62
5
10
-0.21213206
20
0.89142684
30
0
70
32
0
SEQEND
8
0
0
POLYLINE
8
0
62
5
66
1
10
0
20
0
30
0
70
8
0
VERTEX
8
0
62
5
10
-0.14142138
20
0.89142668
30
0
70
32
0
VERTEX
8
0
62
5
10
-0.14142138
20
0.89142684
30
0
70
32
0
SEQEND
8
0
0
POLYLINE
8
0
62
5
66
1
10
0
20
0
30
0
70
8
0
VERTEX
8
0
62
5
10
-0.070710705
20
0.89142668
30
0
70
32
0
VERTEX
8
0
62
5
10
-0.070710705
20
0.89142684
30
0
70
32
0
SEQEND
8
0
0
POLYLINE
8
0
62
5
66
1
10
0
20
0
30
0
70
8
0
VERTEX
8
0
62
5
10
-2.6626857e-08
20
0.89142668
30
0
70
32
0
VERTEX
8
0
62
5
10
-2.6626857e-08
20
0.89142684
30
0
70
32
0
SEQEND
8
0
0
POLYLINE
8
0
62
5
66
1
10
0
20
0
30
0
70
8
0
VERTEX
8
0
62
5
10
-0.21213206
20
0.89142668
30
0
70
32
0
VERTEX
8
0
62
5
10
-0.21213206
20
0.89142668
30
0
70
32
0
SEQEND
8
0
0
POLYLINE
8
0
62
5
66
1
10
0
20
0
30
0
70
8
0
VERTEX
8
0
62
5
10
-0.14142138
20
0.89142668
30
0
70
32
0
VERTEX
8
0
62
5
10
-0.14142138
20
0.89142668
30
0
70
32
0
SEQEND
8
0
0
POLYLINE
8
0
62
5
66
1
10
0
20
0
30
0
70
8
0
VERTEX
8
0
62
5
10
-0.070710705
20
0.89142668
30
0
70
32
0
VERTEX
8
0
62
5
10
-0.070710705
20
0.89142668
30
0
70
32
0
SEQEND
8
0
0
POLYLINE
8
0
62
5
66
1
10
0
20
0
30
0
70
8
0
VERTEX
8
0
62
5
10
-0.21213221
20
0.89142684
30
0
70
32
0
VERTEX
8
0
62
5
10
-0.21213221
20
0.89142684
30
0
70
32
0
SEQEND
8
0
0
POLYLINE
8
0
62
5
66
1
10
0
20
0
30
0
70
8
0
VERTEX
8
0
62
5
10
-0.14142153
20
0.89142684
30
0
70
32
0
VERTEX
8
0
62
5
10
-0.14142153
20
0.89142684
30
0
70
32
0
SEQEND
8
0
0
POLYLINE
8
0
62
5
66
1
10
0
20
0
30
0
70
8
0
VERTEX
8
0
62
5
10
-0.07071085
20
0.89142684
30
0
70
32
0
VERTEX
8
0
62
5
10
-0.07071085
20
0.89142684
30
0
70
32
0
SEQEND
8
0
0
POLYLINE
8
0
62
5
66
1
10
0
20
0
30
0
70
8
0
VERTEX
8
0
62
5
10
-1.7214523e-07
20
0.89142684
30
0
70
32
0
VERTEX
8
0
62
5
10
-1.7214523e-07
20
0.89142684
30
0
70
32
0
SEQEND
8
0
0
POLYLINE
8
0
62
5
66
1
10
0
20
0
30
0
70
8
0
VERTEX
8
0
62
5
10
-1.7214523e-07
20
0.89142684
30
0
70
32
0
VERTEX
8
0
62
5
10
-1.7214523e-07
20
0.89142706
30
0
70
32
0
SEQEND
8
0
0
POLYLINE
8
0
62
5
66
1
10
0
20
0
30
0
70
8
0
VERTEX
8
0
62
5
10
0.28284254
20
0.89142684
30
0
70
32
0
VERTEX
8
0
62
5
10
0.28284254
20
0.89142706
30
0
70
32
0
SEQEND
8
0
0
POLYLINE
8
0
62
5
66
1
10
0
20
0
30
0
70
8
0
VERTEX
8
0
62
5
10
0.070710506
20
0.89142684
30
0
70
32
0
VERTEX
8
0
62
5
10
0.070710506
20
0.89142706
30
0
70
32
0
SEQEND
8
0
0
POLYLINE
8
0
62
5
66
1
10
0
20
0
30
0
70
8
0
VERTEX
8
0
62
5
10
0.14142118
20
0.89142684
30
0
70
32
0
VERTEX
8
0
62
5
10
0.14142118
20
0.89142706
30
0
70
32
0
SEQEND
8
0
0
POLYLINE
8
0
62
5
66
1
10
0
20
0
30
0
70
8
0
VERTEX
8
0
62
5
10
0.21213186
20
0.89142684
30
0
70
32
0
VERTEX
8
0
62
5
10
0.21213186
20
0.89142706
30
0
70
32
0
SEQEND
8
0
0
POLYLINE
8
0
62
5
66
1
10
0
20
0
30
0
70
8
0
VERTEX
8
0
62
5
10
0.56568525
20
0.89142684
30
0
70
32
0
VERTEX
8
0
62
5
10
0.56568525
20
0.89142706
30
0
70
32
0
SEQEND
8
0
0
POLYLINE
8
0
62
5
66
1
10
0
20
0
30
0
70
8
0
VERTEX
8
0
62
5
10
0.35355322
20
0.89142684
30
0
70
32
0
VERTEX
8
0
62
5
10
0.35355322
20
0.89142706
30
0
70
32
0
SEQEND
8
0
0
POLYLINE
8
0
62
5
66
1
10
0
20
0
30
0
70
8
0
VERTEX
8
0
62
5
10
0.4242639
20
0.89142684
30
0
70
32
0
VERTEX
8
0
62
5
10
0.4242639
20
0.89142706
30
0
70
32
0
SEQEND
8
0
0
POLYLINE
8
0
62
5
66
1
10
0
20
0
30
0
70
8
0
VERTEX
8
0
62
5
10
0.49497457
20
0.89142684
30
0
70
32
0
VERTEX
8
0
62
5
10
0.49497457
20
0.89142706
30
0
70
32
0
SEQEND
8
0
0
POLYLINE
8
0
62
5
66
1
10
0
20
0
30
0
70
8
0
VERTEX
8
0
62
5
10
-0.28284288
20
0.89142684
30
0
70
32
0
VERTEX
8
0
62
5
10
-0.28284288
20
0.89142706
30
0
70
32
0
SEQEND
8
0
0
POLYLINE
8
0
62
5
66
1
10
0
20
0
30
0
70
8
0
VERTEX
8
0
62
5
10
-0.21213221
20
0.89142684
30
0
70
32
0
VERTEX
8
0
62
5
10
-0.21213221
20
0.89142706
30
0
70
32
0
SEQEND
8
0
0
POLYLINE
8
0
62
5
66
1
10
0
20
0
30
0
70
8
0
VERTEX
8
0
62
5
10
-0.14142153
20
0.89142684
30
0
70
32
0
VERTEX
8
0
62
5
10
-0.14142153
20
0.89142706
30
0
70
32
0
SEQEND
8
0
0
POLYLINE
8
0
62
5
66
1
10
0
20
0
30
0
70
8
0
VERTEX
8
0
62
5
10
-0.07071085
20
0.89142684
30
0
70
32
0
VERTEX
8
0
62
5
10
-0.07071085
20
0.89142706
30
0
70
32
0
SEQEND
8
0
0
POLYLINE
8
0
62
5
66
1
10
0
20
0
30
0
70
8
0
VERTEX
8
0
62
5
10
-1.7214523e-07
20
0.89142706
30
0
70
32
0
VERTEX
8
0
62
5
10
-1.7214523e-07
20
1.0621379
30
0
70
32
0
SEQEND
8
0
0
POLYLINE
8
0
62
5
66
1
10
0
20
0
30
0
70
8
0
VERTEX
8
0
62
5
10
0.28284254
20
1.0621379
30
0
70
32
0
VERTEX
8
0
62
5
10
0.28284254
20
0.89142706
30
0
70
32
0
SEQEND
8
0
0
POLYLINE
8
0
62
5
66
1
10
0
20
0
30
0
70
8
0
VERTEX
8
0
62
5
10
-1.7214523e-07
20
0.97678232
30
0
70
32
0
VERTEX
8
0
62
5
10
0.070710506
20
0.97678247
30
0
70
32
0
VERTEX
8
0
62
5
10
0.14142118
20
0.90607179
30
0
70
32
0
VERTEX
8
0
62
5
10
0.21213186
20
0.90607165
30
0
70
32
0
VERTEX
8
0
62
5
10
0.28284254
20
0.97678232
30
0
70
32
0
SEQEND
8
0
0
POLYLINE
8
0
62
5
66
1
10
0
20
0
30
0
70
8
0
SEQEND
8
0
0
POLYLINE
8
0
62
5
66
1
10
0
20
0
30
0
70
8
0
VERTEX
8
0
62
5
10
-1.7214523e-07
20
0.97678261
30
0
70
32
0
VERTEX
8
0
62
5
10
0.070710506
20
0.97678247
30
0
70
32
0
VERTEX
8
0
62
5
10
0.14142118
20
1.0474931
30
0
70
32
0
VERTEX
8
0
62
5
10
0.21213186
20
1.0474933
30
0
70
32
0
VERTEX
8
0
62
5
10
0.28284254
20
0.97678261
30
0
70
32
0
SEQEND
8
0
0
POLYLINE
8
0
62
30
66
1
10
0
20
0
30
0
70
8
0
VERTEX
8
0
62
30
10
-1.7214523e-07
20
0.97678247
30
0
70
32
0
VERTEX
8
0
62
30
10
0.28284254
20
0.97678247
30
0
70
32
0
SEQEND
8
0
0
POLYLINE
8
0
62
30
66
1
10
0
20
0
30
0
70
8
0
VERTEX
8
0
62
30
10
0.070710506
20
0.97678247
30
0
70
32
0
VERTEX
8
0
62
30
10
0.070710506
20
0.97678247
30
0
70
32
0
SEQEND
8
0
0
POLYLINE
8
0
62
30
66
1
10
0
20
0
30
0
70
8
0
VERTEX
8
0
62
30
10
0.14142118
20
0.90607179
30
0
70
32
0
VERTEX
8
0
62
30
10
0.14142118
20
0.97678247
30
0
70
32
0
SEQEND
8
0
0
POLYLINE
8
0
62
30
66
1
10
0
20
0
30
0
70
8
0
VERTEX
8
0
62
30
10
0.21213186
20
0.90607165
30
0
70
32
0
VERTEX
8
0
62
30
10
0.21213186
20
0.97678247
30
0
70
32
0
SEQEND
8
0
0
POLYLINE
8
0
62
5
66
1
10
0
20
0
30
0
70
8
0
VERTEX
8
0
62
5
10
0.070710506
20
0.89142706
30
0
70
32
0
VERTEX
8
0
62
5
10
0.070710506
20
0.97678247
30
0
70
32
0
SEQEND
8
0
0
POLYLINE
8
0
62
5
66
1
10
0
20
0
30
0
70
8
0
VERTEX
8
0
62
5
10
0.14142118
20
0.89142706
30
0
70
32
0
VERTEX
8
0
62
5
10
0.14142118
20
0.90607179
30
0
70
32
0
SEQEND
8
0
0
POLYLINE
8
0
62
5
66
1
10
0
20
0
30
0
70
8
0
VERTEX
8
0
62
5
10
0.21213186
20
0.89142706
30
0
70
32
0
VERTEX
8
0
62
5
10
0.21213186
20
0.90607165
30
0
70
32
0
SEQEND
8
0
0
POLYLINE
8
0
62
5
66
1
10
0
20
0
30
0
70
8
0
VERTEX
8
0
62
5
10
0.070710506
20
0.97678247
30
0
70
32
0
VERTEX
8
0
62
5
10
0.070710506
20
1.0621379
30
0
70
32
0
SEQEND
8
0
0
POLYLINE
8
0
62
5
66
1
10
0
20
0
30
0
70
8
0
VERTEX
8
0
62
5
10
0.14142118
20
0.97678247
30
0
70
32
0
VERTEX
8
0
62
5
10
0.14142118
20
1.0621379
30
0
70
32
0
SEQEND
8
0
0
POLYLINE
8
0
62
5
66
1
10
0
20
0
30
0
70
8
0
VERTEX
8
0
62
5
10
0.21213186
20
0.97678247
30
0
70
32
0
VERTEX
8
0
62
5
10
0.21213186
20
1.0621379
30
0
70
32
0
SEQEND
8
0
0
POLYLINE
8
0
62
30
66
1
10
0
20
0
30
0
70
8
0
VERTEX
8
0
62
30
10
-1.7214523e-07
20
0.97678232
30
0
70
32
0
VERTEX
8
0
62
30
10
1.7916473e-07
20
0.97678247
30
0
70
32
0
VERTEX
8
0
62
30
10
-1.7214523e-07
20
0.97678261
30
0
70
32
0
SEQEND
8
0
0
POLYLINE
8
0
62
30
66
1
10
0
20
0
30
0
70
8
0
VERTEX
8
0
62
30
10
0.070710506
20
0.97678247
30
0
70
32
0
VERTEX
8
0
62
30
10
0.070710506
20
0.97678247
30
0
70
32
0
VERTEX
8
0
62
30
10
0.070710506
20
0.97678247
30
0
70
32
0
SEQEND
8
0
0
POLYLINE
8
0
62
30
66
1
10
0
20
0
30
0
70
8
0
VERTEX
8
0
62
30
10
0.14142118
20
0.90607179
30
0
70
32
0
VERTEX
8
0
62
30
10
0.17071053
20
0.97678247
30
0
70
32
0
VERTEX
8
0
62
30
10
0.14142118
20
1.0474931
30
0
70
32
0
SEQEND
8
0
0
POLYLINE
8
0
62
30
66
1
10
0
20
0
30
0
70
8
0
VERTEX
8
0
62
30
10
0.21213186
20
0.90607165
30
0
70
32
0
VERTEX
8
0
62
30
10
0.24142122
20
0.97678247
30
0
70
32
0
VERTEX
8
0
62
30
10
0.21213186
20
1.0474933
30
0
70
32
0
SEQEND
8
0
0
POLYLINE
8
0
62
5
66
1
10
0
20
0
30
0
70
8
0
VERTEX
8
0
62
5
10
0.56568525
20
1.0621379
30
0
70
32
0
VERTEX
8
0
62
5
10
0.56568525
20
0.89142706
30
0
70
32
0
SEQEND
8
0
0
POLYLINE
8
0
62
5
66
1
10
0
20
0
30
0
70
8
0
VERTEX
8
0
62
5
10
0.28284254
20
0.97678232
30
0
70
32
0
VERTEX
8
0
62
5
10
0.35355322
20
0.97678247
30
0
70
32
0
VERTEX
8
0
62
5
10
0.4242639
20
0.90607179
30
0
70
32
0
VERTEX
8
0
62
5
10
0.49497457
20
0.90607165
30
0
70
32
0
VERTEX
8
0
62
5
10
0.56568525
20
0.97678232
30
0
70
32
0
SEQEND
8
0
0
POLYLINE
8
0
62
5
66
1
10
0
20
0
30
0
70
8
0
SEQEND
8
0
0
POLYLINE
8
0
62
5
66
1
10
0
20
0
30
0
70
8
0
VERTEX
8
0
62
5
10
0.28284254
20
0.97678261
30
0
70
32
0
VERTEX
8
0
62
5
10
0.35355322
20
0.97678247
30
0
70
32
0
VERTEX
8
0
62
5
10
0.4242639
20
1.0474931
30
0
70
32
0
VERTEX
8
0
62
5
10
0.49497457
20
1.0474933
30
0
70
32
0
VERTEX
8
0
62
5
10
0.56568525
20
0.97678261
30
0
70
32
0
SEQEND
8
0
0
POLYLINE
8
0
62
30
66
1
10
0
20
0
30
0
70
8
0
VERTEX
8
0
62
30
10
0.28284254
20
0.97678247
30
0
70
32
0
VERTEX
8
0
62
30
10
0.56568525
20
0.97678247
30
0
70
32
0
SEQEND
8
0
0
POLYLINE
8
0
62
30
66
1
10
0
20
0
30
0
70
8
0
VERTEX
8
0
62
30
10
0.35355322
20
0.97678247
30
0
70
32
0
VERTEX
8
0
62
30
10
0.35355322
20
0.97678247
30
0
70
32
0
SEQEND
8
0
0
POLYLINE
8
0
62
30
66
1
10
0
20
0
30
0
70
8
0
VERTEX
8
0
62
30
10
0.4242639
20
0.90607179
30
0
70
32
0
VERTEX
8
0
62
30
10
0.4242639
20
0.97678247
30
0
70
32
0
SEQEND
8
0
0
POLYLINE
8
0
62
30
66
1
10
0
20
0
30
0
70
8
0
VERTEX
8
0
62
30
10
0.49497457
20
0.90607165
30
0
70
32
0
VERTEX
8
0
62
30
10
0.49497457
20
0.97678247
30
0
70
32
0
SEQEND
8
0
0
POLYLINE
8
0
62
5
66
1
10
0
20
0
30
0
70
8
0
VERTEX
8
0
62
5
10
0.35355322
20
0.89142706
30
0
70
32
0
VERTEX
8
0
62
5
10
0.35355322
20
0.97678247
30
0
70
32
0
SEQEND
8
0
0
POLYLINE
8
0
62
5
66
1
10
0
20
0
30
0
70
8
0
VERTEX
8
0
62
5
10
0.4242639
20
0.89142706
30
0
70
32
0
VERTEX
8
0
62
5
10
0.4242639
20
0.90607179
30
0
70
32
0
SEQEND
8
0
0
POLYLINE
8
0
62
5
66
1
10
0
20
0
30
0
70
8
0
VERTEX
8
0
62
5
10
0.49497457
20
0.89142706
30
0
70
32
0
VERTEX
8
0
62
5
10
0.49497457
20
0.90607165
30
0
70
32
0
SEQEND
8
0
0
POLYLINE
8
0
62
5
66
1
10
0
20
0
30
0
70
8
0
VERTEX
8
0
62
5
10
0.35355322
20
0.97678247
30
0
70
32
0
VERTEX
8
0
62
5
10
0.35355322
20
1.0621379
30
0
70
32
0
SEQEND
8
0
0
POLYLINE
8
0
62
5
66
1
10
0
20
0
30
0
70
8
0
VERTEX
8
0
62
5
10
0.4242639
20
0.97678247
30
0
70
32
0
VERTEX
8
0
62
5
10
0.4242639
20
1.0621379
30
0
70
32
0
SEQEND
8
0
0
POLYLINE
8
0
62
5
66
1
10
0
20
0
30
0
70
8
0
VERTEX
8
0
62
5
10
0.49497457
20
0.97678247
30
0
70
32
0
VERTEX
8
0
62
5
10
0.49497457
20
1.0621379
30
0
70
32
0
SEQEND
8
0
0
POLYLINE
8
0
62
30
66
1
10
0
20
0
30
0
70
8
0
VERTEX
8
0
62
30
10
0.28284254
20
0.97678232
30
0
70
32
0
VERTEX
8
0
62
30
10
0.28284289
20
0.97678247
30
0
70
32
0
VERTEX
8
0
62
30
10
0.28284254
20
0.97678261
30
0
70
32
0
SEQEND
8
0
0
POLYLINE
8
0
62
30
66
1
10
0
20
0
30
0
70
8
0
VERTEX
8
0
62
30
10
0.35355322
20
0.97678247
30
0
70
32
0
VERTEX
8
0
62
30
10
0.35355322
20
0.97678247
30
0
70
32
0
VERTEX
8
0
62
30
10
0.35355322
20
0.97678247
30
0
70
32
0
SEQEND
8
0
0
POLYLINE
8
0
62
30
66
1
10
0
20
0
30
0
70
8
0
VERTEX
8
0
62
30
10
0.4242639
20
0.90607179
30
0
70
32
0
VERTEX
8
0
62
30
10
0.45355324
20
0.97678247
30
0
70
32
0
VERTEX
8
0
62
30
10
0.4242639
20
1.0474931
30
0
70
32
0
SEQEND
8
0
0
POLYLINE
8
0
62
30
66
1
10
0
20
0
30
0
70
8
0
VERTEX
8
0
62
30
10
0.49497457
20
0.90607165
30
0
70
32
0
VERTEX
8
0
62
30
10
0.52426393
20
0.97678247
30
0
70
32
0
VERTEX
8
0
62
30
10
0.49497457
20
1.0474933
30
0
70
32
0
SEQEND
8
0
0
POLYLINE
8
0
62
5
66
1
10
0
20
0
30
0
70
8
0
VERTEX
8
0
62
5
10
-0.28284288
20
0.89142706
30
0
70
32
0
VERTEX
8
0
62
5
10
-0.28284288
20
1.0621379
30
0
70
32
0
SEQEND
8
0
0
POLYLINE
8
0
62
5
66
1
10
0
20
0
30
0
70
8
0
VERTEX
8
0
62
5
10
-0.28284288
20
0.97678232
30
0
70
32
0
VERTEX
8
0
62
5
10
-0.21213221
20
0.97678247
30
0
70
32
0
VERTEX
8
0
62
5
10
-0.14142153
20
0.90607179
30
0
70
32
0
VERTEX
8
0
62
5
10
-0.07071085
20
0.90607165
30
0
70
32
0
VERTEX
8
0
62
5
10
-1.7214523e-07
20
0.97678232
30
0
70
32
0
SEQEND
8
0
0
POLYLINE
8
0
62
5
66
1
10
0
20
0
30
0
70
8
0
SEQEND
8
0
0
POLYLINE
8
0
62
5
66
1
10
0
20
0
30
0
70
8
0
VERTEX
8
0
62
5
10
-0.28284288
20
0.97678261
30
0
70
32
0
VERTEX
8
0
62
5
10
-0.21213221
20
0.97678247
30
0
70
32
0
VERTEX
8
0
62
5
10
-0.14142153
20
1.0474931
30
0
70
32
0
VERTEX
8
0
62
5
10
-0.07071085
20
1.0474933
30
0
70
32
0
VERTEX
8
0
62
5
10
-1.7214523e-07
20
0.97678261
30
0
70
32
0
SEQEND
8
0
0
POLYLINE
8
0
62
30
66
1
10
0
20
0
30
0
70
8
0
VERTEX
8
0
62
30
10
-0.28284288
20
0.97678247
30
0
70
32
0
VERTEX
8
0
62
30
10
-1.7214523e-07
20
0.97678247
30
0
70
32
0
SEQEND
8
0
0
POLYLINE
8
0
62
30
66
1
10
0
20
0
30
0
70
8
0
VERTEX
8
0
62
30
10
-0.21213221
20
0.97678247
30
0
70
32
0
VERTEX
8
0
62
30
10
-0.21213221
20
0.97678247
30
0
70
32
0
SEQEND
8
0
0
POLYLINE
8
0
62
30
66
1
10
0
20
0
30
0
70
8
0
VERTEX
8
0
62
30
10
-0.14142153
20
0.90607179
30
0
70
32
0
VERTEX
8
0
62
30
10
-0.14142153
20
0.97678247
30
0
70
32
0
SEQEND
8
0
0
POLYLINE
8
0
62
30
66
1
10
0
20
0
30
0
70
8
0
VERTEX
8
0
62
30
10
-0.07071085
20
0.90607165
30
0
70
32
0
VERTEX
8
0
62
30
10
-0.07071085
20
0.97678247
30
0
70
32
0
SEQEND
8
0
0
POLYLINE
8
0
62
5
66
1
10
0
20
0
30
0
70
8
0
VERTEX
8
0
62
5
10
-0.21213221
20
0.89142706
30
0
70
32
0
VERTEX
8
0
62
5
10
-0.21213221
20
0.97678247
30
0
70
32
0
SEQEND
8
0
0
POLYLINE
8
0
62
5
66
1
10
0
20
0
30
0
70
8
0
VERTEX
8
0
62
5
10
-0.14142153
20
0.89142706
30
0
70
32
0
VERTEX
8
0
62
5
10
-0.14142153
20
0.90607179
30
0
70
32
0
SEQEND
8
0
0
POLYLINE
8
0
62
5
66
1
10
0
20
0
30
0
70
8
0
VERTEX
8
0
62
5
10
-0.07071085
20
0.89142706
30
0
70
32
0
VERTEX
8
0
62
5
10
-0.07071085
20
0.90607165
30
0
70
32
0
SEQEND
8
0
0
POLYLINE
8
0
62
5
66
1
10
0
20
0
30
0
70
8
0
VERTEX
8
0
62
5
10
-0.21213221
20
0.97678247
30
0
70
32
0
VERTEX
8
0
62
5
10
-0.21213221
20
1.0621379
30
0
70
32
0
SEQEND
8
0
0
POLYLINE
8
0
62
5
66
1
10
0
20
0
30
0
70
8
0
VERTEX
8
0
62
5
10
-0.14142153
20
0.97678247
30
0
70
32
0
VERTEX
8
0
62
5
10
-0.14142153
20
1.0621379
30
0
70
32
0
SEQEND
8
0
0
POLYLINE
8
0
62
5
66
1
10
0
20
0
30
0
70
8
0
VERTEX
8
0
62
5
10
-0.07071085
20
0.97678247
30
0
70
32
0
VERTEX
8
0
62
5
10
-0.07071085
20
1.0621379
30
0
70
32
0
SEQEND
8
0
0
POLYLINE
8
0
62
30
66
1
10
0
20
0
30
0
70
8
0
VERTEX
8
0
62
30
10
-0.28284288
20
0.97678232
30
0
70
32
0
VERTEX
8
0
62
30
10
-0.28284253
20
0.97678247
30
0
70
32
0
VERTEX
8
0
62
30
10
-0.28284288
20
0.97678261
30
0
70
32
0
SEQEND
8
0
0
POLYLINE
8
0
62
30
66
1
10
0
20
0
30
0
70
8
0
VERTEX
8
0
62
30
10
-0.21213221
20
0.97678247
30
0
70
32
0
VERTEX
8
0
62
30
10
-0.21213221
20
0.97678247
30
0
70
32
0
VERTEX
8
0
62
30
10
-0.21213221
20
0.97678247
30
0
70
32
0
SEQEND
8
0
0
POLYLINE
8
0
62
30
66
1
10
0
20
0
30
0
70
8
0
VERTEX
8
0
62
30
10
-0.14142153
20
0.90607179
30
0
70
32
0
VERTEX
8
0
62
30
10
-0.11213218
20
0.97678247
30
0
70
32
0
VERTEX
8
0
62
30
10
-0.14142153
20
1.0474931
30
0
70
32
0
SEQEND
8
0
0
POLYLINE
8
0
62
30
66
1
10
0
20
0
30
0
70
8
0
VERTEX
8
0
62
30
10
-0.07071085
20
0.90607165
30
0
70
32
0
VERTEX
8
0
62
30
10
-0.041421493
20
0.97678247
30
0
70
32
0
VERTEX
8
0
62
30
10
-0.07071085
20
1.0474933
30
0
70
32
0
SEQEND
8
0
0
POLYLINE
8
0
62
5
66
1
10
0
20
0
30
0
70
8
0
VERTEX
8
0
62
5
10
-1.7214523e-07
20
1.0621379
30
0
70
32
0
VERTEX
8
0
62
5
10
-1.7214523e-07
20
1.0631379
30
0
70
32
0
SEQEND
8
0
0
POLYLINE
8
0
62
5
66
1
10
0
20
0
30
0
70
8
0
VERTEX
8
0
62
5
10
0.28284254
20
1.0621379
30
0
70
32
0
VERTEX
8
0
62
5
10
0.28284254
20
1.0631379
30
0
70
32
0
SEQEND
8
0
0
POLYLINE
8
0
62
5
66
1
10
0
20
0
30
0
70
8
0
VERTEX
8
0
62
5
10
0.070710506
20
1.0621379
30
0
70
32
0
VERTEX
8
0
62
5
10
0.070710506
20
1.0631379
30
0
70
32
0
SEQEND
8
0
0
POLYLINE
8
0
62
5
66
1
10
0
20
0
30
0
70
8
0
VERTEX
8
0
62
5
10
0.14142118
20
1.0621379
30
0
70
32
0
VERTEX
8
0
62
5
10
0.14142118
20
1.0631379
30
0
70
32
0
SEQEND
8
0
0
POLYLINE
8
0
62
5
66
1
10
0
20
0
30
0
70
8
0
VERTEX
8
0
62
5
10
0.21213186
20
1.0621379
30
0
70
32
0
VERTEX
8
0
62
5
10
0.21213186
20
1.0631379
30
0
70
32
0
SEQEND
8
0
0
POLYLINE
8
0
62
5
66
1
10
0
20
0
30
0
70
8
0
VERTEX
8
0
62
5
10
0.56568525
20
1.0621379
30
0
70
32
0
VERTEX
8
0
62
5
10
0.56568525
20
1.0631379
30
0
70
32
0
SEQEND
8
0
0
POLYLINE
8
0
62
5
66
1
10
0
20
0
30
0
70
8
0
VERTEX
8
0
62
5
10
0.35355322
20
1.0621379
30
0
70
32
0
VERTEX
8
0
62
5
10
0.35355322
20
1.0631379
30
0
70
32
0
SEQEND
8
0
0
POLYLINE
8
0
62
5
66
1
10
0
20
0
30
0
70
8
0
VERTEX
8
0
62
5
10
0.4242639
20
1.0621379
30
0
70
32
0
VERTEX
8
0
62
5
10
0.4242639
20
1.0631379
30
0
70
32
0
SEQEND
8
0
0
POLYLINE
8
0
62
5
66
1
10
0
20
0
30
0
70
8
0
VERTEX
8
0
62
5
10
0.49497457
20
1.0621379
30
0
70
32
0
VERTEX
8
0
62
5
10
0.49497457
20
1.0631379
30
0
70
32
0
SEQEND
8
0
0
POLYLINE
8
0
62
5
66
1
10
0
20
0
30
0
70
8
0
VERTEX
8
0
62
5
10
-0.28284288
20
1.0621379
30
0
70
32
0
VERTEX
8
0
62
5
10
-0.28284288
20
1.0631379
30
0
70
32
0
SEQEND
8
0
0
POLYLINE
8
0
62
5
66
1
10
0
20
0
30
0
70
8
0
VERTEX
8
0
62
5
10
-0.21213221
20
1.0621379
30
0
70
32
0
VERTEX
8
0
62
5
10
-0.21213221
20
1.0631379
30
0
70
32
0
SEQEND
8
0
0
POLYLINE
8
0
62
5
66
1
10
0
20
0
30
0
70
8
0
VERTEX
8
0
62
5
10
-0.14142153
20
1.0621379
30
0
70
32
0
VERTEX
8
0
62
5
10
-0.14142153
20
1.0631379
30
0
70
32
0
SEQEND
8
0
0
POLYLINE
8
0
62
5
66
1
10
0
20
0
30
0
70
8
0
VERTEX
8
0
62
5
10
-0.07071085
20
1.0621379
30
0
70
32
0
VERTEX
8
0
62
5
10
-0.07071085
20
1.0631379
30
0
70
32
0
SEQEND
8
0
0
POLYLINE
8
0
62
5
66
1
10
0
20
0
30
0
70
8
0
VERTEX
8
0
62
5
10
-1.7214523e-07
20
1.0631379
30
0
70
32
0
VERTEX
8
0
62
5
10
-1.7214523e-07
20
1.2338486
30
0
70
32
0
SEQEND
8
0
0
POLYLINE
8
0
62
5
66
1
10
0
20
0
30
0
70
8
0
VERTEX
8
0
62
5
10
0.28284254
20
1.2338486
30
0
70
32
0
VERTEX
8
0
62
5
10
0.28284254
20
1.0631379
30
0
70
32
0
SEQEND
8
0
0
POLYLINE
8
0
62
5
66
1
10
0
20
0
30
0
70
8
0
VERTEX
8
0
62
5
10
-1.7214523e-07
20
1.0777825
30
0
70
32
0
VERTEX
8
0
62
5
10
0.070710506
20
1.1484932
30
0
70
32
0
VERTEX
8
0
62
5
10
0.14142118
20
1.1484932
30
0
70
32
0
VERTEX
8
0
62
5
10
0.21213186
20
1.0777825
30
0
70
32
0
VERTEX
8
0
62
5
10
0.28284254
20
1.0777825
30
0
70
32
0
SEQEND
8
0
0
POLYLINE
8
0
62
5
66
1
10
0
20
0
30
0
70
8
0
SEQEND
8
0
0
POLYLINE
8
0
62
5
66
1
10
0
20
0
30
0
70
8
0
VERTEX
8
0
62
5
10
-1.7214523e-07
20
1.2192039
30
0
70
32
0
VERTEX
8
0
62
5
10
0.070710506
20
1.1484932
30
0
70
32
0
VERTEX
8
0
62
5
10
0.14142118
20
1.1484932
30
0
70
32
0
VERTEX
8
0
62
5
10
0.21213186
20
1.2192039
30
0
70
32
0
VERTEX
8
0
62
5
10
0.28284254
20
1.2192039
30
0
70
32
0
SEQEND
8
0
0
POLYLINE
8
0
62
30
66
1
10
0
20
0
30
0
70
8
0
VERTEX
8
0
62
30
10
-1.7214523e-07
20
1.1484932
30
0
70
32
0
VERTEX
8
0
62
30
10
0.28284254
20
1.1484932
30
0
70
32
0
SEQEND
8
0
0
POLYLINE
8
0
62
30
66
1
10
0
20
0
30
0
70
8
0
VERTEX
8
0
62
30
10
0.070710506
20
1.1484932
30
0
70
32
0
VERTEX
8
0
62
30
10
0.070710506
20
1.1484932
30
0
70
32
0
SEQEND
8
0
0
POLYLINE
8
0
62
30
66
1
10
0
20
0
30
0
70
8
0
VERTEX
8
0
62
30
10
0.14142118
20
1.1484932
30
0
70
32
0
VERTEX
8
0
62
30
10
0.14142118
20
1.1484932
30
0
70
32
0
SEQEND
8
0
0
POLYLINE
8
0
62
30
66
1
10
0
20
0
30
0
70
8
0
VERTEX
8
0
62
30
10
0.21213186
20
1.0777825
30
0
70
32
0
VERTEX
8
0
62
30
10
0.21213186
20
1.1484932
30
0
70
32
0
SEQEND
8
0
0
POLYLINE
8
0
62
5
66
1
10
0
20
0
30
0
70
8
0
VERTEX
8
0
62
5
10
0.070710506
20
1.0631379
30
0
70
32
0
VERTEX
8
0
62
5
10
0.070710506
20
1.1484932
30
0
70
32
0
SEQEND
8
0
0
POLYLINE
8
0
62
5
66
1
10
0
20
0
30
0
70
8
0
VERTEX
8
0
62
5
10
0.14142118
20
1.0631379
30
0
70
32
0
VERTEX
8
0
62
5
10
0.14142118
20
1.1484932
30
0
70
32
0
SEQEND
8
0
0
POLYLINE
8
0
62
5
66
1
10
0
20
0
30
0
70
8
0
VERTEX
8
0
62
5
10
0.21213186
20
1.0631379
30
0
70
32
0
VERTEX
8
0
62
5
10
0.21213186
20
1.0777825
30
0
70
32
0
SEQEND
8
0
0
POLYLINE
8
0
62
5
66
1
10
0
20
0
30
0
70
8
0
VERTEX
8
0
62
5
10
0.070710506
20
1.1484932
30
0
70
32
0
VERTEX
8
0
62
5
10
0.070710506
20
1.2338486
30
0
70
32
0
SEQEND
8
0
0
POLYLINE
8
0
62
5
66
1
10
0
20
0
30
0
70
8
0
VERTEX
8
0
62
5
10
0.14142118
20
1.1484932
30
0
70
32
0
VERTEX
8
0
62
5
10
0.14142118
20
1.2338486
30
0
70
32
0
SEQEND
8
0
0
POLYLINE
8
0
62
5
66
1
10
0
20
0
30
0
70
8
0
VERTEX
8
0
62
5
10
0.21213186
20
1.1484932
30
0
70
32
0
VERTEX
8
0
62
5
10
0.21213186
20
1.2338486
30
0
70
32
0
SEQEND
8
0
0
POLYLINE
8
0
62
30
66
1
10
0
20
0
30
0
70
8
0
VERTEX
8
0
62
30
10
-1.7214523e-07
20
1.0777825
30
0
70
32
0
VERTEX
8
0
62
30
10
0.029289152
20
1.1484932
30
0
70
32
0
VERTEX
8
0
62
30
10
-1.7214523e-07
20
1.2192039
30
0
70
32
0
SEQEND
8
0
0
POLYLINE
8
0
62
30
66
1
10
0
20
0
30
0
70
8
0
VERTEX
8
0
62
30
10
0.070710506
20
1.1484932
30
0
70
32
0
VERTEX
8
0
62
30
10
0.070710506
20
1.1484932
30
0
70
32
0
VERTEX
8
0
62
30
10
0.070710506
20
1.1484932
30
0
70
32
0
SEQEND
8
0
0
POLYLINE
8
0
62
30
66
1
10
0
20
0
30
0
70
8
0
VERTEX
8
0
62
30
10
0.14142118
20
1.1484932
30
0
70
32
0
VERTEX
8
0
62
30
10
0.14142121
20
1.1484932
30
0
70
32
0
VERTEX
8
0
62
30
10
0.14142118
20
1.1484932
30
0
70
32
0
SEQEND
8
0
0
POLYLINE
8
0
62
30
66
1
10
0
20
0
30
0
70
8
0
VERTEX
8
0
62
30
10
0.21213186
20
1.0777825
30
0
70
32
0
VERTEX
8
0
62
30
10
0.24142119
20
1.1484932
30
0
70
32
0
VERTEX
8
0
62
30
10
0.21213186
20
1.2192039
30
0
70
32
0
SEQEND
8
0
0
POLYLINE
8
0
62
5
66
1
10
0
20
0
30
0
70
8
0
VERTEX
8
0
62
5
10
0.56568525
20
1.2338486
30
0
70
32
0
VERTEX
8
0
62
5
10
0.56568525
20
1.0631379
30
0
70
32
0
SEQEND
8
0
0
POLYLINE
8
0
62
5
66
1
10
0
20
0
30
0
70
8
0
VERTEX
8
0
62
5
10
0.28284254
20
1.0777825
30
0
70
32
0
VERTEX
8
0
62
5
10
0.35355322
20
1.1484932
30
0
70
32
0
VERTEX
8
0
62
5
10
0.4242639
20
1.1484932
30
0
70
32
0
VERTEX
8
0
62
5
10
0.49497457
20
1.0777825
30
0
70
32
0
VERTEX
8
0
62
5
10
0.56568525
20
1.0777825
30
0
70
32
0
SEQEND
8
0
0
POLYLINE
8
0
62
5
66
1
10
0
20
0
30
0
70
8
0
SEQEND
8
0
0
POLYLINE
8
0
62
5
66
1
10
0
20
0
30
0
70
8
0
VERTEX
8
0
62
5
10
0.28284254
20
1.2192039
30
0
70
32
0
VERTEX
8
0
62
5
10
0.35355322
20
1.1484932
30
0
70
32
0
VERTEX
8
0
62
5
10
0.4242639
20
1.1484932
30
0
70
32
0
VERTEX
8
0
62
5
10
0.49497457
20
1.2192039
30
0
70
32
0
VERTEX
8
0
62
5
10
0.56568525
20
1.2192039
30
0
70
32
0
SEQEND
8
0
0
POLYLINE
8
0
62
30
66
1
10
0
20
0
30
0
70
8
0
VERTEX
8
0
62
30
10
0.28284254
20
1.1484932
30
0
70
32
0
VERTEX
8
0
62
30
10
0.56568525
20
1.1484932
30
0
70
32
0
SEQEND
8
0
0
POLYLINE
8
0
62
30
66
1
10
0
20
0
30
0
70
8
0
VERTEX
8
0
62
30
10
0.35355322
20
1.1484932
30
0
70
32
0
VERTEX
8
0
62
30
10
0.35355322
20
1.1484932
30
0
70
32
0
SEQEND
8
0
0
POLYLINE
8
0
62
30
66
1
10
0
20
0
30
0
70
8
0
VERTEX
8
0
62
30
10
0.4242639
20
1.1484932
30
0
70
32
0
VERTEX
8
0
62
30
10
0.4242639
20
1.1484932
30
0
70
32
0
SEQEND
8
0
0
POLYLINE
8
0
62
30
66
1
10
0
20
0
30
0
70
8
0
VERTEX
8
0
62
30
10
0.49497457
20
1.0777825
30
0
70
32
0
VERTEX
8
0
62
30
10
0.49497457
20
1.1484932
30
0
70
32
0
SEQEND
8
0
0
POLYLINE
8
0
62
5
66
1
10
0
20
0
30
0
70
8
0
VERTEX
8
0
62
5
10
0.35355322
20
1.0631379
30
0
70
32
0
VERTEX
8
0
62
5
10
0.35355322
20
1.1484932
30
0
70
32
0
SEQEND
8
0
0
POLYLINE
8
0
62
5
66
1
10
0
20
0
30
0
70
8
0
VERTEX
8
0
62
5
10
0.4242639
20
1.0631379
30
0
70
32
0
VERTEX
8
0
62
5
10
0.4242639
20
1.1484932
30
0
70
32
0
SEQEND
8
0
0
POLYLINE
8
0
62
5
66
1
10
0
20
0
30
0
70
8
0
VERTEX
8
0
62
5
10
0.49497457
20
1.0631379
30
0
70
32
0
VERTEX
8
0
62
5
10
0.49497457
20
1.0777825
30
0
70
32
0
SEQEND
8
0
0
POLYLINE
8
0
62
5
66
1
10
0
20
0
30
0
70
8
0
VERTEX
8
0
62
5
10
0.35355322
20
1.1484932
30
0
70
32
0
VERTEX
8
0
62
5
10
0.35355322
20
1.2338486
30
0
70
32
0
SEQEND
8
0
0
POLYLINE
8
0
62
5
66
1
10
0
20
0
30
0
70
8
0
VERTEX
8
0
62
5
10
0.4242639
20
1.1484932
30
0
70
32
0
VERTEX
8
0
62
5
10
0.4242639
20
1.2338486
30
0
70
32
0
SEQEND
8
0
0
POLYLINE
8
0
62
5
66
1
10
0
20
0
30
0
70
8
0
VERTEX
8
0
62
5
10
0.49497457
20
1.1484932
30
0
70
32
0
VERTEX
8
0
62
5
10
0.49497457
20
1.2338486
30
0
70
32
0
SEQEND
8
0
0
POLYLINE
8
0
62
30
66
1
10
0
20
0
30
0
70
8
0
VERTEX
8
0
62
30
10
0.28284254
20
1.0777825
30
0
70
32
0
VERTEX
8
0
62
30
10
0.31213186
20
1.1484932
30
0
70
32
0
VERTEX
8
0
62
30
10
0.28284254
20
1.2192039
30
0
70
32
0
SEQEND
8
0
0
POLYLINE
8
0
62
30
66
1
10
0
20
0
30
0
70
8
0
VERTEX
8
0
62
30
10
0.35355322
20
1.1484932
30
0
70
32
0
VERTEX
8
0
62
30
10
0.35355322
20
1.1484932
30
0
70
32
0
VERTEX
8
0
62
30
10
0.35355322
20
1.1484932
30
0
70
32
0
SEQEND
8
0
0
POLYLINE
8
0
62
30
66
1
10
0
20
0
30
0
70
8
0
VERTEX
8
0
62
30
10
0.4242639
20
1.1484932
30
0
70
32
0
VERTEX
8
0
62
30
10
0.42426392
20
1.1484932
30
0
70
32
0
VERTEX
8
0
62
30
10
0.4242639
20
1.1484932
30
0
70
32
0
SEQEND
8
0
0
POLYLINE
8
0
62
30
66
1
10
0
20
0
30
0
70
8
0
VERTEX
8
0
62
30
10
0.49497457
20
1.0777825
30
0
70
32
0
VERTEX
8
0
62
30
10
0.5242639
20
1.1484932
30
0
70
32
0
VERTEX
8
0
62
30
10
0.49497457
20
1.2192039
30
0
70
32
0
SEQEND
8
0
0
POLYLINE
8
0
62
5
66
1
10
0
20
0
30
0
70
8
0
VERTEX
8
0
62
5
10
-0.28284288
20
1.0631379
30
0
70
32
0
VERTEX
8
0
62
5
10
-0.28284288
20
1.2338486
30
0
70
32
0
SEQEND
8
0
0
POLYLINE
8
0
62
5
66
1
10
0
20
0
30
0
70
8
0
VERTEX
8
0
62
5
10
-0.28284288
20
1.0777825
30
0
70
32
0
VERTEX
8
0
62
5
10
-0.21213221
20
1.1484932
30
0
70
32
0
VERTEX
8
0
62
5
10
-0.14142153
20
1.1484932
30
0
70
32
0
VERTEX
8
0
62
5
10
-0.07071085
20
1.0777825
30
0
70
32
0
VERTEX
8
0
62
5
10
-1.7214523e-07
20
1.0777825
30
0
70
32
0
SEQEND
8
0
0
POLYLINE
8
0
62
5
66
1
10
0
20
0
30
0
70
8
0
SEQEND
8
0
0
POLYLINE
8
0
62
5
66
1
10
0
20
0
30
0
70
8
0
VERTEX
8
0
62
5
10
-0.28284288
20
1.2192039
30
0
70
32
0
VERTEX
8
0
62
5
10
-0.21213221
20
1.1484932
30
0
70
32
0
VERTEX
8
0
62
5
10
-0.14142153
20
1.1484932
30
0
70
32
0
VERTEX
8
0
62
5
10
-0.07071085
20
1.2192039
30
0
70
32
0
VERTEX
8
0
62
5
10
-1.7214523e-07
20
1.2192039
30
0
70
32
0
SEQEND
8
0
0
POLYLINE
8
0
62
30
66
1
10
0
20
0
30
0
70
8
0
VERTEX
8
0
62
30
10
-0.28284288
20
1.1484932
30
0
70
32
0
VERTEX
8
0
62
30
10
-1.7214523e-07
20
1.1484932
30
0
70
32
0
SEQEND
8
0
0
POLYLINE
8
0
62
30
66
1
10
0
20
0
30
0
70
8
0
VERTEX
8
0
62
30
10
-0.21213221
20
1.1484932
30
0
70
32
0
VERTEX
8
0
62
30
10
-0.21213221
20
1.1484932
30
0
70
32
0
SEQEND
8
0
0
POLYLINE
8
0
62
30
66
1
10
0
20
0
30
0
70
8
0
VERTEX
8
0
62
30
10
-0.14142153
20
1.1484932
30
0
70
32
0
VERTEX
8
0
62
30
10
-0.14142153
20
1.1484932
30
0
70
32
0
SEQEND
8
0
0
POLYLINE
8
0
62
30
66
1
10
0
20
0
30
0
70
8
0
VERTEX
8
0
62
30
10
-0.07071085
20
1.0777825
30
0
70
32
0
VERTEX
8
0
62
30
10
-0.07071085
20
1.1484932
30
0
70
32
0
SEQEND
8
0
0
POLYLINE
8
0
62
5
66
1
10
0
20
0
30
0
70
8
0
VERTEX
8
0
62
5
10
-0.21213221
20
1.0631379
30
0
70
32
0
VERTEX
8
0
62
5
10
-0.21213221
20
1.1484932
30
0
70
32
0
SEQEND
8
0
0
POLYLINE
8
0
62
5
66
1
10
0
20
0
30
0
70
8
0
VERTEX
8
0
62
5
10
-0.14142153
20
1.0631379
30
0
70
32
0
VERTEX
8
0
62
5
10
-0.14142153
20
1.1484932
30
0
70
32
0
SEQEND
8
0
0
POLYLINE
8
0
62
5
66
1
10
0
20
0
30
0
70
8
0
VERTEX
8
0
62
5
10
-0.07071085
20
1.0631379
30
0
70
32
0
VERTEX
8
0
62
5
10
-0.07071085
20
1.0777825
30
0
70
32
0
SEQEND
8
0
0
POLYLINE
8
0
62
5
66
1
10
0
20
0
30
0
70
8
0
VERTEX
8
0
62
5
10
-0.21213221
20
1.1484932
30
0
70
32
0
VERTEX
8
0
62
5
10
-0.21213221
20
1.2338486
30
0
70
32
0
SEQEND
8
0
0
POLYLINE
8
0
62
5
66
1
10
0
20
0
30
0
70
8
0
VERTEX
8
0
62
5
10
-0.14142153
20
1.1484932
30
0
70
32
0
VERTEX
8
0
62
5
10
-0.14142153
20
1.2338486
30
0
70
32
0
SEQEND
8
0
0
POLYLINE
8
0
62
5
66
1
10
0
20
0
30
0
70
8
0
VERTEX
8
0
62
5
10
-0.07071085
20
1.1484932
30
0
70
32
0
VERTEX
8
0
62
5
10
-0.07071085
20
1.2338486
30
0
70
32
0
SEQEND
8
0
0
POLYLINE
8
0
62
30
66
1
10
0
20
0
30
0
70
8
0
VERTEX
8
0
62
30
10
-0.28284288
20
1.0777825
30
0
70
32
0
VERTEX
8
0
62
30
10
-0.25355356
20
1.1484932
30
0
70
32
0
VERTEX
8
0
62
30
10
-0.28284288
20
1.2192039
30
0
70
32
0
SEQEND
8
0
0
POLYLINE
8
0
62
30
66
1
10
0
20
0
30
0
70
8
0
VERTEX
8
0
62
30
10
-0.21213221
20
1.1484932
30
0
70
32
0
VERTEX
8
0
62
30
10
-0.21213221
20
1.1484932
30
0
70
32
0
VERTEX
8
0
62
30
10
-0.21213221
20
1.1484932
30
0
70
32
0
SEQEND
8
0
0
POLYLINE
8
0
62
30
66
1
10
0
20
0
30
0
70
8
0
VERTEX
8
0
62
30
10
-0.14142153
20
1.1484932
30
0
70
32
0
VERTEX
8
0
62
30
10
-0.1414215
20
1.1484932
30
0
70
32
0
VERTEX
8
0
62
30
10
-0.14142153
20
1.1484932
30
0
70
32
0
SEQEND
8
0
0
POLYLINE
8
0
62
30
66
1
10
0
20
0
30
0
70
8
0
VERTEX
8
0
62
30
10
-0.07071085
20
1.0777825
30
0
70
32
0
VERTEX
8
0
62
30
10
-0.041421526
20
1.1484932
30
0
70
32
0
VERTEX
8
0
62
30
10
-0.07071085
20
1.2192039
30
0
70
32
0
SEQEND
8
0
0
POLYLINE
8
0
62
5
66
1
10
0
20
0
30
0
70
8
0
VERTEX
8
0
62
5
10
-1.7214523e-07
20
1.2338486
30
0
70
32
0
VERTEX
8
0
62
5
10
-1.7214523e-07
20
1.2409196
30
0
70
32
0
SEQEND
8
0
0
POLYLINE
8
0
62
5
66
1
10
0
20
0
30
0
70
8
0
VERTEX
8
0
62
5
10
0.070710506
20
1.2338486
30
0
70
32
0
VERTEX
8
0
62
5
10
0.070710506
20
1.2409196
30
0
70
32
0
SEQEND
8
0
0
POLYLINE
8
0
62
5
66
1
10
0
20
0
30
0
70
8
0
VERTEX
8
0
62
5
10
0.14142118
20
1.2338486
30
0
70
32
0
VERTEX
8
0
62
5
10
0.14142118
20
1.2409196
30
0
70
32
0
SEQEND
8
0
0
POLYLINE
8
0
62
5
66
1
10
0
20
0
30
0
70
8
0
VERTEX
8
0
62
5
10
0.21213186
20
1.2338486
30
0
70
32
0
VERTEX
8
0
62
5
10
0.21213186
20
1.2409196
30
0
70
32
0
SEQEND
8
0
0
POLYLINE
8
0
62
5
66
1
10
0
20
0
30
0
70
8
0
VERTEX
8
0
62
5
10
0.28284254
20
1.2338486
30
0
70
32
0
VERTEX
8
0
62
5
10
0.28284254
20
1.2409196
30
0
70
32
0
SEQEND
8
0
0
POLYLINE
8
0
62
5
66
1
10
0
20
0
30
0
70
8
0
VERTEX
8
0
62
5
10
0.070710506
20
1.2338486
30
0
70
32
0
VERTEX
8
0
62
5
10
0.070710506
20
1.2338486
30
0
70
32
0
SEQEND
8
0
0
POLYLINE
8
0
62
5
66
1
10
0
20
0
30
0
70
8
0
VERTEX
8
0
62
5
10
0.14142118
20
1.2338486
30
0
70
32
0
VERTEX
8
0
62
5
10
0.14142118
20
1.2338486
30
0
70
32
0
SEQEND
8
0
0
POLYLINE
8
0
62
5
66
1
10
0
20
0
30
0
70
8
0
VERTEX
8
0
62
5
10
0.21213186
20
1.2338486
30
0
70
32
0
VERTEX
8
0
62
5
10
0.21213186
20
1.2338486
30
0
70
32
0
SEQEND
8
0
0
POLYLINE
8
0
62
5
66
1
10
0
20
0
30
0
70
8
0
VERTEX
8
0
62
5
10
0.070710501
20
1.2409196
30
0
70
32
0
VERTEX
8
0
62
5
10
0.070710501
20
1.2409196
30
0
70
32
0
SEQEND
8
0
0
POLYLINE
8
0
62
5
66
1
10
0
20
0
30
0
70
8
0
VERTEX
8
0
62
5
10
0.14142118
20
1.2409196
30
0
70
32
0
VERTEX
8
0
62
5
10
0.14142118
20
1.2409196
30
0
70
32
0
SEQEND
8
0
0
POLYLINE
8
0
62
5
66
1
10
0
20
0
30
0
70
8
0
VERTEX
8
0
62
5
10
0.21213186
20
1.2409196
30
0
70
32
0
VERTEX
8
0
62
5
10
0.21213186
20
1.2409196
30
0
70
32
0
SEQEND
8
0
0
POLYLINE
8
0
62
5
66
1
10
0
20
0
30
0
70
8
0
VERTEX
8
0
62
5
10
0.28284254
20
1.2409196
30
0
70
32
0
VERTEX
8
0
62
5
10
0.28284254
20
1.2409196
30
0
70
32
0
SEQEND
8
0
0
POLYLINE
8
0
62
5
66
1
10
0
20
0
30
0
70
8
0
VERTEX
8
0
62
5
10
0.35355322
20
1.2338486
30
0
70
32
0
VERTEX
8
0
62
5
10
0.35355322
20
1.2409196
30
0
70
32
0
SEQEND
8
0
0
POLYLINE
8
0
62
5
66
1
10
0
20
0
30
0
70
8
0
VERTEX
8
0
62
5
10
0.4242639
20
1.2338486
30
0
70
32
0
VERTEX
8
0
62
5
10
0.4242639
20
1.2409196
30
0
70
32
0
SEQEND
8
0
0
POLYLINE
8
0
62
5
66
1
10
0
20
0
30
0
70
8
0
VERTEX
8
0
62
5
10
0.49497457
20
1.2338486
30
0
70
32
0
VERTEX
8
0
62
5
10
0.49497457
20
1.2409196
30
0
70
32
0
SEQEND
8
0
0
POLYLINE
8
0
62
5
66
1
10
0
20
0
30
0
70
8
0
VERTEX
8
0
62
5
10
0.56568525
20
1.2338486
30
0
70
32
0
VERTEX
8
0
62
5
10
0.56568525
20
1.2409196
30
0
70
32
0
SEQEND
8
0
0
POLYLINE
8
0
62
5
66
1
10
0
20
0
30
0
70
8
0
VERTEX
8
0
62
5
10
0.35355322
20
1.2338486
30
0
70
32
0
VERTEX
8
0
62
5
10
0.35355322
20
1.2338486
30
0
70
32
0
SEQEND
8
0
0
POLYLINE
8
0
62
5
66
1
10
0
20
0
30
0
70
8
0
VERTEX
8
0
62
5
10
0.4242639
20
1.2338486
30
0
70
32
0
VERTEX
8
0
62
5
10
0.4242639
20
1.2338486
30
0
70
32
0
SEQEND
8
0
0
POLYLINE
8
0
62
5
66
1
10
0
20
0
30
0
70
8
0
VERTEX
8
0
62
5
10
0.49497457
20
1.2338486
30
0
70
32
0
VERTEX
8
0
62
5
10
0.49497457
20
1.2338486
30
0
70
32
0
SEQEND
8
0
0
POLYLINE
8
0
62
5
66
1
10
0
20
0
30
0
70
8
0
VERTEX
8
0
62
5
10
0.35355321
20
1.2409196
30
0
70
32
0
VERTEX
8
0
62
5
10
0.35355321
20
1.2409196
30
0
70
32
0
SEQEND
8
0
0
POLYLINE
8
0
62
5
66
1
10
0
20
0
30
0
70
8
0
VERTEX
8
0
62
5
10
0.42426389
20
1.2409196
30
0
70
32
0
VERTEX
8
0
62
5
10
0.42426389
20
1.2409196
30
0
70
32
0
SEQEND
8
0
0
POLYLINE
8
0
62
5
66
1
10
0
20
0
30
0
70
8
0
VERTEX
8
0
62
5
10
0.49497457
20
1.2409196
30
0
70
32
0
VERTEX
8
0
62
5
10
0.49497457
20
1.2409196
30
0
70
32
0
SEQEND
8
0
0
POLYLINE
8
0
62
5
66
1
10
0
20
0
30
0
70
8
0
VERTEX
8
0
62
5
10
0.56568525
20
1.2409196
30
0
70
32
0
VERTEX
8
0
62
5
10
0.56568525
20
1.2409196
30
0
70
32
0
SEQEND
8
0
0
POLYLINE
8
0
62
5
66
1
10
0
20
0
30
0
70
8
0
VERTEX
8
0
62
5
10
-0.21213221
20
1.2338486
30
0
70
32
0
VERTEX
8
0
62
5
10
-0.21213221
20
1.2409196
30
0
70
32
0
SEQEND
8
0
0
POLYLINE
8
0
62
5
66
1
10
0
20
0
30
0
70
8
0
VERTEX
8
0
62
5
10
-0.14142153
20
1.2338486
30
0
70
32
0
VERTEX
8
0
62
5
10
-0.14142153
20
1.2409196
30
0
70
32
0
SEQEND
8
0
0
POLYLINE
8
0
62
5
66
1
10
0
20
0
30
0
70
8
0
VERTEX
8
0
62
5
10
-0.07071085
20
1.2338486
30
0
70
32
0
VERTEX
8
0
62
5
10
-0.07071085
20
1.2409196
30
0
70
32
0
SEQEND
8
0
0
POLYLINE
8
0
62
5
66
1
10
0
20
0
30
0
70
8
0
VERTEX
8
0
62
5
10
-1.7214523e-07
20
1.2338486
30
0
70
32
0
VERTEX
8
0
62
5
10
-1.7214523e-07
20
1.2409196
30
0
70
32
0
SEQEND
8
0
0
POLYLINE
8
0
62
5
66
1
10
0
20
0
30
0
70
8
0
VERTEX
8
0
62
5
10
-0.21213221
20
1.2338486
30
0
70
32
0
VERTEX
8
0
62
5
10
-0.21213221
20
1.2338486
30
0
70
32
0
SEQEND
8
0
0
POLYLINE
8
0
62
5
66
1
10
0
20
0
30
0
70
8
0
VERTEX
8
0
62
5
10
-0.14142153
20
1.2338486
30
0
70
32
0
VERTEX
8
0
62
5
10
-0.14142153
20
1.2338486
30
0
70
32
0
SEQEND
8
0
0
POLYLINE
8
0
62
5
66
1
10
0
20
0
30
0
70
8
0
VERTEX
8
0
62
5
10
-0.07071085
20
1.2338486
30
0
70
32
0
VERTEX
8
0
62
5
10
-0.07071085
20
1.2338486
30
0
70
32
0
SEQEND
8
0
0
POLYLINE
8
0
62
5
66
1
10
0
20
0
30
0
70
8
0
VERTEX
8
0
62
5
10
-0.21213221
20
1.2409196
30
0
70
32
0
VERTEX
8
0
62
5
10
-0.21213221
20
1.2409196
30
0
70
32
0
SEQEND
8
0
0
POLYLINE
8
0
62
5
66
1
10
0
20
0
30
0
70
8
0
VERTEX
8
0
62
5
10
-0.14142153
20
1.2409196
30
0
70
32
0
VERTEX
8
0
62
5
10
-0.14142153
20
1.2409196
30
0
70
32
0
SEQEND
8
0
0
POLYLINE
8
0
62
5
66
1
10
0
20
0
30
0
70
8
0
VERTEX
8
0
62
5
10
-0.070710855
20
1.2409196
30
0
70
32
0
VERTEX
8
0
62
5
10
-0.070710855
20
1.2409196
30
0
70
32
0
SEQEND
8
0
0
POLYLINE
8
0
62
5
66
1
10
0
20
0
30
0
70
8
0
VERTEX
8
0
62
5
10
-1.7733935e-07
20
1.2409196
30
0
70
32
0
VERTEX
8
0
62
5
10
-1.7733935e-07
20
1.2409196
30
0
70
32
0
SEQEND
8
0
0
POLYLINE
8
0
62
5
66
1
10
0
20
0
30
0
70
8
0
VERTEX
8
0
62
5
10
-1.7733935e-07
20
1.2409196
30
0
70
32
0
VERTEX
8
0
62
5
10
-1.7733935e-07
20
1.2692039
30
0
70
32
0
SEQEND
8
0
0
POLYLINE
8
0
62
5
66
1
10
0
20
0
30
0
70
8
0
VERTEX
8
0
62
5
10
0.28284254
20
1.2409196
30
0
70
32
0
VERTEX
8
0
62
5
10
0.28284254
20
1.2692039
30
0
70
32
0
SEQEND
8
0
0
POLYLINE
8
0
62
5
66
1
10
0
20
0
30
0
70
8
0
VERTEX
8
0
62
5
10
0.070710501
20
1.2409196
30
0
70
32
0
VERTEX
8
0
62
5
10
0.070710501
20
1.2692039
30
0
70
32
0
SEQEND
8
0
0
POLYLINE
8
0
62
5
66
1
10
0
20
0
30
0
70
8
0
VERTEX
8
0
62
5
10
0.14142118
20
1.2409196
30
0
70
32
0
VERTEX
8
0
62
5
10
0.14142118
20
1.2692039
30
0
70
32
0
SEQEND
8
0
0
POLYLINE
8
0
62
5
66
1
10
0
20
0
30
0
70
8
0
VERTEX
8
0
62
5
10
0.21213186
20
1.2409196
30
0
70
32
0
VERTEX
8
0
62
5
10
0.21213186
20
1.2692039
30
0
70
32
0
SEQEND
8
0
0
POLYLINE
8
0
62
5
66
1
10
0
20
0
30
0
70
8
0
VERTEX
8
0
62
5
10
0.56568525
20
1.2409196
30
0
70
32
0
VERTEX
8
0
62
5
10
0.56568525
20
1.2692039
30
0
70
32
0
SEQEND
8
0
0
POLYLINE
8
0
62
5
66
1
10
0
20
0
30
0
70
8
0
VERTEX
8
0
62
5
10
0.35355321
20
1.2409196
30
0
70
32
0
VERTEX
8
0
62
5
10
0.35355321
20
1.2692039
30
0
70
32
0
SEQEND
8
0
0
POLYLINE
8
0
62
5
66
1
10
0
20
0
30
0
70
8
0
VERTEX
8
0
62
5
10
0.42426389
20
1.2409196
30
0
70
32
0
VERTEX
8
0
62
5
10
0.42426389
20
1.2692039
30
0
70
32
0
SEQEND
8
0
0
POLYLINE
8
0
62
5
66
1
10
0
20
0
30
0
70
8
0
VERTEX
8
0
62
5
10
0.49497457
20
1.2409196
30
0
70
32
0
VERTEX
8
0
62
5
10
0.49497457
20
1.2692039
30
0
70
32
0
SEQEND
8
0
0
POLYLINE
8
0
62
5
66
1
10
0
20
0
30
0
70
8
0
VERTEX
8
0
62
5
10
-0.28284289
20
1.2409196
30
0
70
32
0
VERTEX
8
0
62
5
10
-0.28284289
20
1.2692039
30
0
70
32
0
SEQEND
8
0
0
POLYLINE
8
0
62
5
66
1
10
0
20
0
30
0
70
8
0
VERTEX
8
0
62
5
10
-0.21213221
20
1.2409196
30
0
70
32
0
VERTEX
8
0
62
5
10
-0.21213221
20
1.2692039
30
0
70
32
0
SEQEND
8
0
0
POLYLINE
8
0
62
5
66
1
10
0
20
0
30
0
70
8
0
VERTEX
8
0
62
5
10
-0.14142153
20
1.2409196
30
0
70
32
0
VERTEX
8
0
62
5
10
-0.14142153
20
1.2692039
30
0
70
32
0
SEQEND
8
0
0
POLYLINE
8
0
62
5
66
1
10
0
20
0
30
0
70
8
0
VERTEX
8
0
62
5
10
-0.070710855
20
1.2409196
30
0
70
32
0
VERTEX
8
0
62
5
10
-0.070710855
20
1.2692039
30
0
70
32
0
SEQEND
8
0
0
POLYLINE
8
0
62
5
66
1
10
0
20
0
30
0
70
8
0
VERTEX
8
0
62
5
10
-1.7733935e-07
20
1.2692039
30
0
70
32
0
VERTEX
8
0
62
5
10
-1.7733935e-07
20
1.3457406
30
0
70
32
0
SEQEND
8
0
0
POLYLINE
8
0
62
5
66
1
10
0
20
0
30
0
70
8
0
VERTEX
8
0
62
5
10
0.28284254
20
1.3457406
30
0
70
32
0
VERTEX
8
0
62
5
10
0.28284254
20
1.2692039
30
0
70
32
0
SEQEND
8
0
0
POLYLINE
8
0
62
5
66
1
10
0
20
0
30
0
70
8
0
VERTEX
8
0
62
5
10
-1.7733935e-07
20
1.2692039
30
0
70
32
0
VERTEX
8
0
62
5
10
0.28284254
20
1.2692039
30
0
70
32
0
SEQEND
8
0
0
POLYLINE
8
0
62
5
66
1
10
0
20
0
30
0
70
8
0
VERTEX
8
0
62
5
10
-1.7733935e-07
20
1.3457406
30
0
70
32
0
VERTEX
8
0
62
5
10
0.28284254
20
1.3457406
30
0
70
32
0
SEQEND
8
0
0
POLYLINE
8
0
62
5
66
1
10
0
20
0
30
0
70
8
0
VERTEX
8
0
62
5
10
0.070710501
20
1.2692039
30
0
70
32
0
VERTEX
8
0
62
5
10
0.070710501
20
1.2692039
30
0
70
32
0
SEQEND
8
0
0
POLYLINE
8
0
62
5
66
1
10
0
20
0
30
0
70
8
0
VERTEX
8
0
62
5
10
0.14142118
20
1.2692039
30
0
70
32
0
VERTEX
8
0
62
5
10
0.14142118
20
1.2692039
30
0
70
32
0
SEQEND
8
0
0
POLYLINE
8
0
62
5
66
1
10
0
20
0
30
0
70
8
0
VERTEX
8
0
62
5
10
0.21213186
20
1.2692039
30
0
70
32
0
VERTEX
8
0
62
5
10
0.21213186
20
1.2692039
30
0
70
32
0
SEQEND
8
0
0
POLYLINE
8
0
62
5
66
1
10
0
20
0
30
0
70
8
0
VERTEX
8
0
62
5
10
0.070710501
20
1.3457406
30
0
70
32
0
VERTEX
8
0
62
5
10
0.070710501
20
1.3457406
30
0
70
32
0
SEQEND
8
0
0
POLYLINE
8
0
62
5
66
1
10
0
20
0
30
0
70
8
0
VERTEX
8
0
62
5
10
0.14142118
20
1.3457406
30
0
70
32
0
VERTEX
8
0
62
5
10
0.14142118
20
1.3457406
30
0
70
32
0
SEQEND
8
0
0
POLYLINE
8
0
62
5
66
1
10
0
20
0
30
0
70
8
0
VERTEX
8
0
62
5
10
0.21213186
20
1.3457406
30
0
70
32
0
VERTEX
8
0
62
5
10
0.21213186
20
1.3457406
30
0
70
32
0
SEQEND
8
0
0
POLYLINE
8
0
62
30
66
1
10
0
20
0
30
0
70
8
0
VERTEX
8
0
62
30
10
-1.7733935e-07
20
1.3457406
30
0
70
32
0
VERTEX
8
0
62
30
10
0.070710501
20
1.2692039
30
0
70
32
0
SEQEND
8
0
0
POLYLINE
8
0
62
30
66
1
10
0
20
0
30
0
70
8
0
VERTEX
8
0
62
30
10
0.070710501
20
1.3457406
30
0
70
32
0
VERTEX
8
0
62
30
10
-1.7733935e-07
20
1.2692039
30
0
70
32
0
SEQEND
8
0
0
POLYLINE
8
0
62
30
66
1
10
0
20
0
30
0
70
8
0
VERTEX
8
0
62
30
10
0.14142118
20
1.3457406
30
0
70
32
0
VERTEX
8
0
62
30
10
0.21213186
20
1.2692039
30
0
70
32
0
SEQEND
8
0
0
POLYLINE
8
0
62
30
66
1
10
0
20
0
30
0
70
8
0
VERTEX
8
0
62
30
10
0.21213186
20
1.3457406
30
0
70
32
0
VERTEX
8
0
62
30
10
0.14142118
20
1.2692039
30
0
70
32
0
SEQEND
8
0
0
POLYLINE
8
0
62
30
66
1
10
0
20
0
30
0
70
8
0
VERTEX
8
0
62
30
10
0.070710501
20
1.3074722
30
0
70
32
0
VERTEX
8
0
62
30
10
0.14142118
20
1.3074722
30
0
70
32
0
SEQEND
8
0
0
POLYLINE
8
0
62
30
66
1
10
0
20
0
30
0
70
8
0
VERTEX
8
0
62
30
10
0.21213186
20
1.3074722
30
0
70
32
0
VERTEX
8
0
62
30
10
0.28284254
20
1.3074722
30
0
70
32
0
SEQEND
8
0
0
POLYLINE
8
0
62
5
66
1
10
0
20
0
30
0
70
8
0
VERTEX
8
0
62
5
10
-1.7733935e-07
20
1.3074722
30
0
70
32
0
VERTEX
8
0
62
5
10
0.035355162
20
1.3074722
30
0
70
32
0
SEQEND
8
0
0
POLYLINE
8
0
62
5
66
1
10
0
20
0
30
0
70
8
0
VERTEX
8
0
62
5
10
0.14142118
20
1.3074722
30
0
70
32
0
VERTEX
8
0
62
5
10
0.17677652
20
1.3074722
30
0
70
32
0
SEQEND
8
0
0
POLYLINE
8
0
62
5
66
1
10
0
20
0
30
0
70
8
0
VERTEX
8
0
62
5
10
0.035355162
20
1.3074722
30
0
70
32
0
VERTEX
8
0
62
5
10
0.070710501
20
1.3074722
30
0
70
32
0
SEQEND
8
0
0
POLYLINE
8
0
62
5
66
1
10
0
20
0
30
0
70
8
0
VERTEX
8
0
62
5
10
0.17677652
20
1.3074722
30
0
70
32
0
VERTEX
8
0
62
5
10
0.21213186
20
1.3074722
30
0
70
32
0
SEQEND
8
0
0
POLYLINE
8
0
62
5
66
1
10
0
20
0
30
0
70
8
0
VERTEX
8
0
62
5
10
0.070710501
20
1.2692039
30
0
70
32
0
VERTEX
8
0
62
5
10
0.070710501
20
1.3457406
30
0
70
32
0
SEQEND
8
0
0
POLYLINE
8
0
62
5
66
1
10
0
20
0
30
0
70
8
0
VERTEX
8
0
62
5
10
0.14142118
20
1.2692039
30
0
70
32
0
VERTEX
8
0
62
5
10
0.14142118
20
1.3457406
30
0
70
32
0
SEQEND
8
0
0
POLYLINE
8
0
62
5
66
1
10
0
20
0
30
0
70
8
0
VERTEX
8
0
62
5
10
0.21213186
20
1.2692039
30
0
70
32
0
VERTEX
8
0
62
5
10
0.21213186
20
1.3457406
30
0
70
32
0
SEQEND
8
0
0
POLYLINE
8
0
62
5
66
1
10
0
20
0
30
0
70
8
0
VERTEX
8
0
62
5
10
-1.7733935e-07
20
1.2692039
30
0
70
32
0
VERTEX
8
0
62
5
10
-1.7733935e-07
20
1.3457406
30
0
70
32
0
SEQEND
8
0
0
POLYLINE
8
0
62
5
66
1
10
0
20
0
30
0
70
8
0
VERTEX
8
0
62
5
10
0.0088386574
20
1.3361735
30
0
70
32
0
VERTEX
8
0
62
5
10
0.0088386574
20
1.278771
30
0
70
32
0
VERTEX
8
0
62
5
10
0.061871666
20
1.278771
30
0
70
32
0
VERTEX
8
0
62
5
10
0.061871666
20
1.3361735
30
0
70
32
0
VERTEX
8
0
62
5
10
0.0088386574
20
1.3361735
30
0
70
32
0
SEQEND
8
0
0
POLYLINE
8
0
62
5
66
1
10
0
20
0
30
0
70
8
0
VERTEX
8
0
62
5
10
0.017677492
20
1.3266064
30
0
70
32
0
VERTEX
8
0
62
5
10
0.017677492
20
1.2883381
30
0
70
32
0
VERTEX
8
0
62
5
10
0.053032831
20
1.2883381
30
0
70
32
0
VERTEX
8
0
62
5
10
0.053032831
20
1.3266064
30
0
70
32
0
VERTEX
8
0
62
5
10
0.017677492
20
1.3266064
30
0
70
32
0
SEQEND
8
0
0
POLYLINE
8
0
62
5
66
1
10
0
20
0
30
0
70
8
0
VERTEX
8
0
62
5
10
0.026516327
20
1.3170393
30
0
70
32
0
VERTEX
8
0
62
5
10
0.026516327
20
1.2979052
30
0
70
32
0
VERTEX
8
0
62
5
10
0.044193996
20
1.2979052
30
0
70
32
0
VERTEX
8
0
62
5
10
0.044193996
20
1.3170393
30
0
70
32
0
VERTEX
8
0
62
5
10
0.026516327
20
1.3170393
30
0
70
32
0
SEQEND
8
0
0
POLYLINE
8
0
62
5
66
1
10
0
20
0
30
0
70
8
0
VERTEX
8
0
62
5
10
0.15026001
20
1.3361735
30
0
70
32
0
VERTEX
8
0
62
5
10
0.15026001
20
1.278771
30
0
70
32
0
VERTEX
8
0
62
5
10
0.20329302
20
1.278771
30
0
70
32
0
VERTEX
8
0
62
5
10
0.20329302
20
1.3361735
30
0
70
32
0
VERTEX
8
0
62
5
10
0.15026001
20
1.3361735
30
0
70
32
0
SEQEND
8
0
0
POLYLINE
8
0
62
5
66
1
10
0
20
0
30
0
70
8
0
VERTEX
8
0
62
5
10
0.15909885
20
1.3266064
30
0
70
32
0
VERTEX
8
0
62
5
10
0.15909885
20
1.2883381
30
0
70
32
0
VERTEX
8
0
62
5
10
0.19445419
20
1.2883381
30
0
70
32
0
VERTEX
8
0
62
5
10
0.19445419
20
1.3266064
30
0
70
32
0
VERTEX
8
0
62
5
10
0.15909885
20
1.3266064
30
0
70
32
0
SEQEND
8
0
0
POLYLINE
8
0
62
5
66
1
10
0
20
0
30
0
70
8
0
VERTEX
8
0
62
5
10
0.16793768
20
1.3170393
30
0
70
32
0
VERTEX
8
0
62
5
10
0.16793768
20
1.2979052
30
0
70
32
0
VERTEX
8
0
62
5
10
0.18561535
20
1.2979052
30
0
70
32
0
VERTEX
8
0
62
5
10
0.18561535
20
1.3170393
30
0
70
32
0
VERTEX
8
0
62
5
10
0.16793768
20
1.3170393
30
0
70
32
0
SEQEND
8
0
0
POLYLINE
8
0
62
5
66
1
10
0
20
0
30
0
70
8
0
VERTEX
8
0
62
5
10
0.56568525
20
1.3457406
30
0
70
32
0
VERTEX
8
0
62
5
10
0.56568525
20
1.2692039
30
0
70
32
0
SEQEND
8
0
0
POLYLINE
8
0
62
5
66
1
10
0
20
0
30
0
70
8
0
VERTEX
8
0
62
5
10
0.28284254
20
1.2692039
30
0
70
32
0
VERTEX
8
0
62
5
10
0.56568525
20
1.2692039
30
0
70
32
0
SEQEND
8
0
0
POLYLINE
8
0
62
5
66
1
10
0
20
0
30
0
70
8
0
VERTEX
8
0
62
5
10
0.28284254
20
1.3457406
30
0
70
32
0
VERTEX
8
0
62
5
10
0.56568525
20
1.3457406
30
0
70
32
0
SEQEND
8
0
0
POLYLINE
8
0
62
5
66
1
10
0
20
0
30
0
70
8
0
VERTEX
8
0
62
5
10
0.35355321
20
1.2692039
30
0
70
32
0
VERTEX
8
0
62
5
10
0.35355321
20
1.2692039
30
0
70
32
0
SEQEND
8
0
0
POLYLINE
8
0
62
5
66
1
10
0
20
0
30
0
70
8
0
VERTEX
8
0
62
5
10
0.42426389
20
1.2692039
30
0
70
32
0
VERTEX
8
0
62
5
10
0.42426389
20
1.2692039
30
0
70
32
0
SEQEND
8
0
0
POLYLINE
8
0
62
5
66
1
10
0
20
0
30
0
70
8
0
VERTEX
8
0
62
5
10
0.49497457
20
1.2692039
30
0
70
32
0
VERTEX
8
0
62
5
10
0.49497457
20
1.2692039
30
0
70
32
0
SEQEND
8
0
0
POLYLINE
8
0
62
5
66
1
10
0
20
0
30
0
70
8
0
VERTEX
8
0
62
5
10
0.35355321
20
1.3457406
30
0
70
32
0
VERTEX
8
0
62
5
10
0.35355321
20
1.3457406
30
0
70
32
0
SEQEND
8
0
0
POLYLINE
8
0
62
5
66
1
10
0
20
0
30
0
70
8
0
VERTEX
8
0
62
5
10
0.42426389
20
1.3457406
30
0
70
32
0
VERTEX
8
0
62
5
10
0.42426389
20
1.3457406
30
0
70
32
0
SEQEND
8
0
0
POLYLINE
8
0
62
5
66
1
10
0
20
0
30
0
70
8
0
VERTEX
8
0
62
5
10
0.49497457
20
1.3457406
30
0
70
32
0
VERTEX
8
0
62
5
10
0.49497457
20
1.3457406
30
0
70
32
0
SEQEND
8
0
0
POLYLINE
8
0
62
30
66
1
10
0
20
0
30
0
70
8
0
VERTEX
8
0
62
30
10
0.28284254
20
1.3457406
30
0
70
32
0
VERTEX
8
0
62
30
10
0.35355321
20
1.2692039
30
0
70
32
0
SEQEND
8
0
0
POLYLINE
8
0
62
30
66
1
10
0
20
0
30
0
70
8
0
VERTEX
8
0
62
30
10
0.35355321
20
1.3457406
30
0
70
32
0
VERTEX
8
0
62
30
10
0.28284254
20
1.2692039
30
0
70
32
0
SEQEND
8
0
0
POLYLINE
8
0
62
30
66
1
10
0
20
0
30
0
70
8
0
VERTEX
8
0
62
30
10
0.42426389
20
1.3457406
30
0
70
32
0
VERTEX
8
0
62
30
10
0.49497457
20
1.2692039
30
0
70
32
0
SEQEND
8
0
0
POLYLINE
8
0
62
30
66
1
10
0
20
0
30
0
70
8
0
VERTEX
8
0
62
30
10
0.49497457
20
1.3457406
30
0
70
32
0
VERTEX
8
0
62
30
10
0.42426389
20
1.2692039
30
0
70
32
0
SEQEND
8
0
0
POLYLINE
8
0
62
30
66
1
10
0
20
0
30
0
70
8
0
VERTEX
8
0
62
30
10
0.35355321
20
1.3074722
30
0
70
32
0
VERTEX
8
0
62
30
10
0.42426389
20
1.3074722
30
0
70
32
0
SEQEND
8
0
0
POLYLINE
8
0
62
30
66
1
10
0
20
0
30
0
70
8
0
VERTEX
8
0
62
30
10
0.49497457
20
1.3074722
30
0
70
32
0
VERTEX
8
0
62
30
10
0.56568525
20
1.3074722
30
0
70
32
0
SEQEND
8
0
0
POLYLINE
8
0
62
5
66
1
10
0
20
0
30
0
70
8
0
VERTEX
8
0
62
5
10
0.28284254
20
1.3074722
30
0
70
32
0
VERTEX
8
0
62
5
10
0.31819787
20
1.3074722
30
0
70
32
0
SEQEND
8
0
0
POLYLINE
8
0
62
5
66
1
10
0
20
0
30
0
70
8
0
VERTEX
8
0
62
5
10
0.42426389
20
1.3074722
30
0
70
32
0
VERTEX
8
0
62
5
10
0.45961923
20
1.3074722
30
0
70
32
0
SEQEND
8
0
0
POLYLINE
8
0
62
5
66
1
10
0
20
0
30
0
70
8
0
VERTEX
8
0
62
5
10
0.31819787
20
1.3074722
30
0
70
32
0
VERTEX
8
0
62
5
10
0.35355321
20
1.3074722
30
0
70
32
0
SEQEND
8
0
0
POLYLINE
8
0
62
5
66
1
10
0
20
0
30
0
70
8
0
VERTEX
8
0
62
5
10
0.45961923
20
1.3074722
30
0
70
32
0
VERTEX
8
0
62
5
10
0.49497457
20
1.3074722
30
0
70
32
0
SEQEND
8
0
0
POLYLINE
8
0
62
5
66
1
10
0
20
0
30
0
70
8
0
VERTEX
8
0
62
5
10
0.35355321
20
1.2692039
30
0
70
32
0
VERTEX
8
0
62
5
10
0.35355321
20
1.3457406
30
0
70
32
0
SEQEND
8
0
0
POLYLINE
8
0
62
5
66
1
10
0
20
0
30
0
70
8
0
VERTEX
8
0
62
5
10
0.42426389
20
1.2692039
30
0
70
32
0
VERTEX
8
0
62
5
10
0.42426389
20
1.3457406
30
0
70
32
0
SEQEND
8
0
0
POLYLINE
8
0
62
5
66
1
10
0
20
0
30
0
70
8
0
VERTEX
8
0
62
5
10
0.49497457
20
1.2692039
30
0
70
32
0
VERTEX
8
0
62
5
10
0.49497457
20
1.3457406
30
0
70
32
0
SEQEND
8
0
0
POLYLINE
8
0
62
5
66
1
10
0
20
0
30
0
70
8
0
VERTEX
8
0
62
5
10
0.28284254
20
1.2692039
30
0
70
32
0
VERTEX
8
0
62
5
10
0.28284254
20
1.3457406
30
0
70
32
0
SEQEND
8
0
0
POLYLINE
8
0
62
5
66
1
10
0
20
0
30
0
70
8
0
VERTEX
8
0
62
5
10
0.29168137
20
1.3361735
30
0
70
32
0
VERTEX
8
0
62
5
10
0.29168137
20
1.278771
30
0
70
32
0
VERTEX
8
0
62
5
10
0.34471438
20
1.278771
30
0
70
32
0
VERTEX
8
0
62
5
10
0.34471438
20
1.3361735
30
0
70
32
0
VERTEX
8
0
62
5
10
0.29168137
20
1.3361735
30
0
70
32
0
SEQEND
8
0
0
POLYLINE
8
0
62
5
66
1
10
0
20
0
30
0
70
8
0
VERTEX
8
0
62
5
10
0.3005202
20
1.3266064
30
0
70
32
0
VERTEX
8
0
62
5
10
0.3005202
20
1.2883381
30
0
70
32
0
VERTEX
8
0
62
5
10
0.33587554
20
1.2883381
30
0
70
32
0
VERTEX
8
0
62
5
10
0.33587554
20
1.3266064
30
0
70
32
0
VERTEX
8
0
62
5
10
0.3005202
20
1.3266064
30
0
70
32
0
SEQEND
8
0
0
POLYLINE
8
0
62
5
66
1
10
0
20
0
30
0
70
8
0
VERTEX
8
0
62
5
10
0.30935904
20
1.3170393
30
0
70
32
0
VERTEX
8
0
62
5
10
0.30935904
20
1.2979052
30
0
70
32
0
VERTEX
8
0
62
5
10
0.32703671
20
1.2979052
30
0
70
32
0
VERTEX
8
0
62
5
10
0.32703671
20
1.3170393
30
0
70
32
0
VERTEX
8
0
62
5
10
0.30935904
20
1.3170393
30
0
70
32
0
SEQEND
8
0
0
POLYLINE
8
0
62
5
66
1
10
0
20
0
30
0
70
8
0
VERTEX
8
0
62
5
10
0.43310273
20
1.3361735
30
0
70
32
0
VERTEX
8
0
62
5
10
0.43310273
20
1.278771
30
0
70
32
0
VERTEX
8
0
62
5
10
0.48613573
20
1.278771
30
0
70
32
0
VERTEX
8
0
62
5
10
0.48613573
20
1.3361735
30
0
70
32
0
VERTEX
8
0
62
5
10
0.43310273
20
1.3361735
30
0
70
32
0
SEQEND
8
0
0
POLYLINE
8
0
62
5
66
1
10
0
20
0
30
0
70
8
0
VERTEX
8
0
62
5
10
0.44194156
20
1.3266064
30
0
70
32
0
VERTEX
8
0
62
5
10
0.44194156
20
1.2883381
30
0
70
32
0
VERTEX
8
0
62
5
10
0.4772969
20
1.2883381
30
0
70
32
0
VERTEX
8
0
62
5
10
0.4772969
20
1.3266064
30
0
70
32
0
VERTEX
8
0
62
5
10
0.44194156
20
1.3266064
30
0
70
32
0
SEQEND
8
0
0
POLYLINE
8
0
62
5
66
1
10
0
20
0
30
0
70
8
0
VERTEX
8
0
62
5
10
0.4507804
20
1.3170393
30
0
70
32
0
VERTEX
8
0
62
5
10
0.4507804
20
1.2979052
30
0
70
32
0
VERTEX
8
0
62
5
10
0.46845807
20
1.2979052
30
0
70
32
0
VERTEX
8
0
62
5
10
0.46845807
20
1.3170393
30
0
70
32
0
VERTEX
8
0
62
5
10
0.4507804
20
1.3170393
30
0
70
32
0
SEQEND
8
0
0
POLYLINE
8
0
62
5
66
1
10
0
20
0
30
0
70
8
0
VERTEX
8
0
62
5
10
-0.28284289
20
1.2692039
30
0
70
32
0
VERTEX
8
0
62
5
10
-0.28284289
20
1.3457406
30
0
70
32
0
SEQEND
8
0
0
POLYLINE
8
0
62
5
66
1
10
0
20
0
30
0
70
8
0
VERTEX
8
0
62
5
10
-0.28284289
20
1.2692039
30
0
70
32
0
VERTEX
8
0
62
5
10
-1.7733935e-07
20
1.2692039
30
0
70
32
0
SEQEND
8
0
0
POLYLINE
8
0
62
5
66
1
10
0
20
0
30
0
70
8
0
VERTEX
8
0
62
5
10
-0.28284289
20
1.3457406
30
0
70
32
0
VERTEX
8
0
62
5
10
-1.7733935e-07
20
1.3457406
30
0
70
32
0
SEQEND
8
0
0
POLYLINE
8
0
62
5
66
1
10
0
20
0
30
0
70
8
0
VERTEX
8
0
62
5
10
-0.21213221
20
1.2692039
30
0
70
32
0
VERTEX
8
0
62
5
10
-0.21213221
20
1.2692039
30
0
70
32
0
SEQEND
8
0
0
POLYLINE
8
0
62
5
66
1
10
0
20
0
30
0
70
8
0
VERTEX
8
0
62
5
10
-0.14142153
20
1.2692039
30
0
70
32
0
VERTEX
8
0
62
5
10
-0.14142153
20
1.2692039
30
0
70
32
0
SEQEND
8
0
0
POLYLINE
8
0
62
5
66
1
10
0
20
0
30
0
70
8
0
VERTEX
8
0
62
5
10
-0.070710855
20
1.2692039
30
0
70
32
0
VERTEX
8
0
62
5
10
-0.070710855
20
1.2692039
30
0
70
32
0
SEQEND
8
0
0
POLYLINE
8
0
62
5
66
1
10
0
20
0
30
0
70
8
0
VERTEX
8
0
62
5
10
-0.21213221
20
1.3457406
30
0
70
32
0
VERTEX
8
0
62
5
10
-0.21213221
20
1.3457406
30
0
70
32
0
SEQEND
8
0
0
POLYLINE
8
0
62
5
66
1
10
0
20
0
30
0
70
8
0
VERTEX
8
0
62
5
10
-0.14142153
20
1.3457406
30
0
70
32
0
VERTEX
8
0
62
5
10
-0.14142153
20
1.3457406
30
0
70
32
0
SEQEND
8
0
0
POLYLINE
8
0
62
5
66
1
10
0
20
0
30
0
70
8
0
VERTEX
8
0
62
5
10
-0.070710855
20
1.3457406
30
0
70
32
0
VERTEX
8
0
62
5
10
-0.070710855
20
1.3457406
30
0
70
32
0
SEQEND
8
0
0
POLYLINE
8
0
62
30
66
1
10
0
20
0
30
0
70
8
0
VERTEX
8
0
62
30
10
-0.28284289
20
1.3457406
30
0
70
32
0
VERTEX
8
0
62
30
10
-0.21213221
20
1.2692039
30
0
70
32
0
SEQEND
8
0
0
POLYLINE
8
0
62
30
66
1
10
0
20
0
30
0
70
8
0
VERTEX
8
0
62
30
10
-0.21213221
20
1.3457406
30
0
70
32
0
VERTEX
8
0
62
30
10
-0.28284289
20
1.2692039
30
0
70
32
0
SEQEND
8
0
0
POLYLINE
8
0
62
30
66
1
10
0
20
0
30
0
70
8
0
VERTEX
8
0
62
30
10
-0.14142153
20
1.3457406
30
0
70
32
0
VERTEX
8
0
62
30
10
-0.070710855
20
1.2692039
30
0
70
32
0
SEQEND
8
0
0
POLYLINE
8
0
62
30
66
1
10
0
20
0
30
0
70
8
0
VERTEX
8
0
62
30
10
-0.070710855
20
1.3457406
30
0
70
32
0
VERTEX
8
0
62
30
10
-0.14142153
20
1.2692039
30
0
70
32
0
SEQEND
8
0
0
POLYLINE
8
0
62
30
66
1
10
0
20
0
30
0
70
8
0
VERTEX
8
0
62
30
10
-0.21213221
20
1.3074722
30
0
70
32
0
VERTEX
8
0
62
30
10
-0.14142153
20
1.3074722
30
0
70
32
0
SEQEND
8
0
0
POLYLINE
8
0
62
30
66
1
10
0
20
0
30
0
70
8
0
VERTEX
8
0
62
30
10
-0.070710855
20
1.3074722
30
0
70
32
0
VERTEX
8
0
62
30
10
-1.7733935e-07
20
1.3074722
30
0
70
32
0
SEQEND
8
0
0
POLYLINE
8
0
62
5
66
1
10
0
20
0
30
0
70
8
0
VERTEX
8
0
62
5
10
-0.28284289
20
1.3074722
30
0
70
32
0
VERTEX
8
0
62
5
10
-0.24748755
20
1.3074722
30
0
70
32
0
SEQEND
8
0
0
POLYLINE
8
0
62
5
66
1
10
0
20
0
30
0
70
8
0
VERTEX
8
0
62
5
10
-0.14142153
20
1.3074722
30
0
70
32
0
VERTEX
8
0
62
5
10
-0.10606619
20
1.3074722
30
0
70
32
0
SEQEND
8
0
0
POLYLINE
8
0
62
5
66
1
10
0
20
0
30
0
70
8
0
VERTEX
8
0
62
5
10
-0.24748755
20
1.3074722
30
0
70
32
0
VERTEX
8
0
62
5
10
-0.21213221
20
1.3074722
30
0
70
32
0
SEQEND
8
0
0
POLYLINE
8
0
62
5
66
1
10
0
20
0
30
0
70
8
0
VERTEX
8
0
62
5
10
-0.10606619
20
1.3074722
30
0
70
32
0
VERTEX
8
0
62
5
10
-0.070710855
20
1.3074722
30
0
70
32
0
SEQEND
8
0
0
POLYLINE
8
0
62
5
66
1
10
0
20
0
30
0
70
8
0
VERTEX
8
0
62
5
10
-0.21213221
20
1.2692039
30
0
70
32
0
VERTEX
8
0
62
5
10
-0.21213221
20
1.3457406
30
0
70
32
0
SEQEND
8
0
0
POLYLINE
8
0
62
5
66
1
10
0
20
0
30
0
70
8
0
VERTEX
8
0
62
5
10
-0.14142153
20
1.2692039
30
0
70
32
0
VERTEX
8
0
62
5
10
-0.14142153
20
1.3457406
30
0
70
32
0
SEQEND
8
0
0
POLYLINE
8
0
62
5
66
1
10
0
20
0
30
0
70
8
0
VERTEX
8
0
62
5
10
-0.070710855
20
1.2692039
30
0
70
32
0
VERTEX
8
0
62
5
10
-0.070710855
20
1.3457406
30
0
70
32
0
SEQEND
8
0
0
POLYLINE
8
0
62
5
66
1
10
0
20
0
30
0
70
8
0
VERTEX
8
0
62
5
10
-0.28284289
20
1.2692039
30
0
70
32
0
VERTEX
8
0
62
5
10
-0.28284289
20
1.3457406
30
0
70
32
0
SEQEND
8
0
0
POLYLINE
8
0
62
5
66
1
10
0
20
0
30
0
70
8
0
VERTEX
8
0
62
5
10
-0.27400406
20
1.3361735
30
0
70
32
0
VERTEX
8
0
62
5
10
-0.27400406
20
1.278771
30
0
70
32
0
VERTEX
8
0
62
5
10
-0.22097105
20
1.278771
30
0
70
32
0
VERTEX
8
0
62
5
10
-0.22097105
20
1.3361735
30
0
70
32
0
VERTEX
8
0
62
5
10
-0.27400406
20
1.3361735
30
0
70
32
0
SEQEND
8
0
0
POLYLINE
8
0
62
5
66
1
10
0
20
0
30
0
70
8
0
VERTEX
8
0
62
5
10
-0.26516522
20
1.3266064
30
0
70
32
0
VERTEX
8
0
62
5
10
-0.26516522
20
1.2883381
30
0
70
32
0
VERTEX
8
0
62
5
10
-0.22980988
20
1.2883381
30
0
70
32
0
VERTEX
8
0
62
5
10
-0.22980988
20
1.3266064
30
0
70
32
0
VERTEX
8
0
62
5
10
-0.26516522
20
1.3266064
30
0
70
32
0
SEQEND
8
0
0
POLYLINE
8
0
62
5
66
1
10
0
20
0
30
0
70
8
0
VERTEX
8
0
62
5
10
-0.25632639
20
1.3170393
30
0
70
32
0
VERTEX
8
0
62
5
10
-0.25632639
20
1.2979052
30
0
70
32
0
VERTEX
8
0
62
5
10
-0.23864872
20
1.2979052
30
0
70
32
0
VERTEX
8
0
62
5
10
-0.23864872
20
1.3170393
30
0
70
32
0
VERTEX
8
0
62
5
10
-0.25632639
20
1.3170393
30
0
70
32
0
SEQEND
8
0
0
POLYLINE
8
0
62
5
66
1
10
0
20
0
30
0
70
8
0
VERTEX
8
0
62
5
10
-0.1325827
20
1.3361735
30
0
70
32
0
VERTEX
8
0
62
5
10
-0.1325827
20
1.278771
30
0
70
32
0
VERTEX
8
0
62
5
10
-0.07954969
20
1.278771
30
0
70
32
0
VERTEX
8
0
62
5
10
-0.07954969
20
1.3361735
30
0
70
32
0
VERTEX
8
0
62
5
10
-0.1325827
20
1.3361735
30
0
70
32
0
SEQEND
8
0
0
POLYLINE
8
0
62
5
66
1
10
0
20
0
30
0
70
8
0
VERTEX
8
0
62
5
10
-0.12374386
20
1.3266064
30
0
70
32
0
VERTEX
8
0
62
5
10
-0.12374386
20
1.2883381
30
0
70
32
0
VERTEX
8
0
62
5
10
-0.088388525
20
1.2883381
30
0
70
32
0
VERTEX
8
0
62
5
10
-0.088388525
20
1.3266064
30
0
70
32
0
VERTEX
8
0
62
5
10
-0.12374386
20
1.3266064
30
0
70
32
0
SEQEND
8
0
0
POLYLINE
8
0
62
5
66
1
10
0
20
0
30
0
70
8
0
VERTEX
8
0
62
5
10
-0.11490503
20
1.3170393
30
0
70
32
0
VERTEX
8
0
62
5
10
-0.11490503
20
1.2979052
30
0
70
32
0
VERTEX
8
0
62
5
10
-0.09722736
20
1.2979052
30
0
70
32
0
VERTEX
8
0
62
5
10
-0.09722736
20
1.3170393
30
0
70
32
0
VERTEX
8
0
62
5
10
-0.11490503
20
1.3170393
30
0
70
32
0
SEQEND
8
0
0
POLYLINE
8
0
62
5
66
1
10
0
20
0
30
0
70
8
0
VERTEX
8
0
62
5
10
-1.7733935e-07
20
1.3457406
30
0
70
32
0
VERTEX
8
0
62
5
10
-1.7733935e-07
20
1.379766
30
0
70
32
0
SEQEND
8
0
0
POLYLINE
8
0
62
5
66
1
10
0
20
0
30
0
70
8
0
VERTEX
8
0
62
5
10
0.070710501
20
1.3457406
30
0
70
32
0
VERTEX
8
0
62
5
10
0.070710501
20
1.379766
30
0
70
32
0
SEQEND
8
0
0
POLYLINE
8
0
62
5
66
1
10
0
20
0
30
0
70
8
0
VERTEX
8
0
62
5
10
0.14142118
20
1.3457406
30
0
70
32
0
VERTEX
8
0
62
5
10
0.14142118
20
1.379766
30
0
70
32
0
SEQEND
8
0
0
POLYLINE
8
0
62
5
66
1
10
0
20
0
30
0
70
8
0
VERTEX
8
0
62
5
10
0.21213186
20
1.3457406
30
0
70
32
0
VERTEX
8
0
62
5
10
0.21213186
20
1.379766
30
0
70
32
0
SEQEND
8
0
0
POLYLINE
8
0
62
5
66
1
10
0
20
0
30
0
70
8
0
VERTEX
8
0
62
5
10
0.28284254
20
1.3457406
30
0
70
32
0
VERTEX
8
0
62
5
10
0.28284254
20
1.379766
30
0
70
32
0
SEQEND
8
0
0
POLYLINE
8
0
62
5
66
1
10
0
20
0
30
0
70
8
0
VERTEX
8
0
62
5
10
0.070710501
20
1.3457406
30
0
70
32
0
VERTEX
8
0
62
5
10
0.070710501
20
1.3457406
30
0
70
32
0
SEQEND
8
0
0
POLYLINE
8
0
62
5
66
1
10
0
20
0
30
0
70
8
0
VERTEX
8
0
62
5
10
0.14142118
20
1.3457406
30
0
70
32
0
VERTEX
8
0
62
5
10
0.14142118
20
1.3457406
30
0
70
32
0
SEQEND
8
0
0
POLYLINE
8
0
62
5
66
1
10
0
20
0
30
0
70
8
0
VERTEX
8
0
62
5
10
0.21213186
20
1.3457406
30
0
70
32
0
VERTEX
8
0
62
5
10
0.21213186
20
1.3457406
30
0
70
32
0
SEQEND
8
0
0
POLYLINE
8
0
62
5
66
1
10
0
20
0
30
0
70
8
0
VERTEX
8
0
62
5
10
-1.7733935e-07
20
1.379766
30
0
70
32
0
VERTEX
8
0
62
5
10
-1.7733935e-07
20
1.379766
30
0
70
32
0
SEQEND
8
0
0
POLYLINE
8
0
62
5
66
1
10
0
20
0
30
0
70
8
0
VERTEX
8
0
62
5
10
0.070710501
20
1.379766
30
0
70
32
0
VERTEX
8
0
62
5
10
0.070710501
20
1.379766
30
0
70
32
0
SEQEND
8
0
0
POLYLINE
8
0
62
5
66
1
10
0
20
0
30
0
70
8
0
VERTEX
8
0
62
5
10
0.14142118
20
1.379766
30
0
70
32
0
VERTEX
8
0
62
5
10
0.14142118
20
1.379766
30
0
70
32
0
SEQEND
8
0
0
POLYLINE
8
0
62
5
66
1
10
0
20
0
30
0
70
8
0
VERTEX
8
0
62
5
10
0.21213186
20
1.379766
30
0
70
32
0
VERTEX
8
0
62
5
10
0.21213186
20
1.379766
30
0
70
32
0
SEQEND
8
0
0
POLYLINE
8
0
62
5
66
1
10
0
20
0
30
0
70
8
0
VERTEX
8
0
62
5
10
0.35355321
20
1.3457406
30
0
70
32
0
VERTEX
8
0
62
5
10
0.35355321
20
1.379766
30
0
70
32
0
SEQEND
8
0
0
POLYLINE
8
0
62
5
66
1
10
0
20
0
30
0
70
8
0
VERTEX
8
0
62
5
10
0.42426389
20
1.3457406
30
0
70
32
0
VERTEX
8
0
62
5
10
0.42426389
20
1.379766
30
0
70
32
0
SEQEND
8
0
0
POLYLINE
8
0
62
5
66
1
10
0
20
0
30
0
70
8
0
VERTEX
8
0
62
5
10
0.49497457
20
1.3457406
30
0
70
32
0
VERTEX
8
0
62
5
10
0.49497457
20
1.379766
30
0
70
32
0
SEQEND
8
0
0
POLYLINE
8
0
62
5
66
1
10
0
20
0
30
0
70
8
0
VERTEX
8
0
62
5
10
0.56568525
20
1.3457406
30
0
70
32
0
VERTEX
8
0
62
5
10
0.56568525
20
1.379766
30
0
70
32
0
SEQEND
8
0
0
POLYLINE
8
0
62
5
66
1
10
0
20
0
30
0
70
8
0
VERTEX
8
0
62
5
10
0.35355321
20
1.3457406
30
0
70
32
0
VERTEX
8
0
62
5
10
0.35355321
20
1.3457406
30
0
70
32
0
SEQEND
8
0
0
POLYLINE
8
0
62
5
66
1
10
0
20
0
30
0
70
8
0
VERTEX
8
0
62
5
10
0.42426389
20
1.3457406
30
0
70
32
0
VERTEX
8
0
62
5
10
0.42426389
20
1.3457406
30
0
70
32
0
SEQEND
8
0
0
POLYLINE
8
0
62
5
66
1
10
0
20
0
30
0
70
8
0
VERTEX
8
0
62
5
10
0.49497457
20
1.3457406
30
0
70
32
0
VERTEX
8
0
62
5
10
0.49497457
20
1.3457406
30
0
70
32
0
SEQEND
8
0
0
POLYLINE
8
0
62
5
66
1
10
0
20
0
30
0
70
8
0
VERTEX
8
0
62
5
10
0.28284254
20
1.379766
30
0
70
32
0
VERTEX
8
0
62
5
10
0.28284254
20
1.379766
30
0
70
32
0
SEQEND
8
0
0
POLYLINE
8
0
62
5
66
1
10
0
20
0
30
0
70
8
0
VERTEX
8
0
62
5
10
0.35355321
20
1.379766
30
0
70
32
0
VERTEX
8
0
62
5
10
0.35355321
20
1.379766
30
0
70
32
0
SEQEND
8
0
0
POLYLINE
8
0
62
5
66
1
10
0
20
0
30
0
70
8
0
VERTEX
8
0
62
5
10
0.42426389
20
1.379766
30
0
70
32
0
VERTEX
8
0
62
5
10
0.42426389
20
1.379766
30
0
70
32
0
SEQEND
8
0
0
POLYLINE
8
0
62
5
66
1
10
0
20
0
30
0
70
8
0
VERTEX
8
0
62
5
10
0.49497457
20
1.379766
30
0
70
32
0
VERTEX
8
0
62
5
10
0.49497457
20
1.379766
30
0
70
32
0
SEQEND
8
0
0
POLYLINE
8
0
62
5
66
1
10
0
20
0
30
0
70
8
0
VERTEX
8
0
62
5
10
-0.21213221
20
1.3457406
30
0
70
32
0
VERTEX
8
0
62
5
10
-0.21213221
20
1.379766
30
0
70
32
0
SEQEND
8
0
0
POLYLINE
8
0
62
5
66
1
10
0
20
0
30
0
70
8
0
VERTEX
8
0
62
5
10
-0.14142153
20
1.3457406
30
0
70
32
0
VERTEX
8
0
62
5
10
-0.14142153
20
1.379766
30
0
70
32
0
SEQEND
8
0
0
POLYLINE
8
0
62
5
66
1
10
0
20
0
30
0
70
8
0
VERTEX
8
0
62
5
10
-0.070710855
20
1.3457406
30
0
70
32
0
VERTEX
8
0
62
5
10
-0.070710855
20
1.379766
30
0
70
32
0
SEQEND
8
0
0
POLYLINE
8
0
62
5
66
1
10
0
20
0
30
0
70
8
0
VERTEX
8
0
62
5
10
-1.7733935e-07
20
1.3457406
30
0
70
32
0
VERTEX
8
0
62
5
10
-1.7733935e-07
20
1.379766
30
0
70
32
0
SEQEND
8
0
0
POLYLINE
8
0
62
5
66
1
10
0
20
0
30
0
70
8
0
VERTEX
8
0
62
5
10
-0.21213221
20
1.3457406
30
0
70
32
0
VERTEX
8
0
62
5
10
-0.21213221
20
1.3457406
30
0
70
32
0
SEQEND
8
0
0
POLYLINE
8
0
62
5
66
1
10
0
20
0
30
0
70
8
0
VERTEX
8
0
62
5
10
-0.14142153
20
1.3457406
30
0
70
32
0
VERTEX
8
0
62
5
10
-0.14142153
20
1.3457406
30
0
70
32
0
SEQEND
8
0
0
POLYLINE
8
0
62
5
66
1
10
0
20
0
30
0
70
8
0
VERTEX
8
0
62
5
10
-0.070710855
20
1.3457406
30
0
70
32
0
VERTEX
8
0
62
5
10
-0.070710855
20
1.3457406
30
0
70
32
0
SEQEND
8
0
0
POLYLINE
8
0
62
5
66
1
10
0
20
0
30
0
70
8
0
VERTEX
8
0
62
5
10
-0.28284289
20
1.379766
30
0
70
32
0
VERTEX
8
0
62
5
10
-0.28284289
20
1.379766
30
0
70
32
0
SEQEND
8
0
0
POLYLINE
8
0
62
5
66
1
10
0
20
0
30
0
70
8
0
VERTEX
8
0
62
5
10
-0.21213221
20
1.379766
30
0
70
32
0
VERTEX
8
0
62
5
10
-0.21213221
20
1.379766
30
0
70
32
0
SEQEND
8
0
0
POLYLINE
8
0
62
5
66
1
10
0
20
0
30
0
70
8
0
VERTEX
8
0
62
5
10
-0.14142153
20
1.379766
30
0
70
32
0
VERTEX
8
0
62
5
10
-0.14142153
20
1.379766
30
0
70
32
0
SEQEND
8
0
0
POLYLINE
8
0
62
5
66
1
10
0
20
0
30
0
70
8
0
VERTEX
8
0
62
5
10
-0.070710855
20
1.379766
30
0
70
32
0
VERTEX
8
0
62
5
10
-0.070710855
20
1.379766
30
0
70
32
0
SEQEND
8
0
0
POLYLINE
8
0
62
5
66
1
10
0
20
0
30
0
70
8
0
VERTEX
8
0
62
5
10
-1.7733935e-07
20
1.379766
30
0
70
32
0
VERTEX
8
0
62
5
10
-1.7733935e-07
20
1.5158674
30
0
70
32
0
SEQEND
8
0
0
POLYLINE
8
0
62
5
66
1
10
0
20
0
30
0
70
8
0
VERTEX
8
0
62
5
10
0.28284254
20
1.379766
30
0
70
32
0
VERTEX
8
0
62
5
10
0.28284254
20
1.5158674
30
0
70
32
0
SEQEND
8
0
0
POLYLINE
8
0
62
5
66
1
10
0
20
0
30
0
70
8
0
VERTEX
8
0
62
5
10
0.070710501
20
1.379766
30
0
70
32
0
VERTEX
8
0
62
5
10
0.070710501
20
1.5158674
30
0
70
32
0
SEQEND
8
0
0
POLYLINE
8
0
62
5
66
1
10
0
20
0
30
0
70
8
0
VERTEX
8
0
62
5
10
0.14142118
20
1.379766
30
0
70
32
0
VERTEX
8
0
62
5
10
0.14142118
20
1.5158674
30
0
70
32
0
SEQEND
8
0
0
POLYLINE
8
0
62
5
66
1
10
0
20
0
30
0
70
8
0
VERTEX
8
0
62
5
10
0.21213186
20
1.379766
30
0
70
32
0
VERTEX
8
0
62
5
10
0.21213186
20
1.5158674
30
0
70
32
0
SEQEND
8
0
0
POLYLINE
8
0
62
5
66
1
10
0
20
0
30
0
70
8
0
VERTEX
8
0
62
5
10
0.56568525
20
1.379766
30
0
70
32
0
VERTEX
8
0
62
5
10
0.56568525
20
1.5158674
30
0
70
32
0
SEQEND
8
0
0
POLYLINE
8
0
62
5
66
1
10
0
20
0
30
0
70
8
0
VERTEX
8
0
62
5
10
0.35355321
20
1.379766
30
0
70
32
0
VERTEX
8
0
62
5
10
0.35355321
20
1.5158674
30
0
70
32
0
SEQEND
8
0
0
POLYLINE
8
0
62
5
66
1
10
0
20
0
30
0
70
8
0
VERTEX
8
0
62
5
10
0.42426389
20
1.379766
30
0
70
32
0
VERTEX
8
0
62
5
10
0.42426389
20
1.5158674
30
0
70
32
0
SEQEND
8
0
0
POLYLINE
8
0
62
5
66
1
10
0
20
0
30
0
70
8
0
VERTEX
8
0
62
5
10
0.49497457
20
1.379766
30
0
70
32
0
VERTEX
8
0
62
5
10
0.49497457
20
1.5158674
30
0
70
32
0
SEQEND
8
0
0
POLYLINE
8
0
62
5
66
1
10
0
20
0
30
0
70
8
0
VERTEX
8
0
62
5
10
-0.28284289
20
1.379766
30
0
70
32
0
VERTEX
8
0
62
5
10
-0.28284289
20
1.5158674
30
0
70
32
0
SEQEND
8
0
0
POLYLINE
8
0
62
5
66
1
10
0
20
0
30
0
70
8
0
VERTEX
8
0
62
5
10
-0.21213221
20
1.379766
30
0
70
32
0
VERTEX
8
0
62
5
10
-0.21213221
20
1.5158674
30
0
70
32
0
SEQEND
8
0
0
POLYLINE
8
0
62
5
66
1
10
0
20
0
30
0
70
8
0
VERTEX
8
0
62
5
10
-0.14142153
20
1.379766
30
0
70
32
0
VERTEX
8
0
62
5
10
-0.14142153
20
1.5158674
30
0
70
32
0
SEQEND
8
0
0
POLYLINE
8
0
62
5
66
1
10
0
20
0
30
0
70
8
0
VERTEX
8
0
62
5
10
-0.070710855
20
1.379766
30
0
70
32
0
VERTEX
8
0
62
5
10
-0.070710855
20
1.5158674
30
0
70
32
0
SEQEND
8
0
0
POLYLINE
8
0
62
5
66
1
10
0
20
0
30
0
70
8
0
VERTEX
8
0
62
5
10
-1.7733935e-07
20
1.5158674
30
0
70
32
0
VERTEX
8
0
62
5
10
-1.7733935e-07
20
1.5924041
30
0
70
32
0
SEQEND
8
0
0
POLYLINE
8
0
62
5
66
1
10
0
20
0
30
0
70
8
0
VERTEX
8
0
62
5
10
0.28284254
20
1.5924041
30
0
70
32
0
VERTEX
8
0
62
5
10
0.28284254
20
1.5158674
30
0
70
32
0
SEQEND
8
0
0
POLYLINE
8
0
62
5
66
1
10
0
20
0
30
0
70
8
0
VERTEX
8
0
62
5
10
-1.7733935e-07
20
1.5158674
30
0
70
32
0
VERTEX
8
0
62
5
10
0.28284254
20
1.5158674
30
0
70
32
0
SEQEND
8
0
0
POLYLINE
8
0
62
5
66
1
10
0
20
0
30
0
70
8
0
VERTEX
8
0
62
5
10
-1.7733935e-07
20
1.5924041
30
0
70
32
0
VERTEX
8
0
62
5
10
0.28284254
20
1.5924041
30
0
70
32
0
SEQEND
8
0
0
POLYLINE
8
0
62
5
66
1
10
0
20
0
30
0
70
8
0
VERTEX
8
0
62
5
10
0.070710501
20
1.5158674
30
0
70
32
0
VERTEX
8
0
62
5
10
0.070710501
20
1.5158674
30
0
70
32
0
SEQEND
8
0
0
POLYLINE
8
0
62
5
66
1
10
0
20
0
30
0
70
8
0
VERTEX
8
0
62
5
10
0.14142118
20
1.5158674
30
0
70
32
0
VERTEX
8
0
62
5
10
0.14142118
20
1.5158674
30
0
70
32
0
SEQEND
8
0
0
POLYLINE
8
0
62
5
66
1
10
0
20
0
30
0
70
8
0
VERTEX
8
0
62
5
10
0.21213186
20
1.5158674
30
0
70
32
0
VERTEX
8
0
62
5
10
0.21213186
20
1.5158674
30
0
70
32
0
SEQEND
8
0
0
POLYLINE
8
0
62
5
66
1
10
0
20
0
30
0
70
8
0
VERTEX
8
0
62
5
10
0.070710501
20
1.5924041
30
0
70
32
0
VERTEX
8
0
62
5
10
0.070710501
20
1.5924041
30
0
70
32
0
SEQEND
8
0
0
POLYLINE
8
0
62
5
66
1
10
0
20
0
30
0
70
8
0
VERTEX
8
0
62
5
10
0.14142118
20
1.5924041
30
0
70
32
0
VERTEX
8
0
62
5
10
0.14142118
20
1.5924041
30
0
70
32
0
SEQEND
8
0
0
POLYLINE
8
0
62
5
66
1
10
0
20
0
30
0
70
8
0
VERTEX
8
0
62
5
10
0.21213186
20
1.5924041
30
0
70
32
0
VERTEX
8
0
62
5
10
0.21213186
20
1.5924041
30
0
70
32
0
SEQEND
8
0
0
POLYLINE
8
0
62
30
66
1
10
0
20
0
30
0
70
8
0
VERTEX
8
0
62
30
10
-1.7733935e-07
20
1.5158674
30
0
70
32
0
VERTEX
8
0
62
30
10
0.035355162
20
1.5541358
30
0
70
32
0
SEQEND
8
0
0
POLYLINE
8
0
62
30
66
1
10
0
20
0
30
0
70
8
0
VERTEX
8
0
62
30
10
0.035355162
20
1.5541358
30
0
70
32
0
VERTEX
8
0
62
30
10
0.070710501
20
1.5158674
30
0
70
32
0
SEQEND
8
0
0
POLYLINE
8
0
62
30
66
1
10
0
20
0
30
0
70
8
0
VERTEX
8
0
62
30
10
0.14142118
20
1.5158674
30
0
70
32
0
VERTEX
8
0
62
30
10
0.17677652
20
1.5541358
30
0
70
32
0
SEQEND
8
0
0
POLYLINE
8
0
62
30
66
1
10
0
20
0
30
0
70
8
0
VERTEX
8
0
62
30
10
0.17677652
20
1.5541358
30
0
70
32
0
VERTEX
8
0
62
30
10
0.21213186
20
1.5158674
30
0
70
32
0
SEQEND
8
0
0
POLYLINE
8
0
62
30
66
1
10
0
20
0
30
0
70
8
0
VERTEX
8
0
62
30
10
0.070710501
20
1.5541358
30
0
70
32
0
VERTEX
8
0
62
30
10
0.14142118
20
1.5541358
30
0
70
32
0
SEQEND
8
0
0
POLYLINE
8
0
62
30
66
1
10
0
20
0
30
0
70
8
0
VERTEX
8
0
62
30
10
0.21213186
20
1.5541358
30
0
70
32
0
VERTEX
8
0
62
30
10
0.28284254
20
1.5541358
30
0
70
32
0
SEQEND
8
0
0
POLYLINE
8
0
62
5
66
1
10
0
20
0
30
0
70
8
0
VERTEX
8
0
62
5
10
-1.7733935e-07
20
1.5541358
30
0
70
32
0
VERTEX
8
0
62
5
10
0.035355162
20
1.5541358
30
0
70
32
0
SEQEND
8
0
0
POLYLINE
8
0
62
5
66
1
10
0
20
0
30
0
70
8
0
VERTEX
8
0
62
5
10
0.14142118
20
1.5541358
30
0
70
32
0
VERTEX
8
0
62
5
10
0.17677652
20
1.5541358
30
0
70
32
0
SEQEND
8
0
0
POLYLINE
8
0
62
5
66
1
10
0
20
0
30
0
70
8
0
VERTEX
8
0
62
5
10
0.035355162
20
1.5541358
30
0
70
32
0
VERTEX
8
0
62
5
10
0.070710501
20
1.5541358
30
0
70
32
0
SEQEND
8
0
0
POLYLINE
8
0
62
5
66
1
10
0
20
0
30
0
70
8
0
VERTEX
8
0
62
5
10
0.17677652
20
1.5541358
30
0
70
32
0
VERTEX
8
0
62
5
10
0.21213186
20
1.5541358
30
0
70
32
0
SEQEND
8
0
0
POLYLINE
8
0
62
5
66
1
10
0
20
0
30
0
70
8
0
VERTEX
8
0
62
5
10
0.070710501
20
1.5158674
30
0
70
32
0
VERTEX
8
0
62
5
10
0.070710501
20
1.5924041
30
0
70
32
0
SEQEND
8
0
0
POLYLINE
8
0
62
5
66
1
10
0
20
0
30
0
70
8
0
VERTEX
8
0
62
5
10
0.14142118
20
1.5158674
30
0
70
32
0
VERTEX
8
0
62
5
10
0.14142118
20
1.5924041
30
0
70
32
0
SEQEND
8
0
0
POLYLINE
8
0
62
5
66
1
10
0
20
0
30
0
70
8
0
VERTEX
8
0
62
5
10
0.21213186
20
1.5158674
30
0
70
32
0
VERTEX
8
0
62
5
10
0.21213186
20
1.5924041
30
0
70
32
0
SEQEND
8
0
0
POLYLINE
8
0
62
5
66
1
10
0
20
0
30
0
70
8
0
VERTEX
8
0
62
5
10
-1.7733935e-07
20
1.5158674
30
0
70
32
0
VERTEX
8
0
62
5
10
-1.7733935e-07
20
1.5924041
30
0
70
32
0
SEQEND
8
0
0
POLYLINE
8
0
62
5
66
1
10
0
20
0
30
0
70
8
0
VERTEX
8
0
62
5
10
0.56568525
20
1.5924041
30
0
70
32
0
VERTEX
8
0
62
5
10
0.56568525
20
1.5158674
30
0
70
32
0
SEQEND
8
0
0
POLYLINE
8
0
62
5
66
1
10
0
20
0
30
0
70
8
0
VERTEX
8
0
62
5
10
0.28284254
20
1.5158674
30
0
70
32
0
VERTEX
8
0
62
5
10
0.56568525
20
1.5158674
30
0
70
32
0
SEQEND
8
0
0
POLYLINE
8
0
62
5
66
1
10
0
20
0
30
0
70
8
0
VERTEX
8
0
62
5
10
0.28284254
20
1.5924041
30
0
70
32
0
VERTEX
8
0
62
5
10
0.56568525
20
1.5924041
30
0
70
32
0
SEQEND
8
0
0
POLYLINE
8
0
62
5
66
1
10
0
20
0
30
0
70
8
0
VERTEX
8
0
62
5
10
0.35355321
20
1.5158674
30
0
70
32
0
VERTEX
8
0
62
5
10
0.35355321
20
1.5158674
30
0
70
32
0
SEQEND
8
0
0
POLYLINE
8
0
62
5
66
1
10
0
20
0
30
0
70
8
0
VERTEX
8
0
62
5
10
0.42426389
20
1.5158674
30
0
70
32
0
VERTEX
8
0
62
5
10
0.42426389
20
1.5158674
30
0
70
32
0
SEQEND
8
0
0
POLYLINE
8
0
62
5
66
1
10
0
20
0
30
0
70
8
0
VERTEX
8
0
62
5
10
0.49497457
20
1.5158674
30
0
70
32
0
VERTEX
8
0
62
5
10
0.49497457
20
1.5158674
30
0
70
32
0
SEQEND
8
0
0
POLYLINE
8
0
62
5
66
1
10
0
20
0
30
0
70
8
0
VERTEX
8
0
62
5
10
0.35355321
20
1.5924041
30
0
70
32
0
VERTEX
8
0
62
5
10
0.35355321
20
1.5924041
30
0
70
32
0
SEQEND
8
0
0
POLYLINE
8
0
62
5
66
1
10
0
20
0
30
0
70
8
0
VERTEX
8
0
62
5
10
0.42426389
20
1.5924041
30
0
70
32
0
VERTEX
8
0
62
5
10
0.42426389
20
1.5924041
30
0
70
32
0
SEQEND
8
0
0
POLYLINE
8
0
62
5
66
1
10
0
20
0
30
0
70
8
0
VERTEX
8
0
62
5
10
0.49497457
20
1.5924041
30
0
70
32
0
VERTEX
8
0
62
5
10
0.49497457
20
1.5924041
30
0
70
32
0
SEQEND
8
0
0
POLYLINE
8
0
62
30
66
1
10
0
20
0
30
0
70
8
0
VERTEX
8
0
62
30
10
0.28284254
20
1.5158674
30
0
70
32
0
VERTEX
8
0
62
30
10
0.31819787
20
1.5541358
30
0
70
32
0
SEQEND
8
0
0
POLYLINE
8
0
62
30
66
1
10
0
20
0
30
0
70
8
0
VERTEX
8
0
62
30
10
0.31819787
20
1.5541358
30
0
70
32
0
VERTEX
8
0
62
30
10
0.35355321
20
1.5158674
30
0
70
32
0
SEQEND
8
0
0
POLYLINE
8
0
62
30
66
1
10
0
20
0
30
0
70
8
0
VERTEX
8
0
62
30
10
0.42426389
20
1.5158674
30
0
70
32
0
VERTEX
8
0
62
30
10
0.45961923
20
1.5541358
30
0
70
32
0
SEQEND
8
0
0
POLYLINE
8
0
62
30
66
1
10
0
20
0
30
0
70
8
0
VERTEX
8
0
62
30
10
0.45961923
20
1.5541358
30
0
70
32
0
VERTEX
8
0
62
30
10
0.49497457
20
1.5158674
30
0
70
32
0
SEQEND
8
0
0
POLYLINE
8
0
62
30
66
1
10
0
20
0
30
0
70
8
0
VERTEX
8
0
62
30
10
0.35355321
20
1.5541358
30
0
70
32
0
VERTEX
8
0
62
30
10
0.42426389
20
1.5541358
30
0
70
32
0
SEQEND
8
0
0
POLYLINE
8
0
62
30
66
1
10
0
20
0
30
0
70
8
0
VERTEX
8
0
62
30
10
0.49497457
20
1.5541358
30
0
70
32
0
VERTEX
8
0
62
30
10
0.56568525
20
1.5541358
30
0
70
32
0
SEQEND
8
0
0
POLYLINE
8
0
62
5
66
1
10
0
20
0
30
0
70
8
0
VERTEX
8
0
62
5
10
0.28284254
20
1.5541358
30
0
70
32
0
VERTEX
8
0
62
5
10
0.31819787
20
1.5541358
30
0
70
32
0
SEQEND
8
0
0
POLYLINE
8
0
62
5
66
1
10
0
20
0
30
0
70
8
0
VERTEX
8
0
62
5
10
0.42426389
20
1.5541358
30
0
70
32
0
VERTEX
8
0
62
5
10
0.45961923
20
1.5541358
30
0
70
32
0
SEQEND
8
0
0
POLYLINE
8
0
62
5
66
1
10
0
20
0
30
0
70
8
0
VERTEX
8
0
62
5
10
0.31819787
20
1.5541358
30
0
70
32
0
VERTEX
8
0
62
5
10
0.35355321
20
1.5541358
30
0
70
32
0
SEQEND
8
0
0
POLYLINE
8
0
62
5
66
1
10
0
20
0
30
0
70
8
0
VERTEX
8
0
62
5
10
0.45961923
20
1.5541358
30
0
70
32
0
VERTEX
8
0
62
5
10
0.49497457
20
1.5541358
30
0
70
32
0
SEQEND
8
0
0
POLYLINE
8
0
62
5
66
1
10
0
20
0
30
0
70
8
0
VERTEX
8
0
62
5
10
0.35355321
20
1.5158674
30
0
70
32
0
VERTEX
8
0
62
5
10
0.35355321
20
1.5924041
30
0
70
32
0
SEQEND
8
0
0
POLYLINE
8
0
62
5
66
1
10
0
20
0
30
0
70
8
0
VERTEX
8
0
62
5
10
0.42426389
20
1.5158674
30
0
70
32
0
VERTEX
8
0
62
5
10
0.42426389
20
1.5924041
30
0
70
32
0
SEQEND
8
0
0
POLYLINE
8
0
62
5
66
1
10
0
20
0
30
0
70
8
0
VERTEX
8
0
62
5
10
0.49497457
20
1.5158674
30
0
70
32
0
VERTEX
8
0
62
5
10
0.49497457
20
1.5924041
30
0
70
32
0
SEQEND
8
0
0
POLYLINE
8
0
62
5
66
1
10
0
20
0
30
0
70
8
0
VERTEX
8
0
62
5
10
0.28284254
20
1.5158674
30
0
70
32
0
VERTEX
8
0
62
5
10
0.28284254
20
1.5924041
30
0
70
32
0
SEQEND
8
0
0
POLYLINE
8
0
62
5
66
1
10
0
20
0
30
0
70
8
0
VERTEX
8
0
62
5
10
-0.28284289
20
1.5158674
30
0
70
32
0
VERTEX
8
0
62
5
10
-0.28284289
20
1.5924041
30
0
70
32
0
SEQEND
8
0
0
POLYLINE
8
0
62
5
66
1
10
0
20
0
30
0
70
8
0
VERTEX
8
0
62
5
10
-0.28284289
20
1.5158674
30
0
70
32
0
VERTEX
8
0
62
5
10
-1.7733935e-07
20
1.5158674
30
0
70
32
0
SEQEND
8
0
0
POLYLINE
8
0
62
5
66
1
10
0
20
0
30
0
70
8
0
VERTEX
8
0
62
5
10
-0.28284289
20
1.5924041
30
0
70
32
0
VERTEX
8
0
62
5
10
-1.7733935e-07
20
1.5924041
30
0
70
32
0
SEQEND
8
0
0
POLYLINE
8
0
62
5
66
1
10
0
20
0
30
0
70
8
0
VERTEX
8
0
62
5
10
-0.21213221
20
1.5158674
30
0
70
32
0
VERTEX
8
0
62
5
10
-0.21213221
20
1.5158674
30
0
70
32
0
SEQEND
8
0
0
POLYLINE
8
0
62
5
66
1
10
0
20
0
30
0
70
8
0
VERTEX
8
0
62
5
10
-0.14142153
20
1.5158674
30
0
70
32
0
VERTEX
8
0
62
5
10
-0.14142153
20
1.5158674
30
0
70
32
0
SEQEND
8
0
0
POLYLINE
8
0
62
5
66
1
10
0
20
0
30
0
70
8
0
VERTEX
8
0
62
5
10
-0.070710855
20
1.5158674
30
0
70
32
0
VERTEX
8
0
62
5
10
-0.070710855
20
1.5158674
30
0
70
32
0
SEQEND
8
0
0
POLYLINE
8
0
62
5
66
1
10
0
20
0
30
0
70
8
0
VERTEX
8
0
62
5
10
-0.21213221
20
1.5924041
30
0
70
32
0
VERTEX
8
0
62
5
10
-0.21213221
20
1.5924041
30
0
70
32
0
SEQEND
8
0
0
POLYLINE
8
0
62
5
66
1
10
0
20
0
30
0
70
8
0
VERTEX
8
0
62
5
10
-0.14142153
20
1.5924041
30
0
70
32
0
VERTEX
8
0
62
5
10
-0.14142153
20
1.5924041
30
0
70
32
0
SEQEND
8
0
0
POLYLINE
8
0
62
5
66
1
10
0
20
0
30
0
70
8
0
VERTEX
8
0
62
5
10
-0.070710855
20
1.5924041
30
0
70
32
0
VERTEX
8
0
62
5
10
-0.070710855
20
1.5924041
30
0
70
32
0
SEQEND
8
0
0
POLYLINE
8
0
62
30
66
1
10
0
20
0
30
0
70
8
0
VERTEX
8
0
62
30
10
-0.28284289
20
1.5158674
30
0
70
32
0
VERTEX
8
0
62
30
10
-0.24748755
20
1.5541358
30
0
70
32
0
SEQEND
8
0
0
POLYLINE
8
0
62
30
66
1
10
0
20
0
30
0
70
8
0
VERTEX
8
0
62
30
10
-0.24748755
20
1.5541358
30
0
70
32
0
VERTEX
8
0
62
30
10
-0.21213221
20
1.5158674
30
0
70
32
0
SEQEND
8
0
0
POLYLINE
8
0
62
30
66
1
10
0
20
0
30
0
70
8
0
VERTEX
8
0
62
30
10
-0.14142153
20
1.5158674
30
0
70
32
0
VERTEX
8
0
62
30
10
-0.10606619
20
1.5541358
30
0
70
32
0
SEQEND
8
0
0
POLYLINE
8
0
62
30
66
1
10
0
20
0
30
0
70
8
0
VERTEX
8
0
62
30
10
-0.10606619
20
1.5541358
30
0
70
32
0
VERTEX
8
0
62
30
10
-0.070710855
20
1.5158674
30
0
70
32
0
SEQEND
8
0
0
POLYLINE
8
0
62
30
66
1
10
0
20
0
30
0
70
8
0
VERTEX
8
0
62
30
10
-0.21213221
20
1.5541358
30
0
70
32
0
VERTEX
8
0
62
30
10
-0.14142153
20
1.5541358
30
0
70
32
0
SEQEND
8
0
0
POLYLINE
8
0
62
30
66
1
10
0
20
0
30
0
70
8
0
VERTEX
8
0
62
30
10
-0.070710855
20
1.5541358
30
0
70
32
0
VERTEX
8
0
62
30
10
-1.7733935e-07
20
1.5541358
30
0
70
32
0
SEQEND
8
0
0
POLYLINE
8
0
62
5
66
1
10
0
20
0
30
0
70
8
0
VERTEX
8
0
62
5
10
-0.28284289
20
1.5541358
30
0
70
32
0
VERTEX
8
0
62
5
10
-0.24748755
20
1.5541358
30
0
70
32
0
SEQEND
8
0
0
POLYLINE
8
0
62
5
66
1
10
0
20
0
30
0
70
8
0
VERTEX
8
0
62
5
10
-0.14142153
20
1.5541358
30
0
70
32
0
VERTEX
8
0
62
5
10
-0.10606619
20
1.5541358
30
0
70
32
0
SEQEND
8
0
0
POLYLINE
8
0
62
5
66
1
10
0
20
0
30
0
70
8
0
VERTEX
8
0
62
5
10
-0.24748755
20
1.5541358
30
0
70
32
0
VERTEX
8
0
62
5
10
-0.21213221
20
1.5541358
30
0
70
32
0
SEQEND
8
0
0
POLYLINE
8
0
62
5
66
1
10
0
20
0
30
0
70
8
0
VERTEX
8
0
62
5
10
-0.10606619
20
1.5541358
30
0
70
32
0
VERTEX
8
0
62
5
10
-0.070710855
20
1.5541358
30
0
70
32
0
SEQEND
8
0
0
POLYLINE
8
0
62
5
66
1
10
0
20
0
30
0
70
8
0
VERTEX
8
0
62
5
10
-0.21213221
20
1.5158674
30
0
70
32
0
VERTEX
8
0
62
5
10
-0.21213221
20
1.5924041
30
0
70
32
0
SEQEND
8
0
0
POLYLINE
8
0
62
5
66
1
10
0
20
0
30
0
70
8
0
VERTEX
8
0
62
5
10
-0.14142153
20
1.5158674
30
0
70
32
0
VERTEX
8
0
62
5
10
-0.14142153
20
1.5924041
30
0
70
32
0
SEQEND
8
0
0
POLYLINE
8
0
62
5
66
1
10
0
20
0
30
0
70
8
0
VERTEX
8
0
62
5
10
-0.070710855
20
1.5158674
30
0
70
32
0
VERTEX
8
0
62
5
10
-0.070710855
20
1.5924041
30
0
70
32
0
SEQEND
8
0
0
POLYLINE
8
0
62
5
66
1
10
0
20
0
30
0
70
8
0
VERTEX
8
0
62
5
10
-0.28284289
20
1.5158674
30
0
70
32
0
VERTEX
8
0
62
5
10
-0.28284289
20
1.5924041
30
0
70
32
0
SEQEND
8
0
0
POLYLINE
8
0
62
18
66
1
10
0
20
0
30
0
70
8
0
VERTEX
8
0
62
18
10
0
20
0
30
0
70
32
0
VERTEX
8
0
62
18
10
0.35355339
20
0
30
0
70
32
0
VERTEX
8
0
62
18
10
0.35355339
20
0.22357095
30
0
70
32
0
VERTEX
8
0
62
18
10
0
20
0.22357095
30
0
70
32
0
VERTEX
8
0
62
18
10
0
20
0
30
0
70
32
0
SEQEND
8
0
0
POLYLINE
8
0
62
5
66
1
10
0
20
0
30
0
70
8
0
VERTEX
8
0
62
5
10
0
20
0.22357095
30
0
70
32
0
VERTEX
8
0
62
5
10
0.35355339
20
0.22357095
30
0
70
32
0
SEQEND
8
0
0
POLYLINE
8
0
62
18
66
1
10
0
20
0
30
0
70
8
0
VERTEX
8
0
62
18
10
0
20
0.20357095
30
0
70
32
0
VERTEX
8
0
62
18
10
0.35355339
20
0.20357095
30
0
70
32
0
VERTEX
8
0
62
18
10
0.35355339
20
0.62876768
30
0
70
32
0
VERTEX
8
0
62
18
10
0
20
0.62876768
30
0
70
32
0
VERTEX
8
0
62
18
10
0
20
0.20357095
30
0
70
32
0
SEQEND
8
0
0
POLYLINE
8
0
62
5
66
1
10
0
20
0
30
0
70
8
0
VERTEX
8
0
62
5
10
0
20
0.62876768
30
0
70
32
0
VERTEX
8
0
62
5
10
0.35355339
20
0.62876768
30
0
70
32
0
SEQEND
8
0
0
POLYLINE
8
0
62
18
66
1
10
0
20
0
30
0
70
8
0
VERTEX
8
0
62
18
10
0
20
0.60876768
30
0
70
32
0
VERTEX
8
0
62
18
10
0.35355339
20
0.60876768
30
0
70
32
0
VERTEX
8
0
62
18
10
0.35355339
20
0.89142695
30
0
70
32
0
VERTEX
8
0
62
18
10
0
20
0.89142695
30
0
70
32
0
VERTEX
8
0
62
18
10
0
20
0.60876768
30
0
70
32
0
SEQEND
8
0
0
POLYLINE
8
0
62
5
66
1
10
0
20
0
30
0
70
8
0
VERTEX
8
0
62
5
10
0
20
0.89142695
30
0
70
32
0
VERTEX
8
0
62
5
10
0.35355339
20
0.89142695
30
0
70
32
0
SEQEND
8
0
0
POLYLINE
8
0
62
18
66
1
10
0
20
0
30
0
70
8
0
VERTEX
8
0
62
18
10
0
20
0.87142695
30
0
70
32
0
VERTEX
8
0
62
18
10
0.35355339
20
0.87142695
30
0
70
32
0
VERTEX
8
0
62
18
10
0.35355339
20
1.2550618
30
0
70
32
0
VERTEX
8
0
62
18
10
0
20
1.2550618
30
0
70
32
0
VERTEX
8
0
62
18
10
0
20
0.87142695
30
0
70
32
0
SEQEND
8
0
0
POLYLINE
8
0
62
5
66
1
10
0
20
0
30
0
70
8
0
VERTEX
8
0
62
5
10
0
20
1.2550618
30
0
70
32
0
VERTEX
8
0
62
5
10
0.35355339
20
1.2550618
30
0
70
32
0
SEQEND
8
0
0
POLYLINE
8
0
62
18
66
1
10
0
20
0
30
0
70
8
0
VERTEX
8
0
62
18
10
0
20
1.2350618
30
0
70
32
0
VERTEX
8
0
62
18
10
0.35355339
20
1.2350618
30
0
70
32
0
VERTEX
8
0
62
18
10
0.35355339
20
1.4478167
30
0
70
32
0
VERTEX
8
0
62
18
10
0
20
1.4478167
30
0
70
32
0
VERTEX
8
0
62
18
10
0
20
1.2350618
30
0
70
32
0
SEQEND
8
0
0
POLYLINE
8
0
62
5
66
1
10
0
20
0
30
0
70
8
0
VERTEX
8
0
62
5
10
0
20
1.4478167
30
0
70
32
0
VERTEX
8
0
62
5
10
0.35355339
20
1.4478167
30
0
70
32
0
SEQEND
8
0
0
POLYLINE
8
0
62
18
66
1
10
0
20
0
30
0
70
8
0
VERTEX
8
0
62
18
10
0
20
1.4278167
30
0
70
32
0
VERTEX
8
0
62
18
10
0.35355339
20
1.4278167
30
0
70
32
0
VERTEX
8
0
62
18
10
0.35355339
20
1.5924041
30
0
70
32
0
VERTEX
8
0
62
18
10
0
20
1.5924041
30
0
70
32
0
VERTEX
8
0
62
18
10
0
20
1.4278167
30
0
70
32
0
SEQEND
8
0
0
POLYLINE
8
0
62
18
66
1
10
0
20
0
30
0
70
8
0
VERTEX
8
0
62
18
10
0.35355339
20
0
30
0
70
32
0
VERTEX
8
0
62
18
10
0
20
0
30
0
70
32
0
VERTEX
8
0
62
18
10
0
20
1.5924041
30
0
70
32
0
VERTEX
8
0
62
18
10
0.35355339
20
1.5924041
30
0
70
32
0
VERTEX
8
0
62
18
10
0.35355339
20
0
30
0
70
32
0
SEQEND
8
0
0
ENDSEC
0
EOF
