0
SECTION
2
HEADER
9
$ACADVER
1
AC1006
9
$INSUNITS
70
6
0
ENDSEC
0
SECTION
2
ENTITIES
0
POLYLINE
8
0
62
5
66
1
10
0
20
0
30
0
70
8
0
VERTEX
8
0
62
5
10
0
20
0
30
0
70
32
0
VERTEX
8
0
62
5
10
0
20
0.1
30
0
70
32
0
SEQEND
8
0
0
POLYLINE
8
0
62
5
66
1
10
0
20
0
30
0
70
8
0
VERTEX
8
0
62
5
10
0.11313708
20
0
30
0
70
32
0
VERTEX
8
0
62
5
10
0.11313708
20
0.1
30
0
70
32
0
SEQEND
8
0
0
POLYLINE
8
0
62
5
66
1
10
0
20
0
30
0
70
8
0
VERTEX
8
0
62
5
10
0.028284271
20
0
30
0
70
32
0
VERTEX
8
0
62
5
10
0.028284271
20
0.1
30
0
70
32
0
SEQEND
8
0
0
POLYLINE
8
0
62
5
66
1
10
0
20
0
30
0
70
8
0
VERTEX
8
0
62
5
10
0.056568542
20
0
30
0
70
32
0
VERTEX
8
0
62
5
10
0.056568542
20
0.1
30
0
70
32
0
SEQEND
8
0
0
POLYLINE
8
0
62
5
66
1
10
0
20
0
30
0
70
8
0
VERTEX
8
0
62
5
10
0.084852814
20
0
30
0
70
32
0
VERTEX
8
0
62
5
10
0.084852814
20
0.1
30
0
70
32
0
SEQEND
8
0
0
POLYLINE
8
0
62
5
66
1
10
0
20
0
30
0
70
8
0
VERTEX
8
0
62
5
10
0.22627417
20
0
30
0
70
32
0
VERTEX
8
0
62
5
10
0.22627417
20
0.1
30
0
70
32
0
SEQEND
8
0
0
POLYLINE
8
0
62
5
66
1
10
0
20
0
30
0
70
8
0
VERTEX
8
0
62
5
10
0.14142136
20
0
30
0
70
32
0
VERTEX
8
0
62
5
10
0.14142136
20
0.1
30
0
70
32
0
SEQEND
8
0
0
POLYLINE
8
0
62
5
66
1
10
0
20
0
30
0
70
8
0
VERTEX
8
0
62
5
10
0.16970563
20
0
30
0
70
32
0
VERTEX
8
0
62
5
10
0.16970563
20
0.1
30
0
70
32
0
SEQEND
8
0
0
POLYLINE
8
0
62
5
66
1
10
0
20
0
30
0
70
8
0
VERTEX
8
0
62
5
10
0.1979899
20
0
30
0
70
32
0
VERTEX
8
0
62
5
10
0.1979899
20
0.1
30
0
70
32
0
SEQEND
8
0
0
POLYLINE
8
0
62
5
66
1
10
0
20
0
30
0
70
8
0
VERTEX
8
0
62
5
10
-0.11313708
20
0
30
0
70
32
0
VERTEX
8
0
62
5
10
-0.11313708
20
0.1
30
0
70
32
0
SEQEND
8
0
0
POLYLINE
8
0
62
5
66
1
10
0
20
0
30
0
70
8
0
VERTEX
8
0
62
5
10
-0.084852814
20
0
30
0
70
32
0
VERTEX
8
0
62
5
10
-0.084852814
20
0.1
30
0
70
32
0
SEQEND
8
0
0
POLYLINE
8
0
62
5
66
1
10
0
20
0
30
0
70
8
0
VERTEX
8
0
62
5
10
-0.056568542
20
0
30
0
70
32
0
VERTEX
8
0
62
5
10
-0.056568542
20
0.1
30
0
70
32
0
SEQEND
8
0
0
POLYLINE
8
0
62
5
66
1
10
0
20
0
30
0
70
8
0
VERTEX
8
0
62
5
10
-0.028284271
20
0
30
0
70
32
0
VERTEX
8
0
62
5
10
-0.028284271
20
0.1
30
0
70
32
0
SEQEND
8
0
0
POLYLINE
8
0
62
5
66
1
10
0
20
0
30
0
70
8
0
VERTEX
8
0
62
5
10
0
20
0.1
30
0
70
32
0
VERTEX
8
0
62
5
10
0
20
0.14
30
0
70
32
0
SEQEND
8
0
0
POLYLINE
8
0
62
5
66
1
10
0
20
0
30
0
70
8
0
VERTEX
8
0
62
5
10
0.11313708
20
0.14
30
0
70
32
0
VERTEX
8
0
62
5
10
0.11313708
20
0.1
30
0
70
32
0
SEQEND
8
0
0
POLYLINE
8
0
62
5
66
1
10
0
20
0
30
0
70
8
0
VERTEX
8
0
62
5
10
0
20
0.1
30
0
70
32
0
VERTEX
8
0
62
5
10
0.11313708
20
0.1
30
0
70
32
0
SEQEND
8
0
0
POLYLINE
8
0
62
5
66
1
10
0
20
0
30
0
70
8
0
VERTEX
8
0
62
5
10
0
20
0.14
30
0
70
32
0
VERTEX
8
0
62
5
10
0.11313708
20
0.14
30
0
70
32
0
SEQEND
8
0
0
POLYLINE
8
0
62
5
66
1
10
0
20
0
30
0
70
8
0
VERTEX
8
0
62
5
10
0.028284271
20
0.1
30
0
70
32
0
VERTEX
8
0
62
5
10
0.028284271
20
0.1
30
0
70
32
0
SEQEND
8
0
0
POLYLINE
8
0
62
5
66
1
10
0
20
0
30
0
70
8
0
VERTEX
8
0
62
5
10
0.056568542
20
0.1
30
0
70
32
0
VERTEX
8
0
62
5
10
0.056568542
20
0.1
30
0
70
32
0
SEQEND
8
0
0
POLYLINE
8
0
62
5
66
1
10
0
20
0
30
0
70
8
0
VERTEX
8
0
62
5
10
0.084852814
20
0.1
30
0
70
32
0
VERTEX
8
0
62
5
10
0.084852814
20
0.1
30
0
70
32
0
SEQEND
8
0
0
POLYLINE
8
0
62
5
66
1
10
0
20
0
30
0
70
8
0
VERTEX
8
0
62
5
10
0.028284271
20
0.14
30
0
70
32
0
VERTEX
8
0
62
5
10
0.028284271
20
0.14
30
0
70
32
0
SEQEND
8
0
0
POLYLINE
8
0
62
5
66
1
10
0
20
0
30
0
70
8
0
VERTEX
8
0
62
5
10
0.056568542
20
0.14
30
0
70
32
0
VERTEX
8
0
62
5
10
0.056568542
20
0.14
30
0
70
32
0
SEQEND
8
0
0
POLYLINE
8
0
62
5
66
1
10
0
20
0
30
0
70
8
0
VERTEX
8
0
62
5
10
0.084852814
20
0.14
30
0
70
32
0
VERTEX
8
0
62
5
10
0.084852814
20
0.14
30
0
70
32
0
SEQEND
8
0
0
POLYLINE
8
0
62
30
66
1
10
0
20
0
30
0
70
8
0
VERTEX
8
0
62
30
10
0
20
0.14
30
0
70
32
0
VERTEX
8
0
62
30
10
0.028284271
20
0.1
30
0
70
32
0
SEQEND
8
0
0
POLYLINE
8
0
62
30
66
1
10
0
20
0
30
0
70
8
0
VERTEX
8
0
62
30
10
0.028284271
20
0.14
30
0
70
32
0
VERTEX
8
0
62
30
10
0
20
0.1
30
0
70
32
0
SEQEND
8
0
0
POLYLINE
8
0
62
30
66
1
10
0
20
0
30
0
70
8
0
VERTEX
8
0
62
30
10
0.056568542
20
0.14
30
0
70
32
0
VERTEX
8
0
62
30
10
0.084852814
20
0.1
30
0
70
32
0
SEQEND
8
0
0
POLYLINE
8
0
62
30
66
1
10
0
20
0
30
0
70
8
0
VERTEX
8
0
62
30
10
0.084852814
20
0.14
30
0
70
32
0
VERTEX
8
0
62
30
10
0.056568542
20
0.1
30
0
70
32
0
SEQEND
8
0
0
POLYLINE
8
0
62
30
66
1
10
0
20
0
30
0
70
8
0
VERTEX
8
0
62
30
10
0.028284271
20
0.12
30
0
70
32
0
VERTEX
8
0
62
30
10
0.056568542
20
0.12
30
0
70
32
0
SEQEND
8
0
0
POLYLINE
8
0
62
30
66
1
10
0
20
0
30
0
70
8
0
VERTEX
8
0
62
30
10
0.084852814
20
0.12
30
0
70
32
0
VERTEX
8
0
62
30
10
0.11313708
20
0.12
30
0
70
32
0
SEQEND
8
0
0
POLYLINE
8
0
62
5
66
1
10
0
20
0
30
0
70
8
0
VERTEX
8
0
62
5
10
0
20
0.12
30
0
70
32
0
VERTEX
8
0
62
5
10
0.014142136
20
0.12
30
0
70
32
0
SEQEND
8
0
0
POLYLINE
8
0
62
5
66
1
10
0
20
0
30
0
70
8
0
VERTEX
8
0
62
5
10
0.056568542
20
0.12
30
0
70
32
0
VERTEX
8
0
62
5
10
0.070710678
20
0.12
30
0
70
32
0
SEQEND
8
0
0
POLYLINE
8
0
62
5
66
1
10
0
20
0
30
0
70
8
0
VERTEX
8
0
62
5
10
0.014142136
20
0.12
30
0
70
32
0
VERTEX
8
0
62
5
10
0.028284271
20
0.12
30
0
70
32
0
SEQEND
8
0
0
POLYLINE
8
0
62
5
66
1
10
0
20
0
30
0
70
8
0
VERTEX
8
0
62
5
10
0.070710678
20
0.12
30
0
70
32
0
VERTEX
8
0
62
5
10
0.084852814
20
0.12
30
0
70
32
0
SEQEND
8
0
0
POLYLINE
8
0
62
5
66
1
10
0
20
0
30
0
70
8
0
VERTEX
8
0
62
5
10
0.028284271
20
0.1
30
0
70
32
0
VERTEX
8
0
62
5
10
0.028284271
20
0.14
30
0
70
32
0
SEQEND
8
0
0
POLYLINE
8
0
62
5
66
1
10
0
20
0
30
0
70
8
0
VERTEX
8
0
62
5
10
0.056568542
20
0.1
30
0
70
32
0
VERTEX
8
0
62
5
10
0.056568542
20
0.14
30
0
70
32
0
SEQEND
8
0
0
POLYLINE
8
0
62
5
66
1
10
0
20
0
30
0
70
8
0
VERTEX
8
0
62
5
10
0.084852814
20
0.1
30
0
70
32
0
VERTEX
8
0
62
5
10
0.084852814
20
0.14
30
0
70
32
0
SEQEND
8
0
0
POLYLINE
8
0
62
5
66
1
10
0
20
0
30
0
70
8
0
VERTEX
8
0
62
5
10
0
20
0.1
30
0
70
32
0
VERTEX
8
0
62
5
10
0
20
0.14
30
0
70
32
0
SEQEND
8
0
0
POLYLINE
8
0
62
5
66
1
10
0
20
0
30
0
70
8
0
VERTEX
8
0
62
5
10
0.22627417
20
0.14
30
0
70
32
0
VERTEX
8
0
62
5
10
0.22627417
20
0.1
30
0
70
32
0
SEQEND
8
0
0
POLYLINE
8
0
62
5
66
1
10
0
20
0
30
0
70
8
0
VERTEX
8
0
62
5
10
0.11313708
20
0.1
30
0
70
32
0
VERTEX
8
0
62
5
10
0.22627417
20
0.1
30
0
70
32
0
SEQEND
8
0
0
POLYLINE
8
0
62
5
66
1
10
0
20
0
30
0
70
8
0
VERTEX
8
0
62
5
10
0.11313708
20
0.14
30
0
70
32
0
VERTEX
8
0
62
5
10
0.22627417
20
0.14
30
0
70
32
0
SEQEND
8
0
0
POLYLINE
8
0
62
5
66
1
10
0
20
0
30
0
70
8
0
VERTEX
8
0
62
5
10
0.14142136
20
0.1
30
0
70
32
0
VERTEX
8
0
62
5
10
0.14142136
20
0.1
30
0
70
32
0
SEQEND
8
0
0
POLYLINE
8
0
62
5
66
1
10
0
20
0
30
0
70
8
0
VERTEX
8
0
62
5
10
0.16970563
20
0.1
30
0
70
32
0
VERTEX
8
0
62
5
10
0.16970563
20
0.1
30
0
70
32
0
SEQEND
8
0
0
POLYLINE
8
0
62
5
66
1
10
0
20
0
30
0
70
8
0
VERTEX
8
0
62
5
10
0.1979899
20
0.1
30
0
70
32
0
VERTEX
8
0
62
5
10
0.1979899
20
0.1
30
0
70
32
0
SEQEND
8
0
0
POLYLINE
8
0
62
5
66
1
10
0
20
0
30
0
70
8
0
VERTEX
8
0
62
5
10
0.14142136
20
0.14
30
0
70
32
0
VERTEX
8
0
62
5
10
0.14142136
20
0.14
30
0
70
32
0
SEQEND
8
0
0
POLYLINE
8
0
62
5
66
1
10
0
20
0
30
0
70
8
0
VERTEX
8
0
62
5
10
0.16970563
20
0.14
30
0
70
32
0
VERTEX
8
0
62
5
10
0.16970563
20
0.14
30
0
70
32
0
SEQEND
8
0
0
POLYLINE
8
0
62
5
66
1
10
0
20
0
30
0
70
8
0
VERTEX
8
0
62
5
10
0.1979899
20
0.14
30
0
70
32
0
VERTEX
8
0
62
5
10
0.1979899
20
0.14
30
0
70
32
0
SEQEND
8
0
0
POLYLINE
8
0
62
30
66
1
10
0
20
0
30
0
70
8
0
VERTEX
8
0
62
30
10
0.11313708
20
0.14
30
0
70
32
0
VERTEX
8
0
62
30
10
0.14142136
20
0.1
30
0
70
32
0
SEQEND
8
0
0
POLYLINE
8
0
62
30
66
1
10
0
20
0
30
0
70
8
0
VERTEX
8
0
62
30
10
0.14142136
20
0.14
30
0
70
32
0
VERTEX
8
0
62
30
10
0.11313708
20
0.1
30
0
70
32
0
SEQEND
8
0
0
POLYLINE
8
0
62
30
66
1
10
0
20
0
30
0
70
8
0
VERTEX
8
0
62
30
10
0.16970563
20
0.14
30
0
70
32
0
VERTEX
8
0
62
30
10
0.1979899
20
0.1
30
0
70
32
0
SEQEND
8
0
0
POLYLINE
8
0
62
30
66
1
10
0
20
0
30
0
70
8
0
VERTEX
8
0
62
30
10
0.1979899
20
0.14
30
0
70
32
0
VERTEX
8
0
62
30
10
0.16970563
20
0.1
30
0
70
32
0
SEQEND
8
0
0
POLYLINE
8
0
62
30
66
1
10
0
20
0
30
0
70
8
0
VERTEX
8
0
62
30
10
0.14142136
20
0.12
30
0
70
32
0
VERTEX
8
0
62
30
10
0.16970563
20
0.12
30
0
70
32
0
SEQEND
8
0
0
POLYLINE
8
0
62
30
66
1
10
0
20
0
30
0
70
8
0
VERTEX
8
0
62
30
10
0.1979899
20
0.12
30
0
70
32
0
VERTEX
8
0
62
30
10
0.22627417
20
0.12
30
0
70
32
0
SEQEND
8
0
0
POLYLINE
8
0
62
5
66
1
10
0
20
0
30
0
70
8
0
VERTEX
8
0
62
5
10
0.11313708
20
0.12
30
0
70
32
0
VERTEX
8
0
62
5
10
0.12727922
20
0.12
30
0
70
32
0
SEQEND
8
0
0
POLYLINE
8
0
62
5
66
1
10
0
20
0
30
0
70
8
0
VERTEX
8
0
62
5
10
0.16970563
20
0.12
30
0
70
32
0
VERTEX
8
0
62
5
10
0.18384776
20
0.12
30
0
70
32
0
SEQEND
8
0
0
POLYLINE
8
0
62
5
66
1
10
0
20
0
30
0
70
8
0
VERTEX
8
0
62
5
10
0.12727922
20
0.12
30
0
70
32
0
VERTEX
8
0
62
5
10
0.14142136
20
0.12
30
0
70
32
0
SEQEND
8
0
0
POLYLINE
8
0
62
5
66
1
10
0
20
0
30
0
70
8
0
VERTEX
8
0
62
5
10
0.18384776
20
0.12
30
0
70
32
0
VERTEX
8
0
62
5
10
0.1979899
20
0.12
30
0
70
32
0
SEQEND
8
0
0
POLYLINE
8
0
62
5
66
1
10
0
20
0
30
0
70
8
0
VERTEX
8
0
62
5
10
0.14142136
20
0.1
30
0
70
32
0
VERTEX
8
0
62
5
10
0.14142136
20
0.14
30
0
70
32
0
SEQEND
8
0
0
POLYLINE
8
0
62
5
66
1
10
0
20
0
30
0
70
8
0
VERTEX
8
0
62
5
10
0.16970563
20
0.1
30
0
70
32
0
VERTEX
8
0
62
5
10
0.16970563
20
0.14
30
0
70
32
0
SEQEND
8
0
0
POLYLINE
8
0
62
5
66
1
10
0
20
0
30
0
70
8
0
VERTEX
8
0
62
5
10
0.1979899
20
0.1
30
0
70
32
0
VERTEX
8
0
62
5
10
0.1979899
20
0.14
30
0
70
32
0
SEQEND
8
0
0
POLYLINE
8
0
62
5
66
1
10
0
20
0
30
0
70
8
0
VERTEX
8
0
62
5
10
0.11313708
20
0.1
30
0
70
32
0
VERTEX
8
0
62
5
10
0.11313708
20
0.14
30
0
70
32
0
SEQEND
8
0
0
POLYLINE
8
0
62
5
66
1
10
0
20
0
30
0
70
8
0
VERTEX
8
0
62
5
10
-0.11313708
20
0.1
30
0
70
32
0
VERTEX
8
0
62
5
10
-0.11313708
20
0.14
30
0
70
32
0
SEQEND
8
0
0
POLYLINE
8
0
62
5
66
1
10
0
20
0
30
0
70
8
0
VERTEX
8
0
62
5
10
-0.11313708
20
0.1
30
0
70
32
0
VERTEX
8
0
62
5
10
0
20
0.1
30
0
70
32
0
SEQEND
8
0
0
POLYLINE
8
0
62
5
66
1
10
0
20
0
30
0
70
8
0
VERTEX
8
0
62
5
10
-0.11313708
20
0.14
30
0
70
32
0
VERTEX
8
0
62
5
10
0
20
0.14
30
0
70
32
0
SEQEND
8
0
0
POLYLINE
8
0
62
5
66
1
10
0
20
0
30
0
70
8
0
VERTEX
8
0
62
5
10
-0.084852814
20
0.1
30
0
70
32
0
VERTEX
8
0
62
5
10
-0.084852814
20
0.1
30
0
70
32
0
SEQEND
8
0
0
POLYLINE
8
0
62
5
66
1
10
0
20
0
30
0
70
8
0
VERTEX
8
0
62
5
10
-0.056568542
20
0.1
30
0
70
32
0
VERTEX
8
0
62
5
10
-0.056568542
20
0.1
30
0
70
32
0
SEQEND
8
0
0
POLYLINE
8
0
62
5
66
1
10
0
20
0
30
0
70
8
0
VERTEX
8
0
62
5
10
-0.028284271
20
0.1
30
0
70
32
0
VERTEX
8
0
62
5
10
-0.028284271
20
0.1
30
0
70
32
0
SEQEND
8
0
0
POLYLINE
8
0
62
5
66
1
10
0
20
0
30
0
70
8
0
VERTEX
8
0
62
5
10
-0.084852814
20
0.14
30
0
70
32
0
VERTEX
8
0
62
5
10
-0.084852814
20
0.14
30
0
70
32
0
SEQEND
8
0
0
POLYLINE
8
0
62
5
66
1
10
0
20
0
30
0
70
8
0
VERTEX
8
0
62
5
10
-0.056568542
20
0.14
30
0
70
32
0
VERTEX
8
0
62
5
10
-0.056568542
20
0.14
30
0
70
32
0
SEQEND
8
0
0
POLYLINE
8
0
62
5
66
1
10
0
20
0
30
0
70
8
0
VERTEX
8
0
62
5
10
-0.028284271
20
0.14
30
0
70
32
0
VERTEX
8
0
62
5
10
-0.028284271
20
0.14
30
0
70
32
0
SEQEND
8
0
0
POLYLINE
8
0
62
30
66
1
10
0
20
0
30
0
70
8
0
VERTEX
8
0
62
30
10
-0.11313708
20
0.14
30
0
70
32
0
VERTEX
8
0
62
30
10
-0.084852814
20
0.1
30
0
70
32
0
SEQEND
8
0
0
POLYLINE
8
0
62
30
66
1
10
0
20
0
30
0
70
8
0
VERTEX
8
0
62
30
10
-0.084852814
20
0.14
30
0
70
32
0
VERTEX
8
0
62
30
10
-0.11313708
20
0.1
30
0
70
32
0
SEQEND
8
0
0
POLYLINE
8
0
62
30
66
1
10
0
20
0
30
0
70
8
0
VERTEX
8
0
62
30
10
-0.056568542
20
0.14
30
0
70
32
0
VERTEX
8
0
62
30
10
-0.028284271
20
0.1
30
0
70
32
0
SEQEND
8
0
0
POLYLINE
8
0
62
30
66
1
10
0
20
0
30
0
70
8
0
VERTEX
8
0
62
30
10
-0.028284271
20
0.14
30
0
70
32
0
VERTEX
8
0
62
30
10
-0.056568542
20
0.1
30
0
70
32
0
SEQEND
8
0
0
POLYLINE
8
0
62
30
66
1
10
0
20
0
30
0
70
8
0
VERTEX
8
0
62
30
10
-0.084852814
20
0.12
30
0
70
32
0
VERTEX
8
0
62
30
10
-0.056568542
20
0.12
30
0
70
32
0
SEQEND
8
0
0
POLYLINE
8
0
62
30
66
1
10
0
20
0
30
0
70
8
0
VERTEX
8
0
62
30
10
-0.028284271
20
0.12
30
0
70
32
0
VERTEX
8
0
62
30
10
0
20
0.12
30
0
70
32
0
SEQEND
8
0
0
POLYLINE
8
0
62
5
66
1
10
0
20
0
30
0
70
8
0
VERTEX
8
0
62
5
10
-0.11313708
20
0.12
30
0
70
32
0
VERTEX
8
0
62
5
10
-0.098994949
20
0.12
30
0
70
32
0
SEQEND
8
0
0
POLYLINE
8
0
62
5
66
1
10
0
20
0
30
0
70
8
0
VERTEX
8
0
62
5
10
-0.056568542
20
0.12
30
0
70
32
0
VERTEX
8
0
62
5
10
-0.042426407
20
0.12
30
0
70
32
0
SEQEND
8
0
0
POLYLINE
8
0
62
5
66
1
10
0
20
0
30
0
70
8
0
VERTEX
8
0
62
5
10
-0.098994949
20
0.12
30
0
70
32
0
VERTEX
8
0
62
5
10
-0.084852814
20
0.12
30
0
70
32
0
SEQEND
8
0
0
POLYLINE
8
0
62
5
66
1
10
0
20
0
30
0
70
8
0
VERTEX
8
0
62
5
10
-0.042426407
20
0.12
30
0
70
32
0
VERTEX
8
0
62
5
10
-0.028284271
20
0.12
30
0
70
32
0
SEQEND
8
0
0
POLYLINE
8
0
62
5
66
1
10
0
20
0
30
0
70
8
0
VERTEX
8
0
62
5
10
-0.084852814
20
0.1
30
0
70
32
0
VERTEX
8
0
62
5
10
-0.084852814
20
0.14
30
0
70
32
0
SEQEND
8
0
0
POLYLINE
8
0
62
5
66
1
10
0
20
0
30
0
70
8
0
VERTEX
8
0
62
5
10
-0.056568542
20
0.1
30
0
70
32
0
VERTEX
8
0
62
5
10
-0.056568542
20
0.14
30
0
70
32
0
SEQEND
8
0
0
POLYLINE
8
0
62
5
66
1
10
0
20
0
30
0
70
8
0
VERTEX
8
0
62
5
10
-0.028284271
20
0.1
30
0
70
32
0
VERTEX
8
0
62
5
10
-0.028284271
20
0.14
30
0
70
32
0
SEQEND
8
0
0
POLYLINE
8
0
62
5
66
1
10
0
20
0
30
0
70
8
0
VERTEX
8
0
62
5
10
-0.11313708
20
0.1
30
0
70
32
0
VERTEX
8
0
62
5
10
-0.11313708
20
0.14
30
0
70
32
0
SEQEND
8
0
0
POLYLINE
8
0
62
5
66
1
10
0
20
0
30
0
70
8
0
VERTEX
8
0
62
5
10
0
20
0.14
30
0
70
32
0
VERTEX
8
0
62
5
10
0
20
0.21535723
30
0
70
32
0
SEQEND
8
0
0
POLYLINE
8
0
62
5
66
1
10
0
20
0
30
0
70
8
0
VERTEX
8
0
62
5
10
0.11313708
20
0.21535723
30
0
70
32
0
VERTEX
8
0
62
5
10
0.11313708
20
0.14
30
0
70
32
0
SEQEND
8
0
0
POLYLINE
8
0
62
5
66
1
10
0
20
0
30
0
70
8
0
VERTEX
8
0
62
5
10
0
20
0.14007081
30
0
70
32
0
VERTEX
8
0
62
5
10
0.028284271
20
0.15061008
30
0
70
32
0
VERTEX
8
0
62
5
10
0.056568542
20
0.15883931
30
0
70
32
0
VERTEX
8
0
62
5
10
0.084852814
20
0.14830004
30
0
70
32
0
VERTEX
8
0
62
5
10
0.11313708
20
0.14007081
30
0
70
32
0
SEQEND
8
0
0
POLYLINE
8
0
62
5
66
1
10
0
20
0
30
0
70
8
0
VERTEX
8
0
62
5
10
0
20
0.17774943
30
0
70
32
0
VERTEX
8
0
62
5
10
0.028284271
20
0.1882887
30
0
70
32
0
VERTEX
8
0
62
5
10
0.056568542
20
0.19651792
30
0
70
32
0
VERTEX
8
0
62
5
10
0.084852814
20
0.18597866
30
0
70
32
0
VERTEX
8
0
62
5
10
0.11313708
20
0.17774943
30
0
70
32
0
SEQEND
8
0
0
POLYLINE
8
0
62
5
66
1
10
0
20
0
30
0
70
8
0
VERTEX
8
0
62
5
10
0
20
0.1776078
30
0
70
32
0
VERTEX
8
0
62
5
10
0.028284271
20
0.16706854
30
0
70
32
0
VERTEX
8
0
62
5
10
0.056568542
20
0.15883931
30
0
70
32
0
VERTEX
8
0
62
5
10
0.084852814
20
0.16937857
30
0
70
32
0
VERTEX
8
0
62
5
10
0.11313708
20
0.1776078
30
0
70
32
0
SEQEND
8
0
0
POLYLINE
8
0
62
5
66
1
10
0
20
0
30
0
70
8
0
VERTEX
8
0
62
5
10
0
20
0.21528642
30
0
70
32
0
VERTEX
8
0
62
5
10
0.028284271
20
0.20474715
30
0
70
32
0
VERTEX
8
0
62
5
10
0.056568542
20
0.19651792
30
0
70
32
0
VERTEX
8
0
62
5
10
0.084852814
20
0.20705719
30
0
70
32
0
VERTEX
8
0
62
5
10
0.11313708
20
0.21528642
30
0
70
32
0
SEQEND
8
0
0
POLYLINE
8
0
62
30
66
1
10
0
20
0
30
0
70
8
0
VERTEX
8
0
62
30
10
0
20
0.15883931
30
0
70
32
0
VERTEX
8
0
62
30
10
0.11313708
20
0.15883931
30
0
70
32
0
SEQEND
8
0
0
POLYLINE
8
0
62
30
66
1
10
0
20
0
30
0
70
8
0
VERTEX
8
0
62
30
10
0
20
0.19651792
30
0
70
32
0
VERTEX
8
0
62
30
10
0.11313708
20
0.19651792
30
0
70
32
0
SEQEND
8
0
0
POLYLINE
8
0
62
30
66
1
10
0
20
0
30
0
70
8
0
VERTEX
8
0
62
30
10
0.028284271
20
0.15061008
30
0
70
32
0
VERTEX
8
0
62
30
10
0.028284271
20
0.15883931
30
0
70
32
0
SEQEND
8
0
0
POLYLINE
8
0
62
30
66
1
10
0
20
0
30
0
70
8
0
VERTEX
8
0
62
30
10
0.056568542
20
0.15883931
30
0
70
32
0
VERTEX
8
0
62
30
10
0.056568542
20
0.15883931
30
0
70
32
0
SEQEND
8
0
0
POLYLINE
8
0
62
30
66
1
10
0
20
0
30
0
70
8
0
VERTEX
8
0
62
30
10
0.084852814
20
0.14830004
30
0
70
32
0
VERTEX
8
0
62
30
10
0.084852814
20
0.15883931
30
0
70
32
0
SEQEND
8
0
0
POLYLINE
8
0
62
30
66
1
10
0
20
0
30
0
70
8
0
VERTEX
8
0
62
30
10
0.028284271
20
0.1882887
30
0
70
32
0
VERTEX
8
0
62
30
10
0.028284271
20
0.19651792
30
0
70
32
0
SEQEND
8
0
0
POLYLINE
8
0
62
30
66
1
10
0
20
0
30
0
70
8
0
VERTEX
8
0
62
30
10
0.028284271
20
0.19651792
30
0
70
32
0
VERTEX
8
0
62
30
10
0.056568542
20
0.19651792
30
0
70
32
0
SEQEND
8
0
0
POLYLINE
8
0
62
30
66
1
10
0
20
0
30
0
70
8
0
VERTEX
8
0
62
30
10
0.056568542
20
0.19651792
30
0
70
32
0
VERTEX
8
0
62
30
10
0.056568542
20
0.19651792
30
0
70
32
0
SEQEND
8
0
0
POLYLINE
8
0
62
30
66
1
10
0
20
0
30
0
70
8
0
VERTEX
8
0
62
30
10
0.056568542
20
0.19651792
30
0
70
32
0
VERTEX
8
0
62
30
10
0.084852814
20
0.18597866
30
0
70
32
0
SEQEND
8
0
0
POLYLINE
8
0
62
30
66
1
10
0
20
0
30
0
70
8
0
VERTEX
8
0
62
30
10
0.084852814
20
0.18597866
30
0
70
32
0
VERTEX
8
0
62
30
10
0.084852814
20
0.19651792
30
0
70
32
0
SEQEND
8
0
0
POLYLINE
8
0
62
5
66
1
10
0
20
0
30
0
70
8
0
VERTEX
8
0
62
5
10
0.028284271
20
0.14
30
0
70
32
0
VERTEX
8
0
62
5
10
0.028284271
20
0.15061008
30
0
70
32
0
SEQEND
8
0
0
POLYLINE
8
0
62
5
66
1
10
0
20
0
30
0
70
8
0
VERTEX
8
0
62
5
10
0.056568542
20
0.14
30
0
70
32
0
VERTEX
8
0
62
5
10
0.056568542
20
0.15883931
30
0
70
32
0
SEQEND
8
0
0
POLYLINE
8
0
62
5
66
1
10
0
20
0
30
0
70
8
0
VERTEX
8
0
62
5
10
0.084852814
20
0.14
30
0
70
32
0
VERTEX
8
0
62
5
10
0.084852814
20
0.14830004
30
0
70
32
0
SEQEND
8
0
0
POLYLINE
8
0
62
5
66
1
10
0
20
0
30
0
70
8
0
VERTEX
8
0
62
5
10
0.028284271
20
0.17767862
30
0
70
32
0
VERTEX
8
0
62
5
10
0.028284271
20
0.1882887
30
0
70
32
0
SEQEND
8
0
0
POLYLINE
8
0
62
5
66
1
10
0
20
0
30
0
70
8
0
VERTEX
8
0
62
5
10
0.056568542
20
0.17767862
30
0
70
32
0
VERTEX
8
0
62
5
10
0.056568542
20
0.19651792
30
0
70
32
0
SEQEND
8
0
0
POLYLINE
8
0
62
5
66
1
10
0
20
0
30
0
70
8
0
VERTEX
8
0
62
5
10
0.084852814
20
0.17767862
30
0
70
32
0
VERTEX
8
0
62
5
10
0.084852814
20
0.18597866
30
0
70
32
0
SEQEND
8
0
0
POLYLINE
8
0
62
5
66
1
10
0
20
0
30
0
70
8
0
VERTEX
8
0
62
5
10
0.028284271
20
0.15883931
30
0
70
32
0
VERTEX
8
0
62
5
10
0.028284271
20
0.17767862
30
0
70
32
0
SEQEND
8
0
0
POLYLINE
8
0
62
5
66
1
10
0
20
0
30
0
70
8
0
VERTEX
8
0
62
5
10
0.056568542
20
0.15883931
30
0
70
32
0
VERTEX
8
0
62
5
10
0.056568542
20
0.17767862
30
0
70
32
0
SEQEND
8
0
0
POLYLINE
8
0
62
5
66
1
10
0
20
0
30
0
70
8
0
VERTEX
8
0
62
5
10
0.084852814
20
0.15883931
30
0
70
32
0
VERTEX
8
0
62
5
10
0.084852814
20
0.17767862
30
0
70
32
0
SEQEND
8
0
0
POLYLINE
8
0
62
5
66
1
10
0
20
0
30
0
70
8
0
VERTEX
8
0
62
5
10
0.028284271
20
0.19651792
30
0
70
32
0
VERTEX
8
0
62
5
10
0.028284271
20
0.21535723
30
0
70
32
0
SEQEND
8
0
0
POLYLINE
8
0
62
5
66
1
10
0
20
0
30
0
70
8
0
VERTEX
8
0
62
5
10
0.056568542
20
0.19651792
30
0
70
32
0
VERTEX
8
0
62
5
10
0.056568542
20
0.21535723
30
0
70
32
0
SEQEND
8
0
0
POLYLINE
8
0
62
5
66
1
10
0
20
0
30
0
70
8
0
VERTEX
8
0
62
5
10
0.084852814
20
0.19651792
30
0
70
32
0
VERTEX
8
0
62
5
10
0.084852814
20
0.21535723
30
0
70
32
0
SEQEND
8
0
0
POLYLINE
8
0
62
5
66
1
10
0
20
0
30
0
70
8
0
VERTEX
8
0
62
5
10
0.22627417
20
0.21535723
30
0
70
32
0
VERTEX
8
0
62
5
10
0.22627417
20
0.14
30
0
70
32
0
SEQEND
8
0
0
POLYLINE
8
0
62
5
66
1
10
0
20
0
30
0
70
8
0
VERTEX
8
0
62
5
10
0.11313708
20
0.14007081
30
0
70
32
0
VERTEX
8
0
62
5
10
0.14142136
20
0.15061008
30
0
70
32
0
VERTEX
8
0
62
5
10
0.16970563
20
0.15883931
30
0
70
32
0
VERTEX
8
0
62
5
10
0.1979899
20
0.14830004
30
0
70
32
0
VERTEX
8
0
62
5
10
0.22627417
20
0.14007081
30
0
70
32
0
SEQEND
8
0
0
POLYLINE
8
0
62
5
66
1
10
0
20
0
30
0
70
8
0
VERTEX
8
0
62
5
10
0.11313708
20
0.17774943
30
0
70
32
0
VERTEX
8
0
62
5
10
0.14142136
20
0.1882887
30
0
70
32
0
VERTEX
8
0
62
5
10
0.16970563
20
0.19651792
30
0
70
32
0
VERTEX
8
0
62
5
10
0.1979899
20
0.18597866
30
0
70
32
0
VERTEX
8
0
62
5
10
0.22627417
20
0.17774943
30
0
70
32
0
SEQEND
8
0
0
POLYLINE
8
0
62
5
66
1
10
0
20
0
30
0
70
8
0
VERTEX
8
0
62
5
10
0.11313708
20
0.1776078
30
0
70
32
0
VERTEX
8
0
62
5
10
0.14142136
20
0.16706854
30
0
70
32
0
VERTEX
8
0
62
5
10
0.16970563
20
0.15883931
30
0
70
32
0
VERTEX
8
0
62
5
10
0.1979899
20
0.16937857
30
0
70
32
0
VERTEX
8
0
62
5
10
0.22627417
20
0.1776078
30
0
70
32
0
SEQEND
8
0
0
POLYLINE
8
0
62
5
66
1
10
0
20
0
30
0
70
8
0
VERTEX
8
0
62
5
10
0.11313708
20
0.21528642
30
0
70
32
0
VERTEX
8
0
62
5
10
0.14142136
20
0.20474715
30
0
70
32
0
VERTEX
8
0
62
5
10
0.16970563
20
0.19651792
30
0
70
32
0
VERTEX
8
0
62
5
10
0.1979899
20
0.20705719
30
0
70
32
0
VERTEX
8
0
62
5
10
0.22627417
20
0.21528642
30
0
70
32
0
SEQEND
8
0
0
POLYLINE
8
0
62
30
66
1
10
0
20
0
30
0
70
8
0
VERTEX
8
0
62
30
10
0.11313708
20
0.15883931
30
0
70
32
0
VERTEX
8
0
62
30
10
0.22627417
20
0.15883931
30
0
70
32
0
SEQEND
8
0
0
POLYLINE
8
0
62
30
66
1
10
0
20
0
30
0
70
8
0
VERTEX
8
0
62
30
10
0.11313708
20
0.19651792
30
0
70
32
0
VERTEX
8
0
62
30
10
0.22627417
20
0.19651792
30
0
70
32
0
SEQEND
8
0
0
POLYLINE
8
0
62
30
66
1
10
0
20
0
30
0
70
8
0
VERTEX
8
0
62
30
10
0.14142136
20
0.15061008
30
0
70
32
0
VERTEX
8
0
62
30
10
0.14142136
20
0.15883931
30
0
70
32
0
SEQEND
8
0
0
POLYLINE
8
0
62
30
66
1
10
0
20
0
30
0
70
8
0
VERTEX
8
0
62
30
10
0.16970563
20
0.15883931
30
0
70
32
0
VERTEX
8
0
62
30
10
0.16970563
20
0.15883931
30
0
70
32
0
SEQEND
8
0
0
POLYLINE
8
0
62
30
66
1
10
0
20
0
30
0
70
8
0
VERTEX
8
0
62
30
10
0.1979899
20
0.14830004
30
0
70
32
0
VERTEX
8
0
62
30
10
0.1979899
20
0.15883931
30
0
70
32
0
SEQEND
8
0
0
POLYLINE
8
0
62
30
66
1
10
0
20
0
30
0
70
8
0
VERTEX
8
0
62
30
10
0.14142136
20
0.1882887
30
0
70
32
0
VERTEX
8
0
62
30
10
0.14142136
20
0.19651792
30
0
70
32
0
SEQEND
8
0
0
POLYLINE
8
0
62
30
66
1
10
0
20
0
30
0
70
8
0
VERTEX
8
0
62
30
10
0.14142136
20
0.19651792
30
0
70
32
0
VERTEX
8
0
62
30
10
0.16970563
20
0.19651792
30
0
70
32
0
SEQEND
8
0
0
POLYLINE
8
0
62
30
66
1
10
0
20
0
30
0
70
8
0
VERTEX
8
0
62
30
10
0.16970563
20
0.19651792
30
0
70
32
0
VERTEX
8
0
62
30
10
0.16970563
20
0.19651792
30
0
70
32
0
SEQEND
8
0
0
POLYLINE
8
0
62
30
66
1
10
0
20
0
30
0
70
8
0
VERTEX
8
0
62
30
10
0.16970563
20
0.19651792
30
0
70
32
0
VERTEX
8
0
62
30
10
0.1979899
20
0.18597866
30
0
70
32
0
SEQEND
8
0
0
POLYLINE
8
0
62
30
66
1
10
0
20
0
30
0
70
8
0
VERTEX
8
0
62
30
10
0.1979899
20
0.18597866
30
0
70
32
0
VERTEX
8
0
62
30
10
0.1979899
20
0.19651792
30
0
70
32
0
SEQEND
8
0
0
POLYLINE
8
0
62
5
66
1
10
0
20
0
30
0
70
8
0
VERTEX
8
0
62
5
10
0.14142136
20
0.14
30
0
70
32
0
VERTEX
8
0
62
5
10
0.14142136
20
0.15061008
30
0
70
32
0
SEQEND
8
0
0
POLYLINE
8
0
62
5
66
1
10
0
20
0
30
0
70
8
0
VERTEX
8
0
62
5
10
0.16970563
20
0.14
30
0
70
32
0
VERTEX
8
0
62
5
10
0.16970563
20
0.15883931
30
0
70
32
0
SEQEND
8
0
0
POLYLINE
8
0
62
5
66
1
10
0
20
0
30
0
70
8
0
VERTEX
8
0
62
5
10
0.1979899
20
0.14
30
0
70
32
0
VERTEX
8
0
62
5
10
0.1979899
20
0.14830004
30
0
70
32
0
SEQEND
8
0
0
POLYLINE
8
0
62
5
66
1
10
0
20
0
30
0
70
8
0
VERTEX
8
0
62
5
10
0.14142136
20
0.17767862
30
0
70
32
0
VERTEX
8
0
62
5
10
0.14142136
20
0.1882887
30
0
70
32
0
SEQEND
8
0
0
POLYLINE
8
0
62
5
66
1
10
0
20
0
30
0
70
8
0
VERTEX
8
0
62
5
10
0.16970563
20
0.17767862
30
0
70
32
0
VERTEX
8
0
62
5
10
0.16970563
20
0.19651792
30
0
70
32
0
SEQEND
8
0
0
POLYLINE
8
0
62
5
66
1
10
0
20
0
30
0
70
8
0
VERTEX
8
0
62
5
10
0.1979899
20
0.17767862
30
0
70
32
0
VERTEX
8
0
62
5
10
0.1979899
20
0.18597866
30
0
70
32
0
SEQEND
8
0
0
POLYLINE
8
0
62
5
66
1
10
0
20
0
30
0
70
8
0
VERTEX
8
0
62
5
10
0.14142136
20
0.15883931
30
0
70
32
0
VERTEX
8
0
62
5
10
0.14142136
20
0.17767862
30
0
70
32
0
SEQEND
8
0
0
POLYLINE
8
0
62
5
66
1
10
0
20
0
30
0
70
8
0
VERTEX
8
0
62
5
10
0.16970563
20
0.15883931
30
0
70
32
0
VERTEX
8
0
62
5
10
0.16970563
20
0.17767862
30
0
70
32
0
SEQEND
8
0
0
POLYLINE
8
0
62
5
66
1
10
0
20
0
30
0
70
8
0
VERTEX
8
0
62
5
10
0.1979899
20
0.15883931
30
0
70
32
0
VERTEX
8
0
62
5
10
0.1979899
20
0.17767862
30
0
70
32
0
SEQEND
8
0
0
POLYLINE
8
0
62
5
66
1
10
0
20
0
30
0
70
8
0
VERTEX
8
0
62
5
10
0.14142136
20
0.19651792
30
0
70
32
0
VERTEX
8
0
62
5
10
0.14142136
20
0.21535723
30
0
70
32
0
SEQEND
8
0
0
POLYLINE
8
0
62
5
66
1
10
0
20
0
30
0
70
8
0
VERTEX
8
0
62
5
10
0.16970563
20
0.19651792
30
0
70
32
0
VERTEX
8
0
62
5
10
0.16970563
20
0.21535723
30
0
70
32
0
SEQEND
8
0
0
POLYLINE
8
0
62
5
66
1
10
0
20
0
30
0
70
8
0
VERTEX
8
0
62
5
10
0.1979899
20
0.19651792
30
0
70
32
0
VERTEX
8
0
62
5
10
0.1979899
20
0.21535723
30
0
70
32
0
SEQEND
8
0
0
POLYLINE
8
0
62
5
66
1
10
0
20
0
30
0
70
8
0
VERTEX
8
0
62
5
10
-0.11313708
20
0.14
30
0
70
32
0
VERTEX
8
0
62
5
10
-0.11313708
20
0.21535723
30
0
70
32
0
SEQEND
8
0
0
POLYLINE
8
0
62
5
66
1
10
0
20
0
30
0
70
8
0
VERTEX
8
0
62
5
10
-0.11313708
20
0.14007081
30
0
70
32
0
VERTEX
8
0
62
5
10
-0.084852814
20
0.15061008
30
0
70
32
0
VERTEX
8
0
62
5
10
-0.056568542
20
0.15883931
30
0
70
32
0
VERTEX
8
0
62
5
10
-0.028284271
20
0.14830004
30
0
70
32
0
VERTEX
8
0
62
5
10
0
20
0.14007081
30
0
70
32
0
SEQEND
8
0
0
POLYLINE
8
0
62
5
66
1
10
0
20
0
30
0
70
8
0
VERTEX
8
0
62
5
10
-0.11313708
20
0.17774943
30
0
70
32
0
VERTEX
8
0
62
5
10
-0.084852814
20
0.1882887
30
0
70
32
0
VERTEX
8
0
62
5
10
-0.056568542
20
0.19651792
30
0
70
32
0
VERTEX
8
0
62
5
10
-0.028284271
20
0.18597866
30
0
70
32
0
VERTEX
8
0
62
5
10
0
20
0.17774943
30
0
70
32
0
SEQEND
8
0
0
POLYLINE
8
0
62
5
66
1
10
0
20
0
30
0
70
8
0
VERTEX
8
0
62
5
10
-0.11313708
20
0.1776078
30
0
70
32
0
VERTEX
8
0
62
5
10
-0.084852814
20
0.16706854
30
0
70
32
0
VERTEX
8
0
62
5
10
-0.056568542
20
0.15883931
30
0
70
32
0
VERTEX
8
0
62
5
10
-0.028284271
20
0.16937857
30
0
70
32
0
VERTEX
8
0
62
5
10
0
20
0.1776078
30
0
70
32
0
SEQEND
8
0
0
POLYLINE
8
0
62
5
66
1
10
0
20
0
30
0
70
8
0
VERTEX
8
0
62
5
10
-0.11313708
20
0.21528642
30
0
70
32
0
VERTEX
8
0
62
5
10
-0.084852814
20
0.20474715
30
0
70
32
0
VERTEX
8
0
62
5
10
-0.056568542
20
0.19651792
30
0
70
32
0
VERTEX
8
0
62
5
10
-0.028284271
20
0.20705719
30
0
70
32
0
VERTEX
8
0
62
5
10
0
20
0.21528642
30
0
70
32
0
SEQEND
8
0
0
POLYLINE
8
0
62
30
66
1
10
0
20
0
30
0
70
8
0
VERTEX
8
0
62
30
10
-0.11313708
20
0.15883931
30
0
70
32
0
VERTEX
8
0
62
30
10
0
20
0.15883931
30
0
70
32
0
SEQEND
8
0
0
POLYLINE
8
0
62
30
66
1
10
0
20
0
30
0
70
8
0
VERTEX
8
0
62
30
10
-0.11313708
20
0.19651792
30
0
70
32
0
VERTEX
8
0
62
30
10
0
20
0.19651792
30
0
70
32
0
SEQEND
8
0
0
POLYLINE
8
0
62
30
66
1
10
0
20
0
30
0
70
8
0
VERTEX
8
0
62
30
10
-0.084852814
20
0.15061008
30
0
70
32
0
VERTEX
8
0
62
30
10
-0.084852814
20
0.15883931
30
0
70
32
0
SEQEND
8
0
0
POLYLINE
8
0
62
30
66
1
10
0
20
0
30
0
70
8
0
VERTEX
8
0
62
30
10
-0.056568542
20
0.15883931
30
0
70
32
0
VERTEX
8
0
62
30
10
-0.056568542
20
0.15883931
30
0
70
32
0
SEQEND
8
0
0
POLYLINE
8
0
62
30
66
1
10
0
20
0
30
0
70
8
0
VERTEX
8
0
62
30
10
-0.028284271
20
0.14830004
30
0
70
32
0
VERTEX
8
0
62
30
10
-0.028284271
20
0.15883931
30
0
70
32
0
SEQEND
8
0
0
POLYLINE
8
0
62
30
66
1
10
0
20
0
30
0
70
8
0
VERTEX
8
0
62
30
10
-0.084852814
20
0.1882887
30
0
70
32
0
VERTEX
8
0
62
30
10
-0.084852814
20
0.19651792
30
0
70
32
0
SEQEND
8
0
0
POLYLINE
8
0
62
30
66
1
10
0
20
0
30
0
70
8
0
VERTEX
8
0
62
30
10
-0.084852814
20
0.19651792
30
0
70
32
0
VERTEX
8
0
62
30
10
-0.056568542
20
0.19651792
30
0
70
32
0
SEQEND
8
0
0
POLYLINE
8
0
62
30
66
1
10
0
20
0
30
0
70
8
0
VERTEX
8
0
62
30
10
-0.056568542
20
0.19651792
30
0
70
32
0
VERTEX
8
0
62
30
10
-0.056568542
20
0.19651792
30
0
70
32
0
SEQEND
8
0
0
POLYLINE
8
0
62
30
66
1
10
0
20
0
30
0
70
8
0
VERTEX
8
0
62
30
10
-0.056568542
20
0.19651792
30
0
70
32
0
VERTEX
8
0
62
30
10
-0.028284271
20
0.18597866
30
0
70
32
0
SEQEND
8
0
0
POLYLINE
8
0
62
30
66
1
10
0
20
0
30
0
70
8
0
VERTEX
8
0
62
30
10
-0.028284271
20
0.18597866
30
0
70
32
0
VERTEX
8
0
62
30
10
-0.028284271
20
0.19651792
30
0
70
32
0
SEQEND
8
0
0
POLYLINE
8
0
62
5
66
1
10
0
20
0
30
0
70
8
0
VERTEX
8
0
62
5
10
-0.084852814
20
0.14
30
0
70
32
0
VERTEX
8
0
62
5
10
-0.084852814
20
0.15061008
30
0
70
32
0
SEQEND
8
0
0
POLYLINE
8
0
62
5
66
1
10
0
20
0
30
0
70
8
0
VERTEX
8
0
62
5
10
-0.056568542
20
0.14
30
0
70
32
0
VERTEX
8
0
62
5
10
-0.056568542
20
0.15883931
30
0
70
32
0
SEQEND
8
0
0
POLYLINE
8
0
62
5
66
1
10
0
20
0
30
0
70
8
0
VERTEX
8
0
62
5
10
-0.028284271
20
0.14
30
0
70
32
0
VERTEX
8
0
62
5
10
-0.028284271
20
0.14830004
30
0
70
32
0
SEQEND
8
0
0
POLYLINE
8
0
62
5
66
1
10
0
20
0
30
0
70
8
0
VERTEX
8
0
62
5
10
-0.084852814
20
0.17767862
30
0
70
32
0
VERTEX
8
0
62
5
10
-0.084852814
20
0.1882887
30
0
70
32
0
SEQEND
8
0
0
POLYLINE
8
0
62
5
66
1
10
0
20
0
30
0
70
8
0
VERTEX
8
0
62
5
10
-0.056568542
20
0.17767862
30
0
70
32
0
VERTEX
8
0
62
5
10
-0.056568542
20
0.19651792
30
0
70
32
0
SEQEND
8
0
0
POLYLINE
8
0
62
5
66
1
10
0
20
0
30
0
70
8
0
VERTEX
8
0
62
5
10
-0.028284271
20
0.17767862
30
0
70
32
0
VERTEX
8
0
62
5
10
-0.028284271
20
0.18597866
30
0
70
32
0
SEQEND
8
0
0
POLYLINE
8
0
62
5
66
1
10
0
20
0
30
0
70
8
0
VERTEX
8
0
62
5
10
-0.084852814
20
0.15883931
30
0
70
32
0
VERTEX
8
0
62
5
10
-0.084852814
20
0.17767862
30
0
70
32
0
SEQEND
8
0
0
POLYLINE
8
0
62
5
66
1
10
0
20
0
30
0
70
8
0
VERTEX
8
0
62
5
10
-0.056568542
20
0.15883931
30
0
70
32
0
VERTEX
8
0
62
5
10
-0.056568542
20
0.17767862
30
0
70
32
0
SEQEND
8
0
0
POLYLINE
8
0
62
5
66
1
10
0
20
0
30
0
70
8
0
VERTEX
8
0
62
5
10
-0.028284271
20
0.15883931
30
0
70
32
0
VERTEX
8
0
62
5
10
-0.028284271
20
0.17767862
30
0
70
32
0
SEQEND
8
0
0
POLYLINE
8
0
62
5
66
1
10
0
20
0
30
0
70
8
0
VERTEX
8
0
62
5
10
-0.084852814
20
0.19651792
30
0
70
32
0
VERTEX
8
0
62
5
10
-0.084852814
20
0.21535723
30
0
70
32
0
SEQEND
8
0
0
POLYLINE
8
0
62
5
66
1
10
0
20
0
30
0
70
8
0
VERTEX
8
0
62
5
10
-0.056568542
20
0.19651792
30
0
70
32
0
VERTEX
8
0
62
5
10
-0.056568542
20
0.21535723
30
0
70
32
0
SEQEND
8
0
0
POLYLINE
8
0
62
5
66
1
10
0
20
0
30
0
70
8
0
VERTEX
8
0
62
5
10
-0.028284271
20
0.19651792
30
0
70
32
0
VERTEX
8
0
62
5
10
-0.028284271
20
0.21535723
30
0
70
32
0
SEQEND
8
0
0
POLYLINE
8
0
62
30
66
1
10
0
20
0
30
0
70
8
0
VERTEX
8
0
62
30
10
0
20
0.2485394
30
0
70
32
0
VERTEX
8
0
62
30
10
0.11313708
20
0.2485394
30
0
70
32
0
SEQEND
8
0
0
POLYLINE
8
0
62
30
66
1
10
0
20
0
30
0
70
8
0
VERTEX
8
0
62
30
10
0
20
0.21535723
30
0
70
32
0
VERTEX
8
0
62
30
10
0.11313708
20
0.21535723
30
0
70
32
0
SEQEND
8
0
0
POLYLINE
8
0
62
5
66
1
10
0
20
0
30
0
70
8
0
VERTEX
8
0
62
5
10
0
20
0.21535723
30
0
70
32
0
VERTEX
8
0
62
5
10
0.0098134421
20
0.2485394
30
0
70
32
0
VERTEX
8
0
62
5
10
0.028284271
20
0.21535723
30
0
70
32
0
VERTEX
8
0
62
5
10
0.038097713
20
0.2485394
30
0
70
32
0
VERTEX
8
0
62
5
10
0.056568542
20
0.21535723
30
0
70
32
0
VERTEX
8
0
62
5
10
0.066381985
20
0.2485394
30
0
70
32
0
VERTEX
8
0
62
5
10
0.084852814
20
0.21535723
30
0
70
32
0
VERTEX
8
0
62
5
10
0.094666256
20
0.2485394
30
0
70
32
0
VERTEX
8
0
62
5
10
0.11313708
20
0.21535723
30
0
70
32
0
SEQEND
8
0
0
POLYLINE
8
0
62
5
66
1
10
0
20
0
30
0
70
8
0
VERTEX
8
0
62
5
10
0.028284271
20
0.21535723
30
0
70
32
0
VERTEX
8
0
62
5
10
0.028284271
20
0.21535723
30
0
70
32
0
SEQEND
8
0
0
POLYLINE
8
0
62
5
66
1
10
0
20
0
30
0
70
8
0
VERTEX
8
0
62
5
10
0.056568542
20
0.21535723
30
0
70
32
0
VERTEX
8
0
62
5
10
0.056568542
20
0.21535723
30
0
70
32
0
SEQEND
8
0
0
POLYLINE
8
0
62
5
66
1
10
0
20
0
30
0
70
8
0
VERTEX
8
0
62
5
10
0.084852814
20
0.21535723
30
0
70
32
0
VERTEX
8
0
62
5
10
0.084852814
20
0.21535723
30
0
70
32
0
SEQEND
8
0
0
POLYLINE
8
0
62
5
66
1
10
0
20
0
30
0
70
8
0
VERTEX
8
0
62
5
10
0.0098134421
20
0.2485394
30
0
70
32
0
VERTEX
8
0
62
5
10
0.0098134421
20
0.2485394
30
0
70
32
0
SEQEND
8
0
0
POLYLINE
8
0
62
5
66
1
10
0
20
0
30
0
70
8
0
VERTEX
8
0
62
5
10
0.038097713
20
0.2485394
30
0
70
32
0
VERTEX
8
0
62
5
10
0.038097713
20
0.2485394
30
0
70
32
0
SEQEND
8
0
0
POLYLINE
8
0
62
5
66
1
10
0
20
0
30
0
70
8
0
VERTEX
8
0
62
5
10
0.066381985
20
0.2485394
30
0
70
32
0
VERTEX
8
0
62
5
10
0.066381985
20
0.2485394
30
0
70
32
0
SEQEND
8
0
0
POLYLINE
8
0
62
5
66
1
10
0
20
0
30
0
70
8
0
VERTEX
8
0
62
5
10
0.094666256
20
0.2485394
30
0
70
32
0
VERTEX
8
0
62
5
10
0.094666256
20
0.2485394
30
0
70
32
0
SEQEND
8
0
0
POLYLINE
8
0
62
30
66
1
10
0
20
0
30
0
70
8
0
VERTEX
8
0
62
30
10
0.11313708
20
0.2485394
30
0
70
32
0
VERTEX
8
0
62
30
10
0.22627417
20
0.2485394
30
0
70
32
0
SEQEND
8
0
0
POLYLINE
8
0
62
30
66
1
10
0
20
0
30
0
70
8
0
VERTEX
8
0
62
30
10
0.11313708
20
0.21535723
30
0
70
32
0
VERTEX
8
0
62
30
10
0.22627417
20
0.21535723
30
0
70
32
0
SEQEND
8
0
0
POLYLINE
8
0
62
5
66
1
10
0
20
0
30
0
70
8
0
VERTEX
8
0
62
5
10
0.11313708
20
0.21535723
30
0
70
32
0
VERTEX
8
0
62
5
10
0.12295053
20
0.2485394
30
0
70
32
0
VERTEX
8
0
62
5
10
0.14142136
20
0.21535723
30
0
70
32
0
VERTEX
8
0
62
5
10
0.1512348
20
0.2485394
30
0
70
32
0
VERTEX
8
0
62
5
10
0.16970563
20
0.21535723
30
0
70
32
0
VERTEX
8
0
62
5
10
0.17951907
20
0.2485394
30
0
70
32
0
VERTEX
8
0
62
5
10
0.1979899
20
0.21535723
30
0
70
32
0
VERTEX
8
0
62
5
10
0.20780334
20
0.2485394
30
0
70
32
0
VERTEX
8
0
62
5
10
0.22627417
20
0.21535723
30
0
70
32
0
SEQEND
8
0
0
POLYLINE
8
0
62
5
66
1
10
0
20
0
30
0
70
8
0
VERTEX
8
0
62
5
10
0.14142136
20
0.21535723
30
0
70
32
0
VERTEX
8
0
62
5
10
0.14142136
20
0.21535723
30
0
70
32
0
SEQEND
8
0
0
POLYLINE
8
0
62
5
66
1
10
0
20
0
30
0
70
8
0
VERTEX
8
0
62
5
10
0.16970563
20
0.21535723
30
0
70
32
0
VERTEX
8
0
62
5
10
0.16970563
20
0.21535723
30
0
70
32
0
SEQEND
8
0
0
POLYLINE
8
0
62
5
66
1
10
0
20
0
30
0
70
8
0
VERTEX
8
0
62
5
10
0.1979899
20
0.21535723
30
0
70
32
0
VERTEX
8
0
62
5
10
0.1979899
20
0.21535723
30
0
70
32
0
SEQEND
8
0
0
POLYLINE
8
0
62
5
66
1
10
0
20
0
30
0
70
8
0
VERTEX
8
0
62
5
10
0.12295053
20
0.2485394
30
0
70
32
0
VERTEX
8
0
62
5
10
0.12295053
20
0.2485394
30
0
70
32
0
SEQEND
8
0
0
POLYLINE
8
0
62
5
66
1
10
0
20
0
30
0
70
8
0
VERTEX
8
0
62
5
10
0.1512348
20
0.2485394
30
0
70
32
0
VERTEX
8
0
62
5
10
0.1512348
20
0.2485394
30
0
70
32
0
SEQEND
8
0
0
POLYLINE
8
0
62
5
66
1
10
0
20
0
30
0
70
8
0
VERTEX
8
0
62
5
10
0.17951907
20
0.2485394
30
0
70
32
0
VERTEX
8
0
62
5
10
0.17951907
20
0.2485394
30
0
70
32
0
SEQEND
8
0
0
POLYLINE
8
0
62
5
66
1
10
0
20
0
30
0
70
8
0
VERTEX
8
0
62
5
10
0.20780334
20
0.2485394
30
0
70
32
0
VERTEX
8
0
62
5
10
0.20780334
20
0.2485394
30
0
70
32
0
SEQEND
8
0
0
POLYLINE
8
0
62
30
66
1
10
0
20
0
30
0
70
8
0
VERTEX
8
0
62
30
10
-0.11313708
20
0.2485394
30
0
70
32
0
VERTEX
8
0
62
30
10
0
20
0.2485394
30
0
70
32
0
SEQEND
8
0
0
POLYLINE
8
0
62
30
66
1
10
0
20
0
30
0
70
8
0
VERTEX
8
0
62
30
10
-0.11313708
20
0.21535723
30
0
70
32
0
VERTEX
8
0
62
30
10
0
20
0.21535723
30
0
70
32
0
SEQEND
8
0
0
POLYLINE
8
0
62
5
66
1
10
0
20
0
30
0
70
8
0
VERTEX
8
0
62
5
10
-0.11313708
20
0.21535723
30
0
70
32
0
VERTEX
8
0
62
5
10
-0.10332364
20
0.2485394
30
0
70
32
0
VERTEX
8
0
62
5
10
-0.084852814
20
0.21535723
30
0
70
32
0
VERTEX
8
0
62
5
10
-0.075039372
20
0.2485394
30
0
70
32
0
VERTEX
8
0
62
5
10
-0.056568542
20
0.21535723
30
0
70
32
0
VERTEX
8
0
62
5
10
-0.0467551
20
0.2485394
30
0
70
32
0
VERTEX
8
0
62
5
10
-0.028284271
20
0.21535723
30
0
70
32
0
VERTEX
8
0
62
5
10
-0.018470829
20
0.2485394
30
0
70
32
0
VERTEX
8
0
62
5
10
0
20
0.21535723
30
0
70
32
0
SEQEND
8
0
0
POLYLINE
8
0
62
5
66
1
10
0
20
0
30
0
70
8
0
VERTEX
8
0
62
5
10
-0.084852814
20
0.21535723
30
0
70
32
0
VERTEX
8
0
62
5
10
-0.084852814
20
0.21535723
30
0
70
32
0
SEQEND
8
0
0
POLYLINE
8
0
62
5
66
1
10
0
20
0
30
0
70
8
0
VERTEX
8
0
62
5
10
-0.056568542
20
0.21535723
30
0
70
32
0
VERTEX
8
0
62
5
10
-0.056568542
20
0.21535723
30
0
70
32
0
SEQEND
8
0
0
POLYLINE
8
0
62
5
66
1
10
0
20
0
30
0
70
8
0
VERTEX
8
0
62
5
10
-0.028284271
20
0.21535723
30
0
70
32
0
VERTEX
8
0
62
5
10
-0.028284271
20
0.21535723
30
0
70
32
0
SEQEND
8
0
0
POLYLINE
8
0
62
5
66
1
10
0
20
0
30
0
70
8
0
VERTEX
8
0
62
5
10
-0.10332364
20
0.2485394
30
0
70
32
0
VERTEX
8
0
62
5
10
-0.10332364
20
0.2485394
30
0
70
32
0
SEQEND
8
0
0
POLYLINE
8
0
62
5
66
1
10
0
20
0
30
0
70
8
0
VERTEX
8
0
62
5
10
-0.075039372
20
0.2485394
30
0
70
32
0
VERTEX
8
0
62
5
10
-0.075039372
20
0.2485394
30
0
70
32
0
SEQEND
8
0
0
POLYLINE
8
0
62
5
66
1
10
0
20
0
30
0
70
8
0
VERTEX
8
0
62
5
10
-0.0467551
20
0.2485394
30
0
70
32
0
VERTEX
8
0
62
5
10
-0.0467551
20
0.2485394
30
0
70
32
0
SEQEND
8
0
0
POLYLINE
8
0
62
5
66
1
10
0
20
0
30
0
70
8
0
VERTEX
8
0
62
5
10
-0.018470829
20
0.2485394
30
0
70
32
0
VERTEX
8
0
62
5
10
-0.018470829
20
0.2485394
30
0
70
32
0
SEQEND
8
0
0
POLYLINE
8
0
62
5
66
1
10
0
20
0
30
0
70
8
0
VERTEX
8
0
62
5
10
0.0098134421
20
0.2485394
30
0
70
32
0
VERTEX
8
0
62
5
10
0.0098134421
20
0.37950937
30
0
70
32
0
SEQEND
8
0
0
POLYLINE
8
0
62
5
66
1
10
0
20
0
30
0
70
8
0
VERTEX
8
0
62
5
10
0.12295053
20
0.2485394
30
0
70
32
0
VERTEX
8
0
62
5
10
0.12295053
20
0.37950937
30
0
70
32
0
SEQEND
8
0
0
POLYLINE
8
0
62
5
66
1
10
0
20
0
30
0
70
8
0
VERTEX
8
0
62
5
10
0.038097713
20
0.2485394
30
0
70
32
0
VERTEX
8
0
62
5
10
0.038097713
20
0.37950937
30
0
70
32
0
SEQEND
8
0
0
POLYLINE
8
0
62
5
66
1
10
0
20
0
30
0
70
8
0
VERTEX
8
0
62
5
10
0.066381985
20
0.2485394
30
0
70
32
0
VERTEX
8
0
62
5
10
0.066381985
20
0.37950937
30
0
70
32
0
SEQEND
8
0
0
POLYLINE
8
0
62
5
66
1
10
0
20
0
30
0
70
8
0
VERTEX
8
0
62
5
10
0.094666256
20
0.2485394
30
0
70
32
0
VERTEX
8
0
62
5
10
0.094666256
20
0.37950937
30
0
70
32
0
SEQEND
8
0
0
POLYLINE
8
0
62
5
66
1
10
0
20
0
30
0
70
8
0
VERTEX
8
0
62
5
10
0.23608761
20
0.2485394
30
0
70
32
0
VERTEX
8
0
62
5
10
0.23608761
20
0.37950937
30
0
70
32
0
SEQEND
8
0
0
POLYLINE
8
0
62
5
66
1
10
0
20
0
30
0
70
8
0
VERTEX
8
0
62
5
10
0.1512348
20
0.2485394
30
0
70
32
0
VERTEX
8
0
62
5
10
0.1512348
20
0.37950937
30
0
70
32
0
SEQEND
8
0
0
POLYLINE
8
0
62
5
66
1
10
0
20
0
30
0
70
8
0
VERTEX
8
0
62
5
10
0.17951907
20
0.2485394
30
0
70
32
0
VERTEX
8
0
62
5
10
0.17951907
20
0.37950937
30
0
70
32
0
SEQEND
8
0
0
POLYLINE
8
0
62
5
66
1
10
0
20
0
30
0
70
8
0
VERTEX
8
0
62
5
10
0.20780334
20
0.2485394
30
0
70
32
0
VERTEX
8
0
62
5
10
0.20780334
20
0.37950937
30
0
70
32
0
SEQEND
8
0
0
POLYLINE
8
0
62
5
66
1
10
0
20
0
30
0
70
8
0
VERTEX
8
0
62
5
10
-0.10332364
20
0.2485394
30
0
70
32
0
VERTEX
8
0
62
5
10
-0.10332364
20
0.37950937
30
0
70
32
0
SEQEND
8
0
0
POLYLINE
8
0
62
5
66
1
10
0
20
0
30
0
70
8
0
VERTEX
8
0
62
5
10
-0.075039372
20
0.2485394
30
0
70
32
0
VERTEX
8
0
62
5
10
-0.075039372
20
0.37950937
30
0
70
32
0
SEQEND
8
0
0
POLYLINE
8
0
62
5
66
1
10
0
20
0
30
0
70
8
0
VERTEX
8
0
62
5
10
-0.0467551
20
0.2485394
30
0
70
32
0
VERTEX
8
0
62
5
10
-0.0467551
20
0.37950937
30
0
70
32
0
SEQEND
8
0
0
POLYLINE
8
0
62
5
66
1
10
0
20
0
30
0
70
8
0
VERTEX
8
0
62
5
10
-0.018470829
20
0.2485394
30
0
70
32
0
VERTEX
8
0
62
5
10
-0.018470829
20
0.37950937
30
0
70
32
0
SEQEND
8
0
0
POLYLINE
8
0
62
5
66
1
10
0
20
0
30
0
70
8
0
VERTEX
8
0
62
5
10
0.0098134421
20
0.37950937
30
0
70
32
0
VERTEX
8
0
62
5
10
0.0098134421
20
0.41645893
30
0
70
32
0
SEQEND
8
0
0
POLYLINE
8
0
62
5
66
1
10
0
20
0
30
0
70
8
0
VERTEX
8
0
62
5
10
0.12295053
20
0.41645893
30
0
70
32
0
VERTEX
8
0
62
5
10
0.12295053
20
0.37950937
30
0
70
32
0
SEQEND
8
0
0
POLYLINE
8
0
62
5
66
1
10
0
20
0
30
0
70
8
0
VERTEX
8
0
62
5
10
0.0098134421
20
0.38434807
30
0
70
32
0
VERTEX
8
0
62
5
10
0.038097713
20
0.38091924
30
0
70
32
0
VERTEX
8
0
62
5
10
0.066381985
20
0.39455532
30
0
70
32
0
VERTEX
8
0
62
5
10
0.094666256
20
0.39798415
30
0
70
32
0
VERTEX
8
0
62
5
10
0.12295053
20
0.38434807
30
0
70
32
0
SEQEND
8
0
0
POLYLINE
8
0
62
5
66
1
10
0
20
0
30
0
70
8
0
SEQEND
8
0
0
POLYLINE
8
0
62
5
66
1
10
0
20
0
30
0
70
8
0
VERTEX
8
0
62
5
10
0.0098134421
20
0.41162023
30
0
70
32
0
VERTEX
8
0
62
5
10
0.038097713
20
0.41504906
30
0
70
32
0
VERTEX
8
0
62
5
10
0.066381985
20
0.40141298
30
0
70
32
0
VERTEX
8
0
62
5
10
0.094666256
20
0.39798415
30
0
70
32
0
VERTEX
8
0
62
5
10
0.12295053
20
0.41162023
30
0
70
32
0
SEQEND
8
0
0
POLYLINE
8
0
62
30
66
1
10
0
20
0
30
0
70
8
0
VERTEX
8
0
62
30
10
0.0098134421
20
0.39798415
30
0
70
32
0
VERTEX
8
0
62
30
10
0.12295053
20
0.39798415
30
0
70
32
0
SEQEND
8
0
0
POLYLINE
8
0
62
30
66
1
10
0
20
0
30
0
70
8
0
VERTEX
8
0
62
30
10
0.038097713
20
0.38091924
30
0
70
32
0
VERTEX
8
0
62
30
10
0.038097713
20
0.39798415
30
0
70
32
0
SEQEND
8
0
0
POLYLINE
8
0
62
30
66
1
10
0
20
0
30
0
70
8
0
VERTEX
8
0
62
30
10
0.066381985
20
0.39455532
30
0
70
32
0
VERTEX
8
0
62
30
10
0.066381985
20
0.39798415
30
0
70
32
0
SEQEND
8
0
0
POLYLINE
8
0
62
30
66
1
10
0
20
0
30
0
70
8
0
VERTEX
8
0
62
30
10
0.094666256
20
0.39798415
30
0
70
32
0
VERTEX
8
0
62
30
10
0.094666256
20
0.39798415
30
0
70
32
0
SEQEND
8
0
0
POLYLINE
8
0
62
5
66
1
10
0
20
0
30
0
70
8
0
VERTEX
8
0
62
5
10
0.038097713
20
0.37950937
30
0
70
32
0
VERTEX
8
0
62
5
10
0.038097713
20
0.38091924
30
0
70
32
0
SEQEND
8
0
0
POLYLINE
8
0
62
5
66
1
10
0
20
0
30
0
70
8
0
VERTEX
8
0
62
5
10
0.066381985
20
0.37950937
30
0
70
32
0
VERTEX
8
0
62
5
10
0.066381985
20
0.39455532
30
0
70
32
0
SEQEND
8
0
0
POLYLINE
8
0
62
5
66
1
10
0
20
0
30
0
70
8
0
VERTEX
8
0
62
5
10
0.094666256
20
0.37950937
30
0
70
32
0
VERTEX
8
0
62
5
10
0.094666256
20
0.39798415
30
0
70
32
0
SEQEND
8
0
0
POLYLINE
8
0
62
5
66
1
10
0
20
0
30
0
70
8
0
VERTEX
8
0
62
5
10
0.038097713
20
0.39798415
30
0
70
32
0
VERTEX
8
0
62
5
10
0.038097713
20
0.41645893
30
0
70
32
0
SEQEND
8
0
0
POLYLINE
8
0
62
5
66
1
10
0
20
0
30
0
70
8
0
VERTEX
8
0
62
5
10
0.066381985
20
0.39798415
30
0
70
32
0
VERTEX
8
0
62
5
10
0.066381985
20
0.41645893
30
0
70
32
0
SEQEND
8
0
0
POLYLINE
8
0
62
5
66
1
10
0
20
0
30
0
70
8
0
VERTEX
8
0
62
5
10
0.094666256
20
0.39798415
30
0
70
32
0
VERTEX
8
0
62
5
10
0.094666256
20
0.41645893
30
0
70
32
0
SEQEND
8
0
0
POLYLINE
8
0
62
5
66
1
10
0
20
0
30
0
70
8
0
VERTEX
8
0
62
5
10
0.23608761
20
0.41645893
30
0
70
32
0
VERTEX
8
0
62
5
10
0.23608761
20
0.37950937
30
0
70
32
0
SEQEND
8
0
0
POLYLINE
8
0
62
5
66
1
10
0
20
0
30
0
70
8
0
VERTEX
8
0
62
5
10
0.12295053
20
0.38434807
30
0
70
32
0
VERTEX
8
0
62
5
10
0.1512348
20
0.38091924
30
0
70
32
0
VERTEX
8
0
62
5
10
0.17951907
20
0.39455532
30
0
70
32
0
VERTEX
8
0
62
5
10
0.20780334
20
0.39798415
30
0
70
32
0
VERTEX
8
0
62
5
10
0.23608761
20
0.38434807
30
0
70
32
0
SEQEND
8
0
0
POLYLINE
8
0
62
5
66
1
10
0
20
0
30
0
70
8
0
SEQEND
8
0
0
POLYLINE
8
0
62
5
66
1
10
0
20
0
30
0
70
8
0
VERTEX
8
0
62
5
10
0.12295053
20
0.41162023
30
0
70
32
0
VERTEX
8
0
62
5
10
0.1512348
20
0.41504906
30
0
70
32
0
VERTEX
8
0
62
5
10
0.17951907
20
0.40141298
30
0
70
32
0
VERTEX
8
0
62
5
10
0.20780334
20
0.39798415
30
0
70
32
0
VERTEX
8
0
62
5
10
0.23608761
20
0.41162023
30
0
70
32
0
SEQEND
8
0
0
POLYLINE
8
0
62
30
66
1
10
0
20
0
30
0
70
8
0
VERTEX
8
0
62
30
10
0.12295053
20
0.39798415
30
0
70
32
0
VERTEX
8
0
62
30
10
0.23608761
20
0.39798415
30
0
70
32
0
SEQEND
8
0
0
POLYLINE
8
0
62
30
66
1
10
0
20
0
30
0
70
8
0
VERTEX
8
0
62
30
10
0.1512348
20
0.38091924
30
0
70
32
0
VERTEX
8
0
62
30
10
0.1512348
20
0.39798415
30
0
70
32
0
SEQEND
8
0
0
POLYLINE
8
0
62
30
66
1
10
0
20
0
30
0
70
8
0
VERTEX
8
0
62
30
10
0.17951907
20
0.39455532
30
0
70
32
0
VERTEX
8
0
62
30
10
0.17951907
20
0.39798415
30
0
70
32
0
SEQEND
8
0
0
POLYLINE
8
0
62
30
66
1
10
0
20
0
30
0
70
8
0
VERTEX
8
0
62
30
10
0.20780334
20
0.39798415
30
0
70
32
0
VERTEX
8
0
62
30
10
0.20780334
20
0.39798415
30
0
70
32
0
SEQEND
8
0
0
POLYLINE
8
0
62
5
66
1
10
0
20
0
30
0
70
8
0
VERTEX
8
0
62
5
10
0.1512348
20
0.37950937
30
0
70
32
0
VERTEX
8
0
62
5
10
0.1512348
20
0.38091924
30
0
70
32
0
SEQEND
8
0
0
POLYLINE
8
0
62
5
66
1
10
0
20
0
30
0
70
8
0
VERTEX
8
0
62
5
10
0.17951907
20
0.37950937
30
0
70
32
0
VERTEX
8
0
62
5
10
0.17951907
20
0.39455532
30
0
70
32
0
SEQEND
8
0
0
POLYLINE
8
0
62
5
66
1
10
0
20
0
30
0
70
8
0
VERTEX
8
0
62
5
10
0.20780334
20
0.37950937
30
0
70
32
0
VERTEX
8
0
62
5
10
0.20780334
20
0.39798415
30
0
70
32
0
SEQEND
8
0
0
POLYLINE
8
0
62
5
66
1
10
0
20
0
30
0
70
8
0
VERTEX
8
0
62
5
10
0.1512348
20
0.39798415
30
0
70
32
0
VERTEX
8
0
62
5
10
0.1512348
20
0.41645893
30
0
70
32
0
SEQEND
8
0
0
POLYLINE
8
0
62
5
66
1
10
0
20
0
30
0
70
8
0
VERTEX
8
0
62
5
10
0.17951907
20
0.39798415
30
0
70
32
0
VERTEX
8
0
62
5
10
0.17951907
20
0.41645893
30
0
70
32
0
SEQEND
8
0
0
POLYLINE
8
0
62
5
66
1
10
0
20
0
30
0
70
8
0
VERTEX
8
0
62
5
10
0.20780334
20
0.39798415
30
0
70
32
0
VERTEX
8
0
62
5
10
0.20780334
20
0.41645893
30
0
70
32
0
SEQEND
8
0
0
POLYLINE
8
0
62
5
66
1
10
0
20
0
30
0
70
8
0
VERTEX
8
0
62
5
10
-0.10332364
20
0.37950937
30
0
70
32
0
VERTEX
8
0
62
5
10
-0.10332364
20
0.41645893
30
0
70
32
0
SEQEND
8
0
0
POLYLINE
8
0
62
5
66
1
10
0
20
0
30
0
70
8
0
VERTEX
8
0
62
5
10
-0.10332364
20
0.38434807
30
0
70
32
0
VERTEX
8
0
62
5
10
-0.075039372
20
0.38091924
30
0
70
32
0
VERTEX
8
0
62
5
10
-0.0467551
20
0.39455532
30
0
70
32
0
VERTEX
8
0
62
5
10
-0.018470829
20
0.39798415
30
0
70
32
0
VERTEX
8
0
62
5
10
0.0098134421
20
0.38434807
30
0
70
32
0
SEQEND
8
0
0
POLYLINE
8
0
62
5
66
1
10
0
20
0
30
0
70
8
0
SEQEND
8
0
0
POLYLINE
8
0
62
5
66
1
10
0
20
0
30
0
70
8
0
VERTEX
8
0
62
5
10
-0.10332364
20
0.41162023
30
0
70
32
0
VERTEX
8
0
62
5
10
-0.075039372
20
0.41504906
30
0
70
32
0
VERTEX
8
0
62
5
10
-0.0467551
20
0.40141298
30
0
70
32
0
VERTEX
8
0
62
5
10
-0.018470829
20
0.39798415
30
0
70
32
0
VERTEX
8
0
62
5
10
0.0098134421
20
0.41162023
30
0
70
32
0
SEQEND
8
0
0
POLYLINE
8
0
62
30
66
1
10
0
20
0
30
0
70
8
0
VERTEX
8
0
62
30
10
-0.10332364
20
0.39798415
30
0
70
32
0
VERTEX
8
0
62
30
10
0.0098134421
20
0.39798415
30
0
70
32
0
SEQEND
8
0
0
POLYLINE
8
0
62
30
66
1
10
0
20
0
30
0
70
8
0
VERTEX
8
0
62
30
10
-0.075039372
20
0.38091924
30
0
70
32
0
VERTEX
8
0
62
30
10
-0.075039372
20
0.39798415
30
0
70
32
0
SEQEND
8
0
0
POLYLINE
8
0
62
30
66
1
10
0
20
0
30
0
70
8
0
VERTEX
8
0
62
30
10
-0.0467551
20
0.39455532
30
0
70
32
0
VERTEX
8
0
62
30
10
-0.0467551
20
0.39798415
30
0
70
32
0
SEQEND
8
0
0
POLYLINE
8
0
62
30
66
1
10
0
20
0
30
0
70
8
0
VERTEX
8
0
62
30
10
-0.018470829
20
0.39798415
30
0
70
32
0
VERTEX
8
0
62
30
10
-0.018470829
20
0.39798415
30
0
70
32
0
SEQEND
8
0
0
POLYLINE
8
0
62
5
66
1
10
0
20
0
30
0
70
8
0
VERTEX
8
0
62
5
10
-0.075039372
20
0.37950937
30
0
70
32
0
VERTEX
8
0
62
5
10
-0.075039372
20
0.38091924
30
0
70
32
0
SEQEND
8
0
0
POLYLINE
8
0
62
5
66
1
10
0
20
0
30
0
70
8
0
VERTEX
8
0
62
5
10
-0.0467551
20
0.37950937
30
0
70
32
0
VERTEX
8
0
62
5
10
-0.0467551
20
0.39455532
30
0
70
32
0
SEQEND
8
0
0
POLYLINE
8
0
62
5
66
1
10
0
20
0
30
0
70
8
0
VERTEX
8
0
62
5
10
-0.018470829
20
0.37950937
30
0
70
32
0
VERTEX
8
0
62
5
10
-0.018470829
20
0.39798415
30
0
70
32
0
SEQEND
8
0
0
POLYLINE
8
0
62
5
66
1
10
0
20
0
30
0
70
8
0
VERTEX
8
0
62
5
10
-0.075039372
20
0.39798415
30
0
70
32
0
VERTEX
8
0
62
5
10
-0.075039372
20
0.41645893
30
0
70
32
0
SEQEND
8
0
0
POLYLINE
8
0
62
5
66
1
10
0
20
0
30
0
70
8
0
VERTEX
8
0
62
5
10
-0.0467551
20
0.39798415
30
0
70
32
0
VERTEX
8
0
62
5
10
-0.0467551
20
0.41645893
30
0
70
32
0
SEQEND
8
0
0
POLYLINE
8
0
62
5
66
1
10
0
20
0
30
0
70
8
0
VERTEX
8
0
62
5
10
-0.018470829
20
0.39798415
30
0
70
32
0
VERTEX
8
0
62
5
10
-0.018470829
20
0.41645893
30
0
70
32
0
SEQEND
8
0
0
POLYLINE
8
0
62
5
66
1
10
0
20
0
30
0
70
8
0
VERTEX
8
0
62
5
10
0.0098134421
20
0.41645893
30
0
70
32
0
VERTEX
8
0
62
5
10
0.0098134421
20
0.45645893
30
0
70
32
0
SEQEND
8
0
0
POLYLINE
8
0
62
5
66
1
10
0
20
0
30
0
70
8
0
VERTEX
8
0
62
5
10
0.12295053
20
0.45645893
30
0
70
32
0
VERTEX
8
0
62
5
10
0.12295053
20
0.41645893
30
0
70
32
0
SEQEND
8
0
0
POLYLINE
8
0
62
5
66
1
10
0
20
0
30
0
70
8
0
VERTEX
8
0
62
5
10
0.0098134421
20
0.41645893
30
0
70
32
0
VERTEX
8
0
62
5
10
0.12295053
20
0.41645893
30
0
70
32
0
SEQEND
8
0
0
POLYLINE
8
0
62
5
66
1
10
0
20
0
30
0
70
8
0
VERTEX
8
0
62
5
10
0.0098134421
20
0.45645893
30
0
70
32
0
VERTEX
8
0
62
5
10
0.12295053
20
0.45645893
30
0
70
32
0
SEQEND
8
0
0
POLYLINE
8
0
62
5
66
1
10
0
20
0
30
0
70
8
0
VERTEX
8
0
62
5
10
0.038097713
20
0.41645893
30
0
70
32
0
VERTEX
8
0
62
5
10
0.038097713
20
0.41645893
30
0
70
32
0
SEQEND
8
0
0
POLYLINE
8
0
62
5
66
1
10
0
20
0
30
0
70
8
0
VERTEX
8
0
62
5
10
0.066381985
20
0.41645893
30
0
70
32
0
VERTEX
8
0
62
5
10
0.066381985
20
0.41645893
30
0
70
32
0
SEQEND
8
0
0
POLYLINE
8
0
62
5
66
1
10
0
20
0
30
0
70
8
0
VERTEX
8
0
62
5
10
0.094666256
20
0.41645893
30
0
70
32
0
VERTEX
8
0
62
5
10
0.094666256
20
0.41645893
30
0
70
32
0
SEQEND
8
0
0
POLYLINE
8
0
62
5
66
1
10
0
20
0
30
0
70
8
0
VERTEX
8
0
62
5
10
0.038097713
20
0.45645893
30
0
70
32
0
VERTEX
8
0
62
5
10
0.038097713
20
0.45645893
30
0
70
32
0
SEQEND
8
0
0
POLYLINE
8
0
62
5
66
1
10
0
20
0
30
0
70
8
0
VERTEX
8
0
62
5
10
0.066381985
20
0.45645893
30
0
70
32
0
VERTEX
8
0
62
5
10
0.066381985
20
0.45645893
30
0
70
32
0
SEQEND
8
0
0
POLYLINE
8
0
62
5
66
1
10
0
20
0
30
0
70
8
0
VERTEX
8
0
62
5
10
0.094666256
20
0.45645893
30
0
70
32
0
VERTEX
8
0
62
5
10
0.094666256
20
0.45645893
30
0
70
32
0
SEQEND
8
0
0
POLYLINE
8
0
62
30
66
1
10
0
20
0
30
0
70
8
0
VERTEX
8
0
62
30
10
0.0098134421
20
0.45645893
30
0
70
32
0
VERTEX
8
0
62
30
10
0.038097713
20
0.41645893
30
0
70
32
0
SEQEND
8
0
0
POLYLINE
8
0
62
30
66
1
10
0
20
0
30
0
70
8
0
VERTEX
8
0
62
30
10
0.038097713
20
0.45645893
30
0
70
32
0
VERTEX
8
0
62
30
10
0.0098134421
20
0.41645893
30
0
70
32
0
SEQEND
8
0
0
POLYLINE
8
0
62
30
66
1
10
0
20
0
30
0
70
8
0
VERTEX
8
0
62
30
10
0.066381985
20
0.45645893
30
0
70
32
0
VERTEX
8
0
62
30
10
0.094666256
20
0.41645893
30
0
70
32
0
SEQEND
8
0
0
POLYLINE
8
0
62
30
66
1
10
0
20
0
30
0
70
8
0
VERTEX
8
0
62
30
10
0.094666256
20
0.45645893
30
0
70
32
0
VERTEX
8
0
62
30
10
0.066381985
20
0.41645893
30
0
70
32
0
SEQEND
8
0
0
POLYLINE
8
0
62
30
66
1
10
0
20
0
30
0
70
8
0
VERTEX
8
0
62
30
10
0.038097713
20
0.43645893
30
0
70
32
0
VERTEX
8
0
62
30
10
0.066381985
20
0.43645893
30
0
70
32
0
SEQEND
8
0
0
POLYLINE
8
0
62
30
66
1
10
0
20
0
30
0
70
8
0
VERTEX
8
0
62
30
10
0.094666256
20
0.43645893
30
0
70
32
0
VERTEX
8
0
62
30
10
0.12295053
20
0.43645893
30
0
70
32
0
SEQEND
8
0
0
POLYLINE
8
0
62
5
66
1
10
0
20
0
30
0
70
8
0
VERTEX
8
0
62
5
10
0.0098134421
20
0.43645893
30
0
70
32
0
VERTEX
8
0
62
5
10
0.023955578
20
0.43645893
30
0
70
32
0
SEQEND
8
0
0
POLYLINE
8
0
62
5
66
1
10
0
20
0
30
0
70
8
0
VERTEX
8
0
62
5
10
0.066381985
20
0.43645893
30
0
70
32
0
VERTEX
8
0
62
5
10
0.08052412
20
0.43645893
30
0
70
32
0
SEQEND
8
0
0
POLYLINE
8
0
62
5
66
1
10
0
20
0
30
0
70
8
0
VERTEX
8
0
62
5
10
0.023955578
20
0.43645893
30
0
70
32
0
VERTEX
8
0
62
5
10
0.038097713
20
0.43645893
30
0
70
32
0
SEQEND
8
0
0
POLYLINE
8
0
62
5
66
1
10
0
20
0
30
0
70
8
0
VERTEX
8
0
62
5
10
0.08052412
20
0.43645893
30
0
70
32
0
VERTEX
8
0
62
5
10
0.094666256
20
0.43645893
30
0
70
32
0
SEQEND
8
0
0
POLYLINE
8
0
62
5
66
1
10
0
20
0
30
0
70
8
0
VERTEX
8
0
62
5
10
0.038097713
20
0.41645893
30
0
70
32
0
VERTEX
8
0
62
5
10
0.038097713
20
0.45645893
30
0
70
32
0
SEQEND
8
0
0
POLYLINE
8
0
62
5
66
1
10
0
20
0
30
0
70
8
0
VERTEX
8
0
62
5
10
0.066381985
20
0.41645893
30
0
70
32
0
VERTEX
8
0
62
5
10
0.066381985
20
0.45645893
30
0
70
32
0
SEQEND
8
0
0
POLYLINE
8
0
62
5
66
1
10
0
20
0
30
0
70
8
0
VERTEX
8
0
62
5
10
0.094666256
20
0.41645893
30
0
70
32
0
VERTEX
8
0
62
5
10
0.094666256
20
0.45645893
30
0
70
32
0
SEQEND
8
0
0
POLYLINE
8
0
62
5
66
1
10
0
20
0
30
0
70
8
0
VERTEX
8
0
62
5
10
0.0098134421
20
0.41645893
30
0
70
32
0
VERTEX
8
0
62
5
10
0.0098134421
20
0.45645893
30
0
70
32
0
SEQEND
8
0
0
POLYLINE
8
0
62
5
66
1
10
0
20
0
30
0
70
8
0
VERTEX
8
0
62
5
10
0.23608761
20
0.45645893
30
0
70
32
0
VERTEX
8
0
62
5
10
0.23608761
20
0.41645893
30
0
70
32
0
SEQEND
8
0
0
POLYLINE
8
0
62
5
66
1
10
0
20
0
30
0
70
8
0
VERTEX
8
0
62
5
10
0.12295053
20
0.41645893
30
0
70
32
0
VERTEX
8
0
62
5
10
0.23608761
20
0.41645893
30
0
70
32
0
SEQEND
8
0
0
POLYLINE
8
0
62
5
66
1
10
0
20
0
30
0
70
8
0
VERTEX
8
0
62
5
10
0.12295053
20
0.45645893
30
0
70
32
0
VERTEX
8
0
62
5
10
0.23608761
20
0.45645893
30
0
70
32
0
SEQEND
8
0
0
POLYLINE
8
0
62
5
66
1
10
0
20
0
30
0
70
8
0
VERTEX
8
0
62
5
10
0.1512348
20
0.41645893
30
0
70
32
0
VERTEX
8
0
62
5
10
0.1512348
20
0.41645893
30
0
70
32
0
SEQEND
8
0
0
POLYLINE
8
0
62
5
66
1
10
0
20
0
30
0
70
8
0
VERTEX
8
0
62
5
10
0.17951907
20
0.41645893
30
0
70
32
0
VERTEX
8
0
62
5
10
0.17951907
20
0.41645893
30
0
70
32
0
SEQEND
8
0
0
POLYLINE
8
0
62
5
66
1
10
0
20
0
30
0
70
8
0
VERTEX
8
0
62
5
10
0.20780334
20
0.41645893
30
0
70
32
0
VERTEX
8
0
62
5
10
0.20780334
20
0.41645893
30
0
70
32
0
SEQEND
8
0
0
POLYLINE
8
0
62
5
66
1
10
0
20
0
30
0
70
8
0
VERTEX
8
0
62
5
10
0.1512348
20
0.45645893
30
0
70
32
0
VERTEX
8
0
62
5
10
0.1512348
20
0.45645893
30
0
70
32
0
SEQEND
8
0
0
POLYLINE
8
0
62
5
66
1
10
0
20
0
30
0
70
8
0
VERTEX
8
0
62
5
10
0.17951907
20
0.45645893
30
0
70
32
0
VERTEX
8
0
62
5
10
0.17951907
20
0.45645893
30
0
70
32
0
SEQEND
8
0
0
POLYLINE
8
0
62
5
66
1
10
0
20
0
30
0
70
8
0
VERTEX
8
0
62
5
10
0.20780334
20
0.45645893
30
0
70
32
0
VERTEX
8
0
62
5
10
0.20780334
20
0.45645893
30
0
70
32
0
SEQEND
8
0
0
POLYLINE
8
0
62
30
66
1
10
0
20
0
30
0
70
8
0
VERTEX
8
0
62
30
10
0.12295053
20
0.45645893
30
0
70
32
0
VERTEX
8
0
62
30
10
0.1512348
20
0.41645893
30
0
70
32
0
SEQEND
8
0
0
POLYLINE
8
0
62
30
66
1
10
0
20
0
30
0
70
8
0
VERTEX
8
0
62
30
10
0.1512348
20
0.45645893
30
0
70
32
0
VERTEX
8
0
62
30
10
0.12295053
20
0.41645893
30
0
70
32
0
SEQEND
8
0
0
POLYLINE
8
0
62
30
66
1
10
0
20
0
30
0
70
8
0
VERTEX
8
0
62
30
10
0.17951907
20
0.45645893
30
0
70
32
0
VERTEX
8
0
62
30
10
0.20780334
20
0.41645893
30
0
70
32
0
SEQEND
8
0
0
POLYLINE
8
0
62
30
66
1
10
0
20
0
30
0
70
8
0
VERTEX
8
0
62
30
10
0.20780334
20
0.45645893
30
0
70
32
0
VERTEX
8
0
62
30
10
0.17951907
20
0.41645893
30
0
70
32
0
SEQEND
8
0
0
POLYLINE
8
0
62
30
66
1
10
0
20
0
30
0
70
8
0
VERTEX
8
0
62
30
10
0.1512348
20
0.43645893
30
0
70
32
0
VERTEX
8
0
62
30
10
0.17951907
20
0.43645893
30
0
70
32
0
SEQEND
8
0
0
POLYLINE
8
0
62
30
66
1
10
0
20
0
30
0
70
8
0
VERTEX
8
0
62
30
10
0.20780334
20
0.43645893
30
0
70
32
0
VERTEX
8
0
62
30
10
0.23608761
20
0.43645893
30
0
70
32
0
SEQEND
8
0
0
POLYLINE
8
0
62
5
66
1
10
0
20
0
30
0
70
8
0
VERTEX
8
0
62
5
10
0.12295053
20
0.43645893
30
0
70
32
0
VERTEX
8
0
62
5
10
0.13709266
20
0.43645893
30
0
70
32
0
SEQEND
8
0
0
POLYLINE
8
0
62
5
66
1
10
0
20
0
30
0
70
8
0
VERTEX
8
0
62
5
10
0.17951907
20
0.43645893
30
0
70
32
0
VERTEX
8
0
62
5
10
0.19366121
20
0.43645893
30
0
70
32
0
SEQEND
8
0
0
POLYLINE
8
0
62
5
66
1
10
0
20
0
30
0
70
8
0
VERTEX
8
0
62
5
10
0.13709266
20
0.43645893
30
0
70
32
0
VERTEX
8
0
62
5
10
0.1512348
20
0.43645893
30
0
70
32
0
SEQEND
8
0
0
POLYLINE
8
0
62
5
66
1
10
0
20
0
30
0
70
8
0
VERTEX
8
0
62
5
10
0.19366121
20
0.43645893
30
0
70
32
0
VERTEX
8
0
62
5
10
0.20780334
20
0.43645893
30
0
70
32
0
SEQEND
8
0
0
POLYLINE
8
0
62
5
66
1
10
0
20
0
30
0
70
8
0
VERTEX
8
0
62
5
10
0.1512348
20
0.41645893
30
0
70
32
0
VERTEX
8
0
62
5
10
0.1512348
20
0.45645893
30
0
70
32
0
SEQEND
8
0
0
POLYLINE
8
0
62
5
66
1
10
0
20
0
30
0
70
8
0
VERTEX
8
0
62
5
10
0.17951907
20
0.41645893
30
0
70
32
0
VERTEX
8
0
62
5
10
0.17951907
20
0.45645893
30
0
70
32
0
SEQEND
8
0
0
POLYLINE
8
0
62
5
66
1
10
0
20
0
30
0
70
8
0
VERTEX
8
0
62
5
10
0.20780334
20
0.41645893
30
0
70
32
0
VERTEX
8
0
62
5
10
0.20780334
20
0.45645893
30
0
70
32
0
SEQEND
8
0
0
POLYLINE
8
0
62
5
66
1
10
0
20
0
30
0
70
8
0
VERTEX
8
0
62
5
10
0.12295053
20
0.41645893
30
0
70
32
0
VERTEX
8
0
62
5
10
0.12295053
20
0.45645893
30
0
70
32
0
SEQEND
8
0
0
POLYLINE
8
0
62
5
66
1
10
0
20
0
30
0
70
8
0
VERTEX
8
0
62
5
10
-0.10332364
20
0.41645893
30
0
70
32
0
VERTEX
8
0
62
5
10
-0.10332364
20
0.45645893
30
0
70
32
0
SEQEND
8
0
0
POLYLINE
8
0
62
5
66
1
10
0
20
0
30
0
70
8
0
VERTEX
8
0
62
5
10
-0.10332364
20
0.41645893
30
0
70
32
0
VERTEX
8
0
62
5
10
0.0098134421
20
0.41645893
30
0
70
32
0
SEQEND
8
0
0
POLYLINE
8
0
62
5
66
1
10
0
20
0
30
0
70
8
0
VERTEX
8
0
62
5
10
-0.10332364
20
0.45645893
30
0
70
32
0
VERTEX
8
0
62
5
10
0.0098134421
20
0.45645893
30
0
70
32
0
SEQEND
8
0
0
POLYLINE
8
0
62
5
66
1
10
0
20
0
30
0
70
8
0
VERTEX
8
0
62
5
10
-0.075039372
20
0.41645893
30
0
70
32
0
VERTEX
8
0
62
5
10
-0.075039372
20
0.41645893
30
0
70
32
0
SEQEND
8
0
0
POLYLINE
8
0
62
5
66
1
10
0
20
0
30
0
70
8
0
VERTEX
8
0
62
5
10
-0.0467551
20
0.41645893
30
0
70
32
0
VERTEX
8
0
62
5
10
-0.0467551
20
0.41645893
30
0
70
32
0
SEQEND
8
0
0
POLYLINE
8
0
62
5
66
1
10
0
20
0
30
0
70
8
0
VERTEX
8
0
62
5
10
-0.018470829
20
0.41645893
30
0
70
32
0
VERTEX
8
0
62
5
10
-0.018470829
20
0.41645893
30
0
70
32
0
SEQEND
8
0
0
POLYLINE
8
0
62
5
66
1
10
0
20
0
30
0
70
8
0
VERTEX
8
0
62
5
10
-0.075039372
20
0.45645893
30
0
70
32
0
VERTEX
8
0
62
5
10
-0.075039372
20
0.45645893
30
0
70
32
0
SEQEND
8
0
0
POLYLINE
8
0
62
5
66
1
10
0
20
0
30
0
70
8
0
VERTEX
8
0
62
5
10
-0.0467551
20
0.45645893
30
0
70
32
0
VERTEX
8
0
62
5
10
-0.0467551
20
0.45645893
30
0
70
32
0
SEQEND
8
0
0
POLYLINE
8
0
62
5
66
1
10
0
20
0
30
0
70
8
0
VERTEX
8
0
62
5
10
-0.018470829
20
0.45645893
30
0
70
32
0
VERTEX
8
0
62
5
10
-0.018470829
20
0.45645893
30
0
70
32
0
SEQEND
8
0
0
POLYLINE
8
0
62
30
66
1
10
0
20
0
30
0
70
8
0
VERTEX
8
0
62
30
10
-0.10332364
20
0.45645893
30
0
70
32
0
VERTEX
8
0
62
30
10
-0.075039372
20
0.41645893
30
0
70
32
0
SEQEND
8
0
0
POLYLINE
8
0
62
30
66
1
10
0
20
0
30
0
70
8
0
VERTEX
8
0
62
30
10
-0.075039372
20
0.45645893
30
0
70
32
0
VERTEX
8
0
62
30
10
-0.10332364
20
0.41645893
30
0
70
32
0
SEQEND
8
0
0
POLYLINE
8
0
62
30
66
1
10
0
20
0
30
0
70
8
0
VERTEX
8
0
62
30
10
-0.0467551
20
0.45645893
30
0
70
32
0
VERTEX
8
0
62
30
10
-0.018470829
20
0.41645893
30
0
70
32
0
SEQEND
8
0
0
POLYLINE
8
0
62
30
66
1
10
0
20
0
30
0
70
8
0
VERTEX
8
0
62
30
10
-0.018470829
20
0.45645893
30
0
70
32
0
VERTEX
8
0
62
30
10
-0.0467551
20
0.41645893
30
0
70
32
0
SEQEND
8
0
0
POLYLINE
8
0
62
30
66
1
10
0
20
0
30
0
70
8
0
VERTEX
8
0
62
30
10
-0.075039372
20
0.43645893
30
0
70
32
0
VERTEX
8
0
62
30
10
-0.0467551
20
0.43645893
30
0
70
32
0
SEQEND
8
0
0
POLYLINE
8
0
62
30
66
1
10
0
20
0
30
0
70
8
0
VERTEX
8
0
62
30
10
-0.018470829
20
0.43645893
30
0
70
32
0
VERTEX
8
0
62
30
10
0.0098134421
20
0.43645893
30
0
70
32
0
SEQEND
8
0
0
POLYLINE
8
0
62
5
66
1
10
0
20
0
30
0
70
8
0
VERTEX
8
0
62
5
10
-0.10332364
20
0.43645893
30
0
70
32
0
VERTEX
8
0
62
5
10
-0.089181507
20
0.43645893
30
0
70
32
0
SEQEND
8
0
0
POLYLINE
8
0
62
5
66
1
10
0
20
0
30
0
70
8
0
VERTEX
8
0
62
5
10
-0.0467551
20
0.43645893
30
0
70
32
0
VERTEX
8
0
62
5
10
-0.032612965
20
0.43645893
30
0
70
32
0
SEQEND
8
0
0
POLYLINE
8
0
62
5
66
1
10
0
20
0
30
0
70
8
0
VERTEX
8
0
62
5
10
-0.089181507
20
0.43645893
30
0
70
32
0
VERTEX
8
0
62
5
10
-0.075039372
20
0.43645893
30
0
70
32
0
SEQEND
8
0
0
POLYLINE
8
0
62
5
66
1
10
0
20
0
30
0
70
8
0
VERTEX
8
0
62
5
10
-0.032612965
20
0.43645893
30
0
70
32
0
VERTEX
8
0
62
5
10
-0.018470829
20
0.43645893
30
0
70
32
0
SEQEND
8
0
0
POLYLINE
8
0
62
5
66
1
10
0
20
0
30
0
70
8
0
VERTEX
8
0
62
5
10
-0.075039372
20
0.41645893
30
0
70
32
0
VERTEX
8
0
62
5
10
-0.075039372
20
0.45645893
30
0
70
32
0
SEQEND
8
0
0
POLYLINE
8
0
62
5
66
1
10
0
20
0
30
0
70
8
0
VERTEX
8
0
62
5
10
-0.0467551
20
0.41645893
30
0
70
32
0
VERTEX
8
0
62
5
10
-0.0467551
20
0.45645893
30
0
70
32
0
SEQEND
8
0
0
POLYLINE
8
0
62
5
66
1
10
0
20
0
30
0
70
8
0
VERTEX
8
0
62
5
10
-0.018470829
20
0.41645893
30
0
70
32
0
VERTEX
8
0
62
5
10
-0.018470829
20
0.45645893
30
0
70
32
0
SEQEND
8
0
0
POLYLINE
8
0
62
5
66
1
10
0
20
0
30
0
70
8
0
VERTEX
8
0
62
5
10
-0.10332364
20
0.41645893
30
0
70
32
0
VERTEX
8
0
62
5
10
-0.10332364
20
0.45645893
30
0
70
32
0
SEQEND
8
0
0
POLYLINE
8
0
62
5
66
1
10
0
20
0
30
0
70
8
0
VERTEX
8
0
62
5
10
0.0098134421
20
0.45645893
30
0
70
32
0
VERTEX
8
0
62
5
10
0.0098134421
20
0.53169103
30
0
70
32
0
SEQEND
8
0
0
POLYLINE
8
0
62
5
66
1
10
0
20
0
30
0
70
8
0
VERTEX
8
0
62
5
10
0.12295053
20
0.53169103
30
0
70
32
0
VERTEX
8
0
62
5
10
0.12295053
20
0.45645893
30
0
70
32
0
SEQEND
8
0
0
POLYLINE
8
0
62
5
66
1
10
0
20
0
30
0
70
8
0
VERTEX
8
0
62
5
10
0.0098134421
20
0.45761729
30
0
70
32
0
VERTEX
8
0
62
5
10
0.038097713
20
0.46177453
30
0
70
32
0
VERTEX
8
0
62
5
10
0.066381985
20
0.47526695
30
0
70
32
0
VERTEX
8
0
62
5
10
0.094666256
20
0.47110971
30
0
70
32
0
VERTEX
8
0
62
5
10
0.12295053
20
0.45761729
30
0
70
32
0
SEQEND
8
0
0
POLYLINE
8
0
62
5
66
1
10
0
20
0
30
0
70
8
0
VERTEX
8
0
62
5
10
0.0098134421
20
0.49523334
30
0
70
32
0
VERTEX
8
0
62
5
10
0.038097713
20
0.49939057
30
0
70
32
0
VERTEX
8
0
62
5
10
0.066381985
20
0.512883
30
0
70
32
0
VERTEX
8
0
62
5
10
0.094666256
20
0.50872576
30
0
70
32
0
VERTEX
8
0
62
5
10
0.12295053
20
0.49523334
30
0
70
32
0
SEQEND
8
0
0
POLYLINE
8
0
62
5
66
1
10
0
20
0
30
0
70
8
0
VERTEX
8
0
62
5
10
0.0098134421
20
0.49291662
30
0
70
32
0
VERTEX
8
0
62
5
10
0.038097713
20
0.48875938
30
0
70
32
0
VERTEX
8
0
62
5
10
0.066381985
20
0.47526695
30
0
70
32
0
VERTEX
8
0
62
5
10
0.094666256
20
0.47942419
30
0
70
32
0
VERTEX
8
0
62
5
10
0.12295053
20
0.49291662
30
0
70
32
0
SEQEND
8
0
0
POLYLINE
8
0
62
5
66
1
10
0
20
0
30
0
70
8
0
VERTEX
8
0
62
5
10
0.0098134421
20
0.53053267
30
0
70
32
0
VERTEX
8
0
62
5
10
0.038097713
20
0.52637543
30
0
70
32
0
VERTEX
8
0
62
5
10
0.066381985
20
0.512883
30
0
70
32
0
VERTEX
8
0
62
5
10
0.094666256
20
0.51704024
30
0
70
32
0
VERTEX
8
0
62
5
10
0.12295053
20
0.53053267
30
0
70
32
0
SEQEND
8
0
0
POLYLINE
8
0
62
30
66
1
10
0
20
0
30
0
70
8
0
VERTEX
8
0
62
30
10
0.0098134421
20
0.47526695
30
0
70
32
0
VERTEX
8
0
62
30
10
0.12295053
20
0.47526695
30
0
70
32
0
SEQEND
8
0
0
POLYLINE
8
0
62
30
66
1
10
0
20
0
30
0
70
8
0
VERTEX
8
0
62
30
10
0.0098134421
20
0.512883
30
0
70
32
0
VERTEX
8
0
62
30
10
0.12295053
20
0.512883
30
0
70
32
0
SEQEND
8
0
0
POLYLINE
8
0
62
30
66
1
10
0
20
0
30
0
70
8
0
VERTEX
8
0
62
30
10
0.038097713
20
0.46177453
30
0
70
32
0
VERTEX
8
0
62
30
10
0.038097713
20
0.47526695
30
0
70
32
0
SEQEND
8
0
0
POLYLINE
8
0
62
30
66
1
10
0
20
0
30
0
70
8
0
VERTEX
8
0
62
30
10
0.066381985
20
0.47526695
30
0
70
32
0
VERTEX
8
0
62
30
10
0.066381985
20
0.47526695
30
0
70
32
0
SEQEND
8
0
0
POLYLINE
8
0
62
30
66
1
10
0
20
0
30
0
70
8
0
VERTEX
8
0
62
30
10
0.094666256
20
0.47110971
30
0
70
32
0
VERTEX
8
0
62
30
10
0.094666256
20
0.47526695
30
0
70
32
0
SEQEND
8
0
0
POLYLINE
8
0
62
30
66
1
10
0
20
0
30
0
70
8
0
VERTEX
8
0
62
30
10
0.038097713
20
0.49939057
30
0
70
32
0
VERTEX
8
0
62
30
10
0.038097713
20
0.512883
30
0
70
32
0
SEQEND
8
0
0
POLYLINE
8
0
62
30
66
1
10
0
20
0
30
0
70
8
0
VERTEX
8
0
62
30
10
0.038097713
20
0.512883
30
0
70
32
0
VERTEX
8
0
62
30
10
0.066381985
20
0.512883
30
0
70
32
0
SEQEND
8
0
0
POLYLINE
8
0
62
30
66
1
10
0
20
0
30
0
70
8
0
VERTEX
8
0
62
30
10
0.066381985
20
0.512883
30
0
70
32
0
VERTEX
8
0
62
30
10
0.066381985
20
0.512883
30
0
70
32
0
SEQEND
8
0
0
POLYLINE
8
0
62
30
66
1
10
0
20
0
30
0
70
8
0
VERTEX
8
0
62
30
10
0.066381985
20
0.512883
30
0
70
32
0
VERTEX
8
0
62
30
10
0.094666256
20
0.50872576
30
0
70
32
0
SEQEND
8
0
0
POLYLINE
8
0
62
30
66
1
10
0
20
0
30
0
70
8
0
VERTEX
8
0
62
30
10
0.094666256
20
0.50872576
30
0
70
32
0
VERTEX
8
0
62
30
10
0.094666256
20
0.512883
30
0
70
32
0
SEQEND
8
0
0
POLYLINE
8
0
62
5
66
1
10
0
20
0
30
0
70
8
0
VERTEX
8
0
62
5
10
0.038097713
20
0.45645893
30
0
70
32
0
VERTEX
8
0
62
5
10
0.038097713
20
0.46177453
30
0
70
32
0
SEQEND
8
0
0
POLYLINE
8
0
62
5
66
1
10
0
20
0
30
0
70
8
0
VERTEX
8
0
62
5
10
0.066381985
20
0.45645893
30
0
70
32
0
VERTEX
8
0
62
5
10
0.066381985
20
0.47526695
30
0
70
32
0
SEQEND
8
0
0
POLYLINE
8
0
62
5
66
1
10
0
20
0
30
0
70
8
0
VERTEX
8
0
62
5
10
0.094666256
20
0.45645893
30
0
70
32
0
VERTEX
8
0
62
5
10
0.094666256
20
0.47110971
30
0
70
32
0
SEQEND
8
0
0
POLYLINE
8
0
62
5
66
1
10
0
20
0
30
0
70
8
0
VERTEX
8
0
62
5
10
0.038097713
20
0.49407498
30
0
70
32
0
VERTEX
8
0
62
5
10
0.038097713
20
0.49939057
30
0
70
32
0
SEQEND
8
0
0
POLYLINE
8
0
62
5
66
1
10
0
20
0
30
0
70
8
0
VERTEX
8
0
62
5
10
0.066381985
20
0.49407498
30
0
70
32
0
VERTEX
8
0
62
5
10
0.066381985
20
0.512883
30
0
70
32
0
SEQEND
8
0
0
POLYLINE
8
0
62
5
66
1
10
0
20
0
30
0
70
8
0
VERTEX
8
0
62
5
10
0.094666256
20
0.49407498
30
0
70
32
0
VERTEX
8
0
62
5
10
0.094666256
20
0.50872576
30
0
70
32
0
SEQEND
8
0
0
POLYLINE
8
0
62
5
66
1
10
0
20
0
30
0
70
8
0
VERTEX
8
0
62
5
10
0.038097713
20
0.47526695
30
0
70
32
0
VERTEX
8
0
62
5
10
0.038097713
20
0.49407498
30
0
70
32
0
SEQEND
8
0
0
POLYLINE
8
0
62
5
66
1
10
0
20
0
30
0
70
8
0
VERTEX
8
0
62
5
10
0.066381985
20
0.47526695
30
0
70
32
0
VERTEX
8
0
62
5
10
0.066381985
20
0.49407498
30
0
70
32
0
SEQEND
8
0
0
POLYLINE
8
0
62
5
66
1
10
0
20
0
30
0
70
8
0
VERTEX
8
0
62
5
10
0.094666256
20
0.47526695
30
0
70
32
0
VERTEX
8
0
62
5
10
0.094666256
20
0.49407498
30
0
70
32
0
SEQEND
8
0
0
POLYLINE
8
0
62
5
66
1
10
0
20
0
30
0
70
8
0
VERTEX
8
0
62
5
10
0.038097713
20
0.512883
30
0
70
32
0
VERTEX
8
0
62
5
10
0.038097713
20
0.53169103
30
0
70
32
0
SEQEND
8
0
0
POLYLINE
8
0
62
5
66
1
10
0
20
0
30
0
70
8
0
VERTEX
8
0
62
5
10
0.066381985
20
0.512883
30
0
70
32
0
VERTEX
8
0
62
5
10
0.066381985
20
0.53169103
30
0
70
32
0
SEQEND
8
0
0
POLYLINE
8
0
62
5
66
1
10
0
20
0
30
0
70
8
0
VERTEX
8
0
62
5
10
0.094666256
20
0.512883
30
0
70
32
0
VERTEX
8
0
62
5
10
0.094666256
20
0.53169103
30
0
70
32
0
SEQEND
8
0
0
POLYLINE
8
0
62
5
66
1
10
0
20
0
30
0
70
8
0
VERTEX
8
0
62
5
10
0.23608761
20
0.53169103
30
0
70
32
0
VERTEX
8
0
62
5
10
0.23608761
20
0.45645893
30
0
70
32
0
SEQEND
8
0
0
POLYLINE
8
0
62
5
66
1
10
0
20
0
30
0
70
8
0
VERTEX
8
0
62
5
10
0.12295053
20
0.45761729
30
0
70
32
0
VERTEX
8
0
62
5
10
0.1512348
20
0.46177453
30
0
70
32
0
VERTEX
8
0
62
5
10
0.17951907
20
0.47526695
30
0
70
32
0
VERTEX
8
0
62
5
10
0.20780334
20
0.47110971
30
0
70
32
0
VERTEX
8
0
62
5
10
0.23608761
20
0.45761729
30
0
70
32
0
SEQEND
8
0
0
POLYLINE
8
0
62
5
66
1
10
0
20
0
30
0
70
8
0
VERTEX
8
0
62
5
10
0.12295053
20
0.49523334
30
0
70
32
0
VERTEX
8
0
62
5
10
0.1512348
20
0.49939057
30
0
70
32
0
VERTEX
8
0
62
5
10
0.17951907
20
0.512883
30
0
70
32
0
VERTEX
8
0
62
5
10
0.20780334
20
0.50872576
30
0
70
32
0
VERTEX
8
0
62
5
10
0.23608761
20
0.49523334
30
0
70
32
0
SEQEND
8
0
0
POLYLINE
8
0
62
5
66
1
10
0
20
0
30
0
70
8
0
VERTEX
8
0
62
5
10
0.12295053
20
0.49291662
30
0
70
32
0
VERTEX
8
0
62
5
10
0.1512348
20
0.48875938
30
0
70
32
0
VERTEX
8
0
62
5
10
0.17951907
20
0.47526695
30
0
70
32
0
VERTEX
8
0
62
5
10
0.20780334
20
0.47942419
30
0
70
32
0
VERTEX
8
0
62
5
10
0.23608761
20
0.49291662
30
0
70
32
0
SEQEND
8
0
0
POLYLINE
8
0
62
5
66
1
10
0
20
0
30
0
70
8
0
VERTEX
8
0
62
5
10
0.12295053
20
0.53053267
30
0
70
32
0
VERTEX
8
0
62
5
10
0.1512348
20
0.52637543
30
0
70
32
0
VERTEX
8
0
62
5
10
0.17951907
20
0.512883
30
0
70
32
0
VERTEX
8
0
62
5
10
0.20780334
20
0.51704024
30
0
70
32
0
VERTEX
8
0
62
5
10
0.23608761
20
0.53053267
30
0
70
32
0
SEQEND
8
0
0
POLYLINE
8
0
62
30
66
1
10
0
20
0
30
0
70
8
0
VERTEX
8
0
62
30
10
0.12295053
20
0.47526695
30
0
70
32
0
VERTEX
8
0
62
30
10
0.23608761
20
0.47526695
30
0
70
32
0
SEQEND
8
0
0
POLYLINE
8
0
62
30
66
1
10
0
20
0
30
0
70
8
0
VERTEX
8
0
62
30
10
0.12295053
20
0.512883
30
0
70
32
0
VERTEX
8
0
62
30
10
0.23608761
20
0.512883
30
0
70
32
0
SEQEND
8
0
0
POLYLINE
8
0
62
30
66
1
10
0
20
0
30
0
70
8
0
VERTEX
8
0
62
30
10
0.1512348
20
0.46177453
30
0
70
32
0
VERTEX
8
0
62
30
10
0.1512348
20
0.47526695
30
0
70
32
0
SEQEND
8
0
0
POLYLINE
8
0
62
30
66
1
10
0
20
0
30
0
70
8
0
VERTEX
8
0
62
30
10
0.17951907
20
0.47526695
30
0
70
32
0
VERTEX
8
0
62
30
10
0.17951907
20
0.47526695
30
0
70
32
0
SEQEND
8
0
0
POLYLINE
8
0
62
30
66
1
10
0
20
0
30
0
70
8
0
VERTEX
8
0
62
30
10
0.20780334
20
0.47110971
30
0
70
32
0
VERTEX
8
0
62
30
10
0.20780334
20
0.47526695
30
0
70
32
0
SEQEND
8
0
0
POLYLINE
8
0
62
30
66
1
10
0
20
0
30
0
70
8
0
VERTEX
8
0
62
30
10
0.1512348
20
0.49939057
30
0
70
32
0
VERTEX
8
0
62
30
10
0.1512348
20
0.512883
30
0
70
32
0
SEQEND
8
0
0
POLYLINE
8
0
62
30
66
1
10
0
20
0
30
0
70
8
0
VERTEX
8
0
62
30
10
0.1512348
20
0.512883
30
0
70
32
0
VERTEX
8
0
62
30
10
0.17951907
20
0.512883
30
0
70
32
0
SEQEND
8
0
0
POLYLINE
8
0
62
30
66
1
10
0
20
0
30
0
70
8
0
VERTEX
8
0
62
30
10
0.17951907
20
0.512883
30
0
70
32
0
VERTEX
8
0
62
30
10
0.17951907
20
0.512883
30
0
70
32
0
SEQEND
8
0
0
POLYLINE
8
0
62
30
66
1
10
0
20
0
30
0
70
8
0
VERTEX
8
0
62
30
10
0.17951907
20
0.512883
30
0
70
32
0
VERTEX
8
0
62
30
10
0.20780334
20
0.50872576
30
0
70
32
0
SEQEND
8
0
0
POLYLINE
8
0
62
30
66
1
10
0
20
0
30
0
70
8
0
VERTEX
8
0
62
30
10
0.20780334
20
0.50872576
30
0
70
32
0
VERTEX
8
0
62
30
10
0.20780334
20
0.512883
30
0
70
32
0
SEQEND
8
0
0
POLYLINE
8
0
62
5
66
1
10
0
20
0
30
0
70
8
0
VERTEX
8
0
62
5
10
0.1512348
20
0.45645893
30
0
70
32
0
VERTEX
8
0
62
5
10
0.1512348
20
0.46177453
30
0
70
32
0
SEQEND
8
0
0
POLYLINE
8
0
62
5
66
1
10
0
20
0
30
0
70
8
0
VERTEX
8
0
62
5
10
0.17951907
20
0.45645893
30
0
70
32
0
VERTEX
8
0
62
5
10
0.17951907
20
0.47526695
30
0
70
32
0
SEQEND
8
0
0
POLYLINE
8
0
62
5
66
1
10
0
20
0
30
0
70
8
0
VERTEX
8
0
62
5
10
0.20780334
20
0.45645893
30
0
70
32
0
VERTEX
8
0
62
5
10
0.20780334
20
0.47110971
30
0
70
32
0
SEQEND
8
0
0
POLYLINE
8
0
62
5
66
1
10
0
20
0
30
0
70
8
0
VERTEX
8
0
62
5
10
0.1512348
20
0.49407498
30
0
70
32
0
VERTEX
8
0
62
5
10
0.1512348
20
0.49939057
30
0
70
32
0
SEQEND
8
0
0
POLYLINE
8
0
62
5
66
1
10
0
20
0
30
0
70
8
0
VERTEX
8
0
62
5
10
0.17951907
20
0.49407498
30
0
70
32
0
VERTEX
8
0
62
5
10
0.17951907
20
0.512883
30
0
70
32
0
SEQEND
8
0
0
POLYLINE
8
0
62
5
66
1
10
0
20
0
30
0
70
8
0
VERTEX
8
0
62
5
10
0.20780334
20
0.49407498
30
0
70
32
0
VERTEX
8
0
62
5
10
0.20780334
20
0.50872576
30
0
70
32
0
SEQEND
8
0
0
POLYLINE
8
0
62
5
66
1
10
0
20
0
30
0
70
8
0
VERTEX
8
0
62
5
10
0.1512348
20
0.47526695
30
0
70
32
0
VERTEX
8
0
62
5
10
0.1512348
20
0.49407498
30
0
70
32
0
SEQEND
8
0
0
POLYLINE
8
0
62
5
66
1
10
0
20
0
30
0
70
8
0
VERTEX
8
0
62
5
10
0.17951907
20
0.47526695
30
0
70
32
0
VERTEX
8
0
62
5
10
0.17951907
20
0.49407498
30
0
70
32
0
SEQEND
8
0
0
POLYLINE
8
0
62
5
66
1
10
0
20
0
30
0
70
8
0
VERTEX
8
0
62
5
10
0.20780334
20
0.47526695
30
0
70
32
0
VERTEX
8
0
62
5
10
0.20780334
20
0.49407498
30
0
70
32
0
SEQEND
8
0
0
POLYLINE
8
0
62
5
66
1
10
0
20
0
30
0
70
8
0
VERTEX
8
0
62
5
10
0.1512348
20
0.512883
30
0
70
32
0
VERTEX
8
0
62
5
10
0.1512348
20
0.53169103
30
0
70
32
0
SEQEND
8
0
0
POLYLINE
8
0
62
5
66
1
10
0
20
0
30
0
70
8
0
VERTEX
8
0
62
5
10
0.17951907
20
0.512883
30
0
70
32
0
VERTEX
8
0
62
5
10
0.17951907
20
0.53169103
30
0
70
32
0
SEQEND
8
0
0
POLYLINE
8
0
62
5
66
1
10
0
20
0
30
0
70
8
0
VERTEX
8
0
62
5
10
0.20780334
20
0.512883
30
0
70
32
0
VERTEX
8
0
62
5
10
0.20780334
20
0.53169103
30
0
70
32
0
SEQEND
8
0
0
POLYLINE
8
0
62
5
66
1
10
0
20
0
30
0
70
8
0
VERTEX
8
0
62
5
10
-0.10332364
20
0.45645893
30
0
70
32
0
VERTEX
8
0
62
5
10
-0.10332364
20
0.53169103
30
0
70
32
0
SEQEND
8
0
0
POLYLINE
8
0
62
5
66
1
10
0
20
0
30
0
70
8
0
VERTEX
8
0
62
5
10
-0.10332364
20
0.45761729
30
0
70
32
0
VERTEX
8
0
62
5
10
-0.075039372
20
0.46177453
30
0
70
32
0
VERTEX
8
0
62
5
10
-0.0467551
20
0.47526695
30
0
70
32
0
VERTEX
8
0
62
5
10
-0.018470829
20
0.47110971
30
0
70
32
0
VERTEX
8
0
62
5
10
0.0098134421
20
0.45761729
30
0
70
32
0
SEQEND
8
0
0
POLYLINE
8
0
62
5
66
1
10
0
20
0
30
0
70
8
0
VERTEX
8
0
62
5
10
-0.10332364
20
0.49523334
30
0
70
32
0
VERTEX
8
0
62
5
10
-0.075039372
20
0.49939057
30
0
70
32
0
VERTEX
8
0
62
5
10
-0.0467551
20
0.512883
30
0
70
32
0
VERTEX
8
0
62
5
10
-0.018470829
20
0.50872576
30
0
70
32
0
VERTEX
8
0
62
5
10
0.0098134421
20
0.49523334
30
0
70
32
0
SEQEND
8
0
0
POLYLINE
8
0
62
5
66
1
10
0
20
0
30
0
70
8
0
VERTEX
8
0
62
5
10
-0.10332364
20
0.49291662
30
0
70
32
0
VERTEX
8
0
62
5
10
-0.075039372
20
0.48875938
30
0
70
32
0
VERTEX
8
0
62
5
10
-0.0467551
20
0.47526695
30
0
70
32
0
VERTEX
8
0
62
5
10
-0.018470829
20
0.47942419
30
0
70
32
0
VERTEX
8
0
62
5
10
0.0098134421
20
0.49291662
30
0
70
32
0
SEQEND
8
0
0
POLYLINE
8
0
62
5
66
1
10
0
20
0
30
0
70
8
0
VERTEX
8
0
62
5
10
-0.10332364
20
0.53053267
30
0
70
32
0
VERTEX
8
0
62
5
10
-0.075039372
20
0.52637543
30
0
70
32
0
VERTEX
8
0
62
5
10
-0.0467551
20
0.512883
30
0
70
32
0
VERTEX
8
0
62
5
10
-0.018470829
20
0.51704024
30
0
70
32
0
VERTEX
8
0
62
5
10
0.0098134421
20
0.53053267
30
0
70
32
0
SEQEND
8
0
0
POLYLINE
8
0
62
30
66
1
10
0
20
0
30
0
70
8
0
VERTEX
8
0
62
30
10
-0.10332364
20
0.47526695
30
0
70
32
0
VERTEX
8
0
62
30
10
0.0098134421
20
0.47526695
30
0
70
32
0
SEQEND
8
0
0
POLYLINE
8
0
62
30
66
1
10
0
20
0
30
0
70
8
0
VERTEX
8
0
62
30
10
-0.10332364
20
0.512883
30
0
70
32
0
VERTEX
8
0
62
30
10
0.0098134421
20
0.512883
30
0
70
32
0
SEQEND
8
0
0
POLYLINE
8
0
62
30
66
1
10
0
20
0
30
0
70
8
0
VERTEX
8
0
62
30
10
-0.075039372
20
0.46177453
30
0
70
32
0
VERTEX
8
0
62
30
10
-0.075039372
20
0.47526695
30
0
70
32
0
SEQEND
8
0
0
POLYLINE
8
0
62
30
66
1
10
0
20
0
30
0
70
8
0
VERTEX
8
0
62
30
10
-0.0467551
20
0.47526695
30
0
70
32
0
VERTEX
8
0
62
30
10
-0.0467551
20
0.47526695
30
0
70
32
0
SEQEND
8
0
0
POLYLINE
8
0
62
30
66
1
10
0
20
0
30
0
70
8
0
VERTEX
8
0
62
30
10
-0.018470829
20
0.47110971
30
0
70
32
0
VERTEX
8
0
62
30
10
-0.018470829
20
0.47526695
30
0
70
32
0
SEQEND
8
0
0
POLYLINE
8
0
62
30
66
1
10
0
20
0
30
0
70
8
0
VERTEX
8
0
62
30
10
-0.075039372
20
0.49939057
30
0
70
32
0
VERTEX
8
0
62
30
10
-0.075039372
20
0.512883
30
0
70
32
0
SEQEND
8
0
0
POLYLINE
8
0
62
30
66
1
10
0
20
0
30
0
70
8
0
VERTEX
8
0
62
30
10
-0.075039372
20
0.512883
30
0
70
32
0
VERTEX
8
0
62
30
10
-0.0467551
20
0.512883
30
0
70
32
0
SEQEND
8
0
0
POLYLINE
8
0
62
30
66
1
10
0
20
0
30
0
70
8
0
VERTEX
8
0
62
30
10
-0.0467551
20
0.512883
30
0
70
32
0
VERTEX
8
0
62
30
10
-0.0467551
20
0.512883
30
0
70
32
0
SEQEND
8
0
0
POLYLINE
8
0
62
30
66
1
10
0
20
0
30
0
70
8
0
VERTEX
8
0
62
30
10
-0.0467551
20
0.512883
30
0
70
32
0
VERTEX
8
0
62
30
10
-0.018470829
20
0.50872576
30
0
70
32
0
SEQEND
8
0
0
POLYLINE
8
0
62
30
66
1
10
0
20
0
30
0
70
8
0
VERTEX
8
0
62
30
10
-0.018470829
20
0.50872576
30
0
70
32
0
VERTEX
8
0
62
30
10
-0.018470829
20
0.512883
30
0
70
32
0
SEQEND
8
0
0
POLYLINE
8
0
62
5
66
1
10
0
20
0
30
0
70
8
0
VERTEX
8
0
62
5
10
-0.075039372
20
0.45645893
30
0
70
32
0
VERTEX
8
0
62
5
10
-0.075039372
20
0.46177453
30
0
70
32
0
SEQEND
8
0
0
POLYLINE
8
0
62
5
66
1
10
0
20
0
30
0
70
8
0
VERTEX
8
0
62
5
10
-0.0467551
20
0.45645893
30
0
70
32
0
VERTEX
8
0
62
5
10
-0.0467551
20
0.47526695
30
0
70
32
0
SEQEND
8
0
0
POLYLINE
8
0
62
5
66
1
10
0
20
0
30
0
70
8
0
VERTEX
8
0
62
5
10
-0.018470829
20
0.45645893
30
0
70
32
0
VERTEX
8
0
62
5
10
-0.018470829
20
0.47110971
30
0
70
32
0
SEQEND
8
0
0
POLYLINE
8
0
62
5
66
1
10
0
20
0
30
0
70
8
0
VERTEX
8
0
62
5
10
-0.075039372
20
0.49407498
30
0
70
32
0
VERTEX
8
0
62
5
10
-0.075039372
20
0.49939057
30
0
70
32
0
SEQEND
8
0
0
POLYLINE
8
0
62
5
66
1
10
0
20
0
30
0
70
8
0
VERTEX
8
0
62
5
10
-0.0467551
20
0.49407498
30
0
70
32
0
VERTEX
8
0
62
5
10
-0.0467551
20
0.512883
30
0
70
32
0
SEQEND
8
0
0
POLYLINE
8
0
62
5
66
1
10
0
20
0
30
0
70
8
0
VERTEX
8
0
62
5
10
-0.018470829
20
0.49407498
30
0
70
32
0
VERTEX
8
0
62
5
10
-0.018470829
20
0.50872576
30
0
70
32
0
SEQEND
8
0
0
POLYLINE
8
0
62
5
66
1
10
0
20
0
30
0
70
8
0
VERTEX
8
0
62
5
10
-0.075039372
20
0.47526695
30
0
70
32
0
VERTEX
8
0
62
5
10
-0.075039372
20
0.49407498
30
0
70
32
0
SEQEND
8
0
0
POLYLINE
8
0
62
5
66
1
10
0
20
0
30
0
70
8
0
VERTEX
8
0
62
5
10
-0.0467551
20
0.47526695
30
0
70
32
0
VERTEX
8
0
62
5
10
-0.0467551
20
0.49407498
30
0
70
32
0
SEQEND
8
0
0
POLYLINE
8
0
62
5
66
1
10
0
20
0
30
0
70
8
0
VERTEX
8
0
62
5
10
-0.018470829
20
0.47526695
30
0
70
32
0
VERTEX
8
0
62
5
10
-0.018470829
20
0.49407498
30
0
70
32
0
SEQEND
8
0
0
POLYLINE
8
0
62
5
66
1
10
0
20
0
30
0
70
8
0
VERTEX
8
0
62
5
10
-0.075039372
20
0.512883
30
0
70
32
0
VERTEX
8
0
62
5
10
-0.075039372
20
0.53169103
30
0
70
32
0
SEQEND
8
0
0
POLYLINE
8
0
62
5
66
1
10
0
20
0
30
0
70
8
0
VERTEX
8
0
62
5
10
-0.0467551
20
0.512883
30
0
70
32
0
VERTEX
8
0
62
5
10
-0.0467551
20
0.53169103
30
0
70
32
0
SEQEND
8
0
0
POLYLINE
8
0
62
5
66
1
10
0
20
0
30
0
70
8
0
VERTEX
8
0
62
5
10
-0.018470829
20
0.512883
30
0
70
32
0
VERTEX
8
0
62
5
10
-0.018470829
20
0.53169103
30
0
70
32
0
SEQEND
8
0
0
POLYLINE
8
0
62
30
66
1
10
0
20
0
30
0
70
8
0
VERTEX
8
0
62
30
10
0.0098134421
20
0.55524164
30
0
70
32
0
VERTEX
8
0
62
30
10
0.12295053
20
0.55524164
30
0
70
32
0
SEQEND
8
0
0
POLYLINE
8
0
62
30
66
1
10
0
20
0
30
0
70
8
0
VERTEX
8
0
62
30
10
0.0098134421
20
0.53169103
30
0
70
32
0
VERTEX
8
0
62
30
10
0.12295053
20
0.53169103
30
0
70
32
0
SEQEND
8
0
0
POLYLINE
8
0
62
5
66
1
10
0
20
0
30
0
70
8
0
VERTEX
8
0
62
5
10
0.0098134421
20
0.53169103
30
0
70
32
0
VERTEX
8
0
62
5
10
0.032545102
20
0.55524164
30
0
70
32
0
VERTEX
8
0
62
5
10
0.038097713
20
0.53169103
30
0
70
32
0
VERTEX
8
0
62
5
10
0.060829373
20
0.55524164
30
0
70
32
0
VERTEX
8
0
62
5
10
0.066381985
20
0.53169103
30
0
70
32
0
VERTEX
8
0
62
5
10
0.089113644
20
0.55524164
30
0
70
32
0
VERTEX
8
0
62
5
10
0.094666256
20
0.53169103
30
0
70
32
0
VERTEX
8
0
62
5
10
0.11739792
20
0.55524164
30
0
70
32
0
VERTEX
8
0
62
5
10
0.12295053
20
0.53169103
30
0
70
32
0
SEQEND
8
0
0
POLYLINE
8
0
62
5
66
1
10
0
20
0
30
0
70
8
0
VERTEX
8
0
62
5
10
0.038097713
20
0.53169103
30
0
70
32
0
VERTEX
8
0
62
5
10
0.038097713
20
0.53169103
30
0
70
32
0
SEQEND
8
0
0
POLYLINE
8
0
62
5
66
1
10
0
20
0
30
0
70
8
0
VERTEX
8
0
62
5
10
0.066381985
20
0.53169103
30
0
70
32
0
VERTEX
8
0
62
5
10
0.066381985
20
0.53169103
30
0
70
32
0
SEQEND
8
0
0
POLYLINE
8
0
62
5
66
1
10
0
20
0
30
0
70
8
0
VERTEX
8
0
62
5
10
0.094666256
20
0.53169103
30
0
70
32
0
VERTEX
8
0
62
5
10
0.094666256
20
0.53169103
30
0
70
32
0
SEQEND
8
0
0
POLYLINE
8
0
62
5
66
1
10
0
20
0
30
0
70
8
0
VERTEX
8
0
62
5
10
0.032545102
20
0.55524164
30
0
70
32
0
VERTEX
8
0
62
5
10
0.032545102
20
0.55524164
30
0
70
32
0
SEQEND
8
0
0
POLYLINE
8
0
62
5
66
1
10
0
20
0
30
0
70
8
0
VERTEX
8
0
62
5
10
0.060829373
20
0.55524164
30
0
70
32
0
VERTEX
8
0
62
5
10
0.060829373
20
0.55524164
30
0
70
32
0
SEQEND
8
0
0
POLYLINE
8
0
62
5
66
1
10
0
20
0
30
0
70
8
0
VERTEX
8
0
62
5
10
0.089113644
20
0.55524164
30
0
70
32
0
VERTEX
8
0
62
5
10
0.089113644
20
0.55524164
30
0
70
32
0
SEQEND
8
0
0
POLYLINE
8
0
62
5
66
1
10
0
20
0
30
0
70
8
0
VERTEX
8
0
62
5
10
0.11739792
20
0.55524164
30
0
70
32
0
VERTEX
8
0
62
5
10
0.11739792
20
0.55524164
30
0
70
32
0
SEQEND
8
0
0
POLYLINE
8
0
62
30
66
1
10
0
20
0
30
0
70
8
0
VERTEX
8
0
62
30
10
0.12295053
20
0.55524164
30
0
70
32
0
VERTEX
8
0
62
30
10
0.23608761
20
0.55524164
30
0
70
32
0
SEQEND
8
0
0
POLYLINE
8
0
62
30
66
1
10
0
20
0
30
0
70
8
0
VERTEX
8
0
62
30
10
0.12295053
20
0.53169103
30
0
70
32
0
VERTEX
8
0
62
30
10
0.23608761
20
0.53169103
30
0
70
32
0
SEQEND
8
0
0
POLYLINE
8
0
62
5
66
1
10
0
20
0
30
0
70
8
0
VERTEX
8
0
62
5
10
0.12295053
20
0.53169103
30
0
70
32
0
VERTEX
8
0
62
5
10
0.14568219
20
0.55524164
30
0
70
32
0
VERTEX
8
0
62
5
10
0.1512348
20
0.53169103
30
0
70
32
0
VERTEX
8
0
62
5
10
0.17396646
20
0.55524164
30
0
70
32
0
VERTEX
8
0
62
5
10
0.17951907
20
0.53169103
30
0
70
32
0
VERTEX
8
0
62
5
10
0.20225073
20
0.55524164
30
0
70
32
0
VERTEX
8
0
62
5
10
0.20780334
20
0.53169103
30
0
70
32
0
VERTEX
8
0
62
5
10
0.230535
20
0.55524164
30
0
70
32
0
VERTEX
8
0
62
5
10
0.23608761
20
0.53169103
30
0
70
32
0
SEQEND
8
0
0
POLYLINE
8
0
62
5
66
1
10
0
20
0
30
0
70
8
0
VERTEX
8
0
62
5
10
0.1512348
20
0.53169103
30
0
70
32
0
VERTEX
8
0
62
5
10
0.1512348
20
0.53169103
30
0
70
32
0
SEQEND
8
0
0
POLYLINE
8
0
62
5
66
1
10
0
20
0
30
0
70
8
0
VERTEX
8
0
62
5
10
0.17951907
20
0.53169103
30
0
70
32
0
VERTEX
8
0
62
5
10
0.17951907
20
0.53169103
30
0
70
32
0
SEQEND
8
0
0
POLYLINE
8
0
62
5
66
1
10
0
20
0
30
0
70
8
0
VERTEX
8
0
62
5
10
0.20780334
20
0.53169103
30
0
70
32
0
VERTEX
8
0
62
5
10
0.20780334
20
0.53169103
30
0
70
32
0
SEQEND
8
0
0
POLYLINE
8
0
62
5
66
1
10
0
20
0
30
0
70
8
0
VERTEX
8
0
62
5
10
0.14568219
20
0.55524164
30
0
70
32
0
VERTEX
8
0
62
5
10
0.14568219
20
0.55524164
30
0
70
32
0
SEQEND
8
0
0
POLYLINE
8
0
62
5
66
1
10
0
20
0
30
0
70
8
0
VERTEX
8
0
62
5
10
0.17396646
20
0.55524164
30
0
70
32
0
VERTEX
8
0
62
5
10
0.17396646
20
0.55524164
30
0
70
32
0
SEQEND
8
0
0
POLYLINE
8
0
62
5
66
1
10
0
20
0
30
0
70
8
0
VERTEX
8
0
62
5
10
0.20225073
20
0.55524164
30
0
70
32
0
VERTEX
8
0
62
5
10
0.20225073
20
0.55524164
30
0
70
32
0
SEQEND
8
0
0
POLYLINE
8
0
62
5
66
1
10
0
20
0
30
0
70
8
0
VERTEX
8
0
62
5
10
0.230535
20
0.55524164
30
0
70
32
0
VERTEX
8
0
62
5
10
0.230535
20
0.55524164
30
0
70
32
0
SEQEND
8
0
0
POLYLINE
8
0
62
30
66
1
10
0
20
0
30
0
70
8
0
VERTEX
8
0
62
30
10
-0.10332364
20
0.55524164
30
0
70
32
0
VERTEX
8
0
62
30
10
0.0098134421
20
0.55524164
30
0
70
32
0
SEQEND
8
0
0
POLYLINE
8
0
62
30
66
1
10
0
20
0
30
0
70
8
0
VERTEX
8
0
62
30
10
-0.10332364
20
0.53169103
30
0
70
32
0
VERTEX
8
0
62
30
10
0.0098134421
20
0.53169103
30
0
70
32
0
SEQEND
8
0
0
POLYLINE
8
0
62
5
66
1
10
0
20
0
30
0
70
8
0
VERTEX
8
0
62
5
10
-0.10332364
20
0.53169103
30
0
70
32
0
VERTEX
8
0
62
5
10
-0.080591983
20
0.55524164
30
0
70
32
0
VERTEX
8
0
62
5
10
-0.075039372
20
0.53169103
30
0
70
32
0
VERTEX
8
0
62
5
10
-0.052307712
20
0.55524164
30
0
70
32
0
VERTEX
8
0
62
5
10
-0.0467551
20
0.53169103
30
0
70
32
0
VERTEX
8
0
62
5
10
-0.024023441
20
0.55524164
30
0
70
32
0
VERTEX
8
0
62
5
10
-0.018470829
20
0.53169103
30
0
70
32
0
VERTEX
8
0
62
5
10
0.0042608307
20
0.55524164
30
0
70
32
0
VERTEX
8
0
62
5
10
0.0098134421
20
0.53169103
30
0
70
32
0
SEQEND
8
0
0
POLYLINE
8
0
62
5
66
1
10
0
20
0
30
0
70
8
0
VERTEX
8
0
62
5
10
-0.075039372
20
0.53169103
30
0
70
32
0
VERTEX
8
0
62
5
10
-0.075039372
20
0.53169103
30
0
70
32
0
SEQEND
8
0
0
POLYLINE
8
0
62
5
66
1
10
0
20
0
30
0
70
8
0
VERTEX
8
0
62
5
10
-0.0467551
20
0.53169103
30
0
70
32
0
VERTEX
8
0
62
5
10
-0.0467551
20
0.53169103
30
0
70
32
0
SEQEND
8
0
0
POLYLINE
8
0
62
5
66
1
10
0
20
0
30
0
70
8
0
VERTEX
8
0
62
5
10
-0.018470829
20
0.53169103
30
0
70
32
0
VERTEX
8
0
62
5
10
-0.018470829
20
0.53169103
30
0
70
32
0
SEQEND
8
0
0
POLYLINE
8
0
62
5
66
1
10
0
20
0
30
0
70
8
0
VERTEX
8
0
62
5
10
-0.080591983
20
0.55524164
30
0
70
32
0
VERTEX
8
0
62
5
10
-0.080591983
20
0.55524164
30
0
70
32
0
SEQEND
8
0
0
POLYLINE
8
0
62
5
66
1
10
0
20
0
30
0
70
8
0
VERTEX
8
0
62
5
10
-0.052307712
20
0.55524164
30
0
70
32
0
VERTEX
8
0
62
5
10
-0.052307712
20
0.55524164
30
0
70
32
0
SEQEND
8
0
0
POLYLINE
8
0
62
5
66
1
10
0
20
0
30
0
70
8
0
VERTEX
8
0
62
5
10
-0.024023441
20
0.55524164
30
0
70
32
0
VERTEX
8
0
62
5
10
-0.024023441
20
0.55524164
30
0
70
32
0
SEQEND
8
0
0
POLYLINE
8
0
62
5
66
1
10
0
20
0
30
0
70
8
0
VERTEX
8
0
62
5
10
0.0042608307
20
0.55524164
30
0
70
32
0
VERTEX
8
0
62
5
10
0.0042608307
20
0.55524164
30
0
70
32
0
SEQEND
8
0
0
POLYLINE
8
0
62
5
66
1
10
0
20
0
30
0
70
8
0
VERTEX
8
0
62
5
10
0.032545102
20
0.55524164
30
0
70
32
0
VERTEX
8
0
62
5
10
0.032545102
20
0.64813033
30
0
70
32
0
SEQEND
8
0
0
POLYLINE
8
0
62
5
66
1
10
0
20
0
30
0
70
8
0
VERTEX
8
0
62
5
10
0.14568219
20
0.55524164
30
0
70
32
0
VERTEX
8
0
62
5
10
0.14568219
20
0.64813033
30
0
70
32
0
SEQEND
8
0
0
POLYLINE
8
0
62
5
66
1
10
0
20
0
30
0
70
8
0
VERTEX
8
0
62
5
10
0.060829373
20
0.55524164
30
0
70
32
0
VERTEX
8
0
62
5
10
0.060829373
20
0.64813033
30
0
70
32
0
SEQEND
8
0
0
POLYLINE
8
0
62
5
66
1
10
0
20
0
30
0
70
8
0
VERTEX
8
0
62
5
10
0.089113644
20
0.55524164
30
0
70
32
0
VERTEX
8
0
62
5
10
0.089113644
20
0.64813033
30
0
70
32
0
SEQEND
8
0
0
POLYLINE
8
0
62
5
66
1
10
0
20
0
30
0
70
8
0
VERTEX
8
0
62
5
10
0.11739792
20
0.55524164
30
0
70
32
0
VERTEX
8
0
62
5
10
0.11739792
20
0.64813033
30
0
70
32
0
SEQEND
8
0
0
POLYLINE
8
0
62
5
66
1
10
0
20
0
30
0
70
8
0
VERTEX
8
0
62
5
10
0.25881927
20
0.55524164
30
0
70
32
0
VERTEX
8
0
62
5
10
0.25881927
20
0.64813033
30
0
70
32
0
SEQEND
8
0
0
POLYLINE
8
0
62
5
66
1
10
0
20
0
30
0
70
8
0
VERTEX
8
0
62
5
10
0.17396646
20
0.55524164
30
0
70
32
0
VERTEX
8
0
62
5
10
0.17396646
20
0.64813033
30
0
70
32
0
SEQEND
8
0
0
POLYLINE
8
0
62
5
66
1
10
0
20
0
30
0
70
8
0
VERTEX
8
0
62
5
10
0.20225073
20
0.55524164
30
0
70
32
0
VERTEX
8
0
62
5
10
0.20225073
20
0.64813033
30
0
70
32
0
SEQEND
8
0
0
POLYLINE
8
0
62
5
66
1
10
0
20
0
30
0
70
8
0
VERTEX
8
0
62
5
10
0.230535
20
0.55524164
30
0
70
32
0
VERTEX
8
0
62
5
10
0.230535
20
0.64813033
30
0
70
32
0
SEQEND
8
0
0
POLYLINE
8
0
62
5
66
1
10
0
20
0
30
0
70
8
0
VERTEX
8
0
62
5
10
-0.080591983
20
0.55524164
30
0
70
32
0
VERTEX
8
0
62
5
10
-0.080591983
20
0.64813033
30
0
70
32
0
SEQEND
8
0
0
POLYLINE
8
0
62
5
66
1
10
0
20
0
30
0
70
8
0
VERTEX
8
0
62
5
10
-0.052307712
20
0.55524164
30
0
70
32
0
VERTEX
8
0
62
5
10
-0.052307712
20
0.64813033
30
0
70
32
0
SEQEND
8
0
0
POLYLINE
8
0
62
5
66
1
10
0
20
0
30
0
70
8
0
VERTEX
8
0
62
5
10
-0.024023441
20
0.55524164
30
0
70
32
0
VERTEX
8
0
62
5
10
-0.024023441
20
0.64813033
30
0
70
32
0
SEQEND
8
0
0
POLYLINE
8
0
62
5
66
1
10
0
20
0
30
0
70
8
0
VERTEX
8
0
62
5
10
0.0042608307
20
0.55524164
30
0
70
32
0
VERTEX
8
0
62
5
10
0.0042608307
20
0.64813033
30
0
70
32
0
SEQEND
8
0
0
POLYLINE
8
0
62
5
66
1
10
0
20
0
30
0
70
8
0
VERTEX
8
0
62
5
10
0.032545102
20
0.64813033
30
0
70
32
0
VERTEX
8
0
62
5
10
0.032545102
20
0.66465504
30
0
70
32
0
SEQEND
8
0
0
POLYLINE
8
0
62
5
66
1
10
0
20
0
30
0
70
8
0
VERTEX
8
0
62
5
10
0.14568219
20
0.66465504
30
0
70
32
0
VERTEX
8
0
62
5
10
0.14568219
20
0.64813033
30
0
70
32
0
SEQEND
8
0
0
POLYLINE
8
0
62
5
66
1
10
0
20
0
30
0
70
8
0
VERTEX
8
0
62
5
10
0.032545102
20
0.65222118
30
0
70
32
0
VERTEX
8
0
62
5
10
0.060829373
20
0.64813053
30
0
70
32
0
VERTEX
8
0
62
5
10
0.089113644
20
0.65230203
30
0
70
32
0
VERTEX
8
0
62
5
10
0.11739792
20
0.65639268
30
0
70
32
0
VERTEX
8
0
62
5
10
0.14568219
20
0.65222118
30
0
70
32
0
SEQEND
8
0
0
POLYLINE
8
0
62
5
66
1
10
0
20
0
30
0
70
8
0
SEQEND
8
0
0
POLYLINE
8
0
62
5
66
1
10
0
20
0
30
0
70
8
0
VERTEX
8
0
62
5
10
0.032545102
20
0.66056418
30
0
70
32
0
VERTEX
8
0
62
5
10
0.060829373
20
0.66465484
30
0
70
32
0
VERTEX
8
0
62
5
10
0.089113644
20
0.66048334
30
0
70
32
0
VERTEX
8
0
62
5
10
0.11739792
20
0.65639268
30
0
70
32
0
VERTEX
8
0
62
5
10
0.14568219
20
0.66056418
30
0
70
32
0
SEQEND
8
0
0
POLYLINE
8
0
62
30
66
1
10
0
20
0
30
0
70
8
0
VERTEX
8
0
62
30
10
0.032545102
20
0.65639268
30
0
70
32
0
VERTEX
8
0
62
30
10
0.14568219
20
0.65639268
30
0
70
32
0
SEQEND
8
0
0
POLYLINE
8
0
62
30
66
1
10
0
20
0
30
0
70
8
0
VERTEX
8
0
62
30
10
0.060829373
20
0.64813053
30
0
70
32
0
VERTEX
8
0
62
30
10
0.060829373
20
0.65639268
30
0
70
32
0
SEQEND
8
0
0
POLYLINE
8
0
62
30
66
1
10
0
20
0
30
0
70
8
0
VERTEX
8
0
62
30
10
0.089113644
20
0.65230203
30
0
70
32
0
VERTEX
8
0
62
30
10
0.089113644
20
0.65639268
30
0
70
32
0
SEQEND
8
0
0
POLYLINE
8
0
62
30
66
1
10
0
20
0
30
0
70
8
0
VERTEX
8
0
62
30
10
0.11739792
20
0.65639268
30
0
70
32
0
VERTEX
8
0
62
30
10
0.11739792
20
0.65639268
30
0
70
32
0
SEQEND
8
0
0
POLYLINE
8
0
62
5
66
1
10
0
20
0
30
0
70
8
0
VERTEX
8
0
62
5
10
0.060829373
20
0.64813033
30
0
70
32
0
VERTEX
8
0
62
5
10
0.060829373
20
0.64813053
30
0
70
32
0
SEQEND
8
0
0
POLYLINE
8
0
62
5
66
1
10
0
20
0
30
0
70
8
0
VERTEX
8
0
62
5
10
0.089113644
20
0.64813033
30
0
70
32
0
VERTEX
8
0
62
5
10
0.089113644
20
0.65230203
30
0
70
32
0
SEQEND
8
0
0
POLYLINE
8
0
62
5
66
1
10
0
20
0
30
0
70
8
0
VERTEX
8
0
62
5
10
0.11739792
20
0.64813033
30
0
70
32
0
VERTEX
8
0
62
5
10
0.11739792
20
0.65639268
30
0
70
32
0
SEQEND
8
0
0
POLYLINE
8
0
62
5
66
1
10
0
20
0
30
0
70
8
0
VERTEX
8
0
62
5
10
0.060829373
20
0.65639268
30
0
70
32
0
VERTEX
8
0
62
5
10
0.060829373
20
0.66465504
30
0
70
32
0
SEQEND
8
0
0
POLYLINE
8
0
62
5
66
1
10
0
20
0
30
0
70
8
0
VERTEX
8
0
62
5
10
0.089113644
20
0.65639268
30
0
70
32
0
VERTEX
8
0
62
5
10
0.089113644
20
0.66465504
30
0
70
32
0
SEQEND
8
0
0
POLYLINE
8
0
62
5
66
1
10
0
20
0
30
0
70
8
0
VERTEX
8
0
62
5
10
0.11739792
20
0.65639268
30
0
70
32
0
VERTEX
8
0
62
5
10
0.11739792
20
0.66465504
30
0
70
32
0
SEQEND
8
0
0
POLYLINE
8
0
62
5
66
1
10
0
20
0
30
0
70
8
0
VERTEX
8
0
62
5
10
0.25881927
20
0.66465504
30
0
70
32
0
VERTEX
8
0
62
5
10
0.25881927
20
0.64813033
30
0
70
32
0
SEQEND
8
0
0
POLYLINE
8
0
62
5
66
1
10
0
20
0
30
0
70
8
0
VERTEX
8
0
62
5
10
0.14568219
20
0.65222118
30
0
70
32
0
VERTEX
8
0
62
5
10
0.17396646
20
0.64813053
30
0
70
32
0
VERTEX
8
0
62
5
10
0.20225073
20
0.65230203
30
0
70
32
0
VERTEX
8
0
62
5
10
0.230535
20
0.65639268
30
0
70
32
0
VERTEX
8
0
62
5
10
0.25881927
20
0.65222118
30
0
70
32
0
SEQEND
8
0
0
POLYLINE
8
0
62
5
66
1
10
0
20
0
30
0
70
8
0
SEQEND
8
0
0
POLYLINE
8
0
62
5
66
1
10
0
20
0
30
0
70
8
0
VERTEX
8
0
62
5
10
0.14568219
20
0.66056418
30
0
70
32
0
VERTEX
8
0
62
5
10
0.17396646
20
0.66465484
30
0
70
32
0
VERTEX
8
0
62
5
10
0.20225073
20
0.66048334
30
0
70
32
0
VERTEX
8
0
62
5
10
0.230535
20
0.65639268
30
0
70
32
0
VERTEX
8
0
62
5
10
0.25881927
20
0.66056418
30
0
70
32
0
SEQEND
8
0
0
POLYLINE
8
0
62
30
66
1
10
0
20
0
30
0
70
8
0
VERTEX
8
0
62
30
10
0.14568219
20
0.65639268
30
0
70
32
0
VERTEX
8
0
62
30
10
0.25881927
20
0.65639268
30
0
70
32
0
SEQEND
8
0
0
POLYLINE
8
0
62
30
66
1
10
0
20
0
30
0
70
8
0
VERTEX
8
0
62
30
10
0.17396646
20
0.64813053
30
0
70
32
0
VERTEX
8
0
62
30
10
0.17396646
20
0.65639268
30
0
70
32
0
SEQEND
8
0
0
POLYLINE
8
0
62
30
66
1
10
0
20
0
30
0
70
8
0
VERTEX
8
0
62
30
10
0.20225073
20
0.65230203
30
0
70
32
0
VERTEX
8
0
62
30
10
0.20225073
20
0.65639268
30
0
70
32
0
SEQEND
8
0
0
POLYLINE
8
0
62
30
66
1
10
0
20
0
30
0
70
8
0
VERTEX
8
0
62
30
10
0.230535
20
0.65639268
30
0
70
32
0
VERTEX
8
0
62
30
10
0.230535
20
0.65639268
30
0
70
32
0
SEQEND
8
0
0
POLYLINE
8
0
62
5
66
1
10
0
20
0
30
0
70
8
0
VERTEX
8
0
62
5
10
0.17396646
20
0.64813033
30
0
70
32
0
VERTEX
8
0
62
5
10
0.17396646
20
0.64813053
30
0
70
32
0
SEQEND
8
0
0
POLYLINE
8
0
62
5
66
1
10
0
20
0
30
0
70
8
0
VERTEX
8
0
62
5
10
0.20225073
20
0.64813033
30
0
70
32
0
VERTEX
8
0
62
5
10
0.20225073
20
0.65230203
30
0
70
32
0
SEQEND
8
0
0
POLYLINE
8
0
62
5
66
1
10
0
20
0
30
0
70
8
0
VERTEX
8
0
62
5
10
0.230535
20
0.64813033
30
0
70
32
0
VERTEX
8
0
62
5
10
0.230535
20
0.65639268
30
0
70
32
0
SEQEND
8
0
0
POLYLINE
8
0
62
5
66
1
10
0
20
0
30
0
70
8
0
VERTEX
8
0
62
5
10
0.17396646
20
0.65639268
30
0
70
32
0
VERTEX
8
0
62
5
10
0.17396646
20
0.66465504
30
0
70
32
0
SEQEND
8
0
0
POLYLINE
8
0
62
5
66
1
10
0
20
0
30
0
70
8
0
VERTEX
8
0
62
5
10
0.20225073
20
0.65639268
30
0
70
32
0
VERTEX
8
0
62
5
10
0.20225073
20
0.66465504
30
0
70
32
0
SEQEND
8
0
0
POLYLINE
8
0
62
5
66
1
10
0
20
0
30
0
70
8
0
VERTEX
8
0
62
5
10
0.230535
20
0.65639268
30
0
70
32
0
VERTEX
8
0
62
5
10
0.230535
20
0.66465504
30
0
70
32
0
SEQEND
8
0
0
POLYLINE
8
0
62
5
66
1
10
0
20
0
30
0
70
8
0
VERTEX
8
0
62
5
10
-0.080591983
20
0.64813033
30
0
70
32
0
VERTEX
8
0
62
5
10
-0.080591983
20
0.66465504
30
0
70
32
0
SEQEND
8
0
0
POLYLINE
8
0
62
5
66
1
10
0
20
0
30
0
70
8
0
VERTEX
8
0
62
5
10
-0.080591983
20
0.65222118
30
0
70
32
0
VERTEX
8
0
62
5
10
-0.052307712
20
0.64813053
30
0
70
32
0
VERTEX
8
0
62
5
10
-0.024023441
20
0.65230203
30
0
70
32
0
VERTEX
8
0
62
5
10
0.0042608307
20
0.65639268
30
0
70
32
0
VERTEX
8
0
62
5
10
0.032545102
20
0.65222118
30
0
70
32
0
SEQEND
8
0
0
POLYLINE
8
0
62
5
66
1
10
0
20
0
30
0
70
8
0
SEQEND
8
0
0
POLYLINE
8
0
62
5
66
1
10
0
20
0
30
0
70
8
0
VERTEX
8
0
62
5
10
-0.080591983
20
0.66056418
30
0
70
32
0
VERTEX
8
0
62
5
10
-0.052307712
20
0.66465484
30
0
70
32
0
VERTEX
8
0
62
5
10
-0.024023441
20
0.66048334
30
0
70
32
0
VERTEX
8
0
62
5
10
0.0042608307
20
0.65639268
30
0
70
32
0
VERTEX
8
0
62
5
10
0.032545102
20
0.66056418
30
0
70
32
0
SEQEND
8
0
0
POLYLINE
8
0
62
30
66
1
10
0
20
0
30
0
70
8
0
VERTEX
8
0
62
30
10
-0.080591983
20
0.65639268
30
0
70
32
0
VERTEX
8
0
62
30
10
0.032545102
20
0.65639268
30
0
70
32
0
SEQEND
8
0
0
POLYLINE
8
0
62
30
66
1
10
0
20
0
30
0
70
8
0
VERTEX
8
0
62
30
10
-0.052307712
20
0.64813053
30
0
70
32
0
VERTEX
8
0
62
30
10
-0.052307712
20
0.65639268
30
0
70
32
0
SEQEND
8
0
0
POLYLINE
8
0
62
30
66
1
10
0
20
0
30
0
70
8
0
VERTEX
8
0
62
30
10
-0.024023441
20
0.65230203
30
0
70
32
0
VERTEX
8
0
62
30
10
-0.024023441
20
0.65639268
30
0
70
32
0
SEQEND
8
0
0
POLYLINE
8
0
62
30
66
1
10
0
20
0
30
0
70
8
0
VERTEX
8
0
62
30
10
0.0042608307
20
0.65639268
30
0
70
32
0
VERTEX
8
0
62
30
10
0.0042608307
20
0.65639268
30
0
70
32
0
SEQEND
8
0
0
POLYLINE
8
0
62
5
66
1
10
0
20
0
30
0
70
8
0
VERTEX
8
0
62
5
10
-0.052307712
20
0.64813033
30
0
70
32
0
VERTEX
8
0
62
5
10
-0.052307712
20
0.64813053
30
0
70
32
0
SEQEND
8
0
0
POLYLINE
8
0
62
5
66
1
10
0
20
0
30
0
70
8
0
VERTEX
8
0
62
5
10
-0.024023441
20
0.64813033
30
0
70
32
0
VERTEX
8
0
62
5
10
-0.024023441
20
0.65230203
30
0
70
32
0
SEQEND
8
0
0
POLYLINE
8
0
62
5
66
1
10
0
20
0
30
0
70
8
0
VERTEX
8
0
62
5
10
0.0042608307
20
0.64813033
30
0
70
32
0
VERTEX
8
0
62
5
10
0.0042608307
20
0.65639268
30
0
70
32
0
SEQEND
8
0
0
POLYLINE
8
0
62
5
66
1
10
0
20
0
30
0
70
8
0
VERTEX
8
0
62
5
10
-0.052307712
20
0.65639268
30
0
70
32
0
VERTEX
8
0
62
5
10
-0.052307712
20
0.66465504
30
0
70
32
0
SEQEND
8
0
0
POLYLINE
8
0
62
5
66
1
10
0
20
0
30
0
70
8
0
VERTEX
8
0
62
5
10
-0.024023441
20
0.65639268
30
0
70
32
0
VERTEX
8
0
62
5
10
-0.024023441
20
0.66465504
30
0
70
32
0
SEQEND
8
0
0
POLYLINE
8
0
62
5
66
1
10
0
20
0
30
0
70
8
0
VERTEX
8
0
62
5
10
0.0042608307
20
0.65639268
30
0
70
32
0
VERTEX
8
0
62
5
10
0.0042608307
20
0.66465504
30
0
70
32
0
SEQEND
8
0
0
POLYLINE
8
0
62
5
66
1
10
0
20
0
30
0
70
8
0
VERTEX
8
0
62
5
10
0.032545102
20
0.66465504
30
0
70
32
0
VERTEX
8
0
62
5
10
0.032545102
20
0.70465504
30
0
70
32
0
SEQEND
8
0
0
POLYLINE
8
0
62
5
66
1
10
0
20
0
30
0
70
8
0
VERTEX
8
0
62
5
10
0.14568219
20
0.70465504
30
0
70
32
0
VERTEX
8
0
62
5
10
0.14568219
20
0.66465504
30
0
70
32
0
SEQEND
8
0
0
POLYLINE
8
0
62
5
66
1
10
0
20
0
30
0
70
8
0
VERTEX
8
0
62
5
10
0.032545102
20
0.66465504
30
0
70
32
0
VERTEX
8
0
62
5
10
0.14568219
20
0.66465504
30
0
70
32
0
SEQEND
8
0
0
POLYLINE
8
0
62
5
66
1
10
0
20
0
30
0
70
8
0
VERTEX
8
0
62
5
10
0.032545102
20
0.70465504
30
0
70
32
0
VERTEX
8
0
62
5
10
0.14568219
20
0.70465504
30
0
70
32
0
SEQEND
8
0
0
POLYLINE
8
0
62
5
66
1
10
0
20
0
30
0
70
8
0
VERTEX
8
0
62
5
10
0.060829373
20
0.66465504
30
0
70
32
0
VERTEX
8
0
62
5
10
0.060829373
20
0.66465504
30
0
70
32
0
SEQEND
8
0
0
POLYLINE
8
0
62
5
66
1
10
0
20
0
30
0
70
8
0
VERTEX
8
0
62
5
10
0.089113644
20
0.66465504
30
0
70
32
0
VERTEX
8
0
62
5
10
0.089113644
20
0.66465504
30
0
70
32
0
SEQEND
8
0
0
POLYLINE
8
0
62
5
66
1
10
0
20
0
30
0
70
8
0
VERTEX
8
0
62
5
10
0.11739792
20
0.66465504
30
0
70
32
0
VERTEX
8
0
62
5
10
0.11739792
20
0.66465504
30
0
70
32
0
SEQEND
8
0
0
POLYLINE
8
0
62
5
66
1
10
0
20
0
30
0
70
8
0
VERTEX
8
0
62
5
10
0.060829373
20
0.70465504
30
0
70
32
0
VERTEX
8
0
62
5
10
0.060829373
20
0.70465504
30
0
70
32
0
SEQEND
8
0
0
POLYLINE
8
0
62
5
66
1
10
0
20
0
30
0
70
8
0
VERTEX
8
0
62
5
10
0.089113644
20
0.70465504
30
0
70
32
0
VERTEX
8
0
62
5
10
0.089113644
20
0.70465504
30
0
70
32
0
SEQEND
8
0
0
POLYLINE
8
0
62
5
66
1
10
0
20
0
30
0
70
8
0
VERTEX
8
0
62
5
10
0.11739792
20
0.70465504
30
0
70
32
0
VERTEX
8
0
62
5
10
0.11739792
20
0.70465504
30
0
70
32
0
SEQEND
8
0
0
POLYLINE
8
0
62
30
66
1
10
0
20
0
30
0
70
8
0
VERTEX
8
0
62
30
10
0.032545102
20
0.70465504
30
0
70
32
0
VERTEX
8
0
62
30
10
0.060829373
20
0.66465504
30
0
70
32
0
SEQEND
8
0
0
POLYLINE
8
0
62
30
66
1
10
0
20
0
30
0
70
8
0
VERTEX
8
0
62
30
10
0.060829373
20
0.70465504
30
0
70
32
0
VERTEX
8
0
62
30
10
0.032545102
20
0.66465504
30
0
70
32
0
SEQEND
8
0
0
POLYLINE
8
0
62
30
66
1
10
0
20
0
30
0
70
8
0
VERTEX
8
0
62
30
10
0.089113644
20
0.70465504
30
0
70
32
0
VERTEX
8
0
62
30
10
0.11739792
20
0.66465504
30
0
70
32
0
SEQEND
8
0
0
POLYLINE
8
0
62
30
66
1
10
0
20
0
30
0
70
8
0
VERTEX
8
0
62
30
10
0.11739792
20
0.70465504
30
0
70
32
0
VERTEX
8
0
62
30
10
0.089113644
20
0.66465504
30
0
70
32
0
SEQEND
8
0
0
POLYLINE
8
0
62
30
66
1
10
0
20
0
30
0
70
8
0
VERTEX
8
0
62
30
10
0.060829373
20
0.68465504
30
0
70
32
0
VERTEX
8
0
62
30
10
0.089113644
20
0.68465504
30
0
70
32
0
SEQEND
8
0
0
POLYLINE
8
0
62
30
66
1
10
0
20
0
30
0
70
8
0
VERTEX
8
0
62
30
10
0.11739792
20
0.68465504
30
0
70
32
0
VERTEX
8
0
62
30
10
0.14568219
20
0.68465504
30
0
70
32
0
SEQEND
8
0
0
POLYLINE
8
0
62
5
66
1
10
0
20
0
30
0
70
8
0
VERTEX
8
0
62
5
10
0.032545102
20
0.68465504
30
0
70
32
0
VERTEX
8
0
62
5
10
0.046687238
20
0.68465504
30
0
70
32
0
SEQEND
8
0
0
POLYLINE
8
0
62
5
66
1
10
0
20
0
30
0
70
8
0
VERTEX
8
0
62
5
10
0.089113644
20
0.68465504
30
0
70
32
0
VERTEX
8
0
62
5
10
0.10325578
20
0.68465504
30
0
70
32
0
SEQEND
8
0
0
POLYLINE
8
0
62
5
66
1
10
0
20
0
30
0
70
8
0
VERTEX
8
0
62
5
10
0.046687238
20
0.68465504
30
0
70
32
0
VERTEX
8
0
62
5
10
0.060829373
20
0.68465504
30
0
70
32
0
SEQEND
8
0
0
POLYLINE
8
0
62
5
66
1
10
0
20
0
30
0
70
8
0
VERTEX
8
0
62
5
10
0.10325578
20
0.68465504
30
0
70
32
0
VERTEX
8
0
62
5
10
0.11739792
20
0.68465504
30
0
70
32
0
SEQEND
8
0
0
POLYLINE
8
0
62
5
66
1
10
0
20
0
30
0
70
8
0
VERTEX
8
0
62
5
10
0.060829373
20
0.66465504
30
0
70
32
0
VERTEX
8
0
62
5
10
0.060829373
20
0.70465504
30
0
70
32
0
SEQEND
8
0
0
POLYLINE
8
0
62
5
66
1
10
0
20
0
30
0
70
8
0
VERTEX
8
0
62
5
10
0.089113644
20
0.66465504
30
0
70
32
0
VERTEX
8
0
62
5
10
0.089113644
20
0.70465504
30
0
70
32
0
SEQEND
8
0
0
POLYLINE
8
0
62
5
66
1
10
0
20
0
30
0
70
8
0
VERTEX
8
0
62
5
10
0.11739792
20
0.66465504
30
0
70
32
0
VERTEX
8
0
62
5
10
0.11739792
20
0.70465504
30
0
70
32
0
SEQEND
8
0
0
POLYLINE
8
0
62
5
66
1
10
0
20
0
30
0
70
8
0
VERTEX
8
0
62
5
10
0.032545102
20
0.66465504
30
0
70
32
0
VERTEX
8
0
62
5
10
0.032545102
20
0.70465504
30
0
70
32
0
SEQEND
8
0
0
POLYLINE
8
0
62
5
66
1
10
0
20
0
30
0
70
8
0
VERTEX
8
0
62
5
10
0.25881927
20
0.70465504
30
0
70
32
0
VERTEX
8
0
62
5
10
0.25881927
20
0.66465504
30
0
70
32
0
SEQEND
8
0
0
POLYLINE
8
0
62
5
66
1
10
0
20
0
30
0
70
8
0
VERTEX
8
0
62
5
10
0.14568219
20
0.66465504
30
0
70
32
0
VERTEX
8
0
62
5
10
0.25881927
20
0.66465504
30
0
70
32
0
SEQEND
8
0
0
POLYLINE
8
0
62
5
66
1
10
0
20
0
30
0
70
8
0
VERTEX
8
0
62
5
10
0.14568219
20
0.70465504
30
0
70
32
0
VERTEX
8
0
62
5
10
0.25881927
20
0.70465504
30
0
70
32
0
SEQEND
8
0
0
POLYLINE
8
0
62
5
66
1
10
0
20
0
30
0
70
8
0
VERTEX
8
0
62
5
10
0.17396646
20
0.66465504
30
0
70
32
0
VERTEX
8
0
62
5
10
0.17396646
20
0.66465504
30
0
70
32
0
SEQEND
8
0
0
POLYLINE
8
0
62
5
66
1
10
0
20
0
30
0
70
8
0
VERTEX
8
0
62
5
10
0.20225073
20
0.66465504
30
0
70
32
0
VERTEX
8
0
62
5
10
0.20225073
20
0.66465504
30
0
70
32
0
SEQEND
8
0
0
POLYLINE
8
0
62
5
66
1
10
0
20
0
30
0
70
8
0
VERTEX
8
0
62
5
10
0.230535
20
0.66465504
30
0
70
32
0
VERTEX
8
0
62
5
10
0.230535
20
0.66465504
30
0
70
32
0
SEQEND
8
0
0
POLYLINE
8
0
62
5
66
1
10
0
20
0
30
0
70
8
0
VERTEX
8
0
62
5
10
0.17396646
20
0.70465504
30
0
70
32
0
VERTEX
8
0
62
5
10
0.17396646
20
0.70465504
30
0
70
32
0
SEQEND
8
0
0
POLYLINE
8
0
62
5
66
1
10
0
20
0
30
0
70
8
0
VERTEX
8
0
62
5
10
0.20225073
20
0.70465504
30
0
70
32
0
VERTEX
8
0
62
5
10
0.20225073
20
0.70465504
30
0
70
32
0
SEQEND
8
0
0
POLYLINE
8
0
62
5
66
1
10
0
20
0
30
0
70
8
0
VERTEX
8
0
62
5
10
0.230535
20
0.70465504
30
0
70
32
0
VERTEX
8
0
62
5
10
0.230535
20
0.70465504
30
0
70
32
0
SEQEND
8
0
0
POLYLINE
8
0
62
30
66
1
10
0
20
0
30
0
70
8
0
VERTEX
8
0
62
30
10
0.14568219
20
0.70465504
30
0
70
32
0
VERTEX
8
0
62
30
10
0.17396646
20
0.66465504
30
0
70
32
0
SEQEND
8
0
0
POLYLINE
8
0
62
30
66
1
10
0
20
0
30
0
70
8
0
VERTEX
8
0
62
30
10
0.17396646
20
0.70465504
30
0
70
32
0
VERTEX
8
0
62
30
10
0.14568219
20
0.66465504
30
0
70
32
0
SEQEND
8
0
0
POLYLINE
8
0
62
30
66
1
10
0
20
0
30
0
70
8
0
VERTEX
8
0
62
30
10
0.20225073
20
0.70465504
30
0
70
32
0
VERTEX
8
0
62
30
10
0.230535
20
0.66465504
30
0
70
32
0
SEQEND
8
0
0
POLYLINE
8
0
62
30
66
1
10
0
20
0
30
0
70
8
0
VERTEX
8
0
62
30
10
0.230535
20
0.70465504
30
0
70
32
0
VERTEX
8
0
62
30
10
0.20225073
20
0.66465504
30
0
70
32
0
SEQEND
8
0
0
POLYLINE
8
0
62
30
66
1
10
0
20
0
30
0
70
8
0
VERTEX
8
0
62
30
10
0.17396646
20
0.68465504
30
0
70
32
0
VERTEX
8
0
62
30
10
0.20225073
20
0.68465504
30
0
70
32
0
SEQEND
8
0
0
POLYLINE
8
0
62
30
66
1
10
0
20
0
30
0
70
8
0
VERTEX
8
0
62
30
10
0.230535
20
0.68465504
30
0
70
32
0
VERTEX
8
0
62
30
10
0.25881927
20
0.68465504
30
0
70
32
0
SEQEND
8
0
0
POLYLINE
8
0
62
5
66
1
10
0
20
0
30
0
70
8
0
VERTEX
8
0
62
5
10
0.14568219
20
0.68465504
30
0
70
32
0
VERTEX
8
0
62
5
10
0.15982432
20
0.68465504
30
0
70
32
0
SEQEND
8
0
0
POLYLINE
8
0
62
5
66
1
10
0
20
0
30
0
70
8
0
VERTEX
8
0
62
5
10
0.20225073
20
0.68465504
30
0
70
32
0
VERTEX
8
0
62
5
10
0.21639287
20
0.68465504
30
0
70
32
0
SEQEND
8
0
0
POLYLINE
8
0
62
5
66
1
10
0
20
0
30
0
70
8
0
VERTEX
8
0
62
5
10
0.15982432
20
0.68465504
30
0
70
32
0
VERTEX
8
0
62
5
10
0.17396646
20
0.68465504
30
0
70
32
0
SEQEND
8
0
0
POLYLINE
8
0
62
5
66
1
10
0
20
0
30
0
70
8
0
VERTEX
8
0
62
5
10
0.21639287
20
0.68465504
30
0
70
32
0
VERTEX
8
0
62
5
10
0.230535
20
0.68465504
30
0
70
32
0
SEQEND
8
0
0
POLYLINE
8
0
62
5
66
1
10
0
20
0
30
0
70
8
0
VERTEX
8
0
62
5
10
0.17396646
20
0.66465504
30
0
70
32
0
VERTEX
8
0
62
5
10
0.17396646
20
0.70465504
30
0
70
32
0
SEQEND
8
0
0
POLYLINE
8
0
62
5
66
1
10
0
20
0
30
0
70
8
0
VERTEX
8
0
62
5
10
0.20225073
20
0.66465504
30
0
70
32
0
VERTEX
8
0
62
5
10
0.20225073
20
0.70465504
30
0
70
32
0
SEQEND
8
0
0
POLYLINE
8
0
62
5
66
1
10
0
20
0
30
0
70
8
0
VERTEX
8
0
62
5
10
0.230535
20
0.66465504
30
0
70
32
0
VERTEX
8
0
62
5
10
0.230535
20
0.70465504
30
0
70
32
0
SEQEND
8
0
0
POLYLINE
8
0
62
5
66
1
10
0
20
0
30
0
70
8
0
VERTEX
8
0
62
5
10
0.14568219
20
0.66465504
30
0
70
32
0
VERTEX
8
0
62
5
10
0.14568219
20
0.70465504
30
0
70
32
0
SEQEND
8
0
0
POLYLINE
8
0
62
5
66
1
10
0
20
0
30
0
70
8
0
VERTEX
8
0
62
5
10
-0.080591983
20
0.66465504
30
0
70
32
0
VERTEX
8
0
62
5
10
-0.080591983
20
0.70465504
30
0
70
32
0
SEQEND
8
0
0
POLYLINE
8
0
62
5
66
1
10
0
20
0
30
0
70
8
0
VERTEX
8
0
62
5
10
-0.080591983
20
0.66465504
30
0
70
32
0
VERTEX
8
0
62
5
10
0.032545102
20
0.66465504
30
0
70
32
0
SEQEND
8
0
0
POLYLINE
8
0
62
5
66
1
10
0
20
0
30
0
70
8
0
VERTEX
8
0
62
5
10
-0.080591983
20
0.70465504
30
0
70
32
0
VERTEX
8
0
62
5
10
0.032545102
20
0.70465504
30
0
70
32
0
SEQEND
8
0
0
POLYLINE
8
0
62
5
66
1
10
0
20
0
30
0
70
8
0
VERTEX
8
0
62
5
10
-0.052307712
20
0.66465504
30
0
70
32
0
VERTEX
8
0
62
5
10
-0.052307712
20
0.66465504
30
0
70
32
0
SEQEND
8
0
0
POLYLINE
8
0
62
5
66
1
10
0
20
0
30
0
70
8
0
VERTEX
8
0
62
5
10
-0.024023441
20
0.66465504
30
0
70
32
0
VERTEX
8
0
62
5
10
-0.024023441
20
0.66465504
30
0
70
32
0
SEQEND
8
0
0
POLYLINE
8
0
62
5
66
1
10
0
20
0
30
0
70
8
0
VERTEX
8
0
62
5
10
0.0042608307
20
0.66465504
30
0
70
32
0
VERTEX
8
0
62
5
10
0.0042608307
20
0.66465504
30
0
70
32
0
SEQEND
8
0
0
POLYLINE
8
0
62
5
66
1
10
0
20
0
30
0
70
8
0
VERTEX
8
0
62
5
10
-0.052307712
20
0.70465504
30
0
70
32
0
VERTEX
8
0
62
5
10
-0.052307712
20
0.70465504
30
0
70
32
0
SEQEND
8
0
0
POLYLINE
8
0
62
5
66
1
10
0
20
0
30
0
70
8
0
VERTEX
8
0
62
5
10
-0.024023441
20
0.70465504
30
0
70
32
0
VERTEX
8
0
62
5
10
-0.024023441
20
0.70465504
30
0
70
32
0
SEQEND
8
0
0
POLYLINE
8
0
62
5
66
1
10
0
20
0
30
0
70
8
0
VERTEX
8
0
62
5
10
0.0042608307
20
0.70465504
30
0
70
32
0
VERTEX
8
0
62
5
10
0.0042608307
20
0.70465504
30
0
70
32
0
SEQEND
8
0
0
POLYLINE
8
0
62
30
66
1
10
0
20
0
30
0
70
8
0
VERTEX
8
0
62
30
10
-0.080591983
20
0.70465504
30
0
70
32
0
VERTEX
8
0
62
30
10
-0.052307712
20
0.66465504
30
0
70
32
0
SEQEND
8
0
0
POLYLINE
8
0
62
30
66
1
10
0
20
0
30
0
70
8
0
VERTEX
8
0
62
30
10
-0.052307712
20
0.70465504
30
0
70
32
0
VERTEX
8
0
62
30
10
-0.080591983
20
0.66465504
30
0
70
32
0
SEQEND
8
0
0
POLYLINE
8
0
62
30
66
1
10
0
20
0
30
0
70
8
0
VERTEX
8
0
62
30
10
-0.024023441
20
0.70465504
30
0
70
32
0
VERTEX
8
0
62
30
10
0.0042608307
20
0.66465504
30
0
70
32
0
SEQEND
8
0
0
POLYLINE
8
0
62
30
66
1
10
0
20
0
30
0
70
8
0
VERTEX
8
0
62
30
10
0.0042608307
20
0.70465504
30
0
70
32
0
VERTEX
8
0
62
30
10
-0.024023441
20
0.66465504
30
0
70
32
0
SEQEND
8
0
0
POLYLINE
8
0
62
30
66
1
10
0
20
0
30
0
70
8
0
VERTEX
8
0
62
30
10
-0.052307712
20
0.68465504
30
0
70
32
0
VERTEX
8
0
62
30
10
-0.024023441
20
0.68465504
30
0
70
32
0
SEQEND
8
0
0
POLYLINE
8
0
62
30
66
1
10
0
20
0
30
0
70
8
0
VERTEX
8
0
62
30
10
0.0042608307
20
0.68465504
30
0
70
32
0
VERTEX
8
0
62
30
10
0.032545102
20
0.68465504
30
0
70
32
0
SEQEND
8
0
0
POLYLINE
8
0
62
5
66
1
10
0
20
0
30
0
70
8
0
VERTEX
8
0
62
5
10
-0.080591983
20
0.68465504
30
0
70
32
0
VERTEX
8
0
62
5
10
-0.066449847
20
0.68465504
30
0
70
32
0
SEQEND
8
0
0
POLYLINE
8
0
62
5
66
1
10
0
20
0
30
0
70
8
0
VERTEX
8
0
62
5
10
-0.024023441
20
0.68465504
30
0
70
32
0
VERTEX
8
0
62
5
10
-0.0098813049
20
0.68465504
30
0
70
32
0
SEQEND
8
0
0
POLYLINE
8
0
62
5
66
1
10
0
20
0
30
0
70
8
0
VERTEX
8
0
62
5
10
-0.066449847
20
0.68465504
30
0
70
32
0
VERTEX
8
0
62
5
10
-0.052307712
20
0.68465504
30
0
70
32
0
SEQEND
8
0
0
POLYLINE
8
0
62
5
66
1
10
0
20
0
30
0
70
8
0
VERTEX
8
0
62
5
10
-0.0098813049
20
0.68465504
30
0
70
32
0
VERTEX
8
0
62
5
10
0.0042608307
20
0.68465504
30
0
70
32
0
SEQEND
8
0
0
POLYLINE
8
0
62
5
66
1
10
0
20
0
30
0
70
8
0
VERTEX
8
0
62
5
10
-0.052307712
20
0.66465504
30
0
70
32
0
VERTEX
8
0
62
5
10
-0.052307712
20
0.70465504
30
0
70
32
0
SEQEND
8
0
0
POLYLINE
8
0
62
5
66
1
10
0
20
0
30
0
70
8
0
VERTEX
8
0
62
5
10
-0.024023441
20
0.66465504
30
0
70
32
0
VERTEX
8
0
62
5
10
-0.024023441
20
0.70465504
30
0
70
32
0
SEQEND
8
0
0
POLYLINE
8
0
62
5
66
1
10
0
20
0
30
0
70
8
0
VERTEX
8
0
62
5
10
0.0042608307
20
0.66465504
30
0
70
32
0
VERTEX
8
0
62
5
10
0.0042608307
20
0.70465504
30
0
70
32
0
SEQEND
8
0
0
POLYLINE
8
0
62
5
66
1
10
0
20
0
30
0
70
8
0
VERTEX
8
0
62
5
10
-0.080591983
20
0.66465504
30
0
70
32
0
VERTEX
8
0
62
5
10
-0.080591983
20
0.70465504
30
0
70
32
0
SEQEND
8
0
0
POLYLINE
8
0
62
5
66
1
10
0
20
0
30
0
70
8
0
VERTEX
8
0
62
5
10
0.032545102
20
0.70465504
30
0
70
32
0
VERTEX
8
0
62
5
10
0.032545102
20
0.79317987
30
0
70
32
0
SEQEND
8
0
0
POLYLINE
8
0
62
5
66
1
10
0
20
0
30
0
70
8
0
VERTEX
8
0
62
5
10
0.14568219
20
0.79317987
30
0
70
32
0
VERTEX
8
0
62
5
10
0.14568219
20
0.70465504
30
0
70
32
0
SEQEND
8
0
0
POLYLINE
8
0
62
5
66
1
10
0
20
0
30
0
70
8
0
VERTEX
8
0
62
5
10
0.032545102
20
0.71932467
30
0
70
32
0
VERTEX
8
0
62
5
10
0.060829373
20
0.70516226
30
0
70
32
0
VERTEX
8
0
62
5
10
0.089113644
20
0.71262384
30
0
70
32
0
VERTEX
8
0
62
5
10
0.11739792
20
0.72678625
30
0
70
32
0
VERTEX
8
0
62
5
10
0.14568219
20
0.71932467
30
0
70
32
0
SEQEND
8
0
0
POLYLINE
8
0
62
5
66
1
10
0
20
0
30
0
70
8
0
VERTEX
8
0
62
5
10
0.032545102
20
0.76358708
30
0
70
32
0
VERTEX
8
0
62
5
10
0.060829373
20
0.74942467
30
0
70
32
0
VERTEX
8
0
62
5
10
0.089113644
20
0.75688625
30
0
70
32
0
VERTEX
8
0
62
5
10
0.11739792
20
0.77104866
30
0
70
32
0
VERTEX
8
0
62
5
10
0.14568219
20
0.76358708
30
0
70
32
0
SEQEND
8
0
0
POLYLINE
8
0
62
5
66
1
10
0
20
0
30
0
70
8
0
VERTEX
8
0
62
5
10
0.032545102
20
0.73424783
30
0
70
32
0
VERTEX
8
0
62
5
10
0.060829373
20
0.74841024
30
0
70
32
0
VERTEX
8
0
62
5
10
0.089113644
20
0.74094866
30
0
70
32
0
VERTEX
8
0
62
5
10
0.11739792
20
0.72678625
30
0
70
32
0
VERTEX
8
0
62
5
10
0.14568219
20
0.73424783
30
0
70
32
0
SEQEND
8
0
0
POLYLINE
8
0
62
5
66
1
10
0
20
0
30
0
70
8
0
VERTEX
8
0
62
5
10
0.032545102
20
0.77851024
30
0
70
32
0
VERTEX
8
0
62
5
10
0.060829373
20
0.79267266
30
0
70
32
0
VERTEX
8
0
62
5
10
0.089113644
20
0.78521108
30
0
70
32
0
VERTEX
8
0
62
5
10
0.11739792
20
0.77104866
30
0
70
32
0
VERTEX
8
0
62
5
10
0.14568219
20
0.77851024
30
0
70
32
0
SEQEND
8
0
0
POLYLINE
8
0
62
30
66
1
10
0
20
0
30
0
70
8
0
VERTEX
8
0
62
30
10
0.032545102
20
0.72678625
30
0
70
32
0
VERTEX
8
0
62
30
10
0.14568219
20
0.72678625
30
0
70
32
0
SEQEND
8
0
0
POLYLINE
8
0
62
30
66
1
10
0
20
0
30
0
70
8
0
VERTEX
8
0
62
30
10
0.032545102
20
0.77104866
30
0
70
32
0
VERTEX
8
0
62
30
10
0.14568219
20
0.77104866
30
0
70
32
0
SEQEND
8
0
0
POLYLINE
8
0
62
30
66
1
10
0
20
0
30
0
70
8
0
VERTEX
8
0
62
30
10
0.060829373
20
0.70516226
30
0
70
32
0
VERTEX
8
0
62
30
10
0.060829373
20
0.72678625
30
0
70
32
0
SEQEND
8
0
0
POLYLINE
8
0
62
30
66
1
10
0
20
0
30
0
70
8
0
VERTEX
8
0
62
30
10
0.089113644
20
0.71262384
30
0
70
32
0
VERTEX
8
0
62
30
10
0.089113644
20
0.72678625
30
0
70
32
0
SEQEND
8
0
0
POLYLINE
8
0
62
30
66
1
10
0
20
0
30
0
70
8
0
VERTEX
8
0
62
30
10
0.11739792
20
0.72678625
30
0
70
32
0
VERTEX
8
0
62
30
10
0.11739792
20
0.72678625
30
0
70
32
0
SEQEND
8
0
0
POLYLINE
8
0
62
30
66
1
10
0
20
0
30
0
70
8
0
VERTEX
8
0
62
30
10
0.060829373
20
0.74942467
30
0
70
32
0
VERTEX
8
0
62
30
10
0.060829373
20
0.77104866
30
0
70
32
0
SEQEND
8
0
0
POLYLINE
8
0
62
30
66
1
10
0
20
0
30
0
70
8
0
VERTEX
8
0
62
30
10
0.060829373
20
0.77104866
30
0
70
32
0
VERTEX
8
0
62
30
10
0.089113644
20
0.75688625
30
0
70
32
0
SEQEND
8
0
0
POLYLINE
8
0
62
30
66
1
10
0
20
0
30
0
70
8
0
VERTEX
8
0
62
30
10
0.089113644
20
0.75688625
30
0
70
32
0
VERTEX
8
0
62
30
10
0.089113644
20
0.77104866
30
0
70
32
0
SEQEND
8
0
0
POLYLINE
8
0
62
30
66
1
10
0
20
0
30
0
70
8
0
VERTEX
8
0
62
30
10
0.089113644
20
0.77104866
30
0
70
32
0
VERTEX
8
0
62
30
10
0.11739792
20
0.77104866
30
0
70
32
0
SEQEND
8
0
0
POLYLINE
8
0
62
30
66
1
10
0
20
0
30
0
70
8
0
VERTEX
8
0
62
30
10
0.11739792
20
0.77104866
30
0
70
32
0
VERTEX
8
0
62
30
10
0.11739792
20
0.77104866
30
0
70
32
0
SEQEND
8
0
0
POLYLINE
8
0
62
5
66
1
10
0
20
0
30
0
70
8
0
VERTEX
8
0
62
5
10
0.060829373
20
0.70465504
30
0
70
32
0
VERTEX
8
0
62
5
10
0.060829373
20
0.70516226
30
0
70
32
0
SEQEND
8
0
0
POLYLINE
8
0
62
5
66
1
10
0
20
0
30
0
70
8
0
VERTEX
8
0
62
5
10
0.089113644
20
0.70465504
30
0
70
32
0
VERTEX
8
0
62
5
10
0.089113644
20
0.71262384
30
0
70
32
0
SEQEND
8
0
0
POLYLINE
8
0
62
5
66
1
10
0
20
0
30
0
70
8
0
VERTEX
8
0
62
5
10
0.11739792
20
0.70465504
30
0
70
32
0
VERTEX
8
0
62
5
10
0.11739792
20
0.72678625
30
0
70
32
0
SEQEND
8
0
0
POLYLINE
8
0
62
5
66
1
10
0
20
0
30
0
70
8
0
VERTEX
8
0
62
5
10
0.060829373
20
0.74891746
30
0
70
32
0
VERTEX
8
0
62
5
10
0.060829373
20
0.74942467
30
0
70
32
0
SEQEND
8
0
0
POLYLINE
8
0
62
5
66
1
10
0
20
0
30
0
70
8
0
VERTEX
8
0
62
5
10
0.089113644
20
0.74891746
30
0
70
32
0
VERTEX
8
0
62
5
10
0.089113644
20
0.75688625
30
0
70
32
0
SEQEND
8
0
0
POLYLINE
8
0
62
5
66
1
10
0
20
0
30
0
70
8
0
VERTEX
8
0
62
5
10
0.11739792
20
0.74891746
30
0
70
32
0
VERTEX
8
0
62
5
10
0.11739792
20
0.77104866
30
0
70
32
0
SEQEND
8
0
0
POLYLINE
8
0
62
5
66
1
10
0
20
0
30
0
70
8
0
VERTEX
8
0
62
5
10
0.060829373
20
0.72678625
30
0
70
32
0
VERTEX
8
0
62
5
10
0.060829373
20
0.74891746
30
0
70
32
0
SEQEND
8
0
0
POLYLINE
8
0
62
5
66
1
10
0
20
0
30
0
70
8
0
VERTEX
8
0
62
5
10
0.089113644
20
0.72678625
30
0
70
32
0
VERTEX
8
0
62
5
10
0.089113644
20
0.74891746
30
0
70
32
0
SEQEND
8
0
0
POLYLINE
8
0
62
5
66
1
10
0
20
0
30
0
70
8
0
VERTEX
8
0
62
5
10
0.11739792
20
0.72678625
30
0
70
32
0
VERTEX
8
0
62
5
10
0.11739792
20
0.74891746
30
0
70
32
0
SEQEND
8
0
0
POLYLINE
8
0
62
5
66
1
10
0
20
0
30
0
70
8
0
VERTEX
8
0
62
5
10
0.060829373
20
0.77104866
30
0
70
32
0
VERTEX
8
0
62
5
10
0.060829373
20
0.79317987
30
0
70
32
0
SEQEND
8
0
0
POLYLINE
8
0
62
5
66
1
10
0
20
0
30
0
70
8
0
VERTEX
8
0
62
5
10
0.089113644
20
0.77104866
30
0
70
32
0
VERTEX
8
0
62
5
10
0.089113644
20
0.79317987
30
0
70
32
0
SEQEND
8
0
0
POLYLINE
8
0
62
5
66
1
10
0
20
0
30
0
70
8
0
VERTEX
8
0
62
5
10
0.11739792
20
0.77104866
30
0
70
32
0
VERTEX
8
0
62
5
10
0.11739792
20
0.79317987
30
0
70
32
0
SEQEND
8
0
0
POLYLINE
8
0
62
5
66
1
10
0
20
0
30
0
70
8
0
VERTEX
8
0
62
5
10
0.25881927
20
0.79317987
30
0
70
32
0
VERTEX
8
0
62
5
10
0.25881927
20
0.70465504
30
0
70
32
0
SEQEND
8
0
0
POLYLINE
8
0
62
5
66
1
10
0
20
0
30
0
70
8
0
VERTEX
8
0
62
5
10
0.14568219
20
0.71932467
30
0
70
32
0
VERTEX
8
0
62
5
10
0.17396646
20
0.70516226
30
0
70
32
0
VERTEX
8
0
62
5
10
0.20225073
20
0.71262384
30
0
70
32
0
VERTEX
8
0
62
5
10
0.230535
20
0.72678625
30
0
70
32
0
VERTEX
8
0
62
5
10
0.25881927
20
0.71932467
30
0
70
32
0
SEQEND
8
0
0
POLYLINE
8
0
62
5
66
1
10
0
20
0
30
0
70
8
0
VERTEX
8
0
62
5
10
0.14568219
20
0.76358708
30
0
70
32
0
VERTEX
8
0
62
5
10
0.17396646
20
0.74942467
30
0
70
32
0
VERTEX
8
0
62
5
10
0.20225073
20
0.75688625
30
0
70
32
0
VERTEX
8
0
62
5
10
0.230535
20
0.77104866
30
0
70
32
0
VERTEX
8
0
62
5
10
0.25881927
20
0.76358708
30
0
70
32
0
SEQEND
8
0
0
POLYLINE
8
0
62
5
66
1
10
0
20
0
30
0
70
8
0
VERTEX
8
0
62
5
10
0.14568219
20
0.73424783
30
0
70
32
0
VERTEX
8
0
62
5
10
0.17396646
20
0.74841024
30
0
70
32
0
VERTEX
8
0
62
5
10
0.20225073
20
0.74094866
30
0
70
32
0
VERTEX
8
0
62
5
10
0.230535
20
0.72678625
30
0
70
32
0
VERTEX
8
0
62
5
10
0.25881927
20
0.73424783
30
0
70
32
0
SEQEND
8
0
0
POLYLINE
8
0
62
5
66
1
10
0
20
0
30
0
70
8
0
VERTEX
8
0
62
5
10
0.14568219
20
0.77851024
30
0
70
32
0
VERTEX
8
0
62
5
10
0.17396646
20
0.79267266
30
0
70
32
0
VERTEX
8
0
62
5
10
0.20225073
20
0.78521108
30
0
70
32
0
VERTEX
8
0
62
5
10
0.230535
20
0.77104866
30
0
70
32
0
VERTEX
8
0
62
5
10
0.25881927
20
0.77851024
30
0
70
32
0
SEQEND
8
0
0
POLYLINE
8
0
62
30
66
1
10
0
20
0
30
0
70
8
0
VERTEX
8
0
62
30
10
0.14568219
20
0.72678625
30
0
70
32
0
VERTEX
8
0
62
30
10
0.25881927
20
0.72678625
30
0
70
32
0
SEQEND
8
0
0
POLYLINE
8
0
62
30
66
1
10
0
20
0
30
0
70
8
0
VERTEX
8
0
62
30
10
0.14568219
20
0.77104866
30
0
70
32
0
VERTEX
8
0
62
30
10
0.25881927
20
0.77104866
30
0
70
32
0
SEQEND
8
0
0
POLYLINE
8
0
62
30
66
1
10
0
20
0
30
0
70
8
0
VERTEX
8
0
62
30
10
0.17396646
20
0.70516226
30
0
70
32
0
VERTEX
8
0
62
30
10
0.17396646
20
0.72678625
30
0
70
32
0
SEQEND
8
0
0
POLYLINE
8
0
62
30
66
1
10
0
20
0
30
0
70
8
0
VERTEX
8
0
62
30
10
0.20225073
20
0.71262384
30
0
70
32
0
VERTEX
8
0
62
30
10
0.20225073
20
0.72678625
30
0
70
32
0
SEQEND
8
0
0
POLYLINE
8
0
62
30
66
1
10
0
20
0
30
0
70
8
0
VERTEX
8
0
62
30
10
0.230535
20
0.72678625
30
0
70
32
0
VERTEX
8
0
62
30
10
0.230535
20
0.72678625
30
0
70
32
0
SEQEND
8
0
0
POLYLINE
8
0
62
30
66
1
10
0
20
0
30
0
70
8
0
VERTEX
8
0
62
30
10
0.17396646
20
0.74942467
30
0
70
32
0
VERTEX
8
0
62
30
10
0.17396646
20
0.77104866
30
0
70
32
0
SEQEND
8
0
0
POLYLINE
8
0
62
30
66
1
10
0
20
0
30
0
70
8
0
VERTEX
8
0
62
30
10
0.17396646
20
0.77104866
30
0
70
32
0
VERTEX
8
0
62
30
10
0.20225073
20
0.75688625
30
0
70
32
0
SEQEND
8
0
0
POLYLINE
8
0
62
30
66
1
10
0
20
0
30
0
70
8
0
VERTEX
8
0
62
30
10
0.20225073
20
0.75688625
30
0
70
32
0
VERTEX
8
0
62
30
10
0.20225073
20
0.77104866
30
0
70
32
0
SEQEND
8
0
0
POLYLINE
8
0
62
30
66
1
10
0
20
0
30
0
70
8
0
VERTEX
8
0
62
30
10
0.20225073
20
0.77104866
30
0
70
32
0
VERTEX
8
0
62
30
10
0.230535
20
0.77104866
30
0
70
32
0
SEQEND
8
0
0
POLYLINE
8
0
62
30
66
1
10
0
20
0
30
0
70
8
0
VERTEX
8
0
62
30
10
0.230535
20
0.77104866
30
0
70
32
0
VERTEX
8
0
62
30
10
0.230535
20
0.77104866
30
0
70
32
0
SEQEND
8
0
0
POLYLINE
8
0
62
5
66
1
10
0
20
0
30
0
70
8
0
VERTEX
8
0
62
5
10
0.17396646
20
0.70465504
30
0
70
32
0
VERTEX
8
0
62
5
10
0.17396646
20
0.70516226
30
0
70
32
0
SEQEND
8
0
0
POLYLINE
8
0
62
5
66
1
10
0
20
0
30
0
70
8
0
VERTEX
8
0
62
5
10
0.20225073
20
0.70465504
30
0
70
32
0
VERTEX
8
0
62
5
10
0.20225073
20
0.71262384
30
0
70
32
0
SEQEND
8
0
0
POLYLINE
8
0
62
5
66
1
10
0
20
0
30
0
70
8
0
VERTEX
8
0
62
5
10
0.230535
20
0.70465504
30
0
70
32
0
VERTEX
8
0
62
5
10
0.230535
20
0.72678625
30
0
70
32
0
SEQEND
8
0
0
POLYLINE
8
0
62
5
66
1
10
0
20
0
30
0
70
8
0
VERTEX
8
0
62
5
10
0.17396646
20
0.74891746
30
0
70
32
0
VERTEX
8
0
62
5
10
0.17396646
20
0.74942467
30
0
70
32
0
SEQEND
8
0
0
POLYLINE
8
0
62
5
66
1
10
0
20
0
30
0
70
8
0
VERTEX
8
0
62
5
10
0.20225073
20
0.74891746
30
0
70
32
0
VERTEX
8
0
62
5
10
0.20225073
20
0.75688625
30
0
70
32
0
SEQEND
8
0
0
POLYLINE
8
0
62
5
66
1
10
0
20
0
30
0
70
8
0
VERTEX
8
0
62
5
10
0.230535
20
0.74891746
30
0
70
32
0
VERTEX
8
0
62
5
10
0.230535
20
0.77104866
30
0
70
32
0
SEQEND
8
0
0
POLYLINE
8
0
62
5
66
1
10
0
20
0
30
0
70
8
0
VERTEX
8
0
62
5
10
0.17396646
20
0.72678625
30
0
70
32
0
VERTEX
8
0
62
5
10
0.17396646
20
0.74891746
30
0
70
32
0
SEQEND
8
0
0
POLYLINE
8
0
62
5
66
1
10
0
20
0
30
0
70
8
0
VERTEX
8
0
62
5
10
0.20225073
20
0.72678625
30
0
70
32
0
VERTEX
8
0
62
5
10
0.20225073
20
0.74891746
30
0
70
32
0
SEQEND
8
0
0
POLYLINE
8
0
62
5
66
1
10
0
20
0
30
0
70
8
0
VERTEX
8
0
62
5
10
0.230535
20
0.72678625
30
0
70
32
0
VERTEX
8
0
62
5
10
0.230535
20
0.74891746
30
0
70
32
0
SEQEND
8
0
0
POLYLINE
8
0
62
5
66
1
10
0
20
0
30
0
70
8
0
VERTEX
8
0
62
5
10
0.17396646
20
0.77104866
30
0
70
32
0
VERTEX
8
0
62
5
10
0.17396646
20
0.79317987
30
0
70
32
0
SEQEND
8
0
0
POLYLINE
8
0
62
5
66
1
10
0
20
0
30
0
70
8
0
VERTEX
8
0
62
5
10
0.20225073
20
0.77104866
30
0
70
32
0
VERTEX
8
0
62
5
10
0.20225073
20
0.79317987
30
0
70
32
0
SEQEND
8
0
0
POLYLINE
8
0
62
5
66
1
10
0
20
0
30
0
70
8
0
VERTEX
8
0
62
5
10
0.230535
20
0.77104866
30
0
70
32
0
VERTEX
8
0
62
5
10
0.230535
20
0.79317987
30
0
70
32
0
SEQEND
8
0
0
POLYLINE
8
0
62
5
66
1
10
0
20
0
30
0
70
8
0
VERTEX
8
0
62
5
10
-0.080591983
20
0.70465504
30
0
70
32
0
VERTEX
8
0
62
5
10
-0.080591983
20
0.79317987
30
0
70
32
0
SEQEND
8
0
0
POLYLINE
8
0
62
5
66
1
10
0
20
0
30
0
70
8
0
VERTEX
8
0
62
5
10
-0.080591983
20
0.71932467
30
0
70
32
0
VERTEX
8
0
62
5
10
-0.052307712
20
0.70516226
30
0
70
32
0
VERTEX
8
0
62
5
10
-0.024023441
20
0.71262384
30
0
70
32
0
VERTEX
8
0
62
5
10
0.0042608307
20
0.72678625
30
0
70
32
0
VERTEX
8
0
62
5
10
0.032545102
20
0.71932467
30
0
70
32
0
SEQEND
8
0
0
POLYLINE
8
0
62
5
66
1
10
0
20
0
30
0
70
8
0
VERTEX
8
0
62
5
10
-0.080591983
20
0.76358708
30
0
70
32
0
VERTEX
8
0
62
5
10
-0.052307712
20
0.74942467
30
0
70
32
0
VERTEX
8
0
62
5
10
-0.024023441
20
0.75688625
30
0
70
32
0
VERTEX
8
0
62
5
10
0.0042608307
20
0.77104866
30
0
70
32
0
VERTEX
8
0
62
5
10
0.032545102
20
0.76358708
30
0
70
32
0
SEQEND
8
0
0
POLYLINE
8
0
62
5
66
1
10
0
20
0
30
0
70
8
0
VERTEX
8
0
62
5
10
-0.080591983
20
0.73424783
30
0
70
32
0
VERTEX
8
0
62
5
10
-0.052307712
20
0.74841024
30
0
70
32
0
VERTEX
8
0
62
5
10
-0.024023441
20
0.74094866
30
0
70
32
0
VERTEX
8
0
62
5
10
0.0042608307
20
0.72678625
30
0
70
32
0
VERTEX
8
0
62
5
10
0.032545102
20
0.73424783
30
0
70
32
0
SEQEND
8
0
0
POLYLINE
8
0
62
5
66
1
10
0
20
0
30
0
70
8
0
VERTEX
8
0
62
5
10
-0.080591983
20
0.77851024
30
0
70
32
0
VERTEX
8
0
62
5
10
-0.052307712
20
0.79267266
30
0
70
32
0
VERTEX
8
0
62
5
10
-0.024023441
20
0.78521108
30
0
70
32
0
VERTEX
8
0
62
5
10
0.0042608307
20
0.77104866
30
0
70
32
0
VERTEX
8
0
62
5
10
0.032545102
20
0.77851024
30
0
70
32
0
SEQEND
8
0
0
POLYLINE
8
0
62
30
66
1
10
0
20
0
30
0
70
8
0
VERTEX
8
0
62
30
10
-0.080591983
20
0.72678625
30
0
70
32
0
VERTEX
8
0
62
30
10
0.032545102
20
0.72678625
30
0
70
32
0
SEQEND
8
0
0
POLYLINE
8
0
62
30
66
1
10
0
20
0
30
0
70
8
0
VERTEX
8
0
62
30
10
-0.080591983
20
0.77104866
30
0
70
32
0
VERTEX
8
0
62
30
10
0.032545102
20
0.77104866
30
0
70
32
0
SEQEND
8
0
0
POLYLINE
8
0
62
30
66
1
10
0
20
0
30
0
70
8
0
VERTEX
8
0
62
30
10
-0.052307712
20
0.70516226
30
0
70
32
0
VERTEX
8
0
62
30
10
-0.052307712
20
0.72678625
30
0
70
32
0
SEQEND
8
0
0
POLYLINE
8
0
62
30
66
1
10
0
20
0
30
0
70
8
0
VERTEX
8
0
62
30
10
-0.024023441
20
0.71262384
30
0
70
32
0
VERTEX
8
0
62
30
10
-0.024023441
20
0.72678625
30
0
70
32
0
SEQEND
8
0
0
POLYLINE
8
0
62
30
66
1
10
0
20
0
30
0
70
8
0
VERTEX
8
0
62
30
10
0.0042608307
20
0.72678625
30
0
70
32
0
VERTEX
8
0
62
30
10
0.0042608307
20
0.72678625
30
0
70
32
0
SEQEND
8
0
0
POLYLINE
8
0
62
30
66
1
10
0
20
0
30
0
70
8
0
VERTEX
8
0
62
30
10
-0.052307712
20
0.74942467
30
0
70
32
0
VERTEX
8
0
62
30
10
-0.052307712
20
0.77104866
30
0
70
32
0
SEQEND
8
0
0
POLYLINE
8
0
62
30
66
1
10
0
20
0
30
0
70
8
0
VERTEX
8
0
62
30
10
-0.052307712
20
0.77104866
30
0
70
32
0
VERTEX
8
0
62
30
10
-0.024023441
20
0.75688625
30
0
70
32
0
SEQEND
8
0
0
POLYLINE
8
0
62
30
66
1
10
0
20
0
30
0
70
8
0
VERTEX
8
0
62
30
10
-0.024023441
20
0.75688625
30
0
70
32
0
VERTEX
8
0
62
30
10
-0.024023441
20
0.77104866
30
0
70
32
0
SEQEND
8
0
0
POLYLINE
8
0
62
30
66
1
10
0
20
0
30
0
70
8
0
VERTEX
8
0
62
30
10
-0.024023441
20
0.77104866
30
0
70
32
0
VERTEX
8
0
62
30
10
0.0042608307
20
0.77104866
30
0
70
32
0
SEQEND
8
0
0
POLYLINE
8
0
62
30
66
1
10
0
20
0
30
0
70
8
0
VERTEX
8
0
62
30
10
0.0042608307
20
0.77104866
30
0
70
32
0
VERTEX
8
0
62
30
10
0.0042608307
20
0.77104866
30
0
70
32
0
SEQEND
8
0
0
POLYLINE
8
0
62
5
66
1
10
0
20
0
30
0
70
8
0
VERTEX
8
0
62
5
10
-0.052307712
20
0.70465504
30
0
70
32
0
VERTEX
8
0
62
5
10
-0.052307712
20
0.70516226
30
0
70
32
0
SEQEND
8
0
0
POLYLINE
8
0
62
5
66
1
10
0
20
0
30
0
70
8
0
VERTEX
8
0
62
5
10
-0.024023441
20
0.70465504
30
0
70
32
0
VERTEX
8
0
62
5
10
-0.024023441
20
0.71262384
30
0
70
32
0
SEQEND
8
0
0
POLYLINE
8
0
62
5
66
1
10
0
20
0
30
0
70
8
0
VERTEX
8
0
62
5
10
0.0042608307
20
0.70465504
30
0
70
32
0
VERTEX
8
0
62
5
10
0.0042608307
20
0.72678625
30
0
70
32
0
SEQEND
8
0
0
POLYLINE
8
0
62
5
66
1
10
0
20
0
30
0
70
8
0
VERTEX
8
0
62
5
10
-0.052307712
20
0.74891746
30
0
70
32
0
VERTEX
8
0
62
5
10
-0.052307712
20
0.74942467
30
0
70
32
0
SEQEND
8
0
0
POLYLINE
8
0
62
5
66
1
10
0
20
0
30
0
70
8
0
VERTEX
8
0
62
5
10
-0.024023441
20
0.74891746
30
0
70
32
0
VERTEX
8
0
62
5
10
-0.024023441
20
0.75688625
30
0
70
32
0
SEQEND
8
0
0
POLYLINE
8
0
62
5
66
1
10
0
20
0
30
0
70
8
0
VERTEX
8
0
62
5
10
0.0042608307
20
0.74891746
30
0
70
32
0
VERTEX
8
0
62
5
10
0.0042608307
20
0.77104866
30
0
70
32
0
SEQEND
8
0
0
POLYLINE
8
0
62
5
66
1
10
0
20
0
30
0
70
8
0
VERTEX
8
0
62
5
10
-0.052307712
20
0.72678625
30
0
70
32
0
VERTEX
8
0
62
5
10
-0.052307712
20
0.74891746
30
0
70
32
0
SEQEND
8
0
0
POLYLINE
8
0
62
5
66
1
10
0
20
0
30
0
70
8
0
VERTEX
8
0
62
5
10
-0.024023441
20
0.72678625
30
0
70
32
0
VERTEX
8
0
62
5
10
-0.024023441
20
0.74891746
30
0
70
32
0
SEQEND
8
0
0
POLYLINE
8
0
62
5
66
1
10
0
20
0
30
0
70
8
0
VERTEX
8
0
62
5
10
0.0042608307
20
0.72678625
30
0
70
32
0
VERTEX
8
0
62
5
10
0.0042608307
20
0.74891746
30
0
70
32
0
SEQEND
8
0
0
POLYLINE
8
0
62
5
66
1
10
0
20
0
30
0
70
8
0
VERTEX
8
0
62
5
10
-0.052307712
20
0.77104866
30
0
70
32
0
VERTEX
8
0
62
5
10
-0.052307712
20
0.79317987
30
0
70
32
0
SEQEND
8
0
0
POLYLINE
8
0
62
5
66
1
10
0
20
0
30
0
70
8
0
VERTEX
8
0
62
5
10
-0.024023441
20
0.77104866
30
0
70
32
0
VERTEX
8
0
62
5
10
-0.024023441
20
0.79317987
30
0
70
32
0
SEQEND
8
0
0
POLYLINE
8
0
62
5
66
1
10
0
20
0
30
0
70
8
0
VERTEX
8
0
62
5
10
0.0042608307
20
0.77104866
30
0
70
32
0
VERTEX
8
0
62
5
10
0.0042608307
20
0.79317987
30
0
70
32
0
SEQEND
8
0
0
POLYLINE
8
0
62
30
66
1
10
0
20
0
30
0
70
8
0
VERTEX
8
0
62
30
10
0.032545102
20
0.80651521
30
0
70
32
0
VERTEX
8
0
62
30
10
0.14568219
20
0.80651521
30
0
70
32
0
SEQEND
8
0
0
POLYLINE
8
0
62
30
66
1
10
0
20
0
30
0
70
8
0
VERTEX
8
0
62
30
10
0.032545102
20
0.79317987
30
0
70
32
0
VERTEX
8
0
62
30
10
0.14568219
20
0.79317987
30
0
70
32
0
SEQEND
8
0
0
POLYLINE
8
0
62
5
66
1
10
0
20
0
30
0
70
8
0
VERTEX
8
0
62
5
10
0.032545102
20
0.79317987
30
0
70
32
0
VERTEX
8
0
62
5
10
0.050212266
20
0.80651521
30
0
70
32
0
VERTEX
8
0
62
5
10
0.060829373
20
0.79317987
30
0
70
32
0
VERTEX
8
0
62
5
10
0.078496538
20
0.80651521
30
0
70
32
0
VERTEX
8
0
62
5
10
0.089113644
20
0.79317987
30
0
70
32
0
VERTEX
8
0
62
5
10
0.10678081
20
0.80651521
30
0
70
32
0
VERTEX
8
0
62
5
10
0.11739792
20
0.79317987
30
0
70
32
0
VERTEX
8
0
62
5
10
0.13506508
20
0.80651521
30
0
70
32
0
VERTEX
8
0
62
5
10
0.14568219
20
0.79317987
30
0
70
32
0
SEQEND
8
0
0
POLYLINE
8
0
62
5
66
1
10
0
20
0
30
0
70
8
0
VERTEX
8
0
62
5
10
0.060829373
20
0.79317987
30
0
70
32
0
VERTEX
8
0
62
5
10
0.060829373
20
0.79317987
30
0
70
32
0
SEQEND
8
0
0
POLYLINE
8
0
62
5
66
1
10
0
20
0
30
0
70
8
0
VERTEX
8
0
62
5
10
0.089113644
20
0.79317987
30
0
70
32
0
VERTEX
8
0
62
5
10
0.089113644
20
0.79317987
30
0
70
32
0
SEQEND
8
0
0
POLYLINE
8
0
62
5
66
1
10
0
20
0
30
0
70
8
0
VERTEX
8
0
62
5
10
0.11739792
20
0.79317987
30
0
70
32
0
VERTEX
8
0
62
5
10
0.11739792
20
0.79317987
30
0
70
32
0
SEQEND
8
0
0
POLYLINE
8
0
62
5
66
1
10
0
20
0
30
0
70
8
0
VERTEX
8
0
62
5
10
0.050212266
20
0.80651521
30
0
70
32
0
VERTEX
8
0
62
5
10
0.050212266
20
0.80651521
30
0
70
32
0
SEQEND
8
0
0
POLYLINE
8
0
62
5
66
1
10
0
20
0
30
0
70
8
0
VERTEX
8
0
62
5
10
0.078496538
20
0.80651521
30
0
70
32
0
VERTEX
8
0
62
5
10
0.078496538
20
0.80651521
30
0
70
32
0
SEQEND
8
0
0
POLYLINE
8
0
62
5
66
1
10
0
20
0
30
0
70
8
0
VERTEX
8
0
62
5
10
0.10678081
20
0.80651521
30
0
70
32
0
VERTEX
8
0
62
5
10
0.10678081
20
0.80651521
30
0
70
32
0
SEQEND
8
0
0
POLYLINE
8
0
62
5
66
1
10
0
20
0
30
0
70
8
0
VERTEX
8
0
62
5
10
0.13506508
20
0.80651521
30
0
70
32
0
VERTEX
8
0
62
5
10
0.13506508
20
0.80651521
30
0
70
32
0
SEQEND
8
0
0
POLYLINE
8
0
62
30
66
1
10
0
20
0
30
0
70
8
0
VERTEX
8
0
62
30
10
0.14568219
20
0.80651521
30
0
70
32
0
VERTEX
8
0
62
30
10
0.25881927
20
0.80651521
30
0
70
32
0
SEQEND
8
0
0
POLYLINE
8
0
62
30
66
1
10
0
20
0
30
0
70
8
0
VERTEX
8
0
62
30
10
0.14568219
20
0.79317987
30
0
70
32
0
VERTEX
8
0
62
30
10
0.25881927
20
0.79317987
30
0
70
32
0
SEQEND
8
0
0
POLYLINE
8
0
62
5
66
1
10
0
20
0
30
0
70
8
0
VERTEX
8
0
62
5
10
0.14568219
20
0.79317987
30
0
70
32
0
VERTEX
8
0
62
5
10
0.16334935
20
0.80651521
30
0
70
32
0
VERTEX
8
0
62
5
10
0.17396646
20
0.79317987
30
0
70
32
0
VERTEX
8
0
62
5
10
0.19163362
20
0.80651521
30
0
70
32
0
VERTEX
8
0
62
5
10
0.20225073
20
0.79317987
30
0
70
32
0
VERTEX
8
0
62
5
10
0.21991789
20
0.80651521
30
0
70
32
0
VERTEX
8
0
62
5
10
0.230535
20
0.79317987
30
0
70
32
0
VERTEX
8
0
62
5
10
0.24820216
20
0.80651521
30
0
70
32
0
VERTEX
8
0
62
5
10
0.25881927
20
0.79317987
30
0
70
32
0
SEQEND
8
0
0
POLYLINE
8
0
62
5
66
1
10
0
20
0
30
0
70
8
0
VERTEX
8
0
62
5
10
0.17396646
20
0.79317987
30
0
70
32
0
VERTEX
8
0
62
5
10
0.17396646
20
0.79317987
30
0
70
32
0
SEQEND
8
0
0
POLYLINE
8
0
62
5
66
1
10
0
20
0
30
0
70
8
0
VERTEX
8
0
62
5
10
0.20225073
20
0.79317987
30
0
70
32
0
VERTEX
8
0
62
5
10
0.20225073
20
0.79317987
30
0
70
32
0
SEQEND
8
0
0
POLYLINE
8
0
62
5
66
1
10
0
20
0
30
0
70
8
0
VERTEX
8
0
62
5
10
0.230535
20
0.79317987
30
0
70
32
0
VERTEX
8
0
62
5
10
0.230535
20
0.79317987
30
0
70
32
0
SEQEND
8
0
0
POLYLINE
8
0
62
5
66
1
10
0
20
0
30
0
70
8
0
VERTEX
8
0
62
5
10
0.16334935
20
0.80651521
30
0
70
32
0
VERTEX
8
0
62
5
10
0.16334935
20
0.80651521
30
0
70
32
0
SEQEND
8
0
0
POLYLINE
8
0
62
5
66
1
10
0
20
0
30
0
70
8
0
VERTEX
8
0
62
5
10
0.19163362
20
0.80651521
30
0
70
32
0
VERTEX
8
0
62
5
10
0.19163362
20
0.80651521
30
0
70
32
0
SEQEND
8
0
0
POLYLINE
8
0
62
5
66
1
10
0
20
0
30
0
70
8
0
VERTEX
8
0
62
5
10
0.21991789
20
0.80651521
30
0
70
32
0
VERTEX
8
0
62
5
10
0.21991789
20
0.80651521
30
0
70
32
0
SEQEND
8
0
0
POLYLINE
8
0
62
5
66
1
10
0
20
0
30
0
70
8
0
VERTEX
8
0
62
5
10
0.24820216
20
0.80651521
30
0
70
32
0
VERTEX
8
0
62
5
10
0.24820216
20
0.80651521
30
0
70
32
0
SEQEND
8
0
0
POLYLINE
8
0
62
30
66
1
10
0
20
0
30
0
70
8
0
VERTEX
8
0
62
30
10
-0.080591983
20
0.80651521
30
0
70
32
0
VERTEX
8
0
62
30
10
0.032545102
20
0.80651521
30
0
70
32
0
SEQEND
8
0
0
POLYLINE
8
0
62
30
66
1
10
0
20
0
30
0
70
8
0
VERTEX
8
0
62
30
10
-0.080591983
20
0.79317987
30
0
70
32
0
VERTEX
8
0
62
30
10
0.032545102
20
0.79317987
30
0
70
32
0
SEQEND
8
0
0
POLYLINE
8
0
62
5
66
1
10
0
20
0
30
0
70
8
0
VERTEX
8
0
62
5
10
-0.080591983
20
0.79317987
30
0
70
32
0
VERTEX
8
0
62
5
10
-0.062924819
20
0.80651521
30
0
70
32
0
VERTEX
8
0
62
5
10
-0.052307712
20
0.79317987
30
0
70
32
0
VERTEX
8
0
62
5
10
-0.034640547
20
0.80651521
30
0
70
32
0
VERTEX
8
0
62
5
10
-0.024023441
20
0.79317987
30
0
70
32
0
VERTEX
8
0
62
5
10
-0.0063562762
20
0.80651521
30
0
70
32
0
VERTEX
8
0
62
5
10
0.0042608307
20
0.79317987
30
0
70
32
0
VERTEX
8
0
62
5
10
0.021927995
20
0.80651521
30
0
70
32
0
VERTEX
8
0
62
5
10
0.032545102
20
0.79317987
30
0
70
32
0
SEQEND
8
0
0
POLYLINE
8
0
62
5
66
1
10
0
20
0
30
0
70
8
0
VERTEX
8
0
62
5
10
-0.052307712
20
0.79317987
30
0
70
32
0
VERTEX
8
0
62
5
10
-0.052307712
20
0.79317987
30
0
70
32
0
SEQEND
8
0
0
POLYLINE
8
0
62
5
66
1
10
0
20
0
30
0
70
8
0
VERTEX
8
0
62
5
10
-0.024023441
20
0.79317987
30
0
70
32
0
VERTEX
8
0
62
5
10
-0.024023441
20
0.79317987
30
0
70
32
0
SEQEND
8
0
0
POLYLINE
8
0
62
5
66
1
10
0
20
0
30
0
70
8
0
VERTEX
8
0
62
5
10
0.0042608307
20
0.79317987
30
0
70
32
0
VERTEX
8
0
62
5
10
0.0042608307
20
0.79317987
30
0
70
32
0
SEQEND
8
0
0
POLYLINE
8
0
62
5
66
1
10
0
20
0
30
0
70
8
0
VERTEX
8
0
62
5
10
-0.062924819
20
0.80651521
30
0
70
32
0
VERTEX
8
0
62
5
10
-0.062924819
20
0.80651521
30
0
70
32
0
SEQEND
8
0
0
POLYLINE
8
0
62
5
66
1
10
0
20
0
30
0
70
8
0
VERTEX
8
0
62
5
10
-0.034640547
20
0.80651521
30
0
70
32
0
VERTEX
8
0
62
5
10
-0.034640547
20
0.80651521
30
0
70
32
0
SEQEND
8
0
0
POLYLINE
8
0
62
5
66
1
10
0
20
0
30
0
70
8
0
VERTEX
8
0
62
5
10
-0.0063562762
20
0.80651521
30
0
70
32
0
VERTEX
8
0
62
5
10
-0.0063562762
20
0.80651521
30
0
70
32
0
SEQEND
8
0
0
POLYLINE
8
0
62
5
66
1
10
0
20
0
30
0
70
8
0
VERTEX
8
0
62
5
10
0.021927995
20
0.80651521
30
0
70
32
0
VERTEX
8
0
62
5
10
0.021927995
20
0.80651521
30
0
70
32
0
SEQEND
8
0
0
POLYLINE
8
0
62
5
66
1
10
0
20
0
30
0
70
8
0
VERTEX
8
0
62
5
10
0.021927995
20
0.80651521
30
0
70
32
0
VERTEX
8
0
62
5
10
0.021927995
20
0.85502695
30
0
70
32
0
SEQEND
8
0
0
POLYLINE
8
0
62
5
66
1
10
0
20
0
30
0
70
8
0
VERTEX
8
0
62
5
10
0.13506508
20
0.80651521
30
0
70
32
0
VERTEX
8
0
62
5
10
0.13506508
20
0.85502695
30
0
70
32
0
SEQEND
8
0
0
POLYLINE
8
0
62
5
66
1
10
0
20
0
30
0
70
8
0
VERTEX
8
0
62
5
10
0.050212266
20
0.80651521
30
0
70
32
0
VERTEX
8
0
62
5
10
0.050212266
20
0.85502695
30
0
70
32
0
SEQEND
8
0
0
POLYLINE
8
0
62
5
66
1
10
0
20
0
30
0
70
8
0
VERTEX
8
0
62
5
10
0.078496538
20
0.80651521
30
0
70
32
0
VERTEX
8
0
62
5
10
0.078496538
20
0.85502695
30
0
70
32
0
SEQEND
8
0
0
POLYLINE
8
0
62
5
66
1
10
0
20
0
30
0
70
8
0
VERTEX
8
0
62
5
10
0.10678081
20
0.80651521
30
0
70
32
0
VERTEX
8
0
62
5
10
0.10678081
20
0.85502695
30
0
70
32
0
SEQEND
8
0
0
POLYLINE
8
0
62
5
66
1
10
0
20
0
30
0
70
8
0
VERTEX
8
0
62
5
10
0.24820216
20
0.80651521
30
0
70
32
0
VERTEX
8
0
62
5
10
0.24820216
20
0.85502695
30
0
70
32
0
SEQEND
8
0
0
POLYLINE
8
0
62
5
66
1
10
0
20
0
30
0
70
8
0
VERTEX
8
0
62
5
10
0.16334935
20
0.80651521
30
0
70
32
0
VERTEX
8
0
62
5
10
0.16334935
20
0.85502695
30
0
70
32
0
SEQEND
8
0
0
POLYLINE
8
0
62
5
66
1
10
0
20
0
30
0
70
8
0
VERTEX
8
0
62
5
10
0.19163362
20
0.80651521
30
0
70
32
0
VERTEX
8
0
62
5
10
0.19163362
20
0.85502695
30
0
70
32
0
SEQEND
8
0
0
POLYLINE
8
0
62
5
66
1
10
0
20
0
30
0
70
8
0
VERTEX
8
0
62
5
10
0.21991789
20
0.80651521
30
0
70
32
0
VERTEX
8
0
62
5
10
0.21991789
20
0.85502695
30
0
70
32
0
SEQEND
8
0
0
POLYLINE
8
0
62
5
66
1
10
0
20
0
30
0
70
8
0
VERTEX
8
0
62
5
10
-0.09120909
20
0.80651521
30
0
70
32
0
VERTEX
8
0
62
5
10
-0.09120909
20
0.85502695
30
0
70
32
0
SEQEND
8
0
0
POLYLINE
8
0
62
5
66
1
10
0
20
0
30
0
70
8
0
VERTEX
8
0
62
5
10
-0.062924819
20
0.80651521
30
0
70
32
0
VERTEX
8
0
62
5
10
-0.062924819
20
0.85502695
30
0
70
32
0
SEQEND
8
0
0
POLYLINE
8
0
62
5
66
1
10
0
20
0
30
0
70
8
0
VERTEX
8
0
62
5
10
-0.034640547
20
0.80651521
30
0
70
32
0
VERTEX
8
0
62
5
10
-0.034640547
20
0.85502695
30
0
70
32
0
SEQEND
8
0
0
POLYLINE
8
0
62
5
66
1
10
0
20
0
30
0
70
8
0
VERTEX
8
0
62
5
10
-0.0063562762
20
0.80651521
30
0
70
32
0
VERTEX
8
0
62
5
10
-0.0063562762
20
0.85502695
30
0
70
32
0
SEQEND
8
0
0
POLYLINE
8
0
62
5
66
1
10
0
20
0
30
0
70
8
0
VERTEX
8
0
62
5
10
0.021927995
20
0.85502695
30
0
70
32
0
VERTEX
8
0
62
5
10
0.021927995
20
0.88305454
30
0
70
32
0
SEQEND
8
0
0
POLYLINE
8
0
62
5
66
1
10
0
20
0
30
0
70
8
0
VERTEX
8
0
62
5
10
0.13506508
20
0.88305454
30
0
70
32
0
VERTEX
8
0
62
5
10
0.13506508
20
0.85502695
30
0
70
32
0
SEQEND
8
0
0
POLYLINE
8
0
62
5
66
1
10
0
20
0
30
0
70
8
0
VERTEX
8
0
62
5
10
0.021927995
20
0.86157672
30
0
70
32
0
VERTEX
8
0
62
5
10
0.050212266
20
0.86904074
30
0
70
32
0
VERTEX
8
0
62
5
10
0.078496538
20
0.86250639
30
0
70
32
0
VERTEX
8
0
62
5
10
0.10678081
20
0.85504237
30
0
70
32
0
VERTEX
8
0
62
5
10
0.13506508
20
0.86157672
30
0
70
32
0
SEQEND
8
0
0
POLYLINE
8
0
62
5
66
1
10
0
20
0
30
0
70
8
0
SEQEND
8
0
0
POLYLINE
8
0
62
5
66
1
10
0
20
0
30
0
70
8
0
VERTEX
8
0
62
5
10
0.021927995
20
0.87650477
30
0
70
32
0
VERTEX
8
0
62
5
10
0.050212266
20
0.86904074
30
0
70
32
0
VERTEX
8
0
62
5
10
0.078496538
20
0.87557509
30
0
70
32
0
VERTEX
8
0
62
5
10
0.10678081
20
0.88303912
30
0
70
32
0
VERTEX
8
0
62
5
10
0.13506508
20
0.87650477
30
0
70
32
0
SEQEND
8
0
0
POLYLINE
8
0
62
30
66
1
10
0
20
0
30
0
70
8
0
VERTEX
8
0
62
30
10
0.021927995
20
0.86904074
30
0
70
32
0
VERTEX
8
0
62
30
10
0.13506508
20
0.86904074
30
0
70
32
0
SEQEND
8
0
0
POLYLINE
8
0
62
30
66
1
10
0
20
0
30
0
70
8
0
VERTEX
8
0
62
30
10
0.050212266
20
0.86904074
30
0
70
32
0
VERTEX
8
0
62
30
10
0.050212266
20
0.86904074
30
0
70
32
0
SEQEND
8
0
0
POLYLINE
8
0
62
30
66
1
10
0
20
0
30
0
70
8
0
VERTEX
8
0
62
30
10
0.078496538
20
0.86250639
30
0
70
32
0
VERTEX
8
0
62
30
10
0.078496538
20
0.86904074
30
0
70
32
0
SEQEND
8
0
0
POLYLINE
8
0
62
30
66
1
10
0
20
0
30
0
70
8
0
VERTEX
8
0
62
30
10
0.10678081
20
0.85504237
30
0
70
32
0
VERTEX
8
0
62
30
10
0.10678081
20
0.86904074
30
0
70
32
0
SEQEND
8
0
0
POLYLINE
8
0
62
5
66
1
10
0
20
0
30
0
70
8
0
VERTEX
8
0
62
5
10
0.050212266
20
0.85502695
30
0
70
32
0
VERTEX
8
0
62
5
10
0.050212266
20
0.86904074
30
0
70
32
0
SEQEND
8
0
0
POLYLINE
8
0
62
5
66
1
10
0
20
0
30
0
70
8
0
VERTEX
8
0
62
5
10
0.078496538
20
0.85502695
30
0
70
32
0
VERTEX
8
0
62
5
10
0.078496538
20
0.86250639
30
0
70
32
0
SEQEND
8
0
0
POLYLINE
8
0
62
5
66
1
10
0
20
0
30
0
70
8
0
VERTEX
8
0
62
5
10
0.10678081
20
0.85502695
30
0
70
32
0
VERTEX
8
0
62
5
10
0.10678081
20
0.85504237
30
0
70
32
0
SEQEND
8
0
0
POLYLINE
8
0
62
5
66
1
10
0
20
0
30
0
70
8
0
VERTEX
8
0
62
5
10
0.050212266
20
0.86904074
30
0
70
32
0
VERTEX
8
0
62
5
10
0.050212266
20
0.88305454
30
0
70
32
0
SEQEND
8
0
0
POLYLINE
8
0
62
5
66
1
10
0
20
0
30
0
70
8
0
VERTEX
8
0
62
5
10
0.078496538
20
0.86904074
30
0
70
32
0
VERTEX
8
0
62
5
10
0.078496538
20
0.88305454
30
0
70
32
0
SEQEND
8
0
0
POLYLINE
8
0
62
5
66
1
10
0
20
0
30
0
70
8
0
VERTEX
8
0
62
5
10
0.10678081
20
0.86904074
30
0
70
32
0
VERTEX
8
0
62
5
10
0.10678081
20
0.88305454
30
0
70
32
0
SEQEND
8
0
0
POLYLINE
8
0
62
5
66
1
10
0
20
0
30
0
70
8
0
VERTEX
8
0
62
5
10
0.24820216
20
0.88305454
30
0
70
32
0
VERTEX
8
0
62
5
10
0.24820216
20
0.85502695
30
0
70
32
0
SEQEND
8
0
0
POLYLINE
8
0
62
5
66
1
10
0
20
0
30
0
70
8
0
VERTEX
8
0
62
5
10
0.13506508
20
0.86157672
30
0
70
32
0
VERTEX
8
0
62
5
10
0.16334935
20
0.86904074
30
0
70
32
0
VERTEX
8
0
62
5
10
0.19163362
20
0.86250639
30
0
70
32
0
VERTEX
8
0
62
5
10
0.21991789
20
0.85504237
30
0
70
32
0
VERTEX
8
0
62
5
10
0.24820216
20
0.86157672
30
0
70
32
0
SEQEND
8
0
0
POLYLINE
8
0
62
5
66
1
10
0
20
0
30
0
70
8
0
SEQEND
8
0
0
POLYLINE
8
0
62
5
66
1
10
0
20
0
30
0
70
8
0
VERTEX
8
0
62
5
10
0.13506508
20
0.87650477
30
0
70
32
0
VERTEX
8
0
62
5
10
0.16334935
20
0.86904074
30
0
70
32
0
VERTEX
8
0
62
5
10
0.19163362
20
0.87557509
30
0
70
32
0
VERTEX
8
0
62
5
10
0.21991789
20
0.88303912
30
0
70
32
0
VERTEX
8
0
62
5
10
0.24820216
20
0.87650477
30
0
70
32
0
SEQEND
8
0
0
POLYLINE
8
0
62
30
66
1
10
0
20
0
30
0
70
8
0
VERTEX
8
0
62
30
10
0.13506508
20
0.86904074
30
0
70
32
0
VERTEX
8
0
62
30
10
0.24820216
20
0.86904074
30
0
70
32
0
SEQEND
8
0
0
POLYLINE
8
0
62
30
66
1
10
0
20
0
30
0
70
8
0
VERTEX
8
0
62
30
10
0.16334935
20
0.86904074
30
0
70
32
0
VERTEX
8
0
62
30
10
0.16334935
20
0.86904074
30
0
70
32
0
SEQEND
8
0
0
POLYLINE
8
0
62
30
66
1
10
0
20
0
30
0
70
8
0
VERTEX
8
0
62
30
10
0.19163362
20
0.86250639
30
0
70
32
0
VERTEX
8
0
62
30
10
0.19163362
20
0.86904074
30
0
70
32
0
SEQEND
8
0
0
POLYLINE
8
0
62
30
66
1
10
0
20
0
30
0
70
8
0
VERTEX
8
0
62
30
10
0.21991789
20
0.85504237
30
0
70
32
0
VERTEX
8
0
62
30
10
0.21991789
20
0.86904074
30
0
70
32
0
SEQEND
8
0
0
POLYLINE
8
0
62
5
66
1
10
0
20
0
30
0
70
8
0
VERTEX
8
0
62
5
10
0.16334935
20
0.85502695
30
0
70
32
0
VERTEX
8
0
62
5
10
0.16334935
20
0.86904074
30
0
70
32
0
SEQEND
8
0
0
POLYLINE
8
0
62
5
66
1
10
0
20
0
30
0
70
8
0
VERTEX
8
0
62
5
10
0.19163362
20
0.85502695
30
0
70
32
0
VERTEX
8
0
62
5
10
0.19163362
20
0.86250639
30
0
70
32
0
SEQEND
8
0
0
POLYLINE
8
0
62
5
66
1
10
0
20
0
30
0
70
8
0
VERTEX
8
0
62
5
10
0.21991789
20
0.85502695
30
0
70
32
0
VERTEX
8
0
62
5
10
0.21991789
20
0.85504237
30
0
70
32
0
SEQEND
8
0
0
POLYLINE
8
0
62
5
66
1
10
0
20
0
30
0
70
8
0
VERTEX
8
0
62
5
10
0.16334935
20
0.86904074
30
0
70
32
0
VERTEX
8
0
62
5
10
0.16334935
20
0.88305454
30
0
70
32
0
SEQEND
8
0
0
POLYLINE
8
0
62
5
66
1
10
0
20
0
30
0
70
8
0
VERTEX
8
0
62
5
10
0.19163362
20
0.86904074
30
0
70
32
0
VERTEX
8
0
62
5
10
0.19163362
20
0.88305454
30
0
70
32
0
SEQEND
8
0
0
POLYLINE
8
0
62
5
66
1
10
0
20
0
30
0
70
8
0
VERTEX
8
0
62
5
10
0.21991789
20
0.86904074
30
0
70
32
0
VERTEX
8
0
62
5
10
0.21991789
20
0.88305454
30
0
70
32
0
SEQEND
8
0
0
POLYLINE
8
0
62
5
66
1
10
0
20
0
30
0
70
8
0
VERTEX
8
0
62
5
10
-0.09120909
20
0.85502695
30
0
70
32
0
VERTEX
8
0
62
5
10
-0.09120909
20
0.88305454
30
0
70
32
0
SEQEND
8
0
0
POLYLINE
8
0
62
5
66
1
10
0
20
0
30
0
70
8
0
VERTEX
8
0
62
5
10
-0.09120909
20
0.86157672
30
0
70
32
0
VERTEX
8
0
62
5
10
-0.062924819
20
0.86904074
30
0
70
32
0
VERTEX
8
0
62
5
10
-0.034640547
20
0.86250639
30
0
70
32
0
VERTEX
8
0
62
5
10
-0.0063562762
20
0.85504237
30
0
70
32
0
VERTEX
8
0
62
5
10
0.021927995
20
0.86157672
30
0
70
32
0
SEQEND
8
0
0
POLYLINE
8
0
62
5
66
1
10
0
20
0
30
0
70
8
0
SEQEND
8
0
0
POLYLINE
8
0
62
5
66
1
10
0
20
0
30
0
70
8
0
VERTEX
8
0
62
5
10
-0.09120909
20
0.87650477
30
0
70
32
0
VERTEX
8
0
62
5
10
-0.062924819
20
0.86904074
30
0
70
32
0
VERTEX
8
0
62
5
10
-0.034640547
20
0.87557509
30
0
70
32
0
VERTEX
8
0
62
5
10
-0.0063562762
20
0.88303912
30
0
70
32
0
VERTEX
8
0
62
5
10
0.021927995
20
0.87650477
30
0
70
32
0
SEQEND
8
0
0
POLYLINE
8
0
62
30
66
1
10
0
20
0
30
0
70
8
0
VERTEX
8
0
62
30
10
-0.09120909
20
0.86904074
30
0
70
32
0
VERTEX
8
0
62
30
10
0.021927995
20
0.86904074
30
0
70
32
0
SEQEND
8
0
0
POLYLINE
8
0
62
30
66
1
10
0
20
0
30
0
70
8
0
VERTEX
8
0
62
30
10
-0.062924819
20
0.86904074
30
0
70
32
0
VERTEX
8
0
62
30
10
-0.062924819
20
0.86904074
30
0
70
32
0
SEQEND
8
0
0
POLYLINE
8
0
62
30
66
1
10
0
20
0
30
0
70
8
0
VERTEX
8
0
62
30
10
-0.034640547
20
0.86250639
30
0
70
32
0
VERTEX
8
0
62
30
10
-0.034640547
20
0.86904074
30
0
70
32
0
SEQEND
8
0
0
POLYLINE
8
0
62
30
66
1
10
0
20
0
30
0
70
8
0
VERTEX
8
0
62
30
10
-0.0063562762
20
0.85504237
30
0
70
32
0
VERTEX
8
0
62
30
10
-0.0063562762
20
0.86904074
30
0
70
32
0
SEQEND
8
0
0
POLYLINE
8
0
62
5
66
1
10
0
20
0
30
0
70
8
0
VERTEX
8
0
62
5
10
-0.062924819
20
0.85502695
30
0
70
32
0
VERTEX
8
0
62
5
10
-0.062924819
20
0.86904074
30
0
70
32
0
SEQEND
8
0
0
POLYLINE
8
0
62
5
66
1
10
0
20
0
30
0
70
8
0
VERTEX
8
0
62
5
10
-0.034640547
20
0.85502695
30
0
70
32
0
VERTEX
8
0
62
5
10
-0.034640547
20
0.86250639
30
0
70
32
0
SEQEND
8
0
0
POLYLINE
8
0
62
5
66
1
10
0
20
0
30
0
70
8
0
VERTEX
8
0
62
5
10
-0.0063562762
20
0.85502695
30
0
70
32
0
VERTEX
8
0
62
5
10
-0.0063562762
20
0.85504237
30
0
70
32
0
SEQEND
8
0
0
POLYLINE
8
0
62
5
66
1
10
0
20
0
30
0
70
8
0
VERTEX
8
0
62
5
10
-0.062924819
20
0.86904074
30
0
70
32
0
VERTEX
8
0
62
5
10
-0.062924819
20
0.88305454
30
0
70
32
0
SEQEND
8
0
0
POLYLINE
8
0
62
5
66
1
10
0
20
0
30
0
70
8
0
VERTEX
8
0
62
5
10
-0.034640547
20
0.86904074
30
0
70
32
0
VERTEX
8
0
62
5
10
-0.034640547
20
0.88305454
30
0
70
32
0
SEQEND
8
0
0
POLYLINE
8
0
62
5
66
1
10
0
20
0
30
0
70
8
0
VERTEX
8
0
62
5
10
-0.0063562762
20
0.86904074
30
0
70
32
0
VERTEX
8
0
62
5
10
-0.0063562762
20
0.88305454
30
0
70
32
0
SEQEND
8
0
0
POLYLINE
8
0
62
5
66
1
10
0
20
0
30
0
70
8
0
VERTEX
8
0
62
5
10
0.021927995
20
0.88305454
30
0
70
32
0
VERTEX
8
0
62
5
10
0.021927995
20
0.92305454
30
0
70
32
0
SEQEND
8
0
0
POLYLINE
8
0
62
5
66
1
10
0
20
0
30
0
70
8
0
VERTEX
8
0
62
5
10
0.13506508
20
0.92305454
30
0
70
32
0
VERTEX
8
0
62
5
10
0.13506508
20
0.88305454
30
0
70
32
0
SEQEND
8
0
0
POLYLINE
8
0
62
5
66
1
10
0
20
0
30
0
70
8
0
VERTEX
8
0
62
5
10
0.021927995
20
0.88305454
30
0
70
32
0
VERTEX
8
0
62
5
10
0.13506508
20
0.88305454
30
0
70
32
0
SEQEND
8
0
0
POLYLINE
8
0
62
5
66
1
10
0
20
0
30
0
70
8
0
VERTEX
8
0
62
5
10
0.021927995
20
0.92305454
30
0
70
32
0
VERTEX
8
0
62
5
10
0.13506508
20
0.92305454
30
0
70
32
0
SEQEND
8
0
0
POLYLINE
8
0
62
5
66
1
10
0
20
0
30
0
70
8
0
VERTEX
8
0
62
5
10
0.050212266
20
0.88305454
30
0
70
32
0
VERTEX
8
0
62
5
10
0.050212266
20
0.88305454
30
0
70
32
0
SEQEND
8
0
0
POLYLINE
8
0
62
5
66
1
10
0
20
0
30
0
70
8
0
VERTEX
8
0
62
5
10
0.078496538
20
0.88305454
30
0
70
32
0
VERTEX
8
0
62
5
10
0.078496538
20
0.88305454
30
0
70
32
0
SEQEND
8
0
0
POLYLINE
8
0
62
5
66
1
10
0
20
0
30
0
70
8
0
VERTEX
8
0
62
5
10
0.10678081
20
0.88305454
30
0
70
32
0
VERTEX
8
0
62
5
10
0.10678081
20
0.88305454
30
0
70
32
0
SEQEND
8
0
0
POLYLINE
8
0
62
5
66
1
10
0
20
0
30
0
70
8
0
VERTEX
8
0
62
5
10
0.050212266
20
0.92305454
30
0
70
32
0
VERTEX
8
0
62
5
10
0.050212266
20
0.92305454
30
0
70
32
0
SEQEND
8
0
0
POLYLINE
8
0
62
5
66
1
10
0
20
0
30
0
70
8
0
VERTEX
8
0
62
5
10
0.078496538
20
0.92305454
30
0
70
32
0
VERTEX
8
0
62
5
10
0.078496538
20
0.92305454
30
0
70
32
0
SEQEND
8
0
0
POLYLINE
8
0
62
5
66
1
10
0
20
0
30
0
70
8
0
VERTEX
8
0
62
5
10
0.10678081
20
0.92305454
30
0
70
32
0
VERTEX
8
0
62
5
10
0.10678081
20
0.92305454
30
0
70
32
0
SEQEND
8
0
0
POLYLINE
8
0
62
30
66
1
10
0
20
0
30
0
70
8
0
VERTEX
8
0
62
30
10
0.021927995
20
0.88305454
30
0
70
32
0
VERTEX
8
0
62
30
10
0.036070131
20
0.90305454
30
0
70
32
0
SEQEND
8
0
0
POLYLINE
8
0
62
30
66
1
10
0
20
0
30
0
70
8
0
VERTEX
8
0
62
30
10
0.036070131
20
0.90305454
30
0
70
32
0
VERTEX
8
0
62
30
10
0.050212266
20
0.88305454
30
0
70
32
0
SEQEND
8
0
0
POLYLINE
8
0
62
30
66
1
10
0
20
0
30
0
70
8
0
VERTEX
8
0
62
30
10
0.078496538
20
0.88305454
30
0
70
32
0
VERTEX
8
0
62
30
10
0.092638673
20
0.90305454
30
0
70
32
0
SEQEND
8
0
0
POLYLINE
8
0
62
30
66
1
10
0
20
0
30
0
70
8
0
VERTEX
8
0
62
30
10
0.092638673
20
0.90305454
30
0
70
32
0
VERTEX
8
0
62
30
10
0.10678081
20
0.88305454
30
0
70
32
0
SEQEND
8
0
0
POLYLINE
8
0
62
30
66
1
10
0
20
0
30
0
70
8
0
VERTEX
8
0
62
30
10
0.050212266
20
0.90305454
30
0
70
32
0
VERTEX
8
0
62
30
10
0.078496538
20
0.90305454
30
0
70
32
0
SEQEND
8
0
0
POLYLINE
8
0
62
30
66
1
10
0
20
0
30
0
70
8
0
VERTEX
8
0
62
30
10
0.10678081
20
0.90305454
30
0
70
32
0
VERTEX
8
0
62
30
10
0.13506508
20
0.90305454
30
0
70
32
0
SEQEND
8
0
0
POLYLINE
8
0
62
5
66
1
10
0
20
0
30
0
70
8
0
VERTEX
8
0
62
5
10
0.021927995
20
0.90305454
30
0
70
32
0
VERTEX
8
0
62
5
10
0.036070131
20
0.90305454
30
0
70
32
0
SEQEND
8
0
0
POLYLINE
8
0
62
5
66
1
10
0
20
0
30
0
70
8
0
VERTEX
8
0
62
5
10
0.078496538
20
0.90305454
30
0
70
32
0
VERTEX
8
0
62
5
10
0.092638673
20
0.90305454
30
0
70
32
0
SEQEND
8
0
0
POLYLINE
8
0
62
5
66
1
10
0
20
0
30
0
70
8
0
VERTEX
8
0
62
5
10
0.036070131
20
0.90305454
30
0
70
32
0
VERTEX
8
0
62
5
10
0.050212266
20
0.90305454
30
0
70
32
0
SEQEND
8
0
0
POLYLINE
8
0
62
5
66
1
10
0
20
0
30
0
70
8
0
VERTEX
8
0
62
5
10
0.092638673
20
0.90305454
30
0
70
32
0
VERTEX
8
0
62
5
10
0.10678081
20
0.90305454
30
0
70
32
0
SEQEND
8
0
0
POLYLINE
8
0
62
5
66
1
10
0
20
0
30
0
70
8
0
VERTEX
8
0
62
5
10
0.050212266
20
0.88305454
30
0
70
32
0
VERTEX
8
0
62
5
10
0.050212266
20
0.92305454
30
0
70
32
0
SEQEND
8
0
0
POLYLINE
8
0
62
5
66
1
10
0
20
0
30
0
70
8
0
VERTEX
8
0
62
5
10
0.078496538
20
0.88305454
30
0
70
32
0
VERTEX
8
0
62
5
10
0.078496538
20
0.92305454
30
0
70
32
0
SEQEND
8
0
0
POLYLINE
8
0
62
5
66
1
10
0
20
0
30
0
70
8
0
VERTEX
8
0
62
5
10
0.10678081
20
0.88305454
30
0
70
32
0
VERTEX
8
0
62
5
10
0.10678081
20
0.92305454
30
0
70
32
0
SEQEND
8
0
0
POLYLINE
8
0
62
5
66
1
10
0
20
0
30
0
70
8
0
VERTEX
8
0
62
5
10
0.021927995
20
0.88305454
30
0
70
32
0
VERTEX
8
0
62
5
10
0.021927995
20
0.92305454
30
0
70
32
0
SEQEND
8
0
0
POLYLINE
8
0
62
5
66
1
10
0
20
0
30
0
70
8
0
VERTEX
8
0
62
5
10
0.24820216
20
0.92305454
30
0
70
32
0
VERTEX
8
0
62
5
10
0.24820216
20
0.88305454
30
0
70
32
0
SEQEND
8
0
0
POLYLINE
8
0
62
5
66
1
10
0
20
0
30
0
70
8
0
VERTEX
8
0
62
5
10
0.13506508
20
0.88305454
30
0
70
32
0
VERTEX
8
0
62
5
10
0.24820216
20
0.88305454
30
0
70
32
0
SEQEND
8
0
0
POLYLINE
8
0
62
5
66
1
10
0
20
0
30
0
70
8
0
VERTEX
8
0
62
5
10
0.13506508
20
0.92305454
30
0
70
32
0
VERTEX
8
0
62
5
10
0.24820216
20
0.92305454
30
0
70
32
0
SEQEND
8
0
0
POLYLINE
8
0
62
5
66
1
10
0
20
0
30
0
70
8
0
VERTEX
8
0
62
5
10
0.16334935
20
0.88305454
30
0
70
32
0
VERTEX
8
0
62
5
10
0.16334935
20
0.88305454
30
0
70
32
0
SEQEND
8
0
0
POLYLINE
8
0
62
5
66
1
10
0
20
0
30
0
70
8
0
VERTEX
8
0
62
5
10
0.19163362
20
0.88305454
30
0
70
32
0
VERTEX
8
0
62
5
10
0.19163362
20
0.88305454
30
0
70
32
0
SEQEND
8
0
0
POLYLINE
8
0
62
5
66
1
10
0
20
0
30
0
70
8
0
VERTEX
8
0
62
5
10
0.21991789
20
0.88305454
30
0
70
32
0
VERTEX
8
0
62
5
10
0.21991789
20
0.88305454
30
0
70
32
0
SEQEND
8
0
0
POLYLINE
8
0
62
5
66
1
10
0
20
0
30
0
70
8
0
VERTEX
8
0
62
5
10
0.16334935
20
0.92305454
30
0
70
32
0
VERTEX
8
0
62
5
10
0.16334935
20
0.92305454
30
0
70
32
0
SEQEND
8
0
0
POLYLINE
8
0
62
5
66
1
10
0
20
0
30
0
70
8
0
VERTEX
8
0
62
5
10
0.19163362
20
0.92305454
30
0
70
32
0
VERTEX
8
0
62
5
10
0.19163362
20
0.92305454
30
0
70
32
0
SEQEND
8
0
0
POLYLINE
8
0
62
5
66
1
10
0
20
0
30
0
70
8
0
VERTEX
8
0
62
5
10
0.21991789
20
0.92305454
30
0
70
32
0
VERTEX
8
0
62
5
10
0.21991789
20
0.92305454
30
0
70
32
0
SEQEND
8
0
0
POLYLINE
8
0
62
30
66
1
10
0
20
0
30
0
70
8
0
VERTEX
8
0
62
30
10
0.13506508
20
0.88305454
30
0
70
32
0
VERTEX
8
0
62
30
10
0.14920722
20
0.90305454
30
0
70
32
0
SEQEND
8
0
0
POLYLINE
8
0
62
30
66
1
10
0
20
0
30
0
70
8
0
VERTEX
8
0
62
30
10
0.14920722
20
0.90305454
30
0
70
32
0
VERTEX
8
0
62
30
10
0.16334935
20
0.88305454
30
0
70
32
0
SEQEND
8
0
0
POLYLINE
8
0
62
30
66
1
10
0
20
0
30
0
70
8
0
VERTEX
8
0
62
30
10
0.19163362
20
0.88305454
30
0
70
32
0
VERTEX
8
0
62
30
10
0.20577576
20
0.90305454
30
0
70
32
0
SEQEND
8
0
0
POLYLINE
8
0
62
30
66
1
10
0
20
0
30
0
70
8
0
VERTEX
8
0
62
30
10
0.20577576
20
0.90305454
30
0
70
32
0
VERTEX
8
0
62
30
10
0.21991789
20
0.88305454
30
0
70
32
0
SEQEND
8
0
0
POLYLINE
8
0
62
30
66
1
10
0
20
0
30
0
70
8
0
VERTEX
8
0
62
30
10
0.16334935
20
0.90305454
30
0
70
32
0
VERTEX
8
0
62
30
10
0.19163362
20
0.90305454
30
0
70
32
0
SEQEND
8
0
0
POLYLINE
8
0
62
30
66
1
10
0
20
0
30
0
70
8
0
VERTEX
8
0
62
30
10
0.21991789
20
0.90305454
30
0
70
32
0
VERTEX
8
0
62
30
10
0.24820216
20
0.90305454
30
0
70
32
0
SEQEND
8
0
0
POLYLINE
8
0
62
5
66
1
10
0
20
0
30
0
70
8
0
VERTEX
8
0
62
5
10
0.13506508
20
0.90305454
30
0
70
32
0
VERTEX
8
0
62
5
10
0.14920722
20
0.90305454
30
0
70
32
0
SEQEND
8
0
0
POLYLINE
8
0
62
5
66
1
10
0
20
0
30
0
70
8
0
VERTEX
8
0
62
5
10
0.19163362
20
0.90305454
30
0
70
32
0
VERTEX
8
0
62
5
10
0.20577576
20
0.90305454
30
0
70
32
0
SEQEND
8
0
0
POLYLINE
8
0
62
5
66
1
10
0
20
0
30
0
70
8
0
VERTEX
8
0
62
5
10
0.14920722
20
0.90305454
30
0
70
32
0
VERTEX
8
0
62
5
10
0.16334935
20
0.90305454
30
0
70
32
0
SEQEND
8
0
0
POLYLINE
8
0
62
5
66
1
10
0
20
0
30
0
70
8
0
VERTEX
8
0
62
5
10
0.20577576
20
0.90305454
30
0
70
32
0
VERTEX
8
0
62
5
10
0.21991789
20
0.90305454
30
0
70
32
0
SEQEND
8
0
0
POLYLINE
8
0
62
5
66
1
10
0
20
0
30
0
70
8
0
VERTEX
8
0
62
5
10
0.16334935
20
0.88305454
30
0
70
32
0
VERTEX
8
0
62
5
10
0.16334935
20
0.92305454
30
0
70
32
0
SEQEND
8
0
0
POLYLINE
8
0
62
5
66
1
10
0
20
0
30
0
70
8
0
VERTEX
8
0
62
5
10
0.19163362
20
0.88305454
30
0
70
32
0
VERTEX
8
0
62
5
10
0.19163362
20
0.92305454
30
0
70
32
0
SEQEND
8
0
0
POLYLINE
8
0
62
5
66
1
10
0
20
0
30
0
70
8
0
VERTEX
8
0
62
5
10
0.21991789
20
0.88305454
30
0
70
32
0
VERTEX
8
0
62
5
10
0.21991789
20
0.92305454
30
0
70
32
0
SEQEND
8
0
0
POLYLINE
8
0
62
5
66
1
10
0
20
0
30
0
70
8
0
VERTEX
8
0
62
5
10
0.13506508
20
0.88305454
30
0
70
32
0
VERTEX
8
0
62
5
10
0.13506508
20
0.92305454
30
0
70
32
0
SEQEND
8
0
0
POLYLINE
8
0
62
5
66
1
10
0
20
0
30
0
70
8
0
VERTEX
8
0
62
5
10
-0.09120909
20
0.88305454
30
0
70
32
0
VERTEX
8
0
62
5
10
-0.09120909
20
0.92305454
30
0
70
32
0
SEQEND
8
0
0
POLYLINE
8
0
62
5
66
1
10
0
20
0
30
0
70
8
0
VERTEX
8
0
62
5
10
-0.09120909
20
0.88305454
30
0
70
32
0
VERTEX
8
0
62
5
10
0.021927995
20
0.88305454
30
0
70
32
0
SEQEND
8
0
0
POLYLINE
8
0
62
5
66
1
10
0
20
0
30
0
70
8
0
VERTEX
8
0
62
5
10
-0.09120909
20
0.92305454
30
0
70
32
0
VERTEX
8
0
62
5
10
0.021927995
20
0.92305454
30
0
70
32
0
SEQEND
8
0
0
POLYLINE
8
0
62
5
66
1
10
0
20
0
30
0
70
8
0
VERTEX
8
0
62
5
10
-0.062924819
20
0.88305454
30
0
70
32
0
VERTEX
8
0
62
5
10
-0.062924819
20
0.88305454
30
0
70
32
0
SEQEND
8
0
0
POLYLINE
8
0
62
5
66
1
10
0
20
0
30
0
70
8
0
VERTEX
8
0
62
5
10
-0.034640547
20
0.88305454
30
0
70
32
0
VERTEX
8
0
62
5
10
-0.034640547
20
0.88305454
30
0
70
32
0
SEQEND
8
0
0
POLYLINE
8
0
62
5
66
1
10
0
20
0
30
0
70
8
0
VERTEX
8
0
62
5
10
-0.0063562762
20
0.88305454
30
0
70
32
0
VERTEX
8
0
62
5
10
-0.0063562762
20
0.88305454
30
0
70
32
0
SEQEND
8
0
0
POLYLINE
8
0
62
5
66
1
10
0
20
0
30
0
70
8
0
VERTEX
8
0
62
5
10
-0.062924819
20
0.92305454
30
0
70
32
0
VERTEX
8
0
62
5
10
-0.062924819
20
0.92305454
30
0
70
32
0
SEQEND
8
0
0
POLYLINE
8
0
62
5
66
1
10
0
20
0
30
0
70
8
0
VERTEX
8
0
62
5
10
-0.034640547
20
0.92305454
30
0
70
32
0
VERTEX
8
0
62
5
10
-0.034640547
20
0.92305454
30
0
70
32
0
SEQEND
8
0
0
POLYLINE
8
0
62
5
66
1
10
0
20
0
30
0
70
8
0
VERTEX
8
0
62
5
10
-0.0063562762
20
0.92305454
30
0
70
32
0
VERTEX
8
0
62
5
10
-0.0063562762
20
0.92305454
30
0
70
32
0
SEQEND
8
0
0
POLYLINE
8
0
62
30
66
1
10
0
20
0
30
0
70
8
0
VERTEX
8
0
62
30
10
-0.09120909
20
0.88305454
30
0
70
32
0
VERTEX
8
0
62
30
10
-0.077066954
20
0.90305454
30
0
70
32
0
SEQEND
8
0
0
POLYLINE
8
0
62
30
66
1
10
0
20
0
30
0
70
8
0
VERTEX
8
0
62
30
10
-0.077066954
20
0.90305454
30
0
70
32
0
VERTEX
8
0
62
30
10
-0.062924819
20
0.88305454
30
0
70
32
0
SEQEND
8
0
0
POLYLINE
8
0
62
30
66
1
10
0
20
0
30
0
70
8
0
VERTEX
8
0
62
30
10
-0.034640547
20
0.88305454
30
0
70
32
0
VERTEX
8
0
62
30
10
-0.020498412
20
0.90305454
30
0
70
32
0
SEQEND
8
0
0
POLYLINE
8
0
62
30
66
1
10
0
20
0
30
0
70
8
0
VERTEX
8
0
62
30
10
-0.020498412
20
0.90305454
30
0
70
32
0
VERTEX
8
0
62
30
10
-0.0063562762
20
0.88305454
30
0
70
32
0
SEQEND
8
0
0
POLYLINE
8
0
62
30
66
1
10
0
20
0
30
0
70
8
0
VERTEX
8
0
62
30
10
-0.062924819
20
0.90305454
30
0
70
32
0
VERTEX
8
0
62
30
10
-0.034640547
20
0.90305454
30
0
70
32
0
SEQEND
8
0
0
POLYLINE
8
0
62
30
66
1
10
0
20
0
30
0
70
8
0
VERTEX
8
0
62
30
10
-0.0063562762
20
0.90305454
30
0
70
32
0
VERTEX
8
0
62
30
10
0.021927995
20
0.90305454
30
0
70
32
0
SEQEND
8
0
0
POLYLINE
8
0
62
5
66
1
10
0
20
0
30
0
70
8
0
VERTEX
8
0
62
5
10
-0.09120909
20
0.90305454
30
0
70
32
0
VERTEX
8
0
62
5
10
-0.077066954
20
0.90305454
30
0
70
32
0
SEQEND
8
0
0
POLYLINE
8
0
62
5
66
1
10
0
20
0
30
0
70
8
0
VERTEX
8
0
62
5
10
-0.034640547
20
0.90305454
30
0
70
32
0
VERTEX
8
0
62
5
10
-0.020498412
20
0.90305454
30
0
70
32
0
SEQEND
8
0
0
POLYLINE
8
0
62
5
66
1
10
0
20
0
30
0
70
8
0
VERTEX
8
0
62
5
10
-0.077066954
20
0.90305454
30
0
70
32
0
VERTEX
8
0
62
5
10
-0.062924819
20
0.90305454
30
0
70
32
0
SEQEND
8
0
0
POLYLINE
8
0
62
5
66
1
10
0
20
0
30
0
70
8
0
VERTEX
8
0
62
5
10
-0.020498412
20
0.90305454
30
0
70
32
0
VERTEX
8
0
62
5
10
-0.0063562762
20
0.90305454
30
0
70
32
0
SEQEND
8
0
0
POLYLINE
8
0
62
5
66
1
10
0
20
0
30
0
70
8
0
VERTEX
8
0
62
5
10
-0.062924819
20
0.88305454
30
0
70
32
0
VERTEX
8
0
62
5
10
-0.062924819
20
0.92305454
30
0
70
32
0
SEQEND
8
0
0
POLYLINE
8
0
62
5
66
1
10
0
20
0
30
0
70
8
0
VERTEX
8
0
62
5
10
-0.034640547
20
0.88305454
30
0
70
32
0
VERTEX
8
0
62
5
10
-0.034640547
20
0.92305454
30
0
70
32
0
SEQEND
8
0
0
POLYLINE
8
0
62
5
66
1
10
0
20
0
30
0
70
8
0
VERTEX
8
0
62
5
10
-0.0063562762
20
0.88305454
30
0
70
32
0
VERTEX
8
0
62
5
10
-0.0063562762
20
0.92305454
30
0
70
32
0
SEQEND
8
0
0
POLYLINE
8
0
62
5
66
1
10
0
20
0
30
0
70
8
0
VERTEX
8
0
62
5
10
-0.09120909
20
0.88305454
30
0
70
32
0
VERTEX
8
0
62
5
10
-0.09120909
20
0.92305454
30
0
70
32
0
SEQEND
8
0
0
POLYLINE
8
0
62
18
66
1
10
0
20
0
30
0
70
8
0
VERTEX
8
0
62
18
10
0
20
0
30
0
70
32
0
VERTEX
8
0
62
18
10
0.14142136
20
0
30
0
70
32
0
VERTEX
8
0
62
18
10
0.14142136
20
0.31402439
30
0
70
32
0
VERTEX
8
0
62
18
10
0
20
0.31402439
30
0
70
32
0
VERTEX
8
0
62
18
10
0
20
0
30
0
70
32
0
SEQEND
8
0
0
POLYLINE
8
0
62
5
66
1
10
0
20
0
30
0
70
8
0
VERTEX
8
0
62
5
10
0
20
0.31402439
30
0
70
32
0
VERTEX
8
0
62
5
10
0.14142136
20
0.31402439
30
0
70
32
0
SEQEND
8
0
0
POLYLINE
8
0
62
18
66
1
10
0
20
0
30
0
70
8
0
VERTEX
8
0
62
18
10
0
20
0.29402439
30
0
70
32
0
VERTEX
8
0
62
18
10
0.14142136
20
0.29402439
30
0
70
32
0
VERTEX
8
0
62
18
10
0.14142136
20
0.60168598
30
0
70
32
0
VERTEX
8
0
62
18
10
0
20
0.60168598
30
0
70
32
0
VERTEX
8
0
62
18
10
0
20
0.29402439
30
0
70
32
0
SEQEND
8
0
0
POLYLINE
8
0
62
5
66
1
10
0
20
0
30
0
70
8
0
VERTEX
8
0
62
5
10
0
20
0.60168598
30
0
70
32
0
VERTEX
8
0
62
5
10
0.14142136
20
0.60168598
30
0
70
32
0
SEQEND
8
0
0
POLYLINE
8
0
62
18
66
1
10
0
20
0
30
0
70
8
0
VERTEX
8
0
62
18
10
0
20
0.58168598
30
0
70
32
0
VERTEX
8
0
62
18
10
0.14142136
20
0.58168598
30
0
70
32
0
VERTEX
8
0
62
18
10
0.14142136
20
0.83077108
30
0
70
32
0
VERTEX
8
0
62
18
10
0
20
0.83077108
30
0
70
32
0
VERTEX
8
0
62
18
10
0
20
0.58168598
30
0
70
32
0
SEQEND
8
0
0
POLYLINE
8
0
62
5
66
1
10
0
20
0
30
0
70
8
0
VERTEX
8
0
62
5
10
0
20
0.83077108
30
0
70
32
0
VERTEX
8
0
62
5
10
0.14142136
20
0.83077108
30
0
70
32
0
SEQEND
8
0
0
POLYLINE
8
0
62
18
66
1
10
0
20
0
30
0
70
8
0
VERTEX
8
0
62
18
10
0
20
0.81077108
30
0
70
32
0
VERTEX
8
0
62
18
10
0.14142136
20
0.81077108
30
0
70
32
0
VERTEX
8
0
62
18
10
0.14142136
20
0.92305454
30
0
70
32
0
VERTEX
8
0
62
18
10
0
20
0.92305454
30
0
70
32
0
VERTEX
8
0
62
18
10
0
20
0.81077108
30
0
70
32
0
SEQEND
8
0
0
POLYLINE
8
0
62
18
66
1
10
0
20
0
30
0
70
8
0
VERTEX
8
0
62
18
10
0.14142136
20
0
30
0
70
32
0
VERTEX
8
0
62
18
10
0
20
0
30
0
70
32
0
VERTEX
8
0
62
18
10
0
20
0.92305454
30
0
70
32
0
VERTEX
8
0
62
18
10
0.14142136
20
0.92305454
30
0
70
32
0
VERTEX
8
0
62
18
10
0.14142136
20
0
30
0
70
32
0
SEQEND
8
0
0
ENDSEC
0
EOF
