0
SECTION
2
HEADER
9
$ACADVER
1
AC1006
9
$INSUNITS
70
6
0
ENDSEC
0
SECTION
2
ENTITIES
0
POLYLINE
8
0
62
5
66
1
10
0
20
0
30
0
70
8
0
VERTEX
8
0
62
5
10
0
20
0
30
0
70
32
0
VERTEX
8
0
62
5
10
0
20
0.1
30
0
70
32
0
SEQEND
8
0
0
POLYLINE
8
0
62
5
66
1
10
0
20
0
30
0
70
8
0
VERTEX
8
0
62
5
10
0.11313708
20
0
30
0
70
32
0
VERTEX
8
0
62
5
10
0.11313708
20
0.1
30
0
70
32
0
SEQEND
8
0
0
POLYLINE
8
0
62
5
66
1
10
0
20
0
30
0
70
8
0
VERTEX
8
0
62
5
10
0.028284271
20
0
30
0
70
32
0
VERTEX
8
0
62
5
10
0.028284271
20
0.1
30
0
70
32
0
SEQEND
8
0
0
POLYLINE
8
0
62
5
66
1
10
0
20
0
30
0
70
8
0
VERTEX
8
0
62
5
10
0.056568542
20
0
30
0
70
32
0
VERTEX
8
0
62
5
10
0.056568542
20
0.1
30
0
70
32
0
SEQEND
8
0
0
POLYLINE
8
0
62
5
66
1
10
0
20
0
30
0
70
8
0
VERTEX
8
0
62
5
10
0.084852814
20
0
30
0
70
32
0
VERTEX
8
0
62
5
10
0.084852814
20
0.1
30
0
70
32
0
SEQEND
8
0
0
POLYLINE
8
0
62
5
66
1
10
0
20
0
30
0
70
8
0
VERTEX
8
0
62
5
10
0.22627417
20
0
30
0
70
32
0
VERTEX
8
0
62
5
10
0.22627417
20
0.1
30
0
70
32
0
SEQEND
8
0
0
POLYLINE
8
0
62
5
66
1
10
0
20
0
30
0
70
8
0
VERTEX
8
0
62
5
10
0.14142136
20
0
30
0
70
32
0
VERTEX
8
0
62
5
10
0.14142136
20
0.1
30
0
70
32
0
SEQEND
8
0
0
POLYLINE
8
0
62
5
66
1
10
0
20
0
30
0
70
8
0
VERTEX
8
0
62
5
10
0.16970563
20
0
30
0
70
32
0
VERTEX
8
0
62
5
10
0.16970563
20
0.1
30
0
70
32
0
SEQEND
8
0
0
POLYLINE
8
0
62
5
66
1
10
0
20
0
30
0
70
8
0
VERTEX
8
0
62
5
10
0.1979899
20
0
30
0
70
32
0
VERTEX
8
0
62
5
10
0.1979899
20
0.1
30
0
70
32
0
SEQEND
8
0
0
POLYLINE
8
0
62
5
66
1
10
0
20
0
30
0
70
8
0
VERTEX
8
0
62
5
10
-0.11313708
20
0
30
0
70
32
0
VERTEX
8
0
62
5
10
-0.11313708
20
0.1
30
0
70
32
0
SEQEND
8
0
0
POLYLINE
8
0
62
5
66
1
10
0
20
0
30
0
70
8
0
VERTEX
8
0
62
5
10
-0.084852814
20
0
30
0
70
32
0
VERTEX
8
0
62
5
10
-0.084852814
20
0.1
30
0
70
32
0
SEQEND
8
0
0
POLYLINE
8
0
62
5
66
1
10
0
20
0
30
0
70
8
0
VERTEX
8
0
62
5
10
-0.056568542
20
0
30
0
70
32
0
VERTEX
8
0
62
5
10
-0.056568542
20
0.1
30
0
70
32
0
SEQEND
8
0
0
POLYLINE
8
0
62
5
66
1
10
0
20
0
30
0
70
8
0
VERTEX
8
0
62
5
10
-0.028284271
20
0
30
0
70
32
0
VERTEX
8
0
62
5
10
-0.028284271
20
0.1
30
0
70
32
0
SEQEND
8
0
0
POLYLINE
8
0
62
5
66
1
10
0
20
0
30
0
70
8
0
VERTEX
8
0
62
5
10
0
20
0.1
30
0
70
32
0
VERTEX
8
0
62
5
10
0
20
0.101
30
0
70
32
0
SEQEND
8
0
0
POLYLINE
8
0
62
5
66
1
10
0
20
0
30
0
70
8
0
VERTEX
8
0
62
5
10
0.11313708
20
0.1
30
0
70
32
0
VERTEX
8
0
62
5
10
0.11313708
20
0.101
30
0
70
32
0
SEQEND
8
0
0
POLYLINE
8
0
62
5
66
1
10
0
20
0
30
0
70
8
0
VERTEX
8
0
62
5
10
0.028284271
20
0.1
30
0
70
32
0
VERTEX
8
0
62
5
10
0.028284271
20
0.101
30
0
70
32
0
SEQEND
8
0
0
POLYLINE
8
0
62
5
66
1
10
0
20
0
30
0
70
8
0
VERTEX
8
0
62
5
10
0.056568542
20
0.1
30
0
70
32
0
VERTEX
8
0
62
5
10
0.056568542
20
0.101
30
0
70
32
0
SEQEND
8
0
0
POLYLINE
8
0
62
5
66
1
10
0
20
0
30
0
70
8
0
VERTEX
8
0
62
5
10
0.084852814
20
0.1
30
0
70
32
0
VERTEX
8
0
62
5
10
0.084852814
20
0.101
30
0
70
32
0
SEQEND
8
0
0
POLYLINE
8
0
62
5
66
1
10
0
20
0
30
0
70
8
0
VERTEX
8
0
62
5
10
0.22627417
20
0.1
30
0
70
32
0
VERTEX
8
0
62
5
10
0.22627417
20
0.101
30
0
70
32
0
SEQEND
8
0
0
POLYLINE
8
0
62
5
66
1
10
0
20
0
30
0
70
8
0
VERTEX
8
0
62
5
10
0.14142136
20
0.1
30
0
70
32
0
VERTEX
8
0
62
5
10
0.14142136
20
0.101
30
0
70
32
0
SEQEND
8
0
0
POLYLINE
8
0
62
5
66
1
10
0
20
0
30
0
70
8
0
VERTEX
8
0
62
5
10
0.16970563
20
0.1
30
0
70
32
0
VERTEX
8
0
62
5
10
0.16970563
20
0.101
30
0
70
32
0
SEQEND
8
0
0
POLYLINE
8
0
62
5
66
1
10
0
20
0
30
0
70
8
0
VERTEX
8
0
62
5
10
0.1979899
20
0.1
30
0
70
32
0
VERTEX
8
0
62
5
10
0.1979899
20
0.101
30
0
70
32
0
SEQEND
8
0
0
POLYLINE
8
0
62
5
66
1
10
0
20
0
30
0
70
8
0
VERTEX
8
0
62
5
10
-0.11313708
20
0.1
30
0
70
32
0
VERTEX
8
0
62
5
10
-0.11313708
20
0.101
30
0
70
32
0
SEQEND
8
0
0
POLYLINE
8
0
62
5
66
1
10
0
20
0
30
0
70
8
0
VERTEX
8
0
62
5
10
-0.084852814
20
0.1
30
0
70
32
0
VERTEX
8
0
62
5
10
-0.084852814
20
0.101
30
0
70
32
0
SEQEND
8
0
0
POLYLINE
8
0
62
5
66
1
10
0
20
0
30
0
70
8
0
VERTEX
8
0
62
5
10
-0.056568542
20
0.1
30
0
70
32
0
VERTEX
8
0
62
5
10
-0.056568542
20
0.101
30
0
70
32
0
SEQEND
8
0
0
POLYLINE
8
0
62
5
66
1
10
0
20
0
30
0
70
8
0
VERTEX
8
0
62
5
10
-0.028284271
20
0.1
30
0
70
32
0
VERTEX
8
0
62
5
10
-0.028284271
20
0.101
30
0
70
32
0
SEQEND
8
0
0
POLYLINE
8
0
62
5
66
1
10
0
20
0
30
0
70
8
0
VERTEX
8
0
62
5
10
0
20
0.101
30
0
70
32
0
VERTEX
8
0
62
5
10
0
20
0.14028225
30
0
70
32
0
SEQEND
8
0
0
POLYLINE
8
0
62
5
66
1
10
0
20
0
30
0
70
8
0
VERTEX
8
0
62
5
10
0.11313708
20
0.14028225
30
0
70
32
0
VERTEX
8
0
62
5
10
0.11313708
20
0.101
30
0
70
32
0
SEQEND
8
0
0
POLYLINE
8
0
62
5
66
1
10
0
20
0
30
0
70
8
0
VERTEX
8
0
62
5
10
0
20
0.11057842
30
0
70
32
0
VERTEX
8
0
62
5
10
0.028284271
20
0.12064113
30
0
70
32
0
VERTEX
8
0
62
5
10
0.056568542
20
0.11106573
30
0
70
32
0
VERTEX
8
0
62
5
10
0.084852814
20
0.10100302
30
0
70
32
0
VERTEX
8
0
62
5
10
0.11313708
20
0.11057842
30
0
70
32
0
SEQEND
8
0
0
POLYLINE
8
0
62
5
66
1
10
0
20
0
30
0
70
8
0
SEQEND
8
0
0
POLYLINE
8
0
62
5
66
1
10
0
20
0
30
0
70
8
0
VERTEX
8
0
62
5
10
0
20
0.13070383
30
0
70
32
0
VERTEX
8
0
62
5
10
0.028284271
20
0.12064113
30
0
70
32
0
VERTEX
8
0
62
5
10
0.056568542
20
0.13021652
30
0
70
32
0
VERTEX
8
0
62
5
10
0.084852814
20
0.14027923
30
0
70
32
0
VERTEX
8
0
62
5
10
0.11313708
20
0.13070383
30
0
70
32
0
SEQEND
8
0
0
POLYLINE
8
0
62
30
66
1
10
0
20
0
30
0
70
8
0
VERTEX
8
0
62
30
10
0
20
0.12064113
30
0
70
32
0
VERTEX
8
0
62
30
10
0.11313708
20
0.12064113
30
0
70
32
0
SEQEND
8
0
0
POLYLINE
8
0
62
30
66
1
10
0
20
0
30
0
70
8
0
VERTEX
8
0
62
30
10
0.028284271
20
0.12064113
30
0
70
32
0
VERTEX
8
0
62
30
10
0.028284271
20
0.12064113
30
0
70
32
0
SEQEND
8
0
0
POLYLINE
8
0
62
30
66
1
10
0
20
0
30
0
70
8
0
VERTEX
8
0
62
30
10
0.056568542
20
0.11106573
30
0
70
32
0
VERTEX
8
0
62
30
10
0.056568542
20
0.12064113
30
0
70
32
0
SEQEND
8
0
0
POLYLINE
8
0
62
30
66
1
10
0
20
0
30
0
70
8
0
VERTEX
8
0
62
30
10
0.084852814
20
0.10100302
30
0
70
32
0
VERTEX
8
0
62
30
10
0.084852814
20
0.12064113
30
0
70
32
0
SEQEND
8
0
0
POLYLINE
8
0
62
5
66
1
10
0
20
0
30
0
70
8
0
VERTEX
8
0
62
5
10
0.028284271
20
0.101
30
0
70
32
0
VERTEX
8
0
62
5
10
0.028284271
20
0.12064113
30
0
70
32
0
SEQEND
8
0
0
POLYLINE
8
0
62
5
66
1
10
0
20
0
30
0
70
8
0
VERTEX
8
0
62
5
10
0.056568542
20
0.101
30
0
70
32
0
VERTEX
8
0
62
5
10
0.056568542
20
0.11106573
30
0
70
32
0
SEQEND
8
0
0
POLYLINE
8
0
62
5
66
1
10
0
20
0
30
0
70
8
0
VERTEX
8
0
62
5
10
0.084852814
20
0.101
30
0
70
32
0
VERTEX
8
0
62
5
10
0.084852814
20
0.10100302
30
0
70
32
0
SEQEND
8
0
0
POLYLINE
8
0
62
5
66
1
10
0
20
0
30
0
70
8
0
VERTEX
8
0
62
5
10
0.028284271
20
0.12064113
30
0
70
32
0
VERTEX
8
0
62
5
10
0.028284271
20
0.14028225
30
0
70
32
0
SEQEND
8
0
0
POLYLINE
8
0
62
5
66
1
10
0
20
0
30
0
70
8
0
VERTEX
8
0
62
5
10
0.056568542
20
0.12064113
30
0
70
32
0
VERTEX
8
0
62
5
10
0.056568542
20
0.14028225
30
0
70
32
0
SEQEND
8
0
0
POLYLINE
8
0
62
5
66
1
10
0
20
0
30
0
70
8
0
VERTEX
8
0
62
5
10
0.084852814
20
0.12064113
30
0
70
32
0
VERTEX
8
0
62
5
10
0.084852814
20
0.14028225
30
0
70
32
0
SEQEND
8
0
0
POLYLINE
8
0
62
5
66
1
10
0
20
0
30
0
70
8
0
VERTEX
8
0
62
5
10
0.22627417
20
0.14028225
30
0
70
32
0
VERTEX
8
0
62
5
10
0.22627417
20
0.101
30
0
70
32
0
SEQEND
8
0
0
POLYLINE
8
0
62
5
66
1
10
0
20
0
30
0
70
8
0
VERTEX
8
0
62
5
10
0.11313708
20
0.11057842
30
0
70
32
0
VERTEX
8
0
62
5
10
0.14142136
20
0.12064113
30
0
70
32
0
VERTEX
8
0
62
5
10
0.16970563
20
0.11106573
30
0
70
32
0
VERTEX
8
0
62
5
10
0.1979899
20
0.10100302
30
0
70
32
0
VERTEX
8
0
62
5
10
0.22627417
20
0.11057842
30
0
70
32
0
SEQEND
8
0
0
POLYLINE
8
0
62
5
66
1
10
0
20
0
30
0
70
8
0
SEQEND
8
0
0
POLYLINE
8
0
62
5
66
1
10
0
20
0
30
0
70
8
0
VERTEX
8
0
62
5
10
0.11313708
20
0.13070383
30
0
70
32
0
VERTEX
8
0
62
5
10
0.14142136
20
0.12064113
30
0
70
32
0
VERTEX
8
0
62
5
10
0.16970563
20
0.13021652
30
0
70
32
0
VERTEX
8
0
62
5
10
0.1979899
20
0.14027923
30
0
70
32
0
VERTEX
8
0
62
5
10
0.22627417
20
0.13070383
30
0
70
32
0
SEQEND
8
0
0
POLYLINE
8
0
62
30
66
1
10
0
20
0
30
0
70
8
0
VERTEX
8
0
62
30
10
0.11313708
20
0.12064113
30
0
70
32
0
VERTEX
8
0
62
30
10
0.22627417
20
0.12064113
30
0
70
32
0
SEQEND
8
0
0
POLYLINE
8
0
62
30
66
1
10
0
20
0
30
0
70
8
0
VERTEX
8
0
62
30
10
0.14142136
20
0.12064113
30
0
70
32
0
VERTEX
8
0
62
30
10
0.14142136
20
0.12064113
30
0
70
32
0
SEQEND
8
0
0
POLYLINE
8
0
62
30
66
1
10
0
20
0
30
0
70
8
0
VERTEX
8
0
62
30
10
0.16970563
20
0.11106573
30
0
70
32
0
VERTEX
8
0
62
30
10
0.16970563
20
0.12064113
30
0
70
32
0
SEQEND
8
0
0
POLYLINE
8
0
62
30
66
1
10
0
20
0
30
0
70
8
0
VERTEX
8
0
62
30
10
0.1979899
20
0.10100302
30
0
70
32
0
VERTEX
8
0
62
30
10
0.1979899
20
0.12064113
30
0
70
32
0
SEQEND
8
0
0
POLYLINE
8
0
62
5
66
1
10
0
20
0
30
0
70
8
0
VERTEX
8
0
62
5
10
0.14142136
20
0.101
30
0
70
32
0
VERTEX
8
0
62
5
10
0.14142136
20
0.12064113
30
0
70
32
0
SEQEND
8
0
0
POLYLINE
8
0
62
5
66
1
10
0
20
0
30
0
70
8
0
VERTEX
8
0
62
5
10
0.16970563
20
0.101
30
0
70
32
0
VERTEX
8
0
62
5
10
0.16970563
20
0.11106573
30
0
70
32
0
SEQEND
8
0
0
POLYLINE
8
0
62
5
66
1
10
0
20
0
30
0
70
8
0
VERTEX
8
0
62
5
10
0.1979899
20
0.101
30
0
70
32
0
VERTEX
8
0
62
5
10
0.1979899
20
0.10100302
30
0
70
32
0
SEQEND
8
0
0
POLYLINE
8
0
62
5
66
1
10
0
20
0
30
0
70
8
0
VERTEX
8
0
62
5
10
0.14142136
20
0.12064113
30
0
70
32
0
VERTEX
8
0
62
5
10
0.14142136
20
0.14028225
30
0
70
32
0
SEQEND
8
0
0
POLYLINE
8
0
62
5
66
1
10
0
20
0
30
0
70
8
0
VERTEX
8
0
62
5
10
0.16970563
20
0.12064113
30
0
70
32
0
VERTEX
8
0
62
5
10
0.16970563
20
0.14028225
30
0
70
32
0
SEQEND
8
0
0
POLYLINE
8
0
62
5
66
1
10
0
20
0
30
0
70
8
0
VERTEX
8
0
62
5
10
0.1979899
20
0.12064113
30
0
70
32
0
VERTEX
8
0
62
5
10
0.1979899
20
0.14028225
30
0
70
32
0
SEQEND
8
0
0
POLYLINE
8
0
62
5
66
1
10
0
20
0
30
0
70
8
0
VERTEX
8
0
62
5
10
-0.11313708
20
0.101
30
0
70
32
0
VERTEX
8
0
62
5
10
-0.11313708
20
0.14028225
30
0
70
32
0
SEQEND
8
0
0
POLYLINE
8
0
62
5
66
1
10
0
20
0
30
0
70
8
0
VERTEX
8
0
62
5
10
-0.11313708
20
0.11057842
30
0
70
32
0
VERTEX
8
0
62
5
10
-0.084852814
20
0.12064113
30
0
70
32
0
VERTEX
8
0
62
5
10
-0.056568542
20
0.11106573
30
0
70
32
0
VERTEX
8
0
62
5
10
-0.028284271
20
0.10100302
30
0
70
32
0
VERTEX
8
0
62
5
10
0
20
0.11057842
30
0
70
32
0
SEQEND
8
0
0
POLYLINE
8
0
62
5
66
1
10
0
20
0
30
0
70
8
0
SEQEND
8
0
0
POLYLINE
8
0
62
5
66
1
10
0
20
0
30
0
70
8
0
VERTEX
8
0
62
5
10
-0.11313708
20
0.13070383
30
0
70
32
0
VERTEX
8
0
62
5
10
-0.084852814
20
0.12064113
30
0
70
32
0
VERTEX
8
0
62
5
10
-0.056568542
20
0.13021652
30
0
70
32
0
VERTEX
8
0
62
5
10
-0.028284271
20
0.14027923
30
0
70
32
0
VERTEX
8
0
62
5
10
0
20
0.13070383
30
0
70
32
0
SEQEND
8
0
0
POLYLINE
8
0
62
30
66
1
10
0
20
0
30
0
70
8
0
VERTEX
8
0
62
30
10
-0.11313708
20
0.12064113
30
0
70
32
0
VERTEX
8
0
62
30
10
0
20
0.12064113
30
0
70
32
0
SEQEND
8
0
0
POLYLINE
8
0
62
30
66
1
10
0
20
0
30
0
70
8
0
VERTEX
8
0
62
30
10
-0.084852814
20
0.12064113
30
0
70
32
0
VERTEX
8
0
62
30
10
-0.084852814
20
0.12064113
30
0
70
32
0
SEQEND
8
0
0
POLYLINE
8
0
62
30
66
1
10
0
20
0
30
0
70
8
0
VERTEX
8
0
62
30
10
-0.056568542
20
0.11106573
30
0
70
32
0
VERTEX
8
0
62
30
10
-0.056568542
20
0.12064113
30
0
70
32
0
SEQEND
8
0
0
POLYLINE
8
0
62
30
66
1
10
0
20
0
30
0
70
8
0
VERTEX
8
0
62
30
10
-0.028284271
20
0.10100302
30
0
70
32
0
VERTEX
8
0
62
30
10
-0.028284271
20
0.12064113
30
0
70
32
0
SEQEND
8
0
0
POLYLINE
8
0
62
5
66
1
10
0
20
0
30
0
70
8
0
VERTEX
8
0
62
5
10
-0.084852814
20
0.101
30
0
70
32
0
VERTEX
8
0
62
5
10
-0.084852814
20
0.12064113
30
0
70
32
0
SEQEND
8
0
0
POLYLINE
8
0
62
5
66
1
10
0
20
0
30
0
70
8
0
VERTEX
8
0
62
5
10
-0.056568542
20
0.101
30
0
70
32
0
VERTEX
8
0
62
5
10
-0.056568542
20
0.11106573
30
0
70
32
0
SEQEND
8
0
0
POLYLINE
8
0
62
5
66
1
10
0
20
0
30
0
70
8
0
VERTEX
8
0
62
5
10
-0.028284271
20
0.101
30
0
70
32
0
VERTEX
8
0
62
5
10
-0.028284271
20
0.10100302
30
0
70
32
0
SEQEND
8
0
0
POLYLINE
8
0
62
5
66
1
10
0
20
0
30
0
70
8
0
VERTEX
8
0
62
5
10
-0.084852814
20
0.12064113
30
0
70
32
0
VERTEX
8
0
62
5
10
-0.084852814
20
0.14028225
30
0
70
32
0
SEQEND
8
0
0
POLYLINE
8
0
62
5
66
1
10
0
20
0
30
0
70
8
0
VERTEX
8
0
62
5
10
-0.056568542
20
0.12064113
30
0
70
32
0
VERTEX
8
0
62
5
10
-0.056568542
20
0.14028225
30
0
70
32
0
SEQEND
8
0
0
POLYLINE
8
0
62
5
66
1
10
0
20
0
30
0
70
8
0
VERTEX
8
0
62
5
10
-0.028284271
20
0.12064113
30
0
70
32
0
VERTEX
8
0
62
5
10
-0.028284271
20
0.14028225
30
0
70
32
0
SEQEND
8
0
0
POLYLINE
8
0
62
30
66
1
10
0
20
0
30
0
70
8
0
VERTEX
8
0
62
30
10
0
20
0.15057772
30
0
70
32
0
VERTEX
8
0
62
30
10
0.11313708
20
0.15057772
30
0
70
32
0
SEQEND
8
0
0
POLYLINE
8
0
62
30
66
1
10
0
20
0
30
0
70
8
0
VERTEX
8
0
62
30
10
0
20
0.14028225
30
0
70
32
0
VERTEX
8
0
62
30
10
0.11313708
20
0.14028225
30
0
70
32
0
SEQEND
8
0
0
POLYLINE
8
0
62
5
66
1
10
0
20
0
30
0
70
8
0
VERTEX
8
0
62
5
10
0
20
0.14028225
30
0
70
32
0
VERTEX
8
0
62
5
10
0.017767513
20
0.15057772
30
0
70
32
0
VERTEX
8
0
62
5
10
0.028284271
20
0.14028225
30
0
70
32
0
VERTEX
8
0
62
5
10
0.046051784
20
0.15057772
30
0
70
32
0
VERTEX
8
0
62
5
10
0.056568542
20
0.14028225
30
0
70
32
0
VERTEX
8
0
62
5
10
0.074336056
20
0.15057772
30
0
70
32
0
VERTEX
8
0
62
5
10
0.084852814
20
0.14028225
30
0
70
32
0
VERTEX
8
0
62
5
10
0.10262033
20
0.15057772
30
0
70
32
0
VERTEX
8
0
62
5
10
0.11313708
20
0.14028225
30
0
70
32
0
SEQEND
8
0
0
POLYLINE
8
0
62
5
66
1
10
0
20
0
30
0
70
8
0
VERTEX
8
0
62
5
10
0.028284271
20
0.14028225
30
0
70
32
0
VERTEX
8
0
62
5
10
0.028284271
20
0.14028225
30
0
70
32
0
SEQEND
8
0
0
POLYLINE
8
0
62
5
66
1
10
0
20
0
30
0
70
8
0
VERTEX
8
0
62
5
10
0.056568542
20
0.14028225
30
0
70
32
0
VERTEX
8
0
62
5
10
0.056568542
20
0.14028225
30
0
70
32
0
SEQEND
8
0
0
POLYLINE
8
0
62
5
66
1
10
0
20
0
30
0
70
8
0
VERTEX
8
0
62
5
10
0.084852814
20
0.14028225
30
0
70
32
0
VERTEX
8
0
62
5
10
0.084852814
20
0.14028225
30
0
70
32
0
SEQEND
8
0
0
POLYLINE
8
0
62
5
66
1
10
0
20
0
30
0
70
8
0
VERTEX
8
0
62
5
10
0.017767513
20
0.15057772
30
0
70
32
0
VERTEX
8
0
62
5
10
0.017767513
20
0.15057772
30
0
70
32
0
SEQEND
8
0
0
POLYLINE
8
0
62
5
66
1
10
0
20
0
30
0
70
8
0
VERTEX
8
0
62
5
10
0.046051784
20
0.15057772
30
0
70
32
0
VERTEX
8
0
62
5
10
0.046051784
20
0.15057772
30
0
70
32
0
SEQEND
8
0
0
POLYLINE
8
0
62
5
66
1
10
0
20
0
30
0
70
8
0
VERTEX
8
0
62
5
10
0.074336056
20
0.15057772
30
0
70
32
0
VERTEX
8
0
62
5
10
0.074336056
20
0.15057772
30
0
70
32
0
SEQEND
8
0
0
POLYLINE
8
0
62
5
66
1
10
0
20
0
30
0
70
8
0
VERTEX
8
0
62
5
10
0.10262033
20
0.15057772
30
0
70
32
0
VERTEX
8
0
62
5
10
0.10262033
20
0.15057772
30
0
70
32
0
SEQEND
8
0
0
POLYLINE
8
0
62
30
66
1
10
0
20
0
30
0
70
8
0
VERTEX
8
0
62
30
10
0.11313708
20
0.15057772
30
0
70
32
0
VERTEX
8
0
62
30
10
0.22627417
20
0.15057772
30
0
70
32
0
SEQEND
8
0
0
POLYLINE
8
0
62
30
66
1
10
0
20
0
30
0
70
8
0
VERTEX
8
0
62
30
10
0.11313708
20
0.14028225
30
0
70
32
0
VERTEX
8
0
62
30
10
0.22627417
20
0.14028225
30
0
70
32
0
SEQEND
8
0
0
POLYLINE
8
0
62
5
66
1
10
0
20
0
30
0
70
8
0
VERTEX
8
0
62
5
10
0.11313708
20
0.14028225
30
0
70
32
0
VERTEX
8
0
62
5
10
0.1309046
20
0.15057772
30
0
70
32
0
VERTEX
8
0
62
5
10
0.14142136
20
0.14028225
30
0
70
32
0
VERTEX
8
0
62
5
10
0.15918887
20
0.15057772
30
0
70
32
0
VERTEX
8
0
62
5
10
0.16970563
20
0.14028225
30
0
70
32
0
VERTEX
8
0
62
5
10
0.18747314
20
0.15057772
30
0
70
32
0
VERTEX
8
0
62
5
10
0.1979899
20
0.14028225
30
0
70
32
0
VERTEX
8
0
62
5
10
0.21575741
20
0.15057772
30
0
70
32
0
VERTEX
8
0
62
5
10
0.22627417
20
0.14028225
30
0
70
32
0
SEQEND
8
0
0
POLYLINE
8
0
62
5
66
1
10
0
20
0
30
0
70
8
0
VERTEX
8
0
62
5
10
0.14142136
20
0.14028225
30
0
70
32
0
VERTEX
8
0
62
5
10
0.14142136
20
0.14028225
30
0
70
32
0
SEQEND
8
0
0
POLYLINE
8
0
62
5
66
1
10
0
20
0
30
0
70
8
0
VERTEX
8
0
62
5
10
0.16970563
20
0.14028225
30
0
70
32
0
VERTEX
8
0
62
5
10
0.16970563
20
0.14028225
30
0
70
32
0
SEQEND
8
0
0
POLYLINE
8
0
62
5
66
1
10
0
20
0
30
0
70
8
0
VERTEX
8
0
62
5
10
0.1979899
20
0.14028225
30
0
70
32
0
VERTEX
8
0
62
5
10
0.1979899
20
0.14028225
30
0
70
32
0
SEQEND
8
0
0
POLYLINE
8
0
62
5
66
1
10
0
20
0
30
0
70
8
0
VERTEX
8
0
62
5
10
0.1309046
20
0.15057772
30
0
70
32
0
VERTEX
8
0
62
5
10
0.1309046
20
0.15057772
30
0
70
32
0
SEQEND
8
0
0
POLYLINE
8
0
62
5
66
1
10
0
20
0
30
0
70
8
0
VERTEX
8
0
62
5
10
0.15918887
20
0.15057772
30
0
70
32
0
VERTEX
8
0
62
5
10
0.15918887
20
0.15057772
30
0
70
32
0
SEQEND
8
0
0
POLYLINE
8
0
62
5
66
1
10
0
20
0
30
0
70
8
0
VERTEX
8
0
62
5
10
0.18747314
20
0.15057772
30
0
70
32
0
VERTEX
8
0
62
5
10
0.18747314
20
0.15057772
30
0
70
32
0
SEQEND
8
0
0
POLYLINE
8
0
62
5
66
1
10
0
20
0
30
0
70
8
0
VERTEX
8
0
62
5
10
0.21575741
20
0.15057772
30
0
70
32
0
VERTEX
8
0
62
5
10
0.21575741
20
0.15057772
30
0
70
32
0
SEQEND
8
0
0
POLYLINE
8
0
62
30
66
1
10
0
20
0
30
0
70
8
0
VERTEX
8
0
62
30
10
-0.11313708
20
0.15057772
30
0
70
32
0
VERTEX
8
0
62
30
10
0
20
0.15057772
30
0
70
32
0
SEQEND
8
0
0
POLYLINE
8
0
62
30
66
1
10
0
20
0
30
0
70
8
0
VERTEX
8
0
62
30
10
-0.11313708
20
0.14028225
30
0
70
32
0
VERTEX
8
0
62
30
10
0
20
0.14028225
30
0
70
32
0
SEQEND
8
0
0
POLYLINE
8
0
62
5
66
1
10
0
20
0
30
0
70
8
0
VERTEX
8
0
62
5
10
-0.11313708
20
0.14028225
30
0
70
32
0
VERTEX
8
0
62
5
10
-0.095369572
20
0.15057772
30
0
70
32
0
VERTEX
8
0
62
5
10
-0.084852814
20
0.14028225
30
0
70
32
0
VERTEX
8
0
62
5
10
-0.067085301
20
0.15057772
30
0
70
32
0
VERTEX
8
0
62
5
10
-0.056568542
20
0.14028225
30
0
70
32
0
VERTEX
8
0
62
5
10
-0.038801029
20
0.15057772
30
0
70
32
0
VERTEX
8
0
62
5
10
-0.028284271
20
0.14028225
30
0
70
32
0
VERTEX
8
0
62
5
10
-0.010516758
20
0.15057772
30
0
70
32
0
VERTEX
8
0
62
5
10
0
20
0.14028225
30
0
70
32
0
SEQEND
8
0
0
POLYLINE
8
0
62
5
66
1
10
0
20
0
30
0
70
8
0
VERTEX
8
0
62
5
10
-0.084852814
20
0.14028225
30
0
70
32
0
VERTEX
8
0
62
5
10
-0.084852814
20
0.14028225
30
0
70
32
0
SEQEND
8
0
0
POLYLINE
8
0
62
5
66
1
10
0
20
0
30
0
70
8
0
VERTEX
8
0
62
5
10
-0.056568542
20
0.14028225
30
0
70
32
0
VERTEX
8
0
62
5
10
-0.056568542
20
0.14028225
30
0
70
32
0
SEQEND
8
0
0
POLYLINE
8
0
62
5
66
1
10
0
20
0
30
0
70
8
0
VERTEX
8
0
62
5
10
-0.028284271
20
0.14028225
30
0
70
32
0
VERTEX
8
0
62
5
10
-0.028284271
20
0.14028225
30
0
70
32
0
SEQEND
8
0
0
POLYLINE
8
0
62
5
66
1
10
0
20
0
30
0
70
8
0
VERTEX
8
0
62
5
10
-0.095369572
20
0.15057772
30
0
70
32
0
VERTEX
8
0
62
5
10
-0.095369572
20
0.15057772
30
0
70
32
0
SEQEND
8
0
0
POLYLINE
8
0
62
5
66
1
10
0
20
0
30
0
70
8
0
VERTEX
8
0
62
5
10
-0.067085301
20
0.15057772
30
0
70
32
0
VERTEX
8
0
62
5
10
-0.067085301
20
0.15057772
30
0
70
32
0
SEQEND
8
0
0
POLYLINE
8
0
62
5
66
1
10
0
20
0
30
0
70
8
0
VERTEX
8
0
62
5
10
-0.038801029
20
0.15057772
30
0
70
32
0
VERTEX
8
0
62
5
10
-0.038801029
20
0.15057772
30
0
70
32
0
SEQEND
8
0
0
POLYLINE
8
0
62
5
66
1
10
0
20
0
30
0
70
8
0
VERTEX
8
0
62
5
10
-0.010516758
20
0.15057772
30
0
70
32
0
VERTEX
8
0
62
5
10
-0.010516758
20
0.15057772
30
0
70
32
0
SEQEND
8
0
0
POLYLINE
8
0
62
5
66
1
10
0
20
0
30
0
70
8
0
VERTEX
8
0
62
5
10
0.017767513
20
0.15057772
30
0
70
32
0
VERTEX
8
0
62
5
10
0.017767513
20
0.18532342
30
0
70
32
0
SEQEND
8
0
0
POLYLINE
8
0
62
5
66
1
10
0
20
0
30
0
70
8
0
VERTEX
8
0
62
5
10
0.1309046
20
0.15057772
30
0
70
32
0
VERTEX
8
0
62
5
10
0.1309046
20
0.18532342
30
0
70
32
0
SEQEND
8
0
0
POLYLINE
8
0
62
5
66
1
10
0
20
0
30
0
70
8
0
VERTEX
8
0
62
5
10
0.046051784
20
0.15057772
30
0
70
32
0
VERTEX
8
0
62
5
10
0.046051784
20
0.18532342
30
0
70
32
0
SEQEND
8
0
0
POLYLINE
8
0
62
5
66
1
10
0
20
0
30
0
70
8
0
VERTEX
8
0
62
5
10
0.074336056
20
0.15057772
30
0
70
32
0
VERTEX
8
0
62
5
10
0.074336056
20
0.18532342
30
0
70
32
0
SEQEND
8
0
0
POLYLINE
8
0
62
5
66
1
10
0
20
0
30
0
70
8
0
VERTEX
8
0
62
5
10
0.10262033
20
0.15057772
30
0
70
32
0
VERTEX
8
0
62
5
10
0.10262033
20
0.18532342
30
0
70
32
0
SEQEND
8
0
0
POLYLINE
8
0
62
5
66
1
10
0
20
0
30
0
70
8
0
VERTEX
8
0
62
5
10
0.24404168
20
0.15057772
30
0
70
32
0
VERTEX
8
0
62
5
10
0.24404168
20
0.18532342
30
0
70
32
0
SEQEND
8
0
0
POLYLINE
8
0
62
5
66
1
10
0
20
0
30
0
70
8
0
VERTEX
8
0
62
5
10
0.15918887
20
0.15057772
30
0
70
32
0
VERTEX
8
0
62
5
10
0.15918887
20
0.18532342
30
0
70
32
0
SEQEND
8
0
0
POLYLINE
8
0
62
5
66
1
10
0
20
0
30
0
70
8
0
VERTEX
8
0
62
5
10
0.18747314
20
0.15057772
30
0
70
32
0
VERTEX
8
0
62
5
10
0.18747314
20
0.18532342
30
0
70
32
0
SEQEND
8
0
0
POLYLINE
8
0
62
5
66
1
10
0
20
0
30
0
70
8
0
VERTEX
8
0
62
5
10
0.21575741
20
0.15057772
30
0
70
32
0
VERTEX
8
0
62
5
10
0.21575741
20
0.18532342
30
0
70
32
0
SEQEND
8
0
0
POLYLINE
8
0
62
5
66
1
10
0
20
0
30
0
70
8
0
VERTEX
8
0
62
5
10
-0.095369572
20
0.15057772
30
0
70
32
0
VERTEX
8
0
62
5
10
-0.095369572
20
0.18532342
30
0
70
32
0
SEQEND
8
0
0
POLYLINE
8
0
62
5
66
1
10
0
20
0
30
0
70
8
0
VERTEX
8
0
62
5
10
-0.067085301
20
0.15057772
30
0
70
32
0
VERTEX
8
0
62
5
10
-0.067085301
20
0.18532342
30
0
70
32
0
SEQEND
8
0
0
POLYLINE
8
0
62
5
66
1
10
0
20
0
30
0
70
8
0
VERTEX
8
0
62
5
10
-0.038801029
20
0.15057772
30
0
70
32
0
VERTEX
8
0
62
5
10
-0.038801029
20
0.18532342
30
0
70
32
0
SEQEND
8
0
0
POLYLINE
8
0
62
5
66
1
10
0
20
0
30
0
70
8
0
VERTEX
8
0
62
5
10
-0.010516758
20
0.15057772
30
0
70
32
0
VERTEX
8
0
62
5
10
-0.010516758
20
0.18532342
30
0
70
32
0
SEQEND
8
0
0
POLYLINE
8
0
62
5
66
1
10
0
20
0
30
0
70
8
0
VERTEX
8
0
62
5
10
0.017767513
20
0.18532342
30
0
70
32
0
VERTEX
8
0
62
5
10
0.017767513
20
0.28231532
30
0
70
32
0
SEQEND
8
0
0
POLYLINE
8
0
62
5
66
1
10
0
20
0
30
0
70
8
0
VERTEX
8
0
62
5
10
0.1309046
20
0.28231532
30
0
70
32
0
VERTEX
8
0
62
5
10
0.1309046
20
0.18532342
30
0
70
32
0
SEQEND
8
0
0
POLYLINE
8
0
62
5
66
1
10
0
20
0
30
0
70
8
0
VERTEX
8
0
62
5
10
0.017767513
20
0.19814678
30
0
70
32
0
VERTEX
8
0
62
5
10
0.046051784
20
0.18534303
30
0
70
32
0
VERTEX
8
0
62
5
10
0.074336056
20
0.19676765
30
0
70
32
0
VERTEX
8
0
62
5
10
0.10262033
20
0.20957139
30
0
70
32
0
VERTEX
8
0
62
5
10
0.1309046
20
0.19814678
30
0
70
32
0
SEQEND
8
0
0
POLYLINE
8
0
62
5
66
1
10
0
20
0
30
0
70
8
0
VERTEX
8
0
62
5
10
0.017767513
20
0.24664273
30
0
70
32
0
VERTEX
8
0
62
5
10
0.046051784
20
0.23383898
30
0
70
32
0
VERTEX
8
0
62
5
10
0.074336056
20
0.2452636
30
0
70
32
0
VERTEX
8
0
62
5
10
0.10262033
20
0.25806735
30
0
70
32
0
VERTEX
8
0
62
5
10
0.1309046
20
0.24664273
30
0
70
32
0
SEQEND
8
0
0
POLYLINE
8
0
62
5
66
1
10
0
20
0
30
0
70
8
0
VERTEX
8
0
62
5
10
0.017767513
20
0.22099601
30
0
70
32
0
VERTEX
8
0
62
5
10
0.046051784
20
0.23379976
30
0
70
32
0
VERTEX
8
0
62
5
10
0.074336056
20
0.22237514
30
0
70
32
0
VERTEX
8
0
62
5
10
0.10262033
20
0.20957139
30
0
70
32
0
VERTEX
8
0
62
5
10
0.1309046
20
0.22099601
30
0
70
32
0
SEQEND
8
0
0
POLYLINE
8
0
62
5
66
1
10
0
20
0
30
0
70
8
0
VERTEX
8
0
62
5
10
0.017767513
20
0.26949197
30
0
70
32
0
VERTEX
8
0
62
5
10
0.046051784
20
0.28229571
30
0
70
32
0
VERTEX
8
0
62
5
10
0.074336056
20
0.27087109
30
0
70
32
0
VERTEX
8
0
62
5
10
0.10262033
20
0.25806735
30
0
70
32
0
VERTEX
8
0
62
5
10
0.1309046
20
0.26949197
30
0
70
32
0
SEQEND
8
0
0
POLYLINE
8
0
62
30
66
1
10
0
20
0
30
0
70
8
0
VERTEX
8
0
62
30
10
0.017767513
20
0.20957139
30
0
70
32
0
VERTEX
8
0
62
30
10
0.1309046
20
0.20957139
30
0
70
32
0
SEQEND
8
0
0
POLYLINE
8
0
62
30
66
1
10
0
20
0
30
0
70
8
0
VERTEX
8
0
62
30
10
0.017767513
20
0.25806735
30
0
70
32
0
VERTEX
8
0
62
30
10
0.1309046
20
0.25806735
30
0
70
32
0
SEQEND
8
0
0
POLYLINE
8
0
62
30
66
1
10
0
20
0
30
0
70
8
0
VERTEX
8
0
62
30
10
0.046051784
20
0.18534303
30
0
70
32
0
VERTEX
8
0
62
30
10
0.046051784
20
0.20957139
30
0
70
32
0
SEQEND
8
0
0
POLYLINE
8
0
62
30
66
1
10
0
20
0
30
0
70
8
0
VERTEX
8
0
62
30
10
0.074336056
20
0.19676765
30
0
70
32
0
VERTEX
8
0
62
30
10
0.074336056
20
0.20957139
30
0
70
32
0
SEQEND
8
0
0
POLYLINE
8
0
62
30
66
1
10
0
20
0
30
0
70
8
0
VERTEX
8
0
62
30
10
0.10262033
20
0.20957139
30
0
70
32
0
VERTEX
8
0
62
30
10
0.10262033
20
0.20957139
30
0
70
32
0
SEQEND
8
0
0
POLYLINE
8
0
62
30
66
1
10
0
20
0
30
0
70
8
0
VERTEX
8
0
62
30
10
0.046051784
20
0.23383898
30
0
70
32
0
VERTEX
8
0
62
30
10
0.046051784
20
0.25806735
30
0
70
32
0
SEQEND
8
0
0
POLYLINE
8
0
62
30
66
1
10
0
20
0
30
0
70
8
0
VERTEX
8
0
62
30
10
0.074336056
20
0.2452636
30
0
70
32
0
VERTEX
8
0
62
30
10
0.074336056
20
0.25806735
30
0
70
32
0
SEQEND
8
0
0
POLYLINE
8
0
62
30
66
1
10
0
20
0
30
0
70
8
0
VERTEX
8
0
62
30
10
0.10262033
20
0.25806735
30
0
70
32
0
VERTEX
8
0
62
30
10
0.10262033
20
0.25806735
30
0
70
32
0
SEQEND
8
0
0
POLYLINE
8
0
62
5
66
1
10
0
20
0
30
0
70
8
0
VERTEX
8
0
62
5
10
0.046051784
20
0.18532342
30
0
70
32
0
VERTEX
8
0
62
5
10
0.046051784
20
0.18534303
30
0
70
32
0
SEQEND
8
0
0
POLYLINE
8
0
62
5
66
1
10
0
20
0
30
0
70
8
0
VERTEX
8
0
62
5
10
0.074336056
20
0.18532342
30
0
70
32
0
VERTEX
8
0
62
5
10
0.074336056
20
0.19676765
30
0
70
32
0
SEQEND
8
0
0
POLYLINE
8
0
62
5
66
1
10
0
20
0
30
0
70
8
0
VERTEX
8
0
62
5
10
0.10262033
20
0.18532342
30
0
70
32
0
VERTEX
8
0
62
5
10
0.10262033
20
0.20957139
30
0
70
32
0
SEQEND
8
0
0
POLYLINE
8
0
62
5
66
1
10
0
20
0
30
0
70
8
0
VERTEX
8
0
62
5
10
0.046051784
20
0.23381937
30
0
70
32
0
VERTEX
8
0
62
5
10
0.046051784
20
0.23383898
30
0
70
32
0
SEQEND
8
0
0
POLYLINE
8
0
62
5
66
1
10
0
20
0
30
0
70
8
0
VERTEX
8
0
62
5
10
0.074336056
20
0.23381937
30
0
70
32
0
VERTEX
8
0
62
5
10
0.074336056
20
0.2452636
30
0
70
32
0
SEQEND
8
0
0
POLYLINE
8
0
62
5
66
1
10
0
20
0
30
0
70
8
0
VERTEX
8
0
62
5
10
0.10262033
20
0.23381937
30
0
70
32
0
VERTEX
8
0
62
5
10
0.10262033
20
0.25806735
30
0
70
32
0
SEQEND
8
0
0
POLYLINE
8
0
62
5
66
1
10
0
20
0
30
0
70
8
0
VERTEX
8
0
62
5
10
0.046051784
20
0.20957139
30
0
70
32
0
VERTEX
8
0
62
5
10
0.046051784
20
0.23381937
30
0
70
32
0
SEQEND
8
0
0
POLYLINE
8
0
62
5
66
1
10
0
20
0
30
0
70
8
0
VERTEX
8
0
62
5
10
0.074336056
20
0.20957139
30
0
70
32
0
VERTEX
8
0
62
5
10
0.074336056
20
0.23381937
30
0
70
32
0
SEQEND
8
0
0
POLYLINE
8
0
62
5
66
1
10
0
20
0
30
0
70
8
0
VERTEX
8
0
62
5
10
0.10262033
20
0.20957139
30
0
70
32
0
VERTEX
8
0
62
5
10
0.10262033
20
0.23381937
30
0
70
32
0
SEQEND
8
0
0
POLYLINE
8
0
62
5
66
1
10
0
20
0
30
0
70
8
0
VERTEX
8
0
62
5
10
0.046051784
20
0.25806735
30
0
70
32
0
VERTEX
8
0
62
5
10
0.046051784
20
0.28231532
30
0
70
32
0
SEQEND
8
0
0
POLYLINE
8
0
62
5
66
1
10
0
20
0
30
0
70
8
0
VERTEX
8
0
62
5
10
0.074336056
20
0.25806735
30
0
70
32
0
VERTEX
8
0
62
5
10
0.074336056
20
0.28231532
30
0
70
32
0
SEQEND
8
0
0
POLYLINE
8
0
62
5
66
1
10
0
20
0
30
0
70
8
0
VERTEX
8
0
62
5
10
0.10262033
20
0.25806735
30
0
70
32
0
VERTEX
8
0
62
5
10
0.10262033
20
0.28231532
30
0
70
32
0
SEQEND
8
0
0
POLYLINE
8
0
62
5
66
1
10
0
20
0
30
0
70
8
0
VERTEX
8
0
62
5
10
0.24404168
20
0.28231532
30
0
70
32
0
VERTEX
8
0
62
5
10
0.24404168
20
0.18532342
30
0
70
32
0
SEQEND
8
0
0
POLYLINE
8
0
62
5
66
1
10
0
20
0
30
0
70
8
0
VERTEX
8
0
62
5
10
0.1309046
20
0.19814678
30
0
70
32
0
VERTEX
8
0
62
5
10
0.15918887
20
0.18534303
30
0
70
32
0
VERTEX
8
0
62
5
10
0.18747314
20
0.19676765
30
0
70
32
0
VERTEX
8
0
62
5
10
0.21575741
20
0.20957139
30
0
70
32
0
VERTEX
8
0
62
5
10
0.24404168
20
0.19814678
30
0
70
32
0
SEQEND
8
0
0
POLYLINE
8
0
62
5
66
1
10
0
20
0
30
0
70
8
0
VERTEX
8
0
62
5
10
0.1309046
20
0.24664273
30
0
70
32
0
VERTEX
8
0
62
5
10
0.15918887
20
0.23383898
30
0
70
32
0
VERTEX
8
0
62
5
10
0.18747314
20
0.2452636
30
0
70
32
0
VERTEX
8
0
62
5
10
0.21575741
20
0.25806735
30
0
70
32
0
VERTEX
8
0
62
5
10
0.24404168
20
0.24664273
30
0
70
32
0
SEQEND
8
0
0
POLYLINE
8
0
62
5
66
1
10
0
20
0
30
0
70
8
0
VERTEX
8
0
62
5
10
0.1309046
20
0.22099601
30
0
70
32
0
VERTEX
8
0
62
5
10
0.15918887
20
0.23379976
30
0
70
32
0
VERTEX
8
0
62
5
10
0.18747314
20
0.22237514
30
0
70
32
0
VERTEX
8
0
62
5
10
0.21575741
20
0.20957139
30
0
70
32
0
VERTEX
8
0
62
5
10
0.24404168
20
0.22099601
30
0
70
32
0
SEQEND
8
0
0
POLYLINE
8
0
62
5
66
1
10
0
20
0
30
0
70
8
0
VERTEX
8
0
62
5
10
0.1309046
20
0.26949197
30
0
70
32
0
VERTEX
8
0
62
5
10
0.15918887
20
0.28229571
30
0
70
32
0
VERTEX
8
0
62
5
10
0.18747314
20
0.27087109
30
0
70
32
0
VERTEX
8
0
62
5
10
0.21575741
20
0.25806735
30
0
70
32
0
VERTEX
8
0
62
5
10
0.24404168
20
0.26949197
30
0
70
32
0
SEQEND
8
0
0
POLYLINE
8
0
62
30
66
1
10
0
20
0
30
0
70
8
0
VERTEX
8
0
62
30
10
0.1309046
20
0.20957139
30
0
70
32
0
VERTEX
8
0
62
30
10
0.24404168
20
0.20957139
30
0
70
32
0
SEQEND
8
0
0
POLYLINE
8
0
62
30
66
1
10
0
20
0
30
0
70
8
0
VERTEX
8
0
62
30
10
0.1309046
20
0.25806735
30
0
70
32
0
VERTEX
8
0
62
30
10
0.24404168
20
0.25806735
30
0
70
32
0
SEQEND
8
0
0
POLYLINE
8
0
62
30
66
1
10
0
20
0
30
0
70
8
0
VERTEX
8
0
62
30
10
0.15918887
20
0.18534303
30
0
70
32
0
VERTEX
8
0
62
30
10
0.15918887
20
0.20957139
30
0
70
32
0
SEQEND
8
0
0
POLYLINE
8
0
62
30
66
1
10
0
20
0
30
0
70
8
0
VERTEX
8
0
62
30
10
0.18747314
20
0.19676765
30
0
70
32
0
VERTEX
8
0
62
30
10
0.18747314
20
0.20957139
30
0
70
32
0
SEQEND
8
0
0
POLYLINE
8
0
62
30
66
1
10
0
20
0
30
0
70
8
0
VERTEX
8
0
62
30
10
0.21575741
20
0.20957139
30
0
70
32
0
VERTEX
8
0
62
30
10
0.21575741
20
0.20957139
30
0
70
32
0
SEQEND
8
0
0
POLYLINE
8
0
62
30
66
1
10
0
20
0
30
0
70
8
0
VERTEX
8
0
62
30
10
0.15918887
20
0.23383898
30
0
70
32
0
VERTEX
8
0
62
30
10
0.15918887
20
0.25806735
30
0
70
32
0
SEQEND
8
0
0
POLYLINE
8
0
62
30
66
1
10
0
20
0
30
0
70
8
0
VERTEX
8
0
62
30
10
0.18747314
20
0.2452636
30
0
70
32
0
VERTEX
8
0
62
30
10
0.18747314
20
0.25806735
30
0
70
32
0
SEQEND
8
0
0
POLYLINE
8
0
62
30
66
1
10
0
20
0
30
0
70
8
0
VERTEX
8
0
62
30
10
0.21575741
20
0.25806735
30
0
70
32
0
VERTEX
8
0
62
30
10
0.21575741
20
0.25806735
30
0
70
32
0
SEQEND
8
0
0
POLYLINE
8
0
62
5
66
1
10
0
20
0
30
0
70
8
0
VERTEX
8
0
62
5
10
0.15918887
20
0.18532342
30
0
70
32
0
VERTEX
8
0
62
5
10
0.15918887
20
0.18534303
30
0
70
32
0
SEQEND
8
0
0
POLYLINE
8
0
62
5
66
1
10
0
20
0
30
0
70
8
0
VERTEX
8
0
62
5
10
0.18747314
20
0.18532342
30
0
70
32
0
VERTEX
8
0
62
5
10
0.18747314
20
0.19676765
30
0
70
32
0
SEQEND
8
0
0
POLYLINE
8
0
62
5
66
1
10
0
20
0
30
0
70
8
0
VERTEX
8
0
62
5
10
0.21575741
20
0.18532342
30
0
70
32
0
VERTEX
8
0
62
5
10
0.21575741
20
0.20957139
30
0
70
32
0
SEQEND
8
0
0
POLYLINE
8
0
62
5
66
1
10
0
20
0
30
0
70
8
0
VERTEX
8
0
62
5
10
0.15918887
20
0.23381937
30
0
70
32
0
VERTEX
8
0
62
5
10
0.15918887
20
0.23383898
30
0
70
32
0
SEQEND
8
0
0
POLYLINE
8
0
62
5
66
1
10
0
20
0
30
0
70
8
0
VERTEX
8
0
62
5
10
0.18747314
20
0.23381937
30
0
70
32
0
VERTEX
8
0
62
5
10
0.18747314
20
0.2452636
30
0
70
32
0
SEQEND
8
0
0
POLYLINE
8
0
62
5
66
1
10
0
20
0
30
0
70
8
0
VERTEX
8
0
62
5
10
0.21575741
20
0.23381937
30
0
70
32
0
VERTEX
8
0
62
5
10
0.21575741
20
0.25806735
30
0
70
32
0
SEQEND
8
0
0
POLYLINE
8
0
62
5
66
1
10
0
20
0
30
0
70
8
0
VERTEX
8
0
62
5
10
0.15918887
20
0.20957139
30
0
70
32
0
VERTEX
8
0
62
5
10
0.15918887
20
0.23381937
30
0
70
32
0
SEQEND
8
0
0
POLYLINE
8
0
62
5
66
1
10
0
20
0
30
0
70
8
0
VERTEX
8
0
62
5
10
0.18747314
20
0.20957139
30
0
70
32
0
VERTEX
8
0
62
5
10
0.18747314
20
0.23381937
30
0
70
32
0
SEQEND
8
0
0
POLYLINE
8
0
62
5
66
1
10
0
20
0
30
0
70
8
0
VERTEX
8
0
62
5
10
0.21575741
20
0.20957139
30
0
70
32
0
VERTEX
8
0
62
5
10
0.21575741
20
0.23381937
30
0
70
32
0
SEQEND
8
0
0
POLYLINE
8
0
62
5
66
1
10
0
20
0
30
0
70
8
0
VERTEX
8
0
62
5
10
0.15918887
20
0.25806735
30
0
70
32
0
VERTEX
8
0
62
5
10
0.15918887
20
0.28231532
30
0
70
32
0
SEQEND
8
0
0
POLYLINE
8
0
62
5
66
1
10
0
20
0
30
0
70
8
0
VERTEX
8
0
62
5
10
0.18747314
20
0.25806735
30
0
70
32
0
VERTEX
8
0
62
5
10
0.18747314
20
0.28231532
30
0
70
32
0
SEQEND
8
0
0
POLYLINE
8
0
62
5
66
1
10
0
20
0
30
0
70
8
0
VERTEX
8
0
62
5
10
0.21575741
20
0.25806735
30
0
70
32
0
VERTEX
8
0
62
5
10
0.21575741
20
0.28231532
30
0
70
32
0
SEQEND
8
0
0
POLYLINE
8
0
62
5
66
1
10
0
20
0
30
0
70
8
0
VERTEX
8
0
62
5
10
-0.095369572
20
0.18532342
30
0
70
32
0
VERTEX
8
0
62
5
10
-0.095369572
20
0.28231532
30
0
70
32
0
SEQEND
8
0
0
POLYLINE
8
0
62
5
66
1
10
0
20
0
30
0
70
8
0
VERTEX
8
0
62
5
10
-0.095369572
20
0.19814678
30
0
70
32
0
VERTEX
8
0
62
5
10
-0.067085301
20
0.18534303
30
0
70
32
0
VERTEX
8
0
62
5
10
-0.038801029
20
0.19676765
30
0
70
32
0
VERTEX
8
0
62
5
10
-0.010516758
20
0.20957139
30
0
70
32
0
VERTEX
8
0
62
5
10
0.017767513
20
0.19814678
30
0
70
32
0
SEQEND
8
0
0
POLYLINE
8
0
62
5
66
1
10
0
20
0
30
0
70
8
0
VERTEX
8
0
62
5
10
-0.095369572
20
0.24664273
30
0
70
32
0
VERTEX
8
0
62
5
10
-0.067085301
20
0.23383898
30
0
70
32
0
VERTEX
8
0
62
5
10
-0.038801029
20
0.2452636
30
0
70
32
0
VERTEX
8
0
62
5
10
-0.010516758
20
0.25806735
30
0
70
32
0
VERTEX
8
0
62
5
10
0.017767513
20
0.24664273
30
0
70
32
0
SEQEND
8
0
0
POLYLINE
8
0
62
5
66
1
10
0
20
0
30
0
70
8
0
VERTEX
8
0
62
5
10
-0.095369572
20
0.22099601
30
0
70
32
0
VERTEX
8
0
62
5
10
-0.067085301
20
0.23379976
30
0
70
32
0
VERTEX
8
0
62
5
10
-0.038801029
20
0.22237514
30
0
70
32
0
VERTEX
8
0
62
5
10
-0.010516758
20
0.20957139
30
0
70
32
0
VERTEX
8
0
62
5
10
0.017767513
20
0.22099601
30
0
70
32
0
SEQEND
8
0
0
POLYLINE
8
0
62
5
66
1
10
0
20
0
30
0
70
8
0
VERTEX
8
0
62
5
10
-0.095369572
20
0.26949197
30
0
70
32
0
VERTEX
8
0
62
5
10
-0.067085301
20
0.28229571
30
0
70
32
0
VERTEX
8
0
62
5
10
-0.038801029
20
0.27087109
30
0
70
32
0
VERTEX
8
0
62
5
10
-0.010516758
20
0.25806735
30
0
70
32
0
VERTEX
8
0
62
5
10
0.017767513
20
0.26949197
30
0
70
32
0
SEQEND
8
0
0
POLYLINE
8
0
62
30
66
1
10
0
20
0
30
0
70
8
0
VERTEX
8
0
62
30
10
-0.095369572
20
0.20957139
30
0
70
32
0
VERTEX
8
0
62
30
10
0.017767513
20
0.20957139
30
0
70
32
0
SEQEND
8
0
0
POLYLINE
8
0
62
30
66
1
10
0
20
0
30
0
70
8
0
VERTEX
8
0
62
30
10
-0.095369572
20
0.25806735
30
0
70
32
0
VERTEX
8
0
62
30
10
0.017767513
20
0.25806735
30
0
70
32
0
SEQEND
8
0
0
POLYLINE
8
0
62
30
66
1
10
0
20
0
30
0
70
8
0
VERTEX
8
0
62
30
10
-0.067085301
20
0.18534303
30
0
70
32
0
VERTEX
8
0
62
30
10
-0.067085301
20
0.20957139
30
0
70
32
0
SEQEND
8
0
0
POLYLINE
8
0
62
30
66
1
10
0
20
0
30
0
70
8
0
VERTEX
8
0
62
30
10
-0.038801029
20
0.19676765
30
0
70
32
0
VERTEX
8
0
62
30
10
-0.038801029
20
0.20957139
30
0
70
32
0
SEQEND
8
0
0
POLYLINE
8
0
62
30
66
1
10
0
20
0
30
0
70
8
0
VERTEX
8
0
62
30
10
-0.010516758
20
0.20957139
30
0
70
32
0
VERTEX
8
0
62
30
10
-0.010516758
20
0.20957139
30
0
70
32
0
SEQEND
8
0
0
POLYLINE
8
0
62
30
66
1
10
0
20
0
30
0
70
8
0
VERTEX
8
0
62
30
10
-0.067085301
20
0.23383898
30
0
70
32
0
VERTEX
8
0
62
30
10
-0.067085301
20
0.25806735
30
0
70
32
0
SEQEND
8
0
0
POLYLINE
8
0
62
30
66
1
10
0
20
0
30
0
70
8
0
VERTEX
8
0
62
30
10
-0.038801029
20
0.2452636
30
0
70
32
0
VERTEX
8
0
62
30
10
-0.038801029
20
0.25806735
30
0
70
32
0
SEQEND
8
0
0
POLYLINE
8
0
62
30
66
1
10
0
20
0
30
0
70
8
0
VERTEX
8
0
62
30
10
-0.010516758
20
0.25806735
30
0
70
32
0
VERTEX
8
0
62
30
10
-0.010516758
20
0.25806735
30
0
70
32
0
SEQEND
8
0
0
POLYLINE
8
0
62
5
66
1
10
0
20
0
30
0
70
8
0
VERTEX
8
0
62
5
10
-0.067085301
20
0.18532342
30
0
70
32
0
VERTEX
8
0
62
5
10
-0.067085301
20
0.18534303
30
0
70
32
0
SEQEND
8
0
0
POLYLINE
8
0
62
5
66
1
10
0
20
0
30
0
70
8
0
VERTEX
8
0
62
5
10
-0.038801029
20
0.18532342
30
0
70
32
0
VERTEX
8
0
62
5
10
-0.038801029
20
0.19676765
30
0
70
32
0
SEQEND
8
0
0
POLYLINE
8
0
62
5
66
1
10
0
20
0
30
0
70
8
0
VERTEX
8
0
62
5
10
-0.010516758
20
0.18532342
30
0
70
32
0
VERTEX
8
0
62
5
10
-0.010516758
20
0.20957139
30
0
70
32
0
SEQEND
8
0
0
POLYLINE
8
0
62
5
66
1
10
0
20
0
30
0
70
8
0
VERTEX
8
0
62
5
10
-0.067085301
20
0.23381937
30
0
70
32
0
VERTEX
8
0
62
5
10
-0.067085301
20
0.23383898
30
0
70
32
0
SEQEND
8
0
0
POLYLINE
8
0
62
5
66
1
10
0
20
0
30
0
70
8
0
VERTEX
8
0
62
5
10
-0.038801029
20
0.23381937
30
0
70
32
0
VERTEX
8
0
62
5
10
-0.038801029
20
0.2452636
30
0
70
32
0
SEQEND
8
0
0
POLYLINE
8
0
62
5
66
1
10
0
20
0
30
0
70
8
0
VERTEX
8
0
62
5
10
-0.010516758
20
0.23381937
30
0
70
32
0
VERTEX
8
0
62
5
10
-0.010516758
20
0.25806735
30
0
70
32
0
SEQEND
8
0
0
POLYLINE
8
0
62
5
66
1
10
0
20
0
30
0
70
8
0
VERTEX
8
0
62
5
10
-0.067085301
20
0.20957139
30
0
70
32
0
VERTEX
8
0
62
5
10
-0.067085301
20
0.23381937
30
0
70
32
0
SEQEND
8
0
0
POLYLINE
8
0
62
5
66
1
10
0
20
0
30
0
70
8
0
VERTEX
8
0
62
5
10
-0.038801029
20
0.20957139
30
0
70
32
0
VERTEX
8
0
62
5
10
-0.038801029
20
0.23381937
30
0
70
32
0
SEQEND
8
0
0
POLYLINE
8
0
62
5
66
1
10
0
20
0
30
0
70
8
0
VERTEX
8
0
62
5
10
-0.010516758
20
0.20957139
30
0
70
32
0
VERTEX
8
0
62
5
10
-0.010516758
20
0.23381937
30
0
70
32
0
SEQEND
8
0
0
POLYLINE
8
0
62
5
66
1
10
0
20
0
30
0
70
8
0
VERTEX
8
0
62
5
10
-0.067085301
20
0.25806735
30
0
70
32
0
VERTEX
8
0
62
5
10
-0.067085301
20
0.28231532
30
0
70
32
0
SEQEND
8
0
0
POLYLINE
8
0
62
5
66
1
10
0
20
0
30
0
70
8
0
VERTEX
8
0
62
5
10
-0.038801029
20
0.25806735
30
0
70
32
0
VERTEX
8
0
62
5
10
-0.038801029
20
0.28231532
30
0
70
32
0
SEQEND
8
0
0
POLYLINE
8
0
62
5
66
1
10
0
20
0
30
0
70
8
0
VERTEX
8
0
62
5
10
-0.010516758
20
0.25806735
30
0
70
32
0
VERTEX
8
0
62
5
10
-0.010516758
20
0.28231532
30
0
70
32
0
SEQEND
8
0
0
POLYLINE
8
0
62
5
66
1
10
0
20
0
30
0
70
8
0
VERTEX
8
0
62
5
10
0.017767513
20
0.28231532
30
0
70
32
0
VERTEX
8
0
62
5
10
0.017767513
20
0.32231532
30
0
70
32
0
SEQEND
8
0
0
POLYLINE
8
0
62
5
66
1
10
0
20
0
30
0
70
8
0
VERTEX
8
0
62
5
10
0.1309046
20
0.32231532
30
0
70
32
0
VERTEX
8
0
62
5
10
0.1309046
20
0.28231532
30
0
70
32
0
SEQEND
8
0
0
POLYLINE
8
0
62
5
66
1
10
0
20
0
30
0
70
8
0
VERTEX
8
0
62
5
10
0.017767513
20
0.28231532
30
0
70
32
0
VERTEX
8
0
62
5
10
0.1309046
20
0.28231532
30
0
70
32
0
SEQEND
8
0
0
POLYLINE
8
0
62
5
66
1
10
0
20
0
30
0
70
8
0
VERTEX
8
0
62
5
10
0.017767513
20
0.32231532
30
0
70
32
0
VERTEX
8
0
62
5
10
0.1309046
20
0.32231532
30
0
70
32
0
SEQEND
8
0
0
POLYLINE
8
0
62
5
66
1
10
0
20
0
30
0
70
8
0
VERTEX
8
0
62
5
10
0.046051784
20
0.28231532
30
0
70
32
0
VERTEX
8
0
62
5
10
0.046051784
20
0.28231532
30
0
70
32
0
SEQEND
8
0
0
POLYLINE
8
0
62
5
66
1
10
0
20
0
30
0
70
8
0
VERTEX
8
0
62
5
10
0.074336056
20
0.28231532
30
0
70
32
0
VERTEX
8
0
62
5
10
0.074336056
20
0.28231532
30
0
70
32
0
SEQEND
8
0
0
POLYLINE
8
0
62
5
66
1
10
0
20
0
30
0
70
8
0
VERTEX
8
0
62
5
10
0.10262033
20
0.28231532
30
0
70
32
0
VERTEX
8
0
62
5
10
0.10262033
20
0.28231532
30
0
70
32
0
SEQEND
8
0
0
POLYLINE
8
0
62
5
66
1
10
0
20
0
30
0
70
8
0
VERTEX
8
0
62
5
10
0.046051784
20
0.32231532
30
0
70
32
0
VERTEX
8
0
62
5
10
0.046051784
20
0.32231532
30
0
70
32
0
SEQEND
8
0
0
POLYLINE
8
0
62
5
66
1
10
0
20
0
30
0
70
8
0
VERTEX
8
0
62
5
10
0.074336056
20
0.32231532
30
0
70
32
0
VERTEX
8
0
62
5
10
0.074336056
20
0.32231532
30
0
70
32
0
SEQEND
8
0
0
POLYLINE
8
0
62
5
66
1
10
0
20
0
30
0
70
8
0
VERTEX
8
0
62
5
10
0.10262033
20
0.32231532
30
0
70
32
0
VERTEX
8
0
62
5
10
0.10262033
20
0.32231532
30
0
70
32
0
SEQEND
8
0
0
POLYLINE
8
0
62
30
66
1
10
0
20
0
30
0
70
8
0
VERTEX
8
0
62
30
10
0.017767513
20
0.32231532
30
0
70
32
0
VERTEX
8
0
62
30
10
0.046051784
20
0.28231532
30
0
70
32
0
SEQEND
8
0
0
POLYLINE
8
0
62
30
66
1
10
0
20
0
30
0
70
8
0
VERTEX
8
0
62
30
10
0.046051784
20
0.32231532
30
0
70
32
0
VERTEX
8
0
62
30
10
0.017767513
20
0.28231532
30
0
70
32
0
SEQEND
8
0
0
POLYLINE
8
0
62
30
66
1
10
0
20
0
30
0
70
8
0
VERTEX
8
0
62
30
10
0.074336056
20
0.32231532
30
0
70
32
0
VERTEX
8
0
62
30
10
0.10262033
20
0.28231532
30
0
70
32
0
SEQEND
8
0
0
POLYLINE
8
0
62
30
66
1
10
0
20
0
30
0
70
8
0
VERTEX
8
0
62
30
10
0.10262033
20
0.32231532
30
0
70
32
0
VERTEX
8
0
62
30
10
0.074336056
20
0.28231532
30
0
70
32
0
SEQEND
8
0
0
POLYLINE
8
0
62
30
66
1
10
0
20
0
30
0
70
8
0
VERTEX
8
0
62
30
10
0.046051784
20
0.30231532
30
0
70
32
0
VERTEX
8
0
62
30
10
0.074336056
20
0.30231532
30
0
70
32
0
SEQEND
8
0
0
POLYLINE
8
0
62
30
66
1
10
0
20
0
30
0
70
8
0
VERTEX
8
0
62
30
10
0.10262033
20
0.30231532
30
0
70
32
0
VERTEX
8
0
62
30
10
0.1309046
20
0.30231532
30
0
70
32
0
SEQEND
8
0
0
POLYLINE
8
0
62
5
66
1
10
0
20
0
30
0
70
8
0
VERTEX
8
0
62
5
10
0.017767513
20
0.30231532
30
0
70
32
0
VERTEX
8
0
62
5
10
0.031909649
20
0.30231532
30
0
70
32
0
SEQEND
8
0
0
POLYLINE
8
0
62
5
66
1
10
0
20
0
30
0
70
8
0
VERTEX
8
0
62
5
10
0.074336056
20
0.30231532
30
0
70
32
0
VERTEX
8
0
62
5
10
0.088478191
20
0.30231532
30
0
70
32
0
SEQEND
8
0
0
POLYLINE
8
0
62
5
66
1
10
0
20
0
30
0
70
8
0
VERTEX
8
0
62
5
10
0.031909649
20
0.30231532
30
0
70
32
0
VERTEX
8
0
62
5
10
0.046051784
20
0.30231532
30
0
70
32
0
SEQEND
8
0
0
POLYLINE
8
0
62
5
66
1
10
0
20
0
30
0
70
8
0
VERTEX
8
0
62
5
10
0.088478191
20
0.30231532
30
0
70
32
0
VERTEX
8
0
62
5
10
0.10262033
20
0.30231532
30
0
70
32
0
SEQEND
8
0
0
POLYLINE
8
0
62
5
66
1
10
0
20
0
30
0
70
8
0
VERTEX
8
0
62
5
10
0.046051784
20
0.28231532
30
0
70
32
0
VERTEX
8
0
62
5
10
0.046051784
20
0.32231532
30
0
70
32
0
SEQEND
8
0
0
POLYLINE
8
0
62
5
66
1
10
0
20
0
30
0
70
8
0
VERTEX
8
0
62
5
10
0.074336056
20
0.28231532
30
0
70
32
0
VERTEX
8
0
62
5
10
0.074336056
20
0.32231532
30
0
70
32
0
SEQEND
8
0
0
POLYLINE
8
0
62
5
66
1
10
0
20
0
30
0
70
8
0
VERTEX
8
0
62
5
10
0.10262033
20
0.28231532
30
0
70
32
0
VERTEX
8
0
62
5
10
0.10262033
20
0.32231532
30
0
70
32
0
SEQEND
8
0
0
POLYLINE
8
0
62
5
66
1
10
0
20
0
30
0
70
8
0
VERTEX
8
0
62
5
10
0.017767513
20
0.28231532
30
0
70
32
0
VERTEX
8
0
62
5
10
0.017767513
20
0.32231532
30
0
70
32
0
SEQEND
8
0
0
POLYLINE
8
0
62
5
66
1
10
0
20
0
30
0
70
8
0
VERTEX
8
0
62
5
10
0.24404168
20
0.32231532
30
0
70
32
0
VERTEX
8
0
62
5
10
0.24404168
20
0.28231532
30
0
70
32
0
SEQEND
8
0
0
POLYLINE
8
0
62
5
66
1
10
0
20
0
30
0
70
8
0
VERTEX
8
0
62
5
10
0.1309046
20
0.28231532
30
0
70
32
0
VERTEX
8
0
62
5
10
0.24404168
20
0.28231532
30
0
70
32
0
SEQEND
8
0
0
POLYLINE
8
0
62
5
66
1
10
0
20
0
30
0
70
8
0
VERTEX
8
0
62
5
10
0.1309046
20
0.32231532
30
0
70
32
0
VERTEX
8
0
62
5
10
0.24404168
20
0.32231532
30
0
70
32
0
SEQEND
8
0
0
POLYLINE
8
0
62
5
66
1
10
0
20
0
30
0
70
8
0
VERTEX
8
0
62
5
10
0.15918887
20
0.28231532
30
0
70
32
0
VERTEX
8
0
62
5
10
0.15918887
20
0.28231532
30
0
70
32
0
SEQEND
8
0
0
POLYLINE
8
0
62
5
66
1
10
0
20
0
30
0
70
8
0
VERTEX
8
0
62
5
10
0.18747314
20
0.28231532
30
0
70
32
0
VERTEX
8
0
62
5
10
0.18747314
20
0.28231532
30
0
70
32
0
SEQEND
8
0
0
POLYLINE
8
0
62
5
66
1
10
0
20
0
30
0
70
8
0
VERTEX
8
0
62
5
10
0.21575741
20
0.28231532
30
0
70
32
0
VERTEX
8
0
62
5
10
0.21575741
20
0.28231532
30
0
70
32
0
SEQEND
8
0
0
POLYLINE
8
0
62
5
66
1
10
0
20
0
30
0
70
8
0
VERTEX
8
0
62
5
10
0.15918887
20
0.32231532
30
0
70
32
0
VERTEX
8
0
62
5
10
0.15918887
20
0.32231532
30
0
70
32
0
SEQEND
8
0
0
POLYLINE
8
0
62
5
66
1
10
0
20
0
30
0
70
8
0
VERTEX
8
0
62
5
10
0.18747314
20
0.32231532
30
0
70
32
0
VERTEX
8
0
62
5
10
0.18747314
20
0.32231532
30
0
70
32
0
SEQEND
8
0
0
POLYLINE
8
0
62
5
66
1
10
0
20
0
30
0
70
8
0
VERTEX
8
0
62
5
10
0.21575741
20
0.32231532
30
0
70
32
0
VERTEX
8
0
62
5
10
0.21575741
20
0.32231532
30
0
70
32
0
SEQEND
8
0
0
POLYLINE
8
0
62
30
66
1
10
0
20
0
30
0
70
8
0
VERTEX
8
0
62
30
10
0.1309046
20
0.32231532
30
0
70
32
0
VERTEX
8
0
62
30
10
0.15918887
20
0.28231532
30
0
70
32
0
SEQEND
8
0
0
POLYLINE
8
0
62
30
66
1
10
0
20
0
30
0
70
8
0
VERTEX
8
0
62
30
10
0.15918887
20
0.32231532
30
0
70
32
0
VERTEX
8
0
62
30
10
0.1309046
20
0.28231532
30
0
70
32
0
SEQEND
8
0
0
POLYLINE
8
0
62
30
66
1
10
0
20
0
30
0
70
8
0
VERTEX
8
0
62
30
10
0.18747314
20
0.32231532
30
0
70
32
0
VERTEX
8
0
62
30
10
0.21575741
20
0.28231532
30
0
70
32
0
SEQEND
8
0
0
POLYLINE
8
0
62
30
66
1
10
0
20
0
30
0
70
8
0
VERTEX
8
0
62
30
10
0.21575741
20
0.32231532
30
0
70
32
0
VERTEX
8
0
62
30
10
0.18747314
20
0.28231532
30
0
70
32
0
SEQEND
8
0
0
POLYLINE
8
0
62
30
66
1
10
0
20
0
30
0
70
8
0
VERTEX
8
0
62
30
10
0.15918887
20
0.30231532
30
0
70
32
0
VERTEX
8
0
62
30
10
0.18747314
20
0.30231532
30
0
70
32
0
SEQEND
8
0
0
POLYLINE
8
0
62
30
66
1
10
0
20
0
30
0
70
8
0
VERTEX
8
0
62
30
10
0.21575741
20
0.30231532
30
0
70
32
0
VERTEX
8
0
62
30
10
0.24404168
20
0.30231532
30
0
70
32
0
SEQEND
8
0
0
POLYLINE
8
0
62
5
66
1
10
0
20
0
30
0
70
8
0
VERTEX
8
0
62
5
10
0.1309046
20
0.30231532
30
0
70
32
0
VERTEX
8
0
62
5
10
0.14504673
20
0.30231532
30
0
70
32
0
SEQEND
8
0
0
POLYLINE
8
0
62
5
66
1
10
0
20
0
30
0
70
8
0
VERTEX
8
0
62
5
10
0.18747314
20
0.30231532
30
0
70
32
0
VERTEX
8
0
62
5
10
0.20161528
20
0.30231532
30
0
70
32
0
SEQEND
8
0
0
POLYLINE
8
0
62
5
66
1
10
0
20
0
30
0
70
8
0
VERTEX
8
0
62
5
10
0.14504673
20
0.30231532
30
0
70
32
0
VERTEX
8
0
62
5
10
0.15918887
20
0.30231532
30
0
70
32
0
SEQEND
8
0
0
POLYLINE
8
0
62
5
66
1
10
0
20
0
30
0
70
8
0
VERTEX
8
0
62
5
10
0.20161528
20
0.30231532
30
0
70
32
0
VERTEX
8
0
62
5
10
0.21575741
20
0.30231532
30
0
70
32
0
SEQEND
8
0
0
POLYLINE
8
0
62
5
66
1
10
0
20
0
30
0
70
8
0
VERTEX
8
0
62
5
10
0.15918887
20
0.28231532
30
0
70
32
0
VERTEX
8
0
62
5
10
0.15918887
20
0.32231532
30
0
70
32
0
SEQEND
8
0
0
POLYLINE
8
0
62
5
66
1
10
0
20
0
30
0
70
8
0
VERTEX
8
0
62
5
10
0.18747314
20
0.28231532
30
0
70
32
0
VERTEX
8
0
62
5
10
0.18747314
20
0.32231532
30
0
70
32
0
SEQEND
8
0
0
POLYLINE
8
0
62
5
66
1
10
0
20
0
30
0
70
8
0
VERTEX
8
0
62
5
10
0.21575741
20
0.28231532
30
0
70
32
0
VERTEX
8
0
62
5
10
0.21575741
20
0.32231532
30
0
70
32
0
SEQEND
8
0
0
POLYLINE
8
0
62
5
66
1
10
0
20
0
30
0
70
8
0
VERTEX
8
0
62
5
10
0.1309046
20
0.28231532
30
0
70
32
0
VERTEX
8
0
62
5
10
0.1309046
20
0.32231532
30
0
70
32
0
SEQEND
8
0
0
POLYLINE
8
0
62
5
66
1
10
0
20
0
30
0
70
8
0
VERTEX
8
0
62
5
10
-0.095369572
20
0.28231532
30
0
70
32
0
VERTEX
8
0
62
5
10
-0.095369572
20
0.32231532
30
0
70
32
0
SEQEND
8
0
0
POLYLINE
8
0
62
5
66
1
10
0
20
0
30
0
70
8
0
VERTEX
8
0
62
5
10
-0.095369572
20
0.28231532
30
0
70
32
0
VERTEX
8
0
62
5
10
0.017767513
20
0.28231532
30
0
70
32
0
SEQEND
8
0
0
POLYLINE
8
0
62
5
66
1
10
0
20
0
30
0
70
8
0
VERTEX
8
0
62
5
10
-0.095369572
20
0.32231532
30
0
70
32
0
VERTEX
8
0
62
5
10
0.017767513
20
0.32231532
30
0
70
32
0
SEQEND
8
0
0
POLYLINE
8
0
62
5
66
1
10
0
20
0
30
0
70
8
0
VERTEX
8
0
62
5
10
-0.067085301
20
0.28231532
30
0
70
32
0
VERTEX
8
0
62
5
10
-0.067085301
20
0.28231532
30
0
70
32
0
SEQEND
8
0
0
POLYLINE
8
0
62
5
66
1
10
0
20
0
30
0
70
8
0
VERTEX
8
0
62
5
10
-0.038801029
20
0.28231532
30
0
70
32
0
VERTEX
8
0
62
5
10
-0.038801029
20
0.28231532
30
0
70
32
0
SEQEND
8
0
0
POLYLINE
8
0
62
5
66
1
10
0
20
0
30
0
70
8
0
VERTEX
8
0
62
5
10
-0.010516758
20
0.28231532
30
0
70
32
0
VERTEX
8
0
62
5
10
-0.010516758
20
0.28231532
30
0
70
32
0
SEQEND
8
0
0
POLYLINE
8
0
62
5
66
1
10
0
20
0
30
0
70
8
0
VERTEX
8
0
62
5
10
-0.067085301
20
0.32231532
30
0
70
32
0
VERTEX
8
0
62
5
10
-0.067085301
20
0.32231532
30
0
70
32
0
SEQEND
8
0
0
POLYLINE
8
0
62
5
66
1
10
0
20
0
30
0
70
8
0
VERTEX
8
0
62
5
10
-0.038801029
20
0.32231532
30
0
70
32
0
VERTEX
8
0
62
5
10
-0.038801029
20
0.32231532
30
0
70
32
0
SEQEND
8
0
0
POLYLINE
8
0
62
5
66
1
10
0
20
0
30
0
70
8
0
VERTEX
8
0
62
5
10
-0.010516758
20
0.32231532
30
0
70
32
0
VERTEX
8
0
62
5
10
-0.010516758
20
0.32231532
30
0
70
32
0
SEQEND
8
0
0
POLYLINE
8
0
62
30
66
1
10
0
20
0
30
0
70
8
0
VERTEX
8
0
62
30
10
-0.095369572
20
0.32231532
30
0
70
32
0
VERTEX
8
0
62
30
10
-0.067085301
20
0.28231532
30
0
70
32
0
SEQEND
8
0
0
POLYLINE
8
0
62
30
66
1
10
0
20
0
30
0
70
8
0
VERTEX
8
0
62
30
10
-0.067085301
20
0.32231532
30
0
70
32
0
VERTEX
8
0
62
30
10
-0.095369572
20
0.28231532
30
0
70
32
0
SEQEND
8
0
0
POLYLINE
8
0
62
30
66
1
10
0
20
0
30
0
70
8
0
VERTEX
8
0
62
30
10
-0.038801029
20
0.32231532
30
0
70
32
0
VERTEX
8
0
62
30
10
-0.010516758
20
0.28231532
30
0
70
32
0
SEQEND
8
0
0
POLYLINE
8
0
62
30
66
1
10
0
20
0
30
0
70
8
0
VERTEX
8
0
62
30
10
-0.010516758
20
0.32231532
30
0
70
32
0
VERTEX
8
0
62
30
10
-0.038801029
20
0.28231532
30
0
70
32
0
SEQEND
8
0
0
POLYLINE
8
0
62
30
66
1
10
0
20
0
30
0
70
8
0
VERTEX
8
0
62
30
10
-0.067085301
20
0.30231532
30
0
70
32
0
VERTEX
8
0
62
30
10
-0.038801029
20
0.30231532
30
0
70
32
0
SEQEND
8
0
0
POLYLINE
8
0
62
30
66
1
10
0
20
0
30
0
70
8
0
VERTEX
8
0
62
30
10
-0.010516758
20
0.30231532
30
0
70
32
0
VERTEX
8
0
62
30
10
0.017767513
20
0.30231532
30
0
70
32
0
SEQEND
8
0
0
POLYLINE
8
0
62
5
66
1
10
0
20
0
30
0
70
8
0
VERTEX
8
0
62
5
10
-0.095369572
20
0.30231532
30
0
70
32
0
VERTEX
8
0
62
5
10
-0.081227436
20
0.30231532
30
0
70
32
0
SEQEND
8
0
0
POLYLINE
8
0
62
5
66
1
10
0
20
0
30
0
70
8
0
VERTEX
8
0
62
5
10
-0.038801029
20
0.30231532
30
0
70
32
0
VERTEX
8
0
62
5
10
-0.024658894
20
0.30231532
30
0
70
32
0
SEQEND
8
0
0
POLYLINE
8
0
62
5
66
1
10
0
20
0
30
0
70
8
0
VERTEX
8
0
62
5
10
-0.081227436
20
0.30231532
30
0
70
32
0
VERTEX
8
0
62
5
10
-0.067085301
20
0.30231532
30
0
70
32
0
SEQEND
8
0
0
POLYLINE
8
0
62
5
66
1
10
0
20
0
30
0
70
8
0
VERTEX
8
0
62
5
10
-0.024658894
20
0.30231532
30
0
70
32
0
VERTEX
8
0
62
5
10
-0.010516758
20
0.30231532
30
0
70
32
0
SEQEND
8
0
0
POLYLINE
8
0
62
5
66
1
10
0
20
0
30
0
70
8
0
VERTEX
8
0
62
5
10
-0.067085301
20
0.28231532
30
0
70
32
0
VERTEX
8
0
62
5
10
-0.067085301
20
0.32231532
30
0
70
32
0
SEQEND
8
0
0
POLYLINE
8
0
62
5
66
1
10
0
20
0
30
0
70
8
0
VERTEX
8
0
62
5
10
-0.038801029
20
0.28231532
30
0
70
32
0
VERTEX
8
0
62
5
10
-0.038801029
20
0.32231532
30
0
70
32
0
SEQEND
8
0
0
POLYLINE
8
0
62
5
66
1
10
0
20
0
30
0
70
8
0
VERTEX
8
0
62
5
10
-0.010516758
20
0.28231532
30
0
70
32
0
VERTEX
8
0
62
5
10
-0.010516758
20
0.32231532
30
0
70
32
0
SEQEND
8
0
0
POLYLINE
8
0
62
5
66
1
10
0
20
0
30
0
70
8
0
VERTEX
8
0
62
5
10
-0.095369572
20
0.28231532
30
0
70
32
0
VERTEX
8
0
62
5
10
-0.095369572
20
0.32231532
30
0
70
32
0
SEQEND
8
0
0
POLYLINE
8
0
62
5
66
1
10
0
20
0
30
0
70
8
0
VERTEX
8
0
62
5
10
0.017767513
20
0.32231532
30
0
70
32
0
VERTEX
8
0
62
5
10
0.017767513
20
0.35059959
30
0
70
32
0
SEQEND
8
0
0
POLYLINE
8
0
62
5
66
1
10
0
20
0
30
0
70
8
0
VERTEX
8
0
62
5
10
0.1309046
20
0.35059959
30
0
70
32
0
VERTEX
8
0
62
5
10
0.1309046
20
0.32231532
30
0
70
32
0
SEQEND
8
0
0
POLYLINE
8
0
62
5
66
1
10
0
20
0
30
0
70
8
0
VERTEX
8
0
62
5
10
0.017767513
20
0.32474173
30
0
70
32
0
VERTEX
8
0
62
5
10
0.046051784
20
0.32474173
30
0
70
32
0
VERTEX
8
0
62
5
10
0.074336056
20
0.33645746
30
0
70
32
0
VERTEX
8
0
62
5
10
0.10262033
20
0.33645746
30
0
70
32
0
VERTEX
8
0
62
5
10
0.1309046
20
0.32474173
30
0
70
32
0
SEQEND
8
0
0
POLYLINE
8
0
62
5
66
1
10
0
20
0
30
0
70
8
0
SEQEND
8
0
0
POLYLINE
8
0
62
5
66
1
10
0
20
0
30
0
70
8
0
VERTEX
8
0
62
5
10
0.017767513
20
0.34817319
30
0
70
32
0
VERTEX
8
0
62
5
10
0.046051784
20
0.34817319
30
0
70
32
0
VERTEX
8
0
62
5
10
0.074336056
20
0.33645746
30
0
70
32
0
VERTEX
8
0
62
5
10
0.10262033
20
0.33645746
30
0
70
32
0
VERTEX
8
0
62
5
10
0.1309046
20
0.34817319
30
0
70
32
0
SEQEND
8
0
0
POLYLINE
8
0
62
30
66
1
10
0
20
0
30
0
70
8
0
VERTEX
8
0
62
30
10
0.017767513
20
0.33645746
30
0
70
32
0
VERTEX
8
0
62
30
10
0.1309046
20
0.33645746
30
0
70
32
0
SEQEND
8
0
0
POLYLINE
8
0
62
30
66
1
10
0
20
0
30
0
70
8
0
VERTEX
8
0
62
30
10
0.046051784
20
0.32474173
30
0
70
32
0
VERTEX
8
0
62
30
10
0.046051784
20
0.33645746
30
0
70
32
0
SEQEND
8
0
0
POLYLINE
8
0
62
30
66
1
10
0
20
0
30
0
70
8
0
VERTEX
8
0
62
30
10
0.074336056
20
0.33645746
30
0
70
32
0
VERTEX
8
0
62
30
10
0.074336056
20
0.33645746
30
0
70
32
0
SEQEND
8
0
0
POLYLINE
8
0
62
30
66
1
10
0
20
0
30
0
70
8
0
VERTEX
8
0
62
30
10
0.10262033
20
0.33645746
30
0
70
32
0
VERTEX
8
0
62
30
10
0.10262033
20
0.33645746
30
0
70
32
0
SEQEND
8
0
0
POLYLINE
8
0
62
5
66
1
10
0
20
0
30
0
70
8
0
VERTEX
8
0
62
5
10
0.046051784
20
0.32231532
30
0
70
32
0
VERTEX
8
0
62
5
10
0.046051784
20
0.32474173
30
0
70
32
0
SEQEND
8
0
0
POLYLINE
8
0
62
5
66
1
10
0
20
0
30
0
70
8
0
VERTEX
8
0
62
5
10
0.074336056
20
0.32231532
30
0
70
32
0
VERTEX
8
0
62
5
10
0.074336056
20
0.33645746
30
0
70
32
0
SEQEND
8
0
0
POLYLINE
8
0
62
5
66
1
10
0
20
0
30
0
70
8
0
VERTEX
8
0
62
5
10
0.10262033
20
0.32231532
30
0
70
32
0
VERTEX
8
0
62
5
10
0.10262033
20
0.33645746
30
0
70
32
0
SEQEND
8
0
0
POLYLINE
8
0
62
5
66
1
10
0
20
0
30
0
70
8
0
VERTEX
8
0
62
5
10
0.046051784
20
0.33645746
30
0
70
32
0
VERTEX
8
0
62
5
10
0.046051784
20
0.35059959
30
0
70
32
0
SEQEND
8
0
0
POLYLINE
8
0
62
5
66
1
10
0
20
0
30
0
70
8
0
VERTEX
8
0
62
5
10
0.074336056
20
0.33645746
30
0
70
32
0
VERTEX
8
0
62
5
10
0.074336056
20
0.35059959
30
0
70
32
0
SEQEND
8
0
0
POLYLINE
8
0
62
5
66
1
10
0
20
0
30
0
70
8
0
VERTEX
8
0
62
5
10
0.10262033
20
0.33645746
30
0
70
32
0
VERTEX
8
0
62
5
10
0.10262033
20
0.35059959
30
0
70
32
0
SEQEND
8
0
0
POLYLINE
8
0
62
5
66
1
10
0
20
0
30
0
70
8
0
VERTEX
8
0
62
5
10
0.24404168
20
0.35059959
30
0
70
32
0
VERTEX
8
0
62
5
10
0.24404168
20
0.32231532
30
0
70
32
0
SEQEND
8
0
0
POLYLINE
8
0
62
5
66
1
10
0
20
0
30
0
70
8
0
VERTEX
8
0
62
5
10
0.1309046
20
0.32474173
30
0
70
32
0
VERTEX
8
0
62
5
10
0.15918887
20
0.32474173
30
0
70
32
0
VERTEX
8
0
62
5
10
0.18747314
20
0.33645746
30
0
70
32
0
VERTEX
8
0
62
5
10
0.21575741
20
0.33645746
30
0
70
32
0
VERTEX
8
0
62
5
10
0.24404168
20
0.32474173
30
0
70
32
0
SEQEND
8
0
0
POLYLINE
8
0
62
5
66
1
10
0
20
0
30
0
70
8
0
SEQEND
8
0
0
POLYLINE
8
0
62
5
66
1
10
0
20
0
30
0
70
8
0
VERTEX
8
0
62
5
10
0.1309046
20
0.34817319
30
0
70
32
0
VERTEX
8
0
62
5
10
0.15918887
20
0.34817319
30
0
70
32
0
VERTEX
8
0
62
5
10
0.18747314
20
0.33645746
30
0
70
32
0
VERTEX
8
0
62
5
10
0.21575741
20
0.33645746
30
0
70
32
0
VERTEX
8
0
62
5
10
0.24404168
20
0.34817319
30
0
70
32
0
SEQEND
8
0
0
POLYLINE
8
0
62
30
66
1
10
0
20
0
30
0
70
8
0
VERTEX
8
0
62
30
10
0.1309046
20
0.33645746
30
0
70
32
0
VERTEX
8
0
62
30
10
0.24404168
20
0.33645746
30
0
70
32
0
SEQEND
8
0
0
POLYLINE
8
0
62
30
66
1
10
0
20
0
30
0
70
8
0
VERTEX
8
0
62
30
10
0.15918887
20
0.32474173
30
0
70
32
0
VERTEX
8
0
62
30
10
0.15918887
20
0.33645746
30
0
70
32
0
SEQEND
8
0
0
POLYLINE
8
0
62
30
66
1
10
0
20
0
30
0
70
8
0
VERTEX
8
0
62
30
10
0.18747314
20
0.33645746
30
0
70
32
0
VERTEX
8
0
62
30
10
0.18747314
20
0.33645746
30
0
70
32
0
SEQEND
8
0
0
POLYLINE
8
0
62
30
66
1
10
0
20
0
30
0
70
8
0
VERTEX
8
0
62
30
10
0.21575741
20
0.33645746
30
0
70
32
0
VERTEX
8
0
62
30
10
0.21575741
20
0.33645746
30
0
70
32
0
SEQEND
8
0
0
POLYLINE
8
0
62
5
66
1
10
0
20
0
30
0
70
8
0
VERTEX
8
0
62
5
10
0.15918887
20
0.32231532
30
0
70
32
0
VERTEX
8
0
62
5
10
0.15918887
20
0.32474173
30
0
70
32
0
SEQEND
8
0
0
POLYLINE
8
0
62
5
66
1
10
0
20
0
30
0
70
8
0
VERTEX
8
0
62
5
10
0.18747314
20
0.32231532
30
0
70
32
0
VERTEX
8
0
62
5
10
0.18747314
20
0.33645746
30
0
70
32
0
SEQEND
8
0
0
POLYLINE
8
0
62
5
66
1
10
0
20
0
30
0
70
8
0
VERTEX
8
0
62
5
10
0.21575741
20
0.32231532
30
0
70
32
0
VERTEX
8
0
62
5
10
0.21575741
20
0.33645746
30
0
70
32
0
SEQEND
8
0
0
POLYLINE
8
0
62
5
66
1
10
0
20
0
30
0
70
8
0
VERTEX
8
0
62
5
10
0.15918887
20
0.33645746
30
0
70
32
0
VERTEX
8
0
62
5
10
0.15918887
20
0.35059959
30
0
70
32
0
SEQEND
8
0
0
POLYLINE
8
0
62
5
66
1
10
0
20
0
30
0
70
8
0
VERTEX
8
0
62
5
10
0.18747314
20
0.33645746
30
0
70
32
0
VERTEX
8
0
62
5
10
0.18747314
20
0.35059959
30
0
70
32
0
SEQEND
8
0
0
POLYLINE
8
0
62
5
66
1
10
0
20
0
30
0
70
8
0
VERTEX
8
0
62
5
10
0.21575741
20
0.33645746
30
0
70
32
0
VERTEX
8
0
62
5
10
0.21575741
20
0.35059959
30
0
70
32
0
SEQEND
8
0
0
POLYLINE
8
0
62
5
66
1
10
0
20
0
30
0
70
8
0
VERTEX
8
0
62
5
10
-0.095369572
20
0.32231532
30
0
70
32
0
VERTEX
8
0
62
5
10
-0.095369572
20
0.35059959
30
0
70
32
0
SEQEND
8
0
0
POLYLINE
8
0
62
5
66
1
10
0
20
0
30
0
70
8
0
VERTEX
8
0
62
5
10
-0.095369572
20
0.32474173
30
0
70
32
0
VERTEX
8
0
62
5
10
-0.067085301
20
0.32474173
30
0
70
32
0
VERTEX
8
0
62
5
10
-0.038801029
20
0.33645746
30
0
70
32
0
VERTEX
8
0
62
5
10
-0.010516758
20
0.33645746
30
0
70
32
0
VERTEX
8
0
62
5
10
0.017767513
20
0.32474173
30
0
70
32
0
SEQEND
8
0
0
POLYLINE
8
0
62
5
66
1
10
0
20
0
30
0
70
8
0
SEQEND
8
0
0
POLYLINE
8
0
62
5
66
1
10
0
20
0
30
0
70
8
0
VERTEX
8
0
62
5
10
-0.095369572
20
0.34817319
30
0
70
32
0
VERTEX
8
0
62
5
10
-0.067085301
20
0.34817319
30
0
70
32
0
VERTEX
8
0
62
5
10
-0.038801029
20
0.33645746
30
0
70
32
0
VERTEX
8
0
62
5
10
-0.010516758
20
0.33645746
30
0
70
32
0
VERTEX
8
0
62
5
10
0.017767513
20
0.34817319
30
0
70
32
0
SEQEND
8
0
0
POLYLINE
8
0
62
30
66
1
10
0
20
0
30
0
70
8
0
VERTEX
8
0
62
30
10
-0.095369572
20
0.33645746
30
0
70
32
0
VERTEX
8
0
62
30
10
0.017767513
20
0.33645746
30
0
70
32
0
SEQEND
8
0
0
POLYLINE
8
0
62
30
66
1
10
0
20
0
30
0
70
8
0
VERTEX
8
0
62
30
10
-0.067085301
20
0.32474173
30
0
70
32
0
VERTEX
8
0
62
30
10
-0.067085301
20
0.33645746
30
0
70
32
0
SEQEND
8
0
0
POLYLINE
8
0
62
30
66
1
10
0
20
0
30
0
70
8
0
VERTEX
8
0
62
30
10
-0.038801029
20
0.33645746
30
0
70
32
0
VERTEX
8
0
62
30
10
-0.038801029
20
0.33645746
30
0
70
32
0
SEQEND
8
0
0
POLYLINE
8
0
62
30
66
1
10
0
20
0
30
0
70
8
0
VERTEX
8
0
62
30
10
-0.010516758
20
0.33645746
30
0
70
32
0
VERTEX
8
0
62
30
10
-0.010516758
20
0.33645746
30
0
70
32
0
SEQEND
8
0
0
POLYLINE
8
0
62
5
66
1
10
0
20
0
30
0
70
8
0
VERTEX
8
0
62
5
10
-0.067085301
20
0.32231532
30
0
70
32
0
VERTEX
8
0
62
5
10
-0.067085301
20
0.32474173
30
0
70
32
0
SEQEND
8
0
0
POLYLINE
8
0
62
5
66
1
10
0
20
0
30
0
70
8
0
VERTEX
8
0
62
5
10
-0.038801029
20
0.32231532
30
0
70
32
0
VERTEX
8
0
62
5
10
-0.038801029
20
0.33645746
30
0
70
32
0
SEQEND
8
0
0
POLYLINE
8
0
62
5
66
1
10
0
20
0
30
0
70
8
0
VERTEX
8
0
62
5
10
-0.010516758
20
0.32231532
30
0
70
32
0
VERTEX
8
0
62
5
10
-0.010516758
20
0.33645746
30
0
70
32
0
SEQEND
8
0
0
POLYLINE
8
0
62
5
66
1
10
0
20
0
30
0
70
8
0
VERTEX
8
0
62
5
10
-0.067085301
20
0.33645746
30
0
70
32
0
VERTEX
8
0
62
5
10
-0.067085301
20
0.35059959
30
0
70
32
0
SEQEND
8
0
0
POLYLINE
8
0
62
5
66
1
10
0
20
0
30
0
70
8
0
VERTEX
8
0
62
5
10
-0.038801029
20
0.33645746
30
0
70
32
0
VERTEX
8
0
62
5
10
-0.038801029
20
0.35059959
30
0
70
32
0
SEQEND
8
0
0
POLYLINE
8
0
62
5
66
1
10
0
20
0
30
0
70
8
0
VERTEX
8
0
62
5
10
-0.010516758
20
0.33645746
30
0
70
32
0
VERTEX
8
0
62
5
10
-0.010516758
20
0.35059959
30
0
70
32
0
SEQEND
8
0
0
POLYLINE
8
0
62
5
66
1
10
0
20
0
30
0
70
8
0
VERTEX
8
0
62
5
10
0.017767513
20
0.35059959
30
0
70
32
0
VERTEX
8
0
62
5
10
0.017767513
20
0.35508488
30
0
70
32
0
SEQEND
8
0
0
POLYLINE
8
0
62
5
66
1
10
0
20
0
30
0
70
8
0
VERTEX
8
0
62
5
10
0.046051784
20
0.35059959
30
0
70
32
0
VERTEX
8
0
62
5
10
0.046051784
20
0.35508488
30
0
70
32
0
SEQEND
8
0
0
POLYLINE
8
0
62
5
66
1
10
0
20
0
30
0
70
8
0
VERTEX
8
0
62
5
10
0.074336056
20
0.35059959
30
0
70
32
0
VERTEX
8
0
62
5
10
0.074336056
20
0.35508488
30
0
70
32
0
SEQEND
8
0
0
POLYLINE
8
0
62
5
66
1
10
0
20
0
30
0
70
8
0
VERTEX
8
0
62
5
10
0.10262033
20
0.35059959
30
0
70
32
0
VERTEX
8
0
62
5
10
0.10262033
20
0.35508488
30
0
70
32
0
SEQEND
8
0
0
POLYLINE
8
0
62
5
66
1
10
0
20
0
30
0
70
8
0
VERTEX
8
0
62
5
10
0.1309046
20
0.35059959
30
0
70
32
0
VERTEX
8
0
62
5
10
0.1309046
20
0.35508488
30
0
70
32
0
SEQEND
8
0
0
POLYLINE
8
0
62
5
66
1
10
0
20
0
30
0
70
8
0
VERTEX
8
0
62
5
10
0.046051784
20
0.35059959
30
0
70
32
0
VERTEX
8
0
62
5
10
0.046051784
20
0.35059959
30
0
70
32
0
SEQEND
8
0
0
POLYLINE
8
0
62
5
66
1
10
0
20
0
30
0
70
8
0
VERTEX
8
0
62
5
10
0.074336056
20
0.35059959
30
0
70
32
0
VERTEX
8
0
62
5
10
0.074336056
20
0.35059959
30
0
70
32
0
SEQEND
8
0
0
POLYLINE
8
0
62
5
66
1
10
0
20
0
30
0
70
8
0
VERTEX
8
0
62
5
10
0.10262033
20
0.35059959
30
0
70
32
0
VERTEX
8
0
62
5
10
0.10262033
20
0.35059959
30
0
70
32
0
SEQEND
8
0
0
POLYLINE
8
0
62
5
66
1
10
0
20
0
30
0
70
8
0
VERTEX
8
0
62
5
10
0.046051784
20
0.35508488
30
0
70
32
0
VERTEX
8
0
62
5
10
0.046051784
20
0.35508488
30
0
70
32
0
SEQEND
8
0
0
POLYLINE
8
0
62
5
66
1
10
0
20
0
30
0
70
8
0
VERTEX
8
0
62
5
10
0.074336055
20
0.35508488
30
0
70
32
0
VERTEX
8
0
62
5
10
0.074336055
20
0.35508488
30
0
70
32
0
SEQEND
8
0
0
POLYLINE
8
0
62
5
66
1
10
0
20
0
30
0
70
8
0
VERTEX
8
0
62
5
10
0.10262033
20
0.35508488
30
0
70
32
0
VERTEX
8
0
62
5
10
0.10262033
20
0.35508488
30
0
70
32
0
SEQEND
8
0
0
POLYLINE
8
0
62
5
66
1
10
0
20
0
30
0
70
8
0
VERTEX
8
0
62
5
10
0.1309046
20
0.35508488
30
0
70
32
0
VERTEX
8
0
62
5
10
0.1309046
20
0.35508488
30
0
70
32
0
SEQEND
8
0
0
POLYLINE
8
0
62
5
66
1
10
0
20
0
30
0
70
8
0
VERTEX
8
0
62
5
10
0.15918887
20
0.35059959
30
0
70
32
0
VERTEX
8
0
62
5
10
0.15918887
20
0.35508488
30
0
70
32
0
SEQEND
8
0
0
POLYLINE
8
0
62
5
66
1
10
0
20
0
30
0
70
8
0
VERTEX
8
0
62
5
10
0.18747314
20
0.35059959
30
0
70
32
0
VERTEX
8
0
62
5
10
0.18747314
20
0.35508488
30
0
70
32
0
SEQEND
8
0
0
POLYLINE
8
0
62
5
66
1
10
0
20
0
30
0
70
8
0
VERTEX
8
0
62
5
10
0.21575741
20
0.35059959
30
0
70
32
0
VERTEX
8
0
62
5
10
0.21575741
20
0.35508488
30
0
70
32
0
SEQEND
8
0
0
POLYLINE
8
0
62
5
66
1
10
0
20
0
30
0
70
8
0
VERTEX
8
0
62
5
10
0.24404168
20
0.35059959
30
0
70
32
0
VERTEX
8
0
62
5
10
0.24404168
20
0.35508488
30
0
70
32
0
SEQEND
8
0
0
POLYLINE
8
0
62
5
66
1
10
0
20
0
30
0
70
8
0
VERTEX
8
0
62
5
10
0.15918887
20
0.35059959
30
0
70
32
0
VERTEX
8
0
62
5
10
0.15918887
20
0.35059959
30
0
70
32
0
SEQEND
8
0
0
POLYLINE
8
0
62
5
66
1
10
0
20
0
30
0
70
8
0
VERTEX
8
0
62
5
10
0.18747314
20
0.35059959
30
0
70
32
0
VERTEX
8
0
62
5
10
0.18747314
20
0.35059959
30
0
70
32
0
SEQEND
8
0
0
POLYLINE
8
0
62
5
66
1
10
0
20
0
30
0
70
8
0
VERTEX
8
0
62
5
10
0.21575741
20
0.35059959
30
0
70
32
0
VERTEX
8
0
62
5
10
0.21575741
20
0.35059959
30
0
70
32
0
SEQEND
8
0
0
POLYLINE
8
0
62
5
66
1
10
0
20
0
30
0
70
8
0
VERTEX
8
0
62
5
10
0.15918887
20
0.35508488
30
0
70
32
0
VERTEX
8
0
62
5
10
0.15918887
20
0.35508488
30
0
70
32
0
SEQEND
8
0
0
POLYLINE
8
0
62
5
66
1
10
0
20
0
30
0
70
8
0
VERTEX
8
0
62
5
10
0.18747314
20
0.35508488
30
0
70
32
0
VERTEX
8
0
62
5
10
0.18747314
20
0.35508488
30
0
70
32
0
SEQEND
8
0
0
POLYLINE
8
0
62
5
66
1
10
0
20
0
30
0
70
8
0
VERTEX
8
0
62
5
10
0.21575741
20
0.35508488
30
0
70
32
0
VERTEX
8
0
62
5
10
0.21575741
20
0.35508488
30
0
70
32
0
SEQEND
8
0
0
POLYLINE
8
0
62
5
66
1
10
0
20
0
30
0
70
8
0
VERTEX
8
0
62
5
10
0.24404168
20
0.35508488
30
0
70
32
0
VERTEX
8
0
62
5
10
0.24404168
20
0.35508488
30
0
70
32
0
SEQEND
8
0
0
POLYLINE
8
0
62
5
66
1
10
0
20
0
30
0
70
8
0
VERTEX
8
0
62
5
10
-0.067085301
20
0.35059959
30
0
70
32
0
VERTEX
8
0
62
5
10
-0.067085301
20
0.35508488
30
0
70
32
0
SEQEND
8
0
0
POLYLINE
8
0
62
5
66
1
10
0
20
0
30
0
70
8
0
VERTEX
8
0
62
5
10
-0.038801029
20
0.35059959
30
0
70
32
0
VERTEX
8
0
62
5
10
-0.038801029
20
0.35508488
30
0
70
32
0
SEQEND
8
0
0
POLYLINE
8
0
62
5
66
1
10
0
20
0
30
0
70
8
0
VERTEX
8
0
62
5
10
-0.010516758
20
0.35059959
30
0
70
32
0
VERTEX
8
0
62
5
10
-0.010516758
20
0.35508488
30
0
70
32
0
SEQEND
8
0
0
POLYLINE
8
0
62
5
66
1
10
0
20
0
30
0
70
8
0
VERTEX
8
0
62
5
10
0.017767513
20
0.35059959
30
0
70
32
0
VERTEX
8
0
62
5
10
0.017767513
20
0.35508488
30
0
70
32
0
SEQEND
8
0
0
POLYLINE
8
0
62
5
66
1
10
0
20
0
30
0
70
8
0
VERTEX
8
0
62
5
10
-0.067085301
20
0.35059959
30
0
70
32
0
VERTEX
8
0
62
5
10
-0.067085301
20
0.35059959
30
0
70
32
0
SEQEND
8
0
0
POLYLINE
8
0
62
5
66
1
10
0
20
0
30
0
70
8
0
VERTEX
8
0
62
5
10
-0.038801029
20
0.35059959
30
0
70
32
0
VERTEX
8
0
62
5
10
-0.038801029
20
0.35059959
30
0
70
32
0
SEQEND
8
0
0
POLYLINE
8
0
62
5
66
1
10
0
20
0
30
0
70
8
0
VERTEX
8
0
62
5
10
-0.010516758
20
0.35059959
30
0
70
32
0
VERTEX
8
0
62
5
10
-0.010516758
20
0.35059959
30
0
70
32
0
SEQEND
8
0
0
POLYLINE
8
0
62
5
66
1
10
0
20
0
30
0
70
8
0
VERTEX
8
0
62
5
10
-0.067085301
20
0.35508488
30
0
70
32
0
VERTEX
8
0
62
5
10
-0.067085301
20
0.35508488
30
0
70
32
0
SEQEND
8
0
0
POLYLINE
8
0
62
5
66
1
10
0
20
0
30
0
70
8
0
VERTEX
8
0
62
5
10
-0.03880103
20
0.35508488
30
0
70
32
0
VERTEX
8
0
62
5
10
-0.03880103
20
0.35508488
30
0
70
32
0
SEQEND
8
0
0
POLYLINE
8
0
62
5
66
1
10
0
20
0
30
0
70
8
0
VERTEX
8
0
62
5
10
-0.010516759
20
0.35508488
30
0
70
32
0
VERTEX
8
0
62
5
10
-0.010516759
20
0.35508488
30
0
70
32
0
SEQEND
8
0
0
POLYLINE
8
0
62
5
66
1
10
0
20
0
30
0
70
8
0
VERTEX
8
0
62
5
10
0.017767512
20
0.35508488
30
0
70
32
0
VERTEX
8
0
62
5
10
0.017767512
20
0.35508488
30
0
70
32
0
SEQEND
8
0
0
POLYLINE
8
0
62
5
66
1
10
0
20
0
30
0
70
8
0
VERTEX
8
0
62
5
10
0.017767512
20
0.35508488
30
0
70
32
0
VERTEX
8
0
62
5
10
0.017767512
20
0.373026
30
0
70
32
0
SEQEND
8
0
0
POLYLINE
8
0
62
5
66
1
10
0
20
0
30
0
70
8
0
VERTEX
8
0
62
5
10
0.1309046
20
0.35508488
30
0
70
32
0
VERTEX
8
0
62
5
10
0.1309046
20
0.373026
30
0
70
32
0
SEQEND
8
0
0
POLYLINE
8
0
62
5
66
1
10
0
20
0
30
0
70
8
0
VERTEX
8
0
62
5
10
0.046051784
20
0.35508488
30
0
70
32
0
VERTEX
8
0
62
5
10
0.046051784
20
0.373026
30
0
70
32
0
SEQEND
8
0
0
POLYLINE
8
0
62
5
66
1
10
0
20
0
30
0
70
8
0
VERTEX
8
0
62
5
10
0.074336055
20
0.35508488
30
0
70
32
0
VERTEX
8
0
62
5
10
0.074336055
20
0.373026
30
0
70
32
0
SEQEND
8
0
0
POLYLINE
8
0
62
5
66
1
10
0
20
0
30
0
70
8
0
VERTEX
8
0
62
5
10
0.10262033
20
0.35508488
30
0
70
32
0
VERTEX
8
0
62
5
10
0.10262033
20
0.373026
30
0
70
32
0
SEQEND
8
0
0
POLYLINE
8
0
62
5
66
1
10
0
20
0
30
0
70
8
0
VERTEX
8
0
62
5
10
0.24404168
20
0.35508488
30
0
70
32
0
VERTEX
8
0
62
5
10
0.24404168
20
0.373026
30
0
70
32
0
SEQEND
8
0
0
POLYLINE
8
0
62
5
66
1
10
0
20
0
30
0
70
8
0
VERTEX
8
0
62
5
10
0.15918887
20
0.35508488
30
0
70
32
0
VERTEX
8
0
62
5
10
0.15918887
20
0.373026
30
0
70
32
0
SEQEND
8
0
0
POLYLINE
8
0
62
5
66
1
10
0
20
0
30
0
70
8
0
VERTEX
8
0
62
5
10
0.18747314
20
0.35508488
30
0
70
32
0
VERTEX
8
0
62
5
10
0.18747314
20
0.373026
30
0
70
32
0
SEQEND
8
0
0
POLYLINE
8
0
62
5
66
1
10
0
20
0
30
0
70
8
0
VERTEX
8
0
62
5
10
0.21575741
20
0.35508488
30
0
70
32
0
VERTEX
8
0
62
5
10
0.21575741
20
0.373026
30
0
70
32
0
SEQEND
8
0
0
POLYLINE
8
0
62
5
66
1
10
0
20
0
30
0
70
8
0
VERTEX
8
0
62
5
10
-0.095369573
20
0.35508488
30
0
70
32
0
VERTEX
8
0
62
5
10
-0.095369573
20
0.373026
30
0
70
32
0
SEQEND
8
0
0
POLYLINE
8
0
62
5
66
1
10
0
20
0
30
0
70
8
0
VERTEX
8
0
62
5
10
-0.067085301
20
0.35508488
30
0
70
32
0
VERTEX
8
0
62
5
10
-0.067085301
20
0.373026
30
0
70
32
0
SEQEND
8
0
0
POLYLINE
8
0
62
5
66
1
10
0
20
0
30
0
70
8
0
VERTEX
8
0
62
5
10
-0.03880103
20
0.35508488
30
0
70
32
0
VERTEX
8
0
62
5
10
-0.03880103
20
0.373026
30
0
70
32
0
SEQEND
8
0
0
POLYLINE
8
0
62
5
66
1
10
0
20
0
30
0
70
8
0
VERTEX
8
0
62
5
10
-0.010516759
20
0.35508488
30
0
70
32
0
VERTEX
8
0
62
5
10
-0.010516759
20
0.373026
30
0
70
32
0
SEQEND
8
0
0
POLYLINE
8
0
62
5
66
1
10
0
20
0
30
0
70
8
0
VERTEX
8
0
62
5
10
0.017767512
20
0.373026
30
0
70
32
0
VERTEX
8
0
62
5
10
0.017767512
20
0.40131027
30
0
70
32
0
SEQEND
8
0
0
POLYLINE
8
0
62
5
66
1
10
0
20
0
30
0
70
8
0
VERTEX
8
0
62
5
10
0.1309046
20
0.40131027
30
0
70
32
0
VERTEX
8
0
62
5
10
0.1309046
20
0.373026
30
0
70
32
0
SEQEND
8
0
0
POLYLINE
8
0
62
5
66
1
10
0
20
0
30
0
70
8
0
VERTEX
8
0
62
5
10
0.017767512
20
0.37545241
30
0
70
32
0
VERTEX
8
0
62
5
10
0.046051784
20
0.37545241
30
0
70
32
0
VERTEX
8
0
62
5
10
0.074336055
20
0.38716814
30
0
70
32
0
VERTEX
8
0
62
5
10
0.10262033
20
0.38716814
30
0
70
32
0
VERTEX
8
0
62
5
10
0.1309046
20
0.37545241
30
0
70
32
0
SEQEND
8
0
0
POLYLINE
8
0
62
5
66
1
10
0
20
0
30
0
70
8
0
SEQEND
8
0
0
POLYLINE
8
0
62
5
66
1
10
0
20
0
30
0
70
8
0
VERTEX
8
0
62
5
10
0.017767512
20
0.39888387
30
0
70
32
0
VERTEX
8
0
62
5
10
0.046051784
20
0.39888387
30
0
70
32
0
VERTEX
8
0
62
5
10
0.074336055
20
0.38716814
30
0
70
32
0
VERTEX
8
0
62
5
10
0.10262033
20
0.38716814
30
0
70
32
0
VERTEX
8
0
62
5
10
0.1309046
20
0.39888387
30
0
70
32
0
SEQEND
8
0
0
POLYLINE
8
0
62
30
66
1
10
0
20
0
30
0
70
8
0
VERTEX
8
0
62
30
10
0.017767512
20
0.38716814
30
0
70
32
0
VERTEX
8
0
62
30
10
0.1309046
20
0.38716814
30
0
70
32
0
SEQEND
8
0
0
POLYLINE
8
0
62
30
66
1
10
0
20
0
30
0
70
8
0
VERTEX
8
0
62
30
10
0.046051784
20
0.37545241
30
0
70
32
0
VERTEX
8
0
62
30
10
0.046051784
20
0.38716814
30
0
70
32
0
SEQEND
8
0
0
POLYLINE
8
0
62
30
66
1
10
0
20
0
30
0
70
8
0
VERTEX
8
0
62
30
10
0.074336055
20
0.38716814
30
0
70
32
0
VERTEX
8
0
62
30
10
0.074336055
20
0.38716814
30
0
70
32
0
SEQEND
8
0
0
POLYLINE
8
0
62
30
66
1
10
0
20
0
30
0
70
8
0
VERTEX
8
0
62
30
10
0.10262033
20
0.38716814
30
0
70
32
0
VERTEX
8
0
62
30
10
0.10262033
20
0.38716814
30
0
70
32
0
SEQEND
8
0
0
POLYLINE
8
0
62
5
66
1
10
0
20
0
30
0
70
8
0
VERTEX
8
0
62
5
10
0.046051784
20
0.373026
30
0
70
32
0
VERTEX
8
0
62
5
10
0.046051784
20
0.37545241
30
0
70
32
0
SEQEND
8
0
0
POLYLINE
8
0
62
5
66
1
10
0
20
0
30
0
70
8
0
VERTEX
8
0
62
5
10
0.074336055
20
0.373026
30
0
70
32
0
VERTEX
8
0
62
5
10
0.074336055
20
0.38716814
30
0
70
32
0
SEQEND
8
0
0
POLYLINE
8
0
62
5
66
1
10
0
20
0
30
0
70
8
0
VERTEX
8
0
62
5
10
0.10262033
20
0.373026
30
0
70
32
0
VERTEX
8
0
62
5
10
0.10262033
20
0.38716814
30
0
70
32
0
SEQEND
8
0
0
POLYLINE
8
0
62
5
66
1
10
0
20
0
30
0
70
8
0
VERTEX
8
0
62
5
10
0.046051784
20
0.38716814
30
0
70
32
0
VERTEX
8
0
62
5
10
0.046051784
20
0.40131027
30
0
70
32
0
SEQEND
8
0
0
POLYLINE
8
0
62
5
66
1
10
0
20
0
30
0
70
8
0
VERTEX
8
0
62
5
10
0.074336055
20
0.38716814
30
0
70
32
0
VERTEX
8
0
62
5
10
0.074336055
20
0.40131027
30
0
70
32
0
SEQEND
8
0
0
POLYLINE
8
0
62
5
66
1
10
0
20
0
30
0
70
8
0
VERTEX
8
0
62
5
10
0.10262033
20
0.38716814
30
0
70
32
0
VERTEX
8
0
62
5
10
0.10262033
20
0.40131027
30
0
70
32
0
SEQEND
8
0
0
POLYLINE
8
0
62
5
66
1
10
0
20
0
30
0
70
8
0
VERTEX
8
0
62
5
10
0.24404168
20
0.40131027
30
0
70
32
0
VERTEX
8
0
62
5
10
0.24404168
20
0.373026
30
0
70
32
0
SEQEND
8
0
0
POLYLINE
8
0
62
5
66
1
10
0
20
0
30
0
70
8
0
VERTEX
8
0
62
5
10
0.1309046
20
0.37545241
30
0
70
32
0
VERTEX
8
0
62
5
10
0.15918887
20
0.37545241
30
0
70
32
0
VERTEX
8
0
62
5
10
0.18747314
20
0.38716814
30
0
70
32
0
VERTEX
8
0
62
5
10
0.21575741
20
0.38716814
30
0
70
32
0
VERTEX
8
0
62
5
10
0.24404168
20
0.37545241
30
0
70
32
0
SEQEND
8
0
0
POLYLINE
8
0
62
5
66
1
10
0
20
0
30
0
70
8
0
SEQEND
8
0
0
POLYLINE
8
0
62
5
66
1
10
0
20
0
30
0
70
8
0
VERTEX
8
0
62
5
10
0.1309046
20
0.39888387
30
0
70
32
0
VERTEX
8
0
62
5
10
0.15918887
20
0.39888387
30
0
70
32
0
VERTEX
8
0
62
5
10
0.18747314
20
0.38716814
30
0
70
32
0
VERTEX
8
0
62
5
10
0.21575741
20
0.38716814
30
0
70
32
0
VERTEX
8
0
62
5
10
0.24404168
20
0.39888387
30
0
70
32
0
SEQEND
8
0
0
POLYLINE
8
0
62
30
66
1
10
0
20
0
30
0
70
8
0
VERTEX
8
0
62
30
10
0.1309046
20
0.38716814
30
0
70
32
0
VERTEX
8
0
62
30
10
0.24404168
20
0.38716814
30
0
70
32
0
SEQEND
8
0
0
POLYLINE
8
0
62
30
66
1
10
0
20
0
30
0
70
8
0
VERTEX
8
0
62
30
10
0.15918887
20
0.37545241
30
0
70
32
0
VERTEX
8
0
62
30
10
0.15918887
20
0.38716814
30
0
70
32
0
SEQEND
8
0
0
POLYLINE
8
0
62
30
66
1
10
0
20
0
30
0
70
8
0
VERTEX
8
0
62
30
10
0.18747314
20
0.38716814
30
0
70
32
0
VERTEX
8
0
62
30
10
0.18747314
20
0.38716814
30
0
70
32
0
SEQEND
8
0
0
POLYLINE
8
0
62
30
66
1
10
0
20
0
30
0
70
8
0
VERTEX
8
0
62
30
10
0.21575741
20
0.38716814
30
0
70
32
0
VERTEX
8
0
62
30
10
0.21575741
20
0.38716814
30
0
70
32
0
SEQEND
8
0
0
POLYLINE
8
0
62
5
66
1
10
0
20
0
30
0
70
8
0
VERTEX
8
0
62
5
10
0.15918887
20
0.373026
30
0
70
32
0
VERTEX
8
0
62
5
10
0.15918887
20
0.37545241
30
0
70
32
0
SEQEND
8
0
0
POLYLINE
8
0
62
5
66
1
10
0
20
0
30
0
70
8
0
VERTEX
8
0
62
5
10
0.18747314
20
0.373026
30
0
70
32
0
VERTEX
8
0
62
5
10
0.18747314
20
0.38716814
30
0
70
32
0
SEQEND
8
0
0
POLYLINE
8
0
62
5
66
1
10
0
20
0
30
0
70
8
0
VERTEX
8
0
62
5
10
0.21575741
20
0.373026
30
0
70
32
0
VERTEX
8
0
62
5
10
0.21575741
20
0.38716814
30
0
70
32
0
SEQEND
8
0
0
POLYLINE
8
0
62
5
66
1
10
0
20
0
30
0
70
8
0
VERTEX
8
0
62
5
10
0.15918887
20
0.38716814
30
0
70
32
0
VERTEX
8
0
62
5
10
0.15918887
20
0.40131027
30
0
70
32
0
SEQEND
8
0
0
POLYLINE
8
0
62
5
66
1
10
0
20
0
30
0
70
8
0
VERTEX
8
0
62
5
10
0.18747314
20
0.38716814
30
0
70
32
0
VERTEX
8
0
62
5
10
0.18747314
20
0.40131027
30
0
70
32
0
SEQEND
8
0
0
POLYLINE
8
0
62
5
66
1
10
0
20
0
30
0
70
8
0
VERTEX
8
0
62
5
10
0.21575741
20
0.38716814
30
0
70
32
0
VERTEX
8
0
62
5
10
0.21575741
20
0.40131027
30
0
70
32
0
SEQEND
8
0
0
POLYLINE
8
0
62
5
66
1
10
0
20
0
30
0
70
8
0
VERTEX
8
0
62
5
10
-0.095369573
20
0.373026
30
0
70
32
0
VERTEX
8
0
62
5
10
-0.095369573
20
0.40131027
30
0
70
32
0
SEQEND
8
0
0
POLYLINE
8
0
62
5
66
1
10
0
20
0
30
0
70
8
0
VERTEX
8
0
62
5
10
-0.095369573
20
0.37545241
30
0
70
32
0
VERTEX
8
0
62
5
10
-0.067085301
20
0.37545241
30
0
70
32
0
VERTEX
8
0
62
5
10
-0.03880103
20
0.38716814
30
0
70
32
0
VERTEX
8
0
62
5
10
-0.010516759
20
0.38716814
30
0
70
32
0
VERTEX
8
0
62
5
10
0.017767512
20
0.37545241
30
0
70
32
0
SEQEND
8
0
0
POLYLINE
8
0
62
5
66
1
10
0
20
0
30
0
70
8
0
SEQEND
8
0
0
POLYLINE
8
0
62
5
66
1
10
0
20
0
30
0
70
8
0
VERTEX
8
0
62
5
10
-0.095369573
20
0.39888387
30
0
70
32
0
VERTEX
8
0
62
5
10
-0.067085301
20
0.39888387
30
0
70
32
0
VERTEX
8
0
62
5
10
-0.03880103
20
0.38716814
30
0
70
32
0
VERTEX
8
0
62
5
10
-0.010516759
20
0.38716814
30
0
70
32
0
VERTEX
8
0
62
5
10
0.017767512
20
0.39888387
30
0
70
32
0
SEQEND
8
0
0
POLYLINE
8
0
62
30
66
1
10
0
20
0
30
0
70
8
0
VERTEX
8
0
62
30
10
-0.095369573
20
0.38716814
30
0
70
32
0
VERTEX
8
0
62
30
10
0.017767512
20
0.38716814
30
0
70
32
0
SEQEND
8
0
0
POLYLINE
8
0
62
30
66
1
10
0
20
0
30
0
70
8
0
VERTEX
8
0
62
30
10
-0.067085301
20
0.37545241
30
0
70
32
0
VERTEX
8
0
62
30
10
-0.067085301
20
0.38716814
30
0
70
32
0
SEQEND
8
0
0
POLYLINE
8
0
62
30
66
1
10
0
20
0
30
0
70
8
0
VERTEX
8
0
62
30
10
-0.03880103
20
0.38716814
30
0
70
32
0
VERTEX
8
0
62
30
10
-0.03880103
20
0.38716814
30
0
70
32
0
SEQEND
8
0
0
POLYLINE
8
0
62
30
66
1
10
0
20
0
30
0
70
8
0
VERTEX
8
0
62
30
10
-0.010516759
20
0.38716814
30
0
70
32
0
VERTEX
8
0
62
30
10
-0.010516759
20
0.38716814
30
0
70
32
0
SEQEND
8
0
0
POLYLINE
8
0
62
5
66
1
10
0
20
0
30
0
70
8
0
VERTEX
8
0
62
5
10
-0.067085301
20
0.373026
30
0
70
32
0
VERTEX
8
0
62
5
10
-0.067085301
20
0.37545241
30
0
70
32
0
SEQEND
8
0
0
POLYLINE
8
0
62
5
66
1
10
0
20
0
30
0
70
8
0
VERTEX
8
0
62
5
10
-0.03880103
20
0.373026
30
0
70
32
0
VERTEX
8
0
62
5
10
-0.03880103
20
0.38716814
30
0
70
32
0
SEQEND
8
0
0
POLYLINE
8
0
62
5
66
1
10
0
20
0
30
0
70
8
0
VERTEX
8
0
62
5
10
-0.010516759
20
0.373026
30
0
70
32
0
VERTEX
8
0
62
5
10
-0.010516759
20
0.38716814
30
0
70
32
0
SEQEND
8
0
0
POLYLINE
8
0
62
5
66
1
10
0
20
0
30
0
70
8
0
VERTEX
8
0
62
5
10
-0.067085301
20
0.38716814
30
0
70
32
0
VERTEX
8
0
62
5
10
-0.067085301
20
0.40131027
30
0
70
32
0
SEQEND
8
0
0
POLYLINE
8
0
62
5
66
1
10
0
20
0
30
0
70
8
0
VERTEX
8
0
62
5
10
-0.03880103
20
0.38716814
30
0
70
32
0
VERTEX
8
0
62
5
10
-0.03880103
20
0.40131027
30
0
70
32
0
SEQEND
8
0
0
POLYLINE
8
0
62
5
66
1
10
0
20
0
30
0
70
8
0
VERTEX
8
0
62
5
10
-0.010516759
20
0.38716814
30
0
70
32
0
VERTEX
8
0
62
5
10
-0.010516759
20
0.40131027
30
0
70
32
0
SEQEND
8
0
0
POLYLINE
8
0
62
5
66
1
10
0
20
0
30
0
70
8
0
VERTEX
8
0
62
5
10
0.017767512
20
0.40131027
30
0
70
32
0
VERTEX
8
0
62
5
10
0.017767512
20
0.44131027
30
0
70
32
0
SEQEND
8
0
0
POLYLINE
8
0
62
5
66
1
10
0
20
0
30
0
70
8
0
VERTEX
8
0
62
5
10
0.1309046
20
0.44131027
30
0
70
32
0
VERTEX
8
0
62
5
10
0.1309046
20
0.40131027
30
0
70
32
0
SEQEND
8
0
0
POLYLINE
8
0
62
5
66
1
10
0
20
0
30
0
70
8
0
VERTEX
8
0
62
5
10
0.017767512
20
0.40131027
30
0
70
32
0
VERTEX
8
0
62
5
10
0.1309046
20
0.40131027
30
0
70
32
0
SEQEND
8
0
0
POLYLINE
8
0
62
5
66
1
10
0
20
0
30
0
70
8
0
VERTEX
8
0
62
5
10
0.017767512
20
0.44131027
30
0
70
32
0
VERTEX
8
0
62
5
10
0.1309046
20
0.44131027
30
0
70
32
0
SEQEND
8
0
0
POLYLINE
8
0
62
5
66
1
10
0
20
0
30
0
70
8
0
VERTEX
8
0
62
5
10
0.046051784
20
0.40131027
30
0
70
32
0
VERTEX
8
0
62
5
10
0.046051784
20
0.40131027
30
0
70
32
0
SEQEND
8
0
0
POLYLINE
8
0
62
5
66
1
10
0
20
0
30
0
70
8
0
VERTEX
8
0
62
5
10
0.074336055
20
0.40131027
30
0
70
32
0
VERTEX
8
0
62
5
10
0.074336055
20
0.40131027
30
0
70
32
0
SEQEND
8
0
0
POLYLINE
8
0
62
5
66
1
10
0
20
0
30
0
70
8
0
VERTEX
8
0
62
5
10
0.10262033
20
0.40131027
30
0
70
32
0
VERTEX
8
0
62
5
10
0.10262033
20
0.40131027
30
0
70
32
0
SEQEND
8
0
0
POLYLINE
8
0
62
5
66
1
10
0
20
0
30
0
70
8
0
VERTEX
8
0
62
5
10
0.046051784
20
0.44131027
30
0
70
32
0
VERTEX
8
0
62
5
10
0.046051784
20
0.44131027
30
0
70
32
0
SEQEND
8
0
0
POLYLINE
8
0
62
5
66
1
10
0
20
0
30
0
70
8
0
VERTEX
8
0
62
5
10
0.074336055
20
0.44131027
30
0
70
32
0
VERTEX
8
0
62
5
10
0.074336055
20
0.44131027
30
0
70
32
0
SEQEND
8
0
0
POLYLINE
8
0
62
5
66
1
10
0
20
0
30
0
70
8
0
VERTEX
8
0
62
5
10
0.10262033
20
0.44131027
30
0
70
32
0
VERTEX
8
0
62
5
10
0.10262033
20
0.44131027
30
0
70
32
0
SEQEND
8
0
0
POLYLINE
8
0
62
30
66
1
10
0
20
0
30
0
70
8
0
VERTEX
8
0
62
30
10
0.017767512
20
0.44131027
30
0
70
32
0
VERTEX
8
0
62
30
10
0.046051784
20
0.40131027
30
0
70
32
0
SEQEND
8
0
0
POLYLINE
8
0
62
30
66
1
10
0
20
0
30
0
70
8
0
VERTEX
8
0
62
30
10
0.046051784
20
0.44131027
30
0
70
32
0
VERTEX
8
0
62
30
10
0.017767512
20
0.40131027
30
0
70
32
0
SEQEND
8
0
0
POLYLINE
8
0
62
30
66
1
10
0
20
0
30
0
70
8
0
VERTEX
8
0
62
30
10
0.074336055
20
0.44131027
30
0
70
32
0
VERTEX
8
0
62
30
10
0.10262033
20
0.40131027
30
0
70
32
0
SEQEND
8
0
0
POLYLINE
8
0
62
30
66
1
10
0
20
0
30
0
70
8
0
VERTEX
8
0
62
30
10
0.10262033
20
0.44131027
30
0
70
32
0
VERTEX
8
0
62
30
10
0.074336055
20
0.40131027
30
0
70
32
0
SEQEND
8
0
0
POLYLINE
8
0
62
30
66
1
10
0
20
0
30
0
70
8
0
VERTEX
8
0
62
30
10
0.046051784
20
0.42131027
30
0
70
32
0
VERTEX
8
0
62
30
10
0.074336055
20
0.42131027
30
0
70
32
0
SEQEND
8
0
0
POLYLINE
8
0
62
30
66
1
10
0
20
0
30
0
70
8
0
VERTEX
8
0
62
30
10
0.10262033
20
0.42131027
30
0
70
32
0
VERTEX
8
0
62
30
10
0.1309046
20
0.42131027
30
0
70
32
0
SEQEND
8
0
0
POLYLINE
8
0
62
5
66
1
10
0
20
0
30
0
70
8
0
VERTEX
8
0
62
5
10
0.017767512
20
0.42131027
30
0
70
32
0
VERTEX
8
0
62
5
10
0.031909648
20
0.42131027
30
0
70
32
0
SEQEND
8
0
0
POLYLINE
8
0
62
5
66
1
10
0
20
0
30
0
70
8
0
VERTEX
8
0
62
5
10
0.074336055
20
0.42131027
30
0
70
32
0
VERTEX
8
0
62
5
10
0.08847819
20
0.42131027
30
0
70
32
0
SEQEND
8
0
0
POLYLINE
8
0
62
5
66
1
10
0
20
0
30
0
70
8
0
VERTEX
8
0
62
5
10
0.031909648
20
0.42131027
30
0
70
32
0
VERTEX
8
0
62
5
10
0.046051784
20
0.42131027
30
0
70
32
0
SEQEND
8
0
0
POLYLINE
8
0
62
5
66
1
10
0
20
0
30
0
70
8
0
VERTEX
8
0
62
5
10
0.08847819
20
0.42131027
30
0
70
32
0
VERTEX
8
0
62
5
10
0.10262033
20
0.42131027
30
0
70
32
0
SEQEND
8
0
0
POLYLINE
8
0
62
5
66
1
10
0
20
0
30
0
70
8
0
VERTEX
8
0
62
5
10
0.046051784
20
0.40131027
30
0
70
32
0
VERTEX
8
0
62
5
10
0.046051784
20
0.44131027
30
0
70
32
0
SEQEND
8
0
0
POLYLINE
8
0
62
5
66
1
10
0
20
0
30
0
70
8
0
VERTEX
8
0
62
5
10
0.074336055
20
0.40131027
30
0
70
32
0
VERTEX
8
0
62
5
10
0.074336055
20
0.44131027
30
0
70
32
0
SEQEND
8
0
0
POLYLINE
8
0
62
5
66
1
10
0
20
0
30
0
70
8
0
VERTEX
8
0
62
5
10
0.10262033
20
0.40131027
30
0
70
32
0
VERTEX
8
0
62
5
10
0.10262033
20
0.44131027
30
0
70
32
0
SEQEND
8
0
0
POLYLINE
8
0
62
5
66
1
10
0
20
0
30
0
70
8
0
VERTEX
8
0
62
5
10
0.017767512
20
0.40131027
30
0
70
32
0
VERTEX
8
0
62
5
10
0.017767512
20
0.44131027
30
0
70
32
0
SEQEND
8
0
0
POLYLINE
8
0
62
5
66
1
10
0
20
0
30
0
70
8
0
VERTEX
8
0
62
5
10
0.24404168
20
0.44131027
30
0
70
32
0
VERTEX
8
0
62
5
10
0.24404168
20
0.40131027
30
0
70
32
0
SEQEND
8
0
0
POLYLINE
8
0
62
5
66
1
10
0
20
0
30
0
70
8
0
VERTEX
8
0
62
5
10
0.1309046
20
0.40131027
30
0
70
32
0
VERTEX
8
0
62
5
10
0.24404168
20
0.40131027
30
0
70
32
0
SEQEND
8
0
0
POLYLINE
8
0
62
5
66
1
10
0
20
0
30
0
70
8
0
VERTEX
8
0
62
5
10
0.1309046
20
0.44131027
30
0
70
32
0
VERTEX
8
0
62
5
10
0.24404168
20
0.44131027
30
0
70
32
0
SEQEND
8
0
0
POLYLINE
8
0
62
5
66
1
10
0
20
0
30
0
70
8
0
VERTEX
8
0
62
5
10
0.15918887
20
0.40131027
30
0
70
32
0
VERTEX
8
0
62
5
10
0.15918887
20
0.40131027
30
0
70
32
0
SEQEND
8
0
0
POLYLINE
8
0
62
5
66
1
10
0
20
0
30
0
70
8
0
VERTEX
8
0
62
5
10
0.18747314
20
0.40131027
30
0
70
32
0
VERTEX
8
0
62
5
10
0.18747314
20
0.40131027
30
0
70
32
0
SEQEND
8
0
0
POLYLINE
8
0
62
5
66
1
10
0
20
0
30
0
70
8
0
VERTEX
8
0
62
5
10
0.21575741
20
0.40131027
30
0
70
32
0
VERTEX
8
0
62
5
10
0.21575741
20
0.40131027
30
0
70
32
0
SEQEND
8
0
0
POLYLINE
8
0
62
5
66
1
10
0
20
0
30
0
70
8
0
VERTEX
8
0
62
5
10
0.15918887
20
0.44131027
30
0
70
32
0
VERTEX
8
0
62
5
10
0.15918887
20
0.44131027
30
0
70
32
0
SEQEND
8
0
0
POLYLINE
8
0
62
5
66
1
10
0
20
0
30
0
70
8
0
VERTEX
8
0
62
5
10
0.18747314
20
0.44131027
30
0
70
32
0
VERTEX
8
0
62
5
10
0.18747314
20
0.44131027
30
0
70
32
0
SEQEND
8
0
0
POLYLINE
8
0
62
5
66
1
10
0
20
0
30
0
70
8
0
VERTEX
8
0
62
5
10
0.21575741
20
0.44131027
30
0
70
32
0
VERTEX
8
0
62
5
10
0.21575741
20
0.44131027
30
0
70
32
0
SEQEND
8
0
0
POLYLINE
8
0
62
30
66
1
10
0
20
0
30
0
70
8
0
VERTEX
8
0
62
30
10
0.1309046
20
0.44131027
30
0
70
32
0
VERTEX
8
0
62
30
10
0.15918887
20
0.40131027
30
0
70
32
0
SEQEND
8
0
0
POLYLINE
8
0
62
30
66
1
10
0
20
0
30
0
70
8
0
VERTEX
8
0
62
30
10
0.15918887
20
0.44131027
30
0
70
32
0
VERTEX
8
0
62
30
10
0.1309046
20
0.40131027
30
0
70
32
0
SEQEND
8
0
0
POLYLINE
8
0
62
30
66
1
10
0
20
0
30
0
70
8
0
VERTEX
8
0
62
30
10
0.18747314
20
0.44131027
30
0
70
32
0
VERTEX
8
0
62
30
10
0.21575741
20
0.40131027
30
0
70
32
0
SEQEND
8
0
0
POLYLINE
8
0
62
30
66
1
10
0
20
0
30
0
70
8
0
VERTEX
8
0
62
30
10
0.21575741
20
0.44131027
30
0
70
32
0
VERTEX
8
0
62
30
10
0.18747314
20
0.40131027
30
0
70
32
0
SEQEND
8
0
0
POLYLINE
8
0
62
30
66
1
10
0
20
0
30
0
70
8
0
VERTEX
8
0
62
30
10
0.15918887
20
0.42131027
30
0
70
32
0
VERTEX
8
0
62
30
10
0.18747314
20
0.42131027
30
0
70
32
0
SEQEND
8
0
0
POLYLINE
8
0
62
30
66
1
10
0
20
0
30
0
70
8
0
VERTEX
8
0
62
30
10
0.21575741
20
0.42131027
30
0
70
32
0
VERTEX
8
0
62
30
10
0.24404168
20
0.42131027
30
0
70
32
0
SEQEND
8
0
0
POLYLINE
8
0
62
5
66
1
10
0
20
0
30
0
70
8
0
VERTEX
8
0
62
5
10
0.1309046
20
0.42131027
30
0
70
32
0
VERTEX
8
0
62
5
10
0.14504673
20
0.42131027
30
0
70
32
0
SEQEND
8
0
0
POLYLINE
8
0
62
5
66
1
10
0
20
0
30
0
70
8
0
VERTEX
8
0
62
5
10
0.18747314
20
0.42131027
30
0
70
32
0
VERTEX
8
0
62
5
10
0.20161528
20
0.42131027
30
0
70
32
0
SEQEND
8
0
0
POLYLINE
8
0
62
5
66
1
10
0
20
0
30
0
70
8
0
VERTEX
8
0
62
5
10
0.14504673
20
0.42131027
30
0
70
32
0
VERTEX
8
0
62
5
10
0.15918887
20
0.42131027
30
0
70
32
0
SEQEND
8
0
0
POLYLINE
8
0
62
5
66
1
10
0
20
0
30
0
70
8
0
VERTEX
8
0
62
5
10
0.20161528
20
0.42131027
30
0
70
32
0
VERTEX
8
0
62
5
10
0.21575741
20
0.42131027
30
0
70
32
0
SEQEND
8
0
0
POLYLINE
8
0
62
5
66
1
10
0
20
0
30
0
70
8
0
VERTEX
8
0
62
5
10
0.15918887
20
0.40131027
30
0
70
32
0
VERTEX
8
0
62
5
10
0.15918887
20
0.44131027
30
0
70
32
0
SEQEND
8
0
0
POLYLINE
8
0
62
5
66
1
10
0
20
0
30
0
70
8
0
VERTEX
8
0
62
5
10
0.18747314
20
0.40131027
30
0
70
32
0
VERTEX
8
0
62
5
10
0.18747314
20
0.44131027
30
0
70
32
0
SEQEND
8
0
0
POLYLINE
8
0
62
5
66
1
10
0
20
0
30
0
70
8
0
VERTEX
8
0
62
5
10
0.21575741
20
0.40131027
30
0
70
32
0
VERTEX
8
0
62
5
10
0.21575741
20
0.44131027
30
0
70
32
0
SEQEND
8
0
0
POLYLINE
8
0
62
5
66
1
10
0
20
0
30
0
70
8
0
VERTEX
8
0
62
5
10
0.1309046
20
0.40131027
30
0
70
32
0
VERTEX
8
0
62
5
10
0.1309046
20
0.44131027
30
0
70
32
0
SEQEND
8
0
0
POLYLINE
8
0
62
5
66
1
10
0
20
0
30
0
70
8
0
VERTEX
8
0
62
5
10
-0.095369573
20
0.40131027
30
0
70
32
0
VERTEX
8
0
62
5
10
-0.095369573
20
0.44131027
30
0
70
32
0
SEQEND
8
0
0
POLYLINE
8
0
62
5
66
1
10
0
20
0
30
0
70
8
0
VERTEX
8
0
62
5
10
-0.095369573
20
0.40131027
30
0
70
32
0
VERTEX
8
0
62
5
10
0.017767512
20
0.40131027
30
0
70
32
0
SEQEND
8
0
0
POLYLINE
8
0
62
5
66
1
10
0
20
0
30
0
70
8
0
VERTEX
8
0
62
5
10
-0.095369573
20
0.44131027
30
0
70
32
0
VERTEX
8
0
62
5
10
0.017767512
20
0.44131027
30
0
70
32
0
SEQEND
8
0
0
POLYLINE
8
0
62
5
66
1
10
0
20
0
30
0
70
8
0
VERTEX
8
0
62
5
10
-0.067085301
20
0.40131027
30
0
70
32
0
VERTEX
8
0
62
5
10
-0.067085301
20
0.40131027
30
0
70
32
0
SEQEND
8
0
0
POLYLINE
8
0
62
5
66
1
10
0
20
0
30
0
70
8
0
VERTEX
8
0
62
5
10
-0.03880103
20
0.40131027
30
0
70
32
0
VERTEX
8
0
62
5
10
-0.03880103
20
0.40131027
30
0
70
32
0
SEQEND
8
0
0
POLYLINE
8
0
62
5
66
1
10
0
20
0
30
0
70
8
0
VERTEX
8
0
62
5
10
-0.010516759
20
0.40131027
30
0
70
32
0
VERTEX
8
0
62
5
10
-0.010516759
20
0.40131027
30
0
70
32
0
SEQEND
8
0
0
POLYLINE
8
0
62
5
66
1
10
0
20
0
30
0
70
8
0
VERTEX
8
0
62
5
10
-0.067085301
20
0.44131027
30
0
70
32
0
VERTEX
8
0
62
5
10
-0.067085301
20
0.44131027
30
0
70
32
0
SEQEND
8
0
0
POLYLINE
8
0
62
5
66
1
10
0
20
0
30
0
70
8
0
VERTEX
8
0
62
5
10
-0.03880103
20
0.44131027
30
0
70
32
0
VERTEX
8
0
62
5
10
-0.03880103
20
0.44131027
30
0
70
32
0
SEQEND
8
0
0
POLYLINE
8
0
62
5
66
1
10
0
20
0
30
0
70
8
0
VERTEX
8
0
62
5
10
-0.010516759
20
0.44131027
30
0
70
32
0
VERTEX
8
0
62
5
10
-0.010516759
20
0.44131027
30
0
70
32
0
SEQEND
8
0
0
POLYLINE
8
0
62
30
66
1
10
0
20
0
30
0
70
8
0
VERTEX
8
0
62
30
10
-0.095369573
20
0.44131027
30
0
70
32
0
VERTEX
8
0
62
30
10
-0.067085301
20
0.40131027
30
0
70
32
0
SEQEND
8
0
0
POLYLINE
8
0
62
30
66
1
10
0
20
0
30
0
70
8
0
VERTEX
8
0
62
30
10
-0.067085301
20
0.44131027
30
0
70
32
0
VERTEX
8
0
62
30
10
-0.095369573
20
0.40131027
30
0
70
32
0
SEQEND
8
0
0
POLYLINE
8
0
62
30
66
1
10
0
20
0
30
0
70
8
0
VERTEX
8
0
62
30
10
-0.03880103
20
0.44131027
30
0
70
32
0
VERTEX
8
0
62
30
10
-0.010516759
20
0.40131027
30
0
70
32
0
SEQEND
8
0
0
POLYLINE
8
0
62
30
66
1
10
0
20
0
30
0
70
8
0
VERTEX
8
0
62
30
10
-0.010516759
20
0.44131027
30
0
70
32
0
VERTEX
8
0
62
30
10
-0.03880103
20
0.40131027
30
0
70
32
0
SEQEND
8
0
0
POLYLINE
8
0
62
30
66
1
10
0
20
0
30
0
70
8
0
VERTEX
8
0
62
30
10
-0.067085301
20
0.42131027
30
0
70
32
0
VERTEX
8
0
62
30
10
-0.03880103
20
0.42131027
30
0
70
32
0
SEQEND
8
0
0
POLYLINE
8
0
62
30
66
1
10
0
20
0
30
0
70
8
0
VERTEX
8
0
62
30
10
-0.010516759
20
0.42131027
30
0
70
32
0
VERTEX
8
0
62
30
10
0.017767512
20
0.42131027
30
0
70
32
0
SEQEND
8
0
0
POLYLINE
8
0
62
5
66
1
10
0
20
0
30
0
70
8
0
VERTEX
8
0
62
5
10
-0.095369573
20
0.42131027
30
0
70
32
0
VERTEX
8
0
62
5
10
-0.081227437
20
0.42131027
30
0
70
32
0
SEQEND
8
0
0
POLYLINE
8
0
62
5
66
1
10
0
20
0
30
0
70
8
0
VERTEX
8
0
62
5
10
-0.03880103
20
0.42131027
30
0
70
32
0
VERTEX
8
0
62
5
10
-0.024658895
20
0.42131027
30
0
70
32
0
SEQEND
8
0
0
POLYLINE
8
0
62
5
66
1
10
0
20
0
30
0
70
8
0
VERTEX
8
0
62
5
10
-0.081227437
20
0.42131027
30
0
70
32
0
VERTEX
8
0
62
5
10
-0.067085301
20
0.42131027
30
0
70
32
0
SEQEND
8
0
0
POLYLINE
8
0
62
5
66
1
10
0
20
0
30
0
70
8
0
VERTEX
8
0
62
5
10
-0.024658895
20
0.42131027
30
0
70
32
0
VERTEX
8
0
62
5
10
-0.010516759
20
0.42131027
30
0
70
32
0
SEQEND
8
0
0
POLYLINE
8
0
62
5
66
1
10
0
20
0
30
0
70
8
0
VERTEX
8
0
62
5
10
-0.067085301
20
0.40131027
30
0
70
32
0
VERTEX
8
0
62
5
10
-0.067085301
20
0.44131027
30
0
70
32
0
SEQEND
8
0
0
POLYLINE
8
0
62
5
66
1
10
0
20
0
30
0
70
8
0
VERTEX
8
0
62
5
10
-0.03880103
20
0.40131027
30
0
70
32
0
VERTEX
8
0
62
5
10
-0.03880103
20
0.44131027
30
0
70
32
0
SEQEND
8
0
0
POLYLINE
8
0
62
5
66
1
10
0
20
0
30
0
70
8
0
VERTEX
8
0
62
5
10
-0.010516759
20
0.40131027
30
0
70
32
0
VERTEX
8
0
62
5
10
-0.010516759
20
0.44131027
30
0
70
32
0
SEQEND
8
0
0
POLYLINE
8
0
62
5
66
1
10
0
20
0
30
0
70
8
0
VERTEX
8
0
62
5
10
-0.095369573
20
0.40131027
30
0
70
32
0
VERTEX
8
0
62
5
10
-0.095369573
20
0.44131027
30
0
70
32
0
SEQEND
8
0
0
POLYLINE
8
0
62
5
66
1
10
0
20
0
30
0
70
8
0
VERTEX
8
0
62
5
10
0.017767512
20
0.44131027
30
0
70
32
0
VERTEX
8
0
62
5
10
0.017767512
20
0.53830218
30
0
70
32
0
SEQEND
8
0
0
POLYLINE
8
0
62
5
66
1
10
0
20
0
30
0
70
8
0
VERTEX
8
0
62
5
10
0.1309046
20
0.53830218
30
0
70
32
0
VERTEX
8
0
62
5
10
0.1309046
20
0.44131027
30
0
70
32
0
SEQEND
8
0
0
POLYLINE
8
0
62
5
66
1
10
0
20
0
30
0
70
8
0
VERTEX
8
0
62
5
10
0.017767512
20
0.44132988
30
0
70
32
0
VERTEX
8
0
62
5
10
0.046051784
20
0.45413363
30
0
70
32
0
VERTEX
8
0
62
5
10
0.074336055
20
0.46555825
30
0
70
32
0
VERTEX
8
0
62
5
10
0.10262033
20
0.4527545
30
0
70
32
0
VERTEX
8
0
62
5
10
0.1309046
20
0.44132988
30
0
70
32
0
SEQEND
8
0
0
POLYLINE
8
0
62
5
66
1
10
0
20
0
30
0
70
8
0
VERTEX
8
0
62
5
10
0.017767512
20
0.48982583
30
0
70
32
0
VERTEX
8
0
62
5
10
0.046051784
20
0.50262958
30
0
70
32
0
VERTEX
8
0
62
5
10
0.074336055
20
0.5140542
30
0
70
32
0
VERTEX
8
0
62
5
10
0.10262033
20
0.50125045
30
0
70
32
0
VERTEX
8
0
62
5
10
0.1309046
20
0.48982583
30
0
70
32
0
SEQEND
8
0
0
POLYLINE
8
0
62
5
66
1
10
0
20
0
30
0
70
8
0
VERTEX
8
0
62
5
10
0.017767512
20
0.48978661
30
0
70
32
0
VERTEX
8
0
62
5
10
0.046051784
20
0.47698287
30
0
70
32
0
VERTEX
8
0
62
5
10
0.074336055
20
0.46555825
30
0
70
32
0
VERTEX
8
0
62
5
10
0.10262033
20
0.478362
30
0
70
32
0
VERTEX
8
0
62
5
10
0.1309046
20
0.48978661
30
0
70
32
0
SEQEND
8
0
0
POLYLINE
8
0
62
5
66
1
10
0
20
0
30
0
70
8
0
VERTEX
8
0
62
5
10
0.017767512
20
0.53828257
30
0
70
32
0
VERTEX
8
0
62
5
10
0.046051784
20
0.52547882
30
0
70
32
0
VERTEX
8
0
62
5
10
0.074336055
20
0.5140542
30
0
70
32
0
VERTEX
8
0
62
5
10
0.10262033
20
0.52685795
30
0
70
32
0
VERTEX
8
0
62
5
10
0.1309046
20
0.53828257
30
0
70
32
0
SEQEND
8
0
0
POLYLINE
8
0
62
30
66
1
10
0
20
0
30
0
70
8
0
VERTEX
8
0
62
30
10
0.017767512
20
0.46555825
30
0
70
32
0
VERTEX
8
0
62
30
10
0.1309046
20
0.46555825
30
0
70
32
0
SEQEND
8
0
0
POLYLINE
8
0
62
30
66
1
10
0
20
0
30
0
70
8
0
VERTEX
8
0
62
30
10
0.017767512
20
0.5140542
30
0
70
32
0
VERTEX
8
0
62
30
10
0.1309046
20
0.5140542
30
0
70
32
0
SEQEND
8
0
0
POLYLINE
8
0
62
30
66
1
10
0
20
0
30
0
70
8
0
VERTEX
8
0
62
30
10
0.046051784
20
0.45413363
30
0
70
32
0
VERTEX
8
0
62
30
10
0.046051784
20
0.46555825
30
0
70
32
0
SEQEND
8
0
0
POLYLINE
8
0
62
30
66
1
10
0
20
0
30
0
70
8
0
VERTEX
8
0
62
30
10
0.074336055
20
0.46555825
30
0
70
32
0
VERTEX
8
0
62
30
10
0.074336055
20
0.46555825
30
0
70
32
0
SEQEND
8
0
0
POLYLINE
8
0
62
30
66
1
10
0
20
0
30
0
70
8
0
VERTEX
8
0
62
30
10
0.10262033
20
0.4527545
30
0
70
32
0
VERTEX
8
0
62
30
10
0.10262033
20
0.46555825
30
0
70
32
0
SEQEND
8
0
0
POLYLINE
8
0
62
30
66
1
10
0
20
0
30
0
70
8
0
VERTEX
8
0
62
30
10
0.046051784
20
0.50262958
30
0
70
32
0
VERTEX
8
0
62
30
10
0.046051784
20
0.5140542
30
0
70
32
0
SEQEND
8
0
0
POLYLINE
8
0
62
30
66
1
10
0
20
0
30
0
70
8
0
VERTEX
8
0
62
30
10
0.074336055
20
0.5140542
30
0
70
32
0
VERTEX
8
0
62
30
10
0.074336055
20
0.5140542
30
0
70
32
0
SEQEND
8
0
0
POLYLINE
8
0
62
30
66
1
10
0
20
0
30
0
70
8
0
VERTEX
8
0
62
30
10
0.10262033
20
0.50125045
30
0
70
32
0
VERTEX
8
0
62
30
10
0.10262033
20
0.5140542
30
0
70
32
0
SEQEND
8
0
0
POLYLINE
8
0
62
5
66
1
10
0
20
0
30
0
70
8
0
VERTEX
8
0
62
5
10
0.046051784
20
0.44131027
30
0
70
32
0
VERTEX
8
0
62
5
10
0.046051784
20
0.45413363
30
0
70
32
0
SEQEND
8
0
0
POLYLINE
8
0
62
5
66
1
10
0
20
0
30
0
70
8
0
VERTEX
8
0
62
5
10
0.074336055
20
0.44131027
30
0
70
32
0
VERTEX
8
0
62
5
10
0.074336055
20
0.46555825
30
0
70
32
0
SEQEND
8
0
0
POLYLINE
8
0
62
5
66
1
10
0
20
0
30
0
70
8
0
VERTEX
8
0
62
5
10
0.10262033
20
0.44131027
30
0
70
32
0
VERTEX
8
0
62
5
10
0.10262033
20
0.4527545
30
0
70
32
0
SEQEND
8
0
0
POLYLINE
8
0
62
5
66
1
10
0
20
0
30
0
70
8
0
VERTEX
8
0
62
5
10
0.046051784
20
0.48980622
30
0
70
32
0
VERTEX
8
0
62
5
10
0.046051784
20
0.50262958
30
0
70
32
0
SEQEND
8
0
0
POLYLINE
8
0
62
5
66
1
10
0
20
0
30
0
70
8
0
VERTEX
8
0
62
5
10
0.074336055
20
0.48980622
30
0
70
32
0
VERTEX
8
0
62
5
10
0.074336055
20
0.5140542
30
0
70
32
0
SEQEND
8
0
0
POLYLINE
8
0
62
5
66
1
10
0
20
0
30
0
70
8
0
VERTEX
8
0
62
5
10
0.10262033
20
0.48980622
30
0
70
32
0
VERTEX
8
0
62
5
10
0.10262033
20
0.50125045
30
0
70
32
0
SEQEND
8
0
0
POLYLINE
8
0
62
5
66
1
10
0
20
0
30
0
70
8
0
VERTEX
8
0
62
5
10
0.046051784
20
0.46555825
30
0
70
32
0
VERTEX
8
0
62
5
10
0.046051784
20
0.48980622
30
0
70
32
0
SEQEND
8
0
0
POLYLINE
8
0
62
5
66
1
10
0
20
0
30
0
70
8
0
VERTEX
8
0
62
5
10
0.074336055
20
0.46555825
30
0
70
32
0
VERTEX
8
0
62
5
10
0.074336055
20
0.48980622
30
0
70
32
0
SEQEND
8
0
0
POLYLINE
8
0
62
5
66
1
10
0
20
0
30
0
70
8
0
VERTEX
8
0
62
5
10
0.10262033
20
0.46555825
30
0
70
32
0
VERTEX
8
0
62
5
10
0.10262033
20
0.48980622
30
0
70
32
0
SEQEND
8
0
0
POLYLINE
8
0
62
5
66
1
10
0
20
0
30
0
70
8
0
VERTEX
8
0
62
5
10
0.046051784
20
0.5140542
30
0
70
32
0
VERTEX
8
0
62
5
10
0.046051784
20
0.53830218
30
0
70
32
0
SEQEND
8
0
0
POLYLINE
8
0
62
5
66
1
10
0
20
0
30
0
70
8
0
VERTEX
8
0
62
5
10
0.074336055
20
0.5140542
30
0
70
32
0
VERTEX
8
0
62
5
10
0.074336055
20
0.53830218
30
0
70
32
0
SEQEND
8
0
0
POLYLINE
8
0
62
5
66
1
10
0
20
0
30
0
70
8
0
VERTEX
8
0
62
5
10
0.10262033
20
0.5140542
30
0
70
32
0
VERTEX
8
0
62
5
10
0.10262033
20
0.53830218
30
0
70
32
0
SEQEND
8
0
0
POLYLINE
8
0
62
5
66
1
10
0
20
0
30
0
70
8
0
VERTEX
8
0
62
5
10
0.24404168
20
0.53830218
30
0
70
32
0
VERTEX
8
0
62
5
10
0.24404168
20
0.44131027
30
0
70
32
0
SEQEND
8
0
0
POLYLINE
8
0
62
5
66
1
10
0
20
0
30
0
70
8
0
VERTEX
8
0
62
5
10
0.1309046
20
0.44132988
30
0
70
32
0
VERTEX
8
0
62
5
10
0.15918887
20
0.45413363
30
0
70
32
0
VERTEX
8
0
62
5
10
0.18747314
20
0.46555825
30
0
70
32
0
VERTEX
8
0
62
5
10
0.21575741
20
0.4527545
30
0
70
32
0
VERTEX
8
0
62
5
10
0.24404168
20
0.44132988
30
0
70
32
0
SEQEND
8
0
0
POLYLINE
8
0
62
5
66
1
10
0
20
0
30
0
70
8
0
VERTEX
8
0
62
5
10
0.1309046
20
0.48982583
30
0
70
32
0
VERTEX
8
0
62
5
10
0.15918887
20
0.50262958
30
0
70
32
0
VERTEX
8
0
62
5
10
0.18747314
20
0.5140542
30
0
70
32
0
VERTEX
8
0
62
5
10
0.21575741
20
0.50125045
30
0
70
32
0
VERTEX
8
0
62
5
10
0.24404168
20
0.48982583
30
0
70
32
0
SEQEND
8
0
0
POLYLINE
8
0
62
5
66
1
10
0
20
0
30
0
70
8
0
VERTEX
8
0
62
5
10
0.1309046
20
0.48978661
30
0
70
32
0
VERTEX
8
0
62
5
10
0.15918887
20
0.47698287
30
0
70
32
0
VERTEX
8
0
62
5
10
0.18747314
20
0.46555825
30
0
70
32
0
VERTEX
8
0
62
5
10
0.21575741
20
0.478362
30
0
70
32
0
VERTEX
8
0
62
5
10
0.24404168
20
0.48978661
30
0
70
32
0
SEQEND
8
0
0
POLYLINE
8
0
62
5
66
1
10
0
20
0
30
0
70
8
0
VERTEX
8
0
62
5
10
0.1309046
20
0.53828257
30
0
70
32
0
VERTEX
8
0
62
5
10
0.15918887
20
0.52547882
30
0
70
32
0
VERTEX
8
0
62
5
10
0.18747314
20
0.5140542
30
0
70
32
0
VERTEX
8
0
62
5
10
0.21575741
20
0.52685795
30
0
70
32
0
VERTEX
8
0
62
5
10
0.24404168
20
0.53828257
30
0
70
32
0
SEQEND
8
0
0
POLYLINE
8
0
62
30
66
1
10
0
20
0
30
0
70
8
0
VERTEX
8
0
62
30
10
0.1309046
20
0.46555825
30
0
70
32
0
VERTEX
8
0
62
30
10
0.24404168
20
0.46555825
30
0
70
32
0
SEQEND
8
0
0
POLYLINE
8
0
62
30
66
1
10
0
20
0
30
0
70
8
0
VERTEX
8
0
62
30
10
0.1309046
20
0.5140542
30
0
70
32
0
VERTEX
8
0
62
30
10
0.24404168
20
0.5140542
30
0
70
32
0
SEQEND
8
0
0
POLYLINE
8
0
62
30
66
1
10
0
20
0
30
0
70
8
0
VERTEX
8
0
62
30
10
0.15918887
20
0.45413363
30
0
70
32
0
VERTEX
8
0
62
30
10
0.15918887
20
0.46555825
30
0
70
32
0
SEQEND
8
0
0
POLYLINE
8
0
62
30
66
1
10
0
20
0
30
0
70
8
0
VERTEX
8
0
62
30
10
0.18747314
20
0.46555825
30
0
70
32
0
VERTEX
8
0
62
30
10
0.18747314
20
0.46555825
30
0
70
32
0
SEQEND
8
0
0
POLYLINE
8
0
62
30
66
1
10
0
20
0
30
0
70
8
0
VERTEX
8
0
62
30
10
0.21575741
20
0.4527545
30
0
70
32
0
VERTEX
8
0
62
30
10
0.21575741
20
0.46555825
30
0
70
32
0
SEQEND
8
0
0
POLYLINE
8
0
62
30
66
1
10
0
20
0
30
0
70
8
0
VERTEX
8
0
62
30
10
0.15918887
20
0.50262958
30
0
70
32
0
VERTEX
8
0
62
30
10
0.15918887
20
0.5140542
30
0
70
32
0
SEQEND
8
0
0
POLYLINE
8
0
62
30
66
1
10
0
20
0
30
0
70
8
0
VERTEX
8
0
62
30
10
0.18747314
20
0.5140542
30
0
70
32
0
VERTEX
8
0
62
30
10
0.18747314
20
0.5140542
30
0
70
32
0
SEQEND
8
0
0
POLYLINE
8
0
62
30
66
1
10
0
20
0
30
0
70
8
0
VERTEX
8
0
62
30
10
0.21575741
20
0.50125045
30
0
70
32
0
VERTEX
8
0
62
30
10
0.21575741
20
0.5140542
30
0
70
32
0
SEQEND
8
0
0
POLYLINE
8
0
62
5
66
1
10
0
20
0
30
0
70
8
0
VERTEX
8
0
62
5
10
0.15918887
20
0.44131027
30
0
70
32
0
VERTEX
8
0
62
5
10
0.15918887
20
0.45413363
30
0
70
32
0
SEQEND
8
0
0
POLYLINE
8
0
62
5
66
1
10
0
20
0
30
0
70
8
0
VERTEX
8
0
62
5
10
0.18747314
20
0.44131027
30
0
70
32
0
VERTEX
8
0
62
5
10
0.18747314
20
0.46555825
30
0
70
32
0
SEQEND
8
0
0
POLYLINE
8
0
62
5
66
1
10
0
20
0
30
0
70
8
0
VERTEX
8
0
62
5
10
0.21575741
20
0.44131027
30
0
70
32
0
VERTEX
8
0
62
5
10
0.21575741
20
0.4527545
30
0
70
32
0
SEQEND
8
0
0
POLYLINE
8
0
62
5
66
1
10
0
20
0
30
0
70
8
0
VERTEX
8
0
62
5
10
0.15918887
20
0.48980622
30
0
70
32
0
VERTEX
8
0
62
5
10
0.15918887
20
0.50262958
30
0
70
32
0
SEQEND
8
0
0
POLYLINE
8
0
62
5
66
1
10
0
20
0
30
0
70
8
0
VERTEX
8
0
62
5
10
0.18747314
20
0.48980622
30
0
70
32
0
VERTEX
8
0
62
5
10
0.18747314
20
0.5140542
30
0
70
32
0
SEQEND
8
0
0
POLYLINE
8
0
62
5
66
1
10
0
20
0
30
0
70
8
0
VERTEX
8
0
62
5
10
0.21575741
20
0.48980622
30
0
70
32
0
VERTEX
8
0
62
5
10
0.21575741
20
0.50125045
30
0
70
32
0
SEQEND
8
0
0
POLYLINE
8
0
62
5
66
1
10
0
20
0
30
0
70
8
0
VERTEX
8
0
62
5
10
0.15918887
20
0.46555825
30
0
70
32
0
VERTEX
8
0
62
5
10
0.15918887
20
0.48980622
30
0
70
32
0
SEQEND
8
0
0
POLYLINE
8
0
62
5
66
1
10
0
20
0
30
0
70
8
0
VERTEX
8
0
62
5
10
0.18747314
20
0.46555825
30
0
70
32
0
VERTEX
8
0
62
5
10
0.18747314
20
0.48980622
30
0
70
32
0
SEQEND
8
0
0
POLYLINE
8
0
62
5
66
1
10
0
20
0
30
0
70
8
0
VERTEX
8
0
62
5
10
0.21575741
20
0.46555825
30
0
70
32
0
VERTEX
8
0
62
5
10
0.21575741
20
0.48980622
30
0
70
32
0
SEQEND
8
0
0
POLYLINE
8
0
62
5
66
1
10
0
20
0
30
0
70
8
0
VERTEX
8
0
62
5
10
0.15918887
20
0.5140542
30
0
70
32
0
VERTEX
8
0
62
5
10
0.15918887
20
0.53830218
30
0
70
32
0
SEQEND
8
0
0
POLYLINE
8
0
62
5
66
1
10
0
20
0
30
0
70
8
0
VERTEX
8
0
62
5
10
0.18747314
20
0.5140542
30
0
70
32
0
VERTEX
8
0
62
5
10
0.18747314
20
0.53830218
30
0
70
32
0
SEQEND
8
0
0
POLYLINE
8
0
62
5
66
1
10
0
20
0
30
0
70
8
0
VERTEX
8
0
62
5
10
0.21575741
20
0.5140542
30
0
70
32
0
VERTEX
8
0
62
5
10
0.21575741
20
0.53830218
30
0
70
32
0
SEQEND
8
0
0
POLYLINE
8
0
62
5
66
1
10
0
20
0
30
0
70
8
0
VERTEX
8
0
62
5
10
-0.095369573
20
0.44131027
30
0
70
32
0
VERTEX
8
0
62
5
10
-0.095369573
20
0.53830218
30
0
70
32
0
SEQEND
8
0
0
POLYLINE
8
0
62
5
66
1
10
0
20
0
30
0
70
8
0
VERTEX
8
0
62
5
10
-0.095369573
20
0.44132988
30
0
70
32
0
VERTEX
8
0
62
5
10
-0.067085301
20
0.45413363
30
0
70
32
0
VERTEX
8
0
62
5
10
-0.03880103
20
0.46555825
30
0
70
32
0
VERTEX
8
0
62
5
10
-0.010516759
20
0.4527545
30
0
70
32
0
VERTEX
8
0
62
5
10
0.017767512
20
0.44132988
30
0
70
32
0
SEQEND
8
0
0
POLYLINE
8
0
62
5
66
1
10
0
20
0
30
0
70
8
0
VERTEX
8
0
62
5
10
-0.095369573
20
0.48982583
30
0
70
32
0
VERTEX
8
0
62
5
10
-0.067085301
20
0.50262958
30
0
70
32
0
VERTEX
8
0
62
5
10
-0.03880103
20
0.5140542
30
0
70
32
0
VERTEX
8
0
62
5
10
-0.010516759
20
0.50125045
30
0
70
32
0
VERTEX
8
0
62
5
10
0.017767512
20
0.48982583
30
0
70
32
0
SEQEND
8
0
0
POLYLINE
8
0
62
5
66
1
10
0
20
0
30
0
70
8
0
VERTEX
8
0
62
5
10
-0.095369573
20
0.48978661
30
0
70
32
0
VERTEX
8
0
62
5
10
-0.067085301
20
0.47698287
30
0
70
32
0
VERTEX
8
0
62
5
10
-0.03880103
20
0.46555825
30
0
70
32
0
VERTEX
8
0
62
5
10
-0.010516759
20
0.478362
30
0
70
32
0
VERTEX
8
0
62
5
10
0.017767512
20
0.48978661
30
0
70
32
0
SEQEND
8
0
0
POLYLINE
8
0
62
5
66
1
10
0
20
0
30
0
70
8
0
VERTEX
8
0
62
5
10
-0.095369573
20
0.53828257
30
0
70
32
0
VERTEX
8
0
62
5
10
-0.067085301
20
0.52547882
30
0
70
32
0
VERTEX
8
0
62
5
10
-0.03880103
20
0.5140542
30
0
70
32
0
VERTEX
8
0
62
5
10
-0.010516759
20
0.52685795
30
0
70
32
0
VERTEX
8
0
62
5
10
0.017767512
20
0.53828257
30
0
70
32
0
SEQEND
8
0
0
POLYLINE
8
0
62
30
66
1
10
0
20
0
30
0
70
8
0
VERTEX
8
0
62
30
10
-0.095369573
20
0.46555825
30
0
70
32
0
VERTEX
8
0
62
30
10
0.017767512
20
0.46555825
30
0
70
32
0
SEQEND
8
0
0
POLYLINE
8
0
62
30
66
1
10
0
20
0
30
0
70
8
0
VERTEX
8
0
62
30
10
-0.095369573
20
0.5140542
30
0
70
32
0
VERTEX
8
0
62
30
10
0.017767512
20
0.5140542
30
0
70
32
0
SEQEND
8
0
0
POLYLINE
8
0
62
30
66
1
10
0
20
0
30
0
70
8
0
VERTEX
8
0
62
30
10
-0.067085301
20
0.45413363
30
0
70
32
0
VERTEX
8
0
62
30
10
-0.067085301
20
0.46555825
30
0
70
32
0
SEQEND
8
0
0
POLYLINE
8
0
62
30
66
1
10
0
20
0
30
0
70
8
0
VERTEX
8
0
62
30
10
-0.03880103
20
0.46555825
30
0
70
32
0
VERTEX
8
0
62
30
10
-0.03880103
20
0.46555825
30
0
70
32
0
SEQEND
8
0
0
POLYLINE
8
0
62
30
66
1
10
0
20
0
30
0
70
8
0
VERTEX
8
0
62
30
10
-0.010516759
20
0.4527545
30
0
70
32
0
VERTEX
8
0
62
30
10
-0.010516759
20
0.46555825
30
0
70
32
0
SEQEND
8
0
0
POLYLINE
8
0
62
30
66
1
10
0
20
0
30
0
70
8
0
VERTEX
8
0
62
30
10
-0.067085301
20
0.50262958
30
0
70
32
0
VERTEX
8
0
62
30
10
-0.067085301
20
0.5140542
30
0
70
32
0
SEQEND
8
0
0
POLYLINE
8
0
62
30
66
1
10
0
20
0
30
0
70
8
0
VERTEX
8
0
62
30
10
-0.03880103
20
0.5140542
30
0
70
32
0
VERTEX
8
0
62
30
10
-0.03880103
20
0.5140542
30
0
70
32
0
SEQEND
8
0
0
POLYLINE
8
0
62
30
66
1
10
0
20
0
30
0
70
8
0
VERTEX
8
0
62
30
10
-0.010516759
20
0.50125045
30
0
70
32
0
VERTEX
8
0
62
30
10
-0.010516759
20
0.5140542
30
0
70
32
0
SEQEND
8
0
0
POLYLINE
8
0
62
5
66
1
10
0
20
0
30
0
70
8
0
VERTEX
8
0
62
5
10
-0.067085301
20
0.44131027
30
0
70
32
0
VERTEX
8
0
62
5
10
-0.067085301
20
0.45413363
30
0
70
32
0
SEQEND
8
0
0
POLYLINE
8
0
62
5
66
1
10
0
20
0
30
0
70
8
0
VERTEX
8
0
62
5
10
-0.03880103
20
0.44131027
30
0
70
32
0
VERTEX
8
0
62
5
10
-0.03880103
20
0.46555825
30
0
70
32
0
SEQEND
8
0
0
POLYLINE
8
0
62
5
66
1
10
0
20
0
30
0
70
8
0
VERTEX
8
0
62
5
10
-0.010516759
20
0.44131027
30
0
70
32
0
VERTEX
8
0
62
5
10
-0.010516759
20
0.4527545
30
0
70
32
0
SEQEND
8
0
0
POLYLINE
8
0
62
5
66
1
10
0
20
0
30
0
70
8
0
VERTEX
8
0
62
5
10
-0.067085301
20
0.48980622
30
0
70
32
0
VERTEX
8
0
62
5
10
-0.067085301
20
0.50262958
30
0
70
32
0
SEQEND
8
0
0
POLYLINE
8
0
62
5
66
1
10
0
20
0
30
0
70
8
0
VERTEX
8
0
62
5
10
-0.03880103
20
0.48980622
30
0
70
32
0
VERTEX
8
0
62
5
10
-0.03880103
20
0.5140542
30
0
70
32
0
SEQEND
8
0
0
POLYLINE
8
0
62
5
66
1
10
0
20
0
30
0
70
8
0
VERTEX
8
0
62
5
10
-0.010516759
20
0.48980622
30
0
70
32
0
VERTEX
8
0
62
5
10
-0.010516759
20
0.50125045
30
0
70
32
0
SEQEND
8
0
0
POLYLINE
8
0
62
5
66
1
10
0
20
0
30
0
70
8
0
VERTEX
8
0
62
5
10
-0.067085301
20
0.46555825
30
0
70
32
0
VERTEX
8
0
62
5
10
-0.067085301
20
0.48980622
30
0
70
32
0
SEQEND
8
0
0
POLYLINE
8
0
62
5
66
1
10
0
20
0
30
0
70
8
0
VERTEX
8
0
62
5
10
-0.03880103
20
0.46555825
30
0
70
32
0
VERTEX
8
0
62
5
10
-0.03880103
20
0.48980622
30
0
70
32
0
SEQEND
8
0
0
POLYLINE
8
0
62
5
66
1
10
0
20
0
30
0
70
8
0
VERTEX
8
0
62
5
10
-0.010516759
20
0.46555825
30
0
70
32
0
VERTEX
8
0
62
5
10
-0.010516759
20
0.48980622
30
0
70
32
0
SEQEND
8
0
0
POLYLINE
8
0
62
5
66
1
10
0
20
0
30
0
70
8
0
VERTEX
8
0
62
5
10
-0.067085301
20
0.5140542
30
0
70
32
0
VERTEX
8
0
62
5
10
-0.067085301
20
0.53830218
30
0
70
32
0
SEQEND
8
0
0
POLYLINE
8
0
62
5
66
1
10
0
20
0
30
0
70
8
0
VERTEX
8
0
62
5
10
-0.03880103
20
0.5140542
30
0
70
32
0
VERTEX
8
0
62
5
10
-0.03880103
20
0.53830218
30
0
70
32
0
SEQEND
8
0
0
POLYLINE
8
0
62
5
66
1
10
0
20
0
30
0
70
8
0
VERTEX
8
0
62
5
10
-0.010516759
20
0.5140542
30
0
70
32
0
VERTEX
8
0
62
5
10
-0.010516759
20
0.53830218
30
0
70
32
0
SEQEND
8
0
0
POLYLINE
8
0
62
30
66
1
10
0
20
0
30
0
70
8
0
VERTEX
8
0
62
30
10
0.017767512
20
0.54859764
30
0
70
32
0
VERTEX
8
0
62
30
10
0.1309046
20
0.54859764
30
0
70
32
0
SEQEND
8
0
0
POLYLINE
8
0
62
30
66
1
10
0
20
0
30
0
70
8
0
VERTEX
8
0
62
30
10
0.017767512
20
0.53830218
30
0
70
32
0
VERTEX
8
0
62
30
10
0.1309046
20
0.53830218
30
0
70
32
0
SEQEND
8
0
0
POLYLINE
8
0
62
5
66
1
10
0
20
0
30
0
70
8
0
VERTEX
8
0
62
5
10
0.017767512
20
0.53830218
30
0
70
32
0
VERTEX
8
0
62
5
10
0.035535021
20
0.54859764
30
0
70
32
0
VERTEX
8
0
62
5
10
0.046051784
20
0.53830218
30
0
70
32
0
VERTEX
8
0
62
5
10
0.063819292
20
0.54859764
30
0
70
32
0
VERTEX
8
0
62
5
10
0.074336055
20
0.53830218
30
0
70
32
0
VERTEX
8
0
62
5
10
0.092103564
20
0.54859764
30
0
70
32
0
VERTEX
8
0
62
5
10
0.10262033
20
0.53830218
30
0
70
32
0
VERTEX
8
0
62
5
10
0.12038783
20
0.54859764
30
0
70
32
0
VERTEX
8
0
62
5
10
0.1309046
20
0.53830218
30
0
70
32
0
SEQEND
8
0
0
POLYLINE
8
0
62
5
66
1
10
0
20
0
30
0
70
8
0
VERTEX
8
0
62
5
10
0.046051784
20
0.53830218
30
0
70
32
0
VERTEX
8
0
62
5
10
0.046051784
20
0.53830218
30
0
70
32
0
SEQEND
8
0
0
POLYLINE
8
0
62
5
66
1
10
0
20
0
30
0
70
8
0
VERTEX
8
0
62
5
10
0.074336055
20
0.53830218
30
0
70
32
0
VERTEX
8
0
62
5
10
0.074336055
20
0.53830218
30
0
70
32
0
SEQEND
8
0
0
POLYLINE
8
0
62
5
66
1
10
0
20
0
30
0
70
8
0
VERTEX
8
0
62
5
10
0.10262033
20
0.53830218
30
0
70
32
0
VERTEX
8
0
62
5
10
0.10262033
20
0.53830218
30
0
70
32
0
SEQEND
8
0
0
POLYLINE
8
0
62
5
66
1
10
0
20
0
30
0
70
8
0
VERTEX
8
0
62
5
10
0.035535021
20
0.54859764
30
0
70
32
0
VERTEX
8
0
62
5
10
0.035535021
20
0.54859764
30
0
70
32
0
SEQEND
8
0
0
POLYLINE
8
0
62
5
66
1
10
0
20
0
30
0
70
8
0
VERTEX
8
0
62
5
10
0.063819292
20
0.54859764
30
0
70
32
0
VERTEX
8
0
62
5
10
0.063819292
20
0.54859764
30
0
70
32
0
SEQEND
8
0
0
POLYLINE
8
0
62
5
66
1
10
0
20
0
30
0
70
8
0
VERTEX
8
0
62
5
10
0.092103564
20
0.54859764
30
0
70
32
0
VERTEX
8
0
62
5
10
0.092103564
20
0.54859764
30
0
70
32
0
SEQEND
8
0
0
POLYLINE
8
0
62
5
66
1
10
0
20
0
30
0
70
8
0
VERTEX
8
0
62
5
10
0.12038783
20
0.54859764
30
0
70
32
0
VERTEX
8
0
62
5
10
0.12038783
20
0.54859764
30
0
70
32
0
SEQEND
8
0
0
POLYLINE
8
0
62
30
66
1
10
0
20
0
30
0
70
8
0
VERTEX
8
0
62
30
10
0.1309046
20
0.54859764
30
0
70
32
0
VERTEX
8
0
62
30
10
0.24404168
20
0.54859764
30
0
70
32
0
SEQEND
8
0
0
POLYLINE
8
0
62
30
66
1
10
0
20
0
30
0
70
8
0
VERTEX
8
0
62
30
10
0.1309046
20
0.53830218
30
0
70
32
0
VERTEX
8
0
62
30
10
0.24404168
20
0.53830218
30
0
70
32
0
SEQEND
8
0
0
POLYLINE
8
0
62
5
66
1
10
0
20
0
30
0
70
8
0
VERTEX
8
0
62
5
10
0.1309046
20
0.53830218
30
0
70
32
0
VERTEX
8
0
62
5
10
0.14867211
20
0.54859764
30
0
70
32
0
VERTEX
8
0
62
5
10
0.15918887
20
0.53830218
30
0
70
32
0
VERTEX
8
0
62
5
10
0.17695638
20
0.54859764
30
0
70
32
0
VERTEX
8
0
62
5
10
0.18747314
20
0.53830218
30
0
70
32
0
VERTEX
8
0
62
5
10
0.20524065
20
0.54859764
30
0
70
32
0
VERTEX
8
0
62
5
10
0.21575741
20
0.53830218
30
0
70
32
0
VERTEX
8
0
62
5
10
0.23352492
20
0.54859764
30
0
70
32
0
VERTEX
8
0
62
5
10
0.24404168
20
0.53830218
30
0
70
32
0
SEQEND
8
0
0
POLYLINE
8
0
62
5
66
1
10
0
20
0
30
0
70
8
0
VERTEX
8
0
62
5
10
0.15918887
20
0.53830218
30
0
70
32
0
VERTEX
8
0
62
5
10
0.15918887
20
0.53830218
30
0
70
32
0
SEQEND
8
0
0
POLYLINE
8
0
62
5
66
1
10
0
20
0
30
0
70
8
0
VERTEX
8
0
62
5
10
0.18747314
20
0.53830218
30
0
70
32
0
VERTEX
8
0
62
5
10
0.18747314
20
0.53830218
30
0
70
32
0
SEQEND
8
0
0
POLYLINE
8
0
62
5
66
1
10
0
20
0
30
0
70
8
0
VERTEX
8
0
62
5
10
0.21575741
20
0.53830218
30
0
70
32
0
VERTEX
8
0
62
5
10
0.21575741
20
0.53830218
30
0
70
32
0
SEQEND
8
0
0
POLYLINE
8
0
62
5
66
1
10
0
20
0
30
0
70
8
0
VERTEX
8
0
62
5
10
0.14867211
20
0.54859764
30
0
70
32
0
VERTEX
8
0
62
5
10
0.14867211
20
0.54859764
30
0
70
32
0
SEQEND
8
0
0
POLYLINE
8
0
62
5
66
1
10
0
20
0
30
0
70
8
0
VERTEX
8
0
62
5
10
0.17695638
20
0.54859764
30
0
70
32
0
VERTEX
8
0
62
5
10
0.17695638
20
0.54859764
30
0
70
32
0
SEQEND
8
0
0
POLYLINE
8
0
62
5
66
1
10
0
20
0
30
0
70
8
0
VERTEX
8
0
62
5
10
0.20524065
20
0.54859764
30
0
70
32
0
VERTEX
8
0
62
5
10
0.20524065
20
0.54859764
30
0
70
32
0
SEQEND
8
0
0
POLYLINE
8
0
62
5
66
1
10
0
20
0
30
0
70
8
0
VERTEX
8
0
62
5
10
0.23352492
20
0.54859764
30
0
70
32
0
VERTEX
8
0
62
5
10
0.23352492
20
0.54859764
30
0
70
32
0
SEQEND
8
0
0
POLYLINE
8
0
62
30
66
1
10
0
20
0
30
0
70
8
0
VERTEX
8
0
62
30
10
-0.095369573
20
0.54859764
30
0
70
32
0
VERTEX
8
0
62
30
10
0.017767512
20
0.54859764
30
0
70
32
0
SEQEND
8
0
0
POLYLINE
8
0
62
30
66
1
10
0
20
0
30
0
70
8
0
VERTEX
8
0
62
30
10
-0.095369573
20
0.53830218
30
0
70
32
0
VERTEX
8
0
62
30
10
0.017767512
20
0.53830218
30
0
70
32
0
SEQEND
8
0
0
POLYLINE
8
0
62
5
66
1
10
0
20
0
30
0
70
8
0
VERTEX
8
0
62
5
10
-0.095369573
20
0.53830218
30
0
70
32
0
VERTEX
8
0
62
5
10
-0.077602064
20
0.54859764
30
0
70
32
0
VERTEX
8
0
62
5
10
-0.067085301
20
0.53830218
30
0
70
32
0
VERTEX
8
0
62
5
10
-0.049317793
20
0.54859764
30
0
70
32
0
VERTEX
8
0
62
5
10
-0.03880103
20
0.53830218
30
0
70
32
0
VERTEX
8
0
62
5
10
-0.021033521
20
0.54859764
30
0
70
32
0
VERTEX
8
0
62
5
10
-0.010516759
20
0.53830218
30
0
70
32
0
VERTEX
8
0
62
5
10
0.00725075
20
0.54859764
30
0
70
32
0
VERTEX
8
0
62
5
10
0.017767512
20
0.53830218
30
0
70
32
0
SEQEND
8
0
0
POLYLINE
8
0
62
5
66
1
10
0
20
0
30
0
70
8
0
VERTEX
8
0
62
5
10
-0.067085301
20
0.53830218
30
0
70
32
0
VERTEX
8
0
62
5
10
-0.067085301
20
0.53830218
30
0
70
32
0
SEQEND
8
0
0
POLYLINE
8
0
62
5
66
1
10
0
20
0
30
0
70
8
0
VERTEX
8
0
62
5
10
-0.03880103
20
0.53830218
30
0
70
32
0
VERTEX
8
0
62
5
10
-0.03880103
20
0.53830218
30
0
70
32
0
SEQEND
8
0
0
POLYLINE
8
0
62
5
66
1
10
0
20
0
30
0
70
8
0
VERTEX
8
0
62
5
10
-0.010516759
20
0.53830218
30
0
70
32
0
VERTEX
8
0
62
5
10
-0.010516759
20
0.53830218
30
0
70
32
0
SEQEND
8
0
0
POLYLINE
8
0
62
5
66
1
10
0
20
0
30
0
70
8
0
VERTEX
8
0
62
5
10
-0.077602064
20
0.54859764
30
0
70
32
0
VERTEX
8
0
62
5
10
-0.077602064
20
0.54859764
30
0
70
32
0
SEQEND
8
0
0
POLYLINE
8
0
62
5
66
1
10
0
20
0
30
0
70
8
0
VERTEX
8
0
62
5
10
-0.049317793
20
0.54859764
30
0
70
32
0
VERTEX
8
0
62
5
10
-0.049317793
20
0.54859764
30
0
70
32
0
SEQEND
8
0
0
POLYLINE
8
0
62
5
66
1
10
0
20
0
30
0
70
8
0
VERTEX
8
0
62
5
10
-0.021033521
20
0.54859764
30
0
70
32
0
VERTEX
8
0
62
5
10
-0.021033521
20
0.54859764
30
0
70
32
0
SEQEND
8
0
0
POLYLINE
8
0
62
5
66
1
10
0
20
0
30
0
70
8
0
VERTEX
8
0
62
5
10
0.00725075
20
0.54859764
30
0
70
32
0
VERTEX
8
0
62
5
10
0.00725075
20
0.54859764
30
0
70
32
0
SEQEND
8
0
0
POLYLINE
8
0
62
5
66
1
10
0
20
0
30
0
70
8
0
VERTEX
8
0
62
5
10
0.063819292
20
0.54859764
30
0
70
32
0
VERTEX
8
0
62
5
10
0.063819292
20
0.58334334
30
0
70
32
0
SEQEND
8
0
0
POLYLINE
8
0
62
5
66
1
10
0
20
0
30
0
70
8
0
VERTEX
8
0
62
5
10
0.17695638
20
0.54859764
30
0
70
32
0
VERTEX
8
0
62
5
10
0.17695638
20
0.58334334
30
0
70
32
0
SEQEND
8
0
0
POLYLINE
8
0
62
5
66
1
10
0
20
0
30
0
70
8
0
VERTEX
8
0
62
5
10
0.092103564
20
0.54859764
30
0
70
32
0
VERTEX
8
0
62
5
10
0.092103564
20
0.58334334
30
0
70
32
0
SEQEND
8
0
0
POLYLINE
8
0
62
5
66
1
10
0
20
0
30
0
70
8
0
VERTEX
8
0
62
5
10
0.12038783
20
0.54859764
30
0
70
32
0
VERTEX
8
0
62
5
10
0.12038783
20
0.58334334
30
0
70
32
0
SEQEND
8
0
0
POLYLINE
8
0
62
5
66
1
10
0
20
0
30
0
70
8
0
VERTEX
8
0
62
5
10
0.14867211
20
0.54859764
30
0
70
32
0
VERTEX
8
0
62
5
10
0.14867211
20
0.58334334
30
0
70
32
0
SEQEND
8
0
0
POLYLINE
8
0
62
5
66
1
10
0
20
0
30
0
70
8
0
VERTEX
8
0
62
5
10
0.29009346
20
0.54859764
30
0
70
32
0
VERTEX
8
0
62
5
10
0.29009346
20
0.58334334
30
0
70
32
0
SEQEND
8
0
0
POLYLINE
8
0
62
5
66
1
10
0
20
0
30
0
70
8
0
VERTEX
8
0
62
5
10
0.20524065
20
0.54859764
30
0
70
32
0
VERTEX
8
0
62
5
10
0.20524065
20
0.58334334
30
0
70
32
0
SEQEND
8
0
0
POLYLINE
8
0
62
5
66
1
10
0
20
0
30
0
70
8
0
VERTEX
8
0
62
5
10
0.23352492
20
0.54859764
30
0
70
32
0
VERTEX
8
0
62
5
10
0.23352492
20
0.58334334
30
0
70
32
0
SEQEND
8
0
0
POLYLINE
8
0
62
5
66
1
10
0
20
0
30
0
70
8
0
VERTEX
8
0
62
5
10
0.26180919
20
0.54859764
30
0
70
32
0
VERTEX
8
0
62
5
10
0.26180919
20
0.58334334
30
0
70
32
0
SEQEND
8
0
0
POLYLINE
8
0
62
5
66
1
10
0
20
0
30
0
70
8
0
VERTEX
8
0
62
5
10
-0.049317793
20
0.54859764
30
0
70
32
0
VERTEX
8
0
62
5
10
-0.049317793
20
0.58334334
30
0
70
32
0
SEQEND
8
0
0
POLYLINE
8
0
62
5
66
1
10
0
20
0
30
0
70
8
0
VERTEX
8
0
62
5
10
-0.021033521
20
0.54859764
30
0
70
32
0
VERTEX
8
0
62
5
10
-0.021033521
20
0.58334334
30
0
70
32
0
SEQEND
8
0
0
POLYLINE
8
0
62
5
66
1
10
0
20
0
30
0
70
8
0
VERTEX
8
0
62
5
10
0.00725075
20
0.54859764
30
0
70
32
0
VERTEX
8
0
62
5
10
0.00725075
20
0.58334334
30
0
70
32
0
SEQEND
8
0
0
POLYLINE
8
0
62
5
66
1
10
0
20
0
30
0
70
8
0
VERTEX
8
0
62
5
10
0.035535021
20
0.54859764
30
0
70
32
0
VERTEX
8
0
62
5
10
0.035535021
20
0.58334334
30
0
70
32
0
SEQEND
8
0
0
POLYLINE
8
0
62
5
66
1
10
0
20
0
30
0
70
8
0
VERTEX
8
0
62
5
10
0.063819292
20
0.58334334
30
0
70
32
0
VERTEX
8
0
62
5
10
0.063819292
20
0.62262559
30
0
70
32
0
SEQEND
8
0
0
POLYLINE
8
0
62
5
66
1
10
0
20
0
30
0
70
8
0
VERTEX
8
0
62
5
10
0.17695638
20
0.62262559
30
0
70
32
0
VERTEX
8
0
62
5
10
0.17695638
20
0.58334334
30
0
70
32
0
SEQEND
8
0
0
POLYLINE
8
0
62
5
66
1
10
0
20
0
30
0
70
8
0
VERTEX
8
0
62
5
10
0.063819292
20
0.59292176
30
0
70
32
0
VERTEX
8
0
62
5
10
0.092103564
20
0.58334637
30
0
70
32
0
VERTEX
8
0
62
5
10
0.12038783
20
0.59340907
30
0
70
32
0
VERTEX
8
0
62
5
10
0.14867211
20
0.60298447
30
0
70
32
0
VERTEX
8
0
62
5
10
0.17695638
20
0.59292176
30
0
70
32
0
SEQEND
8
0
0
POLYLINE
8
0
62
5
66
1
10
0
20
0
30
0
70
8
0
SEQEND
8
0
0
POLYLINE
8
0
62
5
66
1
10
0
20
0
30
0
70
8
0
VERTEX
8
0
62
5
10
0.063819292
20
0.61304717
30
0
70
32
0
VERTEX
8
0
62
5
10
0.092103564
20
0.62262257
30
0
70
32
0
VERTEX
8
0
62
5
10
0.12038783
20
0.61255986
30
0
70
32
0
VERTEX
8
0
62
5
10
0.14867211
20
0.60298447
30
0
70
32
0
VERTEX
8
0
62
5
10
0.17695638
20
0.61304717
30
0
70
32
0
SEQEND
8
0
0
POLYLINE
8
0
62
30
66
1
10
0
20
0
30
0
70
8
0
VERTEX
8
0
62
30
10
0.063819292
20
0.60298447
30
0
70
32
0
VERTEX
8
0
62
30
10
0.17695638
20
0.60298447
30
0
70
32
0
SEQEND
8
0
0
POLYLINE
8
0
62
30
66
1
10
0
20
0
30
0
70
8
0
VERTEX
8
0
62
30
10
0.092103564
20
0.58334637
30
0
70
32
0
VERTEX
8
0
62
30
10
0.092103564
20
0.60298447
30
0
70
32
0
SEQEND
8
0
0
POLYLINE
8
0
62
30
66
1
10
0
20
0
30
0
70
8
0
VERTEX
8
0
62
30
10
0.12038783
20
0.59340907
30
0
70
32
0
VERTEX
8
0
62
30
10
0.12038783
20
0.60298447
30
0
70
32
0
SEQEND
8
0
0
POLYLINE
8
0
62
30
66
1
10
0
20
0
30
0
70
8
0
VERTEX
8
0
62
30
10
0.14867211
20
0.60298447
30
0
70
32
0
VERTEX
8
0
62
30
10
0.14867211
20
0.60298447
30
0
70
32
0
SEQEND
8
0
0
POLYLINE
8
0
62
5
66
1
10
0
20
0
30
0
70
8
0
VERTEX
8
0
62
5
10
0.092103564
20
0.58334334
30
0
70
32
0
VERTEX
8
0
62
5
10
0.092103564
20
0.58334637
30
0
70
32
0
SEQEND
8
0
0
POLYLINE
8
0
62
5
66
1
10
0
20
0
30
0
70
8
0
VERTEX
8
0
62
5
10
0.12038783
20
0.58334334
30
0
70
32
0
VERTEX
8
0
62
5
10
0.12038783
20
0.59340907
30
0
70
32
0
SEQEND
8
0
0
POLYLINE
8
0
62
5
66
1
10
0
20
0
30
0
70
8
0
VERTEX
8
0
62
5
10
0.14867211
20
0.58334334
30
0
70
32
0
VERTEX
8
0
62
5
10
0.14867211
20
0.60298447
30
0
70
32
0
SEQEND
8
0
0
POLYLINE
8
0
62
5
66
1
10
0
20
0
30
0
70
8
0
VERTEX
8
0
62
5
10
0.092103564
20
0.60298447
30
0
70
32
0
VERTEX
8
0
62
5
10
0.092103564
20
0.62262559
30
0
70
32
0
SEQEND
8
0
0
POLYLINE
8
0
62
5
66
1
10
0
20
0
30
0
70
8
0
VERTEX
8
0
62
5
10
0.12038783
20
0.60298447
30
0
70
32
0
VERTEX
8
0
62
5
10
0.12038783
20
0.62262559
30
0
70
32
0
SEQEND
8
0
0
POLYLINE
8
0
62
5
66
1
10
0
20
0
30
0
70
8
0
VERTEX
8
0
62
5
10
0.14867211
20
0.60298447
30
0
70
32
0
VERTEX
8
0
62
5
10
0.14867211
20
0.62262559
30
0
70
32
0
SEQEND
8
0
0
POLYLINE
8
0
62
5
66
1
10
0
20
0
30
0
70
8
0
VERTEX
8
0
62
5
10
0.29009346
20
0.62262559
30
0
70
32
0
VERTEX
8
0
62
5
10
0.29009346
20
0.58334334
30
0
70
32
0
SEQEND
8
0
0
POLYLINE
8
0
62
5
66
1
10
0
20
0
30
0
70
8
0
VERTEX
8
0
62
5
10
0.17695638
20
0.59292176
30
0
70
32
0
VERTEX
8
0
62
5
10
0.20524065
20
0.58334637
30
0
70
32
0
VERTEX
8
0
62
5
10
0.23352492
20
0.59340907
30
0
70
32
0
VERTEX
8
0
62
5
10
0.26180919
20
0.60298447
30
0
70
32
0
VERTEX
8
0
62
5
10
0.29009346
20
0.59292176
30
0
70
32
0
SEQEND
8
0
0
POLYLINE
8
0
62
5
66
1
10
0
20
0
30
0
70
8
0
SEQEND
8
0
0
POLYLINE
8
0
62
5
66
1
10
0
20
0
30
0
70
8
0
VERTEX
8
0
62
5
10
0.17695638
20
0.61304717
30
0
70
32
0
VERTEX
8
0
62
5
10
0.20524065
20
0.62262257
30
0
70
32
0
VERTEX
8
0
62
5
10
0.23352492
20
0.61255986
30
0
70
32
0
VERTEX
8
0
62
5
10
0.26180919
20
0.60298447
30
0
70
32
0
VERTEX
8
0
62
5
10
0.29009346
20
0.61304717
30
0
70
32
0
SEQEND
8
0
0
POLYLINE
8
0
62
30
66
1
10
0
20
0
30
0
70
8
0
VERTEX
8
0
62
30
10
0.17695638
20
0.60298447
30
0
70
32
0
VERTEX
8
0
62
30
10
0.29009346
20
0.60298447
30
0
70
32
0
SEQEND
8
0
0
POLYLINE
8
0
62
30
66
1
10
0
20
0
30
0
70
8
0
VERTEX
8
0
62
30
10
0.20524065
20
0.58334637
30
0
70
32
0
VERTEX
8
0
62
30
10
0.20524065
20
0.60298447
30
0
70
32
0
SEQEND
8
0
0
POLYLINE
8
0
62
30
66
1
10
0
20
0
30
0
70
8
0
VERTEX
8
0
62
30
10
0.23352492
20
0.59340907
30
0
70
32
0
VERTEX
8
0
62
30
10
0.23352492
20
0.60298447
30
0
70
32
0
SEQEND
8
0
0
POLYLINE
8
0
62
30
66
1
10
0
20
0
30
0
70
8
0
VERTEX
8
0
62
30
10
0.26180919
20
0.60298447
30
0
70
32
0
VERTEX
8
0
62
30
10
0.26180919
20
0.60298447
30
0
70
32
0
SEQEND
8
0
0
POLYLINE
8
0
62
5
66
1
10
0
20
0
30
0
70
8
0
VERTEX
8
0
62
5
10
0.20524065
20
0.58334334
30
0
70
32
0
VERTEX
8
0
62
5
10
0.20524065
20
0.58334637
30
0
70
32
0
SEQEND
8
0
0
POLYLINE
8
0
62
5
66
1
10
0
20
0
30
0
70
8
0
VERTEX
8
0
62
5
10
0.23352492
20
0.58334334
30
0
70
32
0
VERTEX
8
0
62
5
10
0.23352492
20
0.59340907
30
0
70
32
0
SEQEND
8
0
0
POLYLINE
8
0
62
5
66
1
10
0
20
0
30
0
70
8
0
VERTEX
8
0
62
5
10
0.26180919
20
0.58334334
30
0
70
32
0
VERTEX
8
0
62
5
10
0.26180919
20
0.60298447
30
0
70
32
0
SEQEND
8
0
0
POLYLINE
8
0
62
5
66
1
10
0
20
0
30
0
70
8
0
VERTEX
8
0
62
5
10
0.20524065
20
0.60298447
30
0
70
32
0
VERTEX
8
0
62
5
10
0.20524065
20
0.62262559
30
0
70
32
0
SEQEND
8
0
0
POLYLINE
8
0
62
5
66
1
10
0
20
0
30
0
70
8
0
VERTEX
8
0
62
5
10
0.23352492
20
0.60298447
30
0
70
32
0
VERTEX
8
0
62
5
10
0.23352492
20
0.62262559
30
0
70
32
0
SEQEND
8
0
0
POLYLINE
8
0
62
5
66
1
10
0
20
0
30
0
70
8
0
VERTEX
8
0
62
5
10
0.26180919
20
0.60298447
30
0
70
32
0
VERTEX
8
0
62
5
10
0.26180919
20
0.62262559
30
0
70
32
0
SEQEND
8
0
0
POLYLINE
8
0
62
5
66
1
10
0
20
0
30
0
70
8
0
VERTEX
8
0
62
5
10
-0.049317793
20
0.58334334
30
0
70
32
0
VERTEX
8
0
62
5
10
-0.049317793
20
0.62262559
30
0
70
32
0
SEQEND
8
0
0
POLYLINE
8
0
62
5
66
1
10
0
20
0
30
0
70
8
0
VERTEX
8
0
62
5
10
-0.049317793
20
0.59292176
30
0
70
32
0
VERTEX
8
0
62
5
10
-0.021033521
20
0.58334637
30
0
70
32
0
VERTEX
8
0
62
5
10
0.00725075
20
0.59340907
30
0
70
32
0
VERTEX
8
0
62
5
10
0.035535021
20
0.60298447
30
0
70
32
0
VERTEX
8
0
62
5
10
0.063819292
20
0.59292176
30
0
70
32
0
SEQEND
8
0
0
POLYLINE
8
0
62
5
66
1
10
0
20
0
30
0
70
8
0
SEQEND
8
0
0
POLYLINE
8
0
62
5
66
1
10
0
20
0
30
0
70
8
0
VERTEX
8
0
62
5
10
-0.049317793
20
0.61304717
30
0
70
32
0
VERTEX
8
0
62
5
10
-0.021033521
20
0.62262257
30
0
70
32
0
VERTEX
8
0
62
5
10
0.00725075
20
0.61255986
30
0
70
32
0
VERTEX
8
0
62
5
10
0.035535021
20
0.60298447
30
0
70
32
0
VERTEX
8
0
62
5
10
0.063819292
20
0.61304717
30
0
70
32
0
SEQEND
8
0
0
POLYLINE
8
0
62
30
66
1
10
0
20
0
30
0
70
8
0
VERTEX
8
0
62
30
10
-0.049317793
20
0.60298447
30
0
70
32
0
VERTEX
8
0
62
30
10
0.063819292
20
0.60298447
30
0
70
32
0
SEQEND
8
0
0
POLYLINE
8
0
62
30
66
1
10
0
20
0
30
0
70
8
0
VERTEX
8
0
62
30
10
-0.021033521
20
0.58334637
30
0
70
32
0
VERTEX
8
0
62
30
10
-0.021033521
20
0.60298447
30
0
70
32
0
SEQEND
8
0
0
POLYLINE
8
0
62
30
66
1
10
0
20
0
30
0
70
8
0
VERTEX
8
0
62
30
10
0.00725075
20
0.59340907
30
0
70
32
0
VERTEX
8
0
62
30
10
0.00725075
20
0.60298447
30
0
70
32
0
SEQEND
8
0
0
POLYLINE
8
0
62
30
66
1
10
0
20
0
30
0
70
8
0
VERTEX
8
0
62
30
10
0.035535021
20
0.60298447
30
0
70
32
0
VERTEX
8
0
62
30
10
0.035535021
20
0.60298447
30
0
70
32
0
SEQEND
8
0
0
POLYLINE
8
0
62
5
66
1
10
0
20
0
30
0
70
8
0
VERTEX
8
0
62
5
10
-0.021033521
20
0.58334334
30
0
70
32
0
VERTEX
8
0
62
5
10
-0.021033521
20
0.58334637
30
0
70
32
0
SEQEND
8
0
0
POLYLINE
8
0
62
5
66
1
10
0
20
0
30
0
70
8
0
VERTEX
8
0
62
5
10
0.00725075
20
0.58334334
30
0
70
32
0
VERTEX
8
0
62
5
10
0.00725075
20
0.59340907
30
0
70
32
0
SEQEND
8
0
0
POLYLINE
8
0
62
5
66
1
10
0
20
0
30
0
70
8
0
VERTEX
8
0
62
5
10
0.035535021
20
0.58334334
30
0
70
32
0
VERTEX
8
0
62
5
10
0.035535021
20
0.60298447
30
0
70
32
0
SEQEND
8
0
0
POLYLINE
8
0
62
5
66
1
10
0
20
0
30
0
70
8
0
VERTEX
8
0
62
5
10
-0.021033521
20
0.60298447
30
0
70
32
0
VERTEX
8
0
62
5
10
-0.021033521
20
0.62262559
30
0
70
32
0
SEQEND
8
0
0
POLYLINE
8
0
62
5
66
1
10
0
20
0
30
0
70
8
0
VERTEX
8
0
62
5
10
0.00725075
20
0.60298447
30
0
70
32
0
VERTEX
8
0
62
5
10
0.00725075
20
0.62262559
30
0
70
32
0
SEQEND
8
0
0
POLYLINE
8
0
62
5
66
1
10
0
20
0
30
0
70
8
0
VERTEX
8
0
62
5
10
0.035535021
20
0.60298447
30
0
70
32
0
VERTEX
8
0
62
5
10
0.035535021
20
0.62262559
30
0
70
32
0
SEQEND
8
0
0
POLYLINE
8
0
62
5
66
1
10
0
20
0
30
0
70
8
0
VERTEX
8
0
62
5
10
0.063819292
20
0.62262559
30
0
70
32
0
VERTEX
8
0
62
5
10
0.063819292
20
0.66262559
30
0
70
32
0
SEQEND
8
0
0
POLYLINE
8
0
62
5
66
1
10
0
20
0
30
0
70
8
0
VERTEX
8
0
62
5
10
0.17695638
20
0.66262559
30
0
70
32
0
VERTEX
8
0
62
5
10
0.17695638
20
0.62262559
30
0
70
32
0
SEQEND
8
0
0
POLYLINE
8
0
62
5
66
1
10
0
20
0
30
0
70
8
0
VERTEX
8
0
62
5
10
0.063819292
20
0.62262559
30
0
70
32
0
VERTEX
8
0
62
5
10
0.17695638
20
0.62262559
30
0
70
32
0
SEQEND
8
0
0
POLYLINE
8
0
62
5
66
1
10
0
20
0
30
0
70
8
0
VERTEX
8
0
62
5
10
0.063819292
20
0.66262559
30
0
70
32
0
VERTEX
8
0
62
5
10
0.17695638
20
0.66262559
30
0
70
32
0
SEQEND
8
0
0
POLYLINE
8
0
62
5
66
1
10
0
20
0
30
0
70
8
0
VERTEX
8
0
62
5
10
0.092103564
20
0.62262559
30
0
70
32
0
VERTEX
8
0
62
5
10
0.092103564
20
0.62262559
30
0
70
32
0
SEQEND
8
0
0
POLYLINE
8
0
62
5
66
1
10
0
20
0
30
0
70
8
0
VERTEX
8
0
62
5
10
0.12038783
20
0.62262559
30
0
70
32
0
VERTEX
8
0
62
5
10
0.12038783
20
0.62262559
30
0
70
32
0
SEQEND
8
0
0
POLYLINE
8
0
62
5
66
1
10
0
20
0
30
0
70
8
0
VERTEX
8
0
62
5
10
0.14867211
20
0.62262559
30
0
70
32
0
VERTEX
8
0
62
5
10
0.14867211
20
0.62262559
30
0
70
32
0
SEQEND
8
0
0
POLYLINE
8
0
62
5
66
1
10
0
20
0
30
0
70
8
0
VERTEX
8
0
62
5
10
0.092103564
20
0.66262559
30
0
70
32
0
VERTEX
8
0
62
5
10
0.092103564
20
0.66262559
30
0
70
32
0
SEQEND
8
0
0
POLYLINE
8
0
62
5
66
1
10
0
20
0
30
0
70
8
0
VERTEX
8
0
62
5
10
0.12038783
20
0.66262559
30
0
70
32
0
VERTEX
8
0
62
5
10
0.12038783
20
0.66262559
30
0
70
32
0
SEQEND
8
0
0
POLYLINE
8
0
62
5
66
1
10
0
20
0
30
0
70
8
0
VERTEX
8
0
62
5
10
0.14867211
20
0.66262559
30
0
70
32
0
VERTEX
8
0
62
5
10
0.14867211
20
0.66262559
30
0
70
32
0
SEQEND
8
0
0
POLYLINE
8
0
62
30
66
1
10
0
20
0
30
0
70
8
0
VERTEX
8
0
62
30
10
0.063819292
20
0.62262559
30
0
70
32
0
VERTEX
8
0
62
30
10
0.077961428
20
0.64262559
30
0
70
32
0
SEQEND
8
0
0
POLYLINE
8
0
62
30
66
1
10
0
20
0
30
0
70
8
0
VERTEX
8
0
62
30
10
0.077961428
20
0.64262559
30
0
70
32
0
VERTEX
8
0
62
30
10
0.092103564
20
0.62262559
30
0
70
32
0
SEQEND
8
0
0
POLYLINE
8
0
62
30
66
1
10
0
20
0
30
0
70
8
0
VERTEX
8
0
62
30
10
0.12038783
20
0.62262559
30
0
70
32
0
VERTEX
8
0
62
30
10
0.13452997
20
0.64262559
30
0
70
32
0
SEQEND
8
0
0
POLYLINE
8
0
62
30
66
1
10
0
20
0
30
0
70
8
0
VERTEX
8
0
62
30
10
0.13452997
20
0.64262559
30
0
70
32
0
VERTEX
8
0
62
30
10
0.14867211
20
0.62262559
30
0
70
32
0
SEQEND
8
0
0
POLYLINE
8
0
62
30
66
1
10
0
20
0
30
0
70
8
0
VERTEX
8
0
62
30
10
0.092103564
20
0.64262559
30
0
70
32
0
VERTEX
8
0
62
30
10
0.12038783
20
0.64262559
30
0
70
32
0
SEQEND
8
0
0
POLYLINE
8
0
62
30
66
1
10
0
20
0
30
0
70
8
0
VERTEX
8
0
62
30
10
0.14867211
20
0.64262559
30
0
70
32
0
VERTEX
8
0
62
30
10
0.17695638
20
0.64262559
30
0
70
32
0
SEQEND
8
0
0
POLYLINE
8
0
62
5
66
1
10
0
20
0
30
0
70
8
0
VERTEX
8
0
62
5
10
0.063819292
20
0.64262559
30
0
70
32
0
VERTEX
8
0
62
5
10
0.077961428
20
0.64262559
30
0
70
32
0
SEQEND
8
0
0
POLYLINE
8
0
62
5
66
1
10
0
20
0
30
0
70
8
0
VERTEX
8
0
62
5
10
0.12038783
20
0.64262559
30
0
70
32
0
VERTEX
8
0
62
5
10
0.13452997
20
0.64262559
30
0
70
32
0
SEQEND
8
0
0
POLYLINE
8
0
62
5
66
1
10
0
20
0
30
0
70
8
0
VERTEX
8
0
62
5
10
0.077961428
20
0.64262559
30
0
70
32
0
VERTEX
8
0
62
5
10
0.092103564
20
0.64262559
30
0
70
32
0
SEQEND
8
0
0
POLYLINE
8
0
62
5
66
1
10
0
20
0
30
0
70
8
0
VERTEX
8
0
62
5
10
0.13452997
20
0.64262559
30
0
70
32
0
VERTEX
8
0
62
5
10
0.14867211
20
0.64262559
30
0
70
32
0
SEQEND
8
0
0
POLYLINE
8
0
62
5
66
1
10
0
20
0
30
0
70
8
0
VERTEX
8
0
62
5
10
0.092103564
20
0.62262559
30
0
70
32
0
VERTEX
8
0
62
5
10
0.092103564
20
0.66262559
30
0
70
32
0
SEQEND
8
0
0
POLYLINE
8
0
62
5
66
1
10
0
20
0
30
0
70
8
0
VERTEX
8
0
62
5
10
0.12038783
20
0.62262559
30
0
70
32
0
VERTEX
8
0
62
5
10
0.12038783
20
0.66262559
30
0
70
32
0
SEQEND
8
0
0
POLYLINE
8
0
62
5
66
1
10
0
20
0
30
0
70
8
0
VERTEX
8
0
62
5
10
0.14867211
20
0.62262559
30
0
70
32
0
VERTEX
8
0
62
5
10
0.14867211
20
0.66262559
30
0
70
32
0
SEQEND
8
0
0
POLYLINE
8
0
62
5
66
1
10
0
20
0
30
0
70
8
0
VERTEX
8
0
62
5
10
0.063819292
20
0.62262559
30
0
70
32
0
VERTEX
8
0
62
5
10
0.063819292
20
0.66262559
30
0
70
32
0
SEQEND
8
0
0
POLYLINE
8
0
62
5
66
1
10
0
20
0
30
0
70
8
0
VERTEX
8
0
62
5
10
0.29009346
20
0.66262559
30
0
70
32
0
VERTEX
8
0
62
5
10
0.29009346
20
0.62262559
30
0
70
32
0
SEQEND
8
0
0
POLYLINE
8
0
62
5
66
1
10
0
20
0
30
0
70
8
0
VERTEX
8
0
62
5
10
0.17695638
20
0.62262559
30
0
70
32
0
VERTEX
8
0
62
5
10
0.29009346
20
0.62262559
30
0
70
32
0
SEQEND
8
0
0
POLYLINE
8
0
62
5
66
1
10
0
20
0
30
0
70
8
0
VERTEX
8
0
62
5
10
0.17695638
20
0.66262559
30
0
70
32
0
VERTEX
8
0
62
5
10
0.29009346
20
0.66262559
30
0
70
32
0
SEQEND
8
0
0
POLYLINE
8
0
62
5
66
1
10
0
20
0
30
0
70
8
0
VERTEX
8
0
62
5
10
0.20524065
20
0.62262559
30
0
70
32
0
VERTEX
8
0
62
5
10
0.20524065
20
0.62262559
30
0
70
32
0
SEQEND
8
0
0
POLYLINE
8
0
62
5
66
1
10
0
20
0
30
0
70
8
0
VERTEX
8
0
62
5
10
0.23352492
20
0.62262559
30
0
70
32
0
VERTEX
8
0
62
5
10
0.23352492
20
0.62262559
30
0
70
32
0
SEQEND
8
0
0
POLYLINE
8
0
62
5
66
1
10
0
20
0
30
0
70
8
0
VERTEX
8
0
62
5
10
0.26180919
20
0.62262559
30
0
70
32
0
VERTEX
8
0
62
5
10
0.26180919
20
0.62262559
30
0
70
32
0
SEQEND
8
0
0
POLYLINE
8
0
62
5
66
1
10
0
20
0
30
0
70
8
0
VERTEX
8
0
62
5
10
0.20524065
20
0.66262559
30
0
70
32
0
VERTEX
8
0
62
5
10
0.20524065
20
0.66262559
30
0
70
32
0
SEQEND
8
0
0
POLYLINE
8
0
62
5
66
1
10
0
20
0
30
0
70
8
0
VERTEX
8
0
62
5
10
0.23352492
20
0.66262559
30
0
70
32
0
VERTEX
8
0
62
5
10
0.23352492
20
0.66262559
30
0
70
32
0
SEQEND
8
0
0
POLYLINE
8
0
62
5
66
1
10
0
20
0
30
0
70
8
0
VERTEX
8
0
62
5
10
0.26180919
20
0.66262559
30
0
70
32
0
VERTEX
8
0
62
5
10
0.26180919
20
0.66262559
30
0
70
32
0
SEQEND
8
0
0
POLYLINE
8
0
62
30
66
1
10
0
20
0
30
0
70
8
0
VERTEX
8
0
62
30
10
0.17695638
20
0.62262559
30
0
70
32
0
VERTEX
8
0
62
30
10
0.19109851
20
0.64262559
30
0
70
32
0
SEQEND
8
0
0
POLYLINE
8
0
62
30
66
1
10
0
20
0
30
0
70
8
0
VERTEX
8
0
62
30
10
0.19109851
20
0.64262559
30
0
70
32
0
VERTEX
8
0
62
30
10
0.20524065
20
0.62262559
30
0
70
32
0
SEQEND
8
0
0
POLYLINE
8
0
62
30
66
1
10
0
20
0
30
0
70
8
0
VERTEX
8
0
62
30
10
0.23352492
20
0.62262559
30
0
70
32
0
VERTEX
8
0
62
30
10
0.24766706
20
0.64262559
30
0
70
32
0
SEQEND
8
0
0
POLYLINE
8
0
62
30
66
1
10
0
20
0
30
0
70
8
0
VERTEX
8
0
62
30
10
0.24766706
20
0.64262559
30
0
70
32
0
VERTEX
8
0
62
30
10
0.26180919
20
0.62262559
30
0
70
32
0
SEQEND
8
0
0
POLYLINE
8
0
62
30
66
1
10
0
20
0
30
0
70
8
0
VERTEX
8
0
62
30
10
0.20524065
20
0.64262559
30
0
70
32
0
VERTEX
8
0
62
30
10
0.23352492
20
0.64262559
30
0
70
32
0
SEQEND
8
0
0
POLYLINE
8
0
62
30
66
1
10
0
20
0
30
0
70
8
0
VERTEX
8
0
62
30
10
0.26180919
20
0.64262559
30
0
70
32
0
VERTEX
8
0
62
30
10
0.29009346
20
0.64262559
30
0
70
32
0
SEQEND
8
0
0
POLYLINE
8
0
62
5
66
1
10
0
20
0
30
0
70
8
0
VERTEX
8
0
62
5
10
0.17695638
20
0.64262559
30
0
70
32
0
VERTEX
8
0
62
5
10
0.19109851
20
0.64262559
30
0
70
32
0
SEQEND
8
0
0
POLYLINE
8
0
62
5
66
1
10
0
20
0
30
0
70
8
0
VERTEX
8
0
62
5
10
0.23352492
20
0.64262559
30
0
70
32
0
VERTEX
8
0
62
5
10
0.24766706
20
0.64262559
30
0
70
32
0
SEQEND
8
0
0
POLYLINE
8
0
62
5
66
1
10
0
20
0
30
0
70
8
0
VERTEX
8
0
62
5
10
0.19109851
20
0.64262559
30
0
70
32
0
VERTEX
8
0
62
5
10
0.20524065
20
0.64262559
30
0
70
32
0
SEQEND
8
0
0
POLYLINE
8
0
62
5
66
1
10
0
20
0
30
0
70
8
0
VERTEX
8
0
62
5
10
0.24766706
20
0.64262559
30
0
70
32
0
VERTEX
8
0
62
5
10
0.26180919
20
0.64262559
30
0
70
32
0
SEQEND
8
0
0
POLYLINE
8
0
62
5
66
1
10
0
20
0
30
0
70
8
0
VERTEX
8
0
62
5
10
0.20524065
20
0.62262559
30
0
70
32
0
VERTEX
8
0
62
5
10
0.20524065
20
0.66262559
30
0
70
32
0
SEQEND
8
0
0
POLYLINE
8
0
62
5
66
1
10
0
20
0
30
0
70
8
0
VERTEX
8
0
62
5
10
0.23352492
20
0.62262559
30
0
70
32
0
VERTEX
8
0
62
5
10
0.23352492
20
0.66262559
30
0
70
32
0
SEQEND
8
0
0
POLYLINE
8
0
62
5
66
1
10
0
20
0
30
0
70
8
0
VERTEX
8
0
62
5
10
0.26180919
20
0.62262559
30
0
70
32
0
VERTEX
8
0
62
5
10
0.26180919
20
0.66262559
30
0
70
32
0
SEQEND
8
0
0
POLYLINE
8
0
62
5
66
1
10
0
20
0
30
0
70
8
0
VERTEX
8
0
62
5
10
0.17695638
20
0.62262559
30
0
70
32
0
VERTEX
8
0
62
5
10
0.17695638
20
0.66262559
30
0
70
32
0
SEQEND
8
0
0
POLYLINE
8
0
62
5
66
1
10
0
20
0
30
0
70
8
0
VERTEX
8
0
62
5
10
-0.049317793
20
0.62262559
30
0
70
32
0
VERTEX
8
0
62
5
10
-0.049317793
20
0.66262559
30
0
70
32
0
SEQEND
8
0
0
POLYLINE
8
0
62
5
66
1
10
0
20
0
30
0
70
8
0
VERTEX
8
0
62
5
10
-0.049317793
20
0.62262559
30
0
70
32
0
VERTEX
8
0
62
5
10
0.063819292
20
0.62262559
30
0
70
32
0
SEQEND
8
0
0
POLYLINE
8
0
62
5
66
1
10
0
20
0
30
0
70
8
0
VERTEX
8
0
62
5
10
-0.049317793
20
0.66262559
30
0
70
32
0
VERTEX
8
0
62
5
10
0.063819292
20
0.66262559
30
0
70
32
0
SEQEND
8
0
0
POLYLINE
8
0
62
5
66
1
10
0
20
0
30
0
70
8
0
VERTEX
8
0
62
5
10
-0.021033521
20
0.62262559
30
0
70
32
0
VERTEX
8
0
62
5
10
-0.021033521
20
0.62262559
30
0
70
32
0
SEQEND
8
0
0
POLYLINE
8
0
62
5
66
1
10
0
20
0
30
0
70
8
0
VERTEX
8
0
62
5
10
0.00725075
20
0.62262559
30
0
70
32
0
VERTEX
8
0
62
5
10
0.00725075
20
0.62262559
30
0
70
32
0
SEQEND
8
0
0
POLYLINE
8
0
62
5
66
1
10
0
20
0
30
0
70
8
0
VERTEX
8
0
62
5
10
0.035535021
20
0.62262559
30
0
70
32
0
VERTEX
8
0
62
5
10
0.035535021
20
0.62262559
30
0
70
32
0
SEQEND
8
0
0
POLYLINE
8
0
62
5
66
1
10
0
20
0
30
0
70
8
0
VERTEX
8
0
62
5
10
-0.021033521
20
0.66262559
30
0
70
32
0
VERTEX
8
0
62
5
10
-0.021033521
20
0.66262559
30
0
70
32
0
SEQEND
8
0
0
POLYLINE
8
0
62
5
66
1
10
0
20
0
30
0
70
8
0
VERTEX
8
0
62
5
10
0.00725075
20
0.66262559
30
0
70
32
0
VERTEX
8
0
62
5
10
0.00725075
20
0.66262559
30
0
70
32
0
SEQEND
8
0
0
POLYLINE
8
0
62
5
66
1
10
0
20
0
30
0
70
8
0
VERTEX
8
0
62
5
10
0.035535021
20
0.66262559
30
0
70
32
0
VERTEX
8
0
62
5
10
0.035535021
20
0.66262559
30
0
70
32
0
SEQEND
8
0
0
POLYLINE
8
0
62
30
66
1
10
0
20
0
30
0
70
8
0
VERTEX
8
0
62
30
10
-0.049317793
20
0.62262559
30
0
70
32
0
VERTEX
8
0
62
30
10
-0.035175657
20
0.64262559
30
0
70
32
0
SEQEND
8
0
0
POLYLINE
8
0
62
30
66
1
10
0
20
0
30
0
70
8
0
VERTEX
8
0
62
30
10
-0.035175657
20
0.64262559
30
0
70
32
0
VERTEX
8
0
62
30
10
-0.021033521
20
0.62262559
30
0
70
32
0
SEQEND
8
0
0
POLYLINE
8
0
62
30
66
1
10
0
20
0
30
0
70
8
0
VERTEX
8
0
62
30
10
0.00725075
20
0.62262559
30
0
70
32
0
VERTEX
8
0
62
30
10
0.021392886
20
0.64262559
30
0
70
32
0
SEQEND
8
0
0
POLYLINE
8
0
62
30
66
1
10
0
20
0
30
0
70
8
0
VERTEX
8
0
62
30
10
0.021392886
20
0.64262559
30
0
70
32
0
VERTEX
8
0
62
30
10
0.035535021
20
0.62262559
30
0
70
32
0
SEQEND
8
0
0
POLYLINE
8
0
62
30
66
1
10
0
20
0
30
0
70
8
0
VERTEX
8
0
62
30
10
-0.021033521
20
0.64262559
30
0
70
32
0
VERTEX
8
0
62
30
10
0.00725075
20
0.64262559
30
0
70
32
0
SEQEND
8
0
0
POLYLINE
8
0
62
30
66
1
10
0
20
0
30
0
70
8
0
VERTEX
8
0
62
30
10
0.035535021
20
0.64262559
30
0
70
32
0
VERTEX
8
0
62
30
10
0.063819292
20
0.64262559
30
0
70
32
0
SEQEND
8
0
0
POLYLINE
8
0
62
5
66
1
10
0
20
0
30
0
70
8
0
VERTEX
8
0
62
5
10
-0.049317793
20
0.64262559
30
0
70
32
0
VERTEX
8
0
62
5
10
-0.035175657
20
0.64262559
30
0
70
32
0
SEQEND
8
0
0
POLYLINE
8
0
62
5
66
1
10
0
20
0
30
0
70
8
0
VERTEX
8
0
62
5
10
0.00725075
20
0.64262559
30
0
70
32
0
VERTEX
8
0
62
5
10
0.021392886
20
0.64262559
30
0
70
32
0
SEQEND
8
0
0
POLYLINE
8
0
62
5
66
1
10
0
20
0
30
0
70
8
0
VERTEX
8
0
62
5
10
-0.035175657
20
0.64262559
30
0
70
32
0
VERTEX
8
0
62
5
10
-0.021033521
20
0.64262559
30
0
70
32
0
SEQEND
8
0
0
POLYLINE
8
0
62
5
66
1
10
0
20
0
30
0
70
8
0
VERTEX
8
0
62
5
10
0.021392886
20
0.64262559
30
0
70
32
0
VERTEX
8
0
62
5
10
0.035535021
20
0.64262559
30
0
70
32
0
SEQEND
8
0
0
POLYLINE
8
0
62
5
66
1
10
0
20
0
30
0
70
8
0
VERTEX
8
0
62
5
10
-0.021033521
20
0.62262559
30
0
70
32
0
VERTEX
8
0
62
5
10
-0.021033521
20
0.66262559
30
0
70
32
0
SEQEND
8
0
0
POLYLINE
8
0
62
5
66
1
10
0
20
0
30
0
70
8
0
VERTEX
8
0
62
5
10
0.00725075
20
0.62262559
30
0
70
32
0
VERTEX
8
0
62
5
10
0.00725075
20
0.66262559
30
0
70
32
0
SEQEND
8
0
0
POLYLINE
8
0
62
5
66
1
10
0
20
0
30
0
70
8
0
VERTEX
8
0
62
5
10
0.035535021
20
0.62262559
30
0
70
32
0
VERTEX
8
0
62
5
10
0.035535021
20
0.66262559
30
0
70
32
0
SEQEND
8
0
0
POLYLINE
8
0
62
5
66
1
10
0
20
0
30
0
70
8
0
VERTEX
8
0
62
5
10
-0.049317793
20
0.62262559
30
0
70
32
0
VERTEX
8
0
62
5
10
-0.049317793
20
0.66262559
30
0
70
32
0
SEQEND
8
0
0
POLYLINE
8
0
62
18
66
1
10
0
20
0
30
0
70
8
0
VERTEX
8
0
62
18
10
0
20
0
30
0
70
32
0
VERTEX
8
0
62
18
10
0.14142136
20
0
30
0
70
32
0
VERTEX
8
0
62
18
10
0.14142136
20
0.16795057
30
0
70
32
0
VERTEX
8
0
62
18
10
0
20
0.16795057
30
0
70
32
0
VERTEX
8
0
62
18
10
0
20
0
30
0
70
32
0
SEQEND
8
0
0
POLYLINE
8
0
62
5
66
1
10
0
20
0
30
0
70
8
0
VERTEX
8
0
62
5
10
0
20
0.16795057
30
0
70
32
0
VERTEX
8
0
62
5
10
0.14142136
20
0.16795057
30
0
70
32
0
SEQEND
8
0
0
POLYLINE
8
0
62
18
66
1
10
0
20
0
30
0
70
8
0
VERTEX
8
0
62
18
10
0
20
0.14795057
30
0
70
32
0
VERTEX
8
0
62
18
10
0.14142136
20
0.14795057
30
0
70
32
0
VERTEX
8
0
62
18
10
0.14142136
20
0.36405544
30
0
70
32
0
VERTEX
8
0
62
18
10
0
20
0.36405544
30
0
70
32
0
VERTEX
8
0
62
18
10
0
20
0.14795057
30
0
70
32
0
SEQEND
8
0
0
POLYLINE
8
0
62
5
66
1
10
0
20
0
30
0
70
8
0
VERTEX
8
0
62
5
10
0
20
0.36405544
30
0
70
32
0
VERTEX
8
0
62
5
10
0.14142136
20
0.36405544
30
0
70
32
0
SEQEND
8
0
0
POLYLINE
8
0
62
18
66
1
10
0
20
0
30
0
70
8
0
VERTEX
8
0
62
18
10
0
20
0.34405544
30
0
70
32
0
VERTEX
8
0
62
18
10
0.14142136
20
0.34405544
30
0
70
32
0
VERTEX
8
0
62
18
10
0.14142136
20
0.56597049
30
0
70
32
0
VERTEX
8
0
62
18
10
0
20
0.56597049
30
0
70
32
0
VERTEX
8
0
62
18
10
0
20
0.34405544
30
0
70
32
0
SEQEND
8
0
0
POLYLINE
8
0
62
5
66
1
10
0
20
0
30
0
70
8
0
VERTEX
8
0
62
5
10
0
20
0.56597049
30
0
70
32
0
VERTEX
8
0
62
5
10
0.14142136
20
0.56597049
30
0
70
32
0
SEQEND
8
0
0
POLYLINE
8
0
62
18
66
1
10
0
20
0
30
0
70
8
0
VERTEX
8
0
62
18
10
0
20
0.54597049
30
0
70
32
0
VERTEX
8
0
62
18
10
0.14142136
20
0.54597049
30
0
70
32
0
VERTEX
8
0
62
18
10
0.14142136
20
0.66262559
30
0
70
32
0
VERTEX
8
0
62
18
10
0
20
0.66262559
30
0
70
32
0
VERTEX
8
0
62
18
10
0
20
0.54597049
30
0
70
32
0
SEQEND
8
0
0
POLYLINE
8
0
62
18
66
1
10
0
20
0
30
0
70
8
0
VERTEX
8
0
62
18
10
0.14142136
20
0
30
0
70
32
0
VERTEX
8
0
62
18
10
0
20
0
30
0
70
32
0
VERTEX
8
0
62
18
10
0
20
0.66262559
30
0
70
32
0
VERTEX
8
0
62
18
10
0.14142136
20
0.66262559
30
0
70
32
0
VERTEX
8
0
62
18
10
0.14142136
20
0
30
0
70
32
0
SEQEND
8
0
0
ENDSEC
0
EOF
