0
SECTION
2
HEADER
9
$ACADVER
1
AC1006
9
$INSUNITS
70
6
0
ENDSEC
0
SECTION
2
ENTITIES
0
POLYLINE
8
0
62
5
66
1
10
0
20
0
30
0
70
8
0
VERTEX
8
0
62
5
10
0
20
0
30
0
70
32
0
VERTEX
8
0
62
5
10
0
20
0.1
30
0
70
32
0
SEQEND
8
0
0
POLYLINE
8
0
62
5
66
1
10
0
20
0
30
0
70
8
0
VERTEX
8
0
62
5
10
0.16970563
20
0
30
0
70
32
0
VERTEX
8
0
62
5
10
0.16970563
20
0.1
30
0
70
32
0
SEQEND
8
0
0
POLYLINE
8
0
62
5
66
1
10
0
20
0
30
0
70
8
0
VERTEX
8
0
62
5
10
0.042426407
20
0
30
0
70
32
0
VERTEX
8
0
62
5
10
0.042426407
20
0.1
30
0
70
32
0
SEQEND
8
0
0
POLYLINE
8
0
62
5
66
1
10
0
20
0
30
0
70
8
0
VERTEX
8
0
62
5
10
0.084852814
20
0
30
0
70
32
0
VERTEX
8
0
62
5
10
0.084852814
20
0.1
30
0
70
32
0
SEQEND
8
0
0
POLYLINE
8
0
62
5
66
1
10
0
20
0
30
0
70
8
0
VERTEX
8
0
62
5
10
0.12727922
20
0
30
0
70
32
0
VERTEX
8
0
62
5
10
0.12727922
20
0.1
30
0
70
32
0
SEQEND
8
0
0
POLYLINE
8
0
62
5
66
1
10
0
20
0
30
0
70
8
0
VERTEX
8
0
62
5
10
0.33941125
20
0
30
0
70
32
0
VERTEX
8
0
62
5
10
0.33941125
20
0.1
30
0
70
32
0
SEQEND
8
0
0
POLYLINE
8
0
62
5
66
1
10
0
20
0
30
0
70
8
0
VERTEX
8
0
62
5
10
0.21213203
20
0
30
0
70
32
0
VERTEX
8
0
62
5
10
0.21213203
20
0.1
30
0
70
32
0
SEQEND
8
0
0
POLYLINE
8
0
62
5
66
1
10
0
20
0
30
0
70
8
0
VERTEX
8
0
62
5
10
0.25455844
20
0
30
0
70
32
0
VERTEX
8
0
62
5
10
0.25455844
20
0.1
30
0
70
32
0
SEQEND
8
0
0
POLYLINE
8
0
62
5
66
1
10
0
20
0
30
0
70
8
0
VERTEX
8
0
62
5
10
0.29698485
20
0
30
0
70
32
0
VERTEX
8
0
62
5
10
0.29698485
20
0.1
30
0
70
32
0
SEQEND
8
0
0
POLYLINE
8
0
62
5
66
1
10
0
20
0
30
0
70
8
0
VERTEX
8
0
62
5
10
-0.16970563
20
0
30
0
70
32
0
VERTEX
8
0
62
5
10
-0.16970563
20
0.1
30
0
70
32
0
SEQEND
8
0
0
POLYLINE
8
0
62
5
66
1
10
0
20
0
30
0
70
8
0
VERTEX
8
0
62
5
10
-0.12727922
20
0
30
0
70
32
0
VERTEX
8
0
62
5
10
-0.12727922
20
0.1
30
0
70
32
0
SEQEND
8
0
0
POLYLINE
8
0
62
5
66
1
10
0
20
0
30
0
70
8
0
VERTEX
8
0
62
5
10
-0.084852814
20
0
30
0
70
32
0
VERTEX
8
0
62
5
10
-0.084852814
20
0.1
30
0
70
32
0
SEQEND
8
0
0
POLYLINE
8
0
62
5
66
1
10
0
20
0
30
0
70
8
0
VERTEX
8
0
62
5
10
-0.042426407
20
0
30
0
70
32
0
VERTEX
8
0
62
5
10
-0.042426407
20
0.1
30
0
70
32
0
SEQEND
8
0
0
POLYLINE
8
0
62
5
66
1
10
0
20
0
30
0
70
8
0
VERTEX
8
0
62
5
10
0
20
0.1
30
0
70
32
0
VERTEX
8
0
62
5
10
0
20
0.16
30
0
70
32
0
SEQEND
8
0
0
POLYLINE
8
0
62
5
66
1
10
0
20
0
30
0
70
8
0
VERTEX
8
0
62
5
10
0.16970563
20
0.16
30
0
70
32
0
VERTEX
8
0
62
5
10
0.16970563
20
0.1
30
0
70
32
0
SEQEND
8
0
0
POLYLINE
8
0
62
5
66
1
10
0
20
0
30
0
70
8
0
VERTEX
8
0
62
5
10
0
20
0.1
30
0
70
32
0
VERTEX
8
0
62
5
10
0.16970563
20
0.1
30
0
70
32
0
SEQEND
8
0
0
POLYLINE
8
0
62
5
66
1
10
0
20
0
30
0
70
8
0
VERTEX
8
0
62
5
10
0
20
0.16
30
0
70
32
0
VERTEX
8
0
62
5
10
0.16970563
20
0.16
30
0
70
32
0
SEQEND
8
0
0
POLYLINE
8
0
62
5
66
1
10
0
20
0
30
0
70
8
0
VERTEX
8
0
62
5
10
0.042426407
20
0.1
30
0
70
32
0
VERTEX
8
0
62
5
10
0.042426407
20
0.1
30
0
70
32
0
SEQEND
8
0
0
POLYLINE
8
0
62
5
66
1
10
0
20
0
30
0
70
8
0
VERTEX
8
0
62
5
10
0.084852814
20
0.1
30
0
70
32
0
VERTEX
8
0
62
5
10
0.084852814
20
0.1
30
0
70
32
0
SEQEND
8
0
0
POLYLINE
8
0
62
5
66
1
10
0
20
0
30
0
70
8
0
VERTEX
8
0
62
5
10
0.12727922
20
0.1
30
0
70
32
0
VERTEX
8
0
62
5
10
0.12727922
20
0.1
30
0
70
32
0
SEQEND
8
0
0
POLYLINE
8
0
62
5
66
1
10
0
20
0
30
0
70
8
0
VERTEX
8
0
62
5
10
0.042426407
20
0.16
30
0
70
32
0
VERTEX
8
0
62
5
10
0.042426407
20
0.16
30
0
70
32
0
SEQEND
8
0
0
POLYLINE
8
0
62
5
66
1
10
0
20
0
30
0
70
8
0
VERTEX
8
0
62
5
10
0.084852814
20
0.16
30
0
70
32
0
VERTEX
8
0
62
5
10
0.084852814
20
0.16
30
0
70
32
0
SEQEND
8
0
0
POLYLINE
8
0
62
5
66
1
10
0
20
0
30
0
70
8
0
VERTEX
8
0
62
5
10
0.12727922
20
0.16
30
0
70
32
0
VERTEX
8
0
62
5
10
0.12727922
20
0.16
30
0
70
32
0
SEQEND
8
0
0
POLYLINE
8
0
62
30
66
1
10
0
20
0
30
0
70
8
0
VERTEX
8
0
62
30
10
0
20
0.16
30
0
70
32
0
VERTEX
8
0
62
30
10
0.042426407
20
0.1
30
0
70
32
0
SEQEND
8
0
0
POLYLINE
8
0
62
30
66
1
10
0
20
0
30
0
70
8
0
VERTEX
8
0
62
30
10
0.042426407
20
0.16
30
0
70
32
0
VERTEX
8
0
62
30
10
0
20
0.1
30
0
70
32
0
SEQEND
8
0
0
POLYLINE
8
0
62
30
66
1
10
0
20
0
30
0
70
8
0
VERTEX
8
0
62
30
10
0.084852814
20
0.16
30
0
70
32
0
VERTEX
8
0
62
30
10
0.12727922
20
0.1
30
0
70
32
0
SEQEND
8
0
0
POLYLINE
8
0
62
30
66
1
10
0
20
0
30
0
70
8
0
VERTEX
8
0
62
30
10
0.12727922
20
0.16
30
0
70
32
0
VERTEX
8
0
62
30
10
0.084852814
20
0.1
30
0
70
32
0
SEQEND
8
0
0
POLYLINE
8
0
62
30
66
1
10
0
20
0
30
0
70
8
0
VERTEX
8
0
62
30
10
0.042426407
20
0.13
30
0
70
32
0
VERTEX
8
0
62
30
10
0.084852814
20
0.13
30
0
70
32
0
SEQEND
8
0
0
POLYLINE
8
0
62
30
66
1
10
0
20
0
30
0
70
8
0
VERTEX
8
0
62
30
10
0.12727922
20
0.13
30
0
70
32
0
VERTEX
8
0
62
30
10
0.16970563
20
0.13
30
0
70
32
0
SEQEND
8
0
0
POLYLINE
8
0
62
5
66
1
10
0
20
0
30
0
70
8
0
VERTEX
8
0
62
5
10
0
20
0.13
30
0
70
32
0
VERTEX
8
0
62
5
10
0.021213203
20
0.13
30
0
70
32
0
SEQEND
8
0
0
POLYLINE
8
0
62
5
66
1
10
0
20
0
30
0
70
8
0
VERTEX
8
0
62
5
10
0.084852814
20
0.13
30
0
70
32
0
VERTEX
8
0
62
5
10
0.10606602
20
0.13
30
0
70
32
0
SEQEND
8
0
0
POLYLINE
8
0
62
5
66
1
10
0
20
0
30
0
70
8
0
VERTEX
8
0
62
5
10
0.021213203
20
0.13
30
0
70
32
0
VERTEX
8
0
62
5
10
0.042426407
20
0.13
30
0
70
32
0
SEQEND
8
0
0
POLYLINE
8
0
62
5
66
1
10
0
20
0
30
0
70
8
0
VERTEX
8
0
62
5
10
0.10606602
20
0.13
30
0
70
32
0
VERTEX
8
0
62
5
10
0.12727922
20
0.13
30
0
70
32
0
SEQEND
8
0
0
POLYLINE
8
0
62
5
66
1
10
0
20
0
30
0
70
8
0
VERTEX
8
0
62
5
10
0.042426407
20
0.1
30
0
70
32
0
VERTEX
8
0
62
5
10
0.042426407
20
0.16
30
0
70
32
0
SEQEND
8
0
0
POLYLINE
8
0
62
5
66
1
10
0
20
0
30
0
70
8
0
VERTEX
8
0
62
5
10
0.084852814
20
0.1
30
0
70
32
0
VERTEX
8
0
62
5
10
0.084852814
20
0.16
30
0
70
32
0
SEQEND
8
0
0
POLYLINE
8
0
62
5
66
1
10
0
20
0
30
0
70
8
0
VERTEX
8
0
62
5
10
0.12727922
20
0.1
30
0
70
32
0
VERTEX
8
0
62
5
10
0.12727922
20
0.16
30
0
70
32
0
SEQEND
8
0
0
POLYLINE
8
0
62
5
66
1
10
0
20
0
30
0
70
8
0
VERTEX
8
0
62
5
10
0
20
0.1
30
0
70
32
0
VERTEX
8
0
62
5
10
0
20
0.16
30
0
70
32
0
SEQEND
8
0
0
POLYLINE
8
0
62
5
66
1
10
0
20
0
30
0
70
8
0
VERTEX
8
0
62
5
10
0.33941125
20
0.16
30
0
70
32
0
VERTEX
8
0
62
5
10
0.33941125
20
0.1
30
0
70
32
0
SEQEND
8
0
0
POLYLINE
8
0
62
5
66
1
10
0
20
0
30
0
70
8
0
VERTEX
8
0
62
5
10
0.16970563
20
0.1
30
0
70
32
0
VERTEX
8
0
62
5
10
0.33941125
20
0.1
30
0
70
32
0
SEQEND
8
0
0
POLYLINE
8
0
62
5
66
1
10
0
20
0
30
0
70
8
0
VERTEX
8
0
62
5
10
0.16970563
20
0.16
30
0
70
32
0
VERTEX
8
0
62
5
10
0.33941125
20
0.16
30
0
70
32
0
SEQEND
8
0
0
POLYLINE
8
0
62
5
66
1
10
0
20
0
30
0
70
8
0
VERTEX
8
0
62
5
10
0.21213203
20
0.1
30
0
70
32
0
VERTEX
8
0
62
5
10
0.21213203
20
0.1
30
0
70
32
0
SEQEND
8
0
0
POLYLINE
8
0
62
5
66
1
10
0
20
0
30
0
70
8
0
VERTEX
8
0
62
5
10
0.25455844
20
0.1
30
0
70
32
0
VERTEX
8
0
62
5
10
0.25455844
20
0.1
30
0
70
32
0
SEQEND
8
0
0
POLYLINE
8
0
62
5
66
1
10
0
20
0
30
0
70
8
0
VERTEX
8
0
62
5
10
0.29698485
20
0.1
30
0
70
32
0
VERTEX
8
0
62
5
10
0.29698485
20
0.1
30
0
70
32
0
SEQEND
8
0
0
POLYLINE
8
0
62
5
66
1
10
0
20
0
30
0
70
8
0
VERTEX
8
0
62
5
10
0.21213203
20
0.16
30
0
70
32
0
VERTEX
8
0
62
5
10
0.21213203
20
0.16
30
0
70
32
0
SEQEND
8
0
0
POLYLINE
8
0
62
5
66
1
10
0
20
0
30
0
70
8
0
VERTEX
8
0
62
5
10
0.25455844
20
0.16
30
0
70
32
0
VERTEX
8
0
62
5
10
0.25455844
20
0.16
30
0
70
32
0
SEQEND
8
0
0
POLYLINE
8
0
62
5
66
1
10
0
20
0
30
0
70
8
0
VERTEX
8
0
62
5
10
0.29698485
20
0.16
30
0
70
32
0
VERTEX
8
0
62
5
10
0.29698485
20
0.16
30
0
70
32
0
SEQEND
8
0
0
POLYLINE
8
0
62
30
66
1
10
0
20
0
30
0
70
8
0
VERTEX
8
0
62
30
10
0.16970563
20
0.16
30
0
70
32
0
VERTEX
8
0
62
30
10
0.21213203
20
0.1
30
0
70
32
0
SEQEND
8
0
0
POLYLINE
8
0
62
30
66
1
10
0
20
0
30
0
70
8
0
VERTEX
8
0
62
30
10
0.21213203
20
0.16
30
0
70
32
0
VERTEX
8
0
62
30
10
0.16970563
20
0.1
30
0
70
32
0
SEQEND
8
0
0
POLYLINE
8
0
62
30
66
1
10
0
20
0
30
0
70
8
0
VERTEX
8
0
62
30
10
0.25455844
20
0.16
30
0
70
32
0
VERTEX
8
0
62
30
10
0.29698485
20
0.1
30
0
70
32
0
SEQEND
8
0
0
POLYLINE
8
0
62
30
66
1
10
0
20
0
30
0
70
8
0
VERTEX
8
0
62
30
10
0.29698485
20
0.16
30
0
70
32
0
VERTEX
8
0
62
30
10
0.25455844
20
0.1
30
0
70
32
0
SEQEND
8
0
0
POLYLINE
8
0
62
30
66
1
10
0
20
0
30
0
70
8
0
VERTEX
8
0
62
30
10
0.21213203
20
0.13
30
0
70
32
0
VERTEX
8
0
62
30
10
0.25455844
20
0.13
30
0
70
32
0
SEQEND
8
0
0
POLYLINE
8
0
62
30
66
1
10
0
20
0
30
0
70
8
0
VERTEX
8
0
62
30
10
0.29698485
20
0.13
30
0
70
32
0
VERTEX
8
0
62
30
10
0.33941125
20
0.13
30
0
70
32
0
SEQEND
8
0
0
POLYLINE
8
0
62
5
66
1
10
0
20
0
30
0
70
8
0
VERTEX
8
0
62
5
10
0.16970563
20
0.13
30
0
70
32
0
VERTEX
8
0
62
5
10
0.19091883
20
0.13
30
0
70
32
0
SEQEND
8
0
0
POLYLINE
8
0
62
5
66
1
10
0
20
0
30
0
70
8
0
VERTEX
8
0
62
5
10
0.25455844
20
0.13
30
0
70
32
0
VERTEX
8
0
62
5
10
0.27577164
20
0.13
30
0
70
32
0
SEQEND
8
0
0
POLYLINE
8
0
62
5
66
1
10
0
20
0
30
0
70
8
0
VERTEX
8
0
62
5
10
0.19091883
20
0.13
30
0
70
32
0
VERTEX
8
0
62
5
10
0.21213203
20
0.13
30
0
70
32
0
SEQEND
8
0
0
POLYLINE
8
0
62
5
66
1
10
0
20
0
30
0
70
8
0
VERTEX
8
0
62
5
10
0.27577164
20
0.13
30
0
70
32
0
VERTEX
8
0
62
5
10
0.29698485
20
0.13
30
0
70
32
0
SEQEND
8
0
0
POLYLINE
8
0
62
5
66
1
10
0
20
0
30
0
70
8
0
VERTEX
8
0
62
5
10
0.21213203
20
0.1
30
0
70
32
0
VERTEX
8
0
62
5
10
0.21213203
20
0.16
30
0
70
32
0
SEQEND
8
0
0
POLYLINE
8
0
62
5
66
1
10
0
20
0
30
0
70
8
0
VERTEX
8
0
62
5
10
0.25455844
20
0.1
30
0
70
32
0
VERTEX
8
0
62
5
10
0.25455844
20
0.16
30
0
70
32
0
SEQEND
8
0
0
POLYLINE
8
0
62
5
66
1
10
0
20
0
30
0
70
8
0
VERTEX
8
0
62
5
10
0.29698485
20
0.1
30
0
70
32
0
VERTEX
8
0
62
5
10
0.29698485
20
0.16
30
0
70
32
0
SEQEND
8
0
0
POLYLINE
8
0
62
5
66
1
10
0
20
0
30
0
70
8
0
VERTEX
8
0
62
5
10
0.16970563
20
0.1
30
0
70
32
0
VERTEX
8
0
62
5
10
0.16970563
20
0.16
30
0
70
32
0
SEQEND
8
0
0
POLYLINE
8
0
62
5
66
1
10
0
20
0
30
0
70
8
0
VERTEX
8
0
62
5
10
-0.16970563
20
0.1
30
0
70
32
0
VERTEX
8
0
62
5
10
-0.16970563
20
0.16
30
0
70
32
0
SEQEND
8
0
0
POLYLINE
8
0
62
5
66
1
10
0
20
0
30
0
70
8
0
VERTEX
8
0
62
5
10
-0.16970563
20
0.1
30
0
70
32
0
VERTEX
8
0
62
5
10
0
20
0.1
30
0
70
32
0
SEQEND
8
0
0
POLYLINE
8
0
62
5
66
1
10
0
20
0
30
0
70
8
0
VERTEX
8
0
62
5
10
-0.16970563
20
0.16
30
0
70
32
0
VERTEX
8
0
62
5
10
0
20
0.16
30
0
70
32
0
SEQEND
8
0
0
POLYLINE
8
0
62
5
66
1
10
0
20
0
30
0
70
8
0
VERTEX
8
0
62
5
10
-0.12727922
20
0.1
30
0
70
32
0
VERTEX
8
0
62
5
10
-0.12727922
20
0.1
30
0
70
32
0
SEQEND
8
0
0
POLYLINE
8
0
62
5
66
1
10
0
20
0
30
0
70
8
0
VERTEX
8
0
62
5
10
-0.084852814
20
0.1
30
0
70
32
0
VERTEX
8
0
62
5
10
-0.084852814
20
0.1
30
0
70
32
0
SEQEND
8
0
0
POLYLINE
8
0
62
5
66
1
10
0
20
0
30
0
70
8
0
VERTEX
8
0
62
5
10
-0.042426407
20
0.1
30
0
70
32
0
VERTEX
8
0
62
5
10
-0.042426407
20
0.1
30
0
70
32
0
SEQEND
8
0
0
POLYLINE
8
0
62
5
66
1
10
0
20
0
30
0
70
8
0
VERTEX
8
0
62
5
10
-0.12727922
20
0.16
30
0
70
32
0
VERTEX
8
0
62
5
10
-0.12727922
20
0.16
30
0
70
32
0
SEQEND
8
0
0
POLYLINE
8
0
62
5
66
1
10
0
20
0
30
0
70
8
0
VERTEX
8
0
62
5
10
-0.084852814
20
0.16
30
0
70
32
0
VERTEX
8
0
62
5
10
-0.084852814
20
0.16
30
0
70
32
0
SEQEND
8
0
0
POLYLINE
8
0
62
5
66
1
10
0
20
0
30
0
70
8
0
VERTEX
8
0
62
5
10
-0.042426407
20
0.16
30
0
70
32
0
VERTEX
8
0
62
5
10
-0.042426407
20
0.16
30
0
70
32
0
SEQEND
8
0
0
POLYLINE
8
0
62
30
66
1
10
0
20
0
30
0
70
8
0
VERTEX
8
0
62
30
10
-0.16970563
20
0.16
30
0
70
32
0
VERTEX
8
0
62
30
10
-0.12727922
20
0.1
30
0
70
32
0
SEQEND
8
0
0
POLYLINE
8
0
62
30
66
1
10
0
20
0
30
0
70
8
0
VERTEX
8
0
62
30
10
-0.12727922
20
0.16
30
0
70
32
0
VERTEX
8
0
62
30
10
-0.16970563
20
0.1
30
0
70
32
0
SEQEND
8
0
0
POLYLINE
8
0
62
30
66
1
10
0
20
0
30
0
70
8
0
VERTEX
8
0
62
30
10
-0.084852814
20
0.16
30
0
70
32
0
VERTEX
8
0
62
30
10
-0.042426407
20
0.1
30
0
70
32
0
SEQEND
8
0
0
POLYLINE
8
0
62
30
66
1
10
0
20
0
30
0
70
8
0
VERTEX
8
0
62
30
10
-0.042426407
20
0.16
30
0
70
32
0
VERTEX
8
0
62
30
10
-0.084852814
20
0.1
30
0
70
32
0
SEQEND
8
0
0
POLYLINE
8
0
62
30
66
1
10
0
20
0
30
0
70
8
0
VERTEX
8
0
62
30
10
-0.12727922
20
0.13
30
0
70
32
0
VERTEX
8
0
62
30
10
-0.084852814
20
0.13
30
0
70
32
0
SEQEND
8
0
0
POLYLINE
8
0
62
30
66
1
10
0
20
0
30
0
70
8
0
VERTEX
8
0
62
30
10
-0.042426407
20
0.13
30
0
70
32
0
VERTEX
8
0
62
30
10
0
20
0.13
30
0
70
32
0
SEQEND
8
0
0
POLYLINE
8
0
62
5
66
1
10
0
20
0
30
0
70
8
0
VERTEX
8
0
62
5
10
-0.16970563
20
0.13
30
0
70
32
0
VERTEX
8
0
62
5
10
-0.14849242
20
0.13
30
0
70
32
0
SEQEND
8
0
0
POLYLINE
8
0
62
5
66
1
10
0
20
0
30
0
70
8
0
VERTEX
8
0
62
5
10
-0.084852814
20
0.13
30
0
70
32
0
VERTEX
8
0
62
5
10
-0.06363961
20
0.13
30
0
70
32
0
SEQEND
8
0
0
POLYLINE
8
0
62
5
66
1
10
0
20
0
30
0
70
8
0
VERTEX
8
0
62
5
10
-0.14849242
20
0.13
30
0
70
32
0
VERTEX
8
0
62
5
10
-0.12727922
20
0.13
30
0
70
32
0
SEQEND
8
0
0
POLYLINE
8
0
62
5
66
1
10
0
20
0
30
0
70
8
0
VERTEX
8
0
62
5
10
-0.06363961
20
0.13
30
0
70
32
0
VERTEX
8
0
62
5
10
-0.042426407
20
0.13
30
0
70
32
0
SEQEND
8
0
0
POLYLINE
8
0
62
5
66
1
10
0
20
0
30
0
70
8
0
VERTEX
8
0
62
5
10
-0.12727922
20
0.1
30
0
70
32
0
VERTEX
8
0
62
5
10
-0.12727922
20
0.16
30
0
70
32
0
SEQEND
8
0
0
POLYLINE
8
0
62
5
66
1
10
0
20
0
30
0
70
8
0
VERTEX
8
0
62
5
10
-0.084852814
20
0.1
30
0
70
32
0
VERTEX
8
0
62
5
10
-0.084852814
20
0.16
30
0
70
32
0
SEQEND
8
0
0
POLYLINE
8
0
62
5
66
1
10
0
20
0
30
0
70
8
0
VERTEX
8
0
62
5
10
-0.042426407
20
0.1
30
0
70
32
0
VERTEX
8
0
62
5
10
-0.042426407
20
0.16
30
0
70
32
0
SEQEND
8
0
0
POLYLINE
8
0
62
5
66
1
10
0
20
0
30
0
70
8
0
VERTEX
8
0
62
5
10
-0.16970563
20
0.1
30
0
70
32
0
VERTEX
8
0
62
5
10
-0.16970563
20
0.16
30
0
70
32
0
SEQEND
8
0
0
POLYLINE
8
0
62
5
66
1
10
0
20
0
30
0
70
8
0
VERTEX
8
0
62
5
10
0
20
0.16
30
0
70
32
0
VERTEX
8
0
62
5
10
0
20
0.27210985
30
0
70
32
0
SEQEND
8
0
0
POLYLINE
8
0
62
5
66
1
10
0
20
0
30
0
70
8
0
VERTEX
8
0
62
5
10
0.16970563
20
0.27210985
30
0
70
32
0
VERTEX
8
0
62
5
10
0.16970563
20
0.16
30
0
70
32
0
SEQEND
8
0
0
POLYLINE
8
0
62
5
66
1
10
0
20
0
30
0
70
8
0
VERTEX
8
0
62
5
10
0
20
0.16000323
30
0
70
32
0
VERTEX
8
0
62
5
10
0.042426407
20
0.17431637
30
0
70
32
0
VERTEX
8
0
62
5
10
0.084852814
20
0.18802746
30
0
70
32
0
VERTEX
8
0
62
5
10
0.12727922
20
0.17371433
30
0
70
32
0
VERTEX
8
0
62
5
10
0.16970563
20
0.16000323
30
0
70
32
0
SEQEND
8
0
0
POLYLINE
8
0
62
5
66
1
10
0
20
0
30
0
70
8
0
VERTEX
8
0
62
5
10
0
20
0.21605816
30
0
70
32
0
VERTEX
8
0
62
5
10
0.042426407
20
0.23037129
30
0
70
32
0
VERTEX
8
0
62
5
10
0.084852814
20
0.24408239
30
0
70
32
0
VERTEX
8
0
62
5
10
0.12727922
20
0.22976926
30
0
70
32
0
VERTEX
8
0
62
5
10
0.16970563
20
0.21605816
30
0
70
32
0
SEQEND
8
0
0
POLYLINE
8
0
62
5
66
1
10
0
20
0
30
0
70
8
0
VERTEX
8
0
62
5
10
0
20
0.21605169
30
0
70
32
0
VERTEX
8
0
62
5
10
0.042426407
20
0.20173856
30
0
70
32
0
VERTEX
8
0
62
5
10
0.084852814
20
0.18802746
30
0
70
32
0
VERTEX
8
0
62
5
10
0.12727922
20
0.2023406
30
0
70
32
0
VERTEX
8
0
62
5
10
0.16970563
20
0.21605169
30
0
70
32
0
SEQEND
8
0
0
POLYLINE
8
0
62
5
66
1
10
0
20
0
30
0
70
8
0
VERTEX
8
0
62
5
10
0
20
0.27210662
30
0
70
32
0
VERTEX
8
0
62
5
10
0.042426407
20
0.25779348
30
0
70
32
0
VERTEX
8
0
62
5
10
0.084852814
20
0.24408239
30
0
70
32
0
VERTEX
8
0
62
5
10
0.12727922
20
0.25839552
30
0
70
32
0
VERTEX
8
0
62
5
10
0.16970563
20
0.27210662
30
0
70
32
0
SEQEND
8
0
0
POLYLINE
8
0
62
30
66
1
10
0
20
0
30
0
70
8
0
VERTEX
8
0
62
30
10
0
20
0.24408239
30
0
70
32
0
VERTEX
8
0
62
30
10
0.16970563
20
0.24408239
30
0
70
32
0
SEQEND
8
0
0
POLYLINE
8
0
62
30
66
1
10
0
20
0
30
0
70
8
0
VERTEX
8
0
62
30
10
0.042426407
20
0.17431637
30
0
70
32
0
VERTEX
8
0
62
30
10
0.042426407
20
0.18802746
30
0
70
32
0
SEQEND
8
0
0
POLYLINE
8
0
62
30
66
1
10
0
20
0
30
0
70
8
0
VERTEX
8
0
62
30
10
0.084852814
20
0.18802746
30
0
70
32
0
VERTEX
8
0
62
30
10
0.084852814
20
0.18802746
30
0
70
32
0
SEQEND
8
0
0
POLYLINE
8
0
62
30
66
1
10
0
20
0
30
0
70
8
0
VERTEX
8
0
62
30
10
0.12727922
20
0.17371433
30
0
70
32
0
VERTEX
8
0
62
30
10
0.12727922
20
0.18802746
30
0
70
32
0
SEQEND
8
0
0
POLYLINE
8
0
62
30
66
1
10
0
20
0
30
0
70
8
0
VERTEX
8
0
62
30
10
0.042426407
20
0.23037129
30
0
70
32
0
VERTEX
8
0
62
30
10
0.042426407
20
0.24408239
30
0
70
32
0
SEQEND
8
0
0
POLYLINE
8
0
62
30
66
1
10
0
20
0
30
0
70
8
0
VERTEX
8
0
62
30
10
0.042426407
20
0.24408239
30
0
70
32
0
VERTEX
8
0
62
30
10
0.084852814
20
0.24408239
30
0
70
32
0
SEQEND
8
0
0
POLYLINE
8
0
62
30
66
1
10
0
20
0
30
0
70
8
0
VERTEX
8
0
62
30
10
0.084852814
20
0.24408239
30
0
70
32
0
VERTEX
8
0
62
30
10
0.084852814
20
0.24408239
30
0
70
32
0
SEQEND
8
0
0
POLYLINE
8
0
62
30
66
1
10
0
20
0
30
0
70
8
0
VERTEX
8
0
62
30
10
0.084852814
20
0.24408239
30
0
70
32
0
VERTEX
8
0
62
30
10
0.12727922
20
0.22976926
30
0
70
32
0
SEQEND
8
0
0
POLYLINE
8
0
62
30
66
1
10
0
20
0
30
0
70
8
0
VERTEX
8
0
62
30
10
0.12727922
20
0.22976926
30
0
70
32
0
VERTEX
8
0
62
30
10
0.12727922
20
0.24408239
30
0
70
32
0
SEQEND
8
0
0
POLYLINE
8
0
62
5
66
1
10
0
20
0
30
0
70
8
0
VERTEX
8
0
62
5
10
0.042426407
20
0.16
30
0
70
32
0
VERTEX
8
0
62
5
10
0.042426407
20
0.17431637
30
0
70
32
0
SEQEND
8
0
0
POLYLINE
8
0
62
5
66
1
10
0
20
0
30
0
70
8
0
VERTEX
8
0
62
5
10
0.084852814
20
0.16
30
0
70
32
0
VERTEX
8
0
62
5
10
0.084852814
20
0.18802746
30
0
70
32
0
SEQEND
8
0
0
POLYLINE
8
0
62
5
66
1
10
0
20
0
30
0
70
8
0
VERTEX
8
0
62
5
10
0.12727922
20
0.16
30
0
70
32
0
VERTEX
8
0
62
5
10
0.12727922
20
0.17371433
30
0
70
32
0
SEQEND
8
0
0
POLYLINE
8
0
62
5
66
1
10
0
20
0
30
0
70
8
0
VERTEX
8
0
62
5
10
0.042426407
20
0.21605493
30
0
70
32
0
VERTEX
8
0
62
5
10
0.042426407
20
0.23037129
30
0
70
32
0
SEQEND
8
0
0
POLYLINE
8
0
62
5
66
1
10
0
20
0
30
0
70
8
0
VERTEX
8
0
62
5
10
0.084852814
20
0.21605493
30
0
70
32
0
VERTEX
8
0
62
5
10
0.084852814
20
0.24408239
30
0
70
32
0
SEQEND
8
0
0
POLYLINE
8
0
62
5
66
1
10
0
20
0
30
0
70
8
0
VERTEX
8
0
62
5
10
0.12727922
20
0.21605493
30
0
70
32
0
VERTEX
8
0
62
5
10
0.12727922
20
0.22976926
30
0
70
32
0
SEQEND
8
0
0
POLYLINE
8
0
62
5
66
1
10
0
20
0
30
0
70
8
0
VERTEX
8
0
62
5
10
0.042426407
20
0.18802746
30
0
70
32
0
VERTEX
8
0
62
5
10
0.042426407
20
0.21605493
30
0
70
32
0
SEQEND
8
0
0
POLYLINE
8
0
62
5
66
1
10
0
20
0
30
0
70
8
0
VERTEX
8
0
62
5
10
0.084852814
20
0.18802746
30
0
70
32
0
VERTEX
8
0
62
5
10
0.084852814
20
0.21605493
30
0
70
32
0
SEQEND
8
0
0
POLYLINE
8
0
62
5
66
1
10
0
20
0
30
0
70
8
0
VERTEX
8
0
62
5
10
0.12727922
20
0.18802746
30
0
70
32
0
VERTEX
8
0
62
5
10
0.12727922
20
0.21605493
30
0
70
32
0
SEQEND
8
0
0
POLYLINE
8
0
62
5
66
1
10
0
20
0
30
0
70
8
0
VERTEX
8
0
62
5
10
0.042426407
20
0.24408239
30
0
70
32
0
VERTEX
8
0
62
5
10
0.042426407
20
0.27210985
30
0
70
32
0
SEQEND
8
0
0
POLYLINE
8
0
62
5
66
1
10
0
20
0
30
0
70
8
0
VERTEX
8
0
62
5
10
0.084852814
20
0.24408239
30
0
70
32
0
VERTEX
8
0
62
5
10
0.084852814
20
0.27210985
30
0
70
32
0
SEQEND
8
0
0
POLYLINE
8
0
62
5
66
1
10
0
20
0
30
0
70
8
0
VERTEX
8
0
62
5
10
0.12727922
20
0.24408239
30
0
70
32
0
VERTEX
8
0
62
5
10
0.12727922
20
0.27210985
30
0
70
32
0
SEQEND
8
0
0
POLYLINE
8
0
62
5
66
1
10
0
20
0
30
0
70
8
0
VERTEX
8
0
62
5
10
0.33941125
20
0.27210985
30
0
70
32
0
VERTEX
8
0
62
5
10
0.33941125
20
0.16
30
0
70
32
0
SEQEND
8
0
0
POLYLINE
8
0
62
5
66
1
10
0
20
0
30
0
70
8
0
VERTEX
8
0
62
5
10
0.16970563
20
0.16000323
30
0
70
32
0
VERTEX
8
0
62
5
10
0.21213203
20
0.17431637
30
0
70
32
0
VERTEX
8
0
62
5
10
0.25455844
20
0.18802746
30
0
70
32
0
VERTEX
8
0
62
5
10
0.29698485
20
0.17371433
30
0
70
32
0
VERTEX
8
0
62
5
10
0.33941125
20
0.16000323
30
0
70
32
0
SEQEND
8
0
0
POLYLINE
8
0
62
5
66
1
10
0
20
0
30
0
70
8
0
VERTEX
8
0
62
5
10
0.16970563
20
0.21605816
30
0
70
32
0
VERTEX
8
0
62
5
10
0.21213203
20
0.23037129
30
0
70
32
0
VERTEX
8
0
62
5
10
0.25455844
20
0.24408239
30
0
70
32
0
VERTEX
8
0
62
5
10
0.29698485
20
0.22976926
30
0
70
32
0
VERTEX
8
0
62
5
10
0.33941125
20
0.21605816
30
0
70
32
0
SEQEND
8
0
0
POLYLINE
8
0
62
5
66
1
10
0
20
0
30
0
70
8
0
VERTEX
8
0
62
5
10
0.16970563
20
0.21605169
30
0
70
32
0
VERTEX
8
0
62
5
10
0.21213203
20
0.20173856
30
0
70
32
0
VERTEX
8
0
62
5
10
0.25455844
20
0.18802746
30
0
70
32
0
VERTEX
8
0
62
5
10
0.29698485
20
0.2023406
30
0
70
32
0
VERTEX
8
0
62
5
10
0.33941125
20
0.21605169
30
0
70
32
0
SEQEND
8
0
0
POLYLINE
8
0
62
5
66
1
10
0
20
0
30
0
70
8
0
VERTEX
8
0
62
5
10
0.16970563
20
0.27210662
30
0
70
32
0
VERTEX
8
0
62
5
10
0.21213203
20
0.25779348
30
0
70
32
0
VERTEX
8
0
62
5
10
0.25455844
20
0.24408239
30
0
70
32
0
VERTEX
8
0
62
5
10
0.29698485
20
0.25839552
30
0
70
32
0
VERTEX
8
0
62
5
10
0.33941125
20
0.27210662
30
0
70
32
0
SEQEND
8
0
0
POLYLINE
8
0
62
30
66
1
10
0
20
0
30
0
70
8
0
VERTEX
8
0
62
30
10
0.16970563
20
0.24408239
30
0
70
32
0
VERTEX
8
0
62
30
10
0.33941125
20
0.24408239
30
0
70
32
0
SEQEND
8
0
0
POLYLINE
8
0
62
30
66
1
10
0
20
0
30
0
70
8
0
VERTEX
8
0
62
30
10
0.21213203
20
0.17431637
30
0
70
32
0
VERTEX
8
0
62
30
10
0.21213203
20
0.18802746
30
0
70
32
0
SEQEND
8
0
0
POLYLINE
8
0
62
30
66
1
10
0
20
0
30
0
70
8
0
VERTEX
8
0
62
30
10
0.25455844
20
0.18802746
30
0
70
32
0
VERTEX
8
0
62
30
10
0.25455844
20
0.18802746
30
0
70
32
0
SEQEND
8
0
0
POLYLINE
8
0
62
30
66
1
10
0
20
0
30
0
70
8
0
VERTEX
8
0
62
30
10
0.29698485
20
0.17371433
30
0
70
32
0
VERTEX
8
0
62
30
10
0.29698485
20
0.18802746
30
0
70
32
0
SEQEND
8
0
0
POLYLINE
8
0
62
30
66
1
10
0
20
0
30
0
70
8
0
VERTEX
8
0
62
30
10
0.21213203
20
0.23037129
30
0
70
32
0
VERTEX
8
0
62
30
10
0.21213203
20
0.24408239
30
0
70
32
0
SEQEND
8
0
0
POLYLINE
8
0
62
30
66
1
10
0
20
0
30
0
70
8
0
VERTEX
8
0
62
30
10
0.21213203
20
0.24408239
30
0
70
32
0
VERTEX
8
0
62
30
10
0.25455844
20
0.24408239
30
0
70
32
0
SEQEND
8
0
0
POLYLINE
8
0
62
30
66
1
10
0
20
0
30
0
70
8
0
VERTEX
8
0
62
30
10
0.25455844
20
0.24408239
30
0
70
32
0
VERTEX
8
0
62
30
10
0.25455844
20
0.24408239
30
0
70
32
0
SEQEND
8
0
0
POLYLINE
8
0
62
30
66
1
10
0
20
0
30
0
70
8
0
VERTEX
8
0
62
30
10
0.25455844
20
0.24408239
30
0
70
32
0
VERTEX
8
0
62
30
10
0.29698485
20
0.22976926
30
0
70
32
0
SEQEND
8
0
0
POLYLINE
8
0
62
30
66
1
10
0
20
0
30
0
70
8
0
VERTEX
8
0
62
30
10
0.29698485
20
0.22976926
30
0
70
32
0
VERTEX
8
0
62
30
10
0.29698485
20
0.24408239
30
0
70
32
0
SEQEND
8
0
0
POLYLINE
8
0
62
5
66
1
10
0
20
0
30
0
70
8
0
VERTEX
8
0
62
5
10
0.21213203
20
0.16
30
0
70
32
0
VERTEX
8
0
62
5
10
0.21213203
20
0.17431637
30
0
70
32
0
SEQEND
8
0
0
POLYLINE
8
0
62
5
66
1
10
0
20
0
30
0
70
8
0
VERTEX
8
0
62
5
10
0.25455844
20
0.16
30
0
70
32
0
VERTEX
8
0
62
5
10
0.25455844
20
0.18802746
30
0
70
32
0
SEQEND
8
0
0
POLYLINE
8
0
62
5
66
1
10
0
20
0
30
0
70
8
0
VERTEX
8
0
62
5
10
0.29698485
20
0.16
30
0
70
32
0
VERTEX
8
0
62
5
10
0.29698485
20
0.17371433
30
0
70
32
0
SEQEND
8
0
0
POLYLINE
8
0
62
5
66
1
10
0
20
0
30
0
70
8
0
VERTEX
8
0
62
5
10
0.21213203
20
0.21605493
30
0
70
32
0
VERTEX
8
0
62
5
10
0.21213203
20
0.23037129
30
0
70
32
0
SEQEND
8
0
0
POLYLINE
8
0
62
5
66
1
10
0
20
0
30
0
70
8
0
VERTEX
8
0
62
5
10
0.25455844
20
0.21605493
30
0
70
32
0
VERTEX
8
0
62
5
10
0.25455844
20
0.24408239
30
0
70
32
0
SEQEND
8
0
0
POLYLINE
8
0
62
5
66
1
10
0
20
0
30
0
70
8
0
VERTEX
8
0
62
5
10
0.29698485
20
0.21605493
30
0
70
32
0
VERTEX
8
0
62
5
10
0.29698485
20
0.22976926
30
0
70
32
0
SEQEND
8
0
0
POLYLINE
8
0
62
5
66
1
10
0
20
0
30
0
70
8
0
VERTEX
8
0
62
5
10
0.21213203
20
0.18802746
30
0
70
32
0
VERTEX
8
0
62
5
10
0.21213203
20
0.21605493
30
0
70
32
0
SEQEND
8
0
0
POLYLINE
8
0
62
5
66
1
10
0
20
0
30
0
70
8
0
VERTEX
8
0
62
5
10
0.25455844
20
0.18802746
30
0
70
32
0
VERTEX
8
0
62
5
10
0.25455844
20
0.21605493
30
0
70
32
0
SEQEND
8
0
0
POLYLINE
8
0
62
5
66
1
10
0
20
0
30
0
70
8
0
VERTEX
8
0
62
5
10
0.29698485
20
0.18802746
30
0
70
32
0
VERTEX
8
0
62
5
10
0.29698485
20
0.21605493
30
0
70
32
0
SEQEND
8
0
0
POLYLINE
8
0
62
5
66
1
10
0
20
0
30
0
70
8
0
VERTEX
8
0
62
5
10
0.21213203
20
0.24408239
30
0
70
32
0
VERTEX
8
0
62
5
10
0.21213203
20
0.27210985
30
0
70
32
0
SEQEND
8
0
0
POLYLINE
8
0
62
5
66
1
10
0
20
0
30
0
70
8
0
VERTEX
8
0
62
5
10
0.25455844
20
0.24408239
30
0
70
32
0
VERTEX
8
0
62
5
10
0.25455844
20
0.27210985
30
0
70
32
0
SEQEND
8
0
0
POLYLINE
8
0
62
5
66
1
10
0
20
0
30
0
70
8
0
VERTEX
8
0
62
5
10
0.29698485
20
0.24408239
30
0
70
32
0
VERTEX
8
0
62
5
10
0.29698485
20
0.27210985
30
0
70
32
0
SEQEND
8
0
0
POLYLINE
8
0
62
5
66
1
10
0
20
0
30
0
70
8
0
VERTEX
8
0
62
5
10
-0.16970563
20
0.16
30
0
70
32
0
VERTEX
8
0
62
5
10
-0.16970563
20
0.27210985
30
0
70
32
0
SEQEND
8
0
0
POLYLINE
8
0
62
5
66
1
10
0
20
0
30
0
70
8
0
VERTEX
8
0
62
5
10
-0.16970563
20
0.16000323
30
0
70
32
0
VERTEX
8
0
62
5
10
-0.12727922
20
0.17431637
30
0
70
32
0
VERTEX
8
0
62
5
10
-0.084852814
20
0.18802746
30
0
70
32
0
VERTEX
8
0
62
5
10
-0.042426407
20
0.17371433
30
0
70
32
0
VERTEX
8
0
62
5
10
0
20
0.16000323
30
0
70
32
0
SEQEND
8
0
0
POLYLINE
8
0
62
5
66
1
10
0
20
0
30
0
70
8
0
VERTEX
8
0
62
5
10
-0.16970563
20
0.21605816
30
0
70
32
0
VERTEX
8
0
62
5
10
-0.12727922
20
0.23037129
30
0
70
32
0
VERTEX
8
0
62
5
10
-0.084852814
20
0.24408239
30
0
70
32
0
VERTEX
8
0
62
5
10
-0.042426407
20
0.22976926
30
0
70
32
0
VERTEX
8
0
62
5
10
0
20
0.21605816
30
0
70
32
0
SEQEND
8
0
0
POLYLINE
8
0
62
5
66
1
10
0
20
0
30
0
70
8
0
VERTEX
8
0
62
5
10
-0.16970563
20
0.21605169
30
0
70
32
0
VERTEX
8
0
62
5
10
-0.12727922
20
0.20173856
30
0
70
32
0
VERTEX
8
0
62
5
10
-0.084852814
20
0.18802746
30
0
70
32
0
VERTEX
8
0
62
5
10
-0.042426407
20
0.2023406
30
0
70
32
0
VERTEX
8
0
62
5
10
0
20
0.21605169
30
0
70
32
0
SEQEND
8
0
0
POLYLINE
8
0
62
5
66
1
10
0
20
0
30
0
70
8
0
VERTEX
8
0
62
5
10
-0.16970563
20
0.27210662
30
0
70
32
0
VERTEX
8
0
62
5
10
-0.12727922
20
0.25779348
30
0
70
32
0
VERTEX
8
0
62
5
10
-0.084852814
20
0.24408239
30
0
70
32
0
VERTEX
8
0
62
5
10
-0.042426407
20
0.25839552
30
0
70
32
0
VERTEX
8
0
62
5
10
0
20
0.27210662
30
0
70
32
0
SEQEND
8
0
0
POLYLINE
8
0
62
30
66
1
10
0
20
0
30
0
70
8
0
VERTEX
8
0
62
30
10
-0.16970563
20
0.24408239
30
0
70
32
0
VERTEX
8
0
62
30
10
0
20
0.24408239
30
0
70
32
0
SEQEND
8
0
0
POLYLINE
8
0
62
30
66
1
10
0
20
0
30
0
70
8
0
VERTEX
8
0
62
30
10
-0.12727922
20
0.17431637
30
0
70
32
0
VERTEX
8
0
62
30
10
-0.12727922
20
0.18802746
30
0
70
32
0
SEQEND
8
0
0
POLYLINE
8
0
62
30
66
1
10
0
20
0
30
0
70
8
0
VERTEX
8
0
62
30
10
-0.084852814
20
0.18802746
30
0
70
32
0
VERTEX
8
0
62
30
10
-0.084852814
20
0.18802746
30
0
70
32
0
SEQEND
8
0
0
POLYLINE
8
0
62
30
66
1
10
0
20
0
30
0
70
8
0
VERTEX
8
0
62
30
10
-0.042426407
20
0.17371433
30
0
70
32
0
VERTEX
8
0
62
30
10
-0.042426407
20
0.18802746
30
0
70
32
0
SEQEND
8
0
0
POLYLINE
8
0
62
30
66
1
10
0
20
0
30
0
70
8
0
VERTEX
8
0
62
30
10
-0.12727922
20
0.23037129
30
0
70
32
0
VERTEX
8
0
62
30
10
-0.12727922
20
0.24408239
30
0
70
32
0
SEQEND
8
0
0
POLYLINE
8
0
62
30
66
1
10
0
20
0
30
0
70
8
0
VERTEX
8
0
62
30
10
-0.12727922
20
0.24408239
30
0
70
32
0
VERTEX
8
0
62
30
10
-0.084852814
20
0.24408239
30
0
70
32
0
SEQEND
8
0
0
POLYLINE
8
0
62
30
66
1
10
0
20
0
30
0
70
8
0
VERTEX
8
0
62
30
10
-0.084852814
20
0.24408239
30
0
70
32
0
VERTEX
8
0
62
30
10
-0.084852814
20
0.24408239
30
0
70
32
0
SEQEND
8
0
0
POLYLINE
8
0
62
30
66
1
10
0
20
0
30
0
70
8
0
VERTEX
8
0
62
30
10
-0.084852814
20
0.24408239
30
0
70
32
0
VERTEX
8
0
62
30
10
-0.042426407
20
0.22976926
30
0
70
32
0
SEQEND
8
0
0
POLYLINE
8
0
62
30
66
1
10
0
20
0
30
0
70
8
0
VERTEX
8
0
62
30
10
-0.042426407
20
0.22976926
30
0
70
32
0
VERTEX
8
0
62
30
10
-0.042426407
20
0.24408239
30
0
70
32
0
SEQEND
8
0
0
POLYLINE
8
0
62
5
66
1
10
0
20
0
30
0
70
8
0
VERTEX
8
0
62
5
10
-0.12727922
20
0.16
30
0
70
32
0
VERTEX
8
0
62
5
10
-0.12727922
20
0.17431637
30
0
70
32
0
SEQEND
8
0
0
POLYLINE
8
0
62
5
66
1
10
0
20
0
30
0
70
8
0
VERTEX
8
0
62
5
10
-0.084852814
20
0.16
30
0
70
32
0
VERTEX
8
0
62
5
10
-0.084852814
20
0.18802746
30
0
70
32
0
SEQEND
8
0
0
POLYLINE
8
0
62
5
66
1
10
0
20
0
30
0
70
8
0
VERTEX
8
0
62
5
10
-0.042426407
20
0.16
30
0
70
32
0
VERTEX
8
0
62
5
10
-0.042426407
20
0.17371433
30
0
70
32
0
SEQEND
8
0
0
POLYLINE
8
0
62
5
66
1
10
0
20
0
30
0
70
8
0
VERTEX
8
0
62
5
10
-0.12727922
20
0.21605493
30
0
70
32
0
VERTEX
8
0
62
5
10
-0.12727922
20
0.23037129
30
0
70
32
0
SEQEND
8
0
0
POLYLINE
8
0
62
5
66
1
10
0
20
0
30
0
70
8
0
VERTEX
8
0
62
5
10
-0.084852814
20
0.21605493
30
0
70
32
0
VERTEX
8
0
62
5
10
-0.084852814
20
0.24408239
30
0
70
32
0
SEQEND
8
0
0
POLYLINE
8
0
62
5
66
1
10
0
20
0
30
0
70
8
0
VERTEX
8
0
62
5
10
-0.042426407
20
0.21605493
30
0
70
32
0
VERTEX
8
0
62
5
10
-0.042426407
20
0.22976926
30
0
70
32
0
SEQEND
8
0
0
POLYLINE
8
0
62
5
66
1
10
0
20
0
30
0
70
8
0
VERTEX
8
0
62
5
10
-0.12727922
20
0.18802746
30
0
70
32
0
VERTEX
8
0
62
5
10
-0.12727922
20
0.21605493
30
0
70
32
0
SEQEND
8
0
0
POLYLINE
8
0
62
5
66
1
10
0
20
0
30
0
70
8
0
VERTEX
8
0
62
5
10
-0.084852814
20
0.18802746
30
0
70
32
0
VERTEX
8
0
62
5
10
-0.084852814
20
0.21605493
30
0
70
32
0
SEQEND
8
0
0
POLYLINE
8
0
62
5
66
1
10
0
20
0
30
0
70
8
0
VERTEX
8
0
62
5
10
-0.042426407
20
0.18802746
30
0
70
32
0
VERTEX
8
0
62
5
10
-0.042426407
20
0.21605493
30
0
70
32
0
SEQEND
8
0
0
POLYLINE
8
0
62
5
66
1
10
0
20
0
30
0
70
8
0
VERTEX
8
0
62
5
10
-0.12727922
20
0.24408239
30
0
70
32
0
VERTEX
8
0
62
5
10
-0.12727922
20
0.27210985
30
0
70
32
0
SEQEND
8
0
0
POLYLINE
8
0
62
5
66
1
10
0
20
0
30
0
70
8
0
VERTEX
8
0
62
5
10
-0.084852814
20
0.24408239
30
0
70
32
0
VERTEX
8
0
62
5
10
-0.084852814
20
0.27210985
30
0
70
32
0
SEQEND
8
0
0
POLYLINE
8
0
62
5
66
1
10
0
20
0
30
0
70
8
0
VERTEX
8
0
62
5
10
-0.042426407
20
0.24408239
30
0
70
32
0
VERTEX
8
0
62
5
10
-0.042426407
20
0.27210985
30
0
70
32
0
SEQEND
8
0
0
POLYLINE
8
0
62
30
66
1
10
0
20
0
30
0
70
8
0
VERTEX
8
0
62
30
10
0
20
0.3276825
30
0
70
32
0
VERTEX
8
0
62
30
10
0.16970563
20
0.3276825
30
0
70
32
0
SEQEND
8
0
0
POLYLINE
8
0
62
30
66
1
10
0
20
0
30
0
70
8
0
VERTEX
8
0
62
30
10
0
20
0.27210985
30
0
70
32
0
VERTEX
8
0
62
30
10
0.16970563
20
0.27210985
30
0
70
32
0
SEQEND
8
0
0
POLYLINE
8
0
62
5
66
1
10
0
20
0
30
0
70
8
0
VERTEX
8
0
62
5
10
0
20
0.27210985
30
0
70
32
0
VERTEX
8
0
62
5
10
0.018296938
20
0.3276825
30
0
70
32
0
VERTEX
8
0
62
5
10
0.042426407
20
0.27210985
30
0
70
32
0
VERTEX
8
0
62
5
10
0.060723345
20
0.3276825
30
0
70
32
0
VERTEX
8
0
62
5
10
0.084852814
20
0.27210985
30
0
70
32
0
VERTEX
8
0
62
5
10
0.10314975
20
0.3276825
30
0
70
32
0
VERTEX
8
0
62
5
10
0.12727922
20
0.27210985
30
0
70
32
0
VERTEX
8
0
62
5
10
0.14557616
20
0.3276825
30
0
70
32
0
VERTEX
8
0
62
5
10
0.16970563
20
0.27210985
30
0
70
32
0
SEQEND
8
0
0
POLYLINE
8
0
62
5
66
1
10
0
20
0
30
0
70
8
0
VERTEX
8
0
62
5
10
0.042426407
20
0.27210985
30
0
70
32
0
VERTEX
8
0
62
5
10
0.042426407
20
0.27210985
30
0
70
32
0
SEQEND
8
0
0
POLYLINE
8
0
62
5
66
1
10
0
20
0
30
0
70
8
0
VERTEX
8
0
62
5
10
0.084852814
20
0.27210985
30
0
70
32
0
VERTEX
8
0
62
5
10
0.084852814
20
0.27210985
30
0
70
32
0
SEQEND
8
0
0
POLYLINE
8
0
62
5
66
1
10
0
20
0
30
0
70
8
0
VERTEX
8
0
62
5
10
0.12727922
20
0.27210985
30
0
70
32
0
VERTEX
8
0
62
5
10
0.12727922
20
0.27210985
30
0
70
32
0
SEQEND
8
0
0
POLYLINE
8
0
62
5
66
1
10
0
20
0
30
0
70
8
0
VERTEX
8
0
62
5
10
0.018296938
20
0.3276825
30
0
70
32
0
VERTEX
8
0
62
5
10
0.018296938
20
0.3276825
30
0
70
32
0
SEQEND
8
0
0
POLYLINE
8
0
62
5
66
1
10
0
20
0
30
0
70
8
0
VERTEX
8
0
62
5
10
0.060723345
20
0.3276825
30
0
70
32
0
VERTEX
8
0
62
5
10
0.060723345
20
0.3276825
30
0
70
32
0
SEQEND
8
0
0
POLYLINE
8
0
62
5
66
1
10
0
20
0
30
0
70
8
0
VERTEX
8
0
62
5
10
0.10314975
20
0.3276825
30
0
70
32
0
VERTEX
8
0
62
5
10
0.10314975
20
0.3276825
30
0
70
32
0
SEQEND
8
0
0
POLYLINE
8
0
62
5
66
1
10
0
20
0
30
0
70
8
0
VERTEX
8
0
62
5
10
0.14557616
20
0.3276825
30
0
70
32
0
VERTEX
8
0
62
5
10
0.14557616
20
0.3276825
30
0
70
32
0
SEQEND
8
0
0
POLYLINE
8
0
62
30
66
1
10
0
20
0
30
0
70
8
0
VERTEX
8
0
62
30
10
0.16970563
20
0.3276825
30
0
70
32
0
VERTEX
8
0
62
30
10
0.33941125
20
0.3276825
30
0
70
32
0
SEQEND
8
0
0
POLYLINE
8
0
62
30
66
1
10
0
20
0
30
0
70
8
0
VERTEX
8
0
62
30
10
0.16970563
20
0.27210985
30
0
70
32
0
VERTEX
8
0
62
30
10
0.33941125
20
0.27210985
30
0
70
32
0
SEQEND
8
0
0
POLYLINE
8
0
62
5
66
1
10
0
20
0
30
0
70
8
0
VERTEX
8
0
62
5
10
0.16970563
20
0.27210985
30
0
70
32
0
VERTEX
8
0
62
5
10
0.18800257
20
0.3276825
30
0
70
32
0
VERTEX
8
0
62
5
10
0.21213203
20
0.27210985
30
0
70
32
0
VERTEX
8
0
62
5
10
0.23042897
20
0.3276825
30
0
70
32
0
VERTEX
8
0
62
5
10
0.25455844
20
0.27210985
30
0
70
32
0
VERTEX
8
0
62
5
10
0.27285538
20
0.3276825
30
0
70
32
0
VERTEX
8
0
62
5
10
0.29698485
20
0.27210985
30
0
70
32
0
VERTEX
8
0
62
5
10
0.31528179
20
0.3276825
30
0
70
32
0
VERTEX
8
0
62
5
10
0.33941125
20
0.27210985
30
0
70
32
0
SEQEND
8
0
0
POLYLINE
8
0
62
5
66
1
10
0
20
0
30
0
70
8
0
VERTEX
8
0
62
5
10
0.21213203
20
0.27210985
30
0
70
32
0
VERTEX
8
0
62
5
10
0.21213203
20
0.27210985
30
0
70
32
0
SEQEND
8
0
0
POLYLINE
8
0
62
5
66
1
10
0
20
0
30
0
70
8
0
VERTEX
8
0
62
5
10
0.25455844
20
0.27210985
30
0
70
32
0
VERTEX
8
0
62
5
10
0.25455844
20
0.27210985
30
0
70
32
0
SEQEND
8
0
0
POLYLINE
8
0
62
5
66
1
10
0
20
0
30
0
70
8
0
VERTEX
8
0
62
5
10
0.29698485
20
0.27210985
30
0
70
32
0
VERTEX
8
0
62
5
10
0.29698485
20
0.27210985
30
0
70
32
0
SEQEND
8
0
0
POLYLINE
8
0
62
5
66
1
10
0
20
0
30
0
70
8
0
VERTEX
8
0
62
5
10
0.18800257
20
0.3276825
30
0
70
32
0
VERTEX
8
0
62
5
10
0.18800257
20
0.3276825
30
0
70
32
0
SEQEND
8
0
0
POLYLINE
8
0
62
5
66
1
10
0
20
0
30
0
70
8
0
VERTEX
8
0
62
5
10
0.23042897
20
0.3276825
30
0
70
32
0
VERTEX
8
0
62
5
10
0.23042897
20
0.3276825
30
0
70
32
0
SEQEND
8
0
0
POLYLINE
8
0
62
5
66
1
10
0
20
0
30
0
70
8
0
VERTEX
8
0
62
5
10
0.27285538
20
0.3276825
30
0
70
32
0
VERTEX
8
0
62
5
10
0.27285538
20
0.3276825
30
0
70
32
0
SEQEND
8
0
0
POLYLINE
8
0
62
5
66
1
10
0
20
0
30
0
70
8
0
VERTEX
8
0
62
5
10
0.31528179
20
0.3276825
30
0
70
32
0
VERTEX
8
0
62
5
10
0.31528179
20
0.3276825
30
0
70
32
0
SEQEND
8
0
0
POLYLINE
8
0
62
30
66
1
10
0
20
0
30
0
70
8
0
VERTEX
8
0
62
30
10
-0.16970563
20
0.3276825
30
0
70
32
0
VERTEX
8
0
62
30
10
0
20
0.3276825
30
0
70
32
0
SEQEND
8
0
0
POLYLINE
8
0
62
30
66
1
10
0
20
0
30
0
70
8
0
VERTEX
8
0
62
30
10
-0.16970563
20
0.27210985
30
0
70
32
0
VERTEX
8
0
62
30
10
0
20
0.27210985
30
0
70
32
0
SEQEND
8
0
0
POLYLINE
8
0
62
5
66
1
10
0
20
0
30
0
70
8
0
VERTEX
8
0
62
5
10
-0.16970563
20
0.27210985
30
0
70
32
0
VERTEX
8
0
62
5
10
-0.15140869
20
0.3276825
30
0
70
32
0
VERTEX
8
0
62
5
10
-0.12727922
20
0.27210985
30
0
70
32
0
VERTEX
8
0
62
5
10
-0.10898228
20
0.3276825
30
0
70
32
0
VERTEX
8
0
62
5
10
-0.084852814
20
0.27210985
30
0
70
32
0
VERTEX
8
0
62
5
10
-0.066555875
20
0.3276825
30
0
70
32
0
VERTEX
8
0
62
5
10
-0.042426407
20
0.27210985
30
0
70
32
0
VERTEX
8
0
62
5
10
-0.024129468
20
0.3276825
30
0
70
32
0
VERTEX
8
0
62
5
10
0
20
0.27210985
30
0
70
32
0
SEQEND
8
0
0
POLYLINE
8
0
62
5
66
1
10
0
20
0
30
0
70
8
0
VERTEX
8
0
62
5
10
-0.12727922
20
0.27210985
30
0
70
32
0
VERTEX
8
0
62
5
10
-0.12727922
20
0.27210985
30
0
70
32
0
SEQEND
8
0
0
POLYLINE
8
0
62
5
66
1
10
0
20
0
30
0
70
8
0
VERTEX
8
0
62
5
10
-0.084852814
20
0.27210985
30
0
70
32
0
VERTEX
8
0
62
5
10
-0.084852814
20
0.27210985
30
0
70
32
0
SEQEND
8
0
0
POLYLINE
8
0
62
5
66
1
10
0
20
0
30
0
70
8
0
VERTEX
8
0
62
5
10
-0.042426407
20
0.27210985
30
0
70
32
0
VERTEX
8
0
62
5
10
-0.042426407
20
0.27210985
30
0
70
32
0
SEQEND
8
0
0
POLYLINE
8
0
62
5
66
1
10
0
20
0
30
0
70
8
0
VERTEX
8
0
62
5
10
-0.15140869
20
0.3276825
30
0
70
32
0
VERTEX
8
0
62
5
10
-0.15140869
20
0.3276825
30
0
70
32
0
SEQEND
8
0
0
POLYLINE
8
0
62
5
66
1
10
0
20
0
30
0
70
8
0
VERTEX
8
0
62
5
10
-0.10898228
20
0.3276825
30
0
70
32
0
VERTEX
8
0
62
5
10
-0.10898228
20
0.3276825
30
0
70
32
0
SEQEND
8
0
0
POLYLINE
8
0
62
5
66
1
10
0
20
0
30
0
70
8
0
VERTEX
8
0
62
5
10
-0.066555875
20
0.3276825
30
0
70
32
0
VERTEX
8
0
62
5
10
-0.066555875
20
0.3276825
30
0
70
32
0
SEQEND
8
0
0
POLYLINE
8
0
62
5
66
1
10
0
20
0
30
0
70
8
0
VERTEX
8
0
62
5
10
-0.024129468
20
0.3276825
30
0
70
32
0
VERTEX
8
0
62
5
10
-0.024129468
20
0.3276825
30
0
70
32
0
SEQEND
8
0
0
POLYLINE
8
0
62
5
66
1
10
0
20
0
30
0
70
8
0
VERTEX
8
0
62
5
10
0.018296938
20
0.3276825
30
0
70
32
0
VERTEX
8
0
62
5
10
0.018296938
20
0.54726713
30
0
70
32
0
SEQEND
8
0
0
POLYLINE
8
0
62
5
66
1
10
0
20
0
30
0
70
8
0
VERTEX
8
0
62
5
10
0.18800257
20
0.3276825
30
0
70
32
0
VERTEX
8
0
62
5
10
0.18800257
20
0.54726713
30
0
70
32
0
SEQEND
8
0
0
POLYLINE
8
0
62
5
66
1
10
0
20
0
30
0
70
8
0
VERTEX
8
0
62
5
10
0.060723345
20
0.3276825
30
0
70
32
0
VERTEX
8
0
62
5
10
0.060723345
20
0.54726713
30
0
70
32
0
SEQEND
8
0
0
POLYLINE
8
0
62
5
66
1
10
0
20
0
30
0
70
8
0
VERTEX
8
0
62
5
10
0.10314975
20
0.3276825
30
0
70
32
0
VERTEX
8
0
62
5
10
0.10314975
20
0.54726713
30
0
70
32
0
SEQEND
8
0
0
POLYLINE
8
0
62
5
66
1
10
0
20
0
30
0
70
8
0
VERTEX
8
0
62
5
10
0.14557616
20
0.3276825
30
0
70
32
0
VERTEX
8
0
62
5
10
0.14557616
20
0.54726713
30
0
70
32
0
SEQEND
8
0
0
POLYLINE
8
0
62
5
66
1
10
0
20
0
30
0
70
8
0
VERTEX
8
0
62
5
10
0.35770819
20
0.3276825
30
0
70
32
0
VERTEX
8
0
62
5
10
0.35770819
20
0.54726713
30
0
70
32
0
SEQEND
8
0
0
POLYLINE
8
0
62
5
66
1
10
0
20
0
30
0
70
8
0
VERTEX
8
0
62
5
10
0.23042897
20
0.3276825
30
0
70
32
0
VERTEX
8
0
62
5
10
0.23042897
20
0.54726713
30
0
70
32
0
SEQEND
8
0
0
POLYLINE
8
0
62
5
66
1
10
0
20
0
30
0
70
8
0
VERTEX
8
0
62
5
10
0.27285538
20
0.3276825
30
0
70
32
0
VERTEX
8
0
62
5
10
0.27285538
20
0.54726713
30
0
70
32
0
SEQEND
8
0
0
POLYLINE
8
0
62
5
66
1
10
0
20
0
30
0
70
8
0
VERTEX
8
0
62
5
10
0.31528179
20
0.3276825
30
0
70
32
0
VERTEX
8
0
62
5
10
0.31528179
20
0.54726713
30
0
70
32
0
SEQEND
8
0
0
POLYLINE
8
0
62
5
66
1
10
0
20
0
30
0
70
8
0
VERTEX
8
0
62
5
10
-0.15140869
20
0.3276825
30
0
70
32
0
VERTEX
8
0
62
5
10
-0.15140869
20
0.54726713
30
0
70
32
0
SEQEND
8
0
0
POLYLINE
8
0
62
5
66
1
10
0
20
0
30
0
70
8
0
VERTEX
8
0
62
5
10
-0.10898228
20
0.3276825
30
0
70
32
0
VERTEX
8
0
62
5
10
-0.10898228
20
0.54726713
30
0
70
32
0
SEQEND
8
0
0
POLYLINE
8
0
62
5
66
1
10
0
20
0
30
0
70
8
0
VERTEX
8
0
62
5
10
-0.066555875
20
0.3276825
30
0
70
32
0
VERTEX
8
0
62
5
10
-0.066555875
20
0.54726713
30
0
70
32
0
SEQEND
8
0
0
POLYLINE
8
0
62
5
66
1
10
0
20
0
30
0
70
8
0
VERTEX
8
0
62
5
10
-0.024129468
20
0.3276825
30
0
70
32
0
VERTEX
8
0
62
5
10
-0.024129468
20
0.54726713
30
0
70
32
0
SEQEND
8
0
0
POLYLINE
8
0
62
5
66
1
10
0
20
0
30
0
70
8
0
VERTEX
8
0
62
5
10
0.018296938
20
0.54726713
30
0
70
32
0
VERTEX
8
0
62
5
10
0.018296938
20
0.59580412
30
0
70
32
0
SEQEND
8
0
0
POLYLINE
8
0
62
5
66
1
10
0
20
0
30
0
70
8
0
VERTEX
8
0
62
5
10
0.18800257
20
0.59580412
30
0
70
32
0
VERTEX
8
0
62
5
10
0.18800257
20
0.54726713
30
0
70
32
0
SEQEND
8
0
0
POLYLINE
8
0
62
5
66
1
10
0
20
0
30
0
70
8
0
VERTEX
8
0
62
5
10
0.018296938
20
0.55359488
30
0
70
32
0
VERTEX
8
0
62
5
10
0.060723345
20
0.54914089
30
0
70
32
0
VERTEX
8
0
62
5
10
0.10314975
20
0.56708164
30
0
70
32
0
VERTEX
8
0
62
5
10
0.14557616
20
0.57153563
30
0
70
32
0
VERTEX
8
0
62
5
10
0.18800257
20
0.55359488
30
0
70
32
0
SEQEND
8
0
0
POLYLINE
8
0
62
5
66
1
10
0
20
0
30
0
70
8
0
SEQEND
8
0
0
POLYLINE
8
0
62
5
66
1
10
0
20
0
30
0
70
8
0
VERTEX
8
0
62
5
10
0.018296938
20
0.58947638
30
0
70
32
0
VERTEX
8
0
62
5
10
0.060723345
20
0.59393036
30
0
70
32
0
VERTEX
8
0
62
5
10
0.10314975
20
0.57598961
30
0
70
32
0
VERTEX
8
0
62
5
10
0.14557616
20
0.57153563
30
0
70
32
0
VERTEX
8
0
62
5
10
0.18800257
20
0.58947638
30
0
70
32
0
SEQEND
8
0
0
POLYLINE
8
0
62
30
66
1
10
0
20
0
30
0
70
8
0
VERTEX
8
0
62
30
10
0.018296938
20
0.57153563
30
0
70
32
0
VERTEX
8
0
62
30
10
0.18800257
20
0.57153563
30
0
70
32
0
SEQEND
8
0
0
POLYLINE
8
0
62
30
66
1
10
0
20
0
30
0
70
8
0
VERTEX
8
0
62
30
10
0.060723345
20
0.54914089
30
0
70
32
0
VERTEX
8
0
62
30
10
0.060723345
20
0.57153563
30
0
70
32
0
SEQEND
8
0
0
POLYLINE
8
0
62
30
66
1
10
0
20
0
30
0
70
8
0
VERTEX
8
0
62
30
10
0.10314975
20
0.56708164
30
0
70
32
0
VERTEX
8
0
62
30
10
0.10314975
20
0.57153563
30
0
70
32
0
SEQEND
8
0
0
POLYLINE
8
0
62
30
66
1
10
0
20
0
30
0
70
8
0
VERTEX
8
0
62
30
10
0.14557616
20
0.57153563
30
0
70
32
0
VERTEX
8
0
62
30
10
0.14557616
20
0.57153563
30
0
70
32
0
SEQEND
8
0
0
POLYLINE
8
0
62
5
66
1
10
0
20
0
30
0
70
8
0
VERTEX
8
0
62
5
10
0.060723345
20
0.54726713
30
0
70
32
0
VERTEX
8
0
62
5
10
0.060723345
20
0.54914089
30
0
70
32
0
SEQEND
8
0
0
POLYLINE
8
0
62
5
66
1
10
0
20
0
30
0
70
8
0
VERTEX
8
0
62
5
10
0.10314975
20
0.54726713
30
0
70
32
0
VERTEX
8
0
62
5
10
0.10314975
20
0.56708164
30
0
70
32
0
SEQEND
8
0
0
POLYLINE
8
0
62
5
66
1
10
0
20
0
30
0
70
8
0
VERTEX
8
0
62
5
10
0.14557616
20
0.54726713
30
0
70
32
0
VERTEX
8
0
62
5
10
0.14557616
20
0.57153563
30
0
70
32
0
SEQEND
8
0
0
POLYLINE
8
0
62
5
66
1
10
0
20
0
30
0
70
8
0
VERTEX
8
0
62
5
10
0.060723345
20
0.57153563
30
0
70
32
0
VERTEX
8
0
62
5
10
0.060723345
20
0.59580412
30
0
70
32
0
SEQEND
8
0
0
POLYLINE
8
0
62
5
66
1
10
0
20
0
30
0
70
8
0
VERTEX
8
0
62
5
10
0.10314975
20
0.57153563
30
0
70
32
0
VERTEX
8
0
62
5
10
0.10314975
20
0.59580412
30
0
70
32
0
SEQEND
8
0
0
POLYLINE
8
0
62
5
66
1
10
0
20
0
30
0
70
8
0
VERTEX
8
0
62
5
10
0.14557616
20
0.57153563
30
0
70
32
0
VERTEX
8
0
62
5
10
0.14557616
20
0.59580412
30
0
70
32
0
SEQEND
8
0
0
POLYLINE
8
0
62
5
66
1
10
0
20
0
30
0
70
8
0
VERTEX
8
0
62
5
10
0.35770819
20
0.59580412
30
0
70
32
0
VERTEX
8
0
62
5
10
0.35770819
20
0.54726713
30
0
70
32
0
SEQEND
8
0
0
POLYLINE
8
0
62
5
66
1
10
0
20
0
30
0
70
8
0
VERTEX
8
0
62
5
10
0.18800257
20
0.55359488
30
0
70
32
0
VERTEX
8
0
62
5
10
0.23042897
20
0.54914089
30
0
70
32
0
VERTEX
8
0
62
5
10
0.27285538
20
0.56708164
30
0
70
32
0
VERTEX
8
0
62
5
10
0.31528179
20
0.57153563
30
0
70
32
0
VERTEX
8
0
62
5
10
0.35770819
20
0.55359488
30
0
70
32
0
SEQEND
8
0
0
POLYLINE
8
0
62
5
66
1
10
0
20
0
30
0
70
8
0
SEQEND
8
0
0
POLYLINE
8
0
62
5
66
1
10
0
20
0
30
0
70
8
0
VERTEX
8
0
62
5
10
0.18800257
20
0.58947638
30
0
70
32
0
VERTEX
8
0
62
5
10
0.23042897
20
0.59393036
30
0
70
32
0
VERTEX
8
0
62
5
10
0.27285538
20
0.57598961
30
0
70
32
0
VERTEX
8
0
62
5
10
0.31528179
20
0.57153563
30
0
70
32
0
VERTEX
8
0
62
5
10
0.35770819
20
0.58947638
30
0
70
32
0
SEQEND
8
0
0
POLYLINE
8
0
62
30
66
1
10
0
20
0
30
0
70
8
0
VERTEX
8
0
62
30
10
0.18800257
20
0.57153563
30
0
70
32
0
VERTEX
8
0
62
30
10
0.35770819
20
0.57153563
30
0
70
32
0
SEQEND
8
0
0
POLYLINE
8
0
62
30
66
1
10
0
20
0
30
0
70
8
0
VERTEX
8
0
62
30
10
0.23042897
20
0.54914089
30
0
70
32
0
VERTEX
8
0
62
30
10
0.23042897
20
0.57153563
30
0
70
32
0
SEQEND
8
0
0
POLYLINE
8
0
62
30
66
1
10
0
20
0
30
0
70
8
0
VERTEX
8
0
62
30
10
0.27285538
20
0.56708164
30
0
70
32
0
VERTEX
8
0
62
30
10
0.27285538
20
0.57153563
30
0
70
32
0
SEQEND
8
0
0
POLYLINE
8
0
62
30
66
1
10
0
20
0
30
0
70
8
0
VERTEX
8
0
62
30
10
0.31528179
20
0.57153563
30
0
70
32
0
VERTEX
8
0
62
30
10
0.31528179
20
0.57153563
30
0
70
32
0
SEQEND
8
0
0
POLYLINE
8
0
62
5
66
1
10
0
20
0
30
0
70
8
0
VERTEX
8
0
62
5
10
0.23042897
20
0.54726713
30
0
70
32
0
VERTEX
8
0
62
5
10
0.23042897
20
0.54914089
30
0
70
32
0
SEQEND
8
0
0
POLYLINE
8
0
62
5
66
1
10
0
20
0
30
0
70
8
0
VERTEX
8
0
62
5
10
0.27285538
20
0.54726713
30
0
70
32
0
VERTEX
8
0
62
5
10
0.27285538
20
0.56708164
30
0
70
32
0
SEQEND
8
0
0
POLYLINE
8
0
62
5
66
1
10
0
20
0
30
0
70
8
0
VERTEX
8
0
62
5
10
0.31528179
20
0.54726713
30
0
70
32
0
VERTEX
8
0
62
5
10
0.31528179
20
0.57153563
30
0
70
32
0
SEQEND
8
0
0
POLYLINE
8
0
62
5
66
1
10
0
20
0
30
0
70
8
0
VERTEX
8
0
62
5
10
0.23042897
20
0.57153563
30
0
70
32
0
VERTEX
8
0
62
5
10
0.23042897
20
0.59580412
30
0
70
32
0
SEQEND
8
0
0
POLYLINE
8
0
62
5
66
1
10
0
20
0
30
0
70
8
0
VERTEX
8
0
62
5
10
0.27285538
20
0.57153563
30
0
70
32
0
VERTEX
8
0
62
5
10
0.27285538
20
0.59580412
30
0
70
32
0
SEQEND
8
0
0
POLYLINE
8
0
62
5
66
1
10
0
20
0
30
0
70
8
0
VERTEX
8
0
62
5
10
0.31528179
20
0.57153563
30
0
70
32
0
VERTEX
8
0
62
5
10
0.31528179
20
0.59580412
30
0
70
32
0
SEQEND
8
0
0
POLYLINE
8
0
62
5
66
1
10
0
20
0
30
0
70
8
0
VERTEX
8
0
62
5
10
-0.15140869
20
0.54726713
30
0
70
32
0
VERTEX
8
0
62
5
10
-0.15140869
20
0.59580412
30
0
70
32
0
SEQEND
8
0
0
POLYLINE
8
0
62
5
66
1
10
0
20
0
30
0
70
8
0
VERTEX
8
0
62
5
10
-0.15140869
20
0.55359488
30
0
70
32
0
VERTEX
8
0
62
5
10
-0.10898228
20
0.54914089
30
0
70
32
0
VERTEX
8
0
62
5
10
-0.066555875
20
0.56708164
30
0
70
32
0
VERTEX
8
0
62
5
10
-0.024129468
20
0.57153563
30
0
70
32
0
VERTEX
8
0
62
5
10
0.018296938
20
0.55359488
30
0
70
32
0
SEQEND
8
0
0
POLYLINE
8
0
62
5
66
1
10
0
20
0
30
0
70
8
0
SEQEND
8
0
0
POLYLINE
8
0
62
5
66
1
10
0
20
0
30
0
70
8
0
VERTEX
8
0
62
5
10
-0.15140869
20
0.58947638
30
0
70
32
0
VERTEX
8
0
62
5
10
-0.10898228
20
0.59393036
30
0
70
32
0
VERTEX
8
0
62
5
10
-0.066555875
20
0.57598961
30
0
70
32
0
VERTEX
8
0
62
5
10
-0.024129468
20
0.57153563
30
0
70
32
0
VERTEX
8
0
62
5
10
0.018296938
20
0.58947638
30
0
70
32
0
SEQEND
8
0
0
POLYLINE
8
0
62
30
66
1
10
0
20
0
30
0
70
8
0
VERTEX
8
0
62
30
10
-0.15140869
20
0.57153563
30
0
70
32
0
VERTEX
8
0
62
30
10
0.018296938
20
0.57153563
30
0
70
32
0
SEQEND
8
0
0
POLYLINE
8
0
62
30
66
1
10
0
20
0
30
0
70
8
0
VERTEX
8
0
62
30
10
-0.10898228
20
0.54914089
30
0
70
32
0
VERTEX
8
0
62
30
10
-0.10898228
20
0.57153563
30
0
70
32
0
SEQEND
8
0
0
POLYLINE
8
0
62
30
66
1
10
0
20
0
30
0
70
8
0
VERTEX
8
0
62
30
10
-0.066555875
20
0.56708164
30
0
70
32
0
VERTEX
8
0
62
30
10
-0.066555875
20
0.57153563
30
0
70
32
0
SEQEND
8
0
0
POLYLINE
8
0
62
30
66
1
10
0
20
0
30
0
70
8
0
VERTEX
8
0
62
30
10
-0.024129468
20
0.57153563
30
0
70
32
0
VERTEX
8
0
62
30
10
-0.024129468
20
0.57153563
30
0
70
32
0
SEQEND
8
0
0
POLYLINE
8
0
62
5
66
1
10
0
20
0
30
0
70
8
0
VERTEX
8
0
62
5
10
-0.10898228
20
0.54726713
30
0
70
32
0
VERTEX
8
0
62
5
10
-0.10898228
20
0.54914089
30
0
70
32
0
SEQEND
8
0
0
POLYLINE
8
0
62
5
66
1
10
0
20
0
30
0
70
8
0
VERTEX
8
0
62
5
10
-0.066555875
20
0.54726713
30
0
70
32
0
VERTEX
8
0
62
5
10
-0.066555875
20
0.56708164
30
0
70
32
0
SEQEND
8
0
0
POLYLINE
8
0
62
5
66
1
10
0
20
0
30
0
70
8
0
VERTEX
8
0
62
5
10
-0.024129468
20
0.54726713
30
0
70
32
0
VERTEX
8
0
62
5
10
-0.024129468
20
0.57153563
30
0
70
32
0
SEQEND
8
0
0
POLYLINE
8
0
62
5
66
1
10
0
20
0
30
0
70
8
0
VERTEX
8
0
62
5
10
-0.10898228
20
0.57153563
30
0
70
32
0
VERTEX
8
0
62
5
10
-0.10898228
20
0.59580412
30
0
70
32
0
SEQEND
8
0
0
POLYLINE
8
0
62
5
66
1
10
0
20
0
30
0
70
8
0
VERTEX
8
0
62
5
10
-0.066555875
20
0.57153563
30
0
70
32
0
VERTEX
8
0
62
5
10
-0.066555875
20
0.59580412
30
0
70
32
0
SEQEND
8
0
0
POLYLINE
8
0
62
5
66
1
10
0
20
0
30
0
70
8
0
VERTEX
8
0
62
5
10
-0.024129468
20
0.57153563
30
0
70
32
0
VERTEX
8
0
62
5
10
-0.024129468
20
0.59580412
30
0
70
32
0
SEQEND
8
0
0
POLYLINE
8
0
62
5
66
1
10
0
20
0
30
0
70
8
0
VERTEX
8
0
62
5
10
0.018296938
20
0.59580412
30
0
70
32
0
VERTEX
8
0
62
5
10
0.018296938
20
0.65580412
30
0
70
32
0
SEQEND
8
0
0
POLYLINE
8
0
62
5
66
1
10
0
20
0
30
0
70
8
0
VERTEX
8
0
62
5
10
0.18800257
20
0.65580412
30
0
70
32
0
VERTEX
8
0
62
5
10
0.18800257
20
0.59580412
30
0
70
32
0
SEQEND
8
0
0
POLYLINE
8
0
62
5
66
1
10
0
20
0
30
0
70
8
0
VERTEX
8
0
62
5
10
0.018296938
20
0.59580412
30
0
70
32
0
VERTEX
8
0
62
5
10
0.18800257
20
0.59580412
30
0
70
32
0
SEQEND
8
0
0
POLYLINE
8
0
62
5
66
1
10
0
20
0
30
0
70
8
0
VERTEX
8
0
62
5
10
0.018296938
20
0.65580412
30
0
70
32
0
VERTEX
8
0
62
5
10
0.18800257
20
0.65580412
30
0
70
32
0
SEQEND
8
0
0
POLYLINE
8
0
62
5
66
1
10
0
20
0
30
0
70
8
0
VERTEX
8
0
62
5
10
0.060723345
20
0.59580412
30
0
70
32
0
VERTEX
8
0
62
5
10
0.060723345
20
0.59580412
30
0
70
32
0
SEQEND
8
0
0
POLYLINE
8
0
62
5
66
1
10
0
20
0
30
0
70
8
0
VERTEX
8
0
62
5
10
0.10314975
20
0.59580412
30
0
70
32
0
VERTEX
8
0
62
5
10
0.10314975
20
0.59580412
30
0
70
32
0
SEQEND
8
0
0
POLYLINE
8
0
62
5
66
1
10
0
20
0
30
0
70
8
0
VERTEX
8
0
62
5
10
0.14557616
20
0.59580412
30
0
70
32
0
VERTEX
8
0
62
5
10
0.14557616
20
0.59580412
30
0
70
32
0
SEQEND
8
0
0
POLYLINE
8
0
62
5
66
1
10
0
20
0
30
0
70
8
0
VERTEX
8
0
62
5
10
0.060723345
20
0.65580412
30
0
70
32
0
VERTEX
8
0
62
5
10
0.060723345
20
0.65580412
30
0
70
32
0
SEQEND
8
0
0
POLYLINE
8
0
62
5
66
1
10
0
20
0
30
0
70
8
0
VERTEX
8
0
62
5
10
0.10314975
20
0.65580412
30
0
70
32
0
VERTEX
8
0
62
5
10
0.10314975
20
0.65580412
30
0
70
32
0
SEQEND
8
0
0
POLYLINE
8
0
62
5
66
1
10
0
20
0
30
0
70
8
0
VERTEX
8
0
62
5
10
0.14557616
20
0.65580412
30
0
70
32
0
VERTEX
8
0
62
5
10
0.14557616
20
0.65580412
30
0
70
32
0
SEQEND
8
0
0
POLYLINE
8
0
62
30
66
1
10
0
20
0
30
0
70
8
0
VERTEX
8
0
62
30
10
0.018296938
20
0.65580412
30
0
70
32
0
VERTEX
8
0
62
30
10
0.060723345
20
0.59580412
30
0
70
32
0
SEQEND
8
0
0
POLYLINE
8
0
62
30
66
1
10
0
20
0
30
0
70
8
0
VERTEX
8
0
62
30
10
0.060723345
20
0.65580412
30
0
70
32
0
VERTEX
8
0
62
30
10
0.018296938
20
0.59580412
30
0
70
32
0
SEQEND
8
0
0
POLYLINE
8
0
62
30
66
1
10
0
20
0
30
0
70
8
0
VERTEX
8
0
62
30
10
0.10314975
20
0.65580412
30
0
70
32
0
VERTEX
8
0
62
30
10
0.14557616
20
0.59580412
30
0
70
32
0
SEQEND
8
0
0
POLYLINE
8
0
62
30
66
1
10
0
20
0
30
0
70
8
0
VERTEX
8
0
62
30
10
0.14557616
20
0.65580412
30
0
70
32
0
VERTEX
8
0
62
30
10
0.10314975
20
0.59580412
30
0
70
32
0
SEQEND
8
0
0
POLYLINE
8
0
62
30
66
1
10
0
20
0
30
0
70
8
0
VERTEX
8
0
62
30
10
0.060723345
20
0.62580412
30
0
70
32
0
VERTEX
8
0
62
30
10
0.10314975
20
0.62580412
30
0
70
32
0
SEQEND
8
0
0
POLYLINE
8
0
62
30
66
1
10
0
20
0
30
0
70
8
0
VERTEX
8
0
62
30
10
0.14557616
20
0.62580412
30
0
70
32
0
VERTEX
8
0
62
30
10
0.18800257
20
0.62580412
30
0
70
32
0
SEQEND
8
0
0
POLYLINE
8
0
62
5
66
1
10
0
20
0
30
0
70
8
0
VERTEX
8
0
62
5
10
0.018296938
20
0.62580412
30
0
70
32
0
VERTEX
8
0
62
5
10
0.039510142
20
0.62580412
30
0
70
32
0
SEQEND
8
0
0
POLYLINE
8
0
62
5
66
1
10
0
20
0
30
0
70
8
0
VERTEX
8
0
62
5
10
0.10314975
20
0.62580412
30
0
70
32
0
VERTEX
8
0
62
5
10
0.12436296
20
0.62580412
30
0
70
32
0
SEQEND
8
0
0
POLYLINE
8
0
62
5
66
1
10
0
20
0
30
0
70
8
0
VERTEX
8
0
62
5
10
0.039510142
20
0.62580412
30
0
70
32
0
VERTEX
8
0
62
5
10
0.060723345
20
0.62580412
30
0
70
32
0
SEQEND
8
0
0
POLYLINE
8
0
62
5
66
1
10
0
20
0
30
0
70
8
0
VERTEX
8
0
62
5
10
0.12436296
20
0.62580412
30
0
70
32
0
VERTEX
8
0
62
5
10
0.14557616
20
0.62580412
30
0
70
32
0
SEQEND
8
0
0
POLYLINE
8
0
62
5
66
1
10
0
20
0
30
0
70
8
0
VERTEX
8
0
62
5
10
0.060723345
20
0.59580412
30
0
70
32
0
VERTEX
8
0
62
5
10
0.060723345
20
0.65580412
30
0
70
32
0
SEQEND
8
0
0
POLYLINE
8
0
62
5
66
1
10
0
20
0
30
0
70
8
0
VERTEX
8
0
62
5
10
0.10314975
20
0.59580412
30
0
70
32
0
VERTEX
8
0
62
5
10
0.10314975
20
0.65580412
30
0
70
32
0
SEQEND
8
0
0
POLYLINE
8
0
62
5
66
1
10
0
20
0
30
0
70
8
0
VERTEX
8
0
62
5
10
0.14557616
20
0.59580412
30
0
70
32
0
VERTEX
8
0
62
5
10
0.14557616
20
0.65580412
30
0
70
32
0
SEQEND
8
0
0
POLYLINE
8
0
62
5
66
1
10
0
20
0
30
0
70
8
0
VERTEX
8
0
62
5
10
0.018296938
20
0.59580412
30
0
70
32
0
VERTEX
8
0
62
5
10
0.018296938
20
0.65580412
30
0
70
32
0
SEQEND
8
0
0
POLYLINE
8
0
62
5
66
1
10
0
20
0
30
0
70
8
0
VERTEX
8
0
62
5
10
0.35770819
20
0.65580412
30
0
70
32
0
VERTEX
8
0
62
5
10
0.35770819
20
0.59580412
30
0
70
32
0
SEQEND
8
0
0
POLYLINE
8
0
62
5
66
1
10
0
20
0
30
0
70
8
0
VERTEX
8
0
62
5
10
0.18800257
20
0.59580412
30
0
70
32
0
VERTEX
8
0
62
5
10
0.35770819
20
0.59580412
30
0
70
32
0
SEQEND
8
0
0
POLYLINE
8
0
62
5
66
1
10
0
20
0
30
0
70
8
0
VERTEX
8
0
62
5
10
0.18800257
20
0.65580412
30
0
70
32
0
VERTEX
8
0
62
5
10
0.35770819
20
0.65580412
30
0
70
32
0
SEQEND
8
0
0
POLYLINE
8
0
62
5
66
1
10
0
20
0
30
0
70
8
0
VERTEX
8
0
62
5
10
0.23042897
20
0.59580412
30
0
70
32
0
VERTEX
8
0
62
5
10
0.23042897
20
0.59580412
30
0
70
32
0
SEQEND
8
0
0
POLYLINE
8
0
62
5
66
1
10
0
20
0
30
0
70
8
0
VERTEX
8
0
62
5
10
0.27285538
20
0.59580412
30
0
70
32
0
VERTEX
8
0
62
5
10
0.27285538
20
0.59580412
30
0
70
32
0
SEQEND
8
0
0
POLYLINE
8
0
62
5
66
1
10
0
20
0
30
0
70
8
0
VERTEX
8
0
62
5
10
0.31528179
20
0.59580412
30
0
70
32
0
VERTEX
8
0
62
5
10
0.31528179
20
0.59580412
30
0
70
32
0
SEQEND
8
0
0
POLYLINE
8
0
62
5
66
1
10
0
20
0
30
0
70
8
0
VERTEX
8
0
62
5
10
0.23042897
20
0.65580412
30
0
70
32
0
VERTEX
8
0
62
5
10
0.23042897
20
0.65580412
30
0
70
32
0
SEQEND
8
0
0
POLYLINE
8
0
62
5
66
1
10
0
20
0
30
0
70
8
0
VERTEX
8
0
62
5
10
0.27285538
20
0.65580412
30
0
70
32
0
VERTEX
8
0
62
5
10
0.27285538
20
0.65580412
30
0
70
32
0
SEQEND
8
0
0
POLYLINE
8
0
62
5
66
1
10
0
20
0
30
0
70
8
0
VERTEX
8
0
62
5
10
0.31528179
20
0.65580412
30
0
70
32
0
VERTEX
8
0
62
5
10
0.31528179
20
0.65580412
30
0
70
32
0
SEQEND
8
0
0
POLYLINE
8
0
62
30
66
1
10
0
20
0
30
0
70
8
0
VERTEX
8
0
62
30
10
0.18800257
20
0.65580412
30
0
70
32
0
VERTEX
8
0
62
30
10
0.23042897
20
0.59580412
30
0
70
32
0
SEQEND
8
0
0
POLYLINE
8
0
62
30
66
1
10
0
20
0
30
0
70
8
0
VERTEX
8
0
62
30
10
0.23042897
20
0.65580412
30
0
70
32
0
VERTEX
8
0
62
30
10
0.18800257
20
0.59580412
30
0
70
32
0
SEQEND
8
0
0
POLYLINE
8
0
62
30
66
1
10
0
20
0
30
0
70
8
0
VERTEX
8
0
62
30
10
0.27285538
20
0.65580412
30
0
70
32
0
VERTEX
8
0
62
30
10
0.31528179
20
0.59580412
30
0
70
32
0
SEQEND
8
0
0
POLYLINE
8
0
62
30
66
1
10
0
20
0
30
0
70
8
0
VERTEX
8
0
62
30
10
0.31528179
20
0.65580412
30
0
70
32
0
VERTEX
8
0
62
30
10
0.27285538
20
0.59580412
30
0
70
32
0
SEQEND
8
0
0
POLYLINE
8
0
62
30
66
1
10
0
20
0
30
0
70
8
0
VERTEX
8
0
62
30
10
0.23042897
20
0.62580412
30
0
70
32
0
VERTEX
8
0
62
30
10
0.27285538
20
0.62580412
30
0
70
32
0
SEQEND
8
0
0
POLYLINE
8
0
62
30
66
1
10
0
20
0
30
0
70
8
0
VERTEX
8
0
62
30
10
0.31528179
20
0.62580412
30
0
70
32
0
VERTEX
8
0
62
30
10
0.35770819
20
0.62580412
30
0
70
32
0
SEQEND
8
0
0
POLYLINE
8
0
62
5
66
1
10
0
20
0
30
0
70
8
0
VERTEX
8
0
62
5
10
0.18800257
20
0.62580412
30
0
70
32
0
VERTEX
8
0
62
5
10
0.20921577
20
0.62580412
30
0
70
32
0
SEQEND
8
0
0
POLYLINE
8
0
62
5
66
1
10
0
20
0
30
0
70
8
0
VERTEX
8
0
62
5
10
0.27285538
20
0.62580412
30
0
70
32
0
VERTEX
8
0
62
5
10
0.29406858
20
0.62580412
30
0
70
32
0
SEQEND
8
0
0
POLYLINE
8
0
62
5
66
1
10
0
20
0
30
0
70
8
0
VERTEX
8
0
62
5
10
0.20921577
20
0.62580412
30
0
70
32
0
VERTEX
8
0
62
5
10
0.23042897
20
0.62580412
30
0
70
32
0
SEQEND
8
0
0
POLYLINE
8
0
62
5
66
1
10
0
20
0
30
0
70
8
0
VERTEX
8
0
62
5
10
0.29406858
20
0.62580412
30
0
70
32
0
VERTEX
8
0
62
5
10
0.31528179
20
0.62580412
30
0
70
32
0
SEQEND
8
0
0
POLYLINE
8
0
62
5
66
1
10
0
20
0
30
0
70
8
0
VERTEX
8
0
62
5
10
0.23042897
20
0.59580412
30
0
70
32
0
VERTEX
8
0
62
5
10
0.23042897
20
0.65580412
30
0
70
32
0
SEQEND
8
0
0
POLYLINE
8
0
62
5
66
1
10
0
20
0
30
0
70
8
0
VERTEX
8
0
62
5
10
0.27285538
20
0.59580412
30
0
70
32
0
VERTEX
8
0
62
5
10
0.27285538
20
0.65580412
30
0
70
32
0
SEQEND
8
0
0
POLYLINE
8
0
62
5
66
1
10
0
20
0
30
0
70
8
0
VERTEX
8
0
62
5
10
0.31528179
20
0.59580412
30
0
70
32
0
VERTEX
8
0
62
5
10
0.31528179
20
0.65580412
30
0
70
32
0
SEQEND
8
0
0
POLYLINE
8
0
62
5
66
1
10
0
20
0
30
0
70
8
0
VERTEX
8
0
62
5
10
0.18800257
20
0.59580412
30
0
70
32
0
VERTEX
8
0
62
5
10
0.18800257
20
0.65580412
30
0
70
32
0
SEQEND
8
0
0
POLYLINE
8
0
62
5
66
1
10
0
20
0
30
0
70
8
0
VERTEX
8
0
62
5
10
-0.15140869
20
0.59580412
30
0
70
32
0
VERTEX
8
0
62
5
10
-0.15140869
20
0.65580412
30
0
70
32
0
SEQEND
8
0
0
POLYLINE
8
0
62
5
66
1
10
0
20
0
30
0
70
8
0
VERTEX
8
0
62
5
10
-0.15140869
20
0.59580412
30
0
70
32
0
VERTEX
8
0
62
5
10
0.018296938
20
0.59580412
30
0
70
32
0
SEQEND
8
0
0
POLYLINE
8
0
62
5
66
1
10
0
20
0
30
0
70
8
0
VERTEX
8
0
62
5
10
-0.15140869
20
0.65580412
30
0
70
32
0
VERTEX
8
0
62
5
10
0.018296938
20
0.65580412
30
0
70
32
0
SEQEND
8
0
0
POLYLINE
8
0
62
5
66
1
10
0
20
0
30
0
70
8
0
VERTEX
8
0
62
5
10
-0.10898228
20
0.59580412
30
0
70
32
0
VERTEX
8
0
62
5
10
-0.10898228
20
0.59580412
30
0
70
32
0
SEQEND
8
0
0
POLYLINE
8
0
62
5
66
1
10
0
20
0
30
0
70
8
0
VERTEX
8
0
62
5
10
-0.066555875
20
0.59580412
30
0
70
32
0
VERTEX
8
0
62
5
10
-0.066555875
20
0.59580412
30
0
70
32
0
SEQEND
8
0
0
POLYLINE
8
0
62
5
66
1
10
0
20
0
30
0
70
8
0
VERTEX
8
0
62
5
10
-0.024129468
20
0.59580412
30
0
70
32
0
VERTEX
8
0
62
5
10
-0.024129468
20
0.59580412
30
0
70
32
0
SEQEND
8
0
0
POLYLINE
8
0
62
5
66
1
10
0
20
0
30
0
70
8
0
VERTEX
8
0
62
5
10
-0.10898228
20
0.65580412
30
0
70
32
0
VERTEX
8
0
62
5
10
-0.10898228
20
0.65580412
30
0
70
32
0
SEQEND
8
0
0
POLYLINE
8
0
62
5
66
1
10
0
20
0
30
0
70
8
0
VERTEX
8
0
62
5
10
-0.066555875
20
0.65580412
30
0
70
32
0
VERTEX
8
0
62
5
10
-0.066555875
20
0.65580412
30
0
70
32
0
SEQEND
8
0
0
POLYLINE
8
0
62
5
66
1
10
0
20
0
30
0
70
8
0
VERTEX
8
0
62
5
10
-0.024129468
20
0.65580412
30
0
70
32
0
VERTEX
8
0
62
5
10
-0.024129468
20
0.65580412
30
0
70
32
0
SEQEND
8
0
0
POLYLINE
8
0
62
30
66
1
10
0
20
0
30
0
70
8
0
VERTEX
8
0
62
30
10
-0.15140869
20
0.65580412
30
0
70
32
0
VERTEX
8
0
62
30
10
-0.10898228
20
0.59580412
30
0
70
32
0
SEQEND
8
0
0
POLYLINE
8
0
62
30
66
1
10
0
20
0
30
0
70
8
0
VERTEX
8
0
62
30
10
-0.10898228
20
0.65580412
30
0
70
32
0
VERTEX
8
0
62
30
10
-0.15140869
20
0.59580412
30
0
70
32
0
SEQEND
8
0
0
POLYLINE
8
0
62
30
66
1
10
0
20
0
30
0
70
8
0
VERTEX
8
0
62
30
10
-0.066555875
20
0.65580412
30
0
70
32
0
VERTEX
8
0
62
30
10
-0.024129468
20
0.59580412
30
0
70
32
0
SEQEND
8
0
0
POLYLINE
8
0
62
30
66
1
10
0
20
0
30
0
70
8
0
VERTEX
8
0
62
30
10
-0.024129468
20
0.65580412
30
0
70
32
0
VERTEX
8
0
62
30
10
-0.066555875
20
0.59580412
30
0
70
32
0
SEQEND
8
0
0
POLYLINE
8
0
62
30
66
1
10
0
20
0
30
0
70
8
0
VERTEX
8
0
62
30
10
-0.10898228
20
0.62580412
30
0
70
32
0
VERTEX
8
0
62
30
10
-0.066555875
20
0.62580412
30
0
70
32
0
SEQEND
8
0
0
POLYLINE
8
0
62
30
66
1
10
0
20
0
30
0
70
8
0
VERTEX
8
0
62
30
10
-0.024129468
20
0.62580412
30
0
70
32
0
VERTEX
8
0
62
30
10
0.018296938
20
0.62580412
30
0
70
32
0
SEQEND
8
0
0
POLYLINE
8
0
62
5
66
1
10
0
20
0
30
0
70
8
0
VERTEX
8
0
62
5
10
-0.15140869
20
0.62580412
30
0
70
32
0
VERTEX
8
0
62
5
10
-0.13019549
20
0.62580412
30
0
70
32
0
SEQEND
8
0
0
POLYLINE
8
0
62
5
66
1
10
0
20
0
30
0
70
8
0
VERTEX
8
0
62
5
10
-0.066555875
20
0.62580412
30
0
70
32
0
VERTEX
8
0
62
5
10
-0.045342672
20
0.62580412
30
0
70
32
0
SEQEND
8
0
0
POLYLINE
8
0
62
5
66
1
10
0
20
0
30
0
70
8
0
VERTEX
8
0
62
5
10
-0.13019549
20
0.62580412
30
0
70
32
0
VERTEX
8
0
62
5
10
-0.10898228
20
0.62580412
30
0
70
32
0
SEQEND
8
0
0
POLYLINE
8
0
62
5
66
1
10
0
20
0
30
0
70
8
0
VERTEX
8
0
62
5
10
-0.045342672
20
0.62580412
30
0
70
32
0
VERTEX
8
0
62
5
10
-0.024129468
20
0.62580412
30
0
70
32
0
SEQEND
8
0
0
POLYLINE
8
0
62
5
66
1
10
0
20
0
30
0
70
8
0
VERTEX
8
0
62
5
10
-0.10898228
20
0.59580412
30
0
70
32
0
VERTEX
8
0
62
5
10
-0.10898228
20
0.65580412
30
0
70
32
0
SEQEND
8
0
0
POLYLINE
8
0
62
5
66
1
10
0
20
0
30
0
70
8
0
VERTEX
8
0
62
5
10
-0.066555875
20
0.59580412
30
0
70
32
0
VERTEX
8
0
62
5
10
-0.066555875
20
0.65580412
30
0
70
32
0
SEQEND
8
0
0
POLYLINE
8
0
62
5
66
1
10
0
20
0
30
0
70
8
0
VERTEX
8
0
62
5
10
-0.024129468
20
0.59580412
30
0
70
32
0
VERTEX
8
0
62
5
10
-0.024129468
20
0.65580412
30
0
70
32
0
SEQEND
8
0
0
POLYLINE
8
0
62
5
66
1
10
0
20
0
30
0
70
8
0
VERTEX
8
0
62
5
10
-0.15140869
20
0.59580412
30
0
70
32
0
VERTEX
8
0
62
5
10
-0.15140869
20
0.65580412
30
0
70
32
0
SEQEND
8
0
0
POLYLINE
8
0
62
5
66
1
10
0
20
0
30
0
70
8
0
VERTEX
8
0
62
5
10
0.018296938
20
0.65580412
30
0
70
32
0
VERTEX
8
0
62
5
10
0.018296938
20
0.77173072
30
0
70
32
0
SEQEND
8
0
0
POLYLINE
8
0
62
5
66
1
10
0
20
0
30
0
70
8
0
VERTEX
8
0
62
5
10
0.18800257
20
0.77173072
30
0
70
32
0
VERTEX
8
0
62
5
10
0.18800257
20
0.65580412
30
0
70
32
0
SEQEND
8
0
0
POLYLINE
8
0
62
5
66
1
10
0
20
0
30
0
70
8
0
VERTEX
8
0
62
5
10
0.018296938
20
0.6561387
30
0
70
32
0
VERTEX
8
0
62
5
10
0.060723345
20
0.66734829
30
0
70
32
0
VERTEX
8
0
62
5
10
0.10314975
20
0.68478577
30
0
70
32
0
VERTEX
8
0
62
5
10
0.14557616
20
0.67357617
30
0
70
32
0
VERTEX
8
0
62
5
10
0.18800257
20
0.6561387
30
0
70
32
0
SEQEND
8
0
0
POLYLINE
8
0
62
5
66
1
10
0
20
0
30
0
70
8
0
VERTEX
8
0
62
5
10
0.018296938
20
0.714102
30
0
70
32
0
VERTEX
8
0
62
5
10
0.060723345
20
0.72531159
30
0
70
32
0
VERTEX
8
0
62
5
10
0.10314975
20
0.74274907
30
0
70
32
0
VERTEX
8
0
62
5
10
0.14557616
20
0.73153947
30
0
70
32
0
VERTEX
8
0
62
5
10
0.18800257
20
0.714102
30
0
70
32
0
SEQEND
8
0
0
POLYLINE
8
0
62
5
66
1
10
0
20
0
30
0
70
8
0
VERTEX
8
0
62
5
10
0.018296938
20
0.71343284
30
0
70
32
0
VERTEX
8
0
62
5
10
0.060723345
20
0.70222325
30
0
70
32
0
VERTEX
8
0
62
5
10
0.10314975
20
0.68478577
30
0
70
32
0
VERTEX
8
0
62
5
10
0.14557616
20
0.69599536
30
0
70
32
0
VERTEX
8
0
62
5
10
0.18800257
20
0.71343284
30
0
70
32
0
SEQEND
8
0
0
POLYLINE
8
0
62
5
66
1
10
0
20
0
30
0
70
8
0
VERTEX
8
0
62
5
10
0.018296938
20
0.77139614
30
0
70
32
0
VERTEX
8
0
62
5
10
0.060723345
20
0.76018654
30
0
70
32
0
VERTEX
8
0
62
5
10
0.10314975
20
0.74274907
30
0
70
32
0
VERTEX
8
0
62
5
10
0.14557616
20
0.75395866
30
0
70
32
0
VERTEX
8
0
62
5
10
0.18800257
20
0.77139614
30
0
70
32
0
SEQEND
8
0
0
POLYLINE
8
0
62
30
66
1
10
0
20
0
30
0
70
8
0
VERTEX
8
0
62
30
10
0.018296938
20
0.74274907
30
0
70
32
0
VERTEX
8
0
62
30
10
0.18800257
20
0.74274907
30
0
70
32
0
SEQEND
8
0
0
POLYLINE
8
0
62
30
66
1
10
0
20
0
30
0
70
8
0
VERTEX
8
0
62
30
10
0.060723345
20
0.66734829
30
0
70
32
0
VERTEX
8
0
62
30
10
0.060723345
20
0.68478577
30
0
70
32
0
SEQEND
8
0
0
POLYLINE
8
0
62
30
66
1
10
0
20
0
30
0
70
8
0
VERTEX
8
0
62
30
10
0.10314975
20
0.68478577
30
0
70
32
0
VERTEX
8
0
62
30
10
0.10314975
20
0.68478577
30
0
70
32
0
SEQEND
8
0
0
POLYLINE
8
0
62
30
66
1
10
0
20
0
30
0
70
8
0
VERTEX
8
0
62
30
10
0.14557616
20
0.67357617
30
0
70
32
0
VERTEX
8
0
62
30
10
0.14557616
20
0.68478577
30
0
70
32
0
SEQEND
8
0
0
POLYLINE
8
0
62
30
66
1
10
0
20
0
30
0
70
8
0
VERTEX
8
0
62
30
10
0.060723345
20
0.72531159
30
0
70
32
0
VERTEX
8
0
62
30
10
0.060723345
20
0.74274907
30
0
70
32
0
SEQEND
8
0
0
POLYLINE
8
0
62
30
66
1
10
0
20
0
30
0
70
8
0
VERTEX
8
0
62
30
10
0.060723345
20
0.74274907
30
0
70
32
0
VERTEX
8
0
62
30
10
0.10314975
20
0.74274907
30
0
70
32
0
SEQEND
8
0
0
POLYLINE
8
0
62
30
66
1
10
0
20
0
30
0
70
8
0
VERTEX
8
0
62
30
10
0.10314975
20
0.74274907
30
0
70
32
0
VERTEX
8
0
62
30
10
0.10314975
20
0.74274907
30
0
70
32
0
SEQEND
8
0
0
POLYLINE
8
0
62
30
66
1
10
0
20
0
30
0
70
8
0
VERTEX
8
0
62
30
10
0.10314975
20
0.74274907
30
0
70
32
0
VERTEX
8
0
62
30
10
0.14557616
20
0.73153947
30
0
70
32
0
SEQEND
8
0
0
POLYLINE
8
0
62
30
66
1
10
0
20
0
30
0
70
8
0
VERTEX
8
0
62
30
10
0.14557616
20
0.73153947
30
0
70
32
0
VERTEX
8
0
62
30
10
0.14557616
20
0.74274907
30
0
70
32
0
SEQEND
8
0
0
POLYLINE
8
0
62
5
66
1
10
0
20
0
30
0
70
8
0
VERTEX
8
0
62
5
10
0.060723345
20
0.65580412
30
0
70
32
0
VERTEX
8
0
62
5
10
0.060723345
20
0.66734829
30
0
70
32
0
SEQEND
8
0
0
POLYLINE
8
0
62
5
66
1
10
0
20
0
30
0
70
8
0
VERTEX
8
0
62
5
10
0.10314975
20
0.65580412
30
0
70
32
0
VERTEX
8
0
62
5
10
0.10314975
20
0.68478577
30
0
70
32
0
SEQEND
8
0
0
POLYLINE
8
0
62
5
66
1
10
0
20
0
30
0
70
8
0
VERTEX
8
0
62
5
10
0.14557616
20
0.65580412
30
0
70
32
0
VERTEX
8
0
62
5
10
0.14557616
20
0.67357617
30
0
70
32
0
SEQEND
8
0
0
POLYLINE
8
0
62
5
66
1
10
0
20
0
30
0
70
8
0
VERTEX
8
0
62
5
10
0.060723345
20
0.71376742
30
0
70
32
0
VERTEX
8
0
62
5
10
0.060723345
20
0.72531159
30
0
70
32
0
SEQEND
8
0
0
POLYLINE
8
0
62
5
66
1
10
0
20
0
30
0
70
8
0
VERTEX
8
0
62
5
10
0.10314975
20
0.71376742
30
0
70
32
0
VERTEX
8
0
62
5
10
0.10314975
20
0.74274907
30
0
70
32
0
SEQEND
8
0
0
POLYLINE
8
0
62
5
66
1
10
0
20
0
30
0
70
8
0
VERTEX
8
0
62
5
10
0.14557616
20
0.71376742
30
0
70
32
0
VERTEX
8
0
62
5
10
0.14557616
20
0.73153947
30
0
70
32
0
SEQEND
8
0
0
POLYLINE
8
0
62
5
66
1
10
0
20
0
30
0
70
8
0
VERTEX
8
0
62
5
10
0.060723345
20
0.68478577
30
0
70
32
0
VERTEX
8
0
62
5
10
0.060723345
20
0.71376742
30
0
70
32
0
SEQEND
8
0
0
POLYLINE
8
0
62
5
66
1
10
0
20
0
30
0
70
8
0
VERTEX
8
0
62
5
10
0.10314975
20
0.68478577
30
0
70
32
0
VERTEX
8
0
62
5
10
0.10314975
20
0.71376742
30
0
70
32
0
SEQEND
8
0
0
POLYLINE
8
0
62
5
66
1
10
0
20
0
30
0
70
8
0
VERTEX
8
0
62
5
10
0.14557616
20
0.68478577
30
0
70
32
0
VERTEX
8
0
62
5
10
0.14557616
20
0.71376742
30
0
70
32
0
SEQEND
8
0
0
POLYLINE
8
0
62
5
66
1
10
0
20
0
30
0
70
8
0
VERTEX
8
0
62
5
10
0.060723345
20
0.74274907
30
0
70
32
0
VERTEX
8
0
62
5
10
0.060723345
20
0.77173072
30
0
70
32
0
SEQEND
8
0
0
POLYLINE
8
0
62
5
66
1
10
0
20
0
30
0
70
8
0
VERTEX
8
0
62
5
10
0.10314975
20
0.74274907
30
0
70
32
0
VERTEX
8
0
62
5
10
0.10314975
20
0.77173072
30
0
70
32
0
SEQEND
8
0
0
POLYLINE
8
0
62
5
66
1
10
0
20
0
30
0
70
8
0
VERTEX
8
0
62
5
10
0.14557616
20
0.74274907
30
0
70
32
0
VERTEX
8
0
62
5
10
0.14557616
20
0.77173072
30
0
70
32
0
SEQEND
8
0
0
POLYLINE
8
0
62
5
66
1
10
0
20
0
30
0
70
8
0
VERTEX
8
0
62
5
10
0.35770819
20
0.77173072
30
0
70
32
0
VERTEX
8
0
62
5
10
0.35770819
20
0.65580412
30
0
70
32
0
SEQEND
8
0
0
POLYLINE
8
0
62
5
66
1
10
0
20
0
30
0
70
8
0
VERTEX
8
0
62
5
10
0.18800257
20
0.6561387
30
0
70
32
0
VERTEX
8
0
62
5
10
0.23042897
20
0.66734829
30
0
70
32
0
VERTEX
8
0
62
5
10
0.27285538
20
0.68478577
30
0
70
32
0
VERTEX
8
0
62
5
10
0.31528179
20
0.67357617
30
0
70
32
0
VERTEX
8
0
62
5
10
0.35770819
20
0.6561387
30
0
70
32
0
SEQEND
8
0
0
POLYLINE
8
0
62
5
66
1
10
0
20
0
30
0
70
8
0
VERTEX
8
0
62
5
10
0.18800257
20
0.714102
30
0
70
32
0
VERTEX
8
0
62
5
10
0.23042897
20
0.72531159
30
0
70
32
0
VERTEX
8
0
62
5
10
0.27285538
20
0.74274907
30
0
70
32
0
VERTEX
8
0
62
5
10
0.31528179
20
0.73153947
30
0
70
32
0
VERTEX
8
0
62
5
10
0.35770819
20
0.714102
30
0
70
32
0
SEQEND
8
0
0
POLYLINE
8
0
62
5
66
1
10
0
20
0
30
0
70
8
0
VERTEX
8
0
62
5
10
0.18800257
20
0.71343284
30
0
70
32
0
VERTEX
8
0
62
5
10
0.23042897
20
0.70222325
30
0
70
32
0
VERTEX
8
0
62
5
10
0.27285538
20
0.68478577
30
0
70
32
0
VERTEX
8
0
62
5
10
0.31528179
20
0.69599536
30
0
70
32
0
VERTEX
8
0
62
5
10
0.35770819
20
0.71343284
30
0
70
32
0
SEQEND
8
0
0
POLYLINE
8
0
62
5
66
1
10
0
20
0
30
0
70
8
0
VERTEX
8
0
62
5
10
0.18800257
20
0.77139614
30
0
70
32
0
VERTEX
8
0
62
5
10
0.23042897
20
0.76018654
30
0
70
32
0
VERTEX
8
0
62
5
10
0.27285538
20
0.74274907
30
0
70
32
0
VERTEX
8
0
62
5
10
0.31528179
20
0.75395866
30
0
70
32
0
VERTEX
8
0
62
5
10
0.35770819
20
0.77139614
30
0
70
32
0
SEQEND
8
0
0
POLYLINE
8
0
62
30
66
1
10
0
20
0
30
0
70
8
0
VERTEX
8
0
62
30
10
0.18800257
20
0.74274907
30
0
70
32
0
VERTEX
8
0
62
30
10
0.35770819
20
0.74274907
30
0
70
32
0
SEQEND
8
0
0
POLYLINE
8
0
62
30
66
1
10
0
20
0
30
0
70
8
0
VERTEX
8
0
62
30
10
0.23042897
20
0.66734829
30
0
70
32
0
VERTEX
8
0
62
30
10
0.23042897
20
0.68478577
30
0
70
32
0
SEQEND
8
0
0
POLYLINE
8
0
62
30
66
1
10
0
20
0
30
0
70
8
0
VERTEX
8
0
62
30
10
0.27285538
20
0.68478577
30
0
70
32
0
VERTEX
8
0
62
30
10
0.27285538
20
0.68478577
30
0
70
32
0
SEQEND
8
0
0
POLYLINE
8
0
62
30
66
1
10
0
20
0
30
0
70
8
0
VERTEX
8
0
62
30
10
0.31528179
20
0.67357617
30
0
70
32
0
VERTEX
8
0
62
30
10
0.31528179
20
0.68478577
30
0
70
32
0
SEQEND
8
0
0
POLYLINE
8
0
62
30
66
1
10
0
20
0
30
0
70
8
0
VERTEX
8
0
62
30
10
0.23042897
20
0.72531159
30
0
70
32
0
VERTEX
8
0
62
30
10
0.23042897
20
0.74274907
30
0
70
32
0
SEQEND
8
0
0
POLYLINE
8
0
62
30
66
1
10
0
20
0
30
0
70
8
0
VERTEX
8
0
62
30
10
0.23042897
20
0.74274907
30
0
70
32
0
VERTEX
8
0
62
30
10
0.27285538
20
0.74274907
30
0
70
32
0
SEQEND
8
0
0
POLYLINE
8
0
62
30
66
1
10
0
20
0
30
0
70
8
0
VERTEX
8
0
62
30
10
0.27285538
20
0.74274907
30
0
70
32
0
VERTEX
8
0
62
30
10
0.27285538
20
0.74274907
30
0
70
32
0
SEQEND
8
0
0
POLYLINE
8
0
62
30
66
1
10
0
20
0
30
0
70
8
0
VERTEX
8
0
62
30
10
0.27285538
20
0.74274907
30
0
70
32
0
VERTEX
8
0
62
30
10
0.31528179
20
0.73153947
30
0
70
32
0
SEQEND
8
0
0
POLYLINE
8
0
62
30
66
1
10
0
20
0
30
0
70
8
0
VERTEX
8
0
62
30
10
0.31528179
20
0.73153947
30
0
70
32
0
VERTEX
8
0
62
30
10
0.31528179
20
0.74274907
30
0
70
32
0
SEQEND
8
0
0
POLYLINE
8
0
62
5
66
1
10
0
20
0
30
0
70
8
0
VERTEX
8
0
62
5
10
0.23042897
20
0.65580412
30
0
70
32
0
VERTEX
8
0
62
5
10
0.23042897
20
0.66734829
30
0
70
32
0
SEQEND
8
0
0
POLYLINE
8
0
62
5
66
1
10
0
20
0
30
0
70
8
0
VERTEX
8
0
62
5
10
0.27285538
20
0.65580412
30
0
70
32
0
VERTEX
8
0
62
5
10
0.27285538
20
0.68478577
30
0
70
32
0
SEQEND
8
0
0
POLYLINE
8
0
62
5
66
1
10
0
20
0
30
0
70
8
0
VERTEX
8
0
62
5
10
0.31528179
20
0.65580412
30
0
70
32
0
VERTEX
8
0
62
5
10
0.31528179
20
0.67357617
30
0
70
32
0
SEQEND
8
0
0
POLYLINE
8
0
62
5
66
1
10
0
20
0
30
0
70
8
0
VERTEX
8
0
62
5
10
0.23042897
20
0.71376742
30
0
70
32
0
VERTEX
8
0
62
5
10
0.23042897
20
0.72531159
30
0
70
32
0
SEQEND
8
0
0
POLYLINE
8
0
62
5
66
1
10
0
20
0
30
0
70
8
0
VERTEX
8
0
62
5
10
0.27285538
20
0.71376742
30
0
70
32
0
VERTEX
8
0
62
5
10
0.27285538
20
0.74274907
30
0
70
32
0
SEQEND
8
0
0
POLYLINE
8
0
62
5
66
1
10
0
20
0
30
0
70
8
0
VERTEX
8
0
62
5
10
0.31528179
20
0.71376742
30
0
70
32
0
VERTEX
8
0
62
5
10
0.31528179
20
0.73153947
30
0
70
32
0
SEQEND
8
0
0
POLYLINE
8
0
62
5
66
1
10
0
20
0
30
0
70
8
0
VERTEX
8
0
62
5
10
0.23042897
20
0.68478577
30
0
70
32
0
VERTEX
8
0
62
5
10
0.23042897
20
0.71376742
30
0
70
32
0
SEQEND
8
0
0
POLYLINE
8
0
62
5
66
1
10
0
20
0
30
0
70
8
0
VERTEX
8
0
62
5
10
0.27285538
20
0.68478577
30
0
70
32
0
VERTEX
8
0
62
5
10
0.27285538
20
0.71376742
30
0
70
32
0
SEQEND
8
0
0
POLYLINE
8
0
62
5
66
1
10
0
20
0
30
0
70
8
0
VERTEX
8
0
62
5
10
0.31528179
20
0.68478577
30
0
70
32
0
VERTEX
8
0
62
5
10
0.31528179
20
0.71376742
30
0
70
32
0
SEQEND
8
0
0
POLYLINE
8
0
62
5
66
1
10
0
20
0
30
0
70
8
0
VERTEX
8
0
62
5
10
0.23042897
20
0.74274907
30
0
70
32
0
VERTEX
8
0
62
5
10
0.23042897
20
0.77173072
30
0
70
32
0
SEQEND
8
0
0
POLYLINE
8
0
62
5
66
1
10
0
20
0
30
0
70
8
0
VERTEX
8
0
62
5
10
0.27285538
20
0.74274907
30
0
70
32
0
VERTEX
8
0
62
5
10
0.27285538
20
0.77173072
30
0
70
32
0
SEQEND
8
0
0
POLYLINE
8
0
62
5
66
1
10
0
20
0
30
0
70
8
0
VERTEX
8
0
62
5
10
0.31528179
20
0.74274907
30
0
70
32
0
VERTEX
8
0
62
5
10
0.31528179
20
0.77173072
30
0
70
32
0
SEQEND
8
0
0
POLYLINE
8
0
62
5
66
1
10
0
20
0
30
0
70
8
0
VERTEX
8
0
62
5
10
-0.15140869
20
0.65580412
30
0
70
32
0
VERTEX
8
0
62
5
10
-0.15140869
20
0.77173072
30
0
70
32
0
SEQEND
8
0
0
POLYLINE
8
0
62
5
66
1
10
0
20
0
30
0
70
8
0
VERTEX
8
0
62
5
10
-0.15140869
20
0.6561387
30
0
70
32
0
VERTEX
8
0
62
5
10
-0.10898228
20
0.66734829
30
0
70
32
0
VERTEX
8
0
62
5
10
-0.066555875
20
0.68478577
30
0
70
32
0
VERTEX
8
0
62
5
10
-0.024129468
20
0.67357617
30
0
70
32
0
VERTEX
8
0
62
5
10
0.018296938
20
0.6561387
30
0
70
32
0
SEQEND
8
0
0
POLYLINE
8
0
62
5
66
1
10
0
20
0
30
0
70
8
0
VERTEX
8
0
62
5
10
-0.15140869
20
0.714102
30
0
70
32
0
VERTEX
8
0
62
5
10
-0.10898228
20
0.72531159
30
0
70
32
0
VERTEX
8
0
62
5
10
-0.066555875
20
0.74274907
30
0
70
32
0
VERTEX
8
0
62
5
10
-0.024129468
20
0.73153947
30
0
70
32
0
VERTEX
8
0
62
5
10
0.018296938
20
0.714102
30
0
70
32
0
SEQEND
8
0
0
POLYLINE
8
0
62
5
66
1
10
0
20
0
30
0
70
8
0
VERTEX
8
0
62
5
10
-0.15140869
20
0.71343284
30
0
70
32
0
VERTEX
8
0
62
5
10
-0.10898228
20
0.70222325
30
0
70
32
0
VERTEX
8
0
62
5
10
-0.066555875
20
0.68478577
30
0
70
32
0
VERTEX
8
0
62
5
10
-0.024129468
20
0.69599536
30
0
70
32
0
VERTEX
8
0
62
5
10
0.018296938
20
0.71343284
30
0
70
32
0
SEQEND
8
0
0
POLYLINE
8
0
62
5
66
1
10
0
20
0
30
0
70
8
0
VERTEX
8
0
62
5
10
-0.15140869
20
0.77139614
30
0
70
32
0
VERTEX
8
0
62
5
10
-0.10898228
20
0.76018654
30
0
70
32
0
VERTEX
8
0
62
5
10
-0.066555875
20
0.74274907
30
0
70
32
0
VERTEX
8
0
62
5
10
-0.024129468
20
0.75395866
30
0
70
32
0
VERTEX
8
0
62
5
10
0.018296938
20
0.77139614
30
0
70
32
0
SEQEND
8
0
0
POLYLINE
8
0
62
30
66
1
10
0
20
0
30
0
70
8
0
VERTEX
8
0
62
30
10
-0.15140869
20
0.74274907
30
0
70
32
0
VERTEX
8
0
62
30
10
0.018296938
20
0.74274907
30
0
70
32
0
SEQEND
8
0
0
POLYLINE
8
0
62
30
66
1
10
0
20
0
30
0
70
8
0
VERTEX
8
0
62
30
10
-0.10898228
20
0.66734829
30
0
70
32
0
VERTEX
8
0
62
30
10
-0.10898228
20
0.68478577
30
0
70
32
0
SEQEND
8
0
0
POLYLINE
8
0
62
30
66
1
10
0
20
0
30
0
70
8
0
VERTEX
8
0
62
30
10
-0.066555875
20
0.68478577
30
0
70
32
0
VERTEX
8
0
62
30
10
-0.066555875
20
0.68478577
30
0
70
32
0
SEQEND
8
0
0
POLYLINE
8
0
62
30
66
1
10
0
20
0
30
0
70
8
0
VERTEX
8
0
62
30
10
-0.024129468
20
0.67357617
30
0
70
32
0
VERTEX
8
0
62
30
10
-0.024129468
20
0.68478577
30
0
70
32
0
SEQEND
8
0
0
POLYLINE
8
0
62
30
66
1
10
0
20
0
30
0
70
8
0
VERTEX
8
0
62
30
10
-0.10898228
20
0.72531159
30
0
70
32
0
VERTEX
8
0
62
30
10
-0.10898228
20
0.74274907
30
0
70
32
0
SEQEND
8
0
0
POLYLINE
8
0
62
30
66
1
10
0
20
0
30
0
70
8
0
VERTEX
8
0
62
30
10
-0.10898228
20
0.74274907
30
0
70
32
0
VERTEX
8
0
62
30
10
-0.066555875
20
0.74274907
30
0
70
32
0
SEQEND
8
0
0
POLYLINE
8
0
62
30
66
1
10
0
20
0
30
0
70
8
0
VERTEX
8
0
62
30
10
-0.066555875
20
0.74274907
30
0
70
32
0
VERTEX
8
0
62
30
10
-0.066555875
20
0.74274907
30
0
70
32
0
SEQEND
8
0
0
POLYLINE
8
0
62
30
66
1
10
0
20
0
30
0
70
8
0
VERTEX
8
0
62
30
10
-0.066555875
20
0.74274907
30
0
70
32
0
VERTEX
8
0
62
30
10
-0.024129468
20
0.73153947
30
0
70
32
0
SEQEND
8
0
0
POLYLINE
8
0
62
30
66
1
10
0
20
0
30
0
70
8
0
VERTEX
8
0
62
30
10
-0.024129468
20
0.73153947
30
0
70
32
0
VERTEX
8
0
62
30
10
-0.024129468
20
0.74274907
30
0
70
32
0
SEQEND
8
0
0
POLYLINE
8
0
62
5
66
1
10
0
20
0
30
0
70
8
0
VERTEX
8
0
62
5
10
-0.10898228
20
0.65580412
30
0
70
32
0
VERTEX
8
0
62
5
10
-0.10898228
20
0.66734829
30
0
70
32
0
SEQEND
8
0
0
POLYLINE
8
0
62
5
66
1
10
0
20
0
30
0
70
8
0
VERTEX
8
0
62
5
10
-0.066555875
20
0.65580412
30
0
70
32
0
VERTEX
8
0
62
5
10
-0.066555875
20
0.68478577
30
0
70
32
0
SEQEND
8
0
0
POLYLINE
8
0
62
5
66
1
10
0
20
0
30
0
70
8
0
VERTEX
8
0
62
5
10
-0.024129468
20
0.65580412
30
0
70
32
0
VERTEX
8
0
62
5
10
-0.024129468
20
0.67357617
30
0
70
32
0
SEQEND
8
0
0
POLYLINE
8
0
62
5
66
1
10
0
20
0
30
0
70
8
0
VERTEX
8
0
62
5
10
-0.10898228
20
0.71376742
30
0
70
32
0
VERTEX
8
0
62
5
10
-0.10898228
20
0.72531159
30
0
70
32
0
SEQEND
8
0
0
POLYLINE
8
0
62
5
66
1
10
0
20
0
30
0
70
8
0
VERTEX
8
0
62
5
10
-0.066555875
20
0.71376742
30
0
70
32
0
VERTEX
8
0
62
5
10
-0.066555875
20
0.74274907
30
0
70
32
0
SEQEND
8
0
0
POLYLINE
8
0
62
5
66
1
10
0
20
0
30
0
70
8
0
VERTEX
8
0
62
5
10
-0.024129468
20
0.71376742
30
0
70
32
0
VERTEX
8
0
62
5
10
-0.024129468
20
0.73153947
30
0
70
32
0
SEQEND
8
0
0
POLYLINE
8
0
62
5
66
1
10
0
20
0
30
0
70
8
0
VERTEX
8
0
62
5
10
-0.10898228
20
0.68478577
30
0
70
32
0
VERTEX
8
0
62
5
10
-0.10898228
20
0.71376742
30
0
70
32
0
SEQEND
8
0
0
POLYLINE
8
0
62
5
66
1
10
0
20
0
30
0
70
8
0
VERTEX
8
0
62
5
10
-0.066555875
20
0.68478577
30
0
70
32
0
VERTEX
8
0
62
5
10
-0.066555875
20
0.71376742
30
0
70
32
0
SEQEND
8
0
0
POLYLINE
8
0
62
5
66
1
10
0
20
0
30
0
70
8
0
VERTEX
8
0
62
5
10
-0.024129468
20
0.68478577
30
0
70
32
0
VERTEX
8
0
62
5
10
-0.024129468
20
0.71376742
30
0
70
32
0
SEQEND
8
0
0
POLYLINE
8
0
62
5
66
1
10
0
20
0
30
0
70
8
0
VERTEX
8
0
62
5
10
-0.10898228
20
0.74274907
30
0
70
32
0
VERTEX
8
0
62
5
10
-0.10898228
20
0.77173072
30
0
70
32
0
SEQEND
8
0
0
POLYLINE
8
0
62
5
66
1
10
0
20
0
30
0
70
8
0
VERTEX
8
0
62
5
10
-0.066555875
20
0.74274907
30
0
70
32
0
VERTEX
8
0
62
5
10
-0.066555875
20
0.77173072
30
0
70
32
0
SEQEND
8
0
0
POLYLINE
8
0
62
5
66
1
10
0
20
0
30
0
70
8
0
VERTEX
8
0
62
5
10
-0.024129468
20
0.74274907
30
0
70
32
0
VERTEX
8
0
62
5
10
-0.024129468
20
0.77173072
30
0
70
32
0
SEQEND
8
0
0
POLYLINE
8
0
62
30
66
1
10
0
20
0
30
0
70
8
0
VERTEX
8
0
62
30
10
0.018296938
20
0.81184798
30
0
70
32
0
VERTEX
8
0
62
30
10
0.18800257
20
0.81184798
30
0
70
32
0
SEQEND
8
0
0
POLYLINE
8
0
62
30
66
1
10
0
20
0
30
0
70
8
0
VERTEX
8
0
62
30
10
0.018296938
20
0.77173072
30
0
70
32
0
VERTEX
8
0
62
30
10
0.18800257
20
0.77173072
30
0
70
32
0
SEQEND
8
0
0
POLYLINE
8
0
62
5
66
1
10
0
20
0
30
0
70
8
0
VERTEX
8
0
62
5
10
0.018296938
20
0.77173072
30
0
70
32
0
VERTEX
8
0
62
5
10
0.043730286
20
0.81184798
30
0
70
32
0
VERTEX
8
0
62
5
10
0.060723345
20
0.77173072
30
0
70
32
0
VERTEX
8
0
62
5
10
0.086156693
20
0.81184798
30
0
70
32
0
VERTEX
8
0
62
5
10
0.10314975
20
0.77173072
30
0
70
32
0
VERTEX
8
0
62
5
10
0.1285831
20
0.81184798
30
0
70
32
0
VERTEX
8
0
62
5
10
0.14557616
20
0.77173072
30
0
70
32
0
VERTEX
8
0
62
5
10
0.17100951
20
0.81184798
30
0
70
32
0
VERTEX
8
0
62
5
10
0.18800257
20
0.77173072
30
0
70
32
0
SEQEND
8
0
0
POLYLINE
8
0
62
5
66
1
10
0
20
0
30
0
70
8
0
VERTEX
8
0
62
5
10
0.060723345
20
0.77173072
30
0
70
32
0
VERTEX
8
0
62
5
10
0.060723345
20
0.77173072
30
0
70
32
0
SEQEND
8
0
0
POLYLINE
8
0
62
5
66
1
10
0
20
0
30
0
70
8
0
VERTEX
8
0
62
5
10
0.10314975
20
0.77173072
30
0
70
32
0
VERTEX
8
0
62
5
10
0.10314975
20
0.77173072
30
0
70
32
0
SEQEND
8
0
0
POLYLINE
8
0
62
5
66
1
10
0
20
0
30
0
70
8
0
VERTEX
8
0
62
5
10
0.14557616
20
0.77173072
30
0
70
32
0
VERTEX
8
0
62
5
10
0.14557616
20
0.77173072
30
0
70
32
0
SEQEND
8
0
0
POLYLINE
8
0
62
5
66
1
10
0
20
0
30
0
70
8
0
VERTEX
8
0
62
5
10
0.043730286
20
0.81184798
30
0
70
32
0
VERTEX
8
0
62
5
10
0.043730286
20
0.81184798
30
0
70
32
0
SEQEND
8
0
0
POLYLINE
8
0
62
5
66
1
10
0
20
0
30
0
70
8
0
VERTEX
8
0
62
5
10
0.086156693
20
0.81184798
30
0
70
32
0
VERTEX
8
0
62
5
10
0.086156693
20
0.81184798
30
0
70
32
0
SEQEND
8
0
0
POLYLINE
8
0
62
5
66
1
10
0
20
0
30
0
70
8
0
VERTEX
8
0
62
5
10
0.1285831
20
0.81184798
30
0
70
32
0
VERTEX
8
0
62
5
10
0.1285831
20
0.81184798
30
0
70
32
0
SEQEND
8
0
0
POLYLINE
8
0
62
5
66
1
10
0
20
0
30
0
70
8
0
VERTEX
8
0
62
5
10
0.17100951
20
0.81184798
30
0
70
32
0
VERTEX
8
0
62
5
10
0.17100951
20
0.81184798
30
0
70
32
0
SEQEND
8
0
0
POLYLINE
8
0
62
30
66
1
10
0
20
0
30
0
70
8
0
VERTEX
8
0
62
30
10
0.18800257
20
0.81184798
30
0
70
32
0
VERTEX
8
0
62
30
10
0.35770819
20
0.81184798
30
0
70
32
0
SEQEND
8
0
0
POLYLINE
8
0
62
30
66
1
10
0
20
0
30
0
70
8
0
VERTEX
8
0
62
30
10
0.18800257
20
0.77173072
30
0
70
32
0
VERTEX
8
0
62
30
10
0.35770819
20
0.77173072
30
0
70
32
0
SEQEND
8
0
0
POLYLINE
8
0
62
5
66
1
10
0
20
0
30
0
70
8
0
VERTEX
8
0
62
5
10
0.18800257
20
0.77173072
30
0
70
32
0
VERTEX
8
0
62
5
10
0.21343591
20
0.81184798
30
0
70
32
0
VERTEX
8
0
62
5
10
0.23042897
20
0.77173072
30
0
70
32
0
VERTEX
8
0
62
5
10
0.25586232
20
0.81184798
30
0
70
32
0
VERTEX
8
0
62
5
10
0.27285538
20
0.77173072
30
0
70
32
0
VERTEX
8
0
62
5
10
0.29828873
20
0.81184798
30
0
70
32
0
VERTEX
8
0
62
5
10
0.31528179
20
0.77173072
30
0
70
32
0
VERTEX
8
0
62
5
10
0.34071513
20
0.81184798
30
0
70
32
0
VERTEX
8
0
62
5
10
0.35770819
20
0.77173072
30
0
70
32
0
SEQEND
8
0
0
POLYLINE
8
0
62
5
66
1
10
0
20
0
30
0
70
8
0
VERTEX
8
0
62
5
10
0.23042897
20
0.77173072
30
0
70
32
0
VERTEX
8
0
62
5
10
0.23042897
20
0.77173072
30
0
70
32
0
SEQEND
8
0
0
POLYLINE
8
0
62
5
66
1
10
0
20
0
30
0
70
8
0
VERTEX
8
0
62
5
10
0.27285538
20
0.77173072
30
0
70
32
0
VERTEX
8
0
62
5
10
0.27285538
20
0.77173072
30
0
70
32
0
SEQEND
8
0
0
POLYLINE
8
0
62
5
66
1
10
0
20
0
30
0
70
8
0
VERTEX
8
0
62
5
10
0.31528179
20
0.77173072
30
0
70
32
0
VERTEX
8
0
62
5
10
0.31528179
20
0.77173072
30
0
70
32
0
SEQEND
8
0
0
POLYLINE
8
0
62
5
66
1
10
0
20
0
30
0
70
8
0
VERTEX
8
0
62
5
10
0.21343591
20
0.81184798
30
0
70
32
0
VERTEX
8
0
62
5
10
0.21343591
20
0.81184798
30
0
70
32
0
SEQEND
8
0
0
POLYLINE
8
0
62
5
66
1
10
0
20
0
30
0
70
8
0
VERTEX
8
0
62
5
10
0.25586232
20
0.81184798
30
0
70
32
0
VERTEX
8
0
62
5
10
0.25586232
20
0.81184798
30
0
70
32
0
SEQEND
8
0
0
POLYLINE
8
0
62
5
66
1
10
0
20
0
30
0
70
8
0
VERTEX
8
0
62
5
10
0.29828873
20
0.81184798
30
0
70
32
0
VERTEX
8
0
62
5
10
0.29828873
20
0.81184798
30
0
70
32
0
SEQEND
8
0
0
POLYLINE
8
0
62
5
66
1
10
0
20
0
30
0
70
8
0
VERTEX
8
0
62
5
10
0.34071513
20
0.81184798
30
0
70
32
0
VERTEX
8
0
62
5
10
0.34071513
20
0.81184798
30
0
70
32
0
SEQEND
8
0
0
POLYLINE
8
0
62
30
66
1
10
0
20
0
30
0
70
8
0
VERTEX
8
0
62
30
10
-0.15140869
20
0.81184798
30
0
70
32
0
VERTEX
8
0
62
30
10
0.018296938
20
0.81184798
30
0
70
32
0
SEQEND
8
0
0
POLYLINE
8
0
62
30
66
1
10
0
20
0
30
0
70
8
0
VERTEX
8
0
62
30
10
-0.15140869
20
0.77173072
30
0
70
32
0
VERTEX
8
0
62
30
10
0.018296938
20
0.77173072
30
0
70
32
0
SEQEND
8
0
0
POLYLINE
8
0
62
5
66
1
10
0
20
0
30
0
70
8
0
VERTEX
8
0
62
5
10
-0.15140869
20
0.77173072
30
0
70
32
0
VERTEX
8
0
62
5
10
-0.12597534
20
0.81184798
30
0
70
32
0
VERTEX
8
0
62
5
10
-0.10898228
20
0.77173072
30
0
70
32
0
VERTEX
8
0
62
5
10
-0.083548934
20
0.81184798
30
0
70
32
0
VERTEX
8
0
62
5
10
-0.066555875
20
0.77173072
30
0
70
32
0
VERTEX
8
0
62
5
10
-0.041122527
20
0.81184798
30
0
70
32
0
VERTEX
8
0
62
5
10
-0.024129468
20
0.77173072
30
0
70
32
0
VERTEX
8
0
62
5
10
0.0013038795
20
0.81184798
30
0
70
32
0
VERTEX
8
0
62
5
10
0.018296938
20
0.77173072
30
0
70
32
0
SEQEND
8
0
0
POLYLINE
8
0
62
5
66
1
10
0
20
0
30
0
70
8
0
VERTEX
8
0
62
5
10
-0.10898228
20
0.77173072
30
0
70
32
0
VERTEX
8
0
62
5
10
-0.10898228
20
0.77173072
30
0
70
32
0
SEQEND
8
0
0
POLYLINE
8
0
62
5
66
1
10
0
20
0
30
0
70
8
0
VERTEX
8
0
62
5
10
-0.066555875
20
0.77173072
30
0
70
32
0
VERTEX
8
0
62
5
10
-0.066555875
20
0.77173072
30
0
70
32
0
SEQEND
8
0
0
POLYLINE
8
0
62
5
66
1
10
0
20
0
30
0
70
8
0
VERTEX
8
0
62
5
10
-0.024129468
20
0.77173072
30
0
70
32
0
VERTEX
8
0
62
5
10
-0.024129468
20
0.77173072
30
0
70
32
0
SEQEND
8
0
0
POLYLINE
8
0
62
5
66
1
10
0
20
0
30
0
70
8
0
VERTEX
8
0
62
5
10
-0.12597534
20
0.81184798
30
0
70
32
0
VERTEX
8
0
62
5
10
-0.12597534
20
0.81184798
30
0
70
32
0
SEQEND
8
0
0
POLYLINE
8
0
62
5
66
1
10
0
20
0
30
0
70
8
0
VERTEX
8
0
62
5
10
-0.083548934
20
0.81184798
30
0
70
32
0
VERTEX
8
0
62
5
10
-0.083548934
20
0.81184798
30
0
70
32
0
SEQEND
8
0
0
POLYLINE
8
0
62
5
66
1
10
0
20
0
30
0
70
8
0
VERTEX
8
0
62
5
10
-0.041122527
20
0.81184798
30
0
70
32
0
VERTEX
8
0
62
5
10
-0.041122527
20
0.81184798
30
0
70
32
0
SEQEND
8
0
0
POLYLINE
8
0
62
5
66
1
10
0
20
0
30
0
70
8
0
VERTEX
8
0
62
5
10
0.0013038795
20
0.81184798
30
0
70
32
0
VERTEX
8
0
62
5
10
0.0013038795
20
0.81184798
30
0
70
32
0
SEQEND
8
0
0
POLYLINE
8
0
62
5
66
1
10
0
20
0
30
0
70
8
0
VERTEX
8
0
62
5
10
0.043730286
20
0.81184798
30
0
70
32
0
VERTEX
8
0
62
5
10
0.043730286
20
0.96868373
30
0
70
32
0
SEQEND
8
0
0
POLYLINE
8
0
62
5
66
1
10
0
20
0
30
0
70
8
0
VERTEX
8
0
62
5
10
0.21343591
20
0.81184798
30
0
70
32
0
VERTEX
8
0
62
5
10
0.21343591
20
0.96868373
30
0
70
32
0
SEQEND
8
0
0
POLYLINE
8
0
62
5
66
1
10
0
20
0
30
0
70
8
0
VERTEX
8
0
62
5
10
0.086156693
20
0.81184798
30
0
70
32
0
VERTEX
8
0
62
5
10
0.086156693
20
0.96868373
30
0
70
32
0
SEQEND
8
0
0
POLYLINE
8
0
62
5
66
1
10
0
20
0
30
0
70
8
0
VERTEX
8
0
62
5
10
0.1285831
20
0.81184798
30
0
70
32
0
VERTEX
8
0
62
5
10
0.1285831
20
0.96868373
30
0
70
32
0
SEQEND
8
0
0
POLYLINE
8
0
62
5
66
1
10
0
20
0
30
0
70
8
0
VERTEX
8
0
62
5
10
0.17100951
20
0.81184798
30
0
70
32
0
VERTEX
8
0
62
5
10
0.17100951
20
0.96868373
30
0
70
32
0
SEQEND
8
0
0
POLYLINE
8
0
62
5
66
1
10
0
20
0
30
0
70
8
0
VERTEX
8
0
62
5
10
0.38314154
20
0.81184798
30
0
70
32
0
VERTEX
8
0
62
5
10
0.38314154
20
0.96868373
30
0
70
32
0
SEQEND
8
0
0
POLYLINE
8
0
62
5
66
1
10
0
20
0
30
0
70
8
0
VERTEX
8
0
62
5
10
0.25586232
20
0.81184798
30
0
70
32
0
VERTEX
8
0
62
5
10
0.25586232
20
0.96868373
30
0
70
32
0
SEQEND
8
0
0
POLYLINE
8
0
62
5
66
1
10
0
20
0
30
0
70
8
0
VERTEX
8
0
62
5
10
0.29828873
20
0.81184798
30
0
70
32
0
VERTEX
8
0
62
5
10
0.29828873
20
0.96868373
30
0
70
32
0
SEQEND
8
0
0
POLYLINE
8
0
62
5
66
1
10
0
20
0
30
0
70
8
0
VERTEX
8
0
62
5
10
0.34071513
20
0.81184798
30
0
70
32
0
VERTEX
8
0
62
5
10
0.34071513
20
0.96868373
30
0
70
32
0
SEQEND
8
0
0
POLYLINE
8
0
62
5
66
1
10
0
20
0
30
0
70
8
0
VERTEX
8
0
62
5
10
-0.12597534
20
0.81184798
30
0
70
32
0
VERTEX
8
0
62
5
10
-0.12597534
20
0.96868373
30
0
70
32
0
SEQEND
8
0
0
POLYLINE
8
0
62
5
66
1
10
0
20
0
30
0
70
8
0
VERTEX
8
0
62
5
10
-0.083548934
20
0.81184798
30
0
70
32
0
VERTEX
8
0
62
5
10
-0.083548934
20
0.96868373
30
0
70
32
0
SEQEND
8
0
0
POLYLINE
8
0
62
5
66
1
10
0
20
0
30
0
70
8
0
VERTEX
8
0
62
5
10
-0.041122527
20
0.81184798
30
0
70
32
0
VERTEX
8
0
62
5
10
-0.041122527
20
0.96868373
30
0
70
32
0
SEQEND
8
0
0
POLYLINE
8
0
62
5
66
1
10
0
20
0
30
0
70
8
0
VERTEX
8
0
62
5
10
0.0013038795
20
0.81184798
30
0
70
32
0
VERTEX
8
0
62
5
10
0.0013038795
20
0.96868373
30
0
70
32
0
SEQEND
8
0
0
POLYLINE
8
0
62
5
66
1
10
0
20
0
30
0
70
8
0
VERTEX
8
0
62
5
10
0.043730286
20
0.96868373
30
0
70
32
0
VERTEX
8
0
62
5
10
0.043730286
20
1.0057729
30
0
70
32
0
SEQEND
8
0
0
POLYLINE
8
0
62
5
66
1
10
0
20
0
30
0
70
8
0
VERTEX
8
0
62
5
10
0.21343591
20
1.0057729
30
0
70
32
0
VERTEX
8
0
62
5
10
0.21343591
20
0.96868373
30
0
70
32
0
SEQEND
8
0
0
POLYLINE
8
0
62
5
66
1
10
0
20
0
30
0
70
8
0
VERTEX
8
0
62
5
10
0.043730286
20
0.97497635
30
0
70
32
0
VERTEX
8
0
62
5
10
0.086156693
20
0.96925947
30
0
70
32
0
VERTEX
8
0
62
5
10
0.1285831
20
0.98151143
30
0
70
32
0
VERTEX
8
0
62
5
10
0.17100951
20
0.98722831
30
0
70
32
0
VERTEX
8
0
62
5
10
0.21343591
20
0.97497635
30
0
70
32
0
SEQEND
8
0
0
POLYLINE
8
0
62
5
66
1
10
0
20
0
30
0
70
8
0
SEQEND
8
0
0
POLYLINE
8
0
62
5
66
1
10
0
20
0
30
0
70
8
0
VERTEX
8
0
62
5
10
0.043730286
20
0.99948027
30
0
70
32
0
VERTEX
8
0
62
5
10
0.086156693
20
1.0051971
30
0
70
32
0
VERTEX
8
0
62
5
10
0.1285831
20
0.99294519
30
0
70
32
0
VERTEX
8
0
62
5
10
0.17100951
20
0.98722831
30
0
70
32
0
VERTEX
8
0
62
5
10
0.21343591
20
0.99948027
30
0
70
32
0
SEQEND
8
0
0
POLYLINE
8
0
62
30
66
1
10
0
20
0
30
0
70
8
0
VERTEX
8
0
62
30
10
0.043730286
20
0.98722831
30
0
70
32
0
VERTEX
8
0
62
30
10
0.21343591
20
0.98722831
30
0
70
32
0
SEQEND
8
0
0
POLYLINE
8
0
62
30
66
1
10
0
20
0
30
0
70
8
0
VERTEX
8
0
62
30
10
0.086156693
20
0.96925947
30
0
70
32
0
VERTEX
8
0
62
30
10
0.086156693
20
0.98722831
30
0
70
32
0
SEQEND
8
0
0
POLYLINE
8
0
62
30
66
1
10
0
20
0
30
0
70
8
0
VERTEX
8
0
62
30
10
0.1285831
20
0.98151143
30
0
70
32
0
VERTEX
8
0
62
30
10
0.1285831
20
0.98722831
30
0
70
32
0
SEQEND
8
0
0
POLYLINE
8
0
62
30
66
1
10
0
20
0
30
0
70
8
0
VERTEX
8
0
62
30
10
0.17100951
20
0.98722831
30
0
70
32
0
VERTEX
8
0
62
30
10
0.17100951
20
0.98722831
30
0
70
32
0
SEQEND
8
0
0
POLYLINE
8
0
62
5
66
1
10
0
20
0
30
0
70
8
0
VERTEX
8
0
62
5
10
0.086156693
20
0.96868373
30
0
70
32
0
VERTEX
8
0
62
5
10
0.086156693
20
0.96925947
30
0
70
32
0
SEQEND
8
0
0
POLYLINE
8
0
62
5
66
1
10
0
20
0
30
0
70
8
0
VERTEX
8
0
62
5
10
0.1285831
20
0.96868373
30
0
70
32
0
VERTEX
8
0
62
5
10
0.1285831
20
0.98151143
30
0
70
32
0
SEQEND
8
0
0
POLYLINE
8
0
62
5
66
1
10
0
20
0
30
0
70
8
0
VERTEX
8
0
62
5
10
0.17100951
20
0.96868373
30
0
70
32
0
VERTEX
8
0
62
5
10
0.17100951
20
0.98722831
30
0
70
32
0
SEQEND
8
0
0
POLYLINE
8
0
62
5
66
1
10
0
20
0
30
0
70
8
0
VERTEX
8
0
62
5
10
0.086156693
20
0.98722831
30
0
70
32
0
VERTEX
8
0
62
5
10
0.086156693
20
1.0057729
30
0
70
32
0
SEQEND
8
0
0
POLYLINE
8
0
62
5
66
1
10
0
20
0
30
0
70
8
0
VERTEX
8
0
62
5
10
0.1285831
20
0.98722831
30
0
70
32
0
VERTEX
8
0
62
5
10
0.1285831
20
1.0057729
30
0
70
32
0
SEQEND
8
0
0
POLYLINE
8
0
62
5
66
1
10
0
20
0
30
0
70
8
0
VERTEX
8
0
62
5
10
0.17100951
20
0.98722831
30
0
70
32
0
VERTEX
8
0
62
5
10
0.17100951
20
1.0057729
30
0
70
32
0
SEQEND
8
0
0
POLYLINE
8
0
62
5
66
1
10
0
20
0
30
0
70
8
0
VERTEX
8
0
62
5
10
0.38314154
20
1.0057729
30
0
70
32
0
VERTEX
8
0
62
5
10
0.38314154
20
0.96868373
30
0
70
32
0
SEQEND
8
0
0
POLYLINE
8
0
62
5
66
1
10
0
20
0
30
0
70
8
0
VERTEX
8
0
62
5
10
0.21343591
20
0.97497635
30
0
70
32
0
VERTEX
8
0
62
5
10
0.25586232
20
0.96925947
30
0
70
32
0
VERTEX
8
0
62
5
10
0.29828873
20
0.98151143
30
0
70
32
0
VERTEX
8
0
62
5
10
0.34071513
20
0.98722831
30
0
70
32
0
VERTEX
8
0
62
5
10
0.38314154
20
0.97497635
30
0
70
32
0
SEQEND
8
0
0
POLYLINE
8
0
62
5
66
1
10
0
20
0
30
0
70
8
0
SEQEND
8
0
0
POLYLINE
8
0
62
5
66
1
10
0
20
0
30
0
70
8
0
VERTEX
8
0
62
5
10
0.21343591
20
0.99948027
30
0
70
32
0
VERTEX
8
0
62
5
10
0.25586232
20
1.0051971
30
0
70
32
0
VERTEX
8
0
62
5
10
0.29828873
20
0.99294519
30
0
70
32
0
VERTEX
8
0
62
5
10
0.34071513
20
0.98722831
30
0
70
32
0
VERTEX
8
0
62
5
10
0.38314154
20
0.99948027
30
0
70
32
0
SEQEND
8
0
0
POLYLINE
8
0
62
30
66
1
10
0
20
0
30
0
70
8
0
VERTEX
8
0
62
30
10
0.21343591
20
0.98722831
30
0
70
32
0
VERTEX
8
0
62
30
10
0.38314154
20
0.98722831
30
0
70
32
0
SEQEND
8
0
0
POLYLINE
8
0
62
30
66
1
10
0
20
0
30
0
70
8
0
VERTEX
8
0
62
30
10
0.25586232
20
0.96925947
30
0
70
32
0
VERTEX
8
0
62
30
10
0.25586232
20
0.98722831
30
0
70
32
0
SEQEND
8
0
0
POLYLINE
8
0
62
30
66
1
10
0
20
0
30
0
70
8
0
VERTEX
8
0
62
30
10
0.29828873
20
0.98151143
30
0
70
32
0
VERTEX
8
0
62
30
10
0.29828873
20
0.98722831
30
0
70
32
0
SEQEND
8
0
0
POLYLINE
8
0
62
30
66
1
10
0
20
0
30
0
70
8
0
VERTEX
8
0
62
30
10
0.34071513
20
0.98722831
30
0
70
32
0
VERTEX
8
0
62
30
10
0.34071513
20
0.98722831
30
0
70
32
0
SEQEND
8
0
0
POLYLINE
8
0
62
5
66
1
10
0
20
0
30
0
70
8
0
VERTEX
8
0
62
5
10
0.25586232
20
0.96868373
30
0
70
32
0
VERTEX
8
0
62
5
10
0.25586232
20
0.96925947
30
0
70
32
0
SEQEND
8
0
0
POLYLINE
8
0
62
5
66
1
10
0
20
0
30
0
70
8
0
VERTEX
8
0
62
5
10
0.29828873
20
0.96868373
30
0
70
32
0
VERTEX
8
0
62
5
10
0.29828873
20
0.98151143
30
0
70
32
0
SEQEND
8
0
0
POLYLINE
8
0
62
5
66
1
10
0
20
0
30
0
70
8
0
VERTEX
8
0
62
5
10
0.34071513
20
0.96868373
30
0
70
32
0
VERTEX
8
0
62
5
10
0.34071513
20
0.98722831
30
0
70
32
0
SEQEND
8
0
0
POLYLINE
8
0
62
5
66
1
10
0
20
0
30
0
70
8
0
VERTEX
8
0
62
5
10
0.25586232
20
0.98722831
30
0
70
32
0
VERTEX
8
0
62
5
10
0.25586232
20
1.0057729
30
0
70
32
0
SEQEND
8
0
0
POLYLINE
8
0
62
5
66
1
10
0
20
0
30
0
70
8
0
VERTEX
8
0
62
5
10
0.29828873
20
0.98722831
30
0
70
32
0
VERTEX
8
0
62
5
10
0.29828873
20
1.0057729
30
0
70
32
0
SEQEND
8
0
0
POLYLINE
8
0
62
5
66
1
10
0
20
0
30
0
70
8
0
VERTEX
8
0
62
5
10
0.34071513
20
0.98722831
30
0
70
32
0
VERTEX
8
0
62
5
10
0.34071513
20
1.0057729
30
0
70
32
0
SEQEND
8
0
0
POLYLINE
8
0
62
5
66
1
10
0
20
0
30
0
70
8
0
VERTEX
8
0
62
5
10
-0.12597534
20
0.96868373
30
0
70
32
0
VERTEX
8
0
62
5
10
-0.12597534
20
1.0057729
30
0
70
32
0
SEQEND
8
0
0
POLYLINE
8
0
62
5
66
1
10
0
20
0
30
0
70
8
0
VERTEX
8
0
62
5
10
-0.12597534
20
0.97497635
30
0
70
32
0
VERTEX
8
0
62
5
10
-0.083548934
20
0.96925947
30
0
70
32
0
VERTEX
8
0
62
5
10
-0.041122527
20
0.98151143
30
0
70
32
0
VERTEX
8
0
62
5
10
0.0013038795
20
0.98722831
30
0
70
32
0
VERTEX
8
0
62
5
10
0.043730286
20
0.97497635
30
0
70
32
0
SEQEND
8
0
0
POLYLINE
8
0
62
5
66
1
10
0
20
0
30
0
70
8
0
SEQEND
8
0
0
POLYLINE
8
0
62
5
66
1
10
0
20
0
30
0
70
8
0
VERTEX
8
0
62
5
10
-0.12597534
20
0.99948027
30
0
70
32
0
VERTEX
8
0
62
5
10
-0.083548934
20
1.0051971
30
0
70
32
0
VERTEX
8
0
62
5
10
-0.041122527
20
0.99294519
30
0
70
32
0
VERTEX
8
0
62
5
10
0.0013038795
20
0.98722831
30
0
70
32
0
VERTEX
8
0
62
5
10
0.043730286
20
0.99948027
30
0
70
32
0
SEQEND
8
0
0
POLYLINE
8
0
62
30
66
1
10
0
20
0
30
0
70
8
0
VERTEX
8
0
62
30
10
-0.12597534
20
0.98722831
30
0
70
32
0
VERTEX
8
0
62
30
10
0.043730286
20
0.98722831
30
0
70
32
0
SEQEND
8
0
0
POLYLINE
8
0
62
30
66
1
10
0
20
0
30
0
70
8
0
VERTEX
8
0
62
30
10
-0.083548934
20
0.96925947
30
0
70
32
0
VERTEX
8
0
62
30
10
-0.083548934
20
0.98722831
30
0
70
32
0
SEQEND
8
0
0
POLYLINE
8
0
62
30
66
1
10
0
20
0
30
0
70
8
0
VERTEX
8
0
62
30
10
-0.041122527
20
0.98151143
30
0
70
32
0
VERTEX
8
0
62
30
10
-0.041122527
20
0.98722831
30
0
70
32
0
SEQEND
8
0
0
POLYLINE
8
0
62
30
66
1
10
0
20
0
30
0
70
8
0
VERTEX
8
0
62
30
10
0.0013038795
20
0.98722831
30
0
70
32
0
VERTEX
8
0
62
30
10
0.0013038795
20
0.98722831
30
0
70
32
0
SEQEND
8
0
0
POLYLINE
8
0
62
5
66
1
10
0
20
0
30
0
70
8
0
VERTEX
8
0
62
5
10
-0.083548934
20
0.96868373
30
0
70
32
0
VERTEX
8
0
62
5
10
-0.083548934
20
0.96925947
30
0
70
32
0
SEQEND
8
0
0
POLYLINE
8
0
62
5
66
1
10
0
20
0
30
0
70
8
0
VERTEX
8
0
62
5
10
-0.041122527
20
0.96868373
30
0
70
32
0
VERTEX
8
0
62
5
10
-0.041122527
20
0.98151143
30
0
70
32
0
SEQEND
8
0
0
POLYLINE
8
0
62
5
66
1
10
0
20
0
30
0
70
8
0
VERTEX
8
0
62
5
10
0.0013038795
20
0.96868373
30
0
70
32
0
VERTEX
8
0
62
5
10
0.0013038795
20
0.98722831
30
0
70
32
0
SEQEND
8
0
0
POLYLINE
8
0
62
5
66
1
10
0
20
0
30
0
70
8
0
VERTEX
8
0
62
5
10
-0.083548934
20
0.98722831
30
0
70
32
0
VERTEX
8
0
62
5
10
-0.083548934
20
1.0057729
30
0
70
32
0
SEQEND
8
0
0
POLYLINE
8
0
62
5
66
1
10
0
20
0
30
0
70
8
0
VERTEX
8
0
62
5
10
-0.041122527
20
0.98722831
30
0
70
32
0
VERTEX
8
0
62
5
10
-0.041122527
20
1.0057729
30
0
70
32
0
SEQEND
8
0
0
POLYLINE
8
0
62
5
66
1
10
0
20
0
30
0
70
8
0
VERTEX
8
0
62
5
10
0.0013038795
20
0.98722831
30
0
70
32
0
VERTEX
8
0
62
5
10
0.0013038795
20
1.0057729
30
0
70
32
0
SEQEND
8
0
0
POLYLINE
8
0
62
5
66
1
10
0
20
0
30
0
70
8
0
VERTEX
8
0
62
5
10
0.043730286
20
1.0057729
30
0
70
32
0
VERTEX
8
0
62
5
10
0.043730286
20
1.0657729
30
0
70
32
0
SEQEND
8
0
0
POLYLINE
8
0
62
5
66
1
10
0
20
0
30
0
70
8
0
VERTEX
8
0
62
5
10
0.21343591
20
1.0657729
30
0
70
32
0
VERTEX
8
0
62
5
10
0.21343591
20
1.0057729
30
0
70
32
0
SEQEND
8
0
0
POLYLINE
8
0
62
5
66
1
10
0
20
0
30
0
70
8
0
VERTEX
8
0
62
5
10
0.043730286
20
1.0057729
30
0
70
32
0
VERTEX
8
0
62
5
10
0.21343591
20
1.0057729
30
0
70
32
0
SEQEND
8
0
0
POLYLINE
8
0
62
5
66
1
10
0
20
0
30
0
70
8
0
VERTEX
8
0
62
5
10
0.043730286
20
1.0657729
30
0
70
32
0
VERTEX
8
0
62
5
10
0.21343591
20
1.0657729
30
0
70
32
0
SEQEND
8
0
0
POLYLINE
8
0
62
5
66
1
10
0
20
0
30
0
70
8
0
VERTEX
8
0
62
5
10
0.086156693
20
1.0057729
30
0
70
32
0
VERTEX
8
0
62
5
10
0.086156693
20
1.0057729
30
0
70
32
0
SEQEND
8
0
0
POLYLINE
8
0
62
5
66
1
10
0
20
0
30
0
70
8
0
VERTEX
8
0
62
5
10
0.1285831
20
1.0057729
30
0
70
32
0
VERTEX
8
0
62
5
10
0.1285831
20
1.0057729
30
0
70
32
0
SEQEND
8
0
0
POLYLINE
8
0
62
5
66
1
10
0
20
0
30
0
70
8
0
VERTEX
8
0
62
5
10
0.17100951
20
1.0057729
30
0
70
32
0
VERTEX
8
0
62
5
10
0.17100951
20
1.0057729
30
0
70
32
0
SEQEND
8
0
0
POLYLINE
8
0
62
5
66
1
10
0
20
0
30
0
70
8
0
VERTEX
8
0
62
5
10
0.086156693
20
1.0657729
30
0
70
32
0
VERTEX
8
0
62
5
10
0.086156693
20
1.0657729
30
0
70
32
0
SEQEND
8
0
0
POLYLINE
8
0
62
5
66
1
10
0
20
0
30
0
70
8
0
VERTEX
8
0
62
5
10
0.1285831
20
1.0657729
30
0
70
32
0
VERTEX
8
0
62
5
10
0.1285831
20
1.0657729
30
0
70
32
0
SEQEND
8
0
0
POLYLINE
8
0
62
5
66
1
10
0
20
0
30
0
70
8
0
VERTEX
8
0
62
5
10
0.17100951
20
1.0657729
30
0
70
32
0
VERTEX
8
0
62
5
10
0.17100951
20
1.0657729
30
0
70
32
0
SEQEND
8
0
0
POLYLINE
8
0
62
30
66
1
10
0
20
0
30
0
70
8
0
VERTEX
8
0
62
30
10
0.043730286
20
1.0657729
30
0
70
32
0
VERTEX
8
0
62
30
10
0.086156693
20
1.0057729
30
0
70
32
0
SEQEND
8
0
0
POLYLINE
8
0
62
30
66
1
10
0
20
0
30
0
70
8
0
VERTEX
8
0
62
30
10
0.086156693
20
1.0657729
30
0
70
32
0
VERTEX
8
0
62
30
10
0.043730286
20
1.0057729
30
0
70
32
0
SEQEND
8
0
0
POLYLINE
8
0
62
30
66
1
10
0
20
0
30
0
70
8
0
VERTEX
8
0
62
30
10
0.1285831
20
1.0657729
30
0
70
32
0
VERTEX
8
0
62
30
10
0.17100951
20
1.0057729
30
0
70
32
0
SEQEND
8
0
0
POLYLINE
8
0
62
30
66
1
10
0
20
0
30
0
70
8
0
VERTEX
8
0
62
30
10
0.17100951
20
1.0657729
30
0
70
32
0
VERTEX
8
0
62
30
10
0.1285831
20
1.0057729
30
0
70
32
0
SEQEND
8
0
0
POLYLINE
8
0
62
30
66
1
10
0
20
0
30
0
70
8
0
VERTEX
8
0
62
30
10
0.086156693
20
1.0357729
30
0
70
32
0
VERTEX
8
0
62
30
10
0.1285831
20
1.0357729
30
0
70
32
0
SEQEND
8
0
0
POLYLINE
8
0
62
30
66
1
10
0
20
0
30
0
70
8
0
VERTEX
8
0
62
30
10
0.17100951
20
1.0357729
30
0
70
32
0
VERTEX
8
0
62
30
10
0.21343591
20
1.0357729
30
0
70
32
0
SEQEND
8
0
0
POLYLINE
8
0
62
5
66
1
10
0
20
0
30
0
70
8
0
VERTEX
8
0
62
5
10
0.043730286
20
1.0357729
30
0
70
32
0
VERTEX
8
0
62
5
10
0.06494349
20
1.0357729
30
0
70
32
0
SEQEND
8
0
0
POLYLINE
8
0
62
5
66
1
10
0
20
0
30
0
70
8
0
VERTEX
8
0
62
5
10
0.1285831
20
1.0357729
30
0
70
32
0
VERTEX
8
0
62
5
10
0.1497963
20
1.0357729
30
0
70
32
0
SEQEND
8
0
0
POLYLINE
8
0
62
5
66
1
10
0
20
0
30
0
70
8
0
VERTEX
8
0
62
5
10
0.06494349
20
1.0357729
30
0
70
32
0
VERTEX
8
0
62
5
10
0.086156693
20
1.0357729
30
0
70
32
0
SEQEND
8
0
0
POLYLINE
8
0
62
5
66
1
10
0
20
0
30
0
70
8
0
VERTEX
8
0
62
5
10
0.1497963
20
1.0357729
30
0
70
32
0
VERTEX
8
0
62
5
10
0.17100951
20
1.0357729
30
0
70
32
0
SEQEND
8
0
0
POLYLINE
8
0
62
5
66
1
10
0
20
0
30
0
70
8
0
VERTEX
8
0
62
5
10
0.086156693
20
1.0057729
30
0
70
32
0
VERTEX
8
0
62
5
10
0.086156693
20
1.0657729
30
0
70
32
0
SEQEND
8
0
0
POLYLINE
8
0
62
5
66
1
10
0
20
0
30
0
70
8
0
VERTEX
8
0
62
5
10
0.1285831
20
1.0057729
30
0
70
32
0
VERTEX
8
0
62
5
10
0.1285831
20
1.0657729
30
0
70
32
0
SEQEND
8
0
0
POLYLINE
8
0
62
5
66
1
10
0
20
0
30
0
70
8
0
VERTEX
8
0
62
5
10
0.17100951
20
1.0057729
30
0
70
32
0
VERTEX
8
0
62
5
10
0.17100951
20
1.0657729
30
0
70
32
0
SEQEND
8
0
0
POLYLINE
8
0
62
5
66
1
10
0
20
0
30
0
70
8
0
VERTEX
8
0
62
5
10
0.043730286
20
1.0057729
30
0
70
32
0
VERTEX
8
0
62
5
10
0.043730286
20
1.0657729
30
0
70
32
0
SEQEND
8
0
0
POLYLINE
8
0
62
5
66
1
10
0
20
0
30
0
70
8
0
VERTEX
8
0
62
5
10
0.38314154
20
1.0657729
30
0
70
32
0
VERTEX
8
0
62
5
10
0.38314154
20
1.0057729
30
0
70
32
0
SEQEND
8
0
0
POLYLINE
8
0
62
5
66
1
10
0
20
0
30
0
70
8
0
VERTEX
8
0
62
5
10
0.21343591
20
1.0057729
30
0
70
32
0
VERTEX
8
0
62
5
10
0.38314154
20
1.0057729
30
0
70
32
0
SEQEND
8
0
0
POLYLINE
8
0
62
5
66
1
10
0
20
0
30
0
70
8
0
VERTEX
8
0
62
5
10
0.21343591
20
1.0657729
30
0
70
32
0
VERTEX
8
0
62
5
10
0.38314154
20
1.0657729
30
0
70
32
0
SEQEND
8
0
0
POLYLINE
8
0
62
5
66
1
10
0
20
0
30
0
70
8
0
VERTEX
8
0
62
5
10
0.25586232
20
1.0057729
30
0
70
32
0
VERTEX
8
0
62
5
10
0.25586232
20
1.0057729
30
0
70
32
0
SEQEND
8
0
0
POLYLINE
8
0
62
5
66
1
10
0
20
0
30
0
70
8
0
VERTEX
8
0
62
5
10
0.29828873
20
1.0057729
30
0
70
32
0
VERTEX
8
0
62
5
10
0.29828873
20
1.0057729
30
0
70
32
0
SEQEND
8
0
0
POLYLINE
8
0
62
5
66
1
10
0
20
0
30
0
70
8
0
VERTEX
8
0
62
5
10
0.34071513
20
1.0057729
30
0
70
32
0
VERTEX
8
0
62
5
10
0.34071513
20
1.0057729
30
0
70
32
0
SEQEND
8
0
0
POLYLINE
8
0
62
5
66
1
10
0
20
0
30
0
70
8
0
VERTEX
8
0
62
5
10
0.25586232
20
1.0657729
30
0
70
32
0
VERTEX
8
0
62
5
10
0.25586232
20
1.0657729
30
0
70
32
0
SEQEND
8
0
0
POLYLINE
8
0
62
5
66
1
10
0
20
0
30
0
70
8
0
VERTEX
8
0
62
5
10
0.29828873
20
1.0657729
30
0
70
32
0
VERTEX
8
0
62
5
10
0.29828873
20
1.0657729
30
0
70
32
0
SEQEND
8
0
0
POLYLINE
8
0
62
5
66
1
10
0
20
0
30
0
70
8
0
VERTEX
8
0
62
5
10
0.34071513
20
1.0657729
30
0
70
32
0
VERTEX
8
0
62
5
10
0.34071513
20
1.0657729
30
0
70
32
0
SEQEND
8
0
0
POLYLINE
8
0
62
30
66
1
10
0
20
0
30
0
70
8
0
VERTEX
8
0
62
30
10
0.21343591
20
1.0657729
30
0
70
32
0
VERTEX
8
0
62
30
10
0.25586232
20
1.0057729
30
0
70
32
0
SEQEND
8
0
0
POLYLINE
8
0
62
30
66
1
10
0
20
0
30
0
70
8
0
VERTEX
8
0
62
30
10
0.25586232
20
1.0657729
30
0
70
32
0
VERTEX
8
0
62
30
10
0.21343591
20
1.0057729
30
0
70
32
0
SEQEND
8
0
0
POLYLINE
8
0
62
30
66
1
10
0
20
0
30
0
70
8
0
VERTEX
8
0
62
30
10
0.29828873
20
1.0657729
30
0
70
32
0
VERTEX
8
0
62
30
10
0.34071513
20
1.0057729
30
0
70
32
0
SEQEND
8
0
0
POLYLINE
8
0
62
30
66
1
10
0
20
0
30
0
70
8
0
VERTEX
8
0
62
30
10
0.34071513
20
1.0657729
30
0
70
32
0
VERTEX
8
0
62
30
10
0.29828873
20
1.0057729
30
0
70
32
0
SEQEND
8
0
0
POLYLINE
8
0
62
30
66
1
10
0
20
0
30
0
70
8
0
VERTEX
8
0
62
30
10
0.25586232
20
1.0357729
30
0
70
32
0
VERTEX
8
0
62
30
10
0.29828873
20
1.0357729
30
0
70
32
0
SEQEND
8
0
0
POLYLINE
8
0
62
30
66
1
10
0
20
0
30
0
70
8
0
VERTEX
8
0
62
30
10
0.34071513
20
1.0357729
30
0
70
32
0
VERTEX
8
0
62
30
10
0.38314154
20
1.0357729
30
0
70
32
0
SEQEND
8
0
0
POLYLINE
8
0
62
5
66
1
10
0
20
0
30
0
70
8
0
VERTEX
8
0
62
5
10
0.21343591
20
1.0357729
30
0
70
32
0
VERTEX
8
0
62
5
10
0.23464912
20
1.0357729
30
0
70
32
0
SEQEND
8
0
0
POLYLINE
8
0
62
5
66
1
10
0
20
0
30
0
70
8
0
VERTEX
8
0
62
5
10
0.29828873
20
1.0357729
30
0
70
32
0
VERTEX
8
0
62
5
10
0.31950193
20
1.0357729
30
0
70
32
0
SEQEND
8
0
0
POLYLINE
8
0
62
5
66
1
10
0
20
0
30
0
70
8
0
VERTEX
8
0
62
5
10
0.23464912
20
1.0357729
30
0
70
32
0
VERTEX
8
0
62
5
10
0.25586232
20
1.0357729
30
0
70
32
0
SEQEND
8
0
0
POLYLINE
8
0
62
5
66
1
10
0
20
0
30
0
70
8
0
VERTEX
8
0
62
5
10
0.31950193
20
1.0357729
30
0
70
32
0
VERTEX
8
0
62
5
10
0.34071513
20
1.0357729
30
0
70
32
0
SEQEND
8
0
0
POLYLINE
8
0
62
5
66
1
10
0
20
0
30
0
70
8
0
VERTEX
8
0
62
5
10
0.25586232
20
1.0057729
30
0
70
32
0
VERTEX
8
0
62
5
10
0.25586232
20
1.0657729
30
0
70
32
0
SEQEND
8
0
0
POLYLINE
8
0
62
5
66
1
10
0
20
0
30
0
70
8
0
VERTEX
8
0
62
5
10
0.29828873
20
1.0057729
30
0
70
32
0
VERTEX
8
0
62
5
10
0.29828873
20
1.0657729
30
0
70
32
0
SEQEND
8
0
0
POLYLINE
8
0
62
5
66
1
10
0
20
0
30
0
70
8
0
VERTEX
8
0
62
5
10
0.34071513
20
1.0057729
30
0
70
32
0
VERTEX
8
0
62
5
10
0.34071513
20
1.0657729
30
0
70
32
0
SEQEND
8
0
0
POLYLINE
8
0
62
5
66
1
10
0
20
0
30
0
70
8
0
VERTEX
8
0
62
5
10
0.21343591
20
1.0057729
30
0
70
32
0
VERTEX
8
0
62
5
10
0.21343591
20
1.0657729
30
0
70
32
0
SEQEND
8
0
0
POLYLINE
8
0
62
5
66
1
10
0
20
0
30
0
70
8
0
VERTEX
8
0
62
5
10
-0.12597534
20
1.0057729
30
0
70
32
0
VERTEX
8
0
62
5
10
-0.12597534
20
1.0657729
30
0
70
32
0
SEQEND
8
0
0
POLYLINE
8
0
62
5
66
1
10
0
20
0
30
0
70
8
0
VERTEX
8
0
62
5
10
-0.12597534
20
1.0057729
30
0
70
32
0
VERTEX
8
0
62
5
10
0.043730286
20
1.0057729
30
0
70
32
0
SEQEND
8
0
0
POLYLINE
8
0
62
5
66
1
10
0
20
0
30
0
70
8
0
VERTEX
8
0
62
5
10
-0.12597534
20
1.0657729
30
0
70
32
0
VERTEX
8
0
62
5
10
0.043730286
20
1.0657729
30
0
70
32
0
SEQEND
8
0
0
POLYLINE
8
0
62
5
66
1
10
0
20
0
30
0
70
8
0
VERTEX
8
0
62
5
10
-0.083548934
20
1.0057729
30
0
70
32
0
VERTEX
8
0
62
5
10
-0.083548934
20
1.0057729
30
0
70
32
0
SEQEND
8
0
0
POLYLINE
8
0
62
5
66
1
10
0
20
0
30
0
70
8
0
VERTEX
8
0
62
5
10
-0.041122527
20
1.0057729
30
0
70
32
0
VERTEX
8
0
62
5
10
-0.041122527
20
1.0057729
30
0
70
32
0
SEQEND
8
0
0
POLYLINE
8
0
62
5
66
1
10
0
20
0
30
0
70
8
0
VERTEX
8
0
62
5
10
0.0013038795
20
1.0057729
30
0
70
32
0
VERTEX
8
0
62
5
10
0.0013038795
20
1.0057729
30
0
70
32
0
SEQEND
8
0
0
POLYLINE
8
0
62
5
66
1
10
0
20
0
30
0
70
8
0
VERTEX
8
0
62
5
10
-0.083548934
20
1.0657729
30
0
70
32
0
VERTEX
8
0
62
5
10
-0.083548934
20
1.0657729
30
0
70
32
0
SEQEND
8
0
0
POLYLINE
8
0
62
5
66
1
10
0
20
0
30
0
70
8
0
VERTEX
8
0
62
5
10
-0.041122527
20
1.0657729
30
0
70
32
0
VERTEX
8
0
62
5
10
-0.041122527
20
1.0657729
30
0
70
32
0
SEQEND
8
0
0
POLYLINE
8
0
62
5
66
1
10
0
20
0
30
0
70
8
0
VERTEX
8
0
62
5
10
0.0013038795
20
1.0657729
30
0
70
32
0
VERTEX
8
0
62
5
10
0.0013038795
20
1.0657729
30
0
70
32
0
SEQEND
8
0
0
POLYLINE
8
0
62
30
66
1
10
0
20
0
30
0
70
8
0
VERTEX
8
0
62
30
10
-0.12597534
20
1.0657729
30
0
70
32
0
VERTEX
8
0
62
30
10
-0.083548934
20
1.0057729
30
0
70
32
0
SEQEND
8
0
0
POLYLINE
8
0
62
30
66
1
10
0
20
0
30
0
70
8
0
VERTEX
8
0
62
30
10
-0.083548934
20
1.0657729
30
0
70
32
0
VERTEX
8
0
62
30
10
-0.12597534
20
1.0057729
30
0
70
32
0
SEQEND
8
0
0
POLYLINE
8
0
62
30
66
1
10
0
20
0
30
0
70
8
0
VERTEX
8
0
62
30
10
-0.041122527
20
1.0657729
30
0
70
32
0
VERTEX
8
0
62
30
10
0.0013038795
20
1.0057729
30
0
70
32
0
SEQEND
8
0
0
POLYLINE
8
0
62
30
66
1
10
0
20
0
30
0
70
8
0
VERTEX
8
0
62
30
10
0.0013038795
20
1.0657729
30
0
70
32
0
VERTEX
8
0
62
30
10
-0.041122527
20
1.0057729
30
0
70
32
0
SEQEND
8
0
0
POLYLINE
8
0
62
30
66
1
10
0
20
0
30
0
70
8
0
VERTEX
8
0
62
30
10
-0.083548934
20
1.0357729
30
0
70
32
0
VERTEX
8
0
62
30
10
-0.041122527
20
1.0357729
30
0
70
32
0
SEQEND
8
0
0
POLYLINE
8
0
62
30
66
1
10
0
20
0
30
0
70
8
0
VERTEX
8
0
62
30
10
0.0013038795
20
1.0357729
30
0
70
32
0
VERTEX
8
0
62
30
10
0.043730286
20
1.0357729
30
0
70
32
0
SEQEND
8
0
0
POLYLINE
8
0
62
5
66
1
10
0
20
0
30
0
70
8
0
VERTEX
8
0
62
5
10
-0.12597534
20
1.0357729
30
0
70
32
0
VERTEX
8
0
62
5
10
-0.10476214
20
1.0357729
30
0
70
32
0
SEQEND
8
0
0
POLYLINE
8
0
62
5
66
1
10
0
20
0
30
0
70
8
0
VERTEX
8
0
62
5
10
-0.041122527
20
1.0357729
30
0
70
32
0
VERTEX
8
0
62
5
10
-0.019909324
20
1.0357729
30
0
70
32
0
SEQEND
8
0
0
POLYLINE
8
0
62
5
66
1
10
0
20
0
30
0
70
8
0
VERTEX
8
0
62
5
10
-0.10476214
20
1.0357729
30
0
70
32
0
VERTEX
8
0
62
5
10
-0.083548934
20
1.0357729
30
0
70
32
0
SEQEND
8
0
0
POLYLINE
8
0
62
5
66
1
10
0
20
0
30
0
70
8
0
VERTEX
8
0
62
5
10
-0.019909324
20
1.0357729
30
0
70
32
0
VERTEX
8
0
62
5
10
0.0013038795
20
1.0357729
30
0
70
32
0
SEQEND
8
0
0
POLYLINE
8
0
62
5
66
1
10
0
20
0
30
0
70
8
0
VERTEX
8
0
62
5
10
-0.083548934
20
1.0057729
30
0
70
32
0
VERTEX
8
0
62
5
10
-0.083548934
20
1.0657729
30
0
70
32
0
SEQEND
8
0
0
POLYLINE
8
0
62
5
66
1
10
0
20
0
30
0
70
8
0
VERTEX
8
0
62
5
10
-0.041122527
20
1.0057729
30
0
70
32
0
VERTEX
8
0
62
5
10
-0.041122527
20
1.0657729
30
0
70
32
0
SEQEND
8
0
0
POLYLINE
8
0
62
5
66
1
10
0
20
0
30
0
70
8
0
VERTEX
8
0
62
5
10
0.0013038795
20
1.0057729
30
0
70
32
0
VERTEX
8
0
62
5
10
0.0013038795
20
1.0657729
30
0
70
32
0
SEQEND
8
0
0
POLYLINE
8
0
62
5
66
1
10
0
20
0
30
0
70
8
0
VERTEX
8
0
62
5
10
-0.12597534
20
1.0057729
30
0
70
32
0
VERTEX
8
0
62
5
10
-0.12597534
20
1.0657729
30
0
70
32
0
SEQEND
8
0
0
POLYLINE
8
0
62
5
66
1
10
0
20
0
30
0
70
8
0
VERTEX
8
0
62
5
10
0.043730286
20
1.0657729
30
0
70
32
0
VERTEX
8
0
62
5
10
0.043730286
20
1.1949881
30
0
70
32
0
SEQEND
8
0
0
POLYLINE
8
0
62
5
66
1
10
0
20
0
30
0
70
8
0
VERTEX
8
0
62
5
10
0.21343591
20
1.1949881
30
0
70
32
0
VERTEX
8
0
62
5
10
0.21343591
20
1.0657729
30
0
70
32
0
SEQEND
8
0
0
POLYLINE
8
0
62
5
66
1
10
0
20
0
30
0
70
8
0
VERTEX
8
0
62
5
10
0.043730286
20
1.0766272
30
0
70
32
0
VERTEX
8
0
62
5
10
0.086156693
20
1.0668222
30
0
70
32
0
VERTEX
8
0
62
5
10
0.1285831
20
1.0882717
30
0
70
32
0
VERTEX
8
0
62
5
10
0.17100951
20
1.0980767
30
0
70
32
0
VERTEX
8
0
62
5
10
0.21343591
20
1.0766272
30
0
70
32
0
SEQEND
8
0
0
POLYLINE
8
0
62
5
66
1
10
0
20
0
30
0
70
8
0
VERTEX
8
0
62
5
10
0.043730286
20
1.1412348
30
0
70
32
0
VERTEX
8
0
62
5
10
0.086156693
20
1.1314298
30
0
70
32
0
VERTEX
8
0
62
5
10
0.1285831
20
1.1528793
30
0
70
32
0
VERTEX
8
0
62
5
10
0.17100951
20
1.1626843
30
0
70
32
0
VERTEX
8
0
62
5
10
0.21343591
20
1.1412348
30
0
70
32
0
SEQEND
8
0
0
POLYLINE
8
0
62
5
66
1
10
0
20
0
30
0
70
8
0
VERTEX
8
0
62
5
10
0.043730286
20
1.1195261
30
0
70
32
0
VERTEX
8
0
62
5
10
0.086156693
20
1.1293311
30
0
70
32
0
VERTEX
8
0
62
5
10
0.1285831
20
1.1078817
30
0
70
32
0
VERTEX
8
0
62
5
10
0.17100951
20
1.0980767
30
0
70
32
0
VERTEX
8
0
62
5
10
0.21343591
20
1.1195261
30
0
70
32
0
SEQEND
8
0
0
POLYLINE
8
0
62
5
66
1
10
0
20
0
30
0
70
8
0
VERTEX
8
0
62
5
10
0.043730286
20
1.1841337
30
0
70
32
0
VERTEX
8
0
62
5
10
0.086156693
20
1.1939387
30
0
70
32
0
VERTEX
8
0
62
5
10
0.1285831
20
1.1724893
30
0
70
32
0
VERTEX
8
0
62
5
10
0.17100951
20
1.1626843
30
0
70
32
0
VERTEX
8
0
62
5
10
0.21343591
20
1.1841337
30
0
70
32
0
SEQEND
8
0
0
POLYLINE
8
0
62
30
66
1
10
0
20
0
30
0
70
8
0
VERTEX
8
0
62
30
10
0.043730286
20
1.1626843
30
0
70
32
0
VERTEX
8
0
62
30
10
0.21343591
20
1.1626843
30
0
70
32
0
SEQEND
8
0
0
POLYLINE
8
0
62
30
66
1
10
0
20
0
30
0
70
8
0
VERTEX
8
0
62
30
10
0.086156693
20
1.0668222
30
0
70
32
0
VERTEX
8
0
62
30
10
0.086156693
20
1.0980767
30
0
70
32
0
SEQEND
8
0
0
POLYLINE
8
0
62
30
66
1
10
0
20
0
30
0
70
8
0
VERTEX
8
0
62
30
10
0.1285831
20
1.0882717
30
0
70
32
0
VERTEX
8
0
62
30
10
0.1285831
20
1.0980767
30
0
70
32
0
SEQEND
8
0
0
POLYLINE
8
0
62
30
66
1
10
0
20
0
30
0
70
8
0
VERTEX
8
0
62
30
10
0.17100951
20
1.0980767
30
0
70
32
0
VERTEX
8
0
62
30
10
0.17100951
20
1.0980767
30
0
70
32
0
SEQEND
8
0
0
POLYLINE
8
0
62
30
66
1
10
0
20
0
30
0
70
8
0
VERTEX
8
0
62
30
10
0.086156693
20
1.1314298
30
0
70
32
0
VERTEX
8
0
62
30
10
0.086156693
20
1.1626843
30
0
70
32
0
SEQEND
8
0
0
POLYLINE
8
0
62
30
66
1
10
0
20
0
30
0
70
8
0
VERTEX
8
0
62
30
10
0.086156693
20
1.1626843
30
0
70
32
0
VERTEX
8
0
62
30
10
0.1285831
20
1.1528793
30
0
70
32
0
SEQEND
8
0
0
POLYLINE
8
0
62
30
66
1
10
0
20
0
30
0
70
8
0
VERTEX
8
0
62
30
10
0.1285831
20
1.1528793
30
0
70
32
0
VERTEX
8
0
62
30
10
0.1285831
20
1.1626843
30
0
70
32
0
SEQEND
8
0
0
POLYLINE
8
0
62
30
66
1
10
0
20
0
30
0
70
8
0
VERTEX
8
0
62
30
10
0.1285831
20
1.1626843
30
0
70
32
0
VERTEX
8
0
62
30
10
0.17100951
20
1.1626843
30
0
70
32
0
SEQEND
8
0
0
POLYLINE
8
0
62
30
66
1
10
0
20
0
30
0
70
8
0
VERTEX
8
0
62
30
10
0.17100951
20
1.1626843
30
0
70
32
0
VERTEX
8
0
62
30
10
0.17100951
20
1.1626843
30
0
70
32
0
SEQEND
8
0
0
POLYLINE
8
0
62
5
66
1
10
0
20
0
30
0
70
8
0
VERTEX
8
0
62
5
10
0.086156693
20
1.0657729
30
0
70
32
0
VERTEX
8
0
62
5
10
0.086156693
20
1.0668222
30
0
70
32
0
SEQEND
8
0
0
POLYLINE
8
0
62
5
66
1
10
0
20
0
30
0
70
8
0
VERTEX
8
0
62
5
10
0.1285831
20
1.0657729
30
0
70
32
0
VERTEX
8
0
62
5
10
0.1285831
20
1.0882717
30
0
70
32
0
SEQEND
8
0
0
POLYLINE
8
0
62
5
66
1
10
0
20
0
30
0
70
8
0
VERTEX
8
0
62
5
10
0.17100951
20
1.0657729
30
0
70
32
0
VERTEX
8
0
62
5
10
0.17100951
20
1.0980767
30
0
70
32
0
SEQEND
8
0
0
POLYLINE
8
0
62
5
66
1
10
0
20
0
30
0
70
8
0
VERTEX
8
0
62
5
10
0.086156693
20
1.1303805
30
0
70
32
0
VERTEX
8
0
62
5
10
0.086156693
20
1.1314298
30
0
70
32
0
SEQEND
8
0
0
POLYLINE
8
0
62
5
66
1
10
0
20
0
30
0
70
8
0
VERTEX
8
0
62
5
10
0.1285831
20
1.1303805
30
0
70
32
0
VERTEX
8
0
62
5
10
0.1285831
20
1.1528793
30
0
70
32
0
SEQEND
8
0
0
POLYLINE
8
0
62
5
66
1
10
0
20
0
30
0
70
8
0
VERTEX
8
0
62
5
10
0.17100951
20
1.1303805
30
0
70
32
0
VERTEX
8
0
62
5
10
0.17100951
20
1.1626843
30
0
70
32
0
SEQEND
8
0
0
POLYLINE
8
0
62
5
66
1
10
0
20
0
30
0
70
8
0
VERTEX
8
0
62
5
10
0.086156693
20
1.0980767
30
0
70
32
0
VERTEX
8
0
62
5
10
0.086156693
20
1.1303805
30
0
70
32
0
SEQEND
8
0
0
POLYLINE
8
0
62
5
66
1
10
0
20
0
30
0
70
8
0
VERTEX
8
0
62
5
10
0.1285831
20
1.0980767
30
0
70
32
0
VERTEX
8
0
62
5
10
0.1285831
20
1.1303805
30
0
70
32
0
SEQEND
8
0
0
POLYLINE
8
0
62
5
66
1
10
0
20
0
30
0
70
8
0
VERTEX
8
0
62
5
10
0.17100951
20
1.0980767
30
0
70
32
0
VERTEX
8
0
62
5
10
0.17100951
20
1.1303805
30
0
70
32
0
SEQEND
8
0
0
POLYLINE
8
0
62
5
66
1
10
0
20
0
30
0
70
8
0
VERTEX
8
0
62
5
10
0.086156693
20
1.1626843
30
0
70
32
0
VERTEX
8
0
62
5
10
0.086156693
20
1.1949881
30
0
70
32
0
SEQEND
8
0
0
POLYLINE
8
0
62
5
66
1
10
0
20
0
30
0
70
8
0
VERTEX
8
0
62
5
10
0.1285831
20
1.1626843
30
0
70
32
0
VERTEX
8
0
62
5
10
0.1285831
20
1.1949881
30
0
70
32
0
SEQEND
8
0
0
POLYLINE
8
0
62
5
66
1
10
0
20
0
30
0
70
8
0
VERTEX
8
0
62
5
10
0.17100951
20
1.1626843
30
0
70
32
0
VERTEX
8
0
62
5
10
0.17100951
20
1.1949881
30
0
70
32
0
SEQEND
8
0
0
POLYLINE
8
0
62
5
66
1
10
0
20
0
30
0
70
8
0
VERTEX
8
0
62
5
10
0.38314154
20
1.1949881
30
0
70
32
0
VERTEX
8
0
62
5
10
0.38314154
20
1.0657729
30
0
70
32
0
SEQEND
8
0
0
POLYLINE
8
0
62
5
66
1
10
0
20
0
30
0
70
8
0
VERTEX
8
0
62
5
10
0.21343591
20
1.0766272
30
0
70
32
0
VERTEX
8
0
62
5
10
0.25586232
20
1.0668222
30
0
70
32
0
VERTEX
8
0
62
5
10
0.29828873
20
1.0882717
30
0
70
32
0
VERTEX
8
0
62
5
10
0.34071513
20
1.0980767
30
0
70
32
0
VERTEX
8
0
62
5
10
0.38314154
20
1.0766272
30
0
70
32
0
SEQEND
8
0
0
POLYLINE
8
0
62
5
66
1
10
0
20
0
30
0
70
8
0
VERTEX
8
0
62
5
10
0.21343591
20
1.1412348
30
0
70
32
0
VERTEX
8
0
62
5
10
0.25586232
20
1.1314298
30
0
70
32
0
VERTEX
8
0
62
5
10
0.29828873
20
1.1528793
30
0
70
32
0
VERTEX
8
0
62
5
10
0.34071513
20
1.1626843
30
0
70
32
0
VERTEX
8
0
62
5
10
0.38314154
20
1.1412348
30
0
70
32
0
SEQEND
8
0
0
POLYLINE
8
0
62
5
66
1
10
0
20
0
30
0
70
8
0
VERTEX
8
0
62
5
10
0.21343591
20
1.1195261
30
0
70
32
0
VERTEX
8
0
62
5
10
0.25586232
20
1.1293311
30
0
70
32
0
VERTEX
8
0
62
5
10
0.29828873
20
1.1078817
30
0
70
32
0
VERTEX
8
0
62
5
10
0.34071513
20
1.0980767
30
0
70
32
0
VERTEX
8
0
62
5
10
0.38314154
20
1.1195261
30
0
70
32
0
SEQEND
8
0
0
POLYLINE
8
0
62
5
66
1
10
0
20
0
30
0
70
8
0
VERTEX
8
0
62
5
10
0.21343591
20
1.1841337
30
0
70
32
0
VERTEX
8
0
62
5
10
0.25586232
20
1.1939387
30
0
70
32
0
VERTEX
8
0
62
5
10
0.29828873
20
1.1724893
30
0
70
32
0
VERTEX
8
0
62
5
10
0.34071513
20
1.1626843
30
0
70
32
0
VERTEX
8
0
62
5
10
0.38314154
20
1.1841337
30
0
70
32
0
SEQEND
8
0
0
POLYLINE
8
0
62
30
66
1
10
0
20
0
30
0
70
8
0
VERTEX
8
0
62
30
10
0.21343591
20
1.1626843
30
0
70
32
0
VERTEX
8
0
62
30
10
0.38314154
20
1.1626843
30
0
70
32
0
SEQEND
8
0
0
POLYLINE
8
0
62
30
66
1
10
0
20
0
30
0
70
8
0
VERTEX
8
0
62
30
10
0.25586232
20
1.0668222
30
0
70
32
0
VERTEX
8
0
62
30
10
0.25586232
20
1.0980767
30
0
70
32
0
SEQEND
8
0
0
POLYLINE
8
0
62
30
66
1
10
0
20
0
30
0
70
8
0
VERTEX
8
0
62
30
10
0.29828873
20
1.0882717
30
0
70
32
0
VERTEX
8
0
62
30
10
0.29828873
20
1.0980767
30
0
70
32
0
SEQEND
8
0
0
POLYLINE
8
0
62
30
66
1
10
0
20
0
30
0
70
8
0
VERTEX
8
0
62
30
10
0.34071513
20
1.0980767
30
0
70
32
0
VERTEX
8
0
62
30
10
0.34071513
20
1.0980767
30
0
70
32
0
SEQEND
8
0
0
POLYLINE
8
0
62
30
66
1
10
0
20
0
30
0
70
8
0
VERTEX
8
0
62
30
10
0.25586232
20
1.1314298
30
0
70
32
0
VERTEX
8
0
62
30
10
0.25586232
20
1.1626843
30
0
70
32
0
SEQEND
8
0
0
POLYLINE
8
0
62
30
66
1
10
0
20
0
30
0
70
8
0
VERTEX
8
0
62
30
10
0.25586232
20
1.1626843
30
0
70
32
0
VERTEX
8
0
62
30
10
0.29828873
20
1.1528793
30
0
70
32
0
SEQEND
8
0
0
POLYLINE
8
0
62
30
66
1
10
0
20
0
30
0
70
8
0
VERTEX
8
0
62
30
10
0.29828873
20
1.1528793
30
0
70
32
0
VERTEX
8
0
62
30
10
0.29828873
20
1.1626843
30
0
70
32
0
SEQEND
8
0
0
POLYLINE
8
0
62
30
66
1
10
0
20
0
30
0
70
8
0
VERTEX
8
0
62
30
10
0.29828873
20
1.1626843
30
0
70
32
0
VERTEX
8
0
62
30
10
0.34071513
20
1.1626843
30
0
70
32
0
SEQEND
8
0
0
POLYLINE
8
0
62
30
66
1
10
0
20
0
30
0
70
8
0
VERTEX
8
0
62
30
10
0.34071513
20
1.1626843
30
0
70
32
0
VERTEX
8
0
62
30
10
0.34071513
20
1.1626843
30
0
70
32
0
SEQEND
8
0
0
POLYLINE
8
0
62
5
66
1
10
0
20
0
30
0
70
8
0
VERTEX
8
0
62
5
10
0.25586232
20
1.0657729
30
0
70
32
0
VERTEX
8
0
62
5
10
0.25586232
20
1.0668222
30
0
70
32
0
SEQEND
8
0
0
POLYLINE
8
0
62
5
66
1
10
0
20
0
30
0
70
8
0
VERTEX
8
0
62
5
10
0.29828873
20
1.0657729
30
0
70
32
0
VERTEX
8
0
62
5
10
0.29828873
20
1.0882717
30
0
70
32
0
SEQEND
8
0
0
POLYLINE
8
0
62
5
66
1
10
0
20
0
30
0
70
8
0
VERTEX
8
0
62
5
10
0.34071513
20
1.0657729
30
0
70
32
0
VERTEX
8
0
62
5
10
0.34071513
20
1.0980767
30
0
70
32
0
SEQEND
8
0
0
POLYLINE
8
0
62
5
66
1
10
0
20
0
30
0
70
8
0
VERTEX
8
0
62
5
10
0.25586232
20
1.1303805
30
0
70
32
0
VERTEX
8
0
62
5
10
0.25586232
20
1.1314298
30
0
70
32
0
SEQEND
8
0
0
POLYLINE
8
0
62
5
66
1
10
0
20
0
30
0
70
8
0
VERTEX
8
0
62
5
10
0.29828873
20
1.1303805
30
0
70
32
0
VERTEX
8
0
62
5
10
0.29828873
20
1.1528793
30
0
70
32
0
SEQEND
8
0
0
POLYLINE
8
0
62
5
66
1
10
0
20
0
30
0
70
8
0
VERTEX
8
0
62
5
10
0.34071513
20
1.1303805
30
0
70
32
0
VERTEX
8
0
62
5
10
0.34071513
20
1.1626843
30
0
70
32
0
SEQEND
8
0
0
POLYLINE
8
0
62
5
66
1
10
0
20
0
30
0
70
8
0
VERTEX
8
0
62
5
10
0.25586232
20
1.0980767
30
0
70
32
0
VERTEX
8
0
62
5
10
0.25586232
20
1.1303805
30
0
70
32
0
SEQEND
8
0
0
POLYLINE
8
0
62
5
66
1
10
0
20
0
30
0
70
8
0
VERTEX
8
0
62
5
10
0.29828873
20
1.0980767
30
0
70
32
0
VERTEX
8
0
62
5
10
0.29828873
20
1.1303805
30
0
70
32
0
SEQEND
8
0
0
POLYLINE
8
0
62
5
66
1
10
0
20
0
30
0
70
8
0
VERTEX
8
0
62
5
10
0.34071513
20
1.0980767
30
0
70
32
0
VERTEX
8
0
62
5
10
0.34071513
20
1.1303805
30
0
70
32
0
SEQEND
8
0
0
POLYLINE
8
0
62
5
66
1
10
0
20
0
30
0
70
8
0
VERTEX
8
0
62
5
10
0.25586232
20
1.1626843
30
0
70
32
0
VERTEX
8
0
62
5
10
0.25586232
20
1.1949881
30
0
70
32
0
SEQEND
8
0
0
POLYLINE
8
0
62
5
66
1
10
0
20
0
30
0
70
8
0
VERTEX
8
0
62
5
10
0.29828873
20
1.1626843
30
0
70
32
0
VERTEX
8
0
62
5
10
0.29828873
20
1.1949881
30
0
70
32
0
SEQEND
8
0
0
POLYLINE
8
0
62
5
66
1
10
0
20
0
30
0
70
8
0
VERTEX
8
0
62
5
10
0.34071513
20
1.1626843
30
0
70
32
0
VERTEX
8
0
62
5
10
0.34071513
20
1.1949881
30
0
70
32
0
SEQEND
8
0
0
POLYLINE
8
0
62
5
66
1
10
0
20
0
30
0
70
8
0
VERTEX
8
0
62
5
10
-0.12597534
20
1.0657729
30
0
70
32
0
VERTEX
8
0
62
5
10
-0.12597534
20
1.1949881
30
0
70
32
0
SEQEND
8
0
0
POLYLINE
8
0
62
5
66
1
10
0
20
0
30
0
70
8
0
VERTEX
8
0
62
5
10
-0.12597534
20
1.0766272
30
0
70
32
0
VERTEX
8
0
62
5
10
-0.083548934
20
1.0668222
30
0
70
32
0
VERTEX
8
0
62
5
10
-0.041122527
20
1.0882717
30
0
70
32
0
VERTEX
8
0
62
5
10
0.0013038795
20
1.0980767
30
0
70
32
0
VERTEX
8
0
62
5
10
0.043730286
20
1.0766272
30
0
70
32
0
SEQEND
8
0
0
POLYLINE
8
0
62
5
66
1
10
0
20
0
30
0
70
8
0
VERTEX
8
0
62
5
10
-0.12597534
20
1.1412348
30
0
70
32
0
VERTEX
8
0
62
5
10
-0.083548934
20
1.1314298
30
0
70
32
0
VERTEX
8
0
62
5
10
-0.041122527
20
1.1528793
30
0
70
32
0
VERTEX
8
0
62
5
10
0.0013038795
20
1.1626843
30
0
70
32
0
VERTEX
8
0
62
5
10
0.043730286
20
1.1412348
30
0
70
32
0
SEQEND
8
0
0
POLYLINE
8
0
62
5
66
1
10
0
20
0
30
0
70
8
0
VERTEX
8
0
62
5
10
-0.12597534
20
1.1195261
30
0
70
32
0
VERTEX
8
0
62
5
10
-0.083548934
20
1.1293311
30
0
70
32
0
VERTEX
8
0
62
5
10
-0.041122527
20
1.1078817
30
0
70
32
0
VERTEX
8
0
62
5
10
0.0013038795
20
1.0980767
30
0
70
32
0
VERTEX
8
0
62
5
10
0.043730286
20
1.1195261
30
0
70
32
0
SEQEND
8
0
0
POLYLINE
8
0
62
5
66
1
10
0
20
0
30
0
70
8
0
VERTEX
8
0
62
5
10
-0.12597534
20
1.1841337
30
0
70
32
0
VERTEX
8
0
62
5
10
-0.083548934
20
1.1939387
30
0
70
32
0
VERTEX
8
0
62
5
10
-0.041122527
20
1.1724893
30
0
70
32
0
VERTEX
8
0
62
5
10
0.0013038795
20
1.1626843
30
0
70
32
0
VERTEX
8
0
62
5
10
0.043730286
20
1.1841337
30
0
70
32
0
SEQEND
8
0
0
POLYLINE
8
0
62
30
66
1
10
0
20
0
30
0
70
8
0
VERTEX
8
0
62
30
10
-0.12597534
20
1.1626843
30
0
70
32
0
VERTEX
8
0
62
30
10
0.043730286
20
1.1626843
30
0
70
32
0
SEQEND
8
0
0
POLYLINE
8
0
62
30
66
1
10
0
20
0
30
0
70
8
0
VERTEX
8
0
62
30
10
-0.083548934
20
1.0668222
30
0
70
32
0
VERTEX
8
0
62
30
10
-0.083548934
20
1.0980767
30
0
70
32
0
SEQEND
8
0
0
POLYLINE
8
0
62
30
66
1
10
0
20
0
30
0
70
8
0
VERTEX
8
0
62
30
10
-0.041122527
20
1.0882717
30
0
70
32
0
VERTEX
8
0
62
30
10
-0.041122527
20
1.0980767
30
0
70
32
0
SEQEND
8
0
0
POLYLINE
8
0
62
30
66
1
10
0
20
0
30
0
70
8
0
VERTEX
8
0
62
30
10
0.0013038795
20
1.0980767
30
0
70
32
0
VERTEX
8
0
62
30
10
0.0013038795
20
1.0980767
30
0
70
32
0
SEQEND
8
0
0
POLYLINE
8
0
62
30
66
1
10
0
20
0
30
0
70
8
0
VERTEX
8
0
62
30
10
-0.083548934
20
1.1314298
30
0
70
32
0
VERTEX
8
0
62
30
10
-0.083548934
20
1.1626843
30
0
70
32
0
SEQEND
8
0
0
POLYLINE
8
0
62
30
66
1
10
0
20
0
30
0
70
8
0
VERTEX
8
0
62
30
10
-0.083548934
20
1.1626843
30
0
70
32
0
VERTEX
8
0
62
30
10
-0.041122527
20
1.1528793
30
0
70
32
0
SEQEND
8
0
0
POLYLINE
8
0
62
30
66
1
10
0
20
0
30
0
70
8
0
VERTEX
8
0
62
30
10
-0.041122527
20
1.1528793
30
0
70
32
0
VERTEX
8
0
62
30
10
-0.041122527
20
1.1626843
30
0
70
32
0
SEQEND
8
0
0
POLYLINE
8
0
62
30
66
1
10
0
20
0
30
0
70
8
0
VERTEX
8
0
62
30
10
-0.041122527
20
1.1626843
30
0
70
32
0
VERTEX
8
0
62
30
10
0.0013038795
20
1.1626843
30
0
70
32
0
SEQEND
8
0
0
POLYLINE
8
0
62
30
66
1
10
0
20
0
30
0
70
8
0
VERTEX
8
0
62
30
10
0.0013038795
20
1.1626843
30
0
70
32
0
VERTEX
8
0
62
30
10
0.0013038795
20
1.1626843
30
0
70
32
0
SEQEND
8
0
0
POLYLINE
8
0
62
5
66
1
10
0
20
0
30
0
70
8
0
VERTEX
8
0
62
5
10
-0.083548934
20
1.0657729
30
0
70
32
0
VERTEX
8
0
62
5
10
-0.083548934
20
1.0668222
30
0
70
32
0
SEQEND
8
0
0
POLYLINE
8
0
62
5
66
1
10
0
20
0
30
0
70
8
0
VERTEX
8
0
62
5
10
-0.041122527
20
1.0657729
30
0
70
32
0
VERTEX
8
0
62
5
10
-0.041122527
20
1.0882717
30
0
70
32
0
SEQEND
8
0
0
POLYLINE
8
0
62
5
66
1
10
0
20
0
30
0
70
8
0
VERTEX
8
0
62
5
10
0.0013038795
20
1.0657729
30
0
70
32
0
VERTEX
8
0
62
5
10
0.0013038795
20
1.0980767
30
0
70
32
0
SEQEND
8
0
0
POLYLINE
8
0
62
5
66
1
10
0
20
0
30
0
70
8
0
VERTEX
8
0
62
5
10
-0.083548934
20
1.1303805
30
0
70
32
0
VERTEX
8
0
62
5
10
-0.083548934
20
1.1314298
30
0
70
32
0
SEQEND
8
0
0
POLYLINE
8
0
62
5
66
1
10
0
20
0
30
0
70
8
0
VERTEX
8
0
62
5
10
-0.041122527
20
1.1303805
30
0
70
32
0
VERTEX
8
0
62
5
10
-0.041122527
20
1.1528793
30
0
70
32
0
SEQEND
8
0
0
POLYLINE
8
0
62
5
66
1
10
0
20
0
30
0
70
8
0
VERTEX
8
0
62
5
10
0.0013038795
20
1.1303805
30
0
70
32
0
VERTEX
8
0
62
5
10
0.0013038795
20
1.1626843
30
0
70
32
0
SEQEND
8
0
0
POLYLINE
8
0
62
5
66
1
10
0
20
0
30
0
70
8
0
VERTEX
8
0
62
5
10
-0.083548934
20
1.0980767
30
0
70
32
0
VERTEX
8
0
62
5
10
-0.083548934
20
1.1303805
30
0
70
32
0
SEQEND
8
0
0
POLYLINE
8
0
62
5
66
1
10
0
20
0
30
0
70
8
0
VERTEX
8
0
62
5
10
-0.041122527
20
1.0980767
30
0
70
32
0
VERTEX
8
0
62
5
10
-0.041122527
20
1.1303805
30
0
70
32
0
SEQEND
8
0
0
POLYLINE
8
0
62
5
66
1
10
0
20
0
30
0
70
8
0
VERTEX
8
0
62
5
10
0.0013038795
20
1.0980767
30
0
70
32
0
VERTEX
8
0
62
5
10
0.0013038795
20
1.1303805
30
0
70
32
0
SEQEND
8
0
0
POLYLINE
8
0
62
5
66
1
10
0
20
0
30
0
70
8
0
VERTEX
8
0
62
5
10
-0.083548934
20
1.1626843
30
0
70
32
0
VERTEX
8
0
62
5
10
-0.083548934
20
1.1949881
30
0
70
32
0
SEQEND
8
0
0
POLYLINE
8
0
62
5
66
1
10
0
20
0
30
0
70
8
0
VERTEX
8
0
62
5
10
-0.041122527
20
1.1626843
30
0
70
32
0
VERTEX
8
0
62
5
10
-0.041122527
20
1.1949881
30
0
70
32
0
SEQEND
8
0
0
POLYLINE
8
0
62
5
66
1
10
0
20
0
30
0
70
8
0
VERTEX
8
0
62
5
10
0.0013038795
20
1.1626843
30
0
70
32
0
VERTEX
8
0
62
5
10
0.0013038795
20
1.1949881
30
0
70
32
0
SEQEND
8
0
0
POLYLINE
8
0
62
30
66
1
10
0
20
0
30
0
70
8
0
VERTEX
8
0
62
30
10
0.043730286
20
1.2128576
30
0
70
32
0
VERTEX
8
0
62
30
10
0.21343591
20
1.2128576
30
0
70
32
0
SEQEND
8
0
0
POLYLINE
8
0
62
30
66
1
10
0
20
0
30
0
70
8
0
VERTEX
8
0
62
30
10
0.043730286
20
1.1949881
30
0
70
32
0
VERTEX
8
0
62
30
10
0.21343591
20
1.1949881
30
0
70
32
0
SEQEND
8
0
0
POLYLINE
8
0
62
5
66
1
10
0
20
0
30
0
70
8
0
VERTEX
8
0
62
5
10
0.043730286
20
1.1949881
30
0
70
32
0
VERTEX
8
0
62
5
10
0.046685214
20
1.2128576
30
0
70
32
0
VERTEX
8
0
62
5
10
0.086156693
20
1.1949881
30
0
70
32
0
VERTEX
8
0
62
5
10
0.089111621
20
1.2128576
30
0
70
32
0
VERTEX
8
0
62
5
10
0.1285831
20
1.1949881
30
0
70
32
0
VERTEX
8
0
62
5
10
0.13153803
20
1.2128576
30
0
70
32
0
VERTEX
8
0
62
5
10
0.17100951
20
1.1949881
30
0
70
32
0
VERTEX
8
0
62
5
10
0.17396443
20
1.2128576
30
0
70
32
0
VERTEX
8
0
62
5
10
0.21343591
20
1.1949881
30
0
70
32
0
SEQEND
8
0
0
POLYLINE
8
0
62
5
66
1
10
0
20
0
30
0
70
8
0
VERTEX
8
0
62
5
10
0.086156693
20
1.1949881
30
0
70
32
0
VERTEX
8
0
62
5
10
0.086156693
20
1.1949881
30
0
70
32
0
SEQEND
8
0
0
POLYLINE
8
0
62
5
66
1
10
0
20
0
30
0
70
8
0
VERTEX
8
0
62
5
10
0.1285831
20
1.1949881
30
0
70
32
0
VERTEX
8
0
62
5
10
0.1285831
20
1.1949881
30
0
70
32
0
SEQEND
8
0
0
POLYLINE
8
0
62
5
66
1
10
0
20
0
30
0
70
8
0
VERTEX
8
0
62
5
10
0.17100951
20
1.1949881
30
0
70
32
0
VERTEX
8
0
62
5
10
0.17100951
20
1.1949881
30
0
70
32
0
SEQEND
8
0
0
POLYLINE
8
0
62
5
66
1
10
0
20
0
30
0
70
8
0
VERTEX
8
0
62
5
10
0.046685214
20
1.2128576
30
0
70
32
0
VERTEX
8
0
62
5
10
0.046685214
20
1.2128576
30
0
70
32
0
SEQEND
8
0
0
POLYLINE
8
0
62
5
66
1
10
0
20
0
30
0
70
8
0
VERTEX
8
0
62
5
10
0.089111621
20
1.2128576
30
0
70
32
0
VERTEX
8
0
62
5
10
0.089111621
20
1.2128576
30
0
70
32
0
SEQEND
8
0
0
POLYLINE
8
0
62
5
66
1
10
0
20
0
30
0
70
8
0
VERTEX
8
0
62
5
10
0.13153803
20
1.2128576
30
0
70
32
0
VERTEX
8
0
62
5
10
0.13153803
20
1.2128576
30
0
70
32
0
SEQEND
8
0
0
POLYLINE
8
0
62
5
66
1
10
0
20
0
30
0
70
8
0
VERTEX
8
0
62
5
10
0.17396443
20
1.2128576
30
0
70
32
0
VERTEX
8
0
62
5
10
0.17396443
20
1.2128576
30
0
70
32
0
SEQEND
8
0
0
POLYLINE
8
0
62
30
66
1
10
0
20
0
30
0
70
8
0
VERTEX
8
0
62
30
10
0.21343591
20
1.2128576
30
0
70
32
0
VERTEX
8
0
62
30
10
0.38314154
20
1.2128576
30
0
70
32
0
SEQEND
8
0
0
POLYLINE
8
0
62
30
66
1
10
0
20
0
30
0
70
8
0
VERTEX
8
0
62
30
10
0.21343591
20
1.1949881
30
0
70
32
0
VERTEX
8
0
62
30
10
0.38314154
20
1.1949881
30
0
70
32
0
SEQEND
8
0
0
POLYLINE
8
0
62
5
66
1
10
0
20
0
30
0
70
8
0
VERTEX
8
0
62
5
10
0.21343591
20
1.1949881
30
0
70
32
0
VERTEX
8
0
62
5
10
0.21639084
20
1.2128576
30
0
70
32
0
VERTEX
8
0
62
5
10
0.25586232
20
1.1949881
30
0
70
32
0
VERTEX
8
0
62
5
10
0.25881725
20
1.2128576
30
0
70
32
0
VERTEX
8
0
62
5
10
0.29828873
20
1.1949881
30
0
70
32
0
VERTEX
8
0
62
5
10
0.30124366
20
1.2128576
30
0
70
32
0
VERTEX
8
0
62
5
10
0.34071513
20
1.1949881
30
0
70
32
0
VERTEX
8
0
62
5
10
0.34367006
20
1.2128576
30
0
70
32
0
VERTEX
8
0
62
5
10
0.38314154
20
1.1949881
30
0
70
32
0
SEQEND
8
0
0
POLYLINE
8
0
62
5
66
1
10
0
20
0
30
0
70
8
0
VERTEX
8
0
62
5
10
0.25586232
20
1.1949881
30
0
70
32
0
VERTEX
8
0
62
5
10
0.25586232
20
1.1949881
30
0
70
32
0
SEQEND
8
0
0
POLYLINE
8
0
62
5
66
1
10
0
20
0
30
0
70
8
0
VERTEX
8
0
62
5
10
0.29828873
20
1.1949881
30
0
70
32
0
VERTEX
8
0
62
5
10
0.29828873
20
1.1949881
30
0
70
32
0
SEQEND
8
0
0
POLYLINE
8
0
62
5
66
1
10
0
20
0
30
0
70
8
0
VERTEX
8
0
62
5
10
0.34071513
20
1.1949881
30
0
70
32
0
VERTEX
8
0
62
5
10
0.34071513
20
1.1949881
30
0
70
32
0
SEQEND
8
0
0
POLYLINE
8
0
62
5
66
1
10
0
20
0
30
0
70
8
0
VERTEX
8
0
62
5
10
0.21639084
20
1.2128576
30
0
70
32
0
VERTEX
8
0
62
5
10
0.21639084
20
1.2128576
30
0
70
32
0
SEQEND
8
0
0
POLYLINE
8
0
62
5
66
1
10
0
20
0
30
0
70
8
0
VERTEX
8
0
62
5
10
0.25881725
20
1.2128576
30
0
70
32
0
VERTEX
8
0
62
5
10
0.25881725
20
1.2128576
30
0
70
32
0
SEQEND
8
0
0
POLYLINE
8
0
62
5
66
1
10
0
20
0
30
0
70
8
0
VERTEX
8
0
62
5
10
0.30124366
20
1.2128576
30
0
70
32
0
VERTEX
8
0
62
5
10
0.30124366
20
1.2128576
30
0
70
32
0
SEQEND
8
0
0
POLYLINE
8
0
62
5
66
1
10
0
20
0
30
0
70
8
0
VERTEX
8
0
62
5
10
0.34367006
20
1.2128576
30
0
70
32
0
VERTEX
8
0
62
5
10
0.34367006
20
1.2128576
30
0
70
32
0
SEQEND
8
0
0
POLYLINE
8
0
62
30
66
1
10
0
20
0
30
0
70
8
0
VERTEX
8
0
62
30
10
-0.12597534
20
1.2128576
30
0
70
32
0
VERTEX
8
0
62
30
10
0.043730286
20
1.2128576
30
0
70
32
0
SEQEND
8
0
0
POLYLINE
8
0
62
30
66
1
10
0
20
0
30
0
70
8
0
VERTEX
8
0
62
30
10
-0.12597534
20
1.1949881
30
0
70
32
0
VERTEX
8
0
62
30
10
0.043730286
20
1.1949881
30
0
70
32
0
SEQEND
8
0
0
POLYLINE
8
0
62
5
66
1
10
0
20
0
30
0
70
8
0
VERTEX
8
0
62
5
10
-0.12597534
20
1.1949881
30
0
70
32
0
VERTEX
8
0
62
5
10
-0.12302041
20
1.2128576
30
0
70
32
0
VERTEX
8
0
62
5
10
-0.083548934
20
1.1949881
30
0
70
32
0
VERTEX
8
0
62
5
10
-0.080594007
20
1.2128576
30
0
70
32
0
VERTEX
8
0
62
5
10
-0.041122527
20
1.1949881
30
0
70
32
0
VERTEX
8
0
62
5
10
-0.0381676
20
1.2128576
30
0
70
32
0
VERTEX
8
0
62
5
10
0.0013038795
20
1.1949881
30
0
70
32
0
VERTEX
8
0
62
5
10
0.004258807
20
1.2128576
30
0
70
32
0
VERTEX
8
0
62
5
10
0.043730286
20
1.1949881
30
0
70
32
0
SEQEND
8
0
0
POLYLINE
8
0
62
5
66
1
10
0
20
0
30
0
70
8
0
VERTEX
8
0
62
5
10
-0.083548934
20
1.1949881
30
0
70
32
0
VERTEX
8
0
62
5
10
-0.083548934
20
1.1949881
30
0
70
32
0
SEQEND
8
0
0
POLYLINE
8
0
62
5
66
1
10
0
20
0
30
0
70
8
0
VERTEX
8
0
62
5
10
-0.041122527
20
1.1949881
30
0
70
32
0
VERTEX
8
0
62
5
10
-0.041122527
20
1.1949881
30
0
70
32
0
SEQEND
8
0
0
POLYLINE
8
0
62
5
66
1
10
0
20
0
30
0
70
8
0
VERTEX
8
0
62
5
10
0.0013038795
20
1.1949881
30
0
70
32
0
VERTEX
8
0
62
5
10
0.0013038795
20
1.1949881
30
0
70
32
0
SEQEND
8
0
0
POLYLINE
8
0
62
5
66
1
10
0
20
0
30
0
70
8
0
VERTEX
8
0
62
5
10
-0.12302041
20
1.2128576
30
0
70
32
0
VERTEX
8
0
62
5
10
-0.12302041
20
1.2128576
30
0
70
32
0
SEQEND
8
0
0
POLYLINE
8
0
62
5
66
1
10
0
20
0
30
0
70
8
0
VERTEX
8
0
62
5
10
-0.080594007
20
1.2128576
30
0
70
32
0
VERTEX
8
0
62
5
10
-0.080594007
20
1.2128576
30
0
70
32
0
SEQEND
8
0
0
POLYLINE
8
0
62
5
66
1
10
0
20
0
30
0
70
8
0
VERTEX
8
0
62
5
10
-0.0381676
20
1.2128576
30
0
70
32
0
VERTEX
8
0
62
5
10
-0.0381676
20
1.2128576
30
0
70
32
0
SEQEND
8
0
0
POLYLINE
8
0
62
5
66
1
10
0
20
0
30
0
70
8
0
VERTEX
8
0
62
5
10
0.004258807
20
1.2128576
30
0
70
32
0
VERTEX
8
0
62
5
10
0.004258807
20
1.2128576
30
0
70
32
0
SEQEND
8
0
0
POLYLINE
8
0
62
5
66
1
10
0
20
0
30
0
70
8
0
VERTEX
8
0
62
5
10
0.004258807
20
1.2128576
30
0
70
32
0
VERTEX
8
0
62
5
10
0.004258807
20
1.2835803
30
0
70
32
0
SEQEND
8
0
0
POLYLINE
8
0
62
5
66
1
10
0
20
0
30
0
70
8
0
VERTEX
8
0
62
5
10
0.17396443
20
1.2128576
30
0
70
32
0
VERTEX
8
0
62
5
10
0.17396443
20
1.2835803
30
0
70
32
0
SEQEND
8
0
0
POLYLINE
8
0
62
5
66
1
10
0
20
0
30
0
70
8
0
VERTEX
8
0
62
5
10
0.046685214
20
1.2128576
30
0
70
32
0
VERTEX
8
0
62
5
10
0.046685214
20
1.2835803
30
0
70
32
0
SEQEND
8
0
0
POLYLINE
8
0
62
5
66
1
10
0
20
0
30
0
70
8
0
VERTEX
8
0
62
5
10
0.089111621
20
1.2128576
30
0
70
32
0
VERTEX
8
0
62
5
10
0.089111621
20
1.2835803
30
0
70
32
0
SEQEND
8
0
0
POLYLINE
8
0
62
5
66
1
10
0
20
0
30
0
70
8
0
VERTEX
8
0
62
5
10
0.13153803
20
1.2128576
30
0
70
32
0
VERTEX
8
0
62
5
10
0.13153803
20
1.2835803
30
0
70
32
0
SEQEND
8
0
0
POLYLINE
8
0
62
5
66
1
10
0
20
0
30
0
70
8
0
VERTEX
8
0
62
5
10
0.34367006
20
1.2128576
30
0
70
32
0
VERTEX
8
0
62
5
10
0.34367006
20
1.2835803
30
0
70
32
0
SEQEND
8
0
0
POLYLINE
8
0
62
5
66
1
10
0
20
0
30
0
70
8
0
VERTEX
8
0
62
5
10
0.21639084
20
1.2128576
30
0
70
32
0
VERTEX
8
0
62
5
10
0.21639084
20
1.2835803
30
0
70
32
0
SEQEND
8
0
0
POLYLINE
8
0
62
5
66
1
10
0
20
0
30
0
70
8
0
VERTEX
8
0
62
5
10
0.25881725
20
1.2128576
30
0
70
32
0
VERTEX
8
0
62
5
10
0.25881725
20
1.2835803
30
0
70
32
0
SEQEND
8
0
0
POLYLINE
8
0
62
5
66
1
10
0
20
0
30
0
70
8
0
VERTEX
8
0
62
5
10
0.30124366
20
1.2128576
30
0
70
32
0
VERTEX
8
0
62
5
10
0.30124366
20
1.2835803
30
0
70
32
0
SEQEND
8
0
0
POLYLINE
8
0
62
5
66
1
10
0
20
0
30
0
70
8
0
VERTEX
8
0
62
5
10
-0.16544682
20
1.2128576
30
0
70
32
0
VERTEX
8
0
62
5
10
-0.16544682
20
1.2835803
30
0
70
32
0
SEQEND
8
0
0
POLYLINE
8
0
62
5
66
1
10
0
20
0
30
0
70
8
0
VERTEX
8
0
62
5
10
-0.12302041
20
1.2128576
30
0
70
32
0
VERTEX
8
0
62
5
10
-0.12302041
20
1.2835803
30
0
70
32
0
SEQEND
8
0
0
POLYLINE
8
0
62
5
66
1
10
0
20
0
30
0
70
8
0
VERTEX
8
0
62
5
10
-0.080594007
20
1.2128576
30
0
70
32
0
VERTEX
8
0
62
5
10
-0.080594007
20
1.2835803
30
0
70
32
0
SEQEND
8
0
0
POLYLINE
8
0
62
5
66
1
10
0
20
0
30
0
70
8
0
VERTEX
8
0
62
5
10
-0.0381676
20
1.2128576
30
0
70
32
0
VERTEX
8
0
62
5
10
-0.0381676
20
1.2835803
30
0
70
32
0
SEQEND
8
0
0
POLYLINE
8
0
62
5
66
1
10
0
20
0
30
0
70
8
0
VERTEX
8
0
62
5
10
0.004258807
20
1.2835803
30
0
70
32
0
VERTEX
8
0
62
5
10
0.004258807
20
1.3630219
30
0
70
32
0
SEQEND
8
0
0
POLYLINE
8
0
62
5
66
1
10
0
20
0
30
0
70
8
0
VERTEX
8
0
62
5
10
0.17396443
20
1.3630219
30
0
70
32
0
VERTEX
8
0
62
5
10
0.17396443
20
1.2835803
30
0
70
32
0
SEQEND
8
0
0
POLYLINE
8
0
62
5
66
1
10
0
20
0
30
0
70
8
0
VERTEX
8
0
62
5
10
0.004258807
20
1.3096193
30
0
70
32
0
VERTEX
8
0
62
5
10
0.046685214
20
1.3233011
30
0
70
32
0
VERTEX
8
0
62
5
10
0.089111621
20
1.2980976
30
0
70
32
0
VERTEX
8
0
62
5
10
0.13153803
20
1.2844158
30
0
70
32
0
VERTEX
8
0
62
5
10
0.17396443
20
1.3096193
30
0
70
32
0
SEQEND
8
0
0
POLYLINE
8
0
62
5
66
1
10
0
20
0
30
0
70
8
0
SEQEND
8
0
0
POLYLINE
8
0
62
5
66
1
10
0
20
0
30
0
70
8
0
VERTEX
8
0
62
5
10
0.004258807
20
1.3369829
30
0
70
32
0
VERTEX
8
0
62
5
10
0.046685214
20
1.3233011
30
0
70
32
0
VERTEX
8
0
62
5
10
0.089111621
20
1.3485046
30
0
70
32
0
VERTEX
8
0
62
5
10
0.13153803
20
1.3621864
30
0
70
32
0
VERTEX
8
0
62
5
10
0.17396443
20
1.3369829
30
0
70
32
0
SEQEND
8
0
0
POLYLINE
8
0
62
30
66
1
10
0
20
0
30
0
70
8
0
VERTEX
8
0
62
30
10
0.004258807
20
1.3233011
30
0
70
32
0
VERTEX
8
0
62
30
10
0.17396443
20
1.3233011
30
0
70
32
0
SEQEND
8
0
0
POLYLINE
8
0
62
30
66
1
10
0
20
0
30
0
70
8
0
VERTEX
8
0
62
30
10
0.046685214
20
1.3233011
30
0
70
32
0
VERTEX
8
0
62
30
10
0.046685214
20
1.3233011
30
0
70
32
0
SEQEND
8
0
0
POLYLINE
8
0
62
30
66
1
10
0
20
0
30
0
70
8
0
VERTEX
8
0
62
30
10
0.089111621
20
1.2980976
30
0
70
32
0
VERTEX
8
0
62
30
10
0.089111621
20
1.3233011
30
0
70
32
0
SEQEND
8
0
0
POLYLINE
8
0
62
30
66
1
10
0
20
0
30
0
70
8
0
VERTEX
8
0
62
30
10
0.13153803
20
1.2844158
30
0
70
32
0
VERTEX
8
0
62
30
10
0.13153803
20
1.3233011
30
0
70
32
0
SEQEND
8
0
0
POLYLINE
8
0
62
5
66
1
10
0
20
0
30
0
70
8
0
VERTEX
8
0
62
5
10
0.046685214
20
1.2835803
30
0
70
32
0
VERTEX
8
0
62
5
10
0.046685214
20
1.3233011
30
0
70
32
0
SEQEND
8
0
0
POLYLINE
8
0
62
5
66
1
10
0
20
0
30
0
70
8
0
VERTEX
8
0
62
5
10
0.089111621
20
1.2835803
30
0
70
32
0
VERTEX
8
0
62
5
10
0.089111621
20
1.2980976
30
0
70
32
0
SEQEND
8
0
0
POLYLINE
8
0
62
5
66
1
10
0
20
0
30
0
70
8
0
VERTEX
8
0
62
5
10
0.13153803
20
1.2835803
30
0
70
32
0
VERTEX
8
0
62
5
10
0.13153803
20
1.2844158
30
0
70
32
0
SEQEND
8
0
0
POLYLINE
8
0
62
5
66
1
10
0
20
0
30
0
70
8
0
VERTEX
8
0
62
5
10
0.046685214
20
1.3233011
30
0
70
32
0
VERTEX
8
0
62
5
10
0.046685214
20
1.3630219
30
0
70
32
0
SEQEND
8
0
0
POLYLINE
8
0
62
5
66
1
10
0
20
0
30
0
70
8
0
VERTEX
8
0
62
5
10
0.089111621
20
1.3233011
30
0
70
32
0
VERTEX
8
0
62
5
10
0.089111621
20
1.3630219
30
0
70
32
0
SEQEND
8
0
0
POLYLINE
8
0
62
5
66
1
10
0
20
0
30
0
70
8
0
VERTEX
8
0
62
5
10
0.13153803
20
1.3233011
30
0
70
32
0
VERTEX
8
0
62
5
10
0.13153803
20
1.3630219
30
0
70
32
0
SEQEND
8
0
0
POLYLINE
8
0
62
5
66
1
10
0
20
0
30
0
70
8
0
VERTEX
8
0
62
5
10
0.34367006
20
1.3630219
30
0
70
32
0
VERTEX
8
0
62
5
10
0.34367006
20
1.2835803
30
0
70
32
0
SEQEND
8
0
0
POLYLINE
8
0
62
5
66
1
10
0
20
0
30
0
70
8
0
VERTEX
8
0
62
5
10
0.17396443
20
1.3096193
30
0
70
32
0
VERTEX
8
0
62
5
10
0.21639084
20
1.3233011
30
0
70
32
0
VERTEX
8
0
62
5
10
0.25881725
20
1.2980976
30
0
70
32
0
VERTEX
8
0
62
5
10
0.30124366
20
1.2844158
30
0
70
32
0
VERTEX
8
0
62
5
10
0.34367006
20
1.3096193
30
0
70
32
0
SEQEND
8
0
0
POLYLINE
8
0
62
5
66
1
10
0
20
0
30
0
70
8
0
SEQEND
8
0
0
POLYLINE
8
0
62
5
66
1
10
0
20
0
30
0
70
8
0
VERTEX
8
0
62
5
10
0.17396443
20
1.3369829
30
0
70
32
0
VERTEX
8
0
62
5
10
0.21639084
20
1.3233011
30
0
70
32
0
VERTEX
8
0
62
5
10
0.25881725
20
1.3485046
30
0
70
32
0
VERTEX
8
0
62
5
10
0.30124366
20
1.3621864
30
0
70
32
0
VERTEX
8
0
62
5
10
0.34367006
20
1.3369829
30
0
70
32
0
SEQEND
8
0
0
POLYLINE
8
0
62
30
66
1
10
0
20
0
30
0
70
8
0
VERTEX
8
0
62
30
10
0.17396443
20
1.3233011
30
0
70
32
0
VERTEX
8
0
62
30
10
0.34367006
20
1.3233011
30
0
70
32
0
SEQEND
8
0
0
POLYLINE
8
0
62
30
66
1
10
0
20
0
30
0
70
8
0
VERTEX
8
0
62
30
10
0.21639084
20
1.3233011
30
0
70
32
0
VERTEX
8
0
62
30
10
0.21639084
20
1.3233011
30
0
70
32
0
SEQEND
8
0
0
POLYLINE
8
0
62
30
66
1
10
0
20
0
30
0
70
8
0
VERTEX
8
0
62
30
10
0.25881725
20
1.2980976
30
0
70
32
0
VERTEX
8
0
62
30
10
0.25881725
20
1.3233011
30
0
70
32
0
SEQEND
8
0
0
POLYLINE
8
0
62
30
66
1
10
0
20
0
30
0
70
8
0
VERTEX
8
0
62
30
10
0.30124366
20
1.2844158
30
0
70
32
0
VERTEX
8
0
62
30
10
0.30124366
20
1.3233011
30
0
70
32
0
SEQEND
8
0
0
POLYLINE
8
0
62
5
66
1
10
0
20
0
30
0
70
8
0
VERTEX
8
0
62
5
10
0.21639084
20
1.2835803
30
0
70
32
0
VERTEX
8
0
62
5
10
0.21639084
20
1.3233011
30
0
70
32
0
SEQEND
8
0
0
POLYLINE
8
0
62
5
66
1
10
0
20
0
30
0
70
8
0
VERTEX
8
0
62
5
10
0.25881725
20
1.2835803
30
0
70
32
0
VERTEX
8
0
62
5
10
0.25881725
20
1.2980976
30
0
70
32
0
SEQEND
8
0
0
POLYLINE
8
0
62
5
66
1
10
0
20
0
30
0
70
8
0
VERTEX
8
0
62
5
10
0.30124366
20
1.2835803
30
0
70
32
0
VERTEX
8
0
62
5
10
0.30124366
20
1.2844158
30
0
70
32
0
SEQEND
8
0
0
POLYLINE
8
0
62
5
66
1
10
0
20
0
30
0
70
8
0
VERTEX
8
0
62
5
10
0.21639084
20
1.3233011
30
0
70
32
0
VERTEX
8
0
62
5
10
0.21639084
20
1.3630219
30
0
70
32
0
SEQEND
8
0
0
POLYLINE
8
0
62
5
66
1
10
0
20
0
30
0
70
8
0
VERTEX
8
0
62
5
10
0.25881725
20
1.3233011
30
0
70
32
0
VERTEX
8
0
62
5
10
0.25881725
20
1.3630219
30
0
70
32
0
SEQEND
8
0
0
POLYLINE
8
0
62
5
66
1
10
0
20
0
30
0
70
8
0
VERTEX
8
0
62
5
10
0.30124366
20
1.3233011
30
0
70
32
0
VERTEX
8
0
62
5
10
0.30124366
20
1.3630219
30
0
70
32
0
SEQEND
8
0
0
POLYLINE
8
0
62
5
66
1
10
0
20
0
30
0
70
8
0
VERTEX
8
0
62
5
10
-0.16544682
20
1.2835803
30
0
70
32
0
VERTEX
8
0
62
5
10
-0.16544682
20
1.3630219
30
0
70
32
0
SEQEND
8
0
0
POLYLINE
8
0
62
5
66
1
10
0
20
0
30
0
70
8
0
VERTEX
8
0
62
5
10
-0.16544682
20
1.3096193
30
0
70
32
0
VERTEX
8
0
62
5
10
-0.12302041
20
1.3233011
30
0
70
32
0
VERTEX
8
0
62
5
10
-0.080594007
20
1.2980976
30
0
70
32
0
VERTEX
8
0
62
5
10
-0.0381676
20
1.2844158
30
0
70
32
0
VERTEX
8
0
62
5
10
0.004258807
20
1.3096193
30
0
70
32
0
SEQEND
8
0
0
POLYLINE
8
0
62
5
66
1
10
0
20
0
30
0
70
8
0
SEQEND
8
0
0
POLYLINE
8
0
62
5
66
1
10
0
20
0
30
0
70
8
0
VERTEX
8
0
62
5
10
-0.16544682
20
1.3369829
30
0
70
32
0
VERTEX
8
0
62
5
10
-0.12302041
20
1.3233011
30
0
70
32
0
VERTEX
8
0
62
5
10
-0.080594007
20
1.3485046
30
0
70
32
0
VERTEX
8
0
62
5
10
-0.0381676
20
1.3621864
30
0
70
32
0
VERTEX
8
0
62
5
10
0.004258807
20
1.3369829
30
0
70
32
0
SEQEND
8
0
0
POLYLINE
8
0
62
30
66
1
10
0
20
0
30
0
70
8
0
VERTEX
8
0
62
30
10
-0.16544682
20
1.3233011
30
0
70
32
0
VERTEX
8
0
62
30
10
0.004258807
20
1.3233011
30
0
70
32
0
SEQEND
8
0
0
POLYLINE
8
0
62
30
66
1
10
0
20
0
30
0
70
8
0
VERTEX
8
0
62
30
10
-0.12302041
20
1.3233011
30
0
70
32
0
VERTEX
8
0
62
30
10
-0.12302041
20
1.3233011
30
0
70
32
0
SEQEND
8
0
0
POLYLINE
8
0
62
30
66
1
10
0
20
0
30
0
70
8
0
VERTEX
8
0
62
30
10
-0.080594007
20
1.2980976
30
0
70
32
0
VERTEX
8
0
62
30
10
-0.080594007
20
1.3233011
30
0
70
32
0
SEQEND
8
0
0
POLYLINE
8
0
62
30
66
1
10
0
20
0
30
0
70
8
0
VERTEX
8
0
62
30
10
-0.0381676
20
1.2844158
30
0
70
32
0
VERTEX
8
0
62
30
10
-0.0381676
20
1.3233011
30
0
70
32
0
SEQEND
8
0
0
POLYLINE
8
0
62
5
66
1
10
0
20
0
30
0
70
8
0
VERTEX
8
0
62
5
10
-0.12302041
20
1.2835803
30
0
70
32
0
VERTEX
8
0
62
5
10
-0.12302041
20
1.3233011
30
0
70
32
0
SEQEND
8
0
0
POLYLINE
8
0
62
5
66
1
10
0
20
0
30
0
70
8
0
VERTEX
8
0
62
5
10
-0.080594007
20
1.2835803
30
0
70
32
0
VERTEX
8
0
62
5
10
-0.080594007
20
1.2980976
30
0
70
32
0
SEQEND
8
0
0
POLYLINE
8
0
62
5
66
1
10
0
20
0
30
0
70
8
0
VERTEX
8
0
62
5
10
-0.0381676
20
1.2835803
30
0
70
32
0
VERTEX
8
0
62
5
10
-0.0381676
20
1.2844158
30
0
70
32
0
SEQEND
8
0
0
POLYLINE
8
0
62
5
66
1
10
0
20
0
30
0
70
8
0
VERTEX
8
0
62
5
10
-0.12302041
20
1.3233011
30
0
70
32
0
VERTEX
8
0
62
5
10
-0.12302041
20
1.3630219
30
0
70
32
0
SEQEND
8
0
0
POLYLINE
8
0
62
5
66
1
10
0
20
0
30
0
70
8
0
VERTEX
8
0
62
5
10
-0.080594007
20
1.3233011
30
0
70
32
0
VERTEX
8
0
62
5
10
-0.080594007
20
1.3630219
30
0
70
32
0
SEQEND
8
0
0
POLYLINE
8
0
62
5
66
1
10
0
20
0
30
0
70
8
0
VERTEX
8
0
62
5
10
-0.0381676
20
1.3233011
30
0
70
32
0
VERTEX
8
0
62
5
10
-0.0381676
20
1.3630219
30
0
70
32
0
SEQEND
8
0
0
POLYLINE
8
0
62
5
66
1
10
0
20
0
30
0
70
8
0
VERTEX
8
0
62
5
10
0.004258807
20
1.3630219
30
0
70
32
0
VERTEX
8
0
62
5
10
0.004258807
20
1.4230219
30
0
70
32
0
SEQEND
8
0
0
POLYLINE
8
0
62
5
66
1
10
0
20
0
30
0
70
8
0
VERTEX
8
0
62
5
10
0.17396443
20
1.4230219
30
0
70
32
0
VERTEX
8
0
62
5
10
0.17396443
20
1.3630219
30
0
70
32
0
SEQEND
8
0
0
POLYLINE
8
0
62
5
66
1
10
0
20
0
30
0
70
8
0
VERTEX
8
0
62
5
10
0.004258807
20
1.3630219
30
0
70
32
0
VERTEX
8
0
62
5
10
0.17396443
20
1.3630219
30
0
70
32
0
SEQEND
8
0
0
POLYLINE
8
0
62
5
66
1
10
0
20
0
30
0
70
8
0
VERTEX
8
0
62
5
10
0.004258807
20
1.4230219
30
0
70
32
0
VERTEX
8
0
62
5
10
0.17396443
20
1.4230219
30
0
70
32
0
SEQEND
8
0
0
POLYLINE
8
0
62
5
66
1
10
0
20
0
30
0
70
8
0
VERTEX
8
0
62
5
10
0.046685214
20
1.3630219
30
0
70
32
0
VERTEX
8
0
62
5
10
0.046685214
20
1.3630219
30
0
70
32
0
SEQEND
8
0
0
POLYLINE
8
0
62
5
66
1
10
0
20
0
30
0
70
8
0
VERTEX
8
0
62
5
10
0.089111621
20
1.3630219
30
0
70
32
0
VERTEX
8
0
62
5
10
0.089111621
20
1.3630219
30
0
70
32
0
SEQEND
8
0
0
POLYLINE
8
0
62
5
66
1
10
0
20
0
30
0
70
8
0
VERTEX
8
0
62
5
10
0.13153803
20
1.3630219
30
0
70
32
0
VERTEX
8
0
62
5
10
0.13153803
20
1.3630219
30
0
70
32
0
SEQEND
8
0
0
POLYLINE
8
0
62
5
66
1
10
0
20
0
30
0
70
8
0
VERTEX
8
0
62
5
10
0.046685214
20
1.4230219
30
0
70
32
0
VERTEX
8
0
62
5
10
0.046685214
20
1.4230219
30
0
70
32
0
SEQEND
8
0
0
POLYLINE
8
0
62
5
66
1
10
0
20
0
30
0
70
8
0
VERTEX
8
0
62
5
10
0.089111621
20
1.4230219
30
0
70
32
0
VERTEX
8
0
62
5
10
0.089111621
20
1.4230219
30
0
70
32
0
SEQEND
8
0
0
POLYLINE
8
0
62
5
66
1
10
0
20
0
30
0
70
8
0
VERTEX
8
0
62
5
10
0.13153803
20
1.4230219
30
0
70
32
0
VERTEX
8
0
62
5
10
0.13153803
20
1.4230219
30
0
70
32
0
SEQEND
8
0
0
POLYLINE
8
0
62
30
66
1
10
0
20
0
30
0
70
8
0
VERTEX
8
0
62
30
10
0.004258807
20
1.3630219
30
0
70
32
0
VERTEX
8
0
62
30
10
0.02547201
20
1.3930219
30
0
70
32
0
SEQEND
8
0
0
POLYLINE
8
0
62
30
66
1
10
0
20
0
30
0
70
8
0
VERTEX
8
0
62
30
10
0.02547201
20
1.3930219
30
0
70
32
0
VERTEX
8
0
62
30
10
0.046685214
20
1.3630219
30
0
70
32
0
SEQEND
8
0
0
POLYLINE
8
0
62
30
66
1
10
0
20
0
30
0
70
8
0
VERTEX
8
0
62
30
10
0.089111621
20
1.3630219
30
0
70
32
0
VERTEX
8
0
62
30
10
0.11032482
20
1.3930219
30
0
70
32
0
SEQEND
8
0
0
POLYLINE
8
0
62
30
66
1
10
0
20
0
30
0
70
8
0
VERTEX
8
0
62
30
10
0.11032482
20
1.3930219
30
0
70
32
0
VERTEX
8
0
62
30
10
0.13153803
20
1.3630219
30
0
70
32
0
SEQEND
8
0
0
POLYLINE
8
0
62
30
66
1
10
0
20
0
30
0
70
8
0
VERTEX
8
0
62
30
10
0.046685214
20
1.3930219
30
0
70
32
0
VERTEX
8
0
62
30
10
0.089111621
20
1.3930219
30
0
70
32
0
SEQEND
8
0
0
POLYLINE
8
0
62
30
66
1
10
0
20
0
30
0
70
8
0
VERTEX
8
0
62
30
10
0.13153803
20
1.3930219
30
0
70
32
0
VERTEX
8
0
62
30
10
0.17396443
20
1.3930219
30
0
70
32
0
SEQEND
8
0
0
POLYLINE
8
0
62
5
66
1
10
0
20
0
30
0
70
8
0
VERTEX
8
0
62
5
10
0.004258807
20
1.3930219
30
0
70
32
0
VERTEX
8
0
62
5
10
0.02547201
20
1.3930219
30
0
70
32
0
SEQEND
8
0
0
POLYLINE
8
0
62
5
66
1
10
0
20
0
30
0
70
8
0
VERTEX
8
0
62
5
10
0.089111621
20
1.3930219
30
0
70
32
0
VERTEX
8
0
62
5
10
0.11032482
20
1.3930219
30
0
70
32
0
SEQEND
8
0
0
POLYLINE
8
0
62
5
66
1
10
0
20
0
30
0
70
8
0
VERTEX
8
0
62
5
10
0.02547201
20
1.3930219
30
0
70
32
0
VERTEX
8
0
62
5
10
0.046685214
20
1.3930219
30
0
70
32
0
SEQEND
8
0
0
POLYLINE
8
0
62
5
66
1
10
0
20
0
30
0
70
8
0
VERTEX
8
0
62
5
10
0.11032482
20
1.3930219
30
0
70
32
0
VERTEX
8
0
62
5
10
0.13153803
20
1.3930219
30
0
70
32
0
SEQEND
8
0
0
POLYLINE
8
0
62
5
66
1
10
0
20
0
30
0
70
8
0
VERTEX
8
0
62
5
10
0.046685214
20
1.3630219
30
0
70
32
0
VERTEX
8
0
62
5
10
0.046685214
20
1.4230219
30
0
70
32
0
SEQEND
8
0
0
POLYLINE
8
0
62
5
66
1
10
0
20
0
30
0
70
8
0
VERTEX
8
0
62
5
10
0.089111621
20
1.3630219
30
0
70
32
0
VERTEX
8
0
62
5
10
0.089111621
20
1.4230219
30
0
70
32
0
SEQEND
8
0
0
POLYLINE
8
0
62
5
66
1
10
0
20
0
30
0
70
8
0
VERTEX
8
0
62
5
10
0.13153803
20
1.3630219
30
0
70
32
0
VERTEX
8
0
62
5
10
0.13153803
20
1.4230219
30
0
70
32
0
SEQEND
8
0
0
POLYLINE
8
0
62
5
66
1
10
0
20
0
30
0
70
8
0
VERTEX
8
0
62
5
10
0.004258807
20
1.3630219
30
0
70
32
0
VERTEX
8
0
62
5
10
0.004258807
20
1.4230219
30
0
70
32
0
SEQEND
8
0
0
POLYLINE
8
0
62
5
66
1
10
0
20
0
30
0
70
8
0
VERTEX
8
0
62
5
10
0.34367006
20
1.4230219
30
0
70
32
0
VERTEX
8
0
62
5
10
0.34367006
20
1.3630219
30
0
70
32
0
SEQEND
8
0
0
POLYLINE
8
0
62
5
66
1
10
0
20
0
30
0
70
8
0
VERTEX
8
0
62
5
10
0.17396443
20
1.3630219
30
0
70
32
0
VERTEX
8
0
62
5
10
0.34367006
20
1.3630219
30
0
70
32
0
SEQEND
8
0
0
POLYLINE
8
0
62
5
66
1
10
0
20
0
30
0
70
8
0
VERTEX
8
0
62
5
10
0.17396443
20
1.4230219
30
0
70
32
0
VERTEX
8
0
62
5
10
0.34367006
20
1.4230219
30
0
70
32
0
SEQEND
8
0
0
POLYLINE
8
0
62
5
66
1
10
0
20
0
30
0
70
8
0
VERTEX
8
0
62
5
10
0.21639084
20
1.3630219
30
0
70
32
0
VERTEX
8
0
62
5
10
0.21639084
20
1.3630219
30
0
70
32
0
SEQEND
8
0
0
POLYLINE
8
0
62
5
66
1
10
0
20
0
30
0
70
8
0
VERTEX
8
0
62
5
10
0.25881725
20
1.3630219
30
0
70
32
0
VERTEX
8
0
62
5
10
0.25881725
20
1.3630219
30
0
70
32
0
SEQEND
8
0
0
POLYLINE
8
0
62
5
66
1
10
0
20
0
30
0
70
8
0
VERTEX
8
0
62
5
10
0.30124366
20
1.3630219
30
0
70
32
0
VERTEX
8
0
62
5
10
0.30124366
20
1.3630219
30
0
70
32
0
SEQEND
8
0
0
POLYLINE
8
0
62
5
66
1
10
0
20
0
30
0
70
8
0
VERTEX
8
0
62
5
10
0.21639084
20
1.4230219
30
0
70
32
0
VERTEX
8
0
62
5
10
0.21639084
20
1.4230219
30
0
70
32
0
SEQEND
8
0
0
POLYLINE
8
0
62
5
66
1
10
0
20
0
30
0
70
8
0
VERTEX
8
0
62
5
10
0.25881725
20
1.4230219
30
0
70
32
0
VERTEX
8
0
62
5
10
0.25881725
20
1.4230219
30
0
70
32
0
SEQEND
8
0
0
POLYLINE
8
0
62
5
66
1
10
0
20
0
30
0
70
8
0
VERTEX
8
0
62
5
10
0.30124366
20
1.4230219
30
0
70
32
0
VERTEX
8
0
62
5
10
0.30124366
20
1.4230219
30
0
70
32
0
SEQEND
8
0
0
POLYLINE
8
0
62
30
66
1
10
0
20
0
30
0
70
8
0
VERTEX
8
0
62
30
10
0.17396443
20
1.3630219
30
0
70
32
0
VERTEX
8
0
62
30
10
0.19517764
20
1.3930219
30
0
70
32
0
SEQEND
8
0
0
POLYLINE
8
0
62
30
66
1
10
0
20
0
30
0
70
8
0
VERTEX
8
0
62
30
10
0.19517764
20
1.3930219
30
0
70
32
0
VERTEX
8
0
62
30
10
0.21639084
20
1.3630219
30
0
70
32
0
SEQEND
8
0
0
POLYLINE
8
0
62
30
66
1
10
0
20
0
30
0
70
8
0
VERTEX
8
0
62
30
10
0.25881725
20
1.3630219
30
0
70
32
0
VERTEX
8
0
62
30
10
0.28003045
20
1.3930219
30
0
70
32
0
SEQEND
8
0
0
POLYLINE
8
0
62
30
66
1
10
0
20
0
30
0
70
8
0
VERTEX
8
0
62
30
10
0.28003045
20
1.3930219
30
0
70
32
0
VERTEX
8
0
62
30
10
0.30124366
20
1.3630219
30
0
70
32
0
SEQEND
8
0
0
POLYLINE
8
0
62
30
66
1
10
0
20
0
30
0
70
8
0
VERTEX
8
0
62
30
10
0.21639084
20
1.3930219
30
0
70
32
0
VERTEX
8
0
62
30
10
0.25881725
20
1.3930219
30
0
70
32
0
SEQEND
8
0
0
POLYLINE
8
0
62
30
66
1
10
0
20
0
30
0
70
8
0
VERTEX
8
0
62
30
10
0.30124366
20
1.3930219
30
0
70
32
0
VERTEX
8
0
62
30
10
0.34367006
20
1.3930219
30
0
70
32
0
SEQEND
8
0
0
POLYLINE
8
0
62
5
66
1
10
0
20
0
30
0
70
8
0
VERTEX
8
0
62
5
10
0.17396443
20
1.3930219
30
0
70
32
0
VERTEX
8
0
62
5
10
0.19517764
20
1.3930219
30
0
70
32
0
SEQEND
8
0
0
POLYLINE
8
0
62
5
66
1
10
0
20
0
30
0
70
8
0
VERTEX
8
0
62
5
10
0.25881725
20
1.3930219
30
0
70
32
0
VERTEX
8
0
62
5
10
0.28003045
20
1.3930219
30
0
70
32
0
SEQEND
8
0
0
POLYLINE
8
0
62
5
66
1
10
0
20
0
30
0
70
8
0
VERTEX
8
0
62
5
10
0.19517764
20
1.3930219
30
0
70
32
0
VERTEX
8
0
62
5
10
0.21639084
20
1.3930219
30
0
70
32
0
SEQEND
8
0
0
POLYLINE
8
0
62
5
66
1
10
0
20
0
30
0
70
8
0
VERTEX
8
0
62
5
10
0.28003045
20
1.3930219
30
0
70
32
0
VERTEX
8
0
62
5
10
0.30124366
20
1.3930219
30
0
70
32
0
SEQEND
8
0
0
POLYLINE
8
0
62
5
66
1
10
0
20
0
30
0
70
8
0
VERTEX
8
0
62
5
10
0.21639084
20
1.3630219
30
0
70
32
0
VERTEX
8
0
62
5
10
0.21639084
20
1.4230219
30
0
70
32
0
SEQEND
8
0
0
POLYLINE
8
0
62
5
66
1
10
0
20
0
30
0
70
8
0
VERTEX
8
0
62
5
10
0.25881725
20
1.3630219
30
0
70
32
0
VERTEX
8
0
62
5
10
0.25881725
20
1.4230219
30
0
70
32
0
SEQEND
8
0
0
POLYLINE
8
0
62
5
66
1
10
0
20
0
30
0
70
8
0
VERTEX
8
0
62
5
10
0.30124366
20
1.3630219
30
0
70
32
0
VERTEX
8
0
62
5
10
0.30124366
20
1.4230219
30
0
70
32
0
SEQEND
8
0
0
POLYLINE
8
0
62
5
66
1
10
0
20
0
30
0
70
8
0
VERTEX
8
0
62
5
10
0.17396443
20
1.3630219
30
0
70
32
0
VERTEX
8
0
62
5
10
0.17396443
20
1.4230219
30
0
70
32
0
SEQEND
8
0
0
POLYLINE
8
0
62
5
66
1
10
0
20
0
30
0
70
8
0
VERTEX
8
0
62
5
10
-0.16544682
20
1.3630219
30
0
70
32
0
VERTEX
8
0
62
5
10
-0.16544682
20
1.4230219
30
0
70
32
0
SEQEND
8
0
0
POLYLINE
8
0
62
5
66
1
10
0
20
0
30
0
70
8
0
VERTEX
8
0
62
5
10
-0.16544682
20
1.3630219
30
0
70
32
0
VERTEX
8
0
62
5
10
0.004258807
20
1.3630219
30
0
70
32
0
SEQEND
8
0
0
POLYLINE
8
0
62
5
66
1
10
0
20
0
30
0
70
8
0
VERTEX
8
0
62
5
10
-0.16544682
20
1.4230219
30
0
70
32
0
VERTEX
8
0
62
5
10
0.004258807
20
1.4230219
30
0
70
32
0
SEQEND
8
0
0
POLYLINE
8
0
62
5
66
1
10
0
20
0
30
0
70
8
0
VERTEX
8
0
62
5
10
-0.12302041
20
1.3630219
30
0
70
32
0
VERTEX
8
0
62
5
10
-0.12302041
20
1.3630219
30
0
70
32
0
SEQEND
8
0
0
POLYLINE
8
0
62
5
66
1
10
0
20
0
30
0
70
8
0
VERTEX
8
0
62
5
10
-0.080594007
20
1.3630219
30
0
70
32
0
VERTEX
8
0
62
5
10
-0.080594007
20
1.3630219
30
0
70
32
0
SEQEND
8
0
0
POLYLINE
8
0
62
5
66
1
10
0
20
0
30
0
70
8
0
VERTEX
8
0
62
5
10
-0.0381676
20
1.3630219
30
0
70
32
0
VERTEX
8
0
62
5
10
-0.0381676
20
1.3630219
30
0
70
32
0
SEQEND
8
0
0
POLYLINE
8
0
62
5
66
1
10
0
20
0
30
0
70
8
0
VERTEX
8
0
62
5
10
-0.12302041
20
1.4230219
30
0
70
32
0
VERTEX
8
0
62
5
10
-0.12302041
20
1.4230219
30
0
70
32
0
SEQEND
8
0
0
POLYLINE
8
0
62
5
66
1
10
0
20
0
30
0
70
8
0
VERTEX
8
0
62
5
10
-0.080594007
20
1.4230219
30
0
70
32
0
VERTEX
8
0
62
5
10
-0.080594007
20
1.4230219
30
0
70
32
0
SEQEND
8
0
0
POLYLINE
8
0
62
5
66
1
10
0
20
0
30
0
70
8
0
VERTEX
8
0
62
5
10
-0.0381676
20
1.4230219
30
0
70
32
0
VERTEX
8
0
62
5
10
-0.0381676
20
1.4230219
30
0
70
32
0
SEQEND
8
0
0
POLYLINE
8
0
62
30
66
1
10
0
20
0
30
0
70
8
0
VERTEX
8
0
62
30
10
-0.16544682
20
1.3630219
30
0
70
32
0
VERTEX
8
0
62
30
10
-0.14423362
20
1.3930219
30
0
70
32
0
SEQEND
8
0
0
POLYLINE
8
0
62
30
66
1
10
0
20
0
30
0
70
8
0
VERTEX
8
0
62
30
10
-0.14423362
20
1.3930219
30
0
70
32
0
VERTEX
8
0
62
30
10
-0.12302041
20
1.3630219
30
0
70
32
0
SEQEND
8
0
0
POLYLINE
8
0
62
30
66
1
10
0
20
0
30
0
70
8
0
VERTEX
8
0
62
30
10
-0.080594007
20
1.3630219
30
0
70
32
0
VERTEX
8
0
62
30
10
-0.059380803
20
1.3930219
30
0
70
32
0
SEQEND
8
0
0
POLYLINE
8
0
62
30
66
1
10
0
20
0
30
0
70
8
0
VERTEX
8
0
62
30
10
-0.059380803
20
1.3930219
30
0
70
32
0
VERTEX
8
0
62
30
10
-0.0381676
20
1.3630219
30
0
70
32
0
SEQEND
8
0
0
POLYLINE
8
0
62
30
66
1
10
0
20
0
30
0
70
8
0
VERTEX
8
0
62
30
10
-0.12302041
20
1.3930219
30
0
70
32
0
VERTEX
8
0
62
30
10
-0.080594007
20
1.3930219
30
0
70
32
0
SEQEND
8
0
0
POLYLINE
8
0
62
30
66
1
10
0
20
0
30
0
70
8
0
VERTEX
8
0
62
30
10
-0.0381676
20
1.3930219
30
0
70
32
0
VERTEX
8
0
62
30
10
0.004258807
20
1.3930219
30
0
70
32
0
SEQEND
8
0
0
POLYLINE
8
0
62
5
66
1
10
0
20
0
30
0
70
8
0
VERTEX
8
0
62
5
10
-0.16544682
20
1.3930219
30
0
70
32
0
VERTEX
8
0
62
5
10
-0.14423362
20
1.3930219
30
0
70
32
0
SEQEND
8
0
0
POLYLINE
8
0
62
5
66
1
10
0
20
0
30
0
70
8
0
VERTEX
8
0
62
5
10
-0.080594007
20
1.3930219
30
0
70
32
0
VERTEX
8
0
62
5
10
-0.059380803
20
1.3930219
30
0
70
32
0
SEQEND
8
0
0
POLYLINE
8
0
62
5
66
1
10
0
20
0
30
0
70
8
0
VERTEX
8
0
62
5
10
-0.14423362
20
1.3930219
30
0
70
32
0
VERTEX
8
0
62
5
10
-0.12302041
20
1.3930219
30
0
70
32
0
SEQEND
8
0
0
POLYLINE
8
0
62
5
66
1
10
0
20
0
30
0
70
8
0
VERTEX
8
0
62
5
10
-0.059380803
20
1.3930219
30
0
70
32
0
VERTEX
8
0
62
5
10
-0.0381676
20
1.3930219
30
0
70
32
0
SEQEND
8
0
0
POLYLINE
8
0
62
5
66
1
10
0
20
0
30
0
70
8
0
VERTEX
8
0
62
5
10
-0.12302041
20
1.3630219
30
0
70
32
0
VERTEX
8
0
62
5
10
-0.12302041
20
1.4230219
30
0
70
32
0
SEQEND
8
0
0
POLYLINE
8
0
62
5
66
1
10
0
20
0
30
0
70
8
0
VERTEX
8
0
62
5
10
-0.080594007
20
1.3630219
30
0
70
32
0
VERTEX
8
0
62
5
10
-0.080594007
20
1.4230219
30
0
70
32
0
SEQEND
8
0
0
POLYLINE
8
0
62
5
66
1
10
0
20
0
30
0
70
8
0
VERTEX
8
0
62
5
10
-0.0381676
20
1.3630219
30
0
70
32
0
VERTEX
8
0
62
5
10
-0.0381676
20
1.4230219
30
0
70
32
0
SEQEND
8
0
0
POLYLINE
8
0
62
5
66
1
10
0
20
0
30
0
70
8
0
VERTEX
8
0
62
5
10
-0.16544682
20
1.3630219
30
0
70
32
0
VERTEX
8
0
62
5
10
-0.16544682
20
1.4230219
30
0
70
32
0
SEQEND
8
0
0
POLYLINE
8
0
62
18
66
1
10
0
20
0
30
0
70
8
0
VERTEX
8
0
62
18
10
0
20
0
30
0
70
32
0
VERTEX
8
0
62
18
10
0.21213203
20
0
30
0
70
32
0
VERTEX
8
0
62
18
10
0.21213203
20
0.43747482
30
0
70
32
0
VERTEX
8
0
62
18
10
0
20
0.43747482
30
0
70
32
0
VERTEX
8
0
62
18
10
0
20
0
30
0
70
32
0
SEQEND
8
0
0
POLYLINE
8
0
62
5
66
1
10
0
20
0
30
0
70
8
0
VERTEX
8
0
62
5
10
0
20
0.43747482
30
0
70
32
0
VERTEX
8
0
62
5
10
0.21213203
20
0.43747482
30
0
70
32
0
SEQEND
8
0
0
POLYLINE
8
0
62
18
66
1
10
0
20
0
30
0
70
8
0
VERTEX
8
0
62
18
10
0
20
0.41747482
30
0
70
32
0
VERTEX
8
0
62
18
10
0.21213203
20
0.41747482
30
0
70
32
0
VERTEX
8
0
62
18
10
0.21213203
20
0.89026586
30
0
70
32
0
VERTEX
8
0
62
18
10
0
20
0.89026586
30
0
70
32
0
VERTEX
8
0
62
18
10
0
20
0.41747482
30
0
70
32
0
SEQEND
8
0
0
POLYLINE
8
0
62
5
66
1
10
0
20
0
30
0
70
8
0
VERTEX
8
0
62
5
10
0
20
0.89026586
30
0
70
32
0
VERTEX
8
0
62
5
10
0.21213203
20
0.89026586
30
0
70
32
0
SEQEND
8
0
0
POLYLINE
8
0
62
18
66
1
10
0
20
0
30
0
70
8
0
VERTEX
8
0
62
18
10
0
20
0.87026586
30
0
70
32
0
VERTEX
8
0
62
18
10
0.21213203
20
0.87026586
30
0
70
32
0
VERTEX
8
0
62
18
10
0.21213203
20
1.2482189
30
0
70
32
0
VERTEX
8
0
62
18
10
0
20
1.2482189
30
0
70
32
0
VERTEX
8
0
62
18
10
0
20
0.87026586
30
0
70
32
0
SEQEND
8
0
0
POLYLINE
8
0
62
5
66
1
10
0
20
0
30
0
70
8
0
VERTEX
8
0
62
5
10
0
20
1.2482189
30
0
70
32
0
VERTEX
8
0
62
5
10
0.21213203
20
1.2482189
30
0
70
32
0
SEQEND
8
0
0
POLYLINE
8
0
62
18
66
1
10
0
20
0
30
0
70
8
0
VERTEX
8
0
62
18
10
0
20
1.2282189
30
0
70
32
0
VERTEX
8
0
62
18
10
0.21213203
20
1.2282189
30
0
70
32
0
VERTEX
8
0
62
18
10
0.21213203
20
1.4230219
30
0
70
32
0
VERTEX
8
0
62
18
10
0
20
1.4230219
30
0
70
32
0
VERTEX
8
0
62
18
10
0
20
1.2282189
30
0
70
32
0
SEQEND
8
0
0
POLYLINE
8
0
62
18
66
1
10
0
20
0
30
0
70
8
0
VERTEX
8
0
62
18
10
0.21213203
20
0
30
0
70
32
0
VERTEX
8
0
62
18
10
0
20
0
30
0
70
32
0
VERTEX
8
0
62
18
10
0
20
1.4230219
30
0
70
32
0
VERTEX
8
0
62
18
10
0.21213203
20
1.4230219
30
0
70
32
0
VERTEX
8
0
62
18
10
0.21213203
20
0
30
0
70
32
0
SEQEND
8
0
0
ENDSEC
0
EOF
