0
SECTION
2
HEADER
9
$ACADVER
1
AC1006
9
$INSUNITS
70
6
0
ENDSEC
0
SECTION
2
ENTITIES
0
POLYLINE
8
0
62
5
66
1
10
0
20
0
30
0
70
8
0
VERTEX
8
0
62
5
10
0
20
0
30
0
70
32
0
VERTEX
8
0
62
5
10
0
20
0.1
30
0
70
32
0
SEQEND
8
0
0
POLYLINE
8
0
62
5
66
1
10
0
20
0
30
0
70
8
0
VERTEX
8
0
62
5
10
0.11313708
20
0
30
0
70
32
0
VERTEX
8
0
62
5
10
0.11313708
20
0.1
30
0
70
32
0
SEQEND
8
0
0
POLYLINE
8
0
62
5
66
1
10
0
20
0
30
0
70
8
0
VERTEX
8
0
62
5
10
0.028284271
20
0
30
0
70
32
0
VERTEX
8
0
62
5
10
0.028284271
20
0.1
30
0
70
32
0
SEQEND
8
0
0
POLYLINE
8
0
62
5
66
1
10
0
20
0
30
0
70
8
0
VERTEX
8
0
62
5
10
0.056568542
20
0
30
0
70
32
0
VERTEX
8
0
62
5
10
0.056568542
20
0.1
30
0
70
32
0
SEQEND
8
0
0
POLYLINE
8
0
62
5
66
1
10
0
20
0
30
0
70
8
0
VERTEX
8
0
62
5
10
0.084852814
20
0
30
0
70
32
0
VERTEX
8
0
62
5
10
0.084852814
20
0.1
30
0
70
32
0
SEQEND
8
0
0
POLYLINE
8
0
62
5
66
1
10
0
20
0
30
0
70
8
0
VERTEX
8
0
62
5
10
0.22627417
20
0
30
0
70
32
0
VERTEX
8
0
62
5
10
0.22627417
20
0.1
30
0
70
32
0
SEQEND
8
0
0
POLYLINE
8
0
62
5
66
1
10
0
20
0
30
0
70
8
0
VERTEX
8
0
62
5
10
0.14142136
20
0
30
0
70
32
0
VERTEX
8
0
62
5
10
0.14142136
20
0.1
30
0
70
32
0
SEQEND
8
0
0
POLYLINE
8
0
62
5
66
1
10
0
20
0
30
0
70
8
0
VERTEX
8
0
62
5
10
0.16970563
20
0
30
0
70
32
0
VERTEX
8
0
62
5
10
0.16970563
20
0.1
30
0
70
32
0
SEQEND
8
0
0
POLYLINE
8
0
62
5
66
1
10
0
20
0
30
0
70
8
0
VERTEX
8
0
62
5
10
0.1979899
20
0
30
0
70
32
0
VERTEX
8
0
62
5
10
0.1979899
20
0.1
30
0
70
32
0
SEQEND
8
0
0
POLYLINE
8
0
62
5
66
1
10
0
20
0
30
0
70
8
0
VERTEX
8
0
62
5
10
-0.11313708
20
0
30
0
70
32
0
VERTEX
8
0
62
5
10
-0.11313708
20
0.1
30
0
70
32
0
SEQEND
8
0
0
POLYLINE
8
0
62
5
66
1
10
0
20
0
30
0
70
8
0
VERTEX
8
0
62
5
10
-0.084852814
20
0
30
0
70
32
0
VERTEX
8
0
62
5
10
-0.084852814
20
0.1
30
0
70
32
0
SEQEND
8
0
0
POLYLINE
8
0
62
5
66
1
10
0
20
0
30
0
70
8
0
VERTEX
8
0
62
5
10
-0.056568542
20
0
30
0
70
32
0
VERTEX
8
0
62
5
10
-0.056568542
20
0.1
30
0
70
32
0
SEQEND
8
0
0
POLYLINE
8
0
62
5
66
1
10
0
20
0
30
0
70
8
0
VERTEX
8
0
62
5
10
-0.028284271
20
0
30
0
70
32
0
VERTEX
8
0
62
5
10
-0.028284271
20
0.1
30
0
70
32
0
SEQEND
8
0
0
POLYLINE
8
0
62
5
66
1
10
0
20
0
30
0
70
8
0
VERTEX
8
0
62
5
10
0
20
0.1
30
0
70
32
0
VERTEX
8
0
62
5
10
0
20
0.14
30
0
70
32
0
SEQEND
8
0
0
POLYLINE
8
0
62
5
66
1
10
0
20
0
30
0
70
8
0
VERTEX
8
0
62
5
10
0.11313708
20
0.14
30
0
70
32
0
VERTEX
8
0
62
5
10
0.11313708
20
0.1
30
0
70
32
0
SEQEND
8
0
0
POLYLINE
8
0
62
5
66
1
10
0
20
0
30
0
70
8
0
VERTEX
8
0
62
5
10
0
20
0.1
30
0
70
32
0
VERTEX
8
0
62
5
10
0.11313708
20
0.1
30
0
70
32
0
SEQEND
8
0
0
POLYLINE
8
0
62
5
66
1
10
0
20
0
30
0
70
8
0
VERTEX
8
0
62
5
10
0
20
0.14
30
0
70
32
0
VERTEX
8
0
62
5
10
0.11313708
20
0.14
30
0
70
32
0
SEQEND
8
0
0
POLYLINE
8
0
62
5
66
1
10
0
20
0
30
0
70
8
0
VERTEX
8
0
62
5
10
0.028284271
20
0.1
30
0
70
32
0
VERTEX
8
0
62
5
10
0.028284271
20
0.1
30
0
70
32
0
SEQEND
8
0
0
POLYLINE
8
0
62
5
66
1
10
0
20
0
30
0
70
8
0
VERTEX
8
0
62
5
10
0.056568542
20
0.1
30
0
70
32
0
VERTEX
8
0
62
5
10
0.056568542
20
0.1
30
0
70
32
0
SEQEND
8
0
0
POLYLINE
8
0
62
5
66
1
10
0
20
0
30
0
70
8
0
VERTEX
8
0
62
5
10
0.084852814
20
0.1
30
0
70
32
0
VERTEX
8
0
62
5
10
0.084852814
20
0.1
30
0
70
32
0
SEQEND
8
0
0
POLYLINE
8
0
62
5
66
1
10
0
20
0
30
0
70
8
0
VERTEX
8
0
62
5
10
0.028284271
20
0.14
30
0
70
32
0
VERTEX
8
0
62
5
10
0.028284271
20
0.14
30
0
70
32
0
SEQEND
8
0
0
POLYLINE
8
0
62
5
66
1
10
0
20
0
30
0
70
8
0
VERTEX
8
0
62
5
10
0.056568542
20
0.14
30
0
70
32
0
VERTEX
8
0
62
5
10
0.056568542
20
0.14
30
0
70
32
0
SEQEND
8
0
0
POLYLINE
8
0
62
5
66
1
10
0
20
0
30
0
70
8
0
VERTEX
8
0
62
5
10
0.084852814
20
0.14
30
0
70
32
0
VERTEX
8
0
62
5
10
0.084852814
20
0.14
30
0
70
32
0
SEQEND
8
0
0
POLYLINE
8
0
62
30
66
1
10
0
20
0
30
0
70
8
0
VERTEX
8
0
62
30
10
0
20
0.14
30
0
70
32
0
VERTEX
8
0
62
30
10
0.028284271
20
0.1
30
0
70
32
0
SEQEND
8
0
0
POLYLINE
8
0
62
30
66
1
10
0
20
0
30
0
70
8
0
VERTEX
8
0
62
30
10
0.028284271
20
0.14
30
0
70
32
0
VERTEX
8
0
62
30
10
0
20
0.1
30
0
70
32
0
SEQEND
8
0
0
POLYLINE
8
0
62
30
66
1
10
0
20
0
30
0
70
8
0
VERTEX
8
0
62
30
10
0.056568542
20
0.14
30
0
70
32
0
VERTEX
8
0
62
30
10
0.084852814
20
0.1
30
0
70
32
0
SEQEND
8
0
0
POLYLINE
8
0
62
30
66
1
10
0
20
0
30
0
70
8
0
VERTEX
8
0
62
30
10
0.084852814
20
0.14
30
0
70
32
0
VERTEX
8
0
62
30
10
0.056568542
20
0.1
30
0
70
32
0
SEQEND
8
0
0
POLYLINE
8
0
62
30
66
1
10
0
20
0
30
0
70
8
0
VERTEX
8
0
62
30
10
0.028284271
20
0.12
30
0
70
32
0
VERTEX
8
0
62
30
10
0.056568542
20
0.12
30
0
70
32
0
SEQEND
8
0
0
POLYLINE
8
0
62
30
66
1
10
0
20
0
30
0
70
8
0
VERTEX
8
0
62
30
10
0.084852814
20
0.12
30
0
70
32
0
VERTEX
8
0
62
30
10
0.11313708
20
0.12
30
0
70
32
0
SEQEND
8
0
0
POLYLINE
8
0
62
5
66
1
10
0
20
0
30
0
70
8
0
VERTEX
8
0
62
5
10
0
20
0.12
30
0
70
32
0
VERTEX
8
0
62
5
10
0.014142136
20
0.12
30
0
70
32
0
SEQEND
8
0
0
POLYLINE
8
0
62
5
66
1
10
0
20
0
30
0
70
8
0
VERTEX
8
0
62
5
10
0.056568542
20
0.12
30
0
70
32
0
VERTEX
8
0
62
5
10
0.070710678
20
0.12
30
0
70
32
0
SEQEND
8
0
0
POLYLINE
8
0
62
5
66
1
10
0
20
0
30
0
70
8
0
VERTEX
8
0
62
5
10
0.014142136
20
0.12
30
0
70
32
0
VERTEX
8
0
62
5
10
0.028284271
20
0.12
30
0
70
32
0
SEQEND
8
0
0
POLYLINE
8
0
62
5
66
1
10
0
20
0
30
0
70
8
0
VERTEX
8
0
62
5
10
0.070710678
20
0.12
30
0
70
32
0
VERTEX
8
0
62
5
10
0.084852814
20
0.12
30
0
70
32
0
SEQEND
8
0
0
POLYLINE
8
0
62
5
66
1
10
0
20
0
30
0
70
8
0
VERTEX
8
0
62
5
10
0.028284271
20
0.1
30
0
70
32
0
VERTEX
8
0
62
5
10
0.028284271
20
0.14
30
0
70
32
0
SEQEND
8
0
0
POLYLINE
8
0
62
5
66
1
10
0
20
0
30
0
70
8
0
VERTEX
8
0
62
5
10
0.056568542
20
0.1
30
0
70
32
0
VERTEX
8
0
62
5
10
0.056568542
20
0.14
30
0
70
32
0
SEQEND
8
0
0
POLYLINE
8
0
62
5
66
1
10
0
20
0
30
0
70
8
0
VERTEX
8
0
62
5
10
0.084852814
20
0.1
30
0
70
32
0
VERTEX
8
0
62
5
10
0.084852814
20
0.14
30
0
70
32
0
SEQEND
8
0
0
POLYLINE
8
0
62
5
66
1
10
0
20
0
30
0
70
8
0
VERTEX
8
0
62
5
10
0
20
0.1
30
0
70
32
0
VERTEX
8
0
62
5
10
0
20
0.14
30
0
70
32
0
SEQEND
8
0
0
POLYLINE
8
0
62
5
66
1
10
0
20
0
30
0
70
8
0
VERTEX
8
0
62
5
10
0.22627417
20
0.14
30
0
70
32
0
VERTEX
8
0
62
5
10
0.22627417
20
0.1
30
0
70
32
0
SEQEND
8
0
0
POLYLINE
8
0
62
5
66
1
10
0
20
0
30
0
70
8
0
VERTEX
8
0
62
5
10
0.11313708
20
0.1
30
0
70
32
0
VERTEX
8
0
62
5
10
0.22627417
20
0.1
30
0
70
32
0
SEQEND
8
0
0
POLYLINE
8
0
62
5
66
1
10
0
20
0
30
0
70
8
0
VERTEX
8
0
62
5
10
0.11313708
20
0.14
30
0
70
32
0
VERTEX
8
0
62
5
10
0.22627417
20
0.14
30
0
70
32
0
SEQEND
8
0
0
POLYLINE
8
0
62
5
66
1
10
0
20
0
30
0
70
8
0
VERTEX
8
0
62
5
10
0.14142136
20
0.1
30
0
70
32
0
VERTEX
8
0
62
5
10
0.14142136
20
0.1
30
0
70
32
0
SEQEND
8
0
0
POLYLINE
8
0
62
5
66
1
10
0
20
0
30
0
70
8
0
VERTEX
8
0
62
5
10
0.16970563
20
0.1
30
0
70
32
0
VERTEX
8
0
62
5
10
0.16970563
20
0.1
30
0
70
32
0
SEQEND
8
0
0
POLYLINE
8
0
62
5
66
1
10
0
20
0
30
0
70
8
0
VERTEX
8
0
62
5
10
0.1979899
20
0.1
30
0
70
32
0
VERTEX
8
0
62
5
10
0.1979899
20
0.1
30
0
70
32
0
SEQEND
8
0
0
POLYLINE
8
0
62
5
66
1
10
0
20
0
30
0
70
8
0
VERTEX
8
0
62
5
10
0.14142136
20
0.14
30
0
70
32
0
VERTEX
8
0
62
5
10
0.14142136
20
0.14
30
0
70
32
0
SEQEND
8
0
0
POLYLINE
8
0
62
5
66
1
10
0
20
0
30
0
70
8
0
VERTEX
8
0
62
5
10
0.16970563
20
0.14
30
0
70
32
0
VERTEX
8
0
62
5
10
0.16970563
20
0.14
30
0
70
32
0
SEQEND
8
0
0
POLYLINE
8
0
62
5
66
1
10
0
20
0
30
0
70
8
0
VERTEX
8
0
62
5
10
0.1979899
20
0.14
30
0
70
32
0
VERTEX
8
0
62
5
10
0.1979899
20
0.14
30
0
70
32
0
SEQEND
8
0
0
POLYLINE
8
0
62
30
66
1
10
0
20
0
30
0
70
8
0
VERTEX
8
0
62
30
10
0.11313708
20
0.14
30
0
70
32
0
VERTEX
8
0
62
30
10
0.14142136
20
0.1
30
0
70
32
0
SEQEND
8
0
0
POLYLINE
8
0
62
30
66
1
10
0
20
0
30
0
70
8
0
VERTEX
8
0
62
30
10
0.14142136
20
0.14
30
0
70
32
0
VERTEX
8
0
62
30
10
0.11313708
20
0.1
30
0
70
32
0
SEQEND
8
0
0
POLYLINE
8
0
62
30
66
1
10
0
20
0
30
0
70
8
0
VERTEX
8
0
62
30
10
0.16970563
20
0.14
30
0
70
32
0
VERTEX
8
0
62
30
10
0.1979899
20
0.1
30
0
70
32
0
SEQEND
8
0
0
POLYLINE
8
0
62
30
66
1
10
0
20
0
30
0
70
8
0
VERTEX
8
0
62
30
10
0.1979899
20
0.14
30
0
70
32
0
VERTEX
8
0
62
30
10
0.16970563
20
0.1
30
0
70
32
0
SEQEND
8
0
0
POLYLINE
8
0
62
30
66
1
10
0
20
0
30
0
70
8
0
VERTEX
8
0
62
30
10
0.14142136
20
0.12
30
0
70
32
0
VERTEX
8
0
62
30
10
0.16970563
20
0.12
30
0
70
32
0
SEQEND
8
0
0
POLYLINE
8
0
62
30
66
1
10
0
20
0
30
0
70
8
0
VERTEX
8
0
62
30
10
0.1979899
20
0.12
30
0
70
32
0
VERTEX
8
0
62
30
10
0.22627417
20
0.12
30
0
70
32
0
SEQEND
8
0
0
POLYLINE
8
0
62
5
66
1
10
0
20
0
30
0
70
8
0
VERTEX
8
0
62
5
10
0.11313708
20
0.12
30
0
70
32
0
VERTEX
8
0
62
5
10
0.12727922
20
0.12
30
0
70
32
0
SEQEND
8
0
0
POLYLINE
8
0
62
5
66
1
10
0
20
0
30
0
70
8
0
VERTEX
8
0
62
5
10
0.16970563
20
0.12
30
0
70
32
0
VERTEX
8
0
62
5
10
0.18384776
20
0.12
30
0
70
32
0
SEQEND
8
0
0
POLYLINE
8
0
62
5
66
1
10
0
20
0
30
0
70
8
0
VERTEX
8
0
62
5
10
0.12727922
20
0.12
30
0
70
32
0
VERTEX
8
0
62
5
10
0.14142136
20
0.12
30
0
70
32
0
SEQEND
8
0
0
POLYLINE
8
0
62
5
66
1
10
0
20
0
30
0
70
8
0
VERTEX
8
0
62
5
10
0.18384776
20
0.12
30
0
70
32
0
VERTEX
8
0
62
5
10
0.1979899
20
0.12
30
0
70
32
0
SEQEND
8
0
0
POLYLINE
8
0
62
5
66
1
10
0
20
0
30
0
70
8
0
VERTEX
8
0
62
5
10
0.14142136
20
0.1
30
0
70
32
0
VERTEX
8
0
62
5
10
0.14142136
20
0.14
30
0
70
32
0
SEQEND
8
0
0
POLYLINE
8
0
62
5
66
1
10
0
20
0
30
0
70
8
0
VERTEX
8
0
62
5
10
0.16970563
20
0.1
30
0
70
32
0
VERTEX
8
0
62
5
10
0.16970563
20
0.14
30
0
70
32
0
SEQEND
8
0
0
POLYLINE
8
0
62
5
66
1
10
0
20
0
30
0
70
8
0
VERTEX
8
0
62
5
10
0.1979899
20
0.1
30
0
70
32
0
VERTEX
8
0
62
5
10
0.1979899
20
0.14
30
0
70
32
0
SEQEND
8
0
0
POLYLINE
8
0
62
5
66
1
10
0
20
0
30
0
70
8
0
VERTEX
8
0
62
5
10
0.11313708
20
0.1
30
0
70
32
0
VERTEX
8
0
62
5
10
0.11313708
20
0.14
30
0
70
32
0
SEQEND
8
0
0
POLYLINE
8
0
62
5
66
1
10
0
20
0
30
0
70
8
0
VERTEX
8
0
62
5
10
-0.11313708
20
0.1
30
0
70
32
0
VERTEX
8
0
62
5
10
-0.11313708
20
0.14
30
0
70
32
0
SEQEND
8
0
0
POLYLINE
8
0
62
5
66
1
10
0
20
0
30
0
70
8
0
VERTEX
8
0
62
5
10
-0.11313708
20
0.1
30
0
70
32
0
VERTEX
8
0
62
5
10
0
20
0.1
30
0
70
32
0
SEQEND
8
0
0
POLYLINE
8
0
62
5
66
1
10
0
20
0
30
0
70
8
0
VERTEX
8
0
62
5
10
-0.11313708
20
0.14
30
0
70
32
0
VERTEX
8
0
62
5
10
0
20
0.14
30
0
70
32
0
SEQEND
8
0
0
POLYLINE
8
0
62
5
66
1
10
0
20
0
30
0
70
8
0
VERTEX
8
0
62
5
10
-0.084852814
20
0.1
30
0
70
32
0
VERTEX
8
0
62
5
10
-0.084852814
20
0.1
30
0
70
32
0
SEQEND
8
0
0
POLYLINE
8
0
62
5
66
1
10
0
20
0
30
0
70
8
0
VERTEX
8
0
62
5
10
-0.056568542
20
0.1
30
0
70
32
0
VERTEX
8
0
62
5
10
-0.056568542
20
0.1
30
0
70
32
0
SEQEND
8
0
0
POLYLINE
8
0
62
5
66
1
10
0
20
0
30
0
70
8
0
VERTEX
8
0
62
5
10
-0.028284271
20
0.1
30
0
70
32
0
VERTEX
8
0
62
5
10
-0.028284271
20
0.1
30
0
70
32
0
SEQEND
8
0
0
POLYLINE
8
0
62
5
66
1
10
0
20
0
30
0
70
8
0
VERTEX
8
0
62
5
10
-0.084852814
20
0.14
30
0
70
32
0
VERTEX
8
0
62
5
10
-0.084852814
20
0.14
30
0
70
32
0
SEQEND
8
0
0
POLYLINE
8
0
62
5
66
1
10
0
20
0
30
0
70
8
0
VERTEX
8
0
62
5
10
-0.056568542
20
0.14
30
0
70
32
0
VERTEX
8
0
62
5
10
-0.056568542
20
0.14
30
0
70
32
0
SEQEND
8
0
0
POLYLINE
8
0
62
5
66
1
10
0
20
0
30
0
70
8
0
VERTEX
8
0
62
5
10
-0.028284271
20
0.14
30
0
70
32
0
VERTEX
8
0
62
5
10
-0.028284271
20
0.14
30
0
70
32
0
SEQEND
8
0
0
POLYLINE
8
0
62
30
66
1
10
0
20
0
30
0
70
8
0
VERTEX
8
0
62
30
10
-0.11313708
20
0.14
30
0
70
32
0
VERTEX
8
0
62
30
10
-0.084852814
20
0.1
30
0
70
32
0
SEQEND
8
0
0
POLYLINE
8
0
62
30
66
1
10
0
20
0
30
0
70
8
0
VERTEX
8
0
62
30
10
-0.084852814
20
0.14
30
0
70
32
0
VERTEX
8
0
62
30
10
-0.11313708
20
0.1
30
0
70
32
0
SEQEND
8
0
0
POLYLINE
8
0
62
30
66
1
10
0
20
0
30
0
70
8
0
VERTEX
8
0
62
30
10
-0.056568542
20
0.14
30
0
70
32
0
VERTEX
8
0
62
30
10
-0.028284271
20
0.1
30
0
70
32
0
SEQEND
8
0
0
POLYLINE
8
0
62
30
66
1
10
0
20
0
30
0
70
8
0
VERTEX
8
0
62
30
10
-0.028284271
20
0.14
30
0
70
32
0
VERTEX
8
0
62
30
10
-0.056568542
20
0.1
30
0
70
32
0
SEQEND
8
0
0
POLYLINE
8
0
62
30
66
1
10
0
20
0
30
0
70
8
0
VERTEX
8
0
62
30
10
-0.084852814
20
0.12
30
0
70
32
0
VERTEX
8
0
62
30
10
-0.056568542
20
0.12
30
0
70
32
0
SEQEND
8
0
0
POLYLINE
8
0
62
30
66
1
10
0
20
0
30
0
70
8
0
VERTEX
8
0
62
30
10
-0.028284271
20
0.12
30
0
70
32
0
VERTEX
8
0
62
30
10
0
20
0.12
30
0
70
32
0
SEQEND
8
0
0
POLYLINE
8
0
62
5
66
1
10
0
20
0
30
0
70
8
0
VERTEX
8
0
62
5
10
-0.11313708
20
0.12
30
0
70
32
0
VERTEX
8
0
62
5
10
-0.098994949
20
0.12
30
0
70
32
0
SEQEND
8
0
0
POLYLINE
8
0
62
5
66
1
10
0
20
0
30
0
70
8
0
VERTEX
8
0
62
5
10
-0.056568542
20
0.12
30
0
70
32
0
VERTEX
8
0
62
5
10
-0.042426407
20
0.12
30
0
70
32
0
SEQEND
8
0
0
POLYLINE
8
0
62
5
66
1
10
0
20
0
30
0
70
8
0
VERTEX
8
0
62
5
10
-0.098994949
20
0.12
30
0
70
32
0
VERTEX
8
0
62
5
10
-0.084852814
20
0.12
30
0
70
32
0
SEQEND
8
0
0
POLYLINE
8
0
62
5
66
1
10
0
20
0
30
0
70
8
0
VERTEX
8
0
62
5
10
-0.042426407
20
0.12
30
0
70
32
0
VERTEX
8
0
62
5
10
-0.028284271
20
0.12
30
0
70
32
0
SEQEND
8
0
0
POLYLINE
8
0
62
5
66
1
10
0
20
0
30
0
70
8
0
VERTEX
8
0
62
5
10
-0.084852814
20
0.1
30
0
70
32
0
VERTEX
8
0
62
5
10
-0.084852814
20
0.14
30
0
70
32
0
SEQEND
8
0
0
POLYLINE
8
0
62
5
66
1
10
0
20
0
30
0
70
8
0
VERTEX
8
0
62
5
10
-0.056568542
20
0.1
30
0
70
32
0
VERTEX
8
0
62
5
10
-0.056568542
20
0.14
30
0
70
32
0
SEQEND
8
0
0
POLYLINE
8
0
62
5
66
1
10
0
20
0
30
0
70
8
0
VERTEX
8
0
62
5
10
-0.028284271
20
0.1
30
0
70
32
0
VERTEX
8
0
62
5
10
-0.028284271
20
0.14
30
0
70
32
0
SEQEND
8
0
0
POLYLINE
8
0
62
5
66
1
10
0
20
0
30
0
70
8
0
VERTEX
8
0
62
5
10
-0.11313708
20
0.1
30
0
70
32
0
VERTEX
8
0
62
5
10
-0.11313708
20
0.14
30
0
70
32
0
SEQEND
8
0
0
POLYLINE
8
0
62
5
66
1
10
0
20
0
30
0
70
8
0
VERTEX
8
0
62
5
10
0
20
0.14
30
0
70
32
0
VERTEX
8
0
62
5
10
0
20
0.21534192
30
0
70
32
0
SEQEND
8
0
0
POLYLINE
8
0
62
5
66
1
10
0
20
0
30
0
70
8
0
VERTEX
8
0
62
5
10
0.11313708
20
0.21534192
30
0
70
32
0
VERTEX
8
0
62
5
10
0.11313708
20
0.14
30
0
70
32
0
SEQEND
8
0
0
POLYLINE
8
0
62
5
66
1
10
0
20
0
30
0
70
8
0
VERTEX
8
0
62
5
10
0
20
0.14007117
30
0
70
32
0
VERTEX
8
0
62
5
10
0.028284271
20
0.15061116
30
0
70
32
0
VERTEX
8
0
62
5
10
0.056568542
20
0.15883548
30
0
70
32
0
VERTEX
8
0
62
5
10
0.084852814
20
0.14829549
30
0
70
32
0
VERTEX
8
0
62
5
10
0.11313708
20
0.14007117
30
0
70
32
0
SEQEND
8
0
0
POLYLINE
8
0
62
5
66
1
10
0
20
0
30
0
70
8
0
VERTEX
8
0
62
5
10
0
20
0.17774213
30
0
70
32
0
VERTEX
8
0
62
5
10
0.028284271
20
0.18828212
30
0
70
32
0
VERTEX
8
0
62
5
10
0.056568542
20
0.19650644
30
0
70
32
0
VERTEX
8
0
62
5
10
0.084852814
20
0.18596645
30
0
70
32
0
VERTEX
8
0
62
5
10
0.11313708
20
0.17774213
30
0
70
32
0
SEQEND
8
0
0
POLYLINE
8
0
62
5
66
1
10
0
20
0
30
0
70
8
0
VERTEX
8
0
62
5
10
0
20
0.17759979
30
0
70
32
0
VERTEX
8
0
62
5
10
0.028284271
20
0.1670598
30
0
70
32
0
VERTEX
8
0
62
5
10
0.056568542
20
0.15883548
30
0
70
32
0
VERTEX
8
0
62
5
10
0.084852814
20
0.16937547
30
0
70
32
0
VERTEX
8
0
62
5
10
0.11313708
20
0.17759979
30
0
70
32
0
SEQEND
8
0
0
POLYLINE
8
0
62
5
66
1
10
0
20
0
30
0
70
8
0
VERTEX
8
0
62
5
10
0
20
0.21527075
30
0
70
32
0
VERTEX
8
0
62
5
10
0.028284271
20
0.20473076
30
0
70
32
0
VERTEX
8
0
62
5
10
0.056568542
20
0.19650644
30
0
70
32
0
VERTEX
8
0
62
5
10
0.084852814
20
0.20704643
30
0
70
32
0
VERTEX
8
0
62
5
10
0.11313708
20
0.21527075
30
0
70
32
0
SEQEND
8
0
0
POLYLINE
8
0
62
30
66
1
10
0
20
0
30
0
70
8
0
VERTEX
8
0
62
30
10
0
20
0.15883548
30
0
70
32
0
VERTEX
8
0
62
30
10
0.11313708
20
0.15883548
30
0
70
32
0
SEQEND
8
0
0
POLYLINE
8
0
62
30
66
1
10
0
20
0
30
0
70
8
0
VERTEX
8
0
62
30
10
0
20
0.19650644
30
0
70
32
0
VERTEX
8
0
62
30
10
0.11313708
20
0.19650644
30
0
70
32
0
SEQEND
8
0
0
POLYLINE
8
0
62
30
66
1
10
0
20
0
30
0
70
8
0
VERTEX
8
0
62
30
10
0.028284271
20
0.15061116
30
0
70
32
0
VERTEX
8
0
62
30
10
0.028284271
20
0.15883548
30
0
70
32
0
SEQEND
8
0
0
POLYLINE
8
0
62
30
66
1
10
0
20
0
30
0
70
8
0
VERTEX
8
0
62
30
10
0.056568542
20
0.15883548
30
0
70
32
0
VERTEX
8
0
62
30
10
0.056568542
20
0.15883548
30
0
70
32
0
SEQEND
8
0
0
POLYLINE
8
0
62
30
66
1
10
0
20
0
30
0
70
8
0
VERTEX
8
0
62
30
10
0.084852814
20
0.14829549
30
0
70
32
0
VERTEX
8
0
62
30
10
0.084852814
20
0.15883548
30
0
70
32
0
SEQEND
8
0
0
POLYLINE
8
0
62
30
66
1
10
0
20
0
30
0
70
8
0
VERTEX
8
0
62
30
10
0.028284271
20
0.18828212
30
0
70
32
0
VERTEX
8
0
62
30
10
0.028284271
20
0.19650644
30
0
70
32
0
SEQEND
8
0
0
POLYLINE
8
0
62
30
66
1
10
0
20
0
30
0
70
8
0
VERTEX
8
0
62
30
10
0.056568542
20
0.19650644
30
0
70
32
0
VERTEX
8
0
62
30
10
0.056568542
20
0.19650644
30
0
70
32
0
SEQEND
8
0
0
POLYLINE
8
0
62
30
66
1
10
0
20
0
30
0
70
8
0
VERTEX
8
0
62
30
10
0.084852814
20
0.18596645
30
0
70
32
0
VERTEX
8
0
62
30
10
0.084852814
20
0.19650644
30
0
70
32
0
SEQEND
8
0
0
POLYLINE
8
0
62
5
66
1
10
0
20
0
30
0
70
8
0
VERTEX
8
0
62
5
10
0.028284271
20
0.14
30
0
70
32
0
VERTEX
8
0
62
5
10
0.028284271
20
0.15061116
30
0
70
32
0
SEQEND
8
0
0
POLYLINE
8
0
62
5
66
1
10
0
20
0
30
0
70
8
0
VERTEX
8
0
62
5
10
0.056568542
20
0.14
30
0
70
32
0
VERTEX
8
0
62
5
10
0.056568542
20
0.15883548
30
0
70
32
0
SEQEND
8
0
0
POLYLINE
8
0
62
5
66
1
10
0
20
0
30
0
70
8
0
VERTEX
8
0
62
5
10
0.084852814
20
0.14
30
0
70
32
0
VERTEX
8
0
62
5
10
0.084852814
20
0.14829549
30
0
70
32
0
SEQEND
8
0
0
POLYLINE
8
0
62
5
66
1
10
0
20
0
30
0
70
8
0
VERTEX
8
0
62
5
10
0.028284271
20
0.17767096
30
0
70
32
0
VERTEX
8
0
62
5
10
0.028284271
20
0.18828212
30
0
70
32
0
SEQEND
8
0
0
POLYLINE
8
0
62
5
66
1
10
0
20
0
30
0
70
8
0
VERTEX
8
0
62
5
10
0.056568542
20
0.17767096
30
0
70
32
0
VERTEX
8
0
62
5
10
0.056568542
20
0.19650644
30
0
70
32
0
SEQEND
8
0
0
POLYLINE
8
0
62
5
66
1
10
0
20
0
30
0
70
8
0
VERTEX
8
0
62
5
10
0.084852814
20
0.17767096
30
0
70
32
0
VERTEX
8
0
62
5
10
0.084852814
20
0.18596645
30
0
70
32
0
SEQEND
8
0
0
POLYLINE
8
0
62
5
66
1
10
0
20
0
30
0
70
8
0
VERTEX
8
0
62
5
10
0.028284271
20
0.15883548
30
0
70
32
0
VERTEX
8
0
62
5
10
0.028284271
20
0.17767096
30
0
70
32
0
SEQEND
8
0
0
POLYLINE
8
0
62
5
66
1
10
0
20
0
30
0
70
8
0
VERTEX
8
0
62
5
10
0.056568542
20
0.15883548
30
0
70
32
0
VERTEX
8
0
62
5
10
0.056568542
20
0.17767096
30
0
70
32
0
SEQEND
8
0
0
POLYLINE
8
0
62
5
66
1
10
0
20
0
30
0
70
8
0
VERTEX
8
0
62
5
10
0.084852814
20
0.15883548
30
0
70
32
0
VERTEX
8
0
62
5
10
0.084852814
20
0.17767096
30
0
70
32
0
SEQEND
8
0
0
POLYLINE
8
0
62
5
66
1
10
0
20
0
30
0
70
8
0
VERTEX
8
0
62
5
10
0.028284271
20
0.19650644
30
0
70
32
0
VERTEX
8
0
62
5
10
0.028284271
20
0.21534192
30
0
70
32
0
SEQEND
8
0
0
POLYLINE
8
0
62
5
66
1
10
0
20
0
30
0
70
8
0
VERTEX
8
0
62
5
10
0.056568542
20
0.19650644
30
0
70
32
0
VERTEX
8
0
62
5
10
0.056568542
20
0.21534192
30
0
70
32
0
SEQEND
8
0
0
POLYLINE
8
0
62
5
66
1
10
0
20
0
30
0
70
8
0
VERTEX
8
0
62
5
10
0.084852814
20
0.19650644
30
0
70
32
0
VERTEX
8
0
62
5
10
0.084852814
20
0.21534192
30
0
70
32
0
SEQEND
8
0
0
POLYLINE
8
0
62
30
66
1
10
0
20
0
30
0
70
8
0
VERTEX
8
0
62
30
10
0
20
0.14007117
30
0
70
32
0
VERTEX
8
0
62
30
10
0.010731961
20
0.15883548
30
0
70
32
0
VERTEX
8
0
62
30
10
0
20
0.17759979
30
0
70
32
0
SEQEND
8
0
0
POLYLINE
8
0
62
30
66
1
10
0
20
0
30
0
70
8
0
VERTEX
8
0
62
30
10
0.028284271
20
0.15061116
30
0
70
32
0
VERTEX
8
0
62
30
10
0.036232015
20
0.15883548
30
0
70
32
0
VERTEX
8
0
62
30
10
0.028284271
20
0.1670598
30
0
70
32
0
SEQEND
8
0
0
POLYLINE
8
0
62
30
66
1
10
0
20
0
30
0
70
8
0
VERTEX
8
0
62
30
10
0.056568542
20
0.15883548
30
0
70
32
0
VERTEX
8
0
62
30
10
0.056568542
20
0.15883548
30
0
70
32
0
VERTEX
8
0
62
30
10
0.056568542
20
0.15883548
30
0
70
32
0
SEQEND
8
0
0
POLYLINE
8
0
62
30
66
1
10
0
20
0
30
0
70
8
0
VERTEX
8
0
62
30
10
0.084852814
20
0.14829549
30
0
70
32
0
VERTEX
8
0
62
30
10
0.093633032
20
0.15883548
30
0
70
32
0
VERTEX
8
0
62
30
10
0.084852814
20
0.16937547
30
0
70
32
0
SEQEND
8
0
0
POLYLINE
8
0
62
30
66
1
10
0
20
0
30
0
70
8
0
VERTEX
8
0
62
30
10
0
20
0.17774213
30
0
70
32
0
VERTEX
8
0
62
30
10
0.010731961
20
0.19650644
30
0
70
32
0
VERTEX
8
0
62
30
10
0
20
0.21527075
30
0
70
32
0
SEQEND
8
0
0
POLYLINE
8
0
62
30
66
1
10
0
20
0
30
0
70
8
0
VERTEX
8
0
62
30
10
0.028284271
20
0.18828212
30
0
70
32
0
VERTEX
8
0
62
30
10
0.036232015
20
0.19650644
30
0
70
32
0
VERTEX
8
0
62
30
10
0.028284271
20
0.20473076
30
0
70
32
0
SEQEND
8
0
0
POLYLINE
8
0
62
30
66
1
10
0
20
0
30
0
70
8
0
VERTEX
8
0
62
30
10
0.056568542
20
0.19650644
30
0
70
32
0
VERTEX
8
0
62
30
10
0.056568542
20
0.19650644
30
0
70
32
0
VERTEX
8
0
62
30
10
0.056568542
20
0.19650644
30
0
70
32
0
SEQEND
8
0
0
POLYLINE
8
0
62
30
66
1
10
0
20
0
30
0
70
8
0
VERTEX
8
0
62
30
10
0.084852814
20
0.18596645
30
0
70
32
0
VERTEX
8
0
62
30
10
0.093633032
20
0.19650644
30
0
70
32
0
VERTEX
8
0
62
30
10
0.084852814
20
0.20704643
30
0
70
32
0
SEQEND
8
0
0
POLYLINE
8
0
62
5
66
1
10
0
20
0
30
0
70
8
0
VERTEX
8
0
62
5
10
0.22627417
20
0.21534192
30
0
70
32
0
VERTEX
8
0
62
5
10
0.22627417
20
0.14
30
0
70
32
0
SEQEND
8
0
0
POLYLINE
8
0
62
5
66
1
10
0
20
0
30
0
70
8
0
VERTEX
8
0
62
5
10
0.11313708
20
0.14007117
30
0
70
32
0
VERTEX
8
0
62
5
10
0.14142136
20
0.15061116
30
0
70
32
0
VERTEX
8
0
62
5
10
0.16970563
20
0.15883548
30
0
70
32
0
VERTEX
8
0
62
5
10
0.1979899
20
0.14829549
30
0
70
32
0
VERTEX
8
0
62
5
10
0.22627417
20
0.14007117
30
0
70
32
0
SEQEND
8
0
0
POLYLINE
8
0
62
5
66
1
10
0
20
0
30
0
70
8
0
VERTEX
8
0
62
5
10
0.11313708
20
0.17774213
30
0
70
32
0
VERTEX
8
0
62
5
10
0.14142136
20
0.18828212
30
0
70
32
0
VERTEX
8
0
62
5
10
0.16970563
20
0.19650644
30
0
70
32
0
VERTEX
8
0
62
5
10
0.1979899
20
0.18596645
30
0
70
32
0
VERTEX
8
0
62
5
10
0.22627417
20
0.17774213
30
0
70
32
0
SEQEND
8
0
0
POLYLINE
8
0
62
5
66
1
10
0
20
0
30
0
70
8
0
VERTEX
8
0
62
5
10
0.11313708
20
0.17759979
30
0
70
32
0
VERTEX
8
0
62
5
10
0.14142136
20
0.1670598
30
0
70
32
0
VERTEX
8
0
62
5
10
0.16970563
20
0.15883548
30
0
70
32
0
VERTEX
8
0
62
5
10
0.1979899
20
0.16937547
30
0
70
32
0
VERTEX
8
0
62
5
10
0.22627417
20
0.17759979
30
0
70
32
0
SEQEND
8
0
0
POLYLINE
8
0
62
5
66
1
10
0
20
0
30
0
70
8
0
VERTEX
8
0
62
5
10
0.11313708
20
0.21527075
30
0
70
32
0
VERTEX
8
0
62
5
10
0.14142136
20
0.20473076
30
0
70
32
0
VERTEX
8
0
62
5
10
0.16970563
20
0.19650644
30
0
70
32
0
VERTEX
8
0
62
5
10
0.1979899
20
0.20704643
30
0
70
32
0
VERTEX
8
0
62
5
10
0.22627417
20
0.21527075
30
0
70
32
0
SEQEND
8
0
0
POLYLINE
8
0
62
30
66
1
10
0
20
0
30
0
70
8
0
VERTEX
8
0
62
30
10
0.11313708
20
0.15883548
30
0
70
32
0
VERTEX
8
0
62
30
10
0.22627417
20
0.15883548
30
0
70
32
0
SEQEND
8
0
0
POLYLINE
8
0
62
30
66
1
10
0
20
0
30
0
70
8
0
VERTEX
8
0
62
30
10
0.11313708
20
0.19650644
30
0
70
32
0
VERTEX
8
0
62
30
10
0.22627417
20
0.19650644
30
0
70
32
0
SEQEND
8
0
0
POLYLINE
8
0
62
30
66
1
10
0
20
0
30
0
70
8
0
VERTEX
8
0
62
30
10
0.14142136
20
0.15061116
30
0
70
32
0
VERTEX
8
0
62
30
10
0.14142136
20
0.15883548
30
0
70
32
0
SEQEND
8
0
0
POLYLINE
8
0
62
30
66
1
10
0
20
0
30
0
70
8
0
VERTEX
8
0
62
30
10
0.16970563
20
0.15883548
30
0
70
32
0
VERTEX
8
0
62
30
10
0.16970563
20
0.15883548
30
0
70
32
0
SEQEND
8
0
0
POLYLINE
8
0
62
30
66
1
10
0
20
0
30
0
70
8
0
VERTEX
8
0
62
30
10
0.1979899
20
0.14829549
30
0
70
32
0
VERTEX
8
0
62
30
10
0.1979899
20
0.15883548
30
0
70
32
0
SEQEND
8
0
0
POLYLINE
8
0
62
30
66
1
10
0
20
0
30
0
70
8
0
VERTEX
8
0
62
30
10
0.14142136
20
0.18828212
30
0
70
32
0
VERTEX
8
0
62
30
10
0.14142136
20
0.19650644
30
0
70
32
0
SEQEND
8
0
0
POLYLINE
8
0
62
30
66
1
10
0
20
0
30
0
70
8
0
VERTEX
8
0
62
30
10
0.16970563
20
0.19650644
30
0
70
32
0
VERTEX
8
0
62
30
10
0.16970563
20
0.19650644
30
0
70
32
0
SEQEND
8
0
0
POLYLINE
8
0
62
30
66
1
10
0
20
0
30
0
70
8
0
VERTEX
8
0
62
30
10
0.1979899
20
0.18596645
30
0
70
32
0
VERTEX
8
0
62
30
10
0.1979899
20
0.19650644
30
0
70
32
0
SEQEND
8
0
0
POLYLINE
8
0
62
5
66
1
10
0
20
0
30
0
70
8
0
VERTEX
8
0
62
5
10
0.14142136
20
0.14
30
0
70
32
0
VERTEX
8
0
62
5
10
0.14142136
20
0.15061116
30
0
70
32
0
SEQEND
8
0
0
POLYLINE
8
0
62
5
66
1
10
0
20
0
30
0
70
8
0
VERTEX
8
0
62
5
10
0.16970563
20
0.14
30
0
70
32
0
VERTEX
8
0
62
5
10
0.16970563
20
0.15883548
30
0
70
32
0
SEQEND
8
0
0
POLYLINE
8
0
62
5
66
1
10
0
20
0
30
0
70
8
0
VERTEX
8
0
62
5
10
0.1979899
20
0.14
30
0
70
32
0
VERTEX
8
0
62
5
10
0.1979899
20
0.14829549
30
0
70
32
0
SEQEND
8
0
0
POLYLINE
8
0
62
5
66
1
10
0
20
0
30
0
70
8
0
VERTEX
8
0
62
5
10
0.14142136
20
0.17767096
30
0
70
32
0
VERTEX
8
0
62
5
10
0.14142136
20
0.18828212
30
0
70
32
0
SEQEND
8
0
0
POLYLINE
8
0
62
5
66
1
10
0
20
0
30
0
70
8
0
VERTEX
8
0
62
5
10
0.16970563
20
0.17767096
30
0
70
32
0
VERTEX
8
0
62
5
10
0.16970563
20
0.19650644
30
0
70
32
0
SEQEND
8
0
0
POLYLINE
8
0
62
5
66
1
10
0
20
0
30
0
70
8
0
VERTEX
8
0
62
5
10
0.1979899
20
0.17767096
30
0
70
32
0
VERTEX
8
0
62
5
10
0.1979899
20
0.18596645
30
0
70
32
0
SEQEND
8
0
0
POLYLINE
8
0
62
5
66
1
10
0
20
0
30
0
70
8
0
VERTEX
8
0
62
5
10
0.14142136
20
0.15883548
30
0
70
32
0
VERTEX
8
0
62
5
10
0.14142136
20
0.17767096
30
0
70
32
0
SEQEND
8
0
0
POLYLINE
8
0
62
5
66
1
10
0
20
0
30
0
70
8
0
VERTEX
8
0
62
5
10
0.16970563
20
0.15883548
30
0
70
32
0
VERTEX
8
0
62
5
10
0.16970563
20
0.17767096
30
0
70
32
0
SEQEND
8
0
0
POLYLINE
8
0
62
5
66
1
10
0
20
0
30
0
70
8
0
VERTEX
8
0
62
5
10
0.1979899
20
0.15883548
30
0
70
32
0
VERTEX
8
0
62
5
10
0.1979899
20
0.17767096
30
0
70
32
0
SEQEND
8
0
0
POLYLINE
8
0
62
5
66
1
10
0
20
0
30
0
70
8
0
VERTEX
8
0
62
5
10
0.14142136
20
0.19650644
30
0
70
32
0
VERTEX
8
0
62
5
10
0.14142136
20
0.21534192
30
0
70
32
0
SEQEND
8
0
0
POLYLINE
8
0
62
5
66
1
10
0
20
0
30
0
70
8
0
VERTEX
8
0
62
5
10
0.16970563
20
0.19650644
30
0
70
32
0
VERTEX
8
0
62
5
10
0.16970563
20
0.21534192
30
0
70
32
0
SEQEND
8
0
0
POLYLINE
8
0
62
5
66
1
10
0
20
0
30
0
70
8
0
VERTEX
8
0
62
5
10
0.1979899
20
0.19650644
30
0
70
32
0
VERTEX
8
0
62
5
10
0.1979899
20
0.21534192
30
0
70
32
0
SEQEND
8
0
0
POLYLINE
8
0
62
30
66
1
10
0
20
0
30
0
70
8
0
VERTEX
8
0
62
30
10
0.11313708
20
0.14007117
30
0
70
32
0
VERTEX
8
0
62
30
10
0.12386905
20
0.15883548
30
0
70
32
0
VERTEX
8
0
62
30
10
0.11313708
20
0.17759979
30
0
70
32
0
SEQEND
8
0
0
POLYLINE
8
0
62
30
66
1
10
0
20
0
30
0
70
8
0
VERTEX
8
0
62
30
10
0.14142136
20
0.15061116
30
0
70
32
0
VERTEX
8
0
62
30
10
0.1493691
20
0.15883548
30
0
70
32
0
VERTEX
8
0
62
30
10
0.14142136
20
0.1670598
30
0
70
32
0
SEQEND
8
0
0
POLYLINE
8
0
62
30
66
1
10
0
20
0
30
0
70
8
0
VERTEX
8
0
62
30
10
0.16970563
20
0.15883548
30
0
70
32
0
VERTEX
8
0
62
30
10
0.16970563
20
0.15883548
30
0
70
32
0
VERTEX
8
0
62
30
10
0.16970563
20
0.15883548
30
0
70
32
0
SEQEND
8
0
0
POLYLINE
8
0
62
30
66
1
10
0
20
0
30
0
70
8
0
VERTEX
8
0
62
30
10
0.1979899
20
0.14829549
30
0
70
32
0
VERTEX
8
0
62
30
10
0.20677012
20
0.15883548
30
0
70
32
0
VERTEX
8
0
62
30
10
0.1979899
20
0.16937547
30
0
70
32
0
SEQEND
8
0
0
POLYLINE
8
0
62
30
66
1
10
0
20
0
30
0
70
8
0
VERTEX
8
0
62
30
10
0.11313708
20
0.17774213
30
0
70
32
0
VERTEX
8
0
62
30
10
0.12386905
20
0.19650644
30
0
70
32
0
VERTEX
8
0
62
30
10
0.11313708
20
0.21527075
30
0
70
32
0
SEQEND
8
0
0
POLYLINE
8
0
62
30
66
1
10
0
20
0
30
0
70
8
0
VERTEX
8
0
62
30
10
0.14142136
20
0.18828212
30
0
70
32
0
VERTEX
8
0
62
30
10
0.1493691
20
0.19650644
30
0
70
32
0
VERTEX
8
0
62
30
10
0.14142136
20
0.20473076
30
0
70
32
0
SEQEND
8
0
0
POLYLINE
8
0
62
30
66
1
10
0
20
0
30
0
70
8
0
VERTEX
8
0
62
30
10
0.16970563
20
0.19650644
30
0
70
32
0
VERTEX
8
0
62
30
10
0.16970563
20
0.19650644
30
0
70
32
0
VERTEX
8
0
62
30
10
0.16970563
20
0.19650644
30
0
70
32
0
SEQEND
8
0
0
POLYLINE
8
0
62
30
66
1
10
0
20
0
30
0
70
8
0
VERTEX
8
0
62
30
10
0.1979899
20
0.18596645
30
0
70
32
0
VERTEX
8
0
62
30
10
0.20677012
20
0.19650644
30
0
70
32
0
VERTEX
8
0
62
30
10
0.1979899
20
0.20704643
30
0
70
32
0
SEQEND
8
0
0
POLYLINE
8
0
62
5
66
1
10
0
20
0
30
0
70
8
0
VERTEX
8
0
62
5
10
-0.11313708
20
0.14
30
0
70
32
0
VERTEX
8
0
62
5
10
-0.11313708
20
0.21534192
30
0
70
32
0
SEQEND
8
0
0
POLYLINE
8
0
62
5
66
1
10
0
20
0
30
0
70
8
0
VERTEX
8
0
62
5
10
-0.11313708
20
0.14007117
30
0
70
32
0
VERTEX
8
0
62
5
10
-0.084852814
20
0.15061116
30
0
70
32
0
VERTEX
8
0
62
5
10
-0.056568542
20
0.15883548
30
0
70
32
0
VERTEX
8
0
62
5
10
-0.028284271
20
0.14829549
30
0
70
32
0
VERTEX
8
0
62
5
10
0
20
0.14007117
30
0
70
32
0
SEQEND
8
0
0
POLYLINE
8
0
62
5
66
1
10
0
20
0
30
0
70
8
0
VERTEX
8
0
62
5
10
-0.11313708
20
0.17774213
30
0
70
32
0
VERTEX
8
0
62
5
10
-0.084852814
20
0.18828212
30
0
70
32
0
VERTEX
8
0
62
5
10
-0.056568542
20
0.19650644
30
0
70
32
0
VERTEX
8
0
62
5
10
-0.028284271
20
0.18596645
30
0
70
32
0
VERTEX
8
0
62
5
10
0
20
0.17774213
30
0
70
32
0
SEQEND
8
0
0
POLYLINE
8
0
62
5
66
1
10
0
20
0
30
0
70
8
0
VERTEX
8
0
62
5
10
-0.11313708
20
0.17759979
30
0
70
32
0
VERTEX
8
0
62
5
10
-0.084852814
20
0.1670598
30
0
70
32
0
VERTEX
8
0
62
5
10
-0.056568542
20
0.15883548
30
0
70
32
0
VERTEX
8
0
62
5
10
-0.028284271
20
0.16937547
30
0
70
32
0
VERTEX
8
0
62
5
10
0
20
0.17759979
30
0
70
32
0
SEQEND
8
0
0
POLYLINE
8
0
62
5
66
1
10
0
20
0
30
0
70
8
0
VERTEX
8
0
62
5
10
-0.11313708
20
0.21527075
30
0
70
32
0
VERTEX
8
0
62
5
10
-0.084852814
20
0.20473076
30
0
70
32
0
VERTEX
8
0
62
5
10
-0.056568542
20
0.19650644
30
0
70
32
0
VERTEX
8
0
62
5
10
-0.028284271
20
0.20704643
30
0
70
32
0
VERTEX
8
0
62
5
10
0
20
0.21527075
30
0
70
32
0
SEQEND
8
0
0
POLYLINE
8
0
62
30
66
1
10
0
20
0
30
0
70
8
0
VERTEX
8
0
62
30
10
-0.11313708
20
0.15883548
30
0
70
32
0
VERTEX
8
0
62
30
10
0
20
0.15883548
30
0
70
32
0
SEQEND
8
0
0
POLYLINE
8
0
62
30
66
1
10
0
20
0
30
0
70
8
0
VERTEX
8
0
62
30
10
-0.11313708
20
0.19650644
30
0
70
32
0
VERTEX
8
0
62
30
10
0
20
0.19650644
30
0
70
32
0
SEQEND
8
0
0
POLYLINE
8
0
62
30
66
1
10
0
20
0
30
0
70
8
0
VERTEX
8
0
62
30
10
-0.084852814
20
0.15061116
30
0
70
32
0
VERTEX
8
0
62
30
10
-0.084852814
20
0.15883548
30
0
70
32
0
SEQEND
8
0
0
POLYLINE
8
0
62
30
66
1
10
0
20
0
30
0
70
8
0
VERTEX
8
0
62
30
10
-0.056568542
20
0.15883548
30
0
70
32
0
VERTEX
8
0
62
30
10
-0.056568542
20
0.15883548
30
0
70
32
0
SEQEND
8
0
0
POLYLINE
8
0
62
30
66
1
10
0
20
0
30
0
70
8
0
VERTEX
8
0
62
30
10
-0.028284271
20
0.14829549
30
0
70
32
0
VERTEX
8
0
62
30
10
-0.028284271
20
0.15883548
30
0
70
32
0
SEQEND
8
0
0
POLYLINE
8
0
62
30
66
1
10
0
20
0
30
0
70
8
0
VERTEX
8
0
62
30
10
-0.084852814
20
0.18828212
30
0
70
32
0
VERTEX
8
0
62
30
10
-0.084852814
20
0.19650644
30
0
70
32
0
SEQEND
8
0
0
POLYLINE
8
0
62
30
66
1
10
0
20
0
30
0
70
8
0
VERTEX
8
0
62
30
10
-0.056568542
20
0.19650644
30
0
70
32
0
VERTEX
8
0
62
30
10
-0.056568542
20
0.19650644
30
0
70
32
0
SEQEND
8
0
0
POLYLINE
8
0
62
30
66
1
10
0
20
0
30
0
70
8
0
VERTEX
8
0
62
30
10
-0.028284271
20
0.18596645
30
0
70
32
0
VERTEX
8
0
62
30
10
-0.028284271
20
0.19650644
30
0
70
32
0
SEQEND
8
0
0
POLYLINE
8
0
62
5
66
1
10
0
20
0
30
0
70
8
0
VERTEX
8
0
62
5
10
-0.084852814
20
0.14
30
0
70
32
0
VERTEX
8
0
62
5
10
-0.084852814
20
0.15061116
30
0
70
32
0
SEQEND
8
0
0
POLYLINE
8
0
62
5
66
1
10
0
20
0
30
0
70
8
0
VERTEX
8
0
62
5
10
-0.056568542
20
0.14
30
0
70
32
0
VERTEX
8
0
62
5
10
-0.056568542
20
0.15883548
30
0
70
32
0
SEQEND
8
0
0
POLYLINE
8
0
62
5
66
1
10
0
20
0
30
0
70
8
0
VERTEX
8
0
62
5
10
-0.028284271
20
0.14
30
0
70
32
0
VERTEX
8
0
62
5
10
-0.028284271
20
0.14829549
30
0
70
32
0
SEQEND
8
0
0
POLYLINE
8
0
62
5
66
1
10
0
20
0
30
0
70
8
0
VERTEX
8
0
62
5
10
-0.084852814
20
0.17767096
30
0
70
32
0
VERTEX
8
0
62
5
10
-0.084852814
20
0.18828212
30
0
70
32
0
SEQEND
8
0
0
POLYLINE
8
0
62
5
66
1
10
0
20
0
30
0
70
8
0
VERTEX
8
0
62
5
10
-0.056568542
20
0.17767096
30
0
70
32
0
VERTEX
8
0
62
5
10
-0.056568542
20
0.19650644
30
0
70
32
0
SEQEND
8
0
0
POLYLINE
8
0
62
5
66
1
10
0
20
0
30
0
70
8
0
VERTEX
8
0
62
5
10
-0.028284271
20
0.17767096
30
0
70
32
0
VERTEX
8
0
62
5
10
-0.028284271
20
0.18596645
30
0
70
32
0
SEQEND
8
0
0
POLYLINE
8
0
62
5
66
1
10
0
20
0
30
0
70
8
0
VERTEX
8
0
62
5
10
-0.084852814
20
0.15883548
30
0
70
32
0
VERTEX
8
0
62
5
10
-0.084852814
20
0.17767096
30
0
70
32
0
SEQEND
8
0
0
POLYLINE
8
0
62
5
66
1
10
0
20
0
30
0
70
8
0
VERTEX
8
0
62
5
10
-0.056568542
20
0.15883548
30
0
70
32
0
VERTEX
8
0
62
5
10
-0.056568542
20
0.17767096
30
0
70
32
0
SEQEND
8
0
0
POLYLINE
8
0
62
5
66
1
10
0
20
0
30
0
70
8
0
VERTEX
8
0
62
5
10
-0.028284271
20
0.15883548
30
0
70
32
0
VERTEX
8
0
62
5
10
-0.028284271
20
0.17767096
30
0
70
32
0
SEQEND
8
0
0
POLYLINE
8
0
62
5
66
1
10
0
20
0
30
0
70
8
0
VERTEX
8
0
62
5
10
-0.084852814
20
0.19650644
30
0
70
32
0
VERTEX
8
0
62
5
10
-0.084852814
20
0.21534192
30
0
70
32
0
SEQEND
8
0
0
POLYLINE
8
0
62
5
66
1
10
0
20
0
30
0
70
8
0
VERTEX
8
0
62
5
10
-0.056568542
20
0.19650644
30
0
70
32
0
VERTEX
8
0
62
5
10
-0.056568542
20
0.21534192
30
0
70
32
0
SEQEND
8
0
0
POLYLINE
8
0
62
5
66
1
10
0
20
0
30
0
70
8
0
VERTEX
8
0
62
5
10
-0.028284271
20
0.19650644
30
0
70
32
0
VERTEX
8
0
62
5
10
-0.028284271
20
0.21534192
30
0
70
32
0
SEQEND
8
0
0
POLYLINE
8
0
62
30
66
1
10
0
20
0
30
0
70
8
0
VERTEX
8
0
62
30
10
-0.11313708
20
0.14007117
30
0
70
32
0
VERTEX
8
0
62
30
10
-0.10240512
20
0.15883548
30
0
70
32
0
VERTEX
8
0
62
30
10
-0.11313708
20
0.17759979
30
0
70
32
0
SEQEND
8
0
0
POLYLINE
8
0
62
30
66
1
10
0
20
0
30
0
70
8
0
VERTEX
8
0
62
30
10
-0.084852814
20
0.15061116
30
0
70
32
0
VERTEX
8
0
62
30
10
-0.07690507
20
0.15883548
30
0
70
32
0
VERTEX
8
0
62
30
10
-0.084852814
20
0.1670598
30
0
70
32
0
SEQEND
8
0
0
POLYLINE
8
0
62
30
66
1
10
0
20
0
30
0
70
8
0
VERTEX
8
0
62
30
10
-0.056568542
20
0.15883548
30
0
70
32
0
VERTEX
8
0
62
30
10
-0.056568542
20
0.15883548
30
0
70
32
0
VERTEX
8
0
62
30
10
-0.056568542
20
0.15883548
30
0
70
32
0
SEQEND
8
0
0
POLYLINE
8
0
62
30
66
1
10
0
20
0
30
0
70
8
0
VERTEX
8
0
62
30
10
-0.028284271
20
0.14829549
30
0
70
32
0
VERTEX
8
0
62
30
10
-0.019504053
20
0.15883548
30
0
70
32
0
VERTEX
8
0
62
30
10
-0.028284271
20
0.16937547
30
0
70
32
0
SEQEND
8
0
0
POLYLINE
8
0
62
30
66
1
10
0
20
0
30
0
70
8
0
VERTEX
8
0
62
30
10
-0.11313708
20
0.17774213
30
0
70
32
0
VERTEX
8
0
62
30
10
-0.10240512
20
0.19650644
30
0
70
32
0
VERTEX
8
0
62
30
10
-0.11313708
20
0.21527075
30
0
70
32
0
SEQEND
8
0
0
POLYLINE
8
0
62
30
66
1
10
0
20
0
30
0
70
8
0
VERTEX
8
0
62
30
10
-0.084852814
20
0.18828212
30
0
70
32
0
VERTEX
8
0
62
30
10
-0.07690507
20
0.19650644
30
0
70
32
0
VERTEX
8
0
62
30
10
-0.084852814
20
0.20473076
30
0
70
32
0
SEQEND
8
0
0
POLYLINE
8
0
62
30
66
1
10
0
20
0
30
0
70
8
0
VERTEX
8
0
62
30
10
-0.056568542
20
0.19650644
30
0
70
32
0
VERTEX
8
0
62
30
10
-0.056568542
20
0.19650644
30
0
70
32
0
VERTEX
8
0
62
30
10
-0.056568542
20
0.19650644
30
0
70
32
0
SEQEND
8
0
0
POLYLINE
8
0
62
30
66
1
10
0
20
0
30
0
70
8
0
VERTEX
8
0
62
30
10
-0.028284271
20
0.18596645
30
0
70
32
0
VERTEX
8
0
62
30
10
-0.019504053
20
0.19650644
30
0
70
32
0
VERTEX
8
0
62
30
10
-0.028284271
20
0.20704643
30
0
70
32
0
SEQEND
8
0
0
POLYLINE
8
0
62
30
66
1
10
0
20
0
30
0
70
8
0
VERTEX
8
0
62
30
10
0
20
0.24857354
30
0
70
32
0
VERTEX
8
0
62
30
10
0.11313708
20
0.24857354
30
0
70
32
0
SEQEND
8
0
0
POLYLINE
8
0
62
30
66
1
10
0
20
0
30
0
70
8
0
VERTEX
8
0
62
30
10
0
20
0.21534192
30
0
70
32
0
VERTEX
8
0
62
30
10
0.11313708
20
0.21534192
30
0
70
32
0
SEQEND
8
0
0
POLYLINE
8
0
62
5
66
1
10
0
20
0
30
0
70
8
0
VERTEX
8
0
62
5
10
0
20
0.21534192
30
0
70
32
0
VERTEX
8
0
62
5
10
0.009809098
20
0.24857354
30
0
70
32
0
VERTEX
8
0
62
5
10
0.028284271
20
0.21534192
30
0
70
32
0
VERTEX
8
0
62
5
10
0.038093369
20
0.24857354
30
0
70
32
0
VERTEX
8
0
62
5
10
0.056568542
20
0.21534192
30
0
70
32
0
VERTEX
8
0
62
5
10
0.06637764
20
0.24857354
30
0
70
32
0
VERTEX
8
0
62
5
10
0.084852814
20
0.21534192
30
0
70
32
0
VERTEX
8
0
62
5
10
0.094661912
20
0.24857354
30
0
70
32
0
VERTEX
8
0
62
5
10
0.11313708
20
0.21534192
30
0
70
32
0
SEQEND
8
0
0
POLYLINE
8
0
62
5
66
1
10
0
20
0
30
0
70
8
0
VERTEX
8
0
62
5
10
0.028284271
20
0.21534192
30
0
70
32
0
VERTEX
8
0
62
5
10
0.028284271
20
0.21534192
30
0
70
32
0
SEQEND
8
0
0
POLYLINE
8
0
62
5
66
1
10
0
20
0
30
0
70
8
0
VERTEX
8
0
62
5
10
0.056568542
20
0.21534192
30
0
70
32
0
VERTEX
8
0
62
5
10
0.056568542
20
0.21534192
30
0
70
32
0
SEQEND
8
0
0
POLYLINE
8
0
62
5
66
1
10
0
20
0
30
0
70
8
0
VERTEX
8
0
62
5
10
0.084852814
20
0.21534192
30
0
70
32
0
VERTEX
8
0
62
5
10
0.084852814
20
0.21534192
30
0
70
32
0
SEQEND
8
0
0
POLYLINE
8
0
62
5
66
1
10
0
20
0
30
0
70
8
0
VERTEX
8
0
62
5
10
0.009809098
20
0.24857354
30
0
70
32
0
VERTEX
8
0
62
5
10
0.009809098
20
0.24857354
30
0
70
32
0
SEQEND
8
0
0
POLYLINE
8
0
62
5
66
1
10
0
20
0
30
0
70
8
0
VERTEX
8
0
62
5
10
0.038093369
20
0.24857354
30
0
70
32
0
VERTEX
8
0
62
5
10
0.038093369
20
0.24857354
30
0
70
32
0
SEQEND
8
0
0
POLYLINE
8
0
62
5
66
1
10
0
20
0
30
0
70
8
0
VERTEX
8
0
62
5
10
0.06637764
20
0.24857354
30
0
70
32
0
VERTEX
8
0
62
5
10
0.06637764
20
0.24857354
30
0
70
32
0
SEQEND
8
0
0
POLYLINE
8
0
62
5
66
1
10
0
20
0
30
0
70
8
0
VERTEX
8
0
62
5
10
0.094661912
20
0.24857354
30
0
70
32
0
VERTEX
8
0
62
5
10
0.094661912
20
0.24857354
30
0
70
32
0
SEQEND
8
0
0
POLYLINE
8
0
62
30
66
1
10
0
20
0
30
0
70
8
0
VERTEX
8
0
62
30
10
0.11313708
20
0.24857354
30
0
70
32
0
VERTEX
8
0
62
30
10
0.22627417
20
0.24857354
30
0
70
32
0
SEQEND
8
0
0
POLYLINE
8
0
62
30
66
1
10
0
20
0
30
0
70
8
0
VERTEX
8
0
62
30
10
0.11313708
20
0.21534192
30
0
70
32
0
VERTEX
8
0
62
30
10
0.22627417
20
0.21534192
30
0
70
32
0
SEQEND
8
0
0
POLYLINE
8
0
62
5
66
1
10
0
20
0
30
0
70
8
0
VERTEX
8
0
62
5
10
0.11313708
20
0.21534192
30
0
70
32
0
VERTEX
8
0
62
5
10
0.12294618
20
0.24857354
30
0
70
32
0
VERTEX
8
0
62
5
10
0.14142136
20
0.21534192
30
0
70
32
0
VERTEX
8
0
62
5
10
0.15123045
20
0.24857354
30
0
70
32
0
VERTEX
8
0
62
5
10
0.16970563
20
0.21534192
30
0
70
32
0
VERTEX
8
0
62
5
10
0.17951473
20
0.24857354
30
0
70
32
0
VERTEX
8
0
62
5
10
0.1979899
20
0.21534192
30
0
70
32
0
VERTEX
8
0
62
5
10
0.207799
20
0.24857354
30
0
70
32
0
VERTEX
8
0
62
5
10
0.22627417
20
0.21534192
30
0
70
32
0
SEQEND
8
0
0
POLYLINE
8
0
62
5
66
1
10
0
20
0
30
0
70
8
0
VERTEX
8
0
62
5
10
0.14142136
20
0.21534192
30
0
70
32
0
VERTEX
8
0
62
5
10
0.14142136
20
0.21534192
30
0
70
32
0
SEQEND
8
0
0
POLYLINE
8
0
62
5
66
1
10
0
20
0
30
0
70
8
0
VERTEX
8
0
62
5
10
0.16970563
20
0.21534192
30
0
70
32
0
VERTEX
8
0
62
5
10
0.16970563
20
0.21534192
30
0
70
32
0
SEQEND
8
0
0
POLYLINE
8
0
62
5
66
1
10
0
20
0
30
0
70
8
0
VERTEX
8
0
62
5
10
0.1979899
20
0.21534192
30
0
70
32
0
VERTEX
8
0
62
5
10
0.1979899
20
0.21534192
30
0
70
32
0
SEQEND
8
0
0
POLYLINE
8
0
62
5
66
1
10
0
20
0
30
0
70
8
0
VERTEX
8
0
62
5
10
0.12294618
20
0.24857354
30
0
70
32
0
VERTEX
8
0
62
5
10
0.12294618
20
0.24857354
30
0
70
32
0
SEQEND
8
0
0
POLYLINE
8
0
62
5
66
1
10
0
20
0
30
0
70
8
0
VERTEX
8
0
62
5
10
0.15123045
20
0.24857354
30
0
70
32
0
VERTEX
8
0
62
5
10
0.15123045
20
0.24857354
30
0
70
32
0
SEQEND
8
0
0
POLYLINE
8
0
62
5
66
1
10
0
20
0
30
0
70
8
0
VERTEX
8
0
62
5
10
0.17951473
20
0.24857354
30
0
70
32
0
VERTEX
8
0
62
5
10
0.17951473
20
0.24857354
30
0
70
32
0
SEQEND
8
0
0
POLYLINE
8
0
62
5
66
1
10
0
20
0
30
0
70
8
0
VERTEX
8
0
62
5
10
0.207799
20
0.24857354
30
0
70
32
0
VERTEX
8
0
62
5
10
0.207799
20
0.24857354
30
0
70
32
0
SEQEND
8
0
0
POLYLINE
8
0
62
30
66
1
10
0
20
0
30
0
70
8
0
VERTEX
8
0
62
30
10
-0.11313708
20
0.24857354
30
0
70
32
0
VERTEX
8
0
62
30
10
0
20
0.24857354
30
0
70
32
0
SEQEND
8
0
0
POLYLINE
8
0
62
30
66
1
10
0
20
0
30
0
70
8
0
VERTEX
8
0
62
30
10
-0.11313708
20
0.21534192
30
0
70
32
0
VERTEX
8
0
62
30
10
0
20
0.21534192
30
0
70
32
0
SEQEND
8
0
0
POLYLINE
8
0
62
5
66
1
10
0
20
0
30
0
70
8
0
VERTEX
8
0
62
5
10
-0.11313708
20
0.21534192
30
0
70
32
0
VERTEX
8
0
62
5
10
-0.10332799
20
0.24857354
30
0
70
32
0
VERTEX
8
0
62
5
10
-0.084852814
20
0.21534192
30
0
70
32
0
VERTEX
8
0
62
5
10
-0.075043716
20
0.24857354
30
0
70
32
0
VERTEX
8
0
62
5
10
-0.056568542
20
0.21534192
30
0
70
32
0
VERTEX
8
0
62
5
10
-0.046759445
20
0.24857354
30
0
70
32
0
VERTEX
8
0
62
5
10
-0.028284271
20
0.21534192
30
0
70
32
0
VERTEX
8
0
62
5
10
-0.018475173
20
0.24857354
30
0
70
32
0
VERTEX
8
0
62
5
10
0
20
0.21534192
30
0
70
32
0
SEQEND
8
0
0
POLYLINE
8
0
62
5
66
1
10
0
20
0
30
0
70
8
0
VERTEX
8
0
62
5
10
-0.084852814
20
0.21534192
30
0
70
32
0
VERTEX
8
0
62
5
10
-0.084852814
20
0.21534192
30
0
70
32
0
SEQEND
8
0
0
POLYLINE
8
0
62
5
66
1
10
0
20
0
30
0
70
8
0
VERTEX
8
0
62
5
10
-0.056568542
20
0.21534192
30
0
70
32
0
VERTEX
8
0
62
5
10
-0.056568542
20
0.21534192
30
0
70
32
0
SEQEND
8
0
0
POLYLINE
8
0
62
5
66
1
10
0
20
0
30
0
70
8
0
VERTEX
8
0
62
5
10
-0.028284271
20
0.21534192
30
0
70
32
0
VERTEX
8
0
62
5
10
-0.028284271
20
0.21534192
30
0
70
32
0
SEQEND
8
0
0
POLYLINE
8
0
62
5
66
1
10
0
20
0
30
0
70
8
0
VERTEX
8
0
62
5
10
-0.10332799
20
0.24857354
30
0
70
32
0
VERTEX
8
0
62
5
10
-0.10332799
20
0.24857354
30
0
70
32
0
SEQEND
8
0
0
POLYLINE
8
0
62
5
66
1
10
0
20
0
30
0
70
8
0
VERTEX
8
0
62
5
10
-0.075043716
20
0.24857354
30
0
70
32
0
VERTEX
8
0
62
5
10
-0.075043716
20
0.24857354
30
0
70
32
0
SEQEND
8
0
0
POLYLINE
8
0
62
5
66
1
10
0
20
0
30
0
70
8
0
VERTEX
8
0
62
5
10
-0.046759445
20
0.24857354
30
0
70
32
0
VERTEX
8
0
62
5
10
-0.046759445
20
0.24857354
30
0
70
32
0
SEQEND
8
0
0
POLYLINE
8
0
62
5
66
1
10
0
20
0
30
0
70
8
0
VERTEX
8
0
62
5
10
-0.018475173
20
0.24857354
30
0
70
32
0
VERTEX
8
0
62
5
10
-0.018475173
20
0.24857354
30
0
70
32
0
SEQEND
8
0
0
POLYLINE
8
0
62
5
66
1
10
0
20
0
30
0
70
8
0
VERTEX
8
0
62
5
10
0.009809098
20
0.24857354
30
0
70
32
0
VERTEX
8
0
62
5
10
0.009809098
20
0.37974458
30
0
70
32
0
SEQEND
8
0
0
POLYLINE
8
0
62
5
66
1
10
0
20
0
30
0
70
8
0
VERTEX
8
0
62
5
10
0.12294618
20
0.24857354
30
0
70
32
0
VERTEX
8
0
62
5
10
0.12294618
20
0.37974458
30
0
70
32
0
SEQEND
8
0
0
POLYLINE
8
0
62
5
66
1
10
0
20
0
30
0
70
8
0
VERTEX
8
0
62
5
10
0.038093369
20
0.24857354
30
0
70
32
0
VERTEX
8
0
62
5
10
0.038093369
20
0.37974458
30
0
70
32
0
SEQEND
8
0
0
POLYLINE
8
0
62
5
66
1
10
0
20
0
30
0
70
8
0
VERTEX
8
0
62
5
10
0.06637764
20
0.24857354
30
0
70
32
0
VERTEX
8
0
62
5
10
0.06637764
20
0.37974458
30
0
70
32
0
SEQEND
8
0
0
POLYLINE
8
0
62
5
66
1
10
0
20
0
30
0
70
8
0
VERTEX
8
0
62
5
10
0.094661912
20
0.24857354
30
0
70
32
0
VERTEX
8
0
62
5
10
0.094661912
20
0.37974458
30
0
70
32
0
SEQEND
8
0
0
POLYLINE
8
0
62
5
66
1
10
0
20
0
30
0
70
8
0
VERTEX
8
0
62
5
10
0.23608327
20
0.24857354
30
0
70
32
0
VERTEX
8
0
62
5
10
0.23608327
20
0.37974458
30
0
70
32
0
SEQEND
8
0
0
POLYLINE
8
0
62
5
66
1
10
0
20
0
30
0
70
8
0
VERTEX
8
0
62
5
10
0.15123045
20
0.24857354
30
0
70
32
0
VERTEX
8
0
62
5
10
0.15123045
20
0.37974458
30
0
70
32
0
SEQEND
8
0
0
POLYLINE
8
0
62
5
66
1
10
0
20
0
30
0
70
8
0
VERTEX
8
0
62
5
10
0.17951473
20
0.24857354
30
0
70
32
0
VERTEX
8
0
62
5
10
0.17951473
20
0.37974458
30
0
70
32
0
SEQEND
8
0
0
POLYLINE
8
0
62
5
66
1
10
0
20
0
30
0
70
8
0
VERTEX
8
0
62
5
10
0.207799
20
0.24857354
30
0
70
32
0
VERTEX
8
0
62
5
10
0.207799
20
0.37974458
30
0
70
32
0
SEQEND
8
0
0
POLYLINE
8
0
62
5
66
1
10
0
20
0
30
0
70
8
0
VERTEX
8
0
62
5
10
-0.10332799
20
0.24857354
30
0
70
32
0
VERTEX
8
0
62
5
10
-0.10332799
20
0.37974458
30
0
70
32
0
SEQEND
8
0
0
POLYLINE
8
0
62
5
66
1
10
0
20
0
30
0
70
8
0
VERTEX
8
0
62
5
10
-0.075043716
20
0.24857354
30
0
70
32
0
VERTEX
8
0
62
5
10
-0.075043716
20
0.37974458
30
0
70
32
0
SEQEND
8
0
0
POLYLINE
8
0
62
5
66
1
10
0
20
0
30
0
70
8
0
VERTEX
8
0
62
5
10
-0.046759445
20
0.24857354
30
0
70
32
0
VERTEX
8
0
62
5
10
-0.046759445
20
0.37974458
30
0
70
32
0
SEQEND
8
0
0
POLYLINE
8
0
62
5
66
1
10
0
20
0
30
0
70
8
0
VERTEX
8
0
62
5
10
-0.018475173
20
0.24857354
30
0
70
32
0
VERTEX
8
0
62
5
10
-0.018475173
20
0.37974458
30
0
70
32
0
SEQEND
8
0
0
POLYLINE
8
0
62
5
66
1
10
0
20
0
30
0
70
8
0
VERTEX
8
0
62
5
10
0.009809098
20
0.37974458
30
0
70
32
0
VERTEX
8
0
62
5
10
0.009809098
20
0.41670247
30
0
70
32
0
SEQEND
8
0
0
POLYLINE
8
0
62
5
66
1
10
0
20
0
30
0
70
8
0
VERTEX
8
0
62
5
10
0.12294618
20
0.41670247
30
0
70
32
0
VERTEX
8
0
62
5
10
0.12294618
20
0.37974458
30
0
70
32
0
SEQEND
8
0
0
POLYLINE
8
0
62
5
66
1
10
0
20
0
30
0
70
8
0
VERTEX
8
0
62
5
10
0.009809098
20
0.38458141
30
0
70
32
0
VERTEX
8
0
62
5
10
0.038093369
20
0.38115702
30
0
70
32
0
VERTEX
8
0
62
5
10
0.06637764
20
0.39479913
30
0
70
32
0
VERTEX
8
0
62
5
10
0.094661912
20
0.39822352
30
0
70
32
0
VERTEX
8
0
62
5
10
0.12294618
20
0.38458141
30
0
70
32
0
SEQEND
8
0
0
POLYLINE
8
0
62
5
66
1
10
0
20
0
30
0
70
8
0
SEQEND
8
0
0
POLYLINE
8
0
62
5
66
1
10
0
20
0
30
0
70
8
0
VERTEX
8
0
62
5
10
0.009809098
20
0.41186564
30
0
70
32
0
VERTEX
8
0
62
5
10
0.038093369
20
0.41529003
30
0
70
32
0
VERTEX
8
0
62
5
10
0.06637764
20
0.40164792
30
0
70
32
0
VERTEX
8
0
62
5
10
0.094661912
20
0.39822352
30
0
70
32
0
VERTEX
8
0
62
5
10
0.12294618
20
0.41186564
30
0
70
32
0
SEQEND
8
0
0
POLYLINE
8
0
62
30
66
1
10
0
20
0
30
0
70
8
0
VERTEX
8
0
62
30
10
0.009809098
20
0.39822352
30
0
70
32
0
VERTEX
8
0
62
30
10
0.12294618
20
0.39822352
30
0
70
32
0
SEQEND
8
0
0
POLYLINE
8
0
62
30
66
1
10
0
20
0
30
0
70
8
0
VERTEX
8
0
62
30
10
0.038093369
20
0.38115702
30
0
70
32
0
VERTEX
8
0
62
30
10
0.038093369
20
0.39822352
30
0
70
32
0
SEQEND
8
0
0
POLYLINE
8
0
62
30
66
1
10
0
20
0
30
0
70
8
0
VERTEX
8
0
62
30
10
0.06637764
20
0.39479913
30
0
70
32
0
VERTEX
8
0
62
30
10
0.06637764
20
0.39822352
30
0
70
32
0
SEQEND
8
0
0
POLYLINE
8
0
62
30
66
1
10
0
20
0
30
0
70
8
0
VERTEX
8
0
62
30
10
0.094661912
20
0.39822352
30
0
70
32
0
VERTEX
8
0
62
30
10
0.094661912
20
0.39822352
30
0
70
32
0
SEQEND
8
0
0
POLYLINE
8
0
62
5
66
1
10
0
20
0
30
0
70
8
0
VERTEX
8
0
62
5
10
0.038093369
20
0.37974458
30
0
70
32
0
VERTEX
8
0
62
5
10
0.038093369
20
0.38115702
30
0
70
32
0
SEQEND
8
0
0
POLYLINE
8
0
62
5
66
1
10
0
20
0
30
0
70
8
0
VERTEX
8
0
62
5
10
0.06637764
20
0.37974458
30
0
70
32
0
VERTEX
8
0
62
5
10
0.06637764
20
0.39479913
30
0
70
32
0
SEQEND
8
0
0
POLYLINE
8
0
62
5
66
1
10
0
20
0
30
0
70
8
0
VERTEX
8
0
62
5
10
0.094661912
20
0.37974458
30
0
70
32
0
VERTEX
8
0
62
5
10
0.094661912
20
0.39822352
30
0
70
32
0
SEQEND
8
0
0
POLYLINE
8
0
62
5
66
1
10
0
20
0
30
0
70
8
0
VERTEX
8
0
62
5
10
0.038093369
20
0.39822352
30
0
70
32
0
VERTEX
8
0
62
5
10
0.038093369
20
0.41670247
30
0
70
32
0
SEQEND
8
0
0
POLYLINE
8
0
62
5
66
1
10
0
20
0
30
0
70
8
0
VERTEX
8
0
62
5
10
0.06637764
20
0.39822352
30
0
70
32
0
VERTEX
8
0
62
5
10
0.06637764
20
0.41670247
30
0
70
32
0
SEQEND
8
0
0
POLYLINE
8
0
62
5
66
1
10
0
20
0
30
0
70
8
0
VERTEX
8
0
62
5
10
0.094661912
20
0.39822352
30
0
70
32
0
VERTEX
8
0
62
5
10
0.094661912
20
0.41670247
30
0
70
32
0
SEQEND
8
0
0
POLYLINE
8
0
62
30
66
1
10
0
20
0
30
0
70
8
0
VERTEX
8
0
62
30
10
0.009809098
20
0.38458141
30
0
70
32
0
VERTEX
8
0
62
30
10
0.019038757
20
0.39822352
30
0
70
32
0
VERTEX
8
0
62
30
10
0.009809098
20
0.41186564
30
0
70
32
0
SEQEND
8
0
0
POLYLINE
8
0
62
30
66
1
10
0
20
0
30
0
70
8
0
VERTEX
8
0
62
30
10
0.038093369
20
0.38115702
30
0
70
32
0
VERTEX
8
0
62
30
10
0.048014519
20
0.39822352
30
0
70
32
0
VERTEX
8
0
62
30
10
0.038093369
20
0.41529003
30
0
70
32
0
SEQEND
8
0
0
POLYLINE
8
0
62
30
66
1
10
0
20
0
30
0
70
8
0
VERTEX
8
0
62
30
10
0.06637764
20
0.39479913
30
0
70
32
0
VERTEX
8
0
62
30
10
0.070909829
20
0.39822352
30
0
70
32
0
VERTEX
8
0
62
30
10
0.06637764
20
0.40164792
30
0
70
32
0
SEQEND
8
0
0
POLYLINE
8
0
62
30
66
1
10
0
20
0
30
0
70
8
0
VERTEX
8
0
62
30
10
0.094661912
20
0.39822352
30
0
70
32
0
VERTEX
8
0
62
30
10
0.094661912
20
0.39822352
30
0
70
32
0
VERTEX
8
0
62
30
10
0.094661912
20
0.39822352
30
0
70
32
0
SEQEND
8
0
0
POLYLINE
8
0
62
5
66
1
10
0
20
0
30
0
70
8
0
VERTEX
8
0
62
5
10
0.23608327
20
0.41670247
30
0
70
32
0
VERTEX
8
0
62
5
10
0.23608327
20
0.37974458
30
0
70
32
0
SEQEND
8
0
0
POLYLINE
8
0
62
5
66
1
10
0
20
0
30
0
70
8
0
VERTEX
8
0
62
5
10
0.12294618
20
0.38458141
30
0
70
32
0
VERTEX
8
0
62
5
10
0.15123045
20
0.38115702
30
0
70
32
0
VERTEX
8
0
62
5
10
0.17951473
20
0.39479913
30
0
70
32
0
VERTEX
8
0
62
5
10
0.207799
20
0.39822352
30
0
70
32
0
VERTEX
8
0
62
5
10
0.23608327
20
0.38458141
30
0
70
32
0
SEQEND
8
0
0
POLYLINE
8
0
62
5
66
1
10
0
20
0
30
0
70
8
0
SEQEND
8
0
0
POLYLINE
8
0
62
5
66
1
10
0
20
0
30
0
70
8
0
VERTEX
8
0
62
5
10
0.12294618
20
0.41186564
30
0
70
32
0
VERTEX
8
0
62
5
10
0.15123045
20
0.41529003
30
0
70
32
0
VERTEX
8
0
62
5
10
0.17951473
20
0.40164792
30
0
70
32
0
VERTEX
8
0
62
5
10
0.207799
20
0.39822352
30
0
70
32
0
VERTEX
8
0
62
5
10
0.23608327
20
0.41186564
30
0
70
32
0
SEQEND
8
0
0
POLYLINE
8
0
62
30
66
1
10
0
20
0
30
0
70
8
0
VERTEX
8
0
62
30
10
0.12294618
20
0.39822352
30
0
70
32
0
VERTEX
8
0
62
30
10
0.23608327
20
0.39822352
30
0
70
32
0
SEQEND
8
0
0
POLYLINE
8
0
62
30
66
1
10
0
20
0
30
0
70
8
0
VERTEX
8
0
62
30
10
0.15123045
20
0.38115702
30
0
70
32
0
VERTEX
8
0
62
30
10
0.15123045
20
0.39822352
30
0
70
32
0
SEQEND
8
0
0
POLYLINE
8
0
62
30
66
1
10
0
20
0
30
0
70
8
0
VERTEX
8
0
62
30
10
0.17951473
20
0.39479913
30
0
70
32
0
VERTEX
8
0
62
30
10
0.17951473
20
0.39822352
30
0
70
32
0
SEQEND
8
0
0
POLYLINE
8
0
62
30
66
1
10
0
20
0
30
0
70
8
0
VERTEX
8
0
62
30
10
0.207799
20
0.39822352
30
0
70
32
0
VERTEX
8
0
62
30
10
0.207799
20
0.39822352
30
0
70
32
0
SEQEND
8
0
0
POLYLINE
8
0
62
5
66
1
10
0
20
0
30
0
70
8
0
VERTEX
8
0
62
5
10
0.15123045
20
0.37974458
30
0
70
32
0
VERTEX
8
0
62
5
10
0.15123045
20
0.38115702
30
0
70
32
0
SEQEND
8
0
0
POLYLINE
8
0
62
5
66
1
10
0
20
0
30
0
70
8
0
VERTEX
8
0
62
5
10
0.17951473
20
0.37974458
30
0
70
32
0
VERTEX
8
0
62
5
10
0.17951473
20
0.39479913
30
0
70
32
0
SEQEND
8
0
0
POLYLINE
8
0
62
5
66
1
10
0
20
0
30
0
70
8
0
VERTEX
8
0
62
5
10
0.207799
20
0.37974458
30
0
70
32
0
VERTEX
8
0
62
5
10
0.207799
20
0.39822352
30
0
70
32
0
SEQEND
8
0
0
POLYLINE
8
0
62
5
66
1
10
0
20
0
30
0
70
8
0
VERTEX
8
0
62
5
10
0.15123045
20
0.39822352
30
0
70
32
0
VERTEX
8
0
62
5
10
0.15123045
20
0.41670247
30
0
70
32
0
SEQEND
8
0
0
POLYLINE
8
0
62
5
66
1
10
0
20
0
30
0
70
8
0
VERTEX
8
0
62
5
10
0.17951473
20
0.39822352
30
0
70
32
0
VERTEX
8
0
62
5
10
0.17951473
20
0.41670247
30
0
70
32
0
SEQEND
8
0
0
POLYLINE
8
0
62
5
66
1
10
0
20
0
30
0
70
8
0
VERTEX
8
0
62
5
10
0.207799
20
0.39822352
30
0
70
32
0
VERTEX
8
0
62
5
10
0.207799
20
0.41670247
30
0
70
32
0
SEQEND
8
0
0
POLYLINE
8
0
62
30
66
1
10
0
20
0
30
0
70
8
0
VERTEX
8
0
62
30
10
0.12294618
20
0.38458141
30
0
70
32
0
VERTEX
8
0
62
30
10
0.13217584
20
0.39822352
30
0
70
32
0
VERTEX
8
0
62
30
10
0.12294618
20
0.41186564
30
0
70
32
0
SEQEND
8
0
0
POLYLINE
8
0
62
30
66
1
10
0
20
0
30
0
70
8
0
VERTEX
8
0
62
30
10
0.15123045
20
0.38115702
30
0
70
32
0
VERTEX
8
0
62
30
10
0.1611516
20
0.39822352
30
0
70
32
0
VERTEX
8
0
62
30
10
0.15123045
20
0.41529003
30
0
70
32
0
SEQEND
8
0
0
POLYLINE
8
0
62
30
66
1
10
0
20
0
30
0
70
8
0
VERTEX
8
0
62
30
10
0.17951473
20
0.39479913
30
0
70
32
0
VERTEX
8
0
62
30
10
0.18404691
20
0.39822352
30
0
70
32
0
VERTEX
8
0
62
30
10
0.17951473
20
0.40164792
30
0
70
32
0
SEQEND
8
0
0
POLYLINE
8
0
62
30
66
1
10
0
20
0
30
0
70
8
0
VERTEX
8
0
62
30
10
0.207799
20
0.39822352
30
0
70
32
0
VERTEX
8
0
62
30
10
0.207799
20
0.39822352
30
0
70
32
0
VERTEX
8
0
62
30
10
0.207799
20
0.39822352
30
0
70
32
0
SEQEND
8
0
0
POLYLINE
8
0
62
5
66
1
10
0
20
0
30
0
70
8
0
VERTEX
8
0
62
5
10
-0.10332799
20
0.37974458
30
0
70
32
0
VERTEX
8
0
62
5
10
-0.10332799
20
0.41670247
30
0
70
32
0
SEQEND
8
0
0
POLYLINE
8
0
62
5
66
1
10
0
20
0
30
0
70
8
0
VERTEX
8
0
62
5
10
-0.10332799
20
0.38458141
30
0
70
32
0
VERTEX
8
0
62
5
10
-0.075043716
20
0.38115702
30
0
70
32
0
VERTEX
8
0
62
5
10
-0.046759445
20
0.39479913
30
0
70
32
0
VERTEX
8
0
62
5
10
-0.018475173
20
0.39822352
30
0
70
32
0
VERTEX
8
0
62
5
10
0.009809098
20
0.38458141
30
0
70
32
0
SEQEND
8
0
0
POLYLINE
8
0
62
5
66
1
10
0
20
0
30
0
70
8
0
SEQEND
8
0
0
POLYLINE
8
0
62
5
66
1
10
0
20
0
30
0
70
8
0
VERTEX
8
0
62
5
10
-0.10332799
20
0.41186564
30
0
70
32
0
VERTEX
8
0
62
5
10
-0.075043716
20
0.41529003
30
0
70
32
0
VERTEX
8
0
62
5
10
-0.046759445
20
0.40164792
30
0
70
32
0
VERTEX
8
0
62
5
10
-0.018475173
20
0.39822352
30
0
70
32
0
VERTEX
8
0
62
5
10
0.009809098
20
0.41186564
30
0
70
32
0
SEQEND
8
0
0
POLYLINE
8
0
62
30
66
1
10
0
20
0
30
0
70
8
0
VERTEX
8
0
62
30
10
-0.10332799
20
0.39822352
30
0
70
32
0
VERTEX
8
0
62
30
10
0.009809098
20
0.39822352
30
0
70
32
0
SEQEND
8
0
0
POLYLINE
8
0
62
30
66
1
10
0
20
0
30
0
70
8
0
VERTEX
8
0
62
30
10
-0.075043716
20
0.38115702
30
0
70
32
0
VERTEX
8
0
62
30
10
-0.075043716
20
0.39822352
30
0
70
32
0
SEQEND
8
0
0
POLYLINE
8
0
62
30
66
1
10
0
20
0
30
0
70
8
0
VERTEX
8
0
62
30
10
-0.046759445
20
0.39479913
30
0
70
32
0
VERTEX
8
0
62
30
10
-0.046759445
20
0.39822352
30
0
70
32
0
SEQEND
8
0
0
POLYLINE
8
0
62
30
66
1
10
0
20
0
30
0
70
8
0
VERTEX
8
0
62
30
10
-0.018475173
20
0.39822352
30
0
70
32
0
VERTEX
8
0
62
30
10
-0.018475173
20
0.39822352
30
0
70
32
0
SEQEND
8
0
0
POLYLINE
8
0
62
5
66
1
10
0
20
0
30
0
70
8
0
VERTEX
8
0
62
5
10
-0.075043716
20
0.37974458
30
0
70
32
0
VERTEX
8
0
62
5
10
-0.075043716
20
0.38115702
30
0
70
32
0
SEQEND
8
0
0
POLYLINE
8
0
62
5
66
1
10
0
20
0
30
0
70
8
0
VERTEX
8
0
62
5
10
-0.046759445
20
0.37974458
30
0
70
32
0
VERTEX
8
0
62
5
10
-0.046759445
20
0.39479913
30
0
70
32
0
SEQEND
8
0
0
POLYLINE
8
0
62
5
66
1
10
0
20
0
30
0
70
8
0
VERTEX
8
0
62
5
10
-0.018475173
20
0.37974458
30
0
70
32
0
VERTEX
8
0
62
5
10
-0.018475173
20
0.39822352
30
0
70
32
0
SEQEND
8
0
0
POLYLINE
8
0
62
5
66
1
10
0
20
0
30
0
70
8
0
VERTEX
8
0
62
5
10
-0.075043716
20
0.39822352
30
0
70
32
0
VERTEX
8
0
62
5
10
-0.075043716
20
0.41670247
30
0
70
32
0
SEQEND
8
0
0
POLYLINE
8
0
62
5
66
1
10
0
20
0
30
0
70
8
0
VERTEX
8
0
62
5
10
-0.046759445
20
0.39822352
30
0
70
32
0
VERTEX
8
0
62
5
10
-0.046759445
20
0.41670247
30
0
70
32
0
SEQEND
8
0
0
POLYLINE
8
0
62
5
66
1
10
0
20
0
30
0
70
8
0
VERTEX
8
0
62
5
10
-0.018475173
20
0.39822352
30
0
70
32
0
VERTEX
8
0
62
5
10
-0.018475173
20
0.41670247
30
0
70
32
0
SEQEND
8
0
0
POLYLINE
8
0
62
30
66
1
10
0
20
0
30
0
70
8
0
VERTEX
8
0
62
30
10
-0.10332799
20
0.38458141
30
0
70
32
0
VERTEX
8
0
62
30
10
-0.094098328
20
0.39822352
30
0
70
32
0
VERTEX
8
0
62
30
10
-0.10332799
20
0.41186564
30
0
70
32
0
SEQEND
8
0
0
POLYLINE
8
0
62
30
66
1
10
0
20
0
30
0
70
8
0
VERTEX
8
0
62
30
10
-0.075043716
20
0.38115702
30
0
70
32
0
VERTEX
8
0
62
30
10
-0.065122566
20
0.39822352
30
0
70
32
0
VERTEX
8
0
62
30
10
-0.075043716
20
0.41529003
30
0
70
32
0
SEQEND
8
0
0
POLYLINE
8
0
62
30
66
1
10
0
20
0
30
0
70
8
0
VERTEX
8
0
62
30
10
-0.046759445
20
0.39479913
30
0
70
32
0
VERTEX
8
0
62
30
10
-0.042227256
20
0.39822352
30
0
70
32
0
VERTEX
8
0
62
30
10
-0.046759445
20
0.40164792
30
0
70
32
0
SEQEND
8
0
0
POLYLINE
8
0
62
30
66
1
10
0
20
0
30
0
70
8
0
VERTEX
8
0
62
30
10
-0.018475173
20
0.39822352
30
0
70
32
0
VERTEX
8
0
62
30
10
-0.018475173
20
0.39822352
30
0
70
32
0
VERTEX
8
0
62
30
10
-0.018475173
20
0.39822352
30
0
70
32
0
SEQEND
8
0
0
POLYLINE
8
0
62
5
66
1
10
0
20
0
30
0
70
8
0
VERTEX
8
0
62
5
10
0.009809098
20
0.41670247
30
0
70
32
0
VERTEX
8
0
62
5
10
0.009809098
20
0.45670247
30
0
70
32
0
SEQEND
8
0
0
POLYLINE
8
0
62
5
66
1
10
0
20
0
30
0
70
8
0
VERTEX
8
0
62
5
10
0.12294618
20
0.45670247
30
0
70
32
0
VERTEX
8
0
62
5
10
0.12294618
20
0.41670247
30
0
70
32
0
SEQEND
8
0
0
POLYLINE
8
0
62
5
66
1
10
0
20
0
30
0
70
8
0
VERTEX
8
0
62
5
10
0.009809098
20
0.41670247
30
0
70
32
0
VERTEX
8
0
62
5
10
0.12294618
20
0.41670247
30
0
70
32
0
SEQEND
8
0
0
POLYLINE
8
0
62
5
66
1
10
0
20
0
30
0
70
8
0
VERTEX
8
0
62
5
10
0.009809098
20
0.45670247
30
0
70
32
0
VERTEX
8
0
62
5
10
0.12294618
20
0.45670247
30
0
70
32
0
SEQEND
8
0
0
POLYLINE
8
0
62
5
66
1
10
0
20
0
30
0
70
8
0
VERTEX
8
0
62
5
10
0.038093369
20
0.41670247
30
0
70
32
0
VERTEX
8
0
62
5
10
0.038093369
20
0.41670247
30
0
70
32
0
SEQEND
8
0
0
POLYLINE
8
0
62
5
66
1
10
0
20
0
30
0
70
8
0
VERTEX
8
0
62
5
10
0.06637764
20
0.41670247
30
0
70
32
0
VERTEX
8
0
62
5
10
0.06637764
20
0.41670247
30
0
70
32
0
SEQEND
8
0
0
POLYLINE
8
0
62
5
66
1
10
0
20
0
30
0
70
8
0
VERTEX
8
0
62
5
10
0.094661912
20
0.41670247
30
0
70
32
0
VERTEX
8
0
62
5
10
0.094661912
20
0.41670247
30
0
70
32
0
SEQEND
8
0
0
POLYLINE
8
0
62
5
66
1
10
0
20
0
30
0
70
8
0
VERTEX
8
0
62
5
10
0.038093369
20
0.45670247
30
0
70
32
0
VERTEX
8
0
62
5
10
0.038093369
20
0.45670247
30
0
70
32
0
SEQEND
8
0
0
POLYLINE
8
0
62
5
66
1
10
0
20
0
30
0
70
8
0
VERTEX
8
0
62
5
10
0.06637764
20
0.45670247
30
0
70
32
0
VERTEX
8
0
62
5
10
0.06637764
20
0.45670247
30
0
70
32
0
SEQEND
8
0
0
POLYLINE
8
0
62
5
66
1
10
0
20
0
30
0
70
8
0
VERTEX
8
0
62
5
10
0.094661912
20
0.45670247
30
0
70
32
0
VERTEX
8
0
62
5
10
0.094661912
20
0.45670247
30
0
70
32
0
SEQEND
8
0
0
POLYLINE
8
0
62
30
66
1
10
0
20
0
30
0
70
8
0
VERTEX
8
0
62
30
10
0.009809098
20
0.45670247
30
0
70
32
0
VERTEX
8
0
62
30
10
0.038093369
20
0.41670247
30
0
70
32
0
SEQEND
8
0
0
POLYLINE
8
0
62
30
66
1
10
0
20
0
30
0
70
8
0
VERTEX
8
0
62
30
10
0.038093369
20
0.45670247
30
0
70
32
0
VERTEX
8
0
62
30
10
0.009809098
20
0.41670247
30
0
70
32
0
SEQEND
8
0
0
POLYLINE
8
0
62
30
66
1
10
0
20
0
30
0
70
8
0
VERTEX
8
0
62
30
10
0.06637764
20
0.45670247
30
0
70
32
0
VERTEX
8
0
62
30
10
0.094661912
20
0.41670247
30
0
70
32
0
SEQEND
8
0
0
POLYLINE
8
0
62
30
66
1
10
0
20
0
30
0
70
8
0
VERTEX
8
0
62
30
10
0.094661912
20
0.45670247
30
0
70
32
0
VERTEX
8
0
62
30
10
0.06637764
20
0.41670247
30
0
70
32
0
SEQEND
8
0
0
POLYLINE
8
0
62
30
66
1
10
0
20
0
30
0
70
8
0
VERTEX
8
0
62
30
10
0.038093369
20
0.43670247
30
0
70
32
0
VERTEX
8
0
62
30
10
0.06637764
20
0.43670247
30
0
70
32
0
SEQEND
8
0
0
POLYLINE
8
0
62
30
66
1
10
0
20
0
30
0
70
8
0
VERTEX
8
0
62
30
10
0.094661912
20
0.43670247
30
0
70
32
0
VERTEX
8
0
62
30
10
0.12294618
20
0.43670247
30
0
70
32
0
SEQEND
8
0
0
POLYLINE
8
0
62
5
66
1
10
0
20
0
30
0
70
8
0
VERTEX
8
0
62
5
10
0.009809098
20
0.43670247
30
0
70
32
0
VERTEX
8
0
62
5
10
0.023951234
20
0.43670247
30
0
70
32
0
SEQEND
8
0
0
POLYLINE
8
0
62
5
66
1
10
0
20
0
30
0
70
8
0
VERTEX
8
0
62
5
10
0.06637764
20
0.43670247
30
0
70
32
0
VERTEX
8
0
62
5
10
0.080519776
20
0.43670247
30
0
70
32
0
SEQEND
8
0
0
POLYLINE
8
0
62
5
66
1
10
0
20
0
30
0
70
8
0
VERTEX
8
0
62
5
10
0.023951234
20
0.43670247
30
0
70
32
0
VERTEX
8
0
62
5
10
0.038093369
20
0.43670247
30
0
70
32
0
SEQEND
8
0
0
POLYLINE
8
0
62
5
66
1
10
0
20
0
30
0
70
8
0
VERTEX
8
0
62
5
10
0.080519776
20
0.43670247
30
0
70
32
0
VERTEX
8
0
62
5
10
0.094661912
20
0.43670247
30
0
70
32
0
SEQEND
8
0
0
POLYLINE
8
0
62
5
66
1
10
0
20
0
30
0
70
8
0
VERTEX
8
0
62
5
10
0.038093369
20
0.41670247
30
0
70
32
0
VERTEX
8
0
62
5
10
0.038093369
20
0.45670247
30
0
70
32
0
SEQEND
8
0
0
POLYLINE
8
0
62
5
66
1
10
0
20
0
30
0
70
8
0
VERTEX
8
0
62
5
10
0.06637764
20
0.41670247
30
0
70
32
0
VERTEX
8
0
62
5
10
0.06637764
20
0.45670247
30
0
70
32
0
SEQEND
8
0
0
POLYLINE
8
0
62
5
66
1
10
0
20
0
30
0
70
8
0
VERTEX
8
0
62
5
10
0.094661912
20
0.41670247
30
0
70
32
0
VERTEX
8
0
62
5
10
0.094661912
20
0.45670247
30
0
70
32
0
SEQEND
8
0
0
POLYLINE
8
0
62
5
66
1
10
0
20
0
30
0
70
8
0
VERTEX
8
0
62
5
10
0.009809098
20
0.41670247
30
0
70
32
0
VERTEX
8
0
62
5
10
0.009809098
20
0.45670247
30
0
70
32
0
SEQEND
8
0
0
POLYLINE
8
0
62
5
66
1
10
0
20
0
30
0
70
8
0
VERTEX
8
0
62
5
10
0.23608327
20
0.45670247
30
0
70
32
0
VERTEX
8
0
62
5
10
0.23608327
20
0.41670247
30
0
70
32
0
SEQEND
8
0
0
POLYLINE
8
0
62
5
66
1
10
0
20
0
30
0
70
8
0
VERTEX
8
0
62
5
10
0.12294618
20
0.41670247
30
0
70
32
0
VERTEX
8
0
62
5
10
0.23608327
20
0.41670247
30
0
70
32
0
SEQEND
8
0
0
POLYLINE
8
0
62
5
66
1
10
0
20
0
30
0
70
8
0
VERTEX
8
0
62
5
10
0.12294618
20
0.45670247
30
0
70
32
0
VERTEX
8
0
62
5
10
0.23608327
20
0.45670247
30
0
70
32
0
SEQEND
8
0
0
POLYLINE
8
0
62
5
66
1
10
0
20
0
30
0
70
8
0
VERTEX
8
0
62
5
10
0.15123045
20
0.41670247
30
0
70
32
0
VERTEX
8
0
62
5
10
0.15123045
20
0.41670247
30
0
70
32
0
SEQEND
8
0
0
POLYLINE
8
0
62
5
66
1
10
0
20
0
30
0
70
8
0
VERTEX
8
0
62
5
10
0.17951473
20
0.41670247
30
0
70
32
0
VERTEX
8
0
62
5
10
0.17951473
20
0.41670247
30
0
70
32
0
SEQEND
8
0
0
POLYLINE
8
0
62
5
66
1
10
0
20
0
30
0
70
8
0
VERTEX
8
0
62
5
10
0.207799
20
0.41670247
30
0
70
32
0
VERTEX
8
0
62
5
10
0.207799
20
0.41670247
30
0
70
32
0
SEQEND
8
0
0
POLYLINE
8
0
62
5
66
1
10
0
20
0
30
0
70
8
0
VERTEX
8
0
62
5
10
0.15123045
20
0.45670247
30
0
70
32
0
VERTEX
8
0
62
5
10
0.15123045
20
0.45670247
30
0
70
32
0
SEQEND
8
0
0
POLYLINE
8
0
62
5
66
1
10
0
20
0
30
0
70
8
0
VERTEX
8
0
62
5
10
0.17951473
20
0.45670247
30
0
70
32
0
VERTEX
8
0
62
5
10
0.17951473
20
0.45670247
30
0
70
32
0
SEQEND
8
0
0
POLYLINE
8
0
62
5
66
1
10
0
20
0
30
0
70
8
0
VERTEX
8
0
62
5
10
0.207799
20
0.45670247
30
0
70
32
0
VERTEX
8
0
62
5
10
0.207799
20
0.45670247
30
0
70
32
0
SEQEND
8
0
0
POLYLINE
8
0
62
30
66
1
10
0
20
0
30
0
70
8
0
VERTEX
8
0
62
30
10
0.12294618
20
0.45670247
30
0
70
32
0
VERTEX
8
0
62
30
10
0.15123045
20
0.41670247
30
0
70
32
0
SEQEND
8
0
0
POLYLINE
8
0
62
30
66
1
10
0
20
0
30
0
70
8
0
VERTEX
8
0
62
30
10
0.15123045
20
0.45670247
30
0
70
32
0
VERTEX
8
0
62
30
10
0.12294618
20
0.41670247
30
0
70
32
0
SEQEND
8
0
0
POLYLINE
8
0
62
30
66
1
10
0
20
0
30
0
70
8
0
VERTEX
8
0
62
30
10
0.17951473
20
0.45670247
30
0
70
32
0
VERTEX
8
0
62
30
10
0.207799
20
0.41670247
30
0
70
32
0
SEQEND
8
0
0
POLYLINE
8
0
62
30
66
1
10
0
20
0
30
0
70
8
0
VERTEX
8
0
62
30
10
0.207799
20
0.45670247
30
0
70
32
0
VERTEX
8
0
62
30
10
0.17951473
20
0.41670247
30
0
70
32
0
SEQEND
8
0
0
POLYLINE
8
0
62
30
66
1
10
0
20
0
30
0
70
8
0
VERTEX
8
0
62
30
10
0.15123045
20
0.43670247
30
0
70
32
0
VERTEX
8
0
62
30
10
0.17951473
20
0.43670247
30
0
70
32
0
SEQEND
8
0
0
POLYLINE
8
0
62
30
66
1
10
0
20
0
30
0
70
8
0
VERTEX
8
0
62
30
10
0.207799
20
0.43670247
30
0
70
32
0
VERTEX
8
0
62
30
10
0.23608327
20
0.43670247
30
0
70
32
0
SEQEND
8
0
0
POLYLINE
8
0
62
5
66
1
10
0
20
0
30
0
70
8
0
VERTEX
8
0
62
5
10
0.12294618
20
0.43670247
30
0
70
32
0
VERTEX
8
0
62
5
10
0.13708832
20
0.43670247
30
0
70
32
0
SEQEND
8
0
0
POLYLINE
8
0
62
5
66
1
10
0
20
0
30
0
70
8
0
VERTEX
8
0
62
5
10
0.17951473
20
0.43670247
30
0
70
32
0
VERTEX
8
0
62
5
10
0.19365686
20
0.43670247
30
0
70
32
0
SEQEND
8
0
0
POLYLINE
8
0
62
5
66
1
10
0
20
0
30
0
70
8
0
VERTEX
8
0
62
5
10
0.13708832
20
0.43670247
30
0
70
32
0
VERTEX
8
0
62
5
10
0.15123045
20
0.43670247
30
0
70
32
0
SEQEND
8
0
0
POLYLINE
8
0
62
5
66
1
10
0
20
0
30
0
70
8
0
VERTEX
8
0
62
5
10
0.19365686
20
0.43670247
30
0
70
32
0
VERTEX
8
0
62
5
10
0.207799
20
0.43670247
30
0
70
32
0
SEQEND
8
0
0
POLYLINE
8
0
62
5
66
1
10
0
20
0
30
0
70
8
0
VERTEX
8
0
62
5
10
0.15123045
20
0.41670247
30
0
70
32
0
VERTEX
8
0
62
5
10
0.15123045
20
0.45670247
30
0
70
32
0
SEQEND
8
0
0
POLYLINE
8
0
62
5
66
1
10
0
20
0
30
0
70
8
0
VERTEX
8
0
62
5
10
0.17951473
20
0.41670247
30
0
70
32
0
VERTEX
8
0
62
5
10
0.17951473
20
0.45670247
30
0
70
32
0
SEQEND
8
0
0
POLYLINE
8
0
62
5
66
1
10
0
20
0
30
0
70
8
0
VERTEX
8
0
62
5
10
0.207799
20
0.41670247
30
0
70
32
0
VERTEX
8
0
62
5
10
0.207799
20
0.45670247
30
0
70
32
0
SEQEND
8
0
0
POLYLINE
8
0
62
5
66
1
10
0
20
0
30
0
70
8
0
VERTEX
8
0
62
5
10
0.12294618
20
0.41670247
30
0
70
32
0
VERTEX
8
0
62
5
10
0.12294618
20
0.45670247
30
0
70
32
0
SEQEND
8
0
0
POLYLINE
8
0
62
5
66
1
10
0
20
0
30
0
70
8
0
VERTEX
8
0
62
5
10
-0.10332799
20
0.41670247
30
0
70
32
0
VERTEX
8
0
62
5
10
-0.10332799
20
0.45670247
30
0
70
32
0
SEQEND
8
0
0
POLYLINE
8
0
62
5
66
1
10
0
20
0
30
0
70
8
0
VERTEX
8
0
62
5
10
-0.10332799
20
0.41670247
30
0
70
32
0
VERTEX
8
0
62
5
10
0.009809098
20
0.41670247
30
0
70
32
0
SEQEND
8
0
0
POLYLINE
8
0
62
5
66
1
10
0
20
0
30
0
70
8
0
VERTEX
8
0
62
5
10
-0.10332799
20
0.45670247
30
0
70
32
0
VERTEX
8
0
62
5
10
0.009809098
20
0.45670247
30
0
70
32
0
SEQEND
8
0
0
POLYLINE
8
0
62
5
66
1
10
0
20
0
30
0
70
8
0
VERTEX
8
0
62
5
10
-0.075043716
20
0.41670247
30
0
70
32
0
VERTEX
8
0
62
5
10
-0.075043716
20
0.41670247
30
0
70
32
0
SEQEND
8
0
0
POLYLINE
8
0
62
5
66
1
10
0
20
0
30
0
70
8
0
VERTEX
8
0
62
5
10
-0.046759445
20
0.41670247
30
0
70
32
0
VERTEX
8
0
62
5
10
-0.046759445
20
0.41670247
30
0
70
32
0
SEQEND
8
0
0
POLYLINE
8
0
62
5
66
1
10
0
20
0
30
0
70
8
0
VERTEX
8
0
62
5
10
-0.018475173
20
0.41670247
30
0
70
32
0
VERTEX
8
0
62
5
10
-0.018475173
20
0.41670247
30
0
70
32
0
SEQEND
8
0
0
POLYLINE
8
0
62
5
66
1
10
0
20
0
30
0
70
8
0
VERTEX
8
0
62
5
10
-0.075043716
20
0.45670247
30
0
70
32
0
VERTEX
8
0
62
5
10
-0.075043716
20
0.45670247
30
0
70
32
0
SEQEND
8
0
0
POLYLINE
8
0
62
5
66
1
10
0
20
0
30
0
70
8
0
VERTEX
8
0
62
5
10
-0.046759445
20
0.45670247
30
0
70
32
0
VERTEX
8
0
62
5
10
-0.046759445
20
0.45670247
30
0
70
32
0
SEQEND
8
0
0
POLYLINE
8
0
62
5
66
1
10
0
20
0
30
0
70
8
0
VERTEX
8
0
62
5
10
-0.018475173
20
0.45670247
30
0
70
32
0
VERTEX
8
0
62
5
10
-0.018475173
20
0.45670247
30
0
70
32
0
SEQEND
8
0
0
POLYLINE
8
0
62
30
66
1
10
0
20
0
30
0
70
8
0
VERTEX
8
0
62
30
10
-0.10332799
20
0.45670247
30
0
70
32
0
VERTEX
8
0
62
30
10
-0.075043716
20
0.41670247
30
0
70
32
0
SEQEND
8
0
0
POLYLINE
8
0
62
30
66
1
10
0
20
0
30
0
70
8
0
VERTEX
8
0
62
30
10
-0.075043716
20
0.45670247
30
0
70
32
0
VERTEX
8
0
62
30
10
-0.10332799
20
0.41670247
30
0
70
32
0
SEQEND
8
0
0
POLYLINE
8
0
62
30
66
1
10
0
20
0
30
0
70
8
0
VERTEX
8
0
62
30
10
-0.046759445
20
0.45670247
30
0
70
32
0
VERTEX
8
0
62
30
10
-0.018475173
20
0.41670247
30
0
70
32
0
SEQEND
8
0
0
POLYLINE
8
0
62
30
66
1
10
0
20
0
30
0
70
8
0
VERTEX
8
0
62
30
10
-0.018475173
20
0.45670247
30
0
70
32
0
VERTEX
8
0
62
30
10
-0.046759445
20
0.41670247
30
0
70
32
0
SEQEND
8
0
0
POLYLINE
8
0
62
30
66
1
10
0
20
0
30
0
70
8
0
VERTEX
8
0
62
30
10
-0.075043716
20
0.43670247
30
0
70
32
0
VERTEX
8
0
62
30
10
-0.046759445
20
0.43670247
30
0
70
32
0
SEQEND
8
0
0
POLYLINE
8
0
62
30
66
1
10
0
20
0
30
0
70
8
0
VERTEX
8
0
62
30
10
-0.018475173
20
0.43670247
30
0
70
32
0
VERTEX
8
0
62
30
10
0.009809098
20
0.43670247
30
0
70
32
0
SEQEND
8
0
0
POLYLINE
8
0
62
5
66
1
10
0
20
0
30
0
70
8
0
VERTEX
8
0
62
5
10
-0.10332799
20
0.43670247
30
0
70
32
0
VERTEX
8
0
62
5
10
-0.089185851
20
0.43670247
30
0
70
32
0
SEQEND
8
0
0
POLYLINE
8
0
62
5
66
1
10
0
20
0
30
0
70
8
0
VERTEX
8
0
62
5
10
-0.046759445
20
0.43670247
30
0
70
32
0
VERTEX
8
0
62
5
10
-0.032617309
20
0.43670247
30
0
70
32
0
SEQEND
8
0
0
POLYLINE
8
0
62
5
66
1
10
0
20
0
30
0
70
8
0
VERTEX
8
0
62
5
10
-0.089185851
20
0.43670247
30
0
70
32
0
VERTEX
8
0
62
5
10
-0.075043716
20
0.43670247
30
0
70
32
0
SEQEND
8
0
0
POLYLINE
8
0
62
5
66
1
10
0
20
0
30
0
70
8
0
VERTEX
8
0
62
5
10
-0.032617309
20
0.43670247
30
0
70
32
0
VERTEX
8
0
62
5
10
-0.018475173
20
0.43670247
30
0
70
32
0
SEQEND
8
0
0
POLYLINE
8
0
62
5
66
1
10
0
20
0
30
0
70
8
0
VERTEX
8
0
62
5
10
-0.075043716
20
0.41670247
30
0
70
32
0
VERTEX
8
0
62
5
10
-0.075043716
20
0.45670247
30
0
70
32
0
SEQEND
8
0
0
POLYLINE
8
0
62
5
66
1
10
0
20
0
30
0
70
8
0
VERTEX
8
0
62
5
10
-0.046759445
20
0.41670247
30
0
70
32
0
VERTEX
8
0
62
5
10
-0.046759445
20
0.45670247
30
0
70
32
0
SEQEND
8
0
0
POLYLINE
8
0
62
5
66
1
10
0
20
0
30
0
70
8
0
VERTEX
8
0
62
5
10
-0.018475173
20
0.41670247
30
0
70
32
0
VERTEX
8
0
62
5
10
-0.018475173
20
0.45670247
30
0
70
32
0
SEQEND
8
0
0
POLYLINE
8
0
62
5
66
1
10
0
20
0
30
0
70
8
0
VERTEX
8
0
62
5
10
-0.10332799
20
0.41670247
30
0
70
32
0
VERTEX
8
0
62
5
10
-0.10332799
20
0.45670247
30
0
70
32
0
SEQEND
8
0
0
POLYLINE
8
0
62
5
66
1
10
0
20
0
30
0
70
8
0
VERTEX
8
0
62
5
10
0.009809098
20
0.45670247
30
0
70
32
0
VERTEX
8
0
62
5
10
0.009809098
20
0.53189948
30
0
70
32
0
SEQEND
8
0
0
POLYLINE
8
0
62
5
66
1
10
0
20
0
30
0
70
8
0
VERTEX
8
0
62
5
10
0.12294618
20
0.53189948
30
0
70
32
0
VERTEX
8
0
62
5
10
0.12294618
20
0.45670247
30
0
70
32
0
SEQEND
8
0
0
POLYLINE
8
0
62
5
66
1
10
0
20
0
30
0
70
8
0
VERTEX
8
0
62
5
10
0.009809098
20
0.45786283
30
0
70
32
0
VERTEX
8
0
62
5
10
0.038093369
20
0.46201174
30
0
70
32
0
VERTEX
8
0
62
5
10
0.06637764
20
0.47550172
30
0
70
32
0
VERTEX
8
0
62
5
10
0.094661912
20
0.47135282
30
0
70
32
0
VERTEX
8
0
62
5
10
0.12294618
20
0.45786283
30
0
70
32
0
SEQEND
8
0
0
POLYLINE
8
0
62
5
66
1
10
0
20
0
30
0
70
8
0
VERTEX
8
0
62
5
10
0.009809098
20
0.49546134
30
0
70
32
0
VERTEX
8
0
62
5
10
0.038093369
20
0.49961024
30
0
70
32
0
VERTEX
8
0
62
5
10
0.06637764
20
0.51310022
30
0
70
32
0
VERTEX
8
0
62
5
10
0.094661912
20
0.50895132
30
0
70
32
0
VERTEX
8
0
62
5
10
0.12294618
20
0.49546134
30
0
70
32
0
SEQEND
8
0
0
POLYLINE
8
0
62
5
66
1
10
0
20
0
30
0
70
8
0
VERTEX
8
0
62
5
10
0.009809098
20
0.49314061
30
0
70
32
0
VERTEX
8
0
62
5
10
0.038093369
20
0.48899171
30
0
70
32
0
VERTEX
8
0
62
5
10
0.06637764
20
0.47550172
30
0
70
32
0
VERTEX
8
0
62
5
10
0.094661912
20
0.47965063
30
0
70
32
0
VERTEX
8
0
62
5
10
0.12294618
20
0.49314061
30
0
70
32
0
SEQEND
8
0
0
POLYLINE
8
0
62
5
66
1
10
0
20
0
30
0
70
8
0
VERTEX
8
0
62
5
10
0.009809098
20
0.53073911
30
0
70
32
0
VERTEX
8
0
62
5
10
0.038093369
20
0.52659021
30
0
70
32
0
VERTEX
8
0
62
5
10
0.06637764
20
0.51310022
30
0
70
32
0
VERTEX
8
0
62
5
10
0.094661912
20
0.51724913
30
0
70
32
0
VERTEX
8
0
62
5
10
0.12294618
20
0.53073911
30
0
70
32
0
SEQEND
8
0
0
POLYLINE
8
0
62
30
66
1
10
0
20
0
30
0
70
8
0
VERTEX
8
0
62
30
10
0.009809098
20
0.47550172
30
0
70
32
0
VERTEX
8
0
62
30
10
0.12294618
20
0.47550172
30
0
70
32
0
SEQEND
8
0
0
POLYLINE
8
0
62
30
66
1
10
0
20
0
30
0
70
8
0
VERTEX
8
0
62
30
10
0.009809098
20
0.51310022
30
0
70
32
0
VERTEX
8
0
62
30
10
0.12294618
20
0.51310022
30
0
70
32
0
SEQEND
8
0
0
POLYLINE
8
0
62
30
66
1
10
0
20
0
30
0
70
8
0
VERTEX
8
0
62
30
10
0.038093369
20
0.46201174
30
0
70
32
0
VERTEX
8
0
62
30
10
0.038093369
20
0.47550172
30
0
70
32
0
SEQEND
8
0
0
POLYLINE
8
0
62
30
66
1
10
0
20
0
30
0
70
8
0
VERTEX
8
0
62
30
10
0.06637764
20
0.47550172
30
0
70
32
0
VERTEX
8
0
62
30
10
0.06637764
20
0.47550172
30
0
70
32
0
SEQEND
8
0
0
POLYLINE
8
0
62
30
66
1
10
0
20
0
30
0
70
8
0
VERTEX
8
0
62
30
10
0.094661912
20
0.47135282
30
0
70
32
0
VERTEX
8
0
62
30
10
0.094661912
20
0.47550172
30
0
70
32
0
SEQEND
8
0
0
POLYLINE
8
0
62
30
66
1
10
0
20
0
30
0
70
8
0
VERTEX
8
0
62
30
10
0.038093369
20
0.49961024
30
0
70
32
0
VERTEX
8
0
62
30
10
0.038093369
20
0.51310022
30
0
70
32
0
SEQEND
8
0
0
POLYLINE
8
0
62
30
66
1
10
0
20
0
30
0
70
8
0
VERTEX
8
0
62
30
10
0.06637764
20
0.51310022
30
0
70
32
0
VERTEX
8
0
62
30
10
0.06637764
20
0.51310022
30
0
70
32
0
SEQEND
8
0
0
POLYLINE
8
0
62
30
66
1
10
0
20
0
30
0
70
8
0
VERTEX
8
0
62
30
10
0.094661912
20
0.50895132
30
0
70
32
0
VERTEX
8
0
62
30
10
0.094661912
20
0.51310022
30
0
70
32
0
SEQEND
8
0
0
POLYLINE
8
0
62
5
66
1
10
0
20
0
30
0
70
8
0
VERTEX
8
0
62
5
10
0.038093369
20
0.45670247
30
0
70
32
0
VERTEX
8
0
62
5
10
0.038093369
20
0.46201174
30
0
70
32
0
SEQEND
8
0
0
POLYLINE
8
0
62
5
66
1
10
0
20
0
30
0
70
8
0
VERTEX
8
0
62
5
10
0.06637764
20
0.45670247
30
0
70
32
0
VERTEX
8
0
62
5
10
0.06637764
20
0.47550172
30
0
70
32
0
SEQEND
8
0
0
POLYLINE
8
0
62
5
66
1
10
0
20
0
30
0
70
8
0
VERTEX
8
0
62
5
10
0.094661912
20
0.45670247
30
0
70
32
0
VERTEX
8
0
62
5
10
0.094661912
20
0.47135282
30
0
70
32
0
SEQEND
8
0
0
POLYLINE
8
0
62
5
66
1
10
0
20
0
30
0
70
8
0
VERTEX
8
0
62
5
10
0.038093369
20
0.49430097
30
0
70
32
0
VERTEX
8
0
62
5
10
0.038093369
20
0.49961024
30
0
70
32
0
SEQEND
8
0
0
POLYLINE
8
0
62
5
66
1
10
0
20
0
30
0
70
8
0
VERTEX
8
0
62
5
10
0.06637764
20
0.49430097
30
0
70
32
0
VERTEX
8
0
62
5
10
0.06637764
20
0.51310022
30
0
70
32
0
SEQEND
8
0
0
POLYLINE
8
0
62
5
66
1
10
0
20
0
30
0
70
8
0
VERTEX
8
0
62
5
10
0.094661912
20
0.49430097
30
0
70
32
0
VERTEX
8
0
62
5
10
0.094661912
20
0.50895132
30
0
70
32
0
SEQEND
8
0
0
POLYLINE
8
0
62
5
66
1
10
0
20
0
30
0
70
8
0
VERTEX
8
0
62
5
10
0.038093369
20
0.47550172
30
0
70
32
0
VERTEX
8
0
62
5
10
0.038093369
20
0.49430097
30
0
70
32
0
SEQEND
8
0
0
POLYLINE
8
0
62
5
66
1
10
0
20
0
30
0
70
8
0
VERTEX
8
0
62
5
10
0.06637764
20
0.47550172
30
0
70
32
0
VERTEX
8
0
62
5
10
0.06637764
20
0.49430097
30
0
70
32
0
SEQEND
8
0
0
POLYLINE
8
0
62
5
66
1
10
0
20
0
30
0
70
8
0
VERTEX
8
0
62
5
10
0.094661912
20
0.47550172
30
0
70
32
0
VERTEX
8
0
62
5
10
0.094661912
20
0.49430097
30
0
70
32
0
SEQEND
8
0
0
POLYLINE
8
0
62
5
66
1
10
0
20
0
30
0
70
8
0
VERTEX
8
0
62
5
10
0.038093369
20
0.51310022
30
0
70
32
0
VERTEX
8
0
62
5
10
0.038093369
20
0.53189948
30
0
70
32
0
SEQEND
8
0
0
POLYLINE
8
0
62
5
66
1
10
0
20
0
30
0
70
8
0
VERTEX
8
0
62
5
10
0.06637764
20
0.51310022
30
0
70
32
0
VERTEX
8
0
62
5
10
0.06637764
20
0.53189948
30
0
70
32
0
SEQEND
8
0
0
POLYLINE
8
0
62
5
66
1
10
0
20
0
30
0
70
8
0
VERTEX
8
0
62
5
10
0.094661912
20
0.51310022
30
0
70
32
0
VERTEX
8
0
62
5
10
0.094661912
20
0.53189948
30
0
70
32
0
SEQEND
8
0
0
POLYLINE
8
0
62
30
66
1
10
0
20
0
30
0
70
8
0
VERTEX
8
0
62
30
10
0.009809098
20
0.45786283
30
0
70
32
0
VERTEX
8
0
62
30
10
0.020025469
20
0.47550172
30
0
70
32
0
VERTEX
8
0
62
30
10
0.009809098
20
0.49314061
30
0
70
32
0
SEQEND
8
0
0
POLYLINE
8
0
62
30
66
1
10
0
20
0
30
0
70
8
0
VERTEX
8
0
62
30
10
0.038093369
20
0.46201174
30
0
70
32
0
VERTEX
8
0
62
30
10
0.04733786
20
0.47550172
30
0
70
32
0
VERTEX
8
0
62
30
10
0.038093369
20
0.48899171
30
0
70
32
0
SEQEND
8
0
0
POLYLINE
8
0
62
30
66
1
10
0
20
0
30
0
70
8
0
VERTEX
8
0
62
30
10
0.06637764
20
0.47550172
30
0
70
32
0
VERTEX
8
0
62
30
10
0.06637764
20
0.47550172
30
0
70
32
0
VERTEX
8
0
62
30
10
0.06637764
20
0.47550172
30
0
70
32
0
SEQEND
8
0
0
POLYLINE
8
0
62
30
66
1
10
0
20
0
30
0
70
8
0
VERTEX
8
0
62
30
10
0.094661912
20
0.47135282
30
0
70
32
0
VERTEX
8
0
62
30
10
0.099891986
20
0.47550172
30
0
70
32
0
VERTEX
8
0
62
30
10
0.094661912
20
0.47965063
30
0
70
32
0
SEQEND
8
0
0
POLYLINE
8
0
62
30
66
1
10
0
20
0
30
0
70
8
0
VERTEX
8
0
62
30
10
0.009809098
20
0.49546134
30
0
70
32
0
VERTEX
8
0
62
30
10
0.020025469
20
0.51310022
30
0
70
32
0
VERTEX
8
0
62
30
10
0.009809098
20
0.53073911
30
0
70
32
0
SEQEND
8
0
0
POLYLINE
8
0
62
30
66
1
10
0
20
0
30
0
70
8
0
VERTEX
8
0
62
30
10
0.038093369
20
0.49961024
30
0
70
32
0
VERTEX
8
0
62
30
10
0.04733786
20
0.51310022
30
0
70
32
0
VERTEX
8
0
62
30
10
0.038093369
20
0.52659021
30
0
70
32
0
SEQEND
8
0
0
POLYLINE
8
0
62
30
66
1
10
0
20
0
30
0
70
8
0
VERTEX
8
0
62
30
10
0.06637764
20
0.51310022
30
0
70
32
0
VERTEX
8
0
62
30
10
0.06637764
20
0.51310022
30
0
70
32
0
VERTEX
8
0
62
30
10
0.06637764
20
0.51310022
30
0
70
32
0
SEQEND
8
0
0
POLYLINE
8
0
62
30
66
1
10
0
20
0
30
0
70
8
0
VERTEX
8
0
62
30
10
0.094661912
20
0.50895132
30
0
70
32
0
VERTEX
8
0
62
30
10
0.099891986
20
0.51310022
30
0
70
32
0
VERTEX
8
0
62
30
10
0.094661912
20
0.51724913
30
0
70
32
0
SEQEND
8
0
0
POLYLINE
8
0
62
5
66
1
10
0
20
0
30
0
70
8
0
VERTEX
8
0
62
5
10
0.23608327
20
0.53189948
30
0
70
32
0
VERTEX
8
0
62
5
10
0.23608327
20
0.45670247
30
0
70
32
0
SEQEND
8
0
0
POLYLINE
8
0
62
5
66
1
10
0
20
0
30
0
70
8
0
VERTEX
8
0
62
5
10
0.12294618
20
0.45786283
30
0
70
32
0
VERTEX
8
0
62
5
10
0.15123045
20
0.46201174
30
0
70
32
0
VERTEX
8
0
62
5
10
0.17951473
20
0.47550172
30
0
70
32
0
VERTEX
8
0
62
5
10
0.207799
20
0.47135282
30
0
70
32
0
VERTEX
8
0
62
5
10
0.23608327
20
0.45786283
30
0
70
32
0
SEQEND
8
0
0
POLYLINE
8
0
62
5
66
1
10
0
20
0
30
0
70
8
0
VERTEX
8
0
62
5
10
0.12294618
20
0.49546134
30
0
70
32
0
VERTEX
8
0
62
5
10
0.15123045
20
0.49961024
30
0
70
32
0
VERTEX
8
0
62
5
10
0.17951473
20
0.51310022
30
0
70
32
0
VERTEX
8
0
62
5
10
0.207799
20
0.50895132
30
0
70
32
0
VERTEX
8
0
62
5
10
0.23608327
20
0.49546134
30
0
70
32
0
SEQEND
8
0
0
POLYLINE
8
0
62
5
66
1
10
0
20
0
30
0
70
8
0
VERTEX
8
0
62
5
10
0.12294618
20
0.49314061
30
0
70
32
0
VERTEX
8
0
62
5
10
0.15123045
20
0.48899171
30
0
70
32
0
VERTEX
8
0
62
5
10
0.17951473
20
0.47550172
30
0
70
32
0
VERTEX
8
0
62
5
10
0.207799
20
0.47965063
30
0
70
32
0
VERTEX
8
0
62
5
10
0.23608327
20
0.49314061
30
0
70
32
0
SEQEND
8
0
0
POLYLINE
8
0
62
5
66
1
10
0
20
0
30
0
70
8
0
VERTEX
8
0
62
5
10
0.12294618
20
0.53073911
30
0
70
32
0
VERTEX
8
0
62
5
10
0.15123045
20
0.52659021
30
0
70
32
0
VERTEX
8
0
62
5
10
0.17951473
20
0.51310022
30
0
70
32
0
VERTEX
8
0
62
5
10
0.207799
20
0.51724913
30
0
70
32
0
VERTEX
8
0
62
5
10
0.23608327
20
0.53073911
30
0
70
32
0
SEQEND
8
0
0
POLYLINE
8
0
62
30
66
1
10
0
20
0
30
0
70
8
0
VERTEX
8
0
62
30
10
0.12294618
20
0.47550172
30
0
70
32
0
VERTEX
8
0
62
30
10
0.23608327
20
0.47550172
30
0
70
32
0
SEQEND
8
0
0
POLYLINE
8
0
62
30
66
1
10
0
20
0
30
0
70
8
0
VERTEX
8
0
62
30
10
0.12294618
20
0.51310022
30
0
70
32
0
VERTEX
8
0
62
30
10
0.23608327
20
0.51310022
30
0
70
32
0
SEQEND
8
0
0
POLYLINE
8
0
62
30
66
1
10
0
20
0
30
0
70
8
0
VERTEX
8
0
62
30
10
0.15123045
20
0.46201174
30
0
70
32
0
VERTEX
8
0
62
30
10
0.15123045
20
0.47550172
30
0
70
32
0
SEQEND
8
0
0
POLYLINE
8
0
62
30
66
1
10
0
20
0
30
0
70
8
0
VERTEX
8
0
62
30
10
0.17951473
20
0.47550172
30
0
70
32
0
VERTEX
8
0
62
30
10
0.17951473
20
0.47550172
30
0
70
32
0
SEQEND
8
0
0
POLYLINE
8
0
62
30
66
1
10
0
20
0
30
0
70
8
0
VERTEX
8
0
62
30
10
0.207799
20
0.47135282
30
0
70
32
0
VERTEX
8
0
62
30
10
0.207799
20
0.47550172
30
0
70
32
0
SEQEND
8
0
0
POLYLINE
8
0
62
30
66
1
10
0
20
0
30
0
70
8
0
VERTEX
8
0
62
30
10
0.15123045
20
0.49961024
30
0
70
32
0
VERTEX
8
0
62
30
10
0.15123045
20
0.51310022
30
0
70
32
0
SEQEND
8
0
0
POLYLINE
8
0
62
30
66
1
10
0
20
0
30
0
70
8
0
VERTEX
8
0
62
30
10
0.17951473
20
0.51310022
30
0
70
32
0
VERTEX
8
0
62
30
10
0.17951473
20
0.51310022
30
0
70
32
0
SEQEND
8
0
0
POLYLINE
8
0
62
30
66
1
10
0
20
0
30
0
70
8
0
VERTEX
8
0
62
30
10
0.207799
20
0.50895132
30
0
70
32
0
VERTEX
8
0
62
30
10
0.207799
20
0.51310022
30
0
70
32
0
SEQEND
8
0
0
POLYLINE
8
0
62
5
66
1
10
0
20
0
30
0
70
8
0
VERTEX
8
0
62
5
10
0.15123045
20
0.45670247
30
0
70
32
0
VERTEX
8
0
62
5
10
0.15123045
20
0.46201174
30
0
70
32
0
SEQEND
8
0
0
POLYLINE
8
0
62
5
66
1
10
0
20
0
30
0
70
8
0
VERTEX
8
0
62
5
10
0.17951473
20
0.45670247
30
0
70
32
0
VERTEX
8
0
62
5
10
0.17951473
20
0.47550172
30
0
70
32
0
SEQEND
8
0
0
POLYLINE
8
0
62
5
66
1
10
0
20
0
30
0
70
8
0
VERTEX
8
0
62
5
10
0.207799
20
0.45670247
30
0
70
32
0
VERTEX
8
0
62
5
10
0.207799
20
0.47135282
30
0
70
32
0
SEQEND
8
0
0
POLYLINE
8
0
62
5
66
1
10
0
20
0
30
0
70
8
0
VERTEX
8
0
62
5
10
0.15123045
20
0.49430097
30
0
70
32
0
VERTEX
8
0
62
5
10
0.15123045
20
0.49961024
30
0
70
32
0
SEQEND
8
0
0
POLYLINE
8
0
62
5
66
1
10
0
20
0
30
0
70
8
0
VERTEX
8
0
62
5
10
0.17951473
20
0.49430097
30
0
70
32
0
VERTEX
8
0
62
5
10
0.17951473
20
0.51310022
30
0
70
32
0
SEQEND
8
0
0
POLYLINE
8
0
62
5
66
1
10
0
20
0
30
0
70
8
0
VERTEX
8
0
62
5
10
0.207799
20
0.49430097
30
0
70
32
0
VERTEX
8
0
62
5
10
0.207799
20
0.50895132
30
0
70
32
0
SEQEND
8
0
0
POLYLINE
8
0
62
5
66
1
10
0
20
0
30
0
70
8
0
VERTEX
8
0
62
5
10
0.15123045
20
0.47550172
30
0
70
32
0
VERTEX
8
0
62
5
10
0.15123045
20
0.49430097
30
0
70
32
0
SEQEND
8
0
0
POLYLINE
8
0
62
5
66
1
10
0
20
0
30
0
70
8
0
VERTEX
8
0
62
5
10
0.17951473
20
0.47550172
30
0
70
32
0
VERTEX
8
0
62
5
10
0.17951473
20
0.49430097
30
0
70
32
0
SEQEND
8
0
0
POLYLINE
8
0
62
5
66
1
10
0
20
0
30
0
70
8
0
VERTEX
8
0
62
5
10
0.207799
20
0.47550172
30
0
70
32
0
VERTEX
8
0
62
5
10
0.207799
20
0.49430097
30
0
70
32
0
SEQEND
8
0
0
POLYLINE
8
0
62
5
66
1
10
0
20
0
30
0
70
8
0
VERTEX
8
0
62
5
10
0.15123045
20
0.51310022
30
0
70
32
0
VERTEX
8
0
62
5
10
0.15123045
20
0.53189948
30
0
70
32
0
SEQEND
8
0
0
POLYLINE
8
0
62
5
66
1
10
0
20
0
30
0
70
8
0
VERTEX
8
0
62
5
10
0.17951473
20
0.51310022
30
0
70
32
0
VERTEX
8
0
62
5
10
0.17951473
20
0.53189948
30
0
70
32
0
SEQEND
8
0
0
POLYLINE
8
0
62
5
66
1
10
0
20
0
30
0
70
8
0
VERTEX
8
0
62
5
10
0.207799
20
0.51310022
30
0
70
32
0
VERTEX
8
0
62
5
10
0.207799
20
0.53189948
30
0
70
32
0
SEQEND
8
0
0
POLYLINE
8
0
62
30
66
1
10
0
20
0
30
0
70
8
0
VERTEX
8
0
62
30
10
0.12294618
20
0.45786283
30
0
70
32
0
VERTEX
8
0
62
30
10
0.13316255
20
0.47550172
30
0
70
32
0
VERTEX
8
0
62
30
10
0.12294618
20
0.49314061
30
0
70
32
0
SEQEND
8
0
0
POLYLINE
8
0
62
30
66
1
10
0
20
0
30
0
70
8
0
VERTEX
8
0
62
30
10
0.15123045
20
0.46201174
30
0
70
32
0
VERTEX
8
0
62
30
10
0.16047494
20
0.47550172
30
0
70
32
0
VERTEX
8
0
62
30
10
0.15123045
20
0.48899171
30
0
70
32
0
SEQEND
8
0
0
POLYLINE
8
0
62
30
66
1
10
0
20
0
30
0
70
8
0
VERTEX
8
0
62
30
10
0.17951473
20
0.47550172
30
0
70
32
0
VERTEX
8
0
62
30
10
0.17951473
20
0.47550172
30
0
70
32
0
VERTEX
8
0
62
30
10
0.17951473
20
0.47550172
30
0
70
32
0
SEQEND
8
0
0
POLYLINE
8
0
62
30
66
1
10
0
20
0
30
0
70
8
0
VERTEX
8
0
62
30
10
0.207799
20
0.47135282
30
0
70
32
0
VERTEX
8
0
62
30
10
0.21302907
20
0.47550172
30
0
70
32
0
VERTEX
8
0
62
30
10
0.207799
20
0.47965063
30
0
70
32
0
SEQEND
8
0
0
POLYLINE
8
0
62
30
66
1
10
0
20
0
30
0
70
8
0
VERTEX
8
0
62
30
10
0.12294618
20
0.49546134
30
0
70
32
0
VERTEX
8
0
62
30
10
0.13316255
20
0.51310022
30
0
70
32
0
VERTEX
8
0
62
30
10
0.12294618
20
0.53073911
30
0
70
32
0
SEQEND
8
0
0
POLYLINE
8
0
62
30
66
1
10
0
20
0
30
0
70
8
0
VERTEX
8
0
62
30
10
0.15123045
20
0.49961024
30
0
70
32
0
VERTEX
8
0
62
30
10
0.16047494
20
0.51310022
30
0
70
32
0
VERTEX
8
0
62
30
10
0.15123045
20
0.52659021
30
0
70
32
0
SEQEND
8
0
0
POLYLINE
8
0
62
30
66
1
10
0
20
0
30
0
70
8
0
VERTEX
8
0
62
30
10
0.17951473
20
0.51310022
30
0
70
32
0
VERTEX
8
0
62
30
10
0.17951473
20
0.51310022
30
0
70
32
0
VERTEX
8
0
62
30
10
0.17951473
20
0.51310022
30
0
70
32
0
SEQEND
8
0
0
POLYLINE
8
0
62
30
66
1
10
0
20
0
30
0
70
8
0
VERTEX
8
0
62
30
10
0.207799
20
0.50895132
30
0
70
32
0
VERTEX
8
0
62
30
10
0.21302907
20
0.51310022
30
0
70
32
0
VERTEX
8
0
62
30
10
0.207799
20
0.51724913
30
0
70
32
0
SEQEND
8
0
0
POLYLINE
8
0
62
5
66
1
10
0
20
0
30
0
70
8
0
VERTEX
8
0
62
5
10
-0.10332799
20
0.45670247
30
0
70
32
0
VERTEX
8
0
62
5
10
-0.10332799
20
0.53189948
30
0
70
32
0
SEQEND
8
0
0
POLYLINE
8
0
62
5
66
1
10
0
20
0
30
0
70
8
0
VERTEX
8
0
62
5
10
-0.10332799
20
0.45786283
30
0
70
32
0
VERTEX
8
0
62
5
10
-0.075043716
20
0.46201174
30
0
70
32
0
VERTEX
8
0
62
5
10
-0.046759445
20
0.47550172
30
0
70
32
0
VERTEX
8
0
62
5
10
-0.018475173
20
0.47135282
30
0
70
32
0
VERTEX
8
0
62
5
10
0.009809098
20
0.45786283
30
0
70
32
0
SEQEND
8
0
0
POLYLINE
8
0
62
5
66
1
10
0
20
0
30
0
70
8
0
VERTEX
8
0
62
5
10
-0.10332799
20
0.49546134
30
0
70
32
0
VERTEX
8
0
62
5
10
-0.075043716
20
0.49961024
30
0
70
32
0
VERTEX
8
0
62
5
10
-0.046759445
20
0.51310022
30
0
70
32
0
VERTEX
8
0
62
5
10
-0.018475173
20
0.50895132
30
0
70
32
0
VERTEX
8
0
62
5
10
0.009809098
20
0.49546134
30
0
70
32
0
SEQEND
8
0
0
POLYLINE
8
0
62
5
66
1
10
0
20
0
30
0
70
8
0
VERTEX
8
0
62
5
10
-0.10332799
20
0.49314061
30
0
70
32
0
VERTEX
8
0
62
5
10
-0.075043716
20
0.48899171
30
0
70
32
0
VERTEX
8
0
62
5
10
-0.046759445
20
0.47550172
30
0
70
32
0
VERTEX
8
0
62
5
10
-0.018475173
20
0.47965063
30
0
70
32
0
VERTEX
8
0
62
5
10
0.009809098
20
0.49314061
30
0
70
32
0
SEQEND
8
0
0
POLYLINE
8
0
62
5
66
1
10
0
20
0
30
0
70
8
0
VERTEX
8
0
62
5
10
-0.10332799
20
0.53073911
30
0
70
32
0
VERTEX
8
0
62
5
10
-0.075043716
20
0.52659021
30
0
70
32
0
VERTEX
8
0
62
5
10
-0.046759445
20
0.51310022
30
0
70
32
0
VERTEX
8
0
62
5
10
-0.018475173
20
0.51724913
30
0
70
32
0
VERTEX
8
0
62
5
10
0.009809098
20
0.53073911
30
0
70
32
0
SEQEND
8
0
0
POLYLINE
8
0
62
30
66
1
10
0
20
0
30
0
70
8
0
VERTEX
8
0
62
30
10
-0.10332799
20
0.47550172
30
0
70
32
0
VERTEX
8
0
62
30
10
0.009809098
20
0.47550172
30
0
70
32
0
SEQEND
8
0
0
POLYLINE
8
0
62
30
66
1
10
0
20
0
30
0
70
8
0
VERTEX
8
0
62
30
10
-0.10332799
20
0.51310022
30
0
70
32
0
VERTEX
8
0
62
30
10
0.009809098
20
0.51310022
30
0
70
32
0
SEQEND
8
0
0
POLYLINE
8
0
62
30
66
1
10
0
20
0
30
0
70
8
0
VERTEX
8
0
62
30
10
-0.075043716
20
0.46201174
30
0
70
32
0
VERTEX
8
0
62
30
10
-0.075043716
20
0.47550172
30
0
70
32
0
SEQEND
8
0
0
POLYLINE
8
0
62
30
66
1
10
0
20
0
30
0
70
8
0
VERTEX
8
0
62
30
10
-0.046759445
20
0.47550172
30
0
70
32
0
VERTEX
8
0
62
30
10
-0.046759445
20
0.47550172
30
0
70
32
0
SEQEND
8
0
0
POLYLINE
8
0
62
30
66
1
10
0
20
0
30
0
70
8
0
VERTEX
8
0
62
30
10
-0.018475173
20
0.47135282
30
0
70
32
0
VERTEX
8
0
62
30
10
-0.018475173
20
0.47550172
30
0
70
32
0
SEQEND
8
0
0
POLYLINE
8
0
62
30
66
1
10
0
20
0
30
0
70
8
0
VERTEX
8
0
62
30
10
-0.075043716
20
0.49961024
30
0
70
32
0
VERTEX
8
0
62
30
10
-0.075043716
20
0.51310022
30
0
70
32
0
SEQEND
8
0
0
POLYLINE
8
0
62
30
66
1
10
0
20
0
30
0
70
8
0
VERTEX
8
0
62
30
10
-0.046759445
20
0.51310022
30
0
70
32
0
VERTEX
8
0
62
30
10
-0.046759445
20
0.51310022
30
0
70
32
0
SEQEND
8
0
0
POLYLINE
8
0
62
30
66
1
10
0
20
0
30
0
70
8
0
VERTEX
8
0
62
30
10
-0.018475173
20
0.50895132
30
0
70
32
0
VERTEX
8
0
62
30
10
-0.018475173
20
0.51310022
30
0
70
32
0
SEQEND
8
0
0
POLYLINE
8
0
62
5
66
1
10
0
20
0
30
0
70
8
0
VERTEX
8
0
62
5
10
-0.075043716
20
0.45670247
30
0
70
32
0
VERTEX
8
0
62
5
10
-0.075043716
20
0.46201174
30
0
70
32
0
SEQEND
8
0
0
POLYLINE
8
0
62
5
66
1
10
0
20
0
30
0
70
8
0
VERTEX
8
0
62
5
10
-0.046759445
20
0.45670247
30
0
70
32
0
VERTEX
8
0
62
5
10
-0.046759445
20
0.47550172
30
0
70
32
0
SEQEND
8
0
0
POLYLINE
8
0
62
5
66
1
10
0
20
0
30
0
70
8
0
VERTEX
8
0
62
5
10
-0.018475173
20
0.45670247
30
0
70
32
0
VERTEX
8
0
62
5
10
-0.018475173
20
0.47135282
30
0
70
32
0
SEQEND
8
0
0
POLYLINE
8
0
62
5
66
1
10
0
20
0
30
0
70
8
0
VERTEX
8
0
62
5
10
-0.075043716
20
0.49430097
30
0
70
32
0
VERTEX
8
0
62
5
10
-0.075043716
20
0.49961024
30
0
70
32
0
SEQEND
8
0
0
POLYLINE
8
0
62
5
66
1
10
0
20
0
30
0
70
8
0
VERTEX
8
0
62
5
10
-0.046759445
20
0.49430097
30
0
70
32
0
VERTEX
8
0
62
5
10
-0.046759445
20
0.51310022
30
0
70
32
0
SEQEND
8
0
0
POLYLINE
8
0
62
5
66
1
10
0
20
0
30
0
70
8
0
VERTEX
8
0
62
5
10
-0.018475173
20
0.49430097
30
0
70
32
0
VERTEX
8
0
62
5
10
-0.018475173
20
0.50895132
30
0
70
32
0
SEQEND
8
0
0
POLYLINE
8
0
62
5
66
1
10
0
20
0
30
0
70
8
0
VERTEX
8
0
62
5
10
-0.075043716
20
0.47550172
30
0
70
32
0
VERTEX
8
0
62
5
10
-0.075043716
20
0.49430097
30
0
70
32
0
SEQEND
8
0
0
POLYLINE
8
0
62
5
66
1
10
0
20
0
30
0
70
8
0
VERTEX
8
0
62
5
10
-0.046759445
20
0.47550172
30
0
70
32
0
VERTEX
8
0
62
5
10
-0.046759445
20
0.49430097
30
0
70
32
0
SEQEND
8
0
0
POLYLINE
8
0
62
5
66
1
10
0
20
0
30
0
70
8
0
VERTEX
8
0
62
5
10
-0.018475173
20
0.47550172
30
0
70
32
0
VERTEX
8
0
62
5
10
-0.018475173
20
0.49430097
30
0
70
32
0
SEQEND
8
0
0
POLYLINE
8
0
62
5
66
1
10
0
20
0
30
0
70
8
0
VERTEX
8
0
62
5
10
-0.075043716
20
0.51310022
30
0
70
32
0
VERTEX
8
0
62
5
10
-0.075043716
20
0.53189948
30
0
70
32
0
SEQEND
8
0
0
POLYLINE
8
0
62
5
66
1
10
0
20
0
30
0
70
8
0
VERTEX
8
0
62
5
10
-0.046759445
20
0.51310022
30
0
70
32
0
VERTEX
8
0
62
5
10
-0.046759445
20
0.53189948
30
0
70
32
0
SEQEND
8
0
0
POLYLINE
8
0
62
5
66
1
10
0
20
0
30
0
70
8
0
VERTEX
8
0
62
5
10
-0.018475173
20
0.51310022
30
0
70
32
0
VERTEX
8
0
62
5
10
-0.018475173
20
0.53189948
30
0
70
32
0
SEQEND
8
0
0
POLYLINE
8
0
62
30
66
1
10
0
20
0
30
0
70
8
0
VERTEX
8
0
62
30
10
-0.10332799
20
0.45786283
30
0
70
32
0
VERTEX
8
0
62
30
10
-0.093111616
20
0.47550172
30
0
70
32
0
VERTEX
8
0
62
30
10
-0.10332799
20
0.49314061
30
0
70
32
0
SEQEND
8
0
0
POLYLINE
8
0
62
30
66
1
10
0
20
0
30
0
70
8
0
VERTEX
8
0
62
30
10
-0.075043716
20
0.46201174
30
0
70
32
0
VERTEX
8
0
62
30
10
-0.065799225
20
0.47550172
30
0
70
32
0
VERTEX
8
0
62
30
10
-0.075043716
20
0.48899171
30
0
70
32
0
SEQEND
8
0
0
POLYLINE
8
0
62
30
66
1
10
0
20
0
30
0
70
8
0
VERTEX
8
0
62
30
10
-0.046759445
20
0.47550172
30
0
70
32
0
VERTEX
8
0
62
30
10
-0.046759445
20
0.47550172
30
0
70
32
0
VERTEX
8
0
62
30
10
-0.046759445
20
0.47550172
30
0
70
32
0
SEQEND
8
0
0
POLYLINE
8
0
62
30
66
1
10
0
20
0
30
0
70
8
0
VERTEX
8
0
62
30
10
-0.018475173
20
0.47135282
30
0
70
32
0
VERTEX
8
0
62
30
10
-0.013245099
20
0.47550172
30
0
70
32
0
VERTEX
8
0
62
30
10
-0.018475173
20
0.47965063
30
0
70
32
0
SEQEND
8
0
0
POLYLINE
8
0
62
30
66
1
10
0
20
0
30
0
70
8
0
VERTEX
8
0
62
30
10
-0.10332799
20
0.49546134
30
0
70
32
0
VERTEX
8
0
62
30
10
-0.093111616
20
0.51310022
30
0
70
32
0
VERTEX
8
0
62
30
10
-0.10332799
20
0.53073911
30
0
70
32
0
SEQEND
8
0
0
POLYLINE
8
0
62
30
66
1
10
0
20
0
30
0
70
8
0
VERTEX
8
0
62
30
10
-0.075043716
20
0.49961024
30
0
70
32
0
VERTEX
8
0
62
30
10
-0.065799225
20
0.51310022
30
0
70
32
0
VERTEX
8
0
62
30
10
-0.075043716
20
0.52659021
30
0
70
32
0
SEQEND
8
0
0
POLYLINE
8
0
62
30
66
1
10
0
20
0
30
0
70
8
0
VERTEX
8
0
62
30
10
-0.046759445
20
0.51310022
30
0
70
32
0
VERTEX
8
0
62
30
10
-0.046759445
20
0.51310022
30
0
70
32
0
VERTEX
8
0
62
30
10
-0.046759445
20
0.51310022
30
0
70
32
0
SEQEND
8
0
0
POLYLINE
8
0
62
30
66
1
10
0
20
0
30
0
70
8
0
VERTEX
8
0
62
30
10
-0.018475173
20
0.50895132
30
0
70
32
0
VERTEX
8
0
62
30
10
-0.013245099
20
0.51310022
30
0
70
32
0
VERTEX
8
0
62
30
10
-0.018475173
20
0.51724913
30
0
70
32
0
SEQEND
8
0
0
POLYLINE
8
0
62
30
66
1
10
0
20
0
30
0
70
8
0
VERTEX
8
0
62
30
10
0.009809098
20
0.55549737
30
0
70
32
0
VERTEX
8
0
62
30
10
0.12294618
20
0.55549737
30
0
70
32
0
SEQEND
8
0
0
POLYLINE
8
0
62
30
66
1
10
0
20
0
30
0
70
8
0
VERTEX
8
0
62
30
10
0.009809098
20
0.53189948
30
0
70
32
0
VERTEX
8
0
62
30
10
0.12294618
20
0.53189948
30
0
70
32
0
SEQEND
8
0
0
POLYLINE
8
0
62
5
66
1
10
0
20
0
30
0
70
8
0
VERTEX
8
0
62
5
10
0.009809098
20
0.53189948
30
0
70
32
0
VERTEX
8
0
62
5
10
0.032552866
20
0.55549737
30
0
70
32
0
VERTEX
8
0
62
5
10
0.038093369
20
0.53189948
30
0
70
32
0
VERTEX
8
0
62
5
10
0.060837138
20
0.55549737
30
0
70
32
0
VERTEX
8
0
62
5
10
0.06637764
20
0.53189948
30
0
70
32
0
VERTEX
8
0
62
5
10
0.089121409
20
0.55549737
30
0
70
32
0
VERTEX
8
0
62
5
10
0.094661912
20
0.53189948
30
0
70
32
0
VERTEX
8
0
62
5
10
0.11740568
20
0.55549737
30
0
70
32
0
VERTEX
8
0
62
5
10
0.12294618
20
0.53189948
30
0
70
32
0
SEQEND
8
0
0
POLYLINE
8
0
62
5
66
1
10
0
20
0
30
0
70
8
0
VERTEX
8
0
62
5
10
0.038093369
20
0.53189948
30
0
70
32
0
VERTEX
8
0
62
5
10
0.038093369
20
0.53189948
30
0
70
32
0
SEQEND
8
0
0
POLYLINE
8
0
62
5
66
1
10
0
20
0
30
0
70
8
0
VERTEX
8
0
62
5
10
0.06637764
20
0.53189948
30
0
70
32
0
VERTEX
8
0
62
5
10
0.06637764
20
0.53189948
30
0
70
32
0
SEQEND
8
0
0
POLYLINE
8
0
62
5
66
1
10
0
20
0
30
0
70
8
0
VERTEX
8
0
62
5
10
0.094661912
20
0.53189948
30
0
70
32
0
VERTEX
8
0
62
5
10
0.094661912
20
0.53189948
30
0
70
32
0
SEQEND
8
0
0
POLYLINE
8
0
62
5
66
1
10
0
20
0
30
0
70
8
0
VERTEX
8
0
62
5
10
0.032552866
20
0.55549737
30
0
70
32
0
VERTEX
8
0
62
5
10
0.032552866
20
0.55549737
30
0
70
32
0
SEQEND
8
0
0
POLYLINE
8
0
62
5
66
1
10
0
20
0
30
0
70
8
0
VERTEX
8
0
62
5
10
0.060837138
20
0.55549737
30
0
70
32
0
VERTEX
8
0
62
5
10
0.060837138
20
0.55549737
30
0
70
32
0
SEQEND
8
0
0
POLYLINE
8
0
62
5
66
1
10
0
20
0
30
0
70
8
0
VERTEX
8
0
62
5
10
0.089121409
20
0.55549737
30
0
70
32
0
VERTEX
8
0
62
5
10
0.089121409
20
0.55549737
30
0
70
32
0
SEQEND
8
0
0
POLYLINE
8
0
62
5
66
1
10
0
20
0
30
0
70
8
0
VERTEX
8
0
62
5
10
0.11740568
20
0.55549737
30
0
70
32
0
VERTEX
8
0
62
5
10
0.11740568
20
0.55549737
30
0
70
32
0
SEQEND
8
0
0
POLYLINE
8
0
62
30
66
1
10
0
20
0
30
0
70
8
0
VERTEX
8
0
62
30
10
0.12294618
20
0.55549737
30
0
70
32
0
VERTEX
8
0
62
30
10
0.23608327
20
0.55549737
30
0
70
32
0
SEQEND
8
0
0
POLYLINE
8
0
62
30
66
1
10
0
20
0
30
0
70
8
0
VERTEX
8
0
62
30
10
0.12294618
20
0.53189948
30
0
70
32
0
VERTEX
8
0
62
30
10
0.23608327
20
0.53189948
30
0
70
32
0
SEQEND
8
0
0
POLYLINE
8
0
62
5
66
1
10
0
20
0
30
0
70
8
0
VERTEX
8
0
62
5
10
0.12294618
20
0.53189948
30
0
70
32
0
VERTEX
8
0
62
5
10
0.14568995
20
0.55549737
30
0
70
32
0
VERTEX
8
0
62
5
10
0.15123045
20
0.53189948
30
0
70
32
0
VERTEX
8
0
62
5
10
0.17397422
20
0.55549737
30
0
70
32
0
VERTEX
8
0
62
5
10
0.17951473
20
0.53189948
30
0
70
32
0
VERTEX
8
0
62
5
10
0.20225849
20
0.55549737
30
0
70
32
0
VERTEX
8
0
62
5
10
0.207799
20
0.53189948
30
0
70
32
0
VERTEX
8
0
62
5
10
0.23054277
20
0.55549737
30
0
70
32
0
VERTEX
8
0
62
5
10
0.23608327
20
0.53189948
30
0
70
32
0
SEQEND
8
0
0
POLYLINE
8
0
62
5
66
1
10
0
20
0
30
0
70
8
0
VERTEX
8
0
62
5
10
0.15123045
20
0.53189948
30
0
70
32
0
VERTEX
8
0
62
5
10
0.15123045
20
0.53189948
30
0
70
32
0
SEQEND
8
0
0
POLYLINE
8
0
62
5
66
1
10
0
20
0
30
0
70
8
0
VERTEX
8
0
62
5
10
0.17951473
20
0.53189948
30
0
70
32
0
VERTEX
8
0
62
5
10
0.17951473
20
0.53189948
30
0
70
32
0
SEQEND
8
0
0
POLYLINE
8
0
62
5
66
1
10
0
20
0
30
0
70
8
0
VERTEX
8
0
62
5
10
0.207799
20
0.53189948
30
0
70
32
0
VERTEX
8
0
62
5
10
0.207799
20
0.53189948
30
0
70
32
0
SEQEND
8
0
0
POLYLINE
8
0
62
5
66
1
10
0
20
0
30
0
70
8
0
VERTEX
8
0
62
5
10
0.14568995
20
0.55549737
30
0
70
32
0
VERTEX
8
0
62
5
10
0.14568995
20
0.55549737
30
0
70
32
0
SEQEND
8
0
0
POLYLINE
8
0
62
5
66
1
10
0
20
0
30
0
70
8
0
VERTEX
8
0
62
5
10
0.17397422
20
0.55549737
30
0
70
32
0
VERTEX
8
0
62
5
10
0.17397422
20
0.55549737
30
0
70
32
0
SEQEND
8
0
0
POLYLINE
8
0
62
5
66
1
10
0
20
0
30
0
70
8
0
VERTEX
8
0
62
5
10
0.20225849
20
0.55549737
30
0
70
32
0
VERTEX
8
0
62
5
10
0.20225849
20
0.55549737
30
0
70
32
0
SEQEND
8
0
0
POLYLINE
8
0
62
5
66
1
10
0
20
0
30
0
70
8
0
VERTEX
8
0
62
5
10
0.23054277
20
0.55549737
30
0
70
32
0
VERTEX
8
0
62
5
10
0.23054277
20
0.55549737
30
0
70
32
0
SEQEND
8
0
0
POLYLINE
8
0
62
30
66
1
10
0
20
0
30
0
70
8
0
VERTEX
8
0
62
30
10
-0.10332799
20
0.55549737
30
0
70
32
0
VERTEX
8
0
62
30
10
0.009809098
20
0.55549737
30
0
70
32
0
SEQEND
8
0
0
POLYLINE
8
0
62
30
66
1
10
0
20
0
30
0
70
8
0
VERTEX
8
0
62
30
10
-0.10332799
20
0.53189948
30
0
70
32
0
VERTEX
8
0
62
30
10
0.009809098
20
0.53189948
30
0
70
32
0
SEQEND
8
0
0
POLYLINE
8
0
62
5
66
1
10
0
20
0
30
0
70
8
0
VERTEX
8
0
62
5
10
-0.10332799
20
0.53189948
30
0
70
32
0
VERTEX
8
0
62
5
10
-0.080584219
20
0.55549737
30
0
70
32
0
VERTEX
8
0
62
5
10
-0.075043716
20
0.53189948
30
0
70
32
0
VERTEX
8
0
62
5
10
-0.052299947
20
0.55549737
30
0
70
32
0
VERTEX
8
0
62
5
10
-0.046759445
20
0.53189948
30
0
70
32
0
VERTEX
8
0
62
5
10
-0.024015676
20
0.55549737
30
0
70
32
0
VERTEX
8
0
62
5
10
-0.018475173
20
0.53189948
30
0
70
32
0
VERTEX
8
0
62
5
10
0.0042685952
20
0.55549737
30
0
70
32
0
VERTEX
8
0
62
5
10
0.009809098
20
0.53189948
30
0
70
32
0
SEQEND
8
0
0
POLYLINE
8
0
62
5
66
1
10
0
20
0
30
0
70
8
0
VERTEX
8
0
62
5
10
-0.075043716
20
0.53189948
30
0
70
32
0
VERTEX
8
0
62
5
10
-0.075043716
20
0.53189948
30
0
70
32
0
SEQEND
8
0
0
POLYLINE
8
0
62
5
66
1
10
0
20
0
30
0
70
8
0
VERTEX
8
0
62
5
10
-0.046759445
20
0.53189948
30
0
70
32
0
VERTEX
8
0
62
5
10
-0.046759445
20
0.53189948
30
0
70
32
0
SEQEND
8
0
0
POLYLINE
8
0
62
5
66
1
10
0
20
0
30
0
70
8
0
VERTEX
8
0
62
5
10
-0.018475173
20
0.53189948
30
0
70
32
0
VERTEX
8
0
62
5
10
-0.018475173
20
0.53189948
30
0
70
32
0
SEQEND
8
0
0
POLYLINE
8
0
62
5
66
1
10
0
20
0
30
0
70
8
0
VERTEX
8
0
62
5
10
-0.080584219
20
0.55549737
30
0
70
32
0
VERTEX
8
0
62
5
10
-0.080584219
20
0.55549737
30
0
70
32
0
SEQEND
8
0
0
POLYLINE
8
0
62
5
66
1
10
0
20
0
30
0
70
8
0
VERTEX
8
0
62
5
10
-0.052299947
20
0.55549737
30
0
70
32
0
VERTEX
8
0
62
5
10
-0.052299947
20
0.55549737
30
0
70
32
0
SEQEND
8
0
0
POLYLINE
8
0
62
5
66
1
10
0
20
0
30
0
70
8
0
VERTEX
8
0
62
5
10
-0.024015676
20
0.55549737
30
0
70
32
0
VERTEX
8
0
62
5
10
-0.024015676
20
0.55549737
30
0
70
32
0
SEQEND
8
0
0
POLYLINE
8
0
62
5
66
1
10
0
20
0
30
0
70
8
0
VERTEX
8
0
62
5
10
0.0042685952
20
0.55549737
30
0
70
32
0
VERTEX
8
0
62
5
10
0.0042685952
20
0.55549737
30
0
70
32
0
SEQEND
8
0
0
POLYLINE
8
0
62
5
66
1
10
0
20
0
30
0
70
8
0
VERTEX
8
0
62
5
10
0.032552866
20
0.55549737
30
0
70
32
0
VERTEX
8
0
62
5
10
0.032552866
20
0.64858176
30
0
70
32
0
SEQEND
8
0
0
POLYLINE
8
0
62
5
66
1
10
0
20
0
30
0
70
8
0
VERTEX
8
0
62
5
10
0.14568995
20
0.55549737
30
0
70
32
0
VERTEX
8
0
62
5
10
0.14568995
20
0.64858176
30
0
70
32
0
SEQEND
8
0
0
POLYLINE
8
0
62
5
66
1
10
0
20
0
30
0
70
8
0
VERTEX
8
0
62
5
10
0.060837138
20
0.55549737
30
0
70
32
0
VERTEX
8
0
62
5
10
0.060837138
20
0.64858176
30
0
70
32
0
SEQEND
8
0
0
POLYLINE
8
0
62
5
66
1
10
0
20
0
30
0
70
8
0
VERTEX
8
0
62
5
10
0.089121409
20
0.55549737
30
0
70
32
0
VERTEX
8
0
62
5
10
0.089121409
20
0.64858176
30
0
70
32
0
SEQEND
8
0
0
POLYLINE
8
0
62
5
66
1
10
0
20
0
30
0
70
8
0
VERTEX
8
0
62
5
10
0.11740568
20
0.55549737
30
0
70
32
0
VERTEX
8
0
62
5
10
0.11740568
20
0.64858176
30
0
70
32
0
SEQEND
8
0
0
POLYLINE
8
0
62
5
66
1
10
0
20
0
30
0
70
8
0
VERTEX
8
0
62
5
10
0.25882704
20
0.55549737
30
0
70
32
0
VERTEX
8
0
62
5
10
0.25882704
20
0.64858176
30
0
70
32
0
SEQEND
8
0
0
POLYLINE
8
0
62
5
66
1
10
0
20
0
30
0
70
8
0
VERTEX
8
0
62
5
10
0.17397422
20
0.55549737
30
0
70
32
0
VERTEX
8
0
62
5
10
0.17397422
20
0.64858176
30
0
70
32
0
SEQEND
8
0
0
POLYLINE
8
0
62
5
66
1
10
0
20
0
30
0
70
8
0
VERTEX
8
0
62
5
10
0.20225849
20
0.55549737
30
0
70
32
0
VERTEX
8
0
62
5
10
0.20225849
20
0.64858176
30
0
70
32
0
SEQEND
8
0
0
POLYLINE
8
0
62
5
66
1
10
0
20
0
30
0
70
8
0
VERTEX
8
0
62
5
10
0.23054277
20
0.55549737
30
0
70
32
0
VERTEX
8
0
62
5
10
0.23054277
20
0.64858176
30
0
70
32
0
SEQEND
8
0
0
POLYLINE
8
0
62
5
66
1
10
0
20
0
30
0
70
8
0
VERTEX
8
0
62
5
10
-0.080584219
20
0.55549737
30
0
70
32
0
VERTEX
8
0
62
5
10
-0.080584219
20
0.64858176
30
0
70
32
0
SEQEND
8
0
0
POLYLINE
8
0
62
5
66
1
10
0
20
0
30
0
70
8
0
VERTEX
8
0
62
5
10
-0.052299947
20
0.55549737
30
0
70
32
0
VERTEX
8
0
62
5
10
-0.052299947
20
0.64858176
30
0
70
32
0
SEQEND
8
0
0
POLYLINE
8
0
62
5
66
1
10
0
20
0
30
0
70
8
0
VERTEX
8
0
62
5
10
-0.024015676
20
0.55549737
30
0
70
32
0
VERTEX
8
0
62
5
10
-0.024015676
20
0.64858176
30
0
70
32
0
SEQEND
8
0
0
POLYLINE
8
0
62
5
66
1
10
0
20
0
30
0
70
8
0
VERTEX
8
0
62
5
10
0.0042685952
20
0.55549737
30
0
70
32
0
VERTEX
8
0
62
5
10
0.0042685952
20
0.64858176
30
0
70
32
0
SEQEND
8
0
0
POLYLINE
8
0
62
5
66
1
10
0
20
0
30
0
70
8
0
VERTEX
8
0
62
5
10
0.032552866
20
0.64858176
30
0
70
32
0
VERTEX
8
0
62
5
10
0.032552866
20
0.66507605
30
0
70
32
0
SEQEND
8
0
0
POLYLINE
8
0
62
5
66
1
10
0
20
0
30
0
70
8
0
VERTEX
8
0
62
5
10
0.14568995
20
0.66507605
30
0
70
32
0
VERTEX
8
0
62
5
10
0.14568995
20
0.64858176
30
0
70
32
0
SEQEND
8
0
0
POLYLINE
8
0
62
5
66
1
10
0
20
0
30
0
70
8
0
VERTEX
8
0
62
5
10
0.032552866
20
0.65266433
30
0
70
32
0
VERTEX
8
0
62
5
10
0.060837138
20
0.64858196
30
0
70
32
0
VERTEX
8
0
62
5
10
0.089121409
20
0.65274654
30
0
70
32
0
VERTEX
8
0
62
5
10
0.11740568
20
0.6568289
30
0
70
32
0
VERTEX
8
0
62
5
10
0.14568995
20
0.65266433
30
0
70
32
0
SEQEND
8
0
0
POLYLINE
8
0
62
5
66
1
10
0
20
0
30
0
70
8
0
SEQEND
8
0
0
POLYLINE
8
0
62
5
66
1
10
0
20
0
30
0
70
8
0
VERTEX
8
0
62
5
10
0.032552866
20
0.66099348
30
0
70
32
0
VERTEX
8
0
62
5
10
0.060837138
20
0.66507584
30
0
70
32
0
VERTEX
8
0
62
5
10
0.089121409
20
0.66091127
30
0
70
32
0
VERTEX
8
0
62
5
10
0.11740568
20
0.6568289
30
0
70
32
0
VERTEX
8
0
62
5
10
0.14568995
20
0.66099348
30
0
70
32
0
SEQEND
8
0
0
POLYLINE
8
0
62
30
66
1
10
0
20
0
30
0
70
8
0
VERTEX
8
0
62
30
10
0.032552866
20
0.6568289
30
0
70
32
0
VERTEX
8
0
62
30
10
0.14568995
20
0.6568289
30
0
70
32
0
SEQEND
8
0
0
POLYLINE
8
0
62
30
66
1
10
0
20
0
30
0
70
8
0
VERTEX
8
0
62
30
10
0.060837138
20
0.64858196
30
0
70
32
0
VERTEX
8
0
62
30
10
0.060837138
20
0.6568289
30
0
70
32
0
SEQEND
8
0
0
POLYLINE
8
0
62
30
66
1
10
0
20
0
30
0
70
8
0
VERTEX
8
0
62
30
10
0.089121409
20
0.65274654
30
0
70
32
0
VERTEX
8
0
62
30
10
0.089121409
20
0.6568289
30
0
70
32
0
SEQEND
8
0
0
POLYLINE
8
0
62
30
66
1
10
0
20
0
30
0
70
8
0
VERTEX
8
0
62
30
10
0.11740568
20
0.6568289
30
0
70
32
0
VERTEX
8
0
62
30
10
0.11740568
20
0.6568289
30
0
70
32
0
SEQEND
8
0
0
POLYLINE
8
0
62
5
66
1
10
0
20
0
30
0
70
8
0
VERTEX
8
0
62
5
10
0.060837138
20
0.64858176
30
0
70
32
0
VERTEX
8
0
62
5
10
0.060837138
20
0.64858196
30
0
70
32
0
SEQEND
8
0
0
POLYLINE
8
0
62
5
66
1
10
0
20
0
30
0
70
8
0
VERTEX
8
0
62
5
10
0.089121409
20
0.64858176
30
0
70
32
0
VERTEX
8
0
62
5
10
0.089121409
20
0.65274654
30
0
70
32
0
SEQEND
8
0
0
POLYLINE
8
0
62
5
66
1
10
0
20
0
30
0
70
8
0
VERTEX
8
0
62
5
10
0.11740568
20
0.64858176
30
0
70
32
0
VERTEX
8
0
62
5
10
0.11740568
20
0.6568289
30
0
70
32
0
SEQEND
8
0
0
POLYLINE
8
0
62
5
66
1
10
0
20
0
30
0
70
8
0
VERTEX
8
0
62
5
10
0.060837138
20
0.6568289
30
0
70
32
0
VERTEX
8
0
62
5
10
0.060837138
20
0.66507605
30
0
70
32
0
SEQEND
8
0
0
POLYLINE
8
0
62
5
66
1
10
0
20
0
30
0
70
8
0
VERTEX
8
0
62
5
10
0.089121409
20
0.6568289
30
0
70
32
0
VERTEX
8
0
62
5
10
0.089121409
20
0.66507605
30
0
70
32
0
SEQEND
8
0
0
POLYLINE
8
0
62
5
66
1
10
0
20
0
30
0
70
8
0
VERTEX
8
0
62
5
10
0.11740568
20
0.6568289
30
0
70
32
0
VERTEX
8
0
62
5
10
0.11740568
20
0.66507605
30
0
70
32
0
SEQEND
8
0
0
POLYLINE
8
0
62
30
66
1
10
0
20
0
30
0
70
8
0
VERTEX
8
0
62
30
10
0.032552866
20
0.65266433
30
0
70
32
0
VERTEX
8
0
62
30
10
0.036620068
20
0.6568289
30
0
70
32
0
VERTEX
8
0
62
30
10
0.032552866
20
0.66099348
30
0
70
32
0
SEQEND
8
0
0
POLYLINE
8
0
62
30
66
1
10
0
20
0
30
0
70
8
0
VERTEX
8
0
62
30
10
0.060837138
20
0.64858196
30
0
70
32
0
VERTEX
8
0
62
30
10
0.067120004
20
0.6568289
30
0
70
32
0
VERTEX
8
0
62
30
10
0.060837138
20
0.66507584
30
0
70
32
0
SEQEND
8
0
0
POLYLINE
8
0
62
30
66
1
10
0
20
0
30
0
70
8
0
VERTEX
8
0
62
30
10
0.089121409
20
0.65274654
30
0
70
32
0
VERTEX
8
0
62
30
10
0.093131086
20
0.6568289
30
0
70
32
0
VERTEX
8
0
62
30
10
0.089121409
20
0.66091127
30
0
70
32
0
SEQEND
8
0
0
POLYLINE
8
0
62
30
66
1
10
0
20
0
30
0
70
8
0
VERTEX
8
0
62
30
10
0.11740568
20
0.6568289
30
0
70
32
0
VERTEX
8
0
62
30
10
0.11740568
20
0.6568289
30
0
70
32
0
VERTEX
8
0
62
30
10
0.11740568
20
0.6568289
30
0
70
32
0
SEQEND
8
0
0
POLYLINE
8
0
62
5
66
1
10
0
20
0
30
0
70
8
0
VERTEX
8
0
62
5
10
0.25882704
20
0.66507605
30
0
70
32
0
VERTEX
8
0
62
5
10
0.25882704
20
0.64858176
30
0
70
32
0
SEQEND
8
0
0
POLYLINE
8
0
62
5
66
1
10
0
20
0
30
0
70
8
0
VERTEX
8
0
62
5
10
0.14568995
20
0.65266433
30
0
70
32
0
VERTEX
8
0
62
5
10
0.17397422
20
0.64858196
30
0
70
32
0
VERTEX
8
0
62
5
10
0.20225849
20
0.65274654
30
0
70
32
0
VERTEX
8
0
62
5
10
0.23054277
20
0.6568289
30
0
70
32
0
VERTEX
8
0
62
5
10
0.25882704
20
0.65266433
30
0
70
32
0
SEQEND
8
0
0
POLYLINE
8
0
62
5
66
1
10
0
20
0
30
0
70
8
0
SEQEND
8
0
0
POLYLINE
8
0
62
5
66
1
10
0
20
0
30
0
70
8
0
VERTEX
8
0
62
5
10
0.14568995
20
0.66099348
30
0
70
32
0
VERTEX
8
0
62
5
10
0.17397422
20
0.66507584
30
0
70
32
0
VERTEX
8
0
62
5
10
0.20225849
20
0.66091127
30
0
70
32
0
VERTEX
8
0
62
5
10
0.23054277
20
0.6568289
30
0
70
32
0
VERTEX
8
0
62
5
10
0.25882704
20
0.66099348
30
0
70
32
0
SEQEND
8
0
0
POLYLINE
8
0
62
30
66
1
10
0
20
0
30
0
70
8
0
VERTEX
8
0
62
30
10
0.14568995
20
0.6568289
30
0
70
32
0
VERTEX
8
0
62
30
10
0.25882704
20
0.6568289
30
0
70
32
0
SEQEND
8
0
0
POLYLINE
8
0
62
30
66
1
10
0
20
0
30
0
70
8
0
VERTEX
8
0
62
30
10
0.17397422
20
0.64858196
30
0
70
32
0
VERTEX
8
0
62
30
10
0.17397422
20
0.6568289
30
0
70
32
0
SEQEND
8
0
0
POLYLINE
8
0
62
30
66
1
10
0
20
0
30
0
70
8
0
VERTEX
8
0
62
30
10
0.20225849
20
0.65274654
30
0
70
32
0
VERTEX
8
0
62
30
10
0.20225849
20
0.6568289
30
0
70
32
0
SEQEND
8
0
0
POLYLINE
8
0
62
30
66
1
10
0
20
0
30
0
70
8
0
VERTEX
8
0
62
30
10
0.23054277
20
0.6568289
30
0
70
32
0
VERTEX
8
0
62
30
10
0.23054277
20
0.6568289
30
0
70
32
0
SEQEND
8
0
0
POLYLINE
8
0
62
5
66
1
10
0
20
0
30
0
70
8
0
VERTEX
8
0
62
5
10
0.17397422
20
0.64858176
30
0
70
32
0
VERTEX
8
0
62
5
10
0.17397422
20
0.64858196
30
0
70
32
0
SEQEND
8
0
0
POLYLINE
8
0
62
5
66
1
10
0
20
0
30
0
70
8
0
VERTEX
8
0
62
5
10
0.20225849
20
0.64858176
30
0
70
32
0
VERTEX
8
0
62
5
10
0.20225849
20
0.65274654
30
0
70
32
0
SEQEND
8
0
0
POLYLINE
8
0
62
5
66
1
10
0
20
0
30
0
70
8
0
VERTEX
8
0
62
5
10
0.23054277
20
0.64858176
30
0
70
32
0
VERTEX
8
0
62
5
10
0.23054277
20
0.6568289
30
0
70
32
0
SEQEND
8
0
0
POLYLINE
8
0
62
5
66
1
10
0
20
0
30
0
70
8
0
VERTEX
8
0
62
5
10
0.17397422
20
0.6568289
30
0
70
32
0
VERTEX
8
0
62
5
10
0.17397422
20
0.66507605
30
0
70
32
0
SEQEND
8
0
0
POLYLINE
8
0
62
5
66
1
10
0
20
0
30
0
70
8
0
VERTEX
8
0
62
5
10
0.20225849
20
0.6568289
30
0
70
32
0
VERTEX
8
0
62
5
10
0.20225849
20
0.66507605
30
0
70
32
0
SEQEND
8
0
0
POLYLINE
8
0
62
5
66
1
10
0
20
0
30
0
70
8
0
VERTEX
8
0
62
5
10
0.23054277
20
0.6568289
30
0
70
32
0
VERTEX
8
0
62
5
10
0.23054277
20
0.66507605
30
0
70
32
0
SEQEND
8
0
0
POLYLINE
8
0
62
30
66
1
10
0
20
0
30
0
70
8
0
VERTEX
8
0
62
30
10
0.14568995
20
0.65266433
30
0
70
32
0
VERTEX
8
0
62
30
10
0.14975715
20
0.6568289
30
0
70
32
0
VERTEX
8
0
62
30
10
0.14568995
20
0.66099348
30
0
70
32
0
SEQEND
8
0
0
POLYLINE
8
0
62
30
66
1
10
0
20
0
30
0
70
8
0
VERTEX
8
0
62
30
10
0.17397422
20
0.64858196
30
0
70
32
0
VERTEX
8
0
62
30
10
0.18025709
20
0.6568289
30
0
70
32
0
VERTEX
8
0
62
30
10
0.17397422
20
0.66507584
30
0
70
32
0
SEQEND
8
0
0
POLYLINE
8
0
62
30
66
1
10
0
20
0
30
0
70
8
0
VERTEX
8
0
62
30
10
0.20225849
20
0.65274654
30
0
70
32
0
VERTEX
8
0
62
30
10
0.20626817
20
0.6568289
30
0
70
32
0
VERTEX
8
0
62
30
10
0.20225849
20
0.66091127
30
0
70
32
0
SEQEND
8
0
0
POLYLINE
8
0
62
30
66
1
10
0
20
0
30
0
70
8
0
VERTEX
8
0
62
30
10
0.23054277
20
0.6568289
30
0
70
32
0
VERTEX
8
0
62
30
10
0.23054277
20
0.6568289
30
0
70
32
0
VERTEX
8
0
62
30
10
0.23054277
20
0.6568289
30
0
70
32
0
SEQEND
8
0
0
POLYLINE
8
0
62
5
66
1
10
0
20
0
30
0
70
8
0
VERTEX
8
0
62
5
10
-0.080584219
20
0.64858176
30
0
70
32
0
VERTEX
8
0
62
5
10
-0.080584219
20
0.66507605
30
0
70
32
0
SEQEND
8
0
0
POLYLINE
8
0
62
5
66
1
10
0
20
0
30
0
70
8
0
VERTEX
8
0
62
5
10
-0.080584219
20
0.65266433
30
0
70
32
0
VERTEX
8
0
62
5
10
-0.052299947
20
0.64858196
30
0
70
32
0
VERTEX
8
0
62
5
10
-0.024015676
20
0.65274654
30
0
70
32
0
VERTEX
8
0
62
5
10
0.0042685952
20
0.6568289
30
0
70
32
0
VERTEX
8
0
62
5
10
0.032552866
20
0.65266433
30
0
70
32
0
SEQEND
8
0
0
POLYLINE
8
0
62
5
66
1
10
0
20
0
30
0
70
8
0
SEQEND
8
0
0
POLYLINE
8
0
62
5
66
1
10
0
20
0
30
0
70
8
0
VERTEX
8
0
62
5
10
-0.080584219
20
0.66099348
30
0
70
32
0
VERTEX
8
0
62
5
10
-0.052299947
20
0.66507584
30
0
70
32
0
VERTEX
8
0
62
5
10
-0.024015676
20
0.66091127
30
0
70
32
0
VERTEX
8
0
62
5
10
0.0042685952
20
0.6568289
30
0
70
32
0
VERTEX
8
0
62
5
10
0.032552866
20
0.66099348
30
0
70
32
0
SEQEND
8
0
0
POLYLINE
8
0
62
30
66
1
10
0
20
0
30
0
70
8
0
VERTEX
8
0
62
30
10
-0.080584219
20
0.6568289
30
0
70
32
0
VERTEX
8
0
62
30
10
0.032552866
20
0.6568289
30
0
70
32
0
SEQEND
8
0
0
POLYLINE
8
0
62
30
66
1
10
0
20
0
30
0
70
8
0
VERTEX
8
0
62
30
10
-0.052299947
20
0.64858196
30
0
70
32
0
VERTEX
8
0
62
30
10
-0.052299947
20
0.6568289
30
0
70
32
0
SEQEND
8
0
0
POLYLINE
8
0
62
30
66
1
10
0
20
0
30
0
70
8
0
VERTEX
8
0
62
30
10
-0.024015676
20
0.65274654
30
0
70
32
0
VERTEX
8
0
62
30
10
-0.024015676
20
0.6568289
30
0
70
32
0
SEQEND
8
0
0
POLYLINE
8
0
62
30
66
1
10
0
20
0
30
0
70
8
0
VERTEX
8
0
62
30
10
0.0042685952
20
0.6568289
30
0
70
32
0
VERTEX
8
0
62
30
10
0.0042685952
20
0.6568289
30
0
70
32
0
SEQEND
8
0
0
POLYLINE
8
0
62
5
66
1
10
0
20
0
30
0
70
8
0
VERTEX
8
0
62
5
10
-0.052299947
20
0.64858176
30
0
70
32
0
VERTEX
8
0
62
5
10
-0.052299947
20
0.64858196
30
0
70
32
0
SEQEND
8
0
0
POLYLINE
8
0
62
5
66
1
10
0
20
0
30
0
70
8
0
VERTEX
8
0
62
5
10
-0.024015676
20
0.64858176
30
0
70
32
0
VERTEX
8
0
62
5
10
-0.024015676
20
0.65274654
30
0
70
32
0
SEQEND
8
0
0
POLYLINE
8
0
62
5
66
1
10
0
20
0
30
0
70
8
0
VERTEX
8
0
62
5
10
0.0042685952
20
0.64858176
30
0
70
32
0
VERTEX
8
0
62
5
10
0.0042685952
20
0.6568289
30
0
70
32
0
SEQEND
8
0
0
POLYLINE
8
0
62
5
66
1
10
0
20
0
30
0
70
8
0
VERTEX
8
0
62
5
10
-0.052299947
20
0.6568289
30
0
70
32
0
VERTEX
8
0
62
5
10
-0.052299947
20
0.66507605
30
0
70
32
0
SEQEND
8
0
0
POLYLINE
8
0
62
5
66
1
10
0
20
0
30
0
70
8
0
VERTEX
8
0
62
5
10
-0.024015676
20
0.6568289
30
0
70
32
0
VERTEX
8
0
62
5
10
-0.024015676
20
0.66507605
30
0
70
32
0
SEQEND
8
0
0
POLYLINE
8
0
62
5
66
1
10
0
20
0
30
0
70
8
0
VERTEX
8
0
62
5
10
0.0042685952
20
0.6568289
30
0
70
32
0
VERTEX
8
0
62
5
10
0.0042685952
20
0.66507605
30
0
70
32
0
SEQEND
8
0
0
POLYLINE
8
0
62
30
66
1
10
0
20
0
30
0
70
8
0
VERTEX
8
0
62
30
10
-0.080584219
20
0.65266433
30
0
70
32
0
VERTEX
8
0
62
30
10
-0.076517017
20
0.6568289
30
0
70
32
0
VERTEX
8
0
62
30
10
-0.080584219
20
0.66099348
30
0
70
32
0
SEQEND
8
0
0
POLYLINE
8
0
62
30
66
1
10
0
20
0
30
0
70
8
0
VERTEX
8
0
62
30
10
-0.052299947
20
0.64858196
30
0
70
32
0
VERTEX
8
0
62
30
10
-0.046017081
20
0.6568289
30
0
70
32
0
VERTEX
8
0
62
30
10
-0.052299947
20
0.66507584
30
0
70
32
0
SEQEND
8
0
0
POLYLINE
8
0
62
30
66
1
10
0
20
0
30
0
70
8
0
VERTEX
8
0
62
30
10
-0.024015676
20
0.65274654
30
0
70
32
0
VERTEX
8
0
62
30
10
-0.020005999
20
0.6568289
30
0
70
32
0
VERTEX
8
0
62
30
10
-0.024015676
20
0.66091127
30
0
70
32
0
SEQEND
8
0
0
POLYLINE
8
0
62
30
66
1
10
0
20
0
30
0
70
8
0
VERTEX
8
0
62
30
10
0.0042685952
20
0.6568289
30
0
70
32
0
VERTEX
8
0
62
30
10
0.0042685952
20
0.6568289
30
0
70
32
0
VERTEX
8
0
62
30
10
0.0042685952
20
0.6568289
30
0
70
32
0
SEQEND
8
0
0
POLYLINE
8
0
62
5
66
1
10
0
20
0
30
0
70
8
0
VERTEX
8
0
62
5
10
0.032552866
20
0.66507605
30
0
70
32
0
VERTEX
8
0
62
5
10
0.032552866
20
0.70507605
30
0
70
32
0
SEQEND
8
0
0
POLYLINE
8
0
62
5
66
1
10
0
20
0
30
0
70
8
0
VERTEX
8
0
62
5
10
0.14568995
20
0.70507605
30
0
70
32
0
VERTEX
8
0
62
5
10
0.14568995
20
0.66507605
30
0
70
32
0
SEQEND
8
0
0
POLYLINE
8
0
62
5
66
1
10
0
20
0
30
0
70
8
0
VERTEX
8
0
62
5
10
0.032552866
20
0.66507605
30
0
70
32
0
VERTEX
8
0
62
5
10
0.14568995
20
0.66507605
30
0
70
32
0
SEQEND
8
0
0
POLYLINE
8
0
62
5
66
1
10
0
20
0
30
0
70
8
0
VERTEX
8
0
62
5
10
0.032552866
20
0.70507605
30
0
70
32
0
VERTEX
8
0
62
5
10
0.14568995
20
0.70507605
30
0
70
32
0
SEQEND
8
0
0
POLYLINE
8
0
62
5
66
1
10
0
20
0
30
0
70
8
0
VERTEX
8
0
62
5
10
0.060837138
20
0.66507605
30
0
70
32
0
VERTEX
8
0
62
5
10
0.060837138
20
0.66507605
30
0
70
32
0
SEQEND
8
0
0
POLYLINE
8
0
62
5
66
1
10
0
20
0
30
0
70
8
0
VERTEX
8
0
62
5
10
0.089121409
20
0.66507605
30
0
70
32
0
VERTEX
8
0
62
5
10
0.089121409
20
0.66507605
30
0
70
32
0
SEQEND
8
0
0
POLYLINE
8
0
62
5
66
1
10
0
20
0
30
0
70
8
0
VERTEX
8
0
62
5
10
0.11740568
20
0.66507605
30
0
70
32
0
VERTEX
8
0
62
5
10
0.11740568
20
0.66507605
30
0
70
32
0
SEQEND
8
0
0
POLYLINE
8
0
62
5
66
1
10
0
20
0
30
0
70
8
0
VERTEX
8
0
62
5
10
0.060837138
20
0.70507605
30
0
70
32
0
VERTEX
8
0
62
5
10
0.060837138
20
0.70507605
30
0
70
32
0
SEQEND
8
0
0
POLYLINE
8
0
62
5
66
1
10
0
20
0
30
0
70
8
0
VERTEX
8
0
62
5
10
0.089121409
20
0.70507605
30
0
70
32
0
VERTEX
8
0
62
5
10
0.089121409
20
0.70507605
30
0
70
32
0
SEQEND
8
0
0
POLYLINE
8
0
62
5
66
1
10
0
20
0
30
0
70
8
0
VERTEX
8
0
62
5
10
0.11740568
20
0.70507605
30
0
70
32
0
VERTEX
8
0
62
5
10
0.11740568
20
0.70507605
30
0
70
32
0
SEQEND
8
0
0
POLYLINE
8
0
62
30
66
1
10
0
20
0
30
0
70
8
0
VERTEX
8
0
62
30
10
0.032552866
20
0.70507605
30
0
70
32
0
VERTEX
8
0
62
30
10
0.060837138
20
0.66507605
30
0
70
32
0
SEQEND
8
0
0
POLYLINE
8
0
62
30
66
1
10
0
20
0
30
0
70
8
0
VERTEX
8
0
62
30
10
0.060837138
20
0.70507605
30
0
70
32
0
VERTEX
8
0
62
30
10
0.032552866
20
0.66507605
30
0
70
32
0
SEQEND
8
0
0
POLYLINE
8
0
62
30
66
1
10
0
20
0
30
0
70
8
0
VERTEX
8
0
62
30
10
0.089121409
20
0.70507605
30
0
70
32
0
VERTEX
8
0
62
30
10
0.11740568
20
0.66507605
30
0
70
32
0
SEQEND
8
0
0
POLYLINE
8
0
62
30
66
1
10
0
20
0
30
0
70
8
0
VERTEX
8
0
62
30
10
0.11740568
20
0.70507605
30
0
70
32
0
VERTEX
8
0
62
30
10
0.089121409
20
0.66507605
30
0
70
32
0
SEQEND
8
0
0
POLYLINE
8
0
62
30
66
1
10
0
20
0
30
0
70
8
0
VERTEX
8
0
62
30
10
0.060837138
20
0.68507605
30
0
70
32
0
VERTEX
8
0
62
30
10
0.089121409
20
0.68507605
30
0
70
32
0
SEQEND
8
0
0
POLYLINE
8
0
62
30
66
1
10
0
20
0
30
0
70
8
0
VERTEX
8
0
62
30
10
0.11740568
20
0.68507605
30
0
70
32
0
VERTEX
8
0
62
30
10
0.14568995
20
0.68507605
30
0
70
32
0
SEQEND
8
0
0
POLYLINE
8
0
62
5
66
1
10
0
20
0
30
0
70
8
0
VERTEX
8
0
62
5
10
0.032552866
20
0.68507605
30
0
70
32
0
VERTEX
8
0
62
5
10
0.046695002
20
0.68507605
30
0
70
32
0
SEQEND
8
0
0
POLYLINE
8
0
62
5
66
1
10
0
20
0
30
0
70
8
0
VERTEX
8
0
62
5
10
0.089121409
20
0.68507605
30
0
70
32
0
VERTEX
8
0
62
5
10
0.10326354
20
0.68507605
30
0
70
32
0
SEQEND
8
0
0
POLYLINE
8
0
62
5
66
1
10
0
20
0
30
0
70
8
0
VERTEX
8
0
62
5
10
0.046695002
20
0.68507605
30
0
70
32
0
VERTEX
8
0
62
5
10
0.060837138
20
0.68507605
30
0
70
32
0
SEQEND
8
0
0
POLYLINE
8
0
62
5
66
1
10
0
20
0
30
0
70
8
0
VERTEX
8
0
62
5
10
0.10326354
20
0.68507605
30
0
70
32
0
VERTEX
8
0
62
5
10
0.11740568
20
0.68507605
30
0
70
32
0
SEQEND
8
0
0
POLYLINE
8
0
62
5
66
1
10
0
20
0
30
0
70
8
0
VERTEX
8
0
62
5
10
0.060837138
20
0.66507605
30
0
70
32
0
VERTEX
8
0
62
5
10
0.060837138
20
0.70507605
30
0
70
32
0
SEQEND
8
0
0
POLYLINE
8
0
62
5
66
1
10
0
20
0
30
0
70
8
0
VERTEX
8
0
62
5
10
0.089121409
20
0.66507605
30
0
70
32
0
VERTEX
8
0
62
5
10
0.089121409
20
0.70507605
30
0
70
32
0
SEQEND
8
0
0
POLYLINE
8
0
62
5
66
1
10
0
20
0
30
0
70
8
0
VERTEX
8
0
62
5
10
0.11740568
20
0.66507605
30
0
70
32
0
VERTEX
8
0
62
5
10
0.11740568
20
0.70507605
30
0
70
32
0
SEQEND
8
0
0
POLYLINE
8
0
62
5
66
1
10
0
20
0
30
0
70
8
0
VERTEX
8
0
62
5
10
0.032552866
20
0.66507605
30
0
70
32
0
VERTEX
8
0
62
5
10
0.032552866
20
0.70507605
30
0
70
32
0
SEQEND
8
0
0
POLYLINE
8
0
62
5
66
1
10
0
20
0
30
0
70
8
0
VERTEX
8
0
62
5
10
0.25882704
20
0.70507605
30
0
70
32
0
VERTEX
8
0
62
5
10
0.25882704
20
0.66507605
30
0
70
32
0
SEQEND
8
0
0
POLYLINE
8
0
62
5
66
1
10
0
20
0
30
0
70
8
0
VERTEX
8
0
62
5
10
0.14568995
20
0.66507605
30
0
70
32
0
VERTEX
8
0
62
5
10
0.25882704
20
0.66507605
30
0
70
32
0
SEQEND
8
0
0
POLYLINE
8
0
62
5
66
1
10
0
20
0
30
0
70
8
0
VERTEX
8
0
62
5
10
0.14568995
20
0.70507605
30
0
70
32
0
VERTEX
8
0
62
5
10
0.25882704
20
0.70507605
30
0
70
32
0
SEQEND
8
0
0
POLYLINE
8
0
62
5
66
1
10
0
20
0
30
0
70
8
0
VERTEX
8
0
62
5
10
0.17397422
20
0.66507605
30
0
70
32
0
VERTEX
8
0
62
5
10
0.17397422
20
0.66507605
30
0
70
32
0
SEQEND
8
0
0
POLYLINE
8
0
62
5
66
1
10
0
20
0
30
0
70
8
0
VERTEX
8
0
62
5
10
0.20225849
20
0.66507605
30
0
70
32
0
VERTEX
8
0
62
5
10
0.20225849
20
0.66507605
30
0
70
32
0
SEQEND
8
0
0
POLYLINE
8
0
62
5
66
1
10
0
20
0
30
0
70
8
0
VERTEX
8
0
62
5
10
0.23054277
20
0.66507605
30
0
70
32
0
VERTEX
8
0
62
5
10
0.23054277
20
0.66507605
30
0
70
32
0
SEQEND
8
0
0
POLYLINE
8
0
62
5
66
1
10
0
20
0
30
0
70
8
0
VERTEX
8
0
62
5
10
0.17397422
20
0.70507605
30
0
70
32
0
VERTEX
8
0
62
5
10
0.17397422
20
0.70507605
30
0
70
32
0
SEQEND
8
0
0
POLYLINE
8
0
62
5
66
1
10
0
20
0
30
0
70
8
0
VERTEX
8
0
62
5
10
0.20225849
20
0.70507605
30
0
70
32
0
VERTEX
8
0
62
5
10
0.20225849
20
0.70507605
30
0
70
32
0
SEQEND
8
0
0
POLYLINE
8
0
62
5
66
1
10
0
20
0
30
0
70
8
0
VERTEX
8
0
62
5
10
0.23054277
20
0.70507605
30
0
70
32
0
VERTEX
8
0
62
5
10
0.23054277
20
0.70507605
30
0
70
32
0
SEQEND
8
0
0
POLYLINE
8
0
62
30
66
1
10
0
20
0
30
0
70
8
0
VERTEX
8
0
62
30
10
0.14568995
20
0.70507605
30
0
70
32
0
VERTEX
8
0
62
30
10
0.17397422
20
0.66507605
30
0
70
32
0
SEQEND
8
0
0
POLYLINE
8
0
62
30
66
1
10
0
20
0
30
0
70
8
0
VERTEX
8
0
62
30
10
0.17397422
20
0.70507605
30
0
70
32
0
VERTEX
8
0
62
30
10
0.14568995
20
0.66507605
30
0
70
32
0
SEQEND
8
0
0
POLYLINE
8
0
62
30
66
1
10
0
20
0
30
0
70
8
0
VERTEX
8
0
62
30
10
0.20225849
20
0.70507605
30
0
70
32
0
VERTEX
8
0
62
30
10
0.23054277
20
0.66507605
30
0
70
32
0
SEQEND
8
0
0
POLYLINE
8
0
62
30
66
1
10
0
20
0
30
0
70
8
0
VERTEX
8
0
62
30
10
0.23054277
20
0.70507605
30
0
70
32
0
VERTEX
8
0
62
30
10
0.20225849
20
0.66507605
30
0
70
32
0
SEQEND
8
0
0
POLYLINE
8
0
62
30
66
1
10
0
20
0
30
0
70
8
0
VERTEX
8
0
62
30
10
0.17397422
20
0.68507605
30
0
70
32
0
VERTEX
8
0
62
30
10
0.20225849
20
0.68507605
30
0
70
32
0
SEQEND
8
0
0
POLYLINE
8
0
62
30
66
1
10
0
20
0
30
0
70
8
0
VERTEX
8
0
62
30
10
0.23054277
20
0.68507605
30
0
70
32
0
VERTEX
8
0
62
30
10
0.25882704
20
0.68507605
30
0
70
32
0
SEQEND
8
0
0
POLYLINE
8
0
62
5
66
1
10
0
20
0
30
0
70
8
0
VERTEX
8
0
62
5
10
0.14568995
20
0.68507605
30
0
70
32
0
VERTEX
8
0
62
5
10
0.15983209
20
0.68507605
30
0
70
32
0
SEQEND
8
0
0
POLYLINE
8
0
62
5
66
1
10
0
20
0
30
0
70
8
0
VERTEX
8
0
62
5
10
0.20225849
20
0.68507605
30
0
70
32
0
VERTEX
8
0
62
5
10
0.21640063
20
0.68507605
30
0
70
32
0
SEQEND
8
0
0
POLYLINE
8
0
62
5
66
1
10
0
20
0
30
0
70
8
0
VERTEX
8
0
62
5
10
0.15983209
20
0.68507605
30
0
70
32
0
VERTEX
8
0
62
5
10
0.17397422
20
0.68507605
30
0
70
32
0
SEQEND
8
0
0
POLYLINE
8
0
62
5
66
1
10
0
20
0
30
0
70
8
0
VERTEX
8
0
62
5
10
0.21640063
20
0.68507605
30
0
70
32
0
VERTEX
8
0
62
5
10
0.23054277
20
0.68507605
30
0
70
32
0
SEQEND
8
0
0
POLYLINE
8
0
62
5
66
1
10
0
20
0
30
0
70
8
0
VERTEX
8
0
62
5
10
0.17397422
20
0.66507605
30
0
70
32
0
VERTEX
8
0
62
5
10
0.17397422
20
0.70507605
30
0
70
32
0
SEQEND
8
0
0
POLYLINE
8
0
62
5
66
1
10
0
20
0
30
0
70
8
0
VERTEX
8
0
62
5
10
0.20225849
20
0.66507605
30
0
70
32
0
VERTEX
8
0
62
5
10
0.20225849
20
0.70507605
30
0
70
32
0
SEQEND
8
0
0
POLYLINE
8
0
62
5
66
1
10
0
20
0
30
0
70
8
0
VERTEX
8
0
62
5
10
0.23054277
20
0.66507605
30
0
70
32
0
VERTEX
8
0
62
5
10
0.23054277
20
0.70507605
30
0
70
32
0
SEQEND
8
0
0
POLYLINE
8
0
62
5
66
1
10
0
20
0
30
0
70
8
0
VERTEX
8
0
62
5
10
0.14568995
20
0.66507605
30
0
70
32
0
VERTEX
8
0
62
5
10
0.14568995
20
0.70507605
30
0
70
32
0
SEQEND
8
0
0
POLYLINE
8
0
62
5
66
1
10
0
20
0
30
0
70
8
0
VERTEX
8
0
62
5
10
-0.080584219
20
0.66507605
30
0
70
32
0
VERTEX
8
0
62
5
10
-0.080584219
20
0.70507605
30
0
70
32
0
SEQEND
8
0
0
POLYLINE
8
0
62
5
66
1
10
0
20
0
30
0
70
8
0
VERTEX
8
0
62
5
10
-0.080584219
20
0.66507605
30
0
70
32
0
VERTEX
8
0
62
5
10
0.032552866
20
0.66507605
30
0
70
32
0
SEQEND
8
0
0
POLYLINE
8
0
62
5
66
1
10
0
20
0
30
0
70
8
0
VERTEX
8
0
62
5
10
-0.080584219
20
0.70507605
30
0
70
32
0
VERTEX
8
0
62
5
10
0.032552866
20
0.70507605
30
0
70
32
0
SEQEND
8
0
0
POLYLINE
8
0
62
5
66
1
10
0
20
0
30
0
70
8
0
VERTEX
8
0
62
5
10
-0.052299947
20
0.66507605
30
0
70
32
0
VERTEX
8
0
62
5
10
-0.052299947
20
0.66507605
30
0
70
32
0
SEQEND
8
0
0
POLYLINE
8
0
62
5
66
1
10
0
20
0
30
0
70
8
0
VERTEX
8
0
62
5
10
-0.024015676
20
0.66507605
30
0
70
32
0
VERTEX
8
0
62
5
10
-0.024015676
20
0.66507605
30
0
70
32
0
SEQEND
8
0
0
POLYLINE
8
0
62
5
66
1
10
0
20
0
30
0
70
8
0
VERTEX
8
0
62
5
10
0.0042685952
20
0.66507605
30
0
70
32
0
VERTEX
8
0
62
5
10
0.0042685952
20
0.66507605
30
0
70
32
0
SEQEND
8
0
0
POLYLINE
8
0
62
5
66
1
10
0
20
0
30
0
70
8
0
VERTEX
8
0
62
5
10
-0.052299947
20
0.70507605
30
0
70
32
0
VERTEX
8
0
62
5
10
-0.052299947
20
0.70507605
30
0
70
32
0
SEQEND
8
0
0
POLYLINE
8
0
62
5
66
1
10
0
20
0
30
0
70
8
0
VERTEX
8
0
62
5
10
-0.024015676
20
0.70507605
30
0
70
32
0
VERTEX
8
0
62
5
10
-0.024015676
20
0.70507605
30
0
70
32
0
SEQEND
8
0
0
POLYLINE
8
0
62
5
66
1
10
0
20
0
30
0
70
8
0
VERTEX
8
0
62
5
10
0.0042685952
20
0.70507605
30
0
70
32
0
VERTEX
8
0
62
5
10
0.0042685952
20
0.70507605
30
0
70
32
0
SEQEND
8
0
0
POLYLINE
8
0
62
30
66
1
10
0
20
0
30
0
70
8
0
VERTEX
8
0
62
30
10
-0.080584219
20
0.70507605
30
0
70
32
0
VERTEX
8
0
62
30
10
-0.052299947
20
0.66507605
30
0
70
32
0
SEQEND
8
0
0
POLYLINE
8
0
62
30
66
1
10
0
20
0
30
0
70
8
0
VERTEX
8
0
62
30
10
-0.052299947
20
0.70507605
30
0
70
32
0
VERTEX
8
0
62
30
10
-0.080584219
20
0.66507605
30
0
70
32
0
SEQEND
8
0
0
POLYLINE
8
0
62
30
66
1
10
0
20
0
30
0
70
8
0
VERTEX
8
0
62
30
10
-0.024015676
20
0.70507605
30
0
70
32
0
VERTEX
8
0
62
30
10
0.0042685952
20
0.66507605
30
0
70
32
0
SEQEND
8
0
0
POLYLINE
8
0
62
30
66
1
10
0
20
0
30
0
70
8
0
VERTEX
8
0
62
30
10
0.0042685952
20
0.70507605
30
0
70
32
0
VERTEX
8
0
62
30
10
-0.024015676
20
0.66507605
30
0
70
32
0
SEQEND
8
0
0
POLYLINE
8
0
62
30
66
1
10
0
20
0
30
0
70
8
0
VERTEX
8
0
62
30
10
-0.052299947
20
0.68507605
30
0
70
32
0
VERTEX
8
0
62
30
10
-0.024015676
20
0.68507605
30
0
70
32
0
SEQEND
8
0
0
POLYLINE
8
0
62
30
66
1
10
0
20
0
30
0
70
8
0
VERTEX
8
0
62
30
10
0.0042685952
20
0.68507605
30
0
70
32
0
VERTEX
8
0
62
30
10
0.032552866
20
0.68507605
30
0
70
32
0
SEQEND
8
0
0
POLYLINE
8
0
62
5
66
1
10
0
20
0
30
0
70
8
0
VERTEX
8
0
62
5
10
-0.080584219
20
0.68507605
30
0
70
32
0
VERTEX
8
0
62
5
10
-0.066442083
20
0.68507605
30
0
70
32
0
SEQEND
8
0
0
POLYLINE
8
0
62
5
66
1
10
0
20
0
30
0
70
8
0
VERTEX
8
0
62
5
10
-0.024015676
20
0.68507605
30
0
70
32
0
VERTEX
8
0
62
5
10
-0.0098735404
20
0.68507605
30
0
70
32
0
SEQEND
8
0
0
POLYLINE
8
0
62
5
66
1
10
0
20
0
30
0
70
8
0
VERTEX
8
0
62
5
10
-0.066442083
20
0.68507605
30
0
70
32
0
VERTEX
8
0
62
5
10
-0.052299947
20
0.68507605
30
0
70
32
0
SEQEND
8
0
0
POLYLINE
8
0
62
5
66
1
10
0
20
0
30
0
70
8
0
VERTEX
8
0
62
5
10
-0.0098735404
20
0.68507605
30
0
70
32
0
VERTEX
8
0
62
5
10
0.0042685952
20
0.68507605
30
0
70
32
0
SEQEND
8
0
0
POLYLINE
8
0
62
5
66
1
10
0
20
0
30
0
70
8
0
VERTEX
8
0
62
5
10
-0.052299947
20
0.66507605
30
0
70
32
0
VERTEX
8
0
62
5
10
-0.052299947
20
0.70507605
30
0
70
32
0
SEQEND
8
0
0
POLYLINE
8
0
62
5
66
1
10
0
20
0
30
0
70
8
0
VERTEX
8
0
62
5
10
-0.024015676
20
0.66507605
30
0
70
32
0
VERTEX
8
0
62
5
10
-0.024015676
20
0.70507605
30
0
70
32
0
SEQEND
8
0
0
POLYLINE
8
0
62
5
66
1
10
0
20
0
30
0
70
8
0
VERTEX
8
0
62
5
10
0.0042685952
20
0.66507605
30
0
70
32
0
VERTEX
8
0
62
5
10
0.0042685952
20
0.70507605
30
0
70
32
0
SEQEND
8
0
0
POLYLINE
8
0
62
5
66
1
10
0
20
0
30
0
70
8
0
VERTEX
8
0
62
5
10
-0.080584219
20
0.66507605
30
0
70
32
0
VERTEX
8
0
62
5
10
-0.080584219
20
0.70507605
30
0
70
32
0
SEQEND
8
0
0
POLYLINE
8
0
62
5
66
1
10
0
20
0
30
0
70
8
0
VERTEX
8
0
62
5
10
0.032552866
20
0.70507605
30
0
70
32
0
VERTEX
8
0
62
5
10
0.032552866
20
0.79360089
30
0
70
32
0
SEQEND
8
0
0
POLYLINE
8
0
62
5
66
1
10
0
20
0
30
0
70
8
0
VERTEX
8
0
62
5
10
0.14568995
20
0.79360089
30
0
70
32
0
VERTEX
8
0
62
5
10
0.14568995
20
0.70507605
30
0
70
32
0
SEQEND
8
0
0
POLYLINE
8
0
62
5
66
1
10
0
20
0
30
0
70
8
0
VERTEX
8
0
62
5
10
0.032552866
20
0.71974568
30
0
70
32
0
VERTEX
8
0
62
5
10
0.060837138
20
0.70558326
30
0
70
32
0
VERTEX
8
0
62
5
10
0.089121409
20
0.71304485
30
0
70
32
0
VERTEX
8
0
62
5
10
0.11740568
20
0.72720726
30
0
70
32
0
VERTEX
8
0
62
5
10
0.14568995
20
0.71974568
30
0
70
32
0
SEQEND
8
0
0
POLYLINE
8
0
62
5
66
1
10
0
20
0
30
0
70
8
0
VERTEX
8
0
62
5
10
0.032552866
20
0.7640081
30
0
70
32
0
VERTEX
8
0
62
5
10
0.060837138
20
0.74984569
30
0
70
32
0
VERTEX
8
0
62
5
10
0.089121409
20
0.75730727
30
0
70
32
0
VERTEX
8
0
62
5
10
0.11740568
20
0.77146968
30
0
70
32
0
VERTEX
8
0
62
5
10
0.14568995
20
0.7640081
30
0
70
32
0
SEQEND
8
0
0
POLYLINE
8
0
62
5
66
1
10
0
20
0
30
0
70
8
0
VERTEX
8
0
62
5
10
0.032552866
20
0.73466884
30
0
70
32
0
VERTEX
8
0
62
5
10
0.060837138
20
0.74883126
30
0
70
32
0
VERTEX
8
0
62
5
10
0.089121409
20
0.74136967
30
0
70
32
0
VERTEX
8
0
62
5
10
0.11740568
20
0.72720726
30
0
70
32
0
VERTEX
8
0
62
5
10
0.14568995
20
0.73466884
30
0
70
32
0
SEQEND
8
0
0
POLYLINE
8
0
62
5
66
1
10
0
20
0
30
0
70
8
0
VERTEX
8
0
62
5
10
0.032552866
20
0.77893127
30
0
70
32
0
VERTEX
8
0
62
5
10
0.060837138
20
0.79309368
30
0
70
32
0
VERTEX
8
0
62
5
10
0.089121409
20
0.7856321
30
0
70
32
0
VERTEX
8
0
62
5
10
0.11740568
20
0.77146968
30
0
70
32
0
VERTEX
8
0
62
5
10
0.14568995
20
0.77893127
30
0
70
32
0
SEQEND
8
0
0
POLYLINE
8
0
62
30
66
1
10
0
20
0
30
0
70
8
0
VERTEX
8
0
62
30
10
0.032552866
20
0.72720726
30
0
70
32
0
VERTEX
8
0
62
30
10
0.14568995
20
0.72720726
30
0
70
32
0
SEQEND
8
0
0
POLYLINE
8
0
62
30
66
1
10
0
20
0
30
0
70
8
0
VERTEX
8
0
62
30
10
0.032552866
20
0.77146968
30
0
70
32
0
VERTEX
8
0
62
30
10
0.14568995
20
0.77146968
30
0
70
32
0
SEQEND
8
0
0
POLYLINE
8
0
62
30
66
1
10
0
20
0
30
0
70
8
0
VERTEX
8
0
62
30
10
0.060837138
20
0.70558326
30
0
70
32
0
VERTEX
8
0
62
30
10
0.060837138
20
0.72720726
30
0
70
32
0
SEQEND
8
0
0
POLYLINE
8
0
62
30
66
1
10
0
20
0
30
0
70
8
0
VERTEX
8
0
62
30
10
0.089121409
20
0.71304485
30
0
70
32
0
VERTEX
8
0
62
30
10
0.089121409
20
0.72720726
30
0
70
32
0
SEQEND
8
0
0
POLYLINE
8
0
62
30
66
1
10
0
20
0
30
0
70
8
0
VERTEX
8
0
62
30
10
0.11740568
20
0.72720726
30
0
70
32
0
VERTEX
8
0
62
30
10
0.11740568
20
0.72720726
30
0
70
32
0
SEQEND
8
0
0
POLYLINE
8
0
62
30
66
1
10
0
20
0
30
0
70
8
0
VERTEX
8
0
62
30
10
0.060837138
20
0.74984569
30
0
70
32
0
VERTEX
8
0
62
30
10
0.060837138
20
0.77146968
30
0
70
32
0
SEQEND
8
0
0
POLYLINE
8
0
62
30
66
1
10
0
20
0
30
0
70
8
0
VERTEX
8
0
62
30
10
0.089121409
20
0.75730727
30
0
70
32
0
VERTEX
8
0
62
30
10
0.089121409
20
0.77146968
30
0
70
32
0
SEQEND
8
0
0
POLYLINE
8
0
62
30
66
1
10
0
20
0
30
0
70
8
0
VERTEX
8
0
62
30
10
0.11740568
20
0.77146968
30
0
70
32
0
VERTEX
8
0
62
30
10
0.11740568
20
0.77146968
30
0
70
32
0
SEQEND
8
0
0
POLYLINE
8
0
62
5
66
1
10
0
20
0
30
0
70
8
0
VERTEX
8
0
62
5
10
0.060837138
20
0.70507605
30
0
70
32
0
VERTEX
8
0
62
5
10
0.060837138
20
0.70558326
30
0
70
32
0
SEQEND
8
0
0
POLYLINE
8
0
62
5
66
1
10
0
20
0
30
0
70
8
0
VERTEX
8
0
62
5
10
0.089121409
20
0.70507605
30
0
70
32
0
VERTEX
8
0
62
5
10
0.089121409
20
0.71304485
30
0
70
32
0
SEQEND
8
0
0
POLYLINE
8
0
62
5
66
1
10
0
20
0
30
0
70
8
0
VERTEX
8
0
62
5
10
0.11740568
20
0.70507605
30
0
70
32
0
VERTEX
8
0
62
5
10
0.11740568
20
0.72720726
30
0
70
32
0
SEQEND
8
0
0
POLYLINE
8
0
62
5
66
1
10
0
20
0
30
0
70
8
0
VERTEX
8
0
62
5
10
0.060837138
20
0.74933847
30
0
70
32
0
VERTEX
8
0
62
5
10
0.060837138
20
0.74984569
30
0
70
32
0
SEQEND
8
0
0
POLYLINE
8
0
62
5
66
1
10
0
20
0
30
0
70
8
0
VERTEX
8
0
62
5
10
0.089121409
20
0.74933847
30
0
70
32
0
VERTEX
8
0
62
5
10
0.089121409
20
0.75730727
30
0
70
32
0
SEQEND
8
0
0
POLYLINE
8
0
62
5
66
1
10
0
20
0
30
0
70
8
0
VERTEX
8
0
62
5
10
0.11740568
20
0.74933847
30
0
70
32
0
VERTEX
8
0
62
5
10
0.11740568
20
0.77146968
30
0
70
32
0
SEQEND
8
0
0
POLYLINE
8
0
62
5
66
1
10
0
20
0
30
0
70
8
0
VERTEX
8
0
62
5
10
0.060837138
20
0.72720726
30
0
70
32
0
VERTEX
8
0
62
5
10
0.060837138
20
0.74933847
30
0
70
32
0
SEQEND
8
0
0
POLYLINE
8
0
62
5
66
1
10
0
20
0
30
0
70
8
0
VERTEX
8
0
62
5
10
0.089121409
20
0.72720726
30
0
70
32
0
VERTEX
8
0
62
5
10
0.089121409
20
0.74933847
30
0
70
32
0
SEQEND
8
0
0
POLYLINE
8
0
62
5
66
1
10
0
20
0
30
0
70
8
0
VERTEX
8
0
62
5
10
0.11740568
20
0.72720726
30
0
70
32
0
VERTEX
8
0
62
5
10
0.11740568
20
0.74933847
30
0
70
32
0
SEQEND
8
0
0
POLYLINE
8
0
62
5
66
1
10
0
20
0
30
0
70
8
0
VERTEX
8
0
62
5
10
0.060837138
20
0.77146968
30
0
70
32
0
VERTEX
8
0
62
5
10
0.060837138
20
0.79360089
30
0
70
32
0
SEQEND
8
0
0
POLYLINE
8
0
62
5
66
1
10
0
20
0
30
0
70
8
0
VERTEX
8
0
62
5
10
0.089121409
20
0.77146968
30
0
70
32
0
VERTEX
8
0
62
5
10
0.089121409
20
0.79360089
30
0
70
32
0
SEQEND
8
0
0
POLYLINE
8
0
62
5
66
1
10
0
20
0
30
0
70
8
0
VERTEX
8
0
62
5
10
0.11740568
20
0.77146968
30
0
70
32
0
VERTEX
8
0
62
5
10
0.11740568
20
0.79360089
30
0
70
32
0
SEQEND
8
0
0
POLYLINE
8
0
62
30
66
1
10
0
20
0
30
0
70
8
0
VERTEX
8
0
62
30
10
0.032552866
20
0.71974568
30
0
70
32
0
VERTEX
8
0
62
30
10
0.040595819
20
0.72720726
30
0
70
32
0
VERTEX
8
0
62
30
10
0.032552866
20
0.73466884
30
0
70
32
0
SEQEND
8
0
0
POLYLINE
8
0
62
30
66
1
10
0
20
0
30
0
70
8
0
VERTEX
8
0
62
30
10
0.060837138
20
0.70558326
30
0
70
32
0
VERTEX
8
0
62
30
10
0.072370803
20
0.72720726
30
0
70
32
0
VERTEX
8
0
62
30
10
0.060837138
20
0.74883126
30
0
70
32
0
SEQEND
8
0
0
POLYLINE
8
0
62
30
66
1
10
0
20
0
30
0
70
8
0
VERTEX
8
0
62
30
10
0.089121409
20
0.71304485
30
0
70
32
0
VERTEX
8
0
62
30
10
0.099159285
20
0.72720726
30
0
70
32
0
VERTEX
8
0
62
30
10
0.089121409
20
0.74136967
30
0
70
32
0
SEQEND
8
0
0
POLYLINE
8
0
62
30
66
1
10
0
20
0
30
0
70
8
0
VERTEX
8
0
62
30
10
0.11740568
20
0.72720726
30
0
70
32
0
VERTEX
8
0
62
30
10
0.11740568
20
0.72720726
30
0
70
32
0
VERTEX
8
0
62
30
10
0.11740568
20
0.72720726
30
0
70
32
0
SEQEND
8
0
0
POLYLINE
8
0
62
30
66
1
10
0
20
0
30
0
70
8
0
VERTEX
8
0
62
30
10
0.032552866
20
0.7640081
30
0
70
32
0
VERTEX
8
0
62
30
10
0.040595819
20
0.77146968
30
0
70
32
0
VERTEX
8
0
62
30
10
0.032552866
20
0.77893127
30
0
70
32
0
SEQEND
8
0
0
POLYLINE
8
0
62
30
66
1
10
0
20
0
30
0
70
8
0
VERTEX
8
0
62
30
10
0.060837138
20
0.74984569
30
0
70
32
0
VERTEX
8
0
62
30
10
0.072370803
20
0.77146968
30
0
70
32
0
VERTEX
8
0
62
30
10
0.060837138
20
0.79309368
30
0
70
32
0
SEQEND
8
0
0
POLYLINE
8
0
62
30
66
1
10
0
20
0
30
0
70
8
0
VERTEX
8
0
62
30
10
0.089121409
20
0.75730727
30
0
70
32
0
VERTEX
8
0
62
30
10
0.099159285
20
0.77146968
30
0
70
32
0
VERTEX
8
0
62
30
10
0.089121409
20
0.7856321
30
0
70
32
0
SEQEND
8
0
0
POLYLINE
8
0
62
30
66
1
10
0
20
0
30
0
70
8
0
VERTEX
8
0
62
30
10
0.11740568
20
0.77146968
30
0
70
32
0
VERTEX
8
0
62
30
10
0.11740568
20
0.77146968
30
0
70
32
0
VERTEX
8
0
62
30
10
0.11740568
20
0.77146968
30
0
70
32
0
SEQEND
8
0
0
POLYLINE
8
0
62
5
66
1
10
0
20
0
30
0
70
8
0
VERTEX
8
0
62
5
10
0.25882704
20
0.79360089
30
0
70
32
0
VERTEX
8
0
62
5
10
0.25882704
20
0.70507605
30
0
70
32
0
SEQEND
8
0
0
POLYLINE
8
0
62
5
66
1
10
0
20
0
30
0
70
8
0
VERTEX
8
0
62
5
10
0.14568995
20
0.71974568
30
0
70
32
0
VERTEX
8
0
62
5
10
0.17397422
20
0.70558326
30
0
70
32
0
VERTEX
8
0
62
5
10
0.20225849
20
0.71304485
30
0
70
32
0
VERTEX
8
0
62
5
10
0.23054277
20
0.72720726
30
0
70
32
0
VERTEX
8
0
62
5
10
0.25882704
20
0.71974568
30
0
70
32
0
SEQEND
8
0
0
POLYLINE
8
0
62
5
66
1
10
0
20
0
30
0
70
8
0
VERTEX
8
0
62
5
10
0.14568995
20
0.7640081
30
0
70
32
0
VERTEX
8
0
62
5
10
0.17397422
20
0.74984569
30
0
70
32
0
VERTEX
8
0
62
5
10
0.20225849
20
0.75730727
30
0
70
32
0
VERTEX
8
0
62
5
10
0.23054277
20
0.77146968
30
0
70
32
0
VERTEX
8
0
62
5
10
0.25882704
20
0.7640081
30
0
70
32
0
SEQEND
8
0
0
POLYLINE
8
0
62
5
66
1
10
0
20
0
30
0
70
8
0
VERTEX
8
0
62
5
10
0.14568995
20
0.73466884
30
0
70
32
0
VERTEX
8
0
62
5
10
0.17397422
20
0.74883126
30
0
70
32
0
VERTEX
8
0
62
5
10
0.20225849
20
0.74136967
30
0
70
32
0
VERTEX
8
0
62
5
10
0.23054277
20
0.72720726
30
0
70
32
0
VERTEX
8
0
62
5
10
0.25882704
20
0.73466884
30
0
70
32
0
SEQEND
8
0
0
POLYLINE
8
0
62
5
66
1
10
0
20
0
30
0
70
8
0
VERTEX
8
0
62
5
10
0.14568995
20
0.77893127
30
0
70
32
0
VERTEX
8
0
62
5
10
0.17397422
20
0.79309368
30
0
70
32
0
VERTEX
8
0
62
5
10
0.20225849
20
0.7856321
30
0
70
32
0
VERTEX
8
0
62
5
10
0.23054277
20
0.77146968
30
0
70
32
0
VERTEX
8
0
62
5
10
0.25882704
20
0.77893127
30
0
70
32
0
SEQEND
8
0
0
POLYLINE
8
0
62
30
66
1
10
0
20
0
30
0
70
8
0
VERTEX
8
0
62
30
10
0.14568995
20
0.72720726
30
0
70
32
0
VERTEX
8
0
62
30
10
0.25882704
20
0.72720726
30
0
70
32
0
SEQEND
8
0
0
POLYLINE
8
0
62
30
66
1
10
0
20
0
30
0
70
8
0
VERTEX
8
0
62
30
10
0.14568995
20
0.77146968
30
0
70
32
0
VERTEX
8
0
62
30
10
0.25882704
20
0.77146968
30
0
70
32
0
SEQEND
8
0
0
POLYLINE
8
0
62
30
66
1
10
0
20
0
30
0
70
8
0
VERTEX
8
0
62
30
10
0.17397422
20
0.70558326
30
0
70
32
0
VERTEX
8
0
62
30
10
0.17397422
20
0.72720726
30
0
70
32
0
SEQEND
8
0
0
POLYLINE
8
0
62
30
66
1
10
0
20
0
30
0
70
8
0
VERTEX
8
0
62
30
10
0.20225849
20
0.71304485
30
0
70
32
0
VERTEX
8
0
62
30
10
0.20225849
20
0.72720726
30
0
70
32
0
SEQEND
8
0
0
POLYLINE
8
0
62
30
66
1
10
0
20
0
30
0
70
8
0
VERTEX
8
0
62
30
10
0.23054277
20
0.72720726
30
0
70
32
0
VERTEX
8
0
62
30
10
0.23054277
20
0.72720726
30
0
70
32
0
SEQEND
8
0
0
POLYLINE
8
0
62
30
66
1
10
0
20
0
30
0
70
8
0
VERTEX
8
0
62
30
10
0.17397422
20
0.74984569
30
0
70
32
0
VERTEX
8
0
62
30
10
0.17397422
20
0.77146968
30
0
70
32
0
SEQEND
8
0
0
POLYLINE
8
0
62
30
66
1
10
0
20
0
30
0
70
8
0
VERTEX
8
0
62
30
10
0.20225849
20
0.75730727
30
0
70
32
0
VERTEX
8
0
62
30
10
0.20225849
20
0.77146968
30
0
70
32
0
SEQEND
8
0
0
POLYLINE
8
0
62
30
66
1
10
0
20
0
30
0
70
8
0
VERTEX
8
0
62
30
10
0.23054277
20
0.77146968
30
0
70
32
0
VERTEX
8
0
62
30
10
0.23054277
20
0.77146968
30
0
70
32
0
SEQEND
8
0
0
POLYLINE
8
0
62
5
66
1
10
0
20
0
30
0
70
8
0
VERTEX
8
0
62
5
10
0.17397422
20
0.70507605
30
0
70
32
0
VERTEX
8
0
62
5
10
0.17397422
20
0.70558326
30
0
70
32
0
SEQEND
8
0
0
POLYLINE
8
0
62
5
66
1
10
0
20
0
30
0
70
8
0
VERTEX
8
0
62
5
10
0.20225849
20
0.70507605
30
0
70
32
0
VERTEX
8
0
62
5
10
0.20225849
20
0.71304485
30
0
70
32
0
SEQEND
8
0
0
POLYLINE
8
0
62
5
66
1
10
0
20
0
30
0
70
8
0
VERTEX
8
0
62
5
10
0.23054277
20
0.70507605
30
0
70
32
0
VERTEX
8
0
62
5
10
0.23054277
20
0.72720726
30
0
70
32
0
SEQEND
8
0
0
POLYLINE
8
0
62
5
66
1
10
0
20
0
30
0
70
8
0
VERTEX
8
0
62
5
10
0.17397422
20
0.74933847
30
0
70
32
0
VERTEX
8
0
62
5
10
0.17397422
20
0.74984569
30
0
70
32
0
SEQEND
8
0
0
POLYLINE
8
0
62
5
66
1
10
0
20
0
30
0
70
8
0
VERTEX
8
0
62
5
10
0.20225849
20
0.74933847
30
0
70
32
0
VERTEX
8
0
62
5
10
0.20225849
20
0.75730727
30
0
70
32
0
SEQEND
8
0
0
POLYLINE
8
0
62
5
66
1
10
0
20
0
30
0
70
8
0
VERTEX
8
0
62
5
10
0.23054277
20
0.74933847
30
0
70
32
0
VERTEX
8
0
62
5
10
0.23054277
20
0.77146968
30
0
70
32
0
SEQEND
8
0
0
POLYLINE
8
0
62
5
66
1
10
0
20
0
30
0
70
8
0
VERTEX
8
0
62
5
10
0.17397422
20
0.72720726
30
0
70
32
0
VERTEX
8
0
62
5
10
0.17397422
20
0.74933847
30
0
70
32
0
SEQEND
8
0
0
POLYLINE
8
0
62
5
66
1
10
0
20
0
30
0
70
8
0
VERTEX
8
0
62
5
10
0.20225849
20
0.72720726
30
0
70
32
0
VERTEX
8
0
62
5
10
0.20225849
20
0.74933847
30
0
70
32
0
SEQEND
8
0
0
POLYLINE
8
0
62
5
66
1
10
0
20
0
30
0
70
8
0
VERTEX
8
0
62
5
10
0.23054277
20
0.72720726
30
0
70
32
0
VERTEX
8
0
62
5
10
0.23054277
20
0.74933847
30
0
70
32
0
SEQEND
8
0
0
POLYLINE
8
0
62
5
66
1
10
0
20
0
30
0
70
8
0
VERTEX
8
0
62
5
10
0.17397422
20
0.77146968
30
0
70
32
0
VERTEX
8
0
62
5
10
0.17397422
20
0.79360089
30
0
70
32
0
SEQEND
8
0
0
POLYLINE
8
0
62
5
66
1
10
0
20
0
30
0
70
8
0
VERTEX
8
0
62
5
10
0.20225849
20
0.77146968
30
0
70
32
0
VERTEX
8
0
62
5
10
0.20225849
20
0.79360089
30
0
70
32
0
SEQEND
8
0
0
POLYLINE
8
0
62
5
66
1
10
0
20
0
30
0
70
8
0
VERTEX
8
0
62
5
10
0.23054277
20
0.77146968
30
0
70
32
0
VERTEX
8
0
62
5
10
0.23054277
20
0.79360089
30
0
70
32
0
SEQEND
8
0
0
POLYLINE
8
0
62
30
66
1
10
0
20
0
30
0
70
8
0
VERTEX
8
0
62
30
10
0.14568995
20
0.71974568
30
0
70
32
0
VERTEX
8
0
62
30
10
0.1537329
20
0.72720726
30
0
70
32
0
VERTEX
8
0
62
30
10
0.14568995
20
0.73466884
30
0
70
32
0
SEQEND
8
0
0
POLYLINE
8
0
62
30
66
1
10
0
20
0
30
0
70
8
0
VERTEX
8
0
62
30
10
0.17397422
20
0.70558326
30
0
70
32
0
VERTEX
8
0
62
30
10
0.18550789
20
0.72720726
30
0
70
32
0
VERTEX
8
0
62
30
10
0.17397422
20
0.74883126
30
0
70
32
0
SEQEND
8
0
0
POLYLINE
8
0
62
30
66
1
10
0
20
0
30
0
70
8
0
VERTEX
8
0
62
30
10
0.20225849
20
0.71304485
30
0
70
32
0
VERTEX
8
0
62
30
10
0.21229637
20
0.72720726
30
0
70
32
0
VERTEX
8
0
62
30
10
0.20225849
20
0.74136967
30
0
70
32
0
SEQEND
8
0
0
POLYLINE
8
0
62
30
66
1
10
0
20
0
30
0
70
8
0
VERTEX
8
0
62
30
10
0.23054277
20
0.72720726
30
0
70
32
0
VERTEX
8
0
62
30
10
0.23054277
20
0.72720726
30
0
70
32
0
VERTEX
8
0
62
30
10
0.23054277
20
0.72720726
30
0
70
32
0
SEQEND
8
0
0
POLYLINE
8
0
62
30
66
1
10
0
20
0
30
0
70
8
0
VERTEX
8
0
62
30
10
0.14568995
20
0.7640081
30
0
70
32
0
VERTEX
8
0
62
30
10
0.1537329
20
0.77146968
30
0
70
32
0
VERTEX
8
0
62
30
10
0.14568995
20
0.77893127
30
0
70
32
0
SEQEND
8
0
0
POLYLINE
8
0
62
30
66
1
10
0
20
0
30
0
70
8
0
VERTEX
8
0
62
30
10
0.17397422
20
0.74984569
30
0
70
32
0
VERTEX
8
0
62
30
10
0.18550789
20
0.77146968
30
0
70
32
0
VERTEX
8
0
62
30
10
0.17397422
20
0.79309368
30
0
70
32
0
SEQEND
8
0
0
POLYLINE
8
0
62
30
66
1
10
0
20
0
30
0
70
8
0
VERTEX
8
0
62
30
10
0.20225849
20
0.75730727
30
0
70
32
0
VERTEX
8
0
62
30
10
0.21229637
20
0.77146968
30
0
70
32
0
VERTEX
8
0
62
30
10
0.20225849
20
0.7856321
30
0
70
32
0
SEQEND
8
0
0
POLYLINE
8
0
62
30
66
1
10
0
20
0
30
0
70
8
0
VERTEX
8
0
62
30
10
0.23054277
20
0.77146968
30
0
70
32
0
VERTEX
8
0
62
30
10
0.23054277
20
0.77146968
30
0
70
32
0
VERTEX
8
0
62
30
10
0.23054277
20
0.77146968
30
0
70
32
0
SEQEND
8
0
0
POLYLINE
8
0
62
5
66
1
10
0
20
0
30
0
70
8
0
VERTEX
8
0
62
5
10
-0.080584219
20
0.70507605
30
0
70
32
0
VERTEX
8
0
62
5
10
-0.080584219
20
0.79360089
30
0
70
32
0
SEQEND
8
0
0
POLYLINE
8
0
62
5
66
1
10
0
20
0
30
0
70
8
0
VERTEX
8
0
62
5
10
-0.080584219
20
0.71974568
30
0
70
32
0
VERTEX
8
0
62
5
10
-0.052299947
20
0.70558326
30
0
70
32
0
VERTEX
8
0
62
5
10
-0.024015676
20
0.71304485
30
0
70
32
0
VERTEX
8
0
62
5
10
0.0042685952
20
0.72720726
30
0
70
32
0
VERTEX
8
0
62
5
10
0.032552866
20
0.71974568
30
0
70
32
0
SEQEND
8
0
0
POLYLINE
8
0
62
5
66
1
10
0
20
0
30
0
70
8
0
VERTEX
8
0
62
5
10
-0.080584219
20
0.7640081
30
0
70
32
0
VERTEX
8
0
62
5
10
-0.052299947
20
0.74984569
30
0
70
32
0
VERTEX
8
0
62
5
10
-0.024015676
20
0.75730727
30
0
70
32
0
VERTEX
8
0
62
5
10
0.0042685952
20
0.77146968
30
0
70
32
0
VERTEX
8
0
62
5
10
0.032552866
20
0.7640081
30
0
70
32
0
SEQEND
8
0
0
POLYLINE
8
0
62
5
66
1
10
0
20
0
30
0
70
8
0
VERTEX
8
0
62
5
10
-0.080584219
20
0.73466884
30
0
70
32
0
VERTEX
8
0
62
5
10
-0.052299947
20
0.74883126
30
0
70
32
0
VERTEX
8
0
62
5
10
-0.024015676
20
0.74136967
30
0
70
32
0
VERTEX
8
0
62
5
10
0.0042685952
20
0.72720726
30
0
70
32
0
VERTEX
8
0
62
5
10
0.032552866
20
0.73466884
30
0
70
32
0
SEQEND
8
0
0
POLYLINE
8
0
62
5
66
1
10
0
20
0
30
0
70
8
0
VERTEX
8
0
62
5
10
-0.080584219
20
0.77893127
30
0
70
32
0
VERTEX
8
0
62
5
10
-0.052299947
20
0.79309368
30
0
70
32
0
VERTEX
8
0
62
5
10
-0.024015676
20
0.7856321
30
0
70
32
0
VERTEX
8
0
62
5
10
0.0042685952
20
0.77146968
30
0
70
32
0
VERTEX
8
0
62
5
10
0.032552866
20
0.77893127
30
0
70
32
0
SEQEND
8
0
0
POLYLINE
8
0
62
30
66
1
10
0
20
0
30
0
70
8
0
VERTEX
8
0
62
30
10
-0.080584219
20
0.72720726
30
0
70
32
0
VERTEX
8
0
62
30
10
0.032552866
20
0.72720726
30
0
70
32
0
SEQEND
8
0
0
POLYLINE
8
0
62
30
66
1
10
0
20
0
30
0
70
8
0
VERTEX
8
0
62
30
10
-0.080584219
20
0.77146968
30
0
70
32
0
VERTEX
8
0
62
30
10
0.032552866
20
0.77146968
30
0
70
32
0
SEQEND
8
0
0
POLYLINE
8
0
62
30
66
1
10
0
20
0
30
0
70
8
0
VERTEX
8
0
62
30
10
-0.052299947
20
0.70558326
30
0
70
32
0
VERTEX
8
0
62
30
10
-0.052299947
20
0.72720726
30
0
70
32
0
SEQEND
8
0
0
POLYLINE
8
0
62
30
66
1
10
0
20
0
30
0
70
8
0
VERTEX
8
0
62
30
10
-0.024015676
20
0.71304485
30
0
70
32
0
VERTEX
8
0
62
30
10
-0.024015676
20
0.72720726
30
0
70
32
0
SEQEND
8
0
0
POLYLINE
8
0
62
30
66
1
10
0
20
0
30
0
70
8
0
VERTEX
8
0
62
30
10
0.0042685952
20
0.72720726
30
0
70
32
0
VERTEX
8
0
62
30
10
0.0042685952
20
0.72720726
30
0
70
32
0
SEQEND
8
0
0
POLYLINE
8
0
62
30
66
1
10
0
20
0
30
0
70
8
0
VERTEX
8
0
62
30
10
-0.052299947
20
0.74984569
30
0
70
32
0
VERTEX
8
0
62
30
10
-0.052299947
20
0.77146968
30
0
70
32
0
SEQEND
8
0
0
POLYLINE
8
0
62
30
66
1
10
0
20
0
30
0
70
8
0
VERTEX
8
0
62
30
10
-0.024015676
20
0.75730727
30
0
70
32
0
VERTEX
8
0
62
30
10
-0.024015676
20
0.77146968
30
0
70
32
0
SEQEND
8
0
0
POLYLINE
8
0
62
30
66
1
10
0
20
0
30
0
70
8
0
VERTEX
8
0
62
30
10
0.0042685952
20
0.77146968
30
0
70
32
0
VERTEX
8
0
62
30
10
0.0042685952
20
0.77146968
30
0
70
32
0
SEQEND
8
0
0
POLYLINE
8
0
62
5
66
1
10
0
20
0
30
0
70
8
0
VERTEX
8
0
62
5
10
-0.052299947
20
0.70507605
30
0
70
32
0
VERTEX
8
0
62
5
10
-0.052299947
20
0.70558326
30
0
70
32
0
SEQEND
8
0
0
POLYLINE
8
0
62
5
66
1
10
0
20
0
30
0
70
8
0
VERTEX
8
0
62
5
10
-0.024015676
20
0.70507605
30
0
70
32
0
VERTEX
8
0
62
5
10
-0.024015676
20
0.71304485
30
0
70
32
0
SEQEND
8
0
0
POLYLINE
8
0
62
5
66
1
10
0
20
0
30
0
70
8
0
VERTEX
8
0
62
5
10
0.0042685952
20
0.70507605
30
0
70
32
0
VERTEX
8
0
62
5
10
0.0042685952
20
0.72720726
30
0
70
32
0
SEQEND
8
0
0
POLYLINE
8
0
62
5
66
1
10
0
20
0
30
0
70
8
0
VERTEX
8
0
62
5
10
-0.052299947
20
0.74933847
30
0
70
32
0
VERTEX
8
0
62
5
10
-0.052299947
20
0.74984569
30
0
70
32
0
SEQEND
8
0
0
POLYLINE
8
0
62
5
66
1
10
0
20
0
30
0
70
8
0
VERTEX
8
0
62
5
10
-0.024015676
20
0.74933847
30
0
70
32
0
VERTEX
8
0
62
5
10
-0.024015676
20
0.75730727
30
0
70
32
0
SEQEND
8
0
0
POLYLINE
8
0
62
5
66
1
10
0
20
0
30
0
70
8
0
VERTEX
8
0
62
5
10
0.0042685952
20
0.74933847
30
0
70
32
0
VERTEX
8
0
62
5
10
0.0042685952
20
0.77146968
30
0
70
32
0
SEQEND
8
0
0
POLYLINE
8
0
62
5
66
1
10
0
20
0
30
0
70
8
0
VERTEX
8
0
62
5
10
-0.052299947
20
0.72720726
30
0
70
32
0
VERTEX
8
0
62
5
10
-0.052299947
20
0.74933847
30
0
70
32
0
SEQEND
8
0
0
POLYLINE
8
0
62
5
66
1
10
0
20
0
30
0
70
8
0
VERTEX
8
0
62
5
10
-0.024015676
20
0.72720726
30
0
70
32
0
VERTEX
8
0
62
5
10
-0.024015676
20
0.74933847
30
0
70
32
0
SEQEND
8
0
0
POLYLINE
8
0
62
5
66
1
10
0
20
0
30
0
70
8
0
VERTEX
8
0
62
5
10
0.0042685952
20
0.72720726
30
0
70
32
0
VERTEX
8
0
62
5
10
0.0042685952
20
0.74933847
30
0
70
32
0
SEQEND
8
0
0
POLYLINE
8
0
62
5
66
1
10
0
20
0
30
0
70
8
0
VERTEX
8
0
62
5
10
-0.052299947
20
0.77146968
30
0
70
32
0
VERTEX
8
0
62
5
10
-0.052299947
20
0.79360089
30
0
70
32
0
SEQEND
8
0
0
POLYLINE
8
0
62
5
66
1
10
0
20
0
30
0
70
8
0
VERTEX
8
0
62
5
10
-0.024015676
20
0.77146968
30
0
70
32
0
VERTEX
8
0
62
5
10
-0.024015676
20
0.79360089
30
0
70
32
0
SEQEND
8
0
0
POLYLINE
8
0
62
5
66
1
10
0
20
0
30
0
70
8
0
VERTEX
8
0
62
5
10
0.0042685952
20
0.77146968
30
0
70
32
0
VERTEX
8
0
62
5
10
0.0042685952
20
0.79360089
30
0
70
32
0
SEQEND
8
0
0
POLYLINE
8
0
62
30
66
1
10
0
20
0
30
0
70
8
0
VERTEX
8
0
62
30
10
-0.080584219
20
0.71974568
30
0
70
32
0
VERTEX
8
0
62
30
10
-0.072541266
20
0.72720726
30
0
70
32
0
VERTEX
8
0
62
30
10
-0.080584219
20
0.73466884
30
0
70
32
0
SEQEND
8
0
0
POLYLINE
8
0
62
30
66
1
10
0
20
0
30
0
70
8
0
VERTEX
8
0
62
30
10
-0.052299947
20
0.70558326
30
0
70
32
0
VERTEX
8
0
62
30
10
-0.040766282
20
0.72720726
30
0
70
32
0
VERTEX
8
0
62
30
10
-0.052299947
20
0.74883126
30
0
70
32
0
SEQEND
8
0
0
POLYLINE
8
0
62
30
66
1
10
0
20
0
30
0
70
8
0
VERTEX
8
0
62
30
10
-0.024015676
20
0.71304485
30
0
70
32
0
VERTEX
8
0
62
30
10
-0.0139778
20
0.72720726
30
0
70
32
0
VERTEX
8
0
62
30
10
-0.024015676
20
0.74136967
30
0
70
32
0
SEQEND
8
0
0
POLYLINE
8
0
62
30
66
1
10
0
20
0
30
0
70
8
0
VERTEX
8
0
62
30
10
0.0042685952
20
0.72720726
30
0
70
32
0
VERTEX
8
0
62
30
10
0.0042685952
20
0.72720726
30
0
70
32
0
VERTEX
8
0
62
30
10
0.0042685952
20
0.72720726
30
0
70
32
0
SEQEND
8
0
0
POLYLINE
8
0
62
30
66
1
10
0
20
0
30
0
70
8
0
VERTEX
8
0
62
30
10
-0.080584219
20
0.7640081
30
0
70
32
0
VERTEX
8
0
62
30
10
-0.072541266
20
0.77146968
30
0
70
32
0
VERTEX
8
0
62
30
10
-0.080584219
20
0.77893127
30
0
70
32
0
SEQEND
8
0
0
POLYLINE
8
0
62
30
66
1
10
0
20
0
30
0
70
8
0
VERTEX
8
0
62
30
10
-0.052299947
20
0.74984569
30
0
70
32
0
VERTEX
8
0
62
30
10
-0.040766282
20
0.77146968
30
0
70
32
0
VERTEX
8
0
62
30
10
-0.052299947
20
0.79309368
30
0
70
32
0
SEQEND
8
0
0
POLYLINE
8
0
62
30
66
1
10
0
20
0
30
0
70
8
0
VERTEX
8
0
62
30
10
-0.024015676
20
0.75730727
30
0
70
32
0
VERTEX
8
0
62
30
10
-0.0139778
20
0.77146968
30
0
70
32
0
VERTEX
8
0
62
30
10
-0.024015676
20
0.7856321
30
0
70
32
0
SEQEND
8
0
0
POLYLINE
8
0
62
30
66
1
10
0
20
0
30
0
70
8
0
VERTEX
8
0
62
30
10
0.0042685952
20
0.77146968
30
0
70
32
0
VERTEX
8
0
62
30
10
0.0042685952
20
0.77146968
30
0
70
32
0
VERTEX
8
0
62
30
10
0.0042685952
20
0.77146968
30
0
70
32
0
SEQEND
8
0
0
POLYLINE
8
0
62
30
66
1
10
0
20
0
30
0
70
8
0
VERTEX
8
0
62
30
10
0.032552866
20
0.80693625
30
0
70
32
0
VERTEX
8
0
62
30
10
0.14568995
20
0.80693625
30
0
70
32
0
SEQEND
8
0
0
POLYLINE
8
0
62
30
66
1
10
0
20
0
30
0
70
8
0
VERTEX
8
0
62
30
10
0.032552866
20
0.79360089
30
0
70
32
0
VERTEX
8
0
62
30
10
0.14568995
20
0.79360089
30
0
70
32
0
SEQEND
8
0
0
POLYLINE
8
0
62
5
66
1
10
0
20
0
30
0
70
8
0
VERTEX
8
0
62
5
10
0.032552866
20
0.79360089
30
0
70
32
0
VERTEX
8
0
62
5
10
0.050220026
20
0.80693625
30
0
70
32
0
VERTEX
8
0
62
5
10
0.060837138
20
0.79360089
30
0
70
32
0
VERTEX
8
0
62
5
10
0.078504298
20
0.80693625
30
0
70
32
0
VERTEX
8
0
62
5
10
0.089121409
20
0.79360089
30
0
70
32
0
VERTEX
8
0
62
5
10
0.10678857
20
0.80693625
30
0
70
32
0
VERTEX
8
0
62
5
10
0.11740568
20
0.79360089
30
0
70
32
0
VERTEX
8
0
62
5
10
0.13507284
20
0.80693625
30
0
70
32
0
VERTEX
8
0
62
5
10
0.14568995
20
0.79360089
30
0
70
32
0
SEQEND
8
0
0
POLYLINE
8
0
62
5
66
1
10
0
20
0
30
0
70
8
0
VERTEX
8
0
62
5
10
0.060837138
20
0.79360089
30
0
70
32
0
VERTEX
8
0
62
5
10
0.060837138
20
0.79360089
30
0
70
32
0
SEQEND
8
0
0
POLYLINE
8
0
62
5
66
1
10
0
20
0
30
0
70
8
0
VERTEX
8
0
62
5
10
0.089121409
20
0.79360089
30
0
70
32
0
VERTEX
8
0
62
5
10
0.089121409
20
0.79360089
30
0
70
32
0
SEQEND
8
0
0
POLYLINE
8
0
62
5
66
1
10
0
20
0
30
0
70
8
0
VERTEX
8
0
62
5
10
0.11740568
20
0.79360089
30
0
70
32
0
VERTEX
8
0
62
5
10
0.11740568
20
0.79360089
30
0
70
32
0
SEQEND
8
0
0
POLYLINE
8
0
62
5
66
1
10
0
20
0
30
0
70
8
0
VERTEX
8
0
62
5
10
0.050220026
20
0.80693625
30
0
70
32
0
VERTEX
8
0
62
5
10
0.050220026
20
0.80693625
30
0
70
32
0
SEQEND
8
0
0
POLYLINE
8
0
62
5
66
1
10
0
20
0
30
0
70
8
0
VERTEX
8
0
62
5
10
0.078504298
20
0.80693625
30
0
70
32
0
VERTEX
8
0
62
5
10
0.078504298
20
0.80693625
30
0
70
32
0
SEQEND
8
0
0
POLYLINE
8
0
62
5
66
1
10
0
20
0
30
0
70
8
0
VERTEX
8
0
62
5
10
0.10678857
20
0.80693625
30
0
70
32
0
VERTEX
8
0
62
5
10
0.10678857
20
0.80693625
30
0
70
32
0
SEQEND
8
0
0
POLYLINE
8
0
62
5
66
1
10
0
20
0
30
0
70
8
0
VERTEX
8
0
62
5
10
0.13507284
20
0.80693625
30
0
70
32
0
VERTEX
8
0
62
5
10
0.13507284
20
0.80693625
30
0
70
32
0
SEQEND
8
0
0
POLYLINE
8
0
62
30
66
1
10
0
20
0
30
0
70
8
0
VERTEX
8
0
62
30
10
0.14568995
20
0.80693625
30
0
70
32
0
VERTEX
8
0
62
30
10
0.25882704
20
0.80693625
30
0
70
32
0
SEQEND
8
0
0
POLYLINE
8
0
62
30
66
1
10
0
20
0
30
0
70
8
0
VERTEX
8
0
62
30
10
0.14568995
20
0.79360089
30
0
70
32
0
VERTEX
8
0
62
30
10
0.25882704
20
0.79360089
30
0
70
32
0
SEQEND
8
0
0
POLYLINE
8
0
62
5
66
1
10
0
20
0
30
0
70
8
0
VERTEX
8
0
62
5
10
0.14568995
20
0.79360089
30
0
70
32
0
VERTEX
8
0
62
5
10
0.16335711
20
0.80693625
30
0
70
32
0
VERTEX
8
0
62
5
10
0.17397422
20
0.79360089
30
0
70
32
0
VERTEX
8
0
62
5
10
0.19164138
20
0.80693625
30
0
70
32
0
VERTEX
8
0
62
5
10
0.20225849
20
0.79360089
30
0
70
32
0
VERTEX
8
0
62
5
10
0.21992565
20
0.80693625
30
0
70
32
0
VERTEX
8
0
62
5
10
0.23054277
20
0.79360089
30
0
70
32
0
VERTEX
8
0
62
5
10
0.24820993
20
0.80693625
30
0
70
32
0
VERTEX
8
0
62
5
10
0.25882704
20
0.79360089
30
0
70
32
0
SEQEND
8
0
0
POLYLINE
8
0
62
5
66
1
10
0
20
0
30
0
70
8
0
VERTEX
8
0
62
5
10
0.17397422
20
0.79360089
30
0
70
32
0
VERTEX
8
0
62
5
10
0.17397422
20
0.79360089
30
0
70
32
0
SEQEND
8
0
0
POLYLINE
8
0
62
5
66
1
10
0
20
0
30
0
70
8
0
VERTEX
8
0
62
5
10
0.20225849
20
0.79360089
30
0
70
32
0
VERTEX
8
0
62
5
10
0.20225849
20
0.79360089
30
0
70
32
0
SEQEND
8
0
0
POLYLINE
8
0
62
5
66
1
10
0
20
0
30
0
70
8
0
VERTEX
8
0
62
5
10
0.23054277
20
0.79360089
30
0
70
32
0
VERTEX
8
0
62
5
10
0.23054277
20
0.79360089
30
0
70
32
0
SEQEND
8
0
0
POLYLINE
8
0
62
5
66
1
10
0
20
0
30
0
70
8
0
VERTEX
8
0
62
5
10
0.16335711
20
0.80693625
30
0
70
32
0
VERTEX
8
0
62
5
10
0.16335711
20
0.80693625
30
0
70
32
0
SEQEND
8
0
0
POLYLINE
8
0
62
5
66
1
10
0
20
0
30
0
70
8
0
VERTEX
8
0
62
5
10
0.19164138
20
0.80693625
30
0
70
32
0
VERTEX
8
0
62
5
10
0.19164138
20
0.80693625
30
0
70
32
0
SEQEND
8
0
0
POLYLINE
8
0
62
5
66
1
10
0
20
0
30
0
70
8
0
VERTEX
8
0
62
5
10
0.21992565
20
0.80693625
30
0
70
32
0
VERTEX
8
0
62
5
10
0.21992565
20
0.80693625
30
0
70
32
0
SEQEND
8
0
0
POLYLINE
8
0
62
5
66
1
10
0
20
0
30
0
70
8
0
VERTEX
8
0
62
5
10
0.24820993
20
0.80693625
30
0
70
32
0
VERTEX
8
0
62
5
10
0.24820993
20
0.80693625
30
0
70
32
0
SEQEND
8
0
0
POLYLINE
8
0
62
30
66
1
10
0
20
0
30
0
70
8
0
VERTEX
8
0
62
30
10
-0.080584219
20
0.80693625
30
0
70
32
0
VERTEX
8
0
62
30
10
0.032552866
20
0.80693625
30
0
70
32
0
SEQEND
8
0
0
POLYLINE
8
0
62
30
66
1
10
0
20
0
30
0
70
8
0
VERTEX
8
0
62
30
10
-0.080584219
20
0.79360089
30
0
70
32
0
VERTEX
8
0
62
30
10
0.032552866
20
0.79360089
30
0
70
32
0
SEQEND
8
0
0
POLYLINE
8
0
62
5
66
1
10
0
20
0
30
0
70
8
0
VERTEX
8
0
62
5
10
-0.080584219
20
0.79360089
30
0
70
32
0
VERTEX
8
0
62
5
10
-0.062917059
20
0.80693625
30
0
70
32
0
VERTEX
8
0
62
5
10
-0.052299947
20
0.79360089
30
0
70
32
0
VERTEX
8
0
62
5
10
-0.034632787
20
0.80693625
30
0
70
32
0
VERTEX
8
0
62
5
10
-0.024015676
20
0.79360089
30
0
70
32
0
VERTEX
8
0
62
5
10
-0.0063485162
20
0.80693625
30
0
70
32
0
VERTEX
8
0
62
5
10
0.0042685952
20
0.79360089
30
0
70
32
0
VERTEX
8
0
62
5
10
0.021935755
20
0.80693625
30
0
70
32
0
VERTEX
8
0
62
5
10
0.032552866
20
0.79360089
30
0
70
32
0
SEQEND
8
0
0
POLYLINE
8
0
62
5
66
1
10
0
20
0
30
0
70
8
0
VERTEX
8
0
62
5
10
-0.052299947
20
0.79360089
30
0
70
32
0
VERTEX
8
0
62
5
10
-0.052299947
20
0.79360089
30
0
70
32
0
SEQEND
8
0
0
POLYLINE
8
0
62
5
66
1
10
0
20
0
30
0
70
8
0
VERTEX
8
0
62
5
10
-0.024015676
20
0.79360089
30
0
70
32
0
VERTEX
8
0
62
5
10
-0.024015676
20
0.79360089
30
0
70
32
0
SEQEND
8
0
0
POLYLINE
8
0
62
5
66
1
10
0
20
0
30
0
70
8
0
VERTEX
8
0
62
5
10
0.0042685952
20
0.79360089
30
0
70
32
0
VERTEX
8
0
62
5
10
0.0042685952
20
0.79360089
30
0
70
32
0
SEQEND
8
0
0
POLYLINE
8
0
62
5
66
1
10
0
20
0
30
0
70
8
0
VERTEX
8
0
62
5
10
-0.062917059
20
0.80693625
30
0
70
32
0
VERTEX
8
0
62
5
10
-0.062917059
20
0.80693625
30
0
70
32
0
SEQEND
8
0
0
POLYLINE
8
0
62
5
66
1
10
0
20
0
30
0
70
8
0
VERTEX
8
0
62
5
10
-0.034632787
20
0.80693625
30
0
70
32
0
VERTEX
8
0
62
5
10
-0.034632787
20
0.80693625
30
0
70
32
0
SEQEND
8
0
0
POLYLINE
8
0
62
5
66
1
10
0
20
0
30
0
70
8
0
VERTEX
8
0
62
5
10
-0.0063485162
20
0.80693625
30
0
70
32
0
VERTEX
8
0
62
5
10
-0.0063485162
20
0.80693625
30
0
70
32
0
SEQEND
8
0
0
POLYLINE
8
0
62
5
66
1
10
0
20
0
30
0
70
8
0
VERTEX
8
0
62
5
10
0.021935755
20
0.80693625
30
0
70
32
0
VERTEX
8
0
62
5
10
0.021935755
20
0.80693625
30
0
70
32
0
SEQEND
8
0
0
POLYLINE
8
0
62
5
66
1
10
0
20
0
30
0
70
8
0
VERTEX
8
0
62
5
10
0.021935755
20
0.80693625
30
0
70
32
0
VERTEX
8
0
62
5
10
0.021935755
20
0.85544805
30
0
70
32
0
SEQEND
8
0
0
POLYLINE
8
0
62
5
66
1
10
0
20
0
30
0
70
8
0
VERTEX
8
0
62
5
10
0.13507284
20
0.80693625
30
0
70
32
0
VERTEX
8
0
62
5
10
0.13507284
20
0.85544805
30
0
70
32
0
SEQEND
8
0
0
POLYLINE
8
0
62
5
66
1
10
0
20
0
30
0
70
8
0
VERTEX
8
0
62
5
10
0.050220026
20
0.80693625
30
0
70
32
0
VERTEX
8
0
62
5
10
0.050220026
20
0.85544805
30
0
70
32
0
SEQEND
8
0
0
POLYLINE
8
0
62
5
66
1
10
0
20
0
30
0
70
8
0
VERTEX
8
0
62
5
10
0.078504298
20
0.80693625
30
0
70
32
0
VERTEX
8
0
62
5
10
0.078504298
20
0.85544805
30
0
70
32
0
SEQEND
8
0
0
POLYLINE
8
0
62
5
66
1
10
0
20
0
30
0
70
8
0
VERTEX
8
0
62
5
10
0.10678857
20
0.80693625
30
0
70
32
0
VERTEX
8
0
62
5
10
0.10678857
20
0.85544805
30
0
70
32
0
SEQEND
8
0
0
POLYLINE
8
0
62
5
66
1
10
0
20
0
30
0
70
8
0
VERTEX
8
0
62
5
10
0.24820993
20
0.80693625
30
0
70
32
0
VERTEX
8
0
62
5
10
0.24820993
20
0.85544805
30
0
70
32
0
SEQEND
8
0
0
POLYLINE
8
0
62
5
66
1
10
0
20
0
30
0
70
8
0
VERTEX
8
0
62
5
10
0.16335711
20
0.80693625
30
0
70
32
0
VERTEX
8
0
62
5
10
0.16335711
20
0.85544805
30
0
70
32
0
SEQEND
8
0
0
POLYLINE
8
0
62
5
66
1
10
0
20
0
30
0
70
8
0
VERTEX
8
0
62
5
10
0.19164138
20
0.80693625
30
0
70
32
0
VERTEX
8
0
62
5
10
0.19164138
20
0.85544805
30
0
70
32
0
SEQEND
8
0
0
POLYLINE
8
0
62
5
66
1
10
0
20
0
30
0
70
8
0
VERTEX
8
0
62
5
10
0.21992565
20
0.80693625
30
0
70
32
0
VERTEX
8
0
62
5
10
0.21992565
20
0.85544805
30
0
70
32
0
SEQEND
8
0
0
POLYLINE
8
0
62
5
66
1
10
0
20
0
30
0
70
8
0
VERTEX
8
0
62
5
10
-0.09120133
20
0.80693625
30
0
70
32
0
VERTEX
8
0
62
5
10
-0.09120133
20
0.85544805
30
0
70
32
0
SEQEND
8
0
0
POLYLINE
8
0
62
5
66
1
10
0
20
0
30
0
70
8
0
VERTEX
8
0
62
5
10
-0.062917059
20
0.80693625
30
0
70
32
0
VERTEX
8
0
62
5
10
-0.062917059
20
0.85544805
30
0
70
32
0
SEQEND
8
0
0
POLYLINE
8
0
62
5
66
1
10
0
20
0
30
0
70
8
0
VERTEX
8
0
62
5
10
-0.034632787
20
0.80693625
30
0
70
32
0
VERTEX
8
0
62
5
10
-0.034632787
20
0.85544805
30
0
70
32
0
SEQEND
8
0
0
POLYLINE
8
0
62
5
66
1
10
0
20
0
30
0
70
8
0
VERTEX
8
0
62
5
10
-0.0063485162
20
0.80693625
30
0
70
32
0
VERTEX
8
0
62
5
10
-0.0063485162
20
0.85544805
30
0
70
32
0
SEQEND
8
0
0
POLYLINE
8
0
62
5
66
1
10
0
20
0
30
0
70
8
0
VERTEX
8
0
62
5
10
0.021935755
20
0.85544805
30
0
70
32
0
VERTEX
8
0
62
5
10
0.021935755
20
0.88347565
30
0
70
32
0
SEQEND
8
0
0
POLYLINE
8
0
62
5
66
1
10
0
20
0
30
0
70
8
0
VERTEX
8
0
62
5
10
0.13507284
20
0.88347565
30
0
70
32
0
VERTEX
8
0
62
5
10
0.13507284
20
0.85544805
30
0
70
32
0
SEQEND
8
0
0
POLYLINE
8
0
62
5
66
1
10
0
20
0
30
0
70
8
0
VERTEX
8
0
62
5
10
0.021935755
20
0.86199782
30
0
70
32
0
VERTEX
8
0
62
5
10
0.050220026
20
0.86946185
30
0
70
32
0
VERTEX
8
0
62
5
10
0.078504298
20
0.8629275
30
0
70
32
0
VERTEX
8
0
62
5
10
0.10678857
20
0.85546347
30
0
70
32
0
VERTEX
8
0
62
5
10
0.13507284
20
0.86199782
30
0
70
32
0
SEQEND
8
0
0
POLYLINE
8
0
62
5
66
1
10
0
20
0
30
0
70
8
0
SEQEND
8
0
0
POLYLINE
8
0
62
5
66
1
10
0
20
0
30
0
70
8
0
VERTEX
8
0
62
5
10
0.021935755
20
0.87692588
30
0
70
32
0
VERTEX
8
0
62
5
10
0.050220026
20
0.86946185
30
0
70
32
0
VERTEX
8
0
62
5
10
0.078504298
20
0.8759962
30
0
70
32
0
VERTEX
8
0
62
5
10
0.10678857
20
0.88346023
30
0
70
32
0
VERTEX
8
0
62
5
10
0.13507284
20
0.87692588
30
0
70
32
0
SEQEND
8
0
0
POLYLINE
8
0
62
30
66
1
10
0
20
0
30
0
70
8
0
VERTEX
8
0
62
30
10
0.021935755
20
0.86946185
30
0
70
32
0
VERTEX
8
0
62
30
10
0.13507284
20
0.86946185
30
0
70
32
0
SEQEND
8
0
0
POLYLINE
8
0
62
30
66
1
10
0
20
0
30
0
70
8
0
VERTEX
8
0
62
30
10
0.050220026
20
0.86946185
30
0
70
32
0
VERTEX
8
0
62
30
10
0.050220026
20
0.86946185
30
0
70
32
0
SEQEND
8
0
0
POLYLINE
8
0
62
30
66
1
10
0
20
0
30
0
70
8
0
VERTEX
8
0
62
30
10
0.078504298
20
0.8629275
30
0
70
32
0
VERTEX
8
0
62
30
10
0.078504298
20
0.86946185
30
0
70
32
0
SEQEND
8
0
0
POLYLINE
8
0
62
30
66
1
10
0
20
0
30
0
70
8
0
VERTEX
8
0
62
30
10
0.10678857
20
0.85546347
30
0
70
32
0
VERTEX
8
0
62
30
10
0.10678857
20
0.86946185
30
0
70
32
0
SEQEND
8
0
0
POLYLINE
8
0
62
5
66
1
10
0
20
0
30
0
70
8
0
VERTEX
8
0
62
5
10
0.050220026
20
0.85544805
30
0
70
32
0
VERTEX
8
0
62
5
10
0.050220026
20
0.86946185
30
0
70
32
0
SEQEND
8
0
0
POLYLINE
8
0
62
5
66
1
10
0
20
0
30
0
70
8
0
VERTEX
8
0
62
5
10
0.078504298
20
0.85544805
30
0
70
32
0
VERTEX
8
0
62
5
10
0.078504298
20
0.8629275
30
0
70
32
0
SEQEND
8
0
0
POLYLINE
8
0
62
5
66
1
10
0
20
0
30
0
70
8
0
VERTEX
8
0
62
5
10
0.10678857
20
0.85544805
30
0
70
32
0
VERTEX
8
0
62
5
10
0.10678857
20
0.85546347
30
0
70
32
0
SEQEND
8
0
0
POLYLINE
8
0
62
5
66
1
10
0
20
0
30
0
70
8
0
VERTEX
8
0
62
5
10
0.050220026
20
0.86946185
30
0
70
32
0
VERTEX
8
0
62
5
10
0.050220026
20
0.88347565
30
0
70
32
0
SEQEND
8
0
0
POLYLINE
8
0
62
5
66
1
10
0
20
0
30
0
70
8
0
VERTEX
8
0
62
5
10
0.078504298
20
0.86946185
30
0
70
32
0
VERTEX
8
0
62
5
10
0.078504298
20
0.88347565
30
0
70
32
0
SEQEND
8
0
0
POLYLINE
8
0
62
5
66
1
10
0
20
0
30
0
70
8
0
VERTEX
8
0
62
5
10
0.10678857
20
0.86946185
30
0
70
32
0
VERTEX
8
0
62
5
10
0.10678857
20
0.88347565
30
0
70
32
0
SEQEND
8
0
0
POLYLINE
8
0
62
30
66
1
10
0
20
0
30
0
70
8
0
VERTEX
8
0
62
30
10
0.021935755
20
0.86199782
30
0
70
32
0
VERTEX
8
0
62
30
10
0.028767245
20
0.86946185
30
0
70
32
0
VERTEX
8
0
62
30
10
0.021935755
20
0.87692588
30
0
70
32
0
SEQEND
8
0
0
POLYLINE
8
0
62
30
66
1
10
0
20
0
30
0
70
8
0
VERTEX
8
0
62
30
10
0.050220026
20
0.86946185
30
0
70
32
0
VERTEX
8
0
62
30
10
0.050220026
20
0.86946185
30
0
70
32
0
VERTEX
8
0
62
30
10
0.050220026
20
0.86946185
30
0
70
32
0
SEQEND
8
0
0
POLYLINE
8
0
62
30
66
1
10
0
20
0
30
0
70
8
0
VERTEX
8
0
62
30
10
0.078504298
20
0.8629275
30
0
70
32
0
VERTEX
8
0
62
30
10
0.084867768
20
0.86946185
30
0
70
32
0
VERTEX
8
0
62
30
10
0.078504298
20
0.8759962
30
0
70
32
0
SEQEND
8
0
0
POLYLINE
8
0
62
30
66
1
10
0
20
0
30
0
70
8
0
VERTEX
8
0
62
30
10
0.10678857
20
0.85546347
30
0
70
32
0
VERTEX
8
0
62
30
10
0.11579283
20
0.86946185
30
0
70
32
0
VERTEX
8
0
62
30
10
0.10678857
20
0.88346023
30
0
70
32
0
SEQEND
8
0
0
POLYLINE
8
0
62
5
66
1
10
0
20
0
30
0
70
8
0
VERTEX
8
0
62
5
10
0.24820993
20
0.88347565
30
0
70
32
0
VERTEX
8
0
62
5
10
0.24820993
20
0.85544805
30
0
70
32
0
SEQEND
8
0
0
POLYLINE
8
0
62
5
66
1
10
0
20
0
30
0
70
8
0
VERTEX
8
0
62
5
10
0.13507284
20
0.86199782
30
0
70
32
0
VERTEX
8
0
62
5
10
0.16335711
20
0.86946185
30
0
70
32
0
VERTEX
8
0
62
5
10
0.19164138
20
0.8629275
30
0
70
32
0
VERTEX
8
0
62
5
10
0.21992565
20
0.85546347
30
0
70
32
0
VERTEX
8
0
62
5
10
0.24820993
20
0.86199782
30
0
70
32
0
SEQEND
8
0
0
POLYLINE
8
0
62
5
66
1
10
0
20
0
30
0
70
8
0
SEQEND
8
0
0
POLYLINE
8
0
62
5
66
1
10
0
20
0
30
0
70
8
0
VERTEX
8
0
62
5
10
0.13507284
20
0.87692588
30
0
70
32
0
VERTEX
8
0
62
5
10
0.16335711
20
0.86946185
30
0
70
32
0
VERTEX
8
0
62
5
10
0.19164138
20
0.8759962
30
0
70
32
0
VERTEX
8
0
62
5
10
0.21992565
20
0.88346023
30
0
70
32
0
VERTEX
8
0
62
5
10
0.24820993
20
0.87692588
30
0
70
32
0
SEQEND
8
0
0
POLYLINE
8
0
62
30
66
1
10
0
20
0
30
0
70
8
0
VERTEX
8
0
62
30
10
0.13507284
20
0.86946185
30
0
70
32
0
VERTEX
8
0
62
30
10
0.24820993
20
0.86946185
30
0
70
32
0
SEQEND
8
0
0
POLYLINE
8
0
62
30
66
1
10
0
20
0
30
0
70
8
0
VERTEX
8
0
62
30
10
0.16335711
20
0.86946185
30
0
70
32
0
VERTEX
8
0
62
30
10
0.16335711
20
0.86946185
30
0
70
32
0
SEQEND
8
0
0
POLYLINE
8
0
62
30
66
1
10
0
20
0
30
0
70
8
0
VERTEX
8
0
62
30
10
0.19164138
20
0.8629275
30
0
70
32
0
VERTEX
8
0
62
30
10
0.19164138
20
0.86946185
30
0
70
32
0
SEQEND
8
0
0
POLYLINE
8
0
62
30
66
1
10
0
20
0
30
0
70
8
0
VERTEX
8
0
62
30
10
0.21992565
20
0.85546347
30
0
70
32
0
VERTEX
8
0
62
30
10
0.21992565
20
0.86946185
30
0
70
32
0
SEQEND
8
0
0
POLYLINE
8
0
62
5
66
1
10
0
20
0
30
0
70
8
0
VERTEX
8
0
62
5
10
0.16335711
20
0.85544805
30
0
70
32
0
VERTEX
8
0
62
5
10
0.16335711
20
0.86946185
30
0
70
32
0
SEQEND
8
0
0
POLYLINE
8
0
62
5
66
1
10
0
20
0
30
0
70
8
0
VERTEX
8
0
62
5
10
0.19164138
20
0.85544805
30
0
70
32
0
VERTEX
8
0
62
5
10
0.19164138
20
0.8629275
30
0
70
32
0
SEQEND
8
0
0
POLYLINE
8
0
62
5
66
1
10
0
20
0
30
0
70
8
0
VERTEX
8
0
62
5
10
0.21992565
20
0.85544805
30
0
70
32
0
VERTEX
8
0
62
5
10
0.21992565
20
0.85546347
30
0
70
32
0
SEQEND
8
0
0
POLYLINE
8
0
62
5
66
1
10
0
20
0
30
0
70
8
0
VERTEX
8
0
62
5
10
0.16335711
20
0.86946185
30
0
70
32
0
VERTEX
8
0
62
5
10
0.16335711
20
0.88347565
30
0
70
32
0
SEQEND
8
0
0
POLYLINE
8
0
62
5
66
1
10
0
20
0
30
0
70
8
0
VERTEX
8
0
62
5
10
0.19164138
20
0.86946185
30
0
70
32
0
VERTEX
8
0
62
5
10
0.19164138
20
0.88347565
30
0
70
32
0
SEQEND
8
0
0
POLYLINE
8
0
62
5
66
1
10
0
20
0
30
0
70
8
0
VERTEX
8
0
62
5
10
0.21992565
20
0.86946185
30
0
70
32
0
VERTEX
8
0
62
5
10
0.21992565
20
0.88347565
30
0
70
32
0
SEQEND
8
0
0
POLYLINE
8
0
62
30
66
1
10
0
20
0
30
0
70
8
0
VERTEX
8
0
62
30
10
0.13507284
20
0.86199782
30
0
70
32
0
VERTEX
8
0
62
30
10
0.14190433
20
0.86946185
30
0
70
32
0
VERTEX
8
0
62
30
10
0.13507284
20
0.87692588
30
0
70
32
0
SEQEND
8
0
0
POLYLINE
8
0
62
30
66
1
10
0
20
0
30
0
70
8
0
VERTEX
8
0
62
30
10
0.16335711
20
0.86946185
30
0
70
32
0
VERTEX
8
0
62
30
10
0.16335711
20
0.86946185
30
0
70
32
0
VERTEX
8
0
62
30
10
0.16335711
20
0.86946185
30
0
70
32
0
SEQEND
8
0
0
POLYLINE
8
0
62
30
66
1
10
0
20
0
30
0
70
8
0
VERTEX
8
0
62
30
10
0.19164138
20
0.8629275
30
0
70
32
0
VERTEX
8
0
62
30
10
0.19800485
20
0.86946185
30
0
70
32
0
VERTEX
8
0
62
30
10
0.19164138
20
0.8759962
30
0
70
32
0
SEQEND
8
0
0
POLYLINE
8
0
62
30
66
1
10
0
20
0
30
0
70
8
0
VERTEX
8
0
62
30
10
0.21992565
20
0.85546347
30
0
70
32
0
VERTEX
8
0
62
30
10
0.22892991
20
0.86946185
30
0
70
32
0
VERTEX
8
0
62
30
10
0.21992565
20
0.88346023
30
0
70
32
0
SEQEND
8
0
0
POLYLINE
8
0
62
5
66
1
10
0
20
0
30
0
70
8
0
VERTEX
8
0
62
5
10
-0.09120133
20
0.85544805
30
0
70
32
0
VERTEX
8
0
62
5
10
-0.09120133
20
0.88347565
30
0
70
32
0
SEQEND
8
0
0
POLYLINE
8
0
62
5
66
1
10
0
20
0
30
0
70
8
0
VERTEX
8
0
62
5
10
-0.09120133
20
0.86199782
30
0
70
32
0
VERTEX
8
0
62
5
10
-0.062917059
20
0.86946185
30
0
70
32
0
VERTEX
8
0
62
5
10
-0.034632787
20
0.8629275
30
0
70
32
0
VERTEX
8
0
62
5
10
-0.0063485162
20
0.85546347
30
0
70
32
0
VERTEX
8
0
62
5
10
0.021935755
20
0.86199782
30
0
70
32
0
SEQEND
8
0
0
POLYLINE
8
0
62
5
66
1
10
0
20
0
30
0
70
8
0
SEQEND
8
0
0
POLYLINE
8
0
62
5
66
1
10
0
20
0
30
0
70
8
0
VERTEX
8
0
62
5
10
-0.09120133
20
0.87692588
30
0
70
32
0
VERTEX
8
0
62
5
10
-0.062917059
20
0.86946185
30
0
70
32
0
VERTEX
8
0
62
5
10
-0.034632787
20
0.8759962
30
0
70
32
0
VERTEX
8
0
62
5
10
-0.0063485162
20
0.88346023
30
0
70
32
0
VERTEX
8
0
62
5
10
0.021935755
20
0.87692588
30
0
70
32
0
SEQEND
8
0
0
POLYLINE
8
0
62
30
66
1
10
0
20
0
30
0
70
8
0
VERTEX
8
0
62
30
10
-0.09120133
20
0.86946185
30
0
70
32
0
VERTEX
8
0
62
30
10
0.021935755
20
0.86946185
30
0
70
32
0
SEQEND
8
0
0
POLYLINE
8
0
62
30
66
1
10
0
20
0
30
0
70
8
0
VERTEX
8
0
62
30
10
-0.062917059
20
0.86946185
30
0
70
32
0
VERTEX
8
0
62
30
10
-0.062917059
20
0.86946185
30
0
70
32
0
SEQEND
8
0
0
POLYLINE
8
0
62
30
66
1
10
0
20
0
30
0
70
8
0
VERTEX
8
0
62
30
10
-0.034632787
20
0.8629275
30
0
70
32
0
VERTEX
8
0
62
30
10
-0.034632787
20
0.86946185
30
0
70
32
0
SEQEND
8
0
0
POLYLINE
8
0
62
30
66
1
10
0
20
0
30
0
70
8
0
VERTEX
8
0
62
30
10
-0.0063485162
20
0.85546347
30
0
70
32
0
VERTEX
8
0
62
30
10
-0.0063485162
20
0.86946185
30
0
70
32
0
SEQEND
8
0
0
POLYLINE
8
0
62
5
66
1
10
0
20
0
30
0
70
8
0
VERTEX
8
0
62
5
10
-0.062917059
20
0.85544805
30
0
70
32
0
VERTEX
8
0
62
5
10
-0.062917059
20
0.86946185
30
0
70
32
0
SEQEND
8
0
0
POLYLINE
8
0
62
5
66
1
10
0
20
0
30
0
70
8
0
VERTEX
8
0
62
5
10
-0.034632787
20
0.85544805
30
0
70
32
0
VERTEX
8
0
62
5
10
-0.034632787
20
0.8629275
30
0
70
32
0
SEQEND
8
0
0
POLYLINE
8
0
62
5
66
1
10
0
20
0
30
0
70
8
0
VERTEX
8
0
62
5
10
-0.0063485162
20
0.85544805
30
0
70
32
0
VERTEX
8
0
62
5
10
-0.0063485162
20
0.85546347
30
0
70
32
0
SEQEND
8
0
0
POLYLINE
8
0
62
5
66
1
10
0
20
0
30
0
70
8
0
VERTEX
8
0
62
5
10
-0.062917059
20
0.86946185
30
0
70
32
0
VERTEX
8
0
62
5
10
-0.062917059
20
0.88347565
30
0
70
32
0
SEQEND
8
0
0
POLYLINE
8
0
62
5
66
1
10
0
20
0
30
0
70
8
0
VERTEX
8
0
62
5
10
-0.034632787
20
0.86946185
30
0
70
32
0
VERTEX
8
0
62
5
10
-0.034632787
20
0.88347565
30
0
70
32
0
SEQEND
8
0
0
POLYLINE
8
0
62
5
66
1
10
0
20
0
30
0
70
8
0
VERTEX
8
0
62
5
10
-0.0063485162
20
0.86946185
30
0
70
32
0
VERTEX
8
0
62
5
10
-0.0063485162
20
0.88347565
30
0
70
32
0
SEQEND
8
0
0
POLYLINE
8
0
62
30
66
1
10
0
20
0
30
0
70
8
0
VERTEX
8
0
62
30
10
-0.09120133
20
0.86199782
30
0
70
32
0
VERTEX
8
0
62
30
10
-0.08436984
20
0.86946185
30
0
70
32
0
VERTEX
8
0
62
30
10
-0.09120133
20
0.87692588
30
0
70
32
0
SEQEND
8
0
0
POLYLINE
8
0
62
30
66
1
10
0
20
0
30
0
70
8
0
VERTEX
8
0
62
30
10
-0.062917059
20
0.86946185
30
0
70
32
0
VERTEX
8
0
62
30
10
-0.062917059
20
0.86946185
30
0
70
32
0
VERTEX
8
0
62
30
10
-0.062917059
20
0.86946185
30
0
70
32
0
SEQEND
8
0
0
POLYLINE
8
0
62
30
66
1
10
0
20
0
30
0
70
8
0
VERTEX
8
0
62
30
10
-0.034632787
20
0.8629275
30
0
70
32
0
VERTEX
8
0
62
30
10
-0.028269317
20
0.86946185
30
0
70
32
0
VERTEX
8
0
62
30
10
-0.034632787
20
0.8759962
30
0
70
32
0
SEQEND
8
0
0
POLYLINE
8
0
62
30
66
1
10
0
20
0
30
0
70
8
0
VERTEX
8
0
62
30
10
-0.0063485162
20
0.85546347
30
0
70
32
0
VERTEX
8
0
62
30
10
0.002655742
20
0.86946185
30
0
70
32
0
VERTEX
8
0
62
30
10
-0.0063485162
20
0.88346023
30
0
70
32
0
SEQEND
8
0
0
POLYLINE
8
0
62
5
66
1
10
0
20
0
30
0
70
8
0
VERTEX
8
0
62
5
10
0.021935755
20
0.88347565
30
0
70
32
0
VERTEX
8
0
62
5
10
0.021935755
20
0.92347565
30
0
70
32
0
SEQEND
8
0
0
POLYLINE
8
0
62
5
66
1
10
0
20
0
30
0
70
8
0
VERTEX
8
0
62
5
10
0.13507284
20
0.92347565
30
0
70
32
0
VERTEX
8
0
62
5
10
0.13507284
20
0.88347565
30
0
70
32
0
SEQEND
8
0
0
POLYLINE
8
0
62
5
66
1
10
0
20
0
30
0
70
8
0
VERTEX
8
0
62
5
10
0.021935755
20
0.88347565
30
0
70
32
0
VERTEX
8
0
62
5
10
0.13507284
20
0.88347565
30
0
70
32
0
SEQEND
8
0
0
POLYLINE
8
0
62
5
66
1
10
0
20
0
30
0
70
8
0
VERTEX
8
0
62
5
10
0.021935755
20
0.92347565
30
0
70
32
0
VERTEX
8
0
62
5
10
0.13507284
20
0.92347565
30
0
70
32
0
SEQEND
8
0
0
POLYLINE
8
0
62
5
66
1
10
0
20
0
30
0
70
8
0
VERTEX
8
0
62
5
10
0.050220026
20
0.88347565
30
0
70
32
0
VERTEX
8
0
62
5
10
0.050220026
20
0.88347565
30
0
70
32
0
SEQEND
8
0
0
POLYLINE
8
0
62
5
66
1
10
0
20
0
30
0
70
8
0
VERTEX
8
0
62
5
10
0.078504298
20
0.88347565
30
0
70
32
0
VERTEX
8
0
62
5
10
0.078504298
20
0.88347565
30
0
70
32
0
SEQEND
8
0
0
POLYLINE
8
0
62
5
66
1
10
0
20
0
30
0
70
8
0
VERTEX
8
0
62
5
10
0.10678857
20
0.88347565
30
0
70
32
0
VERTEX
8
0
62
5
10
0.10678857
20
0.88347565
30
0
70
32
0
SEQEND
8
0
0
POLYLINE
8
0
62
5
66
1
10
0
20
0
30
0
70
8
0
VERTEX
8
0
62
5
10
0.050220026
20
0.92347565
30
0
70
32
0
VERTEX
8
0
62
5
10
0.050220026
20
0.92347565
30
0
70
32
0
SEQEND
8
0
0
POLYLINE
8
0
62
5
66
1
10
0
20
0
30
0
70
8
0
VERTEX
8
0
62
5
10
0.078504298
20
0.92347565
30
0
70
32
0
VERTEX
8
0
62
5
10
0.078504298
20
0.92347565
30
0
70
32
0
SEQEND
8
0
0
POLYLINE
8
0
62
5
66
1
10
0
20
0
30
0
70
8
0
VERTEX
8
0
62
5
10
0.10678857
20
0.92347565
30
0
70
32
0
VERTEX
8
0
62
5
10
0.10678857
20
0.92347565
30
0
70
32
0
SEQEND
8
0
0
POLYLINE
8
0
62
30
66
1
10
0
20
0
30
0
70
8
0
VERTEX
8
0
62
30
10
0.021935755
20
0.88347565
30
0
70
32
0
VERTEX
8
0
62
30
10
0.036077891
20
0.90347565
30
0
70
32
0
SEQEND
8
0
0
POLYLINE
8
0
62
30
66
1
10
0
20
0
30
0
70
8
0
VERTEX
8
0
62
30
10
0.036077891
20
0.90347565
30
0
70
32
0
VERTEX
8
0
62
30
10
0.050220026
20
0.88347565
30
0
70
32
0
SEQEND
8
0
0
POLYLINE
8
0
62
30
66
1
10
0
20
0
30
0
70
8
0
VERTEX
8
0
62
30
10
0.078504298
20
0.88347565
30
0
70
32
0
VERTEX
8
0
62
30
10
0.092646433
20
0.90347565
30
0
70
32
0
SEQEND
8
0
0
POLYLINE
8
0
62
30
66
1
10
0
20
0
30
0
70
8
0
VERTEX
8
0
62
30
10
0.092646433
20
0.90347565
30
0
70
32
0
VERTEX
8
0
62
30
10
0.10678857
20
0.88347565
30
0
70
32
0
SEQEND
8
0
0
POLYLINE
8
0
62
30
66
1
10
0
20
0
30
0
70
8
0
VERTEX
8
0
62
30
10
0.050220026
20
0.90347565
30
0
70
32
0
VERTEX
8
0
62
30
10
0.078504298
20
0.90347565
30
0
70
32
0
SEQEND
8
0
0
POLYLINE
8
0
62
30
66
1
10
0
20
0
30
0
70
8
0
VERTEX
8
0
62
30
10
0.10678857
20
0.90347565
30
0
70
32
0
VERTEX
8
0
62
30
10
0.13507284
20
0.90347565
30
0
70
32
0
SEQEND
8
0
0
POLYLINE
8
0
62
5
66
1
10
0
20
0
30
0
70
8
0
VERTEX
8
0
62
5
10
0.021935755
20
0.90347565
30
0
70
32
0
VERTEX
8
0
62
5
10
0.036077891
20
0.90347565
30
0
70
32
0
SEQEND
8
0
0
POLYLINE
8
0
62
5
66
1
10
0
20
0
30
0
70
8
0
VERTEX
8
0
62
5
10
0.078504298
20
0.90347565
30
0
70
32
0
VERTEX
8
0
62
5
10
0.092646433
20
0.90347565
30
0
70
32
0
SEQEND
8
0
0
POLYLINE
8
0
62
5
66
1
10
0
20
0
30
0
70
8
0
VERTEX
8
0
62
5
10
0.036077891
20
0.90347565
30
0
70
32
0
VERTEX
8
0
62
5
10
0.050220026
20
0.90347565
30
0
70
32
0
SEQEND
8
0
0
POLYLINE
8
0
62
5
66
1
10
0
20
0
30
0
70
8
0
VERTEX
8
0
62
5
10
0.092646433
20
0.90347565
30
0
70
32
0
VERTEX
8
0
62
5
10
0.10678857
20
0.90347565
30
0
70
32
0
SEQEND
8
0
0
POLYLINE
8
0
62
5
66
1
10
0
20
0
30
0
70
8
0
VERTEX
8
0
62
5
10
0.050220026
20
0.88347565
30
0
70
32
0
VERTEX
8
0
62
5
10
0.050220026
20
0.92347565
30
0
70
32
0
SEQEND
8
0
0
POLYLINE
8
0
62
5
66
1
10
0
20
0
30
0
70
8
0
VERTEX
8
0
62
5
10
0.078504298
20
0.88347565
30
0
70
32
0
VERTEX
8
0
62
5
10
0.078504298
20
0.92347565
30
0
70
32
0
SEQEND
8
0
0
POLYLINE
8
0
62
5
66
1
10
0
20
0
30
0
70
8
0
VERTEX
8
0
62
5
10
0.10678857
20
0.88347565
30
0
70
32
0
VERTEX
8
0
62
5
10
0.10678857
20
0.92347565
30
0
70
32
0
SEQEND
8
0
0
POLYLINE
8
0
62
5
66
1
10
0
20
0
30
0
70
8
0
VERTEX
8
0
62
5
10
0.021935755
20
0.88347565
30
0
70
32
0
VERTEX
8
0
62
5
10
0.021935755
20
0.92347565
30
0
70
32
0
SEQEND
8
0
0
POLYLINE
8
0
62
5
66
1
10
0
20
0
30
0
70
8
0
VERTEX
8
0
62
5
10
0.24820993
20
0.92347565
30
0
70
32
0
VERTEX
8
0
62
5
10
0.24820993
20
0.88347565
30
0
70
32
0
SEQEND
8
0
0
POLYLINE
8
0
62
5
66
1
10
0
20
0
30
0
70
8
0
VERTEX
8
0
62
5
10
0.13507284
20
0.88347565
30
0
70
32
0
VERTEX
8
0
62
5
10
0.24820993
20
0.88347565
30
0
70
32
0
SEQEND
8
0
0
POLYLINE
8
0
62
5
66
1
10
0
20
0
30
0
70
8
0
VERTEX
8
0
62
5
10
0.13507284
20
0.92347565
30
0
70
32
0
VERTEX
8
0
62
5
10
0.24820993
20
0.92347565
30
0
70
32
0
SEQEND
8
0
0
POLYLINE
8
0
62
5
66
1
10
0
20
0
30
0
70
8
0
VERTEX
8
0
62
5
10
0.16335711
20
0.88347565
30
0
70
32
0
VERTEX
8
0
62
5
10
0.16335711
20
0.88347565
30
0
70
32
0
SEQEND
8
0
0
POLYLINE
8
0
62
5
66
1
10
0
20
0
30
0
70
8
0
VERTEX
8
0
62
5
10
0.19164138
20
0.88347565
30
0
70
32
0
VERTEX
8
0
62
5
10
0.19164138
20
0.88347565
30
0
70
32
0
SEQEND
8
0
0
POLYLINE
8
0
62
5
66
1
10
0
20
0
30
0
70
8
0
VERTEX
8
0
62
5
10
0.21992565
20
0.88347565
30
0
70
32
0
VERTEX
8
0
62
5
10
0.21992565
20
0.88347565
30
0
70
32
0
SEQEND
8
0
0
POLYLINE
8
0
62
5
66
1
10
0
20
0
30
0
70
8
0
VERTEX
8
0
62
5
10
0.16335711
20
0.92347565
30
0
70
32
0
VERTEX
8
0
62
5
10
0.16335711
20
0.92347565
30
0
70
32
0
SEQEND
8
0
0
POLYLINE
8
0
62
5
66
1
10
0
20
0
30
0
70
8
0
VERTEX
8
0
62
5
10
0.19164138
20
0.92347565
30
0
70
32
0
VERTEX
8
0
62
5
10
0.19164138
20
0.92347565
30
0
70
32
0
SEQEND
8
0
0
POLYLINE
8
0
62
5
66
1
10
0
20
0
30
0
70
8
0
VERTEX
8
0
62
5
10
0.21992565
20
0.92347565
30
0
70
32
0
VERTEX
8
0
62
5
10
0.21992565
20
0.92347565
30
0
70
32
0
SEQEND
8
0
0
POLYLINE
8
0
62
30
66
1
10
0
20
0
30
0
70
8
0
VERTEX
8
0
62
30
10
0.13507284
20
0.88347565
30
0
70
32
0
VERTEX
8
0
62
30
10
0.14921498
20
0.90347565
30
0
70
32
0
SEQEND
8
0
0
POLYLINE
8
0
62
30
66
1
10
0
20
0
30
0
70
8
0
VERTEX
8
0
62
30
10
0.14921498
20
0.90347565
30
0
70
32
0
VERTEX
8
0
62
30
10
0.16335711
20
0.88347565
30
0
70
32
0
SEQEND
8
0
0
POLYLINE
8
0
62
30
66
1
10
0
20
0
30
0
70
8
0
VERTEX
8
0
62
30
10
0.19164138
20
0.88347565
30
0
70
32
0
VERTEX
8
0
62
30
10
0.20578352
20
0.90347565
30
0
70
32
0
SEQEND
8
0
0
POLYLINE
8
0
62
30
66
1
10
0
20
0
30
0
70
8
0
VERTEX
8
0
62
30
10
0.20578352
20
0.90347565
30
0
70
32
0
VERTEX
8
0
62
30
10
0.21992565
20
0.88347565
30
0
70
32
0
SEQEND
8
0
0
POLYLINE
8
0
62
30
66
1
10
0
20
0
30
0
70
8
0
VERTEX
8
0
62
30
10
0.16335711
20
0.90347565
30
0
70
32
0
VERTEX
8
0
62
30
10
0.19164138
20
0.90347565
30
0
70
32
0
SEQEND
8
0
0
POLYLINE
8
0
62
30
66
1
10
0
20
0
30
0
70
8
0
VERTEX
8
0
62
30
10
0.21992565
20
0.90347565
30
0
70
32
0
VERTEX
8
0
62
30
10
0.24820993
20
0.90347565
30
0
70
32
0
SEQEND
8
0
0
POLYLINE
8
0
62
5
66
1
10
0
20
0
30
0
70
8
0
VERTEX
8
0
62
5
10
0.13507284
20
0.90347565
30
0
70
32
0
VERTEX
8
0
62
5
10
0.14921498
20
0.90347565
30
0
70
32
0
SEQEND
8
0
0
POLYLINE
8
0
62
5
66
1
10
0
20
0
30
0
70
8
0
VERTEX
8
0
62
5
10
0.19164138
20
0.90347565
30
0
70
32
0
VERTEX
8
0
62
5
10
0.20578352
20
0.90347565
30
0
70
32
0
SEQEND
8
0
0
POLYLINE
8
0
62
5
66
1
10
0
20
0
30
0
70
8
0
VERTEX
8
0
62
5
10
0.14921498
20
0.90347565
30
0
70
32
0
VERTEX
8
0
62
5
10
0.16335711
20
0.90347565
30
0
70
32
0
SEQEND
8
0
0
POLYLINE
8
0
62
5
66
1
10
0
20
0
30
0
70
8
0
VERTEX
8
0
62
5
10
0.20578352
20
0.90347565
30
0
70
32
0
VERTEX
8
0
62
5
10
0.21992565
20
0.90347565
30
0
70
32
0
SEQEND
8
0
0
POLYLINE
8
0
62
5
66
1
10
0
20
0
30
0
70
8
0
VERTEX
8
0
62
5
10
0.16335711
20
0.88347565
30
0
70
32
0
VERTEX
8
0
62
5
10
0.16335711
20
0.92347565
30
0
70
32
0
SEQEND
8
0
0
POLYLINE
8
0
62
5
66
1
10
0
20
0
30
0
70
8
0
VERTEX
8
0
62
5
10
0.19164138
20
0.88347565
30
0
70
32
0
VERTEX
8
0
62
5
10
0.19164138
20
0.92347565
30
0
70
32
0
SEQEND
8
0
0
POLYLINE
8
0
62
5
66
1
10
0
20
0
30
0
70
8
0
VERTEX
8
0
62
5
10
0.21992565
20
0.88347565
30
0
70
32
0
VERTEX
8
0
62
5
10
0.21992565
20
0.92347565
30
0
70
32
0
SEQEND
8
0
0
POLYLINE
8
0
62
5
66
1
10
0
20
0
30
0
70
8
0
VERTEX
8
0
62
5
10
0.13507284
20
0.88347565
30
0
70
32
0
VERTEX
8
0
62
5
10
0.13507284
20
0.92347565
30
0
70
32
0
SEQEND
8
0
0
POLYLINE
8
0
62
5
66
1
10
0
20
0
30
0
70
8
0
VERTEX
8
0
62
5
10
-0.09120133
20
0.88347565
30
0
70
32
0
VERTEX
8
0
62
5
10
-0.09120133
20
0.92347565
30
0
70
32
0
SEQEND
8
0
0
POLYLINE
8
0
62
5
66
1
10
0
20
0
30
0
70
8
0
VERTEX
8
0
62
5
10
-0.09120133
20
0.88347565
30
0
70
32
0
VERTEX
8
0
62
5
10
0.021935755
20
0.88347565
30
0
70
32
0
SEQEND
8
0
0
POLYLINE
8
0
62
5
66
1
10
0
20
0
30
0
70
8
0
VERTEX
8
0
62
5
10
-0.09120133
20
0.92347565
30
0
70
32
0
VERTEX
8
0
62
5
10
0.021935755
20
0.92347565
30
0
70
32
0
SEQEND
8
0
0
POLYLINE
8
0
62
5
66
1
10
0
20
0
30
0
70
8
0
VERTEX
8
0
62
5
10
-0.062917059
20
0.88347565
30
0
70
32
0
VERTEX
8
0
62
5
10
-0.062917059
20
0.88347565
30
0
70
32
0
SEQEND
8
0
0
POLYLINE
8
0
62
5
66
1
10
0
20
0
30
0
70
8
0
VERTEX
8
0
62
5
10
-0.034632787
20
0.88347565
30
0
70
32
0
VERTEX
8
0
62
5
10
-0.034632787
20
0.88347565
30
0
70
32
0
SEQEND
8
0
0
POLYLINE
8
0
62
5
66
1
10
0
20
0
30
0
70
8
0
VERTEX
8
0
62
5
10
-0.0063485162
20
0.88347565
30
0
70
32
0
VERTEX
8
0
62
5
10
-0.0063485162
20
0.88347565
30
0
70
32
0
SEQEND
8
0
0
POLYLINE
8
0
62
5
66
1
10
0
20
0
30
0
70
8
0
VERTEX
8
0
62
5
10
-0.062917059
20
0.92347565
30
0
70
32
0
VERTEX
8
0
62
5
10
-0.062917059
20
0.92347565
30
0
70
32
0
SEQEND
8
0
0
POLYLINE
8
0
62
5
66
1
10
0
20
0
30
0
70
8
0
VERTEX
8
0
62
5
10
-0.034632787
20
0.92347565
30
0
70
32
0
VERTEX
8
0
62
5
10
-0.034632787
20
0.92347565
30
0
70
32
0
SEQEND
8
0
0
POLYLINE
8
0
62
5
66
1
10
0
20
0
30
0
70
8
0
VERTEX
8
0
62
5
10
-0.0063485162
20
0.92347565
30
0
70
32
0
VERTEX
8
0
62
5
10
-0.0063485162
20
0.92347565
30
0
70
32
0
SEQEND
8
0
0
POLYLINE
8
0
62
30
66
1
10
0
20
0
30
0
70
8
0
VERTEX
8
0
62
30
10
-0.09120133
20
0.88347565
30
0
70
32
0
VERTEX
8
0
62
30
10
-0.077059194
20
0.90347565
30
0
70
32
0
SEQEND
8
0
0
POLYLINE
8
0
62
30
66
1
10
0
20
0
30
0
70
8
0
VERTEX
8
0
62
30
10
-0.077059194
20
0.90347565
30
0
70
32
0
VERTEX
8
0
62
30
10
-0.062917059
20
0.88347565
30
0
70
32
0
SEQEND
8
0
0
POLYLINE
8
0
62
30
66
1
10
0
20
0
30
0
70
8
0
VERTEX
8
0
62
30
10
-0.034632787
20
0.88347565
30
0
70
32
0
VERTEX
8
0
62
30
10
-0.020490652
20
0.90347565
30
0
70
32
0
SEQEND
8
0
0
POLYLINE
8
0
62
30
66
1
10
0
20
0
30
0
70
8
0
VERTEX
8
0
62
30
10
-0.020490652
20
0.90347565
30
0
70
32
0
VERTEX
8
0
62
30
10
-0.0063485162
20
0.88347565
30
0
70
32
0
SEQEND
8
0
0
POLYLINE
8
0
62
30
66
1
10
0
20
0
30
0
70
8
0
VERTEX
8
0
62
30
10
-0.062917059
20
0.90347565
30
0
70
32
0
VERTEX
8
0
62
30
10
-0.034632787
20
0.90347565
30
0
70
32
0
SEQEND
8
0
0
POLYLINE
8
0
62
30
66
1
10
0
20
0
30
0
70
8
0
VERTEX
8
0
62
30
10
-0.0063485162
20
0.90347565
30
0
70
32
0
VERTEX
8
0
62
30
10
0.021935755
20
0.90347565
30
0
70
32
0
SEQEND
8
0
0
POLYLINE
8
0
62
5
66
1
10
0
20
0
30
0
70
8
0
VERTEX
8
0
62
5
10
-0.09120133
20
0.90347565
30
0
70
32
0
VERTEX
8
0
62
5
10
-0.077059194
20
0.90347565
30
0
70
32
0
SEQEND
8
0
0
POLYLINE
8
0
62
5
66
1
10
0
20
0
30
0
70
8
0
VERTEX
8
0
62
5
10
-0.034632787
20
0.90347565
30
0
70
32
0
VERTEX
8
0
62
5
10
-0.020490652
20
0.90347565
30
0
70
32
0
SEQEND
8
0
0
POLYLINE
8
0
62
5
66
1
10
0
20
0
30
0
70
8
0
VERTEX
8
0
62
5
10
-0.077059194
20
0.90347565
30
0
70
32
0
VERTEX
8
0
62
5
10
-0.062917059
20
0.90347565
30
0
70
32
0
SEQEND
8
0
0
POLYLINE
8
0
62
5
66
1
10
0
20
0
30
0
70
8
0
VERTEX
8
0
62
5
10
-0.020490652
20
0.90347565
30
0
70
32
0
VERTEX
8
0
62
5
10
-0.0063485162
20
0.90347565
30
0
70
32
0
SEQEND
8
0
0
POLYLINE
8
0
62
5
66
1
10
0
20
0
30
0
70
8
0
VERTEX
8
0
62
5
10
-0.062917059
20
0.88347565
30
0
70
32
0
VERTEX
8
0
62
5
10
-0.062917059
20
0.92347565
30
0
70
32
0
SEQEND
8
0
0
POLYLINE
8
0
62
5
66
1
10
0
20
0
30
0
70
8
0
VERTEX
8
0
62
5
10
-0.034632787
20
0.88347565
30
0
70
32
0
VERTEX
8
0
62
5
10
-0.034632787
20
0.92347565
30
0
70
32
0
SEQEND
8
0
0
POLYLINE
8
0
62
5
66
1
10
0
20
0
30
0
70
8
0
VERTEX
8
0
62
5
10
-0.0063485162
20
0.88347565
30
0
70
32
0
VERTEX
8
0
62
5
10
-0.0063485162
20
0.92347565
30
0
70
32
0
SEQEND
8
0
0
POLYLINE
8
0
62
5
66
1
10
0
20
0
30
0
70
8
0
VERTEX
8
0
62
5
10
-0.09120133
20
0.88347565
30
0
70
32
0
VERTEX
8
0
62
5
10
-0.09120133
20
0.92347565
30
0
70
32
0
SEQEND
8
0
0
POLYLINE
8
0
62
18
66
1
10
0
20
0
30
0
70
8
0
VERTEX
8
0
62
18
10
0
20
0
30
0
70
32
0
VERTEX
8
0
62
18
10
0.14142136
20
0
30
0
70
32
0
VERTEX
8
0
62
18
10
0.14142136
20
0.31415906
30
0
70
32
0
VERTEX
8
0
62
18
10
0
20
0.31415906
30
0
70
32
0
VERTEX
8
0
62
18
10
0
20
0
30
0
70
32
0
SEQEND
8
0
0
POLYLINE
8
0
62
5
66
1
10
0
20
0
30
0
70
8
0
VERTEX
8
0
62
5
10
0
20
0.31415906
30
0
70
32
0
VERTEX
8
0
62
5
10
0.14142136
20
0.31415906
30
0
70
32
0
SEQEND
8
0
0
POLYLINE
8
0
62
18
66
1
10
0
20
0
30
0
70
8
0
VERTEX
8
0
62
18
10
0
20
0.29415906
30
0
70
32
0
VERTEX
8
0
62
18
10
0.14142136
20
0.29415906
30
0
70
32
0
VERTEX
8
0
62
18
10
0.14142136
20
0.60203956
30
0
70
32
0
VERTEX
8
0
62
18
10
0
20
0.60203956
30
0
70
32
0
VERTEX
8
0
62
18
10
0
20
0.29415906
30
0
70
32
0
SEQEND
8
0
0
POLYLINE
8
0
62
5
66
1
10
0
20
0
30
0
70
8
0
VERTEX
8
0
62
5
10
0
20
0.60203956
30
0
70
32
0
VERTEX
8
0
62
5
10
0.14142136
20
0.60203956
30
0
70
32
0
SEQEND
8
0
0
POLYLINE
8
0
62
18
66
1
10
0
20
0
30
0
70
8
0
VERTEX
8
0
62
18
10
0
20
0.58203956
30
0
70
32
0
VERTEX
8
0
62
18
10
0.14142136
20
0.58203956
30
0
70
32
0
VERTEX
8
0
62
18
10
0.14142136
20
0.83119215
30
0
70
32
0
VERTEX
8
0
62
18
10
0
20
0.83119215
30
0
70
32
0
VERTEX
8
0
62
18
10
0
20
0.58203956
30
0
70
32
0
SEQEND
8
0
0
POLYLINE
8
0
62
5
66
1
10
0
20
0
30
0
70
8
0
VERTEX
8
0
62
5
10
0
20
0.83119215
30
0
70
32
0
VERTEX
8
0
62
5
10
0.14142136
20
0.83119215
30
0
70
32
0
SEQEND
8
0
0
POLYLINE
8
0
62
18
66
1
10
0
20
0
30
0
70
8
0
VERTEX
8
0
62
18
10
0
20
0.81119215
30
0
70
32
0
VERTEX
8
0
62
18
10
0.14142136
20
0.81119215
30
0
70
32
0
VERTEX
8
0
62
18
10
0.14142136
20
0.92347565
30
0
70
32
0
VERTEX
8
0
62
18
10
0
20
0.92347565
30
0
70
32
0
VERTEX
8
0
62
18
10
0
20
0.81119215
30
0
70
32
0
SEQEND
8
0
0
POLYLINE
8
0
62
18
66
1
10
0
20
0
30
0
70
8
0
VERTEX
8
0
62
18
10
0.14142136
20
0
30
0
70
32
0
VERTEX
8
0
62
18
10
0
20
0
30
0
70
32
0
VERTEX
8
0
62
18
10
0
20
0.92347565
30
0
70
32
0
VERTEX
8
0
62
18
10
0.14142136
20
0.92347565
30
0
70
32
0
VERTEX
8
0
62
18
10
0.14142136
20
0
30
0
70
32
0
SEQEND
8
0
0
ENDSEC
0
EOF
