0
SECTION
2
HEADER
9
$ACADVER
1
AC1006
9
$INSUNITS
70
6
0
ENDSEC
0
SECTION
2
ENTITIES
0
POLYLINE
8
0
62
5
66
1
10
0
20
0
30
0
70
8
0
VERTEX
8
0
62
5
10
0
20
0
30
0
70
32
0
VERTEX
8
0
62
5
10
0
20
0.1
30
0
70
32
0
SEQEND
8
0
0
POLYLINE
8
0
62
5
66
1
10
0
20
0
30
0
70
8
0
VERTEX
8
0
62
5
10
0.11313708
20
0
30
0
70
32
0
VERTEX
8
0
62
5
10
0.11313708
20
0.1
30
0
70
32
0
SEQEND
8
0
0
POLYLINE
8
0
62
5
66
1
10
0
20
0
30
0
70
8
0
VERTEX
8
0
62
5
10
0.028284271
20
0
30
0
70
32
0
VERTEX
8
0
62
5
10
0.028284271
20
0.1
30
0
70
32
0
SEQEND
8
0
0
POLYLINE
8
0
62
5
66
1
10
0
20
0
30
0
70
8
0
VERTEX
8
0
62
5
10
0.056568542
20
0
30
0
70
32
0
VERTEX
8
0
62
5
10
0.056568542
20
0.1
30
0
70
32
0
SEQEND
8
0
0
POLYLINE
8
0
62
5
66
1
10
0
20
0
30
0
70
8
0
VERTEX
8
0
62
5
10
0.084852814
20
0
30
0
70
32
0
VERTEX
8
0
62
5
10
0.084852814
20
0.1
30
0
70
32
0
SEQEND
8
0
0
POLYLINE
8
0
62
5
66
1
10
0
20
0
30
0
70
8
0
VERTEX
8
0
62
5
10
0.22627417
20
0
30
0
70
32
0
VERTEX
8
0
62
5
10
0.22627417
20
0.1
30
0
70
32
0
SEQEND
8
0
0
POLYLINE
8
0
62
5
66
1
10
0
20
0
30
0
70
8
0
VERTEX
8
0
62
5
10
0.14142136
20
0
30
0
70
32
0
VERTEX
8
0
62
5
10
0.14142136
20
0.1
30
0
70
32
0
SEQEND
8
0
0
POLYLINE
8
0
62
5
66
1
10
0
20
0
30
0
70
8
0
VERTEX
8
0
62
5
10
0.16970563
20
0
30
0
70
32
0
VERTEX
8
0
62
5
10
0.16970563
20
0.1
30
0
70
32
0
SEQEND
8
0
0
POLYLINE
8
0
62
5
66
1
10
0
20
0
30
0
70
8
0
VERTEX
8
0
62
5
10
0.1979899
20
0
30
0
70
32
0
VERTEX
8
0
62
5
10
0.1979899
20
0.1
30
0
70
32
0
SEQEND
8
0
0
POLYLINE
8
0
62
5
66
1
10
0
20
0
30
0
70
8
0
VERTEX
8
0
62
5
10
-0.11313708
20
0
30
0
70
32
0
VERTEX
8
0
62
5
10
-0.11313708
20
0.1
30
0
70
32
0
SEQEND
8
0
0
POLYLINE
8
0
62
5
66
1
10
0
20
0
30
0
70
8
0
VERTEX
8
0
62
5
10
-0.084852814
20
0
30
0
70
32
0
VERTEX
8
0
62
5
10
-0.084852814
20
0.1
30
0
70
32
0
SEQEND
8
0
0
POLYLINE
8
0
62
5
66
1
10
0
20
0
30
0
70
8
0
VERTEX
8
0
62
5
10
-0.056568542
20
0
30
0
70
32
0
VERTEX
8
0
62
5
10
-0.056568542
20
0.1
30
0
70
32
0
SEQEND
8
0
0
POLYLINE
8
0
62
5
66
1
10
0
20
0
30
0
70
8
0
VERTEX
8
0
62
5
10
-0.028284271
20
0
30
0
70
32
0
VERTEX
8
0
62
5
10
-0.028284271
20
0.1
30
0
70
32
0
SEQEND
8
0
0
POLYLINE
8
0
62
5
66
1
10
0
20
0
30
0
70
8
0
VERTEX
8
0
62
5
10
0
20
0.1
30
0
70
32
0
VERTEX
8
0
62
5
10
0
20
0.14
30
0
70
32
0
SEQEND
8
0
0
POLYLINE
8
0
62
5
66
1
10
0
20
0
30
0
70
8
0
VERTEX
8
0
62
5
10
0.11313708
20
0.14
30
0
70
32
0
VERTEX
8
0
62
5
10
0.11313708
20
0.1
30
0
70
32
0
SEQEND
8
0
0
POLYLINE
8
0
62
5
66
1
10
0
20
0
30
0
70
8
0
VERTEX
8
0
62
5
10
0
20
0.1
30
0
70
32
0
VERTEX
8
0
62
5
10
0.11313708
20
0.1
30
0
70
32
0
SEQEND
8
0
0
POLYLINE
8
0
62
5
66
1
10
0
20
0
30
0
70
8
0
VERTEX
8
0
62
5
10
0
20
0.14
30
0
70
32
0
VERTEX
8
0
62
5
10
0.11313708
20
0.14
30
0
70
32
0
SEQEND
8
0
0
POLYLINE
8
0
62
5
66
1
10
0
20
0
30
0
70
8
0
VERTEX
8
0
62
5
10
0.028284271
20
0.1
30
0
70
32
0
VERTEX
8
0
62
5
10
0.028284271
20
0.1
30
0
70
32
0
SEQEND
8
0
0
POLYLINE
8
0
62
5
66
1
10
0
20
0
30
0
70
8
0
VERTEX
8
0
62
5
10
0.056568542
20
0.1
30
0
70
32
0
VERTEX
8
0
62
5
10
0.056568542
20
0.1
30
0
70
32
0
SEQEND
8
0
0
POLYLINE
8
0
62
5
66
1
10
0
20
0
30
0
70
8
0
VERTEX
8
0
62
5
10
0.084852814
20
0.1
30
0
70
32
0
VERTEX
8
0
62
5
10
0.084852814
20
0.1
30
0
70
32
0
SEQEND
8
0
0
POLYLINE
8
0
62
5
66
1
10
0
20
0
30
0
70
8
0
VERTEX
8
0
62
5
10
0.028284271
20
0.14
30
0
70
32
0
VERTEX
8
0
62
5
10
0.028284271
20
0.14
30
0
70
32
0
SEQEND
8
0
0
POLYLINE
8
0
62
5
66
1
10
0
20
0
30
0
70
8
0
VERTEX
8
0
62
5
10
0.056568542
20
0.14
30
0
70
32
0
VERTEX
8
0
62
5
10
0.056568542
20
0.14
30
0
70
32
0
SEQEND
8
0
0
POLYLINE
8
0
62
5
66
1
10
0
20
0
30
0
70
8
0
VERTEX
8
0
62
5
10
0.084852814
20
0.14
30
0
70
32
0
VERTEX
8
0
62
5
10
0.084852814
20
0.14
30
0
70
32
0
SEQEND
8
0
0
POLYLINE
8
0
62
30
66
1
10
0
20
0
30
0
70
8
0
VERTEX
8
0
62
30
10
0
20
0.14
30
0
70
32
0
VERTEX
8
0
62
30
10
0.028284271
20
0.1
30
0
70
32
0
SEQEND
8
0
0
POLYLINE
8
0
62
30
66
1
10
0
20
0
30
0
70
8
0
VERTEX
8
0
62
30
10
0.028284271
20
0.14
30
0
70
32
0
VERTEX
8
0
62
30
10
0
20
0.1
30
0
70
32
0
SEQEND
8
0
0
POLYLINE
8
0
62
30
66
1
10
0
20
0
30
0
70
8
0
VERTEX
8
0
62
30
10
0.056568542
20
0.14
30
0
70
32
0
VERTEX
8
0
62
30
10
0.084852814
20
0.1
30
0
70
32
0
SEQEND
8
0
0
POLYLINE
8
0
62
30
66
1
10
0
20
0
30
0
70
8
0
VERTEX
8
0
62
30
10
0.084852814
20
0.14
30
0
70
32
0
VERTEX
8
0
62
30
10
0.056568542
20
0.1
30
0
70
32
0
SEQEND
8
0
0
POLYLINE
8
0
62
30
66
1
10
0
20
0
30
0
70
8
0
VERTEX
8
0
62
30
10
0.028284271
20
0.12
30
0
70
32
0
VERTEX
8
0
62
30
10
0.056568542
20
0.12
30
0
70
32
0
SEQEND
8
0
0
POLYLINE
8
0
62
30
66
1
10
0
20
0
30
0
70
8
0
VERTEX
8
0
62
30
10
0.084852814
20
0.12
30
0
70
32
0
VERTEX
8
0
62
30
10
0.11313708
20
0.12
30
0
70
32
0
SEQEND
8
0
0
POLYLINE
8
0
62
5
66
1
10
0
20
0
30
0
70
8
0
VERTEX
8
0
62
5
10
0
20
0.12
30
0
70
32
0
VERTEX
8
0
62
5
10
0.014142136
20
0.12
30
0
70
32
0
SEQEND
8
0
0
POLYLINE
8
0
62
5
66
1
10
0
20
0
30
0
70
8
0
VERTEX
8
0
62
5
10
0.056568542
20
0.12
30
0
70
32
0
VERTEX
8
0
62
5
10
0.070710678
20
0.12
30
0
70
32
0
SEQEND
8
0
0
POLYLINE
8
0
62
5
66
1
10
0
20
0
30
0
70
8
0
VERTEX
8
0
62
5
10
0.014142136
20
0.12
30
0
70
32
0
VERTEX
8
0
62
5
10
0.028284271
20
0.12
30
0
70
32
0
SEQEND
8
0
0
POLYLINE
8
0
62
5
66
1
10
0
20
0
30
0
70
8
0
VERTEX
8
0
62
5
10
0.070710678
20
0.12
30
0
70
32
0
VERTEX
8
0
62
5
10
0.084852814
20
0.12
30
0
70
32
0
SEQEND
8
0
0
POLYLINE
8
0
62
5
66
1
10
0
20
0
30
0
70
8
0
VERTEX
8
0
62
5
10
0.028284271
20
0.1
30
0
70
32
0
VERTEX
8
0
62
5
10
0.028284271
20
0.14
30
0
70
32
0
SEQEND
8
0
0
POLYLINE
8
0
62
5
66
1
10
0
20
0
30
0
70
8
0
VERTEX
8
0
62
5
10
0.056568542
20
0.1
30
0
70
32
0
VERTEX
8
0
62
5
10
0.056568542
20
0.14
30
0
70
32
0
SEQEND
8
0
0
POLYLINE
8
0
62
5
66
1
10
0
20
0
30
0
70
8
0
VERTEX
8
0
62
5
10
0.084852814
20
0.1
30
0
70
32
0
VERTEX
8
0
62
5
10
0.084852814
20
0.14
30
0
70
32
0
SEQEND
8
0
0
POLYLINE
8
0
62
5
66
1
10
0
20
0
30
0
70
8
0
VERTEX
8
0
62
5
10
0
20
0.1
30
0
70
32
0
VERTEX
8
0
62
5
10
0
20
0.14
30
0
70
32
0
SEQEND
8
0
0
POLYLINE
8
0
62
5
66
1
10
0
20
0
30
0
70
8
0
VERTEX
8
0
62
5
10
0.22627417
20
0.14
30
0
70
32
0
VERTEX
8
0
62
5
10
0.22627417
20
0.1
30
0
70
32
0
SEQEND
8
0
0
POLYLINE
8
0
62
5
66
1
10
0
20
0
30
0
70
8
0
VERTEX
8
0
62
5
10
0.11313708
20
0.1
30
0
70
32
0
VERTEX
8
0
62
5
10
0.22627417
20
0.1
30
0
70
32
0
SEQEND
8
0
0
POLYLINE
8
0
62
5
66
1
10
0
20
0
30
0
70
8
0
VERTEX
8
0
62
5
10
0.11313708
20
0.14
30
0
70
32
0
VERTEX
8
0
62
5
10
0.22627417
20
0.14
30
0
70
32
0
SEQEND
8
0
0
POLYLINE
8
0
62
5
66
1
10
0
20
0
30
0
70
8
0
VERTEX
8
0
62
5
10
0.14142136
20
0.1
30
0
70
32
0
VERTEX
8
0
62
5
10
0.14142136
20
0.1
30
0
70
32
0
SEQEND
8
0
0
POLYLINE
8
0
62
5
66
1
10
0
20
0
30
0
70
8
0
VERTEX
8
0
62
5
10
0.16970563
20
0.1
30
0
70
32
0
VERTEX
8
0
62
5
10
0.16970563
20
0.1
30
0
70
32
0
SEQEND
8
0
0
POLYLINE
8
0
62
5
66
1
10
0
20
0
30
0
70
8
0
VERTEX
8
0
62
5
10
0.1979899
20
0.1
30
0
70
32
0
VERTEX
8
0
62
5
10
0.1979899
20
0.1
30
0
70
32
0
SEQEND
8
0
0
POLYLINE
8
0
62
5
66
1
10
0
20
0
30
0
70
8
0
VERTEX
8
0
62
5
10
0.14142136
20
0.14
30
0
70
32
0
VERTEX
8
0
62
5
10
0.14142136
20
0.14
30
0
70
32
0
SEQEND
8
0
0
POLYLINE
8
0
62
5
66
1
10
0
20
0
30
0
70
8
0
VERTEX
8
0
62
5
10
0.16970563
20
0.14
30
0
70
32
0
VERTEX
8
0
62
5
10
0.16970563
20
0.14
30
0
70
32
0
SEQEND
8
0
0
POLYLINE
8
0
62
5
66
1
10
0
20
0
30
0
70
8
0
VERTEX
8
0
62
5
10
0.1979899
20
0.14
30
0
70
32
0
VERTEX
8
0
62
5
10
0.1979899
20
0.14
30
0
70
32
0
SEQEND
8
0
0
POLYLINE
8
0
62
30
66
1
10
0
20
0
30
0
70
8
0
VERTEX
8
0
62
30
10
0.11313708
20
0.14
30
0
70
32
0
VERTEX
8
0
62
30
10
0.14142136
20
0.1
30
0
70
32
0
SEQEND
8
0
0
POLYLINE
8
0
62
30
66
1
10
0
20
0
30
0
70
8
0
VERTEX
8
0
62
30
10
0.14142136
20
0.14
30
0
70
32
0
VERTEX
8
0
62
30
10
0.11313708
20
0.1
30
0
70
32
0
SEQEND
8
0
0
POLYLINE
8
0
62
30
66
1
10
0
20
0
30
0
70
8
0
VERTEX
8
0
62
30
10
0.16970563
20
0.14
30
0
70
32
0
VERTEX
8
0
62
30
10
0.1979899
20
0.1
30
0
70
32
0
SEQEND
8
0
0
POLYLINE
8
0
62
30
66
1
10
0
20
0
30
0
70
8
0
VERTEX
8
0
62
30
10
0.1979899
20
0.14
30
0
70
32
0
VERTEX
8
0
62
30
10
0.16970563
20
0.1
30
0
70
32
0
SEQEND
8
0
0
POLYLINE
8
0
62
30
66
1
10
0
20
0
30
0
70
8
0
VERTEX
8
0
62
30
10
0.14142136
20
0.12
30
0
70
32
0
VERTEX
8
0
62
30
10
0.16970563
20
0.12
30
0
70
32
0
SEQEND
8
0
0
POLYLINE
8
0
62
30
66
1
10
0
20
0
30
0
70
8
0
VERTEX
8
0
62
30
10
0.1979899
20
0.12
30
0
70
32
0
VERTEX
8
0
62
30
10
0.22627417
20
0.12
30
0
70
32
0
SEQEND
8
0
0
POLYLINE
8
0
62
5
66
1
10
0
20
0
30
0
70
8
0
VERTEX
8
0
62
5
10
0.11313708
20
0.12
30
0
70
32
0
VERTEX
8
0
62
5
10
0.12727922
20
0.12
30
0
70
32
0
SEQEND
8
0
0
POLYLINE
8
0
62
5
66
1
10
0
20
0
30
0
70
8
0
VERTEX
8
0
62
5
10
0.16970563
20
0.12
30
0
70
32
0
VERTEX
8
0
62
5
10
0.18384776
20
0.12
30
0
70
32
0
SEQEND
8
0
0
POLYLINE
8
0
62
5
66
1
10
0
20
0
30
0
70
8
0
VERTEX
8
0
62
5
10
0.12727922
20
0.12
30
0
70
32
0
VERTEX
8
0
62
5
10
0.14142136
20
0.12
30
0
70
32
0
SEQEND
8
0
0
POLYLINE
8
0
62
5
66
1
10
0
20
0
30
0
70
8
0
VERTEX
8
0
62
5
10
0.18384776
20
0.12
30
0
70
32
0
VERTEX
8
0
62
5
10
0.1979899
20
0.12
30
0
70
32
0
SEQEND
8
0
0
POLYLINE
8
0
62
5
66
1
10
0
20
0
30
0
70
8
0
VERTEX
8
0
62
5
10
0.14142136
20
0.1
30
0
70
32
0
VERTEX
8
0
62
5
10
0.14142136
20
0.14
30
0
70
32
0
SEQEND
8
0
0
POLYLINE
8
0
62
5
66
1
10
0
20
0
30
0
70
8
0
VERTEX
8
0
62
5
10
0.16970563
20
0.1
30
0
70
32
0
VERTEX
8
0
62
5
10
0.16970563
20
0.14
30
0
70
32
0
SEQEND
8
0
0
POLYLINE
8
0
62
5
66
1
10
0
20
0
30
0
70
8
0
VERTEX
8
0
62
5
10
0.1979899
20
0.1
30
0
70
32
0
VERTEX
8
0
62
5
10
0.1979899
20
0.14
30
0
70
32
0
SEQEND
8
0
0
POLYLINE
8
0
62
5
66
1
10
0
20
0
30
0
70
8
0
VERTEX
8
0
62
5
10
0.11313708
20
0.1
30
0
70
32
0
VERTEX
8
0
62
5
10
0.11313708
20
0.14
30
0
70
32
0
SEQEND
8
0
0
POLYLINE
8
0
62
5
66
1
10
0
20
0
30
0
70
8
0
VERTEX
8
0
62
5
10
-0.11313708
20
0.1
30
0
70
32
0
VERTEX
8
0
62
5
10
-0.11313708
20
0.14
30
0
70
32
0
SEQEND
8
0
0
POLYLINE
8
0
62
5
66
1
10
0
20
0
30
0
70
8
0
VERTEX
8
0
62
5
10
-0.11313708
20
0.1
30
0
70
32
0
VERTEX
8
0
62
5
10
0
20
0.1
30
0
70
32
0
SEQEND
8
0
0
POLYLINE
8
0
62
5
66
1
10
0
20
0
30
0
70
8
0
VERTEX
8
0
62
5
10
-0.11313708
20
0.14
30
0
70
32
0
VERTEX
8
0
62
5
10
0
20
0.14
30
0
70
32
0
SEQEND
8
0
0
POLYLINE
8
0
62
5
66
1
10
0
20
0
30
0
70
8
0
VERTEX
8
0
62
5
10
-0.084852814
20
0.1
30
0
70
32
0
VERTEX
8
0
62
5
10
-0.084852814
20
0.1
30
0
70
32
0
SEQEND
8
0
0
POLYLINE
8
0
62
5
66
1
10
0
20
0
30
0
70
8
0
VERTEX
8
0
62
5
10
-0.056568542
20
0.1
30
0
70
32
0
VERTEX
8
0
62
5
10
-0.056568542
20
0.1
30
0
70
32
0
SEQEND
8
0
0
POLYLINE
8
0
62
5
66
1
10
0
20
0
30
0
70
8
0
VERTEX
8
0
62
5
10
-0.028284271
20
0.1
30
0
70
32
0
VERTEX
8
0
62
5
10
-0.028284271
20
0.1
30
0
70
32
0
SEQEND
8
0
0
POLYLINE
8
0
62
5
66
1
10
0
20
0
30
0
70
8
0
VERTEX
8
0
62
5
10
-0.084852814
20
0.14
30
0
70
32
0
VERTEX
8
0
62
5
10
-0.084852814
20
0.14
30
0
70
32
0
SEQEND
8
0
0
POLYLINE
8
0
62
5
66
1
10
0
20
0
30
0
70
8
0
VERTEX
8
0
62
5
10
-0.056568542
20
0.14
30
0
70
32
0
VERTEX
8
0
62
5
10
-0.056568542
20
0.14
30
0
70
32
0
SEQEND
8
0
0
POLYLINE
8
0
62
5
66
1
10
0
20
0
30
0
70
8
0
VERTEX
8
0
62
5
10
-0.028284271
20
0.14
30
0
70
32
0
VERTEX
8
0
62
5
10
-0.028284271
20
0.14
30
0
70
32
0
SEQEND
8
0
0
POLYLINE
8
0
62
30
66
1
10
0
20
0
30
0
70
8
0
VERTEX
8
0
62
30
10
-0.11313708
20
0.14
30
0
70
32
0
VERTEX
8
0
62
30
10
-0.084852814
20
0.1
30
0
70
32
0
SEQEND
8
0
0
POLYLINE
8
0
62
30
66
1
10
0
20
0
30
0
70
8
0
VERTEX
8
0
62
30
10
-0.084852814
20
0.14
30
0
70
32
0
VERTEX
8
0
62
30
10
-0.11313708
20
0.1
30
0
70
32
0
SEQEND
8
0
0
POLYLINE
8
0
62
30
66
1
10
0
20
0
30
0
70
8
0
VERTEX
8
0
62
30
10
-0.056568542
20
0.14
30
0
70
32
0
VERTEX
8
0
62
30
10
-0.028284271
20
0.1
30
0
70
32
0
SEQEND
8
0
0
POLYLINE
8
0
62
30
66
1
10
0
20
0
30
0
70
8
0
VERTEX
8
0
62
30
10
-0.028284271
20
0.14
30
0
70
32
0
VERTEX
8
0
62
30
10
-0.056568542
20
0.1
30
0
70
32
0
SEQEND
8
0
0
POLYLINE
8
0
62
30
66
1
10
0
20
0
30
0
70
8
0
VERTEX
8
0
62
30
10
-0.084852814
20
0.12
30
0
70
32
0
VERTEX
8
0
62
30
10
-0.056568542
20
0.12
30
0
70
32
0
SEQEND
8
0
0
POLYLINE
8
0
62
30
66
1
10
0
20
0
30
0
70
8
0
VERTEX
8
0
62
30
10
-0.028284271
20
0.12
30
0
70
32
0
VERTEX
8
0
62
30
10
0
20
0.12
30
0
70
32
0
SEQEND
8
0
0
POLYLINE
8
0
62
5
66
1
10
0
20
0
30
0
70
8
0
VERTEX
8
0
62
5
10
-0.11313708
20
0.12
30
0
70
32
0
VERTEX
8
0
62
5
10
-0.098994949
20
0.12
30
0
70
32
0
SEQEND
8
0
0
POLYLINE
8
0
62
5
66
1
10
0
20
0
30
0
70
8
0
VERTEX
8
0
62
5
10
-0.056568542
20
0.12
30
0
70
32
0
VERTEX
8
0
62
5
10
-0.042426407
20
0.12
30
0
70
32
0
SEQEND
8
0
0
POLYLINE
8
0
62
5
66
1
10
0
20
0
30
0
70
8
0
VERTEX
8
0
62
5
10
-0.098994949
20
0.12
30
0
70
32
0
VERTEX
8
0
62
5
10
-0.084852814
20
0.12
30
0
70
32
0
SEQEND
8
0
0
POLYLINE
8
0
62
5
66
1
10
0
20
0
30
0
70
8
0
VERTEX
8
0
62
5
10
-0.042426407
20
0.12
30
0
70
32
0
VERTEX
8
0
62
5
10
-0.028284271
20
0.12
30
0
70
32
0
SEQEND
8
0
0
POLYLINE
8
0
62
5
66
1
10
0
20
0
30
0
70
8
0
VERTEX
8
0
62
5
10
-0.084852814
20
0.1
30
0
70
32
0
VERTEX
8
0
62
5
10
-0.084852814
20
0.14
30
0
70
32
0
SEQEND
8
0
0
POLYLINE
8
0
62
5
66
1
10
0
20
0
30
0
70
8
0
VERTEX
8
0
62
5
10
-0.056568542
20
0.1
30
0
70
32
0
VERTEX
8
0
62
5
10
-0.056568542
20
0.14
30
0
70
32
0
SEQEND
8
0
0
POLYLINE
8
0
62
5
66
1
10
0
20
0
30
0
70
8
0
VERTEX
8
0
62
5
10
-0.028284271
20
0.1
30
0
70
32
0
VERTEX
8
0
62
5
10
-0.028284271
20
0.14
30
0
70
32
0
SEQEND
8
0
0
POLYLINE
8
0
62
5
66
1
10
0
20
0
30
0
70
8
0
VERTEX
8
0
62
5
10
-0.11313708
20
0.1
30
0
70
32
0
VERTEX
8
0
62
5
10
-0.11313708
20
0.14
30
0
70
32
0
SEQEND
8
0
0
POLYLINE
8
0
62
5
66
1
10
0
20
0
30
0
70
8
0
VERTEX
8
0
62
5
10
0
20
0.14
30
0
70
32
0
VERTEX
8
0
62
5
10
0
20
0.17848939
30
0
70
32
0
SEQEND
8
0
0
POLYLINE
8
0
62
5
66
1
10
0
20
0
30
0
70
8
0
VERTEX
8
0
62
5
10
0.11313708
20
0.17848939
30
0
70
32
0
VERTEX
8
0
62
5
10
0.11313708
20
0.14
30
0
70
32
0
SEQEND
8
0
0
POLYLINE
8
0
62
5
66
1
10
0
20
0
30
0
70
8
0
VERTEX
8
0
62
5
10
0
20
0.14330187
30
0
70
32
0
VERTEX
8
0
62
5
10
0.028284271
20
0.14330187
30
0
70
32
0
VERTEX
8
0
62
5
10
0.056568542
20
0.15924469
30
0
70
32
0
VERTEX
8
0
62
5
10
0.084852814
20
0.1592447
30
0
70
32
0
VERTEX
8
0
62
5
10
0.11313708
20
0.14330187
30
0
70
32
0
SEQEND
8
0
0
POLYLINE
8
0
62
5
66
1
10
0
20
0
30
0
70
8
0
SEQEND
8
0
0
POLYLINE
8
0
62
5
66
1
10
0
20
0
30
0
70
8
0
VERTEX
8
0
62
5
10
0
20
0.17518752
30
0
70
32
0
VERTEX
8
0
62
5
10
0.028284271
20
0.17518752
30
0
70
32
0
VERTEX
8
0
62
5
10
0.056568542
20
0.1592447
30
0
70
32
0
VERTEX
8
0
62
5
10
0.084852814
20
0.1592447
30
0
70
32
0
VERTEX
8
0
62
5
10
0.11313708
20
0.17518752
30
0
70
32
0
SEQEND
8
0
0
POLYLINE
8
0
62
30
66
1
10
0
20
0
30
0
70
8
0
VERTEX
8
0
62
30
10
0
20
0.1592447
30
0
70
32
0
VERTEX
8
0
62
30
10
0.11313708
20
0.1592447
30
0
70
32
0
SEQEND
8
0
0
POLYLINE
8
0
62
30
66
1
10
0
20
0
30
0
70
8
0
VERTEX
8
0
62
30
10
0.028284271
20
0.14330187
30
0
70
32
0
VERTEX
8
0
62
30
10
0.028284271
20
0.1592447
30
0
70
32
0
SEQEND
8
0
0
POLYLINE
8
0
62
30
66
1
10
0
20
0
30
0
70
8
0
VERTEX
8
0
62
30
10
0.056568542
20
0.15924469
30
0
70
32
0
VERTEX
8
0
62
30
10
0.056568542
20
0.1592447
30
0
70
32
0
SEQEND
8
0
0
POLYLINE
8
0
62
30
66
1
10
0
20
0
30
0
70
8
0
VERTEX
8
0
62
30
10
0.084852814
20
0.1592447
30
0
70
32
0
VERTEX
8
0
62
30
10
0.084852814
20
0.1592447
30
0
70
32
0
SEQEND
8
0
0
POLYLINE
8
0
62
5
66
1
10
0
20
0
30
0
70
8
0
VERTEX
8
0
62
5
10
0.028284271
20
0.14
30
0
70
32
0
VERTEX
8
0
62
5
10
0.028284271
20
0.14330187
30
0
70
32
0
SEQEND
8
0
0
POLYLINE
8
0
62
5
66
1
10
0
20
0
30
0
70
8
0
VERTEX
8
0
62
5
10
0.056568542
20
0.14
30
0
70
32
0
VERTEX
8
0
62
5
10
0.056568542
20
0.15924469
30
0
70
32
0
SEQEND
8
0
0
POLYLINE
8
0
62
5
66
1
10
0
20
0
30
0
70
8
0
VERTEX
8
0
62
5
10
0.084852814
20
0.14
30
0
70
32
0
VERTEX
8
0
62
5
10
0.084852814
20
0.1592447
30
0
70
32
0
SEQEND
8
0
0
POLYLINE
8
0
62
5
66
1
10
0
20
0
30
0
70
8
0
VERTEX
8
0
62
5
10
0.028284271
20
0.1592447
30
0
70
32
0
VERTEX
8
0
62
5
10
0.028284271
20
0.17848939
30
0
70
32
0
SEQEND
8
0
0
POLYLINE
8
0
62
5
66
1
10
0
20
0
30
0
70
8
0
VERTEX
8
0
62
5
10
0.056568542
20
0.1592447
30
0
70
32
0
VERTEX
8
0
62
5
10
0.056568542
20
0.17848939
30
0
70
32
0
SEQEND
8
0
0
POLYLINE
8
0
62
5
66
1
10
0
20
0
30
0
70
8
0
VERTEX
8
0
62
5
10
0.084852814
20
0.1592447
30
0
70
32
0
VERTEX
8
0
62
5
10
0.084852814
20
0.17848939
30
0
70
32
0
SEQEND
8
0
0
POLYLINE
8
0
62
30
66
1
10
0
20
0
30
0
70
8
0
VERTEX
8
0
62
30
10
0
20
0.14330187
30
0
70
32
0
VERTEX
8
0
62
30
10
0.0093146696
20
0.1592447
30
0
70
32
0
VERTEX
8
0
62
30
10
0
20
0.17518752
30
0
70
32
0
SEQEND
8
0
0
POLYLINE
8
0
62
30
66
1
10
0
20
0
30
0
70
8
0
VERTEX
8
0
62
30
10
0.028284271
20
0.14330187
30
0
70
32
0
VERTEX
8
0
62
30
10
0.037598941
20
0.1592447
30
0
70
32
0
VERTEX
8
0
62
30
10
0.028284271
20
0.17518752
30
0
70
32
0
SEQEND
8
0
0
POLYLINE
8
0
62
30
66
1
10
0
20
0
30
0
70
8
0
VERTEX
8
0
62
30
10
0.056568542
20
0.15924469
30
0
70
32
0
VERTEX
8
0
62
30
10
0.056568543
20
0.1592447
30
0
70
32
0
VERTEX
8
0
62
30
10
0.056568542
20
0.1592447
30
0
70
32
0
SEQEND
8
0
0
POLYLINE
8
0
62
30
66
1
10
0
20
0
30
0
70
8
0
VERTEX
8
0
62
30
10
0.084852814
20
0.1592447
30
0
70
32
0
VERTEX
8
0
62
30
10
0.084852814
20
0.1592447
30
0
70
32
0
VERTEX
8
0
62
30
10
0.084852814
20
0.1592447
30
0
70
32
0
SEQEND
8
0
0
POLYLINE
8
0
62
5
66
1
10
0
20
0
30
0
70
8
0
VERTEX
8
0
62
5
10
0.22627417
20
0.17848939
30
0
70
32
0
VERTEX
8
0
62
5
10
0.22627417
20
0.14
30
0
70
32
0
SEQEND
8
0
0
POLYLINE
8
0
62
5
66
1
10
0
20
0
30
0
70
8
0
VERTEX
8
0
62
5
10
0.11313708
20
0.14330187
30
0
70
32
0
VERTEX
8
0
62
5
10
0.14142136
20
0.14330187
30
0
70
32
0
VERTEX
8
0
62
5
10
0.16970563
20
0.15924469
30
0
70
32
0
VERTEX
8
0
62
5
10
0.1979899
20
0.1592447
30
0
70
32
0
VERTEX
8
0
62
5
10
0.22627417
20
0.14330187
30
0
70
32
0
SEQEND
8
0
0
POLYLINE
8
0
62
5
66
1
10
0
20
0
30
0
70
8
0
SEQEND
8
0
0
POLYLINE
8
0
62
5
66
1
10
0
20
0
30
0
70
8
0
VERTEX
8
0
62
5
10
0.11313708
20
0.17518752
30
0
70
32
0
VERTEX
8
0
62
5
10
0.14142136
20
0.17518752
30
0
70
32
0
VERTEX
8
0
62
5
10
0.16970563
20
0.1592447
30
0
70
32
0
VERTEX
8
0
62
5
10
0.1979899
20
0.1592447
30
0
70
32
0
VERTEX
8
0
62
5
10
0.22627417
20
0.17518752
30
0
70
32
0
SEQEND
8
0
0
POLYLINE
8
0
62
30
66
1
10
0
20
0
30
0
70
8
0
VERTEX
8
0
62
30
10
0.11313708
20
0.1592447
30
0
70
32
0
VERTEX
8
0
62
30
10
0.22627417
20
0.1592447
30
0
70
32
0
SEQEND
8
0
0
POLYLINE
8
0
62
30
66
1
10
0
20
0
30
0
70
8
0
VERTEX
8
0
62
30
10
0.14142136
20
0.14330187
30
0
70
32
0
VERTEX
8
0
62
30
10
0.14142136
20
0.1592447
30
0
70
32
0
SEQEND
8
0
0
POLYLINE
8
0
62
30
66
1
10
0
20
0
30
0
70
8
0
VERTEX
8
0
62
30
10
0.16970563
20
0.15924469
30
0
70
32
0
VERTEX
8
0
62
30
10
0.16970563
20
0.1592447
30
0
70
32
0
SEQEND
8
0
0
POLYLINE
8
0
62
30
66
1
10
0
20
0
30
0
70
8
0
VERTEX
8
0
62
30
10
0.1979899
20
0.1592447
30
0
70
32
0
VERTEX
8
0
62
30
10
0.1979899
20
0.1592447
30
0
70
32
0
SEQEND
8
0
0
POLYLINE
8
0
62
5
66
1
10
0
20
0
30
0
70
8
0
VERTEX
8
0
62
5
10
0.14142136
20
0.14
30
0
70
32
0
VERTEX
8
0
62
5
10
0.14142136
20
0.14330187
30
0
70
32
0
SEQEND
8
0
0
POLYLINE
8
0
62
5
66
1
10
0
20
0
30
0
70
8
0
VERTEX
8
0
62
5
10
0.16970563
20
0.14
30
0
70
32
0
VERTEX
8
0
62
5
10
0.16970563
20
0.15924469
30
0
70
32
0
SEQEND
8
0
0
POLYLINE
8
0
62
5
66
1
10
0
20
0
30
0
70
8
0
VERTEX
8
0
62
5
10
0.1979899
20
0.14
30
0
70
32
0
VERTEX
8
0
62
5
10
0.1979899
20
0.1592447
30
0
70
32
0
SEQEND
8
0
0
POLYLINE
8
0
62
5
66
1
10
0
20
0
30
0
70
8
0
VERTEX
8
0
62
5
10
0.14142136
20
0.1592447
30
0
70
32
0
VERTEX
8
0
62
5
10
0.14142136
20
0.17848939
30
0
70
32
0
SEQEND
8
0
0
POLYLINE
8
0
62
5
66
1
10
0
20
0
30
0
70
8
0
VERTEX
8
0
62
5
10
0.16970563
20
0.1592447
30
0
70
32
0
VERTEX
8
0
62
5
10
0.16970563
20
0.17848939
30
0
70
32
0
SEQEND
8
0
0
POLYLINE
8
0
62
5
66
1
10
0
20
0
30
0
70
8
0
VERTEX
8
0
62
5
10
0.1979899
20
0.1592447
30
0
70
32
0
VERTEX
8
0
62
5
10
0.1979899
20
0.17848939
30
0
70
32
0
SEQEND
8
0
0
POLYLINE
8
0
62
30
66
1
10
0
20
0
30
0
70
8
0
VERTEX
8
0
62
30
10
0.11313708
20
0.14330187
30
0
70
32
0
VERTEX
8
0
62
30
10
0.12245175
20
0.1592447
30
0
70
32
0
VERTEX
8
0
62
30
10
0.11313708
20
0.17518752
30
0
70
32
0
SEQEND
8
0
0
POLYLINE
8
0
62
30
66
1
10
0
20
0
30
0
70
8
0
VERTEX
8
0
62
30
10
0.14142136
20
0.14330187
30
0
70
32
0
VERTEX
8
0
62
30
10
0.15073603
20
0.1592447
30
0
70
32
0
VERTEX
8
0
62
30
10
0.14142136
20
0.17518752
30
0
70
32
0
SEQEND
8
0
0
POLYLINE
8
0
62
30
66
1
10
0
20
0
30
0
70
8
0
VERTEX
8
0
62
30
10
0.16970563
20
0.15924469
30
0
70
32
0
VERTEX
8
0
62
30
10
0.16970563
20
0.1592447
30
0
70
32
0
VERTEX
8
0
62
30
10
0.16970563
20
0.1592447
30
0
70
32
0
SEQEND
8
0
0
POLYLINE
8
0
62
30
66
1
10
0
20
0
30
0
70
8
0
VERTEX
8
0
62
30
10
0.1979899
20
0.1592447
30
0
70
32
0
VERTEX
8
0
62
30
10
0.1979899
20
0.1592447
30
0
70
32
0
VERTEX
8
0
62
30
10
0.1979899
20
0.1592447
30
0
70
32
0
SEQEND
8
0
0
POLYLINE
8
0
62
5
66
1
10
0
20
0
30
0
70
8
0
VERTEX
8
0
62
5
10
-0.11313708
20
0.14
30
0
70
32
0
VERTEX
8
0
62
5
10
-0.11313708
20
0.17848939
30
0
70
32
0
SEQEND
8
0
0
POLYLINE
8
0
62
5
66
1
10
0
20
0
30
0
70
8
0
VERTEX
8
0
62
5
10
-0.11313708
20
0.14330187
30
0
70
32
0
VERTEX
8
0
62
5
10
-0.084852814
20
0.14330187
30
0
70
32
0
VERTEX
8
0
62
5
10
-0.056568542
20
0.15924469
30
0
70
32
0
VERTEX
8
0
62
5
10
-0.028284271
20
0.1592447
30
0
70
32
0
VERTEX
8
0
62
5
10
0
20
0.14330187
30
0
70
32
0
SEQEND
8
0
0
POLYLINE
8
0
62
5
66
1
10
0
20
0
30
0
70
8
0
SEQEND
8
0
0
POLYLINE
8
0
62
5
66
1
10
0
20
0
30
0
70
8
0
VERTEX
8
0
62
5
10
-0.11313708
20
0.17518752
30
0
70
32
0
VERTEX
8
0
62
5
10
-0.084852814
20
0.17518752
30
0
70
32
0
VERTEX
8
0
62
5
10
-0.056568542
20
0.1592447
30
0
70
32
0
VERTEX
8
0
62
5
10
-0.028284271
20
0.1592447
30
0
70
32
0
VERTEX
8
0
62
5
10
0
20
0.17518752
30
0
70
32
0
SEQEND
8
0
0
POLYLINE
8
0
62
30
66
1
10
0
20
0
30
0
70
8
0
VERTEX
8
0
62
30
10
-0.11313708
20
0.1592447
30
0
70
32
0
VERTEX
8
0
62
30
10
0
20
0.1592447
30
0
70
32
0
SEQEND
8
0
0
POLYLINE
8
0
62
30
66
1
10
0
20
0
30
0
70
8
0
VERTEX
8
0
62
30
10
-0.084852814
20
0.14330187
30
0
70
32
0
VERTEX
8
0
62
30
10
-0.084852814
20
0.1592447
30
0
70
32
0
SEQEND
8
0
0
POLYLINE
8
0
62
30
66
1
10
0
20
0
30
0
70
8
0
VERTEX
8
0
62
30
10
-0.056568542
20
0.15924469
30
0
70
32
0
VERTEX
8
0
62
30
10
-0.056568542
20
0.1592447
30
0
70
32
0
SEQEND
8
0
0
POLYLINE
8
0
62
30
66
1
10
0
20
0
30
0
70
8
0
VERTEX
8
0
62
30
10
-0.028284271
20
0.1592447
30
0
70
32
0
VERTEX
8
0
62
30
10
-0.028284271
20
0.1592447
30
0
70
32
0
SEQEND
8
0
0
POLYLINE
8
0
62
5
66
1
10
0
20
0
30
0
70
8
0
VERTEX
8
0
62
5
10
-0.084852814
20
0.14
30
0
70
32
0
VERTEX
8
0
62
5
10
-0.084852814
20
0.14330187
30
0
70
32
0
SEQEND
8
0
0
POLYLINE
8
0
62
5
66
1
10
0
20
0
30
0
70
8
0
VERTEX
8
0
62
5
10
-0.056568542
20
0.14
30
0
70
32
0
VERTEX
8
0
62
5
10
-0.056568542
20
0.15924469
30
0
70
32
0
SEQEND
8
0
0
POLYLINE
8
0
62
5
66
1
10
0
20
0
30
0
70
8
0
VERTEX
8
0
62
5
10
-0.028284271
20
0.14
30
0
70
32
0
VERTEX
8
0
62
5
10
-0.028284271
20
0.1592447
30
0
70
32
0
SEQEND
8
0
0
POLYLINE
8
0
62
5
66
1
10
0
20
0
30
0
70
8
0
VERTEX
8
0
62
5
10
-0.084852814
20
0.1592447
30
0
70
32
0
VERTEX
8
0
62
5
10
-0.084852814
20
0.17848939
30
0
70
32
0
SEQEND
8
0
0
POLYLINE
8
0
62
5
66
1
10
0
20
0
30
0
70
8
0
VERTEX
8
0
62
5
10
-0.056568542
20
0.1592447
30
0
70
32
0
VERTEX
8
0
62
5
10
-0.056568542
20
0.17848939
30
0
70
32
0
SEQEND
8
0
0
POLYLINE
8
0
62
5
66
1
10
0
20
0
30
0
70
8
0
VERTEX
8
0
62
5
10
-0.028284271
20
0.1592447
30
0
70
32
0
VERTEX
8
0
62
5
10
-0.028284271
20
0.17848939
30
0
70
32
0
SEQEND
8
0
0
POLYLINE
8
0
62
30
66
1
10
0
20
0
30
0
70
8
0
VERTEX
8
0
62
30
10
-0.11313708
20
0.14330187
30
0
70
32
0
VERTEX
8
0
62
30
10
-0.10382242
20
0.1592447
30
0
70
32
0
VERTEX
8
0
62
30
10
-0.11313708
20
0.17518752
30
0
70
32
0
SEQEND
8
0
0
POLYLINE
8
0
62
30
66
1
10
0
20
0
30
0
70
8
0
VERTEX
8
0
62
30
10
-0.084852814
20
0.14330187
30
0
70
32
0
VERTEX
8
0
62
30
10
-0.075538144
20
0.1592447
30
0
70
32
0
VERTEX
8
0
62
30
10
-0.084852814
20
0.17518752
30
0
70
32
0
SEQEND
8
0
0
POLYLINE
8
0
62
30
66
1
10
0
20
0
30
0
70
8
0
VERTEX
8
0
62
30
10
-0.056568542
20
0.15924469
30
0
70
32
0
VERTEX
8
0
62
30
10
-0.056568542
20
0.1592447
30
0
70
32
0
VERTEX
8
0
62
30
10
-0.056568542
20
0.1592447
30
0
70
32
0
SEQEND
8
0
0
POLYLINE
8
0
62
30
66
1
10
0
20
0
30
0
70
8
0
VERTEX
8
0
62
30
10
-0.028284271
20
0.1592447
30
0
70
32
0
VERTEX
8
0
62
30
10
-0.028284271
20
0.1592447
30
0
70
32
0
VERTEX
8
0
62
30
10
-0.028284271
20
0.1592447
30
0
70
32
0
SEQEND
8
0
0
POLYLINE
8
0
62
5
66
1
10
0
20
0
30
0
70
8
0
VERTEX
8
0
62
5
10
0
20
0.17848939
30
0
70
32
0
VERTEX
8
0
62
5
10
0
20
0.21273558
30
0
70
32
0
SEQEND
8
0
0
POLYLINE
8
0
62
5
66
1
10
0
20
0
30
0
70
8
0
VERTEX
8
0
62
5
10
0.028284271
20
0.17848939
30
0
70
32
0
VERTEX
8
0
62
5
10
0.028284271
20
0.21273558
30
0
70
32
0
SEQEND
8
0
0
POLYLINE
8
0
62
5
66
1
10
0
20
0
30
0
70
8
0
VERTEX
8
0
62
5
10
0.056568542
20
0.17848939
30
0
70
32
0
VERTEX
8
0
62
5
10
0.056568542
20
0.21273558
30
0
70
32
0
SEQEND
8
0
0
POLYLINE
8
0
62
5
66
1
10
0
20
0
30
0
70
8
0
VERTEX
8
0
62
5
10
0.084852814
20
0.17848939
30
0
70
32
0
VERTEX
8
0
62
5
10
0.084852814
20
0.21273558
30
0
70
32
0
SEQEND
8
0
0
POLYLINE
8
0
62
5
66
1
10
0
20
0
30
0
70
8
0
VERTEX
8
0
62
5
10
0.11313708
20
0.17848939
30
0
70
32
0
VERTEX
8
0
62
5
10
0.11313708
20
0.21273558
30
0
70
32
0
SEQEND
8
0
0
POLYLINE
8
0
62
5
66
1
10
0
20
0
30
0
70
8
0
VERTEX
8
0
62
5
10
0.028284271
20
0.17848939
30
0
70
32
0
VERTEX
8
0
62
5
10
0.028284271
20
0.17848939
30
0
70
32
0
SEQEND
8
0
0
POLYLINE
8
0
62
5
66
1
10
0
20
0
30
0
70
8
0
VERTEX
8
0
62
5
10
0.056568542
20
0.17848939
30
0
70
32
0
VERTEX
8
0
62
5
10
0.056568542
20
0.17848939
30
0
70
32
0
SEQEND
8
0
0
POLYLINE
8
0
62
5
66
1
10
0
20
0
30
0
70
8
0
VERTEX
8
0
62
5
10
0.084852814
20
0.17848939
30
0
70
32
0
VERTEX
8
0
62
5
10
0.084852814
20
0.17848939
30
0
70
32
0
SEQEND
8
0
0
POLYLINE
8
0
62
5
66
1
10
0
20
0
30
0
70
8
0
VERTEX
8
0
62
5
10
0.028284271
20
0.21273558
30
0
70
32
0
VERTEX
8
0
62
5
10
0.028284271
20
0.21273558
30
0
70
32
0
SEQEND
8
0
0
POLYLINE
8
0
62
5
66
1
10
0
20
0
30
0
70
8
0
VERTEX
8
0
62
5
10
0.056568542
20
0.21273558
30
0
70
32
0
VERTEX
8
0
62
5
10
0.056568542
20
0.21273558
30
0
70
32
0
SEQEND
8
0
0
POLYLINE
8
0
62
5
66
1
10
0
20
0
30
0
70
8
0
VERTEX
8
0
62
5
10
0.084852813
20
0.21273558
30
0
70
32
0
VERTEX
8
0
62
5
10
0.084852813
20
0.21273558
30
0
70
32
0
SEQEND
8
0
0
POLYLINE
8
0
62
5
66
1
10
0
20
0
30
0
70
8
0
VERTEX
8
0
62
5
10
0.11313708
20
0.21273558
30
0
70
32
0
VERTEX
8
0
62
5
10
0.11313708
20
0.21273558
30
0
70
32
0
SEQEND
8
0
0
POLYLINE
8
0
62
5
66
1
10
0
20
0
30
0
70
8
0
VERTEX
8
0
62
5
10
0.14142136
20
0.17848939
30
0
70
32
0
VERTEX
8
0
62
5
10
0.14142136
20
0.21273558
30
0
70
32
0
SEQEND
8
0
0
POLYLINE
8
0
62
5
66
1
10
0
20
0
30
0
70
8
0
VERTEX
8
0
62
5
10
0.16970563
20
0.17848939
30
0
70
32
0
VERTEX
8
0
62
5
10
0.16970563
20
0.21273558
30
0
70
32
0
SEQEND
8
0
0
POLYLINE
8
0
62
5
66
1
10
0
20
0
30
0
70
8
0
VERTEX
8
0
62
5
10
0.1979899
20
0.17848939
30
0
70
32
0
VERTEX
8
0
62
5
10
0.1979899
20
0.21273558
30
0
70
32
0
SEQEND
8
0
0
POLYLINE
8
0
62
5
66
1
10
0
20
0
30
0
70
8
0
VERTEX
8
0
62
5
10
0.22627417
20
0.17848939
30
0
70
32
0
VERTEX
8
0
62
5
10
0.22627417
20
0.21273558
30
0
70
32
0
SEQEND
8
0
0
POLYLINE
8
0
62
5
66
1
10
0
20
0
30
0
70
8
0
VERTEX
8
0
62
5
10
0.14142136
20
0.17848939
30
0
70
32
0
VERTEX
8
0
62
5
10
0.14142136
20
0.17848939
30
0
70
32
0
SEQEND
8
0
0
POLYLINE
8
0
62
5
66
1
10
0
20
0
30
0
70
8
0
VERTEX
8
0
62
5
10
0.16970563
20
0.17848939
30
0
70
32
0
VERTEX
8
0
62
5
10
0.16970563
20
0.17848939
30
0
70
32
0
SEQEND
8
0
0
POLYLINE
8
0
62
5
66
1
10
0
20
0
30
0
70
8
0
VERTEX
8
0
62
5
10
0.1979899
20
0.17848939
30
0
70
32
0
VERTEX
8
0
62
5
10
0.1979899
20
0.17848939
30
0
70
32
0
SEQEND
8
0
0
POLYLINE
8
0
62
5
66
1
10
0
20
0
30
0
70
8
0
VERTEX
8
0
62
5
10
0.14142136
20
0.21273558
30
0
70
32
0
VERTEX
8
0
62
5
10
0.14142136
20
0.21273558
30
0
70
32
0
SEQEND
8
0
0
POLYLINE
8
0
62
5
66
1
10
0
20
0
30
0
70
8
0
VERTEX
8
0
62
5
10
0.16970563
20
0.21273558
30
0
70
32
0
VERTEX
8
0
62
5
10
0.16970563
20
0.21273558
30
0
70
32
0
SEQEND
8
0
0
POLYLINE
8
0
62
5
66
1
10
0
20
0
30
0
70
8
0
VERTEX
8
0
62
5
10
0.1979899
20
0.21273558
30
0
70
32
0
VERTEX
8
0
62
5
10
0.1979899
20
0.21273558
30
0
70
32
0
SEQEND
8
0
0
POLYLINE
8
0
62
5
66
1
10
0
20
0
30
0
70
8
0
VERTEX
8
0
62
5
10
0.22627417
20
0.21273558
30
0
70
32
0
VERTEX
8
0
62
5
10
0.22627417
20
0.21273558
30
0
70
32
0
SEQEND
8
0
0
POLYLINE
8
0
62
5
66
1
10
0
20
0
30
0
70
8
0
VERTEX
8
0
62
5
10
-0.084852814
20
0.17848939
30
0
70
32
0
VERTEX
8
0
62
5
10
-0.084852814
20
0.21273558
30
0
70
32
0
SEQEND
8
0
0
POLYLINE
8
0
62
5
66
1
10
0
20
0
30
0
70
8
0
VERTEX
8
0
62
5
10
-0.056568542
20
0.17848939
30
0
70
32
0
VERTEX
8
0
62
5
10
-0.056568542
20
0.21273558
30
0
70
32
0
SEQEND
8
0
0
POLYLINE
8
0
62
5
66
1
10
0
20
0
30
0
70
8
0
VERTEX
8
0
62
5
10
-0.028284271
20
0.17848939
30
0
70
32
0
VERTEX
8
0
62
5
10
-0.028284271
20
0.21273558
30
0
70
32
0
SEQEND
8
0
0
POLYLINE
8
0
62
5
66
1
10
0
20
0
30
0
70
8
0
VERTEX
8
0
62
5
10
0
20
0.17848939
30
0
70
32
0
VERTEX
8
0
62
5
10
0
20
0.21273558
30
0
70
32
0
SEQEND
8
0
0
POLYLINE
8
0
62
5
66
1
10
0
20
0
30
0
70
8
0
VERTEX
8
0
62
5
10
-0.084852814
20
0.17848939
30
0
70
32
0
VERTEX
8
0
62
5
10
-0.084852814
20
0.17848939
30
0
70
32
0
SEQEND
8
0
0
POLYLINE
8
0
62
5
66
1
10
0
20
0
30
0
70
8
0
VERTEX
8
0
62
5
10
-0.056568542
20
0.17848939
30
0
70
32
0
VERTEX
8
0
62
5
10
-0.056568542
20
0.17848939
30
0
70
32
0
SEQEND
8
0
0
POLYLINE
8
0
62
5
66
1
10
0
20
0
30
0
70
8
0
VERTEX
8
0
62
5
10
-0.028284271
20
0.17848939
30
0
70
32
0
VERTEX
8
0
62
5
10
-0.028284271
20
0.17848939
30
0
70
32
0
SEQEND
8
0
0
POLYLINE
8
0
62
5
66
1
10
0
20
0
30
0
70
8
0
VERTEX
8
0
62
5
10
-0.084852814
20
0.21273558
30
0
70
32
0
VERTEX
8
0
62
5
10
-0.084852814
20
0.21273558
30
0
70
32
0
SEQEND
8
0
0
POLYLINE
8
0
62
5
66
1
10
0
20
0
30
0
70
8
0
VERTEX
8
0
62
5
10
-0.056568543
20
0.21273558
30
0
70
32
0
VERTEX
8
0
62
5
10
-0.056568543
20
0.21273558
30
0
70
32
0
SEQEND
8
0
0
POLYLINE
8
0
62
5
66
1
10
0
20
0
30
0
70
8
0
VERTEX
8
0
62
5
10
-0.028284272
20
0.21273558
30
0
70
32
0
VERTEX
8
0
62
5
10
-0.028284272
20
0.21273558
30
0
70
32
0
SEQEND
8
0
0
POLYLINE
8
0
62
5
66
1
10
0
20
0
30
0
70
8
0
VERTEX
8
0
62
5
10
-4.8918074e-10
20
0.21273558
30
0
70
32
0
VERTEX
8
0
62
5
10
-4.8918074e-10
20
0.21273558
30
0
70
32
0
SEQEND
8
0
0
POLYLINE
8
0
62
5
66
1
10
0
20
0
30
0
70
8
0
VERTEX
8
0
62
5
10
0.056568542
20
0.21273558
30
0
70
32
0
VERTEX
8
0
62
5
10
0.056568542
20
0.34972032
30
0
70
32
0
SEQEND
8
0
0
POLYLINE
8
0
62
5
66
1
10
0
20
0
30
0
70
8
0
VERTEX
8
0
62
5
10
0.16970563
20
0.21273558
30
0
70
32
0
VERTEX
8
0
62
5
10
0.16970563
20
0.34972032
30
0
70
32
0
SEQEND
8
0
0
POLYLINE
8
0
62
5
66
1
10
0
20
0
30
0
70
8
0
VERTEX
8
0
62
5
10
0.084852813
20
0.21273558
30
0
70
32
0
VERTEX
8
0
62
5
10
0.084852813
20
0.34972032
30
0
70
32
0
SEQEND
8
0
0
POLYLINE
8
0
62
5
66
1
10
0
20
0
30
0
70
8
0
VERTEX
8
0
62
5
10
0.11313708
20
0.21273558
30
0
70
32
0
VERTEX
8
0
62
5
10
0.11313708
20
0.34972032
30
0
70
32
0
SEQEND
8
0
0
POLYLINE
8
0
62
5
66
1
10
0
20
0
30
0
70
8
0
VERTEX
8
0
62
5
10
0.14142136
20
0.21273558
30
0
70
32
0
VERTEX
8
0
62
5
10
0.14142136
20
0.34972032
30
0
70
32
0
SEQEND
8
0
0
POLYLINE
8
0
62
5
66
1
10
0
20
0
30
0
70
8
0
VERTEX
8
0
62
5
10
0.28284271
20
0.21273558
30
0
70
32
0
VERTEX
8
0
62
5
10
0.28284271
20
0.34972032
30
0
70
32
0
SEQEND
8
0
0
POLYLINE
8
0
62
5
66
1
10
0
20
0
30
0
70
8
0
VERTEX
8
0
62
5
10
0.1979899
20
0.21273558
30
0
70
32
0
VERTEX
8
0
62
5
10
0.1979899
20
0.34972032
30
0
70
32
0
SEQEND
8
0
0
POLYLINE
8
0
62
5
66
1
10
0
20
0
30
0
70
8
0
VERTEX
8
0
62
5
10
0.22627417
20
0.21273558
30
0
70
32
0
VERTEX
8
0
62
5
10
0.22627417
20
0.34972032
30
0
70
32
0
SEQEND
8
0
0
POLYLINE
8
0
62
5
66
1
10
0
20
0
30
0
70
8
0
VERTEX
8
0
62
5
10
0.25455844
20
0.21273558
30
0
70
32
0
VERTEX
8
0
62
5
10
0.25455844
20
0.34972032
30
0
70
32
0
SEQEND
8
0
0
POLYLINE
8
0
62
5
66
1
10
0
20
0
30
0
70
8
0
VERTEX
8
0
62
5
10
-0.056568543
20
0.21273558
30
0
70
32
0
VERTEX
8
0
62
5
10
-0.056568543
20
0.34972032
30
0
70
32
0
SEQEND
8
0
0
POLYLINE
8
0
62
5
66
1
10
0
20
0
30
0
70
8
0
VERTEX
8
0
62
5
10
-0.028284272
20
0.21273558
30
0
70
32
0
VERTEX
8
0
62
5
10
-0.028284272
20
0.34972032
30
0
70
32
0
SEQEND
8
0
0
POLYLINE
8
0
62
5
66
1
10
0
20
0
30
0
70
8
0
VERTEX
8
0
62
5
10
-4.8918072e-10
20
0.21273558
30
0
70
32
0
VERTEX
8
0
62
5
10
-4.8918072e-10
20
0.34972032
30
0
70
32
0
SEQEND
8
0
0
POLYLINE
8
0
62
5
66
1
10
0
20
0
30
0
70
8
0
VERTEX
8
0
62
5
10
0.028284271
20
0.21273558
30
0
70
32
0
VERTEX
8
0
62
5
10
0.028284271
20
0.34972032
30
0
70
32
0
SEQEND
8
0
0
POLYLINE
8
0
62
5
66
1
10
0
20
0
30
0
70
8
0
VERTEX
8
0
62
5
10
0.056568542
20
0.34972032
30
0
70
32
0
VERTEX
8
0
62
5
10
0.056568542
20
0.45339726
30
0
70
32
0
SEQEND
8
0
0
POLYLINE
8
0
62
5
66
1
10
0
20
0
30
0
70
8
0
VERTEX
8
0
62
5
10
0.16970563
20
0.45339726
30
0
70
32
0
VERTEX
8
0
62
5
10
0.16970563
20
0.34972032
30
0
70
32
0
SEQEND
8
0
0
POLYLINE
8
0
62
5
66
1
10
0
20
0
30
0
70
8
0
VERTEX
8
0
62
5
10
0.056568542
20
0.35416736
30
0
70
32
0
VERTEX
8
0
62
5
10
0.084852813
20
0.35416736
30
0
70
32
0
VERTEX
8
0
62
5
10
0.11313708
20
0.37563956
30
0
70
32
0
VERTEX
8
0
62
5
10
0.14142136
20
0.37563956
30
0
70
32
0
VERTEX
8
0
62
5
10
0.16970563
20
0.35416736
30
0
70
32
0
SEQEND
8
0
0
POLYLINE
8
0
62
5
66
1
10
0
20
0
30
0
70
8
0
VERTEX
8
0
62
5
10
0.056568542
20
0.40600583
30
0
70
32
0
VERTEX
8
0
62
5
10
0.084852813
20
0.40600583
30
0
70
32
0
VERTEX
8
0
62
5
10
0.11313708
20
0.42747802
30
0
70
32
0
VERTEX
8
0
62
5
10
0.14142136
20
0.42747802
30
0
70
32
0
VERTEX
8
0
62
5
10
0.16970563
20
0.40600583
30
0
70
32
0
SEQEND
8
0
0
POLYLINE
8
0
62
5
66
1
10
0
20
0
30
0
70
8
0
VERTEX
8
0
62
5
10
0.056568542
20
0.39711175
30
0
70
32
0
VERTEX
8
0
62
5
10
0.084852813
20
0.39711175
30
0
70
32
0
VERTEX
8
0
62
5
10
0.11313708
20
0.37563956
30
0
70
32
0
VERTEX
8
0
62
5
10
0.14142136
20
0.37563956
30
0
70
32
0
VERTEX
8
0
62
5
10
0.16970563
20
0.39711175
30
0
70
32
0
SEQEND
8
0
0
POLYLINE
8
0
62
5
66
1
10
0
20
0
30
0
70
8
0
VERTEX
8
0
62
5
10
0.056568542
20
0.44895022
30
0
70
32
0
VERTEX
8
0
62
5
10
0.084852813
20
0.44895022
30
0
70
32
0
VERTEX
8
0
62
5
10
0.11313708
20
0.42747802
30
0
70
32
0
VERTEX
8
0
62
5
10
0.14142136
20
0.42747802
30
0
70
32
0
VERTEX
8
0
62
5
10
0.16970563
20
0.44895022
30
0
70
32
0
SEQEND
8
0
0
POLYLINE
8
0
62
30
66
1
10
0
20
0
30
0
70
8
0
VERTEX
8
0
62
30
10
0.056568542
20
0.37563956
30
0
70
32
0
VERTEX
8
0
62
30
10
0.16970563
20
0.37563956
30
0
70
32
0
SEQEND
8
0
0
POLYLINE
8
0
62
30
66
1
10
0
20
0
30
0
70
8
0
VERTEX
8
0
62
30
10
0.056568542
20
0.42747802
30
0
70
32
0
VERTEX
8
0
62
30
10
0.16970563
20
0.42747802
30
0
70
32
0
SEQEND
8
0
0
POLYLINE
8
0
62
30
66
1
10
0
20
0
30
0
70
8
0
VERTEX
8
0
62
30
10
0.084852813
20
0.35416736
30
0
70
32
0
VERTEX
8
0
62
30
10
0.084852813
20
0.37563956
30
0
70
32
0
SEQEND
8
0
0
POLYLINE
8
0
62
30
66
1
10
0
20
0
30
0
70
8
0
VERTEX
8
0
62
30
10
0.11313708
20
0.37563956
30
0
70
32
0
VERTEX
8
0
62
30
10
0.11313708
20
0.37563956
30
0
70
32
0
SEQEND
8
0
0
POLYLINE
8
0
62
30
66
1
10
0
20
0
30
0
70
8
0
VERTEX
8
0
62
30
10
0.14142136
20
0.37563956
30
0
70
32
0
VERTEX
8
0
62
30
10
0.14142136
20
0.37563956
30
0
70
32
0
SEQEND
8
0
0
POLYLINE
8
0
62
30
66
1
10
0
20
0
30
0
70
8
0
VERTEX
8
0
62
30
10
0.084852813
20
0.40600583
30
0
70
32
0
VERTEX
8
0
62
30
10
0.084852813
20
0.42747802
30
0
70
32
0
SEQEND
8
0
0
POLYLINE
8
0
62
30
66
1
10
0
20
0
30
0
70
8
0
VERTEX
8
0
62
30
10
0.11313708
20
0.42747802
30
0
70
32
0
VERTEX
8
0
62
30
10
0.11313708
20
0.42747802
30
0
70
32
0
SEQEND
8
0
0
POLYLINE
8
0
62
30
66
1
10
0
20
0
30
0
70
8
0
VERTEX
8
0
62
30
10
0.14142136
20
0.42747802
30
0
70
32
0
VERTEX
8
0
62
30
10
0.14142136
20
0.42747802
30
0
70
32
0
SEQEND
8
0
0
POLYLINE
8
0
62
5
66
1
10
0
20
0
30
0
70
8
0
VERTEX
8
0
62
5
10
0.084852813
20
0.34972032
30
0
70
32
0
VERTEX
8
0
62
5
10
0.084852813
20
0.35416736
30
0
70
32
0
SEQEND
8
0
0
POLYLINE
8
0
62
5
66
1
10
0
20
0
30
0
70
8
0
VERTEX
8
0
62
5
10
0.11313708
20
0.34972032
30
0
70
32
0
VERTEX
8
0
62
5
10
0.11313708
20
0.37563956
30
0
70
32
0
SEQEND
8
0
0
POLYLINE
8
0
62
5
66
1
10
0
20
0
30
0
70
8
0
VERTEX
8
0
62
5
10
0.14142136
20
0.34972032
30
0
70
32
0
VERTEX
8
0
62
5
10
0.14142136
20
0.37563956
30
0
70
32
0
SEQEND
8
0
0
POLYLINE
8
0
62
5
66
1
10
0
20
0
30
0
70
8
0
VERTEX
8
0
62
5
10
0.084852813
20
0.40155879
30
0
70
32
0
VERTEX
8
0
62
5
10
0.084852813
20
0.40600583
30
0
70
32
0
SEQEND
8
0
0
POLYLINE
8
0
62
5
66
1
10
0
20
0
30
0
70
8
0
VERTEX
8
0
62
5
10
0.11313708
20
0.40155879
30
0
70
32
0
VERTEX
8
0
62
5
10
0.11313708
20
0.42747802
30
0
70
32
0
SEQEND
8
0
0
POLYLINE
8
0
62
5
66
1
10
0
20
0
30
0
70
8
0
VERTEX
8
0
62
5
10
0.14142136
20
0.40155879
30
0
70
32
0
VERTEX
8
0
62
5
10
0.14142136
20
0.42747802
30
0
70
32
0
SEQEND
8
0
0
POLYLINE
8
0
62
5
66
1
10
0
20
0
30
0
70
8
0
VERTEX
8
0
62
5
10
0.084852813
20
0.37563956
30
0
70
32
0
VERTEX
8
0
62
5
10
0.084852813
20
0.40155879
30
0
70
32
0
SEQEND
8
0
0
POLYLINE
8
0
62
5
66
1
10
0
20
0
30
0
70
8
0
VERTEX
8
0
62
5
10
0.11313708
20
0.37563956
30
0
70
32
0
VERTEX
8
0
62
5
10
0.11313708
20
0.40155879
30
0
70
32
0
SEQEND
8
0
0
POLYLINE
8
0
62
5
66
1
10
0
20
0
30
0
70
8
0
VERTEX
8
0
62
5
10
0.14142136
20
0.37563956
30
0
70
32
0
VERTEX
8
0
62
5
10
0.14142136
20
0.40155879
30
0
70
32
0
SEQEND
8
0
0
POLYLINE
8
0
62
5
66
1
10
0
20
0
30
0
70
8
0
VERTEX
8
0
62
5
10
0.084852813
20
0.42747802
30
0
70
32
0
VERTEX
8
0
62
5
10
0.084852813
20
0.45339726
30
0
70
32
0
SEQEND
8
0
0
POLYLINE
8
0
62
5
66
1
10
0
20
0
30
0
70
8
0
VERTEX
8
0
62
5
10
0.11313708
20
0.42747802
30
0
70
32
0
VERTEX
8
0
62
5
10
0.11313708
20
0.45339726
30
0
70
32
0
SEQEND
8
0
0
POLYLINE
8
0
62
5
66
1
10
0
20
0
30
0
70
8
0
VERTEX
8
0
62
5
10
0.14142136
20
0.42747802
30
0
70
32
0
VERTEX
8
0
62
5
10
0.14142136
20
0.45339726
30
0
70
32
0
SEQEND
8
0
0
POLYLINE
8
0
62
30
66
1
10
0
20
0
30
0
70
8
0
VERTEX
8
0
62
30
10
0.056568542
20
0.35416736
30
0
70
32
0
VERTEX
8
0
62
30
10
0.067226453
20
0.37563956
30
0
70
32
0
VERTEX
8
0
62
30
10
0.056568542
20
0.39711175
30
0
70
32
0
SEQEND
8
0
0
POLYLINE
8
0
62
30
66
1
10
0
20
0
30
0
70
8
0
VERTEX
8
0
62
30
10
0.084852813
20
0.35416736
30
0
70
32
0
VERTEX
8
0
62
30
10
0.095510724
20
0.37563956
30
0
70
32
0
VERTEX
8
0
62
30
10
0.084852813
20
0.39711175
30
0
70
32
0
SEQEND
8
0
0
POLYLINE
8
0
62
30
66
1
10
0
20
0
30
0
70
8
0
VERTEX
8
0
62
30
10
0.11313708
20
0.37563956
30
0
70
32
0
VERTEX
8
0
62
30
10
0.11313709
20
0.37563956
30
0
70
32
0
VERTEX
8
0
62
30
10
0.11313708
20
0.37563956
30
0
70
32
0
SEQEND
8
0
0
POLYLINE
8
0
62
30
66
1
10
0
20
0
30
0
70
8
0
VERTEX
8
0
62
30
10
0.14142136
20
0.37563956
30
0
70
32
0
VERTEX
8
0
62
30
10
0.14142136
20
0.37563956
30
0
70
32
0
VERTEX
8
0
62
30
10
0.14142136
20
0.37563956
30
0
70
32
0
SEQEND
8
0
0
POLYLINE
8
0
62
30
66
1
10
0
20
0
30
0
70
8
0
VERTEX
8
0
62
30
10
0.056568542
20
0.40600583
30
0
70
32
0
VERTEX
8
0
62
30
10
0.067226453
20
0.42747802
30
0
70
32
0
VERTEX
8
0
62
30
10
0.056568542
20
0.44895022
30
0
70
32
0
SEQEND
8
0
0
POLYLINE
8
0
62
30
66
1
10
0
20
0
30
0
70
8
0
VERTEX
8
0
62
30
10
0.084852813
20
0.40600583
30
0
70
32
0
VERTEX
8
0
62
30
10
0.095510724
20
0.42747802
30
0
70
32
0
VERTEX
8
0
62
30
10
0.084852813
20
0.44895022
30
0
70
32
0
SEQEND
8
0
0
POLYLINE
8
0
62
30
66
1
10
0
20
0
30
0
70
8
0
VERTEX
8
0
62
30
10
0.11313708
20
0.42747802
30
0
70
32
0
VERTEX
8
0
62
30
10
0.11313709
20
0.42747802
30
0
70
32
0
VERTEX
8
0
62
30
10
0.11313708
20
0.42747802
30
0
70
32
0
SEQEND
8
0
0
POLYLINE
8
0
62
30
66
1
10
0
20
0
30
0
70
8
0
VERTEX
8
0
62
30
10
0.14142136
20
0.42747802
30
0
70
32
0
VERTEX
8
0
62
30
10
0.14142136
20
0.42747802
30
0
70
32
0
VERTEX
8
0
62
30
10
0.14142136
20
0.42747802
30
0
70
32
0
SEQEND
8
0
0
POLYLINE
8
0
62
5
66
1
10
0
20
0
30
0
70
8
0
VERTEX
8
0
62
5
10
0.28284271
20
0.45339726
30
0
70
32
0
VERTEX
8
0
62
5
10
0.28284271
20
0.34972032
30
0
70
32
0
SEQEND
8
0
0
POLYLINE
8
0
62
5
66
1
10
0
20
0
30
0
70
8
0
VERTEX
8
0
62
5
10
0.16970563
20
0.35416736
30
0
70
32
0
VERTEX
8
0
62
5
10
0.1979899
20
0.35416736
30
0
70
32
0
VERTEX
8
0
62
5
10
0.22627417
20
0.37563956
30
0
70
32
0
VERTEX
8
0
62
5
10
0.25455844
20
0.37563956
30
0
70
32
0
VERTEX
8
0
62
5
10
0.28284271
20
0.35416736
30
0
70
32
0
SEQEND
8
0
0
POLYLINE
8
0
62
5
66
1
10
0
20
0
30
0
70
8
0
VERTEX
8
0
62
5
10
0.16970563
20
0.40600583
30
0
70
32
0
VERTEX
8
0
62
5
10
0.1979899
20
0.40600583
30
0
70
32
0
VERTEX
8
0
62
5
10
0.22627417
20
0.42747802
30
0
70
32
0
VERTEX
8
0
62
5
10
0.25455844
20
0.42747802
30
0
70
32
0
VERTEX
8
0
62
5
10
0.28284271
20
0.40600583
30
0
70
32
0
SEQEND
8
0
0
POLYLINE
8
0
62
5
66
1
10
0
20
0
30
0
70
8
0
VERTEX
8
0
62
5
10
0.16970563
20
0.39711175
30
0
70
32
0
VERTEX
8
0
62
5
10
0.1979899
20
0.39711175
30
0
70
32
0
VERTEX
8
0
62
5
10
0.22627417
20
0.37563956
30
0
70
32
0
VERTEX
8
0
62
5
10
0.25455844
20
0.37563956
30
0
70
32
0
VERTEX
8
0
62
5
10
0.28284271
20
0.39711175
30
0
70
32
0
SEQEND
8
0
0
POLYLINE
8
0
62
5
66
1
10
0
20
0
30
0
70
8
0
VERTEX
8
0
62
5
10
0.16970563
20
0.44895022
30
0
70
32
0
VERTEX
8
0
62
5
10
0.1979899
20
0.44895022
30
0
70
32
0
VERTEX
8
0
62
5
10
0.22627417
20
0.42747802
30
0
70
32
0
VERTEX
8
0
62
5
10
0.25455844
20
0.42747802
30
0
70
32
0
VERTEX
8
0
62
5
10
0.28284271
20
0.44895022
30
0
70
32
0
SEQEND
8
0
0
POLYLINE
8
0
62
30
66
1
10
0
20
0
30
0
70
8
0
VERTEX
8
0
62
30
10
0.16970563
20
0.37563956
30
0
70
32
0
VERTEX
8
0
62
30
10
0.28284271
20
0.37563956
30
0
70
32
0
SEQEND
8
0
0
POLYLINE
8
0
62
30
66
1
10
0
20
0
30
0
70
8
0
VERTEX
8
0
62
30
10
0.16970563
20
0.42747802
30
0
70
32
0
VERTEX
8
0
62
30
10
0.28284271
20
0.42747802
30
0
70
32
0
SEQEND
8
0
0
POLYLINE
8
0
62
30
66
1
10
0
20
0
30
0
70
8
0
VERTEX
8
0
62
30
10
0.1979899
20
0.35416736
30
0
70
32
0
VERTEX
8
0
62
30
10
0.1979899
20
0.37563956
30
0
70
32
0
SEQEND
8
0
0
POLYLINE
8
0
62
30
66
1
10
0
20
0
30
0
70
8
0
VERTEX
8
0
62
30
10
0.22627417
20
0.37563956
30
0
70
32
0
VERTEX
8
0
62
30
10
0.22627417
20
0.37563956
30
0
70
32
0
SEQEND
8
0
0
POLYLINE
8
0
62
30
66
1
10
0
20
0
30
0
70
8
0
VERTEX
8
0
62
30
10
0.25455844
20
0.37563956
30
0
70
32
0
VERTEX
8
0
62
30
10
0.25455844
20
0.37563956
30
0
70
32
0
SEQEND
8
0
0
POLYLINE
8
0
62
30
66
1
10
0
20
0
30
0
70
8
0
VERTEX
8
0
62
30
10
0.1979899
20
0.40600583
30
0
70
32
0
VERTEX
8
0
62
30
10
0.1979899
20
0.42747802
30
0
70
32
0
SEQEND
8
0
0
POLYLINE
8
0
62
30
66
1
10
0
20
0
30
0
70
8
0
VERTEX
8
0
62
30
10
0.22627417
20
0.42747802
30
0
70
32
0
VERTEX
8
0
62
30
10
0.22627417
20
0.42747802
30
0
70
32
0
SEQEND
8
0
0
POLYLINE
8
0
62
30
66
1
10
0
20
0
30
0
70
8
0
VERTEX
8
0
62
30
10
0.25455844
20
0.42747802
30
0
70
32
0
VERTEX
8
0
62
30
10
0.25455844
20
0.42747802
30
0
70
32
0
SEQEND
8
0
0
POLYLINE
8
0
62
5
66
1
10
0
20
0
30
0
70
8
0
VERTEX
8
0
62
5
10
0.1979899
20
0.34972032
30
0
70
32
0
VERTEX
8
0
62
5
10
0.1979899
20
0.35416736
30
0
70
32
0
SEQEND
8
0
0
POLYLINE
8
0
62
5
66
1
10
0
20
0
30
0
70
8
0
VERTEX
8
0
62
5
10
0.22627417
20
0.34972032
30
0
70
32
0
VERTEX
8
0
62
5
10
0.22627417
20
0.37563956
30
0
70
32
0
SEQEND
8
0
0
POLYLINE
8
0
62
5
66
1
10
0
20
0
30
0
70
8
0
VERTEX
8
0
62
5
10
0.25455844
20
0.34972032
30
0
70
32
0
VERTEX
8
0
62
5
10
0.25455844
20
0.37563956
30
0
70
32
0
SEQEND
8
0
0
POLYLINE
8
0
62
5
66
1
10
0
20
0
30
0
70
8
0
VERTEX
8
0
62
5
10
0.1979899
20
0.40155879
30
0
70
32
0
VERTEX
8
0
62
5
10
0.1979899
20
0.40600583
30
0
70
32
0
SEQEND
8
0
0
POLYLINE
8
0
62
5
66
1
10
0
20
0
30
0
70
8
0
VERTEX
8
0
62
5
10
0.22627417
20
0.40155879
30
0
70
32
0
VERTEX
8
0
62
5
10
0.22627417
20
0.42747802
30
0
70
32
0
SEQEND
8
0
0
POLYLINE
8
0
62
5
66
1
10
0
20
0
30
0
70
8
0
VERTEX
8
0
62
5
10
0.25455844
20
0.40155879
30
0
70
32
0
VERTEX
8
0
62
5
10
0.25455844
20
0.42747802
30
0
70
32
0
SEQEND
8
0
0
POLYLINE
8
0
62
5
66
1
10
0
20
0
30
0
70
8
0
VERTEX
8
0
62
5
10
0.1979899
20
0.37563956
30
0
70
32
0
VERTEX
8
0
62
5
10
0.1979899
20
0.40155879
30
0
70
32
0
SEQEND
8
0
0
POLYLINE
8
0
62
5
66
1
10
0
20
0
30
0
70
8
0
VERTEX
8
0
62
5
10
0.22627417
20
0.37563956
30
0
70
32
0
VERTEX
8
0
62
5
10
0.22627417
20
0.40155879
30
0
70
32
0
SEQEND
8
0
0
POLYLINE
8
0
62
5
66
1
10
0
20
0
30
0
70
8
0
VERTEX
8
0
62
5
10
0.25455844
20
0.37563956
30
0
70
32
0
VERTEX
8
0
62
5
10
0.25455844
20
0.40155879
30
0
70
32
0
SEQEND
8
0
0
POLYLINE
8
0
62
5
66
1
10
0
20
0
30
0
70
8
0
VERTEX
8
0
62
5
10
0.1979899
20
0.42747802
30
0
70
32
0
VERTEX
8
0
62
5
10
0.1979899
20
0.45339726
30
0
70
32
0
SEQEND
8
0
0
POLYLINE
8
0
62
5
66
1
10
0
20
0
30
0
70
8
0
VERTEX
8
0
62
5
10
0.22627417
20
0.42747802
30
0
70
32
0
VERTEX
8
0
62
5
10
0.22627417
20
0.45339726
30
0
70
32
0
SEQEND
8
0
0
POLYLINE
8
0
62
5
66
1
10
0
20
0
30
0
70
8
0
VERTEX
8
0
62
5
10
0.25455844
20
0.42747802
30
0
70
32
0
VERTEX
8
0
62
5
10
0.25455844
20
0.45339726
30
0
70
32
0
SEQEND
8
0
0
POLYLINE
8
0
62
30
66
1
10
0
20
0
30
0
70
8
0
VERTEX
8
0
62
30
10
0.16970563
20
0.35416736
30
0
70
32
0
VERTEX
8
0
62
30
10
0.18036354
20
0.37563956
30
0
70
32
0
VERTEX
8
0
62
30
10
0.16970563
20
0.39711175
30
0
70
32
0
SEQEND
8
0
0
POLYLINE
8
0
62
30
66
1
10
0
20
0
30
0
70
8
0
VERTEX
8
0
62
30
10
0.1979899
20
0.35416736
30
0
70
32
0
VERTEX
8
0
62
30
10
0.20864781
20
0.37563956
30
0
70
32
0
VERTEX
8
0
62
30
10
0.1979899
20
0.39711175
30
0
70
32
0
SEQEND
8
0
0
POLYLINE
8
0
62
30
66
1
10
0
20
0
30
0
70
8
0
VERTEX
8
0
62
30
10
0.22627417
20
0.37563956
30
0
70
32
0
VERTEX
8
0
62
30
10
0.22627417
20
0.37563956
30
0
70
32
0
VERTEX
8
0
62
30
10
0.22627417
20
0.37563956
30
0
70
32
0
SEQEND
8
0
0
POLYLINE
8
0
62
30
66
1
10
0
20
0
30
0
70
8
0
VERTEX
8
0
62
30
10
0.25455844
20
0.37563956
30
0
70
32
0
VERTEX
8
0
62
30
10
0.25455844
20
0.37563956
30
0
70
32
0
VERTEX
8
0
62
30
10
0.25455844
20
0.37563956
30
0
70
32
0
SEQEND
8
0
0
POLYLINE
8
0
62
30
66
1
10
0
20
0
30
0
70
8
0
VERTEX
8
0
62
30
10
0.16970563
20
0.40600583
30
0
70
32
0
VERTEX
8
0
62
30
10
0.18036354
20
0.42747802
30
0
70
32
0
VERTEX
8
0
62
30
10
0.16970563
20
0.44895022
30
0
70
32
0
SEQEND
8
0
0
POLYLINE
8
0
62
30
66
1
10
0
20
0
30
0
70
8
0
VERTEX
8
0
62
30
10
0.1979899
20
0.40600583
30
0
70
32
0
VERTEX
8
0
62
30
10
0.20864781
20
0.42747802
30
0
70
32
0
VERTEX
8
0
62
30
10
0.1979899
20
0.44895022
30
0
70
32
0
SEQEND
8
0
0
POLYLINE
8
0
62
30
66
1
10
0
20
0
30
0
70
8
0
VERTEX
8
0
62
30
10
0.22627417
20
0.42747802
30
0
70
32
0
VERTEX
8
0
62
30
10
0.22627417
20
0.42747802
30
0
70
32
0
VERTEX
8
0
62
30
10
0.22627417
20
0.42747802
30
0
70
32
0
SEQEND
8
0
0
POLYLINE
8
0
62
30
66
1
10
0
20
0
30
0
70
8
0
VERTEX
8
0
62
30
10
0.25455844
20
0.42747802
30
0
70
32
0
VERTEX
8
0
62
30
10
0.25455844
20
0.42747802
30
0
70
32
0
VERTEX
8
0
62
30
10
0.25455844
20
0.42747802
30
0
70
32
0
SEQEND
8
0
0
POLYLINE
8
0
62
5
66
1
10
0
20
0
30
0
70
8
0
VERTEX
8
0
62
5
10
-0.056568543
20
0.34972032
30
0
70
32
0
VERTEX
8
0
62
5
10
-0.056568543
20
0.45339726
30
0
70
32
0
SEQEND
8
0
0
POLYLINE
8
0
62
5
66
1
10
0
20
0
30
0
70
8
0
VERTEX
8
0
62
5
10
-0.056568543
20
0.35416736
30
0
70
32
0
VERTEX
8
0
62
5
10
-0.028284272
20
0.35416736
30
0
70
32
0
VERTEX
8
0
62
5
10
-4.8918072e-10
20
0.37563956
30
0
70
32
0
VERTEX
8
0
62
5
10
0.028284271
20
0.37563956
30
0
70
32
0
VERTEX
8
0
62
5
10
0.056568542
20
0.35416736
30
0
70
32
0
SEQEND
8
0
0
POLYLINE
8
0
62
5
66
1
10
0
20
0
30
0
70
8
0
VERTEX
8
0
62
5
10
-0.056568543
20
0.40600583
30
0
70
32
0
VERTEX
8
0
62
5
10
-0.028284272
20
0.40600583
30
0
70
32
0
VERTEX
8
0
62
5
10
-4.8918072e-10
20
0.42747802
30
0
70
32
0
VERTEX
8
0
62
5
10
0.028284271
20
0.42747802
30
0
70
32
0
VERTEX
8
0
62
5
10
0.056568542
20
0.40600583
30
0
70
32
0
SEQEND
8
0
0
POLYLINE
8
0
62
5
66
1
10
0
20
0
30
0
70
8
0
VERTEX
8
0
62
5
10
-0.056568543
20
0.39711175
30
0
70
32
0
VERTEX
8
0
62
5
10
-0.028284272
20
0.39711175
30
0
70
32
0
VERTEX
8
0
62
5
10
-4.8918072e-10
20
0.37563956
30
0
70
32
0
VERTEX
8
0
62
5
10
0.028284271
20
0.37563956
30
0
70
32
0
VERTEX
8
0
62
5
10
0.056568542
20
0.39711175
30
0
70
32
0
SEQEND
8
0
0
POLYLINE
8
0
62
5
66
1
10
0
20
0
30
0
70
8
0
VERTEX
8
0
62
5
10
-0.056568543
20
0.44895022
30
0
70
32
0
VERTEX
8
0
62
5
10
-0.028284272
20
0.44895022
30
0
70
32
0
VERTEX
8
0
62
5
10
-4.8918072e-10
20
0.42747802
30
0
70
32
0
VERTEX
8
0
62
5
10
0.028284271
20
0.42747802
30
0
70
32
0
VERTEX
8
0
62
5
10
0.056568542
20
0.44895022
30
0
70
32
0
SEQEND
8
0
0
POLYLINE
8
0
62
30
66
1
10
0
20
0
30
0
70
8
0
VERTEX
8
0
62
30
10
-0.056568543
20
0.37563956
30
0
70
32
0
VERTEX
8
0
62
30
10
0.056568542
20
0.37563956
30
0
70
32
0
SEQEND
8
0
0
POLYLINE
8
0
62
30
66
1
10
0
20
0
30
0
70
8
0
VERTEX
8
0
62
30
10
-0.056568543
20
0.42747802
30
0
70
32
0
VERTEX
8
0
62
30
10
0.056568542
20
0.42747802
30
0
70
32
0
SEQEND
8
0
0
POLYLINE
8
0
62
30
66
1
10
0
20
0
30
0
70
8
0
VERTEX
8
0
62
30
10
-0.028284272
20
0.35416736
30
0
70
32
0
VERTEX
8
0
62
30
10
-0.028284272
20
0.37563956
30
0
70
32
0
SEQEND
8
0
0
POLYLINE
8
0
62
30
66
1
10
0
20
0
30
0
70
8
0
VERTEX
8
0
62
30
10
-4.8918072e-10
20
0.37563956
30
0
70
32
0
VERTEX
8
0
62
30
10
-4.8918072e-10
20
0.37563956
30
0
70
32
0
SEQEND
8
0
0
POLYLINE
8
0
62
30
66
1
10
0
20
0
30
0
70
8
0
VERTEX
8
0
62
30
10
0.028284271
20
0.37563956
30
0
70
32
0
VERTEX
8
0
62
30
10
0.028284271
20
0.37563956
30
0
70
32
0
SEQEND
8
0
0
POLYLINE
8
0
62
30
66
1
10
0
20
0
30
0
70
8
0
VERTEX
8
0
62
30
10
-0.028284272
20
0.40600583
30
0
70
32
0
VERTEX
8
0
62
30
10
-0.028284272
20
0.42747802
30
0
70
32
0
SEQEND
8
0
0
POLYLINE
8
0
62
30
66
1
10
0
20
0
30
0
70
8
0
VERTEX
8
0
62
30
10
-4.8918072e-10
20
0.42747802
30
0
70
32
0
VERTEX
8
0
62
30
10
-4.8918072e-10
20
0.42747802
30
0
70
32
0
SEQEND
8
0
0
POLYLINE
8
0
62
30
66
1
10
0
20
0
30
0
70
8
0
VERTEX
8
0
62
30
10
0.028284271
20
0.42747802
30
0
70
32
0
VERTEX
8
0
62
30
10
0.028284271
20
0.42747802
30
0
70
32
0
SEQEND
8
0
0
POLYLINE
8
0
62
5
66
1
10
0
20
0
30
0
70
8
0
VERTEX
8
0
62
5
10
-0.028284272
20
0.34972032
30
0
70
32
0
VERTEX
8
0
62
5
10
-0.028284272
20
0.35416736
30
0
70
32
0
SEQEND
8
0
0
POLYLINE
8
0
62
5
66
1
10
0
20
0
30
0
70
8
0
VERTEX
8
0
62
5
10
-4.8918072e-10
20
0.34972032
30
0
70
32
0
VERTEX
8
0
62
5
10
-4.8918072e-10
20
0.37563956
30
0
70
32
0
SEQEND
8
0
0
POLYLINE
8
0
62
5
66
1
10
0
20
0
30
0
70
8
0
VERTEX
8
0
62
5
10
0.028284271
20
0.34972032
30
0
70
32
0
VERTEX
8
0
62
5
10
0.028284271
20
0.37563956
30
0
70
32
0
SEQEND
8
0
0
POLYLINE
8
0
62
5
66
1
10
0
20
0
30
0
70
8
0
VERTEX
8
0
62
5
10
-0.028284272
20
0.40155879
30
0
70
32
0
VERTEX
8
0
62
5
10
-0.028284272
20
0.40600583
30
0
70
32
0
SEQEND
8
0
0
POLYLINE
8
0
62
5
66
1
10
0
20
0
30
0
70
8
0
VERTEX
8
0
62
5
10
-4.8918072e-10
20
0.40155879
30
0
70
32
0
VERTEX
8
0
62
5
10
-4.8918072e-10
20
0.42747802
30
0
70
32
0
SEQEND
8
0
0
POLYLINE
8
0
62
5
66
1
10
0
20
0
30
0
70
8
0
VERTEX
8
0
62
5
10
0.028284271
20
0.40155879
30
0
70
32
0
VERTEX
8
0
62
5
10
0.028284271
20
0.42747802
30
0
70
32
0
SEQEND
8
0
0
POLYLINE
8
0
62
5
66
1
10
0
20
0
30
0
70
8
0
VERTEX
8
0
62
5
10
-0.028284272
20
0.37563956
30
0
70
32
0
VERTEX
8
0
62
5
10
-0.028284272
20
0.40155879
30
0
70
32
0
SEQEND
8
0
0
POLYLINE
8
0
62
5
66
1
10
0
20
0
30
0
70
8
0
VERTEX
8
0
62
5
10
-4.8918072e-10
20
0.37563956
30
0
70
32
0
VERTEX
8
0
62
5
10
-4.8918072e-10
20
0.40155879
30
0
70
32
0
SEQEND
8
0
0
POLYLINE
8
0
62
5
66
1
10
0
20
0
30
0
70
8
0
VERTEX
8
0
62
5
10
0.028284271
20
0.37563956
30
0
70
32
0
VERTEX
8
0
62
5
10
0.028284271
20
0.40155879
30
0
70
32
0
SEQEND
8
0
0
POLYLINE
8
0
62
5
66
1
10
0
20
0
30
0
70
8
0
VERTEX
8
0
62
5
10
-0.028284272
20
0.42747802
30
0
70
32
0
VERTEX
8
0
62
5
10
-0.028284272
20
0.45339726
30
0
70
32
0
SEQEND
8
0
0
POLYLINE
8
0
62
5
66
1
10
0
20
0
30
0
70
8
0
VERTEX
8
0
62
5
10
-4.8918072e-10
20
0.42747802
30
0
70
32
0
VERTEX
8
0
62
5
10
-4.8918072e-10
20
0.45339726
30
0
70
32
0
SEQEND
8
0
0
POLYLINE
8
0
62
5
66
1
10
0
20
0
30
0
70
8
0
VERTEX
8
0
62
5
10
0.028284271
20
0.42747802
30
0
70
32
0
VERTEX
8
0
62
5
10
0.028284271
20
0.45339726
30
0
70
32
0
SEQEND
8
0
0
POLYLINE
8
0
62
30
66
1
10
0
20
0
30
0
70
8
0
VERTEX
8
0
62
30
10
-0.056568543
20
0.35416736
30
0
70
32
0
VERTEX
8
0
62
30
10
-0.045910632
20
0.37563956
30
0
70
32
0
VERTEX
8
0
62
30
10
-0.056568543
20
0.39711175
30
0
70
32
0
SEQEND
8
0
0
POLYLINE
8
0
62
30
66
1
10
0
20
0
30
0
70
8
0
VERTEX
8
0
62
30
10
-0.028284272
20
0.35416736
30
0
70
32
0
VERTEX
8
0
62
30
10
-0.017626361
20
0.37563956
30
0
70
32
0
VERTEX
8
0
62
30
10
-0.028284272
20
0.39711175
30
0
70
32
0
SEQEND
8
0
0
POLYLINE
8
0
62
30
66
1
10
0
20
0
30
0
70
8
0
VERTEX
8
0
62
30
10
-4.8918072e-10
20
0.37563956
30
0
70
32
0
VERTEX
8
0
62
30
10
4.6777474e-10
20
0.37563956
30
0
70
32
0
VERTEX
8
0
62
30
10
-4.8918072e-10
20
0.37563956
30
0
70
32
0
SEQEND
8
0
0
POLYLINE
8
0
62
30
66
1
10
0
20
0
30
0
70
8
0
VERTEX
8
0
62
30
10
0.028284271
20
0.37563956
30
0
70
32
0
VERTEX
8
0
62
30
10
0.028284271
20
0.37563956
30
0
70
32
0
VERTEX
8
0
62
30
10
0.028284271
20
0.37563956
30
0
70
32
0
SEQEND
8
0
0
POLYLINE
8
0
62
30
66
1
10
0
20
0
30
0
70
8
0
VERTEX
8
0
62
30
10
-0.056568543
20
0.40600583
30
0
70
32
0
VERTEX
8
0
62
30
10
-0.045910632
20
0.42747802
30
0
70
32
0
VERTEX
8
0
62
30
10
-0.056568543
20
0.44895022
30
0
70
32
0
SEQEND
8
0
0
POLYLINE
8
0
62
30
66
1
10
0
20
0
30
0
70
8
0
VERTEX
8
0
62
30
10
-0.028284272
20
0.40600583
30
0
70
32
0
VERTEX
8
0
62
30
10
-0.017626361
20
0.42747802
30
0
70
32
0
VERTEX
8
0
62
30
10
-0.028284272
20
0.44895022
30
0
70
32
0
SEQEND
8
0
0
POLYLINE
8
0
62
30
66
1
10
0
20
0
30
0
70
8
0
VERTEX
8
0
62
30
10
-4.8918072e-10
20
0.42747802
30
0
70
32
0
VERTEX
8
0
62
30
10
4.6777474e-10
20
0.42747802
30
0
70
32
0
VERTEX
8
0
62
30
10
-4.8918072e-10
20
0.42747802
30
0
70
32
0
SEQEND
8
0
0
POLYLINE
8
0
62
30
66
1
10
0
20
0
30
0
70
8
0
VERTEX
8
0
62
30
10
0.028284271
20
0.42747802
30
0
70
32
0
VERTEX
8
0
62
30
10
0.028284271
20
0.42747802
30
0
70
32
0
VERTEX
8
0
62
30
10
0.028284271
20
0.42747802
30
0
70
32
0
SEQEND
8
0
0
POLYLINE
8
0
62
5
66
1
10
0
20
0
30
0
70
8
0
VERTEX
8
0
62
5
10
0.056568542
20
0.45339726
30
0
70
32
0
VERTEX
8
0
62
5
10
0.056568542
20
0.49339726
30
0
70
32
0
SEQEND
8
0
0
POLYLINE
8
0
62
5
66
1
10
0
20
0
30
0
70
8
0
VERTEX
8
0
62
5
10
0.16970563
20
0.49339726
30
0
70
32
0
VERTEX
8
0
62
5
10
0.16970563
20
0.45339726
30
0
70
32
0
SEQEND
8
0
0
POLYLINE
8
0
62
5
66
1
10
0
20
0
30
0
70
8
0
VERTEX
8
0
62
5
10
0.056568542
20
0.45339726
30
0
70
32
0
VERTEX
8
0
62
5
10
0.16970563
20
0.45339726
30
0
70
32
0
SEQEND
8
0
0
POLYLINE
8
0
62
5
66
1
10
0
20
0
30
0
70
8
0
VERTEX
8
0
62
5
10
0.056568542
20
0.49339726
30
0
70
32
0
VERTEX
8
0
62
5
10
0.16970563
20
0.49339726
30
0
70
32
0
SEQEND
8
0
0
POLYLINE
8
0
62
5
66
1
10
0
20
0
30
0
70
8
0
VERTEX
8
0
62
5
10
0.084852813
20
0.45339726
30
0
70
32
0
VERTEX
8
0
62
5
10
0.084852813
20
0.45339726
30
0
70
32
0
SEQEND
8
0
0
POLYLINE
8
0
62
5
66
1
10
0
20
0
30
0
70
8
0
VERTEX
8
0
62
5
10
0.11313708
20
0.45339726
30
0
70
32
0
VERTEX
8
0
62
5
10
0.11313708
20
0.45339726
30
0
70
32
0
SEQEND
8
0
0
POLYLINE
8
0
62
5
66
1
10
0
20
0
30
0
70
8
0
VERTEX
8
0
62
5
10
0.14142136
20
0.45339726
30
0
70
32
0
VERTEX
8
0
62
5
10
0.14142136
20
0.45339726
30
0
70
32
0
SEQEND
8
0
0
POLYLINE
8
0
62
5
66
1
10
0
20
0
30
0
70
8
0
VERTEX
8
0
62
5
10
0.084852813
20
0.49339726
30
0
70
32
0
VERTEX
8
0
62
5
10
0.084852813
20
0.49339726
30
0
70
32
0
SEQEND
8
0
0
POLYLINE
8
0
62
5
66
1
10
0
20
0
30
0
70
8
0
VERTEX
8
0
62
5
10
0.11313708
20
0.49339726
30
0
70
32
0
VERTEX
8
0
62
5
10
0.11313708
20
0.49339726
30
0
70
32
0
SEQEND
8
0
0
POLYLINE
8
0
62
5
66
1
10
0
20
0
30
0
70
8
0
VERTEX
8
0
62
5
10
0.14142136
20
0.49339726
30
0
70
32
0
VERTEX
8
0
62
5
10
0.14142136
20
0.49339726
30
0
70
32
0
SEQEND
8
0
0
POLYLINE
8
0
62
30
66
1
10
0
20
0
30
0
70
8
0
VERTEX
8
0
62
30
10
0.056568542
20
0.49339726
30
0
70
32
0
VERTEX
8
0
62
30
10
0.084852813
20
0.45339726
30
0
70
32
0
SEQEND
8
0
0
POLYLINE
8
0
62
30
66
1
10
0
20
0
30
0
70
8
0
VERTEX
8
0
62
30
10
0.084852813
20
0.49339726
30
0
70
32
0
VERTEX
8
0
62
30
10
0.056568542
20
0.45339726
30
0
70
32
0
SEQEND
8
0
0
POLYLINE
8
0
62
30
66
1
10
0
20
0
30
0
70
8
0
VERTEX
8
0
62
30
10
0.11313708
20
0.49339726
30
0
70
32
0
VERTEX
8
0
62
30
10
0.14142136
20
0.45339726
30
0
70
32
0
SEQEND
8
0
0
POLYLINE
8
0
62
30
66
1
10
0
20
0
30
0
70
8
0
VERTEX
8
0
62
30
10
0.14142136
20
0.49339726
30
0
70
32
0
VERTEX
8
0
62
30
10
0.11313708
20
0.45339726
30
0
70
32
0
SEQEND
8
0
0
POLYLINE
8
0
62
30
66
1
10
0
20
0
30
0
70
8
0
VERTEX
8
0
62
30
10
0.084852813
20
0.47339726
30
0
70
32
0
VERTEX
8
0
62
30
10
0.11313708
20
0.47339726
30
0
70
32
0
SEQEND
8
0
0
POLYLINE
8
0
62
30
66
1
10
0
20
0
30
0
70
8
0
VERTEX
8
0
62
30
10
0.14142136
20
0.47339726
30
0
70
32
0
VERTEX
8
0
62
30
10
0.16970563
20
0.47339726
30
0
70
32
0
SEQEND
8
0
0
POLYLINE
8
0
62
5
66
1
10
0
20
0
30
0
70
8
0
VERTEX
8
0
62
5
10
0.056568542
20
0.47339726
30
0
70
32
0
VERTEX
8
0
62
5
10
0.070710678
20
0.47339726
30
0
70
32
0
SEQEND
8
0
0
POLYLINE
8
0
62
5
66
1
10
0
20
0
30
0
70
8
0
VERTEX
8
0
62
5
10
0.11313708
20
0.47339726
30
0
70
32
0
VERTEX
8
0
62
5
10
0.12727922
20
0.47339726
30
0
70
32
0
SEQEND
8
0
0
POLYLINE
8
0
62
5
66
1
10
0
20
0
30
0
70
8
0
VERTEX
8
0
62
5
10
0.070710678
20
0.47339726
30
0
70
32
0
VERTEX
8
0
62
5
10
0.084852813
20
0.47339726
30
0
70
32
0
SEQEND
8
0
0
POLYLINE
8
0
62
5
66
1
10
0
20
0
30
0
70
8
0
VERTEX
8
0
62
5
10
0.12727922
20
0.47339726
30
0
70
32
0
VERTEX
8
0
62
5
10
0.14142136
20
0.47339726
30
0
70
32
0
SEQEND
8
0
0
POLYLINE
8
0
62
5
66
1
10
0
20
0
30
0
70
8
0
VERTEX
8
0
62
5
10
0.084852813
20
0.45339726
30
0
70
32
0
VERTEX
8
0
62
5
10
0.084852813
20
0.49339726
30
0
70
32
0
SEQEND
8
0
0
POLYLINE
8
0
62
5
66
1
10
0
20
0
30
0
70
8
0
VERTEX
8
0
62
5
10
0.11313708
20
0.45339726
30
0
70
32
0
VERTEX
8
0
62
5
10
0.11313708
20
0.49339726
30
0
70
32
0
SEQEND
8
0
0
POLYLINE
8
0
62
5
66
1
10
0
20
0
30
0
70
8
0
VERTEX
8
0
62
5
10
0.14142136
20
0.45339726
30
0
70
32
0
VERTEX
8
0
62
5
10
0.14142136
20
0.49339726
30
0
70
32
0
SEQEND
8
0
0
POLYLINE
8
0
62
5
66
1
10
0
20
0
30
0
70
8
0
VERTEX
8
0
62
5
10
0.056568542
20
0.45339726
30
0
70
32
0
VERTEX
8
0
62
5
10
0.056568542
20
0.49339726
30
0
70
32
0
SEQEND
8
0
0
POLYLINE
8
0
62
5
66
1
10
0
20
0
30
0
70
8
0
VERTEX
8
0
62
5
10
0.28284271
20
0.49339726
30
0
70
32
0
VERTEX
8
0
62
5
10
0.28284271
20
0.45339726
30
0
70
32
0
SEQEND
8
0
0
POLYLINE
8
0
62
5
66
1
10
0
20
0
30
0
70
8
0
VERTEX
8
0
62
5
10
0.16970563
20
0.45339726
30
0
70
32
0
VERTEX
8
0
62
5
10
0.28284271
20
0.45339726
30
0
70
32
0
SEQEND
8
0
0
POLYLINE
8
0
62
5
66
1
10
0
20
0
30
0
70
8
0
VERTEX
8
0
62
5
10
0.16970563
20
0.49339726
30
0
70
32
0
VERTEX
8
0
62
5
10
0.28284271
20
0.49339726
30
0
70
32
0
SEQEND
8
0
0
POLYLINE
8
0
62
5
66
1
10
0
20
0
30
0
70
8
0
VERTEX
8
0
62
5
10
0.1979899
20
0.45339726
30
0
70
32
0
VERTEX
8
0
62
5
10
0.1979899
20
0.45339726
30
0
70
32
0
SEQEND
8
0
0
POLYLINE
8
0
62
5
66
1
10
0
20
0
30
0
70
8
0
VERTEX
8
0
62
5
10
0.22627417
20
0.45339726
30
0
70
32
0
VERTEX
8
0
62
5
10
0.22627417
20
0.45339726
30
0
70
32
0
SEQEND
8
0
0
POLYLINE
8
0
62
5
66
1
10
0
20
0
30
0
70
8
0
VERTEX
8
0
62
5
10
0.25455844
20
0.45339726
30
0
70
32
0
VERTEX
8
0
62
5
10
0.25455844
20
0.45339726
30
0
70
32
0
SEQEND
8
0
0
POLYLINE
8
0
62
5
66
1
10
0
20
0
30
0
70
8
0
VERTEX
8
0
62
5
10
0.1979899
20
0.49339726
30
0
70
32
0
VERTEX
8
0
62
5
10
0.1979899
20
0.49339726
30
0
70
32
0
SEQEND
8
0
0
POLYLINE
8
0
62
5
66
1
10
0
20
0
30
0
70
8
0
VERTEX
8
0
62
5
10
0.22627417
20
0.49339726
30
0
70
32
0
VERTEX
8
0
62
5
10
0.22627417
20
0.49339726
30
0
70
32
0
SEQEND
8
0
0
POLYLINE
8
0
62
5
66
1
10
0
20
0
30
0
70
8
0
VERTEX
8
0
62
5
10
0.25455844
20
0.49339726
30
0
70
32
0
VERTEX
8
0
62
5
10
0.25455844
20
0.49339726
30
0
70
32
0
SEQEND
8
0
0
POLYLINE
8
0
62
30
66
1
10
0
20
0
30
0
70
8
0
VERTEX
8
0
62
30
10
0.16970563
20
0.49339726
30
0
70
32
0
VERTEX
8
0
62
30
10
0.1979899
20
0.45339726
30
0
70
32
0
SEQEND
8
0
0
POLYLINE
8
0
62
30
66
1
10
0
20
0
30
0
70
8
0
VERTEX
8
0
62
30
10
0.1979899
20
0.49339726
30
0
70
32
0
VERTEX
8
0
62
30
10
0.16970563
20
0.45339726
30
0
70
32
0
SEQEND
8
0
0
POLYLINE
8
0
62
30
66
1
10
0
20
0
30
0
70
8
0
VERTEX
8
0
62
30
10
0.22627417
20
0.49339726
30
0
70
32
0
VERTEX
8
0
62
30
10
0.25455844
20
0.45339726
30
0
70
32
0
SEQEND
8
0
0
POLYLINE
8
0
62
30
66
1
10
0
20
0
30
0
70
8
0
VERTEX
8
0
62
30
10
0.25455844
20
0.49339726
30
0
70
32
0
VERTEX
8
0
62
30
10
0.22627417
20
0.45339726
30
0
70
32
0
SEQEND
8
0
0
POLYLINE
8
0
62
30
66
1
10
0
20
0
30
0
70
8
0
VERTEX
8
0
62
30
10
0.1979899
20
0.47339726
30
0
70
32
0
VERTEX
8
0
62
30
10
0.22627417
20
0.47339726
30
0
70
32
0
SEQEND
8
0
0
POLYLINE
8
0
62
30
66
1
10
0
20
0
30
0
70
8
0
VERTEX
8
0
62
30
10
0.25455844
20
0.47339726
30
0
70
32
0
VERTEX
8
0
62
30
10
0.28284271
20
0.47339726
30
0
70
32
0
SEQEND
8
0
0
POLYLINE
8
0
62
5
66
1
10
0
20
0
30
0
70
8
0
VERTEX
8
0
62
5
10
0.16970563
20
0.47339726
30
0
70
32
0
VERTEX
8
0
62
5
10
0.18384776
20
0.47339726
30
0
70
32
0
SEQEND
8
0
0
POLYLINE
8
0
62
5
66
1
10
0
20
0
30
0
70
8
0
VERTEX
8
0
62
5
10
0.22627417
20
0.47339726
30
0
70
32
0
VERTEX
8
0
62
5
10
0.24041631
20
0.47339726
30
0
70
32
0
SEQEND
8
0
0
POLYLINE
8
0
62
5
66
1
10
0
20
0
30
0
70
8
0
VERTEX
8
0
62
5
10
0.18384776
20
0.47339726
30
0
70
32
0
VERTEX
8
0
62
5
10
0.1979899
20
0.47339726
30
0
70
32
0
SEQEND
8
0
0
POLYLINE
8
0
62
5
66
1
10
0
20
0
30
0
70
8
0
VERTEX
8
0
62
5
10
0.24041631
20
0.47339726
30
0
70
32
0
VERTEX
8
0
62
5
10
0.25455844
20
0.47339726
30
0
70
32
0
SEQEND
8
0
0
POLYLINE
8
0
62
5
66
1
10
0
20
0
30
0
70
8
0
VERTEX
8
0
62
5
10
0.1979899
20
0.45339726
30
0
70
32
0
VERTEX
8
0
62
5
10
0.1979899
20
0.49339726
30
0
70
32
0
SEQEND
8
0
0
POLYLINE
8
0
62
5
66
1
10
0
20
0
30
0
70
8
0
VERTEX
8
0
62
5
10
0.22627417
20
0.45339726
30
0
70
32
0
VERTEX
8
0
62
5
10
0.22627417
20
0.49339726
30
0
70
32
0
SEQEND
8
0
0
POLYLINE
8
0
62
5
66
1
10
0
20
0
30
0
70
8
0
VERTEX
8
0
62
5
10
0.25455844
20
0.45339726
30
0
70
32
0
VERTEX
8
0
62
5
10
0.25455844
20
0.49339726
30
0
70
32
0
SEQEND
8
0
0
POLYLINE
8
0
62
5
66
1
10
0
20
0
30
0
70
8
0
VERTEX
8
0
62
5
10
0.16970563
20
0.45339726
30
0
70
32
0
VERTEX
8
0
62
5
10
0.16970563
20
0.49339726
30
0
70
32
0
SEQEND
8
0
0
POLYLINE
8
0
62
5
66
1
10
0
20
0
30
0
70
8
0
VERTEX
8
0
62
5
10
-0.056568543
20
0.45339726
30
0
70
32
0
VERTEX
8
0
62
5
10
-0.056568543
20
0.49339726
30
0
70
32
0
SEQEND
8
0
0
POLYLINE
8
0
62
5
66
1
10
0
20
0
30
0
70
8
0
VERTEX
8
0
62
5
10
-0.056568543
20
0.45339726
30
0
70
32
0
VERTEX
8
0
62
5
10
0.056568542
20
0.45339726
30
0
70
32
0
SEQEND
8
0
0
POLYLINE
8
0
62
5
66
1
10
0
20
0
30
0
70
8
0
VERTEX
8
0
62
5
10
-0.056568543
20
0.49339726
30
0
70
32
0
VERTEX
8
0
62
5
10
0.056568542
20
0.49339726
30
0
70
32
0
SEQEND
8
0
0
POLYLINE
8
0
62
5
66
1
10
0
20
0
30
0
70
8
0
VERTEX
8
0
62
5
10
-0.028284272
20
0.45339726
30
0
70
32
0
VERTEX
8
0
62
5
10
-0.028284272
20
0.45339726
30
0
70
32
0
SEQEND
8
0
0
POLYLINE
8
0
62
5
66
1
10
0
20
0
30
0
70
8
0
VERTEX
8
0
62
5
10
-4.8918072e-10
20
0.45339726
30
0
70
32
0
VERTEX
8
0
62
5
10
-4.8918072e-10
20
0.45339726
30
0
70
32
0
SEQEND
8
0
0
POLYLINE
8
0
62
5
66
1
10
0
20
0
30
0
70
8
0
VERTEX
8
0
62
5
10
0.028284271
20
0.45339726
30
0
70
32
0
VERTEX
8
0
62
5
10
0.028284271
20
0.45339726
30
0
70
32
0
SEQEND
8
0
0
POLYLINE
8
0
62
5
66
1
10
0
20
0
30
0
70
8
0
VERTEX
8
0
62
5
10
-0.028284272
20
0.49339726
30
0
70
32
0
VERTEX
8
0
62
5
10
-0.028284272
20
0.49339726
30
0
70
32
0
SEQEND
8
0
0
POLYLINE
8
0
62
5
66
1
10
0
20
0
30
0
70
8
0
VERTEX
8
0
62
5
10
-4.8918072e-10
20
0.49339726
30
0
70
32
0
VERTEX
8
0
62
5
10
-4.8918072e-10
20
0.49339726
30
0
70
32
0
SEQEND
8
0
0
POLYLINE
8
0
62
5
66
1
10
0
20
0
30
0
70
8
0
VERTEX
8
0
62
5
10
0.028284271
20
0.49339726
30
0
70
32
0
VERTEX
8
0
62
5
10
0.028284271
20
0.49339726
30
0
70
32
0
SEQEND
8
0
0
POLYLINE
8
0
62
30
66
1
10
0
20
0
30
0
70
8
0
VERTEX
8
0
62
30
10
-0.056568543
20
0.49339726
30
0
70
32
0
VERTEX
8
0
62
30
10
-0.028284272
20
0.45339726
30
0
70
32
0
SEQEND
8
0
0
POLYLINE
8
0
62
30
66
1
10
0
20
0
30
0
70
8
0
VERTEX
8
0
62
30
10
-0.028284272
20
0.49339726
30
0
70
32
0
VERTEX
8
0
62
30
10
-0.056568543
20
0.45339726
30
0
70
32
0
SEQEND
8
0
0
POLYLINE
8
0
62
30
66
1
10
0
20
0
30
0
70
8
0
VERTEX
8
0
62
30
10
-4.8918072e-10
20
0.49339726
30
0
70
32
0
VERTEX
8
0
62
30
10
0.028284271
20
0.45339726
30
0
70
32
0
SEQEND
8
0
0
POLYLINE
8
0
62
30
66
1
10
0
20
0
30
0
70
8
0
VERTEX
8
0
62
30
10
0.028284271
20
0.49339726
30
0
70
32
0
VERTEX
8
0
62
30
10
-4.8918072e-10
20
0.45339726
30
0
70
32
0
SEQEND
8
0
0
POLYLINE
8
0
62
30
66
1
10
0
20
0
30
0
70
8
0
VERTEX
8
0
62
30
10
-0.028284272
20
0.47339726
30
0
70
32
0
VERTEX
8
0
62
30
10
-4.8918072e-10
20
0.47339726
30
0
70
32
0
SEQEND
8
0
0
POLYLINE
8
0
62
30
66
1
10
0
20
0
30
0
70
8
0
VERTEX
8
0
62
30
10
0.028284271
20
0.47339726
30
0
70
32
0
VERTEX
8
0
62
30
10
0.056568542
20
0.47339726
30
0
70
32
0
SEQEND
8
0
0
POLYLINE
8
0
62
5
66
1
10
0
20
0
30
0
70
8
0
VERTEX
8
0
62
5
10
-0.056568543
20
0.47339726
30
0
70
32
0
VERTEX
8
0
62
5
10
-0.042426407
20
0.47339726
30
0
70
32
0
SEQEND
8
0
0
POLYLINE
8
0
62
5
66
1
10
0
20
0
30
0
70
8
0
VERTEX
8
0
62
5
10
-4.8918072e-10
20
0.47339726
30
0
70
32
0
VERTEX
8
0
62
5
10
0.014142135
20
0.47339726
30
0
70
32
0
SEQEND
8
0
0
POLYLINE
8
0
62
5
66
1
10
0
20
0
30
0
70
8
0
VERTEX
8
0
62
5
10
-0.042426407
20
0.47339726
30
0
70
32
0
VERTEX
8
0
62
5
10
-0.028284272
20
0.47339726
30
0
70
32
0
SEQEND
8
0
0
POLYLINE
8
0
62
5
66
1
10
0
20
0
30
0
70
8
0
VERTEX
8
0
62
5
10
0.014142135
20
0.47339726
30
0
70
32
0
VERTEX
8
0
62
5
10
0.028284271
20
0.47339726
30
0
70
32
0
SEQEND
8
0
0
POLYLINE
8
0
62
5
66
1
10
0
20
0
30
0
70
8
0
VERTEX
8
0
62
5
10
-0.028284272
20
0.45339726
30
0
70
32
0
VERTEX
8
0
62
5
10
-0.028284272
20
0.49339726
30
0
70
32
0
SEQEND
8
0
0
POLYLINE
8
0
62
5
66
1
10
0
20
0
30
0
70
8
0
VERTEX
8
0
62
5
10
-4.8918072e-10
20
0.45339726
30
0
70
32
0
VERTEX
8
0
62
5
10
-4.8918072e-10
20
0.49339726
30
0
70
32
0
SEQEND
8
0
0
POLYLINE
8
0
62
5
66
1
10
0
20
0
30
0
70
8
0
VERTEX
8
0
62
5
10
0.028284271
20
0.45339726
30
0
70
32
0
VERTEX
8
0
62
5
10
0.028284271
20
0.49339726
30
0
70
32
0
SEQEND
8
0
0
POLYLINE
8
0
62
5
66
1
10
0
20
0
30
0
70
8
0
VERTEX
8
0
62
5
10
-0.056568543
20
0.45339726
30
0
70
32
0
VERTEX
8
0
62
5
10
-0.056568543
20
0.49339726
30
0
70
32
0
SEQEND
8
0
0
POLYLINE
8
0
62
5
66
1
10
0
20
0
30
0
70
8
0
VERTEX
8
0
62
5
10
0.056568542
20
0.49339726
30
0
70
32
0
VERTEX
8
0
62
5
10
0.056568542
20
0.56168153
30
0
70
32
0
SEQEND
8
0
0
POLYLINE
8
0
62
5
66
1
10
0
20
0
30
0
70
8
0
VERTEX
8
0
62
5
10
0.16970563
20
0.56168153
30
0
70
32
0
VERTEX
8
0
62
5
10
0.16970563
20
0.49339726
30
0
70
32
0
SEQEND
8
0
0
POLYLINE
8
0
62
5
66
1
10
0
20
0
30
0
70
8
0
VERTEX
8
0
62
5
10
0.056568542
20
0.49925512
30
0
70
32
0
VERTEX
8
0
62
5
10
0.084852813
20
0.49925512
30
0
70
32
0
VERTEX
8
0
62
5
10
0.11313708
20
0.52753939
30
0
70
32
0
VERTEX
8
0
62
5
10
0.14142136
20
0.52753939
30
0
70
32
0
VERTEX
8
0
62
5
10
0.16970563
20
0.49925512
30
0
70
32
0
SEQEND
8
0
0
POLYLINE
8
0
62
5
66
1
10
0
20
0
30
0
70
8
0
SEQEND
8
0
0
POLYLINE
8
0
62
5
66
1
10
0
20
0
30
0
70
8
0
VERTEX
8
0
62
5
10
0.056568542
20
0.55582366
30
0
70
32
0
VERTEX
8
0
62
5
10
0.084852813
20
0.55582367
30
0
70
32
0
VERTEX
8
0
62
5
10
0.11313708
20
0.52753939
30
0
70
32
0
VERTEX
8
0
62
5
10
0.14142136
20
0.52753939
30
0
70
32
0
VERTEX
8
0
62
5
10
0.16970563
20
0.55582366
30
0
70
32
0
SEQEND
8
0
0
POLYLINE
8
0
62
30
66
1
10
0
20
0
30
0
70
8
0
VERTEX
8
0
62
30
10
0.056568542
20
0.52753939
30
0
70
32
0
VERTEX
8
0
62
30
10
0.16970563
20
0.52753939
30
0
70
32
0
SEQEND
8
0
0
POLYLINE
8
0
62
30
66
1
10
0
20
0
30
0
70
8
0
VERTEX
8
0
62
30
10
0.084852813
20
0.49925512
30
0
70
32
0
VERTEX
8
0
62
30
10
0.084852813
20
0.52753939
30
0
70
32
0
SEQEND
8
0
0
POLYLINE
8
0
62
30
66
1
10
0
20
0
30
0
70
8
0
VERTEX
8
0
62
30
10
0.11313708
20
0.52753939
30
0
70
32
0
VERTEX
8
0
62
30
10
0.11313708
20
0.52753939
30
0
70
32
0
SEQEND
8
0
0
POLYLINE
8
0
62
30
66
1
10
0
20
0
30
0
70
8
0
VERTEX
8
0
62
30
10
0.14142136
20
0.52753939
30
0
70
32
0
VERTEX
8
0
62
30
10
0.14142136
20
0.52753939
30
0
70
32
0
SEQEND
8
0
0
POLYLINE
8
0
62
5
66
1
10
0
20
0
30
0
70
8
0
VERTEX
8
0
62
5
10
0.084852813
20
0.49339726
30
0
70
32
0
VERTEX
8
0
62
5
10
0.084852813
20
0.49925512
30
0
70
32
0
SEQEND
8
0
0
POLYLINE
8
0
62
5
66
1
10
0
20
0
30
0
70
8
0
VERTEX
8
0
62
5
10
0.11313708
20
0.49339726
30
0
70
32
0
VERTEX
8
0
62
5
10
0.11313708
20
0.52753939
30
0
70
32
0
SEQEND
8
0
0
POLYLINE
8
0
62
5
66
1
10
0
20
0
30
0
70
8
0
VERTEX
8
0
62
5
10
0.14142136
20
0.49339726
30
0
70
32
0
VERTEX
8
0
62
5
10
0.14142136
20
0.52753939
30
0
70
32
0
SEQEND
8
0
0
POLYLINE
8
0
62
5
66
1
10
0
20
0
30
0
70
8
0
VERTEX
8
0
62
5
10
0.084852813
20
0.52753939
30
0
70
32
0
VERTEX
8
0
62
5
10
0.084852813
20
0.56168153
30
0
70
32
0
SEQEND
8
0
0
POLYLINE
8
0
62
5
66
1
10
0
20
0
30
0
70
8
0
VERTEX
8
0
62
5
10
0.11313708
20
0.52753939
30
0
70
32
0
VERTEX
8
0
62
5
10
0.11313708
20
0.56168153
30
0
70
32
0
SEQEND
8
0
0
POLYLINE
8
0
62
5
66
1
10
0
20
0
30
0
70
8
0
VERTEX
8
0
62
5
10
0.14142136
20
0.52753939
30
0
70
32
0
VERTEX
8
0
62
5
10
0.14142136
20
0.56168153
30
0
70
32
0
SEQEND
8
0
0
POLYLINE
8
0
62
30
66
1
10
0
20
0
30
0
70
8
0
VERTEX
8
0
62
30
10
0.056568542
20
0.49925512
30
0
70
32
0
VERTEX
8
0
62
30
10
0.068284271
20
0.52753939
30
0
70
32
0
VERTEX
8
0
62
30
10
0.056568542
20
0.55582366
30
0
70
32
0
SEQEND
8
0
0
POLYLINE
8
0
62
30
66
1
10
0
20
0
30
0
70
8
0
VERTEX
8
0
62
30
10
0.084852813
20
0.49925512
30
0
70
32
0
VERTEX
8
0
62
30
10
0.096568542
20
0.52753939
30
0
70
32
0
VERTEX
8
0
62
30
10
0.084852813
20
0.55582367
30
0
70
32
0
SEQEND
8
0
0
POLYLINE
8
0
62
30
66
1
10
0
20
0
30
0
70
8
0
VERTEX
8
0
62
30
10
0.11313708
20
0.52753939
30
0
70
32
0
VERTEX
8
0
62
30
10
0.11313709
20
0.52753939
30
0
70
32
0
VERTEX
8
0
62
30
10
0.11313708
20
0.52753939
30
0
70
32
0
SEQEND
8
0
0
POLYLINE
8
0
62
30
66
1
10
0
20
0
30
0
70
8
0
VERTEX
8
0
62
30
10
0.14142136
20
0.52753939
30
0
70
32
0
VERTEX
8
0
62
30
10
0.14142136
20
0.52753939
30
0
70
32
0
VERTEX
8
0
62
30
10
0.14142136
20
0.52753939
30
0
70
32
0
SEQEND
8
0
0
POLYLINE
8
0
62
5
66
1
10
0
20
0
30
0
70
8
0
VERTEX
8
0
62
5
10
0.28284271
20
0.56168153
30
0
70
32
0
VERTEX
8
0
62
5
10
0.28284271
20
0.49339726
30
0
70
32
0
SEQEND
8
0
0
POLYLINE
8
0
62
5
66
1
10
0
20
0
30
0
70
8
0
VERTEX
8
0
62
5
10
0.16970563
20
0.49925512
30
0
70
32
0
VERTEX
8
0
62
5
10
0.1979899
20
0.49925512
30
0
70
32
0
VERTEX
8
0
62
5
10
0.22627417
20
0.52753939
30
0
70
32
0
VERTEX
8
0
62
5
10
0.25455844
20
0.52753939
30
0
70
32
0
VERTEX
8
0
62
5
10
0.28284271
20
0.49925512
30
0
70
32
0
SEQEND
8
0
0
POLYLINE
8
0
62
5
66
1
10
0
20
0
30
0
70
8
0
SEQEND
8
0
0
POLYLINE
8
0
62
5
66
1
10
0
20
0
30
0
70
8
0
VERTEX
8
0
62
5
10
0.16970563
20
0.55582366
30
0
70
32
0
VERTEX
8
0
62
5
10
0.1979899
20
0.55582367
30
0
70
32
0
VERTEX
8
0
62
5
10
0.22627417
20
0.52753939
30
0
70
32
0
VERTEX
8
0
62
5
10
0.25455844
20
0.52753939
30
0
70
32
0
VERTEX
8
0
62
5
10
0.28284271
20
0.55582366
30
0
70
32
0
SEQEND
8
0
0
POLYLINE
8
0
62
30
66
1
10
0
20
0
30
0
70
8
0
VERTEX
8
0
62
30
10
0.16970563
20
0.52753939
30
0
70
32
0
VERTEX
8
0
62
30
10
0.28284271
20
0.52753939
30
0
70
32
0
SEQEND
8
0
0
POLYLINE
8
0
62
30
66
1
10
0
20
0
30
0
70
8
0
VERTEX
8
0
62
30
10
0.1979899
20
0.49925512
30
0
70
32
0
VERTEX
8
0
62
30
10
0.1979899
20
0.52753939
30
0
70
32
0
SEQEND
8
0
0
POLYLINE
8
0
62
30
66
1
10
0
20
0
30
0
70
8
0
VERTEX
8
0
62
30
10
0.22627417
20
0.52753939
30
0
70
32
0
VERTEX
8
0
62
30
10
0.22627417
20
0.52753939
30
0
70
32
0
SEQEND
8
0
0
POLYLINE
8
0
62
30
66
1
10
0
20
0
30
0
70
8
0
VERTEX
8
0
62
30
10
0.25455844
20
0.52753939
30
0
70
32
0
VERTEX
8
0
62
30
10
0.25455844
20
0.52753939
30
0
70
32
0
SEQEND
8
0
0
POLYLINE
8
0
62
5
66
1
10
0
20
0
30
0
70
8
0
VERTEX
8
0
62
5
10
0.1979899
20
0.49339726
30
0
70
32
0
VERTEX
8
0
62
5
10
0.1979899
20
0.49925512
30
0
70
32
0
SEQEND
8
0
0
POLYLINE
8
0
62
5
66
1
10
0
20
0
30
0
70
8
0
VERTEX
8
0
62
5
10
0.22627417
20
0.49339726
30
0
70
32
0
VERTEX
8
0
62
5
10
0.22627417
20
0.52753939
30
0
70
32
0
SEQEND
8
0
0
POLYLINE
8
0
62
5
66
1
10
0
20
0
30
0
70
8
0
VERTEX
8
0
62
5
10
0.25455844
20
0.49339726
30
0
70
32
0
VERTEX
8
0
62
5
10
0.25455844
20
0.52753939
30
0
70
32
0
SEQEND
8
0
0
POLYLINE
8
0
62
5
66
1
10
0
20
0
30
0
70
8
0
VERTEX
8
0
62
5
10
0.1979899
20
0.52753939
30
0
70
32
0
VERTEX
8
0
62
5
10
0.1979899
20
0.56168153
30
0
70
32
0
SEQEND
8
0
0
POLYLINE
8
0
62
5
66
1
10
0
20
0
30
0
70
8
0
VERTEX
8
0
62
5
10
0.22627417
20
0.52753939
30
0
70
32
0
VERTEX
8
0
62
5
10
0.22627417
20
0.56168153
30
0
70
32
0
SEQEND
8
0
0
POLYLINE
8
0
62
5
66
1
10
0
20
0
30
0
70
8
0
VERTEX
8
0
62
5
10
0.25455844
20
0.52753939
30
0
70
32
0
VERTEX
8
0
62
5
10
0.25455844
20
0.56168153
30
0
70
32
0
SEQEND
8
0
0
POLYLINE
8
0
62
30
66
1
10
0
20
0
30
0
70
8
0
VERTEX
8
0
62
30
10
0.16970563
20
0.49925512
30
0
70
32
0
VERTEX
8
0
62
30
10
0.18142136
20
0.52753939
30
0
70
32
0
VERTEX
8
0
62
30
10
0.16970563
20
0.55582366
30
0
70
32
0
SEQEND
8
0
0
POLYLINE
8
0
62
30
66
1
10
0
20
0
30
0
70
8
0
VERTEX
8
0
62
30
10
0.1979899
20
0.49925512
30
0
70
32
0
VERTEX
8
0
62
30
10
0.20970563
20
0.52753939
30
0
70
32
0
VERTEX
8
0
62
30
10
0.1979899
20
0.55582367
30
0
70
32
0
SEQEND
8
0
0
POLYLINE
8
0
62
30
66
1
10
0
20
0
30
0
70
8
0
VERTEX
8
0
62
30
10
0.22627417
20
0.52753939
30
0
70
32
0
VERTEX
8
0
62
30
10
0.22627417
20
0.52753939
30
0
70
32
0
VERTEX
8
0
62
30
10
0.22627417
20
0.52753939
30
0
70
32
0
SEQEND
8
0
0
POLYLINE
8
0
62
30
66
1
10
0
20
0
30
0
70
8
0
VERTEX
8
0
62
30
10
0.25455844
20
0.52753939
30
0
70
32
0
VERTEX
8
0
62
30
10
0.25455844
20
0.52753939
30
0
70
32
0
VERTEX
8
0
62
30
10
0.25455844
20
0.52753939
30
0
70
32
0
SEQEND
8
0
0
POLYLINE
8
0
62
5
66
1
10
0
20
0
30
0
70
8
0
VERTEX
8
0
62
5
10
-0.056568543
20
0.49339726
30
0
70
32
0
VERTEX
8
0
62
5
10
-0.056568543
20
0.56168153
30
0
70
32
0
SEQEND
8
0
0
POLYLINE
8
0
62
5
66
1
10
0
20
0
30
0
70
8
0
VERTEX
8
0
62
5
10
-0.056568543
20
0.49925512
30
0
70
32
0
VERTEX
8
0
62
5
10
-0.028284272
20
0.49925512
30
0
70
32
0
VERTEX
8
0
62
5
10
-4.8918072e-10
20
0.52753939
30
0
70
32
0
VERTEX
8
0
62
5
10
0.028284271
20
0.52753939
30
0
70
32
0
VERTEX
8
0
62
5
10
0.056568542
20
0.49925512
30
0
70
32
0
SEQEND
8
0
0
POLYLINE
8
0
62
5
66
1
10
0
20
0
30
0
70
8
0
SEQEND
8
0
0
POLYLINE
8
0
62
5
66
1
10
0
20
0
30
0
70
8
0
VERTEX
8
0
62
5
10
-0.056568543
20
0.55582366
30
0
70
32
0
VERTEX
8
0
62
5
10
-0.028284272
20
0.55582367
30
0
70
32
0
VERTEX
8
0
62
5
10
-4.8918072e-10
20
0.52753939
30
0
70
32
0
VERTEX
8
0
62
5
10
0.028284271
20
0.52753939
30
0
70
32
0
VERTEX
8
0
62
5
10
0.056568542
20
0.55582366
30
0
70
32
0
SEQEND
8
0
0
POLYLINE
8
0
62
30
66
1
10
0
20
0
30
0
70
8
0
VERTEX
8
0
62
30
10
-0.056568543
20
0.52753939
30
0
70
32
0
VERTEX
8
0
62
30
10
0.056568542
20
0.52753939
30
0
70
32
0
SEQEND
8
0
0
POLYLINE
8
0
62
30
66
1
10
0
20
0
30
0
70
8
0
VERTEX
8
0
62
30
10
-0.028284272
20
0.49925512
30
0
70
32
0
VERTEX
8
0
62
30
10
-0.028284272
20
0.52753939
30
0
70
32
0
SEQEND
8
0
0
POLYLINE
8
0
62
30
66
1
10
0
20
0
30
0
70
8
0
VERTEX
8
0
62
30
10
-4.8918072e-10
20
0.52753939
30
0
70
32
0
VERTEX
8
0
62
30
10
-4.8918072e-10
20
0.52753939
30
0
70
32
0
SEQEND
8
0
0
POLYLINE
8
0
62
30
66
1
10
0
20
0
30
0
70
8
0
VERTEX
8
0
62
30
10
0.028284271
20
0.52753939
30
0
70
32
0
VERTEX
8
0
62
30
10
0.028284271
20
0.52753939
30
0
70
32
0
SEQEND
8
0
0
POLYLINE
8
0
62
5
66
1
10
0
20
0
30
0
70
8
0
VERTEX
8
0
62
5
10
-0.028284272
20
0.49339726
30
0
70
32
0
VERTEX
8
0
62
5
10
-0.028284272
20
0.49925512
30
0
70
32
0
SEQEND
8
0
0
POLYLINE
8
0
62
5
66
1
10
0
20
0
30
0
70
8
0
VERTEX
8
0
62
5
10
-4.8918072e-10
20
0.49339726
30
0
70
32
0
VERTEX
8
0
62
5
10
-4.8918072e-10
20
0.52753939
30
0
70
32
0
SEQEND
8
0
0
POLYLINE
8
0
62
5
66
1
10
0
20
0
30
0
70
8
0
VERTEX
8
0
62
5
10
0.028284271
20
0.49339726
30
0
70
32
0
VERTEX
8
0
62
5
10
0.028284271
20
0.52753939
30
0
70
32
0
SEQEND
8
0
0
POLYLINE
8
0
62
5
66
1
10
0
20
0
30
0
70
8
0
VERTEX
8
0
62
5
10
-0.028284272
20
0.52753939
30
0
70
32
0
VERTEX
8
0
62
5
10
-0.028284272
20
0.56168153
30
0
70
32
0
SEQEND
8
0
0
POLYLINE
8
0
62
5
66
1
10
0
20
0
30
0
70
8
0
VERTEX
8
0
62
5
10
-4.8918072e-10
20
0.52753939
30
0
70
32
0
VERTEX
8
0
62
5
10
-4.8918072e-10
20
0.56168153
30
0
70
32
0
SEQEND
8
0
0
POLYLINE
8
0
62
5
66
1
10
0
20
0
30
0
70
8
0
VERTEX
8
0
62
5
10
0.028284271
20
0.52753939
30
0
70
32
0
VERTEX
8
0
62
5
10
0.028284271
20
0.56168153
30
0
70
32
0
SEQEND
8
0
0
POLYLINE
8
0
62
30
66
1
10
0
20
0
30
0
70
8
0
VERTEX
8
0
62
30
10
-0.056568543
20
0.49925512
30
0
70
32
0
VERTEX
8
0
62
30
10
-0.044852814
20
0.52753939
30
0
70
32
0
VERTEX
8
0
62
30
10
-0.056568543
20
0.55582366
30
0
70
32
0
SEQEND
8
0
0
POLYLINE
8
0
62
30
66
1
10
0
20
0
30
0
70
8
0
VERTEX
8
0
62
30
10
-0.028284272
20
0.49925512
30
0
70
32
0
VERTEX
8
0
62
30
10
-0.016568543
20
0.52753939
30
0
70
32
0
VERTEX
8
0
62
30
10
-0.028284272
20
0.55582367
30
0
70
32
0
SEQEND
8
0
0
POLYLINE
8
0
62
30
66
1
10
0
20
0
30
0
70
8
0
VERTEX
8
0
62
30
10
-4.8918072e-10
20
0.52753939
30
0
70
32
0
VERTEX
8
0
62
30
10
2.6738918e-09
20
0.52753939
30
0
70
32
0
VERTEX
8
0
62
30
10
-4.8918072e-10
20
0.52753939
30
0
70
32
0
SEQEND
8
0
0
POLYLINE
8
0
62
30
66
1
10
0
20
0
30
0
70
8
0
VERTEX
8
0
62
30
10
0.028284271
20
0.52753939
30
0
70
32
0
VERTEX
8
0
62
30
10
0.028284271
20
0.52753939
30
0
70
32
0
VERTEX
8
0
62
30
10
0.028284271
20
0.52753939
30
0
70
32
0
SEQEND
8
0
0
POLYLINE
8
0
62
5
66
1
10
0
20
0
30
0
70
8
0
VERTEX
8
0
62
5
10
0.056568542
20
0.56168153
30
0
70
32
0
VERTEX
8
0
62
5
10
0.056568542
20
0.58508595
30
0
70
32
0
SEQEND
8
0
0
POLYLINE
8
0
62
5
66
1
10
0
20
0
30
0
70
8
0
VERTEX
8
0
62
5
10
0.084852813
20
0.56168153
30
0
70
32
0
VERTEX
8
0
62
5
10
0.084852813
20
0.58508595
30
0
70
32
0
SEQEND
8
0
0
POLYLINE
8
0
62
5
66
1
10
0
20
0
30
0
70
8
0
VERTEX
8
0
62
5
10
0.11313708
20
0.56168153
30
0
70
32
0
VERTEX
8
0
62
5
10
0.11313708
20
0.58508595
30
0
70
32
0
SEQEND
8
0
0
POLYLINE
8
0
62
5
66
1
10
0
20
0
30
0
70
8
0
VERTEX
8
0
62
5
10
0.14142136
20
0.56168153
30
0
70
32
0
VERTEX
8
0
62
5
10
0.14142136
20
0.58508595
30
0
70
32
0
SEQEND
8
0
0
POLYLINE
8
0
62
5
66
1
10
0
20
0
30
0
70
8
0
VERTEX
8
0
62
5
10
0.16970563
20
0.56168153
30
0
70
32
0
VERTEX
8
0
62
5
10
0.16970563
20
0.58508595
30
0
70
32
0
SEQEND
8
0
0
POLYLINE
8
0
62
5
66
1
10
0
20
0
30
0
70
8
0
VERTEX
8
0
62
5
10
0.084852813
20
0.56168153
30
0
70
32
0
VERTEX
8
0
62
5
10
0.084852813
20
0.56168153
30
0
70
32
0
SEQEND
8
0
0
POLYLINE
8
0
62
5
66
1
10
0
20
0
30
0
70
8
0
VERTEX
8
0
62
5
10
0.11313708
20
0.56168153
30
0
70
32
0
VERTEX
8
0
62
5
10
0.11313708
20
0.56168153
30
0
70
32
0
SEQEND
8
0
0
POLYLINE
8
0
62
5
66
1
10
0
20
0
30
0
70
8
0
VERTEX
8
0
62
5
10
0.14142136
20
0.56168153
30
0
70
32
0
VERTEX
8
0
62
5
10
0.14142136
20
0.56168153
30
0
70
32
0
SEQEND
8
0
0
POLYLINE
8
0
62
5
66
1
10
0
20
0
30
0
70
8
0
VERTEX
8
0
62
5
10
0.056568543
20
0.58508595
30
0
70
32
0
VERTEX
8
0
62
5
10
0.056568543
20
0.58508595
30
0
70
32
0
SEQEND
8
0
0
POLYLINE
8
0
62
5
66
1
10
0
20
0
30
0
70
8
0
VERTEX
8
0
62
5
10
0.084852815
20
0.58508595
30
0
70
32
0
VERTEX
8
0
62
5
10
0.084852815
20
0.58508595
30
0
70
32
0
SEQEND
8
0
0
POLYLINE
8
0
62
5
66
1
10
0
20
0
30
0
70
8
0
VERTEX
8
0
62
5
10
0.11313709
20
0.58508595
30
0
70
32
0
VERTEX
8
0
62
5
10
0.11313709
20
0.58508595
30
0
70
32
0
SEQEND
8
0
0
POLYLINE
8
0
62
5
66
1
10
0
20
0
30
0
70
8
0
VERTEX
8
0
62
5
10
0.14142136
20
0.58508595
30
0
70
32
0
VERTEX
8
0
62
5
10
0.14142136
20
0.58508595
30
0
70
32
0
SEQEND
8
0
0
POLYLINE
8
0
62
5
66
1
10
0
20
0
30
0
70
8
0
VERTEX
8
0
62
5
10
0.1979899
20
0.56168153
30
0
70
32
0
VERTEX
8
0
62
5
10
0.1979899
20
0.58508595
30
0
70
32
0
SEQEND
8
0
0
POLYLINE
8
0
62
5
66
1
10
0
20
0
30
0
70
8
0
VERTEX
8
0
62
5
10
0.22627417
20
0.56168153
30
0
70
32
0
VERTEX
8
0
62
5
10
0.22627417
20
0.58508595
30
0
70
32
0
SEQEND
8
0
0
POLYLINE
8
0
62
5
66
1
10
0
20
0
30
0
70
8
0
VERTEX
8
0
62
5
10
0.25455844
20
0.56168153
30
0
70
32
0
VERTEX
8
0
62
5
10
0.25455844
20
0.58508595
30
0
70
32
0
SEQEND
8
0
0
POLYLINE
8
0
62
5
66
1
10
0
20
0
30
0
70
8
0
VERTEX
8
0
62
5
10
0.28284271
20
0.56168153
30
0
70
32
0
VERTEX
8
0
62
5
10
0.28284271
20
0.58508595
30
0
70
32
0
SEQEND
8
0
0
POLYLINE
8
0
62
5
66
1
10
0
20
0
30
0
70
8
0
VERTEX
8
0
62
5
10
0.1979899
20
0.56168153
30
0
70
32
0
VERTEX
8
0
62
5
10
0.1979899
20
0.56168153
30
0
70
32
0
SEQEND
8
0
0
POLYLINE
8
0
62
5
66
1
10
0
20
0
30
0
70
8
0
VERTEX
8
0
62
5
10
0.22627417
20
0.56168153
30
0
70
32
0
VERTEX
8
0
62
5
10
0.22627417
20
0.56168153
30
0
70
32
0
SEQEND
8
0
0
POLYLINE
8
0
62
5
66
1
10
0
20
0
30
0
70
8
0
VERTEX
8
0
62
5
10
0.25455844
20
0.56168153
30
0
70
32
0
VERTEX
8
0
62
5
10
0.25455844
20
0.56168153
30
0
70
32
0
SEQEND
8
0
0
POLYLINE
8
0
62
5
66
1
10
0
20
0
30
0
70
8
0
VERTEX
8
0
62
5
10
0.16970563
20
0.58508595
30
0
70
32
0
VERTEX
8
0
62
5
10
0.16970563
20
0.58508595
30
0
70
32
0
SEQEND
8
0
0
POLYLINE
8
0
62
5
66
1
10
0
20
0
30
0
70
8
0
VERTEX
8
0
62
5
10
0.1979899
20
0.58508595
30
0
70
32
0
VERTEX
8
0
62
5
10
0.1979899
20
0.58508595
30
0
70
32
0
SEQEND
8
0
0
POLYLINE
8
0
62
5
66
1
10
0
20
0
30
0
70
8
0
VERTEX
8
0
62
5
10
0.22627417
20
0.58508595
30
0
70
32
0
VERTEX
8
0
62
5
10
0.22627417
20
0.58508595
30
0
70
32
0
SEQEND
8
0
0
POLYLINE
8
0
62
5
66
1
10
0
20
0
30
0
70
8
0
VERTEX
8
0
62
5
10
0.25455844
20
0.58508595
30
0
70
32
0
VERTEX
8
0
62
5
10
0.25455844
20
0.58508595
30
0
70
32
0
SEQEND
8
0
0
POLYLINE
8
0
62
5
66
1
10
0
20
0
30
0
70
8
0
VERTEX
8
0
62
5
10
-0.028284272
20
0.56168153
30
0
70
32
0
VERTEX
8
0
62
5
10
-0.028284272
20
0.58508595
30
0
70
32
0
SEQEND
8
0
0
POLYLINE
8
0
62
5
66
1
10
0
20
0
30
0
70
8
0
VERTEX
8
0
62
5
10
-4.8918072e-10
20
0.56168153
30
0
70
32
0
VERTEX
8
0
62
5
10
-4.8918072e-10
20
0.58508595
30
0
70
32
0
SEQEND
8
0
0
POLYLINE
8
0
62
5
66
1
10
0
20
0
30
0
70
8
0
VERTEX
8
0
62
5
10
0.028284271
20
0.56168153
30
0
70
32
0
VERTEX
8
0
62
5
10
0.028284271
20
0.58508595
30
0
70
32
0
SEQEND
8
0
0
POLYLINE
8
0
62
5
66
1
10
0
20
0
30
0
70
8
0
VERTEX
8
0
62
5
10
0.056568542
20
0.56168153
30
0
70
32
0
VERTEX
8
0
62
5
10
0.056568542
20
0.58508595
30
0
70
32
0
SEQEND
8
0
0
POLYLINE
8
0
62
5
66
1
10
0
20
0
30
0
70
8
0
VERTEX
8
0
62
5
10
-0.028284272
20
0.56168153
30
0
70
32
0
VERTEX
8
0
62
5
10
-0.028284272
20
0.56168153
30
0
70
32
0
SEQEND
8
0
0
POLYLINE
8
0
62
5
66
1
10
0
20
0
30
0
70
8
0
VERTEX
8
0
62
5
10
-4.8918072e-10
20
0.56168153
30
0
70
32
0
VERTEX
8
0
62
5
10
-4.8918072e-10
20
0.56168153
30
0
70
32
0
SEQEND
8
0
0
POLYLINE
8
0
62
5
66
1
10
0
20
0
30
0
70
8
0
VERTEX
8
0
62
5
10
0.028284271
20
0.56168153
30
0
70
32
0
VERTEX
8
0
62
5
10
0.028284271
20
0.56168153
30
0
70
32
0
SEQEND
8
0
0
POLYLINE
8
0
62
5
66
1
10
0
20
0
30
0
70
8
0
VERTEX
8
0
62
5
10
-0.056568542
20
0.58508595
30
0
70
32
0
VERTEX
8
0
62
5
10
-0.056568542
20
0.58508595
30
0
70
32
0
SEQEND
8
0
0
POLYLINE
8
0
62
5
66
1
10
0
20
0
30
0
70
8
0
VERTEX
8
0
62
5
10
-0.02828427
20
0.58508595
30
0
70
32
0
VERTEX
8
0
62
5
10
-0.02828427
20
0.58508595
30
0
70
32
0
SEQEND
8
0
0
POLYLINE
8
0
62
5
66
1
10
0
20
0
30
0
70
8
0
VERTEX
8
0
62
5
10
8.2100704e-10
20
0.58508595
30
0
70
32
0
VERTEX
8
0
62
5
10
8.2100704e-10
20
0.58508595
30
0
70
32
0
SEQEND
8
0
0
POLYLINE
8
0
62
5
66
1
10
0
20
0
30
0
70
8
0
VERTEX
8
0
62
5
10
0.028284272
20
0.58508595
30
0
70
32
0
VERTEX
8
0
62
5
10
0.028284272
20
0.58508595
30
0
70
32
0
SEQEND
8
0
0
POLYLINE
8
0
62
5
66
1
10
0
20
0
30
0
70
8
0
VERTEX
8
0
62
5
10
0.084852815
20
0.58508595
30
0
70
32
0
VERTEX
8
0
62
5
10
0.084852815
20
0.67870364
30
0
70
32
0
SEQEND
8
0
0
POLYLINE
8
0
62
5
66
1
10
0
20
0
30
0
70
8
0
VERTEX
8
0
62
5
10
0.1979899
20
0.58508595
30
0
70
32
0
VERTEX
8
0
62
5
10
0.1979899
20
0.67870364
30
0
70
32
0
SEQEND
8
0
0
POLYLINE
8
0
62
5
66
1
10
0
20
0
30
0
70
8
0
VERTEX
8
0
62
5
10
0.11313709
20
0.58508595
30
0
70
32
0
VERTEX
8
0
62
5
10
0.11313709
20
0.67870364
30
0
70
32
0
SEQEND
8
0
0
POLYLINE
8
0
62
5
66
1
10
0
20
0
30
0
70
8
0
VERTEX
8
0
62
5
10
0.14142136
20
0.58508595
30
0
70
32
0
VERTEX
8
0
62
5
10
0.14142136
20
0.67870364
30
0
70
32
0
SEQEND
8
0
0
POLYLINE
8
0
62
5
66
1
10
0
20
0
30
0
70
8
0
VERTEX
8
0
62
5
10
0.16970563
20
0.58508595
30
0
70
32
0
VERTEX
8
0
62
5
10
0.16970563
20
0.67870364
30
0
70
32
0
SEQEND
8
0
0
POLYLINE
8
0
62
5
66
1
10
0
20
0
30
0
70
8
0
VERTEX
8
0
62
5
10
0.31112698
20
0.58508595
30
0
70
32
0
VERTEX
8
0
62
5
10
0.31112698
20
0.67870364
30
0
70
32
0
SEQEND
8
0
0
POLYLINE
8
0
62
5
66
1
10
0
20
0
30
0
70
8
0
VERTEX
8
0
62
5
10
0.22627417
20
0.58508595
30
0
70
32
0
VERTEX
8
0
62
5
10
0.22627417
20
0.67870364
30
0
70
32
0
SEQEND
8
0
0
POLYLINE
8
0
62
5
66
1
10
0
20
0
30
0
70
8
0
VERTEX
8
0
62
5
10
0.25455844
20
0.58508595
30
0
70
32
0
VERTEX
8
0
62
5
10
0.25455844
20
0.67870364
30
0
70
32
0
SEQEND
8
0
0
POLYLINE
8
0
62
5
66
1
10
0
20
0
30
0
70
8
0
VERTEX
8
0
62
5
10
0.28284271
20
0.58508595
30
0
70
32
0
VERTEX
8
0
62
5
10
0.28284271
20
0.67870364
30
0
70
32
0
SEQEND
8
0
0
POLYLINE
8
0
62
5
66
1
10
0
20
0
30
0
70
8
0
VERTEX
8
0
62
5
10
-0.02828427
20
0.58508595
30
0
70
32
0
VERTEX
8
0
62
5
10
-0.02828427
20
0.67870364
30
0
70
32
0
SEQEND
8
0
0
POLYLINE
8
0
62
5
66
1
10
0
20
0
30
0
70
8
0
VERTEX
8
0
62
5
10
8.2100704e-10
20
0.58508595
30
0
70
32
0
VERTEX
8
0
62
5
10
8.2100704e-10
20
0.67870364
30
0
70
32
0
SEQEND
8
0
0
POLYLINE
8
0
62
5
66
1
10
0
20
0
30
0
70
8
0
VERTEX
8
0
62
5
10
0.028284272
20
0.58508595
30
0
70
32
0
VERTEX
8
0
62
5
10
0.028284272
20
0.67870364
30
0
70
32
0
SEQEND
8
0
0
POLYLINE
8
0
62
5
66
1
10
0
20
0
30
0
70
8
0
VERTEX
8
0
62
5
10
0.056568543
20
0.58508595
30
0
70
32
0
VERTEX
8
0
62
5
10
0.056568543
20
0.67870364
30
0
70
32
0
SEQEND
8
0
0
POLYLINE
8
0
62
5
66
1
10
0
20
0
30
0
70
8
0
VERTEX
8
0
62
5
10
0.084852815
20
0.67870364
30
0
70
32
0
VERTEX
8
0
62
5
10
0.084852815
20
0.73527218
30
0
70
32
0
SEQEND
8
0
0
POLYLINE
8
0
62
5
66
1
10
0
20
0
30
0
70
8
0
VERTEX
8
0
62
5
10
0.1979899
20
0.73527218
30
0
70
32
0
VERTEX
8
0
62
5
10
0.1979899
20
0.67870364
30
0
70
32
0
SEQEND
8
0
0
POLYLINE
8
0
62
5
66
1
10
0
20
0
30
0
70
8
0
VERTEX
8
0
62
5
10
0.084852815
20
0.68113004
30
0
70
32
0
VERTEX
8
0
62
5
10
0.11313709
20
0.69284577
30
0
70
32
0
VERTEX
8
0
62
5
10
0.14142136
20
0.69284577
30
0
70
32
0
VERTEX
8
0
62
5
10
0.16970563
20
0.68113004
30
0
70
32
0
VERTEX
8
0
62
5
10
0.1979899
20
0.68113004
30
0
70
32
0
SEQEND
8
0
0
POLYLINE
8
0
62
5
66
1
10
0
20
0
30
0
70
8
0
VERTEX
8
0
62
5
10
0.084852815
20
0.70941432
30
0
70
32
0
VERTEX
8
0
62
5
10
0.11313709
20
0.72113004
30
0
70
32
0
VERTEX
8
0
62
5
10
0.14142136
20
0.72113004
30
0
70
32
0
VERTEX
8
0
62
5
10
0.16970563
20
0.70941432
30
0
70
32
0
VERTEX
8
0
62
5
10
0.1979899
20
0.70941432
30
0
70
32
0
SEQEND
8
0
0
POLYLINE
8
0
62
5
66
1
10
0
20
0
30
0
70
8
0
VERTEX
8
0
62
5
10
0.084852815
20
0.7045615
30
0
70
32
0
VERTEX
8
0
62
5
10
0.11313709
20
0.69284577
30
0
70
32
0
VERTEX
8
0
62
5
10
0.14142136
20
0.69284577
30
0
70
32
0
VERTEX
8
0
62
5
10
0.16970563
20
0.7045615
30
0
70
32
0
VERTEX
8
0
62
5
10
0.1979899
20
0.7045615
30
0
70
32
0
SEQEND
8
0
0
POLYLINE
8
0
62
5
66
1
10
0
20
0
30
0
70
8
0
VERTEX
8
0
62
5
10
0.084852815
20
0.73284577
30
0
70
32
0
VERTEX
8
0
62
5
10
0.11313709
20
0.72113004
30
0
70
32
0
VERTEX
8
0
62
5
10
0.14142136
20
0.72113005
30
0
70
32
0
VERTEX
8
0
62
5
10
0.16970563
20
0.73284577
30
0
70
32
0
VERTEX
8
0
62
5
10
0.1979899
20
0.73284577
30
0
70
32
0
SEQEND
8
0
0
POLYLINE
8
0
62
30
66
1
10
0
20
0
30
0
70
8
0
VERTEX
8
0
62
30
10
0.084852815
20
0.69284577
30
0
70
32
0
VERTEX
8
0
62
30
10
0.1979899
20
0.69284577
30
0
70
32
0
SEQEND
8
0
0
POLYLINE
8
0
62
30
66
1
10
0
20
0
30
0
70
8
0
VERTEX
8
0
62
30
10
0.084852815
20
0.72113004
30
0
70
32
0
VERTEX
8
0
62
30
10
0.1979899
20
0.72113004
30
0
70
32
0
SEQEND
8
0
0
POLYLINE
8
0
62
30
66
1
10
0
20
0
30
0
70
8
0
VERTEX
8
0
62
30
10
0.11313709
20
0.69284577
30
0
70
32
0
VERTEX
8
0
62
30
10
0.11313709
20
0.69284577
30
0
70
32
0
SEQEND
8
0
0
POLYLINE
8
0
62
30
66
1
10
0
20
0
30
0
70
8
0
VERTEX
8
0
62
30
10
0.14142136
20
0.69284577
30
0
70
32
0
VERTEX
8
0
62
30
10
0.14142136
20
0.69284577
30
0
70
32
0
SEQEND
8
0
0
POLYLINE
8
0
62
30
66
1
10
0
20
0
30
0
70
8
0
VERTEX
8
0
62
30
10
0.16970563
20
0.68113004
30
0
70
32
0
VERTEX
8
0
62
30
10
0.16970563
20
0.69284577
30
0
70
32
0
SEQEND
8
0
0
POLYLINE
8
0
62
30
66
1
10
0
20
0
30
0
70
8
0
VERTEX
8
0
62
30
10
0.11313709
20
0.72113004
30
0
70
32
0
VERTEX
8
0
62
30
10
0.11313709
20
0.72113004
30
0
70
32
0
SEQEND
8
0
0
POLYLINE
8
0
62
30
66
1
10
0
20
0
30
0
70
8
0
VERTEX
8
0
62
30
10
0.14142136
20
0.72113004
30
0
70
32
0
VERTEX
8
0
62
30
10
0.14142136
20
0.72113004
30
0
70
32
0
SEQEND
8
0
0
POLYLINE
8
0
62
30
66
1
10
0
20
0
30
0
70
8
0
VERTEX
8
0
62
30
10
0.16970563
20
0.70941432
30
0
70
32
0
VERTEX
8
0
62
30
10
0.16970563
20
0.72113004
30
0
70
32
0
SEQEND
8
0
0
POLYLINE
8
0
62
5
66
1
10
0
20
0
30
0
70
8
0
VERTEX
8
0
62
5
10
0.11313709
20
0.67870364
30
0
70
32
0
VERTEX
8
0
62
5
10
0.11313709
20
0.69284577
30
0
70
32
0
SEQEND
8
0
0
POLYLINE
8
0
62
5
66
1
10
0
20
0
30
0
70
8
0
VERTEX
8
0
62
5
10
0.14142136
20
0.67870364
30
0
70
32
0
VERTEX
8
0
62
5
10
0.14142136
20
0.69284577
30
0
70
32
0
SEQEND
8
0
0
POLYLINE
8
0
62
5
66
1
10
0
20
0
30
0
70
8
0
VERTEX
8
0
62
5
10
0.16970563
20
0.67870364
30
0
70
32
0
VERTEX
8
0
62
5
10
0.16970563
20
0.68113004
30
0
70
32
0
SEQEND
8
0
0
POLYLINE
8
0
62
5
66
1
10
0
20
0
30
0
70
8
0
VERTEX
8
0
62
5
10
0.11313709
20
0.70698791
30
0
70
32
0
VERTEX
8
0
62
5
10
0.11313709
20
0.72113004
30
0
70
32
0
SEQEND
8
0
0
POLYLINE
8
0
62
5
66
1
10
0
20
0
30
0
70
8
0
VERTEX
8
0
62
5
10
0.14142136
20
0.70698791
30
0
70
32
0
VERTEX
8
0
62
5
10
0.14142136
20
0.72113004
30
0
70
32
0
SEQEND
8
0
0
POLYLINE
8
0
62
5
66
1
10
0
20
0
30
0
70
8
0
VERTEX
8
0
62
5
10
0.16970563
20
0.70698791
30
0
70
32
0
VERTEX
8
0
62
5
10
0.16970563
20
0.70941432
30
0
70
32
0
SEQEND
8
0
0
POLYLINE
8
0
62
5
66
1
10
0
20
0
30
0
70
8
0
VERTEX
8
0
62
5
10
0.11313709
20
0.69284577
30
0
70
32
0
VERTEX
8
0
62
5
10
0.11313709
20
0.70698791
30
0
70
32
0
SEQEND
8
0
0
POLYLINE
8
0
62
5
66
1
10
0
20
0
30
0
70
8
0
VERTEX
8
0
62
5
10
0.14142136
20
0.69284577
30
0
70
32
0
VERTEX
8
0
62
5
10
0.14142136
20
0.70698791
30
0
70
32
0
SEQEND
8
0
0
POLYLINE
8
0
62
5
66
1
10
0
20
0
30
0
70
8
0
VERTEX
8
0
62
5
10
0.16970563
20
0.69284577
30
0
70
32
0
VERTEX
8
0
62
5
10
0.16970563
20
0.70698791
30
0
70
32
0
SEQEND
8
0
0
POLYLINE
8
0
62
5
66
1
10
0
20
0
30
0
70
8
0
VERTEX
8
0
62
5
10
0.11313709
20
0.72113004
30
0
70
32
0
VERTEX
8
0
62
5
10
0.11313709
20
0.73527218
30
0
70
32
0
SEQEND
8
0
0
POLYLINE
8
0
62
5
66
1
10
0
20
0
30
0
70
8
0
VERTEX
8
0
62
5
10
0.14142136
20
0.72113004
30
0
70
32
0
VERTEX
8
0
62
5
10
0.14142136
20
0.73527218
30
0
70
32
0
SEQEND
8
0
0
POLYLINE
8
0
62
5
66
1
10
0
20
0
30
0
70
8
0
VERTEX
8
0
62
5
10
0.16970563
20
0.72113004
30
0
70
32
0
VERTEX
8
0
62
5
10
0.16970563
20
0.73527218
30
0
70
32
0
SEQEND
8
0
0
POLYLINE
8
0
62
30
66
1
10
0
20
0
30
0
70
8
0
VERTEX
8
0
62
30
10
0.084852815
20
0.68113004
30
0
70
32
0
VERTEX
8
0
62
30
10
0.092681014
20
0.69284577
30
0
70
32
0
VERTEX
8
0
62
30
10
0.084852815
20
0.7045615
30
0
70
32
0
SEQEND
8
0
0
POLYLINE
8
0
62
30
66
1
10
0
20
0
30
0
70
8
0
VERTEX
8
0
62
30
10
0.11313709
20
0.69284577
30
0
70
32
0
VERTEX
8
0
62
30
10
0.11313709
20
0.69284577
30
0
70
32
0
VERTEX
8
0
62
30
10
0.11313709
20
0.69284577
30
0
70
32
0
SEQEND
8
0
0
POLYLINE
8
0
62
30
66
1
10
0
20
0
30
0
70
8
0
VERTEX
8
0
62
30
10
0.14142136
20
0.69284577
30
0
70
32
0
VERTEX
8
0
62
30
10
0.14142136
20
0.69284577
30
0
70
32
0
VERTEX
8
0
62
30
10
0.14142136
20
0.69284577
30
0
70
32
0
SEQEND
8
0
0
POLYLINE
8
0
62
30
66
1
10
0
20
0
30
0
70
8
0
VERTEX
8
0
62
30
10
0.16970563
20
0.68113004
30
0
70
32
0
VERTEX
8
0
62
30
10
0.17753383
20
0.69284577
30
0
70
32
0
VERTEX
8
0
62
30
10
0.16970563
20
0.7045615
30
0
70
32
0
SEQEND
8
0
0
POLYLINE
8
0
62
30
66
1
10
0
20
0
30
0
70
8
0
VERTEX
8
0
62
30
10
0.084852815
20
0.70941432
30
0
70
32
0
VERTEX
8
0
62
30
10
0.092681014
20
0.72113004
30
0
70
32
0
VERTEX
8
0
62
30
10
0.084852815
20
0.73284577
30
0
70
32
0
SEQEND
8
0
0
POLYLINE
8
0
62
30
66
1
10
0
20
0
30
0
70
8
0
VERTEX
8
0
62
30
10
0.11313709
20
0.72113004
30
0
70
32
0
VERTEX
8
0
62
30
10
0.11313709
20
0.72113004
30
0
70
32
0
VERTEX
8
0
62
30
10
0.11313709
20
0.72113004
30
0
70
32
0
SEQEND
8
0
0
POLYLINE
8
0
62
30
66
1
10
0
20
0
30
0
70
8
0
VERTEX
8
0
62
30
10
0.14142136
20
0.72113004
30
0
70
32
0
VERTEX
8
0
62
30
10
0.14142136
20
0.72113004
30
0
70
32
0
VERTEX
8
0
62
30
10
0.14142136
20
0.72113005
30
0
70
32
0
SEQEND
8
0
0
POLYLINE
8
0
62
30
66
1
10
0
20
0
30
0
70
8
0
VERTEX
8
0
62
30
10
0.16970563
20
0.70941432
30
0
70
32
0
VERTEX
8
0
62
30
10
0.17753383
20
0.72113004
30
0
70
32
0
VERTEX
8
0
62
30
10
0.16970563
20
0.73284577
30
0
70
32
0
SEQEND
8
0
0
POLYLINE
8
0
62
5
66
1
10
0
20
0
30
0
70
8
0
VERTEX
8
0
62
5
10
0.31112698
20
0.73527218
30
0
70
32
0
VERTEX
8
0
62
5
10
0.31112698
20
0.67870364
30
0
70
32
0
SEQEND
8
0
0
POLYLINE
8
0
62
5
66
1
10
0
20
0
30
0
70
8
0
VERTEX
8
0
62
5
10
0.1979899
20
0.68113004
30
0
70
32
0
VERTEX
8
0
62
5
10
0.22627417
20
0.69284577
30
0
70
32
0
VERTEX
8
0
62
5
10
0.25455844
20
0.69284577
30
0
70
32
0
VERTEX
8
0
62
5
10
0.28284271
20
0.68113004
30
0
70
32
0
VERTEX
8
0
62
5
10
0.31112698
20
0.68113004
30
0
70
32
0
SEQEND
8
0
0
POLYLINE
8
0
62
5
66
1
10
0
20
0
30
0
70
8
0
VERTEX
8
0
62
5
10
0.1979899
20
0.70941432
30
0
70
32
0
VERTEX
8
0
62
5
10
0.22627417
20
0.72113004
30
0
70
32
0
VERTEX
8
0
62
5
10
0.25455844
20
0.72113004
30
0
70
32
0
VERTEX
8
0
62
5
10
0.28284271
20
0.70941432
30
0
70
32
0
VERTEX
8
0
62
5
10
0.31112698
20
0.70941432
30
0
70
32
0
SEQEND
8
0
0
POLYLINE
8
0
62
5
66
1
10
0
20
0
30
0
70
8
0
VERTEX
8
0
62
5
10
0.1979899
20
0.7045615
30
0
70
32
0
VERTEX
8
0
62
5
10
0.22627417
20
0.69284577
30
0
70
32
0
VERTEX
8
0
62
5
10
0.25455844
20
0.69284577
30
0
70
32
0
VERTEX
8
0
62
5
10
0.28284271
20
0.7045615
30
0
70
32
0
VERTEX
8
0
62
5
10
0.31112698
20
0.7045615
30
0
70
32
0
SEQEND
8
0
0
POLYLINE
8
0
62
5
66
1
10
0
20
0
30
0
70
8
0
VERTEX
8
0
62
5
10
0.1979899
20
0.73284577
30
0
70
32
0
VERTEX
8
0
62
5
10
0.22627417
20
0.72113004
30
0
70
32
0
VERTEX
8
0
62
5
10
0.25455844
20
0.72113005
30
0
70
32
0
VERTEX
8
0
62
5
10
0.28284271
20
0.73284577
30
0
70
32
0
VERTEX
8
0
62
5
10
0.31112698
20
0.73284577
30
0
70
32
0
SEQEND
8
0
0
POLYLINE
8
0
62
30
66
1
10
0
20
0
30
0
70
8
0
VERTEX
8
0
62
30
10
0.1979899
20
0.69284577
30
0
70
32
0
VERTEX
8
0
62
30
10
0.31112698
20
0.69284577
30
0
70
32
0
SEQEND
8
0
0
POLYLINE
8
0
62
30
66
1
10
0
20
0
30
0
70
8
0
VERTEX
8
0
62
30
10
0.1979899
20
0.72113004
30
0
70
32
0
VERTEX
8
0
62
30
10
0.31112698
20
0.72113004
30
0
70
32
0
SEQEND
8
0
0
POLYLINE
8
0
62
30
66
1
10
0
20
0
30
0
70
8
0
VERTEX
8
0
62
30
10
0.22627417
20
0.69284577
30
0
70
32
0
VERTEX
8
0
62
30
10
0.22627417
20
0.69284577
30
0
70
32
0
SEQEND
8
0
0
POLYLINE
8
0
62
30
66
1
10
0
20
0
30
0
70
8
0
VERTEX
8
0
62
30
10
0.25455844
20
0.69284577
30
0
70
32
0
VERTEX
8
0
62
30
10
0.25455844
20
0.69284577
30
0
70
32
0
SEQEND
8
0
0
POLYLINE
8
0
62
30
66
1
10
0
20
0
30
0
70
8
0
VERTEX
8
0
62
30
10
0.28284271
20
0.68113004
30
0
70
32
0
VERTEX
8
0
62
30
10
0.28284271
20
0.69284577
30
0
70
32
0
SEQEND
8
0
0
POLYLINE
8
0
62
30
66
1
10
0
20
0
30
0
70
8
0
VERTEX
8
0
62
30
10
0.22627417
20
0.72113004
30
0
70
32
0
VERTEX
8
0
62
30
10
0.22627417
20
0.72113004
30
0
70
32
0
SEQEND
8
0
0
POLYLINE
8
0
62
30
66
1
10
0
20
0
30
0
70
8
0
VERTEX
8
0
62
30
10
0.25455844
20
0.72113004
30
0
70
32
0
VERTEX
8
0
62
30
10
0.25455844
20
0.72113004
30
0
70
32
0
SEQEND
8
0
0
POLYLINE
8
0
62
30
66
1
10
0
20
0
30
0
70
8
0
VERTEX
8
0
62
30
10
0.28284271
20
0.70941432
30
0
70
32
0
VERTEX
8
0
62
30
10
0.28284271
20
0.72113004
30
0
70
32
0
SEQEND
8
0
0
POLYLINE
8
0
62
5
66
1
10
0
20
0
30
0
70
8
0
VERTEX
8
0
62
5
10
0.22627417
20
0.67870364
30
0
70
32
0
VERTEX
8
0
62
5
10
0.22627417
20
0.69284577
30
0
70
32
0
SEQEND
8
0
0
POLYLINE
8
0
62
5
66
1
10
0
20
0
30
0
70
8
0
VERTEX
8
0
62
5
10
0.25455844
20
0.67870364
30
0
70
32
0
VERTEX
8
0
62
5
10
0.25455844
20
0.69284577
30
0
70
32
0
SEQEND
8
0
0
POLYLINE
8
0
62
5
66
1
10
0
20
0
30
0
70
8
0
VERTEX
8
0
62
5
10
0.28284271
20
0.67870364
30
0
70
32
0
VERTEX
8
0
62
5
10
0.28284271
20
0.68113004
30
0
70
32
0
SEQEND
8
0
0
POLYLINE
8
0
62
5
66
1
10
0
20
0
30
0
70
8
0
VERTEX
8
0
62
5
10
0.22627417
20
0.70698791
30
0
70
32
0
VERTEX
8
0
62
5
10
0.22627417
20
0.72113004
30
0
70
32
0
SEQEND
8
0
0
POLYLINE
8
0
62
5
66
1
10
0
20
0
30
0
70
8
0
VERTEX
8
0
62
5
10
0.25455844
20
0.70698791
30
0
70
32
0
VERTEX
8
0
62
5
10
0.25455844
20
0.72113004
30
0
70
32
0
SEQEND
8
0
0
POLYLINE
8
0
62
5
66
1
10
0
20
0
30
0
70
8
0
VERTEX
8
0
62
5
10
0.28284271
20
0.70698791
30
0
70
32
0
VERTEX
8
0
62
5
10
0.28284271
20
0.70941432
30
0
70
32
0
SEQEND
8
0
0
POLYLINE
8
0
62
5
66
1
10
0
20
0
30
0
70
8
0
VERTEX
8
0
62
5
10
0.22627417
20
0.69284577
30
0
70
32
0
VERTEX
8
0
62
5
10
0.22627417
20
0.70698791
30
0
70
32
0
SEQEND
8
0
0
POLYLINE
8
0
62
5
66
1
10
0
20
0
30
0
70
8
0
VERTEX
8
0
62
5
10
0.25455844
20
0.69284577
30
0
70
32
0
VERTEX
8
0
62
5
10
0.25455844
20
0.70698791
30
0
70
32
0
SEQEND
8
0
0
POLYLINE
8
0
62
5
66
1
10
0
20
0
30
0
70
8
0
VERTEX
8
0
62
5
10
0.28284271
20
0.69284577
30
0
70
32
0
VERTEX
8
0
62
5
10
0.28284271
20
0.70698791
30
0
70
32
0
SEQEND
8
0
0
POLYLINE
8
0
62
5
66
1
10
0
20
0
30
0
70
8
0
VERTEX
8
0
62
5
10
0.22627417
20
0.72113004
30
0
70
32
0
VERTEX
8
0
62
5
10
0.22627417
20
0.73527218
30
0
70
32
0
SEQEND
8
0
0
POLYLINE
8
0
62
5
66
1
10
0
20
0
30
0
70
8
0
VERTEX
8
0
62
5
10
0.25455844
20
0.72113004
30
0
70
32
0
VERTEX
8
0
62
5
10
0.25455844
20
0.73527218
30
0
70
32
0
SEQEND
8
0
0
POLYLINE
8
0
62
5
66
1
10
0
20
0
30
0
70
8
0
VERTEX
8
0
62
5
10
0.28284271
20
0.72113004
30
0
70
32
0
VERTEX
8
0
62
5
10
0.28284271
20
0.73527218
30
0
70
32
0
SEQEND
8
0
0
POLYLINE
8
0
62
30
66
1
10
0
20
0
30
0
70
8
0
VERTEX
8
0
62
30
10
0.1979899
20
0.68113004
30
0
70
32
0
VERTEX
8
0
62
30
10
0.2058181
20
0.69284577
30
0
70
32
0
VERTEX
8
0
62
30
10
0.1979899
20
0.7045615
30
0
70
32
0
SEQEND
8
0
0
POLYLINE
8
0
62
30
66
1
10
0
20
0
30
0
70
8
0
VERTEX
8
0
62
30
10
0.22627417
20
0.69284577
30
0
70
32
0
VERTEX
8
0
62
30
10
0.22627417
20
0.69284577
30
0
70
32
0
VERTEX
8
0
62
30
10
0.22627417
20
0.69284577
30
0
70
32
0
SEQEND
8
0
0
POLYLINE
8
0
62
30
66
1
10
0
20
0
30
0
70
8
0
VERTEX
8
0
62
30
10
0.25455844
20
0.69284577
30
0
70
32
0
VERTEX
8
0
62
30
10
0.25455844
20
0.69284577
30
0
70
32
0
VERTEX
8
0
62
30
10
0.25455844
20
0.69284577
30
0
70
32
0
SEQEND
8
0
0
POLYLINE
8
0
62
30
66
1
10
0
20
0
30
0
70
8
0
VERTEX
8
0
62
30
10
0.28284271
20
0.68113004
30
0
70
32
0
VERTEX
8
0
62
30
10
0.29067091
20
0.69284577
30
0
70
32
0
VERTEX
8
0
62
30
10
0.28284271
20
0.7045615
30
0
70
32
0
SEQEND
8
0
0
POLYLINE
8
0
62
30
66
1
10
0
20
0
30
0
70
8
0
VERTEX
8
0
62
30
10
0.1979899
20
0.70941432
30
0
70
32
0
VERTEX
8
0
62
30
10
0.2058181
20
0.72113004
30
0
70
32
0
VERTEX
8
0
62
30
10
0.1979899
20
0.73284577
30
0
70
32
0
SEQEND
8
0
0
POLYLINE
8
0
62
30
66
1
10
0
20
0
30
0
70
8
0
VERTEX
8
0
62
30
10
0.22627417
20
0.72113004
30
0
70
32
0
VERTEX
8
0
62
30
10
0.22627417
20
0.72113004
30
0
70
32
0
VERTEX
8
0
62
30
10
0.22627417
20
0.72113004
30
0
70
32
0
SEQEND
8
0
0
POLYLINE
8
0
62
30
66
1
10
0
20
0
30
0
70
8
0
VERTEX
8
0
62
30
10
0.25455844
20
0.72113004
30
0
70
32
0
VERTEX
8
0
62
30
10
0.25455844
20
0.72113004
30
0
70
32
0
VERTEX
8
0
62
30
10
0.25455844
20
0.72113005
30
0
70
32
0
SEQEND
8
0
0
POLYLINE
8
0
62
30
66
1
10
0
20
0
30
0
70
8
0
VERTEX
8
0
62
30
10
0.28284271
20
0.70941432
30
0
70
32
0
VERTEX
8
0
62
30
10
0.29067091
20
0.72113004
30
0
70
32
0
VERTEX
8
0
62
30
10
0.28284271
20
0.73284577
30
0
70
32
0
SEQEND
8
0
0
POLYLINE
8
0
62
5
66
1
10
0
20
0
30
0
70
8
0
VERTEX
8
0
62
5
10
-0.02828427
20
0.67870364
30
0
70
32
0
VERTEX
8
0
62
5
10
-0.02828427
20
0.73527218
30
0
70
32
0
SEQEND
8
0
0
POLYLINE
8
0
62
5
66
1
10
0
20
0
30
0
70
8
0
VERTEX
8
0
62
5
10
-0.02828427
20
0.68113004
30
0
70
32
0
VERTEX
8
0
62
5
10
8.2100704e-10
20
0.69284577
30
0
70
32
0
VERTEX
8
0
62
5
10
0.028284272
20
0.69284577
30
0
70
32
0
VERTEX
8
0
62
5
10
0.056568543
20
0.68113004
30
0
70
32
0
VERTEX
8
0
62
5
10
0.084852815
20
0.68113004
30
0
70
32
0
SEQEND
8
0
0
POLYLINE
8
0
62
5
66
1
10
0
20
0
30
0
70
8
0
VERTEX
8
0
62
5
10
-0.02828427
20
0.70941432
30
0
70
32
0
VERTEX
8
0
62
5
10
8.2100704e-10
20
0.72113004
30
0
70
32
0
VERTEX
8
0
62
5
10
0.028284272
20
0.72113004
30
0
70
32
0
VERTEX
8
0
62
5
10
0.056568543
20
0.70941432
30
0
70
32
0
VERTEX
8
0
62
5
10
0.084852815
20
0.70941432
30
0
70
32
0
SEQEND
8
0
0
POLYLINE
8
0
62
5
66
1
10
0
20
0
30
0
70
8
0
VERTEX
8
0
62
5
10
-0.02828427
20
0.7045615
30
0
70
32
0
VERTEX
8
0
62
5
10
8.2100704e-10
20
0.69284577
30
0
70
32
0
VERTEX
8
0
62
5
10
0.028284272
20
0.69284577
30
0
70
32
0
VERTEX
8
0
62
5
10
0.056568543
20
0.7045615
30
0
70
32
0
VERTEX
8
0
62
5
10
0.084852815
20
0.7045615
30
0
70
32
0
SEQEND
8
0
0
POLYLINE
8
0
62
5
66
1
10
0
20
0
30
0
70
8
0
VERTEX
8
0
62
5
10
-0.02828427
20
0.73284577
30
0
70
32
0
VERTEX
8
0
62
5
10
8.2100704e-10
20
0.72113004
30
0
70
32
0
VERTEX
8
0
62
5
10
0.028284272
20
0.72113005
30
0
70
32
0
VERTEX
8
0
62
5
10
0.056568543
20
0.73284577
30
0
70
32
0
VERTEX
8
0
62
5
10
0.084852815
20
0.73284577
30
0
70
32
0
SEQEND
8
0
0
POLYLINE
8
0
62
30
66
1
10
0
20
0
30
0
70
8
0
VERTEX
8
0
62
30
10
-0.02828427
20
0.69284577
30
0
70
32
0
VERTEX
8
0
62
30
10
0.084852815
20
0.69284577
30
0
70
32
0
SEQEND
8
0
0
POLYLINE
8
0
62
30
66
1
10
0
20
0
30
0
70
8
0
VERTEX
8
0
62
30
10
-0.02828427
20
0.72113004
30
0
70
32
0
VERTEX
8
0
62
30
10
0.084852815
20
0.72113004
30
0
70
32
0
SEQEND
8
0
0
POLYLINE
8
0
62
30
66
1
10
0
20
0
30
0
70
8
0
VERTEX
8
0
62
30
10
8.2100704e-10
20
0.69284577
30
0
70
32
0
VERTEX
8
0
62
30
10
8.2100704e-10
20
0.69284577
30
0
70
32
0
SEQEND
8
0
0
POLYLINE
8
0
62
30
66
1
10
0
20
0
30
0
70
8
0
VERTEX
8
0
62
30
10
0.028284272
20
0.69284577
30
0
70
32
0
VERTEX
8
0
62
30
10
0.028284272
20
0.69284577
30
0
70
32
0
SEQEND
8
0
0
POLYLINE
8
0
62
30
66
1
10
0
20
0
30
0
70
8
0
VERTEX
8
0
62
30
10
0.056568543
20
0.68113004
30
0
70
32
0
VERTEX
8
0
62
30
10
0.056568543
20
0.69284577
30
0
70
32
0
SEQEND
8
0
0
POLYLINE
8
0
62
30
66
1
10
0
20
0
30
0
70
8
0
VERTEX
8
0
62
30
10
8.2100704e-10
20
0.72113004
30
0
70
32
0
VERTEX
8
0
62
30
10
8.2100704e-10
20
0.72113004
30
0
70
32
0
SEQEND
8
0
0
POLYLINE
8
0
62
30
66
1
10
0
20
0
30
0
70
8
0
VERTEX
8
0
62
30
10
0.028284272
20
0.72113004
30
0
70
32
0
VERTEX
8
0
62
30
10
0.028284272
20
0.72113004
30
0
70
32
0
SEQEND
8
0
0
POLYLINE
8
0
62
30
66
1
10
0
20
0
30
0
70
8
0
VERTEX
8
0
62
30
10
0.056568543
20
0.70941432
30
0
70
32
0
VERTEX
8
0
62
30
10
0.056568543
20
0.72113004
30
0
70
32
0
SEQEND
8
0
0
POLYLINE
8
0
62
5
66
1
10
0
20
0
30
0
70
8
0
VERTEX
8
0
62
5
10
8.2100704e-10
20
0.67870364
30
0
70
32
0
VERTEX
8
0
62
5
10
8.2100704e-10
20
0.69284577
30
0
70
32
0
SEQEND
8
0
0
POLYLINE
8
0
62
5
66
1
10
0
20
0
30
0
70
8
0
VERTEX
8
0
62
5
10
0.028284272
20
0.67870364
30
0
70
32
0
VERTEX
8
0
62
5
10
0.028284272
20
0.69284577
30
0
70
32
0
SEQEND
8
0
0
POLYLINE
8
0
62
5
66
1
10
0
20
0
30
0
70
8
0
VERTEX
8
0
62
5
10
0.056568543
20
0.67870364
30
0
70
32
0
VERTEX
8
0
62
5
10
0.056568543
20
0.68113004
30
0
70
32
0
SEQEND
8
0
0
POLYLINE
8
0
62
5
66
1
10
0
20
0
30
0
70
8
0
VERTEX
8
0
62
5
10
8.2100704e-10
20
0.70698791
30
0
70
32
0
VERTEX
8
0
62
5
10
8.2100704e-10
20
0.72113004
30
0
70
32
0
SEQEND
8
0
0
POLYLINE
8
0
62
5
66
1
10
0
20
0
30
0
70
8
0
VERTEX
8
0
62
5
10
0.028284272
20
0.70698791
30
0
70
32
0
VERTEX
8
0
62
5
10
0.028284272
20
0.72113004
30
0
70
32
0
SEQEND
8
0
0
POLYLINE
8
0
62
5
66
1
10
0
20
0
30
0
70
8
0
VERTEX
8
0
62
5
10
0.056568543
20
0.70698791
30
0
70
32
0
VERTEX
8
0
62
5
10
0.056568543
20
0.70941432
30
0
70
32
0
SEQEND
8
0
0
POLYLINE
8
0
62
5
66
1
10
0
20
0
30
0
70
8
0
VERTEX
8
0
62
5
10
8.2100704e-10
20
0.69284577
30
0
70
32
0
VERTEX
8
0
62
5
10
8.2100704e-10
20
0.70698791
30
0
70
32
0
SEQEND
8
0
0
POLYLINE
8
0
62
5
66
1
10
0
20
0
30
0
70
8
0
VERTEX
8
0
62
5
10
0.028284272
20
0.69284577
30
0
70
32
0
VERTEX
8
0
62
5
10
0.028284272
20
0.70698791
30
0
70
32
0
SEQEND
8
0
0
POLYLINE
8
0
62
5
66
1
10
0
20
0
30
0
70
8
0
VERTEX
8
0
62
5
10
0.056568543
20
0.69284577
30
0
70
32
0
VERTEX
8
0
62
5
10
0.056568543
20
0.70698791
30
0
70
32
0
SEQEND
8
0
0
POLYLINE
8
0
62
5
66
1
10
0
20
0
30
0
70
8
0
VERTEX
8
0
62
5
10
8.2100704e-10
20
0.72113004
30
0
70
32
0
VERTEX
8
0
62
5
10
8.2100704e-10
20
0.73527218
30
0
70
32
0
SEQEND
8
0
0
POLYLINE
8
0
62
5
66
1
10
0
20
0
30
0
70
8
0
VERTEX
8
0
62
5
10
0.028284272
20
0.72113004
30
0
70
32
0
VERTEX
8
0
62
5
10
0.028284272
20
0.73527218
30
0
70
32
0
SEQEND
8
0
0
POLYLINE
8
0
62
5
66
1
10
0
20
0
30
0
70
8
0
VERTEX
8
0
62
5
10
0.056568543
20
0.72113004
30
0
70
32
0
VERTEX
8
0
62
5
10
0.056568543
20
0.73527218
30
0
70
32
0
SEQEND
8
0
0
POLYLINE
8
0
62
30
66
1
10
0
20
0
30
0
70
8
0
VERTEX
8
0
62
30
10
-0.02828427
20
0.68113004
30
0
70
32
0
VERTEX
8
0
62
30
10
-0.020456071
20
0.69284577
30
0
70
32
0
VERTEX
8
0
62
30
10
-0.02828427
20
0.7045615
30
0
70
32
0
SEQEND
8
0
0
POLYLINE
8
0
62
30
66
1
10
0
20
0
30
0
70
8
0
VERTEX
8
0
62
30
10
8.2100704e-10
20
0.69284577
30
0
70
32
0
VERTEX
8
0
62
30
10
8.2100704e-10
20
0.69284577
30
0
70
32
0
VERTEX
8
0
62
30
10
8.2100704e-10
20
0.69284577
30
0
70
32
0
SEQEND
8
0
0
POLYLINE
8
0
62
30
66
1
10
0
20
0
30
0
70
8
0
VERTEX
8
0
62
30
10
0.028284272
20
0.69284577
30
0
70
32
0
VERTEX
8
0
62
30
10
0.028284273
20
0.69284577
30
0
70
32
0
VERTEX
8
0
62
30
10
0.028284272
20
0.69284577
30
0
70
32
0
SEQEND
8
0
0
POLYLINE
8
0
62
30
66
1
10
0
20
0
30
0
70
8
0
VERTEX
8
0
62
30
10
0.056568543
20
0.68113004
30
0
70
32
0
VERTEX
8
0
62
30
10
0.064396743
20
0.69284577
30
0
70
32
0
VERTEX
8
0
62
30
10
0.056568543
20
0.7045615
30
0
70
32
0
SEQEND
8
0
0
POLYLINE
8
0
62
30
66
1
10
0
20
0
30
0
70
8
0
VERTEX
8
0
62
30
10
-0.02828427
20
0.70941432
30
0
70
32
0
VERTEX
8
0
62
30
10
-0.020456071
20
0.72113004
30
0
70
32
0
VERTEX
8
0
62
30
10
-0.02828427
20
0.73284577
30
0
70
32
0
SEQEND
8
0
0
POLYLINE
8
0
62
30
66
1
10
0
20
0
30
0
70
8
0
VERTEX
8
0
62
30
10
8.2100704e-10
20
0.72113004
30
0
70
32
0
VERTEX
8
0
62
30
10
8.2100704e-10
20
0.72113004
30
0
70
32
0
VERTEX
8
0
62
30
10
8.2100704e-10
20
0.72113004
30
0
70
32
0
SEQEND
8
0
0
POLYLINE
8
0
62
30
66
1
10
0
20
0
30
0
70
8
0
VERTEX
8
0
62
30
10
0.028284272
20
0.72113004
30
0
70
32
0
VERTEX
8
0
62
30
10
0.028284273
20
0.72113004
30
0
70
32
0
VERTEX
8
0
62
30
10
0.028284272
20
0.72113005
30
0
70
32
0
SEQEND
8
0
0
POLYLINE
8
0
62
30
66
1
10
0
20
0
30
0
70
8
0
VERTEX
8
0
62
30
10
0.056568543
20
0.70941432
30
0
70
32
0
VERTEX
8
0
62
30
10
0.064396743
20
0.72113004
30
0
70
32
0
VERTEX
8
0
62
30
10
0.056568543
20
0.73284577
30
0
70
32
0
SEQEND
8
0
0
POLYLINE
8
0
62
5
66
1
10
0
20
0
30
0
70
8
0
VERTEX
8
0
62
5
10
0.084852815
20
0.73527218
30
0
70
32
0
VERTEX
8
0
62
5
10
0.084852815
20
0.77527218
30
0
70
32
0
SEQEND
8
0
0
POLYLINE
8
0
62
5
66
1
10
0
20
0
30
0
70
8
0
VERTEX
8
0
62
5
10
0.1979899
20
0.77527218
30
0
70
32
0
VERTEX
8
0
62
5
10
0.1979899
20
0.73527218
30
0
70
32
0
SEQEND
8
0
0
POLYLINE
8
0
62
5
66
1
10
0
20
0
30
0
70
8
0
VERTEX
8
0
62
5
10
0.084852815
20
0.73527218
30
0
70
32
0
VERTEX
8
0
62
5
10
0.1979899
20
0.73527218
30
0
70
32
0
SEQEND
8
0
0
POLYLINE
8
0
62
5
66
1
10
0
20
0
30
0
70
8
0
VERTEX
8
0
62
5
10
0.084852815
20
0.77527218
30
0
70
32
0
VERTEX
8
0
62
5
10
0.1979899
20
0.77527218
30
0
70
32
0
SEQEND
8
0
0
POLYLINE
8
0
62
5
66
1
10
0
20
0
30
0
70
8
0
VERTEX
8
0
62
5
10
0.11313709
20
0.73527218
30
0
70
32
0
VERTEX
8
0
62
5
10
0.11313709
20
0.73527218
30
0
70
32
0
SEQEND
8
0
0
POLYLINE
8
0
62
5
66
1
10
0
20
0
30
0
70
8
0
VERTEX
8
0
62
5
10
0.14142136
20
0.73527218
30
0
70
32
0
VERTEX
8
0
62
5
10
0.14142136
20
0.73527218
30
0
70
32
0
SEQEND
8
0
0
POLYLINE
8
0
62
5
66
1
10
0
20
0
30
0
70
8
0
VERTEX
8
0
62
5
10
0.16970563
20
0.73527218
30
0
70
32
0
VERTEX
8
0
62
5
10
0.16970563
20
0.73527218
30
0
70
32
0
SEQEND
8
0
0
POLYLINE
8
0
62
5
66
1
10
0
20
0
30
0
70
8
0
VERTEX
8
0
62
5
10
0.11313709
20
0.77527218
30
0
70
32
0
VERTEX
8
0
62
5
10
0.11313709
20
0.77527218
30
0
70
32
0
SEQEND
8
0
0
POLYLINE
8
0
62
5
66
1
10
0
20
0
30
0
70
8
0
VERTEX
8
0
62
5
10
0.14142136
20
0.77527218
30
0
70
32
0
VERTEX
8
0
62
5
10
0.14142136
20
0.77527218
30
0
70
32
0
SEQEND
8
0
0
POLYLINE
8
0
62
5
66
1
10
0
20
0
30
0
70
8
0
VERTEX
8
0
62
5
10
0.16970563
20
0.77527218
30
0
70
32
0
VERTEX
8
0
62
5
10
0.16970563
20
0.77527218
30
0
70
32
0
SEQEND
8
0
0
POLYLINE
8
0
62
30
66
1
10
0
20
0
30
0
70
8
0
VERTEX
8
0
62
30
10
0.084852815
20
0.77527218
30
0
70
32
0
VERTEX
8
0
62
30
10
0.11313709
20
0.73527218
30
0
70
32
0
SEQEND
8
0
0
POLYLINE
8
0
62
30
66
1
10
0
20
0
30
0
70
8
0
VERTEX
8
0
62
30
10
0.11313709
20
0.77527218
30
0
70
32
0
VERTEX
8
0
62
30
10
0.084852815
20
0.73527218
30
0
70
32
0
SEQEND
8
0
0
POLYLINE
8
0
62
30
66
1
10
0
20
0
30
0
70
8
0
VERTEX
8
0
62
30
10
0.14142136
20
0.77527218
30
0
70
32
0
VERTEX
8
0
62
30
10
0.16970563
20
0.73527218
30
0
70
32
0
SEQEND
8
0
0
POLYLINE
8
0
62
30
66
1
10
0
20
0
30
0
70
8
0
VERTEX
8
0
62
30
10
0.16970563
20
0.77527218
30
0
70
32
0
VERTEX
8
0
62
30
10
0.14142136
20
0.73527218
30
0
70
32
0
SEQEND
8
0
0
POLYLINE
8
0
62
30
66
1
10
0
20
0
30
0
70
8
0
VERTEX
8
0
62
30
10
0.11313709
20
0.75527218
30
0
70
32
0
VERTEX
8
0
62
30
10
0.14142136
20
0.75527218
30
0
70
32
0
SEQEND
8
0
0
POLYLINE
8
0
62
30
66
1
10
0
20
0
30
0
70
8
0
VERTEX
8
0
62
30
10
0.16970563
20
0.75527218
30
0
70
32
0
VERTEX
8
0
62
30
10
0.1979899
20
0.75527218
30
0
70
32
0
SEQEND
8
0
0
POLYLINE
8
0
62
5
66
1
10
0
20
0
30
0
70
8
0
VERTEX
8
0
62
5
10
0.084852815
20
0.75527218
30
0
70
32
0
VERTEX
8
0
62
5
10
0.09899495
20
0.75527218
30
0
70
32
0
SEQEND
8
0
0
POLYLINE
8
0
62
5
66
1
10
0
20
0
30
0
70
8
0
VERTEX
8
0
62
5
10
0.14142136
20
0.75527218
30
0
70
32
0
VERTEX
8
0
62
5
10
0.15556349
20
0.75527218
30
0
70
32
0
SEQEND
8
0
0
POLYLINE
8
0
62
5
66
1
10
0
20
0
30
0
70
8
0
VERTEX
8
0
62
5
10
0.09899495
20
0.75527218
30
0
70
32
0
VERTEX
8
0
62
5
10
0.11313709
20
0.75527218
30
0
70
32
0
SEQEND
8
0
0
POLYLINE
8
0
62
5
66
1
10
0
20
0
30
0
70
8
0
VERTEX
8
0
62
5
10
0.15556349
20
0.75527218
30
0
70
32
0
VERTEX
8
0
62
5
10
0.16970563
20
0.75527218
30
0
70
32
0
SEQEND
8
0
0
POLYLINE
8
0
62
5
66
1
10
0
20
0
30
0
70
8
0
VERTEX
8
0
62
5
10
0.11313709
20
0.73527218
30
0
70
32
0
VERTEX
8
0
62
5
10
0.11313709
20
0.77527218
30
0
70
32
0
SEQEND
8
0
0
POLYLINE
8
0
62
5
66
1
10
0
20
0
30
0
70
8
0
VERTEX
8
0
62
5
10
0.14142136
20
0.73527218
30
0
70
32
0
VERTEX
8
0
62
5
10
0.14142136
20
0.77527218
30
0
70
32
0
SEQEND
8
0
0
POLYLINE
8
0
62
5
66
1
10
0
20
0
30
0
70
8
0
VERTEX
8
0
62
5
10
0.16970563
20
0.73527218
30
0
70
32
0
VERTEX
8
0
62
5
10
0.16970563
20
0.77527218
30
0
70
32
0
SEQEND
8
0
0
POLYLINE
8
0
62
5
66
1
10
0
20
0
30
0
70
8
0
VERTEX
8
0
62
5
10
0.084852815
20
0.73527218
30
0
70
32
0
VERTEX
8
0
62
5
10
0.084852815
20
0.77527218
30
0
70
32
0
SEQEND
8
0
0
POLYLINE
8
0
62
5
66
1
10
0
20
0
30
0
70
8
0
VERTEX
8
0
62
5
10
0.31112698
20
0.77527218
30
0
70
32
0
VERTEX
8
0
62
5
10
0.31112698
20
0.73527218
30
0
70
32
0
SEQEND
8
0
0
POLYLINE
8
0
62
5
66
1
10
0
20
0
30
0
70
8
0
VERTEX
8
0
62
5
10
0.1979899
20
0.73527218
30
0
70
32
0
VERTEX
8
0
62
5
10
0.31112698
20
0.73527218
30
0
70
32
0
SEQEND
8
0
0
POLYLINE
8
0
62
5
66
1
10
0
20
0
30
0
70
8
0
VERTEX
8
0
62
5
10
0.1979899
20
0.77527218
30
0
70
32
0
VERTEX
8
0
62
5
10
0.31112698
20
0.77527218
30
0
70
32
0
SEQEND
8
0
0
POLYLINE
8
0
62
5
66
1
10
0
20
0
30
0
70
8
0
VERTEX
8
0
62
5
10
0.22627417
20
0.73527218
30
0
70
32
0
VERTEX
8
0
62
5
10
0.22627417
20
0.73527218
30
0
70
32
0
SEQEND
8
0
0
POLYLINE
8
0
62
5
66
1
10
0
20
0
30
0
70
8
0
VERTEX
8
0
62
5
10
0.25455844
20
0.73527218
30
0
70
32
0
VERTEX
8
0
62
5
10
0.25455844
20
0.73527218
30
0
70
32
0
SEQEND
8
0
0
POLYLINE
8
0
62
5
66
1
10
0
20
0
30
0
70
8
0
VERTEX
8
0
62
5
10
0.28284271
20
0.73527218
30
0
70
32
0
VERTEX
8
0
62
5
10
0.28284271
20
0.73527218
30
0
70
32
0
SEQEND
8
0
0
POLYLINE
8
0
62
5
66
1
10
0
20
0
30
0
70
8
0
VERTEX
8
0
62
5
10
0.22627417
20
0.77527218
30
0
70
32
0
VERTEX
8
0
62
5
10
0.22627417
20
0.77527218
30
0
70
32
0
SEQEND
8
0
0
POLYLINE
8
0
62
5
66
1
10
0
20
0
30
0
70
8
0
VERTEX
8
0
62
5
10
0.25455844
20
0.77527218
30
0
70
32
0
VERTEX
8
0
62
5
10
0.25455844
20
0.77527218
30
0
70
32
0
SEQEND
8
0
0
POLYLINE
8
0
62
5
66
1
10
0
20
0
30
0
70
8
0
VERTEX
8
0
62
5
10
0.28284271
20
0.77527218
30
0
70
32
0
VERTEX
8
0
62
5
10
0.28284271
20
0.77527218
30
0
70
32
0
SEQEND
8
0
0
POLYLINE
8
0
62
30
66
1
10
0
20
0
30
0
70
8
0
VERTEX
8
0
62
30
10
0.1979899
20
0.77527218
30
0
70
32
0
VERTEX
8
0
62
30
10
0.22627417
20
0.73527218
30
0
70
32
0
SEQEND
8
0
0
POLYLINE
8
0
62
30
66
1
10
0
20
0
30
0
70
8
0
VERTEX
8
0
62
30
10
0.22627417
20
0.77527218
30
0
70
32
0
VERTEX
8
0
62
30
10
0.1979899
20
0.73527218
30
0
70
32
0
SEQEND
8
0
0
POLYLINE
8
0
62
30
66
1
10
0
20
0
30
0
70
8
0
VERTEX
8
0
62
30
10
0.25455844
20
0.77527218
30
0
70
32
0
VERTEX
8
0
62
30
10
0.28284271
20
0.73527218
30
0
70
32
0
SEQEND
8
0
0
POLYLINE
8
0
62
30
66
1
10
0
20
0
30
0
70
8
0
VERTEX
8
0
62
30
10
0.28284271
20
0.77527218
30
0
70
32
0
VERTEX
8
0
62
30
10
0.25455844
20
0.73527218
30
0
70
32
0
SEQEND
8
0
0
POLYLINE
8
0
62
30
66
1
10
0
20
0
30
0
70
8
0
VERTEX
8
0
62
30
10
0.22627417
20
0.75527218
30
0
70
32
0
VERTEX
8
0
62
30
10
0.25455844
20
0.75527218
30
0
70
32
0
SEQEND
8
0
0
POLYLINE
8
0
62
30
66
1
10
0
20
0
30
0
70
8
0
VERTEX
8
0
62
30
10
0.28284271
20
0.75527218
30
0
70
32
0
VERTEX
8
0
62
30
10
0.31112698
20
0.75527218
30
0
70
32
0
SEQEND
8
0
0
POLYLINE
8
0
62
5
66
1
10
0
20
0
30
0
70
8
0
VERTEX
8
0
62
5
10
0.1979899
20
0.75527218
30
0
70
32
0
VERTEX
8
0
62
5
10
0.21213204
20
0.75527218
30
0
70
32
0
SEQEND
8
0
0
POLYLINE
8
0
62
5
66
1
10
0
20
0
30
0
70
8
0
VERTEX
8
0
62
5
10
0.25455844
20
0.75527218
30
0
70
32
0
VERTEX
8
0
62
5
10
0.26870058
20
0.75527218
30
0
70
32
0
SEQEND
8
0
0
POLYLINE
8
0
62
5
66
1
10
0
20
0
30
0
70
8
0
VERTEX
8
0
62
5
10
0.21213204
20
0.75527218
30
0
70
32
0
VERTEX
8
0
62
5
10
0.22627417
20
0.75527218
30
0
70
32
0
SEQEND
8
0
0
POLYLINE
8
0
62
5
66
1
10
0
20
0
30
0
70
8
0
VERTEX
8
0
62
5
10
0.26870058
20
0.75527218
30
0
70
32
0
VERTEX
8
0
62
5
10
0.28284271
20
0.75527218
30
0
70
32
0
SEQEND
8
0
0
POLYLINE
8
0
62
5
66
1
10
0
20
0
30
0
70
8
0
VERTEX
8
0
62
5
10
0.22627417
20
0.73527218
30
0
70
32
0
VERTEX
8
0
62
5
10
0.22627417
20
0.77527218
30
0
70
32
0
SEQEND
8
0
0
POLYLINE
8
0
62
5
66
1
10
0
20
0
30
0
70
8
0
VERTEX
8
0
62
5
10
0.25455844
20
0.73527218
30
0
70
32
0
VERTEX
8
0
62
5
10
0.25455844
20
0.77527218
30
0
70
32
0
SEQEND
8
0
0
POLYLINE
8
0
62
5
66
1
10
0
20
0
30
0
70
8
0
VERTEX
8
0
62
5
10
0.28284271
20
0.73527218
30
0
70
32
0
VERTEX
8
0
62
5
10
0.28284271
20
0.77527218
30
0
70
32
0
SEQEND
8
0
0
POLYLINE
8
0
62
5
66
1
10
0
20
0
30
0
70
8
0
VERTEX
8
0
62
5
10
0.1979899
20
0.73527218
30
0
70
32
0
VERTEX
8
0
62
5
10
0.1979899
20
0.77527218
30
0
70
32
0
SEQEND
8
0
0
POLYLINE
8
0
62
5
66
1
10
0
20
0
30
0
70
8
0
VERTEX
8
0
62
5
10
-0.02828427
20
0.73527218
30
0
70
32
0
VERTEX
8
0
62
5
10
-0.02828427
20
0.77527218
30
0
70
32
0
SEQEND
8
0
0
POLYLINE
8
0
62
5
66
1
10
0
20
0
30
0
70
8
0
VERTEX
8
0
62
5
10
-0.02828427
20
0.73527218
30
0
70
32
0
VERTEX
8
0
62
5
10
0.084852815
20
0.73527218
30
0
70
32
0
SEQEND
8
0
0
POLYLINE
8
0
62
5
66
1
10
0
20
0
30
0
70
8
0
VERTEX
8
0
62
5
10
-0.02828427
20
0.77527218
30
0
70
32
0
VERTEX
8
0
62
5
10
0.084852815
20
0.77527218
30
0
70
32
0
SEQEND
8
0
0
POLYLINE
8
0
62
5
66
1
10
0
20
0
30
0
70
8
0
VERTEX
8
0
62
5
10
8.2100704e-10
20
0.73527218
30
0
70
32
0
VERTEX
8
0
62
5
10
8.2100704e-10
20
0.73527218
30
0
70
32
0
SEQEND
8
0
0
POLYLINE
8
0
62
5
66
1
10
0
20
0
30
0
70
8
0
VERTEX
8
0
62
5
10
0.028284272
20
0.73527218
30
0
70
32
0
VERTEX
8
0
62
5
10
0.028284272
20
0.73527218
30
0
70
32
0
SEQEND
8
0
0
POLYLINE
8
0
62
5
66
1
10
0
20
0
30
0
70
8
0
VERTEX
8
0
62
5
10
0.056568543
20
0.73527218
30
0
70
32
0
VERTEX
8
0
62
5
10
0.056568543
20
0.73527218
30
0
70
32
0
SEQEND
8
0
0
POLYLINE
8
0
62
5
66
1
10
0
20
0
30
0
70
8
0
VERTEX
8
0
62
5
10
8.2100704e-10
20
0.77527218
30
0
70
32
0
VERTEX
8
0
62
5
10
8.2100704e-10
20
0.77527218
30
0
70
32
0
SEQEND
8
0
0
POLYLINE
8
0
62
5
66
1
10
0
20
0
30
0
70
8
0
VERTEX
8
0
62
5
10
0.028284272
20
0.77527218
30
0
70
32
0
VERTEX
8
0
62
5
10
0.028284272
20
0.77527218
30
0
70
32
0
SEQEND
8
0
0
POLYLINE
8
0
62
5
66
1
10
0
20
0
30
0
70
8
0
VERTEX
8
0
62
5
10
0.056568543
20
0.77527218
30
0
70
32
0
VERTEX
8
0
62
5
10
0.056568543
20
0.77527218
30
0
70
32
0
SEQEND
8
0
0
POLYLINE
8
0
62
30
66
1
10
0
20
0
30
0
70
8
0
VERTEX
8
0
62
30
10
-0.02828427
20
0.77527218
30
0
70
32
0
VERTEX
8
0
62
30
10
8.2100704e-10
20
0.73527218
30
0
70
32
0
SEQEND
8
0
0
POLYLINE
8
0
62
30
66
1
10
0
20
0
30
0
70
8
0
VERTEX
8
0
62
30
10
8.2100704e-10
20
0.77527218
30
0
70
32
0
VERTEX
8
0
62
30
10
-0.02828427
20
0.73527218
30
0
70
32
0
SEQEND
8
0
0
POLYLINE
8
0
62
30
66
1
10
0
20
0
30
0
70
8
0
VERTEX
8
0
62
30
10
0.028284272
20
0.77527218
30
0
70
32
0
VERTEX
8
0
62
30
10
0.056568543
20
0.73527218
30
0
70
32
0
SEQEND
8
0
0
POLYLINE
8
0
62
30
66
1
10
0
20
0
30
0
70
8
0
VERTEX
8
0
62
30
10
0.056568543
20
0.77527218
30
0
70
32
0
VERTEX
8
0
62
30
10
0.028284272
20
0.73527218
30
0
70
32
0
SEQEND
8
0
0
POLYLINE
8
0
62
30
66
1
10
0
20
0
30
0
70
8
0
VERTEX
8
0
62
30
10
8.2100704e-10
20
0.75527218
30
0
70
32
0
VERTEX
8
0
62
30
10
0.028284272
20
0.75527218
30
0
70
32
0
SEQEND
8
0
0
POLYLINE
8
0
62
30
66
1
10
0
20
0
30
0
70
8
0
VERTEX
8
0
62
30
10
0.056568543
20
0.75527218
30
0
70
32
0
VERTEX
8
0
62
30
10
0.084852815
20
0.75527218
30
0
70
32
0
SEQEND
8
0
0
POLYLINE
8
0
62
5
66
1
10
0
20
0
30
0
70
8
0
VERTEX
8
0
62
5
10
-0.02828427
20
0.75527218
30
0
70
32
0
VERTEX
8
0
62
5
10
-0.014142135
20
0.75527218
30
0
70
32
0
SEQEND
8
0
0
POLYLINE
8
0
62
5
66
1
10
0
20
0
30
0
70
8
0
VERTEX
8
0
62
5
10
0.028284272
20
0.75527218
30
0
70
32
0
VERTEX
8
0
62
5
10
0.042426408
20
0.75527218
30
0
70
32
0
SEQEND
8
0
0
POLYLINE
8
0
62
5
66
1
10
0
20
0
30
0
70
8
0
VERTEX
8
0
62
5
10
-0.014142135
20
0.75527218
30
0
70
32
0
VERTEX
8
0
62
5
10
8.2100704e-10
20
0.75527218
30
0
70
32
0
SEQEND
8
0
0
POLYLINE
8
0
62
5
66
1
10
0
20
0
30
0
70
8
0
VERTEX
8
0
62
5
10
0.042426408
20
0.75527218
30
0
70
32
0
VERTEX
8
0
62
5
10
0.056568543
20
0.75527218
30
0
70
32
0
SEQEND
8
0
0
POLYLINE
8
0
62
5
66
1
10
0
20
0
30
0
70
8
0
VERTEX
8
0
62
5
10
8.2100704e-10
20
0.73527218
30
0
70
32
0
VERTEX
8
0
62
5
10
8.2100704e-10
20
0.77527218
30
0
70
32
0
SEQEND
8
0
0
POLYLINE
8
0
62
5
66
1
10
0
20
0
30
0
70
8
0
VERTEX
8
0
62
5
10
0.028284272
20
0.73527218
30
0
70
32
0
VERTEX
8
0
62
5
10
0.028284272
20
0.77527218
30
0
70
32
0
SEQEND
8
0
0
POLYLINE
8
0
62
5
66
1
10
0
20
0
30
0
70
8
0
VERTEX
8
0
62
5
10
0.056568543
20
0.73527218
30
0
70
32
0
VERTEX
8
0
62
5
10
0.056568543
20
0.77527218
30
0
70
32
0
SEQEND
8
0
0
POLYLINE
8
0
62
5
66
1
10
0
20
0
30
0
70
8
0
VERTEX
8
0
62
5
10
-0.02828427
20
0.73527218
30
0
70
32
0
VERTEX
8
0
62
5
10
-0.02828427
20
0.77527218
30
0
70
32
0
SEQEND
8
0
0
POLYLINE
8
0
62
5
66
1
10
0
20
0
30
0
70
8
0
VERTEX
8
0
62
5
10
0.084852815
20
0.77527218
30
0
70
32
0
VERTEX
8
0
62
5
10
0.084852815
20
0.79361533
30
0
70
32
0
SEQEND
8
0
0
POLYLINE
8
0
62
5
66
1
10
0
20
0
30
0
70
8
0
VERTEX
8
0
62
5
10
0.11313709
20
0.77527218
30
0
70
32
0
VERTEX
8
0
62
5
10
0.11313709
20
0.79361533
30
0
70
32
0
SEQEND
8
0
0
POLYLINE
8
0
62
5
66
1
10
0
20
0
30
0
70
8
0
VERTEX
8
0
62
5
10
0.14142136
20
0.77527218
30
0
70
32
0
VERTEX
8
0
62
5
10
0.14142136
20
0.79361533
30
0
70
32
0
SEQEND
8
0
0
POLYLINE
8
0
62
5
66
1
10
0
20
0
30
0
70
8
0
VERTEX
8
0
62
5
10
0.16970563
20
0.77527218
30
0
70
32
0
VERTEX
8
0
62
5
10
0.16970563
20
0.79361533
30
0
70
32
0
SEQEND
8
0
0
POLYLINE
8
0
62
5
66
1
10
0
20
0
30
0
70
8
0
VERTEX
8
0
62
5
10
0.1979899
20
0.77527218
30
0
70
32
0
VERTEX
8
0
62
5
10
0.1979899
20
0.79361533
30
0
70
32
0
SEQEND
8
0
0
POLYLINE
8
0
62
5
66
1
10
0
20
0
30
0
70
8
0
VERTEX
8
0
62
5
10
0.11313709
20
0.77527218
30
0
70
32
0
VERTEX
8
0
62
5
10
0.11313709
20
0.77527218
30
0
70
32
0
SEQEND
8
0
0
POLYLINE
8
0
62
5
66
1
10
0
20
0
30
0
70
8
0
VERTEX
8
0
62
5
10
0.14142136
20
0.77527218
30
0
70
32
0
VERTEX
8
0
62
5
10
0.14142136
20
0.77527218
30
0
70
32
0
SEQEND
8
0
0
POLYLINE
8
0
62
5
66
1
10
0
20
0
30
0
70
8
0
VERTEX
8
0
62
5
10
0.16970563
20
0.77527218
30
0
70
32
0
VERTEX
8
0
62
5
10
0.16970563
20
0.77527218
30
0
70
32
0
SEQEND
8
0
0
POLYLINE
8
0
62
5
66
1
10
0
20
0
30
0
70
8
0
VERTEX
8
0
62
5
10
0.11313709
20
0.79361533
30
0
70
32
0
VERTEX
8
0
62
5
10
0.11313709
20
0.79361533
30
0
70
32
0
SEQEND
8
0
0
POLYLINE
8
0
62
5
66
1
10
0
20
0
30
0
70
8
0
VERTEX
8
0
62
5
10
0.14142136
20
0.79361533
30
0
70
32
0
VERTEX
8
0
62
5
10
0.14142136
20
0.79361533
30
0
70
32
0
SEQEND
8
0
0
POLYLINE
8
0
62
5
66
1
10
0
20
0
30
0
70
8
0
VERTEX
8
0
62
5
10
0.16970563
20
0.79361533
30
0
70
32
0
VERTEX
8
0
62
5
10
0.16970563
20
0.79361533
30
0
70
32
0
SEQEND
8
0
0
POLYLINE
8
0
62
5
66
1
10
0
20
0
30
0
70
8
0
VERTEX
8
0
62
5
10
0.22627417
20
0.77527218
30
0
70
32
0
VERTEX
8
0
62
5
10
0.22627417
20
0.79361533
30
0
70
32
0
SEQEND
8
0
0
POLYLINE
8
0
62
5
66
1
10
0
20
0
30
0
70
8
0
VERTEX
8
0
62
5
10
0.25455844
20
0.77527218
30
0
70
32
0
VERTEX
8
0
62
5
10
0.25455844
20
0.79361533
30
0
70
32
0
SEQEND
8
0
0
POLYLINE
8
0
62
5
66
1
10
0
20
0
30
0
70
8
0
VERTEX
8
0
62
5
10
0.28284271
20
0.77527218
30
0
70
32
0
VERTEX
8
0
62
5
10
0.28284271
20
0.79361533
30
0
70
32
0
SEQEND
8
0
0
POLYLINE
8
0
62
5
66
1
10
0
20
0
30
0
70
8
0
VERTEX
8
0
62
5
10
0.31112698
20
0.77527218
30
0
70
32
0
VERTEX
8
0
62
5
10
0.31112698
20
0.79361533
30
0
70
32
0
SEQEND
8
0
0
POLYLINE
8
0
62
5
66
1
10
0
20
0
30
0
70
8
0
VERTEX
8
0
62
5
10
0.22627417
20
0.77527218
30
0
70
32
0
VERTEX
8
0
62
5
10
0.22627417
20
0.77527218
30
0
70
32
0
SEQEND
8
0
0
POLYLINE
8
0
62
5
66
1
10
0
20
0
30
0
70
8
0
VERTEX
8
0
62
5
10
0.25455844
20
0.77527218
30
0
70
32
0
VERTEX
8
0
62
5
10
0.25455844
20
0.77527218
30
0
70
32
0
SEQEND
8
0
0
POLYLINE
8
0
62
5
66
1
10
0
20
0
30
0
70
8
0
VERTEX
8
0
62
5
10
0.28284271
20
0.77527218
30
0
70
32
0
VERTEX
8
0
62
5
10
0.28284271
20
0.77527218
30
0
70
32
0
SEQEND
8
0
0
POLYLINE
8
0
62
5
66
1
10
0
20
0
30
0
70
8
0
VERTEX
8
0
62
5
10
0.22627417
20
0.79361533
30
0
70
32
0
VERTEX
8
0
62
5
10
0.22627417
20
0.79361533
30
0
70
32
0
SEQEND
8
0
0
POLYLINE
8
0
62
5
66
1
10
0
20
0
30
0
70
8
0
VERTEX
8
0
62
5
10
0.25455844
20
0.79361533
30
0
70
32
0
VERTEX
8
0
62
5
10
0.25455844
20
0.79361533
30
0
70
32
0
SEQEND
8
0
0
POLYLINE
8
0
62
5
66
1
10
0
20
0
30
0
70
8
0
VERTEX
8
0
62
5
10
0.28284271
20
0.79361533
30
0
70
32
0
VERTEX
8
0
62
5
10
0.28284271
20
0.79361533
30
0
70
32
0
SEQEND
8
0
0
POLYLINE
8
0
62
5
66
1
10
0
20
0
30
0
70
8
0
VERTEX
8
0
62
5
10
8.2100704e-10
20
0.77527218
30
0
70
32
0
VERTEX
8
0
62
5
10
8.2100704e-10
20
0.79361533
30
0
70
32
0
SEQEND
8
0
0
POLYLINE
8
0
62
5
66
1
10
0
20
0
30
0
70
8
0
VERTEX
8
0
62
5
10
0.028284272
20
0.77527218
30
0
70
32
0
VERTEX
8
0
62
5
10
0.028284272
20
0.79361533
30
0
70
32
0
SEQEND
8
0
0
POLYLINE
8
0
62
5
66
1
10
0
20
0
30
0
70
8
0
VERTEX
8
0
62
5
10
0.056568543
20
0.77527218
30
0
70
32
0
VERTEX
8
0
62
5
10
0.056568543
20
0.79361533
30
0
70
32
0
SEQEND
8
0
0
POLYLINE
8
0
62
5
66
1
10
0
20
0
30
0
70
8
0
VERTEX
8
0
62
5
10
0.084852815
20
0.77527218
30
0
70
32
0
VERTEX
8
0
62
5
10
0.084852815
20
0.79361533
30
0
70
32
0
SEQEND
8
0
0
POLYLINE
8
0
62
5
66
1
10
0
20
0
30
0
70
8
0
VERTEX
8
0
62
5
10
8.2100704e-10
20
0.77527218
30
0
70
32
0
VERTEX
8
0
62
5
10
8.2100704e-10
20
0.77527218
30
0
70
32
0
SEQEND
8
0
0
POLYLINE
8
0
62
5
66
1
10
0
20
0
30
0
70
8
0
VERTEX
8
0
62
5
10
0.028284272
20
0.77527218
30
0
70
32
0
VERTEX
8
0
62
5
10
0.028284272
20
0.77527218
30
0
70
32
0
SEQEND
8
0
0
POLYLINE
8
0
62
5
66
1
10
0
20
0
30
0
70
8
0
VERTEX
8
0
62
5
10
0.056568543
20
0.77527218
30
0
70
32
0
VERTEX
8
0
62
5
10
0.056568543
20
0.77527218
30
0
70
32
0
SEQEND
8
0
0
POLYLINE
8
0
62
5
66
1
10
0
20
0
30
0
70
8
0
VERTEX
8
0
62
5
10
8.2100704e-10
20
0.79361533
30
0
70
32
0
VERTEX
8
0
62
5
10
8.2100704e-10
20
0.79361533
30
0
70
32
0
SEQEND
8
0
0
POLYLINE
8
0
62
5
66
1
10
0
20
0
30
0
70
8
0
VERTEX
8
0
62
5
10
0.028284272
20
0.79361533
30
0
70
32
0
VERTEX
8
0
62
5
10
0.028284272
20
0.79361533
30
0
70
32
0
SEQEND
8
0
0
POLYLINE
8
0
62
5
66
1
10
0
20
0
30
0
70
8
0
VERTEX
8
0
62
5
10
0.056568543
20
0.79361533
30
0
70
32
0
VERTEX
8
0
62
5
10
0.056568543
20
0.79361533
30
0
70
32
0
SEQEND
8
0
0
POLYLINE
8
0
62
5
66
1
10
0
20
0
30
0
70
8
0
VERTEX
8
0
62
5
10
0.11313709
20
0.79361533
30
0
70
32
0
VERTEX
8
0
62
5
10
0.11313709
20
0.86698791
30
0
70
32
0
SEQEND
8
0
0
POLYLINE
8
0
62
5
66
1
10
0
20
0
30
0
70
8
0
VERTEX
8
0
62
5
10
0.22627417
20
0.79361533
30
0
70
32
0
VERTEX
8
0
62
5
10
0.22627417
20
0.86698791
30
0
70
32
0
SEQEND
8
0
0
POLYLINE
8
0
62
5
66
1
10
0
20
0
30
0
70
8
0
VERTEX
8
0
62
5
10
0.14142136
20
0.79361533
30
0
70
32
0
VERTEX
8
0
62
5
10
0.14142136
20
0.86698791
30
0
70
32
0
SEQEND
8
0
0
POLYLINE
8
0
62
5
66
1
10
0
20
0
30
0
70
8
0
VERTEX
8
0
62
5
10
0.16970563
20
0.79361533
30
0
70
32
0
VERTEX
8
0
62
5
10
0.16970563
20
0.86698791
30
0
70
32
0
SEQEND
8
0
0
POLYLINE
8
0
62
5
66
1
10
0
20
0
30
0
70
8
0
VERTEX
8
0
62
5
10
0.1979899
20
0.79361533
30
0
70
32
0
VERTEX
8
0
62
5
10
0.1979899
20
0.86698791
30
0
70
32
0
SEQEND
8
0
0
POLYLINE
8
0
62
5
66
1
10
0
20
0
30
0
70
8
0
VERTEX
8
0
62
5
10
0.33941126
20
0.79361533
30
0
70
32
0
VERTEX
8
0
62
5
10
0.33941126
20
0.86698791
30
0
70
32
0
SEQEND
8
0
0
POLYLINE
8
0
62
5
66
1
10
0
20
0
30
0
70
8
0
VERTEX
8
0
62
5
10
0.25455844
20
0.79361533
30
0
70
32
0
VERTEX
8
0
62
5
10
0.25455844
20
0.86698791
30
0
70
32
0
SEQEND
8
0
0
POLYLINE
8
0
62
5
66
1
10
0
20
0
30
0
70
8
0
VERTEX
8
0
62
5
10
0.28284271
20
0.79361533
30
0
70
32
0
VERTEX
8
0
62
5
10
0.28284271
20
0.86698791
30
0
70
32
0
SEQEND
8
0
0
POLYLINE
8
0
62
5
66
1
10
0
20
0
30
0
70
8
0
VERTEX
8
0
62
5
10
0.31112698
20
0.79361533
30
0
70
32
0
VERTEX
8
0
62
5
10
0.31112698
20
0.86698791
30
0
70
32
0
SEQEND
8
0
0
POLYLINE
8
0
62
5
66
1
10
0
20
0
30
0
70
8
0
VERTEX
8
0
62
5
10
8.2100704e-10
20
0.79361533
30
0
70
32
0
VERTEX
8
0
62
5
10
8.2100704e-10
20
0.86698791
30
0
70
32
0
SEQEND
8
0
0
POLYLINE
8
0
62
5
66
1
10
0
20
0
30
0
70
8
0
VERTEX
8
0
62
5
10
0.028284272
20
0.79361533
30
0
70
32
0
VERTEX
8
0
62
5
10
0.028284272
20
0.86698791
30
0
70
32
0
SEQEND
8
0
0
POLYLINE
8
0
62
5
66
1
10
0
20
0
30
0
70
8
0
VERTEX
8
0
62
5
10
0.056568543
20
0.79361533
30
0
70
32
0
VERTEX
8
0
62
5
10
0.056568543
20
0.86698791
30
0
70
32
0
SEQEND
8
0
0
POLYLINE
8
0
62
5
66
1
10
0
20
0
30
0
70
8
0
VERTEX
8
0
62
5
10
0.084852815
20
0.79361533
30
0
70
32
0
VERTEX
8
0
62
5
10
0.084852815
20
0.86698791
30
0
70
32
0
SEQEND
8
0
0
POLYLINE
8
0
62
5
66
1
10
0
20
0
30
0
70
8
0
VERTEX
8
0
62
5
10
0.11313709
20
0.86698791
30
0
70
32
0
VERTEX
8
0
62
5
10
0.11313709
20
0.90698791
30
0
70
32
0
SEQEND
8
0
0
POLYLINE
8
0
62
5
66
1
10
0
20
0
30
0
70
8
0
VERTEX
8
0
62
5
10
0.22627417
20
0.90698791
30
0
70
32
0
VERTEX
8
0
62
5
10
0.22627417
20
0.86698791
30
0
70
32
0
SEQEND
8
0
0
POLYLINE
8
0
62
5
66
1
10
0
20
0
30
0
70
8
0
VERTEX
8
0
62
5
10
0.11313709
20
0.86698791
30
0
70
32
0
VERTEX
8
0
62
5
10
0.22627417
20
0.86698791
30
0
70
32
0
SEQEND
8
0
0
POLYLINE
8
0
62
5
66
1
10
0
20
0
30
0
70
8
0
VERTEX
8
0
62
5
10
0.11313709
20
0.90698791
30
0
70
32
0
VERTEX
8
0
62
5
10
0.22627417
20
0.90698791
30
0
70
32
0
SEQEND
8
0
0
POLYLINE
8
0
62
5
66
1
10
0
20
0
30
0
70
8
0
VERTEX
8
0
62
5
10
0.14142136
20
0.86698791
30
0
70
32
0
VERTEX
8
0
62
5
10
0.14142136
20
0.86698791
30
0
70
32
0
SEQEND
8
0
0
POLYLINE
8
0
62
5
66
1
10
0
20
0
30
0
70
8
0
VERTEX
8
0
62
5
10
0.16970563
20
0.86698791
30
0
70
32
0
VERTEX
8
0
62
5
10
0.16970563
20
0.86698791
30
0
70
32
0
SEQEND
8
0
0
POLYLINE
8
0
62
5
66
1
10
0
20
0
30
0
70
8
0
VERTEX
8
0
62
5
10
0.1979899
20
0.86698791
30
0
70
32
0
VERTEX
8
0
62
5
10
0.1979899
20
0.86698791
30
0
70
32
0
SEQEND
8
0
0
POLYLINE
8
0
62
5
66
1
10
0
20
0
30
0
70
8
0
VERTEX
8
0
62
5
10
0.14142136
20
0.90698791
30
0
70
32
0
VERTEX
8
0
62
5
10
0.14142136
20
0.90698791
30
0
70
32
0
SEQEND
8
0
0
POLYLINE
8
0
62
5
66
1
10
0
20
0
30
0
70
8
0
VERTEX
8
0
62
5
10
0.16970563
20
0.90698791
30
0
70
32
0
VERTEX
8
0
62
5
10
0.16970563
20
0.90698791
30
0
70
32
0
SEQEND
8
0
0
POLYLINE
8
0
62
5
66
1
10
0
20
0
30
0
70
8
0
VERTEX
8
0
62
5
10
0.1979899
20
0.90698791
30
0
70
32
0
VERTEX
8
0
62
5
10
0.1979899
20
0.90698791
30
0
70
32
0
SEQEND
8
0
0
POLYLINE
8
0
62
30
66
1
10
0
20
0
30
0
70
8
0
VERTEX
8
0
62
30
10
0.11313709
20
0.86698791
30
0
70
32
0
VERTEX
8
0
62
30
10
0.12727922
20
0.88698791
30
0
70
32
0
SEQEND
8
0
0
POLYLINE
8
0
62
30
66
1
10
0
20
0
30
0
70
8
0
VERTEX
8
0
62
30
10
0.12727922
20
0.88698791
30
0
70
32
0
VERTEX
8
0
62
30
10
0.14142136
20
0.86698791
30
0
70
32
0
SEQEND
8
0
0
POLYLINE
8
0
62
30
66
1
10
0
20
0
30
0
70
8
0
VERTEX
8
0
62
30
10
0.16970563
20
0.86698791
30
0
70
32
0
VERTEX
8
0
62
30
10
0.18384776
20
0.88698791
30
0
70
32
0
SEQEND
8
0
0
POLYLINE
8
0
62
30
66
1
10
0
20
0
30
0
70
8
0
VERTEX
8
0
62
30
10
0.18384776
20
0.88698791
30
0
70
32
0
VERTEX
8
0
62
30
10
0.1979899
20
0.86698791
30
0
70
32
0
SEQEND
8
0
0
POLYLINE
8
0
62
30
66
1
10
0
20
0
30
0
70
8
0
VERTEX
8
0
62
30
10
0.14142136
20
0.88698791
30
0
70
32
0
VERTEX
8
0
62
30
10
0.16970563
20
0.88698791
30
0
70
32
0
SEQEND
8
0
0
POLYLINE
8
0
62
30
66
1
10
0
20
0
30
0
70
8
0
VERTEX
8
0
62
30
10
0.1979899
20
0.88698791
30
0
70
32
0
VERTEX
8
0
62
30
10
0.22627417
20
0.88698791
30
0
70
32
0
SEQEND
8
0
0
POLYLINE
8
0
62
5
66
1
10
0
20
0
30
0
70
8
0
VERTEX
8
0
62
5
10
0.11313709
20
0.88698791
30
0
70
32
0
VERTEX
8
0
62
5
10
0.12727922
20
0.88698791
30
0
70
32
0
SEQEND
8
0
0
POLYLINE
8
0
62
5
66
1
10
0
20
0
30
0
70
8
0
VERTEX
8
0
62
5
10
0.16970563
20
0.88698791
30
0
70
32
0
VERTEX
8
0
62
5
10
0.18384776
20
0.88698791
30
0
70
32
0
SEQEND
8
0
0
POLYLINE
8
0
62
5
66
1
10
0
20
0
30
0
70
8
0
VERTEX
8
0
62
5
10
0.12727922
20
0.88698791
30
0
70
32
0
VERTEX
8
0
62
5
10
0.14142136
20
0.88698791
30
0
70
32
0
SEQEND
8
0
0
POLYLINE
8
0
62
5
66
1
10
0
20
0
30
0
70
8
0
VERTEX
8
0
62
5
10
0.18384776
20
0.88698791
30
0
70
32
0
VERTEX
8
0
62
5
10
0.1979899
20
0.88698791
30
0
70
32
0
SEQEND
8
0
0
POLYLINE
8
0
62
5
66
1
10
0
20
0
30
0
70
8
0
VERTEX
8
0
62
5
10
0.14142136
20
0.86698791
30
0
70
32
0
VERTEX
8
0
62
5
10
0.14142136
20
0.90698791
30
0
70
32
0
SEQEND
8
0
0
POLYLINE
8
0
62
5
66
1
10
0
20
0
30
0
70
8
0
VERTEX
8
0
62
5
10
0.16970563
20
0.86698791
30
0
70
32
0
VERTEX
8
0
62
5
10
0.16970563
20
0.90698791
30
0
70
32
0
SEQEND
8
0
0
POLYLINE
8
0
62
5
66
1
10
0
20
0
30
0
70
8
0
VERTEX
8
0
62
5
10
0.1979899
20
0.86698791
30
0
70
32
0
VERTEX
8
0
62
5
10
0.1979899
20
0.90698791
30
0
70
32
0
SEQEND
8
0
0
POLYLINE
8
0
62
5
66
1
10
0
20
0
30
0
70
8
0
VERTEX
8
0
62
5
10
0.11313709
20
0.86698791
30
0
70
32
0
VERTEX
8
0
62
5
10
0.11313709
20
0.90698791
30
0
70
32
0
SEQEND
8
0
0
POLYLINE
8
0
62
5
66
1
10
0
20
0
30
0
70
8
0
VERTEX
8
0
62
5
10
0.33941126
20
0.90698791
30
0
70
32
0
VERTEX
8
0
62
5
10
0.33941126
20
0.86698791
30
0
70
32
0
SEQEND
8
0
0
POLYLINE
8
0
62
5
66
1
10
0
20
0
30
0
70
8
0
VERTEX
8
0
62
5
10
0.22627417
20
0.86698791
30
0
70
32
0
VERTEX
8
0
62
5
10
0.33941126
20
0.86698791
30
0
70
32
0
SEQEND
8
0
0
POLYLINE
8
0
62
5
66
1
10
0
20
0
30
0
70
8
0
VERTEX
8
0
62
5
10
0.22627417
20
0.90698791
30
0
70
32
0
VERTEX
8
0
62
5
10
0.33941126
20
0.90698791
30
0
70
32
0
SEQEND
8
0
0
POLYLINE
8
0
62
5
66
1
10
0
20
0
30
0
70
8
0
VERTEX
8
0
62
5
10
0.25455844
20
0.86698791
30
0
70
32
0
VERTEX
8
0
62
5
10
0.25455844
20
0.86698791
30
0
70
32
0
SEQEND
8
0
0
POLYLINE
8
0
62
5
66
1
10
0
20
0
30
0
70
8
0
VERTEX
8
0
62
5
10
0.28284271
20
0.86698791
30
0
70
32
0
VERTEX
8
0
62
5
10
0.28284271
20
0.86698791
30
0
70
32
0
SEQEND
8
0
0
POLYLINE
8
0
62
5
66
1
10
0
20
0
30
0
70
8
0
VERTEX
8
0
62
5
10
0.31112698
20
0.86698791
30
0
70
32
0
VERTEX
8
0
62
5
10
0.31112698
20
0.86698791
30
0
70
32
0
SEQEND
8
0
0
POLYLINE
8
0
62
5
66
1
10
0
20
0
30
0
70
8
0
VERTEX
8
0
62
5
10
0.25455844
20
0.90698791
30
0
70
32
0
VERTEX
8
0
62
5
10
0.25455844
20
0.90698791
30
0
70
32
0
SEQEND
8
0
0
POLYLINE
8
0
62
5
66
1
10
0
20
0
30
0
70
8
0
VERTEX
8
0
62
5
10
0.28284271
20
0.90698791
30
0
70
32
0
VERTEX
8
0
62
5
10
0.28284271
20
0.90698791
30
0
70
32
0
SEQEND
8
0
0
POLYLINE
8
0
62
5
66
1
10
0
20
0
30
0
70
8
0
VERTEX
8
0
62
5
10
0.31112698
20
0.90698791
30
0
70
32
0
VERTEX
8
0
62
5
10
0.31112698
20
0.90698791
30
0
70
32
0
SEQEND
8
0
0
POLYLINE
8
0
62
30
66
1
10
0
20
0
30
0
70
8
0
VERTEX
8
0
62
30
10
0.22627417
20
0.86698791
30
0
70
32
0
VERTEX
8
0
62
30
10
0.24041631
20
0.88698791
30
0
70
32
0
SEQEND
8
0
0
POLYLINE
8
0
62
30
66
1
10
0
20
0
30
0
70
8
0
VERTEX
8
0
62
30
10
0.24041631
20
0.88698791
30
0
70
32
0
VERTEX
8
0
62
30
10
0.25455844
20
0.86698791
30
0
70
32
0
SEQEND
8
0
0
POLYLINE
8
0
62
30
66
1
10
0
20
0
30
0
70
8
0
VERTEX
8
0
62
30
10
0.28284271
20
0.86698791
30
0
70
32
0
VERTEX
8
0
62
30
10
0.29698485
20
0.88698791
30
0
70
32
0
SEQEND
8
0
0
POLYLINE
8
0
62
30
66
1
10
0
20
0
30
0
70
8
0
VERTEX
8
0
62
30
10
0.29698485
20
0.88698791
30
0
70
32
0
VERTEX
8
0
62
30
10
0.31112698
20
0.86698791
30
0
70
32
0
SEQEND
8
0
0
POLYLINE
8
0
62
30
66
1
10
0
20
0
30
0
70
8
0
VERTEX
8
0
62
30
10
0.25455844
20
0.88698791
30
0
70
32
0
VERTEX
8
0
62
30
10
0.28284271
20
0.88698791
30
0
70
32
0
SEQEND
8
0
0
POLYLINE
8
0
62
30
66
1
10
0
20
0
30
0
70
8
0
VERTEX
8
0
62
30
10
0.31112698
20
0.88698791
30
0
70
32
0
VERTEX
8
0
62
30
10
0.33941126
20
0.88698791
30
0
70
32
0
SEQEND
8
0
0
POLYLINE
8
0
62
5
66
1
10
0
20
0
30
0
70
8
0
VERTEX
8
0
62
5
10
0.22627417
20
0.88698791
30
0
70
32
0
VERTEX
8
0
62
5
10
0.24041631
20
0.88698791
30
0
70
32
0
SEQEND
8
0
0
POLYLINE
8
0
62
5
66
1
10
0
20
0
30
0
70
8
0
VERTEX
8
0
62
5
10
0.28284271
20
0.88698791
30
0
70
32
0
VERTEX
8
0
62
5
10
0.29698485
20
0.88698791
30
0
70
32
0
SEQEND
8
0
0
POLYLINE
8
0
62
5
66
1
10
0
20
0
30
0
70
8
0
VERTEX
8
0
62
5
10
0.24041631
20
0.88698791
30
0
70
32
0
VERTEX
8
0
62
5
10
0.25455844
20
0.88698791
30
0
70
32
0
SEQEND
8
0
0
POLYLINE
8
0
62
5
66
1
10
0
20
0
30
0
70
8
0
VERTEX
8
0
62
5
10
0.29698485
20
0.88698791
30
0
70
32
0
VERTEX
8
0
62
5
10
0.31112698
20
0.88698791
30
0
70
32
0
SEQEND
8
0
0
POLYLINE
8
0
62
5
66
1
10
0
20
0
30
0
70
8
0
VERTEX
8
0
62
5
10
0.25455844
20
0.86698791
30
0
70
32
0
VERTEX
8
0
62
5
10
0.25455844
20
0.90698791
30
0
70
32
0
SEQEND
8
0
0
POLYLINE
8
0
62
5
66
1
10
0
20
0
30
0
70
8
0
VERTEX
8
0
62
5
10
0.28284271
20
0.86698791
30
0
70
32
0
VERTEX
8
0
62
5
10
0.28284271
20
0.90698791
30
0
70
32
0
SEQEND
8
0
0
POLYLINE
8
0
62
5
66
1
10
0
20
0
30
0
70
8
0
VERTEX
8
0
62
5
10
0.31112698
20
0.86698791
30
0
70
32
0
VERTEX
8
0
62
5
10
0.31112698
20
0.90698791
30
0
70
32
0
SEQEND
8
0
0
POLYLINE
8
0
62
5
66
1
10
0
20
0
30
0
70
8
0
VERTEX
8
0
62
5
10
0.22627417
20
0.86698791
30
0
70
32
0
VERTEX
8
0
62
5
10
0.22627417
20
0.90698791
30
0
70
32
0
SEQEND
8
0
0
POLYLINE
8
0
62
5
66
1
10
0
20
0
30
0
70
8
0
VERTEX
8
0
62
5
10
8.2100704e-10
20
0.86698791
30
0
70
32
0
VERTEX
8
0
62
5
10
8.2100704e-10
20
0.90698791
30
0
70
32
0
SEQEND
8
0
0
POLYLINE
8
0
62
5
66
1
10
0
20
0
30
0
70
8
0
VERTEX
8
0
62
5
10
8.2100704e-10
20
0.86698791
30
0
70
32
0
VERTEX
8
0
62
5
10
0.11313709
20
0.86698791
30
0
70
32
0
SEQEND
8
0
0
POLYLINE
8
0
62
5
66
1
10
0
20
0
30
0
70
8
0
VERTEX
8
0
62
5
10
8.2100704e-10
20
0.90698791
30
0
70
32
0
VERTEX
8
0
62
5
10
0.11313709
20
0.90698791
30
0
70
32
0
SEQEND
8
0
0
POLYLINE
8
0
62
5
66
1
10
0
20
0
30
0
70
8
0
VERTEX
8
0
62
5
10
0.028284272
20
0.86698791
30
0
70
32
0
VERTEX
8
0
62
5
10
0.028284272
20
0.86698791
30
0
70
32
0
SEQEND
8
0
0
POLYLINE
8
0
62
5
66
1
10
0
20
0
30
0
70
8
0
VERTEX
8
0
62
5
10
0.056568543
20
0.86698791
30
0
70
32
0
VERTEX
8
0
62
5
10
0.056568543
20
0.86698791
30
0
70
32
0
SEQEND
8
0
0
POLYLINE
8
0
62
5
66
1
10
0
20
0
30
0
70
8
0
VERTEX
8
0
62
5
10
0.084852815
20
0.86698791
30
0
70
32
0
VERTEX
8
0
62
5
10
0.084852815
20
0.86698791
30
0
70
32
0
SEQEND
8
0
0
POLYLINE
8
0
62
5
66
1
10
0
20
0
30
0
70
8
0
VERTEX
8
0
62
5
10
0.028284272
20
0.90698791
30
0
70
32
0
VERTEX
8
0
62
5
10
0.028284272
20
0.90698791
30
0
70
32
0
SEQEND
8
0
0
POLYLINE
8
0
62
5
66
1
10
0
20
0
30
0
70
8
0
VERTEX
8
0
62
5
10
0.056568543
20
0.90698791
30
0
70
32
0
VERTEX
8
0
62
5
10
0.056568543
20
0.90698791
30
0
70
32
0
SEQEND
8
0
0
POLYLINE
8
0
62
5
66
1
10
0
20
0
30
0
70
8
0
VERTEX
8
0
62
5
10
0.084852815
20
0.90698791
30
0
70
32
0
VERTEX
8
0
62
5
10
0.084852815
20
0.90698791
30
0
70
32
0
SEQEND
8
0
0
POLYLINE
8
0
62
30
66
1
10
0
20
0
30
0
70
8
0
VERTEX
8
0
62
30
10
8.2100704e-10
20
0.86698791
30
0
70
32
0
VERTEX
8
0
62
30
10
0.014142136
20
0.88698791
30
0
70
32
0
SEQEND
8
0
0
POLYLINE
8
0
62
30
66
1
10
0
20
0
30
0
70
8
0
VERTEX
8
0
62
30
10
0.014142136
20
0.88698791
30
0
70
32
0
VERTEX
8
0
62
30
10
0.028284272
20
0.86698791
30
0
70
32
0
SEQEND
8
0
0
POLYLINE
8
0
62
30
66
1
10
0
20
0
30
0
70
8
0
VERTEX
8
0
62
30
10
0.056568543
20
0.86698791
30
0
70
32
0
VERTEX
8
0
62
30
10
0.070710679
20
0.88698791
30
0
70
32
0
SEQEND
8
0
0
POLYLINE
8
0
62
30
66
1
10
0
20
0
30
0
70
8
0
VERTEX
8
0
62
30
10
0.070710679
20
0.88698791
30
0
70
32
0
VERTEX
8
0
62
30
10
0.084852815
20
0.86698791
30
0
70
32
0
SEQEND
8
0
0
POLYLINE
8
0
62
30
66
1
10
0
20
0
30
0
70
8
0
VERTEX
8
0
62
30
10
0.028284272
20
0.88698791
30
0
70
32
0
VERTEX
8
0
62
30
10
0.056568543
20
0.88698791
30
0
70
32
0
SEQEND
8
0
0
POLYLINE
8
0
62
30
66
1
10
0
20
0
30
0
70
8
0
VERTEX
8
0
62
30
10
0.084852815
20
0.88698791
30
0
70
32
0
VERTEX
8
0
62
30
10
0.11313709
20
0.88698791
30
0
70
32
0
SEQEND
8
0
0
POLYLINE
8
0
62
5
66
1
10
0
20
0
30
0
70
8
0
VERTEX
8
0
62
5
10
8.2100704e-10
20
0.88698791
30
0
70
32
0
VERTEX
8
0
62
5
10
0.014142136
20
0.88698791
30
0
70
32
0
SEQEND
8
0
0
POLYLINE
8
0
62
5
66
1
10
0
20
0
30
0
70
8
0
VERTEX
8
0
62
5
10
0.056568543
20
0.88698791
30
0
70
32
0
VERTEX
8
0
62
5
10
0.070710679
20
0.88698791
30
0
70
32
0
SEQEND
8
0
0
POLYLINE
8
0
62
5
66
1
10
0
20
0
30
0
70
8
0
VERTEX
8
0
62
5
10
0.014142136
20
0.88698791
30
0
70
32
0
VERTEX
8
0
62
5
10
0.028284272
20
0.88698791
30
0
70
32
0
SEQEND
8
0
0
POLYLINE
8
0
62
5
66
1
10
0
20
0
30
0
70
8
0
VERTEX
8
0
62
5
10
0.070710679
20
0.88698791
30
0
70
32
0
VERTEX
8
0
62
5
10
0.084852815
20
0.88698791
30
0
70
32
0
SEQEND
8
0
0
POLYLINE
8
0
62
5
66
1
10
0
20
0
30
0
70
8
0
VERTEX
8
0
62
5
10
0.028284272
20
0.86698791
30
0
70
32
0
VERTEX
8
0
62
5
10
0.028284272
20
0.90698791
30
0
70
32
0
SEQEND
8
0
0
POLYLINE
8
0
62
5
66
1
10
0
20
0
30
0
70
8
0
VERTEX
8
0
62
5
10
0.056568543
20
0.86698791
30
0
70
32
0
VERTEX
8
0
62
5
10
0.056568543
20
0.90698791
30
0
70
32
0
SEQEND
8
0
0
POLYLINE
8
0
62
5
66
1
10
0
20
0
30
0
70
8
0
VERTEX
8
0
62
5
10
0.084852815
20
0.86698791
30
0
70
32
0
VERTEX
8
0
62
5
10
0.084852815
20
0.90698791
30
0
70
32
0
SEQEND
8
0
0
POLYLINE
8
0
62
5
66
1
10
0
20
0
30
0
70
8
0
VERTEX
8
0
62
5
10
8.2100704e-10
20
0.86698791
30
0
70
32
0
VERTEX
8
0
62
5
10
8.2100704e-10
20
0.90698791
30
0
70
32
0
SEQEND
8
0
0
POLYLINE
8
0
62
18
66
1
10
0
20
0
30
0
70
8
0
VERTEX
8
0
62
18
10
0.14142136
20
0
30
0
70
32
0
VERTEX
8
0
62
18
10
0
20
0
30
0
70
32
0
VERTEX
8
0
62
18
10
0
20
0.90698791
30
0
70
32
0
VERTEX
8
0
62
18
10
0.14142136
20
0.90698791
30
0
70
32
0
VERTEX
8
0
62
18
10
0.14142136
20
0
30
0
70
32
0
SEQEND
8
0
0
ENDSEC
0
EOF
