0
SECTION
2
HEADER
9
$ACADVER
1
AC1006
9
$INSUNITS
70
6
0
ENDSEC
0
SECTION
2
ENTITIES
0
POLYLINE
8
0
62
5
66
1
10
0
20
0
30
0
70
8
0
VERTEX
8
0
62
5
10
0
20
0
30
0
70
32
0
VERTEX
8
0
62
5
10
0
20
0.1
30
0
70
32
0
SEQEND
8
0
0
POLYLINE
8
0
62
5
66
1
10
0
20
0
30
0
70
8
0
VERTEX
8
0
62
5
10
0.11313708
20
0
30
0
70
32
0
VERTEX
8
0
62
5
10
0.11313708
20
0.1
30
0
70
32
0
SEQEND
8
0
0
POLYLINE
8
0
62
5
66
1
10
0
20
0
30
0
70
8
0
VERTEX
8
0
62
5
10
0.028284271
20
0
30
0
70
32
0
VERTEX
8
0
62
5
10
0.028284271
20
0.1
30
0
70
32
0
SEQEND
8
0
0
POLYLINE
8
0
62
5
66
1
10
0
20
0
30
0
70
8
0
VERTEX
8
0
62
5
10
0.056568542
20
0
30
0
70
32
0
VERTEX
8
0
62
5
10
0.056568542
20
0.1
30
0
70
32
0
SEQEND
8
0
0
POLYLINE
8
0
62
5
66
1
10
0
20
0
30
0
70
8
0
VERTEX
8
0
62
5
10
0.084852814
20
0
30
0
70
32
0
VERTEX
8
0
62
5
10
0.084852814
20
0.1
30
0
70
32
0
SEQEND
8
0
0
POLYLINE
8
0
62
5
66
1
10
0
20
0
30
0
70
8
0
VERTEX
8
0
62
5
10
0.22627417
20
0
30
0
70
32
0
VERTEX
8
0
62
5
10
0.22627417
20
0.1
30
0
70
32
0
SEQEND
8
0
0
POLYLINE
8
0
62
5
66
1
10
0
20
0
30
0
70
8
0
VERTEX
8
0
62
5
10
0.14142136
20
0
30
0
70
32
0
VERTEX
8
0
62
5
10
0.14142136
20
0.1
30
0
70
32
0
SEQEND
8
0
0
POLYLINE
8
0
62
5
66
1
10
0
20
0
30
0
70
8
0
VERTEX
8
0
62
5
10
0.16970563
20
0
30
0
70
32
0
VERTEX
8
0
62
5
10
0.16970563
20
0.1
30
0
70
32
0
SEQEND
8
0
0
POLYLINE
8
0
62
5
66
1
10
0
20
0
30
0
70
8
0
VERTEX
8
0
62
5
10
0.1979899
20
0
30
0
70
32
0
VERTEX
8
0
62
5
10
0.1979899
20
0.1
30
0
70
32
0
SEQEND
8
0
0
POLYLINE
8
0
62
5
66
1
10
0
20
0
30
0
70
8
0
VERTEX
8
0
62
5
10
-0.11313708
20
0
30
0
70
32
0
VERTEX
8
0
62
5
10
-0.11313708
20
0.1
30
0
70
32
0
SEQEND
8
0
0
POLYLINE
8
0
62
5
66
1
10
0
20
0
30
0
70
8
0
VERTEX
8
0
62
5
10
-0.084852814
20
0
30
0
70
32
0
VERTEX
8
0
62
5
10
-0.084852814
20
0.1
30
0
70
32
0
SEQEND
8
0
0
POLYLINE
8
0
62
5
66
1
10
0
20
0
30
0
70
8
0
VERTEX
8
0
62
5
10
-0.056568542
20
0
30
0
70
32
0
VERTEX
8
0
62
5
10
-0.056568542
20
0.1
30
0
70
32
0
SEQEND
8
0
0
POLYLINE
8
0
62
5
66
1
10
0
20
0
30
0
70
8
0
VERTEX
8
0
62
5
10
-0.028284271
20
0
30
0
70
32
0
VERTEX
8
0
62
5
10
-0.028284271
20
0.1
30
0
70
32
0
SEQEND
8
0
0
POLYLINE
8
0
62
5
66
1
10
0
20
0
30
0
70
8
0
VERTEX
8
0
62
5
10
0
20
0.1
30
0
70
32
0
VERTEX
8
0
62
5
10
0
20
0.101
30
0
70
32
0
SEQEND
8
0
0
POLYLINE
8
0
62
5
66
1
10
0
20
0
30
0
70
8
0
VERTEX
8
0
62
5
10
0.11313708
20
0.1
30
0
70
32
0
VERTEX
8
0
62
5
10
0.11313708
20
0.101
30
0
70
32
0
SEQEND
8
0
0
POLYLINE
8
0
62
5
66
1
10
0
20
0
30
0
70
8
0
VERTEX
8
0
62
5
10
0.028284271
20
0.1
30
0
70
32
0
VERTEX
8
0
62
5
10
0.028284271
20
0.101
30
0
70
32
0
SEQEND
8
0
0
POLYLINE
8
0
62
5
66
1
10
0
20
0
30
0
70
8
0
VERTEX
8
0
62
5
10
0.056568542
20
0.1
30
0
70
32
0
VERTEX
8
0
62
5
10
0.056568542
20
0.101
30
0
70
32
0
SEQEND
8
0
0
POLYLINE
8
0
62
5
66
1
10
0
20
0
30
0
70
8
0
VERTEX
8
0
62
5
10
0.084852814
20
0.1
30
0
70
32
0
VERTEX
8
0
62
5
10
0.084852814
20
0.101
30
0
70
32
0
SEQEND
8
0
0
POLYLINE
8
0
62
5
66
1
10
0
20
0
30
0
70
8
0
VERTEX
8
0
62
5
10
0.22627417
20
0.1
30
0
70
32
0
VERTEX
8
0
62
5
10
0.22627417
20
0.101
30
0
70
32
0
SEQEND
8
0
0
POLYLINE
8
0
62
5
66
1
10
0
20
0
30
0
70
8
0
VERTEX
8
0
62
5
10
0.14142136
20
0.1
30
0
70
32
0
VERTEX
8
0
62
5
10
0.14142136
20
0.101
30
0
70
32
0
SEQEND
8
0
0
POLYLINE
8
0
62
5
66
1
10
0
20
0
30
0
70
8
0
VERTEX
8
0
62
5
10
0.16970563
20
0.1
30
0
70
32
0
VERTEX
8
0
62
5
10
0.16970563
20
0.101
30
0
70
32
0
SEQEND
8
0
0
POLYLINE
8
0
62
5
66
1
10
0
20
0
30
0
70
8
0
VERTEX
8
0
62
5
10
0.1979899
20
0.1
30
0
70
32
0
VERTEX
8
0
62
5
10
0.1979899
20
0.101
30
0
70
32
0
SEQEND
8
0
0
POLYLINE
8
0
62
5
66
1
10
0
20
0
30
0
70
8
0
VERTEX
8
0
62
5
10
-0.11313708
20
0.1
30
0
70
32
0
VERTEX
8
0
62
5
10
-0.11313708
20
0.101
30
0
70
32
0
SEQEND
8
0
0
POLYLINE
8
0
62
5
66
1
10
0
20
0
30
0
70
8
0
VERTEX
8
0
62
5
10
-0.084852814
20
0.1
30
0
70
32
0
VERTEX
8
0
62
5
10
-0.084852814
20
0.101
30
0
70
32
0
SEQEND
8
0
0
POLYLINE
8
0
62
5
66
1
10
0
20
0
30
0
70
8
0
VERTEX
8
0
62
5
10
-0.056568542
20
0.1
30
0
70
32
0
VERTEX
8
0
62
5
10
-0.056568542
20
0.101
30
0
70
32
0
SEQEND
8
0
0
POLYLINE
8
0
62
5
66
1
10
0
20
0
30
0
70
8
0
VERTEX
8
0
62
5
10
-0.028284271
20
0.1
30
0
70
32
0
VERTEX
8
0
62
5
10
-0.028284271
20
0.101
30
0
70
32
0
SEQEND
8
0
0
POLYLINE
8
0
62
5
66
1
10
0
20
0
30
0
70
8
0
VERTEX
8
0
62
5
10
0
20
0.101
30
0
70
32
0
VERTEX
8
0
62
5
10
0
20
0.14028225
30
0
70
32
0
SEQEND
8
0
0
POLYLINE
8
0
62
5
66
1
10
0
20
0
30
0
70
8
0
VERTEX
8
0
62
5
10
0.11313708
20
0.14028225
30
0
70
32
0
VERTEX
8
0
62
5
10
0.11313708
20
0.101
30
0
70
32
0
SEQEND
8
0
0
POLYLINE
8
0
62
5
66
1
10
0
20
0
30
0
70
8
0
VERTEX
8
0
62
5
10
0
20
0.11057842
30
0
70
32
0
VERTEX
8
0
62
5
10
0.028284271
20
0.12064112
30
0
70
32
0
VERTEX
8
0
62
5
10
0.056568542
20
0.11106573
30
0
70
32
0
VERTEX
8
0
62
5
10
0.084852814
20
0.10100302
30
0
70
32
0
VERTEX
8
0
62
5
10
0.11313708
20
0.11057842
30
0
70
32
0
SEQEND
8
0
0
POLYLINE
8
0
62
5
66
1
10
0
20
0
30
0
70
8
0
SEQEND
8
0
0
POLYLINE
8
0
62
5
66
1
10
0
20
0
30
0
70
8
0
VERTEX
8
0
62
5
10
0
20
0.13070383
30
0
70
32
0
VERTEX
8
0
62
5
10
0.028284271
20
0.12064112
30
0
70
32
0
VERTEX
8
0
62
5
10
0.056568542
20
0.13021652
30
0
70
32
0
VERTEX
8
0
62
5
10
0.084852814
20
0.14027922
30
0
70
32
0
VERTEX
8
0
62
5
10
0.11313708
20
0.13070383
30
0
70
32
0
SEQEND
8
0
0
POLYLINE
8
0
62
30
66
1
10
0
20
0
30
0
70
8
0
VERTEX
8
0
62
30
10
0
20
0.12064112
30
0
70
32
0
VERTEX
8
0
62
30
10
0.11313708
20
0.12064112
30
0
70
32
0
SEQEND
8
0
0
POLYLINE
8
0
62
30
66
1
10
0
20
0
30
0
70
8
0
VERTEX
8
0
62
30
10
0.028284271
20
0.12064112
30
0
70
32
0
VERTEX
8
0
62
30
10
0.028284271
20
0.12064112
30
0
70
32
0
SEQEND
8
0
0
POLYLINE
8
0
62
30
66
1
10
0
20
0
30
0
70
8
0
VERTEX
8
0
62
30
10
0.056568542
20
0.11106573
30
0
70
32
0
VERTEX
8
0
62
30
10
0.056568542
20
0.12064112
30
0
70
32
0
SEQEND
8
0
0
POLYLINE
8
0
62
30
66
1
10
0
20
0
30
0
70
8
0
VERTEX
8
0
62
30
10
0.084852814
20
0.10100302
30
0
70
32
0
VERTEX
8
0
62
30
10
0.084852814
20
0.12064112
30
0
70
32
0
SEQEND
8
0
0
POLYLINE
8
0
62
5
66
1
10
0
20
0
30
0
70
8
0
VERTEX
8
0
62
5
10
0.028284271
20
0.101
30
0
70
32
0
VERTEX
8
0
62
5
10
0.028284271
20
0.12064112
30
0
70
32
0
SEQEND
8
0
0
POLYLINE
8
0
62
5
66
1
10
0
20
0
30
0
70
8
0
VERTEX
8
0
62
5
10
0.056568542
20
0.101
30
0
70
32
0
VERTEX
8
0
62
5
10
0.056568542
20
0.11106573
30
0
70
32
0
SEQEND
8
0
0
POLYLINE
8
0
62
5
66
1
10
0
20
0
30
0
70
8
0
VERTEX
8
0
62
5
10
0.084852814
20
0.101
30
0
70
32
0
VERTEX
8
0
62
5
10
0.084852814
20
0.10100302
30
0
70
32
0
SEQEND
8
0
0
POLYLINE
8
0
62
5
66
1
10
0
20
0
30
0
70
8
0
VERTEX
8
0
62
5
10
0.028284271
20
0.12064112
30
0
70
32
0
VERTEX
8
0
62
5
10
0.028284271
20
0.14028225
30
0
70
32
0
SEQEND
8
0
0
POLYLINE
8
0
62
5
66
1
10
0
20
0
30
0
70
8
0
VERTEX
8
0
62
5
10
0.056568542
20
0.12064112
30
0
70
32
0
VERTEX
8
0
62
5
10
0.056568542
20
0.14028225
30
0
70
32
0
SEQEND
8
0
0
POLYLINE
8
0
62
5
66
1
10
0
20
0
30
0
70
8
0
VERTEX
8
0
62
5
10
0.084852814
20
0.12064112
30
0
70
32
0
VERTEX
8
0
62
5
10
0.084852814
20
0.14028225
30
0
70
32
0
SEQEND
8
0
0
POLYLINE
8
0
62
5
66
1
10
0
20
0
30
0
70
8
0
VERTEX
8
0
62
5
10
0.22627417
20
0.14028225
30
0
70
32
0
VERTEX
8
0
62
5
10
0.22627417
20
0.101
30
0
70
32
0
SEQEND
8
0
0
POLYLINE
8
0
62
5
66
1
10
0
20
0
30
0
70
8
0
VERTEX
8
0
62
5
10
0.11313708
20
0.11057842
30
0
70
32
0
VERTEX
8
0
62
5
10
0.14142136
20
0.12064112
30
0
70
32
0
VERTEX
8
0
62
5
10
0.16970563
20
0.11106573
30
0
70
32
0
VERTEX
8
0
62
5
10
0.1979899
20
0.10100302
30
0
70
32
0
VERTEX
8
0
62
5
10
0.22627417
20
0.11057842
30
0
70
32
0
SEQEND
8
0
0
POLYLINE
8
0
62
5
66
1
10
0
20
0
30
0
70
8
0
SEQEND
8
0
0
POLYLINE
8
0
62
5
66
1
10
0
20
0
30
0
70
8
0
VERTEX
8
0
62
5
10
0.11313708
20
0.13070383
30
0
70
32
0
VERTEX
8
0
62
5
10
0.14142136
20
0.12064112
30
0
70
32
0
VERTEX
8
0
62
5
10
0.16970563
20
0.13021652
30
0
70
32
0
VERTEX
8
0
62
5
10
0.1979899
20
0.14027922
30
0
70
32
0
VERTEX
8
0
62
5
10
0.22627417
20
0.13070383
30
0
70
32
0
SEQEND
8
0
0
POLYLINE
8
0
62
30
66
1
10
0
20
0
30
0
70
8
0
VERTEX
8
0
62
30
10
0.11313708
20
0.12064112
30
0
70
32
0
VERTEX
8
0
62
30
10
0.22627417
20
0.12064112
30
0
70
32
0
SEQEND
8
0
0
POLYLINE
8
0
62
30
66
1
10
0
20
0
30
0
70
8
0
VERTEX
8
0
62
30
10
0.14142136
20
0.12064112
30
0
70
32
0
VERTEX
8
0
62
30
10
0.14142136
20
0.12064112
30
0
70
32
0
SEQEND
8
0
0
POLYLINE
8
0
62
30
66
1
10
0
20
0
30
0
70
8
0
VERTEX
8
0
62
30
10
0.16970563
20
0.11106573
30
0
70
32
0
VERTEX
8
0
62
30
10
0.16970563
20
0.12064112
30
0
70
32
0
SEQEND
8
0
0
POLYLINE
8
0
62
30
66
1
10
0
20
0
30
0
70
8
0
VERTEX
8
0
62
30
10
0.1979899
20
0.10100302
30
0
70
32
0
VERTEX
8
0
62
30
10
0.1979899
20
0.12064112
30
0
70
32
0
SEQEND
8
0
0
POLYLINE
8
0
62
5
66
1
10
0
20
0
30
0
70
8
0
VERTEX
8
0
62
5
10
0.14142136
20
0.101
30
0
70
32
0
VERTEX
8
0
62
5
10
0.14142136
20
0.12064112
30
0
70
32
0
SEQEND
8
0
0
POLYLINE
8
0
62
5
66
1
10
0
20
0
30
0
70
8
0
VERTEX
8
0
62
5
10
0.16970563
20
0.101
30
0
70
32
0
VERTEX
8
0
62
5
10
0.16970563
20
0.11106573
30
0
70
32
0
SEQEND
8
0
0
POLYLINE
8
0
62
5
66
1
10
0
20
0
30
0
70
8
0
VERTEX
8
0
62
5
10
0.1979899
20
0.101
30
0
70
32
0
VERTEX
8
0
62
5
10
0.1979899
20
0.10100302
30
0
70
32
0
SEQEND
8
0
0
POLYLINE
8
0
62
5
66
1
10
0
20
0
30
0
70
8
0
VERTEX
8
0
62
5
10
0.14142136
20
0.12064112
30
0
70
32
0
VERTEX
8
0
62
5
10
0.14142136
20
0.14028225
30
0
70
32
0
SEQEND
8
0
0
POLYLINE
8
0
62
5
66
1
10
0
20
0
30
0
70
8
0
VERTEX
8
0
62
5
10
0.16970563
20
0.12064112
30
0
70
32
0
VERTEX
8
0
62
5
10
0.16970563
20
0.14028225
30
0
70
32
0
SEQEND
8
0
0
POLYLINE
8
0
62
5
66
1
10
0
20
0
30
0
70
8
0
VERTEX
8
0
62
5
10
0.1979899
20
0.12064112
30
0
70
32
0
VERTEX
8
0
62
5
10
0.1979899
20
0.14028225
30
0
70
32
0
SEQEND
8
0
0
POLYLINE
8
0
62
5
66
1
10
0
20
0
30
0
70
8
0
VERTEX
8
0
62
5
10
-0.11313708
20
0.101
30
0
70
32
0
VERTEX
8
0
62
5
10
-0.11313708
20
0.14028225
30
0
70
32
0
SEQEND
8
0
0
POLYLINE
8
0
62
5
66
1
10
0
20
0
30
0
70
8
0
VERTEX
8
0
62
5
10
-0.11313708
20
0.11057842
30
0
70
32
0
VERTEX
8
0
62
5
10
-0.084852814
20
0.12064112
30
0
70
32
0
VERTEX
8
0
62
5
10
-0.056568542
20
0.11106573
30
0
70
32
0
VERTEX
8
0
62
5
10
-0.028284271
20
0.10100302
30
0
70
32
0
VERTEX
8
0
62
5
10
0
20
0.11057842
30
0
70
32
0
SEQEND
8
0
0
POLYLINE
8
0
62
5
66
1
10
0
20
0
30
0
70
8
0
SEQEND
8
0
0
POLYLINE
8
0
62
5
66
1
10
0
20
0
30
0
70
8
0
VERTEX
8
0
62
5
10
-0.11313708
20
0.13070383
30
0
70
32
0
VERTEX
8
0
62
5
10
-0.084852814
20
0.12064112
30
0
70
32
0
VERTEX
8
0
62
5
10
-0.056568542
20
0.13021652
30
0
70
32
0
VERTEX
8
0
62
5
10
-0.028284271
20
0.14027922
30
0
70
32
0
VERTEX
8
0
62
5
10
0
20
0.13070383
30
0
70
32
0
SEQEND
8
0
0
POLYLINE
8
0
62
30
66
1
10
0
20
0
30
0
70
8
0
VERTEX
8
0
62
30
10
-0.11313708
20
0.12064112
30
0
70
32
0
VERTEX
8
0
62
30
10
0
20
0.12064112
30
0
70
32
0
SEQEND
8
0
0
POLYLINE
8
0
62
30
66
1
10
0
20
0
30
0
70
8
0
VERTEX
8
0
62
30
10
-0.084852814
20
0.12064112
30
0
70
32
0
VERTEX
8
0
62
30
10
-0.084852814
20
0.12064112
30
0
70
32
0
SEQEND
8
0
0
POLYLINE
8
0
62
30
66
1
10
0
20
0
30
0
70
8
0
VERTEX
8
0
62
30
10
-0.056568542
20
0.11106573
30
0
70
32
0
VERTEX
8
0
62
30
10
-0.056568542
20
0.12064112
30
0
70
32
0
SEQEND
8
0
0
POLYLINE
8
0
62
30
66
1
10
0
20
0
30
0
70
8
0
VERTEX
8
0
62
30
10
-0.028284271
20
0.10100302
30
0
70
32
0
VERTEX
8
0
62
30
10
-0.028284271
20
0.12064112
30
0
70
32
0
SEQEND
8
0
0
POLYLINE
8
0
62
5
66
1
10
0
20
0
30
0
70
8
0
VERTEX
8
0
62
5
10
-0.084852814
20
0.101
30
0
70
32
0
VERTEX
8
0
62
5
10
-0.084852814
20
0.12064112
30
0
70
32
0
SEQEND
8
0
0
POLYLINE
8
0
62
5
66
1
10
0
20
0
30
0
70
8
0
VERTEX
8
0
62
5
10
-0.056568542
20
0.101
30
0
70
32
0
VERTEX
8
0
62
5
10
-0.056568542
20
0.11106573
30
0
70
32
0
SEQEND
8
0
0
POLYLINE
8
0
62
5
66
1
10
0
20
0
30
0
70
8
0
VERTEX
8
0
62
5
10
-0.028284271
20
0.101
30
0
70
32
0
VERTEX
8
0
62
5
10
-0.028284271
20
0.10100302
30
0
70
32
0
SEQEND
8
0
0
POLYLINE
8
0
62
5
66
1
10
0
20
0
30
0
70
8
0
VERTEX
8
0
62
5
10
-0.084852814
20
0.12064112
30
0
70
32
0
VERTEX
8
0
62
5
10
-0.084852814
20
0.14028225
30
0
70
32
0
SEQEND
8
0
0
POLYLINE
8
0
62
5
66
1
10
0
20
0
30
0
70
8
0
VERTEX
8
0
62
5
10
-0.056568542
20
0.12064112
30
0
70
32
0
VERTEX
8
0
62
5
10
-0.056568542
20
0.14028225
30
0
70
32
0
SEQEND
8
0
0
POLYLINE
8
0
62
5
66
1
10
0
20
0
30
0
70
8
0
VERTEX
8
0
62
5
10
-0.028284271
20
0.12064112
30
0
70
32
0
VERTEX
8
0
62
5
10
-0.028284271
20
0.14028225
30
0
70
32
0
SEQEND
8
0
0
POLYLINE
8
0
62
30
66
1
10
0
20
0
30
0
70
8
0
VERTEX
8
0
62
30
10
0
20
0.15057771
30
0
70
32
0
VERTEX
8
0
62
30
10
0.11313708
20
0.15057771
30
0
70
32
0
SEQEND
8
0
0
POLYLINE
8
0
62
30
66
1
10
0
20
0
30
0
70
8
0
VERTEX
8
0
62
30
10
0
20
0.14028225
30
0
70
32
0
VERTEX
8
0
62
30
10
0.11313708
20
0.14028225
30
0
70
32
0
SEQEND
8
0
0
POLYLINE
8
0
62
5
66
1
10
0
20
0
30
0
70
8
0
VERTEX
8
0
62
5
10
0
20
0.14028225
30
0
70
32
0
VERTEX
8
0
62
5
10
0.017767509
20
0.15057771
30
0
70
32
0
VERTEX
8
0
62
5
10
0.028284271
20
0.14028225
30
0
70
32
0
VERTEX
8
0
62
5
10
0.04605178
20
0.15057771
30
0
70
32
0
VERTEX
8
0
62
5
10
0.056568542
20
0.14028225
30
0
70
32
0
VERTEX
8
0
62
5
10
0.074336051
20
0.15057771
30
0
70
32
0
VERTEX
8
0
62
5
10
0.084852814
20
0.14028225
30
0
70
32
0
VERTEX
8
0
62
5
10
0.10262032
20
0.15057771
30
0
70
32
0
VERTEX
8
0
62
5
10
0.11313708
20
0.14028225
30
0
70
32
0
SEQEND
8
0
0
POLYLINE
8
0
62
5
66
1
10
0
20
0
30
0
70
8
0
VERTEX
8
0
62
5
10
0.028284271
20
0.14028225
30
0
70
32
0
VERTEX
8
0
62
5
10
0.028284271
20
0.14028225
30
0
70
32
0
SEQEND
8
0
0
POLYLINE
8
0
62
5
66
1
10
0
20
0
30
0
70
8
0
VERTEX
8
0
62
5
10
0.056568542
20
0.14028225
30
0
70
32
0
VERTEX
8
0
62
5
10
0.056568542
20
0.14028225
30
0
70
32
0
SEQEND
8
0
0
POLYLINE
8
0
62
5
66
1
10
0
20
0
30
0
70
8
0
VERTEX
8
0
62
5
10
0.084852814
20
0.14028225
30
0
70
32
0
VERTEX
8
0
62
5
10
0.084852814
20
0.14028225
30
0
70
32
0
SEQEND
8
0
0
POLYLINE
8
0
62
5
66
1
10
0
20
0
30
0
70
8
0
VERTEX
8
0
62
5
10
0.017767509
20
0.15057771
30
0
70
32
0
VERTEX
8
0
62
5
10
0.017767509
20
0.15057771
30
0
70
32
0
SEQEND
8
0
0
POLYLINE
8
0
62
5
66
1
10
0
20
0
30
0
70
8
0
VERTEX
8
0
62
5
10
0.04605178
20
0.15057771
30
0
70
32
0
VERTEX
8
0
62
5
10
0.04605178
20
0.15057771
30
0
70
32
0
SEQEND
8
0
0
POLYLINE
8
0
62
5
66
1
10
0
20
0
30
0
70
8
0
VERTEX
8
0
62
5
10
0.074336051
20
0.15057771
30
0
70
32
0
VERTEX
8
0
62
5
10
0.074336051
20
0.15057771
30
0
70
32
0
SEQEND
8
0
0
POLYLINE
8
0
62
5
66
1
10
0
20
0
30
0
70
8
0
VERTEX
8
0
62
5
10
0.10262032
20
0.15057771
30
0
70
32
0
VERTEX
8
0
62
5
10
0.10262032
20
0.15057771
30
0
70
32
0
SEQEND
8
0
0
POLYLINE
8
0
62
30
66
1
10
0
20
0
30
0
70
8
0
VERTEX
8
0
62
30
10
0.11313708
20
0.15057771
30
0
70
32
0
VERTEX
8
0
62
30
10
0.22627417
20
0.15057771
30
0
70
32
0
SEQEND
8
0
0
POLYLINE
8
0
62
30
66
1
10
0
20
0
30
0
70
8
0
VERTEX
8
0
62
30
10
0.11313708
20
0.14028225
30
0
70
32
0
VERTEX
8
0
62
30
10
0.22627417
20
0.14028225
30
0
70
32
0
SEQEND
8
0
0
POLYLINE
8
0
62
5
66
1
10
0
20
0
30
0
70
8
0
VERTEX
8
0
62
5
10
0.11313708
20
0.14028225
30
0
70
32
0
VERTEX
8
0
62
5
10
0.13090459
20
0.15057771
30
0
70
32
0
VERTEX
8
0
62
5
10
0.14142136
20
0.14028225
30
0
70
32
0
VERTEX
8
0
62
5
10
0.15918887
20
0.15057771
30
0
70
32
0
VERTEX
8
0
62
5
10
0.16970563
20
0.14028225
30
0
70
32
0
VERTEX
8
0
62
5
10
0.18747314
20
0.15057771
30
0
70
32
0
VERTEX
8
0
62
5
10
0.1979899
20
0.14028225
30
0
70
32
0
VERTEX
8
0
62
5
10
0.21575741
20
0.15057771
30
0
70
32
0
VERTEX
8
0
62
5
10
0.22627417
20
0.14028225
30
0
70
32
0
SEQEND
8
0
0
POLYLINE
8
0
62
5
66
1
10
0
20
0
30
0
70
8
0
VERTEX
8
0
62
5
10
0.14142136
20
0.14028225
30
0
70
32
0
VERTEX
8
0
62
5
10
0.14142136
20
0.14028225
30
0
70
32
0
SEQEND
8
0
0
POLYLINE
8
0
62
5
66
1
10
0
20
0
30
0
70
8
0
VERTEX
8
0
62
5
10
0.16970563
20
0.14028225
30
0
70
32
0
VERTEX
8
0
62
5
10
0.16970563
20
0.14028225
30
0
70
32
0
SEQEND
8
0
0
POLYLINE
8
0
62
5
66
1
10
0
20
0
30
0
70
8
0
VERTEX
8
0
62
5
10
0.1979899
20
0.14028225
30
0
70
32
0
VERTEX
8
0
62
5
10
0.1979899
20
0.14028225
30
0
70
32
0
SEQEND
8
0
0
POLYLINE
8
0
62
5
66
1
10
0
20
0
30
0
70
8
0
VERTEX
8
0
62
5
10
0.13090459
20
0.15057771
30
0
70
32
0
VERTEX
8
0
62
5
10
0.13090459
20
0.15057771
30
0
70
32
0
SEQEND
8
0
0
POLYLINE
8
0
62
5
66
1
10
0
20
0
30
0
70
8
0
VERTEX
8
0
62
5
10
0.15918887
20
0.15057771
30
0
70
32
0
VERTEX
8
0
62
5
10
0.15918887
20
0.15057771
30
0
70
32
0
SEQEND
8
0
0
POLYLINE
8
0
62
5
66
1
10
0
20
0
30
0
70
8
0
VERTEX
8
0
62
5
10
0.18747314
20
0.15057771
30
0
70
32
0
VERTEX
8
0
62
5
10
0.18747314
20
0.15057771
30
0
70
32
0
SEQEND
8
0
0
POLYLINE
8
0
62
5
66
1
10
0
20
0
30
0
70
8
0
VERTEX
8
0
62
5
10
0.21575741
20
0.15057771
30
0
70
32
0
VERTEX
8
0
62
5
10
0.21575741
20
0.15057771
30
0
70
32
0
SEQEND
8
0
0
POLYLINE
8
0
62
30
66
1
10
0
20
0
30
0
70
8
0
VERTEX
8
0
62
30
10
-0.11313708
20
0.15057771
30
0
70
32
0
VERTEX
8
0
62
30
10
0
20
0.15057771
30
0
70
32
0
SEQEND
8
0
0
POLYLINE
8
0
62
30
66
1
10
0
20
0
30
0
70
8
0
VERTEX
8
0
62
30
10
-0.11313708
20
0.14028225
30
0
70
32
0
VERTEX
8
0
62
30
10
0
20
0.14028225
30
0
70
32
0
SEQEND
8
0
0
POLYLINE
8
0
62
5
66
1
10
0
20
0
30
0
70
8
0
VERTEX
8
0
62
5
10
-0.11313708
20
0.14028225
30
0
70
32
0
VERTEX
8
0
62
5
10
-0.095369576
20
0.15057771
30
0
70
32
0
VERTEX
8
0
62
5
10
-0.084852814
20
0.14028225
30
0
70
32
0
VERTEX
8
0
62
5
10
-0.067085305
20
0.15057771
30
0
70
32
0
VERTEX
8
0
62
5
10
-0.056568542
20
0.14028225
30
0
70
32
0
VERTEX
8
0
62
5
10
-0.038801034
20
0.15057771
30
0
70
32
0
VERTEX
8
0
62
5
10
-0.028284271
20
0.14028225
30
0
70
32
0
VERTEX
8
0
62
5
10
-0.010516762
20
0.15057771
30
0
70
32
0
VERTEX
8
0
62
5
10
0
20
0.14028225
30
0
70
32
0
SEQEND
8
0
0
POLYLINE
8
0
62
5
66
1
10
0
20
0
30
0
70
8
0
VERTEX
8
0
62
5
10
-0.084852814
20
0.14028225
30
0
70
32
0
VERTEX
8
0
62
5
10
-0.084852814
20
0.14028225
30
0
70
32
0
SEQEND
8
0
0
POLYLINE
8
0
62
5
66
1
10
0
20
0
30
0
70
8
0
VERTEX
8
0
62
5
10
-0.056568542
20
0.14028225
30
0
70
32
0
VERTEX
8
0
62
5
10
-0.056568542
20
0.14028225
30
0
70
32
0
SEQEND
8
0
0
POLYLINE
8
0
62
5
66
1
10
0
20
0
30
0
70
8
0
VERTEX
8
0
62
5
10
-0.028284271
20
0.14028225
30
0
70
32
0
VERTEX
8
0
62
5
10
-0.028284271
20
0.14028225
30
0
70
32
0
SEQEND
8
0
0
POLYLINE
8
0
62
5
66
1
10
0
20
0
30
0
70
8
0
VERTEX
8
0
62
5
10
-0.095369576
20
0.15057771
30
0
70
32
0
VERTEX
8
0
62
5
10
-0.095369576
20
0.15057771
30
0
70
32
0
SEQEND
8
0
0
POLYLINE
8
0
62
5
66
1
10
0
20
0
30
0
70
8
0
VERTEX
8
0
62
5
10
-0.067085305
20
0.15057771
30
0
70
32
0
VERTEX
8
0
62
5
10
-0.067085305
20
0.15057771
30
0
70
32
0
SEQEND
8
0
0
POLYLINE
8
0
62
5
66
1
10
0
20
0
30
0
70
8
0
VERTEX
8
0
62
5
10
-0.038801034
20
0.15057771
30
0
70
32
0
VERTEX
8
0
62
5
10
-0.038801034
20
0.15057771
30
0
70
32
0
SEQEND
8
0
0
POLYLINE
8
0
62
5
66
1
10
0
20
0
30
0
70
8
0
VERTEX
8
0
62
5
10
-0.010516762
20
0.15057771
30
0
70
32
0
VERTEX
8
0
62
5
10
-0.010516762
20
0.15057771
30
0
70
32
0
SEQEND
8
0
0
POLYLINE
8
0
62
5
66
1
10
0
20
0
30
0
70
8
0
VERTEX
8
0
62
5
10
0.017767509
20
0.15057771
30
0
70
32
0
VERTEX
8
0
62
5
10
0.017767509
20
0.18532341
30
0
70
32
0
SEQEND
8
0
0
POLYLINE
8
0
62
5
66
1
10
0
20
0
30
0
70
8
0
VERTEX
8
0
62
5
10
0.13090459
20
0.15057771
30
0
70
32
0
VERTEX
8
0
62
5
10
0.13090459
20
0.18532341
30
0
70
32
0
SEQEND
8
0
0
POLYLINE
8
0
62
5
66
1
10
0
20
0
30
0
70
8
0
VERTEX
8
0
62
5
10
0.04605178
20
0.15057771
30
0
70
32
0
VERTEX
8
0
62
5
10
0.04605178
20
0.18532341
30
0
70
32
0
SEQEND
8
0
0
POLYLINE
8
0
62
5
66
1
10
0
20
0
30
0
70
8
0
VERTEX
8
0
62
5
10
0.074336051
20
0.15057771
30
0
70
32
0
VERTEX
8
0
62
5
10
0.074336051
20
0.18532341
30
0
70
32
0
SEQEND
8
0
0
POLYLINE
8
0
62
5
66
1
10
0
20
0
30
0
70
8
0
VERTEX
8
0
62
5
10
0.10262032
20
0.15057771
30
0
70
32
0
VERTEX
8
0
62
5
10
0.10262032
20
0.18532341
30
0
70
32
0
SEQEND
8
0
0
POLYLINE
8
0
62
5
66
1
10
0
20
0
30
0
70
8
0
VERTEX
8
0
62
5
10
0.24404168
20
0.15057771
30
0
70
32
0
VERTEX
8
0
62
5
10
0.24404168
20
0.18532341
30
0
70
32
0
SEQEND
8
0
0
POLYLINE
8
0
62
5
66
1
10
0
20
0
30
0
70
8
0
VERTEX
8
0
62
5
10
0.15918887
20
0.15057771
30
0
70
32
0
VERTEX
8
0
62
5
10
0.15918887
20
0.18532341
30
0
70
32
0
SEQEND
8
0
0
POLYLINE
8
0
62
5
66
1
10
0
20
0
30
0
70
8
0
VERTEX
8
0
62
5
10
0.18747314
20
0.15057771
30
0
70
32
0
VERTEX
8
0
62
5
10
0.18747314
20
0.18532341
30
0
70
32
0
SEQEND
8
0
0
POLYLINE
8
0
62
5
66
1
10
0
20
0
30
0
70
8
0
VERTEX
8
0
62
5
10
0.21575741
20
0.15057771
30
0
70
32
0
VERTEX
8
0
62
5
10
0.21575741
20
0.18532341
30
0
70
32
0
SEQEND
8
0
0
POLYLINE
8
0
62
5
66
1
10
0
20
0
30
0
70
8
0
VERTEX
8
0
62
5
10
-0.095369576
20
0.15057771
30
0
70
32
0
VERTEX
8
0
62
5
10
-0.095369576
20
0.18532341
30
0
70
32
0
SEQEND
8
0
0
POLYLINE
8
0
62
5
66
1
10
0
20
0
30
0
70
8
0
VERTEX
8
0
62
5
10
-0.067085305
20
0.15057771
30
0
70
32
0
VERTEX
8
0
62
5
10
-0.067085305
20
0.18532341
30
0
70
32
0
SEQEND
8
0
0
POLYLINE
8
0
62
5
66
1
10
0
20
0
30
0
70
8
0
VERTEX
8
0
62
5
10
-0.038801034
20
0.15057771
30
0
70
32
0
VERTEX
8
0
62
5
10
-0.038801034
20
0.18532341
30
0
70
32
0
SEQEND
8
0
0
POLYLINE
8
0
62
5
66
1
10
0
20
0
30
0
70
8
0
VERTEX
8
0
62
5
10
-0.010516762
20
0.15057771
30
0
70
32
0
VERTEX
8
0
62
5
10
-0.010516762
20
0.18532341
30
0
70
32
0
SEQEND
8
0
0
POLYLINE
8
0
62
5
66
1
10
0
20
0
30
0
70
8
0
VERTEX
8
0
62
5
10
0.017767509
20
0.18532341
30
0
70
32
0
VERTEX
8
0
62
5
10
0.017767509
20
0.33880917
30
0
70
32
0
SEQEND
8
0
0
POLYLINE
8
0
62
5
66
1
10
0
20
0
30
0
70
8
0
VERTEX
8
0
62
5
10
0.13090459
20
0.33880917
30
0
70
32
0
VERTEX
8
0
62
5
10
0.13090459
20
0.18532341
30
0
70
32
0
SEQEND
8
0
0
POLYLINE
8
0
62
5
66
1
10
0
20
0
30
0
70
8
0
VERTEX
8
0
62
5
10
0.017767509
20
0.22590831
30
0
70
32
0
VERTEX
8
0
62
5
10
0.04605178
20
0.18538548
30
0
70
32
0
VERTEX
8
0
62
5
10
0.074336051
20
0.22154347
30
0
70
32
0
VERTEX
8
0
62
5
10
0.10262032
20
0.26206629
30
0
70
32
0
VERTEX
8
0
62
5
10
0.13090459
20
0.22590831
30
0
70
32
0
SEQEND
8
0
0
POLYLINE
8
0
62
5
66
1
10
0
20
0
30
0
70
8
0
SEQEND
8
0
0
POLYLINE
8
0
62
5
66
1
10
0
20
0
30
0
70
8
0
VERTEX
8
0
62
5
10
0.017767509
20
0.29822428
30
0
70
32
0
VERTEX
8
0
62
5
10
0.04605178
20
0.33874711
30
0
70
32
0
VERTEX
8
0
62
5
10
0.074336051
20
0.30258912
30
0
70
32
0
VERTEX
8
0
62
5
10
0.10262032
20
0.26206629
30
0
70
32
0
VERTEX
8
0
62
5
10
0.13090459
20
0.29822428
30
0
70
32
0
SEQEND
8
0
0
POLYLINE
8
0
62
30
66
1
10
0
20
0
30
0
70
8
0
VERTEX
8
0
62
30
10
0.017767509
20
0.26206629
30
0
70
32
0
VERTEX
8
0
62
30
10
0.13090459
20
0.26206629
30
0
70
32
0
SEQEND
8
0
0
POLYLINE
8
0
62
30
66
1
10
0
20
0
30
0
70
8
0
VERTEX
8
0
62
30
10
0.04605178
20
0.18538548
30
0
70
32
0
VERTEX
8
0
62
30
10
0.04605178
20
0.26206629
30
0
70
32
0
SEQEND
8
0
0
POLYLINE
8
0
62
30
66
1
10
0
20
0
30
0
70
8
0
VERTEX
8
0
62
30
10
0.074336051
20
0.22154347
30
0
70
32
0
VERTEX
8
0
62
30
10
0.074336051
20
0.26206629
30
0
70
32
0
SEQEND
8
0
0
POLYLINE
8
0
62
30
66
1
10
0
20
0
30
0
70
8
0
VERTEX
8
0
62
30
10
0.10262032
20
0.26206629
30
0
70
32
0
VERTEX
8
0
62
30
10
0.10262032
20
0.26206629
30
0
70
32
0
SEQEND
8
0
0
POLYLINE
8
0
62
5
66
1
10
0
20
0
30
0
70
8
0
VERTEX
8
0
62
5
10
0.04605178
20
0.18532341
30
0
70
32
0
VERTEX
8
0
62
5
10
0.04605178
20
0.18538548
30
0
70
32
0
SEQEND
8
0
0
POLYLINE
8
0
62
5
66
1
10
0
20
0
30
0
70
8
0
VERTEX
8
0
62
5
10
0.074336051
20
0.18532341
30
0
70
32
0
VERTEX
8
0
62
5
10
0.074336051
20
0.22154347
30
0
70
32
0
SEQEND
8
0
0
POLYLINE
8
0
62
5
66
1
10
0
20
0
30
0
70
8
0
VERTEX
8
0
62
5
10
0.10262032
20
0.18532341
30
0
70
32
0
VERTEX
8
0
62
5
10
0.10262032
20
0.26206629
30
0
70
32
0
SEQEND
8
0
0
POLYLINE
8
0
62
5
66
1
10
0
20
0
30
0
70
8
0
VERTEX
8
0
62
5
10
0.04605178
20
0.26206629
30
0
70
32
0
VERTEX
8
0
62
5
10
0.04605178
20
0.33880917
30
0
70
32
0
SEQEND
8
0
0
POLYLINE
8
0
62
5
66
1
10
0
20
0
30
0
70
8
0
VERTEX
8
0
62
5
10
0.074336051
20
0.26206629
30
0
70
32
0
VERTEX
8
0
62
5
10
0.074336051
20
0.33880917
30
0
70
32
0
SEQEND
8
0
0
POLYLINE
8
0
62
5
66
1
10
0
20
0
30
0
70
8
0
VERTEX
8
0
62
5
10
0.10262032
20
0.26206629
30
0
70
32
0
VERTEX
8
0
62
5
10
0.10262032
20
0.33880917
30
0
70
32
0
SEQEND
8
0
0
POLYLINE
8
0
62
5
66
1
10
0
20
0
30
0
70
8
0
VERTEX
8
0
62
5
10
0.24404168
20
0.33880917
30
0
70
32
0
VERTEX
8
0
62
5
10
0.24404168
20
0.18532341
30
0
70
32
0
SEQEND
8
0
0
POLYLINE
8
0
62
5
66
1
10
0
20
0
30
0
70
8
0
VERTEX
8
0
62
5
10
0.13090459
20
0.22590831
30
0
70
32
0
VERTEX
8
0
62
5
10
0.15918887
20
0.18538548
30
0
70
32
0
VERTEX
8
0
62
5
10
0.18747314
20
0.22154347
30
0
70
32
0
VERTEX
8
0
62
5
10
0.21575741
20
0.26206629
30
0
70
32
0
VERTEX
8
0
62
5
10
0.24404168
20
0.22590831
30
0
70
32
0
SEQEND
8
0
0
POLYLINE
8
0
62
5
66
1
10
0
20
0
30
0
70
8
0
SEQEND
8
0
0
POLYLINE
8
0
62
5
66
1
10
0
20
0
30
0
70
8
0
VERTEX
8
0
62
5
10
0.13090459
20
0.29822428
30
0
70
32
0
VERTEX
8
0
62
5
10
0.15918887
20
0.33874711
30
0
70
32
0
VERTEX
8
0
62
5
10
0.18747314
20
0.30258912
30
0
70
32
0
VERTEX
8
0
62
5
10
0.21575741
20
0.26206629
30
0
70
32
0
VERTEX
8
0
62
5
10
0.24404168
20
0.29822428
30
0
70
32
0
SEQEND
8
0
0
POLYLINE
8
0
62
30
66
1
10
0
20
0
30
0
70
8
0
VERTEX
8
0
62
30
10
0.13090459
20
0.26206629
30
0
70
32
0
VERTEX
8
0
62
30
10
0.24404168
20
0.26206629
30
0
70
32
0
SEQEND
8
0
0
POLYLINE
8
0
62
30
66
1
10
0
20
0
30
0
70
8
0
VERTEX
8
0
62
30
10
0.15918887
20
0.18538548
30
0
70
32
0
VERTEX
8
0
62
30
10
0.15918887
20
0.26206629
30
0
70
32
0
SEQEND
8
0
0
POLYLINE
8
0
62
30
66
1
10
0
20
0
30
0
70
8
0
VERTEX
8
0
62
30
10
0.18747314
20
0.22154347
30
0
70
32
0
VERTEX
8
0
62
30
10
0.18747314
20
0.26206629
30
0
70
32
0
SEQEND
8
0
0
POLYLINE
8
0
62
30
66
1
10
0
20
0
30
0
70
8
0
VERTEX
8
0
62
30
10
0.21575741
20
0.26206629
30
0
70
32
0
VERTEX
8
0
62
30
10
0.21575741
20
0.26206629
30
0
70
32
0
SEQEND
8
0
0
POLYLINE
8
0
62
5
66
1
10
0
20
0
30
0
70
8
0
VERTEX
8
0
62
5
10
0.15918887
20
0.18532341
30
0
70
32
0
VERTEX
8
0
62
5
10
0.15918887
20
0.18538548
30
0
70
32
0
SEQEND
8
0
0
POLYLINE
8
0
62
5
66
1
10
0
20
0
30
0
70
8
0
VERTEX
8
0
62
5
10
0.18747314
20
0.18532341
30
0
70
32
0
VERTEX
8
0
62
5
10
0.18747314
20
0.22154347
30
0
70
32
0
SEQEND
8
0
0
POLYLINE
8
0
62
5
66
1
10
0
20
0
30
0
70
8
0
VERTEX
8
0
62
5
10
0.21575741
20
0.18532341
30
0
70
32
0
VERTEX
8
0
62
5
10
0.21575741
20
0.26206629
30
0
70
32
0
SEQEND
8
0
0
POLYLINE
8
0
62
5
66
1
10
0
20
0
30
0
70
8
0
VERTEX
8
0
62
5
10
0.15918887
20
0.26206629
30
0
70
32
0
VERTEX
8
0
62
5
10
0.15918887
20
0.33880917
30
0
70
32
0
SEQEND
8
0
0
POLYLINE
8
0
62
5
66
1
10
0
20
0
30
0
70
8
0
VERTEX
8
0
62
5
10
0.18747314
20
0.26206629
30
0
70
32
0
VERTEX
8
0
62
5
10
0.18747314
20
0.33880917
30
0
70
32
0
SEQEND
8
0
0
POLYLINE
8
0
62
5
66
1
10
0
20
0
30
0
70
8
0
VERTEX
8
0
62
5
10
0.21575741
20
0.26206629
30
0
70
32
0
VERTEX
8
0
62
5
10
0.21575741
20
0.33880917
30
0
70
32
0
SEQEND
8
0
0
POLYLINE
8
0
62
5
66
1
10
0
20
0
30
0
70
8
0
VERTEX
8
0
62
5
10
-0.095369576
20
0.18532341
30
0
70
32
0
VERTEX
8
0
62
5
10
-0.095369576
20
0.33880917
30
0
70
32
0
SEQEND
8
0
0
POLYLINE
8
0
62
5
66
1
10
0
20
0
30
0
70
8
0
VERTEX
8
0
62
5
10
-0.095369576
20
0.22590831
30
0
70
32
0
VERTEX
8
0
62
5
10
-0.067085305
20
0.18538548
30
0
70
32
0
VERTEX
8
0
62
5
10
-0.038801034
20
0.22154347
30
0
70
32
0
VERTEX
8
0
62
5
10
-0.010516762
20
0.26206629
30
0
70
32
0
VERTEX
8
0
62
5
10
0.017767509
20
0.22590831
30
0
70
32
0
SEQEND
8
0
0
POLYLINE
8
0
62
5
66
1
10
0
20
0
30
0
70
8
0
SEQEND
8
0
0
POLYLINE
8
0
62
5
66
1
10
0
20
0
30
0
70
8
0
VERTEX
8
0
62
5
10
-0.095369576
20
0.29822428
30
0
70
32
0
VERTEX
8
0
62
5
10
-0.067085305
20
0.33874711
30
0
70
32
0
VERTEX
8
0
62
5
10
-0.038801034
20
0.30258912
30
0
70
32
0
VERTEX
8
0
62
5
10
-0.010516762
20
0.26206629
30
0
70
32
0
VERTEX
8
0
62
5
10
0.017767509
20
0.29822428
30
0
70
32
0
SEQEND
8
0
0
POLYLINE
8
0
62
30
66
1
10
0
20
0
30
0
70
8
0
VERTEX
8
0
62
30
10
-0.095369576
20
0.26206629
30
0
70
32
0
VERTEX
8
0
62
30
10
0.017767509
20
0.26206629
30
0
70
32
0
SEQEND
8
0
0
POLYLINE
8
0
62
30
66
1
10
0
20
0
30
0
70
8
0
VERTEX
8
0
62
30
10
-0.067085305
20
0.18538548
30
0
70
32
0
VERTEX
8
0
62
30
10
-0.067085305
20
0.26206629
30
0
70
32
0
SEQEND
8
0
0
POLYLINE
8
0
62
30
66
1
10
0
20
0
30
0
70
8
0
VERTEX
8
0
62
30
10
-0.038801034
20
0.22154347
30
0
70
32
0
VERTEX
8
0
62
30
10
-0.038801034
20
0.26206629
30
0
70
32
0
SEQEND
8
0
0
POLYLINE
8
0
62
30
66
1
10
0
20
0
30
0
70
8
0
VERTEX
8
0
62
30
10
-0.010516762
20
0.26206629
30
0
70
32
0
VERTEX
8
0
62
30
10
-0.010516762
20
0.26206629
30
0
70
32
0
SEQEND
8
0
0
POLYLINE
8
0
62
5
66
1
10
0
20
0
30
0
70
8
0
VERTEX
8
0
62
5
10
-0.067085305
20
0.18532341
30
0
70
32
0
VERTEX
8
0
62
5
10
-0.067085305
20
0.18538548
30
0
70
32
0
SEQEND
8
0
0
POLYLINE
8
0
62
5
66
1
10
0
20
0
30
0
70
8
0
VERTEX
8
0
62
5
10
-0.038801034
20
0.18532341
30
0
70
32
0
VERTEX
8
0
62
5
10
-0.038801034
20
0.22154347
30
0
70
32
0
SEQEND
8
0
0
POLYLINE
8
0
62
5
66
1
10
0
20
0
30
0
70
8
0
VERTEX
8
0
62
5
10
-0.010516762
20
0.18532341
30
0
70
32
0
VERTEX
8
0
62
5
10
-0.010516762
20
0.26206629
30
0
70
32
0
SEQEND
8
0
0
POLYLINE
8
0
62
5
66
1
10
0
20
0
30
0
70
8
0
VERTEX
8
0
62
5
10
-0.067085305
20
0.26206629
30
0
70
32
0
VERTEX
8
0
62
5
10
-0.067085305
20
0.33880917
30
0
70
32
0
SEQEND
8
0
0
POLYLINE
8
0
62
5
66
1
10
0
20
0
30
0
70
8
0
VERTEX
8
0
62
5
10
-0.038801034
20
0.26206629
30
0
70
32
0
VERTEX
8
0
62
5
10
-0.038801034
20
0.33880917
30
0
70
32
0
SEQEND
8
0
0
POLYLINE
8
0
62
5
66
1
10
0
20
0
30
0
70
8
0
VERTEX
8
0
62
5
10
-0.010516762
20
0.26206629
30
0
70
32
0
VERTEX
8
0
62
5
10
-0.010516762
20
0.33880917
30
0
70
32
0
SEQEND
8
0
0
POLYLINE
8
0
62
5
66
1
10
0
20
0
30
0
70
8
0
VERTEX
8
0
62
5
10
0.017767509
20
0.33880917
30
0
70
32
0
VERTEX
8
0
62
5
10
0.017767509
20
0.37880917
30
0
70
32
0
SEQEND
8
0
0
POLYLINE
8
0
62
5
66
1
10
0
20
0
30
0
70
8
0
VERTEX
8
0
62
5
10
0.13090459
20
0.37880917
30
0
70
32
0
VERTEX
8
0
62
5
10
0.13090459
20
0.33880917
30
0
70
32
0
SEQEND
8
0
0
POLYLINE
8
0
62
5
66
1
10
0
20
0
30
0
70
8
0
VERTEX
8
0
62
5
10
0.017767509
20
0.33880917
30
0
70
32
0
VERTEX
8
0
62
5
10
0.13090459
20
0.33880917
30
0
70
32
0
SEQEND
8
0
0
POLYLINE
8
0
62
5
66
1
10
0
20
0
30
0
70
8
0
VERTEX
8
0
62
5
10
0.017767509
20
0.37880917
30
0
70
32
0
VERTEX
8
0
62
5
10
0.13090459
20
0.37880917
30
0
70
32
0
SEQEND
8
0
0
POLYLINE
8
0
62
5
66
1
10
0
20
0
30
0
70
8
0
VERTEX
8
0
62
5
10
0.04605178
20
0.33880917
30
0
70
32
0
VERTEX
8
0
62
5
10
0.04605178
20
0.33880917
30
0
70
32
0
SEQEND
8
0
0
POLYLINE
8
0
62
5
66
1
10
0
20
0
30
0
70
8
0
VERTEX
8
0
62
5
10
0.074336051
20
0.33880917
30
0
70
32
0
VERTEX
8
0
62
5
10
0.074336051
20
0.33880917
30
0
70
32
0
SEQEND
8
0
0
POLYLINE
8
0
62
5
66
1
10
0
20
0
30
0
70
8
0
VERTEX
8
0
62
5
10
0.10262032
20
0.33880917
30
0
70
32
0
VERTEX
8
0
62
5
10
0.10262032
20
0.33880917
30
0
70
32
0
SEQEND
8
0
0
POLYLINE
8
0
62
5
66
1
10
0
20
0
30
0
70
8
0
VERTEX
8
0
62
5
10
0.04605178
20
0.37880917
30
0
70
32
0
VERTEX
8
0
62
5
10
0.04605178
20
0.37880917
30
0
70
32
0
SEQEND
8
0
0
POLYLINE
8
0
62
5
66
1
10
0
20
0
30
0
70
8
0
VERTEX
8
0
62
5
10
0.074336051
20
0.37880917
30
0
70
32
0
VERTEX
8
0
62
5
10
0.074336051
20
0.37880917
30
0
70
32
0
SEQEND
8
0
0
POLYLINE
8
0
62
5
66
1
10
0
20
0
30
0
70
8
0
VERTEX
8
0
62
5
10
0.10262032
20
0.37880917
30
0
70
32
0
VERTEX
8
0
62
5
10
0.10262032
20
0.37880917
30
0
70
32
0
SEQEND
8
0
0
POLYLINE
8
0
62
30
66
1
10
0
20
0
30
0
70
8
0
VERTEX
8
0
62
30
10
0.017767509
20
0.37880917
30
0
70
32
0
VERTEX
8
0
62
30
10
0.04605178
20
0.33880917
30
0
70
32
0
SEQEND
8
0
0
POLYLINE
8
0
62
30
66
1
10
0
20
0
30
0
70
8
0
VERTEX
8
0
62
30
10
0.04605178
20
0.37880917
30
0
70
32
0
VERTEX
8
0
62
30
10
0.017767509
20
0.33880917
30
0
70
32
0
SEQEND
8
0
0
POLYLINE
8
0
62
30
66
1
10
0
20
0
30
0
70
8
0
VERTEX
8
0
62
30
10
0.074336051
20
0.37880917
30
0
70
32
0
VERTEX
8
0
62
30
10
0.10262032
20
0.33880917
30
0
70
32
0
SEQEND
8
0
0
POLYLINE
8
0
62
30
66
1
10
0
20
0
30
0
70
8
0
VERTEX
8
0
62
30
10
0.10262032
20
0.37880917
30
0
70
32
0
VERTEX
8
0
62
30
10
0.074336051
20
0.33880917
30
0
70
32
0
SEQEND
8
0
0
POLYLINE
8
0
62
30
66
1
10
0
20
0
30
0
70
8
0
VERTEX
8
0
62
30
10
0.04605178
20
0.35880917
30
0
70
32
0
VERTEX
8
0
62
30
10
0.074336051
20
0.35880917
30
0
70
32
0
SEQEND
8
0
0
POLYLINE
8
0
62
30
66
1
10
0
20
0
30
0
70
8
0
VERTEX
8
0
62
30
10
0.10262032
20
0.35880917
30
0
70
32
0
VERTEX
8
0
62
30
10
0.13090459
20
0.35880917
30
0
70
32
0
SEQEND
8
0
0
POLYLINE
8
0
62
5
66
1
10
0
20
0
30
0
70
8
0
VERTEX
8
0
62
5
10
0.017767509
20
0.35880917
30
0
70
32
0
VERTEX
8
0
62
5
10
0.031909645
20
0.35880917
30
0
70
32
0
SEQEND
8
0
0
POLYLINE
8
0
62
5
66
1
10
0
20
0
30
0
70
8
0
VERTEX
8
0
62
5
10
0.074336051
20
0.35880917
30
0
70
32
0
VERTEX
8
0
62
5
10
0.088478187
20
0.35880917
30
0
70
32
0
SEQEND
8
0
0
POLYLINE
8
0
62
5
66
1
10
0
20
0
30
0
70
8
0
VERTEX
8
0
62
5
10
0.031909645
20
0.35880917
30
0
70
32
0
VERTEX
8
0
62
5
10
0.04605178
20
0.35880917
30
0
70
32
0
SEQEND
8
0
0
POLYLINE
8
0
62
5
66
1
10
0
20
0
30
0
70
8
0
VERTEX
8
0
62
5
10
0.088478187
20
0.35880917
30
0
70
32
0
VERTEX
8
0
62
5
10
0.10262032
20
0.35880917
30
0
70
32
0
SEQEND
8
0
0
POLYLINE
8
0
62
5
66
1
10
0
20
0
30
0
70
8
0
VERTEX
8
0
62
5
10
0.04605178
20
0.33880917
30
0
70
32
0
VERTEX
8
0
62
5
10
0.04605178
20
0.37880917
30
0
70
32
0
SEQEND
8
0
0
POLYLINE
8
0
62
5
66
1
10
0
20
0
30
0
70
8
0
VERTEX
8
0
62
5
10
0.074336051
20
0.33880917
30
0
70
32
0
VERTEX
8
0
62
5
10
0.074336051
20
0.37880917
30
0
70
32
0
SEQEND
8
0
0
POLYLINE
8
0
62
5
66
1
10
0
20
0
30
0
70
8
0
VERTEX
8
0
62
5
10
0.10262032
20
0.33880917
30
0
70
32
0
VERTEX
8
0
62
5
10
0.10262032
20
0.37880917
30
0
70
32
0
SEQEND
8
0
0
POLYLINE
8
0
62
5
66
1
10
0
20
0
30
0
70
8
0
VERTEX
8
0
62
5
10
0.017767509
20
0.33880917
30
0
70
32
0
VERTEX
8
0
62
5
10
0.017767509
20
0.37880917
30
0
70
32
0
SEQEND
8
0
0
POLYLINE
8
0
62
5
66
1
10
0
20
0
30
0
70
8
0
VERTEX
8
0
62
5
10
0.24404168
20
0.37880917
30
0
70
32
0
VERTEX
8
0
62
5
10
0.24404168
20
0.33880917
30
0
70
32
0
SEQEND
8
0
0
POLYLINE
8
0
62
5
66
1
10
0
20
0
30
0
70
8
0
VERTEX
8
0
62
5
10
0.13090459
20
0.33880917
30
0
70
32
0
VERTEX
8
0
62
5
10
0.24404168
20
0.33880917
30
0
70
32
0
SEQEND
8
0
0
POLYLINE
8
0
62
5
66
1
10
0
20
0
30
0
70
8
0
VERTEX
8
0
62
5
10
0.13090459
20
0.37880917
30
0
70
32
0
VERTEX
8
0
62
5
10
0.24404168
20
0.37880917
30
0
70
32
0
SEQEND
8
0
0
POLYLINE
8
0
62
5
66
1
10
0
20
0
30
0
70
8
0
VERTEX
8
0
62
5
10
0.15918887
20
0.33880917
30
0
70
32
0
VERTEX
8
0
62
5
10
0.15918887
20
0.33880917
30
0
70
32
0
SEQEND
8
0
0
POLYLINE
8
0
62
5
66
1
10
0
20
0
30
0
70
8
0
VERTEX
8
0
62
5
10
0.18747314
20
0.33880917
30
0
70
32
0
VERTEX
8
0
62
5
10
0.18747314
20
0.33880917
30
0
70
32
0
SEQEND
8
0
0
POLYLINE
8
0
62
5
66
1
10
0
20
0
30
0
70
8
0
VERTEX
8
0
62
5
10
0.21575741
20
0.33880917
30
0
70
32
0
VERTEX
8
0
62
5
10
0.21575741
20
0.33880917
30
0
70
32
0
SEQEND
8
0
0
POLYLINE
8
0
62
5
66
1
10
0
20
0
30
0
70
8
0
VERTEX
8
0
62
5
10
0.15918887
20
0.37880917
30
0
70
32
0
VERTEX
8
0
62
5
10
0.15918887
20
0.37880917
30
0
70
32
0
SEQEND
8
0
0
POLYLINE
8
0
62
5
66
1
10
0
20
0
30
0
70
8
0
VERTEX
8
0
62
5
10
0.18747314
20
0.37880917
30
0
70
32
0
VERTEX
8
0
62
5
10
0.18747314
20
0.37880917
30
0
70
32
0
SEQEND
8
0
0
POLYLINE
8
0
62
5
66
1
10
0
20
0
30
0
70
8
0
VERTEX
8
0
62
5
10
0.21575741
20
0.37880917
30
0
70
32
0
VERTEX
8
0
62
5
10
0.21575741
20
0.37880917
30
0
70
32
0
SEQEND
8
0
0
POLYLINE
8
0
62
30
66
1
10
0
20
0
30
0
70
8
0
VERTEX
8
0
62
30
10
0.13090459
20
0.37880917
30
0
70
32
0
VERTEX
8
0
62
30
10
0.15918887
20
0.33880917
30
0
70
32
0
SEQEND
8
0
0
POLYLINE
8
0
62
30
66
1
10
0
20
0
30
0
70
8
0
VERTEX
8
0
62
30
10
0.15918887
20
0.37880917
30
0
70
32
0
VERTEX
8
0
62
30
10
0.13090459
20
0.33880917
30
0
70
32
0
SEQEND
8
0
0
POLYLINE
8
0
62
30
66
1
10
0
20
0
30
0
70
8
0
VERTEX
8
0
62
30
10
0.18747314
20
0.37880917
30
0
70
32
0
VERTEX
8
0
62
30
10
0.21575741
20
0.33880917
30
0
70
32
0
SEQEND
8
0
0
POLYLINE
8
0
62
30
66
1
10
0
20
0
30
0
70
8
0
VERTEX
8
0
62
30
10
0.21575741
20
0.37880917
30
0
70
32
0
VERTEX
8
0
62
30
10
0.18747314
20
0.33880917
30
0
70
32
0
SEQEND
8
0
0
POLYLINE
8
0
62
30
66
1
10
0
20
0
30
0
70
8
0
VERTEX
8
0
62
30
10
0.15918887
20
0.35880917
30
0
70
32
0
VERTEX
8
0
62
30
10
0.18747314
20
0.35880917
30
0
70
32
0
SEQEND
8
0
0
POLYLINE
8
0
62
30
66
1
10
0
20
0
30
0
70
8
0
VERTEX
8
0
62
30
10
0.21575741
20
0.35880917
30
0
70
32
0
VERTEX
8
0
62
30
10
0.24404168
20
0.35880917
30
0
70
32
0
SEQEND
8
0
0
POLYLINE
8
0
62
5
66
1
10
0
20
0
30
0
70
8
0
VERTEX
8
0
62
5
10
0.13090459
20
0.35880917
30
0
70
32
0
VERTEX
8
0
62
5
10
0.14504673
20
0.35880917
30
0
70
32
0
SEQEND
8
0
0
POLYLINE
8
0
62
5
66
1
10
0
20
0
30
0
70
8
0
VERTEX
8
0
62
5
10
0.18747314
20
0.35880917
30
0
70
32
0
VERTEX
8
0
62
5
10
0.20161527
20
0.35880917
30
0
70
32
0
SEQEND
8
0
0
POLYLINE
8
0
62
5
66
1
10
0
20
0
30
0
70
8
0
VERTEX
8
0
62
5
10
0.14504673
20
0.35880917
30
0
70
32
0
VERTEX
8
0
62
5
10
0.15918887
20
0.35880917
30
0
70
32
0
SEQEND
8
0
0
POLYLINE
8
0
62
5
66
1
10
0
20
0
30
0
70
8
0
VERTEX
8
0
62
5
10
0.20161527
20
0.35880917
30
0
70
32
0
VERTEX
8
0
62
5
10
0.21575741
20
0.35880917
30
0
70
32
0
SEQEND
8
0
0
POLYLINE
8
0
62
5
66
1
10
0
20
0
30
0
70
8
0
VERTEX
8
0
62
5
10
0.15918887
20
0.33880917
30
0
70
32
0
VERTEX
8
0
62
5
10
0.15918887
20
0.37880917
30
0
70
32
0
SEQEND
8
0
0
POLYLINE
8
0
62
5
66
1
10
0
20
0
30
0
70
8
0
VERTEX
8
0
62
5
10
0.18747314
20
0.33880917
30
0
70
32
0
VERTEX
8
0
62
5
10
0.18747314
20
0.37880917
30
0
70
32
0
SEQEND
8
0
0
POLYLINE
8
0
62
5
66
1
10
0
20
0
30
0
70
8
0
VERTEX
8
0
62
5
10
0.21575741
20
0.33880917
30
0
70
32
0
VERTEX
8
0
62
5
10
0.21575741
20
0.37880917
30
0
70
32
0
SEQEND
8
0
0
POLYLINE
8
0
62
5
66
1
10
0
20
0
30
0
70
8
0
VERTEX
8
0
62
5
10
0.13090459
20
0.33880917
30
0
70
32
0
VERTEX
8
0
62
5
10
0.13090459
20
0.37880917
30
0
70
32
0
SEQEND
8
0
0
POLYLINE
8
0
62
5
66
1
10
0
20
0
30
0
70
8
0
VERTEX
8
0
62
5
10
-0.095369576
20
0.33880917
30
0
70
32
0
VERTEX
8
0
62
5
10
-0.095369576
20
0.37880917
30
0
70
32
0
SEQEND
8
0
0
POLYLINE
8
0
62
5
66
1
10
0
20
0
30
0
70
8
0
VERTEX
8
0
62
5
10
-0.095369576
20
0.33880917
30
0
70
32
0
VERTEX
8
0
62
5
10
0.017767509
20
0.33880917
30
0
70
32
0
SEQEND
8
0
0
POLYLINE
8
0
62
5
66
1
10
0
20
0
30
0
70
8
0
VERTEX
8
0
62
5
10
-0.095369576
20
0.37880917
30
0
70
32
0
VERTEX
8
0
62
5
10
0.017767509
20
0.37880917
30
0
70
32
0
SEQEND
8
0
0
POLYLINE
8
0
62
5
66
1
10
0
20
0
30
0
70
8
0
VERTEX
8
0
62
5
10
-0.067085305
20
0.33880917
30
0
70
32
0
VERTEX
8
0
62
5
10
-0.067085305
20
0.33880917
30
0
70
32
0
SEQEND
8
0
0
POLYLINE
8
0
62
5
66
1
10
0
20
0
30
0
70
8
0
VERTEX
8
0
62
5
10
-0.038801034
20
0.33880917
30
0
70
32
0
VERTEX
8
0
62
5
10
-0.038801034
20
0.33880917
30
0
70
32
0
SEQEND
8
0
0
POLYLINE
8
0
62
5
66
1
10
0
20
0
30
0
70
8
0
VERTEX
8
0
62
5
10
-0.010516762
20
0.33880917
30
0
70
32
0
VERTEX
8
0
62
5
10
-0.010516762
20
0.33880917
30
0
70
32
0
SEQEND
8
0
0
POLYLINE
8
0
62
5
66
1
10
0
20
0
30
0
70
8
0
VERTEX
8
0
62
5
10
-0.067085305
20
0.37880917
30
0
70
32
0
VERTEX
8
0
62
5
10
-0.067085305
20
0.37880917
30
0
70
32
0
SEQEND
8
0
0
POLYLINE
8
0
62
5
66
1
10
0
20
0
30
0
70
8
0
VERTEX
8
0
62
5
10
-0.038801034
20
0.37880917
30
0
70
32
0
VERTEX
8
0
62
5
10
-0.038801034
20
0.37880917
30
0
70
32
0
SEQEND
8
0
0
POLYLINE
8
0
62
5
66
1
10
0
20
0
30
0
70
8
0
VERTEX
8
0
62
5
10
-0.010516762
20
0.37880917
30
0
70
32
0
VERTEX
8
0
62
5
10
-0.010516762
20
0.37880917
30
0
70
32
0
SEQEND
8
0
0
POLYLINE
8
0
62
30
66
1
10
0
20
0
30
0
70
8
0
VERTEX
8
0
62
30
10
-0.095369576
20
0.37880917
30
0
70
32
0
VERTEX
8
0
62
30
10
-0.067085305
20
0.33880917
30
0
70
32
0
SEQEND
8
0
0
POLYLINE
8
0
62
30
66
1
10
0
20
0
30
0
70
8
0
VERTEX
8
0
62
30
10
-0.067085305
20
0.37880917
30
0
70
32
0
VERTEX
8
0
62
30
10
-0.095369576
20
0.33880917
30
0
70
32
0
SEQEND
8
0
0
POLYLINE
8
0
62
30
66
1
10
0
20
0
30
0
70
8
0
VERTEX
8
0
62
30
10
-0.038801034
20
0.37880917
30
0
70
32
0
VERTEX
8
0
62
30
10
-0.010516762
20
0.33880917
30
0
70
32
0
SEQEND
8
0
0
POLYLINE
8
0
62
30
66
1
10
0
20
0
30
0
70
8
0
VERTEX
8
0
62
30
10
-0.010516762
20
0.37880917
30
0
70
32
0
VERTEX
8
0
62
30
10
-0.038801034
20
0.33880917
30
0
70
32
0
SEQEND
8
0
0
POLYLINE
8
0
62
30
66
1
10
0
20
0
30
0
70
8
0
VERTEX
8
0
62
30
10
-0.067085305
20
0.35880917
30
0
70
32
0
VERTEX
8
0
62
30
10
-0.038801034
20
0.35880917
30
0
70
32
0
SEQEND
8
0
0
POLYLINE
8
0
62
30
66
1
10
0
20
0
30
0
70
8
0
VERTEX
8
0
62
30
10
-0.010516762
20
0.35880917
30
0
70
32
0
VERTEX
8
0
62
30
10
0.017767509
20
0.35880917
30
0
70
32
0
SEQEND
8
0
0
POLYLINE
8
0
62
5
66
1
10
0
20
0
30
0
70
8
0
VERTEX
8
0
62
5
10
-0.095369576
20
0.35880917
30
0
70
32
0
VERTEX
8
0
62
5
10
-0.08122744
20
0.35880917
30
0
70
32
0
SEQEND
8
0
0
POLYLINE
8
0
62
5
66
1
10
0
20
0
30
0
70
8
0
VERTEX
8
0
62
5
10
-0.038801034
20
0.35880917
30
0
70
32
0
VERTEX
8
0
62
5
10
-0.024658898
20
0.35880917
30
0
70
32
0
SEQEND
8
0
0
POLYLINE
8
0
62
5
66
1
10
0
20
0
30
0
70
8
0
VERTEX
8
0
62
5
10
-0.08122744
20
0.35880917
30
0
70
32
0
VERTEX
8
0
62
5
10
-0.067085305
20
0.35880917
30
0
70
32
0
SEQEND
8
0
0
POLYLINE
8
0
62
5
66
1
10
0
20
0
30
0
70
8
0
VERTEX
8
0
62
5
10
-0.024658898
20
0.35880917
30
0
70
32
0
VERTEX
8
0
62
5
10
-0.010516762
20
0.35880917
30
0
70
32
0
SEQEND
8
0
0
POLYLINE
8
0
62
5
66
1
10
0
20
0
30
0
70
8
0
VERTEX
8
0
62
5
10
-0.067085305
20
0.33880917
30
0
70
32
0
VERTEX
8
0
62
5
10
-0.067085305
20
0.37880917
30
0
70
32
0
SEQEND
8
0
0
POLYLINE
8
0
62
5
66
1
10
0
20
0
30
0
70
8
0
VERTEX
8
0
62
5
10
-0.038801034
20
0.33880917
30
0
70
32
0
VERTEX
8
0
62
5
10
-0.038801034
20
0.37880917
30
0
70
32
0
SEQEND
8
0
0
POLYLINE
8
0
62
5
66
1
10
0
20
0
30
0
70
8
0
VERTEX
8
0
62
5
10
-0.010516762
20
0.33880917
30
0
70
32
0
VERTEX
8
0
62
5
10
-0.010516762
20
0.37880917
30
0
70
32
0
SEQEND
8
0
0
POLYLINE
8
0
62
5
66
1
10
0
20
0
30
0
70
8
0
VERTEX
8
0
62
5
10
-0.095369576
20
0.33880917
30
0
70
32
0
VERTEX
8
0
62
5
10
-0.095369576
20
0.37880917
30
0
70
32
0
SEQEND
8
0
0
POLYLINE
8
0
62
5
66
1
10
0
20
0
30
0
70
8
0
VERTEX
8
0
62
5
10
0.017767509
20
0.37880917
30
0
70
32
0
VERTEX
8
0
62
5
10
0.017767509
20
0.40709345
30
0
70
32
0
SEQEND
8
0
0
POLYLINE
8
0
62
5
66
1
10
0
20
0
30
0
70
8
0
VERTEX
8
0
62
5
10
0.13090459
20
0.40709345
30
0
70
32
0
VERTEX
8
0
62
5
10
0.13090459
20
0.37880917
30
0
70
32
0
SEQEND
8
0
0
POLYLINE
8
0
62
5
66
1
10
0
20
0
30
0
70
8
0
VERTEX
8
0
62
5
10
0.017767509
20
0.38123558
30
0
70
32
0
VERTEX
8
0
62
5
10
0.04605178
20
0.38123558
30
0
70
32
0
VERTEX
8
0
62
5
10
0.074336051
20
0.39295131
30
0
70
32
0
VERTEX
8
0
62
5
10
0.10262032
20
0.39295131
30
0
70
32
0
VERTEX
8
0
62
5
10
0.13090459
20
0.38123558
30
0
70
32
0
SEQEND
8
0
0
POLYLINE
8
0
62
5
66
1
10
0
20
0
30
0
70
8
0
SEQEND
8
0
0
POLYLINE
8
0
62
5
66
1
10
0
20
0
30
0
70
8
0
VERTEX
8
0
62
5
10
0.017767509
20
0.40466704
30
0
70
32
0
VERTEX
8
0
62
5
10
0.04605178
20
0.40466704
30
0
70
32
0
VERTEX
8
0
62
5
10
0.074336051
20
0.39295131
30
0
70
32
0
VERTEX
8
0
62
5
10
0.10262032
20
0.39295131
30
0
70
32
0
VERTEX
8
0
62
5
10
0.13090459
20
0.40466704
30
0
70
32
0
SEQEND
8
0
0
POLYLINE
8
0
62
30
66
1
10
0
20
0
30
0
70
8
0
VERTEX
8
0
62
30
10
0.017767509
20
0.39295131
30
0
70
32
0
VERTEX
8
0
62
30
10
0.13090459
20
0.39295131
30
0
70
32
0
SEQEND
8
0
0
POLYLINE
8
0
62
30
66
1
10
0
20
0
30
0
70
8
0
VERTEX
8
0
62
30
10
0.04605178
20
0.38123558
30
0
70
32
0
VERTEX
8
0
62
30
10
0.04605178
20
0.39295131
30
0
70
32
0
SEQEND
8
0
0
POLYLINE
8
0
62
30
66
1
10
0
20
0
30
0
70
8
0
VERTEX
8
0
62
30
10
0.074336051
20
0.39295131
30
0
70
32
0
VERTEX
8
0
62
30
10
0.074336051
20
0.39295131
30
0
70
32
0
SEQEND
8
0
0
POLYLINE
8
0
62
30
66
1
10
0
20
0
30
0
70
8
0
VERTEX
8
0
62
30
10
0.10262032
20
0.39295131
30
0
70
32
0
VERTEX
8
0
62
30
10
0.10262032
20
0.39295131
30
0
70
32
0
SEQEND
8
0
0
POLYLINE
8
0
62
5
66
1
10
0
20
0
30
0
70
8
0
VERTEX
8
0
62
5
10
0.04605178
20
0.37880917
30
0
70
32
0
VERTEX
8
0
62
5
10
0.04605178
20
0.38123558
30
0
70
32
0
SEQEND
8
0
0
POLYLINE
8
0
62
5
66
1
10
0
20
0
30
0
70
8
0
VERTEX
8
0
62
5
10
0.074336051
20
0.37880917
30
0
70
32
0
VERTEX
8
0
62
5
10
0.074336051
20
0.39295131
30
0
70
32
0
SEQEND
8
0
0
POLYLINE
8
0
62
5
66
1
10
0
20
0
30
0
70
8
0
VERTEX
8
0
62
5
10
0.10262032
20
0.37880917
30
0
70
32
0
VERTEX
8
0
62
5
10
0.10262032
20
0.39295131
30
0
70
32
0
SEQEND
8
0
0
POLYLINE
8
0
62
5
66
1
10
0
20
0
30
0
70
8
0
VERTEX
8
0
62
5
10
0.04605178
20
0.39295131
30
0
70
32
0
VERTEX
8
0
62
5
10
0.04605178
20
0.40709345
30
0
70
32
0
SEQEND
8
0
0
POLYLINE
8
0
62
5
66
1
10
0
20
0
30
0
70
8
0
VERTEX
8
0
62
5
10
0.074336051
20
0.39295131
30
0
70
32
0
VERTEX
8
0
62
5
10
0.074336051
20
0.40709345
30
0
70
32
0
SEQEND
8
0
0
POLYLINE
8
0
62
5
66
1
10
0
20
0
30
0
70
8
0
VERTEX
8
0
62
5
10
0.10262032
20
0.39295131
30
0
70
32
0
VERTEX
8
0
62
5
10
0.10262032
20
0.40709345
30
0
70
32
0
SEQEND
8
0
0
POLYLINE
8
0
62
5
66
1
10
0
20
0
30
0
70
8
0
VERTEX
8
0
62
5
10
0.24404168
20
0.40709345
30
0
70
32
0
VERTEX
8
0
62
5
10
0.24404168
20
0.37880917
30
0
70
32
0
SEQEND
8
0
0
POLYLINE
8
0
62
5
66
1
10
0
20
0
30
0
70
8
0
VERTEX
8
0
62
5
10
0.13090459
20
0.38123558
30
0
70
32
0
VERTEX
8
0
62
5
10
0.15918887
20
0.38123558
30
0
70
32
0
VERTEX
8
0
62
5
10
0.18747314
20
0.39295131
30
0
70
32
0
VERTEX
8
0
62
5
10
0.21575741
20
0.39295131
30
0
70
32
0
VERTEX
8
0
62
5
10
0.24404168
20
0.38123558
30
0
70
32
0
SEQEND
8
0
0
POLYLINE
8
0
62
5
66
1
10
0
20
0
30
0
70
8
0
SEQEND
8
0
0
POLYLINE
8
0
62
5
66
1
10
0
20
0
30
0
70
8
0
VERTEX
8
0
62
5
10
0.13090459
20
0.40466704
30
0
70
32
0
VERTEX
8
0
62
5
10
0.15918887
20
0.40466704
30
0
70
32
0
VERTEX
8
0
62
5
10
0.18747314
20
0.39295131
30
0
70
32
0
VERTEX
8
0
62
5
10
0.21575741
20
0.39295131
30
0
70
32
0
VERTEX
8
0
62
5
10
0.24404168
20
0.40466704
30
0
70
32
0
SEQEND
8
0
0
POLYLINE
8
0
62
30
66
1
10
0
20
0
30
0
70
8
0
VERTEX
8
0
62
30
10
0.13090459
20
0.39295131
30
0
70
32
0
VERTEX
8
0
62
30
10
0.24404168
20
0.39295131
30
0
70
32
0
SEQEND
8
0
0
POLYLINE
8
0
62
30
66
1
10
0
20
0
30
0
70
8
0
VERTEX
8
0
62
30
10
0.15918887
20
0.38123558
30
0
70
32
0
VERTEX
8
0
62
30
10
0.15918887
20
0.39295131
30
0
70
32
0
SEQEND
8
0
0
POLYLINE
8
0
62
30
66
1
10
0
20
0
30
0
70
8
0
VERTEX
8
0
62
30
10
0.18747314
20
0.39295131
30
0
70
32
0
VERTEX
8
0
62
30
10
0.18747314
20
0.39295131
30
0
70
32
0
SEQEND
8
0
0
POLYLINE
8
0
62
30
66
1
10
0
20
0
30
0
70
8
0
VERTEX
8
0
62
30
10
0.21575741
20
0.39295131
30
0
70
32
0
VERTEX
8
0
62
30
10
0.21575741
20
0.39295131
30
0
70
32
0
SEQEND
8
0
0
POLYLINE
8
0
62
5
66
1
10
0
20
0
30
0
70
8
0
VERTEX
8
0
62
5
10
0.15918887
20
0.37880917
30
0
70
32
0
VERTEX
8
0
62
5
10
0.15918887
20
0.38123558
30
0
70
32
0
SEQEND
8
0
0
POLYLINE
8
0
62
5
66
1
10
0
20
0
30
0
70
8
0
VERTEX
8
0
62
5
10
0.18747314
20
0.37880917
30
0
70
32
0
VERTEX
8
0
62
5
10
0.18747314
20
0.39295131
30
0
70
32
0
SEQEND
8
0
0
POLYLINE
8
0
62
5
66
1
10
0
20
0
30
0
70
8
0
VERTEX
8
0
62
5
10
0.21575741
20
0.37880917
30
0
70
32
0
VERTEX
8
0
62
5
10
0.21575741
20
0.39295131
30
0
70
32
0
SEQEND
8
0
0
POLYLINE
8
0
62
5
66
1
10
0
20
0
30
0
70
8
0
VERTEX
8
0
62
5
10
0.15918887
20
0.39295131
30
0
70
32
0
VERTEX
8
0
62
5
10
0.15918887
20
0.40709345
30
0
70
32
0
SEQEND
8
0
0
POLYLINE
8
0
62
5
66
1
10
0
20
0
30
0
70
8
0
VERTEX
8
0
62
5
10
0.18747314
20
0.39295131
30
0
70
32
0
VERTEX
8
0
62
5
10
0.18747314
20
0.40709345
30
0
70
32
0
SEQEND
8
0
0
POLYLINE
8
0
62
5
66
1
10
0
20
0
30
0
70
8
0
VERTEX
8
0
62
5
10
0.21575741
20
0.39295131
30
0
70
32
0
VERTEX
8
0
62
5
10
0.21575741
20
0.40709345
30
0
70
32
0
SEQEND
8
0
0
POLYLINE
8
0
62
5
66
1
10
0
20
0
30
0
70
8
0
VERTEX
8
0
62
5
10
-0.095369576
20
0.37880917
30
0
70
32
0
VERTEX
8
0
62
5
10
-0.095369576
20
0.40709345
30
0
70
32
0
SEQEND
8
0
0
POLYLINE
8
0
62
5
66
1
10
0
20
0
30
0
70
8
0
VERTEX
8
0
62
5
10
-0.095369576
20
0.38123558
30
0
70
32
0
VERTEX
8
0
62
5
10
-0.067085305
20
0.38123558
30
0
70
32
0
VERTEX
8
0
62
5
10
-0.038801034
20
0.39295131
30
0
70
32
0
VERTEX
8
0
62
5
10
-0.010516762
20
0.39295131
30
0
70
32
0
VERTEX
8
0
62
5
10
0.017767509
20
0.38123558
30
0
70
32
0
SEQEND
8
0
0
POLYLINE
8
0
62
5
66
1
10
0
20
0
30
0
70
8
0
SEQEND
8
0
0
POLYLINE
8
0
62
5
66
1
10
0
20
0
30
0
70
8
0
VERTEX
8
0
62
5
10
-0.095369576
20
0.40466704
30
0
70
32
0
VERTEX
8
0
62
5
10
-0.067085305
20
0.40466704
30
0
70
32
0
VERTEX
8
0
62
5
10
-0.038801034
20
0.39295131
30
0
70
32
0
VERTEX
8
0
62
5
10
-0.010516762
20
0.39295131
30
0
70
32
0
VERTEX
8
0
62
5
10
0.017767509
20
0.40466704
30
0
70
32
0
SEQEND
8
0
0
POLYLINE
8
0
62
30
66
1
10
0
20
0
30
0
70
8
0
VERTEX
8
0
62
30
10
-0.095369576
20
0.39295131
30
0
70
32
0
VERTEX
8
0
62
30
10
0.017767509
20
0.39295131
30
0
70
32
0
SEQEND
8
0
0
POLYLINE
8
0
62
30
66
1
10
0
20
0
30
0
70
8
0
VERTEX
8
0
62
30
10
-0.067085305
20
0.38123558
30
0
70
32
0
VERTEX
8
0
62
30
10
-0.067085305
20
0.39295131
30
0
70
32
0
SEQEND
8
0
0
POLYLINE
8
0
62
30
66
1
10
0
20
0
30
0
70
8
0
VERTEX
8
0
62
30
10
-0.038801034
20
0.39295131
30
0
70
32
0
VERTEX
8
0
62
30
10
-0.038801034
20
0.39295131
30
0
70
32
0
SEQEND
8
0
0
POLYLINE
8
0
62
30
66
1
10
0
20
0
30
0
70
8
0
VERTEX
8
0
62
30
10
-0.010516762
20
0.39295131
30
0
70
32
0
VERTEX
8
0
62
30
10
-0.010516762
20
0.39295131
30
0
70
32
0
SEQEND
8
0
0
POLYLINE
8
0
62
5
66
1
10
0
20
0
30
0
70
8
0
VERTEX
8
0
62
5
10
-0.067085305
20
0.37880917
30
0
70
32
0
VERTEX
8
0
62
5
10
-0.067085305
20
0.38123558
30
0
70
32
0
SEQEND
8
0
0
POLYLINE
8
0
62
5
66
1
10
0
20
0
30
0
70
8
0
VERTEX
8
0
62
5
10
-0.038801034
20
0.37880917
30
0
70
32
0
VERTEX
8
0
62
5
10
-0.038801034
20
0.39295131
30
0
70
32
0
SEQEND
8
0
0
POLYLINE
8
0
62
5
66
1
10
0
20
0
30
0
70
8
0
VERTEX
8
0
62
5
10
-0.010516762
20
0.37880917
30
0
70
32
0
VERTEX
8
0
62
5
10
-0.010516762
20
0.39295131
30
0
70
32
0
SEQEND
8
0
0
POLYLINE
8
0
62
5
66
1
10
0
20
0
30
0
70
8
0
VERTEX
8
0
62
5
10
-0.067085305
20
0.39295131
30
0
70
32
0
VERTEX
8
0
62
5
10
-0.067085305
20
0.40709345
30
0
70
32
0
SEQEND
8
0
0
POLYLINE
8
0
62
5
66
1
10
0
20
0
30
0
70
8
0
VERTEX
8
0
62
5
10
-0.038801034
20
0.39295131
30
0
70
32
0
VERTEX
8
0
62
5
10
-0.038801034
20
0.40709345
30
0
70
32
0
SEQEND
8
0
0
POLYLINE
8
0
62
5
66
1
10
0
20
0
30
0
70
8
0
VERTEX
8
0
62
5
10
-0.010516762
20
0.39295131
30
0
70
32
0
VERTEX
8
0
62
5
10
-0.010516762
20
0.40709345
30
0
70
32
0
SEQEND
8
0
0
POLYLINE
8
0
62
5
66
1
10
0
20
0
30
0
70
8
0
VERTEX
8
0
62
5
10
0.017767509
20
0.40709345
30
0
70
32
0
VERTEX
8
0
62
5
10
0.017767509
20
0.41157873
30
0
70
32
0
SEQEND
8
0
0
POLYLINE
8
0
62
5
66
1
10
0
20
0
30
0
70
8
0
VERTEX
8
0
62
5
10
0.04605178
20
0.40709345
30
0
70
32
0
VERTEX
8
0
62
5
10
0.04605178
20
0.41157873
30
0
70
32
0
SEQEND
8
0
0
POLYLINE
8
0
62
5
66
1
10
0
20
0
30
0
70
8
0
VERTEX
8
0
62
5
10
0.074336051
20
0.40709345
30
0
70
32
0
VERTEX
8
0
62
5
10
0.074336051
20
0.41157873
30
0
70
32
0
SEQEND
8
0
0
POLYLINE
8
0
62
5
66
1
10
0
20
0
30
0
70
8
0
VERTEX
8
0
62
5
10
0.10262032
20
0.40709345
30
0
70
32
0
VERTEX
8
0
62
5
10
0.10262032
20
0.41157873
30
0
70
32
0
SEQEND
8
0
0
POLYLINE
8
0
62
5
66
1
10
0
20
0
30
0
70
8
0
VERTEX
8
0
62
5
10
0.13090459
20
0.40709345
30
0
70
32
0
VERTEX
8
0
62
5
10
0.13090459
20
0.41157873
30
0
70
32
0
SEQEND
8
0
0
POLYLINE
8
0
62
5
66
1
10
0
20
0
30
0
70
8
0
VERTEX
8
0
62
5
10
0.04605178
20
0.40709345
30
0
70
32
0
VERTEX
8
0
62
5
10
0.04605178
20
0.40709345
30
0
70
32
0
SEQEND
8
0
0
POLYLINE
8
0
62
5
66
1
10
0
20
0
30
0
70
8
0
VERTEX
8
0
62
5
10
0.074336051
20
0.40709345
30
0
70
32
0
VERTEX
8
0
62
5
10
0.074336051
20
0.40709345
30
0
70
32
0
SEQEND
8
0
0
POLYLINE
8
0
62
5
66
1
10
0
20
0
30
0
70
8
0
VERTEX
8
0
62
5
10
0.10262032
20
0.40709345
30
0
70
32
0
VERTEX
8
0
62
5
10
0.10262032
20
0.40709345
30
0
70
32
0
SEQEND
8
0
0
POLYLINE
8
0
62
5
66
1
10
0
20
0
30
0
70
8
0
VERTEX
8
0
62
5
10
0.01776751
20
0.41157873
30
0
70
32
0
VERTEX
8
0
62
5
10
0.01776751
20
0.41157873
30
0
70
32
0
SEQEND
8
0
0
POLYLINE
8
0
62
5
66
1
10
0
20
0
30
0
70
8
0
VERTEX
8
0
62
5
10
0.046051781
20
0.41157873
30
0
70
32
0
VERTEX
8
0
62
5
10
0.046051781
20
0.41157873
30
0
70
32
0
SEQEND
8
0
0
POLYLINE
8
0
62
5
66
1
10
0
20
0
30
0
70
8
0
VERTEX
8
0
62
5
10
0.074336053
20
0.41157873
30
0
70
32
0
VERTEX
8
0
62
5
10
0.074336053
20
0.41157873
30
0
70
32
0
SEQEND
8
0
0
POLYLINE
8
0
62
5
66
1
10
0
20
0
30
0
70
8
0
VERTEX
8
0
62
5
10
0.10262032
20
0.41157873
30
0
70
32
0
VERTEX
8
0
62
5
10
0.10262032
20
0.41157873
30
0
70
32
0
SEQEND
8
0
0
POLYLINE
8
0
62
5
66
1
10
0
20
0
30
0
70
8
0
VERTEX
8
0
62
5
10
0.15918887
20
0.40709345
30
0
70
32
0
VERTEX
8
0
62
5
10
0.15918887
20
0.41157873
30
0
70
32
0
SEQEND
8
0
0
POLYLINE
8
0
62
5
66
1
10
0
20
0
30
0
70
8
0
VERTEX
8
0
62
5
10
0.18747314
20
0.40709345
30
0
70
32
0
VERTEX
8
0
62
5
10
0.18747314
20
0.41157873
30
0
70
32
0
SEQEND
8
0
0
POLYLINE
8
0
62
5
66
1
10
0
20
0
30
0
70
8
0
VERTEX
8
0
62
5
10
0.21575741
20
0.40709345
30
0
70
32
0
VERTEX
8
0
62
5
10
0.21575741
20
0.41157873
30
0
70
32
0
SEQEND
8
0
0
POLYLINE
8
0
62
5
66
1
10
0
20
0
30
0
70
8
0
VERTEX
8
0
62
5
10
0.24404168
20
0.40709345
30
0
70
32
0
VERTEX
8
0
62
5
10
0.24404168
20
0.41157873
30
0
70
32
0
SEQEND
8
0
0
POLYLINE
8
0
62
5
66
1
10
0
20
0
30
0
70
8
0
VERTEX
8
0
62
5
10
0.15918887
20
0.40709345
30
0
70
32
0
VERTEX
8
0
62
5
10
0.15918887
20
0.40709345
30
0
70
32
0
SEQEND
8
0
0
POLYLINE
8
0
62
5
66
1
10
0
20
0
30
0
70
8
0
VERTEX
8
0
62
5
10
0.18747314
20
0.40709345
30
0
70
32
0
VERTEX
8
0
62
5
10
0.18747314
20
0.40709345
30
0
70
32
0
SEQEND
8
0
0
POLYLINE
8
0
62
5
66
1
10
0
20
0
30
0
70
8
0
VERTEX
8
0
62
5
10
0.21575741
20
0.40709345
30
0
70
32
0
VERTEX
8
0
62
5
10
0.21575741
20
0.40709345
30
0
70
32
0
SEQEND
8
0
0
POLYLINE
8
0
62
5
66
1
10
0
20
0
30
0
70
8
0
VERTEX
8
0
62
5
10
0.1309046
20
0.41157873
30
0
70
32
0
VERTEX
8
0
62
5
10
0.1309046
20
0.41157873
30
0
70
32
0
SEQEND
8
0
0
POLYLINE
8
0
62
5
66
1
10
0
20
0
30
0
70
8
0
VERTEX
8
0
62
5
10
0.15918887
20
0.41157873
30
0
70
32
0
VERTEX
8
0
62
5
10
0.15918887
20
0.41157873
30
0
70
32
0
SEQEND
8
0
0
POLYLINE
8
0
62
5
66
1
10
0
20
0
30
0
70
8
0
VERTEX
8
0
62
5
10
0.18747314
20
0.41157873
30
0
70
32
0
VERTEX
8
0
62
5
10
0.18747314
20
0.41157873
30
0
70
32
0
SEQEND
8
0
0
POLYLINE
8
0
62
5
66
1
10
0
20
0
30
0
70
8
0
VERTEX
8
0
62
5
10
0.21575741
20
0.41157873
30
0
70
32
0
VERTEX
8
0
62
5
10
0.21575741
20
0.41157873
30
0
70
32
0
SEQEND
8
0
0
POLYLINE
8
0
62
5
66
1
10
0
20
0
30
0
70
8
0
VERTEX
8
0
62
5
10
-0.067085305
20
0.40709345
30
0
70
32
0
VERTEX
8
0
62
5
10
-0.067085305
20
0.41157873
30
0
70
32
0
SEQEND
8
0
0
POLYLINE
8
0
62
5
66
1
10
0
20
0
30
0
70
8
0
VERTEX
8
0
62
5
10
-0.038801034
20
0.40709345
30
0
70
32
0
VERTEX
8
0
62
5
10
-0.038801034
20
0.41157873
30
0
70
32
0
SEQEND
8
0
0
POLYLINE
8
0
62
5
66
1
10
0
20
0
30
0
70
8
0
VERTEX
8
0
62
5
10
-0.010516762
20
0.40709345
30
0
70
32
0
VERTEX
8
0
62
5
10
-0.010516762
20
0.41157873
30
0
70
32
0
SEQEND
8
0
0
POLYLINE
8
0
62
5
66
1
10
0
20
0
30
0
70
8
0
VERTEX
8
0
62
5
10
0.017767509
20
0.40709345
30
0
70
32
0
VERTEX
8
0
62
5
10
0.017767509
20
0.41157873
30
0
70
32
0
SEQEND
8
0
0
POLYLINE
8
0
62
5
66
1
10
0
20
0
30
0
70
8
0
VERTEX
8
0
62
5
10
-0.067085305
20
0.40709345
30
0
70
32
0
VERTEX
8
0
62
5
10
-0.067085305
20
0.40709345
30
0
70
32
0
SEQEND
8
0
0
POLYLINE
8
0
62
5
66
1
10
0
20
0
30
0
70
8
0
VERTEX
8
0
62
5
10
-0.038801034
20
0.40709345
30
0
70
32
0
VERTEX
8
0
62
5
10
-0.038801034
20
0.40709345
30
0
70
32
0
SEQEND
8
0
0
POLYLINE
8
0
62
5
66
1
10
0
20
0
30
0
70
8
0
VERTEX
8
0
62
5
10
-0.010516762
20
0.40709345
30
0
70
32
0
VERTEX
8
0
62
5
10
-0.010516762
20
0.40709345
30
0
70
32
0
SEQEND
8
0
0
POLYLINE
8
0
62
5
66
1
10
0
20
0
30
0
70
8
0
VERTEX
8
0
62
5
10
-0.095369575
20
0.41157873
30
0
70
32
0
VERTEX
8
0
62
5
10
-0.095369575
20
0.41157873
30
0
70
32
0
SEQEND
8
0
0
POLYLINE
8
0
62
5
66
1
10
0
20
0
30
0
70
8
0
VERTEX
8
0
62
5
10
-0.067085304
20
0.41157873
30
0
70
32
0
VERTEX
8
0
62
5
10
-0.067085304
20
0.41157873
30
0
70
32
0
SEQEND
8
0
0
POLYLINE
8
0
62
5
66
1
10
0
20
0
30
0
70
8
0
VERTEX
8
0
62
5
10
-0.038801032
20
0.41157873
30
0
70
32
0
VERTEX
8
0
62
5
10
-0.038801032
20
0.41157873
30
0
70
32
0
SEQEND
8
0
0
POLYLINE
8
0
62
5
66
1
10
0
20
0
30
0
70
8
0
VERTEX
8
0
62
5
10
-0.010516761
20
0.41157873
30
0
70
32
0
VERTEX
8
0
62
5
10
-0.010516761
20
0.41157873
30
0
70
32
0
SEQEND
8
0
0
POLYLINE
8
0
62
5
66
1
10
0
20
0
30
0
70
8
0
VERTEX
8
0
62
5
10
0.01776751
20
0.41157873
30
0
70
32
0
VERTEX
8
0
62
5
10
0.01776751
20
0.42951986
30
0
70
32
0
SEQEND
8
0
0
POLYLINE
8
0
62
5
66
1
10
0
20
0
30
0
70
8
0
VERTEX
8
0
62
5
10
0.1309046
20
0.41157873
30
0
70
32
0
VERTEX
8
0
62
5
10
0.1309046
20
0.42951986
30
0
70
32
0
SEQEND
8
0
0
POLYLINE
8
0
62
5
66
1
10
0
20
0
30
0
70
8
0
VERTEX
8
0
62
5
10
0.046051781
20
0.41157873
30
0
70
32
0
VERTEX
8
0
62
5
10
0.046051781
20
0.42951986
30
0
70
32
0
SEQEND
8
0
0
POLYLINE
8
0
62
5
66
1
10
0
20
0
30
0
70
8
0
VERTEX
8
0
62
5
10
0.074336053
20
0.41157873
30
0
70
32
0
VERTEX
8
0
62
5
10
0.074336053
20
0.42951986
30
0
70
32
0
SEQEND
8
0
0
POLYLINE
8
0
62
5
66
1
10
0
20
0
30
0
70
8
0
VERTEX
8
0
62
5
10
0.10262032
20
0.41157873
30
0
70
32
0
VERTEX
8
0
62
5
10
0.10262032
20
0.42951986
30
0
70
32
0
SEQEND
8
0
0
POLYLINE
8
0
62
5
66
1
10
0
20
0
30
0
70
8
0
VERTEX
8
0
62
5
10
0.24404168
20
0.41157873
30
0
70
32
0
VERTEX
8
0
62
5
10
0.24404168
20
0.42951986
30
0
70
32
0
SEQEND
8
0
0
POLYLINE
8
0
62
5
66
1
10
0
20
0
30
0
70
8
0
VERTEX
8
0
62
5
10
0.15918887
20
0.41157873
30
0
70
32
0
VERTEX
8
0
62
5
10
0.15918887
20
0.42951986
30
0
70
32
0
SEQEND
8
0
0
POLYLINE
8
0
62
5
66
1
10
0
20
0
30
0
70
8
0
VERTEX
8
0
62
5
10
0.18747314
20
0.41157873
30
0
70
32
0
VERTEX
8
0
62
5
10
0.18747314
20
0.42951986
30
0
70
32
0
SEQEND
8
0
0
POLYLINE
8
0
62
5
66
1
10
0
20
0
30
0
70
8
0
VERTEX
8
0
62
5
10
0.21575741
20
0.41157873
30
0
70
32
0
VERTEX
8
0
62
5
10
0.21575741
20
0.42951986
30
0
70
32
0
SEQEND
8
0
0
POLYLINE
8
0
62
5
66
1
10
0
20
0
30
0
70
8
0
VERTEX
8
0
62
5
10
-0.095369575
20
0.41157873
30
0
70
32
0
VERTEX
8
0
62
5
10
-0.095369575
20
0.42951986
30
0
70
32
0
SEQEND
8
0
0
POLYLINE
8
0
62
5
66
1
10
0
20
0
30
0
70
8
0
VERTEX
8
0
62
5
10
-0.067085304
20
0.41157873
30
0
70
32
0
VERTEX
8
0
62
5
10
-0.067085304
20
0.42951986
30
0
70
32
0
SEQEND
8
0
0
POLYLINE
8
0
62
5
66
1
10
0
20
0
30
0
70
8
0
VERTEX
8
0
62
5
10
-0.038801032
20
0.41157873
30
0
70
32
0
VERTEX
8
0
62
5
10
-0.038801032
20
0.42951986
30
0
70
32
0
SEQEND
8
0
0
POLYLINE
8
0
62
5
66
1
10
0
20
0
30
0
70
8
0
VERTEX
8
0
62
5
10
-0.010516761
20
0.41157873
30
0
70
32
0
VERTEX
8
0
62
5
10
-0.010516761
20
0.42951986
30
0
70
32
0
SEQEND
8
0
0
POLYLINE
8
0
62
5
66
1
10
0
20
0
30
0
70
8
0
VERTEX
8
0
62
5
10
0.01776751
20
0.42951986
30
0
70
32
0
VERTEX
8
0
62
5
10
0.01776751
20
0.45780413
30
0
70
32
0
SEQEND
8
0
0
POLYLINE
8
0
62
5
66
1
10
0
20
0
30
0
70
8
0
VERTEX
8
0
62
5
10
0.1309046
20
0.45780413
30
0
70
32
0
VERTEX
8
0
62
5
10
0.1309046
20
0.42951986
30
0
70
32
0
SEQEND
8
0
0
POLYLINE
8
0
62
5
66
1
10
0
20
0
30
0
70
8
0
VERTEX
8
0
62
5
10
0.01776751
20
0.43194626
30
0
70
32
0
VERTEX
8
0
62
5
10
0.046051781
20
0.43194626
30
0
70
32
0
VERTEX
8
0
62
5
10
0.074336053
20
0.44366199
30
0
70
32
0
VERTEX
8
0
62
5
10
0.10262032
20
0.44366199
30
0
70
32
0
VERTEX
8
0
62
5
10
0.1309046
20
0.43194626
30
0
70
32
0
SEQEND
8
0
0
POLYLINE
8
0
62
5
66
1
10
0
20
0
30
0
70
8
0
SEQEND
8
0
0
POLYLINE
8
0
62
5
66
1
10
0
20
0
30
0
70
8
0
VERTEX
8
0
62
5
10
0.01776751
20
0.45537772
30
0
70
32
0
VERTEX
8
0
62
5
10
0.046051781
20
0.45537772
30
0
70
32
0
VERTEX
8
0
62
5
10
0.074336053
20
0.44366199
30
0
70
32
0
VERTEX
8
0
62
5
10
0.10262032
20
0.44366199
30
0
70
32
0
VERTEX
8
0
62
5
10
0.1309046
20
0.45537772
30
0
70
32
0
SEQEND
8
0
0
POLYLINE
8
0
62
30
66
1
10
0
20
0
30
0
70
8
0
VERTEX
8
0
62
30
10
0.01776751
20
0.44366199
30
0
70
32
0
VERTEX
8
0
62
30
10
0.1309046
20
0.44366199
30
0
70
32
0
SEQEND
8
0
0
POLYLINE
8
0
62
30
66
1
10
0
20
0
30
0
70
8
0
VERTEX
8
0
62
30
10
0.046051781
20
0.43194626
30
0
70
32
0
VERTEX
8
0
62
30
10
0.046051781
20
0.44366199
30
0
70
32
0
SEQEND
8
0
0
POLYLINE
8
0
62
30
66
1
10
0
20
0
30
0
70
8
0
VERTEX
8
0
62
30
10
0.074336053
20
0.44366199
30
0
70
32
0
VERTEX
8
0
62
30
10
0.074336053
20
0.44366199
30
0
70
32
0
SEQEND
8
0
0
POLYLINE
8
0
62
30
66
1
10
0
20
0
30
0
70
8
0
VERTEX
8
0
62
30
10
0.10262032
20
0.44366199
30
0
70
32
0
VERTEX
8
0
62
30
10
0.10262032
20
0.44366199
30
0
70
32
0
SEQEND
8
0
0
POLYLINE
8
0
62
5
66
1
10
0
20
0
30
0
70
8
0
VERTEX
8
0
62
5
10
0.046051781
20
0.42951986
30
0
70
32
0
VERTEX
8
0
62
5
10
0.046051781
20
0.43194626
30
0
70
32
0
SEQEND
8
0
0
POLYLINE
8
0
62
5
66
1
10
0
20
0
30
0
70
8
0
VERTEX
8
0
62
5
10
0.074336053
20
0.42951986
30
0
70
32
0
VERTEX
8
0
62
5
10
0.074336053
20
0.44366199
30
0
70
32
0
SEQEND
8
0
0
POLYLINE
8
0
62
5
66
1
10
0
20
0
30
0
70
8
0
VERTEX
8
0
62
5
10
0.10262032
20
0.42951986
30
0
70
32
0
VERTEX
8
0
62
5
10
0.10262032
20
0.44366199
30
0
70
32
0
SEQEND
8
0
0
POLYLINE
8
0
62
5
66
1
10
0
20
0
30
0
70
8
0
VERTEX
8
0
62
5
10
0.046051781
20
0.44366199
30
0
70
32
0
VERTEX
8
0
62
5
10
0.046051781
20
0.45780413
30
0
70
32
0
SEQEND
8
0
0
POLYLINE
8
0
62
5
66
1
10
0
20
0
30
0
70
8
0
VERTEX
8
0
62
5
10
0.074336053
20
0.44366199
30
0
70
32
0
VERTEX
8
0
62
5
10
0.074336053
20
0.45780413
30
0
70
32
0
SEQEND
8
0
0
POLYLINE
8
0
62
5
66
1
10
0
20
0
30
0
70
8
0
VERTEX
8
0
62
5
10
0.10262032
20
0.44366199
30
0
70
32
0
VERTEX
8
0
62
5
10
0.10262032
20
0.45780413
30
0
70
32
0
SEQEND
8
0
0
POLYLINE
8
0
62
5
66
1
10
0
20
0
30
0
70
8
0
VERTEX
8
0
62
5
10
0.24404168
20
0.45780413
30
0
70
32
0
VERTEX
8
0
62
5
10
0.24404168
20
0.42951986
30
0
70
32
0
SEQEND
8
0
0
POLYLINE
8
0
62
5
66
1
10
0
20
0
30
0
70
8
0
VERTEX
8
0
62
5
10
0.1309046
20
0.43194626
30
0
70
32
0
VERTEX
8
0
62
5
10
0.15918887
20
0.43194626
30
0
70
32
0
VERTEX
8
0
62
5
10
0.18747314
20
0.44366199
30
0
70
32
0
VERTEX
8
0
62
5
10
0.21575741
20
0.44366199
30
0
70
32
0
VERTEX
8
0
62
5
10
0.24404168
20
0.43194626
30
0
70
32
0
SEQEND
8
0
0
POLYLINE
8
0
62
5
66
1
10
0
20
0
30
0
70
8
0
SEQEND
8
0
0
POLYLINE
8
0
62
5
66
1
10
0
20
0
30
0
70
8
0
VERTEX
8
0
62
5
10
0.1309046
20
0.45537772
30
0
70
32
0
VERTEX
8
0
62
5
10
0.15918887
20
0.45537772
30
0
70
32
0
VERTEX
8
0
62
5
10
0.18747314
20
0.44366199
30
0
70
32
0
VERTEX
8
0
62
5
10
0.21575741
20
0.44366199
30
0
70
32
0
VERTEX
8
0
62
5
10
0.24404168
20
0.45537772
30
0
70
32
0
SEQEND
8
0
0
POLYLINE
8
0
62
30
66
1
10
0
20
0
30
0
70
8
0
VERTEX
8
0
62
30
10
0.1309046
20
0.44366199
30
0
70
32
0
VERTEX
8
0
62
30
10
0.24404168
20
0.44366199
30
0
70
32
0
SEQEND
8
0
0
POLYLINE
8
0
62
30
66
1
10
0
20
0
30
0
70
8
0
VERTEX
8
0
62
30
10
0.15918887
20
0.43194626
30
0
70
32
0
VERTEX
8
0
62
30
10
0.15918887
20
0.44366199
30
0
70
32
0
SEQEND
8
0
0
POLYLINE
8
0
62
30
66
1
10
0
20
0
30
0
70
8
0
VERTEX
8
0
62
30
10
0.18747314
20
0.44366199
30
0
70
32
0
VERTEX
8
0
62
30
10
0.18747314
20
0.44366199
30
0
70
32
0
SEQEND
8
0
0
POLYLINE
8
0
62
30
66
1
10
0
20
0
30
0
70
8
0
VERTEX
8
0
62
30
10
0.21575741
20
0.44366199
30
0
70
32
0
VERTEX
8
0
62
30
10
0.21575741
20
0.44366199
30
0
70
32
0
SEQEND
8
0
0
POLYLINE
8
0
62
5
66
1
10
0
20
0
30
0
70
8
0
VERTEX
8
0
62
5
10
0.15918887
20
0.42951986
30
0
70
32
0
VERTEX
8
0
62
5
10
0.15918887
20
0.43194626
30
0
70
32
0
SEQEND
8
0
0
POLYLINE
8
0
62
5
66
1
10
0
20
0
30
0
70
8
0
VERTEX
8
0
62
5
10
0.18747314
20
0.42951986
30
0
70
32
0
VERTEX
8
0
62
5
10
0.18747314
20
0.44366199
30
0
70
32
0
SEQEND
8
0
0
POLYLINE
8
0
62
5
66
1
10
0
20
0
30
0
70
8
0
VERTEX
8
0
62
5
10
0.21575741
20
0.42951986
30
0
70
32
0
VERTEX
8
0
62
5
10
0.21575741
20
0.44366199
30
0
70
32
0
SEQEND
8
0
0
POLYLINE
8
0
62
5
66
1
10
0
20
0
30
0
70
8
0
VERTEX
8
0
62
5
10
0.15918887
20
0.44366199
30
0
70
32
0
VERTEX
8
0
62
5
10
0.15918887
20
0.45780413
30
0
70
32
0
SEQEND
8
0
0
POLYLINE
8
0
62
5
66
1
10
0
20
0
30
0
70
8
0
VERTEX
8
0
62
5
10
0.18747314
20
0.44366199
30
0
70
32
0
VERTEX
8
0
62
5
10
0.18747314
20
0.45780413
30
0
70
32
0
SEQEND
8
0
0
POLYLINE
8
0
62
5
66
1
10
0
20
0
30
0
70
8
0
VERTEX
8
0
62
5
10
0.21575741
20
0.44366199
30
0
70
32
0
VERTEX
8
0
62
5
10
0.21575741
20
0.45780413
30
0
70
32
0
SEQEND
8
0
0
POLYLINE
8
0
62
5
66
1
10
0
20
0
30
0
70
8
0
VERTEX
8
0
62
5
10
-0.095369575
20
0.42951986
30
0
70
32
0
VERTEX
8
0
62
5
10
-0.095369575
20
0.45780413
30
0
70
32
0
SEQEND
8
0
0
POLYLINE
8
0
62
5
66
1
10
0
20
0
30
0
70
8
0
VERTEX
8
0
62
5
10
-0.095369575
20
0.43194626
30
0
70
32
0
VERTEX
8
0
62
5
10
-0.067085304
20
0.43194626
30
0
70
32
0
VERTEX
8
0
62
5
10
-0.038801032
20
0.44366199
30
0
70
32
0
VERTEX
8
0
62
5
10
-0.010516761
20
0.44366199
30
0
70
32
0
VERTEX
8
0
62
5
10
0.01776751
20
0.43194626
30
0
70
32
0
SEQEND
8
0
0
POLYLINE
8
0
62
5
66
1
10
0
20
0
30
0
70
8
0
SEQEND
8
0
0
POLYLINE
8
0
62
5
66
1
10
0
20
0
30
0
70
8
0
VERTEX
8
0
62
5
10
-0.095369575
20
0.45537772
30
0
70
32
0
VERTEX
8
0
62
5
10
-0.067085304
20
0.45537772
30
0
70
32
0
VERTEX
8
0
62
5
10
-0.038801032
20
0.44366199
30
0
70
32
0
VERTEX
8
0
62
5
10
-0.010516761
20
0.44366199
30
0
70
32
0
VERTEX
8
0
62
5
10
0.01776751
20
0.45537772
30
0
70
32
0
SEQEND
8
0
0
POLYLINE
8
0
62
30
66
1
10
0
20
0
30
0
70
8
0
VERTEX
8
0
62
30
10
-0.095369575
20
0.44366199
30
0
70
32
0
VERTEX
8
0
62
30
10
0.01776751
20
0.44366199
30
0
70
32
0
SEQEND
8
0
0
POLYLINE
8
0
62
30
66
1
10
0
20
0
30
0
70
8
0
VERTEX
8
0
62
30
10
-0.067085304
20
0.43194626
30
0
70
32
0
VERTEX
8
0
62
30
10
-0.067085304
20
0.44366199
30
0
70
32
0
SEQEND
8
0
0
POLYLINE
8
0
62
30
66
1
10
0
20
0
30
0
70
8
0
VERTEX
8
0
62
30
10
-0.038801032
20
0.44366199
30
0
70
32
0
VERTEX
8
0
62
30
10
-0.038801032
20
0.44366199
30
0
70
32
0
SEQEND
8
0
0
POLYLINE
8
0
62
30
66
1
10
0
20
0
30
0
70
8
0
VERTEX
8
0
62
30
10
-0.010516761
20
0.44366199
30
0
70
32
0
VERTEX
8
0
62
30
10
-0.010516761
20
0.44366199
30
0
70
32
0
SEQEND
8
0
0
POLYLINE
8
0
62
5
66
1
10
0
20
0
30
0
70
8
0
VERTEX
8
0
62
5
10
-0.067085304
20
0.42951986
30
0
70
32
0
VERTEX
8
0
62
5
10
-0.067085304
20
0.43194626
30
0
70
32
0
SEQEND
8
0
0
POLYLINE
8
0
62
5
66
1
10
0
20
0
30
0
70
8
0
VERTEX
8
0
62
5
10
-0.038801032
20
0.42951986
30
0
70
32
0
VERTEX
8
0
62
5
10
-0.038801032
20
0.44366199
30
0
70
32
0
SEQEND
8
0
0
POLYLINE
8
0
62
5
66
1
10
0
20
0
30
0
70
8
0
VERTEX
8
0
62
5
10
-0.010516761
20
0.42951986
30
0
70
32
0
VERTEX
8
0
62
5
10
-0.010516761
20
0.44366199
30
0
70
32
0
SEQEND
8
0
0
POLYLINE
8
0
62
5
66
1
10
0
20
0
30
0
70
8
0
VERTEX
8
0
62
5
10
-0.067085304
20
0.44366199
30
0
70
32
0
VERTEX
8
0
62
5
10
-0.067085304
20
0.45780413
30
0
70
32
0
SEQEND
8
0
0
POLYLINE
8
0
62
5
66
1
10
0
20
0
30
0
70
8
0
VERTEX
8
0
62
5
10
-0.038801032
20
0.44366199
30
0
70
32
0
VERTEX
8
0
62
5
10
-0.038801032
20
0.45780413
30
0
70
32
0
SEQEND
8
0
0
POLYLINE
8
0
62
5
66
1
10
0
20
0
30
0
70
8
0
VERTEX
8
0
62
5
10
-0.010516761
20
0.44366199
30
0
70
32
0
VERTEX
8
0
62
5
10
-0.010516761
20
0.45780413
30
0
70
32
0
SEQEND
8
0
0
POLYLINE
8
0
62
5
66
1
10
0
20
0
30
0
70
8
0
VERTEX
8
0
62
5
10
0.01776751
20
0.45780413
30
0
70
32
0
VERTEX
8
0
62
5
10
0.01776751
20
0.49780413
30
0
70
32
0
SEQEND
8
0
0
POLYLINE
8
0
62
5
66
1
10
0
20
0
30
0
70
8
0
VERTEX
8
0
62
5
10
0.1309046
20
0.49780413
30
0
70
32
0
VERTEX
8
0
62
5
10
0.1309046
20
0.45780413
30
0
70
32
0
SEQEND
8
0
0
POLYLINE
8
0
62
5
66
1
10
0
20
0
30
0
70
8
0
VERTEX
8
0
62
5
10
0.01776751
20
0.45780413
30
0
70
32
0
VERTEX
8
0
62
5
10
0.1309046
20
0.45780413
30
0
70
32
0
SEQEND
8
0
0
POLYLINE
8
0
62
5
66
1
10
0
20
0
30
0
70
8
0
VERTEX
8
0
62
5
10
0.01776751
20
0.49780413
30
0
70
32
0
VERTEX
8
0
62
5
10
0.1309046
20
0.49780413
30
0
70
32
0
SEQEND
8
0
0
POLYLINE
8
0
62
5
66
1
10
0
20
0
30
0
70
8
0
VERTEX
8
0
62
5
10
0.046051781
20
0.45780413
30
0
70
32
0
VERTEX
8
0
62
5
10
0.046051781
20
0.45780413
30
0
70
32
0
SEQEND
8
0
0
POLYLINE
8
0
62
5
66
1
10
0
20
0
30
0
70
8
0
VERTEX
8
0
62
5
10
0.074336053
20
0.45780413
30
0
70
32
0
VERTEX
8
0
62
5
10
0.074336053
20
0.45780413
30
0
70
32
0
SEQEND
8
0
0
POLYLINE
8
0
62
5
66
1
10
0
20
0
30
0
70
8
0
VERTEX
8
0
62
5
10
0.10262032
20
0.45780413
30
0
70
32
0
VERTEX
8
0
62
5
10
0.10262032
20
0.45780413
30
0
70
32
0
SEQEND
8
0
0
POLYLINE
8
0
62
5
66
1
10
0
20
0
30
0
70
8
0
VERTEX
8
0
62
5
10
0.046051781
20
0.49780413
30
0
70
32
0
VERTEX
8
0
62
5
10
0.046051781
20
0.49780413
30
0
70
32
0
SEQEND
8
0
0
POLYLINE
8
0
62
5
66
1
10
0
20
0
30
0
70
8
0
VERTEX
8
0
62
5
10
0.074336053
20
0.49780413
30
0
70
32
0
VERTEX
8
0
62
5
10
0.074336053
20
0.49780413
30
0
70
32
0
SEQEND
8
0
0
POLYLINE
8
0
62
5
66
1
10
0
20
0
30
0
70
8
0
VERTEX
8
0
62
5
10
0.10262032
20
0.49780413
30
0
70
32
0
VERTEX
8
0
62
5
10
0.10262032
20
0.49780413
30
0
70
32
0
SEQEND
8
0
0
POLYLINE
8
0
62
30
66
1
10
0
20
0
30
0
70
8
0
VERTEX
8
0
62
30
10
0.01776751
20
0.49780413
30
0
70
32
0
VERTEX
8
0
62
30
10
0.046051781
20
0.45780413
30
0
70
32
0
SEQEND
8
0
0
POLYLINE
8
0
62
30
66
1
10
0
20
0
30
0
70
8
0
VERTEX
8
0
62
30
10
0.046051781
20
0.49780413
30
0
70
32
0
VERTEX
8
0
62
30
10
0.01776751
20
0.45780413
30
0
70
32
0
SEQEND
8
0
0
POLYLINE
8
0
62
30
66
1
10
0
20
0
30
0
70
8
0
VERTEX
8
0
62
30
10
0.074336053
20
0.49780413
30
0
70
32
0
VERTEX
8
0
62
30
10
0.10262032
20
0.45780413
30
0
70
32
0
SEQEND
8
0
0
POLYLINE
8
0
62
30
66
1
10
0
20
0
30
0
70
8
0
VERTEX
8
0
62
30
10
0.10262032
20
0.49780413
30
0
70
32
0
VERTEX
8
0
62
30
10
0.074336053
20
0.45780413
30
0
70
32
0
SEQEND
8
0
0
POLYLINE
8
0
62
30
66
1
10
0
20
0
30
0
70
8
0
VERTEX
8
0
62
30
10
0.046051781
20
0.47780413
30
0
70
32
0
VERTEX
8
0
62
30
10
0.074336053
20
0.47780413
30
0
70
32
0
SEQEND
8
0
0
POLYLINE
8
0
62
30
66
1
10
0
20
0
30
0
70
8
0
VERTEX
8
0
62
30
10
0.10262032
20
0.47780413
30
0
70
32
0
VERTEX
8
0
62
30
10
0.1309046
20
0.47780413
30
0
70
32
0
SEQEND
8
0
0
POLYLINE
8
0
62
5
66
1
10
0
20
0
30
0
70
8
0
VERTEX
8
0
62
5
10
0.01776751
20
0.47780413
30
0
70
32
0
VERTEX
8
0
62
5
10
0.031909646
20
0.47780413
30
0
70
32
0
SEQEND
8
0
0
POLYLINE
8
0
62
5
66
1
10
0
20
0
30
0
70
8
0
VERTEX
8
0
62
5
10
0.074336053
20
0.47780413
30
0
70
32
0
VERTEX
8
0
62
5
10
0.088478188
20
0.47780413
30
0
70
32
0
SEQEND
8
0
0
POLYLINE
8
0
62
5
66
1
10
0
20
0
30
0
70
8
0
VERTEX
8
0
62
5
10
0.031909646
20
0.47780413
30
0
70
32
0
VERTEX
8
0
62
5
10
0.046051781
20
0.47780413
30
0
70
32
0
SEQEND
8
0
0
POLYLINE
8
0
62
5
66
1
10
0
20
0
30
0
70
8
0
VERTEX
8
0
62
5
10
0.088478188
20
0.47780413
30
0
70
32
0
VERTEX
8
0
62
5
10
0.10262032
20
0.47780413
30
0
70
32
0
SEQEND
8
0
0
POLYLINE
8
0
62
5
66
1
10
0
20
0
30
0
70
8
0
VERTEX
8
0
62
5
10
0.046051781
20
0.45780413
30
0
70
32
0
VERTEX
8
0
62
5
10
0.046051781
20
0.49780413
30
0
70
32
0
SEQEND
8
0
0
POLYLINE
8
0
62
5
66
1
10
0
20
0
30
0
70
8
0
VERTEX
8
0
62
5
10
0.074336053
20
0.45780413
30
0
70
32
0
VERTEX
8
0
62
5
10
0.074336053
20
0.49780413
30
0
70
32
0
SEQEND
8
0
0
POLYLINE
8
0
62
5
66
1
10
0
20
0
30
0
70
8
0
VERTEX
8
0
62
5
10
0.10262032
20
0.45780413
30
0
70
32
0
VERTEX
8
0
62
5
10
0.10262032
20
0.49780413
30
0
70
32
0
SEQEND
8
0
0
POLYLINE
8
0
62
5
66
1
10
0
20
0
30
0
70
8
0
VERTEX
8
0
62
5
10
0.01776751
20
0.45780413
30
0
70
32
0
VERTEX
8
0
62
5
10
0.01776751
20
0.49780413
30
0
70
32
0
SEQEND
8
0
0
POLYLINE
8
0
62
5
66
1
10
0
20
0
30
0
70
8
0
VERTEX
8
0
62
5
10
0.24404168
20
0.49780413
30
0
70
32
0
VERTEX
8
0
62
5
10
0.24404168
20
0.45780413
30
0
70
32
0
SEQEND
8
0
0
POLYLINE
8
0
62
5
66
1
10
0
20
0
30
0
70
8
0
VERTEX
8
0
62
5
10
0.1309046
20
0.45780413
30
0
70
32
0
VERTEX
8
0
62
5
10
0.24404168
20
0.45780413
30
0
70
32
0
SEQEND
8
0
0
POLYLINE
8
0
62
5
66
1
10
0
20
0
30
0
70
8
0
VERTEX
8
0
62
5
10
0.1309046
20
0.49780413
30
0
70
32
0
VERTEX
8
0
62
5
10
0.24404168
20
0.49780413
30
0
70
32
0
SEQEND
8
0
0
POLYLINE
8
0
62
5
66
1
10
0
20
0
30
0
70
8
0
VERTEX
8
0
62
5
10
0.15918887
20
0.45780413
30
0
70
32
0
VERTEX
8
0
62
5
10
0.15918887
20
0.45780413
30
0
70
32
0
SEQEND
8
0
0
POLYLINE
8
0
62
5
66
1
10
0
20
0
30
0
70
8
0
VERTEX
8
0
62
5
10
0.18747314
20
0.45780413
30
0
70
32
0
VERTEX
8
0
62
5
10
0.18747314
20
0.45780413
30
0
70
32
0
SEQEND
8
0
0
POLYLINE
8
0
62
5
66
1
10
0
20
0
30
0
70
8
0
VERTEX
8
0
62
5
10
0.21575741
20
0.45780413
30
0
70
32
0
VERTEX
8
0
62
5
10
0.21575741
20
0.45780413
30
0
70
32
0
SEQEND
8
0
0
POLYLINE
8
0
62
5
66
1
10
0
20
0
30
0
70
8
0
VERTEX
8
0
62
5
10
0.15918887
20
0.49780413
30
0
70
32
0
VERTEX
8
0
62
5
10
0.15918887
20
0.49780413
30
0
70
32
0
SEQEND
8
0
0
POLYLINE
8
0
62
5
66
1
10
0
20
0
30
0
70
8
0
VERTEX
8
0
62
5
10
0.18747314
20
0.49780413
30
0
70
32
0
VERTEX
8
0
62
5
10
0.18747314
20
0.49780413
30
0
70
32
0
SEQEND
8
0
0
POLYLINE
8
0
62
5
66
1
10
0
20
0
30
0
70
8
0
VERTEX
8
0
62
5
10
0.21575741
20
0.49780413
30
0
70
32
0
VERTEX
8
0
62
5
10
0.21575741
20
0.49780413
30
0
70
32
0
SEQEND
8
0
0
POLYLINE
8
0
62
30
66
1
10
0
20
0
30
0
70
8
0
VERTEX
8
0
62
30
10
0.1309046
20
0.49780413
30
0
70
32
0
VERTEX
8
0
62
30
10
0.15918887
20
0.45780413
30
0
70
32
0
SEQEND
8
0
0
POLYLINE
8
0
62
30
66
1
10
0
20
0
30
0
70
8
0
VERTEX
8
0
62
30
10
0.15918887
20
0.49780413
30
0
70
32
0
VERTEX
8
0
62
30
10
0.1309046
20
0.45780413
30
0
70
32
0
SEQEND
8
0
0
POLYLINE
8
0
62
30
66
1
10
0
20
0
30
0
70
8
0
VERTEX
8
0
62
30
10
0.18747314
20
0.49780413
30
0
70
32
0
VERTEX
8
0
62
30
10
0.21575741
20
0.45780413
30
0
70
32
0
SEQEND
8
0
0
POLYLINE
8
0
62
30
66
1
10
0
20
0
30
0
70
8
0
VERTEX
8
0
62
30
10
0.21575741
20
0.49780413
30
0
70
32
0
VERTEX
8
0
62
30
10
0.18747314
20
0.45780413
30
0
70
32
0
SEQEND
8
0
0
POLYLINE
8
0
62
30
66
1
10
0
20
0
30
0
70
8
0
VERTEX
8
0
62
30
10
0.15918887
20
0.47780413
30
0
70
32
0
VERTEX
8
0
62
30
10
0.18747314
20
0.47780413
30
0
70
32
0
SEQEND
8
0
0
POLYLINE
8
0
62
30
66
1
10
0
20
0
30
0
70
8
0
VERTEX
8
0
62
30
10
0.21575741
20
0.47780413
30
0
70
32
0
VERTEX
8
0
62
30
10
0.24404168
20
0.47780413
30
0
70
32
0
SEQEND
8
0
0
POLYLINE
8
0
62
5
66
1
10
0
20
0
30
0
70
8
0
VERTEX
8
0
62
5
10
0.1309046
20
0.47780413
30
0
70
32
0
VERTEX
8
0
62
5
10
0.14504673
20
0.47780413
30
0
70
32
0
SEQEND
8
0
0
POLYLINE
8
0
62
5
66
1
10
0
20
0
30
0
70
8
0
VERTEX
8
0
62
5
10
0.18747314
20
0.47780413
30
0
70
32
0
VERTEX
8
0
62
5
10
0.20161527
20
0.47780413
30
0
70
32
0
SEQEND
8
0
0
POLYLINE
8
0
62
5
66
1
10
0
20
0
30
0
70
8
0
VERTEX
8
0
62
5
10
0.14504673
20
0.47780413
30
0
70
32
0
VERTEX
8
0
62
5
10
0.15918887
20
0.47780413
30
0
70
32
0
SEQEND
8
0
0
POLYLINE
8
0
62
5
66
1
10
0
20
0
30
0
70
8
0
VERTEX
8
0
62
5
10
0.20161527
20
0.47780413
30
0
70
32
0
VERTEX
8
0
62
5
10
0.21575741
20
0.47780413
30
0
70
32
0
SEQEND
8
0
0
POLYLINE
8
0
62
5
66
1
10
0
20
0
30
0
70
8
0
VERTEX
8
0
62
5
10
0.15918887
20
0.45780413
30
0
70
32
0
VERTEX
8
0
62
5
10
0.15918887
20
0.49780413
30
0
70
32
0
SEQEND
8
0
0
POLYLINE
8
0
62
5
66
1
10
0
20
0
30
0
70
8
0
VERTEX
8
0
62
5
10
0.18747314
20
0.45780413
30
0
70
32
0
VERTEX
8
0
62
5
10
0.18747314
20
0.49780413
30
0
70
32
0
SEQEND
8
0
0
POLYLINE
8
0
62
5
66
1
10
0
20
0
30
0
70
8
0
VERTEX
8
0
62
5
10
0.21575741
20
0.45780413
30
0
70
32
0
VERTEX
8
0
62
5
10
0.21575741
20
0.49780413
30
0
70
32
0
SEQEND
8
0
0
POLYLINE
8
0
62
5
66
1
10
0
20
0
30
0
70
8
0
VERTEX
8
0
62
5
10
0.1309046
20
0.45780413
30
0
70
32
0
VERTEX
8
0
62
5
10
0.1309046
20
0.49780413
30
0
70
32
0
SEQEND
8
0
0
POLYLINE
8
0
62
5
66
1
10
0
20
0
30
0
70
8
0
VERTEX
8
0
62
5
10
-0.095369575
20
0.45780413
30
0
70
32
0
VERTEX
8
0
62
5
10
-0.095369575
20
0.49780413
30
0
70
32
0
SEQEND
8
0
0
POLYLINE
8
0
62
5
66
1
10
0
20
0
30
0
70
8
0
VERTEX
8
0
62
5
10
-0.095369575
20
0.45780413
30
0
70
32
0
VERTEX
8
0
62
5
10
0.01776751
20
0.45780413
30
0
70
32
0
SEQEND
8
0
0
POLYLINE
8
0
62
5
66
1
10
0
20
0
30
0
70
8
0
VERTEX
8
0
62
5
10
-0.095369575
20
0.49780413
30
0
70
32
0
VERTEX
8
0
62
5
10
0.01776751
20
0.49780413
30
0
70
32
0
SEQEND
8
0
0
POLYLINE
8
0
62
5
66
1
10
0
20
0
30
0
70
8
0
VERTEX
8
0
62
5
10
-0.067085304
20
0.45780413
30
0
70
32
0
VERTEX
8
0
62
5
10
-0.067085304
20
0.45780413
30
0
70
32
0
SEQEND
8
0
0
POLYLINE
8
0
62
5
66
1
10
0
20
0
30
0
70
8
0
VERTEX
8
0
62
5
10
-0.038801032
20
0.45780413
30
0
70
32
0
VERTEX
8
0
62
5
10
-0.038801032
20
0.45780413
30
0
70
32
0
SEQEND
8
0
0
POLYLINE
8
0
62
5
66
1
10
0
20
0
30
0
70
8
0
VERTEX
8
0
62
5
10
-0.010516761
20
0.45780413
30
0
70
32
0
VERTEX
8
0
62
5
10
-0.010516761
20
0.45780413
30
0
70
32
0
SEQEND
8
0
0
POLYLINE
8
0
62
5
66
1
10
0
20
0
30
0
70
8
0
VERTEX
8
0
62
5
10
-0.067085304
20
0.49780413
30
0
70
32
0
VERTEX
8
0
62
5
10
-0.067085304
20
0.49780413
30
0
70
32
0
SEQEND
8
0
0
POLYLINE
8
0
62
5
66
1
10
0
20
0
30
0
70
8
0
VERTEX
8
0
62
5
10
-0.038801032
20
0.49780413
30
0
70
32
0
VERTEX
8
0
62
5
10
-0.038801032
20
0.49780413
30
0
70
32
0
SEQEND
8
0
0
POLYLINE
8
0
62
5
66
1
10
0
20
0
30
0
70
8
0
VERTEX
8
0
62
5
10
-0.010516761
20
0.49780413
30
0
70
32
0
VERTEX
8
0
62
5
10
-0.010516761
20
0.49780413
30
0
70
32
0
SEQEND
8
0
0
POLYLINE
8
0
62
30
66
1
10
0
20
0
30
0
70
8
0
VERTEX
8
0
62
30
10
-0.095369575
20
0.49780413
30
0
70
32
0
VERTEX
8
0
62
30
10
-0.067085304
20
0.45780413
30
0
70
32
0
SEQEND
8
0
0
POLYLINE
8
0
62
30
66
1
10
0
20
0
30
0
70
8
0
VERTEX
8
0
62
30
10
-0.067085304
20
0.49780413
30
0
70
32
0
VERTEX
8
0
62
30
10
-0.095369575
20
0.45780413
30
0
70
32
0
SEQEND
8
0
0
POLYLINE
8
0
62
30
66
1
10
0
20
0
30
0
70
8
0
VERTEX
8
0
62
30
10
-0.038801032
20
0.49780413
30
0
70
32
0
VERTEX
8
0
62
30
10
-0.010516761
20
0.45780413
30
0
70
32
0
SEQEND
8
0
0
POLYLINE
8
0
62
30
66
1
10
0
20
0
30
0
70
8
0
VERTEX
8
0
62
30
10
-0.010516761
20
0.49780413
30
0
70
32
0
VERTEX
8
0
62
30
10
-0.038801032
20
0.45780413
30
0
70
32
0
SEQEND
8
0
0
POLYLINE
8
0
62
30
66
1
10
0
20
0
30
0
70
8
0
VERTEX
8
0
62
30
10
-0.067085304
20
0.47780413
30
0
70
32
0
VERTEX
8
0
62
30
10
-0.038801032
20
0.47780413
30
0
70
32
0
SEQEND
8
0
0
POLYLINE
8
0
62
30
66
1
10
0
20
0
30
0
70
8
0
VERTEX
8
0
62
30
10
-0.010516761
20
0.47780413
30
0
70
32
0
VERTEX
8
0
62
30
10
0.01776751
20
0.47780413
30
0
70
32
0
SEQEND
8
0
0
POLYLINE
8
0
62
5
66
1
10
0
20
0
30
0
70
8
0
VERTEX
8
0
62
5
10
-0.095369575
20
0.47780413
30
0
70
32
0
VERTEX
8
0
62
5
10
-0.081227439
20
0.47780413
30
0
70
32
0
SEQEND
8
0
0
POLYLINE
8
0
62
5
66
1
10
0
20
0
30
0
70
8
0
VERTEX
8
0
62
5
10
-0.038801032
20
0.47780413
30
0
70
32
0
VERTEX
8
0
62
5
10
-0.024658897
20
0.47780413
30
0
70
32
0
SEQEND
8
0
0
POLYLINE
8
0
62
5
66
1
10
0
20
0
30
0
70
8
0
VERTEX
8
0
62
5
10
-0.081227439
20
0.47780413
30
0
70
32
0
VERTEX
8
0
62
5
10
-0.067085304
20
0.47780413
30
0
70
32
0
SEQEND
8
0
0
POLYLINE
8
0
62
5
66
1
10
0
20
0
30
0
70
8
0
VERTEX
8
0
62
5
10
-0.024658897
20
0.47780413
30
0
70
32
0
VERTEX
8
0
62
5
10
-0.010516761
20
0.47780413
30
0
70
32
0
SEQEND
8
0
0
POLYLINE
8
0
62
5
66
1
10
0
20
0
30
0
70
8
0
VERTEX
8
0
62
5
10
-0.067085304
20
0.45780413
30
0
70
32
0
VERTEX
8
0
62
5
10
-0.067085304
20
0.49780413
30
0
70
32
0
SEQEND
8
0
0
POLYLINE
8
0
62
5
66
1
10
0
20
0
30
0
70
8
0
VERTEX
8
0
62
5
10
-0.038801032
20
0.45780413
30
0
70
32
0
VERTEX
8
0
62
5
10
-0.038801032
20
0.49780413
30
0
70
32
0
SEQEND
8
0
0
POLYLINE
8
0
62
5
66
1
10
0
20
0
30
0
70
8
0
VERTEX
8
0
62
5
10
-0.010516761
20
0.45780413
30
0
70
32
0
VERTEX
8
0
62
5
10
-0.010516761
20
0.49780413
30
0
70
32
0
SEQEND
8
0
0
POLYLINE
8
0
62
5
66
1
10
0
20
0
30
0
70
8
0
VERTEX
8
0
62
5
10
-0.095369575
20
0.45780413
30
0
70
32
0
VERTEX
8
0
62
5
10
-0.095369575
20
0.49780413
30
0
70
32
0
SEQEND
8
0
0
POLYLINE
8
0
62
5
66
1
10
0
20
0
30
0
70
8
0
VERTEX
8
0
62
5
10
0.01776751
20
0.49780413
30
0
70
32
0
VERTEX
8
0
62
5
10
0.01776751
20
0.6512899
30
0
70
32
0
SEQEND
8
0
0
POLYLINE
8
0
62
5
66
1
10
0
20
0
30
0
70
8
0
VERTEX
8
0
62
5
10
0.1309046
20
0.6512899
30
0
70
32
0
VERTEX
8
0
62
5
10
0.1309046
20
0.49780413
30
0
70
32
0
SEQEND
8
0
0
POLYLINE
8
0
62
5
66
1
10
0
20
0
30
0
70
8
0
VERTEX
8
0
62
5
10
0.01776751
20
0.49786619
30
0
70
32
0
VERTEX
8
0
62
5
10
0.046051781
20
0.53838902
30
0
70
32
0
VERTEX
8
0
62
5
10
0.074336053
20
0.57454701
30
0
70
32
0
VERTEX
8
0
62
5
10
0.10262032
20
0.53402419
30
0
70
32
0
VERTEX
8
0
62
5
10
0.1309046
20
0.49786619
30
0
70
32
0
SEQEND
8
0
0
POLYLINE
8
0
62
5
66
1
10
0
20
0
30
0
70
8
0
SEQEND
8
0
0
POLYLINE
8
0
62
5
66
1
10
0
20
0
30
0
70
8
0
VERTEX
8
0
62
5
10
0.01776751
20
0.65122783
30
0
70
32
0
VERTEX
8
0
62
5
10
0.046051781
20
0.61070501
30
0
70
32
0
VERTEX
8
0
62
5
10
0.074336053
20
0.57454701
30
0
70
32
0
VERTEX
8
0
62
5
10
0.10262032
20
0.61506984
30
0
70
32
0
VERTEX
8
0
62
5
10
0.1309046
20
0.65122783
30
0
70
32
0
SEQEND
8
0
0
POLYLINE
8
0
62
30
66
1
10
0
20
0
30
0
70
8
0
VERTEX
8
0
62
30
10
0.01776751
20
0.57454701
30
0
70
32
0
VERTEX
8
0
62
30
10
0.1309046
20
0.57454701
30
0
70
32
0
SEQEND
8
0
0
POLYLINE
8
0
62
30
66
1
10
0
20
0
30
0
70
8
0
VERTEX
8
0
62
30
10
0.046051781
20
0.53838902
30
0
70
32
0
VERTEX
8
0
62
30
10
0.046051781
20
0.57454701
30
0
70
32
0
SEQEND
8
0
0
POLYLINE
8
0
62
30
66
1
10
0
20
0
30
0
70
8
0
VERTEX
8
0
62
30
10
0.074336053
20
0.57454701
30
0
70
32
0
VERTEX
8
0
62
30
10
0.074336053
20
0.57454701
30
0
70
32
0
SEQEND
8
0
0
POLYLINE
8
0
62
30
66
1
10
0
20
0
30
0
70
8
0
VERTEX
8
0
62
30
10
0.10262032
20
0.53402419
30
0
70
32
0
VERTEX
8
0
62
30
10
0.10262032
20
0.57454701
30
0
70
32
0
SEQEND
8
0
0
POLYLINE
8
0
62
5
66
1
10
0
20
0
30
0
70
8
0
VERTEX
8
0
62
5
10
0.046051781
20
0.49780413
30
0
70
32
0
VERTEX
8
0
62
5
10
0.046051781
20
0.53838902
30
0
70
32
0
SEQEND
8
0
0
POLYLINE
8
0
62
5
66
1
10
0
20
0
30
0
70
8
0
VERTEX
8
0
62
5
10
0.074336053
20
0.49780413
30
0
70
32
0
VERTEX
8
0
62
5
10
0.074336053
20
0.57454701
30
0
70
32
0
SEQEND
8
0
0
POLYLINE
8
0
62
5
66
1
10
0
20
0
30
0
70
8
0
VERTEX
8
0
62
5
10
0.10262032
20
0.49780413
30
0
70
32
0
VERTEX
8
0
62
5
10
0.10262032
20
0.53402419
30
0
70
32
0
SEQEND
8
0
0
POLYLINE
8
0
62
5
66
1
10
0
20
0
30
0
70
8
0
VERTEX
8
0
62
5
10
0.046051781
20
0.57454701
30
0
70
32
0
VERTEX
8
0
62
5
10
0.046051781
20
0.6512899
30
0
70
32
0
SEQEND
8
0
0
POLYLINE
8
0
62
5
66
1
10
0
20
0
30
0
70
8
0
VERTEX
8
0
62
5
10
0.074336053
20
0.57454701
30
0
70
32
0
VERTEX
8
0
62
5
10
0.074336053
20
0.6512899
30
0
70
32
0
SEQEND
8
0
0
POLYLINE
8
0
62
5
66
1
10
0
20
0
30
0
70
8
0
VERTEX
8
0
62
5
10
0.10262032
20
0.57454701
30
0
70
32
0
VERTEX
8
0
62
5
10
0.10262032
20
0.6512899
30
0
70
32
0
SEQEND
8
0
0
POLYLINE
8
0
62
5
66
1
10
0
20
0
30
0
70
8
0
VERTEX
8
0
62
5
10
0.24404168
20
0.6512899
30
0
70
32
0
VERTEX
8
0
62
5
10
0.24404168
20
0.49780413
30
0
70
32
0
SEQEND
8
0
0
POLYLINE
8
0
62
5
66
1
10
0
20
0
30
0
70
8
0
VERTEX
8
0
62
5
10
0.1309046
20
0.49786619
30
0
70
32
0
VERTEX
8
0
62
5
10
0.15918887
20
0.53838902
30
0
70
32
0
VERTEX
8
0
62
5
10
0.18747314
20
0.57454701
30
0
70
32
0
VERTEX
8
0
62
5
10
0.21575741
20
0.53402419
30
0
70
32
0
VERTEX
8
0
62
5
10
0.24404168
20
0.49786619
30
0
70
32
0
SEQEND
8
0
0
POLYLINE
8
0
62
5
66
1
10
0
20
0
30
0
70
8
0
SEQEND
8
0
0
POLYLINE
8
0
62
5
66
1
10
0
20
0
30
0
70
8
0
VERTEX
8
0
62
5
10
0.1309046
20
0.65122783
30
0
70
32
0
VERTEX
8
0
62
5
10
0.15918887
20
0.61070501
30
0
70
32
0
VERTEX
8
0
62
5
10
0.18747314
20
0.57454701
30
0
70
32
0
VERTEX
8
0
62
5
10
0.21575741
20
0.61506984
30
0
70
32
0
VERTEX
8
0
62
5
10
0.24404168
20
0.65122783
30
0
70
32
0
SEQEND
8
0
0
POLYLINE
8
0
62
30
66
1
10
0
20
0
30
0
70
8
0
VERTEX
8
0
62
30
10
0.1309046
20
0.57454701
30
0
70
32
0
VERTEX
8
0
62
30
10
0.24404168
20
0.57454701
30
0
70
32
0
SEQEND
8
0
0
POLYLINE
8
0
62
30
66
1
10
0
20
0
30
0
70
8
0
VERTEX
8
0
62
30
10
0.15918887
20
0.53838902
30
0
70
32
0
VERTEX
8
0
62
30
10
0.15918887
20
0.57454701
30
0
70
32
0
SEQEND
8
0
0
POLYLINE
8
0
62
30
66
1
10
0
20
0
30
0
70
8
0
VERTEX
8
0
62
30
10
0.18747314
20
0.57454701
30
0
70
32
0
VERTEX
8
0
62
30
10
0.18747314
20
0.57454701
30
0
70
32
0
SEQEND
8
0
0
POLYLINE
8
0
62
30
66
1
10
0
20
0
30
0
70
8
0
VERTEX
8
0
62
30
10
0.21575741
20
0.53402419
30
0
70
32
0
VERTEX
8
0
62
30
10
0.21575741
20
0.57454701
30
0
70
32
0
SEQEND
8
0
0
POLYLINE
8
0
62
5
66
1
10
0
20
0
30
0
70
8
0
VERTEX
8
0
62
5
10
0.15918887
20
0.49780413
30
0
70
32
0
VERTEX
8
0
62
5
10
0.15918887
20
0.53838902
30
0
70
32
0
SEQEND
8
0
0
POLYLINE
8
0
62
5
66
1
10
0
20
0
30
0
70
8
0
VERTEX
8
0
62
5
10
0.18747314
20
0.49780413
30
0
70
32
0
VERTEX
8
0
62
5
10
0.18747314
20
0.57454701
30
0
70
32
0
SEQEND
8
0
0
POLYLINE
8
0
62
5
66
1
10
0
20
0
30
0
70
8
0
VERTEX
8
0
62
5
10
0.21575741
20
0.49780413
30
0
70
32
0
VERTEX
8
0
62
5
10
0.21575741
20
0.53402419
30
0
70
32
0
SEQEND
8
0
0
POLYLINE
8
0
62
5
66
1
10
0
20
0
30
0
70
8
0
VERTEX
8
0
62
5
10
0.15918887
20
0.57454701
30
0
70
32
0
VERTEX
8
0
62
5
10
0.15918887
20
0.6512899
30
0
70
32
0
SEQEND
8
0
0
POLYLINE
8
0
62
5
66
1
10
0
20
0
30
0
70
8
0
VERTEX
8
0
62
5
10
0.18747314
20
0.57454701
30
0
70
32
0
VERTEX
8
0
62
5
10
0.18747314
20
0.6512899
30
0
70
32
0
SEQEND
8
0
0
POLYLINE
8
0
62
5
66
1
10
0
20
0
30
0
70
8
0
VERTEX
8
0
62
5
10
0.21575741
20
0.57454701
30
0
70
32
0
VERTEX
8
0
62
5
10
0.21575741
20
0.6512899
30
0
70
32
0
SEQEND
8
0
0
POLYLINE
8
0
62
5
66
1
10
0
20
0
30
0
70
8
0
VERTEX
8
0
62
5
10
-0.095369575
20
0.49780413
30
0
70
32
0
VERTEX
8
0
62
5
10
-0.095369575
20
0.6512899
30
0
70
32
0
SEQEND
8
0
0
POLYLINE
8
0
62
5
66
1
10
0
20
0
30
0
70
8
0
VERTEX
8
0
62
5
10
-0.095369575
20
0.49786619
30
0
70
32
0
VERTEX
8
0
62
5
10
-0.067085304
20
0.53838902
30
0
70
32
0
VERTEX
8
0
62
5
10
-0.038801032
20
0.57454701
30
0
70
32
0
VERTEX
8
0
62
5
10
-0.010516761
20
0.53402419
30
0
70
32
0
VERTEX
8
0
62
5
10
0.01776751
20
0.49786619
30
0
70
32
0
SEQEND
8
0
0
POLYLINE
8
0
62
5
66
1
10
0
20
0
30
0
70
8
0
SEQEND
8
0
0
POLYLINE
8
0
62
5
66
1
10
0
20
0
30
0
70
8
0
VERTEX
8
0
62
5
10
-0.095369575
20
0.65122783
30
0
70
32
0
VERTEX
8
0
62
5
10
-0.067085304
20
0.61070501
30
0
70
32
0
VERTEX
8
0
62
5
10
-0.038801032
20
0.57454701
30
0
70
32
0
VERTEX
8
0
62
5
10
-0.010516761
20
0.61506984
30
0
70
32
0
VERTEX
8
0
62
5
10
0.01776751
20
0.65122783
30
0
70
32
0
SEQEND
8
0
0
POLYLINE
8
0
62
30
66
1
10
0
20
0
30
0
70
8
0
VERTEX
8
0
62
30
10
-0.095369575
20
0.57454701
30
0
70
32
0
VERTEX
8
0
62
30
10
0.01776751
20
0.57454701
30
0
70
32
0
SEQEND
8
0
0
POLYLINE
8
0
62
30
66
1
10
0
20
0
30
0
70
8
0
VERTEX
8
0
62
30
10
-0.067085304
20
0.53838902
30
0
70
32
0
VERTEX
8
0
62
30
10
-0.067085304
20
0.57454701
30
0
70
32
0
SEQEND
8
0
0
POLYLINE
8
0
62
30
66
1
10
0
20
0
30
0
70
8
0
VERTEX
8
0
62
30
10
-0.038801032
20
0.57454701
30
0
70
32
0
VERTEX
8
0
62
30
10
-0.038801032
20
0.57454701
30
0
70
32
0
SEQEND
8
0
0
POLYLINE
8
0
62
30
66
1
10
0
20
0
30
0
70
8
0
VERTEX
8
0
62
30
10
-0.010516761
20
0.53402419
30
0
70
32
0
VERTEX
8
0
62
30
10
-0.010516761
20
0.57454701
30
0
70
32
0
SEQEND
8
0
0
POLYLINE
8
0
62
5
66
1
10
0
20
0
30
0
70
8
0
VERTEX
8
0
62
5
10
-0.067085304
20
0.49780413
30
0
70
32
0
VERTEX
8
0
62
5
10
-0.067085304
20
0.53838902
30
0
70
32
0
SEQEND
8
0
0
POLYLINE
8
0
62
5
66
1
10
0
20
0
30
0
70
8
0
VERTEX
8
0
62
5
10
-0.038801032
20
0.49780413
30
0
70
32
0
VERTEX
8
0
62
5
10
-0.038801032
20
0.57454701
30
0
70
32
0
SEQEND
8
0
0
POLYLINE
8
0
62
5
66
1
10
0
20
0
30
0
70
8
0
VERTEX
8
0
62
5
10
-0.010516761
20
0.49780413
30
0
70
32
0
VERTEX
8
0
62
5
10
-0.010516761
20
0.53402419
30
0
70
32
0
SEQEND
8
0
0
POLYLINE
8
0
62
5
66
1
10
0
20
0
30
0
70
8
0
VERTEX
8
0
62
5
10
-0.067085304
20
0.57454701
30
0
70
32
0
VERTEX
8
0
62
5
10
-0.067085304
20
0.6512899
30
0
70
32
0
SEQEND
8
0
0
POLYLINE
8
0
62
5
66
1
10
0
20
0
30
0
70
8
0
VERTEX
8
0
62
5
10
-0.038801032
20
0.57454701
30
0
70
32
0
VERTEX
8
0
62
5
10
-0.038801032
20
0.6512899
30
0
70
32
0
SEQEND
8
0
0
POLYLINE
8
0
62
5
66
1
10
0
20
0
30
0
70
8
0
VERTEX
8
0
62
5
10
-0.010516761
20
0.57454701
30
0
70
32
0
VERTEX
8
0
62
5
10
-0.010516761
20
0.6512899
30
0
70
32
0
SEQEND
8
0
0
POLYLINE
8
0
62
30
66
1
10
0
20
0
30
0
70
8
0
VERTEX
8
0
62
30
10
0.01776751
20
0.66158536
30
0
70
32
0
VERTEX
8
0
62
30
10
0.1309046
20
0.66158536
30
0
70
32
0
SEQEND
8
0
0
POLYLINE
8
0
62
30
66
1
10
0
20
0
30
0
70
8
0
VERTEX
8
0
62
30
10
0.01776751
20
0.6512899
30
0
70
32
0
VERTEX
8
0
62
30
10
0.1309046
20
0.6512899
30
0
70
32
0
SEQEND
8
0
0
POLYLINE
8
0
62
5
66
1
10
0
20
0
30
0
70
8
0
VERTEX
8
0
62
5
10
0.01776751
20
0.6512899
30
0
70
32
0
VERTEX
8
0
62
5
10
0.035535024
20
0.66158536
30
0
70
32
0
VERTEX
8
0
62
5
10
0.046051781
20
0.6512899
30
0
70
32
0
VERTEX
8
0
62
5
10
0.063819295
20
0.66158536
30
0
70
32
0
VERTEX
8
0
62
5
10
0.074336053
20
0.6512899
30
0
70
32
0
VERTEX
8
0
62
5
10
0.092103566
20
0.66158536
30
0
70
32
0
VERTEX
8
0
62
5
10
0.10262032
20
0.6512899
30
0
70
32
0
VERTEX
8
0
62
5
10
0.12038784
20
0.66158536
30
0
70
32
0
VERTEX
8
0
62
5
10
0.1309046
20
0.6512899
30
0
70
32
0
SEQEND
8
0
0
POLYLINE
8
0
62
5
66
1
10
0
20
0
30
0
70
8
0
VERTEX
8
0
62
5
10
0.046051781
20
0.6512899
30
0
70
32
0
VERTEX
8
0
62
5
10
0.046051781
20
0.6512899
30
0
70
32
0
SEQEND
8
0
0
POLYLINE
8
0
62
5
66
1
10
0
20
0
30
0
70
8
0
VERTEX
8
0
62
5
10
0.074336053
20
0.6512899
30
0
70
32
0
VERTEX
8
0
62
5
10
0.074336053
20
0.6512899
30
0
70
32
0
SEQEND
8
0
0
POLYLINE
8
0
62
5
66
1
10
0
20
0
30
0
70
8
0
VERTEX
8
0
62
5
10
0.10262032
20
0.6512899
30
0
70
32
0
VERTEX
8
0
62
5
10
0.10262032
20
0.6512899
30
0
70
32
0
SEQEND
8
0
0
POLYLINE
8
0
62
5
66
1
10
0
20
0
30
0
70
8
0
VERTEX
8
0
62
5
10
0.035535024
20
0.66158536
30
0
70
32
0
VERTEX
8
0
62
5
10
0.035535024
20
0.66158536
30
0
70
32
0
SEQEND
8
0
0
POLYLINE
8
0
62
5
66
1
10
0
20
0
30
0
70
8
0
VERTEX
8
0
62
5
10
0.063819295
20
0.66158536
30
0
70
32
0
VERTEX
8
0
62
5
10
0.063819295
20
0.66158536
30
0
70
32
0
SEQEND
8
0
0
POLYLINE
8
0
62
5
66
1
10
0
20
0
30
0
70
8
0
VERTEX
8
0
62
5
10
0.092103566
20
0.66158536
30
0
70
32
0
VERTEX
8
0
62
5
10
0.092103566
20
0.66158536
30
0
70
32
0
SEQEND
8
0
0
POLYLINE
8
0
62
5
66
1
10
0
20
0
30
0
70
8
0
VERTEX
8
0
62
5
10
0.12038784
20
0.66158536
30
0
70
32
0
VERTEX
8
0
62
5
10
0.12038784
20
0.66158536
30
0
70
32
0
SEQEND
8
0
0
POLYLINE
8
0
62
30
66
1
10
0
20
0
30
0
70
8
0
VERTEX
8
0
62
30
10
0.1309046
20
0.6512899
30
0
70
32
0
VERTEX
8
0
62
30
10
0.24404168
20
0.6512899
30
0
70
32
0
SEQEND
8
0
0
POLYLINE
8
0
62
5
66
1
10
0
20
0
30
0
70
8
0
VERTEX
8
0
62
5
10
0.1309046
20
0.6512899
30
0
70
32
0
VERTEX
8
0
62
5
10
0.14867211
20
0.66158536
30
0
70
32
0
VERTEX
8
0
62
5
10
0.15918887
20
0.6512899
30
0
70
32
0
VERTEX
8
0
62
5
10
0.17695638
20
0.66158536
30
0
70
32
0
VERTEX
8
0
62
5
10
0.18747314
20
0.6512899
30
0
70
32
0
VERTEX
8
0
62
5
10
0.20524065
20
0.66158536
30
0
70
32
0
VERTEX
8
0
62
5
10
0.21575741
20
0.6512899
30
0
70
32
0
VERTEX
8
0
62
5
10
0.23352492
20
0.66158536
30
0
70
32
0
VERTEX
8
0
62
5
10
0.24404168
20
0.6512899
30
0
70
32
0
SEQEND
8
0
0
POLYLINE
8
0
62
5
66
1
10
0
20
0
30
0
70
8
0
VERTEX
8
0
62
5
10
0.15918887
20
0.6512899
30
0
70
32
0
VERTEX
8
0
62
5
10
0.15918887
20
0.6512899
30
0
70
32
0
SEQEND
8
0
0
POLYLINE
8
0
62
5
66
1
10
0
20
0
30
0
70
8
0
VERTEX
8
0
62
5
10
0.18747314
20
0.6512899
30
0
70
32
0
VERTEX
8
0
62
5
10
0.18747314
20
0.6512899
30
0
70
32
0
SEQEND
8
0
0
POLYLINE
8
0
62
5
66
1
10
0
20
0
30
0
70
8
0
VERTEX
8
0
62
5
10
0.21575741
20
0.6512899
30
0
70
32
0
VERTEX
8
0
62
5
10
0.21575741
20
0.6512899
30
0
70
32
0
SEQEND
8
0
0
POLYLINE
8
0
62
5
66
1
10
0
20
0
30
0
70
8
0
VERTEX
8
0
62
5
10
0.14867211
20
0.66158536
30
0
70
32
0
VERTEX
8
0
62
5
10
0.14867211
20
0.66158536
30
0
70
32
0
SEQEND
8
0
0
POLYLINE
8
0
62
5
66
1
10
0
20
0
30
0
70
8
0
VERTEX
8
0
62
5
10
0.17695638
20
0.66158536
30
0
70
32
0
VERTEX
8
0
62
5
10
0.17695638
20
0.66158536
30
0
70
32
0
SEQEND
8
0
0
POLYLINE
8
0
62
5
66
1
10
0
20
0
30
0
70
8
0
VERTEX
8
0
62
5
10
0.20524065
20
0.66158536
30
0
70
32
0
VERTEX
8
0
62
5
10
0.20524065
20
0.66158536
30
0
70
32
0
SEQEND
8
0
0
POLYLINE
8
0
62
5
66
1
10
0
20
0
30
0
70
8
0
VERTEX
8
0
62
5
10
0.23352492
20
0.66158536
30
0
70
32
0
VERTEX
8
0
62
5
10
0.23352492
20
0.66158536
30
0
70
32
0
SEQEND
8
0
0
POLYLINE
8
0
62
30
66
1
10
0
20
0
30
0
70
8
0
VERTEX
8
0
62
30
10
-0.095369575
20
0.6512899
30
0
70
32
0
VERTEX
8
0
62
30
10
0.01776751
20
0.6512899
30
0
70
32
0
SEQEND
8
0
0
POLYLINE
8
0
62
5
66
1
10
0
20
0
30
0
70
8
0
VERTEX
8
0
62
5
10
-0.095369575
20
0.6512899
30
0
70
32
0
VERTEX
8
0
62
5
10
-0.077602061
20
0.66158536
30
0
70
32
0
VERTEX
8
0
62
5
10
-0.067085304
20
0.6512899
30
0
70
32
0
VERTEX
8
0
62
5
10
-0.04931779
20
0.66158536
30
0
70
32
0
VERTEX
8
0
62
5
10
-0.038801032
20
0.6512899
30
0
70
32
0
VERTEX
8
0
62
5
10
-0.021033519
20
0.66158536
30
0
70
32
0
VERTEX
8
0
62
5
10
-0.010516761
20
0.6512899
30
0
70
32
0
VERTEX
8
0
62
5
10
0.0072507527
20
0.66158536
30
0
70
32
0
VERTEX
8
0
62
5
10
0.01776751
20
0.6512899
30
0
70
32
0
SEQEND
8
0
0
POLYLINE
8
0
62
5
66
1
10
0
20
0
30
0
70
8
0
VERTEX
8
0
62
5
10
-0.067085304
20
0.6512899
30
0
70
32
0
VERTEX
8
0
62
5
10
-0.067085304
20
0.6512899
30
0
70
32
0
SEQEND
8
0
0
POLYLINE
8
0
62
5
66
1
10
0
20
0
30
0
70
8
0
VERTEX
8
0
62
5
10
-0.038801032
20
0.6512899
30
0
70
32
0
VERTEX
8
0
62
5
10
-0.038801032
20
0.6512899
30
0
70
32
0
SEQEND
8
0
0
POLYLINE
8
0
62
5
66
1
10
0
20
0
30
0
70
8
0
VERTEX
8
0
62
5
10
-0.010516761
20
0.6512899
30
0
70
32
0
VERTEX
8
0
62
5
10
-0.010516761
20
0.6512899
30
0
70
32
0
SEQEND
8
0
0
POLYLINE
8
0
62
5
66
1
10
0
20
0
30
0
70
8
0
VERTEX
8
0
62
5
10
-0.077602061
20
0.66158536
30
0
70
32
0
VERTEX
8
0
62
5
10
-0.077602061
20
0.66158536
30
0
70
32
0
SEQEND
8
0
0
POLYLINE
8
0
62
5
66
1
10
0
20
0
30
0
70
8
0
VERTEX
8
0
62
5
10
-0.04931779
20
0.66158536
30
0
70
32
0
VERTEX
8
0
62
5
10
-0.04931779
20
0.66158536
30
0
70
32
0
SEQEND
8
0
0
POLYLINE
8
0
62
5
66
1
10
0
20
0
30
0
70
8
0
VERTEX
8
0
62
5
10
-0.021033519
20
0.66158536
30
0
70
32
0
VERTEX
8
0
62
5
10
-0.021033519
20
0.66158536
30
0
70
32
0
SEQEND
8
0
0
POLYLINE
8
0
62
5
66
1
10
0
20
0
30
0
70
8
0
VERTEX
8
0
62
5
10
0.0072507527
20
0.66158536
30
0
70
32
0
VERTEX
8
0
62
5
10
0.0072507527
20
0.66158536
30
0
70
32
0
SEQEND
8
0
0
POLYLINE
8
0
62
5
66
1
10
0
20
0
30
0
70
8
0
VERTEX
8
0
62
5
10
0.063819295
20
0.66158536
30
0
70
32
0
VERTEX
8
0
62
5
10
0.063819295
20
0.69633106
30
0
70
32
0
SEQEND
8
0
0
POLYLINE
8
0
62
5
66
1
10
0
20
0
30
0
70
8
0
VERTEX
8
0
62
5
10
0.17695638
20
0.66158536
30
0
70
32
0
VERTEX
8
0
62
5
10
0.17695638
20
0.69633106
30
0
70
32
0
SEQEND
8
0
0
POLYLINE
8
0
62
5
66
1
10
0
20
0
30
0
70
8
0
VERTEX
8
0
62
5
10
0.092103566
20
0.66158536
30
0
70
32
0
VERTEX
8
0
62
5
10
0.092103566
20
0.69633106
30
0
70
32
0
SEQEND
8
0
0
POLYLINE
8
0
62
5
66
1
10
0
20
0
30
0
70
8
0
VERTEX
8
0
62
5
10
0.12038784
20
0.66158536
30
0
70
32
0
VERTEX
8
0
62
5
10
0.12038784
20
0.69633106
30
0
70
32
0
SEQEND
8
0
0
POLYLINE
8
0
62
5
66
1
10
0
20
0
30
0
70
8
0
VERTEX
8
0
62
5
10
0.14867211
20
0.66158536
30
0
70
32
0
VERTEX
8
0
62
5
10
0.14867211
20
0.69633106
30
0
70
32
0
SEQEND
8
0
0
POLYLINE
8
0
62
5
66
1
10
0
20
0
30
0
70
8
0
VERTEX
8
0
62
5
10
0.29009347
20
0.66158536
30
0
70
32
0
VERTEX
8
0
62
5
10
0.29009347
20
0.69633106
30
0
70
32
0
SEQEND
8
0
0
POLYLINE
8
0
62
5
66
1
10
0
20
0
30
0
70
8
0
VERTEX
8
0
62
5
10
0.20524065
20
0.66158536
30
0
70
32
0
VERTEX
8
0
62
5
10
0.20524065
20
0.69633106
30
0
70
32
0
SEQEND
8
0
0
POLYLINE
8
0
62
5
66
1
10
0
20
0
30
0
70
8
0
VERTEX
8
0
62
5
10
0.23352492
20
0.66158536
30
0
70
32
0
VERTEX
8
0
62
5
10
0.23352492
20
0.69633106
30
0
70
32
0
SEQEND
8
0
0
POLYLINE
8
0
62
5
66
1
10
0
20
0
30
0
70
8
0
VERTEX
8
0
62
5
10
0.26180919
20
0.66158536
30
0
70
32
0
VERTEX
8
0
62
5
10
0.26180919
20
0.69633106
30
0
70
32
0
SEQEND
8
0
0
POLYLINE
8
0
62
5
66
1
10
0
20
0
30
0
70
8
0
VERTEX
8
0
62
5
10
-0.04931779
20
0.66158536
30
0
70
32
0
VERTEX
8
0
62
5
10
-0.04931779
20
0.69633106
30
0
70
32
0
SEQEND
8
0
0
POLYLINE
8
0
62
5
66
1
10
0
20
0
30
0
70
8
0
VERTEX
8
0
62
5
10
-0.021033519
20
0.66158536
30
0
70
32
0
VERTEX
8
0
62
5
10
-0.021033519
20
0.69633106
30
0
70
32
0
SEQEND
8
0
0
POLYLINE
8
0
62
5
66
1
10
0
20
0
30
0
70
8
0
VERTEX
8
0
62
5
10
0.0072507527
20
0.66158536
30
0
70
32
0
VERTEX
8
0
62
5
10
0.0072507527
20
0.69633106
30
0
70
32
0
SEQEND
8
0
0
POLYLINE
8
0
62
5
66
1
10
0
20
0
30
0
70
8
0
VERTEX
8
0
62
5
10
0.035535024
20
0.66158536
30
0
70
32
0
VERTEX
8
0
62
5
10
0.035535024
20
0.69633106
30
0
70
32
0
SEQEND
8
0
0
POLYLINE
8
0
62
5
66
1
10
0
20
0
30
0
70
8
0
VERTEX
8
0
62
5
10
0.063819295
20
0.69633106
30
0
70
32
0
VERTEX
8
0
62
5
10
0.063819295
20
0.73561332
30
0
70
32
0
SEQEND
8
0
0
POLYLINE
8
0
62
5
66
1
10
0
20
0
30
0
70
8
0
VERTEX
8
0
62
5
10
0.17695638
20
0.73561332
30
0
70
32
0
VERTEX
8
0
62
5
10
0.17695638
20
0.69633106
30
0
70
32
0
SEQEND
8
0
0
POLYLINE
8
0
62
5
66
1
10
0
20
0
30
0
70
8
0
VERTEX
8
0
62
5
10
0.063819295
20
0.70590948
30
0
70
32
0
VERTEX
8
0
62
5
10
0.092103566
20
0.69633409
30
0
70
32
0
VERTEX
8
0
62
5
10
0.12038784
20
0.70639679
30
0
70
32
0
VERTEX
8
0
62
5
10
0.14867211
20
0.71597219
30
0
70
32
0
VERTEX
8
0
62
5
10
0.17695638
20
0.70590948
30
0
70
32
0
SEQEND
8
0
0
POLYLINE
8
0
62
5
66
1
10
0
20
0
30
0
70
8
0
SEQEND
8
0
0
POLYLINE
8
0
62
5
66
1
10
0
20
0
30
0
70
8
0
VERTEX
8
0
62
5
10
0.063819295
20
0.7260349
30
0
70
32
0
VERTEX
8
0
62
5
10
0.092103566
20
0.73561029
30
0
70
32
0
VERTEX
8
0
62
5
10
0.12038784
20
0.72554759
30
0
70
32
0
VERTEX
8
0
62
5
10
0.14867211
20
0.71597219
30
0
70
32
0
VERTEX
8
0
62
5
10
0.17695638
20
0.7260349
30
0
70
32
0
SEQEND
8
0
0
POLYLINE
8
0
62
30
66
1
10
0
20
0
30
0
70
8
0
VERTEX
8
0
62
30
10
0.063819295
20
0.71597219
30
0
70
32
0
VERTEX
8
0
62
30
10
0.17695638
20
0.71597219
30
0
70
32
0
SEQEND
8
0
0
POLYLINE
8
0
62
30
66
1
10
0
20
0
30
0
70
8
0
VERTEX
8
0
62
30
10
0.092103566
20
0.69633409
30
0
70
32
0
VERTEX
8
0
62
30
10
0.092103566
20
0.71597219
30
0
70
32
0
SEQEND
8
0
0
POLYLINE
8
0
62
30
66
1
10
0
20
0
30
0
70
8
0
VERTEX
8
0
62
30
10
0.12038784
20
0.70639679
30
0
70
32
0
VERTEX
8
0
62
30
10
0.12038784
20
0.71597219
30
0
70
32
0
SEQEND
8
0
0
POLYLINE
8
0
62
30
66
1
10
0
20
0
30
0
70
8
0
VERTEX
8
0
62
30
10
0.14867211
20
0.71597219
30
0
70
32
0
VERTEX
8
0
62
30
10
0.14867211
20
0.71597219
30
0
70
32
0
SEQEND
8
0
0
POLYLINE
8
0
62
5
66
1
10
0
20
0
30
0
70
8
0
VERTEX
8
0
62
5
10
0.092103566
20
0.69633106
30
0
70
32
0
VERTEX
8
0
62
5
10
0.092103566
20
0.69633409
30
0
70
32
0
SEQEND
8
0
0
POLYLINE
8
0
62
5
66
1
10
0
20
0
30
0
70
8
0
VERTEX
8
0
62
5
10
0.12038784
20
0.69633106
30
0
70
32
0
VERTEX
8
0
62
5
10
0.12038784
20
0.70639679
30
0
70
32
0
SEQEND
8
0
0
POLYLINE
8
0
62
5
66
1
10
0
20
0
30
0
70
8
0
VERTEX
8
0
62
5
10
0.14867211
20
0.69633106
30
0
70
32
0
VERTEX
8
0
62
5
10
0.14867211
20
0.71597219
30
0
70
32
0
SEQEND
8
0
0
POLYLINE
8
0
62
5
66
1
10
0
20
0
30
0
70
8
0
VERTEX
8
0
62
5
10
0.092103566
20
0.71597219
30
0
70
32
0
VERTEX
8
0
62
5
10
0.092103566
20
0.73561332
30
0
70
32
0
SEQEND
8
0
0
POLYLINE
8
0
62
5
66
1
10
0
20
0
30
0
70
8
0
VERTEX
8
0
62
5
10
0.12038784
20
0.71597219
30
0
70
32
0
VERTEX
8
0
62
5
10
0.12038784
20
0.73561332
30
0
70
32
0
SEQEND
8
0
0
POLYLINE
8
0
62
5
66
1
10
0
20
0
30
0
70
8
0
VERTEX
8
0
62
5
10
0.14867211
20
0.71597219
30
0
70
32
0
VERTEX
8
0
62
5
10
0.14867211
20
0.73561332
30
0
70
32
0
SEQEND
8
0
0
POLYLINE
8
0
62
5
66
1
10
0
20
0
30
0
70
8
0
VERTEX
8
0
62
5
10
0.29009347
20
0.73561332
30
0
70
32
0
VERTEX
8
0
62
5
10
0.29009347
20
0.69633106
30
0
70
32
0
SEQEND
8
0
0
POLYLINE
8
0
62
5
66
1
10
0
20
0
30
0
70
8
0
VERTEX
8
0
62
5
10
0.17695638
20
0.70590948
30
0
70
32
0
VERTEX
8
0
62
5
10
0.20524065
20
0.69633409
30
0
70
32
0
VERTEX
8
0
62
5
10
0.23352492
20
0.70639679
30
0
70
32
0
VERTEX
8
0
62
5
10
0.26180919
20
0.71597219
30
0
70
32
0
VERTEX
8
0
62
5
10
0.29009347
20
0.70590948
30
0
70
32
0
SEQEND
8
0
0
POLYLINE
8
0
62
5
66
1
10
0
20
0
30
0
70
8
0
SEQEND
8
0
0
POLYLINE
8
0
62
5
66
1
10
0
20
0
30
0
70
8
0
VERTEX
8
0
62
5
10
0.17695638
20
0.7260349
30
0
70
32
0
VERTEX
8
0
62
5
10
0.20524065
20
0.73561029
30
0
70
32
0
VERTEX
8
0
62
5
10
0.23352492
20
0.72554759
30
0
70
32
0
VERTEX
8
0
62
5
10
0.26180919
20
0.71597219
30
0
70
32
0
VERTEX
8
0
62
5
10
0.29009347
20
0.7260349
30
0
70
32
0
SEQEND
8
0
0
POLYLINE
8
0
62
30
66
1
10
0
20
0
30
0
70
8
0
VERTEX
8
0
62
30
10
0.17695638
20
0.71597219
30
0
70
32
0
VERTEX
8
0
62
30
10
0.29009347
20
0.71597219
30
0
70
32
0
SEQEND
8
0
0
POLYLINE
8
0
62
30
66
1
10
0
20
0
30
0
70
8
0
VERTEX
8
0
62
30
10
0.20524065
20
0.69633409
30
0
70
32
0
VERTEX
8
0
62
30
10
0.20524065
20
0.71597219
30
0
70
32
0
SEQEND
8
0
0
POLYLINE
8
0
62
30
66
1
10
0
20
0
30
0
70
8
0
VERTEX
8
0
62
30
10
0.23352492
20
0.70639679
30
0
70
32
0
VERTEX
8
0
62
30
10
0.23352492
20
0.71597219
30
0
70
32
0
SEQEND
8
0
0
POLYLINE
8
0
62
30
66
1
10
0
20
0
30
0
70
8
0
VERTEX
8
0
62
30
10
0.26180919
20
0.71597219
30
0
70
32
0
VERTEX
8
0
62
30
10
0.26180919
20
0.71597219
30
0
70
32
0
SEQEND
8
0
0
POLYLINE
8
0
62
5
66
1
10
0
20
0
30
0
70
8
0
VERTEX
8
0
62
5
10
0.20524065
20
0.69633106
30
0
70
32
0
VERTEX
8
0
62
5
10
0.20524065
20
0.69633409
30
0
70
32
0
SEQEND
8
0
0
POLYLINE
8
0
62
5
66
1
10
0
20
0
30
0
70
8
0
VERTEX
8
0
62
5
10
0.23352492
20
0.69633106
30
0
70
32
0
VERTEX
8
0
62
5
10
0.23352492
20
0.70639679
30
0
70
32
0
SEQEND
8
0
0
POLYLINE
8
0
62
5
66
1
10
0
20
0
30
0
70
8
0
VERTEX
8
0
62
5
10
0.26180919
20
0.69633106
30
0
70
32
0
VERTEX
8
0
62
5
10
0.26180919
20
0.71597219
30
0
70
32
0
SEQEND
8
0
0
POLYLINE
8
0
62
5
66
1
10
0
20
0
30
0
70
8
0
VERTEX
8
0
62
5
10
0.20524065
20
0.71597219
30
0
70
32
0
VERTEX
8
0
62
5
10
0.20524065
20
0.73561332
30
0
70
32
0
SEQEND
8
0
0
POLYLINE
8
0
62
5
66
1
10
0
20
0
30
0
70
8
0
VERTEX
8
0
62
5
10
0.23352492
20
0.71597219
30
0
70
32
0
VERTEX
8
0
62
5
10
0.23352492
20
0.73561332
30
0
70
32
0
SEQEND
8
0
0
POLYLINE
8
0
62
5
66
1
10
0
20
0
30
0
70
8
0
VERTEX
8
0
62
5
10
0.26180919
20
0.71597219
30
0
70
32
0
VERTEX
8
0
62
5
10
0.26180919
20
0.73561332
30
0
70
32
0
SEQEND
8
0
0
POLYLINE
8
0
62
5
66
1
10
0
20
0
30
0
70
8
0
VERTEX
8
0
62
5
10
-0.04931779
20
0.69633106
30
0
70
32
0
VERTEX
8
0
62
5
10
-0.04931779
20
0.73561332
30
0
70
32
0
SEQEND
8
0
0
POLYLINE
8
0
62
5
66
1
10
0
20
0
30
0
70
8
0
VERTEX
8
0
62
5
10
-0.04931779
20
0.70590948
30
0
70
32
0
VERTEX
8
0
62
5
10
-0.021033519
20
0.69633409
30
0
70
32
0
VERTEX
8
0
62
5
10
0.0072507527
20
0.70639679
30
0
70
32
0
VERTEX
8
0
62
5
10
0.035535024
20
0.71597219
30
0
70
32
0
VERTEX
8
0
62
5
10
0.063819295
20
0.70590948
30
0
70
32
0
SEQEND
8
0
0
POLYLINE
8
0
62
5
66
1
10
0
20
0
30
0
70
8
0
SEQEND
8
0
0
POLYLINE
8
0
62
5
66
1
10
0
20
0
30
0
70
8
0
VERTEX
8
0
62
5
10
-0.04931779
20
0.7260349
30
0
70
32
0
VERTEX
8
0
62
5
10
-0.021033519
20
0.73561029
30
0
70
32
0
VERTEX
8
0
62
5
10
0.0072507527
20
0.72554759
30
0
70
32
0
VERTEX
8
0
62
5
10
0.035535024
20
0.71597219
30
0
70
32
0
VERTEX
8
0
62
5
10
0.063819295
20
0.7260349
30
0
70
32
0
SEQEND
8
0
0
POLYLINE
8
0
62
30
66
1
10
0
20
0
30
0
70
8
0
VERTEX
8
0
62
30
10
-0.04931779
20
0.71597219
30
0
70
32
0
VERTEX
8
0
62
30
10
0.063819295
20
0.71597219
30
0
70
32
0
SEQEND
8
0
0
POLYLINE
8
0
62
30
66
1
10
0
20
0
30
0
70
8
0
VERTEX
8
0
62
30
10
-0.021033519
20
0.69633409
30
0
70
32
0
VERTEX
8
0
62
30
10
-0.021033519
20
0.71597219
30
0
70
32
0
SEQEND
8
0
0
POLYLINE
8
0
62
30
66
1
10
0
20
0
30
0
70
8
0
VERTEX
8
0
62
30
10
0.0072507527
20
0.70639679
30
0
70
32
0
VERTEX
8
0
62
30
10
0.0072507527
20
0.71597219
30
0
70
32
0
SEQEND
8
0
0
POLYLINE
8
0
62
30
66
1
10
0
20
0
30
0
70
8
0
VERTEX
8
0
62
30
10
0.035535024
20
0.71597219
30
0
70
32
0
VERTEX
8
0
62
30
10
0.035535024
20
0.71597219
30
0
70
32
0
SEQEND
8
0
0
POLYLINE
8
0
62
5
66
1
10
0
20
0
30
0
70
8
0
VERTEX
8
0
62
5
10
-0.021033519
20
0.69633106
30
0
70
32
0
VERTEX
8
0
62
5
10
-0.021033519
20
0.69633409
30
0
70
32
0
SEQEND
8
0
0
POLYLINE
8
0
62
5
66
1
10
0
20
0
30
0
70
8
0
VERTEX
8
0
62
5
10
0.0072507527
20
0.69633106
30
0
70
32
0
VERTEX
8
0
62
5
10
0.0072507527
20
0.70639679
30
0
70
32
0
SEQEND
8
0
0
POLYLINE
8
0
62
5
66
1
10
0
20
0
30
0
70
8
0
VERTEX
8
0
62
5
10
0.035535024
20
0.69633106
30
0
70
32
0
VERTEX
8
0
62
5
10
0.035535024
20
0.71597219
30
0
70
32
0
SEQEND
8
0
0
POLYLINE
8
0
62
5
66
1
10
0
20
0
30
0
70
8
0
VERTEX
8
0
62
5
10
-0.021033519
20
0.71597219
30
0
70
32
0
VERTEX
8
0
62
5
10
-0.021033519
20
0.73561332
30
0
70
32
0
SEQEND
8
0
0
POLYLINE
8
0
62
5
66
1
10
0
20
0
30
0
70
8
0
VERTEX
8
0
62
5
10
0.0072507527
20
0.71597219
30
0
70
32
0
VERTEX
8
0
62
5
10
0.0072507527
20
0.73561332
30
0
70
32
0
SEQEND
8
0
0
POLYLINE
8
0
62
5
66
1
10
0
20
0
30
0
70
8
0
VERTEX
8
0
62
5
10
0.035535024
20
0.71597219
30
0
70
32
0
VERTEX
8
0
62
5
10
0.035535024
20
0.73561332
30
0
70
32
0
SEQEND
8
0
0
POLYLINE
8
0
62
5
66
1
10
0
20
0
30
0
70
8
0
VERTEX
8
0
62
5
10
0.063819295
20
0.73561332
30
0
70
32
0
VERTEX
8
0
62
5
10
0.063819295
20
0.77561332
30
0
70
32
0
SEQEND
8
0
0
POLYLINE
8
0
62
5
66
1
10
0
20
0
30
0
70
8
0
VERTEX
8
0
62
5
10
0.17695638
20
0.77561332
30
0
70
32
0
VERTEX
8
0
62
5
10
0.17695638
20
0.73561332
30
0
70
32
0
SEQEND
8
0
0
POLYLINE
8
0
62
5
66
1
10
0
20
0
30
0
70
8
0
VERTEX
8
0
62
5
10
0.063819295
20
0.73561332
30
0
70
32
0
VERTEX
8
0
62
5
10
0.17695638
20
0.73561332
30
0
70
32
0
SEQEND
8
0
0
POLYLINE
8
0
62
5
66
1
10
0
20
0
30
0
70
8
0
VERTEX
8
0
62
5
10
0.063819295
20
0.77561332
30
0
70
32
0
VERTEX
8
0
62
5
10
0.17695638
20
0.77561332
30
0
70
32
0
SEQEND
8
0
0
POLYLINE
8
0
62
5
66
1
10
0
20
0
30
0
70
8
0
VERTEX
8
0
62
5
10
0.092103566
20
0.73561332
30
0
70
32
0
VERTEX
8
0
62
5
10
0.092103566
20
0.73561332
30
0
70
32
0
SEQEND
8
0
0
POLYLINE
8
0
62
5
66
1
10
0
20
0
30
0
70
8
0
VERTEX
8
0
62
5
10
0.12038784
20
0.73561332
30
0
70
32
0
VERTEX
8
0
62
5
10
0.12038784
20
0.73561332
30
0
70
32
0
SEQEND
8
0
0
POLYLINE
8
0
62
5
66
1
10
0
20
0
30
0
70
8
0
VERTEX
8
0
62
5
10
0.14867211
20
0.73561332
30
0
70
32
0
VERTEX
8
0
62
5
10
0.14867211
20
0.73561332
30
0
70
32
0
SEQEND
8
0
0
POLYLINE
8
0
62
5
66
1
10
0
20
0
30
0
70
8
0
VERTEX
8
0
62
5
10
0.092103566
20
0.77561332
30
0
70
32
0
VERTEX
8
0
62
5
10
0.092103566
20
0.77561332
30
0
70
32
0
SEQEND
8
0
0
POLYLINE
8
0
62
5
66
1
10
0
20
0
30
0
70
8
0
VERTEX
8
0
62
5
10
0.12038784
20
0.77561332
30
0
70
32
0
VERTEX
8
0
62
5
10
0.12038784
20
0.77561332
30
0
70
32
0
SEQEND
8
0
0
POLYLINE
8
0
62
5
66
1
10
0
20
0
30
0
70
8
0
VERTEX
8
0
62
5
10
0.14867211
20
0.77561332
30
0
70
32
0
VERTEX
8
0
62
5
10
0.14867211
20
0.77561332
30
0
70
32
0
SEQEND
8
0
0
POLYLINE
8
0
62
30
66
1
10
0
20
0
30
0
70
8
0
VERTEX
8
0
62
30
10
0.063819295
20
0.73561332
30
0
70
32
0
VERTEX
8
0
62
30
10
0.077961431
20
0.75561332
30
0
70
32
0
SEQEND
8
0
0
POLYLINE
8
0
62
30
66
1
10
0
20
0
30
0
70
8
0
VERTEX
8
0
62
30
10
0.077961431
20
0.75561332
30
0
70
32
0
VERTEX
8
0
62
30
10
0.092103566
20
0.73561332
30
0
70
32
0
SEQEND
8
0
0
POLYLINE
8
0
62
30
66
1
10
0
20
0
30
0
70
8
0
VERTEX
8
0
62
30
10
0.12038784
20
0.73561332
30
0
70
32
0
VERTEX
8
0
62
30
10
0.13452997
20
0.75561332
30
0
70
32
0
SEQEND
8
0
0
POLYLINE
8
0
62
30
66
1
10
0
20
0
30
0
70
8
0
VERTEX
8
0
62
30
10
0.13452997
20
0.75561332
30
0
70
32
0
VERTEX
8
0
62
30
10
0.14867211
20
0.73561332
30
0
70
32
0
SEQEND
8
0
0
POLYLINE
8
0
62
30
66
1
10
0
20
0
30
0
70
8
0
VERTEX
8
0
62
30
10
0.092103566
20
0.75561332
30
0
70
32
0
VERTEX
8
0
62
30
10
0.12038784
20
0.75561332
30
0
70
32
0
SEQEND
8
0
0
POLYLINE
8
0
62
30
66
1
10
0
20
0
30
0
70
8
0
VERTEX
8
0
62
30
10
0.14867211
20
0.75561332
30
0
70
32
0
VERTEX
8
0
62
30
10
0.17695638
20
0.75561332
30
0
70
32
0
SEQEND
8
0
0
POLYLINE
8
0
62
5
66
1
10
0
20
0
30
0
70
8
0
VERTEX
8
0
62
5
10
0.063819295
20
0.75561332
30
0
70
32
0
VERTEX
8
0
62
5
10
0.077961431
20
0.75561332
30
0
70
32
0
SEQEND
8
0
0
POLYLINE
8
0
62
5
66
1
10
0
20
0
30
0
70
8
0
VERTEX
8
0
62
5
10
0.12038784
20
0.75561332
30
0
70
32
0
VERTEX
8
0
62
5
10
0.13452997
20
0.75561332
30
0
70
32
0
SEQEND
8
0
0
POLYLINE
8
0
62
5
66
1
10
0
20
0
30
0
70
8
0
VERTEX
8
0
62
5
10
0.077961431
20
0.75561332
30
0
70
32
0
VERTEX
8
0
62
5
10
0.092103566
20
0.75561332
30
0
70
32
0
SEQEND
8
0
0
POLYLINE
8
0
62
5
66
1
10
0
20
0
30
0
70
8
0
VERTEX
8
0
62
5
10
0.13452997
20
0.75561332
30
0
70
32
0
VERTEX
8
0
62
5
10
0.14867211
20
0.75561332
30
0
70
32
0
SEQEND
8
0
0
POLYLINE
8
0
62
5
66
1
10
0
20
0
30
0
70
8
0
VERTEX
8
0
62
5
10
0.092103566
20
0.73561332
30
0
70
32
0
VERTEX
8
0
62
5
10
0.092103566
20
0.77561332
30
0
70
32
0
SEQEND
8
0
0
POLYLINE
8
0
62
5
66
1
10
0
20
0
30
0
70
8
0
VERTEX
8
0
62
5
10
0.12038784
20
0.73561332
30
0
70
32
0
VERTEX
8
0
62
5
10
0.12038784
20
0.77561332
30
0
70
32
0
SEQEND
8
0
0
POLYLINE
8
0
62
5
66
1
10
0
20
0
30
0
70
8
0
VERTEX
8
0
62
5
10
0.14867211
20
0.73561332
30
0
70
32
0
VERTEX
8
0
62
5
10
0.14867211
20
0.77561332
30
0
70
32
0
SEQEND
8
0
0
POLYLINE
8
0
62
5
66
1
10
0
20
0
30
0
70
8
0
VERTEX
8
0
62
5
10
0.063819295
20
0.73561332
30
0
70
32
0
VERTEX
8
0
62
5
10
0.063819295
20
0.77561332
30
0
70
32
0
SEQEND
8
0
0
POLYLINE
8
0
62
5
66
1
10
0
20
0
30
0
70
8
0
VERTEX
8
0
62
5
10
0.29009347
20
0.77561332
30
0
70
32
0
VERTEX
8
0
62
5
10
0.29009347
20
0.73561332
30
0
70
32
0
SEQEND
8
0
0
POLYLINE
8
0
62
5
66
1
10
0
20
0
30
0
70
8
0
VERTEX
8
0
62
5
10
0.17695638
20
0.73561332
30
0
70
32
0
VERTEX
8
0
62
5
10
0.29009347
20
0.73561332
30
0
70
32
0
SEQEND
8
0
0
POLYLINE
8
0
62
5
66
1
10
0
20
0
30
0
70
8
0
VERTEX
8
0
62
5
10
0.17695638
20
0.77561332
30
0
70
32
0
VERTEX
8
0
62
5
10
0.29009347
20
0.77561332
30
0
70
32
0
SEQEND
8
0
0
POLYLINE
8
0
62
5
66
1
10
0
20
0
30
0
70
8
0
VERTEX
8
0
62
5
10
0.20524065
20
0.73561332
30
0
70
32
0
VERTEX
8
0
62
5
10
0.20524065
20
0.73561332
30
0
70
32
0
SEQEND
8
0
0
POLYLINE
8
0
62
5
66
1
10
0
20
0
30
0
70
8
0
VERTEX
8
0
62
5
10
0.23352492
20
0.73561332
30
0
70
32
0
VERTEX
8
0
62
5
10
0.23352492
20
0.73561332
30
0
70
32
0
SEQEND
8
0
0
POLYLINE
8
0
62
5
66
1
10
0
20
0
30
0
70
8
0
VERTEX
8
0
62
5
10
0.26180919
20
0.73561332
30
0
70
32
0
VERTEX
8
0
62
5
10
0.26180919
20
0.73561332
30
0
70
32
0
SEQEND
8
0
0
POLYLINE
8
0
62
5
66
1
10
0
20
0
30
0
70
8
0
VERTEX
8
0
62
5
10
0.20524065
20
0.77561332
30
0
70
32
0
VERTEX
8
0
62
5
10
0.20524065
20
0.77561332
30
0
70
32
0
SEQEND
8
0
0
POLYLINE
8
0
62
5
66
1
10
0
20
0
30
0
70
8
0
VERTEX
8
0
62
5
10
0.23352492
20
0.77561332
30
0
70
32
0
VERTEX
8
0
62
5
10
0.23352492
20
0.77561332
30
0
70
32
0
SEQEND
8
0
0
POLYLINE
8
0
62
5
66
1
10
0
20
0
30
0
70
8
0
VERTEX
8
0
62
5
10
0.26180919
20
0.77561332
30
0
70
32
0
VERTEX
8
0
62
5
10
0.26180919
20
0.77561332
30
0
70
32
0
SEQEND
8
0
0
POLYLINE
8
0
62
30
66
1
10
0
20
0
30
0
70
8
0
VERTEX
8
0
62
30
10
0.17695638
20
0.73561332
30
0
70
32
0
VERTEX
8
0
62
30
10
0.19109852
20
0.75561332
30
0
70
32
0
SEQEND
8
0
0
POLYLINE
8
0
62
30
66
1
10
0
20
0
30
0
70
8
0
VERTEX
8
0
62
30
10
0.19109852
20
0.75561332
30
0
70
32
0
VERTEX
8
0
62
30
10
0.20524065
20
0.73561332
30
0
70
32
0
SEQEND
8
0
0
POLYLINE
8
0
62
30
66
1
10
0
20
0
30
0
70
8
0
VERTEX
8
0
62
30
10
0.23352492
20
0.73561332
30
0
70
32
0
VERTEX
8
0
62
30
10
0.24766706
20
0.75561332
30
0
70
32
0
SEQEND
8
0
0
POLYLINE
8
0
62
30
66
1
10
0
20
0
30
0
70
8
0
VERTEX
8
0
62
30
10
0.24766706
20
0.75561332
30
0
70
32
0
VERTEX
8
0
62
30
10
0.26180919
20
0.73561332
30
0
70
32
0
SEQEND
8
0
0
POLYLINE
8
0
62
30
66
1
10
0
20
0
30
0
70
8
0
VERTEX
8
0
62
30
10
0.20524065
20
0.75561332
30
0
70
32
0
VERTEX
8
0
62
30
10
0.23352492
20
0.75561332
30
0
70
32
0
SEQEND
8
0
0
POLYLINE
8
0
62
30
66
1
10
0
20
0
30
0
70
8
0
VERTEX
8
0
62
30
10
0.26180919
20
0.75561332
30
0
70
32
0
VERTEX
8
0
62
30
10
0.29009347
20
0.75561332
30
0
70
32
0
SEQEND
8
0
0
POLYLINE
8
0
62
5
66
1
10
0
20
0
30
0
70
8
0
VERTEX
8
0
62
5
10
0.17695638
20
0.75561332
30
0
70
32
0
VERTEX
8
0
62
5
10
0.19109852
20
0.75561332
30
0
70
32
0
SEQEND
8
0
0
POLYLINE
8
0
62
5
66
1
10
0
20
0
30
0
70
8
0
VERTEX
8
0
62
5
10
0.23352492
20
0.75561332
30
0
70
32
0
VERTEX
8
0
62
5
10
0.24766706
20
0.75561332
30
0
70
32
0
SEQEND
8
0
0
POLYLINE
8
0
62
5
66
1
10
0
20
0
30
0
70
8
0
VERTEX
8
0
62
5
10
0.19109852
20
0.75561332
30
0
70
32
0
VERTEX
8
0
62
5
10
0.20524065
20
0.75561332
30
0
70
32
0
SEQEND
8
0
0
POLYLINE
8
0
62
5
66
1
10
0
20
0
30
0
70
8
0
VERTEX
8
0
62
5
10
0.24766706
20
0.75561332
30
0
70
32
0
VERTEX
8
0
62
5
10
0.26180919
20
0.75561332
30
0
70
32
0
SEQEND
8
0
0
POLYLINE
8
0
62
5
66
1
10
0
20
0
30
0
70
8
0
VERTEX
8
0
62
5
10
0.20524065
20
0.73561332
30
0
70
32
0
VERTEX
8
0
62
5
10
0.20524065
20
0.77561332
30
0
70
32
0
SEQEND
8
0
0
POLYLINE
8
0
62
5
66
1
10
0
20
0
30
0
70
8
0
VERTEX
8
0
62
5
10
0.23352492
20
0.73561332
30
0
70
32
0
VERTEX
8
0
62
5
10
0.23352492
20
0.77561332
30
0
70
32
0
SEQEND
8
0
0
POLYLINE
8
0
62
5
66
1
10
0
20
0
30
0
70
8
0
VERTEX
8
0
62
5
10
0.26180919
20
0.73561332
30
0
70
32
0
VERTEX
8
0
62
5
10
0.26180919
20
0.77561332
30
0
70
32
0
SEQEND
8
0
0
POLYLINE
8
0
62
5
66
1
10
0
20
0
30
0
70
8
0
VERTEX
8
0
62
5
10
0.17695638
20
0.73561332
30
0
70
32
0
VERTEX
8
0
62
5
10
0.17695638
20
0.77561332
30
0
70
32
0
SEQEND
8
0
0
POLYLINE
8
0
62
5
66
1
10
0
20
0
30
0
70
8
0
VERTEX
8
0
62
5
10
-0.04931779
20
0.73561332
30
0
70
32
0
VERTEX
8
0
62
5
10
-0.04931779
20
0.77561332
30
0
70
32
0
SEQEND
8
0
0
POLYLINE
8
0
62
5
66
1
10
0
20
0
30
0
70
8
0
VERTEX
8
0
62
5
10
-0.04931779
20
0.73561332
30
0
70
32
0
VERTEX
8
0
62
5
10
0.063819295
20
0.73561332
30
0
70
32
0
SEQEND
8
0
0
POLYLINE
8
0
62
5
66
1
10
0
20
0
30
0
70
8
0
VERTEX
8
0
62
5
10
-0.04931779
20
0.77561332
30
0
70
32
0
VERTEX
8
0
62
5
10
0.063819295
20
0.77561332
30
0
70
32
0
SEQEND
8
0
0
POLYLINE
8
0
62
5
66
1
10
0
20
0
30
0
70
8
0
VERTEX
8
0
62
5
10
-0.021033519
20
0.73561332
30
0
70
32
0
VERTEX
8
0
62
5
10
-0.021033519
20
0.73561332
30
0
70
32
0
SEQEND
8
0
0
POLYLINE
8
0
62
5
66
1
10
0
20
0
30
0
70
8
0
VERTEX
8
0
62
5
10
0.0072507527
20
0.73561332
30
0
70
32
0
VERTEX
8
0
62
5
10
0.0072507527
20
0.73561332
30
0
70
32
0
SEQEND
8
0
0
POLYLINE
8
0
62
5
66
1
10
0
20
0
30
0
70
8
0
VERTEX
8
0
62
5
10
0.035535024
20
0.73561332
30
0
70
32
0
VERTEX
8
0
62
5
10
0.035535024
20
0.73561332
30
0
70
32
0
SEQEND
8
0
0
POLYLINE
8
0
62
5
66
1
10
0
20
0
30
0
70
8
0
VERTEX
8
0
62
5
10
-0.021033519
20
0.77561332
30
0
70
32
0
VERTEX
8
0
62
5
10
-0.021033519
20
0.77561332
30
0
70
32
0
SEQEND
8
0
0
POLYLINE
8
0
62
5
66
1
10
0
20
0
30
0
70
8
0
VERTEX
8
0
62
5
10
0.0072507527
20
0.77561332
30
0
70
32
0
VERTEX
8
0
62
5
10
0.0072507527
20
0.77561332
30
0
70
32
0
SEQEND
8
0
0
POLYLINE
8
0
62
5
66
1
10
0
20
0
30
0
70
8
0
VERTEX
8
0
62
5
10
0.035535024
20
0.77561332
30
0
70
32
0
VERTEX
8
0
62
5
10
0.035535024
20
0.77561332
30
0
70
32
0
SEQEND
8
0
0
POLYLINE
8
0
62
30
66
1
10
0
20
0
30
0
70
8
0
VERTEX
8
0
62
30
10
-0.04931779
20
0.73561332
30
0
70
32
0
VERTEX
8
0
62
30
10
-0.035175654
20
0.75561332
30
0
70
32
0
SEQEND
8
0
0
POLYLINE
8
0
62
30
66
1
10
0
20
0
30
0
70
8
0
VERTEX
8
0
62
30
10
-0.035175654
20
0.75561332
30
0
70
32
0
VERTEX
8
0
62
30
10
-0.021033519
20
0.73561332
30
0
70
32
0
SEQEND
8
0
0
POLYLINE
8
0
62
30
66
1
10
0
20
0
30
0
70
8
0
VERTEX
8
0
62
30
10
0.0072507527
20
0.73561332
30
0
70
32
0
VERTEX
8
0
62
30
10
0.021392888
20
0.75561332
30
0
70
32
0
SEQEND
8
0
0
POLYLINE
8
0
62
30
66
1
10
0
20
0
30
0
70
8
0
VERTEX
8
0
62
30
10
0.021392888
20
0.75561332
30
0
70
32
0
VERTEX
8
0
62
30
10
0.035535024
20
0.73561332
30
0
70
32
0
SEQEND
8
0
0
POLYLINE
8
0
62
30
66
1
10
0
20
0
30
0
70
8
0
VERTEX
8
0
62
30
10
-0.021033519
20
0.75561332
30
0
70
32
0
VERTEX
8
0
62
30
10
0.0072507527
20
0.75561332
30
0
70
32
0
SEQEND
8
0
0
POLYLINE
8
0
62
30
66
1
10
0
20
0
30
0
70
8
0
VERTEX
8
0
62
30
10
0.035535024
20
0.75561332
30
0
70
32
0
VERTEX
8
0
62
30
10
0.063819295
20
0.75561332
30
0
70
32
0
SEQEND
8
0
0
POLYLINE
8
0
62
5
66
1
10
0
20
0
30
0
70
8
0
VERTEX
8
0
62
5
10
-0.04931779
20
0.75561332
30
0
70
32
0
VERTEX
8
0
62
5
10
-0.035175654
20
0.75561332
30
0
70
32
0
SEQEND
8
0
0
POLYLINE
8
0
62
5
66
1
10
0
20
0
30
0
70
8
0
VERTEX
8
0
62
5
10
0.0072507527
20
0.75561332
30
0
70
32
0
VERTEX
8
0
62
5
10
0.021392888
20
0.75561332
30
0
70
32
0
SEQEND
8
0
0
POLYLINE
8
0
62
5
66
1
10
0
20
0
30
0
70
8
0
VERTEX
8
0
62
5
10
-0.035175654
20
0.75561332
30
0
70
32
0
VERTEX
8
0
62
5
10
-0.021033519
20
0.75561332
30
0
70
32
0
SEQEND
8
0
0
POLYLINE
8
0
62
5
66
1
10
0
20
0
30
0
70
8
0
VERTEX
8
0
62
5
10
0.021392888
20
0.75561332
30
0
70
32
0
VERTEX
8
0
62
5
10
0.035535024
20
0.75561332
30
0
70
32
0
SEQEND
8
0
0
POLYLINE
8
0
62
5
66
1
10
0
20
0
30
0
70
8
0
VERTEX
8
0
62
5
10
-0.021033519
20
0.73561332
30
0
70
32
0
VERTEX
8
0
62
5
10
-0.021033519
20
0.77561332
30
0
70
32
0
SEQEND
8
0
0
POLYLINE
8
0
62
5
66
1
10
0
20
0
30
0
70
8
0
VERTEX
8
0
62
5
10
0.0072507527
20
0.73561332
30
0
70
32
0
VERTEX
8
0
62
5
10
0.0072507527
20
0.77561332
30
0
70
32
0
SEQEND
8
0
0
POLYLINE
8
0
62
5
66
1
10
0
20
0
30
0
70
8
0
VERTEX
8
0
62
5
10
0.035535024
20
0.73561332
30
0
70
32
0
VERTEX
8
0
62
5
10
0.035535024
20
0.77561332
30
0
70
32
0
SEQEND
8
0
0
POLYLINE
8
0
62
5
66
1
10
0
20
0
30
0
70
8
0
VERTEX
8
0
62
5
10
-0.04931779
20
0.73561332
30
0
70
32
0
VERTEX
8
0
62
5
10
-0.04931779
20
0.77561332
30
0
70
32
0
SEQEND
8
0
0
POLYLINE
8
0
62
18
66
1
10
0
20
0
30
0
70
8
0
VERTEX
8
0
62
18
10
0
20
0
30
0
70
32
0
VERTEX
8
0
62
18
10
0.14142136
20
0
30
0
70
32
0
VERTEX
8
0
62
18
10
0.14142136
20
0.16795056
30
0
70
32
0
VERTEX
8
0
62
18
10
0
20
0.16795056
30
0
70
32
0
VERTEX
8
0
62
18
10
0
20
0
30
0
70
32
0
SEQEND
8
0
0
POLYLINE
8
0
62
5
66
1
10
0
20
0
30
0
70
8
0
VERTEX
8
0
62
5
10
0
20
0.16795056
30
0
70
32
0
VERTEX
8
0
62
5
10
0.14142136
20
0.16795056
30
0
70
32
0
SEQEND
8
0
0
POLYLINE
8
0
62
18
66
1
10
0
20
0
30
0
70
8
0
VERTEX
8
0
62
18
10
0
20
0.14795056
30
0
70
32
0
VERTEX
8
0
62
18
10
0.14142136
20
0.14795056
30
0
70
32
0
VERTEX
8
0
62
18
10
0.14142136
20
0.42054929
30
0
70
32
0
VERTEX
8
0
62
18
10
0
20
0.42054929
30
0
70
32
0
VERTEX
8
0
62
18
10
0
20
0.14795056
30
0
70
32
0
SEQEND
8
0
0
POLYLINE
8
0
62
5
66
1
10
0
20
0
30
0
70
8
0
VERTEX
8
0
62
5
10
0
20
0.42054929
30
0
70
32
0
VERTEX
8
0
62
5
10
0.14142136
20
0.42054929
30
0
70
32
0
SEQEND
8
0
0
POLYLINE
8
0
62
18
66
1
10
0
20
0
30
0
70
8
0
VERTEX
8
0
62
18
10
0
20
0.40054929
30
0
70
32
0
VERTEX
8
0
62
18
10
0.14142136
20
0.40054929
30
0
70
32
0
VERTEX
8
0
62
18
10
0.14142136
20
0.67895821
30
0
70
32
0
VERTEX
8
0
62
18
10
0
20
0.67895821
30
0
70
32
0
VERTEX
8
0
62
18
10
0
20
0.40054929
30
0
70
32
0
SEQEND
8
0
0
POLYLINE
8
0
62
18
66
1
10
0
20
0
30
0
70
8
0
VERTEX
8
0
62
18
10
0
20
0.65895821
30
0
70
32
0
VERTEX
8
0
62
18
10
0.14142136
20
0.65895821
30
0
70
32
0
VERTEX
8
0
62
18
10
0.14142136
20
0.73561332
30
0
70
32
0
VERTEX
8
0
62
18
10
0
20
0.73561332
30
0
70
32
0
VERTEX
8
0
62
18
10
0
20
0.65895821
30
0
70
32
0
SEQEND
8
0
0
POLYLINE
8
0
62
5
66
1
10
0
20
0
30
0
70
8
0
VERTEX
8
0
62
5
10
0
20
0.67895821
30
0
70
32
0
VERTEX
8
0
62
5
10
0.14142136
20
0.67895821
30
0
70
32
0
SEQEND
8
0
0
POLYLINE
8
0
62
18
66
1
10
0
20
0
30
0
70
8
0
VERTEX
8
0
62
18
10
0.14142136
20
0
30
0
70
32
0
VERTEX
8
0
62
18
10
0
20
0
30
0
70
32
0
VERTEX
8
0
62
18
10
0
20
0.77561332
30
0
70
32
0
VERTEX
8
0
62
18
10
0.14142136
20
0.77561332
30
0
70
32
0
VERTEX
8
0
62
18
10
0.14142136
20
0
30
0
70
32
0
SEQEND
8
0
0
ENDSEC
0
EOF
