0
SECTION
2
HEADER
9
$ACADVER
1
AC1006
9
$INSUNITS
70
6
0
ENDSEC
0
SECTION
2
ENTITIES
0
POLYLINE
8
0
62
5
66
1
10
0
20
0
30
0
70
8
0
VERTEX
8
0
62
5
10
0
20
0
30
0
70
32
0
VERTEX
8
0
62
5
10
0
20
0.1
30
0
70
32
0
SEQEND
8
0
0
POLYLINE
8
0
62
5
66
1
10
0
20
0
30
0
70
8
0
VERTEX
8
0
62
5
10
0.28284271
20
0
30
0
70
32
0
VERTEX
8
0
62
5
10
0.28284271
20
0.1
30
0
70
32
0
SEQEND
8
0
0
POLYLINE
8
0
62
5
66
1
10
0
20
0
30
0
70
8
0
VERTEX
8
0
62
5
10
0.070710678
20
0
30
0
70
32
0
VERTEX
8
0
62
5
10
0.070710678
20
0.1
30
0
70
32
0
SEQEND
8
0
0
POLYLINE
8
0
62
5
66
1
10
0
20
0
30
0
70
8
0
VERTEX
8
0
62
5
10
0.14142136
20
0
30
0
70
32
0
VERTEX
8
0
62
5
10
0.14142136
20
0.1
30
0
70
32
0
SEQEND
8
0
0
POLYLINE
8
0
62
5
66
1
10
0
20
0
30
0
70
8
0
VERTEX
8
0
62
5
10
0.21213203
20
0
30
0
70
32
0
VERTEX
8
0
62
5
10
0.21213203
20
0.1
30
0
70
32
0
SEQEND
8
0
0
POLYLINE
8
0
62
5
66
1
10
0
20
0
30
0
70
8
0
VERTEX
8
0
62
5
10
0.56568542
20
0
30
0
70
32
0
VERTEX
8
0
62
5
10
0.56568542
20
0.1
30
0
70
32
0
SEQEND
8
0
0
POLYLINE
8
0
62
5
66
1
10
0
20
0
30
0
70
8
0
VERTEX
8
0
62
5
10
0.35355339
20
0
30
0
70
32
0
VERTEX
8
0
62
5
10
0.35355339
20
0.1
30
0
70
32
0
SEQEND
8
0
0
POLYLINE
8
0
62
5
66
1
10
0
20
0
30
0
70
8
0
VERTEX
8
0
62
5
10
0.42426407
20
0
30
0
70
32
0
VERTEX
8
0
62
5
10
0.42426407
20
0.1
30
0
70
32
0
SEQEND
8
0
0
POLYLINE
8
0
62
5
66
1
10
0
20
0
30
0
70
8
0
VERTEX
8
0
62
5
10
0.49497475
20
0
30
0
70
32
0
VERTEX
8
0
62
5
10
0.49497475
20
0.1
30
0
70
32
0
SEQEND
8
0
0
POLYLINE
8
0
62
5
66
1
10
0
20
0
30
0
70
8
0
VERTEX
8
0
62
5
10
-0.28284271
20
0
30
0
70
32
0
VERTEX
8
0
62
5
10
-0.28284271
20
0.1
30
0
70
32
0
SEQEND
8
0
0
POLYLINE
8
0
62
5
66
1
10
0
20
0
30
0
70
8
0
VERTEX
8
0
62
5
10
-0.21213203
20
0
30
0
70
32
0
VERTEX
8
0
62
5
10
-0.21213203
20
0.1
30
0
70
32
0
SEQEND
8
0
0
POLYLINE
8
0
62
5
66
1
10
0
20
0
30
0
70
8
0
VERTEX
8
0
62
5
10
-0.14142136
20
0
30
0
70
32
0
VERTEX
8
0
62
5
10
-0.14142136
20
0.1
30
0
70
32
0
SEQEND
8
0
0
POLYLINE
8
0
62
5
66
1
10
0
20
0
30
0
70
8
0
VERTEX
8
0
62
5
10
-0.070710678
20
0
30
0
70
32
0
VERTEX
8
0
62
5
10
-0.070710678
20
0.1
30
0
70
32
0
SEQEND
8
0
0
POLYLINE
8
0
62
5
66
1
10
0
20
0
30
0
70
8
0
VERTEX
8
0
62
5
10
0
20
0.1
30
0
70
32
0
VERTEX
8
0
62
5
10
0
20
0.101
30
0
70
32
0
SEQEND
8
0
0
POLYLINE
8
0
62
5
66
1
10
0
20
0
30
0
70
8
0
VERTEX
8
0
62
5
10
0.28284271
20
0.1
30
0
70
32
0
VERTEX
8
0
62
5
10
0.28284271
20
0.101
30
0
70
32
0
SEQEND
8
0
0
POLYLINE
8
0
62
5
66
1
10
0
20
0
30
0
70
8
0
VERTEX
8
0
62
5
10
0.070710678
20
0.1
30
0
70
32
0
VERTEX
8
0
62
5
10
0.070710678
20
0.101
30
0
70
32
0
SEQEND
8
0
0
POLYLINE
8
0
62
5
66
1
10
0
20
0
30
0
70
8
0
VERTEX
8
0
62
5
10
0.14142136
20
0.1
30
0
70
32
0
VERTEX
8
0
62
5
10
0.14142136
20
0.101
30
0
70
32
0
SEQEND
8
0
0
POLYLINE
8
0
62
5
66
1
10
0
20
0
30
0
70
8
0
VERTEX
8
0
62
5
10
0.21213203
20
0.1
30
0
70
32
0
VERTEX
8
0
62
5
10
0.21213203
20
0.101
30
0
70
32
0
SEQEND
8
0
0
POLYLINE
8
0
62
5
66
1
10
0
20
0
30
0
70
8
0
VERTEX
8
0
62
5
10
0.56568542
20
0.1
30
0
70
32
0
VERTEX
8
0
62
5
10
0.56568542
20
0.101
30
0
70
32
0
SEQEND
8
0
0
POLYLINE
8
0
62
5
66
1
10
0
20
0
30
0
70
8
0
VERTEX
8
0
62
5
10
0.35355339
20
0.1
30
0
70
32
0
VERTEX
8
0
62
5
10
0.35355339
20
0.101
30
0
70
32
0
SEQEND
8
0
0
POLYLINE
8
0
62
5
66
1
10
0
20
0
30
0
70
8
0
VERTEX
8
0
62
5
10
0.42426407
20
0.1
30
0
70
32
0
VERTEX
8
0
62
5
10
0.42426407
20
0.101
30
0
70
32
0
SEQEND
8
0
0
POLYLINE
8
0
62
5
66
1
10
0
20
0
30
0
70
8
0
VERTEX
8
0
62
5
10
0.49497475
20
0.1
30
0
70
32
0
VERTEX
8
0
62
5
10
0.49497475
20
0.101
30
0
70
32
0
SEQEND
8
0
0
POLYLINE
8
0
62
5
66
1
10
0
20
0
30
0
70
8
0
VERTEX
8
0
62
5
10
-0.28284271
20
0.1
30
0
70
32
0
VERTEX
8
0
62
5
10
-0.28284271
20
0.101
30
0
70
32
0
SEQEND
8
0
0
POLYLINE
8
0
62
5
66
1
10
0
20
0
30
0
70
8
0
VERTEX
8
0
62
5
10
-0.21213203
20
0.1
30
0
70
32
0
VERTEX
8
0
62
5
10
-0.21213203
20
0.101
30
0
70
32
0
SEQEND
8
0
0
POLYLINE
8
0
62
5
66
1
10
0
20
0
30
0
70
8
0
VERTEX
8
0
62
5
10
-0.14142136
20
0.1
30
0
70
32
0
VERTEX
8
0
62
5
10
-0.14142136
20
0.101
30
0
70
32
0
SEQEND
8
0
0
POLYLINE
8
0
62
5
66
1
10
0
20
0
30
0
70
8
0
VERTEX
8
0
62
5
10
-0.070710678
20
0.1
30
0
70
32
0
VERTEX
8
0
62
5
10
-0.070710678
20
0.101
30
0
70
32
0
SEQEND
8
0
0
POLYLINE
8
0
62
5
66
1
10
0
20
0
30
0
70
8
0
VERTEX
8
0
62
5
10
0
20
0.101
30
0
70
32
0
VERTEX
8
0
62
5
10
0
20
0.12870253
30
0
70
32
0
SEQEND
8
0
0
POLYLINE
8
0
62
5
66
1
10
0
20
0
30
0
70
8
0
VERTEX
8
0
62
5
10
0.28284271
20
0.12870253
30
0
70
32
0
VERTEX
8
0
62
5
10
0.28284271
20
0.101
30
0
70
32
0
SEQEND
8
0
0
POLYLINE
8
0
62
5
66
1
10
0
20
0
30
0
70
8
0
VERTEX
8
0
62
5
10
0
20
0.11485126
30
0
70
32
0
VERTEX
8
0
62
5
10
0.070710678
20
0.11485126
30
0
70
32
0
VERTEX
8
0
62
5
10
0.14142136
20
0.1033765
30
0
70
32
0
VERTEX
8
0
62
5
10
0.21213203
20
0.1033765
30
0
70
32
0
VERTEX
8
0
62
5
10
0.28284271
20
0.11485126
30
0
70
32
0
SEQEND
8
0
0
POLYLINE
8
0
62
5
66
1
10
0
20
0
30
0
70
8
0
SEQEND
8
0
0
POLYLINE
8
0
62
5
66
1
10
0
20
0
30
0
70
8
0
VERTEX
8
0
62
5
10
0
20
0.11485126
30
0
70
32
0
VERTEX
8
0
62
5
10
0.070710678
20
0.11485126
30
0
70
32
0
VERTEX
8
0
62
5
10
0.14142136
20
0.12632603
30
0
70
32
0
VERTEX
8
0
62
5
10
0.21213203
20
0.12632603
30
0
70
32
0
VERTEX
8
0
62
5
10
0.28284271
20
0.11485126
30
0
70
32
0
SEQEND
8
0
0
POLYLINE
8
0
62
30
66
1
10
0
20
0
30
0
70
8
0
VERTEX
8
0
62
30
10
0
20
0.11485126
30
0
70
32
0
VERTEX
8
0
62
30
10
0.28284271
20
0.11485126
30
0
70
32
0
SEQEND
8
0
0
POLYLINE
8
0
62
30
66
1
10
0
20
0
30
0
70
8
0
VERTEX
8
0
62
30
10
0.070710678
20
0.11485126
30
0
70
32
0
VERTEX
8
0
62
30
10
0.070710678
20
0.11485126
30
0
70
32
0
SEQEND
8
0
0
POLYLINE
8
0
62
30
66
1
10
0
20
0
30
0
70
8
0
VERTEX
8
0
62
30
10
0.14142136
20
0.1033765
30
0
70
32
0
VERTEX
8
0
62
30
10
0.14142136
20
0.11485126
30
0
70
32
0
SEQEND
8
0
0
POLYLINE
8
0
62
30
66
1
10
0
20
0
30
0
70
8
0
VERTEX
8
0
62
30
10
0.21213203
20
0.1033765
30
0
70
32
0
VERTEX
8
0
62
30
10
0.21213203
20
0.11485126
30
0
70
32
0
SEQEND
8
0
0
POLYLINE
8
0
62
5
66
1
10
0
20
0
30
0
70
8
0
VERTEX
8
0
62
5
10
0.070710678
20
0.101
30
0
70
32
0
VERTEX
8
0
62
5
10
0.070710678
20
0.11485126
30
0
70
32
0
SEQEND
8
0
0
POLYLINE
8
0
62
5
66
1
10
0
20
0
30
0
70
8
0
VERTEX
8
0
62
5
10
0.14142136
20
0.101
30
0
70
32
0
VERTEX
8
0
62
5
10
0.14142136
20
0.1033765
30
0
70
32
0
SEQEND
8
0
0
POLYLINE
8
0
62
5
66
1
10
0
20
0
30
0
70
8
0
VERTEX
8
0
62
5
10
0.21213203
20
0.101
30
0
70
32
0
VERTEX
8
0
62
5
10
0.21213203
20
0.1033765
30
0
70
32
0
SEQEND
8
0
0
POLYLINE
8
0
62
5
66
1
10
0
20
0
30
0
70
8
0
VERTEX
8
0
62
5
10
0.070710678
20
0.11485126
30
0
70
32
0
VERTEX
8
0
62
5
10
0.070710678
20
0.12870253
30
0
70
32
0
SEQEND
8
0
0
POLYLINE
8
0
62
5
66
1
10
0
20
0
30
0
70
8
0
VERTEX
8
0
62
5
10
0.14142136
20
0.11485126
30
0
70
32
0
VERTEX
8
0
62
5
10
0.14142136
20
0.12870253
30
0
70
32
0
SEQEND
8
0
0
POLYLINE
8
0
62
5
66
1
10
0
20
0
30
0
70
8
0
VERTEX
8
0
62
5
10
0.21213203
20
0.11485126
30
0
70
32
0
VERTEX
8
0
62
5
10
0.21213203
20
0.12870253
30
0
70
32
0
SEQEND
8
0
0
POLYLINE
8
0
62
30
66
1
10
0
20
0
30
0
70
8
0
VERTEX
8
0
62
30
10
0
20
0.11485126
30
0
70
32
0
VERTEX
8
0
62
30
10
0
20
0.11485126
30
0
70
32
0
VERTEX
8
0
62
30
10
0
20
0.11485126
30
0
70
32
0
SEQEND
8
0
0
POLYLINE
8
0
62
30
66
1
10
0
20
0
30
0
70
8
0
VERTEX
8
0
62
30
10
0.070710678
20
0.11485126
30
0
70
32
0
VERTEX
8
0
62
30
10
0.070710678
20
0.11485126
30
0
70
32
0
VERTEX
8
0
62
30
10
0.070710678
20
0.11485126
30
0
70
32
0
SEQEND
8
0
0
POLYLINE
8
0
62
30
66
1
10
0
20
0
30
0
70
8
0
VERTEX
8
0
62
30
10
0.14142136
20
0.1033765
30
0
70
32
0
VERTEX
8
0
62
30
10
0.15118413
20
0.11485126
30
0
70
32
0
VERTEX
8
0
62
30
10
0.14142136
20
0.12632603
30
0
70
32
0
SEQEND
8
0
0
POLYLINE
8
0
62
30
66
1
10
0
20
0
30
0
70
8
0
VERTEX
8
0
62
30
10
0.21213203
20
0.1033765
30
0
70
32
0
VERTEX
8
0
62
30
10
0.22189481
20
0.11485126
30
0
70
32
0
VERTEX
8
0
62
30
10
0.21213203
20
0.12632603
30
0
70
32
0
SEQEND
8
0
0
POLYLINE
8
0
62
5
66
1
10
0
20
0
30
0
70
8
0
VERTEX
8
0
62
5
10
0.56568542
20
0.12870253
30
0
70
32
0
VERTEX
8
0
62
5
10
0.56568542
20
0.101
30
0
70
32
0
SEQEND
8
0
0
POLYLINE
8
0
62
5
66
1
10
0
20
0
30
0
70
8
0
VERTEX
8
0
62
5
10
0.28284271
20
0.11485126
30
0
70
32
0
VERTEX
8
0
62
5
10
0.35355339
20
0.11485126
30
0
70
32
0
VERTEX
8
0
62
5
10
0.42426407
20
0.1033765
30
0
70
32
0
VERTEX
8
0
62
5
10
0.49497475
20
0.1033765
30
0
70
32
0
VERTEX
8
0
62
5
10
0.56568542
20
0.11485126
30
0
70
32
0
SEQEND
8
0
0
POLYLINE
8
0
62
5
66
1
10
0
20
0
30
0
70
8
0
SEQEND
8
0
0
POLYLINE
8
0
62
5
66
1
10
0
20
0
30
0
70
8
0
VERTEX
8
0
62
5
10
0.28284271
20
0.11485126
30
0
70
32
0
VERTEX
8
0
62
5
10
0.35355339
20
0.11485126
30
0
70
32
0
VERTEX
8
0
62
5
10
0.42426407
20
0.12632603
30
0
70
32
0
VERTEX
8
0
62
5
10
0.49497475
20
0.12632603
30
0
70
32
0
VERTEX
8
0
62
5
10
0.56568542
20
0.11485126
30
0
70
32
0
SEQEND
8
0
0
POLYLINE
8
0
62
30
66
1
10
0
20
0
30
0
70
8
0
VERTEX
8
0
62
30
10
0.28284271
20
0.11485126
30
0
70
32
0
VERTEX
8
0
62
30
10
0.56568542
20
0.11485126
30
0
70
32
0
SEQEND
8
0
0
POLYLINE
8
0
62
30
66
1
10
0
20
0
30
0
70
8
0
VERTEX
8
0
62
30
10
0.35355339
20
0.11485126
30
0
70
32
0
VERTEX
8
0
62
30
10
0.35355339
20
0.11485126
30
0
70
32
0
SEQEND
8
0
0
POLYLINE
8
0
62
30
66
1
10
0
20
0
30
0
70
8
0
VERTEX
8
0
62
30
10
0.42426407
20
0.1033765
30
0
70
32
0
VERTEX
8
0
62
30
10
0.42426407
20
0.11485126
30
0
70
32
0
SEQEND
8
0
0
POLYLINE
8
0
62
30
66
1
10
0
20
0
30
0
70
8
0
VERTEX
8
0
62
30
10
0.49497475
20
0.1033765
30
0
70
32
0
VERTEX
8
0
62
30
10
0.49497475
20
0.11485126
30
0
70
32
0
SEQEND
8
0
0
POLYLINE
8
0
62
5
66
1
10
0
20
0
30
0
70
8
0
VERTEX
8
0
62
5
10
0.35355339
20
0.101
30
0
70
32
0
VERTEX
8
0
62
5
10
0.35355339
20
0.11485126
30
0
70
32
0
SEQEND
8
0
0
POLYLINE
8
0
62
5
66
1
10
0
20
0
30
0
70
8
0
VERTEX
8
0
62
5
10
0.42426407
20
0.101
30
0
70
32
0
VERTEX
8
0
62
5
10
0.42426407
20
0.1033765
30
0
70
32
0
SEQEND
8
0
0
POLYLINE
8
0
62
5
66
1
10
0
20
0
30
0
70
8
0
VERTEX
8
0
62
5
10
0.49497475
20
0.101
30
0
70
32
0
VERTEX
8
0
62
5
10
0.49497475
20
0.1033765
30
0
70
32
0
SEQEND
8
0
0
POLYLINE
8
0
62
5
66
1
10
0
20
0
30
0
70
8
0
VERTEX
8
0
62
5
10
0.35355339
20
0.11485126
30
0
70
32
0
VERTEX
8
0
62
5
10
0.35355339
20
0.12870253
30
0
70
32
0
SEQEND
8
0
0
POLYLINE
8
0
62
5
66
1
10
0
20
0
30
0
70
8
0
VERTEX
8
0
62
5
10
0.42426407
20
0.11485126
30
0
70
32
0
VERTEX
8
0
62
5
10
0.42426407
20
0.12870253
30
0
70
32
0
SEQEND
8
0
0
POLYLINE
8
0
62
5
66
1
10
0
20
0
30
0
70
8
0
VERTEX
8
0
62
5
10
0.49497475
20
0.11485126
30
0
70
32
0
VERTEX
8
0
62
5
10
0.49497475
20
0.12870253
30
0
70
32
0
SEQEND
8
0
0
POLYLINE
8
0
62
30
66
1
10
0
20
0
30
0
70
8
0
VERTEX
8
0
62
30
10
0.28284271
20
0.11485126
30
0
70
32
0
VERTEX
8
0
62
30
10
0.28284271
20
0.11485126
30
0
70
32
0
VERTEX
8
0
62
30
10
0.28284271
20
0.11485126
30
0
70
32
0
SEQEND
8
0
0
POLYLINE
8
0
62
30
66
1
10
0
20
0
30
0
70
8
0
VERTEX
8
0
62
30
10
0.35355339
20
0.11485126
30
0
70
32
0
VERTEX
8
0
62
30
10
0.35355339
20
0.11485126
30
0
70
32
0
VERTEX
8
0
62
30
10
0.35355339
20
0.11485126
30
0
70
32
0
SEQEND
8
0
0
POLYLINE
8
0
62
30
66
1
10
0
20
0
30
0
70
8
0
VERTEX
8
0
62
30
10
0.42426407
20
0.1033765
30
0
70
32
0
VERTEX
8
0
62
30
10
0.43402684
20
0.11485126
30
0
70
32
0
VERTEX
8
0
62
30
10
0.42426407
20
0.12632603
30
0
70
32
0
SEQEND
8
0
0
POLYLINE
8
0
62
30
66
1
10
0
20
0
30
0
70
8
0
VERTEX
8
0
62
30
10
0.49497475
20
0.1033765
30
0
70
32
0
VERTEX
8
0
62
30
10
0.50473752
20
0.11485126
30
0
70
32
0
VERTEX
8
0
62
30
10
0.49497475
20
0.12632603
30
0
70
32
0
SEQEND
8
0
0
POLYLINE
8
0
62
5
66
1
10
0
20
0
30
0
70
8
0
VERTEX
8
0
62
5
10
-0.28284271
20
0.101
30
0
70
32
0
VERTEX
8
0
62
5
10
-0.28284271
20
0.12870253
30
0
70
32
0
SEQEND
8
0
0
POLYLINE
8
0
62
5
66
1
10
0
20
0
30
0
70
8
0
VERTEX
8
0
62
5
10
-0.28284271
20
0.11485126
30
0
70
32
0
VERTEX
8
0
62
5
10
-0.21213203
20
0.11485126
30
0
70
32
0
VERTEX
8
0
62
5
10
-0.14142136
20
0.1033765
30
0
70
32
0
VERTEX
8
0
62
5
10
-0.070710678
20
0.1033765
30
0
70
32
0
VERTEX
8
0
62
5
10
0
20
0.11485126
30
0
70
32
0
SEQEND
8
0
0
POLYLINE
8
0
62
5
66
1
10
0
20
0
30
0
70
8
0
SEQEND
8
0
0
POLYLINE
8
0
62
5
66
1
10
0
20
0
30
0
70
8
0
VERTEX
8
0
62
5
10
-0.28284271
20
0.11485126
30
0
70
32
0
VERTEX
8
0
62
5
10
-0.21213203
20
0.11485126
30
0
70
32
0
VERTEX
8
0
62
5
10
-0.14142136
20
0.12632603
30
0
70
32
0
VERTEX
8
0
62
5
10
-0.070710678
20
0.12632603
30
0
70
32
0
VERTEX
8
0
62
5
10
0
20
0.11485126
30
0
70
32
0
SEQEND
8
0
0
POLYLINE
8
0
62
30
66
1
10
0
20
0
30
0
70
8
0
VERTEX
8
0
62
30
10
-0.28284271
20
0.11485126
30
0
70
32
0
VERTEX
8
0
62
30
10
0
20
0.11485126
30
0
70
32
0
SEQEND
8
0
0
POLYLINE
8
0
62
30
66
1
10
0
20
0
30
0
70
8
0
VERTEX
8
0
62
30
10
-0.21213203
20
0.11485126
30
0
70
32
0
VERTEX
8
0
62
30
10
-0.21213203
20
0.11485126
30
0
70
32
0
SEQEND
8
0
0
POLYLINE
8
0
62
30
66
1
10
0
20
0
30
0
70
8
0
VERTEX
8
0
62
30
10
-0.14142136
20
0.1033765
30
0
70
32
0
VERTEX
8
0
62
30
10
-0.14142136
20
0.11485126
30
0
70
32
0
SEQEND
8
0
0
POLYLINE
8
0
62
30
66
1
10
0
20
0
30
0
70
8
0
VERTEX
8
0
62
30
10
-0.070710678
20
0.1033765
30
0
70
32
0
VERTEX
8
0
62
30
10
-0.070710678
20
0.11485126
30
0
70
32
0
SEQEND
8
0
0
POLYLINE
8
0
62
5
66
1
10
0
20
0
30
0
70
8
0
VERTEX
8
0
62
5
10
-0.21213203
20
0.101
30
0
70
32
0
VERTEX
8
0
62
5
10
-0.21213203
20
0.11485126
30
0
70
32
0
SEQEND
8
0
0
POLYLINE
8
0
62
5
66
1
10
0
20
0
30
0
70
8
0
VERTEX
8
0
62
5
10
-0.14142136
20
0.101
30
0
70
32
0
VERTEX
8
0
62
5
10
-0.14142136
20
0.1033765
30
0
70
32
0
SEQEND
8
0
0
POLYLINE
8
0
62
5
66
1
10
0
20
0
30
0
70
8
0
VERTEX
8
0
62
5
10
-0.070710678
20
0.101
30
0
70
32
0
VERTEX
8
0
62
5
10
-0.070710678
20
0.1033765
30
0
70
32
0
SEQEND
8
0
0
POLYLINE
8
0
62
5
66
1
10
0
20
0
30
0
70
8
0
VERTEX
8
0
62
5
10
-0.21213203
20
0.11485126
30
0
70
32
0
VERTEX
8
0
62
5
10
-0.21213203
20
0.12870253
30
0
70
32
0
SEQEND
8
0
0
POLYLINE
8
0
62
5
66
1
10
0
20
0
30
0
70
8
0
VERTEX
8
0
62
5
10
-0.14142136
20
0.11485126
30
0
70
32
0
VERTEX
8
0
62
5
10
-0.14142136
20
0.12870253
30
0
70
32
0
SEQEND
8
0
0
POLYLINE
8
0
62
5
66
1
10
0
20
0
30
0
70
8
0
VERTEX
8
0
62
5
10
-0.070710678
20
0.11485126
30
0
70
32
0
VERTEX
8
0
62
5
10
-0.070710678
20
0.12870253
30
0
70
32
0
SEQEND
8
0
0
POLYLINE
8
0
62
30
66
1
10
0
20
0
30
0
70
8
0
VERTEX
8
0
62
30
10
-0.28284271
20
0.11485126
30
0
70
32
0
VERTEX
8
0
62
30
10
-0.28284271
20
0.11485126
30
0
70
32
0
VERTEX
8
0
62
30
10
-0.28284271
20
0.11485126
30
0
70
32
0
SEQEND
8
0
0
POLYLINE
8
0
62
30
66
1
10
0
20
0
30
0
70
8
0
VERTEX
8
0
62
30
10
-0.21213203
20
0.11485126
30
0
70
32
0
VERTEX
8
0
62
30
10
-0.21213203
20
0.11485126
30
0
70
32
0
VERTEX
8
0
62
30
10
-0.21213203
20
0.11485126
30
0
70
32
0
SEQEND
8
0
0
POLYLINE
8
0
62
30
66
1
10
0
20
0
30
0
70
8
0
VERTEX
8
0
62
30
10
-0.14142136
20
0.1033765
30
0
70
32
0
VERTEX
8
0
62
30
10
-0.13165858
20
0.11485126
30
0
70
32
0
VERTEX
8
0
62
30
10
-0.14142136
20
0.12632603
30
0
70
32
0
SEQEND
8
0
0
POLYLINE
8
0
62
30
66
1
10
0
20
0
30
0
70
8
0
VERTEX
8
0
62
30
10
-0.070710678
20
0.1033765
30
0
70
32
0
VERTEX
8
0
62
30
10
-0.060947906
20
0.11485126
30
0
70
32
0
VERTEX
8
0
62
30
10
-0.070710678
20
0.12632603
30
0
70
32
0
SEQEND
8
0
0
POLYLINE
8
0
62
5
66
1
10
0
20
0
30
0
70
8
0
VERTEX
8
0
62
5
10
0
20
0.12870253
30
0
70
32
0
VERTEX
8
0
62
5
10
0
20
0.16032531
30
0
70
32
0
SEQEND
8
0
0
POLYLINE
8
0
62
5
66
1
10
0
20
0
30
0
70
8
0
VERTEX
8
0
62
5
10
0.070710678
20
0.12870253
30
0
70
32
0
VERTEX
8
0
62
5
10
0.070710678
20
0.16032531
30
0
70
32
0
SEQEND
8
0
0
POLYLINE
8
0
62
5
66
1
10
0
20
0
30
0
70
8
0
VERTEX
8
0
62
5
10
0.14142136
20
0.12870253
30
0
70
32
0
VERTEX
8
0
62
5
10
0.14142136
20
0.16032531
30
0
70
32
0
SEQEND
8
0
0
POLYLINE
8
0
62
5
66
1
10
0
20
0
30
0
70
8
0
VERTEX
8
0
62
5
10
0.21213203
20
0.12870253
30
0
70
32
0
VERTEX
8
0
62
5
10
0.21213203
20
0.16032531
30
0
70
32
0
SEQEND
8
0
0
POLYLINE
8
0
62
5
66
1
10
0
20
0
30
0
70
8
0
VERTEX
8
0
62
5
10
0.28284271
20
0.12870253
30
0
70
32
0
VERTEX
8
0
62
5
10
0.28284271
20
0.16032531
30
0
70
32
0
SEQEND
8
0
0
POLYLINE
8
0
62
5
66
1
10
0
20
0
30
0
70
8
0
VERTEX
8
0
62
5
10
0.070710678
20
0.12870253
30
0
70
32
0
VERTEX
8
0
62
5
10
0.070710678
20
0.12870253
30
0
70
32
0
SEQEND
8
0
0
POLYLINE
8
0
62
5
66
1
10
0
20
0
30
0
70
8
0
VERTEX
8
0
62
5
10
0.14142136
20
0.12870253
30
0
70
32
0
VERTEX
8
0
62
5
10
0.14142136
20
0.12870253
30
0
70
32
0
SEQEND
8
0
0
POLYLINE
8
0
62
5
66
1
10
0
20
0
30
0
70
8
0
VERTEX
8
0
62
5
10
0.21213203
20
0.12870253
30
0
70
32
0
VERTEX
8
0
62
5
10
0.21213203
20
0.12870253
30
0
70
32
0
SEQEND
8
0
0
POLYLINE
8
0
62
5
66
1
10
0
20
0
30
0
70
8
0
VERTEX
8
0
62
5
10
0.070710678
20
0.16032531
30
0
70
32
0
VERTEX
8
0
62
5
10
0.070710678
20
0.16032531
30
0
70
32
0
SEQEND
8
0
0
POLYLINE
8
0
62
5
66
1
10
0
20
0
30
0
70
8
0
VERTEX
8
0
62
5
10
0.14142136
20
0.16032531
30
0
70
32
0
VERTEX
8
0
62
5
10
0.14142136
20
0.16032531
30
0
70
32
0
SEQEND
8
0
0
POLYLINE
8
0
62
5
66
1
10
0
20
0
30
0
70
8
0
VERTEX
8
0
62
5
10
0.21213203
20
0.16032531
30
0
70
32
0
VERTEX
8
0
62
5
10
0.21213203
20
0.16032531
30
0
70
32
0
SEQEND
8
0
0
POLYLINE
8
0
62
5
66
1
10
0
20
0
30
0
70
8
0
VERTEX
8
0
62
5
10
0.28284271
20
0.16032531
30
0
70
32
0
VERTEX
8
0
62
5
10
0.28284271
20
0.16032531
30
0
70
32
0
SEQEND
8
0
0
POLYLINE
8
0
62
5
66
1
10
0
20
0
30
0
70
8
0
VERTEX
8
0
62
5
10
0.35355339
20
0.12870253
30
0
70
32
0
VERTEX
8
0
62
5
10
0.35355339
20
0.16032531
30
0
70
32
0
SEQEND
8
0
0
POLYLINE
8
0
62
5
66
1
10
0
20
0
30
0
70
8
0
VERTEX
8
0
62
5
10
0.42426407
20
0.12870253
30
0
70
32
0
VERTEX
8
0
62
5
10
0.42426407
20
0.16032531
30
0
70
32
0
SEQEND
8
0
0
POLYLINE
8
0
62
5
66
1
10
0
20
0
30
0
70
8
0
VERTEX
8
0
62
5
10
0.49497475
20
0.12870253
30
0
70
32
0
VERTEX
8
0
62
5
10
0.49497475
20
0.16032531
30
0
70
32
0
SEQEND
8
0
0
POLYLINE
8
0
62
5
66
1
10
0
20
0
30
0
70
8
0
VERTEX
8
0
62
5
10
0.56568542
20
0.12870253
30
0
70
32
0
VERTEX
8
0
62
5
10
0.56568542
20
0.16032531
30
0
70
32
0
SEQEND
8
0
0
POLYLINE
8
0
62
5
66
1
10
0
20
0
30
0
70
8
0
VERTEX
8
0
62
5
10
0.35355339
20
0.12870253
30
0
70
32
0
VERTEX
8
0
62
5
10
0.35355339
20
0.12870253
30
0
70
32
0
SEQEND
8
0
0
POLYLINE
8
0
62
5
66
1
10
0
20
0
30
0
70
8
0
VERTEX
8
0
62
5
10
0.42426407
20
0.12870253
30
0
70
32
0
VERTEX
8
0
62
5
10
0.42426407
20
0.12870253
30
0
70
32
0
SEQEND
8
0
0
POLYLINE
8
0
62
5
66
1
10
0
20
0
30
0
70
8
0
VERTEX
8
0
62
5
10
0.49497475
20
0.12870253
30
0
70
32
0
VERTEX
8
0
62
5
10
0.49497475
20
0.12870253
30
0
70
32
0
SEQEND
8
0
0
POLYLINE
8
0
62
5
66
1
10
0
20
0
30
0
70
8
0
VERTEX
8
0
62
5
10
0.35355339
20
0.16032531
30
0
70
32
0
VERTEX
8
0
62
5
10
0.35355339
20
0.16032531
30
0
70
32
0
SEQEND
8
0
0
POLYLINE
8
0
62
5
66
1
10
0
20
0
30
0
70
8
0
VERTEX
8
0
62
5
10
0.42426407
20
0.16032531
30
0
70
32
0
VERTEX
8
0
62
5
10
0.42426407
20
0.16032531
30
0
70
32
0
SEQEND
8
0
0
POLYLINE
8
0
62
5
66
1
10
0
20
0
30
0
70
8
0
VERTEX
8
0
62
5
10
0.49497475
20
0.16032531
30
0
70
32
0
VERTEX
8
0
62
5
10
0.49497475
20
0.16032531
30
0
70
32
0
SEQEND
8
0
0
POLYLINE
8
0
62
5
66
1
10
0
20
0
30
0
70
8
0
VERTEX
8
0
62
5
10
0.56568542
20
0.16032531
30
0
70
32
0
VERTEX
8
0
62
5
10
0.56568542
20
0.16032531
30
0
70
32
0
SEQEND
8
0
0
POLYLINE
8
0
62
5
66
1
10
0
20
0
30
0
70
8
0
VERTEX
8
0
62
5
10
-0.21213203
20
0.12870253
30
0
70
32
0
VERTEX
8
0
62
5
10
-0.21213203
20
0.16032531
30
0
70
32
0
SEQEND
8
0
0
POLYLINE
8
0
62
5
66
1
10
0
20
0
30
0
70
8
0
VERTEX
8
0
62
5
10
-0.14142136
20
0.12870253
30
0
70
32
0
VERTEX
8
0
62
5
10
-0.14142136
20
0.16032531
30
0
70
32
0
SEQEND
8
0
0
POLYLINE
8
0
62
5
66
1
10
0
20
0
30
0
70
8
0
VERTEX
8
0
62
5
10
-0.070710678
20
0.12870253
30
0
70
32
0
VERTEX
8
0
62
5
10
-0.070710678
20
0.16032531
30
0
70
32
0
SEQEND
8
0
0
POLYLINE
8
0
62
5
66
1
10
0
20
0
30
0
70
8
0
VERTEX
8
0
62
5
10
0
20
0.12870253
30
0
70
32
0
VERTEX
8
0
62
5
10
0
20
0.16032531
30
0
70
32
0
SEQEND
8
0
0
POLYLINE
8
0
62
5
66
1
10
0
20
0
30
0
70
8
0
VERTEX
8
0
62
5
10
-0.21213203
20
0.12870253
30
0
70
32
0
VERTEX
8
0
62
5
10
-0.21213203
20
0.12870253
30
0
70
32
0
SEQEND
8
0
0
POLYLINE
8
0
62
5
66
1
10
0
20
0
30
0
70
8
0
VERTEX
8
0
62
5
10
-0.14142136
20
0.12870253
30
0
70
32
0
VERTEX
8
0
62
5
10
-0.14142136
20
0.12870253
30
0
70
32
0
SEQEND
8
0
0
POLYLINE
8
0
62
5
66
1
10
0
20
0
30
0
70
8
0
VERTEX
8
0
62
5
10
-0.070710678
20
0.12870253
30
0
70
32
0
VERTEX
8
0
62
5
10
-0.070710678
20
0.12870253
30
0
70
32
0
SEQEND
8
0
0
POLYLINE
8
0
62
5
66
1
10
0
20
0
30
0
70
8
0
VERTEX
8
0
62
5
10
-0.21213203
20
0.16032531
30
0
70
32
0
VERTEX
8
0
62
5
10
-0.21213203
20
0.16032531
30
0
70
32
0
SEQEND
8
0
0
POLYLINE
8
0
62
5
66
1
10
0
20
0
30
0
70
8
0
VERTEX
8
0
62
5
10
-0.14142136
20
0.16032531
30
0
70
32
0
VERTEX
8
0
62
5
10
-0.14142136
20
0.16032531
30
0
70
32
0
SEQEND
8
0
0
POLYLINE
8
0
62
5
66
1
10
0
20
0
30
0
70
8
0
VERTEX
8
0
62
5
10
-0.070710678
20
0.16032531
30
0
70
32
0
VERTEX
8
0
62
5
10
-0.070710678
20
0.16032531
30
0
70
32
0
SEQEND
8
0
0
POLYLINE
8
0
62
5
66
1
10
0
20
0
30
0
70
8
0
VERTEX
8
0
62
5
10
-2.7534086e-12
20
0.16032531
30
0
70
32
0
VERTEX
8
0
62
5
10
-2.7534086e-12
20
0.16032531
30
0
70
32
0
SEQEND
8
0
0
POLYLINE
8
0
62
5
66
1
10
0
20
0
30
0
70
8
0
VERTEX
8
0
62
5
10
-2.7533809e-12
20
0.16032531
30
0
70
32
0
VERTEX
8
0
62
5
10
-2.7533809e-12
20
0.28681641
30
0
70
32
0
SEQEND
8
0
0
POLYLINE
8
0
62
5
66
1
10
0
20
0
30
0
70
8
0
VERTEX
8
0
62
5
10
0.28284271
20
0.16032531
30
0
70
32
0
VERTEX
8
0
62
5
10
0.28284271
20
0.28681641
30
0
70
32
0
SEQEND
8
0
0
POLYLINE
8
0
62
5
66
1
10
0
20
0
30
0
70
8
0
VERTEX
8
0
62
5
10
0.070710678
20
0.16032531
30
0
70
32
0
VERTEX
8
0
62
5
10
0.070710678
20
0.28681641
30
0
70
32
0
SEQEND
8
0
0
POLYLINE
8
0
62
5
66
1
10
0
20
0
30
0
70
8
0
VERTEX
8
0
62
5
10
0.14142136
20
0.16032531
30
0
70
32
0
VERTEX
8
0
62
5
10
0.14142136
20
0.28681641
30
0
70
32
0
SEQEND
8
0
0
POLYLINE
8
0
62
5
66
1
10
0
20
0
30
0
70
8
0
VERTEX
8
0
62
5
10
0.21213203
20
0.16032531
30
0
70
32
0
VERTEX
8
0
62
5
10
0.21213203
20
0.28681641
30
0
70
32
0
SEQEND
8
0
0
POLYLINE
8
0
62
5
66
1
10
0
20
0
30
0
70
8
0
VERTEX
8
0
62
5
10
0.56568542
20
0.16032531
30
0
70
32
0
VERTEX
8
0
62
5
10
0.56568542
20
0.28681641
30
0
70
32
0
SEQEND
8
0
0
POLYLINE
8
0
62
5
66
1
10
0
20
0
30
0
70
8
0
VERTEX
8
0
62
5
10
0.35355339
20
0.16032531
30
0
70
32
0
VERTEX
8
0
62
5
10
0.35355339
20
0.28681641
30
0
70
32
0
SEQEND
8
0
0
POLYLINE
8
0
62
5
66
1
10
0
20
0
30
0
70
8
0
VERTEX
8
0
62
5
10
0.42426407
20
0.16032531
30
0
70
32
0
VERTEX
8
0
62
5
10
0.42426407
20
0.28681641
30
0
70
32
0
SEQEND
8
0
0
POLYLINE
8
0
62
5
66
1
10
0
20
0
30
0
70
8
0
VERTEX
8
0
62
5
10
0.49497475
20
0.16032531
30
0
70
32
0
VERTEX
8
0
62
5
10
0.49497475
20
0.28681641
30
0
70
32
0
SEQEND
8
0
0
POLYLINE
8
0
62
5
66
1
10
0
20
0
30
0
70
8
0
VERTEX
8
0
62
5
10
-0.28284271
20
0.16032531
30
0
70
32
0
VERTEX
8
0
62
5
10
-0.28284271
20
0.28681641
30
0
70
32
0
SEQEND
8
0
0
POLYLINE
8
0
62
5
66
1
10
0
20
0
30
0
70
8
0
VERTEX
8
0
62
5
10
-0.21213203
20
0.16032531
30
0
70
32
0
VERTEX
8
0
62
5
10
-0.21213203
20
0.28681641
30
0
70
32
0
SEQEND
8
0
0
POLYLINE
8
0
62
5
66
1
10
0
20
0
30
0
70
8
0
VERTEX
8
0
62
5
10
-0.14142136
20
0.16032531
30
0
70
32
0
VERTEX
8
0
62
5
10
-0.14142136
20
0.28681641
30
0
70
32
0
SEQEND
8
0
0
POLYLINE
8
0
62
5
66
1
10
0
20
0
30
0
70
8
0
VERTEX
8
0
62
5
10
-0.070710678
20
0.16032531
30
0
70
32
0
VERTEX
8
0
62
5
10
-0.070710678
20
0.28681641
30
0
70
32
0
SEQEND
8
0
0
POLYLINE
8
0
62
5
66
1
10
0
20
0
30
0
70
8
0
VERTEX
8
0
62
5
10
-2.7533809e-12
20
0.28681641
30
0
70
32
0
VERTEX
8
0
62
5
10
-2.7533809e-12
20
0.40985771
30
0
70
32
0
SEQEND
8
0
0
POLYLINE
8
0
62
5
66
1
10
0
20
0
30
0
70
8
0
VERTEX
8
0
62
5
10
0.28284271
20
0.40985771
30
0
70
32
0
VERTEX
8
0
62
5
10
0.28284271
20
0.28681641
30
0
70
32
0
SEQEND
8
0
0
POLYLINE
8
0
62
5
66
1
10
0
20
0
30
0
70
8
0
VERTEX
8
0
62
5
10
-2.7533809e-12
20
0.34833706
30
0
70
32
0
VERTEX
8
0
62
5
10
0.070710678
20
0.34833706
30
0
70
32
0
VERTEX
8
0
62
5
10
0.14142136
20
0.29737169
30
0
70
32
0
VERTEX
8
0
62
5
10
0.21213203
20
0.29737169
30
0
70
32
0
VERTEX
8
0
62
5
10
0.28284271
20
0.34833706
30
0
70
32
0
SEQEND
8
0
0
POLYLINE
8
0
62
5
66
1
10
0
20
0
30
0
70
8
0
SEQEND
8
0
0
POLYLINE
8
0
62
5
66
1
10
0
20
0
30
0
70
8
0
VERTEX
8
0
62
5
10
-2.7533809e-12
20
0.34833706
30
0
70
32
0
VERTEX
8
0
62
5
10
0.070710678
20
0.34833706
30
0
70
32
0
VERTEX
8
0
62
5
10
0.14142136
20
0.39930243
30
0
70
32
0
VERTEX
8
0
62
5
10
0.21213203
20
0.39930243
30
0
70
32
0
VERTEX
8
0
62
5
10
0.28284271
20
0.34833706
30
0
70
32
0
SEQEND
8
0
0
POLYLINE
8
0
62
30
66
1
10
0
20
0
30
0
70
8
0
VERTEX
8
0
62
30
10
-2.7533809e-12
20
0.34833706
30
0
70
32
0
VERTEX
8
0
62
30
10
0.28284271
20
0.34833706
30
0
70
32
0
SEQEND
8
0
0
POLYLINE
8
0
62
30
66
1
10
0
20
0
30
0
70
8
0
VERTEX
8
0
62
30
10
0.070710678
20
0.34833706
30
0
70
32
0
VERTEX
8
0
62
30
10
0.070710678
20
0.34833706
30
0
70
32
0
SEQEND
8
0
0
POLYLINE
8
0
62
30
66
1
10
0
20
0
30
0
70
8
0
VERTEX
8
0
62
30
10
0.14142136
20
0.29737169
30
0
70
32
0
VERTEX
8
0
62
30
10
0.14142136
20
0.34833706
30
0
70
32
0
SEQEND
8
0
0
POLYLINE
8
0
62
30
66
1
10
0
20
0
30
0
70
8
0
VERTEX
8
0
62
30
10
0.21213203
20
0.29737169
30
0
70
32
0
VERTEX
8
0
62
30
10
0.21213203
20
0.34833706
30
0
70
32
0
SEQEND
8
0
0
POLYLINE
8
0
62
5
66
1
10
0
20
0
30
0
70
8
0
VERTEX
8
0
62
5
10
0.070710678
20
0.28681641
30
0
70
32
0
VERTEX
8
0
62
5
10
0.070710678
20
0.34833706
30
0
70
32
0
SEQEND
8
0
0
POLYLINE
8
0
62
5
66
1
10
0
20
0
30
0
70
8
0
VERTEX
8
0
62
5
10
0.14142136
20
0.28681641
30
0
70
32
0
VERTEX
8
0
62
5
10
0.14142136
20
0.29737169
30
0
70
32
0
SEQEND
8
0
0
POLYLINE
8
0
62
5
66
1
10
0
20
0
30
0
70
8
0
VERTEX
8
0
62
5
10
0.21213203
20
0.28681641
30
0
70
32
0
VERTEX
8
0
62
5
10
0.21213203
20
0.29737169
30
0
70
32
0
SEQEND
8
0
0
POLYLINE
8
0
62
5
66
1
10
0
20
0
30
0
70
8
0
VERTEX
8
0
62
5
10
0.070710678
20
0.34833706
30
0
70
32
0
VERTEX
8
0
62
5
10
0.070710678
20
0.40985771
30
0
70
32
0
SEQEND
8
0
0
POLYLINE
8
0
62
5
66
1
10
0
20
0
30
0
70
8
0
VERTEX
8
0
62
5
10
0.14142136
20
0.34833706
30
0
70
32
0
VERTEX
8
0
62
5
10
0.14142136
20
0.40985771
30
0
70
32
0
SEQEND
8
0
0
POLYLINE
8
0
62
5
66
1
10
0
20
0
30
0
70
8
0
VERTEX
8
0
62
5
10
0.21213203
20
0.34833706
30
0
70
32
0
VERTEX
8
0
62
5
10
0.21213203
20
0.40985771
30
0
70
32
0
SEQEND
8
0
0
POLYLINE
8
0
62
30
66
1
10
0
20
0
30
0
70
8
0
VERTEX
8
0
62
30
10
-2.7533809e-12
20
0.34833706
30
0
70
32
0
VERTEX
8
0
62
30
10
6.5017888e-12
20
0.34833706
30
0
70
32
0
VERTEX
8
0
62
30
10
-2.7533809e-12
20
0.34833706
30
0
70
32
0
SEQEND
8
0
0
POLYLINE
8
0
62
30
66
1
10
0
20
0
30
0
70
8
0
VERTEX
8
0
62
30
10
0.070710678
20
0.34833706
30
0
70
32
0
VERTEX
8
0
62
30
10
0.070710678
20
0.34833706
30
0
70
32
0
VERTEX
8
0
62
30
10
0.070710678
20
0.34833706
30
0
70
32
0
SEQEND
8
0
0
POLYLINE
8
0
62
30
66
1
10
0
20
0
30
0
70
8
0
VERTEX
8
0
62
30
10
0.14142136
20
0.29737169
30
0
70
32
0
VERTEX
8
0
62
30
10
0.16751146
20
0.34833706
30
0
70
32
0
VERTEX
8
0
62
30
10
0.14142136
20
0.39930243
30
0
70
32
0
SEQEND
8
0
0
POLYLINE
8
0
62
30
66
1
10
0
20
0
30
0
70
8
0
VERTEX
8
0
62
30
10
0.21213203
20
0.29737169
30
0
70
32
0
VERTEX
8
0
62
30
10
0.23822214
20
0.34833706
30
0
70
32
0
VERTEX
8
0
62
30
10
0.21213203
20
0.39930243
30
0
70
32
0
SEQEND
8
0
0
POLYLINE
8
0
62
5
66
1
10
0
20
0
30
0
70
8
0
VERTEX
8
0
62
5
10
0.56568542
20
0.40985771
30
0
70
32
0
VERTEX
8
0
62
5
10
0.56568542
20
0.28681641
30
0
70
32
0
SEQEND
8
0
0
POLYLINE
8
0
62
5
66
1
10
0
20
0
30
0
70
8
0
VERTEX
8
0
62
5
10
0.28284271
20
0.34833706
30
0
70
32
0
VERTEX
8
0
62
5
10
0.35355339
20
0.34833706
30
0
70
32
0
VERTEX
8
0
62
5
10
0.42426407
20
0.29737169
30
0
70
32
0
VERTEX
8
0
62
5
10
0.49497475
20
0.29737169
30
0
70
32
0
VERTEX
8
0
62
5
10
0.56568542
20
0.34833706
30
0
70
32
0
SEQEND
8
0
0
POLYLINE
8
0
62
5
66
1
10
0
20
0
30
0
70
8
0
SEQEND
8
0
0
POLYLINE
8
0
62
5
66
1
10
0
20
0
30
0
70
8
0
VERTEX
8
0
62
5
10
0.28284271
20
0.34833706
30
0
70
32
0
VERTEX
8
0
62
5
10
0.35355339
20
0.34833706
30
0
70
32
0
VERTEX
8
0
62
5
10
0.42426407
20
0.39930243
30
0
70
32
0
VERTEX
8
0
62
5
10
0.49497475
20
0.39930243
30
0
70
32
0
VERTEX
8
0
62
5
10
0.56568542
20
0.34833706
30
0
70
32
0
SEQEND
8
0
0
POLYLINE
8
0
62
30
66
1
10
0
20
0
30
0
70
8
0
VERTEX
8
0
62
30
10
0.28284271
20
0.34833706
30
0
70
32
0
VERTEX
8
0
62
30
10
0.56568542
20
0.34833706
30
0
70
32
0
SEQEND
8
0
0
POLYLINE
8
0
62
30
66
1
10
0
20
0
30
0
70
8
0
VERTEX
8
0
62
30
10
0.35355339
20
0.34833706
30
0
70
32
0
VERTEX
8
0
62
30
10
0.35355339
20
0.34833706
30
0
70
32
0
SEQEND
8
0
0
POLYLINE
8
0
62
30
66
1
10
0
20
0
30
0
70
8
0
VERTEX
8
0
62
30
10
0.42426407
20
0.29737169
30
0
70
32
0
VERTEX
8
0
62
30
10
0.42426407
20
0.34833706
30
0
70
32
0
SEQEND
8
0
0
POLYLINE
8
0
62
30
66
1
10
0
20
0
30
0
70
8
0
VERTEX
8
0
62
30
10
0.49497475
20
0.29737169
30
0
70
32
0
VERTEX
8
0
62
30
10
0.49497475
20
0.34833706
30
0
70
32
0
SEQEND
8
0
0
POLYLINE
8
0
62
5
66
1
10
0
20
0
30
0
70
8
0
VERTEX
8
0
62
5
10
0.35355339
20
0.28681641
30
0
70
32
0
VERTEX
8
0
62
5
10
0.35355339
20
0.34833706
30
0
70
32
0
SEQEND
8
0
0
POLYLINE
8
0
62
5
66
1
10
0
20
0
30
0
70
8
0
VERTEX
8
0
62
5
10
0.42426407
20
0.28681641
30
0
70
32
0
VERTEX
8
0
62
5
10
0.42426407
20
0.29737169
30
0
70
32
0
SEQEND
8
0
0
POLYLINE
8
0
62
5
66
1
10
0
20
0
30
0
70
8
0
VERTEX
8
0
62
5
10
0.49497475
20
0.28681641
30
0
70
32
0
VERTEX
8
0
62
5
10
0.49497475
20
0.29737169
30
0
70
32
0
SEQEND
8
0
0
POLYLINE
8
0
62
5
66
1
10
0
20
0
30
0
70
8
0
VERTEX
8
0
62
5
10
0.35355339
20
0.34833706
30
0
70
32
0
VERTEX
8
0
62
5
10
0.35355339
20
0.40985771
30
0
70
32
0
SEQEND
8
0
0
POLYLINE
8
0
62
5
66
1
10
0
20
0
30
0
70
8
0
VERTEX
8
0
62
5
10
0.42426407
20
0.34833706
30
0
70
32
0
VERTEX
8
0
62
5
10
0.42426407
20
0.40985771
30
0
70
32
0
SEQEND
8
0
0
POLYLINE
8
0
62
5
66
1
10
0
20
0
30
0
70
8
0
VERTEX
8
0
62
5
10
0.49497475
20
0.34833706
30
0
70
32
0
VERTEX
8
0
62
5
10
0.49497475
20
0.40985771
30
0
70
32
0
SEQEND
8
0
0
POLYLINE
8
0
62
30
66
1
10
0
20
0
30
0
70
8
0
VERTEX
8
0
62
30
10
0.28284271
20
0.34833706
30
0
70
32
0
VERTEX
8
0
62
30
10
0.28284271
20
0.34833706
30
0
70
32
0
VERTEX
8
0
62
30
10
0.28284271
20
0.34833706
30
0
70
32
0
SEQEND
8
0
0
POLYLINE
8
0
62
30
66
1
10
0
20
0
30
0
70
8
0
VERTEX
8
0
62
30
10
0.35355339
20
0.34833706
30
0
70
32
0
VERTEX
8
0
62
30
10
0.35355339
20
0.34833706
30
0
70
32
0
VERTEX
8
0
62
30
10
0.35355339
20
0.34833706
30
0
70
32
0
SEQEND
8
0
0
POLYLINE
8
0
62
30
66
1
10
0
20
0
30
0
70
8
0
VERTEX
8
0
62
30
10
0.42426407
20
0.29737169
30
0
70
32
0
VERTEX
8
0
62
30
10
0.45035418
20
0.34833706
30
0
70
32
0
VERTEX
8
0
62
30
10
0.42426407
20
0.39930243
30
0
70
32
0
SEQEND
8
0
0
POLYLINE
8
0
62
30
66
1
10
0
20
0
30
0
70
8
0
VERTEX
8
0
62
30
10
0.49497475
20
0.29737169
30
0
70
32
0
VERTEX
8
0
62
30
10
0.52106485
20
0.34833706
30
0
70
32
0
VERTEX
8
0
62
30
10
0.49497475
20
0.39930243
30
0
70
32
0
SEQEND
8
0
0
POLYLINE
8
0
62
5
66
1
10
0
20
0
30
0
70
8
0
VERTEX
8
0
62
5
10
-0.28284271
20
0.28681641
30
0
70
32
0
VERTEX
8
0
62
5
10
-0.28284271
20
0.40985771
30
0
70
32
0
SEQEND
8
0
0
POLYLINE
8
0
62
5
66
1
10
0
20
0
30
0
70
8
0
VERTEX
8
0
62
5
10
-0.28284271
20
0.34833706
30
0
70
32
0
VERTEX
8
0
62
5
10
-0.21213203
20
0.34833706
30
0
70
32
0
VERTEX
8
0
62
5
10
-0.14142136
20
0.29737169
30
0
70
32
0
VERTEX
8
0
62
5
10
-0.070710678
20
0.29737169
30
0
70
32
0
VERTEX
8
0
62
5
10
-2.7534086e-12
20
0.34833706
30
0
70
32
0
SEQEND
8
0
0
POLYLINE
8
0
62
5
66
1
10
0
20
0
30
0
70
8
0
SEQEND
8
0
0
POLYLINE
8
0
62
5
66
1
10
0
20
0
30
0
70
8
0
VERTEX
8
0
62
5
10
-0.28284271
20
0.34833706
30
0
70
32
0
VERTEX
8
0
62
5
10
-0.21213203
20
0.34833706
30
0
70
32
0
VERTEX
8
0
62
5
10
-0.14142136
20
0.39930243
30
0
70
32
0
VERTEX
8
0
62
5
10
-0.070710678
20
0.39930243
30
0
70
32
0
VERTEX
8
0
62
5
10
-2.7534086e-12
20
0.34833706
30
0
70
32
0
SEQEND
8
0
0
POLYLINE
8
0
62
30
66
1
10
0
20
0
30
0
70
8
0
VERTEX
8
0
62
30
10
-0.28284271
20
0.34833706
30
0
70
32
0
VERTEX
8
0
62
30
10
-2.7534086e-12
20
0.34833706
30
0
70
32
0
SEQEND
8
0
0
POLYLINE
8
0
62
30
66
1
10
0
20
0
30
0
70
8
0
VERTEX
8
0
62
30
10
-0.21213203
20
0.34833706
30
0
70
32
0
VERTEX
8
0
62
30
10
-0.21213203
20
0.34833706
30
0
70
32
0
SEQEND
8
0
0
POLYLINE
8
0
62
30
66
1
10
0
20
0
30
0
70
8
0
VERTEX
8
0
62
30
10
-0.14142136
20
0.29737169
30
0
70
32
0
VERTEX
8
0
62
30
10
-0.14142136
20
0.34833706
30
0
70
32
0
SEQEND
8
0
0
POLYLINE
8
0
62
30
66
1
10
0
20
0
30
0
70
8
0
VERTEX
8
0
62
30
10
-0.070710678
20
0.29737169
30
0
70
32
0
VERTEX
8
0
62
30
10
-0.070710678
20
0.34833706
30
0
70
32
0
SEQEND
8
0
0
POLYLINE
8
0
62
5
66
1
10
0
20
0
30
0
70
8
0
VERTEX
8
0
62
5
10
-0.21213203
20
0.28681641
30
0
70
32
0
VERTEX
8
0
62
5
10
-0.21213203
20
0.34833706
30
0
70
32
0
SEQEND
8
0
0
POLYLINE
8
0
62
5
66
1
10
0
20
0
30
0
70
8
0
VERTEX
8
0
62
5
10
-0.14142136
20
0.28681641
30
0
70
32
0
VERTEX
8
0
62
5
10
-0.14142136
20
0.29737169
30
0
70
32
0
SEQEND
8
0
0
POLYLINE
8
0
62
5
66
1
10
0
20
0
30
0
70
8
0
VERTEX
8
0
62
5
10
-0.070710678
20
0.28681641
30
0
70
32
0
VERTEX
8
0
62
5
10
-0.070710678
20
0.29737169
30
0
70
32
0
SEQEND
8
0
0
POLYLINE
8
0
62
5
66
1
10
0
20
0
30
0
70
8
0
VERTEX
8
0
62
5
10
-0.21213203
20
0.34833706
30
0
70
32
0
VERTEX
8
0
62
5
10
-0.21213203
20
0.40985771
30
0
70
32
0
SEQEND
8
0
0
POLYLINE
8
0
62
5
66
1
10
0
20
0
30
0
70
8
0
VERTEX
8
0
62
5
10
-0.14142136
20
0.34833706
30
0
70
32
0
VERTEX
8
0
62
5
10
-0.14142136
20
0.40985771
30
0
70
32
0
SEQEND
8
0
0
POLYLINE
8
0
62
5
66
1
10
0
20
0
30
0
70
8
0
VERTEX
8
0
62
5
10
-0.070710678
20
0.34833706
30
0
70
32
0
VERTEX
8
0
62
5
10
-0.070710678
20
0.40985771
30
0
70
32
0
SEQEND
8
0
0
POLYLINE
8
0
62
30
66
1
10
0
20
0
30
0
70
8
0
VERTEX
8
0
62
30
10
-0.28284271
20
0.34833706
30
0
70
32
0
VERTEX
8
0
62
30
10
-0.28284271
20
0.34833706
30
0
70
32
0
VERTEX
8
0
62
30
10
-0.28284271
20
0.34833706
30
0
70
32
0
SEQEND
8
0
0
POLYLINE
8
0
62
30
66
1
10
0
20
0
30
0
70
8
0
VERTEX
8
0
62
30
10
-0.21213203
20
0.34833706
30
0
70
32
0
VERTEX
8
0
62
30
10
-0.21213203
20
0.34833706
30
0
70
32
0
VERTEX
8
0
62
30
10
-0.21213203
20
0.34833706
30
0
70
32
0
SEQEND
8
0
0
POLYLINE
8
0
62
30
66
1
10
0
20
0
30
0
70
8
0
VERTEX
8
0
62
30
10
-0.14142136
20
0.29737169
30
0
70
32
0
VERTEX
8
0
62
30
10
-0.11533125
20
0.34833706
30
0
70
32
0
VERTEX
8
0
62
30
10
-0.14142136
20
0.39930243
30
0
70
32
0
SEQEND
8
0
0
POLYLINE
8
0
62
30
66
1
10
0
20
0
30
0
70
8
0
VERTEX
8
0
62
30
10
-0.070710678
20
0.29737169
30
0
70
32
0
VERTEX
8
0
62
30
10
-0.044620571
20
0.34833706
30
0
70
32
0
VERTEX
8
0
62
30
10
-0.070710678
20
0.39930243
30
0
70
32
0
SEQEND
8
0
0
POLYLINE
8
0
62
5
66
1
10
0
20
0
30
0
70
8
0
VERTEX
8
0
62
5
10
-2.7533809e-12
20
0.40985771
30
0
70
32
0
VERTEX
8
0
62
5
10
-2.7533809e-12
20
0.41085771
30
0
70
32
0
SEQEND
8
0
0
POLYLINE
8
0
62
5
66
1
10
0
20
0
30
0
70
8
0
VERTEX
8
0
62
5
10
0.28284271
20
0.40985771
30
0
70
32
0
VERTEX
8
0
62
5
10
0.28284271
20
0.41085771
30
0
70
32
0
SEQEND
8
0
0
POLYLINE
8
0
62
5
66
1
10
0
20
0
30
0
70
8
0
VERTEX
8
0
62
5
10
0.070710678
20
0.40985771
30
0
70
32
0
VERTEX
8
0
62
5
10
0.070710678
20
0.41085771
30
0
70
32
0
SEQEND
8
0
0
POLYLINE
8
0
62
5
66
1
10
0
20
0
30
0
70
8
0
VERTEX
8
0
62
5
10
0.14142136
20
0.40985771
30
0
70
32
0
VERTEX
8
0
62
5
10
0.14142136
20
0.41085771
30
0
70
32
0
SEQEND
8
0
0
POLYLINE
8
0
62
5
66
1
10
0
20
0
30
0
70
8
0
VERTEX
8
0
62
5
10
0.21213203
20
0.40985771
30
0
70
32
0
VERTEX
8
0
62
5
10
0.21213203
20
0.41085771
30
0
70
32
0
SEQEND
8
0
0
POLYLINE
8
0
62
5
66
1
10
0
20
0
30
0
70
8
0
VERTEX
8
0
62
5
10
0.56568542
20
0.40985771
30
0
70
32
0
VERTEX
8
0
62
5
10
0.56568542
20
0.41085771
30
0
70
32
0
SEQEND
8
0
0
POLYLINE
8
0
62
5
66
1
10
0
20
0
30
0
70
8
0
VERTEX
8
0
62
5
10
0.35355339
20
0.40985771
30
0
70
32
0
VERTEX
8
0
62
5
10
0.35355339
20
0.41085771
30
0
70
32
0
SEQEND
8
0
0
POLYLINE
8
0
62
5
66
1
10
0
20
0
30
0
70
8
0
VERTEX
8
0
62
5
10
0.42426407
20
0.40985771
30
0
70
32
0
VERTEX
8
0
62
5
10
0.42426407
20
0.41085771
30
0
70
32
0
SEQEND
8
0
0
POLYLINE
8
0
62
5
66
1
10
0
20
0
30
0
70
8
0
VERTEX
8
0
62
5
10
0.49497475
20
0.40985771
30
0
70
32
0
VERTEX
8
0
62
5
10
0.49497475
20
0.41085771
30
0
70
32
0
SEQEND
8
0
0
POLYLINE
8
0
62
5
66
1
10
0
20
0
30
0
70
8
0
VERTEX
8
0
62
5
10
-0.28284271
20
0.40985771
30
0
70
32
0
VERTEX
8
0
62
5
10
-0.28284271
20
0.41085771
30
0
70
32
0
SEQEND
8
0
0
POLYLINE
8
0
62
5
66
1
10
0
20
0
30
0
70
8
0
VERTEX
8
0
62
5
10
-0.21213203
20
0.40985771
30
0
70
32
0
VERTEX
8
0
62
5
10
-0.21213203
20
0.41085771
30
0
70
32
0
SEQEND
8
0
0
POLYLINE
8
0
62
5
66
1
10
0
20
0
30
0
70
8
0
VERTEX
8
0
62
5
10
-0.14142136
20
0.40985771
30
0
70
32
0
VERTEX
8
0
62
5
10
-0.14142136
20
0.41085771
30
0
70
32
0
SEQEND
8
0
0
POLYLINE
8
0
62
5
66
1
10
0
20
0
30
0
70
8
0
VERTEX
8
0
62
5
10
-0.070710678
20
0.40985771
30
0
70
32
0
VERTEX
8
0
62
5
10
-0.070710678
20
0.41085771
30
0
70
32
0
SEQEND
8
0
0
POLYLINE
8
0
62
5
66
1
10
0
20
0
30
0
70
8
0
VERTEX
8
0
62
5
10
-2.7533809e-12
20
0.41085771
30
0
70
32
0
VERTEX
8
0
62
5
10
-2.7533809e-12
20
0.53389901
30
0
70
32
0
SEQEND
8
0
0
POLYLINE
8
0
62
5
66
1
10
0
20
0
30
0
70
8
0
VERTEX
8
0
62
5
10
0.28284271
20
0.53389901
30
0
70
32
0
VERTEX
8
0
62
5
10
0.28284271
20
0.41085771
30
0
70
32
0
SEQEND
8
0
0
POLYLINE
8
0
62
5
66
1
10
0
20
0
30
0
70
8
0
VERTEX
8
0
62
5
10
-2.7533809e-12
20
0.47237835
30
0
70
32
0
VERTEX
8
0
62
5
10
0.070710678
20
0.47237836
30
0
70
32
0
VERTEX
8
0
62
5
10
0.14142136
20
0.42141299
30
0
70
32
0
VERTEX
8
0
62
5
10
0.21213203
20
0.42141298
30
0
70
32
0
VERTEX
8
0
62
5
10
0.28284271
20
0.47237835
30
0
70
32
0
SEQEND
8
0
0
POLYLINE
8
0
62
5
66
1
10
0
20
0
30
0
70
8
0
SEQEND
8
0
0
POLYLINE
8
0
62
5
66
1
10
0
20
0
30
0
70
8
0
VERTEX
8
0
62
5
10
-2.7533809e-12
20
0.47237836
30
0
70
32
0
VERTEX
8
0
62
5
10
0.070710678
20
0.47237836
30
0
70
32
0
VERTEX
8
0
62
5
10
0.14142136
20
0.52334373
30
0
70
32
0
VERTEX
8
0
62
5
10
0.21213203
20
0.52334374
30
0
70
32
0
VERTEX
8
0
62
5
10
0.28284271
20
0.47237836
30
0
70
32
0
SEQEND
8
0
0
POLYLINE
8
0
62
30
66
1
10
0
20
0
30
0
70
8
0
VERTEX
8
0
62
30
10
-2.7533809e-12
20
0.47237836
30
0
70
32
0
VERTEX
8
0
62
30
10
0.28284271
20
0.47237836
30
0
70
32
0
SEQEND
8
0
0
POLYLINE
8
0
62
30
66
1
10
0
20
0
30
0
70
8
0
VERTEX
8
0
62
30
10
0.070710678
20
0.47237836
30
0
70
32
0
VERTEX
8
0
62
30
10
0.070710678
20
0.47237836
30
0
70
32
0
SEQEND
8
0
0
POLYLINE
8
0
62
30
66
1
10
0
20
0
30
0
70
8
0
VERTEX
8
0
62
30
10
0.14142136
20
0.42141299
30
0
70
32
0
VERTEX
8
0
62
30
10
0.14142136
20
0.47237836
30
0
70
32
0
SEQEND
8
0
0
POLYLINE
8
0
62
30
66
1
10
0
20
0
30
0
70
8
0
VERTEX
8
0
62
30
10
0.21213203
20
0.42141298
30
0
70
32
0
VERTEX
8
0
62
30
10
0.21213203
20
0.47237836
30
0
70
32
0
SEQEND
8
0
0
POLYLINE
8
0
62
5
66
1
10
0
20
0
30
0
70
8
0
VERTEX
8
0
62
5
10
0.070710678
20
0.41085771
30
0
70
32
0
VERTEX
8
0
62
5
10
0.070710678
20
0.47237836
30
0
70
32
0
SEQEND
8
0
0
POLYLINE
8
0
62
5
66
1
10
0
20
0
30
0
70
8
0
VERTEX
8
0
62
5
10
0.14142136
20
0.41085771
30
0
70
32
0
VERTEX
8
0
62
5
10
0.14142136
20
0.42141299
30
0
70
32
0
SEQEND
8
0
0
POLYLINE
8
0
62
5
66
1
10
0
20
0
30
0
70
8
0
VERTEX
8
0
62
5
10
0.21213203
20
0.41085771
30
0
70
32
0
VERTEX
8
0
62
5
10
0.21213203
20
0.42141298
30
0
70
32
0
SEQEND
8
0
0
POLYLINE
8
0
62
5
66
1
10
0
20
0
30
0
70
8
0
VERTEX
8
0
62
5
10
0.070710678
20
0.47237836
30
0
70
32
0
VERTEX
8
0
62
5
10
0.070710678
20
0.53389901
30
0
70
32
0
SEQEND
8
0
0
POLYLINE
8
0
62
5
66
1
10
0
20
0
30
0
70
8
0
VERTEX
8
0
62
5
10
0.14142136
20
0.47237836
30
0
70
32
0
VERTEX
8
0
62
5
10
0.14142136
20
0.53389901
30
0
70
32
0
SEQEND
8
0
0
POLYLINE
8
0
62
5
66
1
10
0
20
0
30
0
70
8
0
VERTEX
8
0
62
5
10
0.21213203
20
0.47237836
30
0
70
32
0
VERTEX
8
0
62
5
10
0.21213203
20
0.53389901
30
0
70
32
0
SEQEND
8
0
0
POLYLINE
8
0
62
30
66
1
10
0
20
0
30
0
70
8
0
VERTEX
8
0
62
30
10
-2.7533809e-12
20
0.47237835
30
0
70
32
0
VERTEX
8
0
62
30
10
1.1237121e-08
20
0.47237836
30
0
70
32
0
VERTEX
8
0
62
30
10
-2.7533809e-12
20
0.47237836
30
0
70
32
0
SEQEND
8
0
0
POLYLINE
8
0
62
30
66
1
10
0
20
0
30
0
70
8
0
VERTEX
8
0
62
30
10
0.070710678
20
0.47237836
30
0
70
32
0
VERTEX
8
0
62
30
10
0.070710678
20
0.47237836
30
0
70
32
0
VERTEX
8
0
62
30
10
0.070710678
20
0.47237836
30
0
70
32
0
SEQEND
8
0
0
POLYLINE
8
0
62
30
66
1
10
0
20
0
30
0
70
8
0
VERTEX
8
0
62
30
10
0.14142136
20
0.42141299
30
0
70
32
0
VERTEX
8
0
62
30
10
0.16751146
20
0.47237836
30
0
70
32
0
VERTEX
8
0
62
30
10
0.14142136
20
0.52334373
30
0
70
32
0
SEQEND
8
0
0
POLYLINE
8
0
62
30
66
1
10
0
20
0
30
0
70
8
0
VERTEX
8
0
62
30
10
0.21213203
20
0.42141298
30
0
70
32
0
VERTEX
8
0
62
30
10
0.23822214
20
0.47237836
30
0
70
32
0
VERTEX
8
0
62
30
10
0.21213203
20
0.52334374
30
0
70
32
0
SEQEND
8
0
0
POLYLINE
8
0
62
5
66
1
10
0
20
0
30
0
70
8
0
VERTEX
8
0
62
5
10
0.56568542
20
0.53389901
30
0
70
32
0
VERTEX
8
0
62
5
10
0.56568542
20
0.41085771
30
0
70
32
0
SEQEND
8
0
0
POLYLINE
8
0
62
5
66
1
10
0
20
0
30
0
70
8
0
VERTEX
8
0
62
5
10
0.28284271
20
0.47237835
30
0
70
32
0
VERTEX
8
0
62
5
10
0.35355339
20
0.47237836
30
0
70
32
0
VERTEX
8
0
62
5
10
0.42426407
20
0.42141299
30
0
70
32
0
VERTEX
8
0
62
5
10
0.49497475
20
0.42141298
30
0
70
32
0
VERTEX
8
0
62
5
10
0.56568542
20
0.47237835
30
0
70
32
0
SEQEND
8
0
0
POLYLINE
8
0
62
5
66
1
10
0
20
0
30
0
70
8
0
SEQEND
8
0
0
POLYLINE
8
0
62
5
66
1
10
0
20
0
30
0
70
8
0
VERTEX
8
0
62
5
10
0.28284271
20
0.47237836
30
0
70
32
0
VERTEX
8
0
62
5
10
0.35355339
20
0.47237836
30
0
70
32
0
VERTEX
8
0
62
5
10
0.42426407
20
0.52334373
30
0
70
32
0
VERTEX
8
0
62
5
10
0.49497475
20
0.52334374
30
0
70
32
0
VERTEX
8
0
62
5
10
0.56568542
20
0.47237836
30
0
70
32
0
SEQEND
8
0
0
POLYLINE
8
0
62
30
66
1
10
0
20
0
30
0
70
8
0
VERTEX
8
0
62
30
10
0.28284271
20
0.47237836
30
0
70
32
0
VERTEX
8
0
62
30
10
0.56568542
20
0.47237836
30
0
70
32
0
SEQEND
8
0
0
POLYLINE
8
0
62
30
66
1
10
0
20
0
30
0
70
8
0
VERTEX
8
0
62
30
10
0.35355339
20
0.47237836
30
0
70
32
0
VERTEX
8
0
62
30
10
0.35355339
20
0.47237836
30
0
70
32
0
SEQEND
8
0
0
POLYLINE
8
0
62
30
66
1
10
0
20
0
30
0
70
8
0
VERTEX
8
0
62
30
10
0.42426407
20
0.42141299
30
0
70
32
0
VERTEX
8
0
62
30
10
0.42426407
20
0.47237836
30
0
70
32
0
SEQEND
8
0
0
POLYLINE
8
0
62
30
66
1
10
0
20
0
30
0
70
8
0
VERTEX
8
0
62
30
10
0.49497475
20
0.42141298
30
0
70
32
0
VERTEX
8
0
62
30
10
0.49497475
20
0.47237836
30
0
70
32
0
SEQEND
8
0
0
POLYLINE
8
0
62
5
66
1
10
0
20
0
30
0
70
8
0
VERTEX
8
0
62
5
10
0.35355339
20
0.41085771
30
0
70
32
0
VERTEX
8
0
62
5
10
0.35355339
20
0.47237836
30
0
70
32
0
SEQEND
8
0
0
POLYLINE
8
0
62
5
66
1
10
0
20
0
30
0
70
8
0
VERTEX
8
0
62
5
10
0.42426407
20
0.41085771
30
0
70
32
0
VERTEX
8
0
62
5
10
0.42426407
20
0.42141299
30
0
70
32
0
SEQEND
8
0
0
POLYLINE
8
0
62
5
66
1
10
0
20
0
30
0
70
8
0
VERTEX
8
0
62
5
10
0.49497475
20
0.41085771
30
0
70
32
0
VERTEX
8
0
62
5
10
0.49497475
20
0.42141298
30
0
70
32
0
SEQEND
8
0
0
POLYLINE
8
0
62
5
66
1
10
0
20
0
30
0
70
8
0
VERTEX
8
0
62
5
10
0.35355339
20
0.47237836
30
0
70
32
0
VERTEX
8
0
62
5
10
0.35355339
20
0.53389901
30
0
70
32
0
SEQEND
8
0
0
POLYLINE
8
0
62
5
66
1
10
0
20
0
30
0
70
8
0
VERTEX
8
0
62
5
10
0.42426407
20
0.47237836
30
0
70
32
0
VERTEX
8
0
62
5
10
0.42426407
20
0.53389901
30
0
70
32
0
SEQEND
8
0
0
POLYLINE
8
0
62
5
66
1
10
0
20
0
30
0
70
8
0
VERTEX
8
0
62
5
10
0.49497475
20
0.47237836
30
0
70
32
0
VERTEX
8
0
62
5
10
0.49497475
20
0.53389901
30
0
70
32
0
SEQEND
8
0
0
POLYLINE
8
0
62
30
66
1
10
0
20
0
30
0
70
8
0
VERTEX
8
0
62
30
10
0.28284271
20
0.47237835
30
0
70
32
0
VERTEX
8
0
62
30
10
0.28284272
20
0.47237836
30
0
70
32
0
VERTEX
8
0
62
30
10
0.28284271
20
0.47237836
30
0
70
32
0
SEQEND
8
0
0
POLYLINE
8
0
62
30
66
1
10
0
20
0
30
0
70
8
0
VERTEX
8
0
62
30
10
0.35355339
20
0.47237836
30
0
70
32
0
VERTEX
8
0
62
30
10
0.35355339
20
0.47237836
30
0
70
32
0
VERTEX
8
0
62
30
10
0.35355339
20
0.47237836
30
0
70
32
0
SEQEND
8
0
0
POLYLINE
8
0
62
30
66
1
10
0
20
0
30
0
70
8
0
VERTEX
8
0
62
30
10
0.42426407
20
0.42141299
30
0
70
32
0
VERTEX
8
0
62
30
10
0.45035418
20
0.47237836
30
0
70
32
0
VERTEX
8
0
62
30
10
0.42426407
20
0.52334373
30
0
70
32
0
SEQEND
8
0
0
POLYLINE
8
0
62
30
66
1
10
0
20
0
30
0
70
8
0
VERTEX
8
0
62
30
10
0.49497475
20
0.42141298
30
0
70
32
0
VERTEX
8
0
62
30
10
0.52106486
20
0.47237836
30
0
70
32
0
VERTEX
8
0
62
30
10
0.49497475
20
0.52334374
30
0
70
32
0
SEQEND
8
0
0
POLYLINE
8
0
62
5
66
1
10
0
20
0
30
0
70
8
0
VERTEX
8
0
62
5
10
-0.28284271
20
0.41085771
30
0
70
32
0
VERTEX
8
0
62
5
10
-0.28284271
20
0.53389901
30
0
70
32
0
SEQEND
8
0
0
POLYLINE
8
0
62
5
66
1
10
0
20
0
30
0
70
8
0
VERTEX
8
0
62
5
10
-0.28284271
20
0.47237835
30
0
70
32
0
VERTEX
8
0
62
5
10
-0.21213203
20
0.47237836
30
0
70
32
0
VERTEX
8
0
62
5
10
-0.14142136
20
0.42141299
30
0
70
32
0
VERTEX
8
0
62
5
10
-0.070710678
20
0.42141298
30
0
70
32
0
VERTEX
8
0
62
5
10
-2.7534086e-12
20
0.47237835
30
0
70
32
0
SEQEND
8
0
0
POLYLINE
8
0
62
5
66
1
10
0
20
0
30
0
70
8
0
SEQEND
8
0
0
POLYLINE
8
0
62
5
66
1
10
0
20
0
30
0
70
8
0
VERTEX
8
0
62
5
10
-0.28284271
20
0.47237836
30
0
70
32
0
VERTEX
8
0
62
5
10
-0.21213203
20
0.47237836
30
0
70
32
0
VERTEX
8
0
62
5
10
-0.14142136
20
0.52334373
30
0
70
32
0
VERTEX
8
0
62
5
10
-0.070710678
20
0.52334374
30
0
70
32
0
VERTEX
8
0
62
5
10
-2.7534086e-12
20
0.47237836
30
0
70
32
0
SEQEND
8
0
0
POLYLINE
8
0
62
30
66
1
10
0
20
0
30
0
70
8
0
VERTEX
8
0
62
30
10
-0.28284271
20
0.47237836
30
0
70
32
0
VERTEX
8
0
62
30
10
-2.7534086e-12
20
0.47237836
30
0
70
32
0
SEQEND
8
0
0
POLYLINE
8
0
62
30
66
1
10
0
20
0
30
0
70
8
0
VERTEX
8
0
62
30
10
-0.21213203
20
0.47237836
30
0
70
32
0
VERTEX
8
0
62
30
10
-0.21213203
20
0.47237836
30
0
70
32
0
SEQEND
8
0
0
POLYLINE
8
0
62
30
66
1
10
0
20
0
30
0
70
8
0
VERTEX
8
0
62
30
10
-0.14142136
20
0.42141299
30
0
70
32
0
VERTEX
8
0
62
30
10
-0.14142136
20
0.47237836
30
0
70
32
0
SEQEND
8
0
0
POLYLINE
8
0
62
30
66
1
10
0
20
0
30
0
70
8
0
VERTEX
8
0
62
30
10
-0.070710678
20
0.42141298
30
0
70
32
0
VERTEX
8
0
62
30
10
-0.070710678
20
0.47237836
30
0
70
32
0
SEQEND
8
0
0
POLYLINE
8
0
62
5
66
1
10
0
20
0
30
0
70
8
0
VERTEX
8
0
62
5
10
-0.21213203
20
0.41085771
30
0
70
32
0
VERTEX
8
0
62
5
10
-0.21213203
20
0.47237836
30
0
70
32
0
SEQEND
8
0
0
POLYLINE
8
0
62
5
66
1
10
0
20
0
30
0
70
8
0
VERTEX
8
0
62
5
10
-0.14142136
20
0.41085771
30
0
70
32
0
VERTEX
8
0
62
5
10
-0.14142136
20
0.42141299
30
0
70
32
0
SEQEND
8
0
0
POLYLINE
8
0
62
5
66
1
10
0
20
0
30
0
70
8
0
VERTEX
8
0
62
5
10
-0.070710678
20
0.41085771
30
0
70
32
0
VERTEX
8
0
62
5
10
-0.070710678
20
0.42141298
30
0
70
32
0
SEQEND
8
0
0
POLYLINE
8
0
62
5
66
1
10
0
20
0
30
0
70
8
0
VERTEX
8
0
62
5
10
-0.21213203
20
0.47237836
30
0
70
32
0
VERTEX
8
0
62
5
10
-0.21213203
20
0.53389901
30
0
70
32
0
SEQEND
8
0
0
POLYLINE
8
0
62
5
66
1
10
0
20
0
30
0
70
8
0
VERTEX
8
0
62
5
10
-0.14142136
20
0.47237836
30
0
70
32
0
VERTEX
8
0
62
5
10
-0.14142136
20
0.53389901
30
0
70
32
0
SEQEND
8
0
0
POLYLINE
8
0
62
5
66
1
10
0
20
0
30
0
70
8
0
VERTEX
8
0
62
5
10
-0.070710678
20
0.47237836
30
0
70
32
0
VERTEX
8
0
62
5
10
-0.070710678
20
0.53389901
30
0
70
32
0
SEQEND
8
0
0
POLYLINE
8
0
62
30
66
1
10
0
20
0
30
0
70
8
0
VERTEX
8
0
62
30
10
-0.28284271
20
0.47237835
30
0
70
32
0
VERTEX
8
0
62
30
10
-0.2828427
20
0.47237836
30
0
70
32
0
VERTEX
8
0
62
30
10
-0.28284271
20
0.47237836
30
0
70
32
0
SEQEND
8
0
0
POLYLINE
8
0
62
30
66
1
10
0
20
0
30
0
70
8
0
VERTEX
8
0
62
30
10
-0.21213203
20
0.47237836
30
0
70
32
0
VERTEX
8
0
62
30
10
-0.21213203
20
0.47237836
30
0
70
32
0
VERTEX
8
0
62
30
10
-0.21213203
20
0.47237836
30
0
70
32
0
SEQEND
8
0
0
POLYLINE
8
0
62
30
66
1
10
0
20
0
30
0
70
8
0
VERTEX
8
0
62
30
10
-0.14142136
20
0.42141299
30
0
70
32
0
VERTEX
8
0
62
30
10
-0.11533125
20
0.47237836
30
0
70
32
0
VERTEX
8
0
62
30
10
-0.14142136
20
0.52334373
30
0
70
32
0
SEQEND
8
0
0
POLYLINE
8
0
62
30
66
1
10
0
20
0
30
0
70
8
0
VERTEX
8
0
62
30
10
-0.070710678
20
0.42141298
30
0
70
32
0
VERTEX
8
0
62
30
10
-0.044620569
20
0.47237836
30
0
70
32
0
VERTEX
8
0
62
30
10
-0.070710678
20
0.52334374
30
0
70
32
0
SEQEND
8
0
0
POLYLINE
8
0
62
5
66
1
10
0
20
0
30
0
70
8
0
VERTEX
8
0
62
5
10
-2.7533809e-12
20
0.53389901
30
0
70
32
0
VERTEX
8
0
62
5
10
-2.7533809e-12
20
0.56552179
30
0
70
32
0
SEQEND
8
0
0
POLYLINE
8
0
62
5
66
1
10
0
20
0
30
0
70
8
0
VERTEX
8
0
62
5
10
0.070710678
20
0.53389901
30
0
70
32
0
VERTEX
8
0
62
5
10
0.070710678
20
0.56552179
30
0
70
32
0
SEQEND
8
0
0
POLYLINE
8
0
62
5
66
1
10
0
20
0
30
0
70
8
0
VERTEX
8
0
62
5
10
0.14142136
20
0.53389901
30
0
70
32
0
VERTEX
8
0
62
5
10
0.14142136
20
0.56552179
30
0
70
32
0
SEQEND
8
0
0
POLYLINE
8
0
62
5
66
1
10
0
20
0
30
0
70
8
0
VERTEX
8
0
62
5
10
0.21213203
20
0.53389901
30
0
70
32
0
VERTEX
8
0
62
5
10
0.21213203
20
0.56552179
30
0
70
32
0
SEQEND
8
0
0
POLYLINE
8
0
62
5
66
1
10
0
20
0
30
0
70
8
0
VERTEX
8
0
62
5
10
0.28284271
20
0.53389901
30
0
70
32
0
VERTEX
8
0
62
5
10
0.28284271
20
0.56552179
30
0
70
32
0
SEQEND
8
0
0
POLYLINE
8
0
62
5
66
1
10
0
20
0
30
0
70
8
0
VERTEX
8
0
62
5
10
0.070710678
20
0.53389901
30
0
70
32
0
VERTEX
8
0
62
5
10
0.070710678
20
0.53389901
30
0
70
32
0
SEQEND
8
0
0
POLYLINE
8
0
62
5
66
1
10
0
20
0
30
0
70
8
0
VERTEX
8
0
62
5
10
0.14142136
20
0.53389901
30
0
70
32
0
VERTEX
8
0
62
5
10
0.14142136
20
0.53389901
30
0
70
32
0
SEQEND
8
0
0
POLYLINE
8
0
62
5
66
1
10
0
20
0
30
0
70
8
0
VERTEX
8
0
62
5
10
0.21213203
20
0.53389901
30
0
70
32
0
VERTEX
8
0
62
5
10
0.21213203
20
0.53389901
30
0
70
32
0
SEQEND
8
0
0
POLYLINE
8
0
62
5
66
1
10
0
20
0
30
0
70
8
0
VERTEX
8
0
62
5
10
3.3410604e-09
20
0.56552179
30
0
70
32
0
VERTEX
8
0
62
5
10
3.3410604e-09
20
0.56552179
30
0
70
32
0
SEQEND
8
0
0
POLYLINE
8
0
62
5
66
1
10
0
20
0
30
0
70
8
0
VERTEX
8
0
62
5
10
0.070710681
20
0.56552179
30
0
70
32
0
VERTEX
8
0
62
5
10
0.070710681
20
0.56552179
30
0
70
32
0
SEQEND
8
0
0
POLYLINE
8
0
62
5
66
1
10
0
20
0
30
0
70
8
0
VERTEX
8
0
62
5
10
0.14142136
20
0.56552179
30
0
70
32
0
VERTEX
8
0
62
5
10
0.14142136
20
0.56552179
30
0
70
32
0
SEQEND
8
0
0
POLYLINE
8
0
62
5
66
1
10
0
20
0
30
0
70
8
0
VERTEX
8
0
62
5
10
0.21213204
20
0.56552179
30
0
70
32
0
VERTEX
8
0
62
5
10
0.21213204
20
0.56552179
30
0
70
32
0
SEQEND
8
0
0
POLYLINE
8
0
62
5
66
1
10
0
20
0
30
0
70
8
0
VERTEX
8
0
62
5
10
0.35355339
20
0.53389901
30
0
70
32
0
VERTEX
8
0
62
5
10
0.35355339
20
0.56552179
30
0
70
32
0
SEQEND
8
0
0
POLYLINE
8
0
62
5
66
1
10
0
20
0
30
0
70
8
0
VERTEX
8
0
62
5
10
0.42426407
20
0.53389901
30
0
70
32
0
VERTEX
8
0
62
5
10
0.42426407
20
0.56552179
30
0
70
32
0
SEQEND
8
0
0
POLYLINE
8
0
62
5
66
1
10
0
20
0
30
0
70
8
0
VERTEX
8
0
62
5
10
0.49497475
20
0.53389901
30
0
70
32
0
VERTEX
8
0
62
5
10
0.49497475
20
0.56552179
30
0
70
32
0
SEQEND
8
0
0
POLYLINE
8
0
62
5
66
1
10
0
20
0
30
0
70
8
0
VERTEX
8
0
62
5
10
0.56568542
20
0.53389901
30
0
70
32
0
VERTEX
8
0
62
5
10
0.56568542
20
0.56552179
30
0
70
32
0
SEQEND
8
0
0
POLYLINE
8
0
62
5
66
1
10
0
20
0
30
0
70
8
0
VERTEX
8
0
62
5
10
0.35355339
20
0.53389901
30
0
70
32
0
VERTEX
8
0
62
5
10
0.35355339
20
0.53389901
30
0
70
32
0
SEQEND
8
0
0
POLYLINE
8
0
62
5
66
1
10
0
20
0
30
0
70
8
0
VERTEX
8
0
62
5
10
0.42426407
20
0.53389901
30
0
70
32
0
VERTEX
8
0
62
5
10
0.42426407
20
0.53389901
30
0
70
32
0
SEQEND
8
0
0
POLYLINE
8
0
62
5
66
1
10
0
20
0
30
0
70
8
0
VERTEX
8
0
62
5
10
0.49497475
20
0.53389901
30
0
70
32
0
VERTEX
8
0
62
5
10
0.49497475
20
0.53389901
30
0
70
32
0
SEQEND
8
0
0
POLYLINE
8
0
62
5
66
1
10
0
20
0
30
0
70
8
0
VERTEX
8
0
62
5
10
0.28284272
20
0.56552179
30
0
70
32
0
VERTEX
8
0
62
5
10
0.28284272
20
0.56552179
30
0
70
32
0
SEQEND
8
0
0
POLYLINE
8
0
62
5
66
1
10
0
20
0
30
0
70
8
0
VERTEX
8
0
62
5
10
0.35355339
20
0.56552179
30
0
70
32
0
VERTEX
8
0
62
5
10
0.35355339
20
0.56552179
30
0
70
32
0
SEQEND
8
0
0
POLYLINE
8
0
62
5
66
1
10
0
20
0
30
0
70
8
0
VERTEX
8
0
62
5
10
0.42426407
20
0.56552179
30
0
70
32
0
VERTEX
8
0
62
5
10
0.42426407
20
0.56552179
30
0
70
32
0
SEQEND
8
0
0
POLYLINE
8
0
62
5
66
1
10
0
20
0
30
0
70
8
0
VERTEX
8
0
62
5
10
0.49497475
20
0.56552179
30
0
70
32
0
VERTEX
8
0
62
5
10
0.49497475
20
0.56552179
30
0
70
32
0
SEQEND
8
0
0
POLYLINE
8
0
62
5
66
1
10
0
20
0
30
0
70
8
0
VERTEX
8
0
62
5
10
-0.21213203
20
0.53389901
30
0
70
32
0
VERTEX
8
0
62
5
10
-0.21213203
20
0.56552179
30
0
70
32
0
SEQEND
8
0
0
POLYLINE
8
0
62
5
66
1
10
0
20
0
30
0
70
8
0
VERTEX
8
0
62
5
10
-0.14142136
20
0.53389901
30
0
70
32
0
VERTEX
8
0
62
5
10
-0.14142136
20
0.56552179
30
0
70
32
0
SEQEND
8
0
0
POLYLINE
8
0
62
5
66
1
10
0
20
0
30
0
70
8
0
VERTEX
8
0
62
5
10
-0.070710678
20
0.53389901
30
0
70
32
0
VERTEX
8
0
62
5
10
-0.070710678
20
0.56552179
30
0
70
32
0
SEQEND
8
0
0
POLYLINE
8
0
62
5
66
1
10
0
20
0
30
0
70
8
0
VERTEX
8
0
62
5
10
-2.7534086e-12
20
0.53389901
30
0
70
32
0
VERTEX
8
0
62
5
10
-2.7534086e-12
20
0.56552179
30
0
70
32
0
SEQEND
8
0
0
POLYLINE
8
0
62
5
66
1
10
0
20
0
30
0
70
8
0
VERTEX
8
0
62
5
10
-0.21213203
20
0.53389901
30
0
70
32
0
VERTEX
8
0
62
5
10
-0.21213203
20
0.53389901
30
0
70
32
0
SEQEND
8
0
0
POLYLINE
8
0
62
5
66
1
10
0
20
0
30
0
70
8
0
VERTEX
8
0
62
5
10
-0.14142136
20
0.53389901
30
0
70
32
0
VERTEX
8
0
62
5
10
-0.14142136
20
0.53389901
30
0
70
32
0
SEQEND
8
0
0
POLYLINE
8
0
62
5
66
1
10
0
20
0
30
0
70
8
0
VERTEX
8
0
62
5
10
-0.070710678
20
0.53389901
30
0
70
32
0
VERTEX
8
0
62
5
10
-0.070710678
20
0.53389901
30
0
70
32
0
SEQEND
8
0
0
POLYLINE
8
0
62
5
66
1
10
0
20
0
30
0
70
8
0
VERTEX
8
0
62
5
10
-0.28284271
20
0.56552179
30
0
70
32
0
VERTEX
8
0
62
5
10
-0.28284271
20
0.56552179
30
0
70
32
0
SEQEND
8
0
0
POLYLINE
8
0
62
5
66
1
10
0
20
0
30
0
70
8
0
VERTEX
8
0
62
5
10
-0.21213203
20
0.56552179
30
0
70
32
0
VERTEX
8
0
62
5
10
-0.21213203
20
0.56552179
30
0
70
32
0
SEQEND
8
0
0
POLYLINE
8
0
62
5
66
1
10
0
20
0
30
0
70
8
0
VERTEX
8
0
62
5
10
-0.14142135
20
0.56552179
30
0
70
32
0
VERTEX
8
0
62
5
10
-0.14142135
20
0.56552179
30
0
70
32
0
SEQEND
8
0
0
POLYLINE
8
0
62
5
66
1
10
0
20
0
30
0
70
8
0
VERTEX
8
0
62
5
10
-0.070710675
20
0.56552179
30
0
70
32
0
VERTEX
8
0
62
5
10
-0.070710675
20
0.56552179
30
0
70
32
0
SEQEND
8
0
0
POLYLINE
8
0
62
5
66
1
10
0
20
0
30
0
70
8
0
VERTEX
8
0
62
5
10
3.3410604e-09
20
0.56552179
30
0
70
32
0
VERTEX
8
0
62
5
10
3.3410604e-09
20
0.6920129
30
0
70
32
0
SEQEND
8
0
0
POLYLINE
8
0
62
5
66
1
10
0
20
0
30
0
70
8
0
VERTEX
8
0
62
5
10
0.28284272
20
0.56552179
30
0
70
32
0
VERTEX
8
0
62
5
10
0.28284272
20
0.6920129
30
0
70
32
0
SEQEND
8
0
0
POLYLINE
8
0
62
5
66
1
10
0
20
0
30
0
70
8
0
VERTEX
8
0
62
5
10
0.070710681
20
0.56552179
30
0
70
32
0
VERTEX
8
0
62
5
10
0.070710681
20
0.6920129
30
0
70
32
0
SEQEND
8
0
0
POLYLINE
8
0
62
5
66
1
10
0
20
0
30
0
70
8
0
VERTEX
8
0
62
5
10
0.14142136
20
0.56552179
30
0
70
32
0
VERTEX
8
0
62
5
10
0.14142136
20
0.6920129
30
0
70
32
0
SEQEND
8
0
0
POLYLINE
8
0
62
5
66
1
10
0
20
0
30
0
70
8
0
VERTEX
8
0
62
5
10
0.21213204
20
0.56552179
30
0
70
32
0
VERTEX
8
0
62
5
10
0.21213204
20
0.6920129
30
0
70
32
0
SEQEND
8
0
0
POLYLINE
8
0
62
5
66
1
10
0
20
0
30
0
70
8
0
VERTEX
8
0
62
5
10
0.56568543
20
0.56552179
30
0
70
32
0
VERTEX
8
0
62
5
10
0.56568543
20
0.6920129
30
0
70
32
0
SEQEND
8
0
0
POLYLINE
8
0
62
5
66
1
10
0
20
0
30
0
70
8
0
VERTEX
8
0
62
5
10
0.35355339
20
0.56552179
30
0
70
32
0
VERTEX
8
0
62
5
10
0.35355339
20
0.6920129
30
0
70
32
0
SEQEND
8
0
0
POLYLINE
8
0
62
5
66
1
10
0
20
0
30
0
70
8
0
VERTEX
8
0
62
5
10
0.42426407
20
0.56552179
30
0
70
32
0
VERTEX
8
0
62
5
10
0.42426407
20
0.6920129
30
0
70
32
0
SEQEND
8
0
0
POLYLINE
8
0
62
5
66
1
10
0
20
0
30
0
70
8
0
VERTEX
8
0
62
5
10
0.49497475
20
0.56552179
30
0
70
32
0
VERTEX
8
0
62
5
10
0.49497475
20
0.6920129
30
0
70
32
0
SEQEND
8
0
0
POLYLINE
8
0
62
5
66
1
10
0
20
0
30
0
70
8
0
VERTEX
8
0
62
5
10
-0.28284271
20
0.56552179
30
0
70
32
0
VERTEX
8
0
62
5
10
-0.28284271
20
0.6920129
30
0
70
32
0
SEQEND
8
0
0
POLYLINE
8
0
62
5
66
1
10
0
20
0
30
0
70
8
0
VERTEX
8
0
62
5
10
-0.21213203
20
0.56552179
30
0
70
32
0
VERTEX
8
0
62
5
10
-0.21213203
20
0.6920129
30
0
70
32
0
SEQEND
8
0
0
POLYLINE
8
0
62
5
66
1
10
0
20
0
30
0
70
8
0
VERTEX
8
0
62
5
10
-0.14142135
20
0.56552179
30
0
70
32
0
VERTEX
8
0
62
5
10
-0.14142135
20
0.6920129
30
0
70
32
0
SEQEND
8
0
0
POLYLINE
8
0
62
5
66
1
10
0
20
0
30
0
70
8
0
VERTEX
8
0
62
5
10
-0.070710675
20
0.56552179
30
0
70
32
0
VERTEX
8
0
62
5
10
-0.070710675
20
0.6920129
30
0
70
32
0
SEQEND
8
0
0
POLYLINE
8
0
62
5
66
1
10
0
20
0
30
0
70
8
0
VERTEX
8
0
62
5
10
3.3410604e-09
20
0.6920129
30
0
70
32
0
VERTEX
8
0
62
5
10
3.3410604e-09
20
0.71971543
30
0
70
32
0
SEQEND
8
0
0
POLYLINE
8
0
62
5
66
1
10
0
20
0
30
0
70
8
0
VERTEX
8
0
62
5
10
0.28284272
20
0.71971543
30
0
70
32
0
VERTEX
8
0
62
5
10
0.28284272
20
0.6920129
30
0
70
32
0
SEQEND
8
0
0
POLYLINE
8
0
62
5
66
1
10
0
20
0
30
0
70
8
0
VERTEX
8
0
62
5
10
3.3410604e-09
20
0.70586416
30
0
70
32
0
VERTEX
8
0
62
5
10
0.070710681
20
0.70586416
30
0
70
32
0
VERTEX
8
0
62
5
10
0.14142136
20
0.6943894
30
0
70
32
0
VERTEX
8
0
62
5
10
0.21213204
20
0.6943894
30
0
70
32
0
VERTEX
8
0
62
5
10
0.28284272
20
0.70586416
30
0
70
32
0
SEQEND
8
0
0
POLYLINE
8
0
62
5
66
1
10
0
20
0
30
0
70
8
0
SEQEND
8
0
0
POLYLINE
8
0
62
5
66
1
10
0
20
0
30
0
70
8
0
VERTEX
8
0
62
5
10
3.3410604e-09
20
0.70586416
30
0
70
32
0
VERTEX
8
0
62
5
10
0.070710681
20
0.70586417
30
0
70
32
0
VERTEX
8
0
62
5
10
0.14142136
20
0.71733893
30
0
70
32
0
VERTEX
8
0
62
5
10
0.21213204
20
0.71733893
30
0
70
32
0
VERTEX
8
0
62
5
10
0.28284272
20
0.70586416
30
0
70
32
0
SEQEND
8
0
0
POLYLINE
8
0
62
30
66
1
10
0
20
0
30
0
70
8
0
VERTEX
8
0
62
30
10
3.3410604e-09
20
0.70586416
30
0
70
32
0
VERTEX
8
0
62
30
10
0.28284272
20
0.70586416
30
0
70
32
0
SEQEND
8
0
0
POLYLINE
8
0
62
30
66
1
10
0
20
0
30
0
70
8
0
VERTEX
8
0
62
30
10
0.070710681
20
0.70586416
30
0
70
32
0
VERTEX
8
0
62
30
10
0.070710681
20
0.70586416
30
0
70
32
0
SEQEND
8
0
0
POLYLINE
8
0
62
30
66
1
10
0
20
0
30
0
70
8
0
VERTEX
8
0
62
30
10
0.14142136
20
0.6943894
30
0
70
32
0
VERTEX
8
0
62
30
10
0.14142136
20
0.70586416
30
0
70
32
0
SEQEND
8
0
0
POLYLINE
8
0
62
30
66
1
10
0
20
0
30
0
70
8
0
VERTEX
8
0
62
30
10
0.21213204
20
0.6943894
30
0
70
32
0
VERTEX
8
0
62
30
10
0.21213204
20
0.70586416
30
0
70
32
0
SEQEND
8
0
0
POLYLINE
8
0
62
5
66
1
10
0
20
0
30
0
70
8
0
VERTEX
8
0
62
5
10
0.070710681
20
0.6920129
30
0
70
32
0
VERTEX
8
0
62
5
10
0.070710681
20
0.70586416
30
0
70
32
0
SEQEND
8
0
0
POLYLINE
8
0
62
5
66
1
10
0
20
0
30
0
70
8
0
VERTEX
8
0
62
5
10
0.14142136
20
0.6920129
30
0
70
32
0
VERTEX
8
0
62
5
10
0.14142136
20
0.6943894
30
0
70
32
0
SEQEND
8
0
0
POLYLINE
8
0
62
5
66
1
10
0
20
0
30
0
70
8
0
VERTEX
8
0
62
5
10
0.21213204
20
0.6920129
30
0
70
32
0
VERTEX
8
0
62
5
10
0.21213204
20
0.6943894
30
0
70
32
0
SEQEND
8
0
0
POLYLINE
8
0
62
5
66
1
10
0
20
0
30
0
70
8
0
VERTEX
8
0
62
5
10
0.070710681
20
0.70586416
30
0
70
32
0
VERTEX
8
0
62
5
10
0.070710681
20
0.71971543
30
0
70
32
0
SEQEND
8
0
0
POLYLINE
8
0
62
5
66
1
10
0
20
0
30
0
70
8
0
VERTEX
8
0
62
5
10
0.14142136
20
0.70586416
30
0
70
32
0
VERTEX
8
0
62
5
10
0.14142136
20
0.71971543
30
0
70
32
0
SEQEND
8
0
0
POLYLINE
8
0
62
5
66
1
10
0
20
0
30
0
70
8
0
VERTEX
8
0
62
5
10
0.21213204
20
0.70586416
30
0
70
32
0
VERTEX
8
0
62
5
10
0.21213204
20
0.71971543
30
0
70
32
0
SEQEND
8
0
0
POLYLINE
8
0
62
30
66
1
10
0
20
0
30
0
70
8
0
VERTEX
8
0
62
30
10
3.3410604e-09
20
0.70586416
30
0
70
32
0
VERTEX
8
0
62
30
10
3.3410604e-09
20
0.70586416
30
0
70
32
0
VERTEX
8
0
62
30
10
3.3410604e-09
20
0.70586416
30
0
70
32
0
SEQEND
8
0
0
POLYLINE
8
0
62
30
66
1
10
0
20
0
30
0
70
8
0
VERTEX
8
0
62
30
10
0.070710681
20
0.70586416
30
0
70
32
0
VERTEX
8
0
62
30
10
0.070710686
20
0.70586416
30
0
70
32
0
VERTEX
8
0
62
30
10
0.070710681
20
0.70586417
30
0
70
32
0
SEQEND
8
0
0
POLYLINE
8
0
62
30
66
1
10
0
20
0
30
0
70
8
0
VERTEX
8
0
62
30
10
0.14142136
20
0.6943894
30
0
70
32
0
VERTEX
8
0
62
30
10
0.15118413
20
0.70586416
30
0
70
32
0
VERTEX
8
0
62
30
10
0.14142136
20
0.71733893
30
0
70
32
0
SEQEND
8
0
0
POLYLINE
8
0
62
30
66
1
10
0
20
0
30
0
70
8
0
VERTEX
8
0
62
30
10
0.21213204
20
0.6943894
30
0
70
32
0
VERTEX
8
0
62
30
10
0.22189481
20
0.70586416
30
0
70
32
0
VERTEX
8
0
62
30
10
0.21213204
20
0.71733893
30
0
70
32
0
SEQEND
8
0
0
POLYLINE
8
0
62
5
66
1
10
0
20
0
30
0
70
8
0
VERTEX
8
0
62
5
10
0.56568543
20
0.71971543
30
0
70
32
0
VERTEX
8
0
62
5
10
0.56568543
20
0.6920129
30
0
70
32
0
SEQEND
8
0
0
POLYLINE
8
0
62
5
66
1
10
0
20
0
30
0
70
8
0
VERTEX
8
0
62
5
10
0.28284272
20
0.70586416
30
0
70
32
0
VERTEX
8
0
62
5
10
0.35355339
20
0.70586416
30
0
70
32
0
VERTEX
8
0
62
5
10
0.42426407
20
0.6943894
30
0
70
32
0
VERTEX
8
0
62
5
10
0.49497475
20
0.6943894
30
0
70
32
0
VERTEX
8
0
62
5
10
0.56568543
20
0.70586416
30
0
70
32
0
SEQEND
8
0
0
POLYLINE
8
0
62
5
66
1
10
0
20
0
30
0
70
8
0
SEQEND
8
0
0
POLYLINE
8
0
62
5
66
1
10
0
20
0
30
0
70
8
0
VERTEX
8
0
62
5
10
0.28284272
20
0.70586416
30
0
70
32
0
VERTEX
8
0
62
5
10
0.35355339
20
0.70586417
30
0
70
32
0
VERTEX
8
0
62
5
10
0.42426407
20
0.71733893
30
0
70
32
0
VERTEX
8
0
62
5
10
0.49497475
20
0.71733893
30
0
70
32
0
VERTEX
8
0
62
5
10
0.56568543
20
0.70586416
30
0
70
32
0
SEQEND
8
0
0
POLYLINE
8
0
62
30
66
1
10
0
20
0
30
0
70
8
0
VERTEX
8
0
62
30
10
0.28284272
20
0.70586416
30
0
70
32
0
VERTEX
8
0
62
30
10
0.56568543
20
0.70586416
30
0
70
32
0
SEQEND
8
0
0
POLYLINE
8
0
62
30
66
1
10
0
20
0
30
0
70
8
0
VERTEX
8
0
62
30
10
0.35355339
20
0.70586416
30
0
70
32
0
VERTEX
8
0
62
30
10
0.35355339
20
0.70586416
30
0
70
32
0
SEQEND
8
0
0
POLYLINE
8
0
62
30
66
1
10
0
20
0
30
0
70
8
0
VERTEX
8
0
62
30
10
0.42426407
20
0.6943894
30
0
70
32
0
VERTEX
8
0
62
30
10
0.42426407
20
0.70586416
30
0
70
32
0
SEQEND
8
0
0
POLYLINE
8
0
62
30
66
1
10
0
20
0
30
0
70
8
0
VERTEX
8
0
62
30
10
0.49497475
20
0.6943894
30
0
70
32
0
VERTEX
8
0
62
30
10
0.49497475
20
0.70586416
30
0
70
32
0
SEQEND
8
0
0
POLYLINE
8
0
62
5
66
1
10
0
20
0
30
0
70
8
0
VERTEX
8
0
62
5
10
0.35355339
20
0.6920129
30
0
70
32
0
VERTEX
8
0
62
5
10
0.35355339
20
0.70586416
30
0
70
32
0
SEQEND
8
0
0
POLYLINE
8
0
62
5
66
1
10
0
20
0
30
0
70
8
0
VERTEX
8
0
62
5
10
0.42426407
20
0.6920129
30
0
70
32
0
VERTEX
8
0
62
5
10
0.42426407
20
0.6943894
30
0
70
32
0
SEQEND
8
0
0
POLYLINE
8
0
62
5
66
1
10
0
20
0
30
0
70
8
0
VERTEX
8
0
62
5
10
0.49497475
20
0.6920129
30
0
70
32
0
VERTEX
8
0
62
5
10
0.49497475
20
0.6943894
30
0
70
32
0
SEQEND
8
0
0
POLYLINE
8
0
62
5
66
1
10
0
20
0
30
0
70
8
0
VERTEX
8
0
62
5
10
0.35355339
20
0.70586416
30
0
70
32
0
VERTEX
8
0
62
5
10
0.35355339
20
0.71971543
30
0
70
32
0
SEQEND
8
0
0
POLYLINE
8
0
62
5
66
1
10
0
20
0
30
0
70
8
0
VERTEX
8
0
62
5
10
0.42426407
20
0.70586416
30
0
70
32
0
VERTEX
8
0
62
5
10
0.42426407
20
0.71971543
30
0
70
32
0
SEQEND
8
0
0
POLYLINE
8
0
62
5
66
1
10
0
20
0
30
0
70
8
0
VERTEX
8
0
62
5
10
0.49497475
20
0.70586416
30
0
70
32
0
VERTEX
8
0
62
5
10
0.49497475
20
0.71971543
30
0
70
32
0
SEQEND
8
0
0
POLYLINE
8
0
62
30
66
1
10
0
20
0
30
0
70
8
0
VERTEX
8
0
62
30
10
0.28284272
20
0.70586416
30
0
70
32
0
VERTEX
8
0
62
30
10
0.28284272
20
0.70586416
30
0
70
32
0
VERTEX
8
0
62
30
10
0.28284272
20
0.70586416
30
0
70
32
0
SEQEND
8
0
0
POLYLINE
8
0
62
30
66
1
10
0
20
0
30
0
70
8
0
VERTEX
8
0
62
30
10
0.35355339
20
0.70586416
30
0
70
32
0
VERTEX
8
0
62
30
10
0.3535534
20
0.70586416
30
0
70
32
0
VERTEX
8
0
62
30
10
0.35355339
20
0.70586417
30
0
70
32
0
SEQEND
8
0
0
POLYLINE
8
0
62
30
66
1
10
0
20
0
30
0
70
8
0
VERTEX
8
0
62
30
10
0.42426407
20
0.6943894
30
0
70
32
0
VERTEX
8
0
62
30
10
0.43402685
20
0.70586416
30
0
70
32
0
VERTEX
8
0
62
30
10
0.42426407
20
0.71733893
30
0
70
32
0
SEQEND
8
0
0
POLYLINE
8
0
62
30
66
1
10
0
20
0
30
0
70
8
0
VERTEX
8
0
62
30
10
0.49497475
20
0.6943894
30
0
70
32
0
VERTEX
8
0
62
30
10
0.50473752
20
0.70586416
30
0
70
32
0
VERTEX
8
0
62
30
10
0.49497475
20
0.71733893
30
0
70
32
0
SEQEND
8
0
0
POLYLINE
8
0
62
5
66
1
10
0
20
0
30
0
70
8
0
VERTEX
8
0
62
5
10
-0.28284271
20
0.6920129
30
0
70
32
0
VERTEX
8
0
62
5
10
-0.28284271
20
0.71971543
30
0
70
32
0
SEQEND
8
0
0
POLYLINE
8
0
62
5
66
1
10
0
20
0
30
0
70
8
0
VERTEX
8
0
62
5
10
-0.28284271
20
0.70586416
30
0
70
32
0
VERTEX
8
0
62
5
10
-0.21213203
20
0.70586416
30
0
70
32
0
VERTEX
8
0
62
5
10
-0.14142135
20
0.6943894
30
0
70
32
0
VERTEX
8
0
62
5
10
-0.070710675
20
0.6943894
30
0
70
32
0
VERTEX
8
0
62
5
10
3.3410604e-09
20
0.70586416
30
0
70
32
0
SEQEND
8
0
0
POLYLINE
8
0
62
5
66
1
10
0
20
0
30
0
70
8
0
SEQEND
8
0
0
POLYLINE
8
0
62
5
66
1
10
0
20
0
30
0
70
8
0
VERTEX
8
0
62
5
10
-0.28284271
20
0.70586416
30
0
70
32
0
VERTEX
8
0
62
5
10
-0.21213203
20
0.70586417
30
0
70
32
0
VERTEX
8
0
62
5
10
-0.14142135
20
0.71733893
30
0
70
32
0
VERTEX
8
0
62
5
10
-0.070710675
20
0.71733893
30
0
70
32
0
VERTEX
8
0
62
5
10
3.3410604e-09
20
0.70586416
30
0
70
32
0
SEQEND
8
0
0
POLYLINE
8
0
62
30
66
1
10
0
20
0
30
0
70
8
0
VERTEX
8
0
62
30
10
-0.28284271
20
0.70586416
30
0
70
32
0
VERTEX
8
0
62
30
10
3.3410604e-09
20
0.70586416
30
0
70
32
0
SEQEND
8
0
0
POLYLINE
8
0
62
30
66
1
10
0
20
0
30
0
70
8
0
VERTEX
8
0
62
30
10
-0.21213203
20
0.70586416
30
0
70
32
0
VERTEX
8
0
62
30
10
-0.21213203
20
0.70586416
30
0
70
32
0
SEQEND
8
0
0
POLYLINE
8
0
62
30
66
1
10
0
20
0
30
0
70
8
0
VERTEX
8
0
62
30
10
-0.14142135
20
0.6943894
30
0
70
32
0
VERTEX
8
0
62
30
10
-0.14142135
20
0.70586416
30
0
70
32
0
SEQEND
8
0
0
POLYLINE
8
0
62
30
66
1
10
0
20
0
30
0
70
8
0
VERTEX
8
0
62
30
10
-0.070710675
20
0.6943894
30
0
70
32
0
VERTEX
8
0
62
30
10
-0.070710675
20
0.70586416
30
0
70
32
0
SEQEND
8
0
0
POLYLINE
8
0
62
5
66
1
10
0
20
0
30
0
70
8
0
VERTEX
8
0
62
5
10
-0.21213203
20
0.6920129
30
0
70
32
0
VERTEX
8
0
62
5
10
-0.21213203
20
0.70586416
30
0
70
32
0
SEQEND
8
0
0
POLYLINE
8
0
62
5
66
1
10
0
20
0
30
0
70
8
0
VERTEX
8
0
62
5
10
-0.14142135
20
0.6920129
30
0
70
32
0
VERTEX
8
0
62
5
10
-0.14142135
20
0.6943894
30
0
70
32
0
SEQEND
8
0
0
POLYLINE
8
0
62
5
66
1
10
0
20
0
30
0
70
8
0
VERTEX
8
0
62
5
10
-0.070710675
20
0.6920129
30
0
70
32
0
VERTEX
8
0
62
5
10
-0.070710675
20
0.6943894
30
0
70
32
0
SEQEND
8
0
0
POLYLINE
8
0
62
5
66
1
10
0
20
0
30
0
70
8
0
VERTEX
8
0
62
5
10
-0.21213203
20
0.70586416
30
0
70
32
0
VERTEX
8
0
62
5
10
-0.21213203
20
0.71971543
30
0
70
32
0
SEQEND
8
0
0
POLYLINE
8
0
62
5
66
1
10
0
20
0
30
0
70
8
0
VERTEX
8
0
62
5
10
-0.14142135
20
0.70586416
30
0
70
32
0
VERTEX
8
0
62
5
10
-0.14142135
20
0.71971543
30
0
70
32
0
SEQEND
8
0
0
POLYLINE
8
0
62
5
66
1
10
0
20
0
30
0
70
8
0
VERTEX
8
0
62
5
10
-0.070710675
20
0.70586416
30
0
70
32
0
VERTEX
8
0
62
5
10
-0.070710675
20
0.71971543
30
0
70
32
0
SEQEND
8
0
0
POLYLINE
8
0
62
30
66
1
10
0
20
0
30
0
70
8
0
VERTEX
8
0
62
30
10
-0.28284271
20
0.70586416
30
0
70
32
0
VERTEX
8
0
62
30
10
-0.28284271
20
0.70586416
30
0
70
32
0
VERTEX
8
0
62
30
10
-0.28284271
20
0.70586416
30
0
70
32
0
SEQEND
8
0
0
POLYLINE
8
0
62
30
66
1
10
0
20
0
30
0
70
8
0
VERTEX
8
0
62
30
10
-0.21213203
20
0.70586416
30
0
70
32
0
VERTEX
8
0
62
30
10
-0.21213203
20
0.70586416
30
0
70
32
0
VERTEX
8
0
62
30
10
-0.21213203
20
0.70586417
30
0
70
32
0
SEQEND
8
0
0
POLYLINE
8
0
62
30
66
1
10
0
20
0
30
0
70
8
0
VERTEX
8
0
62
30
10
-0.14142135
20
0.6943894
30
0
70
32
0
VERTEX
8
0
62
30
10
-0.13165858
20
0.70586416
30
0
70
32
0
VERTEX
8
0
62
30
10
-0.14142135
20
0.71733893
30
0
70
32
0
SEQEND
8
0
0
POLYLINE
8
0
62
30
66
1
10
0
20
0
30
0
70
8
0
VERTEX
8
0
62
30
10
-0.070710675
20
0.6943894
30
0
70
32
0
VERTEX
8
0
62
30
10
-0.060947902
20
0.70586416
30
0
70
32
0
VERTEX
8
0
62
30
10
-0.070710675
20
0.71733893
30
0
70
32
0
SEQEND
8
0
0
POLYLINE
8
0
62
5
66
1
10
0
20
0
30
0
70
8
0
VERTEX
8
0
62
5
10
3.3410604e-09
20
0.71971543
30
0
70
32
0
VERTEX
8
0
62
5
10
3.3410604e-09
20
0.72071543
30
0
70
32
0
SEQEND
8
0
0
POLYLINE
8
0
62
5
66
1
10
0
20
0
30
0
70
8
0
VERTEX
8
0
62
5
10
0.28284272
20
0.71971543
30
0
70
32
0
VERTEX
8
0
62
5
10
0.28284272
20
0.72071543
30
0
70
32
0
SEQEND
8
0
0
POLYLINE
8
0
62
5
66
1
10
0
20
0
30
0
70
8
0
VERTEX
8
0
62
5
10
0.070710681
20
0.71971543
30
0
70
32
0
VERTEX
8
0
62
5
10
0.070710681
20
0.72071543
30
0
70
32
0
SEQEND
8
0
0
POLYLINE
8
0
62
5
66
1
10
0
20
0
30
0
70
8
0
VERTEX
8
0
62
5
10
0.14142136
20
0.71971543
30
0
70
32
0
VERTEX
8
0
62
5
10
0.14142136
20
0.72071543
30
0
70
32
0
SEQEND
8
0
0
POLYLINE
8
0
62
5
66
1
10
0
20
0
30
0
70
8
0
VERTEX
8
0
62
5
10
0.21213204
20
0.71971543
30
0
70
32
0
VERTEX
8
0
62
5
10
0.21213204
20
0.72071543
30
0
70
32
0
SEQEND
8
0
0
POLYLINE
8
0
62
5
66
1
10
0
20
0
30
0
70
8
0
VERTEX
8
0
62
5
10
0.56568543
20
0.71971543
30
0
70
32
0
VERTEX
8
0
62
5
10
0.56568543
20
0.72071543
30
0
70
32
0
SEQEND
8
0
0
POLYLINE
8
0
62
5
66
1
10
0
20
0
30
0
70
8
0
VERTEX
8
0
62
5
10
0.35355339
20
0.71971543
30
0
70
32
0
VERTEX
8
0
62
5
10
0.35355339
20
0.72071543
30
0
70
32
0
SEQEND
8
0
0
POLYLINE
8
0
62
5
66
1
10
0
20
0
30
0
70
8
0
VERTEX
8
0
62
5
10
0.42426407
20
0.71971543
30
0
70
32
0
VERTEX
8
0
62
5
10
0.42426407
20
0.72071543
30
0
70
32
0
SEQEND
8
0
0
POLYLINE
8
0
62
5
66
1
10
0
20
0
30
0
70
8
0
VERTEX
8
0
62
5
10
0.49497475
20
0.71971543
30
0
70
32
0
VERTEX
8
0
62
5
10
0.49497475
20
0.72071543
30
0
70
32
0
SEQEND
8
0
0
POLYLINE
8
0
62
5
66
1
10
0
20
0
30
0
70
8
0
VERTEX
8
0
62
5
10
-0.28284271
20
0.71971543
30
0
70
32
0
VERTEX
8
0
62
5
10
-0.28284271
20
0.72071543
30
0
70
32
0
SEQEND
8
0
0
POLYLINE
8
0
62
5
66
1
10
0
20
0
30
0
70
8
0
VERTEX
8
0
62
5
10
-0.21213203
20
0.71971543
30
0
70
32
0
VERTEX
8
0
62
5
10
-0.21213203
20
0.72071543
30
0
70
32
0
SEQEND
8
0
0
POLYLINE
8
0
62
5
66
1
10
0
20
0
30
0
70
8
0
VERTEX
8
0
62
5
10
-0.14142135
20
0.71971543
30
0
70
32
0
VERTEX
8
0
62
5
10
-0.14142135
20
0.72071543
30
0
70
32
0
SEQEND
8
0
0
POLYLINE
8
0
62
5
66
1
10
0
20
0
30
0
70
8
0
VERTEX
8
0
62
5
10
-0.070710675
20
0.71971543
30
0
70
32
0
VERTEX
8
0
62
5
10
-0.070710675
20
0.72071543
30
0
70
32
0
SEQEND
8
0
0
POLYLINE
8
0
62
5
66
1
10
0
20
0
30
0
70
8
0
VERTEX
8
0
62
5
10
3.3410604e-09
20
0.72071543
30
0
70
32
0
VERTEX
8
0
62
5
10
3.3410604e-09
20
0.86213692
30
0
70
32
0
SEQEND
8
0
0
POLYLINE
8
0
62
5
66
1
10
0
20
0
30
0
70
8
0
VERTEX
8
0
62
5
10
0.28284272
20
0.86213692
30
0
70
32
0
VERTEX
8
0
62
5
10
0.28284272
20
0.72071543
30
0
70
32
0
SEQEND
8
0
0
POLYLINE
8
0
62
5
66
1
10
0
20
0
30
0
70
8
0
VERTEX
8
0
62
5
10
3.3410604e-09
20
0.7560708
30
0
70
32
0
VERTEX
8
0
62
5
10
0.070710681
20
0.75607074
30
0
70
32
0
VERTEX
8
0
62
5
10
0.14142136
20
0.72678141
30
0
70
32
0
VERTEX
8
0
62
5
10
0.21213204
20
0.72678148
30
0
70
32
0
VERTEX
8
0
62
5
10
0.28284272
20
0.7560708
30
0
70
32
0
SEQEND
8
0
0
POLYLINE
8
0
62
5
66
1
10
0
20
0
30
0
70
8
0
VERTEX
8
0
62
5
10
3.3410604e-09
20
0.82678155
30
0
70
32
0
VERTEX
8
0
62
5
10
0.070710681
20
0.82678148
30
0
70
32
0
VERTEX
8
0
62
5
10
0.14142136
20
0.79749216
30
0
70
32
0
VERTEX
8
0
62
5
10
0.21213204
20
0.79749223
30
0
70
32
0
VERTEX
8
0
62
5
10
0.28284272
20
0.82678155
30
0
70
32
0
SEQEND
8
0
0
POLYLINE
8
0
62
5
66
1
10
0
20
0
30
0
70
8
0
VERTEX
8
0
62
5
10
3.3410604e-09
20
0.7560708
30
0
70
32
0
VERTEX
8
0
62
5
10
0.070710681
20
0.75607087
30
0
70
32
0
VERTEX
8
0
62
5
10
0.14142136
20
0.78536019
30
0
70
32
0
VERTEX
8
0
62
5
10
0.21213204
20
0.78536013
30
0
70
32
0
VERTEX
8
0
62
5
10
0.28284272
20
0.7560708
30
0
70
32
0
SEQEND
8
0
0
POLYLINE
8
0
62
5
66
1
10
0
20
0
30
0
70
8
0
VERTEX
8
0
62
5
10
3.3410604e-09
20
0.82678155
30
0
70
32
0
VERTEX
8
0
62
5
10
0.070710681
20
0.82678162
30
0
70
32
0
VERTEX
8
0
62
5
10
0.14142136
20
0.85607094
30
0
70
32
0
VERTEX
8
0
62
5
10
0.21213204
20
0.85607087
30
0
70
32
0
VERTEX
8
0
62
5
10
0.28284272
20
0.82678155
30
0
70
32
0
SEQEND
8
0
0
POLYLINE
8
0
62
30
66
1
10
0
20
0
30
0
70
8
0
VERTEX
8
0
62
30
10
3.3410604e-09
20
0.7560708
30
0
70
32
0
VERTEX
8
0
62
30
10
0.28284272
20
0.7560708
30
0
70
32
0
SEQEND
8
0
0
POLYLINE
8
0
62
30
66
1
10
0
20
0
30
0
70
8
0
VERTEX
8
0
62
30
10
3.3410604e-09
20
0.82678155
30
0
70
32
0
VERTEX
8
0
62
30
10
0.28284272
20
0.82678155
30
0
70
32
0
SEQEND
8
0
0
POLYLINE
8
0
62
30
66
1
10
0
20
0
30
0
70
8
0
VERTEX
8
0
62
30
10
0.070710681
20
0.75607074
30
0
70
32
0
VERTEX
8
0
62
30
10
0.070710681
20
0.7560708
30
0
70
32
0
SEQEND
8
0
0
POLYLINE
8
0
62
30
66
1
10
0
20
0
30
0
70
8
0
VERTEX
8
0
62
30
10
0.14142136
20
0.72678141
30
0
70
32
0
VERTEX
8
0
62
30
10
0.14142136
20
0.7560708
30
0
70
32
0
SEQEND
8
0
0
POLYLINE
8
0
62
30
66
1
10
0
20
0
30
0
70
8
0
VERTEX
8
0
62
30
10
0.21213204
20
0.72678148
30
0
70
32
0
VERTEX
8
0
62
30
10
0.21213204
20
0.7560708
30
0
70
32
0
SEQEND
8
0
0
POLYLINE
8
0
62
30
66
1
10
0
20
0
30
0
70
8
0
VERTEX
8
0
62
30
10
0.070710681
20
0.82678148
30
0
70
32
0
VERTEX
8
0
62
30
10
0.070710681
20
0.82678155
30
0
70
32
0
SEQEND
8
0
0
POLYLINE
8
0
62
30
66
1
10
0
20
0
30
0
70
8
0
VERTEX
8
0
62
30
10
0.14142136
20
0.79749216
30
0
70
32
0
VERTEX
8
0
62
30
10
0.14142136
20
0.82678155
30
0
70
32
0
SEQEND
8
0
0
POLYLINE
8
0
62
30
66
1
10
0
20
0
30
0
70
8
0
VERTEX
8
0
62
30
10
0.21213204
20
0.79749223
30
0
70
32
0
VERTEX
8
0
62
30
10
0.21213204
20
0.82678155
30
0
70
32
0
SEQEND
8
0
0
POLYLINE
8
0
62
5
66
1
10
0
20
0
30
0
70
8
0
VERTEX
8
0
62
5
10
0.070710681
20
0.72071543
30
0
70
32
0
VERTEX
8
0
62
5
10
0.070710681
20
0.75607074
30
0
70
32
0
SEQEND
8
0
0
POLYLINE
8
0
62
5
66
1
10
0
20
0
30
0
70
8
0
VERTEX
8
0
62
5
10
0.14142136
20
0.72071543
30
0
70
32
0
VERTEX
8
0
62
5
10
0.14142136
20
0.72678141
30
0
70
32
0
SEQEND
8
0
0
POLYLINE
8
0
62
5
66
1
10
0
20
0
30
0
70
8
0
VERTEX
8
0
62
5
10
0.21213204
20
0.72071543
30
0
70
32
0
VERTEX
8
0
62
5
10
0.21213204
20
0.72678148
30
0
70
32
0
SEQEND
8
0
0
POLYLINE
8
0
62
5
66
1
10
0
20
0
30
0
70
8
0
VERTEX
8
0
62
5
10
0.070710681
20
0.79142618
30
0
70
32
0
VERTEX
8
0
62
5
10
0.070710681
20
0.82678148
30
0
70
32
0
SEQEND
8
0
0
POLYLINE
8
0
62
5
66
1
10
0
20
0
30
0
70
8
0
VERTEX
8
0
62
5
10
0.14142136
20
0.79142618
30
0
70
32
0
VERTEX
8
0
62
5
10
0.14142136
20
0.79749216
30
0
70
32
0
SEQEND
8
0
0
POLYLINE
8
0
62
5
66
1
10
0
20
0
30
0
70
8
0
VERTEX
8
0
62
5
10
0.21213204
20
0.79142618
30
0
70
32
0
VERTEX
8
0
62
5
10
0.21213204
20
0.79749223
30
0
70
32
0
SEQEND
8
0
0
POLYLINE
8
0
62
5
66
1
10
0
20
0
30
0
70
8
0
VERTEX
8
0
62
5
10
0.070710681
20
0.7560708
30
0
70
32
0
VERTEX
8
0
62
5
10
0.070710681
20
0.79142618
30
0
70
32
0
SEQEND
8
0
0
POLYLINE
8
0
62
5
66
1
10
0
20
0
30
0
70
8
0
VERTEX
8
0
62
5
10
0.14142136
20
0.7560708
30
0
70
32
0
VERTEX
8
0
62
5
10
0.14142136
20
0.79142618
30
0
70
32
0
SEQEND
8
0
0
POLYLINE
8
0
62
5
66
1
10
0
20
0
30
0
70
8
0
VERTEX
8
0
62
5
10
0.21213204
20
0.7560708
30
0
70
32
0
VERTEX
8
0
62
5
10
0.21213204
20
0.79142618
30
0
70
32
0
SEQEND
8
0
0
POLYLINE
8
0
62
5
66
1
10
0
20
0
30
0
70
8
0
VERTEX
8
0
62
5
10
0.070710681
20
0.82678155
30
0
70
32
0
VERTEX
8
0
62
5
10
0.070710681
20
0.86213692
30
0
70
32
0
SEQEND
8
0
0
POLYLINE
8
0
62
5
66
1
10
0
20
0
30
0
70
8
0
VERTEX
8
0
62
5
10
0.14142136
20
0.82678155
30
0
70
32
0
VERTEX
8
0
62
5
10
0.14142136
20
0.86213692
30
0
70
32
0
SEQEND
8
0
0
POLYLINE
8
0
62
5
66
1
10
0
20
0
30
0
70
8
0
VERTEX
8
0
62
5
10
0.21213204
20
0.82678155
30
0
70
32
0
VERTEX
8
0
62
5
10
0.21213204
20
0.86213692
30
0
70
32
0
SEQEND
8
0
0
POLYLINE
8
0
62
30
66
1
10
0
20
0
30
0
70
8
0
VERTEX
8
0
62
30
10
3.3410604e-09
20
0.7560708
30
0
70
32
0
VERTEX
8
0
62
30
10
3.3410604e-09
20
0.7560708
30
0
70
32
0
VERTEX
8
0
62
30
10
3.3410604e-09
20
0.7560708
30
0
70
32
0
SEQEND
8
0
0
POLYLINE
8
0
62
30
66
1
10
0
20
0
30
0
70
8
0
VERTEX
8
0
62
30
10
0.070710681
20
0.75607074
30
0
70
32
0
VERTEX
8
0
62
30
10
0.070710783
20
0.7560708
30
0
70
32
0
VERTEX
8
0
62
30
10
0.070710681
20
0.75607087
30
0
70
32
0
SEQEND
8
0
0
POLYLINE
8
0
62
30
66
1
10
0
20
0
30
0
70
8
0
VERTEX
8
0
62
30
10
0.14142136
20
0.72678141
30
0
70
32
0
VERTEX
8
0
62
30
10
0.16099189
20
0.7560708
30
0
70
32
0
VERTEX
8
0
62
30
10
0.14142136
20
0.78536019
30
0
70
32
0
SEQEND
8
0
0
POLYLINE
8
0
62
30
66
1
10
0
20
0
30
0
70
8
0
VERTEX
8
0
62
30
10
0.21213204
20
0.72678148
30
0
70
32
0
VERTEX
8
0
62
30
10
0.23170255
20
0.7560708
30
0
70
32
0
VERTEX
8
0
62
30
10
0.21213204
20
0.78536013
30
0
70
32
0
SEQEND
8
0
0
POLYLINE
8
0
62
30
66
1
10
0
20
0
30
0
70
8
0
VERTEX
8
0
62
30
10
3.3410604e-09
20
0.82678155
30
0
70
32
0
VERTEX
8
0
62
30
10
3.3410604e-09
20
0.82678155
30
0
70
32
0
VERTEX
8
0
62
30
10
3.3410604e-09
20
0.82678155
30
0
70
32
0
SEQEND
8
0
0
POLYLINE
8
0
62
30
66
1
10
0
20
0
30
0
70
8
0
VERTEX
8
0
62
30
10
0.070710681
20
0.82678148
30
0
70
32
0
VERTEX
8
0
62
30
10
0.070710783
20
0.82678155
30
0
70
32
0
VERTEX
8
0
62
30
10
0.070710681
20
0.82678162
30
0
70
32
0
SEQEND
8
0
0
POLYLINE
8
0
62
30
66
1
10
0
20
0
30
0
70
8
0
VERTEX
8
0
62
30
10
0.14142136
20
0.79749216
30
0
70
32
0
VERTEX
8
0
62
30
10
0.16099189
20
0.82678155
30
0
70
32
0
VERTEX
8
0
62
30
10
0.14142136
20
0.85607094
30
0
70
32
0
SEQEND
8
0
0
POLYLINE
8
0
62
30
66
1
10
0
20
0
30
0
70
8
0
VERTEX
8
0
62
30
10
0.21213204
20
0.79749223
30
0
70
32
0
VERTEX
8
0
62
30
10
0.23170255
20
0.82678155
30
0
70
32
0
VERTEX
8
0
62
30
10
0.21213204
20
0.85607087
30
0
70
32
0
SEQEND
8
0
0
POLYLINE
8
0
62
5
66
1
10
0
20
0
30
0
70
8
0
VERTEX
8
0
62
5
10
0.56568543
20
0.86213692
30
0
70
32
0
VERTEX
8
0
62
5
10
0.56568543
20
0.72071543
30
0
70
32
0
SEQEND
8
0
0
POLYLINE
8
0
62
5
66
1
10
0
20
0
30
0
70
8
0
VERTEX
8
0
62
5
10
0.28284272
20
0.7560708
30
0
70
32
0
VERTEX
8
0
62
5
10
0.35355339
20
0.75607074
30
0
70
32
0
VERTEX
8
0
62
5
10
0.42426407
20
0.72678141
30
0
70
32
0
VERTEX
8
0
62
5
10
0.49497475
20
0.72678148
30
0
70
32
0
VERTEX
8
0
62
5
10
0.56568543
20
0.7560708
30
0
70
32
0
SEQEND
8
0
0
POLYLINE
8
0
62
5
66
1
10
0
20
0
30
0
70
8
0
VERTEX
8
0
62
5
10
0.28284272
20
0.82678155
30
0
70
32
0
VERTEX
8
0
62
5
10
0.35355339
20
0.82678148
30
0
70
32
0
VERTEX
8
0
62
5
10
0.42426407
20
0.79749216
30
0
70
32
0
VERTEX
8
0
62
5
10
0.49497475
20
0.79749223
30
0
70
32
0
VERTEX
8
0
62
5
10
0.56568543
20
0.82678155
30
0
70
32
0
SEQEND
8
0
0
POLYLINE
8
0
62
5
66
1
10
0
20
0
30
0
70
8
0
VERTEX
8
0
62
5
10
0.28284272
20
0.7560708
30
0
70
32
0
VERTEX
8
0
62
5
10
0.35355339
20
0.75607087
30
0
70
32
0
VERTEX
8
0
62
5
10
0.42426407
20
0.78536019
30
0
70
32
0
VERTEX
8
0
62
5
10
0.49497475
20
0.78536013
30
0
70
32
0
VERTEX
8
0
62
5
10
0.56568543
20
0.7560708
30
0
70
32
0
SEQEND
8
0
0
POLYLINE
8
0
62
5
66
1
10
0
20
0
30
0
70
8
0
VERTEX
8
0
62
5
10
0.28284272
20
0.82678155
30
0
70
32
0
VERTEX
8
0
62
5
10
0.35355339
20
0.82678162
30
0
70
32
0
VERTEX
8
0
62
5
10
0.42426407
20
0.85607094
30
0
70
32
0
VERTEX
8
0
62
5
10
0.49497475
20
0.85607087
30
0
70
32
0
VERTEX
8
0
62
5
10
0.56568543
20
0.82678155
30
0
70
32
0
SEQEND
8
0
0
POLYLINE
8
0
62
30
66
1
10
0
20
0
30
0
70
8
0
VERTEX
8
0
62
30
10
0.28284272
20
0.7560708
30
0
70
32
0
VERTEX
8
0
62
30
10
0.56568543
20
0.7560708
30
0
70
32
0
SEQEND
8
0
0
POLYLINE
8
0
62
30
66
1
10
0
20
0
30
0
70
8
0
VERTEX
8
0
62
30
10
0.28284272
20
0.82678155
30
0
70
32
0
VERTEX
8
0
62
30
10
0.56568543
20
0.82678155
30
0
70
32
0
SEQEND
8
0
0
POLYLINE
8
0
62
30
66
1
10
0
20
0
30
0
70
8
0
VERTEX
8
0
62
30
10
0.35355339
20
0.75607074
30
0
70
32
0
VERTEX
8
0
62
30
10
0.35355339
20
0.7560708
30
0
70
32
0
SEQEND
8
0
0
POLYLINE
8
0
62
30
66
1
10
0
20
0
30
0
70
8
0
VERTEX
8
0
62
30
10
0.42426407
20
0.72678141
30
0
70
32
0
VERTEX
8
0
62
30
10
0.42426407
20
0.7560708
30
0
70
32
0
SEQEND
8
0
0
POLYLINE
8
0
62
30
66
1
10
0
20
0
30
0
70
8
0
VERTEX
8
0
62
30
10
0.49497475
20
0.72678148
30
0
70
32
0
VERTEX
8
0
62
30
10
0.49497475
20
0.7560708
30
0
70
32
0
SEQEND
8
0
0
POLYLINE
8
0
62
30
66
1
10
0
20
0
30
0
70
8
0
VERTEX
8
0
62
30
10
0.35355339
20
0.82678148
30
0
70
32
0
VERTEX
8
0
62
30
10
0.35355339
20
0.82678155
30
0
70
32
0
SEQEND
8
0
0
POLYLINE
8
0
62
30
66
1
10
0
20
0
30
0
70
8
0
VERTEX
8
0
62
30
10
0.42426407
20
0.79749216
30
0
70
32
0
VERTEX
8
0
62
30
10
0.42426407
20
0.82678155
30
0
70
32
0
SEQEND
8
0
0
POLYLINE
8
0
62
30
66
1
10
0
20
0
30
0
70
8
0
VERTEX
8
0
62
30
10
0.49497475
20
0.79749223
30
0
70
32
0
VERTEX
8
0
62
30
10
0.49497475
20
0.82678155
30
0
70
32
0
SEQEND
8
0
0
POLYLINE
8
0
62
5
66
1
10
0
20
0
30
0
70
8
0
VERTEX
8
0
62
5
10
0.35355339
20
0.72071543
30
0
70
32
0
VERTEX
8
0
62
5
10
0.35355339
20
0.75607074
30
0
70
32
0
SEQEND
8
0
0
POLYLINE
8
0
62
5
66
1
10
0
20
0
30
0
70
8
0
VERTEX
8
0
62
5
10
0.42426407
20
0.72071543
30
0
70
32
0
VERTEX
8
0
62
5
10
0.42426407
20
0.72678141
30
0
70
32
0
SEQEND
8
0
0
POLYLINE
8
0
62
5
66
1
10
0
20
0
30
0
70
8
0
VERTEX
8
0
62
5
10
0.49497475
20
0.72071543
30
0
70
32
0
VERTEX
8
0
62
5
10
0.49497475
20
0.72678148
30
0
70
32
0
SEQEND
8
0
0
POLYLINE
8
0
62
5
66
1
10
0
20
0
30
0
70
8
0
VERTEX
8
0
62
5
10
0.35355339
20
0.79142618
30
0
70
32
0
VERTEX
8
0
62
5
10
0.35355339
20
0.82678148
30
0
70
32
0
SEQEND
8
0
0
POLYLINE
8
0
62
5
66
1
10
0
20
0
30
0
70
8
0
VERTEX
8
0
62
5
10
0.42426407
20
0.79142618
30
0
70
32
0
VERTEX
8
0
62
5
10
0.42426407
20
0.79749216
30
0
70
32
0
SEQEND
8
0
0
POLYLINE
8
0
62
5
66
1
10
0
20
0
30
0
70
8
0
VERTEX
8
0
62
5
10
0.49497475
20
0.79142618
30
0
70
32
0
VERTEX
8
0
62
5
10
0.49497475
20
0.79749223
30
0
70
32
0
SEQEND
8
0
0
POLYLINE
8
0
62
5
66
1
10
0
20
0
30
0
70
8
0
VERTEX
8
0
62
5
10
0.35355339
20
0.7560708
30
0
70
32
0
VERTEX
8
0
62
5
10
0.35355339
20
0.79142618
30
0
70
32
0
SEQEND
8
0
0
POLYLINE
8
0
62
5
66
1
10
0
20
0
30
0
70
8
0
VERTEX
8
0
62
5
10
0.42426407
20
0.7560708
30
0
70
32
0
VERTEX
8
0
62
5
10
0.42426407
20
0.79142618
30
0
70
32
0
SEQEND
8
0
0
POLYLINE
8
0
62
5
66
1
10
0
20
0
30
0
70
8
0
VERTEX
8
0
62
5
10
0.49497475
20
0.7560708
30
0
70
32
0
VERTEX
8
0
62
5
10
0.49497475
20
0.79142618
30
0
70
32
0
SEQEND
8
0
0
POLYLINE
8
0
62
5
66
1
10
0
20
0
30
0
70
8
0
VERTEX
8
0
62
5
10
0.35355339
20
0.82678155
30
0
70
32
0
VERTEX
8
0
62
5
10
0.35355339
20
0.86213692
30
0
70
32
0
SEQEND
8
0
0
POLYLINE
8
0
62
5
66
1
10
0
20
0
30
0
70
8
0
VERTEX
8
0
62
5
10
0.42426407
20
0.82678155
30
0
70
32
0
VERTEX
8
0
62
5
10
0.42426407
20
0.86213692
30
0
70
32
0
SEQEND
8
0
0
POLYLINE
8
0
62
5
66
1
10
0
20
0
30
0
70
8
0
VERTEX
8
0
62
5
10
0.49497475
20
0.82678155
30
0
70
32
0
VERTEX
8
0
62
5
10
0.49497475
20
0.86213692
30
0
70
32
0
SEQEND
8
0
0
POLYLINE
8
0
62
30
66
1
10
0
20
0
30
0
70
8
0
VERTEX
8
0
62
30
10
0.28284272
20
0.7560708
30
0
70
32
0
VERTEX
8
0
62
30
10
0.28284272
20
0.7560708
30
0
70
32
0
VERTEX
8
0
62
30
10
0.28284272
20
0.7560708
30
0
70
32
0
SEQEND
8
0
0
POLYLINE
8
0
62
30
66
1
10
0
20
0
30
0
70
8
0
VERTEX
8
0
62
30
10
0.35355339
20
0.75607074
30
0
70
32
0
VERTEX
8
0
62
30
10
0.3535535
20
0.7560708
30
0
70
32
0
VERTEX
8
0
62
30
10
0.35355339
20
0.75607087
30
0
70
32
0
SEQEND
8
0
0
POLYLINE
8
0
62
30
66
1
10
0
20
0
30
0
70
8
0
VERTEX
8
0
62
30
10
0.42426407
20
0.72678141
30
0
70
32
0
VERTEX
8
0
62
30
10
0.4438346
20
0.7560708
30
0
70
32
0
VERTEX
8
0
62
30
10
0.42426407
20
0.78536019
30
0
70
32
0
SEQEND
8
0
0
POLYLINE
8
0
62
30
66
1
10
0
20
0
30
0
70
8
0
VERTEX
8
0
62
30
10
0.49497475
20
0.72678148
30
0
70
32
0
VERTEX
8
0
62
30
10
0.51454526
20
0.7560708
30
0
70
32
0
VERTEX
8
0
62
30
10
0.49497475
20
0.78536013
30
0
70
32
0
SEQEND
8
0
0
POLYLINE
8
0
62
30
66
1
10
0
20
0
30
0
70
8
0
VERTEX
8
0
62
30
10
0.28284272
20
0.82678155
30
0
70
32
0
VERTEX
8
0
62
30
10
0.28284272
20
0.82678155
30
0
70
32
0
VERTEX
8
0
62
30
10
0.28284272
20
0.82678155
30
0
70
32
0
SEQEND
8
0
0
POLYLINE
8
0
62
30
66
1
10
0
20
0
30
0
70
8
0
VERTEX
8
0
62
30
10
0.35355339
20
0.82678148
30
0
70
32
0
VERTEX
8
0
62
30
10
0.3535535
20
0.82678155
30
0
70
32
0
VERTEX
8
0
62
30
10
0.35355339
20
0.82678162
30
0
70
32
0
SEQEND
8
0
0
POLYLINE
8
0
62
30
66
1
10
0
20
0
30
0
70
8
0
VERTEX
8
0
62
30
10
0.42426407
20
0.79749216
30
0
70
32
0
VERTEX
8
0
62
30
10
0.4438346
20
0.82678155
30
0
70
32
0
VERTEX
8
0
62
30
10
0.42426407
20
0.85607094
30
0
70
32
0
SEQEND
8
0
0
POLYLINE
8
0
62
30
66
1
10
0
20
0
30
0
70
8
0
VERTEX
8
0
62
30
10
0.49497475
20
0.79749223
30
0
70
32
0
VERTEX
8
0
62
30
10
0.51454526
20
0.82678155
30
0
70
32
0
VERTEX
8
0
62
30
10
0.49497475
20
0.85607087
30
0
70
32
0
SEQEND
8
0
0
POLYLINE
8
0
62
5
66
1
10
0
20
0
30
0
70
8
0
VERTEX
8
0
62
5
10
-0.28284271
20
0.72071543
30
0
70
32
0
VERTEX
8
0
62
5
10
-0.28284271
20
0.86213692
30
0
70
32
0
SEQEND
8
0
0
POLYLINE
8
0
62
5
66
1
10
0
20
0
30
0
70
8
0
VERTEX
8
0
62
5
10
-0.28284271
20
0.7560708
30
0
70
32
0
VERTEX
8
0
62
5
10
-0.21213203
20
0.75607074
30
0
70
32
0
VERTEX
8
0
62
5
10
-0.14142135
20
0.72678141
30
0
70
32
0
VERTEX
8
0
62
5
10
-0.070710675
20
0.72678148
30
0
70
32
0
VERTEX
8
0
62
5
10
3.3410604e-09
20
0.7560708
30
0
70
32
0
SEQEND
8
0
0
POLYLINE
8
0
62
5
66
1
10
0
20
0
30
0
70
8
0
VERTEX
8
0
62
5
10
-0.28284271
20
0.82678155
30
0
70
32
0
VERTEX
8
0
62
5
10
-0.21213203
20
0.82678148
30
0
70
32
0
VERTEX
8
0
62
5
10
-0.14142135
20
0.79749216
30
0
70
32
0
VERTEX
8
0
62
5
10
-0.070710675
20
0.79749223
30
0
70
32
0
VERTEX
8
0
62
5
10
3.3410604e-09
20
0.82678155
30
0
70
32
0
SEQEND
8
0
0
POLYLINE
8
0
62
5
66
1
10
0
20
0
30
0
70
8
0
VERTEX
8
0
62
5
10
-0.28284271
20
0.7560708
30
0
70
32
0
VERTEX
8
0
62
5
10
-0.21213203
20
0.75607087
30
0
70
32
0
VERTEX
8
0
62
5
10
-0.14142135
20
0.78536019
30
0
70
32
0
VERTEX
8
0
62
5
10
-0.070710675
20
0.78536013
30
0
70
32
0
VERTEX
8
0
62
5
10
3.3410604e-09
20
0.7560708
30
0
70
32
0
SEQEND
8
0
0
POLYLINE
8
0
62
5
66
1
10
0
20
0
30
0
70
8
0
VERTEX
8
0
62
5
10
-0.28284271
20
0.82678155
30
0
70
32
0
VERTEX
8
0
62
5
10
-0.21213203
20
0.82678162
30
0
70
32
0
VERTEX
8
0
62
5
10
-0.14142135
20
0.85607094
30
0
70
32
0
VERTEX
8
0
62
5
10
-0.070710675
20
0.85607087
30
0
70
32
0
VERTEX
8
0
62
5
10
3.3410604e-09
20
0.82678155
30
0
70
32
0
SEQEND
8
0
0
POLYLINE
8
0
62
30
66
1
10
0
20
0
30
0
70
8
0
VERTEX
8
0
62
30
10
-0.28284271
20
0.7560708
30
0
70
32
0
VERTEX
8
0
62
30
10
3.3410604e-09
20
0.7560708
30
0
70
32
0
SEQEND
8
0
0
POLYLINE
8
0
62
30
66
1
10
0
20
0
30
0
70
8
0
VERTEX
8
0
62
30
10
-0.28284271
20
0.82678155
30
0
70
32
0
VERTEX
8
0
62
30
10
3.3410604e-09
20
0.82678155
30
0
70
32
0
SEQEND
8
0
0
POLYLINE
8
0
62
30
66
1
10
0
20
0
30
0
70
8
0
VERTEX
8
0
62
30
10
-0.21213203
20
0.75607074
30
0
70
32
0
VERTEX
8
0
62
30
10
-0.21213203
20
0.7560708
30
0
70
32
0
SEQEND
8
0
0
POLYLINE
8
0
62
30
66
1
10
0
20
0
30
0
70
8
0
VERTEX
8
0
62
30
10
-0.14142135
20
0.72678141
30
0
70
32
0
VERTEX
8
0
62
30
10
-0.14142135
20
0.7560708
30
0
70
32
0
SEQEND
8
0
0
POLYLINE
8
0
62
30
66
1
10
0
20
0
30
0
70
8
0
VERTEX
8
0
62
30
10
-0.070710675
20
0.72678148
30
0
70
32
0
VERTEX
8
0
62
30
10
-0.070710675
20
0.7560708
30
0
70
32
0
SEQEND
8
0
0
POLYLINE
8
0
62
30
66
1
10
0
20
0
30
0
70
8
0
VERTEX
8
0
62
30
10
-0.21213203
20
0.82678148
30
0
70
32
0
VERTEX
8
0
62
30
10
-0.21213203
20
0.82678155
30
0
70
32
0
SEQEND
8
0
0
POLYLINE
8
0
62
30
66
1
10
0
20
0
30
0
70
8
0
VERTEX
8
0
62
30
10
-0.14142135
20
0.79749216
30
0
70
32
0
VERTEX
8
0
62
30
10
-0.14142135
20
0.82678155
30
0
70
32
0
SEQEND
8
0
0
POLYLINE
8
0
62
30
66
1
10
0
20
0
30
0
70
8
0
VERTEX
8
0
62
30
10
-0.070710675
20
0.79749223
30
0
70
32
0
VERTEX
8
0
62
30
10
-0.070710675
20
0.82678155
30
0
70
32
0
SEQEND
8
0
0
POLYLINE
8
0
62
5
66
1
10
0
20
0
30
0
70
8
0
VERTEX
8
0
62
5
10
-0.21213203
20
0.72071543
30
0
70
32
0
VERTEX
8
0
62
5
10
-0.21213203
20
0.75607074
30
0
70
32
0
SEQEND
8
0
0
POLYLINE
8
0
62
5
66
1
10
0
20
0
30
0
70
8
0
VERTEX
8
0
62
5
10
-0.14142135
20
0.72071543
30
0
70
32
0
VERTEX
8
0
62
5
10
-0.14142135
20
0.72678141
30
0
70
32
0
SEQEND
8
0
0
POLYLINE
8
0
62
5
66
1
10
0
20
0
30
0
70
8
0
VERTEX
8
0
62
5
10
-0.070710675
20
0.72071543
30
0
70
32
0
VERTEX
8
0
62
5
10
-0.070710675
20
0.72678148
30
0
70
32
0
SEQEND
8
0
0
POLYLINE
8
0
62
5
66
1
10
0
20
0
30
0
70
8
0
VERTEX
8
0
62
5
10
-0.21213203
20
0.79142618
30
0
70
32
0
VERTEX
8
0
62
5
10
-0.21213203
20
0.82678148
30
0
70
32
0
SEQEND
8
0
0
POLYLINE
8
0
62
5
66
1
10
0
20
0
30
0
70
8
0
VERTEX
8
0
62
5
10
-0.14142135
20
0.79142618
30
0
70
32
0
VERTEX
8
0
62
5
10
-0.14142135
20
0.79749216
30
0
70
32
0
SEQEND
8
0
0
POLYLINE
8
0
62
5
66
1
10
0
20
0
30
0
70
8
0
VERTEX
8
0
62
5
10
-0.070710675
20
0.79142618
30
0
70
32
0
VERTEX
8
0
62
5
10
-0.070710675
20
0.79749223
30
0
70
32
0
SEQEND
8
0
0
POLYLINE
8
0
62
5
66
1
10
0
20
0
30
0
70
8
0
VERTEX
8
0
62
5
10
-0.21213203
20
0.7560708
30
0
70
32
0
VERTEX
8
0
62
5
10
-0.21213203
20
0.79142618
30
0
70
32
0
SEQEND
8
0
0
POLYLINE
8
0
62
5
66
1
10
0
20
0
30
0
70
8
0
VERTEX
8
0
62
5
10
-0.14142135
20
0.7560708
30
0
70
32
0
VERTEX
8
0
62
5
10
-0.14142135
20
0.79142618
30
0
70
32
0
SEQEND
8
0
0
POLYLINE
8
0
62
5
66
1
10
0
20
0
30
0
70
8
0
VERTEX
8
0
62
5
10
-0.070710675
20
0.7560708
30
0
70
32
0
VERTEX
8
0
62
5
10
-0.070710675
20
0.79142618
30
0
70
32
0
SEQEND
8
0
0
POLYLINE
8
0
62
5
66
1
10
0
20
0
30
0
70
8
0
VERTEX
8
0
62
5
10
-0.21213203
20
0.82678155
30
0
70
32
0
VERTEX
8
0
62
5
10
-0.21213203
20
0.86213692
30
0
70
32
0
SEQEND
8
0
0
POLYLINE
8
0
62
5
66
1
10
0
20
0
30
0
70
8
0
VERTEX
8
0
62
5
10
-0.14142135
20
0.82678155
30
0
70
32
0
VERTEX
8
0
62
5
10
-0.14142135
20
0.86213692
30
0
70
32
0
SEQEND
8
0
0
POLYLINE
8
0
62
5
66
1
10
0
20
0
30
0
70
8
0
VERTEX
8
0
62
5
10
-0.070710675
20
0.82678155
30
0
70
32
0
VERTEX
8
0
62
5
10
-0.070710675
20
0.86213692
30
0
70
32
0
SEQEND
8
0
0
POLYLINE
8
0
62
30
66
1
10
0
20
0
30
0
70
8
0
VERTEX
8
0
62
30
10
-0.28284271
20
0.7560708
30
0
70
32
0
VERTEX
8
0
62
30
10
-0.28284271
20
0.7560708
30
0
70
32
0
VERTEX
8
0
62
30
10
-0.28284271
20
0.7560708
30
0
70
32
0
SEQEND
8
0
0
POLYLINE
8
0
62
30
66
1
10
0
20
0
30
0
70
8
0
VERTEX
8
0
62
30
10
-0.21213203
20
0.75607074
30
0
70
32
0
VERTEX
8
0
62
30
10
-0.21213193
20
0.7560708
30
0
70
32
0
VERTEX
8
0
62
30
10
-0.21213203
20
0.75607087
30
0
70
32
0
SEQEND
8
0
0
POLYLINE
8
0
62
30
66
1
10
0
20
0
30
0
70
8
0
VERTEX
8
0
62
30
10
-0.14142135
20
0.72678141
30
0
70
32
0
VERTEX
8
0
62
30
10
-0.12185082
20
0.7560708
30
0
70
32
0
VERTEX
8
0
62
30
10
-0.14142135
20
0.78536019
30
0
70
32
0
SEQEND
8
0
0
POLYLINE
8
0
62
30
66
1
10
0
20
0
30
0
70
8
0
VERTEX
8
0
62
30
10
-0.070710675
20
0.72678148
30
0
70
32
0
VERTEX
8
0
62
30
10
-0.051140164
20
0.7560708
30
0
70
32
0
VERTEX
8
0
62
30
10
-0.070710675
20
0.78536013
30
0
70
32
0
SEQEND
8
0
0
POLYLINE
8
0
62
30
66
1
10
0
20
0
30
0
70
8
0
VERTEX
8
0
62
30
10
-0.28284271
20
0.82678155
30
0
70
32
0
VERTEX
8
0
62
30
10
-0.28284271
20
0.82678155
30
0
70
32
0
VERTEX
8
0
62
30
10
-0.28284271
20
0.82678155
30
0
70
32
0
SEQEND
8
0
0
POLYLINE
8
0
62
30
66
1
10
0
20
0
30
0
70
8
0
VERTEX
8
0
62
30
10
-0.21213203
20
0.82678148
30
0
70
32
0
VERTEX
8
0
62
30
10
-0.21213193
20
0.82678155
30
0
70
32
0
VERTEX
8
0
62
30
10
-0.21213203
20
0.82678162
30
0
70
32
0
SEQEND
8
0
0
POLYLINE
8
0
62
30
66
1
10
0
20
0
30
0
70
8
0
VERTEX
8
0
62
30
10
-0.14142135
20
0.79749216
30
0
70
32
0
VERTEX
8
0
62
30
10
-0.12185082
20
0.82678155
30
0
70
32
0
VERTEX
8
0
62
30
10
-0.14142135
20
0.85607094
30
0
70
32
0
SEQEND
8
0
0
POLYLINE
8
0
62
30
66
1
10
0
20
0
30
0
70
8
0
VERTEX
8
0
62
30
10
-0.070710675
20
0.79749223
30
0
70
32
0
VERTEX
8
0
62
30
10
-0.051140164
20
0.82678155
30
0
70
32
0
VERTEX
8
0
62
30
10
-0.070710675
20
0.85607087
30
0
70
32
0
SEQEND
8
0
0
POLYLINE
8
0
62
5
66
1
10
0
20
0
30
0
70
8
0
VERTEX
8
0
62
5
10
3.3410604e-09
20
0.86213692
30
0
70
32
0
VERTEX
8
0
62
5
10
3.3410604e-09
20
0.86213711
30
0
70
32
0
SEQEND
8
0
0
POLYLINE
8
0
62
5
66
1
10
0
20
0
30
0
70
8
0
VERTEX
8
0
62
5
10
0.070710681
20
0.86213692
30
0
70
32
0
VERTEX
8
0
62
5
10
0.070710681
20
0.86213711
30
0
70
32
0
SEQEND
8
0
0
POLYLINE
8
0
62
5
66
1
10
0
20
0
30
0
70
8
0
VERTEX
8
0
62
5
10
0.14142136
20
0.86213692
30
0
70
32
0
VERTEX
8
0
62
5
10
0.14142136
20
0.86213711
30
0
70
32
0
SEQEND
8
0
0
POLYLINE
8
0
62
5
66
1
10
0
20
0
30
0
70
8
0
VERTEX
8
0
62
5
10
0.21213204
20
0.86213692
30
0
70
32
0
VERTEX
8
0
62
5
10
0.21213204
20
0.86213711
30
0
70
32
0
SEQEND
8
0
0
POLYLINE
8
0
62
5
66
1
10
0
20
0
30
0
70
8
0
VERTEX
8
0
62
5
10
0.28284272
20
0.86213692
30
0
70
32
0
VERTEX
8
0
62
5
10
0.28284272
20
0.86213711
30
0
70
32
0
SEQEND
8
0
0
POLYLINE
8
0
62
5
66
1
10
0
20
0
30
0
70
8
0
VERTEX
8
0
62
5
10
0.070710681
20
0.86213692
30
0
70
32
0
VERTEX
8
0
62
5
10
0.070710681
20
0.86213692
30
0
70
32
0
SEQEND
8
0
0
POLYLINE
8
0
62
5
66
1
10
0
20
0
30
0
70
8
0
VERTEX
8
0
62
5
10
0.14142136
20
0.86213692
30
0
70
32
0
VERTEX
8
0
62
5
10
0.14142136
20
0.86213692
30
0
70
32
0
SEQEND
8
0
0
POLYLINE
8
0
62
5
66
1
10
0
20
0
30
0
70
8
0
VERTEX
8
0
62
5
10
0.21213204
20
0.86213692
30
0
70
32
0
VERTEX
8
0
62
5
10
0.21213204
20
0.86213692
30
0
70
32
0
SEQEND
8
0
0
POLYLINE
8
0
62
5
66
1
10
0
20
0
30
0
70
8
0
VERTEX
8
0
62
5
10
0.070710517
20
0.86213711
30
0
70
32
0
VERTEX
8
0
62
5
10
0.070710517
20
0.86213711
30
0
70
32
0
SEQEND
8
0
0
POLYLINE
8
0
62
5
66
1
10
0
20
0
30
0
70
8
0
VERTEX
8
0
62
5
10
0.1414212
20
0.86213711
30
0
70
32
0
VERTEX
8
0
62
5
10
0.1414212
20
0.86213711
30
0
70
32
0
SEQEND
8
0
0
POLYLINE
8
0
62
5
66
1
10
0
20
0
30
0
70
8
0
VERTEX
8
0
62
5
10
0.21213187
20
0.86213711
30
0
70
32
0
VERTEX
8
0
62
5
10
0.21213187
20
0.86213711
30
0
70
32
0
SEQEND
8
0
0
POLYLINE
8
0
62
5
66
1
10
0
20
0
30
0
70
8
0
VERTEX
8
0
62
5
10
0.28284255
20
0.86213711
30
0
70
32
0
VERTEX
8
0
62
5
10
0.28284255
20
0.86213711
30
0
70
32
0
SEQEND
8
0
0
POLYLINE
8
0
62
5
66
1
10
0
20
0
30
0
70
8
0
VERTEX
8
0
62
5
10
0.35355339
20
0.86213692
30
0
70
32
0
VERTEX
8
0
62
5
10
0.35355339
20
0.86213711
30
0
70
32
0
SEQEND
8
0
0
POLYLINE
8
0
62
5
66
1
10
0
20
0
30
0
70
8
0
VERTEX
8
0
62
5
10
0.42426407
20
0.86213692
30
0
70
32
0
VERTEX
8
0
62
5
10
0.42426407
20
0.86213711
30
0
70
32
0
SEQEND
8
0
0
POLYLINE
8
0
62
5
66
1
10
0
20
0
30
0
70
8
0
VERTEX
8
0
62
5
10
0.49497475
20
0.86213692
30
0
70
32
0
VERTEX
8
0
62
5
10
0.49497475
20
0.86213711
30
0
70
32
0
SEQEND
8
0
0
POLYLINE
8
0
62
5
66
1
10
0
20
0
30
0
70
8
0
VERTEX
8
0
62
5
10
0.56568543
20
0.86213692
30
0
70
32
0
VERTEX
8
0
62
5
10
0.56568543
20
0.86213711
30
0
70
32
0
SEQEND
8
0
0
POLYLINE
8
0
62
5
66
1
10
0
20
0
30
0
70
8
0
VERTEX
8
0
62
5
10
0.35355339
20
0.86213692
30
0
70
32
0
VERTEX
8
0
62
5
10
0.35355339
20
0.86213692
30
0
70
32
0
SEQEND
8
0
0
POLYLINE
8
0
62
5
66
1
10
0
20
0
30
0
70
8
0
VERTEX
8
0
62
5
10
0.42426407
20
0.86213692
30
0
70
32
0
VERTEX
8
0
62
5
10
0.42426407
20
0.86213692
30
0
70
32
0
SEQEND
8
0
0
POLYLINE
8
0
62
5
66
1
10
0
20
0
30
0
70
8
0
VERTEX
8
0
62
5
10
0.49497475
20
0.86213692
30
0
70
32
0
VERTEX
8
0
62
5
10
0.49497475
20
0.86213692
30
0
70
32
0
SEQEND
8
0
0
POLYLINE
8
0
62
5
66
1
10
0
20
0
30
0
70
8
0
VERTEX
8
0
62
5
10
0.35355323
20
0.86213711
30
0
70
32
0
VERTEX
8
0
62
5
10
0.35355323
20
0.86213711
30
0
70
32
0
SEQEND
8
0
0
POLYLINE
8
0
62
5
66
1
10
0
20
0
30
0
70
8
0
VERTEX
8
0
62
5
10
0.42426391
20
0.86213711
30
0
70
32
0
VERTEX
8
0
62
5
10
0.42426391
20
0.86213711
30
0
70
32
0
SEQEND
8
0
0
POLYLINE
8
0
62
5
66
1
10
0
20
0
30
0
70
8
0
VERTEX
8
0
62
5
10
0.49497459
20
0.86213711
30
0
70
32
0
VERTEX
8
0
62
5
10
0.49497459
20
0.86213711
30
0
70
32
0
SEQEND
8
0
0
POLYLINE
8
0
62
5
66
1
10
0
20
0
30
0
70
8
0
VERTEX
8
0
62
5
10
0.56568526
20
0.86213711
30
0
70
32
0
VERTEX
8
0
62
5
10
0.56568526
20
0.86213711
30
0
70
32
0
SEQEND
8
0
0
POLYLINE
8
0
62
5
66
1
10
0
20
0
30
0
70
8
0
VERTEX
8
0
62
5
10
-0.21213203
20
0.86213692
30
0
70
32
0
VERTEX
8
0
62
5
10
-0.21213203
20
0.86213711
30
0
70
32
0
SEQEND
8
0
0
POLYLINE
8
0
62
5
66
1
10
0
20
0
30
0
70
8
0
VERTEX
8
0
62
5
10
-0.14142135
20
0.86213692
30
0
70
32
0
VERTEX
8
0
62
5
10
-0.14142135
20
0.86213711
30
0
70
32
0
SEQEND
8
0
0
POLYLINE
8
0
62
5
66
1
10
0
20
0
30
0
70
8
0
VERTEX
8
0
62
5
10
-0.070710675
20
0.86213692
30
0
70
32
0
VERTEX
8
0
62
5
10
-0.070710675
20
0.86213711
30
0
70
32
0
SEQEND
8
0
0
POLYLINE
8
0
62
5
66
1
10
0
20
0
30
0
70
8
0
VERTEX
8
0
62
5
10
3.3410604e-09
20
0.86213692
30
0
70
32
0
VERTEX
8
0
62
5
10
3.3410604e-09
20
0.86213711
30
0
70
32
0
SEQEND
8
0
0
POLYLINE
8
0
62
5
66
1
10
0
20
0
30
0
70
8
0
VERTEX
8
0
62
5
10
-0.21213203
20
0.86213692
30
0
70
32
0
VERTEX
8
0
62
5
10
-0.21213203
20
0.86213692
30
0
70
32
0
SEQEND
8
0
0
POLYLINE
8
0
62
5
66
1
10
0
20
0
30
0
70
8
0
VERTEX
8
0
62
5
10
-0.14142135
20
0.86213692
30
0
70
32
0
VERTEX
8
0
62
5
10
-0.14142135
20
0.86213692
30
0
70
32
0
SEQEND
8
0
0
POLYLINE
8
0
62
5
66
1
10
0
20
0
30
0
70
8
0
VERTEX
8
0
62
5
10
-0.070710675
20
0.86213692
30
0
70
32
0
VERTEX
8
0
62
5
10
-0.070710675
20
0.86213692
30
0
70
32
0
SEQEND
8
0
0
POLYLINE
8
0
62
5
66
1
10
0
20
0
30
0
70
8
0
VERTEX
8
0
62
5
10
-0.2121322
20
0.86213711
30
0
70
32
0
VERTEX
8
0
62
5
10
-0.2121322
20
0.86213711
30
0
70
32
0
SEQEND
8
0
0
POLYLINE
8
0
62
5
66
1
10
0
20
0
30
0
70
8
0
VERTEX
8
0
62
5
10
-0.14142152
20
0.86213711
30
0
70
32
0
VERTEX
8
0
62
5
10
-0.14142152
20
0.86213711
30
0
70
32
0
SEQEND
8
0
0
POLYLINE
8
0
62
5
66
1
10
0
20
0
30
0
70
8
0
VERTEX
8
0
62
5
10
-0.070710839
20
0.86213711
30
0
70
32
0
VERTEX
8
0
62
5
10
-0.070710839
20
0.86213711
30
0
70
32
0
SEQEND
8
0
0
POLYLINE
8
0
62
5
66
1
10
0
20
0
30
0
70
8
0
VERTEX
8
0
62
5
10
-1.607681e-07
20
0.86213711
30
0
70
32
0
VERTEX
8
0
62
5
10
-1.607681e-07
20
0.86213711
30
0
70
32
0
SEQEND
8
0
0
POLYLINE
8
0
62
5
66
1
10
0
20
0
30
0
70
8
0
VERTEX
8
0
62
5
10
-1.607681e-07
20
0.86213711
30
0
70
32
0
VERTEX
8
0
62
5
10
-1.607681e-07
20
0.86213747
30
0
70
32
0
SEQEND
8
0
0
POLYLINE
8
0
62
5
66
1
10
0
20
0
30
0
70
8
0
VERTEX
8
0
62
5
10
0.28284255
20
0.86213711
30
0
70
32
0
VERTEX
8
0
62
5
10
0.28284255
20
0.86213747
30
0
70
32
0
SEQEND
8
0
0
POLYLINE
8
0
62
5
66
1
10
0
20
0
30
0
70
8
0
VERTEX
8
0
62
5
10
0.070710517
20
0.86213711
30
0
70
32
0
VERTEX
8
0
62
5
10
0.070710517
20
0.86213747
30
0
70
32
0
SEQEND
8
0
0
POLYLINE
8
0
62
5
66
1
10
0
20
0
30
0
70
8
0
VERTEX
8
0
62
5
10
0.1414212
20
0.86213711
30
0
70
32
0
VERTEX
8
0
62
5
10
0.1414212
20
0.86213747
30
0
70
32
0
SEQEND
8
0
0
POLYLINE
8
0
62
5
66
1
10
0
20
0
30
0
70
8
0
VERTEX
8
0
62
5
10
0.21213187
20
0.86213711
30
0
70
32
0
VERTEX
8
0
62
5
10
0.21213187
20
0.86213747
30
0
70
32
0
SEQEND
8
0
0
POLYLINE
8
0
62
5
66
1
10
0
20
0
30
0
70
8
0
VERTEX
8
0
62
5
10
0.56568526
20
0.86213711
30
0
70
32
0
VERTEX
8
0
62
5
10
0.56568526
20
0.86213747
30
0
70
32
0
SEQEND
8
0
0
POLYLINE
8
0
62
5
66
1
10
0
20
0
30
0
70
8
0
VERTEX
8
0
62
5
10
0.35355323
20
0.86213711
30
0
70
32
0
VERTEX
8
0
62
5
10
0.35355323
20
0.86213747
30
0
70
32
0
SEQEND
8
0
0
POLYLINE
8
0
62
5
66
1
10
0
20
0
30
0
70
8
0
VERTEX
8
0
62
5
10
0.42426391
20
0.86213711
30
0
70
32
0
VERTEX
8
0
62
5
10
0.42426391
20
0.86213747
30
0
70
32
0
SEQEND
8
0
0
POLYLINE
8
0
62
5
66
1
10
0
20
0
30
0
70
8
0
VERTEX
8
0
62
5
10
0.49497459
20
0.86213711
30
0
70
32
0
VERTEX
8
0
62
5
10
0.49497459
20
0.86213747
30
0
70
32
0
SEQEND
8
0
0
POLYLINE
8
0
62
5
66
1
10
0
20
0
30
0
70
8
0
VERTEX
8
0
62
5
10
-0.28284287
20
0.86213711
30
0
70
32
0
VERTEX
8
0
62
5
10
-0.28284287
20
0.86213747
30
0
70
32
0
SEQEND
8
0
0
POLYLINE
8
0
62
5
66
1
10
0
20
0
30
0
70
8
0
VERTEX
8
0
62
5
10
-0.2121322
20
0.86213711
30
0
70
32
0
VERTEX
8
0
62
5
10
-0.2121322
20
0.86213747
30
0
70
32
0
SEQEND
8
0
0
POLYLINE
8
0
62
5
66
1
10
0
20
0
30
0
70
8
0
VERTEX
8
0
62
5
10
-0.14142152
20
0.86213711
30
0
70
32
0
VERTEX
8
0
62
5
10
-0.14142152
20
0.86213747
30
0
70
32
0
SEQEND
8
0
0
POLYLINE
8
0
62
5
66
1
10
0
20
0
30
0
70
8
0
VERTEX
8
0
62
5
10
-0.070710839
20
0.86213711
30
0
70
32
0
VERTEX
8
0
62
5
10
-0.070710839
20
0.86213747
30
0
70
32
0
SEQEND
8
0
0
POLYLINE
8
0
62
5
66
1
10
0
20
0
30
0
70
8
0
VERTEX
8
0
62
5
10
-1.607681e-07
20
0.86213747
30
0
70
32
0
VERTEX
8
0
62
5
10
-1.607681e-07
20
1.0328483
30
0
70
32
0
SEQEND
8
0
0
POLYLINE
8
0
62
5
66
1
10
0
20
0
30
0
70
8
0
VERTEX
8
0
62
5
10
0.28284255
20
1.0328483
30
0
70
32
0
VERTEX
8
0
62
5
10
0.28284255
20
0.86213747
30
0
70
32
0
SEQEND
8
0
0
POLYLINE
8
0
62
5
66
1
10
0
20
0
30
0
70
8
0
VERTEX
8
0
62
5
10
-1.607681e-07
20
0.94749273
30
0
70
32
0
VERTEX
8
0
62
5
10
0.070710517
20
0.94749289
30
0
70
32
0
VERTEX
8
0
62
5
10
0.1414212
20
0.87678221
30
0
70
32
0
VERTEX
8
0
62
5
10
0.21213187
20
0.87678205
30
0
70
32
0
VERTEX
8
0
62
5
10
0.28284255
20
0.94749273
30
0
70
32
0
SEQEND
8
0
0
POLYLINE
8
0
62
5
66
1
10
0
20
0
30
0
70
8
0
SEQEND
8
0
0
POLYLINE
8
0
62
5
66
1
10
0
20
0
30
0
70
8
0
VERTEX
8
0
62
5
10
-1.607681e-07
20
0.94749306
30
0
70
32
0
VERTEX
8
0
62
5
10
0.070710517
20
0.94749289
30
0
70
32
0
VERTEX
8
0
62
5
10
0.1414212
20
1.0182036
30
0
70
32
0
VERTEX
8
0
62
5
10
0.21213187
20
1.0182037
30
0
70
32
0
VERTEX
8
0
62
5
10
0.28284255
20
0.94749306
30
0
70
32
0
SEQEND
8
0
0
POLYLINE
8
0
62
30
66
1
10
0
20
0
30
0
70
8
0
VERTEX
8
0
62
30
10
-1.607681e-07
20
0.94749289
30
0
70
32
0
VERTEX
8
0
62
30
10
0.28284255
20
0.94749289
30
0
70
32
0
SEQEND
8
0
0
POLYLINE
8
0
62
30
66
1
10
0
20
0
30
0
70
8
0
VERTEX
8
0
62
30
10
0.070710517
20
0.94749289
30
0
70
32
0
VERTEX
8
0
62
30
10
0.070710517
20
0.94749289
30
0
70
32
0
SEQEND
8
0
0
POLYLINE
8
0
62
30
66
1
10
0
20
0
30
0
70
8
0
VERTEX
8
0
62
30
10
0.1414212
20
0.87678221
30
0
70
32
0
VERTEX
8
0
62
30
10
0.1414212
20
0.94749289
30
0
70
32
0
SEQEND
8
0
0
POLYLINE
8
0
62
30
66
1
10
0
20
0
30
0
70
8
0
VERTEX
8
0
62
30
10
0.21213187
20
0.87678205
30
0
70
32
0
VERTEX
8
0
62
30
10
0.21213187
20
0.94749289
30
0
70
32
0
SEQEND
8
0
0
POLYLINE
8
0
62
5
66
1
10
0
20
0
30
0
70
8
0
VERTEX
8
0
62
5
10
0.070710517
20
0.86213747
30
0
70
32
0
VERTEX
8
0
62
5
10
0.070710517
20
0.94749289
30
0
70
32
0
SEQEND
8
0
0
POLYLINE
8
0
62
5
66
1
10
0
20
0
30
0
70
8
0
VERTEX
8
0
62
5
10
0.1414212
20
0.86213747
30
0
70
32
0
VERTEX
8
0
62
5
10
0.1414212
20
0.87678221
30
0
70
32
0
SEQEND
8
0
0
POLYLINE
8
0
62
5
66
1
10
0
20
0
30
0
70
8
0
VERTEX
8
0
62
5
10
0.21213187
20
0.86213747
30
0
70
32
0
VERTEX
8
0
62
5
10
0.21213187
20
0.87678205
30
0
70
32
0
SEQEND
8
0
0
POLYLINE
8
0
62
5
66
1
10
0
20
0
30
0
70
8
0
VERTEX
8
0
62
5
10
0.070710517
20
0.94749289
30
0
70
32
0
VERTEX
8
0
62
5
10
0.070710517
20
1.0328483
30
0
70
32
0
SEQEND
8
0
0
POLYLINE
8
0
62
5
66
1
10
0
20
0
30
0
70
8
0
VERTEX
8
0
62
5
10
0.1414212
20
0.94749289
30
0
70
32
0
VERTEX
8
0
62
5
10
0.1414212
20
1.0328483
30
0
70
32
0
SEQEND
8
0
0
POLYLINE
8
0
62
5
66
1
10
0
20
0
30
0
70
8
0
VERTEX
8
0
62
5
10
0.21213187
20
0.94749289
30
0
70
32
0
VERTEX
8
0
62
5
10
0.21213187
20
1.0328483
30
0
70
32
0
SEQEND
8
0
0
POLYLINE
8
0
62
30
66
1
10
0
20
0
30
0
70
8
0
VERTEX
8
0
62
30
10
-1.607681e-07
20
0.94749273
30
0
70
32
0
VERTEX
8
0
62
30
10
2.3542332e-07
20
0.94749289
30
0
70
32
0
VERTEX
8
0
62
30
10
-1.607681e-07
20
0.94749306
30
0
70
32
0
SEQEND
8
0
0
POLYLINE
8
0
62
30
66
1
10
0
20
0
30
0
70
8
0
VERTEX
8
0
62
30
10
0.070710517
20
0.94749289
30
0
70
32
0
VERTEX
8
0
62
30
10
0.070710517
20
0.94749289
30
0
70
32
0
VERTEX
8
0
62
30
10
0.070710517
20
0.94749289
30
0
70
32
0
SEQEND
8
0
0
POLYLINE
8
0
62
30
66
1
10
0
20
0
30
0
70
8
0
VERTEX
8
0
62
30
10
0.1414212
20
0.87678221
30
0
70
32
0
VERTEX
8
0
62
30
10
0.17071055
20
0.94749289
30
0
70
32
0
VERTEX
8
0
62
30
10
0.1414212
20
1.0182036
30
0
70
32
0
SEQEND
8
0
0
POLYLINE
8
0
62
30
66
1
10
0
20
0
30
0
70
8
0
VERTEX
8
0
62
30
10
0.21213187
20
0.87678205
30
0
70
32
0
VERTEX
8
0
62
30
10
0.24142124
20
0.94749289
30
0
70
32
0
VERTEX
8
0
62
30
10
0.21213187
20
1.0182037
30
0
70
32
0
SEQEND
8
0
0
POLYLINE
8
0
62
5
66
1
10
0
20
0
30
0
70
8
0
VERTEX
8
0
62
5
10
0.56568526
20
1.0328483
30
0
70
32
0
VERTEX
8
0
62
5
10
0.56568526
20
0.86213747
30
0
70
32
0
SEQEND
8
0
0
POLYLINE
8
0
62
5
66
1
10
0
20
0
30
0
70
8
0
VERTEX
8
0
62
5
10
0.28284255
20
0.94749273
30
0
70
32
0
VERTEX
8
0
62
5
10
0.35355323
20
0.94749289
30
0
70
32
0
VERTEX
8
0
62
5
10
0.42426391
20
0.87678221
30
0
70
32
0
VERTEX
8
0
62
5
10
0.49497459
20
0.87678205
30
0
70
32
0
VERTEX
8
0
62
5
10
0.56568526
20
0.94749273
30
0
70
32
0
SEQEND
8
0
0
POLYLINE
8
0
62
5
66
1
10
0
20
0
30
0
70
8
0
SEQEND
8
0
0
POLYLINE
8
0
62
5
66
1
10
0
20
0
30
0
70
8
0
VERTEX
8
0
62
5
10
0.28284255
20
0.94749306
30
0
70
32
0
VERTEX
8
0
62
5
10
0.35355323
20
0.94749289
30
0
70
32
0
VERTEX
8
0
62
5
10
0.42426391
20
1.0182036
30
0
70
32
0
VERTEX
8
0
62
5
10
0.49497459
20
1.0182037
30
0
70
32
0
VERTEX
8
0
62
5
10
0.56568526
20
0.94749306
30
0
70
32
0
SEQEND
8
0
0
POLYLINE
8
0
62
30
66
1
10
0
20
0
30
0
70
8
0
VERTEX
8
0
62
30
10
0.28284255
20
0.94749289
30
0
70
32
0
VERTEX
8
0
62
30
10
0.56568526
20
0.94749289
30
0
70
32
0
SEQEND
8
0
0
POLYLINE
8
0
62
30
66
1
10
0
20
0
30
0
70
8
0
VERTEX
8
0
62
30
10
0.35355323
20
0.94749289
30
0
70
32
0
VERTEX
8
0
62
30
10
0.35355323
20
0.94749289
30
0
70
32
0
SEQEND
8
0
0
POLYLINE
8
0
62
30
66
1
10
0
20
0
30
0
70
8
0
VERTEX
8
0
62
30
10
0.42426391
20
0.87678221
30
0
70
32
0
VERTEX
8
0
62
30
10
0.42426391
20
0.94749289
30
0
70
32
0
SEQEND
8
0
0
POLYLINE
8
0
62
30
66
1
10
0
20
0
30
0
70
8
0
VERTEX
8
0
62
30
10
0.49497459
20
0.87678205
30
0
70
32
0
VERTEX
8
0
62
30
10
0.49497459
20
0.94749289
30
0
70
32
0
SEQEND
8
0
0
POLYLINE
8
0
62
5
66
1
10
0
20
0
30
0
70
8
0
VERTEX
8
0
62
5
10
0.35355323
20
0.86213747
30
0
70
32
0
VERTEX
8
0
62
5
10
0.35355323
20
0.94749289
30
0
70
32
0
SEQEND
8
0
0
POLYLINE
8
0
62
5
66
1
10
0
20
0
30
0
70
8
0
VERTEX
8
0
62
5
10
0.42426391
20
0.86213747
30
0
70
32
0
VERTEX
8
0
62
5
10
0.42426391
20
0.87678221
30
0
70
32
0
SEQEND
8
0
0
POLYLINE
8
0
62
5
66
1
10
0
20
0
30
0
70
8
0
VERTEX
8
0
62
5
10
0.49497459
20
0.86213747
30
0
70
32
0
VERTEX
8
0
62
5
10
0.49497459
20
0.87678205
30
0
70
32
0
SEQEND
8
0
0
POLYLINE
8
0
62
5
66
1
10
0
20
0
30
0
70
8
0
VERTEX
8
0
62
5
10
0.35355323
20
0.94749289
30
0
70
32
0
VERTEX
8
0
62
5
10
0.35355323
20
1.0328483
30
0
70
32
0
SEQEND
8
0
0
POLYLINE
8
0
62
5
66
1
10
0
20
0
30
0
70
8
0
VERTEX
8
0
62
5
10
0.42426391
20
0.94749289
30
0
70
32
0
VERTEX
8
0
62
5
10
0.42426391
20
1.0328483
30
0
70
32
0
SEQEND
8
0
0
POLYLINE
8
0
62
5
66
1
10
0
20
0
30
0
70
8
0
VERTEX
8
0
62
5
10
0.49497459
20
0.94749289
30
0
70
32
0
VERTEX
8
0
62
5
10
0.49497459
20
1.0328483
30
0
70
32
0
SEQEND
8
0
0
POLYLINE
8
0
62
30
66
1
10
0
20
0
30
0
70
8
0
VERTEX
8
0
62
30
10
0.28284255
20
0.94749273
30
0
70
32
0
VERTEX
8
0
62
30
10
0.28284295
20
0.94749289
30
0
70
32
0
VERTEX
8
0
62
30
10
0.28284255
20
0.94749306
30
0
70
32
0
SEQEND
8
0
0
POLYLINE
8
0
62
30
66
1
10
0
20
0
30
0
70
8
0
VERTEX
8
0
62
30
10
0.35355323
20
0.94749289
30
0
70
32
0
VERTEX
8
0
62
30
10
0.35355323
20
0.94749289
30
0
70
32
0
VERTEX
8
0
62
30
10
0.35355323
20
0.94749289
30
0
70
32
0
SEQEND
8
0
0
POLYLINE
8
0
62
30
66
1
10
0
20
0
30
0
70
8
0
VERTEX
8
0
62
30
10
0.42426391
20
0.87678221
30
0
70
32
0
VERTEX
8
0
62
30
10
0.45355326
20
0.94749289
30
0
70
32
0
VERTEX
8
0
62
30
10
0.42426391
20
1.0182036
30
0
70
32
0
SEQEND
8
0
0
POLYLINE
8
0
62
30
66
1
10
0
20
0
30
0
70
8
0
VERTEX
8
0
62
30
10
0.49497459
20
0.87678205
30
0
70
32
0
VERTEX
8
0
62
30
10
0.52426395
20
0.94749289
30
0
70
32
0
VERTEX
8
0
62
30
10
0.49497459
20
1.0182037
30
0
70
32
0
SEQEND
8
0
0
POLYLINE
8
0
62
5
66
1
10
0
20
0
30
0
70
8
0
VERTEX
8
0
62
5
10
-0.28284287
20
0.86213747
30
0
70
32
0
VERTEX
8
0
62
5
10
-0.28284287
20
1.0328483
30
0
70
32
0
SEQEND
8
0
0
POLYLINE
8
0
62
5
66
1
10
0
20
0
30
0
70
8
0
VERTEX
8
0
62
5
10
-0.28284287
20
0.94749273
30
0
70
32
0
VERTEX
8
0
62
5
10
-0.2121322
20
0.94749289
30
0
70
32
0
VERTEX
8
0
62
5
10
-0.14142152
20
0.87678221
30
0
70
32
0
VERTEX
8
0
62
5
10
-0.070710839
20
0.87678205
30
0
70
32
0
VERTEX
8
0
62
5
10
-1.607681e-07
20
0.94749273
30
0
70
32
0
SEQEND
8
0
0
POLYLINE
8
0
62
5
66
1
10
0
20
0
30
0
70
8
0
SEQEND
8
0
0
POLYLINE
8
0
62
5
66
1
10
0
20
0
30
0
70
8
0
VERTEX
8
0
62
5
10
-0.28284287
20
0.94749306
30
0
70
32
0
VERTEX
8
0
62
5
10
-0.2121322
20
0.94749289
30
0
70
32
0
VERTEX
8
0
62
5
10
-0.14142152
20
1.0182036
30
0
70
32
0
VERTEX
8
0
62
5
10
-0.070710839
20
1.0182037
30
0
70
32
0
VERTEX
8
0
62
5
10
-1.607681e-07
20
0.94749306
30
0
70
32
0
SEQEND
8
0
0
POLYLINE
8
0
62
30
66
1
10
0
20
0
30
0
70
8
0
VERTEX
8
0
62
30
10
-0.28284287
20
0.94749289
30
0
70
32
0
VERTEX
8
0
62
30
10
-1.607681e-07
20
0.94749289
30
0
70
32
0
SEQEND
8
0
0
POLYLINE
8
0
62
30
66
1
10
0
20
0
30
0
70
8
0
VERTEX
8
0
62
30
10
-0.2121322
20
0.94749289
30
0
70
32
0
VERTEX
8
0
62
30
10
-0.2121322
20
0.94749289
30
0
70
32
0
SEQEND
8
0
0
POLYLINE
8
0
62
30
66
1
10
0
20
0
30
0
70
8
0
VERTEX
8
0
62
30
10
-0.14142152
20
0.87678221
30
0
70
32
0
VERTEX
8
0
62
30
10
-0.14142152
20
0.94749289
30
0
70
32
0
SEQEND
8
0
0
POLYLINE
8
0
62
30
66
1
10
0
20
0
30
0
70
8
0
VERTEX
8
0
62
30
10
-0.070710839
20
0.87678205
30
0
70
32
0
VERTEX
8
0
62
30
10
-0.070710839
20
0.94749289
30
0
70
32
0
SEQEND
8
0
0
POLYLINE
8
0
62
5
66
1
10
0
20
0
30
0
70
8
0
VERTEX
8
0
62
5
10
-0.2121322
20
0.86213747
30
0
70
32
0
VERTEX
8
0
62
5
10
-0.2121322
20
0.94749289
30
0
70
32
0
SEQEND
8
0
0
POLYLINE
8
0
62
5
66
1
10
0
20
0
30
0
70
8
0
VERTEX
8
0
62
5
10
-0.14142152
20
0.86213747
30
0
70
32
0
VERTEX
8
0
62
5
10
-0.14142152
20
0.87678221
30
0
70
32
0
SEQEND
8
0
0
POLYLINE
8
0
62
5
66
1
10
0
20
0
30
0
70
8
0
VERTEX
8
0
62
5
10
-0.070710839
20
0.86213747
30
0
70
32
0
VERTEX
8
0
62
5
10
-0.070710839
20
0.87678205
30
0
70
32
0
SEQEND
8
0
0
POLYLINE
8
0
62
5
66
1
10
0
20
0
30
0
70
8
0
VERTEX
8
0
62
5
10
-0.2121322
20
0.94749289
30
0
70
32
0
VERTEX
8
0
62
5
10
-0.2121322
20
1.0328483
30
0
70
32
0
SEQEND
8
0
0
POLYLINE
8
0
62
5
66
1
10
0
20
0
30
0
70
8
0
VERTEX
8
0
62
5
10
-0.14142152
20
0.94749289
30
0
70
32
0
VERTEX
8
0
62
5
10
-0.14142152
20
1.0328483
30
0
70
32
0
SEQEND
8
0
0
POLYLINE
8
0
62
5
66
1
10
0
20
0
30
0
70
8
0
VERTEX
8
0
62
5
10
-0.070710839
20
0.94749289
30
0
70
32
0
VERTEX
8
0
62
5
10
-0.070710839
20
1.0328483
30
0
70
32
0
SEQEND
8
0
0
POLYLINE
8
0
62
30
66
1
10
0
20
0
30
0
70
8
0
VERTEX
8
0
62
30
10
-0.28284287
20
0.94749273
30
0
70
32
0
VERTEX
8
0
62
30
10
-0.28284248
20
0.94749289
30
0
70
32
0
VERTEX
8
0
62
30
10
-0.28284287
20
0.94749306
30
0
70
32
0
SEQEND
8
0
0
POLYLINE
8
0
62
30
66
1
10
0
20
0
30
0
70
8
0
VERTEX
8
0
62
30
10
-0.2121322
20
0.94749289
30
0
70
32
0
VERTEX
8
0
62
30
10
-0.2121322
20
0.94749289
30
0
70
32
0
VERTEX
8
0
62
30
10
-0.2121322
20
0.94749289
30
0
70
32
0
SEQEND
8
0
0
POLYLINE
8
0
62
30
66
1
10
0
20
0
30
0
70
8
0
VERTEX
8
0
62
30
10
-0.14142152
20
0.87678221
30
0
70
32
0
VERTEX
8
0
62
30
10
-0.11213217
20
0.94749289
30
0
70
32
0
VERTEX
8
0
62
30
10
-0.14142152
20
1.0182036
30
0
70
32
0
SEQEND
8
0
0
POLYLINE
8
0
62
30
66
1
10
0
20
0
30
0
70
8
0
VERTEX
8
0
62
30
10
-0.070710839
20
0.87678205
30
0
70
32
0
VERTEX
8
0
62
30
10
-0.041421477
20
0.94749289
30
0
70
32
0
VERTEX
8
0
62
30
10
-0.070710839
20
1.0182037
30
0
70
32
0
SEQEND
8
0
0
POLYLINE
8
0
62
5
66
1
10
0
20
0
30
0
70
8
0
VERTEX
8
0
62
5
10
-1.607681e-07
20
1.0328483
30
0
70
32
0
VERTEX
8
0
62
5
10
-1.607681e-07
20
1.0338483
30
0
70
32
0
SEQEND
8
0
0
POLYLINE
8
0
62
5
66
1
10
0
20
0
30
0
70
8
0
VERTEX
8
0
62
5
10
0.28284255
20
1.0328483
30
0
70
32
0
VERTEX
8
0
62
5
10
0.28284255
20
1.0338483
30
0
70
32
0
SEQEND
8
0
0
POLYLINE
8
0
62
5
66
1
10
0
20
0
30
0
70
8
0
VERTEX
8
0
62
5
10
0.070710517
20
1.0328483
30
0
70
32
0
VERTEX
8
0
62
5
10
0.070710517
20
1.0338483
30
0
70
32
0
SEQEND
8
0
0
POLYLINE
8
0
62
5
66
1
10
0
20
0
30
0
70
8
0
VERTEX
8
0
62
5
10
0.1414212
20
1.0328483
30
0
70
32
0
VERTEX
8
0
62
5
10
0.1414212
20
1.0338483
30
0
70
32
0
SEQEND
8
0
0
POLYLINE
8
0
62
5
66
1
10
0
20
0
30
0
70
8
0
VERTEX
8
0
62
5
10
0.21213187
20
1.0328483
30
0
70
32
0
VERTEX
8
0
62
5
10
0.21213187
20
1.0338483
30
0
70
32
0
SEQEND
8
0
0
POLYLINE
8
0
62
5
66
1
10
0
20
0
30
0
70
8
0
VERTEX
8
0
62
5
10
0.56568526
20
1.0328483
30
0
70
32
0
VERTEX
8
0
62
5
10
0.56568526
20
1.0338483
30
0
70
32
0
SEQEND
8
0
0
POLYLINE
8
0
62
5
66
1
10
0
20
0
30
0
70
8
0
VERTEX
8
0
62
5
10
0.35355323
20
1.0328483
30
0
70
32
0
VERTEX
8
0
62
5
10
0.35355323
20
1.0338483
30
0
70
32
0
SEQEND
8
0
0
POLYLINE
8
0
62
5
66
1
10
0
20
0
30
0
70
8
0
VERTEX
8
0
62
5
10
0.42426391
20
1.0328483
30
0
70
32
0
VERTEX
8
0
62
5
10
0.42426391
20
1.0338483
30
0
70
32
0
SEQEND
8
0
0
POLYLINE
8
0
62
5
66
1
10
0
20
0
30
0
70
8
0
VERTEX
8
0
62
5
10
0.49497459
20
1.0328483
30
0
70
32
0
VERTEX
8
0
62
5
10
0.49497459
20
1.0338483
30
0
70
32
0
SEQEND
8
0
0
POLYLINE
8
0
62
5
66
1
10
0
20
0
30
0
70
8
0
VERTEX
8
0
62
5
10
-0.28284287
20
1.0328483
30
0
70
32
0
VERTEX
8
0
62
5
10
-0.28284287
20
1.0338483
30
0
70
32
0
SEQEND
8
0
0
POLYLINE
8
0
62
5
66
1
10
0
20
0
30
0
70
8
0
VERTEX
8
0
62
5
10
-0.2121322
20
1.0328483
30
0
70
32
0
VERTEX
8
0
62
5
10
-0.2121322
20
1.0338483
30
0
70
32
0
SEQEND
8
0
0
POLYLINE
8
0
62
5
66
1
10
0
20
0
30
0
70
8
0
VERTEX
8
0
62
5
10
-0.14142152
20
1.0328483
30
0
70
32
0
VERTEX
8
0
62
5
10
-0.14142152
20
1.0338483
30
0
70
32
0
SEQEND
8
0
0
POLYLINE
8
0
62
5
66
1
10
0
20
0
30
0
70
8
0
VERTEX
8
0
62
5
10
-0.070710839
20
1.0328483
30
0
70
32
0
VERTEX
8
0
62
5
10
-0.070710839
20
1.0338483
30
0
70
32
0
SEQEND
8
0
0
POLYLINE
8
0
62
5
66
1
10
0
20
0
30
0
70
8
0
VERTEX
8
0
62
5
10
-1.607681e-07
20
1.0338483
30
0
70
32
0
VERTEX
8
0
62
5
10
-1.607681e-07
20
1.1752697
30
0
70
32
0
SEQEND
8
0
0
POLYLINE
8
0
62
5
66
1
10
0
20
0
30
0
70
8
0
VERTEX
8
0
62
5
10
0.28284255
20
1.1752697
30
0
70
32
0
VERTEX
8
0
62
5
10
0.28284255
20
1.0338483
30
0
70
32
0
SEQEND
8
0
0
POLYLINE
8
0
62
5
66
1
10
0
20
0
30
0
70
8
0
VERTEX
8
0
62
5
10
-1.607681e-07
20
1.0399143
30
0
70
32
0
VERTEX
8
0
62
5
10
0.070710517
20
1.0692037
30
0
70
32
0
VERTEX
8
0
62
5
10
0.1414212
20
1.0692037
30
0
70
32
0
VERTEX
8
0
62
5
10
0.21213187
20
1.0399143
30
0
70
32
0
VERTEX
8
0
62
5
10
0.28284255
20
1.0399143
30
0
70
32
0
SEQEND
8
0
0
POLYLINE
8
0
62
5
66
1
10
0
20
0
30
0
70
8
0
VERTEX
8
0
62
5
10
-1.607681e-07
20
1.110625
30
0
70
32
0
VERTEX
8
0
62
5
10
0.070710517
20
1.1399143
30
0
70
32
0
VERTEX
8
0
62
5
10
0.1414212
20
1.1399143
30
0
70
32
0
VERTEX
8
0
62
5
10
0.21213187
20
1.110625
30
0
70
32
0
VERTEX
8
0
62
5
10
0.28284255
20
1.110625
30
0
70
32
0
SEQEND
8
0
0
POLYLINE
8
0
62
5
66
1
10
0
20
0
30
0
70
8
0
VERTEX
8
0
62
5
10
-1.607681e-07
20
1.098493
30
0
70
32
0
VERTEX
8
0
62
5
10
0.070710517
20
1.0692037
30
0
70
32
0
VERTEX
8
0
62
5
10
0.1414212
20
1.0692037
30
0
70
32
0
VERTEX
8
0
62
5
10
0.21213187
20
1.098493
30
0
70
32
0
VERTEX
8
0
62
5
10
0.28284255
20
1.098493
30
0
70
32
0
SEQEND
8
0
0
POLYLINE
8
0
62
5
66
1
10
0
20
0
30
0
70
8
0
VERTEX
8
0
62
5
10
-1.607681e-07
20
1.1692037
30
0
70
32
0
VERTEX
8
0
62
5
10
0.070710517
20
1.1399143
30
0
70
32
0
VERTEX
8
0
62
5
10
0.1414212
20
1.1399143
30
0
70
32
0
VERTEX
8
0
62
5
10
0.21213187
20
1.1692037
30
0
70
32
0
VERTEX
8
0
62
5
10
0.28284255
20
1.1692037
30
0
70
32
0
SEQEND
8
0
0
POLYLINE
8
0
62
30
66
1
10
0
20
0
30
0
70
8
0
VERTEX
8
0
62
30
10
-1.607681e-07
20
1.0692037
30
0
70
32
0
VERTEX
8
0
62
30
10
0.28284255
20
1.0692037
30
0
70
32
0
SEQEND
8
0
0
POLYLINE
8
0
62
30
66
1
10
0
20
0
30
0
70
8
0
VERTEX
8
0
62
30
10
-1.607681e-07
20
1.1399143
30
0
70
32
0
VERTEX
8
0
62
30
10
0.28284255
20
1.1399143
30
0
70
32
0
SEQEND
8
0
0
POLYLINE
8
0
62
30
66
1
10
0
20
0
30
0
70
8
0
VERTEX
8
0
62
30
10
0.070710517
20
1.0692037
30
0
70
32
0
VERTEX
8
0
62
30
10
0.070710517
20
1.0692037
30
0
70
32
0
SEQEND
8
0
0
POLYLINE
8
0
62
30
66
1
10
0
20
0
30
0
70
8
0
VERTEX
8
0
62
30
10
0.1414212
20
1.0692037
30
0
70
32
0
VERTEX
8
0
62
30
10
0.1414212
20
1.0692037
30
0
70
32
0
SEQEND
8
0
0
POLYLINE
8
0
62
30
66
1
10
0
20
0
30
0
70
8
0
VERTEX
8
0
62
30
10
0.21213187
20
1.0399143
30
0
70
32
0
VERTEX
8
0
62
30
10
0.21213187
20
1.0692037
30
0
70
32
0
SEQEND
8
0
0
POLYLINE
8
0
62
30
66
1
10
0
20
0
30
0
70
8
0
VERTEX
8
0
62
30
10
0.070710517
20
1.1399143
30
0
70
32
0
VERTEX
8
0
62
30
10
0.070710517
20
1.1399143
30
0
70
32
0
SEQEND
8
0
0
POLYLINE
8
0
62
30
66
1
10
0
20
0
30
0
70
8
0
VERTEX
8
0
62
30
10
0.1414212
20
1.1399143
30
0
70
32
0
VERTEX
8
0
62
30
10
0.1414212
20
1.1399143
30
0
70
32
0
SEQEND
8
0
0
POLYLINE
8
0
62
30
66
1
10
0
20
0
30
0
70
8
0
VERTEX
8
0
62
30
10
0.21213187
20
1.110625
30
0
70
32
0
VERTEX
8
0
62
30
10
0.21213187
20
1.1399143
30
0
70
32
0
SEQEND
8
0
0
POLYLINE
8
0
62
5
66
1
10
0
20
0
30
0
70
8
0
VERTEX
8
0
62
5
10
0.070710517
20
1.0338483
30
0
70
32
0
VERTEX
8
0
62
5
10
0.070710517
20
1.0692037
30
0
70
32
0
SEQEND
8
0
0
POLYLINE
8
0
62
5
66
1
10
0
20
0
30
0
70
8
0
VERTEX
8
0
62
5
10
0.1414212
20
1.0338483
30
0
70
32
0
VERTEX
8
0
62
5
10
0.1414212
20
1.0692037
30
0
70
32
0
SEQEND
8
0
0
POLYLINE
8
0
62
5
66
1
10
0
20
0
30
0
70
8
0
VERTEX
8
0
62
5
10
0.21213187
20
1.0338483
30
0
70
32
0
VERTEX
8
0
62
5
10
0.21213187
20
1.0399143
30
0
70
32
0
SEQEND
8
0
0
POLYLINE
8
0
62
5
66
1
10
0
20
0
30
0
70
8
0
VERTEX
8
0
62
5
10
0.070710517
20
1.104559
30
0
70
32
0
VERTEX
8
0
62
5
10
0.070710517
20
1.1399143
30
0
70
32
0
SEQEND
8
0
0
POLYLINE
8
0
62
5
66
1
10
0
20
0
30
0
70
8
0
VERTEX
8
0
62
5
10
0.1414212
20
1.104559
30
0
70
32
0
VERTEX
8
0
62
5
10
0.1414212
20
1.1399143
30
0
70
32
0
SEQEND
8
0
0
POLYLINE
8
0
62
5
66
1
10
0
20
0
30
0
70
8
0
VERTEX
8
0
62
5
10
0.21213187
20
1.104559
30
0
70
32
0
VERTEX
8
0
62
5
10
0.21213187
20
1.110625
30
0
70
32
0
SEQEND
8
0
0
POLYLINE
8
0
62
5
66
1
10
0
20
0
30
0
70
8
0
VERTEX
8
0
62
5
10
0.070710517
20
1.0692037
30
0
70
32
0
VERTEX
8
0
62
5
10
0.070710517
20
1.104559
30
0
70
32
0
SEQEND
8
0
0
POLYLINE
8
0
62
5
66
1
10
0
20
0
30
0
70
8
0
VERTEX
8
0
62
5
10
0.1414212
20
1.0692037
30
0
70
32
0
VERTEX
8
0
62
5
10
0.1414212
20
1.104559
30
0
70
32
0
SEQEND
8
0
0
POLYLINE
8
0
62
5
66
1
10
0
20
0
30
0
70
8
0
VERTEX
8
0
62
5
10
0.21213187
20
1.0692037
30
0
70
32
0
VERTEX
8
0
62
5
10
0.21213187
20
1.104559
30
0
70
32
0
SEQEND
8
0
0
POLYLINE
8
0
62
5
66
1
10
0
20
0
30
0
70
8
0
VERTEX
8
0
62
5
10
0.070710517
20
1.1399143
30
0
70
32
0
VERTEX
8
0
62
5
10
0.070710517
20
1.1752697
30
0
70
32
0
SEQEND
8
0
0
POLYLINE
8
0
62
5
66
1
10
0
20
0
30
0
70
8
0
VERTEX
8
0
62
5
10
0.1414212
20
1.1399143
30
0
70
32
0
VERTEX
8
0
62
5
10
0.1414212
20
1.1752697
30
0
70
32
0
SEQEND
8
0
0
POLYLINE
8
0
62
5
66
1
10
0
20
0
30
0
70
8
0
VERTEX
8
0
62
5
10
0.21213187
20
1.1399143
30
0
70
32
0
VERTEX
8
0
62
5
10
0.21213187
20
1.1752697
30
0
70
32
0
SEQEND
8
0
0
POLYLINE
8
0
62
30
66
1
10
0
20
0
30
0
70
8
0
VERTEX
8
0
62
30
10
-1.607681e-07
20
1.0399143
30
0
70
32
0
VERTEX
8
0
62
30
10
0.019570338
20
1.0692037
30
0
70
32
0
VERTEX
8
0
62
30
10
-1.607681e-07
20
1.098493
30
0
70
32
0
SEQEND
8
0
0
POLYLINE
8
0
62
30
66
1
10
0
20
0
30
0
70
8
0
VERTEX
8
0
62
30
10
0.070710517
20
1.0692037
30
0
70
32
0
VERTEX
8
0
62
30
10
0.070710517
20
1.0692037
30
0
70
32
0
VERTEX
8
0
62
30
10
0.070710517
20
1.0692037
30
0
70
32
0
SEQEND
8
0
0
POLYLINE
8
0
62
30
66
1
10
0
20
0
30
0
70
8
0
VERTEX
8
0
62
30
10
0.1414212
20
1.0692037
30
0
70
32
0
VERTEX
8
0
62
30
10
0.1414212
20
1.0692037
30
0
70
32
0
VERTEX
8
0
62
30
10
0.1414212
20
1.0692037
30
0
70
32
0
SEQEND
8
0
0
POLYLINE
8
0
62
30
66
1
10
0
20
0
30
0
70
8
0
VERTEX
8
0
62
30
10
0.21213187
20
1.0399143
30
0
70
32
0
VERTEX
8
0
62
30
10
0.23170237
20
1.0692037
30
0
70
32
0
VERTEX
8
0
62
30
10
0.21213187
20
1.098493
30
0
70
32
0
SEQEND
8
0
0
POLYLINE
8
0
62
30
66
1
10
0
20
0
30
0
70
8
0
VERTEX
8
0
62
30
10
-1.607681e-07
20
1.110625
30
0
70
32
0
VERTEX
8
0
62
30
10
0.019570338
20
1.1399143
30
0
70
32
0
VERTEX
8
0
62
30
10
-1.607681e-07
20
1.1692037
30
0
70
32
0
SEQEND
8
0
0
POLYLINE
8
0
62
30
66
1
10
0
20
0
30
0
70
8
0
VERTEX
8
0
62
30
10
0.070710517
20
1.1399143
30
0
70
32
0
VERTEX
8
0
62
30
10
0.070710517
20
1.1399143
30
0
70
32
0
VERTEX
8
0
62
30
10
0.070710517
20
1.1399143
30
0
70
32
0
SEQEND
8
0
0
POLYLINE
8
0
62
30
66
1
10
0
20
0
30
0
70
8
0
VERTEX
8
0
62
30
10
0.1414212
20
1.1399143
30
0
70
32
0
VERTEX
8
0
62
30
10
0.1414212
20
1.1399143
30
0
70
32
0
VERTEX
8
0
62
30
10
0.1414212
20
1.1399143
30
0
70
32
0
SEQEND
8
0
0
POLYLINE
8
0
62
30
66
1
10
0
20
0
30
0
70
8
0
VERTEX
8
0
62
30
10
0.21213187
20
1.110625
30
0
70
32
0
VERTEX
8
0
62
30
10
0.23170237
20
1.1399143
30
0
70
32
0
VERTEX
8
0
62
30
10
0.21213187
20
1.1692037
30
0
70
32
0
SEQEND
8
0
0
POLYLINE
8
0
62
5
66
1
10
0
20
0
30
0
70
8
0
VERTEX
8
0
62
5
10
0.56568526
20
1.1752697
30
0
70
32
0
VERTEX
8
0
62
5
10
0.56568526
20
1.0338483
30
0
70
32
0
SEQEND
8
0
0
POLYLINE
8
0
62
5
66
1
10
0
20
0
30
0
70
8
0
VERTEX
8
0
62
5
10
0.28284255
20
1.0399143
30
0
70
32
0
VERTEX
8
0
62
5
10
0.35355323
20
1.0692037
30
0
70
32
0
VERTEX
8
0
62
5
10
0.42426391
20
1.0692037
30
0
70
32
0
VERTEX
8
0
62
5
10
0.49497459
20
1.0399143
30
0
70
32
0
VERTEX
8
0
62
5
10
0.56568526
20
1.0399143
30
0
70
32
0
SEQEND
8
0
0
POLYLINE
8
0
62
5
66
1
10
0
20
0
30
0
70
8
0
VERTEX
8
0
62
5
10
0.28284255
20
1.110625
30
0
70
32
0
VERTEX
8
0
62
5
10
0.35355323
20
1.1399143
30
0
70
32
0
VERTEX
8
0
62
5
10
0.42426391
20
1.1399143
30
0
70
32
0
VERTEX
8
0
62
5
10
0.49497459
20
1.110625
30
0
70
32
0
VERTEX
8
0
62
5
10
0.56568526
20
1.110625
30
0
70
32
0
SEQEND
8
0
0
POLYLINE
8
0
62
5
66
1
10
0
20
0
30
0
70
8
0
VERTEX
8
0
62
5
10
0.28284255
20
1.098493
30
0
70
32
0
VERTEX
8
0
62
5
10
0.35355323
20
1.0692037
30
0
70
32
0
VERTEX
8
0
62
5
10
0.42426391
20
1.0692037
30
0
70
32
0
VERTEX
8
0
62
5
10
0.49497459
20
1.098493
30
0
70
32
0
VERTEX
8
0
62
5
10
0.56568526
20
1.098493
30
0
70
32
0
SEQEND
8
0
0
POLYLINE
8
0
62
5
66
1
10
0
20
0
30
0
70
8
0
VERTEX
8
0
62
5
10
0.28284255
20
1.1692037
30
0
70
32
0
VERTEX
8
0
62
5
10
0.35355323
20
1.1399143
30
0
70
32
0
VERTEX
8
0
62
5
10
0.42426391
20
1.1399143
30
0
70
32
0
VERTEX
8
0
62
5
10
0.49497459
20
1.1692037
30
0
70
32
0
VERTEX
8
0
62
5
10
0.56568526
20
1.1692037
30
0
70
32
0
SEQEND
8
0
0
POLYLINE
8
0
62
30
66
1
10
0
20
0
30
0
70
8
0
VERTEX
8
0
62
30
10
0.28284255
20
1.0692037
30
0
70
32
0
VERTEX
8
0
62
30
10
0.56568526
20
1.0692037
30
0
70
32
0
SEQEND
8
0
0
POLYLINE
8
0
62
30
66
1
10
0
20
0
30
0
70
8
0
VERTEX
8
0
62
30
10
0.28284255
20
1.1399143
30
0
70
32
0
VERTEX
8
0
62
30
10
0.56568526
20
1.1399143
30
0
70
32
0
SEQEND
8
0
0
POLYLINE
8
0
62
30
66
1
10
0
20
0
30
0
70
8
0
VERTEX
8
0
62
30
10
0.35355323
20
1.0692037
30
0
70
32
0
VERTEX
8
0
62
30
10
0.35355323
20
1.0692037
30
0
70
32
0
SEQEND
8
0
0
POLYLINE
8
0
62
30
66
1
10
0
20
0
30
0
70
8
0
VERTEX
8
0
62
30
10
0.42426391
20
1.0692037
30
0
70
32
0
VERTEX
8
0
62
30
10
0.42426391
20
1.0692037
30
0
70
32
0
SEQEND
8
0
0
POLYLINE
8
0
62
30
66
1
10
0
20
0
30
0
70
8
0
VERTEX
8
0
62
30
10
0.49497459
20
1.0399143
30
0
70
32
0
VERTEX
8
0
62
30
10
0.49497459
20
1.0692037
30
0
70
32
0
SEQEND
8
0
0
POLYLINE
8
0
62
30
66
1
10
0
20
0
30
0
70
8
0
VERTEX
8
0
62
30
10
0.35355323
20
1.1399143
30
0
70
32
0
VERTEX
8
0
62
30
10
0.35355323
20
1.1399143
30
0
70
32
0
SEQEND
8
0
0
POLYLINE
8
0
62
30
66
1
10
0
20
0
30
0
70
8
0
VERTEX
8
0
62
30
10
0.42426391
20
1.1399143
30
0
70
32
0
VERTEX
8
0
62
30
10
0.42426391
20
1.1399143
30
0
70
32
0
SEQEND
8
0
0
POLYLINE
8
0
62
30
66
1
10
0
20
0
30
0
70
8
0
VERTEX
8
0
62
30
10
0.49497459
20
1.110625
30
0
70
32
0
VERTEX
8
0
62
30
10
0.49497459
20
1.1399143
30
0
70
32
0
SEQEND
8
0
0
POLYLINE
8
0
62
5
66
1
10
0
20
0
30
0
70
8
0
VERTEX
8
0
62
5
10
0.35355323
20
1.0338483
30
0
70
32
0
VERTEX
8
0
62
5
10
0.35355323
20
1.0692037
30
0
70
32
0
SEQEND
8
0
0
POLYLINE
8
0
62
5
66
1
10
0
20
0
30
0
70
8
0
VERTEX
8
0
62
5
10
0.42426391
20
1.0338483
30
0
70
32
0
VERTEX
8
0
62
5
10
0.42426391
20
1.0692037
30
0
70
32
0
SEQEND
8
0
0
POLYLINE
8
0
62
5
66
1
10
0
20
0
30
0
70
8
0
VERTEX
8
0
62
5
10
0.49497459
20
1.0338483
30
0
70
32
0
VERTEX
8
0
62
5
10
0.49497459
20
1.0399143
30
0
70
32
0
SEQEND
8
0
0
POLYLINE
8
0
62
5
66
1
10
0
20
0
30
0
70
8
0
VERTEX
8
0
62
5
10
0.35355323
20
1.104559
30
0
70
32
0
VERTEX
8
0
62
5
10
0.35355323
20
1.1399143
30
0
70
32
0
SEQEND
8
0
0
POLYLINE
8
0
62
5
66
1
10
0
20
0
30
0
70
8
0
VERTEX
8
0
62
5
10
0.42426391
20
1.104559
30
0
70
32
0
VERTEX
8
0
62
5
10
0.42426391
20
1.1399143
30
0
70
32
0
SEQEND
8
0
0
POLYLINE
8
0
62
5
66
1
10
0
20
0
30
0
70
8
0
VERTEX
8
0
62
5
10
0.49497459
20
1.104559
30
0
70
32
0
VERTEX
8
0
62
5
10
0.49497459
20
1.110625
30
0
70
32
0
SEQEND
8
0
0
POLYLINE
8
0
62
5
66
1
10
0
20
0
30
0
70
8
0
VERTEX
8
0
62
5
10
0.35355323
20
1.0692037
30
0
70
32
0
VERTEX
8
0
62
5
10
0.35355323
20
1.104559
30
0
70
32
0
SEQEND
8
0
0
POLYLINE
8
0
62
5
66
1
10
0
20
0
30
0
70
8
0
VERTEX
8
0
62
5
10
0.42426391
20
1.0692037
30
0
70
32
0
VERTEX
8
0
62
5
10
0.42426391
20
1.104559
30
0
70
32
0
SEQEND
8
0
0
POLYLINE
8
0
62
5
66
1
10
0
20
0
30
0
70
8
0
VERTEX
8
0
62
5
10
0.49497459
20
1.0692037
30
0
70
32
0
VERTEX
8
0
62
5
10
0.49497459
20
1.104559
30
0
70
32
0
SEQEND
8
0
0
POLYLINE
8
0
62
5
66
1
10
0
20
0
30
0
70
8
0
VERTEX
8
0
62
5
10
0.35355323
20
1.1399143
30
0
70
32
0
VERTEX
8
0
62
5
10
0.35355323
20
1.1752697
30
0
70
32
0
SEQEND
8
0
0
POLYLINE
8
0
62
5
66
1
10
0
20
0
30
0
70
8
0
VERTEX
8
0
62
5
10
0.42426391
20
1.1399143
30
0
70
32
0
VERTEX
8
0
62
5
10
0.42426391
20
1.1752697
30
0
70
32
0
SEQEND
8
0
0
POLYLINE
8
0
62
5
66
1
10
0
20
0
30
0
70
8
0
VERTEX
8
0
62
5
10
0.49497459
20
1.1399143
30
0
70
32
0
VERTEX
8
0
62
5
10
0.49497459
20
1.1752697
30
0
70
32
0
SEQEND
8
0
0
POLYLINE
8
0
62
30
66
1
10
0
20
0
30
0
70
8
0
VERTEX
8
0
62
30
10
0.28284255
20
1.0399143
30
0
70
32
0
VERTEX
8
0
62
30
10
0.30241305
20
1.0692037
30
0
70
32
0
VERTEX
8
0
62
30
10
0.28284255
20
1.098493
30
0
70
32
0
SEQEND
8
0
0
POLYLINE
8
0
62
30
66
1
10
0
20
0
30
0
70
8
0
VERTEX
8
0
62
30
10
0.35355323
20
1.0692037
30
0
70
32
0
VERTEX
8
0
62
30
10
0.35355323
20
1.0692037
30
0
70
32
0
VERTEX
8
0
62
30
10
0.35355323
20
1.0692037
30
0
70
32
0
SEQEND
8
0
0
POLYLINE
8
0
62
30
66
1
10
0
20
0
30
0
70
8
0
VERTEX
8
0
62
30
10
0.42426391
20
1.0692037
30
0
70
32
0
VERTEX
8
0
62
30
10
0.42426391
20
1.0692037
30
0
70
32
0
VERTEX
8
0
62
30
10
0.42426391
20
1.0692037
30
0
70
32
0
SEQEND
8
0
0
POLYLINE
8
0
62
30
66
1
10
0
20
0
30
0
70
8
0
VERTEX
8
0
62
30
10
0.49497459
20
1.0399143
30
0
70
32
0
VERTEX
8
0
62
30
10
0.51454509
20
1.0692037
30
0
70
32
0
VERTEX
8
0
62
30
10
0.49497459
20
1.098493
30
0
70
32
0
SEQEND
8
0
0
POLYLINE
8
0
62
30
66
1
10
0
20
0
30
0
70
8
0
VERTEX
8
0
62
30
10
0.28284255
20
1.110625
30
0
70
32
0
VERTEX
8
0
62
30
10
0.30241305
20
1.1399143
30
0
70
32
0
VERTEX
8
0
62
30
10
0.28284255
20
1.1692037
30
0
70
32
0
SEQEND
8
0
0
POLYLINE
8
0
62
30
66
1
10
0
20
0
30
0
70
8
0
VERTEX
8
0
62
30
10
0.35355323
20
1.1399143
30
0
70
32
0
VERTEX
8
0
62
30
10
0.35355323
20
1.1399143
30
0
70
32
0
VERTEX
8
0
62
30
10
0.35355323
20
1.1399143
30
0
70
32
0
SEQEND
8
0
0
POLYLINE
8
0
62
30
66
1
10
0
20
0
30
0
70
8
0
VERTEX
8
0
62
30
10
0.42426391
20
1.1399143
30
0
70
32
0
VERTEX
8
0
62
30
10
0.42426391
20
1.1399143
30
0
70
32
0
VERTEX
8
0
62
30
10
0.42426391
20
1.1399143
30
0
70
32
0
SEQEND
8
0
0
POLYLINE
8
0
62
30
66
1
10
0
20
0
30
0
70
8
0
VERTEX
8
0
62
30
10
0.49497459
20
1.110625
30
0
70
32
0
VERTEX
8
0
62
30
10
0.51454509
20
1.1399143
30
0
70
32
0
VERTEX
8
0
62
30
10
0.49497459
20
1.1692037
30
0
70
32
0
SEQEND
8
0
0
POLYLINE
8
0
62
5
66
1
10
0
20
0
30
0
70
8
0
VERTEX
8
0
62
5
10
-0.28284287
20
1.0338483
30
0
70
32
0
VERTEX
8
0
62
5
10
-0.28284287
20
1.1752697
30
0
70
32
0
SEQEND
8
0
0
POLYLINE
8
0
62
5
66
1
10
0
20
0
30
0
70
8
0
VERTEX
8
0
62
5
10
-0.28284287
20
1.0399143
30
0
70
32
0
VERTEX
8
0
62
5
10
-0.2121322
20
1.0692037
30
0
70
32
0
VERTEX
8
0
62
5
10
-0.14142152
20
1.0692037
30
0
70
32
0
VERTEX
8
0
62
5
10
-0.070710839
20
1.0399143
30
0
70
32
0
VERTEX
8
0
62
5
10
-1.607681e-07
20
1.0399143
30
0
70
32
0
SEQEND
8
0
0
POLYLINE
8
0
62
5
66
1
10
0
20
0
30
0
70
8
0
VERTEX
8
0
62
5
10
-0.28284287
20
1.110625
30
0
70
32
0
VERTEX
8
0
62
5
10
-0.2121322
20
1.1399143
30
0
70
32
0
VERTEX
8
0
62
5
10
-0.14142152
20
1.1399143
30
0
70
32
0
VERTEX
8
0
62
5
10
-0.070710839
20
1.110625
30
0
70
32
0
VERTEX
8
0
62
5
10
-1.607681e-07
20
1.110625
30
0
70
32
0
SEQEND
8
0
0
POLYLINE
8
0
62
5
66
1
10
0
20
0
30
0
70
8
0
VERTEX
8
0
62
5
10
-0.28284287
20
1.098493
30
0
70
32
0
VERTEX
8
0
62
5
10
-0.2121322
20
1.0692037
30
0
70
32
0
VERTEX
8
0
62
5
10
-0.14142152
20
1.0692037
30
0
70
32
0
VERTEX
8
0
62
5
10
-0.070710839
20
1.098493
30
0
70
32
0
VERTEX
8
0
62
5
10
-1.607681e-07
20
1.098493
30
0
70
32
0
SEQEND
8
0
0
POLYLINE
8
0
62
5
66
1
10
0
20
0
30
0
70
8
0
VERTEX
8
0
62
5
10
-0.28284287
20
1.1692037
30
0
70
32
0
VERTEX
8
0
62
5
10
-0.2121322
20
1.1399143
30
0
70
32
0
VERTEX
8
0
62
5
10
-0.14142152
20
1.1399143
30
0
70
32
0
VERTEX
8
0
62
5
10
-0.070710839
20
1.1692037
30
0
70
32
0
VERTEX
8
0
62
5
10
-1.607681e-07
20
1.1692037
30
0
70
32
0
SEQEND
8
0
0
POLYLINE
8
0
62
30
66
1
10
0
20
0
30
0
70
8
0
VERTEX
8
0
62
30
10
-0.28284287
20
1.0692037
30
0
70
32
0
VERTEX
8
0
62
30
10
-1.607681e-07
20
1.0692037
30
0
70
32
0
SEQEND
8
0
0
POLYLINE
8
0
62
30
66
1
10
0
20
0
30
0
70
8
0
VERTEX
8
0
62
30
10
-0.28284287
20
1.1399143
30
0
70
32
0
VERTEX
8
0
62
30
10
-1.607681e-07
20
1.1399143
30
0
70
32
0
SEQEND
8
0
0
POLYLINE
8
0
62
30
66
1
10
0
20
0
30
0
70
8
0
VERTEX
8
0
62
30
10
-0.2121322
20
1.0692037
30
0
70
32
0
VERTEX
8
0
62
30
10
-0.2121322
20
1.0692037
30
0
70
32
0
SEQEND
8
0
0
POLYLINE
8
0
62
30
66
1
10
0
20
0
30
0
70
8
0
VERTEX
8
0
62
30
10
-0.14142152
20
1.0692037
30
0
70
32
0
VERTEX
8
0
62
30
10
-0.14142152
20
1.0692037
30
0
70
32
0
SEQEND
8
0
0
POLYLINE
8
0
62
30
66
1
10
0
20
0
30
0
70
8
0
VERTEX
8
0
62
30
10
-0.070710839
20
1.0399143
30
0
70
32
0
VERTEX
8
0
62
30
10
-0.070710839
20
1.0692037
30
0
70
32
0
SEQEND
8
0
0
POLYLINE
8
0
62
30
66
1
10
0
20
0
30
0
70
8
0
VERTEX
8
0
62
30
10
-0.2121322
20
1.1399143
30
0
70
32
0
VERTEX
8
0
62
30
10
-0.2121322
20
1.1399143
30
0
70
32
0
SEQEND
8
0
0
POLYLINE
8
0
62
30
66
1
10
0
20
0
30
0
70
8
0
VERTEX
8
0
62
30
10
-0.14142152
20
1.1399143
30
0
70
32
0
VERTEX
8
0
62
30
10
-0.14142152
20
1.1399143
30
0
70
32
0
SEQEND
8
0
0
POLYLINE
8
0
62
30
66
1
10
0
20
0
30
0
70
8
0
VERTEX
8
0
62
30
10
-0.070710839
20
1.110625
30
0
70
32
0
VERTEX
8
0
62
30
10
-0.070710839
20
1.1399143
30
0
70
32
0
SEQEND
8
0
0
POLYLINE
8
0
62
5
66
1
10
0
20
0
30
0
70
8
0
VERTEX
8
0
62
5
10
-0.2121322
20
1.0338483
30
0
70
32
0
VERTEX
8
0
62
5
10
-0.2121322
20
1.0692037
30
0
70
32
0
SEQEND
8
0
0
POLYLINE
8
0
62
5
66
1
10
0
20
0
30
0
70
8
0
VERTEX
8
0
62
5
10
-0.14142152
20
1.0338483
30
0
70
32
0
VERTEX
8
0
62
5
10
-0.14142152
20
1.0692037
30
0
70
32
0
SEQEND
8
0
0
POLYLINE
8
0
62
5
66
1
10
0
20
0
30
0
70
8
0
VERTEX
8
0
62
5
10
-0.070710839
20
1.0338483
30
0
70
32
0
VERTEX
8
0
62
5
10
-0.070710839
20
1.0399143
30
0
70
32
0
SEQEND
8
0
0
POLYLINE
8
0
62
5
66
1
10
0
20
0
30
0
70
8
0
VERTEX
8
0
62
5
10
-0.2121322
20
1.104559
30
0
70
32
0
VERTEX
8
0
62
5
10
-0.2121322
20
1.1399143
30
0
70
32
0
SEQEND
8
0
0
POLYLINE
8
0
62
5
66
1
10
0
20
0
30
0
70
8
0
VERTEX
8
0
62
5
10
-0.14142152
20
1.104559
30
0
70
32
0
VERTEX
8
0
62
5
10
-0.14142152
20
1.1399143
30
0
70
32
0
SEQEND
8
0
0
POLYLINE
8
0
62
5
66
1
10
0
20
0
30
0
70
8
0
VERTEX
8
0
62
5
10
-0.070710839
20
1.104559
30
0
70
32
0
VERTEX
8
0
62
5
10
-0.070710839
20
1.110625
30
0
70
32
0
SEQEND
8
0
0
POLYLINE
8
0
62
5
66
1
10
0
20
0
30
0
70
8
0
VERTEX
8
0
62
5
10
-0.2121322
20
1.0692037
30
0
70
32
0
VERTEX
8
0
62
5
10
-0.2121322
20
1.104559
30
0
70
32
0
SEQEND
8
0
0
POLYLINE
8
0
62
5
66
1
10
0
20
0
30
0
70
8
0
VERTEX
8
0
62
5
10
-0.14142152
20
1.0692037
30
0
70
32
0
VERTEX
8
0
62
5
10
-0.14142152
20
1.104559
30
0
70
32
0
SEQEND
8
0
0
POLYLINE
8
0
62
5
66
1
10
0
20
0
30
0
70
8
0
VERTEX
8
0
62
5
10
-0.070710839
20
1.0692037
30
0
70
32
0
VERTEX
8
0
62
5
10
-0.070710839
20
1.104559
30
0
70
32
0
SEQEND
8
0
0
POLYLINE
8
0
62
5
66
1
10
0
20
0
30
0
70
8
0
VERTEX
8
0
62
5
10
-0.2121322
20
1.1399143
30
0
70
32
0
VERTEX
8
0
62
5
10
-0.2121322
20
1.1752697
30
0
70
32
0
SEQEND
8
0
0
POLYLINE
8
0
62
5
66
1
10
0
20
0
30
0
70
8
0
VERTEX
8
0
62
5
10
-0.14142152
20
1.1399143
30
0
70
32
0
VERTEX
8
0
62
5
10
-0.14142152
20
1.1752697
30
0
70
32
0
SEQEND
8
0
0
POLYLINE
8
0
62
5
66
1
10
0
20
0
30
0
70
8
0
VERTEX
8
0
62
5
10
-0.070710839
20
1.1399143
30
0
70
32
0
VERTEX
8
0
62
5
10
-0.070710839
20
1.1752697
30
0
70
32
0
SEQEND
8
0
0
POLYLINE
8
0
62
30
66
1
10
0
20
0
30
0
70
8
0
VERTEX
8
0
62
30
10
-0.28284287
20
1.0399143
30
0
70
32
0
VERTEX
8
0
62
30
10
-0.26327237
20
1.0692037
30
0
70
32
0
VERTEX
8
0
62
30
10
-0.28284287
20
1.098493
30
0
70
32
0
SEQEND
8
0
0
POLYLINE
8
0
62
30
66
1
10
0
20
0
30
0
70
8
0
VERTEX
8
0
62
30
10
-0.2121322
20
1.0692037
30
0
70
32
0
VERTEX
8
0
62
30
10
-0.2121322
20
1.0692037
30
0
70
32
0
VERTEX
8
0
62
30
10
-0.2121322
20
1.0692037
30
0
70
32
0
SEQEND
8
0
0
POLYLINE
8
0
62
30
66
1
10
0
20
0
30
0
70
8
0
VERTEX
8
0
62
30
10
-0.14142152
20
1.0692037
30
0
70
32
0
VERTEX
8
0
62
30
10
-0.14142152
20
1.0692037
30
0
70
32
0
VERTEX
8
0
62
30
10
-0.14142152
20
1.0692037
30
0
70
32
0
SEQEND
8
0
0
POLYLINE
8
0
62
30
66
1
10
0
20
0
30
0
70
8
0
VERTEX
8
0
62
30
10
-0.070710839
20
1.0399143
30
0
70
32
0
VERTEX
8
0
62
30
10
-0.05114034
20
1.0692037
30
0
70
32
0
VERTEX
8
0
62
30
10
-0.070710839
20
1.098493
30
0
70
32
0
SEQEND
8
0
0
POLYLINE
8
0
62
30
66
1
10
0
20
0
30
0
70
8
0
VERTEX
8
0
62
30
10
-0.28284287
20
1.110625
30
0
70
32
0
VERTEX
8
0
62
30
10
-0.26327237
20
1.1399143
30
0
70
32
0
VERTEX
8
0
62
30
10
-0.28284287
20
1.1692037
30
0
70
32
0
SEQEND
8
0
0
POLYLINE
8
0
62
30
66
1
10
0
20
0
30
0
70
8
0
VERTEX
8
0
62
30
10
-0.2121322
20
1.1399143
30
0
70
32
0
VERTEX
8
0
62
30
10
-0.2121322
20
1.1399143
30
0
70
32
0
VERTEX
8
0
62
30
10
-0.2121322
20
1.1399143
30
0
70
32
0
SEQEND
8
0
0
POLYLINE
8
0
62
30
66
1
10
0
20
0
30
0
70
8
0
VERTEX
8
0
62
30
10
-0.14142152
20
1.1399143
30
0
70
32
0
VERTEX
8
0
62
30
10
-0.14142152
20
1.1399143
30
0
70
32
0
VERTEX
8
0
62
30
10
-0.14142152
20
1.1399143
30
0
70
32
0
SEQEND
8
0
0
POLYLINE
8
0
62
30
66
1
10
0
20
0
30
0
70
8
0
VERTEX
8
0
62
30
10
-0.070710839
20
1.110625
30
0
70
32
0
VERTEX
8
0
62
30
10
-0.05114034
20
1.1399143
30
0
70
32
0
VERTEX
8
0
62
30
10
-0.070710839
20
1.1692037
30
0
70
32
0
SEQEND
8
0
0
POLYLINE
8
0
62
5
66
1
10
0
20
0
30
0
70
8
0
VERTEX
8
0
62
5
10
-1.607681e-07
20
1.1752697
30
0
70
32
0
VERTEX
8
0
62
5
10
-1.607681e-07
20
1.1930222
30
0
70
32
0
SEQEND
8
0
0
POLYLINE
8
0
62
5
66
1
10
0
20
0
30
0
70
8
0
VERTEX
8
0
62
5
10
0.070710517
20
1.1752697
30
0
70
32
0
VERTEX
8
0
62
5
10
0.070710517
20
1.1930222
30
0
70
32
0
SEQEND
8
0
0
POLYLINE
8
0
62
5
66
1
10
0
20
0
30
0
70
8
0
VERTEX
8
0
62
5
10
0.1414212
20
1.1752697
30
0
70
32
0
VERTEX
8
0
62
5
10
0.1414212
20
1.1930222
30
0
70
32
0
SEQEND
8
0
0
POLYLINE
8
0
62
5
66
1
10
0
20
0
30
0
70
8
0
VERTEX
8
0
62
5
10
0.21213187
20
1.1752697
30
0
70
32
0
VERTEX
8
0
62
5
10
0.21213187
20
1.1930222
30
0
70
32
0
SEQEND
8
0
0
POLYLINE
8
0
62
5
66
1
10
0
20
0
30
0
70
8
0
VERTEX
8
0
62
5
10
0.28284255
20
1.1752697
30
0
70
32
0
VERTEX
8
0
62
5
10
0.28284255
20
1.1930222
30
0
70
32
0
SEQEND
8
0
0
POLYLINE
8
0
62
5
66
1
10
0
20
0
30
0
70
8
0
VERTEX
8
0
62
5
10
0.070710517
20
1.1752697
30
0
70
32
0
VERTEX
8
0
62
5
10
0.070710517
20
1.1752697
30
0
70
32
0
SEQEND
8
0
0
POLYLINE
8
0
62
5
66
1
10
0
20
0
30
0
70
8
0
VERTEX
8
0
62
5
10
0.1414212
20
1.1752697
30
0
70
32
0
VERTEX
8
0
62
5
10
0.1414212
20
1.1752697
30
0
70
32
0
SEQEND
8
0
0
POLYLINE
8
0
62
5
66
1
10
0
20
0
30
0
70
8
0
VERTEX
8
0
62
5
10
0.21213187
20
1.1752697
30
0
70
32
0
VERTEX
8
0
62
5
10
0.21213187
20
1.1752697
30
0
70
32
0
SEQEND
8
0
0
POLYLINE
8
0
62
5
66
1
10
0
20
0
30
0
70
8
0
VERTEX
8
0
62
5
10
0.070710517
20
1.1930222
30
0
70
32
0
VERTEX
8
0
62
5
10
0.070710517
20
1.1930222
30
0
70
32
0
SEQEND
8
0
0
POLYLINE
8
0
62
5
66
1
10
0
20
0
30
0
70
8
0
VERTEX
8
0
62
5
10
0.1414212
20
1.1930222
30
0
70
32
0
VERTEX
8
0
62
5
10
0.1414212
20
1.1930222
30
0
70
32
0
SEQEND
8
0
0
POLYLINE
8
0
62
5
66
1
10
0
20
0
30
0
70
8
0
VERTEX
8
0
62
5
10
0.21213187
20
1.1930222
30
0
70
32
0
VERTEX
8
0
62
5
10
0.21213187
20
1.1930222
30
0
70
32
0
SEQEND
8
0
0
POLYLINE
8
0
62
5
66
1
10
0
20
0
30
0
70
8
0
VERTEX
8
0
62
5
10
0.28284255
20
1.1930222
30
0
70
32
0
VERTEX
8
0
62
5
10
0.28284255
20
1.1930222
30
0
70
32
0
SEQEND
8
0
0
POLYLINE
8
0
62
5
66
1
10
0
20
0
30
0
70
8
0
VERTEX
8
0
62
5
10
0.35355323
20
1.1752697
30
0
70
32
0
VERTEX
8
0
62
5
10
0.35355323
20
1.1930222
30
0
70
32
0
SEQEND
8
0
0
POLYLINE
8
0
62
5
66
1
10
0
20
0
30
0
70
8
0
VERTEX
8
0
62
5
10
0.42426391
20
1.1752697
30
0
70
32
0
VERTEX
8
0
62
5
10
0.42426391
20
1.1930222
30
0
70
32
0
SEQEND
8
0
0
POLYLINE
8
0
62
5
66
1
10
0
20
0
30
0
70
8
0
VERTEX
8
0
62
5
10
0.49497459
20
1.1752697
30
0
70
32
0
VERTEX
8
0
62
5
10
0.49497459
20
1.1930222
30
0
70
32
0
SEQEND
8
0
0
POLYLINE
8
0
62
5
66
1
10
0
20
0
30
0
70
8
0
VERTEX
8
0
62
5
10
0.56568526
20
1.1752697
30
0
70
32
0
VERTEX
8
0
62
5
10
0.56568526
20
1.1930222
30
0
70
32
0
SEQEND
8
0
0
POLYLINE
8
0
62
5
66
1
10
0
20
0
30
0
70
8
0
VERTEX
8
0
62
5
10
0.35355323
20
1.1752697
30
0
70
32
0
VERTEX
8
0
62
5
10
0.35355323
20
1.1752697
30
0
70
32
0
SEQEND
8
0
0
POLYLINE
8
0
62
5
66
1
10
0
20
0
30
0
70
8
0
VERTEX
8
0
62
5
10
0.42426391
20
1.1752697
30
0
70
32
0
VERTEX
8
0
62
5
10
0.42426391
20
1.1752697
30
0
70
32
0
SEQEND
8
0
0
POLYLINE
8
0
62
5
66
1
10
0
20
0
30
0
70
8
0
VERTEX
8
0
62
5
10
0.49497459
20
1.1752697
30
0
70
32
0
VERTEX
8
0
62
5
10
0.49497459
20
1.1752697
30
0
70
32
0
SEQEND
8
0
0
POLYLINE
8
0
62
5
66
1
10
0
20
0
30
0
70
8
0
VERTEX
8
0
62
5
10
0.35355323
20
1.1930222
30
0
70
32
0
VERTEX
8
0
62
5
10
0.35355323
20
1.1930222
30
0
70
32
0
SEQEND
8
0
0
POLYLINE
8
0
62
5
66
1
10
0
20
0
30
0
70
8
0
VERTEX
8
0
62
5
10
0.42426391
20
1.1930222
30
0
70
32
0
VERTEX
8
0
62
5
10
0.42426391
20
1.1930222
30
0
70
32
0
SEQEND
8
0
0
POLYLINE
8
0
62
5
66
1
10
0
20
0
30
0
70
8
0
VERTEX
8
0
62
5
10
0.49497459
20
1.1930222
30
0
70
32
0
VERTEX
8
0
62
5
10
0.49497459
20
1.1930222
30
0
70
32
0
SEQEND
8
0
0
POLYLINE
8
0
62
5
66
1
10
0
20
0
30
0
70
8
0
VERTEX
8
0
62
5
10
0.56568526
20
1.1930222
30
0
70
32
0
VERTEX
8
0
62
5
10
0.56568526
20
1.1930222
30
0
70
32
0
SEQEND
8
0
0
POLYLINE
8
0
62
5
66
1
10
0
20
0
30
0
70
8
0
VERTEX
8
0
62
5
10
-0.2121322
20
1.1752697
30
0
70
32
0
VERTEX
8
0
62
5
10
-0.2121322
20
1.1930222
30
0
70
32
0
SEQEND
8
0
0
POLYLINE
8
0
62
5
66
1
10
0
20
0
30
0
70
8
0
VERTEX
8
0
62
5
10
-0.14142152
20
1.1752697
30
0
70
32
0
VERTEX
8
0
62
5
10
-0.14142152
20
1.1930222
30
0
70
32
0
SEQEND
8
0
0
POLYLINE
8
0
62
5
66
1
10
0
20
0
30
0
70
8
0
VERTEX
8
0
62
5
10
-0.070710839
20
1.1752697
30
0
70
32
0
VERTEX
8
0
62
5
10
-0.070710839
20
1.1930222
30
0
70
32
0
SEQEND
8
0
0
POLYLINE
8
0
62
5
66
1
10
0
20
0
30
0
70
8
0
VERTEX
8
0
62
5
10
-1.607681e-07
20
1.1752697
30
0
70
32
0
VERTEX
8
0
62
5
10
-1.607681e-07
20
1.1930222
30
0
70
32
0
SEQEND
8
0
0
POLYLINE
8
0
62
5
66
1
10
0
20
0
30
0
70
8
0
VERTEX
8
0
62
5
10
-0.2121322
20
1.1752697
30
0
70
32
0
VERTEX
8
0
62
5
10
-0.2121322
20
1.1752697
30
0
70
32
0
SEQEND
8
0
0
POLYLINE
8
0
62
5
66
1
10
0
20
0
30
0
70
8
0
VERTEX
8
0
62
5
10
-0.14142152
20
1.1752697
30
0
70
32
0
VERTEX
8
0
62
5
10
-0.14142152
20
1.1752697
30
0
70
32
0
SEQEND
8
0
0
POLYLINE
8
0
62
5
66
1
10
0
20
0
30
0
70
8
0
VERTEX
8
0
62
5
10
-0.070710839
20
1.1752697
30
0
70
32
0
VERTEX
8
0
62
5
10
-0.070710839
20
1.1752697
30
0
70
32
0
SEQEND
8
0
0
POLYLINE
8
0
62
5
66
1
10
0
20
0
30
0
70
8
0
VERTEX
8
0
62
5
10
-0.2121322
20
1.1930222
30
0
70
32
0
VERTEX
8
0
62
5
10
-0.2121322
20
1.1930222
30
0
70
32
0
SEQEND
8
0
0
POLYLINE
8
0
62
5
66
1
10
0
20
0
30
0
70
8
0
VERTEX
8
0
62
5
10
-0.14142152
20
1.1930222
30
0
70
32
0
VERTEX
8
0
62
5
10
-0.14142152
20
1.1930222
30
0
70
32
0
SEQEND
8
0
0
POLYLINE
8
0
62
5
66
1
10
0
20
0
30
0
70
8
0
VERTEX
8
0
62
5
10
-0.070710839
20
1.1930222
30
0
70
32
0
VERTEX
8
0
62
5
10
-0.070710839
20
1.1930222
30
0
70
32
0
SEQEND
8
0
0
POLYLINE
8
0
62
5
66
1
10
0
20
0
30
0
70
8
0
VERTEX
8
0
62
5
10
-1.6076861e-07
20
1.1930222
30
0
70
32
0
VERTEX
8
0
62
5
10
-1.6076861e-07
20
1.1930222
30
0
70
32
0
SEQEND
8
0
0
POLYLINE
8
0
62
5
66
1
10
0
20
0
30
0
70
8
0
VERTEX
8
0
62
5
10
-1.6076861e-07
20
1.1930222
30
0
70
32
0
VERTEX
8
0
62
5
10
-1.6076861e-07
20
1.2640324
30
0
70
32
0
SEQEND
8
0
0
POLYLINE
8
0
62
5
66
1
10
0
20
0
30
0
70
8
0
VERTEX
8
0
62
5
10
0.28284255
20
1.1930222
30
0
70
32
0
VERTEX
8
0
62
5
10
0.28284255
20
1.2640324
30
0
70
32
0
SEQEND
8
0
0
POLYLINE
8
0
62
5
66
1
10
0
20
0
30
0
70
8
0
VERTEX
8
0
62
5
10
0.070710517
20
1.1930222
30
0
70
32
0
VERTEX
8
0
62
5
10
0.070710517
20
1.2640324
30
0
70
32
0
SEQEND
8
0
0
POLYLINE
8
0
62
5
66
1
10
0
20
0
30
0
70
8
0
VERTEX
8
0
62
5
10
0.1414212
20
1.1930222
30
0
70
32
0
VERTEX
8
0
62
5
10
0.1414212
20
1.2640324
30
0
70
32
0
SEQEND
8
0
0
POLYLINE
8
0
62
5
66
1
10
0
20
0
30
0
70
8
0
VERTEX
8
0
62
5
10
0.21213187
20
1.1930222
30
0
70
32
0
VERTEX
8
0
62
5
10
0.21213187
20
1.2640324
30
0
70
32
0
SEQEND
8
0
0
POLYLINE
8
0
62
5
66
1
10
0
20
0
30
0
70
8
0
VERTEX
8
0
62
5
10
0.56568526
20
1.1930222
30
0
70
32
0
VERTEX
8
0
62
5
10
0.56568526
20
1.2640324
30
0
70
32
0
SEQEND
8
0
0
POLYLINE
8
0
62
5
66
1
10
0
20
0
30
0
70
8
0
VERTEX
8
0
62
5
10
0.35355323
20
1.1930222
30
0
70
32
0
VERTEX
8
0
62
5
10
0.35355323
20
1.2640324
30
0
70
32
0
SEQEND
8
0
0
POLYLINE
8
0
62
5
66
1
10
0
20
0
30
0
70
8
0
VERTEX
8
0
62
5
10
0.42426391
20
1.1930222
30
0
70
32
0
VERTEX
8
0
62
5
10
0.42426391
20
1.2640324
30
0
70
32
0
SEQEND
8
0
0
POLYLINE
8
0
62
5
66
1
10
0
20
0
30
0
70
8
0
VERTEX
8
0
62
5
10
0.49497459
20
1.1930222
30
0
70
32
0
VERTEX
8
0
62
5
10
0.49497459
20
1.2640324
30
0
70
32
0
SEQEND
8
0
0
POLYLINE
8
0
62
5
66
1
10
0
20
0
30
0
70
8
0
VERTEX
8
0
62
5
10
-0.28284287
20
1.1930222
30
0
70
32
0
VERTEX
8
0
62
5
10
-0.28284287
20
1.2640324
30
0
70
32
0
SEQEND
8
0
0
POLYLINE
8
0
62
5
66
1
10
0
20
0
30
0
70
8
0
VERTEX
8
0
62
5
10
-0.2121322
20
1.1930222
30
0
70
32
0
VERTEX
8
0
62
5
10
-0.2121322
20
1.2640324
30
0
70
32
0
SEQEND
8
0
0
POLYLINE
8
0
62
5
66
1
10
0
20
0
30
0
70
8
0
VERTEX
8
0
62
5
10
-0.14142152
20
1.1930222
30
0
70
32
0
VERTEX
8
0
62
5
10
-0.14142152
20
1.2640324
30
0
70
32
0
SEQEND
8
0
0
POLYLINE
8
0
62
5
66
1
10
0
20
0
30
0
70
8
0
VERTEX
8
0
62
5
10
-0.070710839
20
1.1930222
30
0
70
32
0
VERTEX
8
0
62
5
10
-0.070710839
20
1.2640324
30
0
70
32
0
SEQEND
8
0
0
POLYLINE
8
0
62
5
66
1
10
0
20
0
30
0
70
8
0
VERTEX
8
0
62
5
10
-1.6076861e-07
20
1.2640324
30
0
70
32
0
VERTEX
8
0
62
5
10
-1.6076861e-07
20
1.4054538
30
0
70
32
0
SEQEND
8
0
0
POLYLINE
8
0
62
5
66
1
10
0
20
0
30
0
70
8
0
VERTEX
8
0
62
5
10
0.28284255
20
1.4054538
30
0
70
32
0
VERTEX
8
0
62
5
10
0.28284255
20
1.2640324
30
0
70
32
0
SEQEND
8
0
0
POLYLINE
8
0
62
5
66
1
10
0
20
0
30
0
70
8
0
VERTEX
8
0
62
5
10
-1.6076861e-07
20
1.2640324
30
0
70
32
0
VERTEX
8
0
62
5
10
0.28284255
20
1.2640324
30
0
70
32
0
SEQEND
8
0
0
POLYLINE
8
0
62
5
66
1
10
0
20
0
30
0
70
8
0
VERTEX
8
0
62
5
10
-1.6076861e-07
20
1.4054538
30
0
70
32
0
VERTEX
8
0
62
5
10
0.28284255
20
1.4054538
30
0
70
32
0
SEQEND
8
0
0
POLYLINE
8
0
62
5
66
1
10
0
20
0
30
0
70
8
0
VERTEX
8
0
62
5
10
0.070710517
20
1.2640324
30
0
70
32
0
VERTEX
8
0
62
5
10
0.070710517
20
1.2640324
30
0
70
32
0
SEQEND
8
0
0
POLYLINE
8
0
62
5
66
1
10
0
20
0
30
0
70
8
0
VERTEX
8
0
62
5
10
0.1414212
20
1.2640324
30
0
70
32
0
VERTEX
8
0
62
5
10
0.1414212
20
1.2640324
30
0
70
32
0
SEQEND
8
0
0
POLYLINE
8
0
62
5
66
1
10
0
20
0
30
0
70
8
0
VERTEX
8
0
62
5
10
0.21213187
20
1.2640324
30
0
70
32
0
VERTEX
8
0
62
5
10
0.21213187
20
1.2640324
30
0
70
32
0
SEQEND
8
0
0
POLYLINE
8
0
62
5
66
1
10
0
20
0
30
0
70
8
0
VERTEX
8
0
62
5
10
0.070710517
20
1.4054538
30
0
70
32
0
VERTEX
8
0
62
5
10
0.070710517
20
1.4054538
30
0
70
32
0
SEQEND
8
0
0
POLYLINE
8
0
62
5
66
1
10
0
20
0
30
0
70
8
0
VERTEX
8
0
62
5
10
0.1414212
20
1.4054538
30
0
70
32
0
VERTEX
8
0
62
5
10
0.1414212
20
1.4054538
30
0
70
32
0
SEQEND
8
0
0
POLYLINE
8
0
62
5
66
1
10
0
20
0
30
0
70
8
0
VERTEX
8
0
62
5
10
0.21213187
20
1.4054538
30
0
70
32
0
VERTEX
8
0
62
5
10
0.21213187
20
1.4054538
30
0
70
32
0
SEQEND
8
0
0
POLYLINE
8
0
62
30
66
1
10
0
20
0
30
0
70
8
0
VERTEX
8
0
62
30
10
-1.6076861e-07
20
1.4054538
30
0
70
32
0
VERTEX
8
0
62
30
10
0.070710517
20
1.2640324
30
0
70
32
0
SEQEND
8
0
0
POLYLINE
8
0
62
30
66
1
10
0
20
0
30
0
70
8
0
VERTEX
8
0
62
30
10
0.070710517
20
1.4054538
30
0
70
32
0
VERTEX
8
0
62
30
10
-1.6076861e-07
20
1.2640324
30
0
70
32
0
SEQEND
8
0
0
POLYLINE
8
0
62
30
66
1
10
0
20
0
30
0
70
8
0
VERTEX
8
0
62
30
10
0.1414212
20
1.4054538
30
0
70
32
0
VERTEX
8
0
62
30
10
0.21213187
20
1.2640324
30
0
70
32
0
SEQEND
8
0
0
POLYLINE
8
0
62
30
66
1
10
0
20
0
30
0
70
8
0
VERTEX
8
0
62
30
10
0.21213187
20
1.4054538
30
0
70
32
0
VERTEX
8
0
62
30
10
0.1414212
20
1.2640324
30
0
70
32
0
SEQEND
8
0
0
POLYLINE
8
0
62
30
66
1
10
0
20
0
30
0
70
8
0
VERTEX
8
0
62
30
10
0.070710517
20
1.3347431
30
0
70
32
0
VERTEX
8
0
62
30
10
0.1414212
20
1.3347431
30
0
70
32
0
SEQEND
8
0
0
POLYLINE
8
0
62
30
66
1
10
0
20
0
30
0
70
8
0
VERTEX
8
0
62
30
10
0.21213187
20
1.3347431
30
0
70
32
0
VERTEX
8
0
62
30
10
0.28284255
20
1.3347431
30
0
70
32
0
SEQEND
8
0
0
POLYLINE
8
0
62
5
66
1
10
0
20
0
30
0
70
8
0
VERTEX
8
0
62
5
10
-1.6076861e-07
20
1.3347431
30
0
70
32
0
VERTEX
8
0
62
5
10
0.035355178
20
1.3347431
30
0
70
32
0
SEQEND
8
0
0
POLYLINE
8
0
62
5
66
1
10
0
20
0
30
0
70
8
0
VERTEX
8
0
62
5
10
0.1414212
20
1.3347431
30
0
70
32
0
VERTEX
8
0
62
5
10
0.17677653
20
1.3347431
30
0
70
32
0
SEQEND
8
0
0
POLYLINE
8
0
62
5
66
1
10
0
20
0
30
0
70
8
0
VERTEX
8
0
62
5
10
0.035355178
20
1.3347431
30
0
70
32
0
VERTEX
8
0
62
5
10
0.070710517
20
1.3347431
30
0
70
32
0
SEQEND
8
0
0
POLYLINE
8
0
62
5
66
1
10
0
20
0
30
0
70
8
0
VERTEX
8
0
62
5
10
0.17677653
20
1.3347431
30
0
70
32
0
VERTEX
8
0
62
5
10
0.21213187
20
1.3347431
30
0
70
32
0
SEQEND
8
0
0
POLYLINE
8
0
62
5
66
1
10
0
20
0
30
0
70
8
0
VERTEX
8
0
62
5
10
0.070710517
20
1.2640324
30
0
70
32
0
VERTEX
8
0
62
5
10
0.070710517
20
1.4054538
30
0
70
32
0
SEQEND
8
0
0
POLYLINE
8
0
62
5
66
1
10
0
20
0
30
0
70
8
0
VERTEX
8
0
62
5
10
0.1414212
20
1.2640324
30
0
70
32
0
VERTEX
8
0
62
5
10
0.1414212
20
1.4054538
30
0
70
32
0
SEQEND
8
0
0
POLYLINE
8
0
62
5
66
1
10
0
20
0
30
0
70
8
0
VERTEX
8
0
62
5
10
0.21213187
20
1.2640324
30
0
70
32
0
VERTEX
8
0
62
5
10
0.21213187
20
1.4054538
30
0
70
32
0
SEQEND
8
0
0
POLYLINE
8
0
62
5
66
1
10
0
20
0
30
0
70
8
0
VERTEX
8
0
62
5
10
-1.6076861e-07
20
1.2640324
30
0
70
32
0
VERTEX
8
0
62
5
10
-1.6076861e-07
20
1.4054538
30
0
70
32
0
SEQEND
8
0
0
POLYLINE
8
0
62
5
66
1
10
0
20
0
30
0
70
8
0
VERTEX
8
0
62
5
10
0.011784952
20
1.3818836
30
0
70
32
0
VERTEX
8
0
62
5
10
0.011784952
20
1.2876027
30
0
70
32
0
VERTEX
8
0
62
5
10
0.058925404
20
1.2876027
30
0
70
32
0
VERTEX
8
0
62
5
10
0.058925404
20
1.3818836
30
0
70
32
0
VERTEX
8
0
62
5
10
0.011784952
20
1.3818836
30
0
70
32
0
SEQEND
8
0
0
POLYLINE
8
0
62
5
66
1
10
0
20
0
30
0
70
8
0
VERTEX
8
0
62
5
10
0.023570065
20
1.3583133
30
0
70
32
0
VERTEX
8
0
62
5
10
0.023570065
20
1.3111729
30
0
70
32
0
VERTEX
8
0
62
5
10
0.047140291
20
1.3111729
30
0
70
32
0
VERTEX
8
0
62
5
10
0.047140291
20
1.3583133
30
0
70
32
0
VERTEX
8
0
62
5
10
0.023570065
20
1.3583133
30
0
70
32
0
SEQEND
8
0
0
POLYLINE
8
0
62
5
66
1
10
0
20
0
30
0
70
8
0
VERTEX
8
0
62
5
10
0.15320631
20
1.3818836
30
0
70
32
0
VERTEX
8
0
62
5
10
0.15320631
20
1.2876027
30
0
70
32
0
VERTEX
8
0
62
5
10
0.20034676
20
1.2876027
30
0
70
32
0
VERTEX
8
0
62
5
10
0.20034676
20
1.3818836
30
0
70
32
0
VERTEX
8
0
62
5
10
0.15320631
20
1.3818836
30
0
70
32
0
SEQEND
8
0
0
POLYLINE
8
0
62
5
66
1
10
0
20
0
30
0
70
8
0
VERTEX
8
0
62
5
10
0.16499142
20
1.3583133
30
0
70
32
0
VERTEX
8
0
62
5
10
0.16499142
20
1.3111729
30
0
70
32
0
VERTEX
8
0
62
5
10
0.18856165
20
1.3111729
30
0
70
32
0
VERTEX
8
0
62
5
10
0.18856165
20
1.3583133
30
0
70
32
0
VERTEX
8
0
62
5
10
0.16499142
20
1.3583133
30
0
70
32
0
SEQEND
8
0
0
POLYLINE
8
0
62
5
66
1
10
0
20
0
30
0
70
8
0
VERTEX
8
0
62
5
10
0.56568526
20
1.4054538
30
0
70
32
0
VERTEX
8
0
62
5
10
0.56568526
20
1.2640324
30
0
70
32
0
SEQEND
8
0
0
POLYLINE
8
0
62
5
66
1
10
0
20
0
30
0
70
8
0
VERTEX
8
0
62
5
10
0.28284255
20
1.2640324
30
0
70
32
0
VERTEX
8
0
62
5
10
0.56568526
20
1.2640324
30
0
70
32
0
SEQEND
8
0
0
POLYLINE
8
0
62
5
66
1
10
0
20
0
30
0
70
8
0
VERTEX
8
0
62
5
10
0.28284255
20
1.4054538
30
0
70
32
0
VERTEX
8
0
62
5
10
0.56568526
20
1.4054538
30
0
70
32
0
SEQEND
8
0
0
POLYLINE
8
0
62
5
66
1
10
0
20
0
30
0
70
8
0
VERTEX
8
0
62
5
10
0.35355323
20
1.2640324
30
0
70
32
0
VERTEX
8
0
62
5
10
0.35355323
20
1.2640324
30
0
70
32
0
SEQEND
8
0
0
POLYLINE
8
0
62
5
66
1
10
0
20
0
30
0
70
8
0
VERTEX
8
0
62
5
10
0.42426391
20
1.2640324
30
0
70
32
0
VERTEX
8
0
62
5
10
0.42426391
20
1.2640324
30
0
70
32
0
SEQEND
8
0
0
POLYLINE
8
0
62
5
66
1
10
0
20
0
30
0
70
8
0
VERTEX
8
0
62
5
10
0.49497459
20
1.2640324
30
0
70
32
0
VERTEX
8
0
62
5
10
0.49497459
20
1.2640324
30
0
70
32
0
SEQEND
8
0
0
POLYLINE
8
0
62
5
66
1
10
0
20
0
30
0
70
8
0
VERTEX
8
0
62
5
10
0.35355323
20
1.4054538
30
0
70
32
0
VERTEX
8
0
62
5
10
0.35355323
20
1.4054538
30
0
70
32
0
SEQEND
8
0
0
POLYLINE
8
0
62
5
66
1
10
0
20
0
30
0
70
8
0
VERTEX
8
0
62
5
10
0.42426391
20
1.4054538
30
0
70
32
0
VERTEX
8
0
62
5
10
0.42426391
20
1.4054538
30
0
70
32
0
SEQEND
8
0
0
POLYLINE
8
0
62
5
66
1
10
0
20
0
30
0
70
8
0
VERTEX
8
0
62
5
10
0.49497459
20
1.4054538
30
0
70
32
0
VERTEX
8
0
62
5
10
0.49497459
20
1.4054538
30
0
70
32
0
SEQEND
8
0
0
POLYLINE
8
0
62
30
66
1
10
0
20
0
30
0
70
8
0
VERTEX
8
0
62
30
10
0.28284255
20
1.4054538
30
0
70
32
0
VERTEX
8
0
62
30
10
0.35355323
20
1.2640324
30
0
70
32
0
SEQEND
8
0
0
POLYLINE
8
0
62
30
66
1
10
0
20
0
30
0
70
8
0
VERTEX
8
0
62
30
10
0.35355323
20
1.4054538
30
0
70
32
0
VERTEX
8
0
62
30
10
0.28284255
20
1.2640324
30
0
70
32
0
SEQEND
8
0
0
POLYLINE
8
0
62
30
66
1
10
0
20
0
30
0
70
8
0
VERTEX
8
0
62
30
10
0.42426391
20
1.4054538
30
0
70
32
0
VERTEX
8
0
62
30
10
0.49497459
20
1.2640324
30
0
70
32
0
SEQEND
8
0
0
POLYLINE
8
0
62
30
66
1
10
0
20
0
30
0
70
8
0
VERTEX
8
0
62
30
10
0.49497459
20
1.4054538
30
0
70
32
0
VERTEX
8
0
62
30
10
0.42426391
20
1.2640324
30
0
70
32
0
SEQEND
8
0
0
POLYLINE
8
0
62
30
66
1
10
0
20
0
30
0
70
8
0
VERTEX
8
0
62
30
10
0.35355323
20
1.3347431
30
0
70
32
0
VERTEX
8
0
62
30
10
0.42426391
20
1.3347431
30
0
70
32
0
SEQEND
8
0
0
POLYLINE
8
0
62
30
66
1
10
0
20
0
30
0
70
8
0
VERTEX
8
0
62
30
10
0.49497459
20
1.3347431
30
0
70
32
0
VERTEX
8
0
62
30
10
0.56568526
20
1.3347431
30
0
70
32
0
SEQEND
8
0
0
POLYLINE
8
0
62
5
66
1
10
0
20
0
30
0
70
8
0
VERTEX
8
0
62
5
10
0.28284255
20
1.3347431
30
0
70
32
0
VERTEX
8
0
62
5
10
0.31819789
20
1.3347431
30
0
70
32
0
SEQEND
8
0
0
POLYLINE
8
0
62
5
66
1
10
0
20
0
30
0
70
8
0
VERTEX
8
0
62
5
10
0.42426391
20
1.3347431
30
0
70
32
0
VERTEX
8
0
62
5
10
0.45961925
20
1.3347431
30
0
70
32
0
SEQEND
8
0
0
POLYLINE
8
0
62
5
66
1
10
0
20
0
30
0
70
8
0
VERTEX
8
0
62
5
10
0.31819789
20
1.3347431
30
0
70
32
0
VERTEX
8
0
62
5
10
0.35355323
20
1.3347431
30
0
70
32
0
SEQEND
8
0
0
POLYLINE
8
0
62
5
66
1
10
0
20
0
30
0
70
8
0
VERTEX
8
0
62
5
10
0.45961925
20
1.3347431
30
0
70
32
0
VERTEX
8
0
62
5
10
0.49497459
20
1.3347431
30
0
70
32
0
SEQEND
8
0
0
POLYLINE
8
0
62
5
66
1
10
0
20
0
30
0
70
8
0
VERTEX
8
0
62
5
10
0.35355323
20
1.2640324
30
0
70
32
0
VERTEX
8
0
62
5
10
0.35355323
20
1.4054538
30
0
70
32
0
SEQEND
8
0
0
POLYLINE
8
0
62
5
66
1
10
0
20
0
30
0
70
8
0
VERTEX
8
0
62
5
10
0.42426391
20
1.2640324
30
0
70
32
0
VERTEX
8
0
62
5
10
0.42426391
20
1.4054538
30
0
70
32
0
SEQEND
8
0
0
POLYLINE
8
0
62
5
66
1
10
0
20
0
30
0
70
8
0
VERTEX
8
0
62
5
10
0.49497459
20
1.2640324
30
0
70
32
0
VERTEX
8
0
62
5
10
0.49497459
20
1.4054538
30
0
70
32
0
SEQEND
8
0
0
POLYLINE
8
0
62
5
66
1
10
0
20
0
30
0
70
8
0
VERTEX
8
0
62
5
10
0.28284255
20
1.2640324
30
0
70
32
0
VERTEX
8
0
62
5
10
0.28284255
20
1.4054538
30
0
70
32
0
SEQEND
8
0
0
POLYLINE
8
0
62
5
66
1
10
0
20
0
30
0
70
8
0
VERTEX
8
0
62
5
10
0.29462766
20
1.3818836
30
0
70
32
0
VERTEX
8
0
62
5
10
0.29462766
20
1.2876027
30
0
70
32
0
VERTEX
8
0
62
5
10
0.34176812
20
1.2876027
30
0
70
32
0
VERTEX
8
0
62
5
10
0.34176812
20
1.3818836
30
0
70
32
0
VERTEX
8
0
62
5
10
0.29462766
20
1.3818836
30
0
70
32
0
SEQEND
8
0
0
POLYLINE
8
0
62
5
66
1
10
0
20
0
30
0
70
8
0
VERTEX
8
0
62
5
10
0.30641278
20
1.3583133
30
0
70
32
0
VERTEX
8
0
62
5
10
0.30641278
20
1.3111729
30
0
70
32
0
VERTEX
8
0
62
5
10
0.329983
20
1.3111729
30
0
70
32
0
VERTEX
8
0
62
5
10
0.329983
20
1.3583133
30
0
70
32
0
VERTEX
8
0
62
5
10
0.30641278
20
1.3583133
30
0
70
32
0
SEQEND
8
0
0
POLYLINE
8
0
62
5
66
1
10
0
20
0
30
0
70
8
0
VERTEX
8
0
62
5
10
0.43604902
20
1.3818836
30
0
70
32
0
VERTEX
8
0
62
5
10
0.43604902
20
1.2876027
30
0
70
32
0
VERTEX
8
0
62
5
10
0.48318947
20
1.2876027
30
0
70
32
0
VERTEX
8
0
62
5
10
0.48318947
20
1.3818836
30
0
70
32
0
VERTEX
8
0
62
5
10
0.43604902
20
1.3818836
30
0
70
32
0
SEQEND
8
0
0
POLYLINE
8
0
62
5
66
1
10
0
20
0
30
0
70
8
0
VERTEX
8
0
62
5
10
0.44783413
20
1.3583133
30
0
70
32
0
VERTEX
8
0
62
5
10
0.44783413
20
1.3111729
30
0
70
32
0
VERTEX
8
0
62
5
10
0.47140436
20
1.3111729
30
0
70
32
0
VERTEX
8
0
62
5
10
0.47140436
20
1.3583133
30
0
70
32
0
VERTEX
8
0
62
5
10
0.44783413
20
1.3583133
30
0
70
32
0
SEQEND
8
0
0
POLYLINE
8
0
62
5
66
1
10
0
20
0
30
0
70
8
0
VERTEX
8
0
62
5
10
-0.28284287
20
1.2640324
30
0
70
32
0
VERTEX
8
0
62
5
10
-0.28284287
20
1.4054538
30
0
70
32
0
SEQEND
8
0
0
POLYLINE
8
0
62
5
66
1
10
0
20
0
30
0
70
8
0
VERTEX
8
0
62
5
10
-0.28284287
20
1.2640324
30
0
70
32
0
VERTEX
8
0
62
5
10
-1.6076861e-07
20
1.2640324
30
0
70
32
0
SEQEND
8
0
0
POLYLINE
8
0
62
5
66
1
10
0
20
0
30
0
70
8
0
VERTEX
8
0
62
5
10
-0.28284287
20
1.4054538
30
0
70
32
0
VERTEX
8
0
62
5
10
-1.6076861e-07
20
1.4054538
30
0
70
32
0
SEQEND
8
0
0
POLYLINE
8
0
62
5
66
1
10
0
20
0
30
0
70
8
0
VERTEX
8
0
62
5
10
-0.2121322
20
1.2640324
30
0
70
32
0
VERTEX
8
0
62
5
10
-0.2121322
20
1.2640324
30
0
70
32
0
SEQEND
8
0
0
POLYLINE
8
0
62
5
66
1
10
0
20
0
30
0
70
8
0
VERTEX
8
0
62
5
10
-0.14142152
20
1.2640324
30
0
70
32
0
VERTEX
8
0
62
5
10
-0.14142152
20
1.2640324
30
0
70
32
0
SEQEND
8
0
0
POLYLINE
8
0
62
5
66
1
10
0
20
0
30
0
70
8
0
VERTEX
8
0
62
5
10
-0.070710839
20
1.2640324
30
0
70
32
0
VERTEX
8
0
62
5
10
-0.070710839
20
1.2640324
30
0
70
32
0
SEQEND
8
0
0
POLYLINE
8
0
62
5
66
1
10
0
20
0
30
0
70
8
0
VERTEX
8
0
62
5
10
-0.2121322
20
1.4054538
30
0
70
32
0
VERTEX
8
0
62
5
10
-0.2121322
20
1.4054538
30
0
70
32
0
SEQEND
8
0
0
POLYLINE
8
0
62
5
66
1
10
0
20
0
30
0
70
8
0
VERTEX
8
0
62
5
10
-0.14142152
20
1.4054538
30
0
70
32
0
VERTEX
8
0
62
5
10
-0.14142152
20
1.4054538
30
0
70
32
0
SEQEND
8
0
0
POLYLINE
8
0
62
5
66
1
10
0
20
0
30
0
70
8
0
VERTEX
8
0
62
5
10
-0.070710839
20
1.4054538
30
0
70
32
0
VERTEX
8
0
62
5
10
-0.070710839
20
1.4054538
30
0
70
32
0
SEQEND
8
0
0
POLYLINE
8
0
62
30
66
1
10
0
20
0
30
0
70
8
0
VERTEX
8
0
62
30
10
-0.28284287
20
1.4054538
30
0
70
32
0
VERTEX
8
0
62
30
10
-0.2121322
20
1.2640324
30
0
70
32
0
SEQEND
8
0
0
POLYLINE
8
0
62
30
66
1
10
0
20
0
30
0
70
8
0
VERTEX
8
0
62
30
10
-0.2121322
20
1.4054538
30
0
70
32
0
VERTEX
8
0
62
30
10
-0.28284287
20
1.2640324
30
0
70
32
0
SEQEND
8
0
0
POLYLINE
8
0
62
30
66
1
10
0
20
0
30
0
70
8
0
VERTEX
8
0
62
30
10
-0.14142152
20
1.4054538
30
0
70
32
0
VERTEX
8
0
62
30
10
-0.070710839
20
1.2640324
30
0
70
32
0
SEQEND
8
0
0
POLYLINE
8
0
62
30
66
1
10
0
20
0
30
0
70
8
0
VERTEX
8
0
62
30
10
-0.070710839
20
1.4054538
30
0
70
32
0
VERTEX
8
0
62
30
10
-0.14142152
20
1.2640324
30
0
70
32
0
SEQEND
8
0
0
POLYLINE
8
0
62
30
66
1
10
0
20
0
30
0
70
8
0
VERTEX
8
0
62
30
10
-0.2121322
20
1.3347431
30
0
70
32
0
VERTEX
8
0
62
30
10
-0.14142152
20
1.3347431
30
0
70
32
0
SEQEND
8
0
0
POLYLINE
8
0
62
30
66
1
10
0
20
0
30
0
70
8
0
VERTEX
8
0
62
30
10
-0.070710839
20
1.3347431
30
0
70
32
0
VERTEX
8
0
62
30
10
-1.6076861e-07
20
1.3347431
30
0
70
32
0
SEQEND
8
0
0
POLYLINE
8
0
62
5
66
1
10
0
20
0
30
0
70
8
0
VERTEX
8
0
62
5
10
-0.28284287
20
1.3347431
30
0
70
32
0
VERTEX
8
0
62
5
10
-0.24748753
20
1.3347431
30
0
70
32
0
SEQEND
8
0
0
POLYLINE
8
0
62
5
66
1
10
0
20
0
30
0
70
8
0
VERTEX
8
0
62
5
10
-0.14142152
20
1.3347431
30
0
70
32
0
VERTEX
8
0
62
5
10
-0.10606618
20
1.3347431
30
0
70
32
0
SEQEND
8
0
0
POLYLINE
8
0
62
5
66
1
10
0
20
0
30
0
70
8
0
VERTEX
8
0
62
5
10
-0.24748753
20
1.3347431
30
0
70
32
0
VERTEX
8
0
62
5
10
-0.2121322
20
1.3347431
30
0
70
32
0
SEQEND
8
0
0
POLYLINE
8
0
62
5
66
1
10
0
20
0
30
0
70
8
0
VERTEX
8
0
62
5
10
-0.10606618
20
1.3347431
30
0
70
32
0
VERTEX
8
0
62
5
10
-0.070710839
20
1.3347431
30
0
70
32
0
SEQEND
8
0
0
POLYLINE
8
0
62
5
66
1
10
0
20
0
30
0
70
8
0
VERTEX
8
0
62
5
10
-0.2121322
20
1.2640324
30
0
70
32
0
VERTEX
8
0
62
5
10
-0.2121322
20
1.4054538
30
0
70
32
0
SEQEND
8
0
0
POLYLINE
8
0
62
5
66
1
10
0
20
0
30
0
70
8
0
VERTEX
8
0
62
5
10
-0.14142152
20
1.2640324
30
0
70
32
0
VERTEX
8
0
62
5
10
-0.14142152
20
1.4054538
30
0
70
32
0
SEQEND
8
0
0
POLYLINE
8
0
62
5
66
1
10
0
20
0
30
0
70
8
0
VERTEX
8
0
62
5
10
-0.070710839
20
1.2640324
30
0
70
32
0
VERTEX
8
0
62
5
10
-0.070710839
20
1.4054538
30
0
70
32
0
SEQEND
8
0
0
POLYLINE
8
0
62
5
66
1
10
0
20
0
30
0
70
8
0
VERTEX
8
0
62
5
10
-0.28284287
20
1.2640324
30
0
70
32
0
VERTEX
8
0
62
5
10
-0.28284287
20
1.4054538
30
0
70
32
0
SEQEND
8
0
0
POLYLINE
8
0
62
5
66
1
10
0
20
0
30
0
70
8
0
VERTEX
8
0
62
5
10
-0.27105776
20
1.3818836
30
0
70
32
0
VERTEX
8
0
62
5
10
-0.27105776
20
1.2876027
30
0
70
32
0
VERTEX
8
0
62
5
10
-0.22391731
20
1.2876027
30
0
70
32
0
VERTEX
8
0
62
5
10
-0.22391731
20
1.3818836
30
0
70
32
0
VERTEX
8
0
62
5
10
-0.27105776
20
1.3818836
30
0
70
32
0
SEQEND
8
0
0
POLYLINE
8
0
62
5
66
1
10
0
20
0
30
0
70
8
0
VERTEX
8
0
62
5
10
-0.25927265
20
1.3583133
30
0
70
32
0
VERTEX
8
0
62
5
10
-0.25927265
20
1.3111729
30
0
70
32
0
VERTEX
8
0
62
5
10
-0.23570242
20
1.3111729
30
0
70
32
0
VERTEX
8
0
62
5
10
-0.23570242
20
1.3583133
30
0
70
32
0
VERTEX
8
0
62
5
10
-0.25927265
20
1.3583133
30
0
70
32
0
SEQEND
8
0
0
POLYLINE
8
0
62
5
66
1
10
0
20
0
30
0
70
8
0
VERTEX
8
0
62
5
10
-0.1296364
20
1.3818836
30
0
70
32
0
VERTEX
8
0
62
5
10
-0.1296364
20
1.2876027
30
0
70
32
0
VERTEX
8
0
62
5
10
-0.082495952
20
1.2876027
30
0
70
32
0
VERTEX
8
0
62
5
10
-0.082495952
20
1.3818836
30
0
70
32
0
VERTEX
8
0
62
5
10
-0.1296364
20
1.3818836
30
0
70
32
0
SEQEND
8
0
0
POLYLINE
8
0
62
5
66
1
10
0
20
0
30
0
70
8
0
VERTEX
8
0
62
5
10
-0.11785129
20
1.3583133
30
0
70
32
0
VERTEX
8
0
62
5
10
-0.11785129
20
1.3111729
30
0
70
32
0
VERTEX
8
0
62
5
10
-0.094281065
20
1.3111729
30
0
70
32
0
VERTEX
8
0
62
5
10
-0.094281065
20
1.3583133
30
0
70
32
0
VERTEX
8
0
62
5
10
-0.11785129
20
1.3583133
30
0
70
32
0
SEQEND
8
0
0
POLYLINE
8
0
62
5
66
1
10
0
20
0
30
0
70
8
0
VERTEX
8
0
62
5
10
-1.6076861e-07
20
1.4054538
30
0
70
32
0
VERTEX
8
0
62
5
10
-1.6076861e-07
20
1.4408466
30
0
70
32
0
SEQEND
8
0
0
POLYLINE
8
0
62
5
66
1
10
0
20
0
30
0
70
8
0
VERTEX
8
0
62
5
10
0.070710517
20
1.4054538
30
0
70
32
0
VERTEX
8
0
62
5
10
0.070710517
20
1.4408466
30
0
70
32
0
SEQEND
8
0
0
POLYLINE
8
0
62
5
66
1
10
0
20
0
30
0
70
8
0
VERTEX
8
0
62
5
10
0.1414212
20
1.4054538
30
0
70
32
0
VERTEX
8
0
62
5
10
0.1414212
20
1.4408466
30
0
70
32
0
SEQEND
8
0
0
POLYLINE
8
0
62
5
66
1
10
0
20
0
30
0
70
8
0
VERTEX
8
0
62
5
10
0.21213187
20
1.4054538
30
0
70
32
0
VERTEX
8
0
62
5
10
0.21213187
20
1.4408466
30
0
70
32
0
SEQEND
8
0
0
POLYLINE
8
0
62
5
66
1
10
0
20
0
30
0
70
8
0
VERTEX
8
0
62
5
10
0.28284255
20
1.4054538
30
0
70
32
0
VERTEX
8
0
62
5
10
0.28284255
20
1.4408466
30
0
70
32
0
SEQEND
8
0
0
POLYLINE
8
0
62
5
66
1
10
0
20
0
30
0
70
8
0
VERTEX
8
0
62
5
10
0.070710517
20
1.4054538
30
0
70
32
0
VERTEX
8
0
62
5
10
0.070710517
20
1.4054538
30
0
70
32
0
SEQEND
8
0
0
POLYLINE
8
0
62
5
66
1
10
0
20
0
30
0
70
8
0
VERTEX
8
0
62
5
10
0.1414212
20
1.4054538
30
0
70
32
0
VERTEX
8
0
62
5
10
0.1414212
20
1.4054538
30
0
70
32
0
SEQEND
8
0
0
POLYLINE
8
0
62
5
66
1
10
0
20
0
30
0
70
8
0
VERTEX
8
0
62
5
10
0.21213187
20
1.4054538
30
0
70
32
0
VERTEX
8
0
62
5
10
0.21213187
20
1.4054538
30
0
70
32
0
SEQEND
8
0
0
POLYLINE
8
0
62
5
66
1
10
0
20
0
30
0
70
8
0
VERTEX
8
0
62
5
10
0.070710517
20
1.4408466
30
0
70
32
0
VERTEX
8
0
62
5
10
0.070710517
20
1.4408466
30
0
70
32
0
SEQEND
8
0
0
POLYLINE
8
0
62
5
66
1
10
0
20
0
30
0
70
8
0
VERTEX
8
0
62
5
10
0.1414212
20
1.4408466
30
0
70
32
0
VERTEX
8
0
62
5
10
0.1414212
20
1.4408466
30
0
70
32
0
SEQEND
8
0
0
POLYLINE
8
0
62
5
66
1
10
0
20
0
30
0
70
8
0
VERTEX
8
0
62
5
10
0.21213187
20
1.4408466
30
0
70
32
0
VERTEX
8
0
62
5
10
0.21213187
20
1.4408466
30
0
70
32
0
SEQEND
8
0
0
POLYLINE
8
0
62
5
66
1
10
0
20
0
30
0
70
8
0
VERTEX
8
0
62
5
10
0.28284255
20
1.4408466
30
0
70
32
0
VERTEX
8
0
62
5
10
0.28284255
20
1.4408466
30
0
70
32
0
SEQEND
8
0
0
POLYLINE
8
0
62
5
66
1
10
0
20
0
30
0
70
8
0
VERTEX
8
0
62
5
10
0.35355323
20
1.4054538
30
0
70
32
0
VERTEX
8
0
62
5
10
0.35355323
20
1.4408466
30
0
70
32
0
SEQEND
8
0
0
POLYLINE
8
0
62
5
66
1
10
0
20
0
30
0
70
8
0
VERTEX
8
0
62
5
10
0.42426391
20
1.4054538
30
0
70
32
0
VERTEX
8
0
62
5
10
0.42426391
20
1.4408466
30
0
70
32
0
SEQEND
8
0
0
POLYLINE
8
0
62
5
66
1
10
0
20
0
30
0
70
8
0
VERTEX
8
0
62
5
10
0.49497459
20
1.4054538
30
0
70
32
0
VERTEX
8
0
62
5
10
0.49497459
20
1.4408466
30
0
70
32
0
SEQEND
8
0
0
POLYLINE
8
0
62
5
66
1
10
0
20
0
30
0
70
8
0
VERTEX
8
0
62
5
10
0.56568526
20
1.4054538
30
0
70
32
0
VERTEX
8
0
62
5
10
0.56568526
20
1.4408466
30
0
70
32
0
SEQEND
8
0
0
POLYLINE
8
0
62
5
66
1
10
0
20
0
30
0
70
8
0
VERTEX
8
0
62
5
10
0.35355323
20
1.4054538
30
0
70
32
0
VERTEX
8
0
62
5
10
0.35355323
20
1.4054538
30
0
70
32
0
SEQEND
8
0
0
POLYLINE
8
0
62
5
66
1
10
0
20
0
30
0
70
8
0
VERTEX
8
0
62
5
10
0.42426391
20
1.4054538
30
0
70
32
0
VERTEX
8
0
62
5
10
0.42426391
20
1.4054538
30
0
70
32
0
SEQEND
8
0
0
POLYLINE
8
0
62
5
66
1
10
0
20
0
30
0
70
8
0
VERTEX
8
0
62
5
10
0.49497459
20
1.4054538
30
0
70
32
0
VERTEX
8
0
62
5
10
0.49497459
20
1.4054538
30
0
70
32
0
SEQEND
8
0
0
POLYLINE
8
0
62
5
66
1
10
0
20
0
30
0
70
8
0
VERTEX
8
0
62
5
10
0.35355323
20
1.4408466
30
0
70
32
0
VERTEX
8
0
62
5
10
0.35355323
20
1.4408466
30
0
70
32
0
SEQEND
8
0
0
POLYLINE
8
0
62
5
66
1
10
0
20
0
30
0
70
8
0
VERTEX
8
0
62
5
10
0.42426391
20
1.4408466
30
0
70
32
0
VERTEX
8
0
62
5
10
0.42426391
20
1.4408466
30
0
70
32
0
SEQEND
8
0
0
POLYLINE
8
0
62
5
66
1
10
0
20
0
30
0
70
8
0
VERTEX
8
0
62
5
10
0.49497459
20
1.4408466
30
0
70
32
0
VERTEX
8
0
62
5
10
0.49497459
20
1.4408466
30
0
70
32
0
SEQEND
8
0
0
POLYLINE
8
0
62
5
66
1
10
0
20
0
30
0
70
8
0
VERTEX
8
0
62
5
10
0.56568526
20
1.4408466
30
0
70
32
0
VERTEX
8
0
62
5
10
0.56568526
20
1.4408466
30
0
70
32
0
SEQEND
8
0
0
POLYLINE
8
0
62
5
66
1
10
0
20
0
30
0
70
8
0
VERTEX
8
0
62
5
10
-0.2121322
20
1.4054538
30
0
70
32
0
VERTEX
8
0
62
5
10
-0.2121322
20
1.4408466
30
0
70
32
0
SEQEND
8
0
0
POLYLINE
8
0
62
5
66
1
10
0
20
0
30
0
70
8
0
VERTEX
8
0
62
5
10
-0.14142152
20
1.4054538
30
0
70
32
0
VERTEX
8
0
62
5
10
-0.14142152
20
1.4408466
30
0
70
32
0
SEQEND
8
0
0
POLYLINE
8
0
62
5
66
1
10
0
20
0
30
0
70
8
0
VERTEX
8
0
62
5
10
-0.070710839
20
1.4054538
30
0
70
32
0
VERTEX
8
0
62
5
10
-0.070710839
20
1.4408466
30
0
70
32
0
SEQEND
8
0
0
POLYLINE
8
0
62
5
66
1
10
0
20
0
30
0
70
8
0
VERTEX
8
0
62
5
10
-1.6076861e-07
20
1.4054538
30
0
70
32
0
VERTEX
8
0
62
5
10
-1.6076861e-07
20
1.4408466
30
0
70
32
0
SEQEND
8
0
0
POLYLINE
8
0
62
5
66
1
10
0
20
0
30
0
70
8
0
VERTEX
8
0
62
5
10
-0.2121322
20
1.4054538
30
0
70
32
0
VERTEX
8
0
62
5
10
-0.2121322
20
1.4054538
30
0
70
32
0
SEQEND
8
0
0
POLYLINE
8
0
62
5
66
1
10
0
20
0
30
0
70
8
0
VERTEX
8
0
62
5
10
-0.14142152
20
1.4054538
30
0
70
32
0
VERTEX
8
0
62
5
10
-0.14142152
20
1.4054538
30
0
70
32
0
SEQEND
8
0
0
POLYLINE
8
0
62
5
66
1
10
0
20
0
30
0
70
8
0
VERTEX
8
0
62
5
10
-0.070710839
20
1.4054538
30
0
70
32
0
VERTEX
8
0
62
5
10
-0.070710839
20
1.4054538
30
0
70
32
0
SEQEND
8
0
0
POLYLINE
8
0
62
5
66
1
10
0
20
0
30
0
70
8
0
VERTEX
8
0
62
5
10
-0.2121322
20
1.4408466
30
0
70
32
0
VERTEX
8
0
62
5
10
-0.2121322
20
1.4408466
30
0
70
32
0
SEQEND
8
0
0
POLYLINE
8
0
62
5
66
1
10
0
20
0
30
0
70
8
0
VERTEX
8
0
62
5
10
-0.14142152
20
1.4408466
30
0
70
32
0
VERTEX
8
0
62
5
10
-0.14142152
20
1.4408466
30
0
70
32
0
SEQEND
8
0
0
POLYLINE
8
0
62
5
66
1
10
0
20
0
30
0
70
8
0
VERTEX
8
0
62
5
10
-0.070710839
20
1.4408466
30
0
70
32
0
VERTEX
8
0
62
5
10
-0.070710839
20
1.4408466
30
0
70
32
0
SEQEND
8
0
0
POLYLINE
8
0
62
5
66
1
10
0
20
0
30
0
70
8
0
VERTEX
8
0
62
5
10
-1.6076861e-07
20
1.4408466
30
0
70
32
0
VERTEX
8
0
62
5
10
-1.6076861e-07
20
1.4408466
30
0
70
32
0
SEQEND
8
0
0
POLYLINE
8
0
62
5
66
1
10
0
20
0
30
0
70
8
0
VERTEX
8
0
62
5
10
-1.6076861e-07
20
1.4408466
30
0
70
32
0
VERTEX
8
0
62
5
10
-1.6076861e-07
20
1.5824179
30
0
70
32
0
SEQEND
8
0
0
POLYLINE
8
0
62
5
66
1
10
0
20
0
30
0
70
8
0
VERTEX
8
0
62
5
10
0.28284255
20
1.4408466
30
0
70
32
0
VERTEX
8
0
62
5
10
0.28284255
20
1.5824179
30
0
70
32
0
SEQEND
8
0
0
POLYLINE
8
0
62
5
66
1
10
0
20
0
30
0
70
8
0
VERTEX
8
0
62
5
10
0.070710517
20
1.4408466
30
0
70
32
0
VERTEX
8
0
62
5
10
0.070710517
20
1.5824179
30
0
70
32
0
SEQEND
8
0
0
POLYLINE
8
0
62
5
66
1
10
0
20
0
30
0
70
8
0
VERTEX
8
0
62
5
10
0.1414212
20
1.4408466
30
0
70
32
0
VERTEX
8
0
62
5
10
0.1414212
20
1.5824179
30
0
70
32
0
SEQEND
8
0
0
POLYLINE
8
0
62
5
66
1
10
0
20
0
30
0
70
8
0
VERTEX
8
0
62
5
10
0.21213187
20
1.4408466
30
0
70
32
0
VERTEX
8
0
62
5
10
0.21213187
20
1.5824179
30
0
70
32
0
SEQEND
8
0
0
POLYLINE
8
0
62
5
66
1
10
0
20
0
30
0
70
8
0
VERTEX
8
0
62
5
10
0.56568526
20
1.4408466
30
0
70
32
0
VERTEX
8
0
62
5
10
0.56568526
20
1.5824179
30
0
70
32
0
SEQEND
8
0
0
POLYLINE
8
0
62
5
66
1
10
0
20
0
30
0
70
8
0
VERTEX
8
0
62
5
10
0.35355323
20
1.4408466
30
0
70
32
0
VERTEX
8
0
62
5
10
0.35355323
20
1.5824179
30
0
70
32
0
SEQEND
8
0
0
POLYLINE
8
0
62
5
66
1
10
0
20
0
30
0
70
8
0
VERTEX
8
0
62
5
10
0.42426391
20
1.4408466
30
0
70
32
0
VERTEX
8
0
62
5
10
0.42426391
20
1.5824179
30
0
70
32
0
SEQEND
8
0
0
POLYLINE
8
0
62
5
66
1
10
0
20
0
30
0
70
8
0
VERTEX
8
0
62
5
10
0.49497459
20
1.4408466
30
0
70
32
0
VERTEX
8
0
62
5
10
0.49497459
20
1.5824179
30
0
70
32
0
SEQEND
8
0
0
POLYLINE
8
0
62
5
66
1
10
0
20
0
30
0
70
8
0
VERTEX
8
0
62
5
10
-0.28284287
20
1.4408466
30
0
70
32
0
VERTEX
8
0
62
5
10
-0.28284287
20
1.5824179
30
0
70
32
0
SEQEND
8
0
0
POLYLINE
8
0
62
5
66
1
10
0
20
0
30
0
70
8
0
VERTEX
8
0
62
5
10
-0.2121322
20
1.4408466
30
0
70
32
0
VERTEX
8
0
62
5
10
-0.2121322
20
1.5824179
30
0
70
32
0
SEQEND
8
0
0
POLYLINE
8
0
62
5
66
1
10
0
20
0
30
0
70
8
0
VERTEX
8
0
62
5
10
-0.14142152
20
1.4408466
30
0
70
32
0
VERTEX
8
0
62
5
10
-0.14142152
20
1.5824179
30
0
70
32
0
SEQEND
8
0
0
POLYLINE
8
0
62
5
66
1
10
0
20
0
30
0
70
8
0
VERTEX
8
0
62
5
10
-0.070710839
20
1.4408466
30
0
70
32
0
VERTEX
8
0
62
5
10
-0.070710839
20
1.5824179
30
0
70
32
0
SEQEND
8
0
0
POLYLINE
8
0
62
5
66
1
10
0
20
0
30
0
70
8
0
VERTEX
8
0
62
5
10
-1.6076861e-07
20
1.5824179
30
0
70
32
0
VERTEX
8
0
62
5
10
-1.6076861e-07
20
1.7238393
30
0
70
32
0
SEQEND
8
0
0
POLYLINE
8
0
62
5
66
1
10
0
20
0
30
0
70
8
0
VERTEX
8
0
62
5
10
0.28284255
20
1.7238393
30
0
70
32
0
VERTEX
8
0
62
5
10
0.28284255
20
1.5824179
30
0
70
32
0
SEQEND
8
0
0
POLYLINE
8
0
62
5
66
1
10
0
20
0
30
0
70
8
0
VERTEX
8
0
62
5
10
-1.6076861e-07
20
1.5824179
30
0
70
32
0
VERTEX
8
0
62
5
10
0.28284255
20
1.5824179
30
0
70
32
0
SEQEND
8
0
0
POLYLINE
8
0
62
5
66
1
10
0
20
0
30
0
70
8
0
VERTEX
8
0
62
5
10
-1.6076861e-07
20
1.7238393
30
0
70
32
0
VERTEX
8
0
62
5
10
0.28284255
20
1.7238393
30
0
70
32
0
SEQEND
8
0
0
POLYLINE
8
0
62
5
66
1
10
0
20
0
30
0
70
8
0
VERTEX
8
0
62
5
10
0.070710517
20
1.5824179
30
0
70
32
0
VERTEX
8
0
62
5
10
0.070710517
20
1.5824179
30
0
70
32
0
SEQEND
8
0
0
POLYLINE
8
0
62
5
66
1
10
0
20
0
30
0
70
8
0
VERTEX
8
0
62
5
10
0.1414212
20
1.5824179
30
0
70
32
0
VERTEX
8
0
62
5
10
0.1414212
20
1.5824179
30
0
70
32
0
SEQEND
8
0
0
POLYLINE
8
0
62
5
66
1
10
0
20
0
30
0
70
8
0
VERTEX
8
0
62
5
10
0.21213187
20
1.5824179
30
0
70
32
0
VERTEX
8
0
62
5
10
0.21213187
20
1.5824179
30
0
70
32
0
SEQEND
8
0
0
POLYLINE
8
0
62
5
66
1
10
0
20
0
30
0
70
8
0
VERTEX
8
0
62
5
10
0.070710517
20
1.7238393
30
0
70
32
0
VERTEX
8
0
62
5
10
0.070710517
20
1.7238393
30
0
70
32
0
SEQEND
8
0
0
POLYLINE
8
0
62
5
66
1
10
0
20
0
30
0
70
8
0
VERTEX
8
0
62
5
10
0.1414212
20
1.7238393
30
0
70
32
0
VERTEX
8
0
62
5
10
0.1414212
20
1.7238393
30
0
70
32
0
SEQEND
8
0
0
POLYLINE
8
0
62
5
66
1
10
0
20
0
30
0
70
8
0
VERTEX
8
0
62
5
10
0.21213187
20
1.7238393
30
0
70
32
0
VERTEX
8
0
62
5
10
0.21213187
20
1.7238393
30
0
70
32
0
SEQEND
8
0
0
POLYLINE
8
0
62
30
66
1
10
0
20
0
30
0
70
8
0
VERTEX
8
0
62
30
10
-1.6076861e-07
20
1.5824179
30
0
70
32
0
VERTEX
8
0
62
30
10
0.035355178
20
1.6531286
30
0
70
32
0
SEQEND
8
0
0
POLYLINE
8
0
62
30
66
1
10
0
20
0
30
0
70
8
0
VERTEX
8
0
62
30
10
0.035355178
20
1.6531286
30
0
70
32
0
VERTEX
8
0
62
30
10
0.070710517
20
1.5824179
30
0
70
32
0
SEQEND
8
0
0
POLYLINE
8
0
62
30
66
1
10
0
20
0
30
0
70
8
0
VERTEX
8
0
62
30
10
0.1414212
20
1.5824179
30
0
70
32
0
VERTEX
8
0
62
30
10
0.17677653
20
1.6531286
30
0
70
32
0
SEQEND
8
0
0
POLYLINE
8
0
62
30
66
1
10
0
20
0
30
0
70
8
0
VERTEX
8
0
62
30
10
0.17677653
20
1.6531286
30
0
70
32
0
VERTEX
8
0
62
30
10
0.21213187
20
1.5824179
30
0
70
32
0
SEQEND
8
0
0
POLYLINE
8
0
62
30
66
1
10
0
20
0
30
0
70
8
0
VERTEX
8
0
62
30
10
0.070710517
20
1.6531286
30
0
70
32
0
VERTEX
8
0
62
30
10
0.1414212
20
1.6531286
30
0
70
32
0
SEQEND
8
0
0
POLYLINE
8
0
62
30
66
1
10
0
20
0
30
0
70
8
0
VERTEX
8
0
62
30
10
0.21213187
20
1.6531286
30
0
70
32
0
VERTEX
8
0
62
30
10
0.28284255
20
1.6531286
30
0
70
32
0
SEQEND
8
0
0
POLYLINE
8
0
62
5
66
1
10
0
20
0
30
0
70
8
0
VERTEX
8
0
62
5
10
-1.6076861e-07
20
1.6531286
30
0
70
32
0
VERTEX
8
0
62
5
10
0.035355178
20
1.6531286
30
0
70
32
0
SEQEND
8
0
0
POLYLINE
8
0
62
5
66
1
10
0
20
0
30
0
70
8
0
VERTEX
8
0
62
5
10
0.1414212
20
1.6531286
30
0
70
32
0
VERTEX
8
0
62
5
10
0.17677653
20
1.6531286
30
0
70
32
0
SEQEND
8
0
0
POLYLINE
8
0
62
5
66
1
10
0
20
0
30
0
70
8
0
VERTEX
8
0
62
5
10
0.035355178
20
1.6531286
30
0
70
32
0
VERTEX
8
0
62
5
10
0.070710517
20
1.6531286
30
0
70
32
0
SEQEND
8
0
0
POLYLINE
8
0
62
5
66
1
10
0
20
0
30
0
70
8
0
VERTEX
8
0
62
5
10
0.17677653
20
1.6531286
30
0
70
32
0
VERTEX
8
0
62
5
10
0.21213187
20
1.6531286
30
0
70
32
0
SEQEND
8
0
0
POLYLINE
8
0
62
5
66
1
10
0
20
0
30
0
70
8
0
VERTEX
8
0
62
5
10
0.070710517
20
1.5824179
30
0
70
32
0
VERTEX
8
0
62
5
10
0.070710517
20
1.7238393
30
0
70
32
0
SEQEND
8
0
0
POLYLINE
8
0
62
5
66
1
10
0
20
0
30
0
70
8
0
VERTEX
8
0
62
5
10
0.1414212
20
1.5824179
30
0
70
32
0
VERTEX
8
0
62
5
10
0.1414212
20
1.7238393
30
0
70
32
0
SEQEND
8
0
0
POLYLINE
8
0
62
5
66
1
10
0
20
0
30
0
70
8
0
VERTEX
8
0
62
5
10
0.21213187
20
1.5824179
30
0
70
32
0
VERTEX
8
0
62
5
10
0.21213187
20
1.7238393
30
0
70
32
0
SEQEND
8
0
0
POLYLINE
8
0
62
5
66
1
10
0
20
0
30
0
70
8
0
VERTEX
8
0
62
5
10
-1.6076861e-07
20
1.5824179
30
0
70
32
0
VERTEX
8
0
62
5
10
-1.6076861e-07
20
1.7238393
30
0
70
32
0
SEQEND
8
0
0
POLYLINE
8
0
62
5
66
1
10
0
20
0
30
0
70
8
0
VERTEX
8
0
62
5
10
0.56568526
20
1.7238393
30
0
70
32
0
VERTEX
8
0
62
5
10
0.56568526
20
1.5824179
30
0
70
32
0
SEQEND
8
0
0
POLYLINE
8
0
62
5
66
1
10
0
20
0
30
0
70
8
0
VERTEX
8
0
62
5
10
0.28284255
20
1.5824179
30
0
70
32
0
VERTEX
8
0
62
5
10
0.56568526
20
1.5824179
30
0
70
32
0
SEQEND
8
0
0
POLYLINE
8
0
62
5
66
1
10
0
20
0
30
0
70
8
0
VERTEX
8
0
62
5
10
0.28284255
20
1.7238393
30
0
70
32
0
VERTEX
8
0
62
5
10
0.56568526
20
1.7238393
30
0
70
32
0
SEQEND
8
0
0
POLYLINE
8
0
62
5
66
1
10
0
20
0
30
0
70
8
0
VERTEX
8
0
62
5
10
0.35355323
20
1.5824179
30
0
70
32
0
VERTEX
8
0
62
5
10
0.35355323
20
1.5824179
30
0
70
32
0
SEQEND
8
0
0
POLYLINE
8
0
62
5
66
1
10
0
20
0
30
0
70
8
0
VERTEX
8
0
62
5
10
0.42426391
20
1.5824179
30
0
70
32
0
VERTEX
8
0
62
5
10
0.42426391
20
1.5824179
30
0
70
32
0
SEQEND
8
0
0
POLYLINE
8
0
62
5
66
1
10
0
20
0
30
0
70
8
0
VERTEX
8
0
62
5
10
0.49497459
20
1.5824179
30
0
70
32
0
VERTEX
8
0
62
5
10
0.49497459
20
1.5824179
30
0
70
32
0
SEQEND
8
0
0
POLYLINE
8
0
62
5
66
1
10
0
20
0
30
0
70
8
0
VERTEX
8
0
62
5
10
0.35355323
20
1.7238393
30
0
70
32
0
VERTEX
8
0
62
5
10
0.35355323
20
1.7238393
30
0
70
32
0
SEQEND
8
0
0
POLYLINE
8
0
62
5
66
1
10
0
20
0
30
0
70
8
0
VERTEX
8
0
62
5
10
0.42426391
20
1.7238393
30
0
70
32
0
VERTEX
8
0
62
5
10
0.42426391
20
1.7238393
30
0
70
32
0
SEQEND
8
0
0
POLYLINE
8
0
62
5
66
1
10
0
20
0
30
0
70
8
0
VERTEX
8
0
62
5
10
0.49497459
20
1.7238393
30
0
70
32
0
VERTEX
8
0
62
5
10
0.49497459
20
1.7238393
30
0
70
32
0
SEQEND
8
0
0
POLYLINE
8
0
62
30
66
1
10
0
20
0
30
0
70
8
0
VERTEX
8
0
62
30
10
0.28284255
20
1.5824179
30
0
70
32
0
VERTEX
8
0
62
30
10
0.31819789
20
1.6531286
30
0
70
32
0
SEQEND
8
0
0
POLYLINE
8
0
62
30
66
1
10
0
20
0
30
0
70
8
0
VERTEX
8
0
62
30
10
0.31819789
20
1.6531286
30
0
70
32
0
VERTEX
8
0
62
30
10
0.35355323
20
1.5824179
30
0
70
32
0
SEQEND
8
0
0
POLYLINE
8
0
62
30
66
1
10
0
20
0
30
0
70
8
0
VERTEX
8
0
62
30
10
0.42426391
20
1.5824179
30
0
70
32
0
VERTEX
8
0
62
30
10
0.45961925
20
1.6531286
30
0
70
32
0
SEQEND
8
0
0
POLYLINE
8
0
62
30
66
1
10
0
20
0
30
0
70
8
0
VERTEX
8
0
62
30
10
0.45961925
20
1.6531286
30
0
70
32
0
VERTEX
8
0
62
30
10
0.49497459
20
1.5824179
30
0
70
32
0
SEQEND
8
0
0
POLYLINE
8
0
62
30
66
1
10
0
20
0
30
0
70
8
0
VERTEX
8
0
62
30
10
0.35355323
20
1.6531286
30
0
70
32
0
VERTEX
8
0
62
30
10
0.42426391
20
1.6531286
30
0
70
32
0
SEQEND
8
0
0
POLYLINE
8
0
62
30
66
1
10
0
20
0
30
0
70
8
0
VERTEX
8
0
62
30
10
0.49497459
20
1.6531286
30
0
70
32
0
VERTEX
8
0
62
30
10
0.56568526
20
1.6531286
30
0
70
32
0
SEQEND
8
0
0
POLYLINE
8
0
62
5
66
1
10
0
20
0
30
0
70
8
0
VERTEX
8
0
62
5
10
0.28284255
20
1.6531286
30
0
70
32
0
VERTEX
8
0
62
5
10
0.31819789
20
1.6531286
30
0
70
32
0
SEQEND
8
0
0
POLYLINE
8
0
62
5
66
1
10
0
20
0
30
0
70
8
0
VERTEX
8
0
62
5
10
0.42426391
20
1.6531286
30
0
70
32
0
VERTEX
8
0
62
5
10
0.45961925
20
1.6531286
30
0
70
32
0
SEQEND
8
0
0
POLYLINE
8
0
62
5
66
1
10
0
20
0
30
0
70
8
0
VERTEX
8
0
62
5
10
0.31819789
20
1.6531286
30
0
70
32
0
VERTEX
8
0
62
5
10
0.35355323
20
1.6531286
30
0
70
32
0
SEQEND
8
0
0
POLYLINE
8
0
62
5
66
1
10
0
20
0
30
0
70
8
0
VERTEX
8
0
62
5
10
0.45961925
20
1.6531286
30
0
70
32
0
VERTEX
8
0
62
5
10
0.49497459
20
1.6531286
30
0
70
32
0
SEQEND
8
0
0
POLYLINE
8
0
62
5
66
1
10
0
20
0
30
0
70
8
0
VERTEX
8
0
62
5
10
0.35355323
20
1.5824179
30
0
70
32
0
VERTEX
8
0
62
5
10
0.35355323
20
1.7238393
30
0
70
32
0
SEQEND
8
0
0
POLYLINE
8
0
62
5
66
1
10
0
20
0
30
0
70
8
0
VERTEX
8
0
62
5
10
0.42426391
20
1.5824179
30
0
70
32
0
VERTEX
8
0
62
5
10
0.42426391
20
1.7238393
30
0
70
32
0
SEQEND
8
0
0
POLYLINE
8
0
62
5
66
1
10
0
20
0
30
0
70
8
0
VERTEX
8
0
62
5
10
0.49497459
20
1.5824179
30
0
70
32
0
VERTEX
8
0
62
5
10
0.49497459
20
1.7238393
30
0
70
32
0
SEQEND
8
0
0
POLYLINE
8
0
62
5
66
1
10
0
20
0
30
0
70
8
0
VERTEX
8
0
62
5
10
0.28284255
20
1.5824179
30
0
70
32
0
VERTEX
8
0
62
5
10
0.28284255
20
1.7238393
30
0
70
32
0
SEQEND
8
0
0
POLYLINE
8
0
62
5
66
1
10
0
20
0
30
0
70
8
0
VERTEX
8
0
62
5
10
-0.28284287
20
1.5824179
30
0
70
32
0
VERTEX
8
0
62
5
10
-0.28284287
20
1.7238393
30
0
70
32
0
SEQEND
8
0
0
POLYLINE
8
0
62
5
66
1
10
0
20
0
30
0
70
8
0
VERTEX
8
0
62
5
10
-0.28284287
20
1.5824179
30
0
70
32
0
VERTEX
8
0
62
5
10
-1.6076861e-07
20
1.5824179
30
0
70
32
0
SEQEND
8
0
0
POLYLINE
8
0
62
5
66
1
10
0
20
0
30
0
70
8
0
VERTEX
8
0
62
5
10
-0.28284287
20
1.7238393
30
0
70
32
0
VERTEX
8
0
62
5
10
-1.6076861e-07
20
1.7238393
30
0
70
32
0
SEQEND
8
0
0
POLYLINE
8
0
62
5
66
1
10
0
20
0
30
0
70
8
0
VERTEX
8
0
62
5
10
-0.2121322
20
1.5824179
30
0
70
32
0
VERTEX
8
0
62
5
10
-0.2121322
20
1.5824179
30
0
70
32
0
SEQEND
8
0
0
POLYLINE
8
0
62
5
66
1
10
0
20
0
30
0
70
8
0
VERTEX
8
0
62
5
10
-0.14142152
20
1.5824179
30
0
70
32
0
VERTEX
8
0
62
5
10
-0.14142152
20
1.5824179
30
0
70
32
0
SEQEND
8
0
0
POLYLINE
8
0
62
5
66
1
10
0
20
0
30
0
70
8
0
VERTEX
8
0
62
5
10
-0.070710839
20
1.5824179
30
0
70
32
0
VERTEX
8
0
62
5
10
-0.070710839
20
1.5824179
30
0
70
32
0
SEQEND
8
0
0
POLYLINE
8
0
62
5
66
1
10
0
20
0
30
0
70
8
0
VERTEX
8
0
62
5
10
-0.2121322
20
1.7238393
30
0
70
32
0
VERTEX
8
0
62
5
10
-0.2121322
20
1.7238393
30
0
70
32
0
SEQEND
8
0
0
POLYLINE
8
0
62
5
66
1
10
0
20
0
30
0
70
8
0
VERTEX
8
0
62
5
10
-0.14142152
20
1.7238393
30
0
70
32
0
VERTEX
8
0
62
5
10
-0.14142152
20
1.7238393
30
0
70
32
0
SEQEND
8
0
0
POLYLINE
8
0
62
5
66
1
10
0
20
0
30
0
70
8
0
VERTEX
8
0
62
5
10
-0.070710839
20
1.7238393
30
0
70
32
0
VERTEX
8
0
62
5
10
-0.070710839
20
1.7238393
30
0
70
32
0
SEQEND
8
0
0
POLYLINE
8
0
62
30
66
1
10
0
20
0
30
0
70
8
0
VERTEX
8
0
62
30
10
-0.28284287
20
1.5824179
30
0
70
32
0
VERTEX
8
0
62
30
10
-0.24748753
20
1.6531286
30
0
70
32
0
SEQEND
8
0
0
POLYLINE
8
0
62
30
66
1
10
0
20
0
30
0
70
8
0
VERTEX
8
0
62
30
10
-0.24748753
20
1.6531286
30
0
70
32
0
VERTEX
8
0
62
30
10
-0.2121322
20
1.5824179
30
0
70
32
0
SEQEND
8
0
0
POLYLINE
8
0
62
30
66
1
10
0
20
0
30
0
70
8
0
VERTEX
8
0
62
30
10
-0.14142152
20
1.5824179
30
0
70
32
0
VERTEX
8
0
62
30
10
-0.10606618
20
1.6531286
30
0
70
32
0
SEQEND
8
0
0
POLYLINE
8
0
62
30
66
1
10
0
20
0
30
0
70
8
0
VERTEX
8
0
62
30
10
-0.10606618
20
1.6531286
30
0
70
32
0
VERTEX
8
0
62
30
10
-0.070710839
20
1.5824179
30
0
70
32
0
SEQEND
8
0
0
POLYLINE
8
0
62
30
66
1
10
0
20
0
30
0
70
8
0
VERTEX
8
0
62
30
10
-0.2121322
20
1.6531286
30
0
70
32
0
VERTEX
8
0
62
30
10
-0.14142152
20
1.6531286
30
0
70
32
0
SEQEND
8
0
0
POLYLINE
8
0
62
30
66
1
10
0
20
0
30
0
70
8
0
VERTEX
8
0
62
30
10
-0.070710839
20
1.6531286
30
0
70
32
0
VERTEX
8
0
62
30
10
-1.6076861e-07
20
1.6531286
30
0
70
32
0
SEQEND
8
0
0
POLYLINE
8
0
62
5
66
1
10
0
20
0
30
0
70
8
0
VERTEX
8
0
62
5
10
-0.28284287
20
1.6531286
30
0
70
32
0
VERTEX
8
0
62
5
10
-0.24748753
20
1.6531286
30
0
70
32
0
SEQEND
8
0
0
POLYLINE
8
0
62
5
66
1
10
0
20
0
30
0
70
8
0
VERTEX
8
0
62
5
10
-0.14142152
20
1.6531286
30
0
70
32
0
VERTEX
8
0
62
5
10
-0.10606618
20
1.6531286
30
0
70
32
0
SEQEND
8
0
0
POLYLINE
8
0
62
5
66
1
10
0
20
0
30
0
70
8
0
VERTEX
8
0
62
5
10
-0.24748753
20
1.6531286
30
0
70
32
0
VERTEX
8
0
62
5
10
-0.2121322
20
1.6531286
30
0
70
32
0
SEQEND
8
0
0
POLYLINE
8
0
62
5
66
1
10
0
20
0
30
0
70
8
0
VERTEX
8
0
62
5
10
-0.10606618
20
1.6531286
30
0
70
32
0
VERTEX
8
0
62
5
10
-0.070710839
20
1.6531286
30
0
70
32
0
SEQEND
8
0
0
POLYLINE
8
0
62
5
66
1
10
0
20
0
30
0
70
8
0
VERTEX
8
0
62
5
10
-0.2121322
20
1.5824179
30
0
70
32
0
VERTEX
8
0
62
5
10
-0.2121322
20
1.7238393
30
0
70
32
0
SEQEND
8
0
0
POLYLINE
8
0
62
5
66
1
10
0
20
0
30
0
70
8
0
VERTEX
8
0
62
5
10
-0.14142152
20
1.5824179
30
0
70
32
0
VERTEX
8
0
62
5
10
-0.14142152
20
1.7238393
30
0
70
32
0
SEQEND
8
0
0
POLYLINE
8
0
62
5
66
1
10
0
20
0
30
0
70
8
0
VERTEX
8
0
62
5
10
-0.070710839
20
1.5824179
30
0
70
32
0
VERTEX
8
0
62
5
10
-0.070710839
20
1.7238393
30
0
70
32
0
SEQEND
8
0
0
POLYLINE
8
0
62
5
66
1
10
0
20
0
30
0
70
8
0
VERTEX
8
0
62
5
10
-0.28284287
20
1.5824179
30
0
70
32
0
VERTEX
8
0
62
5
10
-0.28284287
20
1.7238393
30
0
70
32
0
SEQEND
8
0
0
POLYLINE
8
0
62
18
66
1
10
0
20
0
30
0
70
8
0
VERTEX
8
0
62
18
10
0
20
0
30
0
70
32
0
VERTEX
8
0
62
18
10
0.35355339
20
0
30
0
70
32
0
VERTEX
8
0
62
18
10
0.35355339
20
0.22357086
30
0
70
32
0
VERTEX
8
0
62
18
10
0
20
0.22357086
30
0
70
32
0
VERTEX
8
0
62
18
10
0
20
0
30
0
70
32
0
SEQEND
8
0
0
POLYLINE
8
0
62
5
66
1
10
0
20
0
30
0
70
8
0
VERTEX
8
0
62
5
10
0
20
0.22357086
30
0
70
32
0
VERTEX
8
0
62
5
10
0.35355339
20
0.22357086
30
0
70
32
0
SEQEND
8
0
0
POLYLINE
8
0
62
18
66
1
10
0
20
0
30
0
70
8
0
VERTEX
8
0
62
18
10
0
20
0.20357086
30
0
70
32
0
VERTEX
8
0
62
18
10
0.35355339
20
0.20357086
30
0
70
32
0
VERTEX
8
0
62
18
10
0.35355339
20
0.62876734
30
0
70
32
0
VERTEX
8
0
62
18
10
0
20
0.62876734
30
0
70
32
0
VERTEX
8
0
62
18
10
0
20
0.20357086
30
0
70
32
0
SEQEND
8
0
0
POLYLINE
8
0
62
5
66
1
10
0
20
0
30
0
70
8
0
VERTEX
8
0
62
5
10
0
20
0.62876734
30
0
70
32
0
VERTEX
8
0
62
5
10
0.35355339
20
0.62876734
30
0
70
32
0
SEQEND
8
0
0
POLYLINE
8
0
62
18
66
1
10
0
20
0
30
0
70
8
0
VERTEX
8
0
62
18
10
0
20
0.60876734
30
0
70
32
0
VERTEX
8
0
62
18
10
0.35355339
20
0.60876734
30
0
70
32
0
VERTEX
8
0
62
18
10
0.35355339
20
0.86213729
30
0
70
32
0
VERTEX
8
0
62
18
10
0
20
0.86213729
30
0
70
32
0
VERTEX
8
0
62
18
10
0
20
0.60876734
30
0
70
32
0
SEQEND
8
0
0
POLYLINE
8
0
62
5
66
1
10
0
20
0
30
0
70
8
0
VERTEX
8
0
62
5
10
0
20
0.86213729
30
0
70
32
0
VERTEX
8
0
62
5
10
0.35355339
20
0.86213729
30
0
70
32
0
SEQEND
8
0
0
POLYLINE
8
0
62
18
66
1
10
0
20
0
30
0
70
8
0
VERTEX
8
0
62
18
10
0
20
0.84213729
30
0
70
32
0
VERTEX
8
0
62
18
10
0.35355339
20
0.84213729
30
0
70
32
0
VERTEX
8
0
62
18
10
0.35355339
20
1.2285273
30
0
70
32
0
VERTEX
8
0
62
18
10
0
20
1.2285273
30
0
70
32
0
VERTEX
8
0
62
18
10
0
20
0.84213729
30
0
70
32
0
SEQEND
8
0
0
POLYLINE
8
0
62
5
66
1
10
0
20
0
30
0
70
8
0
VERTEX
8
0
62
5
10
0
20
1.2285273
30
0
70
32
0
VERTEX
8
0
62
5
10
0.35355339
20
1.2285273
30
0
70
32
0
SEQEND
8
0
0
POLYLINE
8
0
62
18
66
1
10
0
20
0
30
0
70
8
0
VERTEX
8
0
62
18
10
0
20
1.2085273
30
0
70
32
0
VERTEX
8
0
62
18
10
0.35355339
20
1.2085273
30
0
70
32
0
VERTEX
8
0
62
18
10
0.35355339
20
1.5116323
30
0
70
32
0
VERTEX
8
0
62
18
10
0
20
1.5116323
30
0
70
32
0
VERTEX
8
0
62
18
10
0
20
1.2085273
30
0
70
32
0
SEQEND
8
0
0
POLYLINE
8
0
62
5
66
1
10
0
20
0
30
0
70
8
0
VERTEX
8
0
62
5
10
0
20
1.5116323
30
0
70
32
0
VERTEX
8
0
62
5
10
0.35355339
20
1.5116323
30
0
70
32
0
SEQEND
8
0
0
POLYLINE
8
0
62
18
66
1
10
0
20
0
30
0
70
8
0
VERTEX
8
0
62
18
10
0
20
1.4916323
30
0
70
32
0
VERTEX
8
0
62
18
10
0.35355339
20
1.4916323
30
0
70
32
0
VERTEX
8
0
62
18
10
0.35355339
20
1.7238393
30
0
70
32
0
VERTEX
8
0
62
18
10
0
20
1.7238393
30
0
70
32
0
VERTEX
8
0
62
18
10
0
20
1.4916323
30
0
70
32
0
SEQEND
8
0
0
POLYLINE
8
0
62
18
66
1
10
0
20
0
30
0
70
8
0
VERTEX
8
0
62
18
10
0.35355339
20
0
30
0
70
32
0
VERTEX
8
0
62
18
10
0
20
0
30
0
70
32
0
VERTEX
8
0
62
18
10
0
20
1.7238393
30
0
70
32
0
VERTEX
8
0
62
18
10
0.35355339
20
1.7238393
30
0
70
32
0
VERTEX
8
0
62
18
10
0.35355339
20
0
30
0
70
32
0
SEQEND
8
0
0
ENDSEC
0
EOF
