0
SECTION
2
HEADER
9
$ACADVER
1
AC1006
9
$INSUNITS
70
6
0
ENDSEC
0
SECTION
2
ENTITIES
0
POLYLINE
8
0
62
5
66
1
10
0
20
0
30
0
70
8
0
VERTEX
8
0
62
5
10
0
20
0
30
0
70
32
0
VERTEX
8
0
62
5
10
0
20
0.1
30
0
70
32
0
SEQEND
8
0
0
POLYLINE
8
0
62
5
66
1
10
0
20
0
30
0
70
8
0
VERTEX
8
0
62
5
10
0.11313708
20
0
30
0
70
32
0
VERTEX
8
0
62
5
10
0.11313708
20
0.1
30
0
70
32
0
SEQEND
8
0
0
POLYLINE
8
0
62
5
66
1
10
0
20
0
30
0
70
8
0
VERTEX
8
0
62
5
10
0.028284271
20
0
30
0
70
32
0
VERTEX
8
0
62
5
10
0.028284271
20
0.1
30
0
70
32
0
SEQEND
8
0
0
POLYLINE
8
0
62
5
66
1
10
0
20
0
30
0
70
8
0
VERTEX
8
0
62
5
10
0.056568542
20
0
30
0
70
32
0
VERTEX
8
0
62
5
10
0.056568542
20
0.1
30
0
70
32
0
SEQEND
8
0
0
POLYLINE
8
0
62
5
66
1
10
0
20
0
30
0
70
8
0
VERTEX
8
0
62
5
10
0.084852814
20
0
30
0
70
32
0
VERTEX
8
0
62
5
10
0.084852814
20
0.1
30
0
70
32
0
SEQEND
8
0
0
POLYLINE
8
0
62
5
66
1
10
0
20
0
30
0
70
8
0
VERTEX
8
0
62
5
10
0.22627417
20
0
30
0
70
32
0
VERTEX
8
0
62
5
10
0.22627417
20
0.1
30
0
70
32
0
SEQEND
8
0
0
POLYLINE
8
0
62
5
66
1
10
0
20
0
30
0
70
8
0
VERTEX
8
0
62
5
10
0.14142136
20
0
30
0
70
32
0
VERTEX
8
0
62
5
10
0.14142136
20
0.1
30
0
70
32
0
SEQEND
8
0
0
POLYLINE
8
0
62
5
66
1
10
0
20
0
30
0
70
8
0
VERTEX
8
0
62
5
10
0.16970563
20
0
30
0
70
32
0
VERTEX
8
0
62
5
10
0.16970563
20
0.1
30
0
70
32
0
SEQEND
8
0
0
POLYLINE
8
0
62
5
66
1
10
0
20
0
30
0
70
8
0
VERTEX
8
0
62
5
10
0.1979899
20
0
30
0
70
32
0
VERTEX
8
0
62
5
10
0.1979899
20
0.1
30
0
70
32
0
SEQEND
8
0
0
POLYLINE
8
0
62
5
66
1
10
0
20
0
30
0
70
8
0
VERTEX
8
0
62
5
10
-0.11313708
20
0
30
0
70
32
0
VERTEX
8
0
62
5
10
-0.11313708
20
0.1
30
0
70
32
0
SEQEND
8
0
0
POLYLINE
8
0
62
5
66
1
10
0
20
0
30
0
70
8
0
VERTEX
8
0
62
5
10
-0.084852814
20
0
30
0
70
32
0
VERTEX
8
0
62
5
10
-0.084852814
20
0.1
30
0
70
32
0
SEQEND
8
0
0
POLYLINE
8
0
62
5
66
1
10
0
20
0
30
0
70
8
0
VERTEX
8
0
62
5
10
-0.056568542
20
0
30
0
70
32
0
VERTEX
8
0
62
5
10
-0.056568542
20
0.1
30
0
70
32
0
SEQEND
8
0
0
POLYLINE
8
0
62
5
66
1
10
0
20
0
30
0
70
8
0
VERTEX
8
0
62
5
10
-0.028284271
20
0
30
0
70
32
0
VERTEX
8
0
62
5
10
-0.028284271
20
0.1
30
0
70
32
0
SEQEND
8
0
0
POLYLINE
8
0
62
5
66
1
10
0
20
0
30
0
70
8
0
VERTEX
8
0
62
5
10
0
20
0.1
30
0
70
32
0
VERTEX
8
0
62
5
10
0
20
0.14
30
0
70
32
0
SEQEND
8
0
0
POLYLINE
8
0
62
5
66
1
10
0
20
0
30
0
70
8
0
VERTEX
8
0
62
5
10
0.11313708
20
0.14
30
0
70
32
0
VERTEX
8
0
62
5
10
0.11313708
20
0.1
30
0
70
32
0
SEQEND
8
0
0
POLYLINE
8
0
62
5
66
1
10
0
20
0
30
0
70
8
0
VERTEX
8
0
62
5
10
0
20
0.1
30
0
70
32
0
VERTEX
8
0
62
5
10
0.11313708
20
0.1
30
0
70
32
0
SEQEND
8
0
0
POLYLINE
8
0
62
5
66
1
10
0
20
0
30
0
70
8
0
VERTEX
8
0
62
5
10
0
20
0.14
30
0
70
32
0
VERTEX
8
0
62
5
10
0.11313708
20
0.14
30
0
70
32
0
SEQEND
8
0
0
POLYLINE
8
0
62
5
66
1
10
0
20
0
30
0
70
8
0
VERTEX
8
0
62
5
10
0.028284271
20
0.1
30
0
70
32
0
VERTEX
8
0
62
5
10
0.028284271
20
0.1
30
0
70
32
0
SEQEND
8
0
0
POLYLINE
8
0
62
5
66
1
10
0
20
0
30
0
70
8
0
VERTEX
8
0
62
5
10
0.056568542
20
0.1
30
0
70
32
0
VERTEX
8
0
62
5
10
0.056568542
20
0.1
30
0
70
32
0
SEQEND
8
0
0
POLYLINE
8
0
62
5
66
1
10
0
20
0
30
0
70
8
0
VERTEX
8
0
62
5
10
0.084852814
20
0.1
30
0
70
32
0
VERTEX
8
0
62
5
10
0.084852814
20
0.1
30
0
70
32
0
SEQEND
8
0
0
POLYLINE
8
0
62
5
66
1
10
0
20
0
30
0
70
8
0
VERTEX
8
0
62
5
10
0.028284271
20
0.14
30
0
70
32
0
VERTEX
8
0
62
5
10
0.028284271
20
0.14
30
0
70
32
0
SEQEND
8
0
0
POLYLINE
8
0
62
5
66
1
10
0
20
0
30
0
70
8
0
VERTEX
8
0
62
5
10
0.056568542
20
0.14
30
0
70
32
0
VERTEX
8
0
62
5
10
0.056568542
20
0.14
30
0
70
32
0
SEQEND
8
0
0
POLYLINE
8
0
62
5
66
1
10
0
20
0
30
0
70
8
0
VERTEX
8
0
62
5
10
0.084852814
20
0.14
30
0
70
32
0
VERTEX
8
0
62
5
10
0.084852814
20
0.14
30
0
70
32
0
SEQEND
8
0
0
POLYLINE
8
0
62
30
66
1
10
0
20
0
30
0
70
8
0
VERTEX
8
0
62
30
10
0
20
0.14
30
0
70
32
0
VERTEX
8
0
62
30
10
0.028284271
20
0.1
30
0
70
32
0
SEQEND
8
0
0
POLYLINE
8
0
62
30
66
1
10
0
20
0
30
0
70
8
0
VERTEX
8
0
62
30
10
0.028284271
20
0.14
30
0
70
32
0
VERTEX
8
0
62
30
10
0
20
0.1
30
0
70
32
0
SEQEND
8
0
0
POLYLINE
8
0
62
30
66
1
10
0
20
0
30
0
70
8
0
VERTEX
8
0
62
30
10
0.056568542
20
0.14
30
0
70
32
0
VERTEX
8
0
62
30
10
0.084852814
20
0.1
30
0
70
32
0
SEQEND
8
0
0
POLYLINE
8
0
62
30
66
1
10
0
20
0
30
0
70
8
0
VERTEX
8
0
62
30
10
0.084852814
20
0.14
30
0
70
32
0
VERTEX
8
0
62
30
10
0.056568542
20
0.1
30
0
70
32
0
SEQEND
8
0
0
POLYLINE
8
0
62
30
66
1
10
0
20
0
30
0
70
8
0
VERTEX
8
0
62
30
10
0.028284271
20
0.12
30
0
70
32
0
VERTEX
8
0
62
30
10
0.056568542
20
0.12
30
0
70
32
0
SEQEND
8
0
0
POLYLINE
8
0
62
30
66
1
10
0
20
0
30
0
70
8
0
VERTEX
8
0
62
30
10
0.084852814
20
0.12
30
0
70
32
0
VERTEX
8
0
62
30
10
0.11313708
20
0.12
30
0
70
32
0
SEQEND
8
0
0
POLYLINE
8
0
62
5
66
1
10
0
20
0
30
0
70
8
0
VERTEX
8
0
62
5
10
0
20
0.12
30
0
70
32
0
VERTEX
8
0
62
5
10
0.014142136
20
0.12
30
0
70
32
0
SEQEND
8
0
0
POLYLINE
8
0
62
5
66
1
10
0
20
0
30
0
70
8
0
VERTEX
8
0
62
5
10
0.056568542
20
0.12
30
0
70
32
0
VERTEX
8
0
62
5
10
0.070710678
20
0.12
30
0
70
32
0
SEQEND
8
0
0
POLYLINE
8
0
62
5
66
1
10
0
20
0
30
0
70
8
0
VERTEX
8
0
62
5
10
0.014142136
20
0.12
30
0
70
32
0
VERTEX
8
0
62
5
10
0.028284271
20
0.12
30
0
70
32
0
SEQEND
8
0
0
POLYLINE
8
0
62
5
66
1
10
0
20
0
30
0
70
8
0
VERTEX
8
0
62
5
10
0.070710678
20
0.12
30
0
70
32
0
VERTEX
8
0
62
5
10
0.084852814
20
0.12
30
0
70
32
0
SEQEND
8
0
0
POLYLINE
8
0
62
5
66
1
10
0
20
0
30
0
70
8
0
VERTEX
8
0
62
5
10
0.028284271
20
0.1
30
0
70
32
0
VERTEX
8
0
62
5
10
0.028284271
20
0.14
30
0
70
32
0
SEQEND
8
0
0
POLYLINE
8
0
62
5
66
1
10
0
20
0
30
0
70
8
0
VERTEX
8
0
62
5
10
0.056568542
20
0.1
30
0
70
32
0
VERTEX
8
0
62
5
10
0.056568542
20
0.14
30
0
70
32
0
SEQEND
8
0
0
POLYLINE
8
0
62
5
66
1
10
0
20
0
30
0
70
8
0
VERTEX
8
0
62
5
10
0.084852814
20
0.1
30
0
70
32
0
VERTEX
8
0
62
5
10
0.084852814
20
0.14
30
0
70
32
0
SEQEND
8
0
0
POLYLINE
8
0
62
5
66
1
10
0
20
0
30
0
70
8
0
VERTEX
8
0
62
5
10
0
20
0.1
30
0
70
32
0
VERTEX
8
0
62
5
10
0
20
0.14
30
0
70
32
0
SEQEND
8
0
0
POLYLINE
8
0
62
5
66
1
10
0
20
0
30
0
70
8
0
VERTEX
8
0
62
5
10
0.22627417
20
0.14
30
0
70
32
0
VERTEX
8
0
62
5
10
0.22627417
20
0.1
30
0
70
32
0
SEQEND
8
0
0
POLYLINE
8
0
62
5
66
1
10
0
20
0
30
0
70
8
0
VERTEX
8
0
62
5
10
0.11313708
20
0.1
30
0
70
32
0
VERTEX
8
0
62
5
10
0.22627417
20
0.1
30
0
70
32
0
SEQEND
8
0
0
POLYLINE
8
0
62
5
66
1
10
0
20
0
30
0
70
8
0
VERTEX
8
0
62
5
10
0.11313708
20
0.14
30
0
70
32
0
VERTEX
8
0
62
5
10
0.22627417
20
0.14
30
0
70
32
0
SEQEND
8
0
0
POLYLINE
8
0
62
5
66
1
10
0
20
0
30
0
70
8
0
VERTEX
8
0
62
5
10
0.14142136
20
0.1
30
0
70
32
0
VERTEX
8
0
62
5
10
0.14142136
20
0.1
30
0
70
32
0
SEQEND
8
0
0
POLYLINE
8
0
62
5
66
1
10
0
20
0
30
0
70
8
0
VERTEX
8
0
62
5
10
0.16970563
20
0.1
30
0
70
32
0
VERTEX
8
0
62
5
10
0.16970563
20
0.1
30
0
70
32
0
SEQEND
8
0
0
POLYLINE
8
0
62
5
66
1
10
0
20
0
30
0
70
8
0
VERTEX
8
0
62
5
10
0.1979899
20
0.1
30
0
70
32
0
VERTEX
8
0
62
5
10
0.1979899
20
0.1
30
0
70
32
0
SEQEND
8
0
0
POLYLINE
8
0
62
5
66
1
10
0
20
0
30
0
70
8
0
VERTEX
8
0
62
5
10
0.14142136
20
0.14
30
0
70
32
0
VERTEX
8
0
62
5
10
0.14142136
20
0.14
30
0
70
32
0
SEQEND
8
0
0
POLYLINE
8
0
62
5
66
1
10
0
20
0
30
0
70
8
0
VERTEX
8
0
62
5
10
0.16970563
20
0.14
30
0
70
32
0
VERTEX
8
0
62
5
10
0.16970563
20
0.14
30
0
70
32
0
SEQEND
8
0
0
POLYLINE
8
0
62
5
66
1
10
0
20
0
30
0
70
8
0
VERTEX
8
0
62
5
10
0.1979899
20
0.14
30
0
70
32
0
VERTEX
8
0
62
5
10
0.1979899
20
0.14
30
0
70
32
0
SEQEND
8
0
0
POLYLINE
8
0
62
30
66
1
10
0
20
0
30
0
70
8
0
VERTEX
8
0
62
30
10
0.11313708
20
0.14
30
0
70
32
0
VERTEX
8
0
62
30
10
0.14142136
20
0.1
30
0
70
32
0
SEQEND
8
0
0
POLYLINE
8
0
62
30
66
1
10
0
20
0
30
0
70
8
0
VERTEX
8
0
62
30
10
0.14142136
20
0.14
30
0
70
32
0
VERTEX
8
0
62
30
10
0.11313708
20
0.1
30
0
70
32
0
SEQEND
8
0
0
POLYLINE
8
0
62
30
66
1
10
0
20
0
30
0
70
8
0
VERTEX
8
0
62
30
10
0.16970563
20
0.14
30
0
70
32
0
VERTEX
8
0
62
30
10
0.1979899
20
0.1
30
0
70
32
0
SEQEND
8
0
0
POLYLINE
8
0
62
30
66
1
10
0
20
0
30
0
70
8
0
VERTEX
8
0
62
30
10
0.1979899
20
0.14
30
0
70
32
0
VERTEX
8
0
62
30
10
0.16970563
20
0.1
30
0
70
32
0
SEQEND
8
0
0
POLYLINE
8
0
62
30
66
1
10
0
20
0
30
0
70
8
0
VERTEX
8
0
62
30
10
0.14142136
20
0.12
30
0
70
32
0
VERTEX
8
0
62
30
10
0.16970563
20
0.12
30
0
70
32
0
SEQEND
8
0
0
POLYLINE
8
0
62
30
66
1
10
0
20
0
30
0
70
8
0
VERTEX
8
0
62
30
10
0.1979899
20
0.12
30
0
70
32
0
VERTEX
8
0
62
30
10
0.22627417
20
0.12
30
0
70
32
0
SEQEND
8
0
0
POLYLINE
8
0
62
5
66
1
10
0
20
0
30
0
70
8
0
VERTEX
8
0
62
5
10
0.11313708
20
0.12
30
0
70
32
0
VERTEX
8
0
62
5
10
0.12727922
20
0.12
30
0
70
32
0
SEQEND
8
0
0
POLYLINE
8
0
62
5
66
1
10
0
20
0
30
0
70
8
0
VERTEX
8
0
62
5
10
0.16970563
20
0.12
30
0
70
32
0
VERTEX
8
0
62
5
10
0.18384776
20
0.12
30
0
70
32
0
SEQEND
8
0
0
POLYLINE
8
0
62
5
66
1
10
0
20
0
30
0
70
8
0
VERTEX
8
0
62
5
10
0.12727922
20
0.12
30
0
70
32
0
VERTEX
8
0
62
5
10
0.14142136
20
0.12
30
0
70
32
0
SEQEND
8
0
0
POLYLINE
8
0
62
5
66
1
10
0
20
0
30
0
70
8
0
VERTEX
8
0
62
5
10
0.18384776
20
0.12
30
0
70
32
0
VERTEX
8
0
62
5
10
0.1979899
20
0.12
30
0
70
32
0
SEQEND
8
0
0
POLYLINE
8
0
62
5
66
1
10
0
20
0
30
0
70
8
0
VERTEX
8
0
62
5
10
0.14142136
20
0.1
30
0
70
32
0
VERTEX
8
0
62
5
10
0.14142136
20
0.14
30
0
70
32
0
SEQEND
8
0
0
POLYLINE
8
0
62
5
66
1
10
0
20
0
30
0
70
8
0
VERTEX
8
0
62
5
10
0.16970563
20
0.1
30
0
70
32
0
VERTEX
8
0
62
5
10
0.16970563
20
0.14
30
0
70
32
0
SEQEND
8
0
0
POLYLINE
8
0
62
5
66
1
10
0
20
0
30
0
70
8
0
VERTEX
8
0
62
5
10
0.1979899
20
0.1
30
0
70
32
0
VERTEX
8
0
62
5
10
0.1979899
20
0.14
30
0
70
32
0
SEQEND
8
0
0
POLYLINE
8
0
62
5
66
1
10
0
20
0
30
0
70
8
0
VERTEX
8
0
62
5
10
0.11313708
20
0.1
30
0
70
32
0
VERTEX
8
0
62
5
10
0.11313708
20
0.14
30
0
70
32
0
SEQEND
8
0
0
POLYLINE
8
0
62
5
66
1
10
0
20
0
30
0
70
8
0
VERTEX
8
0
62
5
10
-0.11313708
20
0.1
30
0
70
32
0
VERTEX
8
0
62
5
10
-0.11313708
20
0.14
30
0
70
32
0
SEQEND
8
0
0
POLYLINE
8
0
62
5
66
1
10
0
20
0
30
0
70
8
0
VERTEX
8
0
62
5
10
-0.11313708
20
0.1
30
0
70
32
0
VERTEX
8
0
62
5
10
0
20
0.1
30
0
70
32
0
SEQEND
8
0
0
POLYLINE
8
0
62
5
66
1
10
0
20
0
30
0
70
8
0
VERTEX
8
0
62
5
10
-0.11313708
20
0.14
30
0
70
32
0
VERTEX
8
0
62
5
10
0
20
0.14
30
0
70
32
0
SEQEND
8
0
0
POLYLINE
8
0
62
5
66
1
10
0
20
0
30
0
70
8
0
VERTEX
8
0
62
5
10
-0.084852814
20
0.1
30
0
70
32
0
VERTEX
8
0
62
5
10
-0.084852814
20
0.1
30
0
70
32
0
SEQEND
8
0
0
POLYLINE
8
0
62
5
66
1
10
0
20
0
30
0
70
8
0
VERTEX
8
0
62
5
10
-0.056568542
20
0.1
30
0
70
32
0
VERTEX
8
0
62
5
10
-0.056568542
20
0.1
30
0
70
32
0
SEQEND
8
0
0
POLYLINE
8
0
62
5
66
1
10
0
20
0
30
0
70
8
0
VERTEX
8
0
62
5
10
-0.028284271
20
0.1
30
0
70
32
0
VERTEX
8
0
62
5
10
-0.028284271
20
0.1
30
0
70
32
0
SEQEND
8
0
0
POLYLINE
8
0
62
5
66
1
10
0
20
0
30
0
70
8
0
VERTEX
8
0
62
5
10
-0.084852814
20
0.14
30
0
70
32
0
VERTEX
8
0
62
5
10
-0.084852814
20
0.14
30
0
70
32
0
SEQEND
8
0
0
POLYLINE
8
0
62
5
66
1
10
0
20
0
30
0
70
8
0
VERTEX
8
0
62
5
10
-0.056568542
20
0.14
30
0
70
32
0
VERTEX
8
0
62
5
10
-0.056568542
20
0.14
30
0
70
32
0
SEQEND
8
0
0
POLYLINE
8
0
62
5
66
1
10
0
20
0
30
0
70
8
0
VERTEX
8
0
62
5
10
-0.028284271
20
0.14
30
0
70
32
0
VERTEX
8
0
62
5
10
-0.028284271
20
0.14
30
0
70
32
0
SEQEND
8
0
0
POLYLINE
8
0
62
30
66
1
10
0
20
0
30
0
70
8
0
VERTEX
8
0
62
30
10
-0.11313708
20
0.14
30
0
70
32
0
VERTEX
8
0
62
30
10
-0.084852814
20
0.1
30
0
70
32
0
SEQEND
8
0
0
POLYLINE
8
0
62
30
66
1
10
0
20
0
30
0
70
8
0
VERTEX
8
0
62
30
10
-0.084852814
20
0.14
30
0
70
32
0
VERTEX
8
0
62
30
10
-0.11313708
20
0.1
30
0
70
32
0
SEQEND
8
0
0
POLYLINE
8
0
62
30
66
1
10
0
20
0
30
0
70
8
0
VERTEX
8
0
62
30
10
-0.056568542
20
0.14
30
0
70
32
0
VERTEX
8
0
62
30
10
-0.028284271
20
0.1
30
0
70
32
0
SEQEND
8
0
0
POLYLINE
8
0
62
30
66
1
10
0
20
0
30
0
70
8
0
VERTEX
8
0
62
30
10
-0.028284271
20
0.14
30
0
70
32
0
VERTEX
8
0
62
30
10
-0.056568542
20
0.1
30
0
70
32
0
SEQEND
8
0
0
POLYLINE
8
0
62
30
66
1
10
0
20
0
30
0
70
8
0
VERTEX
8
0
62
30
10
-0.084852814
20
0.12
30
0
70
32
0
VERTEX
8
0
62
30
10
-0.056568542
20
0.12
30
0
70
32
0
SEQEND
8
0
0
POLYLINE
8
0
62
30
66
1
10
0
20
0
30
0
70
8
0
VERTEX
8
0
62
30
10
-0.028284271
20
0.12
30
0
70
32
0
VERTEX
8
0
62
30
10
0
20
0.12
30
0
70
32
0
SEQEND
8
0
0
POLYLINE
8
0
62
5
66
1
10
0
20
0
30
0
70
8
0
VERTEX
8
0
62
5
10
-0.11313708
20
0.12
30
0
70
32
0
VERTEX
8
0
62
5
10
-0.098994949
20
0.12
30
0
70
32
0
SEQEND
8
0
0
POLYLINE
8
0
62
5
66
1
10
0
20
0
30
0
70
8
0
VERTEX
8
0
62
5
10
-0.056568542
20
0.12
30
0
70
32
0
VERTEX
8
0
62
5
10
-0.042426407
20
0.12
30
0
70
32
0
SEQEND
8
0
0
POLYLINE
8
0
62
5
66
1
10
0
20
0
30
0
70
8
0
VERTEX
8
0
62
5
10
-0.098994949
20
0.12
30
0
70
32
0
VERTEX
8
0
62
5
10
-0.084852814
20
0.12
30
0
70
32
0
SEQEND
8
0
0
POLYLINE
8
0
62
5
66
1
10
0
20
0
30
0
70
8
0
VERTEX
8
0
62
5
10
-0.042426407
20
0.12
30
0
70
32
0
VERTEX
8
0
62
5
10
-0.028284271
20
0.12
30
0
70
32
0
SEQEND
8
0
0
POLYLINE
8
0
62
5
66
1
10
0
20
0
30
0
70
8
0
VERTEX
8
0
62
5
10
-0.084852814
20
0.1
30
0
70
32
0
VERTEX
8
0
62
5
10
-0.084852814
20
0.14
30
0
70
32
0
SEQEND
8
0
0
POLYLINE
8
0
62
5
66
1
10
0
20
0
30
0
70
8
0
VERTEX
8
0
62
5
10
-0.056568542
20
0.1
30
0
70
32
0
VERTEX
8
0
62
5
10
-0.056568542
20
0.14
30
0
70
32
0
SEQEND
8
0
0
POLYLINE
8
0
62
5
66
1
10
0
20
0
30
0
70
8
0
VERTEX
8
0
62
5
10
-0.028284271
20
0.1
30
0
70
32
0
VERTEX
8
0
62
5
10
-0.028284271
20
0.14
30
0
70
32
0
SEQEND
8
0
0
POLYLINE
8
0
62
5
66
1
10
0
20
0
30
0
70
8
0
VERTEX
8
0
62
5
10
-0.11313708
20
0.1
30
0
70
32
0
VERTEX
8
0
62
5
10
-0.11313708
20
0.14
30
0
70
32
0
SEQEND
8
0
0
POLYLINE
8
0
62
5
66
1
10
0
20
0
30
0
70
8
0
VERTEX
8
0
62
5
10
0
20
0.14
30
0
70
32
0
VERTEX
8
0
62
5
10
0
20
0.21535306
30
0
70
32
0
SEQEND
8
0
0
POLYLINE
8
0
62
5
66
1
10
0
20
0
30
0
70
8
0
VERTEX
8
0
62
5
10
0.11313708
20
0.21535306
30
0
70
32
0
VERTEX
8
0
62
5
10
0.11313708
20
0.14
30
0
70
32
0
SEQEND
8
0
0
POLYLINE
8
0
62
5
66
1
10
0
20
0
30
0
70
8
0
VERTEX
8
0
62
5
10
0
20
0.14007104
30
0
70
32
0
VERTEX
8
0
62
5
10
0.028284271
20
0.15061149
30
0
70
32
0
VERTEX
8
0
62
5
10
0.056568542
20
0.15883826
30
0
70
32
0
VERTEX
8
0
62
5
10
0.084852814
20
0.14829782
30
0
70
32
0
VERTEX
8
0
62
5
10
0.11313708
20
0.14007104
30
0
70
32
0
SEQEND
8
0
0
POLYLINE
8
0
62
5
66
1
10
0
20
0
30
0
70
8
0
VERTEX
8
0
62
5
10
0
20
0.17774757
30
0
70
32
0
VERTEX
8
0
62
5
10
0.028284271
20
0.18828802
30
0
70
32
0
VERTEX
8
0
62
5
10
0.056568542
20
0.19651479
30
0
70
32
0
VERTEX
8
0
62
5
10
0.084852814
20
0.18597434
30
0
70
32
0
VERTEX
8
0
62
5
10
0.11313708
20
0.17774757
30
0
70
32
0
SEQEND
8
0
0
POLYLINE
8
0
62
5
66
1
10
0
20
0
30
0
70
8
0
VERTEX
8
0
62
5
10
0
20
0.17760549
30
0
70
32
0
VERTEX
8
0
62
5
10
0.028284271
20
0.16706504
30
0
70
32
0
VERTEX
8
0
62
5
10
0.056568542
20
0.15883826
30
0
70
32
0
VERTEX
8
0
62
5
10
0.084852814
20
0.16937871
30
0
70
32
0
VERTEX
8
0
62
5
10
0.11313708
20
0.17760549
30
0
70
32
0
SEQEND
8
0
0
POLYLINE
8
0
62
5
66
1
10
0
20
0
30
0
70
8
0
VERTEX
8
0
62
5
10
0
20
0.21528202
30
0
70
32
0
VERTEX
8
0
62
5
10
0.028284271
20
0.20474157
30
0
70
32
0
VERTEX
8
0
62
5
10
0.056568542
20
0.19651479
30
0
70
32
0
VERTEX
8
0
62
5
10
0.084852814
20
0.20705524
30
0
70
32
0
VERTEX
8
0
62
5
10
0.11313708
20
0.21528202
30
0
70
32
0
SEQEND
8
0
0
POLYLINE
8
0
62
30
66
1
10
0
20
0
30
0
70
8
0
VERTEX
8
0
62
30
10
0
20
0.15883826
30
0
70
32
0
VERTEX
8
0
62
30
10
0.11313708
20
0.15883826
30
0
70
32
0
SEQEND
8
0
0
POLYLINE
8
0
62
30
66
1
10
0
20
0
30
0
70
8
0
VERTEX
8
0
62
30
10
0
20
0.19651479
30
0
70
32
0
VERTEX
8
0
62
30
10
0.11313708
20
0.19651479
30
0
70
32
0
SEQEND
8
0
0
POLYLINE
8
0
62
30
66
1
10
0
20
0
30
0
70
8
0
VERTEX
8
0
62
30
10
0.028284271
20
0.15061149
30
0
70
32
0
VERTEX
8
0
62
30
10
0.028284271
20
0.15883826
30
0
70
32
0
SEQEND
8
0
0
POLYLINE
8
0
62
30
66
1
10
0
20
0
30
0
70
8
0
VERTEX
8
0
62
30
10
0.056568542
20
0.15883826
30
0
70
32
0
VERTEX
8
0
62
30
10
0.056568542
20
0.15883826
30
0
70
32
0
SEQEND
8
0
0
POLYLINE
8
0
62
30
66
1
10
0
20
0
30
0
70
8
0
VERTEX
8
0
62
30
10
0.084852814
20
0.14829782
30
0
70
32
0
VERTEX
8
0
62
30
10
0.084852814
20
0.15883826
30
0
70
32
0
SEQEND
8
0
0
POLYLINE
8
0
62
30
66
1
10
0
20
0
30
0
70
8
0
VERTEX
8
0
62
30
10
0.028284271
20
0.18828802
30
0
70
32
0
VERTEX
8
0
62
30
10
0.028284271
20
0.19651479
30
0
70
32
0
SEQEND
8
0
0
POLYLINE
8
0
62
30
66
1
10
0
20
0
30
0
70
8
0
VERTEX
8
0
62
30
10
0.056568542
20
0.19651479
30
0
70
32
0
VERTEX
8
0
62
30
10
0.056568542
20
0.19651479
30
0
70
32
0
SEQEND
8
0
0
POLYLINE
8
0
62
30
66
1
10
0
20
0
30
0
70
8
0
VERTEX
8
0
62
30
10
0.084852814
20
0.18597434
30
0
70
32
0
VERTEX
8
0
62
30
10
0.084852814
20
0.19651479
30
0
70
32
0
SEQEND
8
0
0
POLYLINE
8
0
62
5
66
1
10
0
20
0
30
0
70
8
0
VERTEX
8
0
62
5
10
0.028284271
20
0.14
30
0
70
32
0
VERTEX
8
0
62
5
10
0.028284271
20
0.15061149
30
0
70
32
0
SEQEND
8
0
0
POLYLINE
8
0
62
5
66
1
10
0
20
0
30
0
70
8
0
VERTEX
8
0
62
5
10
0.056568542
20
0.14
30
0
70
32
0
VERTEX
8
0
62
5
10
0.056568542
20
0.15883826
30
0
70
32
0
SEQEND
8
0
0
POLYLINE
8
0
62
5
66
1
10
0
20
0
30
0
70
8
0
VERTEX
8
0
62
5
10
0.084852814
20
0.14
30
0
70
32
0
VERTEX
8
0
62
5
10
0.084852814
20
0.14829782
30
0
70
32
0
SEQEND
8
0
0
POLYLINE
8
0
62
5
66
1
10
0
20
0
30
0
70
8
0
VERTEX
8
0
62
5
10
0.028284271
20
0.17767653
30
0
70
32
0
VERTEX
8
0
62
5
10
0.028284271
20
0.18828802
30
0
70
32
0
SEQEND
8
0
0
POLYLINE
8
0
62
5
66
1
10
0
20
0
30
0
70
8
0
VERTEX
8
0
62
5
10
0.056568542
20
0.17767653
30
0
70
32
0
VERTEX
8
0
62
5
10
0.056568542
20
0.19651479
30
0
70
32
0
SEQEND
8
0
0
POLYLINE
8
0
62
5
66
1
10
0
20
0
30
0
70
8
0
VERTEX
8
0
62
5
10
0.084852814
20
0.17767653
30
0
70
32
0
VERTEX
8
0
62
5
10
0.084852814
20
0.18597434
30
0
70
32
0
SEQEND
8
0
0
POLYLINE
8
0
62
5
66
1
10
0
20
0
30
0
70
8
0
VERTEX
8
0
62
5
10
0.028284271
20
0.15883826
30
0
70
32
0
VERTEX
8
0
62
5
10
0.028284271
20
0.17767653
30
0
70
32
0
SEQEND
8
0
0
POLYLINE
8
0
62
5
66
1
10
0
20
0
30
0
70
8
0
VERTEX
8
0
62
5
10
0.056568542
20
0.15883826
30
0
70
32
0
VERTEX
8
0
62
5
10
0.056568542
20
0.17767653
30
0
70
32
0
SEQEND
8
0
0
POLYLINE
8
0
62
5
66
1
10
0
20
0
30
0
70
8
0
VERTEX
8
0
62
5
10
0.084852814
20
0.15883826
30
0
70
32
0
VERTEX
8
0
62
5
10
0.084852814
20
0.17767653
30
0
70
32
0
SEQEND
8
0
0
POLYLINE
8
0
62
5
66
1
10
0
20
0
30
0
70
8
0
VERTEX
8
0
62
5
10
0.028284271
20
0.19651479
30
0
70
32
0
VERTEX
8
0
62
5
10
0.028284271
20
0.21535306
30
0
70
32
0
SEQEND
8
0
0
POLYLINE
8
0
62
5
66
1
10
0
20
0
30
0
70
8
0
VERTEX
8
0
62
5
10
0.056568542
20
0.19651479
30
0
70
32
0
VERTEX
8
0
62
5
10
0.056568542
20
0.21535306
30
0
70
32
0
SEQEND
8
0
0
POLYLINE
8
0
62
5
66
1
10
0
20
0
30
0
70
8
0
VERTEX
8
0
62
5
10
0.084852814
20
0.19651479
30
0
70
32
0
VERTEX
8
0
62
5
10
0.084852814
20
0.21535306
30
0
70
32
0
SEQEND
8
0
0
POLYLINE
8
0
62
30
66
1
10
0
20
0
30
0
70
8
0
VERTEX
8
0
62
30
10
0
20
0.14007104
30
0
70
32
0
VERTEX
8
0
62
30
10
0.010732911
20
0.15883826
30
0
70
32
0
VERTEX
8
0
62
30
10
0
20
0.17760549
30
0
70
32
0
SEQEND
8
0
0
POLYLINE
8
0
62
30
66
1
10
0
20
0
30
0
70
8
0
VERTEX
8
0
62
30
10
0.028284271
20
0.15061149
30
0
70
32
0
VERTEX
8
0
62
30
10
0.036233574
20
0.15883826
30
0
70
32
0
VERTEX
8
0
62
30
10
0.028284271
20
0.16706504
30
0
70
32
0
SEQEND
8
0
0
POLYLINE
8
0
62
30
66
1
10
0
20
0
30
0
70
8
0
VERTEX
8
0
62
30
10
0.056568542
20
0.15883826
30
0
70
32
0
VERTEX
8
0
62
30
10
0.056568542
20
0.15883826
30
0
70
32
0
VERTEX
8
0
62
30
10
0.056568542
20
0.15883826
30
0
70
32
0
SEQEND
8
0
0
POLYLINE
8
0
62
30
66
1
10
0
20
0
30
0
70
8
0
VERTEX
8
0
62
30
10
0.084852814
20
0.14829782
30
0
70
32
0
VERTEX
8
0
62
30
10
0.093633675
20
0.15883826
30
0
70
32
0
VERTEX
8
0
62
30
10
0.084852814
20
0.16937871
30
0
70
32
0
SEQEND
8
0
0
POLYLINE
8
0
62
30
66
1
10
0
20
0
30
0
70
8
0
VERTEX
8
0
62
30
10
0
20
0.17774757
30
0
70
32
0
VERTEX
8
0
62
30
10
0.010732911
20
0.19651479
30
0
70
32
0
VERTEX
8
0
62
30
10
0
20
0.21528202
30
0
70
32
0
SEQEND
8
0
0
POLYLINE
8
0
62
30
66
1
10
0
20
0
30
0
70
8
0
VERTEX
8
0
62
30
10
0.028284271
20
0.18828802
30
0
70
32
0
VERTEX
8
0
62
30
10
0.036233574
20
0.19651479
30
0
70
32
0
VERTEX
8
0
62
30
10
0.028284271
20
0.20474157
30
0
70
32
0
SEQEND
8
0
0
POLYLINE
8
0
62
30
66
1
10
0
20
0
30
0
70
8
0
VERTEX
8
0
62
30
10
0.056568542
20
0.19651479
30
0
70
32
0
VERTEX
8
0
62
30
10
0.056568542
20
0.19651479
30
0
70
32
0
VERTEX
8
0
62
30
10
0.056568542
20
0.19651479
30
0
70
32
0
SEQEND
8
0
0
POLYLINE
8
0
62
30
66
1
10
0
20
0
30
0
70
8
0
VERTEX
8
0
62
30
10
0.084852814
20
0.18597434
30
0
70
32
0
VERTEX
8
0
62
30
10
0.093633675
20
0.19651479
30
0
70
32
0
VERTEX
8
0
62
30
10
0.084852814
20
0.20705524
30
0
70
32
0
SEQEND
8
0
0
POLYLINE
8
0
62
5
66
1
10
0
20
0
30
0
70
8
0
VERTEX
8
0
62
5
10
0.22627417
20
0.21535306
30
0
70
32
0
VERTEX
8
0
62
5
10
0.22627417
20
0.14
30
0
70
32
0
SEQEND
8
0
0
POLYLINE
8
0
62
5
66
1
10
0
20
0
30
0
70
8
0
VERTEX
8
0
62
5
10
0.11313708
20
0.14007104
30
0
70
32
0
VERTEX
8
0
62
5
10
0.14142136
20
0.15061149
30
0
70
32
0
VERTEX
8
0
62
5
10
0.16970563
20
0.15883826
30
0
70
32
0
VERTEX
8
0
62
5
10
0.1979899
20
0.14829782
30
0
70
32
0
VERTEX
8
0
62
5
10
0.22627417
20
0.14007104
30
0
70
32
0
SEQEND
8
0
0
POLYLINE
8
0
62
5
66
1
10
0
20
0
30
0
70
8
0
VERTEX
8
0
62
5
10
0.11313708
20
0.17774757
30
0
70
32
0
VERTEX
8
0
62
5
10
0.14142136
20
0.18828802
30
0
70
32
0
VERTEX
8
0
62
5
10
0.16970563
20
0.19651479
30
0
70
32
0
VERTEX
8
0
62
5
10
0.1979899
20
0.18597434
30
0
70
32
0
VERTEX
8
0
62
5
10
0.22627417
20
0.17774757
30
0
70
32
0
SEQEND
8
0
0
POLYLINE
8
0
62
5
66
1
10
0
20
0
30
0
70
8
0
VERTEX
8
0
62
5
10
0.11313708
20
0.17760549
30
0
70
32
0
VERTEX
8
0
62
5
10
0.14142136
20
0.16706504
30
0
70
32
0
VERTEX
8
0
62
5
10
0.16970563
20
0.15883826
30
0
70
32
0
VERTEX
8
0
62
5
10
0.1979899
20
0.16937871
30
0
70
32
0
VERTEX
8
0
62
5
10
0.22627417
20
0.17760549
30
0
70
32
0
SEQEND
8
0
0
POLYLINE
8
0
62
5
66
1
10
0
20
0
30
0
70
8
0
VERTEX
8
0
62
5
10
0.11313708
20
0.21528202
30
0
70
32
0
VERTEX
8
0
62
5
10
0.14142136
20
0.20474157
30
0
70
32
0
VERTEX
8
0
62
5
10
0.16970563
20
0.19651479
30
0
70
32
0
VERTEX
8
0
62
5
10
0.1979899
20
0.20705524
30
0
70
32
0
VERTEX
8
0
62
5
10
0.22627417
20
0.21528202
30
0
70
32
0
SEQEND
8
0
0
POLYLINE
8
0
62
30
66
1
10
0
20
0
30
0
70
8
0
VERTEX
8
0
62
30
10
0.11313708
20
0.15883826
30
0
70
32
0
VERTEX
8
0
62
30
10
0.22627417
20
0.15883826
30
0
70
32
0
SEQEND
8
0
0
POLYLINE
8
0
62
30
66
1
10
0
20
0
30
0
70
8
0
VERTEX
8
0
62
30
10
0.11313708
20
0.19651479
30
0
70
32
0
VERTEX
8
0
62
30
10
0.22627417
20
0.19651479
30
0
70
32
0
SEQEND
8
0
0
POLYLINE
8
0
62
30
66
1
10
0
20
0
30
0
70
8
0
VERTEX
8
0
62
30
10
0.14142136
20
0.15061149
30
0
70
32
0
VERTEX
8
0
62
30
10
0.14142136
20
0.15883826
30
0
70
32
0
SEQEND
8
0
0
POLYLINE
8
0
62
30
66
1
10
0
20
0
30
0
70
8
0
VERTEX
8
0
62
30
10
0.16970563
20
0.15883826
30
0
70
32
0
VERTEX
8
0
62
30
10
0.16970563
20
0.15883826
30
0
70
32
0
SEQEND
8
0
0
POLYLINE
8
0
62
30
66
1
10
0
20
0
30
0
70
8
0
VERTEX
8
0
62
30
10
0.1979899
20
0.14829782
30
0
70
32
0
VERTEX
8
0
62
30
10
0.1979899
20
0.15883826
30
0
70
32
0
SEQEND
8
0
0
POLYLINE
8
0
62
30
66
1
10
0
20
0
30
0
70
8
0
VERTEX
8
0
62
30
10
0.14142136
20
0.18828802
30
0
70
32
0
VERTEX
8
0
62
30
10
0.14142136
20
0.19651479
30
0
70
32
0
SEQEND
8
0
0
POLYLINE
8
0
62
30
66
1
10
0
20
0
30
0
70
8
0
VERTEX
8
0
62
30
10
0.16970563
20
0.19651479
30
0
70
32
0
VERTEX
8
0
62
30
10
0.16970563
20
0.19651479
30
0
70
32
0
SEQEND
8
0
0
POLYLINE
8
0
62
30
66
1
10
0
20
0
30
0
70
8
0
VERTEX
8
0
62
30
10
0.1979899
20
0.18597434
30
0
70
32
0
VERTEX
8
0
62
30
10
0.1979899
20
0.19651479
30
0
70
32
0
SEQEND
8
0
0
POLYLINE
8
0
62
5
66
1
10
0
20
0
30
0
70
8
0
VERTEX
8
0
62
5
10
0.14142136
20
0.14
30
0
70
32
0
VERTEX
8
0
62
5
10
0.14142136
20
0.15061149
30
0
70
32
0
SEQEND
8
0
0
POLYLINE
8
0
62
5
66
1
10
0
20
0
30
0
70
8
0
VERTEX
8
0
62
5
10
0.16970563
20
0.14
30
0
70
32
0
VERTEX
8
0
62
5
10
0.16970563
20
0.15883826
30
0
70
32
0
SEQEND
8
0
0
POLYLINE
8
0
62
5
66
1
10
0
20
0
30
0
70
8
0
VERTEX
8
0
62
5
10
0.1979899
20
0.14
30
0
70
32
0
VERTEX
8
0
62
5
10
0.1979899
20
0.14829782
30
0
70
32
0
SEQEND
8
0
0
POLYLINE
8
0
62
5
66
1
10
0
20
0
30
0
70
8
0
VERTEX
8
0
62
5
10
0.14142136
20
0.17767653
30
0
70
32
0
VERTEX
8
0
62
5
10
0.14142136
20
0.18828802
30
0
70
32
0
SEQEND
8
0
0
POLYLINE
8
0
62
5
66
1
10
0
20
0
30
0
70
8
0
VERTEX
8
0
62
5
10
0.16970563
20
0.17767653
30
0
70
32
0
VERTEX
8
0
62
5
10
0.16970563
20
0.19651479
30
0
70
32
0
SEQEND
8
0
0
POLYLINE
8
0
62
5
66
1
10
0
20
0
30
0
70
8
0
VERTEX
8
0
62
5
10
0.1979899
20
0.17767653
30
0
70
32
0
VERTEX
8
0
62
5
10
0.1979899
20
0.18597434
30
0
70
32
0
SEQEND
8
0
0
POLYLINE
8
0
62
5
66
1
10
0
20
0
30
0
70
8
0
VERTEX
8
0
62
5
10
0.14142136
20
0.15883826
30
0
70
32
0
VERTEX
8
0
62
5
10
0.14142136
20
0.17767653
30
0
70
32
0
SEQEND
8
0
0
POLYLINE
8
0
62
5
66
1
10
0
20
0
30
0
70
8
0
VERTEX
8
0
62
5
10
0.16970563
20
0.15883826
30
0
70
32
0
VERTEX
8
0
62
5
10
0.16970563
20
0.17767653
30
0
70
32
0
SEQEND
8
0
0
POLYLINE
8
0
62
5
66
1
10
0
20
0
30
0
70
8
0
VERTEX
8
0
62
5
10
0.1979899
20
0.15883826
30
0
70
32
0
VERTEX
8
0
62
5
10
0.1979899
20
0.17767653
30
0
70
32
0
SEQEND
8
0
0
POLYLINE
8
0
62
5
66
1
10
0
20
0
30
0
70
8
0
VERTEX
8
0
62
5
10
0.14142136
20
0.19651479
30
0
70
32
0
VERTEX
8
0
62
5
10
0.14142136
20
0.21535306
30
0
70
32
0
SEQEND
8
0
0
POLYLINE
8
0
62
5
66
1
10
0
20
0
30
0
70
8
0
VERTEX
8
0
62
5
10
0.16970563
20
0.19651479
30
0
70
32
0
VERTEX
8
0
62
5
10
0.16970563
20
0.21535306
30
0
70
32
0
SEQEND
8
0
0
POLYLINE
8
0
62
5
66
1
10
0
20
0
30
0
70
8
0
VERTEX
8
0
62
5
10
0.1979899
20
0.19651479
30
0
70
32
0
VERTEX
8
0
62
5
10
0.1979899
20
0.21535306
30
0
70
32
0
SEQEND
8
0
0
POLYLINE
8
0
62
30
66
1
10
0
20
0
30
0
70
8
0
VERTEX
8
0
62
30
10
0.11313708
20
0.14007104
30
0
70
32
0
VERTEX
8
0
62
30
10
0.12387
20
0.15883826
30
0
70
32
0
VERTEX
8
0
62
30
10
0.11313708
20
0.17760549
30
0
70
32
0
SEQEND
8
0
0
POLYLINE
8
0
62
30
66
1
10
0
20
0
30
0
70
8
0
VERTEX
8
0
62
30
10
0.14142136
20
0.15061149
30
0
70
32
0
VERTEX
8
0
62
30
10
0.14937066
20
0.15883826
30
0
70
32
0
VERTEX
8
0
62
30
10
0.14142136
20
0.16706504
30
0
70
32
0
SEQEND
8
0
0
POLYLINE
8
0
62
30
66
1
10
0
20
0
30
0
70
8
0
VERTEX
8
0
62
30
10
0.16970563
20
0.15883826
30
0
70
32
0
VERTEX
8
0
62
30
10
0.16970563
20
0.15883826
30
0
70
32
0
VERTEX
8
0
62
30
10
0.16970563
20
0.15883826
30
0
70
32
0
SEQEND
8
0
0
POLYLINE
8
0
62
30
66
1
10
0
20
0
30
0
70
8
0
VERTEX
8
0
62
30
10
0.1979899
20
0.14829782
30
0
70
32
0
VERTEX
8
0
62
30
10
0.20677076
20
0.15883826
30
0
70
32
0
VERTEX
8
0
62
30
10
0.1979899
20
0.16937871
30
0
70
32
0
SEQEND
8
0
0
POLYLINE
8
0
62
30
66
1
10
0
20
0
30
0
70
8
0
VERTEX
8
0
62
30
10
0.11313708
20
0.17774757
30
0
70
32
0
VERTEX
8
0
62
30
10
0.12387
20
0.19651479
30
0
70
32
0
VERTEX
8
0
62
30
10
0.11313708
20
0.21528202
30
0
70
32
0
SEQEND
8
0
0
POLYLINE
8
0
62
30
66
1
10
0
20
0
30
0
70
8
0
VERTEX
8
0
62
30
10
0.14142136
20
0.18828802
30
0
70
32
0
VERTEX
8
0
62
30
10
0.14937066
20
0.19651479
30
0
70
32
0
VERTEX
8
0
62
30
10
0.14142136
20
0.20474157
30
0
70
32
0
SEQEND
8
0
0
POLYLINE
8
0
62
30
66
1
10
0
20
0
30
0
70
8
0
VERTEX
8
0
62
30
10
0.16970563
20
0.19651479
30
0
70
32
0
VERTEX
8
0
62
30
10
0.16970563
20
0.19651479
30
0
70
32
0
VERTEX
8
0
62
30
10
0.16970563
20
0.19651479
30
0
70
32
0
SEQEND
8
0
0
POLYLINE
8
0
62
30
66
1
10
0
20
0
30
0
70
8
0
VERTEX
8
0
62
30
10
0.1979899
20
0.18597434
30
0
70
32
0
VERTEX
8
0
62
30
10
0.20677076
20
0.19651479
30
0
70
32
0
VERTEX
8
0
62
30
10
0.1979899
20
0.20705524
30
0
70
32
0
SEQEND
8
0
0
POLYLINE
8
0
62
5
66
1
10
0
20
0
30
0
70
8
0
VERTEX
8
0
62
5
10
-0.11313708
20
0.14
30
0
70
32
0
VERTEX
8
0
62
5
10
-0.11313708
20
0.21535306
30
0
70
32
0
SEQEND
8
0
0
POLYLINE
8
0
62
5
66
1
10
0
20
0
30
0
70
8
0
VERTEX
8
0
62
5
10
-0.11313708
20
0.14007104
30
0
70
32
0
VERTEX
8
0
62
5
10
-0.084852814
20
0.15061149
30
0
70
32
0
VERTEX
8
0
62
5
10
-0.056568542
20
0.15883826
30
0
70
32
0
VERTEX
8
0
62
5
10
-0.028284271
20
0.14829782
30
0
70
32
0
VERTEX
8
0
62
5
10
0
20
0.14007104
30
0
70
32
0
SEQEND
8
0
0
POLYLINE
8
0
62
5
66
1
10
0
20
0
30
0
70
8
0
VERTEX
8
0
62
5
10
-0.11313708
20
0.17774757
30
0
70
32
0
VERTEX
8
0
62
5
10
-0.084852814
20
0.18828802
30
0
70
32
0
VERTEX
8
0
62
5
10
-0.056568542
20
0.19651479
30
0
70
32
0
VERTEX
8
0
62
5
10
-0.028284271
20
0.18597434
30
0
70
32
0
VERTEX
8
0
62
5
10
0
20
0.17774757
30
0
70
32
0
SEQEND
8
0
0
POLYLINE
8
0
62
5
66
1
10
0
20
0
30
0
70
8
0
VERTEX
8
0
62
5
10
-0.11313708
20
0.17760549
30
0
70
32
0
VERTEX
8
0
62
5
10
-0.084852814
20
0.16706504
30
0
70
32
0
VERTEX
8
0
62
5
10
-0.056568542
20
0.15883826
30
0
70
32
0
VERTEX
8
0
62
5
10
-0.028284271
20
0.16937871
30
0
70
32
0
VERTEX
8
0
62
5
10
0
20
0.17760549
30
0
70
32
0
SEQEND
8
0
0
POLYLINE
8
0
62
5
66
1
10
0
20
0
30
0
70
8
0
VERTEX
8
0
62
5
10
-0.11313708
20
0.21528202
30
0
70
32
0
VERTEX
8
0
62
5
10
-0.084852814
20
0.20474157
30
0
70
32
0
VERTEX
8
0
62
5
10
-0.056568542
20
0.19651479
30
0
70
32
0
VERTEX
8
0
62
5
10
-0.028284271
20
0.20705524
30
0
70
32
0
VERTEX
8
0
62
5
10
0
20
0.21528202
30
0
70
32
0
SEQEND
8
0
0
POLYLINE
8
0
62
30
66
1
10
0
20
0
30
0
70
8
0
VERTEX
8
0
62
30
10
-0.11313708
20
0.15883826
30
0
70
32
0
VERTEX
8
0
62
30
10
0
20
0.15883826
30
0
70
32
0
SEQEND
8
0
0
POLYLINE
8
0
62
30
66
1
10
0
20
0
30
0
70
8
0
VERTEX
8
0
62
30
10
-0.11313708
20
0.19651479
30
0
70
32
0
VERTEX
8
0
62
30
10
0
20
0.19651479
30
0
70
32
0
SEQEND
8
0
0
POLYLINE
8
0
62
30
66
1
10
0
20
0
30
0
70
8
0
VERTEX
8
0
62
30
10
-0.084852814
20
0.15061149
30
0
70
32
0
VERTEX
8
0
62
30
10
-0.084852814
20
0.15883826
30
0
70
32
0
SEQEND
8
0
0
POLYLINE
8
0
62
30
66
1
10
0
20
0
30
0
70
8
0
VERTEX
8
0
62
30
10
-0.056568542
20
0.15883826
30
0
70
32
0
VERTEX
8
0
62
30
10
-0.056568542
20
0.15883826
30
0
70
32
0
SEQEND
8
0
0
POLYLINE
8
0
62
30
66
1
10
0
20
0
30
0
70
8
0
VERTEX
8
0
62
30
10
-0.028284271
20
0.14829782
30
0
70
32
0
VERTEX
8
0
62
30
10
-0.028284271
20
0.15883826
30
0
70
32
0
SEQEND
8
0
0
POLYLINE
8
0
62
30
66
1
10
0
20
0
30
0
70
8
0
VERTEX
8
0
62
30
10
-0.084852814
20
0.18828802
30
0
70
32
0
VERTEX
8
0
62
30
10
-0.084852814
20
0.19651479
30
0
70
32
0
SEQEND
8
0
0
POLYLINE
8
0
62
30
66
1
10
0
20
0
30
0
70
8
0
VERTEX
8
0
62
30
10
-0.056568542
20
0.19651479
30
0
70
32
0
VERTEX
8
0
62
30
10
-0.056568542
20
0.19651479
30
0
70
32
0
SEQEND
8
0
0
POLYLINE
8
0
62
30
66
1
10
0
20
0
30
0
70
8
0
VERTEX
8
0
62
30
10
-0.028284271
20
0.18597434
30
0
70
32
0
VERTEX
8
0
62
30
10
-0.028284271
20
0.19651479
30
0
70
32
0
SEQEND
8
0
0
POLYLINE
8
0
62
5
66
1
10
0
20
0
30
0
70
8
0
VERTEX
8
0
62
5
10
-0.084852814
20
0.14
30
0
70
32
0
VERTEX
8
0
62
5
10
-0.084852814
20
0.15061149
30
0
70
32
0
SEQEND
8
0
0
POLYLINE
8
0
62
5
66
1
10
0
20
0
30
0
70
8
0
VERTEX
8
0
62
5
10
-0.056568542
20
0.14
30
0
70
32
0
VERTEX
8
0
62
5
10
-0.056568542
20
0.15883826
30
0
70
32
0
SEQEND
8
0
0
POLYLINE
8
0
62
5
66
1
10
0
20
0
30
0
70
8
0
VERTEX
8
0
62
5
10
-0.028284271
20
0.14
30
0
70
32
0
VERTEX
8
0
62
5
10
-0.028284271
20
0.14829782
30
0
70
32
0
SEQEND
8
0
0
POLYLINE
8
0
62
5
66
1
10
0
20
0
30
0
70
8
0
VERTEX
8
0
62
5
10
-0.084852814
20
0.17767653
30
0
70
32
0
VERTEX
8
0
62
5
10
-0.084852814
20
0.18828802
30
0
70
32
0
SEQEND
8
0
0
POLYLINE
8
0
62
5
66
1
10
0
20
0
30
0
70
8
0
VERTEX
8
0
62
5
10
-0.056568542
20
0.17767653
30
0
70
32
0
VERTEX
8
0
62
5
10
-0.056568542
20
0.19651479
30
0
70
32
0
SEQEND
8
0
0
POLYLINE
8
0
62
5
66
1
10
0
20
0
30
0
70
8
0
VERTEX
8
0
62
5
10
-0.028284271
20
0.17767653
30
0
70
32
0
VERTEX
8
0
62
5
10
-0.028284271
20
0.18597434
30
0
70
32
0
SEQEND
8
0
0
POLYLINE
8
0
62
5
66
1
10
0
20
0
30
0
70
8
0
VERTEX
8
0
62
5
10
-0.084852814
20
0.15883826
30
0
70
32
0
VERTEX
8
0
62
5
10
-0.084852814
20
0.17767653
30
0
70
32
0
SEQEND
8
0
0
POLYLINE
8
0
62
5
66
1
10
0
20
0
30
0
70
8
0
VERTEX
8
0
62
5
10
-0.056568542
20
0.15883826
30
0
70
32
0
VERTEX
8
0
62
5
10
-0.056568542
20
0.17767653
30
0
70
32
0
SEQEND
8
0
0
POLYLINE
8
0
62
5
66
1
10
0
20
0
30
0
70
8
0
VERTEX
8
0
62
5
10
-0.028284271
20
0.15883826
30
0
70
32
0
VERTEX
8
0
62
5
10
-0.028284271
20
0.17767653
30
0
70
32
0
SEQEND
8
0
0
POLYLINE
8
0
62
5
66
1
10
0
20
0
30
0
70
8
0
VERTEX
8
0
62
5
10
-0.084852814
20
0.19651479
30
0
70
32
0
VERTEX
8
0
62
5
10
-0.084852814
20
0.21535306
30
0
70
32
0
SEQEND
8
0
0
POLYLINE
8
0
62
5
66
1
10
0
20
0
30
0
70
8
0
VERTEX
8
0
62
5
10
-0.056568542
20
0.19651479
30
0
70
32
0
VERTEX
8
0
62
5
10
-0.056568542
20
0.21535306
30
0
70
32
0
SEQEND
8
0
0
POLYLINE
8
0
62
5
66
1
10
0
20
0
30
0
70
8
0
VERTEX
8
0
62
5
10
-0.028284271
20
0.19651479
30
0
70
32
0
VERTEX
8
0
62
5
10
-0.028284271
20
0.21535306
30
0
70
32
0
SEQEND
8
0
0
POLYLINE
8
0
62
30
66
1
10
0
20
0
30
0
70
8
0
VERTEX
8
0
62
30
10
-0.11313708
20
0.14007104
30
0
70
32
0
VERTEX
8
0
62
30
10
-0.10240417
20
0.15883826
30
0
70
32
0
VERTEX
8
0
62
30
10
-0.11313708
20
0.17760549
30
0
70
32
0
SEQEND
8
0
0
POLYLINE
8
0
62
30
66
1
10
0
20
0
30
0
70
8
0
VERTEX
8
0
62
30
10
-0.084852814
20
0.15061149
30
0
70
32
0
VERTEX
8
0
62
30
10
-0.076903511
20
0.15883826
30
0
70
32
0
VERTEX
8
0
62
30
10
-0.084852814
20
0.16706504
30
0
70
32
0
SEQEND
8
0
0
POLYLINE
8
0
62
30
66
1
10
0
20
0
30
0
70
8
0
VERTEX
8
0
62
30
10
-0.056568542
20
0.15883826
30
0
70
32
0
VERTEX
8
0
62
30
10
-0.056568542
20
0.15883826
30
0
70
32
0
VERTEX
8
0
62
30
10
-0.056568542
20
0.15883826
30
0
70
32
0
SEQEND
8
0
0
POLYLINE
8
0
62
30
66
1
10
0
20
0
30
0
70
8
0
VERTEX
8
0
62
30
10
-0.028284271
20
0.14829782
30
0
70
32
0
VERTEX
8
0
62
30
10
-0.01950341
20
0.15883826
30
0
70
32
0
VERTEX
8
0
62
30
10
-0.028284271
20
0.16937871
30
0
70
32
0
SEQEND
8
0
0
POLYLINE
8
0
62
30
66
1
10
0
20
0
30
0
70
8
0
VERTEX
8
0
62
30
10
-0.11313708
20
0.17774757
30
0
70
32
0
VERTEX
8
0
62
30
10
-0.10240417
20
0.19651479
30
0
70
32
0
VERTEX
8
0
62
30
10
-0.11313708
20
0.21528202
30
0
70
32
0
SEQEND
8
0
0
POLYLINE
8
0
62
30
66
1
10
0
20
0
30
0
70
8
0
VERTEX
8
0
62
30
10
-0.084852814
20
0.18828802
30
0
70
32
0
VERTEX
8
0
62
30
10
-0.076903511
20
0.19651479
30
0
70
32
0
VERTEX
8
0
62
30
10
-0.084852814
20
0.20474157
30
0
70
32
0
SEQEND
8
0
0
POLYLINE
8
0
62
30
66
1
10
0
20
0
30
0
70
8
0
VERTEX
8
0
62
30
10
-0.056568542
20
0.19651479
30
0
70
32
0
VERTEX
8
0
62
30
10
-0.056568542
20
0.19651479
30
0
70
32
0
VERTEX
8
0
62
30
10
-0.056568542
20
0.19651479
30
0
70
32
0
SEQEND
8
0
0
POLYLINE
8
0
62
30
66
1
10
0
20
0
30
0
70
8
0
VERTEX
8
0
62
30
10
-0.028284271
20
0.18597434
30
0
70
32
0
VERTEX
8
0
62
30
10
-0.01950341
20
0.19651479
30
0
70
32
0
VERTEX
8
0
62
30
10
-0.028284271
20
0.20705524
30
0
70
32
0
SEQEND
8
0
0
POLYLINE
8
0
62
30
66
1
10
0
20
0
30
0
70
8
0
VERTEX
8
0
62
30
10
0
20
0.24854653
30
0
70
32
0
VERTEX
8
0
62
30
10
0.11313708
20
0.24854653
30
0
70
32
0
SEQEND
8
0
0
POLYLINE
8
0
62
30
66
1
10
0
20
0
30
0
70
8
0
VERTEX
8
0
62
30
10
0
20
0.21535306
30
0
70
32
0
VERTEX
8
0
62
30
10
0.11313708
20
0.21535306
30
0
70
32
0
SEQEND
8
0
0
POLYLINE
8
0
62
5
66
1
10
0
20
0
30
0
70
8
0
VERTEX
8
0
62
5
10
0
20
0.21535306
30
0
70
32
0
VERTEX
8
0
62
5
10
0.0098097257
20
0.24854653
30
0
70
32
0
VERTEX
8
0
62
5
10
0.028284271
20
0.21535306
30
0
70
32
0
VERTEX
8
0
62
5
10
0.038093997
20
0.24854653
30
0
70
32
0
VERTEX
8
0
62
5
10
0.056568542
20
0.21535306
30
0
70
32
0
VERTEX
8
0
62
5
10
0.066378268
20
0.24854653
30
0
70
32
0
VERTEX
8
0
62
5
10
0.084852814
20
0.21535306
30
0
70
32
0
VERTEX
8
0
62
5
10
0.094662539
20
0.24854653
30
0
70
32
0
VERTEX
8
0
62
5
10
0.11313708
20
0.21535306
30
0
70
32
0
SEQEND
8
0
0
POLYLINE
8
0
62
5
66
1
10
0
20
0
30
0
70
8
0
VERTEX
8
0
62
5
10
0.028284271
20
0.21535306
30
0
70
32
0
VERTEX
8
0
62
5
10
0.028284271
20
0.21535306
30
0
70
32
0
SEQEND
8
0
0
POLYLINE
8
0
62
5
66
1
10
0
20
0
30
0
70
8
0
VERTEX
8
0
62
5
10
0.056568542
20
0.21535306
30
0
70
32
0
VERTEX
8
0
62
5
10
0.056568542
20
0.21535306
30
0
70
32
0
SEQEND
8
0
0
POLYLINE
8
0
62
5
66
1
10
0
20
0
30
0
70
8
0
VERTEX
8
0
62
5
10
0.084852814
20
0.21535306
30
0
70
32
0
VERTEX
8
0
62
5
10
0.084852814
20
0.21535306
30
0
70
32
0
SEQEND
8
0
0
POLYLINE
8
0
62
5
66
1
10
0
20
0
30
0
70
8
0
VERTEX
8
0
62
5
10
0.0098097257
20
0.24854653
30
0
70
32
0
VERTEX
8
0
62
5
10
0.0098097257
20
0.24854653
30
0
70
32
0
SEQEND
8
0
0
POLYLINE
8
0
62
5
66
1
10
0
20
0
30
0
70
8
0
VERTEX
8
0
62
5
10
0.038093997
20
0.24854653
30
0
70
32
0
VERTEX
8
0
62
5
10
0.038093997
20
0.24854653
30
0
70
32
0
SEQEND
8
0
0
POLYLINE
8
0
62
5
66
1
10
0
20
0
30
0
70
8
0
VERTEX
8
0
62
5
10
0.066378268
20
0.24854653
30
0
70
32
0
VERTEX
8
0
62
5
10
0.066378268
20
0.24854653
30
0
70
32
0
SEQEND
8
0
0
POLYLINE
8
0
62
5
66
1
10
0
20
0
30
0
70
8
0
VERTEX
8
0
62
5
10
0.094662539
20
0.24854653
30
0
70
32
0
VERTEX
8
0
62
5
10
0.094662539
20
0.24854653
30
0
70
32
0
SEQEND
8
0
0
POLYLINE
8
0
62
30
66
1
10
0
20
0
30
0
70
8
0
VERTEX
8
0
62
30
10
0.11313708
20
0.24854653
30
0
70
32
0
VERTEX
8
0
62
30
10
0.22627417
20
0.24854653
30
0
70
32
0
SEQEND
8
0
0
POLYLINE
8
0
62
30
66
1
10
0
20
0
30
0
70
8
0
VERTEX
8
0
62
30
10
0.11313708
20
0.21535306
30
0
70
32
0
VERTEX
8
0
62
30
10
0.22627417
20
0.21535306
30
0
70
32
0
SEQEND
8
0
0
POLYLINE
8
0
62
5
66
1
10
0
20
0
30
0
70
8
0
VERTEX
8
0
62
5
10
0.11313708
20
0.21535306
30
0
70
32
0
VERTEX
8
0
62
5
10
0.12294681
20
0.24854653
30
0
70
32
0
VERTEX
8
0
62
5
10
0.14142136
20
0.21535306
30
0
70
32
0
VERTEX
8
0
62
5
10
0.15123108
20
0.24854653
30
0
70
32
0
VERTEX
8
0
62
5
10
0.16970563
20
0.21535306
30
0
70
32
0
VERTEX
8
0
62
5
10
0.17951535
20
0.24854653
30
0
70
32
0
VERTEX
8
0
62
5
10
0.1979899
20
0.21535306
30
0
70
32
0
VERTEX
8
0
62
5
10
0.20779962
20
0.24854653
30
0
70
32
0
VERTEX
8
0
62
5
10
0.22627417
20
0.21535306
30
0
70
32
0
SEQEND
8
0
0
POLYLINE
8
0
62
5
66
1
10
0
20
0
30
0
70
8
0
VERTEX
8
0
62
5
10
0.14142136
20
0.21535306
30
0
70
32
0
VERTEX
8
0
62
5
10
0.14142136
20
0.21535306
30
0
70
32
0
SEQEND
8
0
0
POLYLINE
8
0
62
5
66
1
10
0
20
0
30
0
70
8
0
VERTEX
8
0
62
5
10
0.16970563
20
0.21535306
30
0
70
32
0
VERTEX
8
0
62
5
10
0.16970563
20
0.21535306
30
0
70
32
0
SEQEND
8
0
0
POLYLINE
8
0
62
5
66
1
10
0
20
0
30
0
70
8
0
VERTEX
8
0
62
5
10
0.1979899
20
0.21535306
30
0
70
32
0
VERTEX
8
0
62
5
10
0.1979899
20
0.21535306
30
0
70
32
0
SEQEND
8
0
0
POLYLINE
8
0
62
5
66
1
10
0
20
0
30
0
70
8
0
VERTEX
8
0
62
5
10
0.12294681
20
0.24854653
30
0
70
32
0
VERTEX
8
0
62
5
10
0.12294681
20
0.24854653
30
0
70
32
0
SEQEND
8
0
0
POLYLINE
8
0
62
5
66
1
10
0
20
0
30
0
70
8
0
VERTEX
8
0
62
5
10
0.15123108
20
0.24854653
30
0
70
32
0
VERTEX
8
0
62
5
10
0.15123108
20
0.24854653
30
0
70
32
0
SEQEND
8
0
0
POLYLINE
8
0
62
5
66
1
10
0
20
0
30
0
70
8
0
VERTEX
8
0
62
5
10
0.17951535
20
0.24854653
30
0
70
32
0
VERTEX
8
0
62
5
10
0.17951535
20
0.24854653
30
0
70
32
0
SEQEND
8
0
0
POLYLINE
8
0
62
5
66
1
10
0
20
0
30
0
70
8
0
VERTEX
8
0
62
5
10
0.20779962
20
0.24854653
30
0
70
32
0
VERTEX
8
0
62
5
10
0.20779962
20
0.24854653
30
0
70
32
0
SEQEND
8
0
0
POLYLINE
8
0
62
30
66
1
10
0
20
0
30
0
70
8
0
VERTEX
8
0
62
30
10
-0.11313708
20
0.24854653
30
0
70
32
0
VERTEX
8
0
62
30
10
0
20
0.24854653
30
0
70
32
0
SEQEND
8
0
0
POLYLINE
8
0
62
30
66
1
10
0
20
0
30
0
70
8
0
VERTEX
8
0
62
30
10
-0.11313708
20
0.21535306
30
0
70
32
0
VERTEX
8
0
62
30
10
0
20
0.21535306
30
0
70
32
0
SEQEND
8
0
0
POLYLINE
8
0
62
5
66
1
10
0
20
0
30
0
70
8
0
VERTEX
8
0
62
5
10
-0.11313708
20
0.21535306
30
0
70
32
0
VERTEX
8
0
62
5
10
-0.10332736
20
0.24854653
30
0
70
32
0
VERTEX
8
0
62
5
10
-0.084852814
20
0.21535306
30
0
70
32
0
VERTEX
8
0
62
5
10
-0.075043088
20
0.24854653
30
0
70
32
0
VERTEX
8
0
62
5
10
-0.056568542
20
0.21535306
30
0
70
32
0
VERTEX
8
0
62
5
10
-0.046758817
20
0.24854653
30
0
70
32
0
VERTEX
8
0
62
5
10
-0.028284271
20
0.21535306
30
0
70
32
0
VERTEX
8
0
62
5
10
-0.018474546
20
0.24854653
30
0
70
32
0
VERTEX
8
0
62
5
10
0
20
0.21535306
30
0
70
32
0
SEQEND
8
0
0
POLYLINE
8
0
62
5
66
1
10
0
20
0
30
0
70
8
0
VERTEX
8
0
62
5
10
-0.084852814
20
0.21535306
30
0
70
32
0
VERTEX
8
0
62
5
10
-0.084852814
20
0.21535306
30
0
70
32
0
SEQEND
8
0
0
POLYLINE
8
0
62
5
66
1
10
0
20
0
30
0
70
8
0
VERTEX
8
0
62
5
10
-0.056568542
20
0.21535306
30
0
70
32
0
VERTEX
8
0
62
5
10
-0.056568542
20
0.21535306
30
0
70
32
0
SEQEND
8
0
0
POLYLINE
8
0
62
5
66
1
10
0
20
0
30
0
70
8
0
VERTEX
8
0
62
5
10
-0.028284271
20
0.21535306
30
0
70
32
0
VERTEX
8
0
62
5
10
-0.028284271
20
0.21535306
30
0
70
32
0
SEQEND
8
0
0
POLYLINE
8
0
62
5
66
1
10
0
20
0
30
0
70
8
0
VERTEX
8
0
62
5
10
-0.10332736
20
0.24854653
30
0
70
32
0
VERTEX
8
0
62
5
10
-0.10332736
20
0.24854653
30
0
70
32
0
SEQEND
8
0
0
POLYLINE
8
0
62
5
66
1
10
0
20
0
30
0
70
8
0
VERTEX
8
0
62
5
10
-0.075043088
20
0.24854653
30
0
70
32
0
VERTEX
8
0
62
5
10
-0.075043088
20
0.24854653
30
0
70
32
0
SEQEND
8
0
0
POLYLINE
8
0
62
5
66
1
10
0
20
0
30
0
70
8
0
VERTEX
8
0
62
5
10
-0.046758817
20
0.24854653
30
0
70
32
0
VERTEX
8
0
62
5
10
-0.046758817
20
0.24854653
30
0
70
32
0
SEQEND
8
0
0
POLYLINE
8
0
62
5
66
1
10
0
20
0
30
0
70
8
0
VERTEX
8
0
62
5
10
-0.018474546
20
0.24854653
30
0
70
32
0
VERTEX
8
0
62
5
10
-0.018474546
20
0.24854653
30
0
70
32
0
SEQEND
8
0
0
POLYLINE
8
0
62
5
66
1
10
0
20
0
30
0
70
8
0
VERTEX
8
0
62
5
10
0.0098097257
20
0.24854653
30
0
70
32
0
VERTEX
8
0
62
5
10
0.0098097257
20
0.3795629
30
0
70
32
0
SEQEND
8
0
0
POLYLINE
8
0
62
5
66
1
10
0
20
0
30
0
70
8
0
VERTEX
8
0
62
5
10
0.12294681
20
0.24854653
30
0
70
32
0
VERTEX
8
0
62
5
10
0.12294681
20
0.3795629
30
0
70
32
0
SEQEND
8
0
0
POLYLINE
8
0
62
5
66
1
10
0
20
0
30
0
70
8
0
VERTEX
8
0
62
5
10
0.038093997
20
0.24854653
30
0
70
32
0
VERTEX
8
0
62
5
10
0.038093997
20
0.3795629
30
0
70
32
0
SEQEND
8
0
0
POLYLINE
8
0
62
5
66
1
10
0
20
0
30
0
70
8
0
VERTEX
8
0
62
5
10
0.066378268
20
0.24854653
30
0
70
32
0
VERTEX
8
0
62
5
10
0.066378268
20
0.3795629
30
0
70
32
0
SEQEND
8
0
0
POLYLINE
8
0
62
5
66
1
10
0
20
0
30
0
70
8
0
VERTEX
8
0
62
5
10
0.094662539
20
0.24854653
30
0
70
32
0
VERTEX
8
0
62
5
10
0.094662539
20
0.3795629
30
0
70
32
0
SEQEND
8
0
0
POLYLINE
8
0
62
5
66
1
10
0
20
0
30
0
70
8
0
VERTEX
8
0
62
5
10
0.2360839
20
0.24854653
30
0
70
32
0
VERTEX
8
0
62
5
10
0.2360839
20
0.3795629
30
0
70
32
0
SEQEND
8
0
0
POLYLINE
8
0
62
5
66
1
10
0
20
0
30
0
70
8
0
VERTEX
8
0
62
5
10
0.15123108
20
0.24854653
30
0
70
32
0
VERTEX
8
0
62
5
10
0.15123108
20
0.3795629
30
0
70
32
0
SEQEND
8
0
0
POLYLINE
8
0
62
5
66
1
10
0
20
0
30
0
70
8
0
VERTEX
8
0
62
5
10
0.17951535
20
0.24854653
30
0
70
32
0
VERTEX
8
0
62
5
10
0.17951535
20
0.3795629
30
0
70
32
0
SEQEND
8
0
0
POLYLINE
8
0
62
5
66
1
10
0
20
0
30
0
70
8
0
VERTEX
8
0
62
5
10
0.20779962
20
0.24854653
30
0
70
32
0
VERTEX
8
0
62
5
10
0.20779962
20
0.3795629
30
0
70
32
0
SEQEND
8
0
0
POLYLINE
8
0
62
5
66
1
10
0
20
0
30
0
70
8
0
VERTEX
8
0
62
5
10
-0.10332736
20
0.24854653
30
0
70
32
0
VERTEX
8
0
62
5
10
-0.10332736
20
0.3795629
30
0
70
32
0
SEQEND
8
0
0
POLYLINE
8
0
62
5
66
1
10
0
20
0
30
0
70
8
0
VERTEX
8
0
62
5
10
-0.075043088
20
0.24854653
30
0
70
32
0
VERTEX
8
0
62
5
10
-0.075043088
20
0.3795629
30
0
70
32
0
SEQEND
8
0
0
POLYLINE
8
0
62
5
66
1
10
0
20
0
30
0
70
8
0
VERTEX
8
0
62
5
10
-0.046758817
20
0.24854653
30
0
70
32
0
VERTEX
8
0
62
5
10
-0.046758817
20
0.3795629
30
0
70
32
0
SEQEND
8
0
0
POLYLINE
8
0
62
5
66
1
10
0
20
0
30
0
70
8
0
VERTEX
8
0
62
5
10
-0.018474546
20
0.24854653
30
0
70
32
0
VERTEX
8
0
62
5
10
-0.018474546
20
0.3795629
30
0
70
32
0
SEQEND
8
0
0
POLYLINE
8
0
62
5
66
1
10
0
20
0
30
0
70
8
0
VERTEX
8
0
62
5
10
0.0098097257
20
0.3795629
30
0
70
32
0
VERTEX
8
0
62
5
10
0.0098097257
20
0.41651972
30
0
70
32
0
SEQEND
8
0
0
POLYLINE
8
0
62
5
66
1
10
0
20
0
30
0
70
8
0
VERTEX
8
0
62
5
10
0.12294681
20
0.41651972
30
0
70
32
0
VERTEX
8
0
62
5
10
0.12294681
20
0.3795629
30
0
70
32
0
SEQEND
8
0
0
POLYLINE
8
0
62
5
66
1
10
0
20
0
30
0
70
8
0
VERTEX
8
0
62
5
10
0.0098097257
20
0.38440169
30
0
70
32
0
VERTEX
8
0
62
5
10
0.038093997
20
0.3809737
30
0
70
32
0
VERTEX
8
0
62
5
10
0.066378268
20
0.39461332
30
0
70
32
0
VERTEX
8
0
62
5
10
0.094662539
20
0.39804131
30
0
70
32
0
VERTEX
8
0
62
5
10
0.12294681
20
0.38440169
30
0
70
32
0
SEQEND
8
0
0
POLYLINE
8
0
62
5
66
1
10
0
20
0
30
0
70
8
0
SEQEND
8
0
0
POLYLINE
8
0
62
5
66
1
10
0
20
0
30
0
70
8
0
VERTEX
8
0
62
5
10
0.0098097257
20
0.41168093
30
0
70
32
0
VERTEX
8
0
62
5
10
0.038093997
20
0.41510892
30
0
70
32
0
VERTEX
8
0
62
5
10
0.066378268
20
0.4014693
30
0
70
32
0
VERTEX
8
0
62
5
10
0.094662539
20
0.39804131
30
0
70
32
0
VERTEX
8
0
62
5
10
0.12294681
20
0.41168093
30
0
70
32
0
SEQEND
8
0
0
POLYLINE
8
0
62
30
66
1
10
0
20
0
30
0
70
8
0
VERTEX
8
0
62
30
10
0.0098097257
20
0.39804131
30
0
70
32
0
VERTEX
8
0
62
30
10
0.12294681
20
0.39804131
30
0
70
32
0
SEQEND
8
0
0
POLYLINE
8
0
62
30
66
1
10
0
20
0
30
0
70
8
0
VERTEX
8
0
62
30
10
0.038093997
20
0.3809737
30
0
70
32
0
VERTEX
8
0
62
30
10
0.038093997
20
0.39804131
30
0
70
32
0
SEQEND
8
0
0
POLYLINE
8
0
62
30
66
1
10
0
20
0
30
0
70
8
0
VERTEX
8
0
62
30
10
0.066378268
20
0.39461332
30
0
70
32
0
VERTEX
8
0
62
30
10
0.066378268
20
0.39804131
30
0
70
32
0
SEQEND
8
0
0
POLYLINE
8
0
62
30
66
1
10
0
20
0
30
0
70
8
0
VERTEX
8
0
62
30
10
0.094662539
20
0.39804131
30
0
70
32
0
VERTEX
8
0
62
30
10
0.094662539
20
0.39804131
30
0
70
32
0
SEQEND
8
0
0
POLYLINE
8
0
62
5
66
1
10
0
20
0
30
0
70
8
0
VERTEX
8
0
62
5
10
0.038093997
20
0.3795629
30
0
70
32
0
VERTEX
8
0
62
5
10
0.038093997
20
0.3809737
30
0
70
32
0
SEQEND
8
0
0
POLYLINE
8
0
62
5
66
1
10
0
20
0
30
0
70
8
0
VERTEX
8
0
62
5
10
0.066378268
20
0.3795629
30
0
70
32
0
VERTEX
8
0
62
5
10
0.066378268
20
0.39461332
30
0
70
32
0
SEQEND
8
0
0
POLYLINE
8
0
62
5
66
1
10
0
20
0
30
0
70
8
0
VERTEX
8
0
62
5
10
0.094662539
20
0.3795629
30
0
70
32
0
VERTEX
8
0
62
5
10
0.094662539
20
0.39804131
30
0
70
32
0
SEQEND
8
0
0
POLYLINE
8
0
62
5
66
1
10
0
20
0
30
0
70
8
0
VERTEX
8
0
62
5
10
0.038093997
20
0.39804131
30
0
70
32
0
VERTEX
8
0
62
5
10
0.038093997
20
0.41651972
30
0
70
32
0
SEQEND
8
0
0
POLYLINE
8
0
62
5
66
1
10
0
20
0
30
0
70
8
0
VERTEX
8
0
62
5
10
0.066378268
20
0.39804131
30
0
70
32
0
VERTEX
8
0
62
5
10
0.066378268
20
0.41651972
30
0
70
32
0
SEQEND
8
0
0
POLYLINE
8
0
62
5
66
1
10
0
20
0
30
0
70
8
0
VERTEX
8
0
62
5
10
0.094662539
20
0.39804131
30
0
70
32
0
VERTEX
8
0
62
5
10
0.094662539
20
0.41651972
30
0
70
32
0
SEQEND
8
0
0
POLYLINE
8
0
62
30
66
1
10
0
20
0
30
0
70
8
0
VERTEX
8
0
62
30
10
0.0098097257
20
0.38440169
30
0
70
32
0
VERTEX
8
0
62
30
10
0.019039194
20
0.39804131
30
0
70
32
0
VERTEX
8
0
62
30
10
0.0098097257
20
0.41168093
30
0
70
32
0
SEQEND
8
0
0
POLYLINE
8
0
62
30
66
1
10
0
20
0
30
0
70
8
0
VERTEX
8
0
62
30
10
0.038093997
20
0.3809737
30
0
70
32
0
VERTEX
8
0
62
30
10
0.048015703
20
0.39804131
30
0
70
32
0
VERTEX
8
0
62
30
10
0.038093997
20
0.41510892
30
0
70
32
0
SEQEND
8
0
0
POLYLINE
8
0
62
30
66
1
10
0
20
0
30
0
70
8
0
VERTEX
8
0
62
30
10
0.066378268
20
0.39461332
30
0
70
32
0
VERTEX
8
0
62
30
10
0.070914072
20
0.39804131
30
0
70
32
0
VERTEX
8
0
62
30
10
0.066378268
20
0.4014693
30
0
70
32
0
SEQEND
8
0
0
POLYLINE
8
0
62
30
66
1
10
0
20
0
30
0
70
8
0
VERTEX
8
0
62
30
10
0.094662539
20
0.39804131
30
0
70
32
0
VERTEX
8
0
62
30
10
0.094662539
20
0.39804131
30
0
70
32
0
VERTEX
8
0
62
30
10
0.094662539
20
0.39804131
30
0
70
32
0
SEQEND
8
0
0
POLYLINE
8
0
62
5
66
1
10
0
20
0
30
0
70
8
0
VERTEX
8
0
62
5
10
0.2360839
20
0.41651972
30
0
70
32
0
VERTEX
8
0
62
5
10
0.2360839
20
0.3795629
30
0
70
32
0
SEQEND
8
0
0
POLYLINE
8
0
62
5
66
1
10
0
20
0
30
0
70
8
0
VERTEX
8
0
62
5
10
0.12294681
20
0.38440169
30
0
70
32
0
VERTEX
8
0
62
5
10
0.15123108
20
0.3809737
30
0
70
32
0
VERTEX
8
0
62
5
10
0.17951535
20
0.39461332
30
0
70
32
0
VERTEX
8
0
62
5
10
0.20779962
20
0.39804131
30
0
70
32
0
VERTEX
8
0
62
5
10
0.2360839
20
0.38440169
30
0
70
32
0
SEQEND
8
0
0
POLYLINE
8
0
62
5
66
1
10
0
20
0
30
0
70
8
0
SEQEND
8
0
0
POLYLINE
8
0
62
5
66
1
10
0
20
0
30
0
70
8
0
VERTEX
8
0
62
5
10
0.12294681
20
0.41168093
30
0
70
32
0
VERTEX
8
0
62
5
10
0.15123108
20
0.41510892
30
0
70
32
0
VERTEX
8
0
62
5
10
0.17951535
20
0.4014693
30
0
70
32
0
VERTEX
8
0
62
5
10
0.20779962
20
0.39804131
30
0
70
32
0
VERTEX
8
0
62
5
10
0.2360839
20
0.41168093
30
0
70
32
0
SEQEND
8
0
0
POLYLINE
8
0
62
30
66
1
10
0
20
0
30
0
70
8
0
VERTEX
8
0
62
30
10
0.12294681
20
0.39804131
30
0
70
32
0
VERTEX
8
0
62
30
10
0.2360839
20
0.39804131
30
0
70
32
0
SEQEND
8
0
0
POLYLINE
8
0
62
30
66
1
10
0
20
0
30
0
70
8
0
VERTEX
8
0
62
30
10
0.15123108
20
0.3809737
30
0
70
32
0
VERTEX
8
0
62
30
10
0.15123108
20
0.39804131
30
0
70
32
0
SEQEND
8
0
0
POLYLINE
8
0
62
30
66
1
10
0
20
0
30
0
70
8
0
VERTEX
8
0
62
30
10
0.17951535
20
0.39461332
30
0
70
32
0
VERTEX
8
0
62
30
10
0.17951535
20
0.39804131
30
0
70
32
0
SEQEND
8
0
0
POLYLINE
8
0
62
30
66
1
10
0
20
0
30
0
70
8
0
VERTEX
8
0
62
30
10
0.20779962
20
0.39804131
30
0
70
32
0
VERTEX
8
0
62
30
10
0.20779962
20
0.39804131
30
0
70
32
0
SEQEND
8
0
0
POLYLINE
8
0
62
5
66
1
10
0
20
0
30
0
70
8
0
VERTEX
8
0
62
5
10
0.15123108
20
0.3795629
30
0
70
32
0
VERTEX
8
0
62
5
10
0.15123108
20
0.3809737
30
0
70
32
0
SEQEND
8
0
0
POLYLINE
8
0
62
5
66
1
10
0
20
0
30
0
70
8
0
VERTEX
8
0
62
5
10
0.17951535
20
0.3795629
30
0
70
32
0
VERTEX
8
0
62
5
10
0.17951535
20
0.39461332
30
0
70
32
0
SEQEND
8
0
0
POLYLINE
8
0
62
5
66
1
10
0
20
0
30
0
70
8
0
VERTEX
8
0
62
5
10
0.20779962
20
0.3795629
30
0
70
32
0
VERTEX
8
0
62
5
10
0.20779962
20
0.39804131
30
0
70
32
0
SEQEND
8
0
0
POLYLINE
8
0
62
5
66
1
10
0
20
0
30
0
70
8
0
VERTEX
8
0
62
5
10
0.15123108
20
0.39804131
30
0
70
32
0
VERTEX
8
0
62
5
10
0.15123108
20
0.41651972
30
0
70
32
0
SEQEND
8
0
0
POLYLINE
8
0
62
5
66
1
10
0
20
0
30
0
70
8
0
VERTEX
8
0
62
5
10
0.17951535
20
0.39804131
30
0
70
32
0
VERTEX
8
0
62
5
10
0.17951535
20
0.41651972
30
0
70
32
0
SEQEND
8
0
0
POLYLINE
8
0
62
5
66
1
10
0
20
0
30
0
70
8
0
VERTEX
8
0
62
5
10
0.20779962
20
0.39804131
30
0
70
32
0
VERTEX
8
0
62
5
10
0.20779962
20
0.41651972
30
0
70
32
0
SEQEND
8
0
0
POLYLINE
8
0
62
30
66
1
10
0
20
0
30
0
70
8
0
VERTEX
8
0
62
30
10
0.12294681
20
0.38440169
30
0
70
32
0
VERTEX
8
0
62
30
10
0.13217628
20
0.39804131
30
0
70
32
0
VERTEX
8
0
62
30
10
0.12294681
20
0.41168093
30
0
70
32
0
SEQEND
8
0
0
POLYLINE
8
0
62
30
66
1
10
0
20
0
30
0
70
8
0
VERTEX
8
0
62
30
10
0.15123108
20
0.3809737
30
0
70
32
0
VERTEX
8
0
62
30
10
0.16115279
20
0.39804131
30
0
70
32
0
VERTEX
8
0
62
30
10
0.15123108
20
0.41510892
30
0
70
32
0
SEQEND
8
0
0
POLYLINE
8
0
62
30
66
1
10
0
20
0
30
0
70
8
0
VERTEX
8
0
62
30
10
0.17951535
20
0.39461332
30
0
70
32
0
VERTEX
8
0
62
30
10
0.18405116
20
0.39804131
30
0
70
32
0
VERTEX
8
0
62
30
10
0.17951535
20
0.4014693
30
0
70
32
0
SEQEND
8
0
0
POLYLINE
8
0
62
30
66
1
10
0
20
0
30
0
70
8
0
VERTEX
8
0
62
30
10
0.20779962
20
0.39804131
30
0
70
32
0
VERTEX
8
0
62
30
10
0.20779962
20
0.39804131
30
0
70
32
0
VERTEX
8
0
62
30
10
0.20779962
20
0.39804131
30
0
70
32
0
SEQEND
8
0
0
POLYLINE
8
0
62
5
66
1
10
0
20
0
30
0
70
8
0
VERTEX
8
0
62
5
10
-0.10332736
20
0.3795629
30
0
70
32
0
VERTEX
8
0
62
5
10
-0.10332736
20
0.41651972
30
0
70
32
0
SEQEND
8
0
0
POLYLINE
8
0
62
5
66
1
10
0
20
0
30
0
70
8
0
VERTEX
8
0
62
5
10
-0.10332736
20
0.38440169
30
0
70
32
0
VERTEX
8
0
62
5
10
-0.075043088
20
0.3809737
30
0
70
32
0
VERTEX
8
0
62
5
10
-0.046758817
20
0.39461332
30
0
70
32
0
VERTEX
8
0
62
5
10
-0.018474546
20
0.39804131
30
0
70
32
0
VERTEX
8
0
62
5
10
0.0098097257
20
0.38440169
30
0
70
32
0
SEQEND
8
0
0
POLYLINE
8
0
62
5
66
1
10
0
20
0
30
0
70
8
0
SEQEND
8
0
0
POLYLINE
8
0
62
5
66
1
10
0
20
0
30
0
70
8
0
VERTEX
8
0
62
5
10
-0.10332736
20
0.41168093
30
0
70
32
0
VERTEX
8
0
62
5
10
-0.075043088
20
0.41510892
30
0
70
32
0
VERTEX
8
0
62
5
10
-0.046758817
20
0.4014693
30
0
70
32
0
VERTEX
8
0
62
5
10
-0.018474546
20
0.39804131
30
0
70
32
0
VERTEX
8
0
62
5
10
0.0098097257
20
0.41168093
30
0
70
32
0
SEQEND
8
0
0
POLYLINE
8
0
62
30
66
1
10
0
20
0
30
0
70
8
0
VERTEX
8
0
62
30
10
-0.10332736
20
0.39804131
30
0
70
32
0
VERTEX
8
0
62
30
10
0.0098097257
20
0.39804131
30
0
70
32
0
SEQEND
8
0
0
POLYLINE
8
0
62
30
66
1
10
0
20
0
30
0
70
8
0
VERTEX
8
0
62
30
10
-0.075043088
20
0.3809737
30
0
70
32
0
VERTEX
8
0
62
30
10
-0.075043088
20
0.39804131
30
0
70
32
0
SEQEND
8
0
0
POLYLINE
8
0
62
30
66
1
10
0
20
0
30
0
70
8
0
VERTEX
8
0
62
30
10
-0.046758817
20
0.39461332
30
0
70
32
0
VERTEX
8
0
62
30
10
-0.046758817
20
0.39804131
30
0
70
32
0
SEQEND
8
0
0
POLYLINE
8
0
62
30
66
1
10
0
20
0
30
0
70
8
0
VERTEX
8
0
62
30
10
-0.018474546
20
0.39804131
30
0
70
32
0
VERTEX
8
0
62
30
10
-0.018474546
20
0.39804131
30
0
70
32
0
SEQEND
8
0
0
POLYLINE
8
0
62
5
66
1
10
0
20
0
30
0
70
8
0
VERTEX
8
0
62
5
10
-0.075043088
20
0.3795629
30
0
70
32
0
VERTEX
8
0
62
5
10
-0.075043088
20
0.3809737
30
0
70
32
0
SEQEND
8
0
0
POLYLINE
8
0
62
5
66
1
10
0
20
0
30
0
70
8
0
VERTEX
8
0
62
5
10
-0.046758817
20
0.3795629
30
0
70
32
0
VERTEX
8
0
62
5
10
-0.046758817
20
0.39461332
30
0
70
32
0
SEQEND
8
0
0
POLYLINE
8
0
62
5
66
1
10
0
20
0
30
0
70
8
0
VERTEX
8
0
62
5
10
-0.018474546
20
0.3795629
30
0
70
32
0
VERTEX
8
0
62
5
10
-0.018474546
20
0.39804131
30
0
70
32
0
SEQEND
8
0
0
POLYLINE
8
0
62
5
66
1
10
0
20
0
30
0
70
8
0
VERTEX
8
0
62
5
10
-0.075043088
20
0.39804131
30
0
70
32
0
VERTEX
8
0
62
5
10
-0.075043088
20
0.41651972
30
0
70
32
0
SEQEND
8
0
0
POLYLINE
8
0
62
5
66
1
10
0
20
0
30
0
70
8
0
VERTEX
8
0
62
5
10
-0.046758817
20
0.39804131
30
0
70
32
0
VERTEX
8
0
62
5
10
-0.046758817
20
0.41651972
30
0
70
32
0
SEQEND
8
0
0
POLYLINE
8
0
62
5
66
1
10
0
20
0
30
0
70
8
0
VERTEX
8
0
62
5
10
-0.018474546
20
0.39804131
30
0
70
32
0
VERTEX
8
0
62
5
10
-0.018474546
20
0.41651972
30
0
70
32
0
SEQEND
8
0
0
POLYLINE
8
0
62
30
66
1
10
0
20
0
30
0
70
8
0
VERTEX
8
0
62
30
10
-0.10332736
20
0.38440169
30
0
70
32
0
VERTEX
8
0
62
30
10
-0.094097891
20
0.39804131
30
0
70
32
0
VERTEX
8
0
62
30
10
-0.10332736
20
0.41168093
30
0
70
32
0
SEQEND
8
0
0
POLYLINE
8
0
62
30
66
1
10
0
20
0
30
0
70
8
0
VERTEX
8
0
62
30
10
-0.075043088
20
0.3809737
30
0
70
32
0
VERTEX
8
0
62
30
10
-0.065121381
20
0.39804131
30
0
70
32
0
VERTEX
8
0
62
30
10
-0.075043088
20
0.41510892
30
0
70
32
0
SEQEND
8
0
0
POLYLINE
8
0
62
30
66
1
10
0
20
0
30
0
70
8
0
VERTEX
8
0
62
30
10
-0.046758817
20
0.39461332
30
0
70
32
0
VERTEX
8
0
62
30
10
-0.042223013
20
0.39804131
30
0
70
32
0
VERTEX
8
0
62
30
10
-0.046758817
20
0.4014693
30
0
70
32
0
SEQEND
8
0
0
POLYLINE
8
0
62
30
66
1
10
0
20
0
30
0
70
8
0
VERTEX
8
0
62
30
10
-0.018474546
20
0.39804131
30
0
70
32
0
VERTEX
8
0
62
30
10
-0.018474546
20
0.39804131
30
0
70
32
0
VERTEX
8
0
62
30
10
-0.018474546
20
0.39804131
30
0
70
32
0
SEQEND
8
0
0
POLYLINE
8
0
62
5
66
1
10
0
20
0
30
0
70
8
0
VERTEX
8
0
62
5
10
0.0098097257
20
0.41651972
30
0
70
32
0
VERTEX
8
0
62
5
10
0.0098097257
20
0.45651972
30
0
70
32
0
SEQEND
8
0
0
POLYLINE
8
0
62
5
66
1
10
0
20
0
30
0
70
8
0
VERTEX
8
0
62
5
10
0.12294681
20
0.45651972
30
0
70
32
0
VERTEX
8
0
62
5
10
0.12294681
20
0.41651972
30
0
70
32
0
SEQEND
8
0
0
POLYLINE
8
0
62
5
66
1
10
0
20
0
30
0
70
8
0
VERTEX
8
0
62
5
10
0.0098097257
20
0.41651972
30
0
70
32
0
VERTEX
8
0
62
5
10
0.12294681
20
0.41651972
30
0
70
32
0
SEQEND
8
0
0
POLYLINE
8
0
62
5
66
1
10
0
20
0
30
0
70
8
0
VERTEX
8
0
62
5
10
0.0098097257
20
0.45651972
30
0
70
32
0
VERTEX
8
0
62
5
10
0.12294681
20
0.45651972
30
0
70
32
0
SEQEND
8
0
0
POLYLINE
8
0
62
5
66
1
10
0
20
0
30
0
70
8
0
VERTEX
8
0
62
5
10
0.038093997
20
0.41651972
30
0
70
32
0
VERTEX
8
0
62
5
10
0.038093997
20
0.41651972
30
0
70
32
0
SEQEND
8
0
0
POLYLINE
8
0
62
5
66
1
10
0
20
0
30
0
70
8
0
VERTEX
8
0
62
5
10
0.066378268
20
0.41651972
30
0
70
32
0
VERTEX
8
0
62
5
10
0.066378268
20
0.41651972
30
0
70
32
0
SEQEND
8
0
0
POLYLINE
8
0
62
5
66
1
10
0
20
0
30
0
70
8
0
VERTEX
8
0
62
5
10
0.094662539
20
0.41651972
30
0
70
32
0
VERTEX
8
0
62
5
10
0.094662539
20
0.41651972
30
0
70
32
0
SEQEND
8
0
0
POLYLINE
8
0
62
5
66
1
10
0
20
0
30
0
70
8
0
VERTEX
8
0
62
5
10
0.038093997
20
0.45651972
30
0
70
32
0
VERTEX
8
0
62
5
10
0.038093997
20
0.45651972
30
0
70
32
0
SEQEND
8
0
0
POLYLINE
8
0
62
5
66
1
10
0
20
0
30
0
70
8
0
VERTEX
8
0
62
5
10
0.066378268
20
0.45651972
30
0
70
32
0
VERTEX
8
0
62
5
10
0.066378268
20
0.45651972
30
0
70
32
0
SEQEND
8
0
0
POLYLINE
8
0
62
5
66
1
10
0
20
0
30
0
70
8
0
VERTEX
8
0
62
5
10
0.094662539
20
0.45651972
30
0
70
32
0
VERTEX
8
0
62
5
10
0.094662539
20
0.45651972
30
0
70
32
0
SEQEND
8
0
0
POLYLINE
8
0
62
30
66
1
10
0
20
0
30
0
70
8
0
VERTEX
8
0
62
30
10
0.0098097257
20
0.45651972
30
0
70
32
0
VERTEX
8
0
62
30
10
0.038093997
20
0.41651972
30
0
70
32
0
SEQEND
8
0
0
POLYLINE
8
0
62
30
66
1
10
0
20
0
30
0
70
8
0
VERTEX
8
0
62
30
10
0.038093997
20
0.45651972
30
0
70
32
0
VERTEX
8
0
62
30
10
0.0098097257
20
0.41651972
30
0
70
32
0
SEQEND
8
0
0
POLYLINE
8
0
62
30
66
1
10
0
20
0
30
0
70
8
0
VERTEX
8
0
62
30
10
0.066378268
20
0.45651972
30
0
70
32
0
VERTEX
8
0
62
30
10
0.094662539
20
0.41651972
30
0
70
32
0
SEQEND
8
0
0
POLYLINE
8
0
62
30
66
1
10
0
20
0
30
0
70
8
0
VERTEX
8
0
62
30
10
0.094662539
20
0.45651972
30
0
70
32
0
VERTEX
8
0
62
30
10
0.066378268
20
0.41651972
30
0
70
32
0
SEQEND
8
0
0
POLYLINE
8
0
62
30
66
1
10
0
20
0
30
0
70
8
0
VERTEX
8
0
62
30
10
0.038093997
20
0.43651972
30
0
70
32
0
VERTEX
8
0
62
30
10
0.066378268
20
0.43651972
30
0
70
32
0
SEQEND
8
0
0
POLYLINE
8
0
62
30
66
1
10
0
20
0
30
0
70
8
0
VERTEX
8
0
62
30
10
0.094662539
20
0.43651972
30
0
70
32
0
VERTEX
8
0
62
30
10
0.12294681
20
0.43651972
30
0
70
32
0
SEQEND
8
0
0
POLYLINE
8
0
62
5
66
1
10
0
20
0
30
0
70
8
0
VERTEX
8
0
62
5
10
0.0098097257
20
0.43651972
30
0
70
32
0
VERTEX
8
0
62
5
10
0.023951861
20
0.43651972
30
0
70
32
0
SEQEND
8
0
0
POLYLINE
8
0
62
5
66
1
10
0
20
0
30
0
70
8
0
VERTEX
8
0
62
5
10
0.066378268
20
0.43651972
30
0
70
32
0
VERTEX
8
0
62
5
10
0.080520404
20
0.43651972
30
0
70
32
0
SEQEND
8
0
0
POLYLINE
8
0
62
5
66
1
10
0
20
0
30
0
70
8
0
VERTEX
8
0
62
5
10
0.023951861
20
0.43651972
30
0
70
32
0
VERTEX
8
0
62
5
10
0.038093997
20
0.43651972
30
0
70
32
0
SEQEND
8
0
0
POLYLINE
8
0
62
5
66
1
10
0
20
0
30
0
70
8
0
VERTEX
8
0
62
5
10
0.080520404
20
0.43651972
30
0
70
32
0
VERTEX
8
0
62
5
10
0.094662539
20
0.43651972
30
0
70
32
0
SEQEND
8
0
0
POLYLINE
8
0
62
5
66
1
10
0
20
0
30
0
70
8
0
VERTEX
8
0
62
5
10
0.038093997
20
0.41651972
30
0
70
32
0
VERTEX
8
0
62
5
10
0.038093997
20
0.45651972
30
0
70
32
0
SEQEND
8
0
0
POLYLINE
8
0
62
5
66
1
10
0
20
0
30
0
70
8
0
VERTEX
8
0
62
5
10
0.066378268
20
0.41651972
30
0
70
32
0
VERTEX
8
0
62
5
10
0.066378268
20
0.45651972
30
0
70
32
0
SEQEND
8
0
0
POLYLINE
8
0
62
5
66
1
10
0
20
0
30
0
70
8
0
VERTEX
8
0
62
5
10
0.094662539
20
0.41651972
30
0
70
32
0
VERTEX
8
0
62
5
10
0.094662539
20
0.45651972
30
0
70
32
0
SEQEND
8
0
0
POLYLINE
8
0
62
5
66
1
10
0
20
0
30
0
70
8
0
VERTEX
8
0
62
5
10
0.0098097257
20
0.41651972
30
0
70
32
0
VERTEX
8
0
62
5
10
0.0098097257
20
0.45651972
30
0
70
32
0
SEQEND
8
0
0
POLYLINE
8
0
62
5
66
1
10
0
20
0
30
0
70
8
0
VERTEX
8
0
62
5
10
0.2360839
20
0.45651972
30
0
70
32
0
VERTEX
8
0
62
5
10
0.2360839
20
0.41651972
30
0
70
32
0
SEQEND
8
0
0
POLYLINE
8
0
62
5
66
1
10
0
20
0
30
0
70
8
0
VERTEX
8
0
62
5
10
0.12294681
20
0.41651972
30
0
70
32
0
VERTEX
8
0
62
5
10
0.2360839
20
0.41651972
30
0
70
32
0
SEQEND
8
0
0
POLYLINE
8
0
62
5
66
1
10
0
20
0
30
0
70
8
0
VERTEX
8
0
62
5
10
0.12294681
20
0.45651972
30
0
70
32
0
VERTEX
8
0
62
5
10
0.2360839
20
0.45651972
30
0
70
32
0
SEQEND
8
0
0
POLYLINE
8
0
62
5
66
1
10
0
20
0
30
0
70
8
0
VERTEX
8
0
62
5
10
0.15123108
20
0.41651972
30
0
70
32
0
VERTEX
8
0
62
5
10
0.15123108
20
0.41651972
30
0
70
32
0
SEQEND
8
0
0
POLYLINE
8
0
62
5
66
1
10
0
20
0
30
0
70
8
0
VERTEX
8
0
62
5
10
0.17951535
20
0.41651972
30
0
70
32
0
VERTEX
8
0
62
5
10
0.17951535
20
0.41651972
30
0
70
32
0
SEQEND
8
0
0
POLYLINE
8
0
62
5
66
1
10
0
20
0
30
0
70
8
0
VERTEX
8
0
62
5
10
0.20779962
20
0.41651972
30
0
70
32
0
VERTEX
8
0
62
5
10
0.20779962
20
0.41651972
30
0
70
32
0
SEQEND
8
0
0
POLYLINE
8
0
62
5
66
1
10
0
20
0
30
0
70
8
0
VERTEX
8
0
62
5
10
0.15123108
20
0.45651972
30
0
70
32
0
VERTEX
8
0
62
5
10
0.15123108
20
0.45651972
30
0
70
32
0
SEQEND
8
0
0
POLYLINE
8
0
62
5
66
1
10
0
20
0
30
0
70
8
0
VERTEX
8
0
62
5
10
0.17951535
20
0.45651972
30
0
70
32
0
VERTEX
8
0
62
5
10
0.17951535
20
0.45651972
30
0
70
32
0
SEQEND
8
0
0
POLYLINE
8
0
62
5
66
1
10
0
20
0
30
0
70
8
0
VERTEX
8
0
62
5
10
0.20779962
20
0.45651972
30
0
70
32
0
VERTEX
8
0
62
5
10
0.20779962
20
0.45651972
30
0
70
32
0
SEQEND
8
0
0
POLYLINE
8
0
62
30
66
1
10
0
20
0
30
0
70
8
0
VERTEX
8
0
62
30
10
0.12294681
20
0.45651972
30
0
70
32
0
VERTEX
8
0
62
30
10
0.15123108
20
0.41651972
30
0
70
32
0
SEQEND
8
0
0
POLYLINE
8
0
62
30
66
1
10
0
20
0
30
0
70
8
0
VERTEX
8
0
62
30
10
0.15123108
20
0.45651972
30
0
70
32
0
VERTEX
8
0
62
30
10
0.12294681
20
0.41651972
30
0
70
32
0
SEQEND
8
0
0
POLYLINE
8
0
62
30
66
1
10
0
20
0
30
0
70
8
0
VERTEX
8
0
62
30
10
0.17951535
20
0.45651972
30
0
70
32
0
VERTEX
8
0
62
30
10
0.20779962
20
0.41651972
30
0
70
32
0
SEQEND
8
0
0
POLYLINE
8
0
62
30
66
1
10
0
20
0
30
0
70
8
0
VERTEX
8
0
62
30
10
0.20779962
20
0.45651972
30
0
70
32
0
VERTEX
8
0
62
30
10
0.17951535
20
0.41651972
30
0
70
32
0
SEQEND
8
0
0
POLYLINE
8
0
62
30
66
1
10
0
20
0
30
0
70
8
0
VERTEX
8
0
62
30
10
0.15123108
20
0.43651972
30
0
70
32
0
VERTEX
8
0
62
30
10
0.17951535
20
0.43651972
30
0
70
32
0
SEQEND
8
0
0
POLYLINE
8
0
62
30
66
1
10
0
20
0
30
0
70
8
0
VERTEX
8
0
62
30
10
0.20779962
20
0.43651972
30
0
70
32
0
VERTEX
8
0
62
30
10
0.2360839
20
0.43651972
30
0
70
32
0
SEQEND
8
0
0
POLYLINE
8
0
62
5
66
1
10
0
20
0
30
0
70
8
0
VERTEX
8
0
62
5
10
0.12294681
20
0.43651972
30
0
70
32
0
VERTEX
8
0
62
5
10
0.13708895
20
0.43651972
30
0
70
32
0
SEQEND
8
0
0
POLYLINE
8
0
62
5
66
1
10
0
20
0
30
0
70
8
0
VERTEX
8
0
62
5
10
0.17951535
20
0.43651972
30
0
70
32
0
VERTEX
8
0
62
5
10
0.19365749
20
0.43651972
30
0
70
32
0
SEQEND
8
0
0
POLYLINE
8
0
62
5
66
1
10
0
20
0
30
0
70
8
0
VERTEX
8
0
62
5
10
0.13708895
20
0.43651972
30
0
70
32
0
VERTEX
8
0
62
5
10
0.15123108
20
0.43651972
30
0
70
32
0
SEQEND
8
0
0
POLYLINE
8
0
62
5
66
1
10
0
20
0
30
0
70
8
0
VERTEX
8
0
62
5
10
0.19365749
20
0.43651972
30
0
70
32
0
VERTEX
8
0
62
5
10
0.20779962
20
0.43651972
30
0
70
32
0
SEQEND
8
0
0
POLYLINE
8
0
62
5
66
1
10
0
20
0
30
0
70
8
0
VERTEX
8
0
62
5
10
0.15123108
20
0.41651972
30
0
70
32
0
VERTEX
8
0
62
5
10
0.15123108
20
0.45651972
30
0
70
32
0
SEQEND
8
0
0
POLYLINE
8
0
62
5
66
1
10
0
20
0
30
0
70
8
0
VERTEX
8
0
62
5
10
0.17951535
20
0.41651972
30
0
70
32
0
VERTEX
8
0
62
5
10
0.17951535
20
0.45651972
30
0
70
32
0
SEQEND
8
0
0
POLYLINE
8
0
62
5
66
1
10
0
20
0
30
0
70
8
0
VERTEX
8
0
62
5
10
0.20779962
20
0.41651972
30
0
70
32
0
VERTEX
8
0
62
5
10
0.20779962
20
0.45651972
30
0
70
32
0
SEQEND
8
0
0
POLYLINE
8
0
62
5
66
1
10
0
20
0
30
0
70
8
0
VERTEX
8
0
62
5
10
0.12294681
20
0.41651972
30
0
70
32
0
VERTEX
8
0
62
5
10
0.12294681
20
0.45651972
30
0
70
32
0
SEQEND
8
0
0
POLYLINE
8
0
62
5
66
1
10
0
20
0
30
0
70
8
0
VERTEX
8
0
62
5
10
-0.10332736
20
0.41651972
30
0
70
32
0
VERTEX
8
0
62
5
10
-0.10332736
20
0.45651972
30
0
70
32
0
SEQEND
8
0
0
POLYLINE
8
0
62
5
66
1
10
0
20
0
30
0
70
8
0
VERTEX
8
0
62
5
10
-0.10332736
20
0.41651972
30
0
70
32
0
VERTEX
8
0
62
5
10
0.0098097257
20
0.41651972
30
0
70
32
0
SEQEND
8
0
0
POLYLINE
8
0
62
5
66
1
10
0
20
0
30
0
70
8
0
VERTEX
8
0
62
5
10
-0.10332736
20
0.45651972
30
0
70
32
0
VERTEX
8
0
62
5
10
0.0098097257
20
0.45651972
30
0
70
32
0
SEQEND
8
0
0
POLYLINE
8
0
62
5
66
1
10
0
20
0
30
0
70
8
0
VERTEX
8
0
62
5
10
-0.075043088
20
0.41651972
30
0
70
32
0
VERTEX
8
0
62
5
10
-0.075043088
20
0.41651972
30
0
70
32
0
SEQEND
8
0
0
POLYLINE
8
0
62
5
66
1
10
0
20
0
30
0
70
8
0
VERTEX
8
0
62
5
10
-0.046758817
20
0.41651972
30
0
70
32
0
VERTEX
8
0
62
5
10
-0.046758817
20
0.41651972
30
0
70
32
0
SEQEND
8
0
0
POLYLINE
8
0
62
5
66
1
10
0
20
0
30
0
70
8
0
VERTEX
8
0
62
5
10
-0.018474546
20
0.41651972
30
0
70
32
0
VERTEX
8
0
62
5
10
-0.018474546
20
0.41651972
30
0
70
32
0
SEQEND
8
0
0
POLYLINE
8
0
62
5
66
1
10
0
20
0
30
0
70
8
0
VERTEX
8
0
62
5
10
-0.075043088
20
0.45651972
30
0
70
32
0
VERTEX
8
0
62
5
10
-0.075043088
20
0.45651972
30
0
70
32
0
SEQEND
8
0
0
POLYLINE
8
0
62
5
66
1
10
0
20
0
30
0
70
8
0
VERTEX
8
0
62
5
10
-0.046758817
20
0.45651972
30
0
70
32
0
VERTEX
8
0
62
5
10
-0.046758817
20
0.45651972
30
0
70
32
0
SEQEND
8
0
0
POLYLINE
8
0
62
5
66
1
10
0
20
0
30
0
70
8
0
VERTEX
8
0
62
5
10
-0.018474546
20
0.45651972
30
0
70
32
0
VERTEX
8
0
62
5
10
-0.018474546
20
0.45651972
30
0
70
32
0
SEQEND
8
0
0
POLYLINE
8
0
62
30
66
1
10
0
20
0
30
0
70
8
0
VERTEX
8
0
62
30
10
-0.10332736
20
0.45651972
30
0
70
32
0
VERTEX
8
0
62
30
10
-0.075043088
20
0.41651972
30
0
70
32
0
SEQEND
8
0
0
POLYLINE
8
0
62
30
66
1
10
0
20
0
30
0
70
8
0
VERTEX
8
0
62
30
10
-0.075043088
20
0.45651972
30
0
70
32
0
VERTEX
8
0
62
30
10
-0.10332736
20
0.41651972
30
0
70
32
0
SEQEND
8
0
0
POLYLINE
8
0
62
30
66
1
10
0
20
0
30
0
70
8
0
VERTEX
8
0
62
30
10
-0.046758817
20
0.45651972
30
0
70
32
0
VERTEX
8
0
62
30
10
-0.018474546
20
0.41651972
30
0
70
32
0
SEQEND
8
0
0
POLYLINE
8
0
62
30
66
1
10
0
20
0
30
0
70
8
0
VERTEX
8
0
62
30
10
-0.018474546
20
0.45651972
30
0
70
32
0
VERTEX
8
0
62
30
10
-0.046758817
20
0.41651972
30
0
70
32
0
SEQEND
8
0
0
POLYLINE
8
0
62
30
66
1
10
0
20
0
30
0
70
8
0
VERTEX
8
0
62
30
10
-0.075043088
20
0.43651972
30
0
70
32
0
VERTEX
8
0
62
30
10
-0.046758817
20
0.43651972
30
0
70
32
0
SEQEND
8
0
0
POLYLINE
8
0
62
30
66
1
10
0
20
0
30
0
70
8
0
VERTEX
8
0
62
30
10
-0.018474546
20
0.43651972
30
0
70
32
0
VERTEX
8
0
62
30
10
0.0098097257
20
0.43651972
30
0
70
32
0
SEQEND
8
0
0
POLYLINE
8
0
62
5
66
1
10
0
20
0
30
0
70
8
0
VERTEX
8
0
62
5
10
-0.10332736
20
0.43651972
30
0
70
32
0
VERTEX
8
0
62
5
10
-0.089185224
20
0.43651972
30
0
70
32
0
SEQEND
8
0
0
POLYLINE
8
0
62
5
66
1
10
0
20
0
30
0
70
8
0
VERTEX
8
0
62
5
10
-0.046758817
20
0.43651972
30
0
70
32
0
VERTEX
8
0
62
5
10
-0.032616681
20
0.43651972
30
0
70
32
0
SEQEND
8
0
0
POLYLINE
8
0
62
5
66
1
10
0
20
0
30
0
70
8
0
VERTEX
8
0
62
5
10
-0.089185224
20
0.43651972
30
0
70
32
0
VERTEX
8
0
62
5
10
-0.075043088
20
0.43651972
30
0
70
32
0
SEQEND
8
0
0
POLYLINE
8
0
62
5
66
1
10
0
20
0
30
0
70
8
0
VERTEX
8
0
62
5
10
-0.032616681
20
0.43651972
30
0
70
32
0
VERTEX
8
0
62
5
10
-0.018474546
20
0.43651972
30
0
70
32
0
SEQEND
8
0
0
POLYLINE
8
0
62
5
66
1
10
0
20
0
30
0
70
8
0
VERTEX
8
0
62
5
10
-0.075043088
20
0.41651972
30
0
70
32
0
VERTEX
8
0
62
5
10
-0.075043088
20
0.45651972
30
0
70
32
0
SEQEND
8
0
0
POLYLINE
8
0
62
5
66
1
10
0
20
0
30
0
70
8
0
VERTEX
8
0
62
5
10
-0.046758817
20
0.41651972
30
0
70
32
0
VERTEX
8
0
62
5
10
-0.046758817
20
0.45651972
30
0
70
32
0
SEQEND
8
0
0
POLYLINE
8
0
62
5
66
1
10
0
20
0
30
0
70
8
0
VERTEX
8
0
62
5
10
-0.018474546
20
0.41651972
30
0
70
32
0
VERTEX
8
0
62
5
10
-0.018474546
20
0.45651972
30
0
70
32
0
SEQEND
8
0
0
POLYLINE
8
0
62
5
66
1
10
0
20
0
30
0
70
8
0
VERTEX
8
0
62
5
10
-0.10332736
20
0.41651972
30
0
70
32
0
VERTEX
8
0
62
5
10
-0.10332736
20
0.45651972
30
0
70
32
0
SEQEND
8
0
0
POLYLINE
8
0
62
5
66
1
10
0
20
0
30
0
70
8
0
VERTEX
8
0
62
5
10
0.0098097257
20
0.45651972
30
0
70
32
0
VERTEX
8
0
62
5
10
0.0098097257
20
0.53174134
30
0
70
32
0
SEQEND
8
0
0
POLYLINE
8
0
62
5
66
1
10
0
20
0
30
0
70
8
0
VERTEX
8
0
62
5
10
0.12294681
20
0.53174134
30
0
70
32
0
VERTEX
8
0
62
5
10
0.12294681
20
0.45651972
30
0
70
32
0
SEQEND
8
0
0
POLYLINE
8
0
62
5
66
1
10
0
20
0
30
0
70
8
0
VERTEX
8
0
62
5
10
0.0098097257
20
0.45767867
30
0
70
32
0
VERTEX
8
0
62
5
10
0.038093997
20
0.46183343
30
0
70
32
0
VERTEX
8
0
62
5
10
0.066378268
20
0.47532512
30
0
70
32
0
VERTEX
8
0
62
5
10
0.094662539
20
0.47117037
30
0
70
32
0
VERTEX
8
0
62
5
10
0.12294681
20
0.45767867
30
0
70
32
0
SEQEND
8
0
0
POLYLINE
8
0
62
5
66
1
10
0
20
0
30
0
70
8
0
VERTEX
8
0
62
5
10
0.0098097257
20
0.49528949
30
0
70
32
0
VERTEX
8
0
62
5
10
0.038093997
20
0.49944424
30
0
70
32
0
VERTEX
8
0
62
5
10
0.066378268
20
0.51293594
30
0
70
32
0
VERTEX
8
0
62
5
10
0.094662539
20
0.50878118
30
0
70
32
0
VERTEX
8
0
62
5
10
0.12294681
20
0.49528949
30
0
70
32
0
SEQEND
8
0
0
POLYLINE
8
0
62
5
66
1
10
0
20
0
30
0
70
8
0
VERTEX
8
0
62
5
10
0.0098097257
20
0.49297157
30
0
70
32
0
VERTEX
8
0
62
5
10
0.038093997
20
0.48881682
30
0
70
32
0
VERTEX
8
0
62
5
10
0.066378268
20
0.47532512
30
0
70
32
0
VERTEX
8
0
62
5
10
0.094662539
20
0.47947988
30
0
70
32
0
VERTEX
8
0
62
5
10
0.12294681
20
0.49297157
30
0
70
32
0
SEQEND
8
0
0
POLYLINE
8
0
62
5
66
1
10
0
20
0
30
0
70
8
0
VERTEX
8
0
62
5
10
0.0098097257
20
0.53058239
30
0
70
32
0
VERTEX
8
0
62
5
10
0.038093997
20
0.52642764
30
0
70
32
0
VERTEX
8
0
62
5
10
0.066378268
20
0.51293594
30
0
70
32
0
VERTEX
8
0
62
5
10
0.094662539
20
0.51709069
30
0
70
32
0
VERTEX
8
0
62
5
10
0.12294681
20
0.53058239
30
0
70
32
0
SEQEND
8
0
0
POLYLINE
8
0
62
30
66
1
10
0
20
0
30
0
70
8
0
VERTEX
8
0
62
30
10
0.0098097257
20
0.47532512
30
0
70
32
0
VERTEX
8
0
62
30
10
0.12294681
20
0.47532512
30
0
70
32
0
SEQEND
8
0
0
POLYLINE
8
0
62
30
66
1
10
0
20
0
30
0
70
8
0
VERTEX
8
0
62
30
10
0.0098097257
20
0.51293594
30
0
70
32
0
VERTEX
8
0
62
30
10
0.12294681
20
0.51293594
30
0
70
32
0
SEQEND
8
0
0
POLYLINE
8
0
62
30
66
1
10
0
20
0
30
0
70
8
0
VERTEX
8
0
62
30
10
0.038093997
20
0.46183343
30
0
70
32
0
VERTEX
8
0
62
30
10
0.038093997
20
0.47532512
30
0
70
32
0
SEQEND
8
0
0
POLYLINE
8
0
62
30
66
1
10
0
20
0
30
0
70
8
0
VERTEX
8
0
62
30
10
0.066378268
20
0.47532512
30
0
70
32
0
VERTEX
8
0
62
30
10
0.066378268
20
0.47532512
30
0
70
32
0
SEQEND
8
0
0
POLYLINE
8
0
62
30
66
1
10
0
20
0
30
0
70
8
0
VERTEX
8
0
62
30
10
0.094662539
20
0.47117037
30
0
70
32
0
VERTEX
8
0
62
30
10
0.094662539
20
0.47532512
30
0
70
32
0
SEQEND
8
0
0
POLYLINE
8
0
62
30
66
1
10
0
20
0
30
0
70
8
0
VERTEX
8
0
62
30
10
0.038093997
20
0.49944424
30
0
70
32
0
VERTEX
8
0
62
30
10
0.038093997
20
0.51293594
30
0
70
32
0
SEQEND
8
0
0
POLYLINE
8
0
62
30
66
1
10
0
20
0
30
0
70
8
0
VERTEX
8
0
62
30
10
0.066378268
20
0.51293594
30
0
70
32
0
VERTEX
8
0
62
30
10
0.066378268
20
0.51293594
30
0
70
32
0
SEQEND
8
0
0
POLYLINE
8
0
62
30
66
1
10
0
20
0
30
0
70
8
0
VERTEX
8
0
62
30
10
0.094662539
20
0.50878118
30
0
70
32
0
VERTEX
8
0
62
30
10
0.094662539
20
0.51293594
30
0
70
32
0
SEQEND
8
0
0
POLYLINE
8
0
62
5
66
1
10
0
20
0
30
0
70
8
0
VERTEX
8
0
62
5
10
0.038093997
20
0.45651972
30
0
70
32
0
VERTEX
8
0
62
5
10
0.038093997
20
0.46183343
30
0
70
32
0
SEQEND
8
0
0
POLYLINE
8
0
62
5
66
1
10
0
20
0
30
0
70
8
0
VERTEX
8
0
62
5
10
0.066378268
20
0.45651972
30
0
70
32
0
VERTEX
8
0
62
5
10
0.066378268
20
0.47532512
30
0
70
32
0
SEQEND
8
0
0
POLYLINE
8
0
62
5
66
1
10
0
20
0
30
0
70
8
0
VERTEX
8
0
62
5
10
0.094662539
20
0.45651972
30
0
70
32
0
VERTEX
8
0
62
5
10
0.094662539
20
0.47117037
30
0
70
32
0
SEQEND
8
0
0
POLYLINE
8
0
62
5
66
1
10
0
20
0
30
0
70
8
0
VERTEX
8
0
62
5
10
0.038093997
20
0.49413053
30
0
70
32
0
VERTEX
8
0
62
5
10
0.038093997
20
0.49944424
30
0
70
32
0
SEQEND
8
0
0
POLYLINE
8
0
62
5
66
1
10
0
20
0
30
0
70
8
0
VERTEX
8
0
62
5
10
0.066378268
20
0.49413053
30
0
70
32
0
VERTEX
8
0
62
5
10
0.066378268
20
0.51293594
30
0
70
32
0
SEQEND
8
0
0
POLYLINE
8
0
62
5
66
1
10
0
20
0
30
0
70
8
0
VERTEX
8
0
62
5
10
0.094662539
20
0.49413053
30
0
70
32
0
VERTEX
8
0
62
5
10
0.094662539
20
0.50878118
30
0
70
32
0
SEQEND
8
0
0
POLYLINE
8
0
62
5
66
1
10
0
20
0
30
0
70
8
0
VERTEX
8
0
62
5
10
0.038093997
20
0.47532512
30
0
70
32
0
VERTEX
8
0
62
5
10
0.038093997
20
0.49413053
30
0
70
32
0
SEQEND
8
0
0
POLYLINE
8
0
62
5
66
1
10
0
20
0
30
0
70
8
0
VERTEX
8
0
62
5
10
0.066378268
20
0.47532512
30
0
70
32
0
VERTEX
8
0
62
5
10
0.066378268
20
0.49413053
30
0
70
32
0
SEQEND
8
0
0
POLYLINE
8
0
62
5
66
1
10
0
20
0
30
0
70
8
0
VERTEX
8
0
62
5
10
0.094662539
20
0.47532512
30
0
70
32
0
VERTEX
8
0
62
5
10
0.094662539
20
0.49413053
30
0
70
32
0
SEQEND
8
0
0
POLYLINE
8
0
62
5
66
1
10
0
20
0
30
0
70
8
0
VERTEX
8
0
62
5
10
0.038093997
20
0.51293594
30
0
70
32
0
VERTEX
8
0
62
5
10
0.038093997
20
0.53174134
30
0
70
32
0
SEQEND
8
0
0
POLYLINE
8
0
62
5
66
1
10
0
20
0
30
0
70
8
0
VERTEX
8
0
62
5
10
0.066378268
20
0.51293594
30
0
70
32
0
VERTEX
8
0
62
5
10
0.066378268
20
0.53174134
30
0
70
32
0
SEQEND
8
0
0
POLYLINE
8
0
62
5
66
1
10
0
20
0
30
0
70
8
0
VERTEX
8
0
62
5
10
0.094662539
20
0.51293594
30
0
70
32
0
VERTEX
8
0
62
5
10
0.094662539
20
0.53174134
30
0
70
32
0
SEQEND
8
0
0
POLYLINE
8
0
62
30
66
1
10
0
20
0
30
0
70
8
0
VERTEX
8
0
62
30
10
0.0098097257
20
0.45767867
30
0
70
32
0
VERTEX
8
0
62
30
10
0.020028771
20
0.47532512
30
0
70
32
0
VERTEX
8
0
62
30
10
0.0098097257
20
0.49297157
30
0
70
32
0
SEQEND
8
0
0
POLYLINE
8
0
62
30
66
1
10
0
20
0
30
0
70
8
0
VERTEX
8
0
62
30
10
0.038093997
20
0.46183343
30
0
70
32
0
VERTEX
8
0
62
30
10
0.047340119
20
0.47532512
30
0
70
32
0
VERTEX
8
0
62
30
10
0.038093997
20
0.48881682
30
0
70
32
0
SEQEND
8
0
0
POLYLINE
8
0
62
30
66
1
10
0
20
0
30
0
70
8
0
VERTEX
8
0
62
30
10
0.066378268
20
0.47532512
30
0
70
32
0
VERTEX
8
0
62
30
10
0.066378268
20
0.47532512
30
0
70
32
0
VERTEX
8
0
62
30
10
0.066378268
20
0.47532512
30
0
70
32
0
SEQEND
8
0
0
POLYLINE
8
0
62
30
66
1
10
0
20
0
30
0
70
8
0
VERTEX
8
0
62
30
10
0.094662539
20
0.47117037
30
0
70
32
0
VERTEX
8
0
62
30
10
0.099898586
20
0.47532512
30
0
70
32
0
VERTEX
8
0
62
30
10
0.094662539
20
0.47947988
30
0
70
32
0
SEQEND
8
0
0
POLYLINE
8
0
62
30
66
1
10
0
20
0
30
0
70
8
0
VERTEX
8
0
62
30
10
0.0098097257
20
0.49528949
30
0
70
32
0
VERTEX
8
0
62
30
10
0.020028771
20
0.51293594
30
0
70
32
0
VERTEX
8
0
62
30
10
0.0098097257
20
0.53058239
30
0
70
32
0
SEQEND
8
0
0
POLYLINE
8
0
62
30
66
1
10
0
20
0
30
0
70
8
0
VERTEX
8
0
62
30
10
0.038093997
20
0.49944424
30
0
70
32
0
VERTEX
8
0
62
30
10
0.047340119
20
0.51293594
30
0
70
32
0
VERTEX
8
0
62
30
10
0.038093997
20
0.52642764
30
0
70
32
0
SEQEND
8
0
0
POLYLINE
8
0
62
30
66
1
10
0
20
0
30
0
70
8
0
VERTEX
8
0
62
30
10
0.066378268
20
0.51293594
30
0
70
32
0
VERTEX
8
0
62
30
10
0.066378268
20
0.51293594
30
0
70
32
0
VERTEX
8
0
62
30
10
0.066378268
20
0.51293594
30
0
70
32
0
SEQEND
8
0
0
POLYLINE
8
0
62
30
66
1
10
0
20
0
30
0
70
8
0
VERTEX
8
0
62
30
10
0.094662539
20
0.50878118
30
0
70
32
0
VERTEX
8
0
62
30
10
0.099898586
20
0.51293594
30
0
70
32
0
VERTEX
8
0
62
30
10
0.094662539
20
0.51709069
30
0
70
32
0
SEQEND
8
0
0
POLYLINE
8
0
62
5
66
1
10
0
20
0
30
0
70
8
0
VERTEX
8
0
62
5
10
0.2360839
20
0.53174134
30
0
70
32
0
VERTEX
8
0
62
5
10
0.2360839
20
0.45651972
30
0
70
32
0
SEQEND
8
0
0
POLYLINE
8
0
62
5
66
1
10
0
20
0
30
0
70
8
0
VERTEX
8
0
62
5
10
0.12294681
20
0.45767867
30
0
70
32
0
VERTEX
8
0
62
5
10
0.15123108
20
0.46183343
30
0
70
32
0
VERTEX
8
0
62
5
10
0.17951535
20
0.47532512
30
0
70
32
0
VERTEX
8
0
62
5
10
0.20779962
20
0.47117037
30
0
70
32
0
VERTEX
8
0
62
5
10
0.2360839
20
0.45767867
30
0
70
32
0
SEQEND
8
0
0
POLYLINE
8
0
62
5
66
1
10
0
20
0
30
0
70
8
0
VERTEX
8
0
62
5
10
0.12294681
20
0.49528949
30
0
70
32
0
VERTEX
8
0
62
5
10
0.15123108
20
0.49944424
30
0
70
32
0
VERTEX
8
0
62
5
10
0.17951535
20
0.51293594
30
0
70
32
0
VERTEX
8
0
62
5
10
0.20779962
20
0.50878118
30
0
70
32
0
VERTEX
8
0
62
5
10
0.2360839
20
0.49528949
30
0
70
32
0
SEQEND
8
0
0
POLYLINE
8
0
62
5
66
1
10
0
20
0
30
0
70
8
0
VERTEX
8
0
62
5
10
0.12294681
20
0.49297157
30
0
70
32
0
VERTEX
8
0
62
5
10
0.15123108
20
0.48881682
30
0
70
32
0
VERTEX
8
0
62
5
10
0.17951535
20
0.47532512
30
0
70
32
0
VERTEX
8
0
62
5
10
0.20779962
20
0.47947988
30
0
70
32
0
VERTEX
8
0
62
5
10
0.2360839
20
0.49297157
30
0
70
32
0
SEQEND
8
0
0
POLYLINE
8
0
62
5
66
1
10
0
20
0
30
0
70
8
0
VERTEX
8
0
62
5
10
0.12294681
20
0.53058239
30
0
70
32
0
VERTEX
8
0
62
5
10
0.15123108
20
0.52642764
30
0
70
32
0
VERTEX
8
0
62
5
10
0.17951535
20
0.51293594
30
0
70
32
0
VERTEX
8
0
62
5
10
0.20779962
20
0.51709069
30
0
70
32
0
VERTEX
8
0
62
5
10
0.2360839
20
0.53058239
30
0
70
32
0
SEQEND
8
0
0
POLYLINE
8
0
62
30
66
1
10
0
20
0
30
0
70
8
0
VERTEX
8
0
62
30
10
0.12294681
20
0.47532512
30
0
70
32
0
VERTEX
8
0
62
30
10
0.2360839
20
0.47532512
30
0
70
32
0
SEQEND
8
0
0
POLYLINE
8
0
62
30
66
1
10
0
20
0
30
0
70
8
0
VERTEX
8
0
62
30
10
0.12294681
20
0.51293594
30
0
70
32
0
VERTEX
8
0
62
30
10
0.2360839
20
0.51293594
30
0
70
32
0
SEQEND
8
0
0
POLYLINE
8
0
62
30
66
1
10
0
20
0
30
0
70
8
0
VERTEX
8
0
62
30
10
0.15123108
20
0.46183343
30
0
70
32
0
VERTEX
8
0
62
30
10
0.15123108
20
0.47532512
30
0
70
32
0
SEQEND
8
0
0
POLYLINE
8
0
62
30
66
1
10
0
20
0
30
0
70
8
0
VERTEX
8
0
62
30
10
0.17951535
20
0.47532512
30
0
70
32
0
VERTEX
8
0
62
30
10
0.17951535
20
0.47532512
30
0
70
32
0
SEQEND
8
0
0
POLYLINE
8
0
62
30
66
1
10
0
20
0
30
0
70
8
0
VERTEX
8
0
62
30
10
0.20779962
20
0.47117037
30
0
70
32
0
VERTEX
8
0
62
30
10
0.20779962
20
0.47532512
30
0
70
32
0
SEQEND
8
0
0
POLYLINE
8
0
62
30
66
1
10
0
20
0
30
0
70
8
0
VERTEX
8
0
62
30
10
0.15123108
20
0.49944424
30
0
70
32
0
VERTEX
8
0
62
30
10
0.15123108
20
0.51293594
30
0
70
32
0
SEQEND
8
0
0
POLYLINE
8
0
62
30
66
1
10
0
20
0
30
0
70
8
0
VERTEX
8
0
62
30
10
0.17951535
20
0.51293594
30
0
70
32
0
VERTEX
8
0
62
30
10
0.17951535
20
0.51293594
30
0
70
32
0
SEQEND
8
0
0
POLYLINE
8
0
62
30
66
1
10
0
20
0
30
0
70
8
0
VERTEX
8
0
62
30
10
0.20779962
20
0.50878118
30
0
70
32
0
VERTEX
8
0
62
30
10
0.20779962
20
0.51293594
30
0
70
32
0
SEQEND
8
0
0
POLYLINE
8
0
62
5
66
1
10
0
20
0
30
0
70
8
0
VERTEX
8
0
62
5
10
0.15123108
20
0.45651972
30
0
70
32
0
VERTEX
8
0
62
5
10
0.15123108
20
0.46183343
30
0
70
32
0
SEQEND
8
0
0
POLYLINE
8
0
62
5
66
1
10
0
20
0
30
0
70
8
0
VERTEX
8
0
62
5
10
0.17951535
20
0.45651972
30
0
70
32
0
VERTEX
8
0
62
5
10
0.17951535
20
0.47532512
30
0
70
32
0
SEQEND
8
0
0
POLYLINE
8
0
62
5
66
1
10
0
20
0
30
0
70
8
0
VERTEX
8
0
62
5
10
0.20779962
20
0.45651972
30
0
70
32
0
VERTEX
8
0
62
5
10
0.20779962
20
0.47117037
30
0
70
32
0
SEQEND
8
0
0
POLYLINE
8
0
62
5
66
1
10
0
20
0
30
0
70
8
0
VERTEX
8
0
62
5
10
0.15123108
20
0.49413053
30
0
70
32
0
VERTEX
8
0
62
5
10
0.15123108
20
0.49944424
30
0
70
32
0
SEQEND
8
0
0
POLYLINE
8
0
62
5
66
1
10
0
20
0
30
0
70
8
0
VERTEX
8
0
62
5
10
0.17951535
20
0.49413053
30
0
70
32
0
VERTEX
8
0
62
5
10
0.17951535
20
0.51293594
30
0
70
32
0
SEQEND
8
0
0
POLYLINE
8
0
62
5
66
1
10
0
20
0
30
0
70
8
0
VERTEX
8
0
62
5
10
0.20779962
20
0.49413053
30
0
70
32
0
VERTEX
8
0
62
5
10
0.20779962
20
0.50878118
30
0
70
32
0
SEQEND
8
0
0
POLYLINE
8
0
62
5
66
1
10
0
20
0
30
0
70
8
0
VERTEX
8
0
62
5
10
0.15123108
20
0.47532512
30
0
70
32
0
VERTEX
8
0
62
5
10
0.15123108
20
0.49413053
30
0
70
32
0
SEQEND
8
0
0
POLYLINE
8
0
62
5
66
1
10
0
20
0
30
0
70
8
0
VERTEX
8
0
62
5
10
0.17951535
20
0.47532512
30
0
70
32
0
VERTEX
8
0
62
5
10
0.17951535
20
0.49413053
30
0
70
32
0
SEQEND
8
0
0
POLYLINE
8
0
62
5
66
1
10
0
20
0
30
0
70
8
0
VERTEX
8
0
62
5
10
0.20779962
20
0.47532512
30
0
70
32
0
VERTEX
8
0
62
5
10
0.20779962
20
0.49413053
30
0
70
32
0
SEQEND
8
0
0
POLYLINE
8
0
62
5
66
1
10
0
20
0
30
0
70
8
0
VERTEX
8
0
62
5
10
0.15123108
20
0.51293594
30
0
70
32
0
VERTEX
8
0
62
5
10
0.15123108
20
0.53174134
30
0
70
32
0
SEQEND
8
0
0
POLYLINE
8
0
62
5
66
1
10
0
20
0
30
0
70
8
0
VERTEX
8
0
62
5
10
0.17951535
20
0.51293594
30
0
70
32
0
VERTEX
8
0
62
5
10
0.17951535
20
0.53174134
30
0
70
32
0
SEQEND
8
0
0
POLYLINE
8
0
62
5
66
1
10
0
20
0
30
0
70
8
0
VERTEX
8
0
62
5
10
0.20779962
20
0.51293594
30
0
70
32
0
VERTEX
8
0
62
5
10
0.20779962
20
0.53174134
30
0
70
32
0
SEQEND
8
0
0
POLYLINE
8
0
62
30
66
1
10
0
20
0
30
0
70
8
0
VERTEX
8
0
62
30
10
0.12294681
20
0.45767867
30
0
70
32
0
VERTEX
8
0
62
30
10
0.13316586
20
0.47532512
30
0
70
32
0
VERTEX
8
0
62
30
10
0.12294681
20
0.49297157
30
0
70
32
0
SEQEND
8
0
0
POLYLINE
8
0
62
30
66
1
10
0
20
0
30
0
70
8
0
VERTEX
8
0
62
30
10
0.15123108
20
0.46183343
30
0
70
32
0
VERTEX
8
0
62
30
10
0.1604772
20
0.47532512
30
0
70
32
0
VERTEX
8
0
62
30
10
0.15123108
20
0.48881682
30
0
70
32
0
SEQEND
8
0
0
POLYLINE
8
0
62
30
66
1
10
0
20
0
30
0
70
8
0
VERTEX
8
0
62
30
10
0.17951535
20
0.47532512
30
0
70
32
0
VERTEX
8
0
62
30
10
0.17951535
20
0.47532512
30
0
70
32
0
VERTEX
8
0
62
30
10
0.17951535
20
0.47532512
30
0
70
32
0
SEQEND
8
0
0
POLYLINE
8
0
62
30
66
1
10
0
20
0
30
0
70
8
0
VERTEX
8
0
62
30
10
0.20779962
20
0.47117037
30
0
70
32
0
VERTEX
8
0
62
30
10
0.21303567
20
0.47532512
30
0
70
32
0
VERTEX
8
0
62
30
10
0.20779962
20
0.47947988
30
0
70
32
0
SEQEND
8
0
0
POLYLINE
8
0
62
30
66
1
10
0
20
0
30
0
70
8
0
VERTEX
8
0
62
30
10
0.12294681
20
0.49528949
30
0
70
32
0
VERTEX
8
0
62
30
10
0.13316586
20
0.51293594
30
0
70
32
0
VERTEX
8
0
62
30
10
0.12294681
20
0.53058239
30
0
70
32
0
SEQEND
8
0
0
POLYLINE
8
0
62
30
66
1
10
0
20
0
30
0
70
8
0
VERTEX
8
0
62
30
10
0.15123108
20
0.49944424
30
0
70
32
0
VERTEX
8
0
62
30
10
0.1604772
20
0.51293594
30
0
70
32
0
VERTEX
8
0
62
30
10
0.15123108
20
0.52642764
30
0
70
32
0
SEQEND
8
0
0
POLYLINE
8
0
62
30
66
1
10
0
20
0
30
0
70
8
0
VERTEX
8
0
62
30
10
0.17951535
20
0.51293594
30
0
70
32
0
VERTEX
8
0
62
30
10
0.17951535
20
0.51293594
30
0
70
32
0
VERTEX
8
0
62
30
10
0.17951535
20
0.51293594
30
0
70
32
0
SEQEND
8
0
0
POLYLINE
8
0
62
30
66
1
10
0
20
0
30
0
70
8
0
VERTEX
8
0
62
30
10
0.20779962
20
0.50878118
30
0
70
32
0
VERTEX
8
0
62
30
10
0.21303567
20
0.51293594
30
0
70
32
0
VERTEX
8
0
62
30
10
0.20779962
20
0.51709069
30
0
70
32
0
SEQEND
8
0
0
POLYLINE
8
0
62
5
66
1
10
0
20
0
30
0
70
8
0
VERTEX
8
0
62
5
10
-0.10332736
20
0.45651972
30
0
70
32
0
VERTEX
8
0
62
5
10
-0.10332736
20
0.53174134
30
0
70
32
0
SEQEND
8
0
0
POLYLINE
8
0
62
5
66
1
10
0
20
0
30
0
70
8
0
VERTEX
8
0
62
5
10
-0.10332736
20
0.45767867
30
0
70
32
0
VERTEX
8
0
62
5
10
-0.075043088
20
0.46183343
30
0
70
32
0
VERTEX
8
0
62
5
10
-0.046758817
20
0.47532512
30
0
70
32
0
VERTEX
8
0
62
5
10
-0.018474546
20
0.47117037
30
0
70
32
0
VERTEX
8
0
62
5
10
0.0098097257
20
0.45767867
30
0
70
32
0
SEQEND
8
0
0
POLYLINE
8
0
62
5
66
1
10
0
20
0
30
0
70
8
0
VERTEX
8
0
62
5
10
-0.10332736
20
0.49528949
30
0
70
32
0
VERTEX
8
0
62
5
10
-0.075043088
20
0.49944424
30
0
70
32
0
VERTEX
8
0
62
5
10
-0.046758817
20
0.51293594
30
0
70
32
0
VERTEX
8
0
62
5
10
-0.018474546
20
0.50878118
30
0
70
32
0
VERTEX
8
0
62
5
10
0.0098097257
20
0.49528949
30
0
70
32
0
SEQEND
8
0
0
POLYLINE
8
0
62
5
66
1
10
0
20
0
30
0
70
8
0
VERTEX
8
0
62
5
10
-0.10332736
20
0.49297157
30
0
70
32
0
VERTEX
8
0
62
5
10
-0.075043088
20
0.48881682
30
0
70
32
0
VERTEX
8
0
62
5
10
-0.046758817
20
0.47532512
30
0
70
32
0
VERTEX
8
0
62
5
10
-0.018474546
20
0.47947988
30
0
70
32
0
VERTEX
8
0
62
5
10
0.0098097257
20
0.49297157
30
0
70
32
0
SEQEND
8
0
0
POLYLINE
8
0
62
5
66
1
10
0
20
0
30
0
70
8
0
VERTEX
8
0
62
5
10
-0.10332736
20
0.53058239
30
0
70
32
0
VERTEX
8
0
62
5
10
-0.075043088
20
0.52642764
30
0
70
32
0
VERTEX
8
0
62
5
10
-0.046758817
20
0.51293594
30
0
70
32
0
VERTEX
8
0
62
5
10
-0.018474546
20
0.51709069
30
0
70
32
0
VERTEX
8
0
62
5
10
0.0098097257
20
0.53058239
30
0
70
32
0
SEQEND
8
0
0
POLYLINE
8
0
62
30
66
1
10
0
20
0
30
0
70
8
0
VERTEX
8
0
62
30
10
-0.10332736
20
0.47532512
30
0
70
32
0
VERTEX
8
0
62
30
10
0.0098097257
20
0.47532512
30
0
70
32
0
SEQEND
8
0
0
POLYLINE
8
0
62
30
66
1
10
0
20
0
30
0
70
8
0
VERTEX
8
0
62
30
10
-0.10332736
20
0.51293594
30
0
70
32
0
VERTEX
8
0
62
30
10
0.0098097257
20
0.51293594
30
0
70
32
0
SEQEND
8
0
0
POLYLINE
8
0
62
30
66
1
10
0
20
0
30
0
70
8
0
VERTEX
8
0
62
30
10
-0.075043088
20
0.46183343
30
0
70
32
0
VERTEX
8
0
62
30
10
-0.075043088
20
0.47532512
30
0
70
32
0
SEQEND
8
0
0
POLYLINE
8
0
62
30
66
1
10
0
20
0
30
0
70
8
0
VERTEX
8
0
62
30
10
-0.046758817
20
0.47532512
30
0
70
32
0
VERTEX
8
0
62
30
10
-0.046758817
20
0.47532512
30
0
70
32
0
SEQEND
8
0
0
POLYLINE
8
0
62
30
66
1
10
0
20
0
30
0
70
8
0
VERTEX
8
0
62
30
10
-0.018474546
20
0.47117037
30
0
70
32
0
VERTEX
8
0
62
30
10
-0.018474546
20
0.47532512
30
0
70
32
0
SEQEND
8
0
0
POLYLINE
8
0
62
30
66
1
10
0
20
0
30
0
70
8
0
VERTEX
8
0
62
30
10
-0.075043088
20
0.49944424
30
0
70
32
0
VERTEX
8
0
62
30
10
-0.075043088
20
0.51293594
30
0
70
32
0
SEQEND
8
0
0
POLYLINE
8
0
62
30
66
1
10
0
20
0
30
0
70
8
0
VERTEX
8
0
62
30
10
-0.046758817
20
0.51293594
30
0
70
32
0
VERTEX
8
0
62
30
10
-0.046758817
20
0.51293594
30
0
70
32
0
SEQEND
8
0
0
POLYLINE
8
0
62
30
66
1
10
0
20
0
30
0
70
8
0
VERTEX
8
0
62
30
10
-0.018474546
20
0.50878118
30
0
70
32
0
VERTEX
8
0
62
30
10
-0.018474546
20
0.51293594
30
0
70
32
0
SEQEND
8
0
0
POLYLINE
8
0
62
5
66
1
10
0
20
0
30
0
70
8
0
VERTEX
8
0
62
5
10
-0.075043088
20
0.45651972
30
0
70
32
0
VERTEX
8
0
62
5
10
-0.075043088
20
0.46183343
30
0
70
32
0
SEQEND
8
0
0
POLYLINE
8
0
62
5
66
1
10
0
20
0
30
0
70
8
0
VERTEX
8
0
62
5
10
-0.046758817
20
0.45651972
30
0
70
32
0
VERTEX
8
0
62
5
10
-0.046758817
20
0.47532512
30
0
70
32
0
SEQEND
8
0
0
POLYLINE
8
0
62
5
66
1
10
0
20
0
30
0
70
8
0
VERTEX
8
0
62
5
10
-0.018474546
20
0.45651972
30
0
70
32
0
VERTEX
8
0
62
5
10
-0.018474546
20
0.47117037
30
0
70
32
0
SEQEND
8
0
0
POLYLINE
8
0
62
5
66
1
10
0
20
0
30
0
70
8
0
VERTEX
8
0
62
5
10
-0.075043088
20
0.49413053
30
0
70
32
0
VERTEX
8
0
62
5
10
-0.075043088
20
0.49944424
30
0
70
32
0
SEQEND
8
0
0
POLYLINE
8
0
62
5
66
1
10
0
20
0
30
0
70
8
0
VERTEX
8
0
62
5
10
-0.046758817
20
0.49413053
30
0
70
32
0
VERTEX
8
0
62
5
10
-0.046758817
20
0.51293594
30
0
70
32
0
SEQEND
8
0
0
POLYLINE
8
0
62
5
66
1
10
0
20
0
30
0
70
8
0
VERTEX
8
0
62
5
10
-0.018474546
20
0.49413053
30
0
70
32
0
VERTEX
8
0
62
5
10
-0.018474546
20
0.50878118
30
0
70
32
0
SEQEND
8
0
0
POLYLINE
8
0
62
5
66
1
10
0
20
0
30
0
70
8
0
VERTEX
8
0
62
5
10
-0.075043088
20
0.47532512
30
0
70
32
0
VERTEX
8
0
62
5
10
-0.075043088
20
0.49413053
30
0
70
32
0
SEQEND
8
0
0
POLYLINE
8
0
62
5
66
1
10
0
20
0
30
0
70
8
0
VERTEX
8
0
62
5
10
-0.046758817
20
0.47532512
30
0
70
32
0
VERTEX
8
0
62
5
10
-0.046758817
20
0.49413053
30
0
70
32
0
SEQEND
8
0
0
POLYLINE
8
0
62
5
66
1
10
0
20
0
30
0
70
8
0
VERTEX
8
0
62
5
10
-0.018474546
20
0.47532512
30
0
70
32
0
VERTEX
8
0
62
5
10
-0.018474546
20
0.49413053
30
0
70
32
0
SEQEND
8
0
0
POLYLINE
8
0
62
5
66
1
10
0
20
0
30
0
70
8
0
VERTEX
8
0
62
5
10
-0.075043088
20
0.51293594
30
0
70
32
0
VERTEX
8
0
62
5
10
-0.075043088
20
0.53174134
30
0
70
32
0
SEQEND
8
0
0
POLYLINE
8
0
62
5
66
1
10
0
20
0
30
0
70
8
0
VERTEX
8
0
62
5
10
-0.046758817
20
0.51293594
30
0
70
32
0
VERTEX
8
0
62
5
10
-0.046758817
20
0.53174134
30
0
70
32
0
SEQEND
8
0
0
POLYLINE
8
0
62
5
66
1
10
0
20
0
30
0
70
8
0
VERTEX
8
0
62
5
10
-0.018474546
20
0.51293594
30
0
70
32
0
VERTEX
8
0
62
5
10
-0.018474546
20
0.53174134
30
0
70
32
0
SEQEND
8
0
0
POLYLINE
8
0
62
30
66
1
10
0
20
0
30
0
70
8
0
VERTEX
8
0
62
30
10
-0.10332736
20
0.45767867
30
0
70
32
0
VERTEX
8
0
62
30
10
-0.093108314
20
0.47532512
30
0
70
32
0
VERTEX
8
0
62
30
10
-0.10332736
20
0.49297157
30
0
70
32
0
SEQEND
8
0
0
POLYLINE
8
0
62
30
66
1
10
0
20
0
30
0
70
8
0
VERTEX
8
0
62
30
10
-0.075043088
20
0.46183343
30
0
70
32
0
VERTEX
8
0
62
30
10
-0.065796966
20
0.47532512
30
0
70
32
0
VERTEX
8
0
62
30
10
-0.075043088
20
0.48881682
30
0
70
32
0
SEQEND
8
0
0
POLYLINE
8
0
62
30
66
1
10
0
20
0
30
0
70
8
0
VERTEX
8
0
62
30
10
-0.046758817
20
0.47532512
30
0
70
32
0
VERTEX
8
0
62
30
10
-0.046758817
20
0.47532512
30
0
70
32
0
VERTEX
8
0
62
30
10
-0.046758817
20
0.47532512
30
0
70
32
0
SEQEND
8
0
0
POLYLINE
8
0
62
30
66
1
10
0
20
0
30
0
70
8
0
VERTEX
8
0
62
30
10
-0.018474546
20
0.47117037
30
0
70
32
0
VERTEX
8
0
62
30
10
-0.013238499
20
0.47532512
30
0
70
32
0
VERTEX
8
0
62
30
10
-0.018474546
20
0.47947988
30
0
70
32
0
SEQEND
8
0
0
POLYLINE
8
0
62
30
66
1
10
0
20
0
30
0
70
8
0
VERTEX
8
0
62
30
10
-0.10332736
20
0.49528949
30
0
70
32
0
VERTEX
8
0
62
30
10
-0.093108314
20
0.51293594
30
0
70
32
0
VERTEX
8
0
62
30
10
-0.10332736
20
0.53058239
30
0
70
32
0
SEQEND
8
0
0
POLYLINE
8
0
62
30
66
1
10
0
20
0
30
0
70
8
0
VERTEX
8
0
62
30
10
-0.075043088
20
0.49944424
30
0
70
32
0
VERTEX
8
0
62
30
10
-0.065796966
20
0.51293594
30
0
70
32
0
VERTEX
8
0
62
30
10
-0.075043088
20
0.52642764
30
0
70
32
0
SEQEND
8
0
0
POLYLINE
8
0
62
30
66
1
10
0
20
0
30
0
70
8
0
VERTEX
8
0
62
30
10
-0.046758817
20
0.51293594
30
0
70
32
0
VERTEX
8
0
62
30
10
-0.046758817
20
0.51293594
30
0
70
32
0
VERTEX
8
0
62
30
10
-0.046758817
20
0.51293594
30
0
70
32
0
SEQEND
8
0
0
POLYLINE
8
0
62
30
66
1
10
0
20
0
30
0
70
8
0
VERTEX
8
0
62
30
10
-0.018474546
20
0.50878118
30
0
70
32
0
VERTEX
8
0
62
30
10
-0.013238499
20
0.51293594
30
0
70
32
0
VERTEX
8
0
62
30
10
-0.018474546
20
0.51709069
30
0
70
32
0
SEQEND
8
0
0
POLYLINE
8
0
62
30
66
1
10
0
20
0
30
0
70
8
0
VERTEX
8
0
62
30
10
0.0098097257
20
0.55530604
30
0
70
32
0
VERTEX
8
0
62
30
10
0.12294681
20
0.55530604
30
0
70
32
0
SEQEND
8
0
0
POLYLINE
8
0
62
30
66
1
10
0
20
0
30
0
70
8
0
VERTEX
8
0
62
30
10
0.0098097257
20
0.53174134
30
0
70
32
0
VERTEX
8
0
62
30
10
0.12294681
20
0.53174134
30
0
70
32
0
SEQEND
8
0
0
POLYLINE
8
0
62
5
66
1
10
0
20
0
30
0
70
8
0
VERTEX
8
0
62
5
10
0.0098097257
20
0.53174134
30
0
70
32
0
VERTEX
8
0
62
5
10
0.032544998
20
0.55530604
30
0
70
32
0
VERTEX
8
0
62
5
10
0.038093997
20
0.53174134
30
0
70
32
0
VERTEX
8
0
62
5
10
0.06082927
20
0.55530604
30
0
70
32
0
VERTEX
8
0
62
5
10
0.066378268
20
0.53174134
30
0
70
32
0
VERTEX
8
0
62
5
10
0.089113541
20
0.55530604
30
0
70
32
0
VERTEX
8
0
62
5
10
0.094662539
20
0.53174134
30
0
70
32
0
VERTEX
8
0
62
5
10
0.11739781
20
0.55530604
30
0
70
32
0
VERTEX
8
0
62
5
10
0.12294681
20
0.53174134
30
0
70
32
0
SEQEND
8
0
0
POLYLINE
8
0
62
5
66
1
10
0
20
0
30
0
70
8
0
VERTEX
8
0
62
5
10
0.038093997
20
0.53174134
30
0
70
32
0
VERTEX
8
0
62
5
10
0.038093997
20
0.53174134
30
0
70
32
0
SEQEND
8
0
0
POLYLINE
8
0
62
5
66
1
10
0
20
0
30
0
70
8
0
VERTEX
8
0
62
5
10
0.066378268
20
0.53174134
30
0
70
32
0
VERTEX
8
0
62
5
10
0.066378268
20
0.53174134
30
0
70
32
0
SEQEND
8
0
0
POLYLINE
8
0
62
5
66
1
10
0
20
0
30
0
70
8
0
VERTEX
8
0
62
5
10
0.094662539
20
0.53174134
30
0
70
32
0
VERTEX
8
0
62
5
10
0.094662539
20
0.53174134
30
0
70
32
0
SEQEND
8
0
0
POLYLINE
8
0
62
5
66
1
10
0
20
0
30
0
70
8
0
VERTEX
8
0
62
5
10
0.032544998
20
0.55530604
30
0
70
32
0
VERTEX
8
0
62
5
10
0.032544998
20
0.55530604
30
0
70
32
0
SEQEND
8
0
0
POLYLINE
8
0
62
5
66
1
10
0
20
0
30
0
70
8
0
VERTEX
8
0
62
5
10
0.06082927
20
0.55530604
30
0
70
32
0
VERTEX
8
0
62
5
10
0.06082927
20
0.55530604
30
0
70
32
0
SEQEND
8
0
0
POLYLINE
8
0
62
5
66
1
10
0
20
0
30
0
70
8
0
VERTEX
8
0
62
5
10
0.089113541
20
0.55530604
30
0
70
32
0
VERTEX
8
0
62
5
10
0.089113541
20
0.55530604
30
0
70
32
0
SEQEND
8
0
0
POLYLINE
8
0
62
5
66
1
10
0
20
0
30
0
70
8
0
VERTEX
8
0
62
5
10
0.11739781
20
0.55530604
30
0
70
32
0
VERTEX
8
0
62
5
10
0.11739781
20
0.55530604
30
0
70
32
0
SEQEND
8
0
0
POLYLINE
8
0
62
30
66
1
10
0
20
0
30
0
70
8
0
VERTEX
8
0
62
30
10
0.12294681
20
0.55530604
30
0
70
32
0
VERTEX
8
0
62
30
10
0.2360839
20
0.55530604
30
0
70
32
0
SEQEND
8
0
0
POLYLINE
8
0
62
30
66
1
10
0
20
0
30
0
70
8
0
VERTEX
8
0
62
30
10
0.12294681
20
0.53174134
30
0
70
32
0
VERTEX
8
0
62
30
10
0.2360839
20
0.53174134
30
0
70
32
0
SEQEND
8
0
0
POLYLINE
8
0
62
5
66
1
10
0
20
0
30
0
70
8
0
VERTEX
8
0
62
5
10
0.12294681
20
0.53174134
30
0
70
32
0
VERTEX
8
0
62
5
10
0.14568208
20
0.55530604
30
0
70
32
0
VERTEX
8
0
62
5
10
0.15123108
20
0.53174134
30
0
70
32
0
VERTEX
8
0
62
5
10
0.17396635
20
0.55530604
30
0
70
32
0
VERTEX
8
0
62
5
10
0.17951535
20
0.53174134
30
0
70
32
0
VERTEX
8
0
62
5
10
0.20225063
20
0.55530604
30
0
70
32
0
VERTEX
8
0
62
5
10
0.20779962
20
0.53174134
30
0
70
32
0
VERTEX
8
0
62
5
10
0.2305349
20
0.55530604
30
0
70
32
0
VERTEX
8
0
62
5
10
0.2360839
20
0.53174134
30
0
70
32
0
SEQEND
8
0
0
POLYLINE
8
0
62
5
66
1
10
0
20
0
30
0
70
8
0
VERTEX
8
0
62
5
10
0.15123108
20
0.53174134
30
0
70
32
0
VERTEX
8
0
62
5
10
0.15123108
20
0.53174134
30
0
70
32
0
SEQEND
8
0
0
POLYLINE
8
0
62
5
66
1
10
0
20
0
30
0
70
8
0
VERTEX
8
0
62
5
10
0.17951535
20
0.53174134
30
0
70
32
0
VERTEX
8
0
62
5
10
0.17951535
20
0.53174134
30
0
70
32
0
SEQEND
8
0
0
POLYLINE
8
0
62
5
66
1
10
0
20
0
30
0
70
8
0
VERTEX
8
0
62
5
10
0.20779962
20
0.53174134
30
0
70
32
0
VERTEX
8
0
62
5
10
0.20779962
20
0.53174134
30
0
70
32
0
SEQEND
8
0
0
POLYLINE
8
0
62
5
66
1
10
0
20
0
30
0
70
8
0
VERTEX
8
0
62
5
10
0.14568208
20
0.55530604
30
0
70
32
0
VERTEX
8
0
62
5
10
0.14568208
20
0.55530604
30
0
70
32
0
SEQEND
8
0
0
POLYLINE
8
0
62
5
66
1
10
0
20
0
30
0
70
8
0
VERTEX
8
0
62
5
10
0.17396635
20
0.55530604
30
0
70
32
0
VERTEX
8
0
62
5
10
0.17396635
20
0.55530604
30
0
70
32
0
SEQEND
8
0
0
POLYLINE
8
0
62
5
66
1
10
0
20
0
30
0
70
8
0
VERTEX
8
0
62
5
10
0.20225063
20
0.55530604
30
0
70
32
0
VERTEX
8
0
62
5
10
0.20225063
20
0.55530604
30
0
70
32
0
SEQEND
8
0
0
POLYLINE
8
0
62
5
66
1
10
0
20
0
30
0
70
8
0
VERTEX
8
0
62
5
10
0.2305349
20
0.55530604
30
0
70
32
0
VERTEX
8
0
62
5
10
0.2305349
20
0.55530604
30
0
70
32
0
SEQEND
8
0
0
POLYLINE
8
0
62
30
66
1
10
0
20
0
30
0
70
8
0
VERTEX
8
0
62
30
10
-0.10332736
20
0.55530604
30
0
70
32
0
VERTEX
8
0
62
30
10
0.0098097257
20
0.55530604
30
0
70
32
0
SEQEND
8
0
0
POLYLINE
8
0
62
30
66
1
10
0
20
0
30
0
70
8
0
VERTEX
8
0
62
30
10
-0.10332736
20
0.53174134
30
0
70
32
0
VERTEX
8
0
62
30
10
0.0098097257
20
0.53174134
30
0
70
32
0
SEQEND
8
0
0
POLYLINE
8
0
62
5
66
1
10
0
20
0
30
0
70
8
0
VERTEX
8
0
62
5
10
-0.10332736
20
0.53174134
30
0
70
32
0
VERTEX
8
0
62
5
10
-0.080592087
20
0.55530604
30
0
70
32
0
VERTEX
8
0
62
5
10
-0.075043088
20
0.53174134
30
0
70
32
0
VERTEX
8
0
62
5
10
-0.052307815
20
0.55530604
30
0
70
32
0
VERTEX
8
0
62
5
10
-0.046758817
20
0.53174134
30
0
70
32
0
VERTEX
8
0
62
5
10
-0.024023544
20
0.55530604
30
0
70
32
0
VERTEX
8
0
62
5
10
-0.018474546
20
0.53174134
30
0
70
32
0
VERTEX
8
0
62
5
10
0.0042607272
20
0.55530604
30
0
70
32
0
VERTEX
8
0
62
5
10
0.0098097257
20
0.53174134
30
0
70
32
0
SEQEND
8
0
0
POLYLINE
8
0
62
5
66
1
10
0
20
0
30
0
70
8
0
VERTEX
8
0
62
5
10
-0.075043088
20
0.53174134
30
0
70
32
0
VERTEX
8
0
62
5
10
-0.075043088
20
0.53174134
30
0
70
32
0
SEQEND
8
0
0
POLYLINE
8
0
62
5
66
1
10
0
20
0
30
0
70
8
0
VERTEX
8
0
62
5
10
-0.046758817
20
0.53174134
30
0
70
32
0
VERTEX
8
0
62
5
10
-0.046758817
20
0.53174134
30
0
70
32
0
SEQEND
8
0
0
POLYLINE
8
0
62
5
66
1
10
0
20
0
30
0
70
8
0
VERTEX
8
0
62
5
10
-0.018474546
20
0.53174134
30
0
70
32
0
VERTEX
8
0
62
5
10
-0.018474546
20
0.53174134
30
0
70
32
0
SEQEND
8
0
0
POLYLINE
8
0
62
5
66
1
10
0
20
0
30
0
70
8
0
VERTEX
8
0
62
5
10
-0.080592087
20
0.55530604
30
0
70
32
0
VERTEX
8
0
62
5
10
-0.080592087
20
0.55530604
30
0
70
32
0
SEQEND
8
0
0
POLYLINE
8
0
62
5
66
1
10
0
20
0
30
0
70
8
0
VERTEX
8
0
62
5
10
-0.052307815
20
0.55530604
30
0
70
32
0
VERTEX
8
0
62
5
10
-0.052307815
20
0.55530604
30
0
70
32
0
SEQEND
8
0
0
POLYLINE
8
0
62
5
66
1
10
0
20
0
30
0
70
8
0
VERTEX
8
0
62
5
10
-0.024023544
20
0.55530604
30
0
70
32
0
VERTEX
8
0
62
5
10
-0.024023544
20
0.55530604
30
0
70
32
0
SEQEND
8
0
0
POLYLINE
8
0
62
5
66
1
10
0
20
0
30
0
70
8
0
VERTEX
8
0
62
5
10
0.0042607272
20
0.55530604
30
0
70
32
0
VERTEX
8
0
62
5
10
0.0042607272
20
0.55530604
30
0
70
32
0
SEQEND
8
0
0
POLYLINE
8
0
62
5
66
1
10
0
20
0
30
0
70
8
0
VERTEX
8
0
62
5
10
0.032544998
20
0.55530604
30
0
70
32
0
VERTEX
8
0
62
5
10
0.032544998
20
0.64825304
30
0
70
32
0
SEQEND
8
0
0
POLYLINE
8
0
62
5
66
1
10
0
20
0
30
0
70
8
0
VERTEX
8
0
62
5
10
0.14568208
20
0.55530604
30
0
70
32
0
VERTEX
8
0
62
5
10
0.14568208
20
0.64825304
30
0
70
32
0
SEQEND
8
0
0
POLYLINE
8
0
62
5
66
1
10
0
20
0
30
0
70
8
0
VERTEX
8
0
62
5
10
0.06082927
20
0.55530604
30
0
70
32
0
VERTEX
8
0
62
5
10
0.06082927
20
0.64825304
30
0
70
32
0
SEQEND
8
0
0
POLYLINE
8
0
62
5
66
1
10
0
20
0
30
0
70
8
0
VERTEX
8
0
62
5
10
0.089113541
20
0.55530604
30
0
70
32
0
VERTEX
8
0
62
5
10
0.089113541
20
0.64825304
30
0
70
32
0
SEQEND
8
0
0
POLYLINE
8
0
62
5
66
1
10
0
20
0
30
0
70
8
0
VERTEX
8
0
62
5
10
0.11739781
20
0.55530604
30
0
70
32
0
VERTEX
8
0
62
5
10
0.11739781
20
0.64825304
30
0
70
32
0
SEQEND
8
0
0
POLYLINE
8
0
62
5
66
1
10
0
20
0
30
0
70
8
0
VERTEX
8
0
62
5
10
0.25881917
20
0.55530604
30
0
70
32
0
VERTEX
8
0
62
5
10
0.25881917
20
0.64825304
30
0
70
32
0
SEQEND
8
0
0
POLYLINE
8
0
62
5
66
1
10
0
20
0
30
0
70
8
0
VERTEX
8
0
62
5
10
0.17396635
20
0.55530604
30
0
70
32
0
VERTEX
8
0
62
5
10
0.17396635
20
0.64825304
30
0
70
32
0
SEQEND
8
0
0
POLYLINE
8
0
62
5
66
1
10
0
20
0
30
0
70
8
0
VERTEX
8
0
62
5
10
0.20225063
20
0.55530604
30
0
70
32
0
VERTEX
8
0
62
5
10
0.20225063
20
0.64825304
30
0
70
32
0
SEQEND
8
0
0
POLYLINE
8
0
62
5
66
1
10
0
20
0
30
0
70
8
0
VERTEX
8
0
62
5
10
0.2305349
20
0.55530604
30
0
70
32
0
VERTEX
8
0
62
5
10
0.2305349
20
0.64825304
30
0
70
32
0
SEQEND
8
0
0
POLYLINE
8
0
62
5
66
1
10
0
20
0
30
0
70
8
0
VERTEX
8
0
62
5
10
-0.080592087
20
0.55530604
30
0
70
32
0
VERTEX
8
0
62
5
10
-0.080592087
20
0.64825304
30
0
70
32
0
SEQEND
8
0
0
POLYLINE
8
0
62
5
66
1
10
0
20
0
30
0
70
8
0
VERTEX
8
0
62
5
10
-0.052307815
20
0.55530604
30
0
70
32
0
VERTEX
8
0
62
5
10
-0.052307815
20
0.64825304
30
0
70
32
0
SEQEND
8
0
0
POLYLINE
8
0
62
5
66
1
10
0
20
0
30
0
70
8
0
VERTEX
8
0
62
5
10
-0.024023544
20
0.55530604
30
0
70
32
0
VERTEX
8
0
62
5
10
-0.024023544
20
0.64825304
30
0
70
32
0
SEQEND
8
0
0
POLYLINE
8
0
62
5
66
1
10
0
20
0
30
0
70
8
0
VERTEX
8
0
62
5
10
0.0042607272
20
0.55530604
30
0
70
32
0
VERTEX
8
0
62
5
10
0.0042607272
20
0.64825304
30
0
70
32
0
SEQEND
8
0
0
POLYLINE
8
0
62
5
66
1
10
0
20
0
30
0
70
8
0
VERTEX
8
0
62
5
10
0.032544998
20
0.64825304
30
0
70
32
0
VERTEX
8
0
62
5
10
0.032544998
20
0.66476868
30
0
70
32
0
SEQEND
8
0
0
POLYLINE
8
0
62
5
66
1
10
0
20
0
30
0
70
8
0
VERTEX
8
0
62
5
10
0.14568208
20
0.66476868
30
0
70
32
0
VERTEX
8
0
62
5
10
0.14568208
20
0.64825304
30
0
70
32
0
SEQEND
8
0
0
POLYLINE
8
0
62
5
66
1
10
0
20
0
30
0
70
8
0
VERTEX
8
0
62
5
10
0.032544998
20
0.65234142
30
0
70
32
0
VERTEX
8
0
62
5
10
0.06082927
20
0.64825324
30
0
70
32
0
VERTEX
8
0
62
5
10
0.089113541
20
0.65242267
30
0
70
32
0
VERTEX
8
0
62
5
10
0.11739781
20
0.65651086
30
0
70
32
0
VERTEX
8
0
62
5
10
0.14568208
20
0.65234142
30
0
70
32
0
SEQEND
8
0
0
POLYLINE
8
0
62
5
66
1
10
0
20
0
30
0
70
8
0
SEQEND
8
0
0
POLYLINE
8
0
62
5
66
1
10
0
20
0
30
0
70
8
0
VERTEX
8
0
62
5
10
0.032544998
20
0.66068029
30
0
70
32
0
VERTEX
8
0
62
5
10
0.06082927
20
0.66476848
30
0
70
32
0
VERTEX
8
0
62
5
10
0.089113541
20
0.66059904
30
0
70
32
0
VERTEX
8
0
62
5
10
0.11739781
20
0.65651086
30
0
70
32
0
VERTEX
8
0
62
5
10
0.14568208
20
0.66068029
30
0
70
32
0
SEQEND
8
0
0
POLYLINE
8
0
62
30
66
1
10
0
20
0
30
0
70
8
0
VERTEX
8
0
62
30
10
0.032544998
20
0.65651086
30
0
70
32
0
VERTEX
8
0
62
30
10
0.14568208
20
0.65651086
30
0
70
32
0
SEQEND
8
0
0
POLYLINE
8
0
62
30
66
1
10
0
20
0
30
0
70
8
0
VERTEX
8
0
62
30
10
0.06082927
20
0.64825324
30
0
70
32
0
VERTEX
8
0
62
30
10
0.06082927
20
0.65651086
30
0
70
32
0
SEQEND
8
0
0
POLYLINE
8
0
62
30
66
1
10
0
20
0
30
0
70
8
0
VERTEX
8
0
62
30
10
0.089113541
20
0.65242267
30
0
70
32
0
VERTEX
8
0
62
30
10
0.089113541
20
0.65651086
30
0
70
32
0
SEQEND
8
0
0
POLYLINE
8
0
62
30
66
1
10
0
20
0
30
0
70
8
0
VERTEX
8
0
62
30
10
0.11739781
20
0.65651086
30
0
70
32
0
VERTEX
8
0
62
30
10
0.11739781
20
0.65651086
30
0
70
32
0
SEQEND
8
0
0
POLYLINE
8
0
62
5
66
1
10
0
20
0
30
0
70
8
0
VERTEX
8
0
62
5
10
0.06082927
20
0.64825304
30
0
70
32
0
VERTEX
8
0
62
5
10
0.06082927
20
0.64825324
30
0
70
32
0
SEQEND
8
0
0
POLYLINE
8
0
62
5
66
1
10
0
20
0
30
0
70
8
0
VERTEX
8
0
62
5
10
0.089113541
20
0.64825304
30
0
70
32
0
VERTEX
8
0
62
5
10
0.089113541
20
0.65242267
30
0
70
32
0
SEQEND
8
0
0
POLYLINE
8
0
62
5
66
1
10
0
20
0
30
0
70
8
0
VERTEX
8
0
62
5
10
0.11739781
20
0.64825304
30
0
70
32
0
VERTEX
8
0
62
5
10
0.11739781
20
0.65651086
30
0
70
32
0
SEQEND
8
0
0
POLYLINE
8
0
62
5
66
1
10
0
20
0
30
0
70
8
0
VERTEX
8
0
62
5
10
0.06082927
20
0.65651086
30
0
70
32
0
VERTEX
8
0
62
5
10
0.06082927
20
0.66476868
30
0
70
32
0
SEQEND
8
0
0
POLYLINE
8
0
62
5
66
1
10
0
20
0
30
0
70
8
0
VERTEX
8
0
62
5
10
0.089113541
20
0.65651086
30
0
70
32
0
VERTEX
8
0
62
5
10
0.089113541
20
0.66476868
30
0
70
32
0
SEQEND
8
0
0
POLYLINE
8
0
62
5
66
1
10
0
20
0
30
0
70
8
0
VERTEX
8
0
62
5
10
0.11739781
20
0.65651086
30
0
70
32
0
VERTEX
8
0
62
5
10
0.11739781
20
0.66476868
30
0
70
32
0
SEQEND
8
0
0
POLYLINE
8
0
62
30
66
1
10
0
20
0
30
0
70
8
0
VERTEX
8
0
62
30
10
0.032544998
20
0.65234142
30
0
70
32
0
VERTEX
8
0
62
30
10
0.036616866
20
0.65651086
30
0
70
32
0
VERTEX
8
0
62
30
10
0.032544998
20
0.66068029
30
0
70
32
0
SEQEND
8
0
0
POLYLINE
8
0
62
30
66
1
10
0
20
0
30
0
70
8
0
VERTEX
8
0
62
30
10
0.06082927
20
0.64825324
30
0
70
32
0
VERTEX
8
0
62
30
10
0.067118204
20
0.65651086
30
0
70
32
0
VERTEX
8
0
62
30
10
0.06082927
20
0.66476848
30
0
70
32
0
SEQEND
8
0
0
POLYLINE
8
0
62
30
66
1
10
0
20
0
30
0
70
8
0
VERTEX
8
0
62
30
10
0.089113541
20
0.65242267
30
0
70
32
0
VERTEX
8
0
62
30
10
0.093128588
20
0.65651086
30
0
70
32
0
VERTEX
8
0
62
30
10
0.089113541
20
0.66059904
30
0
70
32
0
SEQEND
8
0
0
POLYLINE
8
0
62
30
66
1
10
0
20
0
30
0
70
8
0
VERTEX
8
0
62
30
10
0.11739781
20
0.65651086
30
0
70
32
0
VERTEX
8
0
62
30
10
0.11739781
20
0.65651086
30
0
70
32
0
VERTEX
8
0
62
30
10
0.11739781
20
0.65651086
30
0
70
32
0
SEQEND
8
0
0
POLYLINE
8
0
62
5
66
1
10
0
20
0
30
0
70
8
0
VERTEX
8
0
62
5
10
0.25881917
20
0.66476868
30
0
70
32
0
VERTEX
8
0
62
5
10
0.25881917
20
0.64825304
30
0
70
32
0
SEQEND
8
0
0
POLYLINE
8
0
62
5
66
1
10
0
20
0
30
0
70
8
0
VERTEX
8
0
62
5
10
0.14568208
20
0.65234142
30
0
70
32
0
VERTEX
8
0
62
5
10
0.17396635
20
0.64825324
30
0
70
32
0
VERTEX
8
0
62
5
10
0.20225063
20
0.65242267
30
0
70
32
0
VERTEX
8
0
62
5
10
0.2305349
20
0.65651086
30
0
70
32
0
VERTEX
8
0
62
5
10
0.25881917
20
0.65234142
30
0
70
32
0
SEQEND
8
0
0
POLYLINE
8
0
62
5
66
1
10
0
20
0
30
0
70
8
0
SEQEND
8
0
0
POLYLINE
8
0
62
5
66
1
10
0
20
0
30
0
70
8
0
VERTEX
8
0
62
5
10
0.14568208
20
0.66068029
30
0
70
32
0
VERTEX
8
0
62
5
10
0.17396635
20
0.66476848
30
0
70
32
0
VERTEX
8
0
62
5
10
0.20225063
20
0.66059904
30
0
70
32
0
VERTEX
8
0
62
5
10
0.2305349
20
0.65651086
30
0
70
32
0
VERTEX
8
0
62
5
10
0.25881917
20
0.66068029
30
0
70
32
0
SEQEND
8
0
0
POLYLINE
8
0
62
30
66
1
10
0
20
0
30
0
70
8
0
VERTEX
8
0
62
30
10
0.14568208
20
0.65651086
30
0
70
32
0
VERTEX
8
0
62
30
10
0.25881917
20
0.65651086
30
0
70
32
0
SEQEND
8
0
0
POLYLINE
8
0
62
30
66
1
10
0
20
0
30
0
70
8
0
VERTEX
8
0
62
30
10
0.17396635
20
0.64825324
30
0
70
32
0
VERTEX
8
0
62
30
10
0.17396635
20
0.65651086
30
0
70
32
0
SEQEND
8
0
0
POLYLINE
8
0
62
30
66
1
10
0
20
0
30
0
70
8
0
VERTEX
8
0
62
30
10
0.20225063
20
0.65242267
30
0
70
32
0
VERTEX
8
0
62
30
10
0.20225063
20
0.65651086
30
0
70
32
0
SEQEND
8
0
0
POLYLINE
8
0
62
30
66
1
10
0
20
0
30
0
70
8
0
VERTEX
8
0
62
30
10
0.2305349
20
0.65651086
30
0
70
32
0
VERTEX
8
0
62
30
10
0.2305349
20
0.65651086
30
0
70
32
0
SEQEND
8
0
0
POLYLINE
8
0
62
5
66
1
10
0
20
0
30
0
70
8
0
VERTEX
8
0
62
5
10
0.17396635
20
0.64825304
30
0
70
32
0
VERTEX
8
0
62
5
10
0.17396635
20
0.64825324
30
0
70
32
0
SEQEND
8
0
0
POLYLINE
8
0
62
5
66
1
10
0
20
0
30
0
70
8
0
VERTEX
8
0
62
5
10
0.20225063
20
0.64825304
30
0
70
32
0
VERTEX
8
0
62
5
10
0.20225063
20
0.65242267
30
0
70
32
0
SEQEND
8
0
0
POLYLINE
8
0
62
5
66
1
10
0
20
0
30
0
70
8
0
VERTEX
8
0
62
5
10
0.2305349
20
0.64825304
30
0
70
32
0
VERTEX
8
0
62
5
10
0.2305349
20
0.65651086
30
0
70
32
0
SEQEND
8
0
0
POLYLINE
8
0
62
5
66
1
10
0
20
0
30
0
70
8
0
VERTEX
8
0
62
5
10
0.17396635
20
0.65651086
30
0
70
32
0
VERTEX
8
0
62
5
10
0.17396635
20
0.66476868
30
0
70
32
0
SEQEND
8
0
0
POLYLINE
8
0
62
5
66
1
10
0
20
0
30
0
70
8
0
VERTEX
8
0
62
5
10
0.20225063
20
0.65651086
30
0
70
32
0
VERTEX
8
0
62
5
10
0.20225063
20
0.66476868
30
0
70
32
0
SEQEND
8
0
0
POLYLINE
8
0
62
5
66
1
10
0
20
0
30
0
70
8
0
VERTEX
8
0
62
5
10
0.2305349
20
0.65651086
30
0
70
32
0
VERTEX
8
0
62
5
10
0.2305349
20
0.66476868
30
0
70
32
0
SEQEND
8
0
0
POLYLINE
8
0
62
30
66
1
10
0
20
0
30
0
70
8
0
VERTEX
8
0
62
30
10
0.14568208
20
0.65234142
30
0
70
32
0
VERTEX
8
0
62
30
10
0.14975395
20
0.65651086
30
0
70
32
0
VERTEX
8
0
62
30
10
0.14568208
20
0.66068029
30
0
70
32
0
SEQEND
8
0
0
POLYLINE
8
0
62
30
66
1
10
0
20
0
30
0
70
8
0
VERTEX
8
0
62
30
10
0.17396635
20
0.64825324
30
0
70
32
0
VERTEX
8
0
62
30
10
0.18025529
20
0.65651086
30
0
70
32
0
VERTEX
8
0
62
30
10
0.17396635
20
0.66476848
30
0
70
32
0
SEQEND
8
0
0
POLYLINE
8
0
62
30
66
1
10
0
20
0
30
0
70
8
0
VERTEX
8
0
62
30
10
0.20225063
20
0.65242267
30
0
70
32
0
VERTEX
8
0
62
30
10
0.20626567
20
0.65651086
30
0
70
32
0
VERTEX
8
0
62
30
10
0.20225063
20
0.66059904
30
0
70
32
0
SEQEND
8
0
0
POLYLINE
8
0
62
30
66
1
10
0
20
0
30
0
70
8
0
VERTEX
8
0
62
30
10
0.2305349
20
0.65651086
30
0
70
32
0
VERTEX
8
0
62
30
10
0.2305349
20
0.65651086
30
0
70
32
0
VERTEX
8
0
62
30
10
0.2305349
20
0.65651086
30
0
70
32
0
SEQEND
8
0
0
POLYLINE
8
0
62
5
66
1
10
0
20
0
30
0
70
8
0
VERTEX
8
0
62
5
10
-0.080592087
20
0.64825304
30
0
70
32
0
VERTEX
8
0
62
5
10
-0.080592087
20
0.66476868
30
0
70
32
0
SEQEND
8
0
0
POLYLINE
8
0
62
5
66
1
10
0
20
0
30
0
70
8
0
VERTEX
8
0
62
5
10
-0.080592087
20
0.65234142
30
0
70
32
0
VERTEX
8
0
62
5
10
-0.052307815
20
0.64825324
30
0
70
32
0
VERTEX
8
0
62
5
10
-0.024023544
20
0.65242267
30
0
70
32
0
VERTEX
8
0
62
5
10
0.0042607272
20
0.65651086
30
0
70
32
0
VERTEX
8
0
62
5
10
0.032544998
20
0.65234142
30
0
70
32
0
SEQEND
8
0
0
POLYLINE
8
0
62
5
66
1
10
0
20
0
30
0
70
8
0
SEQEND
8
0
0
POLYLINE
8
0
62
5
66
1
10
0
20
0
30
0
70
8
0
VERTEX
8
0
62
5
10
-0.080592087
20
0.66068029
30
0
70
32
0
VERTEX
8
0
62
5
10
-0.052307815
20
0.66476848
30
0
70
32
0
VERTEX
8
0
62
5
10
-0.024023544
20
0.66059904
30
0
70
32
0
VERTEX
8
0
62
5
10
0.0042607272
20
0.65651086
30
0
70
32
0
VERTEX
8
0
62
5
10
0.032544998
20
0.66068029
30
0
70
32
0
SEQEND
8
0
0
POLYLINE
8
0
62
30
66
1
10
0
20
0
30
0
70
8
0
VERTEX
8
0
62
30
10
-0.080592087
20
0.65651086
30
0
70
32
0
VERTEX
8
0
62
30
10
0.032544998
20
0.65651086
30
0
70
32
0
SEQEND
8
0
0
POLYLINE
8
0
62
30
66
1
10
0
20
0
30
0
70
8
0
VERTEX
8
0
62
30
10
-0.052307815
20
0.64825324
30
0
70
32
0
VERTEX
8
0
62
30
10
-0.052307815
20
0.65651086
30
0
70
32
0
SEQEND
8
0
0
POLYLINE
8
0
62
30
66
1
10
0
20
0
30
0
70
8
0
VERTEX
8
0
62
30
10
-0.024023544
20
0.65242267
30
0
70
32
0
VERTEX
8
0
62
30
10
-0.024023544
20
0.65651086
30
0
70
32
0
SEQEND
8
0
0
POLYLINE
8
0
62
30
66
1
10
0
20
0
30
0
70
8
0
VERTEX
8
0
62
30
10
0.0042607272
20
0.65651086
30
0
70
32
0
VERTEX
8
0
62
30
10
0.0042607272
20
0.65651086
30
0
70
32
0
SEQEND
8
0
0
POLYLINE
8
0
62
5
66
1
10
0
20
0
30
0
70
8
0
VERTEX
8
0
62
5
10
-0.052307815
20
0.64825304
30
0
70
32
0
VERTEX
8
0
62
5
10
-0.052307815
20
0.64825324
30
0
70
32
0
SEQEND
8
0
0
POLYLINE
8
0
62
5
66
1
10
0
20
0
30
0
70
8
0
VERTEX
8
0
62
5
10
-0.024023544
20
0.64825304
30
0
70
32
0
VERTEX
8
0
62
5
10
-0.024023544
20
0.65242267
30
0
70
32
0
SEQEND
8
0
0
POLYLINE
8
0
62
5
66
1
10
0
20
0
30
0
70
8
0
VERTEX
8
0
62
5
10
0.0042607272
20
0.64825304
30
0
70
32
0
VERTEX
8
0
62
5
10
0.0042607272
20
0.65651086
30
0
70
32
0
SEQEND
8
0
0
POLYLINE
8
0
62
5
66
1
10
0
20
0
30
0
70
8
0
VERTEX
8
0
62
5
10
-0.052307815
20
0.65651086
30
0
70
32
0
VERTEX
8
0
62
5
10
-0.052307815
20
0.66476868
30
0
70
32
0
SEQEND
8
0
0
POLYLINE
8
0
62
5
66
1
10
0
20
0
30
0
70
8
0
VERTEX
8
0
62
5
10
-0.024023544
20
0.65651086
30
0
70
32
0
VERTEX
8
0
62
5
10
-0.024023544
20
0.66476868
30
0
70
32
0
SEQEND
8
0
0
POLYLINE
8
0
62
5
66
1
10
0
20
0
30
0
70
8
0
VERTEX
8
0
62
5
10
0.0042607272
20
0.65651086
30
0
70
32
0
VERTEX
8
0
62
5
10
0.0042607272
20
0.66476868
30
0
70
32
0
SEQEND
8
0
0
POLYLINE
8
0
62
30
66
1
10
0
20
0
30
0
70
8
0
VERTEX
8
0
62
30
10
-0.080592087
20
0.65234142
30
0
70
32
0
VERTEX
8
0
62
30
10
-0.076520219
20
0.65651086
30
0
70
32
0
VERTEX
8
0
62
30
10
-0.080592087
20
0.66068029
30
0
70
32
0
SEQEND
8
0
0
POLYLINE
8
0
62
30
66
1
10
0
20
0
30
0
70
8
0
VERTEX
8
0
62
30
10
-0.052307815
20
0.64825324
30
0
70
32
0
VERTEX
8
0
62
30
10
-0.046018881
20
0.65651086
30
0
70
32
0
VERTEX
8
0
62
30
10
-0.052307815
20
0.66476848
30
0
70
32
0
SEQEND
8
0
0
POLYLINE
8
0
62
30
66
1
10
0
20
0
30
0
70
8
0
VERTEX
8
0
62
30
10
-0.024023544
20
0.65242267
30
0
70
32
0
VERTEX
8
0
62
30
10
-0.020008497
20
0.65651086
30
0
70
32
0
VERTEX
8
0
62
30
10
-0.024023544
20
0.66059904
30
0
70
32
0
SEQEND
8
0
0
POLYLINE
8
0
62
30
66
1
10
0
20
0
30
0
70
8
0
VERTEX
8
0
62
30
10
0.0042607272
20
0.65651086
30
0
70
32
0
VERTEX
8
0
62
30
10
0.0042607272
20
0.65651086
30
0
70
32
0
VERTEX
8
0
62
30
10
0.0042607272
20
0.65651086
30
0
70
32
0
SEQEND
8
0
0
POLYLINE
8
0
62
5
66
1
10
0
20
0
30
0
70
8
0
VERTEX
8
0
62
5
10
0.032544998
20
0.66476868
30
0
70
32
0
VERTEX
8
0
62
5
10
0.032544998
20
0.70476868
30
0
70
32
0
SEQEND
8
0
0
POLYLINE
8
0
62
5
66
1
10
0
20
0
30
0
70
8
0
VERTEX
8
0
62
5
10
0.14568208
20
0.70476868
30
0
70
32
0
VERTEX
8
0
62
5
10
0.14568208
20
0.66476868
30
0
70
32
0
SEQEND
8
0
0
POLYLINE
8
0
62
5
66
1
10
0
20
0
30
0
70
8
0
VERTEX
8
0
62
5
10
0.032544998
20
0.66476868
30
0
70
32
0
VERTEX
8
0
62
5
10
0.14568208
20
0.66476868
30
0
70
32
0
SEQEND
8
0
0
POLYLINE
8
0
62
5
66
1
10
0
20
0
30
0
70
8
0
VERTEX
8
0
62
5
10
0.032544998
20
0.70476868
30
0
70
32
0
VERTEX
8
0
62
5
10
0.14568208
20
0.70476868
30
0
70
32
0
SEQEND
8
0
0
POLYLINE
8
0
62
5
66
1
10
0
20
0
30
0
70
8
0
VERTEX
8
0
62
5
10
0.06082927
20
0.66476868
30
0
70
32
0
VERTEX
8
0
62
5
10
0.06082927
20
0.66476868
30
0
70
32
0
SEQEND
8
0
0
POLYLINE
8
0
62
5
66
1
10
0
20
0
30
0
70
8
0
VERTEX
8
0
62
5
10
0.089113541
20
0.66476868
30
0
70
32
0
VERTEX
8
0
62
5
10
0.089113541
20
0.66476868
30
0
70
32
0
SEQEND
8
0
0
POLYLINE
8
0
62
5
66
1
10
0
20
0
30
0
70
8
0
VERTEX
8
0
62
5
10
0.11739781
20
0.66476868
30
0
70
32
0
VERTEX
8
0
62
5
10
0.11739781
20
0.66476868
30
0
70
32
0
SEQEND
8
0
0
POLYLINE
8
0
62
5
66
1
10
0
20
0
30
0
70
8
0
VERTEX
8
0
62
5
10
0.06082927
20
0.70476868
30
0
70
32
0
VERTEX
8
0
62
5
10
0.06082927
20
0.70476868
30
0
70
32
0
SEQEND
8
0
0
POLYLINE
8
0
62
5
66
1
10
0
20
0
30
0
70
8
0
VERTEX
8
0
62
5
10
0.089113541
20
0.70476868
30
0
70
32
0
VERTEX
8
0
62
5
10
0.089113541
20
0.70476868
30
0
70
32
0
SEQEND
8
0
0
POLYLINE
8
0
62
5
66
1
10
0
20
0
30
0
70
8
0
VERTEX
8
0
62
5
10
0.11739781
20
0.70476868
30
0
70
32
0
VERTEX
8
0
62
5
10
0.11739781
20
0.70476868
30
0
70
32
0
SEQEND
8
0
0
POLYLINE
8
0
62
30
66
1
10
0
20
0
30
0
70
8
0
VERTEX
8
0
62
30
10
0.032544998
20
0.70476868
30
0
70
32
0
VERTEX
8
0
62
30
10
0.06082927
20
0.66476868
30
0
70
32
0
SEQEND
8
0
0
POLYLINE
8
0
62
30
66
1
10
0
20
0
30
0
70
8
0
VERTEX
8
0
62
30
10
0.06082927
20
0.70476868
30
0
70
32
0
VERTEX
8
0
62
30
10
0.032544998
20
0.66476868
30
0
70
32
0
SEQEND
8
0
0
POLYLINE
8
0
62
30
66
1
10
0
20
0
30
0
70
8
0
VERTEX
8
0
62
30
10
0.089113541
20
0.70476868
30
0
70
32
0
VERTEX
8
0
62
30
10
0.11739781
20
0.66476868
30
0
70
32
0
SEQEND
8
0
0
POLYLINE
8
0
62
30
66
1
10
0
20
0
30
0
70
8
0
VERTEX
8
0
62
30
10
0.11739781
20
0.70476868
30
0
70
32
0
VERTEX
8
0
62
30
10
0.089113541
20
0.66476868
30
0
70
32
0
SEQEND
8
0
0
POLYLINE
8
0
62
30
66
1
10
0
20
0
30
0
70
8
0
VERTEX
8
0
62
30
10
0.06082927
20
0.68476868
30
0
70
32
0
VERTEX
8
0
62
30
10
0.089113541
20
0.68476868
30
0
70
32
0
SEQEND
8
0
0
POLYLINE
8
0
62
30
66
1
10
0
20
0
30
0
70
8
0
VERTEX
8
0
62
30
10
0.11739781
20
0.68476868
30
0
70
32
0
VERTEX
8
0
62
30
10
0.14568208
20
0.68476868
30
0
70
32
0
SEQEND
8
0
0
POLYLINE
8
0
62
5
66
1
10
0
20
0
30
0
70
8
0
VERTEX
8
0
62
5
10
0.032544998
20
0.68476868
30
0
70
32
0
VERTEX
8
0
62
5
10
0.046687134
20
0.68476868
30
0
70
32
0
SEQEND
8
0
0
POLYLINE
8
0
62
5
66
1
10
0
20
0
30
0
70
8
0
VERTEX
8
0
62
5
10
0.089113541
20
0.68476868
30
0
70
32
0
VERTEX
8
0
62
5
10
0.10325568
20
0.68476868
30
0
70
32
0
SEQEND
8
0
0
POLYLINE
8
0
62
5
66
1
10
0
20
0
30
0
70
8
0
VERTEX
8
0
62
5
10
0.046687134
20
0.68476868
30
0
70
32
0
VERTEX
8
0
62
5
10
0.06082927
20
0.68476868
30
0
70
32
0
SEQEND
8
0
0
POLYLINE
8
0
62
5
66
1
10
0
20
0
30
0
70
8
0
VERTEX
8
0
62
5
10
0.10325568
20
0.68476868
30
0
70
32
0
VERTEX
8
0
62
5
10
0.11739781
20
0.68476868
30
0
70
32
0
SEQEND
8
0
0
POLYLINE
8
0
62
5
66
1
10
0
20
0
30
0
70
8
0
VERTEX
8
0
62
5
10
0.06082927
20
0.66476868
30
0
70
32
0
VERTEX
8
0
62
5
10
0.06082927
20
0.70476868
30
0
70
32
0
SEQEND
8
0
0
POLYLINE
8
0
62
5
66
1
10
0
20
0
30
0
70
8
0
VERTEX
8
0
62
5
10
0.089113541
20
0.66476868
30
0
70
32
0
VERTEX
8
0
62
5
10
0.089113541
20
0.70476868
30
0
70
32
0
SEQEND
8
0
0
POLYLINE
8
0
62
5
66
1
10
0
20
0
30
0
70
8
0
VERTEX
8
0
62
5
10
0.11739781
20
0.66476868
30
0
70
32
0
VERTEX
8
0
62
5
10
0.11739781
20
0.70476868
30
0
70
32
0
SEQEND
8
0
0
POLYLINE
8
0
62
5
66
1
10
0
20
0
30
0
70
8
0
VERTEX
8
0
62
5
10
0.032544998
20
0.66476868
30
0
70
32
0
VERTEX
8
0
62
5
10
0.032544998
20
0.70476868
30
0
70
32
0
SEQEND
8
0
0
POLYLINE
8
0
62
5
66
1
10
0
20
0
30
0
70
8
0
VERTEX
8
0
62
5
10
0.25881917
20
0.70476868
30
0
70
32
0
VERTEX
8
0
62
5
10
0.25881917
20
0.66476868
30
0
70
32
0
SEQEND
8
0
0
POLYLINE
8
0
62
5
66
1
10
0
20
0
30
0
70
8
0
VERTEX
8
0
62
5
10
0.14568208
20
0.66476868
30
0
70
32
0
VERTEX
8
0
62
5
10
0.25881917
20
0.66476868
30
0
70
32
0
SEQEND
8
0
0
POLYLINE
8
0
62
5
66
1
10
0
20
0
30
0
70
8
0
VERTEX
8
0
62
5
10
0.14568208
20
0.70476868
30
0
70
32
0
VERTEX
8
0
62
5
10
0.25881917
20
0.70476868
30
0
70
32
0
SEQEND
8
0
0
POLYLINE
8
0
62
5
66
1
10
0
20
0
30
0
70
8
0
VERTEX
8
0
62
5
10
0.17396635
20
0.66476868
30
0
70
32
0
VERTEX
8
0
62
5
10
0.17396635
20
0.66476868
30
0
70
32
0
SEQEND
8
0
0
POLYLINE
8
0
62
5
66
1
10
0
20
0
30
0
70
8
0
VERTEX
8
0
62
5
10
0.20225063
20
0.66476868
30
0
70
32
0
VERTEX
8
0
62
5
10
0.20225063
20
0.66476868
30
0
70
32
0
SEQEND
8
0
0
POLYLINE
8
0
62
5
66
1
10
0
20
0
30
0
70
8
0
VERTEX
8
0
62
5
10
0.2305349
20
0.66476868
30
0
70
32
0
VERTEX
8
0
62
5
10
0.2305349
20
0.66476868
30
0
70
32
0
SEQEND
8
0
0
POLYLINE
8
0
62
5
66
1
10
0
20
0
30
0
70
8
0
VERTEX
8
0
62
5
10
0.17396635
20
0.70476868
30
0
70
32
0
VERTEX
8
0
62
5
10
0.17396635
20
0.70476868
30
0
70
32
0
SEQEND
8
0
0
POLYLINE
8
0
62
5
66
1
10
0
20
0
30
0
70
8
0
VERTEX
8
0
62
5
10
0.20225063
20
0.70476868
30
0
70
32
0
VERTEX
8
0
62
5
10
0.20225063
20
0.70476868
30
0
70
32
0
SEQEND
8
0
0
POLYLINE
8
0
62
5
66
1
10
0
20
0
30
0
70
8
0
VERTEX
8
0
62
5
10
0.2305349
20
0.70476868
30
0
70
32
0
VERTEX
8
0
62
5
10
0.2305349
20
0.70476868
30
0
70
32
0
SEQEND
8
0
0
POLYLINE
8
0
62
30
66
1
10
0
20
0
30
0
70
8
0
VERTEX
8
0
62
30
10
0.14568208
20
0.70476868
30
0
70
32
0
VERTEX
8
0
62
30
10
0.17396635
20
0.66476868
30
0
70
32
0
SEQEND
8
0
0
POLYLINE
8
0
62
30
66
1
10
0
20
0
30
0
70
8
0
VERTEX
8
0
62
30
10
0.17396635
20
0.70476868
30
0
70
32
0
VERTEX
8
0
62
30
10
0.14568208
20
0.66476868
30
0
70
32
0
SEQEND
8
0
0
POLYLINE
8
0
62
30
66
1
10
0
20
0
30
0
70
8
0
VERTEX
8
0
62
30
10
0.20225063
20
0.70476868
30
0
70
32
0
VERTEX
8
0
62
30
10
0.2305349
20
0.66476868
30
0
70
32
0
SEQEND
8
0
0
POLYLINE
8
0
62
30
66
1
10
0
20
0
30
0
70
8
0
VERTEX
8
0
62
30
10
0.2305349
20
0.70476868
30
0
70
32
0
VERTEX
8
0
62
30
10
0.20225063
20
0.66476868
30
0
70
32
0
SEQEND
8
0
0
POLYLINE
8
0
62
30
66
1
10
0
20
0
30
0
70
8
0
VERTEX
8
0
62
30
10
0.17396635
20
0.68476868
30
0
70
32
0
VERTEX
8
0
62
30
10
0.20225063
20
0.68476868
30
0
70
32
0
SEQEND
8
0
0
POLYLINE
8
0
62
30
66
1
10
0
20
0
30
0
70
8
0
VERTEX
8
0
62
30
10
0.2305349
20
0.68476868
30
0
70
32
0
VERTEX
8
0
62
30
10
0.25881917
20
0.68476868
30
0
70
32
0
SEQEND
8
0
0
POLYLINE
8
0
62
5
66
1
10
0
20
0
30
0
70
8
0
VERTEX
8
0
62
5
10
0.14568208
20
0.68476868
30
0
70
32
0
VERTEX
8
0
62
5
10
0.15982422
20
0.68476868
30
0
70
32
0
SEQEND
8
0
0
POLYLINE
8
0
62
5
66
1
10
0
20
0
30
0
70
8
0
VERTEX
8
0
62
5
10
0.20225063
20
0.68476868
30
0
70
32
0
VERTEX
8
0
62
5
10
0.21639276
20
0.68476868
30
0
70
32
0
SEQEND
8
0
0
POLYLINE
8
0
62
5
66
1
10
0
20
0
30
0
70
8
0
VERTEX
8
0
62
5
10
0.15982422
20
0.68476868
30
0
70
32
0
VERTEX
8
0
62
5
10
0.17396635
20
0.68476868
30
0
70
32
0
SEQEND
8
0
0
POLYLINE
8
0
62
5
66
1
10
0
20
0
30
0
70
8
0
VERTEX
8
0
62
5
10
0.21639276
20
0.68476868
30
0
70
32
0
VERTEX
8
0
62
5
10
0.2305349
20
0.68476868
30
0
70
32
0
SEQEND
8
0
0
POLYLINE
8
0
62
5
66
1
10
0
20
0
30
0
70
8
0
VERTEX
8
0
62
5
10
0.17396635
20
0.66476868
30
0
70
32
0
VERTEX
8
0
62
5
10
0.17396635
20
0.70476868
30
0
70
32
0
SEQEND
8
0
0
POLYLINE
8
0
62
5
66
1
10
0
20
0
30
0
70
8
0
VERTEX
8
0
62
5
10
0.20225063
20
0.66476868
30
0
70
32
0
VERTEX
8
0
62
5
10
0.20225063
20
0.70476868
30
0
70
32
0
SEQEND
8
0
0
POLYLINE
8
0
62
5
66
1
10
0
20
0
30
0
70
8
0
VERTEX
8
0
62
5
10
0.2305349
20
0.66476868
30
0
70
32
0
VERTEX
8
0
62
5
10
0.2305349
20
0.70476868
30
0
70
32
0
SEQEND
8
0
0
POLYLINE
8
0
62
5
66
1
10
0
20
0
30
0
70
8
0
VERTEX
8
0
62
5
10
0.14568208
20
0.66476868
30
0
70
32
0
VERTEX
8
0
62
5
10
0.14568208
20
0.70476868
30
0
70
32
0
SEQEND
8
0
0
POLYLINE
8
0
62
5
66
1
10
0
20
0
30
0
70
8
0
VERTEX
8
0
62
5
10
-0.080592087
20
0.66476868
30
0
70
32
0
VERTEX
8
0
62
5
10
-0.080592087
20
0.70476868
30
0
70
32
0
SEQEND
8
0
0
POLYLINE
8
0
62
5
66
1
10
0
20
0
30
0
70
8
0
VERTEX
8
0
62
5
10
-0.080592087
20
0.66476868
30
0
70
32
0
VERTEX
8
0
62
5
10
0.032544998
20
0.66476868
30
0
70
32
0
SEQEND
8
0
0
POLYLINE
8
0
62
5
66
1
10
0
20
0
30
0
70
8
0
VERTEX
8
0
62
5
10
-0.080592087
20
0.70476868
30
0
70
32
0
VERTEX
8
0
62
5
10
0.032544998
20
0.70476868
30
0
70
32
0
SEQEND
8
0
0
POLYLINE
8
0
62
5
66
1
10
0
20
0
30
0
70
8
0
VERTEX
8
0
62
5
10
-0.052307815
20
0.66476868
30
0
70
32
0
VERTEX
8
0
62
5
10
-0.052307815
20
0.66476868
30
0
70
32
0
SEQEND
8
0
0
POLYLINE
8
0
62
5
66
1
10
0
20
0
30
0
70
8
0
VERTEX
8
0
62
5
10
-0.024023544
20
0.66476868
30
0
70
32
0
VERTEX
8
0
62
5
10
-0.024023544
20
0.66476868
30
0
70
32
0
SEQEND
8
0
0
POLYLINE
8
0
62
5
66
1
10
0
20
0
30
0
70
8
0
VERTEX
8
0
62
5
10
0.0042607272
20
0.66476868
30
0
70
32
0
VERTEX
8
0
62
5
10
0.0042607272
20
0.66476868
30
0
70
32
0
SEQEND
8
0
0
POLYLINE
8
0
62
5
66
1
10
0
20
0
30
0
70
8
0
VERTEX
8
0
62
5
10
-0.052307815
20
0.70476868
30
0
70
32
0
VERTEX
8
0
62
5
10
-0.052307815
20
0.70476868
30
0
70
32
0
SEQEND
8
0
0
POLYLINE
8
0
62
5
66
1
10
0
20
0
30
0
70
8
0
VERTEX
8
0
62
5
10
-0.024023544
20
0.70476868
30
0
70
32
0
VERTEX
8
0
62
5
10
-0.024023544
20
0.70476868
30
0
70
32
0
SEQEND
8
0
0
POLYLINE
8
0
62
5
66
1
10
0
20
0
30
0
70
8
0
VERTEX
8
0
62
5
10
0.0042607272
20
0.70476868
30
0
70
32
0
VERTEX
8
0
62
5
10
0.0042607272
20
0.70476868
30
0
70
32
0
SEQEND
8
0
0
POLYLINE
8
0
62
30
66
1
10
0
20
0
30
0
70
8
0
VERTEX
8
0
62
30
10
-0.080592087
20
0.70476868
30
0
70
32
0
VERTEX
8
0
62
30
10
-0.052307815
20
0.66476868
30
0
70
32
0
SEQEND
8
0
0
POLYLINE
8
0
62
30
66
1
10
0
20
0
30
0
70
8
0
VERTEX
8
0
62
30
10
-0.052307815
20
0.70476868
30
0
70
32
0
VERTEX
8
0
62
30
10
-0.080592087
20
0.66476868
30
0
70
32
0
SEQEND
8
0
0
POLYLINE
8
0
62
30
66
1
10
0
20
0
30
0
70
8
0
VERTEX
8
0
62
30
10
-0.024023544
20
0.70476868
30
0
70
32
0
VERTEX
8
0
62
30
10
0.0042607272
20
0.66476868
30
0
70
32
0
SEQEND
8
0
0
POLYLINE
8
0
62
30
66
1
10
0
20
0
30
0
70
8
0
VERTEX
8
0
62
30
10
0.0042607272
20
0.70476868
30
0
70
32
0
VERTEX
8
0
62
30
10
-0.024023544
20
0.66476868
30
0
70
32
0
SEQEND
8
0
0
POLYLINE
8
0
62
30
66
1
10
0
20
0
30
0
70
8
0
VERTEX
8
0
62
30
10
-0.052307815
20
0.68476868
30
0
70
32
0
VERTEX
8
0
62
30
10
-0.024023544
20
0.68476868
30
0
70
32
0
SEQEND
8
0
0
POLYLINE
8
0
62
30
66
1
10
0
20
0
30
0
70
8
0
VERTEX
8
0
62
30
10
0.0042607272
20
0.68476868
30
0
70
32
0
VERTEX
8
0
62
30
10
0.032544998
20
0.68476868
30
0
70
32
0
SEQEND
8
0
0
POLYLINE
8
0
62
5
66
1
10
0
20
0
30
0
70
8
0
VERTEX
8
0
62
5
10
-0.080592087
20
0.68476868
30
0
70
32
0
VERTEX
8
0
62
5
10
-0.066449951
20
0.68476868
30
0
70
32
0
SEQEND
8
0
0
POLYLINE
8
0
62
5
66
1
10
0
20
0
30
0
70
8
0
VERTEX
8
0
62
5
10
-0.024023544
20
0.68476868
30
0
70
32
0
VERTEX
8
0
62
5
10
-0.0098814084
20
0.68476868
30
0
70
32
0
SEQEND
8
0
0
POLYLINE
8
0
62
5
66
1
10
0
20
0
30
0
70
8
0
VERTEX
8
0
62
5
10
-0.066449951
20
0.68476868
30
0
70
32
0
VERTEX
8
0
62
5
10
-0.052307815
20
0.68476868
30
0
70
32
0
SEQEND
8
0
0
POLYLINE
8
0
62
5
66
1
10
0
20
0
30
0
70
8
0
VERTEX
8
0
62
5
10
-0.0098814084
20
0.68476868
30
0
70
32
0
VERTEX
8
0
62
5
10
0.0042607272
20
0.68476868
30
0
70
32
0
SEQEND
8
0
0
POLYLINE
8
0
62
5
66
1
10
0
20
0
30
0
70
8
0
VERTEX
8
0
62
5
10
-0.052307815
20
0.66476868
30
0
70
32
0
VERTEX
8
0
62
5
10
-0.052307815
20
0.70476868
30
0
70
32
0
SEQEND
8
0
0
POLYLINE
8
0
62
5
66
1
10
0
20
0
30
0
70
8
0
VERTEX
8
0
62
5
10
-0.024023544
20
0.66476868
30
0
70
32
0
VERTEX
8
0
62
5
10
-0.024023544
20
0.70476868
30
0
70
32
0
SEQEND
8
0
0
POLYLINE
8
0
62
5
66
1
10
0
20
0
30
0
70
8
0
VERTEX
8
0
62
5
10
0.0042607272
20
0.66476868
30
0
70
32
0
VERTEX
8
0
62
5
10
0.0042607272
20
0.70476868
30
0
70
32
0
SEQEND
8
0
0
POLYLINE
8
0
62
5
66
1
10
0
20
0
30
0
70
8
0
VERTEX
8
0
62
5
10
-0.080592087
20
0.66476868
30
0
70
32
0
VERTEX
8
0
62
5
10
-0.080592087
20
0.70476868
30
0
70
32
0
SEQEND
8
0
0
POLYLINE
8
0
62
5
66
1
10
0
20
0
30
0
70
8
0
VERTEX
8
0
62
5
10
0.032544998
20
0.70476868
30
0
70
32
0
VERTEX
8
0
62
5
10
0.032544998
20
0.7932935
30
0
70
32
0
SEQEND
8
0
0
POLYLINE
8
0
62
5
66
1
10
0
20
0
30
0
70
8
0
VERTEX
8
0
62
5
10
0.14568208
20
0.7932935
30
0
70
32
0
VERTEX
8
0
62
5
10
0.14568208
20
0.70476868
30
0
70
32
0
SEQEND
8
0
0
POLYLINE
8
0
62
5
66
1
10
0
20
0
30
0
70
8
0
VERTEX
8
0
62
5
10
0.032544998
20
0.7194383
30
0
70
32
0
VERTEX
8
0
62
5
10
0.06082927
20
0.70527589
30
0
70
32
0
VERTEX
8
0
62
5
10
0.089113541
20
0.71273747
30
0
70
32
0
VERTEX
8
0
62
5
10
0.11739781
20
0.72689988
30
0
70
32
0
VERTEX
8
0
62
5
10
0.14568208
20
0.7194383
30
0
70
32
0
SEQEND
8
0
0
POLYLINE
8
0
62
5
66
1
10
0
20
0
30
0
70
8
0
VERTEX
8
0
62
5
10
0.032544998
20
0.76370072
30
0
70
32
0
VERTEX
8
0
62
5
10
0.06082927
20
0.74953831
30
0
70
32
0
VERTEX
8
0
62
5
10
0.089113541
20
0.75699989
30
0
70
32
0
VERTEX
8
0
62
5
10
0.11739781
20
0.7711623
30
0
70
32
0
VERTEX
8
0
62
5
10
0.14568208
20
0.76370072
30
0
70
32
0
SEQEND
8
0
0
POLYLINE
8
0
62
5
66
1
10
0
20
0
30
0
70
8
0
VERTEX
8
0
62
5
10
0.032544998
20
0.73436146
30
0
70
32
0
VERTEX
8
0
62
5
10
0.06082927
20
0.74852387
30
0
70
32
0
VERTEX
8
0
62
5
10
0.089113541
20
0.74106229
30
0
70
32
0
VERTEX
8
0
62
5
10
0.11739781
20
0.72689988
30
0
70
32
0
VERTEX
8
0
62
5
10
0.14568208
20
0.73436146
30
0
70
32
0
SEQEND
8
0
0
POLYLINE
8
0
62
5
66
1
10
0
20
0
30
0
70
8
0
VERTEX
8
0
62
5
10
0.032544998
20
0.77862388
30
0
70
32
0
VERTEX
8
0
62
5
10
0.06082927
20
0.79278629
30
0
70
32
0
VERTEX
8
0
62
5
10
0.089113541
20
0.78532471
30
0
70
32
0
VERTEX
8
0
62
5
10
0.11739781
20
0.7711623
30
0
70
32
0
VERTEX
8
0
62
5
10
0.14568208
20
0.77862388
30
0
70
32
0
SEQEND
8
0
0
POLYLINE
8
0
62
30
66
1
10
0
20
0
30
0
70
8
0
VERTEX
8
0
62
30
10
0.032544998
20
0.72689988
30
0
70
32
0
VERTEX
8
0
62
30
10
0.14568208
20
0.72689988
30
0
70
32
0
SEQEND
8
0
0
POLYLINE
8
0
62
30
66
1
10
0
20
0
30
0
70
8
0
VERTEX
8
0
62
30
10
0.032544998
20
0.7711623
30
0
70
32
0
VERTEX
8
0
62
30
10
0.14568208
20
0.7711623
30
0
70
32
0
SEQEND
8
0
0
POLYLINE
8
0
62
30
66
1
10
0
20
0
30
0
70
8
0
VERTEX
8
0
62
30
10
0.06082927
20
0.70527589
30
0
70
32
0
VERTEX
8
0
62
30
10
0.06082927
20
0.72689988
30
0
70
32
0
SEQEND
8
0
0
POLYLINE
8
0
62
30
66
1
10
0
20
0
30
0
70
8
0
VERTEX
8
0
62
30
10
0.089113541
20
0.71273747
30
0
70
32
0
VERTEX
8
0
62
30
10
0.089113541
20
0.72689988
30
0
70
32
0
SEQEND
8
0
0
POLYLINE
8
0
62
30
66
1
10
0
20
0
30
0
70
8
0
VERTEX
8
0
62
30
10
0.11739781
20
0.72689988
30
0
70
32
0
VERTEX
8
0
62
30
10
0.11739781
20
0.72689988
30
0
70
32
0
SEQEND
8
0
0
POLYLINE
8
0
62
30
66
1
10
0
20
0
30
0
70
8
0
VERTEX
8
0
62
30
10
0.06082927
20
0.74953831
30
0
70
32
0
VERTEX
8
0
62
30
10
0.06082927
20
0.7711623
30
0
70
32
0
SEQEND
8
0
0
POLYLINE
8
0
62
30
66
1
10
0
20
0
30
0
70
8
0
VERTEX
8
0
62
30
10
0.089113541
20
0.75699989
30
0
70
32
0
VERTEX
8
0
62
30
10
0.089113541
20
0.7711623
30
0
70
32
0
SEQEND
8
0
0
POLYLINE
8
0
62
30
66
1
10
0
20
0
30
0
70
8
0
VERTEX
8
0
62
30
10
0.11739781
20
0.7711623
30
0
70
32
0
VERTEX
8
0
62
30
10
0.11739781
20
0.7711623
30
0
70
32
0
SEQEND
8
0
0
POLYLINE
8
0
62
5
66
1
10
0
20
0
30
0
70
8
0
VERTEX
8
0
62
5
10
0.06082927
20
0.70476868
30
0
70
32
0
VERTEX
8
0
62
5
10
0.06082927
20
0.70527589
30
0
70
32
0
SEQEND
8
0
0
POLYLINE
8
0
62
5
66
1
10
0
20
0
30
0
70
8
0
VERTEX
8
0
62
5
10
0.089113541
20
0.70476868
30
0
70
32
0
VERTEX
8
0
62
5
10
0.089113541
20
0.71273747
30
0
70
32
0
SEQEND
8
0
0
POLYLINE
8
0
62
5
66
1
10
0
20
0
30
0
70
8
0
VERTEX
8
0
62
5
10
0.11739781
20
0.70476868
30
0
70
32
0
VERTEX
8
0
62
5
10
0.11739781
20
0.72689988
30
0
70
32
0
SEQEND
8
0
0
POLYLINE
8
0
62
5
66
1
10
0
20
0
30
0
70
8
0
VERTEX
8
0
62
5
10
0.06082927
20
0.74903109
30
0
70
32
0
VERTEX
8
0
62
5
10
0.06082927
20
0.74953831
30
0
70
32
0
SEQEND
8
0
0
POLYLINE
8
0
62
5
66
1
10
0
20
0
30
0
70
8
0
VERTEX
8
0
62
5
10
0.089113541
20
0.74903109
30
0
70
32
0
VERTEX
8
0
62
5
10
0.089113541
20
0.75699989
30
0
70
32
0
SEQEND
8
0
0
POLYLINE
8
0
62
5
66
1
10
0
20
0
30
0
70
8
0
VERTEX
8
0
62
5
10
0.11739781
20
0.74903109
30
0
70
32
0
VERTEX
8
0
62
5
10
0.11739781
20
0.7711623
30
0
70
32
0
SEQEND
8
0
0
POLYLINE
8
0
62
5
66
1
10
0
20
0
30
0
70
8
0
VERTEX
8
0
62
5
10
0.06082927
20
0.72689988
30
0
70
32
0
VERTEX
8
0
62
5
10
0.06082927
20
0.74903109
30
0
70
32
0
SEQEND
8
0
0
POLYLINE
8
0
62
5
66
1
10
0
20
0
30
0
70
8
0
VERTEX
8
0
62
5
10
0.089113541
20
0.72689988
30
0
70
32
0
VERTEX
8
0
62
5
10
0.089113541
20
0.74903109
30
0
70
32
0
SEQEND
8
0
0
POLYLINE
8
0
62
5
66
1
10
0
20
0
30
0
70
8
0
VERTEX
8
0
62
5
10
0.11739781
20
0.72689988
30
0
70
32
0
VERTEX
8
0
62
5
10
0.11739781
20
0.74903109
30
0
70
32
0
SEQEND
8
0
0
POLYLINE
8
0
62
5
66
1
10
0
20
0
30
0
70
8
0
VERTEX
8
0
62
5
10
0.06082927
20
0.7711623
30
0
70
32
0
VERTEX
8
0
62
5
10
0.06082927
20
0.7932935
30
0
70
32
0
SEQEND
8
0
0
POLYLINE
8
0
62
5
66
1
10
0
20
0
30
0
70
8
0
VERTEX
8
0
62
5
10
0.089113541
20
0.7711623
30
0
70
32
0
VERTEX
8
0
62
5
10
0.089113541
20
0.7932935
30
0
70
32
0
SEQEND
8
0
0
POLYLINE
8
0
62
5
66
1
10
0
20
0
30
0
70
8
0
VERTEX
8
0
62
5
10
0.11739781
20
0.7711623
30
0
70
32
0
VERTEX
8
0
62
5
10
0.11739781
20
0.7932935
30
0
70
32
0
SEQEND
8
0
0
POLYLINE
8
0
62
30
66
1
10
0
20
0
30
0
70
8
0
VERTEX
8
0
62
30
10
0.032544998
20
0.7194383
30
0
70
32
0
VERTEX
8
0
62
30
10
0.040587948
20
0.72689988
30
0
70
32
0
VERTEX
8
0
62
30
10
0.032544998
20
0.73436146
30
0
70
32
0
SEQEND
8
0
0
POLYLINE
8
0
62
30
66
1
10
0
20
0
30
0
70
8
0
VERTEX
8
0
62
30
10
0.06082927
20
0.70527589
30
0
70
32
0
VERTEX
8
0
62
30
10
0.072362933
20
0.72689988
30
0
70
32
0
VERTEX
8
0
62
30
10
0.06082927
20
0.74852387
30
0
70
32
0
SEQEND
8
0
0
POLYLINE
8
0
62
30
66
1
10
0
20
0
30
0
70
8
0
VERTEX
8
0
62
30
10
0.089113541
20
0.71273747
30
0
70
32
0
VERTEX
8
0
62
30
10
0.099151416
20
0.72689988
30
0
70
32
0
VERTEX
8
0
62
30
10
0.089113541
20
0.74106229
30
0
70
32
0
SEQEND
8
0
0
POLYLINE
8
0
62
30
66
1
10
0
20
0
30
0
70
8
0
VERTEX
8
0
62
30
10
0.11739781
20
0.72689988
30
0
70
32
0
VERTEX
8
0
62
30
10
0.11739781
20
0.72689988
30
0
70
32
0
VERTEX
8
0
62
30
10
0.11739781
20
0.72689988
30
0
70
32
0
SEQEND
8
0
0
POLYLINE
8
0
62
30
66
1
10
0
20
0
30
0
70
8
0
VERTEX
8
0
62
30
10
0.032544998
20
0.76370072
30
0
70
32
0
VERTEX
8
0
62
30
10
0.040587948
20
0.7711623
30
0
70
32
0
VERTEX
8
0
62
30
10
0.032544998
20
0.77862388
30
0
70
32
0
SEQEND
8
0
0
POLYLINE
8
0
62
30
66
1
10
0
20
0
30
0
70
8
0
VERTEX
8
0
62
30
10
0.06082927
20
0.74953831
30
0
70
32
0
VERTEX
8
0
62
30
10
0.072362933
20
0.7711623
30
0
70
32
0
VERTEX
8
0
62
30
10
0.06082927
20
0.79278629
30
0
70
32
0
SEQEND
8
0
0
POLYLINE
8
0
62
30
66
1
10
0
20
0
30
0
70
8
0
VERTEX
8
0
62
30
10
0.089113541
20
0.75699989
30
0
70
32
0
VERTEX
8
0
62
30
10
0.099151416
20
0.7711623
30
0
70
32
0
VERTEX
8
0
62
30
10
0.089113541
20
0.78532471
30
0
70
32
0
SEQEND
8
0
0
POLYLINE
8
0
62
30
66
1
10
0
20
0
30
0
70
8
0
VERTEX
8
0
62
30
10
0.11739781
20
0.7711623
30
0
70
32
0
VERTEX
8
0
62
30
10
0.11739781
20
0.7711623
30
0
70
32
0
VERTEX
8
0
62
30
10
0.11739781
20
0.7711623
30
0
70
32
0
SEQEND
8
0
0
POLYLINE
8
0
62
5
66
1
10
0
20
0
30
0
70
8
0
VERTEX
8
0
62
5
10
0.25881917
20
0.7932935
30
0
70
32
0
VERTEX
8
0
62
5
10
0.25881917
20
0.70476868
30
0
70
32
0
SEQEND
8
0
0
POLYLINE
8
0
62
5
66
1
10
0
20
0
30
0
70
8
0
VERTEX
8
0
62
5
10
0.14568208
20
0.7194383
30
0
70
32
0
VERTEX
8
0
62
5
10
0.17396635
20
0.70527589
30
0
70
32
0
VERTEX
8
0
62
5
10
0.20225063
20
0.71273747
30
0
70
32
0
VERTEX
8
0
62
5
10
0.2305349
20
0.72689988
30
0
70
32
0
VERTEX
8
0
62
5
10
0.25881917
20
0.7194383
30
0
70
32
0
SEQEND
8
0
0
POLYLINE
8
0
62
5
66
1
10
0
20
0
30
0
70
8
0
VERTEX
8
0
62
5
10
0.14568208
20
0.76370072
30
0
70
32
0
VERTEX
8
0
62
5
10
0.17396635
20
0.74953831
30
0
70
32
0
VERTEX
8
0
62
5
10
0.20225063
20
0.75699989
30
0
70
32
0
VERTEX
8
0
62
5
10
0.2305349
20
0.7711623
30
0
70
32
0
VERTEX
8
0
62
5
10
0.25881917
20
0.76370072
30
0
70
32
0
SEQEND
8
0
0
POLYLINE
8
0
62
5
66
1
10
0
20
0
30
0
70
8
0
VERTEX
8
0
62
5
10
0.14568208
20
0.73436146
30
0
70
32
0
VERTEX
8
0
62
5
10
0.17396635
20
0.74852387
30
0
70
32
0
VERTEX
8
0
62
5
10
0.20225063
20
0.74106229
30
0
70
32
0
VERTEX
8
0
62
5
10
0.2305349
20
0.72689988
30
0
70
32
0
VERTEX
8
0
62
5
10
0.25881917
20
0.73436146
30
0
70
32
0
SEQEND
8
0
0
POLYLINE
8
0
62
5
66
1
10
0
20
0
30
0
70
8
0
VERTEX
8
0
62
5
10
0.14568208
20
0.77862388
30
0
70
32
0
VERTEX
8
0
62
5
10
0.17396635
20
0.79278629
30
0
70
32
0
VERTEX
8
0
62
5
10
0.20225063
20
0.78532471
30
0
70
32
0
VERTEX
8
0
62
5
10
0.2305349
20
0.7711623
30
0
70
32
0
VERTEX
8
0
62
5
10
0.25881917
20
0.77862388
30
0
70
32
0
SEQEND
8
0
0
POLYLINE
8
0
62
30
66
1
10
0
20
0
30
0
70
8
0
VERTEX
8
0
62
30
10
0.14568208
20
0.72689988
30
0
70
32
0
VERTEX
8
0
62
30
10
0.25881917
20
0.72689988
30
0
70
32
0
SEQEND
8
0
0
POLYLINE
8
0
62
30
66
1
10
0
20
0
30
0
70
8
0
VERTEX
8
0
62
30
10
0.14568208
20
0.7711623
30
0
70
32
0
VERTEX
8
0
62
30
10
0.25881917
20
0.7711623
30
0
70
32
0
SEQEND
8
0
0
POLYLINE
8
0
62
30
66
1
10
0
20
0
30
0
70
8
0
VERTEX
8
0
62
30
10
0.17396635
20
0.70527589
30
0
70
32
0
VERTEX
8
0
62
30
10
0.17396635
20
0.72689988
30
0
70
32
0
SEQEND
8
0
0
POLYLINE
8
0
62
30
66
1
10
0
20
0
30
0
70
8
0
VERTEX
8
0
62
30
10
0.20225063
20
0.71273747
30
0
70
32
0
VERTEX
8
0
62
30
10
0.20225063
20
0.72689988
30
0
70
32
0
SEQEND
8
0
0
POLYLINE
8
0
62
30
66
1
10
0
20
0
30
0
70
8
0
VERTEX
8
0
62
30
10
0.2305349
20
0.72689988
30
0
70
32
0
VERTEX
8
0
62
30
10
0.2305349
20
0.72689988
30
0
70
32
0
SEQEND
8
0
0
POLYLINE
8
0
62
30
66
1
10
0
20
0
30
0
70
8
0
VERTEX
8
0
62
30
10
0.17396635
20
0.74953831
30
0
70
32
0
VERTEX
8
0
62
30
10
0.17396635
20
0.7711623
30
0
70
32
0
SEQEND
8
0
0
POLYLINE
8
0
62
30
66
1
10
0
20
0
30
0
70
8
0
VERTEX
8
0
62
30
10
0.20225063
20
0.75699989
30
0
70
32
0
VERTEX
8
0
62
30
10
0.20225063
20
0.7711623
30
0
70
32
0
SEQEND
8
0
0
POLYLINE
8
0
62
30
66
1
10
0
20
0
30
0
70
8
0
VERTEX
8
0
62
30
10
0.2305349
20
0.7711623
30
0
70
32
0
VERTEX
8
0
62
30
10
0.2305349
20
0.7711623
30
0
70
32
0
SEQEND
8
0
0
POLYLINE
8
0
62
5
66
1
10
0
20
0
30
0
70
8
0
VERTEX
8
0
62
5
10
0.17396635
20
0.70476868
30
0
70
32
0
VERTEX
8
0
62
5
10
0.17396635
20
0.70527589
30
0
70
32
0
SEQEND
8
0
0
POLYLINE
8
0
62
5
66
1
10
0
20
0
30
0
70
8
0
VERTEX
8
0
62
5
10
0.20225063
20
0.70476868
30
0
70
32
0
VERTEX
8
0
62
5
10
0.20225063
20
0.71273747
30
0
70
32
0
SEQEND
8
0
0
POLYLINE
8
0
62
5
66
1
10
0
20
0
30
0
70
8
0
VERTEX
8
0
62
5
10
0.2305349
20
0.70476868
30
0
70
32
0
VERTEX
8
0
62
5
10
0.2305349
20
0.72689988
30
0
70
32
0
SEQEND
8
0
0
POLYLINE
8
0
62
5
66
1
10
0
20
0
30
0
70
8
0
VERTEX
8
0
62
5
10
0.17396635
20
0.74903109
30
0
70
32
0
VERTEX
8
0
62
5
10
0.17396635
20
0.74953831
30
0
70
32
0
SEQEND
8
0
0
POLYLINE
8
0
62
5
66
1
10
0
20
0
30
0
70
8
0
VERTEX
8
0
62
5
10
0.20225063
20
0.74903109
30
0
70
32
0
VERTEX
8
0
62
5
10
0.20225063
20
0.75699989
30
0
70
32
0
SEQEND
8
0
0
POLYLINE
8
0
62
5
66
1
10
0
20
0
30
0
70
8
0
VERTEX
8
0
62
5
10
0.2305349
20
0.74903109
30
0
70
32
0
VERTEX
8
0
62
5
10
0.2305349
20
0.7711623
30
0
70
32
0
SEQEND
8
0
0
POLYLINE
8
0
62
5
66
1
10
0
20
0
30
0
70
8
0
VERTEX
8
0
62
5
10
0.17396635
20
0.72689988
30
0
70
32
0
VERTEX
8
0
62
5
10
0.17396635
20
0.74903109
30
0
70
32
0
SEQEND
8
0
0
POLYLINE
8
0
62
5
66
1
10
0
20
0
30
0
70
8
0
VERTEX
8
0
62
5
10
0.20225063
20
0.72689988
30
0
70
32
0
VERTEX
8
0
62
5
10
0.20225063
20
0.74903109
30
0
70
32
0
SEQEND
8
0
0
POLYLINE
8
0
62
5
66
1
10
0
20
0
30
0
70
8
0
VERTEX
8
0
62
5
10
0.2305349
20
0.72689988
30
0
70
32
0
VERTEX
8
0
62
5
10
0.2305349
20
0.74903109
30
0
70
32
0
SEQEND
8
0
0
POLYLINE
8
0
62
5
66
1
10
0
20
0
30
0
70
8
0
VERTEX
8
0
62
5
10
0.17396635
20
0.7711623
30
0
70
32
0
VERTEX
8
0
62
5
10
0.17396635
20
0.7932935
30
0
70
32
0
SEQEND
8
0
0
POLYLINE
8
0
62
5
66
1
10
0
20
0
30
0
70
8
0
VERTEX
8
0
62
5
10
0.20225063
20
0.7711623
30
0
70
32
0
VERTEX
8
0
62
5
10
0.20225063
20
0.7932935
30
0
70
32
0
SEQEND
8
0
0
POLYLINE
8
0
62
5
66
1
10
0
20
0
30
0
70
8
0
VERTEX
8
0
62
5
10
0.2305349
20
0.7711623
30
0
70
32
0
VERTEX
8
0
62
5
10
0.2305349
20
0.7932935
30
0
70
32
0
SEQEND
8
0
0
POLYLINE
8
0
62
30
66
1
10
0
20
0
30
0
70
8
0
VERTEX
8
0
62
30
10
0.14568208
20
0.7194383
30
0
70
32
0
VERTEX
8
0
62
30
10
0.15372503
20
0.72689988
30
0
70
32
0
VERTEX
8
0
62
30
10
0.14568208
20
0.73436146
30
0
70
32
0
SEQEND
8
0
0
POLYLINE
8
0
62
30
66
1
10
0
20
0
30
0
70
8
0
VERTEX
8
0
62
30
10
0.17396635
20
0.70527589
30
0
70
32
0
VERTEX
8
0
62
30
10
0.18550002
20
0.72689988
30
0
70
32
0
VERTEX
8
0
62
30
10
0.17396635
20
0.74852387
30
0
70
32
0
SEQEND
8
0
0
POLYLINE
8
0
62
30
66
1
10
0
20
0
30
0
70
8
0
VERTEX
8
0
62
30
10
0.20225063
20
0.71273747
30
0
70
32
0
VERTEX
8
0
62
30
10
0.2122885
20
0.72689988
30
0
70
32
0
VERTEX
8
0
62
30
10
0.20225063
20
0.74106229
30
0
70
32
0
SEQEND
8
0
0
POLYLINE
8
0
62
30
66
1
10
0
20
0
30
0
70
8
0
VERTEX
8
0
62
30
10
0.2305349
20
0.72689988
30
0
70
32
0
VERTEX
8
0
62
30
10
0.2305349
20
0.72689988
30
0
70
32
0
VERTEX
8
0
62
30
10
0.2305349
20
0.72689988
30
0
70
32
0
SEQEND
8
0
0
POLYLINE
8
0
62
30
66
1
10
0
20
0
30
0
70
8
0
VERTEX
8
0
62
30
10
0.14568208
20
0.76370072
30
0
70
32
0
VERTEX
8
0
62
30
10
0.15372503
20
0.7711623
30
0
70
32
0
VERTEX
8
0
62
30
10
0.14568208
20
0.77862388
30
0
70
32
0
SEQEND
8
0
0
POLYLINE
8
0
62
30
66
1
10
0
20
0
30
0
70
8
0
VERTEX
8
0
62
30
10
0.17396635
20
0.74953831
30
0
70
32
0
VERTEX
8
0
62
30
10
0.18550002
20
0.7711623
30
0
70
32
0
VERTEX
8
0
62
30
10
0.17396635
20
0.79278629
30
0
70
32
0
SEQEND
8
0
0
POLYLINE
8
0
62
30
66
1
10
0
20
0
30
0
70
8
0
VERTEX
8
0
62
30
10
0.20225063
20
0.75699989
30
0
70
32
0
VERTEX
8
0
62
30
10
0.2122885
20
0.7711623
30
0
70
32
0
VERTEX
8
0
62
30
10
0.20225063
20
0.78532471
30
0
70
32
0
SEQEND
8
0
0
POLYLINE
8
0
62
30
66
1
10
0
20
0
30
0
70
8
0
VERTEX
8
0
62
30
10
0.2305349
20
0.7711623
30
0
70
32
0
VERTEX
8
0
62
30
10
0.2305349
20
0.7711623
30
0
70
32
0
VERTEX
8
0
62
30
10
0.2305349
20
0.7711623
30
0
70
32
0
SEQEND
8
0
0
POLYLINE
8
0
62
5
66
1
10
0
20
0
30
0
70
8
0
VERTEX
8
0
62
5
10
-0.080592087
20
0.70476868
30
0
70
32
0
VERTEX
8
0
62
5
10
-0.080592087
20
0.7932935
30
0
70
32
0
SEQEND
8
0
0
POLYLINE
8
0
62
5
66
1
10
0
20
0
30
0
70
8
0
VERTEX
8
0
62
5
10
-0.080592087
20
0.7194383
30
0
70
32
0
VERTEX
8
0
62
5
10
-0.052307815
20
0.70527589
30
0
70
32
0
VERTEX
8
0
62
5
10
-0.024023544
20
0.71273747
30
0
70
32
0
VERTEX
8
0
62
5
10
0.0042607272
20
0.72689988
30
0
70
32
0
VERTEX
8
0
62
5
10
0.032544998
20
0.7194383
30
0
70
32
0
SEQEND
8
0
0
POLYLINE
8
0
62
5
66
1
10
0
20
0
30
0
70
8
0
VERTEX
8
0
62
5
10
-0.080592087
20
0.76370072
30
0
70
32
0
VERTEX
8
0
62
5
10
-0.052307815
20
0.74953831
30
0
70
32
0
VERTEX
8
0
62
5
10
-0.024023544
20
0.75699989
30
0
70
32
0
VERTEX
8
0
62
5
10
0.0042607272
20
0.7711623
30
0
70
32
0
VERTEX
8
0
62
5
10
0.032544998
20
0.76370072
30
0
70
32
0
SEQEND
8
0
0
POLYLINE
8
0
62
5
66
1
10
0
20
0
30
0
70
8
0
VERTEX
8
0
62
5
10
-0.080592087
20
0.73436146
30
0
70
32
0
VERTEX
8
0
62
5
10
-0.052307815
20
0.74852387
30
0
70
32
0
VERTEX
8
0
62
5
10
-0.024023544
20
0.74106229
30
0
70
32
0
VERTEX
8
0
62
5
10
0.0042607272
20
0.72689988
30
0
70
32
0
VERTEX
8
0
62
5
10
0.032544998
20
0.73436146
30
0
70
32
0
SEQEND
8
0
0
POLYLINE
8
0
62
5
66
1
10
0
20
0
30
0
70
8
0
VERTEX
8
0
62
5
10
-0.080592087
20
0.77862388
30
0
70
32
0
VERTEX
8
0
62
5
10
-0.052307815
20
0.79278629
30
0
70
32
0
VERTEX
8
0
62
5
10
-0.024023544
20
0.78532471
30
0
70
32
0
VERTEX
8
0
62
5
10
0.0042607272
20
0.7711623
30
0
70
32
0
VERTEX
8
0
62
5
10
0.032544998
20
0.77862388
30
0
70
32
0
SEQEND
8
0
0
POLYLINE
8
0
62
30
66
1
10
0
20
0
30
0
70
8
0
VERTEX
8
0
62
30
10
-0.080592087
20
0.72689988
30
0
70
32
0
VERTEX
8
0
62
30
10
0.032544998
20
0.72689988
30
0
70
32
0
SEQEND
8
0
0
POLYLINE
8
0
62
30
66
1
10
0
20
0
30
0
70
8
0
VERTEX
8
0
62
30
10
-0.080592087
20
0.7711623
30
0
70
32
0
VERTEX
8
0
62
30
10
0.032544998
20
0.7711623
30
0
70
32
0
SEQEND
8
0
0
POLYLINE
8
0
62
30
66
1
10
0
20
0
30
0
70
8
0
VERTEX
8
0
62
30
10
-0.052307815
20
0.70527589
30
0
70
32
0
VERTEX
8
0
62
30
10
-0.052307815
20
0.72689988
30
0
70
32
0
SEQEND
8
0
0
POLYLINE
8
0
62
30
66
1
10
0
20
0
30
0
70
8
0
VERTEX
8
0
62
30
10
-0.024023544
20
0.71273747
30
0
70
32
0
VERTEX
8
0
62
30
10
-0.024023544
20
0.72689988
30
0
70
32
0
SEQEND
8
0
0
POLYLINE
8
0
62
30
66
1
10
0
20
0
30
0
70
8
0
VERTEX
8
0
62
30
10
0.0042607272
20
0.72689988
30
0
70
32
0
VERTEX
8
0
62
30
10
0.0042607272
20
0.72689988
30
0
70
32
0
SEQEND
8
0
0
POLYLINE
8
0
62
30
66
1
10
0
20
0
30
0
70
8
0
VERTEX
8
0
62
30
10
-0.052307815
20
0.74953831
30
0
70
32
0
VERTEX
8
0
62
30
10
-0.052307815
20
0.7711623
30
0
70
32
0
SEQEND
8
0
0
POLYLINE
8
0
62
30
66
1
10
0
20
0
30
0
70
8
0
VERTEX
8
0
62
30
10
-0.024023544
20
0.75699989
30
0
70
32
0
VERTEX
8
0
62
30
10
-0.024023544
20
0.7711623
30
0
70
32
0
SEQEND
8
0
0
POLYLINE
8
0
62
30
66
1
10
0
20
0
30
0
70
8
0
VERTEX
8
0
62
30
10
0.0042607272
20
0.7711623
30
0
70
32
0
VERTEX
8
0
62
30
10
0.0042607272
20
0.7711623
30
0
70
32
0
SEQEND
8
0
0
POLYLINE
8
0
62
5
66
1
10
0
20
0
30
0
70
8
0
VERTEX
8
0
62
5
10
-0.052307815
20
0.70476868
30
0
70
32
0
VERTEX
8
0
62
5
10
-0.052307815
20
0.70527589
30
0
70
32
0
SEQEND
8
0
0
POLYLINE
8
0
62
5
66
1
10
0
20
0
30
0
70
8
0
VERTEX
8
0
62
5
10
-0.024023544
20
0.70476868
30
0
70
32
0
VERTEX
8
0
62
5
10
-0.024023544
20
0.71273747
30
0
70
32
0
SEQEND
8
0
0
POLYLINE
8
0
62
5
66
1
10
0
20
0
30
0
70
8
0
VERTEX
8
0
62
5
10
0.0042607272
20
0.70476868
30
0
70
32
0
VERTEX
8
0
62
5
10
0.0042607272
20
0.72689988
30
0
70
32
0
SEQEND
8
0
0
POLYLINE
8
0
62
5
66
1
10
0
20
0
30
0
70
8
0
VERTEX
8
0
62
5
10
-0.052307815
20
0.74903109
30
0
70
32
0
VERTEX
8
0
62
5
10
-0.052307815
20
0.74953831
30
0
70
32
0
SEQEND
8
0
0
POLYLINE
8
0
62
5
66
1
10
0
20
0
30
0
70
8
0
VERTEX
8
0
62
5
10
-0.024023544
20
0.74903109
30
0
70
32
0
VERTEX
8
0
62
5
10
-0.024023544
20
0.75699989
30
0
70
32
0
SEQEND
8
0
0
POLYLINE
8
0
62
5
66
1
10
0
20
0
30
0
70
8
0
VERTEX
8
0
62
5
10
0.0042607272
20
0.74903109
30
0
70
32
0
VERTEX
8
0
62
5
10
0.0042607272
20
0.7711623
30
0
70
32
0
SEQEND
8
0
0
POLYLINE
8
0
62
5
66
1
10
0
20
0
30
0
70
8
0
VERTEX
8
0
62
5
10
-0.052307815
20
0.72689988
30
0
70
32
0
VERTEX
8
0
62
5
10
-0.052307815
20
0.74903109
30
0
70
32
0
SEQEND
8
0
0
POLYLINE
8
0
62
5
66
1
10
0
20
0
30
0
70
8
0
VERTEX
8
0
62
5
10
-0.024023544
20
0.72689988
30
0
70
32
0
VERTEX
8
0
62
5
10
-0.024023544
20
0.74903109
30
0
70
32
0
SEQEND
8
0
0
POLYLINE
8
0
62
5
66
1
10
0
20
0
30
0
70
8
0
VERTEX
8
0
62
5
10
0.0042607272
20
0.72689988
30
0
70
32
0
VERTEX
8
0
62
5
10
0.0042607272
20
0.74903109
30
0
70
32
0
SEQEND
8
0
0
POLYLINE
8
0
62
5
66
1
10
0
20
0
30
0
70
8
0
VERTEX
8
0
62
5
10
-0.052307815
20
0.7711623
30
0
70
32
0
VERTEX
8
0
62
5
10
-0.052307815
20
0.7932935
30
0
70
32
0
SEQEND
8
0
0
POLYLINE
8
0
62
5
66
1
10
0
20
0
30
0
70
8
0
VERTEX
8
0
62
5
10
-0.024023544
20
0.7711623
30
0
70
32
0
VERTEX
8
0
62
5
10
-0.024023544
20
0.7932935
30
0
70
32
0
SEQEND
8
0
0
POLYLINE
8
0
62
5
66
1
10
0
20
0
30
0
70
8
0
VERTEX
8
0
62
5
10
0.0042607272
20
0.7711623
30
0
70
32
0
VERTEX
8
0
62
5
10
0.0042607272
20
0.7932935
30
0
70
32
0
SEQEND
8
0
0
POLYLINE
8
0
62
30
66
1
10
0
20
0
30
0
70
8
0
VERTEX
8
0
62
30
10
-0.080592087
20
0.7194383
30
0
70
32
0
VERTEX
8
0
62
30
10
-0.072549137
20
0.72689988
30
0
70
32
0
VERTEX
8
0
62
30
10
-0.080592087
20
0.73436146
30
0
70
32
0
SEQEND
8
0
0
POLYLINE
8
0
62
30
66
1
10
0
20
0
30
0
70
8
0
VERTEX
8
0
62
30
10
-0.052307815
20
0.70527589
30
0
70
32
0
VERTEX
8
0
62
30
10
-0.040774152
20
0.72689988
30
0
70
32
0
VERTEX
8
0
62
30
10
-0.052307815
20
0.74852387
30
0
70
32
0
SEQEND
8
0
0
POLYLINE
8
0
62
30
66
1
10
0
20
0
30
0
70
8
0
VERTEX
8
0
62
30
10
-0.024023544
20
0.71273747
30
0
70
32
0
VERTEX
8
0
62
30
10
-0.013985669
20
0.72689988
30
0
70
32
0
VERTEX
8
0
62
30
10
-0.024023544
20
0.74106229
30
0
70
32
0
SEQEND
8
0
0
POLYLINE
8
0
62
30
66
1
10
0
20
0
30
0
70
8
0
VERTEX
8
0
62
30
10
0.0042607272
20
0.72689988
30
0
70
32
0
VERTEX
8
0
62
30
10
0.0042607272
20
0.72689988
30
0
70
32
0
VERTEX
8
0
62
30
10
0.0042607272
20
0.72689988
30
0
70
32
0
SEQEND
8
0
0
POLYLINE
8
0
62
30
66
1
10
0
20
0
30
0
70
8
0
VERTEX
8
0
62
30
10
-0.080592087
20
0.76370072
30
0
70
32
0
VERTEX
8
0
62
30
10
-0.072549137
20
0.7711623
30
0
70
32
0
VERTEX
8
0
62
30
10
-0.080592087
20
0.77862388
30
0
70
32
0
SEQEND
8
0
0
POLYLINE
8
0
62
30
66
1
10
0
20
0
30
0
70
8
0
VERTEX
8
0
62
30
10
-0.052307815
20
0.74953831
30
0
70
32
0
VERTEX
8
0
62
30
10
-0.040774152
20
0.7711623
30
0
70
32
0
VERTEX
8
0
62
30
10
-0.052307815
20
0.79278629
30
0
70
32
0
SEQEND
8
0
0
POLYLINE
8
0
62
30
66
1
10
0
20
0
30
0
70
8
0
VERTEX
8
0
62
30
10
-0.024023544
20
0.75699989
30
0
70
32
0
VERTEX
8
0
62
30
10
-0.013985669
20
0.7711623
30
0
70
32
0
VERTEX
8
0
62
30
10
-0.024023544
20
0.78532471
30
0
70
32
0
SEQEND
8
0
0
POLYLINE
8
0
62
30
66
1
10
0
20
0
30
0
70
8
0
VERTEX
8
0
62
30
10
0.0042607272
20
0.7711623
30
0
70
32
0
VERTEX
8
0
62
30
10
0.0042607272
20
0.7711623
30
0
70
32
0
VERTEX
8
0
62
30
10
0.0042607272
20
0.7711623
30
0
70
32
0
SEQEND
8
0
0
POLYLINE
8
0
62
30
66
1
10
0
20
0
30
0
70
8
0
VERTEX
8
0
62
30
10
0.032544998
20
0.80662884
30
0
70
32
0
VERTEX
8
0
62
30
10
0.14568208
20
0.80662884
30
0
70
32
0
SEQEND
8
0
0
POLYLINE
8
0
62
30
66
1
10
0
20
0
30
0
70
8
0
VERTEX
8
0
62
30
10
0.032544998
20
0.7932935
30
0
70
32
0
VERTEX
8
0
62
30
10
0.14568208
20
0.7932935
30
0
70
32
0
SEQEND
8
0
0
POLYLINE
8
0
62
5
66
1
10
0
20
0
30
0
70
8
0
VERTEX
8
0
62
5
10
0.032544998
20
0.7932935
30
0
70
32
0
VERTEX
8
0
62
5
10
0.050212163
20
0.80662884
30
0
70
32
0
VERTEX
8
0
62
5
10
0.06082927
20
0.7932935
30
0
70
32
0
VERTEX
8
0
62
5
10
0.078496435
20
0.80662884
30
0
70
32
0
VERTEX
8
0
62
5
10
0.089113541
20
0.7932935
30
0
70
32
0
VERTEX
8
0
62
5
10
0.10678071
20
0.80662884
30
0
70
32
0
VERTEX
8
0
62
5
10
0.11739781
20
0.7932935
30
0
70
32
0
VERTEX
8
0
62
5
10
0.13506498
20
0.80662884
30
0
70
32
0
VERTEX
8
0
62
5
10
0.14568208
20
0.7932935
30
0
70
32
0
SEQEND
8
0
0
POLYLINE
8
0
62
5
66
1
10
0
20
0
30
0
70
8
0
VERTEX
8
0
62
5
10
0.06082927
20
0.7932935
30
0
70
32
0
VERTEX
8
0
62
5
10
0.06082927
20
0.7932935
30
0
70
32
0
SEQEND
8
0
0
POLYLINE
8
0
62
5
66
1
10
0
20
0
30
0
70
8
0
VERTEX
8
0
62
5
10
0.089113541
20
0.7932935
30
0
70
32
0
VERTEX
8
0
62
5
10
0.089113541
20
0.7932935
30
0
70
32
0
SEQEND
8
0
0
POLYLINE
8
0
62
5
66
1
10
0
20
0
30
0
70
8
0
VERTEX
8
0
62
5
10
0.11739781
20
0.7932935
30
0
70
32
0
VERTEX
8
0
62
5
10
0.11739781
20
0.7932935
30
0
70
32
0
SEQEND
8
0
0
POLYLINE
8
0
62
5
66
1
10
0
20
0
30
0
70
8
0
VERTEX
8
0
62
5
10
0.050212163
20
0.80662884
30
0
70
32
0
VERTEX
8
0
62
5
10
0.050212163
20
0.80662884
30
0
70
32
0
SEQEND
8
0
0
POLYLINE
8
0
62
5
66
1
10
0
20
0
30
0
70
8
0
VERTEX
8
0
62
5
10
0.078496435
20
0.80662884
30
0
70
32
0
VERTEX
8
0
62
5
10
0.078496435
20
0.80662884
30
0
70
32
0
SEQEND
8
0
0
POLYLINE
8
0
62
5
66
1
10
0
20
0
30
0
70
8
0
VERTEX
8
0
62
5
10
0.10678071
20
0.80662884
30
0
70
32
0
VERTEX
8
0
62
5
10
0.10678071
20
0.80662884
30
0
70
32
0
SEQEND
8
0
0
POLYLINE
8
0
62
5
66
1
10
0
20
0
30
0
70
8
0
VERTEX
8
0
62
5
10
0.13506498
20
0.80662884
30
0
70
32
0
VERTEX
8
0
62
5
10
0.13506498
20
0.80662884
30
0
70
32
0
SEQEND
8
0
0
POLYLINE
8
0
62
30
66
1
10
0
20
0
30
0
70
8
0
VERTEX
8
0
62
30
10
0.14568208
20
0.80662884
30
0
70
32
0
VERTEX
8
0
62
30
10
0.25881917
20
0.80662884
30
0
70
32
0
SEQEND
8
0
0
POLYLINE
8
0
62
30
66
1
10
0
20
0
30
0
70
8
0
VERTEX
8
0
62
30
10
0.14568208
20
0.7932935
30
0
70
32
0
VERTEX
8
0
62
30
10
0.25881917
20
0.7932935
30
0
70
32
0
SEQEND
8
0
0
POLYLINE
8
0
62
5
66
1
10
0
20
0
30
0
70
8
0
VERTEX
8
0
62
5
10
0.14568208
20
0.7932935
30
0
70
32
0
VERTEX
8
0
62
5
10
0.16334925
20
0.80662884
30
0
70
32
0
VERTEX
8
0
62
5
10
0.17396635
20
0.7932935
30
0
70
32
0
VERTEX
8
0
62
5
10
0.19163352
20
0.80662884
30
0
70
32
0
VERTEX
8
0
62
5
10
0.20225063
20
0.7932935
30
0
70
32
0
VERTEX
8
0
62
5
10
0.21991779
20
0.80662884
30
0
70
32
0
VERTEX
8
0
62
5
10
0.2305349
20
0.7932935
30
0
70
32
0
VERTEX
8
0
62
5
10
0.24820206
20
0.80662884
30
0
70
32
0
VERTEX
8
0
62
5
10
0.25881917
20
0.7932935
30
0
70
32
0
SEQEND
8
0
0
POLYLINE
8
0
62
5
66
1
10
0
20
0
30
0
70
8
0
VERTEX
8
0
62
5
10
0.17396635
20
0.7932935
30
0
70
32
0
VERTEX
8
0
62
5
10
0.17396635
20
0.7932935
30
0
70
32
0
SEQEND
8
0
0
POLYLINE
8
0
62
5
66
1
10
0
20
0
30
0
70
8
0
VERTEX
8
0
62
5
10
0.20225063
20
0.7932935
30
0
70
32
0
VERTEX
8
0
62
5
10
0.20225063
20
0.7932935
30
0
70
32
0
SEQEND
8
0
0
POLYLINE
8
0
62
5
66
1
10
0
20
0
30
0
70
8
0
VERTEX
8
0
62
5
10
0.2305349
20
0.7932935
30
0
70
32
0
VERTEX
8
0
62
5
10
0.2305349
20
0.7932935
30
0
70
32
0
SEQEND
8
0
0
POLYLINE
8
0
62
5
66
1
10
0
20
0
30
0
70
8
0
VERTEX
8
0
62
5
10
0.16334925
20
0.80662884
30
0
70
32
0
VERTEX
8
0
62
5
10
0.16334925
20
0.80662884
30
0
70
32
0
SEQEND
8
0
0
POLYLINE
8
0
62
5
66
1
10
0
20
0
30
0
70
8
0
VERTEX
8
0
62
5
10
0.19163352
20
0.80662884
30
0
70
32
0
VERTEX
8
0
62
5
10
0.19163352
20
0.80662884
30
0
70
32
0
SEQEND
8
0
0
POLYLINE
8
0
62
5
66
1
10
0
20
0
30
0
70
8
0
VERTEX
8
0
62
5
10
0.21991779
20
0.80662884
30
0
70
32
0
VERTEX
8
0
62
5
10
0.21991779
20
0.80662884
30
0
70
32
0
SEQEND
8
0
0
POLYLINE
8
0
62
5
66
1
10
0
20
0
30
0
70
8
0
VERTEX
8
0
62
5
10
0.24820206
20
0.80662884
30
0
70
32
0
VERTEX
8
0
62
5
10
0.24820206
20
0.80662884
30
0
70
32
0
SEQEND
8
0
0
POLYLINE
8
0
62
30
66
1
10
0
20
0
30
0
70
8
0
VERTEX
8
0
62
30
10
-0.080592087
20
0.80662884
30
0
70
32
0
VERTEX
8
0
62
30
10
0.032544998
20
0.80662884
30
0
70
32
0
SEQEND
8
0
0
POLYLINE
8
0
62
30
66
1
10
0
20
0
30
0
70
8
0
VERTEX
8
0
62
30
10
-0.080592087
20
0.7932935
30
0
70
32
0
VERTEX
8
0
62
30
10
0.032544998
20
0.7932935
30
0
70
32
0
SEQEND
8
0
0
POLYLINE
8
0
62
5
66
1
10
0
20
0
30
0
70
8
0
VERTEX
8
0
62
5
10
-0.080592087
20
0.7932935
30
0
70
32
0
VERTEX
8
0
62
5
10
-0.062924922
20
0.80662884
30
0
70
32
0
VERTEX
8
0
62
5
10
-0.052307815
20
0.7932935
30
0
70
32
0
VERTEX
8
0
62
5
10
-0.03464065
20
0.80662884
30
0
70
32
0
VERTEX
8
0
62
5
10
-0.024023544
20
0.7932935
30
0
70
32
0
VERTEX
8
0
62
5
10
-0.0063563792
20
0.80662884
30
0
70
32
0
VERTEX
8
0
62
5
10
0.0042607272
20
0.7932935
30
0
70
32
0
VERTEX
8
0
62
5
10
0.021927892
20
0.80662884
30
0
70
32
0
VERTEX
8
0
62
5
10
0.032544998
20
0.7932935
30
0
70
32
0
SEQEND
8
0
0
POLYLINE
8
0
62
5
66
1
10
0
20
0
30
0
70
8
0
VERTEX
8
0
62
5
10
-0.052307815
20
0.7932935
30
0
70
32
0
VERTEX
8
0
62
5
10
-0.052307815
20
0.7932935
30
0
70
32
0
SEQEND
8
0
0
POLYLINE
8
0
62
5
66
1
10
0
20
0
30
0
70
8
0
VERTEX
8
0
62
5
10
-0.024023544
20
0.7932935
30
0
70
32
0
VERTEX
8
0
62
5
10
-0.024023544
20
0.7932935
30
0
70
32
0
SEQEND
8
0
0
POLYLINE
8
0
62
5
66
1
10
0
20
0
30
0
70
8
0
VERTEX
8
0
62
5
10
0.0042607272
20
0.7932935
30
0
70
32
0
VERTEX
8
0
62
5
10
0.0042607272
20
0.7932935
30
0
70
32
0
SEQEND
8
0
0
POLYLINE
8
0
62
5
66
1
10
0
20
0
30
0
70
8
0
VERTEX
8
0
62
5
10
-0.062924922
20
0.80662884
30
0
70
32
0
VERTEX
8
0
62
5
10
-0.062924922
20
0.80662884
30
0
70
32
0
SEQEND
8
0
0
POLYLINE
8
0
62
5
66
1
10
0
20
0
30
0
70
8
0
VERTEX
8
0
62
5
10
-0.03464065
20
0.80662884
30
0
70
32
0
VERTEX
8
0
62
5
10
-0.03464065
20
0.80662884
30
0
70
32
0
SEQEND
8
0
0
POLYLINE
8
0
62
5
66
1
10
0
20
0
30
0
70
8
0
VERTEX
8
0
62
5
10
-0.0063563792
20
0.80662884
30
0
70
32
0
VERTEX
8
0
62
5
10
-0.0063563792
20
0.80662884
30
0
70
32
0
SEQEND
8
0
0
POLYLINE
8
0
62
5
66
1
10
0
20
0
30
0
70
8
0
VERTEX
8
0
62
5
10
0.021927892
20
0.80662884
30
0
70
32
0
VERTEX
8
0
62
5
10
0.021927892
20
0.80662884
30
0
70
32
0
SEQEND
8
0
0
POLYLINE
8
0
62
5
66
1
10
0
20
0
30
0
70
8
0
VERTEX
8
0
62
5
10
0.021927892
20
0.80662884
30
0
70
32
0
VERTEX
8
0
62
5
10
0.021927892
20
0.85514058
30
0
70
32
0
SEQEND
8
0
0
POLYLINE
8
0
62
5
66
1
10
0
20
0
30
0
70
8
0
VERTEX
8
0
62
5
10
0.13506498
20
0.80662884
30
0
70
32
0
VERTEX
8
0
62
5
10
0.13506498
20
0.85514058
30
0
70
32
0
SEQEND
8
0
0
POLYLINE
8
0
62
5
66
1
10
0
20
0
30
0
70
8
0
VERTEX
8
0
62
5
10
0.050212163
20
0.80662884
30
0
70
32
0
VERTEX
8
0
62
5
10
0.050212163
20
0.85514058
30
0
70
32
0
SEQEND
8
0
0
POLYLINE
8
0
62
5
66
1
10
0
20
0
30
0
70
8
0
VERTEX
8
0
62
5
10
0.078496435
20
0.80662884
30
0
70
32
0
VERTEX
8
0
62
5
10
0.078496435
20
0.85514058
30
0
70
32
0
SEQEND
8
0
0
POLYLINE
8
0
62
5
66
1
10
0
20
0
30
0
70
8
0
VERTEX
8
0
62
5
10
0.10678071
20
0.80662884
30
0
70
32
0
VERTEX
8
0
62
5
10
0.10678071
20
0.85514058
30
0
70
32
0
SEQEND
8
0
0
POLYLINE
8
0
62
5
66
1
10
0
20
0
30
0
70
8
0
VERTEX
8
0
62
5
10
0.24820206
20
0.80662884
30
0
70
32
0
VERTEX
8
0
62
5
10
0.24820206
20
0.85514058
30
0
70
32
0
SEQEND
8
0
0
POLYLINE
8
0
62
5
66
1
10
0
20
0
30
0
70
8
0
VERTEX
8
0
62
5
10
0.16334925
20
0.80662884
30
0
70
32
0
VERTEX
8
0
62
5
10
0.16334925
20
0.85514058
30
0
70
32
0
SEQEND
8
0
0
POLYLINE
8
0
62
5
66
1
10
0
20
0
30
0
70
8
0
VERTEX
8
0
62
5
10
0.19163352
20
0.80662884
30
0
70
32
0
VERTEX
8
0
62
5
10
0.19163352
20
0.85514058
30
0
70
32
0
SEQEND
8
0
0
POLYLINE
8
0
62
5
66
1
10
0
20
0
30
0
70
8
0
VERTEX
8
0
62
5
10
0.21991779
20
0.80662884
30
0
70
32
0
VERTEX
8
0
62
5
10
0.21991779
20
0.85514058
30
0
70
32
0
SEQEND
8
0
0
POLYLINE
8
0
62
5
66
1
10
0
20
0
30
0
70
8
0
VERTEX
8
0
62
5
10
-0.091209193
20
0.80662884
30
0
70
32
0
VERTEX
8
0
62
5
10
-0.091209193
20
0.85514058
30
0
70
32
0
SEQEND
8
0
0
POLYLINE
8
0
62
5
66
1
10
0
20
0
30
0
70
8
0
VERTEX
8
0
62
5
10
-0.062924922
20
0.80662884
30
0
70
32
0
VERTEX
8
0
62
5
10
-0.062924922
20
0.85514058
30
0
70
32
0
SEQEND
8
0
0
POLYLINE
8
0
62
5
66
1
10
0
20
0
30
0
70
8
0
VERTEX
8
0
62
5
10
-0.03464065
20
0.80662884
30
0
70
32
0
VERTEX
8
0
62
5
10
-0.03464065
20
0.85514058
30
0
70
32
0
SEQEND
8
0
0
POLYLINE
8
0
62
5
66
1
10
0
20
0
30
0
70
8
0
VERTEX
8
0
62
5
10
-0.0063563792
20
0.80662884
30
0
70
32
0
VERTEX
8
0
62
5
10
-0.0063563792
20
0.85514058
30
0
70
32
0
SEQEND
8
0
0
POLYLINE
8
0
62
5
66
1
10
0
20
0
30
0
70
8
0
VERTEX
8
0
62
5
10
0.021927892
20
0.85514058
30
0
70
32
0
VERTEX
8
0
62
5
10
0.021927892
20
0.88316817
30
0
70
32
0
SEQEND
8
0
0
POLYLINE
8
0
62
5
66
1
10
0
20
0
30
0
70
8
0
VERTEX
8
0
62
5
10
0.13506498
20
0.88316817
30
0
70
32
0
VERTEX
8
0
62
5
10
0.13506498
20
0.85514058
30
0
70
32
0
SEQEND
8
0
0
POLYLINE
8
0
62
5
66
1
10
0
20
0
30
0
70
8
0
VERTEX
8
0
62
5
10
0.021927892
20
0.86169035
30
0
70
32
0
VERTEX
8
0
62
5
10
0.050212163
20
0.86915438
30
0
70
32
0
VERTEX
8
0
62
5
10
0.078496435
20
0.86262003
30
0
70
32
0
VERTEX
8
0
62
5
10
0.10678071
20
0.855156
30
0
70
32
0
VERTEX
8
0
62
5
10
0.13506498
20
0.86169035
30
0
70
32
0
SEQEND
8
0
0
POLYLINE
8
0
62
5
66
1
10
0
20
0
30
0
70
8
0
SEQEND
8
0
0
POLYLINE
8
0
62
5
66
1
10
0
20
0
30
0
70
8
0
VERTEX
8
0
62
5
10
0.021927892
20
0.8766184
30
0
70
32
0
VERTEX
8
0
62
5
10
0.050212163
20
0.86915438
30
0
70
32
0
VERTEX
8
0
62
5
10
0.078496435
20
0.87568873
30
0
70
32
0
VERTEX
8
0
62
5
10
0.10678071
20
0.88315275
30
0
70
32
0
VERTEX
8
0
62
5
10
0.13506498
20
0.8766184
30
0
70
32
0
SEQEND
8
0
0
POLYLINE
8
0
62
30
66
1
10
0
20
0
30
0
70
8
0
VERTEX
8
0
62
30
10
0.021927892
20
0.86915438
30
0
70
32
0
VERTEX
8
0
62
30
10
0.13506498
20
0.86915438
30
0
70
32
0
SEQEND
8
0
0
POLYLINE
8
0
62
30
66
1
10
0
20
0
30
0
70
8
0
VERTEX
8
0
62
30
10
0.050212163
20
0.86915438
30
0
70
32
0
VERTEX
8
0
62
30
10
0.050212163
20
0.86915438
30
0
70
32
0
SEQEND
8
0
0
POLYLINE
8
0
62
30
66
1
10
0
20
0
30
0
70
8
0
VERTEX
8
0
62
30
10
0.078496435
20
0.86262003
30
0
70
32
0
VERTEX
8
0
62
30
10
0.078496435
20
0.86915438
30
0
70
32
0
SEQEND
8
0
0
POLYLINE
8
0
62
30
66
1
10
0
20
0
30
0
70
8
0
VERTEX
8
0
62
30
10
0.10678071
20
0.855156
30
0
70
32
0
VERTEX
8
0
62
30
10
0.10678071
20
0.86915438
30
0
70
32
0
SEQEND
8
0
0
POLYLINE
8
0
62
5
66
1
10
0
20
0
30
0
70
8
0
VERTEX
8
0
62
5
10
0.050212163
20
0.85514058
30
0
70
32
0
VERTEX
8
0
62
5
10
0.050212163
20
0.86915438
30
0
70
32
0
SEQEND
8
0
0
POLYLINE
8
0
62
5
66
1
10
0
20
0
30
0
70
8
0
VERTEX
8
0
62
5
10
0.078496435
20
0.85514058
30
0
70
32
0
VERTEX
8
0
62
5
10
0.078496435
20
0.86262003
30
0
70
32
0
SEQEND
8
0
0
POLYLINE
8
0
62
5
66
1
10
0
20
0
30
0
70
8
0
VERTEX
8
0
62
5
10
0.10678071
20
0.85514058
30
0
70
32
0
VERTEX
8
0
62
5
10
0.10678071
20
0.855156
30
0
70
32
0
SEQEND
8
0
0
POLYLINE
8
0
62
5
66
1
10
0
20
0
30
0
70
8
0
VERTEX
8
0
62
5
10
0.050212163
20
0.86915438
30
0
70
32
0
VERTEX
8
0
62
5
10
0.050212163
20
0.88316817
30
0
70
32
0
SEQEND
8
0
0
POLYLINE
8
0
62
5
66
1
10
0
20
0
30
0
70
8
0
VERTEX
8
0
62
5
10
0.078496435
20
0.86915438
30
0
70
32
0
VERTEX
8
0
62
5
10
0.078496435
20
0.88316817
30
0
70
32
0
SEQEND
8
0
0
POLYLINE
8
0
62
5
66
1
10
0
20
0
30
0
70
8
0
VERTEX
8
0
62
5
10
0.10678071
20
0.86915438
30
0
70
32
0
VERTEX
8
0
62
5
10
0.10678071
20
0.88316817
30
0
70
32
0
SEQEND
8
0
0
POLYLINE
8
0
62
30
66
1
10
0
20
0
30
0
70
8
0
VERTEX
8
0
62
30
10
0.021927892
20
0.86169035
30
0
70
32
0
VERTEX
8
0
62
30
10
0.028759378
20
0.86915438
30
0
70
32
0
VERTEX
8
0
62
30
10
0.021927892
20
0.8766184
30
0
70
32
0
SEQEND
8
0
0
POLYLINE
8
0
62
30
66
1
10
0
20
0
30
0
70
8
0
VERTEX
8
0
62
30
10
0.050212163
20
0.86915438
30
0
70
32
0
VERTEX
8
0
62
30
10
0.050212163
20
0.86915438
30
0
70
32
0
VERTEX
8
0
62
30
10
0.050212163
20
0.86915438
30
0
70
32
0
SEQEND
8
0
0
POLYLINE
8
0
62
30
66
1
10
0
20
0
30
0
70
8
0
VERTEX
8
0
62
30
10
0.078496435
20
0.86262003
30
0
70
32
0
VERTEX
8
0
62
30
10
0.084859903
20
0.86915438
30
0
70
32
0
VERTEX
8
0
62
30
10
0.078496435
20
0.87568873
30
0
70
32
0
SEQEND
8
0
0
POLYLINE
8
0
62
30
66
1
10
0
20
0
30
0
70
8
0
VERTEX
8
0
62
30
10
0.10678071
20
0.855156
30
0
70
32
0
VERTEX
8
0
62
30
10
0.11578496
20
0.86915438
30
0
70
32
0
VERTEX
8
0
62
30
10
0.10678071
20
0.88315275
30
0
70
32
0
SEQEND
8
0
0
POLYLINE
8
0
62
5
66
1
10
0
20
0
30
0
70
8
0
VERTEX
8
0
62
5
10
0.24820206
20
0.88316817
30
0
70
32
0
VERTEX
8
0
62
5
10
0.24820206
20
0.85514058
30
0
70
32
0
SEQEND
8
0
0
POLYLINE
8
0
62
5
66
1
10
0
20
0
30
0
70
8
0
VERTEX
8
0
62
5
10
0.13506498
20
0.86169035
30
0
70
32
0
VERTEX
8
0
62
5
10
0.16334925
20
0.86915438
30
0
70
32
0
VERTEX
8
0
62
5
10
0.19163352
20
0.86262003
30
0
70
32
0
VERTEX
8
0
62
5
10
0.21991779
20
0.855156
30
0
70
32
0
VERTEX
8
0
62
5
10
0.24820206
20
0.86169035
30
0
70
32
0
SEQEND
8
0
0
POLYLINE
8
0
62
5
66
1
10
0
20
0
30
0
70
8
0
SEQEND
8
0
0
POLYLINE
8
0
62
5
66
1
10
0
20
0
30
0
70
8
0
VERTEX
8
0
62
5
10
0.13506498
20
0.8766184
30
0
70
32
0
VERTEX
8
0
62
5
10
0.16334925
20
0.86915438
30
0
70
32
0
VERTEX
8
0
62
5
10
0.19163352
20
0.87568873
30
0
70
32
0
VERTEX
8
0
62
5
10
0.21991779
20
0.88315275
30
0
70
32
0
VERTEX
8
0
62
5
10
0.24820206
20
0.8766184
30
0
70
32
0
SEQEND
8
0
0
POLYLINE
8
0
62
30
66
1
10
0
20
0
30
0
70
8
0
VERTEX
8
0
62
30
10
0.13506498
20
0.86915438
30
0
70
32
0
VERTEX
8
0
62
30
10
0.24820206
20
0.86915438
30
0
70
32
0
SEQEND
8
0
0
POLYLINE
8
0
62
30
66
1
10
0
20
0
30
0
70
8
0
VERTEX
8
0
62
30
10
0.16334925
20
0.86915438
30
0
70
32
0
VERTEX
8
0
62
30
10
0.16334925
20
0.86915438
30
0
70
32
0
SEQEND
8
0
0
POLYLINE
8
0
62
30
66
1
10
0
20
0
30
0
70
8
0
VERTEX
8
0
62
30
10
0.19163352
20
0.86262003
30
0
70
32
0
VERTEX
8
0
62
30
10
0.19163352
20
0.86915438
30
0
70
32
0
SEQEND
8
0
0
POLYLINE
8
0
62
30
66
1
10
0
20
0
30
0
70
8
0
VERTEX
8
0
62
30
10
0.21991779
20
0.855156
30
0
70
32
0
VERTEX
8
0
62
30
10
0.21991779
20
0.86915438
30
0
70
32
0
SEQEND
8
0
0
POLYLINE
8
0
62
5
66
1
10
0
20
0
30
0
70
8
0
VERTEX
8
0
62
5
10
0.16334925
20
0.85514058
30
0
70
32
0
VERTEX
8
0
62
5
10
0.16334925
20
0.86915438
30
0
70
32
0
SEQEND
8
0
0
POLYLINE
8
0
62
5
66
1
10
0
20
0
30
0
70
8
0
VERTEX
8
0
62
5
10
0.19163352
20
0.85514058
30
0
70
32
0
VERTEX
8
0
62
5
10
0.19163352
20
0.86262003
30
0
70
32
0
SEQEND
8
0
0
POLYLINE
8
0
62
5
66
1
10
0
20
0
30
0
70
8
0
VERTEX
8
0
62
5
10
0.21991779
20
0.85514058
30
0
70
32
0
VERTEX
8
0
62
5
10
0.21991779
20
0.855156
30
0
70
32
0
SEQEND
8
0
0
POLYLINE
8
0
62
5
66
1
10
0
20
0
30
0
70
8
0
VERTEX
8
0
62
5
10
0.16334925
20
0.86915438
30
0
70
32
0
VERTEX
8
0
62
5
10
0.16334925
20
0.88316817
30
0
70
32
0
SEQEND
8
0
0
POLYLINE
8
0
62
5
66
1
10
0
20
0
30
0
70
8
0
VERTEX
8
0
62
5
10
0.19163352
20
0.86915438
30
0
70
32
0
VERTEX
8
0
62
5
10
0.19163352
20
0.88316817
30
0
70
32
0
SEQEND
8
0
0
POLYLINE
8
0
62
5
66
1
10
0
20
0
30
0
70
8
0
VERTEX
8
0
62
5
10
0.21991779
20
0.86915438
30
0
70
32
0
VERTEX
8
0
62
5
10
0.21991779
20
0.88316817
30
0
70
32
0
SEQEND
8
0
0
POLYLINE
8
0
62
30
66
1
10
0
20
0
30
0
70
8
0
VERTEX
8
0
62
30
10
0.13506498
20
0.86169035
30
0
70
32
0
VERTEX
8
0
62
30
10
0.14189646
20
0.86915438
30
0
70
32
0
VERTEX
8
0
62
30
10
0.13506498
20
0.8766184
30
0
70
32
0
SEQEND
8
0
0
POLYLINE
8
0
62
30
66
1
10
0
20
0
30
0
70
8
0
VERTEX
8
0
62
30
10
0.16334925
20
0.86915438
30
0
70
32
0
VERTEX
8
0
62
30
10
0.16334925
20
0.86915438
30
0
70
32
0
VERTEX
8
0
62
30
10
0.16334925
20
0.86915438
30
0
70
32
0
SEQEND
8
0
0
POLYLINE
8
0
62
30
66
1
10
0
20
0
30
0
70
8
0
VERTEX
8
0
62
30
10
0.19163352
20
0.86262003
30
0
70
32
0
VERTEX
8
0
62
30
10
0.19799699
20
0.86915438
30
0
70
32
0
VERTEX
8
0
62
30
10
0.19163352
20
0.87568873
30
0
70
32
0
SEQEND
8
0
0
POLYLINE
8
0
62
30
66
1
10
0
20
0
30
0
70
8
0
VERTEX
8
0
62
30
10
0.21991779
20
0.855156
30
0
70
32
0
VERTEX
8
0
62
30
10
0.22892205
20
0.86915438
30
0
70
32
0
VERTEX
8
0
62
30
10
0.21991779
20
0.88315275
30
0
70
32
0
SEQEND
8
0
0
POLYLINE
8
0
62
5
66
1
10
0
20
0
30
0
70
8
0
VERTEX
8
0
62
5
10
-0.091209193
20
0.85514058
30
0
70
32
0
VERTEX
8
0
62
5
10
-0.091209193
20
0.88316817
30
0
70
32
0
SEQEND
8
0
0
POLYLINE
8
0
62
5
66
1
10
0
20
0
30
0
70
8
0
VERTEX
8
0
62
5
10
-0.091209193
20
0.86169035
30
0
70
32
0
VERTEX
8
0
62
5
10
-0.062924922
20
0.86915438
30
0
70
32
0
VERTEX
8
0
62
5
10
-0.03464065
20
0.86262003
30
0
70
32
0
VERTEX
8
0
62
5
10
-0.0063563792
20
0.855156
30
0
70
32
0
VERTEX
8
0
62
5
10
0.021927892
20
0.86169035
30
0
70
32
0
SEQEND
8
0
0
POLYLINE
8
0
62
5
66
1
10
0
20
0
30
0
70
8
0
SEQEND
8
0
0
POLYLINE
8
0
62
5
66
1
10
0
20
0
30
0
70
8
0
VERTEX
8
0
62
5
10
-0.091209193
20
0.8766184
30
0
70
32
0
VERTEX
8
0
62
5
10
-0.062924922
20
0.86915438
30
0
70
32
0
VERTEX
8
0
62
5
10
-0.03464065
20
0.87568873
30
0
70
32
0
VERTEX
8
0
62
5
10
-0.0063563792
20
0.88315275
30
0
70
32
0
VERTEX
8
0
62
5
10
0.021927892
20
0.8766184
30
0
70
32
0
SEQEND
8
0
0
POLYLINE
8
0
62
30
66
1
10
0
20
0
30
0
70
8
0
VERTEX
8
0
62
30
10
-0.091209193
20
0.86915438
30
0
70
32
0
VERTEX
8
0
62
30
10
0.021927892
20
0.86915438
30
0
70
32
0
SEQEND
8
0
0
POLYLINE
8
0
62
30
66
1
10
0
20
0
30
0
70
8
0
VERTEX
8
0
62
30
10
-0.062924922
20
0.86915438
30
0
70
32
0
VERTEX
8
0
62
30
10
-0.062924922
20
0.86915438
30
0
70
32
0
SEQEND
8
0
0
POLYLINE
8
0
62
30
66
1
10
0
20
0
30
0
70
8
0
VERTEX
8
0
62
30
10
-0.03464065
20
0.86262003
30
0
70
32
0
VERTEX
8
0
62
30
10
-0.03464065
20
0.86915438
30
0
70
32
0
SEQEND
8
0
0
POLYLINE
8
0
62
30
66
1
10
0
20
0
30
0
70
8
0
VERTEX
8
0
62
30
10
-0.0063563792
20
0.855156
30
0
70
32
0
VERTEX
8
0
62
30
10
-0.0063563792
20
0.86915438
30
0
70
32
0
SEQEND
8
0
0
POLYLINE
8
0
62
5
66
1
10
0
20
0
30
0
70
8
0
VERTEX
8
0
62
5
10
-0.062924922
20
0.85514058
30
0
70
32
0
VERTEX
8
0
62
5
10
-0.062924922
20
0.86915438
30
0
70
32
0
SEQEND
8
0
0
POLYLINE
8
0
62
5
66
1
10
0
20
0
30
0
70
8
0
VERTEX
8
0
62
5
10
-0.03464065
20
0.85514058
30
0
70
32
0
VERTEX
8
0
62
5
10
-0.03464065
20
0.86262003
30
0
70
32
0
SEQEND
8
0
0
POLYLINE
8
0
62
5
66
1
10
0
20
0
30
0
70
8
0
VERTEX
8
0
62
5
10
-0.0063563792
20
0.85514058
30
0
70
32
0
VERTEX
8
0
62
5
10
-0.0063563792
20
0.855156
30
0
70
32
0
SEQEND
8
0
0
POLYLINE
8
0
62
5
66
1
10
0
20
0
30
0
70
8
0
VERTEX
8
0
62
5
10
-0.062924922
20
0.86915438
30
0
70
32
0
VERTEX
8
0
62
5
10
-0.062924922
20
0.88316817
30
0
70
32
0
SEQEND
8
0
0
POLYLINE
8
0
62
5
66
1
10
0
20
0
30
0
70
8
0
VERTEX
8
0
62
5
10
-0.03464065
20
0.86915438
30
0
70
32
0
VERTEX
8
0
62
5
10
-0.03464065
20
0.88316817
30
0
70
32
0
SEQEND
8
0
0
POLYLINE
8
0
62
5
66
1
10
0
20
0
30
0
70
8
0
VERTEX
8
0
62
5
10
-0.0063563792
20
0.86915438
30
0
70
32
0
VERTEX
8
0
62
5
10
-0.0063563792
20
0.88316817
30
0
70
32
0
SEQEND
8
0
0
POLYLINE
8
0
62
30
66
1
10
0
20
0
30
0
70
8
0
VERTEX
8
0
62
30
10
-0.091209193
20
0.86169035
30
0
70
32
0
VERTEX
8
0
62
30
10
-0.084377707
20
0.86915438
30
0
70
32
0
VERTEX
8
0
62
30
10
-0.091209193
20
0.8766184
30
0
70
32
0
SEQEND
8
0
0
POLYLINE
8
0
62
30
66
1
10
0
20
0
30
0
70
8
0
VERTEX
8
0
62
30
10
-0.062924922
20
0.86915438
30
0
70
32
0
VERTEX
8
0
62
30
10
-0.062924922
20
0.86915438
30
0
70
32
0
VERTEX
8
0
62
30
10
-0.062924922
20
0.86915438
30
0
70
32
0
SEQEND
8
0
0
POLYLINE
8
0
62
30
66
1
10
0
20
0
30
0
70
8
0
VERTEX
8
0
62
30
10
-0.03464065
20
0.86262003
30
0
70
32
0
VERTEX
8
0
62
30
10
-0.028277182
20
0.86915438
30
0
70
32
0
VERTEX
8
0
62
30
10
-0.03464065
20
0.87568873
30
0
70
32
0
SEQEND
8
0
0
POLYLINE
8
0
62
30
66
1
10
0
20
0
30
0
70
8
0
VERTEX
8
0
62
30
10
-0.0063563792
20
0.855156
30
0
70
32
0
VERTEX
8
0
62
30
10
0.0026478764
20
0.86915438
30
0
70
32
0
VERTEX
8
0
62
30
10
-0.0063563792
20
0.88315275
30
0
70
32
0
SEQEND
8
0
0
POLYLINE
8
0
62
5
66
1
10
0
20
0
30
0
70
8
0
VERTEX
8
0
62
5
10
0.021927892
20
0.88316817
30
0
70
32
0
VERTEX
8
0
62
5
10
0.021927892
20
0.92316817
30
0
70
32
0
SEQEND
8
0
0
POLYLINE
8
0
62
5
66
1
10
0
20
0
30
0
70
8
0
VERTEX
8
0
62
5
10
0.13506498
20
0.92316817
30
0
70
32
0
VERTEX
8
0
62
5
10
0.13506498
20
0.88316817
30
0
70
32
0
SEQEND
8
0
0
POLYLINE
8
0
62
5
66
1
10
0
20
0
30
0
70
8
0
VERTEX
8
0
62
5
10
0.021927892
20
0.88316817
30
0
70
32
0
VERTEX
8
0
62
5
10
0.13506498
20
0.88316817
30
0
70
32
0
SEQEND
8
0
0
POLYLINE
8
0
62
5
66
1
10
0
20
0
30
0
70
8
0
VERTEX
8
0
62
5
10
0.021927892
20
0.92316817
30
0
70
32
0
VERTEX
8
0
62
5
10
0.13506498
20
0.92316817
30
0
70
32
0
SEQEND
8
0
0
POLYLINE
8
0
62
5
66
1
10
0
20
0
30
0
70
8
0
VERTEX
8
0
62
5
10
0.050212163
20
0.88316817
30
0
70
32
0
VERTEX
8
0
62
5
10
0.050212163
20
0.88316817
30
0
70
32
0
SEQEND
8
0
0
POLYLINE
8
0
62
5
66
1
10
0
20
0
30
0
70
8
0
VERTEX
8
0
62
5
10
0.078496435
20
0.88316817
30
0
70
32
0
VERTEX
8
0
62
5
10
0.078496435
20
0.88316817
30
0
70
32
0
SEQEND
8
0
0
POLYLINE
8
0
62
5
66
1
10
0
20
0
30
0
70
8
0
VERTEX
8
0
62
5
10
0.10678071
20
0.88316817
30
0
70
32
0
VERTEX
8
0
62
5
10
0.10678071
20
0.88316817
30
0
70
32
0
SEQEND
8
0
0
POLYLINE
8
0
62
5
66
1
10
0
20
0
30
0
70
8
0
VERTEX
8
0
62
5
10
0.050212163
20
0.92316817
30
0
70
32
0
VERTEX
8
0
62
5
10
0.050212163
20
0.92316817
30
0
70
32
0
SEQEND
8
0
0
POLYLINE
8
0
62
5
66
1
10
0
20
0
30
0
70
8
0
VERTEX
8
0
62
5
10
0.078496435
20
0.92316817
30
0
70
32
0
VERTEX
8
0
62
5
10
0.078496435
20
0.92316817
30
0
70
32
0
SEQEND
8
0
0
POLYLINE
8
0
62
5
66
1
10
0
20
0
30
0
70
8
0
VERTEX
8
0
62
5
10
0.10678071
20
0.92316817
30
0
70
32
0
VERTEX
8
0
62
5
10
0.10678071
20
0.92316817
30
0
70
32
0
SEQEND
8
0
0
POLYLINE
8
0
62
30
66
1
10
0
20
0
30
0
70
8
0
VERTEX
8
0
62
30
10
0.021927892
20
0.88316817
30
0
70
32
0
VERTEX
8
0
62
30
10
0.036070028
20
0.90316817
30
0
70
32
0
SEQEND
8
0
0
POLYLINE
8
0
62
30
66
1
10
0
20
0
30
0
70
8
0
VERTEX
8
0
62
30
10
0.036070028
20
0.90316817
30
0
70
32
0
VERTEX
8
0
62
30
10
0.050212163
20
0.88316817
30
0
70
32
0
SEQEND
8
0
0
POLYLINE
8
0
62
30
66
1
10
0
20
0
30
0
70
8
0
VERTEX
8
0
62
30
10
0.078496435
20
0.88316817
30
0
70
32
0
VERTEX
8
0
62
30
10
0.09263857
20
0.90316817
30
0
70
32
0
SEQEND
8
0
0
POLYLINE
8
0
62
30
66
1
10
0
20
0
30
0
70
8
0
VERTEX
8
0
62
30
10
0.09263857
20
0.90316817
30
0
70
32
0
VERTEX
8
0
62
30
10
0.10678071
20
0.88316817
30
0
70
32
0
SEQEND
8
0
0
POLYLINE
8
0
62
30
66
1
10
0
20
0
30
0
70
8
0
VERTEX
8
0
62
30
10
0.050212163
20
0.90316817
30
0
70
32
0
VERTEX
8
0
62
30
10
0.078496435
20
0.90316817
30
0
70
32
0
SEQEND
8
0
0
POLYLINE
8
0
62
30
66
1
10
0
20
0
30
0
70
8
0
VERTEX
8
0
62
30
10
0.10678071
20
0.90316817
30
0
70
32
0
VERTEX
8
0
62
30
10
0.13506498
20
0.90316817
30
0
70
32
0
SEQEND
8
0
0
POLYLINE
8
0
62
5
66
1
10
0
20
0
30
0
70
8
0
VERTEX
8
0
62
5
10
0.021927892
20
0.90316817
30
0
70
32
0
VERTEX
8
0
62
5
10
0.036070028
20
0.90316817
30
0
70
32
0
SEQEND
8
0
0
POLYLINE
8
0
62
5
66
1
10
0
20
0
30
0
70
8
0
VERTEX
8
0
62
5
10
0.078496435
20
0.90316817
30
0
70
32
0
VERTEX
8
0
62
5
10
0.09263857
20
0.90316817
30
0
70
32
0
SEQEND
8
0
0
POLYLINE
8
0
62
5
66
1
10
0
20
0
30
0
70
8
0
VERTEX
8
0
62
5
10
0.036070028
20
0.90316817
30
0
70
32
0
VERTEX
8
0
62
5
10
0.050212163
20
0.90316817
30
0
70
32
0
SEQEND
8
0
0
POLYLINE
8
0
62
5
66
1
10
0
20
0
30
0
70
8
0
VERTEX
8
0
62
5
10
0.09263857
20
0.90316817
30
0
70
32
0
VERTEX
8
0
62
5
10
0.10678071
20
0.90316817
30
0
70
32
0
SEQEND
8
0
0
POLYLINE
8
0
62
5
66
1
10
0
20
0
30
0
70
8
0
VERTEX
8
0
62
5
10
0.050212163
20
0.88316817
30
0
70
32
0
VERTEX
8
0
62
5
10
0.050212163
20
0.92316817
30
0
70
32
0
SEQEND
8
0
0
POLYLINE
8
0
62
5
66
1
10
0
20
0
30
0
70
8
0
VERTEX
8
0
62
5
10
0.078496435
20
0.88316817
30
0
70
32
0
VERTEX
8
0
62
5
10
0.078496435
20
0.92316817
30
0
70
32
0
SEQEND
8
0
0
POLYLINE
8
0
62
5
66
1
10
0
20
0
30
0
70
8
0
VERTEX
8
0
62
5
10
0.10678071
20
0.88316817
30
0
70
32
0
VERTEX
8
0
62
5
10
0.10678071
20
0.92316817
30
0
70
32
0
SEQEND
8
0
0
POLYLINE
8
0
62
5
66
1
10
0
20
0
30
0
70
8
0
VERTEX
8
0
62
5
10
0.021927892
20
0.88316817
30
0
70
32
0
VERTEX
8
0
62
5
10
0.021927892
20
0.92316817
30
0
70
32
0
SEQEND
8
0
0
POLYLINE
8
0
62
5
66
1
10
0
20
0
30
0
70
8
0
VERTEX
8
0
62
5
10
0.24820206
20
0.92316817
30
0
70
32
0
VERTEX
8
0
62
5
10
0.24820206
20
0.88316817
30
0
70
32
0
SEQEND
8
0
0
POLYLINE
8
0
62
5
66
1
10
0
20
0
30
0
70
8
0
VERTEX
8
0
62
5
10
0.13506498
20
0.88316817
30
0
70
32
0
VERTEX
8
0
62
5
10
0.24820206
20
0.88316817
30
0
70
32
0
SEQEND
8
0
0
POLYLINE
8
0
62
5
66
1
10
0
20
0
30
0
70
8
0
VERTEX
8
0
62
5
10
0.13506498
20
0.92316817
30
0
70
32
0
VERTEX
8
0
62
5
10
0.24820206
20
0.92316817
30
0
70
32
0
SEQEND
8
0
0
POLYLINE
8
0
62
5
66
1
10
0
20
0
30
0
70
8
0
VERTEX
8
0
62
5
10
0.16334925
20
0.88316817
30
0
70
32
0
VERTEX
8
0
62
5
10
0.16334925
20
0.88316817
30
0
70
32
0
SEQEND
8
0
0
POLYLINE
8
0
62
5
66
1
10
0
20
0
30
0
70
8
0
VERTEX
8
0
62
5
10
0.19163352
20
0.88316817
30
0
70
32
0
VERTEX
8
0
62
5
10
0.19163352
20
0.88316817
30
0
70
32
0
SEQEND
8
0
0
POLYLINE
8
0
62
5
66
1
10
0
20
0
30
0
70
8
0
VERTEX
8
0
62
5
10
0.21991779
20
0.88316817
30
0
70
32
0
VERTEX
8
0
62
5
10
0.21991779
20
0.88316817
30
0
70
32
0
SEQEND
8
0
0
POLYLINE
8
0
62
5
66
1
10
0
20
0
30
0
70
8
0
VERTEX
8
0
62
5
10
0.16334925
20
0.92316817
30
0
70
32
0
VERTEX
8
0
62
5
10
0.16334925
20
0.92316817
30
0
70
32
0
SEQEND
8
0
0
POLYLINE
8
0
62
5
66
1
10
0
20
0
30
0
70
8
0
VERTEX
8
0
62
5
10
0.19163352
20
0.92316817
30
0
70
32
0
VERTEX
8
0
62
5
10
0.19163352
20
0.92316817
30
0
70
32
0
SEQEND
8
0
0
POLYLINE
8
0
62
5
66
1
10
0
20
0
30
0
70
8
0
VERTEX
8
0
62
5
10
0.21991779
20
0.92316817
30
0
70
32
0
VERTEX
8
0
62
5
10
0.21991779
20
0.92316817
30
0
70
32
0
SEQEND
8
0
0
POLYLINE
8
0
62
30
66
1
10
0
20
0
30
0
70
8
0
VERTEX
8
0
62
30
10
0.13506498
20
0.88316817
30
0
70
32
0
VERTEX
8
0
62
30
10
0.14920711
20
0.90316817
30
0
70
32
0
SEQEND
8
0
0
POLYLINE
8
0
62
30
66
1
10
0
20
0
30
0
70
8
0
VERTEX
8
0
62
30
10
0.14920711
20
0.90316817
30
0
70
32
0
VERTEX
8
0
62
30
10
0.16334925
20
0.88316817
30
0
70
32
0
SEQEND
8
0
0
POLYLINE
8
0
62
30
66
1
10
0
20
0
30
0
70
8
0
VERTEX
8
0
62
30
10
0.19163352
20
0.88316817
30
0
70
32
0
VERTEX
8
0
62
30
10
0.20577566
20
0.90316817
30
0
70
32
0
SEQEND
8
0
0
POLYLINE
8
0
62
30
66
1
10
0
20
0
30
0
70
8
0
VERTEX
8
0
62
30
10
0.20577566
20
0.90316817
30
0
70
32
0
VERTEX
8
0
62
30
10
0.21991779
20
0.88316817
30
0
70
32
0
SEQEND
8
0
0
POLYLINE
8
0
62
30
66
1
10
0
20
0
30
0
70
8
0
VERTEX
8
0
62
30
10
0.16334925
20
0.90316817
30
0
70
32
0
VERTEX
8
0
62
30
10
0.19163352
20
0.90316817
30
0
70
32
0
SEQEND
8
0
0
POLYLINE
8
0
62
30
66
1
10
0
20
0
30
0
70
8
0
VERTEX
8
0
62
30
10
0.21991779
20
0.90316817
30
0
70
32
0
VERTEX
8
0
62
30
10
0.24820206
20
0.90316817
30
0
70
32
0
SEQEND
8
0
0
POLYLINE
8
0
62
5
66
1
10
0
20
0
30
0
70
8
0
VERTEX
8
0
62
5
10
0.13506498
20
0.90316817
30
0
70
32
0
VERTEX
8
0
62
5
10
0.14920711
20
0.90316817
30
0
70
32
0
SEQEND
8
0
0
POLYLINE
8
0
62
5
66
1
10
0
20
0
30
0
70
8
0
VERTEX
8
0
62
5
10
0.19163352
20
0.90316817
30
0
70
32
0
VERTEX
8
0
62
5
10
0.20577566
20
0.90316817
30
0
70
32
0
SEQEND
8
0
0
POLYLINE
8
0
62
5
66
1
10
0
20
0
30
0
70
8
0
VERTEX
8
0
62
5
10
0.14920711
20
0.90316817
30
0
70
32
0
VERTEX
8
0
62
5
10
0.16334925
20
0.90316817
30
0
70
32
0
SEQEND
8
0
0
POLYLINE
8
0
62
5
66
1
10
0
20
0
30
0
70
8
0
VERTEX
8
0
62
5
10
0.20577566
20
0.90316817
30
0
70
32
0
VERTEX
8
0
62
5
10
0.21991779
20
0.90316817
30
0
70
32
0
SEQEND
8
0
0
POLYLINE
8
0
62
5
66
1
10
0
20
0
30
0
70
8
0
VERTEX
8
0
62
5
10
0.16334925
20
0.88316817
30
0
70
32
0
VERTEX
8
0
62
5
10
0.16334925
20
0.92316817
30
0
70
32
0
SEQEND
8
0
0
POLYLINE
8
0
62
5
66
1
10
0
20
0
30
0
70
8
0
VERTEX
8
0
62
5
10
0.19163352
20
0.88316817
30
0
70
32
0
VERTEX
8
0
62
5
10
0.19163352
20
0.92316817
30
0
70
32
0
SEQEND
8
0
0
POLYLINE
8
0
62
5
66
1
10
0
20
0
30
0
70
8
0
VERTEX
8
0
62
5
10
0.21991779
20
0.88316817
30
0
70
32
0
VERTEX
8
0
62
5
10
0.21991779
20
0.92316817
30
0
70
32
0
SEQEND
8
0
0
POLYLINE
8
0
62
5
66
1
10
0
20
0
30
0
70
8
0
VERTEX
8
0
62
5
10
0.13506498
20
0.88316817
30
0
70
32
0
VERTEX
8
0
62
5
10
0.13506498
20
0.92316817
30
0
70
32
0
SEQEND
8
0
0
POLYLINE
8
0
62
5
66
1
10
0
20
0
30
0
70
8
0
VERTEX
8
0
62
5
10
-0.091209193
20
0.88316817
30
0
70
32
0
VERTEX
8
0
62
5
10
-0.091209193
20
0.92316817
30
0
70
32
0
SEQEND
8
0
0
POLYLINE
8
0
62
5
66
1
10
0
20
0
30
0
70
8
0
VERTEX
8
0
62
5
10
-0.091209193
20
0.88316817
30
0
70
32
0
VERTEX
8
0
62
5
10
0.021927892
20
0.88316817
30
0
70
32
0
SEQEND
8
0
0
POLYLINE
8
0
62
5
66
1
10
0
20
0
30
0
70
8
0
VERTEX
8
0
62
5
10
-0.091209193
20
0.92316817
30
0
70
32
0
VERTEX
8
0
62
5
10
0.021927892
20
0.92316817
30
0
70
32
0
SEQEND
8
0
0
POLYLINE
8
0
62
5
66
1
10
0
20
0
30
0
70
8
0
VERTEX
8
0
62
5
10
-0.062924922
20
0.88316817
30
0
70
32
0
VERTEX
8
0
62
5
10
-0.062924922
20
0.88316817
30
0
70
32
0
SEQEND
8
0
0
POLYLINE
8
0
62
5
66
1
10
0
20
0
30
0
70
8
0
VERTEX
8
0
62
5
10
-0.03464065
20
0.88316817
30
0
70
32
0
VERTEX
8
0
62
5
10
-0.03464065
20
0.88316817
30
0
70
32
0
SEQEND
8
0
0
POLYLINE
8
0
62
5
66
1
10
0
20
0
30
0
70
8
0
VERTEX
8
0
62
5
10
-0.0063563792
20
0.88316817
30
0
70
32
0
VERTEX
8
0
62
5
10
-0.0063563792
20
0.88316817
30
0
70
32
0
SEQEND
8
0
0
POLYLINE
8
0
62
5
66
1
10
0
20
0
30
0
70
8
0
VERTEX
8
0
62
5
10
-0.062924922
20
0.92316817
30
0
70
32
0
VERTEX
8
0
62
5
10
-0.062924922
20
0.92316817
30
0
70
32
0
SEQEND
8
0
0
POLYLINE
8
0
62
5
66
1
10
0
20
0
30
0
70
8
0
VERTEX
8
0
62
5
10
-0.03464065
20
0.92316817
30
0
70
32
0
VERTEX
8
0
62
5
10
-0.03464065
20
0.92316817
30
0
70
32
0
SEQEND
8
0
0
POLYLINE
8
0
62
5
66
1
10
0
20
0
30
0
70
8
0
VERTEX
8
0
62
5
10
-0.0063563792
20
0.92316817
30
0
70
32
0
VERTEX
8
0
62
5
10
-0.0063563792
20
0.92316817
30
0
70
32
0
SEQEND
8
0
0
POLYLINE
8
0
62
30
66
1
10
0
20
0
30
0
70
8
0
VERTEX
8
0
62
30
10
-0.091209193
20
0.88316817
30
0
70
32
0
VERTEX
8
0
62
30
10
-0.077067057
20
0.90316817
30
0
70
32
0
SEQEND
8
0
0
POLYLINE
8
0
62
30
66
1
10
0
20
0
30
0
70
8
0
VERTEX
8
0
62
30
10
-0.077067057
20
0.90316817
30
0
70
32
0
VERTEX
8
0
62
30
10
-0.062924922
20
0.88316817
30
0
70
32
0
SEQEND
8
0
0
POLYLINE
8
0
62
30
66
1
10
0
20
0
30
0
70
8
0
VERTEX
8
0
62
30
10
-0.03464065
20
0.88316817
30
0
70
32
0
VERTEX
8
0
62
30
10
-0.020498515
20
0.90316817
30
0
70
32
0
SEQEND
8
0
0
POLYLINE
8
0
62
30
66
1
10
0
20
0
30
0
70
8
0
VERTEX
8
0
62
30
10
-0.020498515
20
0.90316817
30
0
70
32
0
VERTEX
8
0
62
30
10
-0.0063563792
20
0.88316817
30
0
70
32
0
SEQEND
8
0
0
POLYLINE
8
0
62
30
66
1
10
0
20
0
30
0
70
8
0
VERTEX
8
0
62
30
10
-0.062924922
20
0.90316817
30
0
70
32
0
VERTEX
8
0
62
30
10
-0.03464065
20
0.90316817
30
0
70
32
0
SEQEND
8
0
0
POLYLINE
8
0
62
30
66
1
10
0
20
0
30
0
70
8
0
VERTEX
8
0
62
30
10
-0.0063563792
20
0.90316817
30
0
70
32
0
VERTEX
8
0
62
30
10
0.021927892
20
0.90316817
30
0
70
32
0
SEQEND
8
0
0
POLYLINE
8
0
62
5
66
1
10
0
20
0
30
0
70
8
0
VERTEX
8
0
62
5
10
-0.091209193
20
0.90316817
30
0
70
32
0
VERTEX
8
0
62
5
10
-0.077067057
20
0.90316817
30
0
70
32
0
SEQEND
8
0
0
POLYLINE
8
0
62
5
66
1
10
0
20
0
30
0
70
8
0
VERTEX
8
0
62
5
10
-0.03464065
20
0.90316817
30
0
70
32
0
VERTEX
8
0
62
5
10
-0.020498515
20
0.90316817
30
0
70
32
0
SEQEND
8
0
0
POLYLINE
8
0
62
5
66
1
10
0
20
0
30
0
70
8
0
VERTEX
8
0
62
5
10
-0.077067057
20
0.90316817
30
0
70
32
0
VERTEX
8
0
62
5
10
-0.062924922
20
0.90316817
30
0
70
32
0
SEQEND
8
0
0
POLYLINE
8
0
62
5
66
1
10
0
20
0
30
0
70
8
0
VERTEX
8
0
62
5
10
-0.020498515
20
0.90316817
30
0
70
32
0
VERTEX
8
0
62
5
10
-0.0063563792
20
0.90316817
30
0
70
32
0
SEQEND
8
0
0
POLYLINE
8
0
62
5
66
1
10
0
20
0
30
0
70
8
0
VERTEX
8
0
62
5
10
-0.062924922
20
0.88316817
30
0
70
32
0
VERTEX
8
0
62
5
10
-0.062924922
20
0.92316817
30
0
70
32
0
SEQEND
8
0
0
POLYLINE
8
0
62
5
66
1
10
0
20
0
30
0
70
8
0
VERTEX
8
0
62
5
10
-0.03464065
20
0.88316817
30
0
70
32
0
VERTEX
8
0
62
5
10
-0.03464065
20
0.92316817
30
0
70
32
0
SEQEND
8
0
0
POLYLINE
8
0
62
5
66
1
10
0
20
0
30
0
70
8
0
VERTEX
8
0
62
5
10
-0.0063563792
20
0.88316817
30
0
70
32
0
VERTEX
8
0
62
5
10
-0.0063563792
20
0.92316817
30
0
70
32
0
SEQEND
8
0
0
POLYLINE
8
0
62
5
66
1
10
0
20
0
30
0
70
8
0
VERTEX
8
0
62
5
10
-0.091209193
20
0.88316817
30
0
70
32
0
VERTEX
8
0
62
5
10
-0.091209193
20
0.92316817
30
0
70
32
0
SEQEND
8
0
0
POLYLINE
8
0
62
18
66
1
10
0
20
0
30
0
70
8
0
VERTEX
8
0
62
18
10
0
20
0
30
0
70
32
0
VERTEX
8
0
62
18
10
0.14142136
20
0
30
0
70
32
0
VERTEX
8
0
62
18
10
0.14142136
20
0.31405472
30
0
70
32
0
VERTEX
8
0
62
18
10
0
20
0.31405472
30
0
70
32
0
VERTEX
8
0
62
18
10
0
20
0
30
0
70
32
0
SEQEND
8
0
0
POLYLINE
8
0
62
5
66
1
10
0
20
0
30
0
70
8
0
VERTEX
8
0
62
5
10
0
20
0.31405472
30
0
70
32
0
VERTEX
8
0
62
5
10
0.14142136
20
0.31405472
30
0
70
32
0
SEQEND
8
0
0
POLYLINE
8
0
62
18
66
1
10
0
20
0
30
0
70
8
0
VERTEX
8
0
62
18
10
0
20
0.29405472
30
0
70
32
0
VERTEX
8
0
62
18
10
0.14142136
20
0.29405472
30
0
70
32
0
VERTEX
8
0
62
18
10
0.14142136
20
0.60177954
30
0
70
32
0
VERTEX
8
0
62
18
10
0
20
0.60177954
30
0
70
32
0
VERTEX
8
0
62
18
10
0
20
0.29405472
30
0
70
32
0
SEQEND
8
0
0
POLYLINE
8
0
62
5
66
1
10
0
20
0
30
0
70
8
0
VERTEX
8
0
62
5
10
0
20
0.60177954
30
0
70
32
0
VERTEX
8
0
62
5
10
0.14142136
20
0.60177954
30
0
70
32
0
SEQEND
8
0
0
POLYLINE
8
0
62
18
66
1
10
0
20
0
30
0
70
8
0
VERTEX
8
0
62
18
10
0
20
0.58177954
30
0
70
32
0
VERTEX
8
0
62
18
10
0.14142136
20
0.58177954
30
0
70
32
0
VERTEX
8
0
62
18
10
0.14142136
20
0.83088471
30
0
70
32
0
VERTEX
8
0
62
18
10
0
20
0.83088471
30
0
70
32
0
VERTEX
8
0
62
18
10
0
20
0.58177954
30
0
70
32
0
SEQEND
8
0
0
POLYLINE
8
0
62
5
66
1
10
0
20
0
30
0
70
8
0
VERTEX
8
0
62
5
10
0
20
0.83088471
30
0
70
32
0
VERTEX
8
0
62
5
10
0.14142136
20
0.83088471
30
0
70
32
0
SEQEND
8
0
0
POLYLINE
8
0
62
18
66
1
10
0
20
0
30
0
70
8
0
VERTEX
8
0
62
18
10
0
20
0.81088471
30
0
70
32
0
VERTEX
8
0
62
18
10
0.14142136
20
0.81088471
30
0
70
32
0
VERTEX
8
0
62
18
10
0.14142136
20
0.92316817
30
0
70
32
0
VERTEX
8
0
62
18
10
0
20
0.92316817
30
0
70
32
0
VERTEX
8
0
62
18
10
0
20
0.81088471
30
0
70
32
0
SEQEND
8
0
0
POLYLINE
8
0
62
18
66
1
10
0
20
0
30
0
70
8
0
VERTEX
8
0
62
18
10
0.14142136
20
0
30
0
70
32
0
VERTEX
8
0
62
18
10
0
20
0
30
0
70
32
0
VERTEX
8
0
62
18
10
0
20
0.92316817
30
0
70
32
0
VERTEX
8
0
62
18
10
0.14142136
20
0.92316817
30
0
70
32
0
VERTEX
8
0
62
18
10
0.14142136
20
0
30
0
70
32
0
SEQEND
8
0
0
ENDSEC
0
EOF
