0
SECTION
2
HEADER
9
$ACADVER
1
AC1006
9
$INSUNITS
70
6
0
ENDSEC
0
SECTION
2
ENTITIES
0
POLYLINE
8
0
62
5
66
1
10
0
20
0
30
0
70
8
0
VERTEX
8
0
62
5
10
0
20
0
30
0
70
32
0
VERTEX
8
0
62
5
10
0
20
0.1
30
0
70
32
0
SEQEND
8
0
0
POLYLINE
8
0
62
5
66
1
10
0
20
0
30
0
70
8
0
VERTEX
8
0
62
5
10
0.11313708
20
0
30
0
70
32
0
VERTEX
8
0
62
5
10
0.11313708
20
0.1
30
0
70
32
0
SEQEND
8
0
0
POLYLINE
8
0
62
5
66
1
10
0
20
0
30
0
70
8
0
VERTEX
8
0
62
5
10
0.028284271
20
0
30
0
70
32
0
VERTEX
8
0
62
5
10
0.028284271
20
0.1
30
0
70
32
0
SEQEND
8
0
0
POLYLINE
8
0
62
5
66
1
10
0
20
0
30
0
70
8
0
VERTEX
8
0
62
5
10
0.056568542
20
0
30
0
70
32
0
VERTEX
8
0
62
5
10
0.056568542
20
0.1
30
0
70
32
0
SEQEND
8
0
0
POLYLINE
8
0
62
5
66
1
10
0
20
0
30
0
70
8
0
VERTEX
8
0
62
5
10
0.084852814
20
0
30
0
70
32
0
VERTEX
8
0
62
5
10
0.084852814
20
0.1
30
0
70
32
0
SEQEND
8
0
0
POLYLINE
8
0
62
5
66
1
10
0
20
0
30
0
70
8
0
VERTEX
8
0
62
5
10
0.22627417
20
0
30
0
70
32
0
VERTEX
8
0
62
5
10
0.22627417
20
0.1
30
0
70
32
0
SEQEND
8
0
0
POLYLINE
8
0
62
5
66
1
10
0
20
0
30
0
70
8
0
VERTEX
8
0
62
5
10
0.14142136
20
0
30
0
70
32
0
VERTEX
8
0
62
5
10
0.14142136
20
0.1
30
0
70
32
0
SEQEND
8
0
0
POLYLINE
8
0
62
5
66
1
10
0
20
0
30
0
70
8
0
VERTEX
8
0
62
5
10
0.16970563
20
0
30
0
70
32
0
VERTEX
8
0
62
5
10
0.16970563
20
0.1
30
0
70
32
0
SEQEND
8
0
0
POLYLINE
8
0
62
5
66
1
10
0
20
0
30
0
70
8
0
VERTEX
8
0
62
5
10
0.1979899
20
0
30
0
70
32
0
VERTEX
8
0
62
5
10
0.1979899
20
0.1
30
0
70
32
0
SEQEND
8
0
0
POLYLINE
8
0
62
5
66
1
10
0
20
0
30
0
70
8
0
VERTEX
8
0
62
5
10
-0.11313708
20
0
30
0
70
32
0
VERTEX
8
0
62
5
10
-0.11313708
20
0.1
30
0
70
32
0
SEQEND
8
0
0
POLYLINE
8
0
62
5
66
1
10
0
20
0
30
0
70
8
0
VERTEX
8
0
62
5
10
-0.084852814
20
0
30
0
70
32
0
VERTEX
8
0
62
5
10
-0.084852814
20
0.1
30
0
70
32
0
SEQEND
8
0
0
POLYLINE
8
0
62
5
66
1
10
0
20
0
30
0
70
8
0
VERTEX
8
0
62
5
10
-0.056568542
20
0
30
0
70
32
0
VERTEX
8
0
62
5
10
-0.056568542
20
0.1
30
0
70
32
0
SEQEND
8
0
0
POLYLINE
8
0
62
5
66
1
10
0
20
0
30
0
70
8
0
VERTEX
8
0
62
5
10
-0.028284271
20
0
30
0
70
32
0
VERTEX
8
0
62
5
10
-0.028284271
20
0.1
30
0
70
32
0
SEQEND
8
0
0
POLYLINE
8
0
62
5
66
1
10
0
20
0
30
0
70
8
0
VERTEX
8
0
62
5
10
0
20
0.1
30
0
70
32
0
VERTEX
8
0
62
5
10
0
20
0.101
30
0
70
32
0
SEQEND
8
0
0
POLYLINE
8
0
62
5
66
1
10
0
20
0
30
0
70
8
0
VERTEX
8
0
62
5
10
0.11313708
20
0.1
30
0
70
32
0
VERTEX
8
0
62
5
10
0.11313708
20
0.101
30
0
70
32
0
SEQEND
8
0
0
POLYLINE
8
0
62
5
66
1
10
0
20
0
30
0
70
8
0
VERTEX
8
0
62
5
10
0.028284271
20
0.1
30
0
70
32
0
VERTEX
8
0
62
5
10
0.028284271
20
0.101
30
0
70
32
0
SEQEND
8
0
0
POLYLINE
8
0
62
5
66
1
10
0
20
0
30
0
70
8
0
VERTEX
8
0
62
5
10
0.056568542
20
0.1
30
0
70
32
0
VERTEX
8
0
62
5
10
0.056568542
20
0.101
30
0
70
32
0
SEQEND
8
0
0
POLYLINE
8
0
62
5
66
1
10
0
20
0
30
0
70
8
0
VERTEX
8
0
62
5
10
0.084852814
20
0.1
30
0
70
32
0
VERTEX
8
0
62
5
10
0.084852814
20
0.101
30
0
70
32
0
SEQEND
8
0
0
POLYLINE
8
0
62
5
66
1
10
0
20
0
30
0
70
8
0
VERTEX
8
0
62
5
10
0.22627417
20
0.1
30
0
70
32
0
VERTEX
8
0
62
5
10
0.22627417
20
0.101
30
0
70
32
0
SEQEND
8
0
0
POLYLINE
8
0
62
5
66
1
10
0
20
0
30
0
70
8
0
VERTEX
8
0
62
5
10
0.14142136
20
0.1
30
0
70
32
0
VERTEX
8
0
62
5
10
0.14142136
20
0.101
30
0
70
32
0
SEQEND
8
0
0
POLYLINE
8
0
62
5
66
1
10
0
20
0
30
0
70
8
0
VERTEX
8
0
62
5
10
0.16970563
20
0.1
30
0
70
32
0
VERTEX
8
0
62
5
10
0.16970563
20
0.101
30
0
70
32
0
SEQEND
8
0
0
POLYLINE
8
0
62
5
66
1
10
0
20
0
30
0
70
8
0
VERTEX
8
0
62
5
10
0.1979899
20
0.1
30
0
70
32
0
VERTEX
8
0
62
5
10
0.1979899
20
0.101
30
0
70
32
0
SEQEND
8
0
0
POLYLINE
8
0
62
5
66
1
10
0
20
0
30
0
70
8
0
VERTEX
8
0
62
5
10
-0.11313708
20
0.1
30
0
70
32
0
VERTEX
8
0
62
5
10
-0.11313708
20
0.101
30
0
70
32
0
SEQEND
8
0
0
POLYLINE
8
0
62
5
66
1
10
0
20
0
30
0
70
8
0
VERTEX
8
0
62
5
10
-0.084852814
20
0.1
30
0
70
32
0
VERTEX
8
0
62
5
10
-0.084852814
20
0.101
30
0
70
32
0
SEQEND
8
0
0
POLYLINE
8
0
62
5
66
1
10
0
20
0
30
0
70
8
0
VERTEX
8
0
62
5
10
-0.056568542
20
0.1
30
0
70
32
0
VERTEX
8
0
62
5
10
-0.056568542
20
0.101
30
0
70
32
0
SEQEND
8
0
0
POLYLINE
8
0
62
5
66
1
10
0
20
0
30
0
70
8
0
VERTEX
8
0
62
5
10
-0.028284271
20
0.1
30
0
70
32
0
VERTEX
8
0
62
5
10
-0.028284271
20
0.101
30
0
70
32
0
SEQEND
8
0
0
POLYLINE
8
0
62
5
66
1
10
0
20
0
30
0
70
8
0
VERTEX
8
0
62
5
10
0
20
0.101
30
0
70
32
0
VERTEX
8
0
62
5
10
0
20
0.17383741
30
0
70
32
0
SEQEND
8
0
0
POLYLINE
8
0
62
5
66
1
10
0
20
0
30
0
70
8
0
VERTEX
8
0
62
5
10
0.11313708
20
0.17383741
30
0
70
32
0
VERTEX
8
0
62
5
10
0.11313708
20
0.101
30
0
70
32
0
SEQEND
8
0
0
POLYLINE
8
0
62
5
66
1
10
0
20
0
30
0
70
8
0
VERTEX
8
0
62
5
10
0
20
0.11129458
30
0
70
32
0
VERTEX
8
0
62
5
10
0.028284271
20
0.11920935
30
0
70
32
0
VERTEX
8
0
62
5
10
0.056568542
20
0.10898782
30
0
70
32
0
VERTEX
8
0
62
5
10
0.084852814
20
0.10107306
30
0
70
32
0
VERTEX
8
0
62
5
10
0.11313708
20
0.11129458
30
0
70
32
0
SEQEND
8
0
0
POLYLINE
8
0
62
5
66
1
10
0
20
0
30
0
70
8
0
VERTEX
8
0
62
5
10
0
20
0.14771329
30
0
70
32
0
VERTEX
8
0
62
5
10
0.028284271
20
0.15562806
30
0
70
32
0
VERTEX
8
0
62
5
10
0.056568542
20
0.14540653
30
0
70
32
0
VERTEX
8
0
62
5
10
0.084852814
20
0.13749176
30
0
70
32
0
VERTEX
8
0
62
5
10
0.11313708
20
0.14771329
30
0
70
32
0
SEQEND
8
0
0
POLYLINE
8
0
62
5
66
1
10
0
20
0
30
0
70
8
0
VERTEX
8
0
62
5
10
0
20
0.12712412
30
0
70
32
0
VERTEX
8
0
62
5
10
0.028284271
20
0.11920935
30
0
70
32
0
VERTEX
8
0
62
5
10
0.056568542
20
0.12943088
30
0
70
32
0
VERTEX
8
0
62
5
10
0.084852814
20
0.13734565
30
0
70
32
0
VERTEX
8
0
62
5
10
0.11313708
20
0.12712412
30
0
70
32
0
SEQEND
8
0
0
POLYLINE
8
0
62
5
66
1
10
0
20
0
30
0
70
8
0
VERTEX
8
0
62
5
10
0
20
0.16354282
30
0
70
32
0
VERTEX
8
0
62
5
10
0.028284271
20
0.15562806
30
0
70
32
0
VERTEX
8
0
62
5
10
0.056568542
20
0.16584958
30
0
70
32
0
VERTEX
8
0
62
5
10
0.084852814
20
0.17376435
30
0
70
32
0
VERTEX
8
0
62
5
10
0.11313708
20
0.16354282
30
0
70
32
0
SEQEND
8
0
0
POLYLINE
8
0
62
30
66
1
10
0
20
0
30
0
70
8
0
VERTEX
8
0
62
30
10
0
20
0.11920935
30
0
70
32
0
VERTEX
8
0
62
30
10
0.11313708
20
0.11920935
30
0
70
32
0
SEQEND
8
0
0
POLYLINE
8
0
62
30
66
1
10
0
20
0
30
0
70
8
0
VERTEX
8
0
62
30
10
0
20
0.15562806
30
0
70
32
0
VERTEX
8
0
62
30
10
0.11313708
20
0.15562806
30
0
70
32
0
SEQEND
8
0
0
POLYLINE
8
0
62
30
66
1
10
0
20
0
30
0
70
8
0
VERTEX
8
0
62
30
10
0.028284271
20
0.11920935
30
0
70
32
0
VERTEX
8
0
62
30
10
0.028284271
20
0.11920935
30
0
70
32
0
SEQEND
8
0
0
POLYLINE
8
0
62
30
66
1
10
0
20
0
30
0
70
8
0
VERTEX
8
0
62
30
10
0.056568542
20
0.10898782
30
0
70
32
0
VERTEX
8
0
62
30
10
0.056568542
20
0.11920935
30
0
70
32
0
SEQEND
8
0
0
POLYLINE
8
0
62
30
66
1
10
0
20
0
30
0
70
8
0
VERTEX
8
0
62
30
10
0.084852814
20
0.10107306
30
0
70
32
0
VERTEX
8
0
62
30
10
0.084852814
20
0.11920935
30
0
70
32
0
SEQEND
8
0
0
POLYLINE
8
0
62
30
66
1
10
0
20
0
30
0
70
8
0
VERTEX
8
0
62
30
10
0.028284271
20
0.15562806
30
0
70
32
0
VERTEX
8
0
62
30
10
0.028284271
20
0.15562806
30
0
70
32
0
SEQEND
8
0
0
POLYLINE
8
0
62
30
66
1
10
0
20
0
30
0
70
8
0
VERTEX
8
0
62
30
10
0.056568542
20
0.14540653
30
0
70
32
0
VERTEX
8
0
62
30
10
0.056568542
20
0.15562806
30
0
70
32
0
SEQEND
8
0
0
POLYLINE
8
0
62
30
66
1
10
0
20
0
30
0
70
8
0
VERTEX
8
0
62
30
10
0.084852814
20
0.13749176
30
0
70
32
0
VERTEX
8
0
62
30
10
0.084852814
20
0.15562806
30
0
70
32
0
SEQEND
8
0
0
POLYLINE
8
0
62
5
66
1
10
0
20
0
30
0
70
8
0
VERTEX
8
0
62
5
10
0.028284271
20
0.101
30
0
70
32
0
VERTEX
8
0
62
5
10
0.028284271
20
0.11920935
30
0
70
32
0
SEQEND
8
0
0
POLYLINE
8
0
62
5
66
1
10
0
20
0
30
0
70
8
0
VERTEX
8
0
62
5
10
0.056568542
20
0.101
30
0
70
32
0
VERTEX
8
0
62
5
10
0.056568542
20
0.10898782
30
0
70
32
0
SEQEND
8
0
0
POLYLINE
8
0
62
5
66
1
10
0
20
0
30
0
70
8
0
VERTEX
8
0
62
5
10
0.084852814
20
0.101
30
0
70
32
0
VERTEX
8
0
62
5
10
0.084852814
20
0.10107306
30
0
70
32
0
SEQEND
8
0
0
POLYLINE
8
0
62
5
66
1
10
0
20
0
30
0
70
8
0
VERTEX
8
0
62
5
10
0.028284271
20
0.1374187
30
0
70
32
0
VERTEX
8
0
62
5
10
0.028284271
20
0.15562806
30
0
70
32
0
SEQEND
8
0
0
POLYLINE
8
0
62
5
66
1
10
0
20
0
30
0
70
8
0
VERTEX
8
0
62
5
10
0.056568542
20
0.1374187
30
0
70
32
0
VERTEX
8
0
62
5
10
0.056568542
20
0.14540653
30
0
70
32
0
SEQEND
8
0
0
POLYLINE
8
0
62
5
66
1
10
0
20
0
30
0
70
8
0
VERTEX
8
0
62
5
10
0.084852814
20
0.1374187
30
0
70
32
0
VERTEX
8
0
62
5
10
0.084852814
20
0.13749176
30
0
70
32
0
SEQEND
8
0
0
POLYLINE
8
0
62
5
66
1
10
0
20
0
30
0
70
8
0
VERTEX
8
0
62
5
10
0.028284271
20
0.11920935
30
0
70
32
0
VERTEX
8
0
62
5
10
0.028284271
20
0.1374187
30
0
70
32
0
SEQEND
8
0
0
POLYLINE
8
0
62
5
66
1
10
0
20
0
30
0
70
8
0
VERTEX
8
0
62
5
10
0.056568542
20
0.11920935
30
0
70
32
0
VERTEX
8
0
62
5
10
0.056568542
20
0.1374187
30
0
70
32
0
SEQEND
8
0
0
POLYLINE
8
0
62
5
66
1
10
0
20
0
30
0
70
8
0
VERTEX
8
0
62
5
10
0.084852814
20
0.11920935
30
0
70
32
0
VERTEX
8
0
62
5
10
0.084852814
20
0.1374187
30
0
70
32
0
SEQEND
8
0
0
POLYLINE
8
0
62
5
66
1
10
0
20
0
30
0
70
8
0
VERTEX
8
0
62
5
10
0.028284271
20
0.15562806
30
0
70
32
0
VERTEX
8
0
62
5
10
0.028284271
20
0.17383741
30
0
70
32
0
SEQEND
8
0
0
POLYLINE
8
0
62
5
66
1
10
0
20
0
30
0
70
8
0
VERTEX
8
0
62
5
10
0.056568542
20
0.15562806
30
0
70
32
0
VERTEX
8
0
62
5
10
0.056568542
20
0.17383741
30
0
70
32
0
SEQEND
8
0
0
POLYLINE
8
0
62
5
66
1
10
0
20
0
30
0
70
8
0
VERTEX
8
0
62
5
10
0.084852814
20
0.15562806
30
0
70
32
0
VERTEX
8
0
62
5
10
0.084852814
20
0.17383741
30
0
70
32
0
SEQEND
8
0
0
POLYLINE
8
0
62
30
66
1
10
0
20
0
30
0
70
8
0
VERTEX
8
0
62
30
10
0
20
0.11129458
30
0
70
32
0
VERTEX
8
0
62
30
10
0.0077050411
20
0.11920935
30
0
70
32
0
VERTEX
8
0
62
30
10
0
20
0.12712412
30
0
70
32
0
SEQEND
8
0
0
POLYLINE
8
0
62
30
66
1
10
0
20
0
30
0
70
8
0
VERTEX
8
0
62
30
10
0.028284271
20
0.11920935
30
0
70
32
0
VERTEX
8
0
62
30
10
0.028284271
20
0.11920935
30
0
70
32
0
VERTEX
8
0
62
30
10
0.028284271
20
0.11920935
30
0
70
32
0
SEQEND
8
0
0
POLYLINE
8
0
62
30
66
1
10
0
20
0
30
0
70
8
0
VERTEX
8
0
62
30
10
0.056568542
20
0.10898782
30
0
70
32
0
VERTEX
8
0
62
30
10
0.065143838
20
0.11920935
30
0
70
32
0
VERTEX
8
0
62
30
10
0.056568542
20
0.12943088
30
0
70
32
0
SEQEND
8
0
0
POLYLINE
8
0
62
30
66
1
10
0
20
0
30
0
70
8
0
VERTEX
8
0
62
30
10
0.084852814
20
0.10107306
30
0
70
32
0
VERTEX
8
0
62
30
10
0.095381324
20
0.11920935
30
0
70
32
0
VERTEX
8
0
62
30
10
0.084852814
20
0.13734565
30
0
70
32
0
SEQEND
8
0
0
POLYLINE
8
0
62
30
66
1
10
0
20
0
30
0
70
8
0
VERTEX
8
0
62
30
10
0
20
0.14771329
30
0
70
32
0
VERTEX
8
0
62
30
10
0.0077050411
20
0.15562806
30
0
70
32
0
VERTEX
8
0
62
30
10
0
20
0.16354282
30
0
70
32
0
SEQEND
8
0
0
POLYLINE
8
0
62
30
66
1
10
0
20
0
30
0
70
8
0
VERTEX
8
0
62
30
10
0.028284271
20
0.15562806
30
0
70
32
0
VERTEX
8
0
62
30
10
0.028284271
20
0.15562806
30
0
70
32
0
VERTEX
8
0
62
30
10
0.028284271
20
0.15562806
30
0
70
32
0
SEQEND
8
0
0
POLYLINE
8
0
62
30
66
1
10
0
20
0
30
0
70
8
0
VERTEX
8
0
62
30
10
0.056568542
20
0.14540653
30
0
70
32
0
VERTEX
8
0
62
30
10
0.065143838
20
0.15562806
30
0
70
32
0
VERTEX
8
0
62
30
10
0.056568542
20
0.16584958
30
0
70
32
0
SEQEND
8
0
0
POLYLINE
8
0
62
30
66
1
10
0
20
0
30
0
70
8
0
VERTEX
8
0
62
30
10
0.084852814
20
0.13749176
30
0
70
32
0
VERTEX
8
0
62
30
10
0.095381324
20
0.15562806
30
0
70
32
0
VERTEX
8
0
62
30
10
0.084852814
20
0.17376435
30
0
70
32
0
SEQEND
8
0
0
POLYLINE
8
0
62
5
66
1
10
0
20
0
30
0
70
8
0
VERTEX
8
0
62
5
10
0.22627417
20
0.17383741
30
0
70
32
0
VERTEX
8
0
62
5
10
0.22627417
20
0.101
30
0
70
32
0
SEQEND
8
0
0
POLYLINE
8
0
62
5
66
1
10
0
20
0
30
0
70
8
0
VERTEX
8
0
62
5
10
0.11313708
20
0.11129458
30
0
70
32
0
VERTEX
8
0
62
5
10
0.14142136
20
0.11920935
30
0
70
32
0
VERTEX
8
0
62
5
10
0.16970563
20
0.10898782
30
0
70
32
0
VERTEX
8
0
62
5
10
0.1979899
20
0.10107306
30
0
70
32
0
VERTEX
8
0
62
5
10
0.22627417
20
0.11129458
30
0
70
32
0
SEQEND
8
0
0
POLYLINE
8
0
62
5
66
1
10
0
20
0
30
0
70
8
0
VERTEX
8
0
62
5
10
0.11313708
20
0.14771329
30
0
70
32
0
VERTEX
8
0
62
5
10
0.14142136
20
0.15562806
30
0
70
32
0
VERTEX
8
0
62
5
10
0.16970563
20
0.14540653
30
0
70
32
0
VERTEX
8
0
62
5
10
0.1979899
20
0.13749176
30
0
70
32
0
VERTEX
8
0
62
5
10
0.22627417
20
0.14771329
30
0
70
32
0
SEQEND
8
0
0
POLYLINE
8
0
62
5
66
1
10
0
20
0
30
0
70
8
0
VERTEX
8
0
62
5
10
0.11313708
20
0.12712412
30
0
70
32
0
VERTEX
8
0
62
5
10
0.14142136
20
0.11920935
30
0
70
32
0
VERTEX
8
0
62
5
10
0.16970563
20
0.12943088
30
0
70
32
0
VERTEX
8
0
62
5
10
0.1979899
20
0.13734565
30
0
70
32
0
VERTEX
8
0
62
5
10
0.22627417
20
0.12712412
30
0
70
32
0
SEQEND
8
0
0
POLYLINE
8
0
62
5
66
1
10
0
20
0
30
0
70
8
0
VERTEX
8
0
62
5
10
0.11313708
20
0.16354282
30
0
70
32
0
VERTEX
8
0
62
5
10
0.14142136
20
0.15562806
30
0
70
32
0
VERTEX
8
0
62
5
10
0.16970563
20
0.16584958
30
0
70
32
0
VERTEX
8
0
62
5
10
0.1979899
20
0.17376435
30
0
70
32
0
VERTEX
8
0
62
5
10
0.22627417
20
0.16354282
30
0
70
32
0
SEQEND
8
0
0
POLYLINE
8
0
62
30
66
1
10
0
20
0
30
0
70
8
0
VERTEX
8
0
62
30
10
0.11313708
20
0.11920935
30
0
70
32
0
VERTEX
8
0
62
30
10
0.22627417
20
0.11920935
30
0
70
32
0
SEQEND
8
0
0
POLYLINE
8
0
62
30
66
1
10
0
20
0
30
0
70
8
0
VERTEX
8
0
62
30
10
0.11313708
20
0.15562806
30
0
70
32
0
VERTEX
8
0
62
30
10
0.22627417
20
0.15562806
30
0
70
32
0
SEQEND
8
0
0
POLYLINE
8
0
62
30
66
1
10
0
20
0
30
0
70
8
0
VERTEX
8
0
62
30
10
0.14142136
20
0.11920935
30
0
70
32
0
VERTEX
8
0
62
30
10
0.14142136
20
0.11920935
30
0
70
32
0
SEQEND
8
0
0
POLYLINE
8
0
62
30
66
1
10
0
20
0
30
0
70
8
0
VERTEX
8
0
62
30
10
0.16970563
20
0.10898782
30
0
70
32
0
VERTEX
8
0
62
30
10
0.16970563
20
0.11920935
30
0
70
32
0
SEQEND
8
0
0
POLYLINE
8
0
62
30
66
1
10
0
20
0
30
0
70
8
0
VERTEX
8
0
62
30
10
0.1979899
20
0.10107306
30
0
70
32
0
VERTEX
8
0
62
30
10
0.1979899
20
0.11920935
30
0
70
32
0
SEQEND
8
0
0
POLYLINE
8
0
62
30
66
1
10
0
20
0
30
0
70
8
0
VERTEX
8
0
62
30
10
0.14142136
20
0.15562806
30
0
70
32
0
VERTEX
8
0
62
30
10
0.14142136
20
0.15562806
30
0
70
32
0
SEQEND
8
0
0
POLYLINE
8
0
62
30
66
1
10
0
20
0
30
0
70
8
0
VERTEX
8
0
62
30
10
0.16970563
20
0.14540653
30
0
70
32
0
VERTEX
8
0
62
30
10
0.16970563
20
0.15562806
30
0
70
32
0
SEQEND
8
0
0
POLYLINE
8
0
62
30
66
1
10
0
20
0
30
0
70
8
0
VERTEX
8
0
62
30
10
0.1979899
20
0.13749176
30
0
70
32
0
VERTEX
8
0
62
30
10
0.1979899
20
0.15562806
30
0
70
32
0
SEQEND
8
0
0
POLYLINE
8
0
62
5
66
1
10
0
20
0
30
0
70
8
0
VERTEX
8
0
62
5
10
0.14142136
20
0.101
30
0
70
32
0
VERTEX
8
0
62
5
10
0.14142136
20
0.11920935
30
0
70
32
0
SEQEND
8
0
0
POLYLINE
8
0
62
5
66
1
10
0
20
0
30
0
70
8
0
VERTEX
8
0
62
5
10
0.16970563
20
0.101
30
0
70
32
0
VERTEX
8
0
62
5
10
0.16970563
20
0.10898782
30
0
70
32
0
SEQEND
8
0
0
POLYLINE
8
0
62
5
66
1
10
0
20
0
30
0
70
8
0
VERTEX
8
0
62
5
10
0.1979899
20
0.101
30
0
70
32
0
VERTEX
8
0
62
5
10
0.1979899
20
0.10107306
30
0
70
32
0
SEQEND
8
0
0
POLYLINE
8
0
62
5
66
1
10
0
20
0
30
0
70
8
0
VERTEX
8
0
62
5
10
0.14142136
20
0.1374187
30
0
70
32
0
VERTEX
8
0
62
5
10
0.14142136
20
0.15562806
30
0
70
32
0
SEQEND
8
0
0
POLYLINE
8
0
62
5
66
1
10
0
20
0
30
0
70
8
0
VERTEX
8
0
62
5
10
0.16970563
20
0.1374187
30
0
70
32
0
VERTEX
8
0
62
5
10
0.16970563
20
0.14540653
30
0
70
32
0
SEQEND
8
0
0
POLYLINE
8
0
62
5
66
1
10
0
20
0
30
0
70
8
0
VERTEX
8
0
62
5
10
0.1979899
20
0.1374187
30
0
70
32
0
VERTEX
8
0
62
5
10
0.1979899
20
0.13749176
30
0
70
32
0
SEQEND
8
0
0
POLYLINE
8
0
62
5
66
1
10
0
20
0
30
0
70
8
0
VERTEX
8
0
62
5
10
0.14142136
20
0.11920935
30
0
70
32
0
VERTEX
8
0
62
5
10
0.14142136
20
0.1374187
30
0
70
32
0
SEQEND
8
0
0
POLYLINE
8
0
62
5
66
1
10
0
20
0
30
0
70
8
0
VERTEX
8
0
62
5
10
0.16970563
20
0.11920935
30
0
70
32
0
VERTEX
8
0
62
5
10
0.16970563
20
0.1374187
30
0
70
32
0
SEQEND
8
0
0
POLYLINE
8
0
62
5
66
1
10
0
20
0
30
0
70
8
0
VERTEX
8
0
62
5
10
0.1979899
20
0.11920935
30
0
70
32
0
VERTEX
8
0
62
5
10
0.1979899
20
0.1374187
30
0
70
32
0
SEQEND
8
0
0
POLYLINE
8
0
62
5
66
1
10
0
20
0
30
0
70
8
0
VERTEX
8
0
62
5
10
0.14142136
20
0.15562806
30
0
70
32
0
VERTEX
8
0
62
5
10
0.14142136
20
0.17383741
30
0
70
32
0
SEQEND
8
0
0
POLYLINE
8
0
62
5
66
1
10
0
20
0
30
0
70
8
0
VERTEX
8
0
62
5
10
0.16970563
20
0.15562806
30
0
70
32
0
VERTEX
8
0
62
5
10
0.16970563
20
0.17383741
30
0
70
32
0
SEQEND
8
0
0
POLYLINE
8
0
62
5
66
1
10
0
20
0
30
0
70
8
0
VERTEX
8
0
62
5
10
0.1979899
20
0.15562806
30
0
70
32
0
VERTEX
8
0
62
5
10
0.1979899
20
0.17383741
30
0
70
32
0
SEQEND
8
0
0
POLYLINE
8
0
62
30
66
1
10
0
20
0
30
0
70
8
0
VERTEX
8
0
62
30
10
0.11313708
20
0.11129458
30
0
70
32
0
VERTEX
8
0
62
30
10
0.12084213
20
0.11920935
30
0
70
32
0
VERTEX
8
0
62
30
10
0.11313708
20
0.12712412
30
0
70
32
0
SEQEND
8
0
0
POLYLINE
8
0
62
30
66
1
10
0
20
0
30
0
70
8
0
VERTEX
8
0
62
30
10
0.14142136
20
0.11920935
30
0
70
32
0
VERTEX
8
0
62
30
10
0.14142136
20
0.11920935
30
0
70
32
0
VERTEX
8
0
62
30
10
0.14142136
20
0.11920935
30
0
70
32
0
SEQEND
8
0
0
POLYLINE
8
0
62
30
66
1
10
0
20
0
30
0
70
8
0
VERTEX
8
0
62
30
10
0.16970563
20
0.10898782
30
0
70
32
0
VERTEX
8
0
62
30
10
0.17828092
20
0.11920935
30
0
70
32
0
VERTEX
8
0
62
30
10
0.16970563
20
0.12943088
30
0
70
32
0
SEQEND
8
0
0
POLYLINE
8
0
62
30
66
1
10
0
20
0
30
0
70
8
0
VERTEX
8
0
62
30
10
0.1979899
20
0.10107306
30
0
70
32
0
VERTEX
8
0
62
30
10
0.20851841
20
0.11920935
30
0
70
32
0
VERTEX
8
0
62
30
10
0.1979899
20
0.13734565
30
0
70
32
0
SEQEND
8
0
0
POLYLINE
8
0
62
30
66
1
10
0
20
0
30
0
70
8
0
VERTEX
8
0
62
30
10
0.11313708
20
0.14771329
30
0
70
32
0
VERTEX
8
0
62
30
10
0.12084213
20
0.15562806
30
0
70
32
0
VERTEX
8
0
62
30
10
0.11313708
20
0.16354282
30
0
70
32
0
SEQEND
8
0
0
POLYLINE
8
0
62
30
66
1
10
0
20
0
30
0
70
8
0
VERTEX
8
0
62
30
10
0.14142136
20
0.15562806
30
0
70
32
0
VERTEX
8
0
62
30
10
0.14142136
20
0.15562806
30
0
70
32
0
VERTEX
8
0
62
30
10
0.14142136
20
0.15562806
30
0
70
32
0
SEQEND
8
0
0
POLYLINE
8
0
62
30
66
1
10
0
20
0
30
0
70
8
0
VERTEX
8
0
62
30
10
0.16970563
20
0.14540653
30
0
70
32
0
VERTEX
8
0
62
30
10
0.17828092
20
0.15562806
30
0
70
32
0
VERTEX
8
0
62
30
10
0.16970563
20
0.16584958
30
0
70
32
0
SEQEND
8
0
0
POLYLINE
8
0
62
30
66
1
10
0
20
0
30
0
70
8
0
VERTEX
8
0
62
30
10
0.1979899
20
0.13749176
30
0
70
32
0
VERTEX
8
0
62
30
10
0.20851841
20
0.15562806
30
0
70
32
0
VERTEX
8
0
62
30
10
0.1979899
20
0.17376435
30
0
70
32
0
SEQEND
8
0
0
POLYLINE
8
0
62
5
66
1
10
0
20
0
30
0
70
8
0
VERTEX
8
0
62
5
10
-0.11313708
20
0.101
30
0
70
32
0
VERTEX
8
0
62
5
10
-0.11313708
20
0.17383741
30
0
70
32
0
SEQEND
8
0
0
POLYLINE
8
0
62
5
66
1
10
0
20
0
30
0
70
8
0
VERTEX
8
0
62
5
10
-0.11313708
20
0.11129458
30
0
70
32
0
VERTEX
8
0
62
5
10
-0.084852814
20
0.11920935
30
0
70
32
0
VERTEX
8
0
62
5
10
-0.056568542
20
0.10898782
30
0
70
32
0
VERTEX
8
0
62
5
10
-0.028284271
20
0.10107306
30
0
70
32
0
VERTEX
8
0
62
5
10
0
20
0.11129458
30
0
70
32
0
SEQEND
8
0
0
POLYLINE
8
0
62
5
66
1
10
0
20
0
30
0
70
8
0
VERTEX
8
0
62
5
10
-0.11313708
20
0.14771329
30
0
70
32
0
VERTEX
8
0
62
5
10
-0.084852814
20
0.15562806
30
0
70
32
0
VERTEX
8
0
62
5
10
-0.056568542
20
0.14540653
30
0
70
32
0
VERTEX
8
0
62
5
10
-0.028284271
20
0.13749176
30
0
70
32
0
VERTEX
8
0
62
5
10
0
20
0.14771329
30
0
70
32
0
SEQEND
8
0
0
POLYLINE
8
0
62
5
66
1
10
0
20
0
30
0
70
8
0
VERTEX
8
0
62
5
10
-0.11313708
20
0.12712412
30
0
70
32
0
VERTEX
8
0
62
5
10
-0.084852814
20
0.11920935
30
0
70
32
0
VERTEX
8
0
62
5
10
-0.056568542
20
0.12943088
30
0
70
32
0
VERTEX
8
0
62
5
10
-0.028284271
20
0.13734565
30
0
70
32
0
VERTEX
8
0
62
5
10
0
20
0.12712412
30
0
70
32
0
SEQEND
8
0
0
POLYLINE
8
0
62
5
66
1
10
0
20
0
30
0
70
8
0
VERTEX
8
0
62
5
10
-0.11313708
20
0.16354282
30
0
70
32
0
VERTEX
8
0
62
5
10
-0.084852814
20
0.15562806
30
0
70
32
0
VERTEX
8
0
62
5
10
-0.056568542
20
0.16584958
30
0
70
32
0
VERTEX
8
0
62
5
10
-0.028284271
20
0.17376435
30
0
70
32
0
VERTEX
8
0
62
5
10
0
20
0.16354282
30
0
70
32
0
SEQEND
8
0
0
POLYLINE
8
0
62
30
66
1
10
0
20
0
30
0
70
8
0
VERTEX
8
0
62
30
10
-0.11313708
20
0.11920935
30
0
70
32
0
VERTEX
8
0
62
30
10
0
20
0.11920935
30
0
70
32
0
SEQEND
8
0
0
POLYLINE
8
0
62
30
66
1
10
0
20
0
30
0
70
8
0
VERTEX
8
0
62
30
10
-0.11313708
20
0.15562806
30
0
70
32
0
VERTEX
8
0
62
30
10
0
20
0.15562806
30
0
70
32
0
SEQEND
8
0
0
POLYLINE
8
0
62
30
66
1
10
0
20
0
30
0
70
8
0
VERTEX
8
0
62
30
10
-0.084852814
20
0.11920935
30
0
70
32
0
VERTEX
8
0
62
30
10
-0.084852814
20
0.11920935
30
0
70
32
0
SEQEND
8
0
0
POLYLINE
8
0
62
30
66
1
10
0
20
0
30
0
70
8
0
VERTEX
8
0
62
30
10
-0.056568542
20
0.10898782
30
0
70
32
0
VERTEX
8
0
62
30
10
-0.056568542
20
0.11920935
30
0
70
32
0
SEQEND
8
0
0
POLYLINE
8
0
62
30
66
1
10
0
20
0
30
0
70
8
0
VERTEX
8
0
62
30
10
-0.028284271
20
0.10107306
30
0
70
32
0
VERTEX
8
0
62
30
10
-0.028284271
20
0.11920935
30
0
70
32
0
SEQEND
8
0
0
POLYLINE
8
0
62
30
66
1
10
0
20
0
30
0
70
8
0
VERTEX
8
0
62
30
10
-0.084852814
20
0.15562806
30
0
70
32
0
VERTEX
8
0
62
30
10
-0.084852814
20
0.15562806
30
0
70
32
0
SEQEND
8
0
0
POLYLINE
8
0
62
30
66
1
10
0
20
0
30
0
70
8
0
VERTEX
8
0
62
30
10
-0.056568542
20
0.14540653
30
0
70
32
0
VERTEX
8
0
62
30
10
-0.056568542
20
0.15562806
30
0
70
32
0
SEQEND
8
0
0
POLYLINE
8
0
62
30
66
1
10
0
20
0
30
0
70
8
0
VERTEX
8
0
62
30
10
-0.028284271
20
0.13749176
30
0
70
32
0
VERTEX
8
0
62
30
10
-0.028284271
20
0.15562806
30
0
70
32
0
SEQEND
8
0
0
POLYLINE
8
0
62
5
66
1
10
0
20
0
30
0
70
8
0
VERTEX
8
0
62
5
10
-0.084852814
20
0.101
30
0
70
32
0
VERTEX
8
0
62
5
10
-0.084852814
20
0.11920935
30
0
70
32
0
SEQEND
8
0
0
POLYLINE
8
0
62
5
66
1
10
0
20
0
30
0
70
8
0
VERTEX
8
0
62
5
10
-0.056568542
20
0.101
30
0
70
32
0
VERTEX
8
0
62
5
10
-0.056568542
20
0.10898782
30
0
70
32
0
SEQEND
8
0
0
POLYLINE
8
0
62
5
66
1
10
0
20
0
30
0
70
8
0
VERTEX
8
0
62
5
10
-0.028284271
20
0.101
30
0
70
32
0
VERTEX
8
0
62
5
10
-0.028284271
20
0.10107306
30
0
70
32
0
SEQEND
8
0
0
POLYLINE
8
0
62
5
66
1
10
0
20
0
30
0
70
8
0
VERTEX
8
0
62
5
10
-0.084852814
20
0.1374187
30
0
70
32
0
VERTEX
8
0
62
5
10
-0.084852814
20
0.15562806
30
0
70
32
0
SEQEND
8
0
0
POLYLINE
8
0
62
5
66
1
10
0
20
0
30
0
70
8
0
VERTEX
8
0
62
5
10
-0.056568542
20
0.1374187
30
0
70
32
0
VERTEX
8
0
62
5
10
-0.056568542
20
0.14540653
30
0
70
32
0
SEQEND
8
0
0
POLYLINE
8
0
62
5
66
1
10
0
20
0
30
0
70
8
0
VERTEX
8
0
62
5
10
-0.028284271
20
0.1374187
30
0
70
32
0
VERTEX
8
0
62
5
10
-0.028284271
20
0.13749176
30
0
70
32
0
SEQEND
8
0
0
POLYLINE
8
0
62
5
66
1
10
0
20
0
30
0
70
8
0
VERTEX
8
0
62
5
10
-0.084852814
20
0.11920935
30
0
70
32
0
VERTEX
8
0
62
5
10
-0.084852814
20
0.1374187
30
0
70
32
0
SEQEND
8
0
0
POLYLINE
8
0
62
5
66
1
10
0
20
0
30
0
70
8
0
VERTEX
8
0
62
5
10
-0.056568542
20
0.11920935
30
0
70
32
0
VERTEX
8
0
62
5
10
-0.056568542
20
0.1374187
30
0
70
32
0
SEQEND
8
0
0
POLYLINE
8
0
62
5
66
1
10
0
20
0
30
0
70
8
0
VERTEX
8
0
62
5
10
-0.028284271
20
0.11920935
30
0
70
32
0
VERTEX
8
0
62
5
10
-0.028284271
20
0.1374187
30
0
70
32
0
SEQEND
8
0
0
POLYLINE
8
0
62
5
66
1
10
0
20
0
30
0
70
8
0
VERTEX
8
0
62
5
10
-0.084852814
20
0.15562806
30
0
70
32
0
VERTEX
8
0
62
5
10
-0.084852814
20
0.17383741
30
0
70
32
0
SEQEND
8
0
0
POLYLINE
8
0
62
5
66
1
10
0
20
0
30
0
70
8
0
VERTEX
8
0
62
5
10
-0.056568542
20
0.15562806
30
0
70
32
0
VERTEX
8
0
62
5
10
-0.056568542
20
0.17383741
30
0
70
32
0
SEQEND
8
0
0
POLYLINE
8
0
62
5
66
1
10
0
20
0
30
0
70
8
0
VERTEX
8
0
62
5
10
-0.028284271
20
0.15562806
30
0
70
32
0
VERTEX
8
0
62
5
10
-0.028284271
20
0.17383741
30
0
70
32
0
SEQEND
8
0
0
POLYLINE
8
0
62
30
66
1
10
0
20
0
30
0
70
8
0
VERTEX
8
0
62
30
10
-0.11313708
20
0.11129458
30
0
70
32
0
VERTEX
8
0
62
30
10
-0.10543204
20
0.11920935
30
0
70
32
0
VERTEX
8
0
62
30
10
-0.11313708
20
0.12712412
30
0
70
32
0
SEQEND
8
0
0
POLYLINE
8
0
62
30
66
1
10
0
20
0
30
0
70
8
0
VERTEX
8
0
62
30
10
-0.084852814
20
0.11920935
30
0
70
32
0
VERTEX
8
0
62
30
10
-0.084852814
20
0.11920935
30
0
70
32
0
VERTEX
8
0
62
30
10
-0.084852814
20
0.11920935
30
0
70
32
0
SEQEND
8
0
0
POLYLINE
8
0
62
30
66
1
10
0
20
0
30
0
70
8
0
VERTEX
8
0
62
30
10
-0.056568542
20
0.10898782
30
0
70
32
0
VERTEX
8
0
62
30
10
-0.047993247
20
0.11920935
30
0
70
32
0
VERTEX
8
0
62
30
10
-0.056568542
20
0.12943088
30
0
70
32
0
SEQEND
8
0
0
POLYLINE
8
0
62
30
66
1
10
0
20
0
30
0
70
8
0
VERTEX
8
0
62
30
10
-0.028284271
20
0.10107306
30
0
70
32
0
VERTEX
8
0
62
30
10
-0.017755761
20
0.11920935
30
0
70
32
0
VERTEX
8
0
62
30
10
-0.028284271
20
0.13734565
30
0
70
32
0
SEQEND
8
0
0
POLYLINE
8
0
62
30
66
1
10
0
20
0
30
0
70
8
0
VERTEX
8
0
62
30
10
-0.11313708
20
0.14771329
30
0
70
32
0
VERTEX
8
0
62
30
10
-0.10543204
20
0.15562806
30
0
70
32
0
VERTEX
8
0
62
30
10
-0.11313708
20
0.16354282
30
0
70
32
0
SEQEND
8
0
0
POLYLINE
8
0
62
30
66
1
10
0
20
0
30
0
70
8
0
VERTEX
8
0
62
30
10
-0.084852814
20
0.15562806
30
0
70
32
0
VERTEX
8
0
62
30
10
-0.084852814
20
0.15562806
30
0
70
32
0
VERTEX
8
0
62
30
10
-0.084852814
20
0.15562806
30
0
70
32
0
SEQEND
8
0
0
POLYLINE
8
0
62
30
66
1
10
0
20
0
30
0
70
8
0
VERTEX
8
0
62
30
10
-0.056568542
20
0.14540653
30
0
70
32
0
VERTEX
8
0
62
30
10
-0.047993247
20
0.15562806
30
0
70
32
0
VERTEX
8
0
62
30
10
-0.056568542
20
0.16584958
30
0
70
32
0
SEQEND
8
0
0
POLYLINE
8
0
62
30
66
1
10
0
20
0
30
0
70
8
0
VERTEX
8
0
62
30
10
-0.028284271
20
0.13749176
30
0
70
32
0
VERTEX
8
0
62
30
10
-0.017755761
20
0.15562806
30
0
70
32
0
VERTEX
8
0
62
30
10
-0.028284271
20
0.17376435
30
0
70
32
0
SEQEND
8
0
0
POLYLINE
8
0
62
30
66
1
10
0
20
0
30
0
70
8
0
VERTEX
8
0
62
30
10
0
20
0.20979246
30
0
70
32
0
VERTEX
8
0
62
30
10
0.11313708
20
0.20979246
30
0
70
32
0
SEQEND
8
0
0
POLYLINE
8
0
62
30
66
1
10
0
20
0
30
0
70
8
0
VERTEX
8
0
62
30
10
0
20
0.17383741
30
0
70
32
0
VERTEX
8
0
62
30
10
0.11313708
20
0.17383741
30
0
70
32
0
SEQEND
8
0
0
POLYLINE
8
0
62
5
66
1
10
0
20
0
30
0
70
8
0
VERTEX
8
0
62
5
10
0
20
0.17383741
30
0
70
32
0
VERTEX
8
0
62
5
10
0.0038176867
20
0.20979246
30
0
70
32
0
VERTEX
8
0
62
5
10
0.028284271
20
0.17383741
30
0
70
32
0
VERTEX
8
0
62
5
10
0.032101958
20
0.20979246
30
0
70
32
0
VERTEX
8
0
62
5
10
0.056568542
20
0.17383741
30
0
70
32
0
VERTEX
8
0
62
5
10
0.060386229
20
0.20979246
30
0
70
32
0
VERTEX
8
0
62
5
10
0.084852814
20
0.17383741
30
0
70
32
0
VERTEX
8
0
62
5
10
0.0886705
20
0.20979246
30
0
70
32
0
VERTEX
8
0
62
5
10
0.11313708
20
0.17383741
30
0
70
32
0
SEQEND
8
0
0
POLYLINE
8
0
62
5
66
1
10
0
20
0
30
0
70
8
0
VERTEX
8
0
62
5
10
0.028284271
20
0.17383741
30
0
70
32
0
VERTEX
8
0
62
5
10
0.028284271
20
0.17383741
30
0
70
32
0
SEQEND
8
0
0
POLYLINE
8
0
62
5
66
1
10
0
20
0
30
0
70
8
0
VERTEX
8
0
62
5
10
0.056568542
20
0.17383741
30
0
70
32
0
VERTEX
8
0
62
5
10
0.056568542
20
0.17383741
30
0
70
32
0
SEQEND
8
0
0
POLYLINE
8
0
62
5
66
1
10
0
20
0
30
0
70
8
0
VERTEX
8
0
62
5
10
0.084852814
20
0.17383741
30
0
70
32
0
VERTEX
8
0
62
5
10
0.084852814
20
0.17383741
30
0
70
32
0
SEQEND
8
0
0
POLYLINE
8
0
62
5
66
1
10
0
20
0
30
0
70
8
0
VERTEX
8
0
62
5
10
0.0038176867
20
0.20979246
30
0
70
32
0
VERTEX
8
0
62
5
10
0.0038176867
20
0.20979246
30
0
70
32
0
SEQEND
8
0
0
POLYLINE
8
0
62
5
66
1
10
0
20
0
30
0
70
8
0
VERTEX
8
0
62
5
10
0.032101958
20
0.20979246
30
0
70
32
0
VERTEX
8
0
62
5
10
0.032101958
20
0.20979246
30
0
70
32
0
SEQEND
8
0
0
POLYLINE
8
0
62
5
66
1
10
0
20
0
30
0
70
8
0
VERTEX
8
0
62
5
10
0.060386229
20
0.20979246
30
0
70
32
0
VERTEX
8
0
62
5
10
0.060386229
20
0.20979246
30
0
70
32
0
SEQEND
8
0
0
POLYLINE
8
0
62
5
66
1
10
0
20
0
30
0
70
8
0
VERTEX
8
0
62
5
10
0.0886705
20
0.20979246
30
0
70
32
0
VERTEX
8
0
62
5
10
0.0886705
20
0.20979246
30
0
70
32
0
SEQEND
8
0
0
POLYLINE
8
0
62
30
66
1
10
0
20
0
30
0
70
8
0
VERTEX
8
0
62
30
10
0.11313708
20
0.20979246
30
0
70
32
0
VERTEX
8
0
62
30
10
0.22627417
20
0.20979246
30
0
70
32
0
SEQEND
8
0
0
POLYLINE
8
0
62
30
66
1
10
0
20
0
30
0
70
8
0
VERTEX
8
0
62
30
10
0.11313708
20
0.17383741
30
0
70
32
0
VERTEX
8
0
62
30
10
0.22627417
20
0.17383741
30
0
70
32
0
SEQEND
8
0
0
POLYLINE
8
0
62
5
66
1
10
0
20
0
30
0
70
8
0
VERTEX
8
0
62
5
10
0.11313708
20
0.17383741
30
0
70
32
0
VERTEX
8
0
62
5
10
0.11695477
20
0.20979246
30
0
70
32
0
VERTEX
8
0
62
5
10
0.14142136
20
0.17383741
30
0
70
32
0
VERTEX
8
0
62
5
10
0.14523904
20
0.20979246
30
0
70
32
0
VERTEX
8
0
62
5
10
0.16970563
20
0.17383741
30
0
70
32
0
VERTEX
8
0
62
5
10
0.17352331
20
0.20979246
30
0
70
32
0
VERTEX
8
0
62
5
10
0.1979899
20
0.17383741
30
0
70
32
0
VERTEX
8
0
62
5
10
0.20180759
20
0.20979246
30
0
70
32
0
VERTEX
8
0
62
5
10
0.22627417
20
0.17383741
30
0
70
32
0
SEQEND
8
0
0
POLYLINE
8
0
62
5
66
1
10
0
20
0
30
0
70
8
0
VERTEX
8
0
62
5
10
0.14142136
20
0.17383741
30
0
70
32
0
VERTEX
8
0
62
5
10
0.14142136
20
0.17383741
30
0
70
32
0
SEQEND
8
0
0
POLYLINE
8
0
62
5
66
1
10
0
20
0
30
0
70
8
0
VERTEX
8
0
62
5
10
0.16970563
20
0.17383741
30
0
70
32
0
VERTEX
8
0
62
5
10
0.16970563
20
0.17383741
30
0
70
32
0
SEQEND
8
0
0
POLYLINE
8
0
62
5
66
1
10
0
20
0
30
0
70
8
0
VERTEX
8
0
62
5
10
0.1979899
20
0.17383741
30
0
70
32
0
VERTEX
8
0
62
5
10
0.1979899
20
0.17383741
30
0
70
32
0
SEQEND
8
0
0
POLYLINE
8
0
62
5
66
1
10
0
20
0
30
0
70
8
0
VERTEX
8
0
62
5
10
0.11695477
20
0.20979246
30
0
70
32
0
VERTEX
8
0
62
5
10
0.11695477
20
0.20979246
30
0
70
32
0
SEQEND
8
0
0
POLYLINE
8
0
62
5
66
1
10
0
20
0
30
0
70
8
0
VERTEX
8
0
62
5
10
0.14523904
20
0.20979246
30
0
70
32
0
VERTEX
8
0
62
5
10
0.14523904
20
0.20979246
30
0
70
32
0
SEQEND
8
0
0
POLYLINE
8
0
62
5
66
1
10
0
20
0
30
0
70
8
0
VERTEX
8
0
62
5
10
0.17352331
20
0.20979246
30
0
70
32
0
VERTEX
8
0
62
5
10
0.17352331
20
0.20979246
30
0
70
32
0
SEQEND
8
0
0
POLYLINE
8
0
62
5
66
1
10
0
20
0
30
0
70
8
0
VERTEX
8
0
62
5
10
0.20180759
20
0.20979246
30
0
70
32
0
VERTEX
8
0
62
5
10
0.20180759
20
0.20979246
30
0
70
32
0
SEQEND
8
0
0
POLYLINE
8
0
62
30
66
1
10
0
20
0
30
0
70
8
0
VERTEX
8
0
62
30
10
-0.11313708
20
0.20979246
30
0
70
32
0
VERTEX
8
0
62
30
10
0
20
0.20979246
30
0
70
32
0
SEQEND
8
0
0
POLYLINE
8
0
62
30
66
1
10
0
20
0
30
0
70
8
0
VERTEX
8
0
62
30
10
-0.11313708
20
0.17383741
30
0
70
32
0
VERTEX
8
0
62
30
10
0
20
0.17383741
30
0
70
32
0
SEQEND
8
0
0
POLYLINE
8
0
62
5
66
1
10
0
20
0
30
0
70
8
0
VERTEX
8
0
62
5
10
-0.11313708
20
0.17383741
30
0
70
32
0
VERTEX
8
0
62
5
10
-0.1093194
20
0.20979246
30
0
70
32
0
VERTEX
8
0
62
5
10
-0.084852814
20
0.17383741
30
0
70
32
0
VERTEX
8
0
62
5
10
-0.081035127
20
0.20979246
30
0
70
32
0
VERTEX
8
0
62
5
10
-0.056568542
20
0.17383741
30
0
70
32
0
VERTEX
8
0
62
5
10
-0.052750856
20
0.20979246
30
0
70
32
0
VERTEX
8
0
62
5
10
-0.028284271
20
0.17383741
30
0
70
32
0
VERTEX
8
0
62
5
10
-0.024466585
20
0.20979246
30
0
70
32
0
VERTEX
8
0
62
5
10
0
20
0.17383741
30
0
70
32
0
SEQEND
8
0
0
POLYLINE
8
0
62
5
66
1
10
0
20
0
30
0
70
8
0
VERTEX
8
0
62
5
10
-0.084852814
20
0.17383741
30
0
70
32
0
VERTEX
8
0
62
5
10
-0.084852814
20
0.17383741
30
0
70
32
0
SEQEND
8
0
0
POLYLINE
8
0
62
5
66
1
10
0
20
0
30
0
70
8
0
VERTEX
8
0
62
5
10
-0.056568542
20
0.17383741
30
0
70
32
0
VERTEX
8
0
62
5
10
-0.056568542
20
0.17383741
30
0
70
32
0
SEQEND
8
0
0
POLYLINE
8
0
62
5
66
1
10
0
20
0
30
0
70
8
0
VERTEX
8
0
62
5
10
-0.028284271
20
0.17383741
30
0
70
32
0
VERTEX
8
0
62
5
10
-0.028284271
20
0.17383741
30
0
70
32
0
SEQEND
8
0
0
POLYLINE
8
0
62
5
66
1
10
0
20
0
30
0
70
8
0
VERTEX
8
0
62
5
10
-0.1093194
20
0.20979246
30
0
70
32
0
VERTEX
8
0
62
5
10
-0.1093194
20
0.20979246
30
0
70
32
0
SEQEND
8
0
0
POLYLINE
8
0
62
5
66
1
10
0
20
0
30
0
70
8
0
VERTEX
8
0
62
5
10
-0.081035127
20
0.20979246
30
0
70
32
0
VERTEX
8
0
62
5
10
-0.081035127
20
0.20979246
30
0
70
32
0
SEQEND
8
0
0
POLYLINE
8
0
62
5
66
1
10
0
20
0
30
0
70
8
0
VERTEX
8
0
62
5
10
-0.052750856
20
0.20979246
30
0
70
32
0
VERTEX
8
0
62
5
10
-0.052750856
20
0.20979246
30
0
70
32
0
SEQEND
8
0
0
POLYLINE
8
0
62
5
66
1
10
0
20
0
30
0
70
8
0
VERTEX
8
0
62
5
10
-0.024466585
20
0.20979246
30
0
70
32
0
VERTEX
8
0
62
5
10
-0.024466585
20
0.20979246
30
0
70
32
0
SEQEND
8
0
0
POLYLINE
8
0
62
5
66
1
10
0
20
0
30
0
70
8
0
VERTEX
8
0
62
5
10
-0.024466585
20
0.20979246
30
0
70
32
0
VERTEX
8
0
62
5
10
-0.024466585
20
0.35311551
30
0
70
32
0
SEQEND
8
0
0
POLYLINE
8
0
62
5
66
1
10
0
20
0
30
0
70
8
0
VERTEX
8
0
62
5
10
0.0886705
20
0.20979246
30
0
70
32
0
VERTEX
8
0
62
5
10
0.0886705
20
0.35311551
30
0
70
32
0
SEQEND
8
0
0
POLYLINE
8
0
62
5
66
1
10
0
20
0
30
0
70
8
0
VERTEX
8
0
62
5
10
0.0038176867
20
0.20979246
30
0
70
32
0
VERTEX
8
0
62
5
10
0.0038176867
20
0.35311551
30
0
70
32
0
SEQEND
8
0
0
POLYLINE
8
0
62
5
66
1
10
0
20
0
30
0
70
8
0
VERTEX
8
0
62
5
10
0.032101958
20
0.20979246
30
0
70
32
0
VERTEX
8
0
62
5
10
0.032101958
20
0.35311551
30
0
70
32
0
SEQEND
8
0
0
POLYLINE
8
0
62
5
66
1
10
0
20
0
30
0
70
8
0
VERTEX
8
0
62
5
10
0.060386229
20
0.20979246
30
0
70
32
0
VERTEX
8
0
62
5
10
0.060386229
20
0.35311551
30
0
70
32
0
SEQEND
8
0
0
POLYLINE
8
0
62
5
66
1
10
0
20
0
30
0
70
8
0
VERTEX
8
0
62
5
10
0.20180759
20
0.20979246
30
0
70
32
0
VERTEX
8
0
62
5
10
0.20180759
20
0.35311551
30
0
70
32
0
SEQEND
8
0
0
POLYLINE
8
0
62
5
66
1
10
0
20
0
30
0
70
8
0
VERTEX
8
0
62
5
10
0.11695477
20
0.20979246
30
0
70
32
0
VERTEX
8
0
62
5
10
0.11695477
20
0.35311551
30
0
70
32
0
SEQEND
8
0
0
POLYLINE
8
0
62
5
66
1
10
0
20
0
30
0
70
8
0
VERTEX
8
0
62
5
10
0.14523904
20
0.20979246
30
0
70
32
0
VERTEX
8
0
62
5
10
0.14523904
20
0.35311551
30
0
70
32
0
SEQEND
8
0
0
POLYLINE
8
0
62
5
66
1
10
0
20
0
30
0
70
8
0
VERTEX
8
0
62
5
10
0.17352331
20
0.20979246
30
0
70
32
0
VERTEX
8
0
62
5
10
0.17352331
20
0.35311551
30
0
70
32
0
SEQEND
8
0
0
POLYLINE
8
0
62
5
66
1
10
0
20
0
30
0
70
8
0
VERTEX
8
0
62
5
10
-0.13760367
20
0.20979246
30
0
70
32
0
VERTEX
8
0
62
5
10
-0.13760367
20
0.35311551
30
0
70
32
0
SEQEND
8
0
0
POLYLINE
8
0
62
5
66
1
10
0
20
0
30
0
70
8
0
VERTEX
8
0
62
5
10
-0.1093194
20
0.20979246
30
0
70
32
0
VERTEX
8
0
62
5
10
-0.1093194
20
0.35311551
30
0
70
32
0
SEQEND
8
0
0
POLYLINE
8
0
62
5
66
1
10
0
20
0
30
0
70
8
0
VERTEX
8
0
62
5
10
-0.081035127
20
0.20979246
30
0
70
32
0
VERTEX
8
0
62
5
10
-0.081035127
20
0.35311551
30
0
70
32
0
SEQEND
8
0
0
POLYLINE
8
0
62
5
66
1
10
0
20
0
30
0
70
8
0
VERTEX
8
0
62
5
10
-0.052750856
20
0.20979246
30
0
70
32
0
VERTEX
8
0
62
5
10
-0.052750856
20
0.35311551
30
0
70
32
0
SEQEND
8
0
0
POLYLINE
8
0
62
5
66
1
10
0
20
0
30
0
70
8
0
VERTEX
8
0
62
5
10
-0.024466585
20
0.35311551
30
0
70
32
0
VERTEX
8
0
62
5
10
-0.024466585
20
0.45824635
30
0
70
32
0
SEQEND
8
0
0
POLYLINE
8
0
62
5
66
1
10
0
20
0
30
0
70
8
0
VERTEX
8
0
62
5
10
0.0886705
20
0.45824635
30
0
70
32
0
VERTEX
8
0
62
5
10
0.0886705
20
0.35311551
30
0
70
32
0
SEQEND
8
0
0
POLYLINE
8
0
62
5
66
1
10
0
20
0
30
0
70
8
0
VERTEX
8
0
62
5
10
-0.024466585
20
0.35985915
30
0
70
32
0
VERTEX
8
0
62
5
10
0.0038176867
20
0.3552301
30
0
70
32
0
VERTEX
8
0
62
5
10
0.032101958
20
0.37476917
30
0
70
32
0
VERTEX
8
0
62
5
10
0.060386229
20
0.37939822
30
0
70
32
0
VERTEX
8
0
62
5
10
0.0886705
20
0.35985915
30
0
70
32
0
SEQEND
8
0
0
POLYLINE
8
0
62
5
66
1
10
0
20
0
30
0
70
8
0
VERTEX
8
0
62
5
10
-0.024466585
20
0.41242457
30
0
70
32
0
VERTEX
8
0
62
5
10
0.0038176867
20
0.40779552
30
0
70
32
0
VERTEX
8
0
62
5
10
0.032101958
20
0.42733459
30
0
70
32
0
VERTEX
8
0
62
5
10
0.060386229
20
0.43196364
30
0
70
32
0
VERTEX
8
0
62
5
10
0.0886705
20
0.41242457
30
0
70
32
0
SEQEND
8
0
0
POLYLINE
8
0
62
5
66
1
10
0
20
0
30
0
70
8
0
VERTEX
8
0
62
5
10
-0.024466585
20
0.39893729
30
0
70
32
0
VERTEX
8
0
62
5
10
0.0038176867
20
0.40356634
30
0
70
32
0
VERTEX
8
0
62
5
10
0.032101958
20
0.38402727
30
0
70
32
0
VERTEX
8
0
62
5
10
0.060386229
20
0.37939822
30
0
70
32
0
VERTEX
8
0
62
5
10
0.0886705
20
0.39893729
30
0
70
32
0
SEQEND
8
0
0
POLYLINE
8
0
62
5
66
1
10
0
20
0
30
0
70
8
0
VERTEX
8
0
62
5
10
-0.024466585
20
0.45150271
30
0
70
32
0
VERTEX
8
0
62
5
10
0.0038176867
20
0.45613176
30
0
70
32
0
VERTEX
8
0
62
5
10
0.032101958
20
0.43659269
30
0
70
32
0
VERTEX
8
0
62
5
10
0.060386229
20
0.43196364
30
0
70
32
0
VERTEX
8
0
62
5
10
0.0886705
20
0.45150271
30
0
70
32
0
SEQEND
8
0
0
POLYLINE
8
0
62
30
66
1
10
0
20
0
30
0
70
8
0
VERTEX
8
0
62
30
10
-0.024466585
20
0.37939822
30
0
70
32
0
VERTEX
8
0
62
30
10
0.0886705
20
0.37939822
30
0
70
32
0
SEQEND
8
0
0
POLYLINE
8
0
62
30
66
1
10
0
20
0
30
0
70
8
0
VERTEX
8
0
62
30
10
-0.024466585
20
0.43196364
30
0
70
32
0
VERTEX
8
0
62
30
10
0.0886705
20
0.43196364
30
0
70
32
0
SEQEND
8
0
0
POLYLINE
8
0
62
30
66
1
10
0
20
0
30
0
70
8
0
VERTEX
8
0
62
30
10
0.0038176867
20
0.3552301
30
0
70
32
0
VERTEX
8
0
62
30
10
0.0038176867
20
0.37939822
30
0
70
32
0
SEQEND
8
0
0
POLYLINE
8
0
62
30
66
1
10
0
20
0
30
0
70
8
0
VERTEX
8
0
62
30
10
0.032101958
20
0.37476917
30
0
70
32
0
VERTEX
8
0
62
30
10
0.032101958
20
0.37939822
30
0
70
32
0
SEQEND
8
0
0
POLYLINE
8
0
62
30
66
1
10
0
20
0
30
0
70
8
0
VERTEX
8
0
62
30
10
0.060386229
20
0.37939822
30
0
70
32
0
VERTEX
8
0
62
30
10
0.060386229
20
0.37939822
30
0
70
32
0
SEQEND
8
0
0
POLYLINE
8
0
62
30
66
1
10
0
20
0
30
0
70
8
0
VERTEX
8
0
62
30
10
0.0038176867
20
0.40779552
30
0
70
32
0
VERTEX
8
0
62
30
10
0.0038176867
20
0.43196364
30
0
70
32
0
SEQEND
8
0
0
POLYLINE
8
0
62
30
66
1
10
0
20
0
30
0
70
8
0
VERTEX
8
0
62
30
10
0.032101958
20
0.42733459
30
0
70
32
0
VERTEX
8
0
62
30
10
0.032101958
20
0.43196364
30
0
70
32
0
SEQEND
8
0
0
POLYLINE
8
0
62
30
66
1
10
0
20
0
30
0
70
8
0
VERTEX
8
0
62
30
10
0.060386229
20
0.43196364
30
0
70
32
0
VERTEX
8
0
62
30
10
0.060386229
20
0.43196364
30
0
70
32
0
SEQEND
8
0
0
POLYLINE
8
0
62
5
66
1
10
0
20
0
30
0
70
8
0
VERTEX
8
0
62
5
10
0.0038176867
20
0.35311551
30
0
70
32
0
VERTEX
8
0
62
5
10
0.0038176867
20
0.3552301
30
0
70
32
0
SEQEND
8
0
0
POLYLINE
8
0
62
5
66
1
10
0
20
0
30
0
70
8
0
VERTEX
8
0
62
5
10
0.032101958
20
0.35311551
30
0
70
32
0
VERTEX
8
0
62
5
10
0.032101958
20
0.37476917
30
0
70
32
0
SEQEND
8
0
0
POLYLINE
8
0
62
5
66
1
10
0
20
0
30
0
70
8
0
VERTEX
8
0
62
5
10
0.060386229
20
0.35311551
30
0
70
32
0
VERTEX
8
0
62
5
10
0.060386229
20
0.37939822
30
0
70
32
0
SEQEND
8
0
0
POLYLINE
8
0
62
5
66
1
10
0
20
0
30
0
70
8
0
VERTEX
8
0
62
5
10
0.0038176867
20
0.40568093
30
0
70
32
0
VERTEX
8
0
62
5
10
0.0038176867
20
0.40779552
30
0
70
32
0
SEQEND
8
0
0
POLYLINE
8
0
62
5
66
1
10
0
20
0
30
0
70
8
0
VERTEX
8
0
62
5
10
0.032101958
20
0.40568093
30
0
70
32
0
VERTEX
8
0
62
5
10
0.032101958
20
0.42733459
30
0
70
32
0
SEQEND
8
0
0
POLYLINE
8
0
62
5
66
1
10
0
20
0
30
0
70
8
0
VERTEX
8
0
62
5
10
0.060386229
20
0.40568093
30
0
70
32
0
VERTEX
8
0
62
5
10
0.060386229
20
0.43196364
30
0
70
32
0
SEQEND
8
0
0
POLYLINE
8
0
62
5
66
1
10
0
20
0
30
0
70
8
0
VERTEX
8
0
62
5
10
0.0038176867
20
0.37939822
30
0
70
32
0
VERTEX
8
0
62
5
10
0.0038176867
20
0.40568093
30
0
70
32
0
SEQEND
8
0
0
POLYLINE
8
0
62
5
66
1
10
0
20
0
30
0
70
8
0
VERTEX
8
0
62
5
10
0.032101958
20
0.37939822
30
0
70
32
0
VERTEX
8
0
62
5
10
0.032101958
20
0.40568093
30
0
70
32
0
SEQEND
8
0
0
POLYLINE
8
0
62
5
66
1
10
0
20
0
30
0
70
8
0
VERTEX
8
0
62
5
10
0.060386229
20
0.37939822
30
0
70
32
0
VERTEX
8
0
62
5
10
0.060386229
20
0.40568093
30
0
70
32
0
SEQEND
8
0
0
POLYLINE
8
0
62
5
66
1
10
0
20
0
30
0
70
8
0
VERTEX
8
0
62
5
10
0.0038176867
20
0.43196364
30
0
70
32
0
VERTEX
8
0
62
5
10
0.0038176867
20
0.45824635
30
0
70
32
0
SEQEND
8
0
0
POLYLINE
8
0
62
5
66
1
10
0
20
0
30
0
70
8
0
VERTEX
8
0
62
5
10
0.032101958
20
0.43196364
30
0
70
32
0
VERTEX
8
0
62
5
10
0.032101958
20
0.45824635
30
0
70
32
0
SEQEND
8
0
0
POLYLINE
8
0
62
5
66
1
10
0
20
0
30
0
70
8
0
VERTEX
8
0
62
5
10
0.060386229
20
0.43196364
30
0
70
32
0
VERTEX
8
0
62
5
10
0.060386229
20
0.45824635
30
0
70
32
0
SEQEND
8
0
0
POLYLINE
8
0
62
30
66
1
10
0
20
0
30
0
70
8
0
VERTEX
8
0
62
30
10
-0.024466585
20
0.35985915
30
0
70
32
0
VERTEX
8
0
62
30
10
-0.013589675
20
0.37939822
30
0
70
32
0
VERTEX
8
0
62
30
10
-0.024466585
20
0.39893729
30
0
70
32
0
SEQEND
8
0
0
POLYLINE
8
0
62
30
66
1
10
0
20
0
30
0
70
8
0
VERTEX
8
0
62
30
10
0.0038176867
20
0.3552301
30
0
70
32
0
VERTEX
8
0
62
30
10
0.015740957
20
0.37939822
30
0
70
32
0
VERTEX
8
0
62
30
10
0.0038176867
20
0.40356634
30
0
70
32
0
SEQEND
8
0
0
POLYLINE
8
0
62
30
66
1
10
0
20
0
30
0
70
8
0
VERTEX
8
0
62
30
10
0.032101958
20
0.37476917
30
0
70
32
0
VERTEX
8
0
62
30
10
0.038578725
20
0.37939822
30
0
70
32
0
VERTEX
8
0
62
30
10
0.032101958
20
0.38402727
30
0
70
32
0
SEQEND
8
0
0
POLYLINE
8
0
62
30
66
1
10
0
20
0
30
0
70
8
0
VERTEX
8
0
62
30
10
0.060386229
20
0.37939822
30
0
70
32
0
VERTEX
8
0
62
30
10
0.060386229
20
0.37939822
30
0
70
32
0
VERTEX
8
0
62
30
10
0.060386229
20
0.37939822
30
0
70
32
0
SEQEND
8
0
0
POLYLINE
8
0
62
30
66
1
10
0
20
0
30
0
70
8
0
VERTEX
8
0
62
30
10
-0.024466585
20
0.41242457
30
0
70
32
0
VERTEX
8
0
62
30
10
-0.013589675
20
0.43196364
30
0
70
32
0
VERTEX
8
0
62
30
10
-0.024466585
20
0.45150271
30
0
70
32
0
SEQEND
8
0
0
POLYLINE
8
0
62
30
66
1
10
0
20
0
30
0
70
8
0
VERTEX
8
0
62
30
10
0.0038176867
20
0.40779552
30
0
70
32
0
VERTEX
8
0
62
30
10
0.015740957
20
0.43196364
30
0
70
32
0
VERTEX
8
0
62
30
10
0.0038176867
20
0.45613176
30
0
70
32
0
SEQEND
8
0
0
POLYLINE
8
0
62
30
66
1
10
0
20
0
30
0
70
8
0
VERTEX
8
0
62
30
10
0.032101958
20
0.42733459
30
0
70
32
0
VERTEX
8
0
62
30
10
0.038578725
20
0.43196364
30
0
70
32
0
VERTEX
8
0
62
30
10
0.032101958
20
0.43659269
30
0
70
32
0
SEQEND
8
0
0
POLYLINE
8
0
62
30
66
1
10
0
20
0
30
0
70
8
0
VERTEX
8
0
62
30
10
0.060386229
20
0.43196364
30
0
70
32
0
VERTEX
8
0
62
30
10
0.060386229
20
0.43196364
30
0
70
32
0
VERTEX
8
0
62
30
10
0.060386229
20
0.43196364
30
0
70
32
0
SEQEND
8
0
0
POLYLINE
8
0
62
5
66
1
10
0
20
0
30
0
70
8
0
VERTEX
8
0
62
5
10
0.20180759
20
0.45824635
30
0
70
32
0
VERTEX
8
0
62
5
10
0.20180759
20
0.35311551
30
0
70
32
0
SEQEND
8
0
0
POLYLINE
8
0
62
5
66
1
10
0
20
0
30
0
70
8
0
VERTEX
8
0
62
5
10
0.0886705
20
0.35985915
30
0
70
32
0
VERTEX
8
0
62
5
10
0.11695477
20
0.3552301
30
0
70
32
0
VERTEX
8
0
62
5
10
0.14523904
20
0.37476917
30
0
70
32
0
VERTEX
8
0
62
5
10
0.17352331
20
0.37939822
30
0
70
32
0
VERTEX
8
0
62
5
10
0.20180759
20
0.35985915
30
0
70
32
0
SEQEND
8
0
0
POLYLINE
8
0
62
5
66
1
10
0
20
0
30
0
70
8
0
VERTEX
8
0
62
5
10
0.0886705
20
0.41242457
30
0
70
32
0
VERTEX
8
0
62
5
10
0.11695477
20
0.40779552
30
0
70
32
0
VERTEX
8
0
62
5
10
0.14523904
20
0.42733459
30
0
70
32
0
VERTEX
8
0
62
5
10
0.17352331
20
0.43196364
30
0
70
32
0
VERTEX
8
0
62
5
10
0.20180759
20
0.41242457
30
0
70
32
0
SEQEND
8
0
0
POLYLINE
8
0
62
5
66
1
10
0
20
0
30
0
70
8
0
VERTEX
8
0
62
5
10
0.0886705
20
0.39893729
30
0
70
32
0
VERTEX
8
0
62
5
10
0.11695477
20
0.40356634
30
0
70
32
0
VERTEX
8
0
62
5
10
0.14523904
20
0.38402727
30
0
70
32
0
VERTEX
8
0
62
5
10
0.17352331
20
0.37939822
30
0
70
32
0
VERTEX
8
0
62
5
10
0.20180759
20
0.39893729
30
0
70
32
0
SEQEND
8
0
0
POLYLINE
8
0
62
5
66
1
10
0
20
0
30
0
70
8
0
VERTEX
8
0
62
5
10
0.0886705
20
0.45150271
30
0
70
32
0
VERTEX
8
0
62
5
10
0.11695477
20
0.45613176
30
0
70
32
0
VERTEX
8
0
62
5
10
0.14523904
20
0.43659269
30
0
70
32
0
VERTEX
8
0
62
5
10
0.17352331
20
0.43196364
30
0
70
32
0
VERTEX
8
0
62
5
10
0.20180759
20
0.45150271
30
0
70
32
0
SEQEND
8
0
0
POLYLINE
8
0
62
30
66
1
10
0
20
0
30
0
70
8
0
VERTEX
8
0
62
30
10
0.0886705
20
0.37939822
30
0
70
32
0
VERTEX
8
0
62
30
10
0.20180759
20
0.37939822
30
0
70
32
0
SEQEND
8
0
0
POLYLINE
8
0
62
30
66
1
10
0
20
0
30
0
70
8
0
VERTEX
8
0
62
30
10
0.0886705
20
0.43196364
30
0
70
32
0
VERTEX
8
0
62
30
10
0.20180759
20
0.43196364
30
0
70
32
0
SEQEND
8
0
0
POLYLINE
8
0
62
30
66
1
10
0
20
0
30
0
70
8
0
VERTEX
8
0
62
30
10
0.11695477
20
0.3552301
30
0
70
32
0
VERTEX
8
0
62
30
10
0.11695477
20
0.37939822
30
0
70
32
0
SEQEND
8
0
0
POLYLINE
8
0
62
30
66
1
10
0
20
0
30
0
70
8
0
VERTEX
8
0
62
30
10
0.14523904
20
0.37476917
30
0
70
32
0
VERTEX
8
0
62
30
10
0.14523904
20
0.37939822
30
0
70
32
0
SEQEND
8
0
0
POLYLINE
8
0
62
30
66
1
10
0
20
0
30
0
70
8
0
VERTEX
8
0
62
30
10
0.17352331
20
0.37939822
30
0
70
32
0
VERTEX
8
0
62
30
10
0.17352331
20
0.37939822
30
0
70
32
0
SEQEND
8
0
0
POLYLINE
8
0
62
30
66
1
10
0
20
0
30
0
70
8
0
VERTEX
8
0
62
30
10
0.11695477
20
0.40779552
30
0
70
32
0
VERTEX
8
0
62
30
10
0.11695477
20
0.43196364
30
0
70
32
0
SEQEND
8
0
0
POLYLINE
8
0
62
30
66
1
10
0
20
0
30
0
70
8
0
VERTEX
8
0
62
30
10
0.14523904
20
0.42733459
30
0
70
32
0
VERTEX
8
0
62
30
10
0.14523904
20
0.43196364
30
0
70
32
0
SEQEND
8
0
0
POLYLINE
8
0
62
30
66
1
10
0
20
0
30
0
70
8
0
VERTEX
8
0
62
30
10
0.17352331
20
0.43196364
30
0
70
32
0
VERTEX
8
0
62
30
10
0.17352331
20
0.43196364
30
0
70
32
0
SEQEND
8
0
0
POLYLINE
8
0
62
5
66
1
10
0
20
0
30
0
70
8
0
VERTEX
8
0
62
5
10
0.11695477
20
0.35311551
30
0
70
32
0
VERTEX
8
0
62
5
10
0.11695477
20
0.3552301
30
0
70
32
0
SEQEND
8
0
0
POLYLINE
8
0
62
5
66
1
10
0
20
0
30
0
70
8
0
VERTEX
8
0
62
5
10
0.14523904
20
0.35311551
30
0
70
32
0
VERTEX
8
0
62
5
10
0.14523904
20
0.37476917
30
0
70
32
0
SEQEND
8
0
0
POLYLINE
8
0
62
5
66
1
10
0
20
0
30
0
70
8
0
VERTEX
8
0
62
5
10
0.17352331
20
0.35311551
30
0
70
32
0
VERTEX
8
0
62
5
10
0.17352331
20
0.37939822
30
0
70
32
0
SEQEND
8
0
0
POLYLINE
8
0
62
5
66
1
10
0
20
0
30
0
70
8
0
VERTEX
8
0
62
5
10
0.11695477
20
0.40568093
30
0
70
32
0
VERTEX
8
0
62
5
10
0.11695477
20
0.40779552
30
0
70
32
0
SEQEND
8
0
0
POLYLINE
8
0
62
5
66
1
10
0
20
0
30
0
70
8
0
VERTEX
8
0
62
5
10
0.14523904
20
0.40568093
30
0
70
32
0
VERTEX
8
0
62
5
10
0.14523904
20
0.42733459
30
0
70
32
0
SEQEND
8
0
0
POLYLINE
8
0
62
5
66
1
10
0
20
0
30
0
70
8
0
VERTEX
8
0
62
5
10
0.17352331
20
0.40568093
30
0
70
32
0
VERTEX
8
0
62
5
10
0.17352331
20
0.43196364
30
0
70
32
0
SEQEND
8
0
0
POLYLINE
8
0
62
5
66
1
10
0
20
0
30
0
70
8
0
VERTEX
8
0
62
5
10
0.11695477
20
0.37939822
30
0
70
32
0
VERTEX
8
0
62
5
10
0.11695477
20
0.40568093
30
0
70
32
0
SEQEND
8
0
0
POLYLINE
8
0
62
5
66
1
10
0
20
0
30
0
70
8
0
VERTEX
8
0
62
5
10
0.14523904
20
0.37939822
30
0
70
32
0
VERTEX
8
0
62
5
10
0.14523904
20
0.40568093
30
0
70
32
0
SEQEND
8
0
0
POLYLINE
8
0
62
5
66
1
10
0
20
0
30
0
70
8
0
VERTEX
8
0
62
5
10
0.17352331
20
0.37939822
30
0
70
32
0
VERTEX
8
0
62
5
10
0.17352331
20
0.40568093
30
0
70
32
0
SEQEND
8
0
0
POLYLINE
8
0
62
5
66
1
10
0
20
0
30
0
70
8
0
VERTEX
8
0
62
5
10
0.11695477
20
0.43196364
30
0
70
32
0
VERTEX
8
0
62
5
10
0.11695477
20
0.45824635
30
0
70
32
0
SEQEND
8
0
0
POLYLINE
8
0
62
5
66
1
10
0
20
0
30
0
70
8
0
VERTEX
8
0
62
5
10
0.14523904
20
0.43196364
30
0
70
32
0
VERTEX
8
0
62
5
10
0.14523904
20
0.45824635
30
0
70
32
0
SEQEND
8
0
0
POLYLINE
8
0
62
5
66
1
10
0
20
0
30
0
70
8
0
VERTEX
8
0
62
5
10
0.17352331
20
0.43196364
30
0
70
32
0
VERTEX
8
0
62
5
10
0.17352331
20
0.45824635
30
0
70
32
0
SEQEND
8
0
0
POLYLINE
8
0
62
30
66
1
10
0
20
0
30
0
70
8
0
VERTEX
8
0
62
30
10
0.0886705
20
0.35985915
30
0
70
32
0
VERTEX
8
0
62
30
10
0.09954741
20
0.37939822
30
0
70
32
0
VERTEX
8
0
62
30
10
0.0886705
20
0.39893729
30
0
70
32
0
SEQEND
8
0
0
POLYLINE
8
0
62
30
66
1
10
0
20
0
30
0
70
8
0
VERTEX
8
0
62
30
10
0.11695477
20
0.3552301
30
0
70
32
0
VERTEX
8
0
62
30
10
0.12887804
20
0.37939822
30
0
70
32
0
VERTEX
8
0
62
30
10
0.11695477
20
0.40356634
30
0
70
32
0
SEQEND
8
0
0
POLYLINE
8
0
62
30
66
1
10
0
20
0
30
0
70
8
0
VERTEX
8
0
62
30
10
0.14523904
20
0.37476917
30
0
70
32
0
VERTEX
8
0
62
30
10
0.15171581
20
0.37939822
30
0
70
32
0
VERTEX
8
0
62
30
10
0.14523904
20
0.38402727
30
0
70
32
0
SEQEND
8
0
0
POLYLINE
8
0
62
30
66
1
10
0
20
0
30
0
70
8
0
VERTEX
8
0
62
30
10
0.17352331
20
0.37939822
30
0
70
32
0
VERTEX
8
0
62
30
10
0.17352331
20
0.37939822
30
0
70
32
0
VERTEX
8
0
62
30
10
0.17352331
20
0.37939822
30
0
70
32
0
SEQEND
8
0
0
POLYLINE
8
0
62
30
66
1
10
0
20
0
30
0
70
8
0
VERTEX
8
0
62
30
10
0.0886705
20
0.41242457
30
0
70
32
0
VERTEX
8
0
62
30
10
0.09954741
20
0.43196364
30
0
70
32
0
VERTEX
8
0
62
30
10
0.0886705
20
0.45150271
30
0
70
32
0
SEQEND
8
0
0
POLYLINE
8
0
62
30
66
1
10
0
20
0
30
0
70
8
0
VERTEX
8
0
62
30
10
0.11695477
20
0.40779552
30
0
70
32
0
VERTEX
8
0
62
30
10
0.12887804
20
0.43196364
30
0
70
32
0
VERTEX
8
0
62
30
10
0.11695477
20
0.45613176
30
0
70
32
0
SEQEND
8
0
0
POLYLINE
8
0
62
30
66
1
10
0
20
0
30
0
70
8
0
VERTEX
8
0
62
30
10
0.14523904
20
0.42733459
30
0
70
32
0
VERTEX
8
0
62
30
10
0.15171581
20
0.43196364
30
0
70
32
0
VERTEX
8
0
62
30
10
0.14523904
20
0.43659269
30
0
70
32
0
SEQEND
8
0
0
POLYLINE
8
0
62
30
66
1
10
0
20
0
30
0
70
8
0
VERTEX
8
0
62
30
10
0.17352331
20
0.43196364
30
0
70
32
0
VERTEX
8
0
62
30
10
0.17352331
20
0.43196364
30
0
70
32
0
VERTEX
8
0
62
30
10
0.17352331
20
0.43196364
30
0
70
32
0
SEQEND
8
0
0
POLYLINE
8
0
62
5
66
1
10
0
20
0
30
0
70
8
0
VERTEX
8
0
62
5
10
-0.13760367
20
0.35311551
30
0
70
32
0
VERTEX
8
0
62
5
10
-0.13760367
20
0.45824635
30
0
70
32
0
SEQEND
8
0
0
POLYLINE
8
0
62
5
66
1
10
0
20
0
30
0
70
8
0
VERTEX
8
0
62
5
10
-0.13760367
20
0.35985915
30
0
70
32
0
VERTEX
8
0
62
5
10
-0.1093194
20
0.3552301
30
0
70
32
0
VERTEX
8
0
62
5
10
-0.081035127
20
0.37476917
30
0
70
32
0
VERTEX
8
0
62
5
10
-0.052750856
20
0.37939822
30
0
70
32
0
VERTEX
8
0
62
5
10
-0.024466585
20
0.35985915
30
0
70
32
0
SEQEND
8
0
0
POLYLINE
8
0
62
5
66
1
10
0
20
0
30
0
70
8
0
VERTEX
8
0
62
5
10
-0.13760367
20
0.41242457
30
0
70
32
0
VERTEX
8
0
62
5
10
-0.1093194
20
0.40779552
30
0
70
32
0
VERTEX
8
0
62
5
10
-0.081035127
20
0.42733459
30
0
70
32
0
VERTEX
8
0
62
5
10
-0.052750856
20
0.43196364
30
0
70
32
0
VERTEX
8
0
62
5
10
-0.024466585
20
0.41242457
30
0
70
32
0
SEQEND
8
0
0
POLYLINE
8
0
62
5
66
1
10
0
20
0
30
0
70
8
0
VERTEX
8
0
62
5
10
-0.13760367
20
0.39893729
30
0
70
32
0
VERTEX
8
0
62
5
10
-0.1093194
20
0.40356634
30
0
70
32
0
VERTEX
8
0
62
5
10
-0.081035127
20
0.38402727
30
0
70
32
0
VERTEX
8
0
62
5
10
-0.052750856
20
0.37939822
30
0
70
32
0
VERTEX
8
0
62
5
10
-0.024466585
20
0.39893729
30
0
70
32
0
SEQEND
8
0
0
POLYLINE
8
0
62
5
66
1
10
0
20
0
30
0
70
8
0
VERTEX
8
0
62
5
10
-0.13760367
20
0.45150271
30
0
70
32
0
VERTEX
8
0
62
5
10
-0.1093194
20
0.45613176
30
0
70
32
0
VERTEX
8
0
62
5
10
-0.081035127
20
0.43659269
30
0
70
32
0
VERTEX
8
0
62
5
10
-0.052750856
20
0.43196364
30
0
70
32
0
VERTEX
8
0
62
5
10
-0.024466585
20
0.45150271
30
0
70
32
0
SEQEND
8
0
0
POLYLINE
8
0
62
30
66
1
10
0
20
0
30
0
70
8
0
VERTEX
8
0
62
30
10
-0.13760367
20
0.37939822
30
0
70
32
0
VERTEX
8
0
62
30
10
-0.024466585
20
0.37939822
30
0
70
32
0
SEQEND
8
0
0
POLYLINE
8
0
62
30
66
1
10
0
20
0
30
0
70
8
0
VERTEX
8
0
62
30
10
-0.13760367
20
0.43196364
30
0
70
32
0
VERTEX
8
0
62
30
10
-0.024466585
20
0.43196364
30
0
70
32
0
SEQEND
8
0
0
POLYLINE
8
0
62
30
66
1
10
0
20
0
30
0
70
8
0
VERTEX
8
0
62
30
10
-0.1093194
20
0.3552301
30
0
70
32
0
VERTEX
8
0
62
30
10
-0.1093194
20
0.37939822
30
0
70
32
0
SEQEND
8
0
0
POLYLINE
8
0
62
30
66
1
10
0
20
0
30
0
70
8
0
VERTEX
8
0
62
30
10
-0.081035127
20
0.37476917
30
0
70
32
0
VERTEX
8
0
62
30
10
-0.081035127
20
0.37939822
30
0
70
32
0
SEQEND
8
0
0
POLYLINE
8
0
62
30
66
1
10
0
20
0
30
0
70
8
0
VERTEX
8
0
62
30
10
-0.052750856
20
0.37939822
30
0
70
32
0
VERTEX
8
0
62
30
10
-0.052750856
20
0.37939822
30
0
70
32
0
SEQEND
8
0
0
POLYLINE
8
0
62
30
66
1
10
0
20
0
30
0
70
8
0
VERTEX
8
0
62
30
10
-0.1093194
20
0.40779552
30
0
70
32
0
VERTEX
8
0
62
30
10
-0.1093194
20
0.43196364
30
0
70
32
0
SEQEND
8
0
0
POLYLINE
8
0
62
30
66
1
10
0
20
0
30
0
70
8
0
VERTEX
8
0
62
30
10
-0.081035127
20
0.42733459
30
0
70
32
0
VERTEX
8
0
62
30
10
-0.081035127
20
0.43196364
30
0
70
32
0
SEQEND
8
0
0
POLYLINE
8
0
62
30
66
1
10
0
20
0
30
0
70
8
0
VERTEX
8
0
62
30
10
-0.052750856
20
0.43196364
30
0
70
32
0
VERTEX
8
0
62
30
10
-0.052750856
20
0.43196364
30
0
70
32
0
SEQEND
8
0
0
POLYLINE
8
0
62
5
66
1
10
0
20
0
30
0
70
8
0
VERTEX
8
0
62
5
10
-0.1093194
20
0.35311551
30
0
70
32
0
VERTEX
8
0
62
5
10
-0.1093194
20
0.3552301
30
0
70
32
0
SEQEND
8
0
0
POLYLINE
8
0
62
5
66
1
10
0
20
0
30
0
70
8
0
VERTEX
8
0
62
5
10
-0.081035127
20
0.35311551
30
0
70
32
0
VERTEX
8
0
62
5
10
-0.081035127
20
0.37476917
30
0
70
32
0
SEQEND
8
0
0
POLYLINE
8
0
62
5
66
1
10
0
20
0
30
0
70
8
0
VERTEX
8
0
62
5
10
-0.052750856
20
0.35311551
30
0
70
32
0
VERTEX
8
0
62
5
10
-0.052750856
20
0.37939822
30
0
70
32
0
SEQEND
8
0
0
POLYLINE
8
0
62
5
66
1
10
0
20
0
30
0
70
8
0
VERTEX
8
0
62
5
10
-0.1093194
20
0.40568093
30
0
70
32
0
VERTEX
8
0
62
5
10
-0.1093194
20
0.40779552
30
0
70
32
0
SEQEND
8
0
0
POLYLINE
8
0
62
5
66
1
10
0
20
0
30
0
70
8
0
VERTEX
8
0
62
5
10
-0.081035127
20
0.40568093
30
0
70
32
0
VERTEX
8
0
62
5
10
-0.081035127
20
0.42733459
30
0
70
32
0
SEQEND
8
0
0
POLYLINE
8
0
62
5
66
1
10
0
20
0
30
0
70
8
0
VERTEX
8
0
62
5
10
-0.052750856
20
0.40568093
30
0
70
32
0
VERTEX
8
0
62
5
10
-0.052750856
20
0.43196364
30
0
70
32
0
SEQEND
8
0
0
POLYLINE
8
0
62
5
66
1
10
0
20
0
30
0
70
8
0
VERTEX
8
0
62
5
10
-0.1093194
20
0.37939822
30
0
70
32
0
VERTEX
8
0
62
5
10
-0.1093194
20
0.40568093
30
0
70
32
0
SEQEND
8
0
0
POLYLINE
8
0
62
5
66
1
10
0
20
0
30
0
70
8
0
VERTEX
8
0
62
5
10
-0.081035127
20
0.37939822
30
0
70
32
0
VERTEX
8
0
62
5
10
-0.081035127
20
0.40568093
30
0
70
32
0
SEQEND
8
0
0
POLYLINE
8
0
62
5
66
1
10
0
20
0
30
0
70
8
0
VERTEX
8
0
62
5
10
-0.052750856
20
0.37939822
30
0
70
32
0
VERTEX
8
0
62
5
10
-0.052750856
20
0.40568093
30
0
70
32
0
SEQEND
8
0
0
POLYLINE
8
0
62
5
66
1
10
0
20
0
30
0
70
8
0
VERTEX
8
0
62
5
10
-0.1093194
20
0.43196364
30
0
70
32
0
VERTEX
8
0
62
5
10
-0.1093194
20
0.45824635
30
0
70
32
0
SEQEND
8
0
0
POLYLINE
8
0
62
5
66
1
10
0
20
0
30
0
70
8
0
VERTEX
8
0
62
5
10
-0.081035127
20
0.43196364
30
0
70
32
0
VERTEX
8
0
62
5
10
-0.081035127
20
0.45824635
30
0
70
32
0
SEQEND
8
0
0
POLYLINE
8
0
62
5
66
1
10
0
20
0
30
0
70
8
0
VERTEX
8
0
62
5
10
-0.052750856
20
0.43196364
30
0
70
32
0
VERTEX
8
0
62
5
10
-0.052750856
20
0.45824635
30
0
70
32
0
SEQEND
8
0
0
POLYLINE
8
0
62
30
66
1
10
0
20
0
30
0
70
8
0
VERTEX
8
0
62
30
10
-0.13760367
20
0.35985915
30
0
70
32
0
VERTEX
8
0
62
30
10
-0.12672676
20
0.37939822
30
0
70
32
0
VERTEX
8
0
62
30
10
-0.13760367
20
0.39893729
30
0
70
32
0
SEQEND
8
0
0
POLYLINE
8
0
62
30
66
1
10
0
20
0
30
0
70
8
0
VERTEX
8
0
62
30
10
-0.1093194
20
0.3552301
30
0
70
32
0
VERTEX
8
0
62
30
10
-0.097396128
20
0.37939822
30
0
70
32
0
VERTEX
8
0
62
30
10
-0.1093194
20
0.40356634
30
0
70
32
0
SEQEND
8
0
0
POLYLINE
8
0
62
30
66
1
10
0
20
0
30
0
70
8
0
VERTEX
8
0
62
30
10
-0.081035127
20
0.37476917
30
0
70
32
0
VERTEX
8
0
62
30
10
-0.07455836
20
0.37939822
30
0
70
32
0
VERTEX
8
0
62
30
10
-0.081035127
20
0.38402727
30
0
70
32
0
SEQEND
8
0
0
POLYLINE
8
0
62
30
66
1
10
0
20
0
30
0
70
8
0
VERTEX
8
0
62
30
10
-0.052750856
20
0.37939822
30
0
70
32
0
VERTEX
8
0
62
30
10
-0.052750856
20
0.37939822
30
0
70
32
0
VERTEX
8
0
62
30
10
-0.052750856
20
0.37939822
30
0
70
32
0
SEQEND
8
0
0
POLYLINE
8
0
62
30
66
1
10
0
20
0
30
0
70
8
0
VERTEX
8
0
62
30
10
-0.13760367
20
0.41242457
30
0
70
32
0
VERTEX
8
0
62
30
10
-0.12672676
20
0.43196364
30
0
70
32
0
VERTEX
8
0
62
30
10
-0.13760367
20
0.45150271
30
0
70
32
0
SEQEND
8
0
0
POLYLINE
8
0
62
30
66
1
10
0
20
0
30
0
70
8
0
VERTEX
8
0
62
30
10
-0.1093194
20
0.40779552
30
0
70
32
0
VERTEX
8
0
62
30
10
-0.097396128
20
0.43196364
30
0
70
32
0
VERTEX
8
0
62
30
10
-0.1093194
20
0.45613176
30
0
70
32
0
SEQEND
8
0
0
POLYLINE
8
0
62
30
66
1
10
0
20
0
30
0
70
8
0
VERTEX
8
0
62
30
10
-0.081035127
20
0.42733459
30
0
70
32
0
VERTEX
8
0
62
30
10
-0.07455836
20
0.43196364
30
0
70
32
0
VERTEX
8
0
62
30
10
-0.081035127
20
0.43659269
30
0
70
32
0
SEQEND
8
0
0
POLYLINE
8
0
62
30
66
1
10
0
20
0
30
0
70
8
0
VERTEX
8
0
62
30
10
-0.052750856
20
0.43196364
30
0
70
32
0
VERTEX
8
0
62
30
10
-0.052750856
20
0.43196364
30
0
70
32
0
VERTEX
8
0
62
30
10
-0.052750856
20
0.43196364
30
0
70
32
0
SEQEND
8
0
0
POLYLINE
8
0
62
5
66
1
10
0
20
0
30
0
70
8
0
VERTEX
8
0
62
5
10
-0.024466585
20
0.45824635
30
0
70
32
0
VERTEX
8
0
62
5
10
-0.024466585
20
0.49824635
30
0
70
32
0
SEQEND
8
0
0
POLYLINE
8
0
62
5
66
1
10
0
20
0
30
0
70
8
0
VERTEX
8
0
62
5
10
0.0886705
20
0.49824635
30
0
70
32
0
VERTEX
8
0
62
5
10
0.0886705
20
0.45824635
30
0
70
32
0
SEQEND
8
0
0
POLYLINE
8
0
62
5
66
1
10
0
20
0
30
0
70
8
0
VERTEX
8
0
62
5
10
-0.024466585
20
0.45824635
30
0
70
32
0
VERTEX
8
0
62
5
10
0.0886705
20
0.45824635
30
0
70
32
0
SEQEND
8
0
0
POLYLINE
8
0
62
5
66
1
10
0
20
0
30
0
70
8
0
VERTEX
8
0
62
5
10
-0.024466585
20
0.49824635
30
0
70
32
0
VERTEX
8
0
62
5
10
0.0886705
20
0.49824635
30
0
70
32
0
SEQEND
8
0
0
POLYLINE
8
0
62
5
66
1
10
0
20
0
30
0
70
8
0
VERTEX
8
0
62
5
10
0.0038176867
20
0.45824635
30
0
70
32
0
VERTEX
8
0
62
5
10
0.0038176867
20
0.45824635
30
0
70
32
0
SEQEND
8
0
0
POLYLINE
8
0
62
5
66
1
10
0
20
0
30
0
70
8
0
VERTEX
8
0
62
5
10
0.032101958
20
0.45824635
30
0
70
32
0
VERTEX
8
0
62
5
10
0.032101958
20
0.45824635
30
0
70
32
0
SEQEND
8
0
0
POLYLINE
8
0
62
5
66
1
10
0
20
0
30
0
70
8
0
VERTEX
8
0
62
5
10
0.060386229
20
0.45824635
30
0
70
32
0
VERTEX
8
0
62
5
10
0.060386229
20
0.45824635
30
0
70
32
0
SEQEND
8
0
0
POLYLINE
8
0
62
5
66
1
10
0
20
0
30
0
70
8
0
VERTEX
8
0
62
5
10
0.0038176867
20
0.49824635
30
0
70
32
0
VERTEX
8
0
62
5
10
0.0038176867
20
0.49824635
30
0
70
32
0
SEQEND
8
0
0
POLYLINE
8
0
62
5
66
1
10
0
20
0
30
0
70
8
0
VERTEX
8
0
62
5
10
0.032101958
20
0.49824635
30
0
70
32
0
VERTEX
8
0
62
5
10
0.032101958
20
0.49824635
30
0
70
32
0
SEQEND
8
0
0
POLYLINE
8
0
62
5
66
1
10
0
20
0
30
0
70
8
0
VERTEX
8
0
62
5
10
0.060386229
20
0.49824635
30
0
70
32
0
VERTEX
8
0
62
5
10
0.060386229
20
0.49824635
30
0
70
32
0
SEQEND
8
0
0
POLYLINE
8
0
62
30
66
1
10
0
20
0
30
0
70
8
0
VERTEX
8
0
62
30
10
-0.024466585
20
0.49824635
30
0
70
32
0
VERTEX
8
0
62
30
10
0.0038176867
20
0.45824635
30
0
70
32
0
SEQEND
8
0
0
POLYLINE
8
0
62
30
66
1
10
0
20
0
30
0
70
8
0
VERTEX
8
0
62
30
10
0.0038176867
20
0.49824635
30
0
70
32
0
VERTEX
8
0
62
30
10
-0.024466585
20
0.45824635
30
0
70
32
0
SEQEND
8
0
0
POLYLINE
8
0
62
30
66
1
10
0
20
0
30
0
70
8
0
VERTEX
8
0
62
30
10
0.032101958
20
0.49824635
30
0
70
32
0
VERTEX
8
0
62
30
10
0.060386229
20
0.45824635
30
0
70
32
0
SEQEND
8
0
0
POLYLINE
8
0
62
30
66
1
10
0
20
0
30
0
70
8
0
VERTEX
8
0
62
30
10
0.060386229
20
0.49824635
30
0
70
32
0
VERTEX
8
0
62
30
10
0.032101958
20
0.45824635
30
0
70
32
0
SEQEND
8
0
0
POLYLINE
8
0
62
30
66
1
10
0
20
0
30
0
70
8
0
VERTEX
8
0
62
30
10
0.0038176867
20
0.47824635
30
0
70
32
0
VERTEX
8
0
62
30
10
0.032101958
20
0.47824635
30
0
70
32
0
SEQEND
8
0
0
POLYLINE
8
0
62
30
66
1
10
0
20
0
30
0
70
8
0
VERTEX
8
0
62
30
10
0.060386229
20
0.47824635
30
0
70
32
0
VERTEX
8
0
62
30
10
0.0886705
20
0.47824635
30
0
70
32
0
SEQEND
8
0
0
POLYLINE
8
0
62
5
66
1
10
0
20
0
30
0
70
8
0
VERTEX
8
0
62
5
10
-0.024466585
20
0.47824635
30
0
70
32
0
VERTEX
8
0
62
5
10
-0.010324449
20
0.47824635
30
0
70
32
0
SEQEND
8
0
0
POLYLINE
8
0
62
5
66
1
10
0
20
0
30
0
70
8
0
VERTEX
8
0
62
5
10
0.032101958
20
0.47824635
30
0
70
32
0
VERTEX
8
0
62
5
10
0.046244094
20
0.47824635
30
0
70
32
0
SEQEND
8
0
0
POLYLINE
8
0
62
5
66
1
10
0
20
0
30
0
70
8
0
VERTEX
8
0
62
5
10
-0.010324449
20
0.47824635
30
0
70
32
0
VERTEX
8
0
62
5
10
0.0038176867
20
0.47824635
30
0
70
32
0
SEQEND
8
0
0
POLYLINE
8
0
62
5
66
1
10
0
20
0
30
0
70
8
0
VERTEX
8
0
62
5
10
0.046244094
20
0.47824635
30
0
70
32
0
VERTEX
8
0
62
5
10
0.060386229
20
0.47824635
30
0
70
32
0
SEQEND
8
0
0
POLYLINE
8
0
62
5
66
1
10
0
20
0
30
0
70
8
0
VERTEX
8
0
62
5
10
0.0038176867
20
0.45824635
30
0
70
32
0
VERTEX
8
0
62
5
10
0.0038176867
20
0.49824635
30
0
70
32
0
SEQEND
8
0
0
POLYLINE
8
0
62
5
66
1
10
0
20
0
30
0
70
8
0
VERTEX
8
0
62
5
10
0.032101958
20
0.45824635
30
0
70
32
0
VERTEX
8
0
62
5
10
0.032101958
20
0.49824635
30
0
70
32
0
SEQEND
8
0
0
POLYLINE
8
0
62
5
66
1
10
0
20
0
30
0
70
8
0
VERTEX
8
0
62
5
10
0.060386229
20
0.45824635
30
0
70
32
0
VERTEX
8
0
62
5
10
0.060386229
20
0.49824635
30
0
70
32
0
SEQEND
8
0
0
POLYLINE
8
0
62
5
66
1
10
0
20
0
30
0
70
8
0
VERTEX
8
0
62
5
10
-0.024466585
20
0.45824635
30
0
70
32
0
VERTEX
8
0
62
5
10
-0.024466585
20
0.49824635
30
0
70
32
0
SEQEND
8
0
0
POLYLINE
8
0
62
5
66
1
10
0
20
0
30
0
70
8
0
VERTEX
8
0
62
5
10
0.20180759
20
0.49824635
30
0
70
32
0
VERTEX
8
0
62
5
10
0.20180759
20
0.45824635
30
0
70
32
0
SEQEND
8
0
0
POLYLINE
8
0
62
5
66
1
10
0
20
0
30
0
70
8
0
VERTEX
8
0
62
5
10
0.0886705
20
0.45824635
30
0
70
32
0
VERTEX
8
0
62
5
10
0.20180759
20
0.45824635
30
0
70
32
0
SEQEND
8
0
0
POLYLINE
8
0
62
5
66
1
10
0
20
0
30
0
70
8
0
VERTEX
8
0
62
5
10
0.0886705
20
0.49824635
30
0
70
32
0
VERTEX
8
0
62
5
10
0.20180759
20
0.49824635
30
0
70
32
0
SEQEND
8
0
0
POLYLINE
8
0
62
5
66
1
10
0
20
0
30
0
70
8
0
VERTEX
8
0
62
5
10
0.11695477
20
0.45824635
30
0
70
32
0
VERTEX
8
0
62
5
10
0.11695477
20
0.45824635
30
0
70
32
0
SEQEND
8
0
0
POLYLINE
8
0
62
5
66
1
10
0
20
0
30
0
70
8
0
VERTEX
8
0
62
5
10
0.14523904
20
0.45824635
30
0
70
32
0
VERTEX
8
0
62
5
10
0.14523904
20
0.45824635
30
0
70
32
0
SEQEND
8
0
0
POLYLINE
8
0
62
5
66
1
10
0
20
0
30
0
70
8
0
VERTEX
8
0
62
5
10
0.17352331
20
0.45824635
30
0
70
32
0
VERTEX
8
0
62
5
10
0.17352331
20
0.45824635
30
0
70
32
0
SEQEND
8
0
0
POLYLINE
8
0
62
5
66
1
10
0
20
0
30
0
70
8
0
VERTEX
8
0
62
5
10
0.11695477
20
0.49824635
30
0
70
32
0
VERTEX
8
0
62
5
10
0.11695477
20
0.49824635
30
0
70
32
0
SEQEND
8
0
0
POLYLINE
8
0
62
5
66
1
10
0
20
0
30
0
70
8
0
VERTEX
8
0
62
5
10
0.14523904
20
0.49824635
30
0
70
32
0
VERTEX
8
0
62
5
10
0.14523904
20
0.49824635
30
0
70
32
0
SEQEND
8
0
0
POLYLINE
8
0
62
5
66
1
10
0
20
0
30
0
70
8
0
VERTEX
8
0
62
5
10
0.17352331
20
0.49824635
30
0
70
32
0
VERTEX
8
0
62
5
10
0.17352331
20
0.49824635
30
0
70
32
0
SEQEND
8
0
0
POLYLINE
8
0
62
30
66
1
10
0
20
0
30
0
70
8
0
VERTEX
8
0
62
30
10
0.0886705
20
0.49824635
30
0
70
32
0
VERTEX
8
0
62
30
10
0.11695477
20
0.45824635
30
0
70
32
0
SEQEND
8
0
0
POLYLINE
8
0
62
30
66
1
10
0
20
0
30
0
70
8
0
VERTEX
8
0
62
30
10
0.11695477
20
0.49824635
30
0
70
32
0
VERTEX
8
0
62
30
10
0.0886705
20
0.45824635
30
0
70
32
0
SEQEND
8
0
0
POLYLINE
8
0
62
30
66
1
10
0
20
0
30
0
70
8
0
VERTEX
8
0
62
30
10
0.14523904
20
0.49824635
30
0
70
32
0
VERTEX
8
0
62
30
10
0.17352331
20
0.45824635
30
0
70
32
0
SEQEND
8
0
0
POLYLINE
8
0
62
30
66
1
10
0
20
0
30
0
70
8
0
VERTEX
8
0
62
30
10
0.17352331
20
0.49824635
30
0
70
32
0
VERTEX
8
0
62
30
10
0.14523904
20
0.45824635
30
0
70
32
0
SEQEND
8
0
0
POLYLINE
8
0
62
30
66
1
10
0
20
0
30
0
70
8
0
VERTEX
8
0
62
30
10
0.11695477
20
0.47824635
30
0
70
32
0
VERTEX
8
0
62
30
10
0.14523904
20
0.47824635
30
0
70
32
0
SEQEND
8
0
0
POLYLINE
8
0
62
30
66
1
10
0
20
0
30
0
70
8
0
VERTEX
8
0
62
30
10
0.17352331
20
0.47824635
30
0
70
32
0
VERTEX
8
0
62
30
10
0.20180759
20
0.47824635
30
0
70
32
0
SEQEND
8
0
0
POLYLINE
8
0
62
5
66
1
10
0
20
0
30
0
70
8
0
VERTEX
8
0
62
5
10
0.0886705
20
0.47824635
30
0
70
32
0
VERTEX
8
0
62
5
10
0.10281264
20
0.47824635
30
0
70
32
0
SEQEND
8
0
0
POLYLINE
8
0
62
5
66
1
10
0
20
0
30
0
70
8
0
VERTEX
8
0
62
5
10
0.14523904
20
0.47824635
30
0
70
32
0
VERTEX
8
0
62
5
10
0.15938118
20
0.47824635
30
0
70
32
0
SEQEND
8
0
0
POLYLINE
8
0
62
5
66
1
10
0
20
0
30
0
70
8
0
VERTEX
8
0
62
5
10
0.10281264
20
0.47824635
30
0
70
32
0
VERTEX
8
0
62
5
10
0.11695477
20
0.47824635
30
0
70
32
0
SEQEND
8
0
0
POLYLINE
8
0
62
5
66
1
10
0
20
0
30
0
70
8
0
VERTEX
8
0
62
5
10
0.15938118
20
0.47824635
30
0
70
32
0
VERTEX
8
0
62
5
10
0.17352331
20
0.47824635
30
0
70
32
0
SEQEND
8
0
0
POLYLINE
8
0
62
5
66
1
10
0
20
0
30
0
70
8
0
VERTEX
8
0
62
5
10
0.11695477
20
0.45824635
30
0
70
32
0
VERTEX
8
0
62
5
10
0.11695477
20
0.49824635
30
0
70
32
0
SEQEND
8
0
0
POLYLINE
8
0
62
5
66
1
10
0
20
0
30
0
70
8
0
VERTEX
8
0
62
5
10
0.14523904
20
0.45824635
30
0
70
32
0
VERTEX
8
0
62
5
10
0.14523904
20
0.49824635
30
0
70
32
0
SEQEND
8
0
0
POLYLINE
8
0
62
5
66
1
10
0
20
0
30
0
70
8
0
VERTEX
8
0
62
5
10
0.17352331
20
0.45824635
30
0
70
32
0
VERTEX
8
0
62
5
10
0.17352331
20
0.49824635
30
0
70
32
0
SEQEND
8
0
0
POLYLINE
8
0
62
5
66
1
10
0
20
0
30
0
70
8
0
VERTEX
8
0
62
5
10
0.0886705
20
0.45824635
30
0
70
32
0
VERTEX
8
0
62
5
10
0.0886705
20
0.49824635
30
0
70
32
0
SEQEND
8
0
0
POLYLINE
8
0
62
5
66
1
10
0
20
0
30
0
70
8
0
VERTEX
8
0
62
5
10
-0.13760367
20
0.45824635
30
0
70
32
0
VERTEX
8
0
62
5
10
-0.13760367
20
0.49824635
30
0
70
32
0
SEQEND
8
0
0
POLYLINE
8
0
62
5
66
1
10
0
20
0
30
0
70
8
0
VERTEX
8
0
62
5
10
-0.13760367
20
0.45824635
30
0
70
32
0
VERTEX
8
0
62
5
10
-0.024466585
20
0.45824635
30
0
70
32
0
SEQEND
8
0
0
POLYLINE
8
0
62
5
66
1
10
0
20
0
30
0
70
8
0
VERTEX
8
0
62
5
10
-0.13760367
20
0.49824635
30
0
70
32
0
VERTEX
8
0
62
5
10
-0.024466585
20
0.49824635
30
0
70
32
0
SEQEND
8
0
0
POLYLINE
8
0
62
5
66
1
10
0
20
0
30
0
70
8
0
VERTEX
8
0
62
5
10
-0.1093194
20
0.45824635
30
0
70
32
0
VERTEX
8
0
62
5
10
-0.1093194
20
0.45824635
30
0
70
32
0
SEQEND
8
0
0
POLYLINE
8
0
62
5
66
1
10
0
20
0
30
0
70
8
0
VERTEX
8
0
62
5
10
-0.081035127
20
0.45824635
30
0
70
32
0
VERTEX
8
0
62
5
10
-0.081035127
20
0.45824635
30
0
70
32
0
SEQEND
8
0
0
POLYLINE
8
0
62
5
66
1
10
0
20
0
30
0
70
8
0
VERTEX
8
0
62
5
10
-0.052750856
20
0.45824635
30
0
70
32
0
VERTEX
8
0
62
5
10
-0.052750856
20
0.45824635
30
0
70
32
0
SEQEND
8
0
0
POLYLINE
8
0
62
5
66
1
10
0
20
0
30
0
70
8
0
VERTEX
8
0
62
5
10
-0.1093194
20
0.49824635
30
0
70
32
0
VERTEX
8
0
62
5
10
-0.1093194
20
0.49824635
30
0
70
32
0
SEQEND
8
0
0
POLYLINE
8
0
62
5
66
1
10
0
20
0
30
0
70
8
0
VERTEX
8
0
62
5
10
-0.081035127
20
0.49824635
30
0
70
32
0
VERTEX
8
0
62
5
10
-0.081035127
20
0.49824635
30
0
70
32
0
SEQEND
8
0
0
POLYLINE
8
0
62
5
66
1
10
0
20
0
30
0
70
8
0
VERTEX
8
0
62
5
10
-0.052750856
20
0.49824635
30
0
70
32
0
VERTEX
8
0
62
5
10
-0.052750856
20
0.49824635
30
0
70
32
0
SEQEND
8
0
0
POLYLINE
8
0
62
30
66
1
10
0
20
0
30
0
70
8
0
VERTEX
8
0
62
30
10
-0.13760367
20
0.49824635
30
0
70
32
0
VERTEX
8
0
62
30
10
-0.1093194
20
0.45824635
30
0
70
32
0
SEQEND
8
0
0
POLYLINE
8
0
62
30
66
1
10
0
20
0
30
0
70
8
0
VERTEX
8
0
62
30
10
-0.1093194
20
0.49824635
30
0
70
32
0
VERTEX
8
0
62
30
10
-0.13760367
20
0.45824635
30
0
70
32
0
SEQEND
8
0
0
POLYLINE
8
0
62
30
66
1
10
0
20
0
30
0
70
8
0
VERTEX
8
0
62
30
10
-0.081035127
20
0.49824635
30
0
70
32
0
VERTEX
8
0
62
30
10
-0.052750856
20
0.45824635
30
0
70
32
0
SEQEND
8
0
0
POLYLINE
8
0
62
30
66
1
10
0
20
0
30
0
70
8
0
VERTEX
8
0
62
30
10
-0.052750856
20
0.49824635
30
0
70
32
0
VERTEX
8
0
62
30
10
-0.081035127
20
0.45824635
30
0
70
32
0
SEQEND
8
0
0
POLYLINE
8
0
62
30
66
1
10
0
20
0
30
0
70
8
0
VERTEX
8
0
62
30
10
-0.1093194
20
0.47824635
30
0
70
32
0
VERTEX
8
0
62
30
10
-0.081035127
20
0.47824635
30
0
70
32
0
SEQEND
8
0
0
POLYLINE
8
0
62
30
66
1
10
0
20
0
30
0
70
8
0
VERTEX
8
0
62
30
10
-0.052750856
20
0.47824635
30
0
70
32
0
VERTEX
8
0
62
30
10
-0.024466585
20
0.47824635
30
0
70
32
0
SEQEND
8
0
0
POLYLINE
8
0
62
5
66
1
10
0
20
0
30
0
70
8
0
VERTEX
8
0
62
5
10
-0.13760367
20
0.47824635
30
0
70
32
0
VERTEX
8
0
62
5
10
-0.12346153
20
0.47824635
30
0
70
32
0
SEQEND
8
0
0
POLYLINE
8
0
62
5
66
1
10
0
20
0
30
0
70
8
0
VERTEX
8
0
62
5
10
-0.081035127
20
0.47824635
30
0
70
32
0
VERTEX
8
0
62
5
10
-0.066892991
20
0.47824635
30
0
70
32
0
SEQEND
8
0
0
POLYLINE
8
0
62
5
66
1
10
0
20
0
30
0
70
8
0
VERTEX
8
0
62
5
10
-0.12346153
20
0.47824635
30
0
70
32
0
VERTEX
8
0
62
5
10
-0.1093194
20
0.47824635
30
0
70
32
0
SEQEND
8
0
0
POLYLINE
8
0
62
5
66
1
10
0
20
0
30
0
70
8
0
VERTEX
8
0
62
5
10
-0.066892991
20
0.47824635
30
0
70
32
0
VERTEX
8
0
62
5
10
-0.052750856
20
0.47824635
30
0
70
32
0
SEQEND
8
0
0
POLYLINE
8
0
62
5
66
1
10
0
20
0
30
0
70
8
0
VERTEX
8
0
62
5
10
-0.1093194
20
0.45824635
30
0
70
32
0
VERTEX
8
0
62
5
10
-0.1093194
20
0.49824635
30
0
70
32
0
SEQEND
8
0
0
POLYLINE
8
0
62
5
66
1
10
0
20
0
30
0
70
8
0
VERTEX
8
0
62
5
10
-0.081035127
20
0.45824635
30
0
70
32
0
VERTEX
8
0
62
5
10
-0.081035127
20
0.49824635
30
0
70
32
0
SEQEND
8
0
0
POLYLINE
8
0
62
5
66
1
10
0
20
0
30
0
70
8
0
VERTEX
8
0
62
5
10
-0.052750856
20
0.45824635
30
0
70
32
0
VERTEX
8
0
62
5
10
-0.052750856
20
0.49824635
30
0
70
32
0
SEQEND
8
0
0
POLYLINE
8
0
62
5
66
1
10
0
20
0
30
0
70
8
0
VERTEX
8
0
62
5
10
-0.13760367
20
0.45824635
30
0
70
32
0
VERTEX
8
0
62
5
10
-0.13760367
20
0.49824635
30
0
70
32
0
SEQEND
8
0
0
POLYLINE
8
0
62
5
66
1
10
0
20
0
30
0
70
8
0
VERTEX
8
0
62
5
10
-0.024466585
20
0.49824635
30
0
70
32
0
VERTEX
8
0
62
5
10
-0.024466585
20
0.56653067
30
0
70
32
0
SEQEND
8
0
0
POLYLINE
8
0
62
5
66
1
10
0
20
0
30
0
70
8
0
VERTEX
8
0
62
5
10
0.0886705
20
0.56653067
30
0
70
32
0
VERTEX
8
0
62
5
10
0.0886705
20
0.49824635
30
0
70
32
0
SEQEND
8
0
0
POLYLINE
8
0
62
5
66
1
10
0
20
0
30
0
70
8
0
VERTEX
8
0
62
5
10
-0.024466585
20
0.50410419
30
0
70
32
0
VERTEX
8
0
62
5
10
0.0038176867
20
0.50410424
30
0
70
32
0
VERTEX
8
0
62
5
10
0.032101958
20
0.53238851
30
0
70
32
0
VERTEX
8
0
62
5
10
0.060386229
20
0.53238846
30
0
70
32
0
VERTEX
8
0
62
5
10
0.0886705
20
0.50410419
30
0
70
32
0
SEQEND
8
0
0
POLYLINE
8
0
62
5
66
1
10
0
20
0
30
0
70
8
0
SEQEND
8
0
0
POLYLINE
8
0
62
5
66
1
10
0
20
0
30
0
70
8
0
VERTEX
8
0
62
5
10
-0.024466585
20
0.56067284
30
0
70
32
0
VERTEX
8
0
62
5
10
0.0038176867
20
0.56067278
30
0
70
32
0
VERTEX
8
0
62
5
10
0.032101958
20
0.53238851
30
0
70
32
0
VERTEX
8
0
62
5
10
0.060386229
20
0.53238856
30
0
70
32
0
VERTEX
8
0
62
5
10
0.0886705
20
0.56067284
30
0
70
32
0
SEQEND
8
0
0
POLYLINE
8
0
62
30
66
1
10
0
20
0
30
0
70
8
0
VERTEX
8
0
62
30
10
-0.024466585
20
0.53238851
30
0
70
32
0
VERTEX
8
0
62
30
10
0.0886705
20
0.53238851
30
0
70
32
0
SEQEND
8
0
0
POLYLINE
8
0
62
30
66
1
10
0
20
0
30
0
70
8
0
VERTEX
8
0
62
30
10
0.0038176867
20
0.50410424
30
0
70
32
0
VERTEX
8
0
62
30
10
0.0038176867
20
0.53238851
30
0
70
32
0
SEQEND
8
0
0
POLYLINE
8
0
62
30
66
1
10
0
20
0
30
0
70
8
0
VERTEX
8
0
62
30
10
0.032101958
20
0.53238851
30
0
70
32
0
VERTEX
8
0
62
30
10
0.032101958
20
0.53238851
30
0
70
32
0
SEQEND
8
0
0
POLYLINE
8
0
62
30
66
1
10
0
20
0
30
0
70
8
0
VERTEX
8
0
62
30
10
0.060386229
20
0.53238846
30
0
70
32
0
VERTEX
8
0
62
30
10
0.060386229
20
0.53238851
30
0
70
32
0
SEQEND
8
0
0
POLYLINE
8
0
62
5
66
1
10
0
20
0
30
0
70
8
0
VERTEX
8
0
62
5
10
0.0038176867
20
0.49824635
30
0
70
32
0
VERTEX
8
0
62
5
10
0.0038176867
20
0.50410424
30
0
70
32
0
SEQEND
8
0
0
POLYLINE
8
0
62
5
66
1
10
0
20
0
30
0
70
8
0
VERTEX
8
0
62
5
10
0.032101958
20
0.49824635
30
0
70
32
0
VERTEX
8
0
62
5
10
0.032101958
20
0.53238851
30
0
70
32
0
SEQEND
8
0
0
POLYLINE
8
0
62
5
66
1
10
0
20
0
30
0
70
8
0
VERTEX
8
0
62
5
10
0.060386229
20
0.49824635
30
0
70
32
0
VERTEX
8
0
62
5
10
0.060386229
20
0.53238846
30
0
70
32
0
SEQEND
8
0
0
POLYLINE
8
0
62
5
66
1
10
0
20
0
30
0
70
8
0
VERTEX
8
0
62
5
10
0.0038176867
20
0.53238851
30
0
70
32
0
VERTEX
8
0
62
5
10
0.0038176867
20
0.56653067
30
0
70
32
0
SEQEND
8
0
0
POLYLINE
8
0
62
5
66
1
10
0
20
0
30
0
70
8
0
VERTEX
8
0
62
5
10
0.032101958
20
0.53238851
30
0
70
32
0
VERTEX
8
0
62
5
10
0.032101958
20
0.56653067
30
0
70
32
0
SEQEND
8
0
0
POLYLINE
8
0
62
5
66
1
10
0
20
0
30
0
70
8
0
VERTEX
8
0
62
5
10
0.060386229
20
0.53238851
30
0
70
32
0
VERTEX
8
0
62
5
10
0.060386229
20
0.56653067
30
0
70
32
0
SEQEND
8
0
0
POLYLINE
8
0
62
30
66
1
10
0
20
0
30
0
70
8
0
VERTEX
8
0
62
30
10
-0.024466585
20
0.50410419
30
0
70
32
0
VERTEX
8
0
62
30
10
-0.012750843
20
0.53238851
30
0
70
32
0
VERTEX
8
0
62
30
10
-0.024466585
20
0.56067284
30
0
70
32
0
SEQEND
8
0
0
POLYLINE
8
0
62
30
66
1
10
0
20
0
30
0
70
8
0
VERTEX
8
0
62
30
10
0.0038176867
20
0.50410424
30
0
70
32
0
VERTEX
8
0
62
30
10
0.015533424
20
0.53238851
30
0
70
32
0
VERTEX
8
0
62
30
10
0.0038176867
20
0.56067278
30
0
70
32
0
SEQEND
8
0
0
POLYLINE
8
0
62
30
66
1
10
0
20
0
30
0
70
8
0
VERTEX
8
0
62
30
10
0.032101958
20
0.53238851
30
0
70
32
0
VERTEX
8
0
62
30
10
0.032101958
20
0.53238851
30
0
70
32
0
VERTEX
8
0
62
30
10
0.032101958
20
0.53238851
30
0
70
32
0
SEQEND
8
0
0
POLYLINE
8
0
62
30
66
1
10
0
20
0
30
0
70
8
0
VERTEX
8
0
62
30
10
0.060386229
20
0.53238846
30
0
70
32
0
VERTEX
8
0
62
30
10
0.060386354
20
0.53238851
30
0
70
32
0
VERTEX
8
0
62
30
10
0.060386229
20
0.53238856
30
0
70
32
0
SEQEND
8
0
0
POLYLINE
8
0
62
5
66
1
10
0
20
0
30
0
70
8
0
VERTEX
8
0
62
5
10
0.20180759
20
0.56653067
30
0
70
32
0
VERTEX
8
0
62
5
10
0.20180759
20
0.49824635
30
0
70
32
0
SEQEND
8
0
0
POLYLINE
8
0
62
5
66
1
10
0
20
0
30
0
70
8
0
VERTEX
8
0
62
5
10
0.0886705
20
0.50410419
30
0
70
32
0
VERTEX
8
0
62
5
10
0.11695477
20
0.50410424
30
0
70
32
0
VERTEX
8
0
62
5
10
0.14523904
20
0.53238851
30
0
70
32
0
VERTEX
8
0
62
5
10
0.17352331
20
0.53238846
30
0
70
32
0
VERTEX
8
0
62
5
10
0.20180759
20
0.50410419
30
0
70
32
0
SEQEND
8
0
0
POLYLINE
8
0
62
5
66
1
10
0
20
0
30
0
70
8
0
SEQEND
8
0
0
POLYLINE
8
0
62
5
66
1
10
0
20
0
30
0
70
8
0
VERTEX
8
0
62
5
10
0.0886705
20
0.56067284
30
0
70
32
0
VERTEX
8
0
62
5
10
0.11695477
20
0.56067278
30
0
70
32
0
VERTEX
8
0
62
5
10
0.14523904
20
0.53238851
30
0
70
32
0
VERTEX
8
0
62
5
10
0.17352331
20
0.53238856
30
0
70
32
0
VERTEX
8
0
62
5
10
0.20180759
20
0.56067284
30
0
70
32
0
SEQEND
8
0
0
POLYLINE
8
0
62
30
66
1
10
0
20
0
30
0
70
8
0
VERTEX
8
0
62
30
10
0.0886705
20
0.53238851
30
0
70
32
0
VERTEX
8
0
62
30
10
0.20180759
20
0.53238851
30
0
70
32
0
SEQEND
8
0
0
POLYLINE
8
0
62
30
66
1
10
0
20
0
30
0
70
8
0
VERTEX
8
0
62
30
10
0.11695477
20
0.50410424
30
0
70
32
0
VERTEX
8
0
62
30
10
0.11695477
20
0.53238851
30
0
70
32
0
SEQEND
8
0
0
POLYLINE
8
0
62
30
66
1
10
0
20
0
30
0
70
8
0
VERTEX
8
0
62
30
10
0.14523904
20
0.53238851
30
0
70
32
0
VERTEX
8
0
62
30
10
0.14523904
20
0.53238851
30
0
70
32
0
SEQEND
8
0
0
POLYLINE
8
0
62
30
66
1
10
0
20
0
30
0
70
8
0
VERTEX
8
0
62
30
10
0.17352331
20
0.53238846
30
0
70
32
0
VERTEX
8
0
62
30
10
0.17352331
20
0.53238851
30
0
70
32
0
SEQEND
8
0
0
POLYLINE
8
0
62
5
66
1
10
0
20
0
30
0
70
8
0
VERTEX
8
0
62
5
10
0.11695477
20
0.49824635
30
0
70
32
0
VERTEX
8
0
62
5
10
0.11695477
20
0.50410424
30
0
70
32
0
SEQEND
8
0
0
POLYLINE
8
0
62
5
66
1
10
0
20
0
30
0
70
8
0
VERTEX
8
0
62
5
10
0.14523904
20
0.49824635
30
0
70
32
0
VERTEX
8
0
62
5
10
0.14523904
20
0.53238851
30
0
70
32
0
SEQEND
8
0
0
POLYLINE
8
0
62
5
66
1
10
0
20
0
30
0
70
8
0
VERTEX
8
0
62
5
10
0.17352331
20
0.49824635
30
0
70
32
0
VERTEX
8
0
62
5
10
0.17352331
20
0.53238846
30
0
70
32
0
SEQEND
8
0
0
POLYLINE
8
0
62
5
66
1
10
0
20
0
30
0
70
8
0
VERTEX
8
0
62
5
10
0.11695477
20
0.53238851
30
0
70
32
0
VERTEX
8
0
62
5
10
0.11695477
20
0.56653067
30
0
70
32
0
SEQEND
8
0
0
POLYLINE
8
0
62
5
66
1
10
0
20
0
30
0
70
8
0
VERTEX
8
0
62
5
10
0.14523904
20
0.53238851
30
0
70
32
0
VERTEX
8
0
62
5
10
0.14523904
20
0.56653067
30
0
70
32
0
SEQEND
8
0
0
POLYLINE
8
0
62
5
66
1
10
0
20
0
30
0
70
8
0
VERTEX
8
0
62
5
10
0.17352331
20
0.53238851
30
0
70
32
0
VERTEX
8
0
62
5
10
0.17352331
20
0.56653067
30
0
70
32
0
SEQEND
8
0
0
POLYLINE
8
0
62
30
66
1
10
0
20
0
30
0
70
8
0
VERTEX
8
0
62
30
10
0.0886705
20
0.50410419
30
0
70
32
0
VERTEX
8
0
62
30
10
0.10038624
20
0.53238851
30
0
70
32
0
VERTEX
8
0
62
30
10
0.0886705
20
0.56067284
30
0
70
32
0
SEQEND
8
0
0
POLYLINE
8
0
62
30
66
1
10
0
20
0
30
0
70
8
0
VERTEX
8
0
62
30
10
0.11695477
20
0.50410424
30
0
70
32
0
VERTEX
8
0
62
30
10
0.12867051
20
0.53238851
30
0
70
32
0
VERTEX
8
0
62
30
10
0.11695477
20
0.56067278
30
0
70
32
0
SEQEND
8
0
0
POLYLINE
8
0
62
30
66
1
10
0
20
0
30
0
70
8
0
VERTEX
8
0
62
30
10
0.14523904
20
0.53238851
30
0
70
32
0
VERTEX
8
0
62
30
10
0.14523904
20
0.53238851
30
0
70
32
0
VERTEX
8
0
62
30
10
0.14523904
20
0.53238851
30
0
70
32
0
SEQEND
8
0
0
POLYLINE
8
0
62
30
66
1
10
0
20
0
30
0
70
8
0
VERTEX
8
0
62
30
10
0.17352331
20
0.53238846
30
0
70
32
0
VERTEX
8
0
62
30
10
0.17352344
20
0.53238851
30
0
70
32
0
VERTEX
8
0
62
30
10
0.17352331
20
0.53238856
30
0
70
32
0
SEQEND
8
0
0
POLYLINE
8
0
62
5
66
1
10
0
20
0
30
0
70
8
0
VERTEX
8
0
62
5
10
-0.13760367
20
0.49824635
30
0
70
32
0
VERTEX
8
0
62
5
10
-0.13760367
20
0.56653067
30
0
70
32
0
SEQEND
8
0
0
POLYLINE
8
0
62
5
66
1
10
0
20
0
30
0
70
8
0
VERTEX
8
0
62
5
10
-0.13760367
20
0.50410419
30
0
70
32
0
VERTEX
8
0
62
5
10
-0.1093194
20
0.50410424
30
0
70
32
0
VERTEX
8
0
62
5
10
-0.081035127
20
0.53238851
30
0
70
32
0
VERTEX
8
0
62
5
10
-0.052750856
20
0.53238846
30
0
70
32
0
VERTEX
8
0
62
5
10
-0.024466585
20
0.50410419
30
0
70
32
0
SEQEND
8
0
0
POLYLINE
8
0
62
5
66
1
10
0
20
0
30
0
70
8
0
SEQEND
8
0
0
POLYLINE
8
0
62
5
66
1
10
0
20
0
30
0
70
8
0
VERTEX
8
0
62
5
10
-0.13760367
20
0.56067284
30
0
70
32
0
VERTEX
8
0
62
5
10
-0.1093194
20
0.56067278
30
0
70
32
0
VERTEX
8
0
62
5
10
-0.081035127
20
0.53238851
30
0
70
32
0
VERTEX
8
0
62
5
10
-0.052750856
20
0.53238856
30
0
70
32
0
VERTEX
8
0
62
5
10
-0.024466585
20
0.56067284
30
0
70
32
0
SEQEND
8
0
0
POLYLINE
8
0
62
30
66
1
10
0
20
0
30
0
70
8
0
VERTEX
8
0
62
30
10
-0.13760367
20
0.53238851
30
0
70
32
0
VERTEX
8
0
62
30
10
-0.024466585
20
0.53238851
30
0
70
32
0
SEQEND
8
0
0
POLYLINE
8
0
62
30
66
1
10
0
20
0
30
0
70
8
0
VERTEX
8
0
62
30
10
-0.1093194
20
0.50410424
30
0
70
32
0
VERTEX
8
0
62
30
10
-0.1093194
20
0.53238851
30
0
70
32
0
SEQEND
8
0
0
POLYLINE
8
0
62
30
66
1
10
0
20
0
30
0
70
8
0
VERTEX
8
0
62
30
10
-0.081035127
20
0.53238851
30
0
70
32
0
VERTEX
8
0
62
30
10
-0.081035127
20
0.53238851
30
0
70
32
0
SEQEND
8
0
0
POLYLINE
8
0
62
30
66
1
10
0
20
0
30
0
70
8
0
VERTEX
8
0
62
30
10
-0.052750856
20
0.53238846
30
0
70
32
0
VERTEX
8
0
62
30
10
-0.052750856
20
0.53238851
30
0
70
32
0
SEQEND
8
0
0
POLYLINE
8
0
62
5
66
1
10
0
20
0
30
0
70
8
0
VERTEX
8
0
62
5
10
-0.1093194
20
0.49824635
30
0
70
32
0
VERTEX
8
0
62
5
10
-0.1093194
20
0.50410424
30
0
70
32
0
SEQEND
8
0
0
POLYLINE
8
0
62
5
66
1
10
0
20
0
30
0
70
8
0
VERTEX
8
0
62
5
10
-0.081035127
20
0.49824635
30
0
70
32
0
VERTEX
8
0
62
5
10
-0.081035127
20
0.53238851
30
0
70
32
0
SEQEND
8
0
0
POLYLINE
8
0
62
5
66
1
10
0
20
0
30
0
70
8
0
VERTEX
8
0
62
5
10
-0.052750856
20
0.49824635
30
0
70
32
0
VERTEX
8
0
62
5
10
-0.052750856
20
0.53238846
30
0
70
32
0
SEQEND
8
0
0
POLYLINE
8
0
62
5
66
1
10
0
20
0
30
0
70
8
0
VERTEX
8
0
62
5
10
-0.1093194
20
0.53238851
30
0
70
32
0
VERTEX
8
0
62
5
10
-0.1093194
20
0.56653067
30
0
70
32
0
SEQEND
8
0
0
POLYLINE
8
0
62
5
66
1
10
0
20
0
30
0
70
8
0
VERTEX
8
0
62
5
10
-0.081035127
20
0.53238851
30
0
70
32
0
VERTEX
8
0
62
5
10
-0.081035127
20
0.56653067
30
0
70
32
0
SEQEND
8
0
0
POLYLINE
8
0
62
5
66
1
10
0
20
0
30
0
70
8
0
VERTEX
8
0
62
5
10
-0.052750856
20
0.53238851
30
0
70
32
0
VERTEX
8
0
62
5
10
-0.052750856
20
0.56653067
30
0
70
32
0
SEQEND
8
0
0
POLYLINE
8
0
62
30
66
1
10
0
20
0
30
0
70
8
0
VERTEX
8
0
62
30
10
-0.13760367
20
0.50410419
30
0
70
32
0
VERTEX
8
0
62
30
10
-0.12588793
20
0.53238851
30
0
70
32
0
VERTEX
8
0
62
30
10
-0.13760367
20
0.56067284
30
0
70
32
0
SEQEND
8
0
0
POLYLINE
8
0
62
30
66
1
10
0
20
0
30
0
70
8
0
VERTEX
8
0
62
30
10
-0.1093194
20
0.50410424
30
0
70
32
0
VERTEX
8
0
62
30
10
-0.097603661
20
0.53238851
30
0
70
32
0
VERTEX
8
0
62
30
10
-0.1093194
20
0.56067278
30
0
70
32
0
SEQEND
8
0
0
POLYLINE
8
0
62
30
66
1
10
0
20
0
30
0
70
8
0
VERTEX
8
0
62
30
10
-0.081035127
20
0.53238851
30
0
70
32
0
VERTEX
8
0
62
30
10
-0.081035127
20
0.53238851
30
0
70
32
0
VERTEX
8
0
62
30
10
-0.081035127
20
0.53238851
30
0
70
32
0
SEQEND
8
0
0
POLYLINE
8
0
62
30
66
1
10
0
20
0
30
0
70
8
0
VERTEX
8
0
62
30
10
-0.052750856
20
0.53238846
30
0
70
32
0
VERTEX
8
0
62
30
10
-0.052750731
20
0.53238851
30
0
70
32
0
VERTEX
8
0
62
30
10
-0.052750856
20
0.53238856
30
0
70
32
0
SEQEND
8
0
0
POLYLINE
8
0
62
5
66
1
10
0
20
0
30
0
70
8
0
VERTEX
8
0
62
5
10
-0.024466585
20
0.56653067
30
0
70
32
0
VERTEX
8
0
62
5
10
-0.024466585
20
0.58997881
30
0
70
32
0
SEQEND
8
0
0
POLYLINE
8
0
62
5
66
1
10
0
20
0
30
0
70
8
0
VERTEX
8
0
62
5
10
0.0038176867
20
0.56653067
30
0
70
32
0
VERTEX
8
0
62
5
10
0.0038176867
20
0.58997881
30
0
70
32
0
SEQEND
8
0
0
POLYLINE
8
0
62
5
66
1
10
0
20
0
30
0
70
8
0
VERTEX
8
0
62
5
10
0.032101958
20
0.56653067
30
0
70
32
0
VERTEX
8
0
62
5
10
0.032101958
20
0.58997881
30
0
70
32
0
SEQEND
8
0
0
POLYLINE
8
0
62
5
66
1
10
0
20
0
30
0
70
8
0
VERTEX
8
0
62
5
10
0.060386229
20
0.56653067
30
0
70
32
0
VERTEX
8
0
62
5
10
0.060386229
20
0.58997881
30
0
70
32
0
SEQEND
8
0
0
POLYLINE
8
0
62
5
66
1
10
0
20
0
30
0
70
8
0
VERTEX
8
0
62
5
10
0.0886705
20
0.56653067
30
0
70
32
0
VERTEX
8
0
62
5
10
0.0886705
20
0.58997881
30
0
70
32
0
SEQEND
8
0
0
POLYLINE
8
0
62
5
66
1
10
0
20
0
30
0
70
8
0
VERTEX
8
0
62
5
10
0.0038176867
20
0.56653067
30
0
70
32
0
VERTEX
8
0
62
5
10
0.0038176867
20
0.56653067
30
0
70
32
0
SEQEND
8
0
0
POLYLINE
8
0
62
5
66
1
10
0
20
0
30
0
70
8
0
VERTEX
8
0
62
5
10
0.032101958
20
0.56653067
30
0
70
32
0
VERTEX
8
0
62
5
10
0.032101958
20
0.56653067
30
0
70
32
0
SEQEND
8
0
0
POLYLINE
8
0
62
5
66
1
10
0
20
0
30
0
70
8
0
VERTEX
8
0
62
5
10
0.060386229
20
0.56653067
30
0
70
32
0
VERTEX
8
0
62
5
10
0.060386229
20
0.56653067
30
0
70
32
0
SEQEND
8
0
0
POLYLINE
8
0
62
5
66
1
10
0
20
0
30
0
70
8
0
VERTEX
8
0
62
5
10
0.003817635
20
0.58997881
30
0
70
32
0
VERTEX
8
0
62
5
10
0.003817635
20
0.58997881
30
0
70
32
0
SEQEND
8
0
0
POLYLINE
8
0
62
5
66
1
10
0
20
0
30
0
70
8
0
VERTEX
8
0
62
5
10
0.032101906
20
0.58997881
30
0
70
32
0
VERTEX
8
0
62
5
10
0.032101906
20
0.58997881
30
0
70
32
0
SEQEND
8
0
0
POLYLINE
8
0
62
5
66
1
10
0
20
0
30
0
70
8
0
VERTEX
8
0
62
5
10
0.060386177
20
0.58997881
30
0
70
32
0
VERTEX
8
0
62
5
10
0.060386177
20
0.58997881
30
0
70
32
0
SEQEND
8
0
0
POLYLINE
8
0
62
5
66
1
10
0
20
0
30
0
70
8
0
VERTEX
8
0
62
5
10
0.088670449
20
0.58997881
30
0
70
32
0
VERTEX
8
0
62
5
10
0.088670449
20
0.58997881
30
0
70
32
0
SEQEND
8
0
0
POLYLINE
8
0
62
5
66
1
10
0
20
0
30
0
70
8
0
VERTEX
8
0
62
5
10
0.11695477
20
0.56653067
30
0
70
32
0
VERTEX
8
0
62
5
10
0.11695477
20
0.58997881
30
0
70
32
0
SEQEND
8
0
0
POLYLINE
8
0
62
5
66
1
10
0
20
0
30
0
70
8
0
VERTEX
8
0
62
5
10
0.14523904
20
0.56653067
30
0
70
32
0
VERTEX
8
0
62
5
10
0.14523904
20
0.58997881
30
0
70
32
0
SEQEND
8
0
0
POLYLINE
8
0
62
5
66
1
10
0
20
0
30
0
70
8
0
VERTEX
8
0
62
5
10
0.17352331
20
0.56653067
30
0
70
32
0
VERTEX
8
0
62
5
10
0.17352331
20
0.58997881
30
0
70
32
0
SEQEND
8
0
0
POLYLINE
8
0
62
5
66
1
10
0
20
0
30
0
70
8
0
VERTEX
8
0
62
5
10
0.20180759
20
0.56653067
30
0
70
32
0
VERTEX
8
0
62
5
10
0.20180759
20
0.58997881
30
0
70
32
0
SEQEND
8
0
0
POLYLINE
8
0
62
5
66
1
10
0
20
0
30
0
70
8
0
VERTEX
8
0
62
5
10
0.11695477
20
0.56653067
30
0
70
32
0
VERTEX
8
0
62
5
10
0.11695477
20
0.56653067
30
0
70
32
0
SEQEND
8
0
0
POLYLINE
8
0
62
5
66
1
10
0
20
0
30
0
70
8
0
VERTEX
8
0
62
5
10
0.14523904
20
0.56653067
30
0
70
32
0
VERTEX
8
0
62
5
10
0.14523904
20
0.56653067
30
0
70
32
0
SEQEND
8
0
0
POLYLINE
8
0
62
5
66
1
10
0
20
0
30
0
70
8
0
VERTEX
8
0
62
5
10
0.17352331
20
0.56653067
30
0
70
32
0
VERTEX
8
0
62
5
10
0.17352331
20
0.56653067
30
0
70
32
0
SEQEND
8
0
0
POLYLINE
8
0
62
5
66
1
10
0
20
0
30
0
70
8
0
VERTEX
8
0
62
5
10
0.11695472
20
0.58997881
30
0
70
32
0
VERTEX
8
0
62
5
10
0.11695472
20
0.58997881
30
0
70
32
0
SEQEND
8
0
0
POLYLINE
8
0
62
5
66
1
10
0
20
0
30
0
70
8
0
VERTEX
8
0
62
5
10
0.14523899
20
0.58997881
30
0
70
32
0
VERTEX
8
0
62
5
10
0.14523899
20
0.58997881
30
0
70
32
0
SEQEND
8
0
0
POLYLINE
8
0
62
5
66
1
10
0
20
0
30
0
70
8
0
VERTEX
8
0
62
5
10
0.17352326
20
0.58997881
30
0
70
32
0
VERTEX
8
0
62
5
10
0.17352326
20
0.58997881
30
0
70
32
0
SEQEND
8
0
0
POLYLINE
8
0
62
5
66
1
10
0
20
0
30
0
70
8
0
VERTEX
8
0
62
5
10
0.20180753
20
0.58997881
30
0
70
32
0
VERTEX
8
0
62
5
10
0.20180753
20
0.58997881
30
0
70
32
0
SEQEND
8
0
0
POLYLINE
8
0
62
5
66
1
10
0
20
0
30
0
70
8
0
VERTEX
8
0
62
5
10
-0.1093194
20
0.56653067
30
0
70
32
0
VERTEX
8
0
62
5
10
-0.1093194
20
0.58997881
30
0
70
32
0
SEQEND
8
0
0
POLYLINE
8
0
62
5
66
1
10
0
20
0
30
0
70
8
0
VERTEX
8
0
62
5
10
-0.081035127
20
0.56653067
30
0
70
32
0
VERTEX
8
0
62
5
10
-0.081035127
20
0.58997881
30
0
70
32
0
SEQEND
8
0
0
POLYLINE
8
0
62
5
66
1
10
0
20
0
30
0
70
8
0
VERTEX
8
0
62
5
10
-0.052750856
20
0.56653067
30
0
70
32
0
VERTEX
8
0
62
5
10
-0.052750856
20
0.58997881
30
0
70
32
0
SEQEND
8
0
0
POLYLINE
8
0
62
5
66
1
10
0
20
0
30
0
70
8
0
VERTEX
8
0
62
5
10
-0.024466585
20
0.56653067
30
0
70
32
0
VERTEX
8
0
62
5
10
-0.024466585
20
0.58997881
30
0
70
32
0
SEQEND
8
0
0
POLYLINE
8
0
62
5
66
1
10
0
20
0
30
0
70
8
0
VERTEX
8
0
62
5
10
-0.1093194
20
0.56653067
30
0
70
32
0
VERTEX
8
0
62
5
10
-0.1093194
20
0.56653067
30
0
70
32
0
SEQEND
8
0
0
POLYLINE
8
0
62
5
66
1
10
0
20
0
30
0
70
8
0
VERTEX
8
0
62
5
10
-0.081035127
20
0.56653067
30
0
70
32
0
VERTEX
8
0
62
5
10
-0.081035127
20
0.56653067
30
0
70
32
0
SEQEND
8
0
0
POLYLINE
8
0
62
5
66
1
10
0
20
0
30
0
70
8
0
VERTEX
8
0
62
5
10
-0.052750856
20
0.56653067
30
0
70
32
0
VERTEX
8
0
62
5
10
-0.052750856
20
0.56653067
30
0
70
32
0
SEQEND
8
0
0
POLYLINE
8
0
62
5
66
1
10
0
20
0
30
0
70
8
0
VERTEX
8
0
62
5
10
-0.10931945
20
0.58997881
30
0
70
32
0
VERTEX
8
0
62
5
10
-0.10931945
20
0.58997881
30
0
70
32
0
SEQEND
8
0
0
POLYLINE
8
0
62
5
66
1
10
0
20
0
30
0
70
8
0
VERTEX
8
0
62
5
10
-0.081035179
20
0.58997881
30
0
70
32
0
VERTEX
8
0
62
5
10
-0.081035179
20
0.58997881
30
0
70
32
0
SEQEND
8
0
0
POLYLINE
8
0
62
5
66
1
10
0
20
0
30
0
70
8
0
VERTEX
8
0
62
5
10
-0.052750908
20
0.58997881
30
0
70
32
0
VERTEX
8
0
62
5
10
-0.052750908
20
0.58997881
30
0
70
32
0
SEQEND
8
0
0
POLYLINE
8
0
62
5
66
1
10
0
20
0
30
0
70
8
0
VERTEX
8
0
62
5
10
-0.024466636
20
0.58997881
30
0
70
32
0
VERTEX
8
0
62
5
10
-0.024466636
20
0.58997881
30
0
70
32
0
SEQEND
8
0
0
POLYLINE
8
0
62
5
66
1
10
0
20
0
30
0
70
8
0
VERTEX
8
0
62
5
10
0.003817635
20
0.58997881
30
0
70
32
0
VERTEX
8
0
62
5
10
0.003817635
20
0.68377133
30
0
70
32
0
SEQEND
8
0
0
POLYLINE
8
0
62
5
66
1
10
0
20
0
30
0
70
8
0
VERTEX
8
0
62
5
10
0.11695472
20
0.58997881
30
0
70
32
0
VERTEX
8
0
62
5
10
0.11695472
20
0.68377133
30
0
70
32
0
SEQEND
8
0
0
POLYLINE
8
0
62
5
66
1
10
0
20
0
30
0
70
8
0
VERTEX
8
0
62
5
10
0.032101906
20
0.58997881
30
0
70
32
0
VERTEX
8
0
62
5
10
0.032101906
20
0.68377133
30
0
70
32
0
SEQEND
8
0
0
POLYLINE
8
0
62
5
66
1
10
0
20
0
30
0
70
8
0
VERTEX
8
0
62
5
10
0.060386177
20
0.58997881
30
0
70
32
0
VERTEX
8
0
62
5
10
0.060386177
20
0.68377133
30
0
70
32
0
SEQEND
8
0
0
POLYLINE
8
0
62
5
66
1
10
0
20
0
30
0
70
8
0
VERTEX
8
0
62
5
10
0.088670449
20
0.58997881
30
0
70
32
0
VERTEX
8
0
62
5
10
0.088670449
20
0.68377133
30
0
70
32
0
SEQEND
8
0
0
POLYLINE
8
0
62
5
66
1
10
0
20
0
30
0
70
8
0
VERTEX
8
0
62
5
10
0.2300918
20
0.58997881
30
0
70
32
0
VERTEX
8
0
62
5
10
0.2300918
20
0.68377133
30
0
70
32
0
SEQEND
8
0
0
POLYLINE
8
0
62
5
66
1
10
0
20
0
30
0
70
8
0
VERTEX
8
0
62
5
10
0.14523899
20
0.58997881
30
0
70
32
0
VERTEX
8
0
62
5
10
0.14523899
20
0.68377133
30
0
70
32
0
SEQEND
8
0
0
POLYLINE
8
0
62
5
66
1
10
0
20
0
30
0
70
8
0
VERTEX
8
0
62
5
10
0.17352326
20
0.58997881
30
0
70
32
0
VERTEX
8
0
62
5
10
0.17352326
20
0.68377133
30
0
70
32
0
SEQEND
8
0
0
POLYLINE
8
0
62
5
66
1
10
0
20
0
30
0
70
8
0
VERTEX
8
0
62
5
10
0.20180753
20
0.58997881
30
0
70
32
0
VERTEX
8
0
62
5
10
0.20180753
20
0.68377133
30
0
70
32
0
SEQEND
8
0
0
POLYLINE
8
0
62
5
66
1
10
0
20
0
30
0
70
8
0
VERTEX
8
0
62
5
10
-0.10931945
20
0.58997881
30
0
70
32
0
VERTEX
8
0
62
5
10
-0.10931945
20
0.68377133
30
0
70
32
0
SEQEND
8
0
0
POLYLINE
8
0
62
5
66
1
10
0
20
0
30
0
70
8
0
VERTEX
8
0
62
5
10
-0.081035179
20
0.58997881
30
0
70
32
0
VERTEX
8
0
62
5
10
-0.081035179
20
0.68377133
30
0
70
32
0
SEQEND
8
0
0
POLYLINE
8
0
62
5
66
1
10
0
20
0
30
0
70
8
0
VERTEX
8
0
62
5
10
-0.052750908
20
0.58997881
30
0
70
32
0
VERTEX
8
0
62
5
10
-0.052750908
20
0.68377133
30
0
70
32
0
SEQEND
8
0
0
POLYLINE
8
0
62
5
66
1
10
0
20
0
30
0
70
8
0
VERTEX
8
0
62
5
10
-0.024466636
20
0.58997881
30
0
70
32
0
VERTEX
8
0
62
5
10
-0.024466636
20
0.68377133
30
0
70
32
0
SEQEND
8
0
0
POLYLINE
8
0
62
5
66
1
10
0
20
0
30
0
70
8
0
VERTEX
8
0
62
5
10
0.003817635
20
0.68377133
30
0
70
32
0
VERTEX
8
0
62
5
10
0.003817635
20
0.74033992
30
0
70
32
0
SEQEND
8
0
0
POLYLINE
8
0
62
5
66
1
10
0
20
0
30
0
70
8
0
VERTEX
8
0
62
5
10
0.11695472
20
0.74033992
30
0
70
32
0
VERTEX
8
0
62
5
10
0.11695472
20
0.68377133
30
0
70
32
0
SEQEND
8
0
0
POLYLINE
8
0
62
5
66
1
10
0
20
0
30
0
70
8
0
VERTEX
8
0
62
5
10
0.003817635
20
0.68619773
30
0
70
32
0
VERTEX
8
0
62
5
10
0.032101906
20
0.69791346
30
0
70
32
0
VERTEX
8
0
62
5
10
0.060386177
20
0.69791348
30
0
70
32
0
VERTEX
8
0
62
5
10
0.088670449
20
0.68619775
30
0
70
32
0
VERTEX
8
0
62
5
10
0.11695472
20
0.68619773
30
0
70
32
0
SEQEND
8
0
0
POLYLINE
8
0
62
5
66
1
10
0
20
0
30
0
70
8
0
VERTEX
8
0
62
5
10
0.003817635
20
0.71448202
30
0
70
32
0
VERTEX
8
0
62
5
10
0.032101906
20
0.72619775
30
0
70
32
0
VERTEX
8
0
62
5
10
0.060386177
20
0.72619777
30
0
70
32
0
VERTEX
8
0
62
5
10
0.088670449
20
0.71448204
30
0
70
32
0
VERTEX
8
0
62
5
10
0.11695472
20
0.71448202
30
0
70
32
0
SEQEND
8
0
0
POLYLINE
8
0
62
5
66
1
10
0
20
0
30
0
70
8
0
VERTEX
8
0
62
5
10
0.003817635
20
0.70962923
30
0
70
32
0
VERTEX
8
0
62
5
10
0.032101906
20
0.6979135
30
0
70
32
0
VERTEX
8
0
62
5
10
0.060386177
20
0.69791348
30
0
70
32
0
VERTEX
8
0
62
5
10
0.088670449
20
0.70962921
30
0
70
32
0
VERTEX
8
0
62
5
10
0.11695472
20
0.70962923
30
0
70
32
0
SEQEND
8
0
0
POLYLINE
8
0
62
5
66
1
10
0
20
0
30
0
70
8
0
VERTEX
8
0
62
5
10
0.003817635
20
0.73791352
30
0
70
32
0
VERTEX
8
0
62
5
10
0.032101906
20
0.72619779
30
0
70
32
0
VERTEX
8
0
62
5
10
0.060386177
20
0.72619777
30
0
70
32
0
VERTEX
8
0
62
5
10
0.088670449
20
0.7379135
30
0
70
32
0
VERTEX
8
0
62
5
10
0.11695472
20
0.73791352
30
0
70
32
0
SEQEND
8
0
0
POLYLINE
8
0
62
30
66
1
10
0
20
0
30
0
70
8
0
VERTEX
8
0
62
30
10
0.003817635
20
0.69791348
30
0
70
32
0
VERTEX
8
0
62
30
10
0.11695472
20
0.69791348
30
0
70
32
0
SEQEND
8
0
0
POLYLINE
8
0
62
30
66
1
10
0
20
0
30
0
70
8
0
VERTEX
8
0
62
30
10
0.003817635
20
0.72619777
30
0
70
32
0
VERTEX
8
0
62
30
10
0.11695472
20
0.72619777
30
0
70
32
0
SEQEND
8
0
0
POLYLINE
8
0
62
30
66
1
10
0
20
0
30
0
70
8
0
VERTEX
8
0
62
30
10
0.032101906
20
0.69791346
30
0
70
32
0
VERTEX
8
0
62
30
10
0.032101906
20
0.69791348
30
0
70
32
0
SEQEND
8
0
0
POLYLINE
8
0
62
30
66
1
10
0
20
0
30
0
70
8
0
VERTEX
8
0
62
30
10
0.060386177
20
0.69791348
30
0
70
32
0
VERTEX
8
0
62
30
10
0.060386177
20
0.69791348
30
0
70
32
0
SEQEND
8
0
0
POLYLINE
8
0
62
30
66
1
10
0
20
0
30
0
70
8
0
VERTEX
8
0
62
30
10
0.088670449
20
0.68619775
30
0
70
32
0
VERTEX
8
0
62
30
10
0.088670449
20
0.69791348
30
0
70
32
0
SEQEND
8
0
0
POLYLINE
8
0
62
30
66
1
10
0
20
0
30
0
70
8
0
VERTEX
8
0
62
30
10
0.032101906
20
0.72619775
30
0
70
32
0
VERTEX
8
0
62
30
10
0.032101906
20
0.72619777
30
0
70
32
0
SEQEND
8
0
0
POLYLINE
8
0
62
30
66
1
10
0
20
0
30
0
70
8
0
VERTEX
8
0
62
30
10
0.060386177
20
0.72619777
30
0
70
32
0
VERTEX
8
0
62
30
10
0.060386177
20
0.72619777
30
0
70
32
0
SEQEND
8
0
0
POLYLINE
8
0
62
30
66
1
10
0
20
0
30
0
70
8
0
VERTEX
8
0
62
30
10
0.088670449
20
0.71448204
30
0
70
32
0
VERTEX
8
0
62
30
10
0.088670449
20
0.72619777
30
0
70
32
0
SEQEND
8
0
0
POLYLINE
8
0
62
5
66
1
10
0
20
0
30
0
70
8
0
VERTEX
8
0
62
5
10
0.032101906
20
0.68377133
30
0
70
32
0
VERTEX
8
0
62
5
10
0.032101906
20
0.69791346
30
0
70
32
0
SEQEND
8
0
0
POLYLINE
8
0
62
5
66
1
10
0
20
0
30
0
70
8
0
VERTEX
8
0
62
5
10
0.060386177
20
0.68377133
30
0
70
32
0
VERTEX
8
0
62
5
10
0.060386177
20
0.69791348
30
0
70
32
0
SEQEND
8
0
0
POLYLINE
8
0
62
5
66
1
10
0
20
0
30
0
70
8
0
VERTEX
8
0
62
5
10
0.088670449
20
0.68377133
30
0
70
32
0
VERTEX
8
0
62
5
10
0.088670449
20
0.68619775
30
0
70
32
0
SEQEND
8
0
0
POLYLINE
8
0
62
5
66
1
10
0
20
0
30
0
70
8
0
VERTEX
8
0
62
5
10
0.032101906
20
0.71205563
30
0
70
32
0
VERTEX
8
0
62
5
10
0.032101906
20
0.72619775
30
0
70
32
0
SEQEND
8
0
0
POLYLINE
8
0
62
5
66
1
10
0
20
0
30
0
70
8
0
VERTEX
8
0
62
5
10
0.060386177
20
0.71205563
30
0
70
32
0
VERTEX
8
0
62
5
10
0.060386177
20
0.72619777
30
0
70
32
0
SEQEND
8
0
0
POLYLINE
8
0
62
5
66
1
10
0
20
0
30
0
70
8
0
VERTEX
8
0
62
5
10
0.088670449
20
0.71205563
30
0
70
32
0
VERTEX
8
0
62
5
10
0.088670449
20
0.71448204
30
0
70
32
0
SEQEND
8
0
0
POLYLINE
8
0
62
5
66
1
10
0
20
0
30
0
70
8
0
VERTEX
8
0
62
5
10
0.032101906
20
0.69791348
30
0
70
32
0
VERTEX
8
0
62
5
10
0.032101906
20
0.71205563
30
0
70
32
0
SEQEND
8
0
0
POLYLINE
8
0
62
5
66
1
10
0
20
0
30
0
70
8
0
VERTEX
8
0
62
5
10
0.060386177
20
0.69791348
30
0
70
32
0
VERTEX
8
0
62
5
10
0.060386177
20
0.71205563
30
0
70
32
0
SEQEND
8
0
0
POLYLINE
8
0
62
5
66
1
10
0
20
0
30
0
70
8
0
VERTEX
8
0
62
5
10
0.088670449
20
0.69791348
30
0
70
32
0
VERTEX
8
0
62
5
10
0.088670449
20
0.71205563
30
0
70
32
0
SEQEND
8
0
0
POLYLINE
8
0
62
5
66
1
10
0
20
0
30
0
70
8
0
VERTEX
8
0
62
5
10
0.032101906
20
0.72619777
30
0
70
32
0
VERTEX
8
0
62
5
10
0.032101906
20
0.74033992
30
0
70
32
0
SEQEND
8
0
0
POLYLINE
8
0
62
5
66
1
10
0
20
0
30
0
70
8
0
VERTEX
8
0
62
5
10
0.060386177
20
0.72619777
30
0
70
32
0
VERTEX
8
0
62
5
10
0.060386177
20
0.74033992
30
0
70
32
0
SEQEND
8
0
0
POLYLINE
8
0
62
5
66
1
10
0
20
0
30
0
70
8
0
VERTEX
8
0
62
5
10
0.088670449
20
0.72619777
30
0
70
32
0
VERTEX
8
0
62
5
10
0.088670449
20
0.74033992
30
0
70
32
0
SEQEND
8
0
0
POLYLINE
8
0
62
30
66
1
10
0
20
0
30
0
70
8
0
VERTEX
8
0
62
30
10
0.003817635
20
0.68619773
30
0
70
32
0
VERTEX
8
0
62
30
10
0.011645845
20
0.69791348
30
0
70
32
0
VERTEX
8
0
62
30
10
0.003817635
20
0.70962923
30
0
70
32
0
SEQEND
8
0
0
POLYLINE
8
0
62
30
66
1
10
0
20
0
30
0
70
8
0
VERTEX
8
0
62
30
10
0.032101906
20
0.69791346
30
0
70
32
0
VERTEX
8
0
62
30
10
0.032101938
20
0.69791348
30
0
70
32
0
VERTEX
8
0
62
30
10
0.032101906
20
0.6979135
30
0
70
32
0
SEQEND
8
0
0
POLYLINE
8
0
62
30
66
1
10
0
20
0
30
0
70
8
0
VERTEX
8
0
62
30
10
0.060386177
20
0.69791348
30
0
70
32
0
VERTEX
8
0
62
30
10
0.060386177
20
0.69791348
30
0
70
32
0
VERTEX
8
0
62
30
10
0.060386177
20
0.69791348
30
0
70
32
0
SEQEND
8
0
0
POLYLINE
8
0
62
30
66
1
10
0
20
0
30
0
70
8
0
VERTEX
8
0
62
30
10
0.088670449
20
0.68619775
30
0
70
32
0
VERTEX
8
0
62
30
10
0.096498652
20
0.69791348
30
0
70
32
0
VERTEX
8
0
62
30
10
0.088670449
20
0.70962921
30
0
70
32
0
SEQEND
8
0
0
POLYLINE
8
0
62
30
66
1
10
0
20
0
30
0
70
8
0
VERTEX
8
0
62
30
10
0.003817635
20
0.71448202
30
0
70
32
0
VERTEX
8
0
62
30
10
0.011645845
20
0.72619777
30
0
70
32
0
VERTEX
8
0
62
30
10
0.003817635
20
0.73791352
30
0
70
32
0
SEQEND
8
0
0
POLYLINE
8
0
62
30
66
1
10
0
20
0
30
0
70
8
0
VERTEX
8
0
62
30
10
0.032101906
20
0.72619775
30
0
70
32
0
VERTEX
8
0
62
30
10
0.032101938
20
0.72619777
30
0
70
32
0
VERTEX
8
0
62
30
10
0.032101906
20
0.72619779
30
0
70
32
0
SEQEND
8
0
0
POLYLINE
8
0
62
30
66
1
10
0
20
0
30
0
70
8
0
VERTEX
8
0
62
30
10
0.060386177
20
0.72619777
30
0
70
32
0
VERTEX
8
0
62
30
10
0.060386177
20
0.72619777
30
0
70
32
0
VERTEX
8
0
62
30
10
0.060386177
20
0.72619777
30
0
70
32
0
SEQEND
8
0
0
POLYLINE
8
0
62
30
66
1
10
0
20
0
30
0
70
8
0
VERTEX
8
0
62
30
10
0.088670449
20
0.71448204
30
0
70
32
0
VERTEX
8
0
62
30
10
0.096498652
20
0.72619777
30
0
70
32
0
VERTEX
8
0
62
30
10
0.088670449
20
0.7379135
30
0
70
32
0
SEQEND
8
0
0
POLYLINE
8
0
62
5
66
1
10
0
20
0
30
0
70
8
0
VERTEX
8
0
62
5
10
0.2300918
20
0.74033992
30
0
70
32
0
VERTEX
8
0
62
5
10
0.2300918
20
0.68377133
30
0
70
32
0
SEQEND
8
0
0
POLYLINE
8
0
62
5
66
1
10
0
20
0
30
0
70
8
0
VERTEX
8
0
62
5
10
0.11695472
20
0.68619773
30
0
70
32
0
VERTEX
8
0
62
5
10
0.14523899
20
0.69791346
30
0
70
32
0
VERTEX
8
0
62
5
10
0.17352326
20
0.69791348
30
0
70
32
0
VERTEX
8
0
62
5
10
0.20180753
20
0.68619775
30
0
70
32
0
VERTEX
8
0
62
5
10
0.2300918
20
0.68619773
30
0
70
32
0
SEQEND
8
0
0
POLYLINE
8
0
62
5
66
1
10
0
20
0
30
0
70
8
0
VERTEX
8
0
62
5
10
0.11695472
20
0.71448202
30
0
70
32
0
VERTEX
8
0
62
5
10
0.14523899
20
0.72619775
30
0
70
32
0
VERTEX
8
0
62
5
10
0.17352326
20
0.72619777
30
0
70
32
0
VERTEX
8
0
62
5
10
0.20180753
20
0.71448204
30
0
70
32
0
VERTEX
8
0
62
5
10
0.2300918
20
0.71448202
30
0
70
32
0
SEQEND
8
0
0
POLYLINE
8
0
62
5
66
1
10
0
20
0
30
0
70
8
0
VERTEX
8
0
62
5
10
0.11695472
20
0.70962923
30
0
70
32
0
VERTEX
8
0
62
5
10
0.14523899
20
0.6979135
30
0
70
32
0
VERTEX
8
0
62
5
10
0.17352326
20
0.69791348
30
0
70
32
0
VERTEX
8
0
62
5
10
0.20180753
20
0.70962921
30
0
70
32
0
VERTEX
8
0
62
5
10
0.2300918
20
0.70962923
30
0
70
32
0
SEQEND
8
0
0
POLYLINE
8
0
62
5
66
1
10
0
20
0
30
0
70
8
0
VERTEX
8
0
62
5
10
0.11695472
20
0.73791352
30
0
70
32
0
VERTEX
8
0
62
5
10
0.14523899
20
0.72619779
30
0
70
32
0
VERTEX
8
0
62
5
10
0.17352326
20
0.72619777
30
0
70
32
0
VERTEX
8
0
62
5
10
0.20180753
20
0.7379135
30
0
70
32
0
VERTEX
8
0
62
5
10
0.2300918
20
0.73791352
30
0
70
32
0
SEQEND
8
0
0
POLYLINE
8
0
62
30
66
1
10
0
20
0
30
0
70
8
0
VERTEX
8
0
62
30
10
0.11695472
20
0.69791348
30
0
70
32
0
VERTEX
8
0
62
30
10
0.2300918
20
0.69791348
30
0
70
32
0
SEQEND
8
0
0
POLYLINE
8
0
62
30
66
1
10
0
20
0
30
0
70
8
0
VERTEX
8
0
62
30
10
0.11695472
20
0.72619777
30
0
70
32
0
VERTEX
8
0
62
30
10
0.2300918
20
0.72619777
30
0
70
32
0
SEQEND
8
0
0
POLYLINE
8
0
62
30
66
1
10
0
20
0
30
0
70
8
0
VERTEX
8
0
62
30
10
0.14523899
20
0.69791346
30
0
70
32
0
VERTEX
8
0
62
30
10
0.14523899
20
0.69791348
30
0
70
32
0
SEQEND
8
0
0
POLYLINE
8
0
62
30
66
1
10
0
20
0
30
0
70
8
0
VERTEX
8
0
62
30
10
0.17352326
20
0.69791348
30
0
70
32
0
VERTEX
8
0
62
30
10
0.17352326
20
0.69791348
30
0
70
32
0
SEQEND
8
0
0
POLYLINE
8
0
62
30
66
1
10
0
20
0
30
0
70
8
0
VERTEX
8
0
62
30
10
0.20180753
20
0.68619775
30
0
70
32
0
VERTEX
8
0
62
30
10
0.20180753
20
0.69791348
30
0
70
32
0
SEQEND
8
0
0
POLYLINE
8
0
62
30
66
1
10
0
20
0
30
0
70
8
0
VERTEX
8
0
62
30
10
0.14523899
20
0.72619775
30
0
70
32
0
VERTEX
8
0
62
30
10
0.14523899
20
0.72619777
30
0
70
32
0
SEQEND
8
0
0
POLYLINE
8
0
62
30
66
1
10
0
20
0
30
0
70
8
0
VERTEX
8
0
62
30
10
0.17352326
20
0.72619777
30
0
70
32
0
VERTEX
8
0
62
30
10
0.17352326
20
0.72619777
30
0
70
32
0
SEQEND
8
0
0
POLYLINE
8
0
62
30
66
1
10
0
20
0
30
0
70
8
0
VERTEX
8
0
62
30
10
0.20180753
20
0.71448204
30
0
70
32
0
VERTEX
8
0
62
30
10
0.20180753
20
0.72619777
30
0
70
32
0
SEQEND
8
0
0
POLYLINE
8
0
62
5
66
1
10
0
20
0
30
0
70
8
0
VERTEX
8
0
62
5
10
0.14523899
20
0.68377133
30
0
70
32
0
VERTEX
8
0
62
5
10
0.14523899
20
0.69791346
30
0
70
32
0
SEQEND
8
0
0
POLYLINE
8
0
62
5
66
1
10
0
20
0
30
0
70
8
0
VERTEX
8
0
62
5
10
0.17352326
20
0.68377133
30
0
70
32
0
VERTEX
8
0
62
5
10
0.17352326
20
0.69791348
30
0
70
32
0
SEQEND
8
0
0
POLYLINE
8
0
62
5
66
1
10
0
20
0
30
0
70
8
0
VERTEX
8
0
62
5
10
0.20180753
20
0.68377133
30
0
70
32
0
VERTEX
8
0
62
5
10
0.20180753
20
0.68619775
30
0
70
32
0
SEQEND
8
0
0
POLYLINE
8
0
62
5
66
1
10
0
20
0
30
0
70
8
0
VERTEX
8
0
62
5
10
0.14523899
20
0.71205563
30
0
70
32
0
VERTEX
8
0
62
5
10
0.14523899
20
0.72619775
30
0
70
32
0
SEQEND
8
0
0
POLYLINE
8
0
62
5
66
1
10
0
20
0
30
0
70
8
0
VERTEX
8
0
62
5
10
0.17352326
20
0.71205563
30
0
70
32
0
VERTEX
8
0
62
5
10
0.17352326
20
0.72619777
30
0
70
32
0
SEQEND
8
0
0
POLYLINE
8
0
62
5
66
1
10
0
20
0
30
0
70
8
0
VERTEX
8
0
62
5
10
0.20180753
20
0.71205563
30
0
70
32
0
VERTEX
8
0
62
5
10
0.20180753
20
0.71448204
30
0
70
32
0
SEQEND
8
0
0
POLYLINE
8
0
62
5
66
1
10
0
20
0
30
0
70
8
0
VERTEX
8
0
62
5
10
0.14523899
20
0.69791348
30
0
70
32
0
VERTEX
8
0
62
5
10
0.14523899
20
0.71205563
30
0
70
32
0
SEQEND
8
0
0
POLYLINE
8
0
62
5
66
1
10
0
20
0
30
0
70
8
0
VERTEX
8
0
62
5
10
0.17352326
20
0.69791348
30
0
70
32
0
VERTEX
8
0
62
5
10
0.17352326
20
0.71205563
30
0
70
32
0
SEQEND
8
0
0
POLYLINE
8
0
62
5
66
1
10
0
20
0
30
0
70
8
0
VERTEX
8
0
62
5
10
0.20180753
20
0.69791348
30
0
70
32
0
VERTEX
8
0
62
5
10
0.20180753
20
0.71205563
30
0
70
32
0
SEQEND
8
0
0
POLYLINE
8
0
62
5
66
1
10
0
20
0
30
0
70
8
0
VERTEX
8
0
62
5
10
0.14523899
20
0.72619777
30
0
70
32
0
VERTEX
8
0
62
5
10
0.14523899
20
0.74033992
30
0
70
32
0
SEQEND
8
0
0
POLYLINE
8
0
62
5
66
1
10
0
20
0
30
0
70
8
0
VERTEX
8
0
62
5
10
0.17352326
20
0.72619777
30
0
70
32
0
VERTEX
8
0
62
5
10
0.17352326
20
0.74033992
30
0
70
32
0
SEQEND
8
0
0
POLYLINE
8
0
62
5
66
1
10
0
20
0
30
0
70
8
0
VERTEX
8
0
62
5
10
0.20180753
20
0.72619777
30
0
70
32
0
VERTEX
8
0
62
5
10
0.20180753
20
0.74033992
30
0
70
32
0
SEQEND
8
0
0
POLYLINE
8
0
62
30
66
1
10
0
20
0
30
0
70
8
0
VERTEX
8
0
62
30
10
0.11695472
20
0.68619773
30
0
70
32
0
VERTEX
8
0
62
30
10
0.12478293
20
0.69791348
30
0
70
32
0
VERTEX
8
0
62
30
10
0.11695472
20
0.70962923
30
0
70
32
0
SEQEND
8
0
0
POLYLINE
8
0
62
30
66
1
10
0
20
0
30
0
70
8
0
VERTEX
8
0
62
30
10
0.14523899
20
0.69791346
30
0
70
32
0
VERTEX
8
0
62
30
10
0.14523902
20
0.69791348
30
0
70
32
0
VERTEX
8
0
62
30
10
0.14523899
20
0.6979135
30
0
70
32
0
SEQEND
8
0
0
POLYLINE
8
0
62
30
66
1
10
0
20
0
30
0
70
8
0
VERTEX
8
0
62
30
10
0.17352326
20
0.69791348
30
0
70
32
0
VERTEX
8
0
62
30
10
0.17352326
20
0.69791348
30
0
70
32
0
VERTEX
8
0
62
30
10
0.17352326
20
0.69791348
30
0
70
32
0
SEQEND
8
0
0
POLYLINE
8
0
62
30
66
1
10
0
20
0
30
0
70
8
0
VERTEX
8
0
62
30
10
0.20180753
20
0.68619775
30
0
70
32
0
VERTEX
8
0
62
30
10
0.20963574
20
0.69791348
30
0
70
32
0
VERTEX
8
0
62
30
10
0.20180753
20
0.70962921
30
0
70
32
0
SEQEND
8
0
0
POLYLINE
8
0
62
30
66
1
10
0
20
0
30
0
70
8
0
VERTEX
8
0
62
30
10
0.11695472
20
0.71448202
30
0
70
32
0
VERTEX
8
0
62
30
10
0.12478293
20
0.72619777
30
0
70
32
0
VERTEX
8
0
62
30
10
0.11695472
20
0.73791352
30
0
70
32
0
SEQEND
8
0
0
POLYLINE
8
0
62
30
66
1
10
0
20
0
30
0
70
8
0
VERTEX
8
0
62
30
10
0.14523899
20
0.72619775
30
0
70
32
0
VERTEX
8
0
62
30
10
0.14523902
20
0.72619777
30
0
70
32
0
VERTEX
8
0
62
30
10
0.14523899
20
0.72619779
30
0
70
32
0
SEQEND
8
0
0
POLYLINE
8
0
62
30
66
1
10
0
20
0
30
0
70
8
0
VERTEX
8
0
62
30
10
0.17352326
20
0.72619777
30
0
70
32
0
VERTEX
8
0
62
30
10
0.17352326
20
0.72619777
30
0
70
32
0
VERTEX
8
0
62
30
10
0.17352326
20
0.72619777
30
0
70
32
0
SEQEND
8
0
0
POLYLINE
8
0
62
30
66
1
10
0
20
0
30
0
70
8
0
VERTEX
8
0
62
30
10
0.20180753
20
0.71448204
30
0
70
32
0
VERTEX
8
0
62
30
10
0.20963574
20
0.72619777
30
0
70
32
0
VERTEX
8
0
62
30
10
0.20180753
20
0.7379135
30
0
70
32
0
SEQEND
8
0
0
POLYLINE
8
0
62
5
66
1
10
0
20
0
30
0
70
8
0
VERTEX
8
0
62
5
10
-0.10931945
20
0.68377133
30
0
70
32
0
VERTEX
8
0
62
5
10
-0.10931945
20
0.74033992
30
0
70
32
0
SEQEND
8
0
0
POLYLINE
8
0
62
5
66
1
10
0
20
0
30
0
70
8
0
VERTEX
8
0
62
5
10
-0.10931945
20
0.68619773
30
0
70
32
0
VERTEX
8
0
62
5
10
-0.081035179
20
0.69791346
30
0
70
32
0
VERTEX
8
0
62
5
10
-0.052750908
20
0.69791348
30
0
70
32
0
VERTEX
8
0
62
5
10
-0.024466636
20
0.68619775
30
0
70
32
0
VERTEX
8
0
62
5
10
0.003817635
20
0.68619773
30
0
70
32
0
SEQEND
8
0
0
POLYLINE
8
0
62
5
66
1
10
0
20
0
30
0
70
8
0
VERTEX
8
0
62
5
10
-0.10931945
20
0.71448202
30
0
70
32
0
VERTEX
8
0
62
5
10
-0.081035179
20
0.72619775
30
0
70
32
0
VERTEX
8
0
62
5
10
-0.052750908
20
0.72619777
30
0
70
32
0
VERTEX
8
0
62
5
10
-0.024466636
20
0.71448204
30
0
70
32
0
VERTEX
8
0
62
5
10
0.003817635
20
0.71448202
30
0
70
32
0
SEQEND
8
0
0
POLYLINE
8
0
62
5
66
1
10
0
20
0
30
0
70
8
0
VERTEX
8
0
62
5
10
-0.10931945
20
0.70962923
30
0
70
32
0
VERTEX
8
0
62
5
10
-0.081035179
20
0.6979135
30
0
70
32
0
VERTEX
8
0
62
5
10
-0.052750908
20
0.69791348
30
0
70
32
0
VERTEX
8
0
62
5
10
-0.024466636
20
0.70962921
30
0
70
32
0
VERTEX
8
0
62
5
10
0.003817635
20
0.70962923
30
0
70
32
0
SEQEND
8
0
0
POLYLINE
8
0
62
5
66
1
10
0
20
0
30
0
70
8
0
VERTEX
8
0
62
5
10
-0.10931945
20
0.73791352
30
0
70
32
0
VERTEX
8
0
62
5
10
-0.081035179
20
0.72619779
30
0
70
32
0
VERTEX
8
0
62
5
10
-0.052750908
20
0.72619777
30
0
70
32
0
VERTEX
8
0
62
5
10
-0.024466636
20
0.7379135
30
0
70
32
0
VERTEX
8
0
62
5
10
0.003817635
20
0.73791352
30
0
70
32
0
SEQEND
8
0
0
POLYLINE
8
0
62
30
66
1
10
0
20
0
30
0
70
8
0
VERTEX
8
0
62
30
10
-0.10931945
20
0.69791348
30
0
70
32
0
VERTEX
8
0
62
30
10
0.003817635
20
0.69791348
30
0
70
32
0
SEQEND
8
0
0
POLYLINE
8
0
62
30
66
1
10
0
20
0
30
0
70
8
0
VERTEX
8
0
62
30
10
-0.10931945
20
0.72619777
30
0
70
32
0
VERTEX
8
0
62
30
10
0.003817635
20
0.72619777
30
0
70
32
0
SEQEND
8
0
0
POLYLINE
8
0
62
30
66
1
10
0
20
0
30
0
70
8
0
VERTEX
8
0
62
30
10
-0.081035179
20
0.69791346
30
0
70
32
0
VERTEX
8
0
62
30
10
-0.081035179
20
0.69791348
30
0
70
32
0
SEQEND
8
0
0
POLYLINE
8
0
62
30
66
1
10
0
20
0
30
0
70
8
0
VERTEX
8
0
62
30
10
-0.052750908
20
0.69791348
30
0
70
32
0
VERTEX
8
0
62
30
10
-0.052750908
20
0.69791348
30
0
70
32
0
SEQEND
8
0
0
POLYLINE
8
0
62
30
66
1
10
0
20
0
30
0
70
8
0
VERTEX
8
0
62
30
10
-0.024466636
20
0.68619775
30
0
70
32
0
VERTEX
8
0
62
30
10
-0.024466636
20
0.69791348
30
0
70
32
0
SEQEND
8
0
0
POLYLINE
8
0
62
30
66
1
10
0
20
0
30
0
70
8
0
VERTEX
8
0
62
30
10
-0.081035179
20
0.72619775
30
0
70
32
0
VERTEX
8
0
62
30
10
-0.081035179
20
0.72619777
30
0
70
32
0
SEQEND
8
0
0
POLYLINE
8
0
62
30
66
1
10
0
20
0
30
0
70
8
0
VERTEX
8
0
62
30
10
-0.052750908
20
0.72619777
30
0
70
32
0
VERTEX
8
0
62
30
10
-0.052750908
20
0.72619777
30
0
70
32
0
SEQEND
8
0
0
POLYLINE
8
0
62
30
66
1
10
0
20
0
30
0
70
8
0
VERTEX
8
0
62
30
10
-0.024466636
20
0.71448204
30
0
70
32
0
VERTEX
8
0
62
30
10
-0.024466636
20
0.72619777
30
0
70
32
0
SEQEND
8
0
0
POLYLINE
8
0
62
5
66
1
10
0
20
0
30
0
70
8
0
VERTEX
8
0
62
5
10
-0.081035179
20
0.68377133
30
0
70
32
0
VERTEX
8
0
62
5
10
-0.081035179
20
0.69791346
30
0
70
32
0
SEQEND
8
0
0
POLYLINE
8
0
62
5
66
1
10
0
20
0
30
0
70
8
0
VERTEX
8
0
62
5
10
-0.052750908
20
0.68377133
30
0
70
32
0
VERTEX
8
0
62
5
10
-0.052750908
20
0.69791348
30
0
70
32
0
SEQEND
8
0
0
POLYLINE
8
0
62
5
66
1
10
0
20
0
30
0
70
8
0
VERTEX
8
0
62
5
10
-0.024466636
20
0.68377133
30
0
70
32
0
VERTEX
8
0
62
5
10
-0.024466636
20
0.68619775
30
0
70
32
0
SEQEND
8
0
0
POLYLINE
8
0
62
5
66
1
10
0
20
0
30
0
70
8
0
VERTEX
8
0
62
5
10
-0.081035179
20
0.71205563
30
0
70
32
0
VERTEX
8
0
62
5
10
-0.081035179
20
0.72619775
30
0
70
32
0
SEQEND
8
0
0
POLYLINE
8
0
62
5
66
1
10
0
20
0
30
0
70
8
0
VERTEX
8
0
62
5
10
-0.052750908
20
0.71205563
30
0
70
32
0
VERTEX
8
0
62
5
10
-0.052750908
20
0.72619777
30
0
70
32
0
SEQEND
8
0
0
POLYLINE
8
0
62
5
66
1
10
0
20
0
30
0
70
8
0
VERTEX
8
0
62
5
10
-0.024466636
20
0.71205563
30
0
70
32
0
VERTEX
8
0
62
5
10
-0.024466636
20
0.71448204
30
0
70
32
0
SEQEND
8
0
0
POLYLINE
8
0
62
5
66
1
10
0
20
0
30
0
70
8
0
VERTEX
8
0
62
5
10
-0.081035179
20
0.69791348
30
0
70
32
0
VERTEX
8
0
62
5
10
-0.081035179
20
0.71205563
30
0
70
32
0
SEQEND
8
0
0
POLYLINE
8
0
62
5
66
1
10
0
20
0
30
0
70
8
0
VERTEX
8
0
62
5
10
-0.052750908
20
0.69791348
30
0
70
32
0
VERTEX
8
0
62
5
10
-0.052750908
20
0.71205563
30
0
70
32
0
SEQEND
8
0
0
POLYLINE
8
0
62
5
66
1
10
0
20
0
30
0
70
8
0
VERTEX
8
0
62
5
10
-0.024466636
20
0.69791348
30
0
70
32
0
VERTEX
8
0
62
5
10
-0.024466636
20
0.71205563
30
0
70
32
0
SEQEND
8
0
0
POLYLINE
8
0
62
5
66
1
10
0
20
0
30
0
70
8
0
VERTEX
8
0
62
5
10
-0.081035179
20
0.72619777
30
0
70
32
0
VERTEX
8
0
62
5
10
-0.081035179
20
0.74033992
30
0
70
32
0
SEQEND
8
0
0
POLYLINE
8
0
62
5
66
1
10
0
20
0
30
0
70
8
0
VERTEX
8
0
62
5
10
-0.052750908
20
0.72619777
30
0
70
32
0
VERTEX
8
0
62
5
10
-0.052750908
20
0.74033992
30
0
70
32
0
SEQEND
8
0
0
POLYLINE
8
0
62
5
66
1
10
0
20
0
30
0
70
8
0
VERTEX
8
0
62
5
10
-0.024466636
20
0.72619777
30
0
70
32
0
VERTEX
8
0
62
5
10
-0.024466636
20
0.74033992
30
0
70
32
0
SEQEND
8
0
0
POLYLINE
8
0
62
30
66
1
10
0
20
0
30
0
70
8
0
VERTEX
8
0
62
30
10
-0.10931945
20
0.68619773
30
0
70
32
0
VERTEX
8
0
62
30
10
-0.10149124
20
0.69791348
30
0
70
32
0
VERTEX
8
0
62
30
10
-0.10931945
20
0.70962923
30
0
70
32
0
SEQEND
8
0
0
POLYLINE
8
0
62
30
66
1
10
0
20
0
30
0
70
8
0
VERTEX
8
0
62
30
10
-0.081035179
20
0.69791346
30
0
70
32
0
VERTEX
8
0
62
30
10
-0.081035147
20
0.69791348
30
0
70
32
0
VERTEX
8
0
62
30
10
-0.081035179
20
0.6979135
30
0
70
32
0
SEQEND
8
0
0
POLYLINE
8
0
62
30
66
1
10
0
20
0
30
0
70
8
0
VERTEX
8
0
62
30
10
-0.052750908
20
0.69791348
30
0
70
32
0
VERTEX
8
0
62
30
10
-0.052750908
20
0.69791348
30
0
70
32
0
VERTEX
8
0
62
30
10
-0.052750908
20
0.69791348
30
0
70
32
0
SEQEND
8
0
0
POLYLINE
8
0
62
30
66
1
10
0
20
0
30
0
70
8
0
VERTEX
8
0
62
30
10
-0.024466636
20
0.68619775
30
0
70
32
0
VERTEX
8
0
62
30
10
-0.016638433
20
0.69791348
30
0
70
32
0
VERTEX
8
0
62
30
10
-0.024466636
20
0.70962921
30
0
70
32
0
SEQEND
8
0
0
POLYLINE
8
0
62
30
66
1
10
0
20
0
30
0
70
8
0
VERTEX
8
0
62
30
10
-0.10931945
20
0.71448202
30
0
70
32
0
VERTEX
8
0
62
30
10
-0.10149124
20
0.72619777
30
0
70
32
0
VERTEX
8
0
62
30
10
-0.10931945
20
0.73791352
30
0
70
32
0
SEQEND
8
0
0
POLYLINE
8
0
62
30
66
1
10
0
20
0
30
0
70
8
0
VERTEX
8
0
62
30
10
-0.081035179
20
0.72619775
30
0
70
32
0
VERTEX
8
0
62
30
10
-0.081035147
20
0.72619777
30
0
70
32
0
VERTEX
8
0
62
30
10
-0.081035179
20
0.72619779
30
0
70
32
0
SEQEND
8
0
0
POLYLINE
8
0
62
30
66
1
10
0
20
0
30
0
70
8
0
VERTEX
8
0
62
30
10
-0.052750908
20
0.72619777
30
0
70
32
0
VERTEX
8
0
62
30
10
-0.052750908
20
0.72619777
30
0
70
32
0
VERTEX
8
0
62
30
10
-0.052750908
20
0.72619777
30
0
70
32
0
SEQEND
8
0
0
POLYLINE
8
0
62
30
66
1
10
0
20
0
30
0
70
8
0
VERTEX
8
0
62
30
10
-0.024466636
20
0.71448204
30
0
70
32
0
VERTEX
8
0
62
30
10
-0.016638433
20
0.72619777
30
0
70
32
0
VERTEX
8
0
62
30
10
-0.024466636
20
0.7379135
30
0
70
32
0
SEQEND
8
0
0
POLYLINE
8
0
62
5
66
1
10
0
20
0
30
0
70
8
0
VERTEX
8
0
62
5
10
0.003817635
20
0.74033992
30
0
70
32
0
VERTEX
8
0
62
5
10
0.003817635
20
0.78033992
30
0
70
32
0
SEQEND
8
0
0
POLYLINE
8
0
62
5
66
1
10
0
20
0
30
0
70
8
0
VERTEX
8
0
62
5
10
0.11695472
20
0.78033992
30
0
70
32
0
VERTEX
8
0
62
5
10
0.11695472
20
0.74033992
30
0
70
32
0
SEQEND
8
0
0
POLYLINE
8
0
62
5
66
1
10
0
20
0
30
0
70
8
0
VERTEX
8
0
62
5
10
0.003817635
20
0.74033992
30
0
70
32
0
VERTEX
8
0
62
5
10
0.11695472
20
0.74033992
30
0
70
32
0
SEQEND
8
0
0
POLYLINE
8
0
62
5
66
1
10
0
20
0
30
0
70
8
0
VERTEX
8
0
62
5
10
0.003817635
20
0.78033992
30
0
70
32
0
VERTEX
8
0
62
5
10
0.11695472
20
0.78033992
30
0
70
32
0
SEQEND
8
0
0
POLYLINE
8
0
62
5
66
1
10
0
20
0
30
0
70
8
0
VERTEX
8
0
62
5
10
0.032101906
20
0.74033992
30
0
70
32
0
VERTEX
8
0
62
5
10
0.032101906
20
0.74033992
30
0
70
32
0
SEQEND
8
0
0
POLYLINE
8
0
62
5
66
1
10
0
20
0
30
0
70
8
0
VERTEX
8
0
62
5
10
0.060386177
20
0.74033992
30
0
70
32
0
VERTEX
8
0
62
5
10
0.060386177
20
0.74033992
30
0
70
32
0
SEQEND
8
0
0
POLYLINE
8
0
62
5
66
1
10
0
20
0
30
0
70
8
0
VERTEX
8
0
62
5
10
0.088670449
20
0.74033992
30
0
70
32
0
VERTEX
8
0
62
5
10
0.088670449
20
0.74033992
30
0
70
32
0
SEQEND
8
0
0
POLYLINE
8
0
62
5
66
1
10
0
20
0
30
0
70
8
0
VERTEX
8
0
62
5
10
0.032101906
20
0.78033992
30
0
70
32
0
VERTEX
8
0
62
5
10
0.032101906
20
0.78033992
30
0
70
32
0
SEQEND
8
0
0
POLYLINE
8
0
62
5
66
1
10
0
20
0
30
0
70
8
0
VERTEX
8
0
62
5
10
0.060386177
20
0.78033992
30
0
70
32
0
VERTEX
8
0
62
5
10
0.060386177
20
0.78033992
30
0
70
32
0
SEQEND
8
0
0
POLYLINE
8
0
62
5
66
1
10
0
20
0
30
0
70
8
0
VERTEX
8
0
62
5
10
0.088670449
20
0.78033992
30
0
70
32
0
VERTEX
8
0
62
5
10
0.088670449
20
0.78033992
30
0
70
32
0
SEQEND
8
0
0
POLYLINE
8
0
62
30
66
1
10
0
20
0
30
0
70
8
0
VERTEX
8
0
62
30
10
0.003817635
20
0.78033992
30
0
70
32
0
VERTEX
8
0
62
30
10
0.032101906
20
0.74033992
30
0
70
32
0
SEQEND
8
0
0
POLYLINE
8
0
62
30
66
1
10
0
20
0
30
0
70
8
0
VERTEX
8
0
62
30
10
0.032101906
20
0.78033992
30
0
70
32
0
VERTEX
8
0
62
30
10
0.003817635
20
0.74033992
30
0
70
32
0
SEQEND
8
0
0
POLYLINE
8
0
62
30
66
1
10
0
20
0
30
0
70
8
0
VERTEX
8
0
62
30
10
0.060386177
20
0.78033992
30
0
70
32
0
VERTEX
8
0
62
30
10
0.088670449
20
0.74033992
30
0
70
32
0
SEQEND
8
0
0
POLYLINE
8
0
62
30
66
1
10
0
20
0
30
0
70
8
0
VERTEX
8
0
62
30
10
0.088670449
20
0.78033992
30
0
70
32
0
VERTEX
8
0
62
30
10
0.060386177
20
0.74033992
30
0
70
32
0
SEQEND
8
0
0
POLYLINE
8
0
62
30
66
1
10
0
20
0
30
0
70
8
0
VERTEX
8
0
62
30
10
0.032101906
20
0.76033992
30
0
70
32
0
VERTEX
8
0
62
30
10
0.060386177
20
0.76033992
30
0
70
32
0
SEQEND
8
0
0
POLYLINE
8
0
62
30
66
1
10
0
20
0
30
0
70
8
0
VERTEX
8
0
62
30
10
0.088670449
20
0.76033992
30
0
70
32
0
VERTEX
8
0
62
30
10
0.11695472
20
0.76033992
30
0
70
32
0
SEQEND
8
0
0
POLYLINE
8
0
62
5
66
1
10
0
20
0
30
0
70
8
0
VERTEX
8
0
62
5
10
0.003817635
20
0.76033992
30
0
70
32
0
VERTEX
8
0
62
5
10
0.017959771
20
0.76033992
30
0
70
32
0
SEQEND
8
0
0
POLYLINE
8
0
62
5
66
1
10
0
20
0
30
0
70
8
0
VERTEX
8
0
62
5
10
0.060386177
20
0.76033992
30
0
70
32
0
VERTEX
8
0
62
5
10
0.074528313
20
0.76033992
30
0
70
32
0
SEQEND
8
0
0
POLYLINE
8
0
62
5
66
1
10
0
20
0
30
0
70
8
0
VERTEX
8
0
62
5
10
0.017959771
20
0.76033992
30
0
70
32
0
VERTEX
8
0
62
5
10
0.032101906
20
0.76033992
30
0
70
32
0
SEQEND
8
0
0
POLYLINE
8
0
62
5
66
1
10
0
20
0
30
0
70
8
0
VERTEX
8
0
62
5
10
0.074528313
20
0.76033992
30
0
70
32
0
VERTEX
8
0
62
5
10
0.088670449
20
0.76033992
30
0
70
32
0
SEQEND
8
0
0
POLYLINE
8
0
62
5
66
1
10
0
20
0
30
0
70
8
0
VERTEX
8
0
62
5
10
0.032101906
20
0.74033992
30
0
70
32
0
VERTEX
8
0
62
5
10
0.032101906
20
0.78033992
30
0
70
32
0
SEQEND
8
0
0
POLYLINE
8
0
62
5
66
1
10
0
20
0
30
0
70
8
0
VERTEX
8
0
62
5
10
0.060386177
20
0.74033992
30
0
70
32
0
VERTEX
8
0
62
5
10
0.060386177
20
0.78033992
30
0
70
32
0
SEQEND
8
0
0
POLYLINE
8
0
62
5
66
1
10
0
20
0
30
0
70
8
0
VERTEX
8
0
62
5
10
0.088670449
20
0.74033992
30
0
70
32
0
VERTEX
8
0
62
5
10
0.088670449
20
0.78033992
30
0
70
32
0
SEQEND
8
0
0
POLYLINE
8
0
62
5
66
1
10
0
20
0
30
0
70
8
0
VERTEX
8
0
62
5
10
0.003817635
20
0.74033992
30
0
70
32
0
VERTEX
8
0
62
5
10
0.003817635
20
0.78033992
30
0
70
32
0
SEQEND
8
0
0
POLYLINE
8
0
62
5
66
1
10
0
20
0
30
0
70
8
0
VERTEX
8
0
62
5
10
0.2300918
20
0.78033992
30
0
70
32
0
VERTEX
8
0
62
5
10
0.2300918
20
0.74033992
30
0
70
32
0
SEQEND
8
0
0
POLYLINE
8
0
62
5
66
1
10
0
20
0
30
0
70
8
0
VERTEX
8
0
62
5
10
0.11695472
20
0.74033992
30
0
70
32
0
VERTEX
8
0
62
5
10
0.2300918
20
0.74033992
30
0
70
32
0
SEQEND
8
0
0
POLYLINE
8
0
62
5
66
1
10
0
20
0
30
0
70
8
0
VERTEX
8
0
62
5
10
0.11695472
20
0.78033992
30
0
70
32
0
VERTEX
8
0
62
5
10
0.2300918
20
0.78033992
30
0
70
32
0
SEQEND
8
0
0
POLYLINE
8
0
62
5
66
1
10
0
20
0
30
0
70
8
0
VERTEX
8
0
62
5
10
0.14523899
20
0.74033992
30
0
70
32
0
VERTEX
8
0
62
5
10
0.14523899
20
0.74033992
30
0
70
32
0
SEQEND
8
0
0
POLYLINE
8
0
62
5
66
1
10
0
20
0
30
0
70
8
0
VERTEX
8
0
62
5
10
0.17352326
20
0.74033992
30
0
70
32
0
VERTEX
8
0
62
5
10
0.17352326
20
0.74033992
30
0
70
32
0
SEQEND
8
0
0
POLYLINE
8
0
62
5
66
1
10
0
20
0
30
0
70
8
0
VERTEX
8
0
62
5
10
0.20180753
20
0.74033992
30
0
70
32
0
VERTEX
8
0
62
5
10
0.20180753
20
0.74033992
30
0
70
32
0
SEQEND
8
0
0
POLYLINE
8
0
62
5
66
1
10
0
20
0
30
0
70
8
0
VERTEX
8
0
62
5
10
0.14523899
20
0.78033992
30
0
70
32
0
VERTEX
8
0
62
5
10
0.14523899
20
0.78033992
30
0
70
32
0
SEQEND
8
0
0
POLYLINE
8
0
62
5
66
1
10
0
20
0
30
0
70
8
0
VERTEX
8
0
62
5
10
0.17352326
20
0.78033992
30
0
70
32
0
VERTEX
8
0
62
5
10
0.17352326
20
0.78033992
30
0
70
32
0
SEQEND
8
0
0
POLYLINE
8
0
62
5
66
1
10
0
20
0
30
0
70
8
0
VERTEX
8
0
62
5
10
0.20180753
20
0.78033992
30
0
70
32
0
VERTEX
8
0
62
5
10
0.20180753
20
0.78033992
30
0
70
32
0
SEQEND
8
0
0
POLYLINE
8
0
62
30
66
1
10
0
20
0
30
0
70
8
0
VERTEX
8
0
62
30
10
0.11695472
20
0.78033992
30
0
70
32
0
VERTEX
8
0
62
30
10
0.14523899
20
0.74033992
30
0
70
32
0
SEQEND
8
0
0
POLYLINE
8
0
62
30
66
1
10
0
20
0
30
0
70
8
0
VERTEX
8
0
62
30
10
0.14523899
20
0.78033992
30
0
70
32
0
VERTEX
8
0
62
30
10
0.11695472
20
0.74033992
30
0
70
32
0
SEQEND
8
0
0
POLYLINE
8
0
62
30
66
1
10
0
20
0
30
0
70
8
0
VERTEX
8
0
62
30
10
0.17352326
20
0.78033992
30
0
70
32
0
VERTEX
8
0
62
30
10
0.20180753
20
0.74033992
30
0
70
32
0
SEQEND
8
0
0
POLYLINE
8
0
62
30
66
1
10
0
20
0
30
0
70
8
0
VERTEX
8
0
62
30
10
0.20180753
20
0.78033992
30
0
70
32
0
VERTEX
8
0
62
30
10
0.17352326
20
0.74033992
30
0
70
32
0
SEQEND
8
0
0
POLYLINE
8
0
62
30
66
1
10
0
20
0
30
0
70
8
0
VERTEX
8
0
62
30
10
0.14523899
20
0.76033992
30
0
70
32
0
VERTEX
8
0
62
30
10
0.17352326
20
0.76033992
30
0
70
32
0
SEQEND
8
0
0
POLYLINE
8
0
62
30
66
1
10
0
20
0
30
0
70
8
0
VERTEX
8
0
62
30
10
0.20180753
20
0.76033992
30
0
70
32
0
VERTEX
8
0
62
30
10
0.2300918
20
0.76033992
30
0
70
32
0
SEQEND
8
0
0
POLYLINE
8
0
62
5
66
1
10
0
20
0
30
0
70
8
0
VERTEX
8
0
62
5
10
0.11695472
20
0.76033992
30
0
70
32
0
VERTEX
8
0
62
5
10
0.13109686
20
0.76033992
30
0
70
32
0
SEQEND
8
0
0
POLYLINE
8
0
62
5
66
1
10
0
20
0
30
0
70
8
0
VERTEX
8
0
62
5
10
0.17352326
20
0.76033992
30
0
70
32
0
VERTEX
8
0
62
5
10
0.1876654
20
0.76033992
30
0
70
32
0
SEQEND
8
0
0
POLYLINE
8
0
62
5
66
1
10
0
20
0
30
0
70
8
0
VERTEX
8
0
62
5
10
0.13109686
20
0.76033992
30
0
70
32
0
VERTEX
8
0
62
5
10
0.14523899
20
0.76033992
30
0
70
32
0
SEQEND
8
0
0
POLYLINE
8
0
62
5
66
1
10
0
20
0
30
0
70
8
0
VERTEX
8
0
62
5
10
0.1876654
20
0.76033992
30
0
70
32
0
VERTEX
8
0
62
5
10
0.20180753
20
0.76033992
30
0
70
32
0
SEQEND
8
0
0
POLYLINE
8
0
62
5
66
1
10
0
20
0
30
0
70
8
0
VERTEX
8
0
62
5
10
0.14523899
20
0.74033992
30
0
70
32
0
VERTEX
8
0
62
5
10
0.14523899
20
0.78033992
30
0
70
32
0
SEQEND
8
0
0
POLYLINE
8
0
62
5
66
1
10
0
20
0
30
0
70
8
0
VERTEX
8
0
62
5
10
0.17352326
20
0.74033992
30
0
70
32
0
VERTEX
8
0
62
5
10
0.17352326
20
0.78033992
30
0
70
32
0
SEQEND
8
0
0
POLYLINE
8
0
62
5
66
1
10
0
20
0
30
0
70
8
0
VERTEX
8
0
62
5
10
0.20180753
20
0.74033992
30
0
70
32
0
VERTEX
8
0
62
5
10
0.20180753
20
0.78033992
30
0
70
32
0
SEQEND
8
0
0
POLYLINE
8
0
62
5
66
1
10
0
20
0
30
0
70
8
0
VERTEX
8
0
62
5
10
0.11695472
20
0.74033992
30
0
70
32
0
VERTEX
8
0
62
5
10
0.11695472
20
0.78033992
30
0
70
32
0
SEQEND
8
0
0
POLYLINE
8
0
62
5
66
1
10
0
20
0
30
0
70
8
0
VERTEX
8
0
62
5
10
-0.10931945
20
0.74033992
30
0
70
32
0
VERTEX
8
0
62
5
10
-0.10931945
20
0.78033992
30
0
70
32
0
SEQEND
8
0
0
POLYLINE
8
0
62
5
66
1
10
0
20
0
30
0
70
8
0
VERTEX
8
0
62
5
10
-0.10931945
20
0.74033992
30
0
70
32
0
VERTEX
8
0
62
5
10
0.003817635
20
0.74033992
30
0
70
32
0
SEQEND
8
0
0
POLYLINE
8
0
62
5
66
1
10
0
20
0
30
0
70
8
0
VERTEX
8
0
62
5
10
-0.10931945
20
0.78033992
30
0
70
32
0
VERTEX
8
0
62
5
10
0.003817635
20
0.78033992
30
0
70
32
0
SEQEND
8
0
0
POLYLINE
8
0
62
5
66
1
10
0
20
0
30
0
70
8
0
VERTEX
8
0
62
5
10
-0.081035179
20
0.74033992
30
0
70
32
0
VERTEX
8
0
62
5
10
-0.081035179
20
0.74033992
30
0
70
32
0
SEQEND
8
0
0
POLYLINE
8
0
62
5
66
1
10
0
20
0
30
0
70
8
0
VERTEX
8
0
62
5
10
-0.052750908
20
0.74033992
30
0
70
32
0
VERTEX
8
0
62
5
10
-0.052750908
20
0.74033992
30
0
70
32
0
SEQEND
8
0
0
POLYLINE
8
0
62
5
66
1
10
0
20
0
30
0
70
8
0
VERTEX
8
0
62
5
10
-0.024466636
20
0.74033992
30
0
70
32
0
VERTEX
8
0
62
5
10
-0.024466636
20
0.74033992
30
0
70
32
0
SEQEND
8
0
0
POLYLINE
8
0
62
5
66
1
10
0
20
0
30
0
70
8
0
VERTEX
8
0
62
5
10
-0.081035179
20
0.78033992
30
0
70
32
0
VERTEX
8
0
62
5
10
-0.081035179
20
0.78033992
30
0
70
32
0
SEQEND
8
0
0
POLYLINE
8
0
62
5
66
1
10
0
20
0
30
0
70
8
0
VERTEX
8
0
62
5
10
-0.052750908
20
0.78033992
30
0
70
32
0
VERTEX
8
0
62
5
10
-0.052750908
20
0.78033992
30
0
70
32
0
SEQEND
8
0
0
POLYLINE
8
0
62
5
66
1
10
0
20
0
30
0
70
8
0
VERTEX
8
0
62
5
10
-0.024466636
20
0.78033992
30
0
70
32
0
VERTEX
8
0
62
5
10
-0.024466636
20
0.78033992
30
0
70
32
0
SEQEND
8
0
0
POLYLINE
8
0
62
30
66
1
10
0
20
0
30
0
70
8
0
VERTEX
8
0
62
30
10
-0.10931945
20
0.78033992
30
0
70
32
0
VERTEX
8
0
62
30
10
-0.081035179
20
0.74033992
30
0
70
32
0
SEQEND
8
0
0
POLYLINE
8
0
62
30
66
1
10
0
20
0
30
0
70
8
0
VERTEX
8
0
62
30
10
-0.081035179
20
0.78033992
30
0
70
32
0
VERTEX
8
0
62
30
10
-0.10931945
20
0.74033992
30
0
70
32
0
SEQEND
8
0
0
POLYLINE
8
0
62
30
66
1
10
0
20
0
30
0
70
8
0
VERTEX
8
0
62
30
10
-0.052750908
20
0.78033992
30
0
70
32
0
VERTEX
8
0
62
30
10
-0.024466636
20
0.74033992
30
0
70
32
0
SEQEND
8
0
0
POLYLINE
8
0
62
30
66
1
10
0
20
0
30
0
70
8
0
VERTEX
8
0
62
30
10
-0.024466636
20
0.78033992
30
0
70
32
0
VERTEX
8
0
62
30
10
-0.052750908
20
0.74033992
30
0
70
32
0
SEQEND
8
0
0
POLYLINE
8
0
62
30
66
1
10
0
20
0
30
0
70
8
0
VERTEX
8
0
62
30
10
-0.081035179
20
0.76033992
30
0
70
32
0
VERTEX
8
0
62
30
10
-0.052750908
20
0.76033992
30
0
70
32
0
SEQEND
8
0
0
POLYLINE
8
0
62
30
66
1
10
0
20
0
30
0
70
8
0
VERTEX
8
0
62
30
10
-0.024466636
20
0.76033992
30
0
70
32
0
VERTEX
8
0
62
30
10
0.003817635
20
0.76033992
30
0
70
32
0
SEQEND
8
0
0
POLYLINE
8
0
62
5
66
1
10
0
20
0
30
0
70
8
0
VERTEX
8
0
62
5
10
-0.10931945
20
0.76033992
30
0
70
32
0
VERTEX
8
0
62
5
10
-0.095177314
20
0.76033992
30
0
70
32
0
SEQEND
8
0
0
POLYLINE
8
0
62
5
66
1
10
0
20
0
30
0
70
8
0
VERTEX
8
0
62
5
10
-0.052750908
20
0.76033992
30
0
70
32
0
VERTEX
8
0
62
5
10
-0.038608772
20
0.76033992
30
0
70
32
0
SEQEND
8
0
0
POLYLINE
8
0
62
5
66
1
10
0
20
0
30
0
70
8
0
VERTEX
8
0
62
5
10
-0.095177314
20
0.76033992
30
0
70
32
0
VERTEX
8
0
62
5
10
-0.081035179
20
0.76033992
30
0
70
32
0
SEQEND
8
0
0
POLYLINE
8
0
62
5
66
1
10
0
20
0
30
0
70
8
0
VERTEX
8
0
62
5
10
-0.038608772
20
0.76033992
30
0
70
32
0
VERTEX
8
0
62
5
10
-0.024466636
20
0.76033992
30
0
70
32
0
SEQEND
8
0
0
POLYLINE
8
0
62
5
66
1
10
0
20
0
30
0
70
8
0
VERTEX
8
0
62
5
10
-0.081035179
20
0.74033992
30
0
70
32
0
VERTEX
8
0
62
5
10
-0.081035179
20
0.78033992
30
0
70
32
0
SEQEND
8
0
0
POLYLINE
8
0
62
5
66
1
10
0
20
0
30
0
70
8
0
VERTEX
8
0
62
5
10
-0.052750908
20
0.74033992
30
0
70
32
0
VERTEX
8
0
62
5
10
-0.052750908
20
0.78033992
30
0
70
32
0
SEQEND
8
0
0
POLYLINE
8
0
62
5
66
1
10
0
20
0
30
0
70
8
0
VERTEX
8
0
62
5
10
-0.024466636
20
0.74033992
30
0
70
32
0
VERTEX
8
0
62
5
10
-0.024466636
20
0.78033992
30
0
70
32
0
SEQEND
8
0
0
POLYLINE
8
0
62
5
66
1
10
0
20
0
30
0
70
8
0
VERTEX
8
0
62
5
10
-0.10931945
20
0.74033992
30
0
70
32
0
VERTEX
8
0
62
5
10
-0.10931945
20
0.78033992
30
0
70
32
0
SEQEND
8
0
0
POLYLINE
8
0
62
5
66
1
10
0
20
0
30
0
70
8
0
VERTEX
8
0
62
5
10
0.003817635
20
0.78033992
30
0
70
32
0
VERTEX
8
0
62
5
10
0.003817635
20
0.798683
30
0
70
32
0
SEQEND
8
0
0
POLYLINE
8
0
62
5
66
1
10
0
20
0
30
0
70
8
0
VERTEX
8
0
62
5
10
0.032101906
20
0.78033992
30
0
70
32
0
VERTEX
8
0
62
5
10
0.032101906
20
0.798683
30
0
70
32
0
SEQEND
8
0
0
POLYLINE
8
0
62
5
66
1
10
0
20
0
30
0
70
8
0
VERTEX
8
0
62
5
10
0.060386177
20
0.78033992
30
0
70
32
0
VERTEX
8
0
62
5
10
0.060386177
20
0.798683
30
0
70
32
0
SEQEND
8
0
0
POLYLINE
8
0
62
5
66
1
10
0
20
0
30
0
70
8
0
VERTEX
8
0
62
5
10
0.088670449
20
0.78033992
30
0
70
32
0
VERTEX
8
0
62
5
10
0.088670449
20
0.798683
30
0
70
32
0
SEQEND
8
0
0
POLYLINE
8
0
62
5
66
1
10
0
20
0
30
0
70
8
0
VERTEX
8
0
62
5
10
0.11695472
20
0.78033992
30
0
70
32
0
VERTEX
8
0
62
5
10
0.11695472
20
0.798683
30
0
70
32
0
SEQEND
8
0
0
POLYLINE
8
0
62
5
66
1
10
0
20
0
30
0
70
8
0
VERTEX
8
0
62
5
10
0.032101906
20
0.78033992
30
0
70
32
0
VERTEX
8
0
62
5
10
0.032101906
20
0.78033992
30
0
70
32
0
SEQEND
8
0
0
POLYLINE
8
0
62
5
66
1
10
0
20
0
30
0
70
8
0
VERTEX
8
0
62
5
10
0.060386177
20
0.78033992
30
0
70
32
0
VERTEX
8
0
62
5
10
0.060386177
20
0.78033992
30
0
70
32
0
SEQEND
8
0
0
POLYLINE
8
0
62
5
66
1
10
0
20
0
30
0
70
8
0
VERTEX
8
0
62
5
10
0.088670449
20
0.78033992
30
0
70
32
0
VERTEX
8
0
62
5
10
0.088670449
20
0.78033992
30
0
70
32
0
SEQEND
8
0
0
POLYLINE
8
0
62
5
66
1
10
0
20
0
30
0
70
8
0
VERTEX
8
0
62
5
10
0.032101906
20
0.798683
30
0
70
32
0
VERTEX
8
0
62
5
10
0.032101906
20
0.798683
30
0
70
32
0
SEQEND
8
0
0
POLYLINE
8
0
62
5
66
1
10
0
20
0
30
0
70
8
0
VERTEX
8
0
62
5
10
0.060386177
20
0.798683
30
0
70
32
0
VERTEX
8
0
62
5
10
0.060386177
20
0.798683
30
0
70
32
0
SEQEND
8
0
0
POLYLINE
8
0
62
5
66
1
10
0
20
0
30
0
70
8
0
VERTEX
8
0
62
5
10
0.088670449
20
0.798683
30
0
70
32
0
VERTEX
8
0
62
5
10
0.088670449
20
0.798683
30
0
70
32
0
SEQEND
8
0
0
POLYLINE
8
0
62
5
66
1
10
0
20
0
30
0
70
8
0
VERTEX
8
0
62
5
10
0.14523899
20
0.78033992
30
0
70
32
0
VERTEX
8
0
62
5
10
0.14523899
20
0.798683
30
0
70
32
0
SEQEND
8
0
0
POLYLINE
8
0
62
5
66
1
10
0
20
0
30
0
70
8
0
VERTEX
8
0
62
5
10
0.17352326
20
0.78033992
30
0
70
32
0
VERTEX
8
0
62
5
10
0.17352326
20
0.798683
30
0
70
32
0
SEQEND
8
0
0
POLYLINE
8
0
62
5
66
1
10
0
20
0
30
0
70
8
0
VERTEX
8
0
62
5
10
0.20180753
20
0.78033992
30
0
70
32
0
VERTEX
8
0
62
5
10
0.20180753
20
0.798683
30
0
70
32
0
SEQEND
8
0
0
POLYLINE
8
0
62
5
66
1
10
0
20
0
30
0
70
8
0
VERTEX
8
0
62
5
10
0.2300918
20
0.78033992
30
0
70
32
0
VERTEX
8
0
62
5
10
0.2300918
20
0.798683
30
0
70
32
0
SEQEND
8
0
0
POLYLINE
8
0
62
5
66
1
10
0
20
0
30
0
70
8
0
VERTEX
8
0
62
5
10
0.14523899
20
0.78033992
30
0
70
32
0
VERTEX
8
0
62
5
10
0.14523899
20
0.78033992
30
0
70
32
0
SEQEND
8
0
0
POLYLINE
8
0
62
5
66
1
10
0
20
0
30
0
70
8
0
VERTEX
8
0
62
5
10
0.17352326
20
0.78033992
30
0
70
32
0
VERTEX
8
0
62
5
10
0.17352326
20
0.78033992
30
0
70
32
0
SEQEND
8
0
0
POLYLINE
8
0
62
5
66
1
10
0
20
0
30
0
70
8
0
VERTEX
8
0
62
5
10
0.20180753
20
0.78033992
30
0
70
32
0
VERTEX
8
0
62
5
10
0.20180753
20
0.78033992
30
0
70
32
0
SEQEND
8
0
0
POLYLINE
8
0
62
5
66
1
10
0
20
0
30
0
70
8
0
VERTEX
8
0
62
5
10
0.14523899
20
0.798683
30
0
70
32
0
VERTEX
8
0
62
5
10
0.14523899
20
0.798683
30
0
70
32
0
SEQEND
8
0
0
POLYLINE
8
0
62
5
66
1
10
0
20
0
30
0
70
8
0
VERTEX
8
0
62
5
10
0.17352326
20
0.798683
30
0
70
32
0
VERTEX
8
0
62
5
10
0.17352326
20
0.798683
30
0
70
32
0
SEQEND
8
0
0
POLYLINE
8
0
62
5
66
1
10
0
20
0
30
0
70
8
0
VERTEX
8
0
62
5
10
0.20180753
20
0.798683
30
0
70
32
0
VERTEX
8
0
62
5
10
0.20180753
20
0.798683
30
0
70
32
0
SEQEND
8
0
0
POLYLINE
8
0
62
5
66
1
10
0
20
0
30
0
70
8
0
VERTEX
8
0
62
5
10
-0.081035179
20
0.78033992
30
0
70
32
0
VERTEX
8
0
62
5
10
-0.081035179
20
0.798683
30
0
70
32
0
SEQEND
8
0
0
POLYLINE
8
0
62
5
66
1
10
0
20
0
30
0
70
8
0
VERTEX
8
0
62
5
10
-0.052750908
20
0.78033992
30
0
70
32
0
VERTEX
8
0
62
5
10
-0.052750908
20
0.798683
30
0
70
32
0
SEQEND
8
0
0
POLYLINE
8
0
62
5
66
1
10
0
20
0
30
0
70
8
0
VERTEX
8
0
62
5
10
-0.024466636
20
0.78033992
30
0
70
32
0
VERTEX
8
0
62
5
10
-0.024466636
20
0.798683
30
0
70
32
0
SEQEND
8
0
0
POLYLINE
8
0
62
5
66
1
10
0
20
0
30
0
70
8
0
VERTEX
8
0
62
5
10
0.003817635
20
0.78033992
30
0
70
32
0
VERTEX
8
0
62
5
10
0.003817635
20
0.798683
30
0
70
32
0
SEQEND
8
0
0
POLYLINE
8
0
62
5
66
1
10
0
20
0
30
0
70
8
0
VERTEX
8
0
62
5
10
-0.081035179
20
0.78033992
30
0
70
32
0
VERTEX
8
0
62
5
10
-0.081035179
20
0.78033992
30
0
70
32
0
SEQEND
8
0
0
POLYLINE
8
0
62
5
66
1
10
0
20
0
30
0
70
8
0
VERTEX
8
0
62
5
10
-0.052750908
20
0.78033992
30
0
70
32
0
VERTEX
8
0
62
5
10
-0.052750908
20
0.78033992
30
0
70
32
0
SEQEND
8
0
0
POLYLINE
8
0
62
5
66
1
10
0
20
0
30
0
70
8
0
VERTEX
8
0
62
5
10
-0.024466636
20
0.78033992
30
0
70
32
0
VERTEX
8
0
62
5
10
-0.024466636
20
0.78033992
30
0
70
32
0
SEQEND
8
0
0
POLYLINE
8
0
62
5
66
1
10
0
20
0
30
0
70
8
0
VERTEX
8
0
62
5
10
-0.081035179
20
0.798683
30
0
70
32
0
VERTEX
8
0
62
5
10
-0.081035179
20
0.798683
30
0
70
32
0
SEQEND
8
0
0
POLYLINE
8
0
62
5
66
1
10
0
20
0
30
0
70
8
0
VERTEX
8
0
62
5
10
-0.052750908
20
0.798683
30
0
70
32
0
VERTEX
8
0
62
5
10
-0.052750908
20
0.798683
30
0
70
32
0
SEQEND
8
0
0
POLYLINE
8
0
62
5
66
1
10
0
20
0
30
0
70
8
0
VERTEX
8
0
62
5
10
-0.024466636
20
0.798683
30
0
70
32
0
VERTEX
8
0
62
5
10
-0.024466636
20
0.798683
30
0
70
32
0
SEQEND
8
0
0
POLYLINE
8
0
62
5
66
1
10
0
20
0
30
0
70
8
0
VERTEX
8
0
62
5
10
0.032101906
20
0.798683
30
0
70
32
0
VERTEX
8
0
62
5
10
0.032101906
20
0.87205534
30
0
70
32
0
SEQEND
8
0
0
POLYLINE
8
0
62
5
66
1
10
0
20
0
30
0
70
8
0
VERTEX
8
0
62
5
10
0.14523899
20
0.798683
30
0
70
32
0
VERTEX
8
0
62
5
10
0.14523899
20
0.87205534
30
0
70
32
0
SEQEND
8
0
0
POLYLINE
8
0
62
5
66
1
10
0
20
0
30
0
70
8
0
VERTEX
8
0
62
5
10
0.060386177
20
0.798683
30
0
70
32
0
VERTEX
8
0
62
5
10
0.060386177
20
0.87205534
30
0
70
32
0
SEQEND
8
0
0
POLYLINE
8
0
62
5
66
1
10
0
20
0
30
0
70
8
0
VERTEX
8
0
62
5
10
0.088670449
20
0.798683
30
0
70
32
0
VERTEX
8
0
62
5
10
0.088670449
20
0.87205534
30
0
70
32
0
SEQEND
8
0
0
POLYLINE
8
0
62
5
66
1
10
0
20
0
30
0
70
8
0
VERTEX
8
0
62
5
10
0.11695472
20
0.798683
30
0
70
32
0
VERTEX
8
0
62
5
10
0.11695472
20
0.87205534
30
0
70
32
0
SEQEND
8
0
0
POLYLINE
8
0
62
5
66
1
10
0
20
0
30
0
70
8
0
VERTEX
8
0
62
5
10
0.25837608
20
0.798683
30
0
70
32
0
VERTEX
8
0
62
5
10
0.25837608
20
0.87205534
30
0
70
32
0
SEQEND
8
0
0
POLYLINE
8
0
62
5
66
1
10
0
20
0
30
0
70
8
0
VERTEX
8
0
62
5
10
0.17352326
20
0.798683
30
0
70
32
0
VERTEX
8
0
62
5
10
0.17352326
20
0.87205534
30
0
70
32
0
SEQEND
8
0
0
POLYLINE
8
0
62
5
66
1
10
0
20
0
30
0
70
8
0
VERTEX
8
0
62
5
10
0.20180753
20
0.798683
30
0
70
32
0
VERTEX
8
0
62
5
10
0.20180753
20
0.87205534
30
0
70
32
0
SEQEND
8
0
0
POLYLINE
8
0
62
5
66
1
10
0
20
0
30
0
70
8
0
VERTEX
8
0
62
5
10
0.2300918
20
0.798683
30
0
70
32
0
VERTEX
8
0
62
5
10
0.2300918
20
0.87205534
30
0
70
32
0
SEQEND
8
0
0
POLYLINE
8
0
62
5
66
1
10
0
20
0
30
0
70
8
0
VERTEX
8
0
62
5
10
-0.081035179
20
0.798683
30
0
70
32
0
VERTEX
8
0
62
5
10
-0.081035179
20
0.87205534
30
0
70
32
0
SEQEND
8
0
0
POLYLINE
8
0
62
5
66
1
10
0
20
0
30
0
70
8
0
VERTEX
8
0
62
5
10
-0.052750908
20
0.798683
30
0
70
32
0
VERTEX
8
0
62
5
10
-0.052750908
20
0.87205534
30
0
70
32
0
SEQEND
8
0
0
POLYLINE
8
0
62
5
66
1
10
0
20
0
30
0
70
8
0
VERTEX
8
0
62
5
10
-0.024466636
20
0.798683
30
0
70
32
0
VERTEX
8
0
62
5
10
-0.024466636
20
0.87205534
30
0
70
32
0
SEQEND
8
0
0
POLYLINE
8
0
62
5
66
1
10
0
20
0
30
0
70
8
0
VERTEX
8
0
62
5
10
0.003817635
20
0.798683
30
0
70
32
0
VERTEX
8
0
62
5
10
0.003817635
20
0.87205534
30
0
70
32
0
SEQEND
8
0
0
POLYLINE
8
0
62
5
66
1
10
0
20
0
30
0
70
8
0
VERTEX
8
0
62
5
10
0.032101906
20
0.87205534
30
0
70
32
0
VERTEX
8
0
62
5
10
0.032101906
20
0.91205534
30
0
70
32
0
SEQEND
8
0
0
POLYLINE
8
0
62
5
66
1
10
0
20
0
30
0
70
8
0
VERTEX
8
0
62
5
10
0.14523899
20
0.91205534
30
0
70
32
0
VERTEX
8
0
62
5
10
0.14523899
20
0.87205534
30
0
70
32
0
SEQEND
8
0
0
POLYLINE
8
0
62
5
66
1
10
0
20
0
30
0
70
8
0
VERTEX
8
0
62
5
10
0.032101906
20
0.87205534
30
0
70
32
0
VERTEX
8
0
62
5
10
0.14523899
20
0.87205534
30
0
70
32
0
SEQEND
8
0
0
POLYLINE
8
0
62
5
66
1
10
0
20
0
30
0
70
8
0
VERTEX
8
0
62
5
10
0.032101906
20
0.91205534
30
0
70
32
0
VERTEX
8
0
62
5
10
0.14523899
20
0.91205534
30
0
70
32
0
SEQEND
8
0
0
POLYLINE
8
0
62
5
66
1
10
0
20
0
30
0
70
8
0
VERTEX
8
0
62
5
10
0.060386177
20
0.87205534
30
0
70
32
0
VERTEX
8
0
62
5
10
0.060386177
20
0.87205534
30
0
70
32
0
SEQEND
8
0
0
POLYLINE
8
0
62
5
66
1
10
0
20
0
30
0
70
8
0
VERTEX
8
0
62
5
10
0.088670449
20
0.87205534
30
0
70
32
0
VERTEX
8
0
62
5
10
0.088670449
20
0.87205534
30
0
70
32
0
SEQEND
8
0
0
POLYLINE
8
0
62
5
66
1
10
0
20
0
30
0
70
8
0
VERTEX
8
0
62
5
10
0.11695472
20
0.87205534
30
0
70
32
0
VERTEX
8
0
62
5
10
0.11695472
20
0.87205534
30
0
70
32
0
SEQEND
8
0
0
POLYLINE
8
0
62
5
66
1
10
0
20
0
30
0
70
8
0
VERTEX
8
0
62
5
10
0.060386177
20
0.91205534
30
0
70
32
0
VERTEX
8
0
62
5
10
0.060386177
20
0.91205534
30
0
70
32
0
SEQEND
8
0
0
POLYLINE
8
0
62
5
66
1
10
0
20
0
30
0
70
8
0
VERTEX
8
0
62
5
10
0.088670449
20
0.91205534
30
0
70
32
0
VERTEX
8
0
62
5
10
0.088670449
20
0.91205534
30
0
70
32
0
SEQEND
8
0
0
POLYLINE
8
0
62
5
66
1
10
0
20
0
30
0
70
8
0
VERTEX
8
0
62
5
10
0.11695472
20
0.91205534
30
0
70
32
0
VERTEX
8
0
62
5
10
0.11695472
20
0.91205534
30
0
70
32
0
SEQEND
8
0
0
POLYLINE
8
0
62
30
66
1
10
0
20
0
30
0
70
8
0
VERTEX
8
0
62
30
10
0.032101906
20
0.87205534
30
0
70
32
0
VERTEX
8
0
62
30
10
0.046244042
20
0.89205534
30
0
70
32
0
SEQEND
8
0
0
POLYLINE
8
0
62
30
66
1
10
0
20
0
30
0
70
8
0
VERTEX
8
0
62
30
10
0.046244042
20
0.89205534
30
0
70
32
0
VERTEX
8
0
62
30
10
0.060386177
20
0.87205534
30
0
70
32
0
SEQEND
8
0
0
POLYLINE
8
0
62
30
66
1
10
0
20
0
30
0
70
8
0
VERTEX
8
0
62
30
10
0.088670449
20
0.87205534
30
0
70
32
0
VERTEX
8
0
62
30
10
0.10281258
20
0.89205534
30
0
70
32
0
SEQEND
8
0
0
POLYLINE
8
0
62
30
66
1
10
0
20
0
30
0
70
8
0
VERTEX
8
0
62
30
10
0.10281258
20
0.89205534
30
0
70
32
0
VERTEX
8
0
62
30
10
0.11695472
20
0.87205534
30
0
70
32
0
SEQEND
8
0
0
POLYLINE
8
0
62
30
66
1
10
0
20
0
30
0
70
8
0
VERTEX
8
0
62
30
10
0.060386177
20
0.89205534
30
0
70
32
0
VERTEX
8
0
62
30
10
0.088670449
20
0.89205534
30
0
70
32
0
SEQEND
8
0
0
POLYLINE
8
0
62
30
66
1
10
0
20
0
30
0
70
8
0
VERTEX
8
0
62
30
10
0.11695472
20
0.89205534
30
0
70
32
0
VERTEX
8
0
62
30
10
0.14523899
20
0.89205534
30
0
70
32
0
SEQEND
8
0
0
POLYLINE
8
0
62
5
66
1
10
0
20
0
30
0
70
8
0
VERTEX
8
0
62
5
10
0.032101906
20
0.89205534
30
0
70
32
0
VERTEX
8
0
62
5
10
0.046244042
20
0.89205534
30
0
70
32
0
SEQEND
8
0
0
POLYLINE
8
0
62
5
66
1
10
0
20
0
30
0
70
8
0
VERTEX
8
0
62
5
10
0.088670449
20
0.89205534
30
0
70
32
0
VERTEX
8
0
62
5
10
0.10281258
20
0.89205534
30
0
70
32
0
SEQEND
8
0
0
POLYLINE
8
0
62
5
66
1
10
0
20
0
30
0
70
8
0
VERTEX
8
0
62
5
10
0.046244042
20
0.89205534
30
0
70
32
0
VERTEX
8
0
62
5
10
0.060386177
20
0.89205534
30
0
70
32
0
SEQEND
8
0
0
POLYLINE
8
0
62
5
66
1
10
0
20
0
30
0
70
8
0
VERTEX
8
0
62
5
10
0.10281258
20
0.89205534
30
0
70
32
0
VERTEX
8
0
62
5
10
0.11695472
20
0.89205534
30
0
70
32
0
SEQEND
8
0
0
POLYLINE
8
0
62
5
66
1
10
0
20
0
30
0
70
8
0
VERTEX
8
0
62
5
10
0.060386177
20
0.87205534
30
0
70
32
0
VERTEX
8
0
62
5
10
0.060386177
20
0.91205534
30
0
70
32
0
SEQEND
8
0
0
POLYLINE
8
0
62
5
66
1
10
0
20
0
30
0
70
8
0
VERTEX
8
0
62
5
10
0.088670449
20
0.87205534
30
0
70
32
0
VERTEX
8
0
62
5
10
0.088670449
20
0.91205534
30
0
70
32
0
SEQEND
8
0
0
POLYLINE
8
0
62
5
66
1
10
0
20
0
30
0
70
8
0
VERTEX
8
0
62
5
10
0.11695472
20
0.87205534
30
0
70
32
0
VERTEX
8
0
62
5
10
0.11695472
20
0.91205534
30
0
70
32
0
SEQEND
8
0
0
POLYLINE
8
0
62
5
66
1
10
0
20
0
30
0
70
8
0
VERTEX
8
0
62
5
10
0.032101906
20
0.87205534
30
0
70
32
0
VERTEX
8
0
62
5
10
0.032101906
20
0.91205534
30
0
70
32
0
SEQEND
8
0
0
POLYLINE
8
0
62
5
66
1
10
0
20
0
30
0
70
8
0
VERTEX
8
0
62
5
10
0.25837608
20
0.91205534
30
0
70
32
0
VERTEX
8
0
62
5
10
0.25837608
20
0.87205534
30
0
70
32
0
SEQEND
8
0
0
POLYLINE
8
0
62
5
66
1
10
0
20
0
30
0
70
8
0
VERTEX
8
0
62
5
10
0.14523899
20
0.87205534
30
0
70
32
0
VERTEX
8
0
62
5
10
0.25837608
20
0.87205534
30
0
70
32
0
SEQEND
8
0
0
POLYLINE
8
0
62
5
66
1
10
0
20
0
30
0
70
8
0
VERTEX
8
0
62
5
10
0.14523899
20
0.91205534
30
0
70
32
0
VERTEX
8
0
62
5
10
0.25837608
20
0.91205534
30
0
70
32
0
SEQEND
8
0
0
POLYLINE
8
0
62
5
66
1
10
0
20
0
30
0
70
8
0
VERTEX
8
0
62
5
10
0.17352326
20
0.87205534
30
0
70
32
0
VERTEX
8
0
62
5
10
0.17352326
20
0.87205534
30
0
70
32
0
SEQEND
8
0
0
POLYLINE
8
0
62
5
66
1
10
0
20
0
30
0
70
8
0
VERTEX
8
0
62
5
10
0.20180753
20
0.87205534
30
0
70
32
0
VERTEX
8
0
62
5
10
0.20180753
20
0.87205534
30
0
70
32
0
SEQEND
8
0
0
POLYLINE
8
0
62
5
66
1
10
0
20
0
30
0
70
8
0
VERTEX
8
0
62
5
10
0.2300918
20
0.87205534
30
0
70
32
0
VERTEX
8
0
62
5
10
0.2300918
20
0.87205534
30
0
70
32
0
SEQEND
8
0
0
POLYLINE
8
0
62
5
66
1
10
0
20
0
30
0
70
8
0
VERTEX
8
0
62
5
10
0.17352326
20
0.91205534
30
0
70
32
0
VERTEX
8
0
62
5
10
0.17352326
20
0.91205534
30
0
70
32
0
SEQEND
8
0
0
POLYLINE
8
0
62
5
66
1
10
0
20
0
30
0
70
8
0
VERTEX
8
0
62
5
10
0.20180753
20
0.91205534
30
0
70
32
0
VERTEX
8
0
62
5
10
0.20180753
20
0.91205534
30
0
70
32
0
SEQEND
8
0
0
POLYLINE
8
0
62
5
66
1
10
0
20
0
30
0
70
8
0
VERTEX
8
0
62
5
10
0.2300918
20
0.91205534
30
0
70
32
0
VERTEX
8
0
62
5
10
0.2300918
20
0.91205534
30
0
70
32
0
SEQEND
8
0
0
POLYLINE
8
0
62
30
66
1
10
0
20
0
30
0
70
8
0
VERTEX
8
0
62
30
10
0.14523899
20
0.87205534
30
0
70
32
0
VERTEX
8
0
62
30
10
0.15938113
20
0.89205534
30
0
70
32
0
SEQEND
8
0
0
POLYLINE
8
0
62
30
66
1
10
0
20
0
30
0
70
8
0
VERTEX
8
0
62
30
10
0.15938113
20
0.89205534
30
0
70
32
0
VERTEX
8
0
62
30
10
0.17352326
20
0.87205534
30
0
70
32
0
SEQEND
8
0
0
POLYLINE
8
0
62
30
66
1
10
0
20
0
30
0
70
8
0
VERTEX
8
0
62
30
10
0.20180753
20
0.87205534
30
0
70
32
0
VERTEX
8
0
62
30
10
0.21594967
20
0.89205534
30
0
70
32
0
SEQEND
8
0
0
POLYLINE
8
0
62
30
66
1
10
0
20
0
30
0
70
8
0
VERTEX
8
0
62
30
10
0.21594967
20
0.89205534
30
0
70
32
0
VERTEX
8
0
62
30
10
0.2300918
20
0.87205534
30
0
70
32
0
SEQEND
8
0
0
POLYLINE
8
0
62
30
66
1
10
0
20
0
30
0
70
8
0
VERTEX
8
0
62
30
10
0.17352326
20
0.89205534
30
0
70
32
0
VERTEX
8
0
62
30
10
0.20180753
20
0.89205534
30
0
70
32
0
SEQEND
8
0
0
POLYLINE
8
0
62
30
66
1
10
0
20
0
30
0
70
8
0
VERTEX
8
0
62
30
10
0.2300918
20
0.89205534
30
0
70
32
0
VERTEX
8
0
62
30
10
0.25837608
20
0.89205534
30
0
70
32
0
SEQEND
8
0
0
POLYLINE
8
0
62
5
66
1
10
0
20
0
30
0
70
8
0
VERTEX
8
0
62
5
10
0.14523899
20
0.89205534
30
0
70
32
0
VERTEX
8
0
62
5
10
0.15938113
20
0.89205534
30
0
70
32
0
SEQEND
8
0
0
POLYLINE
8
0
62
5
66
1
10
0
20
0
30
0
70
8
0
VERTEX
8
0
62
5
10
0.20180753
20
0.89205534
30
0
70
32
0
VERTEX
8
0
62
5
10
0.21594967
20
0.89205534
30
0
70
32
0
SEQEND
8
0
0
POLYLINE
8
0
62
5
66
1
10
0
20
0
30
0
70
8
0
VERTEX
8
0
62
5
10
0.15938113
20
0.89205534
30
0
70
32
0
VERTEX
8
0
62
5
10
0.17352326
20
0.89205534
30
0
70
32
0
SEQEND
8
0
0
POLYLINE
8
0
62
5
66
1
10
0
20
0
30
0
70
8
0
VERTEX
8
0
62
5
10
0.21594967
20
0.89205534
30
0
70
32
0
VERTEX
8
0
62
5
10
0.2300918
20
0.89205534
30
0
70
32
0
SEQEND
8
0
0
POLYLINE
8
0
62
5
66
1
10
0
20
0
30
0
70
8
0
VERTEX
8
0
62
5
10
0.17352326
20
0.87205534
30
0
70
32
0
VERTEX
8
0
62
5
10
0.17352326
20
0.91205534
30
0
70
32
0
SEQEND
8
0
0
POLYLINE
8
0
62
5
66
1
10
0
20
0
30
0
70
8
0
VERTEX
8
0
62
5
10
0.20180753
20
0.87205534
30
0
70
32
0
VERTEX
8
0
62
5
10
0.20180753
20
0.91205534
30
0
70
32
0
SEQEND
8
0
0
POLYLINE
8
0
62
5
66
1
10
0
20
0
30
0
70
8
0
VERTEX
8
0
62
5
10
0.2300918
20
0.87205534
30
0
70
32
0
VERTEX
8
0
62
5
10
0.2300918
20
0.91205534
30
0
70
32
0
SEQEND
8
0
0
POLYLINE
8
0
62
5
66
1
10
0
20
0
30
0
70
8
0
VERTEX
8
0
62
5
10
0.14523899
20
0.87205534
30
0
70
32
0
VERTEX
8
0
62
5
10
0.14523899
20
0.91205534
30
0
70
32
0
SEQEND
8
0
0
POLYLINE
8
0
62
5
66
1
10
0
20
0
30
0
70
8
0
VERTEX
8
0
62
5
10
-0.081035179
20
0.87205534
30
0
70
32
0
VERTEX
8
0
62
5
10
-0.081035179
20
0.91205534
30
0
70
32
0
SEQEND
8
0
0
POLYLINE
8
0
62
5
66
1
10
0
20
0
30
0
70
8
0
VERTEX
8
0
62
5
10
-0.081035179
20
0.87205534
30
0
70
32
0
VERTEX
8
0
62
5
10
0.032101906
20
0.87205534
30
0
70
32
0
SEQEND
8
0
0
POLYLINE
8
0
62
5
66
1
10
0
20
0
30
0
70
8
0
VERTEX
8
0
62
5
10
-0.081035179
20
0.91205534
30
0
70
32
0
VERTEX
8
0
62
5
10
0.032101906
20
0.91205534
30
0
70
32
0
SEQEND
8
0
0
POLYLINE
8
0
62
5
66
1
10
0
20
0
30
0
70
8
0
VERTEX
8
0
62
5
10
-0.052750908
20
0.87205534
30
0
70
32
0
VERTEX
8
0
62
5
10
-0.052750908
20
0.87205534
30
0
70
32
0
SEQEND
8
0
0
POLYLINE
8
0
62
5
66
1
10
0
20
0
30
0
70
8
0
VERTEX
8
0
62
5
10
-0.024466636
20
0.87205534
30
0
70
32
0
VERTEX
8
0
62
5
10
-0.024466636
20
0.87205534
30
0
70
32
0
SEQEND
8
0
0
POLYLINE
8
0
62
5
66
1
10
0
20
0
30
0
70
8
0
VERTEX
8
0
62
5
10
0.003817635
20
0.87205534
30
0
70
32
0
VERTEX
8
0
62
5
10
0.003817635
20
0.87205534
30
0
70
32
0
SEQEND
8
0
0
POLYLINE
8
0
62
5
66
1
10
0
20
0
30
0
70
8
0
VERTEX
8
0
62
5
10
-0.052750908
20
0.91205534
30
0
70
32
0
VERTEX
8
0
62
5
10
-0.052750908
20
0.91205534
30
0
70
32
0
SEQEND
8
0
0
POLYLINE
8
0
62
5
66
1
10
0
20
0
30
0
70
8
0
VERTEX
8
0
62
5
10
-0.024466636
20
0.91205534
30
0
70
32
0
VERTEX
8
0
62
5
10
-0.024466636
20
0.91205534
30
0
70
32
0
SEQEND
8
0
0
POLYLINE
8
0
62
5
66
1
10
0
20
0
30
0
70
8
0
VERTEX
8
0
62
5
10
0.003817635
20
0.91205534
30
0
70
32
0
VERTEX
8
0
62
5
10
0.003817635
20
0.91205534
30
0
70
32
0
SEQEND
8
0
0
POLYLINE
8
0
62
30
66
1
10
0
20
0
30
0
70
8
0
VERTEX
8
0
62
30
10
-0.081035179
20
0.87205534
30
0
70
32
0
VERTEX
8
0
62
30
10
-0.066893043
20
0.89205534
30
0
70
32
0
SEQEND
8
0
0
POLYLINE
8
0
62
30
66
1
10
0
20
0
30
0
70
8
0
VERTEX
8
0
62
30
10
-0.066893043
20
0.89205534
30
0
70
32
0
VERTEX
8
0
62
30
10
-0.052750908
20
0.87205534
30
0
70
32
0
SEQEND
8
0
0
POLYLINE
8
0
62
30
66
1
10
0
20
0
30
0
70
8
0
VERTEX
8
0
62
30
10
-0.024466636
20
0.87205534
30
0
70
32
0
VERTEX
8
0
62
30
10
-0.010324501
20
0.89205534
30
0
70
32
0
SEQEND
8
0
0
POLYLINE
8
0
62
30
66
1
10
0
20
0
30
0
70
8
0
VERTEX
8
0
62
30
10
-0.010324501
20
0.89205534
30
0
70
32
0
VERTEX
8
0
62
30
10
0.003817635
20
0.87205534
30
0
70
32
0
SEQEND
8
0
0
POLYLINE
8
0
62
30
66
1
10
0
20
0
30
0
70
8
0
VERTEX
8
0
62
30
10
-0.052750908
20
0.89205534
30
0
70
32
0
VERTEX
8
0
62
30
10
-0.024466636
20
0.89205534
30
0
70
32
0
SEQEND
8
0
0
POLYLINE
8
0
62
30
66
1
10
0
20
0
30
0
70
8
0
VERTEX
8
0
62
30
10
0.003817635
20
0.89205534
30
0
70
32
0
VERTEX
8
0
62
30
10
0.032101906
20
0.89205534
30
0
70
32
0
SEQEND
8
0
0
POLYLINE
8
0
62
5
66
1
10
0
20
0
30
0
70
8
0
VERTEX
8
0
62
5
10
-0.081035179
20
0.89205534
30
0
70
32
0
VERTEX
8
0
62
5
10
-0.066893043
20
0.89205534
30
0
70
32
0
SEQEND
8
0
0
POLYLINE
8
0
62
5
66
1
10
0
20
0
30
0
70
8
0
VERTEX
8
0
62
5
10
-0.024466636
20
0.89205534
30
0
70
32
0
VERTEX
8
0
62
5
10
-0.010324501
20
0.89205534
30
0
70
32
0
SEQEND
8
0
0
POLYLINE
8
0
62
5
66
1
10
0
20
0
30
0
70
8
0
VERTEX
8
0
62
5
10
-0.066893043
20
0.89205534
30
0
70
32
0
VERTEX
8
0
62
5
10
-0.052750908
20
0.89205534
30
0
70
32
0
SEQEND
8
0
0
POLYLINE
8
0
62
5
66
1
10
0
20
0
30
0
70
8
0
VERTEX
8
0
62
5
10
-0.010324501
20
0.89205534
30
0
70
32
0
VERTEX
8
0
62
5
10
0.003817635
20
0.89205534
30
0
70
32
0
SEQEND
8
0
0
POLYLINE
8
0
62
5
66
1
10
0
20
0
30
0
70
8
0
VERTEX
8
0
62
5
10
-0.052750908
20
0.87205534
30
0
70
32
0
VERTEX
8
0
62
5
10
-0.052750908
20
0.91205534
30
0
70
32
0
SEQEND
8
0
0
POLYLINE
8
0
62
5
66
1
10
0
20
0
30
0
70
8
0
VERTEX
8
0
62
5
10
-0.024466636
20
0.87205534
30
0
70
32
0
VERTEX
8
0
62
5
10
-0.024466636
20
0.91205534
30
0
70
32
0
SEQEND
8
0
0
POLYLINE
8
0
62
5
66
1
10
0
20
0
30
0
70
8
0
VERTEX
8
0
62
5
10
0.003817635
20
0.87205534
30
0
70
32
0
VERTEX
8
0
62
5
10
0.003817635
20
0.91205534
30
0
70
32
0
SEQEND
8
0
0
POLYLINE
8
0
62
5
66
1
10
0
20
0
30
0
70
8
0
VERTEX
8
0
62
5
10
-0.081035179
20
0.87205534
30
0
70
32
0
VERTEX
8
0
62
5
10
-0.081035179
20
0.91205534
30
0
70
32
0
SEQEND
8
0
0
POLYLINE
8
0
62
18
66
1
10
0
20
0
30
0
70
8
0
VERTEX
8
0
62
18
10
0.14142136
20
0
30
0
70
32
0
VERTEX
8
0
62
18
10
0
20
0
30
0
70
32
0
VERTEX
8
0
62
18
10
0
20
0.91205534
30
0
70
32
0
VERTEX
8
0
62
18
10
0.14142136
20
0.91205534
30
0
70
32
0
VERTEX
8
0
62
18
10
0.14142136
20
0
30
0
70
32
0
SEQEND
8
0
0
ENDSEC
0
EOF
