0
SECTION
2
HEADER
9
$ACADVER
1
AC1006
9
$INSUNITS
70
6
0
ENDSEC
0
SECTION
2
ENTITIES
0
POLYLINE
8
0
62
5
66
1
10
0
20
0
30
0
70
8
0
VERTEX
8
0
62
5
10
0
20
0
30
0
70
32
0
VERTEX
8
0
62
5
10
0
20
0.1
30
0
70
32
0
SEQEND
8
0
0
POLYLINE
8
0
62
5
66
1
10
0
20
0
30
0
70
8
0
VERTEX
8
0
62
5
10
0.11313708
20
0
30
0
70
32
0
VERTEX
8
0
62
5
10
0.11313708
20
0.1
30
0
70
32
0
SEQEND
8
0
0
POLYLINE
8
0
62
5
66
1
10
0
20
0
30
0
70
8
0
VERTEX
8
0
62
5
10
0.028284271
20
0
30
0
70
32
0
VERTEX
8
0
62
5
10
0.028284271
20
0.1
30
0
70
32
0
SEQEND
8
0
0
POLYLINE
8
0
62
5
66
1
10
0
20
0
30
0
70
8
0
VERTEX
8
0
62
5
10
0.056568542
20
0
30
0
70
32
0
VERTEX
8
0
62
5
10
0.056568542
20
0.1
30
0
70
32
0
SEQEND
8
0
0
POLYLINE
8
0
62
5
66
1
10
0
20
0
30
0
70
8
0
VERTEX
8
0
62
5
10
0.084852814
20
0
30
0
70
32
0
VERTEX
8
0
62
5
10
0.084852814
20
0.1
30
0
70
32
0
SEQEND
8
0
0
POLYLINE
8
0
62
5
66
1
10
0
20
0
30
0
70
8
0
VERTEX
8
0
62
5
10
0.22627417
20
0
30
0
70
32
0
VERTEX
8
0
62
5
10
0.22627417
20
0.1
30
0
70
32
0
SEQEND
8
0
0
POLYLINE
8
0
62
5
66
1
10
0
20
0
30
0
70
8
0
VERTEX
8
0
62
5
10
0.14142136
20
0
30
0
70
32
0
VERTEX
8
0
62
5
10
0.14142136
20
0.1
30
0
70
32
0
SEQEND
8
0
0
POLYLINE
8
0
62
5
66
1
10
0
20
0
30
0
70
8
0
VERTEX
8
0
62
5
10
0.16970563
20
0
30
0
70
32
0
VERTEX
8
0
62
5
10
0.16970563
20
0.1
30
0
70
32
0
SEQEND
8
0
0
POLYLINE
8
0
62
5
66
1
10
0
20
0
30
0
70
8
0
VERTEX
8
0
62
5
10
0.1979899
20
0
30
0
70
32
0
VERTEX
8
0
62
5
10
0.1979899
20
0.1
30
0
70
32
0
SEQEND
8
0
0
POLYLINE
8
0
62
5
66
1
10
0
20
0
30
0
70
8
0
VERTEX
8
0
62
5
10
-0.11313708
20
0
30
0
70
32
0
VERTEX
8
0
62
5
10
-0.11313708
20
0.1
30
0
70
32
0
SEQEND
8
0
0
POLYLINE
8
0
62
5
66
1
10
0
20
0
30
0
70
8
0
VERTEX
8
0
62
5
10
-0.084852814
20
0
30
0
70
32
0
VERTEX
8
0
62
5
10
-0.084852814
20
0.1
30
0
70
32
0
SEQEND
8
0
0
POLYLINE
8
0
62
5
66
1
10
0
20
0
30
0
70
8
0
VERTEX
8
0
62
5
10
-0.056568542
20
0
30
0
70
32
0
VERTEX
8
0
62
5
10
-0.056568542
20
0.1
30
0
70
32
0
SEQEND
8
0
0
POLYLINE
8
0
62
5
66
1
10
0
20
0
30
0
70
8
0
VERTEX
8
0
62
5
10
-0.028284271
20
0
30
0
70
32
0
VERTEX
8
0
62
5
10
-0.028284271
20
0.1
30
0
70
32
0
SEQEND
8
0
0
POLYLINE
8
0
62
5
66
1
10
0
20
0
30
0
70
8
0
VERTEX
8
0
62
5
10
0
20
0.1
30
0
70
32
0
VERTEX
8
0
62
5
10
0
20
0.101
30
0
70
32
0
SEQEND
8
0
0
POLYLINE
8
0
62
5
66
1
10
0
20
0
30
0
70
8
0
VERTEX
8
0
62
5
10
0.11313708
20
0.1
30
0
70
32
0
VERTEX
8
0
62
5
10
0.11313708
20
0.101
30
0
70
32
0
SEQEND
8
0
0
POLYLINE
8
0
62
5
66
1
10
0
20
0
30
0
70
8
0
VERTEX
8
0
62
5
10
0.028284271
20
0.1
30
0
70
32
0
VERTEX
8
0
62
5
10
0.028284271
20
0.101
30
0
70
32
0
SEQEND
8
0
0
POLYLINE
8
0
62
5
66
1
10
0
20
0
30
0
70
8
0
VERTEX
8
0
62
5
10
0.056568542
20
0.1
30
0
70
32
0
VERTEX
8
0
62
5
10
0.056568542
20
0.101
30
0
70
32
0
SEQEND
8
0
0
POLYLINE
8
0
62
5
66
1
10
0
20
0
30
0
70
8
0
VERTEX
8
0
62
5
10
0.084852814
20
0.1
30
0
70
32
0
VERTEX
8
0
62
5
10
0.084852814
20
0.101
30
0
70
32
0
SEQEND
8
0
0
POLYLINE
8
0
62
5
66
1
10
0
20
0
30
0
70
8
0
VERTEX
8
0
62
5
10
0.22627417
20
0.1
30
0
70
32
0
VERTEX
8
0
62
5
10
0.22627417
20
0.101
30
0
70
32
0
SEQEND
8
0
0
POLYLINE
8
0
62
5
66
1
10
0
20
0
30
0
70
8
0
VERTEX
8
0
62
5
10
0.14142136
20
0.1
30
0
70
32
0
VERTEX
8
0
62
5
10
0.14142136
20
0.101
30
0
70
32
0
SEQEND
8
0
0
POLYLINE
8
0
62
5
66
1
10
0
20
0
30
0
70
8
0
VERTEX
8
0
62
5
10
0.16970563
20
0.1
30
0
70
32
0
VERTEX
8
0
62
5
10
0.16970563
20
0.101
30
0
70
32
0
SEQEND
8
0
0
POLYLINE
8
0
62
5
66
1
10
0
20
0
30
0
70
8
0
VERTEX
8
0
62
5
10
0.1979899
20
0.1
30
0
70
32
0
VERTEX
8
0
62
5
10
0.1979899
20
0.101
30
0
70
32
0
SEQEND
8
0
0
POLYLINE
8
0
62
5
66
1
10
0
20
0
30
0
70
8
0
VERTEX
8
0
62
5
10
-0.11313708
20
0.1
30
0
70
32
0
VERTEX
8
0
62
5
10
-0.11313708
20
0.101
30
0
70
32
0
SEQEND
8
0
0
POLYLINE
8
0
62
5
66
1
10
0
20
0
30
0
70
8
0
VERTEX
8
0
62
5
10
-0.084852814
20
0.1
30
0
70
32
0
VERTEX
8
0
62
5
10
-0.084852814
20
0.101
30
0
70
32
0
SEQEND
8
0
0
POLYLINE
8
0
62
5
66
1
10
0
20
0
30
0
70
8
0
VERTEX
8
0
62
5
10
-0.056568542
20
0.1
30
0
70
32
0
VERTEX
8
0
62
5
10
-0.056568542
20
0.101
30
0
70
32
0
SEQEND
8
0
0
POLYLINE
8
0
62
5
66
1
10
0
20
0
30
0
70
8
0
VERTEX
8
0
62
5
10
-0.028284271
20
0.1
30
0
70
32
0
VERTEX
8
0
62
5
10
-0.028284271
20
0.101
30
0
70
32
0
SEQEND
8
0
0
POLYLINE
8
0
62
5
66
1
10
0
20
0
30
0
70
8
0
VERTEX
8
0
62
5
10
0
20
0.101
30
0
70
32
0
VERTEX
8
0
62
5
10
0
20
0.16929269
30
0
70
32
0
SEQEND
8
0
0
POLYLINE
8
0
62
5
66
1
10
0
20
0
30
0
70
8
0
VERTEX
8
0
62
5
10
0.11313708
20
0.16929269
30
0
70
32
0
VERTEX
8
0
62
5
10
0.11313708
20
0.101
30
0
70
32
0
SEQEND
8
0
0
POLYLINE
8
0
62
5
66
1
10
0
20
0
30
0
70
8
0
VERTEX
8
0
62
5
10
0
20
0.10392929
30
0
70
32
0
VERTEX
8
0
62
5
10
0.028284271
20
0.10392929
30
0
70
32
0
VERTEX
8
0
62
5
10
0.056568542
20
0.11807317
30
0
70
32
0
VERTEX
8
0
62
5
10
0.084852814
20
0.11807317
30
0
70
32
0
VERTEX
8
0
62
5
10
0.11313708
20
0.10392929
30
0
70
32
0
SEQEND
8
0
0
POLYLINE
8
0
62
5
66
1
10
0
20
0
30
0
70
8
0
VERTEX
8
0
62
5
10
0
20
0.13807564
30
0
70
32
0
VERTEX
8
0
62
5
10
0.028284271
20
0.13807564
30
0
70
32
0
VERTEX
8
0
62
5
10
0.056568542
20
0.15221951
30
0
70
32
0
VERTEX
8
0
62
5
10
0.084852814
20
0.15221951
30
0
70
32
0
VERTEX
8
0
62
5
10
0.11313708
20
0.13807564
30
0
70
32
0
SEQEND
8
0
0
POLYLINE
8
0
62
5
66
1
10
0
20
0
30
0
70
8
0
VERTEX
8
0
62
5
10
0
20
0.13221705
30
0
70
32
0
VERTEX
8
0
62
5
10
0.028284271
20
0.13221705
30
0
70
32
0
VERTEX
8
0
62
5
10
0.056568542
20
0.11807317
30
0
70
32
0
VERTEX
8
0
62
5
10
0.084852814
20
0.11807317
30
0
70
32
0
VERTEX
8
0
62
5
10
0.11313708
20
0.13221705
30
0
70
32
0
SEQEND
8
0
0
POLYLINE
8
0
62
5
66
1
10
0
20
0
30
0
70
8
0
VERTEX
8
0
62
5
10
0
20
0.16636339
30
0
70
32
0
VERTEX
8
0
62
5
10
0.028284271
20
0.16636339
30
0
70
32
0
VERTEX
8
0
62
5
10
0.056568542
20
0.15221951
30
0
70
32
0
VERTEX
8
0
62
5
10
0.084852814
20
0.15221951
30
0
70
32
0
VERTEX
8
0
62
5
10
0.11313708
20
0.16636339
30
0
70
32
0
SEQEND
8
0
0
POLYLINE
8
0
62
30
66
1
10
0
20
0
30
0
70
8
0
VERTEX
8
0
62
30
10
0
20
0.11807317
30
0
70
32
0
VERTEX
8
0
62
30
10
0.11313708
20
0.11807317
30
0
70
32
0
SEQEND
8
0
0
POLYLINE
8
0
62
30
66
1
10
0
20
0
30
0
70
8
0
VERTEX
8
0
62
30
10
0
20
0.15221951
30
0
70
32
0
VERTEX
8
0
62
30
10
0.11313708
20
0.15221951
30
0
70
32
0
SEQEND
8
0
0
POLYLINE
8
0
62
30
66
1
10
0
20
0
30
0
70
8
0
VERTEX
8
0
62
30
10
0.028284271
20
0.10392929
30
0
70
32
0
VERTEX
8
0
62
30
10
0.028284271
20
0.11807317
30
0
70
32
0
SEQEND
8
0
0
POLYLINE
8
0
62
30
66
1
10
0
20
0
30
0
70
8
0
VERTEX
8
0
62
30
10
0.056568542
20
0.11807317
30
0
70
32
0
VERTEX
8
0
62
30
10
0.056568542
20
0.11807317
30
0
70
32
0
SEQEND
8
0
0
POLYLINE
8
0
62
30
66
1
10
0
20
0
30
0
70
8
0
VERTEX
8
0
62
30
10
0.084852814
20
0.11807317
30
0
70
32
0
VERTEX
8
0
62
30
10
0.084852814
20
0.11807317
30
0
70
32
0
SEQEND
8
0
0
POLYLINE
8
0
62
30
66
1
10
0
20
0
30
0
70
8
0
VERTEX
8
0
62
30
10
0.028284271
20
0.13807564
30
0
70
32
0
VERTEX
8
0
62
30
10
0.028284271
20
0.15221951
30
0
70
32
0
SEQEND
8
0
0
POLYLINE
8
0
62
30
66
1
10
0
20
0
30
0
70
8
0
VERTEX
8
0
62
30
10
0.056568542
20
0.15221951
30
0
70
32
0
VERTEX
8
0
62
30
10
0.056568542
20
0.15221951
30
0
70
32
0
SEQEND
8
0
0
POLYLINE
8
0
62
30
66
1
10
0
20
0
30
0
70
8
0
VERTEX
8
0
62
30
10
0.084852814
20
0.15221951
30
0
70
32
0
VERTEX
8
0
62
30
10
0.084852814
20
0.15221951
30
0
70
32
0
SEQEND
8
0
0
POLYLINE
8
0
62
5
66
1
10
0
20
0
30
0
70
8
0
VERTEX
8
0
62
5
10
0.028284271
20
0.101
30
0
70
32
0
VERTEX
8
0
62
5
10
0.028284271
20
0.10392929
30
0
70
32
0
SEQEND
8
0
0
POLYLINE
8
0
62
5
66
1
10
0
20
0
30
0
70
8
0
VERTEX
8
0
62
5
10
0.056568542
20
0.101
30
0
70
32
0
VERTEX
8
0
62
5
10
0.056568542
20
0.11807317
30
0
70
32
0
SEQEND
8
0
0
POLYLINE
8
0
62
5
66
1
10
0
20
0
30
0
70
8
0
VERTEX
8
0
62
5
10
0.084852814
20
0.101
30
0
70
32
0
VERTEX
8
0
62
5
10
0.084852814
20
0.11807317
30
0
70
32
0
SEQEND
8
0
0
POLYLINE
8
0
62
5
66
1
10
0
20
0
30
0
70
8
0
VERTEX
8
0
62
5
10
0.028284271
20
0.13514634
30
0
70
32
0
VERTEX
8
0
62
5
10
0.028284271
20
0.13807564
30
0
70
32
0
SEQEND
8
0
0
POLYLINE
8
0
62
5
66
1
10
0
20
0
30
0
70
8
0
VERTEX
8
0
62
5
10
0.056568542
20
0.13514634
30
0
70
32
0
VERTEX
8
0
62
5
10
0.056568542
20
0.15221951
30
0
70
32
0
SEQEND
8
0
0
POLYLINE
8
0
62
5
66
1
10
0
20
0
30
0
70
8
0
VERTEX
8
0
62
5
10
0.084852814
20
0.13514634
30
0
70
32
0
VERTEX
8
0
62
5
10
0.084852814
20
0.15221951
30
0
70
32
0
SEQEND
8
0
0
POLYLINE
8
0
62
5
66
1
10
0
20
0
30
0
70
8
0
VERTEX
8
0
62
5
10
0.028284271
20
0.11807317
30
0
70
32
0
VERTEX
8
0
62
5
10
0.028284271
20
0.13514634
30
0
70
32
0
SEQEND
8
0
0
POLYLINE
8
0
62
5
66
1
10
0
20
0
30
0
70
8
0
VERTEX
8
0
62
5
10
0.056568542
20
0.11807317
30
0
70
32
0
VERTEX
8
0
62
5
10
0.056568542
20
0.13514634
30
0
70
32
0
SEQEND
8
0
0
POLYLINE
8
0
62
5
66
1
10
0
20
0
30
0
70
8
0
VERTEX
8
0
62
5
10
0.084852814
20
0.11807317
30
0
70
32
0
VERTEX
8
0
62
5
10
0.084852814
20
0.13514634
30
0
70
32
0
SEQEND
8
0
0
POLYLINE
8
0
62
5
66
1
10
0
20
0
30
0
70
8
0
VERTEX
8
0
62
5
10
0.028284271
20
0.15221951
30
0
70
32
0
VERTEX
8
0
62
5
10
0.028284271
20
0.16929269
30
0
70
32
0
SEQEND
8
0
0
POLYLINE
8
0
62
5
66
1
10
0
20
0
30
0
70
8
0
VERTEX
8
0
62
5
10
0.056568542
20
0.15221951
30
0
70
32
0
VERTEX
8
0
62
5
10
0.056568542
20
0.16929269
30
0
70
32
0
SEQEND
8
0
0
POLYLINE
8
0
62
5
66
1
10
0
20
0
30
0
70
8
0
VERTEX
8
0
62
5
10
0.084852814
20
0.15221951
30
0
70
32
0
VERTEX
8
0
62
5
10
0.084852814
20
0.16929269
30
0
70
32
0
SEQEND
8
0
0
POLYLINE
8
0
62
30
66
1
10
0
20
0
30
0
70
8
0
VERTEX
8
0
62
30
10
0
20
0.10392929
30
0
70
32
0
VERTEX
8
0
62
30
10
0.0087409159
20
0.11807317
30
0
70
32
0
VERTEX
8
0
62
30
10
0
20
0.13221705
30
0
70
32
0
SEQEND
8
0
0
POLYLINE
8
0
62
30
66
1
10
0
20
0
30
0
70
8
0
VERTEX
8
0
62
30
10
0.028284271
20
0.10392929
30
0
70
32
0
VERTEX
8
0
62
30
10
0.037025187
20
0.11807317
30
0
70
32
0
VERTEX
8
0
62
30
10
0.028284271
20
0.13221705
30
0
70
32
0
SEQEND
8
0
0
POLYLINE
8
0
62
30
66
1
10
0
20
0
30
0
70
8
0
VERTEX
8
0
62
30
10
0.056568542
20
0.11807317
30
0
70
32
0
VERTEX
8
0
62
30
10
0.056568543
20
0.11807317
30
0
70
32
0
VERTEX
8
0
62
30
10
0.056568542
20
0.11807317
30
0
70
32
0
SEQEND
8
0
0
POLYLINE
8
0
62
30
66
1
10
0
20
0
30
0
70
8
0
VERTEX
8
0
62
30
10
0.084852814
20
0.11807317
30
0
70
32
0
VERTEX
8
0
62
30
10
0.084852814
20
0.11807317
30
0
70
32
0
VERTEX
8
0
62
30
10
0.084852814
20
0.11807317
30
0
70
32
0
SEQEND
8
0
0
POLYLINE
8
0
62
30
66
1
10
0
20
0
30
0
70
8
0
VERTEX
8
0
62
30
10
0
20
0.13807564
30
0
70
32
0
VERTEX
8
0
62
30
10
0.0087409159
20
0.15221951
30
0
70
32
0
VERTEX
8
0
62
30
10
0
20
0.16636339
30
0
70
32
0
SEQEND
8
0
0
POLYLINE
8
0
62
30
66
1
10
0
20
0
30
0
70
8
0
VERTEX
8
0
62
30
10
0.028284271
20
0.13807564
30
0
70
32
0
VERTEX
8
0
62
30
10
0.037025187
20
0.15221951
30
0
70
32
0
VERTEX
8
0
62
30
10
0.028284271
20
0.16636339
30
0
70
32
0
SEQEND
8
0
0
POLYLINE
8
0
62
30
66
1
10
0
20
0
30
0
70
8
0
VERTEX
8
0
62
30
10
0.056568542
20
0.15221951
30
0
70
32
0
VERTEX
8
0
62
30
10
0.056568543
20
0.15221951
30
0
70
32
0
VERTEX
8
0
62
30
10
0.056568542
20
0.15221951
30
0
70
32
0
SEQEND
8
0
0
POLYLINE
8
0
62
30
66
1
10
0
20
0
30
0
70
8
0
VERTEX
8
0
62
30
10
0.084852814
20
0.15221951
30
0
70
32
0
VERTEX
8
0
62
30
10
0.084852814
20
0.15221951
30
0
70
32
0
VERTEX
8
0
62
30
10
0.084852814
20
0.15221951
30
0
70
32
0
SEQEND
8
0
0
POLYLINE
8
0
62
5
66
1
10
0
20
0
30
0
70
8
0
VERTEX
8
0
62
5
10
0.22627417
20
0.16929269
30
0
70
32
0
VERTEX
8
0
62
5
10
0.22627417
20
0.101
30
0
70
32
0
SEQEND
8
0
0
POLYLINE
8
0
62
5
66
1
10
0
20
0
30
0
70
8
0
VERTEX
8
0
62
5
10
0.11313708
20
0.10392929
30
0
70
32
0
VERTEX
8
0
62
5
10
0.14142136
20
0.10392929
30
0
70
32
0
VERTEX
8
0
62
5
10
0.16970563
20
0.11807317
30
0
70
32
0
VERTEX
8
0
62
5
10
0.1979899
20
0.11807317
30
0
70
32
0
VERTEX
8
0
62
5
10
0.22627417
20
0.10392929
30
0
70
32
0
SEQEND
8
0
0
POLYLINE
8
0
62
5
66
1
10
0
20
0
30
0
70
8
0
VERTEX
8
0
62
5
10
0.11313708
20
0.13807564
30
0
70
32
0
VERTEX
8
0
62
5
10
0.14142136
20
0.13807564
30
0
70
32
0
VERTEX
8
0
62
5
10
0.16970563
20
0.15221951
30
0
70
32
0
VERTEX
8
0
62
5
10
0.1979899
20
0.15221951
30
0
70
32
0
VERTEX
8
0
62
5
10
0.22627417
20
0.13807564
30
0
70
32
0
SEQEND
8
0
0
POLYLINE
8
0
62
5
66
1
10
0
20
0
30
0
70
8
0
VERTEX
8
0
62
5
10
0.11313708
20
0.13221705
30
0
70
32
0
VERTEX
8
0
62
5
10
0.14142136
20
0.13221705
30
0
70
32
0
VERTEX
8
0
62
5
10
0.16970563
20
0.11807317
30
0
70
32
0
VERTEX
8
0
62
5
10
0.1979899
20
0.11807317
30
0
70
32
0
VERTEX
8
0
62
5
10
0.22627417
20
0.13221705
30
0
70
32
0
SEQEND
8
0
0
POLYLINE
8
0
62
5
66
1
10
0
20
0
30
0
70
8
0
VERTEX
8
0
62
5
10
0.11313708
20
0.16636339
30
0
70
32
0
VERTEX
8
0
62
5
10
0.14142136
20
0.16636339
30
0
70
32
0
VERTEX
8
0
62
5
10
0.16970563
20
0.15221951
30
0
70
32
0
VERTEX
8
0
62
5
10
0.1979899
20
0.15221951
30
0
70
32
0
VERTEX
8
0
62
5
10
0.22627417
20
0.16636339
30
0
70
32
0
SEQEND
8
0
0
POLYLINE
8
0
62
30
66
1
10
0
20
0
30
0
70
8
0
VERTEX
8
0
62
30
10
0.11313708
20
0.11807317
30
0
70
32
0
VERTEX
8
0
62
30
10
0.22627417
20
0.11807317
30
0
70
32
0
SEQEND
8
0
0
POLYLINE
8
0
62
30
66
1
10
0
20
0
30
0
70
8
0
VERTEX
8
0
62
30
10
0.11313708
20
0.15221951
30
0
70
32
0
VERTEX
8
0
62
30
10
0.22627417
20
0.15221951
30
0
70
32
0
SEQEND
8
0
0
POLYLINE
8
0
62
30
66
1
10
0
20
0
30
0
70
8
0
VERTEX
8
0
62
30
10
0.14142136
20
0.10392929
30
0
70
32
0
VERTEX
8
0
62
30
10
0.14142136
20
0.11807317
30
0
70
32
0
SEQEND
8
0
0
POLYLINE
8
0
62
30
66
1
10
0
20
0
30
0
70
8
0
VERTEX
8
0
62
30
10
0.16970563
20
0.11807317
30
0
70
32
0
VERTEX
8
0
62
30
10
0.16970563
20
0.11807317
30
0
70
32
0
SEQEND
8
0
0
POLYLINE
8
0
62
30
66
1
10
0
20
0
30
0
70
8
0
VERTEX
8
0
62
30
10
0.1979899
20
0.11807317
30
0
70
32
0
VERTEX
8
0
62
30
10
0.1979899
20
0.11807317
30
0
70
32
0
SEQEND
8
0
0
POLYLINE
8
0
62
30
66
1
10
0
20
0
30
0
70
8
0
VERTEX
8
0
62
30
10
0.14142136
20
0.13807564
30
0
70
32
0
VERTEX
8
0
62
30
10
0.14142136
20
0.15221951
30
0
70
32
0
SEQEND
8
0
0
POLYLINE
8
0
62
30
66
1
10
0
20
0
30
0
70
8
0
VERTEX
8
0
62
30
10
0.16970563
20
0.15221951
30
0
70
32
0
VERTEX
8
0
62
30
10
0.16970563
20
0.15221951
30
0
70
32
0
SEQEND
8
0
0
POLYLINE
8
0
62
30
66
1
10
0
20
0
30
0
70
8
0
VERTEX
8
0
62
30
10
0.1979899
20
0.15221951
30
0
70
32
0
VERTEX
8
0
62
30
10
0.1979899
20
0.15221951
30
0
70
32
0
SEQEND
8
0
0
POLYLINE
8
0
62
5
66
1
10
0
20
0
30
0
70
8
0
VERTEX
8
0
62
5
10
0.14142136
20
0.101
30
0
70
32
0
VERTEX
8
0
62
5
10
0.14142136
20
0.10392929
30
0
70
32
0
SEQEND
8
0
0
POLYLINE
8
0
62
5
66
1
10
0
20
0
30
0
70
8
0
VERTEX
8
0
62
5
10
0.16970563
20
0.101
30
0
70
32
0
VERTEX
8
0
62
5
10
0.16970563
20
0.11807317
30
0
70
32
0
SEQEND
8
0
0
POLYLINE
8
0
62
5
66
1
10
0
20
0
30
0
70
8
0
VERTEX
8
0
62
5
10
0.1979899
20
0.101
30
0
70
32
0
VERTEX
8
0
62
5
10
0.1979899
20
0.11807317
30
0
70
32
0
SEQEND
8
0
0
POLYLINE
8
0
62
5
66
1
10
0
20
0
30
0
70
8
0
VERTEX
8
0
62
5
10
0.14142136
20
0.13514634
30
0
70
32
0
VERTEX
8
0
62
5
10
0.14142136
20
0.13807564
30
0
70
32
0
SEQEND
8
0
0
POLYLINE
8
0
62
5
66
1
10
0
20
0
30
0
70
8
0
VERTEX
8
0
62
5
10
0.16970563
20
0.13514634
30
0
70
32
0
VERTEX
8
0
62
5
10
0.16970563
20
0.15221951
30
0
70
32
0
SEQEND
8
0
0
POLYLINE
8
0
62
5
66
1
10
0
20
0
30
0
70
8
0
VERTEX
8
0
62
5
10
0.1979899
20
0.13514634
30
0
70
32
0
VERTEX
8
0
62
5
10
0.1979899
20
0.15221951
30
0
70
32
0
SEQEND
8
0
0
POLYLINE
8
0
62
5
66
1
10
0
20
0
30
0
70
8
0
VERTEX
8
0
62
5
10
0.14142136
20
0.11807317
30
0
70
32
0
VERTEX
8
0
62
5
10
0.14142136
20
0.13514634
30
0
70
32
0
SEQEND
8
0
0
POLYLINE
8
0
62
5
66
1
10
0
20
0
30
0
70
8
0
VERTEX
8
0
62
5
10
0.16970563
20
0.11807317
30
0
70
32
0
VERTEX
8
0
62
5
10
0.16970563
20
0.13514634
30
0
70
32
0
SEQEND
8
0
0
POLYLINE
8
0
62
5
66
1
10
0
20
0
30
0
70
8
0
VERTEX
8
0
62
5
10
0.1979899
20
0.11807317
30
0
70
32
0
VERTEX
8
0
62
5
10
0.1979899
20
0.13514634
30
0
70
32
0
SEQEND
8
0
0
POLYLINE
8
0
62
5
66
1
10
0
20
0
30
0
70
8
0
VERTEX
8
0
62
5
10
0.14142136
20
0.15221951
30
0
70
32
0
VERTEX
8
0
62
5
10
0.14142136
20
0.16929269
30
0
70
32
0
SEQEND
8
0
0
POLYLINE
8
0
62
5
66
1
10
0
20
0
30
0
70
8
0
VERTEX
8
0
62
5
10
0.16970563
20
0.15221951
30
0
70
32
0
VERTEX
8
0
62
5
10
0.16970563
20
0.16929269
30
0
70
32
0
SEQEND
8
0
0
POLYLINE
8
0
62
5
66
1
10
0
20
0
30
0
70
8
0
VERTEX
8
0
62
5
10
0.1979899
20
0.15221951
30
0
70
32
0
VERTEX
8
0
62
5
10
0.1979899
20
0.16929269
30
0
70
32
0
SEQEND
8
0
0
POLYLINE
8
0
62
30
66
1
10
0
20
0
30
0
70
8
0
VERTEX
8
0
62
30
10
0.11313708
20
0.10392929
30
0
70
32
0
VERTEX
8
0
62
30
10
0.121878
20
0.11807317
30
0
70
32
0
VERTEX
8
0
62
30
10
0.11313708
20
0.13221705
30
0
70
32
0
SEQEND
8
0
0
POLYLINE
8
0
62
30
66
1
10
0
20
0
30
0
70
8
0
VERTEX
8
0
62
30
10
0.14142136
20
0.10392929
30
0
70
32
0
VERTEX
8
0
62
30
10
0.15016227
20
0.11807317
30
0
70
32
0
VERTEX
8
0
62
30
10
0.14142136
20
0.13221705
30
0
70
32
0
SEQEND
8
0
0
POLYLINE
8
0
62
30
66
1
10
0
20
0
30
0
70
8
0
VERTEX
8
0
62
30
10
0.16970563
20
0.11807317
30
0
70
32
0
VERTEX
8
0
62
30
10
0.16970563
20
0.11807317
30
0
70
32
0
VERTEX
8
0
62
30
10
0.16970563
20
0.11807317
30
0
70
32
0
SEQEND
8
0
0
POLYLINE
8
0
62
30
66
1
10
0
20
0
30
0
70
8
0
VERTEX
8
0
62
30
10
0.1979899
20
0.11807317
30
0
70
32
0
VERTEX
8
0
62
30
10
0.1979899
20
0.11807317
30
0
70
32
0
VERTEX
8
0
62
30
10
0.1979899
20
0.11807317
30
0
70
32
0
SEQEND
8
0
0
POLYLINE
8
0
62
30
66
1
10
0
20
0
30
0
70
8
0
VERTEX
8
0
62
30
10
0.11313708
20
0.13807564
30
0
70
32
0
VERTEX
8
0
62
30
10
0.121878
20
0.15221951
30
0
70
32
0
VERTEX
8
0
62
30
10
0.11313708
20
0.16636339
30
0
70
32
0
SEQEND
8
0
0
POLYLINE
8
0
62
30
66
1
10
0
20
0
30
0
70
8
0
VERTEX
8
0
62
30
10
0.14142136
20
0.13807564
30
0
70
32
0
VERTEX
8
0
62
30
10
0.15016227
20
0.15221951
30
0
70
32
0
VERTEX
8
0
62
30
10
0.14142136
20
0.16636339
30
0
70
32
0
SEQEND
8
0
0
POLYLINE
8
0
62
30
66
1
10
0
20
0
30
0
70
8
0
VERTEX
8
0
62
30
10
0.16970563
20
0.15221951
30
0
70
32
0
VERTEX
8
0
62
30
10
0.16970563
20
0.15221951
30
0
70
32
0
VERTEX
8
0
62
30
10
0.16970563
20
0.15221951
30
0
70
32
0
SEQEND
8
0
0
POLYLINE
8
0
62
30
66
1
10
0
20
0
30
0
70
8
0
VERTEX
8
0
62
30
10
0.1979899
20
0.15221951
30
0
70
32
0
VERTEX
8
0
62
30
10
0.1979899
20
0.15221951
30
0
70
32
0
VERTEX
8
0
62
30
10
0.1979899
20
0.15221951
30
0
70
32
0
SEQEND
8
0
0
POLYLINE
8
0
62
5
66
1
10
0
20
0
30
0
70
8
0
VERTEX
8
0
62
5
10
-0.11313708
20
0.101
30
0
70
32
0
VERTEX
8
0
62
5
10
-0.11313708
20
0.16929269
30
0
70
32
0
SEQEND
8
0
0
POLYLINE
8
0
62
5
66
1
10
0
20
0
30
0
70
8
0
VERTEX
8
0
62
5
10
-0.11313708
20
0.10392929
30
0
70
32
0
VERTEX
8
0
62
5
10
-0.084852814
20
0.10392929
30
0
70
32
0
VERTEX
8
0
62
5
10
-0.056568542
20
0.11807317
30
0
70
32
0
VERTEX
8
0
62
5
10
-0.028284271
20
0.11807317
30
0
70
32
0
VERTEX
8
0
62
5
10
0
20
0.10392929
30
0
70
32
0
SEQEND
8
0
0
POLYLINE
8
0
62
5
66
1
10
0
20
0
30
0
70
8
0
VERTEX
8
0
62
5
10
-0.11313708
20
0.13807564
30
0
70
32
0
VERTEX
8
0
62
5
10
-0.084852814
20
0.13807564
30
0
70
32
0
VERTEX
8
0
62
5
10
-0.056568542
20
0.15221951
30
0
70
32
0
VERTEX
8
0
62
5
10
-0.028284271
20
0.15221951
30
0
70
32
0
VERTEX
8
0
62
5
10
0
20
0.13807564
30
0
70
32
0
SEQEND
8
0
0
POLYLINE
8
0
62
5
66
1
10
0
20
0
30
0
70
8
0
VERTEX
8
0
62
5
10
-0.11313708
20
0.13221705
30
0
70
32
0
VERTEX
8
0
62
5
10
-0.084852814
20
0.13221705
30
0
70
32
0
VERTEX
8
0
62
5
10
-0.056568542
20
0.11807317
30
0
70
32
0
VERTEX
8
0
62
5
10
-0.028284271
20
0.11807317
30
0
70
32
0
VERTEX
8
0
62
5
10
0
20
0.13221705
30
0
70
32
0
SEQEND
8
0
0
POLYLINE
8
0
62
5
66
1
10
0
20
0
30
0
70
8
0
VERTEX
8
0
62
5
10
-0.11313708
20
0.16636339
30
0
70
32
0
VERTEX
8
0
62
5
10
-0.084852814
20
0.16636339
30
0
70
32
0
VERTEX
8
0
62
5
10
-0.056568542
20
0.15221951
30
0
70
32
0
VERTEX
8
0
62
5
10
-0.028284271
20
0.15221951
30
0
70
32
0
VERTEX
8
0
62
5
10
0
20
0.16636339
30
0
70
32
0
SEQEND
8
0
0
POLYLINE
8
0
62
30
66
1
10
0
20
0
30
0
70
8
0
VERTEX
8
0
62
30
10
-0.11313708
20
0.11807317
30
0
70
32
0
VERTEX
8
0
62
30
10
0
20
0.11807317
30
0
70
32
0
SEQEND
8
0
0
POLYLINE
8
0
62
30
66
1
10
0
20
0
30
0
70
8
0
VERTEX
8
0
62
30
10
-0.11313708
20
0.15221951
30
0
70
32
0
VERTEX
8
0
62
30
10
0
20
0.15221951
30
0
70
32
0
SEQEND
8
0
0
POLYLINE
8
0
62
30
66
1
10
0
20
0
30
0
70
8
0
VERTEX
8
0
62
30
10
-0.084852814
20
0.10392929
30
0
70
32
0
VERTEX
8
0
62
30
10
-0.084852814
20
0.11807317
30
0
70
32
0
SEQEND
8
0
0
POLYLINE
8
0
62
30
66
1
10
0
20
0
30
0
70
8
0
VERTEX
8
0
62
30
10
-0.056568542
20
0.11807317
30
0
70
32
0
VERTEX
8
0
62
30
10
-0.056568542
20
0.11807317
30
0
70
32
0
SEQEND
8
0
0
POLYLINE
8
0
62
30
66
1
10
0
20
0
30
0
70
8
0
VERTEX
8
0
62
30
10
-0.028284271
20
0.11807317
30
0
70
32
0
VERTEX
8
0
62
30
10
-0.028284271
20
0.11807317
30
0
70
32
0
SEQEND
8
0
0
POLYLINE
8
0
62
30
66
1
10
0
20
0
30
0
70
8
0
VERTEX
8
0
62
30
10
-0.084852814
20
0.13807564
30
0
70
32
0
VERTEX
8
0
62
30
10
-0.084852814
20
0.15221951
30
0
70
32
0
SEQEND
8
0
0
POLYLINE
8
0
62
30
66
1
10
0
20
0
30
0
70
8
0
VERTEX
8
0
62
30
10
-0.056568542
20
0.15221951
30
0
70
32
0
VERTEX
8
0
62
30
10
-0.056568542
20
0.15221951
30
0
70
32
0
SEQEND
8
0
0
POLYLINE
8
0
62
30
66
1
10
0
20
0
30
0
70
8
0
VERTEX
8
0
62
30
10
-0.028284271
20
0.15221951
30
0
70
32
0
VERTEX
8
0
62
30
10
-0.028284271
20
0.15221951
30
0
70
32
0
SEQEND
8
0
0
POLYLINE
8
0
62
5
66
1
10
0
20
0
30
0
70
8
0
VERTEX
8
0
62
5
10
-0.084852814
20
0.101
30
0
70
32
0
VERTEX
8
0
62
5
10
-0.084852814
20
0.10392929
30
0
70
32
0
SEQEND
8
0
0
POLYLINE
8
0
62
5
66
1
10
0
20
0
30
0
70
8
0
VERTEX
8
0
62
5
10
-0.056568542
20
0.101
30
0
70
32
0
VERTEX
8
0
62
5
10
-0.056568542
20
0.11807317
30
0
70
32
0
SEQEND
8
0
0
POLYLINE
8
0
62
5
66
1
10
0
20
0
30
0
70
8
0
VERTEX
8
0
62
5
10
-0.028284271
20
0.101
30
0
70
32
0
VERTEX
8
0
62
5
10
-0.028284271
20
0.11807317
30
0
70
32
0
SEQEND
8
0
0
POLYLINE
8
0
62
5
66
1
10
0
20
0
30
0
70
8
0
VERTEX
8
0
62
5
10
-0.084852814
20
0.13514634
30
0
70
32
0
VERTEX
8
0
62
5
10
-0.084852814
20
0.13807564
30
0
70
32
0
SEQEND
8
0
0
POLYLINE
8
0
62
5
66
1
10
0
20
0
30
0
70
8
0
VERTEX
8
0
62
5
10
-0.056568542
20
0.13514634
30
0
70
32
0
VERTEX
8
0
62
5
10
-0.056568542
20
0.15221951
30
0
70
32
0
SEQEND
8
0
0
POLYLINE
8
0
62
5
66
1
10
0
20
0
30
0
70
8
0
VERTEX
8
0
62
5
10
-0.028284271
20
0.13514634
30
0
70
32
0
VERTEX
8
0
62
5
10
-0.028284271
20
0.15221951
30
0
70
32
0
SEQEND
8
0
0
POLYLINE
8
0
62
5
66
1
10
0
20
0
30
0
70
8
0
VERTEX
8
0
62
5
10
-0.084852814
20
0.11807317
30
0
70
32
0
VERTEX
8
0
62
5
10
-0.084852814
20
0.13514634
30
0
70
32
0
SEQEND
8
0
0
POLYLINE
8
0
62
5
66
1
10
0
20
0
30
0
70
8
0
VERTEX
8
0
62
5
10
-0.056568542
20
0.11807317
30
0
70
32
0
VERTEX
8
0
62
5
10
-0.056568542
20
0.13514634
30
0
70
32
0
SEQEND
8
0
0
POLYLINE
8
0
62
5
66
1
10
0
20
0
30
0
70
8
0
VERTEX
8
0
62
5
10
-0.028284271
20
0.11807317
30
0
70
32
0
VERTEX
8
0
62
5
10
-0.028284271
20
0.13514634
30
0
70
32
0
SEQEND
8
0
0
POLYLINE
8
0
62
5
66
1
10
0
20
0
30
0
70
8
0
VERTEX
8
0
62
5
10
-0.084852814
20
0.15221951
30
0
70
32
0
VERTEX
8
0
62
5
10
-0.084852814
20
0.16929269
30
0
70
32
0
SEQEND
8
0
0
POLYLINE
8
0
62
5
66
1
10
0
20
0
30
0
70
8
0
VERTEX
8
0
62
5
10
-0.056568542
20
0.15221951
30
0
70
32
0
VERTEX
8
0
62
5
10
-0.056568542
20
0.16929269
30
0
70
32
0
SEQEND
8
0
0
POLYLINE
8
0
62
5
66
1
10
0
20
0
30
0
70
8
0
VERTEX
8
0
62
5
10
-0.028284271
20
0.15221951
30
0
70
32
0
VERTEX
8
0
62
5
10
-0.028284271
20
0.16929269
30
0
70
32
0
SEQEND
8
0
0
POLYLINE
8
0
62
30
66
1
10
0
20
0
30
0
70
8
0
VERTEX
8
0
62
30
10
-0.11313708
20
0.10392929
30
0
70
32
0
VERTEX
8
0
62
30
10
-0.10439617
20
0.11807317
30
0
70
32
0
VERTEX
8
0
62
30
10
-0.11313708
20
0.13221705
30
0
70
32
0
SEQEND
8
0
0
POLYLINE
8
0
62
30
66
1
10
0
20
0
30
0
70
8
0
VERTEX
8
0
62
30
10
-0.084852814
20
0.10392929
30
0
70
32
0
VERTEX
8
0
62
30
10
-0.076111898
20
0.11807317
30
0
70
32
0
VERTEX
8
0
62
30
10
-0.084852814
20
0.13221705
30
0
70
32
0
SEQEND
8
0
0
POLYLINE
8
0
62
30
66
1
10
0
20
0
30
0
70
8
0
VERTEX
8
0
62
30
10
-0.056568542
20
0.11807317
30
0
70
32
0
VERTEX
8
0
62
30
10
-0.056568542
20
0.11807317
30
0
70
32
0
VERTEX
8
0
62
30
10
-0.056568542
20
0.11807317
30
0
70
32
0
SEQEND
8
0
0
POLYLINE
8
0
62
30
66
1
10
0
20
0
30
0
70
8
0
VERTEX
8
0
62
30
10
-0.028284271
20
0.11807317
30
0
70
32
0
VERTEX
8
0
62
30
10
-0.028284271
20
0.11807317
30
0
70
32
0
VERTEX
8
0
62
30
10
-0.028284271
20
0.11807317
30
0
70
32
0
SEQEND
8
0
0
POLYLINE
8
0
62
30
66
1
10
0
20
0
30
0
70
8
0
VERTEX
8
0
62
30
10
-0.11313708
20
0.13807564
30
0
70
32
0
VERTEX
8
0
62
30
10
-0.10439617
20
0.15221951
30
0
70
32
0
VERTEX
8
0
62
30
10
-0.11313708
20
0.16636339
30
0
70
32
0
SEQEND
8
0
0
POLYLINE
8
0
62
30
66
1
10
0
20
0
30
0
70
8
0
VERTEX
8
0
62
30
10
-0.084852814
20
0.13807564
30
0
70
32
0
VERTEX
8
0
62
30
10
-0.076111898
20
0.15221951
30
0
70
32
0
VERTEX
8
0
62
30
10
-0.084852814
20
0.16636339
30
0
70
32
0
SEQEND
8
0
0
POLYLINE
8
0
62
30
66
1
10
0
20
0
30
0
70
8
0
VERTEX
8
0
62
30
10
-0.056568542
20
0.15221951
30
0
70
32
0
VERTEX
8
0
62
30
10
-0.056568542
20
0.15221951
30
0
70
32
0
VERTEX
8
0
62
30
10
-0.056568542
20
0.15221951
30
0
70
32
0
SEQEND
8
0
0
POLYLINE
8
0
62
30
66
1
10
0
20
0
30
0
70
8
0
VERTEX
8
0
62
30
10
-0.028284271
20
0.15221951
30
0
70
32
0
VERTEX
8
0
62
30
10
-0.028284271
20
0.15221951
30
0
70
32
0
VERTEX
8
0
62
30
10
-0.028284271
20
0.15221951
30
0
70
32
0
SEQEND
8
0
0
POLYLINE
8
0
62
5
66
1
10
0
20
0
30
0
70
8
0
VERTEX
8
0
62
5
10
0
20
0.16929269
30
0
70
32
0
VERTEX
8
0
62
5
10
0
20
0.17224936
30
0
70
32
0
SEQEND
8
0
0
POLYLINE
8
0
62
5
66
1
10
0
20
0
30
0
70
8
0
VERTEX
8
0
62
5
10
0.028284271
20
0.16929269
30
0
70
32
0
VERTEX
8
0
62
5
10
0.028284271
20
0.17224936
30
0
70
32
0
SEQEND
8
0
0
POLYLINE
8
0
62
5
66
1
10
0
20
0
30
0
70
8
0
VERTEX
8
0
62
5
10
0.056568542
20
0.16929269
30
0
70
32
0
VERTEX
8
0
62
5
10
0.056568542
20
0.17224936
30
0
70
32
0
SEQEND
8
0
0
POLYLINE
8
0
62
5
66
1
10
0
20
0
30
0
70
8
0
VERTEX
8
0
62
5
10
0.084852814
20
0.16929269
30
0
70
32
0
VERTEX
8
0
62
5
10
0.084852814
20
0.17224936
30
0
70
32
0
SEQEND
8
0
0
POLYLINE
8
0
62
5
66
1
10
0
20
0
30
0
70
8
0
VERTEX
8
0
62
5
10
0.11313708
20
0.16929269
30
0
70
32
0
VERTEX
8
0
62
5
10
0.11313708
20
0.17224936
30
0
70
32
0
SEQEND
8
0
0
POLYLINE
8
0
62
5
66
1
10
0
20
0
30
0
70
8
0
VERTEX
8
0
62
5
10
0.028284271
20
0.16929269
30
0
70
32
0
VERTEX
8
0
62
5
10
0.028284271
20
0.16929269
30
0
70
32
0
SEQEND
8
0
0
POLYLINE
8
0
62
5
66
1
10
0
20
0
30
0
70
8
0
VERTEX
8
0
62
5
10
0.056568542
20
0.16929269
30
0
70
32
0
VERTEX
8
0
62
5
10
0.056568542
20
0.16929269
30
0
70
32
0
SEQEND
8
0
0
POLYLINE
8
0
62
5
66
1
10
0
20
0
30
0
70
8
0
VERTEX
8
0
62
5
10
0.084852814
20
0.16929269
30
0
70
32
0
VERTEX
8
0
62
5
10
0.084852814
20
0.16929269
30
0
70
32
0
SEQEND
8
0
0
POLYLINE
8
0
62
5
66
1
10
0
20
0
30
0
70
8
0
VERTEX
8
0
62
5
10
4.00462e-11
20
0.17224936
30
0
70
32
0
VERTEX
8
0
62
5
10
4.00462e-11
20
0.17224936
30
0
70
32
0
SEQEND
8
0
0
POLYLINE
8
0
62
5
66
1
10
0
20
0
30
0
70
8
0
VERTEX
8
0
62
5
10
0.028284271
20
0.17224936
30
0
70
32
0
VERTEX
8
0
62
5
10
0.028284271
20
0.17224936
30
0
70
32
0
SEQEND
8
0
0
POLYLINE
8
0
62
5
66
1
10
0
20
0
30
0
70
8
0
VERTEX
8
0
62
5
10
0.056568543
20
0.17224936
30
0
70
32
0
VERTEX
8
0
62
5
10
0.056568543
20
0.17224936
30
0
70
32
0
SEQEND
8
0
0
POLYLINE
8
0
62
5
66
1
10
0
20
0
30
0
70
8
0
VERTEX
8
0
62
5
10
0.084852814
20
0.17224936
30
0
70
32
0
VERTEX
8
0
62
5
10
0.084852814
20
0.17224936
30
0
70
32
0
SEQEND
8
0
0
POLYLINE
8
0
62
5
66
1
10
0
20
0
30
0
70
8
0
VERTEX
8
0
62
5
10
0.14142136
20
0.16929269
30
0
70
32
0
VERTEX
8
0
62
5
10
0.14142136
20
0.17224936
30
0
70
32
0
SEQEND
8
0
0
POLYLINE
8
0
62
5
66
1
10
0
20
0
30
0
70
8
0
VERTEX
8
0
62
5
10
0.16970563
20
0.16929269
30
0
70
32
0
VERTEX
8
0
62
5
10
0.16970563
20
0.17224936
30
0
70
32
0
SEQEND
8
0
0
POLYLINE
8
0
62
5
66
1
10
0
20
0
30
0
70
8
0
VERTEX
8
0
62
5
10
0.1979899
20
0.16929269
30
0
70
32
0
VERTEX
8
0
62
5
10
0.1979899
20
0.17224936
30
0
70
32
0
SEQEND
8
0
0
POLYLINE
8
0
62
5
66
1
10
0
20
0
30
0
70
8
0
VERTEX
8
0
62
5
10
0.22627417
20
0.16929269
30
0
70
32
0
VERTEX
8
0
62
5
10
0.22627417
20
0.17224936
30
0
70
32
0
SEQEND
8
0
0
POLYLINE
8
0
62
5
66
1
10
0
20
0
30
0
70
8
0
VERTEX
8
0
62
5
10
0.14142136
20
0.16929269
30
0
70
32
0
VERTEX
8
0
62
5
10
0.14142136
20
0.16929269
30
0
70
32
0
SEQEND
8
0
0
POLYLINE
8
0
62
5
66
1
10
0
20
0
30
0
70
8
0
VERTEX
8
0
62
5
10
0.16970563
20
0.16929269
30
0
70
32
0
VERTEX
8
0
62
5
10
0.16970563
20
0.16929269
30
0
70
32
0
SEQEND
8
0
0
POLYLINE
8
0
62
5
66
1
10
0
20
0
30
0
70
8
0
VERTEX
8
0
62
5
10
0.1979899
20
0.16929269
30
0
70
32
0
VERTEX
8
0
62
5
10
0.1979899
20
0.16929269
30
0
70
32
0
SEQEND
8
0
0
POLYLINE
8
0
62
5
66
1
10
0
20
0
30
0
70
8
0
VERTEX
8
0
62
5
10
0.11313709
20
0.17224936
30
0
70
32
0
VERTEX
8
0
62
5
10
0.11313709
20
0.17224936
30
0
70
32
0
SEQEND
8
0
0
POLYLINE
8
0
62
5
66
1
10
0
20
0
30
0
70
8
0
VERTEX
8
0
62
5
10
0.14142136
20
0.17224936
30
0
70
32
0
VERTEX
8
0
62
5
10
0.14142136
20
0.17224936
30
0
70
32
0
SEQEND
8
0
0
POLYLINE
8
0
62
5
66
1
10
0
20
0
30
0
70
8
0
VERTEX
8
0
62
5
10
0.16970563
20
0.17224936
30
0
70
32
0
VERTEX
8
0
62
5
10
0.16970563
20
0.17224936
30
0
70
32
0
SEQEND
8
0
0
POLYLINE
8
0
62
5
66
1
10
0
20
0
30
0
70
8
0
VERTEX
8
0
62
5
10
0.1979899
20
0.17224936
30
0
70
32
0
VERTEX
8
0
62
5
10
0.1979899
20
0.17224936
30
0
70
32
0
SEQEND
8
0
0
POLYLINE
8
0
62
5
66
1
10
0
20
0
30
0
70
8
0
VERTEX
8
0
62
5
10
-0.084852814
20
0.16929269
30
0
70
32
0
VERTEX
8
0
62
5
10
-0.084852814
20
0.17224936
30
0
70
32
0
SEQEND
8
0
0
POLYLINE
8
0
62
5
66
1
10
0
20
0
30
0
70
8
0
VERTEX
8
0
62
5
10
-0.056568542
20
0.16929269
30
0
70
32
0
VERTEX
8
0
62
5
10
-0.056568542
20
0.17224936
30
0
70
32
0
SEQEND
8
0
0
POLYLINE
8
0
62
5
66
1
10
0
20
0
30
0
70
8
0
VERTEX
8
0
62
5
10
-0.028284271
20
0.16929269
30
0
70
32
0
VERTEX
8
0
62
5
10
-0.028284271
20
0.17224936
30
0
70
32
0
SEQEND
8
0
0
POLYLINE
8
0
62
5
66
1
10
0
20
0
30
0
70
8
0
VERTEX
8
0
62
5
10
0
20
0.16929269
30
0
70
32
0
VERTEX
8
0
62
5
10
0
20
0.17224936
30
0
70
32
0
SEQEND
8
0
0
POLYLINE
8
0
62
5
66
1
10
0
20
0
30
0
70
8
0
VERTEX
8
0
62
5
10
-0.084852814
20
0.16929269
30
0
70
32
0
VERTEX
8
0
62
5
10
-0.084852814
20
0.16929269
30
0
70
32
0
SEQEND
8
0
0
POLYLINE
8
0
62
5
66
1
10
0
20
0
30
0
70
8
0
VERTEX
8
0
62
5
10
-0.056568542
20
0.16929269
30
0
70
32
0
VERTEX
8
0
62
5
10
-0.056568542
20
0.16929269
30
0
70
32
0
SEQEND
8
0
0
POLYLINE
8
0
62
5
66
1
10
0
20
0
30
0
70
8
0
VERTEX
8
0
62
5
10
-0.028284271
20
0.16929269
30
0
70
32
0
VERTEX
8
0
62
5
10
-0.028284271
20
0.16929269
30
0
70
32
0
SEQEND
8
0
0
POLYLINE
8
0
62
5
66
1
10
0
20
0
30
0
70
8
0
VERTEX
8
0
62
5
10
-0.11313708
20
0.17224936
30
0
70
32
0
VERTEX
8
0
62
5
10
-0.11313708
20
0.17224936
30
0
70
32
0
SEQEND
8
0
0
POLYLINE
8
0
62
5
66
1
10
0
20
0
30
0
70
8
0
VERTEX
8
0
62
5
10
-0.084852814
20
0.17224936
30
0
70
32
0
VERTEX
8
0
62
5
10
-0.084852814
20
0.17224936
30
0
70
32
0
SEQEND
8
0
0
POLYLINE
8
0
62
5
66
1
10
0
20
0
30
0
70
8
0
VERTEX
8
0
62
5
10
-0.056568542
20
0.17224936
30
0
70
32
0
VERTEX
8
0
62
5
10
-0.056568542
20
0.17224936
30
0
70
32
0
SEQEND
8
0
0
POLYLINE
8
0
62
5
66
1
10
0
20
0
30
0
70
8
0
VERTEX
8
0
62
5
10
-0.028284271
20
0.17224936
30
0
70
32
0
VERTEX
8
0
62
5
10
-0.028284271
20
0.17224936
30
0
70
32
0
SEQEND
8
0
0
POLYLINE
8
0
62
5
66
1
10
0
20
0
30
0
70
8
0
VERTEX
8
0
62
5
10
-0.028284271
20
0.17224936
30
0
70
32
0
VERTEX
8
0
62
5
10
-0.028284271
20
0.18407603
30
0
70
32
0
SEQEND
8
0
0
POLYLINE
8
0
62
5
66
1
10
0
20
0
30
0
70
8
0
VERTEX
8
0
62
5
10
0.084852814
20
0.17224936
30
0
70
32
0
VERTEX
8
0
62
5
10
0.084852814
20
0.18407603
30
0
70
32
0
SEQEND
8
0
0
POLYLINE
8
0
62
5
66
1
10
0
20
0
30
0
70
8
0
VERTEX
8
0
62
5
10
4.0046199e-11
20
0.17224936
30
0
70
32
0
VERTEX
8
0
62
5
10
4.0046199e-11
20
0.18407603
30
0
70
32
0
SEQEND
8
0
0
POLYLINE
8
0
62
5
66
1
10
0
20
0
30
0
70
8
0
VERTEX
8
0
62
5
10
0.028284271
20
0.17224936
30
0
70
32
0
VERTEX
8
0
62
5
10
0.028284271
20
0.18407603
30
0
70
32
0
SEQEND
8
0
0
POLYLINE
8
0
62
5
66
1
10
0
20
0
30
0
70
8
0
VERTEX
8
0
62
5
10
0.056568543
20
0.17224936
30
0
70
32
0
VERTEX
8
0
62
5
10
0.056568543
20
0.18407603
30
0
70
32
0
SEQEND
8
0
0
POLYLINE
8
0
62
5
66
1
10
0
20
0
30
0
70
8
0
VERTEX
8
0
62
5
10
0.1979899
20
0.17224936
30
0
70
32
0
VERTEX
8
0
62
5
10
0.1979899
20
0.18407603
30
0
70
32
0
SEQEND
8
0
0
POLYLINE
8
0
62
5
66
1
10
0
20
0
30
0
70
8
0
VERTEX
8
0
62
5
10
0.11313709
20
0.17224936
30
0
70
32
0
VERTEX
8
0
62
5
10
0.11313709
20
0.18407603
30
0
70
32
0
SEQEND
8
0
0
POLYLINE
8
0
62
5
66
1
10
0
20
0
30
0
70
8
0
VERTEX
8
0
62
5
10
0.14142136
20
0.17224936
30
0
70
32
0
VERTEX
8
0
62
5
10
0.14142136
20
0.18407603
30
0
70
32
0
SEQEND
8
0
0
POLYLINE
8
0
62
5
66
1
10
0
20
0
30
0
70
8
0
VERTEX
8
0
62
5
10
0.16970563
20
0.17224936
30
0
70
32
0
VERTEX
8
0
62
5
10
0.16970563
20
0.18407603
30
0
70
32
0
SEQEND
8
0
0
POLYLINE
8
0
62
5
66
1
10
0
20
0
30
0
70
8
0
VERTEX
8
0
62
5
10
-0.14142136
20
0.17224936
30
0
70
32
0
VERTEX
8
0
62
5
10
-0.14142136
20
0.18407603
30
0
70
32
0
SEQEND
8
0
0
POLYLINE
8
0
62
5
66
1
10
0
20
0
30
0
70
8
0
VERTEX
8
0
62
5
10
-0.11313708
20
0.17224936
30
0
70
32
0
VERTEX
8
0
62
5
10
-0.11313708
20
0.18407603
30
0
70
32
0
SEQEND
8
0
0
POLYLINE
8
0
62
5
66
1
10
0
20
0
30
0
70
8
0
VERTEX
8
0
62
5
10
-0.084852814
20
0.17224936
30
0
70
32
0
VERTEX
8
0
62
5
10
-0.084852814
20
0.18407603
30
0
70
32
0
SEQEND
8
0
0
POLYLINE
8
0
62
5
66
1
10
0
20
0
30
0
70
8
0
VERTEX
8
0
62
5
10
-0.056568542
20
0.17224936
30
0
70
32
0
VERTEX
8
0
62
5
10
-0.056568542
20
0.18407603
30
0
70
32
0
SEQEND
8
0
0
POLYLINE
8
0
62
5
66
1
10
0
20
0
30
0
70
8
0
VERTEX
8
0
62
5
10
-0.028284271
20
0.18407603
30
0
70
32
0
VERTEX
8
0
62
5
10
-0.028284271
20
0.20156305
30
0
70
32
0
SEQEND
8
0
0
POLYLINE
8
0
62
5
66
1
10
0
20
0
30
0
70
8
0
VERTEX
8
0
62
5
10
0.084852814
20
0.20156305
30
0
70
32
0
VERTEX
8
0
62
5
10
0.084852814
20
0.18407603
30
0
70
32
0
SEQEND
8
0
0
POLYLINE
8
0
62
5
66
1
10
0
20
0
30
0
70
8
0
VERTEX
8
0
62
5
10
-0.028284271
20
0.19281954
30
0
70
32
0
VERTEX
8
0
62
5
10
4.0046199e-11
20
0.18557618
30
0
70
32
0
VERTEX
8
0
62
5
10
0.028284271
20
0.18557618
30
0
70
32
0
VERTEX
8
0
62
5
10
0.056568543
20
0.19281954
30
0
70
32
0
VERTEX
8
0
62
5
10
0.084852814
20
0.19281954
30
0
70
32
0
SEQEND
8
0
0
POLYLINE
8
0
62
5
66
1
10
0
20
0
30
0
70
8
0
SEQEND
8
0
0
POLYLINE
8
0
62
5
66
1
10
0
20
0
30
0
70
8
0
VERTEX
8
0
62
5
10
-0.028284271
20
0.19281954
30
0
70
32
0
VERTEX
8
0
62
5
10
4.0046199e-11
20
0.2000629
30
0
70
32
0
VERTEX
8
0
62
5
10
0.028284271
20
0.2000629
30
0
70
32
0
VERTEX
8
0
62
5
10
0.056568543
20
0.19281954
30
0
70
32
0
VERTEX
8
0
62
5
10
0.084852814
20
0.19281954
30
0
70
32
0
SEQEND
8
0
0
POLYLINE
8
0
62
30
66
1
10
0
20
0
30
0
70
8
0
VERTEX
8
0
62
30
10
-0.028284271
20
0.19281954
30
0
70
32
0
VERTEX
8
0
62
30
10
0.084852814
20
0.19281954
30
0
70
32
0
SEQEND
8
0
0
POLYLINE
8
0
62
30
66
1
10
0
20
0
30
0
70
8
0
VERTEX
8
0
62
30
10
4.0046199e-11
20
0.18557618
30
0
70
32
0
VERTEX
8
0
62
30
10
4.0046199e-11
20
0.19281954
30
0
70
32
0
SEQEND
8
0
0
POLYLINE
8
0
62
30
66
1
10
0
20
0
30
0
70
8
0
VERTEX
8
0
62
30
10
0.028284271
20
0.18557618
30
0
70
32
0
VERTEX
8
0
62
30
10
0.028284271
20
0.19281954
30
0
70
32
0
SEQEND
8
0
0
POLYLINE
8
0
62
30
66
1
10
0
20
0
30
0
70
8
0
VERTEX
8
0
62
30
10
0.056568543
20
0.19281954
30
0
70
32
0
VERTEX
8
0
62
30
10
0.056568543
20
0.19281954
30
0
70
32
0
SEQEND
8
0
0
POLYLINE
8
0
62
5
66
1
10
0
20
0
30
0
70
8
0
VERTEX
8
0
62
5
10
4.0046199e-11
20
0.18407603
30
0
70
32
0
VERTEX
8
0
62
5
10
4.0046199e-11
20
0.18557618
30
0
70
32
0
SEQEND
8
0
0
POLYLINE
8
0
62
5
66
1
10
0
20
0
30
0
70
8
0
VERTEX
8
0
62
5
10
0.028284271
20
0.18407603
30
0
70
32
0
VERTEX
8
0
62
5
10
0.028284271
20
0.18557618
30
0
70
32
0
SEQEND
8
0
0
POLYLINE
8
0
62
5
66
1
10
0
20
0
30
0
70
8
0
VERTEX
8
0
62
5
10
0.056568543
20
0.18407603
30
0
70
32
0
VERTEX
8
0
62
5
10
0.056568543
20
0.19281954
30
0
70
32
0
SEQEND
8
0
0
POLYLINE
8
0
62
5
66
1
10
0
20
0
30
0
70
8
0
VERTEX
8
0
62
5
10
4.0046199e-11
20
0.19281954
30
0
70
32
0
VERTEX
8
0
62
5
10
4.0046199e-11
20
0.20156305
30
0
70
32
0
SEQEND
8
0
0
POLYLINE
8
0
62
5
66
1
10
0
20
0
30
0
70
8
0
VERTEX
8
0
62
5
10
0.028284271
20
0.19281954
30
0
70
32
0
VERTEX
8
0
62
5
10
0.028284271
20
0.20156305
30
0
70
32
0
SEQEND
8
0
0
POLYLINE
8
0
62
5
66
1
10
0
20
0
30
0
70
8
0
VERTEX
8
0
62
5
10
0.056568543
20
0.19281954
30
0
70
32
0
VERTEX
8
0
62
5
10
0.056568543
20
0.20156305
30
0
70
32
0
SEQEND
8
0
0
POLYLINE
8
0
62
30
66
1
10
0
20
0
30
0
70
8
0
VERTEX
8
0
62
30
10
-0.028284271
20
0.19281954
30
0
70
32
0
VERTEX
8
0
62
30
10
-0.028284271
20
0.19281954
30
0
70
32
0
VERTEX
8
0
62
30
10
-0.028284271
20
0.19281954
30
0
70
32
0
SEQEND
8
0
0
POLYLINE
8
0
62
30
66
1
10
0
20
0
30
0
70
8
0
VERTEX
8
0
62
30
10
4.0046199e-11
20
0.18557618
30
0
70
32
0
VERTEX
8
0
62
30
10
0.0056221444
20
0.19281954
30
0
70
32
0
VERTEX
8
0
62
30
10
4.0046199e-11
20
0.2000629
30
0
70
32
0
SEQEND
8
0
0
POLYLINE
8
0
62
30
66
1
10
0
20
0
30
0
70
8
0
VERTEX
8
0
62
30
10
0.028284271
20
0.18557618
30
0
70
32
0
VERTEX
8
0
62
30
10
0.033906416
20
0.19281954
30
0
70
32
0
VERTEX
8
0
62
30
10
0.028284271
20
0.2000629
30
0
70
32
0
SEQEND
8
0
0
POLYLINE
8
0
62
30
66
1
10
0
20
0
30
0
70
8
0
VERTEX
8
0
62
30
10
0.056568543
20
0.19281954
30
0
70
32
0
VERTEX
8
0
62
30
10
0.056568543
20
0.19281954
30
0
70
32
0
VERTEX
8
0
62
30
10
0.056568543
20
0.19281954
30
0
70
32
0
SEQEND
8
0
0
POLYLINE
8
0
62
5
66
1
10
0
20
0
30
0
70
8
0
VERTEX
8
0
62
5
10
0.1979899
20
0.20156305
30
0
70
32
0
VERTEX
8
0
62
5
10
0.1979899
20
0.18407603
30
0
70
32
0
SEQEND
8
0
0
POLYLINE
8
0
62
5
66
1
10
0
20
0
30
0
70
8
0
VERTEX
8
0
62
5
10
0.084852814
20
0.19281954
30
0
70
32
0
VERTEX
8
0
62
5
10
0.11313709
20
0.18557618
30
0
70
32
0
VERTEX
8
0
62
5
10
0.14142136
20
0.18557618
30
0
70
32
0
VERTEX
8
0
62
5
10
0.16970563
20
0.19281954
30
0
70
32
0
VERTEX
8
0
62
5
10
0.1979899
20
0.19281954
30
0
70
32
0
SEQEND
8
0
0
POLYLINE
8
0
62
5
66
1
10
0
20
0
30
0
70
8
0
SEQEND
8
0
0
POLYLINE
8
0
62
5
66
1
10
0
20
0
30
0
70
8
0
VERTEX
8
0
62
5
10
0.084852814
20
0.19281954
30
0
70
32
0
VERTEX
8
0
62
5
10
0.11313709
20
0.2000629
30
0
70
32
0
VERTEX
8
0
62
5
10
0.14142136
20
0.2000629
30
0
70
32
0
VERTEX
8
0
62
5
10
0.16970563
20
0.19281954
30
0
70
32
0
VERTEX
8
0
62
5
10
0.1979899
20
0.19281954
30
0
70
32
0
SEQEND
8
0
0
POLYLINE
8
0
62
30
66
1
10
0
20
0
30
0
70
8
0
VERTEX
8
0
62
30
10
0.084852814
20
0.19281954
30
0
70
32
0
VERTEX
8
0
62
30
10
0.1979899
20
0.19281954
30
0
70
32
0
SEQEND
8
0
0
POLYLINE
8
0
62
30
66
1
10
0
20
0
30
0
70
8
0
VERTEX
8
0
62
30
10
0.11313709
20
0.18557618
30
0
70
32
0
VERTEX
8
0
62
30
10
0.11313709
20
0.19281954
30
0
70
32
0
SEQEND
8
0
0
POLYLINE
8
0
62
30
66
1
10
0
20
0
30
0
70
8
0
VERTEX
8
0
62
30
10
0.14142136
20
0.18557618
30
0
70
32
0
VERTEX
8
0
62
30
10
0.14142136
20
0.19281954
30
0
70
32
0
SEQEND
8
0
0
POLYLINE
8
0
62
30
66
1
10
0
20
0
30
0
70
8
0
VERTEX
8
0
62
30
10
0.16970563
20
0.19281954
30
0
70
32
0
VERTEX
8
0
62
30
10
0.16970563
20
0.19281954
30
0
70
32
0
SEQEND
8
0
0
POLYLINE
8
0
62
5
66
1
10
0
20
0
30
0
70
8
0
VERTEX
8
0
62
5
10
0.11313709
20
0.18407603
30
0
70
32
0
VERTEX
8
0
62
5
10
0.11313709
20
0.18557618
30
0
70
32
0
SEQEND
8
0
0
POLYLINE
8
0
62
5
66
1
10
0
20
0
30
0
70
8
0
VERTEX
8
0
62
5
10
0.14142136
20
0.18407603
30
0
70
32
0
VERTEX
8
0
62
5
10
0.14142136
20
0.18557618
30
0
70
32
0
SEQEND
8
0
0
POLYLINE
8
0
62
5
66
1
10
0
20
0
30
0
70
8
0
VERTEX
8
0
62
5
10
0.16970563
20
0.18407603
30
0
70
32
0
VERTEX
8
0
62
5
10
0.16970563
20
0.19281954
30
0
70
32
0
SEQEND
8
0
0
POLYLINE
8
0
62
5
66
1
10
0
20
0
30
0
70
8
0
VERTEX
8
0
62
5
10
0.11313709
20
0.19281954
30
0
70
32
0
VERTEX
8
0
62
5
10
0.11313709
20
0.20156305
30
0
70
32
0
SEQEND
8
0
0
POLYLINE
8
0
62
5
66
1
10
0
20
0
30
0
70
8
0
VERTEX
8
0
62
5
10
0.14142136
20
0.19281954
30
0
70
32
0
VERTEX
8
0
62
5
10
0.14142136
20
0.20156305
30
0
70
32
0
SEQEND
8
0
0
POLYLINE
8
0
62
5
66
1
10
0
20
0
30
0
70
8
0
VERTEX
8
0
62
5
10
0.16970563
20
0.19281954
30
0
70
32
0
VERTEX
8
0
62
5
10
0.16970563
20
0.20156305
30
0
70
32
0
SEQEND
8
0
0
POLYLINE
8
0
62
30
66
1
10
0
20
0
30
0
70
8
0
VERTEX
8
0
62
30
10
0.084852814
20
0.19281954
30
0
70
32
0
VERTEX
8
0
62
30
10
0.084852814
20
0.19281954
30
0
70
32
0
VERTEX
8
0
62
30
10
0.084852814
20
0.19281954
30
0
70
32
0
SEQEND
8
0
0
POLYLINE
8
0
62
30
66
1
10
0
20
0
30
0
70
8
0
VERTEX
8
0
62
30
10
0.11313709
20
0.18557618
30
0
70
32
0
VERTEX
8
0
62
30
10
0.11875923
20
0.19281954
30
0
70
32
0
VERTEX
8
0
62
30
10
0.11313709
20
0.2000629
30
0
70
32
0
SEQEND
8
0
0
POLYLINE
8
0
62
30
66
1
10
0
20
0
30
0
70
8
0
VERTEX
8
0
62
30
10
0.14142136
20
0.18557618
30
0
70
32
0
VERTEX
8
0
62
30
10
0.1470435
20
0.19281954
30
0
70
32
0
VERTEX
8
0
62
30
10
0.14142136
20
0.2000629
30
0
70
32
0
SEQEND
8
0
0
POLYLINE
8
0
62
30
66
1
10
0
20
0
30
0
70
8
0
VERTEX
8
0
62
30
10
0.16970563
20
0.19281954
30
0
70
32
0
VERTEX
8
0
62
30
10
0.16970563
20
0.19281954
30
0
70
32
0
VERTEX
8
0
62
30
10
0.16970563
20
0.19281954
30
0
70
32
0
SEQEND
8
0
0
POLYLINE
8
0
62
5
66
1
10
0
20
0
30
0
70
8
0
VERTEX
8
0
62
5
10
-0.14142136
20
0.18407603
30
0
70
32
0
VERTEX
8
0
62
5
10
-0.14142136
20
0.20156305
30
0
70
32
0
SEQEND
8
0
0
POLYLINE
8
0
62
5
66
1
10
0
20
0
30
0
70
8
0
VERTEX
8
0
62
5
10
-0.14142136
20
0.19281954
30
0
70
32
0
VERTEX
8
0
62
5
10
-0.11313708
20
0.18557618
30
0
70
32
0
VERTEX
8
0
62
5
10
-0.084852814
20
0.18557618
30
0
70
32
0
VERTEX
8
0
62
5
10
-0.056568542
20
0.19281954
30
0
70
32
0
VERTEX
8
0
62
5
10
-0.028284271
20
0.19281954
30
0
70
32
0
SEQEND
8
0
0
POLYLINE
8
0
62
5
66
1
10
0
20
0
30
0
70
8
0
SEQEND
8
0
0
POLYLINE
8
0
62
5
66
1
10
0
20
0
30
0
70
8
0
VERTEX
8
0
62
5
10
-0.14142136
20
0.19281954
30
0
70
32
0
VERTEX
8
0
62
5
10
-0.11313708
20
0.2000629
30
0
70
32
0
VERTEX
8
0
62
5
10
-0.084852814
20
0.2000629
30
0
70
32
0
VERTEX
8
0
62
5
10
-0.056568542
20
0.19281954
30
0
70
32
0
VERTEX
8
0
62
5
10
-0.028284271
20
0.19281954
30
0
70
32
0
SEQEND
8
0
0
POLYLINE
8
0
62
30
66
1
10
0
20
0
30
0
70
8
0
VERTEX
8
0
62
30
10
-0.14142136
20
0.19281954
30
0
70
32
0
VERTEX
8
0
62
30
10
-0.028284271
20
0.19281954
30
0
70
32
0
SEQEND
8
0
0
POLYLINE
8
0
62
30
66
1
10
0
20
0
30
0
70
8
0
VERTEX
8
0
62
30
10
-0.11313708
20
0.18557618
30
0
70
32
0
VERTEX
8
0
62
30
10
-0.11313708
20
0.19281954
30
0
70
32
0
SEQEND
8
0
0
POLYLINE
8
0
62
30
66
1
10
0
20
0
30
0
70
8
0
VERTEX
8
0
62
30
10
-0.084852814
20
0.18557618
30
0
70
32
0
VERTEX
8
0
62
30
10
-0.084852814
20
0.19281954
30
0
70
32
0
SEQEND
8
0
0
POLYLINE
8
0
62
30
66
1
10
0
20
0
30
0
70
8
0
VERTEX
8
0
62
30
10
-0.056568542
20
0.19281954
30
0
70
32
0
VERTEX
8
0
62
30
10
-0.056568542
20
0.19281954
30
0
70
32
0
SEQEND
8
0
0
POLYLINE
8
0
62
5
66
1
10
0
20
0
30
0
70
8
0
VERTEX
8
0
62
5
10
-0.11313708
20
0.18407603
30
0
70
32
0
VERTEX
8
0
62
5
10
-0.11313708
20
0.18557618
30
0
70
32
0
SEQEND
8
0
0
POLYLINE
8
0
62
5
66
1
10
0
20
0
30
0
70
8
0
VERTEX
8
0
62
5
10
-0.084852814
20
0.18407603
30
0
70
32
0
VERTEX
8
0
62
5
10
-0.084852814
20
0.18557618
30
0
70
32
0
SEQEND
8
0
0
POLYLINE
8
0
62
5
66
1
10
0
20
0
30
0
70
8
0
VERTEX
8
0
62
5
10
-0.056568542
20
0.18407603
30
0
70
32
0
VERTEX
8
0
62
5
10
-0.056568542
20
0.19281954
30
0
70
32
0
SEQEND
8
0
0
POLYLINE
8
0
62
5
66
1
10
0
20
0
30
0
70
8
0
VERTEX
8
0
62
5
10
-0.11313708
20
0.19281954
30
0
70
32
0
VERTEX
8
0
62
5
10
-0.11313708
20
0.20156305
30
0
70
32
0
SEQEND
8
0
0
POLYLINE
8
0
62
5
66
1
10
0
20
0
30
0
70
8
0
VERTEX
8
0
62
5
10
-0.084852814
20
0.19281954
30
0
70
32
0
VERTEX
8
0
62
5
10
-0.084852814
20
0.20156305
30
0
70
32
0
SEQEND
8
0
0
POLYLINE
8
0
62
5
66
1
10
0
20
0
30
0
70
8
0
VERTEX
8
0
62
5
10
-0.056568542
20
0.19281954
30
0
70
32
0
VERTEX
8
0
62
5
10
-0.056568542
20
0.20156305
30
0
70
32
0
SEQEND
8
0
0
POLYLINE
8
0
62
30
66
1
10
0
20
0
30
0
70
8
0
VERTEX
8
0
62
30
10
-0.14142136
20
0.19281954
30
0
70
32
0
VERTEX
8
0
62
30
10
-0.14142136
20
0.19281954
30
0
70
32
0
VERTEX
8
0
62
30
10
-0.14142136
20
0.19281954
30
0
70
32
0
SEQEND
8
0
0
POLYLINE
8
0
62
30
66
1
10
0
20
0
30
0
70
8
0
VERTEX
8
0
62
30
10
-0.11313708
20
0.18557618
30
0
70
32
0
VERTEX
8
0
62
30
10
-0.10751494
20
0.19281954
30
0
70
32
0
VERTEX
8
0
62
30
10
-0.11313708
20
0.2000629
30
0
70
32
0
SEQEND
8
0
0
POLYLINE
8
0
62
30
66
1
10
0
20
0
30
0
70
8
0
VERTEX
8
0
62
30
10
-0.084852814
20
0.18557618
30
0
70
32
0
VERTEX
8
0
62
30
10
-0.079230669
20
0.19281954
30
0
70
32
0
VERTEX
8
0
62
30
10
-0.084852814
20
0.2000629
30
0
70
32
0
SEQEND
8
0
0
POLYLINE
8
0
62
30
66
1
10
0
20
0
30
0
70
8
0
VERTEX
8
0
62
30
10
-0.056568542
20
0.19281954
30
0
70
32
0
VERTEX
8
0
62
30
10
-0.056568542
20
0.19281954
30
0
70
32
0
VERTEX
8
0
62
30
10
-0.056568542
20
0.19281954
30
0
70
32
0
SEQEND
8
0
0
POLYLINE
8
0
62
5
66
1
10
0
20
0
30
0
70
8
0
VERTEX
8
0
62
5
10
-0.028284271
20
0.20156305
30
0
70
32
0
VERTEX
8
0
62
5
10
-0.028284271
20
0.24156305
30
0
70
32
0
SEQEND
8
0
0
POLYLINE
8
0
62
5
66
1
10
0
20
0
30
0
70
8
0
VERTEX
8
0
62
5
10
0.084852814
20
0.24156305
30
0
70
32
0
VERTEX
8
0
62
5
10
0.084852814
20
0.20156305
30
0
70
32
0
SEQEND
8
0
0
POLYLINE
8
0
62
5
66
1
10
0
20
0
30
0
70
8
0
VERTEX
8
0
62
5
10
-0.028284271
20
0.20156305
30
0
70
32
0
VERTEX
8
0
62
5
10
0.084852814
20
0.20156305
30
0
70
32
0
SEQEND
8
0
0
POLYLINE
8
0
62
5
66
1
10
0
20
0
30
0
70
8
0
VERTEX
8
0
62
5
10
-0.028284271
20
0.24156305
30
0
70
32
0
VERTEX
8
0
62
5
10
0.084852814
20
0.24156305
30
0
70
32
0
SEQEND
8
0
0
POLYLINE
8
0
62
5
66
1
10
0
20
0
30
0
70
8
0
VERTEX
8
0
62
5
10
4.0046199e-11
20
0.20156305
30
0
70
32
0
VERTEX
8
0
62
5
10
4.0046199e-11
20
0.20156305
30
0
70
32
0
SEQEND
8
0
0
POLYLINE
8
0
62
5
66
1
10
0
20
0
30
0
70
8
0
VERTEX
8
0
62
5
10
0.028284271
20
0.20156305
30
0
70
32
0
VERTEX
8
0
62
5
10
0.028284271
20
0.20156305
30
0
70
32
0
SEQEND
8
0
0
POLYLINE
8
0
62
5
66
1
10
0
20
0
30
0
70
8
0
VERTEX
8
0
62
5
10
0.056568543
20
0.20156305
30
0
70
32
0
VERTEX
8
0
62
5
10
0.056568543
20
0.20156305
30
0
70
32
0
SEQEND
8
0
0
POLYLINE
8
0
62
5
66
1
10
0
20
0
30
0
70
8
0
VERTEX
8
0
62
5
10
4.0046199e-11
20
0.24156305
30
0
70
32
0
VERTEX
8
0
62
5
10
4.0046199e-11
20
0.24156305
30
0
70
32
0
SEQEND
8
0
0
POLYLINE
8
0
62
5
66
1
10
0
20
0
30
0
70
8
0
VERTEX
8
0
62
5
10
0.028284271
20
0.24156305
30
0
70
32
0
VERTEX
8
0
62
5
10
0.028284271
20
0.24156305
30
0
70
32
0
SEQEND
8
0
0
POLYLINE
8
0
62
5
66
1
10
0
20
0
30
0
70
8
0
VERTEX
8
0
62
5
10
0.056568543
20
0.24156305
30
0
70
32
0
VERTEX
8
0
62
5
10
0.056568543
20
0.24156305
30
0
70
32
0
SEQEND
8
0
0
POLYLINE
8
0
62
30
66
1
10
0
20
0
30
0
70
8
0
VERTEX
8
0
62
30
10
-0.028284271
20
0.24156305
30
0
70
32
0
VERTEX
8
0
62
30
10
4.0046199e-11
20
0.20156305
30
0
70
32
0
SEQEND
8
0
0
POLYLINE
8
0
62
30
66
1
10
0
20
0
30
0
70
8
0
VERTEX
8
0
62
30
10
4.0046199e-11
20
0.24156305
30
0
70
32
0
VERTEX
8
0
62
30
10
-0.028284271
20
0.20156305
30
0
70
32
0
SEQEND
8
0
0
POLYLINE
8
0
62
30
66
1
10
0
20
0
30
0
70
8
0
VERTEX
8
0
62
30
10
0.028284271
20
0.24156305
30
0
70
32
0
VERTEX
8
0
62
30
10
0.056568543
20
0.20156305
30
0
70
32
0
SEQEND
8
0
0
POLYLINE
8
0
62
30
66
1
10
0
20
0
30
0
70
8
0
VERTEX
8
0
62
30
10
0.056568543
20
0.24156305
30
0
70
32
0
VERTEX
8
0
62
30
10
0.028284271
20
0.20156305
30
0
70
32
0
SEQEND
8
0
0
POLYLINE
8
0
62
30
66
1
10
0
20
0
30
0
70
8
0
VERTEX
8
0
62
30
10
4.0046199e-11
20
0.22156305
30
0
70
32
0
VERTEX
8
0
62
30
10
0.028284271
20
0.22156305
30
0
70
32
0
SEQEND
8
0
0
POLYLINE
8
0
62
30
66
1
10
0
20
0
30
0
70
8
0
VERTEX
8
0
62
30
10
0.056568543
20
0.22156305
30
0
70
32
0
VERTEX
8
0
62
30
10
0.084852814
20
0.22156305
30
0
70
32
0
SEQEND
8
0
0
POLYLINE
8
0
62
5
66
1
10
0
20
0
30
0
70
8
0
VERTEX
8
0
62
5
10
-0.028284271
20
0.22156305
30
0
70
32
0
VERTEX
8
0
62
5
10
-0.014142136
20
0.22156305
30
0
70
32
0
SEQEND
8
0
0
POLYLINE
8
0
62
5
66
1
10
0
20
0
30
0
70
8
0
VERTEX
8
0
62
5
10
0.028284271
20
0.22156305
30
0
70
32
0
VERTEX
8
0
62
5
10
0.042426407
20
0.22156305
30
0
70
32
0
SEQEND
8
0
0
POLYLINE
8
0
62
5
66
1
10
0
20
0
30
0
70
8
0
VERTEX
8
0
62
5
10
-0.014142136
20
0.22156305
30
0
70
32
0
VERTEX
8
0
62
5
10
4.0046199e-11
20
0.22156305
30
0
70
32
0
SEQEND
8
0
0
POLYLINE
8
0
62
5
66
1
10
0
20
0
30
0
70
8
0
VERTEX
8
0
62
5
10
0.042426407
20
0.22156305
30
0
70
32
0
VERTEX
8
0
62
5
10
0.056568543
20
0.22156305
30
0
70
32
0
SEQEND
8
0
0
POLYLINE
8
0
62
5
66
1
10
0
20
0
30
0
70
8
0
VERTEX
8
0
62
5
10
4.0046199e-11
20
0.20156305
30
0
70
32
0
VERTEX
8
0
62
5
10
4.0046199e-11
20
0.24156305
30
0
70
32
0
SEQEND
8
0
0
POLYLINE
8
0
62
5
66
1
10
0
20
0
30
0
70
8
0
VERTEX
8
0
62
5
10
0.028284271
20
0.20156305
30
0
70
32
0
VERTEX
8
0
62
5
10
0.028284271
20
0.24156305
30
0
70
32
0
SEQEND
8
0
0
POLYLINE
8
0
62
5
66
1
10
0
20
0
30
0
70
8
0
VERTEX
8
0
62
5
10
0.056568543
20
0.20156305
30
0
70
32
0
VERTEX
8
0
62
5
10
0.056568543
20
0.24156305
30
0
70
32
0
SEQEND
8
0
0
POLYLINE
8
0
62
5
66
1
10
0
20
0
30
0
70
8
0
VERTEX
8
0
62
5
10
-0.028284271
20
0.20156305
30
0
70
32
0
VERTEX
8
0
62
5
10
-0.028284271
20
0.24156305
30
0
70
32
0
SEQEND
8
0
0
POLYLINE
8
0
62
5
66
1
10
0
20
0
30
0
70
8
0
VERTEX
8
0
62
5
10
0.1979899
20
0.24156305
30
0
70
32
0
VERTEX
8
0
62
5
10
0.1979899
20
0.20156305
30
0
70
32
0
SEQEND
8
0
0
POLYLINE
8
0
62
5
66
1
10
0
20
0
30
0
70
8
0
VERTEX
8
0
62
5
10
0.084852814
20
0.20156305
30
0
70
32
0
VERTEX
8
0
62
5
10
0.1979899
20
0.20156305
30
0
70
32
0
SEQEND
8
0
0
POLYLINE
8
0
62
5
66
1
10
0
20
0
30
0
70
8
0
VERTEX
8
0
62
5
10
0.084852814
20
0.24156305
30
0
70
32
0
VERTEX
8
0
62
5
10
0.1979899
20
0.24156305
30
0
70
32
0
SEQEND
8
0
0
POLYLINE
8
0
62
5
66
1
10
0
20
0
30
0
70
8
0
VERTEX
8
0
62
5
10
0.11313709
20
0.20156305
30
0
70
32
0
VERTEX
8
0
62
5
10
0.11313709
20
0.20156305
30
0
70
32
0
SEQEND
8
0
0
POLYLINE
8
0
62
5
66
1
10
0
20
0
30
0
70
8
0
VERTEX
8
0
62
5
10
0.14142136
20
0.20156305
30
0
70
32
0
VERTEX
8
0
62
5
10
0.14142136
20
0.20156305
30
0
70
32
0
SEQEND
8
0
0
POLYLINE
8
0
62
5
66
1
10
0
20
0
30
0
70
8
0
VERTEX
8
0
62
5
10
0.16970563
20
0.20156305
30
0
70
32
0
VERTEX
8
0
62
5
10
0.16970563
20
0.20156305
30
0
70
32
0
SEQEND
8
0
0
POLYLINE
8
0
62
5
66
1
10
0
20
0
30
0
70
8
0
VERTEX
8
0
62
5
10
0.11313709
20
0.24156305
30
0
70
32
0
VERTEX
8
0
62
5
10
0.11313709
20
0.24156305
30
0
70
32
0
SEQEND
8
0
0
POLYLINE
8
0
62
5
66
1
10
0
20
0
30
0
70
8
0
VERTEX
8
0
62
5
10
0.14142136
20
0.24156305
30
0
70
32
0
VERTEX
8
0
62
5
10
0.14142136
20
0.24156305
30
0
70
32
0
SEQEND
8
0
0
POLYLINE
8
0
62
5
66
1
10
0
20
0
30
0
70
8
0
VERTEX
8
0
62
5
10
0.16970563
20
0.24156305
30
0
70
32
0
VERTEX
8
0
62
5
10
0.16970563
20
0.24156305
30
0
70
32
0
SEQEND
8
0
0
POLYLINE
8
0
62
30
66
1
10
0
20
0
30
0
70
8
0
VERTEX
8
0
62
30
10
0.084852814
20
0.24156305
30
0
70
32
0
VERTEX
8
0
62
30
10
0.11313709
20
0.20156305
30
0
70
32
0
SEQEND
8
0
0
POLYLINE
8
0
62
30
66
1
10
0
20
0
30
0
70
8
0
VERTEX
8
0
62
30
10
0.11313709
20
0.24156305
30
0
70
32
0
VERTEX
8
0
62
30
10
0.084852814
20
0.20156305
30
0
70
32
0
SEQEND
8
0
0
POLYLINE
8
0
62
30
66
1
10
0
20
0
30
0
70
8
0
VERTEX
8
0
62
30
10
0.14142136
20
0.24156305
30
0
70
32
0
VERTEX
8
0
62
30
10
0.16970563
20
0.20156305
30
0
70
32
0
SEQEND
8
0
0
POLYLINE
8
0
62
30
66
1
10
0
20
0
30
0
70
8
0
VERTEX
8
0
62
30
10
0.16970563
20
0.24156305
30
0
70
32
0
VERTEX
8
0
62
30
10
0.14142136
20
0.20156305
30
0
70
32
0
SEQEND
8
0
0
POLYLINE
8
0
62
30
66
1
10
0
20
0
30
0
70
8
0
VERTEX
8
0
62
30
10
0.11313709
20
0.22156305
30
0
70
32
0
VERTEX
8
0
62
30
10
0.14142136
20
0.22156305
30
0
70
32
0
SEQEND
8
0
0
POLYLINE
8
0
62
30
66
1
10
0
20
0
30
0
70
8
0
VERTEX
8
0
62
30
10
0.16970563
20
0.22156305
30
0
70
32
0
VERTEX
8
0
62
30
10
0.1979899
20
0.22156305
30
0
70
32
0
SEQEND
8
0
0
POLYLINE
8
0
62
5
66
1
10
0
20
0
30
0
70
8
0
VERTEX
8
0
62
5
10
0.084852814
20
0.22156305
30
0
70
32
0
VERTEX
8
0
62
5
10
0.098994949
20
0.22156305
30
0
70
32
0
SEQEND
8
0
0
POLYLINE
8
0
62
5
66
1
10
0
20
0
30
0
70
8
0
VERTEX
8
0
62
5
10
0.14142136
20
0.22156305
30
0
70
32
0
VERTEX
8
0
62
5
10
0.15556349
20
0.22156305
30
0
70
32
0
SEQEND
8
0
0
POLYLINE
8
0
62
5
66
1
10
0
20
0
30
0
70
8
0
VERTEX
8
0
62
5
10
0.098994949
20
0.22156305
30
0
70
32
0
VERTEX
8
0
62
5
10
0.11313709
20
0.22156305
30
0
70
32
0
SEQEND
8
0
0
POLYLINE
8
0
62
5
66
1
10
0
20
0
30
0
70
8
0
VERTEX
8
0
62
5
10
0.15556349
20
0.22156305
30
0
70
32
0
VERTEX
8
0
62
5
10
0.16970563
20
0.22156305
30
0
70
32
0
SEQEND
8
0
0
POLYLINE
8
0
62
5
66
1
10
0
20
0
30
0
70
8
0
VERTEX
8
0
62
5
10
0.11313709
20
0.20156305
30
0
70
32
0
VERTEX
8
0
62
5
10
0.11313709
20
0.24156305
30
0
70
32
0
SEQEND
8
0
0
POLYLINE
8
0
62
5
66
1
10
0
20
0
30
0
70
8
0
VERTEX
8
0
62
5
10
0.14142136
20
0.20156305
30
0
70
32
0
VERTEX
8
0
62
5
10
0.14142136
20
0.24156305
30
0
70
32
0
SEQEND
8
0
0
POLYLINE
8
0
62
5
66
1
10
0
20
0
30
0
70
8
0
VERTEX
8
0
62
5
10
0.16970563
20
0.20156305
30
0
70
32
0
VERTEX
8
0
62
5
10
0.16970563
20
0.24156305
30
0
70
32
0
SEQEND
8
0
0
POLYLINE
8
0
62
5
66
1
10
0
20
0
30
0
70
8
0
VERTEX
8
0
62
5
10
0.084852814
20
0.20156305
30
0
70
32
0
VERTEX
8
0
62
5
10
0.084852814
20
0.24156305
30
0
70
32
0
SEQEND
8
0
0
POLYLINE
8
0
62
5
66
1
10
0
20
0
30
0
70
8
0
VERTEX
8
0
62
5
10
-0.14142136
20
0.20156305
30
0
70
32
0
VERTEX
8
0
62
5
10
-0.14142136
20
0.24156305
30
0
70
32
0
SEQEND
8
0
0
POLYLINE
8
0
62
5
66
1
10
0
20
0
30
0
70
8
0
VERTEX
8
0
62
5
10
-0.14142136
20
0.20156305
30
0
70
32
0
VERTEX
8
0
62
5
10
-0.028284271
20
0.20156305
30
0
70
32
0
SEQEND
8
0
0
POLYLINE
8
0
62
5
66
1
10
0
20
0
30
0
70
8
0
VERTEX
8
0
62
5
10
-0.14142136
20
0.24156305
30
0
70
32
0
VERTEX
8
0
62
5
10
-0.028284271
20
0.24156305
30
0
70
32
0
SEQEND
8
0
0
POLYLINE
8
0
62
5
66
1
10
0
20
0
30
0
70
8
0
VERTEX
8
0
62
5
10
-0.11313708
20
0.20156305
30
0
70
32
0
VERTEX
8
0
62
5
10
-0.11313708
20
0.20156305
30
0
70
32
0
SEQEND
8
0
0
POLYLINE
8
0
62
5
66
1
10
0
20
0
30
0
70
8
0
VERTEX
8
0
62
5
10
-0.084852814
20
0.20156305
30
0
70
32
0
VERTEX
8
0
62
5
10
-0.084852814
20
0.20156305
30
0
70
32
0
SEQEND
8
0
0
POLYLINE
8
0
62
5
66
1
10
0
20
0
30
0
70
8
0
VERTEX
8
0
62
5
10
-0.056568542
20
0.20156305
30
0
70
32
0
VERTEX
8
0
62
5
10
-0.056568542
20
0.20156305
30
0
70
32
0
SEQEND
8
0
0
POLYLINE
8
0
62
5
66
1
10
0
20
0
30
0
70
8
0
VERTEX
8
0
62
5
10
-0.11313708
20
0.24156305
30
0
70
32
0
VERTEX
8
0
62
5
10
-0.11313708
20
0.24156305
30
0
70
32
0
SEQEND
8
0
0
POLYLINE
8
0
62
5
66
1
10
0
20
0
30
0
70
8
0
VERTEX
8
0
62
5
10
-0.084852814
20
0.24156305
30
0
70
32
0
VERTEX
8
0
62
5
10
-0.084852814
20
0.24156305
30
0
70
32
0
SEQEND
8
0
0
POLYLINE
8
0
62
5
66
1
10
0
20
0
30
0
70
8
0
VERTEX
8
0
62
5
10
-0.056568542
20
0.24156305
30
0
70
32
0
VERTEX
8
0
62
5
10
-0.056568542
20
0.24156305
30
0
70
32
0
SEQEND
8
0
0
POLYLINE
8
0
62
30
66
1
10
0
20
0
30
0
70
8
0
VERTEX
8
0
62
30
10
-0.14142136
20
0.24156305
30
0
70
32
0
VERTEX
8
0
62
30
10
-0.11313708
20
0.20156305
30
0
70
32
0
SEQEND
8
0
0
POLYLINE
8
0
62
30
66
1
10
0
20
0
30
0
70
8
0
VERTEX
8
0
62
30
10
-0.11313708
20
0.24156305
30
0
70
32
0
VERTEX
8
0
62
30
10
-0.14142136
20
0.20156305
30
0
70
32
0
SEQEND
8
0
0
POLYLINE
8
0
62
30
66
1
10
0
20
0
30
0
70
8
0
VERTEX
8
0
62
30
10
-0.084852814
20
0.24156305
30
0
70
32
0
VERTEX
8
0
62
30
10
-0.056568542
20
0.20156305
30
0
70
32
0
SEQEND
8
0
0
POLYLINE
8
0
62
30
66
1
10
0
20
0
30
0
70
8
0
VERTEX
8
0
62
30
10
-0.056568542
20
0.24156305
30
0
70
32
0
VERTEX
8
0
62
30
10
-0.084852814
20
0.20156305
30
0
70
32
0
SEQEND
8
0
0
POLYLINE
8
0
62
30
66
1
10
0
20
0
30
0
70
8
0
VERTEX
8
0
62
30
10
-0.11313708
20
0.22156305
30
0
70
32
0
VERTEX
8
0
62
30
10
-0.084852814
20
0.22156305
30
0
70
32
0
SEQEND
8
0
0
POLYLINE
8
0
62
30
66
1
10
0
20
0
30
0
70
8
0
VERTEX
8
0
62
30
10
-0.056568542
20
0.22156305
30
0
70
32
0
VERTEX
8
0
62
30
10
-0.028284271
20
0.22156305
30
0
70
32
0
SEQEND
8
0
0
POLYLINE
8
0
62
5
66
1
10
0
20
0
30
0
70
8
0
VERTEX
8
0
62
5
10
-0.14142136
20
0.22156305
30
0
70
32
0
VERTEX
8
0
62
5
10
-0.12727922
20
0.22156305
30
0
70
32
0
SEQEND
8
0
0
POLYLINE
8
0
62
5
66
1
10
0
20
0
30
0
70
8
0
VERTEX
8
0
62
5
10
-0.084852814
20
0.22156305
30
0
70
32
0
VERTEX
8
0
62
5
10
-0.070710678
20
0.22156305
30
0
70
32
0
SEQEND
8
0
0
POLYLINE
8
0
62
5
66
1
10
0
20
0
30
0
70
8
0
VERTEX
8
0
62
5
10
-0.12727922
20
0.22156305
30
0
70
32
0
VERTEX
8
0
62
5
10
-0.11313708
20
0.22156305
30
0
70
32
0
SEQEND
8
0
0
POLYLINE
8
0
62
5
66
1
10
0
20
0
30
0
70
8
0
VERTEX
8
0
62
5
10
-0.070710678
20
0.22156305
30
0
70
32
0
VERTEX
8
0
62
5
10
-0.056568542
20
0.22156305
30
0
70
32
0
SEQEND
8
0
0
POLYLINE
8
0
62
5
66
1
10
0
20
0
30
0
70
8
0
VERTEX
8
0
62
5
10
-0.11313708
20
0.20156305
30
0
70
32
0
VERTEX
8
0
62
5
10
-0.11313708
20
0.24156305
30
0
70
32
0
SEQEND
8
0
0
POLYLINE
8
0
62
5
66
1
10
0
20
0
30
0
70
8
0
VERTEX
8
0
62
5
10
-0.084852814
20
0.20156305
30
0
70
32
0
VERTEX
8
0
62
5
10
-0.084852814
20
0.24156305
30
0
70
32
0
SEQEND
8
0
0
POLYLINE
8
0
62
5
66
1
10
0
20
0
30
0
70
8
0
VERTEX
8
0
62
5
10
-0.056568542
20
0.20156305
30
0
70
32
0
VERTEX
8
0
62
5
10
-0.056568542
20
0.24156305
30
0
70
32
0
SEQEND
8
0
0
POLYLINE
8
0
62
5
66
1
10
0
20
0
30
0
70
8
0
VERTEX
8
0
62
5
10
-0.14142136
20
0.20156305
30
0
70
32
0
VERTEX
8
0
62
5
10
-0.14142136
20
0.24156305
30
0
70
32
0
SEQEND
8
0
0
POLYLINE
8
0
62
5
66
1
10
0
20
0
30
0
70
8
0
VERTEX
8
0
62
5
10
-0.028284271
20
0.24156305
30
0
70
32
0
VERTEX
8
0
62
5
10
-0.028284271
20
0.24769113
30
0
70
32
0
SEQEND
8
0
0
POLYLINE
8
0
62
5
66
1
10
0
20
0
30
0
70
8
0
VERTEX
8
0
62
5
10
4.0046199e-11
20
0.24156305
30
0
70
32
0
VERTEX
8
0
62
5
10
4.0046199e-11
20
0.24769113
30
0
70
32
0
SEQEND
8
0
0
POLYLINE
8
0
62
5
66
1
10
0
20
0
30
0
70
8
0
VERTEX
8
0
62
5
10
0.028284271
20
0.24156305
30
0
70
32
0
VERTEX
8
0
62
5
10
0.028284271
20
0.24769113
30
0
70
32
0
SEQEND
8
0
0
POLYLINE
8
0
62
5
66
1
10
0
20
0
30
0
70
8
0
VERTEX
8
0
62
5
10
0.056568543
20
0.24156305
30
0
70
32
0
VERTEX
8
0
62
5
10
0.056568543
20
0.24769113
30
0
70
32
0
SEQEND
8
0
0
POLYLINE
8
0
62
5
66
1
10
0
20
0
30
0
70
8
0
VERTEX
8
0
62
5
10
0.084852814
20
0.24156305
30
0
70
32
0
VERTEX
8
0
62
5
10
0.084852814
20
0.24769113
30
0
70
32
0
SEQEND
8
0
0
POLYLINE
8
0
62
5
66
1
10
0
20
0
30
0
70
8
0
VERTEX
8
0
62
5
10
4.0046199e-11
20
0.24156305
30
0
70
32
0
VERTEX
8
0
62
5
10
4.0046199e-11
20
0.24156305
30
0
70
32
0
SEQEND
8
0
0
POLYLINE
8
0
62
5
66
1
10
0
20
0
30
0
70
8
0
VERTEX
8
0
62
5
10
0.028284271
20
0.24156305
30
0
70
32
0
VERTEX
8
0
62
5
10
0.028284271
20
0.24156305
30
0
70
32
0
SEQEND
8
0
0
POLYLINE
8
0
62
5
66
1
10
0
20
0
30
0
70
8
0
VERTEX
8
0
62
5
10
0.056568543
20
0.24156305
30
0
70
32
0
VERTEX
8
0
62
5
10
0.056568543
20
0.24156305
30
0
70
32
0
SEQEND
8
0
0
POLYLINE
8
0
62
5
66
1
10
0
20
0
30
0
70
8
0
VERTEX
8
0
62
5
10
-0.028284271
20
0.24769113
30
0
70
32
0
VERTEX
8
0
62
5
10
-0.028284271
20
0.24769113
30
0
70
32
0
SEQEND
8
0
0
POLYLINE
8
0
62
5
66
1
10
0
20
0
30
0
70
8
0
VERTEX
8
0
62
5
10
4.0046199e-11
20
0.24769113
30
0
70
32
0
VERTEX
8
0
62
5
10
4.0046199e-11
20
0.24769113
30
0
70
32
0
SEQEND
8
0
0
POLYLINE
8
0
62
5
66
1
10
0
20
0
30
0
70
8
0
VERTEX
8
0
62
5
10
0.028284271
20
0.24769113
30
0
70
32
0
VERTEX
8
0
62
5
10
0.028284271
20
0.24769113
30
0
70
32
0
SEQEND
8
0
0
POLYLINE
8
0
62
5
66
1
10
0
20
0
30
0
70
8
0
VERTEX
8
0
62
5
10
0.056568543
20
0.24769113
30
0
70
32
0
VERTEX
8
0
62
5
10
0.056568543
20
0.24769113
30
0
70
32
0
SEQEND
8
0
0
POLYLINE
8
0
62
5
66
1
10
0
20
0
30
0
70
8
0
VERTEX
8
0
62
5
10
0.11313709
20
0.24156305
30
0
70
32
0
VERTEX
8
0
62
5
10
0.11313709
20
0.24769113
30
0
70
32
0
SEQEND
8
0
0
POLYLINE
8
0
62
5
66
1
10
0
20
0
30
0
70
8
0
VERTEX
8
0
62
5
10
0.14142136
20
0.24156305
30
0
70
32
0
VERTEX
8
0
62
5
10
0.14142136
20
0.24769113
30
0
70
32
0
SEQEND
8
0
0
POLYLINE
8
0
62
5
66
1
10
0
20
0
30
0
70
8
0
VERTEX
8
0
62
5
10
0.16970563
20
0.24156305
30
0
70
32
0
VERTEX
8
0
62
5
10
0.16970563
20
0.24769113
30
0
70
32
0
SEQEND
8
0
0
POLYLINE
8
0
62
5
66
1
10
0
20
0
30
0
70
8
0
VERTEX
8
0
62
5
10
0.1979899
20
0.24156305
30
0
70
32
0
VERTEX
8
0
62
5
10
0.1979899
20
0.24769113
30
0
70
32
0
SEQEND
8
0
0
POLYLINE
8
0
62
5
66
1
10
0
20
0
30
0
70
8
0
VERTEX
8
0
62
5
10
0.11313709
20
0.24156305
30
0
70
32
0
VERTEX
8
0
62
5
10
0.11313709
20
0.24156305
30
0
70
32
0
SEQEND
8
0
0
POLYLINE
8
0
62
5
66
1
10
0
20
0
30
0
70
8
0
VERTEX
8
0
62
5
10
0.14142136
20
0.24156305
30
0
70
32
0
VERTEX
8
0
62
5
10
0.14142136
20
0.24156305
30
0
70
32
0
SEQEND
8
0
0
POLYLINE
8
0
62
5
66
1
10
0
20
0
30
0
70
8
0
VERTEX
8
0
62
5
10
0.16970563
20
0.24156305
30
0
70
32
0
VERTEX
8
0
62
5
10
0.16970563
20
0.24156305
30
0
70
32
0
SEQEND
8
0
0
POLYLINE
8
0
62
5
66
1
10
0
20
0
30
0
70
8
0
VERTEX
8
0
62
5
10
0.084852814
20
0.24769113
30
0
70
32
0
VERTEX
8
0
62
5
10
0.084852814
20
0.24769113
30
0
70
32
0
SEQEND
8
0
0
POLYLINE
8
0
62
5
66
1
10
0
20
0
30
0
70
8
0
VERTEX
8
0
62
5
10
0.11313709
20
0.24769113
30
0
70
32
0
VERTEX
8
0
62
5
10
0.11313709
20
0.24769113
30
0
70
32
0
SEQEND
8
0
0
POLYLINE
8
0
62
5
66
1
10
0
20
0
30
0
70
8
0
VERTEX
8
0
62
5
10
0.14142136
20
0.24769113
30
0
70
32
0
VERTEX
8
0
62
5
10
0.14142136
20
0.24769113
30
0
70
32
0
SEQEND
8
0
0
POLYLINE
8
0
62
5
66
1
10
0
20
0
30
0
70
8
0
VERTEX
8
0
62
5
10
0.16970563
20
0.24769113
30
0
70
32
0
VERTEX
8
0
62
5
10
0.16970563
20
0.24769113
30
0
70
32
0
SEQEND
8
0
0
POLYLINE
8
0
62
5
66
1
10
0
20
0
30
0
70
8
0
VERTEX
8
0
62
5
10
-0.11313708
20
0.24156305
30
0
70
32
0
VERTEX
8
0
62
5
10
-0.11313708
20
0.24769113
30
0
70
32
0
SEQEND
8
0
0
POLYLINE
8
0
62
5
66
1
10
0
20
0
30
0
70
8
0
VERTEX
8
0
62
5
10
-0.084852814
20
0.24156305
30
0
70
32
0
VERTEX
8
0
62
5
10
-0.084852814
20
0.24769113
30
0
70
32
0
SEQEND
8
0
0
POLYLINE
8
0
62
5
66
1
10
0
20
0
30
0
70
8
0
VERTEX
8
0
62
5
10
-0.056568542
20
0.24156305
30
0
70
32
0
VERTEX
8
0
62
5
10
-0.056568542
20
0.24769113
30
0
70
32
0
SEQEND
8
0
0
POLYLINE
8
0
62
5
66
1
10
0
20
0
30
0
70
8
0
VERTEX
8
0
62
5
10
-0.028284271
20
0.24156305
30
0
70
32
0
VERTEX
8
0
62
5
10
-0.028284271
20
0.24769113
30
0
70
32
0
SEQEND
8
0
0
POLYLINE
8
0
62
5
66
1
10
0
20
0
30
0
70
8
0
VERTEX
8
0
62
5
10
-0.11313708
20
0.24156305
30
0
70
32
0
VERTEX
8
0
62
5
10
-0.11313708
20
0.24156305
30
0
70
32
0
SEQEND
8
0
0
POLYLINE
8
0
62
5
66
1
10
0
20
0
30
0
70
8
0
VERTEX
8
0
62
5
10
-0.084852814
20
0.24156305
30
0
70
32
0
VERTEX
8
0
62
5
10
-0.084852814
20
0.24156305
30
0
70
32
0
SEQEND
8
0
0
POLYLINE
8
0
62
5
66
1
10
0
20
0
30
0
70
8
0
VERTEX
8
0
62
5
10
-0.056568542
20
0.24156305
30
0
70
32
0
VERTEX
8
0
62
5
10
-0.056568542
20
0.24156305
30
0
70
32
0
SEQEND
8
0
0
POLYLINE
8
0
62
5
66
1
10
0
20
0
30
0
70
8
0
VERTEX
8
0
62
5
10
-0.14142136
20
0.24769113
30
0
70
32
0
VERTEX
8
0
62
5
10
-0.14142136
20
0.24769113
30
0
70
32
0
SEQEND
8
0
0
POLYLINE
8
0
62
5
66
1
10
0
20
0
30
0
70
8
0
VERTEX
8
0
62
5
10
-0.11313708
20
0.24769113
30
0
70
32
0
VERTEX
8
0
62
5
10
-0.11313708
20
0.24769113
30
0
70
32
0
SEQEND
8
0
0
POLYLINE
8
0
62
5
66
1
10
0
20
0
30
0
70
8
0
VERTEX
8
0
62
5
10
-0.084852814
20
0.24769113
30
0
70
32
0
VERTEX
8
0
62
5
10
-0.084852814
20
0.24769113
30
0
70
32
0
SEQEND
8
0
0
POLYLINE
8
0
62
5
66
1
10
0
20
0
30
0
70
8
0
VERTEX
8
0
62
5
10
-0.056568542
20
0.24769113
30
0
70
32
0
VERTEX
8
0
62
5
10
-0.056568542
20
0.24769113
30
0
70
32
0
SEQEND
8
0
0
POLYLINE
8
0
62
5
66
1
10
0
20
0
30
0
70
8
0
VERTEX
8
0
62
5
10
-0.028284271
20
0.24769113
30
0
70
32
0
VERTEX
8
0
62
5
10
-0.028284271
20
0.27220347
30
0
70
32
0
SEQEND
8
0
0
POLYLINE
8
0
62
5
66
1
10
0
20
0
30
0
70
8
0
VERTEX
8
0
62
5
10
0.084852814
20
0.24769113
30
0
70
32
0
VERTEX
8
0
62
5
10
0.084852814
20
0.27220347
30
0
70
32
0
SEQEND
8
0
0
POLYLINE
8
0
62
5
66
1
10
0
20
0
30
0
70
8
0
VERTEX
8
0
62
5
10
4.0046199e-11
20
0.24769113
30
0
70
32
0
VERTEX
8
0
62
5
10
4.0046199e-11
20
0.27220347
30
0
70
32
0
SEQEND
8
0
0
POLYLINE
8
0
62
5
66
1
10
0
20
0
30
0
70
8
0
VERTEX
8
0
62
5
10
0.028284271
20
0.24769113
30
0
70
32
0
VERTEX
8
0
62
5
10
0.028284271
20
0.27220347
30
0
70
32
0
SEQEND
8
0
0
POLYLINE
8
0
62
5
66
1
10
0
20
0
30
0
70
8
0
VERTEX
8
0
62
5
10
0.056568543
20
0.24769113
30
0
70
32
0
VERTEX
8
0
62
5
10
0.056568543
20
0.27220347
30
0
70
32
0
SEQEND
8
0
0
POLYLINE
8
0
62
5
66
1
10
0
20
0
30
0
70
8
0
VERTEX
8
0
62
5
10
0.1979899
20
0.24769113
30
0
70
32
0
VERTEX
8
0
62
5
10
0.1979899
20
0.27220347
30
0
70
32
0
SEQEND
8
0
0
POLYLINE
8
0
62
5
66
1
10
0
20
0
30
0
70
8
0
VERTEX
8
0
62
5
10
0.11313709
20
0.24769113
30
0
70
32
0
VERTEX
8
0
62
5
10
0.11313709
20
0.27220347
30
0
70
32
0
SEQEND
8
0
0
POLYLINE
8
0
62
5
66
1
10
0
20
0
30
0
70
8
0
VERTEX
8
0
62
5
10
0.14142136
20
0.24769113
30
0
70
32
0
VERTEX
8
0
62
5
10
0.14142136
20
0.27220347
30
0
70
32
0
SEQEND
8
0
0
POLYLINE
8
0
62
5
66
1
10
0
20
0
30
0
70
8
0
VERTEX
8
0
62
5
10
0.16970563
20
0.24769113
30
0
70
32
0
VERTEX
8
0
62
5
10
0.16970563
20
0.27220347
30
0
70
32
0
SEQEND
8
0
0
POLYLINE
8
0
62
5
66
1
10
0
20
0
30
0
70
8
0
VERTEX
8
0
62
5
10
-0.14142136
20
0.24769113
30
0
70
32
0
VERTEX
8
0
62
5
10
-0.14142136
20
0.27220347
30
0
70
32
0
SEQEND
8
0
0
POLYLINE
8
0
62
5
66
1
10
0
20
0
30
0
70
8
0
VERTEX
8
0
62
5
10
-0.11313708
20
0.24769113
30
0
70
32
0
VERTEX
8
0
62
5
10
-0.11313708
20
0.27220347
30
0
70
32
0
SEQEND
8
0
0
POLYLINE
8
0
62
5
66
1
10
0
20
0
30
0
70
8
0
VERTEX
8
0
62
5
10
-0.084852814
20
0.24769113
30
0
70
32
0
VERTEX
8
0
62
5
10
-0.084852814
20
0.27220347
30
0
70
32
0
SEQEND
8
0
0
POLYLINE
8
0
62
5
66
1
10
0
20
0
30
0
70
8
0
VERTEX
8
0
62
5
10
-0.056568542
20
0.24769113
30
0
70
32
0
VERTEX
8
0
62
5
10
-0.056568542
20
0.27220347
30
0
70
32
0
SEQEND
8
0
0
POLYLINE
8
0
62
5
66
1
10
0
20
0
30
0
70
8
0
VERTEX
8
0
62
5
10
-0.028284271
20
0.27220347
30
0
70
32
0
VERTEX
8
0
62
5
10
-0.028284271
20
0.31220347
30
0
70
32
0
SEQEND
8
0
0
POLYLINE
8
0
62
5
66
1
10
0
20
0
30
0
70
8
0
VERTEX
8
0
62
5
10
0.084852814
20
0.31220347
30
0
70
32
0
VERTEX
8
0
62
5
10
0.084852814
20
0.27220347
30
0
70
32
0
SEQEND
8
0
0
POLYLINE
8
0
62
5
66
1
10
0
20
0
30
0
70
8
0
VERTEX
8
0
62
5
10
-0.028284271
20
0.27220347
30
0
70
32
0
VERTEX
8
0
62
5
10
0.084852814
20
0.27220347
30
0
70
32
0
SEQEND
8
0
0
POLYLINE
8
0
62
5
66
1
10
0
20
0
30
0
70
8
0
VERTEX
8
0
62
5
10
-0.028284271
20
0.31220347
30
0
70
32
0
VERTEX
8
0
62
5
10
0.084852814
20
0.31220347
30
0
70
32
0
SEQEND
8
0
0
POLYLINE
8
0
62
5
66
1
10
0
20
0
30
0
70
8
0
VERTEX
8
0
62
5
10
4.0046199e-11
20
0.27220347
30
0
70
32
0
VERTEX
8
0
62
5
10
4.0046199e-11
20
0.27220347
30
0
70
32
0
SEQEND
8
0
0
POLYLINE
8
0
62
5
66
1
10
0
20
0
30
0
70
8
0
VERTEX
8
0
62
5
10
0.028284271
20
0.27220347
30
0
70
32
0
VERTEX
8
0
62
5
10
0.028284271
20
0.27220347
30
0
70
32
0
SEQEND
8
0
0
POLYLINE
8
0
62
5
66
1
10
0
20
0
30
0
70
8
0
VERTEX
8
0
62
5
10
0.056568543
20
0.27220347
30
0
70
32
0
VERTEX
8
0
62
5
10
0.056568543
20
0.27220347
30
0
70
32
0
SEQEND
8
0
0
POLYLINE
8
0
62
5
66
1
10
0
20
0
30
0
70
8
0
VERTEX
8
0
62
5
10
4.0046199e-11
20
0.31220347
30
0
70
32
0
VERTEX
8
0
62
5
10
4.0046199e-11
20
0.31220347
30
0
70
32
0
SEQEND
8
0
0
POLYLINE
8
0
62
5
66
1
10
0
20
0
30
0
70
8
0
VERTEX
8
0
62
5
10
0.028284271
20
0.31220347
30
0
70
32
0
VERTEX
8
0
62
5
10
0.028284271
20
0.31220347
30
0
70
32
0
SEQEND
8
0
0
POLYLINE
8
0
62
5
66
1
10
0
20
0
30
0
70
8
0
VERTEX
8
0
62
5
10
0.056568543
20
0.31220347
30
0
70
32
0
VERTEX
8
0
62
5
10
0.056568543
20
0.31220347
30
0
70
32
0
SEQEND
8
0
0
POLYLINE
8
0
62
30
66
1
10
0
20
0
30
0
70
8
0
VERTEX
8
0
62
30
10
-0.028284271
20
0.27220347
30
0
70
32
0
VERTEX
8
0
62
30
10
-0.014142136
20
0.29220347
30
0
70
32
0
SEQEND
8
0
0
POLYLINE
8
0
62
30
66
1
10
0
20
0
30
0
70
8
0
VERTEX
8
0
62
30
10
-0.014142136
20
0.29220347
30
0
70
32
0
VERTEX
8
0
62
30
10
4.0046199e-11
20
0.27220347
30
0
70
32
0
SEQEND
8
0
0
POLYLINE
8
0
62
30
66
1
10
0
20
0
30
0
70
8
0
VERTEX
8
0
62
30
10
0.028284271
20
0.27220347
30
0
70
32
0
VERTEX
8
0
62
30
10
0.042426407
20
0.29220347
30
0
70
32
0
SEQEND
8
0
0
POLYLINE
8
0
62
30
66
1
10
0
20
0
30
0
70
8
0
VERTEX
8
0
62
30
10
0.042426407
20
0.29220347
30
0
70
32
0
VERTEX
8
0
62
30
10
0.056568543
20
0.27220347
30
0
70
32
0
SEQEND
8
0
0
POLYLINE
8
0
62
30
66
1
10
0
20
0
30
0
70
8
0
VERTEX
8
0
62
30
10
4.0046199e-11
20
0.29220347
30
0
70
32
0
VERTEX
8
0
62
30
10
0.028284271
20
0.29220347
30
0
70
32
0
SEQEND
8
0
0
POLYLINE
8
0
62
30
66
1
10
0
20
0
30
0
70
8
0
VERTEX
8
0
62
30
10
0.056568543
20
0.29220347
30
0
70
32
0
VERTEX
8
0
62
30
10
0.084852814
20
0.29220347
30
0
70
32
0
SEQEND
8
0
0
POLYLINE
8
0
62
5
66
1
10
0
20
0
30
0
70
8
0
VERTEX
8
0
62
5
10
-0.028284271
20
0.29220347
30
0
70
32
0
VERTEX
8
0
62
5
10
-0.014142136
20
0.29220347
30
0
70
32
0
SEQEND
8
0
0
POLYLINE
8
0
62
5
66
1
10
0
20
0
30
0
70
8
0
VERTEX
8
0
62
5
10
0.028284271
20
0.29220347
30
0
70
32
0
VERTEX
8
0
62
5
10
0.042426407
20
0.29220347
30
0
70
32
0
SEQEND
8
0
0
POLYLINE
8
0
62
5
66
1
10
0
20
0
30
0
70
8
0
VERTEX
8
0
62
5
10
-0.014142136
20
0.29220347
30
0
70
32
0
VERTEX
8
0
62
5
10
4.0046199e-11
20
0.29220347
30
0
70
32
0
SEQEND
8
0
0
POLYLINE
8
0
62
5
66
1
10
0
20
0
30
0
70
8
0
VERTEX
8
0
62
5
10
0.042426407
20
0.29220347
30
0
70
32
0
VERTEX
8
0
62
5
10
0.056568543
20
0.29220347
30
0
70
32
0
SEQEND
8
0
0
POLYLINE
8
0
62
5
66
1
10
0
20
0
30
0
70
8
0
VERTEX
8
0
62
5
10
4.0046199e-11
20
0.27220347
30
0
70
32
0
VERTEX
8
0
62
5
10
4.0046199e-11
20
0.31220347
30
0
70
32
0
SEQEND
8
0
0
POLYLINE
8
0
62
5
66
1
10
0
20
0
30
0
70
8
0
VERTEX
8
0
62
5
10
0.028284271
20
0.27220347
30
0
70
32
0
VERTEX
8
0
62
5
10
0.028284271
20
0.31220347
30
0
70
32
0
SEQEND
8
0
0
POLYLINE
8
0
62
5
66
1
10
0
20
0
30
0
70
8
0
VERTEX
8
0
62
5
10
0.056568543
20
0.27220347
30
0
70
32
0
VERTEX
8
0
62
5
10
0.056568543
20
0.31220347
30
0
70
32
0
SEQEND
8
0
0
POLYLINE
8
0
62
5
66
1
10
0
20
0
30
0
70
8
0
VERTEX
8
0
62
5
10
-0.028284271
20
0.27220347
30
0
70
32
0
VERTEX
8
0
62
5
10
-0.028284271
20
0.31220347
30
0
70
32
0
SEQEND
8
0
0
POLYLINE
8
0
62
5
66
1
10
0
20
0
30
0
70
8
0
VERTEX
8
0
62
5
10
0.1979899
20
0.31220347
30
0
70
32
0
VERTEX
8
0
62
5
10
0.1979899
20
0.27220347
30
0
70
32
0
SEQEND
8
0
0
POLYLINE
8
0
62
5
66
1
10
0
20
0
30
0
70
8
0
VERTEX
8
0
62
5
10
0.084852814
20
0.27220347
30
0
70
32
0
VERTEX
8
0
62
5
10
0.1979899
20
0.27220347
30
0
70
32
0
SEQEND
8
0
0
POLYLINE
8
0
62
5
66
1
10
0
20
0
30
0
70
8
0
VERTEX
8
0
62
5
10
0.084852814
20
0.31220347
30
0
70
32
0
VERTEX
8
0
62
5
10
0.1979899
20
0.31220347
30
0
70
32
0
SEQEND
8
0
0
POLYLINE
8
0
62
5
66
1
10
0
20
0
30
0
70
8
0
VERTEX
8
0
62
5
10
0.11313709
20
0.27220347
30
0
70
32
0
VERTEX
8
0
62
5
10
0.11313709
20
0.27220347
30
0
70
32
0
SEQEND
8
0
0
POLYLINE
8
0
62
5
66
1
10
0
20
0
30
0
70
8
0
VERTEX
8
0
62
5
10
0.14142136
20
0.27220347
30
0
70
32
0
VERTEX
8
0
62
5
10
0.14142136
20
0.27220347
30
0
70
32
0
SEQEND
8
0
0
POLYLINE
8
0
62
5
66
1
10
0
20
0
30
0
70
8
0
VERTEX
8
0
62
5
10
0.16970563
20
0.27220347
30
0
70
32
0
VERTEX
8
0
62
5
10
0.16970563
20
0.27220347
30
0
70
32
0
SEQEND
8
0
0
POLYLINE
8
0
62
5
66
1
10
0
20
0
30
0
70
8
0
VERTEX
8
0
62
5
10
0.11313709
20
0.31220347
30
0
70
32
0
VERTEX
8
0
62
5
10
0.11313709
20
0.31220347
30
0
70
32
0
SEQEND
8
0
0
POLYLINE
8
0
62
5
66
1
10
0
20
0
30
0
70
8
0
VERTEX
8
0
62
5
10
0.14142136
20
0.31220347
30
0
70
32
0
VERTEX
8
0
62
5
10
0.14142136
20
0.31220347
30
0
70
32
0
SEQEND
8
0
0
POLYLINE
8
0
62
5
66
1
10
0
20
0
30
0
70
8
0
VERTEX
8
0
62
5
10
0.16970563
20
0.31220347
30
0
70
32
0
VERTEX
8
0
62
5
10
0.16970563
20
0.31220347
30
0
70
32
0
SEQEND
8
0
0
POLYLINE
8
0
62
30
66
1
10
0
20
0
30
0
70
8
0
VERTEX
8
0
62
30
10
0.084852814
20
0.27220347
30
0
70
32
0
VERTEX
8
0
62
30
10
0.098994949
20
0.29220347
30
0
70
32
0
SEQEND
8
0
0
POLYLINE
8
0
62
30
66
1
10
0
20
0
30
0
70
8
0
VERTEX
8
0
62
30
10
0.098994949
20
0.29220347
30
0
70
32
0
VERTEX
8
0
62
30
10
0.11313709
20
0.27220347
30
0
70
32
0
SEQEND
8
0
0
POLYLINE
8
0
62
30
66
1
10
0
20
0
30
0
70
8
0
VERTEX
8
0
62
30
10
0.14142136
20
0.27220347
30
0
70
32
0
VERTEX
8
0
62
30
10
0.15556349
20
0.29220347
30
0
70
32
0
SEQEND
8
0
0
POLYLINE
8
0
62
30
66
1
10
0
20
0
30
0
70
8
0
VERTEX
8
0
62
30
10
0.15556349
20
0.29220347
30
0
70
32
0
VERTEX
8
0
62
30
10
0.16970563
20
0.27220347
30
0
70
32
0
SEQEND
8
0
0
POLYLINE
8
0
62
30
66
1
10
0
20
0
30
0
70
8
0
VERTEX
8
0
62
30
10
0.11313709
20
0.29220347
30
0
70
32
0
VERTEX
8
0
62
30
10
0.14142136
20
0.29220347
30
0
70
32
0
SEQEND
8
0
0
POLYLINE
8
0
62
30
66
1
10
0
20
0
30
0
70
8
0
VERTEX
8
0
62
30
10
0.16970563
20
0.29220347
30
0
70
32
0
VERTEX
8
0
62
30
10
0.1979899
20
0.29220347
30
0
70
32
0
SEQEND
8
0
0
POLYLINE
8
0
62
5
66
1
10
0
20
0
30
0
70
8
0
VERTEX
8
0
62
5
10
0.084852814
20
0.29220347
30
0
70
32
0
VERTEX
8
0
62
5
10
0.098994949
20
0.29220347
30
0
70
32
0
SEQEND
8
0
0
POLYLINE
8
0
62
5
66
1
10
0
20
0
30
0
70
8
0
VERTEX
8
0
62
5
10
0.14142136
20
0.29220347
30
0
70
32
0
VERTEX
8
0
62
5
10
0.15556349
20
0.29220347
30
0
70
32
0
SEQEND
8
0
0
POLYLINE
8
0
62
5
66
1
10
0
20
0
30
0
70
8
0
VERTEX
8
0
62
5
10
0.098994949
20
0.29220347
30
0
70
32
0
VERTEX
8
0
62
5
10
0.11313709
20
0.29220347
30
0
70
32
0
SEQEND
8
0
0
POLYLINE
8
0
62
5
66
1
10
0
20
0
30
0
70
8
0
VERTEX
8
0
62
5
10
0.15556349
20
0.29220347
30
0
70
32
0
VERTEX
8
0
62
5
10
0.16970563
20
0.29220347
30
0
70
32
0
SEQEND
8
0
0
POLYLINE
8
0
62
5
66
1
10
0
20
0
30
0
70
8
0
VERTEX
8
0
62
5
10
0.11313709
20
0.27220347
30
0
70
32
0
VERTEX
8
0
62
5
10
0.11313709
20
0.31220347
30
0
70
32
0
SEQEND
8
0
0
POLYLINE
8
0
62
5
66
1
10
0
20
0
30
0
70
8
0
VERTEX
8
0
62
5
10
0.14142136
20
0.27220347
30
0
70
32
0
VERTEX
8
0
62
5
10
0.14142136
20
0.31220347
30
0
70
32
0
SEQEND
8
0
0
POLYLINE
8
0
62
5
66
1
10
0
20
0
30
0
70
8
0
VERTEX
8
0
62
5
10
0.16970563
20
0.27220347
30
0
70
32
0
VERTEX
8
0
62
5
10
0.16970563
20
0.31220347
30
0
70
32
0
SEQEND
8
0
0
POLYLINE
8
0
62
5
66
1
10
0
20
0
30
0
70
8
0
VERTEX
8
0
62
5
10
0.084852814
20
0.27220347
30
0
70
32
0
VERTEX
8
0
62
5
10
0.084852814
20
0.31220347
30
0
70
32
0
SEQEND
8
0
0
POLYLINE
8
0
62
5
66
1
10
0
20
0
30
0
70
8
0
VERTEX
8
0
62
5
10
-0.14142136
20
0.27220347
30
0
70
32
0
VERTEX
8
0
62
5
10
-0.14142136
20
0.31220347
30
0
70
32
0
SEQEND
8
0
0
POLYLINE
8
0
62
5
66
1
10
0
20
0
30
0
70
8
0
VERTEX
8
0
62
5
10
-0.14142136
20
0.27220347
30
0
70
32
0
VERTEX
8
0
62
5
10
-0.028284271
20
0.27220347
30
0
70
32
0
SEQEND
8
0
0
POLYLINE
8
0
62
5
66
1
10
0
20
0
30
0
70
8
0
VERTEX
8
0
62
5
10
-0.14142136
20
0.31220347
30
0
70
32
0
VERTEX
8
0
62
5
10
-0.028284271
20
0.31220347
30
0
70
32
0
SEQEND
8
0
0
POLYLINE
8
0
62
5
66
1
10
0
20
0
30
0
70
8
0
VERTEX
8
0
62
5
10
-0.11313708
20
0.27220347
30
0
70
32
0
VERTEX
8
0
62
5
10
-0.11313708
20
0.27220347
30
0
70
32
0
SEQEND
8
0
0
POLYLINE
8
0
62
5
66
1
10
0
20
0
30
0
70
8
0
VERTEX
8
0
62
5
10
-0.084852814
20
0.27220347
30
0
70
32
0
VERTEX
8
0
62
5
10
-0.084852814
20
0.27220347
30
0
70
32
0
SEQEND
8
0
0
POLYLINE
8
0
62
5
66
1
10
0
20
0
30
0
70
8
0
VERTEX
8
0
62
5
10
-0.056568542
20
0.27220347
30
0
70
32
0
VERTEX
8
0
62
5
10
-0.056568542
20
0.27220347
30
0
70
32
0
SEQEND
8
0
0
POLYLINE
8
0
62
5
66
1
10
0
20
0
30
0
70
8
0
VERTEX
8
0
62
5
10
-0.11313708
20
0.31220347
30
0
70
32
0
VERTEX
8
0
62
5
10
-0.11313708
20
0.31220347
30
0
70
32
0
SEQEND
8
0
0
POLYLINE
8
0
62
5
66
1
10
0
20
0
30
0
70
8
0
VERTEX
8
0
62
5
10
-0.084852814
20
0.31220347
30
0
70
32
0
VERTEX
8
0
62
5
10
-0.084852814
20
0.31220347
30
0
70
32
0
SEQEND
8
0
0
POLYLINE
8
0
62
5
66
1
10
0
20
0
30
0
70
8
0
VERTEX
8
0
62
5
10
-0.056568542
20
0.31220347
30
0
70
32
0
VERTEX
8
0
62
5
10
-0.056568542
20
0.31220347
30
0
70
32
0
SEQEND
8
0
0
POLYLINE
8
0
62
30
66
1
10
0
20
0
30
0
70
8
0
VERTEX
8
0
62
30
10
-0.14142136
20
0.27220347
30
0
70
32
0
VERTEX
8
0
62
30
10
-0.12727922
20
0.29220347
30
0
70
32
0
SEQEND
8
0
0
POLYLINE
8
0
62
30
66
1
10
0
20
0
30
0
70
8
0
VERTEX
8
0
62
30
10
-0.12727922
20
0.29220347
30
0
70
32
0
VERTEX
8
0
62
30
10
-0.11313708
20
0.27220347
30
0
70
32
0
SEQEND
8
0
0
POLYLINE
8
0
62
30
66
1
10
0
20
0
30
0
70
8
0
VERTEX
8
0
62
30
10
-0.084852814
20
0.27220347
30
0
70
32
0
VERTEX
8
0
62
30
10
-0.070710678
20
0.29220347
30
0
70
32
0
SEQEND
8
0
0
POLYLINE
8
0
62
30
66
1
10
0
20
0
30
0
70
8
0
VERTEX
8
0
62
30
10
-0.070710678
20
0.29220347
30
0
70
32
0
VERTEX
8
0
62
30
10
-0.056568542
20
0.27220347
30
0
70
32
0
SEQEND
8
0
0
POLYLINE
8
0
62
30
66
1
10
0
20
0
30
0
70
8
0
VERTEX
8
0
62
30
10
-0.11313708
20
0.29220347
30
0
70
32
0
VERTEX
8
0
62
30
10
-0.084852814
20
0.29220347
30
0
70
32
0
SEQEND
8
0
0
POLYLINE
8
0
62
30
66
1
10
0
20
0
30
0
70
8
0
VERTEX
8
0
62
30
10
-0.056568542
20
0.29220347
30
0
70
32
0
VERTEX
8
0
62
30
10
-0.028284271
20
0.29220347
30
0
70
32
0
SEQEND
8
0
0
POLYLINE
8
0
62
5
66
1
10
0
20
0
30
0
70
8
0
VERTEX
8
0
62
5
10
-0.14142136
20
0.29220347
30
0
70
32
0
VERTEX
8
0
62
5
10
-0.12727922
20
0.29220347
30
0
70
32
0
SEQEND
8
0
0
POLYLINE
8
0
62
5
66
1
10
0
20
0
30
0
70
8
0
VERTEX
8
0
62
5
10
-0.084852814
20
0.29220347
30
0
70
32
0
VERTEX
8
0
62
5
10
-0.070710678
20
0.29220347
30
0
70
32
0
SEQEND
8
0
0
POLYLINE
8
0
62
5
66
1
10
0
20
0
30
0
70
8
0
VERTEX
8
0
62
5
10
-0.12727922
20
0.29220347
30
0
70
32
0
VERTEX
8
0
62
5
10
-0.11313708
20
0.29220347
30
0
70
32
0
SEQEND
8
0
0
POLYLINE
8
0
62
5
66
1
10
0
20
0
30
0
70
8
0
VERTEX
8
0
62
5
10
-0.070710678
20
0.29220347
30
0
70
32
0
VERTEX
8
0
62
5
10
-0.056568542
20
0.29220347
30
0
70
32
0
SEQEND
8
0
0
POLYLINE
8
0
62
5
66
1
10
0
20
0
30
0
70
8
0
VERTEX
8
0
62
5
10
-0.11313708
20
0.27220347
30
0
70
32
0
VERTEX
8
0
62
5
10
-0.11313708
20
0.31220347
30
0
70
32
0
SEQEND
8
0
0
POLYLINE
8
0
62
5
66
1
10
0
20
0
30
0
70
8
0
VERTEX
8
0
62
5
10
-0.084852814
20
0.27220347
30
0
70
32
0
VERTEX
8
0
62
5
10
-0.084852814
20
0.31220347
30
0
70
32
0
SEQEND
8
0
0
POLYLINE
8
0
62
5
66
1
10
0
20
0
30
0
70
8
0
VERTEX
8
0
62
5
10
-0.056568542
20
0.27220347
30
0
70
32
0
VERTEX
8
0
62
5
10
-0.056568542
20
0.31220347
30
0
70
32
0
SEQEND
8
0
0
POLYLINE
8
0
62
5
66
1
10
0
20
0
30
0
70
8
0
VERTEX
8
0
62
5
10
-0.14142136
20
0.27220347
30
0
70
32
0
VERTEX
8
0
62
5
10
-0.14142136
20
0.31220347
30
0
70
32
0
SEQEND
8
0
0
POLYLINE
8
0
62
18
66
1
10
0
20
0
30
0
70
8
0
VERTEX
8
0
62
18
10
0
20
0
30
0
70
32
0
VERTEX
8
0
62
18
10
0.14142136
20
0
30
0
70
32
0
VERTEX
8
0
62
18
10
0.14142136
20
0.1781627
30
0
70
32
0
VERTEX
8
0
62
18
10
0
20
0.1781627
30
0
70
32
0
VERTEX
8
0
62
18
10
0
20
0
30
0
70
32
0
SEQEND
8
0
0
POLYLINE
8
0
62
5
66
1
10
0
20
0
30
0
70
8
0
VERTEX
8
0
62
5
10
0
20
0.1781627
30
0
70
32
0
VERTEX
8
0
62
5
10
0.14142136
20
0.1781627
30
0
70
32
0
SEQEND
8
0
0
POLYLINE
8
0
62
18
66
1
10
0
20
0
30
0
70
8
0
VERTEX
8
0
62
18
10
0
20
0.1581627
30
0
70
32
0
VERTEX
8
0
62
18
10
0.14142136
20
0.1581627
30
0
70
32
0
VERTEX
8
0
62
18
10
0.14142136
20
0.2599473
30
0
70
32
0
VERTEX
8
0
62
18
10
0
20
0.2599473
30
0
70
32
0
VERTEX
8
0
62
18
10
0
20
0.1581627
30
0
70
32
0
SEQEND
8
0
0
POLYLINE
8
0
62
5
66
1
10
0
20
0
30
0
70
8
0
VERTEX
8
0
62
5
10
0
20
0.2599473
30
0
70
32
0
VERTEX
8
0
62
5
10
0.14142136
20
0.2599473
30
0
70
32
0
SEQEND
8
0
0
POLYLINE
8
0
62
18
66
1
10
0
20
0
30
0
70
8
0
VERTEX
8
0
62
18
10
0
20
0.2399473
30
0
70
32
0
VERTEX
8
0
62
18
10
0.14142136
20
0.2399473
30
0
70
32
0
VERTEX
8
0
62
18
10
0.14142136
20
0.31220347
30
0
70
32
0
VERTEX
8
0
62
18
10
0
20
0.31220347
30
0
70
32
0
VERTEX
8
0
62
18
10
0
20
0.2399473
30
0
70
32
0
SEQEND
8
0
0
POLYLINE
8
0
62
18
66
1
10
0
20
0
30
0
70
8
0
VERTEX
8
0
62
18
10
0.14142136
20
0
30
0
70
32
0
VERTEX
8
0
62
18
10
0
20
0
30
0
70
32
0
VERTEX
8
0
62
18
10
0
20
0.31220347
30
0
70
32
0
VERTEX
8
0
62
18
10
0.14142136
20
0.31220347
30
0
70
32
0
VERTEX
8
0
62
18
10
0.14142136
20
0
30
0
70
32
0
SEQEND
8
0
0
ENDSEC
0
EOF
