0
SECTION
2
HEADER
9
$ACADVER
1
AC1006
9
$INSUNITS
70
6
0
ENDSEC
0
SECTION
2
ENTITIES
0
POLYLINE
8
0
62
5
66
1
10
0
20
0
30
0
70
8
0
VERTEX
8
0
62
5
10
0
20
0
30
0
70
32
0
VERTEX
8
0
62
5
10
0
20
0.1
30
0
70
32
0
SEQEND
8
0
0
POLYLINE
8
0
62
5
66
1
10
0
20
0
30
0
70
8
0
VERTEX
8
0
62
5
10
0.28284271
20
0
30
0
70
32
0
VERTEX
8
0
62
5
10
0.28284271
20
0.1
30
0
70
32
0
SEQEND
8
0
0
POLYLINE
8
0
62
5
66
1
10
0
20
0
30
0
70
8
0
VERTEX
8
0
62
5
10
0.070710678
20
0
30
0
70
32
0
VERTEX
8
0
62
5
10
0.070710678
20
0.1
30
0
70
32
0
SEQEND
8
0
0
POLYLINE
8
0
62
5
66
1
10
0
20
0
30
0
70
8
0
VERTEX
8
0
62
5
10
0.14142136
20
0
30
0
70
32
0
VERTEX
8
0
62
5
10
0.14142136
20
0.1
30
0
70
32
0
SEQEND
8
0
0
POLYLINE
8
0
62
5
66
1
10
0
20
0
30
0
70
8
0
VERTEX
8
0
62
5
10
0.21213203
20
0
30
0
70
32
0
VERTEX
8
0
62
5
10
0.21213203
20
0.1
30
0
70
32
0
SEQEND
8
0
0
POLYLINE
8
0
62
5
66
1
10
0
20
0
30
0
70
8
0
VERTEX
8
0
62
5
10
0.56568542
20
0
30
0
70
32
0
VERTEX
8
0
62
5
10
0.56568542
20
0.1
30
0
70
32
0
SEQEND
8
0
0
POLYLINE
8
0
62
5
66
1
10
0
20
0
30
0
70
8
0
VERTEX
8
0
62
5
10
0.35355339
20
0
30
0
70
32
0
VERTEX
8
0
62
5
10
0.35355339
20
0.1
30
0
70
32
0
SEQEND
8
0
0
POLYLINE
8
0
62
5
66
1
10
0
20
0
30
0
70
8
0
VERTEX
8
0
62
5
10
0.42426407
20
0
30
0
70
32
0
VERTEX
8
0
62
5
10
0.42426407
20
0.1
30
0
70
32
0
SEQEND
8
0
0
POLYLINE
8
0
62
5
66
1
10
0
20
0
30
0
70
8
0
VERTEX
8
0
62
5
10
0.49497475
20
0
30
0
70
32
0
VERTEX
8
0
62
5
10
0.49497475
20
0.1
30
0
70
32
0
SEQEND
8
0
0
POLYLINE
8
0
62
5
66
1
10
0
20
0
30
0
70
8
0
VERTEX
8
0
62
5
10
-0.28284271
20
0
30
0
70
32
0
VERTEX
8
0
62
5
10
-0.28284271
20
0.1
30
0
70
32
0
SEQEND
8
0
0
POLYLINE
8
0
62
5
66
1
10
0
20
0
30
0
70
8
0
VERTEX
8
0
62
5
10
-0.21213203
20
0
30
0
70
32
0
VERTEX
8
0
62
5
10
-0.21213203
20
0.1
30
0
70
32
0
SEQEND
8
0
0
POLYLINE
8
0
62
5
66
1
10
0
20
0
30
0
70
8
0
VERTEX
8
0
62
5
10
-0.14142136
20
0
30
0
70
32
0
VERTEX
8
0
62
5
10
-0.14142136
20
0.1
30
0
70
32
0
SEQEND
8
0
0
POLYLINE
8
0
62
5
66
1
10
0
20
0
30
0
70
8
0
VERTEX
8
0
62
5
10
-0.070710678
20
0
30
0
70
32
0
VERTEX
8
0
62
5
10
-0.070710678
20
0.1
30
0
70
32
0
SEQEND
8
0
0
POLYLINE
8
0
62
5
66
1
10
0
20
0
30
0
70
8
0
VERTEX
8
0
62
5
10
0
20
0.1
30
0
70
32
0
VERTEX
8
0
62
5
10
0
20
0.101
30
0
70
32
0
SEQEND
8
0
0
POLYLINE
8
0
62
5
66
1
10
0
20
0
30
0
70
8
0
VERTEX
8
0
62
5
10
0.28284271
20
0.1
30
0
70
32
0
VERTEX
8
0
62
5
10
0.28284271
20
0.101
30
0
70
32
0
SEQEND
8
0
0
POLYLINE
8
0
62
5
66
1
10
0
20
0
30
0
70
8
0
VERTEX
8
0
62
5
10
0.070710678
20
0.1
30
0
70
32
0
VERTEX
8
0
62
5
10
0.070710678
20
0.101
30
0
70
32
0
SEQEND
8
0
0
POLYLINE
8
0
62
5
66
1
10
0
20
0
30
0
70
8
0
VERTEX
8
0
62
5
10
0.14142136
20
0.1
30
0
70
32
0
VERTEX
8
0
62
5
10
0.14142136
20
0.101
30
0
70
32
0
SEQEND
8
0
0
POLYLINE
8
0
62
5
66
1
10
0
20
0
30
0
70
8
0
VERTEX
8
0
62
5
10
0.21213203
20
0.1
30
0
70
32
0
VERTEX
8
0
62
5
10
0.21213203
20
0.101
30
0
70
32
0
SEQEND
8
0
0
POLYLINE
8
0
62
5
66
1
10
0
20
0
30
0
70
8
0
VERTEX
8
0
62
5
10
0.56568542
20
0.1
30
0
70
32
0
VERTEX
8
0
62
5
10
0.56568542
20
0.101
30
0
70
32
0
SEQEND
8
0
0
POLYLINE
8
0
62
5
66
1
10
0
20
0
30
0
70
8
0
VERTEX
8
0
62
5
10
0.35355339
20
0.1
30
0
70
32
0
VERTEX
8
0
62
5
10
0.35355339
20
0.101
30
0
70
32
0
SEQEND
8
0
0
POLYLINE
8
0
62
5
66
1
10
0
20
0
30
0
70
8
0
VERTEX
8
0
62
5
10
0.42426407
20
0.1
30
0
70
32
0
VERTEX
8
0
62
5
10
0.42426407
20
0.101
30
0
70
32
0
SEQEND
8
0
0
POLYLINE
8
0
62
5
66
1
10
0
20
0
30
0
70
8
0
VERTEX
8
0
62
5
10
0.49497475
20
0.1
30
0
70
32
0
VERTEX
8
0
62
5
10
0.49497475
20
0.101
30
0
70
32
0
SEQEND
8
0
0
POLYLINE
8
0
62
5
66
1
10
0
20
0
30
0
70
8
0
VERTEX
8
0
62
5
10
-0.28284271
20
0.1
30
0
70
32
0
VERTEX
8
0
62
5
10
-0.28284271
20
0.101
30
0
70
32
0
SEQEND
8
0
0
POLYLINE
8
0
62
5
66
1
10
0
20
0
30
0
70
8
0
VERTEX
8
0
62
5
10
-0.21213203
20
0.1
30
0
70
32
0
VERTEX
8
0
62
5
10
-0.21213203
20
0.101
30
0
70
32
0
SEQEND
8
0
0
POLYLINE
8
0
62
5
66
1
10
0
20
0
30
0
70
8
0
VERTEX
8
0
62
5
10
-0.14142136
20
0.1
30
0
70
32
0
VERTEX
8
0
62
5
10
-0.14142136
20
0.101
30
0
70
32
0
SEQEND
8
0
0
POLYLINE
8
0
62
5
66
1
10
0
20
0
30
0
70
8
0
VERTEX
8
0
62
5
10
-0.070710678
20
0.1
30
0
70
32
0
VERTEX
8
0
62
5
10
-0.070710678
20
0.101
30
0
70
32
0
SEQEND
8
0
0
POLYLINE
8
0
62
5
66
1
10
0
20
0
30
0
70
8
0
VERTEX
8
0
62
5
10
0
20
0.101
30
0
70
32
0
VERTEX
8
0
62
5
10
0
20
0.12870253
30
0
70
32
0
SEQEND
8
0
0
POLYLINE
8
0
62
5
66
1
10
0
20
0
30
0
70
8
0
VERTEX
8
0
62
5
10
0.28284271
20
0.12870253
30
0
70
32
0
VERTEX
8
0
62
5
10
0.28284271
20
0.101
30
0
70
32
0
SEQEND
8
0
0
POLYLINE
8
0
62
5
66
1
10
0
20
0
30
0
70
8
0
VERTEX
8
0
62
5
10
0
20
0.11485126
30
0
70
32
0
VERTEX
8
0
62
5
10
0.070710678
20
0.11485126
30
0
70
32
0
VERTEX
8
0
62
5
10
0.14142136
20
0.1033765
30
0
70
32
0
VERTEX
8
0
62
5
10
0.21213203
20
0.1033765
30
0
70
32
0
VERTEX
8
0
62
5
10
0.28284271
20
0.11485126
30
0
70
32
0
SEQEND
8
0
0
POLYLINE
8
0
62
5
66
1
10
0
20
0
30
0
70
8
0
SEQEND
8
0
0
POLYLINE
8
0
62
5
66
1
10
0
20
0
30
0
70
8
0
VERTEX
8
0
62
5
10
0
20
0.11485126
30
0
70
32
0
VERTEX
8
0
62
5
10
0.070710678
20
0.11485126
30
0
70
32
0
VERTEX
8
0
62
5
10
0.14142136
20
0.12632603
30
0
70
32
0
VERTEX
8
0
62
5
10
0.21213203
20
0.12632603
30
0
70
32
0
VERTEX
8
0
62
5
10
0.28284271
20
0.11485126
30
0
70
32
0
SEQEND
8
0
0
POLYLINE
8
0
62
30
66
1
10
0
20
0
30
0
70
8
0
VERTEX
8
0
62
30
10
0
20
0.11485126
30
0
70
32
0
VERTEX
8
0
62
30
10
0.28284271
20
0.11485126
30
0
70
32
0
SEQEND
8
0
0
POLYLINE
8
0
62
30
66
1
10
0
20
0
30
0
70
8
0
VERTEX
8
0
62
30
10
0.070710678
20
0.11485126
30
0
70
32
0
VERTEX
8
0
62
30
10
0.070710678
20
0.11485126
30
0
70
32
0
SEQEND
8
0
0
POLYLINE
8
0
62
30
66
1
10
0
20
0
30
0
70
8
0
VERTEX
8
0
62
30
10
0.14142136
20
0.1033765
30
0
70
32
0
VERTEX
8
0
62
30
10
0.14142136
20
0.11485126
30
0
70
32
0
SEQEND
8
0
0
POLYLINE
8
0
62
30
66
1
10
0
20
0
30
0
70
8
0
VERTEX
8
0
62
30
10
0.21213203
20
0.1033765
30
0
70
32
0
VERTEX
8
0
62
30
10
0.21213203
20
0.11485126
30
0
70
32
0
SEQEND
8
0
0
POLYLINE
8
0
62
5
66
1
10
0
20
0
30
0
70
8
0
VERTEX
8
0
62
5
10
0.070710678
20
0.101
30
0
70
32
0
VERTEX
8
0
62
5
10
0.070710678
20
0.11485126
30
0
70
32
0
SEQEND
8
0
0
POLYLINE
8
0
62
5
66
1
10
0
20
0
30
0
70
8
0
VERTEX
8
0
62
5
10
0.14142136
20
0.101
30
0
70
32
0
VERTEX
8
0
62
5
10
0.14142136
20
0.1033765
30
0
70
32
0
SEQEND
8
0
0
POLYLINE
8
0
62
5
66
1
10
0
20
0
30
0
70
8
0
VERTEX
8
0
62
5
10
0.21213203
20
0.101
30
0
70
32
0
VERTEX
8
0
62
5
10
0.21213203
20
0.1033765
30
0
70
32
0
SEQEND
8
0
0
POLYLINE
8
0
62
5
66
1
10
0
20
0
30
0
70
8
0
VERTEX
8
0
62
5
10
0.070710678
20
0.11485126
30
0
70
32
0
VERTEX
8
0
62
5
10
0.070710678
20
0.12870253
30
0
70
32
0
SEQEND
8
0
0
POLYLINE
8
0
62
5
66
1
10
0
20
0
30
0
70
8
0
VERTEX
8
0
62
5
10
0.14142136
20
0.11485126
30
0
70
32
0
VERTEX
8
0
62
5
10
0.14142136
20
0.12870253
30
0
70
32
0
SEQEND
8
0
0
POLYLINE
8
0
62
5
66
1
10
0
20
0
30
0
70
8
0
VERTEX
8
0
62
5
10
0.21213203
20
0.11485126
30
0
70
32
0
VERTEX
8
0
62
5
10
0.21213203
20
0.12870253
30
0
70
32
0
SEQEND
8
0
0
POLYLINE
8
0
62
30
66
1
10
0
20
0
30
0
70
8
0
VERTEX
8
0
62
30
10
0
20
0.11485126
30
0
70
32
0
VERTEX
8
0
62
30
10
0
20
0.11485126
30
0
70
32
0
VERTEX
8
0
62
30
10
0
20
0.11485126
30
0
70
32
0
SEQEND
8
0
0
POLYLINE
8
0
62
30
66
1
10
0
20
0
30
0
70
8
0
VERTEX
8
0
62
30
10
0.070710678
20
0.11485126
30
0
70
32
0
VERTEX
8
0
62
30
10
0.070710678
20
0.11485126
30
0
70
32
0
VERTEX
8
0
62
30
10
0.070710678
20
0.11485126
30
0
70
32
0
SEQEND
8
0
0
POLYLINE
8
0
62
30
66
1
10
0
20
0
30
0
70
8
0
VERTEX
8
0
62
30
10
0.14142136
20
0.1033765
30
0
70
32
0
VERTEX
8
0
62
30
10
0.15118413
20
0.11485126
30
0
70
32
0
VERTEX
8
0
62
30
10
0.14142136
20
0.12632603
30
0
70
32
0
SEQEND
8
0
0
POLYLINE
8
0
62
30
66
1
10
0
20
0
30
0
70
8
0
VERTEX
8
0
62
30
10
0.21213203
20
0.1033765
30
0
70
32
0
VERTEX
8
0
62
30
10
0.22189481
20
0.11485126
30
0
70
32
0
VERTEX
8
0
62
30
10
0.21213203
20
0.12632603
30
0
70
32
0
SEQEND
8
0
0
POLYLINE
8
0
62
5
66
1
10
0
20
0
30
0
70
8
0
VERTEX
8
0
62
5
10
0.56568542
20
0.12870253
30
0
70
32
0
VERTEX
8
0
62
5
10
0.56568542
20
0.101
30
0
70
32
0
SEQEND
8
0
0
POLYLINE
8
0
62
5
66
1
10
0
20
0
30
0
70
8
0
VERTEX
8
0
62
5
10
0.28284271
20
0.11485126
30
0
70
32
0
VERTEX
8
0
62
5
10
0.35355339
20
0.11485126
30
0
70
32
0
VERTEX
8
0
62
5
10
0.42426407
20
0.1033765
30
0
70
32
0
VERTEX
8
0
62
5
10
0.49497475
20
0.1033765
30
0
70
32
0
VERTEX
8
0
62
5
10
0.56568542
20
0.11485126
30
0
70
32
0
SEQEND
8
0
0
POLYLINE
8
0
62
5
66
1
10
0
20
0
30
0
70
8
0
SEQEND
8
0
0
POLYLINE
8
0
62
5
66
1
10
0
20
0
30
0
70
8
0
VERTEX
8
0
62
5
10
0.28284271
20
0.11485126
30
0
70
32
0
VERTEX
8
0
62
5
10
0.35355339
20
0.11485126
30
0
70
32
0
VERTEX
8
0
62
5
10
0.42426407
20
0.12632603
30
0
70
32
0
VERTEX
8
0
62
5
10
0.49497475
20
0.12632603
30
0
70
32
0
VERTEX
8
0
62
5
10
0.56568542
20
0.11485126
30
0
70
32
0
SEQEND
8
0
0
POLYLINE
8
0
62
30
66
1
10
0
20
0
30
0
70
8
0
VERTEX
8
0
62
30
10
0.28284271
20
0.11485126
30
0
70
32
0
VERTEX
8
0
62
30
10
0.56568542
20
0.11485126
30
0
70
32
0
SEQEND
8
0
0
POLYLINE
8
0
62
30
66
1
10
0
20
0
30
0
70
8
0
VERTEX
8
0
62
30
10
0.35355339
20
0.11485126
30
0
70
32
0
VERTEX
8
0
62
30
10
0.35355339
20
0.11485126
30
0
70
32
0
SEQEND
8
0
0
POLYLINE
8
0
62
30
66
1
10
0
20
0
30
0
70
8
0
VERTEX
8
0
62
30
10
0.42426407
20
0.1033765
30
0
70
32
0
VERTEX
8
0
62
30
10
0.42426407
20
0.11485126
30
0
70
32
0
SEQEND
8
0
0
POLYLINE
8
0
62
30
66
1
10
0
20
0
30
0
70
8
0
VERTEX
8
0
62
30
10
0.49497475
20
0.1033765
30
0
70
32
0
VERTEX
8
0
62
30
10
0.49497475
20
0.11485126
30
0
70
32
0
SEQEND
8
0
0
POLYLINE
8
0
62
5
66
1
10
0
20
0
30
0
70
8
0
VERTEX
8
0
62
5
10
0.35355339
20
0.101
30
0
70
32
0
VERTEX
8
0
62
5
10
0.35355339
20
0.11485126
30
0
70
32
0
SEQEND
8
0
0
POLYLINE
8
0
62
5
66
1
10
0
20
0
30
0
70
8
0
VERTEX
8
0
62
5
10
0.42426407
20
0.101
30
0
70
32
0
VERTEX
8
0
62
5
10
0.42426407
20
0.1033765
30
0
70
32
0
SEQEND
8
0
0
POLYLINE
8
0
62
5
66
1
10
0
20
0
30
0
70
8
0
VERTEX
8
0
62
5
10
0.49497475
20
0.101
30
0
70
32
0
VERTEX
8
0
62
5
10
0.49497475
20
0.1033765
30
0
70
32
0
SEQEND
8
0
0
POLYLINE
8
0
62
5
66
1
10
0
20
0
30
0
70
8
0
VERTEX
8
0
62
5
10
0.35355339
20
0.11485126
30
0
70
32
0
VERTEX
8
0
62
5
10
0.35355339
20
0.12870253
30
0
70
32
0
SEQEND
8
0
0
POLYLINE
8
0
62
5
66
1
10
0
20
0
30
0
70
8
0
VERTEX
8
0
62
5
10
0.42426407
20
0.11485126
30
0
70
32
0
VERTEX
8
0
62
5
10
0.42426407
20
0.12870253
30
0
70
32
0
SEQEND
8
0
0
POLYLINE
8
0
62
5
66
1
10
0
20
0
30
0
70
8
0
VERTEX
8
0
62
5
10
0.49497475
20
0.11485126
30
0
70
32
0
VERTEX
8
0
62
5
10
0.49497475
20
0.12870253
30
0
70
32
0
SEQEND
8
0
0
POLYLINE
8
0
62
30
66
1
10
0
20
0
30
0
70
8
0
VERTEX
8
0
62
30
10
0.28284271
20
0.11485126
30
0
70
32
0
VERTEX
8
0
62
30
10
0.28284271
20
0.11485126
30
0
70
32
0
VERTEX
8
0
62
30
10
0.28284271
20
0.11485126
30
0
70
32
0
SEQEND
8
0
0
POLYLINE
8
0
62
30
66
1
10
0
20
0
30
0
70
8
0
VERTEX
8
0
62
30
10
0.35355339
20
0.11485126
30
0
70
32
0
VERTEX
8
0
62
30
10
0.35355339
20
0.11485126
30
0
70
32
0
VERTEX
8
0
62
30
10
0.35355339
20
0.11485126
30
0
70
32
0
SEQEND
8
0
0
POLYLINE
8
0
62
30
66
1
10
0
20
0
30
0
70
8
0
VERTEX
8
0
62
30
10
0.42426407
20
0.1033765
30
0
70
32
0
VERTEX
8
0
62
30
10
0.43402684
20
0.11485126
30
0
70
32
0
VERTEX
8
0
62
30
10
0.42426407
20
0.12632603
30
0
70
32
0
SEQEND
8
0
0
POLYLINE
8
0
62
30
66
1
10
0
20
0
30
0
70
8
0
VERTEX
8
0
62
30
10
0.49497475
20
0.1033765
30
0
70
32
0
VERTEX
8
0
62
30
10
0.50473752
20
0.11485126
30
0
70
32
0
VERTEX
8
0
62
30
10
0.49497475
20
0.12632603
30
0
70
32
0
SEQEND
8
0
0
POLYLINE
8
0
62
5
66
1
10
0
20
0
30
0
70
8
0
VERTEX
8
0
62
5
10
-0.28284271
20
0.101
30
0
70
32
0
VERTEX
8
0
62
5
10
-0.28284271
20
0.12870253
30
0
70
32
0
SEQEND
8
0
0
POLYLINE
8
0
62
5
66
1
10
0
20
0
30
0
70
8
0
VERTEX
8
0
62
5
10
-0.28284271
20
0.11485126
30
0
70
32
0
VERTEX
8
0
62
5
10
-0.21213203
20
0.11485126
30
0
70
32
0
VERTEX
8
0
62
5
10
-0.14142136
20
0.1033765
30
0
70
32
0
VERTEX
8
0
62
5
10
-0.070710678
20
0.1033765
30
0
70
32
0
VERTEX
8
0
62
5
10
0
20
0.11485126
30
0
70
32
0
SEQEND
8
0
0
POLYLINE
8
0
62
5
66
1
10
0
20
0
30
0
70
8
0
SEQEND
8
0
0
POLYLINE
8
0
62
5
66
1
10
0
20
0
30
0
70
8
0
VERTEX
8
0
62
5
10
-0.28284271
20
0.11485126
30
0
70
32
0
VERTEX
8
0
62
5
10
-0.21213203
20
0.11485126
30
0
70
32
0
VERTEX
8
0
62
5
10
-0.14142136
20
0.12632603
30
0
70
32
0
VERTEX
8
0
62
5
10
-0.070710678
20
0.12632603
30
0
70
32
0
VERTEX
8
0
62
5
10
0
20
0.11485126
30
0
70
32
0
SEQEND
8
0
0
POLYLINE
8
0
62
30
66
1
10
0
20
0
30
0
70
8
0
VERTEX
8
0
62
30
10
-0.28284271
20
0.11485126
30
0
70
32
0
VERTEX
8
0
62
30
10
0
20
0.11485126
30
0
70
32
0
SEQEND
8
0
0
POLYLINE
8
0
62
30
66
1
10
0
20
0
30
0
70
8
0
VERTEX
8
0
62
30
10
-0.21213203
20
0.11485126
30
0
70
32
0
VERTEX
8
0
62
30
10
-0.21213203
20
0.11485126
30
0
70
32
0
SEQEND
8
0
0
POLYLINE
8
0
62
30
66
1
10
0
20
0
30
0
70
8
0
VERTEX
8
0
62
30
10
-0.14142136
20
0.1033765
30
0
70
32
0
VERTEX
8
0
62
30
10
-0.14142136
20
0.11485126
30
0
70
32
0
SEQEND
8
0
0
POLYLINE
8
0
62
30
66
1
10
0
20
0
30
0
70
8
0
VERTEX
8
0
62
30
10
-0.070710678
20
0.1033765
30
0
70
32
0
VERTEX
8
0
62
30
10
-0.070710678
20
0.11485126
30
0
70
32
0
SEQEND
8
0
0
POLYLINE
8
0
62
5
66
1
10
0
20
0
30
0
70
8
0
VERTEX
8
0
62
5
10
-0.21213203
20
0.101
30
0
70
32
0
VERTEX
8
0
62
5
10
-0.21213203
20
0.11485126
30
0
70
32
0
SEQEND
8
0
0
POLYLINE
8
0
62
5
66
1
10
0
20
0
30
0
70
8
0
VERTEX
8
0
62
5
10
-0.14142136
20
0.101
30
0
70
32
0
VERTEX
8
0
62
5
10
-0.14142136
20
0.1033765
30
0
70
32
0
SEQEND
8
0
0
POLYLINE
8
0
62
5
66
1
10
0
20
0
30
0
70
8
0
VERTEX
8
0
62
5
10
-0.070710678
20
0.101
30
0
70
32
0
VERTEX
8
0
62
5
10
-0.070710678
20
0.1033765
30
0
70
32
0
SEQEND
8
0
0
POLYLINE
8
0
62
5
66
1
10
0
20
0
30
0
70
8
0
VERTEX
8
0
62
5
10
-0.21213203
20
0.11485126
30
0
70
32
0
VERTEX
8
0
62
5
10
-0.21213203
20
0.12870253
30
0
70
32
0
SEQEND
8
0
0
POLYLINE
8
0
62
5
66
1
10
0
20
0
30
0
70
8
0
VERTEX
8
0
62
5
10
-0.14142136
20
0.11485126
30
0
70
32
0
VERTEX
8
0
62
5
10
-0.14142136
20
0.12870253
30
0
70
32
0
SEQEND
8
0
0
POLYLINE
8
0
62
5
66
1
10
0
20
0
30
0
70
8
0
VERTEX
8
0
62
5
10
-0.070710678
20
0.11485126
30
0
70
32
0
VERTEX
8
0
62
5
10
-0.070710678
20
0.12870253
30
0
70
32
0
SEQEND
8
0
0
POLYLINE
8
0
62
30
66
1
10
0
20
0
30
0
70
8
0
VERTEX
8
0
62
30
10
-0.28284271
20
0.11485126
30
0
70
32
0
VERTEX
8
0
62
30
10
-0.28284271
20
0.11485126
30
0
70
32
0
VERTEX
8
0
62
30
10
-0.28284271
20
0.11485126
30
0
70
32
0
SEQEND
8
0
0
POLYLINE
8
0
62
30
66
1
10
0
20
0
30
0
70
8
0
VERTEX
8
0
62
30
10
-0.21213203
20
0.11485126
30
0
70
32
0
VERTEX
8
0
62
30
10
-0.21213203
20
0.11485126
30
0
70
32
0
VERTEX
8
0
62
30
10
-0.21213203
20
0.11485126
30
0
70
32
0
SEQEND
8
0
0
POLYLINE
8
0
62
30
66
1
10
0
20
0
30
0
70
8
0
VERTEX
8
0
62
30
10
-0.14142136
20
0.1033765
30
0
70
32
0
VERTEX
8
0
62
30
10
-0.13165858
20
0.11485126
30
0
70
32
0
VERTEX
8
0
62
30
10
-0.14142136
20
0.12632603
30
0
70
32
0
SEQEND
8
0
0
POLYLINE
8
0
62
30
66
1
10
0
20
0
30
0
70
8
0
VERTEX
8
0
62
30
10
-0.070710678
20
0.1033765
30
0
70
32
0
VERTEX
8
0
62
30
10
-0.060947906
20
0.11485126
30
0
70
32
0
VERTEX
8
0
62
30
10
-0.070710678
20
0.12632603
30
0
70
32
0
SEQEND
8
0
0
POLYLINE
8
0
62
5
66
1
10
0
20
0
30
0
70
8
0
VERTEX
8
0
62
5
10
0
20
0.12870253
30
0
70
32
0
VERTEX
8
0
62
5
10
0
20
0.16032531
30
0
70
32
0
SEQEND
8
0
0
POLYLINE
8
0
62
5
66
1
10
0
20
0
30
0
70
8
0
VERTEX
8
0
62
5
10
0.070710678
20
0.12870253
30
0
70
32
0
VERTEX
8
0
62
5
10
0.070710678
20
0.16032531
30
0
70
32
0
SEQEND
8
0
0
POLYLINE
8
0
62
5
66
1
10
0
20
0
30
0
70
8
0
VERTEX
8
0
62
5
10
0.14142136
20
0.12870253
30
0
70
32
0
VERTEX
8
0
62
5
10
0.14142136
20
0.16032531
30
0
70
32
0
SEQEND
8
0
0
POLYLINE
8
0
62
5
66
1
10
0
20
0
30
0
70
8
0
VERTEX
8
0
62
5
10
0.21213203
20
0.12870253
30
0
70
32
0
VERTEX
8
0
62
5
10
0.21213203
20
0.16032531
30
0
70
32
0
SEQEND
8
0
0
POLYLINE
8
0
62
5
66
1
10
0
20
0
30
0
70
8
0
VERTEX
8
0
62
5
10
0.28284271
20
0.12870253
30
0
70
32
0
VERTEX
8
0
62
5
10
0.28284271
20
0.16032531
30
0
70
32
0
SEQEND
8
0
0
POLYLINE
8
0
62
5
66
1
10
0
20
0
30
0
70
8
0
VERTEX
8
0
62
5
10
0.070710678
20
0.12870253
30
0
70
32
0
VERTEX
8
0
62
5
10
0.070710678
20
0.12870253
30
0
70
32
0
SEQEND
8
0
0
POLYLINE
8
0
62
5
66
1
10
0
20
0
30
0
70
8
0
VERTEX
8
0
62
5
10
0.14142136
20
0.12870253
30
0
70
32
0
VERTEX
8
0
62
5
10
0.14142136
20
0.12870253
30
0
70
32
0
SEQEND
8
0
0
POLYLINE
8
0
62
5
66
1
10
0
20
0
30
0
70
8
0
VERTEX
8
0
62
5
10
0.21213203
20
0.12870253
30
0
70
32
0
VERTEX
8
0
62
5
10
0.21213203
20
0.12870253
30
0
70
32
0
SEQEND
8
0
0
POLYLINE
8
0
62
5
66
1
10
0
20
0
30
0
70
8
0
VERTEX
8
0
62
5
10
0.070710678
20
0.16032531
30
0
70
32
0
VERTEX
8
0
62
5
10
0.070710678
20
0.16032531
30
0
70
32
0
SEQEND
8
0
0
POLYLINE
8
0
62
5
66
1
10
0
20
0
30
0
70
8
0
VERTEX
8
0
62
5
10
0.14142136
20
0.16032531
30
0
70
32
0
VERTEX
8
0
62
5
10
0.14142136
20
0.16032531
30
0
70
32
0
SEQEND
8
0
0
POLYLINE
8
0
62
5
66
1
10
0
20
0
30
0
70
8
0
VERTEX
8
0
62
5
10
0.21213203
20
0.16032531
30
0
70
32
0
VERTEX
8
0
62
5
10
0.21213203
20
0.16032531
30
0
70
32
0
SEQEND
8
0
0
POLYLINE
8
0
62
5
66
1
10
0
20
0
30
0
70
8
0
VERTEX
8
0
62
5
10
0.28284271
20
0.16032531
30
0
70
32
0
VERTEX
8
0
62
5
10
0.28284271
20
0.16032531
30
0
70
32
0
SEQEND
8
0
0
POLYLINE
8
0
62
5
66
1
10
0
20
0
30
0
70
8
0
VERTEX
8
0
62
5
10
0.35355339
20
0.12870253
30
0
70
32
0
VERTEX
8
0
62
5
10
0.35355339
20
0.16032531
30
0
70
32
0
SEQEND
8
0
0
POLYLINE
8
0
62
5
66
1
10
0
20
0
30
0
70
8
0
VERTEX
8
0
62
5
10
0.42426407
20
0.12870253
30
0
70
32
0
VERTEX
8
0
62
5
10
0.42426407
20
0.16032531
30
0
70
32
0
SEQEND
8
0
0
POLYLINE
8
0
62
5
66
1
10
0
20
0
30
0
70
8
0
VERTEX
8
0
62
5
10
0.49497475
20
0.12870253
30
0
70
32
0
VERTEX
8
0
62
5
10
0.49497475
20
0.16032531
30
0
70
32
0
SEQEND
8
0
0
POLYLINE
8
0
62
5
66
1
10
0
20
0
30
0
70
8
0
VERTEX
8
0
62
5
10
0.56568542
20
0.12870253
30
0
70
32
0
VERTEX
8
0
62
5
10
0.56568542
20
0.16032531
30
0
70
32
0
SEQEND
8
0
0
POLYLINE
8
0
62
5
66
1
10
0
20
0
30
0
70
8
0
VERTEX
8
0
62
5
10
0.35355339
20
0.12870253
30
0
70
32
0
VERTEX
8
0
62
5
10
0.35355339
20
0.12870253
30
0
70
32
0
SEQEND
8
0
0
POLYLINE
8
0
62
5
66
1
10
0
20
0
30
0
70
8
0
VERTEX
8
0
62
5
10
0.42426407
20
0.12870253
30
0
70
32
0
VERTEX
8
0
62
5
10
0.42426407
20
0.12870253
30
0
70
32
0
SEQEND
8
0
0
POLYLINE
8
0
62
5
66
1
10
0
20
0
30
0
70
8
0
VERTEX
8
0
62
5
10
0.49497475
20
0.12870253
30
0
70
32
0
VERTEX
8
0
62
5
10
0.49497475
20
0.12870253
30
0
70
32
0
SEQEND
8
0
0
POLYLINE
8
0
62
5
66
1
10
0
20
0
30
0
70
8
0
VERTEX
8
0
62
5
10
0.35355339
20
0.16032531
30
0
70
32
0
VERTEX
8
0
62
5
10
0.35355339
20
0.16032531
30
0
70
32
0
SEQEND
8
0
0
POLYLINE
8
0
62
5
66
1
10
0
20
0
30
0
70
8
0
VERTEX
8
0
62
5
10
0.42426407
20
0.16032531
30
0
70
32
0
VERTEX
8
0
62
5
10
0.42426407
20
0.16032531
30
0
70
32
0
SEQEND
8
0
0
POLYLINE
8
0
62
5
66
1
10
0
20
0
30
0
70
8
0
VERTEX
8
0
62
5
10
0.49497475
20
0.16032531
30
0
70
32
0
VERTEX
8
0
62
5
10
0.49497475
20
0.16032531
30
0
70
32
0
SEQEND
8
0
0
POLYLINE
8
0
62
5
66
1
10
0
20
0
30
0
70
8
0
VERTEX
8
0
62
5
10
0.56568542
20
0.16032531
30
0
70
32
0
VERTEX
8
0
62
5
10
0.56568542
20
0.16032531
30
0
70
32
0
SEQEND
8
0
0
POLYLINE
8
0
62
5
66
1
10
0
20
0
30
0
70
8
0
VERTEX
8
0
62
5
10
-0.21213203
20
0.12870253
30
0
70
32
0
VERTEX
8
0
62
5
10
-0.21213203
20
0.16032531
30
0
70
32
0
SEQEND
8
0
0
POLYLINE
8
0
62
5
66
1
10
0
20
0
30
0
70
8
0
VERTEX
8
0
62
5
10
-0.14142136
20
0.12870253
30
0
70
32
0
VERTEX
8
0
62
5
10
-0.14142136
20
0.16032531
30
0
70
32
0
SEQEND
8
0
0
POLYLINE
8
0
62
5
66
1
10
0
20
0
30
0
70
8
0
VERTEX
8
0
62
5
10
-0.070710678
20
0.12870253
30
0
70
32
0
VERTEX
8
0
62
5
10
-0.070710678
20
0.16032531
30
0
70
32
0
SEQEND
8
0
0
POLYLINE
8
0
62
5
66
1
10
0
20
0
30
0
70
8
0
VERTEX
8
0
62
5
10
0
20
0.12870253
30
0
70
32
0
VERTEX
8
0
62
5
10
0
20
0.16032531
30
0
70
32
0
SEQEND
8
0
0
POLYLINE
8
0
62
5
66
1
10
0
20
0
30
0
70
8
0
VERTEX
8
0
62
5
10
-0.21213203
20
0.12870253
30
0
70
32
0
VERTEX
8
0
62
5
10
-0.21213203
20
0.12870253
30
0
70
32
0
SEQEND
8
0
0
POLYLINE
8
0
62
5
66
1
10
0
20
0
30
0
70
8
0
VERTEX
8
0
62
5
10
-0.14142136
20
0.12870253
30
0
70
32
0
VERTEX
8
0
62
5
10
-0.14142136
20
0.12870253
30
0
70
32
0
SEQEND
8
0
0
POLYLINE
8
0
62
5
66
1
10
0
20
0
30
0
70
8
0
VERTEX
8
0
62
5
10
-0.070710678
20
0.12870253
30
0
70
32
0
VERTEX
8
0
62
5
10
-0.070710678
20
0.12870253
30
0
70
32
0
SEQEND
8
0
0
POLYLINE
8
0
62
5
66
1
10
0
20
0
30
0
70
8
0
VERTEX
8
0
62
5
10
-0.21213203
20
0.16032531
30
0
70
32
0
VERTEX
8
0
62
5
10
-0.21213203
20
0.16032531
30
0
70
32
0
SEQEND
8
0
0
POLYLINE
8
0
62
5
66
1
10
0
20
0
30
0
70
8
0
VERTEX
8
0
62
5
10
-0.14142136
20
0.16032531
30
0
70
32
0
VERTEX
8
0
62
5
10
-0.14142136
20
0.16032531
30
0
70
32
0
SEQEND
8
0
0
POLYLINE
8
0
62
5
66
1
10
0
20
0
30
0
70
8
0
VERTEX
8
0
62
5
10
-0.070710678
20
0.16032531
30
0
70
32
0
VERTEX
8
0
62
5
10
-0.070710678
20
0.16032531
30
0
70
32
0
SEQEND
8
0
0
POLYLINE
8
0
62
5
66
1
10
0
20
0
30
0
70
8
0
VERTEX
8
0
62
5
10
-4.2810755e-12
20
0.16032531
30
0
70
32
0
VERTEX
8
0
62
5
10
-4.2810755e-12
20
0.16032531
30
0
70
32
0
SEQEND
8
0
0
POLYLINE
8
0
62
5
66
1
10
0
20
0
30
0
70
8
0
VERTEX
8
0
62
5
10
-4.2810477e-12
20
0.16032531
30
0
70
32
0
VERTEX
8
0
62
5
10
-4.2810477e-12
20
0.28681641
30
0
70
32
0
SEQEND
8
0
0
POLYLINE
8
0
62
5
66
1
10
0
20
0
30
0
70
8
0
VERTEX
8
0
62
5
10
0.28284271
20
0.16032531
30
0
70
32
0
VERTEX
8
0
62
5
10
0.28284271
20
0.28681641
30
0
70
32
0
SEQEND
8
0
0
POLYLINE
8
0
62
5
66
1
10
0
20
0
30
0
70
8
0
VERTEX
8
0
62
5
10
0.070710678
20
0.16032531
30
0
70
32
0
VERTEX
8
0
62
5
10
0.070710678
20
0.28681641
30
0
70
32
0
SEQEND
8
0
0
POLYLINE
8
0
62
5
66
1
10
0
20
0
30
0
70
8
0
VERTEX
8
0
62
5
10
0.14142136
20
0.16032531
30
0
70
32
0
VERTEX
8
0
62
5
10
0.14142136
20
0.28681641
30
0
70
32
0
SEQEND
8
0
0
POLYLINE
8
0
62
5
66
1
10
0
20
0
30
0
70
8
0
VERTEX
8
0
62
5
10
0.21213203
20
0.16032531
30
0
70
32
0
VERTEX
8
0
62
5
10
0.21213203
20
0.28681641
30
0
70
32
0
SEQEND
8
0
0
POLYLINE
8
0
62
5
66
1
10
0
20
0
30
0
70
8
0
VERTEX
8
0
62
5
10
0.56568542
20
0.16032531
30
0
70
32
0
VERTEX
8
0
62
5
10
0.56568542
20
0.28681641
30
0
70
32
0
SEQEND
8
0
0
POLYLINE
8
0
62
5
66
1
10
0
20
0
30
0
70
8
0
VERTEX
8
0
62
5
10
0.35355339
20
0.16032531
30
0
70
32
0
VERTEX
8
0
62
5
10
0.35355339
20
0.28681641
30
0
70
32
0
SEQEND
8
0
0
POLYLINE
8
0
62
5
66
1
10
0
20
0
30
0
70
8
0
VERTEX
8
0
62
5
10
0.42426407
20
0.16032531
30
0
70
32
0
VERTEX
8
0
62
5
10
0.42426407
20
0.28681641
30
0
70
32
0
SEQEND
8
0
0
POLYLINE
8
0
62
5
66
1
10
0
20
0
30
0
70
8
0
VERTEX
8
0
62
5
10
0.49497475
20
0.16032531
30
0
70
32
0
VERTEX
8
0
62
5
10
0.49497475
20
0.28681641
30
0
70
32
0
SEQEND
8
0
0
POLYLINE
8
0
62
5
66
1
10
0
20
0
30
0
70
8
0
VERTEX
8
0
62
5
10
-0.28284271
20
0.16032531
30
0
70
32
0
VERTEX
8
0
62
5
10
-0.28284271
20
0.28681641
30
0
70
32
0
SEQEND
8
0
0
POLYLINE
8
0
62
5
66
1
10
0
20
0
30
0
70
8
0
VERTEX
8
0
62
5
10
-0.21213203
20
0.16032531
30
0
70
32
0
VERTEX
8
0
62
5
10
-0.21213203
20
0.28681641
30
0
70
32
0
SEQEND
8
0
0
POLYLINE
8
0
62
5
66
1
10
0
20
0
30
0
70
8
0
VERTEX
8
0
62
5
10
-0.14142136
20
0.16032531
30
0
70
32
0
VERTEX
8
0
62
5
10
-0.14142136
20
0.28681641
30
0
70
32
0
SEQEND
8
0
0
POLYLINE
8
0
62
5
66
1
10
0
20
0
30
0
70
8
0
VERTEX
8
0
62
5
10
-0.070710678
20
0.16032531
30
0
70
32
0
VERTEX
8
0
62
5
10
-0.070710678
20
0.28681641
30
0
70
32
0
SEQEND
8
0
0
POLYLINE
8
0
62
5
66
1
10
0
20
0
30
0
70
8
0
VERTEX
8
0
62
5
10
-4.2810477e-12
20
0.28681641
30
0
70
32
0
VERTEX
8
0
62
5
10
-4.2810477e-12
20
0.40985771
30
0
70
32
0
SEQEND
8
0
0
POLYLINE
8
0
62
5
66
1
10
0
20
0
30
0
70
8
0
VERTEX
8
0
62
5
10
0.28284271
20
0.40985771
30
0
70
32
0
VERTEX
8
0
62
5
10
0.28284271
20
0.28681641
30
0
70
32
0
SEQEND
8
0
0
POLYLINE
8
0
62
5
66
1
10
0
20
0
30
0
70
8
0
VERTEX
8
0
62
5
10
-4.2810477e-12
20
0.34833706
30
0
70
32
0
VERTEX
8
0
62
5
10
0.070710678
20
0.34833706
30
0
70
32
0
VERTEX
8
0
62
5
10
0.14142136
20
0.29737169
30
0
70
32
0
VERTEX
8
0
62
5
10
0.21213203
20
0.29737169
30
0
70
32
0
VERTEX
8
0
62
5
10
0.28284271
20
0.34833706
30
0
70
32
0
SEQEND
8
0
0
POLYLINE
8
0
62
5
66
1
10
0
20
0
30
0
70
8
0
SEQEND
8
0
0
POLYLINE
8
0
62
5
66
1
10
0
20
0
30
0
70
8
0
VERTEX
8
0
62
5
10
-4.2810477e-12
20
0.34833706
30
0
70
32
0
VERTEX
8
0
62
5
10
0.070710678
20
0.34833706
30
0
70
32
0
VERTEX
8
0
62
5
10
0.14142136
20
0.39930243
30
0
70
32
0
VERTEX
8
0
62
5
10
0.21213203
20
0.39930243
30
0
70
32
0
VERTEX
8
0
62
5
10
0.28284271
20
0.34833706
30
0
70
32
0
SEQEND
8
0
0
POLYLINE
8
0
62
30
66
1
10
0
20
0
30
0
70
8
0
VERTEX
8
0
62
30
10
-4.2810477e-12
20
0.34833706
30
0
70
32
0
VERTEX
8
0
62
30
10
0.28284271
20
0.34833706
30
0
70
32
0
SEQEND
8
0
0
POLYLINE
8
0
62
30
66
1
10
0
20
0
30
0
70
8
0
VERTEX
8
0
62
30
10
0.070710678
20
0.34833706
30
0
70
32
0
VERTEX
8
0
62
30
10
0.070710678
20
0.34833706
30
0
70
32
0
SEQEND
8
0
0
POLYLINE
8
0
62
30
66
1
10
0
20
0
30
0
70
8
0
VERTEX
8
0
62
30
10
0.14142136
20
0.29737169
30
0
70
32
0
VERTEX
8
0
62
30
10
0.14142136
20
0.34833706
30
0
70
32
0
SEQEND
8
0
0
POLYLINE
8
0
62
30
66
1
10
0
20
0
30
0
70
8
0
VERTEX
8
0
62
30
10
0.21213203
20
0.29737169
30
0
70
32
0
VERTEX
8
0
62
30
10
0.21213203
20
0.34833706
30
0
70
32
0
SEQEND
8
0
0
POLYLINE
8
0
62
5
66
1
10
0
20
0
30
0
70
8
0
VERTEX
8
0
62
5
10
0.070710678
20
0.28681641
30
0
70
32
0
VERTEX
8
0
62
5
10
0.070710678
20
0.34833706
30
0
70
32
0
SEQEND
8
0
0
POLYLINE
8
0
62
5
66
1
10
0
20
0
30
0
70
8
0
VERTEX
8
0
62
5
10
0.14142136
20
0.28681641
30
0
70
32
0
VERTEX
8
0
62
5
10
0.14142136
20
0.29737169
30
0
70
32
0
SEQEND
8
0
0
POLYLINE
8
0
62
5
66
1
10
0
20
0
30
0
70
8
0
VERTEX
8
0
62
5
10
0.21213203
20
0.28681641
30
0
70
32
0
VERTEX
8
0
62
5
10
0.21213203
20
0.29737169
30
0
70
32
0
SEQEND
8
0
0
POLYLINE
8
0
62
5
66
1
10
0
20
0
30
0
70
8
0
VERTEX
8
0
62
5
10
0.070710678
20
0.34833706
30
0
70
32
0
VERTEX
8
0
62
5
10
0.070710678
20
0.40985771
30
0
70
32
0
SEQEND
8
0
0
POLYLINE
8
0
62
5
66
1
10
0
20
0
30
0
70
8
0
VERTEX
8
0
62
5
10
0.14142136
20
0.34833706
30
0
70
32
0
VERTEX
8
0
62
5
10
0.14142136
20
0.40985771
30
0
70
32
0
SEQEND
8
0
0
POLYLINE
8
0
62
5
66
1
10
0
20
0
30
0
70
8
0
VERTEX
8
0
62
5
10
0.21213203
20
0.34833706
30
0
70
32
0
VERTEX
8
0
62
5
10
0.21213203
20
0.40985771
30
0
70
32
0
SEQEND
8
0
0
POLYLINE
8
0
62
30
66
1
10
0
20
0
30
0
70
8
0
VERTEX
8
0
62
30
10
-4.2810477e-12
20
0.34833706
30
0
70
32
0
VERTEX
8
0
62
30
10
1.0109235e-11
20
0.34833706
30
0
70
32
0
VERTEX
8
0
62
30
10
-4.2810477e-12
20
0.34833706
30
0
70
32
0
SEQEND
8
0
0
POLYLINE
8
0
62
30
66
1
10
0
20
0
30
0
70
8
0
VERTEX
8
0
62
30
10
0.070710678
20
0.34833706
30
0
70
32
0
VERTEX
8
0
62
30
10
0.070710678
20
0.34833706
30
0
70
32
0
VERTEX
8
0
62
30
10
0.070710678
20
0.34833706
30
0
70
32
0
SEQEND
8
0
0
POLYLINE
8
0
62
30
66
1
10
0
20
0
30
0
70
8
0
VERTEX
8
0
62
30
10
0.14142136
20
0.29737169
30
0
70
32
0
VERTEX
8
0
62
30
10
0.16751146
20
0.34833706
30
0
70
32
0
VERTEX
8
0
62
30
10
0.14142136
20
0.39930243
30
0
70
32
0
SEQEND
8
0
0
POLYLINE
8
0
62
30
66
1
10
0
20
0
30
0
70
8
0
VERTEX
8
0
62
30
10
0.21213203
20
0.29737169
30
0
70
32
0
VERTEX
8
0
62
30
10
0.23822214
20
0.34833706
30
0
70
32
0
VERTEX
8
0
62
30
10
0.21213203
20
0.39930243
30
0
70
32
0
SEQEND
8
0
0
POLYLINE
8
0
62
5
66
1
10
0
20
0
30
0
70
8
0
VERTEX
8
0
62
5
10
0.56568542
20
0.40985771
30
0
70
32
0
VERTEX
8
0
62
5
10
0.56568542
20
0.28681641
30
0
70
32
0
SEQEND
8
0
0
POLYLINE
8
0
62
5
66
1
10
0
20
0
30
0
70
8
0
VERTEX
8
0
62
5
10
0.28284271
20
0.34833706
30
0
70
32
0
VERTEX
8
0
62
5
10
0.35355339
20
0.34833706
30
0
70
32
0
VERTEX
8
0
62
5
10
0.42426407
20
0.29737169
30
0
70
32
0
VERTEX
8
0
62
5
10
0.49497475
20
0.29737169
30
0
70
32
0
VERTEX
8
0
62
5
10
0.56568542
20
0.34833706
30
0
70
32
0
SEQEND
8
0
0
POLYLINE
8
0
62
5
66
1
10
0
20
0
30
0
70
8
0
SEQEND
8
0
0
POLYLINE
8
0
62
5
66
1
10
0
20
0
30
0
70
8
0
VERTEX
8
0
62
5
10
0.28284271
20
0.34833706
30
0
70
32
0
VERTEX
8
0
62
5
10
0.35355339
20
0.34833706
30
0
70
32
0
VERTEX
8
0
62
5
10
0.42426407
20
0.39930243
30
0
70
32
0
VERTEX
8
0
62
5
10
0.49497475
20
0.39930243
30
0
70
32
0
VERTEX
8
0
62
5
10
0.56568542
20
0.34833706
30
0
70
32
0
SEQEND
8
0
0
POLYLINE
8
0
62
30
66
1
10
0
20
0
30
0
70
8
0
VERTEX
8
0
62
30
10
0.28284271
20
0.34833706
30
0
70
32
0
VERTEX
8
0
62
30
10
0.56568542
20
0.34833706
30
0
70
32
0
SEQEND
8
0
0
POLYLINE
8
0
62
30
66
1
10
0
20
0
30
0
70
8
0
VERTEX
8
0
62
30
10
0.35355339
20
0.34833706
30
0
70
32
0
VERTEX
8
0
62
30
10
0.35355339
20
0.34833706
30
0
70
32
0
SEQEND
8
0
0
POLYLINE
8
0
62
30
66
1
10
0
20
0
30
0
70
8
0
VERTEX
8
0
62
30
10
0.42426407
20
0.29737169
30
0
70
32
0
VERTEX
8
0
62
30
10
0.42426407
20
0.34833706
30
0
70
32
0
SEQEND
8
0
0
POLYLINE
8
0
62
30
66
1
10
0
20
0
30
0
70
8
0
VERTEX
8
0
62
30
10
0.49497475
20
0.29737169
30
0
70
32
0
VERTEX
8
0
62
30
10
0.49497475
20
0.34833706
30
0
70
32
0
SEQEND
8
0
0
POLYLINE
8
0
62
5
66
1
10
0
20
0
30
0
70
8
0
VERTEX
8
0
62
5
10
0.35355339
20
0.28681641
30
0
70
32
0
VERTEX
8
0
62
5
10
0.35355339
20
0.34833706
30
0
70
32
0
SEQEND
8
0
0
POLYLINE
8
0
62
5
66
1
10
0
20
0
30
0
70
8
0
VERTEX
8
0
62
5
10
0.42426407
20
0.28681641
30
0
70
32
0
VERTEX
8
0
62
5
10
0.42426407
20
0.29737169
30
0
70
32
0
SEQEND
8
0
0
POLYLINE
8
0
62
5
66
1
10
0
20
0
30
0
70
8
0
VERTEX
8
0
62
5
10
0.49497475
20
0.28681641
30
0
70
32
0
VERTEX
8
0
62
5
10
0.49497475
20
0.29737169
30
0
70
32
0
SEQEND
8
0
0
POLYLINE
8
0
62
5
66
1
10
0
20
0
30
0
70
8
0
VERTEX
8
0
62
5
10
0.35355339
20
0.34833706
30
0
70
32
0
VERTEX
8
0
62
5
10
0.35355339
20
0.40985771
30
0
70
32
0
SEQEND
8
0
0
POLYLINE
8
0
62
5
66
1
10
0
20
0
30
0
70
8
0
VERTEX
8
0
62
5
10
0.42426407
20
0.34833706
30
0
70
32
0
VERTEX
8
0
62
5
10
0.42426407
20
0.40985771
30
0
70
32
0
SEQEND
8
0
0
POLYLINE
8
0
62
5
66
1
10
0
20
0
30
0
70
8
0
VERTEX
8
0
62
5
10
0.49497475
20
0.34833706
30
0
70
32
0
VERTEX
8
0
62
5
10
0.49497475
20
0.40985771
30
0
70
32
0
SEQEND
8
0
0
POLYLINE
8
0
62
30
66
1
10
0
20
0
30
0
70
8
0
VERTEX
8
0
62
30
10
0.28284271
20
0.34833706
30
0
70
32
0
VERTEX
8
0
62
30
10
0.28284271
20
0.34833706
30
0
70
32
0
VERTEX
8
0
62
30
10
0.28284271
20
0.34833706
30
0
70
32
0
SEQEND
8
0
0
POLYLINE
8
0
62
30
66
1
10
0
20
0
30
0
70
8
0
VERTEX
8
0
62
30
10
0.35355339
20
0.34833706
30
0
70
32
0
VERTEX
8
0
62
30
10
0.35355339
20
0.34833706
30
0
70
32
0
VERTEX
8
0
62
30
10
0.35355339
20
0.34833706
30
0
70
32
0
SEQEND
8
0
0
POLYLINE
8
0
62
30
66
1
10
0
20
0
30
0
70
8
0
VERTEX
8
0
62
30
10
0.42426407
20
0.29737169
30
0
70
32
0
VERTEX
8
0
62
30
10
0.45035418
20
0.34833706
30
0
70
32
0
VERTEX
8
0
62
30
10
0.42426407
20
0.39930243
30
0
70
32
0
SEQEND
8
0
0
POLYLINE
8
0
62
30
66
1
10
0
20
0
30
0
70
8
0
VERTEX
8
0
62
30
10
0.49497475
20
0.29737169
30
0
70
32
0
VERTEX
8
0
62
30
10
0.52106485
20
0.34833706
30
0
70
32
0
VERTEX
8
0
62
30
10
0.49497475
20
0.39930243
30
0
70
32
0
SEQEND
8
0
0
POLYLINE
8
0
62
5
66
1
10
0
20
0
30
0
70
8
0
VERTEX
8
0
62
5
10
-0.28284271
20
0.28681641
30
0
70
32
0
VERTEX
8
0
62
5
10
-0.28284271
20
0.40985771
30
0
70
32
0
SEQEND
8
0
0
POLYLINE
8
0
62
5
66
1
10
0
20
0
30
0
70
8
0
VERTEX
8
0
62
5
10
-0.28284271
20
0.34833706
30
0
70
32
0
VERTEX
8
0
62
5
10
-0.21213203
20
0.34833706
30
0
70
32
0
VERTEX
8
0
62
5
10
-0.14142136
20
0.29737169
30
0
70
32
0
VERTEX
8
0
62
5
10
-0.070710678
20
0.29737169
30
0
70
32
0
VERTEX
8
0
62
5
10
-4.2810755e-12
20
0.34833706
30
0
70
32
0
SEQEND
8
0
0
POLYLINE
8
0
62
5
66
1
10
0
20
0
30
0
70
8
0
SEQEND
8
0
0
POLYLINE
8
0
62
5
66
1
10
0
20
0
30
0
70
8
0
VERTEX
8
0
62
5
10
-0.28284271
20
0.34833706
30
0
70
32
0
VERTEX
8
0
62
5
10
-0.21213203
20
0.34833706
30
0
70
32
0
VERTEX
8
0
62
5
10
-0.14142136
20
0.39930243
30
0
70
32
0
VERTEX
8
0
62
5
10
-0.070710678
20
0.39930243
30
0
70
32
0
VERTEX
8
0
62
5
10
-4.2810755e-12
20
0.34833706
30
0
70
32
0
SEQEND
8
0
0
POLYLINE
8
0
62
30
66
1
10
0
20
0
30
0
70
8
0
VERTEX
8
0
62
30
10
-0.28284271
20
0.34833706
30
0
70
32
0
VERTEX
8
0
62
30
10
-4.2810755e-12
20
0.34833706
30
0
70
32
0
SEQEND
8
0
0
POLYLINE
8
0
62
30
66
1
10
0
20
0
30
0
70
8
0
VERTEX
8
0
62
30
10
-0.21213203
20
0.34833706
30
0
70
32
0
VERTEX
8
0
62
30
10
-0.21213203
20
0.34833706
30
0
70
32
0
SEQEND
8
0
0
POLYLINE
8
0
62
30
66
1
10
0
20
0
30
0
70
8
0
VERTEX
8
0
62
30
10
-0.14142136
20
0.29737169
30
0
70
32
0
VERTEX
8
0
62
30
10
-0.14142136
20
0.34833706
30
0
70
32
0
SEQEND
8
0
0
POLYLINE
8
0
62
30
66
1
10
0
20
0
30
0
70
8
0
VERTEX
8
0
62
30
10
-0.070710678
20
0.29737169
30
0
70
32
0
VERTEX
8
0
62
30
10
-0.070710678
20
0.34833706
30
0
70
32
0
SEQEND
8
0
0
POLYLINE
8
0
62
5
66
1
10
0
20
0
30
0
70
8
0
VERTEX
8
0
62
5
10
-0.21213203
20
0.28681641
30
0
70
32
0
VERTEX
8
0
62
5
10
-0.21213203
20
0.34833706
30
0
70
32
0
SEQEND
8
0
0
POLYLINE
8
0
62
5
66
1
10
0
20
0
30
0
70
8
0
VERTEX
8
0
62
5
10
-0.14142136
20
0.28681641
30
0
70
32
0
VERTEX
8
0
62
5
10
-0.14142136
20
0.29737169
30
0
70
32
0
SEQEND
8
0
0
POLYLINE
8
0
62
5
66
1
10
0
20
0
30
0
70
8
0
VERTEX
8
0
62
5
10
-0.070710678
20
0.28681641
30
0
70
32
0
VERTEX
8
0
62
5
10
-0.070710678
20
0.29737169
30
0
70
32
0
SEQEND
8
0
0
POLYLINE
8
0
62
5
66
1
10
0
20
0
30
0
70
8
0
VERTEX
8
0
62
5
10
-0.21213203
20
0.34833706
30
0
70
32
0
VERTEX
8
0
62
5
10
-0.21213203
20
0.40985771
30
0
70
32
0
SEQEND
8
0
0
POLYLINE
8
0
62
5
66
1
10
0
20
0
30
0
70
8
0
VERTEX
8
0
62
5
10
-0.14142136
20
0.34833706
30
0
70
32
0
VERTEX
8
0
62
5
10
-0.14142136
20
0.40985771
30
0
70
32
0
SEQEND
8
0
0
POLYLINE
8
0
62
5
66
1
10
0
20
0
30
0
70
8
0
VERTEX
8
0
62
5
10
-0.070710678
20
0.34833706
30
0
70
32
0
VERTEX
8
0
62
5
10
-0.070710678
20
0.40985771
30
0
70
32
0
SEQEND
8
0
0
POLYLINE
8
0
62
30
66
1
10
0
20
0
30
0
70
8
0
VERTEX
8
0
62
30
10
-0.28284271
20
0.34833706
30
0
70
32
0
VERTEX
8
0
62
30
10
-0.28284271
20
0.34833706
30
0
70
32
0
VERTEX
8
0
62
30
10
-0.28284271
20
0.34833706
30
0
70
32
0
SEQEND
8
0
0
POLYLINE
8
0
62
30
66
1
10
0
20
0
30
0
70
8
0
VERTEX
8
0
62
30
10
-0.21213203
20
0.34833706
30
0
70
32
0
VERTEX
8
0
62
30
10
-0.21213203
20
0.34833706
30
0
70
32
0
VERTEX
8
0
62
30
10
-0.21213203
20
0.34833706
30
0
70
32
0
SEQEND
8
0
0
POLYLINE
8
0
62
30
66
1
10
0
20
0
30
0
70
8
0
VERTEX
8
0
62
30
10
-0.14142136
20
0.29737169
30
0
70
32
0
VERTEX
8
0
62
30
10
-0.11533125
20
0.34833706
30
0
70
32
0
VERTEX
8
0
62
30
10
-0.14142136
20
0.39930243
30
0
70
32
0
SEQEND
8
0
0
POLYLINE
8
0
62
30
66
1
10
0
20
0
30
0
70
8
0
VERTEX
8
0
62
30
10
-0.070710678
20
0.29737169
30
0
70
32
0
VERTEX
8
0
62
30
10
-0.044620571
20
0.34833706
30
0
70
32
0
VERTEX
8
0
62
30
10
-0.070710678
20
0.39930243
30
0
70
32
0
SEQEND
8
0
0
POLYLINE
8
0
62
5
66
1
10
0
20
0
30
0
70
8
0
VERTEX
8
0
62
5
10
-4.2810477e-12
20
0.40985771
30
0
70
32
0
VERTEX
8
0
62
5
10
-4.2810477e-12
20
0.41085771
30
0
70
32
0
SEQEND
8
0
0
POLYLINE
8
0
62
5
66
1
10
0
20
0
30
0
70
8
0
VERTEX
8
0
62
5
10
0.28284271
20
0.40985771
30
0
70
32
0
VERTEX
8
0
62
5
10
0.28284271
20
0.41085771
30
0
70
32
0
SEQEND
8
0
0
POLYLINE
8
0
62
5
66
1
10
0
20
0
30
0
70
8
0
VERTEX
8
0
62
5
10
0.070710678
20
0.40985771
30
0
70
32
0
VERTEX
8
0
62
5
10
0.070710678
20
0.41085771
30
0
70
32
0
SEQEND
8
0
0
POLYLINE
8
0
62
5
66
1
10
0
20
0
30
0
70
8
0
VERTEX
8
0
62
5
10
0.14142136
20
0.40985771
30
0
70
32
0
VERTEX
8
0
62
5
10
0.14142136
20
0.41085771
30
0
70
32
0
SEQEND
8
0
0
POLYLINE
8
0
62
5
66
1
10
0
20
0
30
0
70
8
0
VERTEX
8
0
62
5
10
0.21213203
20
0.40985771
30
0
70
32
0
VERTEX
8
0
62
5
10
0.21213203
20
0.41085771
30
0
70
32
0
SEQEND
8
0
0
POLYLINE
8
0
62
5
66
1
10
0
20
0
30
0
70
8
0
VERTEX
8
0
62
5
10
0.56568542
20
0.40985771
30
0
70
32
0
VERTEX
8
0
62
5
10
0.56568542
20
0.41085771
30
0
70
32
0
SEQEND
8
0
0
POLYLINE
8
0
62
5
66
1
10
0
20
0
30
0
70
8
0
VERTEX
8
0
62
5
10
0.35355339
20
0.40985771
30
0
70
32
0
VERTEX
8
0
62
5
10
0.35355339
20
0.41085771
30
0
70
32
0
SEQEND
8
0
0
POLYLINE
8
0
62
5
66
1
10
0
20
0
30
0
70
8
0
VERTEX
8
0
62
5
10
0.42426407
20
0.40985771
30
0
70
32
0
VERTEX
8
0
62
5
10
0.42426407
20
0.41085771
30
0
70
32
0
SEQEND
8
0
0
POLYLINE
8
0
62
5
66
1
10
0
20
0
30
0
70
8
0
VERTEX
8
0
62
5
10
0.49497475
20
0.40985771
30
0
70
32
0
VERTEX
8
0
62
5
10
0.49497475
20
0.41085771
30
0
70
32
0
SEQEND
8
0
0
POLYLINE
8
0
62
5
66
1
10
0
20
0
30
0
70
8
0
VERTEX
8
0
62
5
10
-0.28284271
20
0.40985771
30
0
70
32
0
VERTEX
8
0
62
5
10
-0.28284271
20
0.41085771
30
0
70
32
0
SEQEND
8
0
0
POLYLINE
8
0
62
5
66
1
10
0
20
0
30
0
70
8
0
VERTEX
8
0
62
5
10
-0.21213203
20
0.40985771
30
0
70
32
0
VERTEX
8
0
62
5
10
-0.21213203
20
0.41085771
30
0
70
32
0
SEQEND
8
0
0
POLYLINE
8
0
62
5
66
1
10
0
20
0
30
0
70
8
0
VERTEX
8
0
62
5
10
-0.14142136
20
0.40985771
30
0
70
32
0
VERTEX
8
0
62
5
10
-0.14142136
20
0.41085771
30
0
70
32
0
SEQEND
8
0
0
POLYLINE
8
0
62
5
66
1
10
0
20
0
30
0
70
8
0
VERTEX
8
0
62
5
10
-0.070710678
20
0.40985771
30
0
70
32
0
VERTEX
8
0
62
5
10
-0.070710678
20
0.41085771
30
0
70
32
0
SEQEND
8
0
0
POLYLINE
8
0
62
5
66
1
10
0
20
0
30
0
70
8
0
VERTEX
8
0
62
5
10
-4.2810477e-12
20
0.41085771
30
0
70
32
0
VERTEX
8
0
62
5
10
-4.2810477e-12
20
0.533899
30
0
70
32
0
SEQEND
8
0
0
POLYLINE
8
0
62
5
66
1
10
0
20
0
30
0
70
8
0
VERTEX
8
0
62
5
10
0.28284271
20
0.533899
30
0
70
32
0
VERTEX
8
0
62
5
10
0.28284271
20
0.41085771
30
0
70
32
0
SEQEND
8
0
0
POLYLINE
8
0
62
5
66
1
10
0
20
0
30
0
70
8
0
VERTEX
8
0
62
5
10
-4.2810477e-12
20
0.47237836
30
0
70
32
0
VERTEX
8
0
62
5
10
0.070710678
20
0.47237836
30
0
70
32
0
VERTEX
8
0
62
5
10
0.14142136
20
0.42141298
30
0
70
32
0
VERTEX
8
0
62
5
10
0.21213203
20
0.42141298
30
0
70
32
0
VERTEX
8
0
62
5
10
0.28284271
20
0.47237836
30
0
70
32
0
SEQEND
8
0
0
POLYLINE
8
0
62
5
66
1
10
0
20
0
30
0
70
8
0
SEQEND
8
0
0
POLYLINE
8
0
62
5
66
1
10
0
20
0
30
0
70
8
0
VERTEX
8
0
62
5
10
-4.2810477e-12
20
0.47237836
30
0
70
32
0
VERTEX
8
0
62
5
10
0.070710678
20
0.47237836
30
0
70
32
0
VERTEX
8
0
62
5
10
0.14142136
20
0.52334373
30
0
70
32
0
VERTEX
8
0
62
5
10
0.21213203
20
0.52334373
30
0
70
32
0
VERTEX
8
0
62
5
10
0.28284271
20
0.47237836
30
0
70
32
0
SEQEND
8
0
0
POLYLINE
8
0
62
30
66
1
10
0
20
0
30
0
70
8
0
VERTEX
8
0
62
30
10
-4.2810477e-12
20
0.47237836
30
0
70
32
0
VERTEX
8
0
62
30
10
0.28284271
20
0.47237836
30
0
70
32
0
SEQEND
8
0
0
POLYLINE
8
0
62
30
66
1
10
0
20
0
30
0
70
8
0
VERTEX
8
0
62
30
10
0.070710678
20
0.47237836
30
0
70
32
0
VERTEX
8
0
62
30
10
0.070710678
20
0.47237836
30
0
70
32
0
SEQEND
8
0
0
POLYLINE
8
0
62
30
66
1
10
0
20
0
30
0
70
8
0
VERTEX
8
0
62
30
10
0.14142136
20
0.42141298
30
0
70
32
0
VERTEX
8
0
62
30
10
0.14142136
20
0.47237836
30
0
70
32
0
SEQEND
8
0
0
POLYLINE
8
0
62
30
66
1
10
0
20
0
30
0
70
8
0
VERTEX
8
0
62
30
10
0.21213203
20
0.42141298
30
0
70
32
0
VERTEX
8
0
62
30
10
0.21213203
20
0.47237836
30
0
70
32
0
SEQEND
8
0
0
POLYLINE
8
0
62
5
66
1
10
0
20
0
30
0
70
8
0
VERTEX
8
0
62
5
10
0.070710678
20
0.41085771
30
0
70
32
0
VERTEX
8
0
62
5
10
0.070710678
20
0.47237836
30
0
70
32
0
SEQEND
8
0
0
POLYLINE
8
0
62
5
66
1
10
0
20
0
30
0
70
8
0
VERTEX
8
0
62
5
10
0.14142136
20
0.41085771
30
0
70
32
0
VERTEX
8
0
62
5
10
0.14142136
20
0.42141298
30
0
70
32
0
SEQEND
8
0
0
POLYLINE
8
0
62
5
66
1
10
0
20
0
30
0
70
8
0
VERTEX
8
0
62
5
10
0.21213203
20
0.41085771
30
0
70
32
0
VERTEX
8
0
62
5
10
0.21213203
20
0.42141298
30
0
70
32
0
SEQEND
8
0
0
POLYLINE
8
0
62
5
66
1
10
0
20
0
30
0
70
8
0
VERTEX
8
0
62
5
10
0.070710678
20
0.47237836
30
0
70
32
0
VERTEX
8
0
62
5
10
0.070710678
20
0.533899
30
0
70
32
0
SEQEND
8
0
0
POLYLINE
8
0
62
5
66
1
10
0
20
0
30
0
70
8
0
VERTEX
8
0
62
5
10
0.14142136
20
0.47237836
30
0
70
32
0
VERTEX
8
0
62
5
10
0.14142136
20
0.533899
30
0
70
32
0
SEQEND
8
0
0
POLYLINE
8
0
62
5
66
1
10
0
20
0
30
0
70
8
0
VERTEX
8
0
62
5
10
0.21213203
20
0.47237836
30
0
70
32
0
VERTEX
8
0
62
5
10
0.21213203
20
0.533899
30
0
70
32
0
SEQEND
8
0
0
POLYLINE
8
0
62
30
66
1
10
0
20
0
30
0
70
8
0
VERTEX
8
0
62
30
10
-4.2810477e-12
20
0.47237836
30
0
70
32
0
VERTEX
8
0
62
30
10
-7.7556086e-13
20
0.47237836
30
0
70
32
0
VERTEX
8
0
62
30
10
-4.2810477e-12
20
0.47237836
30
0
70
32
0
SEQEND
8
0
0
POLYLINE
8
0
62
30
66
1
10
0
20
0
30
0
70
8
0
VERTEX
8
0
62
30
10
0.070710678
20
0.47237836
30
0
70
32
0
VERTEX
8
0
62
30
10
0.070710678
20
0.47237836
30
0
70
32
0
VERTEX
8
0
62
30
10
0.070710678
20
0.47237836
30
0
70
32
0
SEQEND
8
0
0
POLYLINE
8
0
62
30
66
1
10
0
20
0
30
0
70
8
0
VERTEX
8
0
62
30
10
0.14142136
20
0.42141298
30
0
70
32
0
VERTEX
8
0
62
30
10
0.16751146
20
0.47237836
30
0
70
32
0
VERTEX
8
0
62
30
10
0.14142136
20
0.52334373
30
0
70
32
0
SEQEND
8
0
0
POLYLINE
8
0
62
30
66
1
10
0
20
0
30
0
70
8
0
VERTEX
8
0
62
30
10
0.21213203
20
0.42141298
30
0
70
32
0
VERTEX
8
0
62
30
10
0.23822214
20
0.47237836
30
0
70
32
0
VERTEX
8
0
62
30
10
0.21213203
20
0.52334373
30
0
70
32
0
SEQEND
8
0
0
POLYLINE
8
0
62
5
66
1
10
0
20
0
30
0
70
8
0
VERTEX
8
0
62
5
10
0.56568542
20
0.533899
30
0
70
32
0
VERTEX
8
0
62
5
10
0.56568542
20
0.41085771
30
0
70
32
0
SEQEND
8
0
0
POLYLINE
8
0
62
5
66
1
10
0
20
0
30
0
70
8
0
VERTEX
8
0
62
5
10
0.28284271
20
0.47237836
30
0
70
32
0
VERTEX
8
0
62
5
10
0.35355339
20
0.47237836
30
0
70
32
0
VERTEX
8
0
62
5
10
0.42426407
20
0.42141298
30
0
70
32
0
VERTEX
8
0
62
5
10
0.49497475
20
0.42141298
30
0
70
32
0
VERTEX
8
0
62
5
10
0.56568542
20
0.47237836
30
0
70
32
0
SEQEND
8
0
0
POLYLINE
8
0
62
5
66
1
10
0
20
0
30
0
70
8
0
SEQEND
8
0
0
POLYLINE
8
0
62
5
66
1
10
0
20
0
30
0
70
8
0
VERTEX
8
0
62
5
10
0.28284271
20
0.47237836
30
0
70
32
0
VERTEX
8
0
62
5
10
0.35355339
20
0.47237836
30
0
70
32
0
VERTEX
8
0
62
5
10
0.42426407
20
0.52334373
30
0
70
32
0
VERTEX
8
0
62
5
10
0.49497475
20
0.52334373
30
0
70
32
0
VERTEX
8
0
62
5
10
0.56568542
20
0.47237836
30
0
70
32
0
SEQEND
8
0
0
POLYLINE
8
0
62
30
66
1
10
0
20
0
30
0
70
8
0
VERTEX
8
0
62
30
10
0.28284271
20
0.47237836
30
0
70
32
0
VERTEX
8
0
62
30
10
0.56568542
20
0.47237836
30
0
70
32
0
SEQEND
8
0
0
POLYLINE
8
0
62
30
66
1
10
0
20
0
30
0
70
8
0
VERTEX
8
0
62
30
10
0.35355339
20
0.47237836
30
0
70
32
0
VERTEX
8
0
62
30
10
0.35355339
20
0.47237836
30
0
70
32
0
SEQEND
8
0
0
POLYLINE
8
0
62
30
66
1
10
0
20
0
30
0
70
8
0
VERTEX
8
0
62
30
10
0.42426407
20
0.42141298
30
0
70
32
0
VERTEX
8
0
62
30
10
0.42426407
20
0.47237836
30
0
70
32
0
SEQEND
8
0
0
POLYLINE
8
0
62
30
66
1
10
0
20
0
30
0
70
8
0
VERTEX
8
0
62
30
10
0.49497475
20
0.42141298
30
0
70
32
0
VERTEX
8
0
62
30
10
0.49497475
20
0.47237836
30
0
70
32
0
SEQEND
8
0
0
POLYLINE
8
0
62
5
66
1
10
0
20
0
30
0
70
8
0
VERTEX
8
0
62
5
10
0.35355339
20
0.41085771
30
0
70
32
0
VERTEX
8
0
62
5
10
0.35355339
20
0.47237836
30
0
70
32
0
SEQEND
8
0
0
POLYLINE
8
0
62
5
66
1
10
0
20
0
30
0
70
8
0
VERTEX
8
0
62
5
10
0.42426407
20
0.41085771
30
0
70
32
0
VERTEX
8
0
62
5
10
0.42426407
20
0.42141298
30
0
70
32
0
SEQEND
8
0
0
POLYLINE
8
0
62
5
66
1
10
0
20
0
30
0
70
8
0
VERTEX
8
0
62
5
10
0.49497475
20
0.41085771
30
0
70
32
0
VERTEX
8
0
62
5
10
0.49497475
20
0.42141298
30
0
70
32
0
SEQEND
8
0
0
POLYLINE
8
0
62
5
66
1
10
0
20
0
30
0
70
8
0
VERTEX
8
0
62
5
10
0.35355339
20
0.47237836
30
0
70
32
0
VERTEX
8
0
62
5
10
0.35355339
20
0.533899
30
0
70
32
0
SEQEND
8
0
0
POLYLINE
8
0
62
5
66
1
10
0
20
0
30
0
70
8
0
VERTEX
8
0
62
5
10
0.42426407
20
0.47237836
30
0
70
32
0
VERTEX
8
0
62
5
10
0.42426407
20
0.533899
30
0
70
32
0
SEQEND
8
0
0
POLYLINE
8
0
62
5
66
1
10
0
20
0
30
0
70
8
0
VERTEX
8
0
62
5
10
0.49497475
20
0.47237836
30
0
70
32
0
VERTEX
8
0
62
5
10
0.49497475
20
0.533899
30
0
70
32
0
SEQEND
8
0
0
POLYLINE
8
0
62
30
66
1
10
0
20
0
30
0
70
8
0
VERTEX
8
0
62
30
10
0.28284271
20
0.47237836
30
0
70
32
0
VERTEX
8
0
62
30
10
0.28284271
20
0.47237836
30
0
70
32
0
VERTEX
8
0
62
30
10
0.28284271
20
0.47237836
30
0
70
32
0
SEQEND
8
0
0
POLYLINE
8
0
62
30
66
1
10
0
20
0
30
0
70
8
0
VERTEX
8
0
62
30
10
0.35355339
20
0.47237836
30
0
70
32
0
VERTEX
8
0
62
30
10
0.35355339
20
0.47237836
30
0
70
32
0
VERTEX
8
0
62
30
10
0.35355339
20
0.47237836
30
0
70
32
0
SEQEND
8
0
0
POLYLINE
8
0
62
30
66
1
10
0
20
0
30
0
70
8
0
VERTEX
8
0
62
30
10
0.42426407
20
0.42141298
30
0
70
32
0
VERTEX
8
0
62
30
10
0.45035418
20
0.47237836
30
0
70
32
0
VERTEX
8
0
62
30
10
0.42426407
20
0.52334373
30
0
70
32
0
SEQEND
8
0
0
POLYLINE
8
0
62
30
66
1
10
0
20
0
30
0
70
8
0
VERTEX
8
0
62
30
10
0.49497475
20
0.42141298
30
0
70
32
0
VERTEX
8
0
62
30
10
0.52106485
20
0.47237836
30
0
70
32
0
VERTEX
8
0
62
30
10
0.49497475
20
0.52334373
30
0
70
32
0
SEQEND
8
0
0
POLYLINE
8
0
62
5
66
1
10
0
20
0
30
0
70
8
0
VERTEX
8
0
62
5
10
-0.28284271
20
0.41085771
30
0
70
32
0
VERTEX
8
0
62
5
10
-0.28284271
20
0.533899
30
0
70
32
0
SEQEND
8
0
0
POLYLINE
8
0
62
5
66
1
10
0
20
0
30
0
70
8
0
VERTEX
8
0
62
5
10
-0.28284271
20
0.47237836
30
0
70
32
0
VERTEX
8
0
62
5
10
-0.21213203
20
0.47237836
30
0
70
32
0
VERTEX
8
0
62
5
10
-0.14142136
20
0.42141298
30
0
70
32
0
VERTEX
8
0
62
5
10
-0.070710678
20
0.42141298
30
0
70
32
0
VERTEX
8
0
62
5
10
-4.2810755e-12
20
0.47237836
30
0
70
32
0
SEQEND
8
0
0
POLYLINE
8
0
62
5
66
1
10
0
20
0
30
0
70
8
0
SEQEND
8
0
0
POLYLINE
8
0
62
5
66
1
10
0
20
0
30
0
70
8
0
VERTEX
8
0
62
5
10
-0.28284271
20
0.47237836
30
0
70
32
0
VERTEX
8
0
62
5
10
-0.21213203
20
0.47237836
30
0
70
32
0
VERTEX
8
0
62
5
10
-0.14142136
20
0.52334373
30
0
70
32
0
VERTEX
8
0
62
5
10
-0.070710678
20
0.52334373
30
0
70
32
0
VERTEX
8
0
62
5
10
-4.2810755e-12
20
0.47237836
30
0
70
32
0
SEQEND
8
0
0
POLYLINE
8
0
62
30
66
1
10
0
20
0
30
0
70
8
0
VERTEX
8
0
62
30
10
-0.28284271
20
0.47237836
30
0
70
32
0
VERTEX
8
0
62
30
10
-4.2810755e-12
20
0.47237836
30
0
70
32
0
SEQEND
8
0
0
POLYLINE
8
0
62
30
66
1
10
0
20
0
30
0
70
8
0
VERTEX
8
0
62
30
10
-0.21213203
20
0.47237836
30
0
70
32
0
VERTEX
8
0
62
30
10
-0.21213203
20
0.47237836
30
0
70
32
0
SEQEND
8
0
0
POLYLINE
8
0
62
30
66
1
10
0
20
0
30
0
70
8
0
VERTEX
8
0
62
30
10
-0.14142136
20
0.42141298
30
0
70
32
0
VERTEX
8
0
62
30
10
-0.14142136
20
0.47237836
30
0
70
32
0
SEQEND
8
0
0
POLYLINE
8
0
62
30
66
1
10
0
20
0
30
0
70
8
0
VERTEX
8
0
62
30
10
-0.070710678
20
0.42141298
30
0
70
32
0
VERTEX
8
0
62
30
10
-0.070710678
20
0.47237836
30
0
70
32
0
SEQEND
8
0
0
POLYLINE
8
0
62
5
66
1
10
0
20
0
30
0
70
8
0
VERTEX
8
0
62
5
10
-0.21213203
20
0.41085771
30
0
70
32
0
VERTEX
8
0
62
5
10
-0.21213203
20
0.47237836
30
0
70
32
0
SEQEND
8
0
0
POLYLINE
8
0
62
5
66
1
10
0
20
0
30
0
70
8
0
VERTEX
8
0
62
5
10
-0.14142136
20
0.41085771
30
0
70
32
0
VERTEX
8
0
62
5
10
-0.14142136
20
0.42141298
30
0
70
32
0
SEQEND
8
0
0
POLYLINE
8
0
62
5
66
1
10
0
20
0
30
0
70
8
0
VERTEX
8
0
62
5
10
-0.070710678
20
0.41085771
30
0
70
32
0
VERTEX
8
0
62
5
10
-0.070710678
20
0.42141298
30
0
70
32
0
SEQEND
8
0
0
POLYLINE
8
0
62
5
66
1
10
0
20
0
30
0
70
8
0
VERTEX
8
0
62
5
10
-0.21213203
20
0.47237836
30
0
70
32
0
VERTEX
8
0
62
5
10
-0.21213203
20
0.533899
30
0
70
32
0
SEQEND
8
0
0
POLYLINE
8
0
62
5
66
1
10
0
20
0
30
0
70
8
0
VERTEX
8
0
62
5
10
-0.14142136
20
0.47237836
30
0
70
32
0
VERTEX
8
0
62
5
10
-0.14142136
20
0.533899
30
0
70
32
0
SEQEND
8
0
0
POLYLINE
8
0
62
5
66
1
10
0
20
0
30
0
70
8
0
VERTEX
8
0
62
5
10
-0.070710678
20
0.47237836
30
0
70
32
0
VERTEX
8
0
62
5
10
-0.070710678
20
0.533899
30
0
70
32
0
SEQEND
8
0
0
POLYLINE
8
0
62
30
66
1
10
0
20
0
30
0
70
8
0
VERTEX
8
0
62
30
10
-0.28284271
20
0.47237836
30
0
70
32
0
VERTEX
8
0
62
30
10
-0.28284271
20
0.47237836
30
0
70
32
0
VERTEX
8
0
62
30
10
-0.28284271
20
0.47237836
30
0
70
32
0
SEQEND
8
0
0
POLYLINE
8
0
62
30
66
1
10
0
20
0
30
0
70
8
0
VERTEX
8
0
62
30
10
-0.21213203
20
0.47237836
30
0
70
32
0
VERTEX
8
0
62
30
10
-0.21213203
20
0.47237836
30
0
70
32
0
VERTEX
8
0
62
30
10
-0.21213203
20
0.47237836
30
0
70
32
0
SEQEND
8
0
0
POLYLINE
8
0
62
30
66
1
10
0
20
0
30
0
70
8
0
VERTEX
8
0
62
30
10
-0.14142136
20
0.42141298
30
0
70
32
0
VERTEX
8
0
62
30
10
-0.11533125
20
0.47237836
30
0
70
32
0
VERTEX
8
0
62
30
10
-0.14142136
20
0.52334373
30
0
70
32
0
SEQEND
8
0
0
POLYLINE
8
0
62
30
66
1
10
0
20
0
30
0
70
8
0
VERTEX
8
0
62
30
10
-0.070710678
20
0.42141298
30
0
70
32
0
VERTEX
8
0
62
30
10
-0.044620571
20
0.47237836
30
0
70
32
0
VERTEX
8
0
62
30
10
-0.070710678
20
0.52334373
30
0
70
32
0
SEQEND
8
0
0
POLYLINE
8
0
62
5
66
1
10
0
20
0
30
0
70
8
0
VERTEX
8
0
62
5
10
-4.2810477e-12
20
0.533899
30
0
70
32
0
VERTEX
8
0
62
5
10
-4.2810477e-12
20
0.56552178
30
0
70
32
0
SEQEND
8
0
0
POLYLINE
8
0
62
5
66
1
10
0
20
0
30
0
70
8
0
VERTEX
8
0
62
5
10
0.070710678
20
0.533899
30
0
70
32
0
VERTEX
8
0
62
5
10
0.070710678
20
0.56552178
30
0
70
32
0
SEQEND
8
0
0
POLYLINE
8
0
62
5
66
1
10
0
20
0
30
0
70
8
0
VERTEX
8
0
62
5
10
0.14142136
20
0.533899
30
0
70
32
0
VERTEX
8
0
62
5
10
0.14142136
20
0.56552178
30
0
70
32
0
SEQEND
8
0
0
POLYLINE
8
0
62
5
66
1
10
0
20
0
30
0
70
8
0
VERTEX
8
0
62
5
10
0.21213203
20
0.533899
30
0
70
32
0
VERTEX
8
0
62
5
10
0.21213203
20
0.56552178
30
0
70
32
0
SEQEND
8
0
0
POLYLINE
8
0
62
5
66
1
10
0
20
0
30
0
70
8
0
VERTEX
8
0
62
5
10
0.28284271
20
0.533899
30
0
70
32
0
VERTEX
8
0
62
5
10
0.28284271
20
0.56552178
30
0
70
32
0
SEQEND
8
0
0
POLYLINE
8
0
62
5
66
1
10
0
20
0
30
0
70
8
0
VERTEX
8
0
62
5
10
0.070710678
20
0.533899
30
0
70
32
0
VERTEX
8
0
62
5
10
0.070710678
20
0.533899
30
0
70
32
0
SEQEND
8
0
0
POLYLINE
8
0
62
5
66
1
10
0
20
0
30
0
70
8
0
VERTEX
8
0
62
5
10
0.14142136
20
0.533899
30
0
70
32
0
VERTEX
8
0
62
5
10
0.14142136
20
0.533899
30
0
70
32
0
SEQEND
8
0
0
POLYLINE
8
0
62
5
66
1
10
0
20
0
30
0
70
8
0
VERTEX
8
0
62
5
10
0.21213203
20
0.533899
30
0
70
32
0
VERTEX
8
0
62
5
10
0.21213203
20
0.533899
30
0
70
32
0
SEQEND
8
0
0
POLYLINE
8
0
62
5
66
1
10
0
20
0
30
0
70
8
0
VERTEX
8
0
62
5
10
-3.2381784e-12
20
0.56552178
30
0
70
32
0
VERTEX
8
0
62
5
10
-3.2381784e-12
20
0.56552178
30
0
70
32
0
SEQEND
8
0
0
POLYLINE
8
0
62
5
66
1
10
0
20
0
30
0
70
8
0
VERTEX
8
0
62
5
10
0.070710678
20
0.56552178
30
0
70
32
0
VERTEX
8
0
62
5
10
0.070710678
20
0.56552178
30
0
70
32
0
SEQEND
8
0
0
POLYLINE
8
0
62
5
66
1
10
0
20
0
30
0
70
8
0
VERTEX
8
0
62
5
10
0.14142136
20
0.56552178
30
0
70
32
0
VERTEX
8
0
62
5
10
0.14142136
20
0.56552178
30
0
70
32
0
SEQEND
8
0
0
POLYLINE
8
0
62
5
66
1
10
0
20
0
30
0
70
8
0
VERTEX
8
0
62
5
10
0.21213203
20
0.56552178
30
0
70
32
0
VERTEX
8
0
62
5
10
0.21213203
20
0.56552178
30
0
70
32
0
SEQEND
8
0
0
POLYLINE
8
0
62
5
66
1
10
0
20
0
30
0
70
8
0
VERTEX
8
0
62
5
10
0.35355339
20
0.533899
30
0
70
32
0
VERTEX
8
0
62
5
10
0.35355339
20
0.56552178
30
0
70
32
0
SEQEND
8
0
0
POLYLINE
8
0
62
5
66
1
10
0
20
0
30
0
70
8
0
VERTEX
8
0
62
5
10
0.42426407
20
0.533899
30
0
70
32
0
VERTEX
8
0
62
5
10
0.42426407
20
0.56552178
30
0
70
32
0
SEQEND
8
0
0
POLYLINE
8
0
62
5
66
1
10
0
20
0
30
0
70
8
0
VERTEX
8
0
62
5
10
0.49497475
20
0.533899
30
0
70
32
0
VERTEX
8
0
62
5
10
0.49497475
20
0.56552178
30
0
70
32
0
SEQEND
8
0
0
POLYLINE
8
0
62
5
66
1
10
0
20
0
30
0
70
8
0
VERTEX
8
0
62
5
10
0.56568542
20
0.533899
30
0
70
32
0
VERTEX
8
0
62
5
10
0.56568542
20
0.56552178
30
0
70
32
0
SEQEND
8
0
0
POLYLINE
8
0
62
5
66
1
10
0
20
0
30
0
70
8
0
VERTEX
8
0
62
5
10
0.35355339
20
0.533899
30
0
70
32
0
VERTEX
8
0
62
5
10
0.35355339
20
0.533899
30
0
70
32
0
SEQEND
8
0
0
POLYLINE
8
0
62
5
66
1
10
0
20
0
30
0
70
8
0
VERTEX
8
0
62
5
10
0.42426407
20
0.533899
30
0
70
32
0
VERTEX
8
0
62
5
10
0.42426407
20
0.533899
30
0
70
32
0
SEQEND
8
0
0
POLYLINE
8
0
62
5
66
1
10
0
20
0
30
0
70
8
0
VERTEX
8
0
62
5
10
0.49497475
20
0.533899
30
0
70
32
0
VERTEX
8
0
62
5
10
0.49497475
20
0.533899
30
0
70
32
0
SEQEND
8
0
0
POLYLINE
8
0
62
5
66
1
10
0
20
0
30
0
70
8
0
VERTEX
8
0
62
5
10
0.28284271
20
0.56552178
30
0
70
32
0
VERTEX
8
0
62
5
10
0.28284271
20
0.56552178
30
0
70
32
0
SEQEND
8
0
0
POLYLINE
8
0
62
5
66
1
10
0
20
0
30
0
70
8
0
VERTEX
8
0
62
5
10
0.35355339
20
0.56552178
30
0
70
32
0
VERTEX
8
0
62
5
10
0.35355339
20
0.56552178
30
0
70
32
0
SEQEND
8
0
0
POLYLINE
8
0
62
5
66
1
10
0
20
0
30
0
70
8
0
VERTEX
8
0
62
5
10
0.42426407
20
0.56552178
30
0
70
32
0
VERTEX
8
0
62
5
10
0.42426407
20
0.56552178
30
0
70
32
0
SEQEND
8
0
0
POLYLINE
8
0
62
5
66
1
10
0
20
0
30
0
70
8
0
VERTEX
8
0
62
5
10
0.49497475
20
0.56552178
30
0
70
32
0
VERTEX
8
0
62
5
10
0.49497475
20
0.56552178
30
0
70
32
0
SEQEND
8
0
0
POLYLINE
8
0
62
5
66
1
10
0
20
0
30
0
70
8
0
VERTEX
8
0
62
5
10
-0.21213203
20
0.533899
30
0
70
32
0
VERTEX
8
0
62
5
10
-0.21213203
20
0.56552178
30
0
70
32
0
SEQEND
8
0
0
POLYLINE
8
0
62
5
66
1
10
0
20
0
30
0
70
8
0
VERTEX
8
0
62
5
10
-0.14142136
20
0.533899
30
0
70
32
0
VERTEX
8
0
62
5
10
-0.14142136
20
0.56552178
30
0
70
32
0
SEQEND
8
0
0
POLYLINE
8
0
62
5
66
1
10
0
20
0
30
0
70
8
0
VERTEX
8
0
62
5
10
-0.070710678
20
0.533899
30
0
70
32
0
VERTEX
8
0
62
5
10
-0.070710678
20
0.56552178
30
0
70
32
0
SEQEND
8
0
0
POLYLINE
8
0
62
5
66
1
10
0
20
0
30
0
70
8
0
VERTEX
8
0
62
5
10
-4.2810755e-12
20
0.533899
30
0
70
32
0
VERTEX
8
0
62
5
10
-4.2810755e-12
20
0.56552178
30
0
70
32
0
SEQEND
8
0
0
POLYLINE
8
0
62
5
66
1
10
0
20
0
30
0
70
8
0
VERTEX
8
0
62
5
10
-0.21213203
20
0.533899
30
0
70
32
0
VERTEX
8
0
62
5
10
-0.21213203
20
0.533899
30
0
70
32
0
SEQEND
8
0
0
POLYLINE
8
0
62
5
66
1
10
0
20
0
30
0
70
8
0
VERTEX
8
0
62
5
10
-0.14142136
20
0.533899
30
0
70
32
0
VERTEX
8
0
62
5
10
-0.14142136
20
0.533899
30
0
70
32
0
SEQEND
8
0
0
POLYLINE
8
0
62
5
66
1
10
0
20
0
30
0
70
8
0
VERTEX
8
0
62
5
10
-0.070710678
20
0.533899
30
0
70
32
0
VERTEX
8
0
62
5
10
-0.070710678
20
0.533899
30
0
70
32
0
SEQEND
8
0
0
POLYLINE
8
0
62
5
66
1
10
0
20
0
30
0
70
8
0
VERTEX
8
0
62
5
10
-0.28284271
20
0.56552178
30
0
70
32
0
VERTEX
8
0
62
5
10
-0.28284271
20
0.56552178
30
0
70
32
0
SEQEND
8
0
0
POLYLINE
8
0
62
5
66
1
10
0
20
0
30
0
70
8
0
VERTEX
8
0
62
5
10
-0.21213203
20
0.56552178
30
0
70
32
0
VERTEX
8
0
62
5
10
-0.21213203
20
0.56552178
30
0
70
32
0
SEQEND
8
0
0
POLYLINE
8
0
62
5
66
1
10
0
20
0
30
0
70
8
0
VERTEX
8
0
62
5
10
-0.14142136
20
0.56552178
30
0
70
32
0
VERTEX
8
0
62
5
10
-0.14142136
20
0.56552178
30
0
70
32
0
SEQEND
8
0
0
POLYLINE
8
0
62
5
66
1
10
0
20
0
30
0
70
8
0
VERTEX
8
0
62
5
10
-0.070710678
20
0.56552178
30
0
70
32
0
VERTEX
8
0
62
5
10
-0.070710678
20
0.56552178
30
0
70
32
0
SEQEND
8
0
0
POLYLINE
8
0
62
5
66
1
10
0
20
0
30
0
70
8
0
VERTEX
8
0
62
5
10
-3.2381784e-12
20
0.56552178
30
0
70
32
0
VERTEX
8
0
62
5
10
-3.2381784e-12
20
0.69201289
30
0
70
32
0
SEQEND
8
0
0
POLYLINE
8
0
62
5
66
1
10
0
20
0
30
0
70
8
0
VERTEX
8
0
62
5
10
0.28284271
20
0.56552178
30
0
70
32
0
VERTEX
8
0
62
5
10
0.28284271
20
0.69201289
30
0
70
32
0
SEQEND
8
0
0
POLYLINE
8
0
62
5
66
1
10
0
20
0
30
0
70
8
0
VERTEX
8
0
62
5
10
0.070710678
20
0.56552178
30
0
70
32
0
VERTEX
8
0
62
5
10
0.070710678
20
0.69201289
30
0
70
32
0
SEQEND
8
0
0
POLYLINE
8
0
62
5
66
1
10
0
20
0
30
0
70
8
0
VERTEX
8
0
62
5
10
0.14142136
20
0.56552178
30
0
70
32
0
VERTEX
8
0
62
5
10
0.14142136
20
0.69201289
30
0
70
32
0
SEQEND
8
0
0
POLYLINE
8
0
62
5
66
1
10
0
20
0
30
0
70
8
0
VERTEX
8
0
62
5
10
0.21213203
20
0.56552178
30
0
70
32
0
VERTEX
8
0
62
5
10
0.21213203
20
0.69201289
30
0
70
32
0
SEQEND
8
0
0
POLYLINE
8
0
62
5
66
1
10
0
20
0
30
0
70
8
0
VERTEX
8
0
62
5
10
0.56568542
20
0.56552178
30
0
70
32
0
VERTEX
8
0
62
5
10
0.56568542
20
0.69201289
30
0
70
32
0
SEQEND
8
0
0
POLYLINE
8
0
62
5
66
1
10
0
20
0
30
0
70
8
0
VERTEX
8
0
62
5
10
0.35355339
20
0.56552178
30
0
70
32
0
VERTEX
8
0
62
5
10
0.35355339
20
0.69201289
30
0
70
32
0
SEQEND
8
0
0
POLYLINE
8
0
62
5
66
1
10
0
20
0
30
0
70
8
0
VERTEX
8
0
62
5
10
0.42426407
20
0.56552178
30
0
70
32
0
VERTEX
8
0
62
5
10
0.42426407
20
0.69201289
30
0
70
32
0
SEQEND
8
0
0
POLYLINE
8
0
62
5
66
1
10
0
20
0
30
0
70
8
0
VERTEX
8
0
62
5
10
0.49497475
20
0.56552178
30
0
70
32
0
VERTEX
8
0
62
5
10
0.49497475
20
0.69201289
30
0
70
32
0
SEQEND
8
0
0
POLYLINE
8
0
62
5
66
1
10
0
20
0
30
0
70
8
0
VERTEX
8
0
62
5
10
-0.28284271
20
0.56552178
30
0
70
32
0
VERTEX
8
0
62
5
10
-0.28284271
20
0.69201289
30
0
70
32
0
SEQEND
8
0
0
POLYLINE
8
0
62
5
66
1
10
0
20
0
30
0
70
8
0
VERTEX
8
0
62
5
10
-0.21213203
20
0.56552178
30
0
70
32
0
VERTEX
8
0
62
5
10
-0.21213203
20
0.69201289
30
0
70
32
0
SEQEND
8
0
0
POLYLINE
8
0
62
5
66
1
10
0
20
0
30
0
70
8
0
VERTEX
8
0
62
5
10
-0.14142136
20
0.56552178
30
0
70
32
0
VERTEX
8
0
62
5
10
-0.14142136
20
0.69201289
30
0
70
32
0
SEQEND
8
0
0
POLYLINE
8
0
62
5
66
1
10
0
20
0
30
0
70
8
0
VERTEX
8
0
62
5
10
-0.070710678
20
0.56552178
30
0
70
32
0
VERTEX
8
0
62
5
10
-0.070710678
20
0.69201289
30
0
70
32
0
SEQEND
8
0
0
POLYLINE
8
0
62
5
66
1
10
0
20
0
30
0
70
8
0
VERTEX
8
0
62
5
10
-3.2381784e-12
20
0.69201289
30
0
70
32
0
VERTEX
8
0
62
5
10
-3.2381784e-12
20
0.71971542
30
0
70
32
0
SEQEND
8
0
0
POLYLINE
8
0
62
5
66
1
10
0
20
0
30
0
70
8
0
VERTEX
8
0
62
5
10
0.28284271
20
0.71971542
30
0
70
32
0
VERTEX
8
0
62
5
10
0.28284271
20
0.69201289
30
0
70
32
0
SEQEND
8
0
0
POLYLINE
8
0
62
5
66
1
10
0
20
0
30
0
70
8
0
VERTEX
8
0
62
5
10
-3.2381784e-12
20
0.70586415
30
0
70
32
0
VERTEX
8
0
62
5
10
0.070710678
20
0.70586415
30
0
70
32
0
VERTEX
8
0
62
5
10
0.14142136
20
0.69438939
30
0
70
32
0
VERTEX
8
0
62
5
10
0.21213203
20
0.69438939
30
0
70
32
0
VERTEX
8
0
62
5
10
0.28284271
20
0.70586415
30
0
70
32
0
SEQEND
8
0
0
POLYLINE
8
0
62
5
66
1
10
0
20
0
30
0
70
8
0
SEQEND
8
0
0
POLYLINE
8
0
62
5
66
1
10
0
20
0
30
0
70
8
0
VERTEX
8
0
62
5
10
-3.2381784e-12
20
0.70586415
30
0
70
32
0
VERTEX
8
0
62
5
10
0.070710678
20
0.70586415
30
0
70
32
0
VERTEX
8
0
62
5
10
0.14142136
20
0.71733891
30
0
70
32
0
VERTEX
8
0
62
5
10
0.21213203
20
0.71733891
30
0
70
32
0
VERTEX
8
0
62
5
10
0.28284271
20
0.70586415
30
0
70
32
0
SEQEND
8
0
0
POLYLINE
8
0
62
30
66
1
10
0
20
0
30
0
70
8
0
VERTEX
8
0
62
30
10
-3.2381784e-12
20
0.70586415
30
0
70
32
0
VERTEX
8
0
62
30
10
0.28284271
20
0.70586415
30
0
70
32
0
SEQEND
8
0
0
POLYLINE
8
0
62
30
66
1
10
0
20
0
30
0
70
8
0
VERTEX
8
0
62
30
10
0.070710678
20
0.70586415
30
0
70
32
0
VERTEX
8
0
62
30
10
0.070710678
20
0.70586415
30
0
70
32
0
SEQEND
8
0
0
POLYLINE
8
0
62
30
66
1
10
0
20
0
30
0
70
8
0
VERTEX
8
0
62
30
10
0.14142136
20
0.69438939
30
0
70
32
0
VERTEX
8
0
62
30
10
0.14142136
20
0.70586415
30
0
70
32
0
SEQEND
8
0
0
POLYLINE
8
0
62
30
66
1
10
0
20
0
30
0
70
8
0
VERTEX
8
0
62
30
10
0.21213203
20
0.69438939
30
0
70
32
0
VERTEX
8
0
62
30
10
0.21213203
20
0.70586415
30
0
70
32
0
SEQEND
8
0
0
POLYLINE
8
0
62
5
66
1
10
0
20
0
30
0
70
8
0
VERTEX
8
0
62
5
10
0.070710678
20
0.69201289
30
0
70
32
0
VERTEX
8
0
62
5
10
0.070710678
20
0.70586415
30
0
70
32
0
SEQEND
8
0
0
POLYLINE
8
0
62
5
66
1
10
0
20
0
30
0
70
8
0
VERTEX
8
0
62
5
10
0.14142136
20
0.69201289
30
0
70
32
0
VERTEX
8
0
62
5
10
0.14142136
20
0.69438939
30
0
70
32
0
SEQEND
8
0
0
POLYLINE
8
0
62
5
66
1
10
0
20
0
30
0
70
8
0
VERTEX
8
0
62
5
10
0.21213203
20
0.69201289
30
0
70
32
0
VERTEX
8
0
62
5
10
0.21213203
20
0.69438939
30
0
70
32
0
SEQEND
8
0
0
POLYLINE
8
0
62
5
66
1
10
0
20
0
30
0
70
8
0
VERTEX
8
0
62
5
10
0.070710678
20
0.70586415
30
0
70
32
0
VERTEX
8
0
62
5
10
0.070710678
20
0.71971542
30
0
70
32
0
SEQEND
8
0
0
POLYLINE
8
0
62
5
66
1
10
0
20
0
30
0
70
8
0
VERTEX
8
0
62
5
10
0.14142136
20
0.70586415
30
0
70
32
0
VERTEX
8
0
62
5
10
0.14142136
20
0.71971542
30
0
70
32
0
SEQEND
8
0
0
POLYLINE
8
0
62
5
66
1
10
0
20
0
30
0
70
8
0
VERTEX
8
0
62
5
10
0.21213203
20
0.70586415
30
0
70
32
0
VERTEX
8
0
62
5
10
0.21213203
20
0.71971542
30
0
70
32
0
SEQEND
8
0
0
POLYLINE
8
0
62
30
66
1
10
0
20
0
30
0
70
8
0
VERTEX
8
0
62
30
10
-3.2381784e-12
20
0.70586415
30
0
70
32
0
VERTEX
8
0
62
30
10
-3.2381784e-12
20
0.70586415
30
0
70
32
0
VERTEX
8
0
62
30
10
-3.2381784e-12
20
0.70586415
30
0
70
32
0
SEQEND
8
0
0
POLYLINE
8
0
62
30
66
1
10
0
20
0
30
0
70
8
0
VERTEX
8
0
62
30
10
0.070710678
20
0.70586415
30
0
70
32
0
VERTEX
8
0
62
30
10
0.070710678
20
0.70586415
30
0
70
32
0
VERTEX
8
0
62
30
10
0.070710678
20
0.70586415
30
0
70
32
0
SEQEND
8
0
0
POLYLINE
8
0
62
30
66
1
10
0
20
0
30
0
70
8
0
VERTEX
8
0
62
30
10
0.14142136
20
0.69438939
30
0
70
32
0
VERTEX
8
0
62
30
10
0.15118413
20
0.70586415
30
0
70
32
0
VERTEX
8
0
62
30
10
0.14142136
20
0.71733891
30
0
70
32
0
SEQEND
8
0
0
POLYLINE
8
0
62
30
66
1
10
0
20
0
30
0
70
8
0
VERTEX
8
0
62
30
10
0.21213203
20
0.69438939
30
0
70
32
0
VERTEX
8
0
62
30
10
0.22189481
20
0.70586415
30
0
70
32
0
VERTEX
8
0
62
30
10
0.21213203
20
0.71733891
30
0
70
32
0
SEQEND
8
0
0
POLYLINE
8
0
62
5
66
1
10
0
20
0
30
0
70
8
0
VERTEX
8
0
62
5
10
0.56568542
20
0.71971542
30
0
70
32
0
VERTEX
8
0
62
5
10
0.56568542
20
0.69201289
30
0
70
32
0
SEQEND
8
0
0
POLYLINE
8
0
62
5
66
1
10
0
20
0
30
0
70
8
0
VERTEX
8
0
62
5
10
0.28284271
20
0.70586415
30
0
70
32
0
VERTEX
8
0
62
5
10
0.35355339
20
0.70586415
30
0
70
32
0
VERTEX
8
0
62
5
10
0.42426407
20
0.69438939
30
0
70
32
0
VERTEX
8
0
62
5
10
0.49497475
20
0.69438939
30
0
70
32
0
VERTEX
8
0
62
5
10
0.56568542
20
0.70586415
30
0
70
32
0
SEQEND
8
0
0
POLYLINE
8
0
62
5
66
1
10
0
20
0
30
0
70
8
0
SEQEND
8
0
0
POLYLINE
8
0
62
5
66
1
10
0
20
0
30
0
70
8
0
VERTEX
8
0
62
5
10
0.28284271
20
0.70586415
30
0
70
32
0
VERTEX
8
0
62
5
10
0.35355339
20
0.70586415
30
0
70
32
0
VERTEX
8
0
62
5
10
0.42426407
20
0.71733891
30
0
70
32
0
VERTEX
8
0
62
5
10
0.49497475
20
0.71733891
30
0
70
32
0
VERTEX
8
0
62
5
10
0.56568542
20
0.70586415
30
0
70
32
0
SEQEND
8
0
0
POLYLINE
8
0
62
30
66
1
10
0
20
0
30
0
70
8
0
VERTEX
8
0
62
30
10
0.28284271
20
0.70586415
30
0
70
32
0
VERTEX
8
0
62
30
10
0.56568542
20
0.70586415
30
0
70
32
0
SEQEND
8
0
0
POLYLINE
8
0
62
30
66
1
10
0
20
0
30
0
70
8
0
VERTEX
8
0
62
30
10
0.35355339
20
0.70586415
30
0
70
32
0
VERTEX
8
0
62
30
10
0.35355339
20
0.70586415
30
0
70
32
0
SEQEND
8
0
0
POLYLINE
8
0
62
30
66
1
10
0
20
0
30
0
70
8
0
VERTEX
8
0
62
30
10
0.42426407
20
0.69438939
30
0
70
32
0
VERTEX
8
0
62
30
10
0.42426407
20
0.70586415
30
0
70
32
0
SEQEND
8
0
0
POLYLINE
8
0
62
30
66
1
10
0
20
0
30
0
70
8
0
VERTEX
8
0
62
30
10
0.49497475
20
0.69438939
30
0
70
32
0
VERTEX
8
0
62
30
10
0.49497475
20
0.70586415
30
0
70
32
0
SEQEND
8
0
0
POLYLINE
8
0
62
5
66
1
10
0
20
0
30
0
70
8
0
VERTEX
8
0
62
5
10
0.35355339
20
0.69201289
30
0
70
32
0
VERTEX
8
0
62
5
10
0.35355339
20
0.70586415
30
0
70
32
0
SEQEND
8
0
0
POLYLINE
8
0
62
5
66
1
10
0
20
0
30
0
70
8
0
VERTEX
8
0
62
5
10
0.42426407
20
0.69201289
30
0
70
32
0
VERTEX
8
0
62
5
10
0.42426407
20
0.69438939
30
0
70
32
0
SEQEND
8
0
0
POLYLINE
8
0
62
5
66
1
10
0
20
0
30
0
70
8
0
VERTEX
8
0
62
5
10
0.49497475
20
0.69201289
30
0
70
32
0
VERTEX
8
0
62
5
10
0.49497475
20
0.69438939
30
0
70
32
0
SEQEND
8
0
0
POLYLINE
8
0
62
5
66
1
10
0
20
0
30
0
70
8
0
VERTEX
8
0
62
5
10
0.35355339
20
0.70586415
30
0
70
32
0
VERTEX
8
0
62
5
10
0.35355339
20
0.71971542
30
0
70
32
0
SEQEND
8
0
0
POLYLINE
8
0
62
5
66
1
10
0
20
0
30
0
70
8
0
VERTEX
8
0
62
5
10
0.42426407
20
0.70586415
30
0
70
32
0
VERTEX
8
0
62
5
10
0.42426407
20
0.71971542
30
0
70
32
0
SEQEND
8
0
0
POLYLINE
8
0
62
5
66
1
10
0
20
0
30
0
70
8
0
VERTEX
8
0
62
5
10
0.49497475
20
0.70586415
30
0
70
32
0
VERTEX
8
0
62
5
10
0.49497475
20
0.71971542
30
0
70
32
0
SEQEND
8
0
0
POLYLINE
8
0
62
30
66
1
10
0
20
0
30
0
70
8
0
VERTEX
8
0
62
30
10
0.28284271
20
0.70586415
30
0
70
32
0
VERTEX
8
0
62
30
10
0.28284271
20
0.70586415
30
0
70
32
0
VERTEX
8
0
62
30
10
0.28284271
20
0.70586415
30
0
70
32
0
SEQEND
8
0
0
POLYLINE
8
0
62
30
66
1
10
0
20
0
30
0
70
8
0
VERTEX
8
0
62
30
10
0.35355339
20
0.70586415
30
0
70
32
0
VERTEX
8
0
62
30
10
0.35355339
20
0.70586415
30
0
70
32
0
VERTEX
8
0
62
30
10
0.35355339
20
0.70586415
30
0
70
32
0
SEQEND
8
0
0
POLYLINE
8
0
62
30
66
1
10
0
20
0
30
0
70
8
0
VERTEX
8
0
62
30
10
0.42426407
20
0.69438939
30
0
70
32
0
VERTEX
8
0
62
30
10
0.43402684
20
0.70586415
30
0
70
32
0
VERTEX
8
0
62
30
10
0.42426407
20
0.71733891
30
0
70
32
0
SEQEND
8
0
0
POLYLINE
8
0
62
30
66
1
10
0
20
0
30
0
70
8
0
VERTEX
8
0
62
30
10
0.49497475
20
0.69438939
30
0
70
32
0
VERTEX
8
0
62
30
10
0.50473752
20
0.70586415
30
0
70
32
0
VERTEX
8
0
62
30
10
0.49497475
20
0.71733891
30
0
70
32
0
SEQEND
8
0
0
POLYLINE
8
0
62
5
66
1
10
0
20
0
30
0
70
8
0
VERTEX
8
0
62
5
10
-0.28284271
20
0.69201289
30
0
70
32
0
VERTEX
8
0
62
5
10
-0.28284271
20
0.71971542
30
0
70
32
0
SEQEND
8
0
0
POLYLINE
8
0
62
5
66
1
10
0
20
0
30
0
70
8
0
VERTEX
8
0
62
5
10
-0.28284271
20
0.70586415
30
0
70
32
0
VERTEX
8
0
62
5
10
-0.21213203
20
0.70586415
30
0
70
32
0
VERTEX
8
0
62
5
10
-0.14142136
20
0.69438939
30
0
70
32
0
VERTEX
8
0
62
5
10
-0.070710678
20
0.69438939
30
0
70
32
0
VERTEX
8
0
62
5
10
-3.2381875e-12
20
0.70586415
30
0
70
32
0
SEQEND
8
0
0
POLYLINE
8
0
62
5
66
1
10
0
20
0
30
0
70
8
0
SEQEND
8
0
0
POLYLINE
8
0
62
5
66
1
10
0
20
0
30
0
70
8
0
VERTEX
8
0
62
5
10
-0.28284271
20
0.70586415
30
0
70
32
0
VERTEX
8
0
62
5
10
-0.21213203
20
0.70586415
30
0
70
32
0
VERTEX
8
0
62
5
10
-0.14142136
20
0.71733891
30
0
70
32
0
VERTEX
8
0
62
5
10
-0.070710678
20
0.71733891
30
0
70
32
0
VERTEX
8
0
62
5
10
-3.2381875e-12
20
0.70586415
30
0
70
32
0
SEQEND
8
0
0
POLYLINE
8
0
62
30
66
1
10
0
20
0
30
0
70
8
0
VERTEX
8
0
62
30
10
-0.28284271
20
0.70586415
30
0
70
32
0
VERTEX
8
0
62
30
10
-3.2381875e-12
20
0.70586415
30
0
70
32
0
SEQEND
8
0
0
POLYLINE
8
0
62
30
66
1
10
0
20
0
30
0
70
8
0
VERTEX
8
0
62
30
10
-0.21213203
20
0.70586415
30
0
70
32
0
VERTEX
8
0
62
30
10
-0.21213203
20
0.70586415
30
0
70
32
0
SEQEND
8
0
0
POLYLINE
8
0
62
30
66
1
10
0
20
0
30
0
70
8
0
VERTEX
8
0
62
30
10
-0.14142136
20
0.69438939
30
0
70
32
0
VERTEX
8
0
62
30
10
-0.14142136
20
0.70586415
30
0
70
32
0
SEQEND
8
0
0
POLYLINE
8
0
62
30
66
1
10
0
20
0
30
0
70
8
0
VERTEX
8
0
62
30
10
-0.070710678
20
0.69438939
30
0
70
32
0
VERTEX
8
0
62
30
10
-0.070710678
20
0.70586415
30
0
70
32
0
SEQEND
8
0
0
POLYLINE
8
0
62
5
66
1
10
0
20
0
30
0
70
8
0
VERTEX
8
0
62
5
10
-0.21213203
20
0.69201289
30
0
70
32
0
VERTEX
8
0
62
5
10
-0.21213203
20
0.70586415
30
0
70
32
0
SEQEND
8
0
0
POLYLINE
8
0
62
5
66
1
10
0
20
0
30
0
70
8
0
VERTEX
8
0
62
5
10
-0.14142136
20
0.69201289
30
0
70
32
0
VERTEX
8
0
62
5
10
-0.14142136
20
0.69438939
30
0
70
32
0
SEQEND
8
0
0
POLYLINE
8
0
62
5
66
1
10
0
20
0
30
0
70
8
0
VERTEX
8
0
62
5
10
-0.070710678
20
0.69201289
30
0
70
32
0
VERTEX
8
0
62
5
10
-0.070710678
20
0.69438939
30
0
70
32
0
SEQEND
8
0
0
POLYLINE
8
0
62
5
66
1
10
0
20
0
30
0
70
8
0
VERTEX
8
0
62
5
10
-0.21213203
20
0.70586415
30
0
70
32
0
VERTEX
8
0
62
5
10
-0.21213203
20
0.71971542
30
0
70
32
0
SEQEND
8
0
0
POLYLINE
8
0
62
5
66
1
10
0
20
0
30
0
70
8
0
VERTEX
8
0
62
5
10
-0.14142136
20
0.70586415
30
0
70
32
0
VERTEX
8
0
62
5
10
-0.14142136
20
0.71971542
30
0
70
32
0
SEQEND
8
0
0
POLYLINE
8
0
62
5
66
1
10
0
20
0
30
0
70
8
0
VERTEX
8
0
62
5
10
-0.070710678
20
0.70586415
30
0
70
32
0
VERTEX
8
0
62
5
10
-0.070710678
20
0.71971542
30
0
70
32
0
SEQEND
8
0
0
POLYLINE
8
0
62
30
66
1
10
0
20
0
30
0
70
8
0
VERTEX
8
0
62
30
10
-0.28284271
20
0.70586415
30
0
70
32
0
VERTEX
8
0
62
30
10
-0.28284271
20
0.70586415
30
0
70
32
0
VERTEX
8
0
62
30
10
-0.28284271
20
0.70586415
30
0
70
32
0
SEQEND
8
0
0
POLYLINE
8
0
62
30
66
1
10
0
20
0
30
0
70
8
0
VERTEX
8
0
62
30
10
-0.21213203
20
0.70586415
30
0
70
32
0
VERTEX
8
0
62
30
10
-0.21213203
20
0.70586415
30
0
70
32
0
VERTEX
8
0
62
30
10
-0.21213203
20
0.70586415
30
0
70
32
0
SEQEND
8
0
0
POLYLINE
8
0
62
30
66
1
10
0
20
0
30
0
70
8
0
VERTEX
8
0
62
30
10
-0.14142136
20
0.69438939
30
0
70
32
0
VERTEX
8
0
62
30
10
-0.13165858
20
0.70586415
30
0
70
32
0
VERTEX
8
0
62
30
10
-0.14142136
20
0.71733891
30
0
70
32
0
SEQEND
8
0
0
POLYLINE
8
0
62
30
66
1
10
0
20
0
30
0
70
8
0
VERTEX
8
0
62
30
10
-0.070710678
20
0.69438939
30
0
70
32
0
VERTEX
8
0
62
30
10
-0.060947906
20
0.70586415
30
0
70
32
0
VERTEX
8
0
62
30
10
-0.070710678
20
0.71733891
30
0
70
32
0
SEQEND
8
0
0
POLYLINE
8
0
62
5
66
1
10
0
20
0
30
0
70
8
0
VERTEX
8
0
62
5
10
-3.2381784e-12
20
0.71971542
30
0
70
32
0
VERTEX
8
0
62
5
10
-3.2381784e-12
20
0.72071542
30
0
70
32
0
SEQEND
8
0
0
POLYLINE
8
0
62
5
66
1
10
0
20
0
30
0
70
8
0
VERTEX
8
0
62
5
10
0.28284271
20
0.71971542
30
0
70
32
0
VERTEX
8
0
62
5
10
0.28284271
20
0.72071542
30
0
70
32
0
SEQEND
8
0
0
POLYLINE
8
0
62
5
66
1
10
0
20
0
30
0
70
8
0
VERTEX
8
0
62
5
10
0.070710678
20
0.71971542
30
0
70
32
0
VERTEX
8
0
62
5
10
0.070710678
20
0.72071542
30
0
70
32
0
SEQEND
8
0
0
POLYLINE
8
0
62
5
66
1
10
0
20
0
30
0
70
8
0
VERTEX
8
0
62
5
10
0.14142136
20
0.71971542
30
0
70
32
0
VERTEX
8
0
62
5
10
0.14142136
20
0.72071542
30
0
70
32
0
SEQEND
8
0
0
POLYLINE
8
0
62
5
66
1
10
0
20
0
30
0
70
8
0
VERTEX
8
0
62
5
10
0.21213203
20
0.71971542
30
0
70
32
0
VERTEX
8
0
62
5
10
0.21213203
20
0.72071542
30
0
70
32
0
SEQEND
8
0
0
POLYLINE
8
0
62
5
66
1
10
0
20
0
30
0
70
8
0
VERTEX
8
0
62
5
10
0.56568542
20
0.71971542
30
0
70
32
0
VERTEX
8
0
62
5
10
0.56568542
20
0.72071542
30
0
70
32
0
SEQEND
8
0
0
POLYLINE
8
0
62
5
66
1
10
0
20
0
30
0
70
8
0
VERTEX
8
0
62
5
10
0.35355339
20
0.71971542
30
0
70
32
0
VERTEX
8
0
62
5
10
0.35355339
20
0.72071542
30
0
70
32
0
SEQEND
8
0
0
POLYLINE
8
0
62
5
66
1
10
0
20
0
30
0
70
8
0
VERTEX
8
0
62
5
10
0.42426407
20
0.71971542
30
0
70
32
0
VERTEX
8
0
62
5
10
0.42426407
20
0.72071542
30
0
70
32
0
SEQEND
8
0
0
POLYLINE
8
0
62
5
66
1
10
0
20
0
30
0
70
8
0
VERTEX
8
0
62
5
10
0.49497475
20
0.71971542
30
0
70
32
0
VERTEX
8
0
62
5
10
0.49497475
20
0.72071542
30
0
70
32
0
SEQEND
8
0
0
POLYLINE
8
0
62
5
66
1
10
0
20
0
30
0
70
8
0
VERTEX
8
0
62
5
10
-0.28284271
20
0.71971542
30
0
70
32
0
VERTEX
8
0
62
5
10
-0.28284271
20
0.72071542
30
0
70
32
0
SEQEND
8
0
0
POLYLINE
8
0
62
5
66
1
10
0
20
0
30
0
70
8
0
VERTEX
8
0
62
5
10
-0.21213203
20
0.71971542
30
0
70
32
0
VERTEX
8
0
62
5
10
-0.21213203
20
0.72071542
30
0
70
32
0
SEQEND
8
0
0
POLYLINE
8
0
62
5
66
1
10
0
20
0
30
0
70
8
0
VERTEX
8
0
62
5
10
-0.14142136
20
0.71971542
30
0
70
32
0
VERTEX
8
0
62
5
10
-0.14142136
20
0.72071542
30
0
70
32
0
SEQEND
8
0
0
POLYLINE
8
0
62
5
66
1
10
0
20
0
30
0
70
8
0
VERTEX
8
0
62
5
10
-0.070710678
20
0.71971542
30
0
70
32
0
VERTEX
8
0
62
5
10
-0.070710678
20
0.72071542
30
0
70
32
0
SEQEND
8
0
0
POLYLINE
8
0
62
5
66
1
10
0
20
0
30
0
70
8
0
VERTEX
8
0
62
5
10
-3.2381784e-12
20
0.72071542
30
0
70
32
0
VERTEX
8
0
62
5
10
-3.2381784e-12
20
0.86213689
30
0
70
32
0
SEQEND
8
0
0
POLYLINE
8
0
62
5
66
1
10
0
20
0
30
0
70
8
0
VERTEX
8
0
62
5
10
0.28284271
20
0.86213689
30
0
70
32
0
VERTEX
8
0
62
5
10
0.28284271
20
0.72071542
30
0
70
32
0
SEQEND
8
0
0
POLYLINE
8
0
62
5
66
1
10
0
20
0
30
0
70
8
0
VERTEX
8
0
62
5
10
-3.2381784e-12
20
0.75607072
30
0
70
32
0
VERTEX
8
0
62
5
10
0.070710678
20
0.75607078
30
0
70
32
0
VERTEX
8
0
62
5
10
0.14142136
20
0.72678146
30
0
70
32
0
VERTEX
8
0
62
5
10
0.21213203
20
0.7267814
30
0
70
32
0
VERTEX
8
0
62
5
10
0.28284271
20
0.75607072
30
0
70
32
0
SEQEND
8
0
0
POLYLINE
8
0
62
5
66
1
10
0
20
0
30
0
70
8
0
VERTEX
8
0
62
5
10
-3.2381784e-12
20
0.82678146
30
0
70
32
0
VERTEX
8
0
62
5
10
0.070710678
20
0.82678152
30
0
70
32
0
VERTEX
8
0
62
5
10
0.14142136
20
0.7974922
30
0
70
32
0
VERTEX
8
0
62
5
10
0.21213203
20
0.79749214
30
0
70
32
0
VERTEX
8
0
62
5
10
0.28284271
20
0.82678146
30
0
70
32
0
SEQEND
8
0
0
POLYLINE
8
0
62
5
66
1
10
0
20
0
30
0
70
8
0
VERTEX
8
0
62
5
10
-3.2381784e-12
20
0.75607084
30
0
70
32
0
VERTEX
8
0
62
5
10
0.070710678
20
0.75607078
30
0
70
32
0
VERTEX
8
0
62
5
10
0.14142136
20
0.78536011
30
0
70
32
0
VERTEX
8
0
62
5
10
0.21213203
20
0.78536017
30
0
70
32
0
VERTEX
8
0
62
5
10
0.28284271
20
0.75607084
30
0
70
32
0
SEQEND
8
0
0
POLYLINE
8
0
62
5
66
1
10
0
20
0
30
0
70
8
0
VERTEX
8
0
62
5
10
-3.2381784e-12
20
0.82678158
30
0
70
32
0
VERTEX
8
0
62
5
10
0.070710678
20
0.82678152
30
0
70
32
0
VERTEX
8
0
62
5
10
0.14142136
20
0.85607084
30
0
70
32
0
VERTEX
8
0
62
5
10
0.21213203
20
0.8560709
30
0
70
32
0
VERTEX
8
0
62
5
10
0.28284271
20
0.82678158
30
0
70
32
0
SEQEND
8
0
0
POLYLINE
8
0
62
30
66
1
10
0
20
0
30
0
70
8
0
VERTEX
8
0
62
30
10
-3.2381784e-12
20
0.75607078
30
0
70
32
0
VERTEX
8
0
62
30
10
0.28284271
20
0.75607078
30
0
70
32
0
SEQEND
8
0
0
POLYLINE
8
0
62
30
66
1
10
0
20
0
30
0
70
8
0
VERTEX
8
0
62
30
10
-3.2381784e-12
20
0.82678152
30
0
70
32
0
VERTEX
8
0
62
30
10
0.28284271
20
0.82678152
30
0
70
32
0
SEQEND
8
0
0
POLYLINE
8
0
62
30
66
1
10
0
20
0
30
0
70
8
0
VERTEX
8
0
62
30
10
0.070710678
20
0.75607078
30
0
70
32
0
VERTEX
8
0
62
30
10
0.070710678
20
0.75607078
30
0
70
32
0
SEQEND
8
0
0
POLYLINE
8
0
62
30
66
1
10
0
20
0
30
0
70
8
0
VERTEX
8
0
62
30
10
0.14142136
20
0.72678146
30
0
70
32
0
VERTEX
8
0
62
30
10
0.14142136
20
0.75607078
30
0
70
32
0
SEQEND
8
0
0
POLYLINE
8
0
62
30
66
1
10
0
20
0
30
0
70
8
0
VERTEX
8
0
62
30
10
0.21213203
20
0.7267814
30
0
70
32
0
VERTEX
8
0
62
30
10
0.21213203
20
0.75607078
30
0
70
32
0
SEQEND
8
0
0
POLYLINE
8
0
62
30
66
1
10
0
20
0
30
0
70
8
0
VERTEX
8
0
62
30
10
0.070710678
20
0.82678152
30
0
70
32
0
VERTEX
8
0
62
30
10
0.070710678
20
0.82678152
30
0
70
32
0
SEQEND
8
0
0
POLYLINE
8
0
62
30
66
1
10
0
20
0
30
0
70
8
0
VERTEX
8
0
62
30
10
0.14142136
20
0.7974922
30
0
70
32
0
VERTEX
8
0
62
30
10
0.14142136
20
0.82678152
30
0
70
32
0
SEQEND
8
0
0
POLYLINE
8
0
62
30
66
1
10
0
20
0
30
0
70
8
0
VERTEX
8
0
62
30
10
0.21213203
20
0.79749214
30
0
70
32
0
VERTEX
8
0
62
30
10
0.21213203
20
0.82678152
30
0
70
32
0
SEQEND
8
0
0
POLYLINE
8
0
62
5
66
1
10
0
20
0
30
0
70
8
0
VERTEX
8
0
62
5
10
0.070710678
20
0.72071542
30
0
70
32
0
VERTEX
8
0
62
5
10
0.070710678
20
0.75607078
30
0
70
32
0
SEQEND
8
0
0
POLYLINE
8
0
62
5
66
1
10
0
20
0
30
0
70
8
0
VERTEX
8
0
62
5
10
0.14142136
20
0.72071542
30
0
70
32
0
VERTEX
8
0
62
5
10
0.14142136
20
0.72678146
30
0
70
32
0
SEQEND
8
0
0
POLYLINE
8
0
62
5
66
1
10
0
20
0
30
0
70
8
0
VERTEX
8
0
62
5
10
0.21213203
20
0.72071542
30
0
70
32
0
VERTEX
8
0
62
5
10
0.21213203
20
0.7267814
30
0
70
32
0
SEQEND
8
0
0
POLYLINE
8
0
62
5
66
1
10
0
20
0
30
0
70
8
0
VERTEX
8
0
62
5
10
0.070710678
20
0.79142615
30
0
70
32
0
VERTEX
8
0
62
5
10
0.070710678
20
0.82678152
30
0
70
32
0
SEQEND
8
0
0
POLYLINE
8
0
62
5
66
1
10
0
20
0
30
0
70
8
0
VERTEX
8
0
62
5
10
0.14142136
20
0.79142615
30
0
70
32
0
VERTEX
8
0
62
5
10
0.14142136
20
0.7974922
30
0
70
32
0
SEQEND
8
0
0
POLYLINE
8
0
62
5
66
1
10
0
20
0
30
0
70
8
0
VERTEX
8
0
62
5
10
0.21213203
20
0.79142615
30
0
70
32
0
VERTEX
8
0
62
5
10
0.21213203
20
0.79749214
30
0
70
32
0
SEQEND
8
0
0
POLYLINE
8
0
62
5
66
1
10
0
20
0
30
0
70
8
0
VERTEX
8
0
62
5
10
0.070710678
20
0.75607078
30
0
70
32
0
VERTEX
8
0
62
5
10
0.070710678
20
0.79142615
30
0
70
32
0
SEQEND
8
0
0
POLYLINE
8
0
62
5
66
1
10
0
20
0
30
0
70
8
0
VERTEX
8
0
62
5
10
0.14142136
20
0.75607078
30
0
70
32
0
VERTEX
8
0
62
5
10
0.14142136
20
0.79142615
30
0
70
32
0
SEQEND
8
0
0
POLYLINE
8
0
62
5
66
1
10
0
20
0
30
0
70
8
0
VERTEX
8
0
62
5
10
0.21213203
20
0.75607078
30
0
70
32
0
VERTEX
8
0
62
5
10
0.21213203
20
0.79142615
30
0
70
32
0
SEQEND
8
0
0
POLYLINE
8
0
62
5
66
1
10
0
20
0
30
0
70
8
0
VERTEX
8
0
62
5
10
0.070710678
20
0.82678152
30
0
70
32
0
VERTEX
8
0
62
5
10
0.070710678
20
0.86213689
30
0
70
32
0
SEQEND
8
0
0
POLYLINE
8
0
62
5
66
1
10
0
20
0
30
0
70
8
0
VERTEX
8
0
62
5
10
0.14142136
20
0.82678152
30
0
70
32
0
VERTEX
8
0
62
5
10
0.14142136
20
0.86213689
30
0
70
32
0
SEQEND
8
0
0
POLYLINE
8
0
62
5
66
1
10
0
20
0
30
0
70
8
0
VERTEX
8
0
62
5
10
0.21213203
20
0.82678152
30
0
70
32
0
VERTEX
8
0
62
5
10
0.21213203
20
0.86213689
30
0
70
32
0
SEQEND
8
0
0
POLYLINE
8
0
62
30
66
1
10
0
20
0
30
0
70
8
0
VERTEX
8
0
62
30
10
-3.2381784e-12
20
0.75607072
30
0
70
32
0
VERTEX
8
0
62
30
10
8.8622545e-08
20
0.75607078
30
0
70
32
0
VERTEX
8
0
62
30
10
-3.2381784e-12
20
0.75607084
30
0
70
32
0
SEQEND
8
0
0
POLYLINE
8
0
62
30
66
1
10
0
20
0
30
0
70
8
0
VERTEX
8
0
62
30
10
0.070710678
20
0.75607078
30
0
70
32
0
VERTEX
8
0
62
30
10
0.070710678
20
0.75607078
30
0
70
32
0
VERTEX
8
0
62
30
10
0.070710678
20
0.75607078
30
0
70
32
0
SEQEND
8
0
0
POLYLINE
8
0
62
30
66
1
10
0
20
0
30
0
70
8
0
VERTEX
8
0
62
30
10
0.14142136
20
0.72678146
30
0
70
32
0
VERTEX
8
0
62
30
10
0.16099187
20
0.75607078
30
0
70
32
0
VERTEX
8
0
62
30
10
0.14142136
20
0.78536011
30
0
70
32
0
SEQEND
8
0
0
POLYLINE
8
0
62
30
66
1
10
0
20
0
30
0
70
8
0
VERTEX
8
0
62
30
10
0.21213203
20
0.7267814
30
0
70
32
0
VERTEX
8
0
62
30
10
0.23170256
20
0.75607078
30
0
70
32
0
VERTEX
8
0
62
30
10
0.21213203
20
0.78536017
30
0
70
32
0
SEQEND
8
0
0
POLYLINE
8
0
62
30
66
1
10
0
20
0
30
0
70
8
0
VERTEX
8
0
62
30
10
-3.2381784e-12
20
0.82678146
30
0
70
32
0
VERTEX
8
0
62
30
10
8.8622545e-08
20
0.82678152
30
0
70
32
0
VERTEX
8
0
62
30
10
-3.2381784e-12
20
0.82678158
30
0
70
32
0
SEQEND
8
0
0
POLYLINE
8
0
62
30
66
1
10
0
20
0
30
0
70
8
0
VERTEX
8
0
62
30
10
0.070710678
20
0.82678152
30
0
70
32
0
VERTEX
8
0
62
30
10
0.070710678
20
0.82678152
30
0
70
32
0
VERTEX
8
0
62
30
10
0.070710678
20
0.82678152
30
0
70
32
0
SEQEND
8
0
0
POLYLINE
8
0
62
30
66
1
10
0
20
0
30
0
70
8
0
VERTEX
8
0
62
30
10
0.14142136
20
0.7974922
30
0
70
32
0
VERTEX
8
0
62
30
10
0.16099187
20
0.82678152
30
0
70
32
0
VERTEX
8
0
62
30
10
0.14142136
20
0.85607084
30
0
70
32
0
SEQEND
8
0
0
POLYLINE
8
0
62
30
66
1
10
0
20
0
30
0
70
8
0
VERTEX
8
0
62
30
10
0.21213203
20
0.79749214
30
0
70
32
0
VERTEX
8
0
62
30
10
0.23170256
20
0.82678152
30
0
70
32
0
VERTEX
8
0
62
30
10
0.21213203
20
0.8560709
30
0
70
32
0
SEQEND
8
0
0
POLYLINE
8
0
62
5
66
1
10
0
20
0
30
0
70
8
0
VERTEX
8
0
62
5
10
0.56568542
20
0.86213689
30
0
70
32
0
VERTEX
8
0
62
5
10
0.56568542
20
0.72071542
30
0
70
32
0
SEQEND
8
0
0
POLYLINE
8
0
62
5
66
1
10
0
20
0
30
0
70
8
0
VERTEX
8
0
62
5
10
0.28284271
20
0.75607072
30
0
70
32
0
VERTEX
8
0
62
5
10
0.35355339
20
0.75607078
30
0
70
32
0
VERTEX
8
0
62
5
10
0.42426407
20
0.72678146
30
0
70
32
0
VERTEX
8
0
62
5
10
0.49497475
20
0.7267814
30
0
70
32
0
VERTEX
8
0
62
5
10
0.56568542
20
0.75607072
30
0
70
32
0
SEQEND
8
0
0
POLYLINE
8
0
62
5
66
1
10
0
20
0
30
0
70
8
0
VERTEX
8
0
62
5
10
0.28284271
20
0.82678146
30
0
70
32
0
VERTEX
8
0
62
5
10
0.35355339
20
0.82678152
30
0
70
32
0
VERTEX
8
0
62
5
10
0.42426407
20
0.7974922
30
0
70
32
0
VERTEX
8
0
62
5
10
0.49497475
20
0.79749214
30
0
70
32
0
VERTEX
8
0
62
5
10
0.56568542
20
0.82678146
30
0
70
32
0
SEQEND
8
0
0
POLYLINE
8
0
62
5
66
1
10
0
20
0
30
0
70
8
0
VERTEX
8
0
62
5
10
0.28284271
20
0.75607084
30
0
70
32
0
VERTEX
8
0
62
5
10
0.35355339
20
0.75607078
30
0
70
32
0
VERTEX
8
0
62
5
10
0.42426407
20
0.78536011
30
0
70
32
0
VERTEX
8
0
62
5
10
0.49497475
20
0.78536017
30
0
70
32
0
VERTEX
8
0
62
5
10
0.56568542
20
0.75607084
30
0
70
32
0
SEQEND
8
0
0
POLYLINE
8
0
62
5
66
1
10
0
20
0
30
0
70
8
0
VERTEX
8
0
62
5
10
0.28284271
20
0.82678158
30
0
70
32
0
VERTEX
8
0
62
5
10
0.35355339
20
0.82678152
30
0
70
32
0
VERTEX
8
0
62
5
10
0.42426407
20
0.85607084
30
0
70
32
0
VERTEX
8
0
62
5
10
0.49497475
20
0.8560709
30
0
70
32
0
VERTEX
8
0
62
5
10
0.56568542
20
0.82678158
30
0
70
32
0
SEQEND
8
0
0
POLYLINE
8
0
62
30
66
1
10
0
20
0
30
0
70
8
0
VERTEX
8
0
62
30
10
0.28284271
20
0.75607078
30
0
70
32
0
VERTEX
8
0
62
30
10
0.56568542
20
0.75607078
30
0
70
32
0
SEQEND
8
0
0
POLYLINE
8
0
62
30
66
1
10
0
20
0
30
0
70
8
0
VERTEX
8
0
62
30
10
0.28284271
20
0.82678152
30
0
70
32
0
VERTEX
8
0
62
30
10
0.56568542
20
0.82678152
30
0
70
32
0
SEQEND
8
0
0
POLYLINE
8
0
62
30
66
1
10
0
20
0
30
0
70
8
0
VERTEX
8
0
62
30
10
0.35355339
20
0.75607078
30
0
70
32
0
VERTEX
8
0
62
30
10
0.35355339
20
0.75607078
30
0
70
32
0
SEQEND
8
0
0
POLYLINE
8
0
62
30
66
1
10
0
20
0
30
0
70
8
0
VERTEX
8
0
62
30
10
0.42426407
20
0.72678146
30
0
70
32
0
VERTEX
8
0
62
30
10
0.42426407
20
0.75607078
30
0
70
32
0
SEQEND
8
0
0
POLYLINE
8
0
62
30
66
1
10
0
20
0
30
0
70
8
0
VERTEX
8
0
62
30
10
0.49497475
20
0.7267814
30
0
70
32
0
VERTEX
8
0
62
30
10
0.49497475
20
0.75607078
30
0
70
32
0
SEQEND
8
0
0
POLYLINE
8
0
62
30
66
1
10
0
20
0
30
0
70
8
0
VERTEX
8
0
62
30
10
0.35355339
20
0.82678152
30
0
70
32
0
VERTEX
8
0
62
30
10
0.35355339
20
0.82678152
30
0
70
32
0
SEQEND
8
0
0
POLYLINE
8
0
62
30
66
1
10
0
20
0
30
0
70
8
0
VERTEX
8
0
62
30
10
0.42426407
20
0.7974922
30
0
70
32
0
VERTEX
8
0
62
30
10
0.42426407
20
0.82678152
30
0
70
32
0
SEQEND
8
0
0
POLYLINE
8
0
62
30
66
1
10
0
20
0
30
0
70
8
0
VERTEX
8
0
62
30
10
0.49497475
20
0.79749214
30
0
70
32
0
VERTEX
8
0
62
30
10
0.49497475
20
0.82678152
30
0
70
32
0
SEQEND
8
0
0
POLYLINE
8
0
62
5
66
1
10
0
20
0
30
0
70
8
0
VERTEX
8
0
62
5
10
0.35355339
20
0.72071542
30
0
70
32
0
VERTEX
8
0
62
5
10
0.35355339
20
0.75607078
30
0
70
32
0
SEQEND
8
0
0
POLYLINE
8
0
62
5
66
1
10
0
20
0
30
0
70
8
0
VERTEX
8
0
62
5
10
0.42426407
20
0.72071542
30
0
70
32
0
VERTEX
8
0
62
5
10
0.42426407
20
0.72678146
30
0
70
32
0
SEQEND
8
0
0
POLYLINE
8
0
62
5
66
1
10
0
20
0
30
0
70
8
0
VERTEX
8
0
62
5
10
0.49497475
20
0.72071542
30
0
70
32
0
VERTEX
8
0
62
5
10
0.49497475
20
0.7267814
30
0
70
32
0
SEQEND
8
0
0
POLYLINE
8
0
62
5
66
1
10
0
20
0
30
0
70
8
0
VERTEX
8
0
62
5
10
0.35355339
20
0.79142615
30
0
70
32
0
VERTEX
8
0
62
5
10
0.35355339
20
0.82678152
30
0
70
32
0
SEQEND
8
0
0
POLYLINE
8
0
62
5
66
1
10
0
20
0
30
0
70
8
0
VERTEX
8
0
62
5
10
0.42426407
20
0.79142615
30
0
70
32
0
VERTEX
8
0
62
5
10
0.42426407
20
0.7974922
30
0
70
32
0
SEQEND
8
0
0
POLYLINE
8
0
62
5
66
1
10
0
20
0
30
0
70
8
0
VERTEX
8
0
62
5
10
0.49497475
20
0.79142615
30
0
70
32
0
VERTEX
8
0
62
5
10
0.49497475
20
0.79749214
30
0
70
32
0
SEQEND
8
0
0
POLYLINE
8
0
62
5
66
1
10
0
20
0
30
0
70
8
0
VERTEX
8
0
62
5
10
0.35355339
20
0.75607078
30
0
70
32
0
VERTEX
8
0
62
5
10
0.35355339
20
0.79142615
30
0
70
32
0
SEQEND
8
0
0
POLYLINE
8
0
62
5
66
1
10
0
20
0
30
0
70
8
0
VERTEX
8
0
62
5
10
0.42426407
20
0.75607078
30
0
70
32
0
VERTEX
8
0
62
5
10
0.42426407
20
0.79142615
30
0
70
32
0
SEQEND
8
0
0
POLYLINE
8
0
62
5
66
1
10
0
20
0
30
0
70
8
0
VERTEX
8
0
62
5
10
0.49497475
20
0.75607078
30
0
70
32
0
VERTEX
8
0
62
5
10
0.49497475
20
0.79142615
30
0
70
32
0
SEQEND
8
0
0
POLYLINE
8
0
62
5
66
1
10
0
20
0
30
0
70
8
0
VERTEX
8
0
62
5
10
0.35355339
20
0.82678152
30
0
70
32
0
VERTEX
8
0
62
5
10
0.35355339
20
0.86213689
30
0
70
32
0
SEQEND
8
0
0
POLYLINE
8
0
62
5
66
1
10
0
20
0
30
0
70
8
0
VERTEX
8
0
62
5
10
0.42426407
20
0.82678152
30
0
70
32
0
VERTEX
8
0
62
5
10
0.42426407
20
0.86213689
30
0
70
32
0
SEQEND
8
0
0
POLYLINE
8
0
62
5
66
1
10
0
20
0
30
0
70
8
0
VERTEX
8
0
62
5
10
0.49497475
20
0.82678152
30
0
70
32
0
VERTEX
8
0
62
5
10
0.49497475
20
0.86213689
30
0
70
32
0
SEQEND
8
0
0
POLYLINE
8
0
62
30
66
1
10
0
20
0
30
0
70
8
0
VERTEX
8
0
62
30
10
0.28284271
20
0.75607072
30
0
70
32
0
VERTEX
8
0
62
30
10
0.2828428
20
0.75607078
30
0
70
32
0
VERTEX
8
0
62
30
10
0.28284271
20
0.75607084
30
0
70
32
0
SEQEND
8
0
0
POLYLINE
8
0
62
30
66
1
10
0
20
0
30
0
70
8
0
VERTEX
8
0
62
30
10
0.35355339
20
0.75607078
30
0
70
32
0
VERTEX
8
0
62
30
10
0.35355339
20
0.75607078
30
0
70
32
0
VERTEX
8
0
62
30
10
0.35355339
20
0.75607078
30
0
70
32
0
SEQEND
8
0
0
POLYLINE
8
0
62
30
66
1
10
0
20
0
30
0
70
8
0
VERTEX
8
0
62
30
10
0.42426407
20
0.72678146
30
0
70
32
0
VERTEX
8
0
62
30
10
0.44383458
20
0.75607078
30
0
70
32
0
VERTEX
8
0
62
30
10
0.42426407
20
0.78536011
30
0
70
32
0
SEQEND
8
0
0
POLYLINE
8
0
62
30
66
1
10
0
20
0
30
0
70
8
0
VERTEX
8
0
62
30
10
0.49497475
20
0.7267814
30
0
70
32
0
VERTEX
8
0
62
30
10
0.51454528
20
0.75607078
30
0
70
32
0
VERTEX
8
0
62
30
10
0.49497475
20
0.78536017
30
0
70
32
0
SEQEND
8
0
0
POLYLINE
8
0
62
30
66
1
10
0
20
0
30
0
70
8
0
VERTEX
8
0
62
30
10
0.28284271
20
0.82678146
30
0
70
32
0
VERTEX
8
0
62
30
10
0.2828428
20
0.82678152
30
0
70
32
0
VERTEX
8
0
62
30
10
0.28284271
20
0.82678158
30
0
70
32
0
SEQEND
8
0
0
POLYLINE
8
0
62
30
66
1
10
0
20
0
30
0
70
8
0
VERTEX
8
0
62
30
10
0.35355339
20
0.82678152
30
0
70
32
0
VERTEX
8
0
62
30
10
0.35355339
20
0.82678152
30
0
70
32
0
VERTEX
8
0
62
30
10
0.35355339
20
0.82678152
30
0
70
32
0
SEQEND
8
0
0
POLYLINE
8
0
62
30
66
1
10
0
20
0
30
0
70
8
0
VERTEX
8
0
62
30
10
0.42426407
20
0.7974922
30
0
70
32
0
VERTEX
8
0
62
30
10
0.44383458
20
0.82678152
30
0
70
32
0
VERTEX
8
0
62
30
10
0.42426407
20
0.85607084
30
0
70
32
0
SEQEND
8
0
0
POLYLINE
8
0
62
30
66
1
10
0
20
0
30
0
70
8
0
VERTEX
8
0
62
30
10
0.49497475
20
0.79749214
30
0
70
32
0
VERTEX
8
0
62
30
10
0.51454528
20
0.82678152
30
0
70
32
0
VERTEX
8
0
62
30
10
0.49497475
20
0.8560709
30
0
70
32
0
SEQEND
8
0
0
POLYLINE
8
0
62
5
66
1
10
0
20
0
30
0
70
8
0
VERTEX
8
0
62
5
10
-0.28284271
20
0.72071542
30
0
70
32
0
VERTEX
8
0
62
5
10
-0.28284271
20
0.86213689
30
0
70
32
0
SEQEND
8
0
0
POLYLINE
8
0
62
5
66
1
10
0
20
0
30
0
70
8
0
VERTEX
8
0
62
5
10
-0.28284271
20
0.75607072
30
0
70
32
0
VERTEX
8
0
62
5
10
-0.21213203
20
0.75607078
30
0
70
32
0
VERTEX
8
0
62
5
10
-0.14142136
20
0.72678146
30
0
70
32
0
VERTEX
8
0
62
5
10
-0.070710678
20
0.7267814
30
0
70
32
0
VERTEX
8
0
62
5
10
-3.2381875e-12
20
0.75607072
30
0
70
32
0
SEQEND
8
0
0
POLYLINE
8
0
62
5
66
1
10
0
20
0
30
0
70
8
0
VERTEX
8
0
62
5
10
-0.28284271
20
0.82678146
30
0
70
32
0
VERTEX
8
0
62
5
10
-0.21213203
20
0.82678152
30
0
70
32
0
VERTEX
8
0
62
5
10
-0.14142136
20
0.7974922
30
0
70
32
0
VERTEX
8
0
62
5
10
-0.070710678
20
0.79749214
30
0
70
32
0
VERTEX
8
0
62
5
10
-3.2381875e-12
20
0.82678146
30
0
70
32
0
SEQEND
8
0
0
POLYLINE
8
0
62
5
66
1
10
0
20
0
30
0
70
8
0
VERTEX
8
0
62
5
10
-0.28284271
20
0.75607084
30
0
70
32
0
VERTEX
8
0
62
5
10
-0.21213203
20
0.75607078
30
0
70
32
0
VERTEX
8
0
62
5
10
-0.14142136
20
0.78536011
30
0
70
32
0
VERTEX
8
0
62
5
10
-0.070710678
20
0.78536017
30
0
70
32
0
VERTEX
8
0
62
5
10
-3.2381875e-12
20
0.75607084
30
0
70
32
0
SEQEND
8
0
0
POLYLINE
8
0
62
5
66
1
10
0
20
0
30
0
70
8
0
VERTEX
8
0
62
5
10
-0.28284271
20
0.82678158
30
0
70
32
0
VERTEX
8
0
62
5
10
-0.21213203
20
0.82678152
30
0
70
32
0
VERTEX
8
0
62
5
10
-0.14142136
20
0.85607084
30
0
70
32
0
VERTEX
8
0
62
5
10
-0.070710678
20
0.8560709
30
0
70
32
0
VERTEX
8
0
62
5
10
-3.2381875e-12
20
0.82678158
30
0
70
32
0
SEQEND
8
0
0
POLYLINE
8
0
62
30
66
1
10
0
20
0
30
0
70
8
0
VERTEX
8
0
62
30
10
-0.28284271
20
0.75607078
30
0
70
32
0
VERTEX
8
0
62
30
10
-3.2381875e-12
20
0.75607078
30
0
70
32
0
SEQEND
8
0
0
POLYLINE
8
0
62
30
66
1
10
0
20
0
30
0
70
8
0
VERTEX
8
0
62
30
10
-0.28284271
20
0.82678152
30
0
70
32
0
VERTEX
8
0
62
30
10
-3.2381875e-12
20
0.82678152
30
0
70
32
0
SEQEND
8
0
0
POLYLINE
8
0
62
30
66
1
10
0
20
0
30
0
70
8
0
VERTEX
8
0
62
30
10
-0.21213203
20
0.75607078
30
0
70
32
0
VERTEX
8
0
62
30
10
-0.21213203
20
0.75607078
30
0
70
32
0
SEQEND
8
0
0
POLYLINE
8
0
62
30
66
1
10
0
20
0
30
0
70
8
0
VERTEX
8
0
62
30
10
-0.14142136
20
0.72678146
30
0
70
32
0
VERTEX
8
0
62
30
10
-0.14142136
20
0.75607078
30
0
70
32
0
SEQEND
8
0
0
POLYLINE
8
0
62
30
66
1
10
0
20
0
30
0
70
8
0
VERTEX
8
0
62
30
10
-0.070710678
20
0.7267814
30
0
70
32
0
VERTEX
8
0
62
30
10
-0.070710678
20
0.75607078
30
0
70
32
0
SEQEND
8
0
0
POLYLINE
8
0
62
30
66
1
10
0
20
0
30
0
70
8
0
VERTEX
8
0
62
30
10
-0.21213203
20
0.82678152
30
0
70
32
0
VERTEX
8
0
62
30
10
-0.21213203
20
0.82678152
30
0
70
32
0
SEQEND
8
0
0
POLYLINE
8
0
62
30
66
1
10
0
20
0
30
0
70
8
0
VERTEX
8
0
62
30
10
-0.14142136
20
0.7974922
30
0
70
32
0
VERTEX
8
0
62
30
10
-0.14142136
20
0.82678152
30
0
70
32
0
SEQEND
8
0
0
POLYLINE
8
0
62
30
66
1
10
0
20
0
30
0
70
8
0
VERTEX
8
0
62
30
10
-0.070710678
20
0.79749214
30
0
70
32
0
VERTEX
8
0
62
30
10
-0.070710678
20
0.82678152
30
0
70
32
0
SEQEND
8
0
0
POLYLINE
8
0
62
5
66
1
10
0
20
0
30
0
70
8
0
VERTEX
8
0
62
5
10
-0.21213203
20
0.72071542
30
0
70
32
0
VERTEX
8
0
62
5
10
-0.21213203
20
0.75607078
30
0
70
32
0
SEQEND
8
0
0
POLYLINE
8
0
62
5
66
1
10
0
20
0
30
0
70
8
0
VERTEX
8
0
62
5
10
-0.14142136
20
0.72071542
30
0
70
32
0
VERTEX
8
0
62
5
10
-0.14142136
20
0.72678146
30
0
70
32
0
SEQEND
8
0
0
POLYLINE
8
0
62
5
66
1
10
0
20
0
30
0
70
8
0
VERTEX
8
0
62
5
10
-0.070710678
20
0.72071542
30
0
70
32
0
VERTEX
8
0
62
5
10
-0.070710678
20
0.7267814
30
0
70
32
0
SEQEND
8
0
0
POLYLINE
8
0
62
5
66
1
10
0
20
0
30
0
70
8
0
VERTEX
8
0
62
5
10
-0.21213203
20
0.79142615
30
0
70
32
0
VERTEX
8
0
62
5
10
-0.21213203
20
0.82678152
30
0
70
32
0
SEQEND
8
0
0
POLYLINE
8
0
62
5
66
1
10
0
20
0
30
0
70
8
0
VERTEX
8
0
62
5
10
-0.14142136
20
0.79142615
30
0
70
32
0
VERTEX
8
0
62
5
10
-0.14142136
20
0.7974922
30
0
70
32
0
SEQEND
8
0
0
POLYLINE
8
0
62
5
66
1
10
0
20
0
30
0
70
8
0
VERTEX
8
0
62
5
10
-0.070710678
20
0.79142615
30
0
70
32
0
VERTEX
8
0
62
5
10
-0.070710678
20
0.79749214
30
0
70
32
0
SEQEND
8
0
0
POLYLINE
8
0
62
5
66
1
10
0
20
0
30
0
70
8
0
VERTEX
8
0
62
5
10
-0.21213203
20
0.75607078
30
0
70
32
0
VERTEX
8
0
62
5
10
-0.21213203
20
0.79142615
30
0
70
32
0
SEQEND
8
0
0
POLYLINE
8
0
62
5
66
1
10
0
20
0
30
0
70
8
0
VERTEX
8
0
62
5
10
-0.14142136
20
0.75607078
30
0
70
32
0
VERTEX
8
0
62
5
10
-0.14142136
20
0.79142615
30
0
70
32
0
SEQEND
8
0
0
POLYLINE
8
0
62
5
66
1
10
0
20
0
30
0
70
8
0
VERTEX
8
0
62
5
10
-0.070710678
20
0.75607078
30
0
70
32
0
VERTEX
8
0
62
5
10
-0.070710678
20
0.79142615
30
0
70
32
0
SEQEND
8
0
0
POLYLINE
8
0
62
5
66
1
10
0
20
0
30
0
70
8
0
VERTEX
8
0
62
5
10
-0.21213203
20
0.82678152
30
0
70
32
0
VERTEX
8
0
62
5
10
-0.21213203
20
0.86213689
30
0
70
32
0
SEQEND
8
0
0
POLYLINE
8
0
62
5
66
1
10
0
20
0
30
0
70
8
0
VERTEX
8
0
62
5
10
-0.14142136
20
0.82678152
30
0
70
32
0
VERTEX
8
0
62
5
10
-0.14142136
20
0.86213689
30
0
70
32
0
SEQEND
8
0
0
POLYLINE
8
0
62
5
66
1
10
0
20
0
30
0
70
8
0
VERTEX
8
0
62
5
10
-0.070710678
20
0.82678152
30
0
70
32
0
VERTEX
8
0
62
5
10
-0.070710678
20
0.86213689
30
0
70
32
0
SEQEND
8
0
0
POLYLINE
8
0
62
30
66
1
10
0
20
0
30
0
70
8
0
VERTEX
8
0
62
30
10
-0.28284271
20
0.75607072
30
0
70
32
0
VERTEX
8
0
62
30
10
-0.28284262
20
0.75607078
30
0
70
32
0
VERTEX
8
0
62
30
10
-0.28284271
20
0.75607084
30
0
70
32
0
SEQEND
8
0
0
POLYLINE
8
0
62
30
66
1
10
0
20
0
30
0
70
8
0
VERTEX
8
0
62
30
10
-0.21213203
20
0.75607078
30
0
70
32
0
VERTEX
8
0
62
30
10
-0.21213203
20
0.75607078
30
0
70
32
0
VERTEX
8
0
62
30
10
-0.21213203
20
0.75607078
30
0
70
32
0
SEQEND
8
0
0
POLYLINE
8
0
62
30
66
1
10
0
20
0
30
0
70
8
0
VERTEX
8
0
62
30
10
-0.14142136
20
0.72678146
30
0
70
32
0
VERTEX
8
0
62
30
10
-0.12185085
20
0.75607078
30
0
70
32
0
VERTEX
8
0
62
30
10
-0.14142136
20
0.78536011
30
0
70
32
0
SEQEND
8
0
0
POLYLINE
8
0
62
30
66
1
10
0
20
0
30
0
70
8
0
VERTEX
8
0
62
30
10
-0.070710678
20
0.7267814
30
0
70
32
0
VERTEX
8
0
62
30
10
-0.05114015
20
0.75607078
30
0
70
32
0
VERTEX
8
0
62
30
10
-0.070710678
20
0.78536017
30
0
70
32
0
SEQEND
8
0
0
POLYLINE
8
0
62
30
66
1
10
0
20
0
30
0
70
8
0
VERTEX
8
0
62
30
10
-0.28284271
20
0.82678146
30
0
70
32
0
VERTEX
8
0
62
30
10
-0.28284262
20
0.82678152
30
0
70
32
0
VERTEX
8
0
62
30
10
-0.28284271
20
0.82678158
30
0
70
32
0
SEQEND
8
0
0
POLYLINE
8
0
62
30
66
1
10
0
20
0
30
0
70
8
0
VERTEX
8
0
62
30
10
-0.21213203
20
0.82678152
30
0
70
32
0
VERTEX
8
0
62
30
10
-0.21213203
20
0.82678152
30
0
70
32
0
VERTEX
8
0
62
30
10
-0.21213203
20
0.82678152
30
0
70
32
0
SEQEND
8
0
0
POLYLINE
8
0
62
30
66
1
10
0
20
0
30
0
70
8
0
VERTEX
8
0
62
30
10
-0.14142136
20
0.7974922
30
0
70
32
0
VERTEX
8
0
62
30
10
-0.12185085
20
0.82678152
30
0
70
32
0
VERTEX
8
0
62
30
10
-0.14142136
20
0.85607084
30
0
70
32
0
SEQEND
8
0
0
POLYLINE
8
0
62
30
66
1
10
0
20
0
30
0
70
8
0
VERTEX
8
0
62
30
10
-0.070710678
20
0.79749214
30
0
70
32
0
VERTEX
8
0
62
30
10
-0.05114015
20
0.82678152
30
0
70
32
0
VERTEX
8
0
62
30
10
-0.070710678
20
0.8560709
30
0
70
32
0
SEQEND
8
0
0
POLYLINE
8
0
62
5
66
1
10
0
20
0
30
0
70
8
0
VERTEX
8
0
62
5
10
-3.2381784e-12
20
0.86213689
30
0
70
32
0
VERTEX
8
0
62
5
10
-3.2381784e-12
20
0.86213706
30
0
70
32
0
SEQEND
8
0
0
POLYLINE
8
0
62
5
66
1
10
0
20
0
30
0
70
8
0
VERTEX
8
0
62
5
10
0.070710678
20
0.86213689
30
0
70
32
0
VERTEX
8
0
62
5
10
0.070710678
20
0.86213706
30
0
70
32
0
SEQEND
8
0
0
POLYLINE
8
0
62
5
66
1
10
0
20
0
30
0
70
8
0
VERTEX
8
0
62
5
10
0.14142136
20
0.86213689
30
0
70
32
0
VERTEX
8
0
62
5
10
0.14142136
20
0.86213706
30
0
70
32
0
SEQEND
8
0
0
POLYLINE
8
0
62
5
66
1
10
0
20
0
30
0
70
8
0
VERTEX
8
0
62
5
10
0.21213203
20
0.86213689
30
0
70
32
0
VERTEX
8
0
62
5
10
0.21213203
20
0.86213706
30
0
70
32
0
SEQEND
8
0
0
POLYLINE
8
0
62
5
66
1
10
0
20
0
30
0
70
8
0
VERTEX
8
0
62
5
10
0.28284271
20
0.86213689
30
0
70
32
0
VERTEX
8
0
62
5
10
0.28284271
20
0.86213706
30
0
70
32
0
SEQEND
8
0
0
POLYLINE
8
0
62
5
66
1
10
0
20
0
30
0
70
8
0
VERTEX
8
0
62
5
10
0.070710678
20
0.86213689
30
0
70
32
0
VERTEX
8
0
62
5
10
0.070710678
20
0.86213689
30
0
70
32
0
SEQEND
8
0
0
POLYLINE
8
0
62
5
66
1
10
0
20
0
30
0
70
8
0
VERTEX
8
0
62
5
10
0.14142136
20
0.86213689
30
0
70
32
0
VERTEX
8
0
62
5
10
0.14142136
20
0.86213689
30
0
70
32
0
SEQEND
8
0
0
POLYLINE
8
0
62
5
66
1
10
0
20
0
30
0
70
8
0
VERTEX
8
0
62
5
10
0.21213203
20
0.86213689
30
0
70
32
0
VERTEX
8
0
62
5
10
0.21213203
20
0.86213689
30
0
70
32
0
SEQEND
8
0
0
POLYLINE
8
0
62
5
66
1
10
0
20
0
30
0
70
8
0
VERTEX
8
0
62
5
10
1.4296178e-07
20
0.86213706
30
0
70
32
0
VERTEX
8
0
62
5
10
1.4296178e-07
20
0.86213706
30
0
70
32
0
SEQEND
8
0
0
POLYLINE
8
0
62
5
66
1
10
0
20
0
30
0
70
8
0
VERTEX
8
0
62
5
10
0.070710821
20
0.86213706
30
0
70
32
0
VERTEX
8
0
62
5
10
0.070710821
20
0.86213706
30
0
70
32
0
SEQEND
8
0
0
POLYLINE
8
0
62
5
66
1
10
0
20
0
30
0
70
8
0
VERTEX
8
0
62
5
10
0.1414215
20
0.86213706
30
0
70
32
0
VERTEX
8
0
62
5
10
0.1414215
20
0.86213706
30
0
70
32
0
SEQEND
8
0
0
POLYLINE
8
0
62
5
66
1
10
0
20
0
30
0
70
8
0
VERTEX
8
0
62
5
10
0.21213218
20
0.86213706
30
0
70
32
0
VERTEX
8
0
62
5
10
0.21213218
20
0.86213706
30
0
70
32
0
SEQEND
8
0
0
POLYLINE
8
0
62
5
66
1
10
0
20
0
30
0
70
8
0
VERTEX
8
0
62
5
10
0.35355339
20
0.86213689
30
0
70
32
0
VERTEX
8
0
62
5
10
0.35355339
20
0.86213706
30
0
70
32
0
SEQEND
8
0
0
POLYLINE
8
0
62
5
66
1
10
0
20
0
30
0
70
8
0
VERTEX
8
0
62
5
10
0.42426407
20
0.86213689
30
0
70
32
0
VERTEX
8
0
62
5
10
0.42426407
20
0.86213706
30
0
70
32
0
SEQEND
8
0
0
POLYLINE
8
0
62
5
66
1
10
0
20
0
30
0
70
8
0
VERTEX
8
0
62
5
10
0.49497475
20
0.86213689
30
0
70
32
0
VERTEX
8
0
62
5
10
0.49497475
20
0.86213706
30
0
70
32
0
SEQEND
8
0
0
POLYLINE
8
0
62
5
66
1
10
0
20
0
30
0
70
8
0
VERTEX
8
0
62
5
10
0.56568542
20
0.86213689
30
0
70
32
0
VERTEX
8
0
62
5
10
0.56568542
20
0.86213706
30
0
70
32
0
SEQEND
8
0
0
POLYLINE
8
0
62
5
66
1
10
0
20
0
30
0
70
8
0
VERTEX
8
0
62
5
10
0.35355339
20
0.86213689
30
0
70
32
0
VERTEX
8
0
62
5
10
0.35355339
20
0.86213689
30
0
70
32
0
SEQEND
8
0
0
POLYLINE
8
0
62
5
66
1
10
0
20
0
30
0
70
8
0
VERTEX
8
0
62
5
10
0.42426407
20
0.86213689
30
0
70
32
0
VERTEX
8
0
62
5
10
0.42426407
20
0.86213689
30
0
70
32
0
SEQEND
8
0
0
POLYLINE
8
0
62
5
66
1
10
0
20
0
30
0
70
8
0
VERTEX
8
0
62
5
10
0.49497475
20
0.86213689
30
0
70
32
0
VERTEX
8
0
62
5
10
0.49497475
20
0.86213689
30
0
70
32
0
SEQEND
8
0
0
POLYLINE
8
0
62
5
66
1
10
0
20
0
30
0
70
8
0
VERTEX
8
0
62
5
10
0.28284286
20
0.86213706
30
0
70
32
0
VERTEX
8
0
62
5
10
0.28284286
20
0.86213706
30
0
70
32
0
SEQEND
8
0
0
POLYLINE
8
0
62
5
66
1
10
0
20
0
30
0
70
8
0
VERTEX
8
0
62
5
10
0.35355353
20
0.86213706
30
0
70
32
0
VERTEX
8
0
62
5
10
0.35355353
20
0.86213706
30
0
70
32
0
SEQEND
8
0
0
POLYLINE
8
0
62
5
66
1
10
0
20
0
30
0
70
8
0
VERTEX
8
0
62
5
10
0.42426421
20
0.86213706
30
0
70
32
0
VERTEX
8
0
62
5
10
0.42426421
20
0.86213706
30
0
70
32
0
SEQEND
8
0
0
POLYLINE
8
0
62
5
66
1
10
0
20
0
30
0
70
8
0
VERTEX
8
0
62
5
10
0.49497489
20
0.86213706
30
0
70
32
0
VERTEX
8
0
62
5
10
0.49497489
20
0.86213706
30
0
70
32
0
SEQEND
8
0
0
POLYLINE
8
0
62
5
66
1
10
0
20
0
30
0
70
8
0
VERTEX
8
0
62
5
10
-0.21213203
20
0.86213689
30
0
70
32
0
VERTEX
8
0
62
5
10
-0.21213203
20
0.86213706
30
0
70
32
0
SEQEND
8
0
0
POLYLINE
8
0
62
5
66
1
10
0
20
0
30
0
70
8
0
VERTEX
8
0
62
5
10
-0.14142136
20
0.86213689
30
0
70
32
0
VERTEX
8
0
62
5
10
-0.14142136
20
0.86213706
30
0
70
32
0
SEQEND
8
0
0
POLYLINE
8
0
62
5
66
1
10
0
20
0
30
0
70
8
0
VERTEX
8
0
62
5
10
-0.070710678
20
0.86213689
30
0
70
32
0
VERTEX
8
0
62
5
10
-0.070710678
20
0.86213706
30
0
70
32
0
SEQEND
8
0
0
POLYLINE
8
0
62
5
66
1
10
0
20
0
30
0
70
8
0
VERTEX
8
0
62
5
10
-3.2381875e-12
20
0.86213689
30
0
70
32
0
VERTEX
8
0
62
5
10
-3.2381875e-12
20
0.86213706
30
0
70
32
0
SEQEND
8
0
0
POLYLINE
8
0
62
5
66
1
10
0
20
0
30
0
70
8
0
VERTEX
8
0
62
5
10
-0.21213203
20
0.86213689
30
0
70
32
0
VERTEX
8
0
62
5
10
-0.21213203
20
0.86213689
30
0
70
32
0
SEQEND
8
0
0
POLYLINE
8
0
62
5
66
1
10
0
20
0
30
0
70
8
0
VERTEX
8
0
62
5
10
-0.14142136
20
0.86213689
30
0
70
32
0
VERTEX
8
0
62
5
10
-0.14142136
20
0.86213689
30
0
70
32
0
SEQEND
8
0
0
POLYLINE
8
0
62
5
66
1
10
0
20
0
30
0
70
8
0
VERTEX
8
0
62
5
10
-0.070710678
20
0.86213689
30
0
70
32
0
VERTEX
8
0
62
5
10
-0.070710678
20
0.86213689
30
0
70
32
0
SEQEND
8
0
0
POLYLINE
8
0
62
5
66
1
10
0
20
0
30
0
70
8
0
VERTEX
8
0
62
5
10
-0.28284257
20
0.86213706
30
0
70
32
0
VERTEX
8
0
62
5
10
-0.28284257
20
0.86213706
30
0
70
32
0
SEQEND
8
0
0
POLYLINE
8
0
62
5
66
1
10
0
20
0
30
0
70
8
0
VERTEX
8
0
62
5
10
-0.21213189
20
0.86213706
30
0
70
32
0
VERTEX
8
0
62
5
10
-0.21213189
20
0.86213706
30
0
70
32
0
SEQEND
8
0
0
POLYLINE
8
0
62
5
66
1
10
0
20
0
30
0
70
8
0
VERTEX
8
0
62
5
10
-0.14142121
20
0.86213706
30
0
70
32
0
VERTEX
8
0
62
5
10
-0.14142121
20
0.86213706
30
0
70
32
0
SEQEND
8
0
0
POLYLINE
8
0
62
5
66
1
10
0
20
0
30
0
70
8
0
VERTEX
8
0
62
5
10
-0.070710535
20
0.86213706
30
0
70
32
0
VERTEX
8
0
62
5
10
-0.070710535
20
0.86213706
30
0
70
32
0
SEQEND
8
0
0
POLYLINE
8
0
62
5
66
1
10
0
20
0
30
0
70
8
0
VERTEX
8
0
62
5
10
1.4296178e-07
20
0.86213706
30
0
70
32
0
VERTEX
8
0
62
5
10
1.4296178e-07
20
0.86213741
30
0
70
32
0
SEQEND
8
0
0
POLYLINE
8
0
62
5
66
1
10
0
20
0
30
0
70
8
0
VERTEX
8
0
62
5
10
0.28284286
20
0.86213706
30
0
70
32
0
VERTEX
8
0
62
5
10
0.28284286
20
0.86213741
30
0
70
32
0
SEQEND
8
0
0
POLYLINE
8
0
62
5
66
1
10
0
20
0
30
0
70
8
0
VERTEX
8
0
62
5
10
0.070710821
20
0.86213706
30
0
70
32
0
VERTEX
8
0
62
5
10
0.070710821
20
0.86213741
30
0
70
32
0
SEQEND
8
0
0
POLYLINE
8
0
62
5
66
1
10
0
20
0
30
0
70
8
0
VERTEX
8
0
62
5
10
0.1414215
20
0.86213706
30
0
70
32
0
VERTEX
8
0
62
5
10
0.1414215
20
0.86213741
30
0
70
32
0
SEQEND
8
0
0
POLYLINE
8
0
62
5
66
1
10
0
20
0
30
0
70
8
0
VERTEX
8
0
62
5
10
0.21213218
20
0.86213706
30
0
70
32
0
VERTEX
8
0
62
5
10
0.21213218
20
0.86213741
30
0
70
32
0
SEQEND
8
0
0
POLYLINE
8
0
62
5
66
1
10
0
20
0
30
0
70
8
0
VERTEX
8
0
62
5
10
0.56568557
20
0.86213706
30
0
70
32
0
VERTEX
8
0
62
5
10
0.56568557
20
0.86213741
30
0
70
32
0
SEQEND
8
0
0
POLYLINE
8
0
62
5
66
1
10
0
20
0
30
0
70
8
0
VERTEX
8
0
62
5
10
0.35355353
20
0.86213706
30
0
70
32
0
VERTEX
8
0
62
5
10
0.35355353
20
0.86213741
30
0
70
32
0
SEQEND
8
0
0
POLYLINE
8
0
62
5
66
1
10
0
20
0
30
0
70
8
0
VERTEX
8
0
62
5
10
0.42426421
20
0.86213706
30
0
70
32
0
VERTEX
8
0
62
5
10
0.42426421
20
0.86213741
30
0
70
32
0
SEQEND
8
0
0
POLYLINE
8
0
62
5
66
1
10
0
20
0
30
0
70
8
0
VERTEX
8
0
62
5
10
0.49497489
20
0.86213706
30
0
70
32
0
VERTEX
8
0
62
5
10
0.49497489
20
0.86213741
30
0
70
32
0
SEQEND
8
0
0
POLYLINE
8
0
62
5
66
1
10
0
20
0
30
0
70
8
0
VERTEX
8
0
62
5
10
-0.28284257
20
0.86213706
30
0
70
32
0
VERTEX
8
0
62
5
10
-0.28284257
20
0.86213741
30
0
70
32
0
SEQEND
8
0
0
POLYLINE
8
0
62
5
66
1
10
0
20
0
30
0
70
8
0
VERTEX
8
0
62
5
10
-0.21213189
20
0.86213706
30
0
70
32
0
VERTEX
8
0
62
5
10
-0.21213189
20
0.86213741
30
0
70
32
0
SEQEND
8
0
0
POLYLINE
8
0
62
5
66
1
10
0
20
0
30
0
70
8
0
VERTEX
8
0
62
5
10
-0.14142121
20
0.86213706
30
0
70
32
0
VERTEX
8
0
62
5
10
-0.14142121
20
0.86213741
30
0
70
32
0
SEQEND
8
0
0
POLYLINE
8
0
62
5
66
1
10
0
20
0
30
0
70
8
0
VERTEX
8
0
62
5
10
-0.070710535
20
0.86213706
30
0
70
32
0
VERTEX
8
0
62
5
10
-0.070710535
20
0.86213741
30
0
70
32
0
SEQEND
8
0
0
POLYLINE
8
0
62
5
66
1
10
0
20
0
30
0
70
8
0
VERTEX
8
0
62
5
10
1.4296178e-07
20
0.86213741
30
0
70
32
0
VERTEX
8
0
62
5
10
1.4296178e-07
20
1.0328482
30
0
70
32
0
SEQEND
8
0
0
POLYLINE
8
0
62
5
66
1
10
0
20
0
30
0
70
8
0
VERTEX
8
0
62
5
10
0.28284286
20
1.0328482
30
0
70
32
0
VERTEX
8
0
62
5
10
0.28284286
20
0.86213741
30
0
70
32
0
SEQEND
8
0
0
POLYLINE
8
0
62
5
66
1
10
0
20
0
30
0
70
8
0
VERTEX
8
0
62
5
10
1.4296178e-07
20
0.94749282
30
0
70
32
0
VERTEX
8
0
62
5
10
0.070710821
20
0.94749268
30
0
70
32
0
VERTEX
8
0
62
5
10
0.1414215
20
0.876782
30
0
70
32
0
VERTEX
8
0
62
5
10
0.21213218
20
0.87678214
30
0
70
32
0
VERTEX
8
0
62
5
10
0.28284286
20
0.94749282
30
0
70
32
0
SEQEND
8
0
0
POLYLINE
8
0
62
5
66
1
10
0
20
0
30
0
70
8
0
SEQEND
8
0
0
POLYLINE
8
0
62
5
66
1
10
0
20
0
30
0
70
8
0
VERTEX
8
0
62
5
10
1.4296178e-07
20
0.94749282
30
0
70
32
0
VERTEX
8
0
62
5
10
0.070710821
20
0.94749296
30
0
70
32
0
VERTEX
8
0
62
5
10
0.1414215
20
1.0182036
30
0
70
32
0
VERTEX
8
0
62
5
10
0.21213218
20
1.0182035
30
0
70
32
0
VERTEX
8
0
62
5
10
0.28284286
20
0.94749282
30
0
70
32
0
SEQEND
8
0
0
POLYLINE
8
0
62
30
66
1
10
0
20
0
30
0
70
8
0
VERTEX
8
0
62
30
10
1.4296178e-07
20
0.94749282
30
0
70
32
0
VERTEX
8
0
62
30
10
0.28284286
20
0.94749282
30
0
70
32
0
SEQEND
8
0
0
POLYLINE
8
0
62
30
66
1
10
0
20
0
30
0
70
8
0
VERTEX
8
0
62
30
10
0.070710821
20
0.94749268
30
0
70
32
0
VERTEX
8
0
62
30
10
0.070710821
20
0.94749282
30
0
70
32
0
SEQEND
8
0
0
POLYLINE
8
0
62
30
66
1
10
0
20
0
30
0
70
8
0
VERTEX
8
0
62
30
10
0.1414215
20
0.876782
30
0
70
32
0
VERTEX
8
0
62
30
10
0.1414215
20
0.94749282
30
0
70
32
0
SEQEND
8
0
0
POLYLINE
8
0
62
30
66
1
10
0
20
0
30
0
70
8
0
VERTEX
8
0
62
30
10
0.21213218
20
0.87678214
30
0
70
32
0
VERTEX
8
0
62
30
10
0.21213218
20
0.94749282
30
0
70
32
0
SEQEND
8
0
0
POLYLINE
8
0
62
5
66
1
10
0
20
0
30
0
70
8
0
VERTEX
8
0
62
5
10
0.070710821
20
0.86213741
30
0
70
32
0
VERTEX
8
0
62
5
10
0.070710821
20
0.94749268
30
0
70
32
0
SEQEND
8
0
0
POLYLINE
8
0
62
5
66
1
10
0
20
0
30
0
70
8
0
VERTEX
8
0
62
5
10
0.1414215
20
0.86213741
30
0
70
32
0
VERTEX
8
0
62
5
10
0.1414215
20
0.876782
30
0
70
32
0
SEQEND
8
0
0
POLYLINE
8
0
62
5
66
1
10
0
20
0
30
0
70
8
0
VERTEX
8
0
62
5
10
0.21213218
20
0.86213741
30
0
70
32
0
VERTEX
8
0
62
5
10
0.21213218
20
0.87678214
30
0
70
32
0
SEQEND
8
0
0
POLYLINE
8
0
62
5
66
1
10
0
20
0
30
0
70
8
0
VERTEX
8
0
62
5
10
0.070710821
20
0.94749282
30
0
70
32
0
VERTEX
8
0
62
5
10
0.070710821
20
1.0328482
30
0
70
32
0
SEQEND
8
0
0
POLYLINE
8
0
62
5
66
1
10
0
20
0
30
0
70
8
0
VERTEX
8
0
62
5
10
0.1414215
20
0.94749282
30
0
70
32
0
VERTEX
8
0
62
5
10
0.1414215
20
1.0328482
30
0
70
32
0
SEQEND
8
0
0
POLYLINE
8
0
62
5
66
1
10
0
20
0
30
0
70
8
0
VERTEX
8
0
62
5
10
0.21213218
20
0.94749282
30
0
70
32
0
VERTEX
8
0
62
5
10
0.21213218
20
1.0328482
30
0
70
32
0
SEQEND
8
0
0
POLYLINE
8
0
62
30
66
1
10
0
20
0
30
0
70
8
0
VERTEX
8
0
62
30
10
1.4296178e-07
20
0.94749282
30
0
70
32
0
VERTEX
8
0
62
30
10
1.4296178e-07
20
0.94749282
30
0
70
32
0
VERTEX
8
0
62
30
10
1.4296178e-07
20
0.94749282
30
0
70
32
0
SEQEND
8
0
0
POLYLINE
8
0
62
30
66
1
10
0
20
0
30
0
70
8
0
VERTEX
8
0
62
30
10
0.070710821
20
0.94749268
30
0
70
32
0
VERTEX
8
0
62
30
10
0.070711166
20
0.94749282
30
0
70
32
0
VERTEX
8
0
62
30
10
0.070710821
20
0.94749296
30
0
70
32
0
SEQEND
8
0
0
POLYLINE
8
0
62
30
66
1
10
0
20
0
30
0
70
8
0
VERTEX
8
0
62
30
10
0.1414215
20
0.876782
30
0
70
32
0
VERTEX
8
0
62
30
10
0.17071086
20
0.94749282
30
0
70
32
0
VERTEX
8
0
62
30
10
0.1414215
20
1.0182036
30
0
70
32
0
SEQEND
8
0
0
POLYLINE
8
0
62
30
66
1
10
0
20
0
30
0
70
8
0
VERTEX
8
0
62
30
10
0.21213218
20
0.87678214
30
0
70
32
0
VERTEX
8
0
62
30
10
0.24142152
20
0.94749282
30
0
70
32
0
VERTEX
8
0
62
30
10
0.21213218
20
1.0182035
30
0
70
32
0
SEQEND
8
0
0
POLYLINE
8
0
62
5
66
1
10
0
20
0
30
0
70
8
0
VERTEX
8
0
62
5
10
0.56568557
20
1.0328482
30
0
70
32
0
VERTEX
8
0
62
5
10
0.56568557
20
0.86213741
30
0
70
32
0
SEQEND
8
0
0
POLYLINE
8
0
62
5
66
1
10
0
20
0
30
0
70
8
0
VERTEX
8
0
62
5
10
0.28284286
20
0.94749282
30
0
70
32
0
VERTEX
8
0
62
5
10
0.35355353
20
0.94749268
30
0
70
32
0
VERTEX
8
0
62
5
10
0.42426421
20
0.876782
30
0
70
32
0
VERTEX
8
0
62
5
10
0.49497489
20
0.87678214
30
0
70
32
0
VERTEX
8
0
62
5
10
0.56568557
20
0.94749282
30
0
70
32
0
SEQEND
8
0
0
POLYLINE
8
0
62
5
66
1
10
0
20
0
30
0
70
8
0
SEQEND
8
0
0
POLYLINE
8
0
62
5
66
1
10
0
20
0
30
0
70
8
0
VERTEX
8
0
62
5
10
0.28284286
20
0.94749282
30
0
70
32
0
VERTEX
8
0
62
5
10
0.35355353
20
0.94749296
30
0
70
32
0
VERTEX
8
0
62
5
10
0.42426421
20
1.0182036
30
0
70
32
0
VERTEX
8
0
62
5
10
0.49497489
20
1.0182035
30
0
70
32
0
VERTEX
8
0
62
5
10
0.56568557
20
0.94749282
30
0
70
32
0
SEQEND
8
0
0
POLYLINE
8
0
62
30
66
1
10
0
20
0
30
0
70
8
0
VERTEX
8
0
62
30
10
0.28284286
20
0.94749282
30
0
70
32
0
VERTEX
8
0
62
30
10
0.56568557
20
0.94749282
30
0
70
32
0
SEQEND
8
0
0
POLYLINE
8
0
62
30
66
1
10
0
20
0
30
0
70
8
0
VERTEX
8
0
62
30
10
0.35355353
20
0.94749268
30
0
70
32
0
VERTEX
8
0
62
30
10
0.35355353
20
0.94749282
30
0
70
32
0
SEQEND
8
0
0
POLYLINE
8
0
62
30
66
1
10
0
20
0
30
0
70
8
0
VERTEX
8
0
62
30
10
0.42426421
20
0.876782
30
0
70
32
0
VERTEX
8
0
62
30
10
0.42426421
20
0.94749282
30
0
70
32
0
SEQEND
8
0
0
POLYLINE
8
0
62
30
66
1
10
0
20
0
30
0
70
8
0
VERTEX
8
0
62
30
10
0.49497489
20
0.87678214
30
0
70
32
0
VERTEX
8
0
62
30
10
0.49497489
20
0.94749282
30
0
70
32
0
SEQEND
8
0
0
POLYLINE
8
0
62
5
66
1
10
0
20
0
30
0
70
8
0
VERTEX
8
0
62
5
10
0.35355353
20
0.86213741
30
0
70
32
0
VERTEX
8
0
62
5
10
0.35355353
20
0.94749268
30
0
70
32
0
SEQEND
8
0
0
POLYLINE
8
0
62
5
66
1
10
0
20
0
30
0
70
8
0
VERTEX
8
0
62
5
10
0.42426421
20
0.86213741
30
0
70
32
0
VERTEX
8
0
62
5
10
0.42426421
20
0.876782
30
0
70
32
0
SEQEND
8
0
0
POLYLINE
8
0
62
5
66
1
10
0
20
0
30
0
70
8
0
VERTEX
8
0
62
5
10
0.49497489
20
0.86213741
30
0
70
32
0
VERTEX
8
0
62
5
10
0.49497489
20
0.87678214
30
0
70
32
0
SEQEND
8
0
0
POLYLINE
8
0
62
5
66
1
10
0
20
0
30
0
70
8
0
VERTEX
8
0
62
5
10
0.35355353
20
0.94749282
30
0
70
32
0
VERTEX
8
0
62
5
10
0.35355353
20
1.0328482
30
0
70
32
0
SEQEND
8
0
0
POLYLINE
8
0
62
5
66
1
10
0
20
0
30
0
70
8
0
VERTEX
8
0
62
5
10
0.42426421
20
0.94749282
30
0
70
32
0
VERTEX
8
0
62
5
10
0.42426421
20
1.0328482
30
0
70
32
0
SEQEND
8
0
0
POLYLINE
8
0
62
5
66
1
10
0
20
0
30
0
70
8
0
VERTEX
8
0
62
5
10
0.49497489
20
0.94749282
30
0
70
32
0
VERTEX
8
0
62
5
10
0.49497489
20
1.0328482
30
0
70
32
0
SEQEND
8
0
0
POLYLINE
8
0
62
30
66
1
10
0
20
0
30
0
70
8
0
VERTEX
8
0
62
30
10
0.28284286
20
0.94749282
30
0
70
32
0
VERTEX
8
0
62
30
10
0.28284286
20
0.94749282
30
0
70
32
0
VERTEX
8
0
62
30
10
0.28284286
20
0.94749282
30
0
70
32
0
SEQEND
8
0
0
POLYLINE
8
0
62
30
66
1
10
0
20
0
30
0
70
8
0
VERTEX
8
0
62
30
10
0.35355353
20
0.94749268
30
0
70
32
0
VERTEX
8
0
62
30
10
0.35355388
20
0.94749282
30
0
70
32
0
VERTEX
8
0
62
30
10
0.35355353
20
0.94749296
30
0
70
32
0
SEQEND
8
0
0
POLYLINE
8
0
62
30
66
1
10
0
20
0
30
0
70
8
0
VERTEX
8
0
62
30
10
0.42426421
20
0.876782
30
0
70
32
0
VERTEX
8
0
62
30
10
0.45355357
20
0.94749282
30
0
70
32
0
VERTEX
8
0
62
30
10
0.42426421
20
1.0182036
30
0
70
32
0
SEQEND
8
0
0
POLYLINE
8
0
62
30
66
1
10
0
20
0
30
0
70
8
0
VERTEX
8
0
62
30
10
0.49497489
20
0.87678214
30
0
70
32
0
VERTEX
8
0
62
30
10
0.52426424
20
0.94749282
30
0
70
32
0
VERTEX
8
0
62
30
10
0.49497489
20
1.0182035
30
0
70
32
0
SEQEND
8
0
0
POLYLINE
8
0
62
5
66
1
10
0
20
0
30
0
70
8
0
VERTEX
8
0
62
5
10
-0.28284257
20
0.86213741
30
0
70
32
0
VERTEX
8
0
62
5
10
-0.28284257
20
1.0328482
30
0
70
32
0
SEQEND
8
0
0
POLYLINE
8
0
62
5
66
1
10
0
20
0
30
0
70
8
0
VERTEX
8
0
62
5
10
-0.28284257
20
0.94749282
30
0
70
32
0
VERTEX
8
0
62
5
10
-0.21213189
20
0.94749268
30
0
70
32
0
VERTEX
8
0
62
5
10
-0.14142121
20
0.876782
30
0
70
32
0
VERTEX
8
0
62
5
10
-0.070710535
20
0.87678214
30
0
70
32
0
VERTEX
8
0
62
5
10
1.4296178e-07
20
0.94749282
30
0
70
32
0
SEQEND
8
0
0
POLYLINE
8
0
62
5
66
1
10
0
20
0
30
0
70
8
0
SEQEND
8
0
0
POLYLINE
8
0
62
5
66
1
10
0
20
0
30
0
70
8
0
VERTEX
8
0
62
5
10
-0.28284257
20
0.94749282
30
0
70
32
0
VERTEX
8
0
62
5
10
-0.21213189
20
0.94749296
30
0
70
32
0
VERTEX
8
0
62
5
10
-0.14142121
20
1.0182036
30
0
70
32
0
VERTEX
8
0
62
5
10
-0.070710535
20
1.0182035
30
0
70
32
0
VERTEX
8
0
62
5
10
1.4296178e-07
20
0.94749282
30
0
70
32
0
SEQEND
8
0
0
POLYLINE
8
0
62
30
66
1
10
0
20
0
30
0
70
8
0
VERTEX
8
0
62
30
10
-0.28284257
20
0.94749282
30
0
70
32
0
VERTEX
8
0
62
30
10
1.4296178e-07
20
0.94749282
30
0
70
32
0
SEQEND
8
0
0
POLYLINE
8
0
62
30
66
1
10
0
20
0
30
0
70
8
0
VERTEX
8
0
62
30
10
-0.21213189
20
0.94749268
30
0
70
32
0
VERTEX
8
0
62
30
10
-0.21213189
20
0.94749282
30
0
70
32
0
SEQEND
8
0
0
POLYLINE
8
0
62
30
66
1
10
0
20
0
30
0
70
8
0
VERTEX
8
0
62
30
10
-0.14142121
20
0.876782
30
0
70
32
0
VERTEX
8
0
62
30
10
-0.14142121
20
0.94749282
30
0
70
32
0
SEQEND
8
0
0
POLYLINE
8
0
62
30
66
1
10
0
20
0
30
0
70
8
0
VERTEX
8
0
62
30
10
-0.070710535
20
0.87678214
30
0
70
32
0
VERTEX
8
0
62
30
10
-0.070710535
20
0.94749282
30
0
70
32
0
SEQEND
8
0
0
POLYLINE
8
0
62
5
66
1
10
0
20
0
30
0
70
8
0
VERTEX
8
0
62
5
10
-0.21213189
20
0.86213741
30
0
70
32
0
VERTEX
8
0
62
5
10
-0.21213189
20
0.94749268
30
0
70
32
0
SEQEND
8
0
0
POLYLINE
8
0
62
5
66
1
10
0
20
0
30
0
70
8
0
VERTEX
8
0
62
5
10
-0.14142121
20
0.86213741
30
0
70
32
0
VERTEX
8
0
62
5
10
-0.14142121
20
0.876782
30
0
70
32
0
SEQEND
8
0
0
POLYLINE
8
0
62
5
66
1
10
0
20
0
30
0
70
8
0
VERTEX
8
0
62
5
10
-0.070710535
20
0.86213741
30
0
70
32
0
VERTEX
8
0
62
5
10
-0.070710535
20
0.87678214
30
0
70
32
0
SEQEND
8
0
0
POLYLINE
8
0
62
5
66
1
10
0
20
0
30
0
70
8
0
VERTEX
8
0
62
5
10
-0.21213189
20
0.94749282
30
0
70
32
0
VERTEX
8
0
62
5
10
-0.21213189
20
1.0328482
30
0
70
32
0
SEQEND
8
0
0
POLYLINE
8
0
62
5
66
1
10
0
20
0
30
0
70
8
0
VERTEX
8
0
62
5
10
-0.14142121
20
0.94749282
30
0
70
32
0
VERTEX
8
0
62
5
10
-0.14142121
20
1.0328482
30
0
70
32
0
SEQEND
8
0
0
POLYLINE
8
0
62
5
66
1
10
0
20
0
30
0
70
8
0
VERTEX
8
0
62
5
10
-0.070710535
20
0.94749282
30
0
70
32
0
VERTEX
8
0
62
5
10
-0.070710535
20
1.0328482
30
0
70
32
0
SEQEND
8
0
0
POLYLINE
8
0
62
30
66
1
10
0
20
0
30
0
70
8
0
VERTEX
8
0
62
30
10
-0.28284257
20
0.94749282
30
0
70
32
0
VERTEX
8
0
62
30
10
-0.28284257
20
0.94749282
30
0
70
32
0
VERTEX
8
0
62
30
10
-0.28284257
20
0.94749282
30
0
70
32
0
SEQEND
8
0
0
POLYLINE
8
0
62
30
66
1
10
0
20
0
30
0
70
8
0
VERTEX
8
0
62
30
10
-0.21213189
20
0.94749268
30
0
70
32
0
VERTEX
8
0
62
30
10
-0.21213155
20
0.94749282
30
0
70
32
0
VERTEX
8
0
62
30
10
-0.21213189
20
0.94749296
30
0
70
32
0
SEQEND
8
0
0
POLYLINE
8
0
62
30
66
1
10
0
20
0
30
0
70
8
0
VERTEX
8
0
62
30
10
-0.14142121
20
0.876782
30
0
70
32
0
VERTEX
8
0
62
30
10
-0.11213186
20
0.94749282
30
0
70
32
0
VERTEX
8
0
62
30
10
-0.14142121
20
1.0182036
30
0
70
32
0
SEQEND
8
0
0
POLYLINE
8
0
62
30
66
1
10
0
20
0
30
0
70
8
0
VERTEX
8
0
62
30
10
-0.070710535
20
0.87678214
30
0
70
32
0
VERTEX
8
0
62
30
10
-0.041421189
20
0.94749282
30
0
70
32
0
VERTEX
8
0
62
30
10
-0.070710535
20
1.0182035
30
0
70
32
0
SEQEND
8
0
0
POLYLINE
8
0
62
5
66
1
10
0
20
0
30
0
70
8
0
VERTEX
8
0
62
5
10
1.4296178e-07
20
1.0328482
30
0
70
32
0
VERTEX
8
0
62
5
10
1.4296178e-07
20
1.0338482
30
0
70
32
0
SEQEND
8
0
0
POLYLINE
8
0
62
5
66
1
10
0
20
0
30
0
70
8
0
VERTEX
8
0
62
5
10
0.28284286
20
1.0328482
30
0
70
32
0
VERTEX
8
0
62
5
10
0.28284286
20
1.0338482
30
0
70
32
0
SEQEND
8
0
0
POLYLINE
8
0
62
5
66
1
10
0
20
0
30
0
70
8
0
VERTEX
8
0
62
5
10
0.070710821
20
1.0328482
30
0
70
32
0
VERTEX
8
0
62
5
10
0.070710821
20
1.0338482
30
0
70
32
0
SEQEND
8
0
0
POLYLINE
8
0
62
5
66
1
10
0
20
0
30
0
70
8
0
VERTEX
8
0
62
5
10
0.1414215
20
1.0328482
30
0
70
32
0
VERTEX
8
0
62
5
10
0.1414215
20
1.0338482
30
0
70
32
0
SEQEND
8
0
0
POLYLINE
8
0
62
5
66
1
10
0
20
0
30
0
70
8
0
VERTEX
8
0
62
5
10
0.21213218
20
1.0328482
30
0
70
32
0
VERTEX
8
0
62
5
10
0.21213218
20
1.0338482
30
0
70
32
0
SEQEND
8
0
0
POLYLINE
8
0
62
5
66
1
10
0
20
0
30
0
70
8
0
VERTEX
8
0
62
5
10
0.56568557
20
1.0328482
30
0
70
32
0
VERTEX
8
0
62
5
10
0.56568557
20
1.0338482
30
0
70
32
0
SEQEND
8
0
0
POLYLINE
8
0
62
5
66
1
10
0
20
0
30
0
70
8
0
VERTEX
8
0
62
5
10
0.35355353
20
1.0328482
30
0
70
32
0
VERTEX
8
0
62
5
10
0.35355353
20
1.0338482
30
0
70
32
0
SEQEND
8
0
0
POLYLINE
8
0
62
5
66
1
10
0
20
0
30
0
70
8
0
VERTEX
8
0
62
5
10
0.42426421
20
1.0328482
30
0
70
32
0
VERTEX
8
0
62
5
10
0.42426421
20
1.0338482
30
0
70
32
0
SEQEND
8
0
0
POLYLINE
8
0
62
5
66
1
10
0
20
0
30
0
70
8
0
VERTEX
8
0
62
5
10
0.49497489
20
1.0328482
30
0
70
32
0
VERTEX
8
0
62
5
10
0.49497489
20
1.0338482
30
0
70
32
0
SEQEND
8
0
0
POLYLINE
8
0
62
5
66
1
10
0
20
0
30
0
70
8
0
VERTEX
8
0
62
5
10
-0.28284257
20
1.0328482
30
0
70
32
0
VERTEX
8
0
62
5
10
-0.28284257
20
1.0338482
30
0
70
32
0
SEQEND
8
0
0
POLYLINE
8
0
62
5
66
1
10
0
20
0
30
0
70
8
0
VERTEX
8
0
62
5
10
-0.21213189
20
1.0328482
30
0
70
32
0
VERTEX
8
0
62
5
10
-0.21213189
20
1.0338482
30
0
70
32
0
SEQEND
8
0
0
POLYLINE
8
0
62
5
66
1
10
0
20
0
30
0
70
8
0
VERTEX
8
0
62
5
10
-0.14142121
20
1.0328482
30
0
70
32
0
VERTEX
8
0
62
5
10
-0.14142121
20
1.0338482
30
0
70
32
0
SEQEND
8
0
0
POLYLINE
8
0
62
5
66
1
10
0
20
0
30
0
70
8
0
VERTEX
8
0
62
5
10
-0.070710535
20
1.0328482
30
0
70
32
0
VERTEX
8
0
62
5
10
-0.070710535
20
1.0338482
30
0
70
32
0
SEQEND
8
0
0
POLYLINE
8
0
62
5
66
1
10
0
20
0
30
0
70
8
0
VERTEX
8
0
62
5
10
1.4296178e-07
20
1.0338482
30
0
70
32
0
VERTEX
8
0
62
5
10
1.4296178e-07
20
1.2045592
30
0
70
32
0
SEQEND
8
0
0
POLYLINE
8
0
62
5
66
1
10
0
20
0
30
0
70
8
0
VERTEX
8
0
62
5
10
0.28284286
20
1.2045592
30
0
70
32
0
VERTEX
8
0
62
5
10
0.28284286
20
1.0338482
30
0
70
32
0
SEQEND
8
0
0
POLYLINE
8
0
62
5
66
1
10
0
20
0
30
0
70
8
0
VERTEX
8
0
62
5
10
1.4296178e-07
20
1.0484931
30
0
70
32
0
VERTEX
8
0
62
5
10
0.070710821
20
1.1192037
30
0
70
32
0
VERTEX
8
0
62
5
10
0.1414215
20
1.1192034
30
0
70
32
0
VERTEX
8
0
62
5
10
0.21213218
20
1.0484927
30
0
70
32
0
VERTEX
8
0
62
5
10
0.28284286
20
1.0484931
30
0
70
32
0
SEQEND
8
0
0
POLYLINE
8
0
62
5
66
1
10
0
20
0
30
0
70
8
0
SEQEND
8
0
0
POLYLINE
8
0
62
5
66
1
10
0
20
0
30
0
70
8
0
VERTEX
8
0
62
5
10
1.4296178e-07
20
1.1899144
30
0
70
32
0
VERTEX
8
0
62
5
10
0.070710821
20
1.1192037
30
0
70
32
0
VERTEX
8
0
62
5
10
0.1414215
20
1.1192041
30
0
70
32
0
VERTEX
8
0
62
5
10
0.21213218
20
1.1899147
30
0
70
32
0
VERTEX
8
0
62
5
10
0.28284286
20
1.1899144
30
0
70
32
0
SEQEND
8
0
0
POLYLINE
8
0
62
30
66
1
10
0
20
0
30
0
70
8
0
VERTEX
8
0
62
30
10
1.4296178e-07
20
1.1192037
30
0
70
32
0
VERTEX
8
0
62
30
10
0.28284286
20
1.1192037
30
0
70
32
0
SEQEND
8
0
0
POLYLINE
8
0
62
30
66
1
10
0
20
0
30
0
70
8
0
VERTEX
8
0
62
30
10
0.070710821
20
1.1192037
30
0
70
32
0
VERTEX
8
0
62
30
10
0.070710821
20
1.1192037
30
0
70
32
0
SEQEND
8
0
0
POLYLINE
8
0
62
30
66
1
10
0
20
0
30
0
70
8
0
VERTEX
8
0
62
30
10
0.1414215
20
1.1192034
30
0
70
32
0
VERTEX
8
0
62
30
10
0.1414215
20
1.1192037
30
0
70
32
0
SEQEND
8
0
0
POLYLINE
8
0
62
30
66
1
10
0
20
0
30
0
70
8
0
VERTEX
8
0
62
30
10
0.21213218
20
1.0484927
30
0
70
32
0
VERTEX
8
0
62
30
10
0.21213218
20
1.1192037
30
0
70
32
0
SEQEND
8
0
0
POLYLINE
8
0
62
5
66
1
10
0
20
0
30
0
70
8
0
VERTEX
8
0
62
5
10
0.070710821
20
1.0338482
30
0
70
32
0
VERTEX
8
0
62
5
10
0.070710821
20
1.1192037
30
0
70
32
0
SEQEND
8
0
0
POLYLINE
8
0
62
5
66
1
10
0
20
0
30
0
70
8
0
VERTEX
8
0
62
5
10
0.1414215
20
1.0338482
30
0
70
32
0
VERTEX
8
0
62
5
10
0.1414215
20
1.1192034
30
0
70
32
0
SEQEND
8
0
0
POLYLINE
8
0
62
5
66
1
10
0
20
0
30
0
70
8
0
VERTEX
8
0
62
5
10
0.21213218
20
1.0338482
30
0
70
32
0
VERTEX
8
0
62
5
10
0.21213218
20
1.0484927
30
0
70
32
0
SEQEND
8
0
0
POLYLINE
8
0
62
5
66
1
10
0
20
0
30
0
70
8
0
VERTEX
8
0
62
5
10
0.070710821
20
1.1192037
30
0
70
32
0
VERTEX
8
0
62
5
10
0.070710821
20
1.2045592
30
0
70
32
0
SEQEND
8
0
0
POLYLINE
8
0
62
5
66
1
10
0
20
0
30
0
70
8
0
VERTEX
8
0
62
5
10
0.1414215
20
1.1192037
30
0
70
32
0
VERTEX
8
0
62
5
10
0.1414215
20
1.2045592
30
0
70
32
0
SEQEND
8
0
0
POLYLINE
8
0
62
5
66
1
10
0
20
0
30
0
70
8
0
VERTEX
8
0
62
5
10
0.21213218
20
1.1192037
30
0
70
32
0
VERTEX
8
0
62
5
10
0.21213218
20
1.2045592
30
0
70
32
0
SEQEND
8
0
0
POLYLINE
8
0
62
30
66
1
10
0
20
0
30
0
70
8
0
VERTEX
8
0
62
30
10
1.4296178e-07
20
1.0484931
30
0
70
32
0
VERTEX
8
0
62
30
10
0.029289522
20
1.1192037
30
0
70
32
0
VERTEX
8
0
62
30
10
1.4296178e-07
20
1.1899144
30
0
70
32
0
SEQEND
8
0
0
POLYLINE
8
0
62
30
66
1
10
0
20
0
30
0
70
8
0
VERTEX
8
0
62
30
10
0.070710821
20
1.1192037
30
0
70
32
0
VERTEX
8
0
62
30
10
0.070710821
20
1.1192037
30
0
70
32
0
VERTEX
8
0
62
30
10
0.070710821
20
1.1192037
30
0
70
32
0
SEQEND
8
0
0
POLYLINE
8
0
62
30
66
1
10
0
20
0
30
0
70
8
0
VERTEX
8
0
62
30
10
0.1414215
20
1.1192034
30
0
70
32
0
VERTEX
8
0
62
30
10
0.14142231
20
1.1192037
30
0
70
32
0
VERTEX
8
0
62
30
10
0.1414215
20
1.1192041
30
0
70
32
0
SEQEND
8
0
0
POLYLINE
8
0
62
30
66
1
10
0
20
0
30
0
70
8
0
VERTEX
8
0
62
30
10
0.21213218
20
1.0484927
30
0
70
32
0
VERTEX
8
0
62
30
10
0.24142158
20
1.1192037
30
0
70
32
0
VERTEX
8
0
62
30
10
0.21213218
20
1.1899147
30
0
70
32
0
SEQEND
8
0
0
POLYLINE
8
0
62
5
66
1
10
0
20
0
30
0
70
8
0
VERTEX
8
0
62
5
10
0.56568557
20
1.2045592
30
0
70
32
0
VERTEX
8
0
62
5
10
0.56568557
20
1.0338482
30
0
70
32
0
SEQEND
8
0
0
POLYLINE
8
0
62
5
66
1
10
0
20
0
30
0
70
8
0
VERTEX
8
0
62
5
10
0.28284286
20
1.0484931
30
0
70
32
0
VERTEX
8
0
62
5
10
0.35355353
20
1.1192037
30
0
70
32
0
VERTEX
8
0
62
5
10
0.42426421
20
1.1192034
30
0
70
32
0
VERTEX
8
0
62
5
10
0.49497489
20
1.0484927
30
0
70
32
0
VERTEX
8
0
62
5
10
0.56568557
20
1.0484931
30
0
70
32
0
SEQEND
8
0
0
POLYLINE
8
0
62
5
66
1
10
0
20
0
30
0
70
8
0
SEQEND
8
0
0
POLYLINE
8
0
62
5
66
1
10
0
20
0
30
0
70
8
0
VERTEX
8
0
62
5
10
0.28284286
20
1.1899144
30
0
70
32
0
VERTEX
8
0
62
5
10
0.35355353
20
1.1192037
30
0
70
32
0
VERTEX
8
0
62
5
10
0.42426421
20
1.1192041
30
0
70
32
0
VERTEX
8
0
62
5
10
0.49497489
20
1.1899147
30
0
70
32
0
VERTEX
8
0
62
5
10
0.56568557
20
1.1899144
30
0
70
32
0
SEQEND
8
0
0
POLYLINE
8
0
62
30
66
1
10
0
20
0
30
0
70
8
0
VERTEX
8
0
62
30
10
0.28284286
20
1.1192037
30
0
70
32
0
VERTEX
8
0
62
30
10
0.56568557
20
1.1192037
30
0
70
32
0
SEQEND
8
0
0
POLYLINE
8
0
62
30
66
1
10
0
20
0
30
0
70
8
0
VERTEX
8
0
62
30
10
0.35355353
20
1.1192037
30
0
70
32
0
VERTEX
8
0
62
30
10
0.35355353
20
1.1192037
30
0
70
32
0
SEQEND
8
0
0
POLYLINE
8
0
62
30
66
1
10
0
20
0
30
0
70
8
0
VERTEX
8
0
62
30
10
0.42426421
20
1.1192034
30
0
70
32
0
VERTEX
8
0
62
30
10
0.42426421
20
1.1192037
30
0
70
32
0
SEQEND
8
0
0
POLYLINE
8
0
62
30
66
1
10
0
20
0
30
0
70
8
0
VERTEX
8
0
62
30
10
0.49497489
20
1.0484927
30
0
70
32
0
VERTEX
8
0
62
30
10
0.49497489
20
1.1192037
30
0
70
32
0
SEQEND
8
0
0
POLYLINE
8
0
62
5
66
1
10
0
20
0
30
0
70
8
0
VERTEX
8
0
62
5
10
0.35355353
20
1.0338482
30
0
70
32
0
VERTEX
8
0
62
5
10
0.35355353
20
1.1192037
30
0
70
32
0
SEQEND
8
0
0
POLYLINE
8
0
62
5
66
1
10
0
20
0
30
0
70
8
0
VERTEX
8
0
62
5
10
0.42426421
20
1.0338482
30
0
70
32
0
VERTEX
8
0
62
5
10
0.42426421
20
1.1192034
30
0
70
32
0
SEQEND
8
0
0
POLYLINE
8
0
62
5
66
1
10
0
20
0
30
0
70
8
0
VERTEX
8
0
62
5
10
0.49497489
20
1.0338482
30
0
70
32
0
VERTEX
8
0
62
5
10
0.49497489
20
1.0484927
30
0
70
32
0
SEQEND
8
0
0
POLYLINE
8
0
62
5
66
1
10
0
20
0
30
0
70
8
0
VERTEX
8
0
62
5
10
0.35355353
20
1.1192037
30
0
70
32
0
VERTEX
8
0
62
5
10
0.35355353
20
1.2045592
30
0
70
32
0
SEQEND
8
0
0
POLYLINE
8
0
62
5
66
1
10
0
20
0
30
0
70
8
0
VERTEX
8
0
62
5
10
0.42426421
20
1.1192037
30
0
70
32
0
VERTEX
8
0
62
5
10
0.42426421
20
1.2045592
30
0
70
32
0
SEQEND
8
0
0
POLYLINE
8
0
62
5
66
1
10
0
20
0
30
0
70
8
0
VERTEX
8
0
62
5
10
0.49497489
20
1.1192037
30
0
70
32
0
VERTEX
8
0
62
5
10
0.49497489
20
1.2045592
30
0
70
32
0
SEQEND
8
0
0
POLYLINE
8
0
62
30
66
1
10
0
20
0
30
0
70
8
0
VERTEX
8
0
62
30
10
0.28284286
20
1.0484931
30
0
70
32
0
VERTEX
8
0
62
30
10
0.31213223
20
1.1192037
30
0
70
32
0
VERTEX
8
0
62
30
10
0.28284286
20
1.1899144
30
0
70
32
0
SEQEND
8
0
0
POLYLINE
8
0
62
30
66
1
10
0
20
0
30
0
70
8
0
VERTEX
8
0
62
30
10
0.35355353
20
1.1192037
30
0
70
32
0
VERTEX
8
0
62
30
10
0.35355353
20
1.1192037
30
0
70
32
0
VERTEX
8
0
62
30
10
0.35355353
20
1.1192037
30
0
70
32
0
SEQEND
8
0
0
POLYLINE
8
0
62
30
66
1
10
0
20
0
30
0
70
8
0
VERTEX
8
0
62
30
10
0.42426421
20
1.1192034
30
0
70
32
0
VERTEX
8
0
62
30
10
0.42426502
20
1.1192037
30
0
70
32
0
VERTEX
8
0
62
30
10
0.42426421
20
1.1192041
30
0
70
32
0
SEQEND
8
0
0
POLYLINE
8
0
62
30
66
1
10
0
20
0
30
0
70
8
0
VERTEX
8
0
62
30
10
0.49497489
20
1.0484927
30
0
70
32
0
VERTEX
8
0
62
30
10
0.52426429
20
1.1192037
30
0
70
32
0
VERTEX
8
0
62
30
10
0.49497489
20
1.1899147
30
0
70
32
0
SEQEND
8
0
0
POLYLINE
8
0
62
5
66
1
10
0
20
0
30
0
70
8
0
VERTEX
8
0
62
5
10
-0.28284257
20
1.0338482
30
0
70
32
0
VERTEX
8
0
62
5
10
-0.28284257
20
1.2045592
30
0
70
32
0
SEQEND
8
0
0
POLYLINE
8
0
62
5
66
1
10
0
20
0
30
0
70
8
0
VERTEX
8
0
62
5
10
-0.28284257
20
1.0484931
30
0
70
32
0
VERTEX
8
0
62
5
10
-0.21213189
20
1.1192037
30
0
70
32
0
VERTEX
8
0
62
5
10
-0.14142121
20
1.1192034
30
0
70
32
0
VERTEX
8
0
62
5
10
-0.070710535
20
1.0484927
30
0
70
32
0
VERTEX
8
0
62
5
10
1.4296178e-07
20
1.0484931
30
0
70
32
0
SEQEND
8
0
0
POLYLINE
8
0
62
5
66
1
10
0
20
0
30
0
70
8
0
SEQEND
8
0
0
POLYLINE
8
0
62
5
66
1
10
0
20
0
30
0
70
8
0
VERTEX
8
0
62
5
10
-0.28284257
20
1.1899144
30
0
70
32
0
VERTEX
8
0
62
5
10
-0.21213189
20
1.1192037
30
0
70
32
0
VERTEX
8
0
62
5
10
-0.14142121
20
1.1192041
30
0
70
32
0
VERTEX
8
0
62
5
10
-0.070710535
20
1.1899147
30
0
70
32
0
VERTEX
8
0
62
5
10
1.4296178e-07
20
1.1899144
30
0
70
32
0
SEQEND
8
0
0
POLYLINE
8
0
62
30
66
1
10
0
20
0
30
0
70
8
0
VERTEX
8
0
62
30
10
-0.28284257
20
1.1192037
30
0
70
32
0
VERTEX
8
0
62
30
10
1.4296178e-07
20
1.1192037
30
0
70
32
0
SEQEND
8
0
0
POLYLINE
8
0
62
30
66
1
10
0
20
0
30
0
70
8
0
VERTEX
8
0
62
30
10
-0.21213189
20
1.1192037
30
0
70
32
0
VERTEX
8
0
62
30
10
-0.21213189
20
1.1192037
30
0
70
32
0
SEQEND
8
0
0
POLYLINE
8
0
62
30
66
1
10
0
20
0
30
0
70
8
0
VERTEX
8
0
62
30
10
-0.14142121
20
1.1192034
30
0
70
32
0
VERTEX
8
0
62
30
10
-0.14142121
20
1.1192037
30
0
70
32
0
SEQEND
8
0
0
POLYLINE
8
0
62
30
66
1
10
0
20
0
30
0
70
8
0
VERTEX
8
0
62
30
10
-0.070710535
20
1.0484927
30
0
70
32
0
VERTEX
8
0
62
30
10
-0.070710535
20
1.1192037
30
0
70
32
0
SEQEND
8
0
0
POLYLINE
8
0
62
5
66
1
10
0
20
0
30
0
70
8
0
VERTEX
8
0
62
5
10
-0.21213189
20
1.0338482
30
0
70
32
0
VERTEX
8
0
62
5
10
-0.21213189
20
1.1192037
30
0
70
32
0
SEQEND
8
0
0
POLYLINE
8
0
62
5
66
1
10
0
20
0
30
0
70
8
0
VERTEX
8
0
62
5
10
-0.14142121
20
1.0338482
30
0
70
32
0
VERTEX
8
0
62
5
10
-0.14142121
20
1.1192034
30
0
70
32
0
SEQEND
8
0
0
POLYLINE
8
0
62
5
66
1
10
0
20
0
30
0
70
8
0
VERTEX
8
0
62
5
10
-0.070710535
20
1.0338482
30
0
70
32
0
VERTEX
8
0
62
5
10
-0.070710535
20
1.0484927
30
0
70
32
0
SEQEND
8
0
0
POLYLINE
8
0
62
5
66
1
10
0
20
0
30
0
70
8
0
VERTEX
8
0
62
5
10
-0.21213189
20
1.1192037
30
0
70
32
0
VERTEX
8
0
62
5
10
-0.21213189
20
1.2045592
30
0
70
32
0
SEQEND
8
0
0
POLYLINE
8
0
62
5
66
1
10
0
20
0
30
0
70
8
0
VERTEX
8
0
62
5
10
-0.14142121
20
1.1192037
30
0
70
32
0
VERTEX
8
0
62
5
10
-0.14142121
20
1.2045592
30
0
70
32
0
SEQEND
8
0
0
POLYLINE
8
0
62
5
66
1
10
0
20
0
30
0
70
8
0
VERTEX
8
0
62
5
10
-0.070710535
20
1.1192037
30
0
70
32
0
VERTEX
8
0
62
5
10
-0.070710535
20
1.2045592
30
0
70
32
0
SEQEND
8
0
0
POLYLINE
8
0
62
30
66
1
10
0
20
0
30
0
70
8
0
VERTEX
8
0
62
30
10
-0.28284257
20
1.0484931
30
0
70
32
0
VERTEX
8
0
62
30
10
-0.25355319
20
1.1192037
30
0
70
32
0
VERTEX
8
0
62
30
10
-0.28284257
20
1.1899144
30
0
70
32
0
SEQEND
8
0
0
POLYLINE
8
0
62
30
66
1
10
0
20
0
30
0
70
8
0
VERTEX
8
0
62
30
10
-0.21213189
20
1.1192037
30
0
70
32
0
VERTEX
8
0
62
30
10
-0.21213189
20
1.1192037
30
0
70
32
0
VERTEX
8
0
62
30
10
-0.21213189
20
1.1192037
30
0
70
32
0
SEQEND
8
0
0
POLYLINE
8
0
62
30
66
1
10
0
20
0
30
0
70
8
0
VERTEX
8
0
62
30
10
-0.14142121
20
1.1192034
30
0
70
32
0
VERTEX
8
0
62
30
10
-0.14142041
20
1.1192037
30
0
70
32
0
VERTEX
8
0
62
30
10
-0.14142121
20
1.1192041
30
0
70
32
0
SEQEND
8
0
0
POLYLINE
8
0
62
30
66
1
10
0
20
0
30
0
70
8
0
VERTEX
8
0
62
30
10
-0.070710535
20
1.0484927
30
0
70
32
0
VERTEX
8
0
62
30
10
-0.041421132
20
1.1192037
30
0
70
32
0
VERTEX
8
0
62
30
10
-0.070710535
20
1.1899147
30
0
70
32
0
SEQEND
8
0
0
POLYLINE
8
0
62
5
66
1
10
0
20
0
30
0
70
8
0
VERTEX
8
0
62
5
10
1.4296178e-07
20
1.2045592
30
0
70
32
0
VERTEX
8
0
62
5
10
1.4296178e-07
20
1.2074881
30
0
70
32
0
SEQEND
8
0
0
POLYLINE
8
0
62
5
66
1
10
0
20
0
30
0
70
8
0
VERTEX
8
0
62
5
10
0.070710821
20
1.2045592
30
0
70
32
0
VERTEX
8
0
62
5
10
0.070710821
20
1.2074881
30
0
70
32
0
SEQEND
8
0
0
POLYLINE
8
0
62
5
66
1
10
0
20
0
30
0
70
8
0
VERTEX
8
0
62
5
10
0.1414215
20
1.2045592
30
0
70
32
0
VERTEX
8
0
62
5
10
0.1414215
20
1.2074881
30
0
70
32
0
SEQEND
8
0
0
POLYLINE
8
0
62
5
66
1
10
0
20
0
30
0
70
8
0
VERTEX
8
0
62
5
10
0.21213218
20
1.2045592
30
0
70
32
0
VERTEX
8
0
62
5
10
0.21213218
20
1.2074881
30
0
70
32
0
SEQEND
8
0
0
POLYLINE
8
0
62
5
66
1
10
0
20
0
30
0
70
8
0
VERTEX
8
0
62
5
10
0.28284286
20
1.2045592
30
0
70
32
0
VERTEX
8
0
62
5
10
0.28284286
20
1.2074881
30
0
70
32
0
SEQEND
8
0
0
POLYLINE
8
0
62
5
66
1
10
0
20
0
30
0
70
8
0
VERTEX
8
0
62
5
10
0.070710821
20
1.2045592
30
0
70
32
0
VERTEX
8
0
62
5
10
0.070710821
20
1.2045592
30
0
70
32
0
SEQEND
8
0
0
POLYLINE
8
0
62
5
66
1
10
0
20
0
30
0
70
8
0
VERTEX
8
0
62
5
10
0.1414215
20
1.2045592
30
0
70
32
0
VERTEX
8
0
62
5
10
0.1414215
20
1.2045592
30
0
70
32
0
SEQEND
8
0
0
POLYLINE
8
0
62
5
66
1
10
0
20
0
30
0
70
8
0
VERTEX
8
0
62
5
10
0.21213218
20
1.2045592
30
0
70
32
0
VERTEX
8
0
62
5
10
0.21213218
20
1.2045592
30
0
70
32
0
SEQEND
8
0
0
POLYLINE
8
0
62
5
66
1
10
0
20
0
30
0
70
8
0
VERTEX
8
0
62
5
10
0.070710654
20
1.2074881
30
0
70
32
0
VERTEX
8
0
62
5
10
0.070710654
20
1.2074881
30
0
70
32
0
SEQEND
8
0
0
POLYLINE
8
0
62
5
66
1
10
0
20
0
30
0
70
8
0
VERTEX
8
0
62
5
10
0.14142133
20
1.2074881
30
0
70
32
0
VERTEX
8
0
62
5
10
0.14142133
20
1.2074881
30
0
70
32
0
SEQEND
8
0
0
POLYLINE
8
0
62
5
66
1
10
0
20
0
30
0
70
8
0
VERTEX
8
0
62
5
10
0.21213201
20
1.2074881
30
0
70
32
0
VERTEX
8
0
62
5
10
0.21213201
20
1.2074881
30
0
70
32
0
SEQEND
8
0
0
POLYLINE
8
0
62
5
66
1
10
0
20
0
30
0
70
8
0
VERTEX
8
0
62
5
10
0.28284269
20
1.2074881
30
0
70
32
0
VERTEX
8
0
62
5
10
0.28284269
20
1.2074881
30
0
70
32
0
SEQEND
8
0
0
POLYLINE
8
0
62
5
66
1
10
0
20
0
30
0
70
8
0
VERTEX
8
0
62
5
10
0.35355353
20
1.2045592
30
0
70
32
0
VERTEX
8
0
62
5
10
0.35355353
20
1.2074881
30
0
70
32
0
SEQEND
8
0
0
POLYLINE
8
0
62
5
66
1
10
0
20
0
30
0
70
8
0
VERTEX
8
0
62
5
10
0.42426421
20
1.2045592
30
0
70
32
0
VERTEX
8
0
62
5
10
0.42426421
20
1.2074881
30
0
70
32
0
SEQEND
8
0
0
POLYLINE
8
0
62
5
66
1
10
0
20
0
30
0
70
8
0
VERTEX
8
0
62
5
10
0.49497489
20
1.2045592
30
0
70
32
0
VERTEX
8
0
62
5
10
0.49497489
20
1.2074881
30
0
70
32
0
SEQEND
8
0
0
POLYLINE
8
0
62
5
66
1
10
0
20
0
30
0
70
8
0
VERTEX
8
0
62
5
10
0.56568557
20
1.2045592
30
0
70
32
0
VERTEX
8
0
62
5
10
0.56568557
20
1.2074881
30
0
70
32
0
SEQEND
8
0
0
POLYLINE
8
0
62
5
66
1
10
0
20
0
30
0
70
8
0
VERTEX
8
0
62
5
10
0.35355353
20
1.2045592
30
0
70
32
0
VERTEX
8
0
62
5
10
0.35355353
20
1.2045592
30
0
70
32
0
SEQEND
8
0
0
POLYLINE
8
0
62
5
66
1
10
0
20
0
30
0
70
8
0
VERTEX
8
0
62
5
10
0.42426421
20
1.2045592
30
0
70
32
0
VERTEX
8
0
62
5
10
0.42426421
20
1.2045592
30
0
70
32
0
SEQEND
8
0
0
POLYLINE
8
0
62
5
66
1
10
0
20
0
30
0
70
8
0
VERTEX
8
0
62
5
10
0.49497489
20
1.2045592
30
0
70
32
0
VERTEX
8
0
62
5
10
0.49497489
20
1.2045592
30
0
70
32
0
SEQEND
8
0
0
POLYLINE
8
0
62
5
66
1
10
0
20
0
30
0
70
8
0
VERTEX
8
0
62
5
10
0.35355337
20
1.2074881
30
0
70
32
0
VERTEX
8
0
62
5
10
0.35355337
20
1.2074881
30
0
70
32
0
SEQEND
8
0
0
POLYLINE
8
0
62
5
66
1
10
0
20
0
30
0
70
8
0
VERTEX
8
0
62
5
10
0.42426404
20
1.2074881
30
0
70
32
0
VERTEX
8
0
62
5
10
0.42426404
20
1.2074881
30
0
70
32
0
SEQEND
8
0
0
POLYLINE
8
0
62
5
66
1
10
0
20
0
30
0
70
8
0
VERTEX
8
0
62
5
10
0.49497472
20
1.2074881
30
0
70
32
0
VERTEX
8
0
62
5
10
0.49497472
20
1.2074881
30
0
70
32
0
SEQEND
8
0
0
POLYLINE
8
0
62
5
66
1
10
0
20
0
30
0
70
8
0
VERTEX
8
0
62
5
10
0.5656854
20
1.2074881
30
0
70
32
0
VERTEX
8
0
62
5
10
0.5656854
20
1.2074881
30
0
70
32
0
SEQEND
8
0
0
POLYLINE
8
0
62
5
66
1
10
0
20
0
30
0
70
8
0
VERTEX
8
0
62
5
10
-0.21213189
20
1.2045592
30
0
70
32
0
VERTEX
8
0
62
5
10
-0.21213189
20
1.2074881
30
0
70
32
0
SEQEND
8
0
0
POLYLINE
8
0
62
5
66
1
10
0
20
0
30
0
70
8
0
VERTEX
8
0
62
5
10
-0.14142121
20
1.2045592
30
0
70
32
0
VERTEX
8
0
62
5
10
-0.14142121
20
1.2074881
30
0
70
32
0
SEQEND
8
0
0
POLYLINE
8
0
62
5
66
1
10
0
20
0
30
0
70
8
0
VERTEX
8
0
62
5
10
-0.070710535
20
1.2045592
30
0
70
32
0
VERTEX
8
0
62
5
10
-0.070710535
20
1.2074881
30
0
70
32
0
SEQEND
8
0
0
POLYLINE
8
0
62
5
66
1
10
0
20
0
30
0
70
8
0
VERTEX
8
0
62
5
10
1.4296178e-07
20
1.2045592
30
0
70
32
0
VERTEX
8
0
62
5
10
1.4296178e-07
20
1.2074881
30
0
70
32
0
SEQEND
8
0
0
POLYLINE
8
0
62
5
66
1
10
0
20
0
30
0
70
8
0
VERTEX
8
0
62
5
10
-0.21213189
20
1.2045592
30
0
70
32
0
VERTEX
8
0
62
5
10
-0.21213189
20
1.2045592
30
0
70
32
0
SEQEND
8
0
0
POLYLINE
8
0
62
5
66
1
10
0
20
0
30
0
70
8
0
VERTEX
8
0
62
5
10
-0.14142121
20
1.2045592
30
0
70
32
0
VERTEX
8
0
62
5
10
-0.14142121
20
1.2045592
30
0
70
32
0
SEQEND
8
0
0
POLYLINE
8
0
62
5
66
1
10
0
20
0
30
0
70
8
0
VERTEX
8
0
62
5
10
-0.070710535
20
1.2045592
30
0
70
32
0
VERTEX
8
0
62
5
10
-0.070710535
20
1.2045592
30
0
70
32
0
SEQEND
8
0
0
POLYLINE
8
0
62
5
66
1
10
0
20
0
30
0
70
8
0
VERTEX
8
0
62
5
10
-0.21213206
20
1.2074881
30
0
70
32
0
VERTEX
8
0
62
5
10
-0.21213206
20
1.2074881
30
0
70
32
0
SEQEND
8
0
0
POLYLINE
8
0
62
5
66
1
10
0
20
0
30
0
70
8
0
VERTEX
8
0
62
5
10
-0.14142138
20
1.2074881
30
0
70
32
0
VERTEX
8
0
62
5
10
-0.14142138
20
1.2074881
30
0
70
32
0
SEQEND
8
0
0
POLYLINE
8
0
62
5
66
1
10
0
20
0
30
0
70
8
0
VERTEX
8
0
62
5
10
-0.070710702
20
1.2074881
30
0
70
32
0
VERTEX
8
0
62
5
10
-0.070710702
20
1.2074881
30
0
70
32
0
SEQEND
8
0
0
POLYLINE
8
0
62
5
66
1
10
0
20
0
30
0
70
8
0
VERTEX
8
0
62
5
10
-2.4252931e-08
20
1.2074881
30
0
70
32
0
VERTEX
8
0
62
5
10
-2.4252931e-08
20
1.2074881
30
0
70
32
0
SEQEND
8
0
0
POLYLINE
8
0
62
5
66
1
10
0
20
0
30
0
70
8
0
VERTEX
8
0
62
5
10
-2.4252931e-08
20
1.2074881
30
0
70
32
0
VERTEX
8
0
62
5
10
-2.4252931e-08
20
1.2192033
30
0
70
32
0
SEQEND
8
0
0
POLYLINE
8
0
62
5
66
1
10
0
20
0
30
0
70
8
0
VERTEX
8
0
62
5
10
0.28284269
20
1.2074881
30
0
70
32
0
VERTEX
8
0
62
5
10
0.28284269
20
1.2192033
30
0
70
32
0
SEQEND
8
0
0
POLYLINE
8
0
62
5
66
1
10
0
20
0
30
0
70
8
0
VERTEX
8
0
62
5
10
0.070710654
20
1.2074881
30
0
70
32
0
VERTEX
8
0
62
5
10
0.070710654
20
1.2192033
30
0
70
32
0
SEQEND
8
0
0
POLYLINE
8
0
62
5
66
1
10
0
20
0
30
0
70
8
0
VERTEX
8
0
62
5
10
0.14142133
20
1.2074881
30
0
70
32
0
VERTEX
8
0
62
5
10
0.14142133
20
1.2192033
30
0
70
32
0
SEQEND
8
0
0
POLYLINE
8
0
62
5
66
1
10
0
20
0
30
0
70
8
0
VERTEX
8
0
62
5
10
0.21213201
20
1.2074881
30
0
70
32
0
VERTEX
8
0
62
5
10
0.21213201
20
1.2192033
30
0
70
32
0
SEQEND
8
0
0
POLYLINE
8
0
62
5
66
1
10
0
20
0
30
0
70
8
0
VERTEX
8
0
62
5
10
0.5656854
20
1.2074881
30
0
70
32
0
VERTEX
8
0
62
5
10
0.5656854
20
1.2192033
30
0
70
32
0
SEQEND
8
0
0
POLYLINE
8
0
62
5
66
1
10
0
20
0
30
0
70
8
0
VERTEX
8
0
62
5
10
0.35355337
20
1.2074881
30
0
70
32
0
VERTEX
8
0
62
5
10
0.35355337
20
1.2192033
30
0
70
32
0
SEQEND
8
0
0
POLYLINE
8
0
62
5
66
1
10
0
20
0
30
0
70
8
0
VERTEX
8
0
62
5
10
0.42426404
20
1.2074881
30
0
70
32
0
VERTEX
8
0
62
5
10
0.42426404
20
1.2192033
30
0
70
32
0
SEQEND
8
0
0
POLYLINE
8
0
62
5
66
1
10
0
20
0
30
0
70
8
0
VERTEX
8
0
62
5
10
0.49497472
20
1.2074881
30
0
70
32
0
VERTEX
8
0
62
5
10
0.49497472
20
1.2192033
30
0
70
32
0
SEQEND
8
0
0
POLYLINE
8
0
62
5
66
1
10
0
20
0
30
0
70
8
0
VERTEX
8
0
62
5
10
-0.28284274
20
1.2074881
30
0
70
32
0
VERTEX
8
0
62
5
10
-0.28284274
20
1.2192033
30
0
70
32
0
SEQEND
8
0
0
POLYLINE
8
0
62
5
66
1
10
0
20
0
30
0
70
8
0
VERTEX
8
0
62
5
10
-0.21213206
20
1.2074881
30
0
70
32
0
VERTEX
8
0
62
5
10
-0.21213206
20
1.2192033
30
0
70
32
0
SEQEND
8
0
0
POLYLINE
8
0
62
5
66
1
10
0
20
0
30
0
70
8
0
VERTEX
8
0
62
5
10
-0.14142138
20
1.2074881
30
0
70
32
0
VERTEX
8
0
62
5
10
-0.14142138
20
1.2192033
30
0
70
32
0
SEQEND
8
0
0
POLYLINE
8
0
62
5
66
1
10
0
20
0
30
0
70
8
0
VERTEX
8
0
62
5
10
-0.070710702
20
1.2074881
30
0
70
32
0
VERTEX
8
0
62
5
10
-0.070710702
20
1.2192033
30
0
70
32
0
SEQEND
8
0
0
POLYLINE
8
0
62
5
66
1
10
0
20
0
30
0
70
8
0
VERTEX
8
0
62
5
10
-2.4252931e-08
20
1.2192033
30
0
70
32
0
VERTEX
8
0
62
5
10
-2.4252931e-08
20
1.3192033
30
0
70
32
0
SEQEND
8
0
0
POLYLINE
8
0
62
5
66
1
10
0
20
0
30
0
70
8
0
VERTEX
8
0
62
5
10
0.28284269
20
1.3192033
30
0
70
32
0
VERTEX
8
0
62
5
10
0.28284269
20
1.2192033
30
0
70
32
0
SEQEND
8
0
0
POLYLINE
8
0
62
5
66
1
10
0
20
0
30
0
70
8
0
VERTEX
8
0
62
5
10
-2.4252931e-08
20
1.2192033
30
0
70
32
0
VERTEX
8
0
62
5
10
0.28284269
20
1.2192033
30
0
70
32
0
SEQEND
8
0
0
POLYLINE
8
0
62
5
66
1
10
0
20
0
30
0
70
8
0
VERTEX
8
0
62
5
10
-2.4252931e-08
20
1.3192033
30
0
70
32
0
VERTEX
8
0
62
5
10
0.28284269
20
1.3192033
30
0
70
32
0
SEQEND
8
0
0
POLYLINE
8
0
62
5
66
1
10
0
20
0
30
0
70
8
0
VERTEX
8
0
62
5
10
0.070710654
20
1.2192033
30
0
70
32
0
VERTEX
8
0
62
5
10
0.070710654
20
1.2192033
30
0
70
32
0
SEQEND
8
0
0
POLYLINE
8
0
62
5
66
1
10
0
20
0
30
0
70
8
0
VERTEX
8
0
62
5
10
0.14142133
20
1.2192033
30
0
70
32
0
VERTEX
8
0
62
5
10
0.14142133
20
1.2192033
30
0
70
32
0
SEQEND
8
0
0
POLYLINE
8
0
62
5
66
1
10
0
20
0
30
0
70
8
0
VERTEX
8
0
62
5
10
0.21213201
20
1.2192033
30
0
70
32
0
VERTEX
8
0
62
5
10
0.21213201
20
1.2192033
30
0
70
32
0
SEQEND
8
0
0
POLYLINE
8
0
62
5
66
1
10
0
20
0
30
0
70
8
0
VERTEX
8
0
62
5
10
0.070710654
20
1.3192033
30
0
70
32
0
VERTEX
8
0
62
5
10
0.070710654
20
1.3192033
30
0
70
32
0
SEQEND
8
0
0
POLYLINE
8
0
62
5
66
1
10
0
20
0
30
0
70
8
0
VERTEX
8
0
62
5
10
0.14142133
20
1.3192033
30
0
70
32
0
VERTEX
8
0
62
5
10
0.14142133
20
1.3192033
30
0
70
32
0
SEQEND
8
0
0
POLYLINE
8
0
62
5
66
1
10
0
20
0
30
0
70
8
0
VERTEX
8
0
62
5
10
0.21213201
20
1.3192033
30
0
70
32
0
VERTEX
8
0
62
5
10
0.21213201
20
1.3192033
30
0
70
32
0
SEQEND
8
0
0
POLYLINE
8
0
62
30
66
1
10
0
20
0
30
0
70
8
0
VERTEX
8
0
62
30
10
-2.4252931e-08
20
1.3192033
30
0
70
32
0
VERTEX
8
0
62
30
10
0.070710654
20
1.2192033
30
0
70
32
0
SEQEND
8
0
0
POLYLINE
8
0
62
30
66
1
10
0
20
0
30
0
70
8
0
VERTEX
8
0
62
30
10
0.070710654
20
1.3192033
30
0
70
32
0
VERTEX
8
0
62
30
10
-2.4252931e-08
20
1.2192033
30
0
70
32
0
SEQEND
8
0
0
POLYLINE
8
0
62
30
66
1
10
0
20
0
30
0
70
8
0
VERTEX
8
0
62
30
10
0.14142133
20
1.3192033
30
0
70
32
0
VERTEX
8
0
62
30
10
0.21213201
20
1.2192033
30
0
70
32
0
SEQEND
8
0
0
POLYLINE
8
0
62
30
66
1
10
0
20
0
30
0
70
8
0
VERTEX
8
0
62
30
10
0.21213201
20
1.3192033
30
0
70
32
0
VERTEX
8
0
62
30
10
0.14142133
20
1.2192033
30
0
70
32
0
SEQEND
8
0
0
POLYLINE
8
0
62
30
66
1
10
0
20
0
30
0
70
8
0
VERTEX
8
0
62
30
10
0.070710654
20
1.2692033
30
0
70
32
0
VERTEX
8
0
62
30
10
0.14142133
20
1.2692033
30
0
70
32
0
SEQEND
8
0
0
POLYLINE
8
0
62
30
66
1
10
0
20
0
30
0
70
8
0
VERTEX
8
0
62
30
10
0.21213201
20
1.2692033
30
0
70
32
0
VERTEX
8
0
62
30
10
0.28284269
20
1.2692033
30
0
70
32
0
SEQEND
8
0
0
POLYLINE
8
0
62
5
66
1
10
0
20
0
30
0
70
8
0
VERTEX
8
0
62
5
10
-2.4252931e-08
20
1.2692033
30
0
70
32
0
VERTEX
8
0
62
5
10
0.035355315
20
1.2692033
30
0
70
32
0
SEQEND
8
0
0
POLYLINE
8
0
62
5
66
1
10
0
20
0
30
0
70
8
0
VERTEX
8
0
62
5
10
0.14142133
20
1.2692033
30
0
70
32
0
VERTEX
8
0
62
5
10
0.17677667
20
1.2692033
30
0
70
32
0
SEQEND
8
0
0
POLYLINE
8
0
62
5
66
1
10
0
20
0
30
0
70
8
0
VERTEX
8
0
62
5
10
0.035355315
20
1.2692033
30
0
70
32
0
VERTEX
8
0
62
5
10
0.070710654
20
1.2692033
30
0
70
32
0
SEQEND
8
0
0
POLYLINE
8
0
62
5
66
1
10
0
20
0
30
0
70
8
0
VERTEX
8
0
62
5
10
0.17677667
20
1.2692033
30
0
70
32
0
VERTEX
8
0
62
5
10
0.21213201
20
1.2692033
30
0
70
32
0
SEQEND
8
0
0
POLYLINE
8
0
62
5
66
1
10
0
20
0
30
0
70
8
0
VERTEX
8
0
62
5
10
0.070710654
20
1.2192033
30
0
70
32
0
VERTEX
8
0
62
5
10
0.070710654
20
1.3192033
30
0
70
32
0
SEQEND
8
0
0
POLYLINE
8
0
62
5
66
1
10
0
20
0
30
0
70
8
0
VERTEX
8
0
62
5
10
0.14142133
20
1.2192033
30
0
70
32
0
VERTEX
8
0
62
5
10
0.14142133
20
1.3192033
30
0
70
32
0
SEQEND
8
0
0
POLYLINE
8
0
62
5
66
1
10
0
20
0
30
0
70
8
0
VERTEX
8
0
62
5
10
0.21213201
20
1.2192033
30
0
70
32
0
VERTEX
8
0
62
5
10
0.21213201
20
1.3192033
30
0
70
32
0
SEQEND
8
0
0
POLYLINE
8
0
62
5
66
1
10
0
20
0
30
0
70
8
0
VERTEX
8
0
62
5
10
-2.4252931e-08
20
1.2192033
30
0
70
32
0
VERTEX
8
0
62
5
10
-2.4252931e-08
20
1.3192033
30
0
70
32
0
SEQEND
8
0
0
POLYLINE
8
0
62
5
66
1
10
0
20
0
30
0
70
8
0
VERTEX
8
0
62
5
10
0.017677645
20
1.2942033
30
0
70
32
0
VERTEX
8
0
62
5
10
0.017677645
20
1.2442033
30
0
70
32
0
VERTEX
8
0
62
5
10
0.053032984
20
1.2442033
30
0
70
32
0
VERTEX
8
0
62
5
10
0.053032984
20
1.2942033
30
0
70
32
0
VERTEX
8
0
62
5
10
0.017677645
20
1.2942033
30
0
70
32
0
SEQEND
8
0
0
POLYLINE
8
0
62
5
66
1
10
0
20
0
30
0
70
8
0
VERTEX
8
0
62
5
10
0.159099
20
1.2942033
30
0
70
32
0
VERTEX
8
0
62
5
10
0.159099
20
1.2442033
30
0
70
32
0
VERTEX
8
0
62
5
10
0.19445434
20
1.2442033
30
0
70
32
0
VERTEX
8
0
62
5
10
0.19445434
20
1.2942033
30
0
70
32
0
VERTEX
8
0
62
5
10
0.159099
20
1.2942033
30
0
70
32
0
SEQEND
8
0
0
POLYLINE
8
0
62
5
66
1
10
0
20
0
30
0
70
8
0
VERTEX
8
0
62
5
10
0.5656854
20
1.3192033
30
0
70
32
0
VERTEX
8
0
62
5
10
0.5656854
20
1.2192033
30
0
70
32
0
SEQEND
8
0
0
POLYLINE
8
0
62
5
66
1
10
0
20
0
30
0
70
8
0
VERTEX
8
0
62
5
10
0.28284269
20
1.2192033
30
0
70
32
0
VERTEX
8
0
62
5
10
0.5656854
20
1.2192033
30
0
70
32
0
SEQEND
8
0
0
POLYLINE
8
0
62
5
66
1
10
0
20
0
30
0
70
8
0
VERTEX
8
0
62
5
10
0.28284269
20
1.3192033
30
0
70
32
0
VERTEX
8
0
62
5
10
0.5656854
20
1.3192033
30
0
70
32
0
SEQEND
8
0
0
POLYLINE
8
0
62
5
66
1
10
0
20
0
30
0
70
8
0
VERTEX
8
0
62
5
10
0.35355337
20
1.2192033
30
0
70
32
0
VERTEX
8
0
62
5
10
0.35355337
20
1.2192033
30
0
70
32
0
SEQEND
8
0
0
POLYLINE
8
0
62
5
66
1
10
0
20
0
30
0
70
8
0
VERTEX
8
0
62
5
10
0.42426404
20
1.2192033
30
0
70
32
0
VERTEX
8
0
62
5
10
0.42426404
20
1.2192033
30
0
70
32
0
SEQEND
8
0
0
POLYLINE
8
0
62
5
66
1
10
0
20
0
30
0
70
8
0
VERTEX
8
0
62
5
10
0.49497472
20
1.2192033
30
0
70
32
0
VERTEX
8
0
62
5
10
0.49497472
20
1.2192033
30
0
70
32
0
SEQEND
8
0
0
POLYLINE
8
0
62
5
66
1
10
0
20
0
30
0
70
8
0
VERTEX
8
0
62
5
10
0.35355337
20
1.3192033
30
0
70
32
0
VERTEX
8
0
62
5
10
0.35355337
20
1.3192033
30
0
70
32
0
SEQEND
8
0
0
POLYLINE
8
0
62
5
66
1
10
0
20
0
30
0
70
8
0
VERTEX
8
0
62
5
10
0.42426404
20
1.3192033
30
0
70
32
0
VERTEX
8
0
62
5
10
0.42426404
20
1.3192033
30
0
70
32
0
SEQEND
8
0
0
POLYLINE
8
0
62
5
66
1
10
0
20
0
30
0
70
8
0
VERTEX
8
0
62
5
10
0.49497472
20
1.3192033
30
0
70
32
0
VERTEX
8
0
62
5
10
0.49497472
20
1.3192033
30
0
70
32
0
SEQEND
8
0
0
POLYLINE
8
0
62
30
66
1
10
0
20
0
30
0
70
8
0
VERTEX
8
0
62
30
10
0.28284269
20
1.3192033
30
0
70
32
0
VERTEX
8
0
62
30
10
0.35355337
20
1.2192033
30
0
70
32
0
SEQEND
8
0
0
POLYLINE
8
0
62
30
66
1
10
0
20
0
30
0
70
8
0
VERTEX
8
0
62
30
10
0.35355337
20
1.3192033
30
0
70
32
0
VERTEX
8
0
62
30
10
0.28284269
20
1.2192033
30
0
70
32
0
SEQEND
8
0
0
POLYLINE
8
0
62
30
66
1
10
0
20
0
30
0
70
8
0
VERTEX
8
0
62
30
10
0.42426404
20
1.3192033
30
0
70
32
0
VERTEX
8
0
62
30
10
0.49497472
20
1.2192033
30
0
70
32
0
SEQEND
8
0
0
POLYLINE
8
0
62
30
66
1
10
0
20
0
30
0
70
8
0
VERTEX
8
0
62
30
10
0.49497472
20
1.3192033
30
0
70
32
0
VERTEX
8
0
62
30
10
0.42426404
20
1.2192033
30
0
70
32
0
SEQEND
8
0
0
POLYLINE
8
0
62
30
66
1
10
0
20
0
30
0
70
8
0
VERTEX
8
0
62
30
10
0.35355337
20
1.2692033
30
0
70
32
0
VERTEX
8
0
62
30
10
0.42426404
20
1.2692033
30
0
70
32
0
SEQEND
8
0
0
POLYLINE
8
0
62
30
66
1
10
0
20
0
30
0
70
8
0
VERTEX
8
0
62
30
10
0.49497472
20
1.2692033
30
0
70
32
0
VERTEX
8
0
62
30
10
0.5656854
20
1.2692033
30
0
70
32
0
SEQEND
8
0
0
POLYLINE
8
0
62
5
66
1
10
0
20
0
30
0
70
8
0
VERTEX
8
0
62
5
10
0.28284269
20
1.2692033
30
0
70
32
0
VERTEX
8
0
62
5
10
0.31819803
20
1.2692033
30
0
70
32
0
SEQEND
8
0
0
POLYLINE
8
0
62
5
66
1
10
0
20
0
30
0
70
8
0
VERTEX
8
0
62
5
10
0.42426404
20
1.2692033
30
0
70
32
0
VERTEX
8
0
62
5
10
0.45961938
20
1.2692033
30
0
70
32
0
SEQEND
8
0
0
POLYLINE
8
0
62
5
66
1
10
0
20
0
30
0
70
8
0
VERTEX
8
0
62
5
10
0.31819803
20
1.2692033
30
0
70
32
0
VERTEX
8
0
62
5
10
0.35355337
20
1.2692033
30
0
70
32
0
SEQEND
8
0
0
POLYLINE
8
0
62
5
66
1
10
0
20
0
30
0
70
8
0
VERTEX
8
0
62
5
10
0.45961938
20
1.2692033
30
0
70
32
0
VERTEX
8
0
62
5
10
0.49497472
20
1.2692033
30
0
70
32
0
SEQEND
8
0
0
POLYLINE
8
0
62
5
66
1
10
0
20
0
30
0
70
8
0
VERTEX
8
0
62
5
10
0.35355337
20
1.2192033
30
0
70
32
0
VERTEX
8
0
62
5
10
0.35355337
20
1.3192033
30
0
70
32
0
SEQEND
8
0
0
POLYLINE
8
0
62
5
66
1
10
0
20
0
30
0
70
8
0
VERTEX
8
0
62
5
10
0.42426404
20
1.2192033
30
0
70
32
0
VERTEX
8
0
62
5
10
0.42426404
20
1.3192033
30
0
70
32
0
SEQEND
8
0
0
POLYLINE
8
0
62
5
66
1
10
0
20
0
30
0
70
8
0
VERTEX
8
0
62
5
10
0.49497472
20
1.2192033
30
0
70
32
0
VERTEX
8
0
62
5
10
0.49497472
20
1.3192033
30
0
70
32
0
SEQEND
8
0
0
POLYLINE
8
0
62
5
66
1
10
0
20
0
30
0
70
8
0
VERTEX
8
0
62
5
10
0.28284269
20
1.2192033
30
0
70
32
0
VERTEX
8
0
62
5
10
0.28284269
20
1.3192033
30
0
70
32
0
SEQEND
8
0
0
POLYLINE
8
0
62
5
66
1
10
0
20
0
30
0
70
8
0
VERTEX
8
0
62
5
10
0.30052036
20
1.2942033
30
0
70
32
0
VERTEX
8
0
62
5
10
0.30052036
20
1.2442033
30
0
70
32
0
VERTEX
8
0
62
5
10
0.3358757
20
1.2442033
30
0
70
32
0
VERTEX
8
0
62
5
10
0.3358757
20
1.2942033
30
0
70
32
0
VERTEX
8
0
62
5
10
0.30052036
20
1.2942033
30
0
70
32
0
SEQEND
8
0
0
POLYLINE
8
0
62
5
66
1
10
0
20
0
30
0
70
8
0
VERTEX
8
0
62
5
10
0.44194171
20
1.2942033
30
0
70
32
0
VERTEX
8
0
62
5
10
0.44194171
20
1.2442033
30
0
70
32
0
VERTEX
8
0
62
5
10
0.47729705
20
1.2442033
30
0
70
32
0
VERTEX
8
0
62
5
10
0.47729705
20
1.2942033
30
0
70
32
0
VERTEX
8
0
62
5
10
0.44194171
20
1.2942033
30
0
70
32
0
SEQEND
8
0
0
POLYLINE
8
0
62
5
66
1
10
0
20
0
30
0
70
8
0
VERTEX
8
0
62
5
10
-0.28284274
20
1.2192033
30
0
70
32
0
VERTEX
8
0
62
5
10
-0.28284274
20
1.3192033
30
0
70
32
0
SEQEND
8
0
0
POLYLINE
8
0
62
5
66
1
10
0
20
0
30
0
70
8
0
VERTEX
8
0
62
5
10
-0.28284274
20
1.2192033
30
0
70
32
0
VERTEX
8
0
62
5
10
-2.4252931e-08
20
1.2192033
30
0
70
32
0
SEQEND
8
0
0
POLYLINE
8
0
62
5
66
1
10
0
20
0
30
0
70
8
0
VERTEX
8
0
62
5
10
-0.28284274
20
1.3192033
30
0
70
32
0
VERTEX
8
0
62
5
10
-2.4252931e-08
20
1.3192033
30
0
70
32
0
SEQEND
8
0
0
POLYLINE
8
0
62
5
66
1
10
0
20
0
30
0
70
8
0
VERTEX
8
0
62
5
10
-0.21213206
20
1.2192033
30
0
70
32
0
VERTEX
8
0
62
5
10
-0.21213206
20
1.2192033
30
0
70
32
0
SEQEND
8
0
0
POLYLINE
8
0
62
5
66
1
10
0
20
0
30
0
70
8
0
VERTEX
8
0
62
5
10
-0.14142138
20
1.2192033
30
0
70
32
0
VERTEX
8
0
62
5
10
-0.14142138
20
1.2192033
30
0
70
32
0
SEQEND
8
0
0
POLYLINE
8
0
62
5
66
1
10
0
20
0
30
0
70
8
0
VERTEX
8
0
62
5
10
-0.070710702
20
1.2192033
30
0
70
32
0
VERTEX
8
0
62
5
10
-0.070710702
20
1.2192033
30
0
70
32
0
SEQEND
8
0
0
POLYLINE
8
0
62
5
66
1
10
0
20
0
30
0
70
8
0
VERTEX
8
0
62
5
10
-0.21213206
20
1.3192033
30
0
70
32
0
VERTEX
8
0
62
5
10
-0.21213206
20
1.3192033
30
0
70
32
0
SEQEND
8
0
0
POLYLINE
8
0
62
5
66
1
10
0
20
0
30
0
70
8
0
VERTEX
8
0
62
5
10
-0.14142138
20
1.3192033
30
0
70
32
0
VERTEX
8
0
62
5
10
-0.14142138
20
1.3192033
30
0
70
32
0
SEQEND
8
0
0
POLYLINE
8
0
62
5
66
1
10
0
20
0
30
0
70
8
0
VERTEX
8
0
62
5
10
-0.070710702
20
1.3192033
30
0
70
32
0
VERTEX
8
0
62
5
10
-0.070710702
20
1.3192033
30
0
70
32
0
SEQEND
8
0
0
POLYLINE
8
0
62
30
66
1
10
0
20
0
30
0
70
8
0
VERTEX
8
0
62
30
10
-0.28284274
20
1.3192033
30
0
70
32
0
VERTEX
8
0
62
30
10
-0.21213206
20
1.2192033
30
0
70
32
0
SEQEND
8
0
0
POLYLINE
8
0
62
30
66
1
10
0
20
0
30
0
70
8
0
VERTEX
8
0
62
30
10
-0.21213206
20
1.3192033
30
0
70
32
0
VERTEX
8
0
62
30
10
-0.28284274
20
1.2192033
30
0
70
32
0
SEQEND
8
0
0
POLYLINE
8
0
62
30
66
1
10
0
20
0
30
0
70
8
0
VERTEX
8
0
62
30
10
-0.14142138
20
1.3192033
30
0
70
32
0
VERTEX
8
0
62
30
10
-0.070710702
20
1.2192033
30
0
70
32
0
SEQEND
8
0
0
POLYLINE
8
0
62
30
66
1
10
0
20
0
30
0
70
8
0
VERTEX
8
0
62
30
10
-0.070710702
20
1.3192033
30
0
70
32
0
VERTEX
8
0
62
30
10
-0.14142138
20
1.2192033
30
0
70
32
0
SEQEND
8
0
0
POLYLINE
8
0
62
30
66
1
10
0
20
0
30
0
70
8
0
VERTEX
8
0
62
30
10
-0.21213206
20
1.2692033
30
0
70
32
0
VERTEX
8
0
62
30
10
-0.14142138
20
1.2692033
30
0
70
32
0
SEQEND
8
0
0
POLYLINE
8
0
62
30
66
1
10
0
20
0
30
0
70
8
0
VERTEX
8
0
62
30
10
-0.070710702
20
1.2692033
30
0
70
32
0
VERTEX
8
0
62
30
10
-2.4252931e-08
20
1.2692033
30
0
70
32
0
SEQEND
8
0
0
POLYLINE
8
0
62
5
66
1
10
0
20
0
30
0
70
8
0
VERTEX
8
0
62
5
10
-0.28284274
20
1.2692033
30
0
70
32
0
VERTEX
8
0
62
5
10
-0.2474874
20
1.2692033
30
0
70
32
0
SEQEND
8
0
0
POLYLINE
8
0
62
5
66
1
10
0
20
0
30
0
70
8
0
VERTEX
8
0
62
5
10
-0.14142138
20
1.2692033
30
0
70
32
0
VERTEX
8
0
62
5
10
-0.10606604
20
1.2692033
30
0
70
32
0
SEQEND
8
0
0
POLYLINE
8
0
62
5
66
1
10
0
20
0
30
0
70
8
0
VERTEX
8
0
62
5
10
-0.2474874
20
1.2692033
30
0
70
32
0
VERTEX
8
0
62
5
10
-0.21213206
20
1.2692033
30
0
70
32
0
SEQEND
8
0
0
POLYLINE
8
0
62
5
66
1
10
0
20
0
30
0
70
8
0
VERTEX
8
0
62
5
10
-0.10606604
20
1.2692033
30
0
70
32
0
VERTEX
8
0
62
5
10
-0.070710702
20
1.2692033
30
0
70
32
0
SEQEND
8
0
0
POLYLINE
8
0
62
5
66
1
10
0
20
0
30
0
70
8
0
VERTEX
8
0
62
5
10
-0.21213206
20
1.2192033
30
0
70
32
0
VERTEX
8
0
62
5
10
-0.21213206
20
1.3192033
30
0
70
32
0
SEQEND
8
0
0
POLYLINE
8
0
62
5
66
1
10
0
20
0
30
0
70
8
0
VERTEX
8
0
62
5
10
-0.14142138
20
1.2192033
30
0
70
32
0
VERTEX
8
0
62
5
10
-0.14142138
20
1.3192033
30
0
70
32
0
SEQEND
8
0
0
POLYLINE
8
0
62
5
66
1
10
0
20
0
30
0
70
8
0
VERTEX
8
0
62
5
10
-0.070710702
20
1.2192033
30
0
70
32
0
VERTEX
8
0
62
5
10
-0.070710702
20
1.3192033
30
0
70
32
0
SEQEND
8
0
0
POLYLINE
8
0
62
5
66
1
10
0
20
0
30
0
70
8
0
VERTEX
8
0
62
5
10
-0.28284274
20
1.2192033
30
0
70
32
0
VERTEX
8
0
62
5
10
-0.28284274
20
1.3192033
30
0
70
32
0
SEQEND
8
0
0
POLYLINE
8
0
62
5
66
1
10
0
20
0
30
0
70
8
0
VERTEX
8
0
62
5
10
-0.26516507
20
1.2942033
30
0
70
32
0
VERTEX
8
0
62
5
10
-0.26516507
20
1.2442033
30
0
70
32
0
VERTEX
8
0
62
5
10
-0.22980973
20
1.2442033
30
0
70
32
0
VERTEX
8
0
62
5
10
-0.22980973
20
1.2942033
30
0
70
32
0
VERTEX
8
0
62
5
10
-0.26516507
20
1.2942033
30
0
70
32
0
SEQEND
8
0
0
POLYLINE
8
0
62
5
66
1
10
0
20
0
30
0
70
8
0
VERTEX
8
0
62
5
10
-0.12374371
20
1.2942033
30
0
70
32
0
VERTEX
8
0
62
5
10
-0.12374371
20
1.2442033
30
0
70
32
0
VERTEX
8
0
62
5
10
-0.088388372
20
1.2442033
30
0
70
32
0
VERTEX
8
0
62
5
10
-0.088388372
20
1.2942033
30
0
70
32
0
VERTEX
8
0
62
5
10
-0.12374371
20
1.2942033
30
0
70
32
0
SEQEND
8
0
0
POLYLINE
8
0
62
5
66
1
10
0
20
0
30
0
70
8
0
VERTEX
8
0
62
5
10
-2.4252931e-08
20
1.3192033
30
0
70
32
0
VERTEX
8
0
62
5
10
-2.4252931e-08
20
1.4328118
30
0
70
32
0
SEQEND
8
0
0
POLYLINE
8
0
62
5
66
1
10
0
20
0
30
0
70
8
0
VERTEX
8
0
62
5
10
0.28284269
20
1.4328118
30
0
70
32
0
VERTEX
8
0
62
5
10
0.28284269
20
1.3192033
30
0
70
32
0
SEQEND
8
0
0
POLYLINE
8
0
62
5
66
1
10
0
20
0
30
0
70
8
0
VERTEX
8
0
62
5
10
-2.4252931e-08
20
1.3760075
30
0
70
32
0
VERTEX
8
0
62
5
10
0.070710654
20
1.3289494
30
0
70
32
0
VERTEX
8
0
62
5
10
0.14142133
20
1.3289494
30
0
70
32
0
VERTEX
8
0
62
5
10
0.21213201
20
1.3760075
30
0
70
32
0
VERTEX
8
0
62
5
10
0.28284269
20
1.3760075
30
0
70
32
0
SEQEND
8
0
0
POLYLINE
8
0
62
5
66
1
10
0
20
0
30
0
70
8
0
SEQEND
8
0
0
POLYLINE
8
0
62
5
66
1
10
0
20
0
30
0
70
8
0
VERTEX
8
0
62
5
10
-2.4252931e-08
20
1.3760075
30
0
70
32
0
VERTEX
8
0
62
5
10
0.070710654
20
1.4230657
30
0
70
32
0
VERTEX
8
0
62
5
10
0.14142133
20
1.4230657
30
0
70
32
0
VERTEX
8
0
62
5
10
0.21213201
20
1.3760075
30
0
70
32
0
VERTEX
8
0
62
5
10
0.28284269
20
1.3760075
30
0
70
32
0
SEQEND
8
0
0
POLYLINE
8
0
62
30
66
1
10
0
20
0
30
0
70
8
0
VERTEX
8
0
62
30
10
-2.4252931e-08
20
1.3760075
30
0
70
32
0
VERTEX
8
0
62
30
10
0.28284269
20
1.3760075
30
0
70
32
0
SEQEND
8
0
0
POLYLINE
8
0
62
30
66
1
10
0
20
0
30
0
70
8
0
VERTEX
8
0
62
30
10
0.070710654
20
1.3289494
30
0
70
32
0
VERTEX
8
0
62
30
10
0.070710654
20
1.3760075
30
0
70
32
0
SEQEND
8
0
0
POLYLINE
8
0
62
30
66
1
10
0
20
0
30
0
70
8
0
VERTEX
8
0
62
30
10
0.14142133
20
1.3289494
30
0
70
32
0
VERTEX
8
0
62
30
10
0.14142133
20
1.3760075
30
0
70
32
0
SEQEND
8
0
0
POLYLINE
8
0
62
30
66
1
10
0
20
0
30
0
70
8
0
VERTEX
8
0
62
30
10
0.21213201
20
1.3760075
30
0
70
32
0
VERTEX
8
0
62
30
10
0.21213201
20
1.3760075
30
0
70
32
0
SEQEND
8
0
0
POLYLINE
8
0
62
5
66
1
10
0
20
0
30
0
70
8
0
VERTEX
8
0
62
5
10
0.070710654
20
1.3192033
30
0
70
32
0
VERTEX
8
0
62
5
10
0.070710654
20
1.3289494
30
0
70
32
0
SEQEND
8
0
0
POLYLINE
8
0
62
5
66
1
10
0
20
0
30
0
70
8
0
VERTEX
8
0
62
5
10
0.14142133
20
1.3192033
30
0
70
32
0
VERTEX
8
0
62
5
10
0.14142133
20
1.3289494
30
0
70
32
0
SEQEND
8
0
0
POLYLINE
8
0
62
5
66
1
10
0
20
0
30
0
70
8
0
VERTEX
8
0
62
5
10
0.21213201
20
1.3192033
30
0
70
32
0
VERTEX
8
0
62
5
10
0.21213201
20
1.3760075
30
0
70
32
0
SEQEND
8
0
0
POLYLINE
8
0
62
5
66
1
10
0
20
0
30
0
70
8
0
VERTEX
8
0
62
5
10
0.070710654
20
1.3760075
30
0
70
32
0
VERTEX
8
0
62
5
10
0.070710654
20
1.4328118
30
0
70
32
0
SEQEND
8
0
0
POLYLINE
8
0
62
5
66
1
10
0
20
0
30
0
70
8
0
VERTEX
8
0
62
5
10
0.14142133
20
1.3760075
30
0
70
32
0
VERTEX
8
0
62
5
10
0.14142133
20
1.4328118
30
0
70
32
0
SEQEND
8
0
0
POLYLINE
8
0
62
5
66
1
10
0
20
0
30
0
70
8
0
VERTEX
8
0
62
5
10
0.21213201
20
1.3760075
30
0
70
32
0
VERTEX
8
0
62
5
10
0.21213201
20
1.4328118
30
0
70
32
0
SEQEND
8
0
0
POLYLINE
8
0
62
30
66
1
10
0
20
0
30
0
70
8
0
VERTEX
8
0
62
30
10
-2.4252931e-08
20
1.3760075
30
0
70
32
0
VERTEX
8
0
62
30
10
-2.4225866e-08
20
1.3760075
30
0
70
32
0
VERTEX
8
0
62
30
10
-2.4252931e-08
20
1.3760075
30
0
70
32
0
SEQEND
8
0
0
POLYLINE
8
0
62
30
66
1
10
0
20
0
30
0
70
8
0
VERTEX
8
0
62
30
10
0.070710654
20
1.3289494
30
0
70
32
0
VERTEX
8
0
62
30
10
0.095919819
20
1.3760075
30
0
70
32
0
VERTEX
8
0
62
30
10
0.070710654
20
1.4230657
30
0
70
32
0
SEQEND
8
0
0
POLYLINE
8
0
62
30
66
1
10
0
20
0
30
0
70
8
0
VERTEX
8
0
62
30
10
0.14142133
20
1.3289494
30
0
70
32
0
VERTEX
8
0
62
30
10
0.1666305
20
1.3760075
30
0
70
32
0
VERTEX
8
0
62
30
10
0.14142133
20
1.4230657
30
0
70
32
0
SEQEND
8
0
0
POLYLINE
8
0
62
30
66
1
10
0
20
0
30
0
70
8
0
VERTEX
8
0
62
30
10
0.21213201
20
1.3760075
30
0
70
32
0
VERTEX
8
0
62
30
10
0.21213201
20
1.3760075
30
0
70
32
0
VERTEX
8
0
62
30
10
0.21213201
20
1.3760075
30
0
70
32
0
SEQEND
8
0
0
POLYLINE
8
0
62
5
66
1
10
0
20
0
30
0
70
8
0
VERTEX
8
0
62
5
10
0.5656854
20
1.4328118
30
0
70
32
0
VERTEX
8
0
62
5
10
0.5656854
20
1.3192033
30
0
70
32
0
SEQEND
8
0
0
POLYLINE
8
0
62
5
66
1
10
0
20
0
30
0
70
8
0
VERTEX
8
0
62
5
10
0.28284269
20
1.3760075
30
0
70
32
0
VERTEX
8
0
62
5
10
0.35355337
20
1.3289494
30
0
70
32
0
VERTEX
8
0
62
5
10
0.42426404
20
1.3289494
30
0
70
32
0
VERTEX
8
0
62
5
10
0.49497472
20
1.3760075
30
0
70
32
0
VERTEX
8
0
62
5
10
0.5656854
20
1.3760075
30
0
70
32
0
SEQEND
8
0
0
POLYLINE
8
0
62
5
66
1
10
0
20
0
30
0
70
8
0
SEQEND
8
0
0
POLYLINE
8
0
62
5
66
1
10
0
20
0
30
0
70
8
0
VERTEX
8
0
62
5
10
0.28284269
20
1.3760075
30
0
70
32
0
VERTEX
8
0
62
5
10
0.35355337
20
1.4230657
30
0
70
32
0
VERTEX
8
0
62
5
10
0.42426404
20
1.4230657
30
0
70
32
0
VERTEX
8
0
62
5
10
0.49497472
20
1.3760075
30
0
70
32
0
VERTEX
8
0
62
5
10
0.5656854
20
1.3760075
30
0
70
32
0
SEQEND
8
0
0
POLYLINE
8
0
62
30
66
1
10
0
20
0
30
0
70
8
0
VERTEX
8
0
62
30
10
0.28284269
20
1.3760075
30
0
70
32
0
VERTEX
8
0
62
30
10
0.5656854
20
1.3760075
30
0
70
32
0
SEQEND
8
0
0
POLYLINE
8
0
62
30
66
1
10
0
20
0
30
0
70
8
0
VERTEX
8
0
62
30
10
0.35355337
20
1.3289494
30
0
70
32
0
VERTEX
8
0
62
30
10
0.35355337
20
1.3760075
30
0
70
32
0
SEQEND
8
0
0
POLYLINE
8
0
62
30
66
1
10
0
20
0
30
0
70
8
0
VERTEX
8
0
62
30
10
0.42426404
20
1.3289494
30
0
70
32
0
VERTEX
8
0
62
30
10
0.42426404
20
1.3760075
30
0
70
32
0
SEQEND
8
0
0
POLYLINE
8
0
62
30
66
1
10
0
20
0
30
0
70
8
0
VERTEX
8
0
62
30
10
0.49497472
20
1.3760075
30
0
70
32
0
VERTEX
8
0
62
30
10
0.49497472
20
1.3760075
30
0
70
32
0
SEQEND
8
0
0
POLYLINE
8
0
62
5
66
1
10
0
20
0
30
0
70
8
0
VERTEX
8
0
62
5
10
0.35355337
20
1.3192033
30
0
70
32
0
VERTEX
8
0
62
5
10
0.35355337
20
1.3289494
30
0
70
32
0
SEQEND
8
0
0
POLYLINE
8
0
62
5
66
1
10
0
20
0
30
0
70
8
0
VERTEX
8
0
62
5
10
0.42426404
20
1.3192033
30
0
70
32
0
VERTEX
8
0
62
5
10
0.42426404
20
1.3289494
30
0
70
32
0
SEQEND
8
0
0
POLYLINE
8
0
62
5
66
1
10
0
20
0
30
0
70
8
0
VERTEX
8
0
62
5
10
0.49497472
20
1.3192033
30
0
70
32
0
VERTEX
8
0
62
5
10
0.49497472
20
1.3760075
30
0
70
32
0
SEQEND
8
0
0
POLYLINE
8
0
62
5
66
1
10
0
20
0
30
0
70
8
0
VERTEX
8
0
62
5
10
0.35355337
20
1.3760075
30
0
70
32
0
VERTEX
8
0
62
5
10
0.35355337
20
1.4328118
30
0
70
32
0
SEQEND
8
0
0
POLYLINE
8
0
62
5
66
1
10
0
20
0
30
0
70
8
0
VERTEX
8
0
62
5
10
0.42426404
20
1.3760075
30
0
70
32
0
VERTEX
8
0
62
5
10
0.42426404
20
1.4328118
30
0
70
32
0
SEQEND
8
0
0
POLYLINE
8
0
62
5
66
1
10
0
20
0
30
0
70
8
0
VERTEX
8
0
62
5
10
0.49497472
20
1.3760075
30
0
70
32
0
VERTEX
8
0
62
5
10
0.49497472
20
1.4328118
30
0
70
32
0
SEQEND
8
0
0
POLYLINE
8
0
62
30
66
1
10
0
20
0
30
0
70
8
0
VERTEX
8
0
62
30
10
0.28284269
20
1.3760075
30
0
70
32
0
VERTEX
8
0
62
30
10
0.28284269
20
1.3760075
30
0
70
32
0
VERTEX
8
0
62
30
10
0.28284269
20
1.3760075
30
0
70
32
0
SEQEND
8
0
0
POLYLINE
8
0
62
30
66
1
10
0
20
0
30
0
70
8
0
VERTEX
8
0
62
30
10
0.35355337
20
1.3289494
30
0
70
32
0
VERTEX
8
0
62
30
10
0.37876253
20
1.3760075
30
0
70
32
0
VERTEX
8
0
62
30
10
0.35355337
20
1.4230657
30
0
70
32
0
SEQEND
8
0
0
POLYLINE
8
0
62
30
66
1
10
0
20
0
30
0
70
8
0
VERTEX
8
0
62
30
10
0.42426404
20
1.3289494
30
0
70
32
0
VERTEX
8
0
62
30
10
0.44947321
20
1.3760075
30
0
70
32
0
VERTEX
8
0
62
30
10
0.42426404
20
1.4230657
30
0
70
32
0
SEQEND
8
0
0
POLYLINE
8
0
62
30
66
1
10
0
20
0
30
0
70
8
0
VERTEX
8
0
62
30
10
0.49497472
20
1.3760075
30
0
70
32
0
VERTEX
8
0
62
30
10
0.49497472
20
1.3760075
30
0
70
32
0
VERTEX
8
0
62
30
10
0.49497472
20
1.3760075
30
0
70
32
0
SEQEND
8
0
0
POLYLINE
8
0
62
5
66
1
10
0
20
0
30
0
70
8
0
VERTEX
8
0
62
5
10
-0.28284274
20
1.3192033
30
0
70
32
0
VERTEX
8
0
62
5
10
-0.28284274
20
1.4328118
30
0
70
32
0
SEQEND
8
0
0
POLYLINE
8
0
62
5
66
1
10
0
20
0
30
0
70
8
0
VERTEX
8
0
62
5
10
-0.28284274
20
1.3760075
30
0
70
32
0
VERTEX
8
0
62
5
10
-0.21213206
20
1.3289494
30
0
70
32
0
VERTEX
8
0
62
5
10
-0.14142138
20
1.3289494
30
0
70
32
0
VERTEX
8
0
62
5
10
-0.070710702
20
1.3760075
30
0
70
32
0
VERTEX
8
0
62
5
10
-2.4252931e-08
20
1.3760075
30
0
70
32
0
SEQEND
8
0
0
POLYLINE
8
0
62
5
66
1
10
0
20
0
30
0
70
8
0
SEQEND
8
0
0
POLYLINE
8
0
62
5
66
1
10
0
20
0
30
0
70
8
0
VERTEX
8
0
62
5
10
-0.28284274
20
1.3760075
30
0
70
32
0
VERTEX
8
0
62
5
10
-0.21213206
20
1.4230657
30
0
70
32
0
VERTEX
8
0
62
5
10
-0.14142138
20
1.4230657
30
0
70
32
0
VERTEX
8
0
62
5
10
-0.070710702
20
1.3760075
30
0
70
32
0
VERTEX
8
0
62
5
10
-2.4252931e-08
20
1.3760075
30
0
70
32
0
SEQEND
8
0
0
POLYLINE
8
0
62
30
66
1
10
0
20
0
30
0
70
8
0
VERTEX
8
0
62
30
10
-0.28284274
20
1.3760075
30
0
70
32
0
VERTEX
8
0
62
30
10
-2.4252931e-08
20
1.3760075
30
0
70
32
0
SEQEND
8
0
0
POLYLINE
8
0
62
30
66
1
10
0
20
0
30
0
70
8
0
VERTEX
8
0
62
30
10
-0.21213206
20
1.3289494
30
0
70
32
0
VERTEX
8
0
62
30
10
-0.21213206
20
1.3760075
30
0
70
32
0
SEQEND
8
0
0
POLYLINE
8
0
62
30
66
1
10
0
20
0
30
0
70
8
0
VERTEX
8
0
62
30
10
-0.14142138
20
1.3289494
30
0
70
32
0
VERTEX
8
0
62
30
10
-0.14142138
20
1.3760075
30
0
70
32
0
SEQEND
8
0
0
POLYLINE
8
0
62
30
66
1
10
0
20
0
30
0
70
8
0
VERTEX
8
0
62
30
10
-0.070710702
20
1.3760075
30
0
70
32
0
VERTEX
8
0
62
30
10
-0.070710702
20
1.3760075
30
0
70
32
0
SEQEND
8
0
0
POLYLINE
8
0
62
5
66
1
10
0
20
0
30
0
70
8
0
VERTEX
8
0
62
5
10
-0.21213206
20
1.3192033
30
0
70
32
0
VERTEX
8
0
62
5
10
-0.21213206
20
1.3289494
30
0
70
32
0
SEQEND
8
0
0
POLYLINE
8
0
62
5
66
1
10
0
20
0
30
0
70
8
0
VERTEX
8
0
62
5
10
-0.14142138
20
1.3192033
30
0
70
32
0
VERTEX
8
0
62
5
10
-0.14142138
20
1.3289494
30
0
70
32
0
SEQEND
8
0
0
POLYLINE
8
0
62
5
66
1
10
0
20
0
30
0
70
8
0
VERTEX
8
0
62
5
10
-0.070710702
20
1.3192033
30
0
70
32
0
VERTEX
8
0
62
5
10
-0.070710702
20
1.3760075
30
0
70
32
0
SEQEND
8
0
0
POLYLINE
8
0
62
5
66
1
10
0
20
0
30
0
70
8
0
VERTEX
8
0
62
5
10
-0.21213206
20
1.3760075
30
0
70
32
0
VERTEX
8
0
62
5
10
-0.21213206
20
1.4328118
30
0
70
32
0
SEQEND
8
0
0
POLYLINE
8
0
62
5
66
1
10
0
20
0
30
0
70
8
0
VERTEX
8
0
62
5
10
-0.14142138
20
1.3760075
30
0
70
32
0
VERTEX
8
0
62
5
10
-0.14142138
20
1.4328118
30
0
70
32
0
SEQEND
8
0
0
POLYLINE
8
0
62
5
66
1
10
0
20
0
30
0
70
8
0
VERTEX
8
0
62
5
10
-0.070710702
20
1.3760075
30
0
70
32
0
VERTEX
8
0
62
5
10
-0.070710702
20
1.4328118
30
0
70
32
0
SEQEND
8
0
0
POLYLINE
8
0
62
30
66
1
10
0
20
0
30
0
70
8
0
VERTEX
8
0
62
30
10
-0.28284274
20
1.3760075
30
0
70
32
0
VERTEX
8
0
62
30
10
-0.28284274
20
1.3760075
30
0
70
32
0
VERTEX
8
0
62
30
10
-0.28284274
20
1.3760075
30
0
70
32
0
SEQEND
8
0
0
POLYLINE
8
0
62
30
66
1
10
0
20
0
30
0
70
8
0
VERTEX
8
0
62
30
10
-0.21213206
20
1.3289494
30
0
70
32
0
VERTEX
8
0
62
30
10
-0.18692289
20
1.3760075
30
0
70
32
0
VERTEX
8
0
62
30
10
-0.21213206
20
1.4230657
30
0
70
32
0
SEQEND
8
0
0
POLYLINE
8
0
62
30
66
1
10
0
20
0
30
0
70
8
0
VERTEX
8
0
62
30
10
-0.14142138
20
1.3289494
30
0
70
32
0
VERTEX
8
0
62
30
10
-0.11621222
20
1.3760075
30
0
70
32
0
VERTEX
8
0
62
30
10
-0.14142138
20
1.4230657
30
0
70
32
0
SEQEND
8
0
0
POLYLINE
8
0
62
30
66
1
10
0
20
0
30
0
70
8
0
VERTEX
8
0
62
30
10
-0.070710702
20
1.3760075
30
0
70
32
0
VERTEX
8
0
62
30
10
-0.070710702
20
1.3760075
30
0
70
32
0
VERTEX
8
0
62
30
10
-0.070710702
20
1.3760075
30
0
70
32
0
SEQEND
8
0
0
POLYLINE
8
0
62
5
66
1
10
0
20
0
30
0
70
8
0
VERTEX
8
0
62
5
10
-2.4252931e-08
20
1.4328118
30
0
70
32
0
VERTEX
8
0
62
5
10
-2.4252931e-08
20
1.4497784
30
0
70
32
0
SEQEND
8
0
0
POLYLINE
8
0
62
5
66
1
10
0
20
0
30
0
70
8
0
VERTEX
8
0
62
5
10
0.070710654
20
1.4328118
30
0
70
32
0
VERTEX
8
0
62
5
10
0.070710654
20
1.4497784
30
0
70
32
0
SEQEND
8
0
0
POLYLINE
8
0
62
5
66
1
10
0
20
0
30
0
70
8
0
VERTEX
8
0
62
5
10
0.14142133
20
1.4328118
30
0
70
32
0
VERTEX
8
0
62
5
10
0.14142133
20
1.4497784
30
0
70
32
0
SEQEND
8
0
0
POLYLINE
8
0
62
5
66
1
10
0
20
0
30
0
70
8
0
VERTEX
8
0
62
5
10
0.21213201
20
1.4328118
30
0
70
32
0
VERTEX
8
0
62
5
10
0.21213201
20
1.4497784
30
0
70
32
0
SEQEND
8
0
0
POLYLINE
8
0
62
5
66
1
10
0
20
0
30
0
70
8
0
VERTEX
8
0
62
5
10
0.28284269
20
1.4328118
30
0
70
32
0
VERTEX
8
0
62
5
10
0.28284269
20
1.4497784
30
0
70
32
0
SEQEND
8
0
0
POLYLINE
8
0
62
5
66
1
10
0
20
0
30
0
70
8
0
VERTEX
8
0
62
5
10
0.070710654
20
1.4328118
30
0
70
32
0
VERTEX
8
0
62
5
10
0.070710654
20
1.4328118
30
0
70
32
0
SEQEND
8
0
0
POLYLINE
8
0
62
5
66
1
10
0
20
0
30
0
70
8
0
VERTEX
8
0
62
5
10
0.14142133
20
1.4328118
30
0
70
32
0
VERTEX
8
0
62
5
10
0.14142133
20
1.4328118
30
0
70
32
0
SEQEND
8
0
0
POLYLINE
8
0
62
5
66
1
10
0
20
0
30
0
70
8
0
VERTEX
8
0
62
5
10
0.21213201
20
1.4328118
30
0
70
32
0
VERTEX
8
0
62
5
10
0.21213201
20
1.4328118
30
0
70
32
0
SEQEND
8
0
0
POLYLINE
8
0
62
5
66
1
10
0
20
0
30
0
70
8
0
VERTEX
8
0
62
5
10
0.070710654
20
1.4497784
30
0
70
32
0
VERTEX
8
0
62
5
10
0.070710654
20
1.4497784
30
0
70
32
0
SEQEND
8
0
0
POLYLINE
8
0
62
5
66
1
10
0
20
0
30
0
70
8
0
VERTEX
8
0
62
5
10
0.14142133
20
1.4497784
30
0
70
32
0
VERTEX
8
0
62
5
10
0.14142133
20
1.4497784
30
0
70
32
0
SEQEND
8
0
0
POLYLINE
8
0
62
5
66
1
10
0
20
0
30
0
70
8
0
VERTEX
8
0
62
5
10
0.21213201
20
1.4497784
30
0
70
32
0
VERTEX
8
0
62
5
10
0.21213201
20
1.4497784
30
0
70
32
0
SEQEND
8
0
0
POLYLINE
8
0
62
5
66
1
10
0
20
0
30
0
70
8
0
VERTEX
8
0
62
5
10
0.28284269
20
1.4497784
30
0
70
32
0
VERTEX
8
0
62
5
10
0.28284269
20
1.4497784
30
0
70
32
0
SEQEND
8
0
0
POLYLINE
8
0
62
5
66
1
10
0
20
0
30
0
70
8
0
VERTEX
8
0
62
5
10
0.35355337
20
1.4328118
30
0
70
32
0
VERTEX
8
0
62
5
10
0.35355337
20
1.4497784
30
0
70
32
0
SEQEND
8
0
0
POLYLINE
8
0
62
5
66
1
10
0
20
0
30
0
70
8
0
VERTEX
8
0
62
5
10
0.42426404
20
1.4328118
30
0
70
32
0
VERTEX
8
0
62
5
10
0.42426404
20
1.4497784
30
0
70
32
0
SEQEND
8
0
0
POLYLINE
8
0
62
5
66
1
10
0
20
0
30
0
70
8
0
VERTEX
8
0
62
5
10
0.49497472
20
1.4328118
30
0
70
32
0
VERTEX
8
0
62
5
10
0.49497472
20
1.4497784
30
0
70
32
0
SEQEND
8
0
0
POLYLINE
8
0
62
5
66
1
10
0
20
0
30
0
70
8
0
VERTEX
8
0
62
5
10
0.5656854
20
1.4328118
30
0
70
32
0
VERTEX
8
0
62
5
10
0.5656854
20
1.4497784
30
0
70
32
0
SEQEND
8
0
0
POLYLINE
8
0
62
5
66
1
10
0
20
0
30
0
70
8
0
VERTEX
8
0
62
5
10
0.35355337
20
1.4328118
30
0
70
32
0
VERTEX
8
0
62
5
10
0.35355337
20
1.4328118
30
0
70
32
0
SEQEND
8
0
0
POLYLINE
8
0
62
5
66
1
10
0
20
0
30
0
70
8
0
VERTEX
8
0
62
5
10
0.42426404
20
1.4328118
30
0
70
32
0
VERTEX
8
0
62
5
10
0.42426404
20
1.4328118
30
0
70
32
0
SEQEND
8
0
0
POLYLINE
8
0
62
5
66
1
10
0
20
0
30
0
70
8
0
VERTEX
8
0
62
5
10
0.49497472
20
1.4328118
30
0
70
32
0
VERTEX
8
0
62
5
10
0.49497472
20
1.4328118
30
0
70
32
0
SEQEND
8
0
0
POLYLINE
8
0
62
5
66
1
10
0
20
0
30
0
70
8
0
VERTEX
8
0
62
5
10
0.35355337
20
1.4497784
30
0
70
32
0
VERTEX
8
0
62
5
10
0.35355337
20
1.4497784
30
0
70
32
0
SEQEND
8
0
0
POLYLINE
8
0
62
5
66
1
10
0
20
0
30
0
70
8
0
VERTEX
8
0
62
5
10
0.42426404
20
1.4497784
30
0
70
32
0
VERTEX
8
0
62
5
10
0.42426404
20
1.4497784
30
0
70
32
0
SEQEND
8
0
0
POLYLINE
8
0
62
5
66
1
10
0
20
0
30
0
70
8
0
VERTEX
8
0
62
5
10
0.49497472
20
1.4497784
30
0
70
32
0
VERTEX
8
0
62
5
10
0.49497472
20
1.4497784
30
0
70
32
0
SEQEND
8
0
0
POLYLINE
8
0
62
5
66
1
10
0
20
0
30
0
70
8
0
VERTEX
8
0
62
5
10
0.5656854
20
1.4497784
30
0
70
32
0
VERTEX
8
0
62
5
10
0.5656854
20
1.4497784
30
0
70
32
0
SEQEND
8
0
0
POLYLINE
8
0
62
5
66
1
10
0
20
0
30
0
70
8
0
VERTEX
8
0
62
5
10
-0.21213206
20
1.4328118
30
0
70
32
0
VERTEX
8
0
62
5
10
-0.21213206
20
1.4497784
30
0
70
32
0
SEQEND
8
0
0
POLYLINE
8
0
62
5
66
1
10
0
20
0
30
0
70
8
0
VERTEX
8
0
62
5
10
-0.14142138
20
1.4328118
30
0
70
32
0
VERTEX
8
0
62
5
10
-0.14142138
20
1.4497784
30
0
70
32
0
SEQEND
8
0
0
POLYLINE
8
0
62
5
66
1
10
0
20
0
30
0
70
8
0
VERTEX
8
0
62
5
10
-0.070710702
20
1.4328118
30
0
70
32
0
VERTEX
8
0
62
5
10
-0.070710702
20
1.4497784
30
0
70
32
0
SEQEND
8
0
0
POLYLINE
8
0
62
5
66
1
10
0
20
0
30
0
70
8
0
VERTEX
8
0
62
5
10
-2.4252931e-08
20
1.4328118
30
0
70
32
0
VERTEX
8
0
62
5
10
-2.4252931e-08
20
1.4497784
30
0
70
32
0
SEQEND
8
0
0
POLYLINE
8
0
62
5
66
1
10
0
20
0
30
0
70
8
0
VERTEX
8
0
62
5
10
-0.21213206
20
1.4328118
30
0
70
32
0
VERTEX
8
0
62
5
10
-0.21213206
20
1.4328118
30
0
70
32
0
SEQEND
8
0
0
POLYLINE
8
0
62
5
66
1
10
0
20
0
30
0
70
8
0
VERTEX
8
0
62
5
10
-0.14142138
20
1.4328118
30
0
70
32
0
VERTEX
8
0
62
5
10
-0.14142138
20
1.4328118
30
0
70
32
0
SEQEND
8
0
0
POLYLINE
8
0
62
5
66
1
10
0
20
0
30
0
70
8
0
VERTEX
8
0
62
5
10
-0.070710702
20
1.4328118
30
0
70
32
0
VERTEX
8
0
62
5
10
-0.070710702
20
1.4328118
30
0
70
32
0
SEQEND
8
0
0
POLYLINE
8
0
62
5
66
1
10
0
20
0
30
0
70
8
0
VERTEX
8
0
62
5
10
-0.21213206
20
1.4497784
30
0
70
32
0
VERTEX
8
0
62
5
10
-0.21213206
20
1.4497784
30
0
70
32
0
SEQEND
8
0
0
POLYLINE
8
0
62
5
66
1
10
0
20
0
30
0
70
8
0
VERTEX
8
0
62
5
10
-0.14142138
20
1.4497784
30
0
70
32
0
VERTEX
8
0
62
5
10
-0.14142138
20
1.4497784
30
0
70
32
0
SEQEND
8
0
0
POLYLINE
8
0
62
5
66
1
10
0
20
0
30
0
70
8
0
VERTEX
8
0
62
5
10
-0.070710702
20
1.4497784
30
0
70
32
0
VERTEX
8
0
62
5
10
-0.070710702
20
1.4497784
30
0
70
32
0
SEQEND
8
0
0
POLYLINE
8
0
62
5
66
1
10
0
20
0
30
0
70
8
0
VERTEX
8
0
62
5
10
-2.4257639e-08
20
1.4497784
30
0
70
32
0
VERTEX
8
0
62
5
10
-2.4257639e-08
20
1.4497784
30
0
70
32
0
SEQEND
8
0
0
POLYLINE
8
0
62
5
66
1
10
0
20
0
30
0
70
8
0
VERTEX
8
0
62
5
10
-2.4257639e-08
20
1.4497784
30
0
70
32
0
VERTEX
8
0
62
5
10
-2.4257639e-08
20
1.5176451
30
0
70
32
0
SEQEND
8
0
0
POLYLINE
8
0
62
5
66
1
10
0
20
0
30
0
70
8
0
VERTEX
8
0
62
5
10
0.28284269
20
1.4497784
30
0
70
32
0
VERTEX
8
0
62
5
10
0.28284269
20
1.5176451
30
0
70
32
0
SEQEND
8
0
0
POLYLINE
8
0
62
5
66
1
10
0
20
0
30
0
70
8
0
VERTEX
8
0
62
5
10
0.070710654
20
1.4497784
30
0
70
32
0
VERTEX
8
0
62
5
10
0.070710654
20
1.5176451
30
0
70
32
0
SEQEND
8
0
0
POLYLINE
8
0
62
5
66
1
10
0
20
0
30
0
70
8
0
VERTEX
8
0
62
5
10
0.14142133
20
1.4497784
30
0
70
32
0
VERTEX
8
0
62
5
10
0.14142133
20
1.5176451
30
0
70
32
0
SEQEND
8
0
0
POLYLINE
8
0
62
5
66
1
10
0
20
0
30
0
70
8
0
VERTEX
8
0
62
5
10
0.21213201
20
1.4497784
30
0
70
32
0
VERTEX
8
0
62
5
10
0.21213201
20
1.5176451
30
0
70
32
0
SEQEND
8
0
0
POLYLINE
8
0
62
5
66
1
10
0
20
0
30
0
70
8
0
VERTEX
8
0
62
5
10
0.5656854
20
1.4497784
30
0
70
32
0
VERTEX
8
0
62
5
10
0.5656854
20
1.5176451
30
0
70
32
0
SEQEND
8
0
0
POLYLINE
8
0
62
5
66
1
10
0
20
0
30
0
70
8
0
VERTEX
8
0
62
5
10
0.35355337
20
1.4497784
30
0
70
32
0
VERTEX
8
0
62
5
10
0.35355337
20
1.5176451
30
0
70
32
0
SEQEND
8
0
0
POLYLINE
8
0
62
5
66
1
10
0
20
0
30
0
70
8
0
VERTEX
8
0
62
5
10
0.42426404
20
1.4497784
30
0
70
32
0
VERTEX
8
0
62
5
10
0.42426404
20
1.5176451
30
0
70
32
0
SEQEND
8
0
0
POLYLINE
8
0
62
5
66
1
10
0
20
0
30
0
70
8
0
VERTEX
8
0
62
5
10
0.49497472
20
1.4497784
30
0
70
32
0
VERTEX
8
0
62
5
10
0.49497472
20
1.5176451
30
0
70
32
0
SEQEND
8
0
0
POLYLINE
8
0
62
5
66
1
10
0
20
0
30
0
70
8
0
VERTEX
8
0
62
5
10
-0.28284274
20
1.4497784
30
0
70
32
0
VERTEX
8
0
62
5
10
-0.28284274
20
1.5176451
30
0
70
32
0
SEQEND
8
0
0
POLYLINE
8
0
62
5
66
1
10
0
20
0
30
0
70
8
0
VERTEX
8
0
62
5
10
-0.21213206
20
1.4497784
30
0
70
32
0
VERTEX
8
0
62
5
10
-0.21213206
20
1.5176451
30
0
70
32
0
SEQEND
8
0
0
POLYLINE
8
0
62
5
66
1
10
0
20
0
30
0
70
8
0
VERTEX
8
0
62
5
10
-0.14142138
20
1.4497784
30
0
70
32
0
VERTEX
8
0
62
5
10
-0.14142138
20
1.5176451
30
0
70
32
0
SEQEND
8
0
0
POLYLINE
8
0
62
5
66
1
10
0
20
0
30
0
70
8
0
VERTEX
8
0
62
5
10
-0.070710702
20
1.4497784
30
0
70
32
0
VERTEX
8
0
62
5
10
-0.070710702
20
1.5176451
30
0
70
32
0
SEQEND
8
0
0
POLYLINE
8
0
62
5
66
1
10
0
20
0
30
0
70
8
0
VERTEX
8
0
62
5
10
-2.4257639e-08
20
1.5176451
30
0
70
32
0
VERTEX
8
0
62
5
10
-2.4257639e-08
20
1.551273
30
0
70
32
0
SEQEND
8
0
0
POLYLINE
8
0
62
5
66
1
10
0
20
0
30
0
70
8
0
VERTEX
8
0
62
5
10
0.28284269
20
1.551273
30
0
70
32
0
VERTEX
8
0
62
5
10
0.28284269
20
1.5176451
30
0
70
32
0
SEQEND
8
0
0
POLYLINE
8
0
62
5
66
1
10
0
20
0
30
0
70
8
0
VERTEX
8
0
62
5
10
-2.4257639e-08
20
1.5205299
30
0
70
32
0
VERTEX
8
0
62
5
10
0.070710654
20
1.534459
30
0
70
32
0
VERTEX
8
0
62
5
10
0.14142133
20
1.534459
30
0
70
32
0
VERTEX
8
0
62
5
10
0.21213201
20
1.5205299
30
0
70
32
0
VERTEX
8
0
62
5
10
0.28284269
20
1.5205299
30
0
70
32
0
SEQEND
8
0
0
POLYLINE
8
0
62
5
66
1
10
0
20
0
30
0
70
8
0
SEQEND
8
0
0
POLYLINE
8
0
62
5
66
1
10
0
20
0
30
0
70
8
0
VERTEX
8
0
62
5
10
-2.4257639e-08
20
1.5483882
30
0
70
32
0
VERTEX
8
0
62
5
10
0.070710654
20
1.534459
30
0
70
32
0
VERTEX
8
0
62
5
10
0.14142133
20
1.534459
30
0
70
32
0
VERTEX
8
0
62
5
10
0.21213201
20
1.5483882
30
0
70
32
0
VERTEX
8
0
62
5
10
0.28284269
20
1.5483882
30
0
70
32
0
SEQEND
8
0
0
POLYLINE
8
0
62
30
66
1
10
0
20
0
30
0
70
8
0
VERTEX
8
0
62
30
10
-2.4257639e-08
20
1.534459
30
0
70
32
0
VERTEX
8
0
62
30
10
0.28284269
20
1.534459
30
0
70
32
0
SEQEND
8
0
0
POLYLINE
8
0
62
30
66
1
10
0
20
0
30
0
70
8
0
VERTEX
8
0
62
30
10
0.070710654
20
1.534459
30
0
70
32
0
VERTEX
8
0
62
30
10
0.070710654
20
1.534459
30
0
70
32
0
SEQEND
8
0
0
POLYLINE
8
0
62
30
66
1
10
0
20
0
30
0
70
8
0
VERTEX
8
0
62
30
10
0.14142133
20
1.534459
30
0
70
32
0
VERTEX
8
0
62
30
10
0.14142133
20
1.534459
30
0
70
32
0
SEQEND
8
0
0
POLYLINE
8
0
62
30
66
1
10
0
20
0
30
0
70
8
0
VERTEX
8
0
62
30
10
0.21213201
20
1.5205299
30
0
70
32
0
VERTEX
8
0
62
30
10
0.21213201
20
1.534459
30
0
70
32
0
SEQEND
8
0
0
POLYLINE
8
0
62
5
66
1
10
0
20
0
30
0
70
8
0
VERTEX
8
0
62
5
10
0.070710654
20
1.5176451
30
0
70
32
0
VERTEX
8
0
62
5
10
0.070710654
20
1.534459
30
0
70
32
0
SEQEND
8
0
0
POLYLINE
8
0
62
5
66
1
10
0
20
0
30
0
70
8
0
VERTEX
8
0
62
5
10
0.14142133
20
1.5176451
30
0
70
32
0
VERTEX
8
0
62
5
10
0.14142133
20
1.534459
30
0
70
32
0
SEQEND
8
0
0
POLYLINE
8
0
62
5
66
1
10
0
20
0
30
0
70
8
0
VERTEX
8
0
62
5
10
0.21213201
20
1.5176451
30
0
70
32
0
VERTEX
8
0
62
5
10
0.21213201
20
1.5205299
30
0
70
32
0
SEQEND
8
0
0
POLYLINE
8
0
62
5
66
1
10
0
20
0
30
0
70
8
0
VERTEX
8
0
62
5
10
0.070710654
20
1.534459
30
0
70
32
0
VERTEX
8
0
62
5
10
0.070710654
20
1.551273
30
0
70
32
0
SEQEND
8
0
0
POLYLINE
8
0
62
5
66
1
10
0
20
0
30
0
70
8
0
VERTEX
8
0
62
5
10
0.14142133
20
1.534459
30
0
70
32
0
VERTEX
8
0
62
5
10
0.14142133
20
1.551273
30
0
70
32
0
SEQEND
8
0
0
POLYLINE
8
0
62
5
66
1
10
0
20
0
30
0
70
8
0
VERTEX
8
0
62
5
10
0.21213201
20
1.534459
30
0
70
32
0
VERTEX
8
0
62
5
10
0.21213201
20
1.551273
30
0
70
32
0
SEQEND
8
0
0
POLYLINE
8
0
62
30
66
1
10
0
20
0
30
0
70
8
0
VERTEX
8
0
62
30
10
-2.4257639e-08
20
1.5205299
30
0
70
32
0
VERTEX
8
0
62
30
10
0.011452914
20
1.534459
30
0
70
32
0
VERTEX
8
0
62
30
10
-2.4257639e-08
20
1.5483882
30
0
70
32
0
SEQEND
8
0
0
POLYLINE
8
0
62
30
66
1
10
0
20
0
30
0
70
8
0
VERTEX
8
0
62
30
10
0.070710654
20
1.534459
30
0
70
32
0
VERTEX
8
0
62
30
10
0.070710654
20
1.534459
30
0
70
32
0
VERTEX
8
0
62
30
10
0.070710654
20
1.534459
30
0
70
32
0
SEQEND
8
0
0
POLYLINE
8
0
62
30
66
1
10
0
20
0
30
0
70
8
0
VERTEX
8
0
62
30
10
0.14142133
20
1.534459
30
0
70
32
0
VERTEX
8
0
62
30
10
0.14142133
20
1.534459
30
0
70
32
0
VERTEX
8
0
62
30
10
0.14142133
20
1.534459
30
0
70
32
0
SEQEND
8
0
0
POLYLINE
8
0
62
30
66
1
10
0
20
0
30
0
70
8
0
VERTEX
8
0
62
30
10
0.21213201
20
1.5205299
30
0
70
32
0
VERTEX
8
0
62
30
10
0.22358495
20
1.534459
30
0
70
32
0
VERTEX
8
0
62
30
10
0.21213201
20
1.5483882
30
0
70
32
0
SEQEND
8
0
0
POLYLINE
8
0
62
5
66
1
10
0
20
0
30
0
70
8
0
VERTEX
8
0
62
5
10
0.5656854
20
1.551273
30
0
70
32
0
VERTEX
8
0
62
5
10
0.5656854
20
1.5176451
30
0
70
32
0
SEQEND
8
0
0
POLYLINE
8
0
62
5
66
1
10
0
20
0
30
0
70
8
0
VERTEX
8
0
62
5
10
0.28284269
20
1.5205299
30
0
70
32
0
VERTEX
8
0
62
5
10
0.35355337
20
1.534459
30
0
70
32
0
VERTEX
8
0
62
5
10
0.42426404
20
1.534459
30
0
70
32
0
VERTEX
8
0
62
5
10
0.49497472
20
1.5205299
30
0
70
32
0
VERTEX
8
0
62
5
10
0.5656854
20
1.5205299
30
0
70
32
0
SEQEND
8
0
0
POLYLINE
8
0
62
5
66
1
10
0
20
0
30
0
70
8
0
SEQEND
8
0
0
POLYLINE
8
0
62
5
66
1
10
0
20
0
30
0
70
8
0
VERTEX
8
0
62
5
10
0.28284269
20
1.5483882
30
0
70
32
0
VERTEX
8
0
62
5
10
0.35355337
20
1.534459
30
0
70
32
0
VERTEX
8
0
62
5
10
0.42426404
20
1.534459
30
0
70
32
0
VERTEX
8
0
62
5
10
0.49497472
20
1.5483882
30
0
70
32
0
VERTEX
8
0
62
5
10
0.5656854
20
1.5483882
30
0
70
32
0
SEQEND
8
0
0
POLYLINE
8
0
62
30
66
1
10
0
20
0
30
0
70
8
0
VERTEX
8
0
62
30
10
0.28284269
20
1.534459
30
0
70
32
0
VERTEX
8
0
62
30
10
0.5656854
20
1.534459
30
0
70
32
0
SEQEND
8
0
0
POLYLINE
8
0
62
30
66
1
10
0
20
0
30
0
70
8
0
VERTEX
8
0
62
30
10
0.35355337
20
1.534459
30
0
70
32
0
VERTEX
8
0
62
30
10
0.35355337
20
1.534459
30
0
70
32
0
SEQEND
8
0
0
POLYLINE
8
0
62
30
66
1
10
0
20
0
30
0
70
8
0
VERTEX
8
0
62
30
10
0.42426404
20
1.534459
30
0
70
32
0
VERTEX
8
0
62
30
10
0.42426404
20
1.534459
30
0
70
32
0
SEQEND
8
0
0
POLYLINE
8
0
62
30
66
1
10
0
20
0
30
0
70
8
0
VERTEX
8
0
62
30
10
0.49497472
20
1.5205299
30
0
70
32
0
VERTEX
8
0
62
30
10
0.49497472
20
1.534459
30
0
70
32
0
SEQEND
8
0
0
POLYLINE
8
0
62
5
66
1
10
0
20
0
30
0
70
8
0
VERTEX
8
0
62
5
10
0.35355337
20
1.5176451
30
0
70
32
0
VERTEX
8
0
62
5
10
0.35355337
20
1.534459
30
0
70
32
0
SEQEND
8
0
0
POLYLINE
8
0
62
5
66
1
10
0
20
0
30
0
70
8
0
VERTEX
8
0
62
5
10
0.42426404
20
1.5176451
30
0
70
32
0
VERTEX
8
0
62
5
10
0.42426404
20
1.534459
30
0
70
32
0
SEQEND
8
0
0
POLYLINE
8
0
62
5
66
1
10
0
20
0
30
0
70
8
0
VERTEX
8
0
62
5
10
0.49497472
20
1.5176451
30
0
70
32
0
VERTEX
8
0
62
5
10
0.49497472
20
1.5205299
30
0
70
32
0
SEQEND
8
0
0
POLYLINE
8
0
62
5
66
1
10
0
20
0
30
0
70
8
0
VERTEX
8
0
62
5
10
0.35355337
20
1.534459
30
0
70
32
0
VERTEX
8
0
62
5
10
0.35355337
20
1.551273
30
0
70
32
0
SEQEND
8
0
0
POLYLINE
8
0
62
5
66
1
10
0
20
0
30
0
70
8
0
VERTEX
8
0
62
5
10
0.42426404
20
1.534459
30
0
70
32
0
VERTEX
8
0
62
5
10
0.42426404
20
1.551273
30
0
70
32
0
SEQEND
8
0
0
POLYLINE
8
0
62
5
66
1
10
0
20
0
30
0
70
8
0
VERTEX
8
0
62
5
10
0.49497472
20
1.534459
30
0
70
32
0
VERTEX
8
0
62
5
10
0.49497472
20
1.551273
30
0
70
32
0
SEQEND
8
0
0
POLYLINE
8
0
62
30
66
1
10
0
20
0
30
0
70
8
0
VERTEX
8
0
62
30
10
0.28284269
20
1.5205299
30
0
70
32
0
VERTEX
8
0
62
30
10
0.29429563
20
1.534459
30
0
70
32
0
VERTEX
8
0
62
30
10
0.28284269
20
1.5483882
30
0
70
32
0
SEQEND
8
0
0
POLYLINE
8
0
62
30
66
1
10
0
20
0
30
0
70
8
0
VERTEX
8
0
62
30
10
0.35355337
20
1.534459
30
0
70
32
0
VERTEX
8
0
62
30
10
0.35355337
20
1.534459
30
0
70
32
0
VERTEX
8
0
62
30
10
0.35355337
20
1.534459
30
0
70
32
0
SEQEND
8
0
0
POLYLINE
8
0
62
30
66
1
10
0
20
0
30
0
70
8
0
VERTEX
8
0
62
30
10
0.42426404
20
1.534459
30
0
70
32
0
VERTEX
8
0
62
30
10
0.42426404
20
1.534459
30
0
70
32
0
VERTEX
8
0
62
30
10
0.42426404
20
1.534459
30
0
70
32
0
SEQEND
8
0
0
POLYLINE
8
0
62
30
66
1
10
0
20
0
30
0
70
8
0
VERTEX
8
0
62
30
10
0.49497472
20
1.5205299
30
0
70
32
0
VERTEX
8
0
62
30
10
0.50642766
20
1.534459
30
0
70
32
0
VERTEX
8
0
62
30
10
0.49497472
20
1.5483882
30
0
70
32
0
SEQEND
8
0
0
POLYLINE
8
0
62
5
66
1
10
0
20
0
30
0
70
8
0
VERTEX
8
0
62
5
10
-0.28284274
20
1.5176451
30
0
70
32
0
VERTEX
8
0
62
5
10
-0.28284274
20
1.551273
30
0
70
32
0
SEQEND
8
0
0
POLYLINE
8
0
62
5
66
1
10
0
20
0
30
0
70
8
0
VERTEX
8
0
62
5
10
-0.28284274
20
1.5205299
30
0
70
32
0
VERTEX
8
0
62
5
10
-0.21213206
20
1.534459
30
0
70
32
0
VERTEX
8
0
62
5
10
-0.14142138
20
1.534459
30
0
70
32
0
VERTEX
8
0
62
5
10
-0.070710702
20
1.5205299
30
0
70
32
0
VERTEX
8
0
62
5
10
-2.4257639e-08
20
1.5205299
30
0
70
32
0
SEQEND
8
0
0
POLYLINE
8
0
62
5
66
1
10
0
20
0
30
0
70
8
0
SEQEND
8
0
0
POLYLINE
8
0
62
5
66
1
10
0
20
0
30
0
70
8
0
VERTEX
8
0
62
5
10
-0.28284274
20
1.5483882
30
0
70
32
0
VERTEX
8
0
62
5
10
-0.21213206
20
1.534459
30
0
70
32
0
VERTEX
8
0
62
5
10
-0.14142138
20
1.534459
30
0
70
32
0
VERTEX
8
0
62
5
10
-0.070710702
20
1.5483882
30
0
70
32
0
VERTEX
8
0
62
5
10
-2.4257639e-08
20
1.5483882
30
0
70
32
0
SEQEND
8
0
0
POLYLINE
8
0
62
30
66
1
10
0
20
0
30
0
70
8
0
VERTEX
8
0
62
30
10
-0.28284274
20
1.534459
30
0
70
32
0
VERTEX
8
0
62
30
10
-2.4257639e-08
20
1.534459
30
0
70
32
0
SEQEND
8
0
0
POLYLINE
8
0
62
30
66
1
10
0
20
0
30
0
70
8
0
VERTEX
8
0
62
30
10
-0.21213206
20
1.534459
30
0
70
32
0
VERTEX
8
0
62
30
10
-0.21213206
20
1.534459
30
0
70
32
0
SEQEND
8
0
0
POLYLINE
8
0
62
30
66
1
10
0
20
0
30
0
70
8
0
VERTEX
8
0
62
30
10
-0.14142138
20
1.534459
30
0
70
32
0
VERTEX
8
0
62
30
10
-0.14142138
20
1.534459
30
0
70
32
0
SEQEND
8
0
0
POLYLINE
8
0
62
30
66
1
10
0
20
0
30
0
70
8
0
VERTEX
8
0
62
30
10
-0.070710702
20
1.5205299
30
0
70
32
0
VERTEX
8
0
62
30
10
-0.070710702
20
1.534459
30
0
70
32
0
SEQEND
8
0
0
POLYLINE
8
0
62
5
66
1
10
0
20
0
30
0
70
8
0
VERTEX
8
0
62
5
10
-0.21213206
20
1.5176451
30
0
70
32
0
VERTEX
8
0
62
5
10
-0.21213206
20
1.534459
30
0
70
32
0
SEQEND
8
0
0
POLYLINE
8
0
62
5
66
1
10
0
20
0
30
0
70
8
0
VERTEX
8
0
62
5
10
-0.14142138
20
1.5176451
30
0
70
32
0
VERTEX
8
0
62
5
10
-0.14142138
20
1.534459
30
0
70
32
0
SEQEND
8
0
0
POLYLINE
8
0
62
5
66
1
10
0
20
0
30
0
70
8
0
VERTEX
8
0
62
5
10
-0.070710702
20
1.5176451
30
0
70
32
0
VERTEX
8
0
62
5
10
-0.070710702
20
1.5205299
30
0
70
32
0
SEQEND
8
0
0
POLYLINE
8
0
62
5
66
1
10
0
20
0
30
0
70
8
0
VERTEX
8
0
62
5
10
-0.21213206
20
1.534459
30
0
70
32
0
VERTEX
8
0
62
5
10
-0.21213206
20
1.551273
30
0
70
32
0
SEQEND
8
0
0
POLYLINE
8
0
62
5
66
1
10
0
20
0
30
0
70
8
0
VERTEX
8
0
62
5
10
-0.14142138
20
1.534459
30
0
70
32
0
VERTEX
8
0
62
5
10
-0.14142138
20
1.551273
30
0
70
32
0
SEQEND
8
0
0
POLYLINE
8
0
62
5
66
1
10
0
20
0
30
0
70
8
0
VERTEX
8
0
62
5
10
-0.070710702
20
1.534459
30
0
70
32
0
VERTEX
8
0
62
5
10
-0.070710702
20
1.551273
30
0
70
32
0
SEQEND
8
0
0
POLYLINE
8
0
62
30
66
1
10
0
20
0
30
0
70
8
0
VERTEX
8
0
62
30
10
-0.28284274
20
1.5205299
30
0
70
32
0
VERTEX
8
0
62
30
10
-0.2713898
20
1.534459
30
0
70
32
0
VERTEX
8
0
62
30
10
-0.28284274
20
1.5483882
30
0
70
32
0
SEQEND
8
0
0
POLYLINE
8
0
62
30
66
1
10
0
20
0
30
0
70
8
0
VERTEX
8
0
62
30
10
-0.21213206
20
1.534459
30
0
70
32
0
VERTEX
8
0
62
30
10
-0.21213206
20
1.534459
30
0
70
32
0
VERTEX
8
0
62
30
10
-0.21213206
20
1.534459
30
0
70
32
0
SEQEND
8
0
0
POLYLINE
8
0
62
30
66
1
10
0
20
0
30
0
70
8
0
VERTEX
8
0
62
30
10
-0.14142138
20
1.534459
30
0
70
32
0
VERTEX
8
0
62
30
10
-0.14142138
20
1.534459
30
0
70
32
0
VERTEX
8
0
62
30
10
-0.14142138
20
1.534459
30
0
70
32
0
SEQEND
8
0
0
POLYLINE
8
0
62
30
66
1
10
0
20
0
30
0
70
8
0
VERTEX
8
0
62
30
10
-0.070710702
20
1.5205299
30
0
70
32
0
VERTEX
8
0
62
30
10
-0.059257765
20
1.534459
30
0
70
32
0
VERTEX
8
0
62
30
10
-0.070710702
20
1.5483882
30
0
70
32
0
SEQEND
8
0
0
POLYLINE
8
0
62
5
66
1
10
0
20
0
30
0
70
8
0
VERTEX
8
0
62
5
10
-2.4257639e-08
20
1.551273
30
0
70
32
0
VERTEX
8
0
62
5
10
-2.4257639e-08
20
1.651273
30
0
70
32
0
SEQEND
8
0
0
POLYLINE
8
0
62
5
66
1
10
0
20
0
30
0
70
8
0
VERTEX
8
0
62
5
10
0.28284269
20
1.651273
30
0
70
32
0
VERTEX
8
0
62
5
10
0.28284269
20
1.551273
30
0
70
32
0
SEQEND
8
0
0
POLYLINE
8
0
62
5
66
1
10
0
20
0
30
0
70
8
0
VERTEX
8
0
62
5
10
-2.4257639e-08
20
1.551273
30
0
70
32
0
VERTEX
8
0
62
5
10
0.28284269
20
1.551273
30
0
70
32
0
SEQEND
8
0
0
POLYLINE
8
0
62
5
66
1
10
0
20
0
30
0
70
8
0
VERTEX
8
0
62
5
10
-2.4257639e-08
20
1.651273
30
0
70
32
0
VERTEX
8
0
62
5
10
0.28284269
20
1.651273
30
0
70
32
0
SEQEND
8
0
0
POLYLINE
8
0
62
5
66
1
10
0
20
0
30
0
70
8
0
VERTEX
8
0
62
5
10
0.070710654
20
1.551273
30
0
70
32
0
VERTEX
8
0
62
5
10
0.070710654
20
1.551273
30
0
70
32
0
SEQEND
8
0
0
POLYLINE
8
0
62
5
66
1
10
0
20
0
30
0
70
8
0
VERTEX
8
0
62
5
10
0.14142133
20
1.551273
30
0
70
32
0
VERTEX
8
0
62
5
10
0.14142133
20
1.551273
30
0
70
32
0
SEQEND
8
0
0
POLYLINE
8
0
62
5
66
1
10
0
20
0
30
0
70
8
0
VERTEX
8
0
62
5
10
0.21213201
20
1.551273
30
0
70
32
0
VERTEX
8
0
62
5
10
0.21213201
20
1.551273
30
0
70
32
0
SEQEND
8
0
0
POLYLINE
8
0
62
5
66
1
10
0
20
0
30
0
70
8
0
VERTEX
8
0
62
5
10
0.070710654
20
1.651273
30
0
70
32
0
VERTEX
8
0
62
5
10
0.070710654
20
1.651273
30
0
70
32
0
SEQEND
8
0
0
POLYLINE
8
0
62
5
66
1
10
0
20
0
30
0
70
8
0
VERTEX
8
0
62
5
10
0.14142133
20
1.651273
30
0
70
32
0
VERTEX
8
0
62
5
10
0.14142133
20
1.651273
30
0
70
32
0
SEQEND
8
0
0
POLYLINE
8
0
62
5
66
1
10
0
20
0
30
0
70
8
0
VERTEX
8
0
62
5
10
0.21213201
20
1.651273
30
0
70
32
0
VERTEX
8
0
62
5
10
0.21213201
20
1.651273
30
0
70
32
0
SEQEND
8
0
0
POLYLINE
8
0
62
30
66
1
10
0
20
0
30
0
70
8
0
VERTEX
8
0
62
30
10
-2.4257639e-08
20
1.551273
30
0
70
32
0
VERTEX
8
0
62
30
10
0.035355315
20
1.601273
30
0
70
32
0
SEQEND
8
0
0
POLYLINE
8
0
62
30
66
1
10
0
20
0
30
0
70
8
0
VERTEX
8
0
62
30
10
0.035355315
20
1.601273
30
0
70
32
0
VERTEX
8
0
62
30
10
0.070710654
20
1.551273
30
0
70
32
0
SEQEND
8
0
0
POLYLINE
8
0
62
30
66
1
10
0
20
0
30
0
70
8
0
VERTEX
8
0
62
30
10
0.14142133
20
1.551273
30
0
70
32
0
VERTEX
8
0
62
30
10
0.17677667
20
1.601273
30
0
70
32
0
SEQEND
8
0
0
POLYLINE
8
0
62
30
66
1
10
0
20
0
30
0
70
8
0
VERTEX
8
0
62
30
10
0.17677667
20
1.601273
30
0
70
32
0
VERTEX
8
0
62
30
10
0.21213201
20
1.551273
30
0
70
32
0
SEQEND
8
0
0
POLYLINE
8
0
62
30
66
1
10
0
20
0
30
0
70
8
0
VERTEX
8
0
62
30
10
0.070710654
20
1.601273
30
0
70
32
0
VERTEX
8
0
62
30
10
0.14142133
20
1.601273
30
0
70
32
0
SEQEND
8
0
0
POLYLINE
8
0
62
30
66
1
10
0
20
0
30
0
70
8
0
VERTEX
8
0
62
30
10
0.21213201
20
1.601273
30
0
70
32
0
VERTEX
8
0
62
30
10
0.28284269
20
1.601273
30
0
70
32
0
SEQEND
8
0
0
POLYLINE
8
0
62
5
66
1
10
0
20
0
30
0
70
8
0
VERTEX
8
0
62
5
10
-2.4257639e-08
20
1.601273
30
0
70
32
0
VERTEX
8
0
62
5
10
0.035355315
20
1.601273
30
0
70
32
0
SEQEND
8
0
0
POLYLINE
8
0
62
5
66
1
10
0
20
0
30
0
70
8
0
VERTEX
8
0
62
5
10
0.14142133
20
1.601273
30
0
70
32
0
VERTEX
8
0
62
5
10
0.17677667
20
1.601273
30
0
70
32
0
SEQEND
8
0
0
POLYLINE
8
0
62
5
66
1
10
0
20
0
30
0
70
8
0
VERTEX
8
0
62
5
10
0.035355315
20
1.601273
30
0
70
32
0
VERTEX
8
0
62
5
10
0.070710654
20
1.601273
30
0
70
32
0
SEQEND
8
0
0
POLYLINE
8
0
62
5
66
1
10
0
20
0
30
0
70
8
0
VERTEX
8
0
62
5
10
0.17677667
20
1.601273
30
0
70
32
0
VERTEX
8
0
62
5
10
0.21213201
20
1.601273
30
0
70
32
0
SEQEND
8
0
0
POLYLINE
8
0
62
5
66
1
10
0
20
0
30
0
70
8
0
VERTEX
8
0
62
5
10
0.070710654
20
1.551273
30
0
70
32
0
VERTEX
8
0
62
5
10
0.070710654
20
1.651273
30
0
70
32
0
SEQEND
8
0
0
POLYLINE
8
0
62
5
66
1
10
0
20
0
30
0
70
8
0
VERTEX
8
0
62
5
10
0.14142133
20
1.551273
30
0
70
32
0
VERTEX
8
0
62
5
10
0.14142133
20
1.651273
30
0
70
32
0
SEQEND
8
0
0
POLYLINE
8
0
62
5
66
1
10
0
20
0
30
0
70
8
0
VERTEX
8
0
62
5
10
0.21213201
20
1.551273
30
0
70
32
0
VERTEX
8
0
62
5
10
0.21213201
20
1.651273
30
0
70
32
0
SEQEND
8
0
0
POLYLINE
8
0
62
5
66
1
10
0
20
0
30
0
70
8
0
VERTEX
8
0
62
5
10
-2.4257639e-08
20
1.551273
30
0
70
32
0
VERTEX
8
0
62
5
10
-2.4257639e-08
20
1.651273
30
0
70
32
0
SEQEND
8
0
0
POLYLINE
8
0
62
5
66
1
10
0
20
0
30
0
70
8
0
VERTEX
8
0
62
5
10
0.5656854
20
1.651273
30
0
70
32
0
VERTEX
8
0
62
5
10
0.5656854
20
1.551273
30
0
70
32
0
SEQEND
8
0
0
POLYLINE
8
0
62
5
66
1
10
0
20
0
30
0
70
8
0
VERTEX
8
0
62
5
10
0.28284269
20
1.551273
30
0
70
32
0
VERTEX
8
0
62
5
10
0.5656854
20
1.551273
30
0
70
32
0
SEQEND
8
0
0
POLYLINE
8
0
62
5
66
1
10
0
20
0
30
0
70
8
0
VERTEX
8
0
62
5
10
0.28284269
20
1.651273
30
0
70
32
0
VERTEX
8
0
62
5
10
0.5656854
20
1.651273
30
0
70
32
0
SEQEND
8
0
0
POLYLINE
8
0
62
5
66
1
10
0
20
0
30
0
70
8
0
VERTEX
8
0
62
5
10
0.35355337
20
1.551273
30
0
70
32
0
VERTEX
8
0
62
5
10
0.35355337
20
1.551273
30
0
70
32
0
SEQEND
8
0
0
POLYLINE
8
0
62
5
66
1
10
0
20
0
30
0
70
8
0
VERTEX
8
0
62
5
10
0.42426404
20
1.551273
30
0
70
32
0
VERTEX
8
0
62
5
10
0.42426404
20
1.551273
30
0
70
32
0
SEQEND
8
0
0
POLYLINE
8
0
62
5
66
1
10
0
20
0
30
0
70
8
0
VERTEX
8
0
62
5
10
0.49497472
20
1.551273
30
0
70
32
0
VERTEX
8
0
62
5
10
0.49497472
20
1.551273
30
0
70
32
0
SEQEND
8
0
0
POLYLINE
8
0
62
5
66
1
10
0
20
0
30
0
70
8
0
VERTEX
8
0
62
5
10
0.35355337
20
1.651273
30
0
70
32
0
VERTEX
8
0
62
5
10
0.35355337
20
1.651273
30
0
70
32
0
SEQEND
8
0
0
POLYLINE
8
0
62
5
66
1
10
0
20
0
30
0
70
8
0
VERTEX
8
0
62
5
10
0.42426404
20
1.651273
30
0
70
32
0
VERTEX
8
0
62
5
10
0.42426404
20
1.651273
30
0
70
32
0
SEQEND
8
0
0
POLYLINE
8
0
62
5
66
1
10
0
20
0
30
0
70
8
0
VERTEX
8
0
62
5
10
0.49497472
20
1.651273
30
0
70
32
0
VERTEX
8
0
62
5
10
0.49497472
20
1.651273
30
0
70
32
0
SEQEND
8
0
0
POLYLINE
8
0
62
30
66
1
10
0
20
0
30
0
70
8
0
VERTEX
8
0
62
30
10
0.28284269
20
1.551273
30
0
70
32
0
VERTEX
8
0
62
30
10
0.31819803
20
1.601273
30
0
70
32
0
SEQEND
8
0
0
POLYLINE
8
0
62
30
66
1
10
0
20
0
30
0
70
8
0
VERTEX
8
0
62
30
10
0.31819803
20
1.601273
30
0
70
32
0
VERTEX
8
0
62
30
10
0.35355337
20
1.551273
30
0
70
32
0
SEQEND
8
0
0
POLYLINE
8
0
62
30
66
1
10
0
20
0
30
0
70
8
0
VERTEX
8
0
62
30
10
0.42426404
20
1.551273
30
0
70
32
0
VERTEX
8
0
62
30
10
0.45961938
20
1.601273
30
0
70
32
0
SEQEND
8
0
0
POLYLINE
8
0
62
30
66
1
10
0
20
0
30
0
70
8
0
VERTEX
8
0
62
30
10
0.45961938
20
1.601273
30
0
70
32
0
VERTEX
8
0
62
30
10
0.49497472
20
1.551273
30
0
70
32
0
SEQEND
8
0
0
POLYLINE
8
0
62
30
66
1
10
0
20
0
30
0
70
8
0
VERTEX
8
0
62
30
10
0.35355337
20
1.601273
30
0
70
32
0
VERTEX
8
0
62
30
10
0.42426404
20
1.601273
30
0
70
32
0
SEQEND
8
0
0
POLYLINE
8
0
62
30
66
1
10
0
20
0
30
0
70
8
0
VERTEX
8
0
62
30
10
0.49497472
20
1.601273
30
0
70
32
0
VERTEX
8
0
62
30
10
0.5656854
20
1.601273
30
0
70
32
0
SEQEND
8
0
0
POLYLINE
8
0
62
5
66
1
10
0
20
0
30
0
70
8
0
VERTEX
8
0
62
5
10
0.28284269
20
1.601273
30
0
70
32
0
VERTEX
8
0
62
5
10
0.31819803
20
1.601273
30
0
70
32
0
SEQEND
8
0
0
POLYLINE
8
0
62
5
66
1
10
0
20
0
30
0
70
8
0
VERTEX
8
0
62
5
10
0.42426404
20
1.601273
30
0
70
32
0
VERTEX
8
0
62
5
10
0.45961938
20
1.601273
30
0
70
32
0
SEQEND
8
0
0
POLYLINE
8
0
62
5
66
1
10
0
20
0
30
0
70
8
0
VERTEX
8
0
62
5
10
0.31819803
20
1.601273
30
0
70
32
0
VERTEX
8
0
62
5
10
0.35355337
20
1.601273
30
0
70
32
0
SEQEND
8
0
0
POLYLINE
8
0
62
5
66
1
10
0
20
0
30
0
70
8
0
VERTEX
8
0
62
5
10
0.45961938
20
1.601273
30
0
70
32
0
VERTEX
8
0
62
5
10
0.49497472
20
1.601273
30
0
70
32
0
SEQEND
8
0
0
POLYLINE
8
0
62
5
66
1
10
0
20
0
30
0
70
8
0
VERTEX
8
0
62
5
10
0.35355337
20
1.551273
30
0
70
32
0
VERTEX
8
0
62
5
10
0.35355337
20
1.651273
30
0
70
32
0
SEQEND
8
0
0
POLYLINE
8
0
62
5
66
1
10
0
20
0
30
0
70
8
0
VERTEX
8
0
62
5
10
0.42426404
20
1.551273
30
0
70
32
0
VERTEX
8
0
62
5
10
0.42426404
20
1.651273
30
0
70
32
0
SEQEND
8
0
0
POLYLINE
8
0
62
5
66
1
10
0
20
0
30
0
70
8
0
VERTEX
8
0
62
5
10
0.49497472
20
1.551273
30
0
70
32
0
VERTEX
8
0
62
5
10
0.49497472
20
1.651273
30
0
70
32
0
SEQEND
8
0
0
POLYLINE
8
0
62
5
66
1
10
0
20
0
30
0
70
8
0
VERTEX
8
0
62
5
10
0.28284269
20
1.551273
30
0
70
32
0
VERTEX
8
0
62
5
10
0.28284269
20
1.651273
30
0
70
32
0
SEQEND
8
0
0
POLYLINE
8
0
62
5
66
1
10
0
20
0
30
0
70
8
0
VERTEX
8
0
62
5
10
-0.28284274
20
1.551273
30
0
70
32
0
VERTEX
8
0
62
5
10
-0.28284274
20
1.651273
30
0
70
32
0
SEQEND
8
0
0
POLYLINE
8
0
62
5
66
1
10
0
20
0
30
0
70
8
0
VERTEX
8
0
62
5
10
-0.28284274
20
1.551273
30
0
70
32
0
VERTEX
8
0
62
5
10
-2.4257639e-08
20
1.551273
30
0
70
32
0
SEQEND
8
0
0
POLYLINE
8
0
62
5
66
1
10
0
20
0
30
0
70
8
0
VERTEX
8
0
62
5
10
-0.28284274
20
1.651273
30
0
70
32
0
VERTEX
8
0
62
5
10
-2.4257639e-08
20
1.651273
30
0
70
32
0
SEQEND
8
0
0
POLYLINE
8
0
62
5
66
1
10
0
20
0
30
0
70
8
0
VERTEX
8
0
62
5
10
-0.21213206
20
1.551273
30
0
70
32
0
VERTEX
8
0
62
5
10
-0.21213206
20
1.551273
30
0
70
32
0
SEQEND
8
0
0
POLYLINE
8
0
62
5
66
1
10
0
20
0
30
0
70
8
0
VERTEX
8
0
62
5
10
-0.14142138
20
1.551273
30
0
70
32
0
VERTEX
8
0
62
5
10
-0.14142138
20
1.551273
30
0
70
32
0
SEQEND
8
0
0
POLYLINE
8
0
62
5
66
1
10
0
20
0
30
0
70
8
0
VERTEX
8
0
62
5
10
-0.070710702
20
1.551273
30
0
70
32
0
VERTEX
8
0
62
5
10
-0.070710702
20
1.551273
30
0
70
32
0
SEQEND
8
0
0
POLYLINE
8
0
62
5
66
1
10
0
20
0
30
0
70
8
0
VERTEX
8
0
62
5
10
-0.21213206
20
1.651273
30
0
70
32
0
VERTEX
8
0
62
5
10
-0.21213206
20
1.651273
30
0
70
32
0
SEQEND
8
0
0
POLYLINE
8
0
62
5
66
1
10
0
20
0
30
0
70
8
0
VERTEX
8
0
62
5
10
-0.14142138
20
1.651273
30
0
70
32
0
VERTEX
8
0
62
5
10
-0.14142138
20
1.651273
30
0
70
32
0
SEQEND
8
0
0
POLYLINE
8
0
62
5
66
1
10
0
20
0
30
0
70
8
0
VERTEX
8
0
62
5
10
-0.070710702
20
1.651273
30
0
70
32
0
VERTEX
8
0
62
5
10
-0.070710702
20
1.651273
30
0
70
32
0
SEQEND
8
0
0
POLYLINE
8
0
62
30
66
1
10
0
20
0
30
0
70
8
0
VERTEX
8
0
62
30
10
-0.28284274
20
1.551273
30
0
70
32
0
VERTEX
8
0
62
30
10
-0.2474874
20
1.601273
30
0
70
32
0
SEQEND
8
0
0
POLYLINE
8
0
62
30
66
1
10
0
20
0
30
0
70
8
0
VERTEX
8
0
62
30
10
-0.2474874
20
1.601273
30
0
70
32
0
VERTEX
8
0
62
30
10
-0.21213206
20
1.551273
30
0
70
32
0
SEQEND
8
0
0
POLYLINE
8
0
62
30
66
1
10
0
20
0
30
0
70
8
0
VERTEX
8
0
62
30
10
-0.14142138
20
1.551273
30
0
70
32
0
VERTEX
8
0
62
30
10
-0.10606604
20
1.601273
30
0
70
32
0
SEQEND
8
0
0
POLYLINE
8
0
62
30
66
1
10
0
20
0
30
0
70
8
0
VERTEX
8
0
62
30
10
-0.10606604
20
1.601273
30
0
70
32
0
VERTEX
8
0
62
30
10
-0.070710702
20
1.551273
30
0
70
32
0
SEQEND
8
0
0
POLYLINE
8
0
62
30
66
1
10
0
20
0
30
0
70
8
0
VERTEX
8
0
62
30
10
-0.21213206
20
1.601273
30
0
70
32
0
VERTEX
8
0
62
30
10
-0.14142138
20
1.601273
30
0
70
32
0
SEQEND
8
0
0
POLYLINE
8
0
62
30
66
1
10
0
20
0
30
0
70
8
0
VERTEX
8
0
62
30
10
-0.070710702
20
1.601273
30
0
70
32
0
VERTEX
8
0
62
30
10
-2.4257639e-08
20
1.601273
30
0
70
32
0
SEQEND
8
0
0
POLYLINE
8
0
62
5
66
1
10
0
20
0
30
0
70
8
0
VERTEX
8
0
62
5
10
-0.28284274
20
1.601273
30
0
70
32
0
VERTEX
8
0
62
5
10
-0.2474874
20
1.601273
30
0
70
32
0
SEQEND
8
0
0
POLYLINE
8
0
62
5
66
1
10
0
20
0
30
0
70
8
0
VERTEX
8
0
62
5
10
-0.14142138
20
1.601273
30
0
70
32
0
VERTEX
8
0
62
5
10
-0.10606604
20
1.601273
30
0
70
32
0
SEQEND
8
0
0
POLYLINE
8
0
62
5
66
1
10
0
20
0
30
0
70
8
0
VERTEX
8
0
62
5
10
-0.2474874
20
1.601273
30
0
70
32
0
VERTEX
8
0
62
5
10
-0.21213206
20
1.601273
30
0
70
32
0
SEQEND
8
0
0
POLYLINE
8
0
62
5
66
1
10
0
20
0
30
0
70
8
0
VERTEX
8
0
62
5
10
-0.10606604
20
1.601273
30
0
70
32
0
VERTEX
8
0
62
5
10
-0.070710702
20
1.601273
30
0
70
32
0
SEQEND
8
0
0
POLYLINE
8
0
62
5
66
1
10
0
20
0
30
0
70
8
0
VERTEX
8
0
62
5
10
-0.21213206
20
1.551273
30
0
70
32
0
VERTEX
8
0
62
5
10
-0.21213206
20
1.651273
30
0
70
32
0
SEQEND
8
0
0
POLYLINE
8
0
62
5
66
1
10
0
20
0
30
0
70
8
0
VERTEX
8
0
62
5
10
-0.14142138
20
1.551273
30
0
70
32
0
VERTEX
8
0
62
5
10
-0.14142138
20
1.651273
30
0
70
32
0
SEQEND
8
0
0
POLYLINE
8
0
62
5
66
1
10
0
20
0
30
0
70
8
0
VERTEX
8
0
62
5
10
-0.070710702
20
1.551273
30
0
70
32
0
VERTEX
8
0
62
5
10
-0.070710702
20
1.651273
30
0
70
32
0
SEQEND
8
0
0
POLYLINE
8
0
62
5
66
1
10
0
20
0
30
0
70
8
0
VERTEX
8
0
62
5
10
-0.28284274
20
1.551273
30
0
70
32
0
VERTEX
8
0
62
5
10
-0.28284274
20
1.651273
30
0
70
32
0
SEQEND
8
0
0
POLYLINE
8
0
62
18
66
1
10
0
20
0
30
0
70
8
0
VERTEX
8
0
62
18
10
0
20
0
30
0
70
32
0
VERTEX
8
0
62
18
10
0.35355339
20
0
30
0
70
32
0
VERTEX
8
0
62
18
10
0.35355339
20
0.22357086
30
0
70
32
0
VERTEX
8
0
62
18
10
0
20
0.22357086
30
0
70
32
0
VERTEX
8
0
62
18
10
0
20
0
30
0
70
32
0
SEQEND
8
0
0
POLYLINE
8
0
62
5
66
1
10
0
20
0
30
0
70
8
0
VERTEX
8
0
62
5
10
0
20
0.22357086
30
0
70
32
0
VERTEX
8
0
62
5
10
0.35355339
20
0.22357086
30
0
70
32
0
SEQEND
8
0
0
POLYLINE
8
0
62
18
66
1
10
0
20
0
30
0
70
8
0
VERTEX
8
0
62
18
10
0
20
0.20357086
30
0
70
32
0
VERTEX
8
0
62
18
10
0.35355339
20
0.20357086
30
0
70
32
0
VERTEX
8
0
62
18
10
0.35355339
20
0.62876733
30
0
70
32
0
VERTEX
8
0
62
18
10
0
20
0.62876733
30
0
70
32
0
VERTEX
8
0
62
18
10
0
20
0.20357086
30
0
70
32
0
SEQEND
8
0
0
POLYLINE
8
0
62
5
66
1
10
0
20
0
30
0
70
8
0
VERTEX
8
0
62
5
10
0
20
0.62876733
30
0
70
32
0
VERTEX
8
0
62
5
10
0.35355339
20
0.62876733
30
0
70
32
0
SEQEND
8
0
0
POLYLINE
8
0
62
18
66
1
10
0
20
0
30
0
70
8
0
VERTEX
8
0
62
18
10
0
20
0.60876733
30
0
70
32
0
VERTEX
8
0
62
18
10
0.35355339
20
0.60876733
30
0
70
32
0
VERTEX
8
0
62
18
10
0.35355339
20
0.86213723
30
0
70
32
0
VERTEX
8
0
62
18
10
0
20
0.86213723
30
0
70
32
0
VERTEX
8
0
62
18
10
0
20
0.60876733
30
0
70
32
0
SEQEND
8
0
0
POLYLINE
8
0
62
5
66
1
10
0
20
0
30
0
70
8
0
VERTEX
8
0
62
5
10
0
20
0.86213723
30
0
70
32
0
VERTEX
8
0
62
5
10
0.35355339
20
0.86213723
30
0
70
32
0
SEQEND
8
0
0
POLYLINE
8
0
62
18
66
1
10
0
20
0
30
0
70
8
0
VERTEX
8
0
62
18
10
0
20
0.84213723
30
0
70
32
0
VERTEX
8
0
62
18
10
0.35355339
20
0.84213723
30
0
70
32
0
VERTEX
8
0
62
18
10
0.35355339
20
1.2133457
30
0
70
32
0
VERTEX
8
0
62
18
10
0
20
1.2133457
30
0
70
32
0
VERTEX
8
0
62
18
10
0
20
0.84213723
30
0
70
32
0
SEQEND
8
0
0
POLYLINE
8
0
62
5
66
1
10
0
20
0
30
0
70
8
0
VERTEX
8
0
62
5
10
0
20
1.2133457
30
0
70
32
0
VERTEX
8
0
62
5
10
0.35355339
20
1.2133457
30
0
70
32
0
SEQEND
8
0
0
POLYLINE
8
0
62
18
66
1
10
0
20
0
30
0
70
8
0
VERTEX
8
0
62
18
10
0
20
1.1933457
30
0
70
32
0
VERTEX
8
0
62
18
10
0.35355339
20
1.1933457
30
0
70
32
0
VERTEX
8
0
62
18
10
0.35355339
20
1.4837118
30
0
70
32
0
VERTEX
8
0
62
18
10
0
20
1.4837118
30
0
70
32
0
VERTEX
8
0
62
18
10
0
20
1.1933457
30
0
70
32
0
SEQEND
8
0
0
POLYLINE
8
0
62
5
66
1
10
0
20
0
30
0
70
8
0
VERTEX
8
0
62
5
10
0
20
1.4837118
30
0
70
32
0
VERTEX
8
0
62
5
10
0.35355339
20
1.4837118
30
0
70
32
0
SEQEND
8
0
0
POLYLINE
8
0
62
18
66
1
10
0
20
0
30
0
70
8
0
VERTEX
8
0
62
18
10
0
20
1.4637118
30
0
70
32
0
VERTEX
8
0
62
18
10
0.35355339
20
1.4637118
30
0
70
32
0
VERTEX
8
0
62
18
10
0.35355339
20
1.651273
30
0
70
32
0
VERTEX
8
0
62
18
10
0
20
1.651273
30
0
70
32
0
VERTEX
8
0
62
18
10
0
20
1.4637118
30
0
70
32
0
SEQEND
8
0
0
POLYLINE
8
0
62
18
66
1
10
0
20
0
30
0
70
8
0
VERTEX
8
0
62
18
10
0.35355339
20
0
30
0
70
32
0
VERTEX
8
0
62
18
10
0
20
0
30
0
70
32
0
VERTEX
8
0
62
18
10
0
20
1.651273
30
0
70
32
0
VERTEX
8
0
62
18
10
0.35355339
20
1.651273
30
0
70
32
0
VERTEX
8
0
62
18
10
0.35355339
20
0
30
0
70
32
0
SEQEND
8
0
0
ENDSEC
0
EOF
