0
SECTION
2
HEADER
9
$ACADVER
1
AC1006
9
$INSUNITS
70
6
0
ENDSEC
0
SECTION
2
ENTITIES
0
POLYLINE
8
0
62
5
66
1
10
0
20
0
30
0
70
8
0
VERTEX
8
0
62
5
10
0
20
0
30
0
70
32
0
VERTEX
8
0
62
5
10
0
20
0.1
30
0
70
32
0
SEQEND
8
0
0
POLYLINE
8
0
62
5
66
1
10
0
20
0
30
0
70
8
0
VERTEX
8
0
62
5
10
0.28284271
20
0
30
0
70
32
0
VERTEX
8
0
62
5
10
0.28284271
20
0.1
30
0
70
32
0
SEQEND
8
0
0
POLYLINE
8
0
62
5
66
1
10
0
20
0
30
0
70
8
0
VERTEX
8
0
62
5
10
0.070710678
20
0
30
0
70
32
0
VERTEX
8
0
62
5
10
0.070710678
20
0.1
30
0
70
32
0
SEQEND
8
0
0
POLYLINE
8
0
62
5
66
1
10
0
20
0
30
0
70
8
0
VERTEX
8
0
62
5
10
0.14142136
20
0
30
0
70
32
0
VERTEX
8
0
62
5
10
0.14142136
20
0.1
30
0
70
32
0
SEQEND
8
0
0
POLYLINE
8
0
62
5
66
1
10
0
20
0
30
0
70
8
0
VERTEX
8
0
62
5
10
0.21213203
20
0
30
0
70
32
0
VERTEX
8
0
62
5
10
0.21213203
20
0.1
30
0
70
32
0
SEQEND
8
0
0
POLYLINE
8
0
62
5
66
1
10
0
20
0
30
0
70
8
0
VERTEX
8
0
62
5
10
0.56568542
20
0
30
0
70
32
0
VERTEX
8
0
62
5
10
0.56568542
20
0.1
30
0
70
32
0
SEQEND
8
0
0
POLYLINE
8
0
62
5
66
1
10
0
20
0
30
0
70
8
0
VERTEX
8
0
62
5
10
0.35355339
20
0
30
0
70
32
0
VERTEX
8
0
62
5
10
0.35355339
20
0.1
30
0
70
32
0
SEQEND
8
0
0
POLYLINE
8
0
62
5
66
1
10
0
20
0
30
0
70
8
0
VERTEX
8
0
62
5
10
0.42426407
20
0
30
0
70
32
0
VERTEX
8
0
62
5
10
0.42426407
20
0.1
30
0
70
32
0
SEQEND
8
0
0
POLYLINE
8
0
62
5
66
1
10
0
20
0
30
0
70
8
0
VERTEX
8
0
62
5
10
0.49497475
20
0
30
0
70
32
0
VERTEX
8
0
62
5
10
0.49497475
20
0.1
30
0
70
32
0
SEQEND
8
0
0
POLYLINE
8
0
62
5
66
1
10
0
20
0
30
0
70
8
0
VERTEX
8
0
62
5
10
-0.28284271
20
0
30
0
70
32
0
VERTEX
8
0
62
5
10
-0.28284271
20
0.1
30
0
70
32
0
SEQEND
8
0
0
POLYLINE
8
0
62
5
66
1
10
0
20
0
30
0
70
8
0
VERTEX
8
0
62
5
10
-0.21213203
20
0
30
0
70
32
0
VERTEX
8
0
62
5
10
-0.21213203
20
0.1
30
0
70
32
0
SEQEND
8
0
0
POLYLINE
8
0
62
5
66
1
10
0
20
0
30
0
70
8
0
VERTEX
8
0
62
5
10
-0.14142136
20
0
30
0
70
32
0
VERTEX
8
0
62
5
10
-0.14142136
20
0.1
30
0
70
32
0
SEQEND
8
0
0
POLYLINE
8
0
62
5
66
1
10
0
20
0
30
0
70
8
0
VERTEX
8
0
62
5
10
-0.070710678
20
0
30
0
70
32
0
VERTEX
8
0
62
5
10
-0.070710678
20
0.1
30
0
70
32
0
SEQEND
8
0
0
POLYLINE
8
0
62
5
66
1
10
0
20
0
30
0
70
8
0
VERTEX
8
0
62
5
10
0
20
0.1
30
0
70
32
0
VERTEX
8
0
62
5
10
0
20
0.101
30
0
70
32
0
SEQEND
8
0
0
POLYLINE
8
0
62
5
66
1
10
0
20
0
30
0
70
8
0
VERTEX
8
0
62
5
10
0.28284271
20
0.1
30
0
70
32
0
VERTEX
8
0
62
5
10
0.28284271
20
0.101
30
0
70
32
0
SEQEND
8
0
0
POLYLINE
8
0
62
5
66
1
10
0
20
0
30
0
70
8
0
VERTEX
8
0
62
5
10
0.070710678
20
0.1
30
0
70
32
0
VERTEX
8
0
62
5
10
0.070710678
20
0.101
30
0
70
32
0
SEQEND
8
0
0
POLYLINE
8
0
62
5
66
1
10
0
20
0
30
0
70
8
0
VERTEX
8
0
62
5
10
0.14142136
20
0.1
30
0
70
32
0
VERTEX
8
0
62
5
10
0.14142136
20
0.101
30
0
70
32
0
SEQEND
8
0
0
POLYLINE
8
0
62
5
66
1
10
0
20
0
30
0
70
8
0
VERTEX
8
0
62
5
10
0.21213203
20
0.1
30
0
70
32
0
VERTEX
8
0
62
5
10
0.21213203
20
0.101
30
0
70
32
0
SEQEND
8
0
0
POLYLINE
8
0
62
5
66
1
10
0
20
0
30
0
70
8
0
VERTEX
8
0
62
5
10
0.56568542
20
0.1
30
0
70
32
0
VERTEX
8
0
62
5
10
0.56568542
20
0.101
30
0
70
32
0
SEQEND
8
0
0
POLYLINE
8
0
62
5
66
1
10
0
20
0
30
0
70
8
0
VERTEX
8
0
62
5
10
0.35355339
20
0.1
30
0
70
32
0
VERTEX
8
0
62
5
10
0.35355339
20
0.101
30
0
70
32
0
SEQEND
8
0
0
POLYLINE
8
0
62
5
66
1
10
0
20
0
30
0
70
8
0
VERTEX
8
0
62
5
10
0.42426407
20
0.1
30
0
70
32
0
VERTEX
8
0
62
5
10
0.42426407
20
0.101
30
0
70
32
0
SEQEND
8
0
0
POLYLINE
8
0
62
5
66
1
10
0
20
0
30
0
70
8
0
VERTEX
8
0
62
5
10
0.49497475
20
0.1
30
0
70
32
0
VERTEX
8
0
62
5
10
0.49497475
20
0.101
30
0
70
32
0
SEQEND
8
0
0
POLYLINE
8
0
62
5
66
1
10
0
20
0
30
0
70
8
0
VERTEX
8
0
62
5
10
-0.28284271
20
0.1
30
0
70
32
0
VERTEX
8
0
62
5
10
-0.28284271
20
0.101
30
0
70
32
0
SEQEND
8
0
0
POLYLINE
8
0
62
5
66
1
10
0
20
0
30
0
70
8
0
VERTEX
8
0
62
5
10
-0.21213203
20
0.1
30
0
70
32
0
VERTEX
8
0
62
5
10
-0.21213203
20
0.101
30
0
70
32
0
SEQEND
8
0
0
POLYLINE
8
0
62
5
66
1
10
0
20
0
30
0
70
8
0
VERTEX
8
0
62
5
10
-0.14142136
20
0.1
30
0
70
32
0
VERTEX
8
0
62
5
10
-0.14142136
20
0.101
30
0
70
32
0
SEQEND
8
0
0
POLYLINE
8
0
62
5
66
1
10
0
20
0
30
0
70
8
0
VERTEX
8
0
62
5
10
-0.070710678
20
0.1
30
0
70
32
0
VERTEX
8
0
62
5
10
-0.070710678
20
0.101
30
0
70
32
0
SEQEND
8
0
0
POLYLINE
8
0
62
5
66
1
10
0
20
0
30
0
70
8
0
VERTEX
8
0
62
5
10
0
20
0.101
30
0
70
32
0
VERTEX
8
0
62
5
10
0
20
0.12870253
30
0
70
32
0
SEQEND
8
0
0
POLYLINE
8
0
62
5
66
1
10
0
20
0
30
0
70
8
0
VERTEX
8
0
62
5
10
0.28284271
20
0.12870253
30
0
70
32
0
VERTEX
8
0
62
5
10
0.28284271
20
0.101
30
0
70
32
0
SEQEND
8
0
0
POLYLINE
8
0
62
5
66
1
10
0
20
0
30
0
70
8
0
VERTEX
8
0
62
5
10
0
20
0.11485126
30
0
70
32
0
VERTEX
8
0
62
5
10
0.070710678
20
0.11485126
30
0
70
32
0
VERTEX
8
0
62
5
10
0.14142136
20
0.1033765
30
0
70
32
0
VERTEX
8
0
62
5
10
0.21213203
20
0.1033765
30
0
70
32
0
VERTEX
8
0
62
5
10
0.28284271
20
0.11485126
30
0
70
32
0
SEQEND
8
0
0
POLYLINE
8
0
62
5
66
1
10
0
20
0
30
0
70
8
0
SEQEND
8
0
0
POLYLINE
8
0
62
5
66
1
10
0
20
0
30
0
70
8
0
VERTEX
8
0
62
5
10
0
20
0.11485126
30
0
70
32
0
VERTEX
8
0
62
5
10
0.070710678
20
0.11485126
30
0
70
32
0
VERTEX
8
0
62
5
10
0.14142136
20
0.12632603
30
0
70
32
0
VERTEX
8
0
62
5
10
0.21213203
20
0.12632603
30
0
70
32
0
VERTEX
8
0
62
5
10
0.28284271
20
0.11485126
30
0
70
32
0
SEQEND
8
0
0
POLYLINE
8
0
62
30
66
1
10
0
20
0
30
0
70
8
0
VERTEX
8
0
62
30
10
0
20
0.11485126
30
0
70
32
0
VERTEX
8
0
62
30
10
0.28284271
20
0.11485126
30
0
70
32
0
SEQEND
8
0
0
POLYLINE
8
0
62
30
66
1
10
0
20
0
30
0
70
8
0
VERTEX
8
0
62
30
10
0.070710678
20
0.11485126
30
0
70
32
0
VERTEX
8
0
62
30
10
0.070710678
20
0.11485126
30
0
70
32
0
SEQEND
8
0
0
POLYLINE
8
0
62
30
66
1
10
0
20
0
30
0
70
8
0
VERTEX
8
0
62
30
10
0.14142136
20
0.1033765
30
0
70
32
0
VERTEX
8
0
62
30
10
0.14142136
20
0.11485126
30
0
70
32
0
SEQEND
8
0
0
POLYLINE
8
0
62
30
66
1
10
0
20
0
30
0
70
8
0
VERTEX
8
0
62
30
10
0.21213203
20
0.1033765
30
0
70
32
0
VERTEX
8
0
62
30
10
0.21213203
20
0.11485126
30
0
70
32
0
SEQEND
8
0
0
POLYLINE
8
0
62
5
66
1
10
0
20
0
30
0
70
8
0
VERTEX
8
0
62
5
10
0.070710678
20
0.101
30
0
70
32
0
VERTEX
8
0
62
5
10
0.070710678
20
0.11485126
30
0
70
32
0
SEQEND
8
0
0
POLYLINE
8
0
62
5
66
1
10
0
20
0
30
0
70
8
0
VERTEX
8
0
62
5
10
0.14142136
20
0.101
30
0
70
32
0
VERTEX
8
0
62
5
10
0.14142136
20
0.1033765
30
0
70
32
0
SEQEND
8
0
0
POLYLINE
8
0
62
5
66
1
10
0
20
0
30
0
70
8
0
VERTEX
8
0
62
5
10
0.21213203
20
0.101
30
0
70
32
0
VERTEX
8
0
62
5
10
0.21213203
20
0.1033765
30
0
70
32
0
SEQEND
8
0
0
POLYLINE
8
0
62
5
66
1
10
0
20
0
30
0
70
8
0
VERTEX
8
0
62
5
10
0.070710678
20
0.11485126
30
0
70
32
0
VERTEX
8
0
62
5
10
0.070710678
20
0.12870253
30
0
70
32
0
SEQEND
8
0
0
POLYLINE
8
0
62
5
66
1
10
0
20
0
30
0
70
8
0
VERTEX
8
0
62
5
10
0.14142136
20
0.11485126
30
0
70
32
0
VERTEX
8
0
62
5
10
0.14142136
20
0.12870253
30
0
70
32
0
SEQEND
8
0
0
POLYLINE
8
0
62
5
66
1
10
0
20
0
30
0
70
8
0
VERTEX
8
0
62
5
10
0.21213203
20
0.11485126
30
0
70
32
0
VERTEX
8
0
62
5
10
0.21213203
20
0.12870253
30
0
70
32
0
SEQEND
8
0
0
POLYLINE
8
0
62
30
66
1
10
0
20
0
30
0
70
8
0
VERTEX
8
0
62
30
10
0
20
0.11485126
30
0
70
32
0
VERTEX
8
0
62
30
10
0
20
0.11485126
30
0
70
32
0
VERTEX
8
0
62
30
10
0
20
0.11485126
30
0
70
32
0
SEQEND
8
0
0
POLYLINE
8
0
62
30
66
1
10
0
20
0
30
0
70
8
0
VERTEX
8
0
62
30
10
0.070710678
20
0.11485126
30
0
70
32
0
VERTEX
8
0
62
30
10
0.070710678
20
0.11485126
30
0
70
32
0
VERTEX
8
0
62
30
10
0.070710678
20
0.11485126
30
0
70
32
0
SEQEND
8
0
0
POLYLINE
8
0
62
30
66
1
10
0
20
0
30
0
70
8
0
VERTEX
8
0
62
30
10
0.14142136
20
0.1033765
30
0
70
32
0
VERTEX
8
0
62
30
10
0.15118413
20
0.11485126
30
0
70
32
0
VERTEX
8
0
62
30
10
0.14142136
20
0.12632603
30
0
70
32
0
SEQEND
8
0
0
POLYLINE
8
0
62
30
66
1
10
0
20
0
30
0
70
8
0
VERTEX
8
0
62
30
10
0.21213203
20
0.1033765
30
0
70
32
0
VERTEX
8
0
62
30
10
0.22189481
20
0.11485126
30
0
70
32
0
VERTEX
8
0
62
30
10
0.21213203
20
0.12632603
30
0
70
32
0
SEQEND
8
0
0
POLYLINE
8
0
62
5
66
1
10
0
20
0
30
0
70
8
0
VERTEX
8
0
62
5
10
0.56568542
20
0.12870253
30
0
70
32
0
VERTEX
8
0
62
5
10
0.56568542
20
0.101
30
0
70
32
0
SEQEND
8
0
0
POLYLINE
8
0
62
5
66
1
10
0
20
0
30
0
70
8
0
VERTEX
8
0
62
5
10
0.28284271
20
0.11485126
30
0
70
32
0
VERTEX
8
0
62
5
10
0.35355339
20
0.11485126
30
0
70
32
0
VERTEX
8
0
62
5
10
0.42426407
20
0.1033765
30
0
70
32
0
VERTEX
8
0
62
5
10
0.49497475
20
0.1033765
30
0
70
32
0
VERTEX
8
0
62
5
10
0.56568542
20
0.11485126
30
0
70
32
0
SEQEND
8
0
0
POLYLINE
8
0
62
5
66
1
10
0
20
0
30
0
70
8
0
SEQEND
8
0
0
POLYLINE
8
0
62
5
66
1
10
0
20
0
30
0
70
8
0
VERTEX
8
0
62
5
10
0.28284271
20
0.11485126
30
0
70
32
0
VERTEX
8
0
62
5
10
0.35355339
20
0.11485126
30
0
70
32
0
VERTEX
8
0
62
5
10
0.42426407
20
0.12632603
30
0
70
32
0
VERTEX
8
0
62
5
10
0.49497475
20
0.12632603
30
0
70
32
0
VERTEX
8
0
62
5
10
0.56568542
20
0.11485126
30
0
70
32
0
SEQEND
8
0
0
POLYLINE
8
0
62
30
66
1
10
0
20
0
30
0
70
8
0
VERTEX
8
0
62
30
10
0.28284271
20
0.11485126
30
0
70
32
0
VERTEX
8
0
62
30
10
0.56568542
20
0.11485126
30
0
70
32
0
SEQEND
8
0
0
POLYLINE
8
0
62
30
66
1
10
0
20
0
30
0
70
8
0
VERTEX
8
0
62
30
10
0.35355339
20
0.11485126
30
0
70
32
0
VERTEX
8
0
62
30
10
0.35355339
20
0.11485126
30
0
70
32
0
SEQEND
8
0
0
POLYLINE
8
0
62
30
66
1
10
0
20
0
30
0
70
8
0
VERTEX
8
0
62
30
10
0.42426407
20
0.1033765
30
0
70
32
0
VERTEX
8
0
62
30
10
0.42426407
20
0.11485126
30
0
70
32
0
SEQEND
8
0
0
POLYLINE
8
0
62
30
66
1
10
0
20
0
30
0
70
8
0
VERTEX
8
0
62
30
10
0.49497475
20
0.1033765
30
0
70
32
0
VERTEX
8
0
62
30
10
0.49497475
20
0.11485126
30
0
70
32
0
SEQEND
8
0
0
POLYLINE
8
0
62
5
66
1
10
0
20
0
30
0
70
8
0
VERTEX
8
0
62
5
10
0.35355339
20
0.101
30
0
70
32
0
VERTEX
8
0
62
5
10
0.35355339
20
0.11485126
30
0
70
32
0
SEQEND
8
0
0
POLYLINE
8
0
62
5
66
1
10
0
20
0
30
0
70
8
0
VERTEX
8
0
62
5
10
0.42426407
20
0.101
30
0
70
32
0
VERTEX
8
0
62
5
10
0.42426407
20
0.1033765
30
0
70
32
0
SEQEND
8
0
0
POLYLINE
8
0
62
5
66
1
10
0
20
0
30
0
70
8
0
VERTEX
8
0
62
5
10
0.49497475
20
0.101
30
0
70
32
0
VERTEX
8
0
62
5
10
0.49497475
20
0.1033765
30
0
70
32
0
SEQEND
8
0
0
POLYLINE
8
0
62
5
66
1
10
0
20
0
30
0
70
8
0
VERTEX
8
0
62
5
10
0.35355339
20
0.11485126
30
0
70
32
0
VERTEX
8
0
62
5
10
0.35355339
20
0.12870253
30
0
70
32
0
SEQEND
8
0
0
POLYLINE
8
0
62
5
66
1
10
0
20
0
30
0
70
8
0
VERTEX
8
0
62
5
10
0.42426407
20
0.11485126
30
0
70
32
0
VERTEX
8
0
62
5
10
0.42426407
20
0.12870253
30
0
70
32
0
SEQEND
8
0
0
POLYLINE
8
0
62
5
66
1
10
0
20
0
30
0
70
8
0
VERTEX
8
0
62
5
10
0.49497475
20
0.11485126
30
0
70
32
0
VERTEX
8
0
62
5
10
0.49497475
20
0.12870253
30
0
70
32
0
SEQEND
8
0
0
POLYLINE
8
0
62
30
66
1
10
0
20
0
30
0
70
8
0
VERTEX
8
0
62
30
10
0.28284271
20
0.11485126
30
0
70
32
0
VERTEX
8
0
62
30
10
0.28284271
20
0.11485126
30
0
70
32
0
VERTEX
8
0
62
30
10
0.28284271
20
0.11485126
30
0
70
32
0
SEQEND
8
0
0
POLYLINE
8
0
62
30
66
1
10
0
20
0
30
0
70
8
0
VERTEX
8
0
62
30
10
0.35355339
20
0.11485126
30
0
70
32
0
VERTEX
8
0
62
30
10
0.35355339
20
0.11485126
30
0
70
32
0
VERTEX
8
0
62
30
10
0.35355339
20
0.11485126
30
0
70
32
0
SEQEND
8
0
0
POLYLINE
8
0
62
30
66
1
10
0
20
0
30
0
70
8
0
VERTEX
8
0
62
30
10
0.42426407
20
0.1033765
30
0
70
32
0
VERTEX
8
0
62
30
10
0.43402684
20
0.11485126
30
0
70
32
0
VERTEX
8
0
62
30
10
0.42426407
20
0.12632603
30
0
70
32
0
SEQEND
8
0
0
POLYLINE
8
0
62
30
66
1
10
0
20
0
30
0
70
8
0
VERTEX
8
0
62
30
10
0.49497475
20
0.1033765
30
0
70
32
0
VERTEX
8
0
62
30
10
0.50473752
20
0.11485126
30
0
70
32
0
VERTEX
8
0
62
30
10
0.49497475
20
0.12632603
30
0
70
32
0
SEQEND
8
0
0
POLYLINE
8
0
62
5
66
1
10
0
20
0
30
0
70
8
0
VERTEX
8
0
62
5
10
-0.28284271
20
0.101
30
0
70
32
0
VERTEX
8
0
62
5
10
-0.28284271
20
0.12870253
30
0
70
32
0
SEQEND
8
0
0
POLYLINE
8
0
62
5
66
1
10
0
20
0
30
0
70
8
0
VERTEX
8
0
62
5
10
-0.28284271
20
0.11485126
30
0
70
32
0
VERTEX
8
0
62
5
10
-0.21213203
20
0.11485126
30
0
70
32
0
VERTEX
8
0
62
5
10
-0.14142136
20
0.1033765
30
0
70
32
0
VERTEX
8
0
62
5
10
-0.070710678
20
0.1033765
30
0
70
32
0
VERTEX
8
0
62
5
10
0
20
0.11485126
30
0
70
32
0
SEQEND
8
0
0
POLYLINE
8
0
62
5
66
1
10
0
20
0
30
0
70
8
0
SEQEND
8
0
0
POLYLINE
8
0
62
5
66
1
10
0
20
0
30
0
70
8
0
VERTEX
8
0
62
5
10
-0.28284271
20
0.11485126
30
0
70
32
0
VERTEX
8
0
62
5
10
-0.21213203
20
0.11485126
30
0
70
32
0
VERTEX
8
0
62
5
10
-0.14142136
20
0.12632603
30
0
70
32
0
VERTEX
8
0
62
5
10
-0.070710678
20
0.12632603
30
0
70
32
0
VERTEX
8
0
62
5
10
0
20
0.11485126
30
0
70
32
0
SEQEND
8
0
0
POLYLINE
8
0
62
30
66
1
10
0
20
0
30
0
70
8
0
VERTEX
8
0
62
30
10
-0.28284271
20
0.11485126
30
0
70
32
0
VERTEX
8
0
62
30
10
0
20
0.11485126
30
0
70
32
0
SEQEND
8
0
0
POLYLINE
8
0
62
30
66
1
10
0
20
0
30
0
70
8
0
VERTEX
8
0
62
30
10
-0.21213203
20
0.11485126
30
0
70
32
0
VERTEX
8
0
62
30
10
-0.21213203
20
0.11485126
30
0
70
32
0
SEQEND
8
0
0
POLYLINE
8
0
62
30
66
1
10
0
20
0
30
0
70
8
0
VERTEX
8
0
62
30
10
-0.14142136
20
0.1033765
30
0
70
32
0
VERTEX
8
0
62
30
10
-0.14142136
20
0.11485126
30
0
70
32
0
SEQEND
8
0
0
POLYLINE
8
0
62
30
66
1
10
0
20
0
30
0
70
8
0
VERTEX
8
0
62
30
10
-0.070710678
20
0.1033765
30
0
70
32
0
VERTEX
8
0
62
30
10
-0.070710678
20
0.11485126
30
0
70
32
0
SEQEND
8
0
0
POLYLINE
8
0
62
5
66
1
10
0
20
0
30
0
70
8
0
VERTEX
8
0
62
5
10
-0.21213203
20
0.101
30
0
70
32
0
VERTEX
8
0
62
5
10
-0.21213203
20
0.11485126
30
0
70
32
0
SEQEND
8
0
0
POLYLINE
8
0
62
5
66
1
10
0
20
0
30
0
70
8
0
VERTEX
8
0
62
5
10
-0.14142136
20
0.101
30
0
70
32
0
VERTEX
8
0
62
5
10
-0.14142136
20
0.1033765
30
0
70
32
0
SEQEND
8
0
0
POLYLINE
8
0
62
5
66
1
10
0
20
0
30
0
70
8
0
VERTEX
8
0
62
5
10
-0.070710678
20
0.101
30
0
70
32
0
VERTEX
8
0
62
5
10
-0.070710678
20
0.1033765
30
0
70
32
0
SEQEND
8
0
0
POLYLINE
8
0
62
5
66
1
10
0
20
0
30
0
70
8
0
VERTEX
8
0
62
5
10
-0.21213203
20
0.11485126
30
0
70
32
0
VERTEX
8
0
62
5
10
-0.21213203
20
0.12870253
30
0
70
32
0
SEQEND
8
0
0
POLYLINE
8
0
62
5
66
1
10
0
20
0
30
0
70
8
0
VERTEX
8
0
62
5
10
-0.14142136
20
0.11485126
30
0
70
32
0
VERTEX
8
0
62
5
10
-0.14142136
20
0.12870253
30
0
70
32
0
SEQEND
8
0
0
POLYLINE
8
0
62
5
66
1
10
0
20
0
30
0
70
8
0
VERTEX
8
0
62
5
10
-0.070710678
20
0.11485126
30
0
70
32
0
VERTEX
8
0
62
5
10
-0.070710678
20
0.12870253
30
0
70
32
0
SEQEND
8
0
0
POLYLINE
8
0
62
30
66
1
10
0
20
0
30
0
70
8
0
VERTEX
8
0
62
30
10
-0.28284271
20
0.11485126
30
0
70
32
0
VERTEX
8
0
62
30
10
-0.28284271
20
0.11485126
30
0
70
32
0
VERTEX
8
0
62
30
10
-0.28284271
20
0.11485126
30
0
70
32
0
SEQEND
8
0
0
POLYLINE
8
0
62
30
66
1
10
0
20
0
30
0
70
8
0
VERTEX
8
0
62
30
10
-0.21213203
20
0.11485126
30
0
70
32
0
VERTEX
8
0
62
30
10
-0.21213203
20
0.11485126
30
0
70
32
0
VERTEX
8
0
62
30
10
-0.21213203
20
0.11485126
30
0
70
32
0
SEQEND
8
0
0
POLYLINE
8
0
62
30
66
1
10
0
20
0
30
0
70
8
0
VERTEX
8
0
62
30
10
-0.14142136
20
0.1033765
30
0
70
32
0
VERTEX
8
0
62
30
10
-0.13165858
20
0.11485126
30
0
70
32
0
VERTEX
8
0
62
30
10
-0.14142136
20
0.12632603
30
0
70
32
0
SEQEND
8
0
0
POLYLINE
8
0
62
30
66
1
10
0
20
0
30
0
70
8
0
VERTEX
8
0
62
30
10
-0.070710678
20
0.1033765
30
0
70
32
0
VERTEX
8
0
62
30
10
-0.060947906
20
0.11485126
30
0
70
32
0
VERTEX
8
0
62
30
10
-0.070710678
20
0.12632603
30
0
70
32
0
SEQEND
8
0
0
POLYLINE
8
0
62
5
66
1
10
0
20
0
30
0
70
8
0
VERTEX
8
0
62
5
10
0
20
0.12870253
30
0
70
32
0
VERTEX
8
0
62
5
10
0
20
0.16032531
30
0
70
32
0
SEQEND
8
0
0
POLYLINE
8
0
62
5
66
1
10
0
20
0
30
0
70
8
0
VERTEX
8
0
62
5
10
0.070710678
20
0.12870253
30
0
70
32
0
VERTEX
8
0
62
5
10
0.070710678
20
0.16032531
30
0
70
32
0
SEQEND
8
0
0
POLYLINE
8
0
62
5
66
1
10
0
20
0
30
0
70
8
0
VERTEX
8
0
62
5
10
0.14142136
20
0.12870253
30
0
70
32
0
VERTEX
8
0
62
5
10
0.14142136
20
0.16032531
30
0
70
32
0
SEQEND
8
0
0
POLYLINE
8
0
62
5
66
1
10
0
20
0
30
0
70
8
0
VERTEX
8
0
62
5
10
0.21213203
20
0.12870253
30
0
70
32
0
VERTEX
8
0
62
5
10
0.21213203
20
0.16032531
30
0
70
32
0
SEQEND
8
0
0
POLYLINE
8
0
62
5
66
1
10
0
20
0
30
0
70
8
0
VERTEX
8
0
62
5
10
0.28284271
20
0.12870253
30
0
70
32
0
VERTEX
8
0
62
5
10
0.28284271
20
0.16032531
30
0
70
32
0
SEQEND
8
0
0
POLYLINE
8
0
62
5
66
1
10
0
20
0
30
0
70
8
0
VERTEX
8
0
62
5
10
0.070710678
20
0.12870253
30
0
70
32
0
VERTEX
8
0
62
5
10
0.070710678
20
0.12870253
30
0
70
32
0
SEQEND
8
0
0
POLYLINE
8
0
62
5
66
1
10
0
20
0
30
0
70
8
0
VERTEX
8
0
62
5
10
0.14142136
20
0.12870253
30
0
70
32
0
VERTEX
8
0
62
5
10
0.14142136
20
0.12870253
30
0
70
32
0
SEQEND
8
0
0
POLYLINE
8
0
62
5
66
1
10
0
20
0
30
0
70
8
0
VERTEX
8
0
62
5
10
0.21213203
20
0.12870253
30
0
70
32
0
VERTEX
8
0
62
5
10
0.21213203
20
0.12870253
30
0
70
32
0
SEQEND
8
0
0
POLYLINE
8
0
62
5
66
1
10
0
20
0
30
0
70
8
0
VERTEX
8
0
62
5
10
0.070710678
20
0.16032531
30
0
70
32
0
VERTEX
8
0
62
5
10
0.070710678
20
0.16032531
30
0
70
32
0
SEQEND
8
0
0
POLYLINE
8
0
62
5
66
1
10
0
20
0
30
0
70
8
0
VERTEX
8
0
62
5
10
0.14142136
20
0.16032531
30
0
70
32
0
VERTEX
8
0
62
5
10
0.14142136
20
0.16032531
30
0
70
32
0
SEQEND
8
0
0
POLYLINE
8
0
62
5
66
1
10
0
20
0
30
0
70
8
0
VERTEX
8
0
62
5
10
0.21213203
20
0.16032531
30
0
70
32
0
VERTEX
8
0
62
5
10
0.21213203
20
0.16032531
30
0
70
32
0
SEQEND
8
0
0
POLYLINE
8
0
62
5
66
1
10
0
20
0
30
0
70
8
0
VERTEX
8
0
62
5
10
0.28284271
20
0.16032531
30
0
70
32
0
VERTEX
8
0
62
5
10
0.28284271
20
0.16032531
30
0
70
32
0
SEQEND
8
0
0
POLYLINE
8
0
62
5
66
1
10
0
20
0
30
0
70
8
0
VERTEX
8
0
62
5
10
0.35355339
20
0.12870253
30
0
70
32
0
VERTEX
8
0
62
5
10
0.35355339
20
0.16032531
30
0
70
32
0
SEQEND
8
0
0
POLYLINE
8
0
62
5
66
1
10
0
20
0
30
0
70
8
0
VERTEX
8
0
62
5
10
0.42426407
20
0.12870253
30
0
70
32
0
VERTEX
8
0
62
5
10
0.42426407
20
0.16032531
30
0
70
32
0
SEQEND
8
0
0
POLYLINE
8
0
62
5
66
1
10
0
20
0
30
0
70
8
0
VERTEX
8
0
62
5
10
0.49497475
20
0.12870253
30
0
70
32
0
VERTEX
8
0
62
5
10
0.49497475
20
0.16032531
30
0
70
32
0
SEQEND
8
0
0
POLYLINE
8
0
62
5
66
1
10
0
20
0
30
0
70
8
0
VERTEX
8
0
62
5
10
0.56568542
20
0.12870253
30
0
70
32
0
VERTEX
8
0
62
5
10
0.56568542
20
0.16032531
30
0
70
32
0
SEQEND
8
0
0
POLYLINE
8
0
62
5
66
1
10
0
20
0
30
0
70
8
0
VERTEX
8
0
62
5
10
0.35355339
20
0.12870253
30
0
70
32
0
VERTEX
8
0
62
5
10
0.35355339
20
0.12870253
30
0
70
32
0
SEQEND
8
0
0
POLYLINE
8
0
62
5
66
1
10
0
20
0
30
0
70
8
0
VERTEX
8
0
62
5
10
0.42426407
20
0.12870253
30
0
70
32
0
VERTEX
8
0
62
5
10
0.42426407
20
0.12870253
30
0
70
32
0
SEQEND
8
0
0
POLYLINE
8
0
62
5
66
1
10
0
20
0
30
0
70
8
0
VERTEX
8
0
62
5
10
0.49497475
20
0.12870253
30
0
70
32
0
VERTEX
8
0
62
5
10
0.49497475
20
0.12870253
30
0
70
32
0
SEQEND
8
0
0
POLYLINE
8
0
62
5
66
1
10
0
20
0
30
0
70
8
0
VERTEX
8
0
62
5
10
0.35355339
20
0.16032531
30
0
70
32
0
VERTEX
8
0
62
5
10
0.35355339
20
0.16032531
30
0
70
32
0
SEQEND
8
0
0
POLYLINE
8
0
62
5
66
1
10
0
20
0
30
0
70
8
0
VERTEX
8
0
62
5
10
0.42426407
20
0.16032531
30
0
70
32
0
VERTEX
8
0
62
5
10
0.42426407
20
0.16032531
30
0
70
32
0
SEQEND
8
0
0
POLYLINE
8
0
62
5
66
1
10
0
20
0
30
0
70
8
0
VERTEX
8
0
62
5
10
0.49497475
20
0.16032531
30
0
70
32
0
VERTEX
8
0
62
5
10
0.49497475
20
0.16032531
30
0
70
32
0
SEQEND
8
0
0
POLYLINE
8
0
62
5
66
1
10
0
20
0
30
0
70
8
0
VERTEX
8
0
62
5
10
0.56568542
20
0.16032531
30
0
70
32
0
VERTEX
8
0
62
5
10
0.56568542
20
0.16032531
30
0
70
32
0
SEQEND
8
0
0
POLYLINE
8
0
62
5
66
1
10
0
20
0
30
0
70
8
0
VERTEX
8
0
62
5
10
-0.21213203
20
0.12870253
30
0
70
32
0
VERTEX
8
0
62
5
10
-0.21213203
20
0.16032531
30
0
70
32
0
SEQEND
8
0
0
POLYLINE
8
0
62
5
66
1
10
0
20
0
30
0
70
8
0
VERTEX
8
0
62
5
10
-0.14142136
20
0.12870253
30
0
70
32
0
VERTEX
8
0
62
5
10
-0.14142136
20
0.16032531
30
0
70
32
0
SEQEND
8
0
0
POLYLINE
8
0
62
5
66
1
10
0
20
0
30
0
70
8
0
VERTEX
8
0
62
5
10
-0.070710678
20
0.12870253
30
0
70
32
0
VERTEX
8
0
62
5
10
-0.070710678
20
0.16032531
30
0
70
32
0
SEQEND
8
0
0
POLYLINE
8
0
62
5
66
1
10
0
20
0
30
0
70
8
0
VERTEX
8
0
62
5
10
0
20
0.12870253
30
0
70
32
0
VERTEX
8
0
62
5
10
0
20
0.16032531
30
0
70
32
0
SEQEND
8
0
0
POLYLINE
8
0
62
5
66
1
10
0
20
0
30
0
70
8
0
VERTEX
8
0
62
5
10
-0.21213203
20
0.12870253
30
0
70
32
0
VERTEX
8
0
62
5
10
-0.21213203
20
0.12870253
30
0
70
32
0
SEQEND
8
0
0
POLYLINE
8
0
62
5
66
1
10
0
20
0
30
0
70
8
0
VERTEX
8
0
62
5
10
-0.14142136
20
0.12870253
30
0
70
32
0
VERTEX
8
0
62
5
10
-0.14142136
20
0.12870253
30
0
70
32
0
SEQEND
8
0
0
POLYLINE
8
0
62
5
66
1
10
0
20
0
30
0
70
8
0
VERTEX
8
0
62
5
10
-0.070710678
20
0.12870253
30
0
70
32
0
VERTEX
8
0
62
5
10
-0.070710678
20
0.12870253
30
0
70
32
0
SEQEND
8
0
0
POLYLINE
8
0
62
5
66
1
10
0
20
0
30
0
70
8
0
VERTEX
8
0
62
5
10
-0.21213203
20
0.16032531
30
0
70
32
0
VERTEX
8
0
62
5
10
-0.21213203
20
0.16032531
30
0
70
32
0
SEQEND
8
0
0
POLYLINE
8
0
62
5
66
1
10
0
20
0
30
0
70
8
0
VERTEX
8
0
62
5
10
-0.14142136
20
0.16032531
30
0
70
32
0
VERTEX
8
0
62
5
10
-0.14142136
20
0.16032531
30
0
70
32
0
SEQEND
8
0
0
POLYLINE
8
0
62
5
66
1
10
0
20
0
30
0
70
8
0
VERTEX
8
0
62
5
10
-0.070710678
20
0.16032531
30
0
70
32
0
VERTEX
8
0
62
5
10
-0.070710678
20
0.16032531
30
0
70
32
0
SEQEND
8
0
0
POLYLINE
8
0
62
5
66
1
10
0
20
0
30
0
70
8
0
VERTEX
8
0
62
5
10
-1.9501067e-13
20
0.16032531
30
0
70
32
0
VERTEX
8
0
62
5
10
-1.9501067e-13
20
0.16032531
30
0
70
32
0
SEQEND
8
0
0
POLYLINE
8
0
62
5
66
1
10
0
20
0
30
0
70
8
0
VERTEX
8
0
62
5
10
-1.9498292e-13
20
0.16032531
30
0
70
32
0
VERTEX
8
0
62
5
10
-1.9498292e-13
20
0.28681641
30
0
70
32
0
SEQEND
8
0
0
POLYLINE
8
0
62
5
66
1
10
0
20
0
30
0
70
8
0
VERTEX
8
0
62
5
10
0.28284271
20
0.16032531
30
0
70
32
0
VERTEX
8
0
62
5
10
0.28284271
20
0.28681641
30
0
70
32
0
SEQEND
8
0
0
POLYLINE
8
0
62
5
66
1
10
0
20
0
30
0
70
8
0
VERTEX
8
0
62
5
10
0.070710678
20
0.16032531
30
0
70
32
0
VERTEX
8
0
62
5
10
0.070710678
20
0.28681641
30
0
70
32
0
SEQEND
8
0
0
POLYLINE
8
0
62
5
66
1
10
0
20
0
30
0
70
8
0
VERTEX
8
0
62
5
10
0.14142136
20
0.16032531
30
0
70
32
0
VERTEX
8
0
62
5
10
0.14142136
20
0.28681641
30
0
70
32
0
SEQEND
8
0
0
POLYLINE
8
0
62
5
66
1
10
0
20
0
30
0
70
8
0
VERTEX
8
0
62
5
10
0.21213203
20
0.16032531
30
0
70
32
0
VERTEX
8
0
62
5
10
0.21213203
20
0.28681641
30
0
70
32
0
SEQEND
8
0
0
POLYLINE
8
0
62
5
66
1
10
0
20
0
30
0
70
8
0
VERTEX
8
0
62
5
10
0.56568542
20
0.16032531
30
0
70
32
0
VERTEX
8
0
62
5
10
0.56568542
20
0.28681641
30
0
70
32
0
SEQEND
8
0
0
POLYLINE
8
0
62
5
66
1
10
0
20
0
30
0
70
8
0
VERTEX
8
0
62
5
10
0.35355339
20
0.16032531
30
0
70
32
0
VERTEX
8
0
62
5
10
0.35355339
20
0.28681641
30
0
70
32
0
SEQEND
8
0
0
POLYLINE
8
0
62
5
66
1
10
0
20
0
30
0
70
8
0
VERTEX
8
0
62
5
10
0.42426407
20
0.16032531
30
0
70
32
0
VERTEX
8
0
62
5
10
0.42426407
20
0.28681641
30
0
70
32
0
SEQEND
8
0
0
POLYLINE
8
0
62
5
66
1
10
0
20
0
30
0
70
8
0
VERTEX
8
0
62
5
10
0.49497475
20
0.16032531
30
0
70
32
0
VERTEX
8
0
62
5
10
0.49497475
20
0.28681641
30
0
70
32
0
SEQEND
8
0
0
POLYLINE
8
0
62
5
66
1
10
0
20
0
30
0
70
8
0
VERTEX
8
0
62
5
10
-0.28284271
20
0.16032531
30
0
70
32
0
VERTEX
8
0
62
5
10
-0.28284271
20
0.28681641
30
0
70
32
0
SEQEND
8
0
0
POLYLINE
8
0
62
5
66
1
10
0
20
0
30
0
70
8
0
VERTEX
8
0
62
5
10
-0.21213203
20
0.16032531
30
0
70
32
0
VERTEX
8
0
62
5
10
-0.21213203
20
0.28681641
30
0
70
32
0
SEQEND
8
0
0
POLYLINE
8
0
62
5
66
1
10
0
20
0
30
0
70
8
0
VERTEX
8
0
62
5
10
-0.14142136
20
0.16032531
30
0
70
32
0
VERTEX
8
0
62
5
10
-0.14142136
20
0.28681641
30
0
70
32
0
SEQEND
8
0
0
POLYLINE
8
0
62
5
66
1
10
0
20
0
30
0
70
8
0
VERTEX
8
0
62
5
10
-0.070710678
20
0.16032531
30
0
70
32
0
VERTEX
8
0
62
5
10
-0.070710678
20
0.28681641
30
0
70
32
0
SEQEND
8
0
0
POLYLINE
8
0
62
5
66
1
10
0
20
0
30
0
70
8
0
VERTEX
8
0
62
5
10
-1.9498292e-13
20
0.28681641
30
0
70
32
0
VERTEX
8
0
62
5
10
-1.9498292e-13
20
0.40985771
30
0
70
32
0
SEQEND
8
0
0
POLYLINE
8
0
62
5
66
1
10
0
20
0
30
0
70
8
0
VERTEX
8
0
62
5
10
0.28284271
20
0.40985771
30
0
70
32
0
VERTEX
8
0
62
5
10
0.28284271
20
0.28681641
30
0
70
32
0
SEQEND
8
0
0
POLYLINE
8
0
62
5
66
1
10
0
20
0
30
0
70
8
0
VERTEX
8
0
62
5
10
-1.9498292e-13
20
0.34833706
30
0
70
32
0
VERTEX
8
0
62
5
10
0.070710678
20
0.34833706
30
0
70
32
0
VERTEX
8
0
62
5
10
0.14142136
20
0.29737169
30
0
70
32
0
VERTEX
8
0
62
5
10
0.21213203
20
0.29737169
30
0
70
32
0
VERTEX
8
0
62
5
10
0.28284271
20
0.34833706
30
0
70
32
0
SEQEND
8
0
0
POLYLINE
8
0
62
5
66
1
10
0
20
0
30
0
70
8
0
SEQEND
8
0
0
POLYLINE
8
0
62
5
66
1
10
0
20
0
30
0
70
8
0
VERTEX
8
0
62
5
10
-1.9498292e-13
20
0.34833706
30
0
70
32
0
VERTEX
8
0
62
5
10
0.070710678
20
0.34833706
30
0
70
32
0
VERTEX
8
0
62
5
10
0.14142136
20
0.39930243
30
0
70
32
0
VERTEX
8
0
62
5
10
0.21213203
20
0.39930243
30
0
70
32
0
VERTEX
8
0
62
5
10
0.28284271
20
0.34833706
30
0
70
32
0
SEQEND
8
0
0
POLYLINE
8
0
62
30
66
1
10
0
20
0
30
0
70
8
0
VERTEX
8
0
62
30
10
-1.9498292e-13
20
0.34833706
30
0
70
32
0
VERTEX
8
0
62
30
10
0.28284271
20
0.34833706
30
0
70
32
0
SEQEND
8
0
0
POLYLINE
8
0
62
30
66
1
10
0
20
0
30
0
70
8
0
VERTEX
8
0
62
30
10
0.070710678
20
0.34833706
30
0
70
32
0
VERTEX
8
0
62
30
10
0.070710678
20
0.34833706
30
0
70
32
0
SEQEND
8
0
0
POLYLINE
8
0
62
30
66
1
10
0
20
0
30
0
70
8
0
VERTEX
8
0
62
30
10
0.14142136
20
0.29737169
30
0
70
32
0
VERTEX
8
0
62
30
10
0.14142136
20
0.34833706
30
0
70
32
0
SEQEND
8
0
0
POLYLINE
8
0
62
30
66
1
10
0
20
0
30
0
70
8
0
VERTEX
8
0
62
30
10
0.21213203
20
0.29737169
30
0
70
32
0
VERTEX
8
0
62
30
10
0.21213203
20
0.34833706
30
0
70
32
0
SEQEND
8
0
0
POLYLINE
8
0
62
5
66
1
10
0
20
0
30
0
70
8
0
VERTEX
8
0
62
5
10
0.070710678
20
0.28681641
30
0
70
32
0
VERTEX
8
0
62
5
10
0.070710678
20
0.34833706
30
0
70
32
0
SEQEND
8
0
0
POLYLINE
8
0
62
5
66
1
10
0
20
0
30
0
70
8
0
VERTEX
8
0
62
5
10
0.14142136
20
0.28681641
30
0
70
32
0
VERTEX
8
0
62
5
10
0.14142136
20
0.29737169
30
0
70
32
0
SEQEND
8
0
0
POLYLINE
8
0
62
5
66
1
10
0
20
0
30
0
70
8
0
VERTEX
8
0
62
5
10
0.21213203
20
0.28681641
30
0
70
32
0
VERTEX
8
0
62
5
10
0.21213203
20
0.29737169
30
0
70
32
0
SEQEND
8
0
0
POLYLINE
8
0
62
5
66
1
10
0
20
0
30
0
70
8
0
VERTEX
8
0
62
5
10
0.070710678
20
0.34833706
30
0
70
32
0
VERTEX
8
0
62
5
10
0.070710678
20
0.40985771
30
0
70
32
0
SEQEND
8
0
0
POLYLINE
8
0
62
5
66
1
10
0
20
0
30
0
70
8
0
VERTEX
8
0
62
5
10
0.14142136
20
0.34833706
30
0
70
32
0
VERTEX
8
0
62
5
10
0.14142136
20
0.40985771
30
0
70
32
0
SEQEND
8
0
0
POLYLINE
8
0
62
5
66
1
10
0
20
0
30
0
70
8
0
VERTEX
8
0
62
5
10
0.21213203
20
0.34833706
30
0
70
32
0
VERTEX
8
0
62
5
10
0.21213203
20
0.40985771
30
0
70
32
0
SEQEND
8
0
0
POLYLINE
8
0
62
30
66
1
10
0
20
0
30
0
70
8
0
VERTEX
8
0
62
30
10
-1.9498292e-13
20
0.34833706
30
0
70
32
0
VERTEX
8
0
62
30
10
4.6046768e-13
20
0.34833706
30
0
70
32
0
VERTEX
8
0
62
30
10
-1.9498292e-13
20
0.34833706
30
0
70
32
0
SEQEND
8
0
0
POLYLINE
8
0
62
30
66
1
10
0
20
0
30
0
70
8
0
VERTEX
8
0
62
30
10
0.070710678
20
0.34833706
30
0
70
32
0
VERTEX
8
0
62
30
10
0.070710678
20
0.34833706
30
0
70
32
0
VERTEX
8
0
62
30
10
0.070710678
20
0.34833706
30
0
70
32
0
SEQEND
8
0
0
POLYLINE
8
0
62
30
66
1
10
0
20
0
30
0
70
8
0
VERTEX
8
0
62
30
10
0.14142136
20
0.29737169
30
0
70
32
0
VERTEX
8
0
62
30
10
0.16751146
20
0.34833706
30
0
70
32
0
VERTEX
8
0
62
30
10
0.14142136
20
0.39930243
30
0
70
32
0
SEQEND
8
0
0
POLYLINE
8
0
62
30
66
1
10
0
20
0
30
0
70
8
0
VERTEX
8
0
62
30
10
0.21213203
20
0.29737169
30
0
70
32
0
VERTEX
8
0
62
30
10
0.23822214
20
0.34833706
30
0
70
32
0
VERTEX
8
0
62
30
10
0.21213203
20
0.39930243
30
0
70
32
0
SEQEND
8
0
0
POLYLINE
8
0
62
5
66
1
10
0
20
0
30
0
70
8
0
VERTEX
8
0
62
5
10
0.56568542
20
0.40985771
30
0
70
32
0
VERTEX
8
0
62
5
10
0.56568542
20
0.28681641
30
0
70
32
0
SEQEND
8
0
0
POLYLINE
8
0
62
5
66
1
10
0
20
0
30
0
70
8
0
VERTEX
8
0
62
5
10
0.28284271
20
0.34833706
30
0
70
32
0
VERTEX
8
0
62
5
10
0.35355339
20
0.34833706
30
0
70
32
0
VERTEX
8
0
62
5
10
0.42426407
20
0.29737169
30
0
70
32
0
VERTEX
8
0
62
5
10
0.49497475
20
0.29737169
30
0
70
32
0
VERTEX
8
0
62
5
10
0.56568542
20
0.34833706
30
0
70
32
0
SEQEND
8
0
0
POLYLINE
8
0
62
5
66
1
10
0
20
0
30
0
70
8
0
SEQEND
8
0
0
POLYLINE
8
0
62
5
66
1
10
0
20
0
30
0
70
8
0
VERTEX
8
0
62
5
10
0.28284271
20
0.34833706
30
0
70
32
0
VERTEX
8
0
62
5
10
0.35355339
20
0.34833706
30
0
70
32
0
VERTEX
8
0
62
5
10
0.42426407
20
0.39930243
30
0
70
32
0
VERTEX
8
0
62
5
10
0.49497475
20
0.39930243
30
0
70
32
0
VERTEX
8
0
62
5
10
0.56568542
20
0.34833706
30
0
70
32
0
SEQEND
8
0
0
POLYLINE
8
0
62
30
66
1
10
0
20
0
30
0
70
8
0
VERTEX
8
0
62
30
10
0.28284271
20
0.34833706
30
0
70
32
0
VERTEX
8
0
62
30
10
0.56568542
20
0.34833706
30
0
70
32
0
SEQEND
8
0
0
POLYLINE
8
0
62
30
66
1
10
0
20
0
30
0
70
8
0
VERTEX
8
0
62
30
10
0.35355339
20
0.34833706
30
0
70
32
0
VERTEX
8
0
62
30
10
0.35355339
20
0.34833706
30
0
70
32
0
SEQEND
8
0
0
POLYLINE
8
0
62
30
66
1
10
0
20
0
30
0
70
8
0
VERTEX
8
0
62
30
10
0.42426407
20
0.29737169
30
0
70
32
0
VERTEX
8
0
62
30
10
0.42426407
20
0.34833706
30
0
70
32
0
SEQEND
8
0
0
POLYLINE
8
0
62
30
66
1
10
0
20
0
30
0
70
8
0
VERTEX
8
0
62
30
10
0.49497475
20
0.29737169
30
0
70
32
0
VERTEX
8
0
62
30
10
0.49497475
20
0.34833706
30
0
70
32
0
SEQEND
8
0
0
POLYLINE
8
0
62
5
66
1
10
0
20
0
30
0
70
8
0
VERTEX
8
0
62
5
10
0.35355339
20
0.28681641
30
0
70
32
0
VERTEX
8
0
62
5
10
0.35355339
20
0.34833706
30
0
70
32
0
SEQEND
8
0
0
POLYLINE
8
0
62
5
66
1
10
0
20
0
30
0
70
8
0
VERTEX
8
0
62
5
10
0.42426407
20
0.28681641
30
0
70
32
0
VERTEX
8
0
62
5
10
0.42426407
20
0.29737169
30
0
70
32
0
SEQEND
8
0
0
POLYLINE
8
0
62
5
66
1
10
0
20
0
30
0
70
8
0
VERTEX
8
0
62
5
10
0.49497475
20
0.28681641
30
0
70
32
0
VERTEX
8
0
62
5
10
0.49497475
20
0.29737169
30
0
70
32
0
SEQEND
8
0
0
POLYLINE
8
0
62
5
66
1
10
0
20
0
30
0
70
8
0
VERTEX
8
0
62
5
10
0.35355339
20
0.34833706
30
0
70
32
0
VERTEX
8
0
62
5
10
0.35355339
20
0.40985771
30
0
70
32
0
SEQEND
8
0
0
POLYLINE
8
0
62
5
66
1
10
0
20
0
30
0
70
8
0
VERTEX
8
0
62
5
10
0.42426407
20
0.34833706
30
0
70
32
0
VERTEX
8
0
62
5
10
0.42426407
20
0.40985771
30
0
70
32
0
SEQEND
8
0
0
POLYLINE
8
0
62
5
66
1
10
0
20
0
30
0
70
8
0
VERTEX
8
0
62
5
10
0.49497475
20
0.34833706
30
0
70
32
0
VERTEX
8
0
62
5
10
0.49497475
20
0.40985771
30
0
70
32
0
SEQEND
8
0
0
POLYLINE
8
0
62
30
66
1
10
0
20
0
30
0
70
8
0
VERTEX
8
0
62
30
10
0.28284271
20
0.34833706
30
0
70
32
0
VERTEX
8
0
62
30
10
0.28284271
20
0.34833706
30
0
70
32
0
VERTEX
8
0
62
30
10
0.28284271
20
0.34833706
30
0
70
32
0
SEQEND
8
0
0
POLYLINE
8
0
62
30
66
1
10
0
20
0
30
0
70
8
0
VERTEX
8
0
62
30
10
0.35355339
20
0.34833706
30
0
70
32
0
VERTEX
8
0
62
30
10
0.35355339
20
0.34833706
30
0
70
32
0
VERTEX
8
0
62
30
10
0.35355339
20
0.34833706
30
0
70
32
0
SEQEND
8
0
0
POLYLINE
8
0
62
30
66
1
10
0
20
0
30
0
70
8
0
VERTEX
8
0
62
30
10
0.42426407
20
0.29737169
30
0
70
32
0
VERTEX
8
0
62
30
10
0.45035418
20
0.34833706
30
0
70
32
0
VERTEX
8
0
62
30
10
0.42426407
20
0.39930243
30
0
70
32
0
SEQEND
8
0
0
POLYLINE
8
0
62
30
66
1
10
0
20
0
30
0
70
8
0
VERTEX
8
0
62
30
10
0.49497475
20
0.29737169
30
0
70
32
0
VERTEX
8
0
62
30
10
0.52106485
20
0.34833706
30
0
70
32
0
VERTEX
8
0
62
30
10
0.49497475
20
0.39930243
30
0
70
32
0
SEQEND
8
0
0
POLYLINE
8
0
62
5
66
1
10
0
20
0
30
0
70
8
0
VERTEX
8
0
62
5
10
-0.28284271
20
0.28681641
30
0
70
32
0
VERTEX
8
0
62
5
10
-0.28284271
20
0.40985771
30
0
70
32
0
SEQEND
8
0
0
POLYLINE
8
0
62
5
66
1
10
0
20
0
30
0
70
8
0
VERTEX
8
0
62
5
10
-0.28284271
20
0.34833706
30
0
70
32
0
VERTEX
8
0
62
5
10
-0.21213203
20
0.34833706
30
0
70
32
0
VERTEX
8
0
62
5
10
-0.14142136
20
0.29737169
30
0
70
32
0
VERTEX
8
0
62
5
10
-0.070710678
20
0.29737169
30
0
70
32
0
VERTEX
8
0
62
5
10
-1.9501067e-13
20
0.34833706
30
0
70
32
0
SEQEND
8
0
0
POLYLINE
8
0
62
5
66
1
10
0
20
0
30
0
70
8
0
SEQEND
8
0
0
POLYLINE
8
0
62
5
66
1
10
0
20
0
30
0
70
8
0
VERTEX
8
0
62
5
10
-0.28284271
20
0.34833706
30
0
70
32
0
VERTEX
8
0
62
5
10
-0.21213203
20
0.34833706
30
0
70
32
0
VERTEX
8
0
62
5
10
-0.14142136
20
0.39930243
30
0
70
32
0
VERTEX
8
0
62
5
10
-0.070710678
20
0.39930243
30
0
70
32
0
VERTEX
8
0
62
5
10
-1.9501067e-13
20
0.34833706
30
0
70
32
0
SEQEND
8
0
0
POLYLINE
8
0
62
30
66
1
10
0
20
0
30
0
70
8
0
VERTEX
8
0
62
30
10
-0.28284271
20
0.34833706
30
0
70
32
0
VERTEX
8
0
62
30
10
-1.9501067e-13
20
0.34833706
30
0
70
32
0
SEQEND
8
0
0
POLYLINE
8
0
62
30
66
1
10
0
20
0
30
0
70
8
0
VERTEX
8
0
62
30
10
-0.21213203
20
0.34833706
30
0
70
32
0
VERTEX
8
0
62
30
10
-0.21213203
20
0.34833706
30
0
70
32
0
SEQEND
8
0
0
POLYLINE
8
0
62
30
66
1
10
0
20
0
30
0
70
8
0
VERTEX
8
0
62
30
10
-0.14142136
20
0.29737169
30
0
70
32
0
VERTEX
8
0
62
30
10
-0.14142136
20
0.34833706
30
0
70
32
0
SEQEND
8
0
0
POLYLINE
8
0
62
30
66
1
10
0
20
0
30
0
70
8
0
VERTEX
8
0
62
30
10
-0.070710678
20
0.29737169
30
0
70
32
0
VERTEX
8
0
62
30
10
-0.070710678
20
0.34833706
30
0
70
32
0
SEQEND
8
0
0
POLYLINE
8
0
62
5
66
1
10
0
20
0
30
0
70
8
0
VERTEX
8
0
62
5
10
-0.21213203
20
0.28681641
30
0
70
32
0
VERTEX
8
0
62
5
10
-0.21213203
20
0.34833706
30
0
70
32
0
SEQEND
8
0
0
POLYLINE
8
0
62
5
66
1
10
0
20
0
30
0
70
8
0
VERTEX
8
0
62
5
10
-0.14142136
20
0.28681641
30
0
70
32
0
VERTEX
8
0
62
5
10
-0.14142136
20
0.29737169
30
0
70
32
0
SEQEND
8
0
0
POLYLINE
8
0
62
5
66
1
10
0
20
0
30
0
70
8
0
VERTEX
8
0
62
5
10
-0.070710678
20
0.28681641
30
0
70
32
0
VERTEX
8
0
62
5
10
-0.070710678
20
0.29737169
30
0
70
32
0
SEQEND
8
0
0
POLYLINE
8
0
62
5
66
1
10
0
20
0
30
0
70
8
0
VERTEX
8
0
62
5
10
-0.21213203
20
0.34833706
30
0
70
32
0
VERTEX
8
0
62
5
10
-0.21213203
20
0.40985771
30
0
70
32
0
SEQEND
8
0
0
POLYLINE
8
0
62
5
66
1
10
0
20
0
30
0
70
8
0
VERTEX
8
0
62
5
10
-0.14142136
20
0.34833706
30
0
70
32
0
VERTEX
8
0
62
5
10
-0.14142136
20
0.40985771
30
0
70
32
0
SEQEND
8
0
0
POLYLINE
8
0
62
5
66
1
10
0
20
0
30
0
70
8
0
VERTEX
8
0
62
5
10
-0.070710678
20
0.34833706
30
0
70
32
0
VERTEX
8
0
62
5
10
-0.070710678
20
0.40985771
30
0
70
32
0
SEQEND
8
0
0
POLYLINE
8
0
62
30
66
1
10
0
20
0
30
0
70
8
0
VERTEX
8
0
62
30
10
-0.28284271
20
0.34833706
30
0
70
32
0
VERTEX
8
0
62
30
10
-0.28284271
20
0.34833706
30
0
70
32
0
VERTEX
8
0
62
30
10
-0.28284271
20
0.34833706
30
0
70
32
0
SEQEND
8
0
0
POLYLINE
8
0
62
30
66
1
10
0
20
0
30
0
70
8
0
VERTEX
8
0
62
30
10
-0.21213203
20
0.34833706
30
0
70
32
0
VERTEX
8
0
62
30
10
-0.21213203
20
0.34833706
30
0
70
32
0
VERTEX
8
0
62
30
10
-0.21213203
20
0.34833706
30
0
70
32
0
SEQEND
8
0
0
POLYLINE
8
0
62
30
66
1
10
0
20
0
30
0
70
8
0
VERTEX
8
0
62
30
10
-0.14142136
20
0.29737169
30
0
70
32
0
VERTEX
8
0
62
30
10
-0.11533125
20
0.34833706
30
0
70
32
0
VERTEX
8
0
62
30
10
-0.14142136
20
0.39930243
30
0
70
32
0
SEQEND
8
0
0
POLYLINE
8
0
62
30
66
1
10
0
20
0
30
0
70
8
0
VERTEX
8
0
62
30
10
-0.070710678
20
0.29737169
30
0
70
32
0
VERTEX
8
0
62
30
10
-0.044620571
20
0.34833706
30
0
70
32
0
VERTEX
8
0
62
30
10
-0.070710678
20
0.39930243
30
0
70
32
0
SEQEND
8
0
0
POLYLINE
8
0
62
5
66
1
10
0
20
0
30
0
70
8
0
VERTEX
8
0
62
5
10
-1.9498292e-13
20
0.40985771
30
0
70
32
0
VERTEX
8
0
62
5
10
-1.9498292e-13
20
0.41085771
30
0
70
32
0
SEQEND
8
0
0
POLYLINE
8
0
62
5
66
1
10
0
20
0
30
0
70
8
0
VERTEX
8
0
62
5
10
0.28284271
20
0.40985771
30
0
70
32
0
VERTEX
8
0
62
5
10
0.28284271
20
0.41085771
30
0
70
32
0
SEQEND
8
0
0
POLYLINE
8
0
62
5
66
1
10
0
20
0
30
0
70
8
0
VERTEX
8
0
62
5
10
0.070710678
20
0.40985771
30
0
70
32
0
VERTEX
8
0
62
5
10
0.070710678
20
0.41085771
30
0
70
32
0
SEQEND
8
0
0
POLYLINE
8
0
62
5
66
1
10
0
20
0
30
0
70
8
0
VERTEX
8
0
62
5
10
0.14142136
20
0.40985771
30
0
70
32
0
VERTEX
8
0
62
5
10
0.14142136
20
0.41085771
30
0
70
32
0
SEQEND
8
0
0
POLYLINE
8
0
62
5
66
1
10
0
20
0
30
0
70
8
0
VERTEX
8
0
62
5
10
0.21213203
20
0.40985771
30
0
70
32
0
VERTEX
8
0
62
5
10
0.21213203
20
0.41085771
30
0
70
32
0
SEQEND
8
0
0
POLYLINE
8
0
62
5
66
1
10
0
20
0
30
0
70
8
0
VERTEX
8
0
62
5
10
0.56568542
20
0.40985771
30
0
70
32
0
VERTEX
8
0
62
5
10
0.56568542
20
0.41085771
30
0
70
32
0
SEQEND
8
0
0
POLYLINE
8
0
62
5
66
1
10
0
20
0
30
0
70
8
0
VERTEX
8
0
62
5
10
0.35355339
20
0.40985771
30
0
70
32
0
VERTEX
8
0
62
5
10
0.35355339
20
0.41085771
30
0
70
32
0
SEQEND
8
0
0
POLYLINE
8
0
62
5
66
1
10
0
20
0
30
0
70
8
0
VERTEX
8
0
62
5
10
0.42426407
20
0.40985771
30
0
70
32
0
VERTEX
8
0
62
5
10
0.42426407
20
0.41085771
30
0
70
32
0
SEQEND
8
0
0
POLYLINE
8
0
62
5
66
1
10
0
20
0
30
0
70
8
0
VERTEX
8
0
62
5
10
0.49497475
20
0.40985771
30
0
70
32
0
VERTEX
8
0
62
5
10
0.49497475
20
0.41085771
30
0
70
32
0
SEQEND
8
0
0
POLYLINE
8
0
62
5
66
1
10
0
20
0
30
0
70
8
0
VERTEX
8
0
62
5
10
-0.28284271
20
0.40985771
30
0
70
32
0
VERTEX
8
0
62
5
10
-0.28284271
20
0.41085771
30
0
70
32
0
SEQEND
8
0
0
POLYLINE
8
0
62
5
66
1
10
0
20
0
30
0
70
8
0
VERTEX
8
0
62
5
10
-0.21213203
20
0.40985771
30
0
70
32
0
VERTEX
8
0
62
5
10
-0.21213203
20
0.41085771
30
0
70
32
0
SEQEND
8
0
0
POLYLINE
8
0
62
5
66
1
10
0
20
0
30
0
70
8
0
VERTEX
8
0
62
5
10
-0.14142136
20
0.40985771
30
0
70
32
0
VERTEX
8
0
62
5
10
-0.14142136
20
0.41085771
30
0
70
32
0
SEQEND
8
0
0
POLYLINE
8
0
62
5
66
1
10
0
20
0
30
0
70
8
0
VERTEX
8
0
62
5
10
-0.070710678
20
0.40985771
30
0
70
32
0
VERTEX
8
0
62
5
10
-0.070710678
20
0.41085771
30
0
70
32
0
SEQEND
8
0
0
POLYLINE
8
0
62
5
66
1
10
0
20
0
30
0
70
8
0
VERTEX
8
0
62
5
10
-1.9498292e-13
20
0.41085771
30
0
70
32
0
VERTEX
8
0
62
5
10
-1.9498292e-13
20
0.533899
30
0
70
32
0
SEQEND
8
0
0
POLYLINE
8
0
62
5
66
1
10
0
20
0
30
0
70
8
0
VERTEX
8
0
62
5
10
0.28284271
20
0.533899
30
0
70
32
0
VERTEX
8
0
62
5
10
0.28284271
20
0.41085771
30
0
70
32
0
SEQEND
8
0
0
POLYLINE
8
0
62
5
66
1
10
0
20
0
30
0
70
8
0
VERTEX
8
0
62
5
10
-1.9498292e-13
20
0.47237835
30
0
70
32
0
VERTEX
8
0
62
5
10
0.070710678
20
0.47237836
30
0
70
32
0
VERTEX
8
0
62
5
10
0.14142136
20
0.42141298
30
0
70
32
0
VERTEX
8
0
62
5
10
0.21213203
20
0.42141298
30
0
70
32
0
VERTEX
8
0
62
5
10
0.28284271
20
0.47237835
30
0
70
32
0
SEQEND
8
0
0
POLYLINE
8
0
62
5
66
1
10
0
20
0
30
0
70
8
0
SEQEND
8
0
0
POLYLINE
8
0
62
5
66
1
10
0
20
0
30
0
70
8
0
VERTEX
8
0
62
5
10
-1.9498292e-13
20
0.47237836
30
0
70
32
0
VERTEX
8
0
62
5
10
0.070710678
20
0.47237836
30
0
70
32
0
VERTEX
8
0
62
5
10
0.14142136
20
0.52334373
30
0
70
32
0
VERTEX
8
0
62
5
10
0.21213203
20
0.52334373
30
0
70
32
0
VERTEX
8
0
62
5
10
0.28284271
20
0.47237836
30
0
70
32
0
SEQEND
8
0
0
POLYLINE
8
0
62
30
66
1
10
0
20
0
30
0
70
8
0
VERTEX
8
0
62
30
10
-1.9498292e-13
20
0.47237836
30
0
70
32
0
VERTEX
8
0
62
30
10
0.28284271
20
0.47237836
30
0
70
32
0
SEQEND
8
0
0
POLYLINE
8
0
62
30
66
1
10
0
20
0
30
0
70
8
0
VERTEX
8
0
62
30
10
0.070710678
20
0.47237836
30
0
70
32
0
VERTEX
8
0
62
30
10
0.070710678
20
0.47237836
30
0
70
32
0
SEQEND
8
0
0
POLYLINE
8
0
62
30
66
1
10
0
20
0
30
0
70
8
0
VERTEX
8
0
62
30
10
0.14142136
20
0.42141298
30
0
70
32
0
VERTEX
8
0
62
30
10
0.14142136
20
0.47237836
30
0
70
32
0
SEQEND
8
0
0
POLYLINE
8
0
62
30
66
1
10
0
20
0
30
0
70
8
0
VERTEX
8
0
62
30
10
0.21213203
20
0.42141298
30
0
70
32
0
VERTEX
8
0
62
30
10
0.21213203
20
0.47237836
30
0
70
32
0
SEQEND
8
0
0
POLYLINE
8
0
62
5
66
1
10
0
20
0
30
0
70
8
0
VERTEX
8
0
62
5
10
0.070710678
20
0.41085771
30
0
70
32
0
VERTEX
8
0
62
5
10
0.070710678
20
0.47237836
30
0
70
32
0
SEQEND
8
0
0
POLYLINE
8
0
62
5
66
1
10
0
20
0
30
0
70
8
0
VERTEX
8
0
62
5
10
0.14142136
20
0.41085771
30
0
70
32
0
VERTEX
8
0
62
5
10
0.14142136
20
0.42141298
30
0
70
32
0
SEQEND
8
0
0
POLYLINE
8
0
62
5
66
1
10
0
20
0
30
0
70
8
0
VERTEX
8
0
62
5
10
0.21213203
20
0.41085771
30
0
70
32
0
VERTEX
8
0
62
5
10
0.21213203
20
0.42141298
30
0
70
32
0
SEQEND
8
0
0
POLYLINE
8
0
62
5
66
1
10
0
20
0
30
0
70
8
0
VERTEX
8
0
62
5
10
0.070710678
20
0.47237836
30
0
70
32
0
VERTEX
8
0
62
5
10
0.070710678
20
0.533899
30
0
70
32
0
SEQEND
8
0
0
POLYLINE
8
0
62
5
66
1
10
0
20
0
30
0
70
8
0
VERTEX
8
0
62
5
10
0.14142136
20
0.47237836
30
0
70
32
0
VERTEX
8
0
62
5
10
0.14142136
20
0.533899
30
0
70
32
0
SEQEND
8
0
0
POLYLINE
8
0
62
5
66
1
10
0
20
0
30
0
70
8
0
VERTEX
8
0
62
5
10
0.21213203
20
0.47237836
30
0
70
32
0
VERTEX
8
0
62
5
10
0.21213203
20
0.533899
30
0
70
32
0
SEQEND
8
0
0
POLYLINE
8
0
62
30
66
1
10
0
20
0
30
0
70
8
0
VERTEX
8
0
62
30
10
-1.9498292e-13
20
0.47237835
30
0
70
32
0
VERTEX
8
0
62
30
10
1.9535681e-09
20
0.47237836
30
0
70
32
0
VERTEX
8
0
62
30
10
-1.9498292e-13
20
0.47237836
30
0
70
32
0
SEQEND
8
0
0
POLYLINE
8
0
62
30
66
1
10
0
20
0
30
0
70
8
0
VERTEX
8
0
62
30
10
0.070710678
20
0.47237836
30
0
70
32
0
VERTEX
8
0
62
30
10
0.070710678
20
0.47237836
30
0
70
32
0
VERTEX
8
0
62
30
10
0.070710678
20
0.47237836
30
0
70
32
0
SEQEND
8
0
0
POLYLINE
8
0
62
30
66
1
10
0
20
0
30
0
70
8
0
VERTEX
8
0
62
30
10
0.14142136
20
0.42141298
30
0
70
32
0
VERTEX
8
0
62
30
10
0.16751146
20
0.47237836
30
0
70
32
0
VERTEX
8
0
62
30
10
0.14142136
20
0.52334373
30
0
70
32
0
SEQEND
8
0
0
POLYLINE
8
0
62
30
66
1
10
0
20
0
30
0
70
8
0
VERTEX
8
0
62
30
10
0.21213203
20
0.42141298
30
0
70
32
0
VERTEX
8
0
62
30
10
0.23822214
20
0.47237836
30
0
70
32
0
VERTEX
8
0
62
30
10
0.21213203
20
0.52334373
30
0
70
32
0
SEQEND
8
0
0
POLYLINE
8
0
62
5
66
1
10
0
20
0
30
0
70
8
0
VERTEX
8
0
62
5
10
0.56568542
20
0.533899
30
0
70
32
0
VERTEX
8
0
62
5
10
0.56568542
20
0.41085771
30
0
70
32
0
SEQEND
8
0
0
POLYLINE
8
0
62
5
66
1
10
0
20
0
30
0
70
8
0
VERTEX
8
0
62
5
10
0.28284271
20
0.47237835
30
0
70
32
0
VERTEX
8
0
62
5
10
0.35355339
20
0.47237836
30
0
70
32
0
VERTEX
8
0
62
5
10
0.42426407
20
0.42141298
30
0
70
32
0
VERTEX
8
0
62
5
10
0.49497475
20
0.42141298
30
0
70
32
0
VERTEX
8
0
62
5
10
0.56568542
20
0.47237835
30
0
70
32
0
SEQEND
8
0
0
POLYLINE
8
0
62
5
66
1
10
0
20
0
30
0
70
8
0
SEQEND
8
0
0
POLYLINE
8
0
62
5
66
1
10
0
20
0
30
0
70
8
0
VERTEX
8
0
62
5
10
0.28284271
20
0.47237836
30
0
70
32
0
VERTEX
8
0
62
5
10
0.35355339
20
0.47237836
30
0
70
32
0
VERTEX
8
0
62
5
10
0.42426407
20
0.52334373
30
0
70
32
0
VERTEX
8
0
62
5
10
0.49497475
20
0.52334373
30
0
70
32
0
VERTEX
8
0
62
5
10
0.56568542
20
0.47237836
30
0
70
32
0
SEQEND
8
0
0
POLYLINE
8
0
62
30
66
1
10
0
20
0
30
0
70
8
0
VERTEX
8
0
62
30
10
0.28284271
20
0.47237836
30
0
70
32
0
VERTEX
8
0
62
30
10
0.56568542
20
0.47237836
30
0
70
32
0
SEQEND
8
0
0
POLYLINE
8
0
62
30
66
1
10
0
20
0
30
0
70
8
0
VERTEX
8
0
62
30
10
0.35355339
20
0.47237836
30
0
70
32
0
VERTEX
8
0
62
30
10
0.35355339
20
0.47237836
30
0
70
32
0
SEQEND
8
0
0
POLYLINE
8
0
62
30
66
1
10
0
20
0
30
0
70
8
0
VERTEX
8
0
62
30
10
0.42426407
20
0.42141298
30
0
70
32
0
VERTEX
8
0
62
30
10
0.42426407
20
0.47237836
30
0
70
32
0
SEQEND
8
0
0
POLYLINE
8
0
62
30
66
1
10
0
20
0
30
0
70
8
0
VERTEX
8
0
62
30
10
0.49497475
20
0.42141298
30
0
70
32
0
VERTEX
8
0
62
30
10
0.49497475
20
0.47237836
30
0
70
32
0
SEQEND
8
0
0
POLYLINE
8
0
62
5
66
1
10
0
20
0
30
0
70
8
0
VERTEX
8
0
62
5
10
0.35355339
20
0.41085771
30
0
70
32
0
VERTEX
8
0
62
5
10
0.35355339
20
0.47237836
30
0
70
32
0
SEQEND
8
0
0
POLYLINE
8
0
62
5
66
1
10
0
20
0
30
0
70
8
0
VERTEX
8
0
62
5
10
0.42426407
20
0.41085771
30
0
70
32
0
VERTEX
8
0
62
5
10
0.42426407
20
0.42141298
30
0
70
32
0
SEQEND
8
0
0
POLYLINE
8
0
62
5
66
1
10
0
20
0
30
0
70
8
0
VERTEX
8
0
62
5
10
0.49497475
20
0.41085771
30
0
70
32
0
VERTEX
8
0
62
5
10
0.49497475
20
0.42141298
30
0
70
32
0
SEQEND
8
0
0
POLYLINE
8
0
62
5
66
1
10
0
20
0
30
0
70
8
0
VERTEX
8
0
62
5
10
0.35355339
20
0.47237836
30
0
70
32
0
VERTEX
8
0
62
5
10
0.35355339
20
0.533899
30
0
70
32
0
SEQEND
8
0
0
POLYLINE
8
0
62
5
66
1
10
0
20
0
30
0
70
8
0
VERTEX
8
0
62
5
10
0.42426407
20
0.47237836
30
0
70
32
0
VERTEX
8
0
62
5
10
0.42426407
20
0.533899
30
0
70
32
0
SEQEND
8
0
0
POLYLINE
8
0
62
5
66
1
10
0
20
0
30
0
70
8
0
VERTEX
8
0
62
5
10
0.49497475
20
0.47237836
30
0
70
32
0
VERTEX
8
0
62
5
10
0.49497475
20
0.533899
30
0
70
32
0
SEQEND
8
0
0
POLYLINE
8
0
62
30
66
1
10
0
20
0
30
0
70
8
0
VERTEX
8
0
62
30
10
0.28284271
20
0.47237835
30
0
70
32
0
VERTEX
8
0
62
30
10
0.28284271
20
0.47237836
30
0
70
32
0
VERTEX
8
0
62
30
10
0.28284271
20
0.47237836
30
0
70
32
0
SEQEND
8
0
0
POLYLINE
8
0
62
30
66
1
10
0
20
0
30
0
70
8
0
VERTEX
8
0
62
30
10
0.35355339
20
0.47237836
30
0
70
32
0
VERTEX
8
0
62
30
10
0.35355339
20
0.47237836
30
0
70
32
0
VERTEX
8
0
62
30
10
0.35355339
20
0.47237836
30
0
70
32
0
SEQEND
8
0
0
POLYLINE
8
0
62
30
66
1
10
0
20
0
30
0
70
8
0
VERTEX
8
0
62
30
10
0.42426407
20
0.42141298
30
0
70
32
0
VERTEX
8
0
62
30
10
0.45035418
20
0.47237836
30
0
70
32
0
VERTEX
8
0
62
30
10
0.42426407
20
0.52334373
30
0
70
32
0
SEQEND
8
0
0
POLYLINE
8
0
62
30
66
1
10
0
20
0
30
0
70
8
0
VERTEX
8
0
62
30
10
0.49497475
20
0.42141298
30
0
70
32
0
VERTEX
8
0
62
30
10
0.52106485
20
0.47237836
30
0
70
32
0
VERTEX
8
0
62
30
10
0.49497475
20
0.52334373
30
0
70
32
0
SEQEND
8
0
0
POLYLINE
8
0
62
5
66
1
10
0
20
0
30
0
70
8
0
VERTEX
8
0
62
5
10
-0.28284271
20
0.41085771
30
0
70
32
0
VERTEX
8
0
62
5
10
-0.28284271
20
0.533899
30
0
70
32
0
SEQEND
8
0
0
POLYLINE
8
0
62
5
66
1
10
0
20
0
30
0
70
8
0
VERTEX
8
0
62
5
10
-0.28284271
20
0.47237835
30
0
70
32
0
VERTEX
8
0
62
5
10
-0.21213203
20
0.47237836
30
0
70
32
0
VERTEX
8
0
62
5
10
-0.14142136
20
0.42141298
30
0
70
32
0
VERTEX
8
0
62
5
10
-0.070710678
20
0.42141298
30
0
70
32
0
VERTEX
8
0
62
5
10
-1.9501067e-13
20
0.47237835
30
0
70
32
0
SEQEND
8
0
0
POLYLINE
8
0
62
5
66
1
10
0
20
0
30
0
70
8
0
SEQEND
8
0
0
POLYLINE
8
0
62
5
66
1
10
0
20
0
30
0
70
8
0
VERTEX
8
0
62
5
10
-0.28284271
20
0.47237836
30
0
70
32
0
VERTEX
8
0
62
5
10
-0.21213203
20
0.47237836
30
0
70
32
0
VERTEX
8
0
62
5
10
-0.14142136
20
0.52334373
30
0
70
32
0
VERTEX
8
0
62
5
10
-0.070710678
20
0.52334373
30
0
70
32
0
VERTEX
8
0
62
5
10
-1.9501067e-13
20
0.47237836
30
0
70
32
0
SEQEND
8
0
0
POLYLINE
8
0
62
30
66
1
10
0
20
0
30
0
70
8
0
VERTEX
8
0
62
30
10
-0.28284271
20
0.47237836
30
0
70
32
0
VERTEX
8
0
62
30
10
-1.9501067e-13
20
0.47237836
30
0
70
32
0
SEQEND
8
0
0
POLYLINE
8
0
62
30
66
1
10
0
20
0
30
0
70
8
0
VERTEX
8
0
62
30
10
-0.21213203
20
0.47237836
30
0
70
32
0
VERTEX
8
0
62
30
10
-0.21213203
20
0.47237836
30
0
70
32
0
SEQEND
8
0
0
POLYLINE
8
0
62
30
66
1
10
0
20
0
30
0
70
8
0
VERTEX
8
0
62
30
10
-0.14142136
20
0.42141298
30
0
70
32
0
VERTEX
8
0
62
30
10
-0.14142136
20
0.47237836
30
0
70
32
0
SEQEND
8
0
0
POLYLINE
8
0
62
30
66
1
10
0
20
0
30
0
70
8
0
VERTEX
8
0
62
30
10
-0.070710678
20
0.42141298
30
0
70
32
0
VERTEX
8
0
62
30
10
-0.070710678
20
0.47237836
30
0
70
32
0
SEQEND
8
0
0
POLYLINE
8
0
62
5
66
1
10
0
20
0
30
0
70
8
0
VERTEX
8
0
62
5
10
-0.21213203
20
0.41085771
30
0
70
32
0
VERTEX
8
0
62
5
10
-0.21213203
20
0.47237836
30
0
70
32
0
SEQEND
8
0
0
POLYLINE
8
0
62
5
66
1
10
0
20
0
30
0
70
8
0
VERTEX
8
0
62
5
10
-0.14142136
20
0.41085771
30
0
70
32
0
VERTEX
8
0
62
5
10
-0.14142136
20
0.42141298
30
0
70
32
0
SEQEND
8
0
0
POLYLINE
8
0
62
5
66
1
10
0
20
0
30
0
70
8
0
VERTEX
8
0
62
5
10
-0.070710678
20
0.41085771
30
0
70
32
0
VERTEX
8
0
62
5
10
-0.070710678
20
0.42141298
30
0
70
32
0
SEQEND
8
0
0
POLYLINE
8
0
62
5
66
1
10
0
20
0
30
0
70
8
0
VERTEX
8
0
62
5
10
-0.21213203
20
0.47237836
30
0
70
32
0
VERTEX
8
0
62
5
10
-0.21213203
20
0.533899
30
0
70
32
0
SEQEND
8
0
0
POLYLINE
8
0
62
5
66
1
10
0
20
0
30
0
70
8
0
VERTEX
8
0
62
5
10
-0.14142136
20
0.47237836
30
0
70
32
0
VERTEX
8
0
62
5
10
-0.14142136
20
0.533899
30
0
70
32
0
SEQEND
8
0
0
POLYLINE
8
0
62
5
66
1
10
0
20
0
30
0
70
8
0
VERTEX
8
0
62
5
10
-0.070710678
20
0.47237836
30
0
70
32
0
VERTEX
8
0
62
5
10
-0.070710678
20
0.533899
30
0
70
32
0
SEQEND
8
0
0
POLYLINE
8
0
62
30
66
1
10
0
20
0
30
0
70
8
0
VERTEX
8
0
62
30
10
-0.28284271
20
0.47237835
30
0
70
32
0
VERTEX
8
0
62
30
10
-0.28284271
20
0.47237836
30
0
70
32
0
VERTEX
8
0
62
30
10
-0.28284271
20
0.47237836
30
0
70
32
0
SEQEND
8
0
0
POLYLINE
8
0
62
30
66
1
10
0
20
0
30
0
70
8
0
VERTEX
8
0
62
30
10
-0.21213203
20
0.47237836
30
0
70
32
0
VERTEX
8
0
62
30
10
-0.21213203
20
0.47237836
30
0
70
32
0
VERTEX
8
0
62
30
10
-0.21213203
20
0.47237836
30
0
70
32
0
SEQEND
8
0
0
POLYLINE
8
0
62
30
66
1
10
0
20
0
30
0
70
8
0
VERTEX
8
0
62
30
10
-0.14142136
20
0.42141298
30
0
70
32
0
VERTEX
8
0
62
30
10
-0.11533125
20
0.47237836
30
0
70
32
0
VERTEX
8
0
62
30
10
-0.14142136
20
0.52334373
30
0
70
32
0
SEQEND
8
0
0
POLYLINE
8
0
62
30
66
1
10
0
20
0
30
0
70
8
0
VERTEX
8
0
62
30
10
-0.070710678
20
0.42141298
30
0
70
32
0
VERTEX
8
0
62
30
10
-0.044620571
20
0.47237836
30
0
70
32
0
VERTEX
8
0
62
30
10
-0.070710678
20
0.52334373
30
0
70
32
0
SEQEND
8
0
0
POLYLINE
8
0
62
5
66
1
10
0
20
0
30
0
70
8
0
VERTEX
8
0
62
5
10
-1.9498292e-13
20
0.533899
30
0
70
32
0
VERTEX
8
0
62
5
10
-1.9498292e-13
20
0.56552178
30
0
70
32
0
SEQEND
8
0
0
POLYLINE
8
0
62
5
66
1
10
0
20
0
30
0
70
8
0
VERTEX
8
0
62
5
10
0.070710678
20
0.533899
30
0
70
32
0
VERTEX
8
0
62
5
10
0.070710678
20
0.56552178
30
0
70
32
0
SEQEND
8
0
0
POLYLINE
8
0
62
5
66
1
10
0
20
0
30
0
70
8
0
VERTEX
8
0
62
5
10
0.14142136
20
0.533899
30
0
70
32
0
VERTEX
8
0
62
5
10
0.14142136
20
0.56552178
30
0
70
32
0
SEQEND
8
0
0
POLYLINE
8
0
62
5
66
1
10
0
20
0
30
0
70
8
0
VERTEX
8
0
62
5
10
0.21213203
20
0.533899
30
0
70
32
0
VERTEX
8
0
62
5
10
0.21213203
20
0.56552178
30
0
70
32
0
SEQEND
8
0
0
POLYLINE
8
0
62
5
66
1
10
0
20
0
30
0
70
8
0
VERTEX
8
0
62
5
10
0.28284271
20
0.533899
30
0
70
32
0
VERTEX
8
0
62
5
10
0.28284271
20
0.56552178
30
0
70
32
0
SEQEND
8
0
0
POLYLINE
8
0
62
5
66
1
10
0
20
0
30
0
70
8
0
VERTEX
8
0
62
5
10
0.070710678
20
0.533899
30
0
70
32
0
VERTEX
8
0
62
5
10
0.070710678
20
0.533899
30
0
70
32
0
SEQEND
8
0
0
POLYLINE
8
0
62
5
66
1
10
0
20
0
30
0
70
8
0
VERTEX
8
0
62
5
10
0.14142136
20
0.533899
30
0
70
32
0
VERTEX
8
0
62
5
10
0.14142136
20
0.533899
30
0
70
32
0
SEQEND
8
0
0
POLYLINE
8
0
62
5
66
1
10
0
20
0
30
0
70
8
0
VERTEX
8
0
62
5
10
0.21213203
20
0.533899
30
0
70
32
0
VERTEX
8
0
62
5
10
0.21213203
20
0.533899
30
0
70
32
0
SEQEND
8
0
0
POLYLINE
8
0
62
5
66
1
10
0
20
0
30
0
70
8
0
VERTEX
8
0
62
5
10
5.8104097e-10
20
0.56552178
30
0
70
32
0
VERTEX
8
0
62
5
10
5.8104097e-10
20
0.56552178
30
0
70
32
0
SEQEND
8
0
0
POLYLINE
8
0
62
5
66
1
10
0
20
0
30
0
70
8
0
VERTEX
8
0
62
5
10
0.070710679
20
0.56552178
30
0
70
32
0
VERTEX
8
0
62
5
10
0.070710679
20
0.56552178
30
0
70
32
0
SEQEND
8
0
0
POLYLINE
8
0
62
5
66
1
10
0
20
0
30
0
70
8
0
VERTEX
8
0
62
5
10
0.14142136
20
0.56552178
30
0
70
32
0
VERTEX
8
0
62
5
10
0.14142136
20
0.56552178
30
0
70
32
0
SEQEND
8
0
0
POLYLINE
8
0
62
5
66
1
10
0
20
0
30
0
70
8
0
VERTEX
8
0
62
5
10
0.21213203
20
0.56552178
30
0
70
32
0
VERTEX
8
0
62
5
10
0.21213203
20
0.56552178
30
0
70
32
0
SEQEND
8
0
0
POLYLINE
8
0
62
5
66
1
10
0
20
0
30
0
70
8
0
VERTEX
8
0
62
5
10
0.35355339
20
0.533899
30
0
70
32
0
VERTEX
8
0
62
5
10
0.35355339
20
0.56552178
30
0
70
32
0
SEQEND
8
0
0
POLYLINE
8
0
62
5
66
1
10
0
20
0
30
0
70
8
0
VERTEX
8
0
62
5
10
0.42426407
20
0.533899
30
0
70
32
0
VERTEX
8
0
62
5
10
0.42426407
20
0.56552178
30
0
70
32
0
SEQEND
8
0
0
POLYLINE
8
0
62
5
66
1
10
0
20
0
30
0
70
8
0
VERTEX
8
0
62
5
10
0.49497475
20
0.533899
30
0
70
32
0
VERTEX
8
0
62
5
10
0.49497475
20
0.56552178
30
0
70
32
0
SEQEND
8
0
0
POLYLINE
8
0
62
5
66
1
10
0
20
0
30
0
70
8
0
VERTEX
8
0
62
5
10
0.56568542
20
0.533899
30
0
70
32
0
VERTEX
8
0
62
5
10
0.56568542
20
0.56552178
30
0
70
32
0
SEQEND
8
0
0
POLYLINE
8
0
62
5
66
1
10
0
20
0
30
0
70
8
0
VERTEX
8
0
62
5
10
0.35355339
20
0.533899
30
0
70
32
0
VERTEX
8
0
62
5
10
0.35355339
20
0.533899
30
0
70
32
0
SEQEND
8
0
0
POLYLINE
8
0
62
5
66
1
10
0
20
0
30
0
70
8
0
VERTEX
8
0
62
5
10
0.42426407
20
0.533899
30
0
70
32
0
VERTEX
8
0
62
5
10
0.42426407
20
0.533899
30
0
70
32
0
SEQEND
8
0
0
POLYLINE
8
0
62
5
66
1
10
0
20
0
30
0
70
8
0
VERTEX
8
0
62
5
10
0.49497475
20
0.533899
30
0
70
32
0
VERTEX
8
0
62
5
10
0.49497475
20
0.533899
30
0
70
32
0
SEQEND
8
0
0
POLYLINE
8
0
62
5
66
1
10
0
20
0
30
0
70
8
0
VERTEX
8
0
62
5
10
0.28284271
20
0.56552178
30
0
70
32
0
VERTEX
8
0
62
5
10
0.28284271
20
0.56552178
30
0
70
32
0
SEQEND
8
0
0
POLYLINE
8
0
62
5
66
1
10
0
20
0
30
0
70
8
0
VERTEX
8
0
62
5
10
0.35355339
20
0.56552178
30
0
70
32
0
VERTEX
8
0
62
5
10
0.35355339
20
0.56552178
30
0
70
32
0
SEQEND
8
0
0
POLYLINE
8
0
62
5
66
1
10
0
20
0
30
0
70
8
0
VERTEX
8
0
62
5
10
0.42426407
20
0.56552178
30
0
70
32
0
VERTEX
8
0
62
5
10
0.42426407
20
0.56552178
30
0
70
32
0
SEQEND
8
0
0
POLYLINE
8
0
62
5
66
1
10
0
20
0
30
0
70
8
0
VERTEX
8
0
62
5
10
0.49497475
20
0.56552178
30
0
70
32
0
VERTEX
8
0
62
5
10
0.49497475
20
0.56552178
30
0
70
32
0
SEQEND
8
0
0
POLYLINE
8
0
62
5
66
1
10
0
20
0
30
0
70
8
0
VERTEX
8
0
62
5
10
-0.21213203
20
0.533899
30
0
70
32
0
VERTEX
8
0
62
5
10
-0.21213203
20
0.56552178
30
0
70
32
0
SEQEND
8
0
0
POLYLINE
8
0
62
5
66
1
10
0
20
0
30
0
70
8
0
VERTEX
8
0
62
5
10
-0.14142136
20
0.533899
30
0
70
32
0
VERTEX
8
0
62
5
10
-0.14142136
20
0.56552178
30
0
70
32
0
SEQEND
8
0
0
POLYLINE
8
0
62
5
66
1
10
0
20
0
30
0
70
8
0
VERTEX
8
0
62
5
10
-0.070710678
20
0.533899
30
0
70
32
0
VERTEX
8
0
62
5
10
-0.070710678
20
0.56552178
30
0
70
32
0
SEQEND
8
0
0
POLYLINE
8
0
62
5
66
1
10
0
20
0
30
0
70
8
0
VERTEX
8
0
62
5
10
-1.9501067e-13
20
0.533899
30
0
70
32
0
VERTEX
8
0
62
5
10
-1.9501067e-13
20
0.56552178
30
0
70
32
0
SEQEND
8
0
0
POLYLINE
8
0
62
5
66
1
10
0
20
0
30
0
70
8
0
VERTEX
8
0
62
5
10
-0.21213203
20
0.533899
30
0
70
32
0
VERTEX
8
0
62
5
10
-0.21213203
20
0.533899
30
0
70
32
0
SEQEND
8
0
0
POLYLINE
8
0
62
5
66
1
10
0
20
0
30
0
70
8
0
VERTEX
8
0
62
5
10
-0.14142136
20
0.533899
30
0
70
32
0
VERTEX
8
0
62
5
10
-0.14142136
20
0.533899
30
0
70
32
0
SEQEND
8
0
0
POLYLINE
8
0
62
5
66
1
10
0
20
0
30
0
70
8
0
VERTEX
8
0
62
5
10
-0.070710678
20
0.533899
30
0
70
32
0
VERTEX
8
0
62
5
10
-0.070710678
20
0.533899
30
0
70
32
0
SEQEND
8
0
0
POLYLINE
8
0
62
5
66
1
10
0
20
0
30
0
70
8
0
VERTEX
8
0
62
5
10
-0.28284271
20
0.56552178
30
0
70
32
0
VERTEX
8
0
62
5
10
-0.28284271
20
0.56552178
30
0
70
32
0
SEQEND
8
0
0
POLYLINE
8
0
62
5
66
1
10
0
20
0
30
0
70
8
0
VERTEX
8
0
62
5
10
-0.21213203
20
0.56552178
30
0
70
32
0
VERTEX
8
0
62
5
10
-0.21213203
20
0.56552178
30
0
70
32
0
SEQEND
8
0
0
POLYLINE
8
0
62
5
66
1
10
0
20
0
30
0
70
8
0
VERTEX
8
0
62
5
10
-0.14142136
20
0.56552178
30
0
70
32
0
VERTEX
8
0
62
5
10
-0.14142136
20
0.56552178
30
0
70
32
0
SEQEND
8
0
0
POLYLINE
8
0
62
5
66
1
10
0
20
0
30
0
70
8
0
VERTEX
8
0
62
5
10
-0.070710678
20
0.56552178
30
0
70
32
0
VERTEX
8
0
62
5
10
-0.070710678
20
0.56552178
30
0
70
32
0
SEQEND
8
0
0
POLYLINE
8
0
62
5
66
1
10
0
20
0
30
0
70
8
0
VERTEX
8
0
62
5
10
5.8104097e-10
20
0.56552178
30
0
70
32
0
VERTEX
8
0
62
5
10
5.8104097e-10
20
0.69201289
30
0
70
32
0
SEQEND
8
0
0
POLYLINE
8
0
62
5
66
1
10
0
20
0
30
0
70
8
0
VERTEX
8
0
62
5
10
0.28284271
20
0.56552178
30
0
70
32
0
VERTEX
8
0
62
5
10
0.28284271
20
0.69201289
30
0
70
32
0
SEQEND
8
0
0
POLYLINE
8
0
62
5
66
1
10
0
20
0
30
0
70
8
0
VERTEX
8
0
62
5
10
0.070710679
20
0.56552178
30
0
70
32
0
VERTEX
8
0
62
5
10
0.070710679
20
0.69201289
30
0
70
32
0
SEQEND
8
0
0
POLYLINE
8
0
62
5
66
1
10
0
20
0
30
0
70
8
0
VERTEX
8
0
62
5
10
0.14142136
20
0.56552178
30
0
70
32
0
VERTEX
8
0
62
5
10
0.14142136
20
0.69201289
30
0
70
32
0
SEQEND
8
0
0
POLYLINE
8
0
62
5
66
1
10
0
20
0
30
0
70
8
0
VERTEX
8
0
62
5
10
0.21213203
20
0.56552178
30
0
70
32
0
VERTEX
8
0
62
5
10
0.21213203
20
0.69201289
30
0
70
32
0
SEQEND
8
0
0
POLYLINE
8
0
62
5
66
1
10
0
20
0
30
0
70
8
0
VERTEX
8
0
62
5
10
0.56568543
20
0.56552178
30
0
70
32
0
VERTEX
8
0
62
5
10
0.56568543
20
0.69201289
30
0
70
32
0
SEQEND
8
0
0
POLYLINE
8
0
62
5
66
1
10
0
20
0
30
0
70
8
0
VERTEX
8
0
62
5
10
0.35355339
20
0.56552178
30
0
70
32
0
VERTEX
8
0
62
5
10
0.35355339
20
0.69201289
30
0
70
32
0
SEQEND
8
0
0
POLYLINE
8
0
62
5
66
1
10
0
20
0
30
0
70
8
0
VERTEX
8
0
62
5
10
0.42426407
20
0.56552178
30
0
70
32
0
VERTEX
8
0
62
5
10
0.42426407
20
0.69201289
30
0
70
32
0
SEQEND
8
0
0
POLYLINE
8
0
62
5
66
1
10
0
20
0
30
0
70
8
0
VERTEX
8
0
62
5
10
0.49497475
20
0.56552178
30
0
70
32
0
VERTEX
8
0
62
5
10
0.49497475
20
0.69201289
30
0
70
32
0
SEQEND
8
0
0
POLYLINE
8
0
62
5
66
1
10
0
20
0
30
0
70
8
0
VERTEX
8
0
62
5
10
-0.28284271
20
0.56552178
30
0
70
32
0
VERTEX
8
0
62
5
10
-0.28284271
20
0.69201289
30
0
70
32
0
SEQEND
8
0
0
POLYLINE
8
0
62
5
66
1
10
0
20
0
30
0
70
8
0
VERTEX
8
0
62
5
10
-0.21213203
20
0.56552178
30
0
70
32
0
VERTEX
8
0
62
5
10
-0.21213203
20
0.69201289
30
0
70
32
0
SEQEND
8
0
0
POLYLINE
8
0
62
5
66
1
10
0
20
0
30
0
70
8
0
VERTEX
8
0
62
5
10
-0.14142136
20
0.56552178
30
0
70
32
0
VERTEX
8
0
62
5
10
-0.14142136
20
0.69201289
30
0
70
32
0
SEQEND
8
0
0
POLYLINE
8
0
62
5
66
1
10
0
20
0
30
0
70
8
0
VERTEX
8
0
62
5
10
-0.070710678
20
0.56552178
30
0
70
32
0
VERTEX
8
0
62
5
10
-0.070710678
20
0.69201289
30
0
70
32
0
SEQEND
8
0
0
POLYLINE
8
0
62
5
66
1
10
0
20
0
30
0
70
8
0
VERTEX
8
0
62
5
10
5.8104097e-10
20
0.69201289
30
0
70
32
0
VERTEX
8
0
62
5
10
5.8104097e-10
20
0.71971542
30
0
70
32
0
SEQEND
8
0
0
POLYLINE
8
0
62
5
66
1
10
0
20
0
30
0
70
8
0
VERTEX
8
0
62
5
10
0.28284271
20
0.71971542
30
0
70
32
0
VERTEX
8
0
62
5
10
0.28284271
20
0.69201289
30
0
70
32
0
SEQEND
8
0
0
POLYLINE
8
0
62
5
66
1
10
0
20
0
30
0
70
8
0
VERTEX
8
0
62
5
10
5.8104097e-10
20
0.70586415
30
0
70
32
0
VERTEX
8
0
62
5
10
0.070710679
20
0.70586415
30
0
70
32
0
VERTEX
8
0
62
5
10
0.14142136
20
0.69438939
30
0
70
32
0
VERTEX
8
0
62
5
10
0.21213203
20
0.69438939
30
0
70
32
0
VERTEX
8
0
62
5
10
0.28284271
20
0.70586415
30
0
70
32
0
SEQEND
8
0
0
POLYLINE
8
0
62
5
66
1
10
0
20
0
30
0
70
8
0
SEQEND
8
0
0
POLYLINE
8
0
62
5
66
1
10
0
20
0
30
0
70
8
0
VERTEX
8
0
62
5
10
5.8104097e-10
20
0.70586415
30
0
70
32
0
VERTEX
8
0
62
5
10
0.070710679
20
0.70586415
30
0
70
32
0
VERTEX
8
0
62
5
10
0.14142136
20
0.71733892
30
0
70
32
0
VERTEX
8
0
62
5
10
0.21213203
20
0.71733892
30
0
70
32
0
VERTEX
8
0
62
5
10
0.28284271
20
0.70586415
30
0
70
32
0
SEQEND
8
0
0
POLYLINE
8
0
62
30
66
1
10
0
20
0
30
0
70
8
0
VERTEX
8
0
62
30
10
5.8104097e-10
20
0.70586415
30
0
70
32
0
VERTEX
8
0
62
30
10
0.28284271
20
0.70586415
30
0
70
32
0
SEQEND
8
0
0
POLYLINE
8
0
62
30
66
1
10
0
20
0
30
0
70
8
0
VERTEX
8
0
62
30
10
0.070710679
20
0.70586415
30
0
70
32
0
VERTEX
8
0
62
30
10
0.070710679
20
0.70586415
30
0
70
32
0
SEQEND
8
0
0
POLYLINE
8
0
62
30
66
1
10
0
20
0
30
0
70
8
0
VERTEX
8
0
62
30
10
0.14142136
20
0.69438939
30
0
70
32
0
VERTEX
8
0
62
30
10
0.14142136
20
0.70586415
30
0
70
32
0
SEQEND
8
0
0
POLYLINE
8
0
62
30
66
1
10
0
20
0
30
0
70
8
0
VERTEX
8
0
62
30
10
0.21213203
20
0.69438939
30
0
70
32
0
VERTEX
8
0
62
30
10
0.21213203
20
0.70586415
30
0
70
32
0
SEQEND
8
0
0
POLYLINE
8
0
62
5
66
1
10
0
20
0
30
0
70
8
0
VERTEX
8
0
62
5
10
0.070710679
20
0.69201289
30
0
70
32
0
VERTEX
8
0
62
5
10
0.070710679
20
0.70586415
30
0
70
32
0
SEQEND
8
0
0
POLYLINE
8
0
62
5
66
1
10
0
20
0
30
0
70
8
0
VERTEX
8
0
62
5
10
0.14142136
20
0.69201289
30
0
70
32
0
VERTEX
8
0
62
5
10
0.14142136
20
0.69438939
30
0
70
32
0
SEQEND
8
0
0
POLYLINE
8
0
62
5
66
1
10
0
20
0
30
0
70
8
0
VERTEX
8
0
62
5
10
0.21213203
20
0.69201289
30
0
70
32
0
VERTEX
8
0
62
5
10
0.21213203
20
0.69438939
30
0
70
32
0
SEQEND
8
0
0
POLYLINE
8
0
62
5
66
1
10
0
20
0
30
0
70
8
0
VERTEX
8
0
62
5
10
0.070710679
20
0.70586415
30
0
70
32
0
VERTEX
8
0
62
5
10
0.070710679
20
0.71971542
30
0
70
32
0
SEQEND
8
0
0
POLYLINE
8
0
62
5
66
1
10
0
20
0
30
0
70
8
0
VERTEX
8
0
62
5
10
0.14142136
20
0.70586415
30
0
70
32
0
VERTEX
8
0
62
5
10
0.14142136
20
0.71971542
30
0
70
32
0
SEQEND
8
0
0
POLYLINE
8
0
62
5
66
1
10
0
20
0
30
0
70
8
0
VERTEX
8
0
62
5
10
0.21213203
20
0.70586415
30
0
70
32
0
VERTEX
8
0
62
5
10
0.21213203
20
0.71971542
30
0
70
32
0
SEQEND
8
0
0
POLYLINE
8
0
62
30
66
1
10
0
20
0
30
0
70
8
0
VERTEX
8
0
62
30
10
5.8104097e-10
20
0.70586415
30
0
70
32
0
VERTEX
8
0
62
30
10
5.8104097e-10
20
0.70586415
30
0
70
32
0
VERTEX
8
0
62
30
10
5.8104097e-10
20
0.70586415
30
0
70
32
0
SEQEND
8
0
0
POLYLINE
8
0
62
30
66
1
10
0
20
0
30
0
70
8
0
VERTEX
8
0
62
30
10
0.070710679
20
0.70586415
30
0
70
32
0
VERTEX
8
0
62
30
10
0.070710679
20
0.70586415
30
0
70
32
0
VERTEX
8
0
62
30
10
0.070710679
20
0.70586415
30
0
70
32
0
SEQEND
8
0
0
POLYLINE
8
0
62
30
66
1
10
0
20
0
30
0
70
8
0
VERTEX
8
0
62
30
10
0.14142136
20
0.69438939
30
0
70
32
0
VERTEX
8
0
62
30
10
0.15118413
20
0.70586415
30
0
70
32
0
VERTEX
8
0
62
30
10
0.14142136
20
0.71733892
30
0
70
32
0
SEQEND
8
0
0
POLYLINE
8
0
62
30
66
1
10
0
20
0
30
0
70
8
0
VERTEX
8
0
62
30
10
0.21213203
20
0.69438939
30
0
70
32
0
VERTEX
8
0
62
30
10
0.22189481
20
0.70586415
30
0
70
32
0
VERTEX
8
0
62
30
10
0.21213203
20
0.71733892
30
0
70
32
0
SEQEND
8
0
0
POLYLINE
8
0
62
5
66
1
10
0
20
0
30
0
70
8
0
VERTEX
8
0
62
5
10
0.56568543
20
0.71971542
30
0
70
32
0
VERTEX
8
0
62
5
10
0.56568543
20
0.69201289
30
0
70
32
0
SEQEND
8
0
0
POLYLINE
8
0
62
5
66
1
10
0
20
0
30
0
70
8
0
VERTEX
8
0
62
5
10
0.28284271
20
0.70586415
30
0
70
32
0
VERTEX
8
0
62
5
10
0.35355339
20
0.70586415
30
0
70
32
0
VERTEX
8
0
62
5
10
0.42426407
20
0.69438939
30
0
70
32
0
VERTEX
8
0
62
5
10
0.49497475
20
0.69438939
30
0
70
32
0
VERTEX
8
0
62
5
10
0.56568543
20
0.70586415
30
0
70
32
0
SEQEND
8
0
0
POLYLINE
8
0
62
5
66
1
10
0
20
0
30
0
70
8
0
SEQEND
8
0
0
POLYLINE
8
0
62
5
66
1
10
0
20
0
30
0
70
8
0
VERTEX
8
0
62
5
10
0.28284271
20
0.70586415
30
0
70
32
0
VERTEX
8
0
62
5
10
0.35355339
20
0.70586415
30
0
70
32
0
VERTEX
8
0
62
5
10
0.42426407
20
0.71733892
30
0
70
32
0
VERTEX
8
0
62
5
10
0.49497475
20
0.71733892
30
0
70
32
0
VERTEX
8
0
62
5
10
0.56568543
20
0.70586415
30
0
70
32
0
SEQEND
8
0
0
POLYLINE
8
0
62
30
66
1
10
0
20
0
30
0
70
8
0
VERTEX
8
0
62
30
10
0.28284271
20
0.70586415
30
0
70
32
0
VERTEX
8
0
62
30
10
0.56568543
20
0.70586415
30
0
70
32
0
SEQEND
8
0
0
POLYLINE
8
0
62
30
66
1
10
0
20
0
30
0
70
8
0
VERTEX
8
0
62
30
10
0.35355339
20
0.70586415
30
0
70
32
0
VERTEX
8
0
62
30
10
0.35355339
20
0.70586415
30
0
70
32
0
SEQEND
8
0
0
POLYLINE
8
0
62
30
66
1
10
0
20
0
30
0
70
8
0
VERTEX
8
0
62
30
10
0.42426407
20
0.69438939
30
0
70
32
0
VERTEX
8
0
62
30
10
0.42426407
20
0.70586415
30
0
70
32
0
SEQEND
8
0
0
POLYLINE
8
0
62
30
66
1
10
0
20
0
30
0
70
8
0
VERTEX
8
0
62
30
10
0.49497475
20
0.69438939
30
0
70
32
0
VERTEX
8
0
62
30
10
0.49497475
20
0.70586415
30
0
70
32
0
SEQEND
8
0
0
POLYLINE
8
0
62
5
66
1
10
0
20
0
30
0
70
8
0
VERTEX
8
0
62
5
10
0.35355339
20
0.69201289
30
0
70
32
0
VERTEX
8
0
62
5
10
0.35355339
20
0.70586415
30
0
70
32
0
SEQEND
8
0
0
POLYLINE
8
0
62
5
66
1
10
0
20
0
30
0
70
8
0
VERTEX
8
0
62
5
10
0.42426407
20
0.69201289
30
0
70
32
0
VERTEX
8
0
62
5
10
0.42426407
20
0.69438939
30
0
70
32
0
SEQEND
8
0
0
POLYLINE
8
0
62
5
66
1
10
0
20
0
30
0
70
8
0
VERTEX
8
0
62
5
10
0.49497475
20
0.69201289
30
0
70
32
0
VERTEX
8
0
62
5
10
0.49497475
20
0.69438939
30
0
70
32
0
SEQEND
8
0
0
POLYLINE
8
0
62
5
66
1
10
0
20
0
30
0
70
8
0
VERTEX
8
0
62
5
10
0.35355339
20
0.70586415
30
0
70
32
0
VERTEX
8
0
62
5
10
0.35355339
20
0.71971542
30
0
70
32
0
SEQEND
8
0
0
POLYLINE
8
0
62
5
66
1
10
0
20
0
30
0
70
8
0
VERTEX
8
0
62
5
10
0.42426407
20
0.70586415
30
0
70
32
0
VERTEX
8
0
62
5
10
0.42426407
20
0.71971542
30
0
70
32
0
SEQEND
8
0
0
POLYLINE
8
0
62
5
66
1
10
0
20
0
30
0
70
8
0
VERTEX
8
0
62
5
10
0.49497475
20
0.70586415
30
0
70
32
0
VERTEX
8
0
62
5
10
0.49497475
20
0.71971542
30
0
70
32
0
SEQEND
8
0
0
POLYLINE
8
0
62
30
66
1
10
0
20
0
30
0
70
8
0
VERTEX
8
0
62
30
10
0.28284271
20
0.70586415
30
0
70
32
0
VERTEX
8
0
62
30
10
0.28284271
20
0.70586415
30
0
70
32
0
VERTEX
8
0
62
30
10
0.28284271
20
0.70586415
30
0
70
32
0
SEQEND
8
0
0
POLYLINE
8
0
62
30
66
1
10
0
20
0
30
0
70
8
0
VERTEX
8
0
62
30
10
0.35355339
20
0.70586415
30
0
70
32
0
VERTEX
8
0
62
30
10
0.35355339
20
0.70586415
30
0
70
32
0
VERTEX
8
0
62
30
10
0.35355339
20
0.70586415
30
0
70
32
0
SEQEND
8
0
0
POLYLINE
8
0
62
30
66
1
10
0
20
0
30
0
70
8
0
VERTEX
8
0
62
30
10
0.42426407
20
0.69438939
30
0
70
32
0
VERTEX
8
0
62
30
10
0.43402684
20
0.70586415
30
0
70
32
0
VERTEX
8
0
62
30
10
0.42426407
20
0.71733892
30
0
70
32
0
SEQEND
8
0
0
POLYLINE
8
0
62
30
66
1
10
0
20
0
30
0
70
8
0
VERTEX
8
0
62
30
10
0.49497475
20
0.69438939
30
0
70
32
0
VERTEX
8
0
62
30
10
0.50473752
20
0.70586415
30
0
70
32
0
VERTEX
8
0
62
30
10
0.49497475
20
0.71733892
30
0
70
32
0
SEQEND
8
0
0
POLYLINE
8
0
62
5
66
1
10
0
20
0
30
0
70
8
0
VERTEX
8
0
62
5
10
-0.28284271
20
0.69201289
30
0
70
32
0
VERTEX
8
0
62
5
10
-0.28284271
20
0.71971542
30
0
70
32
0
SEQEND
8
0
0
POLYLINE
8
0
62
5
66
1
10
0
20
0
30
0
70
8
0
VERTEX
8
0
62
5
10
-0.28284271
20
0.70586415
30
0
70
32
0
VERTEX
8
0
62
5
10
-0.21213203
20
0.70586415
30
0
70
32
0
VERTEX
8
0
62
5
10
-0.14142136
20
0.69438939
30
0
70
32
0
VERTEX
8
0
62
5
10
-0.070710678
20
0.69438939
30
0
70
32
0
VERTEX
8
0
62
5
10
5.8104099e-10
20
0.70586415
30
0
70
32
0
SEQEND
8
0
0
POLYLINE
8
0
62
5
66
1
10
0
20
0
30
0
70
8
0
SEQEND
8
0
0
POLYLINE
8
0
62
5
66
1
10
0
20
0
30
0
70
8
0
VERTEX
8
0
62
5
10
-0.28284271
20
0.70586415
30
0
70
32
0
VERTEX
8
0
62
5
10
-0.21213203
20
0.70586415
30
0
70
32
0
VERTEX
8
0
62
5
10
-0.14142136
20
0.71733892
30
0
70
32
0
VERTEX
8
0
62
5
10
-0.070710678
20
0.71733892
30
0
70
32
0
VERTEX
8
0
62
5
10
5.8104099e-10
20
0.70586415
30
0
70
32
0
SEQEND
8
0
0
POLYLINE
8
0
62
30
66
1
10
0
20
0
30
0
70
8
0
VERTEX
8
0
62
30
10
-0.28284271
20
0.70586415
30
0
70
32
0
VERTEX
8
0
62
30
10
5.8104099e-10
20
0.70586415
30
0
70
32
0
SEQEND
8
0
0
POLYLINE
8
0
62
30
66
1
10
0
20
0
30
0
70
8
0
VERTEX
8
0
62
30
10
-0.21213203
20
0.70586415
30
0
70
32
0
VERTEX
8
0
62
30
10
-0.21213203
20
0.70586415
30
0
70
32
0
SEQEND
8
0
0
POLYLINE
8
0
62
30
66
1
10
0
20
0
30
0
70
8
0
VERTEX
8
0
62
30
10
-0.14142136
20
0.69438939
30
0
70
32
0
VERTEX
8
0
62
30
10
-0.14142136
20
0.70586415
30
0
70
32
0
SEQEND
8
0
0
POLYLINE
8
0
62
30
66
1
10
0
20
0
30
0
70
8
0
VERTEX
8
0
62
30
10
-0.070710678
20
0.69438939
30
0
70
32
0
VERTEX
8
0
62
30
10
-0.070710678
20
0.70586415
30
0
70
32
0
SEQEND
8
0
0
POLYLINE
8
0
62
5
66
1
10
0
20
0
30
0
70
8
0
VERTEX
8
0
62
5
10
-0.21213203
20
0.69201289
30
0
70
32
0
VERTEX
8
0
62
5
10
-0.21213203
20
0.70586415
30
0
70
32
0
SEQEND
8
0
0
POLYLINE
8
0
62
5
66
1
10
0
20
0
30
0
70
8
0
VERTEX
8
0
62
5
10
-0.14142136
20
0.69201289
30
0
70
32
0
VERTEX
8
0
62
5
10
-0.14142136
20
0.69438939
30
0
70
32
0
SEQEND
8
0
0
POLYLINE
8
0
62
5
66
1
10
0
20
0
30
0
70
8
0
VERTEX
8
0
62
5
10
-0.070710678
20
0.69201289
30
0
70
32
0
VERTEX
8
0
62
5
10
-0.070710678
20
0.69438939
30
0
70
32
0
SEQEND
8
0
0
POLYLINE
8
0
62
5
66
1
10
0
20
0
30
0
70
8
0
VERTEX
8
0
62
5
10
-0.21213203
20
0.70586415
30
0
70
32
0
VERTEX
8
0
62
5
10
-0.21213203
20
0.71971542
30
0
70
32
0
SEQEND
8
0
0
POLYLINE
8
0
62
5
66
1
10
0
20
0
30
0
70
8
0
VERTEX
8
0
62
5
10
-0.14142136
20
0.70586415
30
0
70
32
0
VERTEX
8
0
62
5
10
-0.14142136
20
0.71971542
30
0
70
32
0
SEQEND
8
0
0
POLYLINE
8
0
62
5
66
1
10
0
20
0
30
0
70
8
0
VERTEX
8
0
62
5
10
-0.070710678
20
0.70586415
30
0
70
32
0
VERTEX
8
0
62
5
10
-0.070710678
20
0.71971542
30
0
70
32
0
SEQEND
8
0
0
POLYLINE
8
0
62
30
66
1
10
0
20
0
30
0
70
8
0
VERTEX
8
0
62
30
10
-0.28284271
20
0.70586415
30
0
70
32
0
VERTEX
8
0
62
30
10
-0.28284271
20
0.70586415
30
0
70
32
0
VERTEX
8
0
62
30
10
-0.28284271
20
0.70586415
30
0
70
32
0
SEQEND
8
0
0
POLYLINE
8
0
62
30
66
1
10
0
20
0
30
0
70
8
0
VERTEX
8
0
62
30
10
-0.21213203
20
0.70586415
30
0
70
32
0
VERTEX
8
0
62
30
10
-0.21213203
20
0.70586415
30
0
70
32
0
VERTEX
8
0
62
30
10
-0.21213203
20
0.70586415
30
0
70
32
0
SEQEND
8
0
0
POLYLINE
8
0
62
30
66
1
10
0
20
0
30
0
70
8
0
VERTEX
8
0
62
30
10
-0.14142136
20
0.69438939
30
0
70
32
0
VERTEX
8
0
62
30
10
-0.13165858
20
0.70586415
30
0
70
32
0
VERTEX
8
0
62
30
10
-0.14142136
20
0.71733892
30
0
70
32
0
SEQEND
8
0
0
POLYLINE
8
0
62
30
66
1
10
0
20
0
30
0
70
8
0
VERTEX
8
0
62
30
10
-0.070710678
20
0.69438939
30
0
70
32
0
VERTEX
8
0
62
30
10
-0.060947905
20
0.70586415
30
0
70
32
0
VERTEX
8
0
62
30
10
-0.070710678
20
0.71733892
30
0
70
32
0
SEQEND
8
0
0
POLYLINE
8
0
62
5
66
1
10
0
20
0
30
0
70
8
0
VERTEX
8
0
62
5
10
5.8104097e-10
20
0.71971542
30
0
70
32
0
VERTEX
8
0
62
5
10
5.8104097e-10
20
0.72071542
30
0
70
32
0
SEQEND
8
0
0
POLYLINE
8
0
62
5
66
1
10
0
20
0
30
0
70
8
0
VERTEX
8
0
62
5
10
0.28284271
20
0.71971542
30
0
70
32
0
VERTEX
8
0
62
5
10
0.28284271
20
0.72071542
30
0
70
32
0
SEQEND
8
0
0
POLYLINE
8
0
62
5
66
1
10
0
20
0
30
0
70
8
0
VERTEX
8
0
62
5
10
0.070710679
20
0.71971542
30
0
70
32
0
VERTEX
8
0
62
5
10
0.070710679
20
0.72071542
30
0
70
32
0
SEQEND
8
0
0
POLYLINE
8
0
62
5
66
1
10
0
20
0
30
0
70
8
0
VERTEX
8
0
62
5
10
0.14142136
20
0.71971542
30
0
70
32
0
VERTEX
8
0
62
5
10
0.14142136
20
0.72071542
30
0
70
32
0
SEQEND
8
0
0
POLYLINE
8
0
62
5
66
1
10
0
20
0
30
0
70
8
0
VERTEX
8
0
62
5
10
0.21213203
20
0.71971542
30
0
70
32
0
VERTEX
8
0
62
5
10
0.21213203
20
0.72071542
30
0
70
32
0
SEQEND
8
0
0
POLYLINE
8
0
62
5
66
1
10
0
20
0
30
0
70
8
0
VERTEX
8
0
62
5
10
0.56568543
20
0.71971542
30
0
70
32
0
VERTEX
8
0
62
5
10
0.56568543
20
0.72071542
30
0
70
32
0
SEQEND
8
0
0
POLYLINE
8
0
62
5
66
1
10
0
20
0
30
0
70
8
0
VERTEX
8
0
62
5
10
0.35355339
20
0.71971542
30
0
70
32
0
VERTEX
8
0
62
5
10
0.35355339
20
0.72071542
30
0
70
32
0
SEQEND
8
0
0
POLYLINE
8
0
62
5
66
1
10
0
20
0
30
0
70
8
0
VERTEX
8
0
62
5
10
0.42426407
20
0.71971542
30
0
70
32
0
VERTEX
8
0
62
5
10
0.42426407
20
0.72071542
30
0
70
32
0
SEQEND
8
0
0
POLYLINE
8
0
62
5
66
1
10
0
20
0
30
0
70
8
0
VERTEX
8
0
62
5
10
0.49497475
20
0.71971542
30
0
70
32
0
VERTEX
8
0
62
5
10
0.49497475
20
0.72071542
30
0
70
32
0
SEQEND
8
0
0
POLYLINE
8
0
62
5
66
1
10
0
20
0
30
0
70
8
0
VERTEX
8
0
62
5
10
-0.28284271
20
0.71971542
30
0
70
32
0
VERTEX
8
0
62
5
10
-0.28284271
20
0.72071542
30
0
70
32
0
SEQEND
8
0
0
POLYLINE
8
0
62
5
66
1
10
0
20
0
30
0
70
8
0
VERTEX
8
0
62
5
10
-0.21213203
20
0.71971542
30
0
70
32
0
VERTEX
8
0
62
5
10
-0.21213203
20
0.72071542
30
0
70
32
0
SEQEND
8
0
0
POLYLINE
8
0
62
5
66
1
10
0
20
0
30
0
70
8
0
VERTEX
8
0
62
5
10
-0.14142136
20
0.71971542
30
0
70
32
0
VERTEX
8
0
62
5
10
-0.14142136
20
0.72071542
30
0
70
32
0
SEQEND
8
0
0
POLYLINE
8
0
62
5
66
1
10
0
20
0
30
0
70
8
0
VERTEX
8
0
62
5
10
-0.070710678
20
0.71971542
30
0
70
32
0
VERTEX
8
0
62
5
10
-0.070710678
20
0.72071542
30
0
70
32
0
SEQEND
8
0
0
POLYLINE
8
0
62
5
66
1
10
0
20
0
30
0
70
8
0
VERTEX
8
0
62
5
10
5.8104097e-10
20
0.72071542
30
0
70
32
0
VERTEX
8
0
62
5
10
5.8104097e-10
20
0.89142619
30
0
70
32
0
SEQEND
8
0
0
POLYLINE
8
0
62
5
66
1
10
0
20
0
30
0
70
8
0
VERTEX
8
0
62
5
10
0.28284271
20
0.89142619
30
0
70
32
0
VERTEX
8
0
62
5
10
0.28284271
20
0.72071542
30
0
70
32
0
SEQEND
8
0
0
POLYLINE
8
0
62
5
66
1
10
0
20
0
30
0
70
8
0
VERTEX
8
0
62
5
10
5.8104097e-10
20
0.8060707
30
0
70
32
0
VERTEX
8
0
62
5
10
0.070710679
20
0.8060708
30
0
70
32
0
VERTEX
8
0
62
5
10
0.14142136
20
0.73536013
30
0
70
32
0
VERTEX
8
0
62
5
10
0.21213203
20
0.73536003
30
0
70
32
0
VERTEX
8
0
62
5
10
0.28284271
20
0.8060707
30
0
70
32
0
SEQEND
8
0
0
POLYLINE
8
0
62
5
66
1
10
0
20
0
30
0
70
8
0
SEQEND
8
0
0
POLYLINE
8
0
62
5
66
1
10
0
20
0
30
0
70
8
0
VERTEX
8
0
62
5
10
5.8104097e-10
20
0.8060709
30
0
70
32
0
VERTEX
8
0
62
5
10
0.070710679
20
0.8060708
30
0
70
32
0
VERTEX
8
0
62
5
10
0.14142136
20
0.87678148
30
0
70
32
0
VERTEX
8
0
62
5
10
0.21213203
20
0.87678158
30
0
70
32
0
VERTEX
8
0
62
5
10
0.28284271
20
0.8060709
30
0
70
32
0
SEQEND
8
0
0
POLYLINE
8
0
62
30
66
1
10
0
20
0
30
0
70
8
0
VERTEX
8
0
62
30
10
5.8104097e-10
20
0.8060708
30
0
70
32
0
VERTEX
8
0
62
30
10
0.28284271
20
0.8060708
30
0
70
32
0
SEQEND
8
0
0
POLYLINE
8
0
62
30
66
1
10
0
20
0
30
0
70
8
0
VERTEX
8
0
62
30
10
0.070710679
20
0.8060708
30
0
70
32
0
VERTEX
8
0
62
30
10
0.070710679
20
0.8060708
30
0
70
32
0
SEQEND
8
0
0
POLYLINE
8
0
62
30
66
1
10
0
20
0
30
0
70
8
0
VERTEX
8
0
62
30
10
0.14142136
20
0.73536013
30
0
70
32
0
VERTEX
8
0
62
30
10
0.14142136
20
0.8060708
30
0
70
32
0
SEQEND
8
0
0
POLYLINE
8
0
62
30
66
1
10
0
20
0
30
0
70
8
0
VERTEX
8
0
62
30
10
0.21213203
20
0.73536003
30
0
70
32
0
VERTEX
8
0
62
30
10
0.21213203
20
0.8060708
30
0
70
32
0
SEQEND
8
0
0
POLYLINE
8
0
62
5
66
1
10
0
20
0
30
0
70
8
0
VERTEX
8
0
62
5
10
0.070710679
20
0.72071542
30
0
70
32
0
VERTEX
8
0
62
5
10
0.070710679
20
0.8060708
30
0
70
32
0
SEQEND
8
0
0
POLYLINE
8
0
62
5
66
1
10
0
20
0
30
0
70
8
0
VERTEX
8
0
62
5
10
0.14142136
20
0.72071542
30
0
70
32
0
VERTEX
8
0
62
5
10
0.14142136
20
0.73536013
30
0
70
32
0
SEQEND
8
0
0
POLYLINE
8
0
62
5
66
1
10
0
20
0
30
0
70
8
0
VERTEX
8
0
62
5
10
0.21213203
20
0.72071542
30
0
70
32
0
VERTEX
8
0
62
5
10
0.21213203
20
0.73536003
30
0
70
32
0
SEQEND
8
0
0
POLYLINE
8
0
62
5
66
1
10
0
20
0
30
0
70
8
0
VERTEX
8
0
62
5
10
0.070710679
20
0.8060708
30
0
70
32
0
VERTEX
8
0
62
5
10
0.070710679
20
0.89142619
30
0
70
32
0
SEQEND
8
0
0
POLYLINE
8
0
62
5
66
1
10
0
20
0
30
0
70
8
0
VERTEX
8
0
62
5
10
0.14142136
20
0.8060708
30
0
70
32
0
VERTEX
8
0
62
5
10
0.14142136
20
0.89142619
30
0
70
32
0
SEQEND
8
0
0
POLYLINE
8
0
62
5
66
1
10
0
20
0
30
0
70
8
0
VERTEX
8
0
62
5
10
0.21213203
20
0.8060708
30
0
70
32
0
VERTEX
8
0
62
5
10
0.21213203
20
0.89142619
30
0
70
32
0
SEQEND
8
0
0
POLYLINE
8
0
62
30
66
1
10
0
20
0
30
0
70
8
0
VERTEX
8
0
62
30
10
5.8104097e-10
20
0.8060707
30
0
70
32
0
VERTEX
8
0
62
30
10
2.4097055e-07
20
0.8060708
30
0
70
32
0
VERTEX
8
0
62
30
10
5.8104097e-10
20
0.8060709
30
0
70
32
0
SEQEND
8
0
0
POLYLINE
8
0
62
30
66
1
10
0
20
0
30
0
70
8
0
VERTEX
8
0
62
30
10
0.070710679
20
0.8060708
30
0
70
32
0
VERTEX
8
0
62
30
10
0.070710679
20
0.8060708
30
0
70
32
0
VERTEX
8
0
62
30
10
0.070710679
20
0.8060708
30
0
70
32
0
SEQEND
8
0
0
POLYLINE
8
0
62
30
66
1
10
0
20
0
30
0
70
8
0
VERTEX
8
0
62
30
10
0.14142136
20
0.73536013
30
0
70
32
0
VERTEX
8
0
62
30
10
0.1707107
20
0.8060708
30
0
70
32
0
VERTEX
8
0
62
30
10
0.14142136
20
0.87678148
30
0
70
32
0
SEQEND
8
0
0
POLYLINE
8
0
62
30
66
1
10
0
20
0
30
0
70
8
0
VERTEX
8
0
62
30
10
0.21213203
20
0.73536003
30
0
70
32
0
VERTEX
8
0
62
30
10
0.24142138
20
0.8060708
30
0
70
32
0
VERTEX
8
0
62
30
10
0.21213203
20
0.87678158
30
0
70
32
0
SEQEND
8
0
0
POLYLINE
8
0
62
5
66
1
10
0
20
0
30
0
70
8
0
VERTEX
8
0
62
5
10
0.56568543
20
0.89142619
30
0
70
32
0
VERTEX
8
0
62
5
10
0.56568543
20
0.72071542
30
0
70
32
0
SEQEND
8
0
0
POLYLINE
8
0
62
5
66
1
10
0
20
0
30
0
70
8
0
VERTEX
8
0
62
5
10
0.28284271
20
0.8060707
30
0
70
32
0
VERTEX
8
0
62
5
10
0.35355339
20
0.8060708
30
0
70
32
0
VERTEX
8
0
62
5
10
0.42426407
20
0.73536013
30
0
70
32
0
VERTEX
8
0
62
5
10
0.49497475
20
0.73536003
30
0
70
32
0
VERTEX
8
0
62
5
10
0.56568543
20
0.8060707
30
0
70
32
0
SEQEND
8
0
0
POLYLINE
8
0
62
5
66
1
10
0
20
0
30
0
70
8
0
SEQEND
8
0
0
POLYLINE
8
0
62
5
66
1
10
0
20
0
30
0
70
8
0
VERTEX
8
0
62
5
10
0.28284271
20
0.8060709
30
0
70
32
0
VERTEX
8
0
62
5
10
0.35355339
20
0.8060708
30
0
70
32
0
VERTEX
8
0
62
5
10
0.42426407
20
0.87678148
30
0
70
32
0
VERTEX
8
0
62
5
10
0.49497475
20
0.87678158
30
0
70
32
0
VERTEX
8
0
62
5
10
0.56568543
20
0.8060709
30
0
70
32
0
SEQEND
8
0
0
POLYLINE
8
0
62
30
66
1
10
0
20
0
30
0
70
8
0
VERTEX
8
0
62
30
10
0.28284271
20
0.8060708
30
0
70
32
0
VERTEX
8
0
62
30
10
0.56568543
20
0.8060708
30
0
70
32
0
SEQEND
8
0
0
POLYLINE
8
0
62
30
66
1
10
0
20
0
30
0
70
8
0
VERTEX
8
0
62
30
10
0.35355339
20
0.8060708
30
0
70
32
0
VERTEX
8
0
62
30
10
0.35355339
20
0.8060708
30
0
70
32
0
SEQEND
8
0
0
POLYLINE
8
0
62
30
66
1
10
0
20
0
30
0
70
8
0
VERTEX
8
0
62
30
10
0.42426407
20
0.73536013
30
0
70
32
0
VERTEX
8
0
62
30
10
0.42426407
20
0.8060708
30
0
70
32
0
SEQEND
8
0
0
POLYLINE
8
0
62
30
66
1
10
0
20
0
30
0
70
8
0
VERTEX
8
0
62
30
10
0.49497475
20
0.73536003
30
0
70
32
0
VERTEX
8
0
62
30
10
0.49497475
20
0.8060708
30
0
70
32
0
SEQEND
8
0
0
POLYLINE
8
0
62
5
66
1
10
0
20
0
30
0
70
8
0
VERTEX
8
0
62
5
10
0.35355339
20
0.72071542
30
0
70
32
0
VERTEX
8
0
62
5
10
0.35355339
20
0.8060708
30
0
70
32
0
SEQEND
8
0
0
POLYLINE
8
0
62
5
66
1
10
0
20
0
30
0
70
8
0
VERTEX
8
0
62
5
10
0.42426407
20
0.72071542
30
0
70
32
0
VERTEX
8
0
62
5
10
0.42426407
20
0.73536013
30
0
70
32
0
SEQEND
8
0
0
POLYLINE
8
0
62
5
66
1
10
0
20
0
30
0
70
8
0
VERTEX
8
0
62
5
10
0.49497475
20
0.72071542
30
0
70
32
0
VERTEX
8
0
62
5
10
0.49497475
20
0.73536003
30
0
70
32
0
SEQEND
8
0
0
POLYLINE
8
0
62
5
66
1
10
0
20
0
30
0
70
8
0
VERTEX
8
0
62
5
10
0.35355339
20
0.8060708
30
0
70
32
0
VERTEX
8
0
62
5
10
0.35355339
20
0.89142619
30
0
70
32
0
SEQEND
8
0
0
POLYLINE
8
0
62
5
66
1
10
0
20
0
30
0
70
8
0
VERTEX
8
0
62
5
10
0.42426407
20
0.8060708
30
0
70
32
0
VERTEX
8
0
62
5
10
0.42426407
20
0.89142619
30
0
70
32
0
SEQEND
8
0
0
POLYLINE
8
0
62
5
66
1
10
0
20
0
30
0
70
8
0
VERTEX
8
0
62
5
10
0.49497475
20
0.8060708
30
0
70
32
0
VERTEX
8
0
62
5
10
0.49497475
20
0.89142619
30
0
70
32
0
SEQEND
8
0
0
POLYLINE
8
0
62
30
66
1
10
0
20
0
30
0
70
8
0
VERTEX
8
0
62
30
10
0.28284271
20
0.8060707
30
0
70
32
0
VERTEX
8
0
62
30
10
0.28284295
20
0.8060708
30
0
70
32
0
VERTEX
8
0
62
30
10
0.28284271
20
0.8060709
30
0
70
32
0
SEQEND
8
0
0
POLYLINE
8
0
62
30
66
1
10
0
20
0
30
0
70
8
0
VERTEX
8
0
62
30
10
0.35355339
20
0.8060708
30
0
70
32
0
VERTEX
8
0
62
30
10
0.35355339
20
0.8060708
30
0
70
32
0
VERTEX
8
0
62
30
10
0.35355339
20
0.8060708
30
0
70
32
0
SEQEND
8
0
0
POLYLINE
8
0
62
30
66
1
10
0
20
0
30
0
70
8
0
VERTEX
8
0
62
30
10
0.42426407
20
0.73536013
30
0
70
32
0
VERTEX
8
0
62
30
10
0.45355341
20
0.8060708
30
0
70
32
0
VERTEX
8
0
62
30
10
0.42426407
20
0.87678148
30
0
70
32
0
SEQEND
8
0
0
POLYLINE
8
0
62
30
66
1
10
0
20
0
30
0
70
8
0
VERTEX
8
0
62
30
10
0.49497475
20
0.73536003
30
0
70
32
0
VERTEX
8
0
62
30
10
0.52426409
20
0.8060708
30
0
70
32
0
VERTEX
8
0
62
30
10
0.49497475
20
0.87678158
30
0
70
32
0
SEQEND
8
0
0
POLYLINE
8
0
62
5
66
1
10
0
20
0
30
0
70
8
0
VERTEX
8
0
62
5
10
-0.28284271
20
0.72071542
30
0
70
32
0
VERTEX
8
0
62
5
10
-0.28284271
20
0.89142619
30
0
70
32
0
SEQEND
8
0
0
POLYLINE
8
0
62
5
66
1
10
0
20
0
30
0
70
8
0
VERTEX
8
0
62
5
10
-0.28284271
20
0.8060707
30
0
70
32
0
VERTEX
8
0
62
5
10
-0.21213203
20
0.8060708
30
0
70
32
0
VERTEX
8
0
62
5
10
-0.14142136
20
0.73536013
30
0
70
32
0
VERTEX
8
0
62
5
10
-0.070710678
20
0.73536003
30
0
70
32
0
VERTEX
8
0
62
5
10
5.8104099e-10
20
0.8060707
30
0
70
32
0
SEQEND
8
0
0
POLYLINE
8
0
62
5
66
1
10
0
20
0
30
0
70
8
0
SEQEND
8
0
0
POLYLINE
8
0
62
5
66
1
10
0
20
0
30
0
70
8
0
VERTEX
8
0
62
5
10
-0.28284271
20
0.8060709
30
0
70
32
0
VERTEX
8
0
62
5
10
-0.21213203
20
0.8060708
30
0
70
32
0
VERTEX
8
0
62
5
10
-0.14142136
20
0.87678148
30
0
70
32
0
VERTEX
8
0
62
5
10
-0.070710678
20
0.87678158
30
0
70
32
0
VERTEX
8
0
62
5
10
5.8104099e-10
20
0.8060709
30
0
70
32
0
SEQEND
8
0
0
POLYLINE
8
0
62
30
66
1
10
0
20
0
30
0
70
8
0
VERTEX
8
0
62
30
10
-0.28284271
20
0.8060708
30
0
70
32
0
VERTEX
8
0
62
30
10
5.8104099e-10
20
0.8060708
30
0
70
32
0
SEQEND
8
0
0
POLYLINE
8
0
62
30
66
1
10
0
20
0
30
0
70
8
0
VERTEX
8
0
62
30
10
-0.21213203
20
0.8060708
30
0
70
32
0
VERTEX
8
0
62
30
10
-0.21213203
20
0.8060708
30
0
70
32
0
SEQEND
8
0
0
POLYLINE
8
0
62
30
66
1
10
0
20
0
30
0
70
8
0
VERTEX
8
0
62
30
10
-0.14142136
20
0.73536013
30
0
70
32
0
VERTEX
8
0
62
30
10
-0.14142136
20
0.8060708
30
0
70
32
0
SEQEND
8
0
0
POLYLINE
8
0
62
30
66
1
10
0
20
0
30
0
70
8
0
VERTEX
8
0
62
30
10
-0.070710678
20
0.73536003
30
0
70
32
0
VERTEX
8
0
62
30
10
-0.070710678
20
0.8060708
30
0
70
32
0
SEQEND
8
0
0
POLYLINE
8
0
62
5
66
1
10
0
20
0
30
0
70
8
0
VERTEX
8
0
62
5
10
-0.21213203
20
0.72071542
30
0
70
32
0
VERTEX
8
0
62
5
10
-0.21213203
20
0.8060708
30
0
70
32
0
SEQEND
8
0
0
POLYLINE
8
0
62
5
66
1
10
0
20
0
30
0
70
8
0
VERTEX
8
0
62
5
10
-0.14142136
20
0.72071542
30
0
70
32
0
VERTEX
8
0
62
5
10
-0.14142136
20
0.73536013
30
0
70
32
0
SEQEND
8
0
0
POLYLINE
8
0
62
5
66
1
10
0
20
0
30
0
70
8
0
VERTEX
8
0
62
5
10
-0.070710678
20
0.72071542
30
0
70
32
0
VERTEX
8
0
62
5
10
-0.070710678
20
0.73536003
30
0
70
32
0
SEQEND
8
0
0
POLYLINE
8
0
62
5
66
1
10
0
20
0
30
0
70
8
0
VERTEX
8
0
62
5
10
-0.21213203
20
0.8060708
30
0
70
32
0
VERTEX
8
0
62
5
10
-0.21213203
20
0.89142619
30
0
70
32
0
SEQEND
8
0
0
POLYLINE
8
0
62
5
66
1
10
0
20
0
30
0
70
8
0
VERTEX
8
0
62
5
10
-0.14142136
20
0.8060708
30
0
70
32
0
VERTEX
8
0
62
5
10
-0.14142136
20
0.89142619
30
0
70
32
0
SEQEND
8
0
0
POLYLINE
8
0
62
5
66
1
10
0
20
0
30
0
70
8
0
VERTEX
8
0
62
5
10
-0.070710678
20
0.8060708
30
0
70
32
0
VERTEX
8
0
62
5
10
-0.070710678
20
0.89142619
30
0
70
32
0
SEQEND
8
0
0
POLYLINE
8
0
62
30
66
1
10
0
20
0
30
0
70
8
0
VERTEX
8
0
62
30
10
-0.28284271
20
0.8060707
30
0
70
32
0
VERTEX
8
0
62
30
10
-0.28284247
20
0.8060708
30
0
70
32
0
VERTEX
8
0
62
30
10
-0.28284271
20
0.8060709
30
0
70
32
0
SEQEND
8
0
0
POLYLINE
8
0
62
30
66
1
10
0
20
0
30
0
70
8
0
VERTEX
8
0
62
30
10
-0.21213203
20
0.8060708
30
0
70
32
0
VERTEX
8
0
62
30
10
-0.21213203
20
0.8060708
30
0
70
32
0
VERTEX
8
0
62
30
10
-0.21213203
20
0.8060708
30
0
70
32
0
SEQEND
8
0
0
POLYLINE
8
0
62
30
66
1
10
0
20
0
30
0
70
8
0
VERTEX
8
0
62
30
10
-0.14142136
20
0.73536013
30
0
70
32
0
VERTEX
8
0
62
30
10
-0.11213202
20
0.8060708
30
0
70
32
0
VERTEX
8
0
62
30
10
-0.14142136
20
0.87678148
30
0
70
32
0
SEQEND
8
0
0
POLYLINE
8
0
62
30
66
1
10
0
20
0
30
0
70
8
0
VERTEX
8
0
62
30
10
-0.070710678
20
0.73536003
30
0
70
32
0
VERTEX
8
0
62
30
10
-0.041421332
20
0.8060708
30
0
70
32
0
VERTEX
8
0
62
30
10
-0.070710678
20
0.87678158
30
0
70
32
0
SEQEND
8
0
0
POLYLINE
8
0
62
5
66
1
10
0
20
0
30
0
70
8
0
VERTEX
8
0
62
5
10
5.8104097e-10
20
0.89142619
30
0
70
32
0
VERTEX
8
0
62
5
10
5.8104097e-10
20
0.89142632
30
0
70
32
0
SEQEND
8
0
0
POLYLINE
8
0
62
5
66
1
10
0
20
0
30
0
70
8
0
VERTEX
8
0
62
5
10
0.070710679
20
0.89142619
30
0
70
32
0
VERTEX
8
0
62
5
10
0.070710679
20
0.89142632
30
0
70
32
0
SEQEND
8
0
0
POLYLINE
8
0
62
5
66
1
10
0
20
0
30
0
70
8
0
VERTEX
8
0
62
5
10
0.14142136
20
0.89142619
30
0
70
32
0
VERTEX
8
0
62
5
10
0.14142136
20
0.89142632
30
0
70
32
0
SEQEND
8
0
0
POLYLINE
8
0
62
5
66
1
10
0
20
0
30
0
70
8
0
VERTEX
8
0
62
5
10
0.21213203
20
0.89142619
30
0
70
32
0
VERTEX
8
0
62
5
10
0.21213203
20
0.89142632
30
0
70
32
0
SEQEND
8
0
0
POLYLINE
8
0
62
5
66
1
10
0
20
0
30
0
70
8
0
VERTEX
8
0
62
5
10
0.28284271
20
0.89142619
30
0
70
32
0
VERTEX
8
0
62
5
10
0.28284271
20
0.89142632
30
0
70
32
0
SEQEND
8
0
0
POLYLINE
8
0
62
5
66
1
10
0
20
0
30
0
70
8
0
VERTEX
8
0
62
5
10
0.070710679
20
0.89142619
30
0
70
32
0
VERTEX
8
0
62
5
10
0.070710679
20
0.89142619
30
0
70
32
0
SEQEND
8
0
0
POLYLINE
8
0
62
5
66
1
10
0
20
0
30
0
70
8
0
VERTEX
8
0
62
5
10
0.14142136
20
0.89142619
30
0
70
32
0
VERTEX
8
0
62
5
10
0.14142136
20
0.89142619
30
0
70
32
0
SEQEND
8
0
0
POLYLINE
8
0
62
5
66
1
10
0
20
0
30
0
70
8
0
VERTEX
8
0
62
5
10
0.21213203
20
0.89142619
30
0
70
32
0
VERTEX
8
0
62
5
10
0.21213203
20
0.89142619
30
0
70
32
0
SEQEND
8
0
0
POLYLINE
8
0
62
5
66
1
10
0
20
0
30
0
70
8
0
VERTEX
8
0
62
5
10
1.0015412e-07
20
0.89142632
30
0
70
32
0
VERTEX
8
0
62
5
10
1.0015412e-07
20
0.89142632
30
0
70
32
0
SEQEND
8
0
0
POLYLINE
8
0
62
5
66
1
10
0
20
0
30
0
70
8
0
VERTEX
8
0
62
5
10
0.070710778
20
0.89142632
30
0
70
32
0
VERTEX
8
0
62
5
10
0.070710778
20
0.89142632
30
0
70
32
0
SEQEND
8
0
0
POLYLINE
8
0
62
5
66
1
10
0
20
0
30
0
70
8
0
VERTEX
8
0
62
5
10
0.14142146
20
0.89142632
30
0
70
32
0
VERTEX
8
0
62
5
10
0.14142146
20
0.89142632
30
0
70
32
0
SEQEND
8
0
0
POLYLINE
8
0
62
5
66
1
10
0
20
0
30
0
70
8
0
VERTEX
8
0
62
5
10
0.21213213
20
0.89142632
30
0
70
32
0
VERTEX
8
0
62
5
10
0.21213213
20
0.89142632
30
0
70
32
0
SEQEND
8
0
0
POLYLINE
8
0
62
5
66
1
10
0
20
0
30
0
70
8
0
VERTEX
8
0
62
5
10
0.35355339
20
0.89142619
30
0
70
32
0
VERTEX
8
0
62
5
10
0.35355339
20
0.89142632
30
0
70
32
0
SEQEND
8
0
0
POLYLINE
8
0
62
5
66
1
10
0
20
0
30
0
70
8
0
VERTEX
8
0
62
5
10
0.42426407
20
0.89142619
30
0
70
32
0
VERTEX
8
0
62
5
10
0.42426407
20
0.89142632
30
0
70
32
0
SEQEND
8
0
0
POLYLINE
8
0
62
5
66
1
10
0
20
0
30
0
70
8
0
VERTEX
8
0
62
5
10
0.49497475
20
0.89142619
30
0
70
32
0
VERTEX
8
0
62
5
10
0.49497475
20
0.89142632
30
0
70
32
0
SEQEND
8
0
0
POLYLINE
8
0
62
5
66
1
10
0
20
0
30
0
70
8
0
VERTEX
8
0
62
5
10
0.56568543
20
0.89142619
30
0
70
32
0
VERTEX
8
0
62
5
10
0.56568543
20
0.89142632
30
0
70
32
0
SEQEND
8
0
0
POLYLINE
8
0
62
5
66
1
10
0
20
0
30
0
70
8
0
VERTEX
8
0
62
5
10
0.35355339
20
0.89142619
30
0
70
32
0
VERTEX
8
0
62
5
10
0.35355339
20
0.89142619
30
0
70
32
0
SEQEND
8
0
0
POLYLINE
8
0
62
5
66
1
10
0
20
0
30
0
70
8
0
VERTEX
8
0
62
5
10
0.42426407
20
0.89142619
30
0
70
32
0
VERTEX
8
0
62
5
10
0.42426407
20
0.89142619
30
0
70
32
0
SEQEND
8
0
0
POLYLINE
8
0
62
5
66
1
10
0
20
0
30
0
70
8
0
VERTEX
8
0
62
5
10
0.49497475
20
0.89142619
30
0
70
32
0
VERTEX
8
0
62
5
10
0.49497475
20
0.89142619
30
0
70
32
0
SEQEND
8
0
0
POLYLINE
8
0
62
5
66
1
10
0
20
0
30
0
70
8
0
VERTEX
8
0
62
5
10
0.28284281
20
0.89142632
30
0
70
32
0
VERTEX
8
0
62
5
10
0.28284281
20
0.89142632
30
0
70
32
0
SEQEND
8
0
0
POLYLINE
8
0
62
5
66
1
10
0
20
0
30
0
70
8
0
VERTEX
8
0
62
5
10
0.35355349
20
0.89142632
30
0
70
32
0
VERTEX
8
0
62
5
10
0.35355349
20
0.89142632
30
0
70
32
0
SEQEND
8
0
0
POLYLINE
8
0
62
5
66
1
10
0
20
0
30
0
70
8
0
VERTEX
8
0
62
5
10
0.42426417
20
0.89142632
30
0
70
32
0
VERTEX
8
0
62
5
10
0.42426417
20
0.89142632
30
0
70
32
0
SEQEND
8
0
0
POLYLINE
8
0
62
5
66
1
10
0
20
0
30
0
70
8
0
VERTEX
8
0
62
5
10
0.49497485
20
0.89142632
30
0
70
32
0
VERTEX
8
0
62
5
10
0.49497485
20
0.89142632
30
0
70
32
0
SEQEND
8
0
0
POLYLINE
8
0
62
5
66
1
10
0
20
0
30
0
70
8
0
VERTEX
8
0
62
5
10
-0.21213203
20
0.89142619
30
0
70
32
0
VERTEX
8
0
62
5
10
-0.21213203
20
0.89142632
30
0
70
32
0
SEQEND
8
0
0
POLYLINE
8
0
62
5
66
1
10
0
20
0
30
0
70
8
0
VERTEX
8
0
62
5
10
-0.14142136
20
0.89142619
30
0
70
32
0
VERTEX
8
0
62
5
10
-0.14142136
20
0.89142632
30
0
70
32
0
SEQEND
8
0
0
POLYLINE
8
0
62
5
66
1
10
0
20
0
30
0
70
8
0
VERTEX
8
0
62
5
10
-0.070710678
20
0.89142619
30
0
70
32
0
VERTEX
8
0
62
5
10
-0.070710678
20
0.89142632
30
0
70
32
0
SEQEND
8
0
0
POLYLINE
8
0
62
5
66
1
10
0
20
0
30
0
70
8
0
VERTEX
8
0
62
5
10
5.8104099e-10
20
0.89142619
30
0
70
32
0
VERTEX
8
0
62
5
10
5.8104099e-10
20
0.89142632
30
0
70
32
0
SEQEND
8
0
0
POLYLINE
8
0
62
5
66
1
10
0
20
0
30
0
70
8
0
VERTEX
8
0
62
5
10
-0.21213203
20
0.89142619
30
0
70
32
0
VERTEX
8
0
62
5
10
-0.21213203
20
0.89142619
30
0
70
32
0
SEQEND
8
0
0
POLYLINE
8
0
62
5
66
1
10
0
20
0
30
0
70
8
0
VERTEX
8
0
62
5
10
-0.14142136
20
0.89142619
30
0
70
32
0
VERTEX
8
0
62
5
10
-0.14142136
20
0.89142619
30
0
70
32
0
SEQEND
8
0
0
POLYLINE
8
0
62
5
66
1
10
0
20
0
30
0
70
8
0
VERTEX
8
0
62
5
10
-0.070710678
20
0.89142619
30
0
70
32
0
VERTEX
8
0
62
5
10
-0.070710678
20
0.89142619
30
0
70
32
0
SEQEND
8
0
0
POLYLINE
8
0
62
5
66
1
10
0
20
0
30
0
70
8
0
VERTEX
8
0
62
5
10
-0.28284261
20
0.89142632
30
0
70
32
0
VERTEX
8
0
62
5
10
-0.28284261
20
0.89142632
30
0
70
32
0
SEQEND
8
0
0
POLYLINE
8
0
62
5
66
1
10
0
20
0
30
0
70
8
0
VERTEX
8
0
62
5
10
-0.21213193
20
0.89142632
30
0
70
32
0
VERTEX
8
0
62
5
10
-0.21213193
20
0.89142632
30
0
70
32
0
SEQEND
8
0
0
POLYLINE
8
0
62
5
66
1
10
0
20
0
30
0
70
8
0
VERTEX
8
0
62
5
10
-0.14142126
20
0.89142632
30
0
70
32
0
VERTEX
8
0
62
5
10
-0.14142126
20
0.89142632
30
0
70
32
0
SEQEND
8
0
0
POLYLINE
8
0
62
5
66
1
10
0
20
0
30
0
70
8
0
VERTEX
8
0
62
5
10
-0.070710578
20
0.89142632
30
0
70
32
0
VERTEX
8
0
62
5
10
-0.070710578
20
0.89142632
30
0
70
32
0
SEQEND
8
0
0
POLYLINE
8
0
62
5
66
1
10
0
20
0
30
0
70
8
0
VERTEX
8
0
62
5
10
1.0015412e-07
20
0.89142632
30
0
70
32
0
VERTEX
8
0
62
5
10
1.0015412e-07
20
0.89142665
30
0
70
32
0
SEQEND
8
0
0
POLYLINE
8
0
62
5
66
1
10
0
20
0
30
0
70
8
0
VERTEX
8
0
62
5
10
0.28284281
20
0.89142632
30
0
70
32
0
VERTEX
8
0
62
5
10
0.28284281
20
0.89142665
30
0
70
32
0
SEQEND
8
0
0
POLYLINE
8
0
62
5
66
1
10
0
20
0
30
0
70
8
0
VERTEX
8
0
62
5
10
0.070710778
20
0.89142632
30
0
70
32
0
VERTEX
8
0
62
5
10
0.070710778
20
0.89142665
30
0
70
32
0
SEQEND
8
0
0
POLYLINE
8
0
62
5
66
1
10
0
20
0
30
0
70
8
0
VERTEX
8
0
62
5
10
0.14142146
20
0.89142632
30
0
70
32
0
VERTEX
8
0
62
5
10
0.14142146
20
0.89142665
30
0
70
32
0
SEQEND
8
0
0
POLYLINE
8
0
62
5
66
1
10
0
20
0
30
0
70
8
0
VERTEX
8
0
62
5
10
0.21213213
20
0.89142632
30
0
70
32
0
VERTEX
8
0
62
5
10
0.21213213
20
0.89142665
30
0
70
32
0
SEQEND
8
0
0
POLYLINE
8
0
62
5
66
1
10
0
20
0
30
0
70
8
0
VERTEX
8
0
62
5
10
0.56568553
20
0.89142632
30
0
70
32
0
VERTEX
8
0
62
5
10
0.56568553
20
0.89142665
30
0
70
32
0
SEQEND
8
0
0
POLYLINE
8
0
62
5
66
1
10
0
20
0
30
0
70
8
0
VERTEX
8
0
62
5
10
0.35355349
20
0.89142632
30
0
70
32
0
VERTEX
8
0
62
5
10
0.35355349
20
0.89142665
30
0
70
32
0
SEQEND
8
0
0
POLYLINE
8
0
62
5
66
1
10
0
20
0
30
0
70
8
0
VERTEX
8
0
62
5
10
0.42426417
20
0.89142632
30
0
70
32
0
VERTEX
8
0
62
5
10
0.42426417
20
0.89142665
30
0
70
32
0
SEQEND
8
0
0
POLYLINE
8
0
62
5
66
1
10
0
20
0
30
0
70
8
0
VERTEX
8
0
62
5
10
0.49497485
20
0.89142632
30
0
70
32
0
VERTEX
8
0
62
5
10
0.49497485
20
0.89142665
30
0
70
32
0
SEQEND
8
0
0
POLYLINE
8
0
62
5
66
1
10
0
20
0
30
0
70
8
0
VERTEX
8
0
62
5
10
-0.28284261
20
0.89142632
30
0
70
32
0
VERTEX
8
0
62
5
10
-0.28284261
20
0.89142665
30
0
70
32
0
SEQEND
8
0
0
POLYLINE
8
0
62
5
66
1
10
0
20
0
30
0
70
8
0
VERTEX
8
0
62
5
10
-0.21213193
20
0.89142632
30
0
70
32
0
VERTEX
8
0
62
5
10
-0.21213193
20
0.89142665
30
0
70
32
0
SEQEND
8
0
0
POLYLINE
8
0
62
5
66
1
10
0
20
0
30
0
70
8
0
VERTEX
8
0
62
5
10
-0.14142126
20
0.89142632
30
0
70
32
0
VERTEX
8
0
62
5
10
-0.14142126
20
0.89142665
30
0
70
32
0
SEQEND
8
0
0
POLYLINE
8
0
62
5
66
1
10
0
20
0
30
0
70
8
0
VERTEX
8
0
62
5
10
-0.070710578
20
0.89142632
30
0
70
32
0
VERTEX
8
0
62
5
10
-0.070710578
20
0.89142665
30
0
70
32
0
SEQEND
8
0
0
POLYLINE
8
0
62
5
66
1
10
0
20
0
30
0
70
8
0
VERTEX
8
0
62
5
10
1.0015412e-07
20
0.89142665
30
0
70
32
0
VERTEX
8
0
62
5
10
1.0015412e-07
20
1.0328481
30
0
70
32
0
SEQEND
8
0
0
POLYLINE
8
0
62
5
66
1
10
0
20
0
30
0
70
8
0
VERTEX
8
0
62
5
10
0.28284281
20
1.0328481
30
0
70
32
0
VERTEX
8
0
62
5
10
0.28284281
20
0.89142665
30
0
70
32
0
SEQEND
8
0
0
POLYLINE
8
0
62
5
66
1
10
0
20
0
30
0
70
8
0
VERTEX
8
0
62
5
10
1.0015412e-07
20
0.92678201
30
0
70
32
0
VERTEX
8
0
62
5
10
0.070710778
20
0.92678197
30
0
70
32
0
VERTEX
8
0
62
5
10
0.14142146
20
0.89749265
30
0
70
32
0
VERTEX
8
0
62
5
10
0.21213213
20
0.89749269
30
0
70
32
0
VERTEX
8
0
62
5
10
0.28284281
20
0.92678201
30
0
70
32
0
SEQEND
8
0
0
POLYLINE
8
0
62
5
66
1
10
0
20
0
30
0
70
8
0
VERTEX
8
0
62
5
10
1.0015412e-07
20
0.99749273
30
0
70
32
0
VERTEX
8
0
62
5
10
0.070710778
20
0.99749269
30
0
70
32
0
VERTEX
8
0
62
5
10
0.14142146
20
0.96820337
30
0
70
32
0
VERTEX
8
0
62
5
10
0.21213213
20
0.96820341
30
0
70
32
0
VERTEX
8
0
62
5
10
0.28284281
20
0.99749273
30
0
70
32
0
SEQEND
8
0
0
POLYLINE
8
0
62
5
66
1
10
0
20
0
30
0
70
8
0
VERTEX
8
0
62
5
10
1.0015412e-07
20
0.92678201
30
0
70
32
0
VERTEX
8
0
62
5
10
0.070710778
20
0.92678205
30
0
70
32
0
VERTEX
8
0
62
5
10
0.14142146
20
0.95607137
30
0
70
32
0
VERTEX
8
0
62
5
10
0.21213213
20
0.95607133
30
0
70
32
0
VERTEX
8
0
62
5
10
0.28284281
20
0.92678201
30
0
70
32
0
SEQEND
8
0
0
POLYLINE
8
0
62
5
66
1
10
0
20
0
30
0
70
8
0
VERTEX
8
0
62
5
10
1.0015412e-07
20
0.99749273
30
0
70
32
0
VERTEX
8
0
62
5
10
0.070710778
20
0.99749277
30
0
70
32
0
VERTEX
8
0
62
5
10
0.14142146
20
1.0267821
30
0
70
32
0
VERTEX
8
0
62
5
10
0.21213213
20
1.0267821
30
0
70
32
0
VERTEX
8
0
62
5
10
0.28284281
20
0.99749273
30
0
70
32
0
SEQEND
8
0
0
POLYLINE
8
0
62
30
66
1
10
0
20
0
30
0
70
8
0
VERTEX
8
0
62
30
10
1.0015412e-07
20
0.92678201
30
0
70
32
0
VERTEX
8
0
62
30
10
0.28284281
20
0.92678201
30
0
70
32
0
SEQEND
8
0
0
POLYLINE
8
0
62
30
66
1
10
0
20
0
30
0
70
8
0
VERTEX
8
0
62
30
10
1.0015412e-07
20
0.99749273
30
0
70
32
0
VERTEX
8
0
62
30
10
0.28284281
20
0.99749273
30
0
70
32
0
SEQEND
8
0
0
POLYLINE
8
0
62
30
66
1
10
0
20
0
30
0
70
8
0
VERTEX
8
0
62
30
10
0.070710778
20
0.92678197
30
0
70
32
0
VERTEX
8
0
62
30
10
0.070710778
20
0.92678201
30
0
70
32
0
SEQEND
8
0
0
POLYLINE
8
0
62
30
66
1
10
0
20
0
30
0
70
8
0
VERTEX
8
0
62
30
10
0.14142146
20
0.89749265
30
0
70
32
0
VERTEX
8
0
62
30
10
0.14142146
20
0.92678201
30
0
70
32
0
SEQEND
8
0
0
POLYLINE
8
0
62
30
66
1
10
0
20
0
30
0
70
8
0
VERTEX
8
0
62
30
10
0.21213213
20
0.89749269
30
0
70
32
0
VERTEX
8
0
62
30
10
0.21213213
20
0.92678201
30
0
70
32
0
SEQEND
8
0
0
POLYLINE
8
0
62
30
66
1
10
0
20
0
30
0
70
8
0
VERTEX
8
0
62
30
10
0.070710778
20
0.99749269
30
0
70
32
0
VERTEX
8
0
62
30
10
0.070710778
20
0.99749273
30
0
70
32
0
SEQEND
8
0
0
POLYLINE
8
0
62
30
66
1
10
0
20
0
30
0
70
8
0
VERTEX
8
0
62
30
10
0.14142146
20
0.96820337
30
0
70
32
0
VERTEX
8
0
62
30
10
0.14142146
20
0.99749273
30
0
70
32
0
SEQEND
8
0
0
POLYLINE
8
0
62
30
66
1
10
0
20
0
30
0
70
8
0
VERTEX
8
0
62
30
10
0.21213213
20
0.96820341
30
0
70
32
0
VERTEX
8
0
62
30
10
0.21213213
20
0.99749273
30
0
70
32
0
SEQEND
8
0
0
POLYLINE
8
0
62
5
66
1
10
0
20
0
30
0
70
8
0
VERTEX
8
0
62
5
10
0.070710778
20
0.89142665
30
0
70
32
0
VERTEX
8
0
62
5
10
0.070710778
20
0.92678197
30
0
70
32
0
SEQEND
8
0
0
POLYLINE
8
0
62
5
66
1
10
0
20
0
30
0
70
8
0
VERTEX
8
0
62
5
10
0.14142146
20
0.89142665
30
0
70
32
0
VERTEX
8
0
62
5
10
0.14142146
20
0.89749265
30
0
70
32
0
SEQEND
8
0
0
POLYLINE
8
0
62
5
66
1
10
0
20
0
30
0
70
8
0
VERTEX
8
0
62
5
10
0.21213213
20
0.89142665
30
0
70
32
0
VERTEX
8
0
62
5
10
0.21213213
20
0.89749269
30
0
70
32
0
SEQEND
8
0
0
POLYLINE
8
0
62
5
66
1
10
0
20
0
30
0
70
8
0
VERTEX
8
0
62
5
10
0.070710778
20
0.96213737
30
0
70
32
0
VERTEX
8
0
62
5
10
0.070710778
20
0.99749269
30
0
70
32
0
SEQEND
8
0
0
POLYLINE
8
0
62
5
66
1
10
0
20
0
30
0
70
8
0
VERTEX
8
0
62
5
10
0.14142146
20
0.96213737
30
0
70
32
0
VERTEX
8
0
62
5
10
0.14142146
20
0.96820337
30
0
70
32
0
SEQEND
8
0
0
POLYLINE
8
0
62
5
66
1
10
0
20
0
30
0
70
8
0
VERTEX
8
0
62
5
10
0.21213213
20
0.96213737
30
0
70
32
0
VERTEX
8
0
62
5
10
0.21213213
20
0.96820341
30
0
70
32
0
SEQEND
8
0
0
POLYLINE
8
0
62
5
66
1
10
0
20
0
30
0
70
8
0
VERTEX
8
0
62
5
10
0.070710778
20
0.92678201
30
0
70
32
0
VERTEX
8
0
62
5
10
0.070710778
20
0.96213737
30
0
70
32
0
SEQEND
8
0
0
POLYLINE
8
0
62
5
66
1
10
0
20
0
30
0
70
8
0
VERTEX
8
0
62
5
10
0.14142146
20
0.92678201
30
0
70
32
0
VERTEX
8
0
62
5
10
0.14142146
20
0.96213737
30
0
70
32
0
SEQEND
8
0
0
POLYLINE
8
0
62
5
66
1
10
0
20
0
30
0
70
8
0
VERTEX
8
0
62
5
10
0.21213213
20
0.92678201
30
0
70
32
0
VERTEX
8
0
62
5
10
0.21213213
20
0.96213737
30
0
70
32
0
SEQEND
8
0
0
POLYLINE
8
0
62
5
66
1
10
0
20
0
30
0
70
8
0
VERTEX
8
0
62
5
10
0.070710778
20
0.99749273
30
0
70
32
0
VERTEX
8
0
62
5
10
0.070710778
20
1.0328481
30
0
70
32
0
SEQEND
8
0
0
POLYLINE
8
0
62
5
66
1
10
0
20
0
30
0
70
8
0
VERTEX
8
0
62
5
10
0.14142146
20
0.99749273
30
0
70
32
0
VERTEX
8
0
62
5
10
0.14142146
20
1.0328481
30
0
70
32
0
SEQEND
8
0
0
POLYLINE
8
0
62
5
66
1
10
0
20
0
30
0
70
8
0
VERTEX
8
0
62
5
10
0.21213213
20
0.99749273
30
0
70
32
0
VERTEX
8
0
62
5
10
0.21213213
20
1.0328481
30
0
70
32
0
SEQEND
8
0
0
POLYLINE
8
0
62
30
66
1
10
0
20
0
30
0
70
8
0
VERTEX
8
0
62
30
10
1.0015412e-07
20
0.92678201
30
0
70
32
0
VERTEX
8
0
62
30
10
1.0015412e-07
20
0.92678201
30
0
70
32
0
VERTEX
8
0
62
30
10
1.0015412e-07
20
0.92678201
30
0
70
32
0
SEQEND
8
0
0
POLYLINE
8
0
62
30
66
1
10
0
20
0
30
0
70
8
0
VERTEX
8
0
62
30
10
0.070710778
20
0.92678197
30
0
70
32
0
VERTEX
8
0
62
30
10
0.07071084
20
0.92678201
30
0
70
32
0
VERTEX
8
0
62
30
10
0.070710778
20
0.92678205
30
0
70
32
0
SEQEND
8
0
0
POLYLINE
8
0
62
30
66
1
10
0
20
0
30
0
70
8
0
VERTEX
8
0
62
30
10
0.14142146
20
0.89749265
30
0
70
32
0
VERTEX
8
0
62
30
10
0.16099198
20
0.92678201
30
0
70
32
0
VERTEX
8
0
62
30
10
0.14142146
20
0.95607137
30
0
70
32
0
SEQEND
8
0
0
POLYLINE
8
0
62
30
66
1
10
0
20
0
30
0
70
8
0
VERTEX
8
0
62
30
10
0.21213213
20
0.89749269
30
0
70
32
0
VERTEX
8
0
62
30
10
0.23170264
20
0.92678201
30
0
70
32
0
VERTEX
8
0
62
30
10
0.21213213
20
0.95607133
30
0
70
32
0
SEQEND
8
0
0
POLYLINE
8
0
62
30
66
1
10
0
20
0
30
0
70
8
0
VERTEX
8
0
62
30
10
1.0015412e-07
20
0.99749273
30
0
70
32
0
VERTEX
8
0
62
30
10
1.0015412e-07
20
0.99749273
30
0
70
32
0
VERTEX
8
0
62
30
10
1.0015412e-07
20
0.99749273
30
0
70
32
0
SEQEND
8
0
0
POLYLINE
8
0
62
30
66
1
10
0
20
0
30
0
70
8
0
VERTEX
8
0
62
30
10
0.070710778
20
0.99749269
30
0
70
32
0
VERTEX
8
0
62
30
10
0.07071084
20
0.99749273
30
0
70
32
0
VERTEX
8
0
62
30
10
0.070710778
20
0.99749277
30
0
70
32
0
SEQEND
8
0
0
POLYLINE
8
0
62
30
66
1
10
0
20
0
30
0
70
8
0
VERTEX
8
0
62
30
10
0.14142146
20
0.96820337
30
0
70
32
0
VERTEX
8
0
62
30
10
0.16099198
20
0.99749273
30
0
70
32
0
VERTEX
8
0
62
30
10
0.14142146
20
1.0267821
30
0
70
32
0
SEQEND
8
0
0
POLYLINE
8
0
62
30
66
1
10
0
20
0
30
0
70
8
0
VERTEX
8
0
62
30
10
0.21213213
20
0.96820341
30
0
70
32
0
VERTEX
8
0
62
30
10
0.23170264
20
0.99749273
30
0
70
32
0
VERTEX
8
0
62
30
10
0.21213213
20
1.0267821
30
0
70
32
0
SEQEND
8
0
0
POLYLINE
8
0
62
5
66
1
10
0
20
0
30
0
70
8
0
VERTEX
8
0
62
5
10
0.56568553
20
1.0328481
30
0
70
32
0
VERTEX
8
0
62
5
10
0.56568553
20
0.89142665
30
0
70
32
0
SEQEND
8
0
0
POLYLINE
8
0
62
5
66
1
10
0
20
0
30
0
70
8
0
VERTEX
8
0
62
5
10
0.28284281
20
0.92678201
30
0
70
32
0
VERTEX
8
0
62
5
10
0.35355349
20
0.92678197
30
0
70
32
0
VERTEX
8
0
62
5
10
0.42426417
20
0.89749265
30
0
70
32
0
VERTEX
8
0
62
5
10
0.49497485
20
0.89749269
30
0
70
32
0
VERTEX
8
0
62
5
10
0.56568553
20
0.92678201
30
0
70
32
0
SEQEND
8
0
0
POLYLINE
8
0
62
5
66
1
10
0
20
0
30
0
70
8
0
VERTEX
8
0
62
5
10
0.28284281
20
0.99749273
30
0
70
32
0
VERTEX
8
0
62
5
10
0.35355349
20
0.99749269
30
0
70
32
0
VERTEX
8
0
62
5
10
0.42426417
20
0.96820337
30
0
70
32
0
VERTEX
8
0
62
5
10
0.49497485
20
0.96820341
30
0
70
32
0
VERTEX
8
0
62
5
10
0.56568553
20
0.99749273
30
0
70
32
0
SEQEND
8
0
0
POLYLINE
8
0
62
5
66
1
10
0
20
0
30
0
70
8
0
VERTEX
8
0
62
5
10
0.28284281
20
0.92678201
30
0
70
32
0
VERTEX
8
0
62
5
10
0.35355349
20
0.92678205
30
0
70
32
0
VERTEX
8
0
62
5
10
0.42426417
20
0.95607137
30
0
70
32
0
VERTEX
8
0
62
5
10
0.49497485
20
0.95607133
30
0
70
32
0
VERTEX
8
0
62
5
10
0.56568553
20
0.92678201
30
0
70
32
0
SEQEND
8
0
0
POLYLINE
8
0
62
5
66
1
10
0
20
0
30
0
70
8
0
VERTEX
8
0
62
5
10
0.28284281
20
0.99749273
30
0
70
32
0
VERTEX
8
0
62
5
10
0.35355349
20
0.99749277
30
0
70
32
0
VERTEX
8
0
62
5
10
0.42426417
20
1.0267821
30
0
70
32
0
VERTEX
8
0
62
5
10
0.49497485
20
1.0267821
30
0
70
32
0
VERTEX
8
0
62
5
10
0.56568553
20
0.99749273
30
0
70
32
0
SEQEND
8
0
0
POLYLINE
8
0
62
30
66
1
10
0
20
0
30
0
70
8
0
VERTEX
8
0
62
30
10
0.28284281
20
0.92678201
30
0
70
32
0
VERTEX
8
0
62
30
10
0.56568553
20
0.92678201
30
0
70
32
0
SEQEND
8
0
0
POLYLINE
8
0
62
30
66
1
10
0
20
0
30
0
70
8
0
VERTEX
8
0
62
30
10
0.28284281
20
0.99749273
30
0
70
32
0
VERTEX
8
0
62
30
10
0.56568553
20
0.99749273
30
0
70
32
0
SEQEND
8
0
0
POLYLINE
8
0
62
30
66
1
10
0
20
0
30
0
70
8
0
VERTEX
8
0
62
30
10
0.35355349
20
0.92678197
30
0
70
32
0
VERTEX
8
0
62
30
10
0.35355349
20
0.92678201
30
0
70
32
0
SEQEND
8
0
0
POLYLINE
8
0
62
30
66
1
10
0
20
0
30
0
70
8
0
VERTEX
8
0
62
30
10
0.42426417
20
0.89749265
30
0
70
32
0
VERTEX
8
0
62
30
10
0.42426417
20
0.92678201
30
0
70
32
0
SEQEND
8
0
0
POLYLINE
8
0
62
30
66
1
10
0
20
0
30
0
70
8
0
VERTEX
8
0
62
30
10
0.49497485
20
0.89749269
30
0
70
32
0
VERTEX
8
0
62
30
10
0.49497485
20
0.92678201
30
0
70
32
0
SEQEND
8
0
0
POLYLINE
8
0
62
30
66
1
10
0
20
0
30
0
70
8
0
VERTEX
8
0
62
30
10
0.35355349
20
0.99749269
30
0
70
32
0
VERTEX
8
0
62
30
10
0.35355349
20
0.99749273
30
0
70
32
0
SEQEND
8
0
0
POLYLINE
8
0
62
30
66
1
10
0
20
0
30
0
70
8
0
VERTEX
8
0
62
30
10
0.42426417
20
0.96820337
30
0
70
32
0
VERTEX
8
0
62
30
10
0.42426417
20
0.99749273
30
0
70
32
0
SEQEND
8
0
0
POLYLINE
8
0
62
30
66
1
10
0
20
0
30
0
70
8
0
VERTEX
8
0
62
30
10
0.49497485
20
0.96820341
30
0
70
32
0
VERTEX
8
0
62
30
10
0.49497485
20
0.99749273
30
0
70
32
0
SEQEND
8
0
0
POLYLINE
8
0
62
5
66
1
10
0
20
0
30
0
70
8
0
VERTEX
8
0
62
5
10
0.35355349
20
0.89142665
30
0
70
32
0
VERTEX
8
0
62
5
10
0.35355349
20
0.92678197
30
0
70
32
0
SEQEND
8
0
0
POLYLINE
8
0
62
5
66
1
10
0
20
0
30
0
70
8
0
VERTEX
8
0
62
5
10
0.42426417
20
0.89142665
30
0
70
32
0
VERTEX
8
0
62
5
10
0.42426417
20
0.89749265
30
0
70
32
0
SEQEND
8
0
0
POLYLINE
8
0
62
5
66
1
10
0
20
0
30
0
70
8
0
VERTEX
8
0
62
5
10
0.49497485
20
0.89142665
30
0
70
32
0
VERTEX
8
0
62
5
10
0.49497485
20
0.89749269
30
0
70
32
0
SEQEND
8
0
0
POLYLINE
8
0
62
5
66
1
10
0
20
0
30
0
70
8
0
VERTEX
8
0
62
5
10
0.35355349
20
0.96213737
30
0
70
32
0
VERTEX
8
0
62
5
10
0.35355349
20
0.99749269
30
0
70
32
0
SEQEND
8
0
0
POLYLINE
8
0
62
5
66
1
10
0
20
0
30
0
70
8
0
VERTEX
8
0
62
5
10
0.42426417
20
0.96213737
30
0
70
32
0
VERTEX
8
0
62
5
10
0.42426417
20
0.96820337
30
0
70
32
0
SEQEND
8
0
0
POLYLINE
8
0
62
5
66
1
10
0
20
0
30
0
70
8
0
VERTEX
8
0
62
5
10
0.49497485
20
0.96213737
30
0
70
32
0
VERTEX
8
0
62
5
10
0.49497485
20
0.96820341
30
0
70
32
0
SEQEND
8
0
0
POLYLINE
8
0
62
5
66
1
10
0
20
0
30
0
70
8
0
VERTEX
8
0
62
5
10
0.35355349
20
0.92678201
30
0
70
32
0
VERTEX
8
0
62
5
10
0.35355349
20
0.96213737
30
0
70
32
0
SEQEND
8
0
0
POLYLINE
8
0
62
5
66
1
10
0
20
0
30
0
70
8
0
VERTEX
8
0
62
5
10
0.42426417
20
0.92678201
30
0
70
32
0
VERTEX
8
0
62
5
10
0.42426417
20
0.96213737
30
0
70
32
0
SEQEND
8
0
0
POLYLINE
8
0
62
5
66
1
10
0
20
0
30
0
70
8
0
VERTEX
8
0
62
5
10
0.49497485
20
0.92678201
30
0
70
32
0
VERTEX
8
0
62
5
10
0.49497485
20
0.96213737
30
0
70
32
0
SEQEND
8
0
0
POLYLINE
8
0
62
5
66
1
10
0
20
0
30
0
70
8
0
VERTEX
8
0
62
5
10
0.35355349
20
0.99749273
30
0
70
32
0
VERTEX
8
0
62
5
10
0.35355349
20
1.0328481
30
0
70
32
0
SEQEND
8
0
0
POLYLINE
8
0
62
5
66
1
10
0
20
0
30
0
70
8
0
VERTEX
8
0
62
5
10
0.42426417
20
0.99749273
30
0
70
32
0
VERTEX
8
0
62
5
10
0.42426417
20
1.0328481
30
0
70
32
0
SEQEND
8
0
0
POLYLINE
8
0
62
5
66
1
10
0
20
0
30
0
70
8
0
VERTEX
8
0
62
5
10
0.49497485
20
0.99749273
30
0
70
32
0
VERTEX
8
0
62
5
10
0.49497485
20
1.0328481
30
0
70
32
0
SEQEND
8
0
0
POLYLINE
8
0
62
30
66
1
10
0
20
0
30
0
70
8
0
VERTEX
8
0
62
30
10
0.28284281
20
0.92678201
30
0
70
32
0
VERTEX
8
0
62
30
10
0.28284281
20
0.92678201
30
0
70
32
0
VERTEX
8
0
62
30
10
0.28284281
20
0.92678201
30
0
70
32
0
SEQEND
8
0
0
POLYLINE
8
0
62
30
66
1
10
0
20
0
30
0
70
8
0
VERTEX
8
0
62
30
10
0.35355349
20
0.92678197
30
0
70
32
0
VERTEX
8
0
62
30
10
0.35355355
20
0.92678201
30
0
70
32
0
VERTEX
8
0
62
30
10
0.35355349
20
0.92678205
30
0
70
32
0
SEQEND
8
0
0
POLYLINE
8
0
62
30
66
1
10
0
20
0
30
0
70
8
0
VERTEX
8
0
62
30
10
0.42426417
20
0.89749265
30
0
70
32
0
VERTEX
8
0
62
30
10
0.44383469
20
0.92678201
30
0
70
32
0
VERTEX
8
0
62
30
10
0.42426417
20
0.95607137
30
0
70
32
0
SEQEND
8
0
0
POLYLINE
8
0
62
30
66
1
10
0
20
0
30
0
70
8
0
VERTEX
8
0
62
30
10
0.49497485
20
0.89749269
30
0
70
32
0
VERTEX
8
0
62
30
10
0.51454535
20
0.92678201
30
0
70
32
0
VERTEX
8
0
62
30
10
0.49497485
20
0.95607133
30
0
70
32
0
SEQEND
8
0
0
POLYLINE
8
0
62
30
66
1
10
0
20
0
30
0
70
8
0
VERTEX
8
0
62
30
10
0.28284281
20
0.99749273
30
0
70
32
0
VERTEX
8
0
62
30
10
0.28284281
20
0.99749273
30
0
70
32
0
VERTEX
8
0
62
30
10
0.28284281
20
0.99749273
30
0
70
32
0
SEQEND
8
0
0
POLYLINE
8
0
62
30
66
1
10
0
20
0
30
0
70
8
0
VERTEX
8
0
62
30
10
0.35355349
20
0.99749269
30
0
70
32
0
VERTEX
8
0
62
30
10
0.35355355
20
0.99749273
30
0
70
32
0
VERTEX
8
0
62
30
10
0.35355349
20
0.99749277
30
0
70
32
0
SEQEND
8
0
0
POLYLINE
8
0
62
30
66
1
10
0
20
0
30
0
70
8
0
VERTEX
8
0
62
30
10
0.42426417
20
0.96820337
30
0
70
32
0
VERTEX
8
0
62
30
10
0.44383469
20
0.99749273
30
0
70
32
0
VERTEX
8
0
62
30
10
0.42426417
20
1.0267821
30
0
70
32
0
SEQEND
8
0
0
POLYLINE
8
0
62
30
66
1
10
0
20
0
30
0
70
8
0
VERTEX
8
0
62
30
10
0.49497485
20
0.96820341
30
0
70
32
0
VERTEX
8
0
62
30
10
0.51454535
20
0.99749273
30
0
70
32
0
VERTEX
8
0
62
30
10
0.49497485
20
1.0267821
30
0
70
32
0
SEQEND
8
0
0
POLYLINE
8
0
62
5
66
1
10
0
20
0
30
0
70
8
0
VERTEX
8
0
62
5
10
-0.28284261
20
0.89142665
30
0
70
32
0
VERTEX
8
0
62
5
10
-0.28284261
20
1.0328481
30
0
70
32
0
SEQEND
8
0
0
POLYLINE
8
0
62
5
66
1
10
0
20
0
30
0
70
8
0
VERTEX
8
0
62
5
10
-0.28284261
20
0.92678201
30
0
70
32
0
VERTEX
8
0
62
5
10
-0.21213193
20
0.92678197
30
0
70
32
0
VERTEX
8
0
62
5
10
-0.14142126
20
0.89749265
30
0
70
32
0
VERTEX
8
0
62
5
10
-0.070710578
20
0.89749269
30
0
70
32
0
VERTEX
8
0
62
5
10
1.0015412e-07
20
0.92678201
30
0
70
32
0
SEQEND
8
0
0
POLYLINE
8
0
62
5
66
1
10
0
20
0
30
0
70
8
0
VERTEX
8
0
62
5
10
-0.28284261
20
0.99749273
30
0
70
32
0
VERTEX
8
0
62
5
10
-0.21213193
20
0.99749269
30
0
70
32
0
VERTEX
8
0
62
5
10
-0.14142126
20
0.96820337
30
0
70
32
0
VERTEX
8
0
62
5
10
-0.070710578
20
0.96820341
30
0
70
32
0
VERTEX
8
0
62
5
10
1.0015412e-07
20
0.99749273
30
0
70
32
0
SEQEND
8
0
0
POLYLINE
8
0
62
5
66
1
10
0
20
0
30
0
70
8
0
VERTEX
8
0
62
5
10
-0.28284261
20
0.92678201
30
0
70
32
0
VERTEX
8
0
62
5
10
-0.21213193
20
0.92678205
30
0
70
32
0
VERTEX
8
0
62
5
10
-0.14142126
20
0.95607137
30
0
70
32
0
VERTEX
8
0
62
5
10
-0.070710578
20
0.95607133
30
0
70
32
0
VERTEX
8
0
62
5
10
1.0015412e-07
20
0.92678201
30
0
70
32
0
SEQEND
8
0
0
POLYLINE
8
0
62
5
66
1
10
0
20
0
30
0
70
8
0
VERTEX
8
0
62
5
10
-0.28284261
20
0.99749273
30
0
70
32
0
VERTEX
8
0
62
5
10
-0.21213193
20
0.99749277
30
0
70
32
0
VERTEX
8
0
62
5
10
-0.14142126
20
1.0267821
30
0
70
32
0
VERTEX
8
0
62
5
10
-0.070710578
20
1.0267821
30
0
70
32
0
VERTEX
8
0
62
5
10
1.0015412e-07
20
0.99749273
30
0
70
32
0
SEQEND
8
0
0
POLYLINE
8
0
62
30
66
1
10
0
20
0
30
0
70
8
0
VERTEX
8
0
62
30
10
-0.28284261
20
0.92678201
30
0
70
32
0
VERTEX
8
0
62
30
10
1.0015412e-07
20
0.92678201
30
0
70
32
0
SEQEND
8
0
0
POLYLINE
8
0
62
30
66
1
10
0
20
0
30
0
70
8
0
VERTEX
8
0
62
30
10
-0.28284261
20
0.99749273
30
0
70
32
0
VERTEX
8
0
62
30
10
1.0015412e-07
20
0.99749273
30
0
70
32
0
SEQEND
8
0
0
POLYLINE
8
0
62
30
66
1
10
0
20
0
30
0
70
8
0
VERTEX
8
0
62
30
10
-0.21213193
20
0.92678197
30
0
70
32
0
VERTEX
8
0
62
30
10
-0.21213193
20
0.92678201
30
0
70
32
0
SEQEND
8
0
0
POLYLINE
8
0
62
30
66
1
10
0
20
0
30
0
70
8
0
VERTEX
8
0
62
30
10
-0.14142126
20
0.89749265
30
0
70
32
0
VERTEX
8
0
62
30
10
-0.14142126
20
0.92678201
30
0
70
32
0
SEQEND
8
0
0
POLYLINE
8
0
62
30
66
1
10
0
20
0
30
0
70
8
0
VERTEX
8
0
62
30
10
-0.070710578
20
0.89749269
30
0
70
32
0
VERTEX
8
0
62
30
10
-0.070710578
20
0.92678201
30
0
70
32
0
SEQEND
8
0
0
POLYLINE
8
0
62
30
66
1
10
0
20
0
30
0
70
8
0
VERTEX
8
0
62
30
10
-0.21213193
20
0.99749269
30
0
70
32
0
VERTEX
8
0
62
30
10
-0.21213193
20
0.99749273
30
0
70
32
0
SEQEND
8
0
0
POLYLINE
8
0
62
30
66
1
10
0
20
0
30
0
70
8
0
VERTEX
8
0
62
30
10
-0.14142126
20
0.96820337
30
0
70
32
0
VERTEX
8
0
62
30
10
-0.14142126
20
0.99749273
30
0
70
32
0
SEQEND
8
0
0
POLYLINE
8
0
62
30
66
1
10
0
20
0
30
0
70
8
0
VERTEX
8
0
62
30
10
-0.070710578
20
0.96820341
30
0
70
32
0
VERTEX
8
0
62
30
10
-0.070710578
20
0.99749273
30
0
70
32
0
SEQEND
8
0
0
POLYLINE
8
0
62
5
66
1
10
0
20
0
30
0
70
8
0
VERTEX
8
0
62
5
10
-0.21213193
20
0.89142665
30
0
70
32
0
VERTEX
8
0
62
5
10
-0.21213193
20
0.92678197
30
0
70
32
0
SEQEND
8
0
0
POLYLINE
8
0
62
5
66
1
10
0
20
0
30
0
70
8
0
VERTEX
8
0
62
5
10
-0.14142126
20
0.89142665
30
0
70
32
0
VERTEX
8
0
62
5
10
-0.14142126
20
0.89749265
30
0
70
32
0
SEQEND
8
0
0
POLYLINE
8
0
62
5
66
1
10
0
20
0
30
0
70
8
0
VERTEX
8
0
62
5
10
-0.070710578
20
0.89142665
30
0
70
32
0
VERTEX
8
0
62
5
10
-0.070710578
20
0.89749269
30
0
70
32
0
SEQEND
8
0
0
POLYLINE
8
0
62
5
66
1
10
0
20
0
30
0
70
8
0
VERTEX
8
0
62
5
10
-0.21213193
20
0.96213737
30
0
70
32
0
VERTEX
8
0
62
5
10
-0.21213193
20
0.99749269
30
0
70
32
0
SEQEND
8
0
0
POLYLINE
8
0
62
5
66
1
10
0
20
0
30
0
70
8
0
VERTEX
8
0
62
5
10
-0.14142126
20
0.96213737
30
0
70
32
0
VERTEX
8
0
62
5
10
-0.14142126
20
0.96820337
30
0
70
32
0
SEQEND
8
0
0
POLYLINE
8
0
62
5
66
1
10
0
20
0
30
0
70
8
0
VERTEX
8
0
62
5
10
-0.070710578
20
0.96213737
30
0
70
32
0
VERTEX
8
0
62
5
10
-0.070710578
20
0.96820341
30
0
70
32
0
SEQEND
8
0
0
POLYLINE
8
0
62
5
66
1
10
0
20
0
30
0
70
8
0
VERTEX
8
0
62
5
10
-0.21213193
20
0.92678201
30
0
70
32
0
VERTEX
8
0
62
5
10
-0.21213193
20
0.96213737
30
0
70
32
0
SEQEND
8
0
0
POLYLINE
8
0
62
5
66
1
10
0
20
0
30
0
70
8
0
VERTEX
8
0
62
5
10
-0.14142126
20
0.92678201
30
0
70
32
0
VERTEX
8
0
62
5
10
-0.14142126
20
0.96213737
30
0
70
32
0
SEQEND
8
0
0
POLYLINE
8
0
62
5
66
1
10
0
20
0
30
0
70
8
0
VERTEX
8
0
62
5
10
-0.070710578
20
0.92678201
30
0
70
32
0
VERTEX
8
0
62
5
10
-0.070710578
20
0.96213737
30
0
70
32
0
SEQEND
8
0
0
POLYLINE
8
0
62
5
66
1
10
0
20
0
30
0
70
8
0
VERTEX
8
0
62
5
10
-0.21213193
20
0.99749273
30
0
70
32
0
VERTEX
8
0
62
5
10
-0.21213193
20
1.0328481
30
0
70
32
0
SEQEND
8
0
0
POLYLINE
8
0
62
5
66
1
10
0
20
0
30
0
70
8
0
VERTEX
8
0
62
5
10
-0.14142126
20
0.99749273
30
0
70
32
0
VERTEX
8
0
62
5
10
-0.14142126
20
1.0328481
30
0
70
32
0
SEQEND
8
0
0
POLYLINE
8
0
62
5
66
1
10
0
20
0
30
0
70
8
0
VERTEX
8
0
62
5
10
-0.070710578
20
0.99749273
30
0
70
32
0
VERTEX
8
0
62
5
10
-0.070710578
20
1.0328481
30
0
70
32
0
SEQEND
8
0
0
POLYLINE
8
0
62
30
66
1
10
0
20
0
30
0
70
8
0
VERTEX
8
0
62
30
10
-0.28284261
20
0.92678201
30
0
70
32
0
VERTEX
8
0
62
30
10
-0.28284261
20
0.92678201
30
0
70
32
0
VERTEX
8
0
62
30
10
-0.28284261
20
0.92678201
30
0
70
32
0
SEQEND
8
0
0
POLYLINE
8
0
62
30
66
1
10
0
20
0
30
0
70
8
0
VERTEX
8
0
62
30
10
-0.21213193
20
0.92678197
30
0
70
32
0
VERTEX
8
0
62
30
10
-0.21213187
20
0.92678201
30
0
70
32
0
VERTEX
8
0
62
30
10
-0.21213193
20
0.92678205
30
0
70
32
0
SEQEND
8
0
0
POLYLINE
8
0
62
30
66
1
10
0
20
0
30
0
70
8
0
VERTEX
8
0
62
30
10
-0.14142126
20
0.89749265
30
0
70
32
0
VERTEX
8
0
62
30
10
-0.12185074
20
0.92678201
30
0
70
32
0
VERTEX
8
0
62
30
10
-0.14142126
20
0.95607137
30
0
70
32
0
SEQEND
8
0
0
POLYLINE
8
0
62
30
66
1
10
0
20
0
30
0
70
8
0
VERTEX
8
0
62
30
10
-0.070710578
20
0.89749269
30
0
70
32
0
VERTEX
8
0
62
30
10
-0.051140071
20
0.92678201
30
0
70
32
0
VERTEX
8
0
62
30
10
-0.070710578
20
0.95607133
30
0
70
32
0
SEQEND
8
0
0
POLYLINE
8
0
62
30
66
1
10
0
20
0
30
0
70
8
0
VERTEX
8
0
62
30
10
-0.28284261
20
0.99749273
30
0
70
32
0
VERTEX
8
0
62
30
10
-0.28284261
20
0.99749273
30
0
70
32
0
VERTEX
8
0
62
30
10
-0.28284261
20
0.99749273
30
0
70
32
0
SEQEND
8
0
0
POLYLINE
8
0
62
30
66
1
10
0
20
0
30
0
70
8
0
VERTEX
8
0
62
30
10
-0.21213193
20
0.99749269
30
0
70
32
0
VERTEX
8
0
62
30
10
-0.21213187
20
0.99749273
30
0
70
32
0
VERTEX
8
0
62
30
10
-0.21213193
20
0.99749277
30
0
70
32
0
SEQEND
8
0
0
POLYLINE
8
0
62
30
66
1
10
0
20
0
30
0
70
8
0
VERTEX
8
0
62
30
10
-0.14142126
20
0.96820337
30
0
70
32
0
VERTEX
8
0
62
30
10
-0.12185074
20
0.99749273
30
0
70
32
0
VERTEX
8
0
62
30
10
-0.14142126
20
1.0267821
30
0
70
32
0
SEQEND
8
0
0
POLYLINE
8
0
62
30
66
1
10
0
20
0
30
0
70
8
0
VERTEX
8
0
62
30
10
-0.070710578
20
0.96820341
30
0
70
32
0
VERTEX
8
0
62
30
10
-0.051140071
20
0.99749273
30
0
70
32
0
VERTEX
8
0
62
30
10
-0.070710578
20
1.0267821
30
0
70
32
0
SEQEND
8
0
0
POLYLINE
8
0
62
5
66
1
10
0
20
0
30
0
70
8
0
VERTEX
8
0
62
5
10
1.0015412e-07
20
1.0328481
30
0
70
32
0
VERTEX
8
0
62
5
10
1.0015412e-07
20
1.0338481
30
0
70
32
0
SEQEND
8
0
0
POLYLINE
8
0
62
5
66
1
10
0
20
0
30
0
70
8
0
VERTEX
8
0
62
5
10
0.28284281
20
1.0328481
30
0
70
32
0
VERTEX
8
0
62
5
10
0.28284281
20
1.0338481
30
0
70
32
0
SEQEND
8
0
0
POLYLINE
8
0
62
5
66
1
10
0
20
0
30
0
70
8
0
VERTEX
8
0
62
5
10
0.070710778
20
1.0328481
30
0
70
32
0
VERTEX
8
0
62
5
10
0.070710778
20
1.0338481
30
0
70
32
0
SEQEND
8
0
0
POLYLINE
8
0
62
5
66
1
10
0
20
0
30
0
70
8
0
VERTEX
8
0
62
5
10
0.14142146
20
1.0328481
30
0
70
32
0
VERTEX
8
0
62
5
10
0.14142146
20
1.0338481
30
0
70
32
0
SEQEND
8
0
0
POLYLINE
8
0
62
5
66
1
10
0
20
0
30
0
70
8
0
VERTEX
8
0
62
5
10
0.21213213
20
1.0328481
30
0
70
32
0
VERTEX
8
0
62
5
10
0.21213213
20
1.0338481
30
0
70
32
0
SEQEND
8
0
0
POLYLINE
8
0
62
5
66
1
10
0
20
0
30
0
70
8
0
VERTEX
8
0
62
5
10
0.56568553
20
1.0328481
30
0
70
32
0
VERTEX
8
0
62
5
10
0.56568553
20
1.0338481
30
0
70
32
0
SEQEND
8
0
0
POLYLINE
8
0
62
5
66
1
10
0
20
0
30
0
70
8
0
VERTEX
8
0
62
5
10
0.35355349
20
1.0328481
30
0
70
32
0
VERTEX
8
0
62
5
10
0.35355349
20
1.0338481
30
0
70
32
0
SEQEND
8
0
0
POLYLINE
8
0
62
5
66
1
10
0
20
0
30
0
70
8
0
VERTEX
8
0
62
5
10
0.42426417
20
1.0328481
30
0
70
32
0
VERTEX
8
0
62
5
10
0.42426417
20
1.0338481
30
0
70
32
0
SEQEND
8
0
0
POLYLINE
8
0
62
5
66
1
10
0
20
0
30
0
70
8
0
VERTEX
8
0
62
5
10
0.49497485
20
1.0328481
30
0
70
32
0
VERTEX
8
0
62
5
10
0.49497485
20
1.0338481
30
0
70
32
0
SEQEND
8
0
0
POLYLINE
8
0
62
5
66
1
10
0
20
0
30
0
70
8
0
VERTEX
8
0
62
5
10
-0.28284261
20
1.0328481
30
0
70
32
0
VERTEX
8
0
62
5
10
-0.28284261
20
1.0338481
30
0
70
32
0
SEQEND
8
0
0
POLYLINE
8
0
62
5
66
1
10
0
20
0
30
0
70
8
0
VERTEX
8
0
62
5
10
-0.21213193
20
1.0328481
30
0
70
32
0
VERTEX
8
0
62
5
10
-0.21213193
20
1.0338481
30
0
70
32
0
SEQEND
8
0
0
POLYLINE
8
0
62
5
66
1
10
0
20
0
30
0
70
8
0
VERTEX
8
0
62
5
10
-0.14142126
20
1.0328481
30
0
70
32
0
VERTEX
8
0
62
5
10
-0.14142126
20
1.0338481
30
0
70
32
0
SEQEND
8
0
0
POLYLINE
8
0
62
5
66
1
10
0
20
0
30
0
70
8
0
VERTEX
8
0
62
5
10
-0.070710578
20
1.0328481
30
0
70
32
0
VERTEX
8
0
62
5
10
-0.070710578
20
1.0338481
30
0
70
32
0
SEQEND
8
0
0
POLYLINE
8
0
62
5
66
1
10
0
20
0
30
0
70
8
0
VERTEX
8
0
62
5
10
1.0015412e-07
20
1.0338481
30
0
70
32
0
VERTEX
8
0
62
5
10
1.0015412e-07
20
1.1752695
30
0
70
32
0
SEQEND
8
0
0
POLYLINE
8
0
62
5
66
1
10
0
20
0
30
0
70
8
0
VERTEX
8
0
62
5
10
0.28284281
20
1.1752695
30
0
70
32
0
VERTEX
8
0
62
5
10
0.28284281
20
1.0338481
30
0
70
32
0
SEQEND
8
0
0
POLYLINE
8
0
62
5
66
1
10
0
20
0
30
0
70
8
0
VERTEX
8
0
62
5
10
1.0015412e-07
20
1.0399141
30
0
70
32
0
VERTEX
8
0
62
5
10
0.070710778
20
1.0692034
30
0
70
32
0
VERTEX
8
0
62
5
10
0.14142146
20
1.0692034
30
0
70
32
0
VERTEX
8
0
62
5
10
0.21213213
20
1.0399141
30
0
70
32
0
VERTEX
8
0
62
5
10
0.28284281
20
1.0399141
30
0
70
32
0
SEQEND
8
0
0
POLYLINE
8
0
62
5
66
1
10
0
20
0
30
0
70
8
0
VERTEX
8
0
62
5
10
1.0015412e-07
20
1.1106248
30
0
70
32
0
VERTEX
8
0
62
5
10
0.070710778
20
1.1399141
30
0
70
32
0
VERTEX
8
0
62
5
10
0.14142146
20
1.1399141
30
0
70
32
0
VERTEX
8
0
62
5
10
0.21213213
20
1.1106248
30
0
70
32
0
VERTEX
8
0
62
5
10
0.28284281
20
1.1106248
30
0
70
32
0
SEQEND
8
0
0
POLYLINE
8
0
62
5
66
1
10
0
20
0
30
0
70
8
0
VERTEX
8
0
62
5
10
1.0015412e-07
20
1.0984928
30
0
70
32
0
VERTEX
8
0
62
5
10
0.070710778
20
1.0692034
30
0
70
32
0
VERTEX
8
0
62
5
10
0.14142146
20
1.0692034
30
0
70
32
0
VERTEX
8
0
62
5
10
0.21213213
20
1.0984928
30
0
70
32
0
VERTEX
8
0
62
5
10
0.28284281
20
1.0984928
30
0
70
32
0
SEQEND
8
0
0
POLYLINE
8
0
62
5
66
1
10
0
20
0
30
0
70
8
0
VERTEX
8
0
62
5
10
1.0015412e-07
20
1.1692034
30
0
70
32
0
VERTEX
8
0
62
5
10
0.070710778
20
1.1399141
30
0
70
32
0
VERTEX
8
0
62
5
10
0.14142146
20
1.1399141
30
0
70
32
0
VERTEX
8
0
62
5
10
0.21213213
20
1.1692034
30
0
70
32
0
VERTEX
8
0
62
5
10
0.28284281
20
1.1692034
30
0
70
32
0
SEQEND
8
0
0
POLYLINE
8
0
62
30
66
1
10
0
20
0
30
0
70
8
0
VERTEX
8
0
62
30
10
1.0015412e-07
20
1.0692034
30
0
70
32
0
VERTEX
8
0
62
30
10
0.28284281
20
1.0692034
30
0
70
32
0
SEQEND
8
0
0
POLYLINE
8
0
62
30
66
1
10
0
20
0
30
0
70
8
0
VERTEX
8
0
62
30
10
1.0015412e-07
20
1.1399141
30
0
70
32
0
VERTEX
8
0
62
30
10
0.28284281
20
1.1399141
30
0
70
32
0
SEQEND
8
0
0
POLYLINE
8
0
62
30
66
1
10
0
20
0
30
0
70
8
0
VERTEX
8
0
62
30
10
0.070710778
20
1.0692034
30
0
70
32
0
VERTEX
8
0
62
30
10
0.070710778
20
1.0692034
30
0
70
32
0
SEQEND
8
0
0
POLYLINE
8
0
62
30
66
1
10
0
20
0
30
0
70
8
0
VERTEX
8
0
62
30
10
0.14142146
20
1.0692034
30
0
70
32
0
VERTEX
8
0
62
30
10
0.14142146
20
1.0692034
30
0
70
32
0
SEQEND
8
0
0
POLYLINE
8
0
62
30
66
1
10
0
20
0
30
0
70
8
0
VERTEX
8
0
62
30
10
0.21213213
20
1.0399141
30
0
70
32
0
VERTEX
8
0
62
30
10
0.21213213
20
1.0692034
30
0
70
32
0
SEQEND
8
0
0
POLYLINE
8
0
62
30
66
1
10
0
20
0
30
0
70
8
0
VERTEX
8
0
62
30
10
0.070710778
20
1.1399141
30
0
70
32
0
VERTEX
8
0
62
30
10
0.070710778
20
1.1399141
30
0
70
32
0
SEQEND
8
0
0
POLYLINE
8
0
62
30
66
1
10
0
20
0
30
0
70
8
0
VERTEX
8
0
62
30
10
0.14142146
20
1.1399141
30
0
70
32
0
VERTEX
8
0
62
30
10
0.14142146
20
1.1399141
30
0
70
32
0
SEQEND
8
0
0
POLYLINE
8
0
62
30
66
1
10
0
20
0
30
0
70
8
0
VERTEX
8
0
62
30
10
0.21213213
20
1.1106248
30
0
70
32
0
VERTEX
8
0
62
30
10
0.21213213
20
1.1399141
30
0
70
32
0
SEQEND
8
0
0
POLYLINE
8
0
62
5
66
1
10
0
20
0
30
0
70
8
0
VERTEX
8
0
62
5
10
0.070710778
20
1.0338481
30
0
70
32
0
VERTEX
8
0
62
5
10
0.070710778
20
1.0692034
30
0
70
32
0
SEQEND
8
0
0
POLYLINE
8
0
62
5
66
1
10
0
20
0
30
0
70
8
0
VERTEX
8
0
62
5
10
0.14142146
20
1.0338481
30
0
70
32
0
VERTEX
8
0
62
5
10
0.14142146
20
1.0692034
30
0
70
32
0
SEQEND
8
0
0
POLYLINE
8
0
62
5
66
1
10
0
20
0
30
0
70
8
0
VERTEX
8
0
62
5
10
0.21213213
20
1.0338481
30
0
70
32
0
VERTEX
8
0
62
5
10
0.21213213
20
1.0399141
30
0
70
32
0
SEQEND
8
0
0
POLYLINE
8
0
62
5
66
1
10
0
20
0
30
0
70
8
0
VERTEX
8
0
62
5
10
0.070710778
20
1.1045588
30
0
70
32
0
VERTEX
8
0
62
5
10
0.070710778
20
1.1399141
30
0
70
32
0
SEQEND
8
0
0
POLYLINE
8
0
62
5
66
1
10
0
20
0
30
0
70
8
0
VERTEX
8
0
62
5
10
0.14142146
20
1.1045588
30
0
70
32
0
VERTEX
8
0
62
5
10
0.14142146
20
1.1399141
30
0
70
32
0
SEQEND
8
0
0
POLYLINE
8
0
62
5
66
1
10
0
20
0
30
0
70
8
0
VERTEX
8
0
62
5
10
0.21213213
20
1.1045588
30
0
70
32
0
VERTEX
8
0
62
5
10
0.21213213
20
1.1106248
30
0
70
32
0
SEQEND
8
0
0
POLYLINE
8
0
62
5
66
1
10
0
20
0
30
0
70
8
0
VERTEX
8
0
62
5
10
0.070710778
20
1.0692034
30
0
70
32
0
VERTEX
8
0
62
5
10
0.070710778
20
1.1045588
30
0
70
32
0
SEQEND
8
0
0
POLYLINE
8
0
62
5
66
1
10
0
20
0
30
0
70
8
0
VERTEX
8
0
62
5
10
0.14142146
20
1.0692034
30
0
70
32
0
VERTEX
8
0
62
5
10
0.14142146
20
1.1045588
30
0
70
32
0
SEQEND
8
0
0
POLYLINE
8
0
62
5
66
1
10
0
20
0
30
0
70
8
0
VERTEX
8
0
62
5
10
0.21213213
20
1.0692034
30
0
70
32
0
VERTEX
8
0
62
5
10
0.21213213
20
1.1045588
30
0
70
32
0
SEQEND
8
0
0
POLYLINE
8
0
62
5
66
1
10
0
20
0
30
0
70
8
0
VERTEX
8
0
62
5
10
0.070710778
20
1.1399141
30
0
70
32
0
VERTEX
8
0
62
5
10
0.070710778
20
1.1752695
30
0
70
32
0
SEQEND
8
0
0
POLYLINE
8
0
62
5
66
1
10
0
20
0
30
0
70
8
0
VERTEX
8
0
62
5
10
0.14142146
20
1.1399141
30
0
70
32
0
VERTEX
8
0
62
5
10
0.14142146
20
1.1752695
30
0
70
32
0
SEQEND
8
0
0
POLYLINE
8
0
62
5
66
1
10
0
20
0
30
0
70
8
0
VERTEX
8
0
62
5
10
0.21213213
20
1.1399141
30
0
70
32
0
VERTEX
8
0
62
5
10
0.21213213
20
1.1752695
30
0
70
32
0
SEQEND
8
0
0
POLYLINE
8
0
62
30
66
1
10
0
20
0
30
0
70
8
0
VERTEX
8
0
62
30
10
1.0015412e-07
20
1.0399141
30
0
70
32
0
VERTEX
8
0
62
30
10
0.0195706
20
1.0692034
30
0
70
32
0
VERTEX
8
0
62
30
10
1.0015412e-07
20
1.0984928
30
0
70
32
0
SEQEND
8
0
0
POLYLINE
8
0
62
30
66
1
10
0
20
0
30
0
70
8
0
VERTEX
8
0
62
30
10
0.070710778
20
1.0692034
30
0
70
32
0
VERTEX
8
0
62
30
10
0.070710779
20
1.0692034
30
0
70
32
0
VERTEX
8
0
62
30
10
0.070710778
20
1.0692034
30
0
70
32
0
SEQEND
8
0
0
POLYLINE
8
0
62
30
66
1
10
0
20
0
30
0
70
8
0
VERTEX
8
0
62
30
10
0.14142146
20
1.0692034
30
0
70
32
0
VERTEX
8
0
62
30
10
0.14142146
20
1.0692034
30
0
70
32
0
VERTEX
8
0
62
30
10
0.14142146
20
1.0692034
30
0
70
32
0
SEQEND
8
0
0
POLYLINE
8
0
62
30
66
1
10
0
20
0
30
0
70
8
0
VERTEX
8
0
62
30
10
0.21213213
20
1.0399141
30
0
70
32
0
VERTEX
8
0
62
30
10
0.23170263
20
1.0692034
30
0
70
32
0
VERTEX
8
0
62
30
10
0.21213213
20
1.0984928
30
0
70
32
0
SEQEND
8
0
0
POLYLINE
8
0
62
30
66
1
10
0
20
0
30
0
70
8
0
VERTEX
8
0
62
30
10
1.0015412e-07
20
1.1106248
30
0
70
32
0
VERTEX
8
0
62
30
10
0.0195706
20
1.1399141
30
0
70
32
0
VERTEX
8
0
62
30
10
1.0015412e-07
20
1.1692034
30
0
70
32
0
SEQEND
8
0
0
POLYLINE
8
0
62
30
66
1
10
0
20
0
30
0
70
8
0
VERTEX
8
0
62
30
10
0.070710778
20
1.1399141
30
0
70
32
0
VERTEX
8
0
62
30
10
0.070710779
20
1.1399141
30
0
70
32
0
VERTEX
8
0
62
30
10
0.070710778
20
1.1399141
30
0
70
32
0
SEQEND
8
0
0
POLYLINE
8
0
62
30
66
1
10
0
20
0
30
0
70
8
0
VERTEX
8
0
62
30
10
0.14142146
20
1.1399141
30
0
70
32
0
VERTEX
8
0
62
30
10
0.14142146
20
1.1399141
30
0
70
32
0
VERTEX
8
0
62
30
10
0.14142146
20
1.1399141
30
0
70
32
0
SEQEND
8
0
0
POLYLINE
8
0
62
30
66
1
10
0
20
0
30
0
70
8
0
VERTEX
8
0
62
30
10
0.21213213
20
1.1106248
30
0
70
32
0
VERTEX
8
0
62
30
10
0.23170263
20
1.1399141
30
0
70
32
0
VERTEX
8
0
62
30
10
0.21213213
20
1.1692034
30
0
70
32
0
SEQEND
8
0
0
POLYLINE
8
0
62
5
66
1
10
0
20
0
30
0
70
8
0
VERTEX
8
0
62
5
10
0.56568553
20
1.1752695
30
0
70
32
0
VERTEX
8
0
62
5
10
0.56568553
20
1.0338481
30
0
70
32
0
SEQEND
8
0
0
POLYLINE
8
0
62
5
66
1
10
0
20
0
30
0
70
8
0
VERTEX
8
0
62
5
10
0.28284281
20
1.0399141
30
0
70
32
0
VERTEX
8
0
62
5
10
0.35355349
20
1.0692034
30
0
70
32
0
VERTEX
8
0
62
5
10
0.42426417
20
1.0692034
30
0
70
32
0
VERTEX
8
0
62
5
10
0.49497485
20
1.0399141
30
0
70
32
0
VERTEX
8
0
62
5
10
0.56568553
20
1.0399141
30
0
70
32
0
SEQEND
8
0
0
POLYLINE
8
0
62
5
66
1
10
0
20
0
30
0
70
8
0
VERTEX
8
0
62
5
10
0.28284281
20
1.1106248
30
0
70
32
0
VERTEX
8
0
62
5
10
0.35355349
20
1.1399141
30
0
70
32
0
VERTEX
8
0
62
5
10
0.42426417
20
1.1399141
30
0
70
32
0
VERTEX
8
0
62
5
10
0.49497485
20
1.1106248
30
0
70
32
0
VERTEX
8
0
62
5
10
0.56568553
20
1.1106248
30
0
70
32
0
SEQEND
8
0
0
POLYLINE
8
0
62
5
66
1
10
0
20
0
30
0
70
8
0
VERTEX
8
0
62
5
10
0.28284281
20
1.0984928
30
0
70
32
0
VERTEX
8
0
62
5
10
0.35355349
20
1.0692034
30
0
70
32
0
VERTEX
8
0
62
5
10
0.42426417
20
1.0692034
30
0
70
32
0
VERTEX
8
0
62
5
10
0.49497485
20
1.0984928
30
0
70
32
0
VERTEX
8
0
62
5
10
0.56568553
20
1.0984928
30
0
70
32
0
SEQEND
8
0
0
POLYLINE
8
0
62
5
66
1
10
0
20
0
30
0
70
8
0
VERTEX
8
0
62
5
10
0.28284281
20
1.1692034
30
0
70
32
0
VERTEX
8
0
62
5
10
0.35355349
20
1.1399141
30
0
70
32
0
VERTEX
8
0
62
5
10
0.42426417
20
1.1399141
30
0
70
32
0
VERTEX
8
0
62
5
10
0.49497485
20
1.1692034
30
0
70
32
0
VERTEX
8
0
62
5
10
0.56568553
20
1.1692034
30
0
70
32
0
SEQEND
8
0
0
POLYLINE
8
0
62
30
66
1
10
0
20
0
30
0
70
8
0
VERTEX
8
0
62
30
10
0.28284281
20
1.0692034
30
0
70
32
0
VERTEX
8
0
62
30
10
0.56568553
20
1.0692034
30
0
70
32
0
SEQEND
8
0
0
POLYLINE
8
0
62
30
66
1
10
0
20
0
30
0
70
8
0
VERTEX
8
0
62
30
10
0.28284281
20
1.1399141
30
0
70
32
0
VERTEX
8
0
62
30
10
0.56568553
20
1.1399141
30
0
70
32
0
SEQEND
8
0
0
POLYLINE
8
0
62
30
66
1
10
0
20
0
30
0
70
8
0
VERTEX
8
0
62
30
10
0.35355349
20
1.0692034
30
0
70
32
0
VERTEX
8
0
62
30
10
0.35355349
20
1.0692034
30
0
70
32
0
SEQEND
8
0
0
POLYLINE
8
0
62
30
66
1
10
0
20
0
30
0
70
8
0
VERTEX
8
0
62
30
10
0.42426417
20
1.0692034
30
0
70
32
0
VERTEX
8
0
62
30
10
0.42426417
20
1.0692034
30
0
70
32
0
SEQEND
8
0
0
POLYLINE
8
0
62
30
66
1
10
0
20
0
30
0
70
8
0
VERTEX
8
0
62
30
10
0.49497485
20
1.0399141
30
0
70
32
0
VERTEX
8
0
62
30
10
0.49497485
20
1.0692034
30
0
70
32
0
SEQEND
8
0
0
POLYLINE
8
0
62
30
66
1
10
0
20
0
30
0
70
8
0
VERTEX
8
0
62
30
10
0.35355349
20
1.1399141
30
0
70
32
0
VERTEX
8
0
62
30
10
0.35355349
20
1.1399141
30
0
70
32
0
SEQEND
8
0
0
POLYLINE
8
0
62
30
66
1
10
0
20
0
30
0
70
8
0
VERTEX
8
0
62
30
10
0.42426417
20
1.1399141
30
0
70
32
0
VERTEX
8
0
62
30
10
0.42426417
20
1.1399141
30
0
70
32
0
SEQEND
8
0
0
POLYLINE
8
0
62
30
66
1
10
0
20
0
30
0
70
8
0
VERTEX
8
0
62
30
10
0.49497485
20
1.1106248
30
0
70
32
0
VERTEX
8
0
62
30
10
0.49497485
20
1.1399141
30
0
70
32
0
SEQEND
8
0
0
POLYLINE
8
0
62
5
66
1
10
0
20
0
30
0
70
8
0
VERTEX
8
0
62
5
10
0.35355349
20
1.0338481
30
0
70
32
0
VERTEX
8
0
62
5
10
0.35355349
20
1.0692034
30
0
70
32
0
SEQEND
8
0
0
POLYLINE
8
0
62
5
66
1
10
0
20
0
30
0
70
8
0
VERTEX
8
0
62
5
10
0.42426417
20
1.0338481
30
0
70
32
0
VERTEX
8
0
62
5
10
0.42426417
20
1.0692034
30
0
70
32
0
SEQEND
8
0
0
POLYLINE
8
0
62
5
66
1
10
0
20
0
30
0
70
8
0
VERTEX
8
0
62
5
10
0.49497485
20
1.0338481
30
0
70
32
0
VERTEX
8
0
62
5
10
0.49497485
20
1.0399141
30
0
70
32
0
SEQEND
8
0
0
POLYLINE
8
0
62
5
66
1
10
0
20
0
30
0
70
8
0
VERTEX
8
0
62
5
10
0.35355349
20
1.1045588
30
0
70
32
0
VERTEX
8
0
62
5
10
0.35355349
20
1.1399141
30
0
70
32
0
SEQEND
8
0
0
POLYLINE
8
0
62
5
66
1
10
0
20
0
30
0
70
8
0
VERTEX
8
0
62
5
10
0.42426417
20
1.1045588
30
0
70
32
0
VERTEX
8
0
62
5
10
0.42426417
20
1.1399141
30
0
70
32
0
SEQEND
8
0
0
POLYLINE
8
0
62
5
66
1
10
0
20
0
30
0
70
8
0
VERTEX
8
0
62
5
10
0.49497485
20
1.1045588
30
0
70
32
0
VERTEX
8
0
62
5
10
0.49497485
20
1.1106248
30
0
70
32
0
SEQEND
8
0
0
POLYLINE
8
0
62
5
66
1
10
0
20
0
30
0
70
8
0
VERTEX
8
0
62
5
10
0.35355349
20
1.0692034
30
0
70
32
0
VERTEX
8
0
62
5
10
0.35355349
20
1.1045588
30
0
70
32
0
SEQEND
8
0
0
POLYLINE
8
0
62
5
66
1
10
0
20
0
30
0
70
8
0
VERTEX
8
0
62
5
10
0.42426417
20
1.0692034
30
0
70
32
0
VERTEX
8
0
62
5
10
0.42426417
20
1.1045588
30
0
70
32
0
SEQEND
8
0
0
POLYLINE
8
0
62
5
66
1
10
0
20
0
30
0
70
8
0
VERTEX
8
0
62
5
10
0.49497485
20
1.0692034
30
0
70
32
0
VERTEX
8
0
62
5
10
0.49497485
20
1.1045588
30
0
70
32
0
SEQEND
8
0
0
POLYLINE
8
0
62
5
66
1
10
0
20
0
30
0
70
8
0
VERTEX
8
0
62
5
10
0.35355349
20
1.1399141
30
0
70
32
0
VERTEX
8
0
62
5
10
0.35355349
20
1.1752695
30
0
70
32
0
SEQEND
8
0
0
POLYLINE
8
0
62
5
66
1
10
0
20
0
30
0
70
8
0
VERTEX
8
0
62
5
10
0.42426417
20
1.1399141
30
0
70
32
0
VERTEX
8
0
62
5
10
0.42426417
20
1.1752695
30
0
70
32
0
SEQEND
8
0
0
POLYLINE
8
0
62
5
66
1
10
0
20
0
30
0
70
8
0
VERTEX
8
0
62
5
10
0.49497485
20
1.1399141
30
0
70
32
0
VERTEX
8
0
62
5
10
0.49497485
20
1.1752695
30
0
70
32
0
SEQEND
8
0
0
POLYLINE
8
0
62
30
66
1
10
0
20
0
30
0
70
8
0
VERTEX
8
0
62
30
10
0.28284281
20
1.0399141
30
0
70
32
0
VERTEX
8
0
62
30
10
0.30241331
20
1.0692034
30
0
70
32
0
VERTEX
8
0
62
30
10
0.28284281
20
1.0984928
30
0
70
32
0
SEQEND
8
0
0
POLYLINE
8
0
62
30
66
1
10
0
20
0
30
0
70
8
0
VERTEX
8
0
62
30
10
0.35355349
20
1.0692034
30
0
70
32
0
VERTEX
8
0
62
30
10
0.35355349
20
1.0692034
30
0
70
32
0
VERTEX
8
0
62
30
10
0.35355349
20
1.0692034
30
0
70
32
0
SEQEND
8
0
0
POLYLINE
8
0
62
30
66
1
10
0
20
0
30
0
70
8
0
VERTEX
8
0
62
30
10
0.42426417
20
1.0692034
30
0
70
32
0
VERTEX
8
0
62
30
10
0.42426417
20
1.0692034
30
0
70
32
0
VERTEX
8
0
62
30
10
0.42426417
20
1.0692034
30
0
70
32
0
SEQEND
8
0
0
POLYLINE
8
0
62
30
66
1
10
0
20
0
30
0
70
8
0
VERTEX
8
0
62
30
10
0.49497485
20
1.0399141
30
0
70
32
0
VERTEX
8
0
62
30
10
0.51454535
20
1.0692034
30
0
70
32
0
VERTEX
8
0
62
30
10
0.49497485
20
1.0984928
30
0
70
32
0
SEQEND
8
0
0
POLYLINE
8
0
62
30
66
1
10
0
20
0
30
0
70
8
0
VERTEX
8
0
62
30
10
0.28284281
20
1.1106248
30
0
70
32
0
VERTEX
8
0
62
30
10
0.30241331
20
1.1399141
30
0
70
32
0
VERTEX
8
0
62
30
10
0.28284281
20
1.1692034
30
0
70
32
0
SEQEND
8
0
0
POLYLINE
8
0
62
30
66
1
10
0
20
0
30
0
70
8
0
VERTEX
8
0
62
30
10
0.35355349
20
1.1399141
30
0
70
32
0
VERTEX
8
0
62
30
10
0.35355349
20
1.1399141
30
0
70
32
0
VERTEX
8
0
62
30
10
0.35355349
20
1.1399141
30
0
70
32
0
SEQEND
8
0
0
POLYLINE
8
0
62
30
66
1
10
0
20
0
30
0
70
8
0
VERTEX
8
0
62
30
10
0.42426417
20
1.1399141
30
0
70
32
0
VERTEX
8
0
62
30
10
0.42426417
20
1.1399141
30
0
70
32
0
VERTEX
8
0
62
30
10
0.42426417
20
1.1399141
30
0
70
32
0
SEQEND
8
0
0
POLYLINE
8
0
62
30
66
1
10
0
20
0
30
0
70
8
0
VERTEX
8
0
62
30
10
0.49497485
20
1.1106248
30
0
70
32
0
VERTEX
8
0
62
30
10
0.51454535
20
1.1399141
30
0
70
32
0
VERTEX
8
0
62
30
10
0.49497485
20
1.1692034
30
0
70
32
0
SEQEND
8
0
0
POLYLINE
8
0
62
5
66
1
10
0
20
0
30
0
70
8
0
VERTEX
8
0
62
5
10
-0.28284261
20
1.0338481
30
0
70
32
0
VERTEX
8
0
62
5
10
-0.28284261
20
1.1752695
30
0
70
32
0
SEQEND
8
0
0
POLYLINE
8
0
62
5
66
1
10
0
20
0
30
0
70
8
0
VERTEX
8
0
62
5
10
-0.28284261
20
1.0399141
30
0
70
32
0
VERTEX
8
0
62
5
10
-0.21213193
20
1.0692034
30
0
70
32
0
VERTEX
8
0
62
5
10
-0.14142126
20
1.0692034
30
0
70
32
0
VERTEX
8
0
62
5
10
-0.070710578
20
1.0399141
30
0
70
32
0
VERTEX
8
0
62
5
10
1.0015412e-07
20
1.0399141
30
0
70
32
0
SEQEND
8
0
0
POLYLINE
8
0
62
5
66
1
10
0
20
0
30
0
70
8
0
VERTEX
8
0
62
5
10
-0.28284261
20
1.1106248
30
0
70
32
0
VERTEX
8
0
62
5
10
-0.21213193
20
1.1399141
30
0
70
32
0
VERTEX
8
0
62
5
10
-0.14142126
20
1.1399141
30
0
70
32
0
VERTEX
8
0
62
5
10
-0.070710578
20
1.1106248
30
0
70
32
0
VERTEX
8
0
62
5
10
1.0015412e-07
20
1.1106248
30
0
70
32
0
SEQEND
8
0
0
POLYLINE
8
0
62
5
66
1
10
0
20
0
30
0
70
8
0
VERTEX
8
0
62
5
10
-0.28284261
20
1.0984928
30
0
70
32
0
VERTEX
8
0
62
5
10
-0.21213193
20
1.0692034
30
0
70
32
0
VERTEX
8
0
62
5
10
-0.14142126
20
1.0692034
30
0
70
32
0
VERTEX
8
0
62
5
10
-0.070710578
20
1.0984928
30
0
70
32
0
VERTEX
8
0
62
5
10
1.0015412e-07
20
1.0984928
30
0
70
32
0
SEQEND
8
0
0
POLYLINE
8
0
62
5
66
1
10
0
20
0
30
0
70
8
0
VERTEX
8
0
62
5
10
-0.28284261
20
1.1692034
30
0
70
32
0
VERTEX
8
0
62
5
10
-0.21213193
20
1.1399141
30
0
70
32
0
VERTEX
8
0
62
5
10
-0.14142126
20
1.1399141
30
0
70
32
0
VERTEX
8
0
62
5
10
-0.070710578
20
1.1692034
30
0
70
32
0
VERTEX
8
0
62
5
10
1.0015412e-07
20
1.1692034
30
0
70
32
0
SEQEND
8
0
0
POLYLINE
8
0
62
30
66
1
10
0
20
0
30
0
70
8
0
VERTEX
8
0
62
30
10
-0.28284261
20
1.0692034
30
0
70
32
0
VERTEX
8
0
62
30
10
1.0015412e-07
20
1.0692034
30
0
70
32
0
SEQEND
8
0
0
POLYLINE
8
0
62
30
66
1
10
0
20
0
30
0
70
8
0
VERTEX
8
0
62
30
10
-0.28284261
20
1.1399141
30
0
70
32
0
VERTEX
8
0
62
30
10
1.0015412e-07
20
1.1399141
30
0
70
32
0
SEQEND
8
0
0
POLYLINE
8
0
62
30
66
1
10
0
20
0
30
0
70
8
0
VERTEX
8
0
62
30
10
-0.21213193
20
1.0692034
30
0
70
32
0
VERTEX
8
0
62
30
10
-0.21213193
20
1.0692034
30
0
70
32
0
SEQEND
8
0
0
POLYLINE
8
0
62
30
66
1
10
0
20
0
30
0
70
8
0
VERTEX
8
0
62
30
10
-0.14142126
20
1.0692034
30
0
70
32
0
VERTEX
8
0
62
30
10
-0.14142126
20
1.0692034
30
0
70
32
0
SEQEND
8
0
0
POLYLINE
8
0
62
30
66
1
10
0
20
0
30
0
70
8
0
VERTEX
8
0
62
30
10
-0.070710578
20
1.0399141
30
0
70
32
0
VERTEX
8
0
62
30
10
-0.070710578
20
1.0692034
30
0
70
32
0
SEQEND
8
0
0
POLYLINE
8
0
62
30
66
1
10
0
20
0
30
0
70
8
0
VERTEX
8
0
62
30
10
-0.21213193
20
1.1399141
30
0
70
32
0
VERTEX
8
0
62
30
10
-0.21213193
20
1.1399141
30
0
70
32
0
SEQEND
8
0
0
POLYLINE
8
0
62
30
66
1
10
0
20
0
30
0
70
8
0
VERTEX
8
0
62
30
10
-0.14142126
20
1.1399141
30
0
70
32
0
VERTEX
8
0
62
30
10
-0.14142126
20
1.1399141
30
0
70
32
0
SEQEND
8
0
0
POLYLINE
8
0
62
30
66
1
10
0
20
0
30
0
70
8
0
VERTEX
8
0
62
30
10
-0.070710578
20
1.1106248
30
0
70
32
0
VERTEX
8
0
62
30
10
-0.070710578
20
1.1399141
30
0
70
32
0
SEQEND
8
0
0
POLYLINE
8
0
62
5
66
1
10
0
20
0
30
0
70
8
0
VERTEX
8
0
62
5
10
-0.21213193
20
1.0338481
30
0
70
32
0
VERTEX
8
0
62
5
10
-0.21213193
20
1.0692034
30
0
70
32
0
SEQEND
8
0
0
POLYLINE
8
0
62
5
66
1
10
0
20
0
30
0
70
8
0
VERTEX
8
0
62
5
10
-0.14142126
20
1.0338481
30
0
70
32
0
VERTEX
8
0
62
5
10
-0.14142126
20
1.0692034
30
0
70
32
0
SEQEND
8
0
0
POLYLINE
8
0
62
5
66
1
10
0
20
0
30
0
70
8
0
VERTEX
8
0
62
5
10
-0.070710578
20
1.0338481
30
0
70
32
0
VERTEX
8
0
62
5
10
-0.070710578
20
1.0399141
30
0
70
32
0
SEQEND
8
0
0
POLYLINE
8
0
62
5
66
1
10
0
20
0
30
0
70
8
0
VERTEX
8
0
62
5
10
-0.21213193
20
1.1045588
30
0
70
32
0
VERTEX
8
0
62
5
10
-0.21213193
20
1.1399141
30
0
70
32
0
SEQEND
8
0
0
POLYLINE
8
0
62
5
66
1
10
0
20
0
30
0
70
8
0
VERTEX
8
0
62
5
10
-0.14142126
20
1.1045588
30
0
70
32
0
VERTEX
8
0
62
5
10
-0.14142126
20
1.1399141
30
0
70
32
0
SEQEND
8
0
0
POLYLINE
8
0
62
5
66
1
10
0
20
0
30
0
70
8
0
VERTEX
8
0
62
5
10
-0.070710578
20
1.1045588
30
0
70
32
0
VERTEX
8
0
62
5
10
-0.070710578
20
1.1106248
30
0
70
32
0
SEQEND
8
0
0
POLYLINE
8
0
62
5
66
1
10
0
20
0
30
0
70
8
0
VERTEX
8
0
62
5
10
-0.21213193
20
1.0692034
30
0
70
32
0
VERTEX
8
0
62
5
10
-0.21213193
20
1.1045588
30
0
70
32
0
SEQEND
8
0
0
POLYLINE
8
0
62
5
66
1
10
0
20
0
30
0
70
8
0
VERTEX
8
0
62
5
10
-0.14142126
20
1.0692034
30
0
70
32
0
VERTEX
8
0
62
5
10
-0.14142126
20
1.1045588
30
0
70
32
0
SEQEND
8
0
0
POLYLINE
8
0
62
5
66
1
10
0
20
0
30
0
70
8
0
VERTEX
8
0
62
5
10
-0.070710578
20
1.0692034
30
0
70
32
0
VERTEX
8
0
62
5
10
-0.070710578
20
1.1045588
30
0
70
32
0
SEQEND
8
0
0
POLYLINE
8
0
62
5
66
1
10
0
20
0
30
0
70
8
0
VERTEX
8
0
62
5
10
-0.21213193
20
1.1399141
30
0
70
32
0
VERTEX
8
0
62
5
10
-0.21213193
20
1.1752695
30
0
70
32
0
SEQEND
8
0
0
POLYLINE
8
0
62
5
66
1
10
0
20
0
30
0
70
8
0
VERTEX
8
0
62
5
10
-0.14142126
20
1.1399141
30
0
70
32
0
VERTEX
8
0
62
5
10
-0.14142126
20
1.1752695
30
0
70
32
0
SEQEND
8
0
0
POLYLINE
8
0
62
5
66
1
10
0
20
0
30
0
70
8
0
VERTEX
8
0
62
5
10
-0.070710578
20
1.1399141
30
0
70
32
0
VERTEX
8
0
62
5
10
-0.070710578
20
1.1752695
30
0
70
32
0
SEQEND
8
0
0
POLYLINE
8
0
62
30
66
1
10
0
20
0
30
0
70
8
0
VERTEX
8
0
62
30
10
-0.28284261
20
1.0399141
30
0
70
32
0
VERTEX
8
0
62
30
10
-0.26327211
20
1.0692034
30
0
70
32
0
VERTEX
8
0
62
30
10
-0.28284261
20
1.0984928
30
0
70
32
0
SEQEND
8
0
0
POLYLINE
8
0
62
30
66
1
10
0
20
0
30
0
70
8
0
VERTEX
8
0
62
30
10
-0.21213193
20
1.0692034
30
0
70
32
0
VERTEX
8
0
62
30
10
-0.21213193
20
1.0692034
30
0
70
32
0
VERTEX
8
0
62
30
10
-0.21213193
20
1.0692034
30
0
70
32
0
SEQEND
8
0
0
POLYLINE
8
0
62
30
66
1
10
0
20
0
30
0
70
8
0
VERTEX
8
0
62
30
10
-0.14142126
20
1.0692034
30
0
70
32
0
VERTEX
8
0
62
30
10
-0.14142126
20
1.0692034
30
0
70
32
0
VERTEX
8
0
62
30
10
-0.14142126
20
1.0692034
30
0
70
32
0
SEQEND
8
0
0
POLYLINE
8
0
62
30
66
1
10
0
20
0
30
0
70
8
0
VERTEX
8
0
62
30
10
-0.070710578
20
1.0399141
30
0
70
32
0
VERTEX
8
0
62
30
10
-0.051140079
20
1.0692034
30
0
70
32
0
VERTEX
8
0
62
30
10
-0.070710578
20
1.0984928
30
0
70
32
0
SEQEND
8
0
0
POLYLINE
8
0
62
30
66
1
10
0
20
0
30
0
70
8
0
VERTEX
8
0
62
30
10
-0.28284261
20
1.1106248
30
0
70
32
0
VERTEX
8
0
62
30
10
-0.26327211
20
1.1399141
30
0
70
32
0
VERTEX
8
0
62
30
10
-0.28284261
20
1.1692034
30
0
70
32
0
SEQEND
8
0
0
POLYLINE
8
0
62
30
66
1
10
0
20
0
30
0
70
8
0
VERTEX
8
0
62
30
10
-0.21213193
20
1.1399141
30
0
70
32
0
VERTEX
8
0
62
30
10
-0.21213193
20
1.1399141
30
0
70
32
0
VERTEX
8
0
62
30
10
-0.21213193
20
1.1399141
30
0
70
32
0
SEQEND
8
0
0
POLYLINE
8
0
62
30
66
1
10
0
20
0
30
0
70
8
0
VERTEX
8
0
62
30
10
-0.14142126
20
1.1399141
30
0
70
32
0
VERTEX
8
0
62
30
10
-0.14142126
20
1.1399141
30
0
70
32
0
VERTEX
8
0
62
30
10
-0.14142126
20
1.1399141
30
0
70
32
0
SEQEND
8
0
0
POLYLINE
8
0
62
30
66
1
10
0
20
0
30
0
70
8
0
VERTEX
8
0
62
30
10
-0.070710578
20
1.1106248
30
0
70
32
0
VERTEX
8
0
62
30
10
-0.051140079
20
1.1399141
30
0
70
32
0
VERTEX
8
0
62
30
10
-0.070710578
20
1.1692034
30
0
70
32
0
SEQEND
8
0
0
POLYLINE
8
0
62
5
66
1
10
0
20
0
30
0
70
8
0
VERTEX
8
0
62
5
10
1.0015412e-07
20
1.1752695
30
0
70
32
0
VERTEX
8
0
62
5
10
1.0015412e-07
20
1.1781984
30
0
70
32
0
SEQEND
8
0
0
POLYLINE
8
0
62
5
66
1
10
0
20
0
30
0
70
8
0
VERTEX
8
0
62
5
10
0.070710778
20
1.1752695
30
0
70
32
0
VERTEX
8
0
62
5
10
0.070710778
20
1.1781984
30
0
70
32
0
SEQEND
8
0
0
POLYLINE
8
0
62
5
66
1
10
0
20
0
30
0
70
8
0
VERTEX
8
0
62
5
10
0.14142146
20
1.1752695
30
0
70
32
0
VERTEX
8
0
62
5
10
0.14142146
20
1.1781984
30
0
70
32
0
SEQEND
8
0
0
POLYLINE
8
0
62
5
66
1
10
0
20
0
30
0
70
8
0
VERTEX
8
0
62
5
10
0.21213213
20
1.1752695
30
0
70
32
0
VERTEX
8
0
62
5
10
0.21213213
20
1.1781984
30
0
70
32
0
SEQEND
8
0
0
POLYLINE
8
0
62
5
66
1
10
0
20
0
30
0
70
8
0
VERTEX
8
0
62
5
10
0.28284281
20
1.1752695
30
0
70
32
0
VERTEX
8
0
62
5
10
0.28284281
20
1.1781984
30
0
70
32
0
SEQEND
8
0
0
POLYLINE
8
0
62
5
66
1
10
0
20
0
30
0
70
8
0
VERTEX
8
0
62
5
10
0.070710778
20
1.1752695
30
0
70
32
0
VERTEX
8
0
62
5
10
0.070710778
20
1.1752695
30
0
70
32
0
SEQEND
8
0
0
POLYLINE
8
0
62
5
66
1
10
0
20
0
30
0
70
8
0
VERTEX
8
0
62
5
10
0.14142146
20
1.1752695
30
0
70
32
0
VERTEX
8
0
62
5
10
0.14142146
20
1.1752695
30
0
70
32
0
SEQEND
8
0
0
POLYLINE
8
0
62
5
66
1
10
0
20
0
30
0
70
8
0
VERTEX
8
0
62
5
10
0.21213213
20
1.1752695
30
0
70
32
0
VERTEX
8
0
62
5
10
0.21213213
20
1.1752695
30
0
70
32
0
SEQEND
8
0
0
POLYLINE
8
0
62
5
66
1
10
0
20
0
30
0
70
8
0
VERTEX
8
0
62
5
10
1.0096007e-07
20
1.1781984
30
0
70
32
0
VERTEX
8
0
62
5
10
1.0096007e-07
20
1.1781984
30
0
70
32
0
SEQEND
8
0
0
POLYLINE
8
0
62
5
66
1
10
0
20
0
30
0
70
8
0
VERTEX
8
0
62
5
10
0.070710779
20
1.1781984
30
0
70
32
0
VERTEX
8
0
62
5
10
0.070710779
20
1.1781984
30
0
70
32
0
SEQEND
8
0
0
POLYLINE
8
0
62
5
66
1
10
0
20
0
30
0
70
8
0
VERTEX
8
0
62
5
10
0.14142146
20
1.1781984
30
0
70
32
0
VERTEX
8
0
62
5
10
0.14142146
20
1.1781984
30
0
70
32
0
SEQEND
8
0
0
POLYLINE
8
0
62
5
66
1
10
0
20
0
30
0
70
8
0
VERTEX
8
0
62
5
10
0.21213214
20
1.1781984
30
0
70
32
0
VERTEX
8
0
62
5
10
0.21213214
20
1.1781984
30
0
70
32
0
SEQEND
8
0
0
POLYLINE
8
0
62
5
66
1
10
0
20
0
30
0
70
8
0
VERTEX
8
0
62
5
10
0.35355349
20
1.1752695
30
0
70
32
0
VERTEX
8
0
62
5
10
0.35355349
20
1.1781984
30
0
70
32
0
SEQEND
8
0
0
POLYLINE
8
0
62
5
66
1
10
0
20
0
30
0
70
8
0
VERTEX
8
0
62
5
10
0.42426417
20
1.1752695
30
0
70
32
0
VERTEX
8
0
62
5
10
0.42426417
20
1.1781984
30
0
70
32
0
SEQEND
8
0
0
POLYLINE
8
0
62
5
66
1
10
0
20
0
30
0
70
8
0
VERTEX
8
0
62
5
10
0.49497485
20
1.1752695
30
0
70
32
0
VERTEX
8
0
62
5
10
0.49497485
20
1.1781984
30
0
70
32
0
SEQEND
8
0
0
POLYLINE
8
0
62
5
66
1
10
0
20
0
30
0
70
8
0
VERTEX
8
0
62
5
10
0.56568553
20
1.1752695
30
0
70
32
0
VERTEX
8
0
62
5
10
0.56568553
20
1.1781984
30
0
70
32
0
SEQEND
8
0
0
POLYLINE
8
0
62
5
66
1
10
0
20
0
30
0
70
8
0
VERTEX
8
0
62
5
10
0.35355349
20
1.1752695
30
0
70
32
0
VERTEX
8
0
62
5
10
0.35355349
20
1.1752695
30
0
70
32
0
SEQEND
8
0
0
POLYLINE
8
0
62
5
66
1
10
0
20
0
30
0
70
8
0
VERTEX
8
0
62
5
10
0.42426417
20
1.1752695
30
0
70
32
0
VERTEX
8
0
62
5
10
0.42426417
20
1.1752695
30
0
70
32
0
SEQEND
8
0
0
POLYLINE
8
0
62
5
66
1
10
0
20
0
30
0
70
8
0
VERTEX
8
0
62
5
10
0.49497485
20
1.1752695
30
0
70
32
0
VERTEX
8
0
62
5
10
0.49497485
20
1.1752695
30
0
70
32
0
SEQEND
8
0
0
POLYLINE
8
0
62
5
66
1
10
0
20
0
30
0
70
8
0
VERTEX
8
0
62
5
10
0.28284281
20
1.1781984
30
0
70
32
0
VERTEX
8
0
62
5
10
0.28284281
20
1.1781984
30
0
70
32
0
SEQEND
8
0
0
POLYLINE
8
0
62
5
66
1
10
0
20
0
30
0
70
8
0
VERTEX
8
0
62
5
10
0.35355349
20
1.1781984
30
0
70
32
0
VERTEX
8
0
62
5
10
0.35355349
20
1.1781984
30
0
70
32
0
SEQEND
8
0
0
POLYLINE
8
0
62
5
66
1
10
0
20
0
30
0
70
8
0
VERTEX
8
0
62
5
10
0.42426417
20
1.1781984
30
0
70
32
0
VERTEX
8
0
62
5
10
0.42426417
20
1.1781984
30
0
70
32
0
SEQEND
8
0
0
POLYLINE
8
0
62
5
66
1
10
0
20
0
30
0
70
8
0
VERTEX
8
0
62
5
10
0.49497485
20
1.1781984
30
0
70
32
0
VERTEX
8
0
62
5
10
0.49497485
20
1.1781984
30
0
70
32
0
SEQEND
8
0
0
POLYLINE
8
0
62
5
66
1
10
0
20
0
30
0
70
8
0
VERTEX
8
0
62
5
10
-0.21213193
20
1.1752695
30
0
70
32
0
VERTEX
8
0
62
5
10
-0.21213193
20
1.1781984
30
0
70
32
0
SEQEND
8
0
0
POLYLINE
8
0
62
5
66
1
10
0
20
0
30
0
70
8
0
VERTEX
8
0
62
5
10
-0.14142126
20
1.1752695
30
0
70
32
0
VERTEX
8
0
62
5
10
-0.14142126
20
1.1781984
30
0
70
32
0
SEQEND
8
0
0
POLYLINE
8
0
62
5
66
1
10
0
20
0
30
0
70
8
0
VERTEX
8
0
62
5
10
-0.070710578
20
1.1752695
30
0
70
32
0
VERTEX
8
0
62
5
10
-0.070710578
20
1.1781984
30
0
70
32
0
SEQEND
8
0
0
POLYLINE
8
0
62
5
66
1
10
0
20
0
30
0
70
8
0
VERTEX
8
0
62
5
10
1.0015412e-07
20
1.1752695
30
0
70
32
0
VERTEX
8
0
62
5
10
1.0015412e-07
20
1.1781984
30
0
70
32
0
SEQEND
8
0
0
POLYLINE
8
0
62
5
66
1
10
0
20
0
30
0
70
8
0
VERTEX
8
0
62
5
10
-0.21213193
20
1.1752695
30
0
70
32
0
VERTEX
8
0
62
5
10
-0.21213193
20
1.1752695
30
0
70
32
0
SEQEND
8
0
0
POLYLINE
8
0
62
5
66
1
10
0
20
0
30
0
70
8
0
VERTEX
8
0
62
5
10
-0.14142126
20
1.1752695
30
0
70
32
0
VERTEX
8
0
62
5
10
-0.14142126
20
1.1752695
30
0
70
32
0
SEQEND
8
0
0
POLYLINE
8
0
62
5
66
1
10
0
20
0
30
0
70
8
0
VERTEX
8
0
62
5
10
-0.070710578
20
1.1752695
30
0
70
32
0
VERTEX
8
0
62
5
10
-0.070710578
20
1.1752695
30
0
70
32
0
SEQEND
8
0
0
POLYLINE
8
0
62
5
66
1
10
0
20
0
30
0
70
8
0
VERTEX
8
0
62
5
10
-0.28284261
20
1.1781984
30
0
70
32
0
VERTEX
8
0
62
5
10
-0.28284261
20
1.1781984
30
0
70
32
0
SEQEND
8
0
0
POLYLINE
8
0
62
5
66
1
10
0
20
0
30
0
70
8
0
VERTEX
8
0
62
5
10
-0.21213193
20
1.1781984
30
0
70
32
0
VERTEX
8
0
62
5
10
-0.21213193
20
1.1781984
30
0
70
32
0
SEQEND
8
0
0
POLYLINE
8
0
62
5
66
1
10
0
20
0
30
0
70
8
0
VERTEX
8
0
62
5
10
-0.14142126
20
1.1781984
30
0
70
32
0
VERTEX
8
0
62
5
10
-0.14142126
20
1.1781984
30
0
70
32
0
SEQEND
8
0
0
POLYLINE
8
0
62
5
66
1
10
0
20
0
30
0
70
8
0
VERTEX
8
0
62
5
10
-0.070710577
20
1.1781984
30
0
70
32
0
VERTEX
8
0
62
5
10
-0.070710577
20
1.1781984
30
0
70
32
0
SEQEND
8
0
0
POLYLINE
8
0
62
5
66
1
10
0
20
0
30
0
70
8
0
VERTEX
8
0
62
5
10
1.0096007e-07
20
1.1781984
30
0
70
32
0
VERTEX
8
0
62
5
10
1.0096007e-07
20
1.1899141
30
0
70
32
0
SEQEND
8
0
0
POLYLINE
8
0
62
5
66
1
10
0
20
0
30
0
70
8
0
VERTEX
8
0
62
5
10
0.28284281
20
1.1781984
30
0
70
32
0
VERTEX
8
0
62
5
10
0.28284281
20
1.1899141
30
0
70
32
0
SEQEND
8
0
0
POLYLINE
8
0
62
5
66
1
10
0
20
0
30
0
70
8
0
VERTEX
8
0
62
5
10
0.070710779
20
1.1781984
30
0
70
32
0
VERTEX
8
0
62
5
10
0.070710779
20
1.1899141
30
0
70
32
0
SEQEND
8
0
0
POLYLINE
8
0
62
5
66
1
10
0
20
0
30
0
70
8
0
VERTEX
8
0
62
5
10
0.14142146
20
1.1781984
30
0
70
32
0
VERTEX
8
0
62
5
10
0.14142146
20
1.1899141
30
0
70
32
0
SEQEND
8
0
0
POLYLINE
8
0
62
5
66
1
10
0
20
0
30
0
70
8
0
VERTEX
8
0
62
5
10
0.21213214
20
1.1781984
30
0
70
32
0
VERTEX
8
0
62
5
10
0.21213214
20
1.1899141
30
0
70
32
0
SEQEND
8
0
0
POLYLINE
8
0
62
5
66
1
10
0
20
0
30
0
70
8
0
VERTEX
8
0
62
5
10
0.56568553
20
1.1781984
30
0
70
32
0
VERTEX
8
0
62
5
10
0.56568553
20
1.1899141
30
0
70
32
0
SEQEND
8
0
0
POLYLINE
8
0
62
5
66
1
10
0
20
0
30
0
70
8
0
VERTEX
8
0
62
5
10
0.35355349
20
1.1781984
30
0
70
32
0
VERTEX
8
0
62
5
10
0.35355349
20
1.1899141
30
0
70
32
0
SEQEND
8
0
0
POLYLINE
8
0
62
5
66
1
10
0
20
0
30
0
70
8
0
VERTEX
8
0
62
5
10
0.42426417
20
1.1781984
30
0
70
32
0
VERTEX
8
0
62
5
10
0.42426417
20
1.1899141
30
0
70
32
0
SEQEND
8
0
0
POLYLINE
8
0
62
5
66
1
10
0
20
0
30
0
70
8
0
VERTEX
8
0
62
5
10
0.49497485
20
1.1781984
30
0
70
32
0
VERTEX
8
0
62
5
10
0.49497485
20
1.1899141
30
0
70
32
0
SEQEND
8
0
0
POLYLINE
8
0
62
5
66
1
10
0
20
0
30
0
70
8
0
VERTEX
8
0
62
5
10
-0.28284261
20
1.1781984
30
0
70
32
0
VERTEX
8
0
62
5
10
-0.28284261
20
1.1899141
30
0
70
32
0
SEQEND
8
0
0
POLYLINE
8
0
62
5
66
1
10
0
20
0
30
0
70
8
0
VERTEX
8
0
62
5
10
-0.21213193
20
1.1781984
30
0
70
32
0
VERTEX
8
0
62
5
10
-0.21213193
20
1.1899141
30
0
70
32
0
SEQEND
8
0
0
POLYLINE
8
0
62
5
66
1
10
0
20
0
30
0
70
8
0
VERTEX
8
0
62
5
10
-0.14142126
20
1.1781984
30
0
70
32
0
VERTEX
8
0
62
5
10
-0.14142126
20
1.1899141
30
0
70
32
0
SEQEND
8
0
0
POLYLINE
8
0
62
5
66
1
10
0
20
0
30
0
70
8
0
VERTEX
8
0
62
5
10
-0.070710577
20
1.1781984
30
0
70
32
0
VERTEX
8
0
62
5
10
-0.070710577
20
1.1899141
30
0
70
32
0
SEQEND
8
0
0
POLYLINE
8
0
62
5
66
1
10
0
20
0
30
0
70
8
0
VERTEX
8
0
62
5
10
1.0096007e-07
20
1.1899141
30
0
70
32
0
VERTEX
8
0
62
5
10
1.0096007e-07
20
1.2899141
30
0
70
32
0
SEQEND
8
0
0
POLYLINE
8
0
62
5
66
1
10
0
20
0
30
0
70
8
0
VERTEX
8
0
62
5
10
0.28284281
20
1.2899141
30
0
70
32
0
VERTEX
8
0
62
5
10
0.28284281
20
1.1899141
30
0
70
32
0
SEQEND
8
0
0
POLYLINE
8
0
62
5
66
1
10
0
20
0
30
0
70
8
0
VERTEX
8
0
62
5
10
1.0096007e-07
20
1.1899141
30
0
70
32
0
VERTEX
8
0
62
5
10
0.28284281
20
1.1899141
30
0
70
32
0
SEQEND
8
0
0
POLYLINE
8
0
62
5
66
1
10
0
20
0
30
0
70
8
0
VERTEX
8
0
62
5
10
1.0096007e-07
20
1.2899141
30
0
70
32
0
VERTEX
8
0
62
5
10
0.28284281
20
1.2899141
30
0
70
32
0
SEQEND
8
0
0
POLYLINE
8
0
62
5
66
1
10
0
20
0
30
0
70
8
0
VERTEX
8
0
62
5
10
0.070710779
20
1.1899141
30
0
70
32
0
VERTEX
8
0
62
5
10
0.070710779
20
1.1899141
30
0
70
32
0
SEQEND
8
0
0
POLYLINE
8
0
62
5
66
1
10
0
20
0
30
0
70
8
0
VERTEX
8
0
62
5
10
0.14142146
20
1.1899141
30
0
70
32
0
VERTEX
8
0
62
5
10
0.14142146
20
1.1899141
30
0
70
32
0
SEQEND
8
0
0
POLYLINE
8
0
62
5
66
1
10
0
20
0
30
0
70
8
0
VERTEX
8
0
62
5
10
0.21213214
20
1.1899141
30
0
70
32
0
VERTEX
8
0
62
5
10
0.21213214
20
1.1899141
30
0
70
32
0
SEQEND
8
0
0
POLYLINE
8
0
62
5
66
1
10
0
20
0
30
0
70
8
0
VERTEX
8
0
62
5
10
0.070710779
20
1.2899141
30
0
70
32
0
VERTEX
8
0
62
5
10
0.070710779
20
1.2899141
30
0
70
32
0
SEQEND
8
0
0
POLYLINE
8
0
62
5
66
1
10
0
20
0
30
0
70
8
0
VERTEX
8
0
62
5
10
0.14142146
20
1.2899141
30
0
70
32
0
VERTEX
8
0
62
5
10
0.14142146
20
1.2899141
30
0
70
32
0
SEQEND
8
0
0
POLYLINE
8
0
62
5
66
1
10
0
20
0
30
0
70
8
0
VERTEX
8
0
62
5
10
0.21213214
20
1.2899141
30
0
70
32
0
VERTEX
8
0
62
5
10
0.21213214
20
1.2899141
30
0
70
32
0
SEQEND
8
0
0
POLYLINE
8
0
62
30
66
1
10
0
20
0
30
0
70
8
0
VERTEX
8
0
62
30
10
1.0096007e-07
20
1.2899141
30
0
70
32
0
VERTEX
8
0
62
30
10
0.070710779
20
1.1899141
30
0
70
32
0
SEQEND
8
0
0
POLYLINE
8
0
62
30
66
1
10
0
20
0
30
0
70
8
0
VERTEX
8
0
62
30
10
0.070710779
20
1.2899141
30
0
70
32
0
VERTEX
8
0
62
30
10
1.0096007e-07
20
1.1899141
30
0
70
32
0
SEQEND
8
0
0
POLYLINE
8
0
62
30
66
1
10
0
20
0
30
0
70
8
0
VERTEX
8
0
62
30
10
0.14142146
20
1.2899141
30
0
70
32
0
VERTEX
8
0
62
30
10
0.21213214
20
1.1899141
30
0
70
32
0
SEQEND
8
0
0
POLYLINE
8
0
62
30
66
1
10
0
20
0
30
0
70
8
0
VERTEX
8
0
62
30
10
0.21213214
20
1.2899141
30
0
70
32
0
VERTEX
8
0
62
30
10
0.14142146
20
1.1899141
30
0
70
32
0
SEQEND
8
0
0
POLYLINE
8
0
62
30
66
1
10
0
20
0
30
0
70
8
0
VERTEX
8
0
62
30
10
0.070710779
20
1.2399141
30
0
70
32
0
VERTEX
8
0
62
30
10
0.14142146
20
1.2399141
30
0
70
32
0
SEQEND
8
0
0
POLYLINE
8
0
62
30
66
1
10
0
20
0
30
0
70
8
0
VERTEX
8
0
62
30
10
0.21213214
20
1.2399141
30
0
70
32
0
VERTEX
8
0
62
30
10
0.28284281
20
1.2399141
30
0
70
32
0
SEQEND
8
0
0
POLYLINE
8
0
62
5
66
1
10
0
20
0
30
0
70
8
0
VERTEX
8
0
62
5
10
1.0096007e-07
20
1.2399141
30
0
70
32
0
VERTEX
8
0
62
5
10
0.03535544
20
1.2399141
30
0
70
32
0
SEQEND
8
0
0
POLYLINE
8
0
62
5
66
1
10
0
20
0
30
0
70
8
0
VERTEX
8
0
62
5
10
0.14142146
20
1.2399141
30
0
70
32
0
VERTEX
8
0
62
5
10
0.1767768
20
1.2399141
30
0
70
32
0
SEQEND
8
0
0
POLYLINE
8
0
62
5
66
1
10
0
20
0
30
0
70
8
0
VERTEX
8
0
62
5
10
0.03535544
20
1.2399141
30
0
70
32
0
VERTEX
8
0
62
5
10
0.070710779
20
1.2399141
30
0
70
32
0
SEQEND
8
0
0
POLYLINE
8
0
62
5
66
1
10
0
20
0
30
0
70
8
0
VERTEX
8
0
62
5
10
0.1767768
20
1.2399141
30
0
70
32
0
VERTEX
8
0
62
5
10
0.21213214
20
1.2399141
30
0
70
32
0
SEQEND
8
0
0
POLYLINE
8
0
62
5
66
1
10
0
20
0
30
0
70
8
0
VERTEX
8
0
62
5
10
0.070710779
20
1.1899141
30
0
70
32
0
VERTEX
8
0
62
5
10
0.070710779
20
1.2899141
30
0
70
32
0
SEQEND
8
0
0
POLYLINE
8
0
62
5
66
1
10
0
20
0
30
0
70
8
0
VERTEX
8
0
62
5
10
0.14142146
20
1.1899141
30
0
70
32
0
VERTEX
8
0
62
5
10
0.14142146
20
1.2899141
30
0
70
32
0
SEQEND
8
0
0
POLYLINE
8
0
62
5
66
1
10
0
20
0
30
0
70
8
0
VERTEX
8
0
62
5
10
0.21213214
20
1.1899141
30
0
70
32
0
VERTEX
8
0
62
5
10
0.21213214
20
1.2899141
30
0
70
32
0
SEQEND
8
0
0
POLYLINE
8
0
62
5
66
1
10
0
20
0
30
0
70
8
0
VERTEX
8
0
62
5
10
1.0096007e-07
20
1.1899141
30
0
70
32
0
VERTEX
8
0
62
5
10
1.0096007e-07
20
1.2899141
30
0
70
32
0
SEQEND
8
0
0
POLYLINE
8
0
62
5
66
1
10
0
20
0
30
0
70
8
0
VERTEX
8
0
62
5
10
0.56568553
20
1.2899141
30
0
70
32
0
VERTEX
8
0
62
5
10
0.56568553
20
1.1899141
30
0
70
32
0
SEQEND
8
0
0
POLYLINE
8
0
62
5
66
1
10
0
20
0
30
0
70
8
0
VERTEX
8
0
62
5
10
0.28284281
20
1.1899141
30
0
70
32
0
VERTEX
8
0
62
5
10
0.56568553
20
1.1899141
30
0
70
32
0
SEQEND
8
0
0
POLYLINE
8
0
62
5
66
1
10
0
20
0
30
0
70
8
0
VERTEX
8
0
62
5
10
0.28284281
20
1.2899141
30
0
70
32
0
VERTEX
8
0
62
5
10
0.56568553
20
1.2899141
30
0
70
32
0
SEQEND
8
0
0
POLYLINE
8
0
62
5
66
1
10
0
20
0
30
0
70
8
0
VERTEX
8
0
62
5
10
0.35355349
20
1.1899141
30
0
70
32
0
VERTEX
8
0
62
5
10
0.35355349
20
1.1899141
30
0
70
32
0
SEQEND
8
0
0
POLYLINE
8
0
62
5
66
1
10
0
20
0
30
0
70
8
0
VERTEX
8
0
62
5
10
0.42426417
20
1.1899141
30
0
70
32
0
VERTEX
8
0
62
5
10
0.42426417
20
1.1899141
30
0
70
32
0
SEQEND
8
0
0
POLYLINE
8
0
62
5
66
1
10
0
20
0
30
0
70
8
0
VERTEX
8
0
62
5
10
0.49497485
20
1.1899141
30
0
70
32
0
VERTEX
8
0
62
5
10
0.49497485
20
1.1899141
30
0
70
32
0
SEQEND
8
0
0
POLYLINE
8
0
62
5
66
1
10
0
20
0
30
0
70
8
0
VERTEX
8
0
62
5
10
0.35355349
20
1.2899141
30
0
70
32
0
VERTEX
8
0
62
5
10
0.35355349
20
1.2899141
30
0
70
32
0
SEQEND
8
0
0
POLYLINE
8
0
62
5
66
1
10
0
20
0
30
0
70
8
0
VERTEX
8
0
62
5
10
0.42426417
20
1.2899141
30
0
70
32
0
VERTEX
8
0
62
5
10
0.42426417
20
1.2899141
30
0
70
32
0
SEQEND
8
0
0
POLYLINE
8
0
62
5
66
1
10
0
20
0
30
0
70
8
0
VERTEX
8
0
62
5
10
0.49497485
20
1.2899141
30
0
70
32
0
VERTEX
8
0
62
5
10
0.49497485
20
1.2899141
30
0
70
32
0
SEQEND
8
0
0
POLYLINE
8
0
62
30
66
1
10
0
20
0
30
0
70
8
0
VERTEX
8
0
62
30
10
0.28284281
20
1.2899141
30
0
70
32
0
VERTEX
8
0
62
30
10
0.35355349
20
1.1899141
30
0
70
32
0
SEQEND
8
0
0
POLYLINE
8
0
62
30
66
1
10
0
20
0
30
0
70
8
0
VERTEX
8
0
62
30
10
0.35355349
20
1.2899141
30
0
70
32
0
VERTEX
8
0
62
30
10
0.28284281
20
1.1899141
30
0
70
32
0
SEQEND
8
0
0
POLYLINE
8
0
62
30
66
1
10
0
20
0
30
0
70
8
0
VERTEX
8
0
62
30
10
0.42426417
20
1.2899141
30
0
70
32
0
VERTEX
8
0
62
30
10
0.49497485
20
1.1899141
30
0
70
32
0
SEQEND
8
0
0
POLYLINE
8
0
62
30
66
1
10
0
20
0
30
0
70
8
0
VERTEX
8
0
62
30
10
0.49497485
20
1.2899141
30
0
70
32
0
VERTEX
8
0
62
30
10
0.42426417
20
1.1899141
30
0
70
32
0
SEQEND
8
0
0
POLYLINE
8
0
62
30
66
1
10
0
20
0
30
0
70
8
0
VERTEX
8
0
62
30
10
0.35355349
20
1.2399141
30
0
70
32
0
VERTEX
8
0
62
30
10
0.42426417
20
1.2399141
30
0
70
32
0
SEQEND
8
0
0
POLYLINE
8
0
62
30
66
1
10
0
20
0
30
0
70
8
0
VERTEX
8
0
62
30
10
0.49497485
20
1.2399141
30
0
70
32
0
VERTEX
8
0
62
30
10
0.56568553
20
1.2399141
30
0
70
32
0
SEQEND
8
0
0
POLYLINE
8
0
62
5
66
1
10
0
20
0
30
0
70
8
0
VERTEX
8
0
62
5
10
0.28284281
20
1.2399141
30
0
70
32
0
VERTEX
8
0
62
5
10
0.31819815
20
1.2399141
30
0
70
32
0
SEQEND
8
0
0
POLYLINE
8
0
62
5
66
1
10
0
20
0
30
0
70
8
0
VERTEX
8
0
62
5
10
0.42426417
20
1.2399141
30
0
70
32
0
VERTEX
8
0
62
5
10
0.45961951
20
1.2399141
30
0
70
32
0
SEQEND
8
0
0
POLYLINE
8
0
62
5
66
1
10
0
20
0
30
0
70
8
0
VERTEX
8
0
62
5
10
0.31819815
20
1.2399141
30
0
70
32
0
VERTEX
8
0
62
5
10
0.35355349
20
1.2399141
30
0
70
32
0
SEQEND
8
0
0
POLYLINE
8
0
62
5
66
1
10
0
20
0
30
0
70
8
0
VERTEX
8
0
62
5
10
0.45961951
20
1.2399141
30
0
70
32
0
VERTEX
8
0
62
5
10
0.49497485
20
1.2399141
30
0
70
32
0
SEQEND
8
0
0
POLYLINE
8
0
62
5
66
1
10
0
20
0
30
0
70
8
0
VERTEX
8
0
62
5
10
0.35355349
20
1.1899141
30
0
70
32
0
VERTEX
8
0
62
5
10
0.35355349
20
1.2899141
30
0
70
32
0
SEQEND
8
0
0
POLYLINE
8
0
62
5
66
1
10
0
20
0
30
0
70
8
0
VERTEX
8
0
62
5
10
0.42426417
20
1.1899141
30
0
70
32
0
VERTEX
8
0
62
5
10
0.42426417
20
1.2899141
30
0
70
32
0
SEQEND
8
0
0
POLYLINE
8
0
62
5
66
1
10
0
20
0
30
0
70
8
0
VERTEX
8
0
62
5
10
0.49497485
20
1.1899141
30
0
70
32
0
VERTEX
8
0
62
5
10
0.49497485
20
1.2899141
30
0
70
32
0
SEQEND
8
0
0
POLYLINE
8
0
62
5
66
1
10
0
20
0
30
0
70
8
0
VERTEX
8
0
62
5
10
0.28284281
20
1.1899141
30
0
70
32
0
VERTEX
8
0
62
5
10
0.28284281
20
1.2899141
30
0
70
32
0
SEQEND
8
0
0
POLYLINE
8
0
62
5
66
1
10
0
20
0
30
0
70
8
0
VERTEX
8
0
62
5
10
-0.28284261
20
1.1899141
30
0
70
32
0
VERTEX
8
0
62
5
10
-0.28284261
20
1.2899141
30
0
70
32
0
SEQEND
8
0
0
POLYLINE
8
0
62
5
66
1
10
0
20
0
30
0
70
8
0
VERTEX
8
0
62
5
10
-0.28284261
20
1.1899141
30
0
70
32
0
VERTEX
8
0
62
5
10
1.0096007e-07
20
1.1899141
30
0
70
32
0
SEQEND
8
0
0
POLYLINE
8
0
62
5
66
1
10
0
20
0
30
0
70
8
0
VERTEX
8
0
62
5
10
-0.28284261
20
1.2899141
30
0
70
32
0
VERTEX
8
0
62
5
10
1.0096007e-07
20
1.2899141
30
0
70
32
0
SEQEND
8
0
0
POLYLINE
8
0
62
5
66
1
10
0
20
0
30
0
70
8
0
VERTEX
8
0
62
5
10
-0.21213193
20
1.1899141
30
0
70
32
0
VERTEX
8
0
62
5
10
-0.21213193
20
1.1899141
30
0
70
32
0
SEQEND
8
0
0
POLYLINE
8
0
62
5
66
1
10
0
20
0
30
0
70
8
0
VERTEX
8
0
62
5
10
-0.14142126
20
1.1899141
30
0
70
32
0
VERTEX
8
0
62
5
10
-0.14142126
20
1.1899141
30
0
70
32
0
SEQEND
8
0
0
POLYLINE
8
0
62
5
66
1
10
0
20
0
30
0
70
8
0
VERTEX
8
0
62
5
10
-0.070710577
20
1.1899141
30
0
70
32
0
VERTEX
8
0
62
5
10
-0.070710577
20
1.1899141
30
0
70
32
0
SEQEND
8
0
0
POLYLINE
8
0
62
5
66
1
10
0
20
0
30
0
70
8
0
VERTEX
8
0
62
5
10
-0.21213193
20
1.2899141
30
0
70
32
0
VERTEX
8
0
62
5
10
-0.21213193
20
1.2899141
30
0
70
32
0
SEQEND
8
0
0
POLYLINE
8
0
62
5
66
1
10
0
20
0
30
0
70
8
0
VERTEX
8
0
62
5
10
-0.14142126
20
1.2899141
30
0
70
32
0
VERTEX
8
0
62
5
10
-0.14142126
20
1.2899141
30
0
70
32
0
SEQEND
8
0
0
POLYLINE
8
0
62
5
66
1
10
0
20
0
30
0
70
8
0
VERTEX
8
0
62
5
10
-0.070710577
20
1.2899141
30
0
70
32
0
VERTEX
8
0
62
5
10
-0.070710577
20
1.2899141
30
0
70
32
0
SEQEND
8
0
0
POLYLINE
8
0
62
30
66
1
10
0
20
0
30
0
70
8
0
VERTEX
8
0
62
30
10
-0.28284261
20
1.2899141
30
0
70
32
0
VERTEX
8
0
62
30
10
-0.21213193
20
1.1899141
30
0
70
32
0
SEQEND
8
0
0
POLYLINE
8
0
62
30
66
1
10
0
20
0
30
0
70
8
0
VERTEX
8
0
62
30
10
-0.21213193
20
1.2899141
30
0
70
32
0
VERTEX
8
0
62
30
10
-0.28284261
20
1.1899141
30
0
70
32
0
SEQEND
8
0
0
POLYLINE
8
0
62
30
66
1
10
0
20
0
30
0
70
8
0
VERTEX
8
0
62
30
10
-0.14142126
20
1.2899141
30
0
70
32
0
VERTEX
8
0
62
30
10
-0.070710577
20
1.1899141
30
0
70
32
0
SEQEND
8
0
0
POLYLINE
8
0
62
30
66
1
10
0
20
0
30
0
70
8
0
VERTEX
8
0
62
30
10
-0.070710577
20
1.2899141
30
0
70
32
0
VERTEX
8
0
62
30
10
-0.14142126
20
1.1899141
30
0
70
32
0
SEQEND
8
0
0
POLYLINE
8
0
62
30
66
1
10
0
20
0
30
0
70
8
0
VERTEX
8
0
62
30
10
-0.21213193
20
1.2399141
30
0
70
32
0
VERTEX
8
0
62
30
10
-0.14142126
20
1.2399141
30
0
70
32
0
SEQEND
8
0
0
POLYLINE
8
0
62
30
66
1
10
0
20
0
30
0
70
8
0
VERTEX
8
0
62
30
10
-0.070710577
20
1.2399141
30
0
70
32
0
VERTEX
8
0
62
30
10
1.0096007e-07
20
1.2399141
30
0
70
32
0
SEQEND
8
0
0
POLYLINE
8
0
62
5
66
1
10
0
20
0
30
0
70
8
0
VERTEX
8
0
62
5
10
-0.28284261
20
1.2399141
30
0
70
32
0
VERTEX
8
0
62
5
10
-0.24748727
20
1.2399141
30
0
70
32
0
SEQEND
8
0
0
POLYLINE
8
0
62
5
66
1
10
0
20
0
30
0
70
8
0
VERTEX
8
0
62
5
10
-0.14142126
20
1.2399141
30
0
70
32
0
VERTEX
8
0
62
5
10
-0.10606592
20
1.2399141
30
0
70
32
0
SEQEND
8
0
0
POLYLINE
8
0
62
5
66
1
10
0
20
0
30
0
70
8
0
VERTEX
8
0
62
5
10
-0.24748727
20
1.2399141
30
0
70
32
0
VERTEX
8
0
62
5
10
-0.21213193
20
1.2399141
30
0
70
32
0
SEQEND
8
0
0
POLYLINE
8
0
62
5
66
1
10
0
20
0
30
0
70
8
0
VERTEX
8
0
62
5
10
-0.10606592
20
1.2399141
30
0
70
32
0
VERTEX
8
0
62
5
10
-0.070710577
20
1.2399141
30
0
70
32
0
SEQEND
8
0
0
POLYLINE
8
0
62
5
66
1
10
0
20
0
30
0
70
8
0
VERTEX
8
0
62
5
10
-0.21213193
20
1.1899141
30
0
70
32
0
VERTEX
8
0
62
5
10
-0.21213193
20
1.2899141
30
0
70
32
0
SEQEND
8
0
0
POLYLINE
8
0
62
5
66
1
10
0
20
0
30
0
70
8
0
VERTEX
8
0
62
5
10
-0.14142126
20
1.1899141
30
0
70
32
0
VERTEX
8
0
62
5
10
-0.14142126
20
1.2899141
30
0
70
32
0
SEQEND
8
0
0
POLYLINE
8
0
62
5
66
1
10
0
20
0
30
0
70
8
0
VERTEX
8
0
62
5
10
-0.070710577
20
1.1899141
30
0
70
32
0
VERTEX
8
0
62
5
10
-0.070710577
20
1.2899141
30
0
70
32
0
SEQEND
8
0
0
POLYLINE
8
0
62
5
66
1
10
0
20
0
30
0
70
8
0
VERTEX
8
0
62
5
10
-0.28284261
20
1.1899141
30
0
70
32
0
VERTEX
8
0
62
5
10
-0.28284261
20
1.2899141
30
0
70
32
0
SEQEND
8
0
0
POLYLINE
8
0
62
5
66
1
10
0
20
0
30
0
70
8
0
VERTEX
8
0
62
5
10
1.0096007e-07
20
1.2899141
30
0
70
32
0
VERTEX
8
0
62
5
10
1.0096007e-07
20
1.4035225
30
0
70
32
0
SEQEND
8
0
0
POLYLINE
8
0
62
5
66
1
10
0
20
0
30
0
70
8
0
VERTEX
8
0
62
5
10
0.28284281
20
1.4035225
30
0
70
32
0
VERTEX
8
0
62
5
10
0.28284281
20
1.2899141
30
0
70
32
0
SEQEND
8
0
0
POLYLINE
8
0
62
5
66
1
10
0
20
0
30
0
70
8
0
VERTEX
8
0
62
5
10
1.0096007e-07
20
1.3467183
30
0
70
32
0
VERTEX
8
0
62
5
10
0.070710779
20
1.2996602
30
0
70
32
0
VERTEX
8
0
62
5
10
0.14142146
20
1.2996602
30
0
70
32
0
VERTEX
8
0
62
5
10
0.21213214
20
1.3467183
30
0
70
32
0
VERTEX
8
0
62
5
10
0.28284281
20
1.3467183
30
0
70
32
0
SEQEND
8
0
0
POLYLINE
8
0
62
5
66
1
10
0
20
0
30
0
70
8
0
SEQEND
8
0
0
POLYLINE
8
0
62
5
66
1
10
0
20
0
30
0
70
8
0
VERTEX
8
0
62
5
10
1.0096007e-07
20
1.3467183
30
0
70
32
0
VERTEX
8
0
62
5
10
0.070710779
20
1.3937765
30
0
70
32
0
VERTEX
8
0
62
5
10
0.14142146
20
1.3937765
30
0
70
32
0
VERTEX
8
0
62
5
10
0.21213214
20
1.3467183
30
0
70
32
0
VERTEX
8
0
62
5
10
0.28284281
20
1.3467183
30
0
70
32
0
SEQEND
8
0
0
POLYLINE
8
0
62
30
66
1
10
0
20
0
30
0
70
8
0
VERTEX
8
0
62
30
10
1.0096007e-07
20
1.3467183
30
0
70
32
0
VERTEX
8
0
62
30
10
0.28284281
20
1.3467183
30
0
70
32
0
SEQEND
8
0
0
POLYLINE
8
0
62
30
66
1
10
0
20
0
30
0
70
8
0
VERTEX
8
0
62
30
10
0.070710779
20
1.2996602
30
0
70
32
0
VERTEX
8
0
62
30
10
0.070710779
20
1.3467183
30
0
70
32
0
SEQEND
8
0
0
POLYLINE
8
0
62
30
66
1
10
0
20
0
30
0
70
8
0
VERTEX
8
0
62
30
10
0.14142146
20
1.2996602
30
0
70
32
0
VERTEX
8
0
62
30
10
0.14142146
20
1.3467183
30
0
70
32
0
SEQEND
8
0
0
POLYLINE
8
0
62
30
66
1
10
0
20
0
30
0
70
8
0
VERTEX
8
0
62
30
10
0.21213214
20
1.3467183
30
0
70
32
0
VERTEX
8
0
62
30
10
0.21213214
20
1.3467183
30
0
70
32
0
SEQEND
8
0
0
POLYLINE
8
0
62
5
66
1
10
0
20
0
30
0
70
8
0
VERTEX
8
0
62
5
10
0.070710779
20
1.2899141
30
0
70
32
0
VERTEX
8
0
62
5
10
0.070710779
20
1.2996602
30
0
70
32
0
SEQEND
8
0
0
POLYLINE
8
0
62
5
66
1
10
0
20
0
30
0
70
8
0
VERTEX
8
0
62
5
10
0.14142146
20
1.2899141
30
0
70
32
0
VERTEX
8
0
62
5
10
0.14142146
20
1.2996602
30
0
70
32
0
SEQEND
8
0
0
POLYLINE
8
0
62
5
66
1
10
0
20
0
30
0
70
8
0
VERTEX
8
0
62
5
10
0.21213214
20
1.2899141
30
0
70
32
0
VERTEX
8
0
62
5
10
0.21213214
20
1.3467183
30
0
70
32
0
SEQEND
8
0
0
POLYLINE
8
0
62
5
66
1
10
0
20
0
30
0
70
8
0
VERTEX
8
0
62
5
10
0.070710779
20
1.3467183
30
0
70
32
0
VERTEX
8
0
62
5
10
0.070710779
20
1.4035225
30
0
70
32
0
SEQEND
8
0
0
POLYLINE
8
0
62
5
66
1
10
0
20
0
30
0
70
8
0
VERTEX
8
0
62
5
10
0.14142146
20
1.3467183
30
0
70
32
0
VERTEX
8
0
62
5
10
0.14142146
20
1.4035225
30
0
70
32
0
SEQEND
8
0
0
POLYLINE
8
0
62
5
66
1
10
0
20
0
30
0
70
8
0
VERTEX
8
0
62
5
10
0.21213214
20
1.3467183
30
0
70
32
0
VERTEX
8
0
62
5
10
0.21213214
20
1.4035225
30
0
70
32
0
SEQEND
8
0
0
POLYLINE
8
0
62
30
66
1
10
0
20
0
30
0
70
8
0
VERTEX
8
0
62
30
10
1.0096007e-07
20
1.3467183
30
0
70
32
0
VERTEX
8
0
62
30
10
1.0244083e-07
20
1.3467183
30
0
70
32
0
VERTEX
8
0
62
30
10
1.0096007e-07
20
1.3467183
30
0
70
32
0
SEQEND
8
0
0
POLYLINE
8
0
62
30
66
1
10
0
20
0
30
0
70
8
0
VERTEX
8
0
62
30
10
0.070710779
20
1.2996602
30
0
70
32
0
VERTEX
8
0
62
30
10
0.095919944
20
1.3467183
30
0
70
32
0
VERTEX
8
0
62
30
10
0.070710779
20
1.3937765
30
0
70
32
0
SEQEND
8
0
0
POLYLINE
8
0
62
30
66
1
10
0
20
0
30
0
70
8
0
VERTEX
8
0
62
30
10
0.14142146
20
1.2996602
30
0
70
32
0
VERTEX
8
0
62
30
10
0.16663062
20
1.3467183
30
0
70
32
0
VERTEX
8
0
62
30
10
0.14142146
20
1.3937765
30
0
70
32
0
SEQEND
8
0
0
POLYLINE
8
0
62
30
66
1
10
0
20
0
30
0
70
8
0
VERTEX
8
0
62
30
10
0.21213214
20
1.3467183
30
0
70
32
0
VERTEX
8
0
62
30
10
0.21213214
20
1.3467183
30
0
70
32
0
VERTEX
8
0
62
30
10
0.21213214
20
1.3467183
30
0
70
32
0
SEQEND
8
0
0
POLYLINE
8
0
62
5
66
1
10
0
20
0
30
0
70
8
0
VERTEX
8
0
62
5
10
0.56568553
20
1.4035225
30
0
70
32
0
VERTEX
8
0
62
5
10
0.56568553
20
1.2899141
30
0
70
32
0
SEQEND
8
0
0
POLYLINE
8
0
62
5
66
1
10
0
20
0
30
0
70
8
0
VERTEX
8
0
62
5
10
0.28284281
20
1.3467183
30
0
70
32
0
VERTEX
8
0
62
5
10
0.35355349
20
1.2996602
30
0
70
32
0
VERTEX
8
0
62
5
10
0.42426417
20
1.2996602
30
0
70
32
0
VERTEX
8
0
62
5
10
0.49497485
20
1.3467183
30
0
70
32
0
VERTEX
8
0
62
5
10
0.56568553
20
1.3467183
30
0
70
32
0
SEQEND
8
0
0
POLYLINE
8
0
62
5
66
1
10
0
20
0
30
0
70
8
0
SEQEND
8
0
0
POLYLINE
8
0
62
5
66
1
10
0
20
0
30
0
70
8
0
VERTEX
8
0
62
5
10
0.28284281
20
1.3467183
30
0
70
32
0
VERTEX
8
0
62
5
10
0.35355349
20
1.3937765
30
0
70
32
0
VERTEX
8
0
62
5
10
0.42426417
20
1.3937765
30
0
70
32
0
VERTEX
8
0
62
5
10
0.49497485
20
1.3467183
30
0
70
32
0
VERTEX
8
0
62
5
10
0.56568553
20
1.3467183
30
0
70
32
0
SEQEND
8
0
0
POLYLINE
8
0
62
30
66
1
10
0
20
0
30
0
70
8
0
VERTEX
8
0
62
30
10
0.28284281
20
1.3467183
30
0
70
32
0
VERTEX
8
0
62
30
10
0.56568553
20
1.3467183
30
0
70
32
0
SEQEND
8
0
0
POLYLINE
8
0
62
30
66
1
10
0
20
0
30
0
70
8
0
VERTEX
8
0
62
30
10
0.35355349
20
1.2996602
30
0
70
32
0
VERTEX
8
0
62
30
10
0.35355349
20
1.3467183
30
0
70
32
0
SEQEND
8
0
0
POLYLINE
8
0
62
30
66
1
10
0
20
0
30
0
70
8
0
VERTEX
8
0
62
30
10
0.42426417
20
1.2996602
30
0
70
32
0
VERTEX
8
0
62
30
10
0.42426417
20
1.3467183
30
0
70
32
0
SEQEND
8
0
0
POLYLINE
8
0
62
30
66
1
10
0
20
0
30
0
70
8
0
VERTEX
8
0
62
30
10
0.49497485
20
1.3467183
30
0
70
32
0
VERTEX
8
0
62
30
10
0.49497485
20
1.3467183
30
0
70
32
0
SEQEND
8
0
0
POLYLINE
8
0
62
5
66
1
10
0
20
0
30
0
70
8
0
VERTEX
8
0
62
5
10
0.35355349
20
1.2899141
30
0
70
32
0
VERTEX
8
0
62
5
10
0.35355349
20
1.2996602
30
0
70
32
0
SEQEND
8
0
0
POLYLINE
8
0
62
5
66
1
10
0
20
0
30
0
70
8
0
VERTEX
8
0
62
5
10
0.42426417
20
1.2899141
30
0
70
32
0
VERTEX
8
0
62
5
10
0.42426417
20
1.2996602
30
0
70
32
0
SEQEND
8
0
0
POLYLINE
8
0
62
5
66
1
10
0
20
0
30
0
70
8
0
VERTEX
8
0
62
5
10
0.49497485
20
1.2899141
30
0
70
32
0
VERTEX
8
0
62
5
10
0.49497485
20
1.3467183
30
0
70
32
0
SEQEND
8
0
0
POLYLINE
8
0
62
5
66
1
10
0
20
0
30
0
70
8
0
VERTEX
8
0
62
5
10
0.35355349
20
1.3467183
30
0
70
32
0
VERTEX
8
0
62
5
10
0.35355349
20
1.4035225
30
0
70
32
0
SEQEND
8
0
0
POLYLINE
8
0
62
5
66
1
10
0
20
0
30
0
70
8
0
VERTEX
8
0
62
5
10
0.42426417
20
1.3467183
30
0
70
32
0
VERTEX
8
0
62
5
10
0.42426417
20
1.4035225
30
0
70
32
0
SEQEND
8
0
0
POLYLINE
8
0
62
5
66
1
10
0
20
0
30
0
70
8
0
VERTEX
8
0
62
5
10
0.49497485
20
1.3467183
30
0
70
32
0
VERTEX
8
0
62
5
10
0.49497485
20
1.4035225
30
0
70
32
0
SEQEND
8
0
0
POLYLINE
8
0
62
30
66
1
10
0
20
0
30
0
70
8
0
VERTEX
8
0
62
30
10
0.28284281
20
1.3467183
30
0
70
32
0
VERTEX
8
0
62
30
10
0.28284281
20
1.3467183
30
0
70
32
0
VERTEX
8
0
62
30
10
0.28284281
20
1.3467183
30
0
70
32
0
SEQEND
8
0
0
POLYLINE
8
0
62
30
66
1
10
0
20
0
30
0
70
8
0
VERTEX
8
0
62
30
10
0.35355349
20
1.2996602
30
0
70
32
0
VERTEX
8
0
62
30
10
0.37876266
20
1.3467183
30
0
70
32
0
VERTEX
8
0
62
30
10
0.35355349
20
1.3937765
30
0
70
32
0
SEQEND
8
0
0
POLYLINE
8
0
62
30
66
1
10
0
20
0
30
0
70
8
0
VERTEX
8
0
62
30
10
0.42426417
20
1.2996602
30
0
70
32
0
VERTEX
8
0
62
30
10
0.44947333
20
1.3467183
30
0
70
32
0
VERTEX
8
0
62
30
10
0.42426417
20
1.3937765
30
0
70
32
0
SEQEND
8
0
0
POLYLINE
8
0
62
30
66
1
10
0
20
0
30
0
70
8
0
VERTEX
8
0
62
30
10
0.49497485
20
1.3467183
30
0
70
32
0
VERTEX
8
0
62
30
10
0.49497485
20
1.3467183
30
0
70
32
0
VERTEX
8
0
62
30
10
0.49497485
20
1.3467183
30
0
70
32
0
SEQEND
8
0
0
POLYLINE
8
0
62
5
66
1
10
0
20
0
30
0
70
8
0
VERTEX
8
0
62
5
10
-0.28284261
20
1.2899141
30
0
70
32
0
VERTEX
8
0
62
5
10
-0.28284261
20
1.4035225
30
0
70
32
0
SEQEND
8
0
0
POLYLINE
8
0
62
5
66
1
10
0
20
0
30
0
70
8
0
VERTEX
8
0
62
5
10
-0.28284261
20
1.3467183
30
0
70
32
0
VERTEX
8
0
62
5
10
-0.21213193
20
1.2996602
30
0
70
32
0
VERTEX
8
0
62
5
10
-0.14142126
20
1.2996602
30
0
70
32
0
VERTEX
8
0
62
5
10
-0.070710577
20
1.3467183
30
0
70
32
0
VERTEX
8
0
62
5
10
1.0096007e-07
20
1.3467183
30
0
70
32
0
SEQEND
8
0
0
POLYLINE
8
0
62
5
66
1
10
0
20
0
30
0
70
8
0
SEQEND
8
0
0
POLYLINE
8
0
62
5
66
1
10
0
20
0
30
0
70
8
0
VERTEX
8
0
62
5
10
-0.28284261
20
1.3467183
30
0
70
32
0
VERTEX
8
0
62
5
10
-0.21213193
20
1.3937765
30
0
70
32
0
VERTEX
8
0
62
5
10
-0.14142126
20
1.3937765
30
0
70
32
0
VERTEX
8
0
62
5
10
-0.070710577
20
1.3467183
30
0
70
32
0
VERTEX
8
0
62
5
10
1.0096007e-07
20
1.3467183
30
0
70
32
0
SEQEND
8
0
0
POLYLINE
8
0
62
30
66
1
10
0
20
0
30
0
70
8
0
VERTEX
8
0
62
30
10
-0.28284261
20
1.3467183
30
0
70
32
0
VERTEX
8
0
62
30
10
1.0096007e-07
20
1.3467183
30
0
70
32
0
SEQEND
8
0
0
POLYLINE
8
0
62
30
66
1
10
0
20
0
30
0
70
8
0
VERTEX
8
0
62
30
10
-0.21213193
20
1.2996602
30
0
70
32
0
VERTEX
8
0
62
30
10
-0.21213193
20
1.3467183
30
0
70
32
0
SEQEND
8
0
0
POLYLINE
8
0
62
30
66
1
10
0
20
0
30
0
70
8
0
VERTEX
8
0
62
30
10
-0.14142126
20
1.2996602
30
0
70
32
0
VERTEX
8
0
62
30
10
-0.14142126
20
1.3467183
30
0
70
32
0
SEQEND
8
0
0
POLYLINE
8
0
62
30
66
1
10
0
20
0
30
0
70
8
0
VERTEX
8
0
62
30
10
-0.070710577
20
1.3467183
30
0
70
32
0
VERTEX
8
0
62
30
10
-0.070710577
20
1.3467183
30
0
70
32
0
SEQEND
8
0
0
POLYLINE
8
0
62
5
66
1
10
0
20
0
30
0
70
8
0
VERTEX
8
0
62
5
10
-0.21213193
20
1.2899141
30
0
70
32
0
VERTEX
8
0
62
5
10
-0.21213193
20
1.2996602
30
0
70
32
0
SEQEND
8
0
0
POLYLINE
8
0
62
5
66
1
10
0
20
0
30
0
70
8
0
VERTEX
8
0
62
5
10
-0.14142126
20
1.2899141
30
0
70
32
0
VERTEX
8
0
62
5
10
-0.14142126
20
1.2996602
30
0
70
32
0
SEQEND
8
0
0
POLYLINE
8
0
62
5
66
1
10
0
20
0
30
0
70
8
0
VERTEX
8
0
62
5
10
-0.070710577
20
1.2899141
30
0
70
32
0
VERTEX
8
0
62
5
10
-0.070710577
20
1.3467183
30
0
70
32
0
SEQEND
8
0
0
POLYLINE
8
0
62
5
66
1
10
0
20
0
30
0
70
8
0
VERTEX
8
0
62
5
10
-0.21213193
20
1.3467183
30
0
70
32
0
VERTEX
8
0
62
5
10
-0.21213193
20
1.4035225
30
0
70
32
0
SEQEND
8
0
0
POLYLINE
8
0
62
5
66
1
10
0
20
0
30
0
70
8
0
VERTEX
8
0
62
5
10
-0.14142126
20
1.3467183
30
0
70
32
0
VERTEX
8
0
62
5
10
-0.14142126
20
1.4035225
30
0
70
32
0
SEQEND
8
0
0
POLYLINE
8
0
62
5
66
1
10
0
20
0
30
0
70
8
0
VERTEX
8
0
62
5
10
-0.070710577
20
1.3467183
30
0
70
32
0
VERTEX
8
0
62
5
10
-0.070710577
20
1.4035225
30
0
70
32
0
SEQEND
8
0
0
POLYLINE
8
0
62
30
66
1
10
0
20
0
30
0
70
8
0
VERTEX
8
0
62
30
10
-0.28284261
20
1.3467183
30
0
70
32
0
VERTEX
8
0
62
30
10
-0.28284261
20
1.3467183
30
0
70
32
0
VERTEX
8
0
62
30
10
-0.28284261
20
1.3467183
30
0
70
32
0
SEQEND
8
0
0
POLYLINE
8
0
62
30
66
1
10
0
20
0
30
0
70
8
0
VERTEX
8
0
62
30
10
-0.21213193
20
1.2996602
30
0
70
32
0
VERTEX
8
0
62
30
10
-0.18692277
20
1.3467183
30
0
70
32
0
VERTEX
8
0
62
30
10
-0.21213193
20
1.3937765
30
0
70
32
0
SEQEND
8
0
0
POLYLINE
8
0
62
30
66
1
10
0
20
0
30
0
70
8
0
VERTEX
8
0
62
30
10
-0.14142126
20
1.2996602
30
0
70
32
0
VERTEX
8
0
62
30
10
-0.11621209
20
1.3467183
30
0
70
32
0
VERTEX
8
0
62
30
10
-0.14142126
20
1.3937765
30
0
70
32
0
SEQEND
8
0
0
POLYLINE
8
0
62
30
66
1
10
0
20
0
30
0
70
8
0
VERTEX
8
0
62
30
10
-0.070710577
20
1.3467183
30
0
70
32
0
VERTEX
8
0
62
30
10
-0.070710577
20
1.3467183
30
0
70
32
0
VERTEX
8
0
62
30
10
-0.070710577
20
1.3467183
30
0
70
32
0
SEQEND
8
0
0
POLYLINE
8
0
62
5
66
1
10
0
20
0
30
0
70
8
0
VERTEX
8
0
62
5
10
1.0096007e-07
20
1.4035225
30
0
70
32
0
VERTEX
8
0
62
5
10
1.0096007e-07
20
1.4204892
30
0
70
32
0
SEQEND
8
0
0
POLYLINE
8
0
62
5
66
1
10
0
20
0
30
0
70
8
0
VERTEX
8
0
62
5
10
0.070710779
20
1.4035225
30
0
70
32
0
VERTEX
8
0
62
5
10
0.070710779
20
1.4204892
30
0
70
32
0
SEQEND
8
0
0
POLYLINE
8
0
62
5
66
1
10
0
20
0
30
0
70
8
0
VERTEX
8
0
62
5
10
0.14142146
20
1.4035225
30
0
70
32
0
VERTEX
8
0
62
5
10
0.14142146
20
1.4204892
30
0
70
32
0
SEQEND
8
0
0
POLYLINE
8
0
62
5
66
1
10
0
20
0
30
0
70
8
0
VERTEX
8
0
62
5
10
0.21213214
20
1.4035225
30
0
70
32
0
VERTEX
8
0
62
5
10
0.21213214
20
1.4204892
30
0
70
32
0
SEQEND
8
0
0
POLYLINE
8
0
62
5
66
1
10
0
20
0
30
0
70
8
0
VERTEX
8
0
62
5
10
0.28284281
20
1.4035225
30
0
70
32
0
VERTEX
8
0
62
5
10
0.28284281
20
1.4204892
30
0
70
32
0
SEQEND
8
0
0
POLYLINE
8
0
62
5
66
1
10
0
20
0
30
0
70
8
0
VERTEX
8
0
62
5
10
0.070710779
20
1.4035225
30
0
70
32
0
VERTEX
8
0
62
5
10
0.070710779
20
1.4035225
30
0
70
32
0
SEQEND
8
0
0
POLYLINE
8
0
62
5
66
1
10
0
20
0
30
0
70
8
0
VERTEX
8
0
62
5
10
0.14142146
20
1.4035225
30
0
70
32
0
VERTEX
8
0
62
5
10
0.14142146
20
1.4035225
30
0
70
32
0
SEQEND
8
0
0
POLYLINE
8
0
62
5
66
1
10
0
20
0
30
0
70
8
0
VERTEX
8
0
62
5
10
0.21213214
20
1.4035225
30
0
70
32
0
VERTEX
8
0
62
5
10
0.21213214
20
1.4035225
30
0
70
32
0
SEQEND
8
0
0
POLYLINE
8
0
62
5
66
1
10
0
20
0
30
0
70
8
0
VERTEX
8
0
62
5
10
0.070710779
20
1.4204892
30
0
70
32
0
VERTEX
8
0
62
5
10
0.070710779
20
1.4204892
30
0
70
32
0
SEQEND
8
0
0
POLYLINE
8
0
62
5
66
1
10
0
20
0
30
0
70
8
0
VERTEX
8
0
62
5
10
0.14142146
20
1.4204892
30
0
70
32
0
VERTEX
8
0
62
5
10
0.14142146
20
1.4204892
30
0
70
32
0
SEQEND
8
0
0
POLYLINE
8
0
62
5
66
1
10
0
20
0
30
0
70
8
0
VERTEX
8
0
62
5
10
0.21213214
20
1.4204892
30
0
70
32
0
VERTEX
8
0
62
5
10
0.21213214
20
1.4204892
30
0
70
32
0
SEQEND
8
0
0
POLYLINE
8
0
62
5
66
1
10
0
20
0
30
0
70
8
0
VERTEX
8
0
62
5
10
0.28284281
20
1.4204892
30
0
70
32
0
VERTEX
8
0
62
5
10
0.28284281
20
1.4204892
30
0
70
32
0
SEQEND
8
0
0
POLYLINE
8
0
62
5
66
1
10
0
20
0
30
0
70
8
0
VERTEX
8
0
62
5
10
0.35355349
20
1.4035225
30
0
70
32
0
VERTEX
8
0
62
5
10
0.35355349
20
1.4204892
30
0
70
32
0
SEQEND
8
0
0
POLYLINE
8
0
62
5
66
1
10
0
20
0
30
0
70
8
0
VERTEX
8
0
62
5
10
0.42426417
20
1.4035225
30
0
70
32
0
VERTEX
8
0
62
5
10
0.42426417
20
1.4204892
30
0
70
32
0
SEQEND
8
0
0
POLYLINE
8
0
62
5
66
1
10
0
20
0
30
0
70
8
0
VERTEX
8
0
62
5
10
0.49497485
20
1.4035225
30
0
70
32
0
VERTEX
8
0
62
5
10
0.49497485
20
1.4204892
30
0
70
32
0
SEQEND
8
0
0
POLYLINE
8
0
62
5
66
1
10
0
20
0
30
0
70
8
0
VERTEX
8
0
62
5
10
0.56568553
20
1.4035225
30
0
70
32
0
VERTEX
8
0
62
5
10
0.56568553
20
1.4204892
30
0
70
32
0
SEQEND
8
0
0
POLYLINE
8
0
62
5
66
1
10
0
20
0
30
0
70
8
0
VERTEX
8
0
62
5
10
0.35355349
20
1.4035225
30
0
70
32
0
VERTEX
8
0
62
5
10
0.35355349
20
1.4035225
30
0
70
32
0
SEQEND
8
0
0
POLYLINE
8
0
62
5
66
1
10
0
20
0
30
0
70
8
0
VERTEX
8
0
62
5
10
0.42426417
20
1.4035225
30
0
70
32
0
VERTEX
8
0
62
5
10
0.42426417
20
1.4035225
30
0
70
32
0
SEQEND
8
0
0
POLYLINE
8
0
62
5
66
1
10
0
20
0
30
0
70
8
0
VERTEX
8
0
62
5
10
0.49497485
20
1.4035225
30
0
70
32
0
VERTEX
8
0
62
5
10
0.49497485
20
1.4035225
30
0
70
32
0
SEQEND
8
0
0
POLYLINE
8
0
62
5
66
1
10
0
20
0
30
0
70
8
0
VERTEX
8
0
62
5
10
0.35355349
20
1.4204892
30
0
70
32
0
VERTEX
8
0
62
5
10
0.35355349
20
1.4204892
30
0
70
32
0
SEQEND
8
0
0
POLYLINE
8
0
62
5
66
1
10
0
20
0
30
0
70
8
0
VERTEX
8
0
62
5
10
0.42426417
20
1.4204892
30
0
70
32
0
VERTEX
8
0
62
5
10
0.42426417
20
1.4204892
30
0
70
32
0
SEQEND
8
0
0
POLYLINE
8
0
62
5
66
1
10
0
20
0
30
0
70
8
0
VERTEX
8
0
62
5
10
0.49497485
20
1.4204892
30
0
70
32
0
VERTEX
8
0
62
5
10
0.49497485
20
1.4204892
30
0
70
32
0
SEQEND
8
0
0
POLYLINE
8
0
62
5
66
1
10
0
20
0
30
0
70
8
0
VERTEX
8
0
62
5
10
0.56568553
20
1.4204892
30
0
70
32
0
VERTEX
8
0
62
5
10
0.56568553
20
1.4204892
30
0
70
32
0
SEQEND
8
0
0
POLYLINE
8
0
62
5
66
1
10
0
20
0
30
0
70
8
0
VERTEX
8
0
62
5
10
-0.21213193
20
1.4035225
30
0
70
32
0
VERTEX
8
0
62
5
10
-0.21213193
20
1.4204892
30
0
70
32
0
SEQEND
8
0
0
POLYLINE
8
0
62
5
66
1
10
0
20
0
30
0
70
8
0
VERTEX
8
0
62
5
10
-0.14142126
20
1.4035225
30
0
70
32
0
VERTEX
8
0
62
5
10
-0.14142126
20
1.4204892
30
0
70
32
0
SEQEND
8
0
0
POLYLINE
8
0
62
5
66
1
10
0
20
0
30
0
70
8
0
VERTEX
8
0
62
5
10
-0.070710577
20
1.4035225
30
0
70
32
0
VERTEX
8
0
62
5
10
-0.070710577
20
1.4204892
30
0
70
32
0
SEQEND
8
0
0
POLYLINE
8
0
62
5
66
1
10
0
20
0
30
0
70
8
0
VERTEX
8
0
62
5
10
1.0096007e-07
20
1.4035225
30
0
70
32
0
VERTEX
8
0
62
5
10
1.0096007e-07
20
1.4204892
30
0
70
32
0
SEQEND
8
0
0
POLYLINE
8
0
62
5
66
1
10
0
20
0
30
0
70
8
0
VERTEX
8
0
62
5
10
-0.21213193
20
1.4035225
30
0
70
32
0
VERTEX
8
0
62
5
10
-0.21213193
20
1.4035225
30
0
70
32
0
SEQEND
8
0
0
POLYLINE
8
0
62
5
66
1
10
0
20
0
30
0
70
8
0
VERTEX
8
0
62
5
10
-0.14142126
20
1.4035225
30
0
70
32
0
VERTEX
8
0
62
5
10
-0.14142126
20
1.4035225
30
0
70
32
0
SEQEND
8
0
0
POLYLINE
8
0
62
5
66
1
10
0
20
0
30
0
70
8
0
VERTEX
8
0
62
5
10
-0.070710577
20
1.4035225
30
0
70
32
0
VERTEX
8
0
62
5
10
-0.070710577
20
1.4035225
30
0
70
32
0
SEQEND
8
0
0
POLYLINE
8
0
62
5
66
1
10
0
20
0
30
0
70
8
0
VERTEX
8
0
62
5
10
-0.21213193
20
1.4204892
30
0
70
32
0
VERTEX
8
0
62
5
10
-0.21213193
20
1.4204892
30
0
70
32
0
SEQEND
8
0
0
POLYLINE
8
0
62
5
66
1
10
0
20
0
30
0
70
8
0
VERTEX
8
0
62
5
10
-0.14142126
20
1.4204892
30
0
70
32
0
VERTEX
8
0
62
5
10
-0.14142126
20
1.4204892
30
0
70
32
0
SEQEND
8
0
0
POLYLINE
8
0
62
5
66
1
10
0
20
0
30
0
70
8
0
VERTEX
8
0
62
5
10
-0.070710577
20
1.4204892
30
0
70
32
0
VERTEX
8
0
62
5
10
-0.070710577
20
1.4204892
30
0
70
32
0
SEQEND
8
0
0
POLYLINE
8
0
62
5
66
1
10
0
20
0
30
0
70
8
0
VERTEX
8
0
62
5
10
1.007025e-07
20
1.4204892
30
0
70
32
0
VERTEX
8
0
62
5
10
1.007025e-07
20
1.4204892
30
0
70
32
0
SEQEND
8
0
0
POLYLINE
8
0
62
5
66
1
10
0
20
0
30
0
70
8
0
VERTEX
8
0
62
5
10
1.007025e-07
20
1.4204892
30
0
70
32
0
VERTEX
8
0
62
5
10
1.007025e-07
20
1.4883559
30
0
70
32
0
SEQEND
8
0
0
POLYLINE
8
0
62
5
66
1
10
0
20
0
30
0
70
8
0
VERTEX
8
0
62
5
10
0.28284281
20
1.4204892
30
0
70
32
0
VERTEX
8
0
62
5
10
0.28284281
20
1.4883559
30
0
70
32
0
SEQEND
8
0
0
POLYLINE
8
0
62
5
66
1
10
0
20
0
30
0
70
8
0
VERTEX
8
0
62
5
10
0.070710779
20
1.4204892
30
0
70
32
0
VERTEX
8
0
62
5
10
0.070710779
20
1.4883559
30
0
70
32
0
SEQEND
8
0
0
POLYLINE
8
0
62
5
66
1
10
0
20
0
30
0
70
8
0
VERTEX
8
0
62
5
10
0.14142146
20
1.4204892
30
0
70
32
0
VERTEX
8
0
62
5
10
0.14142146
20
1.4883559
30
0
70
32
0
SEQEND
8
0
0
POLYLINE
8
0
62
5
66
1
10
0
20
0
30
0
70
8
0
VERTEX
8
0
62
5
10
0.21213214
20
1.4204892
30
0
70
32
0
VERTEX
8
0
62
5
10
0.21213214
20
1.4883559
30
0
70
32
0
SEQEND
8
0
0
POLYLINE
8
0
62
5
66
1
10
0
20
0
30
0
70
8
0
VERTEX
8
0
62
5
10
0.56568553
20
1.4204892
30
0
70
32
0
VERTEX
8
0
62
5
10
0.56568553
20
1.4883559
30
0
70
32
0
SEQEND
8
0
0
POLYLINE
8
0
62
5
66
1
10
0
20
0
30
0
70
8
0
VERTEX
8
0
62
5
10
0.35355349
20
1.4204892
30
0
70
32
0
VERTEX
8
0
62
5
10
0.35355349
20
1.4883559
30
0
70
32
0
SEQEND
8
0
0
POLYLINE
8
0
62
5
66
1
10
0
20
0
30
0
70
8
0
VERTEX
8
0
62
5
10
0.42426417
20
1.4204892
30
0
70
32
0
VERTEX
8
0
62
5
10
0.42426417
20
1.4883559
30
0
70
32
0
SEQEND
8
0
0
POLYLINE
8
0
62
5
66
1
10
0
20
0
30
0
70
8
0
VERTEX
8
0
62
5
10
0.49497485
20
1.4204892
30
0
70
32
0
VERTEX
8
0
62
5
10
0.49497485
20
1.4883559
30
0
70
32
0
SEQEND
8
0
0
POLYLINE
8
0
62
5
66
1
10
0
20
0
30
0
70
8
0
VERTEX
8
0
62
5
10
-0.28284261
20
1.4204892
30
0
70
32
0
VERTEX
8
0
62
5
10
-0.28284261
20
1.4883559
30
0
70
32
0
SEQEND
8
0
0
POLYLINE
8
0
62
5
66
1
10
0
20
0
30
0
70
8
0
VERTEX
8
0
62
5
10
-0.21213193
20
1.4204892
30
0
70
32
0
VERTEX
8
0
62
5
10
-0.21213193
20
1.4883559
30
0
70
32
0
SEQEND
8
0
0
POLYLINE
8
0
62
5
66
1
10
0
20
0
30
0
70
8
0
VERTEX
8
0
62
5
10
-0.14142126
20
1.4204892
30
0
70
32
0
VERTEX
8
0
62
5
10
-0.14142126
20
1.4883559
30
0
70
32
0
SEQEND
8
0
0
POLYLINE
8
0
62
5
66
1
10
0
20
0
30
0
70
8
0
VERTEX
8
0
62
5
10
-0.070710577
20
1.4204892
30
0
70
32
0
VERTEX
8
0
62
5
10
-0.070710577
20
1.4883559
30
0
70
32
0
SEQEND
8
0
0
POLYLINE
8
0
62
5
66
1
10
0
20
0
30
0
70
8
0
VERTEX
8
0
62
5
10
1.007025e-07
20
1.4883559
30
0
70
32
0
VERTEX
8
0
62
5
10
1.007025e-07
20
1.5219838
30
0
70
32
0
SEQEND
8
0
0
POLYLINE
8
0
62
5
66
1
10
0
20
0
30
0
70
8
0
VERTEX
8
0
62
5
10
0.28284281
20
1.5219838
30
0
70
32
0
VERTEX
8
0
62
5
10
0.28284281
20
1.4883559
30
0
70
32
0
SEQEND
8
0
0
POLYLINE
8
0
62
5
66
1
10
0
20
0
30
0
70
8
0
VERTEX
8
0
62
5
10
1.007025e-07
20
1.4912407
30
0
70
32
0
VERTEX
8
0
62
5
10
0.070710779
20
1.5051698
30
0
70
32
0
VERTEX
8
0
62
5
10
0.14142146
20
1.5051698
30
0
70
32
0
VERTEX
8
0
62
5
10
0.21213214
20
1.4912407
30
0
70
32
0
VERTEX
8
0
62
5
10
0.28284281
20
1.4912407
30
0
70
32
0
SEQEND
8
0
0
POLYLINE
8
0
62
5
66
1
10
0
20
0
30
0
70
8
0
SEQEND
8
0
0
POLYLINE
8
0
62
5
66
1
10
0
20
0
30
0
70
8
0
VERTEX
8
0
62
5
10
1.007025e-07
20
1.5190989
30
0
70
32
0
VERTEX
8
0
62
5
10
0.070710779
20
1.5051698
30
0
70
32
0
VERTEX
8
0
62
5
10
0.14142146
20
1.5051698
30
0
70
32
0
VERTEX
8
0
62
5
10
0.21213214
20
1.5190989
30
0
70
32
0
VERTEX
8
0
62
5
10
0.28284281
20
1.5190989
30
0
70
32
0
SEQEND
8
0
0
POLYLINE
8
0
62
30
66
1
10
0
20
0
30
0
70
8
0
VERTEX
8
0
62
30
10
1.007025e-07
20
1.5051698
30
0
70
32
0
VERTEX
8
0
62
30
10
0.28284281
20
1.5051698
30
0
70
32
0
SEQEND
8
0
0
POLYLINE
8
0
62
30
66
1
10
0
20
0
30
0
70
8
0
VERTEX
8
0
62
30
10
0.070710779
20
1.5051698
30
0
70
32
0
VERTEX
8
0
62
30
10
0.070710779
20
1.5051698
30
0
70
32
0
SEQEND
8
0
0
POLYLINE
8
0
62
30
66
1
10
0
20
0
30
0
70
8
0
VERTEX
8
0
62
30
10
0.14142146
20
1.5051698
30
0
70
32
0
VERTEX
8
0
62
30
10
0.14142146
20
1.5051698
30
0
70
32
0
SEQEND
8
0
0
POLYLINE
8
0
62
30
66
1
10
0
20
0
30
0
70
8
0
VERTEX
8
0
62
30
10
0.21213214
20
1.4912407
30
0
70
32
0
VERTEX
8
0
62
30
10
0.21213214
20
1.5051698
30
0
70
32
0
SEQEND
8
0
0
POLYLINE
8
0
62
5
66
1
10
0
20
0
30
0
70
8
0
VERTEX
8
0
62
5
10
0.070710779
20
1.4883559
30
0
70
32
0
VERTEX
8
0
62
5
10
0.070710779
20
1.5051698
30
0
70
32
0
SEQEND
8
0
0
POLYLINE
8
0
62
5
66
1
10
0
20
0
30
0
70
8
0
VERTEX
8
0
62
5
10
0.14142146
20
1.4883559
30
0
70
32
0
VERTEX
8
0
62
5
10
0.14142146
20
1.5051698
30
0
70
32
0
SEQEND
8
0
0
POLYLINE
8
0
62
5
66
1
10
0
20
0
30
0
70
8
0
VERTEX
8
0
62
5
10
0.21213214
20
1.4883559
30
0
70
32
0
VERTEX
8
0
62
5
10
0.21213214
20
1.4912407
30
0
70
32
0
SEQEND
8
0
0
POLYLINE
8
0
62
5
66
1
10
0
20
0
30
0
70
8
0
VERTEX
8
0
62
5
10
0.070710779
20
1.5051698
30
0
70
32
0
VERTEX
8
0
62
5
10
0.070710779
20
1.5219838
30
0
70
32
0
SEQEND
8
0
0
POLYLINE
8
0
62
5
66
1
10
0
20
0
30
0
70
8
0
VERTEX
8
0
62
5
10
0.14142146
20
1.5051698
30
0
70
32
0
VERTEX
8
0
62
5
10
0.14142146
20
1.5219838
30
0
70
32
0
SEQEND
8
0
0
POLYLINE
8
0
62
5
66
1
10
0
20
0
30
0
70
8
0
VERTEX
8
0
62
5
10
0.21213214
20
1.5051698
30
0
70
32
0
VERTEX
8
0
62
5
10
0.21213214
20
1.5219838
30
0
70
32
0
SEQEND
8
0
0
POLYLINE
8
0
62
30
66
1
10
0
20
0
30
0
70
8
0
VERTEX
8
0
62
30
10
1.007025e-07
20
1.4912407
30
0
70
32
0
VERTEX
8
0
62
30
10
0.011453039
20
1.5051698
30
0
70
32
0
VERTEX
8
0
62
30
10
1.007025e-07
20
1.5190989
30
0
70
32
0
SEQEND
8
0
0
POLYLINE
8
0
62
30
66
1
10
0
20
0
30
0
70
8
0
VERTEX
8
0
62
30
10
0.070710779
20
1.5051698
30
0
70
32
0
VERTEX
8
0
62
30
10
0.070710779
20
1.5051698
30
0
70
32
0
VERTEX
8
0
62
30
10
0.070710779
20
1.5051698
30
0
70
32
0
SEQEND
8
0
0
POLYLINE
8
0
62
30
66
1
10
0
20
0
30
0
70
8
0
VERTEX
8
0
62
30
10
0.14142146
20
1.5051698
30
0
70
32
0
VERTEX
8
0
62
30
10
0.14142146
20
1.5051698
30
0
70
32
0
VERTEX
8
0
62
30
10
0.14142146
20
1.5051698
30
0
70
32
0
SEQEND
8
0
0
POLYLINE
8
0
62
30
66
1
10
0
20
0
30
0
70
8
0
VERTEX
8
0
62
30
10
0.21213214
20
1.4912407
30
0
70
32
0
VERTEX
8
0
62
30
10
0.22358507
20
1.5051698
30
0
70
32
0
VERTEX
8
0
62
30
10
0.21213214
20
1.5190989
30
0
70
32
0
SEQEND
8
0
0
POLYLINE
8
0
62
5
66
1
10
0
20
0
30
0
70
8
0
VERTEX
8
0
62
5
10
0.56568553
20
1.5219838
30
0
70
32
0
VERTEX
8
0
62
5
10
0.56568553
20
1.4883559
30
0
70
32
0
SEQEND
8
0
0
POLYLINE
8
0
62
5
66
1
10
0
20
0
30
0
70
8
0
VERTEX
8
0
62
5
10
0.28284281
20
1.4912407
30
0
70
32
0
VERTEX
8
0
62
5
10
0.35355349
20
1.5051698
30
0
70
32
0
VERTEX
8
0
62
5
10
0.42426417
20
1.5051698
30
0
70
32
0
VERTEX
8
0
62
5
10
0.49497485
20
1.4912407
30
0
70
32
0
VERTEX
8
0
62
5
10
0.56568553
20
1.4912407
30
0
70
32
0
SEQEND
8
0
0
POLYLINE
8
0
62
5
66
1
10
0
20
0
30
0
70
8
0
SEQEND
8
0
0
POLYLINE
8
0
62
5
66
1
10
0
20
0
30
0
70
8
0
VERTEX
8
0
62
5
10
0.28284281
20
1.5190989
30
0
70
32
0
VERTEX
8
0
62
5
10
0.35355349
20
1.5051698
30
0
70
32
0
VERTEX
8
0
62
5
10
0.42426417
20
1.5051698
30
0
70
32
0
VERTEX
8
0
62
5
10
0.49497485
20
1.5190989
30
0
70
32
0
VERTEX
8
0
62
5
10
0.56568553
20
1.5190989
30
0
70
32
0
SEQEND
8
0
0
POLYLINE
8
0
62
30
66
1
10
0
20
0
30
0
70
8
0
VERTEX
8
0
62
30
10
0.28284281
20
1.5051698
30
0
70
32
0
VERTEX
8
0
62
30
10
0.56568553
20
1.5051698
30
0
70
32
0
SEQEND
8
0
0
POLYLINE
8
0
62
30
66
1
10
0
20
0
30
0
70
8
0
VERTEX
8
0
62
30
10
0.35355349
20
1.5051698
30
0
70
32
0
VERTEX
8
0
62
30
10
0.35355349
20
1.5051698
30
0
70
32
0
SEQEND
8
0
0
POLYLINE
8
0
62
30
66
1
10
0
20
0
30
0
70
8
0
VERTEX
8
0
62
30
10
0.42426417
20
1.5051698
30
0
70
32
0
VERTEX
8
0
62
30
10
0.42426417
20
1.5051698
30
0
70
32
0
SEQEND
8
0
0
POLYLINE
8
0
62
30
66
1
10
0
20
0
30
0
70
8
0
VERTEX
8
0
62
30
10
0.49497485
20
1.4912407
30
0
70
32
0
VERTEX
8
0
62
30
10
0.49497485
20
1.5051698
30
0
70
32
0
SEQEND
8
0
0
POLYLINE
8
0
62
5
66
1
10
0
20
0
30
0
70
8
0
VERTEX
8
0
62
5
10
0.35355349
20
1.4883559
30
0
70
32
0
VERTEX
8
0
62
5
10
0.35355349
20
1.5051698
30
0
70
32
0
SEQEND
8
0
0
POLYLINE
8
0
62
5
66
1
10
0
20
0
30
0
70
8
0
VERTEX
8
0
62
5
10
0.42426417
20
1.4883559
30
0
70
32
0
VERTEX
8
0
62
5
10
0.42426417
20
1.5051698
30
0
70
32
0
SEQEND
8
0
0
POLYLINE
8
0
62
5
66
1
10
0
20
0
30
0
70
8
0
VERTEX
8
0
62
5
10
0.49497485
20
1.4883559
30
0
70
32
0
VERTEX
8
0
62
5
10
0.49497485
20
1.4912407
30
0
70
32
0
SEQEND
8
0
0
POLYLINE
8
0
62
5
66
1
10
0
20
0
30
0
70
8
0
VERTEX
8
0
62
5
10
0.35355349
20
1.5051698
30
0
70
32
0
VERTEX
8
0
62
5
10
0.35355349
20
1.5219838
30
0
70
32
0
SEQEND
8
0
0
POLYLINE
8
0
62
5
66
1
10
0
20
0
30
0
70
8
0
VERTEX
8
0
62
5
10
0.42426417
20
1.5051698
30
0
70
32
0
VERTEX
8
0
62
5
10
0.42426417
20
1.5219838
30
0
70
32
0
SEQEND
8
0
0
POLYLINE
8
0
62
5
66
1
10
0
20
0
30
0
70
8
0
VERTEX
8
0
62
5
10
0.49497485
20
1.5051698
30
0
70
32
0
VERTEX
8
0
62
5
10
0.49497485
20
1.5219838
30
0
70
32
0
SEQEND
8
0
0
POLYLINE
8
0
62
30
66
1
10
0
20
0
30
0
70
8
0
VERTEX
8
0
62
30
10
0.28284281
20
1.4912407
30
0
70
32
0
VERTEX
8
0
62
30
10
0.29429575
20
1.5051698
30
0
70
32
0
VERTEX
8
0
62
30
10
0.28284281
20
1.5190989
30
0
70
32
0
SEQEND
8
0
0
POLYLINE
8
0
62
30
66
1
10
0
20
0
30
0
70
8
0
VERTEX
8
0
62
30
10
0.35355349
20
1.5051698
30
0
70
32
0
VERTEX
8
0
62
30
10
0.35355349
20
1.5051698
30
0
70
32
0
VERTEX
8
0
62
30
10
0.35355349
20
1.5051698
30
0
70
32
0
SEQEND
8
0
0
POLYLINE
8
0
62
30
66
1
10
0
20
0
30
0
70
8
0
VERTEX
8
0
62
30
10
0.42426417
20
1.5051698
30
0
70
32
0
VERTEX
8
0
62
30
10
0.42426417
20
1.5051698
30
0
70
32
0
VERTEX
8
0
62
30
10
0.42426417
20
1.5051698
30
0
70
32
0
SEQEND
8
0
0
POLYLINE
8
0
62
30
66
1
10
0
20
0
30
0
70
8
0
VERTEX
8
0
62
30
10
0.49497485
20
1.4912407
30
0
70
32
0
VERTEX
8
0
62
30
10
0.50642779
20
1.5051698
30
0
70
32
0
VERTEX
8
0
62
30
10
0.49497485
20
1.5190989
30
0
70
32
0
SEQEND
8
0
0
POLYLINE
8
0
62
5
66
1
10
0
20
0
30
0
70
8
0
VERTEX
8
0
62
5
10
-0.28284261
20
1.4883559
30
0
70
32
0
VERTEX
8
0
62
5
10
-0.28284261
20
1.5219838
30
0
70
32
0
SEQEND
8
0
0
POLYLINE
8
0
62
5
66
1
10
0
20
0
30
0
70
8
0
VERTEX
8
0
62
5
10
-0.28284261
20
1.4912407
30
0
70
32
0
VERTEX
8
0
62
5
10
-0.21213193
20
1.5051698
30
0
70
32
0
VERTEX
8
0
62
5
10
-0.14142126
20
1.5051698
30
0
70
32
0
VERTEX
8
0
62
5
10
-0.070710577
20
1.4912407
30
0
70
32
0
VERTEX
8
0
62
5
10
1.007025e-07
20
1.4912407
30
0
70
32
0
SEQEND
8
0
0
POLYLINE
8
0
62
5
66
1
10
0
20
0
30
0
70
8
0
SEQEND
8
0
0
POLYLINE
8
0
62
5
66
1
10
0
20
0
30
0
70
8
0
VERTEX
8
0
62
5
10
-0.28284261
20
1.5190989
30
0
70
32
0
VERTEX
8
0
62
5
10
-0.21213193
20
1.5051698
30
0
70
32
0
VERTEX
8
0
62
5
10
-0.14142126
20
1.5051698
30
0
70
32
0
VERTEX
8
0
62
5
10
-0.070710577
20
1.5190989
30
0
70
32
0
VERTEX
8
0
62
5
10
1.007025e-07
20
1.5190989
30
0
70
32
0
SEQEND
8
0
0
POLYLINE
8
0
62
30
66
1
10
0
20
0
30
0
70
8
0
VERTEX
8
0
62
30
10
-0.28284261
20
1.5051698
30
0
70
32
0
VERTEX
8
0
62
30
10
1.007025e-07
20
1.5051698
30
0
70
32
0
SEQEND
8
0
0
POLYLINE
8
0
62
30
66
1
10
0
20
0
30
0
70
8
0
VERTEX
8
0
62
30
10
-0.21213193
20
1.5051698
30
0
70
32
0
VERTEX
8
0
62
30
10
-0.21213193
20
1.5051698
30
0
70
32
0
SEQEND
8
0
0
POLYLINE
8
0
62
30
66
1
10
0
20
0
30
0
70
8
0
VERTEX
8
0
62
30
10
-0.14142126
20
1.5051698
30
0
70
32
0
VERTEX
8
0
62
30
10
-0.14142126
20
1.5051698
30
0
70
32
0
SEQEND
8
0
0
POLYLINE
8
0
62
30
66
1
10
0
20
0
30
0
70
8
0
VERTEX
8
0
62
30
10
-0.070710577
20
1.4912407
30
0
70
32
0
VERTEX
8
0
62
30
10
-0.070710577
20
1.5051698
30
0
70
32
0
SEQEND
8
0
0
POLYLINE
8
0
62
5
66
1
10
0
20
0
30
0
70
8
0
VERTEX
8
0
62
5
10
-0.21213193
20
1.4883559
30
0
70
32
0
VERTEX
8
0
62
5
10
-0.21213193
20
1.5051698
30
0
70
32
0
SEQEND
8
0
0
POLYLINE
8
0
62
5
66
1
10
0
20
0
30
0
70
8
0
VERTEX
8
0
62
5
10
-0.14142126
20
1.4883559
30
0
70
32
0
VERTEX
8
0
62
5
10
-0.14142126
20
1.5051698
30
0
70
32
0
SEQEND
8
0
0
POLYLINE
8
0
62
5
66
1
10
0
20
0
30
0
70
8
0
VERTEX
8
0
62
5
10
-0.070710577
20
1.4883559
30
0
70
32
0
VERTEX
8
0
62
5
10
-0.070710577
20
1.4912407
30
0
70
32
0
SEQEND
8
0
0
POLYLINE
8
0
62
5
66
1
10
0
20
0
30
0
70
8
0
VERTEX
8
0
62
5
10
-0.21213193
20
1.5051698
30
0
70
32
0
VERTEX
8
0
62
5
10
-0.21213193
20
1.5219838
30
0
70
32
0
SEQEND
8
0
0
POLYLINE
8
0
62
5
66
1
10
0
20
0
30
0
70
8
0
VERTEX
8
0
62
5
10
-0.14142126
20
1.5051698
30
0
70
32
0
VERTEX
8
0
62
5
10
-0.14142126
20
1.5219838
30
0
70
32
0
SEQEND
8
0
0
POLYLINE
8
0
62
5
66
1
10
0
20
0
30
0
70
8
0
VERTEX
8
0
62
5
10
-0.070710577
20
1.5051698
30
0
70
32
0
VERTEX
8
0
62
5
10
-0.070710577
20
1.5219838
30
0
70
32
0
SEQEND
8
0
0
POLYLINE
8
0
62
30
66
1
10
0
20
0
30
0
70
8
0
VERTEX
8
0
62
30
10
-0.28284261
20
1.4912407
30
0
70
32
0
VERTEX
8
0
62
30
10
-0.27138967
20
1.5051698
30
0
70
32
0
VERTEX
8
0
62
30
10
-0.28284261
20
1.5190989
30
0
70
32
0
SEQEND
8
0
0
POLYLINE
8
0
62
30
66
1
10
0
20
0
30
0
70
8
0
VERTEX
8
0
62
30
10
-0.21213193
20
1.5051698
30
0
70
32
0
VERTEX
8
0
62
30
10
-0.21213193
20
1.5051698
30
0
70
32
0
VERTEX
8
0
62
30
10
-0.21213193
20
1.5051698
30
0
70
32
0
SEQEND
8
0
0
POLYLINE
8
0
62
30
66
1
10
0
20
0
30
0
70
8
0
VERTEX
8
0
62
30
10
-0.14142126
20
1.5051698
30
0
70
32
0
VERTEX
8
0
62
30
10
-0.14142125
20
1.5051698
30
0
70
32
0
VERTEX
8
0
62
30
10
-0.14142126
20
1.5051698
30
0
70
32
0
SEQEND
8
0
0
POLYLINE
8
0
62
30
66
1
10
0
20
0
30
0
70
8
0
VERTEX
8
0
62
30
10
-0.070710577
20
1.4912407
30
0
70
32
0
VERTEX
8
0
62
30
10
-0.059257639
20
1.5051698
30
0
70
32
0
VERTEX
8
0
62
30
10
-0.070710577
20
1.5190989
30
0
70
32
0
SEQEND
8
0
0
POLYLINE
8
0
62
5
66
1
10
0
20
0
30
0
70
8
0
VERTEX
8
0
62
5
10
1.007025e-07
20
1.5219838
30
0
70
32
0
VERTEX
8
0
62
5
10
1.007025e-07
20
1.6219838
30
0
70
32
0
SEQEND
8
0
0
POLYLINE
8
0
62
5
66
1
10
0
20
0
30
0
70
8
0
VERTEX
8
0
62
5
10
0.28284281
20
1.6219838
30
0
70
32
0
VERTEX
8
0
62
5
10
0.28284281
20
1.5219838
30
0
70
32
0
SEQEND
8
0
0
POLYLINE
8
0
62
5
66
1
10
0
20
0
30
0
70
8
0
VERTEX
8
0
62
5
10
1.007025e-07
20
1.5219838
30
0
70
32
0
VERTEX
8
0
62
5
10
0.28284281
20
1.5219838
30
0
70
32
0
SEQEND
8
0
0
POLYLINE
8
0
62
5
66
1
10
0
20
0
30
0
70
8
0
VERTEX
8
0
62
5
10
1.007025e-07
20
1.6219838
30
0
70
32
0
VERTEX
8
0
62
5
10
0.28284281
20
1.6219838
30
0
70
32
0
SEQEND
8
0
0
POLYLINE
8
0
62
5
66
1
10
0
20
0
30
0
70
8
0
VERTEX
8
0
62
5
10
0.070710779
20
1.5219838
30
0
70
32
0
VERTEX
8
0
62
5
10
0.070710779
20
1.5219838
30
0
70
32
0
SEQEND
8
0
0
POLYLINE
8
0
62
5
66
1
10
0
20
0
30
0
70
8
0
VERTEX
8
0
62
5
10
0.14142146
20
1.5219838
30
0
70
32
0
VERTEX
8
0
62
5
10
0.14142146
20
1.5219838
30
0
70
32
0
SEQEND
8
0
0
POLYLINE
8
0
62
5
66
1
10
0
20
0
30
0
70
8
0
VERTEX
8
0
62
5
10
0.21213214
20
1.5219838
30
0
70
32
0
VERTEX
8
0
62
5
10
0.21213214
20
1.5219838
30
0
70
32
0
SEQEND
8
0
0
POLYLINE
8
0
62
5
66
1
10
0
20
0
30
0
70
8
0
VERTEX
8
0
62
5
10
0.070710779
20
1.6219838
30
0
70
32
0
VERTEX
8
0
62
5
10
0.070710779
20
1.6219838
30
0
70
32
0
SEQEND
8
0
0
POLYLINE
8
0
62
5
66
1
10
0
20
0
30
0
70
8
0
VERTEX
8
0
62
5
10
0.14142146
20
1.6219838
30
0
70
32
0
VERTEX
8
0
62
5
10
0.14142146
20
1.6219838
30
0
70
32
0
SEQEND
8
0
0
POLYLINE
8
0
62
5
66
1
10
0
20
0
30
0
70
8
0
VERTEX
8
0
62
5
10
0.21213214
20
1.6219838
30
0
70
32
0
VERTEX
8
0
62
5
10
0.21213214
20
1.6219838
30
0
70
32
0
SEQEND
8
0
0
POLYLINE
8
0
62
30
66
1
10
0
20
0
30
0
70
8
0
VERTEX
8
0
62
30
10
1.007025e-07
20
1.5219838
30
0
70
32
0
VERTEX
8
0
62
30
10
0.03535544
20
1.5719838
30
0
70
32
0
SEQEND
8
0
0
POLYLINE
8
0
62
30
66
1
10
0
20
0
30
0
70
8
0
VERTEX
8
0
62
30
10
0.03535544
20
1.5719838
30
0
70
32
0
VERTEX
8
0
62
30
10
0.070710779
20
1.5219838
30
0
70
32
0
SEQEND
8
0
0
POLYLINE
8
0
62
30
66
1
10
0
20
0
30
0
70
8
0
VERTEX
8
0
62
30
10
0.14142146
20
1.5219838
30
0
70
32
0
VERTEX
8
0
62
30
10
0.1767768
20
1.5719838
30
0
70
32
0
SEQEND
8
0
0
POLYLINE
8
0
62
30
66
1
10
0
20
0
30
0
70
8
0
VERTEX
8
0
62
30
10
0.1767768
20
1.5719838
30
0
70
32
0
VERTEX
8
0
62
30
10
0.21213214
20
1.5219838
30
0
70
32
0
SEQEND
8
0
0
POLYLINE
8
0
62
30
66
1
10
0
20
0
30
0
70
8
0
VERTEX
8
0
62
30
10
0.070710779
20
1.5719838
30
0
70
32
0
VERTEX
8
0
62
30
10
0.14142146
20
1.5719838
30
0
70
32
0
SEQEND
8
0
0
POLYLINE
8
0
62
30
66
1
10
0
20
0
30
0
70
8
0
VERTEX
8
0
62
30
10
0.21213214
20
1.5719838
30
0
70
32
0
VERTEX
8
0
62
30
10
0.28284281
20
1.5719838
30
0
70
32
0
SEQEND
8
0
0
POLYLINE
8
0
62
5
66
1
10
0
20
0
30
0
70
8
0
VERTEX
8
0
62
5
10
1.007025e-07
20
1.5719838
30
0
70
32
0
VERTEX
8
0
62
5
10
0.03535544
20
1.5719838
30
0
70
32
0
SEQEND
8
0
0
POLYLINE
8
0
62
5
66
1
10
0
20
0
30
0
70
8
0
VERTEX
8
0
62
5
10
0.14142146
20
1.5719838
30
0
70
32
0
VERTEX
8
0
62
5
10
0.1767768
20
1.5719838
30
0
70
32
0
SEQEND
8
0
0
POLYLINE
8
0
62
5
66
1
10
0
20
0
30
0
70
8
0
VERTEX
8
0
62
5
10
0.03535544
20
1.5719838
30
0
70
32
0
VERTEX
8
0
62
5
10
0.070710779
20
1.5719838
30
0
70
32
0
SEQEND
8
0
0
POLYLINE
8
0
62
5
66
1
10
0
20
0
30
0
70
8
0
VERTEX
8
0
62
5
10
0.1767768
20
1.5719838
30
0
70
32
0
VERTEX
8
0
62
5
10
0.21213214
20
1.5719838
30
0
70
32
0
SEQEND
8
0
0
POLYLINE
8
0
62
5
66
1
10
0
20
0
30
0
70
8
0
VERTEX
8
0
62
5
10
0.070710779
20
1.5219838
30
0
70
32
0
VERTEX
8
0
62
5
10
0.070710779
20
1.6219838
30
0
70
32
0
SEQEND
8
0
0
POLYLINE
8
0
62
5
66
1
10
0
20
0
30
0
70
8
0
VERTEX
8
0
62
5
10
0.14142146
20
1.5219838
30
0
70
32
0
VERTEX
8
0
62
5
10
0.14142146
20
1.6219838
30
0
70
32
0
SEQEND
8
0
0
POLYLINE
8
0
62
5
66
1
10
0
20
0
30
0
70
8
0
VERTEX
8
0
62
5
10
0.21213214
20
1.5219838
30
0
70
32
0
VERTEX
8
0
62
5
10
0.21213214
20
1.6219838
30
0
70
32
0
SEQEND
8
0
0
POLYLINE
8
0
62
5
66
1
10
0
20
0
30
0
70
8
0
VERTEX
8
0
62
5
10
1.007025e-07
20
1.5219838
30
0
70
32
0
VERTEX
8
0
62
5
10
1.007025e-07
20
1.6219838
30
0
70
32
0
SEQEND
8
0
0
POLYLINE
8
0
62
5
66
1
10
0
20
0
30
0
70
8
0
VERTEX
8
0
62
5
10
0.56568553
20
1.6219838
30
0
70
32
0
VERTEX
8
0
62
5
10
0.56568553
20
1.5219838
30
0
70
32
0
SEQEND
8
0
0
POLYLINE
8
0
62
5
66
1
10
0
20
0
30
0
70
8
0
VERTEX
8
0
62
5
10
0.28284281
20
1.5219838
30
0
70
32
0
VERTEX
8
0
62
5
10
0.56568553
20
1.5219838
30
0
70
32
0
SEQEND
8
0
0
POLYLINE
8
0
62
5
66
1
10
0
20
0
30
0
70
8
0
VERTEX
8
0
62
5
10
0.28284281
20
1.6219838
30
0
70
32
0
VERTEX
8
0
62
5
10
0.56568553
20
1.6219838
30
0
70
32
0
SEQEND
8
0
0
POLYLINE
8
0
62
5
66
1
10
0
20
0
30
0
70
8
0
VERTEX
8
0
62
5
10
0.35355349
20
1.5219838
30
0
70
32
0
VERTEX
8
0
62
5
10
0.35355349
20
1.5219838
30
0
70
32
0
SEQEND
8
0
0
POLYLINE
8
0
62
5
66
1
10
0
20
0
30
0
70
8
0
VERTEX
8
0
62
5
10
0.42426417
20
1.5219838
30
0
70
32
0
VERTEX
8
0
62
5
10
0.42426417
20
1.5219838
30
0
70
32
0
SEQEND
8
0
0
POLYLINE
8
0
62
5
66
1
10
0
20
0
30
0
70
8
0
VERTEX
8
0
62
5
10
0.49497485
20
1.5219838
30
0
70
32
0
VERTEX
8
0
62
5
10
0.49497485
20
1.5219838
30
0
70
32
0
SEQEND
8
0
0
POLYLINE
8
0
62
5
66
1
10
0
20
0
30
0
70
8
0
VERTEX
8
0
62
5
10
0.35355349
20
1.6219838
30
0
70
32
0
VERTEX
8
0
62
5
10
0.35355349
20
1.6219838
30
0
70
32
0
SEQEND
8
0
0
POLYLINE
8
0
62
5
66
1
10
0
20
0
30
0
70
8
0
VERTEX
8
0
62
5
10
0.42426417
20
1.6219838
30
0
70
32
0
VERTEX
8
0
62
5
10
0.42426417
20
1.6219838
30
0
70
32
0
SEQEND
8
0
0
POLYLINE
8
0
62
5
66
1
10
0
20
0
30
0
70
8
0
VERTEX
8
0
62
5
10
0.49497485
20
1.6219838
30
0
70
32
0
VERTEX
8
0
62
5
10
0.49497485
20
1.6219838
30
0
70
32
0
SEQEND
8
0
0
POLYLINE
8
0
62
30
66
1
10
0
20
0
30
0
70
8
0
VERTEX
8
0
62
30
10
0.28284281
20
1.5219838
30
0
70
32
0
VERTEX
8
0
62
30
10
0.31819815
20
1.5719838
30
0
70
32
0
SEQEND
8
0
0
POLYLINE
8
0
62
30
66
1
10
0
20
0
30
0
70
8
0
VERTEX
8
0
62
30
10
0.31819815
20
1.5719838
30
0
70
32
0
VERTEX
8
0
62
30
10
0.35355349
20
1.5219838
30
0
70
32
0
SEQEND
8
0
0
POLYLINE
8
0
62
30
66
1
10
0
20
0
30
0
70
8
0
VERTEX
8
0
62
30
10
0.42426417
20
1.5219838
30
0
70
32
0
VERTEX
8
0
62
30
10
0.45961951
20
1.5719838
30
0
70
32
0
SEQEND
8
0
0
POLYLINE
8
0
62
30
66
1
10
0
20
0
30
0
70
8
0
VERTEX
8
0
62
30
10
0.45961951
20
1.5719838
30
0
70
32
0
VERTEX
8
0
62
30
10
0.49497485
20
1.5219838
30
0
70
32
0
SEQEND
8
0
0
POLYLINE
8
0
62
30
66
1
10
0
20
0
30
0
70
8
0
VERTEX
8
0
62
30
10
0.35355349
20
1.5719838
30
0
70
32
0
VERTEX
8
0
62
30
10
0.42426417
20
1.5719838
30
0
70
32
0
SEQEND
8
0
0
POLYLINE
8
0
62
30
66
1
10
0
20
0
30
0
70
8
0
VERTEX
8
0
62
30
10
0.49497485
20
1.5719838
30
0
70
32
0
VERTEX
8
0
62
30
10
0.56568553
20
1.5719838
30
0
70
32
0
SEQEND
8
0
0
POLYLINE
8
0
62
5
66
1
10
0
20
0
30
0
70
8
0
VERTEX
8
0
62
5
10
0.28284281
20
1.5719838
30
0
70
32
0
VERTEX
8
0
62
5
10
0.31819815
20
1.5719838
30
0
70
32
0
SEQEND
8
0
0
POLYLINE
8
0
62
5
66
1
10
0
20
0
30
0
70
8
0
VERTEX
8
0
62
5
10
0.42426417
20
1.5719838
30
0
70
32
0
VERTEX
8
0
62
5
10
0.45961951
20
1.5719838
30
0
70
32
0
SEQEND
8
0
0
POLYLINE
8
0
62
5
66
1
10
0
20
0
30
0
70
8
0
VERTEX
8
0
62
5
10
0.31819815
20
1.5719838
30
0
70
32
0
VERTEX
8
0
62
5
10
0.35355349
20
1.5719838
30
0
70
32
0
SEQEND
8
0
0
POLYLINE
8
0
62
5
66
1
10
0
20
0
30
0
70
8
0
VERTEX
8
0
62
5
10
0.45961951
20
1.5719838
30
0
70
32
0
VERTEX
8
0
62
5
10
0.49497485
20
1.5719838
30
0
70
32
0
SEQEND
8
0
0
POLYLINE
8
0
62
5
66
1
10
0
20
0
30
0
70
8
0
VERTEX
8
0
62
5
10
0.35355349
20
1.5219838
30
0
70
32
0
VERTEX
8
0
62
5
10
0.35355349
20
1.6219838
30
0
70
32
0
SEQEND
8
0
0
POLYLINE
8
0
62
5
66
1
10
0
20
0
30
0
70
8
0
VERTEX
8
0
62
5
10
0.42426417
20
1.5219838
30
0
70
32
0
VERTEX
8
0
62
5
10
0.42426417
20
1.6219838
30
0
70
32
0
SEQEND
8
0
0
POLYLINE
8
0
62
5
66
1
10
0
20
0
30
0
70
8
0
VERTEX
8
0
62
5
10
0.49497485
20
1.5219838
30
0
70
32
0
VERTEX
8
0
62
5
10
0.49497485
20
1.6219838
30
0
70
32
0
SEQEND
8
0
0
POLYLINE
8
0
62
5
66
1
10
0
20
0
30
0
70
8
0
VERTEX
8
0
62
5
10
0.28284281
20
1.5219838
30
0
70
32
0
VERTEX
8
0
62
5
10
0.28284281
20
1.6219838
30
0
70
32
0
SEQEND
8
0
0
POLYLINE
8
0
62
5
66
1
10
0
20
0
30
0
70
8
0
VERTEX
8
0
62
5
10
-0.28284261
20
1.5219838
30
0
70
32
0
VERTEX
8
0
62
5
10
-0.28284261
20
1.6219838
30
0
70
32
0
SEQEND
8
0
0
POLYLINE
8
0
62
5
66
1
10
0
20
0
30
0
70
8
0
VERTEX
8
0
62
5
10
-0.28284261
20
1.5219838
30
0
70
32
0
VERTEX
8
0
62
5
10
1.007025e-07
20
1.5219838
30
0
70
32
0
SEQEND
8
0
0
POLYLINE
8
0
62
5
66
1
10
0
20
0
30
0
70
8
0
VERTEX
8
0
62
5
10
-0.28284261
20
1.6219838
30
0
70
32
0
VERTEX
8
0
62
5
10
1.007025e-07
20
1.6219838
30
0
70
32
0
SEQEND
8
0
0
POLYLINE
8
0
62
5
66
1
10
0
20
0
30
0
70
8
0
VERTEX
8
0
62
5
10
-0.21213193
20
1.5219838
30
0
70
32
0
VERTEX
8
0
62
5
10
-0.21213193
20
1.5219838
30
0
70
32
0
SEQEND
8
0
0
POLYLINE
8
0
62
5
66
1
10
0
20
0
30
0
70
8
0
VERTEX
8
0
62
5
10
-0.14142126
20
1.5219838
30
0
70
32
0
VERTEX
8
0
62
5
10
-0.14142126
20
1.5219838
30
0
70
32
0
SEQEND
8
0
0
POLYLINE
8
0
62
5
66
1
10
0
20
0
30
0
70
8
0
VERTEX
8
0
62
5
10
-0.070710577
20
1.5219838
30
0
70
32
0
VERTEX
8
0
62
5
10
-0.070710577
20
1.5219838
30
0
70
32
0
SEQEND
8
0
0
POLYLINE
8
0
62
5
66
1
10
0
20
0
30
0
70
8
0
VERTEX
8
0
62
5
10
-0.21213193
20
1.6219838
30
0
70
32
0
VERTEX
8
0
62
5
10
-0.21213193
20
1.6219838
30
0
70
32
0
SEQEND
8
0
0
POLYLINE
8
0
62
5
66
1
10
0
20
0
30
0
70
8
0
VERTEX
8
0
62
5
10
-0.14142126
20
1.6219838
30
0
70
32
0
VERTEX
8
0
62
5
10
-0.14142126
20
1.6219838
30
0
70
32
0
SEQEND
8
0
0
POLYLINE
8
0
62
5
66
1
10
0
20
0
30
0
70
8
0
VERTEX
8
0
62
5
10
-0.070710577
20
1.6219838
30
0
70
32
0
VERTEX
8
0
62
5
10
-0.070710577
20
1.6219838
30
0
70
32
0
SEQEND
8
0
0
POLYLINE
8
0
62
30
66
1
10
0
20
0
30
0
70
8
0
VERTEX
8
0
62
30
10
-0.28284261
20
1.5219838
30
0
70
32
0
VERTEX
8
0
62
30
10
-0.24748727
20
1.5719838
30
0
70
32
0
SEQEND
8
0
0
POLYLINE
8
0
62
30
66
1
10
0
20
0
30
0
70
8
0
VERTEX
8
0
62
30
10
-0.24748727
20
1.5719838
30
0
70
32
0
VERTEX
8
0
62
30
10
-0.21213193
20
1.5219838
30
0
70
32
0
SEQEND
8
0
0
POLYLINE
8
0
62
30
66
1
10
0
20
0
30
0
70
8
0
VERTEX
8
0
62
30
10
-0.14142126
20
1.5219838
30
0
70
32
0
VERTEX
8
0
62
30
10
-0.10606592
20
1.5719838
30
0
70
32
0
SEQEND
8
0
0
POLYLINE
8
0
62
30
66
1
10
0
20
0
30
0
70
8
0
VERTEX
8
0
62
30
10
-0.10606592
20
1.5719838
30
0
70
32
0
VERTEX
8
0
62
30
10
-0.070710577
20
1.5219838
30
0
70
32
0
SEQEND
8
0
0
POLYLINE
8
0
62
30
66
1
10
0
20
0
30
0
70
8
0
VERTEX
8
0
62
30
10
-0.21213193
20
1.5719838
30
0
70
32
0
VERTEX
8
0
62
30
10
-0.14142126
20
1.5719838
30
0
70
32
0
SEQEND
8
0
0
POLYLINE
8
0
62
30
66
1
10
0
20
0
30
0
70
8
0
VERTEX
8
0
62
30
10
-0.070710577
20
1.5719838
30
0
70
32
0
VERTEX
8
0
62
30
10
1.007025e-07
20
1.5719838
30
0
70
32
0
SEQEND
8
0
0
POLYLINE
8
0
62
5
66
1
10
0
20
0
30
0
70
8
0
VERTEX
8
0
62
5
10
-0.28284261
20
1.5719838
30
0
70
32
0
VERTEX
8
0
62
5
10
-0.24748727
20
1.5719838
30
0
70
32
0
SEQEND
8
0
0
POLYLINE
8
0
62
5
66
1
10
0
20
0
30
0
70
8
0
VERTEX
8
0
62
5
10
-0.14142126
20
1.5719838
30
0
70
32
0
VERTEX
8
0
62
5
10
-0.10606592
20
1.5719838
30
0
70
32
0
SEQEND
8
0
0
POLYLINE
8
0
62
5
66
1
10
0
20
0
30
0
70
8
0
VERTEX
8
0
62
5
10
-0.24748727
20
1.5719838
30
0
70
32
0
VERTEX
8
0
62
5
10
-0.21213193
20
1.5719838
30
0
70
32
0
SEQEND
8
0
0
POLYLINE
8
0
62
5
66
1
10
0
20
0
30
0
70
8
0
VERTEX
8
0
62
5
10
-0.10606592
20
1.5719838
30
0
70
32
0
VERTEX
8
0
62
5
10
-0.070710577
20
1.5719838
30
0
70
32
0
SEQEND
8
0
0
POLYLINE
8
0
62
5
66
1
10
0
20
0
30
0
70
8
0
VERTEX
8
0
62
5
10
-0.21213193
20
1.5219838
30
0
70
32
0
VERTEX
8
0
62
5
10
-0.21213193
20
1.6219838
30
0
70
32
0
SEQEND
8
0
0
POLYLINE
8
0
62
5
66
1
10
0
20
0
30
0
70
8
0
VERTEX
8
0
62
5
10
-0.14142126
20
1.5219838
30
0
70
32
0
VERTEX
8
0
62
5
10
-0.14142126
20
1.6219838
30
0
70
32
0
SEQEND
8
0
0
POLYLINE
8
0
62
5
66
1
10
0
20
0
30
0
70
8
0
VERTEX
8
0
62
5
10
-0.070710577
20
1.5219838
30
0
70
32
0
VERTEX
8
0
62
5
10
-0.070710577
20
1.6219838
30
0
70
32
0
SEQEND
8
0
0
POLYLINE
8
0
62
5
66
1
10
0
20
0
30
0
70
8
0
VERTEX
8
0
62
5
10
-0.28284261
20
1.5219838
30
0
70
32
0
VERTEX
8
0
62
5
10
-0.28284261
20
1.6219838
30
0
70
32
0
SEQEND
8
0
0
POLYLINE
8
0
62
18
66
1
10
0
20
0
30
0
70
8
0
VERTEX
8
0
62
18
10
0
20
0
30
0
70
32
0
VERTEX
8
0
62
18
10
0.35355339
20
0
30
0
70
32
0
VERTEX
8
0
62
18
10
0.35355339
20
0.22357086
30
0
70
32
0
VERTEX
8
0
62
18
10
0
20
0.22357086
30
0
70
32
0
VERTEX
8
0
62
18
10
0
20
0
30
0
70
32
0
SEQEND
8
0
0
POLYLINE
8
0
62
5
66
1
10
0
20
0
30
0
70
8
0
VERTEX
8
0
62
5
10
0
20
0.22357086
30
0
70
32
0
VERTEX
8
0
62
5
10
0.35355339
20
0.22357086
30
0
70
32
0
SEQEND
8
0
0
POLYLINE
8
0
62
18
66
1
10
0
20
0
30
0
70
8
0
VERTEX
8
0
62
18
10
0
20
0.20357086
30
0
70
32
0
VERTEX
8
0
62
18
10
0.35355339
20
0.20357086
30
0
70
32
0
VERTEX
8
0
62
18
10
0.35355339
20
0.62876733
30
0
70
32
0
VERTEX
8
0
62
18
10
0
20
0.62876733
30
0
70
32
0
VERTEX
8
0
62
18
10
0
20
0.20357086
30
0
70
32
0
SEQEND
8
0
0
POLYLINE
8
0
62
5
66
1
10
0
20
0
30
0
70
8
0
VERTEX
8
0
62
5
10
0
20
0.62876733
30
0
70
32
0
VERTEX
8
0
62
5
10
0.35355339
20
0.62876733
30
0
70
32
0
SEQEND
8
0
0
POLYLINE
8
0
62
18
66
1
10
0
20
0
30
0
70
8
0
VERTEX
8
0
62
18
10
0
20
0.60876733
30
0
70
32
0
VERTEX
8
0
62
18
10
0.35355339
20
0.60876733
30
0
70
32
0
VERTEX
8
0
62
18
10
0.35355339
20
0.89142648
30
0
70
32
0
VERTEX
8
0
62
18
10
0
20
0.89142648
30
0
70
32
0
VERTEX
8
0
62
18
10
0
20
0.60876733
30
0
70
32
0
SEQEND
8
0
0
POLYLINE
8
0
62
5
66
1
10
0
20
0
30
0
70
8
0
VERTEX
8
0
62
5
10
0
20
0.89142648
30
0
70
32
0
VERTEX
8
0
62
5
10
0.35355339
20
0.89142648
30
0
70
32
0
SEQEND
8
0
0
POLYLINE
8
0
62
18
66
1
10
0
20
0
30
0
70
8
0
VERTEX
8
0
62
18
10
0
20
0.87142648
30
0
70
32
0
VERTEX
8
0
62
18
10
0.35355339
20
0.87142648
30
0
70
32
0
VERTEX
8
0
62
18
10
0.35355339
20
1.1840562
30
0
70
32
0
VERTEX
8
0
62
18
10
0
20
1.1840562
30
0
70
32
0
VERTEX
8
0
62
18
10
0
20
0.87142648
30
0
70
32
0
SEQEND
8
0
0
POLYLINE
8
0
62
5
66
1
10
0
20
0
30
0
70
8
0
VERTEX
8
0
62
5
10
0
20
1.1840562
30
0
70
32
0
VERTEX
8
0
62
5
10
0.35355339
20
1.1840562
30
0
70
32
0
SEQEND
8
0
0
POLYLINE
8
0
62
18
66
1
10
0
20
0
30
0
70
8
0
VERTEX
8
0
62
18
10
0
20
1.1640562
30
0
70
32
0
VERTEX
8
0
62
18
10
0.35355339
20
1.1640562
30
0
70
32
0
VERTEX
8
0
62
18
10
0.35355339
20
1.4544225
30
0
70
32
0
VERTEX
8
0
62
18
10
0
20
1.4544225
30
0
70
32
0
VERTEX
8
0
62
18
10
0
20
1.1640562
30
0
70
32
0
SEQEND
8
0
0
POLYLINE
8
0
62
5
66
1
10
0
20
0
30
0
70
8
0
VERTEX
8
0
62
5
10
0
20
1.4544225
30
0
70
32
0
VERTEX
8
0
62
5
10
0.35355339
20
1.4544225
30
0
70
32
0
SEQEND
8
0
0
POLYLINE
8
0
62
18
66
1
10
0
20
0
30
0
70
8
0
VERTEX
8
0
62
18
10
0
20
1.4344225
30
0
70
32
0
VERTEX
8
0
62
18
10
0.35355339
20
1.4344225
30
0
70
32
0
VERTEX
8
0
62
18
10
0.35355339
20
1.6219838
30
0
70
32
0
VERTEX
8
0
62
18
10
0
20
1.6219838
30
0
70
32
0
VERTEX
8
0
62
18
10
0
20
1.4344225
30
0
70
32
0
SEQEND
8
0
0
POLYLINE
8
0
62
18
66
1
10
0
20
0
30
0
70
8
0
VERTEX
8
0
62
18
10
0.35355339
20
0
30
0
70
32
0
VERTEX
8
0
62
18
10
0
20
0
30
0
70
32
0
VERTEX
8
0
62
18
10
0
20
1.6219838
30
0
70
32
0
VERTEX
8
0
62
18
10
0.35355339
20
1.6219838
30
0
70
32
0
VERTEX
8
0
62
18
10
0.35355339
20
0
30
0
70
32
0
SEQEND
8
0
0
ENDSEC
0
EOF
