0
SECTION
2
HEADER
9
$ACADVER
1
AC1006
9
$INSUNITS
70
6
0
ENDSEC
0
SECTION
2
ENTITIES
0
POLYLINE
8
0
62
5
66
1
10
0
20
0
30
0
70
8
0
VERTEX
8
0
62
5
10
0
20
0
30
0
70
32
0
VERTEX
8
0
62
5
10
0
20
0.1
30
0
70
32
0
SEQEND
8
0
0
POLYLINE
8
0
62
5
66
1
10
0
20
0
30
0
70
8
0
VERTEX
8
0
62
5
10
0.16970563
20
0
30
0
70
32
0
VERTEX
8
0
62
5
10
0.16970563
20
0.1
30
0
70
32
0
SEQEND
8
0
0
POLYLINE
8
0
62
5
66
1
10
0
20
0
30
0
70
8
0
VERTEX
8
0
62
5
10
0.042426407
20
0
30
0
70
32
0
VERTEX
8
0
62
5
10
0.042426407
20
0.1
30
0
70
32
0
SEQEND
8
0
0
POLYLINE
8
0
62
5
66
1
10
0
20
0
30
0
70
8
0
VERTEX
8
0
62
5
10
0.084852814
20
0
30
0
70
32
0
VERTEX
8
0
62
5
10
0.084852814
20
0.1
30
0
70
32
0
SEQEND
8
0
0
POLYLINE
8
0
62
5
66
1
10
0
20
0
30
0
70
8
0
VERTEX
8
0
62
5
10
0.12727922
20
0
30
0
70
32
0
VERTEX
8
0
62
5
10
0.12727922
20
0.1
30
0
70
32
0
SEQEND
8
0
0
POLYLINE
8
0
62
5
66
1
10
0
20
0
30
0
70
8
0
VERTEX
8
0
62
5
10
0.33941125
20
0
30
0
70
32
0
VERTEX
8
0
62
5
10
0.33941125
20
0.1
30
0
70
32
0
SEQEND
8
0
0
POLYLINE
8
0
62
5
66
1
10
0
20
0
30
0
70
8
0
VERTEX
8
0
62
5
10
0.21213203
20
0
30
0
70
32
0
VERTEX
8
0
62
5
10
0.21213203
20
0.1
30
0
70
32
0
SEQEND
8
0
0
POLYLINE
8
0
62
5
66
1
10
0
20
0
30
0
70
8
0
VERTEX
8
0
62
5
10
0.25455844
20
0
30
0
70
32
0
VERTEX
8
0
62
5
10
0.25455844
20
0.1
30
0
70
32
0
SEQEND
8
0
0
POLYLINE
8
0
62
5
66
1
10
0
20
0
30
0
70
8
0
VERTEX
8
0
62
5
10
0.29698485
20
0
30
0
70
32
0
VERTEX
8
0
62
5
10
0.29698485
20
0.1
30
0
70
32
0
SEQEND
8
0
0
POLYLINE
8
0
62
5
66
1
10
0
20
0
30
0
70
8
0
VERTEX
8
0
62
5
10
-0.16970563
20
0
30
0
70
32
0
VERTEX
8
0
62
5
10
-0.16970563
20
0.1
30
0
70
32
0
SEQEND
8
0
0
POLYLINE
8
0
62
5
66
1
10
0
20
0
30
0
70
8
0
VERTEX
8
0
62
5
10
-0.12727922
20
0
30
0
70
32
0
VERTEX
8
0
62
5
10
-0.12727922
20
0.1
30
0
70
32
0
SEQEND
8
0
0
POLYLINE
8
0
62
5
66
1
10
0
20
0
30
0
70
8
0
VERTEX
8
0
62
5
10
-0.084852814
20
0
30
0
70
32
0
VERTEX
8
0
62
5
10
-0.084852814
20
0.1
30
0
70
32
0
SEQEND
8
0
0
POLYLINE
8
0
62
5
66
1
10
0
20
0
30
0
70
8
0
VERTEX
8
0
62
5
10
-0.042426407
20
0
30
0
70
32
0
VERTEX
8
0
62
5
10
-0.042426407
20
0.1
30
0
70
32
0
SEQEND
8
0
0
POLYLINE
8
0
62
5
66
1
10
0
20
0
30
0
70
8
0
VERTEX
8
0
62
5
10
0
20
0.1
30
0
70
32
0
VERTEX
8
0
62
5
10
0
20
0.16
30
0
70
32
0
SEQEND
8
0
0
POLYLINE
8
0
62
5
66
1
10
0
20
0
30
0
70
8
0
VERTEX
8
0
62
5
10
0.16970563
20
0.16
30
0
70
32
0
VERTEX
8
0
62
5
10
0.16970563
20
0.1
30
0
70
32
0
SEQEND
8
0
0
POLYLINE
8
0
62
5
66
1
10
0
20
0
30
0
70
8
0
VERTEX
8
0
62
5
10
0
20
0.1
30
0
70
32
0
VERTEX
8
0
62
5
10
0.16970563
20
0.1
30
0
70
32
0
SEQEND
8
0
0
POLYLINE
8
0
62
5
66
1
10
0
20
0
30
0
70
8
0
VERTEX
8
0
62
5
10
0
20
0.16
30
0
70
32
0
VERTEX
8
0
62
5
10
0.16970563
20
0.16
30
0
70
32
0
SEQEND
8
0
0
POLYLINE
8
0
62
5
66
1
10
0
20
0
30
0
70
8
0
VERTEX
8
0
62
5
10
0.042426407
20
0.1
30
0
70
32
0
VERTEX
8
0
62
5
10
0.042426407
20
0.1
30
0
70
32
0
SEQEND
8
0
0
POLYLINE
8
0
62
5
66
1
10
0
20
0
30
0
70
8
0
VERTEX
8
0
62
5
10
0.084852814
20
0.1
30
0
70
32
0
VERTEX
8
0
62
5
10
0.084852814
20
0.1
30
0
70
32
0
SEQEND
8
0
0
POLYLINE
8
0
62
5
66
1
10
0
20
0
30
0
70
8
0
VERTEX
8
0
62
5
10
0.12727922
20
0.1
30
0
70
32
0
VERTEX
8
0
62
5
10
0.12727922
20
0.1
30
0
70
32
0
SEQEND
8
0
0
POLYLINE
8
0
62
5
66
1
10
0
20
0
30
0
70
8
0
VERTEX
8
0
62
5
10
0.042426407
20
0.16
30
0
70
32
0
VERTEX
8
0
62
5
10
0.042426407
20
0.16
30
0
70
32
0
SEQEND
8
0
0
POLYLINE
8
0
62
5
66
1
10
0
20
0
30
0
70
8
0
VERTEX
8
0
62
5
10
0.084852814
20
0.16
30
0
70
32
0
VERTEX
8
0
62
5
10
0.084852814
20
0.16
30
0
70
32
0
SEQEND
8
0
0
POLYLINE
8
0
62
5
66
1
10
0
20
0
30
0
70
8
0
VERTEX
8
0
62
5
10
0.12727922
20
0.16
30
0
70
32
0
VERTEX
8
0
62
5
10
0.12727922
20
0.16
30
0
70
32
0
SEQEND
8
0
0
POLYLINE
8
0
62
30
66
1
10
0
20
0
30
0
70
8
0
VERTEX
8
0
62
30
10
0
20
0.16
30
0
70
32
0
VERTEX
8
0
62
30
10
0.042426407
20
0.1
30
0
70
32
0
SEQEND
8
0
0
POLYLINE
8
0
62
30
66
1
10
0
20
0
30
0
70
8
0
VERTEX
8
0
62
30
10
0.042426407
20
0.16
30
0
70
32
0
VERTEX
8
0
62
30
10
0
20
0.1
30
0
70
32
0
SEQEND
8
0
0
POLYLINE
8
0
62
30
66
1
10
0
20
0
30
0
70
8
0
VERTEX
8
0
62
30
10
0.084852814
20
0.16
30
0
70
32
0
VERTEX
8
0
62
30
10
0.12727922
20
0.1
30
0
70
32
0
SEQEND
8
0
0
POLYLINE
8
0
62
30
66
1
10
0
20
0
30
0
70
8
0
VERTEX
8
0
62
30
10
0.12727922
20
0.16
30
0
70
32
0
VERTEX
8
0
62
30
10
0.084852814
20
0.1
30
0
70
32
0
SEQEND
8
0
0
POLYLINE
8
0
62
30
66
1
10
0
20
0
30
0
70
8
0
VERTEX
8
0
62
30
10
0.042426407
20
0.13
30
0
70
32
0
VERTEX
8
0
62
30
10
0.084852814
20
0.13
30
0
70
32
0
SEQEND
8
0
0
POLYLINE
8
0
62
30
66
1
10
0
20
0
30
0
70
8
0
VERTEX
8
0
62
30
10
0.12727922
20
0.13
30
0
70
32
0
VERTEX
8
0
62
30
10
0.16970563
20
0.13
30
0
70
32
0
SEQEND
8
0
0
POLYLINE
8
0
62
5
66
1
10
0
20
0
30
0
70
8
0
VERTEX
8
0
62
5
10
0
20
0.13
30
0
70
32
0
VERTEX
8
0
62
5
10
0.021213203
20
0.13
30
0
70
32
0
SEQEND
8
0
0
POLYLINE
8
0
62
5
66
1
10
0
20
0
30
0
70
8
0
VERTEX
8
0
62
5
10
0.084852814
20
0.13
30
0
70
32
0
VERTEX
8
0
62
5
10
0.10606602
20
0.13
30
0
70
32
0
SEQEND
8
0
0
POLYLINE
8
0
62
5
66
1
10
0
20
0
30
0
70
8
0
VERTEX
8
0
62
5
10
0.021213203
20
0.13
30
0
70
32
0
VERTEX
8
0
62
5
10
0.042426407
20
0.13
30
0
70
32
0
SEQEND
8
0
0
POLYLINE
8
0
62
5
66
1
10
0
20
0
30
0
70
8
0
VERTEX
8
0
62
5
10
0.10606602
20
0.13
30
0
70
32
0
VERTEX
8
0
62
5
10
0.12727922
20
0.13
30
0
70
32
0
SEQEND
8
0
0
POLYLINE
8
0
62
5
66
1
10
0
20
0
30
0
70
8
0
VERTEX
8
0
62
5
10
0.042426407
20
0.1
30
0
70
32
0
VERTEX
8
0
62
5
10
0.042426407
20
0.16
30
0
70
32
0
SEQEND
8
0
0
POLYLINE
8
0
62
5
66
1
10
0
20
0
30
0
70
8
0
VERTEX
8
0
62
5
10
0.084852814
20
0.1
30
0
70
32
0
VERTEX
8
0
62
5
10
0.084852814
20
0.16
30
0
70
32
0
SEQEND
8
0
0
POLYLINE
8
0
62
5
66
1
10
0
20
0
30
0
70
8
0
VERTEX
8
0
62
5
10
0.12727922
20
0.1
30
0
70
32
0
VERTEX
8
0
62
5
10
0.12727922
20
0.16
30
0
70
32
0
SEQEND
8
0
0
POLYLINE
8
0
62
5
66
1
10
0
20
0
30
0
70
8
0
VERTEX
8
0
62
5
10
0
20
0.1
30
0
70
32
0
VERTEX
8
0
62
5
10
0
20
0.16
30
0
70
32
0
SEQEND
8
0
0
POLYLINE
8
0
62
5
66
1
10
0
20
0
30
0
70
8
0
VERTEX
8
0
62
5
10
0.33941125
20
0.16
30
0
70
32
0
VERTEX
8
0
62
5
10
0.33941125
20
0.1
30
0
70
32
0
SEQEND
8
0
0
POLYLINE
8
0
62
5
66
1
10
0
20
0
30
0
70
8
0
VERTEX
8
0
62
5
10
0.16970563
20
0.1
30
0
70
32
0
VERTEX
8
0
62
5
10
0.33941125
20
0.1
30
0
70
32
0
SEQEND
8
0
0
POLYLINE
8
0
62
5
66
1
10
0
20
0
30
0
70
8
0
VERTEX
8
0
62
5
10
0.16970563
20
0.16
30
0
70
32
0
VERTEX
8
0
62
5
10
0.33941125
20
0.16
30
0
70
32
0
SEQEND
8
0
0
POLYLINE
8
0
62
5
66
1
10
0
20
0
30
0
70
8
0
VERTEX
8
0
62
5
10
0.21213203
20
0.1
30
0
70
32
0
VERTEX
8
0
62
5
10
0.21213203
20
0.1
30
0
70
32
0
SEQEND
8
0
0
POLYLINE
8
0
62
5
66
1
10
0
20
0
30
0
70
8
0
VERTEX
8
0
62
5
10
0.25455844
20
0.1
30
0
70
32
0
VERTEX
8
0
62
5
10
0.25455844
20
0.1
30
0
70
32
0
SEQEND
8
0
0
POLYLINE
8
0
62
5
66
1
10
0
20
0
30
0
70
8
0
VERTEX
8
0
62
5
10
0.29698485
20
0.1
30
0
70
32
0
VERTEX
8
0
62
5
10
0.29698485
20
0.1
30
0
70
32
0
SEQEND
8
0
0
POLYLINE
8
0
62
5
66
1
10
0
20
0
30
0
70
8
0
VERTEX
8
0
62
5
10
0.21213203
20
0.16
30
0
70
32
0
VERTEX
8
0
62
5
10
0.21213203
20
0.16
30
0
70
32
0
SEQEND
8
0
0
POLYLINE
8
0
62
5
66
1
10
0
20
0
30
0
70
8
0
VERTEX
8
0
62
5
10
0.25455844
20
0.16
30
0
70
32
0
VERTEX
8
0
62
5
10
0.25455844
20
0.16
30
0
70
32
0
SEQEND
8
0
0
POLYLINE
8
0
62
5
66
1
10
0
20
0
30
0
70
8
0
VERTEX
8
0
62
5
10
0.29698485
20
0.16
30
0
70
32
0
VERTEX
8
0
62
5
10
0.29698485
20
0.16
30
0
70
32
0
SEQEND
8
0
0
POLYLINE
8
0
62
30
66
1
10
0
20
0
30
0
70
8
0
VERTEX
8
0
62
30
10
0.16970563
20
0.16
30
0
70
32
0
VERTEX
8
0
62
30
10
0.21213203
20
0.1
30
0
70
32
0
SEQEND
8
0
0
POLYLINE
8
0
62
30
66
1
10
0
20
0
30
0
70
8
0
VERTEX
8
0
62
30
10
0.21213203
20
0.16
30
0
70
32
0
VERTEX
8
0
62
30
10
0.16970563
20
0.1
30
0
70
32
0
SEQEND
8
0
0
POLYLINE
8
0
62
30
66
1
10
0
20
0
30
0
70
8
0
VERTEX
8
0
62
30
10
0.25455844
20
0.16
30
0
70
32
0
VERTEX
8
0
62
30
10
0.29698485
20
0.1
30
0
70
32
0
SEQEND
8
0
0
POLYLINE
8
0
62
30
66
1
10
0
20
0
30
0
70
8
0
VERTEX
8
0
62
30
10
0.29698485
20
0.16
30
0
70
32
0
VERTEX
8
0
62
30
10
0.25455844
20
0.1
30
0
70
32
0
SEQEND
8
0
0
POLYLINE
8
0
62
30
66
1
10
0
20
0
30
0
70
8
0
VERTEX
8
0
62
30
10
0.21213203
20
0.13
30
0
70
32
0
VERTEX
8
0
62
30
10
0.25455844
20
0.13
30
0
70
32
0
SEQEND
8
0
0
POLYLINE
8
0
62
30
66
1
10
0
20
0
30
0
70
8
0
VERTEX
8
0
62
30
10
0.29698485
20
0.13
30
0
70
32
0
VERTEX
8
0
62
30
10
0.33941125
20
0.13
30
0
70
32
0
SEQEND
8
0
0
POLYLINE
8
0
62
5
66
1
10
0
20
0
30
0
70
8
0
VERTEX
8
0
62
5
10
0.16970563
20
0.13
30
0
70
32
0
VERTEX
8
0
62
5
10
0.19091883
20
0.13
30
0
70
32
0
SEQEND
8
0
0
POLYLINE
8
0
62
5
66
1
10
0
20
0
30
0
70
8
0
VERTEX
8
0
62
5
10
0.25455844
20
0.13
30
0
70
32
0
VERTEX
8
0
62
5
10
0.27577164
20
0.13
30
0
70
32
0
SEQEND
8
0
0
POLYLINE
8
0
62
5
66
1
10
0
20
0
30
0
70
8
0
VERTEX
8
0
62
5
10
0.19091883
20
0.13
30
0
70
32
0
VERTEX
8
0
62
5
10
0.21213203
20
0.13
30
0
70
32
0
SEQEND
8
0
0
POLYLINE
8
0
62
5
66
1
10
0
20
0
30
0
70
8
0
VERTEX
8
0
62
5
10
0.27577164
20
0.13
30
0
70
32
0
VERTEX
8
0
62
5
10
0.29698485
20
0.13
30
0
70
32
0
SEQEND
8
0
0
POLYLINE
8
0
62
5
66
1
10
0
20
0
30
0
70
8
0
VERTEX
8
0
62
5
10
0.21213203
20
0.1
30
0
70
32
0
VERTEX
8
0
62
5
10
0.21213203
20
0.16
30
0
70
32
0
SEQEND
8
0
0
POLYLINE
8
0
62
5
66
1
10
0
20
0
30
0
70
8
0
VERTEX
8
0
62
5
10
0.25455844
20
0.1
30
0
70
32
0
VERTEX
8
0
62
5
10
0.25455844
20
0.16
30
0
70
32
0
SEQEND
8
0
0
POLYLINE
8
0
62
5
66
1
10
0
20
0
30
0
70
8
0
VERTEX
8
0
62
5
10
0.29698485
20
0.1
30
0
70
32
0
VERTEX
8
0
62
5
10
0.29698485
20
0.16
30
0
70
32
0
SEQEND
8
0
0
POLYLINE
8
0
62
5
66
1
10
0
20
0
30
0
70
8
0
VERTEX
8
0
62
5
10
0.16970563
20
0.1
30
0
70
32
0
VERTEX
8
0
62
5
10
0.16970563
20
0.16
30
0
70
32
0
SEQEND
8
0
0
POLYLINE
8
0
62
5
66
1
10
0
20
0
30
0
70
8
0
VERTEX
8
0
62
5
10
-0.16970563
20
0.1
30
0
70
32
0
VERTEX
8
0
62
5
10
-0.16970563
20
0.16
30
0
70
32
0
SEQEND
8
0
0
POLYLINE
8
0
62
5
66
1
10
0
20
0
30
0
70
8
0
VERTEX
8
0
62
5
10
-0.16970563
20
0.1
30
0
70
32
0
VERTEX
8
0
62
5
10
0
20
0.1
30
0
70
32
0
SEQEND
8
0
0
POLYLINE
8
0
62
5
66
1
10
0
20
0
30
0
70
8
0
VERTEX
8
0
62
5
10
-0.16970563
20
0.16
30
0
70
32
0
VERTEX
8
0
62
5
10
0
20
0.16
30
0
70
32
0
SEQEND
8
0
0
POLYLINE
8
0
62
5
66
1
10
0
20
0
30
0
70
8
0
VERTEX
8
0
62
5
10
-0.12727922
20
0.1
30
0
70
32
0
VERTEX
8
0
62
5
10
-0.12727922
20
0.1
30
0
70
32
0
SEQEND
8
0
0
POLYLINE
8
0
62
5
66
1
10
0
20
0
30
0
70
8
0
VERTEX
8
0
62
5
10
-0.084852814
20
0.1
30
0
70
32
0
VERTEX
8
0
62
5
10
-0.084852814
20
0.1
30
0
70
32
0
SEQEND
8
0
0
POLYLINE
8
0
62
5
66
1
10
0
20
0
30
0
70
8
0
VERTEX
8
0
62
5
10
-0.042426407
20
0.1
30
0
70
32
0
VERTEX
8
0
62
5
10
-0.042426407
20
0.1
30
0
70
32
0
SEQEND
8
0
0
POLYLINE
8
0
62
5
66
1
10
0
20
0
30
0
70
8
0
VERTEX
8
0
62
5
10
-0.12727922
20
0.16
30
0
70
32
0
VERTEX
8
0
62
5
10
-0.12727922
20
0.16
30
0
70
32
0
SEQEND
8
0
0
POLYLINE
8
0
62
5
66
1
10
0
20
0
30
0
70
8
0
VERTEX
8
0
62
5
10
-0.084852814
20
0.16
30
0
70
32
0
VERTEX
8
0
62
5
10
-0.084852814
20
0.16
30
0
70
32
0
SEQEND
8
0
0
POLYLINE
8
0
62
5
66
1
10
0
20
0
30
0
70
8
0
VERTEX
8
0
62
5
10
-0.042426407
20
0.16
30
0
70
32
0
VERTEX
8
0
62
5
10
-0.042426407
20
0.16
30
0
70
32
0
SEQEND
8
0
0
POLYLINE
8
0
62
30
66
1
10
0
20
0
30
0
70
8
0
VERTEX
8
0
62
30
10
-0.16970563
20
0.16
30
0
70
32
0
VERTEX
8
0
62
30
10
-0.12727922
20
0.1
30
0
70
32
0
SEQEND
8
0
0
POLYLINE
8
0
62
30
66
1
10
0
20
0
30
0
70
8
0
VERTEX
8
0
62
30
10
-0.12727922
20
0.16
30
0
70
32
0
VERTEX
8
0
62
30
10
-0.16970563
20
0.1
30
0
70
32
0
SEQEND
8
0
0
POLYLINE
8
0
62
30
66
1
10
0
20
0
30
0
70
8
0
VERTEX
8
0
62
30
10
-0.084852814
20
0.16
30
0
70
32
0
VERTEX
8
0
62
30
10
-0.042426407
20
0.1
30
0
70
32
0
SEQEND
8
0
0
POLYLINE
8
0
62
30
66
1
10
0
20
0
30
0
70
8
0
VERTEX
8
0
62
30
10
-0.042426407
20
0.16
30
0
70
32
0
VERTEX
8
0
62
30
10
-0.084852814
20
0.1
30
0
70
32
0
SEQEND
8
0
0
POLYLINE
8
0
62
30
66
1
10
0
20
0
30
0
70
8
0
VERTEX
8
0
62
30
10
-0.12727922
20
0.13
30
0
70
32
0
VERTEX
8
0
62
30
10
-0.084852814
20
0.13
30
0
70
32
0
SEQEND
8
0
0
POLYLINE
8
0
62
30
66
1
10
0
20
0
30
0
70
8
0
VERTEX
8
0
62
30
10
-0.042426407
20
0.13
30
0
70
32
0
VERTEX
8
0
62
30
10
0
20
0.13
30
0
70
32
0
SEQEND
8
0
0
POLYLINE
8
0
62
5
66
1
10
0
20
0
30
0
70
8
0
VERTEX
8
0
62
5
10
-0.16970563
20
0.13
30
0
70
32
0
VERTEX
8
0
62
5
10
-0.14849242
20
0.13
30
0
70
32
0
SEQEND
8
0
0
POLYLINE
8
0
62
5
66
1
10
0
20
0
30
0
70
8
0
VERTEX
8
0
62
5
10
-0.084852814
20
0.13
30
0
70
32
0
VERTEX
8
0
62
5
10
-0.06363961
20
0.13
30
0
70
32
0
SEQEND
8
0
0
POLYLINE
8
0
62
5
66
1
10
0
20
0
30
0
70
8
0
VERTEX
8
0
62
5
10
-0.14849242
20
0.13
30
0
70
32
0
VERTEX
8
0
62
5
10
-0.12727922
20
0.13
30
0
70
32
0
SEQEND
8
0
0
POLYLINE
8
0
62
5
66
1
10
0
20
0
30
0
70
8
0
VERTEX
8
0
62
5
10
-0.06363961
20
0.13
30
0
70
32
0
VERTEX
8
0
62
5
10
-0.042426407
20
0.13
30
0
70
32
0
SEQEND
8
0
0
POLYLINE
8
0
62
5
66
1
10
0
20
0
30
0
70
8
0
VERTEX
8
0
62
5
10
-0.12727922
20
0.1
30
0
70
32
0
VERTEX
8
0
62
5
10
-0.12727922
20
0.16
30
0
70
32
0
SEQEND
8
0
0
POLYLINE
8
0
62
5
66
1
10
0
20
0
30
0
70
8
0
VERTEX
8
0
62
5
10
-0.084852814
20
0.1
30
0
70
32
0
VERTEX
8
0
62
5
10
-0.084852814
20
0.16
30
0
70
32
0
SEQEND
8
0
0
POLYLINE
8
0
62
5
66
1
10
0
20
0
30
0
70
8
0
VERTEX
8
0
62
5
10
-0.042426407
20
0.1
30
0
70
32
0
VERTEX
8
0
62
5
10
-0.042426407
20
0.16
30
0
70
32
0
SEQEND
8
0
0
POLYLINE
8
0
62
5
66
1
10
0
20
0
30
0
70
8
0
VERTEX
8
0
62
5
10
-0.16970563
20
0.1
30
0
70
32
0
VERTEX
8
0
62
5
10
-0.16970563
20
0.16
30
0
70
32
0
SEQEND
8
0
0
POLYLINE
8
0
62
5
66
1
10
0
20
0
30
0
70
8
0
VERTEX
8
0
62
5
10
0
20
0.16
30
0
70
32
0
VERTEX
8
0
62
5
10
0
20
0.2721263
30
0
70
32
0
SEQEND
8
0
0
POLYLINE
8
0
62
5
66
1
10
0
20
0
30
0
70
8
0
VERTEX
8
0
62
5
10
0.16970563
20
0.2721263
30
0
70
32
0
VERTEX
8
0
62
5
10
0.16970563
20
0.16
30
0
70
32
0
SEQEND
8
0
0
POLYLINE
8
0
62
5
66
1
10
0
20
0
30
0
70
8
0
VERTEX
8
0
62
5
10
0
20
0.1600031
30
0
70
32
0
VERTEX
8
0
62
5
10
0.042426407
20
0.17431215
30
0
70
32
0
VERTEX
8
0
62
5
10
0.084852814
20
0.18803157
30
0
70
32
0
VERTEX
8
0
62
5
10
0.12727922
20
0.17372252
30
0
70
32
0
VERTEX
8
0
62
5
10
0.16970563
20
0.1600031
30
0
70
32
0
SEQEND
8
0
0
POLYLINE
8
0
62
5
66
1
10
0
20
0
30
0
70
8
0
VERTEX
8
0
62
5
10
0
20
0.21606625
30
0
70
32
0
VERTEX
8
0
62
5
10
0.042426407
20
0.2303753
30
0
70
32
0
VERTEX
8
0
62
5
10
0.084852814
20
0.24409472
30
0
70
32
0
VERTEX
8
0
62
5
10
0.12727922
20
0.22978567
30
0
70
32
0
VERTEX
8
0
62
5
10
0.16970563
20
0.21606625
30
0
70
32
0
SEQEND
8
0
0
POLYLINE
8
0
62
5
66
1
10
0
20
0
30
0
70
8
0
VERTEX
8
0
62
5
10
0
20
0.21606005
30
0
70
32
0
VERTEX
8
0
62
5
10
0.042426407
20
0.201751
30
0
70
32
0
VERTEX
8
0
62
5
10
0.084852814
20
0.18803157
30
0
70
32
0
VERTEX
8
0
62
5
10
0.12727922
20
0.20234062
30
0
70
32
0
VERTEX
8
0
62
5
10
0.16970563
20
0.21606005
30
0
70
32
0
SEQEND
8
0
0
POLYLINE
8
0
62
5
66
1
10
0
20
0
30
0
70
8
0
VERTEX
8
0
62
5
10
0
20
0.2721232
30
0
70
32
0
VERTEX
8
0
62
5
10
0.042426407
20
0.25781415
30
0
70
32
0
VERTEX
8
0
62
5
10
0.084852814
20
0.24409472
30
0
70
32
0
VERTEX
8
0
62
5
10
0.12727922
20
0.25840377
30
0
70
32
0
VERTEX
8
0
62
5
10
0.16970563
20
0.2721232
30
0
70
32
0
SEQEND
8
0
0
POLYLINE
8
0
62
30
66
1
10
0
20
0
30
0
70
8
0
VERTEX
8
0
62
30
10
0
20
0.24409472
30
0
70
32
0
VERTEX
8
0
62
30
10
0.16970563
20
0.24409472
30
0
70
32
0
SEQEND
8
0
0
POLYLINE
8
0
62
30
66
1
10
0
20
0
30
0
70
8
0
VERTEX
8
0
62
30
10
0.042426407
20
0.17431215
30
0
70
32
0
VERTEX
8
0
62
30
10
0.042426407
20
0.18803157
30
0
70
32
0
SEQEND
8
0
0
POLYLINE
8
0
62
30
66
1
10
0
20
0
30
0
70
8
0
VERTEX
8
0
62
30
10
0.084852814
20
0.18803157
30
0
70
32
0
VERTEX
8
0
62
30
10
0.084852814
20
0.18803157
30
0
70
32
0
SEQEND
8
0
0
POLYLINE
8
0
62
30
66
1
10
0
20
0
30
0
70
8
0
VERTEX
8
0
62
30
10
0.12727922
20
0.17372252
30
0
70
32
0
VERTEX
8
0
62
30
10
0.12727922
20
0.18803157
30
0
70
32
0
SEQEND
8
0
0
POLYLINE
8
0
62
30
66
1
10
0
20
0
30
0
70
8
0
VERTEX
8
0
62
30
10
0.042426407
20
0.2303753
30
0
70
32
0
VERTEX
8
0
62
30
10
0.042426407
20
0.24409472
30
0
70
32
0
SEQEND
8
0
0
POLYLINE
8
0
62
30
66
1
10
0
20
0
30
0
70
8
0
VERTEX
8
0
62
30
10
0.042426407
20
0.24409472
30
0
70
32
0
VERTEX
8
0
62
30
10
0.084852814
20
0.24409472
30
0
70
32
0
SEQEND
8
0
0
POLYLINE
8
0
62
30
66
1
10
0
20
0
30
0
70
8
0
VERTEX
8
0
62
30
10
0.084852814
20
0.24409472
30
0
70
32
0
VERTEX
8
0
62
30
10
0.084852814
20
0.24409472
30
0
70
32
0
SEQEND
8
0
0
POLYLINE
8
0
62
30
66
1
10
0
20
0
30
0
70
8
0
VERTEX
8
0
62
30
10
0.084852814
20
0.24409472
30
0
70
32
0
VERTEX
8
0
62
30
10
0.12727922
20
0.22978567
30
0
70
32
0
SEQEND
8
0
0
POLYLINE
8
0
62
30
66
1
10
0
20
0
30
0
70
8
0
VERTEX
8
0
62
30
10
0.12727922
20
0.22978567
30
0
70
32
0
VERTEX
8
0
62
30
10
0.12727922
20
0.24409472
30
0
70
32
0
SEQEND
8
0
0
POLYLINE
8
0
62
5
66
1
10
0
20
0
30
0
70
8
0
VERTEX
8
0
62
5
10
0.042426407
20
0.16
30
0
70
32
0
VERTEX
8
0
62
5
10
0.042426407
20
0.17431215
30
0
70
32
0
SEQEND
8
0
0
POLYLINE
8
0
62
5
66
1
10
0
20
0
30
0
70
8
0
VERTEX
8
0
62
5
10
0.084852814
20
0.16
30
0
70
32
0
VERTEX
8
0
62
5
10
0.084852814
20
0.18803157
30
0
70
32
0
SEQEND
8
0
0
POLYLINE
8
0
62
5
66
1
10
0
20
0
30
0
70
8
0
VERTEX
8
0
62
5
10
0.12727922
20
0.16
30
0
70
32
0
VERTEX
8
0
62
5
10
0.12727922
20
0.17372252
30
0
70
32
0
SEQEND
8
0
0
POLYLINE
8
0
62
5
66
1
10
0
20
0
30
0
70
8
0
VERTEX
8
0
62
5
10
0.042426407
20
0.21606315
30
0
70
32
0
VERTEX
8
0
62
5
10
0.042426407
20
0.2303753
30
0
70
32
0
SEQEND
8
0
0
POLYLINE
8
0
62
5
66
1
10
0
20
0
30
0
70
8
0
VERTEX
8
0
62
5
10
0.084852814
20
0.21606315
30
0
70
32
0
VERTEX
8
0
62
5
10
0.084852814
20
0.24409472
30
0
70
32
0
SEQEND
8
0
0
POLYLINE
8
0
62
5
66
1
10
0
20
0
30
0
70
8
0
VERTEX
8
0
62
5
10
0.12727922
20
0.21606315
30
0
70
32
0
VERTEX
8
0
62
5
10
0.12727922
20
0.22978567
30
0
70
32
0
SEQEND
8
0
0
POLYLINE
8
0
62
5
66
1
10
0
20
0
30
0
70
8
0
VERTEX
8
0
62
5
10
0.042426407
20
0.18803157
30
0
70
32
0
VERTEX
8
0
62
5
10
0.042426407
20
0.21606315
30
0
70
32
0
SEQEND
8
0
0
POLYLINE
8
0
62
5
66
1
10
0
20
0
30
0
70
8
0
VERTEX
8
0
62
5
10
0.084852814
20
0.18803157
30
0
70
32
0
VERTEX
8
0
62
5
10
0.084852814
20
0.21606315
30
0
70
32
0
SEQEND
8
0
0
POLYLINE
8
0
62
5
66
1
10
0
20
0
30
0
70
8
0
VERTEX
8
0
62
5
10
0.12727922
20
0.18803157
30
0
70
32
0
VERTEX
8
0
62
5
10
0.12727922
20
0.21606315
30
0
70
32
0
SEQEND
8
0
0
POLYLINE
8
0
62
5
66
1
10
0
20
0
30
0
70
8
0
VERTEX
8
0
62
5
10
0.042426407
20
0.24409472
30
0
70
32
0
VERTEX
8
0
62
5
10
0.042426407
20
0.2721263
30
0
70
32
0
SEQEND
8
0
0
POLYLINE
8
0
62
5
66
1
10
0
20
0
30
0
70
8
0
VERTEX
8
0
62
5
10
0.084852814
20
0.24409472
30
0
70
32
0
VERTEX
8
0
62
5
10
0.084852814
20
0.2721263
30
0
70
32
0
SEQEND
8
0
0
POLYLINE
8
0
62
5
66
1
10
0
20
0
30
0
70
8
0
VERTEX
8
0
62
5
10
0.12727922
20
0.24409472
30
0
70
32
0
VERTEX
8
0
62
5
10
0.12727922
20
0.2721263
30
0
70
32
0
SEQEND
8
0
0
POLYLINE
8
0
62
5
66
1
10
0
20
0
30
0
70
8
0
VERTEX
8
0
62
5
10
0.33941125
20
0.2721263
30
0
70
32
0
VERTEX
8
0
62
5
10
0.33941125
20
0.16
30
0
70
32
0
SEQEND
8
0
0
POLYLINE
8
0
62
5
66
1
10
0
20
0
30
0
70
8
0
VERTEX
8
0
62
5
10
0.16970563
20
0.1600031
30
0
70
32
0
VERTEX
8
0
62
5
10
0.21213203
20
0.17431215
30
0
70
32
0
VERTEX
8
0
62
5
10
0.25455844
20
0.18803157
30
0
70
32
0
VERTEX
8
0
62
5
10
0.29698485
20
0.17372252
30
0
70
32
0
VERTEX
8
0
62
5
10
0.33941125
20
0.1600031
30
0
70
32
0
SEQEND
8
0
0
POLYLINE
8
0
62
5
66
1
10
0
20
0
30
0
70
8
0
VERTEX
8
0
62
5
10
0.16970563
20
0.21606625
30
0
70
32
0
VERTEX
8
0
62
5
10
0.21213203
20
0.2303753
30
0
70
32
0
VERTEX
8
0
62
5
10
0.25455844
20
0.24409472
30
0
70
32
0
VERTEX
8
0
62
5
10
0.29698485
20
0.22978567
30
0
70
32
0
VERTEX
8
0
62
5
10
0.33941125
20
0.21606625
30
0
70
32
0
SEQEND
8
0
0
POLYLINE
8
0
62
5
66
1
10
0
20
0
30
0
70
8
0
VERTEX
8
0
62
5
10
0.16970563
20
0.21606005
30
0
70
32
0
VERTEX
8
0
62
5
10
0.21213203
20
0.201751
30
0
70
32
0
VERTEX
8
0
62
5
10
0.25455844
20
0.18803157
30
0
70
32
0
VERTEX
8
0
62
5
10
0.29698485
20
0.20234062
30
0
70
32
0
VERTEX
8
0
62
5
10
0.33941125
20
0.21606005
30
0
70
32
0
SEQEND
8
0
0
POLYLINE
8
0
62
5
66
1
10
0
20
0
30
0
70
8
0
VERTEX
8
0
62
5
10
0.16970563
20
0.2721232
30
0
70
32
0
VERTEX
8
0
62
5
10
0.21213203
20
0.25781415
30
0
70
32
0
VERTEX
8
0
62
5
10
0.25455844
20
0.24409472
30
0
70
32
0
VERTEX
8
0
62
5
10
0.29698485
20
0.25840377
30
0
70
32
0
VERTEX
8
0
62
5
10
0.33941125
20
0.2721232
30
0
70
32
0
SEQEND
8
0
0
POLYLINE
8
0
62
30
66
1
10
0
20
0
30
0
70
8
0
VERTEX
8
0
62
30
10
0.16970563
20
0.24409472
30
0
70
32
0
VERTEX
8
0
62
30
10
0.33941125
20
0.24409472
30
0
70
32
0
SEQEND
8
0
0
POLYLINE
8
0
62
30
66
1
10
0
20
0
30
0
70
8
0
VERTEX
8
0
62
30
10
0.21213203
20
0.17431215
30
0
70
32
0
VERTEX
8
0
62
30
10
0.21213203
20
0.18803157
30
0
70
32
0
SEQEND
8
0
0
POLYLINE
8
0
62
30
66
1
10
0
20
0
30
0
70
8
0
VERTEX
8
0
62
30
10
0.25455844
20
0.18803157
30
0
70
32
0
VERTEX
8
0
62
30
10
0.25455844
20
0.18803157
30
0
70
32
0
SEQEND
8
0
0
POLYLINE
8
0
62
30
66
1
10
0
20
0
30
0
70
8
0
VERTEX
8
0
62
30
10
0.29698485
20
0.17372252
30
0
70
32
0
VERTEX
8
0
62
30
10
0.29698485
20
0.18803157
30
0
70
32
0
SEQEND
8
0
0
POLYLINE
8
0
62
30
66
1
10
0
20
0
30
0
70
8
0
VERTEX
8
0
62
30
10
0.21213203
20
0.2303753
30
0
70
32
0
VERTEX
8
0
62
30
10
0.21213203
20
0.24409472
30
0
70
32
0
SEQEND
8
0
0
POLYLINE
8
0
62
30
66
1
10
0
20
0
30
0
70
8
0
VERTEX
8
0
62
30
10
0.21213203
20
0.24409472
30
0
70
32
0
VERTEX
8
0
62
30
10
0.25455844
20
0.24409472
30
0
70
32
0
SEQEND
8
0
0
POLYLINE
8
0
62
30
66
1
10
0
20
0
30
0
70
8
0
VERTEX
8
0
62
30
10
0.25455844
20
0.24409472
30
0
70
32
0
VERTEX
8
0
62
30
10
0.25455844
20
0.24409472
30
0
70
32
0
SEQEND
8
0
0
POLYLINE
8
0
62
30
66
1
10
0
20
0
30
0
70
8
0
VERTEX
8
0
62
30
10
0.25455844
20
0.24409472
30
0
70
32
0
VERTEX
8
0
62
30
10
0.29698485
20
0.22978567
30
0
70
32
0
SEQEND
8
0
0
POLYLINE
8
0
62
30
66
1
10
0
20
0
30
0
70
8
0
VERTEX
8
0
62
30
10
0.29698485
20
0.22978567
30
0
70
32
0
VERTEX
8
0
62
30
10
0.29698485
20
0.24409472
30
0
70
32
0
SEQEND
8
0
0
POLYLINE
8
0
62
5
66
1
10
0
20
0
30
0
70
8
0
VERTEX
8
0
62
5
10
0.21213203
20
0.16
30
0
70
32
0
VERTEX
8
0
62
5
10
0.21213203
20
0.17431215
30
0
70
32
0
SEQEND
8
0
0
POLYLINE
8
0
62
5
66
1
10
0
20
0
30
0
70
8
0
VERTEX
8
0
62
5
10
0.25455844
20
0.16
30
0
70
32
0
VERTEX
8
0
62
5
10
0.25455844
20
0.18803157
30
0
70
32
0
SEQEND
8
0
0
POLYLINE
8
0
62
5
66
1
10
0
20
0
30
0
70
8
0
VERTEX
8
0
62
5
10
0.29698485
20
0.16
30
0
70
32
0
VERTEX
8
0
62
5
10
0.29698485
20
0.17372252
30
0
70
32
0
SEQEND
8
0
0
POLYLINE
8
0
62
5
66
1
10
0
20
0
30
0
70
8
0
VERTEX
8
0
62
5
10
0.21213203
20
0.21606315
30
0
70
32
0
VERTEX
8
0
62
5
10
0.21213203
20
0.2303753
30
0
70
32
0
SEQEND
8
0
0
POLYLINE
8
0
62
5
66
1
10
0
20
0
30
0
70
8
0
VERTEX
8
0
62
5
10
0.25455844
20
0.21606315
30
0
70
32
0
VERTEX
8
0
62
5
10
0.25455844
20
0.24409472
30
0
70
32
0
SEQEND
8
0
0
POLYLINE
8
0
62
5
66
1
10
0
20
0
30
0
70
8
0
VERTEX
8
0
62
5
10
0.29698485
20
0.21606315
30
0
70
32
0
VERTEX
8
0
62
5
10
0.29698485
20
0.22978567
30
0
70
32
0
SEQEND
8
0
0
POLYLINE
8
0
62
5
66
1
10
0
20
0
30
0
70
8
0
VERTEX
8
0
62
5
10
0.21213203
20
0.18803157
30
0
70
32
0
VERTEX
8
0
62
5
10
0.21213203
20
0.21606315
30
0
70
32
0
SEQEND
8
0
0
POLYLINE
8
0
62
5
66
1
10
0
20
0
30
0
70
8
0
VERTEX
8
0
62
5
10
0.25455844
20
0.18803157
30
0
70
32
0
VERTEX
8
0
62
5
10
0.25455844
20
0.21606315
30
0
70
32
0
SEQEND
8
0
0
POLYLINE
8
0
62
5
66
1
10
0
20
0
30
0
70
8
0
VERTEX
8
0
62
5
10
0.29698485
20
0.18803157
30
0
70
32
0
VERTEX
8
0
62
5
10
0.29698485
20
0.21606315
30
0
70
32
0
SEQEND
8
0
0
POLYLINE
8
0
62
5
66
1
10
0
20
0
30
0
70
8
0
VERTEX
8
0
62
5
10
0.21213203
20
0.24409472
30
0
70
32
0
VERTEX
8
0
62
5
10
0.21213203
20
0.2721263
30
0
70
32
0
SEQEND
8
0
0
POLYLINE
8
0
62
5
66
1
10
0
20
0
30
0
70
8
0
VERTEX
8
0
62
5
10
0.25455844
20
0.24409472
30
0
70
32
0
VERTEX
8
0
62
5
10
0.25455844
20
0.2721263
30
0
70
32
0
SEQEND
8
0
0
POLYLINE
8
0
62
5
66
1
10
0
20
0
30
0
70
8
0
VERTEX
8
0
62
5
10
0.29698485
20
0.24409472
30
0
70
32
0
VERTEX
8
0
62
5
10
0.29698485
20
0.2721263
30
0
70
32
0
SEQEND
8
0
0
POLYLINE
8
0
62
5
66
1
10
0
20
0
30
0
70
8
0
VERTEX
8
0
62
5
10
-0.16970563
20
0.16
30
0
70
32
0
VERTEX
8
0
62
5
10
-0.16970563
20
0.2721263
30
0
70
32
0
SEQEND
8
0
0
POLYLINE
8
0
62
5
66
1
10
0
20
0
30
0
70
8
0
VERTEX
8
0
62
5
10
-0.16970563
20
0.1600031
30
0
70
32
0
VERTEX
8
0
62
5
10
-0.12727922
20
0.17431215
30
0
70
32
0
VERTEX
8
0
62
5
10
-0.084852814
20
0.18803157
30
0
70
32
0
VERTEX
8
0
62
5
10
-0.042426407
20
0.17372252
30
0
70
32
0
VERTEX
8
0
62
5
10
0
20
0.1600031
30
0
70
32
0
SEQEND
8
0
0
POLYLINE
8
0
62
5
66
1
10
0
20
0
30
0
70
8
0
VERTEX
8
0
62
5
10
-0.16970563
20
0.21606625
30
0
70
32
0
VERTEX
8
0
62
5
10
-0.12727922
20
0.2303753
30
0
70
32
0
VERTEX
8
0
62
5
10
-0.084852814
20
0.24409472
30
0
70
32
0
VERTEX
8
0
62
5
10
-0.042426407
20
0.22978567
30
0
70
32
0
VERTEX
8
0
62
5
10
0
20
0.21606625
30
0
70
32
0
SEQEND
8
0
0
POLYLINE
8
0
62
5
66
1
10
0
20
0
30
0
70
8
0
VERTEX
8
0
62
5
10
-0.16970563
20
0.21606005
30
0
70
32
0
VERTEX
8
0
62
5
10
-0.12727922
20
0.201751
30
0
70
32
0
VERTEX
8
0
62
5
10
-0.084852814
20
0.18803157
30
0
70
32
0
VERTEX
8
0
62
5
10
-0.042426407
20
0.20234062
30
0
70
32
0
VERTEX
8
0
62
5
10
0
20
0.21606005
30
0
70
32
0
SEQEND
8
0
0
POLYLINE
8
0
62
5
66
1
10
0
20
0
30
0
70
8
0
VERTEX
8
0
62
5
10
-0.16970563
20
0.2721232
30
0
70
32
0
VERTEX
8
0
62
5
10
-0.12727922
20
0.25781415
30
0
70
32
0
VERTEX
8
0
62
5
10
-0.084852814
20
0.24409472
30
0
70
32
0
VERTEX
8
0
62
5
10
-0.042426407
20
0.25840377
30
0
70
32
0
VERTEX
8
0
62
5
10
0
20
0.2721232
30
0
70
32
0
SEQEND
8
0
0
POLYLINE
8
0
62
30
66
1
10
0
20
0
30
0
70
8
0
VERTEX
8
0
62
30
10
-0.16970563
20
0.24409472
30
0
70
32
0
VERTEX
8
0
62
30
10
0
20
0.24409472
30
0
70
32
0
SEQEND
8
0
0
POLYLINE
8
0
62
30
66
1
10
0
20
0
30
0
70
8
0
VERTEX
8
0
62
30
10
-0.12727922
20
0.17431215
30
0
70
32
0
VERTEX
8
0
62
30
10
-0.12727922
20
0.18803157
30
0
70
32
0
SEQEND
8
0
0
POLYLINE
8
0
62
30
66
1
10
0
20
0
30
0
70
8
0
VERTEX
8
0
62
30
10
-0.084852814
20
0.18803157
30
0
70
32
0
VERTEX
8
0
62
30
10
-0.084852814
20
0.18803157
30
0
70
32
0
SEQEND
8
0
0
POLYLINE
8
0
62
30
66
1
10
0
20
0
30
0
70
8
0
VERTEX
8
0
62
30
10
-0.042426407
20
0.17372252
30
0
70
32
0
VERTEX
8
0
62
30
10
-0.042426407
20
0.18803157
30
0
70
32
0
SEQEND
8
0
0
POLYLINE
8
0
62
30
66
1
10
0
20
0
30
0
70
8
0
VERTEX
8
0
62
30
10
-0.12727922
20
0.2303753
30
0
70
32
0
VERTEX
8
0
62
30
10
-0.12727922
20
0.24409472
30
0
70
32
0
SEQEND
8
0
0
POLYLINE
8
0
62
30
66
1
10
0
20
0
30
0
70
8
0
VERTEX
8
0
62
30
10
-0.12727922
20
0.24409472
30
0
70
32
0
VERTEX
8
0
62
30
10
-0.084852814
20
0.24409472
30
0
70
32
0
SEQEND
8
0
0
POLYLINE
8
0
62
30
66
1
10
0
20
0
30
0
70
8
0
VERTEX
8
0
62
30
10
-0.084852814
20
0.24409472
30
0
70
32
0
VERTEX
8
0
62
30
10
-0.084852814
20
0.24409472
30
0
70
32
0
SEQEND
8
0
0
POLYLINE
8
0
62
30
66
1
10
0
20
0
30
0
70
8
0
VERTEX
8
0
62
30
10
-0.084852814
20
0.24409472
30
0
70
32
0
VERTEX
8
0
62
30
10
-0.042426407
20
0.22978567
30
0
70
32
0
SEQEND
8
0
0
POLYLINE
8
0
62
30
66
1
10
0
20
0
30
0
70
8
0
VERTEX
8
0
62
30
10
-0.042426407
20
0.22978567
30
0
70
32
0
VERTEX
8
0
62
30
10
-0.042426407
20
0.24409472
30
0
70
32
0
SEQEND
8
0
0
POLYLINE
8
0
62
5
66
1
10
0
20
0
30
0
70
8
0
VERTEX
8
0
62
5
10
-0.12727922
20
0.16
30
0
70
32
0
VERTEX
8
0
62
5
10
-0.12727922
20
0.17431215
30
0
70
32
0
SEQEND
8
0
0
POLYLINE
8
0
62
5
66
1
10
0
20
0
30
0
70
8
0
VERTEX
8
0
62
5
10
-0.084852814
20
0.16
30
0
70
32
0
VERTEX
8
0
62
5
10
-0.084852814
20
0.18803157
30
0
70
32
0
SEQEND
8
0
0
POLYLINE
8
0
62
5
66
1
10
0
20
0
30
0
70
8
0
VERTEX
8
0
62
5
10
-0.042426407
20
0.16
30
0
70
32
0
VERTEX
8
0
62
5
10
-0.042426407
20
0.17372252
30
0
70
32
0
SEQEND
8
0
0
POLYLINE
8
0
62
5
66
1
10
0
20
0
30
0
70
8
0
VERTEX
8
0
62
5
10
-0.12727922
20
0.21606315
30
0
70
32
0
VERTEX
8
0
62
5
10
-0.12727922
20
0.2303753
30
0
70
32
0
SEQEND
8
0
0
POLYLINE
8
0
62
5
66
1
10
0
20
0
30
0
70
8
0
VERTEX
8
0
62
5
10
-0.084852814
20
0.21606315
30
0
70
32
0
VERTEX
8
0
62
5
10
-0.084852814
20
0.24409472
30
0
70
32
0
SEQEND
8
0
0
POLYLINE
8
0
62
5
66
1
10
0
20
0
30
0
70
8
0
VERTEX
8
0
62
5
10
-0.042426407
20
0.21606315
30
0
70
32
0
VERTEX
8
0
62
5
10
-0.042426407
20
0.22978567
30
0
70
32
0
SEQEND
8
0
0
POLYLINE
8
0
62
5
66
1
10
0
20
0
30
0
70
8
0
VERTEX
8
0
62
5
10
-0.12727922
20
0.18803157
30
0
70
32
0
VERTEX
8
0
62
5
10
-0.12727922
20
0.21606315
30
0
70
32
0
SEQEND
8
0
0
POLYLINE
8
0
62
5
66
1
10
0
20
0
30
0
70
8
0
VERTEX
8
0
62
5
10
-0.084852814
20
0.18803157
30
0
70
32
0
VERTEX
8
0
62
5
10
-0.084852814
20
0.21606315
30
0
70
32
0
SEQEND
8
0
0
POLYLINE
8
0
62
5
66
1
10
0
20
0
30
0
70
8
0
VERTEX
8
0
62
5
10
-0.042426407
20
0.18803157
30
0
70
32
0
VERTEX
8
0
62
5
10
-0.042426407
20
0.21606315
30
0
70
32
0
SEQEND
8
0
0
POLYLINE
8
0
62
5
66
1
10
0
20
0
30
0
70
8
0
VERTEX
8
0
62
5
10
-0.12727922
20
0.24409472
30
0
70
32
0
VERTEX
8
0
62
5
10
-0.12727922
20
0.2721263
30
0
70
32
0
SEQEND
8
0
0
POLYLINE
8
0
62
5
66
1
10
0
20
0
30
0
70
8
0
VERTEX
8
0
62
5
10
-0.084852814
20
0.24409472
30
0
70
32
0
VERTEX
8
0
62
5
10
-0.084852814
20
0.2721263
30
0
70
32
0
SEQEND
8
0
0
POLYLINE
8
0
62
5
66
1
10
0
20
0
30
0
70
8
0
VERTEX
8
0
62
5
10
-0.042426407
20
0.24409472
30
0
70
32
0
VERTEX
8
0
62
5
10
-0.042426407
20
0.2721263
30
0
70
32
0
SEQEND
8
0
0
POLYLINE
8
0
62
30
66
1
10
0
20
0
30
0
70
8
0
VERTEX
8
0
62
30
10
0
20
0.32763032
30
0
70
32
0
VERTEX
8
0
62
30
10
0.16970563
20
0.32763032
30
0
70
32
0
SEQEND
8
0
0
POLYLINE
8
0
62
30
66
1
10
0
20
0
30
0
70
8
0
VERTEX
8
0
62
30
10
0
20
0.2721263
30
0
70
32
0
VERTEX
8
0
62
30
10
0.16970563
20
0.2721263
30
0
70
32
0
SEQEND
8
0
0
POLYLINE
8
0
62
5
66
1
10
0
20
0
30
0
70
8
0
VERTEX
8
0
62
5
10
0
20
0.2721263
30
0
70
32
0
VERTEX
8
0
62
5
10
0.018308857
20
0.32763032
30
0
70
32
0
VERTEX
8
0
62
5
10
0.042426407
20
0.2721263
30
0
70
32
0
VERTEX
8
0
62
5
10
0.060735264
20
0.32763032
30
0
70
32
0
VERTEX
8
0
62
5
10
0.084852814
20
0.2721263
30
0
70
32
0
VERTEX
8
0
62
5
10
0.10316167
20
0.32763032
30
0
70
32
0
VERTEX
8
0
62
5
10
0.12727922
20
0.2721263
30
0
70
32
0
VERTEX
8
0
62
5
10
0.14558808
20
0.32763032
30
0
70
32
0
VERTEX
8
0
62
5
10
0.16970563
20
0.2721263
30
0
70
32
0
SEQEND
8
0
0
POLYLINE
8
0
62
5
66
1
10
0
20
0
30
0
70
8
0
VERTEX
8
0
62
5
10
0.042426407
20
0.2721263
30
0
70
32
0
VERTEX
8
0
62
5
10
0.042426407
20
0.2721263
30
0
70
32
0
SEQEND
8
0
0
POLYLINE
8
0
62
5
66
1
10
0
20
0
30
0
70
8
0
VERTEX
8
0
62
5
10
0.084852814
20
0.2721263
30
0
70
32
0
VERTEX
8
0
62
5
10
0.084852814
20
0.2721263
30
0
70
32
0
SEQEND
8
0
0
POLYLINE
8
0
62
5
66
1
10
0
20
0
30
0
70
8
0
VERTEX
8
0
62
5
10
0.12727922
20
0.2721263
30
0
70
32
0
VERTEX
8
0
62
5
10
0.12727922
20
0.2721263
30
0
70
32
0
SEQEND
8
0
0
POLYLINE
8
0
62
5
66
1
10
0
20
0
30
0
70
8
0
VERTEX
8
0
62
5
10
0.018308857
20
0.32763032
30
0
70
32
0
VERTEX
8
0
62
5
10
0.018308857
20
0.32763032
30
0
70
32
0
SEQEND
8
0
0
POLYLINE
8
0
62
5
66
1
10
0
20
0
30
0
70
8
0
VERTEX
8
0
62
5
10
0.060735264
20
0.32763032
30
0
70
32
0
VERTEX
8
0
62
5
10
0.060735264
20
0.32763032
30
0
70
32
0
SEQEND
8
0
0
POLYLINE
8
0
62
5
66
1
10
0
20
0
30
0
70
8
0
VERTEX
8
0
62
5
10
0.10316167
20
0.32763032
30
0
70
32
0
VERTEX
8
0
62
5
10
0.10316167
20
0.32763032
30
0
70
32
0
SEQEND
8
0
0
POLYLINE
8
0
62
5
66
1
10
0
20
0
30
0
70
8
0
VERTEX
8
0
62
5
10
0.14558808
20
0.32763032
30
0
70
32
0
VERTEX
8
0
62
5
10
0.14558808
20
0.32763032
30
0
70
32
0
SEQEND
8
0
0
POLYLINE
8
0
62
30
66
1
10
0
20
0
30
0
70
8
0
VERTEX
8
0
62
30
10
0.16970563
20
0.32763032
30
0
70
32
0
VERTEX
8
0
62
30
10
0.33941125
20
0.32763032
30
0
70
32
0
SEQEND
8
0
0
POLYLINE
8
0
62
30
66
1
10
0
20
0
30
0
70
8
0
VERTEX
8
0
62
30
10
0.16970563
20
0.2721263
30
0
70
32
0
VERTEX
8
0
62
30
10
0.33941125
20
0.2721263
30
0
70
32
0
SEQEND
8
0
0
POLYLINE
8
0
62
5
66
1
10
0
20
0
30
0
70
8
0
VERTEX
8
0
62
5
10
0.16970563
20
0.2721263
30
0
70
32
0
VERTEX
8
0
62
5
10
0.18801448
20
0.32763032
30
0
70
32
0
VERTEX
8
0
62
5
10
0.21213203
20
0.2721263
30
0
70
32
0
VERTEX
8
0
62
5
10
0.23044089
20
0.32763032
30
0
70
32
0
VERTEX
8
0
62
5
10
0.25455844
20
0.2721263
30
0
70
32
0
VERTEX
8
0
62
5
10
0.2728673
20
0.32763032
30
0
70
32
0
VERTEX
8
0
62
5
10
0.29698485
20
0.2721263
30
0
70
32
0
VERTEX
8
0
62
5
10
0.31529371
20
0.32763032
30
0
70
32
0
VERTEX
8
0
62
5
10
0.33941125
20
0.2721263
30
0
70
32
0
SEQEND
8
0
0
POLYLINE
8
0
62
5
66
1
10
0
20
0
30
0
70
8
0
VERTEX
8
0
62
5
10
0.21213203
20
0.2721263
30
0
70
32
0
VERTEX
8
0
62
5
10
0.21213203
20
0.2721263
30
0
70
32
0
SEQEND
8
0
0
POLYLINE
8
0
62
5
66
1
10
0
20
0
30
0
70
8
0
VERTEX
8
0
62
5
10
0.25455844
20
0.2721263
30
0
70
32
0
VERTEX
8
0
62
5
10
0.25455844
20
0.2721263
30
0
70
32
0
SEQEND
8
0
0
POLYLINE
8
0
62
5
66
1
10
0
20
0
30
0
70
8
0
VERTEX
8
0
62
5
10
0.29698485
20
0.2721263
30
0
70
32
0
VERTEX
8
0
62
5
10
0.29698485
20
0.2721263
30
0
70
32
0
SEQEND
8
0
0
POLYLINE
8
0
62
5
66
1
10
0
20
0
30
0
70
8
0
VERTEX
8
0
62
5
10
0.18801448
20
0.32763032
30
0
70
32
0
VERTEX
8
0
62
5
10
0.18801448
20
0.32763032
30
0
70
32
0
SEQEND
8
0
0
POLYLINE
8
0
62
5
66
1
10
0
20
0
30
0
70
8
0
VERTEX
8
0
62
5
10
0.23044089
20
0.32763032
30
0
70
32
0
VERTEX
8
0
62
5
10
0.23044089
20
0.32763032
30
0
70
32
0
SEQEND
8
0
0
POLYLINE
8
0
62
5
66
1
10
0
20
0
30
0
70
8
0
VERTEX
8
0
62
5
10
0.2728673
20
0.32763032
30
0
70
32
0
VERTEX
8
0
62
5
10
0.2728673
20
0.32763032
30
0
70
32
0
SEQEND
8
0
0
POLYLINE
8
0
62
5
66
1
10
0
20
0
30
0
70
8
0
VERTEX
8
0
62
5
10
0.31529371
20
0.32763032
30
0
70
32
0
VERTEX
8
0
62
5
10
0.31529371
20
0.32763032
30
0
70
32
0
SEQEND
8
0
0
POLYLINE
8
0
62
30
66
1
10
0
20
0
30
0
70
8
0
VERTEX
8
0
62
30
10
-0.16970563
20
0.32763032
30
0
70
32
0
VERTEX
8
0
62
30
10
0
20
0.32763032
30
0
70
32
0
SEQEND
8
0
0
POLYLINE
8
0
62
30
66
1
10
0
20
0
30
0
70
8
0
VERTEX
8
0
62
30
10
-0.16970563
20
0.2721263
30
0
70
32
0
VERTEX
8
0
62
30
10
0
20
0.2721263
30
0
70
32
0
SEQEND
8
0
0
POLYLINE
8
0
62
5
66
1
10
0
20
0
30
0
70
8
0
VERTEX
8
0
62
5
10
-0.16970563
20
0.2721263
30
0
70
32
0
VERTEX
8
0
62
5
10
-0.15139677
20
0.32763032
30
0
70
32
0
VERTEX
8
0
62
5
10
-0.12727922
20
0.2721263
30
0
70
32
0
VERTEX
8
0
62
5
10
-0.10897036
20
0.32763032
30
0
70
32
0
VERTEX
8
0
62
5
10
-0.084852814
20
0.2721263
30
0
70
32
0
VERTEX
8
0
62
5
10
-0.066543957
20
0.32763032
30
0
70
32
0
VERTEX
8
0
62
5
10
-0.042426407
20
0.2721263
30
0
70
32
0
VERTEX
8
0
62
5
10
-0.02411755
20
0.32763032
30
0
70
32
0
VERTEX
8
0
62
5
10
0
20
0.2721263
30
0
70
32
0
SEQEND
8
0
0
POLYLINE
8
0
62
5
66
1
10
0
20
0
30
0
70
8
0
VERTEX
8
0
62
5
10
-0.12727922
20
0.2721263
30
0
70
32
0
VERTEX
8
0
62
5
10
-0.12727922
20
0.2721263
30
0
70
32
0
SEQEND
8
0
0
POLYLINE
8
0
62
5
66
1
10
0
20
0
30
0
70
8
0
VERTEX
8
0
62
5
10
-0.084852814
20
0.2721263
30
0
70
32
0
VERTEX
8
0
62
5
10
-0.084852814
20
0.2721263
30
0
70
32
0
SEQEND
8
0
0
POLYLINE
8
0
62
5
66
1
10
0
20
0
30
0
70
8
0
VERTEX
8
0
62
5
10
-0.042426407
20
0.2721263
30
0
70
32
0
VERTEX
8
0
62
5
10
-0.042426407
20
0.2721263
30
0
70
32
0
SEQEND
8
0
0
POLYLINE
8
0
62
5
66
1
10
0
20
0
30
0
70
8
0
VERTEX
8
0
62
5
10
-0.15139677
20
0.32763032
30
0
70
32
0
VERTEX
8
0
62
5
10
-0.15139677
20
0.32763032
30
0
70
32
0
SEQEND
8
0
0
POLYLINE
8
0
62
5
66
1
10
0
20
0
30
0
70
8
0
VERTEX
8
0
62
5
10
-0.10897036
20
0.32763032
30
0
70
32
0
VERTEX
8
0
62
5
10
-0.10897036
20
0.32763032
30
0
70
32
0
SEQEND
8
0
0
POLYLINE
8
0
62
5
66
1
10
0
20
0
30
0
70
8
0
VERTEX
8
0
62
5
10
-0.066543957
20
0.32763032
30
0
70
32
0
VERTEX
8
0
62
5
10
-0.066543957
20
0.32763032
30
0
70
32
0
SEQEND
8
0
0
POLYLINE
8
0
62
5
66
1
10
0
20
0
30
0
70
8
0
VERTEX
8
0
62
5
10
-0.02411755
20
0.32763032
30
0
70
32
0
VERTEX
8
0
62
5
10
-0.02411755
20
0.32763032
30
0
70
32
0
SEQEND
8
0
0
POLYLINE
8
0
62
5
66
1
10
0
20
0
30
0
70
8
0
VERTEX
8
0
62
5
10
0.018308857
20
0.32763032
30
0
70
32
0
VERTEX
8
0
62
5
10
0.018308857
20
0.54693634
30
0
70
32
0
SEQEND
8
0
0
POLYLINE
8
0
62
5
66
1
10
0
20
0
30
0
70
8
0
VERTEX
8
0
62
5
10
0.18801448
20
0.32763032
30
0
70
32
0
VERTEX
8
0
62
5
10
0.18801448
20
0.54693634
30
0
70
32
0
SEQEND
8
0
0
POLYLINE
8
0
62
5
66
1
10
0
20
0
30
0
70
8
0
VERTEX
8
0
62
5
10
0.060735264
20
0.32763032
30
0
70
32
0
VERTEX
8
0
62
5
10
0.060735264
20
0.54693634
30
0
70
32
0
SEQEND
8
0
0
POLYLINE
8
0
62
5
66
1
10
0
20
0
30
0
70
8
0
VERTEX
8
0
62
5
10
0.10316167
20
0.32763032
30
0
70
32
0
VERTEX
8
0
62
5
10
0.10316167
20
0.54693634
30
0
70
32
0
SEQEND
8
0
0
POLYLINE
8
0
62
5
66
1
10
0
20
0
30
0
70
8
0
VERTEX
8
0
62
5
10
0.14558808
20
0.32763032
30
0
70
32
0
VERTEX
8
0
62
5
10
0.14558808
20
0.54693634
30
0
70
32
0
SEQEND
8
0
0
POLYLINE
8
0
62
5
66
1
10
0
20
0
30
0
70
8
0
VERTEX
8
0
62
5
10
0.35772011
20
0.32763032
30
0
70
32
0
VERTEX
8
0
62
5
10
0.35772011
20
0.54693634
30
0
70
32
0
SEQEND
8
0
0
POLYLINE
8
0
62
5
66
1
10
0
20
0
30
0
70
8
0
VERTEX
8
0
62
5
10
0.23044089
20
0.32763032
30
0
70
32
0
VERTEX
8
0
62
5
10
0.23044089
20
0.54693634
30
0
70
32
0
SEQEND
8
0
0
POLYLINE
8
0
62
5
66
1
10
0
20
0
30
0
70
8
0
VERTEX
8
0
62
5
10
0.2728673
20
0.32763032
30
0
70
32
0
VERTEX
8
0
62
5
10
0.2728673
20
0.54693634
30
0
70
32
0
SEQEND
8
0
0
POLYLINE
8
0
62
5
66
1
10
0
20
0
30
0
70
8
0
VERTEX
8
0
62
5
10
0.31529371
20
0.32763032
30
0
70
32
0
VERTEX
8
0
62
5
10
0.31529371
20
0.54693634
30
0
70
32
0
SEQEND
8
0
0
POLYLINE
8
0
62
5
66
1
10
0
20
0
30
0
70
8
0
VERTEX
8
0
62
5
10
-0.15139677
20
0.32763032
30
0
70
32
0
VERTEX
8
0
62
5
10
-0.15139677
20
0.54693634
30
0
70
32
0
SEQEND
8
0
0
POLYLINE
8
0
62
5
66
1
10
0
20
0
30
0
70
8
0
VERTEX
8
0
62
5
10
-0.10897036
20
0.32763032
30
0
70
32
0
VERTEX
8
0
62
5
10
-0.10897036
20
0.54693634
30
0
70
32
0
SEQEND
8
0
0
POLYLINE
8
0
62
5
66
1
10
0
20
0
30
0
70
8
0
VERTEX
8
0
62
5
10
-0.066543957
20
0.32763032
30
0
70
32
0
VERTEX
8
0
62
5
10
-0.066543957
20
0.54693634
30
0
70
32
0
SEQEND
8
0
0
POLYLINE
8
0
62
5
66
1
10
0
20
0
30
0
70
8
0
VERTEX
8
0
62
5
10
-0.02411755
20
0.32763032
30
0
70
32
0
VERTEX
8
0
62
5
10
-0.02411755
20
0.54693634
30
0
70
32
0
SEQEND
8
0
0
POLYLINE
8
0
62
5
66
1
10
0
20
0
30
0
70
8
0
VERTEX
8
0
62
5
10
0.018308857
20
0.54693634
30
0
70
32
0
VERTEX
8
0
62
5
10
0.018308857
20
0.59545236
30
0
70
32
0
SEQEND
8
0
0
POLYLINE
8
0
62
5
66
1
10
0
20
0
30
0
70
8
0
VERTEX
8
0
62
5
10
0.18801448
20
0.59545236
30
0
70
32
0
VERTEX
8
0
62
5
10
0.18801448
20
0.54693634
30
0
70
32
0
SEQEND
8
0
0
POLYLINE
8
0
62
5
66
1
10
0
20
0
30
0
70
8
0
VERTEX
8
0
62
5
10
0.018308857
20
0.55326506
30
0
70
32
0
VERTEX
8
0
62
5
10
0.060735264
20
0.54880643
30
0
70
32
0
VERTEX
8
0
62
5
10
0.10316167
20
0.56673572
30
0
70
32
0
VERTEX
8
0
62
5
10
0.14558808
20
0.57119435
30
0
70
32
0
VERTEX
8
0
62
5
10
0.18801448
20
0.55326506
30
0
70
32
0
SEQEND
8
0
0
POLYLINE
8
0
62
5
66
1
10
0
20
0
30
0
70
8
0
SEQEND
8
0
0
POLYLINE
8
0
62
5
66
1
10
0
20
0
30
0
70
8
0
VERTEX
8
0
62
5
10
0.018308857
20
0.58912364
30
0
70
32
0
VERTEX
8
0
62
5
10
0.060735264
20
0.59358227
30
0
70
32
0
VERTEX
8
0
62
5
10
0.10316167
20
0.57565298
30
0
70
32
0
VERTEX
8
0
62
5
10
0.14558808
20
0.57119435
30
0
70
32
0
VERTEX
8
0
62
5
10
0.18801448
20
0.58912364
30
0
70
32
0
SEQEND
8
0
0
POLYLINE
8
0
62
30
66
1
10
0
20
0
30
0
70
8
0
VERTEX
8
0
62
30
10
0.018308857
20
0.57119435
30
0
70
32
0
VERTEX
8
0
62
30
10
0.18801448
20
0.57119435
30
0
70
32
0
SEQEND
8
0
0
POLYLINE
8
0
62
30
66
1
10
0
20
0
30
0
70
8
0
VERTEX
8
0
62
30
10
0.060735264
20
0.54880643
30
0
70
32
0
VERTEX
8
0
62
30
10
0.060735264
20
0.57119435
30
0
70
32
0
SEQEND
8
0
0
POLYLINE
8
0
62
30
66
1
10
0
20
0
30
0
70
8
0
VERTEX
8
0
62
30
10
0.10316167
20
0.56673572
30
0
70
32
0
VERTEX
8
0
62
30
10
0.10316167
20
0.57119435
30
0
70
32
0
SEQEND
8
0
0
POLYLINE
8
0
62
30
66
1
10
0
20
0
30
0
70
8
0
VERTEX
8
0
62
30
10
0.14558808
20
0.57119435
30
0
70
32
0
VERTEX
8
0
62
30
10
0.14558808
20
0.57119435
30
0
70
32
0
SEQEND
8
0
0
POLYLINE
8
0
62
5
66
1
10
0
20
0
30
0
70
8
0
VERTEX
8
0
62
5
10
0.060735264
20
0.54693634
30
0
70
32
0
VERTEX
8
0
62
5
10
0.060735264
20
0.54880643
30
0
70
32
0
SEQEND
8
0
0
POLYLINE
8
0
62
5
66
1
10
0
20
0
30
0
70
8
0
VERTEX
8
0
62
5
10
0.10316167
20
0.54693634
30
0
70
32
0
VERTEX
8
0
62
5
10
0.10316167
20
0.56673572
30
0
70
32
0
SEQEND
8
0
0
POLYLINE
8
0
62
5
66
1
10
0
20
0
30
0
70
8
0
VERTEX
8
0
62
5
10
0.14558808
20
0.54693634
30
0
70
32
0
VERTEX
8
0
62
5
10
0.14558808
20
0.57119435
30
0
70
32
0
SEQEND
8
0
0
POLYLINE
8
0
62
5
66
1
10
0
20
0
30
0
70
8
0
VERTEX
8
0
62
5
10
0.060735264
20
0.57119435
30
0
70
32
0
VERTEX
8
0
62
5
10
0.060735264
20
0.59545236
30
0
70
32
0
SEQEND
8
0
0
POLYLINE
8
0
62
5
66
1
10
0
20
0
30
0
70
8
0
VERTEX
8
0
62
5
10
0.10316167
20
0.57119435
30
0
70
32
0
VERTEX
8
0
62
5
10
0.10316167
20
0.59545236
30
0
70
32
0
SEQEND
8
0
0
POLYLINE
8
0
62
5
66
1
10
0
20
0
30
0
70
8
0
VERTEX
8
0
62
5
10
0.14558808
20
0.57119435
30
0
70
32
0
VERTEX
8
0
62
5
10
0.14558808
20
0.59545236
30
0
70
32
0
SEQEND
8
0
0
POLYLINE
8
0
62
5
66
1
10
0
20
0
30
0
70
8
0
VERTEX
8
0
62
5
10
0.35772011
20
0.59545236
30
0
70
32
0
VERTEX
8
0
62
5
10
0.35772011
20
0.54693634
30
0
70
32
0
SEQEND
8
0
0
POLYLINE
8
0
62
5
66
1
10
0
20
0
30
0
70
8
0
VERTEX
8
0
62
5
10
0.18801448
20
0.55326506
30
0
70
32
0
VERTEX
8
0
62
5
10
0.23044089
20
0.54880643
30
0
70
32
0
VERTEX
8
0
62
5
10
0.2728673
20
0.56673572
30
0
70
32
0
VERTEX
8
0
62
5
10
0.31529371
20
0.57119435
30
0
70
32
0
VERTEX
8
0
62
5
10
0.35772011
20
0.55326506
30
0
70
32
0
SEQEND
8
0
0
POLYLINE
8
0
62
5
66
1
10
0
20
0
30
0
70
8
0
SEQEND
8
0
0
POLYLINE
8
0
62
5
66
1
10
0
20
0
30
0
70
8
0
VERTEX
8
0
62
5
10
0.18801448
20
0.58912364
30
0
70
32
0
VERTEX
8
0
62
5
10
0.23044089
20
0.59358227
30
0
70
32
0
VERTEX
8
0
62
5
10
0.2728673
20
0.57565298
30
0
70
32
0
VERTEX
8
0
62
5
10
0.31529371
20
0.57119435
30
0
70
32
0
VERTEX
8
0
62
5
10
0.35772011
20
0.58912364
30
0
70
32
0
SEQEND
8
0
0
POLYLINE
8
0
62
30
66
1
10
0
20
0
30
0
70
8
0
VERTEX
8
0
62
30
10
0.18801448
20
0.57119435
30
0
70
32
0
VERTEX
8
0
62
30
10
0.35772011
20
0.57119435
30
0
70
32
0
SEQEND
8
0
0
POLYLINE
8
0
62
30
66
1
10
0
20
0
30
0
70
8
0
VERTEX
8
0
62
30
10
0.23044089
20
0.54880643
30
0
70
32
0
VERTEX
8
0
62
30
10
0.23044089
20
0.57119435
30
0
70
32
0
SEQEND
8
0
0
POLYLINE
8
0
62
30
66
1
10
0
20
0
30
0
70
8
0
VERTEX
8
0
62
30
10
0.2728673
20
0.56673572
30
0
70
32
0
VERTEX
8
0
62
30
10
0.2728673
20
0.57119435
30
0
70
32
0
SEQEND
8
0
0
POLYLINE
8
0
62
30
66
1
10
0
20
0
30
0
70
8
0
VERTEX
8
0
62
30
10
0.31529371
20
0.57119435
30
0
70
32
0
VERTEX
8
0
62
30
10
0.31529371
20
0.57119435
30
0
70
32
0
SEQEND
8
0
0
POLYLINE
8
0
62
5
66
1
10
0
20
0
30
0
70
8
0
VERTEX
8
0
62
5
10
0.23044089
20
0.54693634
30
0
70
32
0
VERTEX
8
0
62
5
10
0.23044089
20
0.54880643
30
0
70
32
0
SEQEND
8
0
0
POLYLINE
8
0
62
5
66
1
10
0
20
0
30
0
70
8
0
VERTEX
8
0
62
5
10
0.2728673
20
0.54693634
30
0
70
32
0
VERTEX
8
0
62
5
10
0.2728673
20
0.56673572
30
0
70
32
0
SEQEND
8
0
0
POLYLINE
8
0
62
5
66
1
10
0
20
0
30
0
70
8
0
VERTEX
8
0
62
5
10
0.31529371
20
0.54693634
30
0
70
32
0
VERTEX
8
0
62
5
10
0.31529371
20
0.57119435
30
0
70
32
0
SEQEND
8
0
0
POLYLINE
8
0
62
5
66
1
10
0
20
0
30
0
70
8
0
VERTEX
8
0
62
5
10
0.23044089
20
0.57119435
30
0
70
32
0
VERTEX
8
0
62
5
10
0.23044089
20
0.59545236
30
0
70
32
0
SEQEND
8
0
0
POLYLINE
8
0
62
5
66
1
10
0
20
0
30
0
70
8
0
VERTEX
8
0
62
5
10
0.2728673
20
0.57119435
30
0
70
32
0
VERTEX
8
0
62
5
10
0.2728673
20
0.59545236
30
0
70
32
0
SEQEND
8
0
0
POLYLINE
8
0
62
5
66
1
10
0
20
0
30
0
70
8
0
VERTEX
8
0
62
5
10
0.31529371
20
0.57119435
30
0
70
32
0
VERTEX
8
0
62
5
10
0.31529371
20
0.59545236
30
0
70
32
0
SEQEND
8
0
0
POLYLINE
8
0
62
5
66
1
10
0
20
0
30
0
70
8
0
VERTEX
8
0
62
5
10
-0.15139677
20
0.54693634
30
0
70
32
0
VERTEX
8
0
62
5
10
-0.15139677
20
0.59545236
30
0
70
32
0
SEQEND
8
0
0
POLYLINE
8
0
62
5
66
1
10
0
20
0
30
0
70
8
0
VERTEX
8
0
62
5
10
-0.15139677
20
0.55326506
30
0
70
32
0
VERTEX
8
0
62
5
10
-0.10897036
20
0.54880643
30
0
70
32
0
VERTEX
8
0
62
5
10
-0.066543957
20
0.56673572
30
0
70
32
0
VERTEX
8
0
62
5
10
-0.02411755
20
0.57119435
30
0
70
32
0
VERTEX
8
0
62
5
10
0.018308857
20
0.55326506
30
0
70
32
0
SEQEND
8
0
0
POLYLINE
8
0
62
5
66
1
10
0
20
0
30
0
70
8
0
SEQEND
8
0
0
POLYLINE
8
0
62
5
66
1
10
0
20
0
30
0
70
8
0
VERTEX
8
0
62
5
10
-0.15139677
20
0.58912364
30
0
70
32
0
VERTEX
8
0
62
5
10
-0.10897036
20
0.59358227
30
0
70
32
0
VERTEX
8
0
62
5
10
-0.066543957
20
0.57565298
30
0
70
32
0
VERTEX
8
0
62
5
10
-0.02411755
20
0.57119435
30
0
70
32
0
VERTEX
8
0
62
5
10
0.018308857
20
0.58912364
30
0
70
32
0
SEQEND
8
0
0
POLYLINE
8
0
62
30
66
1
10
0
20
0
30
0
70
8
0
VERTEX
8
0
62
30
10
-0.15139677
20
0.57119435
30
0
70
32
0
VERTEX
8
0
62
30
10
0.018308857
20
0.57119435
30
0
70
32
0
SEQEND
8
0
0
POLYLINE
8
0
62
30
66
1
10
0
20
0
30
0
70
8
0
VERTEX
8
0
62
30
10
-0.10897036
20
0.54880643
30
0
70
32
0
VERTEX
8
0
62
30
10
-0.10897036
20
0.57119435
30
0
70
32
0
SEQEND
8
0
0
POLYLINE
8
0
62
30
66
1
10
0
20
0
30
0
70
8
0
VERTEX
8
0
62
30
10
-0.066543957
20
0.56673572
30
0
70
32
0
VERTEX
8
0
62
30
10
-0.066543957
20
0.57119435
30
0
70
32
0
SEQEND
8
0
0
POLYLINE
8
0
62
30
66
1
10
0
20
0
30
0
70
8
0
VERTEX
8
0
62
30
10
-0.02411755
20
0.57119435
30
0
70
32
0
VERTEX
8
0
62
30
10
-0.02411755
20
0.57119435
30
0
70
32
0
SEQEND
8
0
0
POLYLINE
8
0
62
5
66
1
10
0
20
0
30
0
70
8
0
VERTEX
8
0
62
5
10
-0.10897036
20
0.54693634
30
0
70
32
0
VERTEX
8
0
62
5
10
-0.10897036
20
0.54880643
30
0
70
32
0
SEQEND
8
0
0
POLYLINE
8
0
62
5
66
1
10
0
20
0
30
0
70
8
0
VERTEX
8
0
62
5
10
-0.066543957
20
0.54693634
30
0
70
32
0
VERTEX
8
0
62
5
10
-0.066543957
20
0.56673572
30
0
70
32
0
SEQEND
8
0
0
POLYLINE
8
0
62
5
66
1
10
0
20
0
30
0
70
8
0
VERTEX
8
0
62
5
10
-0.02411755
20
0.54693634
30
0
70
32
0
VERTEX
8
0
62
5
10
-0.02411755
20
0.57119435
30
0
70
32
0
SEQEND
8
0
0
POLYLINE
8
0
62
5
66
1
10
0
20
0
30
0
70
8
0
VERTEX
8
0
62
5
10
-0.10897036
20
0.57119435
30
0
70
32
0
VERTEX
8
0
62
5
10
-0.10897036
20
0.59545236
30
0
70
32
0
SEQEND
8
0
0
POLYLINE
8
0
62
5
66
1
10
0
20
0
30
0
70
8
0
VERTEX
8
0
62
5
10
-0.066543957
20
0.57119435
30
0
70
32
0
VERTEX
8
0
62
5
10
-0.066543957
20
0.59545236
30
0
70
32
0
SEQEND
8
0
0
POLYLINE
8
0
62
5
66
1
10
0
20
0
30
0
70
8
0
VERTEX
8
0
62
5
10
-0.02411755
20
0.57119435
30
0
70
32
0
VERTEX
8
0
62
5
10
-0.02411755
20
0.59545236
30
0
70
32
0
SEQEND
8
0
0
POLYLINE
8
0
62
5
66
1
10
0
20
0
30
0
70
8
0
VERTEX
8
0
62
5
10
0.018308857
20
0.59545236
30
0
70
32
0
VERTEX
8
0
62
5
10
0.018308857
20
0.65545236
30
0
70
32
0
SEQEND
8
0
0
POLYLINE
8
0
62
5
66
1
10
0
20
0
30
0
70
8
0
VERTEX
8
0
62
5
10
0.18801448
20
0.65545236
30
0
70
32
0
VERTEX
8
0
62
5
10
0.18801448
20
0.59545236
30
0
70
32
0
SEQEND
8
0
0
POLYLINE
8
0
62
5
66
1
10
0
20
0
30
0
70
8
0
VERTEX
8
0
62
5
10
0.018308857
20
0.59545236
30
0
70
32
0
VERTEX
8
0
62
5
10
0.18801448
20
0.59545236
30
0
70
32
0
SEQEND
8
0
0
POLYLINE
8
0
62
5
66
1
10
0
20
0
30
0
70
8
0
VERTEX
8
0
62
5
10
0.018308857
20
0.65545236
30
0
70
32
0
VERTEX
8
0
62
5
10
0.18801448
20
0.65545236
30
0
70
32
0
SEQEND
8
0
0
POLYLINE
8
0
62
5
66
1
10
0
20
0
30
0
70
8
0
VERTEX
8
0
62
5
10
0.060735264
20
0.59545236
30
0
70
32
0
VERTEX
8
0
62
5
10
0.060735264
20
0.59545236
30
0
70
32
0
SEQEND
8
0
0
POLYLINE
8
0
62
5
66
1
10
0
20
0
30
0
70
8
0
VERTEX
8
0
62
5
10
0.10316167
20
0.59545236
30
0
70
32
0
VERTEX
8
0
62
5
10
0.10316167
20
0.59545236
30
0
70
32
0
SEQEND
8
0
0
POLYLINE
8
0
62
5
66
1
10
0
20
0
30
0
70
8
0
VERTEX
8
0
62
5
10
0.14558808
20
0.59545236
30
0
70
32
0
VERTEX
8
0
62
5
10
0.14558808
20
0.59545236
30
0
70
32
0
SEQEND
8
0
0
POLYLINE
8
0
62
5
66
1
10
0
20
0
30
0
70
8
0
VERTEX
8
0
62
5
10
0.060735264
20
0.65545236
30
0
70
32
0
VERTEX
8
0
62
5
10
0.060735264
20
0.65545236
30
0
70
32
0
SEQEND
8
0
0
POLYLINE
8
0
62
5
66
1
10
0
20
0
30
0
70
8
0
VERTEX
8
0
62
5
10
0.10316167
20
0.65545236
30
0
70
32
0
VERTEX
8
0
62
5
10
0.10316167
20
0.65545236
30
0
70
32
0
SEQEND
8
0
0
POLYLINE
8
0
62
5
66
1
10
0
20
0
30
0
70
8
0
VERTEX
8
0
62
5
10
0.14558808
20
0.65545236
30
0
70
32
0
VERTEX
8
0
62
5
10
0.14558808
20
0.65545236
30
0
70
32
0
SEQEND
8
0
0
POLYLINE
8
0
62
30
66
1
10
0
20
0
30
0
70
8
0
VERTEX
8
0
62
30
10
0.018308857
20
0.65545236
30
0
70
32
0
VERTEX
8
0
62
30
10
0.060735264
20
0.59545236
30
0
70
32
0
SEQEND
8
0
0
POLYLINE
8
0
62
30
66
1
10
0
20
0
30
0
70
8
0
VERTEX
8
0
62
30
10
0.060735264
20
0.65545236
30
0
70
32
0
VERTEX
8
0
62
30
10
0.018308857
20
0.59545236
30
0
70
32
0
SEQEND
8
0
0
POLYLINE
8
0
62
30
66
1
10
0
20
0
30
0
70
8
0
VERTEX
8
0
62
30
10
0.10316167
20
0.65545236
30
0
70
32
0
VERTEX
8
0
62
30
10
0.14558808
20
0.59545236
30
0
70
32
0
SEQEND
8
0
0
POLYLINE
8
0
62
30
66
1
10
0
20
0
30
0
70
8
0
VERTEX
8
0
62
30
10
0.14558808
20
0.65545236
30
0
70
32
0
VERTEX
8
0
62
30
10
0.10316167
20
0.59545236
30
0
70
32
0
SEQEND
8
0
0
POLYLINE
8
0
62
30
66
1
10
0
20
0
30
0
70
8
0
VERTEX
8
0
62
30
10
0.060735264
20
0.62545236
30
0
70
32
0
VERTEX
8
0
62
30
10
0.10316167
20
0.62545236
30
0
70
32
0
SEQEND
8
0
0
POLYLINE
8
0
62
30
66
1
10
0
20
0
30
0
70
8
0
VERTEX
8
0
62
30
10
0.14558808
20
0.62545236
30
0
70
32
0
VERTEX
8
0
62
30
10
0.18801448
20
0.62545236
30
0
70
32
0
SEQEND
8
0
0
POLYLINE
8
0
62
5
66
1
10
0
20
0
30
0
70
8
0
VERTEX
8
0
62
5
10
0.018308857
20
0.62545236
30
0
70
32
0
VERTEX
8
0
62
5
10
0.03952206
20
0.62545236
30
0
70
32
0
SEQEND
8
0
0
POLYLINE
8
0
62
5
66
1
10
0
20
0
30
0
70
8
0
VERTEX
8
0
62
5
10
0.10316167
20
0.62545236
30
0
70
32
0
VERTEX
8
0
62
5
10
0.12437487
20
0.62545236
30
0
70
32
0
SEQEND
8
0
0
POLYLINE
8
0
62
5
66
1
10
0
20
0
30
0
70
8
0
VERTEX
8
0
62
5
10
0.03952206
20
0.62545236
30
0
70
32
0
VERTEX
8
0
62
5
10
0.060735264
20
0.62545236
30
0
70
32
0
SEQEND
8
0
0
POLYLINE
8
0
62
5
66
1
10
0
20
0
30
0
70
8
0
VERTEX
8
0
62
5
10
0.12437487
20
0.62545236
30
0
70
32
0
VERTEX
8
0
62
5
10
0.14558808
20
0.62545236
30
0
70
32
0
SEQEND
8
0
0
POLYLINE
8
0
62
5
66
1
10
0
20
0
30
0
70
8
0
VERTEX
8
0
62
5
10
0.060735264
20
0.59545236
30
0
70
32
0
VERTEX
8
0
62
5
10
0.060735264
20
0.65545236
30
0
70
32
0
SEQEND
8
0
0
POLYLINE
8
0
62
5
66
1
10
0
20
0
30
0
70
8
0
VERTEX
8
0
62
5
10
0.10316167
20
0.59545236
30
0
70
32
0
VERTEX
8
0
62
5
10
0.10316167
20
0.65545236
30
0
70
32
0
SEQEND
8
0
0
POLYLINE
8
0
62
5
66
1
10
0
20
0
30
0
70
8
0
VERTEX
8
0
62
5
10
0.14558808
20
0.59545236
30
0
70
32
0
VERTEX
8
0
62
5
10
0.14558808
20
0.65545236
30
0
70
32
0
SEQEND
8
0
0
POLYLINE
8
0
62
5
66
1
10
0
20
0
30
0
70
8
0
VERTEX
8
0
62
5
10
0.018308857
20
0.59545236
30
0
70
32
0
VERTEX
8
0
62
5
10
0.018308857
20
0.65545236
30
0
70
32
0
SEQEND
8
0
0
POLYLINE
8
0
62
5
66
1
10
0
20
0
30
0
70
8
0
VERTEX
8
0
62
5
10
0.35772011
20
0.65545236
30
0
70
32
0
VERTEX
8
0
62
5
10
0.35772011
20
0.59545236
30
0
70
32
0
SEQEND
8
0
0
POLYLINE
8
0
62
5
66
1
10
0
20
0
30
0
70
8
0
VERTEX
8
0
62
5
10
0.18801448
20
0.59545236
30
0
70
32
0
VERTEX
8
0
62
5
10
0.35772011
20
0.59545236
30
0
70
32
0
SEQEND
8
0
0
POLYLINE
8
0
62
5
66
1
10
0
20
0
30
0
70
8
0
VERTEX
8
0
62
5
10
0.18801448
20
0.65545236
30
0
70
32
0
VERTEX
8
0
62
5
10
0.35772011
20
0.65545236
30
0
70
32
0
SEQEND
8
0
0
POLYLINE
8
0
62
5
66
1
10
0
20
0
30
0
70
8
0
VERTEX
8
0
62
5
10
0.23044089
20
0.59545236
30
0
70
32
0
VERTEX
8
0
62
5
10
0.23044089
20
0.59545236
30
0
70
32
0
SEQEND
8
0
0
POLYLINE
8
0
62
5
66
1
10
0
20
0
30
0
70
8
0
VERTEX
8
0
62
5
10
0.2728673
20
0.59545236
30
0
70
32
0
VERTEX
8
0
62
5
10
0.2728673
20
0.59545236
30
0
70
32
0
SEQEND
8
0
0
POLYLINE
8
0
62
5
66
1
10
0
20
0
30
0
70
8
0
VERTEX
8
0
62
5
10
0.31529371
20
0.59545236
30
0
70
32
0
VERTEX
8
0
62
5
10
0.31529371
20
0.59545236
30
0
70
32
0
SEQEND
8
0
0
POLYLINE
8
0
62
5
66
1
10
0
20
0
30
0
70
8
0
VERTEX
8
0
62
5
10
0.23044089
20
0.65545236
30
0
70
32
0
VERTEX
8
0
62
5
10
0.23044089
20
0.65545236
30
0
70
32
0
SEQEND
8
0
0
POLYLINE
8
0
62
5
66
1
10
0
20
0
30
0
70
8
0
VERTEX
8
0
62
5
10
0.2728673
20
0.65545236
30
0
70
32
0
VERTEX
8
0
62
5
10
0.2728673
20
0.65545236
30
0
70
32
0
SEQEND
8
0
0
POLYLINE
8
0
62
5
66
1
10
0
20
0
30
0
70
8
0
VERTEX
8
0
62
5
10
0.31529371
20
0.65545236
30
0
70
32
0
VERTEX
8
0
62
5
10
0.31529371
20
0.65545236
30
0
70
32
0
SEQEND
8
0
0
POLYLINE
8
0
62
30
66
1
10
0
20
0
30
0
70
8
0
VERTEX
8
0
62
30
10
0.18801448
20
0.65545236
30
0
70
32
0
VERTEX
8
0
62
30
10
0.23044089
20
0.59545236
30
0
70
32
0
SEQEND
8
0
0
POLYLINE
8
0
62
30
66
1
10
0
20
0
30
0
70
8
0
VERTEX
8
0
62
30
10
0.23044089
20
0.65545236
30
0
70
32
0
VERTEX
8
0
62
30
10
0.18801448
20
0.59545236
30
0
70
32
0
SEQEND
8
0
0
POLYLINE
8
0
62
30
66
1
10
0
20
0
30
0
70
8
0
VERTEX
8
0
62
30
10
0.2728673
20
0.65545236
30
0
70
32
0
VERTEX
8
0
62
30
10
0.31529371
20
0.59545236
30
0
70
32
0
SEQEND
8
0
0
POLYLINE
8
0
62
30
66
1
10
0
20
0
30
0
70
8
0
VERTEX
8
0
62
30
10
0.31529371
20
0.65545236
30
0
70
32
0
VERTEX
8
0
62
30
10
0.2728673
20
0.59545236
30
0
70
32
0
SEQEND
8
0
0
POLYLINE
8
0
62
30
66
1
10
0
20
0
30
0
70
8
0
VERTEX
8
0
62
30
10
0.23044089
20
0.62545236
30
0
70
32
0
VERTEX
8
0
62
30
10
0.2728673
20
0.62545236
30
0
70
32
0
SEQEND
8
0
0
POLYLINE
8
0
62
30
66
1
10
0
20
0
30
0
70
8
0
VERTEX
8
0
62
30
10
0.31529371
20
0.62545236
30
0
70
32
0
VERTEX
8
0
62
30
10
0.35772011
20
0.62545236
30
0
70
32
0
SEQEND
8
0
0
POLYLINE
8
0
62
5
66
1
10
0
20
0
30
0
70
8
0
VERTEX
8
0
62
5
10
0.18801448
20
0.62545236
30
0
70
32
0
VERTEX
8
0
62
5
10
0.20922769
20
0.62545236
30
0
70
32
0
SEQEND
8
0
0
POLYLINE
8
0
62
5
66
1
10
0
20
0
30
0
70
8
0
VERTEX
8
0
62
5
10
0.2728673
20
0.62545236
30
0
70
32
0
VERTEX
8
0
62
5
10
0.2940805
20
0.62545236
30
0
70
32
0
SEQEND
8
0
0
POLYLINE
8
0
62
5
66
1
10
0
20
0
30
0
70
8
0
VERTEX
8
0
62
5
10
0.20922769
20
0.62545236
30
0
70
32
0
VERTEX
8
0
62
5
10
0.23044089
20
0.62545236
30
0
70
32
0
SEQEND
8
0
0
POLYLINE
8
0
62
5
66
1
10
0
20
0
30
0
70
8
0
VERTEX
8
0
62
5
10
0.2940805
20
0.62545236
30
0
70
32
0
VERTEX
8
0
62
5
10
0.31529371
20
0.62545236
30
0
70
32
0
SEQEND
8
0
0
POLYLINE
8
0
62
5
66
1
10
0
20
0
30
0
70
8
0
VERTEX
8
0
62
5
10
0.23044089
20
0.59545236
30
0
70
32
0
VERTEX
8
0
62
5
10
0.23044089
20
0.65545236
30
0
70
32
0
SEQEND
8
0
0
POLYLINE
8
0
62
5
66
1
10
0
20
0
30
0
70
8
0
VERTEX
8
0
62
5
10
0.2728673
20
0.59545236
30
0
70
32
0
VERTEX
8
0
62
5
10
0.2728673
20
0.65545236
30
0
70
32
0
SEQEND
8
0
0
POLYLINE
8
0
62
5
66
1
10
0
20
0
30
0
70
8
0
VERTEX
8
0
62
5
10
0.31529371
20
0.59545236
30
0
70
32
0
VERTEX
8
0
62
5
10
0.31529371
20
0.65545236
30
0
70
32
0
SEQEND
8
0
0
POLYLINE
8
0
62
5
66
1
10
0
20
0
30
0
70
8
0
VERTEX
8
0
62
5
10
0.18801448
20
0.59545236
30
0
70
32
0
VERTEX
8
0
62
5
10
0.18801448
20
0.65545236
30
0
70
32
0
SEQEND
8
0
0
POLYLINE
8
0
62
5
66
1
10
0
20
0
30
0
70
8
0
VERTEX
8
0
62
5
10
-0.15139677
20
0.59545236
30
0
70
32
0
VERTEX
8
0
62
5
10
-0.15139677
20
0.65545236
30
0
70
32
0
SEQEND
8
0
0
POLYLINE
8
0
62
5
66
1
10
0
20
0
30
0
70
8
0
VERTEX
8
0
62
5
10
-0.15139677
20
0.59545236
30
0
70
32
0
VERTEX
8
0
62
5
10
0.018308857
20
0.59545236
30
0
70
32
0
SEQEND
8
0
0
POLYLINE
8
0
62
5
66
1
10
0
20
0
30
0
70
8
0
VERTEX
8
0
62
5
10
-0.15139677
20
0.65545236
30
0
70
32
0
VERTEX
8
0
62
5
10
0.018308857
20
0.65545236
30
0
70
32
0
SEQEND
8
0
0
POLYLINE
8
0
62
5
66
1
10
0
20
0
30
0
70
8
0
VERTEX
8
0
62
5
10
-0.10897036
20
0.59545236
30
0
70
32
0
VERTEX
8
0
62
5
10
-0.10897036
20
0.59545236
30
0
70
32
0
SEQEND
8
0
0
POLYLINE
8
0
62
5
66
1
10
0
20
0
30
0
70
8
0
VERTEX
8
0
62
5
10
-0.066543957
20
0.59545236
30
0
70
32
0
VERTEX
8
0
62
5
10
-0.066543957
20
0.59545236
30
0
70
32
0
SEQEND
8
0
0
POLYLINE
8
0
62
5
66
1
10
0
20
0
30
0
70
8
0
VERTEX
8
0
62
5
10
-0.02411755
20
0.59545236
30
0
70
32
0
VERTEX
8
0
62
5
10
-0.02411755
20
0.59545236
30
0
70
32
0
SEQEND
8
0
0
POLYLINE
8
0
62
5
66
1
10
0
20
0
30
0
70
8
0
VERTEX
8
0
62
5
10
-0.10897036
20
0.65545236
30
0
70
32
0
VERTEX
8
0
62
5
10
-0.10897036
20
0.65545236
30
0
70
32
0
SEQEND
8
0
0
POLYLINE
8
0
62
5
66
1
10
0
20
0
30
0
70
8
0
VERTEX
8
0
62
5
10
-0.066543957
20
0.65545236
30
0
70
32
0
VERTEX
8
0
62
5
10
-0.066543957
20
0.65545236
30
0
70
32
0
SEQEND
8
0
0
POLYLINE
8
0
62
5
66
1
10
0
20
0
30
0
70
8
0
VERTEX
8
0
62
5
10
-0.02411755
20
0.65545236
30
0
70
32
0
VERTEX
8
0
62
5
10
-0.02411755
20
0.65545236
30
0
70
32
0
SEQEND
8
0
0
POLYLINE
8
0
62
30
66
1
10
0
20
0
30
0
70
8
0
VERTEX
8
0
62
30
10
-0.15139677
20
0.65545236
30
0
70
32
0
VERTEX
8
0
62
30
10
-0.10897036
20
0.59545236
30
0
70
32
0
SEQEND
8
0
0
POLYLINE
8
0
62
30
66
1
10
0
20
0
30
0
70
8
0
VERTEX
8
0
62
30
10
-0.10897036
20
0.65545236
30
0
70
32
0
VERTEX
8
0
62
30
10
-0.15139677
20
0.59545236
30
0
70
32
0
SEQEND
8
0
0
POLYLINE
8
0
62
30
66
1
10
0
20
0
30
0
70
8
0
VERTEX
8
0
62
30
10
-0.066543957
20
0.65545236
30
0
70
32
0
VERTEX
8
0
62
30
10
-0.02411755
20
0.59545236
30
0
70
32
0
SEQEND
8
0
0
POLYLINE
8
0
62
30
66
1
10
0
20
0
30
0
70
8
0
VERTEX
8
0
62
30
10
-0.02411755
20
0.65545236
30
0
70
32
0
VERTEX
8
0
62
30
10
-0.066543957
20
0.59545236
30
0
70
32
0
SEQEND
8
0
0
POLYLINE
8
0
62
30
66
1
10
0
20
0
30
0
70
8
0
VERTEX
8
0
62
30
10
-0.10897036
20
0.62545236
30
0
70
32
0
VERTEX
8
0
62
30
10
-0.066543957
20
0.62545236
30
0
70
32
0
SEQEND
8
0
0
POLYLINE
8
0
62
30
66
1
10
0
20
0
30
0
70
8
0
VERTEX
8
0
62
30
10
-0.02411755
20
0.62545236
30
0
70
32
0
VERTEX
8
0
62
30
10
0.018308857
20
0.62545236
30
0
70
32
0
SEQEND
8
0
0
POLYLINE
8
0
62
5
66
1
10
0
20
0
30
0
70
8
0
VERTEX
8
0
62
5
10
-0.15139677
20
0.62545236
30
0
70
32
0
VERTEX
8
0
62
5
10
-0.13018357
20
0.62545236
30
0
70
32
0
SEQEND
8
0
0
POLYLINE
8
0
62
5
66
1
10
0
20
0
30
0
70
8
0
VERTEX
8
0
62
5
10
-0.066543957
20
0.62545236
30
0
70
32
0
VERTEX
8
0
62
5
10
-0.045330753
20
0.62545236
30
0
70
32
0
SEQEND
8
0
0
POLYLINE
8
0
62
5
66
1
10
0
20
0
30
0
70
8
0
VERTEX
8
0
62
5
10
-0.13018357
20
0.62545236
30
0
70
32
0
VERTEX
8
0
62
5
10
-0.10897036
20
0.62545236
30
0
70
32
0
SEQEND
8
0
0
POLYLINE
8
0
62
5
66
1
10
0
20
0
30
0
70
8
0
VERTEX
8
0
62
5
10
-0.045330753
20
0.62545236
30
0
70
32
0
VERTEX
8
0
62
5
10
-0.02411755
20
0.62545236
30
0
70
32
0
SEQEND
8
0
0
POLYLINE
8
0
62
5
66
1
10
0
20
0
30
0
70
8
0
VERTEX
8
0
62
5
10
-0.10897036
20
0.59545236
30
0
70
32
0
VERTEX
8
0
62
5
10
-0.10897036
20
0.65545236
30
0
70
32
0
SEQEND
8
0
0
POLYLINE
8
0
62
5
66
1
10
0
20
0
30
0
70
8
0
VERTEX
8
0
62
5
10
-0.066543957
20
0.59545236
30
0
70
32
0
VERTEX
8
0
62
5
10
-0.066543957
20
0.65545236
30
0
70
32
0
SEQEND
8
0
0
POLYLINE
8
0
62
5
66
1
10
0
20
0
30
0
70
8
0
VERTEX
8
0
62
5
10
-0.02411755
20
0.59545236
30
0
70
32
0
VERTEX
8
0
62
5
10
-0.02411755
20
0.65545236
30
0
70
32
0
SEQEND
8
0
0
POLYLINE
8
0
62
5
66
1
10
0
20
0
30
0
70
8
0
VERTEX
8
0
62
5
10
-0.15139677
20
0.59545236
30
0
70
32
0
VERTEX
8
0
62
5
10
-0.15139677
20
0.65545236
30
0
70
32
0
SEQEND
8
0
0
POLYLINE
8
0
62
5
66
1
10
0
20
0
30
0
70
8
0
VERTEX
8
0
62
5
10
0.018308857
20
0.65545236
30
0
70
32
0
VERTEX
8
0
62
5
10
0.018308857
20
0.77141661
30
0
70
32
0
SEQEND
8
0
0
POLYLINE
8
0
62
5
66
1
10
0
20
0
30
0
70
8
0
VERTEX
8
0
62
5
10
0.18801448
20
0.77141661
30
0
70
32
0
VERTEX
8
0
62
5
10
0.18801448
20
0.65545236
30
0
70
32
0
SEQEND
8
0
0
POLYLINE
8
0
62
5
66
1
10
0
20
0
30
0
70
8
0
VERTEX
8
0
62
5
10
0.018308857
20
0.6557844
30
0
70
32
0
VERTEX
8
0
62
5
10
0.060735264
20
0.66701132
30
0
70
32
0
VERTEX
8
0
62
5
10
0.10316167
20
0.68444342
30
0
70
32
0
VERTEX
8
0
62
5
10
0.14558808
20
0.6732165
30
0
70
32
0
VERTEX
8
0
62
5
10
0.18801448
20
0.6557844
30
0
70
32
0
SEQEND
8
0
0
POLYLINE
8
0
62
5
66
1
10
0
20
0
30
0
70
8
0
VERTEX
8
0
62
5
10
0.018308857
20
0.71376652
30
0
70
32
0
VERTEX
8
0
62
5
10
0.060735264
20
0.72499345
30
0
70
32
0
VERTEX
8
0
62
5
10
0.10316167
20
0.74242555
30
0
70
32
0
VERTEX
8
0
62
5
10
0.14558808
20
0.73119862
30
0
70
32
0
VERTEX
8
0
62
5
10
0.18801448
20
0.71376652
30
0
70
32
0
SEQEND
8
0
0
POLYLINE
8
0
62
5
66
1
10
0
20
0
30
0
70
8
0
VERTEX
8
0
62
5
10
0.018308857
20
0.71310245
30
0
70
32
0
VERTEX
8
0
62
5
10
0.060735264
20
0.70187553
30
0
70
32
0
VERTEX
8
0
62
5
10
0.10316167
20
0.68444342
30
0
70
32
0
VERTEX
8
0
62
5
10
0.14558808
20
0.69567035
30
0
70
32
0
VERTEX
8
0
62
5
10
0.18801448
20
0.71310245
30
0
70
32
0
SEQEND
8
0
0
POLYLINE
8
0
62
5
66
1
10
0
20
0
30
0
70
8
0
VERTEX
8
0
62
5
10
0.018308857
20
0.77108458
30
0
70
32
0
VERTEX
8
0
62
5
10
0.060735264
20
0.75985765
30
0
70
32
0
VERTEX
8
0
62
5
10
0.10316167
20
0.74242555
30
0
70
32
0
VERTEX
8
0
62
5
10
0.14558808
20
0.75365247
30
0
70
32
0
VERTEX
8
0
62
5
10
0.18801448
20
0.77108458
30
0
70
32
0
SEQEND
8
0
0
POLYLINE
8
0
62
30
66
1
10
0
20
0
30
0
70
8
0
VERTEX
8
0
62
30
10
0.018308857
20
0.74242555
30
0
70
32
0
VERTEX
8
0
62
30
10
0.18801448
20
0.74242555
30
0
70
32
0
SEQEND
8
0
0
POLYLINE
8
0
62
30
66
1
10
0
20
0
30
0
70
8
0
VERTEX
8
0
62
30
10
0.060735264
20
0.66701132
30
0
70
32
0
VERTEX
8
0
62
30
10
0.060735264
20
0.68444342
30
0
70
32
0
SEQEND
8
0
0
POLYLINE
8
0
62
30
66
1
10
0
20
0
30
0
70
8
0
VERTEX
8
0
62
30
10
0.10316167
20
0.68444342
30
0
70
32
0
VERTEX
8
0
62
30
10
0.10316167
20
0.68444342
30
0
70
32
0
SEQEND
8
0
0
POLYLINE
8
0
62
30
66
1
10
0
20
0
30
0
70
8
0
VERTEX
8
0
62
30
10
0.14558808
20
0.6732165
30
0
70
32
0
VERTEX
8
0
62
30
10
0.14558808
20
0.68444342
30
0
70
32
0
SEQEND
8
0
0
POLYLINE
8
0
62
30
66
1
10
0
20
0
30
0
70
8
0
VERTEX
8
0
62
30
10
0.060735264
20
0.72499345
30
0
70
32
0
VERTEX
8
0
62
30
10
0.060735264
20
0.74242555
30
0
70
32
0
SEQEND
8
0
0
POLYLINE
8
0
62
30
66
1
10
0
20
0
30
0
70
8
0
VERTEX
8
0
62
30
10
0.060735264
20
0.74242555
30
0
70
32
0
VERTEX
8
0
62
30
10
0.10316167
20
0.74242555
30
0
70
32
0
SEQEND
8
0
0
POLYLINE
8
0
62
30
66
1
10
0
20
0
30
0
70
8
0
VERTEX
8
0
62
30
10
0.10316167
20
0.74242555
30
0
70
32
0
VERTEX
8
0
62
30
10
0.10316167
20
0.74242555
30
0
70
32
0
SEQEND
8
0
0
POLYLINE
8
0
62
30
66
1
10
0
20
0
30
0
70
8
0
VERTEX
8
0
62
30
10
0.10316167
20
0.74242555
30
0
70
32
0
VERTEX
8
0
62
30
10
0.14558808
20
0.73119862
30
0
70
32
0
SEQEND
8
0
0
POLYLINE
8
0
62
30
66
1
10
0
20
0
30
0
70
8
0
VERTEX
8
0
62
30
10
0.14558808
20
0.73119862
30
0
70
32
0
VERTEX
8
0
62
30
10
0.14558808
20
0.74242555
30
0
70
32
0
SEQEND
8
0
0
POLYLINE
8
0
62
5
66
1
10
0
20
0
30
0
70
8
0
VERTEX
8
0
62
5
10
0.060735264
20
0.65545236
30
0
70
32
0
VERTEX
8
0
62
5
10
0.060735264
20
0.66701132
30
0
70
32
0
SEQEND
8
0
0
POLYLINE
8
0
62
5
66
1
10
0
20
0
30
0
70
8
0
VERTEX
8
0
62
5
10
0.10316167
20
0.65545236
30
0
70
32
0
VERTEX
8
0
62
5
10
0.10316167
20
0.68444342
30
0
70
32
0
SEQEND
8
0
0
POLYLINE
8
0
62
5
66
1
10
0
20
0
30
0
70
8
0
VERTEX
8
0
62
5
10
0.14558808
20
0.65545236
30
0
70
32
0
VERTEX
8
0
62
5
10
0.14558808
20
0.6732165
30
0
70
32
0
SEQEND
8
0
0
POLYLINE
8
0
62
5
66
1
10
0
20
0
30
0
70
8
0
VERTEX
8
0
62
5
10
0.060735264
20
0.71343449
30
0
70
32
0
VERTEX
8
0
62
5
10
0.060735264
20
0.72499345
30
0
70
32
0
SEQEND
8
0
0
POLYLINE
8
0
62
5
66
1
10
0
20
0
30
0
70
8
0
VERTEX
8
0
62
5
10
0.10316167
20
0.71343449
30
0
70
32
0
VERTEX
8
0
62
5
10
0.10316167
20
0.74242555
30
0
70
32
0
SEQEND
8
0
0
POLYLINE
8
0
62
5
66
1
10
0
20
0
30
0
70
8
0
VERTEX
8
0
62
5
10
0.14558808
20
0.71343449
30
0
70
32
0
VERTEX
8
0
62
5
10
0.14558808
20
0.73119862
30
0
70
32
0
SEQEND
8
0
0
POLYLINE
8
0
62
5
66
1
10
0
20
0
30
0
70
8
0
VERTEX
8
0
62
5
10
0.060735264
20
0.68444342
30
0
70
32
0
VERTEX
8
0
62
5
10
0.060735264
20
0.71343449
30
0
70
32
0
SEQEND
8
0
0
POLYLINE
8
0
62
5
66
1
10
0
20
0
30
0
70
8
0
VERTEX
8
0
62
5
10
0.10316167
20
0.68444342
30
0
70
32
0
VERTEX
8
0
62
5
10
0.10316167
20
0.71343449
30
0
70
32
0
SEQEND
8
0
0
POLYLINE
8
0
62
5
66
1
10
0
20
0
30
0
70
8
0
VERTEX
8
0
62
5
10
0.14558808
20
0.68444342
30
0
70
32
0
VERTEX
8
0
62
5
10
0.14558808
20
0.71343449
30
0
70
32
0
SEQEND
8
0
0
POLYLINE
8
0
62
5
66
1
10
0
20
0
30
0
70
8
0
VERTEX
8
0
62
5
10
0.060735264
20
0.74242555
30
0
70
32
0
VERTEX
8
0
62
5
10
0.060735264
20
0.77141661
30
0
70
32
0
SEQEND
8
0
0
POLYLINE
8
0
62
5
66
1
10
0
20
0
30
0
70
8
0
VERTEX
8
0
62
5
10
0.10316167
20
0.74242555
30
0
70
32
0
VERTEX
8
0
62
5
10
0.10316167
20
0.77141661
30
0
70
32
0
SEQEND
8
0
0
POLYLINE
8
0
62
5
66
1
10
0
20
0
30
0
70
8
0
VERTEX
8
0
62
5
10
0.14558808
20
0.74242555
30
0
70
32
0
VERTEX
8
0
62
5
10
0.14558808
20
0.77141661
30
0
70
32
0
SEQEND
8
0
0
POLYLINE
8
0
62
5
66
1
10
0
20
0
30
0
70
8
0
VERTEX
8
0
62
5
10
0.35772011
20
0.77141661
30
0
70
32
0
VERTEX
8
0
62
5
10
0.35772011
20
0.65545236
30
0
70
32
0
SEQEND
8
0
0
POLYLINE
8
0
62
5
66
1
10
0
20
0
30
0
70
8
0
VERTEX
8
0
62
5
10
0.18801448
20
0.6557844
30
0
70
32
0
VERTEX
8
0
62
5
10
0.23044089
20
0.66701132
30
0
70
32
0
VERTEX
8
0
62
5
10
0.2728673
20
0.68444342
30
0
70
32
0
VERTEX
8
0
62
5
10
0.31529371
20
0.6732165
30
0
70
32
0
VERTEX
8
0
62
5
10
0.35772011
20
0.6557844
30
0
70
32
0
SEQEND
8
0
0
POLYLINE
8
0
62
5
66
1
10
0
20
0
30
0
70
8
0
VERTEX
8
0
62
5
10
0.18801448
20
0.71376652
30
0
70
32
0
VERTEX
8
0
62
5
10
0.23044089
20
0.72499345
30
0
70
32
0
VERTEX
8
0
62
5
10
0.2728673
20
0.74242555
30
0
70
32
0
VERTEX
8
0
62
5
10
0.31529371
20
0.73119862
30
0
70
32
0
VERTEX
8
0
62
5
10
0.35772011
20
0.71376652
30
0
70
32
0
SEQEND
8
0
0
POLYLINE
8
0
62
5
66
1
10
0
20
0
30
0
70
8
0
VERTEX
8
0
62
5
10
0.18801448
20
0.71310245
30
0
70
32
0
VERTEX
8
0
62
5
10
0.23044089
20
0.70187553
30
0
70
32
0
VERTEX
8
0
62
5
10
0.2728673
20
0.68444342
30
0
70
32
0
VERTEX
8
0
62
5
10
0.31529371
20
0.69567035
30
0
70
32
0
VERTEX
8
0
62
5
10
0.35772011
20
0.71310245
30
0
70
32
0
SEQEND
8
0
0
POLYLINE
8
0
62
5
66
1
10
0
20
0
30
0
70
8
0
VERTEX
8
0
62
5
10
0.18801448
20
0.77108458
30
0
70
32
0
VERTEX
8
0
62
5
10
0.23044089
20
0.75985765
30
0
70
32
0
VERTEX
8
0
62
5
10
0.2728673
20
0.74242555
30
0
70
32
0
VERTEX
8
0
62
5
10
0.31529371
20
0.75365247
30
0
70
32
0
VERTEX
8
0
62
5
10
0.35772011
20
0.77108458
30
0
70
32
0
SEQEND
8
0
0
POLYLINE
8
0
62
30
66
1
10
0
20
0
30
0
70
8
0
VERTEX
8
0
62
30
10
0.18801448
20
0.74242555
30
0
70
32
0
VERTEX
8
0
62
30
10
0.35772011
20
0.74242555
30
0
70
32
0
SEQEND
8
0
0
POLYLINE
8
0
62
30
66
1
10
0
20
0
30
0
70
8
0
VERTEX
8
0
62
30
10
0.23044089
20
0.66701132
30
0
70
32
0
VERTEX
8
0
62
30
10
0.23044089
20
0.68444342
30
0
70
32
0
SEQEND
8
0
0
POLYLINE
8
0
62
30
66
1
10
0
20
0
30
0
70
8
0
VERTEX
8
0
62
30
10
0.2728673
20
0.68444342
30
0
70
32
0
VERTEX
8
0
62
30
10
0.2728673
20
0.68444342
30
0
70
32
0
SEQEND
8
0
0
POLYLINE
8
0
62
30
66
1
10
0
20
0
30
0
70
8
0
VERTEX
8
0
62
30
10
0.31529371
20
0.6732165
30
0
70
32
0
VERTEX
8
0
62
30
10
0.31529371
20
0.68444342
30
0
70
32
0
SEQEND
8
0
0
POLYLINE
8
0
62
30
66
1
10
0
20
0
30
0
70
8
0
VERTEX
8
0
62
30
10
0.23044089
20
0.72499345
30
0
70
32
0
VERTEX
8
0
62
30
10
0.23044089
20
0.74242555
30
0
70
32
0
SEQEND
8
0
0
POLYLINE
8
0
62
30
66
1
10
0
20
0
30
0
70
8
0
VERTEX
8
0
62
30
10
0.23044089
20
0.74242555
30
0
70
32
0
VERTEX
8
0
62
30
10
0.2728673
20
0.74242555
30
0
70
32
0
SEQEND
8
0
0
POLYLINE
8
0
62
30
66
1
10
0
20
0
30
0
70
8
0
VERTEX
8
0
62
30
10
0.2728673
20
0.74242555
30
0
70
32
0
VERTEX
8
0
62
30
10
0.2728673
20
0.74242555
30
0
70
32
0
SEQEND
8
0
0
POLYLINE
8
0
62
30
66
1
10
0
20
0
30
0
70
8
0
VERTEX
8
0
62
30
10
0.2728673
20
0.74242555
30
0
70
32
0
VERTEX
8
0
62
30
10
0.31529371
20
0.73119862
30
0
70
32
0
SEQEND
8
0
0
POLYLINE
8
0
62
30
66
1
10
0
20
0
30
0
70
8
0
VERTEX
8
0
62
30
10
0.31529371
20
0.73119862
30
0
70
32
0
VERTEX
8
0
62
30
10
0.31529371
20
0.74242555
30
0
70
32
0
SEQEND
8
0
0
POLYLINE
8
0
62
5
66
1
10
0
20
0
30
0
70
8
0
VERTEX
8
0
62
5
10
0.23044089
20
0.65545236
30
0
70
32
0
VERTEX
8
0
62
5
10
0.23044089
20
0.66701132
30
0
70
32
0
SEQEND
8
0
0
POLYLINE
8
0
62
5
66
1
10
0
20
0
30
0
70
8
0
VERTEX
8
0
62
5
10
0.2728673
20
0.65545236
30
0
70
32
0
VERTEX
8
0
62
5
10
0.2728673
20
0.68444342
30
0
70
32
0
SEQEND
8
0
0
POLYLINE
8
0
62
5
66
1
10
0
20
0
30
0
70
8
0
VERTEX
8
0
62
5
10
0.31529371
20
0.65545236
30
0
70
32
0
VERTEX
8
0
62
5
10
0.31529371
20
0.6732165
30
0
70
32
0
SEQEND
8
0
0
POLYLINE
8
0
62
5
66
1
10
0
20
0
30
0
70
8
0
VERTEX
8
0
62
5
10
0.23044089
20
0.71343449
30
0
70
32
0
VERTEX
8
0
62
5
10
0.23044089
20
0.72499345
30
0
70
32
0
SEQEND
8
0
0
POLYLINE
8
0
62
5
66
1
10
0
20
0
30
0
70
8
0
VERTEX
8
0
62
5
10
0.2728673
20
0.71343449
30
0
70
32
0
VERTEX
8
0
62
5
10
0.2728673
20
0.74242555
30
0
70
32
0
SEQEND
8
0
0
POLYLINE
8
0
62
5
66
1
10
0
20
0
30
0
70
8
0
VERTEX
8
0
62
5
10
0.31529371
20
0.71343449
30
0
70
32
0
VERTEX
8
0
62
5
10
0.31529371
20
0.73119862
30
0
70
32
0
SEQEND
8
0
0
POLYLINE
8
0
62
5
66
1
10
0
20
0
30
0
70
8
0
VERTEX
8
0
62
5
10
0.23044089
20
0.68444342
30
0
70
32
0
VERTEX
8
0
62
5
10
0.23044089
20
0.71343449
30
0
70
32
0
SEQEND
8
0
0
POLYLINE
8
0
62
5
66
1
10
0
20
0
30
0
70
8
0
VERTEX
8
0
62
5
10
0.2728673
20
0.68444342
30
0
70
32
0
VERTEX
8
0
62
5
10
0.2728673
20
0.71343449
30
0
70
32
0
SEQEND
8
0
0
POLYLINE
8
0
62
5
66
1
10
0
20
0
30
0
70
8
0
VERTEX
8
0
62
5
10
0.31529371
20
0.68444342
30
0
70
32
0
VERTEX
8
0
62
5
10
0.31529371
20
0.71343449
30
0
70
32
0
SEQEND
8
0
0
POLYLINE
8
0
62
5
66
1
10
0
20
0
30
0
70
8
0
VERTEX
8
0
62
5
10
0.23044089
20
0.74242555
30
0
70
32
0
VERTEX
8
0
62
5
10
0.23044089
20
0.77141661
30
0
70
32
0
SEQEND
8
0
0
POLYLINE
8
0
62
5
66
1
10
0
20
0
30
0
70
8
0
VERTEX
8
0
62
5
10
0.2728673
20
0.74242555
30
0
70
32
0
VERTEX
8
0
62
5
10
0.2728673
20
0.77141661
30
0
70
32
0
SEQEND
8
0
0
POLYLINE
8
0
62
5
66
1
10
0
20
0
30
0
70
8
0
VERTEX
8
0
62
5
10
0.31529371
20
0.74242555
30
0
70
32
0
VERTEX
8
0
62
5
10
0.31529371
20
0.77141661
30
0
70
32
0
SEQEND
8
0
0
POLYLINE
8
0
62
5
66
1
10
0
20
0
30
0
70
8
0
VERTEX
8
0
62
5
10
-0.15139677
20
0.65545236
30
0
70
32
0
VERTEX
8
0
62
5
10
-0.15139677
20
0.77141661
30
0
70
32
0
SEQEND
8
0
0
POLYLINE
8
0
62
5
66
1
10
0
20
0
30
0
70
8
0
VERTEX
8
0
62
5
10
-0.15139677
20
0.6557844
30
0
70
32
0
VERTEX
8
0
62
5
10
-0.10897036
20
0.66701132
30
0
70
32
0
VERTEX
8
0
62
5
10
-0.066543957
20
0.68444342
30
0
70
32
0
VERTEX
8
0
62
5
10
-0.02411755
20
0.6732165
30
0
70
32
0
VERTEX
8
0
62
5
10
0.018308857
20
0.6557844
30
0
70
32
0
SEQEND
8
0
0
POLYLINE
8
0
62
5
66
1
10
0
20
0
30
0
70
8
0
VERTEX
8
0
62
5
10
-0.15139677
20
0.71376652
30
0
70
32
0
VERTEX
8
0
62
5
10
-0.10897036
20
0.72499345
30
0
70
32
0
VERTEX
8
0
62
5
10
-0.066543957
20
0.74242555
30
0
70
32
0
VERTEX
8
0
62
5
10
-0.02411755
20
0.73119862
30
0
70
32
0
VERTEX
8
0
62
5
10
0.018308857
20
0.71376652
30
0
70
32
0
SEQEND
8
0
0
POLYLINE
8
0
62
5
66
1
10
0
20
0
30
0
70
8
0
VERTEX
8
0
62
5
10
-0.15139677
20
0.71310245
30
0
70
32
0
VERTEX
8
0
62
5
10
-0.10897036
20
0.70187553
30
0
70
32
0
VERTEX
8
0
62
5
10
-0.066543957
20
0.68444342
30
0
70
32
0
VERTEX
8
0
62
5
10
-0.02411755
20
0.69567035
30
0
70
32
0
VERTEX
8
0
62
5
10
0.018308857
20
0.71310245
30
0
70
32
0
SEQEND
8
0
0
POLYLINE
8
0
62
5
66
1
10
0
20
0
30
0
70
8
0
VERTEX
8
0
62
5
10
-0.15139677
20
0.77108458
30
0
70
32
0
VERTEX
8
0
62
5
10
-0.10897036
20
0.75985765
30
0
70
32
0
VERTEX
8
0
62
5
10
-0.066543957
20
0.74242555
30
0
70
32
0
VERTEX
8
0
62
5
10
-0.02411755
20
0.75365247
30
0
70
32
0
VERTEX
8
0
62
5
10
0.018308857
20
0.77108458
30
0
70
32
0
SEQEND
8
0
0
POLYLINE
8
0
62
30
66
1
10
0
20
0
30
0
70
8
0
VERTEX
8
0
62
30
10
-0.15139677
20
0.74242555
30
0
70
32
0
VERTEX
8
0
62
30
10
0.018308857
20
0.74242555
30
0
70
32
0
SEQEND
8
0
0
POLYLINE
8
0
62
30
66
1
10
0
20
0
30
0
70
8
0
VERTEX
8
0
62
30
10
-0.10897036
20
0.66701132
30
0
70
32
0
VERTEX
8
0
62
30
10
-0.10897036
20
0.68444342
30
0
70
32
0
SEQEND
8
0
0
POLYLINE
8
0
62
30
66
1
10
0
20
0
30
0
70
8
0
VERTEX
8
0
62
30
10
-0.066543957
20
0.68444342
30
0
70
32
0
VERTEX
8
0
62
30
10
-0.066543957
20
0.68444342
30
0
70
32
0
SEQEND
8
0
0
POLYLINE
8
0
62
30
66
1
10
0
20
0
30
0
70
8
0
VERTEX
8
0
62
30
10
-0.02411755
20
0.6732165
30
0
70
32
0
VERTEX
8
0
62
30
10
-0.02411755
20
0.68444342
30
0
70
32
0
SEQEND
8
0
0
POLYLINE
8
0
62
30
66
1
10
0
20
0
30
0
70
8
0
VERTEX
8
0
62
30
10
-0.10897036
20
0.72499345
30
0
70
32
0
VERTEX
8
0
62
30
10
-0.10897036
20
0.74242555
30
0
70
32
0
SEQEND
8
0
0
POLYLINE
8
0
62
30
66
1
10
0
20
0
30
0
70
8
0
VERTEX
8
0
62
30
10
-0.10897036
20
0.74242555
30
0
70
32
0
VERTEX
8
0
62
30
10
-0.066543957
20
0.74242555
30
0
70
32
0
SEQEND
8
0
0
POLYLINE
8
0
62
30
66
1
10
0
20
0
30
0
70
8
0
VERTEX
8
0
62
30
10
-0.066543957
20
0.74242555
30
0
70
32
0
VERTEX
8
0
62
30
10
-0.066543957
20
0.74242555
30
0
70
32
0
SEQEND
8
0
0
POLYLINE
8
0
62
30
66
1
10
0
20
0
30
0
70
8
0
VERTEX
8
0
62
30
10
-0.066543957
20
0.74242555
30
0
70
32
0
VERTEX
8
0
62
30
10
-0.02411755
20
0.73119862
30
0
70
32
0
SEQEND
8
0
0
POLYLINE
8
0
62
30
66
1
10
0
20
0
30
0
70
8
0
VERTEX
8
0
62
30
10
-0.02411755
20
0.73119862
30
0
70
32
0
VERTEX
8
0
62
30
10
-0.02411755
20
0.74242555
30
0
70
32
0
SEQEND
8
0
0
POLYLINE
8
0
62
5
66
1
10
0
20
0
30
0
70
8
0
VERTEX
8
0
62
5
10
-0.10897036
20
0.65545236
30
0
70
32
0
VERTEX
8
0
62
5
10
-0.10897036
20
0.66701132
30
0
70
32
0
SEQEND
8
0
0
POLYLINE
8
0
62
5
66
1
10
0
20
0
30
0
70
8
0
VERTEX
8
0
62
5
10
-0.066543957
20
0.65545236
30
0
70
32
0
VERTEX
8
0
62
5
10
-0.066543957
20
0.68444342
30
0
70
32
0
SEQEND
8
0
0
POLYLINE
8
0
62
5
66
1
10
0
20
0
30
0
70
8
0
VERTEX
8
0
62
5
10
-0.02411755
20
0.65545236
30
0
70
32
0
VERTEX
8
0
62
5
10
-0.02411755
20
0.6732165
30
0
70
32
0
SEQEND
8
0
0
POLYLINE
8
0
62
5
66
1
10
0
20
0
30
0
70
8
0
VERTEX
8
0
62
5
10
-0.10897036
20
0.71343449
30
0
70
32
0
VERTEX
8
0
62
5
10
-0.10897036
20
0.72499345
30
0
70
32
0
SEQEND
8
0
0
POLYLINE
8
0
62
5
66
1
10
0
20
0
30
0
70
8
0
VERTEX
8
0
62
5
10
-0.066543957
20
0.71343449
30
0
70
32
0
VERTEX
8
0
62
5
10
-0.066543957
20
0.74242555
30
0
70
32
0
SEQEND
8
0
0
POLYLINE
8
0
62
5
66
1
10
0
20
0
30
0
70
8
0
VERTEX
8
0
62
5
10
-0.02411755
20
0.71343449
30
0
70
32
0
VERTEX
8
0
62
5
10
-0.02411755
20
0.73119862
30
0
70
32
0
SEQEND
8
0
0
POLYLINE
8
0
62
5
66
1
10
0
20
0
30
0
70
8
0
VERTEX
8
0
62
5
10
-0.10897036
20
0.68444342
30
0
70
32
0
VERTEX
8
0
62
5
10
-0.10897036
20
0.71343449
30
0
70
32
0
SEQEND
8
0
0
POLYLINE
8
0
62
5
66
1
10
0
20
0
30
0
70
8
0
VERTEX
8
0
62
5
10
-0.066543957
20
0.68444342
30
0
70
32
0
VERTEX
8
0
62
5
10
-0.066543957
20
0.71343449
30
0
70
32
0
SEQEND
8
0
0
POLYLINE
8
0
62
5
66
1
10
0
20
0
30
0
70
8
0
VERTEX
8
0
62
5
10
-0.02411755
20
0.68444342
30
0
70
32
0
VERTEX
8
0
62
5
10
-0.02411755
20
0.71343449
30
0
70
32
0
SEQEND
8
0
0
POLYLINE
8
0
62
5
66
1
10
0
20
0
30
0
70
8
0
VERTEX
8
0
62
5
10
-0.10897036
20
0.74242555
30
0
70
32
0
VERTEX
8
0
62
5
10
-0.10897036
20
0.77141661
30
0
70
32
0
SEQEND
8
0
0
POLYLINE
8
0
62
5
66
1
10
0
20
0
30
0
70
8
0
VERTEX
8
0
62
5
10
-0.066543957
20
0.74242555
30
0
70
32
0
VERTEX
8
0
62
5
10
-0.066543957
20
0.77141661
30
0
70
32
0
SEQEND
8
0
0
POLYLINE
8
0
62
5
66
1
10
0
20
0
30
0
70
8
0
VERTEX
8
0
62
5
10
-0.02411755
20
0.74242555
30
0
70
32
0
VERTEX
8
0
62
5
10
-0.02411755
20
0.77141661
30
0
70
32
0
SEQEND
8
0
0
POLYLINE
8
0
62
30
66
1
10
0
20
0
30
0
70
8
0
VERTEX
8
0
62
30
10
0.018308857
20
0.81147101
30
0
70
32
0
VERTEX
8
0
62
30
10
0.18801448
20
0.81147101
30
0
70
32
0
SEQEND
8
0
0
POLYLINE
8
0
62
30
66
1
10
0
20
0
30
0
70
8
0
VERTEX
8
0
62
30
10
0.018308857
20
0.77141661
30
0
70
32
0
VERTEX
8
0
62
30
10
0.18801448
20
0.77141661
30
0
70
32
0
SEQEND
8
0
0
POLYLINE
8
0
62
5
66
1
10
0
20
0
30
0
70
8
0
VERTEX
8
0
62
5
10
0.018308857
20
0.77141661
30
0
70
32
0
VERTEX
8
0
62
5
10
0.043710504
20
0.81147101
30
0
70
32
0
VERTEX
8
0
62
5
10
0.060735264
20
0.77141661
30
0
70
32
0
VERTEX
8
0
62
5
10
0.086136911
20
0.81147101
30
0
70
32
0
VERTEX
8
0
62
5
10
0.10316167
20
0.77141661
30
0
70
32
0
VERTEX
8
0
62
5
10
0.12856332
20
0.81147101
30
0
70
32
0
VERTEX
8
0
62
5
10
0.14558808
20
0.77141661
30
0
70
32
0
VERTEX
8
0
62
5
10
0.17098972
20
0.81147101
30
0
70
32
0
VERTEX
8
0
62
5
10
0.18801448
20
0.77141661
30
0
70
32
0
SEQEND
8
0
0
POLYLINE
8
0
62
5
66
1
10
0
20
0
30
0
70
8
0
VERTEX
8
0
62
5
10
0.060735264
20
0.77141661
30
0
70
32
0
VERTEX
8
0
62
5
10
0.060735264
20
0.77141661
30
0
70
32
0
SEQEND
8
0
0
POLYLINE
8
0
62
5
66
1
10
0
20
0
30
0
70
8
0
VERTEX
8
0
62
5
10
0.10316167
20
0.77141661
30
0
70
32
0
VERTEX
8
0
62
5
10
0.10316167
20
0.77141661
30
0
70
32
0
SEQEND
8
0
0
POLYLINE
8
0
62
5
66
1
10
0
20
0
30
0
70
8
0
VERTEX
8
0
62
5
10
0.14558808
20
0.77141661
30
0
70
32
0
VERTEX
8
0
62
5
10
0.14558808
20
0.77141661
30
0
70
32
0
SEQEND
8
0
0
POLYLINE
8
0
62
5
66
1
10
0
20
0
30
0
70
8
0
VERTEX
8
0
62
5
10
0.043710504
20
0.81147101
30
0
70
32
0
VERTEX
8
0
62
5
10
0.043710504
20
0.81147101
30
0
70
32
0
SEQEND
8
0
0
POLYLINE
8
0
62
5
66
1
10
0
20
0
30
0
70
8
0
VERTEX
8
0
62
5
10
0.086136911
20
0.81147101
30
0
70
32
0
VERTEX
8
0
62
5
10
0.086136911
20
0.81147101
30
0
70
32
0
SEQEND
8
0
0
POLYLINE
8
0
62
5
66
1
10
0
20
0
30
0
70
8
0
VERTEX
8
0
62
5
10
0.12856332
20
0.81147101
30
0
70
32
0
VERTEX
8
0
62
5
10
0.12856332
20
0.81147101
30
0
70
32
0
SEQEND
8
0
0
POLYLINE
8
0
62
5
66
1
10
0
20
0
30
0
70
8
0
VERTEX
8
0
62
5
10
0.17098972
20
0.81147101
30
0
70
32
0
VERTEX
8
0
62
5
10
0.17098972
20
0.81147101
30
0
70
32
0
SEQEND
8
0
0
POLYLINE
8
0
62
30
66
1
10
0
20
0
30
0
70
8
0
VERTEX
8
0
62
30
10
0.18801448
20
0.81147101
30
0
70
32
0
VERTEX
8
0
62
30
10
0.35772011
20
0.81147101
30
0
70
32
0
SEQEND
8
0
0
POLYLINE
8
0
62
30
66
1
10
0
20
0
30
0
70
8
0
VERTEX
8
0
62
30
10
0.18801448
20
0.77141661
30
0
70
32
0
VERTEX
8
0
62
30
10
0.35772011
20
0.77141661
30
0
70
32
0
SEQEND
8
0
0
POLYLINE
8
0
62
5
66
1
10
0
20
0
30
0
70
8
0
VERTEX
8
0
62
5
10
0.18801448
20
0.77141661
30
0
70
32
0
VERTEX
8
0
62
5
10
0.21341613
20
0.81147101
30
0
70
32
0
VERTEX
8
0
62
5
10
0.23044089
20
0.77141661
30
0
70
32
0
VERTEX
8
0
62
5
10
0.25584254
20
0.81147101
30
0
70
32
0
VERTEX
8
0
62
5
10
0.2728673
20
0.77141661
30
0
70
32
0
VERTEX
8
0
62
5
10
0.29826895
20
0.81147101
30
0
70
32
0
VERTEX
8
0
62
5
10
0.31529371
20
0.77141661
30
0
70
32
0
VERTEX
8
0
62
5
10
0.34069535
20
0.81147101
30
0
70
32
0
VERTEX
8
0
62
5
10
0.35772011
20
0.77141661
30
0
70
32
0
SEQEND
8
0
0
POLYLINE
8
0
62
5
66
1
10
0
20
0
30
0
70
8
0
VERTEX
8
0
62
5
10
0.23044089
20
0.77141661
30
0
70
32
0
VERTEX
8
0
62
5
10
0.23044089
20
0.77141661
30
0
70
32
0
SEQEND
8
0
0
POLYLINE
8
0
62
5
66
1
10
0
20
0
30
0
70
8
0
VERTEX
8
0
62
5
10
0.2728673
20
0.77141661
30
0
70
32
0
VERTEX
8
0
62
5
10
0.2728673
20
0.77141661
30
0
70
32
0
SEQEND
8
0
0
POLYLINE
8
0
62
5
66
1
10
0
20
0
30
0
70
8
0
VERTEX
8
0
62
5
10
0.31529371
20
0.77141661
30
0
70
32
0
VERTEX
8
0
62
5
10
0.31529371
20
0.77141661
30
0
70
32
0
SEQEND
8
0
0
POLYLINE
8
0
62
5
66
1
10
0
20
0
30
0
70
8
0
VERTEX
8
0
62
5
10
0.21341613
20
0.81147101
30
0
70
32
0
VERTEX
8
0
62
5
10
0.21341613
20
0.81147101
30
0
70
32
0
SEQEND
8
0
0
POLYLINE
8
0
62
5
66
1
10
0
20
0
30
0
70
8
0
VERTEX
8
0
62
5
10
0.25584254
20
0.81147101
30
0
70
32
0
VERTEX
8
0
62
5
10
0.25584254
20
0.81147101
30
0
70
32
0
SEQEND
8
0
0
POLYLINE
8
0
62
5
66
1
10
0
20
0
30
0
70
8
0
VERTEX
8
0
62
5
10
0.29826895
20
0.81147101
30
0
70
32
0
VERTEX
8
0
62
5
10
0.29826895
20
0.81147101
30
0
70
32
0
SEQEND
8
0
0
POLYLINE
8
0
62
5
66
1
10
0
20
0
30
0
70
8
0
VERTEX
8
0
62
5
10
0.34069535
20
0.81147101
30
0
70
32
0
VERTEX
8
0
62
5
10
0.34069535
20
0.81147101
30
0
70
32
0
SEQEND
8
0
0
POLYLINE
8
0
62
30
66
1
10
0
20
0
30
0
70
8
0
VERTEX
8
0
62
30
10
-0.15139677
20
0.81147101
30
0
70
32
0
VERTEX
8
0
62
30
10
0.018308857
20
0.81147101
30
0
70
32
0
SEQEND
8
0
0
POLYLINE
8
0
62
30
66
1
10
0
20
0
30
0
70
8
0
VERTEX
8
0
62
30
10
-0.15139677
20
0.77141661
30
0
70
32
0
VERTEX
8
0
62
30
10
0.018308857
20
0.77141661
30
0
70
32
0
SEQEND
8
0
0
POLYLINE
8
0
62
5
66
1
10
0
20
0
30
0
70
8
0
VERTEX
8
0
62
5
10
-0.15139677
20
0.77141661
30
0
70
32
0
VERTEX
8
0
62
5
10
-0.12599512
20
0.81147101
30
0
70
32
0
VERTEX
8
0
62
5
10
-0.10897036
20
0.77141661
30
0
70
32
0
VERTEX
8
0
62
5
10
-0.083568716
20
0.81147101
30
0
70
32
0
VERTEX
8
0
62
5
10
-0.066543957
20
0.77141661
30
0
70
32
0
VERTEX
8
0
62
5
10
-0.041142309
20
0.81147101
30
0
70
32
0
VERTEX
8
0
62
5
10
-0.02411755
20
0.77141661
30
0
70
32
0
VERTEX
8
0
62
5
10
0.0012840974
20
0.81147101
30
0
70
32
0
VERTEX
8
0
62
5
10
0.018308857
20
0.77141661
30
0
70
32
0
SEQEND
8
0
0
POLYLINE
8
0
62
5
66
1
10
0
20
0
30
0
70
8
0
VERTEX
8
0
62
5
10
-0.10897036
20
0.77141661
30
0
70
32
0
VERTEX
8
0
62
5
10
-0.10897036
20
0.77141661
30
0
70
32
0
SEQEND
8
0
0
POLYLINE
8
0
62
5
66
1
10
0
20
0
30
0
70
8
0
VERTEX
8
0
62
5
10
-0.066543957
20
0.77141661
30
0
70
32
0
VERTEX
8
0
62
5
10
-0.066543957
20
0.77141661
30
0
70
32
0
SEQEND
8
0
0
POLYLINE
8
0
62
5
66
1
10
0
20
0
30
0
70
8
0
VERTEX
8
0
62
5
10
-0.02411755
20
0.77141661
30
0
70
32
0
VERTEX
8
0
62
5
10
-0.02411755
20
0.77141661
30
0
70
32
0
SEQEND
8
0
0
POLYLINE
8
0
62
5
66
1
10
0
20
0
30
0
70
8
0
VERTEX
8
0
62
5
10
-0.12599512
20
0.81147101
30
0
70
32
0
VERTEX
8
0
62
5
10
-0.12599512
20
0.81147101
30
0
70
32
0
SEQEND
8
0
0
POLYLINE
8
0
62
5
66
1
10
0
20
0
30
0
70
8
0
VERTEX
8
0
62
5
10
-0.083568716
20
0.81147101
30
0
70
32
0
VERTEX
8
0
62
5
10
-0.083568716
20
0.81147101
30
0
70
32
0
SEQEND
8
0
0
POLYLINE
8
0
62
5
66
1
10
0
20
0
30
0
70
8
0
VERTEX
8
0
62
5
10
-0.041142309
20
0.81147101
30
0
70
32
0
VERTEX
8
0
62
5
10
-0.041142309
20
0.81147101
30
0
70
32
0
SEQEND
8
0
0
POLYLINE
8
0
62
5
66
1
10
0
20
0
30
0
70
8
0
VERTEX
8
0
62
5
10
0.0012840974
20
0.81147101
30
0
70
32
0
VERTEX
8
0
62
5
10
0.0012840974
20
0.81147101
30
0
70
32
0
SEQEND
8
0
0
POLYLINE
8
0
62
5
66
1
10
0
20
0
30
0
70
8
0
VERTEX
8
0
62
5
10
0.043710504
20
0.81147101
30
0
70
32
0
VERTEX
8
0
62
5
10
0.043710504
20
0.96804554
30
0
70
32
0
SEQEND
8
0
0
POLYLINE
8
0
62
5
66
1
10
0
20
0
30
0
70
8
0
VERTEX
8
0
62
5
10
0.21341613
20
0.81147101
30
0
70
32
0
VERTEX
8
0
62
5
10
0.21341613
20
0.96804554
30
0
70
32
0
SEQEND
8
0
0
POLYLINE
8
0
62
5
66
1
10
0
20
0
30
0
70
8
0
VERTEX
8
0
62
5
10
0.086136911
20
0.81147101
30
0
70
32
0
VERTEX
8
0
62
5
10
0.086136911
20
0.96804554
30
0
70
32
0
SEQEND
8
0
0
POLYLINE
8
0
62
5
66
1
10
0
20
0
30
0
70
8
0
VERTEX
8
0
62
5
10
0.12856332
20
0.81147101
30
0
70
32
0
VERTEX
8
0
62
5
10
0.12856332
20
0.96804554
30
0
70
32
0
SEQEND
8
0
0
POLYLINE
8
0
62
5
66
1
10
0
20
0
30
0
70
8
0
VERTEX
8
0
62
5
10
0.17098972
20
0.81147101
30
0
70
32
0
VERTEX
8
0
62
5
10
0.17098972
20
0.96804554
30
0
70
32
0
SEQEND
8
0
0
POLYLINE
8
0
62
5
66
1
10
0
20
0
30
0
70
8
0
VERTEX
8
0
62
5
10
0.38312176
20
0.81147101
30
0
70
32
0
VERTEX
8
0
62
5
10
0.38312176
20
0.96804554
30
0
70
32
0
SEQEND
8
0
0
POLYLINE
8
0
62
5
66
1
10
0
20
0
30
0
70
8
0
VERTEX
8
0
62
5
10
0.25584254
20
0.81147101
30
0
70
32
0
VERTEX
8
0
62
5
10
0.25584254
20
0.96804554
30
0
70
32
0
SEQEND
8
0
0
POLYLINE
8
0
62
5
66
1
10
0
20
0
30
0
70
8
0
VERTEX
8
0
62
5
10
0.29826895
20
0.81147101
30
0
70
32
0
VERTEX
8
0
62
5
10
0.29826895
20
0.96804554
30
0
70
32
0
SEQEND
8
0
0
POLYLINE
8
0
62
5
66
1
10
0
20
0
30
0
70
8
0
VERTEX
8
0
62
5
10
0.34069535
20
0.81147101
30
0
70
32
0
VERTEX
8
0
62
5
10
0.34069535
20
0.96804554
30
0
70
32
0
SEQEND
8
0
0
POLYLINE
8
0
62
5
66
1
10
0
20
0
30
0
70
8
0
VERTEX
8
0
62
5
10
-0.12599512
20
0.81147101
30
0
70
32
0
VERTEX
8
0
62
5
10
-0.12599512
20
0.96804554
30
0
70
32
0
SEQEND
8
0
0
POLYLINE
8
0
62
5
66
1
10
0
20
0
30
0
70
8
0
VERTEX
8
0
62
5
10
-0.083568716
20
0.81147101
30
0
70
32
0
VERTEX
8
0
62
5
10
-0.083568716
20
0.96804554
30
0
70
32
0
SEQEND
8
0
0
POLYLINE
8
0
62
5
66
1
10
0
20
0
30
0
70
8
0
VERTEX
8
0
62
5
10
-0.041142309
20
0.81147101
30
0
70
32
0
VERTEX
8
0
62
5
10
-0.041142309
20
0.96804554
30
0
70
32
0
SEQEND
8
0
0
POLYLINE
8
0
62
5
66
1
10
0
20
0
30
0
70
8
0
VERTEX
8
0
62
5
10
0.0012840974
20
0.81147101
30
0
70
32
0
VERTEX
8
0
62
5
10
0.0012840974
20
0.96804554
30
0
70
32
0
SEQEND
8
0
0
POLYLINE
8
0
62
5
66
1
10
0
20
0
30
0
70
8
0
VERTEX
8
0
62
5
10
0.043710504
20
0.96804554
30
0
70
32
0
VERTEX
8
0
62
5
10
0.043710504
20
1.0051927
30
0
70
32
0
SEQEND
8
0
0
POLYLINE
8
0
62
5
66
1
10
0
20
0
30
0
70
8
0
VERTEX
8
0
62
5
10
0.21341613
20
1.0051927
30
0
70
32
0
VERTEX
8
0
62
5
10
0.21341613
20
0.96804554
30
0
70
32
0
SEQEND
8
0
0
POLYLINE
8
0
62
5
66
1
10
0
20
0
30
0
70
8
0
VERTEX
8
0
62
5
10
0.043710504
20
0.97434875
30
0
70
32
0
VERTEX
8
0
62
5
10
0.086136911
20
0.96862186
30
0
70
32
0
VERTEX
8
0
62
5
10
0.12856332
20
0.98089225
30
0
70
32
0
VERTEX
8
0
62
5
10
0.17098972
20
0.98661914
30
0
70
32
0
VERTEX
8
0
62
5
10
0.21341613
20
0.97434875
30
0
70
32
0
SEQEND
8
0
0
POLYLINE
8
0
62
5
66
1
10
0
20
0
30
0
70
8
0
SEQEND
8
0
0
POLYLINE
8
0
62
5
66
1
10
0
20
0
30
0
70
8
0
VERTEX
8
0
62
5
10
0.043710504
20
0.99888952
30
0
70
32
0
VERTEX
8
0
62
5
10
0.086136911
20
1.0046164
30
0
70
32
0
VERTEX
8
0
62
5
10
0.12856332
20
0.99234603
30
0
70
32
0
VERTEX
8
0
62
5
10
0.17098972
20
0.98661914
30
0
70
32
0
VERTEX
8
0
62
5
10
0.21341613
20
0.99888952
30
0
70
32
0
SEQEND
8
0
0
POLYLINE
8
0
62
30
66
1
10
0
20
0
30
0
70
8
0
VERTEX
8
0
62
30
10
0.043710504
20
0.98661914
30
0
70
32
0
VERTEX
8
0
62
30
10
0.21341613
20
0.98661914
30
0
70
32
0
SEQEND
8
0
0
POLYLINE
8
0
62
30
66
1
10
0
20
0
30
0
70
8
0
VERTEX
8
0
62
30
10
0.086136911
20
0.96862186
30
0
70
32
0
VERTEX
8
0
62
30
10
0.086136911
20
0.98661914
30
0
70
32
0
SEQEND
8
0
0
POLYLINE
8
0
62
30
66
1
10
0
20
0
30
0
70
8
0
VERTEX
8
0
62
30
10
0.12856332
20
0.98089225
30
0
70
32
0
VERTEX
8
0
62
30
10
0.12856332
20
0.98661914
30
0
70
32
0
SEQEND
8
0
0
POLYLINE
8
0
62
30
66
1
10
0
20
0
30
0
70
8
0
VERTEX
8
0
62
30
10
0.17098972
20
0.98661914
30
0
70
32
0
VERTEX
8
0
62
30
10
0.17098972
20
0.98661914
30
0
70
32
0
SEQEND
8
0
0
POLYLINE
8
0
62
5
66
1
10
0
20
0
30
0
70
8
0
VERTEX
8
0
62
5
10
0.086136911
20
0.96804554
30
0
70
32
0
VERTEX
8
0
62
5
10
0.086136911
20
0.96862186
30
0
70
32
0
SEQEND
8
0
0
POLYLINE
8
0
62
5
66
1
10
0
20
0
30
0
70
8
0
VERTEX
8
0
62
5
10
0.12856332
20
0.96804554
30
0
70
32
0
VERTEX
8
0
62
5
10
0.12856332
20
0.98089225
30
0
70
32
0
SEQEND
8
0
0
POLYLINE
8
0
62
5
66
1
10
0
20
0
30
0
70
8
0
VERTEX
8
0
62
5
10
0.17098972
20
0.96804554
30
0
70
32
0
VERTEX
8
0
62
5
10
0.17098972
20
0.98661914
30
0
70
32
0
SEQEND
8
0
0
POLYLINE
8
0
62
5
66
1
10
0
20
0
30
0
70
8
0
VERTEX
8
0
62
5
10
0.086136911
20
0.98661914
30
0
70
32
0
VERTEX
8
0
62
5
10
0.086136911
20
1.0051927
30
0
70
32
0
SEQEND
8
0
0
POLYLINE
8
0
62
5
66
1
10
0
20
0
30
0
70
8
0
VERTEX
8
0
62
5
10
0.12856332
20
0.98661914
30
0
70
32
0
VERTEX
8
0
62
5
10
0.12856332
20
1.0051927
30
0
70
32
0
SEQEND
8
0
0
POLYLINE
8
0
62
5
66
1
10
0
20
0
30
0
70
8
0
VERTEX
8
0
62
5
10
0.17098972
20
0.98661914
30
0
70
32
0
VERTEX
8
0
62
5
10
0.17098972
20
1.0051927
30
0
70
32
0
SEQEND
8
0
0
POLYLINE
8
0
62
5
66
1
10
0
20
0
30
0
70
8
0
VERTEX
8
0
62
5
10
0.38312176
20
1.0051927
30
0
70
32
0
VERTEX
8
0
62
5
10
0.38312176
20
0.96804554
30
0
70
32
0
SEQEND
8
0
0
POLYLINE
8
0
62
5
66
1
10
0
20
0
30
0
70
8
0
VERTEX
8
0
62
5
10
0.21341613
20
0.97434875
30
0
70
32
0
VERTEX
8
0
62
5
10
0.25584254
20
0.96862186
30
0
70
32
0
VERTEX
8
0
62
5
10
0.29826895
20
0.98089225
30
0
70
32
0
VERTEX
8
0
62
5
10
0.34069535
20
0.98661914
30
0
70
32
0
VERTEX
8
0
62
5
10
0.38312176
20
0.97434875
30
0
70
32
0
SEQEND
8
0
0
POLYLINE
8
0
62
5
66
1
10
0
20
0
30
0
70
8
0
SEQEND
8
0
0
POLYLINE
8
0
62
5
66
1
10
0
20
0
30
0
70
8
0
VERTEX
8
0
62
5
10
0.21341613
20
0.99888952
30
0
70
32
0
VERTEX
8
0
62
5
10
0.25584254
20
1.0046164
30
0
70
32
0
VERTEX
8
0
62
5
10
0.29826895
20
0.99234603
30
0
70
32
0
VERTEX
8
0
62
5
10
0.34069535
20
0.98661914
30
0
70
32
0
VERTEX
8
0
62
5
10
0.38312176
20
0.99888952
30
0
70
32
0
SEQEND
8
0
0
POLYLINE
8
0
62
30
66
1
10
0
20
0
30
0
70
8
0
VERTEX
8
0
62
30
10
0.21341613
20
0.98661914
30
0
70
32
0
VERTEX
8
0
62
30
10
0.38312176
20
0.98661914
30
0
70
32
0
SEQEND
8
0
0
POLYLINE
8
0
62
30
66
1
10
0
20
0
30
0
70
8
0
VERTEX
8
0
62
30
10
0.25584254
20
0.96862186
30
0
70
32
0
VERTEX
8
0
62
30
10
0.25584254
20
0.98661914
30
0
70
32
0
SEQEND
8
0
0
POLYLINE
8
0
62
30
66
1
10
0
20
0
30
0
70
8
0
VERTEX
8
0
62
30
10
0.29826895
20
0.98089225
30
0
70
32
0
VERTEX
8
0
62
30
10
0.29826895
20
0.98661914
30
0
70
32
0
SEQEND
8
0
0
POLYLINE
8
0
62
30
66
1
10
0
20
0
30
0
70
8
0
VERTEX
8
0
62
30
10
0.34069535
20
0.98661914
30
0
70
32
0
VERTEX
8
0
62
30
10
0.34069535
20
0.98661914
30
0
70
32
0
SEQEND
8
0
0
POLYLINE
8
0
62
5
66
1
10
0
20
0
30
0
70
8
0
VERTEX
8
0
62
5
10
0.25584254
20
0.96804554
30
0
70
32
0
VERTEX
8
0
62
5
10
0.25584254
20
0.96862186
30
0
70
32
0
SEQEND
8
0
0
POLYLINE
8
0
62
5
66
1
10
0
20
0
30
0
70
8
0
VERTEX
8
0
62
5
10
0.29826895
20
0.96804554
30
0
70
32
0
VERTEX
8
0
62
5
10
0.29826895
20
0.98089225
30
0
70
32
0
SEQEND
8
0
0
POLYLINE
8
0
62
5
66
1
10
0
20
0
30
0
70
8
0
VERTEX
8
0
62
5
10
0.34069535
20
0.96804554
30
0
70
32
0
VERTEX
8
0
62
5
10
0.34069535
20
0.98661914
30
0
70
32
0
SEQEND
8
0
0
POLYLINE
8
0
62
5
66
1
10
0
20
0
30
0
70
8
0
VERTEX
8
0
62
5
10
0.25584254
20
0.98661914
30
0
70
32
0
VERTEX
8
0
62
5
10
0.25584254
20
1.0051927
30
0
70
32
0
SEQEND
8
0
0
POLYLINE
8
0
62
5
66
1
10
0
20
0
30
0
70
8
0
VERTEX
8
0
62
5
10
0.29826895
20
0.98661914
30
0
70
32
0
VERTEX
8
0
62
5
10
0.29826895
20
1.0051927
30
0
70
32
0
SEQEND
8
0
0
POLYLINE
8
0
62
5
66
1
10
0
20
0
30
0
70
8
0
VERTEX
8
0
62
5
10
0.34069535
20
0.98661914
30
0
70
32
0
VERTEX
8
0
62
5
10
0.34069535
20
1.0051927
30
0
70
32
0
SEQEND
8
0
0
POLYLINE
8
0
62
5
66
1
10
0
20
0
30
0
70
8
0
VERTEX
8
0
62
5
10
-0.12599512
20
0.96804554
30
0
70
32
0
VERTEX
8
0
62
5
10
-0.12599512
20
1.0051927
30
0
70
32
0
SEQEND
8
0
0
POLYLINE
8
0
62
5
66
1
10
0
20
0
30
0
70
8
0
VERTEX
8
0
62
5
10
-0.12599512
20
0.97434875
30
0
70
32
0
VERTEX
8
0
62
5
10
-0.083568716
20
0.96862186
30
0
70
32
0
VERTEX
8
0
62
5
10
-0.041142309
20
0.98089225
30
0
70
32
0
VERTEX
8
0
62
5
10
0.0012840974
20
0.98661914
30
0
70
32
0
VERTEX
8
0
62
5
10
0.043710504
20
0.97434875
30
0
70
32
0
SEQEND
8
0
0
POLYLINE
8
0
62
5
66
1
10
0
20
0
30
0
70
8
0
SEQEND
8
0
0
POLYLINE
8
0
62
5
66
1
10
0
20
0
30
0
70
8
0
VERTEX
8
0
62
5
10
-0.12599512
20
0.99888952
30
0
70
32
0
VERTEX
8
0
62
5
10
-0.083568716
20
1.0046164
30
0
70
32
0
VERTEX
8
0
62
5
10
-0.041142309
20
0.99234603
30
0
70
32
0
VERTEX
8
0
62
5
10
0.0012840974
20
0.98661914
30
0
70
32
0
VERTEX
8
0
62
5
10
0.043710504
20
0.99888952
30
0
70
32
0
SEQEND
8
0
0
POLYLINE
8
0
62
30
66
1
10
0
20
0
30
0
70
8
0
VERTEX
8
0
62
30
10
-0.12599512
20
0.98661914
30
0
70
32
0
VERTEX
8
0
62
30
10
0.043710504
20
0.98661914
30
0
70
32
0
SEQEND
8
0
0
POLYLINE
8
0
62
30
66
1
10
0
20
0
30
0
70
8
0
VERTEX
8
0
62
30
10
-0.083568716
20
0.96862186
30
0
70
32
0
VERTEX
8
0
62
30
10
-0.083568716
20
0.98661914
30
0
70
32
0
SEQEND
8
0
0
POLYLINE
8
0
62
30
66
1
10
0
20
0
30
0
70
8
0
VERTEX
8
0
62
30
10
-0.041142309
20
0.98089225
30
0
70
32
0
VERTEX
8
0
62
30
10
-0.041142309
20
0.98661914
30
0
70
32
0
SEQEND
8
0
0
POLYLINE
8
0
62
30
66
1
10
0
20
0
30
0
70
8
0
VERTEX
8
0
62
30
10
0.0012840974
20
0.98661914
30
0
70
32
0
VERTEX
8
0
62
30
10
0.0012840974
20
0.98661914
30
0
70
32
0
SEQEND
8
0
0
POLYLINE
8
0
62
5
66
1
10
0
20
0
30
0
70
8
0
VERTEX
8
0
62
5
10
-0.083568716
20
0.96804554
30
0
70
32
0
VERTEX
8
0
62
5
10
-0.083568716
20
0.96862186
30
0
70
32
0
SEQEND
8
0
0
POLYLINE
8
0
62
5
66
1
10
0
20
0
30
0
70
8
0
VERTEX
8
0
62
5
10
-0.041142309
20
0.96804554
30
0
70
32
0
VERTEX
8
0
62
5
10
-0.041142309
20
0.98089225
30
0
70
32
0
SEQEND
8
0
0
POLYLINE
8
0
62
5
66
1
10
0
20
0
30
0
70
8
0
VERTEX
8
0
62
5
10
0.0012840974
20
0.96804554
30
0
70
32
0
VERTEX
8
0
62
5
10
0.0012840974
20
0.98661914
30
0
70
32
0
SEQEND
8
0
0
POLYLINE
8
0
62
5
66
1
10
0
20
0
30
0
70
8
0
VERTEX
8
0
62
5
10
-0.083568716
20
0.98661914
30
0
70
32
0
VERTEX
8
0
62
5
10
-0.083568716
20
1.0051927
30
0
70
32
0
SEQEND
8
0
0
POLYLINE
8
0
62
5
66
1
10
0
20
0
30
0
70
8
0
VERTEX
8
0
62
5
10
-0.041142309
20
0.98661914
30
0
70
32
0
VERTEX
8
0
62
5
10
-0.041142309
20
1.0051927
30
0
70
32
0
SEQEND
8
0
0
POLYLINE
8
0
62
5
66
1
10
0
20
0
30
0
70
8
0
VERTEX
8
0
62
5
10
0.0012840974
20
0.98661914
30
0
70
32
0
VERTEX
8
0
62
5
10
0.0012840974
20
1.0051927
30
0
70
32
0
SEQEND
8
0
0
POLYLINE
8
0
62
5
66
1
10
0
20
0
30
0
70
8
0
VERTEX
8
0
62
5
10
0.043710504
20
1.0051927
30
0
70
32
0
VERTEX
8
0
62
5
10
0.043710504
20
1.0651927
30
0
70
32
0
SEQEND
8
0
0
POLYLINE
8
0
62
5
66
1
10
0
20
0
30
0
70
8
0
VERTEX
8
0
62
5
10
0.21341613
20
1.0651927
30
0
70
32
0
VERTEX
8
0
62
5
10
0.21341613
20
1.0051927
30
0
70
32
0
SEQEND
8
0
0
POLYLINE
8
0
62
5
66
1
10
0
20
0
30
0
70
8
0
VERTEX
8
0
62
5
10
0.043710504
20
1.0051927
30
0
70
32
0
VERTEX
8
0
62
5
10
0.21341613
20
1.0051927
30
0
70
32
0
SEQEND
8
0
0
POLYLINE
8
0
62
5
66
1
10
0
20
0
30
0
70
8
0
VERTEX
8
0
62
5
10
0.043710504
20
1.0651927
30
0
70
32
0
VERTEX
8
0
62
5
10
0.21341613
20
1.0651927
30
0
70
32
0
SEQEND
8
0
0
POLYLINE
8
0
62
5
66
1
10
0
20
0
30
0
70
8
0
VERTEX
8
0
62
5
10
0.086136911
20
1.0051927
30
0
70
32
0
VERTEX
8
0
62
5
10
0.086136911
20
1.0051927
30
0
70
32
0
SEQEND
8
0
0
POLYLINE
8
0
62
5
66
1
10
0
20
0
30
0
70
8
0
VERTEX
8
0
62
5
10
0.12856332
20
1.0051927
30
0
70
32
0
VERTEX
8
0
62
5
10
0.12856332
20
1.0051927
30
0
70
32
0
SEQEND
8
0
0
POLYLINE
8
0
62
5
66
1
10
0
20
0
30
0
70
8
0
VERTEX
8
0
62
5
10
0.17098972
20
1.0051927
30
0
70
32
0
VERTEX
8
0
62
5
10
0.17098972
20
1.0051927
30
0
70
32
0
SEQEND
8
0
0
POLYLINE
8
0
62
5
66
1
10
0
20
0
30
0
70
8
0
VERTEX
8
0
62
5
10
0.086136911
20
1.0651927
30
0
70
32
0
VERTEX
8
0
62
5
10
0.086136911
20
1.0651927
30
0
70
32
0
SEQEND
8
0
0
POLYLINE
8
0
62
5
66
1
10
0
20
0
30
0
70
8
0
VERTEX
8
0
62
5
10
0.12856332
20
1.0651927
30
0
70
32
0
VERTEX
8
0
62
5
10
0.12856332
20
1.0651927
30
0
70
32
0
SEQEND
8
0
0
POLYLINE
8
0
62
5
66
1
10
0
20
0
30
0
70
8
0
VERTEX
8
0
62
5
10
0.17098972
20
1.0651927
30
0
70
32
0
VERTEX
8
0
62
5
10
0.17098972
20
1.0651927
30
0
70
32
0
SEQEND
8
0
0
POLYLINE
8
0
62
30
66
1
10
0
20
0
30
0
70
8
0
VERTEX
8
0
62
30
10
0.043710504
20
1.0651927
30
0
70
32
0
VERTEX
8
0
62
30
10
0.086136911
20
1.0051927
30
0
70
32
0
SEQEND
8
0
0
POLYLINE
8
0
62
30
66
1
10
0
20
0
30
0
70
8
0
VERTEX
8
0
62
30
10
0.086136911
20
1.0651927
30
0
70
32
0
VERTEX
8
0
62
30
10
0.043710504
20
1.0051927
30
0
70
32
0
SEQEND
8
0
0
POLYLINE
8
0
62
30
66
1
10
0
20
0
30
0
70
8
0
VERTEX
8
0
62
30
10
0.12856332
20
1.0651927
30
0
70
32
0
VERTEX
8
0
62
30
10
0.17098972
20
1.0051927
30
0
70
32
0
SEQEND
8
0
0
POLYLINE
8
0
62
30
66
1
10
0
20
0
30
0
70
8
0
VERTEX
8
0
62
30
10
0.17098972
20
1.0651927
30
0
70
32
0
VERTEX
8
0
62
30
10
0.12856332
20
1.0051927
30
0
70
32
0
SEQEND
8
0
0
POLYLINE
8
0
62
30
66
1
10
0
20
0
30
0
70
8
0
VERTEX
8
0
62
30
10
0.086136911
20
1.0351927
30
0
70
32
0
VERTEX
8
0
62
30
10
0.12856332
20
1.0351927
30
0
70
32
0
SEQEND
8
0
0
POLYLINE
8
0
62
30
66
1
10
0
20
0
30
0
70
8
0
VERTEX
8
0
62
30
10
0.17098972
20
1.0351927
30
0
70
32
0
VERTEX
8
0
62
30
10
0.21341613
20
1.0351927
30
0
70
32
0
SEQEND
8
0
0
POLYLINE
8
0
62
5
66
1
10
0
20
0
30
0
70
8
0
VERTEX
8
0
62
5
10
0.043710504
20
1.0351927
30
0
70
32
0
VERTEX
8
0
62
5
10
0.064923708
20
1.0351927
30
0
70
32
0
SEQEND
8
0
0
POLYLINE
8
0
62
5
66
1
10
0
20
0
30
0
70
8
0
VERTEX
8
0
62
5
10
0.12856332
20
1.0351927
30
0
70
32
0
VERTEX
8
0
62
5
10
0.14977652
20
1.0351927
30
0
70
32
0
SEQEND
8
0
0
POLYLINE
8
0
62
5
66
1
10
0
20
0
30
0
70
8
0
VERTEX
8
0
62
5
10
0.064923708
20
1.0351927
30
0
70
32
0
VERTEX
8
0
62
5
10
0.086136911
20
1.0351927
30
0
70
32
0
SEQEND
8
0
0
POLYLINE
8
0
62
5
66
1
10
0
20
0
30
0
70
8
0
VERTEX
8
0
62
5
10
0.14977652
20
1.0351927
30
0
70
32
0
VERTEX
8
0
62
5
10
0.17098972
20
1.0351927
30
0
70
32
0
SEQEND
8
0
0
POLYLINE
8
0
62
5
66
1
10
0
20
0
30
0
70
8
0
VERTEX
8
0
62
5
10
0.086136911
20
1.0051927
30
0
70
32
0
VERTEX
8
0
62
5
10
0.086136911
20
1.0651927
30
0
70
32
0
SEQEND
8
0
0
POLYLINE
8
0
62
5
66
1
10
0
20
0
30
0
70
8
0
VERTEX
8
0
62
5
10
0.12856332
20
1.0051927
30
0
70
32
0
VERTEX
8
0
62
5
10
0.12856332
20
1.0651927
30
0
70
32
0
SEQEND
8
0
0
POLYLINE
8
0
62
5
66
1
10
0
20
0
30
0
70
8
0
VERTEX
8
0
62
5
10
0.17098972
20
1.0051927
30
0
70
32
0
VERTEX
8
0
62
5
10
0.17098972
20
1.0651927
30
0
70
32
0
SEQEND
8
0
0
POLYLINE
8
0
62
5
66
1
10
0
20
0
30
0
70
8
0
VERTEX
8
0
62
5
10
0.043710504
20
1.0051927
30
0
70
32
0
VERTEX
8
0
62
5
10
0.043710504
20
1.0651927
30
0
70
32
0
SEQEND
8
0
0
POLYLINE
8
0
62
5
66
1
10
0
20
0
30
0
70
8
0
VERTEX
8
0
62
5
10
0.38312176
20
1.0651927
30
0
70
32
0
VERTEX
8
0
62
5
10
0.38312176
20
1.0051927
30
0
70
32
0
SEQEND
8
0
0
POLYLINE
8
0
62
5
66
1
10
0
20
0
30
0
70
8
0
VERTEX
8
0
62
5
10
0.21341613
20
1.0051927
30
0
70
32
0
VERTEX
8
0
62
5
10
0.38312176
20
1.0051927
30
0
70
32
0
SEQEND
8
0
0
POLYLINE
8
0
62
5
66
1
10
0
20
0
30
0
70
8
0
VERTEX
8
0
62
5
10
0.21341613
20
1.0651927
30
0
70
32
0
VERTEX
8
0
62
5
10
0.38312176
20
1.0651927
30
0
70
32
0
SEQEND
8
0
0
POLYLINE
8
0
62
5
66
1
10
0
20
0
30
0
70
8
0
VERTEX
8
0
62
5
10
0.25584254
20
1.0051927
30
0
70
32
0
VERTEX
8
0
62
5
10
0.25584254
20
1.0051927
30
0
70
32
0
SEQEND
8
0
0
POLYLINE
8
0
62
5
66
1
10
0
20
0
30
0
70
8
0
VERTEX
8
0
62
5
10
0.29826895
20
1.0051927
30
0
70
32
0
VERTEX
8
0
62
5
10
0.29826895
20
1.0051927
30
0
70
32
0
SEQEND
8
0
0
POLYLINE
8
0
62
5
66
1
10
0
20
0
30
0
70
8
0
VERTEX
8
0
62
5
10
0.34069535
20
1.0051927
30
0
70
32
0
VERTEX
8
0
62
5
10
0.34069535
20
1.0051927
30
0
70
32
0
SEQEND
8
0
0
POLYLINE
8
0
62
5
66
1
10
0
20
0
30
0
70
8
0
VERTEX
8
0
62
5
10
0.25584254
20
1.0651927
30
0
70
32
0
VERTEX
8
0
62
5
10
0.25584254
20
1.0651927
30
0
70
32
0
SEQEND
8
0
0
POLYLINE
8
0
62
5
66
1
10
0
20
0
30
0
70
8
0
VERTEX
8
0
62
5
10
0.29826895
20
1.0651927
30
0
70
32
0
VERTEX
8
0
62
5
10
0.29826895
20
1.0651927
30
0
70
32
0
SEQEND
8
0
0
POLYLINE
8
0
62
5
66
1
10
0
20
0
30
0
70
8
0
VERTEX
8
0
62
5
10
0.34069535
20
1.0651927
30
0
70
32
0
VERTEX
8
0
62
5
10
0.34069535
20
1.0651927
30
0
70
32
0
SEQEND
8
0
0
POLYLINE
8
0
62
30
66
1
10
0
20
0
30
0
70
8
0
VERTEX
8
0
62
30
10
0.21341613
20
1.0651927
30
0
70
32
0
VERTEX
8
0
62
30
10
0.25584254
20
1.0051927
30
0
70
32
0
SEQEND
8
0
0
POLYLINE
8
0
62
30
66
1
10
0
20
0
30
0
70
8
0
VERTEX
8
0
62
30
10
0.25584254
20
1.0651927
30
0
70
32
0
VERTEX
8
0
62
30
10
0.21341613
20
1.0051927
30
0
70
32
0
SEQEND
8
0
0
POLYLINE
8
0
62
30
66
1
10
0
20
0
30
0
70
8
0
VERTEX
8
0
62
30
10
0.29826895
20
1.0651927
30
0
70
32
0
VERTEX
8
0
62
30
10
0.34069535
20
1.0051927
30
0
70
32
0
SEQEND
8
0
0
POLYLINE
8
0
62
30
66
1
10
0
20
0
30
0
70
8
0
VERTEX
8
0
62
30
10
0.34069535
20
1.0651927
30
0
70
32
0
VERTEX
8
0
62
30
10
0.29826895
20
1.0051927
30
0
70
32
0
SEQEND
8
0
0
POLYLINE
8
0
62
30
66
1
10
0
20
0
30
0
70
8
0
VERTEX
8
0
62
30
10
0.25584254
20
1.0351927
30
0
70
32
0
VERTEX
8
0
62
30
10
0.29826895
20
1.0351927
30
0
70
32
0
SEQEND
8
0
0
POLYLINE
8
0
62
30
66
1
10
0
20
0
30
0
70
8
0
VERTEX
8
0
62
30
10
0.34069535
20
1.0351927
30
0
70
32
0
VERTEX
8
0
62
30
10
0.38312176
20
1.0351927
30
0
70
32
0
SEQEND
8
0
0
POLYLINE
8
0
62
5
66
1
10
0
20
0
30
0
70
8
0
VERTEX
8
0
62
5
10
0.21341613
20
1.0351927
30
0
70
32
0
VERTEX
8
0
62
5
10
0.23462934
20
1.0351927
30
0
70
32
0
SEQEND
8
0
0
POLYLINE
8
0
62
5
66
1
10
0
20
0
30
0
70
8
0
VERTEX
8
0
62
5
10
0.29826895
20
1.0351927
30
0
70
32
0
VERTEX
8
0
62
5
10
0.31948215
20
1.0351927
30
0
70
32
0
SEQEND
8
0
0
POLYLINE
8
0
62
5
66
1
10
0
20
0
30
0
70
8
0
VERTEX
8
0
62
5
10
0.23462934
20
1.0351927
30
0
70
32
0
VERTEX
8
0
62
5
10
0.25584254
20
1.0351927
30
0
70
32
0
SEQEND
8
0
0
POLYLINE
8
0
62
5
66
1
10
0
20
0
30
0
70
8
0
VERTEX
8
0
62
5
10
0.31948215
20
1.0351927
30
0
70
32
0
VERTEX
8
0
62
5
10
0.34069535
20
1.0351927
30
0
70
32
0
SEQEND
8
0
0
POLYLINE
8
0
62
5
66
1
10
0
20
0
30
0
70
8
0
VERTEX
8
0
62
5
10
0.25584254
20
1.0051927
30
0
70
32
0
VERTEX
8
0
62
5
10
0.25584254
20
1.0651927
30
0
70
32
0
SEQEND
8
0
0
POLYLINE
8
0
62
5
66
1
10
0
20
0
30
0
70
8
0
VERTEX
8
0
62
5
10
0.29826895
20
1.0051927
30
0
70
32
0
VERTEX
8
0
62
5
10
0.29826895
20
1.0651927
30
0
70
32
0
SEQEND
8
0
0
POLYLINE
8
0
62
5
66
1
10
0
20
0
30
0
70
8
0
VERTEX
8
0
62
5
10
0.34069535
20
1.0051927
30
0
70
32
0
VERTEX
8
0
62
5
10
0.34069535
20
1.0651927
30
0
70
32
0
SEQEND
8
0
0
POLYLINE
8
0
62
5
66
1
10
0
20
0
30
0
70
8
0
VERTEX
8
0
62
5
10
0.21341613
20
1.0051927
30
0
70
32
0
VERTEX
8
0
62
5
10
0.21341613
20
1.0651927
30
0
70
32
0
SEQEND
8
0
0
POLYLINE
8
0
62
5
66
1
10
0
20
0
30
0
70
8
0
VERTEX
8
0
62
5
10
-0.12599512
20
1.0051927
30
0
70
32
0
VERTEX
8
0
62
5
10
-0.12599512
20
1.0651927
30
0
70
32
0
SEQEND
8
0
0
POLYLINE
8
0
62
5
66
1
10
0
20
0
30
0
70
8
0
VERTEX
8
0
62
5
10
-0.12599512
20
1.0051927
30
0
70
32
0
VERTEX
8
0
62
5
10
0.043710504
20
1.0051927
30
0
70
32
0
SEQEND
8
0
0
POLYLINE
8
0
62
5
66
1
10
0
20
0
30
0
70
8
0
VERTEX
8
0
62
5
10
-0.12599512
20
1.0651927
30
0
70
32
0
VERTEX
8
0
62
5
10
0.043710504
20
1.0651927
30
0
70
32
0
SEQEND
8
0
0
POLYLINE
8
0
62
5
66
1
10
0
20
0
30
0
70
8
0
VERTEX
8
0
62
5
10
-0.083568716
20
1.0051927
30
0
70
32
0
VERTEX
8
0
62
5
10
-0.083568716
20
1.0051927
30
0
70
32
0
SEQEND
8
0
0
POLYLINE
8
0
62
5
66
1
10
0
20
0
30
0
70
8
0
VERTEX
8
0
62
5
10
-0.041142309
20
1.0051927
30
0
70
32
0
VERTEX
8
0
62
5
10
-0.041142309
20
1.0051927
30
0
70
32
0
SEQEND
8
0
0
POLYLINE
8
0
62
5
66
1
10
0
20
0
30
0
70
8
0
VERTEX
8
0
62
5
10
0.0012840974
20
1.0051927
30
0
70
32
0
VERTEX
8
0
62
5
10
0.0012840974
20
1.0051927
30
0
70
32
0
SEQEND
8
0
0
POLYLINE
8
0
62
5
66
1
10
0
20
0
30
0
70
8
0
VERTEX
8
0
62
5
10
-0.083568716
20
1.0651927
30
0
70
32
0
VERTEX
8
0
62
5
10
-0.083568716
20
1.0651927
30
0
70
32
0
SEQEND
8
0
0
POLYLINE
8
0
62
5
66
1
10
0
20
0
30
0
70
8
0
VERTEX
8
0
62
5
10
-0.041142309
20
1.0651927
30
0
70
32
0
VERTEX
8
0
62
5
10
-0.041142309
20
1.0651927
30
0
70
32
0
SEQEND
8
0
0
POLYLINE
8
0
62
5
66
1
10
0
20
0
30
0
70
8
0
VERTEX
8
0
62
5
10
0.0012840974
20
1.0651927
30
0
70
32
0
VERTEX
8
0
62
5
10
0.0012840974
20
1.0651927
30
0
70
32
0
SEQEND
8
0
0
POLYLINE
8
0
62
30
66
1
10
0
20
0
30
0
70
8
0
VERTEX
8
0
62
30
10
-0.12599512
20
1.0651927
30
0
70
32
0
VERTEX
8
0
62
30
10
-0.083568716
20
1.0051927
30
0
70
32
0
SEQEND
8
0
0
POLYLINE
8
0
62
30
66
1
10
0
20
0
30
0
70
8
0
VERTEX
8
0
62
30
10
-0.083568716
20
1.0651927
30
0
70
32
0
VERTEX
8
0
62
30
10
-0.12599512
20
1.0051927
30
0
70
32
0
SEQEND
8
0
0
POLYLINE
8
0
62
30
66
1
10
0
20
0
30
0
70
8
0
VERTEX
8
0
62
30
10
-0.041142309
20
1.0651927
30
0
70
32
0
VERTEX
8
0
62
30
10
0.0012840974
20
1.0051927
30
0
70
32
0
SEQEND
8
0
0
POLYLINE
8
0
62
30
66
1
10
0
20
0
30
0
70
8
0
VERTEX
8
0
62
30
10
0.0012840974
20
1.0651927
30
0
70
32
0
VERTEX
8
0
62
30
10
-0.041142309
20
1.0051927
30
0
70
32
0
SEQEND
8
0
0
POLYLINE
8
0
62
30
66
1
10
0
20
0
30
0
70
8
0
VERTEX
8
0
62
30
10
-0.083568716
20
1.0351927
30
0
70
32
0
VERTEX
8
0
62
30
10
-0.041142309
20
1.0351927
30
0
70
32
0
SEQEND
8
0
0
POLYLINE
8
0
62
30
66
1
10
0
20
0
30
0
70
8
0
VERTEX
8
0
62
30
10
0.0012840974
20
1.0351927
30
0
70
32
0
VERTEX
8
0
62
30
10
0.043710504
20
1.0351927
30
0
70
32
0
SEQEND
8
0
0
POLYLINE
8
0
62
5
66
1
10
0
20
0
30
0
70
8
0
VERTEX
8
0
62
5
10
-0.12599512
20
1.0351927
30
0
70
32
0
VERTEX
8
0
62
5
10
-0.10478192
20
1.0351927
30
0
70
32
0
SEQEND
8
0
0
POLYLINE
8
0
62
5
66
1
10
0
20
0
30
0
70
8
0
VERTEX
8
0
62
5
10
-0.041142309
20
1.0351927
30
0
70
32
0
VERTEX
8
0
62
5
10
-0.019929106
20
1.0351927
30
0
70
32
0
SEQEND
8
0
0
POLYLINE
8
0
62
5
66
1
10
0
20
0
30
0
70
8
0
VERTEX
8
0
62
5
10
-0.10478192
20
1.0351927
30
0
70
32
0
VERTEX
8
0
62
5
10
-0.083568716
20
1.0351927
30
0
70
32
0
SEQEND
8
0
0
POLYLINE
8
0
62
5
66
1
10
0
20
0
30
0
70
8
0
VERTEX
8
0
62
5
10
-0.019929106
20
1.0351927
30
0
70
32
0
VERTEX
8
0
62
5
10
0.0012840974
20
1.0351927
30
0
70
32
0
SEQEND
8
0
0
POLYLINE
8
0
62
5
66
1
10
0
20
0
30
0
70
8
0
VERTEX
8
0
62
5
10
-0.083568716
20
1.0051927
30
0
70
32
0
VERTEX
8
0
62
5
10
-0.083568716
20
1.0651927
30
0
70
32
0
SEQEND
8
0
0
POLYLINE
8
0
62
5
66
1
10
0
20
0
30
0
70
8
0
VERTEX
8
0
62
5
10
-0.041142309
20
1.0051927
30
0
70
32
0
VERTEX
8
0
62
5
10
-0.041142309
20
1.0651927
30
0
70
32
0
SEQEND
8
0
0
POLYLINE
8
0
62
5
66
1
10
0
20
0
30
0
70
8
0
VERTEX
8
0
62
5
10
0.0012840974
20
1.0051927
30
0
70
32
0
VERTEX
8
0
62
5
10
0.0012840974
20
1.0651927
30
0
70
32
0
SEQEND
8
0
0
POLYLINE
8
0
62
5
66
1
10
0
20
0
30
0
70
8
0
VERTEX
8
0
62
5
10
-0.12599512
20
1.0051927
30
0
70
32
0
VERTEX
8
0
62
5
10
-0.12599512
20
1.0651927
30
0
70
32
0
SEQEND
8
0
0
POLYLINE
8
0
62
5
66
1
10
0
20
0
30
0
70
8
0
VERTEX
8
0
62
5
10
0.043710504
20
1.0651927
30
0
70
32
0
VERTEX
8
0
62
5
10
0.043710504
20
1.1944079
30
0
70
32
0
SEQEND
8
0
0
POLYLINE
8
0
62
5
66
1
10
0
20
0
30
0
70
8
0
VERTEX
8
0
62
5
10
0.21341613
20
1.1944079
30
0
70
32
0
VERTEX
8
0
62
5
10
0.21341613
20
1.0651927
30
0
70
32
0
SEQEND
8
0
0
POLYLINE
8
0
62
5
66
1
10
0
20
0
30
0
70
8
0
VERTEX
8
0
62
5
10
0.043710504
20
1.0760471
30
0
70
32
0
VERTEX
8
0
62
5
10
0.086136911
20
1.0662421
30
0
70
32
0
VERTEX
8
0
62
5
10
0.12856332
20
1.0876915
30
0
70
32
0
VERTEX
8
0
62
5
10
0.17098972
20
1.0974965
30
0
70
32
0
VERTEX
8
0
62
5
10
0.21341613
20
1.0760471
30
0
70
32
0
SEQEND
8
0
0
POLYLINE
8
0
62
5
66
1
10
0
20
0
30
0
70
8
0
VERTEX
8
0
62
5
10
0.043710504
20
1.1406547
30
0
70
32
0
VERTEX
8
0
62
5
10
0.086136911
20
1.1308497
30
0
70
32
0
VERTEX
8
0
62
5
10
0.12856332
20
1.1522991
30
0
70
32
0
VERTEX
8
0
62
5
10
0.17098972
20
1.1621041
30
0
70
32
0
VERTEX
8
0
62
5
10
0.21341613
20
1.1406547
30
0
70
32
0
SEQEND
8
0
0
POLYLINE
8
0
62
5
66
1
10
0
20
0
30
0
70
8
0
VERTEX
8
0
62
5
10
0.043710504
20
1.118946
30
0
70
32
0
VERTEX
8
0
62
5
10
0.086136911
20
1.128751
30
0
70
32
0
VERTEX
8
0
62
5
10
0.12856332
20
1.1073015
30
0
70
32
0
VERTEX
8
0
62
5
10
0.17098972
20
1.0974965
30
0
70
32
0
VERTEX
8
0
62
5
10
0.21341613
20
1.118946
30
0
70
32
0
SEQEND
8
0
0
POLYLINE
8
0
62
5
66
1
10
0
20
0
30
0
70
8
0
VERTEX
8
0
62
5
10
0.043710504
20
1.1835536
30
0
70
32
0
VERTEX
8
0
62
5
10
0.086136911
20
1.1933586
30
0
70
32
0
VERTEX
8
0
62
5
10
0.12856332
20
1.1719091
30
0
70
32
0
VERTEX
8
0
62
5
10
0.17098972
20
1.1621041
30
0
70
32
0
VERTEX
8
0
62
5
10
0.21341613
20
1.1835536
30
0
70
32
0
SEQEND
8
0
0
POLYLINE
8
0
62
30
66
1
10
0
20
0
30
0
70
8
0
VERTEX
8
0
62
30
10
0.043710504
20
1.1621041
30
0
70
32
0
VERTEX
8
0
62
30
10
0.21341613
20
1.1621041
30
0
70
32
0
SEQEND
8
0
0
POLYLINE
8
0
62
30
66
1
10
0
20
0
30
0
70
8
0
VERTEX
8
0
62
30
10
0.086136911
20
1.0662421
30
0
70
32
0
VERTEX
8
0
62
30
10
0.086136911
20
1.0974965
30
0
70
32
0
SEQEND
8
0
0
POLYLINE
8
0
62
30
66
1
10
0
20
0
30
0
70
8
0
VERTEX
8
0
62
30
10
0.12856332
20
1.0876915
30
0
70
32
0
VERTEX
8
0
62
30
10
0.12856332
20
1.0974965
30
0
70
32
0
SEQEND
8
0
0
POLYLINE
8
0
62
30
66
1
10
0
20
0
30
0
70
8
0
VERTEX
8
0
62
30
10
0.17098972
20
1.0974965
30
0
70
32
0
VERTEX
8
0
62
30
10
0.17098972
20
1.0974965
30
0
70
32
0
SEQEND
8
0
0
POLYLINE
8
0
62
30
66
1
10
0
20
0
30
0
70
8
0
VERTEX
8
0
62
30
10
0.086136911
20
1.1308497
30
0
70
32
0
VERTEX
8
0
62
30
10
0.086136911
20
1.1621041
30
0
70
32
0
SEQEND
8
0
0
POLYLINE
8
0
62
30
66
1
10
0
20
0
30
0
70
8
0
VERTEX
8
0
62
30
10
0.086136911
20
1.1621041
30
0
70
32
0
VERTEX
8
0
62
30
10
0.12856332
20
1.1522991
30
0
70
32
0
SEQEND
8
0
0
POLYLINE
8
0
62
30
66
1
10
0
20
0
30
0
70
8
0
VERTEX
8
0
62
30
10
0.12856332
20
1.1522991
30
0
70
32
0
VERTEX
8
0
62
30
10
0.12856332
20
1.1621041
30
0
70
32
0
SEQEND
8
0
0
POLYLINE
8
0
62
30
66
1
10
0
20
0
30
0
70
8
0
VERTEX
8
0
62
30
10
0.12856332
20
1.1621041
30
0
70
32
0
VERTEX
8
0
62
30
10
0.17098972
20
1.1621041
30
0
70
32
0
SEQEND
8
0
0
POLYLINE
8
0
62
30
66
1
10
0
20
0
30
0
70
8
0
VERTEX
8
0
62
30
10
0.17098972
20
1.1621041
30
0
70
32
0
VERTEX
8
0
62
30
10
0.17098972
20
1.1621041
30
0
70
32
0
SEQEND
8
0
0
POLYLINE
8
0
62
5
66
1
10
0
20
0
30
0
70
8
0
VERTEX
8
0
62
5
10
0.086136911
20
1.0651927
30
0
70
32
0
VERTEX
8
0
62
5
10
0.086136911
20
1.0662421
30
0
70
32
0
SEQEND
8
0
0
POLYLINE
8
0
62
5
66
1
10
0
20
0
30
0
70
8
0
VERTEX
8
0
62
5
10
0.12856332
20
1.0651927
30
0
70
32
0
VERTEX
8
0
62
5
10
0.12856332
20
1.0876915
30
0
70
32
0
SEQEND
8
0
0
POLYLINE
8
0
62
5
66
1
10
0
20
0
30
0
70
8
0
VERTEX
8
0
62
5
10
0.17098972
20
1.0651927
30
0
70
32
0
VERTEX
8
0
62
5
10
0.17098972
20
1.0974965
30
0
70
32
0
SEQEND
8
0
0
POLYLINE
8
0
62
5
66
1
10
0
20
0
30
0
70
8
0
VERTEX
8
0
62
5
10
0.086136911
20
1.1298003
30
0
70
32
0
VERTEX
8
0
62
5
10
0.086136911
20
1.1308497
30
0
70
32
0
SEQEND
8
0
0
POLYLINE
8
0
62
5
66
1
10
0
20
0
30
0
70
8
0
VERTEX
8
0
62
5
10
0.12856332
20
1.1298003
30
0
70
32
0
VERTEX
8
0
62
5
10
0.12856332
20
1.1522991
30
0
70
32
0
SEQEND
8
0
0
POLYLINE
8
0
62
5
66
1
10
0
20
0
30
0
70
8
0
VERTEX
8
0
62
5
10
0.17098972
20
1.1298003
30
0
70
32
0
VERTEX
8
0
62
5
10
0.17098972
20
1.1621041
30
0
70
32
0
SEQEND
8
0
0
POLYLINE
8
0
62
5
66
1
10
0
20
0
30
0
70
8
0
VERTEX
8
0
62
5
10
0.086136911
20
1.0974965
30
0
70
32
0
VERTEX
8
0
62
5
10
0.086136911
20
1.1298003
30
0
70
32
0
SEQEND
8
0
0
POLYLINE
8
0
62
5
66
1
10
0
20
0
30
0
70
8
0
VERTEX
8
0
62
5
10
0.12856332
20
1.0974965
30
0
70
32
0
VERTEX
8
0
62
5
10
0.12856332
20
1.1298003
30
0
70
32
0
SEQEND
8
0
0
POLYLINE
8
0
62
5
66
1
10
0
20
0
30
0
70
8
0
VERTEX
8
0
62
5
10
0.17098972
20
1.0974965
30
0
70
32
0
VERTEX
8
0
62
5
10
0.17098972
20
1.1298003
30
0
70
32
0
SEQEND
8
0
0
POLYLINE
8
0
62
5
66
1
10
0
20
0
30
0
70
8
0
VERTEX
8
0
62
5
10
0.086136911
20
1.1621041
30
0
70
32
0
VERTEX
8
0
62
5
10
0.086136911
20
1.1944079
30
0
70
32
0
SEQEND
8
0
0
POLYLINE
8
0
62
5
66
1
10
0
20
0
30
0
70
8
0
VERTEX
8
0
62
5
10
0.12856332
20
1.1621041
30
0
70
32
0
VERTEX
8
0
62
5
10
0.12856332
20
1.1944079
30
0
70
32
0
SEQEND
8
0
0
POLYLINE
8
0
62
5
66
1
10
0
20
0
30
0
70
8
0
VERTEX
8
0
62
5
10
0.17098972
20
1.1621041
30
0
70
32
0
VERTEX
8
0
62
5
10
0.17098972
20
1.1944079
30
0
70
32
0
SEQEND
8
0
0
POLYLINE
8
0
62
5
66
1
10
0
20
0
30
0
70
8
0
VERTEX
8
0
62
5
10
0.38312176
20
1.1944079
30
0
70
32
0
VERTEX
8
0
62
5
10
0.38312176
20
1.0651927
30
0
70
32
0
SEQEND
8
0
0
POLYLINE
8
0
62
5
66
1
10
0
20
0
30
0
70
8
0
VERTEX
8
0
62
5
10
0.21341613
20
1.0760471
30
0
70
32
0
VERTEX
8
0
62
5
10
0.25584254
20
1.0662421
30
0
70
32
0
VERTEX
8
0
62
5
10
0.29826895
20
1.0876915
30
0
70
32
0
VERTEX
8
0
62
5
10
0.34069535
20
1.0974965
30
0
70
32
0
VERTEX
8
0
62
5
10
0.38312176
20
1.0760471
30
0
70
32
0
SEQEND
8
0
0
POLYLINE
8
0
62
5
66
1
10
0
20
0
30
0
70
8
0
VERTEX
8
0
62
5
10
0.21341613
20
1.1406547
30
0
70
32
0
VERTEX
8
0
62
5
10
0.25584254
20
1.1308497
30
0
70
32
0
VERTEX
8
0
62
5
10
0.29826895
20
1.1522991
30
0
70
32
0
VERTEX
8
0
62
5
10
0.34069535
20
1.1621041
30
0
70
32
0
VERTEX
8
0
62
5
10
0.38312176
20
1.1406547
30
0
70
32
0
SEQEND
8
0
0
POLYLINE
8
0
62
5
66
1
10
0
20
0
30
0
70
8
0
VERTEX
8
0
62
5
10
0.21341613
20
1.118946
30
0
70
32
0
VERTEX
8
0
62
5
10
0.25584254
20
1.128751
30
0
70
32
0
VERTEX
8
0
62
5
10
0.29826895
20
1.1073015
30
0
70
32
0
VERTEX
8
0
62
5
10
0.34069535
20
1.0974965
30
0
70
32
0
VERTEX
8
0
62
5
10
0.38312176
20
1.118946
30
0
70
32
0
SEQEND
8
0
0
POLYLINE
8
0
62
5
66
1
10
0
20
0
30
0
70
8
0
VERTEX
8
0
62
5
10
0.21341613
20
1.1835536
30
0
70
32
0
VERTEX
8
0
62
5
10
0.25584254
20
1.1933586
30
0
70
32
0
VERTEX
8
0
62
5
10
0.29826895
20
1.1719091
30
0
70
32
0
VERTEX
8
0
62
5
10
0.34069535
20
1.1621041
30
0
70
32
0
VERTEX
8
0
62
5
10
0.38312176
20
1.1835536
30
0
70
32
0
SEQEND
8
0
0
POLYLINE
8
0
62
30
66
1
10
0
20
0
30
0
70
8
0
VERTEX
8
0
62
30
10
0.21341613
20
1.1621041
30
0
70
32
0
VERTEX
8
0
62
30
10
0.38312176
20
1.1621041
30
0
70
32
0
SEQEND
8
0
0
POLYLINE
8
0
62
30
66
1
10
0
20
0
30
0
70
8
0
VERTEX
8
0
62
30
10
0.25584254
20
1.0662421
30
0
70
32
0
VERTEX
8
0
62
30
10
0.25584254
20
1.0974965
30
0
70
32
0
SEQEND
8
0
0
POLYLINE
8
0
62
30
66
1
10
0
20
0
30
0
70
8
0
VERTEX
8
0
62
30
10
0.29826895
20
1.0876915
30
0
70
32
0
VERTEX
8
0
62
30
10
0.29826895
20
1.0974965
30
0
70
32
0
SEQEND
8
0
0
POLYLINE
8
0
62
30
66
1
10
0
20
0
30
0
70
8
0
VERTEX
8
0
62
30
10
0.34069535
20
1.0974965
30
0
70
32
0
VERTEX
8
0
62
30
10
0.34069535
20
1.0974965
30
0
70
32
0
SEQEND
8
0
0
POLYLINE
8
0
62
30
66
1
10
0
20
0
30
0
70
8
0
VERTEX
8
0
62
30
10
0.25584254
20
1.1308497
30
0
70
32
0
VERTEX
8
0
62
30
10
0.25584254
20
1.1621041
30
0
70
32
0
SEQEND
8
0
0
POLYLINE
8
0
62
30
66
1
10
0
20
0
30
0
70
8
0
VERTEX
8
0
62
30
10
0.25584254
20
1.1621041
30
0
70
32
0
VERTEX
8
0
62
30
10
0.29826895
20
1.1522991
30
0
70
32
0
SEQEND
8
0
0
POLYLINE
8
0
62
30
66
1
10
0
20
0
30
0
70
8
0
VERTEX
8
0
62
30
10
0.29826895
20
1.1522991
30
0
70
32
0
VERTEX
8
0
62
30
10
0.29826895
20
1.1621041
30
0
70
32
0
SEQEND
8
0
0
POLYLINE
8
0
62
30
66
1
10
0
20
0
30
0
70
8
0
VERTEX
8
0
62
30
10
0.29826895
20
1.1621041
30
0
70
32
0
VERTEX
8
0
62
30
10
0.34069535
20
1.1621041
30
0
70
32
0
SEQEND
8
0
0
POLYLINE
8
0
62
30
66
1
10
0
20
0
30
0
70
8
0
VERTEX
8
0
62
30
10
0.34069535
20
1.1621041
30
0
70
32
0
VERTEX
8
0
62
30
10
0.34069535
20
1.1621041
30
0
70
32
0
SEQEND
8
0
0
POLYLINE
8
0
62
5
66
1
10
0
20
0
30
0
70
8
0
VERTEX
8
0
62
5
10
0.25584254
20
1.0651927
30
0
70
32
0
VERTEX
8
0
62
5
10
0.25584254
20
1.0662421
30
0
70
32
0
SEQEND
8
0
0
POLYLINE
8
0
62
5
66
1
10
0
20
0
30
0
70
8
0
VERTEX
8
0
62
5
10
0.29826895
20
1.0651927
30
0
70
32
0
VERTEX
8
0
62
5
10
0.29826895
20
1.0876915
30
0
70
32
0
SEQEND
8
0
0
POLYLINE
8
0
62
5
66
1
10
0
20
0
30
0
70
8
0
VERTEX
8
0
62
5
10
0.34069535
20
1.0651927
30
0
70
32
0
VERTEX
8
0
62
5
10
0.34069535
20
1.0974965
30
0
70
32
0
SEQEND
8
0
0
POLYLINE
8
0
62
5
66
1
10
0
20
0
30
0
70
8
0
VERTEX
8
0
62
5
10
0.25584254
20
1.1298003
30
0
70
32
0
VERTEX
8
0
62
5
10
0.25584254
20
1.1308497
30
0
70
32
0
SEQEND
8
0
0
POLYLINE
8
0
62
5
66
1
10
0
20
0
30
0
70
8
0
VERTEX
8
0
62
5
10
0.29826895
20
1.1298003
30
0
70
32
0
VERTEX
8
0
62
5
10
0.29826895
20
1.1522991
30
0
70
32
0
SEQEND
8
0
0
POLYLINE
8
0
62
5
66
1
10
0
20
0
30
0
70
8
0
VERTEX
8
0
62
5
10
0.34069535
20
1.1298003
30
0
70
32
0
VERTEX
8
0
62
5
10
0.34069535
20
1.1621041
30
0
70
32
0
SEQEND
8
0
0
POLYLINE
8
0
62
5
66
1
10
0
20
0
30
0
70
8
0
VERTEX
8
0
62
5
10
0.25584254
20
1.0974965
30
0
70
32
0
VERTEX
8
0
62
5
10
0.25584254
20
1.1298003
30
0
70
32
0
SEQEND
8
0
0
POLYLINE
8
0
62
5
66
1
10
0
20
0
30
0
70
8
0
VERTEX
8
0
62
5
10
0.29826895
20
1.0974965
30
0
70
32
0
VERTEX
8
0
62
5
10
0.29826895
20
1.1298003
30
0
70
32
0
SEQEND
8
0
0
POLYLINE
8
0
62
5
66
1
10
0
20
0
30
0
70
8
0
VERTEX
8
0
62
5
10
0.34069535
20
1.0974965
30
0
70
32
0
VERTEX
8
0
62
5
10
0.34069535
20
1.1298003
30
0
70
32
0
SEQEND
8
0
0
POLYLINE
8
0
62
5
66
1
10
0
20
0
30
0
70
8
0
VERTEX
8
0
62
5
10
0.25584254
20
1.1621041
30
0
70
32
0
VERTEX
8
0
62
5
10
0.25584254
20
1.1944079
30
0
70
32
0
SEQEND
8
0
0
POLYLINE
8
0
62
5
66
1
10
0
20
0
30
0
70
8
0
VERTEX
8
0
62
5
10
0.29826895
20
1.1621041
30
0
70
32
0
VERTEX
8
0
62
5
10
0.29826895
20
1.1944079
30
0
70
32
0
SEQEND
8
0
0
POLYLINE
8
0
62
5
66
1
10
0
20
0
30
0
70
8
0
VERTEX
8
0
62
5
10
0.34069535
20
1.1621041
30
0
70
32
0
VERTEX
8
0
62
5
10
0.34069535
20
1.1944079
30
0
70
32
0
SEQEND
8
0
0
POLYLINE
8
0
62
5
66
1
10
0
20
0
30
0
70
8
0
VERTEX
8
0
62
5
10
-0.12599512
20
1.0651927
30
0
70
32
0
VERTEX
8
0
62
5
10
-0.12599512
20
1.1944079
30
0
70
32
0
SEQEND
8
0
0
POLYLINE
8
0
62
5
66
1
10
0
20
0
30
0
70
8
0
VERTEX
8
0
62
5
10
-0.12599512
20
1.0760471
30
0
70
32
0
VERTEX
8
0
62
5
10
-0.083568716
20
1.0662421
30
0
70
32
0
VERTEX
8
0
62
5
10
-0.041142309
20
1.0876915
30
0
70
32
0
VERTEX
8
0
62
5
10
0.0012840974
20
1.0974965
30
0
70
32
0
VERTEX
8
0
62
5
10
0.043710504
20
1.0760471
30
0
70
32
0
SEQEND
8
0
0
POLYLINE
8
0
62
5
66
1
10
0
20
0
30
0
70
8
0
VERTEX
8
0
62
5
10
-0.12599512
20
1.1406547
30
0
70
32
0
VERTEX
8
0
62
5
10
-0.083568716
20
1.1308497
30
0
70
32
0
VERTEX
8
0
62
5
10
-0.041142309
20
1.1522991
30
0
70
32
0
VERTEX
8
0
62
5
10
0.0012840974
20
1.1621041
30
0
70
32
0
VERTEX
8
0
62
5
10
0.043710504
20
1.1406547
30
0
70
32
0
SEQEND
8
0
0
POLYLINE
8
0
62
5
66
1
10
0
20
0
30
0
70
8
0
VERTEX
8
0
62
5
10
-0.12599512
20
1.118946
30
0
70
32
0
VERTEX
8
0
62
5
10
-0.083568716
20
1.128751
30
0
70
32
0
VERTEX
8
0
62
5
10
-0.041142309
20
1.1073015
30
0
70
32
0
VERTEX
8
0
62
5
10
0.0012840974
20
1.0974965
30
0
70
32
0
VERTEX
8
0
62
5
10
0.043710504
20
1.118946
30
0
70
32
0
SEQEND
8
0
0
POLYLINE
8
0
62
5
66
1
10
0
20
0
30
0
70
8
0
VERTEX
8
0
62
5
10
-0.12599512
20
1.1835536
30
0
70
32
0
VERTEX
8
0
62
5
10
-0.083568716
20
1.1933586
30
0
70
32
0
VERTEX
8
0
62
5
10
-0.041142309
20
1.1719091
30
0
70
32
0
VERTEX
8
0
62
5
10
0.0012840974
20
1.1621041
30
0
70
32
0
VERTEX
8
0
62
5
10
0.043710504
20
1.1835536
30
0
70
32
0
SEQEND
8
0
0
POLYLINE
8
0
62
30
66
1
10
0
20
0
30
0
70
8
0
VERTEX
8
0
62
30
10
-0.12599512
20
1.1621041
30
0
70
32
0
VERTEX
8
0
62
30
10
0.043710504
20
1.1621041
30
0
70
32
0
SEQEND
8
0
0
POLYLINE
8
0
62
30
66
1
10
0
20
0
30
0
70
8
0
VERTEX
8
0
62
30
10
-0.083568716
20
1.0662421
30
0
70
32
0
VERTEX
8
0
62
30
10
-0.083568716
20
1.0974965
30
0
70
32
0
SEQEND
8
0
0
POLYLINE
8
0
62
30
66
1
10
0
20
0
30
0
70
8
0
VERTEX
8
0
62
30
10
-0.041142309
20
1.0876915
30
0
70
32
0
VERTEX
8
0
62
30
10
-0.041142309
20
1.0974965
30
0
70
32
0
SEQEND
8
0
0
POLYLINE
8
0
62
30
66
1
10
0
20
0
30
0
70
8
0
VERTEX
8
0
62
30
10
0.0012840974
20
1.0974965
30
0
70
32
0
VERTEX
8
0
62
30
10
0.0012840974
20
1.0974965
30
0
70
32
0
SEQEND
8
0
0
POLYLINE
8
0
62
30
66
1
10
0
20
0
30
0
70
8
0
VERTEX
8
0
62
30
10
-0.083568716
20
1.1308497
30
0
70
32
0
VERTEX
8
0
62
30
10
-0.083568716
20
1.1621041
30
0
70
32
0
SEQEND
8
0
0
POLYLINE
8
0
62
30
66
1
10
0
20
0
30
0
70
8
0
VERTEX
8
0
62
30
10
-0.083568716
20
1.1621041
30
0
70
32
0
VERTEX
8
0
62
30
10
-0.041142309
20
1.1522991
30
0
70
32
0
SEQEND
8
0
0
POLYLINE
8
0
62
30
66
1
10
0
20
0
30
0
70
8
0
VERTEX
8
0
62
30
10
-0.041142309
20
1.1522991
30
0
70
32
0
VERTEX
8
0
62
30
10
-0.041142309
20
1.1621041
30
0
70
32
0
SEQEND
8
0
0
POLYLINE
8
0
62
30
66
1
10
0
20
0
30
0
70
8
0
VERTEX
8
0
62
30
10
-0.041142309
20
1.1621041
30
0
70
32
0
VERTEX
8
0
62
30
10
0.0012840974
20
1.1621041
30
0
70
32
0
SEQEND
8
0
0
POLYLINE
8
0
62
30
66
1
10
0
20
0
30
0
70
8
0
VERTEX
8
0
62
30
10
0.0012840974
20
1.1621041
30
0
70
32
0
VERTEX
8
0
62
30
10
0.0012840974
20
1.1621041
30
0
70
32
0
SEQEND
8
0
0
POLYLINE
8
0
62
5
66
1
10
0
20
0
30
0
70
8
0
VERTEX
8
0
62
5
10
-0.083568716
20
1.0651927
30
0
70
32
0
VERTEX
8
0
62
5
10
-0.083568716
20
1.0662421
30
0
70
32
0
SEQEND
8
0
0
POLYLINE
8
0
62
5
66
1
10
0
20
0
30
0
70
8
0
VERTEX
8
0
62
5
10
-0.041142309
20
1.0651927
30
0
70
32
0
VERTEX
8
0
62
5
10
-0.041142309
20
1.0876915
30
0
70
32
0
SEQEND
8
0
0
POLYLINE
8
0
62
5
66
1
10
0
20
0
30
0
70
8
0
VERTEX
8
0
62
5
10
0.0012840974
20
1.0651927
30
0
70
32
0
VERTEX
8
0
62
5
10
0.0012840974
20
1.0974965
30
0
70
32
0
SEQEND
8
0
0
POLYLINE
8
0
62
5
66
1
10
0
20
0
30
0
70
8
0
VERTEX
8
0
62
5
10
-0.083568716
20
1.1298003
30
0
70
32
0
VERTEX
8
0
62
5
10
-0.083568716
20
1.1308497
30
0
70
32
0
SEQEND
8
0
0
POLYLINE
8
0
62
5
66
1
10
0
20
0
30
0
70
8
0
VERTEX
8
0
62
5
10
-0.041142309
20
1.1298003
30
0
70
32
0
VERTEX
8
0
62
5
10
-0.041142309
20
1.1522991
30
0
70
32
0
SEQEND
8
0
0
POLYLINE
8
0
62
5
66
1
10
0
20
0
30
0
70
8
0
VERTEX
8
0
62
5
10
0.0012840974
20
1.1298003
30
0
70
32
0
VERTEX
8
0
62
5
10
0.0012840974
20
1.1621041
30
0
70
32
0
SEQEND
8
0
0
POLYLINE
8
0
62
5
66
1
10
0
20
0
30
0
70
8
0
VERTEX
8
0
62
5
10
-0.083568716
20
1.0974965
30
0
70
32
0
VERTEX
8
0
62
5
10
-0.083568716
20
1.1298003
30
0
70
32
0
SEQEND
8
0
0
POLYLINE
8
0
62
5
66
1
10
0
20
0
30
0
70
8
0
VERTEX
8
0
62
5
10
-0.041142309
20
1.0974965
30
0
70
32
0
VERTEX
8
0
62
5
10
-0.041142309
20
1.1298003
30
0
70
32
0
SEQEND
8
0
0
POLYLINE
8
0
62
5
66
1
10
0
20
0
30
0
70
8
0
VERTEX
8
0
62
5
10
0.0012840974
20
1.0974965
30
0
70
32
0
VERTEX
8
0
62
5
10
0.0012840974
20
1.1298003
30
0
70
32
0
SEQEND
8
0
0
POLYLINE
8
0
62
5
66
1
10
0
20
0
30
0
70
8
0
VERTEX
8
0
62
5
10
-0.083568716
20
1.1621041
30
0
70
32
0
VERTEX
8
0
62
5
10
-0.083568716
20
1.1944079
30
0
70
32
0
SEQEND
8
0
0
POLYLINE
8
0
62
5
66
1
10
0
20
0
30
0
70
8
0
VERTEX
8
0
62
5
10
-0.041142309
20
1.1621041
30
0
70
32
0
VERTEX
8
0
62
5
10
-0.041142309
20
1.1944079
30
0
70
32
0
SEQEND
8
0
0
POLYLINE
8
0
62
5
66
1
10
0
20
0
30
0
70
8
0
VERTEX
8
0
62
5
10
0.0012840974
20
1.1621041
30
0
70
32
0
VERTEX
8
0
62
5
10
0.0012840974
20
1.1944079
30
0
70
32
0
SEQEND
8
0
0
POLYLINE
8
0
62
30
66
1
10
0
20
0
30
0
70
8
0
VERTEX
8
0
62
30
10
0.043710504
20
1.2122774
30
0
70
32
0
VERTEX
8
0
62
30
10
0.21341613
20
1.2122774
30
0
70
32
0
SEQEND
8
0
0
POLYLINE
8
0
62
30
66
1
10
0
20
0
30
0
70
8
0
VERTEX
8
0
62
30
10
0.043710504
20
1.1944079
30
0
70
32
0
VERTEX
8
0
62
30
10
0.21341613
20
1.1944079
30
0
70
32
0
SEQEND
8
0
0
POLYLINE
8
0
62
5
66
1
10
0
20
0
30
0
70
8
0
VERTEX
8
0
62
5
10
0.043710504
20
1.1944079
30
0
70
32
0
VERTEX
8
0
62
5
10
0.046665433
20
1.2122774
30
0
70
32
0
VERTEX
8
0
62
5
10
0.086136911
20
1.1944079
30
0
70
32
0
VERTEX
8
0
62
5
10
0.08909184
20
1.2122774
30
0
70
32
0
VERTEX
8
0
62
5
10
0.12856332
20
1.1944079
30
0
70
32
0
VERTEX
8
0
62
5
10
0.13151825
20
1.2122774
30
0
70
32
0
VERTEX
8
0
62
5
10
0.17098972
20
1.1944079
30
0
70
32
0
VERTEX
8
0
62
5
10
0.17394465
20
1.2122774
30
0
70
32
0
VERTEX
8
0
62
5
10
0.21341613
20
1.1944079
30
0
70
32
0
SEQEND
8
0
0
POLYLINE
8
0
62
5
66
1
10
0
20
0
30
0
70
8
0
VERTEX
8
0
62
5
10
0.086136911
20
1.1944079
30
0
70
32
0
VERTEX
8
0
62
5
10
0.086136911
20
1.1944079
30
0
70
32
0
SEQEND
8
0
0
POLYLINE
8
0
62
5
66
1
10
0
20
0
30
0
70
8
0
VERTEX
8
0
62
5
10
0.12856332
20
1.1944079
30
0
70
32
0
VERTEX
8
0
62
5
10
0.12856332
20
1.1944079
30
0
70
32
0
SEQEND
8
0
0
POLYLINE
8
0
62
5
66
1
10
0
20
0
30
0
70
8
0
VERTEX
8
0
62
5
10
0.17098972
20
1.1944079
30
0
70
32
0
VERTEX
8
0
62
5
10
0.17098972
20
1.1944079
30
0
70
32
0
SEQEND
8
0
0
POLYLINE
8
0
62
5
66
1
10
0
20
0
30
0
70
8
0
VERTEX
8
0
62
5
10
0.046665433
20
1.2122774
30
0
70
32
0
VERTEX
8
0
62
5
10
0.046665433
20
1.2122774
30
0
70
32
0
SEQEND
8
0
0
POLYLINE
8
0
62
5
66
1
10
0
20
0
30
0
70
8
0
VERTEX
8
0
62
5
10
0.08909184
20
1.2122774
30
0
70
32
0
VERTEX
8
0
62
5
10
0.08909184
20
1.2122774
30
0
70
32
0
SEQEND
8
0
0
POLYLINE
8
0
62
5
66
1
10
0
20
0
30
0
70
8
0
VERTEX
8
0
62
5
10
0.13151825
20
1.2122774
30
0
70
32
0
VERTEX
8
0
62
5
10
0.13151825
20
1.2122774
30
0
70
32
0
SEQEND
8
0
0
POLYLINE
8
0
62
5
66
1
10
0
20
0
30
0
70
8
0
VERTEX
8
0
62
5
10
0.17394465
20
1.2122774
30
0
70
32
0
VERTEX
8
0
62
5
10
0.17394465
20
1.2122774
30
0
70
32
0
SEQEND
8
0
0
POLYLINE
8
0
62
30
66
1
10
0
20
0
30
0
70
8
0
VERTEX
8
0
62
30
10
0.21341613
20
1.2122774
30
0
70
32
0
VERTEX
8
0
62
30
10
0.38312176
20
1.2122774
30
0
70
32
0
SEQEND
8
0
0
POLYLINE
8
0
62
30
66
1
10
0
20
0
30
0
70
8
0
VERTEX
8
0
62
30
10
0.21341613
20
1.1944079
30
0
70
32
0
VERTEX
8
0
62
30
10
0.38312176
20
1.1944079
30
0
70
32
0
SEQEND
8
0
0
POLYLINE
8
0
62
5
66
1
10
0
20
0
30
0
70
8
0
VERTEX
8
0
62
5
10
0.21341613
20
1.1944079
30
0
70
32
0
VERTEX
8
0
62
5
10
0.21637106
20
1.2122774
30
0
70
32
0
VERTEX
8
0
62
5
10
0.25584254
20
1.1944079
30
0
70
32
0
VERTEX
8
0
62
5
10
0.25879747
20
1.2122774
30
0
70
32
0
VERTEX
8
0
62
5
10
0.29826895
20
1.1944079
30
0
70
32
0
VERTEX
8
0
62
5
10
0.30122387
20
1.2122774
30
0
70
32
0
VERTEX
8
0
62
5
10
0.34069535
20
1.1944079
30
0
70
32
0
VERTEX
8
0
62
5
10
0.34365028
20
1.2122774
30
0
70
32
0
VERTEX
8
0
62
5
10
0.38312176
20
1.1944079
30
0
70
32
0
SEQEND
8
0
0
POLYLINE
8
0
62
5
66
1
10
0
20
0
30
0
70
8
0
VERTEX
8
0
62
5
10
0.25584254
20
1.1944079
30
0
70
32
0
VERTEX
8
0
62
5
10
0.25584254
20
1.1944079
30
0
70
32
0
SEQEND
8
0
0
POLYLINE
8
0
62
5
66
1
10
0
20
0
30
0
70
8
0
VERTEX
8
0
62
5
10
0.29826895
20
1.1944079
30
0
70
32
0
VERTEX
8
0
62
5
10
0.29826895
20
1.1944079
30
0
70
32
0
SEQEND
8
0
0
POLYLINE
8
0
62
5
66
1
10
0
20
0
30
0
70
8
0
VERTEX
8
0
62
5
10
0.34069535
20
1.1944079
30
0
70
32
0
VERTEX
8
0
62
5
10
0.34069535
20
1.1944079
30
0
70
32
0
SEQEND
8
0
0
POLYLINE
8
0
62
5
66
1
10
0
20
0
30
0
70
8
0
VERTEX
8
0
62
5
10
0.21637106
20
1.2122774
30
0
70
32
0
VERTEX
8
0
62
5
10
0.21637106
20
1.2122774
30
0
70
32
0
SEQEND
8
0
0
POLYLINE
8
0
62
5
66
1
10
0
20
0
30
0
70
8
0
VERTEX
8
0
62
5
10
0.25879747
20
1.2122774
30
0
70
32
0
VERTEX
8
0
62
5
10
0.25879747
20
1.2122774
30
0
70
32
0
SEQEND
8
0
0
POLYLINE
8
0
62
5
66
1
10
0
20
0
30
0
70
8
0
VERTEX
8
0
62
5
10
0.30122387
20
1.2122774
30
0
70
32
0
VERTEX
8
0
62
5
10
0.30122387
20
1.2122774
30
0
70
32
0
SEQEND
8
0
0
POLYLINE
8
0
62
5
66
1
10
0
20
0
30
0
70
8
0
VERTEX
8
0
62
5
10
0.34365028
20
1.2122774
30
0
70
32
0
VERTEX
8
0
62
5
10
0.34365028
20
1.2122774
30
0
70
32
0
SEQEND
8
0
0
POLYLINE
8
0
62
30
66
1
10
0
20
0
30
0
70
8
0
VERTEX
8
0
62
30
10
-0.12599512
20
1.2122774
30
0
70
32
0
VERTEX
8
0
62
30
10
0.043710504
20
1.2122774
30
0
70
32
0
SEQEND
8
0
0
POLYLINE
8
0
62
30
66
1
10
0
20
0
30
0
70
8
0
VERTEX
8
0
62
30
10
-0.12599512
20
1.1944079
30
0
70
32
0
VERTEX
8
0
62
30
10
0.043710504
20
1.1944079
30
0
70
32
0
SEQEND
8
0
0
POLYLINE
8
0
62
5
66
1
10
0
20
0
30
0
70
8
0
VERTEX
8
0
62
5
10
-0.12599512
20
1.1944079
30
0
70
32
0
VERTEX
8
0
62
5
10
-0.12304019
20
1.2122774
30
0
70
32
0
VERTEX
8
0
62
5
10
-0.083568716
20
1.1944079
30
0
70
32
0
VERTEX
8
0
62
5
10
-0.080613787
20
1.2122774
30
0
70
32
0
VERTEX
8
0
62
5
10
-0.041142309
20
1.1944079
30
0
70
32
0
VERTEX
8
0
62
5
10
-0.03818738
20
1.2122774
30
0
70
32
0
VERTEX
8
0
62
5
10
0.0012840974
20
1.1944079
30
0
70
32
0
VERTEX
8
0
62
5
10
0.0042390265
20
1.2122774
30
0
70
32
0
VERTEX
8
0
62
5
10
0.043710504
20
1.1944079
30
0
70
32
0
SEQEND
8
0
0
POLYLINE
8
0
62
5
66
1
10
0
20
0
30
0
70
8
0
VERTEX
8
0
62
5
10
-0.083568716
20
1.1944079
30
0
70
32
0
VERTEX
8
0
62
5
10
-0.083568716
20
1.1944079
30
0
70
32
0
SEQEND
8
0
0
POLYLINE
8
0
62
5
66
1
10
0
20
0
30
0
70
8
0
VERTEX
8
0
62
5
10
-0.041142309
20
1.1944079
30
0
70
32
0
VERTEX
8
0
62
5
10
-0.041142309
20
1.1944079
30
0
70
32
0
SEQEND
8
0
0
POLYLINE
8
0
62
5
66
1
10
0
20
0
30
0
70
8
0
VERTEX
8
0
62
5
10
0.0012840974
20
1.1944079
30
0
70
32
0
VERTEX
8
0
62
5
10
0.0012840974
20
1.1944079
30
0
70
32
0
SEQEND
8
0
0
POLYLINE
8
0
62
5
66
1
10
0
20
0
30
0
70
8
0
VERTEX
8
0
62
5
10
-0.12304019
20
1.2122774
30
0
70
32
0
VERTEX
8
0
62
5
10
-0.12304019
20
1.2122774
30
0
70
32
0
SEQEND
8
0
0
POLYLINE
8
0
62
5
66
1
10
0
20
0
30
0
70
8
0
VERTEX
8
0
62
5
10
-0.080613787
20
1.2122774
30
0
70
32
0
VERTEX
8
0
62
5
10
-0.080613787
20
1.2122774
30
0
70
32
0
SEQEND
8
0
0
POLYLINE
8
0
62
5
66
1
10
0
20
0
30
0
70
8
0
VERTEX
8
0
62
5
10
-0.03818738
20
1.2122774
30
0
70
32
0
VERTEX
8
0
62
5
10
-0.03818738
20
1.2122774
30
0
70
32
0
SEQEND
8
0
0
POLYLINE
8
0
62
5
66
1
10
0
20
0
30
0
70
8
0
VERTEX
8
0
62
5
10
0.0042390265
20
1.2122774
30
0
70
32
0
VERTEX
8
0
62
5
10
0.0042390265
20
1.2122774
30
0
70
32
0
SEQEND
8
0
0
POLYLINE
8
0
62
5
66
1
10
0
20
0
30
0
70
8
0
VERTEX
8
0
62
5
10
0.0042390265
20
1.2122774
30
0
70
32
0
VERTEX
8
0
62
5
10
0.0042390265
20
1.2830001
30
0
70
32
0
SEQEND
8
0
0
POLYLINE
8
0
62
5
66
1
10
0
20
0
30
0
70
8
0
VERTEX
8
0
62
5
10
0.17394465
20
1.2122774
30
0
70
32
0
VERTEX
8
0
62
5
10
0.17394465
20
1.2830001
30
0
70
32
0
SEQEND
8
0
0
POLYLINE
8
0
62
5
66
1
10
0
20
0
30
0
70
8
0
VERTEX
8
0
62
5
10
0.046665433
20
1.2122774
30
0
70
32
0
VERTEX
8
0
62
5
10
0.046665433
20
1.2830001
30
0
70
32
0
SEQEND
8
0
0
POLYLINE
8
0
62
5
66
1
10
0
20
0
30
0
70
8
0
VERTEX
8
0
62
5
10
0.08909184
20
1.2122774
30
0
70
32
0
VERTEX
8
0
62
5
10
0.08909184
20
1.2830001
30
0
70
32
0
SEQEND
8
0
0
POLYLINE
8
0
62
5
66
1
10
0
20
0
30
0
70
8
0
VERTEX
8
0
62
5
10
0.13151825
20
1.2122774
30
0
70
32
0
VERTEX
8
0
62
5
10
0.13151825
20
1.2830001
30
0
70
32
0
SEQEND
8
0
0
POLYLINE
8
0
62
5
66
1
10
0
20
0
30
0
70
8
0
VERTEX
8
0
62
5
10
0.34365028
20
1.2122774
30
0
70
32
0
VERTEX
8
0
62
5
10
0.34365028
20
1.2830001
30
0
70
32
0
SEQEND
8
0
0
POLYLINE
8
0
62
5
66
1
10
0
20
0
30
0
70
8
0
VERTEX
8
0
62
5
10
0.21637106
20
1.2122774
30
0
70
32
0
VERTEX
8
0
62
5
10
0.21637106
20
1.2830001
30
0
70
32
0
SEQEND
8
0
0
POLYLINE
8
0
62
5
66
1
10
0
20
0
30
0
70
8
0
VERTEX
8
0
62
5
10
0.25879747
20
1.2122774
30
0
70
32
0
VERTEX
8
0
62
5
10
0.25879747
20
1.2830001
30
0
70
32
0
SEQEND
8
0
0
POLYLINE
8
0
62
5
66
1
10
0
20
0
30
0
70
8
0
VERTEX
8
0
62
5
10
0.30122387
20
1.2122774
30
0
70
32
0
VERTEX
8
0
62
5
10
0.30122387
20
1.2830001
30
0
70
32
0
SEQEND
8
0
0
POLYLINE
8
0
62
5
66
1
10
0
20
0
30
0
70
8
0
VERTEX
8
0
62
5
10
-0.1654666
20
1.2122774
30
0
70
32
0
VERTEX
8
0
62
5
10
-0.1654666
20
1.2830001
30
0
70
32
0
SEQEND
8
0
0
POLYLINE
8
0
62
5
66
1
10
0
20
0
30
0
70
8
0
VERTEX
8
0
62
5
10
-0.12304019
20
1.2122774
30
0
70
32
0
VERTEX
8
0
62
5
10
-0.12304019
20
1.2830001
30
0
70
32
0
SEQEND
8
0
0
POLYLINE
8
0
62
5
66
1
10
0
20
0
30
0
70
8
0
VERTEX
8
0
62
5
10
-0.080613787
20
1.2122774
30
0
70
32
0
VERTEX
8
0
62
5
10
-0.080613787
20
1.2830001
30
0
70
32
0
SEQEND
8
0
0
POLYLINE
8
0
62
5
66
1
10
0
20
0
30
0
70
8
0
VERTEX
8
0
62
5
10
-0.03818738
20
1.2122774
30
0
70
32
0
VERTEX
8
0
62
5
10
-0.03818738
20
1.2830001
30
0
70
32
0
SEQEND
8
0
0
POLYLINE
8
0
62
5
66
1
10
0
20
0
30
0
70
8
0
VERTEX
8
0
62
5
10
0.0042390265
20
1.2830001
30
0
70
32
0
VERTEX
8
0
62
5
10
0.0042390265
20
1.3624417
30
0
70
32
0
SEQEND
8
0
0
POLYLINE
8
0
62
5
66
1
10
0
20
0
30
0
70
8
0
VERTEX
8
0
62
5
10
0.17394465
20
1.3624417
30
0
70
32
0
VERTEX
8
0
62
5
10
0.17394465
20
1.2830001
30
0
70
32
0
SEQEND
8
0
0
POLYLINE
8
0
62
5
66
1
10
0
20
0
30
0
70
8
0
VERTEX
8
0
62
5
10
0.0042390265
20
1.3090391
30
0
70
32
0
VERTEX
8
0
62
5
10
0.046665433
20
1.3227209
30
0
70
32
0
VERTEX
8
0
62
5
10
0.08909184
20
1.2975175
30
0
70
32
0
VERTEX
8
0
62
5
10
0.13151825
20
1.2838357
30
0
70
32
0
VERTEX
8
0
62
5
10
0.17394465
20
1.3090391
30
0
70
32
0
SEQEND
8
0
0
POLYLINE
8
0
62
5
66
1
10
0
20
0
30
0
70
8
0
SEQEND
8
0
0
POLYLINE
8
0
62
5
66
1
10
0
20
0
30
0
70
8
0
VERTEX
8
0
62
5
10
0.0042390265
20
1.3364027
30
0
70
32
0
VERTEX
8
0
62
5
10
0.046665433
20
1.3227209
30
0
70
32
0
VERTEX
8
0
62
5
10
0.08909184
20
1.3479244
30
0
70
32
0
VERTEX
8
0
62
5
10
0.13151825
20
1.3616062
30
0
70
32
0
VERTEX
8
0
62
5
10
0.17394465
20
1.3364027
30
0
70
32
0
SEQEND
8
0
0
POLYLINE
8
0
62
30
66
1
10
0
20
0
30
0
70
8
0
VERTEX
8
0
62
30
10
0.0042390265
20
1.3227209
30
0
70
32
0
VERTEX
8
0
62
30
10
0.17394465
20
1.3227209
30
0
70
32
0
SEQEND
8
0
0
POLYLINE
8
0
62
30
66
1
10
0
20
0
30
0
70
8
0
VERTEX
8
0
62
30
10
0.046665433
20
1.3227209
30
0
70
32
0
VERTEX
8
0
62
30
10
0.046665433
20
1.3227209
30
0
70
32
0
SEQEND
8
0
0
POLYLINE
8
0
62
30
66
1
10
0
20
0
30
0
70
8
0
VERTEX
8
0
62
30
10
0.08909184
20
1.2975175
30
0
70
32
0
VERTEX
8
0
62
30
10
0.08909184
20
1.3227209
30
0
70
32
0
SEQEND
8
0
0
POLYLINE
8
0
62
30
66
1
10
0
20
0
30
0
70
8
0
VERTEX
8
0
62
30
10
0.13151825
20
1.2838357
30
0
70
32
0
VERTEX
8
0
62
30
10
0.13151825
20
1.3227209
30
0
70
32
0
SEQEND
8
0
0
POLYLINE
8
0
62
5
66
1
10
0
20
0
30
0
70
8
0
VERTEX
8
0
62
5
10
0.046665433
20
1.2830001
30
0
70
32
0
VERTEX
8
0
62
5
10
0.046665433
20
1.3227209
30
0
70
32
0
SEQEND
8
0
0
POLYLINE
8
0
62
5
66
1
10
0
20
0
30
0
70
8
0
VERTEX
8
0
62
5
10
0.08909184
20
1.2830001
30
0
70
32
0
VERTEX
8
0
62
5
10
0.08909184
20
1.2975175
30
0
70
32
0
SEQEND
8
0
0
POLYLINE
8
0
62
5
66
1
10
0
20
0
30
0
70
8
0
VERTEX
8
0
62
5
10
0.13151825
20
1.2830001
30
0
70
32
0
VERTEX
8
0
62
5
10
0.13151825
20
1.2838357
30
0
70
32
0
SEQEND
8
0
0
POLYLINE
8
0
62
5
66
1
10
0
20
0
30
0
70
8
0
VERTEX
8
0
62
5
10
0.046665433
20
1.3227209
30
0
70
32
0
VERTEX
8
0
62
5
10
0.046665433
20
1.3624417
30
0
70
32
0
SEQEND
8
0
0
POLYLINE
8
0
62
5
66
1
10
0
20
0
30
0
70
8
0
VERTEX
8
0
62
5
10
0.08909184
20
1.3227209
30
0
70
32
0
VERTEX
8
0
62
5
10
0.08909184
20
1.3624417
30
0
70
32
0
SEQEND
8
0
0
POLYLINE
8
0
62
5
66
1
10
0
20
0
30
0
70
8
0
VERTEX
8
0
62
5
10
0.13151825
20
1.3227209
30
0
70
32
0
VERTEX
8
0
62
5
10
0.13151825
20
1.3624417
30
0
70
32
0
SEQEND
8
0
0
POLYLINE
8
0
62
5
66
1
10
0
20
0
30
0
70
8
0
VERTEX
8
0
62
5
10
0.34365028
20
1.3624417
30
0
70
32
0
VERTEX
8
0
62
5
10
0.34365028
20
1.2830001
30
0
70
32
0
SEQEND
8
0
0
POLYLINE
8
0
62
5
66
1
10
0
20
0
30
0
70
8
0
VERTEX
8
0
62
5
10
0.17394465
20
1.3090391
30
0
70
32
0
VERTEX
8
0
62
5
10
0.21637106
20
1.3227209
30
0
70
32
0
VERTEX
8
0
62
5
10
0.25879747
20
1.2975175
30
0
70
32
0
VERTEX
8
0
62
5
10
0.30122387
20
1.2838357
30
0
70
32
0
VERTEX
8
0
62
5
10
0.34365028
20
1.3090391
30
0
70
32
0
SEQEND
8
0
0
POLYLINE
8
0
62
5
66
1
10
0
20
0
30
0
70
8
0
SEQEND
8
0
0
POLYLINE
8
0
62
5
66
1
10
0
20
0
30
0
70
8
0
VERTEX
8
0
62
5
10
0.17394465
20
1.3364027
30
0
70
32
0
VERTEX
8
0
62
5
10
0.21637106
20
1.3227209
30
0
70
32
0
VERTEX
8
0
62
5
10
0.25879747
20
1.3479244
30
0
70
32
0
VERTEX
8
0
62
5
10
0.30122387
20
1.3616062
30
0
70
32
0
VERTEX
8
0
62
5
10
0.34365028
20
1.3364027
30
0
70
32
0
SEQEND
8
0
0
POLYLINE
8
0
62
30
66
1
10
0
20
0
30
0
70
8
0
VERTEX
8
0
62
30
10
0.17394465
20
1.3227209
30
0
70
32
0
VERTEX
8
0
62
30
10
0.34365028
20
1.3227209
30
0
70
32
0
SEQEND
8
0
0
POLYLINE
8
0
62
30
66
1
10
0
20
0
30
0
70
8
0
VERTEX
8
0
62
30
10
0.21637106
20
1.3227209
30
0
70
32
0
VERTEX
8
0
62
30
10
0.21637106
20
1.3227209
30
0
70
32
0
SEQEND
8
0
0
POLYLINE
8
0
62
30
66
1
10
0
20
0
30
0
70
8
0
VERTEX
8
0
62
30
10
0.25879747
20
1.2975175
30
0
70
32
0
VERTEX
8
0
62
30
10
0.25879747
20
1.3227209
30
0
70
32
0
SEQEND
8
0
0
POLYLINE
8
0
62
30
66
1
10
0
20
0
30
0
70
8
0
VERTEX
8
0
62
30
10
0.30122387
20
1.2838357
30
0
70
32
0
VERTEX
8
0
62
30
10
0.30122387
20
1.3227209
30
0
70
32
0
SEQEND
8
0
0
POLYLINE
8
0
62
5
66
1
10
0
20
0
30
0
70
8
0
VERTEX
8
0
62
5
10
0.21637106
20
1.2830001
30
0
70
32
0
VERTEX
8
0
62
5
10
0.21637106
20
1.3227209
30
0
70
32
0
SEQEND
8
0
0
POLYLINE
8
0
62
5
66
1
10
0
20
0
30
0
70
8
0
VERTEX
8
0
62
5
10
0.25879747
20
1.2830001
30
0
70
32
0
VERTEX
8
0
62
5
10
0.25879747
20
1.2975175
30
0
70
32
0
SEQEND
8
0
0
POLYLINE
8
0
62
5
66
1
10
0
20
0
30
0
70
8
0
VERTEX
8
0
62
5
10
0.30122387
20
1.2830001
30
0
70
32
0
VERTEX
8
0
62
5
10
0.30122387
20
1.2838357
30
0
70
32
0
SEQEND
8
0
0
POLYLINE
8
0
62
5
66
1
10
0
20
0
30
0
70
8
0
VERTEX
8
0
62
5
10
0.21637106
20
1.3227209
30
0
70
32
0
VERTEX
8
0
62
5
10
0.21637106
20
1.3624417
30
0
70
32
0
SEQEND
8
0
0
POLYLINE
8
0
62
5
66
1
10
0
20
0
30
0
70
8
0
VERTEX
8
0
62
5
10
0.25879747
20
1.3227209
30
0
70
32
0
VERTEX
8
0
62
5
10
0.25879747
20
1.3624417
30
0
70
32
0
SEQEND
8
0
0
POLYLINE
8
0
62
5
66
1
10
0
20
0
30
0
70
8
0
VERTEX
8
0
62
5
10
0.30122387
20
1.3227209
30
0
70
32
0
VERTEX
8
0
62
5
10
0.30122387
20
1.3624417
30
0
70
32
0
SEQEND
8
0
0
POLYLINE
8
0
62
5
66
1
10
0
20
0
30
0
70
8
0
VERTEX
8
0
62
5
10
-0.1654666
20
1.2830001
30
0
70
32
0
VERTEX
8
0
62
5
10
-0.1654666
20
1.3624417
30
0
70
32
0
SEQEND
8
0
0
POLYLINE
8
0
62
5
66
1
10
0
20
0
30
0
70
8
0
VERTEX
8
0
62
5
10
-0.1654666
20
1.3090391
30
0
70
32
0
VERTEX
8
0
62
5
10
-0.12304019
20
1.3227209
30
0
70
32
0
VERTEX
8
0
62
5
10
-0.080613787
20
1.2975175
30
0
70
32
0
VERTEX
8
0
62
5
10
-0.03818738
20
1.2838357
30
0
70
32
0
VERTEX
8
0
62
5
10
0.0042390265
20
1.3090391
30
0
70
32
0
SEQEND
8
0
0
POLYLINE
8
0
62
5
66
1
10
0
20
0
30
0
70
8
0
SEQEND
8
0
0
POLYLINE
8
0
62
5
66
1
10
0
20
0
30
0
70
8
0
VERTEX
8
0
62
5
10
-0.1654666
20
1.3364027
30
0
70
32
0
VERTEX
8
0
62
5
10
-0.12304019
20
1.3227209
30
0
70
32
0
VERTEX
8
0
62
5
10
-0.080613787
20
1.3479244
30
0
70
32
0
VERTEX
8
0
62
5
10
-0.03818738
20
1.3616062
30
0
70
32
0
VERTEX
8
0
62
5
10
0.0042390265
20
1.3364027
30
0
70
32
0
SEQEND
8
0
0
POLYLINE
8
0
62
30
66
1
10
0
20
0
30
0
70
8
0
VERTEX
8
0
62
30
10
-0.1654666
20
1.3227209
30
0
70
32
0
VERTEX
8
0
62
30
10
0.0042390265
20
1.3227209
30
0
70
32
0
SEQEND
8
0
0
POLYLINE
8
0
62
30
66
1
10
0
20
0
30
0
70
8
0
VERTEX
8
0
62
30
10
-0.12304019
20
1.3227209
30
0
70
32
0
VERTEX
8
0
62
30
10
-0.12304019
20
1.3227209
30
0
70
32
0
SEQEND
8
0
0
POLYLINE
8
0
62
30
66
1
10
0
20
0
30
0
70
8
0
VERTEX
8
0
62
30
10
-0.080613787
20
1.2975175
30
0
70
32
0
VERTEX
8
0
62
30
10
-0.080613787
20
1.3227209
30
0
70
32
0
SEQEND
8
0
0
POLYLINE
8
0
62
30
66
1
10
0
20
0
30
0
70
8
0
VERTEX
8
0
62
30
10
-0.03818738
20
1.2838357
30
0
70
32
0
VERTEX
8
0
62
30
10
-0.03818738
20
1.3227209
30
0
70
32
0
SEQEND
8
0
0
POLYLINE
8
0
62
5
66
1
10
0
20
0
30
0
70
8
0
VERTEX
8
0
62
5
10
-0.12304019
20
1.2830001
30
0
70
32
0
VERTEX
8
0
62
5
10
-0.12304019
20
1.3227209
30
0
70
32
0
SEQEND
8
0
0
POLYLINE
8
0
62
5
66
1
10
0
20
0
30
0
70
8
0
VERTEX
8
0
62
5
10
-0.080613787
20
1.2830001
30
0
70
32
0
VERTEX
8
0
62
5
10
-0.080613787
20
1.2975175
30
0
70
32
0
SEQEND
8
0
0
POLYLINE
8
0
62
5
66
1
10
0
20
0
30
0
70
8
0
VERTEX
8
0
62
5
10
-0.03818738
20
1.2830001
30
0
70
32
0
VERTEX
8
0
62
5
10
-0.03818738
20
1.2838357
30
0
70
32
0
SEQEND
8
0
0
POLYLINE
8
0
62
5
66
1
10
0
20
0
30
0
70
8
0
VERTEX
8
0
62
5
10
-0.12304019
20
1.3227209
30
0
70
32
0
VERTEX
8
0
62
5
10
-0.12304019
20
1.3624417
30
0
70
32
0
SEQEND
8
0
0
POLYLINE
8
0
62
5
66
1
10
0
20
0
30
0
70
8
0
VERTEX
8
0
62
5
10
-0.080613787
20
1.3227209
30
0
70
32
0
VERTEX
8
0
62
5
10
-0.080613787
20
1.3624417
30
0
70
32
0
SEQEND
8
0
0
POLYLINE
8
0
62
5
66
1
10
0
20
0
30
0
70
8
0
VERTEX
8
0
62
5
10
-0.03818738
20
1.3227209
30
0
70
32
0
VERTEX
8
0
62
5
10
-0.03818738
20
1.3624417
30
0
70
32
0
SEQEND
8
0
0
POLYLINE
8
0
62
5
66
1
10
0
20
0
30
0
70
8
0
VERTEX
8
0
62
5
10
0.0042390265
20
1.3624417
30
0
70
32
0
VERTEX
8
0
62
5
10
0.0042390265
20
1.4224417
30
0
70
32
0
SEQEND
8
0
0
POLYLINE
8
0
62
5
66
1
10
0
20
0
30
0
70
8
0
VERTEX
8
0
62
5
10
0.17394465
20
1.4224417
30
0
70
32
0
VERTEX
8
0
62
5
10
0.17394465
20
1.3624417
30
0
70
32
0
SEQEND
8
0
0
POLYLINE
8
0
62
5
66
1
10
0
20
0
30
0
70
8
0
VERTEX
8
0
62
5
10
0.0042390265
20
1.3624417
30
0
70
32
0
VERTEX
8
0
62
5
10
0.17394465
20
1.3624417
30
0
70
32
0
SEQEND
8
0
0
POLYLINE
8
0
62
5
66
1
10
0
20
0
30
0
70
8
0
VERTEX
8
0
62
5
10
0.0042390265
20
1.4224417
30
0
70
32
0
VERTEX
8
0
62
5
10
0.17394465
20
1.4224417
30
0
70
32
0
SEQEND
8
0
0
POLYLINE
8
0
62
5
66
1
10
0
20
0
30
0
70
8
0
VERTEX
8
0
62
5
10
0.046665433
20
1.3624417
30
0
70
32
0
VERTEX
8
0
62
5
10
0.046665433
20
1.3624417
30
0
70
32
0
SEQEND
8
0
0
POLYLINE
8
0
62
5
66
1
10
0
20
0
30
0
70
8
0
VERTEX
8
0
62
5
10
0.08909184
20
1.3624417
30
0
70
32
0
VERTEX
8
0
62
5
10
0.08909184
20
1.3624417
30
0
70
32
0
SEQEND
8
0
0
POLYLINE
8
0
62
5
66
1
10
0
20
0
30
0
70
8
0
VERTEX
8
0
62
5
10
0.13151825
20
1.3624417
30
0
70
32
0
VERTEX
8
0
62
5
10
0.13151825
20
1.3624417
30
0
70
32
0
SEQEND
8
0
0
POLYLINE
8
0
62
5
66
1
10
0
20
0
30
0
70
8
0
VERTEX
8
0
62
5
10
0.046665433
20
1.4224417
30
0
70
32
0
VERTEX
8
0
62
5
10
0.046665433
20
1.4224417
30
0
70
32
0
SEQEND
8
0
0
POLYLINE
8
0
62
5
66
1
10
0
20
0
30
0
70
8
0
VERTEX
8
0
62
5
10
0.08909184
20
1.4224417
30
0
70
32
0
VERTEX
8
0
62
5
10
0.08909184
20
1.4224417
30
0
70
32
0
SEQEND
8
0
0
POLYLINE
8
0
62
5
66
1
10
0
20
0
30
0
70
8
0
VERTEX
8
0
62
5
10
0.13151825
20
1.4224417
30
0
70
32
0
VERTEX
8
0
62
5
10
0.13151825
20
1.4224417
30
0
70
32
0
SEQEND
8
0
0
POLYLINE
8
0
62
30
66
1
10
0
20
0
30
0
70
8
0
VERTEX
8
0
62
30
10
0.0042390265
20
1.3624417
30
0
70
32
0
VERTEX
8
0
62
30
10
0.02545223
20
1.3924417
30
0
70
32
0
SEQEND
8
0
0
POLYLINE
8
0
62
30
66
1
10
0
20
0
30
0
70
8
0
VERTEX
8
0
62
30
10
0.02545223
20
1.3924417
30
0
70
32
0
VERTEX
8
0
62
30
10
0.046665433
20
1.3624417
30
0
70
32
0
SEQEND
8
0
0
POLYLINE
8
0
62
30
66
1
10
0
20
0
30
0
70
8
0
VERTEX
8
0
62
30
10
0.08909184
20
1.3624417
30
0
70
32
0
VERTEX
8
0
62
30
10
0.11030504
20
1.3924417
30
0
70
32
0
SEQEND
8
0
0
POLYLINE
8
0
62
30
66
1
10
0
20
0
30
0
70
8
0
VERTEX
8
0
62
30
10
0.11030504
20
1.3924417
30
0
70
32
0
VERTEX
8
0
62
30
10
0.13151825
20
1.3624417
30
0
70
32
0
SEQEND
8
0
0
POLYLINE
8
0
62
30
66
1
10
0
20
0
30
0
70
8
0
VERTEX
8
0
62
30
10
0.046665433
20
1.3924417
30
0
70
32
0
VERTEX
8
0
62
30
10
0.08909184
20
1.3924417
30
0
70
32
0
SEQEND
8
0
0
POLYLINE
8
0
62
30
66
1
10
0
20
0
30
0
70
8
0
VERTEX
8
0
62
30
10
0.13151825
20
1.3924417
30
0
70
32
0
VERTEX
8
0
62
30
10
0.17394465
20
1.3924417
30
0
70
32
0
SEQEND
8
0
0
POLYLINE
8
0
62
5
66
1
10
0
20
0
30
0
70
8
0
VERTEX
8
0
62
5
10
0.0042390265
20
1.3924417
30
0
70
32
0
VERTEX
8
0
62
5
10
0.02545223
20
1.3924417
30
0
70
32
0
SEQEND
8
0
0
POLYLINE
8
0
62
5
66
1
10
0
20
0
30
0
70
8
0
VERTEX
8
0
62
5
10
0.08909184
20
1.3924417
30
0
70
32
0
VERTEX
8
0
62
5
10
0.11030504
20
1.3924417
30
0
70
32
0
SEQEND
8
0
0
POLYLINE
8
0
62
5
66
1
10
0
20
0
30
0
70
8
0
VERTEX
8
0
62
5
10
0.02545223
20
1.3924417
30
0
70
32
0
VERTEX
8
0
62
5
10
0.046665433
20
1.3924417
30
0
70
32
0
SEQEND
8
0
0
POLYLINE
8
0
62
5
66
1
10
0
20
0
30
0
70
8
0
VERTEX
8
0
62
5
10
0.11030504
20
1.3924417
30
0
70
32
0
VERTEX
8
0
62
5
10
0.13151825
20
1.3924417
30
0
70
32
0
SEQEND
8
0
0
POLYLINE
8
0
62
5
66
1
10
0
20
0
30
0
70
8
0
VERTEX
8
0
62
5
10
0.046665433
20
1.3624417
30
0
70
32
0
VERTEX
8
0
62
5
10
0.046665433
20
1.4224417
30
0
70
32
0
SEQEND
8
0
0
POLYLINE
8
0
62
5
66
1
10
0
20
0
30
0
70
8
0
VERTEX
8
0
62
5
10
0.08909184
20
1.3624417
30
0
70
32
0
VERTEX
8
0
62
5
10
0.08909184
20
1.4224417
30
0
70
32
0
SEQEND
8
0
0
POLYLINE
8
0
62
5
66
1
10
0
20
0
30
0
70
8
0
VERTEX
8
0
62
5
10
0.13151825
20
1.3624417
30
0
70
32
0
VERTEX
8
0
62
5
10
0.13151825
20
1.4224417
30
0
70
32
0
SEQEND
8
0
0
POLYLINE
8
0
62
5
66
1
10
0
20
0
30
0
70
8
0
VERTEX
8
0
62
5
10
0.0042390265
20
1.3624417
30
0
70
32
0
VERTEX
8
0
62
5
10
0.0042390265
20
1.4224417
30
0
70
32
0
SEQEND
8
0
0
POLYLINE
8
0
62
5
66
1
10
0
20
0
30
0
70
8
0
VERTEX
8
0
62
5
10
0.34365028
20
1.4224417
30
0
70
32
0
VERTEX
8
0
62
5
10
0.34365028
20
1.3624417
30
0
70
32
0
SEQEND
8
0
0
POLYLINE
8
0
62
5
66
1
10
0
20
0
30
0
70
8
0
VERTEX
8
0
62
5
10
0.17394465
20
1.3624417
30
0
70
32
0
VERTEX
8
0
62
5
10
0.34365028
20
1.3624417
30
0
70
32
0
SEQEND
8
0
0
POLYLINE
8
0
62
5
66
1
10
0
20
0
30
0
70
8
0
VERTEX
8
0
62
5
10
0.17394465
20
1.4224417
30
0
70
32
0
VERTEX
8
0
62
5
10
0.34365028
20
1.4224417
30
0
70
32
0
SEQEND
8
0
0
POLYLINE
8
0
62
5
66
1
10
0
20
0
30
0
70
8
0
VERTEX
8
0
62
5
10
0.21637106
20
1.3624417
30
0
70
32
0
VERTEX
8
0
62
5
10
0.21637106
20
1.3624417
30
0
70
32
0
SEQEND
8
0
0
POLYLINE
8
0
62
5
66
1
10
0
20
0
30
0
70
8
0
VERTEX
8
0
62
5
10
0.25879747
20
1.3624417
30
0
70
32
0
VERTEX
8
0
62
5
10
0.25879747
20
1.3624417
30
0
70
32
0
SEQEND
8
0
0
POLYLINE
8
0
62
5
66
1
10
0
20
0
30
0
70
8
0
VERTEX
8
0
62
5
10
0.30122387
20
1.3624417
30
0
70
32
0
VERTEX
8
0
62
5
10
0.30122387
20
1.3624417
30
0
70
32
0
SEQEND
8
0
0
POLYLINE
8
0
62
5
66
1
10
0
20
0
30
0
70
8
0
VERTEX
8
0
62
5
10
0.21637106
20
1.4224417
30
0
70
32
0
VERTEX
8
0
62
5
10
0.21637106
20
1.4224417
30
0
70
32
0
SEQEND
8
0
0
POLYLINE
8
0
62
5
66
1
10
0
20
0
30
0
70
8
0
VERTEX
8
0
62
5
10
0.25879747
20
1.4224417
30
0
70
32
0
VERTEX
8
0
62
5
10
0.25879747
20
1.4224417
30
0
70
32
0
SEQEND
8
0
0
POLYLINE
8
0
62
5
66
1
10
0
20
0
30
0
70
8
0
VERTEX
8
0
62
5
10
0.30122387
20
1.4224417
30
0
70
32
0
VERTEX
8
0
62
5
10
0.30122387
20
1.4224417
30
0
70
32
0
SEQEND
8
0
0
POLYLINE
8
0
62
30
66
1
10
0
20
0
30
0
70
8
0
VERTEX
8
0
62
30
10
0.17394465
20
1.3624417
30
0
70
32
0
VERTEX
8
0
62
30
10
0.19515786
20
1.3924417
30
0
70
32
0
SEQEND
8
0
0
POLYLINE
8
0
62
30
66
1
10
0
20
0
30
0
70
8
0
VERTEX
8
0
62
30
10
0.19515786
20
1.3924417
30
0
70
32
0
VERTEX
8
0
62
30
10
0.21637106
20
1.3624417
30
0
70
32
0
SEQEND
8
0
0
POLYLINE
8
0
62
30
66
1
10
0
20
0
30
0
70
8
0
VERTEX
8
0
62
30
10
0.25879747
20
1.3624417
30
0
70
32
0
VERTEX
8
0
62
30
10
0.28001067
20
1.3924417
30
0
70
32
0
SEQEND
8
0
0
POLYLINE
8
0
62
30
66
1
10
0
20
0
30
0
70
8
0
VERTEX
8
0
62
30
10
0.28001067
20
1.3924417
30
0
70
32
0
VERTEX
8
0
62
30
10
0.30122387
20
1.3624417
30
0
70
32
0
SEQEND
8
0
0
POLYLINE
8
0
62
30
66
1
10
0
20
0
30
0
70
8
0
VERTEX
8
0
62
30
10
0.21637106
20
1.3924417
30
0
70
32
0
VERTEX
8
0
62
30
10
0.25879747
20
1.3924417
30
0
70
32
0
SEQEND
8
0
0
POLYLINE
8
0
62
30
66
1
10
0
20
0
30
0
70
8
0
VERTEX
8
0
62
30
10
0.30122387
20
1.3924417
30
0
70
32
0
VERTEX
8
0
62
30
10
0.34365028
20
1.3924417
30
0
70
32
0
SEQEND
8
0
0
POLYLINE
8
0
62
5
66
1
10
0
20
0
30
0
70
8
0
VERTEX
8
0
62
5
10
0.17394465
20
1.3924417
30
0
70
32
0
VERTEX
8
0
62
5
10
0.19515786
20
1.3924417
30
0
70
32
0
SEQEND
8
0
0
POLYLINE
8
0
62
5
66
1
10
0
20
0
30
0
70
8
0
VERTEX
8
0
62
5
10
0.25879747
20
1.3924417
30
0
70
32
0
VERTEX
8
0
62
5
10
0.28001067
20
1.3924417
30
0
70
32
0
SEQEND
8
0
0
POLYLINE
8
0
62
5
66
1
10
0
20
0
30
0
70
8
0
VERTEX
8
0
62
5
10
0.19515786
20
1.3924417
30
0
70
32
0
VERTEX
8
0
62
5
10
0.21637106
20
1.3924417
30
0
70
32
0
SEQEND
8
0
0
POLYLINE
8
0
62
5
66
1
10
0
20
0
30
0
70
8
0
VERTEX
8
0
62
5
10
0.28001067
20
1.3924417
30
0
70
32
0
VERTEX
8
0
62
5
10
0.30122387
20
1.3924417
30
0
70
32
0
SEQEND
8
0
0
POLYLINE
8
0
62
5
66
1
10
0
20
0
30
0
70
8
0
VERTEX
8
0
62
5
10
0.21637106
20
1.3624417
30
0
70
32
0
VERTEX
8
0
62
5
10
0.21637106
20
1.4224417
30
0
70
32
0
SEQEND
8
0
0
POLYLINE
8
0
62
5
66
1
10
0
20
0
30
0
70
8
0
VERTEX
8
0
62
5
10
0.25879747
20
1.3624417
30
0
70
32
0
VERTEX
8
0
62
5
10
0.25879747
20
1.4224417
30
0
70
32
0
SEQEND
8
0
0
POLYLINE
8
0
62
5
66
1
10
0
20
0
30
0
70
8
0
VERTEX
8
0
62
5
10
0.30122387
20
1.3624417
30
0
70
32
0
VERTEX
8
0
62
5
10
0.30122387
20
1.4224417
30
0
70
32
0
SEQEND
8
0
0
POLYLINE
8
0
62
5
66
1
10
0
20
0
30
0
70
8
0
VERTEX
8
0
62
5
10
0.17394465
20
1.3624417
30
0
70
32
0
VERTEX
8
0
62
5
10
0.17394465
20
1.4224417
30
0
70
32
0
SEQEND
8
0
0
POLYLINE
8
0
62
5
66
1
10
0
20
0
30
0
70
8
0
VERTEX
8
0
62
5
10
-0.1654666
20
1.3624417
30
0
70
32
0
VERTEX
8
0
62
5
10
-0.1654666
20
1.4224417
30
0
70
32
0
SEQEND
8
0
0
POLYLINE
8
0
62
5
66
1
10
0
20
0
30
0
70
8
0
VERTEX
8
0
62
5
10
-0.1654666
20
1.3624417
30
0
70
32
0
VERTEX
8
0
62
5
10
0.0042390265
20
1.3624417
30
0
70
32
0
SEQEND
8
0
0
POLYLINE
8
0
62
5
66
1
10
0
20
0
30
0
70
8
0
VERTEX
8
0
62
5
10
-0.1654666
20
1.4224417
30
0
70
32
0
VERTEX
8
0
62
5
10
0.0042390265
20
1.4224417
30
0
70
32
0
SEQEND
8
0
0
POLYLINE
8
0
62
5
66
1
10
0
20
0
30
0
70
8
0
VERTEX
8
0
62
5
10
-0.12304019
20
1.3624417
30
0
70
32
0
VERTEX
8
0
62
5
10
-0.12304019
20
1.3624417
30
0
70
32
0
SEQEND
8
0
0
POLYLINE
8
0
62
5
66
1
10
0
20
0
30
0
70
8
0
VERTEX
8
0
62
5
10
-0.080613787
20
1.3624417
30
0
70
32
0
VERTEX
8
0
62
5
10
-0.080613787
20
1.3624417
30
0
70
32
0
SEQEND
8
0
0
POLYLINE
8
0
62
5
66
1
10
0
20
0
30
0
70
8
0
VERTEX
8
0
62
5
10
-0.03818738
20
1.3624417
30
0
70
32
0
VERTEX
8
0
62
5
10
-0.03818738
20
1.3624417
30
0
70
32
0
SEQEND
8
0
0
POLYLINE
8
0
62
5
66
1
10
0
20
0
30
0
70
8
0
VERTEX
8
0
62
5
10
-0.12304019
20
1.4224417
30
0
70
32
0
VERTEX
8
0
62
5
10
-0.12304019
20
1.4224417
30
0
70
32
0
SEQEND
8
0
0
POLYLINE
8
0
62
5
66
1
10
0
20
0
30
0
70
8
0
VERTEX
8
0
62
5
10
-0.080613787
20
1.4224417
30
0
70
32
0
VERTEX
8
0
62
5
10
-0.080613787
20
1.4224417
30
0
70
32
0
SEQEND
8
0
0
POLYLINE
8
0
62
5
66
1
10
0
20
0
30
0
70
8
0
VERTEX
8
0
62
5
10
-0.03818738
20
1.4224417
30
0
70
32
0
VERTEX
8
0
62
5
10
-0.03818738
20
1.4224417
30
0
70
32
0
SEQEND
8
0
0
POLYLINE
8
0
62
30
66
1
10
0
20
0
30
0
70
8
0
VERTEX
8
0
62
30
10
-0.1654666
20
1.3624417
30
0
70
32
0
VERTEX
8
0
62
30
10
-0.1442534
20
1.3924417
30
0
70
32
0
SEQEND
8
0
0
POLYLINE
8
0
62
30
66
1
10
0
20
0
30
0
70
8
0
VERTEX
8
0
62
30
10
-0.1442534
20
1.3924417
30
0
70
32
0
VERTEX
8
0
62
30
10
-0.12304019
20
1.3624417
30
0
70
32
0
SEQEND
8
0
0
POLYLINE
8
0
62
30
66
1
10
0
20
0
30
0
70
8
0
VERTEX
8
0
62
30
10
-0.080613787
20
1.3624417
30
0
70
32
0
VERTEX
8
0
62
30
10
-0.059400584
20
1.3924417
30
0
70
32
0
SEQEND
8
0
0
POLYLINE
8
0
62
30
66
1
10
0
20
0
30
0
70
8
0
VERTEX
8
0
62
30
10
-0.059400584
20
1.3924417
30
0
70
32
0
VERTEX
8
0
62
30
10
-0.03818738
20
1.3624417
30
0
70
32
0
SEQEND
8
0
0
POLYLINE
8
0
62
30
66
1
10
0
20
0
30
0
70
8
0
VERTEX
8
0
62
30
10
-0.12304019
20
1.3924417
30
0
70
32
0
VERTEX
8
0
62
30
10
-0.080613787
20
1.3924417
30
0
70
32
0
SEQEND
8
0
0
POLYLINE
8
0
62
30
66
1
10
0
20
0
30
0
70
8
0
VERTEX
8
0
62
30
10
-0.03818738
20
1.3924417
30
0
70
32
0
VERTEX
8
0
62
30
10
0.0042390265
20
1.3924417
30
0
70
32
0
SEQEND
8
0
0
POLYLINE
8
0
62
5
66
1
10
0
20
0
30
0
70
8
0
VERTEX
8
0
62
5
10
-0.1654666
20
1.3924417
30
0
70
32
0
VERTEX
8
0
62
5
10
-0.1442534
20
1.3924417
30
0
70
32
0
SEQEND
8
0
0
POLYLINE
8
0
62
5
66
1
10
0
20
0
30
0
70
8
0
VERTEX
8
0
62
5
10
-0.080613787
20
1.3924417
30
0
70
32
0
VERTEX
8
0
62
5
10
-0.059400584
20
1.3924417
30
0
70
32
0
SEQEND
8
0
0
POLYLINE
8
0
62
5
66
1
10
0
20
0
30
0
70
8
0
VERTEX
8
0
62
5
10
-0.1442534
20
1.3924417
30
0
70
32
0
VERTEX
8
0
62
5
10
-0.12304019
20
1.3924417
30
0
70
32
0
SEQEND
8
0
0
POLYLINE
8
0
62
5
66
1
10
0
20
0
30
0
70
8
0
VERTEX
8
0
62
5
10
-0.059400584
20
1.3924417
30
0
70
32
0
VERTEX
8
0
62
5
10
-0.03818738
20
1.3924417
30
0
70
32
0
SEQEND
8
0
0
POLYLINE
8
0
62
5
66
1
10
0
20
0
30
0
70
8
0
VERTEX
8
0
62
5
10
-0.12304019
20
1.3624417
30
0
70
32
0
VERTEX
8
0
62
5
10
-0.12304019
20
1.4224417
30
0
70
32
0
SEQEND
8
0
0
POLYLINE
8
0
62
5
66
1
10
0
20
0
30
0
70
8
0
VERTEX
8
0
62
5
10
-0.080613787
20
1.3624417
30
0
70
32
0
VERTEX
8
0
62
5
10
-0.080613787
20
1.4224417
30
0
70
32
0
SEQEND
8
0
0
POLYLINE
8
0
62
5
66
1
10
0
20
0
30
0
70
8
0
VERTEX
8
0
62
5
10
-0.03818738
20
1.3624417
30
0
70
32
0
VERTEX
8
0
62
5
10
-0.03818738
20
1.4224417
30
0
70
32
0
SEQEND
8
0
0
POLYLINE
8
0
62
5
66
1
10
0
20
0
30
0
70
8
0
VERTEX
8
0
62
5
10
-0.1654666
20
1.3624417
30
0
70
32
0
VERTEX
8
0
62
5
10
-0.1654666
20
1.4224417
30
0
70
32
0
SEQEND
8
0
0
POLYLINE
8
0
62
18
66
1
10
0
20
0
30
0
70
8
0
VERTEX
8
0
62
18
10
0
20
0
30
0
70
32
0
VERTEX
8
0
62
18
10
0.21213203
20
0
30
0
70
32
0
VERTEX
8
0
62
18
10
0.21213203
20
0.43728333
30
0
70
32
0
VERTEX
8
0
62
18
10
0
20
0.43728333
30
0
70
32
0
VERTEX
8
0
62
18
10
0
20
0
30
0
70
32
0
SEQEND
8
0
0
POLYLINE
8
0
62
5
66
1
10
0
20
0
30
0
70
8
0
VERTEX
8
0
62
5
10
0
20
0.43728333
30
0
70
32
0
VERTEX
8
0
62
5
10
0.21213203
20
0.43728333
30
0
70
32
0
SEQEND
8
0
0
POLYLINE
8
0
62
18
66
1
10
0
20
0
30
0
70
8
0
VERTEX
8
0
62
18
10
0
20
0.41728333
30
0
70
32
0
VERTEX
8
0
62
18
10
0.21213203
20
0.41728333
30
0
70
32
0
VERTEX
8
0
62
18
10
0.21213203
20
0.88975828
30
0
70
32
0
VERTEX
8
0
62
18
10
0
20
0.88975828
30
0
70
32
0
VERTEX
8
0
62
18
10
0
20
0.41728333
30
0
70
32
0
SEQEND
8
0
0
POLYLINE
8
0
62
5
66
1
10
0
20
0
30
0
70
8
0
VERTEX
8
0
62
5
10
0
20
0.88975828
30
0
70
32
0
VERTEX
8
0
62
5
10
0.21213203
20
0.88975828
30
0
70
32
0
SEQEND
8
0
0
POLYLINE
8
0
62
18
66
1
10
0
20
0
30
0
70
8
0
VERTEX
8
0
62
18
10
0
20
0.86975828
30
0
70
32
0
VERTEX
8
0
62
18
10
0.21213203
20
0.86975828
30
0
70
32
0
VERTEX
8
0
62
18
10
0.21213203
20
1.2476388
30
0
70
32
0
VERTEX
8
0
62
18
10
0
20
1.2476388
30
0
70
32
0
VERTEX
8
0
62
18
10
0
20
0.86975828
30
0
70
32
0
SEQEND
8
0
0
POLYLINE
8
0
62
5
66
1
10
0
20
0
30
0
70
8
0
VERTEX
8
0
62
5
10
0
20
1.2476388
30
0
70
32
0
VERTEX
8
0
62
5
10
0.21213203
20
1.2476388
30
0
70
32
0
SEQEND
8
0
0
POLYLINE
8
0
62
18
66
1
10
0
20
0
30
0
70
8
0
VERTEX
8
0
62
18
10
0
20
1.2276388
30
0
70
32
0
VERTEX
8
0
62
18
10
0.21213203
20
1.2276388
30
0
70
32
0
VERTEX
8
0
62
18
10
0.21213203
20
1.4224417
30
0
70
32
0
VERTEX
8
0
62
18
10
0
20
1.4224417
30
0
70
32
0
VERTEX
8
0
62
18
10
0
20
1.2276388
30
0
70
32
0
SEQEND
8
0
0
POLYLINE
8
0
62
18
66
1
10
0
20
0
30
0
70
8
0
VERTEX
8
0
62
18
10
0.21213203
20
0
30
0
70
32
0
VERTEX
8
0
62
18
10
0
20
0
30
0
70
32
0
VERTEX
8
0
62
18
10
0
20
1.4224417
30
0
70
32
0
VERTEX
8
0
62
18
10
0.21213203
20
1.4224417
30
0
70
32
0
VERTEX
8
0
62
18
10
0.21213203
20
0
30
0
70
32
0
SEQEND
8
0
0
ENDSEC
0
EOF
