0
SECTION
2
HEADER
9
$ACADVER
1
AC1006
9
$INSUNITS
70
6
0
ENDSEC
0
SECTION
2
ENTITIES
0
POLYLINE
8
0
62
5
66
1
10
0
20
0
30
0
70
8
0
VERTEX
8
0
62
5
10
0
20
0
30
0
70
32
0
VERTEX
8
0
62
5
10
0
20
0.1
30
0
70
32
0
SEQEND
8
0
0
POLYLINE
8
0
62
5
66
1
10
0
20
0
30
0
70
8
0
VERTEX
8
0
62
5
10
0.11313708
20
0
30
0
70
32
0
VERTEX
8
0
62
5
10
0.11313708
20
0.1
30
0
70
32
0
SEQEND
8
0
0
POLYLINE
8
0
62
5
66
1
10
0
20
0
30
0
70
8
0
VERTEX
8
0
62
5
10
0.028284271
20
0
30
0
70
32
0
VERTEX
8
0
62
5
10
0.028284271
20
0.1
30
0
70
32
0
SEQEND
8
0
0
POLYLINE
8
0
62
5
66
1
10
0
20
0
30
0
70
8
0
VERTEX
8
0
62
5
10
0.056568542
20
0
30
0
70
32
0
VERTEX
8
0
62
5
10
0.056568542
20
0.1
30
0
70
32
0
SEQEND
8
0
0
POLYLINE
8
0
62
5
66
1
10
0
20
0
30
0
70
8
0
VERTEX
8
0
62
5
10
0.084852814
20
0
30
0
70
32
0
VERTEX
8
0
62
5
10
0.084852814
20
0.1
30
0
70
32
0
SEQEND
8
0
0
POLYLINE
8
0
62
5
66
1
10
0
20
0
30
0
70
8
0
VERTEX
8
0
62
5
10
0.22627417
20
0
30
0
70
32
0
VERTEX
8
0
62
5
10
0.22627417
20
0.1
30
0
70
32
0
SEQEND
8
0
0
POLYLINE
8
0
62
5
66
1
10
0
20
0
30
0
70
8
0
VERTEX
8
0
62
5
10
0.14142136
20
0
30
0
70
32
0
VERTEX
8
0
62
5
10
0.14142136
20
0.1
30
0
70
32
0
SEQEND
8
0
0
POLYLINE
8
0
62
5
66
1
10
0
20
0
30
0
70
8
0
VERTEX
8
0
62
5
10
0.16970563
20
0
30
0
70
32
0
VERTEX
8
0
62
5
10
0.16970563
20
0.1
30
0
70
32
0
SEQEND
8
0
0
POLYLINE
8
0
62
5
66
1
10
0
20
0
30
0
70
8
0
VERTEX
8
0
62
5
10
0.1979899
20
0
30
0
70
32
0
VERTEX
8
0
62
5
10
0.1979899
20
0.1
30
0
70
32
0
SEQEND
8
0
0
POLYLINE
8
0
62
5
66
1
10
0
20
0
30
0
70
8
0
VERTEX
8
0
62
5
10
-0.11313708
20
0
30
0
70
32
0
VERTEX
8
0
62
5
10
-0.11313708
20
0.1
30
0
70
32
0
SEQEND
8
0
0
POLYLINE
8
0
62
5
66
1
10
0
20
0
30
0
70
8
0
VERTEX
8
0
62
5
10
-0.084852814
20
0
30
0
70
32
0
VERTEX
8
0
62
5
10
-0.084852814
20
0.1
30
0
70
32
0
SEQEND
8
0
0
POLYLINE
8
0
62
5
66
1
10
0
20
0
30
0
70
8
0
VERTEX
8
0
62
5
10
-0.056568542
20
0
30
0
70
32
0
VERTEX
8
0
62
5
10
-0.056568542
20
0.1
30
0
70
32
0
SEQEND
8
0
0
POLYLINE
8
0
62
5
66
1
10
0
20
0
30
0
70
8
0
VERTEX
8
0
62
5
10
-0.028284271
20
0
30
0
70
32
0
VERTEX
8
0
62
5
10
-0.028284271
20
0.1
30
0
70
32
0
SEQEND
8
0
0
POLYLINE
8
0
62
5
66
1
10
0
20
0
30
0
70
8
0
VERTEX
8
0
62
5
10
0
20
0.1
30
0
70
32
0
VERTEX
8
0
62
5
10
0
20
0.101
30
0
70
32
0
SEQEND
8
0
0
POLYLINE
8
0
62
5
66
1
10
0
20
0
30
0
70
8
0
VERTEX
8
0
62
5
10
0.11313708
20
0.1
30
0
70
32
0
VERTEX
8
0
62
5
10
0.11313708
20
0.101
30
0
70
32
0
SEQEND
8
0
0
POLYLINE
8
0
62
5
66
1
10
0
20
0
30
0
70
8
0
VERTEX
8
0
62
5
10
0.028284271
20
0.1
30
0
70
32
0
VERTEX
8
0
62
5
10
0.028284271
20
0.101
30
0
70
32
0
SEQEND
8
0
0
POLYLINE
8
0
62
5
66
1
10
0
20
0
30
0
70
8
0
VERTEX
8
0
62
5
10
0.056568542
20
0.1
30
0
70
32
0
VERTEX
8
0
62
5
10
0.056568542
20
0.101
30
0
70
32
0
SEQEND
8
0
0
POLYLINE
8
0
62
5
66
1
10
0
20
0
30
0
70
8
0
VERTEX
8
0
62
5
10
0.084852814
20
0.1
30
0
70
32
0
VERTEX
8
0
62
5
10
0.084852814
20
0.101
30
0
70
32
0
SEQEND
8
0
0
POLYLINE
8
0
62
5
66
1
10
0
20
0
30
0
70
8
0
VERTEX
8
0
62
5
10
0.22627417
20
0.1
30
0
70
32
0
VERTEX
8
0
62
5
10
0.22627417
20
0.101
30
0
70
32
0
SEQEND
8
0
0
POLYLINE
8
0
62
5
66
1
10
0
20
0
30
0
70
8
0
VERTEX
8
0
62
5
10
0.14142136
20
0.1
30
0
70
32
0
VERTEX
8
0
62
5
10
0.14142136
20
0.101
30
0
70
32
0
SEQEND
8
0
0
POLYLINE
8
0
62
5
66
1
10
0
20
0
30
0
70
8
0
VERTEX
8
0
62
5
10
0.16970563
20
0.1
30
0
70
32
0
VERTEX
8
0
62
5
10
0.16970563
20
0.101
30
0
70
32
0
SEQEND
8
0
0
POLYLINE
8
0
62
5
66
1
10
0
20
0
30
0
70
8
0
VERTEX
8
0
62
5
10
0.1979899
20
0.1
30
0
70
32
0
VERTEX
8
0
62
5
10
0.1979899
20
0.101
30
0
70
32
0
SEQEND
8
0
0
POLYLINE
8
0
62
5
66
1
10
0
20
0
30
0
70
8
0
VERTEX
8
0
62
5
10
-0.11313708
20
0.1
30
0
70
32
0
VERTEX
8
0
62
5
10
-0.11313708
20
0.101
30
0
70
32
0
SEQEND
8
0
0
POLYLINE
8
0
62
5
66
1
10
0
20
0
30
0
70
8
0
VERTEX
8
0
62
5
10
-0.084852814
20
0.1
30
0
70
32
0
VERTEX
8
0
62
5
10
-0.084852814
20
0.101
30
0
70
32
0
SEQEND
8
0
0
POLYLINE
8
0
62
5
66
1
10
0
20
0
30
0
70
8
0
VERTEX
8
0
62
5
10
-0.056568542
20
0.1
30
0
70
32
0
VERTEX
8
0
62
5
10
-0.056568542
20
0.101
30
0
70
32
0
SEQEND
8
0
0
POLYLINE
8
0
62
5
66
1
10
0
20
0
30
0
70
8
0
VERTEX
8
0
62
5
10
-0.028284271
20
0.1
30
0
70
32
0
VERTEX
8
0
62
5
10
-0.028284271
20
0.101
30
0
70
32
0
SEQEND
8
0
0
POLYLINE
8
0
62
5
66
1
10
0
20
0
30
0
70
8
0
VERTEX
8
0
62
5
10
0
20
0.101
30
0
70
32
0
VERTEX
8
0
62
5
10
0
20
0.16929269
30
0
70
32
0
SEQEND
8
0
0
POLYLINE
8
0
62
5
66
1
10
0
20
0
30
0
70
8
0
VERTEX
8
0
62
5
10
0.11313708
20
0.16929269
30
0
70
32
0
VERTEX
8
0
62
5
10
0.11313708
20
0.101
30
0
70
32
0
SEQEND
8
0
0
POLYLINE
8
0
62
5
66
1
10
0
20
0
30
0
70
8
0
VERTEX
8
0
62
5
10
0
20
0.10392929
30
0
70
32
0
VERTEX
8
0
62
5
10
0.028284271
20
0.10392929
30
0
70
32
0
VERTEX
8
0
62
5
10
0.056568542
20
0.11807317
30
0
70
32
0
VERTEX
8
0
62
5
10
0.084852814
20
0.11807317
30
0
70
32
0
VERTEX
8
0
62
5
10
0.11313708
20
0.10392929
30
0
70
32
0
SEQEND
8
0
0
POLYLINE
8
0
62
5
66
1
10
0
20
0
30
0
70
8
0
VERTEX
8
0
62
5
10
0
20
0.13807564
30
0
70
32
0
VERTEX
8
0
62
5
10
0.028284271
20
0.13807564
30
0
70
32
0
VERTEX
8
0
62
5
10
0.056568542
20
0.15221952
30
0
70
32
0
VERTEX
8
0
62
5
10
0.084852814
20
0.15221952
30
0
70
32
0
VERTEX
8
0
62
5
10
0.11313708
20
0.13807564
30
0
70
32
0
SEQEND
8
0
0
POLYLINE
8
0
62
5
66
1
10
0
20
0
30
0
70
8
0
VERTEX
8
0
62
5
10
0
20
0.13221705
30
0
70
32
0
VERTEX
8
0
62
5
10
0.028284271
20
0.13221705
30
0
70
32
0
VERTEX
8
0
62
5
10
0.056568542
20
0.11807317
30
0
70
32
0
VERTEX
8
0
62
5
10
0.084852814
20
0.11807318
30
0
70
32
0
VERTEX
8
0
62
5
10
0.11313708
20
0.13221705
30
0
70
32
0
SEQEND
8
0
0
POLYLINE
8
0
62
5
66
1
10
0
20
0
30
0
70
8
0
VERTEX
8
0
62
5
10
0
20
0.1663634
30
0
70
32
0
VERTEX
8
0
62
5
10
0.028284271
20
0.1663634
30
0
70
32
0
VERTEX
8
0
62
5
10
0.056568542
20
0.15221952
30
0
70
32
0
VERTEX
8
0
62
5
10
0.084852814
20
0.15221952
30
0
70
32
0
VERTEX
8
0
62
5
10
0.11313708
20
0.1663634
30
0
70
32
0
SEQEND
8
0
0
POLYLINE
8
0
62
30
66
1
10
0
20
0
30
0
70
8
0
VERTEX
8
0
62
30
10
0
20
0.11807317
30
0
70
32
0
VERTEX
8
0
62
30
10
0.11313708
20
0.11807317
30
0
70
32
0
SEQEND
8
0
0
POLYLINE
8
0
62
30
66
1
10
0
20
0
30
0
70
8
0
VERTEX
8
0
62
30
10
0
20
0.15221952
30
0
70
32
0
VERTEX
8
0
62
30
10
0.11313708
20
0.15221952
30
0
70
32
0
SEQEND
8
0
0
POLYLINE
8
0
62
30
66
1
10
0
20
0
30
0
70
8
0
VERTEX
8
0
62
30
10
0.028284271
20
0.10392929
30
0
70
32
0
VERTEX
8
0
62
30
10
0.028284271
20
0.11807317
30
0
70
32
0
SEQEND
8
0
0
POLYLINE
8
0
62
30
66
1
10
0
20
0
30
0
70
8
0
VERTEX
8
0
62
30
10
0.056568542
20
0.11807317
30
0
70
32
0
VERTEX
8
0
62
30
10
0.056568542
20
0.11807317
30
0
70
32
0
SEQEND
8
0
0
POLYLINE
8
0
62
30
66
1
10
0
20
0
30
0
70
8
0
VERTEX
8
0
62
30
10
0.084852814
20
0.11807317
30
0
70
32
0
VERTEX
8
0
62
30
10
0.084852814
20
0.11807317
30
0
70
32
0
SEQEND
8
0
0
POLYLINE
8
0
62
30
66
1
10
0
20
0
30
0
70
8
0
VERTEX
8
0
62
30
10
0.028284271
20
0.13807564
30
0
70
32
0
VERTEX
8
0
62
30
10
0.028284271
20
0.15221952
30
0
70
32
0
SEQEND
8
0
0
POLYLINE
8
0
62
30
66
1
10
0
20
0
30
0
70
8
0
VERTEX
8
0
62
30
10
0.056568542
20
0.15221952
30
0
70
32
0
VERTEX
8
0
62
30
10
0.056568542
20
0.15221952
30
0
70
32
0
SEQEND
8
0
0
POLYLINE
8
0
62
30
66
1
10
0
20
0
30
0
70
8
0
VERTEX
8
0
62
30
10
0.084852814
20
0.15221952
30
0
70
32
0
VERTEX
8
0
62
30
10
0.084852814
20
0.15221952
30
0
70
32
0
SEQEND
8
0
0
POLYLINE
8
0
62
5
66
1
10
0
20
0
30
0
70
8
0
VERTEX
8
0
62
5
10
0.028284271
20
0.101
30
0
70
32
0
VERTEX
8
0
62
5
10
0.028284271
20
0.10392929
30
0
70
32
0
SEQEND
8
0
0
POLYLINE
8
0
62
5
66
1
10
0
20
0
30
0
70
8
0
VERTEX
8
0
62
5
10
0.056568542
20
0.101
30
0
70
32
0
VERTEX
8
0
62
5
10
0.056568542
20
0.11807317
30
0
70
32
0
SEQEND
8
0
0
POLYLINE
8
0
62
5
66
1
10
0
20
0
30
0
70
8
0
VERTEX
8
0
62
5
10
0.084852814
20
0.101
30
0
70
32
0
VERTEX
8
0
62
5
10
0.084852814
20
0.11807317
30
0
70
32
0
SEQEND
8
0
0
POLYLINE
8
0
62
5
66
1
10
0
20
0
30
0
70
8
0
VERTEX
8
0
62
5
10
0.028284271
20
0.13514635
30
0
70
32
0
VERTEX
8
0
62
5
10
0.028284271
20
0.13807564
30
0
70
32
0
SEQEND
8
0
0
POLYLINE
8
0
62
5
66
1
10
0
20
0
30
0
70
8
0
VERTEX
8
0
62
5
10
0.056568542
20
0.13514635
30
0
70
32
0
VERTEX
8
0
62
5
10
0.056568542
20
0.15221952
30
0
70
32
0
SEQEND
8
0
0
POLYLINE
8
0
62
5
66
1
10
0
20
0
30
0
70
8
0
VERTEX
8
0
62
5
10
0.084852814
20
0.13514635
30
0
70
32
0
VERTEX
8
0
62
5
10
0.084852814
20
0.15221952
30
0
70
32
0
SEQEND
8
0
0
POLYLINE
8
0
62
5
66
1
10
0
20
0
30
0
70
8
0
VERTEX
8
0
62
5
10
0.028284271
20
0.11807317
30
0
70
32
0
VERTEX
8
0
62
5
10
0.028284271
20
0.13514635
30
0
70
32
0
SEQEND
8
0
0
POLYLINE
8
0
62
5
66
1
10
0
20
0
30
0
70
8
0
VERTEX
8
0
62
5
10
0.056568542
20
0.11807317
30
0
70
32
0
VERTEX
8
0
62
5
10
0.056568542
20
0.13514635
30
0
70
32
0
SEQEND
8
0
0
POLYLINE
8
0
62
5
66
1
10
0
20
0
30
0
70
8
0
VERTEX
8
0
62
5
10
0.084852814
20
0.11807317
30
0
70
32
0
VERTEX
8
0
62
5
10
0.084852814
20
0.13514635
30
0
70
32
0
SEQEND
8
0
0
POLYLINE
8
0
62
5
66
1
10
0
20
0
30
0
70
8
0
VERTEX
8
0
62
5
10
0.028284271
20
0.15221952
30
0
70
32
0
VERTEX
8
0
62
5
10
0.028284271
20
0.16929269
30
0
70
32
0
SEQEND
8
0
0
POLYLINE
8
0
62
5
66
1
10
0
20
0
30
0
70
8
0
VERTEX
8
0
62
5
10
0.056568542
20
0.15221952
30
0
70
32
0
VERTEX
8
0
62
5
10
0.056568542
20
0.16929269
30
0
70
32
0
SEQEND
8
0
0
POLYLINE
8
0
62
5
66
1
10
0
20
0
30
0
70
8
0
VERTEX
8
0
62
5
10
0.084852814
20
0.15221952
30
0
70
32
0
VERTEX
8
0
62
5
10
0.084852814
20
0.16929269
30
0
70
32
0
SEQEND
8
0
0
POLYLINE
8
0
62
30
66
1
10
0
20
0
30
0
70
8
0
VERTEX
8
0
62
30
10
0
20
0.10392929
30
0
70
32
0
VERTEX
8
0
62
30
10
0.0087409169
20
0.11807317
30
0
70
32
0
VERTEX
8
0
62
30
10
0
20
0.13221705
30
0
70
32
0
SEQEND
8
0
0
POLYLINE
8
0
62
30
66
1
10
0
20
0
30
0
70
8
0
VERTEX
8
0
62
30
10
0.028284271
20
0.10392929
30
0
70
32
0
VERTEX
8
0
62
30
10
0.037025188
20
0.11807317
30
0
70
32
0
VERTEX
8
0
62
30
10
0.028284271
20
0.13221705
30
0
70
32
0
SEQEND
8
0
0
POLYLINE
8
0
62
30
66
1
10
0
20
0
30
0
70
8
0
VERTEX
8
0
62
30
10
0.056568542
20
0.11807317
30
0
70
32
0
VERTEX
8
0
62
30
10
0.056568542
20
0.11807317
30
0
70
32
0
VERTEX
8
0
62
30
10
0.056568542
20
0.11807317
30
0
70
32
0
SEQEND
8
0
0
POLYLINE
8
0
62
30
66
1
10
0
20
0
30
0
70
8
0
VERTEX
8
0
62
30
10
0.084852814
20
0.11807317
30
0
70
32
0
VERTEX
8
0
62
30
10
0.084852817
20
0.11807317
30
0
70
32
0
VERTEX
8
0
62
30
10
0.084852814
20
0.11807318
30
0
70
32
0
SEQEND
8
0
0
POLYLINE
8
0
62
30
66
1
10
0
20
0
30
0
70
8
0
VERTEX
8
0
62
30
10
0
20
0.13807564
30
0
70
32
0
VERTEX
8
0
62
30
10
0.0087409169
20
0.15221952
30
0
70
32
0
VERTEX
8
0
62
30
10
0
20
0.1663634
30
0
70
32
0
SEQEND
8
0
0
POLYLINE
8
0
62
30
66
1
10
0
20
0
30
0
70
8
0
VERTEX
8
0
62
30
10
0.028284271
20
0.13807564
30
0
70
32
0
VERTEX
8
0
62
30
10
0.037025188
20
0.15221952
30
0
70
32
0
VERTEX
8
0
62
30
10
0.028284271
20
0.1663634
30
0
70
32
0
SEQEND
8
0
0
POLYLINE
8
0
62
30
66
1
10
0
20
0
30
0
70
8
0
VERTEX
8
0
62
30
10
0.056568542
20
0.15221952
30
0
70
32
0
VERTEX
8
0
62
30
10
0.056568542
20
0.15221952
30
0
70
32
0
VERTEX
8
0
62
30
10
0.056568542
20
0.15221952
30
0
70
32
0
SEQEND
8
0
0
POLYLINE
8
0
62
30
66
1
10
0
20
0
30
0
70
8
0
VERTEX
8
0
62
30
10
0.084852814
20
0.15221952
30
0
70
32
0
VERTEX
8
0
62
30
10
0.084852817
20
0.15221952
30
0
70
32
0
VERTEX
8
0
62
30
10
0.084852814
20
0.15221952
30
0
70
32
0
SEQEND
8
0
0
POLYLINE
8
0
62
5
66
1
10
0
20
0
30
0
70
8
0
VERTEX
8
0
62
5
10
0.22627417
20
0.16929269
30
0
70
32
0
VERTEX
8
0
62
5
10
0.22627417
20
0.101
30
0
70
32
0
SEQEND
8
0
0
POLYLINE
8
0
62
5
66
1
10
0
20
0
30
0
70
8
0
VERTEX
8
0
62
5
10
0.11313708
20
0.10392929
30
0
70
32
0
VERTEX
8
0
62
5
10
0.14142136
20
0.10392929
30
0
70
32
0
VERTEX
8
0
62
5
10
0.16970563
20
0.11807317
30
0
70
32
0
VERTEX
8
0
62
5
10
0.1979899
20
0.11807317
30
0
70
32
0
VERTEX
8
0
62
5
10
0.22627417
20
0.10392929
30
0
70
32
0
SEQEND
8
0
0
POLYLINE
8
0
62
5
66
1
10
0
20
0
30
0
70
8
0
VERTEX
8
0
62
5
10
0.11313708
20
0.13807564
30
0
70
32
0
VERTEX
8
0
62
5
10
0.14142136
20
0.13807564
30
0
70
32
0
VERTEX
8
0
62
5
10
0.16970563
20
0.15221952
30
0
70
32
0
VERTEX
8
0
62
5
10
0.1979899
20
0.15221952
30
0
70
32
0
VERTEX
8
0
62
5
10
0.22627417
20
0.13807564
30
0
70
32
0
SEQEND
8
0
0
POLYLINE
8
0
62
5
66
1
10
0
20
0
30
0
70
8
0
VERTEX
8
0
62
5
10
0.11313708
20
0.13221705
30
0
70
32
0
VERTEX
8
0
62
5
10
0.14142136
20
0.13221705
30
0
70
32
0
VERTEX
8
0
62
5
10
0.16970563
20
0.11807317
30
0
70
32
0
VERTEX
8
0
62
5
10
0.1979899
20
0.11807318
30
0
70
32
0
VERTEX
8
0
62
5
10
0.22627417
20
0.13221705
30
0
70
32
0
SEQEND
8
0
0
POLYLINE
8
0
62
5
66
1
10
0
20
0
30
0
70
8
0
VERTEX
8
0
62
5
10
0.11313708
20
0.1663634
30
0
70
32
0
VERTEX
8
0
62
5
10
0.14142136
20
0.1663634
30
0
70
32
0
VERTEX
8
0
62
5
10
0.16970563
20
0.15221952
30
0
70
32
0
VERTEX
8
0
62
5
10
0.1979899
20
0.15221952
30
0
70
32
0
VERTEX
8
0
62
5
10
0.22627417
20
0.1663634
30
0
70
32
0
SEQEND
8
0
0
POLYLINE
8
0
62
30
66
1
10
0
20
0
30
0
70
8
0
VERTEX
8
0
62
30
10
0.11313708
20
0.11807317
30
0
70
32
0
VERTEX
8
0
62
30
10
0.22627417
20
0.11807317
30
0
70
32
0
SEQEND
8
0
0
POLYLINE
8
0
62
30
66
1
10
0
20
0
30
0
70
8
0
VERTEX
8
0
62
30
10
0.11313708
20
0.15221952
30
0
70
32
0
VERTEX
8
0
62
30
10
0.22627417
20
0.15221952
30
0
70
32
0
SEQEND
8
0
0
POLYLINE
8
0
62
30
66
1
10
0
20
0
30
0
70
8
0
VERTEX
8
0
62
30
10
0.14142136
20
0.10392929
30
0
70
32
0
VERTEX
8
0
62
30
10
0.14142136
20
0.11807317
30
0
70
32
0
SEQEND
8
0
0
POLYLINE
8
0
62
30
66
1
10
0
20
0
30
0
70
8
0
VERTEX
8
0
62
30
10
0.16970563
20
0.11807317
30
0
70
32
0
VERTEX
8
0
62
30
10
0.16970563
20
0.11807317
30
0
70
32
0
SEQEND
8
0
0
POLYLINE
8
0
62
30
66
1
10
0
20
0
30
0
70
8
0
VERTEX
8
0
62
30
10
0.1979899
20
0.11807317
30
0
70
32
0
VERTEX
8
0
62
30
10
0.1979899
20
0.11807317
30
0
70
32
0
SEQEND
8
0
0
POLYLINE
8
0
62
30
66
1
10
0
20
0
30
0
70
8
0
VERTEX
8
0
62
30
10
0.14142136
20
0.13807564
30
0
70
32
0
VERTEX
8
0
62
30
10
0.14142136
20
0.15221952
30
0
70
32
0
SEQEND
8
0
0
POLYLINE
8
0
62
30
66
1
10
0
20
0
30
0
70
8
0
VERTEX
8
0
62
30
10
0.16970563
20
0.15221952
30
0
70
32
0
VERTEX
8
0
62
30
10
0.16970563
20
0.15221952
30
0
70
32
0
SEQEND
8
0
0
POLYLINE
8
0
62
30
66
1
10
0
20
0
30
0
70
8
0
VERTEX
8
0
62
30
10
0.1979899
20
0.15221952
30
0
70
32
0
VERTEX
8
0
62
30
10
0.1979899
20
0.15221952
30
0
70
32
0
SEQEND
8
0
0
POLYLINE
8
0
62
5
66
1
10
0
20
0
30
0
70
8
0
VERTEX
8
0
62
5
10
0.14142136
20
0.101
30
0
70
32
0
VERTEX
8
0
62
5
10
0.14142136
20
0.10392929
30
0
70
32
0
SEQEND
8
0
0
POLYLINE
8
0
62
5
66
1
10
0
20
0
30
0
70
8
0
VERTEX
8
0
62
5
10
0.16970563
20
0.101
30
0
70
32
0
VERTEX
8
0
62
5
10
0.16970563
20
0.11807317
30
0
70
32
0
SEQEND
8
0
0
POLYLINE
8
0
62
5
66
1
10
0
20
0
30
0
70
8
0
VERTEX
8
0
62
5
10
0.1979899
20
0.101
30
0
70
32
0
VERTEX
8
0
62
5
10
0.1979899
20
0.11807317
30
0
70
32
0
SEQEND
8
0
0
POLYLINE
8
0
62
5
66
1
10
0
20
0
30
0
70
8
0
VERTEX
8
0
62
5
10
0.14142136
20
0.13514635
30
0
70
32
0
VERTEX
8
0
62
5
10
0.14142136
20
0.13807564
30
0
70
32
0
SEQEND
8
0
0
POLYLINE
8
0
62
5
66
1
10
0
20
0
30
0
70
8
0
VERTEX
8
0
62
5
10
0.16970563
20
0.13514635
30
0
70
32
0
VERTEX
8
0
62
5
10
0.16970563
20
0.15221952
30
0
70
32
0
SEQEND
8
0
0
POLYLINE
8
0
62
5
66
1
10
0
20
0
30
0
70
8
0
VERTEX
8
0
62
5
10
0.1979899
20
0.13514635
30
0
70
32
0
VERTEX
8
0
62
5
10
0.1979899
20
0.15221952
30
0
70
32
0
SEQEND
8
0
0
POLYLINE
8
0
62
5
66
1
10
0
20
0
30
0
70
8
0
VERTEX
8
0
62
5
10
0.14142136
20
0.11807317
30
0
70
32
0
VERTEX
8
0
62
5
10
0.14142136
20
0.13514635
30
0
70
32
0
SEQEND
8
0
0
POLYLINE
8
0
62
5
66
1
10
0
20
0
30
0
70
8
0
VERTEX
8
0
62
5
10
0.16970563
20
0.11807317
30
0
70
32
0
VERTEX
8
0
62
5
10
0.16970563
20
0.13514635
30
0
70
32
0
SEQEND
8
0
0
POLYLINE
8
0
62
5
66
1
10
0
20
0
30
0
70
8
0
VERTEX
8
0
62
5
10
0.1979899
20
0.11807317
30
0
70
32
0
VERTEX
8
0
62
5
10
0.1979899
20
0.13514635
30
0
70
32
0
SEQEND
8
0
0
POLYLINE
8
0
62
5
66
1
10
0
20
0
30
0
70
8
0
VERTEX
8
0
62
5
10
0.14142136
20
0.15221952
30
0
70
32
0
VERTEX
8
0
62
5
10
0.14142136
20
0.16929269
30
0
70
32
0
SEQEND
8
0
0
POLYLINE
8
0
62
5
66
1
10
0
20
0
30
0
70
8
0
VERTEX
8
0
62
5
10
0.16970563
20
0.15221952
30
0
70
32
0
VERTEX
8
0
62
5
10
0.16970563
20
0.16929269
30
0
70
32
0
SEQEND
8
0
0
POLYLINE
8
0
62
5
66
1
10
0
20
0
30
0
70
8
0
VERTEX
8
0
62
5
10
0.1979899
20
0.15221952
30
0
70
32
0
VERTEX
8
0
62
5
10
0.1979899
20
0.16929269
30
0
70
32
0
SEQEND
8
0
0
POLYLINE
8
0
62
30
66
1
10
0
20
0
30
0
70
8
0
VERTEX
8
0
62
30
10
0.11313708
20
0.10392929
30
0
70
32
0
VERTEX
8
0
62
30
10
0.121878
20
0.11807317
30
0
70
32
0
VERTEX
8
0
62
30
10
0.11313708
20
0.13221705
30
0
70
32
0
SEQEND
8
0
0
POLYLINE
8
0
62
30
66
1
10
0
20
0
30
0
70
8
0
VERTEX
8
0
62
30
10
0.14142136
20
0.10392929
30
0
70
32
0
VERTEX
8
0
62
30
10
0.15016227
20
0.11807317
30
0
70
32
0
VERTEX
8
0
62
30
10
0.14142136
20
0.13221705
30
0
70
32
0
SEQEND
8
0
0
POLYLINE
8
0
62
30
66
1
10
0
20
0
30
0
70
8
0
VERTEX
8
0
62
30
10
0.16970563
20
0.11807317
30
0
70
32
0
VERTEX
8
0
62
30
10
0.16970563
20
0.11807317
30
0
70
32
0
VERTEX
8
0
62
30
10
0.16970563
20
0.11807317
30
0
70
32
0
SEQEND
8
0
0
POLYLINE
8
0
62
30
66
1
10
0
20
0
30
0
70
8
0
VERTEX
8
0
62
30
10
0.1979899
20
0.11807317
30
0
70
32
0
VERTEX
8
0
62
30
10
0.1979899
20
0.11807317
30
0
70
32
0
VERTEX
8
0
62
30
10
0.1979899
20
0.11807318
30
0
70
32
0
SEQEND
8
0
0
POLYLINE
8
0
62
30
66
1
10
0
20
0
30
0
70
8
0
VERTEX
8
0
62
30
10
0.11313708
20
0.13807564
30
0
70
32
0
VERTEX
8
0
62
30
10
0.121878
20
0.15221952
30
0
70
32
0
VERTEX
8
0
62
30
10
0.11313708
20
0.1663634
30
0
70
32
0
SEQEND
8
0
0
POLYLINE
8
0
62
30
66
1
10
0
20
0
30
0
70
8
0
VERTEX
8
0
62
30
10
0.14142136
20
0.13807564
30
0
70
32
0
VERTEX
8
0
62
30
10
0.15016227
20
0.15221952
30
0
70
32
0
VERTEX
8
0
62
30
10
0.14142136
20
0.1663634
30
0
70
32
0
SEQEND
8
0
0
POLYLINE
8
0
62
30
66
1
10
0
20
0
30
0
70
8
0
VERTEX
8
0
62
30
10
0.16970563
20
0.15221952
30
0
70
32
0
VERTEX
8
0
62
30
10
0.16970563
20
0.15221952
30
0
70
32
0
VERTEX
8
0
62
30
10
0.16970563
20
0.15221952
30
0
70
32
0
SEQEND
8
0
0
POLYLINE
8
0
62
30
66
1
10
0
20
0
30
0
70
8
0
VERTEX
8
0
62
30
10
0.1979899
20
0.15221952
30
0
70
32
0
VERTEX
8
0
62
30
10
0.1979899
20
0.15221952
30
0
70
32
0
VERTEX
8
0
62
30
10
0.1979899
20
0.15221952
30
0
70
32
0
SEQEND
8
0
0
POLYLINE
8
0
62
5
66
1
10
0
20
0
30
0
70
8
0
VERTEX
8
0
62
5
10
-0.11313708
20
0.101
30
0
70
32
0
VERTEX
8
0
62
5
10
-0.11313708
20
0.16929269
30
0
70
32
0
SEQEND
8
0
0
POLYLINE
8
0
62
5
66
1
10
0
20
0
30
0
70
8
0
VERTEX
8
0
62
5
10
-0.11313708
20
0.10392929
30
0
70
32
0
VERTEX
8
0
62
5
10
-0.084852814
20
0.10392929
30
0
70
32
0
VERTEX
8
0
62
5
10
-0.056568542
20
0.11807317
30
0
70
32
0
VERTEX
8
0
62
5
10
-0.028284271
20
0.11807317
30
0
70
32
0
VERTEX
8
0
62
5
10
0
20
0.10392929
30
0
70
32
0
SEQEND
8
0
0
POLYLINE
8
0
62
5
66
1
10
0
20
0
30
0
70
8
0
VERTEX
8
0
62
5
10
-0.11313708
20
0.13807564
30
0
70
32
0
VERTEX
8
0
62
5
10
-0.084852814
20
0.13807564
30
0
70
32
0
VERTEX
8
0
62
5
10
-0.056568542
20
0.15221952
30
0
70
32
0
VERTEX
8
0
62
5
10
-0.028284271
20
0.15221952
30
0
70
32
0
VERTEX
8
0
62
5
10
0
20
0.13807564
30
0
70
32
0
SEQEND
8
0
0
POLYLINE
8
0
62
5
66
1
10
0
20
0
30
0
70
8
0
VERTEX
8
0
62
5
10
-0.11313708
20
0.13221705
30
0
70
32
0
VERTEX
8
0
62
5
10
-0.084852814
20
0.13221705
30
0
70
32
0
VERTEX
8
0
62
5
10
-0.056568542
20
0.11807317
30
0
70
32
0
VERTEX
8
0
62
5
10
-0.028284271
20
0.11807318
30
0
70
32
0
VERTEX
8
0
62
5
10
0
20
0.13221705
30
0
70
32
0
SEQEND
8
0
0
POLYLINE
8
0
62
5
66
1
10
0
20
0
30
0
70
8
0
VERTEX
8
0
62
5
10
-0.11313708
20
0.1663634
30
0
70
32
0
VERTEX
8
0
62
5
10
-0.084852814
20
0.1663634
30
0
70
32
0
VERTEX
8
0
62
5
10
-0.056568542
20
0.15221952
30
0
70
32
0
VERTEX
8
0
62
5
10
-0.028284271
20
0.15221952
30
0
70
32
0
VERTEX
8
0
62
5
10
0
20
0.1663634
30
0
70
32
0
SEQEND
8
0
0
POLYLINE
8
0
62
30
66
1
10
0
20
0
30
0
70
8
0
VERTEX
8
0
62
30
10
-0.11313708
20
0.11807317
30
0
70
32
0
VERTEX
8
0
62
30
10
0
20
0.11807317
30
0
70
32
0
SEQEND
8
0
0
POLYLINE
8
0
62
30
66
1
10
0
20
0
30
0
70
8
0
VERTEX
8
0
62
30
10
-0.11313708
20
0.15221952
30
0
70
32
0
VERTEX
8
0
62
30
10
0
20
0.15221952
30
0
70
32
0
SEQEND
8
0
0
POLYLINE
8
0
62
30
66
1
10
0
20
0
30
0
70
8
0
VERTEX
8
0
62
30
10
-0.084852814
20
0.10392929
30
0
70
32
0
VERTEX
8
0
62
30
10
-0.084852814
20
0.11807317
30
0
70
32
0
SEQEND
8
0
0
POLYLINE
8
0
62
30
66
1
10
0
20
0
30
0
70
8
0
VERTEX
8
0
62
30
10
-0.056568542
20
0.11807317
30
0
70
32
0
VERTEX
8
0
62
30
10
-0.056568542
20
0.11807317
30
0
70
32
0
SEQEND
8
0
0
POLYLINE
8
0
62
30
66
1
10
0
20
0
30
0
70
8
0
VERTEX
8
0
62
30
10
-0.028284271
20
0.11807317
30
0
70
32
0
VERTEX
8
0
62
30
10
-0.028284271
20
0.11807317
30
0
70
32
0
SEQEND
8
0
0
POLYLINE
8
0
62
30
66
1
10
0
20
0
30
0
70
8
0
VERTEX
8
0
62
30
10
-0.084852814
20
0.13807564
30
0
70
32
0
VERTEX
8
0
62
30
10
-0.084852814
20
0.15221952
30
0
70
32
0
SEQEND
8
0
0
POLYLINE
8
0
62
30
66
1
10
0
20
0
30
0
70
8
0
VERTEX
8
0
62
30
10
-0.056568542
20
0.15221952
30
0
70
32
0
VERTEX
8
0
62
30
10
-0.056568542
20
0.15221952
30
0
70
32
0
SEQEND
8
0
0
POLYLINE
8
0
62
30
66
1
10
0
20
0
30
0
70
8
0
VERTEX
8
0
62
30
10
-0.028284271
20
0.15221952
30
0
70
32
0
VERTEX
8
0
62
30
10
-0.028284271
20
0.15221952
30
0
70
32
0
SEQEND
8
0
0
POLYLINE
8
0
62
5
66
1
10
0
20
0
30
0
70
8
0
VERTEX
8
0
62
5
10
-0.084852814
20
0.101
30
0
70
32
0
VERTEX
8
0
62
5
10
-0.084852814
20
0.10392929
30
0
70
32
0
SEQEND
8
0
0
POLYLINE
8
0
62
5
66
1
10
0
20
0
30
0
70
8
0
VERTEX
8
0
62
5
10
-0.056568542
20
0.101
30
0
70
32
0
VERTEX
8
0
62
5
10
-0.056568542
20
0.11807317
30
0
70
32
0
SEQEND
8
0
0
POLYLINE
8
0
62
5
66
1
10
0
20
0
30
0
70
8
0
VERTEX
8
0
62
5
10
-0.028284271
20
0.101
30
0
70
32
0
VERTEX
8
0
62
5
10
-0.028284271
20
0.11807317
30
0
70
32
0
SEQEND
8
0
0
POLYLINE
8
0
62
5
66
1
10
0
20
0
30
0
70
8
0
VERTEX
8
0
62
5
10
-0.084852814
20
0.13514635
30
0
70
32
0
VERTEX
8
0
62
5
10
-0.084852814
20
0.13807564
30
0
70
32
0
SEQEND
8
0
0
POLYLINE
8
0
62
5
66
1
10
0
20
0
30
0
70
8
0
VERTEX
8
0
62
5
10
-0.056568542
20
0.13514635
30
0
70
32
0
VERTEX
8
0
62
5
10
-0.056568542
20
0.15221952
30
0
70
32
0
SEQEND
8
0
0
POLYLINE
8
0
62
5
66
1
10
0
20
0
30
0
70
8
0
VERTEX
8
0
62
5
10
-0.028284271
20
0.13514635
30
0
70
32
0
VERTEX
8
0
62
5
10
-0.028284271
20
0.15221952
30
0
70
32
0
SEQEND
8
0
0
POLYLINE
8
0
62
5
66
1
10
0
20
0
30
0
70
8
0
VERTEX
8
0
62
5
10
-0.084852814
20
0.11807317
30
0
70
32
0
VERTEX
8
0
62
5
10
-0.084852814
20
0.13514635
30
0
70
32
0
SEQEND
8
0
0
POLYLINE
8
0
62
5
66
1
10
0
20
0
30
0
70
8
0
VERTEX
8
0
62
5
10
-0.056568542
20
0.11807317
30
0
70
32
0
VERTEX
8
0
62
5
10
-0.056568542
20
0.13514635
30
0
70
32
0
SEQEND
8
0
0
POLYLINE
8
0
62
5
66
1
10
0
20
0
30
0
70
8
0
VERTEX
8
0
62
5
10
-0.028284271
20
0.11807317
30
0
70
32
0
VERTEX
8
0
62
5
10
-0.028284271
20
0.13514635
30
0
70
32
0
SEQEND
8
0
0
POLYLINE
8
0
62
5
66
1
10
0
20
0
30
0
70
8
0
VERTEX
8
0
62
5
10
-0.084852814
20
0.15221952
30
0
70
32
0
VERTEX
8
0
62
5
10
-0.084852814
20
0.16929269
30
0
70
32
0
SEQEND
8
0
0
POLYLINE
8
0
62
5
66
1
10
0
20
0
30
0
70
8
0
VERTEX
8
0
62
5
10
-0.056568542
20
0.15221952
30
0
70
32
0
VERTEX
8
0
62
5
10
-0.056568542
20
0.16929269
30
0
70
32
0
SEQEND
8
0
0
POLYLINE
8
0
62
5
66
1
10
0
20
0
30
0
70
8
0
VERTEX
8
0
62
5
10
-0.028284271
20
0.15221952
30
0
70
32
0
VERTEX
8
0
62
5
10
-0.028284271
20
0.16929269
30
0
70
32
0
SEQEND
8
0
0
POLYLINE
8
0
62
30
66
1
10
0
20
0
30
0
70
8
0
VERTEX
8
0
62
30
10
-0.11313708
20
0.10392929
30
0
70
32
0
VERTEX
8
0
62
30
10
-0.10439617
20
0.11807317
30
0
70
32
0
VERTEX
8
0
62
30
10
-0.11313708
20
0.13221705
30
0
70
32
0
SEQEND
8
0
0
POLYLINE
8
0
62
30
66
1
10
0
20
0
30
0
70
8
0
VERTEX
8
0
62
30
10
-0.084852814
20
0.10392929
30
0
70
32
0
VERTEX
8
0
62
30
10
-0.076111897
20
0.11807317
30
0
70
32
0
VERTEX
8
0
62
30
10
-0.084852814
20
0.13221705
30
0
70
32
0
SEQEND
8
0
0
POLYLINE
8
0
62
30
66
1
10
0
20
0
30
0
70
8
0
VERTEX
8
0
62
30
10
-0.056568542
20
0.11807317
30
0
70
32
0
VERTEX
8
0
62
30
10
-0.056568542
20
0.11807317
30
0
70
32
0
VERTEX
8
0
62
30
10
-0.056568542
20
0.11807317
30
0
70
32
0
SEQEND
8
0
0
POLYLINE
8
0
62
30
66
1
10
0
20
0
30
0
70
8
0
VERTEX
8
0
62
30
10
-0.028284271
20
0.11807317
30
0
70
32
0
VERTEX
8
0
62
30
10
-0.028284268
20
0.11807317
30
0
70
32
0
VERTEX
8
0
62
30
10
-0.028284271
20
0.11807318
30
0
70
32
0
SEQEND
8
0
0
POLYLINE
8
0
62
30
66
1
10
0
20
0
30
0
70
8
0
VERTEX
8
0
62
30
10
-0.11313708
20
0.13807564
30
0
70
32
0
VERTEX
8
0
62
30
10
-0.10439617
20
0.15221952
30
0
70
32
0
VERTEX
8
0
62
30
10
-0.11313708
20
0.1663634
30
0
70
32
0
SEQEND
8
0
0
POLYLINE
8
0
62
30
66
1
10
0
20
0
30
0
70
8
0
VERTEX
8
0
62
30
10
-0.084852814
20
0.13807564
30
0
70
32
0
VERTEX
8
0
62
30
10
-0.076111897
20
0.15221952
30
0
70
32
0
VERTEX
8
0
62
30
10
-0.084852814
20
0.1663634
30
0
70
32
0
SEQEND
8
0
0
POLYLINE
8
0
62
30
66
1
10
0
20
0
30
0
70
8
0
VERTEX
8
0
62
30
10
-0.056568542
20
0.15221952
30
0
70
32
0
VERTEX
8
0
62
30
10
-0.056568542
20
0.15221952
30
0
70
32
0
VERTEX
8
0
62
30
10
-0.056568542
20
0.15221952
30
0
70
32
0
SEQEND
8
0
0
POLYLINE
8
0
62
30
66
1
10
0
20
0
30
0
70
8
0
VERTEX
8
0
62
30
10
-0.028284271
20
0.15221952
30
0
70
32
0
VERTEX
8
0
62
30
10
-0.028284268
20
0.15221952
30
0
70
32
0
VERTEX
8
0
62
30
10
-0.028284271
20
0.15221952
30
0
70
32
0
SEQEND
8
0
0
POLYLINE
8
0
62
5
66
1
10
0
20
0
30
0
70
8
0
VERTEX
8
0
62
5
10
0
20
0.16929269
30
0
70
32
0
VERTEX
8
0
62
5
10
0
20
0.17224936
30
0
70
32
0
SEQEND
8
0
0
POLYLINE
8
0
62
5
66
1
10
0
20
0
30
0
70
8
0
VERTEX
8
0
62
5
10
0.028284271
20
0.16929269
30
0
70
32
0
VERTEX
8
0
62
5
10
0.028284271
20
0.17224936
30
0
70
32
0
SEQEND
8
0
0
POLYLINE
8
0
62
5
66
1
10
0
20
0
30
0
70
8
0
VERTEX
8
0
62
5
10
0.056568542
20
0.16929269
30
0
70
32
0
VERTEX
8
0
62
5
10
0.056568542
20
0.17224936
30
0
70
32
0
SEQEND
8
0
0
POLYLINE
8
0
62
5
66
1
10
0
20
0
30
0
70
8
0
VERTEX
8
0
62
5
10
0.084852814
20
0.16929269
30
0
70
32
0
VERTEX
8
0
62
5
10
0.084852814
20
0.17224936
30
0
70
32
0
SEQEND
8
0
0
POLYLINE
8
0
62
5
66
1
10
0
20
0
30
0
70
8
0
VERTEX
8
0
62
5
10
0.11313708
20
0.16929269
30
0
70
32
0
VERTEX
8
0
62
5
10
0.11313708
20
0.17224936
30
0
70
32
0
SEQEND
8
0
0
POLYLINE
8
0
62
5
66
1
10
0
20
0
30
0
70
8
0
VERTEX
8
0
62
5
10
0.028284271
20
0.16929269
30
0
70
32
0
VERTEX
8
0
62
5
10
0.028284271
20
0.16929269
30
0
70
32
0
SEQEND
8
0
0
POLYLINE
8
0
62
5
66
1
10
0
20
0
30
0
70
8
0
VERTEX
8
0
62
5
10
0.056568542
20
0.16929269
30
0
70
32
0
VERTEX
8
0
62
5
10
0.056568542
20
0.16929269
30
0
70
32
0
SEQEND
8
0
0
POLYLINE
8
0
62
5
66
1
10
0
20
0
30
0
70
8
0
VERTEX
8
0
62
5
10
0.084852814
20
0.16929269
30
0
70
32
0
VERTEX
8
0
62
5
10
0.084852814
20
0.16929269
30
0
70
32
0
SEQEND
8
0
0
POLYLINE
8
0
62
5
66
1
10
0
20
0
30
0
70
8
0
VERTEX
8
0
62
5
10
0.028284268
20
0.17224936
30
0
70
32
0
VERTEX
8
0
62
5
10
0.028284268
20
0.17224936
30
0
70
32
0
SEQEND
8
0
0
POLYLINE
8
0
62
5
66
1
10
0
20
0
30
0
70
8
0
VERTEX
8
0
62
5
10
0.05656854
20
0.17224936
30
0
70
32
0
VERTEX
8
0
62
5
10
0.05656854
20
0.17224936
30
0
70
32
0
SEQEND
8
0
0
POLYLINE
8
0
62
5
66
1
10
0
20
0
30
0
70
8
0
VERTEX
8
0
62
5
10
0.084852811
20
0.17224936
30
0
70
32
0
VERTEX
8
0
62
5
10
0.084852811
20
0.17224936
30
0
70
32
0
SEQEND
8
0
0
POLYLINE
8
0
62
5
66
1
10
0
20
0
30
0
70
8
0
VERTEX
8
0
62
5
10
0.11313708
20
0.17224936
30
0
70
32
0
VERTEX
8
0
62
5
10
0.11313708
20
0.17224936
30
0
70
32
0
SEQEND
8
0
0
POLYLINE
8
0
62
5
66
1
10
0
20
0
30
0
70
8
0
VERTEX
8
0
62
5
10
0.14142136
20
0.16929269
30
0
70
32
0
VERTEX
8
0
62
5
10
0.14142136
20
0.17224936
30
0
70
32
0
SEQEND
8
0
0
POLYLINE
8
0
62
5
66
1
10
0
20
0
30
0
70
8
0
VERTEX
8
0
62
5
10
0.16970563
20
0.16929269
30
0
70
32
0
VERTEX
8
0
62
5
10
0.16970563
20
0.17224936
30
0
70
32
0
SEQEND
8
0
0
POLYLINE
8
0
62
5
66
1
10
0
20
0
30
0
70
8
0
VERTEX
8
0
62
5
10
0.1979899
20
0.16929269
30
0
70
32
0
VERTEX
8
0
62
5
10
0.1979899
20
0.17224936
30
0
70
32
0
SEQEND
8
0
0
POLYLINE
8
0
62
5
66
1
10
0
20
0
30
0
70
8
0
VERTEX
8
0
62
5
10
0.22627417
20
0.16929269
30
0
70
32
0
VERTEX
8
0
62
5
10
0.22627417
20
0.17224936
30
0
70
32
0
SEQEND
8
0
0
POLYLINE
8
0
62
5
66
1
10
0
20
0
30
0
70
8
0
VERTEX
8
0
62
5
10
0.14142136
20
0.16929269
30
0
70
32
0
VERTEX
8
0
62
5
10
0.14142136
20
0.16929269
30
0
70
32
0
SEQEND
8
0
0
POLYLINE
8
0
62
5
66
1
10
0
20
0
30
0
70
8
0
VERTEX
8
0
62
5
10
0.16970563
20
0.16929269
30
0
70
32
0
VERTEX
8
0
62
5
10
0.16970563
20
0.16929269
30
0
70
32
0
SEQEND
8
0
0
POLYLINE
8
0
62
5
66
1
10
0
20
0
30
0
70
8
0
VERTEX
8
0
62
5
10
0.1979899
20
0.16929269
30
0
70
32
0
VERTEX
8
0
62
5
10
0.1979899
20
0.16929269
30
0
70
32
0
SEQEND
8
0
0
POLYLINE
8
0
62
5
66
1
10
0
20
0
30
0
70
8
0
VERTEX
8
0
62
5
10
0.14142135
20
0.17224936
30
0
70
32
0
VERTEX
8
0
62
5
10
0.14142135
20
0.17224936
30
0
70
32
0
SEQEND
8
0
0
POLYLINE
8
0
62
5
66
1
10
0
20
0
30
0
70
8
0
VERTEX
8
0
62
5
10
0.16970562
20
0.17224936
30
0
70
32
0
VERTEX
8
0
62
5
10
0.16970562
20
0.17224936
30
0
70
32
0
SEQEND
8
0
0
POLYLINE
8
0
62
5
66
1
10
0
20
0
30
0
70
8
0
VERTEX
8
0
62
5
10
0.1979899
20
0.17224936
30
0
70
32
0
VERTEX
8
0
62
5
10
0.1979899
20
0.17224936
30
0
70
32
0
SEQEND
8
0
0
POLYLINE
8
0
62
5
66
1
10
0
20
0
30
0
70
8
0
VERTEX
8
0
62
5
10
0.22627417
20
0.17224936
30
0
70
32
0
VERTEX
8
0
62
5
10
0.22627417
20
0.17224936
30
0
70
32
0
SEQEND
8
0
0
POLYLINE
8
0
62
5
66
1
10
0
20
0
30
0
70
8
0
VERTEX
8
0
62
5
10
-0.084852814
20
0.16929269
30
0
70
32
0
VERTEX
8
0
62
5
10
-0.084852814
20
0.17224936
30
0
70
32
0
SEQEND
8
0
0
POLYLINE
8
0
62
5
66
1
10
0
20
0
30
0
70
8
0
VERTEX
8
0
62
5
10
-0.056568542
20
0.16929269
30
0
70
32
0
VERTEX
8
0
62
5
10
-0.056568542
20
0.17224936
30
0
70
32
0
SEQEND
8
0
0
POLYLINE
8
0
62
5
66
1
10
0
20
0
30
0
70
8
0
VERTEX
8
0
62
5
10
-0.028284271
20
0.16929269
30
0
70
32
0
VERTEX
8
0
62
5
10
-0.028284271
20
0.17224936
30
0
70
32
0
SEQEND
8
0
0
POLYLINE
8
0
62
5
66
1
10
0
20
0
30
0
70
8
0
VERTEX
8
0
62
5
10
0
20
0.16929269
30
0
70
32
0
VERTEX
8
0
62
5
10
0
20
0.17224936
30
0
70
32
0
SEQEND
8
0
0
POLYLINE
8
0
62
5
66
1
10
0
20
0
30
0
70
8
0
VERTEX
8
0
62
5
10
-0.084852814
20
0.16929269
30
0
70
32
0
VERTEX
8
0
62
5
10
-0.084852814
20
0.16929269
30
0
70
32
0
SEQEND
8
0
0
POLYLINE
8
0
62
5
66
1
10
0
20
0
30
0
70
8
0
VERTEX
8
0
62
5
10
-0.056568542
20
0.16929269
30
0
70
32
0
VERTEX
8
0
62
5
10
-0.056568542
20
0.16929269
30
0
70
32
0
SEQEND
8
0
0
POLYLINE
8
0
62
5
66
1
10
0
20
0
30
0
70
8
0
VERTEX
8
0
62
5
10
-0.028284271
20
0.16929269
30
0
70
32
0
VERTEX
8
0
62
5
10
-0.028284271
20
0.16929269
30
0
70
32
0
SEQEND
8
0
0
POLYLINE
8
0
62
5
66
1
10
0
20
0
30
0
70
8
0
VERTEX
8
0
62
5
10
-0.084852817
20
0.17224936
30
0
70
32
0
VERTEX
8
0
62
5
10
-0.084852817
20
0.17224936
30
0
70
32
0
SEQEND
8
0
0
POLYLINE
8
0
62
5
66
1
10
0
20
0
30
0
70
8
0
VERTEX
8
0
62
5
10
-0.056568545
20
0.17224936
30
0
70
32
0
VERTEX
8
0
62
5
10
-0.056568545
20
0.17224936
30
0
70
32
0
SEQEND
8
0
0
POLYLINE
8
0
62
5
66
1
10
0
20
0
30
0
70
8
0
VERTEX
8
0
62
5
10
-0.028284274
20
0.17224936
30
0
70
32
0
VERTEX
8
0
62
5
10
-0.028284274
20
0.17224936
30
0
70
32
0
SEQEND
8
0
0
POLYLINE
8
0
62
5
66
1
10
0
20
0
30
0
70
8
0
VERTEX
8
0
62
5
10
-2.9871578e-09
20
0.17224936
30
0
70
32
0
VERTEX
8
0
62
5
10
-2.9871578e-09
20
0.17224936
30
0
70
32
0
SEQEND
8
0
0
POLYLINE
8
0
62
5
66
1
10
0
20
0
30
0
70
8
0
VERTEX
8
0
62
5
10
-0.028284274
20
0.17224936
30
0
70
32
0
VERTEX
8
0
62
5
10
-0.028284274
20
0.18407604
30
0
70
32
0
SEQEND
8
0
0
POLYLINE
8
0
62
5
66
1
10
0
20
0
30
0
70
8
0
VERTEX
8
0
62
5
10
0.084852811
20
0.17224936
30
0
70
32
0
VERTEX
8
0
62
5
10
0.084852811
20
0.18407604
30
0
70
32
0
SEQEND
8
0
0
POLYLINE
8
0
62
5
66
1
10
0
20
0
30
0
70
8
0
VERTEX
8
0
62
5
10
-2.9871578e-09
20
0.17224936
30
0
70
32
0
VERTEX
8
0
62
5
10
-2.9871578e-09
20
0.18407604
30
0
70
32
0
SEQEND
8
0
0
POLYLINE
8
0
62
5
66
1
10
0
20
0
30
0
70
8
0
VERTEX
8
0
62
5
10
0.028284268
20
0.17224936
30
0
70
32
0
VERTEX
8
0
62
5
10
0.028284268
20
0.18407604
30
0
70
32
0
SEQEND
8
0
0
POLYLINE
8
0
62
5
66
1
10
0
20
0
30
0
70
8
0
VERTEX
8
0
62
5
10
0.05656854
20
0.17224936
30
0
70
32
0
VERTEX
8
0
62
5
10
0.05656854
20
0.18407604
30
0
70
32
0
SEQEND
8
0
0
POLYLINE
8
0
62
5
66
1
10
0
20
0
30
0
70
8
0
VERTEX
8
0
62
5
10
0.1979899
20
0.17224936
30
0
70
32
0
VERTEX
8
0
62
5
10
0.1979899
20
0.18407604
30
0
70
32
0
SEQEND
8
0
0
POLYLINE
8
0
62
5
66
1
10
0
20
0
30
0
70
8
0
VERTEX
8
0
62
5
10
0.11313708
20
0.17224936
30
0
70
32
0
VERTEX
8
0
62
5
10
0.11313708
20
0.18407604
30
0
70
32
0
SEQEND
8
0
0
POLYLINE
8
0
62
5
66
1
10
0
20
0
30
0
70
8
0
VERTEX
8
0
62
5
10
0.14142135
20
0.17224936
30
0
70
32
0
VERTEX
8
0
62
5
10
0.14142135
20
0.18407604
30
0
70
32
0
SEQEND
8
0
0
POLYLINE
8
0
62
5
66
1
10
0
20
0
30
0
70
8
0
VERTEX
8
0
62
5
10
0.16970562
20
0.17224936
30
0
70
32
0
VERTEX
8
0
62
5
10
0.16970562
20
0.18407604
30
0
70
32
0
SEQEND
8
0
0
POLYLINE
8
0
62
5
66
1
10
0
20
0
30
0
70
8
0
VERTEX
8
0
62
5
10
-0.14142136
20
0.17224936
30
0
70
32
0
VERTEX
8
0
62
5
10
-0.14142136
20
0.18407604
30
0
70
32
0
SEQEND
8
0
0
POLYLINE
8
0
62
5
66
1
10
0
20
0
30
0
70
8
0
VERTEX
8
0
62
5
10
-0.11313709
20
0.17224936
30
0
70
32
0
VERTEX
8
0
62
5
10
-0.11313709
20
0.18407604
30
0
70
32
0
SEQEND
8
0
0
POLYLINE
8
0
62
5
66
1
10
0
20
0
30
0
70
8
0
VERTEX
8
0
62
5
10
-0.084852817
20
0.17224936
30
0
70
32
0
VERTEX
8
0
62
5
10
-0.084852817
20
0.18407604
30
0
70
32
0
SEQEND
8
0
0
POLYLINE
8
0
62
5
66
1
10
0
20
0
30
0
70
8
0
VERTEX
8
0
62
5
10
-0.056568545
20
0.17224936
30
0
70
32
0
VERTEX
8
0
62
5
10
-0.056568545
20
0.18407604
30
0
70
32
0
SEQEND
8
0
0
POLYLINE
8
0
62
5
66
1
10
0
20
0
30
0
70
8
0
VERTEX
8
0
62
5
10
-0.028284274
20
0.18407604
30
0
70
32
0
VERTEX
8
0
62
5
10
-0.028284274
20
0.20156305
30
0
70
32
0
SEQEND
8
0
0
POLYLINE
8
0
62
5
66
1
10
0
20
0
30
0
70
8
0
VERTEX
8
0
62
5
10
0.084852811
20
0.20156305
30
0
70
32
0
VERTEX
8
0
62
5
10
0.084852811
20
0.18407604
30
0
70
32
0
SEQEND
8
0
0
POLYLINE
8
0
62
5
66
1
10
0
20
0
30
0
70
8
0
VERTEX
8
0
62
5
10
-0.028284274
20
0.19281955
30
0
70
32
0
VERTEX
8
0
62
5
10
-2.9871578e-09
20
0.18557619
30
0
70
32
0
VERTEX
8
0
62
5
10
0.028284268
20
0.18557619
30
0
70
32
0
VERTEX
8
0
62
5
10
0.05656854
20
0.19281954
30
0
70
32
0
VERTEX
8
0
62
5
10
0.084852811
20
0.19281955
30
0
70
32
0
SEQEND
8
0
0
POLYLINE
8
0
62
5
66
1
10
0
20
0
30
0
70
8
0
SEQEND
8
0
0
POLYLINE
8
0
62
5
66
1
10
0
20
0
30
0
70
8
0
VERTEX
8
0
62
5
10
-0.028284274
20
0.19281955
30
0
70
32
0
VERTEX
8
0
62
5
10
-2.9871578e-09
20
0.2000629
30
0
70
32
0
VERTEX
8
0
62
5
10
0.028284268
20
0.20006291
30
0
70
32
0
VERTEX
8
0
62
5
10
0.05656854
20
0.19281955
30
0
70
32
0
VERTEX
8
0
62
5
10
0.084852811
20
0.19281955
30
0
70
32
0
SEQEND
8
0
0
POLYLINE
8
0
62
30
66
1
10
0
20
0
30
0
70
8
0
VERTEX
8
0
62
30
10
-0.028284274
20
0.19281955
30
0
70
32
0
VERTEX
8
0
62
30
10
0.084852811
20
0.19281955
30
0
70
32
0
SEQEND
8
0
0
POLYLINE
8
0
62
30
66
1
10
0
20
0
30
0
70
8
0
VERTEX
8
0
62
30
10
-2.9871578e-09
20
0.18557619
30
0
70
32
0
VERTEX
8
0
62
30
10
-2.9871578e-09
20
0.19281955
30
0
70
32
0
SEQEND
8
0
0
POLYLINE
8
0
62
30
66
1
10
0
20
0
30
0
70
8
0
VERTEX
8
0
62
30
10
0.028284268
20
0.18557619
30
0
70
32
0
VERTEX
8
0
62
30
10
0.028284268
20
0.19281955
30
0
70
32
0
SEQEND
8
0
0
POLYLINE
8
0
62
30
66
1
10
0
20
0
30
0
70
8
0
VERTEX
8
0
62
30
10
0.05656854
20
0.19281954
30
0
70
32
0
VERTEX
8
0
62
30
10
0.05656854
20
0.19281955
30
0
70
32
0
SEQEND
8
0
0
POLYLINE
8
0
62
5
66
1
10
0
20
0
30
0
70
8
0
VERTEX
8
0
62
5
10
-2.9871578e-09
20
0.18407604
30
0
70
32
0
VERTEX
8
0
62
5
10
-2.9871578e-09
20
0.18557619
30
0
70
32
0
SEQEND
8
0
0
POLYLINE
8
0
62
5
66
1
10
0
20
0
30
0
70
8
0
VERTEX
8
0
62
5
10
0.028284268
20
0.18407604
30
0
70
32
0
VERTEX
8
0
62
5
10
0.028284268
20
0.18557619
30
0
70
32
0
SEQEND
8
0
0
POLYLINE
8
0
62
5
66
1
10
0
20
0
30
0
70
8
0
VERTEX
8
0
62
5
10
0.05656854
20
0.18407604
30
0
70
32
0
VERTEX
8
0
62
5
10
0.05656854
20
0.19281954
30
0
70
32
0
SEQEND
8
0
0
POLYLINE
8
0
62
5
66
1
10
0
20
0
30
0
70
8
0
VERTEX
8
0
62
5
10
-2.9871578e-09
20
0.19281955
30
0
70
32
0
VERTEX
8
0
62
5
10
-2.9871578e-09
20
0.20156305
30
0
70
32
0
SEQEND
8
0
0
POLYLINE
8
0
62
5
66
1
10
0
20
0
30
0
70
8
0
VERTEX
8
0
62
5
10
0.028284268
20
0.19281955
30
0
70
32
0
VERTEX
8
0
62
5
10
0.028284268
20
0.20156305
30
0
70
32
0
SEQEND
8
0
0
POLYLINE
8
0
62
5
66
1
10
0
20
0
30
0
70
8
0
VERTEX
8
0
62
5
10
0.05656854
20
0.19281955
30
0
70
32
0
VERTEX
8
0
62
5
10
0.05656854
20
0.20156305
30
0
70
32
0
SEQEND
8
0
0
POLYLINE
8
0
62
30
66
1
10
0
20
0
30
0
70
8
0
VERTEX
8
0
62
30
10
-0.028284274
20
0.19281955
30
0
70
32
0
VERTEX
8
0
62
30
10
-0.028284274
20
0.19281955
30
0
70
32
0
VERTEX
8
0
62
30
10
-0.028284274
20
0.19281955
30
0
70
32
0
SEQEND
8
0
0
POLYLINE
8
0
62
30
66
1
10
0
20
0
30
0
70
8
0
VERTEX
8
0
62
30
10
-2.9871578e-09
20
0.18557619
30
0
70
32
0
VERTEX
8
0
62
30
10
0.0056221413
20
0.19281955
30
0
70
32
0
VERTEX
8
0
62
30
10
-2.9871578e-09
20
0.2000629
30
0
70
32
0
SEQEND
8
0
0
POLYLINE
8
0
62
30
66
1
10
0
20
0
30
0
70
8
0
VERTEX
8
0
62
30
10
0.028284268
20
0.18557619
30
0
70
32
0
VERTEX
8
0
62
30
10
0.033906414
20
0.19281955
30
0
70
32
0
VERTEX
8
0
62
30
10
0.028284268
20
0.20006291
30
0
70
32
0
SEQEND
8
0
0
POLYLINE
8
0
62
30
66
1
10
0
20
0
30
0
70
8
0
VERTEX
8
0
62
30
10
0.05656854
20
0.19281954
30
0
70
32
0
VERTEX
8
0
62
30
10
0.056568542
20
0.19281955
30
0
70
32
0
VERTEX
8
0
62
30
10
0.05656854
20
0.19281955
30
0
70
32
0
SEQEND
8
0
0
POLYLINE
8
0
62
5
66
1
10
0
20
0
30
0
70
8
0
VERTEX
8
0
62
5
10
0.1979899
20
0.20156305
30
0
70
32
0
VERTEX
8
0
62
5
10
0.1979899
20
0.18407604
30
0
70
32
0
SEQEND
8
0
0
POLYLINE
8
0
62
5
66
1
10
0
20
0
30
0
70
8
0
VERTEX
8
0
62
5
10
0.084852811
20
0.19281955
30
0
70
32
0
VERTEX
8
0
62
5
10
0.11313708
20
0.18557619
30
0
70
32
0
VERTEX
8
0
62
5
10
0.14142135
20
0.18557619
30
0
70
32
0
VERTEX
8
0
62
5
10
0.16970562
20
0.19281954
30
0
70
32
0
VERTEX
8
0
62
5
10
0.1979899
20
0.19281955
30
0
70
32
0
SEQEND
8
0
0
POLYLINE
8
0
62
5
66
1
10
0
20
0
30
0
70
8
0
SEQEND
8
0
0
POLYLINE
8
0
62
5
66
1
10
0
20
0
30
0
70
8
0
VERTEX
8
0
62
5
10
0.084852811
20
0.19281955
30
0
70
32
0
VERTEX
8
0
62
5
10
0.11313708
20
0.2000629
30
0
70
32
0
VERTEX
8
0
62
5
10
0.14142135
20
0.20006291
30
0
70
32
0
VERTEX
8
0
62
5
10
0.16970562
20
0.19281955
30
0
70
32
0
VERTEX
8
0
62
5
10
0.1979899
20
0.19281955
30
0
70
32
0
SEQEND
8
0
0
POLYLINE
8
0
62
30
66
1
10
0
20
0
30
0
70
8
0
VERTEX
8
0
62
30
10
0.084852811
20
0.19281955
30
0
70
32
0
VERTEX
8
0
62
30
10
0.1979899
20
0.19281955
30
0
70
32
0
SEQEND
8
0
0
POLYLINE
8
0
62
30
66
1
10
0
20
0
30
0
70
8
0
VERTEX
8
0
62
30
10
0.11313708
20
0.18557619
30
0
70
32
0
VERTEX
8
0
62
30
10
0.11313708
20
0.19281955
30
0
70
32
0
SEQEND
8
0
0
POLYLINE
8
0
62
30
66
1
10
0
20
0
30
0
70
8
0
VERTEX
8
0
62
30
10
0.14142135
20
0.18557619
30
0
70
32
0
VERTEX
8
0
62
30
10
0.14142135
20
0.19281955
30
0
70
32
0
SEQEND
8
0
0
POLYLINE
8
0
62
30
66
1
10
0
20
0
30
0
70
8
0
VERTEX
8
0
62
30
10
0.16970562
20
0.19281954
30
0
70
32
0
VERTEX
8
0
62
30
10
0.16970562
20
0.19281955
30
0
70
32
0
SEQEND
8
0
0
POLYLINE
8
0
62
5
66
1
10
0
20
0
30
0
70
8
0
VERTEX
8
0
62
5
10
0.11313708
20
0.18407604
30
0
70
32
0
VERTEX
8
0
62
5
10
0.11313708
20
0.18557619
30
0
70
32
0
SEQEND
8
0
0
POLYLINE
8
0
62
5
66
1
10
0
20
0
30
0
70
8
0
VERTEX
8
0
62
5
10
0.14142135
20
0.18407604
30
0
70
32
0
VERTEX
8
0
62
5
10
0.14142135
20
0.18557619
30
0
70
32
0
SEQEND
8
0
0
POLYLINE
8
0
62
5
66
1
10
0
20
0
30
0
70
8
0
VERTEX
8
0
62
5
10
0.16970562
20
0.18407604
30
0
70
32
0
VERTEX
8
0
62
5
10
0.16970562
20
0.19281954
30
0
70
32
0
SEQEND
8
0
0
POLYLINE
8
0
62
5
66
1
10
0
20
0
30
0
70
8
0
VERTEX
8
0
62
5
10
0.11313708
20
0.19281955
30
0
70
32
0
VERTEX
8
0
62
5
10
0.11313708
20
0.20156305
30
0
70
32
0
SEQEND
8
0
0
POLYLINE
8
0
62
5
66
1
10
0
20
0
30
0
70
8
0
VERTEX
8
0
62
5
10
0.14142135
20
0.19281955
30
0
70
32
0
VERTEX
8
0
62
5
10
0.14142135
20
0.20156305
30
0
70
32
0
SEQEND
8
0
0
POLYLINE
8
0
62
5
66
1
10
0
20
0
30
0
70
8
0
VERTEX
8
0
62
5
10
0.16970562
20
0.19281955
30
0
70
32
0
VERTEX
8
0
62
5
10
0.16970562
20
0.20156305
30
0
70
32
0
SEQEND
8
0
0
POLYLINE
8
0
62
30
66
1
10
0
20
0
30
0
70
8
0
VERTEX
8
0
62
30
10
0.084852811
20
0.19281955
30
0
70
32
0
VERTEX
8
0
62
30
10
0.084852811
20
0.19281955
30
0
70
32
0
VERTEX
8
0
62
30
10
0.084852811
20
0.19281955
30
0
70
32
0
SEQEND
8
0
0
POLYLINE
8
0
62
30
66
1
10
0
20
0
30
0
70
8
0
VERTEX
8
0
62
30
10
0.11313708
20
0.18557619
30
0
70
32
0
VERTEX
8
0
62
30
10
0.11875923
20
0.19281955
30
0
70
32
0
VERTEX
8
0
62
30
10
0.11313708
20
0.2000629
30
0
70
32
0
SEQEND
8
0
0
POLYLINE
8
0
62
30
66
1
10
0
20
0
30
0
70
8
0
VERTEX
8
0
62
30
10
0.14142135
20
0.18557619
30
0
70
32
0
VERTEX
8
0
62
30
10
0.1470435
20
0.19281955
30
0
70
32
0
VERTEX
8
0
62
30
10
0.14142135
20
0.20006291
30
0
70
32
0
SEQEND
8
0
0
POLYLINE
8
0
62
30
66
1
10
0
20
0
30
0
70
8
0
VERTEX
8
0
62
30
10
0.16970562
20
0.19281954
30
0
70
32
0
VERTEX
8
0
62
30
10
0.16970563
20
0.19281955
30
0
70
32
0
VERTEX
8
0
62
30
10
0.16970562
20
0.19281955
30
0
70
32
0
SEQEND
8
0
0
POLYLINE
8
0
62
5
66
1
10
0
20
0
30
0
70
8
0
VERTEX
8
0
62
5
10
-0.14142136
20
0.18407604
30
0
70
32
0
VERTEX
8
0
62
5
10
-0.14142136
20
0.20156305
30
0
70
32
0
SEQEND
8
0
0
POLYLINE
8
0
62
5
66
1
10
0
20
0
30
0
70
8
0
VERTEX
8
0
62
5
10
-0.14142136
20
0.19281955
30
0
70
32
0
VERTEX
8
0
62
5
10
-0.11313709
20
0.18557619
30
0
70
32
0
VERTEX
8
0
62
5
10
-0.084852817
20
0.18557619
30
0
70
32
0
VERTEX
8
0
62
5
10
-0.056568545
20
0.19281954
30
0
70
32
0
VERTEX
8
0
62
5
10
-0.028284274
20
0.19281955
30
0
70
32
0
SEQEND
8
0
0
POLYLINE
8
0
62
5
66
1
10
0
20
0
30
0
70
8
0
SEQEND
8
0
0
POLYLINE
8
0
62
5
66
1
10
0
20
0
30
0
70
8
0
VERTEX
8
0
62
5
10
-0.14142136
20
0.19281955
30
0
70
32
0
VERTEX
8
0
62
5
10
-0.11313709
20
0.2000629
30
0
70
32
0
VERTEX
8
0
62
5
10
-0.084852817
20
0.20006291
30
0
70
32
0
VERTEX
8
0
62
5
10
-0.056568545
20
0.19281955
30
0
70
32
0
VERTEX
8
0
62
5
10
-0.028284274
20
0.19281955
30
0
70
32
0
SEQEND
8
0
0
POLYLINE
8
0
62
30
66
1
10
0
20
0
30
0
70
8
0
VERTEX
8
0
62
30
10
-0.14142136
20
0.19281955
30
0
70
32
0
VERTEX
8
0
62
30
10
-0.028284274
20
0.19281955
30
0
70
32
0
SEQEND
8
0
0
POLYLINE
8
0
62
30
66
1
10
0
20
0
30
0
70
8
0
VERTEX
8
0
62
30
10
-0.11313709
20
0.18557619
30
0
70
32
0
VERTEX
8
0
62
30
10
-0.11313709
20
0.19281955
30
0
70
32
0
SEQEND
8
0
0
POLYLINE
8
0
62
30
66
1
10
0
20
0
30
0
70
8
0
VERTEX
8
0
62
30
10
-0.084852817
20
0.18557619
30
0
70
32
0
VERTEX
8
0
62
30
10
-0.084852817
20
0.19281955
30
0
70
32
0
SEQEND
8
0
0
POLYLINE
8
0
62
30
66
1
10
0
20
0
30
0
70
8
0
VERTEX
8
0
62
30
10
-0.056568545
20
0.19281954
30
0
70
32
0
VERTEX
8
0
62
30
10
-0.056568545
20
0.19281955
30
0
70
32
0
SEQEND
8
0
0
POLYLINE
8
0
62
5
66
1
10
0
20
0
30
0
70
8
0
VERTEX
8
0
62
5
10
-0.11313709
20
0.18407604
30
0
70
32
0
VERTEX
8
0
62
5
10
-0.11313709
20
0.18557619
30
0
70
32
0
SEQEND
8
0
0
POLYLINE
8
0
62
5
66
1
10
0
20
0
30
0
70
8
0
VERTEX
8
0
62
5
10
-0.084852817
20
0.18407604
30
0
70
32
0
VERTEX
8
0
62
5
10
-0.084852817
20
0.18557619
30
0
70
32
0
SEQEND
8
0
0
POLYLINE
8
0
62
5
66
1
10
0
20
0
30
0
70
8
0
VERTEX
8
0
62
5
10
-0.056568545
20
0.18407604
30
0
70
32
0
VERTEX
8
0
62
5
10
-0.056568545
20
0.19281954
30
0
70
32
0
SEQEND
8
0
0
POLYLINE
8
0
62
5
66
1
10
0
20
0
30
0
70
8
0
VERTEX
8
0
62
5
10
-0.11313709
20
0.19281955
30
0
70
32
0
VERTEX
8
0
62
5
10
-0.11313709
20
0.20156305
30
0
70
32
0
SEQEND
8
0
0
POLYLINE
8
0
62
5
66
1
10
0
20
0
30
0
70
8
0
VERTEX
8
0
62
5
10
-0.084852817
20
0.19281955
30
0
70
32
0
VERTEX
8
0
62
5
10
-0.084852817
20
0.20156305
30
0
70
32
0
SEQEND
8
0
0
POLYLINE
8
0
62
5
66
1
10
0
20
0
30
0
70
8
0
VERTEX
8
0
62
5
10
-0.056568545
20
0.19281955
30
0
70
32
0
VERTEX
8
0
62
5
10
-0.056568545
20
0.20156305
30
0
70
32
0
SEQEND
8
0
0
POLYLINE
8
0
62
30
66
1
10
0
20
0
30
0
70
8
0
VERTEX
8
0
62
30
10
-0.14142136
20
0.19281955
30
0
70
32
0
VERTEX
8
0
62
30
10
-0.14142136
20
0.19281955
30
0
70
32
0
VERTEX
8
0
62
30
10
-0.14142136
20
0.19281955
30
0
70
32
0
SEQEND
8
0
0
POLYLINE
8
0
62
30
66
1
10
0
20
0
30
0
70
8
0
VERTEX
8
0
62
30
10
-0.11313709
20
0.18557619
30
0
70
32
0
VERTEX
8
0
62
30
10
-0.10751494
20
0.19281955
30
0
70
32
0
VERTEX
8
0
62
30
10
-0.11313709
20
0.2000629
30
0
70
32
0
SEQEND
8
0
0
POLYLINE
8
0
62
30
66
1
10
0
20
0
30
0
70
8
0
VERTEX
8
0
62
30
10
-0.084852817
20
0.18557619
30
0
70
32
0
VERTEX
8
0
62
30
10
-0.079230671
20
0.19281955
30
0
70
32
0
VERTEX
8
0
62
30
10
-0.084852817
20
0.20006291
30
0
70
32
0
SEQEND
8
0
0
POLYLINE
8
0
62
30
66
1
10
0
20
0
30
0
70
8
0
VERTEX
8
0
62
30
10
-0.056568545
20
0.19281954
30
0
70
32
0
VERTEX
8
0
62
30
10
-0.056568543
20
0.19281955
30
0
70
32
0
VERTEX
8
0
62
30
10
-0.056568545
20
0.19281955
30
0
70
32
0
SEQEND
8
0
0
POLYLINE
8
0
62
5
66
1
10
0
20
0
30
0
70
8
0
VERTEX
8
0
62
5
10
-0.028284274
20
0.20156305
30
0
70
32
0
VERTEX
8
0
62
5
10
-0.028284274
20
0.24156305
30
0
70
32
0
SEQEND
8
0
0
POLYLINE
8
0
62
5
66
1
10
0
20
0
30
0
70
8
0
VERTEX
8
0
62
5
10
0.084852811
20
0.24156305
30
0
70
32
0
VERTEX
8
0
62
5
10
0.084852811
20
0.20156305
30
0
70
32
0
SEQEND
8
0
0
POLYLINE
8
0
62
5
66
1
10
0
20
0
30
0
70
8
0
VERTEX
8
0
62
5
10
-0.028284274
20
0.20156305
30
0
70
32
0
VERTEX
8
0
62
5
10
0.084852811
20
0.20156305
30
0
70
32
0
SEQEND
8
0
0
POLYLINE
8
0
62
5
66
1
10
0
20
0
30
0
70
8
0
VERTEX
8
0
62
5
10
-0.028284274
20
0.24156305
30
0
70
32
0
VERTEX
8
0
62
5
10
0.084852811
20
0.24156305
30
0
70
32
0
SEQEND
8
0
0
POLYLINE
8
0
62
5
66
1
10
0
20
0
30
0
70
8
0
VERTEX
8
0
62
5
10
-2.9871578e-09
20
0.20156305
30
0
70
32
0
VERTEX
8
0
62
5
10
-2.9871578e-09
20
0.20156305
30
0
70
32
0
SEQEND
8
0
0
POLYLINE
8
0
62
5
66
1
10
0
20
0
30
0
70
8
0
VERTEX
8
0
62
5
10
0.028284268
20
0.20156305
30
0
70
32
0
VERTEX
8
0
62
5
10
0.028284268
20
0.20156305
30
0
70
32
0
SEQEND
8
0
0
POLYLINE
8
0
62
5
66
1
10
0
20
0
30
0
70
8
0
VERTEX
8
0
62
5
10
0.05656854
20
0.20156305
30
0
70
32
0
VERTEX
8
0
62
5
10
0.05656854
20
0.20156305
30
0
70
32
0
SEQEND
8
0
0
POLYLINE
8
0
62
5
66
1
10
0
20
0
30
0
70
8
0
VERTEX
8
0
62
5
10
-2.9871578e-09
20
0.24156305
30
0
70
32
0
VERTEX
8
0
62
5
10
-2.9871578e-09
20
0.24156305
30
0
70
32
0
SEQEND
8
0
0
POLYLINE
8
0
62
5
66
1
10
0
20
0
30
0
70
8
0
VERTEX
8
0
62
5
10
0.028284268
20
0.24156305
30
0
70
32
0
VERTEX
8
0
62
5
10
0.028284268
20
0.24156305
30
0
70
32
0
SEQEND
8
0
0
POLYLINE
8
0
62
5
66
1
10
0
20
0
30
0
70
8
0
VERTEX
8
0
62
5
10
0.05656854
20
0.24156305
30
0
70
32
0
VERTEX
8
0
62
5
10
0.05656854
20
0.24156305
30
0
70
32
0
SEQEND
8
0
0
POLYLINE
8
0
62
30
66
1
10
0
20
0
30
0
70
8
0
VERTEX
8
0
62
30
10
-0.028284274
20
0.24156305
30
0
70
32
0
VERTEX
8
0
62
30
10
-2.9871578e-09
20
0.20156305
30
0
70
32
0
SEQEND
8
0
0
POLYLINE
8
0
62
30
66
1
10
0
20
0
30
0
70
8
0
VERTEX
8
0
62
30
10
-2.9871578e-09
20
0.24156305
30
0
70
32
0
VERTEX
8
0
62
30
10
-0.028284274
20
0.20156305
30
0
70
32
0
SEQEND
8
0
0
POLYLINE
8
0
62
30
66
1
10
0
20
0
30
0
70
8
0
VERTEX
8
0
62
30
10
0.028284268
20
0.24156305
30
0
70
32
0
VERTEX
8
0
62
30
10
0.05656854
20
0.20156305
30
0
70
32
0
SEQEND
8
0
0
POLYLINE
8
0
62
30
66
1
10
0
20
0
30
0
70
8
0
VERTEX
8
0
62
30
10
0.05656854
20
0.24156305
30
0
70
32
0
VERTEX
8
0
62
30
10
0.028284268
20
0.20156305
30
0
70
32
0
SEQEND
8
0
0
POLYLINE
8
0
62
30
66
1
10
0
20
0
30
0
70
8
0
VERTEX
8
0
62
30
10
-2.9871578e-09
20
0.22156305
30
0
70
32
0
VERTEX
8
0
62
30
10
0.028284268
20
0.22156305
30
0
70
32
0
SEQEND
8
0
0
POLYLINE
8
0
62
30
66
1
10
0
20
0
30
0
70
8
0
VERTEX
8
0
62
30
10
0.05656854
20
0.22156305
30
0
70
32
0
VERTEX
8
0
62
30
10
0.084852811
20
0.22156305
30
0
70
32
0
SEQEND
8
0
0
POLYLINE
8
0
62
5
66
1
10
0
20
0
30
0
70
8
0
VERTEX
8
0
62
5
10
-0.028284274
20
0.22156305
30
0
70
32
0
VERTEX
8
0
62
5
10
-0.014142139
20
0.22156305
30
0
70
32
0
SEQEND
8
0
0
POLYLINE
8
0
62
5
66
1
10
0
20
0
30
0
70
8
0
VERTEX
8
0
62
5
10
0.028284268
20
0.22156305
30
0
70
32
0
VERTEX
8
0
62
5
10
0.042426404
20
0.22156305
30
0
70
32
0
SEQEND
8
0
0
POLYLINE
8
0
62
5
66
1
10
0
20
0
30
0
70
8
0
VERTEX
8
0
62
5
10
-0.014142139
20
0.22156305
30
0
70
32
0
VERTEX
8
0
62
5
10
-2.9871578e-09
20
0.22156305
30
0
70
32
0
SEQEND
8
0
0
POLYLINE
8
0
62
5
66
1
10
0
20
0
30
0
70
8
0
VERTEX
8
0
62
5
10
0.042426404
20
0.22156305
30
0
70
32
0
VERTEX
8
0
62
5
10
0.05656854
20
0.22156305
30
0
70
32
0
SEQEND
8
0
0
POLYLINE
8
0
62
5
66
1
10
0
20
0
30
0
70
8
0
VERTEX
8
0
62
5
10
-2.9871578e-09
20
0.20156305
30
0
70
32
0
VERTEX
8
0
62
5
10
-2.9871578e-09
20
0.24156305
30
0
70
32
0
SEQEND
8
0
0
POLYLINE
8
0
62
5
66
1
10
0
20
0
30
0
70
8
0
VERTEX
8
0
62
5
10
0.028284268
20
0.20156305
30
0
70
32
0
VERTEX
8
0
62
5
10
0.028284268
20
0.24156305
30
0
70
32
0
SEQEND
8
0
0
POLYLINE
8
0
62
5
66
1
10
0
20
0
30
0
70
8
0
VERTEX
8
0
62
5
10
0.05656854
20
0.20156305
30
0
70
32
0
VERTEX
8
0
62
5
10
0.05656854
20
0.24156305
30
0
70
32
0
SEQEND
8
0
0
POLYLINE
8
0
62
5
66
1
10
0
20
0
30
0
70
8
0
VERTEX
8
0
62
5
10
-0.028284274
20
0.20156305
30
0
70
32
0
VERTEX
8
0
62
5
10
-0.028284274
20
0.24156305
30
0
70
32
0
SEQEND
8
0
0
POLYLINE
8
0
62
5
66
1
10
0
20
0
30
0
70
8
0
VERTEX
8
0
62
5
10
0.1979899
20
0.24156305
30
0
70
32
0
VERTEX
8
0
62
5
10
0.1979899
20
0.20156305
30
0
70
32
0
SEQEND
8
0
0
POLYLINE
8
0
62
5
66
1
10
0
20
0
30
0
70
8
0
VERTEX
8
0
62
5
10
0.084852811
20
0.20156305
30
0
70
32
0
VERTEX
8
0
62
5
10
0.1979899
20
0.20156305
30
0
70
32
0
SEQEND
8
0
0
POLYLINE
8
0
62
5
66
1
10
0
20
0
30
0
70
8
0
VERTEX
8
0
62
5
10
0.084852811
20
0.24156305
30
0
70
32
0
VERTEX
8
0
62
5
10
0.1979899
20
0.24156305
30
0
70
32
0
SEQEND
8
0
0
POLYLINE
8
0
62
5
66
1
10
0
20
0
30
0
70
8
0
VERTEX
8
0
62
5
10
0.11313708
20
0.20156305
30
0
70
32
0
VERTEX
8
0
62
5
10
0.11313708
20
0.20156305
30
0
70
32
0
SEQEND
8
0
0
POLYLINE
8
0
62
5
66
1
10
0
20
0
30
0
70
8
0
VERTEX
8
0
62
5
10
0.14142135
20
0.20156305
30
0
70
32
0
VERTEX
8
0
62
5
10
0.14142135
20
0.20156305
30
0
70
32
0
SEQEND
8
0
0
POLYLINE
8
0
62
5
66
1
10
0
20
0
30
0
70
8
0
VERTEX
8
0
62
5
10
0.16970562
20
0.20156305
30
0
70
32
0
VERTEX
8
0
62
5
10
0.16970562
20
0.20156305
30
0
70
32
0
SEQEND
8
0
0
POLYLINE
8
0
62
5
66
1
10
0
20
0
30
0
70
8
0
VERTEX
8
0
62
5
10
0.11313708
20
0.24156305
30
0
70
32
0
VERTEX
8
0
62
5
10
0.11313708
20
0.24156305
30
0
70
32
0
SEQEND
8
0
0
POLYLINE
8
0
62
5
66
1
10
0
20
0
30
0
70
8
0
VERTEX
8
0
62
5
10
0.14142135
20
0.24156305
30
0
70
32
0
VERTEX
8
0
62
5
10
0.14142135
20
0.24156305
30
0
70
32
0
SEQEND
8
0
0
POLYLINE
8
0
62
5
66
1
10
0
20
0
30
0
70
8
0
VERTEX
8
0
62
5
10
0.16970562
20
0.24156305
30
0
70
32
0
VERTEX
8
0
62
5
10
0.16970562
20
0.24156305
30
0
70
32
0
SEQEND
8
0
0
POLYLINE
8
0
62
30
66
1
10
0
20
0
30
0
70
8
0
VERTEX
8
0
62
30
10
0.084852811
20
0.24156305
30
0
70
32
0
VERTEX
8
0
62
30
10
0.11313708
20
0.20156305
30
0
70
32
0
SEQEND
8
0
0
POLYLINE
8
0
62
30
66
1
10
0
20
0
30
0
70
8
0
VERTEX
8
0
62
30
10
0.11313708
20
0.24156305
30
0
70
32
0
VERTEX
8
0
62
30
10
0.084852811
20
0.20156305
30
0
70
32
0
SEQEND
8
0
0
POLYLINE
8
0
62
30
66
1
10
0
20
0
30
0
70
8
0
VERTEX
8
0
62
30
10
0.14142135
20
0.24156305
30
0
70
32
0
VERTEX
8
0
62
30
10
0.16970562
20
0.20156305
30
0
70
32
0
SEQEND
8
0
0
POLYLINE
8
0
62
30
66
1
10
0
20
0
30
0
70
8
0
VERTEX
8
0
62
30
10
0.16970562
20
0.24156305
30
0
70
32
0
VERTEX
8
0
62
30
10
0.14142135
20
0.20156305
30
0
70
32
0
SEQEND
8
0
0
POLYLINE
8
0
62
30
66
1
10
0
20
0
30
0
70
8
0
VERTEX
8
0
62
30
10
0.11313708
20
0.22156305
30
0
70
32
0
VERTEX
8
0
62
30
10
0.14142135
20
0.22156305
30
0
70
32
0
SEQEND
8
0
0
POLYLINE
8
0
62
30
66
1
10
0
20
0
30
0
70
8
0
VERTEX
8
0
62
30
10
0.16970562
20
0.22156305
30
0
70
32
0
VERTEX
8
0
62
30
10
0.1979899
20
0.22156305
30
0
70
32
0
SEQEND
8
0
0
POLYLINE
8
0
62
5
66
1
10
0
20
0
30
0
70
8
0
VERTEX
8
0
62
5
10
0.084852811
20
0.22156305
30
0
70
32
0
VERTEX
8
0
62
5
10
0.098994946
20
0.22156305
30
0
70
32
0
SEQEND
8
0
0
POLYLINE
8
0
62
5
66
1
10
0
20
0
30
0
70
8
0
VERTEX
8
0
62
5
10
0.14142135
20
0.22156305
30
0
70
32
0
VERTEX
8
0
62
5
10
0.15556349
20
0.22156305
30
0
70
32
0
SEQEND
8
0
0
POLYLINE
8
0
62
5
66
1
10
0
20
0
30
0
70
8
0
VERTEX
8
0
62
5
10
0.098994946
20
0.22156305
30
0
70
32
0
VERTEX
8
0
62
5
10
0.11313708
20
0.22156305
30
0
70
32
0
SEQEND
8
0
0
POLYLINE
8
0
62
5
66
1
10
0
20
0
30
0
70
8
0
VERTEX
8
0
62
5
10
0.15556349
20
0.22156305
30
0
70
32
0
VERTEX
8
0
62
5
10
0.16970562
20
0.22156305
30
0
70
32
0
SEQEND
8
0
0
POLYLINE
8
0
62
5
66
1
10
0
20
0
30
0
70
8
0
VERTEX
8
0
62
5
10
0.11313708
20
0.20156305
30
0
70
32
0
VERTEX
8
0
62
5
10
0.11313708
20
0.24156305
30
0
70
32
0
SEQEND
8
0
0
POLYLINE
8
0
62
5
66
1
10
0
20
0
30
0
70
8
0
VERTEX
8
0
62
5
10
0.14142135
20
0.20156305
30
0
70
32
0
VERTEX
8
0
62
5
10
0.14142135
20
0.24156305
30
0
70
32
0
SEQEND
8
0
0
POLYLINE
8
0
62
5
66
1
10
0
20
0
30
0
70
8
0
VERTEX
8
0
62
5
10
0.16970562
20
0.20156305
30
0
70
32
0
VERTEX
8
0
62
5
10
0.16970562
20
0.24156305
30
0
70
32
0
SEQEND
8
0
0
POLYLINE
8
0
62
5
66
1
10
0
20
0
30
0
70
8
0
VERTEX
8
0
62
5
10
0.084852811
20
0.20156305
30
0
70
32
0
VERTEX
8
0
62
5
10
0.084852811
20
0.24156305
30
0
70
32
0
SEQEND
8
0
0
POLYLINE
8
0
62
5
66
1
10
0
20
0
30
0
70
8
0
VERTEX
8
0
62
5
10
-0.14142136
20
0.20156305
30
0
70
32
0
VERTEX
8
0
62
5
10
-0.14142136
20
0.24156305
30
0
70
32
0
SEQEND
8
0
0
POLYLINE
8
0
62
5
66
1
10
0
20
0
30
0
70
8
0
VERTEX
8
0
62
5
10
-0.14142136
20
0.20156305
30
0
70
32
0
VERTEX
8
0
62
5
10
-0.028284274
20
0.20156305
30
0
70
32
0
SEQEND
8
0
0
POLYLINE
8
0
62
5
66
1
10
0
20
0
30
0
70
8
0
VERTEX
8
0
62
5
10
-0.14142136
20
0.24156305
30
0
70
32
0
VERTEX
8
0
62
5
10
-0.028284274
20
0.24156305
30
0
70
32
0
SEQEND
8
0
0
POLYLINE
8
0
62
5
66
1
10
0
20
0
30
0
70
8
0
VERTEX
8
0
62
5
10
-0.11313709
20
0.20156305
30
0
70
32
0
VERTEX
8
0
62
5
10
-0.11313709
20
0.20156305
30
0
70
32
0
SEQEND
8
0
0
POLYLINE
8
0
62
5
66
1
10
0
20
0
30
0
70
8
0
VERTEX
8
0
62
5
10
-0.084852817
20
0.20156305
30
0
70
32
0
VERTEX
8
0
62
5
10
-0.084852817
20
0.20156305
30
0
70
32
0
SEQEND
8
0
0
POLYLINE
8
0
62
5
66
1
10
0
20
0
30
0
70
8
0
VERTEX
8
0
62
5
10
-0.056568545
20
0.20156305
30
0
70
32
0
VERTEX
8
0
62
5
10
-0.056568545
20
0.20156305
30
0
70
32
0
SEQEND
8
0
0
POLYLINE
8
0
62
5
66
1
10
0
20
0
30
0
70
8
0
VERTEX
8
0
62
5
10
-0.11313709
20
0.24156305
30
0
70
32
0
VERTEX
8
0
62
5
10
-0.11313709
20
0.24156305
30
0
70
32
0
SEQEND
8
0
0
POLYLINE
8
0
62
5
66
1
10
0
20
0
30
0
70
8
0
VERTEX
8
0
62
5
10
-0.084852817
20
0.24156305
30
0
70
32
0
VERTEX
8
0
62
5
10
-0.084852817
20
0.24156305
30
0
70
32
0
SEQEND
8
0
0
POLYLINE
8
0
62
5
66
1
10
0
20
0
30
0
70
8
0
VERTEX
8
0
62
5
10
-0.056568545
20
0.24156305
30
0
70
32
0
VERTEX
8
0
62
5
10
-0.056568545
20
0.24156305
30
0
70
32
0
SEQEND
8
0
0
POLYLINE
8
0
62
30
66
1
10
0
20
0
30
0
70
8
0
VERTEX
8
0
62
30
10
-0.14142136
20
0.24156305
30
0
70
32
0
VERTEX
8
0
62
30
10
-0.11313709
20
0.20156305
30
0
70
32
0
SEQEND
8
0
0
POLYLINE
8
0
62
30
66
1
10
0
20
0
30
0
70
8
0
VERTEX
8
0
62
30
10
-0.11313709
20
0.24156305
30
0
70
32
0
VERTEX
8
0
62
30
10
-0.14142136
20
0.20156305
30
0
70
32
0
SEQEND
8
0
0
POLYLINE
8
0
62
30
66
1
10
0
20
0
30
0
70
8
0
VERTEX
8
0
62
30
10
-0.084852817
20
0.24156305
30
0
70
32
0
VERTEX
8
0
62
30
10
-0.056568545
20
0.20156305
30
0
70
32
0
SEQEND
8
0
0
POLYLINE
8
0
62
30
66
1
10
0
20
0
30
0
70
8
0
VERTEX
8
0
62
30
10
-0.056568545
20
0.24156305
30
0
70
32
0
VERTEX
8
0
62
30
10
-0.084852817
20
0.20156305
30
0
70
32
0
SEQEND
8
0
0
POLYLINE
8
0
62
30
66
1
10
0
20
0
30
0
70
8
0
VERTEX
8
0
62
30
10
-0.11313709
20
0.22156305
30
0
70
32
0
VERTEX
8
0
62
30
10
-0.084852817
20
0.22156305
30
0
70
32
0
SEQEND
8
0
0
POLYLINE
8
0
62
30
66
1
10
0
20
0
30
0
70
8
0
VERTEX
8
0
62
30
10
-0.056568545
20
0.22156305
30
0
70
32
0
VERTEX
8
0
62
30
10
-0.028284274
20
0.22156305
30
0
70
32
0
SEQEND
8
0
0
POLYLINE
8
0
62
5
66
1
10
0
20
0
30
0
70
8
0
VERTEX
8
0
62
5
10
-0.14142136
20
0.22156305
30
0
70
32
0
VERTEX
8
0
62
5
10
-0.12727922
20
0.22156305
30
0
70
32
0
SEQEND
8
0
0
POLYLINE
8
0
62
5
66
1
10
0
20
0
30
0
70
8
0
VERTEX
8
0
62
5
10
-0.084852817
20
0.22156305
30
0
70
32
0
VERTEX
8
0
62
5
10
-0.070710681
20
0.22156305
30
0
70
32
0
SEQEND
8
0
0
POLYLINE
8
0
62
5
66
1
10
0
20
0
30
0
70
8
0
VERTEX
8
0
62
5
10
-0.12727922
20
0.22156305
30
0
70
32
0
VERTEX
8
0
62
5
10
-0.11313709
20
0.22156305
30
0
70
32
0
SEQEND
8
0
0
POLYLINE
8
0
62
5
66
1
10
0
20
0
30
0
70
8
0
VERTEX
8
0
62
5
10
-0.070710681
20
0.22156305
30
0
70
32
0
VERTEX
8
0
62
5
10
-0.056568545
20
0.22156305
30
0
70
32
0
SEQEND
8
0
0
POLYLINE
8
0
62
5
66
1
10
0
20
0
30
0
70
8
0
VERTEX
8
0
62
5
10
-0.11313709
20
0.20156305
30
0
70
32
0
VERTEX
8
0
62
5
10
-0.11313709
20
0.24156305
30
0
70
32
0
SEQEND
8
0
0
POLYLINE
8
0
62
5
66
1
10
0
20
0
30
0
70
8
0
VERTEX
8
0
62
5
10
-0.084852817
20
0.20156305
30
0
70
32
0
VERTEX
8
0
62
5
10
-0.084852817
20
0.24156305
30
0
70
32
0
SEQEND
8
0
0
POLYLINE
8
0
62
5
66
1
10
0
20
0
30
0
70
8
0
VERTEX
8
0
62
5
10
-0.056568545
20
0.20156305
30
0
70
32
0
VERTEX
8
0
62
5
10
-0.056568545
20
0.24156305
30
0
70
32
0
SEQEND
8
0
0
POLYLINE
8
0
62
5
66
1
10
0
20
0
30
0
70
8
0
VERTEX
8
0
62
5
10
-0.14142136
20
0.20156305
30
0
70
32
0
VERTEX
8
0
62
5
10
-0.14142136
20
0.24156305
30
0
70
32
0
SEQEND
8
0
0
POLYLINE
8
0
62
5
66
1
10
0
20
0
30
0
70
8
0
VERTEX
8
0
62
5
10
-0.028284274
20
0.24156305
30
0
70
32
0
VERTEX
8
0
62
5
10
-0.028284274
20
0.24769122
30
0
70
32
0
SEQEND
8
0
0
POLYLINE
8
0
62
5
66
1
10
0
20
0
30
0
70
8
0
VERTEX
8
0
62
5
10
-2.9871578e-09
20
0.24156305
30
0
70
32
0
VERTEX
8
0
62
5
10
-2.9871578e-09
20
0.24769122
30
0
70
32
0
SEQEND
8
0
0
POLYLINE
8
0
62
5
66
1
10
0
20
0
30
0
70
8
0
VERTEX
8
0
62
5
10
0.028284268
20
0.24156305
30
0
70
32
0
VERTEX
8
0
62
5
10
0.028284268
20
0.24769122
30
0
70
32
0
SEQEND
8
0
0
POLYLINE
8
0
62
5
66
1
10
0
20
0
30
0
70
8
0
VERTEX
8
0
62
5
10
0.05656854
20
0.24156305
30
0
70
32
0
VERTEX
8
0
62
5
10
0.05656854
20
0.24769122
30
0
70
32
0
SEQEND
8
0
0
POLYLINE
8
0
62
5
66
1
10
0
20
0
30
0
70
8
0
VERTEX
8
0
62
5
10
0.084852811
20
0.24156305
30
0
70
32
0
VERTEX
8
0
62
5
10
0.084852811
20
0.24769122
30
0
70
32
0
SEQEND
8
0
0
POLYLINE
8
0
62
5
66
1
10
0
20
0
30
0
70
8
0
VERTEX
8
0
62
5
10
-2.9871578e-09
20
0.24156305
30
0
70
32
0
VERTEX
8
0
62
5
10
-2.9871578e-09
20
0.24156305
30
0
70
32
0
SEQEND
8
0
0
POLYLINE
8
0
62
5
66
1
10
0
20
0
30
0
70
8
0
VERTEX
8
0
62
5
10
0.028284268
20
0.24156305
30
0
70
32
0
VERTEX
8
0
62
5
10
0.028284268
20
0.24156305
30
0
70
32
0
SEQEND
8
0
0
POLYLINE
8
0
62
5
66
1
10
0
20
0
30
0
70
8
0
VERTEX
8
0
62
5
10
0.05656854
20
0.24156305
30
0
70
32
0
VERTEX
8
0
62
5
10
0.05656854
20
0.24156305
30
0
70
32
0
SEQEND
8
0
0
POLYLINE
8
0
62
5
66
1
10
0
20
0
30
0
70
8
0
VERTEX
8
0
62
5
10
-2.9871578e-09
20
0.24769122
30
0
70
32
0
VERTEX
8
0
62
5
10
-2.9871578e-09
20
0.24769122
30
0
70
32
0
SEQEND
8
0
0
POLYLINE
8
0
62
5
66
1
10
0
20
0
30
0
70
8
0
VERTEX
8
0
62
5
10
0.028284268
20
0.24769122
30
0
70
32
0
VERTEX
8
0
62
5
10
0.028284268
20
0.24769122
30
0
70
32
0
SEQEND
8
0
0
POLYLINE
8
0
62
5
66
1
10
0
20
0
30
0
70
8
0
VERTEX
8
0
62
5
10
0.05656854
20
0.24769122
30
0
70
32
0
VERTEX
8
0
62
5
10
0.05656854
20
0.24769122
30
0
70
32
0
SEQEND
8
0
0
POLYLINE
8
0
62
5
66
1
10
0
20
0
30
0
70
8
0
VERTEX
8
0
62
5
10
0.084852811
20
0.24769122
30
0
70
32
0
VERTEX
8
0
62
5
10
0.084852811
20
0.24769122
30
0
70
32
0
SEQEND
8
0
0
POLYLINE
8
0
62
5
66
1
10
0
20
0
30
0
70
8
0
VERTEX
8
0
62
5
10
0.11313708
20
0.24156305
30
0
70
32
0
VERTEX
8
0
62
5
10
0.11313708
20
0.24769122
30
0
70
32
0
SEQEND
8
0
0
POLYLINE
8
0
62
5
66
1
10
0
20
0
30
0
70
8
0
VERTEX
8
0
62
5
10
0.14142135
20
0.24156305
30
0
70
32
0
VERTEX
8
0
62
5
10
0.14142135
20
0.24769122
30
0
70
32
0
SEQEND
8
0
0
POLYLINE
8
0
62
5
66
1
10
0
20
0
30
0
70
8
0
VERTEX
8
0
62
5
10
0.16970562
20
0.24156305
30
0
70
32
0
VERTEX
8
0
62
5
10
0.16970562
20
0.24769122
30
0
70
32
0
SEQEND
8
0
0
POLYLINE
8
0
62
5
66
1
10
0
20
0
30
0
70
8
0
VERTEX
8
0
62
5
10
0.1979899
20
0.24156305
30
0
70
32
0
VERTEX
8
0
62
5
10
0.1979899
20
0.24769122
30
0
70
32
0
SEQEND
8
0
0
POLYLINE
8
0
62
5
66
1
10
0
20
0
30
0
70
8
0
VERTEX
8
0
62
5
10
0.11313708
20
0.24156305
30
0
70
32
0
VERTEX
8
0
62
5
10
0.11313708
20
0.24156305
30
0
70
32
0
SEQEND
8
0
0
POLYLINE
8
0
62
5
66
1
10
0
20
0
30
0
70
8
0
VERTEX
8
0
62
5
10
0.14142135
20
0.24156305
30
0
70
32
0
VERTEX
8
0
62
5
10
0.14142135
20
0.24156305
30
0
70
32
0
SEQEND
8
0
0
POLYLINE
8
0
62
5
66
1
10
0
20
0
30
0
70
8
0
VERTEX
8
0
62
5
10
0.16970562
20
0.24156305
30
0
70
32
0
VERTEX
8
0
62
5
10
0.16970562
20
0.24156305
30
0
70
32
0
SEQEND
8
0
0
POLYLINE
8
0
62
5
66
1
10
0
20
0
30
0
70
8
0
VERTEX
8
0
62
5
10
0.11313708
20
0.24769122
30
0
70
32
0
VERTEX
8
0
62
5
10
0.11313708
20
0.24769122
30
0
70
32
0
SEQEND
8
0
0
POLYLINE
8
0
62
5
66
1
10
0
20
0
30
0
70
8
0
VERTEX
8
0
62
5
10
0.14142135
20
0.24769122
30
0
70
32
0
VERTEX
8
0
62
5
10
0.14142135
20
0.24769122
30
0
70
32
0
SEQEND
8
0
0
POLYLINE
8
0
62
5
66
1
10
0
20
0
30
0
70
8
0
VERTEX
8
0
62
5
10
0.16970562
20
0.24769122
30
0
70
32
0
VERTEX
8
0
62
5
10
0.16970562
20
0.24769122
30
0
70
32
0
SEQEND
8
0
0
POLYLINE
8
0
62
5
66
1
10
0
20
0
30
0
70
8
0
VERTEX
8
0
62
5
10
0.1979899
20
0.24769122
30
0
70
32
0
VERTEX
8
0
62
5
10
0.1979899
20
0.24769122
30
0
70
32
0
SEQEND
8
0
0
POLYLINE
8
0
62
5
66
1
10
0
20
0
30
0
70
8
0
VERTEX
8
0
62
5
10
-0.11313709
20
0.24156305
30
0
70
32
0
VERTEX
8
0
62
5
10
-0.11313709
20
0.24769122
30
0
70
32
0
SEQEND
8
0
0
POLYLINE
8
0
62
5
66
1
10
0
20
0
30
0
70
8
0
VERTEX
8
0
62
5
10
-0.084852817
20
0.24156305
30
0
70
32
0
VERTEX
8
0
62
5
10
-0.084852817
20
0.24769122
30
0
70
32
0
SEQEND
8
0
0
POLYLINE
8
0
62
5
66
1
10
0
20
0
30
0
70
8
0
VERTEX
8
0
62
5
10
-0.056568545
20
0.24156305
30
0
70
32
0
VERTEX
8
0
62
5
10
-0.056568545
20
0.24769122
30
0
70
32
0
SEQEND
8
0
0
POLYLINE
8
0
62
5
66
1
10
0
20
0
30
0
70
8
0
VERTEX
8
0
62
5
10
-0.028284274
20
0.24156305
30
0
70
32
0
VERTEX
8
0
62
5
10
-0.028284274
20
0.24769122
30
0
70
32
0
SEQEND
8
0
0
POLYLINE
8
0
62
5
66
1
10
0
20
0
30
0
70
8
0
VERTEX
8
0
62
5
10
-0.11313709
20
0.24156305
30
0
70
32
0
VERTEX
8
0
62
5
10
-0.11313709
20
0.24156305
30
0
70
32
0
SEQEND
8
0
0
POLYLINE
8
0
62
5
66
1
10
0
20
0
30
0
70
8
0
VERTEX
8
0
62
5
10
-0.084852817
20
0.24156305
30
0
70
32
0
VERTEX
8
0
62
5
10
-0.084852817
20
0.24156305
30
0
70
32
0
SEQEND
8
0
0
POLYLINE
8
0
62
5
66
1
10
0
20
0
30
0
70
8
0
VERTEX
8
0
62
5
10
-0.056568545
20
0.24156305
30
0
70
32
0
VERTEX
8
0
62
5
10
-0.056568545
20
0.24156305
30
0
70
32
0
SEQEND
8
0
0
POLYLINE
8
0
62
5
66
1
10
0
20
0
30
0
70
8
0
VERTEX
8
0
62
5
10
-0.11313709
20
0.24769122
30
0
70
32
0
VERTEX
8
0
62
5
10
-0.11313709
20
0.24769122
30
0
70
32
0
SEQEND
8
0
0
POLYLINE
8
0
62
5
66
1
10
0
20
0
30
0
70
8
0
VERTEX
8
0
62
5
10
-0.084852817
20
0.24769122
30
0
70
32
0
VERTEX
8
0
62
5
10
-0.084852817
20
0.24769122
30
0
70
32
0
SEQEND
8
0
0
POLYLINE
8
0
62
5
66
1
10
0
20
0
30
0
70
8
0
VERTEX
8
0
62
5
10
-0.056568545
20
0.24769122
30
0
70
32
0
VERTEX
8
0
62
5
10
-0.056568545
20
0.24769122
30
0
70
32
0
SEQEND
8
0
0
POLYLINE
8
0
62
5
66
1
10
0
20
0
30
0
70
8
0
VERTEX
8
0
62
5
10
-0.028284274
20
0.24769122
30
0
70
32
0
VERTEX
8
0
62
5
10
-0.028284274
20
0.24769122
30
0
70
32
0
SEQEND
8
0
0
POLYLINE
8
0
62
5
66
1
10
0
20
0
30
0
70
8
0
VERTEX
8
0
62
5
10
-0.028284274
20
0.24769122
30
0
70
32
0
VERTEX
8
0
62
5
10
-0.028284274
20
0.27220387
30
0
70
32
0
SEQEND
8
0
0
POLYLINE
8
0
62
5
66
1
10
0
20
0
30
0
70
8
0
VERTEX
8
0
62
5
10
0.084852811
20
0.24769122
30
0
70
32
0
VERTEX
8
0
62
5
10
0.084852811
20
0.27220387
30
0
70
32
0
SEQEND
8
0
0
POLYLINE
8
0
62
5
66
1
10
0
20
0
30
0
70
8
0
VERTEX
8
0
62
5
10
-2.9871578e-09
20
0.24769122
30
0
70
32
0
VERTEX
8
0
62
5
10
-2.9871578e-09
20
0.27220387
30
0
70
32
0
SEQEND
8
0
0
POLYLINE
8
0
62
5
66
1
10
0
20
0
30
0
70
8
0
VERTEX
8
0
62
5
10
0.028284268
20
0.24769122
30
0
70
32
0
VERTEX
8
0
62
5
10
0.028284268
20
0.27220387
30
0
70
32
0
SEQEND
8
0
0
POLYLINE
8
0
62
5
66
1
10
0
20
0
30
0
70
8
0
VERTEX
8
0
62
5
10
0.05656854
20
0.24769122
30
0
70
32
0
VERTEX
8
0
62
5
10
0.05656854
20
0.27220387
30
0
70
32
0
SEQEND
8
0
0
POLYLINE
8
0
62
5
66
1
10
0
20
0
30
0
70
8
0
VERTEX
8
0
62
5
10
0.1979899
20
0.24769122
30
0
70
32
0
VERTEX
8
0
62
5
10
0.1979899
20
0.27220387
30
0
70
32
0
SEQEND
8
0
0
POLYLINE
8
0
62
5
66
1
10
0
20
0
30
0
70
8
0
VERTEX
8
0
62
5
10
0.11313708
20
0.24769122
30
0
70
32
0
VERTEX
8
0
62
5
10
0.11313708
20
0.27220387
30
0
70
32
0
SEQEND
8
0
0
POLYLINE
8
0
62
5
66
1
10
0
20
0
30
0
70
8
0
VERTEX
8
0
62
5
10
0.14142135
20
0.24769122
30
0
70
32
0
VERTEX
8
0
62
5
10
0.14142135
20
0.27220387
30
0
70
32
0
SEQEND
8
0
0
POLYLINE
8
0
62
5
66
1
10
0
20
0
30
0
70
8
0
VERTEX
8
0
62
5
10
0.16970562
20
0.24769122
30
0
70
32
0
VERTEX
8
0
62
5
10
0.16970562
20
0.27220387
30
0
70
32
0
SEQEND
8
0
0
POLYLINE
8
0
62
5
66
1
10
0
20
0
30
0
70
8
0
VERTEX
8
0
62
5
10
-0.14142136
20
0.24769122
30
0
70
32
0
VERTEX
8
0
62
5
10
-0.14142136
20
0.27220387
30
0
70
32
0
SEQEND
8
0
0
POLYLINE
8
0
62
5
66
1
10
0
20
0
30
0
70
8
0
VERTEX
8
0
62
5
10
-0.11313709
20
0.24769122
30
0
70
32
0
VERTEX
8
0
62
5
10
-0.11313709
20
0.27220387
30
0
70
32
0
SEQEND
8
0
0
POLYLINE
8
0
62
5
66
1
10
0
20
0
30
0
70
8
0
VERTEX
8
0
62
5
10
-0.084852817
20
0.24769122
30
0
70
32
0
VERTEX
8
0
62
5
10
-0.084852817
20
0.27220387
30
0
70
32
0
SEQEND
8
0
0
POLYLINE
8
0
62
5
66
1
10
0
20
0
30
0
70
8
0
VERTEX
8
0
62
5
10
-0.056568545
20
0.24769122
30
0
70
32
0
VERTEX
8
0
62
5
10
-0.056568545
20
0.27220387
30
0
70
32
0
SEQEND
8
0
0
POLYLINE
8
0
62
5
66
1
10
0
20
0
30
0
70
8
0
VERTEX
8
0
62
5
10
-0.028284274
20
0.27220387
30
0
70
32
0
VERTEX
8
0
62
5
10
-0.028284274
20
0.31220387
30
0
70
32
0
SEQEND
8
0
0
POLYLINE
8
0
62
5
66
1
10
0
20
0
30
0
70
8
0
VERTEX
8
0
62
5
10
0.084852811
20
0.31220387
30
0
70
32
0
VERTEX
8
0
62
5
10
0.084852811
20
0.27220387
30
0
70
32
0
SEQEND
8
0
0
POLYLINE
8
0
62
5
66
1
10
0
20
0
30
0
70
8
0
VERTEX
8
0
62
5
10
-0.028284274
20
0.27220387
30
0
70
32
0
VERTEX
8
0
62
5
10
0.084852811
20
0.27220387
30
0
70
32
0
SEQEND
8
0
0
POLYLINE
8
0
62
5
66
1
10
0
20
0
30
0
70
8
0
VERTEX
8
0
62
5
10
-0.028284274
20
0.31220387
30
0
70
32
0
VERTEX
8
0
62
5
10
0.084852811
20
0.31220387
30
0
70
32
0
SEQEND
8
0
0
POLYLINE
8
0
62
5
66
1
10
0
20
0
30
0
70
8
0
VERTEX
8
0
62
5
10
-2.9871578e-09
20
0.27220387
30
0
70
32
0
VERTEX
8
0
62
5
10
-2.9871578e-09
20
0.27220387
30
0
70
32
0
SEQEND
8
0
0
POLYLINE
8
0
62
5
66
1
10
0
20
0
30
0
70
8
0
VERTEX
8
0
62
5
10
0.028284268
20
0.27220387
30
0
70
32
0
VERTEX
8
0
62
5
10
0.028284268
20
0.27220387
30
0
70
32
0
SEQEND
8
0
0
POLYLINE
8
0
62
5
66
1
10
0
20
0
30
0
70
8
0
VERTEX
8
0
62
5
10
0.05656854
20
0.27220387
30
0
70
32
0
VERTEX
8
0
62
5
10
0.05656854
20
0.27220387
30
0
70
32
0
SEQEND
8
0
0
POLYLINE
8
0
62
5
66
1
10
0
20
0
30
0
70
8
0
VERTEX
8
0
62
5
10
-2.9871578e-09
20
0.31220387
30
0
70
32
0
VERTEX
8
0
62
5
10
-2.9871578e-09
20
0.31220387
30
0
70
32
0
SEQEND
8
0
0
POLYLINE
8
0
62
5
66
1
10
0
20
0
30
0
70
8
0
VERTEX
8
0
62
5
10
0.028284268
20
0.31220387
30
0
70
32
0
VERTEX
8
0
62
5
10
0.028284268
20
0.31220387
30
0
70
32
0
SEQEND
8
0
0
POLYLINE
8
0
62
5
66
1
10
0
20
0
30
0
70
8
0
VERTEX
8
0
62
5
10
0.05656854
20
0.31220387
30
0
70
32
0
VERTEX
8
0
62
5
10
0.05656854
20
0.31220387
30
0
70
32
0
SEQEND
8
0
0
POLYLINE
8
0
62
30
66
1
10
0
20
0
30
0
70
8
0
VERTEX
8
0
62
30
10
-0.028284274
20
0.27220387
30
0
70
32
0
VERTEX
8
0
62
30
10
-0.014142139
20
0.29220387
30
0
70
32
0
SEQEND
8
0
0
POLYLINE
8
0
62
30
66
1
10
0
20
0
30
0
70
8
0
VERTEX
8
0
62
30
10
-0.014142139
20
0.29220387
30
0
70
32
0
VERTEX
8
0
62
30
10
-2.9871578e-09
20
0.27220387
30
0
70
32
0
SEQEND
8
0
0
POLYLINE
8
0
62
30
66
1
10
0
20
0
30
0
70
8
0
VERTEX
8
0
62
30
10
0.028284268
20
0.27220387
30
0
70
32
0
VERTEX
8
0
62
30
10
0.042426404
20
0.29220387
30
0
70
32
0
SEQEND
8
0
0
POLYLINE
8
0
62
30
66
1
10
0
20
0
30
0
70
8
0
VERTEX
8
0
62
30
10
0.042426404
20
0.29220387
30
0
70
32
0
VERTEX
8
0
62
30
10
0.05656854
20
0.27220387
30
0
70
32
0
SEQEND
8
0
0
POLYLINE
8
0
62
30
66
1
10
0
20
0
30
0
70
8
0
VERTEX
8
0
62
30
10
-2.9871578e-09
20
0.29220387
30
0
70
32
0
VERTEX
8
0
62
30
10
0.028284268
20
0.29220387
30
0
70
32
0
SEQEND
8
0
0
POLYLINE
8
0
62
30
66
1
10
0
20
0
30
0
70
8
0
VERTEX
8
0
62
30
10
0.05656854
20
0.29220387
30
0
70
32
0
VERTEX
8
0
62
30
10
0.084852811
20
0.29220387
30
0
70
32
0
SEQEND
8
0
0
POLYLINE
8
0
62
5
66
1
10
0
20
0
30
0
70
8
0
VERTEX
8
0
62
5
10
-0.028284274
20
0.29220387
30
0
70
32
0
VERTEX
8
0
62
5
10
-0.014142139
20
0.29220387
30
0
70
32
0
SEQEND
8
0
0
POLYLINE
8
0
62
5
66
1
10
0
20
0
30
0
70
8
0
VERTEX
8
0
62
5
10
0.028284268
20
0.29220387
30
0
70
32
0
VERTEX
8
0
62
5
10
0.042426404
20
0.29220387
30
0
70
32
0
SEQEND
8
0
0
POLYLINE
8
0
62
5
66
1
10
0
20
0
30
0
70
8
0
VERTEX
8
0
62
5
10
-0.014142139
20
0.29220387
30
0
70
32
0
VERTEX
8
0
62
5
10
-2.9871578e-09
20
0.29220387
30
0
70
32
0
SEQEND
8
0
0
POLYLINE
8
0
62
5
66
1
10
0
20
0
30
0
70
8
0
VERTEX
8
0
62
5
10
0.042426404
20
0.29220387
30
0
70
32
0
VERTEX
8
0
62
5
10
0.05656854
20
0.29220387
30
0
70
32
0
SEQEND
8
0
0
POLYLINE
8
0
62
5
66
1
10
0
20
0
30
0
70
8
0
VERTEX
8
0
62
5
10
-2.9871578e-09
20
0.27220387
30
0
70
32
0
VERTEX
8
0
62
5
10
-2.9871578e-09
20
0.31220387
30
0
70
32
0
SEQEND
8
0
0
POLYLINE
8
0
62
5
66
1
10
0
20
0
30
0
70
8
0
VERTEX
8
0
62
5
10
0.028284268
20
0.27220387
30
0
70
32
0
VERTEX
8
0
62
5
10
0.028284268
20
0.31220387
30
0
70
32
0
SEQEND
8
0
0
POLYLINE
8
0
62
5
66
1
10
0
20
0
30
0
70
8
0
VERTEX
8
0
62
5
10
0.05656854
20
0.27220387
30
0
70
32
0
VERTEX
8
0
62
5
10
0.05656854
20
0.31220387
30
0
70
32
0
SEQEND
8
0
0
POLYLINE
8
0
62
5
66
1
10
0
20
0
30
0
70
8
0
VERTEX
8
0
62
5
10
-0.028284274
20
0.27220387
30
0
70
32
0
VERTEX
8
0
62
5
10
-0.028284274
20
0.31220387
30
0
70
32
0
SEQEND
8
0
0
POLYLINE
8
0
62
5
66
1
10
0
20
0
30
0
70
8
0
VERTEX
8
0
62
5
10
0.1979899
20
0.31220387
30
0
70
32
0
VERTEX
8
0
62
5
10
0.1979899
20
0.27220387
30
0
70
32
0
SEQEND
8
0
0
POLYLINE
8
0
62
5
66
1
10
0
20
0
30
0
70
8
0
VERTEX
8
0
62
5
10
0.084852811
20
0.27220387
30
0
70
32
0
VERTEX
8
0
62
5
10
0.1979899
20
0.27220387
30
0
70
32
0
SEQEND
8
0
0
POLYLINE
8
0
62
5
66
1
10
0
20
0
30
0
70
8
0
VERTEX
8
0
62
5
10
0.084852811
20
0.31220387
30
0
70
32
0
VERTEX
8
0
62
5
10
0.1979899
20
0.31220387
30
0
70
32
0
SEQEND
8
0
0
POLYLINE
8
0
62
5
66
1
10
0
20
0
30
0
70
8
0
VERTEX
8
0
62
5
10
0.11313708
20
0.27220387
30
0
70
32
0
VERTEX
8
0
62
5
10
0.11313708
20
0.27220387
30
0
70
32
0
SEQEND
8
0
0
POLYLINE
8
0
62
5
66
1
10
0
20
0
30
0
70
8
0
VERTEX
8
0
62
5
10
0.14142135
20
0.27220387
30
0
70
32
0
VERTEX
8
0
62
5
10
0.14142135
20
0.27220387
30
0
70
32
0
SEQEND
8
0
0
POLYLINE
8
0
62
5
66
1
10
0
20
0
30
0
70
8
0
VERTEX
8
0
62
5
10
0.16970562
20
0.27220387
30
0
70
32
0
VERTEX
8
0
62
5
10
0.16970562
20
0.27220387
30
0
70
32
0
SEQEND
8
0
0
POLYLINE
8
0
62
5
66
1
10
0
20
0
30
0
70
8
0
VERTEX
8
0
62
5
10
0.11313708
20
0.31220387
30
0
70
32
0
VERTEX
8
0
62
5
10
0.11313708
20
0.31220387
30
0
70
32
0
SEQEND
8
0
0
POLYLINE
8
0
62
5
66
1
10
0
20
0
30
0
70
8
0
VERTEX
8
0
62
5
10
0.14142135
20
0.31220387
30
0
70
32
0
VERTEX
8
0
62
5
10
0.14142135
20
0.31220387
30
0
70
32
0
SEQEND
8
0
0
POLYLINE
8
0
62
5
66
1
10
0
20
0
30
0
70
8
0
VERTEX
8
0
62
5
10
0.16970562
20
0.31220387
30
0
70
32
0
VERTEX
8
0
62
5
10
0.16970562
20
0.31220387
30
0
70
32
0
SEQEND
8
0
0
POLYLINE
8
0
62
30
66
1
10
0
20
0
30
0
70
8
0
VERTEX
8
0
62
30
10
0.084852811
20
0.27220387
30
0
70
32
0
VERTEX
8
0
62
30
10
0.098994946
20
0.29220387
30
0
70
32
0
SEQEND
8
0
0
POLYLINE
8
0
62
30
66
1
10
0
20
0
30
0
70
8
0
VERTEX
8
0
62
30
10
0.098994946
20
0.29220387
30
0
70
32
0
VERTEX
8
0
62
30
10
0.11313708
20
0.27220387
30
0
70
32
0
SEQEND
8
0
0
POLYLINE
8
0
62
30
66
1
10
0
20
0
30
0
70
8
0
VERTEX
8
0
62
30
10
0.14142135
20
0.27220387
30
0
70
32
0
VERTEX
8
0
62
30
10
0.15556349
20
0.29220387
30
0
70
32
0
SEQEND
8
0
0
POLYLINE
8
0
62
30
66
1
10
0
20
0
30
0
70
8
0
VERTEX
8
0
62
30
10
0.15556349
20
0.29220387
30
0
70
32
0
VERTEX
8
0
62
30
10
0.16970562
20
0.27220387
30
0
70
32
0
SEQEND
8
0
0
POLYLINE
8
0
62
30
66
1
10
0
20
0
30
0
70
8
0
VERTEX
8
0
62
30
10
0.11313708
20
0.29220387
30
0
70
32
0
VERTEX
8
0
62
30
10
0.14142135
20
0.29220387
30
0
70
32
0
SEQEND
8
0
0
POLYLINE
8
0
62
30
66
1
10
0
20
0
30
0
70
8
0
VERTEX
8
0
62
30
10
0.16970562
20
0.29220387
30
0
70
32
0
VERTEX
8
0
62
30
10
0.1979899
20
0.29220387
30
0
70
32
0
SEQEND
8
0
0
POLYLINE
8
0
62
5
66
1
10
0
20
0
30
0
70
8
0
VERTEX
8
0
62
5
10
0.084852811
20
0.29220387
30
0
70
32
0
VERTEX
8
0
62
5
10
0.098994946
20
0.29220387
30
0
70
32
0
SEQEND
8
0
0
POLYLINE
8
0
62
5
66
1
10
0
20
0
30
0
70
8
0
VERTEX
8
0
62
5
10
0.14142135
20
0.29220387
30
0
70
32
0
VERTEX
8
0
62
5
10
0.15556349
20
0.29220387
30
0
70
32
0
SEQEND
8
0
0
POLYLINE
8
0
62
5
66
1
10
0
20
0
30
0
70
8
0
VERTEX
8
0
62
5
10
0.098994946
20
0.29220387
30
0
70
32
0
VERTEX
8
0
62
5
10
0.11313708
20
0.29220387
30
0
70
32
0
SEQEND
8
0
0
POLYLINE
8
0
62
5
66
1
10
0
20
0
30
0
70
8
0
VERTEX
8
0
62
5
10
0.15556349
20
0.29220387
30
0
70
32
0
VERTEX
8
0
62
5
10
0.16970562
20
0.29220387
30
0
70
32
0
SEQEND
8
0
0
POLYLINE
8
0
62
5
66
1
10
0
20
0
30
0
70
8
0
VERTEX
8
0
62
5
10
0.11313708
20
0.27220387
30
0
70
32
0
VERTEX
8
0
62
5
10
0.11313708
20
0.31220387
30
0
70
32
0
SEQEND
8
0
0
POLYLINE
8
0
62
5
66
1
10
0
20
0
30
0
70
8
0
VERTEX
8
0
62
5
10
0.14142135
20
0.27220387
30
0
70
32
0
VERTEX
8
0
62
5
10
0.14142135
20
0.31220387
30
0
70
32
0
SEQEND
8
0
0
POLYLINE
8
0
62
5
66
1
10
0
20
0
30
0
70
8
0
VERTEX
8
0
62
5
10
0.16970562
20
0.27220387
30
0
70
32
0
VERTEX
8
0
62
5
10
0.16970562
20
0.31220387
30
0
70
32
0
SEQEND
8
0
0
POLYLINE
8
0
62
5
66
1
10
0
20
0
30
0
70
8
0
VERTEX
8
0
62
5
10
0.084852811
20
0.27220387
30
0
70
32
0
VERTEX
8
0
62
5
10
0.084852811
20
0.31220387
30
0
70
32
0
SEQEND
8
0
0
POLYLINE
8
0
62
5
66
1
10
0
20
0
30
0
70
8
0
VERTEX
8
0
62
5
10
-0.14142136
20
0.27220387
30
0
70
32
0
VERTEX
8
0
62
5
10
-0.14142136
20
0.31220387
30
0
70
32
0
SEQEND
8
0
0
POLYLINE
8
0
62
5
66
1
10
0
20
0
30
0
70
8
0
VERTEX
8
0
62
5
10
-0.14142136
20
0.27220387
30
0
70
32
0
VERTEX
8
0
62
5
10
-0.028284274
20
0.27220387
30
0
70
32
0
SEQEND
8
0
0
POLYLINE
8
0
62
5
66
1
10
0
20
0
30
0
70
8
0
VERTEX
8
0
62
5
10
-0.14142136
20
0.31220387
30
0
70
32
0
VERTEX
8
0
62
5
10
-0.028284274
20
0.31220387
30
0
70
32
0
SEQEND
8
0
0
POLYLINE
8
0
62
5
66
1
10
0
20
0
30
0
70
8
0
VERTEX
8
0
62
5
10
-0.11313709
20
0.27220387
30
0
70
32
0
VERTEX
8
0
62
5
10
-0.11313709
20
0.27220387
30
0
70
32
0
SEQEND
8
0
0
POLYLINE
8
0
62
5
66
1
10
0
20
0
30
0
70
8
0
VERTEX
8
0
62
5
10
-0.084852817
20
0.27220387
30
0
70
32
0
VERTEX
8
0
62
5
10
-0.084852817
20
0.27220387
30
0
70
32
0
SEQEND
8
0
0
POLYLINE
8
0
62
5
66
1
10
0
20
0
30
0
70
8
0
VERTEX
8
0
62
5
10
-0.056568545
20
0.27220387
30
0
70
32
0
VERTEX
8
0
62
5
10
-0.056568545
20
0.27220387
30
0
70
32
0
SEQEND
8
0
0
POLYLINE
8
0
62
5
66
1
10
0
20
0
30
0
70
8
0
VERTEX
8
0
62
5
10
-0.11313709
20
0.31220387
30
0
70
32
0
VERTEX
8
0
62
5
10
-0.11313709
20
0.31220387
30
0
70
32
0
SEQEND
8
0
0
POLYLINE
8
0
62
5
66
1
10
0
20
0
30
0
70
8
0
VERTEX
8
0
62
5
10
-0.084852817
20
0.31220387
30
0
70
32
0
VERTEX
8
0
62
5
10
-0.084852817
20
0.31220387
30
0
70
32
0
SEQEND
8
0
0
POLYLINE
8
0
62
5
66
1
10
0
20
0
30
0
70
8
0
VERTEX
8
0
62
5
10
-0.056568545
20
0.31220387
30
0
70
32
0
VERTEX
8
0
62
5
10
-0.056568545
20
0.31220387
30
0
70
32
0
SEQEND
8
0
0
POLYLINE
8
0
62
30
66
1
10
0
20
0
30
0
70
8
0
VERTEX
8
0
62
30
10
-0.14142136
20
0.27220387
30
0
70
32
0
VERTEX
8
0
62
30
10
-0.12727922
20
0.29220387
30
0
70
32
0
SEQEND
8
0
0
POLYLINE
8
0
62
30
66
1
10
0
20
0
30
0
70
8
0
VERTEX
8
0
62
30
10
-0.12727922
20
0.29220387
30
0
70
32
0
VERTEX
8
0
62
30
10
-0.11313709
20
0.27220387
30
0
70
32
0
SEQEND
8
0
0
POLYLINE
8
0
62
30
66
1
10
0
20
0
30
0
70
8
0
VERTEX
8
0
62
30
10
-0.084852817
20
0.27220387
30
0
70
32
0
VERTEX
8
0
62
30
10
-0.070710681
20
0.29220387
30
0
70
32
0
SEQEND
8
0
0
POLYLINE
8
0
62
30
66
1
10
0
20
0
30
0
70
8
0
VERTEX
8
0
62
30
10
-0.070710681
20
0.29220387
30
0
70
32
0
VERTEX
8
0
62
30
10
-0.056568545
20
0.27220387
30
0
70
32
0
SEQEND
8
0
0
POLYLINE
8
0
62
30
66
1
10
0
20
0
30
0
70
8
0
VERTEX
8
0
62
30
10
-0.11313709
20
0.29220387
30
0
70
32
0
VERTEX
8
0
62
30
10
-0.084852817
20
0.29220387
30
0
70
32
0
SEQEND
8
0
0
POLYLINE
8
0
62
30
66
1
10
0
20
0
30
0
70
8
0
VERTEX
8
0
62
30
10
-0.056568545
20
0.29220387
30
0
70
32
0
VERTEX
8
0
62
30
10
-0.028284274
20
0.29220387
30
0
70
32
0
SEQEND
8
0
0
POLYLINE
8
0
62
5
66
1
10
0
20
0
30
0
70
8
0
VERTEX
8
0
62
5
10
-0.14142136
20
0.29220387
30
0
70
32
0
VERTEX
8
0
62
5
10
-0.12727922
20
0.29220387
30
0
70
32
0
SEQEND
8
0
0
POLYLINE
8
0
62
5
66
1
10
0
20
0
30
0
70
8
0
VERTEX
8
0
62
5
10
-0.084852817
20
0.29220387
30
0
70
32
0
VERTEX
8
0
62
5
10
-0.070710681
20
0.29220387
30
0
70
32
0
SEQEND
8
0
0
POLYLINE
8
0
62
5
66
1
10
0
20
0
30
0
70
8
0
VERTEX
8
0
62
5
10
-0.12727922
20
0.29220387
30
0
70
32
0
VERTEX
8
0
62
5
10
-0.11313709
20
0.29220387
30
0
70
32
0
SEQEND
8
0
0
POLYLINE
8
0
62
5
66
1
10
0
20
0
30
0
70
8
0
VERTEX
8
0
62
5
10
-0.070710681
20
0.29220387
30
0
70
32
0
VERTEX
8
0
62
5
10
-0.056568545
20
0.29220387
30
0
70
32
0
SEQEND
8
0
0
POLYLINE
8
0
62
5
66
1
10
0
20
0
30
0
70
8
0
VERTEX
8
0
62
5
10
-0.11313709
20
0.27220387
30
0
70
32
0
VERTEX
8
0
62
5
10
-0.11313709
20
0.31220387
30
0
70
32
0
SEQEND
8
0
0
POLYLINE
8
0
62
5
66
1
10
0
20
0
30
0
70
8
0
VERTEX
8
0
62
5
10
-0.084852817
20
0.27220387
30
0
70
32
0
VERTEX
8
0
62
5
10
-0.084852817
20
0.31220387
30
0
70
32
0
SEQEND
8
0
0
POLYLINE
8
0
62
5
66
1
10
0
20
0
30
0
70
8
0
VERTEX
8
0
62
5
10
-0.056568545
20
0.27220387
30
0
70
32
0
VERTEX
8
0
62
5
10
-0.056568545
20
0.31220387
30
0
70
32
0
SEQEND
8
0
0
POLYLINE
8
0
62
5
66
1
10
0
20
0
30
0
70
8
0
VERTEX
8
0
62
5
10
-0.14142136
20
0.27220387
30
0
70
32
0
VERTEX
8
0
62
5
10
-0.14142136
20
0.31220387
30
0
70
32
0
SEQEND
8
0
0
POLYLINE
8
0
62
18
66
1
10
0
20
0
30
0
70
8
0
VERTEX
8
0
62
18
10
0.14142136
20
0
30
0
70
32
0
VERTEX
8
0
62
18
10
0
20
0
30
0
70
32
0
VERTEX
8
0
62
18
10
0
20
0.31220387
30
0
70
32
0
VERTEX
8
0
62
18
10
0.14142136
20
0.31220387
30
0
70
32
0
VERTEX
8
0
62
18
10
0.14142136
20
0
30
0
70
32
0
SEQEND
8
0
0
ENDSEC
0
EOF
