0
SECTION
2
HEADER
9
$ACADVER
1
AC1006
9
$INSUNITS
70
6
0
ENDSEC
0
SECTION
2
ENTITIES
0
POLYLINE
8
0
62
5
66
1
10
0
20
0
30
0
70
8
0
VERTEX
8
0
62
5
10
0
20
0
30
0
70
32
0
VERTEX
8
0
62
5
10
0
20
0.1
30
0
70
32
0
SEQEND
8
0
0
POLYLINE
8
0
62
5
66
1
10
0
20
0
30
0
70
8
0
VERTEX
8
0
62
5
10
0.11313708
20
0
30
0
70
32
0
VERTEX
8
0
62
5
10
0.11313708
20
0.1
30
0
70
32
0
SEQEND
8
0
0
POLYLINE
8
0
62
5
66
1
10
0
20
0
30
0
70
8
0
VERTEX
8
0
62
5
10
0.028284271
20
0
30
0
70
32
0
VERTEX
8
0
62
5
10
0.028284271
20
0.1
30
0
70
32
0
SEQEND
8
0
0
POLYLINE
8
0
62
5
66
1
10
0
20
0
30
0
70
8
0
VERTEX
8
0
62
5
10
0.056568542
20
0
30
0
70
32
0
VERTEX
8
0
62
5
10
0.056568542
20
0.1
30
0
70
32
0
SEQEND
8
0
0
POLYLINE
8
0
62
5
66
1
10
0
20
0
30
0
70
8
0
VERTEX
8
0
62
5
10
0.084852814
20
0
30
0
70
32
0
VERTEX
8
0
62
5
10
0.084852814
20
0.1
30
0
70
32
0
SEQEND
8
0
0
POLYLINE
8
0
62
5
66
1
10
0
20
0
30
0
70
8
0
VERTEX
8
0
62
5
10
0.22627417
20
0
30
0
70
32
0
VERTEX
8
0
62
5
10
0.22627417
20
0.1
30
0
70
32
0
SEQEND
8
0
0
POLYLINE
8
0
62
5
66
1
10
0
20
0
30
0
70
8
0
VERTEX
8
0
62
5
10
0.14142136
20
0
30
0
70
32
0
VERTEX
8
0
62
5
10
0.14142136
20
0.1
30
0
70
32
0
SEQEND
8
0
0
POLYLINE
8
0
62
5
66
1
10
0
20
0
30
0
70
8
0
VERTEX
8
0
62
5
10
0.16970563
20
0
30
0
70
32
0
VERTEX
8
0
62
5
10
0.16970563
20
0.1
30
0
70
32
0
SEQEND
8
0
0
POLYLINE
8
0
62
5
66
1
10
0
20
0
30
0
70
8
0
VERTEX
8
0
62
5
10
0.1979899
20
0
30
0
70
32
0
VERTEX
8
0
62
5
10
0.1979899
20
0.1
30
0
70
32
0
SEQEND
8
0
0
POLYLINE
8
0
62
5
66
1
10
0
20
0
30
0
70
8
0
VERTEX
8
0
62
5
10
-0.11313708
20
0
30
0
70
32
0
VERTEX
8
0
62
5
10
-0.11313708
20
0.1
30
0
70
32
0
SEQEND
8
0
0
POLYLINE
8
0
62
5
66
1
10
0
20
0
30
0
70
8
0
VERTEX
8
0
62
5
10
-0.084852814
20
0
30
0
70
32
0
VERTEX
8
0
62
5
10
-0.084852814
20
0.1
30
0
70
32
0
SEQEND
8
0
0
POLYLINE
8
0
62
5
66
1
10
0
20
0
30
0
70
8
0
VERTEX
8
0
62
5
10
-0.056568542
20
0
30
0
70
32
0
VERTEX
8
0
62
5
10
-0.056568542
20
0.1
30
0
70
32
0
SEQEND
8
0
0
POLYLINE
8
0
62
5
66
1
10
0
20
0
30
0
70
8
0
VERTEX
8
0
62
5
10
-0.028284271
20
0
30
0
70
32
0
VERTEX
8
0
62
5
10
-0.028284271
20
0.1
30
0
70
32
0
SEQEND
8
0
0
POLYLINE
8
0
62
5
66
1
10
0
20
0
30
0
70
8
0
VERTEX
8
0
62
5
10
0
20
0.1
30
0
70
32
0
VERTEX
8
0
62
5
10
0
20
0.14
30
0
70
32
0
SEQEND
8
0
0
POLYLINE
8
0
62
5
66
1
10
0
20
0
30
0
70
8
0
VERTEX
8
0
62
5
10
0.11313708
20
0.14
30
0
70
32
0
VERTEX
8
0
62
5
10
0.11313708
20
0.1
30
0
70
32
0
SEQEND
8
0
0
POLYLINE
8
0
62
5
66
1
10
0
20
0
30
0
70
8
0
VERTEX
8
0
62
5
10
0
20
0.1
30
0
70
32
0
VERTEX
8
0
62
5
10
0.11313708
20
0.1
30
0
70
32
0
SEQEND
8
0
0
POLYLINE
8
0
62
5
66
1
10
0
20
0
30
0
70
8
0
VERTEX
8
0
62
5
10
0
20
0.14
30
0
70
32
0
VERTEX
8
0
62
5
10
0.11313708
20
0.14
30
0
70
32
0
SEQEND
8
0
0
POLYLINE
8
0
62
5
66
1
10
0
20
0
30
0
70
8
0
VERTEX
8
0
62
5
10
0.028284271
20
0.1
30
0
70
32
0
VERTEX
8
0
62
5
10
0.028284271
20
0.1
30
0
70
32
0
SEQEND
8
0
0
POLYLINE
8
0
62
5
66
1
10
0
20
0
30
0
70
8
0
VERTEX
8
0
62
5
10
0.056568542
20
0.1
30
0
70
32
0
VERTEX
8
0
62
5
10
0.056568542
20
0.1
30
0
70
32
0
SEQEND
8
0
0
POLYLINE
8
0
62
5
66
1
10
0
20
0
30
0
70
8
0
VERTEX
8
0
62
5
10
0.084852814
20
0.1
30
0
70
32
0
VERTEX
8
0
62
5
10
0.084852814
20
0.1
30
0
70
32
0
SEQEND
8
0
0
POLYLINE
8
0
62
5
66
1
10
0
20
0
30
0
70
8
0
VERTEX
8
0
62
5
10
0.028284271
20
0.14
30
0
70
32
0
VERTEX
8
0
62
5
10
0.028284271
20
0.14
30
0
70
32
0
SEQEND
8
0
0
POLYLINE
8
0
62
5
66
1
10
0
20
0
30
0
70
8
0
VERTEX
8
0
62
5
10
0.056568542
20
0.14
30
0
70
32
0
VERTEX
8
0
62
5
10
0.056568542
20
0.14
30
0
70
32
0
SEQEND
8
0
0
POLYLINE
8
0
62
5
66
1
10
0
20
0
30
0
70
8
0
VERTEX
8
0
62
5
10
0.084852814
20
0.14
30
0
70
32
0
VERTEX
8
0
62
5
10
0.084852814
20
0.14
30
0
70
32
0
SEQEND
8
0
0
POLYLINE
8
0
62
30
66
1
10
0
20
0
30
0
70
8
0
VERTEX
8
0
62
30
10
0
20
0.14
30
0
70
32
0
VERTEX
8
0
62
30
10
0.028284271
20
0.1
30
0
70
32
0
SEQEND
8
0
0
POLYLINE
8
0
62
30
66
1
10
0
20
0
30
0
70
8
0
VERTEX
8
0
62
30
10
0.028284271
20
0.14
30
0
70
32
0
VERTEX
8
0
62
30
10
0
20
0.1
30
0
70
32
0
SEQEND
8
0
0
POLYLINE
8
0
62
30
66
1
10
0
20
0
30
0
70
8
0
VERTEX
8
0
62
30
10
0.056568542
20
0.14
30
0
70
32
0
VERTEX
8
0
62
30
10
0.084852814
20
0.1
30
0
70
32
0
SEQEND
8
0
0
POLYLINE
8
0
62
30
66
1
10
0
20
0
30
0
70
8
0
VERTEX
8
0
62
30
10
0.084852814
20
0.14
30
0
70
32
0
VERTEX
8
0
62
30
10
0.056568542
20
0.1
30
0
70
32
0
SEQEND
8
0
0
POLYLINE
8
0
62
30
66
1
10
0
20
0
30
0
70
8
0
VERTEX
8
0
62
30
10
0.028284271
20
0.12
30
0
70
32
0
VERTEX
8
0
62
30
10
0.056568542
20
0.12
30
0
70
32
0
SEQEND
8
0
0
POLYLINE
8
0
62
30
66
1
10
0
20
0
30
0
70
8
0
VERTEX
8
0
62
30
10
0.084852814
20
0.12
30
0
70
32
0
VERTEX
8
0
62
30
10
0.11313708
20
0.12
30
0
70
32
0
SEQEND
8
0
0
POLYLINE
8
0
62
5
66
1
10
0
20
0
30
0
70
8
0
VERTEX
8
0
62
5
10
0
20
0.12
30
0
70
32
0
VERTEX
8
0
62
5
10
0.014142136
20
0.12
30
0
70
32
0
SEQEND
8
0
0
POLYLINE
8
0
62
5
66
1
10
0
20
0
30
0
70
8
0
VERTEX
8
0
62
5
10
0.056568542
20
0.12
30
0
70
32
0
VERTEX
8
0
62
5
10
0.070710678
20
0.12
30
0
70
32
0
SEQEND
8
0
0
POLYLINE
8
0
62
5
66
1
10
0
20
0
30
0
70
8
0
VERTEX
8
0
62
5
10
0.014142136
20
0.12
30
0
70
32
0
VERTEX
8
0
62
5
10
0.028284271
20
0.12
30
0
70
32
0
SEQEND
8
0
0
POLYLINE
8
0
62
5
66
1
10
0
20
0
30
0
70
8
0
VERTEX
8
0
62
5
10
0.070710678
20
0.12
30
0
70
32
0
VERTEX
8
0
62
5
10
0.084852814
20
0.12
30
0
70
32
0
SEQEND
8
0
0
POLYLINE
8
0
62
5
66
1
10
0
20
0
30
0
70
8
0
VERTEX
8
0
62
5
10
0.028284271
20
0.1
30
0
70
32
0
VERTEX
8
0
62
5
10
0.028284271
20
0.14
30
0
70
32
0
SEQEND
8
0
0
POLYLINE
8
0
62
5
66
1
10
0
20
0
30
0
70
8
0
VERTEX
8
0
62
5
10
0.056568542
20
0.1
30
0
70
32
0
VERTEX
8
0
62
5
10
0.056568542
20
0.14
30
0
70
32
0
SEQEND
8
0
0
POLYLINE
8
0
62
5
66
1
10
0
20
0
30
0
70
8
0
VERTEX
8
0
62
5
10
0.084852814
20
0.1
30
0
70
32
0
VERTEX
8
0
62
5
10
0.084852814
20
0.14
30
0
70
32
0
SEQEND
8
0
0
POLYLINE
8
0
62
5
66
1
10
0
20
0
30
0
70
8
0
VERTEX
8
0
62
5
10
0
20
0.1
30
0
70
32
0
VERTEX
8
0
62
5
10
0
20
0.14
30
0
70
32
0
SEQEND
8
0
0
POLYLINE
8
0
62
5
66
1
10
0
20
0
30
0
70
8
0
VERTEX
8
0
62
5
10
0.22627417
20
0.14
30
0
70
32
0
VERTEX
8
0
62
5
10
0.22627417
20
0.1
30
0
70
32
0
SEQEND
8
0
0
POLYLINE
8
0
62
5
66
1
10
0
20
0
30
0
70
8
0
VERTEX
8
0
62
5
10
0.11313708
20
0.1
30
0
70
32
0
VERTEX
8
0
62
5
10
0.22627417
20
0.1
30
0
70
32
0
SEQEND
8
0
0
POLYLINE
8
0
62
5
66
1
10
0
20
0
30
0
70
8
0
VERTEX
8
0
62
5
10
0.11313708
20
0.14
30
0
70
32
0
VERTEX
8
0
62
5
10
0.22627417
20
0.14
30
0
70
32
0
SEQEND
8
0
0
POLYLINE
8
0
62
5
66
1
10
0
20
0
30
0
70
8
0
VERTEX
8
0
62
5
10
0.14142136
20
0.1
30
0
70
32
0
VERTEX
8
0
62
5
10
0.14142136
20
0.1
30
0
70
32
0
SEQEND
8
0
0
POLYLINE
8
0
62
5
66
1
10
0
20
0
30
0
70
8
0
VERTEX
8
0
62
5
10
0.16970563
20
0.1
30
0
70
32
0
VERTEX
8
0
62
5
10
0.16970563
20
0.1
30
0
70
32
0
SEQEND
8
0
0
POLYLINE
8
0
62
5
66
1
10
0
20
0
30
0
70
8
0
VERTEX
8
0
62
5
10
0.1979899
20
0.1
30
0
70
32
0
VERTEX
8
0
62
5
10
0.1979899
20
0.1
30
0
70
32
0
SEQEND
8
0
0
POLYLINE
8
0
62
5
66
1
10
0
20
0
30
0
70
8
0
VERTEX
8
0
62
5
10
0.14142136
20
0.14
30
0
70
32
0
VERTEX
8
0
62
5
10
0.14142136
20
0.14
30
0
70
32
0
SEQEND
8
0
0
POLYLINE
8
0
62
5
66
1
10
0
20
0
30
0
70
8
0
VERTEX
8
0
62
5
10
0.16970563
20
0.14
30
0
70
32
0
VERTEX
8
0
62
5
10
0.16970563
20
0.14
30
0
70
32
0
SEQEND
8
0
0
POLYLINE
8
0
62
5
66
1
10
0
20
0
30
0
70
8
0
VERTEX
8
0
62
5
10
0.1979899
20
0.14
30
0
70
32
0
VERTEX
8
0
62
5
10
0.1979899
20
0.14
30
0
70
32
0
SEQEND
8
0
0
POLYLINE
8
0
62
30
66
1
10
0
20
0
30
0
70
8
0
VERTEX
8
0
62
30
10
0.11313708
20
0.14
30
0
70
32
0
VERTEX
8
0
62
30
10
0.14142136
20
0.1
30
0
70
32
0
SEQEND
8
0
0
POLYLINE
8
0
62
30
66
1
10
0
20
0
30
0
70
8
0
VERTEX
8
0
62
30
10
0.14142136
20
0.14
30
0
70
32
0
VERTEX
8
0
62
30
10
0.11313708
20
0.1
30
0
70
32
0
SEQEND
8
0
0
POLYLINE
8
0
62
30
66
1
10
0
20
0
30
0
70
8
0
VERTEX
8
0
62
30
10
0.16970563
20
0.14
30
0
70
32
0
VERTEX
8
0
62
30
10
0.1979899
20
0.1
30
0
70
32
0
SEQEND
8
0
0
POLYLINE
8
0
62
30
66
1
10
0
20
0
30
0
70
8
0
VERTEX
8
0
62
30
10
0.1979899
20
0.14
30
0
70
32
0
VERTEX
8
0
62
30
10
0.16970563
20
0.1
30
0
70
32
0
SEQEND
8
0
0
POLYLINE
8
0
62
30
66
1
10
0
20
0
30
0
70
8
0
VERTEX
8
0
62
30
10
0.14142136
20
0.12
30
0
70
32
0
VERTEX
8
0
62
30
10
0.16970563
20
0.12
30
0
70
32
0
SEQEND
8
0
0
POLYLINE
8
0
62
30
66
1
10
0
20
0
30
0
70
8
0
VERTEX
8
0
62
30
10
0.1979899
20
0.12
30
0
70
32
0
VERTEX
8
0
62
30
10
0.22627417
20
0.12
30
0
70
32
0
SEQEND
8
0
0
POLYLINE
8
0
62
5
66
1
10
0
20
0
30
0
70
8
0
VERTEX
8
0
62
5
10
0.11313708
20
0.12
30
0
70
32
0
VERTEX
8
0
62
5
10
0.12727922
20
0.12
30
0
70
32
0
SEQEND
8
0
0
POLYLINE
8
0
62
5
66
1
10
0
20
0
30
0
70
8
0
VERTEX
8
0
62
5
10
0.16970563
20
0.12
30
0
70
32
0
VERTEX
8
0
62
5
10
0.18384776
20
0.12
30
0
70
32
0
SEQEND
8
0
0
POLYLINE
8
0
62
5
66
1
10
0
20
0
30
0
70
8
0
VERTEX
8
0
62
5
10
0.12727922
20
0.12
30
0
70
32
0
VERTEX
8
0
62
5
10
0.14142136
20
0.12
30
0
70
32
0
SEQEND
8
0
0
POLYLINE
8
0
62
5
66
1
10
0
20
0
30
0
70
8
0
VERTEX
8
0
62
5
10
0.18384776
20
0.12
30
0
70
32
0
VERTEX
8
0
62
5
10
0.1979899
20
0.12
30
0
70
32
0
SEQEND
8
0
0
POLYLINE
8
0
62
5
66
1
10
0
20
0
30
0
70
8
0
VERTEX
8
0
62
5
10
0.14142136
20
0.1
30
0
70
32
0
VERTEX
8
0
62
5
10
0.14142136
20
0.14
30
0
70
32
0
SEQEND
8
0
0
POLYLINE
8
0
62
5
66
1
10
0
20
0
30
0
70
8
0
VERTEX
8
0
62
5
10
0.16970563
20
0.1
30
0
70
32
0
VERTEX
8
0
62
5
10
0.16970563
20
0.14
30
0
70
32
0
SEQEND
8
0
0
POLYLINE
8
0
62
5
66
1
10
0
20
0
30
0
70
8
0
VERTEX
8
0
62
5
10
0.1979899
20
0.1
30
0
70
32
0
VERTEX
8
0
62
5
10
0.1979899
20
0.14
30
0
70
32
0
SEQEND
8
0
0
POLYLINE
8
0
62
5
66
1
10
0
20
0
30
0
70
8
0
VERTEX
8
0
62
5
10
0.11313708
20
0.1
30
0
70
32
0
VERTEX
8
0
62
5
10
0.11313708
20
0.14
30
0
70
32
0
SEQEND
8
0
0
POLYLINE
8
0
62
5
66
1
10
0
20
0
30
0
70
8
0
VERTEX
8
0
62
5
10
-0.11313708
20
0.1
30
0
70
32
0
VERTEX
8
0
62
5
10
-0.11313708
20
0.14
30
0
70
32
0
SEQEND
8
0
0
POLYLINE
8
0
62
5
66
1
10
0
20
0
30
0
70
8
0
VERTEX
8
0
62
5
10
-0.11313708
20
0.1
30
0
70
32
0
VERTEX
8
0
62
5
10
0
20
0.1
30
0
70
32
0
SEQEND
8
0
0
POLYLINE
8
0
62
5
66
1
10
0
20
0
30
0
70
8
0
VERTEX
8
0
62
5
10
-0.11313708
20
0.14
30
0
70
32
0
VERTEX
8
0
62
5
10
0
20
0.14
30
0
70
32
0
SEQEND
8
0
0
POLYLINE
8
0
62
5
66
1
10
0
20
0
30
0
70
8
0
VERTEX
8
0
62
5
10
-0.084852814
20
0.1
30
0
70
32
0
VERTEX
8
0
62
5
10
-0.084852814
20
0.1
30
0
70
32
0
SEQEND
8
0
0
POLYLINE
8
0
62
5
66
1
10
0
20
0
30
0
70
8
0
VERTEX
8
0
62
5
10
-0.056568542
20
0.1
30
0
70
32
0
VERTEX
8
0
62
5
10
-0.056568542
20
0.1
30
0
70
32
0
SEQEND
8
0
0
POLYLINE
8
0
62
5
66
1
10
0
20
0
30
0
70
8
0
VERTEX
8
0
62
5
10
-0.028284271
20
0.1
30
0
70
32
0
VERTEX
8
0
62
5
10
-0.028284271
20
0.1
30
0
70
32
0
SEQEND
8
0
0
POLYLINE
8
0
62
5
66
1
10
0
20
0
30
0
70
8
0
VERTEX
8
0
62
5
10
-0.084852814
20
0.14
30
0
70
32
0
VERTEX
8
0
62
5
10
-0.084852814
20
0.14
30
0
70
32
0
SEQEND
8
0
0
POLYLINE
8
0
62
5
66
1
10
0
20
0
30
0
70
8
0
VERTEX
8
0
62
5
10
-0.056568542
20
0.14
30
0
70
32
0
VERTEX
8
0
62
5
10
-0.056568542
20
0.14
30
0
70
32
0
SEQEND
8
0
0
POLYLINE
8
0
62
5
66
1
10
0
20
0
30
0
70
8
0
VERTEX
8
0
62
5
10
-0.028284271
20
0.14
30
0
70
32
0
VERTEX
8
0
62
5
10
-0.028284271
20
0.14
30
0
70
32
0
SEQEND
8
0
0
POLYLINE
8
0
62
30
66
1
10
0
20
0
30
0
70
8
0
VERTEX
8
0
62
30
10
-0.11313708
20
0.14
30
0
70
32
0
VERTEX
8
0
62
30
10
-0.084852814
20
0.1
30
0
70
32
0
SEQEND
8
0
0
POLYLINE
8
0
62
30
66
1
10
0
20
0
30
0
70
8
0
VERTEX
8
0
62
30
10
-0.084852814
20
0.14
30
0
70
32
0
VERTEX
8
0
62
30
10
-0.11313708
20
0.1
30
0
70
32
0
SEQEND
8
0
0
POLYLINE
8
0
62
30
66
1
10
0
20
0
30
0
70
8
0
VERTEX
8
0
62
30
10
-0.056568542
20
0.14
30
0
70
32
0
VERTEX
8
0
62
30
10
-0.028284271
20
0.1
30
0
70
32
0
SEQEND
8
0
0
POLYLINE
8
0
62
30
66
1
10
0
20
0
30
0
70
8
0
VERTEX
8
0
62
30
10
-0.028284271
20
0.14
30
0
70
32
0
VERTEX
8
0
62
30
10
-0.056568542
20
0.1
30
0
70
32
0
SEQEND
8
0
0
POLYLINE
8
0
62
30
66
1
10
0
20
0
30
0
70
8
0
VERTEX
8
0
62
30
10
-0.084852814
20
0.12
30
0
70
32
0
VERTEX
8
0
62
30
10
-0.056568542
20
0.12
30
0
70
32
0
SEQEND
8
0
0
POLYLINE
8
0
62
30
66
1
10
0
20
0
30
0
70
8
0
VERTEX
8
0
62
30
10
-0.028284271
20
0.12
30
0
70
32
0
VERTEX
8
0
62
30
10
0
20
0.12
30
0
70
32
0
SEQEND
8
0
0
POLYLINE
8
0
62
5
66
1
10
0
20
0
30
0
70
8
0
VERTEX
8
0
62
5
10
-0.11313708
20
0.12
30
0
70
32
0
VERTEX
8
0
62
5
10
-0.098994949
20
0.12
30
0
70
32
0
SEQEND
8
0
0
POLYLINE
8
0
62
5
66
1
10
0
20
0
30
0
70
8
0
VERTEX
8
0
62
5
10
-0.056568542
20
0.12
30
0
70
32
0
VERTEX
8
0
62
5
10
-0.042426407
20
0.12
30
0
70
32
0
SEQEND
8
0
0
POLYLINE
8
0
62
5
66
1
10
0
20
0
30
0
70
8
0
VERTEX
8
0
62
5
10
-0.098994949
20
0.12
30
0
70
32
0
VERTEX
8
0
62
5
10
-0.084852814
20
0.12
30
0
70
32
0
SEQEND
8
0
0
POLYLINE
8
0
62
5
66
1
10
0
20
0
30
0
70
8
0
VERTEX
8
0
62
5
10
-0.042426407
20
0.12
30
0
70
32
0
VERTEX
8
0
62
5
10
-0.028284271
20
0.12
30
0
70
32
0
SEQEND
8
0
0
POLYLINE
8
0
62
5
66
1
10
0
20
0
30
0
70
8
0
VERTEX
8
0
62
5
10
-0.084852814
20
0.1
30
0
70
32
0
VERTEX
8
0
62
5
10
-0.084852814
20
0.14
30
0
70
32
0
SEQEND
8
0
0
POLYLINE
8
0
62
5
66
1
10
0
20
0
30
0
70
8
0
VERTEX
8
0
62
5
10
-0.056568542
20
0.1
30
0
70
32
0
VERTEX
8
0
62
5
10
-0.056568542
20
0.14
30
0
70
32
0
SEQEND
8
0
0
POLYLINE
8
0
62
5
66
1
10
0
20
0
30
0
70
8
0
VERTEX
8
0
62
5
10
-0.028284271
20
0.1
30
0
70
32
0
VERTEX
8
0
62
5
10
-0.028284271
20
0.14
30
0
70
32
0
SEQEND
8
0
0
POLYLINE
8
0
62
5
66
1
10
0
20
0
30
0
70
8
0
VERTEX
8
0
62
5
10
-0.11313708
20
0.1
30
0
70
32
0
VERTEX
8
0
62
5
10
-0.11313708
20
0.14
30
0
70
32
0
SEQEND
8
0
0
POLYLINE
8
0
62
5
66
1
10
0
20
0
30
0
70
8
0
VERTEX
8
0
62
5
10
0
20
0.14
30
0
70
32
0
VERTEX
8
0
62
5
10
0
20
0.21535487
30
0
70
32
0
SEQEND
8
0
0
POLYLINE
8
0
62
5
66
1
10
0
20
0
30
0
70
8
0
VERTEX
8
0
62
5
10
0.11313708
20
0.21535487
30
0
70
32
0
VERTEX
8
0
62
5
10
0.11313708
20
0.14
30
0
70
32
0
SEQEND
8
0
0
POLYLINE
8
0
62
5
66
1
10
0
20
0
30
0
70
8
0
VERTEX
8
0
62
5
10
0
20
0.1400705
30
0
70
32
0
VERTEX
8
0
62
5
10
0.028284271
20
0.15060707
30
0
70
32
0
VERTEX
8
0
62
5
10
0.056568542
20
0.15883872
30
0
70
32
0
VERTEX
8
0
62
5
10
0.084852814
20
0.14830215
30
0
70
32
0
VERTEX
8
0
62
5
10
0.11313708
20
0.1400705
30
0
70
32
0
SEQEND
8
0
0
POLYLINE
8
0
62
5
66
1
10
0
20
0
30
0
70
8
0
VERTEX
8
0
62
5
10
0
20
0.17774794
30
0
70
32
0
VERTEX
8
0
62
5
10
0.028284271
20
0.18828451
30
0
70
32
0
VERTEX
8
0
62
5
10
0.056568542
20
0.19651615
30
0
70
32
0
VERTEX
8
0
62
5
10
0.084852814
20
0.18597958
30
0
70
32
0
VERTEX
8
0
62
5
10
0.11313708
20
0.17774794
30
0
70
32
0
SEQEND
8
0
0
POLYLINE
8
0
62
5
66
1
10
0
20
0
30
0
70
8
0
VERTEX
8
0
62
5
10
0
20
0.17760693
30
0
70
32
0
VERTEX
8
0
62
5
10
0.028284271
20
0.16707036
30
0
70
32
0
VERTEX
8
0
62
5
10
0.056568542
20
0.15883872
30
0
70
32
0
VERTEX
8
0
62
5
10
0.084852814
20
0.16937529
30
0
70
32
0
VERTEX
8
0
62
5
10
0.11313708
20
0.17760693
30
0
70
32
0
SEQEND
8
0
0
POLYLINE
8
0
62
5
66
1
10
0
20
0
30
0
70
8
0
VERTEX
8
0
62
5
10
0
20
0.21528437
30
0
70
32
0
VERTEX
8
0
62
5
10
0.028284271
20
0.2047478
30
0
70
32
0
VERTEX
8
0
62
5
10
0.056568542
20
0.19651615
30
0
70
32
0
VERTEX
8
0
62
5
10
0.084852814
20
0.20705272
30
0
70
32
0
VERTEX
8
0
62
5
10
0.11313708
20
0.21528437
30
0
70
32
0
SEQEND
8
0
0
POLYLINE
8
0
62
30
66
1
10
0
20
0
30
0
70
8
0
VERTEX
8
0
62
30
10
0
20
0.15883872
30
0
70
32
0
VERTEX
8
0
62
30
10
0.11313708
20
0.15883872
30
0
70
32
0
SEQEND
8
0
0
POLYLINE
8
0
62
30
66
1
10
0
20
0
30
0
70
8
0
VERTEX
8
0
62
30
10
0
20
0.19651615
30
0
70
32
0
VERTEX
8
0
62
30
10
0.11313708
20
0.19651615
30
0
70
32
0
SEQEND
8
0
0
POLYLINE
8
0
62
30
66
1
10
0
20
0
30
0
70
8
0
VERTEX
8
0
62
30
10
0.028284271
20
0.15060707
30
0
70
32
0
VERTEX
8
0
62
30
10
0.028284271
20
0.15883872
30
0
70
32
0
SEQEND
8
0
0
POLYLINE
8
0
62
30
66
1
10
0
20
0
30
0
70
8
0
VERTEX
8
0
62
30
10
0.056568542
20
0.15883872
30
0
70
32
0
VERTEX
8
0
62
30
10
0.056568542
20
0.15883872
30
0
70
32
0
SEQEND
8
0
0
POLYLINE
8
0
62
30
66
1
10
0
20
0
30
0
70
8
0
VERTEX
8
0
62
30
10
0.084852814
20
0.14830215
30
0
70
32
0
VERTEX
8
0
62
30
10
0.084852814
20
0.15883872
30
0
70
32
0
SEQEND
8
0
0
POLYLINE
8
0
62
30
66
1
10
0
20
0
30
0
70
8
0
VERTEX
8
0
62
30
10
0.028284271
20
0.18828451
30
0
70
32
0
VERTEX
8
0
62
30
10
0.028284271
20
0.19651615
30
0
70
32
0
SEQEND
8
0
0
POLYLINE
8
0
62
30
66
1
10
0
20
0
30
0
70
8
0
VERTEX
8
0
62
30
10
0.028284271
20
0.19651615
30
0
70
32
0
VERTEX
8
0
62
30
10
0.056568542
20
0.19651615
30
0
70
32
0
SEQEND
8
0
0
POLYLINE
8
0
62
30
66
1
10
0
20
0
30
0
70
8
0
VERTEX
8
0
62
30
10
0.056568542
20
0.19651615
30
0
70
32
0
VERTEX
8
0
62
30
10
0.056568542
20
0.19651615
30
0
70
32
0
SEQEND
8
0
0
POLYLINE
8
0
62
30
66
1
10
0
20
0
30
0
70
8
0
VERTEX
8
0
62
30
10
0.056568542
20
0.19651615
30
0
70
32
0
VERTEX
8
0
62
30
10
0.084852814
20
0.18597958
30
0
70
32
0
SEQEND
8
0
0
POLYLINE
8
0
62
30
66
1
10
0
20
0
30
0
70
8
0
VERTEX
8
0
62
30
10
0.084852814
20
0.18597958
30
0
70
32
0
VERTEX
8
0
62
30
10
0.084852814
20
0.19651615
30
0
70
32
0
SEQEND
8
0
0
POLYLINE
8
0
62
5
66
1
10
0
20
0
30
0
70
8
0
VERTEX
8
0
62
5
10
0.028284271
20
0.14
30
0
70
32
0
VERTEX
8
0
62
5
10
0.028284271
20
0.15060707
30
0
70
32
0
SEQEND
8
0
0
POLYLINE
8
0
62
5
66
1
10
0
20
0
30
0
70
8
0
VERTEX
8
0
62
5
10
0.056568542
20
0.14
30
0
70
32
0
VERTEX
8
0
62
5
10
0.056568542
20
0.15883872
30
0
70
32
0
SEQEND
8
0
0
POLYLINE
8
0
62
5
66
1
10
0
20
0
30
0
70
8
0
VERTEX
8
0
62
5
10
0.084852814
20
0.14
30
0
70
32
0
VERTEX
8
0
62
5
10
0.084852814
20
0.14830215
30
0
70
32
0
SEQEND
8
0
0
POLYLINE
8
0
62
5
66
1
10
0
20
0
30
0
70
8
0
VERTEX
8
0
62
5
10
0.028284271
20
0.17767743
30
0
70
32
0
VERTEX
8
0
62
5
10
0.028284271
20
0.18828451
30
0
70
32
0
SEQEND
8
0
0
POLYLINE
8
0
62
5
66
1
10
0
20
0
30
0
70
8
0
VERTEX
8
0
62
5
10
0.056568542
20
0.17767743
30
0
70
32
0
VERTEX
8
0
62
5
10
0.056568542
20
0.19651615
30
0
70
32
0
SEQEND
8
0
0
POLYLINE
8
0
62
5
66
1
10
0
20
0
30
0
70
8
0
VERTEX
8
0
62
5
10
0.084852814
20
0.17767743
30
0
70
32
0
VERTEX
8
0
62
5
10
0.084852814
20
0.18597958
30
0
70
32
0
SEQEND
8
0
0
POLYLINE
8
0
62
5
66
1
10
0
20
0
30
0
70
8
0
VERTEX
8
0
62
5
10
0.028284271
20
0.15883872
30
0
70
32
0
VERTEX
8
0
62
5
10
0.028284271
20
0.17767743
30
0
70
32
0
SEQEND
8
0
0
POLYLINE
8
0
62
5
66
1
10
0
20
0
30
0
70
8
0
VERTEX
8
0
62
5
10
0.056568542
20
0.15883872
30
0
70
32
0
VERTEX
8
0
62
5
10
0.056568542
20
0.17767743
30
0
70
32
0
SEQEND
8
0
0
POLYLINE
8
0
62
5
66
1
10
0
20
0
30
0
70
8
0
VERTEX
8
0
62
5
10
0.084852814
20
0.15883872
30
0
70
32
0
VERTEX
8
0
62
5
10
0.084852814
20
0.17767743
30
0
70
32
0
SEQEND
8
0
0
POLYLINE
8
0
62
5
66
1
10
0
20
0
30
0
70
8
0
VERTEX
8
0
62
5
10
0.028284271
20
0.19651615
30
0
70
32
0
VERTEX
8
0
62
5
10
0.028284271
20
0.21535487
30
0
70
32
0
SEQEND
8
0
0
POLYLINE
8
0
62
5
66
1
10
0
20
0
30
0
70
8
0
VERTEX
8
0
62
5
10
0.056568542
20
0.19651615
30
0
70
32
0
VERTEX
8
0
62
5
10
0.056568542
20
0.21535487
30
0
70
32
0
SEQEND
8
0
0
POLYLINE
8
0
62
5
66
1
10
0
20
0
30
0
70
8
0
VERTEX
8
0
62
5
10
0.084852814
20
0.19651615
30
0
70
32
0
VERTEX
8
0
62
5
10
0.084852814
20
0.21535487
30
0
70
32
0
SEQEND
8
0
0
POLYLINE
8
0
62
5
66
1
10
0
20
0
30
0
70
8
0
VERTEX
8
0
62
5
10
0.22627417
20
0.21535487
30
0
70
32
0
VERTEX
8
0
62
5
10
0.22627417
20
0.14
30
0
70
32
0
SEQEND
8
0
0
POLYLINE
8
0
62
5
66
1
10
0
20
0
30
0
70
8
0
VERTEX
8
0
62
5
10
0.11313708
20
0.1400705
30
0
70
32
0
VERTEX
8
0
62
5
10
0.14142136
20
0.15060707
30
0
70
32
0
VERTEX
8
0
62
5
10
0.16970563
20
0.15883872
30
0
70
32
0
VERTEX
8
0
62
5
10
0.1979899
20
0.14830215
30
0
70
32
0
VERTEX
8
0
62
5
10
0.22627417
20
0.1400705
30
0
70
32
0
SEQEND
8
0
0
POLYLINE
8
0
62
5
66
1
10
0
20
0
30
0
70
8
0
VERTEX
8
0
62
5
10
0.11313708
20
0.17774794
30
0
70
32
0
VERTEX
8
0
62
5
10
0.14142136
20
0.18828451
30
0
70
32
0
VERTEX
8
0
62
5
10
0.16970563
20
0.19651615
30
0
70
32
0
VERTEX
8
0
62
5
10
0.1979899
20
0.18597958
30
0
70
32
0
VERTEX
8
0
62
5
10
0.22627417
20
0.17774794
30
0
70
32
0
SEQEND
8
0
0
POLYLINE
8
0
62
5
66
1
10
0
20
0
30
0
70
8
0
VERTEX
8
0
62
5
10
0.11313708
20
0.17760693
30
0
70
32
0
VERTEX
8
0
62
5
10
0.14142136
20
0.16707036
30
0
70
32
0
VERTEX
8
0
62
5
10
0.16970563
20
0.15883872
30
0
70
32
0
VERTEX
8
0
62
5
10
0.1979899
20
0.16937529
30
0
70
32
0
VERTEX
8
0
62
5
10
0.22627417
20
0.17760693
30
0
70
32
0
SEQEND
8
0
0
POLYLINE
8
0
62
5
66
1
10
0
20
0
30
0
70
8
0
VERTEX
8
0
62
5
10
0.11313708
20
0.21528437
30
0
70
32
0
VERTEX
8
0
62
5
10
0.14142136
20
0.2047478
30
0
70
32
0
VERTEX
8
0
62
5
10
0.16970563
20
0.19651615
30
0
70
32
0
VERTEX
8
0
62
5
10
0.1979899
20
0.20705272
30
0
70
32
0
VERTEX
8
0
62
5
10
0.22627417
20
0.21528437
30
0
70
32
0
SEQEND
8
0
0
POLYLINE
8
0
62
30
66
1
10
0
20
0
30
0
70
8
0
VERTEX
8
0
62
30
10
0.11313708
20
0.15883872
30
0
70
32
0
VERTEX
8
0
62
30
10
0.22627417
20
0.15883872
30
0
70
32
0
SEQEND
8
0
0
POLYLINE
8
0
62
30
66
1
10
0
20
0
30
0
70
8
0
VERTEX
8
0
62
30
10
0.11313708
20
0.19651615
30
0
70
32
0
VERTEX
8
0
62
30
10
0.22627417
20
0.19651615
30
0
70
32
0
SEQEND
8
0
0
POLYLINE
8
0
62
30
66
1
10
0
20
0
30
0
70
8
0
VERTEX
8
0
62
30
10
0.14142136
20
0.15060707
30
0
70
32
0
VERTEX
8
0
62
30
10
0.14142136
20
0.15883872
30
0
70
32
0
SEQEND
8
0
0
POLYLINE
8
0
62
30
66
1
10
0
20
0
30
0
70
8
0
VERTEX
8
0
62
30
10
0.16970563
20
0.15883872
30
0
70
32
0
VERTEX
8
0
62
30
10
0.16970563
20
0.15883872
30
0
70
32
0
SEQEND
8
0
0
POLYLINE
8
0
62
30
66
1
10
0
20
0
30
0
70
8
0
VERTEX
8
0
62
30
10
0.1979899
20
0.14830215
30
0
70
32
0
VERTEX
8
0
62
30
10
0.1979899
20
0.15883872
30
0
70
32
0
SEQEND
8
0
0
POLYLINE
8
0
62
30
66
1
10
0
20
0
30
0
70
8
0
VERTEX
8
0
62
30
10
0.14142136
20
0.18828451
30
0
70
32
0
VERTEX
8
0
62
30
10
0.14142136
20
0.19651615
30
0
70
32
0
SEQEND
8
0
0
POLYLINE
8
0
62
30
66
1
10
0
20
0
30
0
70
8
0
VERTEX
8
0
62
30
10
0.14142136
20
0.19651615
30
0
70
32
0
VERTEX
8
0
62
30
10
0.16970563
20
0.19651615
30
0
70
32
0
SEQEND
8
0
0
POLYLINE
8
0
62
30
66
1
10
0
20
0
30
0
70
8
0
VERTEX
8
0
62
30
10
0.16970563
20
0.19651615
30
0
70
32
0
VERTEX
8
0
62
30
10
0.16970563
20
0.19651615
30
0
70
32
0
SEQEND
8
0
0
POLYLINE
8
0
62
30
66
1
10
0
20
0
30
0
70
8
0
VERTEX
8
0
62
30
10
0.16970563
20
0.19651615
30
0
70
32
0
VERTEX
8
0
62
30
10
0.1979899
20
0.18597958
30
0
70
32
0
SEQEND
8
0
0
POLYLINE
8
0
62
30
66
1
10
0
20
0
30
0
70
8
0
VERTEX
8
0
62
30
10
0.1979899
20
0.18597958
30
0
70
32
0
VERTEX
8
0
62
30
10
0.1979899
20
0.19651615
30
0
70
32
0
SEQEND
8
0
0
POLYLINE
8
0
62
5
66
1
10
0
20
0
30
0
70
8
0
VERTEX
8
0
62
5
10
0.14142136
20
0.14
30
0
70
32
0
VERTEX
8
0
62
5
10
0.14142136
20
0.15060707
30
0
70
32
0
SEQEND
8
0
0
POLYLINE
8
0
62
5
66
1
10
0
20
0
30
0
70
8
0
VERTEX
8
0
62
5
10
0.16970563
20
0.14
30
0
70
32
0
VERTEX
8
0
62
5
10
0.16970563
20
0.15883872
30
0
70
32
0
SEQEND
8
0
0
POLYLINE
8
0
62
5
66
1
10
0
20
0
30
0
70
8
0
VERTEX
8
0
62
5
10
0.1979899
20
0.14
30
0
70
32
0
VERTEX
8
0
62
5
10
0.1979899
20
0.14830215
30
0
70
32
0
SEQEND
8
0
0
POLYLINE
8
0
62
5
66
1
10
0
20
0
30
0
70
8
0
VERTEX
8
0
62
5
10
0.14142136
20
0.17767743
30
0
70
32
0
VERTEX
8
0
62
5
10
0.14142136
20
0.18828451
30
0
70
32
0
SEQEND
8
0
0
POLYLINE
8
0
62
5
66
1
10
0
20
0
30
0
70
8
0
VERTEX
8
0
62
5
10
0.16970563
20
0.17767743
30
0
70
32
0
VERTEX
8
0
62
5
10
0.16970563
20
0.19651615
30
0
70
32
0
SEQEND
8
0
0
POLYLINE
8
0
62
5
66
1
10
0
20
0
30
0
70
8
0
VERTEX
8
0
62
5
10
0.1979899
20
0.17767743
30
0
70
32
0
VERTEX
8
0
62
5
10
0.1979899
20
0.18597958
30
0
70
32
0
SEQEND
8
0
0
POLYLINE
8
0
62
5
66
1
10
0
20
0
30
0
70
8
0
VERTEX
8
0
62
5
10
0.14142136
20
0.15883872
30
0
70
32
0
VERTEX
8
0
62
5
10
0.14142136
20
0.17767743
30
0
70
32
0
SEQEND
8
0
0
POLYLINE
8
0
62
5
66
1
10
0
20
0
30
0
70
8
0
VERTEX
8
0
62
5
10
0.16970563
20
0.15883872
30
0
70
32
0
VERTEX
8
0
62
5
10
0.16970563
20
0.17767743
30
0
70
32
0
SEQEND
8
0
0
POLYLINE
8
0
62
5
66
1
10
0
20
0
30
0
70
8
0
VERTEX
8
0
62
5
10
0.1979899
20
0.15883872
30
0
70
32
0
VERTEX
8
0
62
5
10
0.1979899
20
0.17767743
30
0
70
32
0
SEQEND
8
0
0
POLYLINE
8
0
62
5
66
1
10
0
20
0
30
0
70
8
0
VERTEX
8
0
62
5
10
0.14142136
20
0.19651615
30
0
70
32
0
VERTEX
8
0
62
5
10
0.14142136
20
0.21535487
30
0
70
32
0
SEQEND
8
0
0
POLYLINE
8
0
62
5
66
1
10
0
20
0
30
0
70
8
0
VERTEX
8
0
62
5
10
0.16970563
20
0.19651615
30
0
70
32
0
VERTEX
8
0
62
5
10
0.16970563
20
0.21535487
30
0
70
32
0
SEQEND
8
0
0
POLYLINE
8
0
62
5
66
1
10
0
20
0
30
0
70
8
0
VERTEX
8
0
62
5
10
0.1979899
20
0.19651615
30
0
70
32
0
VERTEX
8
0
62
5
10
0.1979899
20
0.21535487
30
0
70
32
0
SEQEND
8
0
0
POLYLINE
8
0
62
5
66
1
10
0
20
0
30
0
70
8
0
VERTEX
8
0
62
5
10
-0.11313708
20
0.14
30
0
70
32
0
VERTEX
8
0
62
5
10
-0.11313708
20
0.21535487
30
0
70
32
0
SEQEND
8
0
0
POLYLINE
8
0
62
5
66
1
10
0
20
0
30
0
70
8
0
VERTEX
8
0
62
5
10
-0.11313708
20
0.1400705
30
0
70
32
0
VERTEX
8
0
62
5
10
-0.084852814
20
0.15060707
30
0
70
32
0
VERTEX
8
0
62
5
10
-0.056568542
20
0.15883872
30
0
70
32
0
VERTEX
8
0
62
5
10
-0.028284271
20
0.14830215
30
0
70
32
0
VERTEX
8
0
62
5
10
0
20
0.1400705
30
0
70
32
0
SEQEND
8
0
0
POLYLINE
8
0
62
5
66
1
10
0
20
0
30
0
70
8
0
VERTEX
8
0
62
5
10
-0.11313708
20
0.17774794
30
0
70
32
0
VERTEX
8
0
62
5
10
-0.084852814
20
0.18828451
30
0
70
32
0
VERTEX
8
0
62
5
10
-0.056568542
20
0.19651615
30
0
70
32
0
VERTEX
8
0
62
5
10
-0.028284271
20
0.18597958
30
0
70
32
0
VERTEX
8
0
62
5
10
0
20
0.17774794
30
0
70
32
0
SEQEND
8
0
0
POLYLINE
8
0
62
5
66
1
10
0
20
0
30
0
70
8
0
VERTEX
8
0
62
5
10
-0.11313708
20
0.17760693
30
0
70
32
0
VERTEX
8
0
62
5
10
-0.084852814
20
0.16707036
30
0
70
32
0
VERTEX
8
0
62
5
10
-0.056568542
20
0.15883872
30
0
70
32
0
VERTEX
8
0
62
5
10
-0.028284271
20
0.16937529
30
0
70
32
0
VERTEX
8
0
62
5
10
0
20
0.17760693
30
0
70
32
0
SEQEND
8
0
0
POLYLINE
8
0
62
5
66
1
10
0
20
0
30
0
70
8
0
VERTEX
8
0
62
5
10
-0.11313708
20
0.21528437
30
0
70
32
0
VERTEX
8
0
62
5
10
-0.084852814
20
0.2047478
30
0
70
32
0
VERTEX
8
0
62
5
10
-0.056568542
20
0.19651615
30
0
70
32
0
VERTEX
8
0
62
5
10
-0.028284271
20
0.20705272
30
0
70
32
0
VERTEX
8
0
62
5
10
0
20
0.21528437
30
0
70
32
0
SEQEND
8
0
0
POLYLINE
8
0
62
30
66
1
10
0
20
0
30
0
70
8
0
VERTEX
8
0
62
30
10
-0.11313708
20
0.15883872
30
0
70
32
0
VERTEX
8
0
62
30
10
0
20
0.15883872
30
0
70
32
0
SEQEND
8
0
0
POLYLINE
8
0
62
30
66
1
10
0
20
0
30
0
70
8
0
VERTEX
8
0
62
30
10
-0.11313708
20
0.19651615
30
0
70
32
0
VERTEX
8
0
62
30
10
0
20
0.19651615
30
0
70
32
0
SEQEND
8
0
0
POLYLINE
8
0
62
30
66
1
10
0
20
0
30
0
70
8
0
VERTEX
8
0
62
30
10
-0.084852814
20
0.15060707
30
0
70
32
0
VERTEX
8
0
62
30
10
-0.084852814
20
0.15883872
30
0
70
32
0
SEQEND
8
0
0
POLYLINE
8
0
62
30
66
1
10
0
20
0
30
0
70
8
0
VERTEX
8
0
62
30
10
-0.056568542
20
0.15883872
30
0
70
32
0
VERTEX
8
0
62
30
10
-0.056568542
20
0.15883872
30
0
70
32
0
SEQEND
8
0
0
POLYLINE
8
0
62
30
66
1
10
0
20
0
30
0
70
8
0
VERTEX
8
0
62
30
10
-0.028284271
20
0.14830215
30
0
70
32
0
VERTEX
8
0
62
30
10
-0.028284271
20
0.15883872
30
0
70
32
0
SEQEND
8
0
0
POLYLINE
8
0
62
30
66
1
10
0
20
0
30
0
70
8
0
VERTEX
8
0
62
30
10
-0.084852814
20
0.18828451
30
0
70
32
0
VERTEX
8
0
62
30
10
-0.084852814
20
0.19651615
30
0
70
32
0
SEQEND
8
0
0
POLYLINE
8
0
62
30
66
1
10
0
20
0
30
0
70
8
0
VERTEX
8
0
62
30
10
-0.084852814
20
0.19651615
30
0
70
32
0
VERTEX
8
0
62
30
10
-0.056568542
20
0.19651615
30
0
70
32
0
SEQEND
8
0
0
POLYLINE
8
0
62
30
66
1
10
0
20
0
30
0
70
8
0
VERTEX
8
0
62
30
10
-0.056568542
20
0.19651615
30
0
70
32
0
VERTEX
8
0
62
30
10
-0.056568542
20
0.19651615
30
0
70
32
0
SEQEND
8
0
0
POLYLINE
8
0
62
30
66
1
10
0
20
0
30
0
70
8
0
VERTEX
8
0
62
30
10
-0.056568542
20
0.19651615
30
0
70
32
0
VERTEX
8
0
62
30
10
-0.028284271
20
0.18597958
30
0
70
32
0
SEQEND
8
0
0
POLYLINE
8
0
62
30
66
1
10
0
20
0
30
0
70
8
0
VERTEX
8
0
62
30
10
-0.028284271
20
0.18597958
30
0
70
32
0
VERTEX
8
0
62
30
10
-0.028284271
20
0.19651615
30
0
70
32
0
SEQEND
8
0
0
POLYLINE
8
0
62
5
66
1
10
0
20
0
30
0
70
8
0
VERTEX
8
0
62
5
10
-0.084852814
20
0.14
30
0
70
32
0
VERTEX
8
0
62
5
10
-0.084852814
20
0.15060707
30
0
70
32
0
SEQEND
8
0
0
POLYLINE
8
0
62
5
66
1
10
0
20
0
30
0
70
8
0
VERTEX
8
0
62
5
10
-0.056568542
20
0.14
30
0
70
32
0
VERTEX
8
0
62
5
10
-0.056568542
20
0.15883872
30
0
70
32
0
SEQEND
8
0
0
POLYLINE
8
0
62
5
66
1
10
0
20
0
30
0
70
8
0
VERTEX
8
0
62
5
10
-0.028284271
20
0.14
30
0
70
32
0
VERTEX
8
0
62
5
10
-0.028284271
20
0.14830215
30
0
70
32
0
SEQEND
8
0
0
POLYLINE
8
0
62
5
66
1
10
0
20
0
30
0
70
8
0
VERTEX
8
0
62
5
10
-0.084852814
20
0.17767743
30
0
70
32
0
VERTEX
8
0
62
5
10
-0.084852814
20
0.18828451
30
0
70
32
0
SEQEND
8
0
0
POLYLINE
8
0
62
5
66
1
10
0
20
0
30
0
70
8
0
VERTEX
8
0
62
5
10
-0.056568542
20
0.17767743
30
0
70
32
0
VERTEX
8
0
62
5
10
-0.056568542
20
0.19651615
30
0
70
32
0
SEQEND
8
0
0
POLYLINE
8
0
62
5
66
1
10
0
20
0
30
0
70
8
0
VERTEX
8
0
62
5
10
-0.028284271
20
0.17767743
30
0
70
32
0
VERTEX
8
0
62
5
10
-0.028284271
20
0.18597958
30
0
70
32
0
SEQEND
8
0
0
POLYLINE
8
0
62
5
66
1
10
0
20
0
30
0
70
8
0
VERTEX
8
0
62
5
10
-0.084852814
20
0.15883872
30
0
70
32
0
VERTEX
8
0
62
5
10
-0.084852814
20
0.17767743
30
0
70
32
0
SEQEND
8
0
0
POLYLINE
8
0
62
5
66
1
10
0
20
0
30
0
70
8
0
VERTEX
8
0
62
5
10
-0.056568542
20
0.15883872
30
0
70
32
0
VERTEX
8
0
62
5
10
-0.056568542
20
0.17767743
30
0
70
32
0
SEQEND
8
0
0
POLYLINE
8
0
62
5
66
1
10
0
20
0
30
0
70
8
0
VERTEX
8
0
62
5
10
-0.028284271
20
0.15883872
30
0
70
32
0
VERTEX
8
0
62
5
10
-0.028284271
20
0.17767743
30
0
70
32
0
SEQEND
8
0
0
POLYLINE
8
0
62
5
66
1
10
0
20
0
30
0
70
8
0
VERTEX
8
0
62
5
10
-0.084852814
20
0.19651615
30
0
70
32
0
VERTEX
8
0
62
5
10
-0.084852814
20
0.21535487
30
0
70
32
0
SEQEND
8
0
0
POLYLINE
8
0
62
5
66
1
10
0
20
0
30
0
70
8
0
VERTEX
8
0
62
5
10
-0.056568542
20
0.19651615
30
0
70
32
0
VERTEX
8
0
62
5
10
-0.056568542
20
0.21535487
30
0
70
32
0
SEQEND
8
0
0
POLYLINE
8
0
62
5
66
1
10
0
20
0
30
0
70
8
0
VERTEX
8
0
62
5
10
-0.028284271
20
0.19651615
30
0
70
32
0
VERTEX
8
0
62
5
10
-0.028284271
20
0.21535487
30
0
70
32
0
SEQEND
8
0
0
POLYLINE
8
0
62
30
66
1
10
0
20
0
30
0
70
8
0
VERTEX
8
0
62
30
10
0
20
0.24855105
30
0
70
32
0
VERTEX
8
0
62
30
10
0.11313708
20
0.24855105
30
0
70
32
0
SEQEND
8
0
0
POLYLINE
8
0
62
30
66
1
10
0
20
0
30
0
70
8
0
VERTEX
8
0
62
30
10
0
20
0.21535487
30
0
70
32
0
VERTEX
8
0
62
30
10
0.11313708
20
0.21535487
30
0
70
32
0
SEQEND
8
0
0
POLYLINE
8
0
62
5
66
1
10
0
20
0
30
0
70
8
0
VERTEX
8
0
62
5
10
0
20
0.21535487
30
0
70
32
0
VERTEX
8
0
62
5
10
0.0098199849
20
0.24855105
30
0
70
32
0
VERTEX
8
0
62
5
10
0.028284271
20
0.21535487
30
0
70
32
0
VERTEX
8
0
62
5
10
0.038104256
20
0.24855105
30
0
70
32
0
VERTEX
8
0
62
5
10
0.056568542
20
0.21535487
30
0
70
32
0
VERTEX
8
0
62
5
10
0.066388527
20
0.24855105
30
0
70
32
0
VERTEX
8
0
62
5
10
0.084852814
20
0.21535487
30
0
70
32
0
VERTEX
8
0
62
5
10
0.094672799
20
0.24855105
30
0
70
32
0
VERTEX
8
0
62
5
10
0.11313708
20
0.21535487
30
0
70
32
0
SEQEND
8
0
0
POLYLINE
8
0
62
5
66
1
10
0
20
0
30
0
70
8
0
VERTEX
8
0
62
5
10
0.028284271
20
0.21535487
30
0
70
32
0
VERTEX
8
0
62
5
10
0.028284271
20
0.21535487
30
0
70
32
0
SEQEND
8
0
0
POLYLINE
8
0
62
5
66
1
10
0
20
0
30
0
70
8
0
VERTEX
8
0
62
5
10
0.056568542
20
0.21535487
30
0
70
32
0
VERTEX
8
0
62
5
10
0.056568542
20
0.21535487
30
0
70
32
0
SEQEND
8
0
0
POLYLINE
8
0
62
5
66
1
10
0
20
0
30
0
70
8
0
VERTEX
8
0
62
5
10
0.084852814
20
0.21535487
30
0
70
32
0
VERTEX
8
0
62
5
10
0.084852814
20
0.21535487
30
0
70
32
0
SEQEND
8
0
0
POLYLINE
8
0
62
5
66
1
10
0
20
0
30
0
70
8
0
VERTEX
8
0
62
5
10
0.0098199849
20
0.24855105
30
0
70
32
0
VERTEX
8
0
62
5
10
0.0098199849
20
0.24855105
30
0
70
32
0
SEQEND
8
0
0
POLYLINE
8
0
62
5
66
1
10
0
20
0
30
0
70
8
0
VERTEX
8
0
62
5
10
0.038104256
20
0.24855105
30
0
70
32
0
VERTEX
8
0
62
5
10
0.038104256
20
0.24855105
30
0
70
32
0
SEQEND
8
0
0
POLYLINE
8
0
62
5
66
1
10
0
20
0
30
0
70
8
0
VERTEX
8
0
62
5
10
0.066388527
20
0.24855105
30
0
70
32
0
VERTEX
8
0
62
5
10
0.066388527
20
0.24855105
30
0
70
32
0
SEQEND
8
0
0
POLYLINE
8
0
62
5
66
1
10
0
20
0
30
0
70
8
0
VERTEX
8
0
62
5
10
0.094672799
20
0.24855105
30
0
70
32
0
VERTEX
8
0
62
5
10
0.094672799
20
0.24855105
30
0
70
32
0
SEQEND
8
0
0
POLYLINE
8
0
62
30
66
1
10
0
20
0
30
0
70
8
0
VERTEX
8
0
62
30
10
0.11313708
20
0.24855105
30
0
70
32
0
VERTEX
8
0
62
30
10
0.22627417
20
0.24855105
30
0
70
32
0
SEQEND
8
0
0
POLYLINE
8
0
62
30
66
1
10
0
20
0
30
0
70
8
0
VERTEX
8
0
62
30
10
0.11313708
20
0.21535487
30
0
70
32
0
VERTEX
8
0
62
30
10
0.22627417
20
0.21535487
30
0
70
32
0
SEQEND
8
0
0
POLYLINE
8
0
62
5
66
1
10
0
20
0
30
0
70
8
0
VERTEX
8
0
62
5
10
0.11313708
20
0.21535487
30
0
70
32
0
VERTEX
8
0
62
5
10
0.12295707
20
0.24855105
30
0
70
32
0
VERTEX
8
0
62
5
10
0.14142136
20
0.21535487
30
0
70
32
0
VERTEX
8
0
62
5
10
0.15124134
20
0.24855105
30
0
70
32
0
VERTEX
8
0
62
5
10
0.16970563
20
0.21535487
30
0
70
32
0
VERTEX
8
0
62
5
10
0.17952561
20
0.24855105
30
0
70
32
0
VERTEX
8
0
62
5
10
0.1979899
20
0.21535487
30
0
70
32
0
VERTEX
8
0
62
5
10
0.20780988
20
0.24855105
30
0
70
32
0
VERTEX
8
0
62
5
10
0.22627417
20
0.21535487
30
0
70
32
0
SEQEND
8
0
0
POLYLINE
8
0
62
5
66
1
10
0
20
0
30
0
70
8
0
VERTEX
8
0
62
5
10
0.14142136
20
0.21535487
30
0
70
32
0
VERTEX
8
0
62
5
10
0.14142136
20
0.21535487
30
0
70
32
0
SEQEND
8
0
0
POLYLINE
8
0
62
5
66
1
10
0
20
0
30
0
70
8
0
VERTEX
8
0
62
5
10
0.16970563
20
0.21535487
30
0
70
32
0
VERTEX
8
0
62
5
10
0.16970563
20
0.21535487
30
0
70
32
0
SEQEND
8
0
0
POLYLINE
8
0
62
5
66
1
10
0
20
0
30
0
70
8
0
VERTEX
8
0
62
5
10
0.1979899
20
0.21535487
30
0
70
32
0
VERTEX
8
0
62
5
10
0.1979899
20
0.21535487
30
0
70
32
0
SEQEND
8
0
0
POLYLINE
8
0
62
5
66
1
10
0
20
0
30
0
70
8
0
VERTEX
8
0
62
5
10
0.12295707
20
0.24855105
30
0
70
32
0
VERTEX
8
0
62
5
10
0.12295707
20
0.24855105
30
0
70
32
0
SEQEND
8
0
0
POLYLINE
8
0
62
5
66
1
10
0
20
0
30
0
70
8
0
VERTEX
8
0
62
5
10
0.15124134
20
0.24855105
30
0
70
32
0
VERTEX
8
0
62
5
10
0.15124134
20
0.24855105
30
0
70
32
0
SEQEND
8
0
0
POLYLINE
8
0
62
5
66
1
10
0
20
0
30
0
70
8
0
VERTEX
8
0
62
5
10
0.17952561
20
0.24855105
30
0
70
32
0
VERTEX
8
0
62
5
10
0.17952561
20
0.24855105
30
0
70
32
0
SEQEND
8
0
0
POLYLINE
8
0
62
5
66
1
10
0
20
0
30
0
70
8
0
VERTEX
8
0
62
5
10
0.20780988
20
0.24855105
30
0
70
32
0
VERTEX
8
0
62
5
10
0.20780988
20
0.24855105
30
0
70
32
0
SEQEND
8
0
0
POLYLINE
8
0
62
30
66
1
10
0
20
0
30
0
70
8
0
VERTEX
8
0
62
30
10
-0.11313708
20
0.24855105
30
0
70
32
0
VERTEX
8
0
62
30
10
0
20
0.24855105
30
0
70
32
0
SEQEND
8
0
0
POLYLINE
8
0
62
30
66
1
10
0
20
0
30
0
70
8
0
VERTEX
8
0
62
30
10
-0.11313708
20
0.21535487
30
0
70
32
0
VERTEX
8
0
62
30
10
0
20
0.21535487
30
0
70
32
0
SEQEND
8
0
0
POLYLINE
8
0
62
5
66
1
10
0
20
0
30
0
70
8
0
VERTEX
8
0
62
5
10
-0.11313708
20
0.21535487
30
0
70
32
0
VERTEX
8
0
62
5
10
-0.1033171
20
0.24855105
30
0
70
32
0
VERTEX
8
0
62
5
10
-0.084852814
20
0.21535487
30
0
70
32
0
VERTEX
8
0
62
5
10
-0.075032829
20
0.24855105
30
0
70
32
0
VERTEX
8
0
62
5
10
-0.056568542
20
0.21535487
30
0
70
32
0
VERTEX
8
0
62
5
10
-0.046748558
20
0.24855105
30
0
70
32
0
VERTEX
8
0
62
5
10
-0.028284271
20
0.21535487
30
0
70
32
0
VERTEX
8
0
62
5
10
-0.018464286
20
0.24855105
30
0
70
32
0
VERTEX
8
0
62
5
10
0
20
0.21535487
30
0
70
32
0
SEQEND
8
0
0
POLYLINE
8
0
62
5
66
1
10
0
20
0
30
0
70
8
0
VERTEX
8
0
62
5
10
-0.084852814
20
0.21535487
30
0
70
32
0
VERTEX
8
0
62
5
10
-0.084852814
20
0.21535487
30
0
70
32
0
SEQEND
8
0
0
POLYLINE
8
0
62
5
66
1
10
0
20
0
30
0
70
8
0
VERTEX
8
0
62
5
10
-0.056568542
20
0.21535487
30
0
70
32
0
VERTEX
8
0
62
5
10
-0.056568542
20
0.21535487
30
0
70
32
0
SEQEND
8
0
0
POLYLINE
8
0
62
5
66
1
10
0
20
0
30
0
70
8
0
VERTEX
8
0
62
5
10
-0.028284271
20
0.21535487
30
0
70
32
0
VERTEX
8
0
62
5
10
-0.028284271
20
0.21535487
30
0
70
32
0
SEQEND
8
0
0
POLYLINE
8
0
62
5
66
1
10
0
20
0
30
0
70
8
0
VERTEX
8
0
62
5
10
-0.1033171
20
0.24855105
30
0
70
32
0
VERTEX
8
0
62
5
10
-0.1033171
20
0.24855105
30
0
70
32
0
SEQEND
8
0
0
POLYLINE
8
0
62
5
66
1
10
0
20
0
30
0
70
8
0
VERTEX
8
0
62
5
10
-0.075032829
20
0.24855105
30
0
70
32
0
VERTEX
8
0
62
5
10
-0.075032829
20
0.24855105
30
0
70
32
0
SEQEND
8
0
0
POLYLINE
8
0
62
5
66
1
10
0
20
0
30
0
70
8
0
VERTEX
8
0
62
5
10
-0.046748558
20
0.24855105
30
0
70
32
0
VERTEX
8
0
62
5
10
-0.046748558
20
0.24855105
30
0
70
32
0
SEQEND
8
0
0
POLYLINE
8
0
62
5
66
1
10
0
20
0
30
0
70
8
0
VERTEX
8
0
62
5
10
-0.018464286
20
0.24855105
30
0
70
32
0
VERTEX
8
0
62
5
10
-0.018464286
20
0.24855105
30
0
70
32
0
SEQEND
8
0
0
POLYLINE
8
0
62
5
66
1
10
0
20
0
30
0
70
8
0
VERTEX
8
0
62
5
10
0.0098199849
20
0.24855105
30
0
70
32
0
VERTEX
8
0
62
5
10
0.0098199849
20
0.37957689
30
0
70
32
0
SEQEND
8
0
0
POLYLINE
8
0
62
5
66
1
10
0
20
0
30
0
70
8
0
VERTEX
8
0
62
5
10
0.12295707
20
0.24855105
30
0
70
32
0
VERTEX
8
0
62
5
10
0.12295707
20
0.37957689
30
0
70
32
0
SEQEND
8
0
0
POLYLINE
8
0
62
5
66
1
10
0
20
0
30
0
70
8
0
VERTEX
8
0
62
5
10
0.038104256
20
0.24855105
30
0
70
32
0
VERTEX
8
0
62
5
10
0.038104256
20
0.37957689
30
0
70
32
0
SEQEND
8
0
0
POLYLINE
8
0
62
5
66
1
10
0
20
0
30
0
70
8
0
VERTEX
8
0
62
5
10
0.066388527
20
0.24855105
30
0
70
32
0
VERTEX
8
0
62
5
10
0.066388527
20
0.37957689
30
0
70
32
0
SEQEND
8
0
0
POLYLINE
8
0
62
5
66
1
10
0
20
0
30
0
70
8
0
VERTEX
8
0
62
5
10
0.094672799
20
0.24855105
30
0
70
32
0
VERTEX
8
0
62
5
10
0.094672799
20
0.37957689
30
0
70
32
0
SEQEND
8
0
0
POLYLINE
8
0
62
5
66
1
10
0
20
0
30
0
70
8
0
VERTEX
8
0
62
5
10
0.23609415
20
0.24855105
30
0
70
32
0
VERTEX
8
0
62
5
10
0.23609415
20
0.37957689
30
0
70
32
0
SEQEND
8
0
0
POLYLINE
8
0
62
5
66
1
10
0
20
0
30
0
70
8
0
VERTEX
8
0
62
5
10
0.15124134
20
0.24855105
30
0
70
32
0
VERTEX
8
0
62
5
10
0.15124134
20
0.37957689
30
0
70
32
0
SEQEND
8
0
0
POLYLINE
8
0
62
5
66
1
10
0
20
0
30
0
70
8
0
VERTEX
8
0
62
5
10
0.17952561
20
0.24855105
30
0
70
32
0
VERTEX
8
0
62
5
10
0.17952561
20
0.37957689
30
0
70
32
0
SEQEND
8
0
0
POLYLINE
8
0
62
5
66
1
10
0
20
0
30
0
70
8
0
VERTEX
8
0
62
5
10
0.20780988
20
0.24855105
30
0
70
32
0
VERTEX
8
0
62
5
10
0.20780988
20
0.37957689
30
0
70
32
0
SEQEND
8
0
0
POLYLINE
8
0
62
5
66
1
10
0
20
0
30
0
70
8
0
VERTEX
8
0
62
5
10
-0.1033171
20
0.24855105
30
0
70
32
0
VERTEX
8
0
62
5
10
-0.1033171
20
0.37957689
30
0
70
32
0
SEQEND
8
0
0
POLYLINE
8
0
62
5
66
1
10
0
20
0
30
0
70
8
0
VERTEX
8
0
62
5
10
-0.075032829
20
0.24855105
30
0
70
32
0
VERTEX
8
0
62
5
10
-0.075032829
20
0.37957689
30
0
70
32
0
SEQEND
8
0
0
POLYLINE
8
0
62
5
66
1
10
0
20
0
30
0
70
8
0
VERTEX
8
0
62
5
10
-0.046748558
20
0.24855105
30
0
70
32
0
VERTEX
8
0
62
5
10
-0.046748558
20
0.37957689
30
0
70
32
0
SEQEND
8
0
0
POLYLINE
8
0
62
5
66
1
10
0
20
0
30
0
70
8
0
VERTEX
8
0
62
5
10
-0.018464286
20
0.24855105
30
0
70
32
0
VERTEX
8
0
62
5
10
-0.018464286
20
0.37957689
30
0
70
32
0
SEQEND
8
0
0
POLYLINE
8
0
62
5
66
1
10
0
20
0
30
0
70
8
0
VERTEX
8
0
62
5
10
0.0098199849
20
0.37957689
30
0
70
32
0
VERTEX
8
0
62
5
10
0.0098199849
20
0.41651353
30
0
70
32
0
SEQEND
8
0
0
POLYLINE
8
0
62
5
66
1
10
0
20
0
30
0
70
8
0
VERTEX
8
0
62
5
10
0.12295707
20
0.41651353
30
0
70
32
0
VERTEX
8
0
62
5
10
0.12295707
20
0.37957689
30
0
70
32
0
SEQEND
8
0
0
POLYLINE
8
0
62
5
66
1
10
0
20
0
30
0
70
8
0
VERTEX
8
0
62
5
10
0.0098199849
20
0.3844136
30
0
70
32
0
VERTEX
8
0
62
5
10
0.038104256
20
0.3809865
30
0
70
32
0
VERTEX
8
0
62
5
10
0.066388527
20
0.39461811
30
0
70
32
0
VERTEX
8
0
62
5
10
0.094672799
20
0.39804521
30
0
70
32
0
VERTEX
8
0
62
5
10
0.12295707
20
0.3844136
30
0
70
32
0
SEQEND
8
0
0
POLYLINE
8
0
62
5
66
1
10
0
20
0
30
0
70
8
0
SEQEND
8
0
0
POLYLINE
8
0
62
5
66
1
10
0
20
0
30
0
70
8
0
VERTEX
8
0
62
5
10
0.0098199849
20
0.41167682
30
0
70
32
0
VERTEX
8
0
62
5
10
0.038104256
20
0.41510392
30
0
70
32
0
VERTEX
8
0
62
5
10
0.066388527
20
0.40147231
30
0
70
32
0
VERTEX
8
0
62
5
10
0.094672799
20
0.39804521
30
0
70
32
0
VERTEX
8
0
62
5
10
0.12295707
20
0.41167682
30
0
70
32
0
SEQEND
8
0
0
POLYLINE
8
0
62
30
66
1
10
0
20
0
30
0
70
8
0
VERTEX
8
0
62
30
10
0.0098199849
20
0.39804521
30
0
70
32
0
VERTEX
8
0
62
30
10
0.12295707
20
0.39804521
30
0
70
32
0
SEQEND
8
0
0
POLYLINE
8
0
62
30
66
1
10
0
20
0
30
0
70
8
0
VERTEX
8
0
62
30
10
0.038104256
20
0.3809865
30
0
70
32
0
VERTEX
8
0
62
30
10
0.038104256
20
0.39804521
30
0
70
32
0
SEQEND
8
0
0
POLYLINE
8
0
62
30
66
1
10
0
20
0
30
0
70
8
0
VERTEX
8
0
62
30
10
0.066388527
20
0.39461811
30
0
70
32
0
VERTEX
8
0
62
30
10
0.066388527
20
0.39804521
30
0
70
32
0
SEQEND
8
0
0
POLYLINE
8
0
62
30
66
1
10
0
20
0
30
0
70
8
0
VERTEX
8
0
62
30
10
0.094672799
20
0.39804521
30
0
70
32
0
VERTEX
8
0
62
30
10
0.094672799
20
0.39804521
30
0
70
32
0
SEQEND
8
0
0
POLYLINE
8
0
62
5
66
1
10
0
20
0
30
0
70
8
0
VERTEX
8
0
62
5
10
0.038104256
20
0.37957689
30
0
70
32
0
VERTEX
8
0
62
5
10
0.038104256
20
0.3809865
30
0
70
32
0
SEQEND
8
0
0
POLYLINE
8
0
62
5
66
1
10
0
20
0
30
0
70
8
0
VERTEX
8
0
62
5
10
0.066388527
20
0.37957689
30
0
70
32
0
VERTEX
8
0
62
5
10
0.066388527
20
0.39461811
30
0
70
32
0
SEQEND
8
0
0
POLYLINE
8
0
62
5
66
1
10
0
20
0
30
0
70
8
0
VERTEX
8
0
62
5
10
0.094672799
20
0.37957689
30
0
70
32
0
VERTEX
8
0
62
5
10
0.094672799
20
0.39804521
30
0
70
32
0
SEQEND
8
0
0
POLYLINE
8
0
62
5
66
1
10
0
20
0
30
0
70
8
0
VERTEX
8
0
62
5
10
0.038104256
20
0.39804521
30
0
70
32
0
VERTEX
8
0
62
5
10
0.038104256
20
0.41651353
30
0
70
32
0
SEQEND
8
0
0
POLYLINE
8
0
62
5
66
1
10
0
20
0
30
0
70
8
0
VERTEX
8
0
62
5
10
0.066388527
20
0.39804521
30
0
70
32
0
VERTEX
8
0
62
5
10
0.066388527
20
0.41651353
30
0
70
32
0
SEQEND
8
0
0
POLYLINE
8
0
62
5
66
1
10
0
20
0
30
0
70
8
0
VERTEX
8
0
62
5
10
0.094672799
20
0.39804521
30
0
70
32
0
VERTEX
8
0
62
5
10
0.094672799
20
0.41651353
30
0
70
32
0
SEQEND
8
0
0
POLYLINE
8
0
62
5
66
1
10
0
20
0
30
0
70
8
0
VERTEX
8
0
62
5
10
0.23609415
20
0.41651353
30
0
70
32
0
VERTEX
8
0
62
5
10
0.23609415
20
0.37957689
30
0
70
32
0
SEQEND
8
0
0
POLYLINE
8
0
62
5
66
1
10
0
20
0
30
0
70
8
0
VERTEX
8
0
62
5
10
0.12295707
20
0.3844136
30
0
70
32
0
VERTEX
8
0
62
5
10
0.15124134
20
0.3809865
30
0
70
32
0
VERTEX
8
0
62
5
10
0.17952561
20
0.39461811
30
0
70
32
0
VERTEX
8
0
62
5
10
0.20780988
20
0.39804521
30
0
70
32
0
VERTEX
8
0
62
5
10
0.23609415
20
0.3844136
30
0
70
32
0
SEQEND
8
0
0
POLYLINE
8
0
62
5
66
1
10
0
20
0
30
0
70
8
0
SEQEND
8
0
0
POLYLINE
8
0
62
5
66
1
10
0
20
0
30
0
70
8
0
VERTEX
8
0
62
5
10
0.12295707
20
0.41167682
30
0
70
32
0
VERTEX
8
0
62
5
10
0.15124134
20
0.41510392
30
0
70
32
0
VERTEX
8
0
62
5
10
0.17952561
20
0.40147231
30
0
70
32
0
VERTEX
8
0
62
5
10
0.20780988
20
0.39804521
30
0
70
32
0
VERTEX
8
0
62
5
10
0.23609415
20
0.41167682
30
0
70
32
0
SEQEND
8
0
0
POLYLINE
8
0
62
30
66
1
10
0
20
0
30
0
70
8
0
VERTEX
8
0
62
30
10
0.12295707
20
0.39804521
30
0
70
32
0
VERTEX
8
0
62
30
10
0.23609415
20
0.39804521
30
0
70
32
0
SEQEND
8
0
0
POLYLINE
8
0
62
30
66
1
10
0
20
0
30
0
70
8
0
VERTEX
8
0
62
30
10
0.15124134
20
0.3809865
30
0
70
32
0
VERTEX
8
0
62
30
10
0.15124134
20
0.39804521
30
0
70
32
0
SEQEND
8
0
0
POLYLINE
8
0
62
30
66
1
10
0
20
0
30
0
70
8
0
VERTEX
8
0
62
30
10
0.17952561
20
0.39461811
30
0
70
32
0
VERTEX
8
0
62
30
10
0.17952561
20
0.39804521
30
0
70
32
0
SEQEND
8
0
0
POLYLINE
8
0
62
30
66
1
10
0
20
0
30
0
70
8
0
VERTEX
8
0
62
30
10
0.20780988
20
0.39804521
30
0
70
32
0
VERTEX
8
0
62
30
10
0.20780988
20
0.39804521
30
0
70
32
0
SEQEND
8
0
0
POLYLINE
8
0
62
5
66
1
10
0
20
0
30
0
70
8
0
VERTEX
8
0
62
5
10
0.15124134
20
0.37957689
30
0
70
32
0
VERTEX
8
0
62
5
10
0.15124134
20
0.3809865
30
0
70
32
0
SEQEND
8
0
0
POLYLINE
8
0
62
5
66
1
10
0
20
0
30
0
70
8
0
VERTEX
8
0
62
5
10
0.17952561
20
0.37957689
30
0
70
32
0
VERTEX
8
0
62
5
10
0.17952561
20
0.39461811
30
0
70
32
0
SEQEND
8
0
0
POLYLINE
8
0
62
5
66
1
10
0
20
0
30
0
70
8
0
VERTEX
8
0
62
5
10
0.20780988
20
0.37957689
30
0
70
32
0
VERTEX
8
0
62
5
10
0.20780988
20
0.39804521
30
0
70
32
0
SEQEND
8
0
0
POLYLINE
8
0
62
5
66
1
10
0
20
0
30
0
70
8
0
VERTEX
8
0
62
5
10
0.15124134
20
0.39804521
30
0
70
32
0
VERTEX
8
0
62
5
10
0.15124134
20
0.41651353
30
0
70
32
0
SEQEND
8
0
0
POLYLINE
8
0
62
5
66
1
10
0
20
0
30
0
70
8
0
VERTEX
8
0
62
5
10
0.17952561
20
0.39804521
30
0
70
32
0
VERTEX
8
0
62
5
10
0.17952561
20
0.41651353
30
0
70
32
0
SEQEND
8
0
0
POLYLINE
8
0
62
5
66
1
10
0
20
0
30
0
70
8
0
VERTEX
8
0
62
5
10
0.20780988
20
0.39804521
30
0
70
32
0
VERTEX
8
0
62
5
10
0.20780988
20
0.41651353
30
0
70
32
0
SEQEND
8
0
0
POLYLINE
8
0
62
5
66
1
10
0
20
0
30
0
70
8
0
VERTEX
8
0
62
5
10
-0.1033171
20
0.37957689
30
0
70
32
0
VERTEX
8
0
62
5
10
-0.1033171
20
0.41651353
30
0
70
32
0
SEQEND
8
0
0
POLYLINE
8
0
62
5
66
1
10
0
20
0
30
0
70
8
0
VERTEX
8
0
62
5
10
-0.1033171
20
0.3844136
30
0
70
32
0
VERTEX
8
0
62
5
10
-0.075032829
20
0.3809865
30
0
70
32
0
VERTEX
8
0
62
5
10
-0.046748558
20
0.39461811
30
0
70
32
0
VERTEX
8
0
62
5
10
-0.018464286
20
0.39804521
30
0
70
32
0
VERTEX
8
0
62
5
10
0.0098199849
20
0.3844136
30
0
70
32
0
SEQEND
8
0
0
POLYLINE
8
0
62
5
66
1
10
0
20
0
30
0
70
8
0
SEQEND
8
0
0
POLYLINE
8
0
62
5
66
1
10
0
20
0
30
0
70
8
0
VERTEX
8
0
62
5
10
-0.1033171
20
0.41167682
30
0
70
32
0
VERTEX
8
0
62
5
10
-0.075032829
20
0.41510392
30
0
70
32
0
VERTEX
8
0
62
5
10
-0.046748558
20
0.40147231
30
0
70
32
0
VERTEX
8
0
62
5
10
-0.018464286
20
0.39804521
30
0
70
32
0
VERTEX
8
0
62
5
10
0.0098199849
20
0.41167682
30
0
70
32
0
SEQEND
8
0
0
POLYLINE
8
0
62
30
66
1
10
0
20
0
30
0
70
8
0
VERTEX
8
0
62
30
10
-0.1033171
20
0.39804521
30
0
70
32
0
VERTEX
8
0
62
30
10
0.0098199849
20
0.39804521
30
0
70
32
0
SEQEND
8
0
0
POLYLINE
8
0
62
30
66
1
10
0
20
0
30
0
70
8
0
VERTEX
8
0
62
30
10
-0.075032829
20
0.3809865
30
0
70
32
0
VERTEX
8
0
62
30
10
-0.075032829
20
0.39804521
30
0
70
32
0
SEQEND
8
0
0
POLYLINE
8
0
62
30
66
1
10
0
20
0
30
0
70
8
0
VERTEX
8
0
62
30
10
-0.046748558
20
0.39461811
30
0
70
32
0
VERTEX
8
0
62
30
10
-0.046748558
20
0.39804521
30
0
70
32
0
SEQEND
8
0
0
POLYLINE
8
0
62
30
66
1
10
0
20
0
30
0
70
8
0
VERTEX
8
0
62
30
10
-0.018464286
20
0.39804521
30
0
70
32
0
VERTEX
8
0
62
30
10
-0.018464286
20
0.39804521
30
0
70
32
0
SEQEND
8
0
0
POLYLINE
8
0
62
5
66
1
10
0
20
0
30
0
70
8
0
VERTEX
8
0
62
5
10
-0.075032829
20
0.37957689
30
0
70
32
0
VERTEX
8
0
62
5
10
-0.075032829
20
0.3809865
30
0
70
32
0
SEQEND
8
0
0
POLYLINE
8
0
62
5
66
1
10
0
20
0
30
0
70
8
0
VERTEX
8
0
62
5
10
-0.046748558
20
0.37957689
30
0
70
32
0
VERTEX
8
0
62
5
10
-0.046748558
20
0.39461811
30
0
70
32
0
SEQEND
8
0
0
POLYLINE
8
0
62
5
66
1
10
0
20
0
30
0
70
8
0
VERTEX
8
0
62
5
10
-0.018464286
20
0.37957689
30
0
70
32
0
VERTEX
8
0
62
5
10
-0.018464286
20
0.39804521
30
0
70
32
0
SEQEND
8
0
0
POLYLINE
8
0
62
5
66
1
10
0
20
0
30
0
70
8
0
VERTEX
8
0
62
5
10
-0.075032829
20
0.39804521
30
0
70
32
0
VERTEX
8
0
62
5
10
-0.075032829
20
0.41651353
30
0
70
32
0
SEQEND
8
0
0
POLYLINE
8
0
62
5
66
1
10
0
20
0
30
0
70
8
0
VERTEX
8
0
62
5
10
-0.046748558
20
0.39804521
30
0
70
32
0
VERTEX
8
0
62
5
10
-0.046748558
20
0.41651353
30
0
70
32
0
SEQEND
8
0
0
POLYLINE
8
0
62
5
66
1
10
0
20
0
30
0
70
8
0
VERTEX
8
0
62
5
10
-0.018464286
20
0.39804521
30
0
70
32
0
VERTEX
8
0
62
5
10
-0.018464286
20
0.41651353
30
0
70
32
0
SEQEND
8
0
0
POLYLINE
8
0
62
5
66
1
10
0
20
0
30
0
70
8
0
VERTEX
8
0
62
5
10
0.0098199849
20
0.41651353
30
0
70
32
0
VERTEX
8
0
62
5
10
0.0098199849
20
0.45651353
30
0
70
32
0
SEQEND
8
0
0
POLYLINE
8
0
62
5
66
1
10
0
20
0
30
0
70
8
0
VERTEX
8
0
62
5
10
0.12295707
20
0.45651353
30
0
70
32
0
VERTEX
8
0
62
5
10
0.12295707
20
0.41651353
30
0
70
32
0
SEQEND
8
0
0
POLYLINE
8
0
62
5
66
1
10
0
20
0
30
0
70
8
0
VERTEX
8
0
62
5
10
0.0098199849
20
0.41651353
30
0
70
32
0
VERTEX
8
0
62
5
10
0.12295707
20
0.41651353
30
0
70
32
0
SEQEND
8
0
0
POLYLINE
8
0
62
5
66
1
10
0
20
0
30
0
70
8
0
VERTEX
8
0
62
5
10
0.0098199849
20
0.45651353
30
0
70
32
0
VERTEX
8
0
62
5
10
0.12295707
20
0.45651353
30
0
70
32
0
SEQEND
8
0
0
POLYLINE
8
0
62
5
66
1
10
0
20
0
30
0
70
8
0
VERTEX
8
0
62
5
10
0.038104256
20
0.41651353
30
0
70
32
0
VERTEX
8
0
62
5
10
0.038104256
20
0.41651353
30
0
70
32
0
SEQEND
8
0
0
POLYLINE
8
0
62
5
66
1
10
0
20
0
30
0
70
8
0
VERTEX
8
0
62
5
10
0.066388527
20
0.41651353
30
0
70
32
0
VERTEX
8
0
62
5
10
0.066388527
20
0.41651353
30
0
70
32
0
SEQEND
8
0
0
POLYLINE
8
0
62
5
66
1
10
0
20
0
30
0
70
8
0
VERTEX
8
0
62
5
10
0.094672799
20
0.41651353
30
0
70
32
0
VERTEX
8
0
62
5
10
0.094672799
20
0.41651353
30
0
70
32
0
SEQEND
8
0
0
POLYLINE
8
0
62
5
66
1
10
0
20
0
30
0
70
8
0
VERTEX
8
0
62
5
10
0.038104256
20
0.45651353
30
0
70
32
0
VERTEX
8
0
62
5
10
0.038104256
20
0.45651353
30
0
70
32
0
SEQEND
8
0
0
POLYLINE
8
0
62
5
66
1
10
0
20
0
30
0
70
8
0
VERTEX
8
0
62
5
10
0.066388527
20
0.45651353
30
0
70
32
0
VERTEX
8
0
62
5
10
0.066388527
20
0.45651353
30
0
70
32
0
SEQEND
8
0
0
POLYLINE
8
0
62
5
66
1
10
0
20
0
30
0
70
8
0
VERTEX
8
0
62
5
10
0.094672799
20
0.45651353
30
0
70
32
0
VERTEX
8
0
62
5
10
0.094672799
20
0.45651353
30
0
70
32
0
SEQEND
8
0
0
POLYLINE
8
0
62
30
66
1
10
0
20
0
30
0
70
8
0
VERTEX
8
0
62
30
10
0.0098199849
20
0.45651353
30
0
70
32
0
VERTEX
8
0
62
30
10
0.038104256
20
0.41651353
30
0
70
32
0
SEQEND
8
0
0
POLYLINE
8
0
62
30
66
1
10
0
20
0
30
0
70
8
0
VERTEX
8
0
62
30
10
0.038104256
20
0.45651353
30
0
70
32
0
VERTEX
8
0
62
30
10
0.0098199849
20
0.41651353
30
0
70
32
0
SEQEND
8
0
0
POLYLINE
8
0
62
30
66
1
10
0
20
0
30
0
70
8
0
VERTEX
8
0
62
30
10
0.066388527
20
0.45651353
30
0
70
32
0
VERTEX
8
0
62
30
10
0.094672799
20
0.41651353
30
0
70
32
0
SEQEND
8
0
0
POLYLINE
8
0
62
30
66
1
10
0
20
0
30
0
70
8
0
VERTEX
8
0
62
30
10
0.094672799
20
0.45651353
30
0
70
32
0
VERTEX
8
0
62
30
10
0.066388527
20
0.41651353
30
0
70
32
0
SEQEND
8
0
0
POLYLINE
8
0
62
30
66
1
10
0
20
0
30
0
70
8
0
VERTEX
8
0
62
30
10
0.038104256
20
0.43651353
30
0
70
32
0
VERTEX
8
0
62
30
10
0.066388527
20
0.43651353
30
0
70
32
0
SEQEND
8
0
0
POLYLINE
8
0
62
30
66
1
10
0
20
0
30
0
70
8
0
VERTEX
8
0
62
30
10
0.094672799
20
0.43651353
30
0
70
32
0
VERTEX
8
0
62
30
10
0.12295707
20
0.43651353
30
0
70
32
0
SEQEND
8
0
0
POLYLINE
8
0
62
5
66
1
10
0
20
0
30
0
70
8
0
VERTEX
8
0
62
5
10
0.0098199849
20
0.43651353
30
0
70
32
0
VERTEX
8
0
62
5
10
0.02396212
20
0.43651353
30
0
70
32
0
SEQEND
8
0
0
POLYLINE
8
0
62
5
66
1
10
0
20
0
30
0
70
8
0
VERTEX
8
0
62
5
10
0.066388527
20
0.43651353
30
0
70
32
0
VERTEX
8
0
62
5
10
0.080530663
20
0.43651353
30
0
70
32
0
SEQEND
8
0
0
POLYLINE
8
0
62
5
66
1
10
0
20
0
30
0
70
8
0
VERTEX
8
0
62
5
10
0.02396212
20
0.43651353
30
0
70
32
0
VERTEX
8
0
62
5
10
0.038104256
20
0.43651353
30
0
70
32
0
SEQEND
8
0
0
POLYLINE
8
0
62
5
66
1
10
0
20
0
30
0
70
8
0
VERTEX
8
0
62
5
10
0.080530663
20
0.43651353
30
0
70
32
0
VERTEX
8
0
62
5
10
0.094672799
20
0.43651353
30
0
70
32
0
SEQEND
8
0
0
POLYLINE
8
0
62
5
66
1
10
0
20
0
30
0
70
8
0
VERTEX
8
0
62
5
10
0.038104256
20
0.41651353
30
0
70
32
0
VERTEX
8
0
62
5
10
0.038104256
20
0.45651353
30
0
70
32
0
SEQEND
8
0
0
POLYLINE
8
0
62
5
66
1
10
0
20
0
30
0
70
8
0
VERTEX
8
0
62
5
10
0.066388527
20
0.41651353
30
0
70
32
0
VERTEX
8
0
62
5
10
0.066388527
20
0.45651353
30
0
70
32
0
SEQEND
8
0
0
POLYLINE
8
0
62
5
66
1
10
0
20
0
30
0
70
8
0
VERTEX
8
0
62
5
10
0.094672799
20
0.41651353
30
0
70
32
0
VERTEX
8
0
62
5
10
0.094672799
20
0.45651353
30
0
70
32
0
SEQEND
8
0
0
POLYLINE
8
0
62
5
66
1
10
0
20
0
30
0
70
8
0
VERTEX
8
0
62
5
10
0.0098199849
20
0.41651353
30
0
70
32
0
VERTEX
8
0
62
5
10
0.0098199849
20
0.45651353
30
0
70
32
0
SEQEND
8
0
0
POLYLINE
8
0
62
5
66
1
10
0
20
0
30
0
70
8
0
VERTEX
8
0
62
5
10
0.23609415
20
0.45651353
30
0
70
32
0
VERTEX
8
0
62
5
10
0.23609415
20
0.41651353
30
0
70
32
0
SEQEND
8
0
0
POLYLINE
8
0
62
5
66
1
10
0
20
0
30
0
70
8
0
VERTEX
8
0
62
5
10
0.12295707
20
0.41651353
30
0
70
32
0
VERTEX
8
0
62
5
10
0.23609415
20
0.41651353
30
0
70
32
0
SEQEND
8
0
0
POLYLINE
8
0
62
5
66
1
10
0
20
0
30
0
70
8
0
VERTEX
8
0
62
5
10
0.12295707
20
0.45651353
30
0
70
32
0
VERTEX
8
0
62
5
10
0.23609415
20
0.45651353
30
0
70
32
0
SEQEND
8
0
0
POLYLINE
8
0
62
5
66
1
10
0
20
0
30
0
70
8
0
VERTEX
8
0
62
5
10
0.15124134
20
0.41651353
30
0
70
32
0
VERTEX
8
0
62
5
10
0.15124134
20
0.41651353
30
0
70
32
0
SEQEND
8
0
0
POLYLINE
8
0
62
5
66
1
10
0
20
0
30
0
70
8
0
VERTEX
8
0
62
5
10
0.17952561
20
0.41651353
30
0
70
32
0
VERTEX
8
0
62
5
10
0.17952561
20
0.41651353
30
0
70
32
0
SEQEND
8
0
0
POLYLINE
8
0
62
5
66
1
10
0
20
0
30
0
70
8
0
VERTEX
8
0
62
5
10
0.20780988
20
0.41651353
30
0
70
32
0
VERTEX
8
0
62
5
10
0.20780988
20
0.41651353
30
0
70
32
0
SEQEND
8
0
0
POLYLINE
8
0
62
5
66
1
10
0
20
0
30
0
70
8
0
VERTEX
8
0
62
5
10
0.15124134
20
0.45651353
30
0
70
32
0
VERTEX
8
0
62
5
10
0.15124134
20
0.45651353
30
0
70
32
0
SEQEND
8
0
0
POLYLINE
8
0
62
5
66
1
10
0
20
0
30
0
70
8
0
VERTEX
8
0
62
5
10
0.17952561
20
0.45651353
30
0
70
32
0
VERTEX
8
0
62
5
10
0.17952561
20
0.45651353
30
0
70
32
0
SEQEND
8
0
0
POLYLINE
8
0
62
5
66
1
10
0
20
0
30
0
70
8
0
VERTEX
8
0
62
5
10
0.20780988
20
0.45651353
30
0
70
32
0
VERTEX
8
0
62
5
10
0.20780988
20
0.45651353
30
0
70
32
0
SEQEND
8
0
0
POLYLINE
8
0
62
30
66
1
10
0
20
0
30
0
70
8
0
VERTEX
8
0
62
30
10
0.12295707
20
0.45651353
30
0
70
32
0
VERTEX
8
0
62
30
10
0.15124134
20
0.41651353
30
0
70
32
0
SEQEND
8
0
0
POLYLINE
8
0
62
30
66
1
10
0
20
0
30
0
70
8
0
VERTEX
8
0
62
30
10
0.15124134
20
0.45651353
30
0
70
32
0
VERTEX
8
0
62
30
10
0.12295707
20
0.41651353
30
0
70
32
0
SEQEND
8
0
0
POLYLINE
8
0
62
30
66
1
10
0
20
0
30
0
70
8
0
VERTEX
8
0
62
30
10
0.17952561
20
0.45651353
30
0
70
32
0
VERTEX
8
0
62
30
10
0.20780988
20
0.41651353
30
0
70
32
0
SEQEND
8
0
0
POLYLINE
8
0
62
30
66
1
10
0
20
0
30
0
70
8
0
VERTEX
8
0
62
30
10
0.20780988
20
0.45651353
30
0
70
32
0
VERTEX
8
0
62
30
10
0.17952561
20
0.41651353
30
0
70
32
0
SEQEND
8
0
0
POLYLINE
8
0
62
30
66
1
10
0
20
0
30
0
70
8
0
VERTEX
8
0
62
30
10
0.15124134
20
0.43651353
30
0
70
32
0
VERTEX
8
0
62
30
10
0.17952561
20
0.43651353
30
0
70
32
0
SEQEND
8
0
0
POLYLINE
8
0
62
30
66
1
10
0
20
0
30
0
70
8
0
VERTEX
8
0
62
30
10
0.20780988
20
0.43651353
30
0
70
32
0
VERTEX
8
0
62
30
10
0.23609415
20
0.43651353
30
0
70
32
0
SEQEND
8
0
0
POLYLINE
8
0
62
5
66
1
10
0
20
0
30
0
70
8
0
VERTEX
8
0
62
5
10
0.12295707
20
0.43651353
30
0
70
32
0
VERTEX
8
0
62
5
10
0.13709921
20
0.43651353
30
0
70
32
0
SEQEND
8
0
0
POLYLINE
8
0
62
5
66
1
10
0
20
0
30
0
70
8
0
VERTEX
8
0
62
5
10
0.17952561
20
0.43651353
30
0
70
32
0
VERTEX
8
0
62
5
10
0.19366775
20
0.43651353
30
0
70
32
0
SEQEND
8
0
0
POLYLINE
8
0
62
5
66
1
10
0
20
0
30
0
70
8
0
VERTEX
8
0
62
5
10
0.13709921
20
0.43651353
30
0
70
32
0
VERTEX
8
0
62
5
10
0.15124134
20
0.43651353
30
0
70
32
0
SEQEND
8
0
0
POLYLINE
8
0
62
5
66
1
10
0
20
0
30
0
70
8
0
VERTEX
8
0
62
5
10
0.19366775
20
0.43651353
30
0
70
32
0
VERTEX
8
0
62
5
10
0.20780988
20
0.43651353
30
0
70
32
0
SEQEND
8
0
0
POLYLINE
8
0
62
5
66
1
10
0
20
0
30
0
70
8
0
VERTEX
8
0
62
5
10
0.15124134
20
0.41651353
30
0
70
32
0
VERTEX
8
0
62
5
10
0.15124134
20
0.45651353
30
0
70
32
0
SEQEND
8
0
0
POLYLINE
8
0
62
5
66
1
10
0
20
0
30
0
70
8
0
VERTEX
8
0
62
5
10
0.17952561
20
0.41651353
30
0
70
32
0
VERTEX
8
0
62
5
10
0.17952561
20
0.45651353
30
0
70
32
0
SEQEND
8
0
0
POLYLINE
8
0
62
5
66
1
10
0
20
0
30
0
70
8
0
VERTEX
8
0
62
5
10
0.20780988
20
0.41651353
30
0
70
32
0
VERTEX
8
0
62
5
10
0.20780988
20
0.45651353
30
0
70
32
0
SEQEND
8
0
0
POLYLINE
8
0
62
5
66
1
10
0
20
0
30
0
70
8
0
VERTEX
8
0
62
5
10
0.12295707
20
0.41651353
30
0
70
32
0
VERTEX
8
0
62
5
10
0.12295707
20
0.45651353
30
0
70
32
0
SEQEND
8
0
0
POLYLINE
8
0
62
5
66
1
10
0
20
0
30
0
70
8
0
VERTEX
8
0
62
5
10
-0.1033171
20
0.41651353
30
0
70
32
0
VERTEX
8
0
62
5
10
-0.1033171
20
0.45651353
30
0
70
32
0
SEQEND
8
0
0
POLYLINE
8
0
62
5
66
1
10
0
20
0
30
0
70
8
0
VERTEX
8
0
62
5
10
-0.1033171
20
0.41651353
30
0
70
32
0
VERTEX
8
0
62
5
10
0.0098199849
20
0.41651353
30
0
70
32
0
SEQEND
8
0
0
POLYLINE
8
0
62
5
66
1
10
0
20
0
30
0
70
8
0
VERTEX
8
0
62
5
10
-0.1033171
20
0.45651353
30
0
70
32
0
VERTEX
8
0
62
5
10
0.0098199849
20
0.45651353
30
0
70
32
0
SEQEND
8
0
0
POLYLINE
8
0
62
5
66
1
10
0
20
0
30
0
70
8
0
VERTEX
8
0
62
5
10
-0.075032829
20
0.41651353
30
0
70
32
0
VERTEX
8
0
62
5
10
-0.075032829
20
0.41651353
30
0
70
32
0
SEQEND
8
0
0
POLYLINE
8
0
62
5
66
1
10
0
20
0
30
0
70
8
0
VERTEX
8
0
62
5
10
-0.046748558
20
0.41651353
30
0
70
32
0
VERTEX
8
0
62
5
10
-0.046748558
20
0.41651353
30
0
70
32
0
SEQEND
8
0
0
POLYLINE
8
0
62
5
66
1
10
0
20
0
30
0
70
8
0
VERTEX
8
0
62
5
10
-0.018464286
20
0.41651353
30
0
70
32
0
VERTEX
8
0
62
5
10
-0.018464286
20
0.41651353
30
0
70
32
0
SEQEND
8
0
0
POLYLINE
8
0
62
5
66
1
10
0
20
0
30
0
70
8
0
VERTEX
8
0
62
5
10
-0.075032829
20
0.45651353
30
0
70
32
0
VERTEX
8
0
62
5
10
-0.075032829
20
0.45651353
30
0
70
32
0
SEQEND
8
0
0
POLYLINE
8
0
62
5
66
1
10
0
20
0
30
0
70
8
0
VERTEX
8
0
62
5
10
-0.046748558
20
0.45651353
30
0
70
32
0
VERTEX
8
0
62
5
10
-0.046748558
20
0.45651353
30
0
70
32
0
SEQEND
8
0
0
POLYLINE
8
0
62
5
66
1
10
0
20
0
30
0
70
8
0
VERTEX
8
0
62
5
10
-0.018464286
20
0.45651353
30
0
70
32
0
VERTEX
8
0
62
5
10
-0.018464286
20
0.45651353
30
0
70
32
0
SEQEND
8
0
0
POLYLINE
8
0
62
30
66
1
10
0
20
0
30
0
70
8
0
VERTEX
8
0
62
30
10
-0.1033171
20
0.45651353
30
0
70
32
0
VERTEX
8
0
62
30
10
-0.075032829
20
0.41651353
30
0
70
32
0
SEQEND
8
0
0
POLYLINE
8
0
62
30
66
1
10
0
20
0
30
0
70
8
0
VERTEX
8
0
62
30
10
-0.075032829
20
0.45651353
30
0
70
32
0
VERTEX
8
0
62
30
10
-0.1033171
20
0.41651353
30
0
70
32
0
SEQEND
8
0
0
POLYLINE
8
0
62
30
66
1
10
0
20
0
30
0
70
8
0
VERTEX
8
0
62
30
10
-0.046748558
20
0.45651353
30
0
70
32
0
VERTEX
8
0
62
30
10
-0.018464286
20
0.41651353
30
0
70
32
0
SEQEND
8
0
0
POLYLINE
8
0
62
30
66
1
10
0
20
0
30
0
70
8
0
VERTEX
8
0
62
30
10
-0.018464286
20
0.45651353
30
0
70
32
0
VERTEX
8
0
62
30
10
-0.046748558
20
0.41651353
30
0
70
32
0
SEQEND
8
0
0
POLYLINE
8
0
62
30
66
1
10
0
20
0
30
0
70
8
0
VERTEX
8
0
62
30
10
-0.075032829
20
0.43651353
30
0
70
32
0
VERTEX
8
0
62
30
10
-0.046748558
20
0.43651353
30
0
70
32
0
SEQEND
8
0
0
POLYLINE
8
0
62
30
66
1
10
0
20
0
30
0
70
8
0
VERTEX
8
0
62
30
10
-0.018464286
20
0.43651353
30
0
70
32
0
VERTEX
8
0
62
30
10
0.0098199849
20
0.43651353
30
0
70
32
0
SEQEND
8
0
0
POLYLINE
8
0
62
5
66
1
10
0
20
0
30
0
70
8
0
VERTEX
8
0
62
5
10
-0.1033171
20
0.43651353
30
0
70
32
0
VERTEX
8
0
62
5
10
-0.089174965
20
0.43651353
30
0
70
32
0
SEQEND
8
0
0
POLYLINE
8
0
62
5
66
1
10
0
20
0
30
0
70
8
0
VERTEX
8
0
62
5
10
-0.046748558
20
0.43651353
30
0
70
32
0
VERTEX
8
0
62
5
10
-0.032606422
20
0.43651353
30
0
70
32
0
SEQEND
8
0
0
POLYLINE
8
0
62
5
66
1
10
0
20
0
30
0
70
8
0
VERTEX
8
0
62
5
10
-0.089174965
20
0.43651353
30
0
70
32
0
VERTEX
8
0
62
5
10
-0.075032829
20
0.43651353
30
0
70
32
0
SEQEND
8
0
0
POLYLINE
8
0
62
5
66
1
10
0
20
0
30
0
70
8
0
VERTEX
8
0
62
5
10
-0.032606422
20
0.43651353
30
0
70
32
0
VERTEX
8
0
62
5
10
-0.018464286
20
0.43651353
30
0
70
32
0
SEQEND
8
0
0
POLYLINE
8
0
62
5
66
1
10
0
20
0
30
0
70
8
0
VERTEX
8
0
62
5
10
-0.075032829
20
0.41651353
30
0
70
32
0
VERTEX
8
0
62
5
10
-0.075032829
20
0.45651353
30
0
70
32
0
SEQEND
8
0
0
POLYLINE
8
0
62
5
66
1
10
0
20
0
30
0
70
8
0
VERTEX
8
0
62
5
10
-0.046748558
20
0.41651353
30
0
70
32
0
VERTEX
8
0
62
5
10
-0.046748558
20
0.45651353
30
0
70
32
0
SEQEND
8
0
0
POLYLINE
8
0
62
5
66
1
10
0
20
0
30
0
70
8
0
VERTEX
8
0
62
5
10
-0.018464286
20
0.41651353
30
0
70
32
0
VERTEX
8
0
62
5
10
-0.018464286
20
0.45651353
30
0
70
32
0
SEQEND
8
0
0
POLYLINE
8
0
62
5
66
1
10
0
20
0
30
0
70
8
0
VERTEX
8
0
62
5
10
-0.1033171
20
0.41651353
30
0
70
32
0
VERTEX
8
0
62
5
10
-0.1033171
20
0.45651353
30
0
70
32
0
SEQEND
8
0
0
POLYLINE
8
0
62
5
66
1
10
0
20
0
30
0
70
8
0
VERTEX
8
0
62
5
10
0.0098199849
20
0.45651353
30
0
70
32
0
VERTEX
8
0
62
5
10
0.0098199849
20
0.53174265
30
0
70
32
0
SEQEND
8
0
0
POLYLINE
8
0
62
5
66
1
10
0
20
0
30
0
70
8
0
VERTEX
8
0
62
5
10
0.12295707
20
0.53174265
30
0
70
32
0
VERTEX
8
0
62
5
10
0.12295707
20
0.45651353
30
0
70
32
0
SEQEND
8
0
0
POLYLINE
8
0
62
5
66
1
10
0
20
0
30
0
70
8
0
VERTEX
8
0
62
5
10
0.0098199849
20
0.45767205
30
0
70
32
0
VERTEX
8
0
62
5
10
0.038104256
20
0.46182859
30
0
70
32
0
VERTEX
8
0
62
5
10
0.066388527
20
0.47532081
30
0
70
32
0
VERTEX
8
0
62
5
10
0.094672799
20
0.47116427
30
0
70
32
0
VERTEX
8
0
62
5
10
0.12295707
20
0.45767205
30
0
70
32
0
SEQEND
8
0
0
POLYLINE
8
0
62
5
66
1
10
0
20
0
30
0
70
8
0
VERTEX
8
0
62
5
10
0.0098199849
20
0.49528661
30
0
70
32
0
VERTEX
8
0
62
5
10
0.038104256
20
0.49944315
30
0
70
32
0
VERTEX
8
0
62
5
10
0.066388527
20
0.51293537
30
0
70
32
0
VERTEX
8
0
62
5
10
0.094672799
20
0.50877883
30
0
70
32
0
VERTEX
8
0
62
5
10
0.12295707
20
0.49528661
30
0
70
32
0
SEQEND
8
0
0
POLYLINE
8
0
62
5
66
1
10
0
20
0
30
0
70
8
0
VERTEX
8
0
62
5
10
0.0098199849
20
0.49296956
30
0
70
32
0
VERTEX
8
0
62
5
10
0.038104256
20
0.48881302
30
0
70
32
0
VERTEX
8
0
62
5
10
0.066388527
20
0.47532081
30
0
70
32
0
VERTEX
8
0
62
5
10
0.094672799
20
0.47947735
30
0
70
32
0
VERTEX
8
0
62
5
10
0.12295707
20
0.49296956
30
0
70
32
0
SEQEND
8
0
0
POLYLINE
8
0
62
5
66
1
10
0
20
0
30
0
70
8
0
VERTEX
8
0
62
5
10
0.0098199849
20
0.53058413
30
0
70
32
0
VERTEX
8
0
62
5
10
0.038104256
20
0.52642758
30
0
70
32
0
VERTEX
8
0
62
5
10
0.066388527
20
0.51293537
30
0
70
32
0
VERTEX
8
0
62
5
10
0.094672799
20
0.51709191
30
0
70
32
0
VERTEX
8
0
62
5
10
0.12295707
20
0.53058413
30
0
70
32
0
SEQEND
8
0
0
POLYLINE
8
0
62
30
66
1
10
0
20
0
30
0
70
8
0
VERTEX
8
0
62
30
10
0.0098199849
20
0.47532081
30
0
70
32
0
VERTEX
8
0
62
30
10
0.12295707
20
0.47532081
30
0
70
32
0
SEQEND
8
0
0
POLYLINE
8
0
62
30
66
1
10
0
20
0
30
0
70
8
0
VERTEX
8
0
62
30
10
0.0098199849
20
0.51293537
30
0
70
32
0
VERTEX
8
0
62
30
10
0.12295707
20
0.51293537
30
0
70
32
0
SEQEND
8
0
0
POLYLINE
8
0
62
30
66
1
10
0
20
0
30
0
70
8
0
VERTEX
8
0
62
30
10
0.038104256
20
0.46182859
30
0
70
32
0
VERTEX
8
0
62
30
10
0.038104256
20
0.47532081
30
0
70
32
0
SEQEND
8
0
0
POLYLINE
8
0
62
30
66
1
10
0
20
0
30
0
70
8
0
VERTEX
8
0
62
30
10
0.066388527
20
0.47532081
30
0
70
32
0
VERTEX
8
0
62
30
10
0.066388527
20
0.47532081
30
0
70
32
0
SEQEND
8
0
0
POLYLINE
8
0
62
30
66
1
10
0
20
0
30
0
70
8
0
VERTEX
8
0
62
30
10
0.094672799
20
0.47116427
30
0
70
32
0
VERTEX
8
0
62
30
10
0.094672799
20
0.47532081
30
0
70
32
0
SEQEND
8
0
0
POLYLINE
8
0
62
30
66
1
10
0
20
0
30
0
70
8
0
VERTEX
8
0
62
30
10
0.038104256
20
0.49944315
30
0
70
32
0
VERTEX
8
0
62
30
10
0.038104256
20
0.51293537
30
0
70
32
0
SEQEND
8
0
0
POLYLINE
8
0
62
30
66
1
10
0
20
0
30
0
70
8
0
VERTEX
8
0
62
30
10
0.038104256
20
0.51293537
30
0
70
32
0
VERTEX
8
0
62
30
10
0.066388527
20
0.51293537
30
0
70
32
0
SEQEND
8
0
0
POLYLINE
8
0
62
30
66
1
10
0
20
0
30
0
70
8
0
VERTEX
8
0
62
30
10
0.066388527
20
0.51293537
30
0
70
32
0
VERTEX
8
0
62
30
10
0.066388527
20
0.51293537
30
0
70
32
0
SEQEND
8
0
0
POLYLINE
8
0
62
30
66
1
10
0
20
0
30
0
70
8
0
VERTEX
8
0
62
30
10
0.066388527
20
0.51293537
30
0
70
32
0
VERTEX
8
0
62
30
10
0.094672799
20
0.50877883
30
0
70
32
0
SEQEND
8
0
0
POLYLINE
8
0
62
30
66
1
10
0
20
0
30
0
70
8
0
VERTEX
8
0
62
30
10
0.094672799
20
0.50877883
30
0
70
32
0
VERTEX
8
0
62
30
10
0.094672799
20
0.51293537
30
0
70
32
0
SEQEND
8
0
0
POLYLINE
8
0
62
5
66
1
10
0
20
0
30
0
70
8
0
VERTEX
8
0
62
5
10
0.038104256
20
0.45651353
30
0
70
32
0
VERTEX
8
0
62
5
10
0.038104256
20
0.46182859
30
0
70
32
0
SEQEND
8
0
0
POLYLINE
8
0
62
5
66
1
10
0
20
0
30
0
70
8
0
VERTEX
8
0
62
5
10
0.066388527
20
0.45651353
30
0
70
32
0
VERTEX
8
0
62
5
10
0.066388527
20
0.47532081
30
0
70
32
0
SEQEND
8
0
0
POLYLINE
8
0
62
5
66
1
10
0
20
0
30
0
70
8
0
VERTEX
8
0
62
5
10
0.094672799
20
0.45651353
30
0
70
32
0
VERTEX
8
0
62
5
10
0.094672799
20
0.47116427
30
0
70
32
0
SEQEND
8
0
0
POLYLINE
8
0
62
5
66
1
10
0
20
0
30
0
70
8
0
VERTEX
8
0
62
5
10
0.038104256
20
0.49412809
30
0
70
32
0
VERTEX
8
0
62
5
10
0.038104256
20
0.49944315
30
0
70
32
0
SEQEND
8
0
0
POLYLINE
8
0
62
5
66
1
10
0
20
0
30
0
70
8
0
VERTEX
8
0
62
5
10
0.066388527
20
0.49412809
30
0
70
32
0
VERTEX
8
0
62
5
10
0.066388527
20
0.51293537
30
0
70
32
0
SEQEND
8
0
0
POLYLINE
8
0
62
5
66
1
10
0
20
0
30
0
70
8
0
VERTEX
8
0
62
5
10
0.094672799
20
0.49412809
30
0
70
32
0
VERTEX
8
0
62
5
10
0.094672799
20
0.50877883
30
0
70
32
0
SEQEND
8
0
0
POLYLINE
8
0
62
5
66
1
10
0
20
0
30
0
70
8
0
VERTEX
8
0
62
5
10
0.038104256
20
0.47532081
30
0
70
32
0
VERTEX
8
0
62
5
10
0.038104256
20
0.49412809
30
0
70
32
0
SEQEND
8
0
0
POLYLINE
8
0
62
5
66
1
10
0
20
0
30
0
70
8
0
VERTEX
8
0
62
5
10
0.066388527
20
0.47532081
30
0
70
32
0
VERTEX
8
0
62
5
10
0.066388527
20
0.49412809
30
0
70
32
0
SEQEND
8
0
0
POLYLINE
8
0
62
5
66
1
10
0
20
0
30
0
70
8
0
VERTEX
8
0
62
5
10
0.094672799
20
0.47532081
30
0
70
32
0
VERTEX
8
0
62
5
10
0.094672799
20
0.49412809
30
0
70
32
0
SEQEND
8
0
0
POLYLINE
8
0
62
5
66
1
10
0
20
0
30
0
70
8
0
VERTEX
8
0
62
5
10
0.038104256
20
0.51293537
30
0
70
32
0
VERTEX
8
0
62
5
10
0.038104256
20
0.53174265
30
0
70
32
0
SEQEND
8
0
0
POLYLINE
8
0
62
5
66
1
10
0
20
0
30
0
70
8
0
VERTEX
8
0
62
5
10
0.066388527
20
0.51293537
30
0
70
32
0
VERTEX
8
0
62
5
10
0.066388527
20
0.53174265
30
0
70
32
0
SEQEND
8
0
0
POLYLINE
8
0
62
5
66
1
10
0
20
0
30
0
70
8
0
VERTEX
8
0
62
5
10
0.094672799
20
0.51293537
30
0
70
32
0
VERTEX
8
0
62
5
10
0.094672799
20
0.53174265
30
0
70
32
0
SEQEND
8
0
0
POLYLINE
8
0
62
5
66
1
10
0
20
0
30
0
70
8
0
VERTEX
8
0
62
5
10
0.23609415
20
0.53174265
30
0
70
32
0
VERTEX
8
0
62
5
10
0.23609415
20
0.45651353
30
0
70
32
0
SEQEND
8
0
0
POLYLINE
8
0
62
5
66
1
10
0
20
0
30
0
70
8
0
VERTEX
8
0
62
5
10
0.12295707
20
0.45767205
30
0
70
32
0
VERTEX
8
0
62
5
10
0.15124134
20
0.46182859
30
0
70
32
0
VERTEX
8
0
62
5
10
0.17952561
20
0.47532081
30
0
70
32
0
VERTEX
8
0
62
5
10
0.20780988
20
0.47116427
30
0
70
32
0
VERTEX
8
0
62
5
10
0.23609415
20
0.45767205
30
0
70
32
0
SEQEND
8
0
0
POLYLINE
8
0
62
5
66
1
10
0
20
0
30
0
70
8
0
VERTEX
8
0
62
5
10
0.12295707
20
0.49528661
30
0
70
32
0
VERTEX
8
0
62
5
10
0.15124134
20
0.49944315
30
0
70
32
0
VERTEX
8
0
62
5
10
0.17952561
20
0.51293537
30
0
70
32
0
VERTEX
8
0
62
5
10
0.20780988
20
0.50877883
30
0
70
32
0
VERTEX
8
0
62
5
10
0.23609415
20
0.49528661
30
0
70
32
0
SEQEND
8
0
0
POLYLINE
8
0
62
5
66
1
10
0
20
0
30
0
70
8
0
VERTEX
8
0
62
5
10
0.12295707
20
0.49296956
30
0
70
32
0
VERTEX
8
0
62
5
10
0.15124134
20
0.48881302
30
0
70
32
0
VERTEX
8
0
62
5
10
0.17952561
20
0.47532081
30
0
70
32
0
VERTEX
8
0
62
5
10
0.20780988
20
0.47947735
30
0
70
32
0
VERTEX
8
0
62
5
10
0.23609415
20
0.49296956
30
0
70
32
0
SEQEND
8
0
0
POLYLINE
8
0
62
5
66
1
10
0
20
0
30
0
70
8
0
VERTEX
8
0
62
5
10
0.12295707
20
0.53058413
30
0
70
32
0
VERTEX
8
0
62
5
10
0.15124134
20
0.52642758
30
0
70
32
0
VERTEX
8
0
62
5
10
0.17952561
20
0.51293537
30
0
70
32
0
VERTEX
8
0
62
5
10
0.20780988
20
0.51709191
30
0
70
32
0
VERTEX
8
0
62
5
10
0.23609415
20
0.53058413
30
0
70
32
0
SEQEND
8
0
0
POLYLINE
8
0
62
30
66
1
10
0
20
0
30
0
70
8
0
VERTEX
8
0
62
30
10
0.12295707
20
0.47532081
30
0
70
32
0
VERTEX
8
0
62
30
10
0.23609415
20
0.47532081
30
0
70
32
0
SEQEND
8
0
0
POLYLINE
8
0
62
30
66
1
10
0
20
0
30
0
70
8
0
VERTEX
8
0
62
30
10
0.12295707
20
0.51293537
30
0
70
32
0
VERTEX
8
0
62
30
10
0.23609415
20
0.51293537
30
0
70
32
0
SEQEND
8
0
0
POLYLINE
8
0
62
30
66
1
10
0
20
0
30
0
70
8
0
VERTEX
8
0
62
30
10
0.15124134
20
0.46182859
30
0
70
32
0
VERTEX
8
0
62
30
10
0.15124134
20
0.47532081
30
0
70
32
0
SEQEND
8
0
0
POLYLINE
8
0
62
30
66
1
10
0
20
0
30
0
70
8
0
VERTEX
8
0
62
30
10
0.17952561
20
0.47532081
30
0
70
32
0
VERTEX
8
0
62
30
10
0.17952561
20
0.47532081
30
0
70
32
0
SEQEND
8
0
0
POLYLINE
8
0
62
30
66
1
10
0
20
0
30
0
70
8
0
VERTEX
8
0
62
30
10
0.20780988
20
0.47116427
30
0
70
32
0
VERTEX
8
0
62
30
10
0.20780988
20
0.47532081
30
0
70
32
0
SEQEND
8
0
0
POLYLINE
8
0
62
30
66
1
10
0
20
0
30
0
70
8
0
VERTEX
8
0
62
30
10
0.15124134
20
0.49944315
30
0
70
32
0
VERTEX
8
0
62
30
10
0.15124134
20
0.51293537
30
0
70
32
0
SEQEND
8
0
0
POLYLINE
8
0
62
30
66
1
10
0
20
0
30
0
70
8
0
VERTEX
8
0
62
30
10
0.15124134
20
0.51293537
30
0
70
32
0
VERTEX
8
0
62
30
10
0.17952561
20
0.51293537
30
0
70
32
0
SEQEND
8
0
0
POLYLINE
8
0
62
30
66
1
10
0
20
0
30
0
70
8
0
VERTEX
8
0
62
30
10
0.17952561
20
0.51293537
30
0
70
32
0
VERTEX
8
0
62
30
10
0.17952561
20
0.51293537
30
0
70
32
0
SEQEND
8
0
0
POLYLINE
8
0
62
30
66
1
10
0
20
0
30
0
70
8
0
VERTEX
8
0
62
30
10
0.17952561
20
0.51293537
30
0
70
32
0
VERTEX
8
0
62
30
10
0.20780988
20
0.50877883
30
0
70
32
0
SEQEND
8
0
0
POLYLINE
8
0
62
30
66
1
10
0
20
0
30
0
70
8
0
VERTEX
8
0
62
30
10
0.20780988
20
0.50877883
30
0
70
32
0
VERTEX
8
0
62
30
10
0.20780988
20
0.51293537
30
0
70
32
0
SEQEND
8
0
0
POLYLINE
8
0
62
5
66
1
10
0
20
0
30
0
70
8
0
VERTEX
8
0
62
5
10
0.15124134
20
0.45651353
30
0
70
32
0
VERTEX
8
0
62
5
10
0.15124134
20
0.46182859
30
0
70
32
0
SEQEND
8
0
0
POLYLINE
8
0
62
5
66
1
10
0
20
0
30
0
70
8
0
VERTEX
8
0
62
5
10
0.17952561
20
0.45651353
30
0
70
32
0
VERTEX
8
0
62
5
10
0.17952561
20
0.47532081
30
0
70
32
0
SEQEND
8
0
0
POLYLINE
8
0
62
5
66
1
10
0
20
0
30
0
70
8
0
VERTEX
8
0
62
5
10
0.20780988
20
0.45651353
30
0
70
32
0
VERTEX
8
0
62
5
10
0.20780988
20
0.47116427
30
0
70
32
0
SEQEND
8
0
0
POLYLINE
8
0
62
5
66
1
10
0
20
0
30
0
70
8
0
VERTEX
8
0
62
5
10
0.15124134
20
0.49412809
30
0
70
32
0
VERTEX
8
0
62
5
10
0.15124134
20
0.49944315
30
0
70
32
0
SEQEND
8
0
0
POLYLINE
8
0
62
5
66
1
10
0
20
0
30
0
70
8
0
VERTEX
8
0
62
5
10
0.17952561
20
0.49412809
30
0
70
32
0
VERTEX
8
0
62
5
10
0.17952561
20
0.51293537
30
0
70
32
0
SEQEND
8
0
0
POLYLINE
8
0
62
5
66
1
10
0
20
0
30
0
70
8
0
VERTEX
8
0
62
5
10
0.20780988
20
0.49412809
30
0
70
32
0
VERTEX
8
0
62
5
10
0.20780988
20
0.50877883
30
0
70
32
0
SEQEND
8
0
0
POLYLINE
8
0
62
5
66
1
10
0
20
0
30
0
70
8
0
VERTEX
8
0
62
5
10
0.15124134
20
0.47532081
30
0
70
32
0
VERTEX
8
0
62
5
10
0.15124134
20
0.49412809
30
0
70
32
0
SEQEND
8
0
0
POLYLINE
8
0
62
5
66
1
10
0
20
0
30
0
70
8
0
VERTEX
8
0
62
5
10
0.17952561
20
0.47532081
30
0
70
32
0
VERTEX
8
0
62
5
10
0.17952561
20
0.49412809
30
0
70
32
0
SEQEND
8
0
0
POLYLINE
8
0
62
5
66
1
10
0
20
0
30
0
70
8
0
VERTEX
8
0
62
5
10
0.20780988
20
0.47532081
30
0
70
32
0
VERTEX
8
0
62
5
10
0.20780988
20
0.49412809
30
0
70
32
0
SEQEND
8
0
0
POLYLINE
8
0
62
5
66
1
10
0
20
0
30
0
70
8
0
VERTEX
8
0
62
5
10
0.15124134
20
0.51293537
30
0
70
32
0
VERTEX
8
0
62
5
10
0.15124134
20
0.53174265
30
0
70
32
0
SEQEND
8
0
0
POLYLINE
8
0
62
5
66
1
10
0
20
0
30
0
70
8
0
VERTEX
8
0
62
5
10
0.17952561
20
0.51293537
30
0
70
32
0
VERTEX
8
0
62
5
10
0.17952561
20
0.53174265
30
0
70
32
0
SEQEND
8
0
0
POLYLINE
8
0
62
5
66
1
10
0
20
0
30
0
70
8
0
VERTEX
8
0
62
5
10
0.20780988
20
0.51293537
30
0
70
32
0
VERTEX
8
0
62
5
10
0.20780988
20
0.53174265
30
0
70
32
0
SEQEND
8
0
0
POLYLINE
8
0
62
5
66
1
10
0
20
0
30
0
70
8
0
VERTEX
8
0
62
5
10
-0.1033171
20
0.45651353
30
0
70
32
0
VERTEX
8
0
62
5
10
-0.1033171
20
0.53174265
30
0
70
32
0
SEQEND
8
0
0
POLYLINE
8
0
62
5
66
1
10
0
20
0
30
0
70
8
0
VERTEX
8
0
62
5
10
-0.1033171
20
0.45767205
30
0
70
32
0
VERTEX
8
0
62
5
10
-0.075032829
20
0.46182859
30
0
70
32
0
VERTEX
8
0
62
5
10
-0.046748558
20
0.47532081
30
0
70
32
0
VERTEX
8
0
62
5
10
-0.018464286
20
0.47116427
30
0
70
32
0
VERTEX
8
0
62
5
10
0.0098199849
20
0.45767205
30
0
70
32
0
SEQEND
8
0
0
POLYLINE
8
0
62
5
66
1
10
0
20
0
30
0
70
8
0
VERTEX
8
0
62
5
10
-0.1033171
20
0.49528661
30
0
70
32
0
VERTEX
8
0
62
5
10
-0.075032829
20
0.49944315
30
0
70
32
0
VERTEX
8
0
62
5
10
-0.046748558
20
0.51293537
30
0
70
32
0
VERTEX
8
0
62
5
10
-0.018464286
20
0.50877883
30
0
70
32
0
VERTEX
8
0
62
5
10
0.0098199849
20
0.49528661
30
0
70
32
0
SEQEND
8
0
0
POLYLINE
8
0
62
5
66
1
10
0
20
0
30
0
70
8
0
VERTEX
8
0
62
5
10
-0.1033171
20
0.49296956
30
0
70
32
0
VERTEX
8
0
62
5
10
-0.075032829
20
0.48881302
30
0
70
32
0
VERTEX
8
0
62
5
10
-0.046748558
20
0.47532081
30
0
70
32
0
VERTEX
8
0
62
5
10
-0.018464286
20
0.47947735
30
0
70
32
0
VERTEX
8
0
62
5
10
0.0098199849
20
0.49296956
30
0
70
32
0
SEQEND
8
0
0
POLYLINE
8
0
62
5
66
1
10
0
20
0
30
0
70
8
0
VERTEX
8
0
62
5
10
-0.1033171
20
0.53058413
30
0
70
32
0
VERTEX
8
0
62
5
10
-0.075032829
20
0.52642758
30
0
70
32
0
VERTEX
8
0
62
5
10
-0.046748558
20
0.51293537
30
0
70
32
0
VERTEX
8
0
62
5
10
-0.018464286
20
0.51709191
30
0
70
32
0
VERTEX
8
0
62
5
10
0.0098199849
20
0.53058413
30
0
70
32
0
SEQEND
8
0
0
POLYLINE
8
0
62
30
66
1
10
0
20
0
30
0
70
8
0
VERTEX
8
0
62
30
10
-0.1033171
20
0.47532081
30
0
70
32
0
VERTEX
8
0
62
30
10
0.0098199849
20
0.47532081
30
0
70
32
0
SEQEND
8
0
0
POLYLINE
8
0
62
30
66
1
10
0
20
0
30
0
70
8
0
VERTEX
8
0
62
30
10
-0.1033171
20
0.51293537
30
0
70
32
0
VERTEX
8
0
62
30
10
0.0098199849
20
0.51293537
30
0
70
32
0
SEQEND
8
0
0
POLYLINE
8
0
62
30
66
1
10
0
20
0
30
0
70
8
0
VERTEX
8
0
62
30
10
-0.075032829
20
0.46182859
30
0
70
32
0
VERTEX
8
0
62
30
10
-0.075032829
20
0.47532081
30
0
70
32
0
SEQEND
8
0
0
POLYLINE
8
0
62
30
66
1
10
0
20
0
30
0
70
8
0
VERTEX
8
0
62
30
10
-0.046748558
20
0.47532081
30
0
70
32
0
VERTEX
8
0
62
30
10
-0.046748558
20
0.47532081
30
0
70
32
0
SEQEND
8
0
0
POLYLINE
8
0
62
30
66
1
10
0
20
0
30
0
70
8
0
VERTEX
8
0
62
30
10
-0.018464286
20
0.47116427
30
0
70
32
0
VERTEX
8
0
62
30
10
-0.018464286
20
0.47532081
30
0
70
32
0
SEQEND
8
0
0
POLYLINE
8
0
62
30
66
1
10
0
20
0
30
0
70
8
0
VERTEX
8
0
62
30
10
-0.075032829
20
0.49944315
30
0
70
32
0
VERTEX
8
0
62
30
10
-0.075032829
20
0.51293537
30
0
70
32
0
SEQEND
8
0
0
POLYLINE
8
0
62
30
66
1
10
0
20
0
30
0
70
8
0
VERTEX
8
0
62
30
10
-0.075032829
20
0.51293537
30
0
70
32
0
VERTEX
8
0
62
30
10
-0.046748558
20
0.51293537
30
0
70
32
0
SEQEND
8
0
0
POLYLINE
8
0
62
30
66
1
10
0
20
0
30
0
70
8
0
VERTEX
8
0
62
30
10
-0.046748558
20
0.51293537
30
0
70
32
0
VERTEX
8
0
62
30
10
-0.046748558
20
0.51293537
30
0
70
32
0
SEQEND
8
0
0
POLYLINE
8
0
62
30
66
1
10
0
20
0
30
0
70
8
0
VERTEX
8
0
62
30
10
-0.046748558
20
0.51293537
30
0
70
32
0
VERTEX
8
0
62
30
10
-0.018464286
20
0.50877883
30
0
70
32
0
SEQEND
8
0
0
POLYLINE
8
0
62
30
66
1
10
0
20
0
30
0
70
8
0
VERTEX
8
0
62
30
10
-0.018464286
20
0.50877883
30
0
70
32
0
VERTEX
8
0
62
30
10
-0.018464286
20
0.51293537
30
0
70
32
0
SEQEND
8
0
0
POLYLINE
8
0
62
5
66
1
10
0
20
0
30
0
70
8
0
VERTEX
8
0
62
5
10
-0.075032829
20
0.45651353
30
0
70
32
0
VERTEX
8
0
62
5
10
-0.075032829
20
0.46182859
30
0
70
32
0
SEQEND
8
0
0
POLYLINE
8
0
62
5
66
1
10
0
20
0
30
0
70
8
0
VERTEX
8
0
62
5
10
-0.046748558
20
0.45651353
30
0
70
32
0
VERTEX
8
0
62
5
10
-0.046748558
20
0.47532081
30
0
70
32
0
SEQEND
8
0
0
POLYLINE
8
0
62
5
66
1
10
0
20
0
30
0
70
8
0
VERTEX
8
0
62
5
10
-0.018464286
20
0.45651353
30
0
70
32
0
VERTEX
8
0
62
5
10
-0.018464286
20
0.47116427
30
0
70
32
0
SEQEND
8
0
0
POLYLINE
8
0
62
5
66
1
10
0
20
0
30
0
70
8
0
VERTEX
8
0
62
5
10
-0.075032829
20
0.49412809
30
0
70
32
0
VERTEX
8
0
62
5
10
-0.075032829
20
0.49944315
30
0
70
32
0
SEQEND
8
0
0
POLYLINE
8
0
62
5
66
1
10
0
20
0
30
0
70
8
0
VERTEX
8
0
62
5
10
-0.046748558
20
0.49412809
30
0
70
32
0
VERTEX
8
0
62
5
10
-0.046748558
20
0.51293537
30
0
70
32
0
SEQEND
8
0
0
POLYLINE
8
0
62
5
66
1
10
0
20
0
30
0
70
8
0
VERTEX
8
0
62
5
10
-0.018464286
20
0.49412809
30
0
70
32
0
VERTEX
8
0
62
5
10
-0.018464286
20
0.50877883
30
0
70
32
0
SEQEND
8
0
0
POLYLINE
8
0
62
5
66
1
10
0
20
0
30
0
70
8
0
VERTEX
8
0
62
5
10
-0.075032829
20
0.47532081
30
0
70
32
0
VERTEX
8
0
62
5
10
-0.075032829
20
0.49412809
30
0
70
32
0
SEQEND
8
0
0
POLYLINE
8
0
62
5
66
1
10
0
20
0
30
0
70
8
0
VERTEX
8
0
62
5
10
-0.046748558
20
0.47532081
30
0
70
32
0
VERTEX
8
0
62
5
10
-0.046748558
20
0.49412809
30
0
70
32
0
SEQEND
8
0
0
POLYLINE
8
0
62
5
66
1
10
0
20
0
30
0
70
8
0
VERTEX
8
0
62
5
10
-0.018464286
20
0.47532081
30
0
70
32
0
VERTEX
8
0
62
5
10
-0.018464286
20
0.49412809
30
0
70
32
0
SEQEND
8
0
0
POLYLINE
8
0
62
5
66
1
10
0
20
0
30
0
70
8
0
VERTEX
8
0
62
5
10
-0.075032829
20
0.51293537
30
0
70
32
0
VERTEX
8
0
62
5
10
-0.075032829
20
0.53174265
30
0
70
32
0
SEQEND
8
0
0
POLYLINE
8
0
62
5
66
1
10
0
20
0
30
0
70
8
0
VERTEX
8
0
62
5
10
-0.046748558
20
0.51293537
30
0
70
32
0
VERTEX
8
0
62
5
10
-0.046748558
20
0.53174265
30
0
70
32
0
SEQEND
8
0
0
POLYLINE
8
0
62
5
66
1
10
0
20
0
30
0
70
8
0
VERTEX
8
0
62
5
10
-0.018464286
20
0.51293537
30
0
70
32
0
VERTEX
8
0
62
5
10
-0.018464286
20
0.53174265
30
0
70
32
0
SEQEND
8
0
0
POLYLINE
8
0
62
30
66
1
10
0
20
0
30
0
70
8
0
VERTEX
8
0
62
30
10
0.0098199849
20
0.5552973
30
0
70
32
0
VERTEX
8
0
62
30
10
0.12295707
20
0.5552973
30
0
70
32
0
SEQEND
8
0
0
POLYLINE
8
0
62
30
66
1
10
0
20
0
30
0
70
8
0
VERTEX
8
0
62
30
10
0.0098199849
20
0.53174265
30
0
70
32
0
VERTEX
8
0
62
30
10
0.12295707
20
0.53174265
30
0
70
32
0
SEQEND
8
0
0
POLYLINE
8
0
62
5
66
1
10
0
20
0
30
0
70
8
0
VERTEX
8
0
62
5
10
0.0098199849
20
0.53174265
30
0
70
32
0
VERTEX
8
0
62
5
10
0.032552659
20
0.5552973
30
0
70
32
0
VERTEX
8
0
62
5
10
0.038104256
20
0.53174265
30
0
70
32
0
VERTEX
8
0
62
5
10
0.06083693
20
0.5552973
30
0
70
32
0
VERTEX
8
0
62
5
10
0.066388527
20
0.53174265
30
0
70
32
0
VERTEX
8
0
62
5
10
0.089121201
20
0.5552973
30
0
70
32
0
VERTEX
8
0
62
5
10
0.094672799
20
0.53174265
30
0
70
32
0
VERTEX
8
0
62
5
10
0.11740547
20
0.5552973
30
0
70
32
0
VERTEX
8
0
62
5
10
0.12295707
20
0.53174265
30
0
70
32
0
SEQEND
8
0
0
POLYLINE
8
0
62
5
66
1
10
0
20
0
30
0
70
8
0
VERTEX
8
0
62
5
10
0.038104256
20
0.53174265
30
0
70
32
0
VERTEX
8
0
62
5
10
0.038104256
20
0.53174265
30
0
70
32
0
SEQEND
8
0
0
POLYLINE
8
0
62
5
66
1
10
0
20
0
30
0
70
8
0
VERTEX
8
0
62
5
10
0.066388527
20
0.53174265
30
0
70
32
0
VERTEX
8
0
62
5
10
0.066388527
20
0.53174265
30
0
70
32
0
SEQEND
8
0
0
POLYLINE
8
0
62
5
66
1
10
0
20
0
30
0
70
8
0
VERTEX
8
0
62
5
10
0.094672799
20
0.53174265
30
0
70
32
0
VERTEX
8
0
62
5
10
0.094672799
20
0.53174265
30
0
70
32
0
SEQEND
8
0
0
POLYLINE
8
0
62
5
66
1
10
0
20
0
30
0
70
8
0
VERTEX
8
0
62
5
10
0.032552659
20
0.5552973
30
0
70
32
0
VERTEX
8
0
62
5
10
0.032552659
20
0.5552973
30
0
70
32
0
SEQEND
8
0
0
POLYLINE
8
0
62
5
66
1
10
0
20
0
30
0
70
8
0
VERTEX
8
0
62
5
10
0.06083693
20
0.5552973
30
0
70
32
0
VERTEX
8
0
62
5
10
0.06083693
20
0.5552973
30
0
70
32
0
SEQEND
8
0
0
POLYLINE
8
0
62
5
66
1
10
0
20
0
30
0
70
8
0
VERTEX
8
0
62
5
10
0.089121201
20
0.5552973
30
0
70
32
0
VERTEX
8
0
62
5
10
0.089121201
20
0.5552973
30
0
70
32
0
SEQEND
8
0
0
POLYLINE
8
0
62
5
66
1
10
0
20
0
30
0
70
8
0
VERTEX
8
0
62
5
10
0.11740547
20
0.5552973
30
0
70
32
0
VERTEX
8
0
62
5
10
0.11740547
20
0.5552973
30
0
70
32
0
SEQEND
8
0
0
POLYLINE
8
0
62
30
66
1
10
0
20
0
30
0
70
8
0
VERTEX
8
0
62
30
10
0.12295707
20
0.5552973
30
0
70
32
0
VERTEX
8
0
62
30
10
0.23609415
20
0.5552973
30
0
70
32
0
SEQEND
8
0
0
POLYLINE
8
0
62
30
66
1
10
0
20
0
30
0
70
8
0
VERTEX
8
0
62
30
10
0.12295707
20
0.53174265
30
0
70
32
0
VERTEX
8
0
62
30
10
0.23609415
20
0.53174265
30
0
70
32
0
SEQEND
8
0
0
POLYLINE
8
0
62
5
66
1
10
0
20
0
30
0
70
8
0
VERTEX
8
0
62
5
10
0.12295707
20
0.53174265
30
0
70
32
0
VERTEX
8
0
62
5
10
0.14568974
20
0.5552973
30
0
70
32
0
VERTEX
8
0
62
5
10
0.15124134
20
0.53174265
30
0
70
32
0
VERTEX
8
0
62
5
10
0.17397401
20
0.5552973
30
0
70
32
0
VERTEX
8
0
62
5
10
0.17952561
20
0.53174265
30
0
70
32
0
VERTEX
8
0
62
5
10
0.20225829
20
0.5552973
30
0
70
32
0
VERTEX
8
0
62
5
10
0.20780988
20
0.53174265
30
0
70
32
0
VERTEX
8
0
62
5
10
0.23054256
20
0.5552973
30
0
70
32
0
VERTEX
8
0
62
5
10
0.23609415
20
0.53174265
30
0
70
32
0
SEQEND
8
0
0
POLYLINE
8
0
62
5
66
1
10
0
20
0
30
0
70
8
0
VERTEX
8
0
62
5
10
0.15124134
20
0.53174265
30
0
70
32
0
VERTEX
8
0
62
5
10
0.15124134
20
0.53174265
30
0
70
32
0
SEQEND
8
0
0
POLYLINE
8
0
62
5
66
1
10
0
20
0
30
0
70
8
0
VERTEX
8
0
62
5
10
0.17952561
20
0.53174265
30
0
70
32
0
VERTEX
8
0
62
5
10
0.17952561
20
0.53174265
30
0
70
32
0
SEQEND
8
0
0
POLYLINE
8
0
62
5
66
1
10
0
20
0
30
0
70
8
0
VERTEX
8
0
62
5
10
0.20780988
20
0.53174265
30
0
70
32
0
VERTEX
8
0
62
5
10
0.20780988
20
0.53174265
30
0
70
32
0
SEQEND
8
0
0
POLYLINE
8
0
62
5
66
1
10
0
20
0
30
0
70
8
0
VERTEX
8
0
62
5
10
0.14568974
20
0.5552973
30
0
70
32
0
VERTEX
8
0
62
5
10
0.14568974
20
0.5552973
30
0
70
32
0
SEQEND
8
0
0
POLYLINE
8
0
62
5
66
1
10
0
20
0
30
0
70
8
0
VERTEX
8
0
62
5
10
0.17397401
20
0.5552973
30
0
70
32
0
VERTEX
8
0
62
5
10
0.17397401
20
0.5552973
30
0
70
32
0
SEQEND
8
0
0
POLYLINE
8
0
62
5
66
1
10
0
20
0
30
0
70
8
0
VERTEX
8
0
62
5
10
0.20225829
20
0.5552973
30
0
70
32
0
VERTEX
8
0
62
5
10
0.20225829
20
0.5552973
30
0
70
32
0
SEQEND
8
0
0
POLYLINE
8
0
62
5
66
1
10
0
20
0
30
0
70
8
0
VERTEX
8
0
62
5
10
0.23054256
20
0.5552973
30
0
70
32
0
VERTEX
8
0
62
5
10
0.23054256
20
0.5552973
30
0
70
32
0
SEQEND
8
0
0
POLYLINE
8
0
62
30
66
1
10
0
20
0
30
0
70
8
0
VERTEX
8
0
62
30
10
-0.1033171
20
0.5552973
30
0
70
32
0
VERTEX
8
0
62
30
10
0.0098199849
20
0.5552973
30
0
70
32
0
SEQEND
8
0
0
POLYLINE
8
0
62
30
66
1
10
0
20
0
30
0
70
8
0
VERTEX
8
0
62
30
10
-0.1033171
20
0.53174265
30
0
70
32
0
VERTEX
8
0
62
30
10
0.0098199849
20
0.53174265
30
0
70
32
0
SEQEND
8
0
0
POLYLINE
8
0
62
5
66
1
10
0
20
0
30
0
70
8
0
VERTEX
8
0
62
5
10
-0.1033171
20
0.53174265
30
0
70
32
0
VERTEX
8
0
62
5
10
-0.080584426
20
0.5552973
30
0
70
32
0
VERTEX
8
0
62
5
10
-0.075032829
20
0.53174265
30
0
70
32
0
VERTEX
8
0
62
5
10
-0.052300155
20
0.5552973
30
0
70
32
0
VERTEX
8
0
62
5
10
-0.046748558
20
0.53174265
30
0
70
32
0
VERTEX
8
0
62
5
10
-0.024015884
20
0.5552973
30
0
70
32
0
VERTEX
8
0
62
5
10
-0.018464286
20
0.53174265
30
0
70
32
0
VERTEX
8
0
62
5
10
0.0042683873
20
0.5552973
30
0
70
32
0
VERTEX
8
0
62
5
10
0.0098199849
20
0.53174265
30
0
70
32
0
SEQEND
8
0
0
POLYLINE
8
0
62
5
66
1
10
0
20
0
30
0
70
8
0
VERTEX
8
0
62
5
10
-0.075032829
20
0.53174265
30
0
70
32
0
VERTEX
8
0
62
5
10
-0.075032829
20
0.53174265
30
0
70
32
0
SEQEND
8
0
0
POLYLINE
8
0
62
5
66
1
10
0
20
0
30
0
70
8
0
VERTEX
8
0
62
5
10
-0.046748558
20
0.53174265
30
0
70
32
0
VERTEX
8
0
62
5
10
-0.046748558
20
0.53174265
30
0
70
32
0
SEQEND
8
0
0
POLYLINE
8
0
62
5
66
1
10
0
20
0
30
0
70
8
0
VERTEX
8
0
62
5
10
-0.018464286
20
0.53174265
30
0
70
32
0
VERTEX
8
0
62
5
10
-0.018464286
20
0.53174265
30
0
70
32
0
SEQEND
8
0
0
POLYLINE
8
0
62
5
66
1
10
0
20
0
30
0
70
8
0
VERTEX
8
0
62
5
10
-0.080584426
20
0.5552973
30
0
70
32
0
VERTEX
8
0
62
5
10
-0.080584426
20
0.5552973
30
0
70
32
0
SEQEND
8
0
0
POLYLINE
8
0
62
5
66
1
10
0
20
0
30
0
70
8
0
VERTEX
8
0
62
5
10
-0.052300155
20
0.5552973
30
0
70
32
0
VERTEX
8
0
62
5
10
-0.052300155
20
0.5552973
30
0
70
32
0
SEQEND
8
0
0
POLYLINE
8
0
62
5
66
1
10
0
20
0
30
0
70
8
0
VERTEX
8
0
62
5
10
-0.024015884
20
0.5552973
30
0
70
32
0
VERTEX
8
0
62
5
10
-0.024015884
20
0.5552973
30
0
70
32
0
SEQEND
8
0
0
POLYLINE
8
0
62
5
66
1
10
0
20
0
30
0
70
8
0
VERTEX
8
0
62
5
10
0.0042683873
20
0.5552973
30
0
70
32
0
VERTEX
8
0
62
5
10
0.0042683873
20
0.5552973
30
0
70
32
0
SEQEND
8
0
0
POLYLINE
8
0
62
5
66
1
10
0
20
0
30
0
70
8
0
VERTEX
8
0
62
5
10
0.032552659
20
0.5552973
30
0
70
32
0
VERTEX
8
0
62
5
10
0.032552659
20
0.64820269
30
0
70
32
0
SEQEND
8
0
0
POLYLINE
8
0
62
5
66
1
10
0
20
0
30
0
70
8
0
VERTEX
8
0
62
5
10
0.14568974
20
0.5552973
30
0
70
32
0
VERTEX
8
0
62
5
10
0.14568974
20
0.64820269
30
0
70
32
0
SEQEND
8
0
0
POLYLINE
8
0
62
5
66
1
10
0
20
0
30
0
70
8
0
VERTEX
8
0
62
5
10
0.06083693
20
0.5552973
30
0
70
32
0
VERTEX
8
0
62
5
10
0.06083693
20
0.64820269
30
0
70
32
0
SEQEND
8
0
0
POLYLINE
8
0
62
5
66
1
10
0
20
0
30
0
70
8
0
VERTEX
8
0
62
5
10
0.089121201
20
0.5552973
30
0
70
32
0
VERTEX
8
0
62
5
10
0.089121201
20
0.64820269
30
0
70
32
0
SEQEND
8
0
0
POLYLINE
8
0
62
5
66
1
10
0
20
0
30
0
70
8
0
VERTEX
8
0
62
5
10
0.11740547
20
0.5552973
30
0
70
32
0
VERTEX
8
0
62
5
10
0.11740547
20
0.64820269
30
0
70
32
0
SEQEND
8
0
0
POLYLINE
8
0
62
5
66
1
10
0
20
0
30
0
70
8
0
VERTEX
8
0
62
5
10
0.25882683
20
0.5552973
30
0
70
32
0
VERTEX
8
0
62
5
10
0.25882683
20
0.64820269
30
0
70
32
0
SEQEND
8
0
0
POLYLINE
8
0
62
5
66
1
10
0
20
0
30
0
70
8
0
VERTEX
8
0
62
5
10
0.17397401
20
0.5552973
30
0
70
32
0
VERTEX
8
0
62
5
10
0.17397401
20
0.64820269
30
0
70
32
0
SEQEND
8
0
0
POLYLINE
8
0
62
5
66
1
10
0
20
0
30
0
70
8
0
VERTEX
8
0
62
5
10
0.20225829
20
0.5552973
30
0
70
32
0
VERTEX
8
0
62
5
10
0.20225829
20
0.64820269
30
0
70
32
0
SEQEND
8
0
0
POLYLINE
8
0
62
5
66
1
10
0
20
0
30
0
70
8
0
VERTEX
8
0
62
5
10
0.23054256
20
0.5552973
30
0
70
32
0
VERTEX
8
0
62
5
10
0.23054256
20
0.64820269
30
0
70
32
0
SEQEND
8
0
0
POLYLINE
8
0
62
5
66
1
10
0
20
0
30
0
70
8
0
VERTEX
8
0
62
5
10
-0.080584426
20
0.5552973
30
0
70
32
0
VERTEX
8
0
62
5
10
-0.080584426
20
0.64820269
30
0
70
32
0
SEQEND
8
0
0
POLYLINE
8
0
62
5
66
1
10
0
20
0
30
0
70
8
0
VERTEX
8
0
62
5
10
-0.052300155
20
0.5552973
30
0
70
32
0
VERTEX
8
0
62
5
10
-0.052300155
20
0.64820269
30
0
70
32
0
SEQEND
8
0
0
POLYLINE
8
0
62
5
66
1
10
0
20
0
30
0
70
8
0
VERTEX
8
0
62
5
10
-0.024015884
20
0.5552973
30
0
70
32
0
VERTEX
8
0
62
5
10
-0.024015884
20
0.64820269
30
0
70
32
0
SEQEND
8
0
0
POLYLINE
8
0
62
5
66
1
10
0
20
0
30
0
70
8
0
VERTEX
8
0
62
5
10
0.0042683873
20
0.5552973
30
0
70
32
0
VERTEX
8
0
62
5
10
0.0042683873
20
0.64820269
30
0
70
32
0
SEQEND
8
0
0
POLYLINE
8
0
62
5
66
1
10
0
20
0
30
0
70
8
0
VERTEX
8
0
62
5
10
0.032552659
20
0.64820269
30
0
70
32
0
VERTEX
8
0
62
5
10
0.032552659
20
0.66472484
30
0
70
32
0
SEQEND
8
0
0
POLYLINE
8
0
62
5
66
1
10
0
20
0
30
0
70
8
0
VERTEX
8
0
62
5
10
0.14568974
20
0.66472484
30
0
70
32
0
VERTEX
8
0
62
5
10
0.14568974
20
0.64820269
30
0
70
32
0
SEQEND
8
0
0
POLYLINE
8
0
62
5
66
1
10
0
20
0
30
0
70
8
0
VERTEX
8
0
62
5
10
0.032552659
20
0.65229284
30
0
70
32
0
VERTEX
8
0
62
5
10
0.06083693
20
0.64820289
30
0
70
32
0
VERTEX
8
0
62
5
10
0.089121201
20
0.65237381
30
0
70
32
0
VERTEX
8
0
62
5
10
0.11740547
20
0.65646376
30
0
70
32
0
VERTEX
8
0
62
5
10
0.14568974
20
0.65229284
30
0
70
32
0
SEQEND
8
0
0
POLYLINE
8
0
62
5
66
1
10
0
20
0
30
0
70
8
0
SEQEND
8
0
0
POLYLINE
8
0
62
5
66
1
10
0
20
0
30
0
70
8
0
VERTEX
8
0
62
5
10
0.032552659
20
0.66063468
30
0
70
32
0
VERTEX
8
0
62
5
10
0.06083693
20
0.66472464
30
0
70
32
0
VERTEX
8
0
62
5
10
0.089121201
20
0.66055371
30
0
70
32
0
VERTEX
8
0
62
5
10
0.11740547
20
0.65646376
30
0
70
32
0
VERTEX
8
0
62
5
10
0.14568974
20
0.66063468
30
0
70
32
0
SEQEND
8
0
0
POLYLINE
8
0
62
30
66
1
10
0
20
0
30
0
70
8
0
VERTEX
8
0
62
30
10
0.032552659
20
0.65646376
30
0
70
32
0
VERTEX
8
0
62
30
10
0.14568974
20
0.65646376
30
0
70
32
0
SEQEND
8
0
0
POLYLINE
8
0
62
30
66
1
10
0
20
0
30
0
70
8
0
VERTEX
8
0
62
30
10
0.06083693
20
0.64820289
30
0
70
32
0
VERTEX
8
0
62
30
10
0.06083693
20
0.65646376
30
0
70
32
0
SEQEND
8
0
0
POLYLINE
8
0
62
30
66
1
10
0
20
0
30
0
70
8
0
VERTEX
8
0
62
30
10
0.089121201
20
0.65237381
30
0
70
32
0
VERTEX
8
0
62
30
10
0.089121201
20
0.65646376
30
0
70
32
0
SEQEND
8
0
0
POLYLINE
8
0
62
30
66
1
10
0
20
0
30
0
70
8
0
VERTEX
8
0
62
30
10
0.11740547
20
0.65646376
30
0
70
32
0
VERTEX
8
0
62
30
10
0.11740547
20
0.65646376
30
0
70
32
0
SEQEND
8
0
0
POLYLINE
8
0
62
5
66
1
10
0
20
0
30
0
70
8
0
VERTEX
8
0
62
5
10
0.06083693
20
0.64820269
30
0
70
32
0
VERTEX
8
0
62
5
10
0.06083693
20
0.64820289
30
0
70
32
0
SEQEND
8
0
0
POLYLINE
8
0
62
5
66
1
10
0
20
0
30
0
70
8
0
VERTEX
8
0
62
5
10
0.089121201
20
0.64820269
30
0
70
32
0
VERTEX
8
0
62
5
10
0.089121201
20
0.65237381
30
0
70
32
0
SEQEND
8
0
0
POLYLINE
8
0
62
5
66
1
10
0
20
0
30
0
70
8
0
VERTEX
8
0
62
5
10
0.11740547
20
0.64820269
30
0
70
32
0
VERTEX
8
0
62
5
10
0.11740547
20
0.65646376
30
0
70
32
0
SEQEND
8
0
0
POLYLINE
8
0
62
5
66
1
10
0
20
0
30
0
70
8
0
VERTEX
8
0
62
5
10
0.06083693
20
0.65646376
30
0
70
32
0
VERTEX
8
0
62
5
10
0.06083693
20
0.66472484
30
0
70
32
0
SEQEND
8
0
0
POLYLINE
8
0
62
5
66
1
10
0
20
0
30
0
70
8
0
VERTEX
8
0
62
5
10
0.089121201
20
0.65646376
30
0
70
32
0
VERTEX
8
0
62
5
10
0.089121201
20
0.66472484
30
0
70
32
0
SEQEND
8
0
0
POLYLINE
8
0
62
5
66
1
10
0
20
0
30
0
70
8
0
VERTEX
8
0
62
5
10
0.11740547
20
0.65646376
30
0
70
32
0
VERTEX
8
0
62
5
10
0.11740547
20
0.66472484
30
0
70
32
0
SEQEND
8
0
0
POLYLINE
8
0
62
5
66
1
10
0
20
0
30
0
70
8
0
VERTEX
8
0
62
5
10
0.25882683
20
0.66472484
30
0
70
32
0
VERTEX
8
0
62
5
10
0.25882683
20
0.64820269
30
0
70
32
0
SEQEND
8
0
0
POLYLINE
8
0
62
5
66
1
10
0
20
0
30
0
70
8
0
VERTEX
8
0
62
5
10
0.14568974
20
0.65229284
30
0
70
32
0
VERTEX
8
0
62
5
10
0.17397401
20
0.64820289
30
0
70
32
0
VERTEX
8
0
62
5
10
0.20225829
20
0.65237381
30
0
70
32
0
VERTEX
8
0
62
5
10
0.23054256
20
0.65646376
30
0
70
32
0
VERTEX
8
0
62
5
10
0.25882683
20
0.65229284
30
0
70
32
0
SEQEND
8
0
0
POLYLINE
8
0
62
5
66
1
10
0
20
0
30
0
70
8
0
SEQEND
8
0
0
POLYLINE
8
0
62
5
66
1
10
0
20
0
30
0
70
8
0
VERTEX
8
0
62
5
10
0.14568974
20
0.66063468
30
0
70
32
0
VERTEX
8
0
62
5
10
0.17397401
20
0.66472464
30
0
70
32
0
VERTEX
8
0
62
5
10
0.20225829
20
0.66055371
30
0
70
32
0
VERTEX
8
0
62
5
10
0.23054256
20
0.65646376
30
0
70
32
0
VERTEX
8
0
62
5
10
0.25882683
20
0.66063468
30
0
70
32
0
SEQEND
8
0
0
POLYLINE
8
0
62
30
66
1
10
0
20
0
30
0
70
8
0
VERTEX
8
0
62
30
10
0.14568974
20
0.65646376
30
0
70
32
0
VERTEX
8
0
62
30
10
0.25882683
20
0.65646376
30
0
70
32
0
SEQEND
8
0
0
POLYLINE
8
0
62
30
66
1
10
0
20
0
30
0
70
8
0
VERTEX
8
0
62
30
10
0.17397401
20
0.64820289
30
0
70
32
0
VERTEX
8
0
62
30
10
0.17397401
20
0.65646376
30
0
70
32
0
SEQEND
8
0
0
POLYLINE
8
0
62
30
66
1
10
0
20
0
30
0
70
8
0
VERTEX
8
0
62
30
10
0.20225829
20
0.65237381
30
0
70
32
0
VERTEX
8
0
62
30
10
0.20225829
20
0.65646376
30
0
70
32
0
SEQEND
8
0
0
POLYLINE
8
0
62
30
66
1
10
0
20
0
30
0
70
8
0
VERTEX
8
0
62
30
10
0.23054256
20
0.65646376
30
0
70
32
0
VERTEX
8
0
62
30
10
0.23054256
20
0.65646376
30
0
70
32
0
SEQEND
8
0
0
POLYLINE
8
0
62
5
66
1
10
0
20
0
30
0
70
8
0
VERTEX
8
0
62
5
10
0.17397401
20
0.64820269
30
0
70
32
0
VERTEX
8
0
62
5
10
0.17397401
20
0.64820289
30
0
70
32
0
SEQEND
8
0
0
POLYLINE
8
0
62
5
66
1
10
0
20
0
30
0
70
8
0
VERTEX
8
0
62
5
10
0.20225829
20
0.64820269
30
0
70
32
0
VERTEX
8
0
62
5
10
0.20225829
20
0.65237381
30
0
70
32
0
SEQEND
8
0
0
POLYLINE
8
0
62
5
66
1
10
0
20
0
30
0
70
8
0
VERTEX
8
0
62
5
10
0.23054256
20
0.64820269
30
0
70
32
0
VERTEX
8
0
62
5
10
0.23054256
20
0.65646376
30
0
70
32
0
SEQEND
8
0
0
POLYLINE
8
0
62
5
66
1
10
0
20
0
30
0
70
8
0
VERTEX
8
0
62
5
10
0.17397401
20
0.65646376
30
0
70
32
0
VERTEX
8
0
62
5
10
0.17397401
20
0.66472484
30
0
70
32
0
SEQEND
8
0
0
POLYLINE
8
0
62
5
66
1
10
0
20
0
30
0
70
8
0
VERTEX
8
0
62
5
10
0.20225829
20
0.65646376
30
0
70
32
0
VERTEX
8
0
62
5
10
0.20225829
20
0.66472484
30
0
70
32
0
SEQEND
8
0
0
POLYLINE
8
0
62
5
66
1
10
0
20
0
30
0
70
8
0
VERTEX
8
0
62
5
10
0.23054256
20
0.65646376
30
0
70
32
0
VERTEX
8
0
62
5
10
0.23054256
20
0.66472484
30
0
70
32
0
SEQEND
8
0
0
POLYLINE
8
0
62
5
66
1
10
0
20
0
30
0
70
8
0
VERTEX
8
0
62
5
10
-0.080584426
20
0.64820269
30
0
70
32
0
VERTEX
8
0
62
5
10
-0.080584426
20
0.66472484
30
0
70
32
0
SEQEND
8
0
0
POLYLINE
8
0
62
5
66
1
10
0
20
0
30
0
70
8
0
VERTEX
8
0
62
5
10
-0.080584426
20
0.65229284
30
0
70
32
0
VERTEX
8
0
62
5
10
-0.052300155
20
0.64820289
30
0
70
32
0
VERTEX
8
0
62
5
10
-0.024015884
20
0.65237381
30
0
70
32
0
VERTEX
8
0
62
5
10
0.0042683873
20
0.65646376
30
0
70
32
0
VERTEX
8
0
62
5
10
0.032552659
20
0.65229284
30
0
70
32
0
SEQEND
8
0
0
POLYLINE
8
0
62
5
66
1
10
0
20
0
30
0
70
8
0
SEQEND
8
0
0
POLYLINE
8
0
62
5
66
1
10
0
20
0
30
0
70
8
0
VERTEX
8
0
62
5
10
-0.080584426
20
0.66063468
30
0
70
32
0
VERTEX
8
0
62
5
10
-0.052300155
20
0.66472464
30
0
70
32
0
VERTEX
8
0
62
5
10
-0.024015884
20
0.66055371
30
0
70
32
0
VERTEX
8
0
62
5
10
0.0042683873
20
0.65646376
30
0
70
32
0
VERTEX
8
0
62
5
10
0.032552659
20
0.66063468
30
0
70
32
0
SEQEND
8
0
0
POLYLINE
8
0
62
30
66
1
10
0
20
0
30
0
70
8
0
VERTEX
8
0
62
30
10
-0.080584426
20
0.65646376
30
0
70
32
0
VERTEX
8
0
62
30
10
0.032552659
20
0.65646376
30
0
70
32
0
SEQEND
8
0
0
POLYLINE
8
0
62
30
66
1
10
0
20
0
30
0
70
8
0
VERTEX
8
0
62
30
10
-0.052300155
20
0.64820289
30
0
70
32
0
VERTEX
8
0
62
30
10
-0.052300155
20
0.65646376
30
0
70
32
0
SEQEND
8
0
0
POLYLINE
8
0
62
30
66
1
10
0
20
0
30
0
70
8
0
VERTEX
8
0
62
30
10
-0.024015884
20
0.65237381
30
0
70
32
0
VERTEX
8
0
62
30
10
-0.024015884
20
0.65646376
30
0
70
32
0
SEQEND
8
0
0
POLYLINE
8
0
62
30
66
1
10
0
20
0
30
0
70
8
0
VERTEX
8
0
62
30
10
0.0042683873
20
0.65646376
30
0
70
32
0
VERTEX
8
0
62
30
10
0.0042683873
20
0.65646376
30
0
70
32
0
SEQEND
8
0
0
POLYLINE
8
0
62
5
66
1
10
0
20
0
30
0
70
8
0
VERTEX
8
0
62
5
10
-0.052300155
20
0.64820269
30
0
70
32
0
VERTEX
8
0
62
5
10
-0.052300155
20
0.64820289
30
0
70
32
0
SEQEND
8
0
0
POLYLINE
8
0
62
5
66
1
10
0
20
0
30
0
70
8
0
VERTEX
8
0
62
5
10
-0.024015884
20
0.64820269
30
0
70
32
0
VERTEX
8
0
62
5
10
-0.024015884
20
0.65237381
30
0
70
32
0
SEQEND
8
0
0
POLYLINE
8
0
62
5
66
1
10
0
20
0
30
0
70
8
0
VERTEX
8
0
62
5
10
0.0042683873
20
0.64820269
30
0
70
32
0
VERTEX
8
0
62
5
10
0.0042683873
20
0.65646376
30
0
70
32
0
SEQEND
8
0
0
POLYLINE
8
0
62
5
66
1
10
0
20
0
30
0
70
8
0
VERTEX
8
0
62
5
10
-0.052300155
20
0.65646376
30
0
70
32
0
VERTEX
8
0
62
5
10
-0.052300155
20
0.66472484
30
0
70
32
0
SEQEND
8
0
0
POLYLINE
8
0
62
5
66
1
10
0
20
0
30
0
70
8
0
VERTEX
8
0
62
5
10
-0.024015884
20
0.65646376
30
0
70
32
0
VERTEX
8
0
62
5
10
-0.024015884
20
0.66472484
30
0
70
32
0
SEQEND
8
0
0
POLYLINE
8
0
62
5
66
1
10
0
20
0
30
0
70
8
0
VERTEX
8
0
62
5
10
0.0042683873
20
0.65646376
30
0
70
32
0
VERTEX
8
0
62
5
10
0.0042683873
20
0.66472484
30
0
70
32
0
SEQEND
8
0
0
POLYLINE
8
0
62
5
66
1
10
0
20
0
30
0
70
8
0
VERTEX
8
0
62
5
10
0.032552659
20
0.66472484
30
0
70
32
0
VERTEX
8
0
62
5
10
0.032552659
20
0.70472484
30
0
70
32
0
SEQEND
8
0
0
POLYLINE
8
0
62
5
66
1
10
0
20
0
30
0
70
8
0
VERTEX
8
0
62
5
10
0.14568974
20
0.70472484
30
0
70
32
0
VERTEX
8
0
62
5
10
0.14568974
20
0.66472484
30
0
70
32
0
SEQEND
8
0
0
POLYLINE
8
0
62
5
66
1
10
0
20
0
30
0
70
8
0
VERTEX
8
0
62
5
10
0.032552659
20
0.66472484
30
0
70
32
0
VERTEX
8
0
62
5
10
0.14568974
20
0.66472484
30
0
70
32
0
SEQEND
8
0
0
POLYLINE
8
0
62
5
66
1
10
0
20
0
30
0
70
8
0
VERTEX
8
0
62
5
10
0.032552659
20
0.70472484
30
0
70
32
0
VERTEX
8
0
62
5
10
0.14568974
20
0.70472484
30
0
70
32
0
SEQEND
8
0
0
POLYLINE
8
0
62
5
66
1
10
0
20
0
30
0
70
8
0
VERTEX
8
0
62
5
10
0.06083693
20
0.66472484
30
0
70
32
0
VERTEX
8
0
62
5
10
0.06083693
20
0.66472484
30
0
70
32
0
SEQEND
8
0
0
POLYLINE
8
0
62
5
66
1
10
0
20
0
30
0
70
8
0
VERTEX
8
0
62
5
10
0.089121201
20
0.66472484
30
0
70
32
0
VERTEX
8
0
62
5
10
0.089121201
20
0.66472484
30
0
70
32
0
SEQEND
8
0
0
POLYLINE
8
0
62
5
66
1
10
0
20
0
30
0
70
8
0
VERTEX
8
0
62
5
10
0.11740547
20
0.66472484
30
0
70
32
0
VERTEX
8
0
62
5
10
0.11740547
20
0.66472484
30
0
70
32
0
SEQEND
8
0
0
POLYLINE
8
0
62
5
66
1
10
0
20
0
30
0
70
8
0
VERTEX
8
0
62
5
10
0.06083693
20
0.70472484
30
0
70
32
0
VERTEX
8
0
62
5
10
0.06083693
20
0.70472484
30
0
70
32
0
SEQEND
8
0
0
POLYLINE
8
0
62
5
66
1
10
0
20
0
30
0
70
8
0
VERTEX
8
0
62
5
10
0.089121201
20
0.70472484
30
0
70
32
0
VERTEX
8
0
62
5
10
0.089121201
20
0.70472484
30
0
70
32
0
SEQEND
8
0
0
POLYLINE
8
0
62
5
66
1
10
0
20
0
30
0
70
8
0
VERTEX
8
0
62
5
10
0.11740547
20
0.70472484
30
0
70
32
0
VERTEX
8
0
62
5
10
0.11740547
20
0.70472484
30
0
70
32
0
SEQEND
8
0
0
POLYLINE
8
0
62
30
66
1
10
0
20
0
30
0
70
8
0
VERTEX
8
0
62
30
10
0.032552659
20
0.70472484
30
0
70
32
0
VERTEX
8
0
62
30
10
0.06083693
20
0.66472484
30
0
70
32
0
SEQEND
8
0
0
POLYLINE
8
0
62
30
66
1
10
0
20
0
30
0
70
8
0
VERTEX
8
0
62
30
10
0.06083693
20
0.70472484
30
0
70
32
0
VERTEX
8
0
62
30
10
0.032552659
20
0.66472484
30
0
70
32
0
SEQEND
8
0
0
POLYLINE
8
0
62
30
66
1
10
0
20
0
30
0
70
8
0
VERTEX
8
0
62
30
10
0.089121201
20
0.70472484
30
0
70
32
0
VERTEX
8
0
62
30
10
0.11740547
20
0.66472484
30
0
70
32
0
SEQEND
8
0
0
POLYLINE
8
0
62
30
66
1
10
0
20
0
30
0
70
8
0
VERTEX
8
0
62
30
10
0.11740547
20
0.70472484
30
0
70
32
0
VERTEX
8
0
62
30
10
0.089121201
20
0.66472484
30
0
70
32
0
SEQEND
8
0
0
POLYLINE
8
0
62
30
66
1
10
0
20
0
30
0
70
8
0
VERTEX
8
0
62
30
10
0.06083693
20
0.68472484
30
0
70
32
0
VERTEX
8
0
62
30
10
0.089121201
20
0.68472484
30
0
70
32
0
SEQEND
8
0
0
POLYLINE
8
0
62
30
66
1
10
0
20
0
30
0
70
8
0
VERTEX
8
0
62
30
10
0.11740547
20
0.68472484
30
0
70
32
0
VERTEX
8
0
62
30
10
0.14568974
20
0.68472484
30
0
70
32
0
SEQEND
8
0
0
POLYLINE
8
0
62
5
66
1
10
0
20
0
30
0
70
8
0
VERTEX
8
0
62
5
10
0.032552659
20
0.68472484
30
0
70
32
0
VERTEX
8
0
62
5
10
0.046694794
20
0.68472484
30
0
70
32
0
SEQEND
8
0
0
POLYLINE
8
0
62
5
66
1
10
0
20
0
30
0
70
8
0
VERTEX
8
0
62
5
10
0.089121201
20
0.68472484
30
0
70
32
0
VERTEX
8
0
62
5
10
0.10326334
20
0.68472484
30
0
70
32
0
SEQEND
8
0
0
POLYLINE
8
0
62
5
66
1
10
0
20
0
30
0
70
8
0
VERTEX
8
0
62
5
10
0.046694794
20
0.68472484
30
0
70
32
0
VERTEX
8
0
62
5
10
0.06083693
20
0.68472484
30
0
70
32
0
SEQEND
8
0
0
POLYLINE
8
0
62
5
66
1
10
0
20
0
30
0
70
8
0
VERTEX
8
0
62
5
10
0.10326334
20
0.68472484
30
0
70
32
0
VERTEX
8
0
62
5
10
0.11740547
20
0.68472484
30
0
70
32
0
SEQEND
8
0
0
POLYLINE
8
0
62
5
66
1
10
0
20
0
30
0
70
8
0
VERTEX
8
0
62
5
10
0.06083693
20
0.66472484
30
0
70
32
0
VERTEX
8
0
62
5
10
0.06083693
20
0.70472484
30
0
70
32
0
SEQEND
8
0
0
POLYLINE
8
0
62
5
66
1
10
0
20
0
30
0
70
8
0
VERTEX
8
0
62
5
10
0.089121201
20
0.66472484
30
0
70
32
0
VERTEX
8
0
62
5
10
0.089121201
20
0.70472484
30
0
70
32
0
SEQEND
8
0
0
POLYLINE
8
0
62
5
66
1
10
0
20
0
30
0
70
8
0
VERTEX
8
0
62
5
10
0.11740547
20
0.66472484
30
0
70
32
0
VERTEX
8
0
62
5
10
0.11740547
20
0.70472484
30
0
70
32
0
SEQEND
8
0
0
POLYLINE
8
0
62
5
66
1
10
0
20
0
30
0
70
8
0
VERTEX
8
0
62
5
10
0.032552659
20
0.66472484
30
0
70
32
0
VERTEX
8
0
62
5
10
0.032552659
20
0.70472484
30
0
70
32
0
SEQEND
8
0
0
POLYLINE
8
0
62
5
66
1
10
0
20
0
30
0
70
8
0
VERTEX
8
0
62
5
10
0.25882683
20
0.70472484
30
0
70
32
0
VERTEX
8
0
62
5
10
0.25882683
20
0.66472484
30
0
70
32
0
SEQEND
8
0
0
POLYLINE
8
0
62
5
66
1
10
0
20
0
30
0
70
8
0
VERTEX
8
0
62
5
10
0.14568974
20
0.66472484
30
0
70
32
0
VERTEX
8
0
62
5
10
0.25882683
20
0.66472484
30
0
70
32
0
SEQEND
8
0
0
POLYLINE
8
0
62
5
66
1
10
0
20
0
30
0
70
8
0
VERTEX
8
0
62
5
10
0.14568974
20
0.70472484
30
0
70
32
0
VERTEX
8
0
62
5
10
0.25882683
20
0.70472484
30
0
70
32
0
SEQEND
8
0
0
POLYLINE
8
0
62
5
66
1
10
0
20
0
30
0
70
8
0
VERTEX
8
0
62
5
10
0.17397401
20
0.66472484
30
0
70
32
0
VERTEX
8
0
62
5
10
0.17397401
20
0.66472484
30
0
70
32
0
SEQEND
8
0
0
POLYLINE
8
0
62
5
66
1
10
0
20
0
30
0
70
8
0
VERTEX
8
0
62
5
10
0.20225829
20
0.66472484
30
0
70
32
0
VERTEX
8
0
62
5
10
0.20225829
20
0.66472484
30
0
70
32
0
SEQEND
8
0
0
POLYLINE
8
0
62
5
66
1
10
0
20
0
30
0
70
8
0
VERTEX
8
0
62
5
10
0.23054256
20
0.66472484
30
0
70
32
0
VERTEX
8
0
62
5
10
0.23054256
20
0.66472484
30
0
70
32
0
SEQEND
8
0
0
POLYLINE
8
0
62
5
66
1
10
0
20
0
30
0
70
8
0
VERTEX
8
0
62
5
10
0.17397401
20
0.70472484
30
0
70
32
0
VERTEX
8
0
62
5
10
0.17397401
20
0.70472484
30
0
70
32
0
SEQEND
8
0
0
POLYLINE
8
0
62
5
66
1
10
0
20
0
30
0
70
8
0
VERTEX
8
0
62
5
10
0.20225829
20
0.70472484
30
0
70
32
0
VERTEX
8
0
62
5
10
0.20225829
20
0.70472484
30
0
70
32
0
SEQEND
8
0
0
POLYLINE
8
0
62
5
66
1
10
0
20
0
30
0
70
8
0
VERTEX
8
0
62
5
10
0.23054256
20
0.70472484
30
0
70
32
0
VERTEX
8
0
62
5
10
0.23054256
20
0.70472484
30
0
70
32
0
SEQEND
8
0
0
POLYLINE
8
0
62
30
66
1
10
0
20
0
30
0
70
8
0
VERTEX
8
0
62
30
10
0.14568974
20
0.70472484
30
0
70
32
0
VERTEX
8
0
62
30
10
0.17397401
20
0.66472484
30
0
70
32
0
SEQEND
8
0
0
POLYLINE
8
0
62
30
66
1
10
0
20
0
30
0
70
8
0
VERTEX
8
0
62
30
10
0.17397401
20
0.70472484
30
0
70
32
0
VERTEX
8
0
62
30
10
0.14568974
20
0.66472484
30
0
70
32
0
SEQEND
8
0
0
POLYLINE
8
0
62
30
66
1
10
0
20
0
30
0
70
8
0
VERTEX
8
0
62
30
10
0.20225829
20
0.70472484
30
0
70
32
0
VERTEX
8
0
62
30
10
0.23054256
20
0.66472484
30
0
70
32
0
SEQEND
8
0
0
POLYLINE
8
0
62
30
66
1
10
0
20
0
30
0
70
8
0
VERTEX
8
0
62
30
10
0.23054256
20
0.70472484
30
0
70
32
0
VERTEX
8
0
62
30
10
0.20225829
20
0.66472484
30
0
70
32
0
SEQEND
8
0
0
POLYLINE
8
0
62
30
66
1
10
0
20
0
30
0
70
8
0
VERTEX
8
0
62
30
10
0.17397401
20
0.68472484
30
0
70
32
0
VERTEX
8
0
62
30
10
0.20225829
20
0.68472484
30
0
70
32
0
SEQEND
8
0
0
POLYLINE
8
0
62
30
66
1
10
0
20
0
30
0
70
8
0
VERTEX
8
0
62
30
10
0.23054256
20
0.68472484
30
0
70
32
0
VERTEX
8
0
62
30
10
0.25882683
20
0.68472484
30
0
70
32
0
SEQEND
8
0
0
POLYLINE
8
0
62
5
66
1
10
0
20
0
30
0
70
8
0
VERTEX
8
0
62
5
10
0.14568974
20
0.68472484
30
0
70
32
0
VERTEX
8
0
62
5
10
0.15983188
20
0.68472484
30
0
70
32
0
SEQEND
8
0
0
POLYLINE
8
0
62
5
66
1
10
0
20
0
30
0
70
8
0
VERTEX
8
0
62
5
10
0.20225829
20
0.68472484
30
0
70
32
0
VERTEX
8
0
62
5
10
0.21640042
20
0.68472484
30
0
70
32
0
SEQEND
8
0
0
POLYLINE
8
0
62
5
66
1
10
0
20
0
30
0
70
8
0
VERTEX
8
0
62
5
10
0.15983188
20
0.68472484
30
0
70
32
0
VERTEX
8
0
62
5
10
0.17397401
20
0.68472484
30
0
70
32
0
SEQEND
8
0
0
POLYLINE
8
0
62
5
66
1
10
0
20
0
30
0
70
8
0
VERTEX
8
0
62
5
10
0.21640042
20
0.68472484
30
0
70
32
0
VERTEX
8
0
62
5
10
0.23054256
20
0.68472484
30
0
70
32
0
SEQEND
8
0
0
POLYLINE
8
0
62
5
66
1
10
0
20
0
30
0
70
8
0
VERTEX
8
0
62
5
10
0.17397401
20
0.66472484
30
0
70
32
0
VERTEX
8
0
62
5
10
0.17397401
20
0.70472484
30
0
70
32
0
SEQEND
8
0
0
POLYLINE
8
0
62
5
66
1
10
0
20
0
30
0
70
8
0
VERTEX
8
0
62
5
10
0.20225829
20
0.66472484
30
0
70
32
0
VERTEX
8
0
62
5
10
0.20225829
20
0.70472484
30
0
70
32
0
SEQEND
8
0
0
POLYLINE
8
0
62
5
66
1
10
0
20
0
30
0
70
8
0
VERTEX
8
0
62
5
10
0.23054256
20
0.66472484
30
0
70
32
0
VERTEX
8
0
62
5
10
0.23054256
20
0.70472484
30
0
70
32
0
SEQEND
8
0
0
POLYLINE
8
0
62
5
66
1
10
0
20
0
30
0
70
8
0
VERTEX
8
0
62
5
10
0.14568974
20
0.66472484
30
0
70
32
0
VERTEX
8
0
62
5
10
0.14568974
20
0.70472484
30
0
70
32
0
SEQEND
8
0
0
POLYLINE
8
0
62
5
66
1
10
0
20
0
30
0
70
8
0
VERTEX
8
0
62
5
10
-0.080584426
20
0.66472484
30
0
70
32
0
VERTEX
8
0
62
5
10
-0.080584426
20
0.70472484
30
0
70
32
0
SEQEND
8
0
0
POLYLINE
8
0
62
5
66
1
10
0
20
0
30
0
70
8
0
VERTEX
8
0
62
5
10
-0.080584426
20
0.66472484
30
0
70
32
0
VERTEX
8
0
62
5
10
0.032552659
20
0.66472484
30
0
70
32
0
SEQEND
8
0
0
POLYLINE
8
0
62
5
66
1
10
0
20
0
30
0
70
8
0
VERTEX
8
0
62
5
10
-0.080584426
20
0.70472484
30
0
70
32
0
VERTEX
8
0
62
5
10
0.032552659
20
0.70472484
30
0
70
32
0
SEQEND
8
0
0
POLYLINE
8
0
62
5
66
1
10
0
20
0
30
0
70
8
0
VERTEX
8
0
62
5
10
-0.052300155
20
0.66472484
30
0
70
32
0
VERTEX
8
0
62
5
10
-0.052300155
20
0.66472484
30
0
70
32
0
SEQEND
8
0
0
POLYLINE
8
0
62
5
66
1
10
0
20
0
30
0
70
8
0
VERTEX
8
0
62
5
10
-0.024015884
20
0.66472484
30
0
70
32
0
VERTEX
8
0
62
5
10
-0.024015884
20
0.66472484
30
0
70
32
0
SEQEND
8
0
0
POLYLINE
8
0
62
5
66
1
10
0
20
0
30
0
70
8
0
VERTEX
8
0
62
5
10
0.0042683873
20
0.66472484
30
0
70
32
0
VERTEX
8
0
62
5
10
0.0042683873
20
0.66472484
30
0
70
32
0
SEQEND
8
0
0
POLYLINE
8
0
62
5
66
1
10
0
20
0
30
0
70
8
0
VERTEX
8
0
62
5
10
-0.052300155
20
0.70472484
30
0
70
32
0
VERTEX
8
0
62
5
10
-0.052300155
20
0.70472484
30
0
70
32
0
SEQEND
8
0
0
POLYLINE
8
0
62
5
66
1
10
0
20
0
30
0
70
8
0
VERTEX
8
0
62
5
10
-0.024015884
20
0.70472484
30
0
70
32
0
VERTEX
8
0
62
5
10
-0.024015884
20
0.70472484
30
0
70
32
0
SEQEND
8
0
0
POLYLINE
8
0
62
5
66
1
10
0
20
0
30
0
70
8
0
VERTEX
8
0
62
5
10
0.0042683873
20
0.70472484
30
0
70
32
0
VERTEX
8
0
62
5
10
0.0042683873
20
0.70472484
30
0
70
32
0
SEQEND
8
0
0
POLYLINE
8
0
62
30
66
1
10
0
20
0
30
0
70
8
0
VERTEX
8
0
62
30
10
-0.080584426
20
0.70472484
30
0
70
32
0
VERTEX
8
0
62
30
10
-0.052300155
20
0.66472484
30
0
70
32
0
SEQEND
8
0
0
POLYLINE
8
0
62
30
66
1
10
0
20
0
30
0
70
8
0
VERTEX
8
0
62
30
10
-0.052300155
20
0.70472484
30
0
70
32
0
VERTEX
8
0
62
30
10
-0.080584426
20
0.66472484
30
0
70
32
0
SEQEND
8
0
0
POLYLINE
8
0
62
30
66
1
10
0
20
0
30
0
70
8
0
VERTEX
8
0
62
30
10
-0.024015884
20
0.70472484
30
0
70
32
0
VERTEX
8
0
62
30
10
0.0042683873
20
0.66472484
30
0
70
32
0
SEQEND
8
0
0
POLYLINE
8
0
62
30
66
1
10
0
20
0
30
0
70
8
0
VERTEX
8
0
62
30
10
0.0042683873
20
0.70472484
30
0
70
32
0
VERTEX
8
0
62
30
10
-0.024015884
20
0.66472484
30
0
70
32
0
SEQEND
8
0
0
POLYLINE
8
0
62
30
66
1
10
0
20
0
30
0
70
8
0
VERTEX
8
0
62
30
10
-0.052300155
20
0.68472484
30
0
70
32
0
VERTEX
8
0
62
30
10
-0.024015884
20
0.68472484
30
0
70
32
0
SEQEND
8
0
0
POLYLINE
8
0
62
30
66
1
10
0
20
0
30
0
70
8
0
VERTEX
8
0
62
30
10
0.0042683873
20
0.68472484
30
0
70
32
0
VERTEX
8
0
62
30
10
0.032552659
20
0.68472484
30
0
70
32
0
SEQEND
8
0
0
POLYLINE
8
0
62
5
66
1
10
0
20
0
30
0
70
8
0
VERTEX
8
0
62
5
10
-0.080584426
20
0.68472484
30
0
70
32
0
VERTEX
8
0
62
5
10
-0.066442291
20
0.68472484
30
0
70
32
0
SEQEND
8
0
0
POLYLINE
8
0
62
5
66
1
10
0
20
0
30
0
70
8
0
VERTEX
8
0
62
5
10
-0.024015884
20
0.68472484
30
0
70
32
0
VERTEX
8
0
62
5
10
-0.0098737484
20
0.68472484
30
0
70
32
0
SEQEND
8
0
0
POLYLINE
8
0
62
5
66
1
10
0
20
0
30
0
70
8
0
VERTEX
8
0
62
5
10
-0.066442291
20
0.68472484
30
0
70
32
0
VERTEX
8
0
62
5
10
-0.052300155
20
0.68472484
30
0
70
32
0
SEQEND
8
0
0
POLYLINE
8
0
62
5
66
1
10
0
20
0
30
0
70
8
0
VERTEX
8
0
62
5
10
-0.0098737484
20
0.68472484
30
0
70
32
0
VERTEX
8
0
62
5
10
0.0042683873
20
0.68472484
30
0
70
32
0
SEQEND
8
0
0
POLYLINE
8
0
62
5
66
1
10
0
20
0
30
0
70
8
0
VERTEX
8
0
62
5
10
-0.052300155
20
0.66472484
30
0
70
32
0
VERTEX
8
0
62
5
10
-0.052300155
20
0.70472484
30
0
70
32
0
SEQEND
8
0
0
POLYLINE
8
0
62
5
66
1
10
0
20
0
30
0
70
8
0
VERTEX
8
0
62
5
10
-0.024015884
20
0.66472484
30
0
70
32
0
VERTEX
8
0
62
5
10
-0.024015884
20
0.70472484
30
0
70
32
0
SEQEND
8
0
0
POLYLINE
8
0
62
5
66
1
10
0
20
0
30
0
70
8
0
VERTEX
8
0
62
5
10
0.0042683873
20
0.66472484
30
0
70
32
0
VERTEX
8
0
62
5
10
0.0042683873
20
0.70472484
30
0
70
32
0
SEQEND
8
0
0
POLYLINE
8
0
62
5
66
1
10
0
20
0
30
0
70
8
0
VERTEX
8
0
62
5
10
-0.080584426
20
0.66472484
30
0
70
32
0
VERTEX
8
0
62
5
10
-0.080584426
20
0.70472484
30
0
70
32
0
SEQEND
8
0
0
POLYLINE
8
0
62
5
66
1
10
0
20
0
30
0
70
8
0
VERTEX
8
0
62
5
10
0.032552659
20
0.70472484
30
0
70
32
0
VERTEX
8
0
62
5
10
0.032552659
20
0.79324971
30
0
70
32
0
SEQEND
8
0
0
POLYLINE
8
0
62
5
66
1
10
0
20
0
30
0
70
8
0
VERTEX
8
0
62
5
10
0.14568974
20
0.79324971
30
0
70
32
0
VERTEX
8
0
62
5
10
0.14568974
20
0.70472484
30
0
70
32
0
SEQEND
8
0
0
POLYLINE
8
0
62
5
66
1
10
0
20
0
30
0
70
8
0
VERTEX
8
0
62
5
10
0.032552659
20
0.71939449
30
0
70
32
0
VERTEX
8
0
62
5
10
0.06083693
20
0.70523206
30
0
70
32
0
VERTEX
8
0
62
5
10
0.089121201
20
0.71269362
30
0
70
32
0
VERTEX
8
0
62
5
10
0.11740547
20
0.72685605
30
0
70
32
0
VERTEX
8
0
62
5
10
0.14568974
20
0.71939449
30
0
70
32
0
SEQEND
8
0
0
POLYLINE
8
0
62
5
66
1
10
0
20
0
30
0
70
8
0
VERTEX
8
0
62
5
10
0.032552659
20
0.76365693
30
0
70
32
0
VERTEX
8
0
62
5
10
0.06083693
20
0.74949449
30
0
70
32
0
VERTEX
8
0
62
5
10
0.089121201
20
0.75695605
30
0
70
32
0
VERTEX
8
0
62
5
10
0.11740547
20
0.77111849
30
0
70
32
0
VERTEX
8
0
62
5
10
0.14568974
20
0.76365693
30
0
70
32
0
SEQEND
8
0
0
POLYLINE
8
0
62
5
66
1
10
0
20
0
30
0
70
8
0
VERTEX
8
0
62
5
10
0.032552659
20
0.73431761
30
0
70
32
0
VERTEX
8
0
62
5
10
0.06083693
20
0.74848005
30
0
70
32
0
VERTEX
8
0
62
5
10
0.089121201
20
0.74101849
30
0
70
32
0
VERTEX
8
0
62
5
10
0.11740547
20
0.72685605
30
0
70
32
0
VERTEX
8
0
62
5
10
0.14568974
20
0.73431761
30
0
70
32
0
SEQEND
8
0
0
POLYLINE
8
0
62
5
66
1
10
0
20
0
30
0
70
8
0
VERTEX
8
0
62
5
10
0.032552659
20
0.77858005
30
0
70
32
0
VERTEX
8
0
62
5
10
0.06083693
20
0.79274249
30
0
70
32
0
VERTEX
8
0
62
5
10
0.089121201
20
0.78528093
30
0
70
32
0
VERTEX
8
0
62
5
10
0.11740547
20
0.77111849
30
0
70
32
0
VERTEX
8
0
62
5
10
0.14568974
20
0.77858005
30
0
70
32
0
SEQEND
8
0
0
POLYLINE
8
0
62
30
66
1
10
0
20
0
30
0
70
8
0
VERTEX
8
0
62
30
10
0.032552659
20
0.72685605
30
0
70
32
0
VERTEX
8
0
62
30
10
0.14568974
20
0.72685605
30
0
70
32
0
SEQEND
8
0
0
POLYLINE
8
0
62
30
66
1
10
0
20
0
30
0
70
8
0
VERTEX
8
0
62
30
10
0.032552659
20
0.77111849
30
0
70
32
0
VERTEX
8
0
62
30
10
0.14568974
20
0.77111849
30
0
70
32
0
SEQEND
8
0
0
POLYLINE
8
0
62
30
66
1
10
0
20
0
30
0
70
8
0
VERTEX
8
0
62
30
10
0.06083693
20
0.70523206
30
0
70
32
0
VERTEX
8
0
62
30
10
0.06083693
20
0.72685605
30
0
70
32
0
SEQEND
8
0
0
POLYLINE
8
0
62
30
66
1
10
0
20
0
30
0
70
8
0
VERTEX
8
0
62
30
10
0.089121201
20
0.71269362
30
0
70
32
0
VERTEX
8
0
62
30
10
0.089121201
20
0.72685605
30
0
70
32
0
SEQEND
8
0
0
POLYLINE
8
0
62
30
66
1
10
0
20
0
30
0
70
8
0
VERTEX
8
0
62
30
10
0.11740547
20
0.72685605
30
0
70
32
0
VERTEX
8
0
62
30
10
0.11740547
20
0.72685605
30
0
70
32
0
SEQEND
8
0
0
POLYLINE
8
0
62
30
66
1
10
0
20
0
30
0
70
8
0
VERTEX
8
0
62
30
10
0.06083693
20
0.74949449
30
0
70
32
0
VERTEX
8
0
62
30
10
0.06083693
20
0.77111849
30
0
70
32
0
SEQEND
8
0
0
POLYLINE
8
0
62
30
66
1
10
0
20
0
30
0
70
8
0
VERTEX
8
0
62
30
10
0.06083693
20
0.77111849
30
0
70
32
0
VERTEX
8
0
62
30
10
0.089121201
20
0.75695605
30
0
70
32
0
SEQEND
8
0
0
POLYLINE
8
0
62
30
66
1
10
0
20
0
30
0
70
8
0
VERTEX
8
0
62
30
10
0.089121201
20
0.75695605
30
0
70
32
0
VERTEX
8
0
62
30
10
0.089121201
20
0.77111849
30
0
70
32
0
SEQEND
8
0
0
POLYLINE
8
0
62
30
66
1
10
0
20
0
30
0
70
8
0
VERTEX
8
0
62
30
10
0.089121201
20
0.77111849
30
0
70
32
0
VERTEX
8
0
62
30
10
0.11740547
20
0.77111849
30
0
70
32
0
SEQEND
8
0
0
POLYLINE
8
0
62
30
66
1
10
0
20
0
30
0
70
8
0
VERTEX
8
0
62
30
10
0.11740547
20
0.77111849
30
0
70
32
0
VERTEX
8
0
62
30
10
0.11740547
20
0.77111849
30
0
70
32
0
SEQEND
8
0
0
POLYLINE
8
0
62
5
66
1
10
0
20
0
30
0
70
8
0
VERTEX
8
0
62
5
10
0.06083693
20
0.70472484
30
0
70
32
0
VERTEX
8
0
62
5
10
0.06083693
20
0.70523206
30
0
70
32
0
SEQEND
8
0
0
POLYLINE
8
0
62
5
66
1
10
0
20
0
30
0
70
8
0
VERTEX
8
0
62
5
10
0.089121201
20
0.70472484
30
0
70
32
0
VERTEX
8
0
62
5
10
0.089121201
20
0.71269362
30
0
70
32
0
SEQEND
8
0
0
POLYLINE
8
0
62
5
66
1
10
0
20
0
30
0
70
8
0
VERTEX
8
0
62
5
10
0.11740547
20
0.70472484
30
0
70
32
0
VERTEX
8
0
62
5
10
0.11740547
20
0.72685605
30
0
70
32
0
SEQEND
8
0
0
POLYLINE
8
0
62
5
66
1
10
0
20
0
30
0
70
8
0
VERTEX
8
0
62
5
10
0.06083693
20
0.74898727
30
0
70
32
0
VERTEX
8
0
62
5
10
0.06083693
20
0.74949449
30
0
70
32
0
SEQEND
8
0
0
POLYLINE
8
0
62
5
66
1
10
0
20
0
30
0
70
8
0
VERTEX
8
0
62
5
10
0.089121201
20
0.74898727
30
0
70
32
0
VERTEX
8
0
62
5
10
0.089121201
20
0.75695605
30
0
70
32
0
SEQEND
8
0
0
POLYLINE
8
0
62
5
66
1
10
0
20
0
30
0
70
8
0
VERTEX
8
0
62
5
10
0.11740547
20
0.74898727
30
0
70
32
0
VERTEX
8
0
62
5
10
0.11740547
20
0.77111849
30
0
70
32
0
SEQEND
8
0
0
POLYLINE
8
0
62
5
66
1
10
0
20
0
30
0
70
8
0
VERTEX
8
0
62
5
10
0.06083693
20
0.72685605
30
0
70
32
0
VERTEX
8
0
62
5
10
0.06083693
20
0.74898727
30
0
70
32
0
SEQEND
8
0
0
POLYLINE
8
0
62
5
66
1
10
0
20
0
30
0
70
8
0
VERTEX
8
0
62
5
10
0.089121201
20
0.72685605
30
0
70
32
0
VERTEX
8
0
62
5
10
0.089121201
20
0.74898727
30
0
70
32
0
SEQEND
8
0
0
POLYLINE
8
0
62
5
66
1
10
0
20
0
30
0
70
8
0
VERTEX
8
0
62
5
10
0.11740547
20
0.72685605
30
0
70
32
0
VERTEX
8
0
62
5
10
0.11740547
20
0.74898727
30
0
70
32
0
SEQEND
8
0
0
POLYLINE
8
0
62
5
66
1
10
0
20
0
30
0
70
8
0
VERTEX
8
0
62
5
10
0.06083693
20
0.77111849
30
0
70
32
0
VERTEX
8
0
62
5
10
0.06083693
20
0.79324971
30
0
70
32
0
SEQEND
8
0
0
POLYLINE
8
0
62
5
66
1
10
0
20
0
30
0
70
8
0
VERTEX
8
0
62
5
10
0.089121201
20
0.77111849
30
0
70
32
0
VERTEX
8
0
62
5
10
0.089121201
20
0.79324971
30
0
70
32
0
SEQEND
8
0
0
POLYLINE
8
0
62
5
66
1
10
0
20
0
30
0
70
8
0
VERTEX
8
0
62
5
10
0.11740547
20
0.77111849
30
0
70
32
0
VERTEX
8
0
62
5
10
0.11740547
20
0.79324971
30
0
70
32
0
SEQEND
8
0
0
POLYLINE
8
0
62
5
66
1
10
0
20
0
30
0
70
8
0
VERTEX
8
0
62
5
10
0.25882683
20
0.79324971
30
0
70
32
0
VERTEX
8
0
62
5
10
0.25882683
20
0.70472484
30
0
70
32
0
SEQEND
8
0
0
POLYLINE
8
0
62
5
66
1
10
0
20
0
30
0
70
8
0
VERTEX
8
0
62
5
10
0.14568974
20
0.71939449
30
0
70
32
0
VERTEX
8
0
62
5
10
0.17397401
20
0.70523206
30
0
70
32
0
VERTEX
8
0
62
5
10
0.20225829
20
0.71269362
30
0
70
32
0
VERTEX
8
0
62
5
10
0.23054256
20
0.72685605
30
0
70
32
0
VERTEX
8
0
62
5
10
0.25882683
20
0.71939449
30
0
70
32
0
SEQEND
8
0
0
POLYLINE
8
0
62
5
66
1
10
0
20
0
30
0
70
8
0
VERTEX
8
0
62
5
10
0.14568974
20
0.76365693
30
0
70
32
0
VERTEX
8
0
62
5
10
0.17397401
20
0.74949449
30
0
70
32
0
VERTEX
8
0
62
5
10
0.20225829
20
0.75695605
30
0
70
32
0
VERTEX
8
0
62
5
10
0.23054256
20
0.77111849
30
0
70
32
0
VERTEX
8
0
62
5
10
0.25882683
20
0.76365693
30
0
70
32
0
SEQEND
8
0
0
POLYLINE
8
0
62
5
66
1
10
0
20
0
30
0
70
8
0
VERTEX
8
0
62
5
10
0.14568974
20
0.73431761
30
0
70
32
0
VERTEX
8
0
62
5
10
0.17397401
20
0.74848005
30
0
70
32
0
VERTEX
8
0
62
5
10
0.20225829
20
0.74101849
30
0
70
32
0
VERTEX
8
0
62
5
10
0.23054256
20
0.72685605
30
0
70
32
0
VERTEX
8
0
62
5
10
0.25882683
20
0.73431761
30
0
70
32
0
SEQEND
8
0
0
POLYLINE
8
0
62
5
66
1
10
0
20
0
30
0
70
8
0
VERTEX
8
0
62
5
10
0.14568974
20
0.77858005
30
0
70
32
0
VERTEX
8
0
62
5
10
0.17397401
20
0.79274249
30
0
70
32
0
VERTEX
8
0
62
5
10
0.20225829
20
0.78528093
30
0
70
32
0
VERTEX
8
0
62
5
10
0.23054256
20
0.77111849
30
0
70
32
0
VERTEX
8
0
62
5
10
0.25882683
20
0.77858005
30
0
70
32
0
SEQEND
8
0
0
POLYLINE
8
0
62
30
66
1
10
0
20
0
30
0
70
8
0
VERTEX
8
0
62
30
10
0.14568974
20
0.72685605
30
0
70
32
0
VERTEX
8
0
62
30
10
0.25882683
20
0.72685605
30
0
70
32
0
SEQEND
8
0
0
POLYLINE
8
0
62
30
66
1
10
0
20
0
30
0
70
8
0
VERTEX
8
0
62
30
10
0.14568974
20
0.77111849
30
0
70
32
0
VERTEX
8
0
62
30
10
0.25882683
20
0.77111849
30
0
70
32
0
SEQEND
8
0
0
POLYLINE
8
0
62
30
66
1
10
0
20
0
30
0
70
8
0
VERTEX
8
0
62
30
10
0.17397401
20
0.70523206
30
0
70
32
0
VERTEX
8
0
62
30
10
0.17397401
20
0.72685605
30
0
70
32
0
SEQEND
8
0
0
POLYLINE
8
0
62
30
66
1
10
0
20
0
30
0
70
8
0
VERTEX
8
0
62
30
10
0.20225829
20
0.71269362
30
0
70
32
0
VERTEX
8
0
62
30
10
0.20225829
20
0.72685605
30
0
70
32
0
SEQEND
8
0
0
POLYLINE
8
0
62
30
66
1
10
0
20
0
30
0
70
8
0
VERTEX
8
0
62
30
10
0.23054256
20
0.72685605
30
0
70
32
0
VERTEX
8
0
62
30
10
0.23054256
20
0.72685605
30
0
70
32
0
SEQEND
8
0
0
POLYLINE
8
0
62
30
66
1
10
0
20
0
30
0
70
8
0
VERTEX
8
0
62
30
10
0.17397401
20
0.74949449
30
0
70
32
0
VERTEX
8
0
62
30
10
0.17397401
20
0.77111849
30
0
70
32
0
SEQEND
8
0
0
POLYLINE
8
0
62
30
66
1
10
0
20
0
30
0
70
8
0
VERTEX
8
0
62
30
10
0.17397401
20
0.77111849
30
0
70
32
0
VERTEX
8
0
62
30
10
0.20225829
20
0.75695605
30
0
70
32
0
SEQEND
8
0
0
POLYLINE
8
0
62
30
66
1
10
0
20
0
30
0
70
8
0
VERTEX
8
0
62
30
10
0.20225829
20
0.75695605
30
0
70
32
0
VERTEX
8
0
62
30
10
0.20225829
20
0.77111849
30
0
70
32
0
SEQEND
8
0
0
POLYLINE
8
0
62
30
66
1
10
0
20
0
30
0
70
8
0
VERTEX
8
0
62
30
10
0.20225829
20
0.77111849
30
0
70
32
0
VERTEX
8
0
62
30
10
0.23054256
20
0.77111849
30
0
70
32
0
SEQEND
8
0
0
POLYLINE
8
0
62
30
66
1
10
0
20
0
30
0
70
8
0
VERTEX
8
0
62
30
10
0.23054256
20
0.77111849
30
0
70
32
0
VERTEX
8
0
62
30
10
0.23054256
20
0.77111849
30
0
70
32
0
SEQEND
8
0
0
POLYLINE
8
0
62
5
66
1
10
0
20
0
30
0
70
8
0
VERTEX
8
0
62
5
10
0.17397401
20
0.70472484
30
0
70
32
0
VERTEX
8
0
62
5
10
0.17397401
20
0.70523206
30
0
70
32
0
SEQEND
8
0
0
POLYLINE
8
0
62
5
66
1
10
0
20
0
30
0
70
8
0
VERTEX
8
0
62
5
10
0.20225829
20
0.70472484
30
0
70
32
0
VERTEX
8
0
62
5
10
0.20225829
20
0.71269362
30
0
70
32
0
SEQEND
8
0
0
POLYLINE
8
0
62
5
66
1
10
0
20
0
30
0
70
8
0
VERTEX
8
0
62
5
10
0.23054256
20
0.70472484
30
0
70
32
0
VERTEX
8
0
62
5
10
0.23054256
20
0.72685605
30
0
70
32
0
SEQEND
8
0
0
POLYLINE
8
0
62
5
66
1
10
0
20
0
30
0
70
8
0
VERTEX
8
0
62
5
10
0.17397401
20
0.74898727
30
0
70
32
0
VERTEX
8
0
62
5
10
0.17397401
20
0.74949449
30
0
70
32
0
SEQEND
8
0
0
POLYLINE
8
0
62
5
66
1
10
0
20
0
30
0
70
8
0
VERTEX
8
0
62
5
10
0.20225829
20
0.74898727
30
0
70
32
0
VERTEX
8
0
62
5
10
0.20225829
20
0.75695605
30
0
70
32
0
SEQEND
8
0
0
POLYLINE
8
0
62
5
66
1
10
0
20
0
30
0
70
8
0
VERTEX
8
0
62
5
10
0.23054256
20
0.74898727
30
0
70
32
0
VERTEX
8
0
62
5
10
0.23054256
20
0.77111849
30
0
70
32
0
SEQEND
8
0
0
POLYLINE
8
0
62
5
66
1
10
0
20
0
30
0
70
8
0
VERTEX
8
0
62
5
10
0.17397401
20
0.72685605
30
0
70
32
0
VERTEX
8
0
62
5
10
0.17397401
20
0.74898727
30
0
70
32
0
SEQEND
8
0
0
POLYLINE
8
0
62
5
66
1
10
0
20
0
30
0
70
8
0
VERTEX
8
0
62
5
10
0.20225829
20
0.72685605
30
0
70
32
0
VERTEX
8
0
62
5
10
0.20225829
20
0.74898727
30
0
70
32
0
SEQEND
8
0
0
POLYLINE
8
0
62
5
66
1
10
0
20
0
30
0
70
8
0
VERTEX
8
0
62
5
10
0.23054256
20
0.72685605
30
0
70
32
0
VERTEX
8
0
62
5
10
0.23054256
20
0.74898727
30
0
70
32
0
SEQEND
8
0
0
POLYLINE
8
0
62
5
66
1
10
0
20
0
30
0
70
8
0
VERTEX
8
0
62
5
10
0.17397401
20
0.77111849
30
0
70
32
0
VERTEX
8
0
62
5
10
0.17397401
20
0.79324971
30
0
70
32
0
SEQEND
8
0
0
POLYLINE
8
0
62
5
66
1
10
0
20
0
30
0
70
8
0
VERTEX
8
0
62
5
10
0.20225829
20
0.77111849
30
0
70
32
0
VERTEX
8
0
62
5
10
0.20225829
20
0.79324971
30
0
70
32
0
SEQEND
8
0
0
POLYLINE
8
0
62
5
66
1
10
0
20
0
30
0
70
8
0
VERTEX
8
0
62
5
10
0.23054256
20
0.77111849
30
0
70
32
0
VERTEX
8
0
62
5
10
0.23054256
20
0.79324971
30
0
70
32
0
SEQEND
8
0
0
POLYLINE
8
0
62
5
66
1
10
0
20
0
30
0
70
8
0
VERTEX
8
0
62
5
10
-0.080584426
20
0.70472484
30
0
70
32
0
VERTEX
8
0
62
5
10
-0.080584426
20
0.79324971
30
0
70
32
0
SEQEND
8
0
0
POLYLINE
8
0
62
5
66
1
10
0
20
0
30
0
70
8
0
VERTEX
8
0
62
5
10
-0.080584426
20
0.71939449
30
0
70
32
0
VERTEX
8
0
62
5
10
-0.052300155
20
0.70523206
30
0
70
32
0
VERTEX
8
0
62
5
10
-0.024015884
20
0.71269362
30
0
70
32
0
VERTEX
8
0
62
5
10
0.0042683873
20
0.72685605
30
0
70
32
0
VERTEX
8
0
62
5
10
0.032552659
20
0.71939449
30
0
70
32
0
SEQEND
8
0
0
POLYLINE
8
0
62
5
66
1
10
0
20
0
30
0
70
8
0
VERTEX
8
0
62
5
10
-0.080584426
20
0.76365693
30
0
70
32
0
VERTEX
8
0
62
5
10
-0.052300155
20
0.74949449
30
0
70
32
0
VERTEX
8
0
62
5
10
-0.024015884
20
0.75695605
30
0
70
32
0
VERTEX
8
0
62
5
10
0.0042683873
20
0.77111849
30
0
70
32
0
VERTEX
8
0
62
5
10
0.032552659
20
0.76365693
30
0
70
32
0
SEQEND
8
0
0
POLYLINE
8
0
62
5
66
1
10
0
20
0
30
0
70
8
0
VERTEX
8
0
62
5
10
-0.080584426
20
0.73431761
30
0
70
32
0
VERTEX
8
0
62
5
10
-0.052300155
20
0.74848005
30
0
70
32
0
VERTEX
8
0
62
5
10
-0.024015884
20
0.74101849
30
0
70
32
0
VERTEX
8
0
62
5
10
0.0042683873
20
0.72685605
30
0
70
32
0
VERTEX
8
0
62
5
10
0.032552659
20
0.73431761
30
0
70
32
0
SEQEND
8
0
0
POLYLINE
8
0
62
5
66
1
10
0
20
0
30
0
70
8
0
VERTEX
8
0
62
5
10
-0.080584426
20
0.77858005
30
0
70
32
0
VERTEX
8
0
62
5
10
-0.052300155
20
0.79274249
30
0
70
32
0
VERTEX
8
0
62
5
10
-0.024015884
20
0.78528093
30
0
70
32
0
VERTEX
8
0
62
5
10
0.0042683873
20
0.77111849
30
0
70
32
0
VERTEX
8
0
62
5
10
0.032552659
20
0.77858005
30
0
70
32
0
SEQEND
8
0
0
POLYLINE
8
0
62
30
66
1
10
0
20
0
30
0
70
8
0
VERTEX
8
0
62
30
10
-0.080584426
20
0.72685605
30
0
70
32
0
VERTEX
8
0
62
30
10
0.032552659
20
0.72685605
30
0
70
32
0
SEQEND
8
0
0
POLYLINE
8
0
62
30
66
1
10
0
20
0
30
0
70
8
0
VERTEX
8
0
62
30
10
-0.080584426
20
0.77111849
30
0
70
32
0
VERTEX
8
0
62
30
10
0.032552659
20
0.77111849
30
0
70
32
0
SEQEND
8
0
0
POLYLINE
8
0
62
30
66
1
10
0
20
0
30
0
70
8
0
VERTEX
8
0
62
30
10
-0.052300155
20
0.70523206
30
0
70
32
0
VERTEX
8
0
62
30
10
-0.052300155
20
0.72685605
30
0
70
32
0
SEQEND
8
0
0
POLYLINE
8
0
62
30
66
1
10
0
20
0
30
0
70
8
0
VERTEX
8
0
62
30
10
-0.024015884
20
0.71269362
30
0
70
32
0
VERTEX
8
0
62
30
10
-0.024015884
20
0.72685605
30
0
70
32
0
SEQEND
8
0
0
POLYLINE
8
0
62
30
66
1
10
0
20
0
30
0
70
8
0
VERTEX
8
0
62
30
10
0.0042683873
20
0.72685605
30
0
70
32
0
VERTEX
8
0
62
30
10
0.0042683873
20
0.72685605
30
0
70
32
0
SEQEND
8
0
0
POLYLINE
8
0
62
30
66
1
10
0
20
0
30
0
70
8
0
VERTEX
8
0
62
30
10
-0.052300155
20
0.74949449
30
0
70
32
0
VERTEX
8
0
62
30
10
-0.052300155
20
0.77111849
30
0
70
32
0
SEQEND
8
0
0
POLYLINE
8
0
62
30
66
1
10
0
20
0
30
0
70
8
0
VERTEX
8
0
62
30
10
-0.052300155
20
0.77111849
30
0
70
32
0
VERTEX
8
0
62
30
10
-0.024015884
20
0.75695605
30
0
70
32
0
SEQEND
8
0
0
POLYLINE
8
0
62
30
66
1
10
0
20
0
30
0
70
8
0
VERTEX
8
0
62
30
10
-0.024015884
20
0.75695605
30
0
70
32
0
VERTEX
8
0
62
30
10
-0.024015884
20
0.77111849
30
0
70
32
0
SEQEND
8
0
0
POLYLINE
8
0
62
30
66
1
10
0
20
0
30
0
70
8
0
VERTEX
8
0
62
30
10
-0.024015884
20
0.77111849
30
0
70
32
0
VERTEX
8
0
62
30
10
0.0042683873
20
0.77111849
30
0
70
32
0
SEQEND
8
0
0
POLYLINE
8
0
62
30
66
1
10
0
20
0
30
0
70
8
0
VERTEX
8
0
62
30
10
0.0042683873
20
0.77111849
30
0
70
32
0
VERTEX
8
0
62
30
10
0.0042683873
20
0.77111849
30
0
70
32
0
SEQEND
8
0
0
POLYLINE
8
0
62
5
66
1
10
0
20
0
30
0
70
8
0
VERTEX
8
0
62
5
10
-0.052300155
20
0.70472484
30
0
70
32
0
VERTEX
8
0
62
5
10
-0.052300155
20
0.70523206
30
0
70
32
0
SEQEND
8
0
0
POLYLINE
8
0
62
5
66
1
10
0
20
0
30
0
70
8
0
VERTEX
8
0
62
5
10
-0.024015884
20
0.70472484
30
0
70
32
0
VERTEX
8
0
62
5
10
-0.024015884
20
0.71269362
30
0
70
32
0
SEQEND
8
0
0
POLYLINE
8
0
62
5
66
1
10
0
20
0
30
0
70
8
0
VERTEX
8
0
62
5
10
0.0042683873
20
0.70472484
30
0
70
32
0
VERTEX
8
0
62
5
10
0.0042683873
20
0.72685605
30
0
70
32
0
SEQEND
8
0
0
POLYLINE
8
0
62
5
66
1
10
0
20
0
30
0
70
8
0
VERTEX
8
0
62
5
10
-0.052300155
20
0.74898727
30
0
70
32
0
VERTEX
8
0
62
5
10
-0.052300155
20
0.74949449
30
0
70
32
0
SEQEND
8
0
0
POLYLINE
8
0
62
5
66
1
10
0
20
0
30
0
70
8
0
VERTEX
8
0
62
5
10
-0.024015884
20
0.74898727
30
0
70
32
0
VERTEX
8
0
62
5
10
-0.024015884
20
0.75695605
30
0
70
32
0
SEQEND
8
0
0
POLYLINE
8
0
62
5
66
1
10
0
20
0
30
0
70
8
0
VERTEX
8
0
62
5
10
0.0042683873
20
0.74898727
30
0
70
32
0
VERTEX
8
0
62
5
10
0.0042683873
20
0.77111849
30
0
70
32
0
SEQEND
8
0
0
POLYLINE
8
0
62
5
66
1
10
0
20
0
30
0
70
8
0
VERTEX
8
0
62
5
10
-0.052300155
20
0.72685605
30
0
70
32
0
VERTEX
8
0
62
5
10
-0.052300155
20
0.74898727
30
0
70
32
0
SEQEND
8
0
0
POLYLINE
8
0
62
5
66
1
10
0
20
0
30
0
70
8
0
VERTEX
8
0
62
5
10
-0.024015884
20
0.72685605
30
0
70
32
0
VERTEX
8
0
62
5
10
-0.024015884
20
0.74898727
30
0
70
32
0
SEQEND
8
0
0
POLYLINE
8
0
62
5
66
1
10
0
20
0
30
0
70
8
0
VERTEX
8
0
62
5
10
0.0042683873
20
0.72685605
30
0
70
32
0
VERTEX
8
0
62
5
10
0.0042683873
20
0.74898727
30
0
70
32
0
SEQEND
8
0
0
POLYLINE
8
0
62
5
66
1
10
0
20
0
30
0
70
8
0
VERTEX
8
0
62
5
10
-0.052300155
20
0.77111849
30
0
70
32
0
VERTEX
8
0
62
5
10
-0.052300155
20
0.79324971
30
0
70
32
0
SEQEND
8
0
0
POLYLINE
8
0
62
5
66
1
10
0
20
0
30
0
70
8
0
VERTEX
8
0
62
5
10
-0.024015884
20
0.77111849
30
0
70
32
0
VERTEX
8
0
62
5
10
-0.024015884
20
0.79324971
30
0
70
32
0
SEQEND
8
0
0
POLYLINE
8
0
62
5
66
1
10
0
20
0
30
0
70
8
0
VERTEX
8
0
62
5
10
0.0042683873
20
0.77111849
30
0
70
32
0
VERTEX
8
0
62
5
10
0.0042683873
20
0.79324971
30
0
70
32
0
SEQEND
8
0
0
POLYLINE
8
0
62
30
66
1
10
0
20
0
30
0
70
8
0
VERTEX
8
0
62
30
10
0.032552659
20
0.80658499
30
0
70
32
0
VERTEX
8
0
62
30
10
0.14568974
20
0.80658499
30
0
70
32
0
SEQEND
8
0
0
POLYLINE
8
0
62
30
66
1
10
0
20
0
30
0
70
8
0
VERTEX
8
0
62
30
10
0.032552659
20
0.79324971
30
0
70
32
0
VERTEX
8
0
62
30
10
0.14568974
20
0.79324971
30
0
70
32
0
SEQEND
8
0
0
POLYLINE
8
0
62
5
66
1
10
0
20
0
30
0
70
8
0
VERTEX
8
0
62
5
10
0.032552659
20
0.79324971
30
0
70
32
0
VERTEX
8
0
62
5
10
0.050219862
20
0.80658499
30
0
70
32
0
VERTEX
8
0
62
5
10
0.06083693
20
0.79324971
30
0
70
32
0
VERTEX
8
0
62
5
10
0.078504134
20
0.80658499
30
0
70
32
0
VERTEX
8
0
62
5
10
0.089121201
20
0.79324971
30
0
70
32
0
VERTEX
8
0
62
5
10
0.1067884
20
0.80658499
30
0
70
32
0
VERTEX
8
0
62
5
10
0.11740547
20
0.79324971
30
0
70
32
0
VERTEX
8
0
62
5
10
0.13507268
20
0.80658499
30
0
70
32
0
VERTEX
8
0
62
5
10
0.14568974
20
0.79324971
30
0
70
32
0
SEQEND
8
0
0
POLYLINE
8
0
62
5
66
1
10
0
20
0
30
0
70
8
0
VERTEX
8
0
62
5
10
0.06083693
20
0.79324971
30
0
70
32
0
VERTEX
8
0
62
5
10
0.06083693
20
0.79324971
30
0
70
32
0
SEQEND
8
0
0
POLYLINE
8
0
62
5
66
1
10
0
20
0
30
0
70
8
0
VERTEX
8
0
62
5
10
0.089121201
20
0.79324971
30
0
70
32
0
VERTEX
8
0
62
5
10
0.089121201
20
0.79324971
30
0
70
32
0
SEQEND
8
0
0
POLYLINE
8
0
62
5
66
1
10
0
20
0
30
0
70
8
0
VERTEX
8
0
62
5
10
0.11740547
20
0.79324971
30
0
70
32
0
VERTEX
8
0
62
5
10
0.11740547
20
0.79324971
30
0
70
32
0
SEQEND
8
0
0
POLYLINE
8
0
62
5
66
1
10
0
20
0
30
0
70
8
0
VERTEX
8
0
62
5
10
0.050219862
20
0.80658499
30
0
70
32
0
VERTEX
8
0
62
5
10
0.050219862
20
0.80658499
30
0
70
32
0
SEQEND
8
0
0
POLYLINE
8
0
62
5
66
1
10
0
20
0
30
0
70
8
0
VERTEX
8
0
62
5
10
0.078504134
20
0.80658499
30
0
70
32
0
VERTEX
8
0
62
5
10
0.078504134
20
0.80658499
30
0
70
32
0
SEQEND
8
0
0
POLYLINE
8
0
62
5
66
1
10
0
20
0
30
0
70
8
0
VERTEX
8
0
62
5
10
0.1067884
20
0.80658499
30
0
70
32
0
VERTEX
8
0
62
5
10
0.1067884
20
0.80658499
30
0
70
32
0
SEQEND
8
0
0
POLYLINE
8
0
62
5
66
1
10
0
20
0
30
0
70
8
0
VERTEX
8
0
62
5
10
0.13507268
20
0.80658499
30
0
70
32
0
VERTEX
8
0
62
5
10
0.13507268
20
0.80658499
30
0
70
32
0
SEQEND
8
0
0
POLYLINE
8
0
62
30
66
1
10
0
20
0
30
0
70
8
0
VERTEX
8
0
62
30
10
0.14568974
20
0.80658499
30
0
70
32
0
VERTEX
8
0
62
30
10
0.25882683
20
0.80658499
30
0
70
32
0
SEQEND
8
0
0
POLYLINE
8
0
62
30
66
1
10
0
20
0
30
0
70
8
0
VERTEX
8
0
62
30
10
0.14568974
20
0.79324971
30
0
70
32
0
VERTEX
8
0
62
30
10
0.25882683
20
0.79324971
30
0
70
32
0
SEQEND
8
0
0
POLYLINE
8
0
62
5
66
1
10
0
20
0
30
0
70
8
0
VERTEX
8
0
62
5
10
0.14568974
20
0.79324971
30
0
70
32
0
VERTEX
8
0
62
5
10
0.16335695
20
0.80658499
30
0
70
32
0
VERTEX
8
0
62
5
10
0.17397401
20
0.79324971
30
0
70
32
0
VERTEX
8
0
62
5
10
0.19164122
20
0.80658499
30
0
70
32
0
VERTEX
8
0
62
5
10
0.20225829
20
0.79324971
30
0
70
32
0
VERTEX
8
0
62
5
10
0.21992549
20
0.80658499
30
0
70
32
0
VERTEX
8
0
62
5
10
0.23054256
20
0.79324971
30
0
70
32
0
VERTEX
8
0
62
5
10
0.24820976
20
0.80658499
30
0
70
32
0
VERTEX
8
0
62
5
10
0.25882683
20
0.79324971
30
0
70
32
0
SEQEND
8
0
0
POLYLINE
8
0
62
5
66
1
10
0
20
0
30
0
70
8
0
VERTEX
8
0
62
5
10
0.17397401
20
0.79324971
30
0
70
32
0
VERTEX
8
0
62
5
10
0.17397401
20
0.79324971
30
0
70
32
0
SEQEND
8
0
0
POLYLINE
8
0
62
5
66
1
10
0
20
0
30
0
70
8
0
VERTEX
8
0
62
5
10
0.20225829
20
0.79324971
30
0
70
32
0
VERTEX
8
0
62
5
10
0.20225829
20
0.79324971
30
0
70
32
0
SEQEND
8
0
0
POLYLINE
8
0
62
5
66
1
10
0
20
0
30
0
70
8
0
VERTEX
8
0
62
5
10
0.23054256
20
0.79324971
30
0
70
32
0
VERTEX
8
0
62
5
10
0.23054256
20
0.79324971
30
0
70
32
0
SEQEND
8
0
0
POLYLINE
8
0
62
5
66
1
10
0
20
0
30
0
70
8
0
VERTEX
8
0
62
5
10
0.16335695
20
0.80658499
30
0
70
32
0
VERTEX
8
0
62
5
10
0.16335695
20
0.80658499
30
0
70
32
0
SEQEND
8
0
0
POLYLINE
8
0
62
5
66
1
10
0
20
0
30
0
70
8
0
VERTEX
8
0
62
5
10
0.19164122
20
0.80658499
30
0
70
32
0
VERTEX
8
0
62
5
10
0.19164122
20
0.80658499
30
0
70
32
0
SEQEND
8
0
0
POLYLINE
8
0
62
5
66
1
10
0
20
0
30
0
70
8
0
VERTEX
8
0
62
5
10
0.21992549
20
0.80658499
30
0
70
32
0
VERTEX
8
0
62
5
10
0.21992549
20
0.80658499
30
0
70
32
0
SEQEND
8
0
0
POLYLINE
8
0
62
5
66
1
10
0
20
0
30
0
70
8
0
VERTEX
8
0
62
5
10
0.24820976
20
0.80658499
30
0
70
32
0
VERTEX
8
0
62
5
10
0.24820976
20
0.80658499
30
0
70
32
0
SEQEND
8
0
0
POLYLINE
8
0
62
30
66
1
10
0
20
0
30
0
70
8
0
VERTEX
8
0
62
30
10
-0.080584426
20
0.80658499
30
0
70
32
0
VERTEX
8
0
62
30
10
0.032552659
20
0.80658499
30
0
70
32
0
SEQEND
8
0
0
POLYLINE
8
0
62
30
66
1
10
0
20
0
30
0
70
8
0
VERTEX
8
0
62
30
10
-0.080584426
20
0.79324971
30
0
70
32
0
VERTEX
8
0
62
30
10
0.032552659
20
0.79324971
30
0
70
32
0
SEQEND
8
0
0
POLYLINE
8
0
62
5
66
1
10
0
20
0
30
0
70
8
0
VERTEX
8
0
62
5
10
-0.080584426
20
0.79324971
30
0
70
32
0
VERTEX
8
0
62
5
10
-0.062917223
20
0.80658499
30
0
70
32
0
VERTEX
8
0
62
5
10
-0.052300155
20
0.79324971
30
0
70
32
0
VERTEX
8
0
62
5
10
-0.034632951
20
0.80658499
30
0
70
32
0
VERTEX
8
0
62
5
10
-0.024015884
20
0.79324971
30
0
70
32
0
VERTEX
8
0
62
5
10
-0.0063486802
20
0.80658499
30
0
70
32
0
VERTEX
8
0
62
5
10
0.0042683873
20
0.79324971
30
0
70
32
0
VERTEX
8
0
62
5
10
0.021935591
20
0.80658499
30
0
70
32
0
VERTEX
8
0
62
5
10
0.032552659
20
0.79324971
30
0
70
32
0
SEQEND
8
0
0
POLYLINE
8
0
62
5
66
1
10
0
20
0
30
0
70
8
0
VERTEX
8
0
62
5
10
-0.052300155
20
0.79324971
30
0
70
32
0
VERTEX
8
0
62
5
10
-0.052300155
20
0.79324971
30
0
70
32
0
SEQEND
8
0
0
POLYLINE
8
0
62
5
66
1
10
0
20
0
30
0
70
8
0
VERTEX
8
0
62
5
10
-0.024015884
20
0.79324971
30
0
70
32
0
VERTEX
8
0
62
5
10
-0.024015884
20
0.79324971
30
0
70
32
0
SEQEND
8
0
0
POLYLINE
8
0
62
5
66
1
10
0
20
0
30
0
70
8
0
VERTEX
8
0
62
5
10
0.0042683873
20
0.79324971
30
0
70
32
0
VERTEX
8
0
62
5
10
0.0042683873
20
0.79324971
30
0
70
32
0
SEQEND
8
0
0
POLYLINE
8
0
62
5
66
1
10
0
20
0
30
0
70
8
0
VERTEX
8
0
62
5
10
-0.062917223
20
0.80658499
30
0
70
32
0
VERTEX
8
0
62
5
10
-0.062917223
20
0.80658499
30
0
70
32
0
SEQEND
8
0
0
POLYLINE
8
0
62
5
66
1
10
0
20
0
30
0
70
8
0
VERTEX
8
0
62
5
10
-0.034632951
20
0.80658499
30
0
70
32
0
VERTEX
8
0
62
5
10
-0.034632951
20
0.80658499
30
0
70
32
0
SEQEND
8
0
0
POLYLINE
8
0
62
5
66
1
10
0
20
0
30
0
70
8
0
VERTEX
8
0
62
5
10
-0.0063486802
20
0.80658499
30
0
70
32
0
VERTEX
8
0
62
5
10
-0.0063486802
20
0.80658499
30
0
70
32
0
SEQEND
8
0
0
POLYLINE
8
0
62
5
66
1
10
0
20
0
30
0
70
8
0
VERTEX
8
0
62
5
10
0.021935591
20
0.80658499
30
0
70
32
0
VERTEX
8
0
62
5
10
0.021935591
20
0.80658499
30
0
70
32
0
SEQEND
8
0
0
POLYLINE
8
0
62
5
66
1
10
0
20
0
30
0
70
8
0
VERTEX
8
0
62
5
10
0.021935591
20
0.80658499
30
0
70
32
0
VERTEX
8
0
62
5
10
0.021935591
20
0.8550965
30
0
70
32
0
SEQEND
8
0
0
POLYLINE
8
0
62
5
66
1
10
0
20
0
30
0
70
8
0
VERTEX
8
0
62
5
10
0.13507268
20
0.80658499
30
0
70
32
0
VERTEX
8
0
62
5
10
0.13507268
20
0.8550965
30
0
70
32
0
SEQEND
8
0
0
POLYLINE
8
0
62
5
66
1
10
0
20
0
30
0
70
8
0
VERTEX
8
0
62
5
10
0.050219862
20
0.80658499
30
0
70
32
0
VERTEX
8
0
62
5
10
0.050219862
20
0.8550965
30
0
70
32
0
SEQEND
8
0
0
POLYLINE
8
0
62
5
66
1
10
0
20
0
30
0
70
8
0
VERTEX
8
0
62
5
10
0.078504134
20
0.80658499
30
0
70
32
0
VERTEX
8
0
62
5
10
0.078504134
20
0.8550965
30
0
70
32
0
SEQEND
8
0
0
POLYLINE
8
0
62
5
66
1
10
0
20
0
30
0
70
8
0
VERTEX
8
0
62
5
10
0.1067884
20
0.80658499
30
0
70
32
0
VERTEX
8
0
62
5
10
0.1067884
20
0.8550965
30
0
70
32
0
SEQEND
8
0
0
POLYLINE
8
0
62
5
66
1
10
0
20
0
30
0
70
8
0
VERTEX
8
0
62
5
10
0.24820976
20
0.80658499
30
0
70
32
0
VERTEX
8
0
62
5
10
0.24820976
20
0.8550965
30
0
70
32
0
SEQEND
8
0
0
POLYLINE
8
0
62
5
66
1
10
0
20
0
30
0
70
8
0
VERTEX
8
0
62
5
10
0.16335695
20
0.80658499
30
0
70
32
0
VERTEX
8
0
62
5
10
0.16335695
20
0.8550965
30
0
70
32
0
SEQEND
8
0
0
POLYLINE
8
0
62
5
66
1
10
0
20
0
30
0
70
8
0
VERTEX
8
0
62
5
10
0.19164122
20
0.80658499
30
0
70
32
0
VERTEX
8
0
62
5
10
0.19164122
20
0.8550965
30
0
70
32
0
SEQEND
8
0
0
POLYLINE
8
0
62
5
66
1
10
0
20
0
30
0
70
8
0
VERTEX
8
0
62
5
10
0.21992549
20
0.80658499
30
0
70
32
0
VERTEX
8
0
62
5
10
0.21992549
20
0.8550965
30
0
70
32
0
SEQEND
8
0
0
POLYLINE
8
0
62
5
66
1
10
0
20
0
30
0
70
8
0
VERTEX
8
0
62
5
10
-0.091201494
20
0.80658499
30
0
70
32
0
VERTEX
8
0
62
5
10
-0.091201494
20
0.8550965
30
0
70
32
0
SEQEND
8
0
0
POLYLINE
8
0
62
5
66
1
10
0
20
0
30
0
70
8
0
VERTEX
8
0
62
5
10
-0.062917223
20
0.80658499
30
0
70
32
0
VERTEX
8
0
62
5
10
-0.062917223
20
0.8550965
30
0
70
32
0
SEQEND
8
0
0
POLYLINE
8
0
62
5
66
1
10
0
20
0
30
0
70
8
0
VERTEX
8
0
62
5
10
-0.034632951
20
0.80658499
30
0
70
32
0
VERTEX
8
0
62
5
10
-0.034632951
20
0.8550965
30
0
70
32
0
SEQEND
8
0
0
POLYLINE
8
0
62
5
66
1
10
0
20
0
30
0
70
8
0
VERTEX
8
0
62
5
10
-0.0063486802
20
0.80658499
30
0
70
32
0
VERTEX
8
0
62
5
10
-0.0063486802
20
0.8550965
30
0
70
32
0
SEQEND
8
0
0
POLYLINE
8
0
62
5
66
1
10
0
20
0
30
0
70
8
0
VERTEX
8
0
62
5
10
0.021935591
20
0.8550965
30
0
70
32
0
VERTEX
8
0
62
5
10
0.021935591
20
0.88312407
30
0
70
32
0
SEQEND
8
0
0
POLYLINE
8
0
62
5
66
1
10
0
20
0
30
0
70
8
0
VERTEX
8
0
62
5
10
0.13507268
20
0.88312407
30
0
70
32
0
VERTEX
8
0
62
5
10
0.13507268
20
0.8550965
30
0
70
32
0
SEQEND
8
0
0
POLYLINE
8
0
62
5
66
1
10
0
20
0
30
0
70
8
0
VERTEX
8
0
62
5
10
0.021935591
20
0.86164624
30
0
70
32
0
VERTEX
8
0
62
5
10
0.050219862
20
0.86911028
30
0
70
32
0
VERTEX
8
0
62
5
10
0.078504134
20
0.86257596
30
0
70
32
0
VERTEX
8
0
62
5
10
0.1067884
20
0.85511192
30
0
70
32
0
VERTEX
8
0
62
5
10
0.13507268
20
0.86164624
30
0
70
32
0
SEQEND
8
0
0
POLYLINE
8
0
62
5
66
1
10
0
20
0
30
0
70
8
0
SEQEND
8
0
0
POLYLINE
8
0
62
5
66
1
10
0
20
0
30
0
70
8
0
VERTEX
8
0
62
5
10
0.021935591
20
0.87657432
30
0
70
32
0
VERTEX
8
0
62
5
10
0.050219862
20
0.86911028
30
0
70
32
0
VERTEX
8
0
62
5
10
0.078504134
20
0.8756446
30
0
70
32
0
VERTEX
8
0
62
5
10
0.1067884
20
0.88310865
30
0
70
32
0
VERTEX
8
0
62
5
10
0.13507268
20
0.87657432
30
0
70
32
0
SEQEND
8
0
0
POLYLINE
8
0
62
30
66
1
10
0
20
0
30
0
70
8
0
VERTEX
8
0
62
30
10
0.021935591
20
0.86911028
30
0
70
32
0
VERTEX
8
0
62
30
10
0.13507268
20
0.86911028
30
0
70
32
0
SEQEND
8
0
0
POLYLINE
8
0
62
30
66
1
10
0
20
0
30
0
70
8
0
VERTEX
8
0
62
30
10
0.050219862
20
0.86911028
30
0
70
32
0
VERTEX
8
0
62
30
10
0.050219862
20
0.86911028
30
0
70
32
0
SEQEND
8
0
0
POLYLINE
8
0
62
30
66
1
10
0
20
0
30
0
70
8
0
VERTEX
8
0
62
30
10
0.078504134
20
0.86257596
30
0
70
32
0
VERTEX
8
0
62
30
10
0.078504134
20
0.86911028
30
0
70
32
0
SEQEND
8
0
0
POLYLINE
8
0
62
30
66
1
10
0
20
0
30
0
70
8
0
VERTEX
8
0
62
30
10
0.1067884
20
0.85511192
30
0
70
32
0
VERTEX
8
0
62
30
10
0.1067884
20
0.86911028
30
0
70
32
0
SEQEND
8
0
0
POLYLINE
8
0
62
5
66
1
10
0
20
0
30
0
70
8
0
VERTEX
8
0
62
5
10
0.050219862
20
0.8550965
30
0
70
32
0
VERTEX
8
0
62
5
10
0.050219862
20
0.86911028
30
0
70
32
0
SEQEND
8
0
0
POLYLINE
8
0
62
5
66
1
10
0
20
0
30
0
70
8
0
VERTEX
8
0
62
5
10
0.078504134
20
0.8550965
30
0
70
32
0
VERTEX
8
0
62
5
10
0.078504134
20
0.86257596
30
0
70
32
0
SEQEND
8
0
0
POLYLINE
8
0
62
5
66
1
10
0
20
0
30
0
70
8
0
VERTEX
8
0
62
5
10
0.1067884
20
0.8550965
30
0
70
32
0
VERTEX
8
0
62
5
10
0.1067884
20
0.85511192
30
0
70
32
0
SEQEND
8
0
0
POLYLINE
8
0
62
5
66
1
10
0
20
0
30
0
70
8
0
VERTEX
8
0
62
5
10
0.050219862
20
0.86911028
30
0
70
32
0
VERTEX
8
0
62
5
10
0.050219862
20
0.88312407
30
0
70
32
0
SEQEND
8
0
0
POLYLINE
8
0
62
5
66
1
10
0
20
0
30
0
70
8
0
VERTEX
8
0
62
5
10
0.078504134
20
0.86911028
30
0
70
32
0
VERTEX
8
0
62
5
10
0.078504134
20
0.88312407
30
0
70
32
0
SEQEND
8
0
0
POLYLINE
8
0
62
5
66
1
10
0
20
0
30
0
70
8
0
VERTEX
8
0
62
5
10
0.1067884
20
0.86911028
30
0
70
32
0
VERTEX
8
0
62
5
10
0.1067884
20
0.88312407
30
0
70
32
0
SEQEND
8
0
0
POLYLINE
8
0
62
5
66
1
10
0
20
0
30
0
70
8
0
VERTEX
8
0
62
5
10
0.24820976
20
0.88312407
30
0
70
32
0
VERTEX
8
0
62
5
10
0.24820976
20
0.8550965
30
0
70
32
0
SEQEND
8
0
0
POLYLINE
8
0
62
5
66
1
10
0
20
0
30
0
70
8
0
VERTEX
8
0
62
5
10
0.13507268
20
0.86164624
30
0
70
32
0
VERTEX
8
0
62
5
10
0.16335695
20
0.86911028
30
0
70
32
0
VERTEX
8
0
62
5
10
0.19164122
20
0.86257596
30
0
70
32
0
VERTEX
8
0
62
5
10
0.21992549
20
0.85511192
30
0
70
32
0
VERTEX
8
0
62
5
10
0.24820976
20
0.86164624
30
0
70
32
0
SEQEND
8
0
0
POLYLINE
8
0
62
5
66
1
10
0
20
0
30
0
70
8
0
SEQEND
8
0
0
POLYLINE
8
0
62
5
66
1
10
0
20
0
30
0
70
8
0
VERTEX
8
0
62
5
10
0.13507268
20
0.87657432
30
0
70
32
0
VERTEX
8
0
62
5
10
0.16335695
20
0.86911028
30
0
70
32
0
VERTEX
8
0
62
5
10
0.19164122
20
0.8756446
30
0
70
32
0
VERTEX
8
0
62
5
10
0.21992549
20
0.88310865
30
0
70
32
0
VERTEX
8
0
62
5
10
0.24820976
20
0.87657432
30
0
70
32
0
SEQEND
8
0
0
POLYLINE
8
0
62
30
66
1
10
0
20
0
30
0
70
8
0
VERTEX
8
0
62
30
10
0.13507268
20
0.86911028
30
0
70
32
0
VERTEX
8
0
62
30
10
0.24820976
20
0.86911028
30
0
70
32
0
SEQEND
8
0
0
POLYLINE
8
0
62
30
66
1
10
0
20
0
30
0
70
8
0
VERTEX
8
0
62
30
10
0.16335695
20
0.86911028
30
0
70
32
0
VERTEX
8
0
62
30
10
0.16335695
20
0.86911028
30
0
70
32
0
SEQEND
8
0
0
POLYLINE
8
0
62
30
66
1
10
0
20
0
30
0
70
8
0
VERTEX
8
0
62
30
10
0.19164122
20
0.86257596
30
0
70
32
0
VERTEX
8
0
62
30
10
0.19164122
20
0.86911028
30
0
70
32
0
SEQEND
8
0
0
POLYLINE
8
0
62
30
66
1
10
0
20
0
30
0
70
8
0
VERTEX
8
0
62
30
10
0.21992549
20
0.85511192
30
0
70
32
0
VERTEX
8
0
62
30
10
0.21992549
20
0.86911028
30
0
70
32
0
SEQEND
8
0
0
POLYLINE
8
0
62
5
66
1
10
0
20
0
30
0
70
8
0
VERTEX
8
0
62
5
10
0.16335695
20
0.8550965
30
0
70
32
0
VERTEX
8
0
62
5
10
0.16335695
20
0.86911028
30
0
70
32
0
SEQEND
8
0
0
POLYLINE
8
0
62
5
66
1
10
0
20
0
30
0
70
8
0
VERTEX
8
0
62
5
10
0.19164122
20
0.8550965
30
0
70
32
0
VERTEX
8
0
62
5
10
0.19164122
20
0.86257596
30
0
70
32
0
SEQEND
8
0
0
POLYLINE
8
0
62
5
66
1
10
0
20
0
30
0
70
8
0
VERTEX
8
0
62
5
10
0.21992549
20
0.8550965
30
0
70
32
0
VERTEX
8
0
62
5
10
0.21992549
20
0.85511192
30
0
70
32
0
SEQEND
8
0
0
POLYLINE
8
0
62
5
66
1
10
0
20
0
30
0
70
8
0
VERTEX
8
0
62
5
10
0.16335695
20
0.86911028
30
0
70
32
0
VERTEX
8
0
62
5
10
0.16335695
20
0.88312407
30
0
70
32
0
SEQEND
8
0
0
POLYLINE
8
0
62
5
66
1
10
0
20
0
30
0
70
8
0
VERTEX
8
0
62
5
10
0.19164122
20
0.86911028
30
0
70
32
0
VERTEX
8
0
62
5
10
0.19164122
20
0.88312407
30
0
70
32
0
SEQEND
8
0
0
POLYLINE
8
0
62
5
66
1
10
0
20
0
30
0
70
8
0
VERTEX
8
0
62
5
10
0.21992549
20
0.86911028
30
0
70
32
0
VERTEX
8
0
62
5
10
0.21992549
20
0.88312407
30
0
70
32
0
SEQEND
8
0
0
POLYLINE
8
0
62
5
66
1
10
0
20
0
30
0
70
8
0
VERTEX
8
0
62
5
10
-0.091201494
20
0.8550965
30
0
70
32
0
VERTEX
8
0
62
5
10
-0.091201494
20
0.88312407
30
0
70
32
0
SEQEND
8
0
0
POLYLINE
8
0
62
5
66
1
10
0
20
0
30
0
70
8
0
VERTEX
8
0
62
5
10
-0.091201494
20
0.86164624
30
0
70
32
0
VERTEX
8
0
62
5
10
-0.062917223
20
0.86911028
30
0
70
32
0
VERTEX
8
0
62
5
10
-0.034632951
20
0.86257596
30
0
70
32
0
VERTEX
8
0
62
5
10
-0.0063486802
20
0.85511192
30
0
70
32
0
VERTEX
8
0
62
5
10
0.021935591
20
0.86164624
30
0
70
32
0
SEQEND
8
0
0
POLYLINE
8
0
62
5
66
1
10
0
20
0
30
0
70
8
0
SEQEND
8
0
0
POLYLINE
8
0
62
5
66
1
10
0
20
0
30
0
70
8
0
VERTEX
8
0
62
5
10
-0.091201494
20
0.87657432
30
0
70
32
0
VERTEX
8
0
62
5
10
-0.062917223
20
0.86911028
30
0
70
32
0
VERTEX
8
0
62
5
10
-0.034632951
20
0.8756446
30
0
70
32
0
VERTEX
8
0
62
5
10
-0.0063486802
20
0.88310865
30
0
70
32
0
VERTEX
8
0
62
5
10
0.021935591
20
0.87657432
30
0
70
32
0
SEQEND
8
0
0
POLYLINE
8
0
62
30
66
1
10
0
20
0
30
0
70
8
0
VERTEX
8
0
62
30
10
-0.091201494
20
0.86911028
30
0
70
32
0
VERTEX
8
0
62
30
10
0.021935591
20
0.86911028
30
0
70
32
0
SEQEND
8
0
0
POLYLINE
8
0
62
30
66
1
10
0
20
0
30
0
70
8
0
VERTEX
8
0
62
30
10
-0.062917223
20
0.86911028
30
0
70
32
0
VERTEX
8
0
62
30
10
-0.062917223
20
0.86911028
30
0
70
32
0
SEQEND
8
0
0
POLYLINE
8
0
62
30
66
1
10
0
20
0
30
0
70
8
0
VERTEX
8
0
62
30
10
-0.034632951
20
0.86257596
30
0
70
32
0
VERTEX
8
0
62
30
10
-0.034632951
20
0.86911028
30
0
70
32
0
SEQEND
8
0
0
POLYLINE
8
0
62
30
66
1
10
0
20
0
30
0
70
8
0
VERTEX
8
0
62
30
10
-0.0063486802
20
0.85511192
30
0
70
32
0
VERTEX
8
0
62
30
10
-0.0063486802
20
0.86911028
30
0
70
32
0
SEQEND
8
0
0
POLYLINE
8
0
62
5
66
1
10
0
20
0
30
0
70
8
0
VERTEX
8
0
62
5
10
-0.062917223
20
0.8550965
30
0
70
32
0
VERTEX
8
0
62
5
10
-0.062917223
20
0.86911028
30
0
70
32
0
SEQEND
8
0
0
POLYLINE
8
0
62
5
66
1
10
0
20
0
30
0
70
8
0
VERTEX
8
0
62
5
10
-0.034632951
20
0.8550965
30
0
70
32
0
VERTEX
8
0
62
5
10
-0.034632951
20
0.86257596
30
0
70
32
0
SEQEND
8
0
0
POLYLINE
8
0
62
5
66
1
10
0
20
0
30
0
70
8
0
VERTEX
8
0
62
5
10
-0.0063486802
20
0.8550965
30
0
70
32
0
VERTEX
8
0
62
5
10
-0.0063486802
20
0.85511192
30
0
70
32
0
SEQEND
8
0
0
POLYLINE
8
0
62
5
66
1
10
0
20
0
30
0
70
8
0
VERTEX
8
0
62
5
10
-0.062917223
20
0.86911028
30
0
70
32
0
VERTEX
8
0
62
5
10
-0.062917223
20
0.88312407
30
0
70
32
0
SEQEND
8
0
0
POLYLINE
8
0
62
5
66
1
10
0
20
0
30
0
70
8
0
VERTEX
8
0
62
5
10
-0.034632951
20
0.86911028
30
0
70
32
0
VERTEX
8
0
62
5
10
-0.034632951
20
0.88312407
30
0
70
32
0
SEQEND
8
0
0
POLYLINE
8
0
62
5
66
1
10
0
20
0
30
0
70
8
0
VERTEX
8
0
62
5
10
-0.0063486802
20
0.86911028
30
0
70
32
0
VERTEX
8
0
62
5
10
-0.0063486802
20
0.88312407
30
0
70
32
0
SEQEND
8
0
0
POLYLINE
8
0
62
5
66
1
10
0
20
0
30
0
70
8
0
VERTEX
8
0
62
5
10
0.021935591
20
0.88312407
30
0
70
32
0
VERTEX
8
0
62
5
10
0.021935591
20
0.92312407
30
0
70
32
0
SEQEND
8
0
0
POLYLINE
8
0
62
5
66
1
10
0
20
0
30
0
70
8
0
VERTEX
8
0
62
5
10
0.13507268
20
0.92312407
30
0
70
32
0
VERTEX
8
0
62
5
10
0.13507268
20
0.88312407
30
0
70
32
0
SEQEND
8
0
0
POLYLINE
8
0
62
5
66
1
10
0
20
0
30
0
70
8
0
VERTEX
8
0
62
5
10
0.021935591
20
0.88312407
30
0
70
32
0
VERTEX
8
0
62
5
10
0.13507268
20
0.88312407
30
0
70
32
0
SEQEND
8
0
0
POLYLINE
8
0
62
5
66
1
10
0
20
0
30
0
70
8
0
VERTEX
8
0
62
5
10
0.021935591
20
0.92312407
30
0
70
32
0
VERTEX
8
0
62
5
10
0.13507268
20
0.92312407
30
0
70
32
0
SEQEND
8
0
0
POLYLINE
8
0
62
5
66
1
10
0
20
0
30
0
70
8
0
VERTEX
8
0
62
5
10
0.050219862
20
0.88312407
30
0
70
32
0
VERTEX
8
0
62
5
10
0.050219862
20
0.88312407
30
0
70
32
0
SEQEND
8
0
0
POLYLINE
8
0
62
5
66
1
10
0
20
0
30
0
70
8
0
VERTEX
8
0
62
5
10
0.078504134
20
0.88312407
30
0
70
32
0
VERTEX
8
0
62
5
10
0.078504134
20
0.88312407
30
0
70
32
0
SEQEND
8
0
0
POLYLINE
8
0
62
5
66
1
10
0
20
0
30
0
70
8
0
VERTEX
8
0
62
5
10
0.1067884
20
0.88312407
30
0
70
32
0
VERTEX
8
0
62
5
10
0.1067884
20
0.88312407
30
0
70
32
0
SEQEND
8
0
0
POLYLINE
8
0
62
5
66
1
10
0
20
0
30
0
70
8
0
VERTEX
8
0
62
5
10
0.050219862
20
0.92312407
30
0
70
32
0
VERTEX
8
0
62
5
10
0.050219862
20
0.92312407
30
0
70
32
0
SEQEND
8
0
0
POLYLINE
8
0
62
5
66
1
10
0
20
0
30
0
70
8
0
VERTEX
8
0
62
5
10
0.078504134
20
0.92312407
30
0
70
32
0
VERTEX
8
0
62
5
10
0.078504134
20
0.92312407
30
0
70
32
0
SEQEND
8
0
0
POLYLINE
8
0
62
5
66
1
10
0
20
0
30
0
70
8
0
VERTEX
8
0
62
5
10
0.1067884
20
0.92312407
30
0
70
32
0
VERTEX
8
0
62
5
10
0.1067884
20
0.92312407
30
0
70
32
0
SEQEND
8
0
0
POLYLINE
8
0
62
30
66
1
10
0
20
0
30
0
70
8
0
VERTEX
8
0
62
30
10
0.021935591
20
0.88312407
30
0
70
32
0
VERTEX
8
0
62
30
10
0.036077727
20
0.90312407
30
0
70
32
0
SEQEND
8
0
0
POLYLINE
8
0
62
30
66
1
10
0
20
0
30
0
70
8
0
VERTEX
8
0
62
30
10
0.036077727
20
0.90312407
30
0
70
32
0
VERTEX
8
0
62
30
10
0.050219862
20
0.88312407
30
0
70
32
0
SEQEND
8
0
0
POLYLINE
8
0
62
30
66
1
10
0
20
0
30
0
70
8
0
VERTEX
8
0
62
30
10
0.078504134
20
0.88312407
30
0
70
32
0
VERTEX
8
0
62
30
10
0.092646269
20
0.90312407
30
0
70
32
0
SEQEND
8
0
0
POLYLINE
8
0
62
30
66
1
10
0
20
0
30
0
70
8
0
VERTEX
8
0
62
30
10
0.092646269
20
0.90312407
30
0
70
32
0
VERTEX
8
0
62
30
10
0.1067884
20
0.88312407
30
0
70
32
0
SEQEND
8
0
0
POLYLINE
8
0
62
30
66
1
10
0
20
0
30
0
70
8
0
VERTEX
8
0
62
30
10
0.050219862
20
0.90312407
30
0
70
32
0
VERTEX
8
0
62
30
10
0.078504134
20
0.90312407
30
0
70
32
0
SEQEND
8
0
0
POLYLINE
8
0
62
30
66
1
10
0
20
0
30
0
70
8
0
VERTEX
8
0
62
30
10
0.1067884
20
0.90312407
30
0
70
32
0
VERTEX
8
0
62
30
10
0.13507268
20
0.90312407
30
0
70
32
0
SEQEND
8
0
0
POLYLINE
8
0
62
5
66
1
10
0
20
0
30
0
70
8
0
VERTEX
8
0
62
5
10
0.021935591
20
0.90312407
30
0
70
32
0
VERTEX
8
0
62
5
10
0.036077727
20
0.90312407
30
0
70
32
0
SEQEND
8
0
0
POLYLINE
8
0
62
5
66
1
10
0
20
0
30
0
70
8
0
VERTEX
8
0
62
5
10
0.078504134
20
0.90312407
30
0
70
32
0
VERTEX
8
0
62
5
10
0.092646269
20
0.90312407
30
0
70
32
0
SEQEND
8
0
0
POLYLINE
8
0
62
5
66
1
10
0
20
0
30
0
70
8
0
VERTEX
8
0
62
5
10
0.036077727
20
0.90312407
30
0
70
32
0
VERTEX
8
0
62
5
10
0.050219862
20
0.90312407
30
0
70
32
0
SEQEND
8
0
0
POLYLINE
8
0
62
5
66
1
10
0
20
0
30
0
70
8
0
VERTEX
8
0
62
5
10
0.092646269
20
0.90312407
30
0
70
32
0
VERTEX
8
0
62
5
10
0.1067884
20
0.90312407
30
0
70
32
0
SEQEND
8
0
0
POLYLINE
8
0
62
5
66
1
10
0
20
0
30
0
70
8
0
VERTEX
8
0
62
5
10
0.050219862
20
0.88312407
30
0
70
32
0
VERTEX
8
0
62
5
10
0.050219862
20
0.92312407
30
0
70
32
0
SEQEND
8
0
0
POLYLINE
8
0
62
5
66
1
10
0
20
0
30
0
70
8
0
VERTEX
8
0
62
5
10
0.078504134
20
0.88312407
30
0
70
32
0
VERTEX
8
0
62
5
10
0.078504134
20
0.92312407
30
0
70
32
0
SEQEND
8
0
0
POLYLINE
8
0
62
5
66
1
10
0
20
0
30
0
70
8
0
VERTEX
8
0
62
5
10
0.1067884
20
0.88312407
30
0
70
32
0
VERTEX
8
0
62
5
10
0.1067884
20
0.92312407
30
0
70
32
0
SEQEND
8
0
0
POLYLINE
8
0
62
5
66
1
10
0
20
0
30
0
70
8
0
VERTEX
8
0
62
5
10
0.021935591
20
0.88312407
30
0
70
32
0
VERTEX
8
0
62
5
10
0.021935591
20
0.92312407
30
0
70
32
0
SEQEND
8
0
0
POLYLINE
8
0
62
5
66
1
10
0
20
0
30
0
70
8
0
VERTEX
8
0
62
5
10
0.24820976
20
0.92312407
30
0
70
32
0
VERTEX
8
0
62
5
10
0.24820976
20
0.88312407
30
0
70
32
0
SEQEND
8
0
0
POLYLINE
8
0
62
5
66
1
10
0
20
0
30
0
70
8
0
VERTEX
8
0
62
5
10
0.13507268
20
0.88312407
30
0
70
32
0
VERTEX
8
0
62
5
10
0.24820976
20
0.88312407
30
0
70
32
0
SEQEND
8
0
0
POLYLINE
8
0
62
5
66
1
10
0
20
0
30
0
70
8
0
VERTEX
8
0
62
5
10
0.13507268
20
0.92312407
30
0
70
32
0
VERTEX
8
0
62
5
10
0.24820976
20
0.92312407
30
0
70
32
0
SEQEND
8
0
0
POLYLINE
8
0
62
5
66
1
10
0
20
0
30
0
70
8
0
VERTEX
8
0
62
5
10
0.16335695
20
0.88312407
30
0
70
32
0
VERTEX
8
0
62
5
10
0.16335695
20
0.88312407
30
0
70
32
0
SEQEND
8
0
0
POLYLINE
8
0
62
5
66
1
10
0
20
0
30
0
70
8
0
VERTEX
8
0
62
5
10
0.19164122
20
0.88312407
30
0
70
32
0
VERTEX
8
0
62
5
10
0.19164122
20
0.88312407
30
0
70
32
0
SEQEND
8
0
0
POLYLINE
8
0
62
5
66
1
10
0
20
0
30
0
70
8
0
VERTEX
8
0
62
5
10
0.21992549
20
0.88312407
30
0
70
32
0
VERTEX
8
0
62
5
10
0.21992549
20
0.88312407
30
0
70
32
0
SEQEND
8
0
0
POLYLINE
8
0
62
5
66
1
10
0
20
0
30
0
70
8
0
VERTEX
8
0
62
5
10
0.16335695
20
0.92312407
30
0
70
32
0
VERTEX
8
0
62
5
10
0.16335695
20
0.92312407
30
0
70
32
0
SEQEND
8
0
0
POLYLINE
8
0
62
5
66
1
10
0
20
0
30
0
70
8
0
VERTEX
8
0
62
5
10
0.19164122
20
0.92312407
30
0
70
32
0
VERTEX
8
0
62
5
10
0.19164122
20
0.92312407
30
0
70
32
0
SEQEND
8
0
0
POLYLINE
8
0
62
5
66
1
10
0
20
0
30
0
70
8
0
VERTEX
8
0
62
5
10
0.21992549
20
0.92312407
30
0
70
32
0
VERTEX
8
0
62
5
10
0.21992549
20
0.92312407
30
0
70
32
0
SEQEND
8
0
0
POLYLINE
8
0
62
30
66
1
10
0
20
0
30
0
70
8
0
VERTEX
8
0
62
30
10
0.13507268
20
0.88312407
30
0
70
32
0
VERTEX
8
0
62
30
10
0.14921481
20
0.90312407
30
0
70
32
0
SEQEND
8
0
0
POLYLINE
8
0
62
30
66
1
10
0
20
0
30
0
70
8
0
VERTEX
8
0
62
30
10
0.14921481
20
0.90312407
30
0
70
32
0
VERTEX
8
0
62
30
10
0.16335695
20
0.88312407
30
0
70
32
0
SEQEND
8
0
0
POLYLINE
8
0
62
30
66
1
10
0
20
0
30
0
70
8
0
VERTEX
8
0
62
30
10
0.19164122
20
0.88312407
30
0
70
32
0
VERTEX
8
0
62
30
10
0.20578335
20
0.90312407
30
0
70
32
0
SEQEND
8
0
0
POLYLINE
8
0
62
30
66
1
10
0
20
0
30
0
70
8
0
VERTEX
8
0
62
30
10
0.20578335
20
0.90312407
30
0
70
32
0
VERTEX
8
0
62
30
10
0.21992549
20
0.88312407
30
0
70
32
0
SEQEND
8
0
0
POLYLINE
8
0
62
30
66
1
10
0
20
0
30
0
70
8
0
VERTEX
8
0
62
30
10
0.16335695
20
0.90312407
30
0
70
32
0
VERTEX
8
0
62
30
10
0.19164122
20
0.90312407
30
0
70
32
0
SEQEND
8
0
0
POLYLINE
8
0
62
30
66
1
10
0
20
0
30
0
70
8
0
VERTEX
8
0
62
30
10
0.21992549
20
0.90312407
30
0
70
32
0
VERTEX
8
0
62
30
10
0.24820976
20
0.90312407
30
0
70
32
0
SEQEND
8
0
0
POLYLINE
8
0
62
5
66
1
10
0
20
0
30
0
70
8
0
VERTEX
8
0
62
5
10
0.13507268
20
0.90312407
30
0
70
32
0
VERTEX
8
0
62
5
10
0.14921481
20
0.90312407
30
0
70
32
0
SEQEND
8
0
0
POLYLINE
8
0
62
5
66
1
10
0
20
0
30
0
70
8
0
VERTEX
8
0
62
5
10
0.19164122
20
0.90312407
30
0
70
32
0
VERTEX
8
0
62
5
10
0.20578335
20
0.90312407
30
0
70
32
0
SEQEND
8
0
0
POLYLINE
8
0
62
5
66
1
10
0
20
0
30
0
70
8
0
VERTEX
8
0
62
5
10
0.14921481
20
0.90312407
30
0
70
32
0
VERTEX
8
0
62
5
10
0.16335695
20
0.90312407
30
0
70
32
0
SEQEND
8
0
0
POLYLINE
8
0
62
5
66
1
10
0
20
0
30
0
70
8
0
VERTEX
8
0
62
5
10
0.20578335
20
0.90312407
30
0
70
32
0
VERTEX
8
0
62
5
10
0.21992549
20
0.90312407
30
0
70
32
0
SEQEND
8
0
0
POLYLINE
8
0
62
5
66
1
10
0
20
0
30
0
70
8
0
VERTEX
8
0
62
5
10
0.16335695
20
0.88312407
30
0
70
32
0
VERTEX
8
0
62
5
10
0.16335695
20
0.92312407
30
0
70
32
0
SEQEND
8
0
0
POLYLINE
8
0
62
5
66
1
10
0
20
0
30
0
70
8
0
VERTEX
8
0
62
5
10
0.19164122
20
0.88312407
30
0
70
32
0
VERTEX
8
0
62
5
10
0.19164122
20
0.92312407
30
0
70
32
0
SEQEND
8
0
0
POLYLINE
8
0
62
5
66
1
10
0
20
0
30
0
70
8
0
VERTEX
8
0
62
5
10
0.21992549
20
0.88312407
30
0
70
32
0
VERTEX
8
0
62
5
10
0.21992549
20
0.92312407
30
0
70
32
0
SEQEND
8
0
0
POLYLINE
8
0
62
5
66
1
10
0
20
0
30
0
70
8
0
VERTEX
8
0
62
5
10
0.13507268
20
0.88312407
30
0
70
32
0
VERTEX
8
0
62
5
10
0.13507268
20
0.92312407
30
0
70
32
0
SEQEND
8
0
0
POLYLINE
8
0
62
5
66
1
10
0
20
0
30
0
70
8
0
VERTEX
8
0
62
5
10
-0.091201494
20
0.88312407
30
0
70
32
0
VERTEX
8
0
62
5
10
-0.091201494
20
0.92312407
30
0
70
32
0
SEQEND
8
0
0
POLYLINE
8
0
62
5
66
1
10
0
20
0
30
0
70
8
0
VERTEX
8
0
62
5
10
-0.091201494
20
0.88312407
30
0
70
32
0
VERTEX
8
0
62
5
10
0.021935591
20
0.88312407
30
0
70
32
0
SEQEND
8
0
0
POLYLINE
8
0
62
5
66
1
10
0
20
0
30
0
70
8
0
VERTEX
8
0
62
5
10
-0.091201494
20
0.92312407
30
0
70
32
0
VERTEX
8
0
62
5
10
0.021935591
20
0.92312407
30
0
70
32
0
SEQEND
8
0
0
POLYLINE
8
0
62
5
66
1
10
0
20
0
30
0
70
8
0
VERTEX
8
0
62
5
10
-0.062917223
20
0.88312407
30
0
70
32
0
VERTEX
8
0
62
5
10
-0.062917223
20
0.88312407
30
0
70
32
0
SEQEND
8
0
0
POLYLINE
8
0
62
5
66
1
10
0
20
0
30
0
70
8
0
VERTEX
8
0
62
5
10
-0.034632951
20
0.88312407
30
0
70
32
0
VERTEX
8
0
62
5
10
-0.034632951
20
0.88312407
30
0
70
32
0
SEQEND
8
0
0
POLYLINE
8
0
62
5
66
1
10
0
20
0
30
0
70
8
0
VERTEX
8
0
62
5
10
-0.0063486802
20
0.88312407
30
0
70
32
0
VERTEX
8
0
62
5
10
-0.0063486802
20
0.88312407
30
0
70
32
0
SEQEND
8
0
0
POLYLINE
8
0
62
5
66
1
10
0
20
0
30
0
70
8
0
VERTEX
8
0
62
5
10
-0.062917223
20
0.92312407
30
0
70
32
0
VERTEX
8
0
62
5
10
-0.062917223
20
0.92312407
30
0
70
32
0
SEQEND
8
0
0
POLYLINE
8
0
62
5
66
1
10
0
20
0
30
0
70
8
0
VERTEX
8
0
62
5
10
-0.034632951
20
0.92312407
30
0
70
32
0
VERTEX
8
0
62
5
10
-0.034632951
20
0.92312407
30
0
70
32
0
SEQEND
8
0
0
POLYLINE
8
0
62
5
66
1
10
0
20
0
30
0
70
8
0
VERTEX
8
0
62
5
10
-0.0063486802
20
0.92312407
30
0
70
32
0
VERTEX
8
0
62
5
10
-0.0063486802
20
0.92312407
30
0
70
32
0
SEQEND
8
0
0
POLYLINE
8
0
62
30
66
1
10
0
20
0
30
0
70
8
0
VERTEX
8
0
62
30
10
-0.091201494
20
0.88312407
30
0
70
32
0
VERTEX
8
0
62
30
10
-0.077059358
20
0.90312407
30
0
70
32
0
SEQEND
8
0
0
POLYLINE
8
0
62
30
66
1
10
0
20
0
30
0
70
8
0
VERTEX
8
0
62
30
10
-0.077059358
20
0.90312407
30
0
70
32
0
VERTEX
8
0
62
30
10
-0.062917223
20
0.88312407
30
0
70
32
0
SEQEND
8
0
0
POLYLINE
8
0
62
30
66
1
10
0
20
0
30
0
70
8
0
VERTEX
8
0
62
30
10
-0.034632951
20
0.88312407
30
0
70
32
0
VERTEX
8
0
62
30
10
-0.020490816
20
0.90312407
30
0
70
32
0
SEQEND
8
0
0
POLYLINE
8
0
62
30
66
1
10
0
20
0
30
0
70
8
0
VERTEX
8
0
62
30
10
-0.020490816
20
0.90312407
30
0
70
32
0
VERTEX
8
0
62
30
10
-0.0063486802
20
0.88312407
30
0
70
32
0
SEQEND
8
0
0
POLYLINE
8
0
62
30
66
1
10
0
20
0
30
0
70
8
0
VERTEX
8
0
62
30
10
-0.062917223
20
0.90312407
30
0
70
32
0
VERTEX
8
0
62
30
10
-0.034632951
20
0.90312407
30
0
70
32
0
SEQEND
8
0
0
POLYLINE
8
0
62
30
66
1
10
0
20
0
30
0
70
8
0
VERTEX
8
0
62
30
10
-0.0063486802
20
0.90312407
30
0
70
32
0
VERTEX
8
0
62
30
10
0.021935591
20
0.90312407
30
0
70
32
0
SEQEND
8
0
0
POLYLINE
8
0
62
5
66
1
10
0
20
0
30
0
70
8
0
VERTEX
8
0
62
5
10
-0.091201494
20
0.90312407
30
0
70
32
0
VERTEX
8
0
62
5
10
-0.077059358
20
0.90312407
30
0
70
32
0
SEQEND
8
0
0
POLYLINE
8
0
62
5
66
1
10
0
20
0
30
0
70
8
0
VERTEX
8
0
62
5
10
-0.034632951
20
0.90312407
30
0
70
32
0
VERTEX
8
0
62
5
10
-0.020490816
20
0.90312407
30
0
70
32
0
SEQEND
8
0
0
POLYLINE
8
0
62
5
66
1
10
0
20
0
30
0
70
8
0
VERTEX
8
0
62
5
10
-0.077059358
20
0.90312407
30
0
70
32
0
VERTEX
8
0
62
5
10
-0.062917223
20
0.90312407
30
0
70
32
0
SEQEND
8
0
0
POLYLINE
8
0
62
5
66
1
10
0
20
0
30
0
70
8
0
VERTEX
8
0
62
5
10
-0.020490816
20
0.90312407
30
0
70
32
0
VERTEX
8
0
62
5
10
-0.0063486802
20
0.90312407
30
0
70
32
0
SEQEND
8
0
0
POLYLINE
8
0
62
5
66
1
10
0
20
0
30
0
70
8
0
VERTEX
8
0
62
5
10
-0.062917223
20
0.88312407
30
0
70
32
0
VERTEX
8
0
62
5
10
-0.062917223
20
0.92312407
30
0
70
32
0
SEQEND
8
0
0
POLYLINE
8
0
62
5
66
1
10
0
20
0
30
0
70
8
0
VERTEX
8
0
62
5
10
-0.034632951
20
0.88312407
30
0
70
32
0
VERTEX
8
0
62
5
10
-0.034632951
20
0.92312407
30
0
70
32
0
SEQEND
8
0
0
POLYLINE
8
0
62
5
66
1
10
0
20
0
30
0
70
8
0
VERTEX
8
0
62
5
10
-0.0063486802
20
0.88312407
30
0
70
32
0
VERTEX
8
0
62
5
10
-0.0063486802
20
0.92312407
30
0
70
32
0
SEQEND
8
0
0
POLYLINE
8
0
62
5
66
1
10
0
20
0
30
0
70
8
0
VERTEX
8
0
62
5
10
-0.091201494
20
0.88312407
30
0
70
32
0
VERTEX
8
0
62
5
10
-0.091201494
20
0.92312407
30
0
70
32
0
SEQEND
8
0
0
POLYLINE
8
0
62
18
66
1
10
0
20
0
30
0
70
8
0
VERTEX
8
0
62
18
10
0
20
0
30
0
70
32
0
VERTEX
8
0
62
18
10
0.14142136
20
0
30
0
70
32
0
VERTEX
8
0
62
18
10
0.14142136
20
0.31406397
30
0
70
32
0
VERTEX
8
0
62
18
10
0
20
0.31406397
30
0
70
32
0
VERTEX
8
0
62
18
10
0
20
0
30
0
70
32
0
SEQEND
8
0
0
POLYLINE
8
0
62
5
66
1
10
0
20
0
30
0
70
8
0
VERTEX
8
0
62
5
10
0
20
0.31406397
30
0
70
32
0
VERTEX
8
0
62
5
10
0.14142136
20
0.31406397
30
0
70
32
0
SEQEND
8
0
0
POLYLINE
8
0
62
18
66
1
10
0
20
0
30
0
70
8
0
VERTEX
8
0
62
18
10
0
20
0.29406397
30
0
70
32
0
VERTEX
8
0
62
18
10
0.14142136
20
0.29406397
30
0
70
32
0
VERTEX
8
0
62
18
10
0.14142136
20
0.60174999
30
0
70
32
0
VERTEX
8
0
62
18
10
0
20
0.60174999
30
0
70
32
0
VERTEX
8
0
62
18
10
0
20
0.29406397
30
0
70
32
0
SEQEND
8
0
0
POLYLINE
8
0
62
5
66
1
10
0
20
0
30
0
70
8
0
VERTEX
8
0
62
5
10
0
20
0.60174999
30
0
70
32
0
VERTEX
8
0
62
5
10
0.14142136
20
0.60174999
30
0
70
32
0
SEQEND
8
0
0
POLYLINE
8
0
62
18
66
1
10
0
20
0
30
0
70
8
0
VERTEX
8
0
62
18
10
0
20
0.58174999
30
0
70
32
0
VERTEX
8
0
62
18
10
0.14142136
20
0.58174999
30
0
70
32
0
VERTEX
8
0
62
18
10
0.14142136
20
0.83084075
30
0
70
32
0
VERTEX
8
0
62
18
10
0
20
0.83084075
30
0
70
32
0
VERTEX
8
0
62
18
10
0
20
0.58174999
30
0
70
32
0
SEQEND
8
0
0
POLYLINE
8
0
62
5
66
1
10
0
20
0
30
0
70
8
0
VERTEX
8
0
62
5
10
0
20
0.83084075
30
0
70
32
0
VERTEX
8
0
62
5
10
0.14142136
20
0.83084075
30
0
70
32
0
SEQEND
8
0
0
POLYLINE
8
0
62
18
66
1
10
0
20
0
30
0
70
8
0
VERTEX
8
0
62
18
10
0
20
0.81084075
30
0
70
32
0
VERTEX
8
0
62
18
10
0.14142136
20
0.81084075
30
0
70
32
0
VERTEX
8
0
62
18
10
0.14142136
20
0.92312407
30
0
70
32
0
VERTEX
8
0
62
18
10
0
20
0.92312407
30
0
70
32
0
VERTEX
8
0
62
18
10
0
20
0.81084075
30
0
70
32
0
SEQEND
8
0
0
POLYLINE
8
0
62
18
66
1
10
0
20
0
30
0
70
8
0
VERTEX
8
0
62
18
10
0.14142136
20
0
30
0
70
32
0
VERTEX
8
0
62
18
10
0
20
0
30
0
70
32
0
VERTEX
8
0
62
18
10
0
20
0.92312407
30
0
70
32
0
VERTEX
8
0
62
18
10
0.14142136
20
0.92312407
30
0
70
32
0
VERTEX
8
0
62
18
10
0.14142136
20
0
30
0
70
32
0
SEQEND
8
0
0
ENDSEC
0
EOF
