0
SECTION
2
HEADER
9
$ACADVER
1
AC1006
9
$INSUNITS
70
6
0
ENDSEC
0
SECTION
2
ENTITIES
0
POLYLINE
8
0
62
5
66
1
10
0
20
0
30
0
70
8
0
VERTEX
8
0
62
5
10
0
20
0
30
0
70
32
0
VERTEX
8
0
62
5
10
0
20
0.1
30
0
70
32
0
SEQEND
8
0
0
POLYLINE
8
0
62
5
66
1
10
0
20
0
30
0
70
8
0
VERTEX
8
0
62
5
10
0.28284271
20
0
30
0
70
32
0
VERTEX
8
0
62
5
10
0.28284271
20
0.1
30
0
70
32
0
SEQEND
8
0
0
POLYLINE
8
0
62
5
66
1
10
0
20
0
30
0
70
8
0
VERTEX
8
0
62
5
10
0.070710678
20
0
30
0
70
32
0
VERTEX
8
0
62
5
10
0.070710678
20
0.1
30
0
70
32
0
SEQEND
8
0
0
POLYLINE
8
0
62
5
66
1
10
0
20
0
30
0
70
8
0
VERTEX
8
0
62
5
10
0.14142136
20
0
30
0
70
32
0
VERTEX
8
0
62
5
10
0.14142136
20
0.1
30
0
70
32
0
SEQEND
8
0
0
POLYLINE
8
0
62
5
66
1
10
0
20
0
30
0
70
8
0
VERTEX
8
0
62
5
10
0.21213203
20
0
30
0
70
32
0
VERTEX
8
0
62
5
10
0.21213203
20
0.1
30
0
70
32
0
SEQEND
8
0
0
POLYLINE
8
0
62
5
66
1
10
0
20
0
30
0
70
8
0
VERTEX
8
0
62
5
10
0.56568542
20
0
30
0
70
32
0
VERTEX
8
0
62
5
10
0.56568542
20
0.1
30
0
70
32
0
SEQEND
8
0
0
POLYLINE
8
0
62
5
66
1
10
0
20
0
30
0
70
8
0
VERTEX
8
0
62
5
10
0.35355339
20
0
30
0
70
32
0
VERTEX
8
0
62
5
10
0.35355339
20
0.1
30
0
70
32
0
SEQEND
8
0
0
POLYLINE
8
0
62
5
66
1
10
0
20
0
30
0
70
8
0
VERTEX
8
0
62
5
10
0.42426407
20
0
30
0
70
32
0
VERTEX
8
0
62
5
10
0.42426407
20
0.1
30
0
70
32
0
SEQEND
8
0
0
POLYLINE
8
0
62
5
66
1
10
0
20
0
30
0
70
8
0
VERTEX
8
0
62
5
10
0.49497475
20
0
30
0
70
32
0
VERTEX
8
0
62
5
10
0.49497475
20
0.1
30
0
70
32
0
SEQEND
8
0
0
POLYLINE
8
0
62
5
66
1
10
0
20
0
30
0
70
8
0
VERTEX
8
0
62
5
10
-0.28284271
20
0
30
0
70
32
0
VERTEX
8
0
62
5
10
-0.28284271
20
0.1
30
0
70
32
0
SEQEND
8
0
0
POLYLINE
8
0
62
5
66
1
10
0
20
0
30
0
70
8
0
VERTEX
8
0
62
5
10
-0.21213203
20
0
30
0
70
32
0
VERTEX
8
0
62
5
10
-0.21213203
20
0.1
30
0
70
32
0
SEQEND
8
0
0
POLYLINE
8
0
62
5
66
1
10
0
20
0
30
0
70
8
0
VERTEX
8
0
62
5
10
-0.14142136
20
0
30
0
70
32
0
VERTEX
8
0
62
5
10
-0.14142136
20
0.1
30
0
70
32
0
SEQEND
8
0
0
POLYLINE
8
0
62
5
66
1
10
0
20
0
30
0
70
8
0
VERTEX
8
0
62
5
10
-0.070710678
20
0
30
0
70
32
0
VERTEX
8
0
62
5
10
-0.070710678
20
0.1
30
0
70
32
0
SEQEND
8
0
0
POLYLINE
8
0
62
5
66
1
10
0
20
0
30
0
70
8
0
VERTEX
8
0
62
5
10
0
20
0.1
30
0
70
32
0
VERTEX
8
0
62
5
10
0
20
0.101
30
0
70
32
0
SEQEND
8
0
0
POLYLINE
8
0
62
5
66
1
10
0
20
0
30
0
70
8
0
VERTEX
8
0
62
5
10
0.28284271
20
0.1
30
0
70
32
0
VERTEX
8
0
62
5
10
0.28284271
20
0.101
30
0
70
32
0
SEQEND
8
0
0
POLYLINE
8
0
62
5
66
1
10
0
20
0
30
0
70
8
0
VERTEX
8
0
62
5
10
0.070710678
20
0.1
30
0
70
32
0
VERTEX
8
0
62
5
10
0.070710678
20
0.101
30
0
70
32
0
SEQEND
8
0
0
POLYLINE
8
0
62
5
66
1
10
0
20
0
30
0
70
8
0
VERTEX
8
0
62
5
10
0.14142136
20
0.1
30
0
70
32
0
VERTEX
8
0
62
5
10
0.14142136
20
0.101
30
0
70
32
0
SEQEND
8
0
0
POLYLINE
8
0
62
5
66
1
10
0
20
0
30
0
70
8
0
VERTEX
8
0
62
5
10
0.21213203
20
0.1
30
0
70
32
0
VERTEX
8
0
62
5
10
0.21213203
20
0.101
30
0
70
32
0
SEQEND
8
0
0
POLYLINE
8
0
62
5
66
1
10
0
20
0
30
0
70
8
0
VERTEX
8
0
62
5
10
0.56568542
20
0.1
30
0
70
32
0
VERTEX
8
0
62
5
10
0.56568542
20
0.101
30
0
70
32
0
SEQEND
8
0
0
POLYLINE
8
0
62
5
66
1
10
0
20
0
30
0
70
8
0
VERTEX
8
0
62
5
10
0.35355339
20
0.1
30
0
70
32
0
VERTEX
8
0
62
5
10
0.35355339
20
0.101
30
0
70
32
0
SEQEND
8
0
0
POLYLINE
8
0
62
5
66
1
10
0
20
0
30
0
70
8
0
VERTEX
8
0
62
5
10
0.42426407
20
0.1
30
0
70
32
0
VERTEX
8
0
62
5
10
0.42426407
20
0.101
30
0
70
32
0
SEQEND
8
0
0
POLYLINE
8
0
62
5
66
1
10
0
20
0
30
0
70
8
0
VERTEX
8
0
62
5
10
0.49497475
20
0.1
30
0
70
32
0
VERTEX
8
0
62
5
10
0.49497475
20
0.101
30
0
70
32
0
SEQEND
8
0
0
POLYLINE
8
0
62
5
66
1
10
0
20
0
30
0
70
8
0
VERTEX
8
0
62
5
10
-0.28284271
20
0.1
30
0
70
32
0
VERTEX
8
0
62
5
10
-0.28284271
20
0.101
30
0
70
32
0
SEQEND
8
0
0
POLYLINE
8
0
62
5
66
1
10
0
20
0
30
0
70
8
0
VERTEX
8
0
62
5
10
-0.21213203
20
0.1
30
0
70
32
0
VERTEX
8
0
62
5
10
-0.21213203
20
0.101
30
0
70
32
0
SEQEND
8
0
0
POLYLINE
8
0
62
5
66
1
10
0
20
0
30
0
70
8
0
VERTEX
8
0
62
5
10
-0.14142136
20
0.1
30
0
70
32
0
VERTEX
8
0
62
5
10
-0.14142136
20
0.101
30
0
70
32
0
SEQEND
8
0
0
POLYLINE
8
0
62
5
66
1
10
0
20
0
30
0
70
8
0
VERTEX
8
0
62
5
10
-0.070710678
20
0.1
30
0
70
32
0
VERTEX
8
0
62
5
10
-0.070710678
20
0.101
30
0
70
32
0
SEQEND
8
0
0
POLYLINE
8
0
62
5
66
1
10
0
20
0
30
0
70
8
0
VERTEX
8
0
62
5
10
0
20
0.101
30
0
70
32
0
VERTEX
8
0
62
5
10
0
20
0.12870253
30
0
70
32
0
SEQEND
8
0
0
POLYLINE
8
0
62
5
66
1
10
0
20
0
30
0
70
8
0
VERTEX
8
0
62
5
10
0.28284271
20
0.12870253
30
0
70
32
0
VERTEX
8
0
62
5
10
0.28284271
20
0.101
30
0
70
32
0
SEQEND
8
0
0
POLYLINE
8
0
62
5
66
1
10
0
20
0
30
0
70
8
0
VERTEX
8
0
62
5
10
0
20
0.11485126
30
0
70
32
0
VERTEX
8
0
62
5
10
0.070710678
20
0.11485126
30
0
70
32
0
VERTEX
8
0
62
5
10
0.14142136
20
0.1033765
30
0
70
32
0
VERTEX
8
0
62
5
10
0.21213203
20
0.1033765
30
0
70
32
0
VERTEX
8
0
62
5
10
0.28284271
20
0.11485126
30
0
70
32
0
SEQEND
8
0
0
POLYLINE
8
0
62
5
66
1
10
0
20
0
30
0
70
8
0
SEQEND
8
0
0
POLYLINE
8
0
62
5
66
1
10
0
20
0
30
0
70
8
0
VERTEX
8
0
62
5
10
0
20
0.11485126
30
0
70
32
0
VERTEX
8
0
62
5
10
0.070710678
20
0.11485126
30
0
70
32
0
VERTEX
8
0
62
5
10
0.14142136
20
0.12632603
30
0
70
32
0
VERTEX
8
0
62
5
10
0.21213203
20
0.12632603
30
0
70
32
0
VERTEX
8
0
62
5
10
0.28284271
20
0.11485126
30
0
70
32
0
SEQEND
8
0
0
POLYLINE
8
0
62
30
66
1
10
0
20
0
30
0
70
8
0
VERTEX
8
0
62
30
10
0
20
0.11485126
30
0
70
32
0
VERTEX
8
0
62
30
10
0.28284271
20
0.11485126
30
0
70
32
0
SEQEND
8
0
0
POLYLINE
8
0
62
30
66
1
10
0
20
0
30
0
70
8
0
VERTEX
8
0
62
30
10
0.070710678
20
0.11485126
30
0
70
32
0
VERTEX
8
0
62
30
10
0.070710678
20
0.11485126
30
0
70
32
0
SEQEND
8
0
0
POLYLINE
8
0
62
30
66
1
10
0
20
0
30
0
70
8
0
VERTEX
8
0
62
30
10
0.14142136
20
0.1033765
30
0
70
32
0
VERTEX
8
0
62
30
10
0.14142136
20
0.11485126
30
0
70
32
0
SEQEND
8
0
0
POLYLINE
8
0
62
30
66
1
10
0
20
0
30
0
70
8
0
VERTEX
8
0
62
30
10
0.21213203
20
0.1033765
30
0
70
32
0
VERTEX
8
0
62
30
10
0.21213203
20
0.11485126
30
0
70
32
0
SEQEND
8
0
0
POLYLINE
8
0
62
5
66
1
10
0
20
0
30
0
70
8
0
VERTEX
8
0
62
5
10
0.070710678
20
0.101
30
0
70
32
0
VERTEX
8
0
62
5
10
0.070710678
20
0.11485126
30
0
70
32
0
SEQEND
8
0
0
POLYLINE
8
0
62
5
66
1
10
0
20
0
30
0
70
8
0
VERTEX
8
0
62
5
10
0.14142136
20
0.101
30
0
70
32
0
VERTEX
8
0
62
5
10
0.14142136
20
0.1033765
30
0
70
32
0
SEQEND
8
0
0
POLYLINE
8
0
62
5
66
1
10
0
20
0
30
0
70
8
0
VERTEX
8
0
62
5
10
0.21213203
20
0.101
30
0
70
32
0
VERTEX
8
0
62
5
10
0.21213203
20
0.1033765
30
0
70
32
0
SEQEND
8
0
0
POLYLINE
8
0
62
5
66
1
10
0
20
0
30
0
70
8
0
VERTEX
8
0
62
5
10
0.070710678
20
0.11485126
30
0
70
32
0
VERTEX
8
0
62
5
10
0.070710678
20
0.12870253
30
0
70
32
0
SEQEND
8
0
0
POLYLINE
8
0
62
5
66
1
10
0
20
0
30
0
70
8
0
VERTEX
8
0
62
5
10
0.14142136
20
0.11485126
30
0
70
32
0
VERTEX
8
0
62
5
10
0.14142136
20
0.12870253
30
0
70
32
0
SEQEND
8
0
0
POLYLINE
8
0
62
5
66
1
10
0
20
0
30
0
70
8
0
VERTEX
8
0
62
5
10
0.21213203
20
0.11485126
30
0
70
32
0
VERTEX
8
0
62
5
10
0.21213203
20
0.12870253
30
0
70
32
0
SEQEND
8
0
0
POLYLINE
8
0
62
30
66
1
10
0
20
0
30
0
70
8
0
VERTEX
8
0
62
30
10
0
20
0.11485126
30
0
70
32
0
VERTEX
8
0
62
30
10
1.4431653e-10
20
0.11485126
30
0
70
32
0
VERTEX
8
0
62
30
10
0
20
0.11485126
30
0
70
32
0
SEQEND
8
0
0
POLYLINE
8
0
62
30
66
1
10
0
20
0
30
0
70
8
0
VERTEX
8
0
62
30
10
0.070710678
20
0.11485126
30
0
70
32
0
VERTEX
8
0
62
30
10
0.070710678
20
0.11485126
30
0
70
32
0
VERTEX
8
0
62
30
10
0.070710678
20
0.11485126
30
0
70
32
0
SEQEND
8
0
0
POLYLINE
8
0
62
30
66
1
10
0
20
0
30
0
70
8
0
VERTEX
8
0
62
30
10
0.14142136
20
0.1033765
30
0
70
32
0
VERTEX
8
0
62
30
10
0.15118413
20
0.11485126
30
0
70
32
0
VERTEX
8
0
62
30
10
0.14142136
20
0.12632603
30
0
70
32
0
SEQEND
8
0
0
POLYLINE
8
0
62
30
66
1
10
0
20
0
30
0
70
8
0
VERTEX
8
0
62
30
10
0.21213203
20
0.1033765
30
0
70
32
0
VERTEX
8
0
62
30
10
0.22189481
20
0.11485126
30
0
70
32
0
VERTEX
8
0
62
30
10
0.21213203
20
0.12632603
30
0
70
32
0
SEQEND
8
0
0
POLYLINE
8
0
62
5
66
1
10
0
20
0
30
0
70
8
0
VERTEX
8
0
62
5
10
0.56568542
20
0.12870253
30
0
70
32
0
VERTEX
8
0
62
5
10
0.56568542
20
0.101
30
0
70
32
0
SEQEND
8
0
0
POLYLINE
8
0
62
5
66
1
10
0
20
0
30
0
70
8
0
VERTEX
8
0
62
5
10
0.28284271
20
0.11485126
30
0
70
32
0
VERTEX
8
0
62
5
10
0.35355339
20
0.11485126
30
0
70
32
0
VERTEX
8
0
62
5
10
0.42426407
20
0.1033765
30
0
70
32
0
VERTEX
8
0
62
5
10
0.49497475
20
0.1033765
30
0
70
32
0
VERTEX
8
0
62
5
10
0.56568542
20
0.11485126
30
0
70
32
0
SEQEND
8
0
0
POLYLINE
8
0
62
5
66
1
10
0
20
0
30
0
70
8
0
SEQEND
8
0
0
POLYLINE
8
0
62
5
66
1
10
0
20
0
30
0
70
8
0
VERTEX
8
0
62
5
10
0.28284271
20
0.11485126
30
0
70
32
0
VERTEX
8
0
62
5
10
0.35355339
20
0.11485126
30
0
70
32
0
VERTEX
8
0
62
5
10
0.42426407
20
0.12632603
30
0
70
32
0
VERTEX
8
0
62
5
10
0.49497475
20
0.12632603
30
0
70
32
0
VERTEX
8
0
62
5
10
0.56568542
20
0.11485126
30
0
70
32
0
SEQEND
8
0
0
POLYLINE
8
0
62
30
66
1
10
0
20
0
30
0
70
8
0
VERTEX
8
0
62
30
10
0.28284271
20
0.11485126
30
0
70
32
0
VERTEX
8
0
62
30
10
0.56568542
20
0.11485126
30
0
70
32
0
SEQEND
8
0
0
POLYLINE
8
0
62
30
66
1
10
0
20
0
30
0
70
8
0
VERTEX
8
0
62
30
10
0.35355339
20
0.11485126
30
0
70
32
0
VERTEX
8
0
62
30
10
0.35355339
20
0.11485126
30
0
70
32
0
SEQEND
8
0
0
POLYLINE
8
0
62
30
66
1
10
0
20
0
30
0
70
8
0
VERTEX
8
0
62
30
10
0.42426407
20
0.1033765
30
0
70
32
0
VERTEX
8
0
62
30
10
0.42426407
20
0.11485126
30
0
70
32
0
SEQEND
8
0
0
POLYLINE
8
0
62
30
66
1
10
0
20
0
30
0
70
8
0
VERTEX
8
0
62
30
10
0.49497475
20
0.1033765
30
0
70
32
0
VERTEX
8
0
62
30
10
0.49497475
20
0.11485126
30
0
70
32
0
SEQEND
8
0
0
POLYLINE
8
0
62
5
66
1
10
0
20
0
30
0
70
8
0
VERTEX
8
0
62
5
10
0.35355339
20
0.101
30
0
70
32
0
VERTEX
8
0
62
5
10
0.35355339
20
0.11485126
30
0
70
32
0
SEQEND
8
0
0
POLYLINE
8
0
62
5
66
1
10
0
20
0
30
0
70
8
0
VERTEX
8
0
62
5
10
0.42426407
20
0.101
30
0
70
32
0
VERTEX
8
0
62
5
10
0.42426407
20
0.1033765
30
0
70
32
0
SEQEND
8
0
0
POLYLINE
8
0
62
5
66
1
10
0
20
0
30
0
70
8
0
VERTEX
8
0
62
5
10
0.49497475
20
0.101
30
0
70
32
0
VERTEX
8
0
62
5
10
0.49497475
20
0.1033765
30
0
70
32
0
SEQEND
8
0
0
POLYLINE
8
0
62
5
66
1
10
0
20
0
30
0
70
8
0
VERTEX
8
0
62
5
10
0.35355339
20
0.11485126
30
0
70
32
0
VERTEX
8
0
62
5
10
0.35355339
20
0.12870253
30
0
70
32
0
SEQEND
8
0
0
POLYLINE
8
0
62
5
66
1
10
0
20
0
30
0
70
8
0
VERTEX
8
0
62
5
10
0.42426407
20
0.11485126
30
0
70
32
0
VERTEX
8
0
62
5
10
0.42426407
20
0.12870253
30
0
70
32
0
SEQEND
8
0
0
POLYLINE
8
0
62
5
66
1
10
0
20
0
30
0
70
8
0
VERTEX
8
0
62
5
10
0.49497475
20
0.11485126
30
0
70
32
0
VERTEX
8
0
62
5
10
0.49497475
20
0.12870253
30
0
70
32
0
SEQEND
8
0
0
POLYLINE
8
0
62
30
66
1
10
0
20
0
30
0
70
8
0
VERTEX
8
0
62
30
10
0.28284271
20
0.11485126
30
0
70
32
0
VERTEX
8
0
62
30
10
0.28284271
20
0.11485126
30
0
70
32
0
VERTEX
8
0
62
30
10
0.28284271
20
0.11485126
30
0
70
32
0
SEQEND
8
0
0
POLYLINE
8
0
62
30
66
1
10
0
20
0
30
0
70
8
0
VERTEX
8
0
62
30
10
0.35355339
20
0.11485126
30
0
70
32
0
VERTEX
8
0
62
30
10
0.35355339
20
0.11485126
30
0
70
32
0
VERTEX
8
0
62
30
10
0.35355339
20
0.11485126
30
0
70
32
0
SEQEND
8
0
0
POLYLINE
8
0
62
30
66
1
10
0
20
0
30
0
70
8
0
VERTEX
8
0
62
30
10
0.42426407
20
0.1033765
30
0
70
32
0
VERTEX
8
0
62
30
10
0.43402684
20
0.11485126
30
0
70
32
0
VERTEX
8
0
62
30
10
0.42426407
20
0.12632603
30
0
70
32
0
SEQEND
8
0
0
POLYLINE
8
0
62
30
66
1
10
0
20
0
30
0
70
8
0
VERTEX
8
0
62
30
10
0.49497475
20
0.1033765
30
0
70
32
0
VERTEX
8
0
62
30
10
0.50473752
20
0.11485126
30
0
70
32
0
VERTEX
8
0
62
30
10
0.49497475
20
0.12632603
30
0
70
32
0
SEQEND
8
0
0
POLYLINE
8
0
62
5
66
1
10
0
20
0
30
0
70
8
0
VERTEX
8
0
62
5
10
-0.28284271
20
0.101
30
0
70
32
0
VERTEX
8
0
62
5
10
-0.28284271
20
0.12870253
30
0
70
32
0
SEQEND
8
0
0
POLYLINE
8
0
62
5
66
1
10
0
20
0
30
0
70
8
0
VERTEX
8
0
62
5
10
-0.28284271
20
0.11485126
30
0
70
32
0
VERTEX
8
0
62
5
10
-0.21213203
20
0.11485126
30
0
70
32
0
VERTEX
8
0
62
5
10
-0.14142136
20
0.1033765
30
0
70
32
0
VERTEX
8
0
62
5
10
-0.070710678
20
0.1033765
30
0
70
32
0
VERTEX
8
0
62
5
10
0
20
0.11485126
30
0
70
32
0
SEQEND
8
0
0
POLYLINE
8
0
62
5
66
1
10
0
20
0
30
0
70
8
0
SEQEND
8
0
0
POLYLINE
8
0
62
5
66
1
10
0
20
0
30
0
70
8
0
VERTEX
8
0
62
5
10
-0.28284271
20
0.11485126
30
0
70
32
0
VERTEX
8
0
62
5
10
-0.21213203
20
0.11485126
30
0
70
32
0
VERTEX
8
0
62
5
10
-0.14142136
20
0.12632603
30
0
70
32
0
VERTEX
8
0
62
5
10
-0.070710678
20
0.12632603
30
0
70
32
0
VERTEX
8
0
62
5
10
0
20
0.11485126
30
0
70
32
0
SEQEND
8
0
0
POLYLINE
8
0
62
30
66
1
10
0
20
0
30
0
70
8
0
VERTEX
8
0
62
30
10
-0.28284271
20
0.11485126
30
0
70
32
0
VERTEX
8
0
62
30
10
0
20
0.11485126
30
0
70
32
0
SEQEND
8
0
0
POLYLINE
8
0
62
30
66
1
10
0
20
0
30
0
70
8
0
VERTEX
8
0
62
30
10
-0.21213203
20
0.11485126
30
0
70
32
0
VERTEX
8
0
62
30
10
-0.21213203
20
0.11485126
30
0
70
32
0
SEQEND
8
0
0
POLYLINE
8
0
62
30
66
1
10
0
20
0
30
0
70
8
0
VERTEX
8
0
62
30
10
-0.14142136
20
0.1033765
30
0
70
32
0
VERTEX
8
0
62
30
10
-0.14142136
20
0.11485126
30
0
70
32
0
SEQEND
8
0
0
POLYLINE
8
0
62
30
66
1
10
0
20
0
30
0
70
8
0
VERTEX
8
0
62
30
10
-0.070710678
20
0.1033765
30
0
70
32
0
VERTEX
8
0
62
30
10
-0.070710678
20
0.11485126
30
0
70
32
0
SEQEND
8
0
0
POLYLINE
8
0
62
5
66
1
10
0
20
0
30
0
70
8
0
VERTEX
8
0
62
5
10
-0.21213203
20
0.101
30
0
70
32
0
VERTEX
8
0
62
5
10
-0.21213203
20
0.11485126
30
0
70
32
0
SEQEND
8
0
0
POLYLINE
8
0
62
5
66
1
10
0
20
0
30
0
70
8
0
VERTEX
8
0
62
5
10
-0.14142136
20
0.101
30
0
70
32
0
VERTEX
8
0
62
5
10
-0.14142136
20
0.1033765
30
0
70
32
0
SEQEND
8
0
0
POLYLINE
8
0
62
5
66
1
10
0
20
0
30
0
70
8
0
VERTEX
8
0
62
5
10
-0.070710678
20
0.101
30
0
70
32
0
VERTEX
8
0
62
5
10
-0.070710678
20
0.1033765
30
0
70
32
0
SEQEND
8
0
0
POLYLINE
8
0
62
5
66
1
10
0
20
0
30
0
70
8
0
VERTEX
8
0
62
5
10
-0.21213203
20
0.11485126
30
0
70
32
0
VERTEX
8
0
62
5
10
-0.21213203
20
0.12870253
30
0
70
32
0
SEQEND
8
0
0
POLYLINE
8
0
62
5
66
1
10
0
20
0
30
0
70
8
0
VERTEX
8
0
62
5
10
-0.14142136
20
0.11485126
30
0
70
32
0
VERTEX
8
0
62
5
10
-0.14142136
20
0.12870253
30
0
70
32
0
SEQEND
8
0
0
POLYLINE
8
0
62
5
66
1
10
0
20
0
30
0
70
8
0
VERTEX
8
0
62
5
10
-0.070710678
20
0.11485126
30
0
70
32
0
VERTEX
8
0
62
5
10
-0.070710678
20
0.12870253
30
0
70
32
0
SEQEND
8
0
0
POLYLINE
8
0
62
30
66
1
10
0
20
0
30
0
70
8
0
VERTEX
8
0
62
30
10
-0.28284271
20
0.11485126
30
0
70
32
0
VERTEX
8
0
62
30
10
-0.28284271
20
0.11485126
30
0
70
32
0
VERTEX
8
0
62
30
10
-0.28284271
20
0.11485126
30
0
70
32
0
SEQEND
8
0
0
POLYLINE
8
0
62
30
66
1
10
0
20
0
30
0
70
8
0
VERTEX
8
0
62
30
10
-0.21213203
20
0.11485126
30
0
70
32
0
VERTEX
8
0
62
30
10
-0.21213203
20
0.11485126
30
0
70
32
0
VERTEX
8
0
62
30
10
-0.21213203
20
0.11485126
30
0
70
32
0
SEQEND
8
0
0
POLYLINE
8
0
62
30
66
1
10
0
20
0
30
0
70
8
0
VERTEX
8
0
62
30
10
-0.14142136
20
0.1033765
30
0
70
32
0
VERTEX
8
0
62
30
10
-0.13165858
20
0.11485126
30
0
70
32
0
VERTEX
8
0
62
30
10
-0.14142136
20
0.12632603
30
0
70
32
0
SEQEND
8
0
0
POLYLINE
8
0
62
30
66
1
10
0
20
0
30
0
70
8
0
VERTEX
8
0
62
30
10
-0.070710678
20
0.1033765
30
0
70
32
0
VERTEX
8
0
62
30
10
-0.060947906
20
0.11485126
30
0
70
32
0
VERTEX
8
0
62
30
10
-0.070710678
20
0.12632603
30
0
70
32
0
SEQEND
8
0
0
POLYLINE
8
0
62
5
66
1
10
0
20
0
30
0
70
8
0
VERTEX
8
0
62
5
10
0
20
0.12870253
30
0
70
32
0
VERTEX
8
0
62
5
10
0
20
0.16032531
30
0
70
32
0
SEQEND
8
0
0
POLYLINE
8
0
62
5
66
1
10
0
20
0
30
0
70
8
0
VERTEX
8
0
62
5
10
0.070710678
20
0.12870253
30
0
70
32
0
VERTEX
8
0
62
5
10
0.070710678
20
0.16032531
30
0
70
32
0
SEQEND
8
0
0
POLYLINE
8
0
62
5
66
1
10
0
20
0
30
0
70
8
0
VERTEX
8
0
62
5
10
0.14142136
20
0.12870253
30
0
70
32
0
VERTEX
8
0
62
5
10
0.14142136
20
0.16032531
30
0
70
32
0
SEQEND
8
0
0
POLYLINE
8
0
62
5
66
1
10
0
20
0
30
0
70
8
0
VERTEX
8
0
62
5
10
0.21213203
20
0.12870253
30
0
70
32
0
VERTEX
8
0
62
5
10
0.21213203
20
0.16032531
30
0
70
32
0
SEQEND
8
0
0
POLYLINE
8
0
62
5
66
1
10
0
20
0
30
0
70
8
0
VERTEX
8
0
62
5
10
0.28284271
20
0.12870253
30
0
70
32
0
VERTEX
8
0
62
5
10
0.28284271
20
0.16032531
30
0
70
32
0
SEQEND
8
0
0
POLYLINE
8
0
62
5
66
1
10
0
20
0
30
0
70
8
0
VERTEX
8
0
62
5
10
0.070710678
20
0.12870253
30
0
70
32
0
VERTEX
8
0
62
5
10
0.070710678
20
0.12870253
30
0
70
32
0
SEQEND
8
0
0
POLYLINE
8
0
62
5
66
1
10
0
20
0
30
0
70
8
0
VERTEX
8
0
62
5
10
0.14142136
20
0.12870253
30
0
70
32
0
VERTEX
8
0
62
5
10
0.14142136
20
0.12870253
30
0
70
32
0
SEQEND
8
0
0
POLYLINE
8
0
62
5
66
1
10
0
20
0
30
0
70
8
0
VERTEX
8
0
62
5
10
0.21213203
20
0.12870253
30
0
70
32
0
VERTEX
8
0
62
5
10
0.21213203
20
0.12870253
30
0
70
32
0
SEQEND
8
0
0
POLYLINE
8
0
62
5
66
1
10
0
20
0
30
0
70
8
0
VERTEX
8
0
62
5
10
1.0564175e-10
20
0.16032531
30
0
70
32
0
VERTEX
8
0
62
5
10
1.0564175e-10
20
0.16032531
30
0
70
32
0
SEQEND
8
0
0
POLYLINE
8
0
62
5
66
1
10
0
20
0
30
0
70
8
0
VERTEX
8
0
62
5
10
0.070710678
20
0.16032531
30
0
70
32
0
VERTEX
8
0
62
5
10
0.070710678
20
0.16032531
30
0
70
32
0
SEQEND
8
0
0
POLYLINE
8
0
62
5
66
1
10
0
20
0
30
0
70
8
0
VERTEX
8
0
62
5
10
0.14142136
20
0.16032531
30
0
70
32
0
VERTEX
8
0
62
5
10
0.14142136
20
0.16032531
30
0
70
32
0
SEQEND
8
0
0
POLYLINE
8
0
62
5
66
1
10
0
20
0
30
0
70
8
0
VERTEX
8
0
62
5
10
0.21213203
20
0.16032531
30
0
70
32
0
VERTEX
8
0
62
5
10
0.21213203
20
0.16032531
30
0
70
32
0
SEQEND
8
0
0
POLYLINE
8
0
62
5
66
1
10
0
20
0
30
0
70
8
0
VERTEX
8
0
62
5
10
0.35355339
20
0.12870253
30
0
70
32
0
VERTEX
8
0
62
5
10
0.35355339
20
0.16032531
30
0
70
32
0
SEQEND
8
0
0
POLYLINE
8
0
62
5
66
1
10
0
20
0
30
0
70
8
0
VERTEX
8
0
62
5
10
0.42426407
20
0.12870253
30
0
70
32
0
VERTEX
8
0
62
5
10
0.42426407
20
0.16032531
30
0
70
32
0
SEQEND
8
0
0
POLYLINE
8
0
62
5
66
1
10
0
20
0
30
0
70
8
0
VERTEX
8
0
62
5
10
0.49497475
20
0.12870253
30
0
70
32
0
VERTEX
8
0
62
5
10
0.49497475
20
0.16032531
30
0
70
32
0
SEQEND
8
0
0
POLYLINE
8
0
62
5
66
1
10
0
20
0
30
0
70
8
0
VERTEX
8
0
62
5
10
0.56568542
20
0.12870253
30
0
70
32
0
VERTEX
8
0
62
5
10
0.56568542
20
0.16032531
30
0
70
32
0
SEQEND
8
0
0
POLYLINE
8
0
62
5
66
1
10
0
20
0
30
0
70
8
0
VERTEX
8
0
62
5
10
0.35355339
20
0.12870253
30
0
70
32
0
VERTEX
8
0
62
5
10
0.35355339
20
0.12870253
30
0
70
32
0
SEQEND
8
0
0
POLYLINE
8
0
62
5
66
1
10
0
20
0
30
0
70
8
0
VERTEX
8
0
62
5
10
0.42426407
20
0.12870253
30
0
70
32
0
VERTEX
8
0
62
5
10
0.42426407
20
0.12870253
30
0
70
32
0
SEQEND
8
0
0
POLYLINE
8
0
62
5
66
1
10
0
20
0
30
0
70
8
0
VERTEX
8
0
62
5
10
0.49497475
20
0.12870253
30
0
70
32
0
VERTEX
8
0
62
5
10
0.49497475
20
0.12870253
30
0
70
32
0
SEQEND
8
0
0
POLYLINE
8
0
62
5
66
1
10
0
20
0
30
0
70
8
0
VERTEX
8
0
62
5
10
0.28284271
20
0.16032531
30
0
70
32
0
VERTEX
8
0
62
5
10
0.28284271
20
0.16032531
30
0
70
32
0
SEQEND
8
0
0
POLYLINE
8
0
62
5
66
1
10
0
20
0
30
0
70
8
0
VERTEX
8
0
62
5
10
0.35355339
20
0.16032531
30
0
70
32
0
VERTEX
8
0
62
5
10
0.35355339
20
0.16032531
30
0
70
32
0
SEQEND
8
0
0
POLYLINE
8
0
62
5
66
1
10
0
20
0
30
0
70
8
0
VERTEX
8
0
62
5
10
0.42426407
20
0.16032531
30
0
70
32
0
VERTEX
8
0
62
5
10
0.42426407
20
0.16032531
30
0
70
32
0
SEQEND
8
0
0
POLYLINE
8
0
62
5
66
1
10
0
20
0
30
0
70
8
0
VERTEX
8
0
62
5
10
0.49497475
20
0.16032531
30
0
70
32
0
VERTEX
8
0
62
5
10
0.49497475
20
0.16032531
30
0
70
32
0
SEQEND
8
0
0
POLYLINE
8
0
62
5
66
1
10
0
20
0
30
0
70
8
0
VERTEX
8
0
62
5
10
-0.21213203
20
0.12870253
30
0
70
32
0
VERTEX
8
0
62
5
10
-0.21213203
20
0.16032531
30
0
70
32
0
SEQEND
8
0
0
POLYLINE
8
0
62
5
66
1
10
0
20
0
30
0
70
8
0
VERTEX
8
0
62
5
10
-0.14142136
20
0.12870253
30
0
70
32
0
VERTEX
8
0
62
5
10
-0.14142136
20
0.16032531
30
0
70
32
0
SEQEND
8
0
0
POLYLINE
8
0
62
5
66
1
10
0
20
0
30
0
70
8
0
VERTEX
8
0
62
5
10
-0.070710678
20
0.12870253
30
0
70
32
0
VERTEX
8
0
62
5
10
-0.070710678
20
0.16032531
30
0
70
32
0
SEQEND
8
0
0
POLYLINE
8
0
62
5
66
1
10
0
20
0
30
0
70
8
0
VERTEX
8
0
62
5
10
0
20
0.12870253
30
0
70
32
0
VERTEX
8
0
62
5
10
0
20
0.16032531
30
0
70
32
0
SEQEND
8
0
0
POLYLINE
8
0
62
5
66
1
10
0
20
0
30
0
70
8
0
VERTEX
8
0
62
5
10
-0.21213203
20
0.12870253
30
0
70
32
0
VERTEX
8
0
62
5
10
-0.21213203
20
0.12870253
30
0
70
32
0
SEQEND
8
0
0
POLYLINE
8
0
62
5
66
1
10
0
20
0
30
0
70
8
0
VERTEX
8
0
62
5
10
-0.14142136
20
0.12870253
30
0
70
32
0
VERTEX
8
0
62
5
10
-0.14142136
20
0.12870253
30
0
70
32
0
SEQEND
8
0
0
POLYLINE
8
0
62
5
66
1
10
0
20
0
30
0
70
8
0
VERTEX
8
0
62
5
10
-0.070710678
20
0.12870253
30
0
70
32
0
VERTEX
8
0
62
5
10
-0.070710678
20
0.12870253
30
0
70
32
0
SEQEND
8
0
0
POLYLINE
8
0
62
5
66
1
10
0
20
0
30
0
70
8
0
VERTEX
8
0
62
5
10
-0.28284271
20
0.16032531
30
0
70
32
0
VERTEX
8
0
62
5
10
-0.28284271
20
0.16032531
30
0
70
32
0
SEQEND
8
0
0
POLYLINE
8
0
62
5
66
1
10
0
20
0
30
0
70
8
0
VERTEX
8
0
62
5
10
-0.21213203
20
0.16032531
30
0
70
32
0
VERTEX
8
0
62
5
10
-0.21213203
20
0.16032531
30
0
70
32
0
SEQEND
8
0
0
POLYLINE
8
0
62
5
66
1
10
0
20
0
30
0
70
8
0
VERTEX
8
0
62
5
10
-0.14142136
20
0.16032531
30
0
70
32
0
VERTEX
8
0
62
5
10
-0.14142136
20
0.16032531
30
0
70
32
0
SEQEND
8
0
0
POLYLINE
8
0
62
5
66
1
10
0
20
0
30
0
70
8
0
VERTEX
8
0
62
5
10
-0.070710678
20
0.16032531
30
0
70
32
0
VERTEX
8
0
62
5
10
-0.070710678
20
0.16032531
30
0
70
32
0
SEQEND
8
0
0
POLYLINE
8
0
62
5
66
1
10
0
20
0
30
0
70
8
0
VERTEX
8
0
62
5
10
1.0564175e-10
20
0.16032531
30
0
70
32
0
VERTEX
8
0
62
5
10
1.0564175e-10
20
0.28681641
30
0
70
32
0
SEQEND
8
0
0
POLYLINE
8
0
62
5
66
1
10
0
20
0
30
0
70
8
0
VERTEX
8
0
62
5
10
0.28284271
20
0.16032531
30
0
70
32
0
VERTEX
8
0
62
5
10
0.28284271
20
0.28681641
30
0
70
32
0
SEQEND
8
0
0
POLYLINE
8
0
62
5
66
1
10
0
20
0
30
0
70
8
0
VERTEX
8
0
62
5
10
0.070710678
20
0.16032531
30
0
70
32
0
VERTEX
8
0
62
5
10
0.070710678
20
0.28681641
30
0
70
32
0
SEQEND
8
0
0
POLYLINE
8
0
62
5
66
1
10
0
20
0
30
0
70
8
0
VERTEX
8
0
62
5
10
0.14142136
20
0.16032531
30
0
70
32
0
VERTEX
8
0
62
5
10
0.14142136
20
0.28681641
30
0
70
32
0
SEQEND
8
0
0
POLYLINE
8
0
62
5
66
1
10
0
20
0
30
0
70
8
0
VERTEX
8
0
62
5
10
0.21213203
20
0.16032531
30
0
70
32
0
VERTEX
8
0
62
5
10
0.21213203
20
0.28681641
30
0
70
32
0
SEQEND
8
0
0
POLYLINE
8
0
62
5
66
1
10
0
20
0
30
0
70
8
0
VERTEX
8
0
62
5
10
0.56568543
20
0.16032531
30
0
70
32
0
VERTEX
8
0
62
5
10
0.56568543
20
0.28681641
30
0
70
32
0
SEQEND
8
0
0
POLYLINE
8
0
62
5
66
1
10
0
20
0
30
0
70
8
0
VERTEX
8
0
62
5
10
0.35355339
20
0.16032531
30
0
70
32
0
VERTEX
8
0
62
5
10
0.35355339
20
0.28681641
30
0
70
32
0
SEQEND
8
0
0
POLYLINE
8
0
62
5
66
1
10
0
20
0
30
0
70
8
0
VERTEX
8
0
62
5
10
0.42426407
20
0.16032531
30
0
70
32
0
VERTEX
8
0
62
5
10
0.42426407
20
0.28681641
30
0
70
32
0
SEQEND
8
0
0
POLYLINE
8
0
62
5
66
1
10
0
20
0
30
0
70
8
0
VERTEX
8
0
62
5
10
0.49497475
20
0.16032531
30
0
70
32
0
VERTEX
8
0
62
5
10
0.49497475
20
0.28681641
30
0
70
32
0
SEQEND
8
0
0
POLYLINE
8
0
62
5
66
1
10
0
20
0
30
0
70
8
0
VERTEX
8
0
62
5
10
-0.28284271
20
0.16032531
30
0
70
32
0
VERTEX
8
0
62
5
10
-0.28284271
20
0.28681641
30
0
70
32
0
SEQEND
8
0
0
POLYLINE
8
0
62
5
66
1
10
0
20
0
30
0
70
8
0
VERTEX
8
0
62
5
10
-0.21213203
20
0.16032531
30
0
70
32
0
VERTEX
8
0
62
5
10
-0.21213203
20
0.28681641
30
0
70
32
0
SEQEND
8
0
0
POLYLINE
8
0
62
5
66
1
10
0
20
0
30
0
70
8
0
VERTEX
8
0
62
5
10
-0.14142136
20
0.16032531
30
0
70
32
0
VERTEX
8
0
62
5
10
-0.14142136
20
0.28681641
30
0
70
32
0
SEQEND
8
0
0
POLYLINE
8
0
62
5
66
1
10
0
20
0
30
0
70
8
0
VERTEX
8
0
62
5
10
-0.070710678
20
0.16032531
30
0
70
32
0
VERTEX
8
0
62
5
10
-0.070710678
20
0.28681641
30
0
70
32
0
SEQEND
8
0
0
POLYLINE
8
0
62
5
66
1
10
0
20
0
30
0
70
8
0
VERTEX
8
0
62
5
10
1.0564175e-10
20
0.28681641
30
0
70
32
0
VERTEX
8
0
62
5
10
1.0564175e-10
20
0.40985771
30
0
70
32
0
SEQEND
8
0
0
POLYLINE
8
0
62
5
66
1
10
0
20
0
30
0
70
8
0
VERTEX
8
0
62
5
10
0.28284271
20
0.40985771
30
0
70
32
0
VERTEX
8
0
62
5
10
0.28284271
20
0.28681641
30
0
70
32
0
SEQEND
8
0
0
POLYLINE
8
0
62
5
66
1
10
0
20
0
30
0
70
8
0
VERTEX
8
0
62
5
10
1.0564175e-10
20
0.34833706
30
0
70
32
0
VERTEX
8
0
62
5
10
0.070710678
20
0.34833706
30
0
70
32
0
VERTEX
8
0
62
5
10
0.14142136
20
0.29737169
30
0
70
32
0
VERTEX
8
0
62
5
10
0.21213203
20
0.29737169
30
0
70
32
0
VERTEX
8
0
62
5
10
0.28284271
20
0.34833706
30
0
70
32
0
SEQEND
8
0
0
POLYLINE
8
0
62
5
66
1
10
0
20
0
30
0
70
8
0
SEQEND
8
0
0
POLYLINE
8
0
62
5
66
1
10
0
20
0
30
0
70
8
0
VERTEX
8
0
62
5
10
1.0564175e-10
20
0.34833706
30
0
70
32
0
VERTEX
8
0
62
5
10
0.070710678
20
0.34833706
30
0
70
32
0
VERTEX
8
0
62
5
10
0.14142136
20
0.39930243
30
0
70
32
0
VERTEX
8
0
62
5
10
0.21213203
20
0.39930243
30
0
70
32
0
VERTEX
8
0
62
5
10
0.28284271
20
0.34833706
30
0
70
32
0
SEQEND
8
0
0
POLYLINE
8
0
62
30
66
1
10
0
20
0
30
0
70
8
0
VERTEX
8
0
62
30
10
1.0564175e-10
20
0.34833706
30
0
70
32
0
VERTEX
8
0
62
30
10
0.28284271
20
0.34833706
30
0
70
32
0
SEQEND
8
0
0
POLYLINE
8
0
62
30
66
1
10
0
20
0
30
0
70
8
0
VERTEX
8
0
62
30
10
0.070710678
20
0.34833706
30
0
70
32
0
VERTEX
8
0
62
30
10
0.070710678
20
0.34833706
30
0
70
32
0
SEQEND
8
0
0
POLYLINE
8
0
62
30
66
1
10
0
20
0
30
0
70
8
0
VERTEX
8
0
62
30
10
0.14142136
20
0.29737169
30
0
70
32
0
VERTEX
8
0
62
30
10
0.14142136
20
0.34833706
30
0
70
32
0
SEQEND
8
0
0
POLYLINE
8
0
62
30
66
1
10
0
20
0
30
0
70
8
0
VERTEX
8
0
62
30
10
0.21213203
20
0.29737169
30
0
70
32
0
VERTEX
8
0
62
30
10
0.21213203
20
0.34833706
30
0
70
32
0
SEQEND
8
0
0
POLYLINE
8
0
62
5
66
1
10
0
20
0
30
0
70
8
0
VERTEX
8
0
62
5
10
0.070710678
20
0.28681641
30
0
70
32
0
VERTEX
8
0
62
5
10
0.070710678
20
0.34833706
30
0
70
32
0
SEQEND
8
0
0
POLYLINE
8
0
62
5
66
1
10
0
20
0
30
0
70
8
0
VERTEX
8
0
62
5
10
0.14142136
20
0.28681641
30
0
70
32
0
VERTEX
8
0
62
5
10
0.14142136
20
0.29737169
30
0
70
32
0
SEQEND
8
0
0
POLYLINE
8
0
62
5
66
1
10
0
20
0
30
0
70
8
0
VERTEX
8
0
62
5
10
0.21213203
20
0.28681641
30
0
70
32
0
VERTEX
8
0
62
5
10
0.21213203
20
0.29737169
30
0
70
32
0
SEQEND
8
0
0
POLYLINE
8
0
62
5
66
1
10
0
20
0
30
0
70
8
0
VERTEX
8
0
62
5
10
0.070710678
20
0.34833706
30
0
70
32
0
VERTEX
8
0
62
5
10
0.070710678
20
0.40985771
30
0
70
32
0
SEQEND
8
0
0
POLYLINE
8
0
62
5
66
1
10
0
20
0
30
0
70
8
0
VERTEX
8
0
62
5
10
0.14142136
20
0.34833706
30
0
70
32
0
VERTEX
8
0
62
5
10
0.14142136
20
0.40985771
30
0
70
32
0
SEQEND
8
0
0
POLYLINE
8
0
62
5
66
1
10
0
20
0
30
0
70
8
0
VERTEX
8
0
62
5
10
0.21213203
20
0.34833706
30
0
70
32
0
VERTEX
8
0
62
5
10
0.21213203
20
0.40985771
30
0
70
32
0
SEQEND
8
0
0
POLYLINE
8
0
62
30
66
1
10
0
20
0
30
0
70
8
0
VERTEX
8
0
62
30
10
1.0564175e-10
20
0.34833706
30
0
70
32
0
VERTEX
8
0
62
30
10
1.0564175e-10
20
0.34833706
30
0
70
32
0
VERTEX
8
0
62
30
10
1.0564175e-10
20
0.34833706
30
0
70
32
0
SEQEND
8
0
0
POLYLINE
8
0
62
30
66
1
10
0
20
0
30
0
70
8
0
VERTEX
8
0
62
30
10
0.070710678
20
0.34833706
30
0
70
32
0
VERTEX
8
0
62
30
10
0.070710679
20
0.34833706
30
0
70
32
0
VERTEX
8
0
62
30
10
0.070710678
20
0.34833706
30
0
70
32
0
SEQEND
8
0
0
POLYLINE
8
0
62
30
66
1
10
0
20
0
30
0
70
8
0
VERTEX
8
0
62
30
10
0.14142136
20
0.29737169
30
0
70
32
0
VERTEX
8
0
62
30
10
0.16751146
20
0.34833706
30
0
70
32
0
VERTEX
8
0
62
30
10
0.14142136
20
0.39930243
30
0
70
32
0
SEQEND
8
0
0
POLYLINE
8
0
62
30
66
1
10
0
20
0
30
0
70
8
0
VERTEX
8
0
62
30
10
0.21213203
20
0.29737169
30
0
70
32
0
VERTEX
8
0
62
30
10
0.23822214
20
0.34833706
30
0
70
32
0
VERTEX
8
0
62
30
10
0.21213203
20
0.39930243
30
0
70
32
0
SEQEND
8
0
0
POLYLINE
8
0
62
5
66
1
10
0
20
0
30
0
70
8
0
VERTEX
8
0
62
5
10
0.56568543
20
0.40985771
30
0
70
32
0
VERTEX
8
0
62
5
10
0.56568543
20
0.28681641
30
0
70
32
0
SEQEND
8
0
0
POLYLINE
8
0
62
5
66
1
10
0
20
0
30
0
70
8
0
VERTEX
8
0
62
5
10
0.28284271
20
0.34833706
30
0
70
32
0
VERTEX
8
0
62
5
10
0.35355339
20
0.34833706
30
0
70
32
0
VERTEX
8
0
62
5
10
0.42426407
20
0.29737169
30
0
70
32
0
VERTEX
8
0
62
5
10
0.49497475
20
0.29737169
30
0
70
32
0
VERTEX
8
0
62
5
10
0.56568543
20
0.34833706
30
0
70
32
0
SEQEND
8
0
0
POLYLINE
8
0
62
5
66
1
10
0
20
0
30
0
70
8
0
SEQEND
8
0
0
POLYLINE
8
0
62
5
66
1
10
0
20
0
30
0
70
8
0
VERTEX
8
0
62
5
10
0.28284271
20
0.34833706
30
0
70
32
0
VERTEX
8
0
62
5
10
0.35355339
20
0.34833706
30
0
70
32
0
VERTEX
8
0
62
5
10
0.42426407
20
0.39930243
30
0
70
32
0
VERTEX
8
0
62
5
10
0.49497475
20
0.39930243
30
0
70
32
0
VERTEX
8
0
62
5
10
0.56568543
20
0.34833706
30
0
70
32
0
SEQEND
8
0
0
POLYLINE
8
0
62
30
66
1
10
0
20
0
30
0
70
8
0
VERTEX
8
0
62
30
10
0.28284271
20
0.34833706
30
0
70
32
0
VERTEX
8
0
62
30
10
0.56568543
20
0.34833706
30
0
70
32
0
SEQEND
8
0
0
POLYLINE
8
0
62
30
66
1
10
0
20
0
30
0
70
8
0
VERTEX
8
0
62
30
10
0.35355339
20
0.34833706
30
0
70
32
0
VERTEX
8
0
62
30
10
0.35355339
20
0.34833706
30
0
70
32
0
SEQEND
8
0
0
POLYLINE
8
0
62
30
66
1
10
0
20
0
30
0
70
8
0
VERTEX
8
0
62
30
10
0.42426407
20
0.29737169
30
0
70
32
0
VERTEX
8
0
62
30
10
0.42426407
20
0.34833706
30
0
70
32
0
SEQEND
8
0
0
POLYLINE
8
0
62
30
66
1
10
0
20
0
30
0
70
8
0
VERTEX
8
0
62
30
10
0.49497475
20
0.29737169
30
0
70
32
0
VERTEX
8
0
62
30
10
0.49497475
20
0.34833706
30
0
70
32
0
SEQEND
8
0
0
POLYLINE
8
0
62
5
66
1
10
0
20
0
30
0
70
8
0
VERTEX
8
0
62
5
10
0.35355339
20
0.28681641
30
0
70
32
0
VERTEX
8
0
62
5
10
0.35355339
20
0.34833706
30
0
70
32
0
SEQEND
8
0
0
POLYLINE
8
0
62
5
66
1
10
0
20
0
30
0
70
8
0
VERTEX
8
0
62
5
10
0.42426407
20
0.28681641
30
0
70
32
0
VERTEX
8
0
62
5
10
0.42426407
20
0.29737169
30
0
70
32
0
SEQEND
8
0
0
POLYLINE
8
0
62
5
66
1
10
0
20
0
30
0
70
8
0
VERTEX
8
0
62
5
10
0.49497475
20
0.28681641
30
0
70
32
0
VERTEX
8
0
62
5
10
0.49497475
20
0.29737169
30
0
70
32
0
SEQEND
8
0
0
POLYLINE
8
0
62
5
66
1
10
0
20
0
30
0
70
8
0
VERTEX
8
0
62
5
10
0.35355339
20
0.34833706
30
0
70
32
0
VERTEX
8
0
62
5
10
0.35355339
20
0.40985771
30
0
70
32
0
SEQEND
8
0
0
POLYLINE
8
0
62
5
66
1
10
0
20
0
30
0
70
8
0
VERTEX
8
0
62
5
10
0.42426407
20
0.34833706
30
0
70
32
0
VERTEX
8
0
62
5
10
0.42426407
20
0.40985771
30
0
70
32
0
SEQEND
8
0
0
POLYLINE
8
0
62
5
66
1
10
0
20
0
30
0
70
8
0
VERTEX
8
0
62
5
10
0.49497475
20
0.34833706
30
0
70
32
0
VERTEX
8
0
62
5
10
0.49497475
20
0.40985771
30
0
70
32
0
SEQEND
8
0
0
POLYLINE
8
0
62
30
66
1
10
0
20
0
30
0
70
8
0
VERTEX
8
0
62
30
10
0.28284271
20
0.34833706
30
0
70
32
0
VERTEX
8
0
62
30
10
0.28284271
20
0.34833706
30
0
70
32
0
VERTEX
8
0
62
30
10
0.28284271
20
0.34833706
30
0
70
32
0
SEQEND
8
0
0
POLYLINE
8
0
62
30
66
1
10
0
20
0
30
0
70
8
0
VERTEX
8
0
62
30
10
0.35355339
20
0.34833706
30
0
70
32
0
VERTEX
8
0
62
30
10
0.35355339
20
0.34833706
30
0
70
32
0
VERTEX
8
0
62
30
10
0.35355339
20
0.34833706
30
0
70
32
0
SEQEND
8
0
0
POLYLINE
8
0
62
30
66
1
10
0
20
0
30
0
70
8
0
VERTEX
8
0
62
30
10
0.42426407
20
0.29737169
30
0
70
32
0
VERTEX
8
0
62
30
10
0.45035418
20
0.34833706
30
0
70
32
0
VERTEX
8
0
62
30
10
0.42426407
20
0.39930243
30
0
70
32
0
SEQEND
8
0
0
POLYLINE
8
0
62
30
66
1
10
0
20
0
30
0
70
8
0
VERTEX
8
0
62
30
10
0.49497475
20
0.29737169
30
0
70
32
0
VERTEX
8
0
62
30
10
0.52106485
20
0.34833706
30
0
70
32
0
VERTEX
8
0
62
30
10
0.49497475
20
0.39930243
30
0
70
32
0
SEQEND
8
0
0
POLYLINE
8
0
62
5
66
1
10
0
20
0
30
0
70
8
0
VERTEX
8
0
62
5
10
-0.28284271
20
0.28681641
30
0
70
32
0
VERTEX
8
0
62
5
10
-0.28284271
20
0.40985771
30
0
70
32
0
SEQEND
8
0
0
POLYLINE
8
0
62
5
66
1
10
0
20
0
30
0
70
8
0
VERTEX
8
0
62
5
10
-0.28284271
20
0.34833706
30
0
70
32
0
VERTEX
8
0
62
5
10
-0.21213203
20
0.34833706
30
0
70
32
0
VERTEX
8
0
62
5
10
-0.14142136
20
0.29737169
30
0
70
32
0
VERTEX
8
0
62
5
10
-0.070710678
20
0.29737169
30
0
70
32
0
VERTEX
8
0
62
5
10
1.0564177e-10
20
0.34833706
30
0
70
32
0
SEQEND
8
0
0
POLYLINE
8
0
62
5
66
1
10
0
20
0
30
0
70
8
0
SEQEND
8
0
0
POLYLINE
8
0
62
5
66
1
10
0
20
0
30
0
70
8
0
VERTEX
8
0
62
5
10
-0.28284271
20
0.34833706
30
0
70
32
0
VERTEX
8
0
62
5
10
-0.21213203
20
0.34833706
30
0
70
32
0
VERTEX
8
0
62
5
10
-0.14142136
20
0.39930243
30
0
70
32
0
VERTEX
8
0
62
5
10
-0.070710678
20
0.39930243
30
0
70
32
0
VERTEX
8
0
62
5
10
1.0564177e-10
20
0.34833706
30
0
70
32
0
SEQEND
8
0
0
POLYLINE
8
0
62
30
66
1
10
0
20
0
30
0
70
8
0
VERTEX
8
0
62
30
10
-0.28284271
20
0.34833706
30
0
70
32
0
VERTEX
8
0
62
30
10
1.0564177e-10
20
0.34833706
30
0
70
32
0
SEQEND
8
0
0
POLYLINE
8
0
62
30
66
1
10
0
20
0
30
0
70
8
0
VERTEX
8
0
62
30
10
-0.21213203
20
0.34833706
30
0
70
32
0
VERTEX
8
0
62
30
10
-0.21213203
20
0.34833706
30
0
70
32
0
SEQEND
8
0
0
POLYLINE
8
0
62
30
66
1
10
0
20
0
30
0
70
8
0
VERTEX
8
0
62
30
10
-0.14142136
20
0.29737169
30
0
70
32
0
VERTEX
8
0
62
30
10
-0.14142136
20
0.34833706
30
0
70
32
0
SEQEND
8
0
0
POLYLINE
8
0
62
30
66
1
10
0
20
0
30
0
70
8
0
VERTEX
8
0
62
30
10
-0.070710678
20
0.29737169
30
0
70
32
0
VERTEX
8
0
62
30
10
-0.070710678
20
0.34833706
30
0
70
32
0
SEQEND
8
0
0
POLYLINE
8
0
62
5
66
1
10
0
20
0
30
0
70
8
0
VERTEX
8
0
62
5
10
-0.21213203
20
0.28681641
30
0
70
32
0
VERTEX
8
0
62
5
10
-0.21213203
20
0.34833706
30
0
70
32
0
SEQEND
8
0
0
POLYLINE
8
0
62
5
66
1
10
0
20
0
30
0
70
8
0
VERTEX
8
0
62
5
10
-0.14142136
20
0.28681641
30
0
70
32
0
VERTEX
8
0
62
5
10
-0.14142136
20
0.29737169
30
0
70
32
0
SEQEND
8
0
0
POLYLINE
8
0
62
5
66
1
10
0
20
0
30
0
70
8
0
VERTEX
8
0
62
5
10
-0.070710678
20
0.28681641
30
0
70
32
0
VERTEX
8
0
62
5
10
-0.070710678
20
0.29737169
30
0
70
32
0
SEQEND
8
0
0
POLYLINE
8
0
62
5
66
1
10
0
20
0
30
0
70
8
0
VERTEX
8
0
62
5
10
-0.21213203
20
0.34833706
30
0
70
32
0
VERTEX
8
0
62
5
10
-0.21213203
20
0.40985771
30
0
70
32
0
SEQEND
8
0
0
POLYLINE
8
0
62
5
66
1
10
0
20
0
30
0
70
8
0
VERTEX
8
0
62
5
10
-0.14142136
20
0.34833706
30
0
70
32
0
VERTEX
8
0
62
5
10
-0.14142136
20
0.40985771
30
0
70
32
0
SEQEND
8
0
0
POLYLINE
8
0
62
5
66
1
10
0
20
0
30
0
70
8
0
VERTEX
8
0
62
5
10
-0.070710678
20
0.34833706
30
0
70
32
0
VERTEX
8
0
62
5
10
-0.070710678
20
0.40985771
30
0
70
32
0
SEQEND
8
0
0
POLYLINE
8
0
62
30
66
1
10
0
20
0
30
0
70
8
0
VERTEX
8
0
62
30
10
-0.28284271
20
0.34833706
30
0
70
32
0
VERTEX
8
0
62
30
10
-0.28284271
20
0.34833706
30
0
70
32
0
VERTEX
8
0
62
30
10
-0.28284271
20
0.34833706
30
0
70
32
0
SEQEND
8
0
0
POLYLINE
8
0
62
30
66
1
10
0
20
0
30
0
70
8
0
VERTEX
8
0
62
30
10
-0.21213203
20
0.34833706
30
0
70
32
0
VERTEX
8
0
62
30
10
-0.21213203
20
0.34833706
30
0
70
32
0
VERTEX
8
0
62
30
10
-0.21213203
20
0.34833706
30
0
70
32
0
SEQEND
8
0
0
POLYLINE
8
0
62
30
66
1
10
0
20
0
30
0
70
8
0
VERTEX
8
0
62
30
10
-0.14142136
20
0.29737169
30
0
70
32
0
VERTEX
8
0
62
30
10
-0.11533125
20
0.34833706
30
0
70
32
0
VERTEX
8
0
62
30
10
-0.14142136
20
0.39930243
30
0
70
32
0
SEQEND
8
0
0
POLYLINE
8
0
62
30
66
1
10
0
20
0
30
0
70
8
0
VERTEX
8
0
62
30
10
-0.070710678
20
0.29737169
30
0
70
32
0
VERTEX
8
0
62
30
10
-0.044620571
20
0.34833706
30
0
70
32
0
VERTEX
8
0
62
30
10
-0.070710678
20
0.39930243
30
0
70
32
0
SEQEND
8
0
0
POLYLINE
8
0
62
5
66
1
10
0
20
0
30
0
70
8
0
VERTEX
8
0
62
5
10
1.0564175e-10
20
0.40985771
30
0
70
32
0
VERTEX
8
0
62
5
10
1.0564175e-10
20
0.41085771
30
0
70
32
0
SEQEND
8
0
0
POLYLINE
8
0
62
5
66
1
10
0
20
0
30
0
70
8
0
VERTEX
8
0
62
5
10
0.28284271
20
0.40985771
30
0
70
32
0
VERTEX
8
0
62
5
10
0.28284271
20
0.41085771
30
0
70
32
0
SEQEND
8
0
0
POLYLINE
8
0
62
5
66
1
10
0
20
0
30
0
70
8
0
VERTEX
8
0
62
5
10
0.070710678
20
0.40985771
30
0
70
32
0
VERTEX
8
0
62
5
10
0.070710678
20
0.41085771
30
0
70
32
0
SEQEND
8
0
0
POLYLINE
8
0
62
5
66
1
10
0
20
0
30
0
70
8
0
VERTEX
8
0
62
5
10
0.14142136
20
0.40985771
30
0
70
32
0
VERTEX
8
0
62
5
10
0.14142136
20
0.41085771
30
0
70
32
0
SEQEND
8
0
0
POLYLINE
8
0
62
5
66
1
10
0
20
0
30
0
70
8
0
VERTEX
8
0
62
5
10
0.21213203
20
0.40985771
30
0
70
32
0
VERTEX
8
0
62
5
10
0.21213203
20
0.41085771
30
0
70
32
0
SEQEND
8
0
0
POLYLINE
8
0
62
5
66
1
10
0
20
0
30
0
70
8
0
VERTEX
8
0
62
5
10
0.56568543
20
0.40985771
30
0
70
32
0
VERTEX
8
0
62
5
10
0.56568543
20
0.41085771
30
0
70
32
0
SEQEND
8
0
0
POLYLINE
8
0
62
5
66
1
10
0
20
0
30
0
70
8
0
VERTEX
8
0
62
5
10
0.35355339
20
0.40985771
30
0
70
32
0
VERTEX
8
0
62
5
10
0.35355339
20
0.41085771
30
0
70
32
0
SEQEND
8
0
0
POLYLINE
8
0
62
5
66
1
10
0
20
0
30
0
70
8
0
VERTEX
8
0
62
5
10
0.42426407
20
0.40985771
30
0
70
32
0
VERTEX
8
0
62
5
10
0.42426407
20
0.41085771
30
0
70
32
0
SEQEND
8
0
0
POLYLINE
8
0
62
5
66
1
10
0
20
0
30
0
70
8
0
VERTEX
8
0
62
5
10
0.49497475
20
0.40985771
30
0
70
32
0
VERTEX
8
0
62
5
10
0.49497475
20
0.41085771
30
0
70
32
0
SEQEND
8
0
0
POLYLINE
8
0
62
5
66
1
10
0
20
0
30
0
70
8
0
VERTEX
8
0
62
5
10
-0.28284271
20
0.40985771
30
0
70
32
0
VERTEX
8
0
62
5
10
-0.28284271
20
0.41085771
30
0
70
32
0
SEQEND
8
0
0
POLYLINE
8
0
62
5
66
1
10
0
20
0
30
0
70
8
0
VERTEX
8
0
62
5
10
-0.21213203
20
0.40985771
30
0
70
32
0
VERTEX
8
0
62
5
10
-0.21213203
20
0.41085771
30
0
70
32
0
SEQEND
8
0
0
POLYLINE
8
0
62
5
66
1
10
0
20
0
30
0
70
8
0
VERTEX
8
0
62
5
10
-0.14142136
20
0.40985771
30
0
70
32
0
VERTEX
8
0
62
5
10
-0.14142136
20
0.41085771
30
0
70
32
0
SEQEND
8
0
0
POLYLINE
8
0
62
5
66
1
10
0
20
0
30
0
70
8
0
VERTEX
8
0
62
5
10
-0.070710678
20
0.40985771
30
0
70
32
0
VERTEX
8
0
62
5
10
-0.070710678
20
0.41085771
30
0
70
32
0
SEQEND
8
0
0
POLYLINE
8
0
62
5
66
1
10
0
20
0
30
0
70
8
0
VERTEX
8
0
62
5
10
1.0564175e-10
20
0.41085771
30
0
70
32
0
VERTEX
8
0
62
5
10
1.0564175e-10
20
0.53389904
30
0
70
32
0
SEQEND
8
0
0
POLYLINE
8
0
62
5
66
1
10
0
20
0
30
0
70
8
0
VERTEX
8
0
62
5
10
0.28284271
20
0.53389904
30
0
70
32
0
VERTEX
8
0
62
5
10
0.28284271
20
0.41085771
30
0
70
32
0
SEQEND
8
0
0
POLYLINE
8
0
62
5
66
1
10
0
20
0
30
0
70
8
0
VERTEX
8
0
62
5
10
1.0564175e-10
20
0.47237838
30
0
70
32
0
VERTEX
8
0
62
5
10
0.070710678
20
0.47237836
30
0
70
32
0
VERTEX
8
0
62
5
10
0.14142136
20
0.42141297
30
0
70
32
0
VERTEX
8
0
62
5
10
0.21213203
20
0.42141299
30
0
70
32
0
VERTEX
8
0
62
5
10
0.28284271
20
0.47237838
30
0
70
32
0
SEQEND
8
0
0
POLYLINE
8
0
62
5
66
1
10
0
20
0
30
0
70
8
0
SEQEND
8
0
0
POLYLINE
8
0
62
5
66
1
10
0
20
0
30
0
70
8
0
VERTEX
8
0
62
5
10
1.0564175e-10
20
0.47237838
30
0
70
32
0
VERTEX
8
0
62
5
10
0.070710678
20
0.4723784
30
0
70
32
0
VERTEX
8
0
62
5
10
0.14142136
20
0.52334378
30
0
70
32
0
VERTEX
8
0
62
5
10
0.21213203
20
0.52334376
30
0
70
32
0
VERTEX
8
0
62
5
10
0.28284271
20
0.47237838
30
0
70
32
0
SEQEND
8
0
0
POLYLINE
8
0
62
30
66
1
10
0
20
0
30
0
70
8
0
VERTEX
8
0
62
30
10
1.0564175e-10
20
0.47237838
30
0
70
32
0
VERTEX
8
0
62
30
10
0.28284271
20
0.47237838
30
0
70
32
0
SEQEND
8
0
0
POLYLINE
8
0
62
30
66
1
10
0
20
0
30
0
70
8
0
VERTEX
8
0
62
30
10
0.070710678
20
0.47237836
30
0
70
32
0
VERTEX
8
0
62
30
10
0.070710678
20
0.47237838
30
0
70
32
0
SEQEND
8
0
0
POLYLINE
8
0
62
30
66
1
10
0
20
0
30
0
70
8
0
VERTEX
8
0
62
30
10
0.14142136
20
0.42141297
30
0
70
32
0
VERTEX
8
0
62
30
10
0.14142136
20
0.47237838
30
0
70
32
0
SEQEND
8
0
0
POLYLINE
8
0
62
30
66
1
10
0
20
0
30
0
70
8
0
VERTEX
8
0
62
30
10
0.21213203
20
0.42141299
30
0
70
32
0
VERTEX
8
0
62
30
10
0.21213203
20
0.47237838
30
0
70
32
0
SEQEND
8
0
0
POLYLINE
8
0
62
5
66
1
10
0
20
0
30
0
70
8
0
VERTEX
8
0
62
5
10
0.070710678
20
0.41085771
30
0
70
32
0
VERTEX
8
0
62
5
10
0.070710678
20
0.47237836
30
0
70
32
0
SEQEND
8
0
0
POLYLINE
8
0
62
5
66
1
10
0
20
0
30
0
70
8
0
VERTEX
8
0
62
5
10
0.14142136
20
0.41085771
30
0
70
32
0
VERTEX
8
0
62
5
10
0.14142136
20
0.42141297
30
0
70
32
0
SEQEND
8
0
0
POLYLINE
8
0
62
5
66
1
10
0
20
0
30
0
70
8
0
VERTEX
8
0
62
5
10
0.21213203
20
0.41085771
30
0
70
32
0
VERTEX
8
0
62
5
10
0.21213203
20
0.42141299
30
0
70
32
0
SEQEND
8
0
0
POLYLINE
8
0
62
5
66
1
10
0
20
0
30
0
70
8
0
VERTEX
8
0
62
5
10
0.070710678
20
0.47237838
30
0
70
32
0
VERTEX
8
0
62
5
10
0.070710678
20
0.53389904
30
0
70
32
0
SEQEND
8
0
0
POLYLINE
8
0
62
5
66
1
10
0
20
0
30
0
70
8
0
VERTEX
8
0
62
5
10
0.14142136
20
0.47237838
30
0
70
32
0
VERTEX
8
0
62
5
10
0.14142136
20
0.53389904
30
0
70
32
0
SEQEND
8
0
0
POLYLINE
8
0
62
5
66
1
10
0
20
0
30
0
70
8
0
VERTEX
8
0
62
5
10
0.21213203
20
0.47237838
30
0
70
32
0
VERTEX
8
0
62
5
10
0.21213203
20
0.53389904
30
0
70
32
0
SEQEND
8
0
0
POLYLINE
8
0
62
30
66
1
10
0
20
0
30
0
70
8
0
VERTEX
8
0
62
30
10
1.0564175e-10
20
0.47237838
30
0
70
32
0
VERTEX
8
0
62
30
10
1.0564175e-10
20
0.47237838
30
0
70
32
0
VERTEX
8
0
62
30
10
1.0564175e-10
20
0.47237838
30
0
70
32
0
SEQEND
8
0
0
POLYLINE
8
0
62
30
66
1
10
0
20
0
30
0
70
8
0
VERTEX
8
0
62
30
10
0.070710678
20
0.47237836
30
0
70
32
0
VERTEX
8
0
62
30
10
0.070710718
20
0.47237838
30
0
70
32
0
VERTEX
8
0
62
30
10
0.070710678
20
0.4723784
30
0
70
32
0
SEQEND
8
0
0
POLYLINE
8
0
62
30
66
1
10
0
20
0
30
0
70
8
0
VERTEX
8
0
62
30
10
0.14142136
20
0.42141297
30
0
70
32
0
VERTEX
8
0
62
30
10
0.16751147
20
0.47237838
30
0
70
32
0
VERTEX
8
0
62
30
10
0.14142136
20
0.52334378
30
0
70
32
0
SEQEND
8
0
0
POLYLINE
8
0
62
30
66
1
10
0
20
0
30
0
70
8
0
VERTEX
8
0
62
30
10
0.21213203
20
0.42141299
30
0
70
32
0
VERTEX
8
0
62
30
10
0.23822215
20
0.47237838
30
0
70
32
0
VERTEX
8
0
62
30
10
0.21213203
20
0.52334376
30
0
70
32
0
SEQEND
8
0
0
POLYLINE
8
0
62
5
66
1
10
0
20
0
30
0
70
8
0
VERTEX
8
0
62
5
10
0.56568543
20
0.53389904
30
0
70
32
0
VERTEX
8
0
62
5
10
0.56568543
20
0.41085771
30
0
70
32
0
SEQEND
8
0
0
POLYLINE
8
0
62
5
66
1
10
0
20
0
30
0
70
8
0
VERTEX
8
0
62
5
10
0.28284271
20
0.47237838
30
0
70
32
0
VERTEX
8
0
62
5
10
0.35355339
20
0.47237836
30
0
70
32
0
VERTEX
8
0
62
5
10
0.42426407
20
0.42141297
30
0
70
32
0
VERTEX
8
0
62
5
10
0.49497475
20
0.42141299
30
0
70
32
0
VERTEX
8
0
62
5
10
0.56568543
20
0.47237838
30
0
70
32
0
SEQEND
8
0
0
POLYLINE
8
0
62
5
66
1
10
0
20
0
30
0
70
8
0
SEQEND
8
0
0
POLYLINE
8
0
62
5
66
1
10
0
20
0
30
0
70
8
0
VERTEX
8
0
62
5
10
0.28284271
20
0.47237838
30
0
70
32
0
VERTEX
8
0
62
5
10
0.35355339
20
0.4723784
30
0
70
32
0
VERTEX
8
0
62
5
10
0.42426407
20
0.52334378
30
0
70
32
0
VERTEX
8
0
62
5
10
0.49497475
20
0.52334376
30
0
70
32
0
VERTEX
8
0
62
5
10
0.56568543
20
0.47237838
30
0
70
32
0
SEQEND
8
0
0
POLYLINE
8
0
62
30
66
1
10
0
20
0
30
0
70
8
0
VERTEX
8
0
62
30
10
0.28284271
20
0.47237838
30
0
70
32
0
VERTEX
8
0
62
30
10
0.56568543
20
0.47237838
30
0
70
32
0
SEQEND
8
0
0
POLYLINE
8
0
62
30
66
1
10
0
20
0
30
0
70
8
0
VERTEX
8
0
62
30
10
0.35355339
20
0.47237836
30
0
70
32
0
VERTEX
8
0
62
30
10
0.35355339
20
0.47237838
30
0
70
32
0
SEQEND
8
0
0
POLYLINE
8
0
62
30
66
1
10
0
20
0
30
0
70
8
0
VERTEX
8
0
62
30
10
0.42426407
20
0.42141297
30
0
70
32
0
VERTEX
8
0
62
30
10
0.42426407
20
0.47237838
30
0
70
32
0
SEQEND
8
0
0
POLYLINE
8
0
62
30
66
1
10
0
20
0
30
0
70
8
0
VERTEX
8
0
62
30
10
0.49497475
20
0.42141299
30
0
70
32
0
VERTEX
8
0
62
30
10
0.49497475
20
0.47237838
30
0
70
32
0
SEQEND
8
0
0
POLYLINE
8
0
62
5
66
1
10
0
20
0
30
0
70
8
0
VERTEX
8
0
62
5
10
0.35355339
20
0.41085771
30
0
70
32
0
VERTEX
8
0
62
5
10
0.35355339
20
0.47237836
30
0
70
32
0
SEQEND
8
0
0
POLYLINE
8
0
62
5
66
1
10
0
20
0
30
0
70
8
0
VERTEX
8
0
62
5
10
0.42426407
20
0.41085771
30
0
70
32
0
VERTEX
8
0
62
5
10
0.42426407
20
0.42141297
30
0
70
32
0
SEQEND
8
0
0
POLYLINE
8
0
62
5
66
1
10
0
20
0
30
0
70
8
0
VERTEX
8
0
62
5
10
0.49497475
20
0.41085771
30
0
70
32
0
VERTEX
8
0
62
5
10
0.49497475
20
0.42141299
30
0
70
32
0
SEQEND
8
0
0
POLYLINE
8
0
62
5
66
1
10
0
20
0
30
0
70
8
0
VERTEX
8
0
62
5
10
0.35355339
20
0.47237838
30
0
70
32
0
VERTEX
8
0
62
5
10
0.35355339
20
0.53389904
30
0
70
32
0
SEQEND
8
0
0
POLYLINE
8
0
62
5
66
1
10
0
20
0
30
0
70
8
0
VERTEX
8
0
62
5
10
0.42426407
20
0.47237838
30
0
70
32
0
VERTEX
8
0
62
5
10
0.42426407
20
0.53389904
30
0
70
32
0
SEQEND
8
0
0
POLYLINE
8
0
62
5
66
1
10
0
20
0
30
0
70
8
0
VERTEX
8
0
62
5
10
0.49497475
20
0.47237838
30
0
70
32
0
VERTEX
8
0
62
5
10
0.49497475
20
0.53389904
30
0
70
32
0
SEQEND
8
0
0
POLYLINE
8
0
62
30
66
1
10
0
20
0
30
0
70
8
0
VERTEX
8
0
62
30
10
0.28284271
20
0.47237838
30
0
70
32
0
VERTEX
8
0
62
30
10
0.28284271
20
0.47237838
30
0
70
32
0
VERTEX
8
0
62
30
10
0.28284271
20
0.47237838
30
0
70
32
0
SEQEND
8
0
0
POLYLINE
8
0
62
30
66
1
10
0
20
0
30
0
70
8
0
VERTEX
8
0
62
30
10
0.35355339
20
0.47237836
30
0
70
32
0
VERTEX
8
0
62
30
10
0.35355343
20
0.47237838
30
0
70
32
0
VERTEX
8
0
62
30
10
0.35355339
20
0.4723784
30
0
70
32
0
SEQEND
8
0
0
POLYLINE
8
0
62
30
66
1
10
0
20
0
30
0
70
8
0
VERTEX
8
0
62
30
10
0.42426407
20
0.42141297
30
0
70
32
0
VERTEX
8
0
62
30
10
0.45035418
20
0.47237838
30
0
70
32
0
VERTEX
8
0
62
30
10
0.42426407
20
0.52334378
30
0
70
32
0
SEQEND
8
0
0
POLYLINE
8
0
62
30
66
1
10
0
20
0
30
0
70
8
0
VERTEX
8
0
62
30
10
0.49497475
20
0.42141299
30
0
70
32
0
VERTEX
8
0
62
30
10
0.52106486
20
0.47237838
30
0
70
32
0
VERTEX
8
0
62
30
10
0.49497475
20
0.52334376
30
0
70
32
0
SEQEND
8
0
0
POLYLINE
8
0
62
5
66
1
10
0
20
0
30
0
70
8
0
VERTEX
8
0
62
5
10
-0.28284271
20
0.41085771
30
0
70
32
0
VERTEX
8
0
62
5
10
-0.28284271
20
0.53389904
30
0
70
32
0
SEQEND
8
0
0
POLYLINE
8
0
62
5
66
1
10
0
20
0
30
0
70
8
0
VERTEX
8
0
62
5
10
-0.28284271
20
0.47237838
30
0
70
32
0
VERTEX
8
0
62
5
10
-0.21213203
20
0.47237836
30
0
70
32
0
VERTEX
8
0
62
5
10
-0.14142136
20
0.42141297
30
0
70
32
0
VERTEX
8
0
62
5
10
-0.070710678
20
0.42141299
30
0
70
32
0
VERTEX
8
0
62
5
10
1.0564177e-10
20
0.47237838
30
0
70
32
0
SEQEND
8
0
0
POLYLINE
8
0
62
5
66
1
10
0
20
0
30
0
70
8
0
SEQEND
8
0
0
POLYLINE
8
0
62
5
66
1
10
0
20
0
30
0
70
8
0
VERTEX
8
0
62
5
10
-0.28284271
20
0.47237838
30
0
70
32
0
VERTEX
8
0
62
5
10
-0.21213203
20
0.4723784
30
0
70
32
0
VERTEX
8
0
62
5
10
-0.14142136
20
0.52334378
30
0
70
32
0
VERTEX
8
0
62
5
10
-0.070710678
20
0.52334376
30
0
70
32
0
VERTEX
8
0
62
5
10
1.0564177e-10
20
0.47237838
30
0
70
32
0
SEQEND
8
0
0
POLYLINE
8
0
62
30
66
1
10
0
20
0
30
0
70
8
0
VERTEX
8
0
62
30
10
-0.28284271
20
0.47237838
30
0
70
32
0
VERTEX
8
0
62
30
10
1.0564177e-10
20
0.47237838
30
0
70
32
0
SEQEND
8
0
0
POLYLINE
8
0
62
30
66
1
10
0
20
0
30
0
70
8
0
VERTEX
8
0
62
30
10
-0.21213203
20
0.47237836
30
0
70
32
0
VERTEX
8
0
62
30
10
-0.21213203
20
0.47237838
30
0
70
32
0
SEQEND
8
0
0
POLYLINE
8
0
62
30
66
1
10
0
20
0
30
0
70
8
0
VERTEX
8
0
62
30
10
-0.14142136
20
0.42141297
30
0
70
32
0
VERTEX
8
0
62
30
10
-0.14142136
20
0.47237838
30
0
70
32
0
SEQEND
8
0
0
POLYLINE
8
0
62
30
66
1
10
0
20
0
30
0
70
8
0
VERTEX
8
0
62
30
10
-0.070710678
20
0.42141299
30
0
70
32
0
VERTEX
8
0
62
30
10
-0.070710678
20
0.47237838
30
0
70
32
0
SEQEND
8
0
0
POLYLINE
8
0
62
5
66
1
10
0
20
0
30
0
70
8
0
VERTEX
8
0
62
5
10
-0.21213203
20
0.41085771
30
0
70
32
0
VERTEX
8
0
62
5
10
-0.21213203
20
0.47237836
30
0
70
32
0
SEQEND
8
0
0
POLYLINE
8
0
62
5
66
1
10
0
20
0
30
0
70
8
0
VERTEX
8
0
62
5
10
-0.14142136
20
0.41085771
30
0
70
32
0
VERTEX
8
0
62
5
10
-0.14142136
20
0.42141297
30
0
70
32
0
SEQEND
8
0
0
POLYLINE
8
0
62
5
66
1
10
0
20
0
30
0
70
8
0
VERTEX
8
0
62
5
10
-0.070710678
20
0.41085771
30
0
70
32
0
VERTEX
8
0
62
5
10
-0.070710678
20
0.42141299
30
0
70
32
0
SEQEND
8
0
0
POLYLINE
8
0
62
5
66
1
10
0
20
0
30
0
70
8
0
VERTEX
8
0
62
5
10
-0.21213203
20
0.47237838
30
0
70
32
0
VERTEX
8
0
62
5
10
-0.21213203
20
0.53389904
30
0
70
32
0
SEQEND
8
0
0
POLYLINE
8
0
62
5
66
1
10
0
20
0
30
0
70
8
0
VERTEX
8
0
62
5
10
-0.14142136
20
0.47237838
30
0
70
32
0
VERTEX
8
0
62
5
10
-0.14142136
20
0.53389904
30
0
70
32
0
SEQEND
8
0
0
POLYLINE
8
0
62
5
66
1
10
0
20
0
30
0
70
8
0
VERTEX
8
0
62
5
10
-0.070710678
20
0.47237838
30
0
70
32
0
VERTEX
8
0
62
5
10
-0.070710678
20
0.53389904
30
0
70
32
0
SEQEND
8
0
0
POLYLINE
8
0
62
30
66
1
10
0
20
0
30
0
70
8
0
VERTEX
8
0
62
30
10
-0.28284271
20
0.47237838
30
0
70
32
0
VERTEX
8
0
62
30
10
-0.28284271
20
0.47237838
30
0
70
32
0
VERTEX
8
0
62
30
10
-0.28284271
20
0.47237838
30
0
70
32
0
SEQEND
8
0
0
POLYLINE
8
0
62
30
66
1
10
0
20
0
30
0
70
8
0
VERTEX
8
0
62
30
10
-0.21213203
20
0.47237836
30
0
70
32
0
VERTEX
8
0
62
30
10
-0.21213199
20
0.47237838
30
0
70
32
0
VERTEX
8
0
62
30
10
-0.21213203
20
0.4723784
30
0
70
32
0
SEQEND
8
0
0
POLYLINE
8
0
62
30
66
1
10
0
20
0
30
0
70
8
0
VERTEX
8
0
62
30
10
-0.14142136
20
0.42141297
30
0
70
32
0
VERTEX
8
0
62
30
10
-0.11533124
20
0.47237838
30
0
70
32
0
VERTEX
8
0
62
30
10
-0.14142136
20
0.52334378
30
0
70
32
0
SEQEND
8
0
0
POLYLINE
8
0
62
30
66
1
10
0
20
0
30
0
70
8
0
VERTEX
8
0
62
30
10
-0.070710678
20
0.42141299
30
0
70
32
0
VERTEX
8
0
62
30
10
-0.044620566
20
0.47237838
30
0
70
32
0
VERTEX
8
0
62
30
10
-0.070710678
20
0.52334376
30
0
70
32
0
SEQEND
8
0
0
POLYLINE
8
0
62
5
66
1
10
0
20
0
30
0
70
8
0
VERTEX
8
0
62
5
10
1.0564175e-10
20
0.53389904
30
0
70
32
0
VERTEX
8
0
62
5
10
1.0564175e-10
20
0.56552187
30
0
70
32
0
SEQEND
8
0
0
POLYLINE
8
0
62
5
66
1
10
0
20
0
30
0
70
8
0
VERTEX
8
0
62
5
10
0.070710678
20
0.53389904
30
0
70
32
0
VERTEX
8
0
62
5
10
0.070710678
20
0.56552187
30
0
70
32
0
SEQEND
8
0
0
POLYLINE
8
0
62
5
66
1
10
0
20
0
30
0
70
8
0
VERTEX
8
0
62
5
10
0.14142136
20
0.53389904
30
0
70
32
0
VERTEX
8
0
62
5
10
0.14142136
20
0.56552187
30
0
70
32
0
SEQEND
8
0
0
POLYLINE
8
0
62
5
66
1
10
0
20
0
30
0
70
8
0
VERTEX
8
0
62
5
10
0.21213203
20
0.53389904
30
0
70
32
0
VERTEX
8
0
62
5
10
0.21213203
20
0.56552187
30
0
70
32
0
SEQEND
8
0
0
POLYLINE
8
0
62
5
66
1
10
0
20
0
30
0
70
8
0
VERTEX
8
0
62
5
10
0.28284271
20
0.53389904
30
0
70
32
0
VERTEX
8
0
62
5
10
0.28284271
20
0.56552187
30
0
70
32
0
SEQEND
8
0
0
POLYLINE
8
0
62
5
66
1
10
0
20
0
30
0
70
8
0
VERTEX
8
0
62
5
10
0.070710678
20
0.53389904
30
0
70
32
0
VERTEX
8
0
62
5
10
0.070710678
20
0.53389904
30
0
70
32
0
SEQEND
8
0
0
POLYLINE
8
0
62
5
66
1
10
0
20
0
30
0
70
8
0
VERTEX
8
0
62
5
10
0.14142136
20
0.53389904
30
0
70
32
0
VERTEX
8
0
62
5
10
0.14142136
20
0.53389904
30
0
70
32
0
SEQEND
8
0
0
POLYLINE
8
0
62
5
66
1
10
0
20
0
30
0
70
8
0
VERTEX
8
0
62
5
10
0.21213203
20
0.53389904
30
0
70
32
0
VERTEX
8
0
62
5
10
0.21213203
20
0.53389904
30
0
70
32
0
SEQEND
8
0
0
POLYLINE
8
0
62
5
66
1
10
0
20
0
30
0
70
8
0
VERTEX
8
0
62
5
10
0.070710666
20
0.56552187
30
0
70
32
0
VERTEX
8
0
62
5
10
0.070710666
20
0.56552187
30
0
70
32
0
SEQEND
8
0
0
POLYLINE
8
0
62
5
66
1
10
0
20
0
30
0
70
8
0
VERTEX
8
0
62
5
10
0.14142134
20
0.56552187
30
0
70
32
0
VERTEX
8
0
62
5
10
0.14142134
20
0.56552187
30
0
70
32
0
SEQEND
8
0
0
POLYLINE
8
0
62
5
66
1
10
0
20
0
30
0
70
8
0
VERTEX
8
0
62
5
10
0.21213202
20
0.56552187
30
0
70
32
0
VERTEX
8
0
62
5
10
0.21213202
20
0.56552187
30
0
70
32
0
SEQEND
8
0
0
POLYLINE
8
0
62
5
66
1
10
0
20
0
30
0
70
8
0
VERTEX
8
0
62
5
10
0.2828427
20
0.56552187
30
0
70
32
0
VERTEX
8
0
62
5
10
0.2828427
20
0.56552187
30
0
70
32
0
SEQEND
8
0
0
POLYLINE
8
0
62
5
66
1
10
0
20
0
30
0
70
8
0
VERTEX
8
0
62
5
10
0.35355339
20
0.53389904
30
0
70
32
0
VERTEX
8
0
62
5
10
0.35355339
20
0.56552187
30
0
70
32
0
SEQEND
8
0
0
POLYLINE
8
0
62
5
66
1
10
0
20
0
30
0
70
8
0
VERTEX
8
0
62
5
10
0.42426407
20
0.53389904
30
0
70
32
0
VERTEX
8
0
62
5
10
0.42426407
20
0.56552187
30
0
70
32
0
SEQEND
8
0
0
POLYLINE
8
0
62
5
66
1
10
0
20
0
30
0
70
8
0
VERTEX
8
0
62
5
10
0.49497475
20
0.53389904
30
0
70
32
0
VERTEX
8
0
62
5
10
0.49497475
20
0.56552187
30
0
70
32
0
SEQEND
8
0
0
POLYLINE
8
0
62
5
66
1
10
0
20
0
30
0
70
8
0
VERTEX
8
0
62
5
10
0.56568543
20
0.53389904
30
0
70
32
0
VERTEX
8
0
62
5
10
0.56568543
20
0.56552187
30
0
70
32
0
SEQEND
8
0
0
POLYLINE
8
0
62
5
66
1
10
0
20
0
30
0
70
8
0
VERTEX
8
0
62
5
10
0.35355339
20
0.53389904
30
0
70
32
0
VERTEX
8
0
62
5
10
0.35355339
20
0.53389904
30
0
70
32
0
SEQEND
8
0
0
POLYLINE
8
0
62
5
66
1
10
0
20
0
30
0
70
8
0
VERTEX
8
0
62
5
10
0.42426407
20
0.53389904
30
0
70
32
0
VERTEX
8
0
62
5
10
0.42426407
20
0.53389904
30
0
70
32
0
SEQEND
8
0
0
POLYLINE
8
0
62
5
66
1
10
0
20
0
30
0
70
8
0
VERTEX
8
0
62
5
10
0.49497475
20
0.53389904
30
0
70
32
0
VERTEX
8
0
62
5
10
0.49497475
20
0.53389904
30
0
70
32
0
SEQEND
8
0
0
POLYLINE
8
0
62
5
66
1
10
0
20
0
30
0
70
8
0
VERTEX
8
0
62
5
10
0.35355338
20
0.56552187
30
0
70
32
0
VERTEX
8
0
62
5
10
0.35355338
20
0.56552187
30
0
70
32
0
SEQEND
8
0
0
POLYLINE
8
0
62
5
66
1
10
0
20
0
30
0
70
8
0
VERTEX
8
0
62
5
10
0.42426406
20
0.56552187
30
0
70
32
0
VERTEX
8
0
62
5
10
0.42426406
20
0.56552187
30
0
70
32
0
SEQEND
8
0
0
POLYLINE
8
0
62
5
66
1
10
0
20
0
30
0
70
8
0
VERTEX
8
0
62
5
10
0.49497474
20
0.56552187
30
0
70
32
0
VERTEX
8
0
62
5
10
0.49497474
20
0.56552187
30
0
70
32
0
SEQEND
8
0
0
POLYLINE
8
0
62
5
66
1
10
0
20
0
30
0
70
8
0
VERTEX
8
0
62
5
10
0.56568541
20
0.56552187
30
0
70
32
0
VERTEX
8
0
62
5
10
0.56568541
20
0.56552187
30
0
70
32
0
SEQEND
8
0
0
POLYLINE
8
0
62
5
66
1
10
0
20
0
30
0
70
8
0
VERTEX
8
0
62
5
10
-0.21213203
20
0.53389904
30
0
70
32
0
VERTEX
8
0
62
5
10
-0.21213203
20
0.56552187
30
0
70
32
0
SEQEND
8
0
0
POLYLINE
8
0
62
5
66
1
10
0
20
0
30
0
70
8
0
VERTEX
8
0
62
5
10
-0.14142136
20
0.53389904
30
0
70
32
0
VERTEX
8
0
62
5
10
-0.14142136
20
0.56552187
30
0
70
32
0
SEQEND
8
0
0
POLYLINE
8
0
62
5
66
1
10
0
20
0
30
0
70
8
0
VERTEX
8
0
62
5
10
-0.070710678
20
0.53389904
30
0
70
32
0
VERTEX
8
0
62
5
10
-0.070710678
20
0.56552187
30
0
70
32
0
SEQEND
8
0
0
POLYLINE
8
0
62
5
66
1
10
0
20
0
30
0
70
8
0
VERTEX
8
0
62
5
10
1.0564177e-10
20
0.53389904
30
0
70
32
0
VERTEX
8
0
62
5
10
1.0564177e-10
20
0.56552187
30
0
70
32
0
SEQEND
8
0
0
POLYLINE
8
0
62
5
66
1
10
0
20
0
30
0
70
8
0
VERTEX
8
0
62
5
10
-0.21213203
20
0.53389904
30
0
70
32
0
VERTEX
8
0
62
5
10
-0.21213203
20
0.53389904
30
0
70
32
0
SEQEND
8
0
0
POLYLINE
8
0
62
5
66
1
10
0
20
0
30
0
70
8
0
VERTEX
8
0
62
5
10
-0.14142136
20
0.53389904
30
0
70
32
0
VERTEX
8
0
62
5
10
-0.14142136
20
0.53389904
30
0
70
32
0
SEQEND
8
0
0
POLYLINE
8
0
62
5
66
1
10
0
20
0
30
0
70
8
0
VERTEX
8
0
62
5
10
-0.070710678
20
0.53389904
30
0
70
32
0
VERTEX
8
0
62
5
10
-0.070710678
20
0.53389904
30
0
70
32
0
SEQEND
8
0
0
POLYLINE
8
0
62
5
66
1
10
0
20
0
30
0
70
8
0
VERTEX
8
0
62
5
10
-0.21213205
20
0.56552187
30
0
70
32
0
VERTEX
8
0
62
5
10
-0.21213205
20
0.56552187
30
0
70
32
0
SEQEND
8
0
0
POLYLINE
8
0
62
5
66
1
10
0
20
0
30
0
70
8
0
VERTEX
8
0
62
5
10
-0.14142137
20
0.56552187
30
0
70
32
0
VERTEX
8
0
62
5
10
-0.14142137
20
0.56552187
30
0
70
32
0
SEQEND
8
0
0
POLYLINE
8
0
62
5
66
1
10
0
20
0
30
0
70
8
0
VERTEX
8
0
62
5
10
-0.07071069
20
0.56552187
30
0
70
32
0
VERTEX
8
0
62
5
10
-0.07071069
20
0.56552187
30
0
70
32
0
SEQEND
8
0
0
POLYLINE
8
0
62
5
66
1
10
0
20
0
30
0
70
8
0
VERTEX
8
0
62
5
10
-1.1676807e-08
20
0.56552187
30
0
70
32
0
VERTEX
8
0
62
5
10
-1.1676807e-08
20
0.56552187
30
0
70
32
0
SEQEND
8
0
0
POLYLINE
8
0
62
5
66
1
10
0
20
0
30
0
70
8
0
VERTEX
8
0
62
5
10
-1.1676807e-08
20
0.56552187
30
0
70
32
0
VERTEX
8
0
62
5
10
-1.1676807e-08
20
0.69201316
30
0
70
32
0
SEQEND
8
0
0
POLYLINE
8
0
62
5
66
1
10
0
20
0
30
0
70
8
0
VERTEX
8
0
62
5
10
0.2828427
20
0.56552187
30
0
70
32
0
VERTEX
8
0
62
5
10
0.2828427
20
0.69201316
30
0
70
32
0
SEQEND
8
0
0
POLYLINE
8
0
62
5
66
1
10
0
20
0
30
0
70
8
0
VERTEX
8
0
62
5
10
0.070710666
20
0.56552187
30
0
70
32
0
VERTEX
8
0
62
5
10
0.070710666
20
0.69201316
30
0
70
32
0
SEQEND
8
0
0
POLYLINE
8
0
62
5
66
1
10
0
20
0
30
0
70
8
0
VERTEX
8
0
62
5
10
0.14142134
20
0.56552187
30
0
70
32
0
VERTEX
8
0
62
5
10
0.14142134
20
0.69201316
30
0
70
32
0
SEQEND
8
0
0
POLYLINE
8
0
62
5
66
1
10
0
20
0
30
0
70
8
0
VERTEX
8
0
62
5
10
0.21213202
20
0.56552187
30
0
70
32
0
VERTEX
8
0
62
5
10
0.21213202
20
0.69201316
30
0
70
32
0
SEQEND
8
0
0
POLYLINE
8
0
62
5
66
1
10
0
20
0
30
0
70
8
0
VERTEX
8
0
62
5
10
0.56568541
20
0.56552187
30
0
70
32
0
VERTEX
8
0
62
5
10
0.56568541
20
0.69201316
30
0
70
32
0
SEQEND
8
0
0
POLYLINE
8
0
62
5
66
1
10
0
20
0
30
0
70
8
0
VERTEX
8
0
62
5
10
0.35355338
20
0.56552187
30
0
70
32
0
VERTEX
8
0
62
5
10
0.35355338
20
0.69201316
30
0
70
32
0
SEQEND
8
0
0
POLYLINE
8
0
62
5
66
1
10
0
20
0
30
0
70
8
0
VERTEX
8
0
62
5
10
0.42426406
20
0.56552187
30
0
70
32
0
VERTEX
8
0
62
5
10
0.42426406
20
0.69201316
30
0
70
32
0
SEQEND
8
0
0
POLYLINE
8
0
62
5
66
1
10
0
20
0
30
0
70
8
0
VERTEX
8
0
62
5
10
0.49497474
20
0.56552187
30
0
70
32
0
VERTEX
8
0
62
5
10
0.49497474
20
0.69201316
30
0
70
32
0
SEQEND
8
0
0
POLYLINE
8
0
62
5
66
1
10
0
20
0
30
0
70
8
0
VERTEX
8
0
62
5
10
-0.28284272
20
0.56552187
30
0
70
32
0
VERTEX
8
0
62
5
10
-0.28284272
20
0.69201316
30
0
70
32
0
SEQEND
8
0
0
POLYLINE
8
0
62
5
66
1
10
0
20
0
30
0
70
8
0
VERTEX
8
0
62
5
10
-0.21213205
20
0.56552187
30
0
70
32
0
VERTEX
8
0
62
5
10
-0.21213205
20
0.69201316
30
0
70
32
0
SEQEND
8
0
0
POLYLINE
8
0
62
5
66
1
10
0
20
0
30
0
70
8
0
VERTEX
8
0
62
5
10
-0.14142137
20
0.56552187
30
0
70
32
0
VERTEX
8
0
62
5
10
-0.14142137
20
0.69201316
30
0
70
32
0
SEQEND
8
0
0
POLYLINE
8
0
62
5
66
1
10
0
20
0
30
0
70
8
0
VERTEX
8
0
62
5
10
-0.07071069
20
0.56552187
30
0
70
32
0
VERTEX
8
0
62
5
10
-0.07071069
20
0.69201316
30
0
70
32
0
SEQEND
8
0
0
POLYLINE
8
0
62
5
66
1
10
0
20
0
30
0
70
8
0
VERTEX
8
0
62
5
10
-1.1676807e-08
20
0.69201316
30
0
70
32
0
VERTEX
8
0
62
5
10
-1.1676807e-08
20
0.71971569
30
0
70
32
0
SEQEND
8
0
0
POLYLINE
8
0
62
5
66
1
10
0
20
0
30
0
70
8
0
VERTEX
8
0
62
5
10
0.2828427
20
0.71971569
30
0
70
32
0
VERTEX
8
0
62
5
10
0.2828427
20
0.69201316
30
0
70
32
0
SEQEND
8
0
0
POLYLINE
8
0
62
5
66
1
10
0
20
0
30
0
70
8
0
VERTEX
8
0
62
5
10
-1.1676807e-08
20
0.70586441
30
0
70
32
0
VERTEX
8
0
62
5
10
0.070710666
20
0.70586442
30
0
70
32
0
VERTEX
8
0
62
5
10
0.14142134
20
0.69438967
30
0
70
32
0
VERTEX
8
0
62
5
10
0.21213202
20
0.69438965
30
0
70
32
0
VERTEX
8
0
62
5
10
0.2828427
20
0.70586441
30
0
70
32
0
SEQEND
8
0
0
POLYLINE
8
0
62
5
66
1
10
0
20
0
30
0
70
8
0
SEQEND
8
0
0
POLYLINE
8
0
62
5
66
1
10
0
20
0
30
0
70
8
0
VERTEX
8
0
62
5
10
-1.1676807e-08
20
0.70586444
30
0
70
32
0
VERTEX
8
0
62
5
10
0.070710666
20
0.70586442
30
0
70
32
0
VERTEX
8
0
62
5
10
0.14142134
20
0.71733918
30
0
70
32
0
VERTEX
8
0
62
5
10
0.21213202
20
0.71733919
30
0
70
32
0
VERTEX
8
0
62
5
10
0.2828427
20
0.70586444
30
0
70
32
0
SEQEND
8
0
0
POLYLINE
8
0
62
30
66
1
10
0
20
0
30
0
70
8
0
VERTEX
8
0
62
30
10
-1.1676807e-08
20
0.70586442
30
0
70
32
0
VERTEX
8
0
62
30
10
0.2828427
20
0.70586442
30
0
70
32
0
SEQEND
8
0
0
POLYLINE
8
0
62
30
66
1
10
0
20
0
30
0
70
8
0
VERTEX
8
0
62
30
10
0.070710666
20
0.70586442
30
0
70
32
0
VERTEX
8
0
62
30
10
0.070710666
20
0.70586442
30
0
70
32
0
SEQEND
8
0
0
POLYLINE
8
0
62
30
66
1
10
0
20
0
30
0
70
8
0
VERTEX
8
0
62
30
10
0.14142134
20
0.69438967
30
0
70
32
0
VERTEX
8
0
62
30
10
0.14142134
20
0.70586442
30
0
70
32
0
SEQEND
8
0
0
POLYLINE
8
0
62
30
66
1
10
0
20
0
30
0
70
8
0
VERTEX
8
0
62
30
10
0.21213202
20
0.69438965
30
0
70
32
0
VERTEX
8
0
62
30
10
0.21213202
20
0.70586442
30
0
70
32
0
SEQEND
8
0
0
POLYLINE
8
0
62
5
66
1
10
0
20
0
30
0
70
8
0
VERTEX
8
0
62
5
10
0.070710666
20
0.69201316
30
0
70
32
0
VERTEX
8
0
62
5
10
0.070710666
20
0.70586442
30
0
70
32
0
SEQEND
8
0
0
POLYLINE
8
0
62
5
66
1
10
0
20
0
30
0
70
8
0
VERTEX
8
0
62
5
10
0.14142134
20
0.69201316
30
0
70
32
0
VERTEX
8
0
62
5
10
0.14142134
20
0.69438967
30
0
70
32
0
SEQEND
8
0
0
POLYLINE
8
0
62
5
66
1
10
0
20
0
30
0
70
8
0
VERTEX
8
0
62
5
10
0.21213202
20
0.69201316
30
0
70
32
0
VERTEX
8
0
62
5
10
0.21213202
20
0.69438965
30
0
70
32
0
SEQEND
8
0
0
POLYLINE
8
0
62
5
66
1
10
0
20
0
30
0
70
8
0
VERTEX
8
0
62
5
10
0.070710666
20
0.70586442
30
0
70
32
0
VERTEX
8
0
62
5
10
0.070710666
20
0.71971569
30
0
70
32
0
SEQEND
8
0
0
POLYLINE
8
0
62
5
66
1
10
0
20
0
30
0
70
8
0
VERTEX
8
0
62
5
10
0.14142134
20
0.70586442
30
0
70
32
0
VERTEX
8
0
62
5
10
0.14142134
20
0.71971569
30
0
70
32
0
SEQEND
8
0
0
POLYLINE
8
0
62
5
66
1
10
0
20
0
30
0
70
8
0
VERTEX
8
0
62
5
10
0.21213202
20
0.70586442
30
0
70
32
0
VERTEX
8
0
62
5
10
0.21213202
20
0.71971569
30
0
70
32
0
SEQEND
8
0
0
POLYLINE
8
0
62
30
66
1
10
0
20
0
30
0
70
8
0
VERTEX
8
0
62
30
10
-1.1676807e-08
20
0.70586441
30
0
70
32
0
VERTEX
8
0
62
30
10
4.4191127e-09
20
0.70586442
30
0
70
32
0
VERTEX
8
0
62
30
10
-1.1676807e-08
20
0.70586444
30
0
70
32
0
SEQEND
8
0
0
POLYLINE
8
0
62
30
66
1
10
0
20
0
30
0
70
8
0
VERTEX
8
0
62
30
10
0.070710666
20
0.70586442
30
0
70
32
0
VERTEX
8
0
62
30
10
0.070710666
20
0.70586442
30
0
70
32
0
VERTEX
8
0
62
30
10
0.070710666
20
0.70586442
30
0
70
32
0
SEQEND
8
0
0
POLYLINE
8
0
62
30
66
1
10
0
20
0
30
0
70
8
0
VERTEX
8
0
62
30
10
0.14142134
20
0.69438967
30
0
70
32
0
VERTEX
8
0
62
30
10
0.15118411
20
0.70586442
30
0
70
32
0
VERTEX
8
0
62
30
10
0.14142134
20
0.71733918
30
0
70
32
0
SEQEND
8
0
0
POLYLINE
8
0
62
30
66
1
10
0
20
0
30
0
70
8
0
VERTEX
8
0
62
30
10
0.21213202
20
0.69438965
30
0
70
32
0
VERTEX
8
0
62
30
10
0.2218948
20
0.70586442
30
0
70
32
0
VERTEX
8
0
62
30
10
0.21213202
20
0.71733919
30
0
70
32
0
SEQEND
8
0
0
POLYLINE
8
0
62
5
66
1
10
0
20
0
30
0
70
8
0
VERTEX
8
0
62
5
10
0.56568541
20
0.71971569
30
0
70
32
0
VERTEX
8
0
62
5
10
0.56568541
20
0.69201316
30
0
70
32
0
SEQEND
8
0
0
POLYLINE
8
0
62
5
66
1
10
0
20
0
30
0
70
8
0
VERTEX
8
0
62
5
10
0.2828427
20
0.70586441
30
0
70
32
0
VERTEX
8
0
62
5
10
0.35355338
20
0.70586442
30
0
70
32
0
VERTEX
8
0
62
5
10
0.42426406
20
0.69438967
30
0
70
32
0
VERTEX
8
0
62
5
10
0.49497474
20
0.69438965
30
0
70
32
0
VERTEX
8
0
62
5
10
0.56568541
20
0.70586441
30
0
70
32
0
SEQEND
8
0
0
POLYLINE
8
0
62
5
66
1
10
0
20
0
30
0
70
8
0
SEQEND
8
0
0
POLYLINE
8
0
62
5
66
1
10
0
20
0
30
0
70
8
0
VERTEX
8
0
62
5
10
0.2828427
20
0.70586444
30
0
70
32
0
VERTEX
8
0
62
5
10
0.35355338
20
0.70586442
30
0
70
32
0
VERTEX
8
0
62
5
10
0.42426406
20
0.71733918
30
0
70
32
0
VERTEX
8
0
62
5
10
0.49497474
20
0.71733919
30
0
70
32
0
VERTEX
8
0
62
5
10
0.56568541
20
0.70586444
30
0
70
32
0
SEQEND
8
0
0
POLYLINE
8
0
62
30
66
1
10
0
20
0
30
0
70
8
0
VERTEX
8
0
62
30
10
0.2828427
20
0.70586442
30
0
70
32
0
VERTEX
8
0
62
30
10
0.56568541
20
0.70586442
30
0
70
32
0
SEQEND
8
0
0
POLYLINE
8
0
62
30
66
1
10
0
20
0
30
0
70
8
0
VERTEX
8
0
62
30
10
0.35355338
20
0.70586442
30
0
70
32
0
VERTEX
8
0
62
30
10
0.35355338
20
0.70586442
30
0
70
32
0
SEQEND
8
0
0
POLYLINE
8
0
62
30
66
1
10
0
20
0
30
0
70
8
0
VERTEX
8
0
62
30
10
0.42426406
20
0.69438967
30
0
70
32
0
VERTEX
8
0
62
30
10
0.42426406
20
0.70586442
30
0
70
32
0
SEQEND
8
0
0
POLYLINE
8
0
62
30
66
1
10
0
20
0
30
0
70
8
0
VERTEX
8
0
62
30
10
0.49497474
20
0.69438965
30
0
70
32
0
VERTEX
8
0
62
30
10
0.49497474
20
0.70586442
30
0
70
32
0
SEQEND
8
0
0
POLYLINE
8
0
62
5
66
1
10
0
20
0
30
0
70
8
0
VERTEX
8
0
62
5
10
0.35355338
20
0.69201316
30
0
70
32
0
VERTEX
8
0
62
5
10
0.35355338
20
0.70586442
30
0
70
32
0
SEQEND
8
0
0
POLYLINE
8
0
62
5
66
1
10
0
20
0
30
0
70
8
0
VERTEX
8
0
62
5
10
0.42426406
20
0.69201316
30
0
70
32
0
VERTEX
8
0
62
5
10
0.42426406
20
0.69438967
30
0
70
32
0
SEQEND
8
0
0
POLYLINE
8
0
62
5
66
1
10
0
20
0
30
0
70
8
0
VERTEX
8
0
62
5
10
0.49497474
20
0.69201316
30
0
70
32
0
VERTEX
8
0
62
5
10
0.49497474
20
0.69438965
30
0
70
32
0
SEQEND
8
0
0
POLYLINE
8
0
62
5
66
1
10
0
20
0
30
0
70
8
0
VERTEX
8
0
62
5
10
0.35355338
20
0.70586442
30
0
70
32
0
VERTEX
8
0
62
5
10
0.35355338
20
0.71971569
30
0
70
32
0
SEQEND
8
0
0
POLYLINE
8
0
62
5
66
1
10
0
20
0
30
0
70
8
0
VERTEX
8
0
62
5
10
0.42426406
20
0.70586442
30
0
70
32
0
VERTEX
8
0
62
5
10
0.42426406
20
0.71971569
30
0
70
32
0
SEQEND
8
0
0
POLYLINE
8
0
62
5
66
1
10
0
20
0
30
0
70
8
0
VERTEX
8
0
62
5
10
0.49497474
20
0.70586442
30
0
70
32
0
VERTEX
8
0
62
5
10
0.49497474
20
0.71971569
30
0
70
32
0
SEQEND
8
0
0
POLYLINE
8
0
62
30
66
1
10
0
20
0
30
0
70
8
0
VERTEX
8
0
62
30
10
0.2828427
20
0.70586441
30
0
70
32
0
VERTEX
8
0
62
30
10
0.28284272
20
0.70586442
30
0
70
32
0
VERTEX
8
0
62
30
10
0.2828427
20
0.70586444
30
0
70
32
0
SEQEND
8
0
0
POLYLINE
8
0
62
30
66
1
10
0
20
0
30
0
70
8
0
VERTEX
8
0
62
30
10
0.35355338
20
0.70586442
30
0
70
32
0
VERTEX
8
0
62
30
10
0.35355338
20
0.70586442
30
0
70
32
0
VERTEX
8
0
62
30
10
0.35355338
20
0.70586442
30
0
70
32
0
SEQEND
8
0
0
POLYLINE
8
0
62
30
66
1
10
0
20
0
30
0
70
8
0
VERTEX
8
0
62
30
10
0.42426406
20
0.69438967
30
0
70
32
0
VERTEX
8
0
62
30
10
0.43402683
20
0.70586442
30
0
70
32
0
VERTEX
8
0
62
30
10
0.42426406
20
0.71733918
30
0
70
32
0
SEQEND
8
0
0
POLYLINE
8
0
62
30
66
1
10
0
20
0
30
0
70
8
0
VERTEX
8
0
62
30
10
0.49497474
20
0.69438965
30
0
70
32
0
VERTEX
8
0
62
30
10
0.50473751
20
0.70586442
30
0
70
32
0
VERTEX
8
0
62
30
10
0.49497474
20
0.71733919
30
0
70
32
0
SEQEND
8
0
0
POLYLINE
8
0
62
5
66
1
10
0
20
0
30
0
70
8
0
VERTEX
8
0
62
5
10
-0.28284272
20
0.69201316
30
0
70
32
0
VERTEX
8
0
62
5
10
-0.28284272
20
0.71971569
30
0
70
32
0
SEQEND
8
0
0
POLYLINE
8
0
62
5
66
1
10
0
20
0
30
0
70
8
0
VERTEX
8
0
62
5
10
-0.28284272
20
0.70586441
30
0
70
32
0
VERTEX
8
0
62
5
10
-0.21213205
20
0.70586442
30
0
70
32
0
VERTEX
8
0
62
5
10
-0.14142137
20
0.69438967
30
0
70
32
0
VERTEX
8
0
62
5
10
-0.07071069
20
0.69438965
30
0
70
32
0
VERTEX
8
0
62
5
10
-1.1676807e-08
20
0.70586441
30
0
70
32
0
SEQEND
8
0
0
POLYLINE
8
0
62
5
66
1
10
0
20
0
30
0
70
8
0
SEQEND
8
0
0
POLYLINE
8
0
62
5
66
1
10
0
20
0
30
0
70
8
0
VERTEX
8
0
62
5
10
-0.28284272
20
0.70586444
30
0
70
32
0
VERTEX
8
0
62
5
10
-0.21213205
20
0.70586442
30
0
70
32
0
VERTEX
8
0
62
5
10
-0.14142137
20
0.71733918
30
0
70
32
0
VERTEX
8
0
62
5
10
-0.07071069
20
0.71733919
30
0
70
32
0
VERTEX
8
0
62
5
10
-1.1676807e-08
20
0.70586444
30
0
70
32
0
SEQEND
8
0
0
POLYLINE
8
0
62
30
66
1
10
0
20
0
30
0
70
8
0
VERTEX
8
0
62
30
10
-0.28284272
20
0.70586442
30
0
70
32
0
VERTEX
8
0
62
30
10
-1.1676807e-08
20
0.70586442
30
0
70
32
0
SEQEND
8
0
0
POLYLINE
8
0
62
30
66
1
10
0
20
0
30
0
70
8
0
VERTEX
8
0
62
30
10
-0.21213205
20
0.70586442
30
0
70
32
0
VERTEX
8
0
62
30
10
-0.21213205
20
0.70586442
30
0
70
32
0
SEQEND
8
0
0
POLYLINE
8
0
62
30
66
1
10
0
20
0
30
0
70
8
0
VERTEX
8
0
62
30
10
-0.14142137
20
0.69438967
30
0
70
32
0
VERTEX
8
0
62
30
10
-0.14142137
20
0.70586442
30
0
70
32
0
SEQEND
8
0
0
POLYLINE
8
0
62
30
66
1
10
0
20
0
30
0
70
8
0
VERTEX
8
0
62
30
10
-0.07071069
20
0.69438965
30
0
70
32
0
VERTEX
8
0
62
30
10
-0.07071069
20
0.70586442
30
0
70
32
0
SEQEND
8
0
0
POLYLINE
8
0
62
5
66
1
10
0
20
0
30
0
70
8
0
VERTEX
8
0
62
5
10
-0.21213205
20
0.69201316
30
0
70
32
0
VERTEX
8
0
62
5
10
-0.21213205
20
0.70586442
30
0
70
32
0
SEQEND
8
0
0
POLYLINE
8
0
62
5
66
1
10
0
20
0
30
0
70
8
0
VERTEX
8
0
62
5
10
-0.14142137
20
0.69201316
30
0
70
32
0
VERTEX
8
0
62
5
10
-0.14142137
20
0.69438967
30
0
70
32
0
SEQEND
8
0
0
POLYLINE
8
0
62
5
66
1
10
0
20
0
30
0
70
8
0
VERTEX
8
0
62
5
10
-0.07071069
20
0.69201316
30
0
70
32
0
VERTEX
8
0
62
5
10
-0.07071069
20
0.69438965
30
0
70
32
0
SEQEND
8
0
0
POLYLINE
8
0
62
5
66
1
10
0
20
0
30
0
70
8
0
VERTEX
8
0
62
5
10
-0.21213205
20
0.70586442
30
0
70
32
0
VERTEX
8
0
62
5
10
-0.21213205
20
0.71971569
30
0
70
32
0
SEQEND
8
0
0
POLYLINE
8
0
62
5
66
1
10
0
20
0
30
0
70
8
0
VERTEX
8
0
62
5
10
-0.14142137
20
0.70586442
30
0
70
32
0
VERTEX
8
0
62
5
10
-0.14142137
20
0.71971569
30
0
70
32
0
SEQEND
8
0
0
POLYLINE
8
0
62
5
66
1
10
0
20
0
30
0
70
8
0
VERTEX
8
0
62
5
10
-0.07071069
20
0.70586442
30
0
70
32
0
VERTEX
8
0
62
5
10
-0.07071069
20
0.71971569
30
0
70
32
0
SEQEND
8
0
0
POLYLINE
8
0
62
30
66
1
10
0
20
0
30
0
70
8
0
VERTEX
8
0
62
30
10
-0.28284272
20
0.70586441
30
0
70
32
0
VERTEX
8
0
62
30
10
-0.28284271
20
0.70586442
30
0
70
32
0
VERTEX
8
0
62
30
10
-0.28284272
20
0.70586444
30
0
70
32
0
SEQEND
8
0
0
POLYLINE
8
0
62
30
66
1
10
0
20
0
30
0
70
8
0
VERTEX
8
0
62
30
10
-0.21213205
20
0.70586442
30
0
70
32
0
VERTEX
8
0
62
30
10
-0.21213205
20
0.70586442
30
0
70
32
0
VERTEX
8
0
62
30
10
-0.21213205
20
0.70586442
30
0
70
32
0
SEQEND
8
0
0
POLYLINE
8
0
62
30
66
1
10
0
20
0
30
0
70
8
0
VERTEX
8
0
62
30
10
-0.14142137
20
0.69438967
30
0
70
32
0
VERTEX
8
0
62
30
10
-0.1316586
20
0.70586442
30
0
70
32
0
VERTEX
8
0
62
30
10
-0.14142137
20
0.71733918
30
0
70
32
0
SEQEND
8
0
0
POLYLINE
8
0
62
30
66
1
10
0
20
0
30
0
70
8
0
VERTEX
8
0
62
30
10
-0.07071069
20
0.69438965
30
0
70
32
0
VERTEX
8
0
62
30
10
-0.060947911
20
0.70586442
30
0
70
32
0
VERTEX
8
0
62
30
10
-0.07071069
20
0.71733919
30
0
70
32
0
SEQEND
8
0
0
POLYLINE
8
0
62
5
66
1
10
0
20
0
30
0
70
8
0
VERTEX
8
0
62
5
10
-1.1676807e-08
20
0.71971569
30
0
70
32
0
VERTEX
8
0
62
5
10
-1.1676807e-08
20
0.72071569
30
0
70
32
0
SEQEND
8
0
0
POLYLINE
8
0
62
5
66
1
10
0
20
0
30
0
70
8
0
VERTEX
8
0
62
5
10
0.2828427
20
0.71971569
30
0
70
32
0
VERTEX
8
0
62
5
10
0.2828427
20
0.72071569
30
0
70
32
0
SEQEND
8
0
0
POLYLINE
8
0
62
5
66
1
10
0
20
0
30
0
70
8
0
VERTEX
8
0
62
5
10
0.070710666
20
0.71971569
30
0
70
32
0
VERTEX
8
0
62
5
10
0.070710666
20
0.72071569
30
0
70
32
0
SEQEND
8
0
0
POLYLINE
8
0
62
5
66
1
10
0
20
0
30
0
70
8
0
VERTEX
8
0
62
5
10
0.14142134
20
0.71971569
30
0
70
32
0
VERTEX
8
0
62
5
10
0.14142134
20
0.72071569
30
0
70
32
0
SEQEND
8
0
0
POLYLINE
8
0
62
5
66
1
10
0
20
0
30
0
70
8
0
VERTEX
8
0
62
5
10
0.21213202
20
0.71971569
30
0
70
32
0
VERTEX
8
0
62
5
10
0.21213202
20
0.72071569
30
0
70
32
0
SEQEND
8
0
0
POLYLINE
8
0
62
5
66
1
10
0
20
0
30
0
70
8
0
VERTEX
8
0
62
5
10
0.56568541
20
0.71971569
30
0
70
32
0
VERTEX
8
0
62
5
10
0.56568541
20
0.72071569
30
0
70
32
0
SEQEND
8
0
0
POLYLINE
8
0
62
5
66
1
10
0
20
0
30
0
70
8
0
VERTEX
8
0
62
5
10
0.35355338
20
0.71971569
30
0
70
32
0
VERTEX
8
0
62
5
10
0.35355338
20
0.72071569
30
0
70
32
0
SEQEND
8
0
0
POLYLINE
8
0
62
5
66
1
10
0
20
0
30
0
70
8
0
VERTEX
8
0
62
5
10
0.42426406
20
0.71971569
30
0
70
32
0
VERTEX
8
0
62
5
10
0.42426406
20
0.72071569
30
0
70
32
0
SEQEND
8
0
0
POLYLINE
8
0
62
5
66
1
10
0
20
0
30
0
70
8
0
VERTEX
8
0
62
5
10
0.49497474
20
0.71971569
30
0
70
32
0
VERTEX
8
0
62
5
10
0.49497474
20
0.72071569
30
0
70
32
0
SEQEND
8
0
0
POLYLINE
8
0
62
5
66
1
10
0
20
0
30
0
70
8
0
VERTEX
8
0
62
5
10
-0.28284272
20
0.71971569
30
0
70
32
0
VERTEX
8
0
62
5
10
-0.28284272
20
0.72071569
30
0
70
32
0
SEQEND
8
0
0
POLYLINE
8
0
62
5
66
1
10
0
20
0
30
0
70
8
0
VERTEX
8
0
62
5
10
-0.21213205
20
0.71971569
30
0
70
32
0
VERTEX
8
0
62
5
10
-0.21213205
20
0.72071569
30
0
70
32
0
SEQEND
8
0
0
POLYLINE
8
0
62
5
66
1
10
0
20
0
30
0
70
8
0
VERTEX
8
0
62
5
10
-0.14142137
20
0.71971569
30
0
70
32
0
VERTEX
8
0
62
5
10
-0.14142137
20
0.72071569
30
0
70
32
0
SEQEND
8
0
0
POLYLINE
8
0
62
5
66
1
10
0
20
0
30
0
70
8
0
VERTEX
8
0
62
5
10
-0.07071069
20
0.71971569
30
0
70
32
0
VERTEX
8
0
62
5
10
-0.07071069
20
0.72071569
30
0
70
32
0
SEQEND
8
0
0
POLYLINE
8
0
62
5
66
1
10
0
20
0
30
0
70
8
0
VERTEX
8
0
62
5
10
-1.1676807e-08
20
0.72071569
30
0
70
32
0
VERTEX
8
0
62
5
10
-1.1676807e-08
20
0.86213718
30
0
70
32
0
SEQEND
8
0
0
POLYLINE
8
0
62
5
66
1
10
0
20
0
30
0
70
8
0
VERTEX
8
0
62
5
10
0.2828427
20
0.86213718
30
0
70
32
0
VERTEX
8
0
62
5
10
0.2828427
20
0.72071569
30
0
70
32
0
SEQEND
8
0
0
POLYLINE
8
0
62
5
66
1
10
0
20
0
30
0
70
8
0
VERTEX
8
0
62
5
10
-1.1676807e-08
20
0.75607106
30
0
70
32
0
VERTEX
8
0
62
5
10
0.070710666
20
0.75607099
30
0
70
32
0
VERTEX
8
0
62
5
10
0.14142134
20
0.72678167
30
0
70
32
0
VERTEX
8
0
62
5
10
0.21213202
20
0.72678174
30
0
70
32
0
VERTEX
8
0
62
5
10
0.2828427
20
0.75607106
30
0
70
32
0
SEQEND
8
0
0
POLYLINE
8
0
62
5
66
1
10
0
20
0
30
0
70
8
0
VERTEX
8
0
62
5
10
-1.1676807e-08
20
0.82678181
30
0
70
32
0
VERTEX
8
0
62
5
10
0.070710666
20
0.82678174
30
0
70
32
0
VERTEX
8
0
62
5
10
0.14142134
20
0.79749242
30
0
70
32
0
VERTEX
8
0
62
5
10
0.21213202
20
0.79749249
30
0
70
32
0
VERTEX
8
0
62
5
10
0.2828427
20
0.82678181
30
0
70
32
0
SEQEND
8
0
0
POLYLINE
8
0
62
5
66
1
10
0
20
0
30
0
70
8
0
VERTEX
8
0
62
5
10
-1.1676807e-08
20
0.75607106
30
0
70
32
0
VERTEX
8
0
62
5
10
0.070710666
20
0.75607113
30
0
70
32
0
VERTEX
8
0
62
5
10
0.14142134
20
0.78536045
30
0
70
32
0
VERTEX
8
0
62
5
10
0.21213202
20
0.78536038
30
0
70
32
0
VERTEX
8
0
62
5
10
0.2828427
20
0.75607106
30
0
70
32
0
SEQEND
8
0
0
POLYLINE
8
0
62
5
66
1
10
0
20
0
30
0
70
8
0
VERTEX
8
0
62
5
10
-1.1676807e-08
20
0.82678181
30
0
70
32
0
VERTEX
8
0
62
5
10
0.070710666
20
0.82678188
30
0
70
32
0
VERTEX
8
0
62
5
10
0.14142134
20
0.8560712
30
0
70
32
0
VERTEX
8
0
62
5
10
0.21213202
20
0.85607113
30
0
70
32
0
VERTEX
8
0
62
5
10
0.2828427
20
0.82678181
30
0
70
32
0
SEQEND
8
0
0
POLYLINE
8
0
62
30
66
1
10
0
20
0
30
0
70
8
0
VERTEX
8
0
62
30
10
-1.1676807e-08
20
0.75607106
30
0
70
32
0
VERTEX
8
0
62
30
10
0.2828427
20
0.75607106
30
0
70
32
0
SEQEND
8
0
0
POLYLINE
8
0
62
30
66
1
10
0
20
0
30
0
70
8
0
VERTEX
8
0
62
30
10
-1.1676807e-08
20
0.82678181
30
0
70
32
0
VERTEX
8
0
62
30
10
0.2828427
20
0.82678181
30
0
70
32
0
SEQEND
8
0
0
POLYLINE
8
0
62
30
66
1
10
0
20
0
30
0
70
8
0
VERTEX
8
0
62
30
10
0.070710666
20
0.75607099
30
0
70
32
0
VERTEX
8
0
62
30
10
0.070710666
20
0.75607106
30
0
70
32
0
SEQEND
8
0
0
POLYLINE
8
0
62
30
66
1
10
0
20
0
30
0
70
8
0
VERTEX
8
0
62
30
10
0.14142134
20
0.72678167
30
0
70
32
0
VERTEX
8
0
62
30
10
0.14142134
20
0.75607106
30
0
70
32
0
SEQEND
8
0
0
POLYLINE
8
0
62
30
66
1
10
0
20
0
30
0
70
8
0
VERTEX
8
0
62
30
10
0.21213202
20
0.72678174
30
0
70
32
0
VERTEX
8
0
62
30
10
0.21213202
20
0.75607106
30
0
70
32
0
SEQEND
8
0
0
POLYLINE
8
0
62
30
66
1
10
0
20
0
30
0
70
8
0
VERTEX
8
0
62
30
10
0.070710666
20
0.82678174
30
0
70
32
0
VERTEX
8
0
62
30
10
0.070710666
20
0.82678181
30
0
70
32
0
SEQEND
8
0
0
POLYLINE
8
0
62
30
66
1
10
0
20
0
30
0
70
8
0
VERTEX
8
0
62
30
10
0.14142134
20
0.79749242
30
0
70
32
0
VERTEX
8
0
62
30
10
0.14142134
20
0.82678181
30
0
70
32
0
SEQEND
8
0
0
POLYLINE
8
0
62
30
66
1
10
0
20
0
30
0
70
8
0
VERTEX
8
0
62
30
10
0.21213202
20
0.79749249
30
0
70
32
0
VERTEX
8
0
62
30
10
0.21213202
20
0.82678181
30
0
70
32
0
SEQEND
8
0
0
POLYLINE
8
0
62
5
66
1
10
0
20
0
30
0
70
8
0
VERTEX
8
0
62
5
10
0.070710666
20
0.72071569
30
0
70
32
0
VERTEX
8
0
62
5
10
0.070710666
20
0.75607099
30
0
70
32
0
SEQEND
8
0
0
POLYLINE
8
0
62
5
66
1
10
0
20
0
30
0
70
8
0
VERTEX
8
0
62
5
10
0.14142134
20
0.72071569
30
0
70
32
0
VERTEX
8
0
62
5
10
0.14142134
20
0.72678167
30
0
70
32
0
SEQEND
8
0
0
POLYLINE
8
0
62
5
66
1
10
0
20
0
30
0
70
8
0
VERTEX
8
0
62
5
10
0.21213202
20
0.72071569
30
0
70
32
0
VERTEX
8
0
62
5
10
0.21213202
20
0.72678174
30
0
70
32
0
SEQEND
8
0
0
POLYLINE
8
0
62
5
66
1
10
0
20
0
30
0
70
8
0
VERTEX
8
0
62
5
10
0.070710666
20
0.79142643
30
0
70
32
0
VERTEX
8
0
62
5
10
0.070710666
20
0.82678174
30
0
70
32
0
SEQEND
8
0
0
POLYLINE
8
0
62
5
66
1
10
0
20
0
30
0
70
8
0
VERTEX
8
0
62
5
10
0.14142134
20
0.79142643
30
0
70
32
0
VERTEX
8
0
62
5
10
0.14142134
20
0.79749242
30
0
70
32
0
SEQEND
8
0
0
POLYLINE
8
0
62
5
66
1
10
0
20
0
30
0
70
8
0
VERTEX
8
0
62
5
10
0.21213202
20
0.79142643
30
0
70
32
0
VERTEX
8
0
62
5
10
0.21213202
20
0.79749249
30
0
70
32
0
SEQEND
8
0
0
POLYLINE
8
0
62
5
66
1
10
0
20
0
30
0
70
8
0
VERTEX
8
0
62
5
10
0.070710666
20
0.75607106
30
0
70
32
0
VERTEX
8
0
62
5
10
0.070710666
20
0.79142643
30
0
70
32
0
SEQEND
8
0
0
POLYLINE
8
0
62
5
66
1
10
0
20
0
30
0
70
8
0
VERTEX
8
0
62
5
10
0.14142134
20
0.75607106
30
0
70
32
0
VERTEX
8
0
62
5
10
0.14142134
20
0.79142643
30
0
70
32
0
SEQEND
8
0
0
POLYLINE
8
0
62
5
66
1
10
0
20
0
30
0
70
8
0
VERTEX
8
0
62
5
10
0.21213202
20
0.75607106
30
0
70
32
0
VERTEX
8
0
62
5
10
0.21213202
20
0.79142643
30
0
70
32
0
SEQEND
8
0
0
POLYLINE
8
0
62
5
66
1
10
0
20
0
30
0
70
8
0
VERTEX
8
0
62
5
10
0.070710666
20
0.82678181
30
0
70
32
0
VERTEX
8
0
62
5
10
0.070710666
20
0.86213718
30
0
70
32
0
SEQEND
8
0
0
POLYLINE
8
0
62
5
66
1
10
0
20
0
30
0
70
8
0
VERTEX
8
0
62
5
10
0.14142134
20
0.82678181
30
0
70
32
0
VERTEX
8
0
62
5
10
0.14142134
20
0.86213718
30
0
70
32
0
SEQEND
8
0
0
POLYLINE
8
0
62
5
66
1
10
0
20
0
30
0
70
8
0
VERTEX
8
0
62
5
10
0.21213202
20
0.82678181
30
0
70
32
0
VERTEX
8
0
62
5
10
0.21213202
20
0.86213718
30
0
70
32
0
SEQEND
8
0
0
POLYLINE
8
0
62
30
66
1
10
0
20
0
30
0
70
8
0
VERTEX
8
0
62
30
10
-1.1676807e-08
20
0.75607106
30
0
70
32
0
VERTEX
8
0
62
30
10
-1.1676807e-08
20
0.75607106
30
0
70
32
0
VERTEX
8
0
62
30
10
-1.1676807e-08
20
0.75607106
30
0
70
32
0
SEQEND
8
0
0
POLYLINE
8
0
62
30
66
1
10
0
20
0
30
0
70
8
0
VERTEX
8
0
62
30
10
0.070710666
20
0.75607099
30
0
70
32
0
VERTEX
8
0
62
30
10
0.070710769
20
0.75607106
30
0
70
32
0
VERTEX
8
0
62
30
10
0.070710666
20
0.75607113
30
0
70
32
0
SEQEND
8
0
0
POLYLINE
8
0
62
30
66
1
10
0
20
0
30
0
70
8
0
VERTEX
8
0
62
30
10
0.14142134
20
0.72678167
30
0
70
32
0
VERTEX
8
0
62
30
10
0.16099188
20
0.75607106
30
0
70
32
0
VERTEX
8
0
62
30
10
0.14142134
20
0.78536045
30
0
70
32
0
SEQEND
8
0
0
POLYLINE
8
0
62
30
66
1
10
0
20
0
30
0
70
8
0
VERTEX
8
0
62
30
10
0.21213202
20
0.72678174
30
0
70
32
0
VERTEX
8
0
62
30
10
0.23170253
20
0.75607106
30
0
70
32
0
VERTEX
8
0
62
30
10
0.21213202
20
0.78536038
30
0
70
32
0
SEQEND
8
0
0
POLYLINE
8
0
62
30
66
1
10
0
20
0
30
0
70
8
0
VERTEX
8
0
62
30
10
-1.1676807e-08
20
0.82678181
30
0
70
32
0
VERTEX
8
0
62
30
10
-1.1676807e-08
20
0.82678181
30
0
70
32
0
VERTEX
8
0
62
30
10
-1.1676807e-08
20
0.82678181
30
0
70
32
0
SEQEND
8
0
0
POLYLINE
8
0
62
30
66
1
10
0
20
0
30
0
70
8
0
VERTEX
8
0
62
30
10
0.070710666
20
0.82678174
30
0
70
32
0
VERTEX
8
0
62
30
10
0.070710769
20
0.82678181
30
0
70
32
0
VERTEX
8
0
62
30
10
0.070710666
20
0.82678188
30
0
70
32
0
SEQEND
8
0
0
POLYLINE
8
0
62
30
66
1
10
0
20
0
30
0
70
8
0
VERTEX
8
0
62
30
10
0.14142134
20
0.79749242
30
0
70
32
0
VERTEX
8
0
62
30
10
0.16099188
20
0.82678181
30
0
70
32
0
VERTEX
8
0
62
30
10
0.14142134
20
0.8560712
30
0
70
32
0
SEQEND
8
0
0
POLYLINE
8
0
62
30
66
1
10
0
20
0
30
0
70
8
0
VERTEX
8
0
62
30
10
0.21213202
20
0.79749249
30
0
70
32
0
VERTEX
8
0
62
30
10
0.23170253
20
0.82678181
30
0
70
32
0
VERTEX
8
0
62
30
10
0.21213202
20
0.85607113
30
0
70
32
0
SEQEND
8
0
0
POLYLINE
8
0
62
5
66
1
10
0
20
0
30
0
70
8
0
VERTEX
8
0
62
5
10
0.56568541
20
0.86213718
30
0
70
32
0
VERTEX
8
0
62
5
10
0.56568541
20
0.72071569
30
0
70
32
0
SEQEND
8
0
0
POLYLINE
8
0
62
5
66
1
10
0
20
0
30
0
70
8
0
VERTEX
8
0
62
5
10
0.2828427
20
0.75607106
30
0
70
32
0
VERTEX
8
0
62
5
10
0.35355338
20
0.75607099
30
0
70
32
0
VERTEX
8
0
62
5
10
0.42426406
20
0.72678167
30
0
70
32
0
VERTEX
8
0
62
5
10
0.49497474
20
0.72678174
30
0
70
32
0
VERTEX
8
0
62
5
10
0.56568541
20
0.75607106
30
0
70
32
0
SEQEND
8
0
0
POLYLINE
8
0
62
5
66
1
10
0
20
0
30
0
70
8
0
VERTEX
8
0
62
5
10
0.2828427
20
0.82678181
30
0
70
32
0
VERTEX
8
0
62
5
10
0.35355338
20
0.82678174
30
0
70
32
0
VERTEX
8
0
62
5
10
0.42426406
20
0.79749242
30
0
70
32
0
VERTEX
8
0
62
5
10
0.49497474
20
0.79749249
30
0
70
32
0
VERTEX
8
0
62
5
10
0.56568541
20
0.82678181
30
0
70
32
0
SEQEND
8
0
0
POLYLINE
8
0
62
5
66
1
10
0
20
0
30
0
70
8
0
VERTEX
8
0
62
5
10
0.2828427
20
0.75607106
30
0
70
32
0
VERTEX
8
0
62
5
10
0.35355338
20
0.75607113
30
0
70
32
0
VERTEX
8
0
62
5
10
0.42426406
20
0.78536045
30
0
70
32
0
VERTEX
8
0
62
5
10
0.49497474
20
0.78536038
30
0
70
32
0
VERTEX
8
0
62
5
10
0.56568541
20
0.75607106
30
0
70
32
0
SEQEND
8
0
0
POLYLINE
8
0
62
5
66
1
10
0
20
0
30
0
70
8
0
VERTEX
8
0
62
5
10
0.2828427
20
0.82678181
30
0
70
32
0
VERTEX
8
0
62
5
10
0.35355338
20
0.82678188
30
0
70
32
0
VERTEX
8
0
62
5
10
0.42426406
20
0.8560712
30
0
70
32
0
VERTEX
8
0
62
5
10
0.49497474
20
0.85607113
30
0
70
32
0
VERTEX
8
0
62
5
10
0.56568541
20
0.82678181
30
0
70
32
0
SEQEND
8
0
0
POLYLINE
8
0
62
30
66
1
10
0
20
0
30
0
70
8
0
VERTEX
8
0
62
30
10
0.2828427
20
0.75607106
30
0
70
32
0
VERTEX
8
0
62
30
10
0.56568541
20
0.75607106
30
0
70
32
0
SEQEND
8
0
0
POLYLINE
8
0
62
30
66
1
10
0
20
0
30
0
70
8
0
VERTEX
8
0
62
30
10
0.2828427
20
0.82678181
30
0
70
32
0
VERTEX
8
0
62
30
10
0.56568541
20
0.82678181
30
0
70
32
0
SEQEND
8
0
0
POLYLINE
8
0
62
30
66
1
10
0
20
0
30
0
70
8
0
VERTEX
8
0
62
30
10
0.35355338
20
0.75607099
30
0
70
32
0
VERTEX
8
0
62
30
10
0.35355338
20
0.75607106
30
0
70
32
0
SEQEND
8
0
0
POLYLINE
8
0
62
30
66
1
10
0
20
0
30
0
70
8
0
VERTEX
8
0
62
30
10
0.42426406
20
0.72678167
30
0
70
32
0
VERTEX
8
0
62
30
10
0.42426406
20
0.75607106
30
0
70
32
0
SEQEND
8
0
0
POLYLINE
8
0
62
30
66
1
10
0
20
0
30
0
70
8
0
VERTEX
8
0
62
30
10
0.49497474
20
0.72678174
30
0
70
32
0
VERTEX
8
0
62
30
10
0.49497474
20
0.75607106
30
0
70
32
0
SEQEND
8
0
0
POLYLINE
8
0
62
30
66
1
10
0
20
0
30
0
70
8
0
VERTEX
8
0
62
30
10
0.35355338
20
0.82678174
30
0
70
32
0
VERTEX
8
0
62
30
10
0.35355338
20
0.82678181
30
0
70
32
0
SEQEND
8
0
0
POLYLINE
8
0
62
30
66
1
10
0
20
0
30
0
70
8
0
VERTEX
8
0
62
30
10
0.42426406
20
0.79749242
30
0
70
32
0
VERTEX
8
0
62
30
10
0.42426406
20
0.82678181
30
0
70
32
0
SEQEND
8
0
0
POLYLINE
8
0
62
30
66
1
10
0
20
0
30
0
70
8
0
VERTEX
8
0
62
30
10
0.49497474
20
0.79749249
30
0
70
32
0
VERTEX
8
0
62
30
10
0.49497474
20
0.82678181
30
0
70
32
0
SEQEND
8
0
0
POLYLINE
8
0
62
5
66
1
10
0
20
0
30
0
70
8
0
VERTEX
8
0
62
5
10
0.35355338
20
0.72071569
30
0
70
32
0
VERTEX
8
0
62
5
10
0.35355338
20
0.75607099
30
0
70
32
0
SEQEND
8
0
0
POLYLINE
8
0
62
5
66
1
10
0
20
0
30
0
70
8
0
VERTEX
8
0
62
5
10
0.42426406
20
0.72071569
30
0
70
32
0
VERTEX
8
0
62
5
10
0.42426406
20
0.72678167
30
0
70
32
0
SEQEND
8
0
0
POLYLINE
8
0
62
5
66
1
10
0
20
0
30
0
70
8
0
VERTEX
8
0
62
5
10
0.49497474
20
0.72071569
30
0
70
32
0
VERTEX
8
0
62
5
10
0.49497474
20
0.72678174
30
0
70
32
0
SEQEND
8
0
0
POLYLINE
8
0
62
5
66
1
10
0
20
0
30
0
70
8
0
VERTEX
8
0
62
5
10
0.35355338
20
0.79142643
30
0
70
32
0
VERTEX
8
0
62
5
10
0.35355338
20
0.82678174
30
0
70
32
0
SEQEND
8
0
0
POLYLINE
8
0
62
5
66
1
10
0
20
0
30
0
70
8
0
VERTEX
8
0
62
5
10
0.42426406
20
0.79142643
30
0
70
32
0
VERTEX
8
0
62
5
10
0.42426406
20
0.79749242
30
0
70
32
0
SEQEND
8
0
0
POLYLINE
8
0
62
5
66
1
10
0
20
0
30
0
70
8
0
VERTEX
8
0
62
5
10
0.49497474
20
0.79142643
30
0
70
32
0
VERTEX
8
0
62
5
10
0.49497474
20
0.79749249
30
0
70
32
0
SEQEND
8
0
0
POLYLINE
8
0
62
5
66
1
10
0
20
0
30
0
70
8
0
VERTEX
8
0
62
5
10
0.35355338
20
0.75607106
30
0
70
32
0
VERTEX
8
0
62
5
10
0.35355338
20
0.79142643
30
0
70
32
0
SEQEND
8
0
0
POLYLINE
8
0
62
5
66
1
10
0
20
0
30
0
70
8
0
VERTEX
8
0
62
5
10
0.42426406
20
0.75607106
30
0
70
32
0
VERTEX
8
0
62
5
10
0.42426406
20
0.79142643
30
0
70
32
0
SEQEND
8
0
0
POLYLINE
8
0
62
5
66
1
10
0
20
0
30
0
70
8
0
VERTEX
8
0
62
5
10
0.49497474
20
0.75607106
30
0
70
32
0
VERTEX
8
0
62
5
10
0.49497474
20
0.79142643
30
0
70
32
0
SEQEND
8
0
0
POLYLINE
8
0
62
5
66
1
10
0
20
0
30
0
70
8
0
VERTEX
8
0
62
5
10
0.35355338
20
0.82678181
30
0
70
32
0
VERTEX
8
0
62
5
10
0.35355338
20
0.86213718
30
0
70
32
0
SEQEND
8
0
0
POLYLINE
8
0
62
5
66
1
10
0
20
0
30
0
70
8
0
VERTEX
8
0
62
5
10
0.42426406
20
0.82678181
30
0
70
32
0
VERTEX
8
0
62
5
10
0.42426406
20
0.86213718
30
0
70
32
0
SEQEND
8
0
0
POLYLINE
8
0
62
5
66
1
10
0
20
0
30
0
70
8
0
VERTEX
8
0
62
5
10
0.49497474
20
0.82678181
30
0
70
32
0
VERTEX
8
0
62
5
10
0.49497474
20
0.86213718
30
0
70
32
0
SEQEND
8
0
0
POLYLINE
8
0
62
30
66
1
10
0
20
0
30
0
70
8
0
VERTEX
8
0
62
30
10
0.2828427
20
0.75607106
30
0
70
32
0
VERTEX
8
0
62
30
10
0.2828427
20
0.75607106
30
0
70
32
0
VERTEX
8
0
62
30
10
0.2828427
20
0.75607106
30
0
70
32
0
SEQEND
8
0
0
POLYLINE
8
0
62
30
66
1
10
0
20
0
30
0
70
8
0
VERTEX
8
0
62
30
10
0.35355338
20
0.75607099
30
0
70
32
0
VERTEX
8
0
62
30
10
0.35355348
20
0.75607106
30
0
70
32
0
VERTEX
8
0
62
30
10
0.35355338
20
0.75607113
30
0
70
32
0
SEQEND
8
0
0
POLYLINE
8
0
62
30
66
1
10
0
20
0
30
0
70
8
0
VERTEX
8
0
62
30
10
0.42426406
20
0.72678167
30
0
70
32
0
VERTEX
8
0
62
30
10
0.44383459
20
0.75607106
30
0
70
32
0
VERTEX
8
0
62
30
10
0.42426406
20
0.78536045
30
0
70
32
0
SEQEND
8
0
0
POLYLINE
8
0
62
30
66
1
10
0
20
0
30
0
70
8
0
VERTEX
8
0
62
30
10
0.49497474
20
0.72678174
30
0
70
32
0
VERTEX
8
0
62
30
10
0.51454525
20
0.75607106
30
0
70
32
0
VERTEX
8
0
62
30
10
0.49497474
20
0.78536038
30
0
70
32
0
SEQEND
8
0
0
POLYLINE
8
0
62
30
66
1
10
0
20
0
30
0
70
8
0
VERTEX
8
0
62
30
10
0.2828427
20
0.82678181
30
0
70
32
0
VERTEX
8
0
62
30
10
0.2828427
20
0.82678181
30
0
70
32
0
VERTEX
8
0
62
30
10
0.2828427
20
0.82678181
30
0
70
32
0
SEQEND
8
0
0
POLYLINE
8
0
62
30
66
1
10
0
20
0
30
0
70
8
0
VERTEX
8
0
62
30
10
0.35355338
20
0.82678174
30
0
70
32
0
VERTEX
8
0
62
30
10
0.35355348
20
0.82678181
30
0
70
32
0
VERTEX
8
0
62
30
10
0.35355338
20
0.82678188
30
0
70
32
0
SEQEND
8
0
0
POLYLINE
8
0
62
30
66
1
10
0
20
0
30
0
70
8
0
VERTEX
8
0
62
30
10
0.42426406
20
0.79749242
30
0
70
32
0
VERTEX
8
0
62
30
10
0.44383459
20
0.82678181
30
0
70
32
0
VERTEX
8
0
62
30
10
0.42426406
20
0.8560712
30
0
70
32
0
SEQEND
8
0
0
POLYLINE
8
0
62
30
66
1
10
0
20
0
30
0
70
8
0
VERTEX
8
0
62
30
10
0.49497474
20
0.79749249
30
0
70
32
0
VERTEX
8
0
62
30
10
0.51454525
20
0.82678181
30
0
70
32
0
VERTEX
8
0
62
30
10
0.49497474
20
0.85607113
30
0
70
32
0
SEQEND
8
0
0
POLYLINE
8
0
62
5
66
1
10
0
20
0
30
0
70
8
0
VERTEX
8
0
62
5
10
-0.28284272
20
0.72071569
30
0
70
32
0
VERTEX
8
0
62
5
10
-0.28284272
20
0.86213718
30
0
70
32
0
SEQEND
8
0
0
POLYLINE
8
0
62
5
66
1
10
0
20
0
30
0
70
8
0
VERTEX
8
0
62
5
10
-0.28284272
20
0.75607106
30
0
70
32
0
VERTEX
8
0
62
5
10
-0.21213205
20
0.75607099
30
0
70
32
0
VERTEX
8
0
62
5
10
-0.14142137
20
0.72678167
30
0
70
32
0
VERTEX
8
0
62
5
10
-0.07071069
20
0.72678174
30
0
70
32
0
VERTEX
8
0
62
5
10
-1.1676807e-08
20
0.75607106
30
0
70
32
0
SEQEND
8
0
0
POLYLINE
8
0
62
5
66
1
10
0
20
0
30
0
70
8
0
VERTEX
8
0
62
5
10
-0.28284272
20
0.82678181
30
0
70
32
0
VERTEX
8
0
62
5
10
-0.21213205
20
0.82678174
30
0
70
32
0
VERTEX
8
0
62
5
10
-0.14142137
20
0.79749242
30
0
70
32
0
VERTEX
8
0
62
5
10
-0.07071069
20
0.79749249
30
0
70
32
0
VERTEX
8
0
62
5
10
-1.1676807e-08
20
0.82678181
30
0
70
32
0
SEQEND
8
0
0
POLYLINE
8
0
62
5
66
1
10
0
20
0
30
0
70
8
0
VERTEX
8
0
62
5
10
-0.28284272
20
0.75607106
30
0
70
32
0
VERTEX
8
0
62
5
10
-0.21213205
20
0.75607113
30
0
70
32
0
VERTEX
8
0
62
5
10
-0.14142137
20
0.78536045
30
0
70
32
0
VERTEX
8
0
62
5
10
-0.07071069
20
0.78536038
30
0
70
32
0
VERTEX
8
0
62
5
10
-1.1676807e-08
20
0.75607106
30
0
70
32
0
SEQEND
8
0
0
POLYLINE
8
0
62
5
66
1
10
0
20
0
30
0
70
8
0
VERTEX
8
0
62
5
10
-0.28284272
20
0.82678181
30
0
70
32
0
VERTEX
8
0
62
5
10
-0.21213205
20
0.82678188
30
0
70
32
0
VERTEX
8
0
62
5
10
-0.14142137
20
0.8560712
30
0
70
32
0
VERTEX
8
0
62
5
10
-0.07071069
20
0.85607113
30
0
70
32
0
VERTEX
8
0
62
5
10
-1.1676807e-08
20
0.82678181
30
0
70
32
0
SEQEND
8
0
0
POLYLINE
8
0
62
30
66
1
10
0
20
0
30
0
70
8
0
VERTEX
8
0
62
30
10
-0.28284272
20
0.75607106
30
0
70
32
0
VERTEX
8
0
62
30
10
-1.1676807e-08
20
0.75607106
30
0
70
32
0
SEQEND
8
0
0
POLYLINE
8
0
62
30
66
1
10
0
20
0
30
0
70
8
0
VERTEX
8
0
62
30
10
-0.28284272
20
0.82678181
30
0
70
32
0
VERTEX
8
0
62
30
10
-1.1676807e-08
20
0.82678181
30
0
70
32
0
SEQEND
8
0
0
POLYLINE
8
0
62
30
66
1
10
0
20
0
30
0
70
8
0
VERTEX
8
0
62
30
10
-0.21213205
20
0.75607099
30
0
70
32
0
VERTEX
8
0
62
30
10
-0.21213205
20
0.75607106
30
0
70
32
0
SEQEND
8
0
0
POLYLINE
8
0
62
30
66
1
10
0
20
0
30
0
70
8
0
VERTEX
8
0
62
30
10
-0.14142137
20
0.72678167
30
0
70
32
0
VERTEX
8
0
62
30
10
-0.14142137
20
0.75607106
30
0
70
32
0
SEQEND
8
0
0
POLYLINE
8
0
62
30
66
1
10
0
20
0
30
0
70
8
0
VERTEX
8
0
62
30
10
-0.07071069
20
0.72678174
30
0
70
32
0
VERTEX
8
0
62
30
10
-0.07071069
20
0.75607106
30
0
70
32
0
SEQEND
8
0
0
POLYLINE
8
0
62
30
66
1
10
0
20
0
30
0
70
8
0
VERTEX
8
0
62
30
10
-0.21213205
20
0.82678174
30
0
70
32
0
VERTEX
8
0
62
30
10
-0.21213205
20
0.82678181
30
0
70
32
0
SEQEND
8
0
0
POLYLINE
8
0
62
30
66
1
10
0
20
0
30
0
70
8
0
VERTEX
8
0
62
30
10
-0.14142137
20
0.79749242
30
0
70
32
0
VERTEX
8
0
62
30
10
-0.14142137
20
0.82678181
30
0
70
32
0
SEQEND
8
0
0
POLYLINE
8
0
62
30
66
1
10
0
20
0
30
0
70
8
0
VERTEX
8
0
62
30
10
-0.07071069
20
0.79749249
30
0
70
32
0
VERTEX
8
0
62
30
10
-0.07071069
20
0.82678181
30
0
70
32
0
SEQEND
8
0
0
POLYLINE
8
0
62
5
66
1
10
0
20
0
30
0
70
8
0
VERTEX
8
0
62
5
10
-0.21213205
20
0.72071569
30
0
70
32
0
VERTEX
8
0
62
5
10
-0.21213205
20
0.75607099
30
0
70
32
0
SEQEND
8
0
0
POLYLINE
8
0
62
5
66
1
10
0
20
0
30
0
70
8
0
VERTEX
8
0
62
5
10
-0.14142137
20
0.72071569
30
0
70
32
0
VERTEX
8
0
62
5
10
-0.14142137
20
0.72678167
30
0
70
32
0
SEQEND
8
0
0
POLYLINE
8
0
62
5
66
1
10
0
20
0
30
0
70
8
0
VERTEX
8
0
62
5
10
-0.07071069
20
0.72071569
30
0
70
32
0
VERTEX
8
0
62
5
10
-0.07071069
20
0.72678174
30
0
70
32
0
SEQEND
8
0
0
POLYLINE
8
0
62
5
66
1
10
0
20
0
30
0
70
8
0
VERTEX
8
0
62
5
10
-0.21213205
20
0.79142643
30
0
70
32
0
VERTEX
8
0
62
5
10
-0.21213205
20
0.82678174
30
0
70
32
0
SEQEND
8
0
0
POLYLINE
8
0
62
5
66
1
10
0
20
0
30
0
70
8
0
VERTEX
8
0
62
5
10
-0.14142137
20
0.79142643
30
0
70
32
0
VERTEX
8
0
62
5
10
-0.14142137
20
0.79749242
30
0
70
32
0
SEQEND
8
0
0
POLYLINE
8
0
62
5
66
1
10
0
20
0
30
0
70
8
0
VERTEX
8
0
62
5
10
-0.07071069
20
0.79142643
30
0
70
32
0
VERTEX
8
0
62
5
10
-0.07071069
20
0.79749249
30
0
70
32
0
SEQEND
8
0
0
POLYLINE
8
0
62
5
66
1
10
0
20
0
30
0
70
8
0
VERTEX
8
0
62
5
10
-0.21213205
20
0.75607106
30
0
70
32
0
VERTEX
8
0
62
5
10
-0.21213205
20
0.79142643
30
0
70
32
0
SEQEND
8
0
0
POLYLINE
8
0
62
5
66
1
10
0
20
0
30
0
70
8
0
VERTEX
8
0
62
5
10
-0.14142137
20
0.75607106
30
0
70
32
0
VERTEX
8
0
62
5
10
-0.14142137
20
0.79142643
30
0
70
32
0
SEQEND
8
0
0
POLYLINE
8
0
62
5
66
1
10
0
20
0
30
0
70
8
0
VERTEX
8
0
62
5
10
-0.07071069
20
0.75607106
30
0
70
32
0
VERTEX
8
0
62
5
10
-0.07071069
20
0.79142643
30
0
70
32
0
SEQEND
8
0
0
POLYLINE
8
0
62
5
66
1
10
0
20
0
30
0
70
8
0
VERTEX
8
0
62
5
10
-0.21213205
20
0.82678181
30
0
70
32
0
VERTEX
8
0
62
5
10
-0.21213205
20
0.86213718
30
0
70
32
0
SEQEND
8
0
0
POLYLINE
8
0
62
5
66
1
10
0
20
0
30
0
70
8
0
VERTEX
8
0
62
5
10
-0.14142137
20
0.82678181
30
0
70
32
0
VERTEX
8
0
62
5
10
-0.14142137
20
0.86213718
30
0
70
32
0
SEQEND
8
0
0
POLYLINE
8
0
62
5
66
1
10
0
20
0
30
0
70
8
0
VERTEX
8
0
62
5
10
-0.07071069
20
0.82678181
30
0
70
32
0
VERTEX
8
0
62
5
10
-0.07071069
20
0.86213718
30
0
70
32
0
SEQEND
8
0
0
POLYLINE
8
0
62
30
66
1
10
0
20
0
30
0
70
8
0
VERTEX
8
0
62
30
10
-0.28284272
20
0.75607106
30
0
70
32
0
VERTEX
8
0
62
30
10
-0.28284272
20
0.75607106
30
0
70
32
0
VERTEX
8
0
62
30
10
-0.28284272
20
0.75607106
30
0
70
32
0
SEQEND
8
0
0
POLYLINE
8
0
62
30
66
1
10
0
20
0
30
0
70
8
0
VERTEX
8
0
62
30
10
-0.21213205
20
0.75607099
30
0
70
32
0
VERTEX
8
0
62
30
10
-0.21213194
20
0.75607106
30
0
70
32
0
VERTEX
8
0
62
30
10
-0.21213205
20
0.75607113
30
0
70
32
0
SEQEND
8
0
0
POLYLINE
8
0
62
30
66
1
10
0
20
0
30
0
70
8
0
VERTEX
8
0
62
30
10
-0.14142137
20
0.72678167
30
0
70
32
0
VERTEX
8
0
62
30
10
-0.12185083
20
0.75607106
30
0
70
32
0
VERTEX
8
0
62
30
10
-0.14142137
20
0.78536045
30
0
70
32
0
SEQEND
8
0
0
POLYLINE
8
0
62
30
66
1
10
0
20
0
30
0
70
8
0
VERTEX
8
0
62
30
10
-0.07071069
20
0.72678174
30
0
70
32
0
VERTEX
8
0
62
30
10
-0.051140179
20
0.75607106
30
0
70
32
0
VERTEX
8
0
62
30
10
-0.07071069
20
0.78536038
30
0
70
32
0
SEQEND
8
0
0
POLYLINE
8
0
62
30
66
1
10
0
20
0
30
0
70
8
0
VERTEX
8
0
62
30
10
-0.28284272
20
0.82678181
30
0
70
32
0
VERTEX
8
0
62
30
10
-0.28284272
20
0.82678181
30
0
70
32
0
VERTEX
8
0
62
30
10
-0.28284272
20
0.82678181
30
0
70
32
0
SEQEND
8
0
0
POLYLINE
8
0
62
30
66
1
10
0
20
0
30
0
70
8
0
VERTEX
8
0
62
30
10
-0.21213205
20
0.82678174
30
0
70
32
0
VERTEX
8
0
62
30
10
-0.21213194
20
0.82678181
30
0
70
32
0
VERTEX
8
0
62
30
10
-0.21213205
20
0.82678188
30
0
70
32
0
SEQEND
8
0
0
POLYLINE
8
0
62
30
66
1
10
0
20
0
30
0
70
8
0
VERTEX
8
0
62
30
10
-0.14142137
20
0.79749242
30
0
70
32
0
VERTEX
8
0
62
30
10
-0.12185083
20
0.82678181
30
0
70
32
0
VERTEX
8
0
62
30
10
-0.14142137
20
0.8560712
30
0
70
32
0
SEQEND
8
0
0
POLYLINE
8
0
62
30
66
1
10
0
20
0
30
0
70
8
0
VERTEX
8
0
62
30
10
-0.07071069
20
0.79749249
30
0
70
32
0
VERTEX
8
0
62
30
10
-0.051140179
20
0.82678181
30
0
70
32
0
VERTEX
8
0
62
30
10
-0.07071069
20
0.85607113
30
0
70
32
0
SEQEND
8
0
0
POLYLINE
8
0
62
5
66
1
10
0
20
0
30
0
70
8
0
VERTEX
8
0
62
5
10
-1.1676807e-08
20
0.86213718
30
0
70
32
0
VERTEX
8
0
62
5
10
-1.1676807e-08
20
0.86213737
30
0
70
32
0
SEQEND
8
0
0
POLYLINE
8
0
62
5
66
1
10
0
20
0
30
0
70
8
0
VERTEX
8
0
62
5
10
0.070710666
20
0.86213718
30
0
70
32
0
VERTEX
8
0
62
5
10
0.070710666
20
0.86213737
30
0
70
32
0
SEQEND
8
0
0
POLYLINE
8
0
62
5
66
1
10
0
20
0
30
0
70
8
0
VERTEX
8
0
62
5
10
0.14142134
20
0.86213718
30
0
70
32
0
VERTEX
8
0
62
5
10
0.14142134
20
0.86213737
30
0
70
32
0
SEQEND
8
0
0
POLYLINE
8
0
62
5
66
1
10
0
20
0
30
0
70
8
0
VERTEX
8
0
62
5
10
0.21213202
20
0.86213718
30
0
70
32
0
VERTEX
8
0
62
5
10
0.21213202
20
0.86213737
30
0
70
32
0
SEQEND
8
0
0
POLYLINE
8
0
62
5
66
1
10
0
20
0
30
0
70
8
0
VERTEX
8
0
62
5
10
0.2828427
20
0.86213718
30
0
70
32
0
VERTEX
8
0
62
5
10
0.2828427
20
0.86213737
30
0
70
32
0
SEQEND
8
0
0
POLYLINE
8
0
62
5
66
1
10
0
20
0
30
0
70
8
0
VERTEX
8
0
62
5
10
0.070710666
20
0.86213718
30
0
70
32
0
VERTEX
8
0
62
5
10
0.070710666
20
0.86213718
30
0
70
32
0
SEQEND
8
0
0
POLYLINE
8
0
62
5
66
1
10
0
20
0
30
0
70
8
0
VERTEX
8
0
62
5
10
0.14142134
20
0.86213718
30
0
70
32
0
VERTEX
8
0
62
5
10
0.14142134
20
0.86213718
30
0
70
32
0
SEQEND
8
0
0
POLYLINE
8
0
62
5
66
1
10
0
20
0
30
0
70
8
0
VERTEX
8
0
62
5
10
0.21213202
20
0.86213718
30
0
70
32
0
VERTEX
8
0
62
5
10
0.21213202
20
0.86213718
30
0
70
32
0
SEQEND
8
0
0
POLYLINE
8
0
62
5
66
1
10
0
20
0
30
0
70
8
0
VERTEX
8
0
62
5
10
0.070710501
20
0.86213737
30
0
70
32
0
VERTEX
8
0
62
5
10
0.070710501
20
0.86213737
30
0
70
32
0
SEQEND
8
0
0
POLYLINE
8
0
62
5
66
1
10
0
20
0
30
0
70
8
0
VERTEX
8
0
62
5
10
0.14142118
20
0.86213737
30
0
70
32
0
VERTEX
8
0
62
5
10
0.14142118
20
0.86213737
30
0
70
32
0
SEQEND
8
0
0
POLYLINE
8
0
62
5
66
1
10
0
20
0
30
0
70
8
0
VERTEX
8
0
62
5
10
0.21213186
20
0.86213737
30
0
70
32
0
VERTEX
8
0
62
5
10
0.21213186
20
0.86213737
30
0
70
32
0
SEQEND
8
0
0
POLYLINE
8
0
62
5
66
1
10
0
20
0
30
0
70
8
0
VERTEX
8
0
62
5
10
0.28284254
20
0.86213737
30
0
70
32
0
VERTEX
8
0
62
5
10
0.28284254
20
0.86213737
30
0
70
32
0
SEQEND
8
0
0
POLYLINE
8
0
62
5
66
1
10
0
20
0
30
0
70
8
0
VERTEX
8
0
62
5
10
0.35355338
20
0.86213718
30
0
70
32
0
VERTEX
8
0
62
5
10
0.35355338
20
0.86213737
30
0
70
32
0
SEQEND
8
0
0
POLYLINE
8
0
62
5
66
1
10
0
20
0
30
0
70
8
0
VERTEX
8
0
62
5
10
0.42426406
20
0.86213718
30
0
70
32
0
VERTEX
8
0
62
5
10
0.42426406
20
0.86213737
30
0
70
32
0
SEQEND
8
0
0
POLYLINE
8
0
62
5
66
1
10
0
20
0
30
0
70
8
0
VERTEX
8
0
62
5
10
0.49497474
20
0.86213718
30
0
70
32
0
VERTEX
8
0
62
5
10
0.49497474
20
0.86213737
30
0
70
32
0
SEQEND
8
0
0
POLYLINE
8
0
62
5
66
1
10
0
20
0
30
0
70
8
0
VERTEX
8
0
62
5
10
0.56568541
20
0.86213718
30
0
70
32
0
VERTEX
8
0
62
5
10
0.56568541
20
0.86213737
30
0
70
32
0
SEQEND
8
0
0
POLYLINE
8
0
62
5
66
1
10
0
20
0
30
0
70
8
0
VERTEX
8
0
62
5
10
0.35355338
20
0.86213718
30
0
70
32
0
VERTEX
8
0
62
5
10
0.35355338
20
0.86213718
30
0
70
32
0
SEQEND
8
0
0
POLYLINE
8
0
62
5
66
1
10
0
20
0
30
0
70
8
0
VERTEX
8
0
62
5
10
0.42426406
20
0.86213718
30
0
70
32
0
VERTEX
8
0
62
5
10
0.42426406
20
0.86213718
30
0
70
32
0
SEQEND
8
0
0
POLYLINE
8
0
62
5
66
1
10
0
20
0
30
0
70
8
0
VERTEX
8
0
62
5
10
0.49497474
20
0.86213718
30
0
70
32
0
VERTEX
8
0
62
5
10
0.49497474
20
0.86213718
30
0
70
32
0
SEQEND
8
0
0
POLYLINE
8
0
62
5
66
1
10
0
20
0
30
0
70
8
0
VERTEX
8
0
62
5
10
0.35355321
20
0.86213737
30
0
70
32
0
VERTEX
8
0
62
5
10
0.35355321
20
0.86213737
30
0
70
32
0
SEQEND
8
0
0
POLYLINE
8
0
62
5
66
1
10
0
20
0
30
0
70
8
0
VERTEX
8
0
62
5
10
0.42426389
20
0.86213737
30
0
70
32
0
VERTEX
8
0
62
5
10
0.42426389
20
0.86213737
30
0
70
32
0
SEQEND
8
0
0
POLYLINE
8
0
62
5
66
1
10
0
20
0
30
0
70
8
0
VERTEX
8
0
62
5
10
0.49497457
20
0.86213737
30
0
70
32
0
VERTEX
8
0
62
5
10
0.49497457
20
0.86213737
30
0
70
32
0
SEQEND
8
0
0
POLYLINE
8
0
62
5
66
1
10
0
20
0
30
0
70
8
0
VERTEX
8
0
62
5
10
0.56568525
20
0.86213737
30
0
70
32
0
VERTEX
8
0
62
5
10
0.56568525
20
0.86213737
30
0
70
32
0
SEQEND
8
0
0
POLYLINE
8
0
62
5
66
1
10
0
20
0
30
0
70
8
0
VERTEX
8
0
62
5
10
-0.21213205
20
0.86213718
30
0
70
32
0
VERTEX
8
0
62
5
10
-0.21213205
20
0.86213737
30
0
70
32
0
SEQEND
8
0
0
POLYLINE
8
0
62
5
66
1
10
0
20
0
30
0
70
8
0
VERTEX
8
0
62
5
10
-0.14142137
20
0.86213718
30
0
70
32
0
VERTEX
8
0
62
5
10
-0.14142137
20
0.86213737
30
0
70
32
0
SEQEND
8
0
0
POLYLINE
8
0
62
5
66
1
10
0
20
0
30
0
70
8
0
VERTEX
8
0
62
5
10
-0.07071069
20
0.86213718
30
0
70
32
0
VERTEX
8
0
62
5
10
-0.07071069
20
0.86213737
30
0
70
32
0
SEQEND
8
0
0
POLYLINE
8
0
62
5
66
1
10
0
20
0
30
0
70
8
0
VERTEX
8
0
62
5
10
-1.1676807e-08
20
0.86213718
30
0
70
32
0
VERTEX
8
0
62
5
10
-1.1676807e-08
20
0.86213737
30
0
70
32
0
SEQEND
8
0
0
POLYLINE
8
0
62
5
66
1
10
0
20
0
30
0
70
8
0
VERTEX
8
0
62
5
10
-0.21213205
20
0.86213718
30
0
70
32
0
VERTEX
8
0
62
5
10
-0.21213205
20
0.86213718
30
0
70
32
0
SEQEND
8
0
0
POLYLINE
8
0
62
5
66
1
10
0
20
0
30
0
70
8
0
VERTEX
8
0
62
5
10
-0.14142137
20
0.86213718
30
0
70
32
0
VERTEX
8
0
62
5
10
-0.14142137
20
0.86213718
30
0
70
32
0
SEQEND
8
0
0
POLYLINE
8
0
62
5
66
1
10
0
20
0
30
0
70
8
0
VERTEX
8
0
62
5
10
-0.07071069
20
0.86213718
30
0
70
32
0
VERTEX
8
0
62
5
10
-0.07071069
20
0.86213718
30
0
70
32
0
SEQEND
8
0
0
POLYLINE
8
0
62
5
66
1
10
0
20
0
30
0
70
8
0
VERTEX
8
0
62
5
10
-0.21213221
20
0.86213737
30
0
70
32
0
VERTEX
8
0
62
5
10
-0.21213221
20
0.86213737
30
0
70
32
0
SEQEND
8
0
0
POLYLINE
8
0
62
5
66
1
10
0
20
0
30
0
70
8
0
VERTEX
8
0
62
5
10
-0.14142153
20
0.86213737
30
0
70
32
0
VERTEX
8
0
62
5
10
-0.14142153
20
0.86213737
30
0
70
32
0
SEQEND
8
0
0
POLYLINE
8
0
62
5
66
1
10
0
20
0
30
0
70
8
0
VERTEX
8
0
62
5
10
-0.070710855
20
0.86213737
30
0
70
32
0
VERTEX
8
0
62
5
10
-0.070710855
20
0.86213737
30
0
70
32
0
SEQEND
8
0
0
POLYLINE
8
0
62
5
66
1
10
0
20
0
30
0
70
8
0
VERTEX
8
0
62
5
10
-1.7719901e-07
20
0.86213737
30
0
70
32
0
VERTEX
8
0
62
5
10
-1.7719901e-07
20
0.86213737
30
0
70
32
0
SEQEND
8
0
0
POLYLINE
8
0
62
5
66
1
10
0
20
0
30
0
70
8
0
VERTEX
8
0
62
5
10
-1.7719901e-07
20
0.86213737
30
0
70
32
0
VERTEX
8
0
62
5
10
-1.7719901e-07
20
0.86213772
30
0
70
32
0
SEQEND
8
0
0
POLYLINE
8
0
62
5
66
1
10
0
20
0
30
0
70
8
0
VERTEX
8
0
62
5
10
0.28284254
20
0.86213737
30
0
70
32
0
VERTEX
8
0
62
5
10
0.28284254
20
0.86213772
30
0
70
32
0
SEQEND
8
0
0
POLYLINE
8
0
62
5
66
1
10
0
20
0
30
0
70
8
0
VERTEX
8
0
62
5
10
0.070710501
20
0.86213737
30
0
70
32
0
VERTEX
8
0
62
5
10
0.070710501
20
0.86213772
30
0
70
32
0
SEQEND
8
0
0
POLYLINE
8
0
62
5
66
1
10
0
20
0
30
0
70
8
0
VERTEX
8
0
62
5
10
0.14142118
20
0.86213737
30
0
70
32
0
VERTEX
8
0
62
5
10
0.14142118
20
0.86213772
30
0
70
32
0
SEQEND
8
0
0
POLYLINE
8
0
62
5
66
1
10
0
20
0
30
0
70
8
0
VERTEX
8
0
62
5
10
0.21213186
20
0.86213737
30
0
70
32
0
VERTEX
8
0
62
5
10
0.21213186
20
0.86213772
30
0
70
32
0
SEQEND
8
0
0
POLYLINE
8
0
62
5
66
1
10
0
20
0
30
0
70
8
0
VERTEX
8
0
62
5
10
0.56568525
20
0.86213737
30
0
70
32
0
VERTEX
8
0
62
5
10
0.56568525
20
0.86213772
30
0
70
32
0
SEQEND
8
0
0
POLYLINE
8
0
62
5
66
1
10
0
20
0
30
0
70
8
0
VERTEX
8
0
62
5
10
0.35355321
20
0.86213737
30
0
70
32
0
VERTEX
8
0
62
5
10
0.35355321
20
0.86213772
30
0
70
32
0
SEQEND
8
0
0
POLYLINE
8
0
62
5
66
1
10
0
20
0
30
0
70
8
0
VERTEX
8
0
62
5
10
0.42426389
20
0.86213737
30
0
70
32
0
VERTEX
8
0
62
5
10
0.42426389
20
0.86213772
30
0
70
32
0
SEQEND
8
0
0
POLYLINE
8
0
62
5
66
1
10
0
20
0
30
0
70
8
0
VERTEX
8
0
62
5
10
0.49497457
20
0.86213737
30
0
70
32
0
VERTEX
8
0
62
5
10
0.49497457
20
0.86213772
30
0
70
32
0
SEQEND
8
0
0
POLYLINE
8
0
62
5
66
1
10
0
20
0
30
0
70
8
0
VERTEX
8
0
62
5
10
-0.28284289
20
0.86213737
30
0
70
32
0
VERTEX
8
0
62
5
10
-0.28284289
20
0.86213772
30
0
70
32
0
SEQEND
8
0
0
POLYLINE
8
0
62
5
66
1
10
0
20
0
30
0
70
8
0
VERTEX
8
0
62
5
10
-0.21213221
20
0.86213737
30
0
70
32
0
VERTEX
8
0
62
5
10
-0.21213221
20
0.86213772
30
0
70
32
0
SEQEND
8
0
0
POLYLINE
8
0
62
5
66
1
10
0
20
0
30
0
70
8
0
VERTEX
8
0
62
5
10
-0.14142153
20
0.86213737
30
0
70
32
0
VERTEX
8
0
62
5
10
-0.14142153
20
0.86213772
30
0
70
32
0
SEQEND
8
0
0
POLYLINE
8
0
62
5
66
1
10
0
20
0
30
0
70
8
0
VERTEX
8
0
62
5
10
-0.070710855
20
0.86213737
30
0
70
32
0
VERTEX
8
0
62
5
10
-0.070710855
20
0.86213772
30
0
70
32
0
SEQEND
8
0
0
POLYLINE
8
0
62
5
66
1
10
0
20
0
30
0
70
8
0
VERTEX
8
0
62
5
10
-1.7719901e-07
20
0.86213772
30
0
70
32
0
VERTEX
8
0
62
5
10
-1.7719901e-07
20
1.0328486
30
0
70
32
0
SEQEND
8
0
0
POLYLINE
8
0
62
5
66
1
10
0
20
0
30
0
70
8
0
VERTEX
8
0
62
5
10
0.28284254
20
1.0328486
30
0
70
32
0
VERTEX
8
0
62
5
10
0.28284254
20
0.86213772
30
0
70
32
0
SEQEND
8
0
0
POLYLINE
8
0
62
5
66
1
10
0
20
0
30
0
70
8
0
VERTEX
8
0
62
5
10
-1.7719901e-07
20
0.94749297
30
0
70
32
0
VERTEX
8
0
62
5
10
0.070710501
20
0.94749314
30
0
70
32
0
VERTEX
8
0
62
5
10
0.14142118
20
0.87678246
30
0
70
32
0
VERTEX
8
0
62
5
10
0.21213186
20
0.8767823
30
0
70
32
0
VERTEX
8
0
62
5
10
0.28284254
20
0.94749297
30
0
70
32
0
SEQEND
8
0
0
POLYLINE
8
0
62
5
66
1
10
0
20
0
30
0
70
8
0
SEQEND
8
0
0
POLYLINE
8
0
62
5
66
1
10
0
20
0
30
0
70
8
0
VERTEX
8
0
62
5
10
-1.7719901e-07
20
0.9474933
30
0
70
32
0
VERTEX
8
0
62
5
10
0.070710501
20
0.94749314
30
0
70
32
0
VERTEX
8
0
62
5
10
0.14142118
20
1.0182038
30
0
70
32
0
VERTEX
8
0
62
5
10
0.21213186
20
1.018204
30
0
70
32
0
VERTEX
8
0
62
5
10
0.28284254
20
0.9474933
30
0
70
32
0
SEQEND
8
0
0
POLYLINE
8
0
62
30
66
1
10
0
20
0
30
0
70
8
0
VERTEX
8
0
62
30
10
-1.7719901e-07
20
0.94749314
30
0
70
32
0
VERTEX
8
0
62
30
10
0.28284254
20
0.94749314
30
0
70
32
0
SEQEND
8
0
0
POLYLINE
8
0
62
30
66
1
10
0
20
0
30
0
70
8
0
VERTEX
8
0
62
30
10
0.070710501
20
0.94749314
30
0
70
32
0
VERTEX
8
0
62
30
10
0.070710501
20
0.94749314
30
0
70
32
0
SEQEND
8
0
0
POLYLINE
8
0
62
30
66
1
10
0
20
0
30
0
70
8
0
VERTEX
8
0
62
30
10
0.14142118
20
0.87678246
30
0
70
32
0
VERTEX
8
0
62
30
10
0.14142118
20
0.94749314
30
0
70
32
0
SEQEND
8
0
0
POLYLINE
8
0
62
30
66
1
10
0
20
0
30
0
70
8
0
VERTEX
8
0
62
30
10
0.21213186
20
0.8767823
30
0
70
32
0
VERTEX
8
0
62
30
10
0.21213186
20
0.94749314
30
0
70
32
0
SEQEND
8
0
0
POLYLINE
8
0
62
5
66
1
10
0
20
0
30
0
70
8
0
VERTEX
8
0
62
5
10
0.070710501
20
0.86213772
30
0
70
32
0
VERTEX
8
0
62
5
10
0.070710501
20
0.94749314
30
0
70
32
0
SEQEND
8
0
0
POLYLINE
8
0
62
5
66
1
10
0
20
0
30
0
70
8
0
VERTEX
8
0
62
5
10
0.14142118
20
0.86213772
30
0
70
32
0
VERTEX
8
0
62
5
10
0.14142118
20
0.87678246
30
0
70
32
0
SEQEND
8
0
0
POLYLINE
8
0
62
5
66
1
10
0
20
0
30
0
70
8
0
VERTEX
8
0
62
5
10
0.21213186
20
0.86213772
30
0
70
32
0
VERTEX
8
0
62
5
10
0.21213186
20
0.8767823
30
0
70
32
0
SEQEND
8
0
0
POLYLINE
8
0
62
5
66
1
10
0
20
0
30
0
70
8
0
VERTEX
8
0
62
5
10
0.070710501
20
0.94749314
30
0
70
32
0
VERTEX
8
0
62
5
10
0.070710501
20
1.0328486
30
0
70
32
0
SEQEND
8
0
0
POLYLINE
8
0
62
5
66
1
10
0
20
0
30
0
70
8
0
VERTEX
8
0
62
5
10
0.14142118
20
0.94749314
30
0
70
32
0
VERTEX
8
0
62
5
10
0.14142118
20
1.0328486
30
0
70
32
0
SEQEND
8
0
0
POLYLINE
8
0
62
5
66
1
10
0
20
0
30
0
70
8
0
VERTEX
8
0
62
5
10
0.21213186
20
0.94749314
30
0
70
32
0
VERTEX
8
0
62
5
10
0.21213186
20
1.0328486
30
0
70
32
0
SEQEND
8
0
0
POLYLINE
8
0
62
30
66
1
10
0
20
0
30
0
70
8
0
VERTEX
8
0
62
30
10
-1.7719901e-07
20
0.94749297
30
0
70
32
0
VERTEX
8
0
62
30
10
2.2240374e-07
20
0.94749314
30
0
70
32
0
VERTEX
8
0
62
30
10
-1.7719901e-07
20
0.9474933
30
0
70
32
0
SEQEND
8
0
0
POLYLINE
8
0
62
30
66
1
10
0
20
0
30
0
70
8
0
VERTEX
8
0
62
30
10
0.070710501
20
0.94749314
30
0
70
32
0
VERTEX
8
0
62
30
10
0.070710501
20
0.94749314
30
0
70
32
0
VERTEX
8
0
62
30
10
0.070710501
20
0.94749314
30
0
70
32
0
SEQEND
8
0
0
POLYLINE
8
0
62
30
66
1
10
0
20
0
30
0
70
8
0
VERTEX
8
0
62
30
10
0.14142118
20
0.87678246
30
0
70
32
0
VERTEX
8
0
62
30
10
0.17071053
20
0.94749314
30
0
70
32
0
VERTEX
8
0
62
30
10
0.14142118
20
1.0182038
30
0
70
32
0
SEQEND
8
0
0
POLYLINE
8
0
62
30
66
1
10
0
20
0
30
0
70
8
0
VERTEX
8
0
62
30
10
0.21213186
20
0.8767823
30
0
70
32
0
VERTEX
8
0
62
30
10
0.24142122
20
0.94749314
30
0
70
32
0
VERTEX
8
0
62
30
10
0.21213186
20
1.018204
30
0
70
32
0
SEQEND
8
0
0
POLYLINE
8
0
62
5
66
1
10
0
20
0
30
0
70
8
0
VERTEX
8
0
62
5
10
0.56568525
20
1.0328486
30
0
70
32
0
VERTEX
8
0
62
5
10
0.56568525
20
0.86213772
30
0
70
32
0
SEQEND
8
0
0
POLYLINE
8
0
62
5
66
1
10
0
20
0
30
0
70
8
0
VERTEX
8
0
62
5
10
0.28284254
20
0.94749297
30
0
70
32
0
VERTEX
8
0
62
5
10
0.35355321
20
0.94749314
30
0
70
32
0
VERTEX
8
0
62
5
10
0.42426389
20
0.87678246
30
0
70
32
0
VERTEX
8
0
62
5
10
0.49497457
20
0.8767823
30
0
70
32
0
VERTEX
8
0
62
5
10
0.56568525
20
0.94749297
30
0
70
32
0
SEQEND
8
0
0
POLYLINE
8
0
62
5
66
1
10
0
20
0
30
0
70
8
0
SEQEND
8
0
0
POLYLINE
8
0
62
5
66
1
10
0
20
0
30
0
70
8
0
VERTEX
8
0
62
5
10
0.28284254
20
0.9474933
30
0
70
32
0
VERTEX
8
0
62
5
10
0.35355321
20
0.94749314
30
0
70
32
0
VERTEX
8
0
62
5
10
0.42426389
20
1.0182038
30
0
70
32
0
VERTEX
8
0
62
5
10
0.49497457
20
1.018204
30
0
70
32
0
VERTEX
8
0
62
5
10
0.56568525
20
0.9474933
30
0
70
32
0
SEQEND
8
0
0
POLYLINE
8
0
62
30
66
1
10
0
20
0
30
0
70
8
0
VERTEX
8
0
62
30
10
0.28284254
20
0.94749314
30
0
70
32
0
VERTEX
8
0
62
30
10
0.56568525
20
0.94749314
30
0
70
32
0
SEQEND
8
0
0
POLYLINE
8
0
62
30
66
1
10
0
20
0
30
0
70
8
0
VERTEX
8
0
62
30
10
0.35355321
20
0.94749314
30
0
70
32
0
VERTEX
8
0
62
30
10
0.35355321
20
0.94749314
30
0
70
32
0
SEQEND
8
0
0
POLYLINE
8
0
62
30
66
1
10
0
20
0
30
0
70
8
0
VERTEX
8
0
62
30
10
0.42426389
20
0.87678246
30
0
70
32
0
VERTEX
8
0
62
30
10
0.42426389
20
0.94749314
30
0
70
32
0
SEQEND
8
0
0
POLYLINE
8
0
62
30
66
1
10
0
20
0
30
0
70
8
0
VERTEX
8
0
62
30
10
0.49497457
20
0.8767823
30
0
70
32
0
VERTEX
8
0
62
30
10
0.49497457
20
0.94749314
30
0
70
32
0
SEQEND
8
0
0
POLYLINE
8
0
62
5
66
1
10
0
20
0
30
0
70
8
0
VERTEX
8
0
62
5
10
0.35355321
20
0.86213772
30
0
70
32
0
VERTEX
8
0
62
5
10
0.35355321
20
0.94749314
30
0
70
32
0
SEQEND
8
0
0
POLYLINE
8
0
62
5
66
1
10
0
20
0
30
0
70
8
0
VERTEX
8
0
62
5
10
0.42426389
20
0.86213772
30
0
70
32
0
VERTEX
8
0
62
5
10
0.42426389
20
0.87678246
30
0
70
32
0
SEQEND
8
0
0
POLYLINE
8
0
62
5
66
1
10
0
20
0
30
0
70
8
0
VERTEX
8
0
62
5
10
0.49497457
20
0.86213772
30
0
70
32
0
VERTEX
8
0
62
5
10
0.49497457
20
0.8767823
30
0
70
32
0
SEQEND
8
0
0
POLYLINE
8
0
62
5
66
1
10
0
20
0
30
0
70
8
0
VERTEX
8
0
62
5
10
0.35355321
20
0.94749314
30
0
70
32
0
VERTEX
8
0
62
5
10
0.35355321
20
1.0328486
30
0
70
32
0
SEQEND
8
0
0
POLYLINE
8
0
62
5
66
1
10
0
20
0
30
0
70
8
0
VERTEX
8
0
62
5
10
0.42426389
20
0.94749314
30
0
70
32
0
VERTEX
8
0
62
5
10
0.42426389
20
1.0328486
30
0
70
32
0
SEQEND
8
0
0
POLYLINE
8
0
62
5
66
1
10
0
20
0
30
0
70
8
0
VERTEX
8
0
62
5
10
0.49497457
20
0.94749314
30
0
70
32
0
VERTEX
8
0
62
5
10
0.49497457
20
1.0328486
30
0
70
32
0
SEQEND
8
0
0
POLYLINE
8
0
62
30
66
1
10
0
20
0
30
0
70
8
0
VERTEX
8
0
62
30
10
0.28284254
20
0.94749297
30
0
70
32
0
VERTEX
8
0
62
30
10
0.28284293
20
0.94749314
30
0
70
32
0
VERTEX
8
0
62
30
10
0.28284254
20
0.9474933
30
0
70
32
0
SEQEND
8
0
0
POLYLINE
8
0
62
30
66
1
10
0
20
0
30
0
70
8
0
VERTEX
8
0
62
30
10
0.35355321
20
0.94749314
30
0
70
32
0
VERTEX
8
0
62
30
10
0.35355321
20
0.94749314
30
0
70
32
0
VERTEX
8
0
62
30
10
0.35355321
20
0.94749314
30
0
70
32
0
SEQEND
8
0
0
POLYLINE
8
0
62
30
66
1
10
0
20
0
30
0
70
8
0
VERTEX
8
0
62
30
10
0.42426389
20
0.87678246
30
0
70
32
0
VERTEX
8
0
62
30
10
0.45355324
20
0.94749314
30
0
70
32
0
VERTEX
8
0
62
30
10
0.42426389
20
1.0182038
30
0
70
32
0
SEQEND
8
0
0
POLYLINE
8
0
62
30
66
1
10
0
20
0
30
0
70
8
0
VERTEX
8
0
62
30
10
0.49497457
20
0.8767823
30
0
70
32
0
VERTEX
8
0
62
30
10
0.52426393
20
0.94749314
30
0
70
32
0
VERTEX
8
0
62
30
10
0.49497457
20
1.018204
30
0
70
32
0
SEQEND
8
0
0
POLYLINE
8
0
62
5
66
1
10
0
20
0
30
0
70
8
0
VERTEX
8
0
62
5
10
-0.28284289
20
0.86213772
30
0
70
32
0
VERTEX
8
0
62
5
10
-0.28284289
20
1.0328486
30
0
70
32
0
SEQEND
8
0
0
POLYLINE
8
0
62
5
66
1
10
0
20
0
30
0
70
8
0
VERTEX
8
0
62
5
10
-0.28284289
20
0.94749297
30
0
70
32
0
VERTEX
8
0
62
5
10
-0.21213221
20
0.94749314
30
0
70
32
0
VERTEX
8
0
62
5
10
-0.14142153
20
0.87678246
30
0
70
32
0
VERTEX
8
0
62
5
10
-0.070710855
20
0.8767823
30
0
70
32
0
VERTEX
8
0
62
5
10
-1.7719901e-07
20
0.94749297
30
0
70
32
0
SEQEND
8
0
0
POLYLINE
8
0
62
5
66
1
10
0
20
0
30
0
70
8
0
SEQEND
8
0
0
POLYLINE
8
0
62
5
66
1
10
0
20
0
30
0
70
8
0
VERTEX
8
0
62
5
10
-0.28284289
20
0.9474933
30
0
70
32
0
VERTEX
8
0
62
5
10
-0.21213221
20
0.94749314
30
0
70
32
0
VERTEX
8
0
62
5
10
-0.14142153
20
1.0182038
30
0
70
32
0
VERTEX
8
0
62
5
10
-0.070710855
20
1.018204
30
0
70
32
0
VERTEX
8
0
62
5
10
-1.7719901e-07
20
0.9474933
30
0
70
32
0
SEQEND
8
0
0
POLYLINE
8
0
62
30
66
1
10
0
20
0
30
0
70
8
0
VERTEX
8
0
62
30
10
-0.28284289
20
0.94749314
30
0
70
32
0
VERTEX
8
0
62
30
10
-1.7719901e-07
20
0.94749314
30
0
70
32
0
SEQEND
8
0
0
POLYLINE
8
0
62
30
66
1
10
0
20
0
30
0
70
8
0
VERTEX
8
0
62
30
10
-0.21213221
20
0.94749314
30
0
70
32
0
VERTEX
8
0
62
30
10
-0.21213221
20
0.94749314
30
0
70
32
0
SEQEND
8
0
0
POLYLINE
8
0
62
30
66
1
10
0
20
0
30
0
70
8
0
VERTEX
8
0
62
30
10
-0.14142153
20
0.87678246
30
0
70
32
0
VERTEX
8
0
62
30
10
-0.14142153
20
0.94749314
30
0
70
32
0
SEQEND
8
0
0
POLYLINE
8
0
62
30
66
1
10
0
20
0
30
0
70
8
0
VERTEX
8
0
62
30
10
-0.070710855
20
0.8767823
30
0
70
32
0
VERTEX
8
0
62
30
10
-0.070710855
20
0.94749314
30
0
70
32
0
SEQEND
8
0
0
POLYLINE
8
0
62
5
66
1
10
0
20
0
30
0
70
8
0
VERTEX
8
0
62
5
10
-0.21213221
20
0.86213772
30
0
70
32
0
VERTEX
8
0
62
5
10
-0.21213221
20
0.94749314
30
0
70
32
0
SEQEND
8
0
0
POLYLINE
8
0
62
5
66
1
10
0
20
0
30
0
70
8
0
VERTEX
8
0
62
5
10
-0.14142153
20
0.86213772
30
0
70
32
0
VERTEX
8
0
62
5
10
-0.14142153
20
0.87678246
30
0
70
32
0
SEQEND
8
0
0
POLYLINE
8
0
62
5
66
1
10
0
20
0
30
0
70
8
0
VERTEX
8
0
62
5
10
-0.070710855
20
0.86213772
30
0
70
32
0
VERTEX
8
0
62
5
10
-0.070710855
20
0.8767823
30
0
70
32
0
SEQEND
8
0
0
POLYLINE
8
0
62
5
66
1
10
0
20
0
30
0
70
8
0
VERTEX
8
0
62
5
10
-0.21213221
20
0.94749314
30
0
70
32
0
VERTEX
8
0
62
5
10
-0.21213221
20
1.0328486
30
0
70
32
0
SEQEND
8
0
0
POLYLINE
8
0
62
5
66
1
10
0
20
0
30
0
70
8
0
VERTEX
8
0
62
5
10
-0.14142153
20
0.94749314
30
0
70
32
0
VERTEX
8
0
62
5
10
-0.14142153
20
1.0328486
30
0
70
32
0
SEQEND
8
0
0
POLYLINE
8
0
62
5
66
1
10
0
20
0
30
0
70
8
0
VERTEX
8
0
62
5
10
-0.070710855
20
0.94749314
30
0
70
32
0
VERTEX
8
0
62
5
10
-0.070710855
20
1.0328486
30
0
70
32
0
SEQEND
8
0
0
POLYLINE
8
0
62
30
66
1
10
0
20
0
30
0
70
8
0
VERTEX
8
0
62
30
10
-0.28284289
20
0.94749297
30
0
70
32
0
VERTEX
8
0
62
30
10
-0.28284249
20
0.94749314
30
0
70
32
0
VERTEX
8
0
62
30
10
-0.28284289
20
0.9474933
30
0
70
32
0
SEQEND
8
0
0
POLYLINE
8
0
62
30
66
1
10
0
20
0
30
0
70
8
0
VERTEX
8
0
62
30
10
-0.21213221
20
0.94749314
30
0
70
32
0
VERTEX
8
0
62
30
10
-0.21213221
20
0.94749314
30
0
70
32
0
VERTEX
8
0
62
30
10
-0.21213221
20
0.94749314
30
0
70
32
0
SEQEND
8
0
0
POLYLINE
8
0
62
30
66
1
10
0
20
0
30
0
70
8
0
VERTEX
8
0
62
30
10
-0.14142153
20
0.87678246
30
0
70
32
0
VERTEX
8
0
62
30
10
-0.11213218
20
0.94749314
30
0
70
32
0
VERTEX
8
0
62
30
10
-0.14142153
20
1.0182038
30
0
70
32
0
SEQEND
8
0
0
POLYLINE
8
0
62
30
66
1
10
0
20
0
30
0
70
8
0
VERTEX
8
0
62
30
10
-0.070710855
20
0.8767823
30
0
70
32
0
VERTEX
8
0
62
30
10
-0.041421493
20
0.94749314
30
0
70
32
0
VERTEX
8
0
62
30
10
-0.070710855
20
1.018204
30
0
70
32
0
SEQEND
8
0
0
POLYLINE
8
0
62
5
66
1
10
0
20
0
30
0
70
8
0
VERTEX
8
0
62
5
10
-1.7719901e-07
20
1.0328486
30
0
70
32
0
VERTEX
8
0
62
5
10
-1.7719901e-07
20
1.0338486
30
0
70
32
0
SEQEND
8
0
0
POLYLINE
8
0
62
5
66
1
10
0
20
0
30
0
70
8
0
VERTEX
8
0
62
5
10
0.28284254
20
1.0328486
30
0
70
32
0
VERTEX
8
0
62
5
10
0.28284254
20
1.0338486
30
0
70
32
0
SEQEND
8
0
0
POLYLINE
8
0
62
5
66
1
10
0
20
0
30
0
70
8
0
VERTEX
8
0
62
5
10
0.070710501
20
1.0328486
30
0
70
32
0
VERTEX
8
0
62
5
10
0.070710501
20
1.0338486
30
0
70
32
0
SEQEND
8
0
0
POLYLINE
8
0
62
5
66
1
10
0
20
0
30
0
70
8
0
VERTEX
8
0
62
5
10
0.14142118
20
1.0328486
30
0
70
32
0
VERTEX
8
0
62
5
10
0.14142118
20
1.0338486
30
0
70
32
0
SEQEND
8
0
0
POLYLINE
8
0
62
5
66
1
10
0
20
0
30
0
70
8
0
VERTEX
8
0
62
5
10
0.21213186
20
1.0328486
30
0
70
32
0
VERTEX
8
0
62
5
10
0.21213186
20
1.0338486
30
0
70
32
0
SEQEND
8
0
0
POLYLINE
8
0
62
5
66
1
10
0
20
0
30
0
70
8
0
VERTEX
8
0
62
5
10
0.56568525
20
1.0328486
30
0
70
32
0
VERTEX
8
0
62
5
10
0.56568525
20
1.0338486
30
0
70
32
0
SEQEND
8
0
0
POLYLINE
8
0
62
5
66
1
10
0
20
0
30
0
70
8
0
VERTEX
8
0
62
5
10
0.35355321
20
1.0328486
30
0
70
32
0
VERTEX
8
0
62
5
10
0.35355321
20
1.0338486
30
0
70
32
0
SEQEND
8
0
0
POLYLINE
8
0
62
5
66
1
10
0
20
0
30
0
70
8
0
VERTEX
8
0
62
5
10
0.42426389
20
1.0328486
30
0
70
32
0
VERTEX
8
0
62
5
10
0.42426389
20
1.0338486
30
0
70
32
0
SEQEND
8
0
0
POLYLINE
8
0
62
5
66
1
10
0
20
0
30
0
70
8
0
VERTEX
8
0
62
5
10
0.49497457
20
1.0328486
30
0
70
32
0
VERTEX
8
0
62
5
10
0.49497457
20
1.0338486
30
0
70
32
0
SEQEND
8
0
0
POLYLINE
8
0
62
5
66
1
10
0
20
0
30
0
70
8
0
VERTEX
8
0
62
5
10
-0.28284289
20
1.0328486
30
0
70
32
0
VERTEX
8
0
62
5
10
-0.28284289
20
1.0338486
30
0
70
32
0
SEQEND
8
0
0
POLYLINE
8
0
62
5
66
1
10
0
20
0
30
0
70
8
0
VERTEX
8
0
62
5
10
-0.21213221
20
1.0328486
30
0
70
32
0
VERTEX
8
0
62
5
10
-0.21213221
20
1.0338486
30
0
70
32
0
SEQEND
8
0
0
POLYLINE
8
0
62
5
66
1
10
0
20
0
30
0
70
8
0
VERTEX
8
0
62
5
10
-0.14142153
20
1.0328486
30
0
70
32
0
VERTEX
8
0
62
5
10
-0.14142153
20
1.0338486
30
0
70
32
0
SEQEND
8
0
0
POLYLINE
8
0
62
5
66
1
10
0
20
0
30
0
70
8
0
VERTEX
8
0
62
5
10
-0.070710855
20
1.0328486
30
0
70
32
0
VERTEX
8
0
62
5
10
-0.070710855
20
1.0338486
30
0
70
32
0
SEQEND
8
0
0
POLYLINE
8
0
62
5
66
1
10
0
20
0
30
0
70
8
0
VERTEX
8
0
62
5
10
-1.7719901e-07
20
1.0338486
30
0
70
32
0
VERTEX
8
0
62
5
10
-1.7719901e-07
20
1.1752699
30
0
70
32
0
SEQEND
8
0
0
POLYLINE
8
0
62
5
66
1
10
0
20
0
30
0
70
8
0
VERTEX
8
0
62
5
10
0.28284254
20
1.1752699
30
0
70
32
0
VERTEX
8
0
62
5
10
0.28284254
20
1.0338486
30
0
70
32
0
SEQEND
8
0
0
POLYLINE
8
0
62
5
66
1
10
0
20
0
30
0
70
8
0
VERTEX
8
0
62
5
10
-1.7719901e-07
20
1.0399146
30
0
70
32
0
VERTEX
8
0
62
5
10
0.070710501
20
1.0692039
30
0
70
32
0
VERTEX
8
0
62
5
10
0.14142118
20
1.0692039
30
0
70
32
0
VERTEX
8
0
62
5
10
0.21213186
20
1.0399146
30
0
70
32
0
VERTEX
8
0
62
5
10
0.28284254
20
1.0399146
30
0
70
32
0
SEQEND
8
0
0
POLYLINE
8
0
62
5
66
1
10
0
20
0
30
0
70
8
0
VERTEX
8
0
62
5
10
-1.7719901e-07
20
1.1106253
30
0
70
32
0
VERTEX
8
0
62
5
10
0.070710501
20
1.1399146
30
0
70
32
0
VERTEX
8
0
62
5
10
0.14142118
20
1.1399146
30
0
70
32
0
VERTEX
8
0
62
5
10
0.21213186
20
1.1106253
30
0
70
32
0
VERTEX
8
0
62
5
10
0.28284254
20
1.1106253
30
0
70
32
0
SEQEND
8
0
0
POLYLINE
8
0
62
5
66
1
10
0
20
0
30
0
70
8
0
VERTEX
8
0
62
5
10
-1.7719901e-07
20
1.0984932
30
0
70
32
0
VERTEX
8
0
62
5
10
0.070710501
20
1.0692039
30
0
70
32
0
VERTEX
8
0
62
5
10
0.14142118
20
1.0692039
30
0
70
32
0
VERTEX
8
0
62
5
10
0.21213186
20
1.0984932
30
0
70
32
0
VERTEX
8
0
62
5
10
0.28284254
20
1.0984932
30
0
70
32
0
SEQEND
8
0
0
POLYLINE
8
0
62
5
66
1
10
0
20
0
30
0
70
8
0
VERTEX
8
0
62
5
10
-1.7719901e-07
20
1.1692039
30
0
70
32
0
VERTEX
8
0
62
5
10
0.070710501
20
1.1399146
30
0
70
32
0
VERTEX
8
0
62
5
10
0.14142118
20
1.1399146
30
0
70
32
0
VERTEX
8
0
62
5
10
0.21213186
20
1.1692039
30
0
70
32
0
VERTEX
8
0
62
5
10
0.28284254
20
1.1692039
30
0
70
32
0
SEQEND
8
0
0
POLYLINE
8
0
62
30
66
1
10
0
20
0
30
0
70
8
0
VERTEX
8
0
62
30
10
-1.7719901e-07
20
1.0692039
30
0
70
32
0
VERTEX
8
0
62
30
10
0.28284254
20
1.0692039
30
0
70
32
0
SEQEND
8
0
0
POLYLINE
8
0
62
30
66
1
10
0
20
0
30
0
70
8
0
VERTEX
8
0
62
30
10
-1.7719901e-07
20
1.1399146
30
0
70
32
0
VERTEX
8
0
62
30
10
0.28284254
20
1.1399146
30
0
70
32
0
SEQEND
8
0
0
POLYLINE
8
0
62
30
66
1
10
0
20
0
30
0
70
8
0
VERTEX
8
0
62
30
10
0.070710501
20
1.0692039
30
0
70
32
0
VERTEX
8
0
62
30
10
0.070710501
20
1.0692039
30
0
70
32
0
SEQEND
8
0
0
POLYLINE
8
0
62
30
66
1
10
0
20
0
30
0
70
8
0
VERTEX
8
0
62
30
10
0.14142118
20
1.0692039
30
0
70
32
0
VERTEX
8
0
62
30
10
0.14142118
20
1.0692039
30
0
70
32
0
SEQEND
8
0
0
POLYLINE
8
0
62
30
66
1
10
0
20
0
30
0
70
8
0
VERTEX
8
0
62
30
10
0.21213186
20
1.0399146
30
0
70
32
0
VERTEX
8
0
62
30
10
0.21213186
20
1.0692039
30
0
70
32
0
SEQEND
8
0
0
POLYLINE
8
0
62
30
66
1
10
0
20
0
30
0
70
8
0
VERTEX
8
0
62
30
10
0.070710501
20
1.1399146
30
0
70
32
0
VERTEX
8
0
62
30
10
0.070710501
20
1.1399146
30
0
70
32
0
SEQEND
8
0
0
POLYLINE
8
0
62
30
66
1
10
0
20
0
30
0
70
8
0
VERTEX
8
0
62
30
10
0.14142118
20
1.1399146
30
0
70
32
0
VERTEX
8
0
62
30
10
0.14142118
20
1.1399146
30
0
70
32
0
SEQEND
8
0
0
POLYLINE
8
0
62
30
66
1
10
0
20
0
30
0
70
8
0
VERTEX
8
0
62
30
10
0.21213186
20
1.1106253
30
0
70
32
0
VERTEX
8
0
62
30
10
0.21213186
20
1.1399146
30
0
70
32
0
SEQEND
8
0
0
POLYLINE
8
0
62
5
66
1
10
0
20
0
30
0
70
8
0
VERTEX
8
0
62
5
10
0.070710501
20
1.0338486
30
0
70
32
0
VERTEX
8
0
62
5
10
0.070710501
20
1.0692039
30
0
70
32
0
SEQEND
8
0
0
POLYLINE
8
0
62
5
66
1
10
0
20
0
30
0
70
8
0
VERTEX
8
0
62
5
10
0.14142118
20
1.0338486
30
0
70
32
0
VERTEX
8
0
62
5
10
0.14142118
20
1.0692039
30
0
70
32
0
SEQEND
8
0
0
POLYLINE
8
0
62
5
66
1
10
0
20
0
30
0
70
8
0
VERTEX
8
0
62
5
10
0.21213186
20
1.0338486
30
0
70
32
0
VERTEX
8
0
62
5
10
0.21213186
20
1.0399146
30
0
70
32
0
SEQEND
8
0
0
POLYLINE
8
0
62
5
66
1
10
0
20
0
30
0
70
8
0
VERTEX
8
0
62
5
10
0.070710501
20
1.1045592
30
0
70
32
0
VERTEX
8
0
62
5
10
0.070710501
20
1.1399146
30
0
70
32
0
SEQEND
8
0
0
POLYLINE
8
0
62
5
66
1
10
0
20
0
30
0
70
8
0
VERTEX
8
0
62
5
10
0.14142118
20
1.1045592
30
0
70
32
0
VERTEX
8
0
62
5
10
0.14142118
20
1.1399146
30
0
70
32
0
SEQEND
8
0
0
POLYLINE
8
0
62
5
66
1
10
0
20
0
30
0
70
8
0
VERTEX
8
0
62
5
10
0.21213186
20
1.1045592
30
0
70
32
0
VERTEX
8
0
62
5
10
0.21213186
20
1.1106253
30
0
70
32
0
SEQEND
8
0
0
POLYLINE
8
0
62
5
66
1
10
0
20
0
30
0
70
8
0
VERTEX
8
0
62
5
10
0.070710501
20
1.0692039
30
0
70
32
0
VERTEX
8
0
62
5
10
0.070710501
20
1.1045592
30
0
70
32
0
SEQEND
8
0
0
POLYLINE
8
0
62
5
66
1
10
0
20
0
30
0
70
8
0
VERTEX
8
0
62
5
10
0.14142118
20
1.0692039
30
0
70
32
0
VERTEX
8
0
62
5
10
0.14142118
20
1.1045592
30
0
70
32
0
SEQEND
8
0
0
POLYLINE
8
0
62
5
66
1
10
0
20
0
30
0
70
8
0
VERTEX
8
0
62
5
10
0.21213186
20
1.0692039
30
0
70
32
0
VERTEX
8
0
62
5
10
0.21213186
20
1.1045592
30
0
70
32
0
SEQEND
8
0
0
POLYLINE
8
0
62
5
66
1
10
0
20
0
30
0
70
8
0
VERTEX
8
0
62
5
10
0.070710501
20
1.1399146
30
0
70
32
0
VERTEX
8
0
62
5
10
0.070710501
20
1.1752699
30
0
70
32
0
SEQEND
8
0
0
POLYLINE
8
0
62
5
66
1
10
0
20
0
30
0
70
8
0
VERTEX
8
0
62
5
10
0.14142118
20
1.1399146
30
0
70
32
0
VERTEX
8
0
62
5
10
0.14142118
20
1.1752699
30
0
70
32
0
SEQEND
8
0
0
POLYLINE
8
0
62
5
66
1
10
0
20
0
30
0
70
8
0
VERTEX
8
0
62
5
10
0.21213186
20
1.1399146
30
0
70
32
0
VERTEX
8
0
62
5
10
0.21213186
20
1.1752699
30
0
70
32
0
SEQEND
8
0
0
POLYLINE
8
0
62
30
66
1
10
0
20
0
30
0
70
8
0
VERTEX
8
0
62
30
10
-1.7719901e-07
20
1.0399146
30
0
70
32
0
VERTEX
8
0
62
30
10
0.019570322
20
1.0692039
30
0
70
32
0
VERTEX
8
0
62
30
10
-1.7719901e-07
20
1.0984932
30
0
70
32
0
SEQEND
8
0
0
POLYLINE
8
0
62
30
66
1
10
0
20
0
30
0
70
8
0
VERTEX
8
0
62
30
10
0.070710501
20
1.0692039
30
0
70
32
0
VERTEX
8
0
62
30
10
0.070710501
20
1.0692039
30
0
70
32
0
VERTEX
8
0
62
30
10
0.070710501
20
1.0692039
30
0
70
32
0
SEQEND
8
0
0
POLYLINE
8
0
62
30
66
1
10
0
20
0
30
0
70
8
0
VERTEX
8
0
62
30
10
0.14142118
20
1.0692039
30
0
70
32
0
VERTEX
8
0
62
30
10
0.14142118
20
1.0692039
30
0
70
32
0
VERTEX
8
0
62
30
10
0.14142118
20
1.0692039
30
0
70
32
0
SEQEND
8
0
0
POLYLINE
8
0
62
30
66
1
10
0
20
0
30
0
70
8
0
VERTEX
8
0
62
30
10
0.21213186
20
1.0399146
30
0
70
32
0
VERTEX
8
0
62
30
10
0.23170236
20
1.0692039
30
0
70
32
0
VERTEX
8
0
62
30
10
0.21213186
20
1.0984932
30
0
70
32
0
SEQEND
8
0
0
POLYLINE
8
0
62
30
66
1
10
0
20
0
30
0
70
8
0
VERTEX
8
0
62
30
10
-1.7719901e-07
20
1.1106253
30
0
70
32
0
VERTEX
8
0
62
30
10
0.019570322
20
1.1399146
30
0
70
32
0
VERTEX
8
0
62
30
10
-1.7719901e-07
20
1.1692039
30
0
70
32
0
SEQEND
8
0
0
POLYLINE
8
0
62
30
66
1
10
0
20
0
30
0
70
8
0
VERTEX
8
0
62
30
10
0.070710501
20
1.1399146
30
0
70
32
0
VERTEX
8
0
62
30
10
0.070710501
20
1.1399146
30
0
70
32
0
VERTEX
8
0
62
30
10
0.070710501
20
1.1399146
30
0
70
32
0
SEQEND
8
0
0
POLYLINE
8
0
62
30
66
1
10
0
20
0
30
0
70
8
0
VERTEX
8
0
62
30
10
0.14142118
20
1.1399146
30
0
70
32
0
VERTEX
8
0
62
30
10
0.14142118
20
1.1399146
30
0
70
32
0
VERTEX
8
0
62
30
10
0.14142118
20
1.1399146
30
0
70
32
0
SEQEND
8
0
0
POLYLINE
8
0
62
30
66
1
10
0
20
0
30
0
70
8
0
VERTEX
8
0
62
30
10
0.21213186
20
1.1106253
30
0
70
32
0
VERTEX
8
0
62
30
10
0.23170236
20
1.1399146
30
0
70
32
0
VERTEX
8
0
62
30
10
0.21213186
20
1.1692039
30
0
70
32
0
SEQEND
8
0
0
POLYLINE
8
0
62
5
66
1
10
0
20
0
30
0
70
8
0
VERTEX
8
0
62
5
10
0.56568525
20
1.1752699
30
0
70
32
0
VERTEX
8
0
62
5
10
0.56568525
20
1.0338486
30
0
70
32
0
SEQEND
8
0
0
POLYLINE
8
0
62
5
66
1
10
0
20
0
30
0
70
8
0
VERTEX
8
0
62
5
10
0.28284254
20
1.0399146
30
0
70
32
0
VERTEX
8
0
62
5
10
0.35355321
20
1.0692039
30
0
70
32
0
VERTEX
8
0
62
5
10
0.42426389
20
1.0692039
30
0
70
32
0
VERTEX
8
0
62
5
10
0.49497457
20
1.0399146
30
0
70
32
0
VERTEX
8
0
62
5
10
0.56568525
20
1.0399146
30
0
70
32
0
SEQEND
8
0
0
POLYLINE
8
0
62
5
66
1
10
0
20
0
30
0
70
8
0
VERTEX
8
0
62
5
10
0.28284254
20
1.1106253
30
0
70
32
0
VERTEX
8
0
62
5
10
0.35355321
20
1.1399146
30
0
70
32
0
VERTEX
8
0
62
5
10
0.42426389
20
1.1399146
30
0
70
32
0
VERTEX
8
0
62
5
10
0.49497457
20
1.1106253
30
0
70
32
0
VERTEX
8
0
62
5
10
0.56568525
20
1.1106253
30
0
70
32
0
SEQEND
8
0
0
POLYLINE
8
0
62
5
66
1
10
0
20
0
30
0
70
8
0
VERTEX
8
0
62
5
10
0.28284254
20
1.0984932
30
0
70
32
0
VERTEX
8
0
62
5
10
0.35355321
20
1.0692039
30
0
70
32
0
VERTEX
8
0
62
5
10
0.42426389
20
1.0692039
30
0
70
32
0
VERTEX
8
0
62
5
10
0.49497457
20
1.0984932
30
0
70
32
0
VERTEX
8
0
62
5
10
0.56568525
20
1.0984932
30
0
70
32
0
SEQEND
8
0
0
POLYLINE
8
0
62
5
66
1
10
0
20
0
30
0
70
8
0
VERTEX
8
0
62
5
10
0.28284254
20
1.1692039
30
0
70
32
0
VERTEX
8
0
62
5
10
0.35355321
20
1.1399146
30
0
70
32
0
VERTEX
8
0
62
5
10
0.42426389
20
1.1399146
30
0
70
32
0
VERTEX
8
0
62
5
10
0.49497457
20
1.1692039
30
0
70
32
0
VERTEX
8
0
62
5
10
0.56568525
20
1.1692039
30
0
70
32
0
SEQEND
8
0
0
POLYLINE
8
0
62
30
66
1
10
0
20
0
30
0
70
8
0
VERTEX
8
0
62
30
10
0.28284254
20
1.0692039
30
0
70
32
0
VERTEX
8
0
62
30
10
0.56568525
20
1.0692039
30
0
70
32
0
SEQEND
8
0
0
POLYLINE
8
0
62
30
66
1
10
0
20
0
30
0
70
8
0
VERTEX
8
0
62
30
10
0.28284254
20
1.1399146
30
0
70
32
0
VERTEX
8
0
62
30
10
0.56568525
20
1.1399146
30
0
70
32
0
SEQEND
8
0
0
POLYLINE
8
0
62
30
66
1
10
0
20
0
30
0
70
8
0
VERTEX
8
0
62
30
10
0.35355321
20
1.0692039
30
0
70
32
0
VERTEX
8
0
62
30
10
0.35355321
20
1.0692039
30
0
70
32
0
SEQEND
8
0
0
POLYLINE
8
0
62
30
66
1
10
0
20
0
30
0
70
8
0
VERTEX
8
0
62
30
10
0.42426389
20
1.0692039
30
0
70
32
0
VERTEX
8
0
62
30
10
0.42426389
20
1.0692039
30
0
70
32
0
SEQEND
8
0
0
POLYLINE
8
0
62
30
66
1
10
0
20
0
30
0
70
8
0
VERTEX
8
0
62
30
10
0.49497457
20
1.0399146
30
0
70
32
0
VERTEX
8
0
62
30
10
0.49497457
20
1.0692039
30
0
70
32
0
SEQEND
8
0
0
POLYLINE
8
0
62
30
66
1
10
0
20
0
30
0
70
8
0
VERTEX
8
0
62
30
10
0.35355321
20
1.1399146
30
0
70
32
0
VERTEX
8
0
62
30
10
0.35355321
20
1.1399146
30
0
70
32
0
SEQEND
8
0
0
POLYLINE
8
0
62
30
66
1
10
0
20
0
30
0
70
8
0
VERTEX
8
0
62
30
10
0.42426389
20
1.1399146
30
0
70
32
0
VERTEX
8
0
62
30
10
0.42426389
20
1.1399146
30
0
70
32
0
SEQEND
8
0
0
POLYLINE
8
0
62
30
66
1
10
0
20
0
30
0
70
8
0
VERTEX
8
0
62
30
10
0.49497457
20
1.1106253
30
0
70
32
0
VERTEX
8
0
62
30
10
0.49497457
20
1.1399146
30
0
70
32
0
SEQEND
8
0
0
POLYLINE
8
0
62
5
66
1
10
0
20
0
30
0
70
8
0
VERTEX
8
0
62
5
10
0.35355321
20
1.0338486
30
0
70
32
0
VERTEX
8
0
62
5
10
0.35355321
20
1.0692039
30
0
70
32
0
SEQEND
8
0
0
POLYLINE
8
0
62
5
66
1
10
0
20
0
30
0
70
8
0
VERTEX
8
0
62
5
10
0.42426389
20
1.0338486
30
0
70
32
0
VERTEX
8
0
62
5
10
0.42426389
20
1.0692039
30
0
70
32
0
SEQEND
8
0
0
POLYLINE
8
0
62
5
66
1
10
0
20
0
30
0
70
8
0
VERTEX
8
0
62
5
10
0.49497457
20
1.0338486
30
0
70
32
0
VERTEX
8
0
62
5
10
0.49497457
20
1.0399146
30
0
70
32
0
SEQEND
8
0
0
POLYLINE
8
0
62
5
66
1
10
0
20
0
30
0
70
8
0
VERTEX
8
0
62
5
10
0.35355321
20
1.1045592
30
0
70
32
0
VERTEX
8
0
62
5
10
0.35355321
20
1.1399146
30
0
70
32
0
SEQEND
8
0
0
POLYLINE
8
0
62
5
66
1
10
0
20
0
30
0
70
8
0
VERTEX
8
0
62
5
10
0.42426389
20
1.1045592
30
0
70
32
0
VERTEX
8
0
62
5
10
0.42426389
20
1.1399146
30
0
70
32
0
SEQEND
8
0
0
POLYLINE
8
0
62
5
66
1
10
0
20
0
30
0
70
8
0
VERTEX
8
0
62
5
10
0.49497457
20
1.1045592
30
0
70
32
0
VERTEX
8
0
62
5
10
0.49497457
20
1.1106253
30
0
70
32
0
SEQEND
8
0
0
POLYLINE
8
0
62
5
66
1
10
0
20
0
30
0
70
8
0
VERTEX
8
0
62
5
10
0.35355321
20
1.0692039
30
0
70
32
0
VERTEX
8
0
62
5
10
0.35355321
20
1.1045592
30
0
70
32
0
SEQEND
8
0
0
POLYLINE
8
0
62
5
66
1
10
0
20
0
30
0
70
8
0
VERTEX
8
0
62
5
10
0.42426389
20
1.0692039
30
0
70
32
0
VERTEX
8
0
62
5
10
0.42426389
20
1.1045592
30
0
70
32
0
SEQEND
8
0
0
POLYLINE
8
0
62
5
66
1
10
0
20
0
30
0
70
8
0
VERTEX
8
0
62
5
10
0.49497457
20
1.0692039
30
0
70
32
0
VERTEX
8
0
62
5
10
0.49497457
20
1.1045592
30
0
70
32
0
SEQEND
8
0
0
POLYLINE
8
0
62
5
66
1
10
0
20
0
30
0
70
8
0
VERTEX
8
0
62
5
10
0.35355321
20
1.1399146
30
0
70
32
0
VERTEX
8
0
62
5
10
0.35355321
20
1.1752699
30
0
70
32
0
SEQEND
8
0
0
POLYLINE
8
0
62
5
66
1
10
0
20
0
30
0
70
8
0
VERTEX
8
0
62
5
10
0.42426389
20
1.1399146
30
0
70
32
0
VERTEX
8
0
62
5
10
0.42426389
20
1.1752699
30
0
70
32
0
SEQEND
8
0
0
POLYLINE
8
0
62
5
66
1
10
0
20
0
30
0
70
8
0
VERTEX
8
0
62
5
10
0.49497457
20
1.1399146
30
0
70
32
0
VERTEX
8
0
62
5
10
0.49497457
20
1.1752699
30
0
70
32
0
SEQEND
8
0
0
POLYLINE
8
0
62
30
66
1
10
0
20
0
30
0
70
8
0
VERTEX
8
0
62
30
10
0.28284254
20
1.0399146
30
0
70
32
0
VERTEX
8
0
62
30
10
0.30241303
20
1.0692039
30
0
70
32
0
VERTEX
8
0
62
30
10
0.28284254
20
1.0984932
30
0
70
32
0
SEQEND
8
0
0
POLYLINE
8
0
62
30
66
1
10
0
20
0
30
0
70
8
0
VERTEX
8
0
62
30
10
0.35355321
20
1.0692039
30
0
70
32
0
VERTEX
8
0
62
30
10
0.35355321
20
1.0692039
30
0
70
32
0
VERTEX
8
0
62
30
10
0.35355321
20
1.0692039
30
0
70
32
0
SEQEND
8
0
0
POLYLINE
8
0
62
30
66
1
10
0
20
0
30
0
70
8
0
VERTEX
8
0
62
30
10
0.42426389
20
1.0692039
30
0
70
32
0
VERTEX
8
0
62
30
10
0.42426389
20
1.0692039
30
0
70
32
0
VERTEX
8
0
62
30
10
0.42426389
20
1.0692039
30
0
70
32
0
SEQEND
8
0
0
POLYLINE
8
0
62
30
66
1
10
0
20
0
30
0
70
8
0
VERTEX
8
0
62
30
10
0.49497457
20
1.0399146
30
0
70
32
0
VERTEX
8
0
62
30
10
0.51454507
20
1.0692039
30
0
70
32
0
VERTEX
8
0
62
30
10
0.49497457
20
1.0984932
30
0
70
32
0
SEQEND
8
0
0
POLYLINE
8
0
62
30
66
1
10
0
20
0
30
0
70
8
0
VERTEX
8
0
62
30
10
0.28284254
20
1.1106253
30
0
70
32
0
VERTEX
8
0
62
30
10
0.30241303
20
1.1399146
30
0
70
32
0
VERTEX
8
0
62
30
10
0.28284254
20
1.1692039
30
0
70
32
0
SEQEND
8
0
0
POLYLINE
8
0
62
30
66
1
10
0
20
0
30
0
70
8
0
VERTEX
8
0
62
30
10
0.35355321
20
1.1399146
30
0
70
32
0
VERTEX
8
0
62
30
10
0.35355321
20
1.1399146
30
0
70
32
0
VERTEX
8
0
62
30
10
0.35355321
20
1.1399146
30
0
70
32
0
SEQEND
8
0
0
POLYLINE
8
0
62
30
66
1
10
0
20
0
30
0
70
8
0
VERTEX
8
0
62
30
10
0.42426389
20
1.1399146
30
0
70
32
0
VERTEX
8
0
62
30
10
0.42426389
20
1.1399146
30
0
70
32
0
VERTEX
8
0
62
30
10
0.42426389
20
1.1399146
30
0
70
32
0
SEQEND
8
0
0
POLYLINE
8
0
62
30
66
1
10
0
20
0
30
0
70
8
0
VERTEX
8
0
62
30
10
0.49497457
20
1.1106253
30
0
70
32
0
VERTEX
8
0
62
30
10
0.51454507
20
1.1399146
30
0
70
32
0
VERTEX
8
0
62
30
10
0.49497457
20
1.1692039
30
0
70
32
0
SEQEND
8
0
0
POLYLINE
8
0
62
5
66
1
10
0
20
0
30
0
70
8
0
VERTEX
8
0
62
5
10
-0.28284289
20
1.0338486
30
0
70
32
0
VERTEX
8
0
62
5
10
-0.28284289
20
1.1752699
30
0
70
32
0
SEQEND
8
0
0
POLYLINE
8
0
62
5
66
1
10
0
20
0
30
0
70
8
0
VERTEX
8
0
62
5
10
-0.28284289
20
1.0399146
30
0
70
32
0
VERTEX
8
0
62
5
10
-0.21213221
20
1.0692039
30
0
70
32
0
VERTEX
8
0
62
5
10
-0.14142153
20
1.0692039
30
0
70
32
0
VERTEX
8
0
62
5
10
-0.070710855
20
1.0399146
30
0
70
32
0
VERTEX
8
0
62
5
10
-1.7719901e-07
20
1.0399146
30
0
70
32
0
SEQEND
8
0
0
POLYLINE
8
0
62
5
66
1
10
0
20
0
30
0
70
8
0
VERTEX
8
0
62
5
10
-0.28284289
20
1.1106253
30
0
70
32
0
VERTEX
8
0
62
5
10
-0.21213221
20
1.1399146
30
0
70
32
0
VERTEX
8
0
62
5
10
-0.14142153
20
1.1399146
30
0
70
32
0
VERTEX
8
0
62
5
10
-0.070710855
20
1.1106253
30
0
70
32
0
VERTEX
8
0
62
5
10
-1.7719901e-07
20
1.1106253
30
0
70
32
0
SEQEND
8
0
0
POLYLINE
8
0
62
5
66
1
10
0
20
0
30
0
70
8
0
VERTEX
8
0
62
5
10
-0.28284289
20
1.0984932
30
0
70
32
0
VERTEX
8
0
62
5
10
-0.21213221
20
1.0692039
30
0
70
32
0
VERTEX
8
0
62
5
10
-0.14142153
20
1.0692039
30
0
70
32
0
VERTEX
8
0
62
5
10
-0.070710855
20
1.0984932
30
0
70
32
0
VERTEX
8
0
62
5
10
-1.7719901e-07
20
1.0984932
30
0
70
32
0
SEQEND
8
0
0
POLYLINE
8
0
62
5
66
1
10
0
20
0
30
0
70
8
0
VERTEX
8
0
62
5
10
-0.28284289
20
1.1692039
30
0
70
32
0
VERTEX
8
0
62
5
10
-0.21213221
20
1.1399146
30
0
70
32
0
VERTEX
8
0
62
5
10
-0.14142153
20
1.1399146
30
0
70
32
0
VERTEX
8
0
62
5
10
-0.070710855
20
1.1692039
30
0
70
32
0
VERTEX
8
0
62
5
10
-1.7719901e-07
20
1.1692039
30
0
70
32
0
SEQEND
8
0
0
POLYLINE
8
0
62
30
66
1
10
0
20
0
30
0
70
8
0
VERTEX
8
0
62
30
10
-0.28284289
20
1.0692039
30
0
70
32
0
VERTEX
8
0
62
30
10
-1.7719901e-07
20
1.0692039
30
0
70
32
0
SEQEND
8
0
0
POLYLINE
8
0
62
30
66
1
10
0
20
0
30
0
70
8
0
VERTEX
8
0
62
30
10
-0.28284289
20
1.1399146
30
0
70
32
0
VERTEX
8
0
62
30
10
-1.7719901e-07
20
1.1399146
30
0
70
32
0
SEQEND
8
0
0
POLYLINE
8
0
62
30
66
1
10
0
20
0
30
0
70
8
0
VERTEX
8
0
62
30
10
-0.21213221
20
1.0692039
30
0
70
32
0
VERTEX
8
0
62
30
10
-0.21213221
20
1.0692039
30
0
70
32
0
SEQEND
8
0
0
POLYLINE
8
0
62
30
66
1
10
0
20
0
30
0
70
8
0
VERTEX
8
0
62
30
10
-0.14142153
20
1.0692039
30
0
70
32
0
VERTEX
8
0
62
30
10
-0.14142153
20
1.0692039
30
0
70
32
0
SEQEND
8
0
0
POLYLINE
8
0
62
30
66
1
10
0
20
0
30
0
70
8
0
VERTEX
8
0
62
30
10
-0.070710855
20
1.0399146
30
0
70
32
0
VERTEX
8
0
62
30
10
-0.070710855
20
1.0692039
30
0
70
32
0
SEQEND
8
0
0
POLYLINE
8
0
62
30
66
1
10
0
20
0
30
0
70
8
0
VERTEX
8
0
62
30
10
-0.21213221
20
1.1399146
30
0
70
32
0
VERTEX
8
0
62
30
10
-0.21213221
20
1.1399146
30
0
70
32
0
SEQEND
8
0
0
POLYLINE
8
0
62
30
66
1
10
0
20
0
30
0
70
8
0
VERTEX
8
0
62
30
10
-0.14142153
20
1.1399146
30
0
70
32
0
VERTEX
8
0
62
30
10
-0.14142153
20
1.1399146
30
0
70
32
0
SEQEND
8
0
0
POLYLINE
8
0
62
30
66
1
10
0
20
0
30
0
70
8
0
VERTEX
8
0
62
30
10
-0.070710855
20
1.1106253
30
0
70
32
0
VERTEX
8
0
62
30
10
-0.070710855
20
1.1399146
30
0
70
32
0
SEQEND
8
0
0
POLYLINE
8
0
62
5
66
1
10
0
20
0
30
0
70
8
0
VERTEX
8
0
62
5
10
-0.21213221
20
1.0338486
30
0
70
32
0
VERTEX
8
0
62
5
10
-0.21213221
20
1.0692039
30
0
70
32
0
SEQEND
8
0
0
POLYLINE
8
0
62
5
66
1
10
0
20
0
30
0
70
8
0
VERTEX
8
0
62
5
10
-0.14142153
20
1.0338486
30
0
70
32
0
VERTEX
8
0
62
5
10
-0.14142153
20
1.0692039
30
0
70
32
0
SEQEND
8
0
0
POLYLINE
8
0
62
5
66
1
10
0
20
0
30
0
70
8
0
VERTEX
8
0
62
5
10
-0.070710855
20
1.0338486
30
0
70
32
0
VERTEX
8
0
62
5
10
-0.070710855
20
1.0399146
30
0
70
32
0
SEQEND
8
0
0
POLYLINE
8
0
62
5
66
1
10
0
20
0
30
0
70
8
0
VERTEX
8
0
62
5
10
-0.21213221
20
1.1045592
30
0
70
32
0
VERTEX
8
0
62
5
10
-0.21213221
20
1.1399146
30
0
70
32
0
SEQEND
8
0
0
POLYLINE
8
0
62
5
66
1
10
0
20
0
30
0
70
8
0
VERTEX
8
0
62
5
10
-0.14142153
20
1.1045592
30
0
70
32
0
VERTEX
8
0
62
5
10
-0.14142153
20
1.1399146
30
0
70
32
0
SEQEND
8
0
0
POLYLINE
8
0
62
5
66
1
10
0
20
0
30
0
70
8
0
VERTEX
8
0
62
5
10
-0.070710855
20
1.1045592
30
0
70
32
0
VERTEX
8
0
62
5
10
-0.070710855
20
1.1106253
30
0
70
32
0
SEQEND
8
0
0
POLYLINE
8
0
62
5
66
1
10
0
20
0
30
0
70
8
0
VERTEX
8
0
62
5
10
-0.21213221
20
1.0692039
30
0
70
32
0
VERTEX
8
0
62
5
10
-0.21213221
20
1.1045592
30
0
70
32
0
SEQEND
8
0
0
POLYLINE
8
0
62
5
66
1
10
0
20
0
30
0
70
8
0
VERTEX
8
0
62
5
10
-0.14142153
20
1.0692039
30
0
70
32
0
VERTEX
8
0
62
5
10
-0.14142153
20
1.1045592
30
0
70
32
0
SEQEND
8
0
0
POLYLINE
8
0
62
5
66
1
10
0
20
0
30
0
70
8
0
VERTEX
8
0
62
5
10
-0.070710855
20
1.0692039
30
0
70
32
0
VERTEX
8
0
62
5
10
-0.070710855
20
1.1045592
30
0
70
32
0
SEQEND
8
0
0
POLYLINE
8
0
62
5
66
1
10
0
20
0
30
0
70
8
0
VERTEX
8
0
62
5
10
-0.21213221
20
1.1399146
30
0
70
32
0
VERTEX
8
0
62
5
10
-0.21213221
20
1.1752699
30
0
70
32
0
SEQEND
8
0
0
POLYLINE
8
0
62
5
66
1
10
0
20
0
30
0
70
8
0
VERTEX
8
0
62
5
10
-0.14142153
20
1.1399146
30
0
70
32
0
VERTEX
8
0
62
5
10
-0.14142153
20
1.1752699
30
0
70
32
0
SEQEND
8
0
0
POLYLINE
8
0
62
5
66
1
10
0
20
0
30
0
70
8
0
VERTEX
8
0
62
5
10
-0.070710855
20
1.1399146
30
0
70
32
0
VERTEX
8
0
62
5
10
-0.070710855
20
1.1752699
30
0
70
32
0
SEQEND
8
0
0
POLYLINE
8
0
62
30
66
1
10
0
20
0
30
0
70
8
0
VERTEX
8
0
62
30
10
-0.28284289
20
1.0399146
30
0
70
32
0
VERTEX
8
0
62
30
10
-0.26327239
20
1.0692039
30
0
70
32
0
VERTEX
8
0
62
30
10
-0.28284289
20
1.0984932
30
0
70
32
0
SEQEND
8
0
0
POLYLINE
8
0
62
30
66
1
10
0
20
0
30
0
70
8
0
VERTEX
8
0
62
30
10
-0.21213221
20
1.0692039
30
0
70
32
0
VERTEX
8
0
62
30
10
-0.21213221
20
1.0692039
30
0
70
32
0
VERTEX
8
0
62
30
10
-0.21213221
20
1.0692039
30
0
70
32
0
SEQEND
8
0
0
POLYLINE
8
0
62
30
66
1
10
0
20
0
30
0
70
8
0
VERTEX
8
0
62
30
10
-0.14142153
20
1.0692039
30
0
70
32
0
VERTEX
8
0
62
30
10
-0.14142153
20
1.0692039
30
0
70
32
0
VERTEX
8
0
62
30
10
-0.14142153
20
1.0692039
30
0
70
32
0
SEQEND
8
0
0
POLYLINE
8
0
62
30
66
1
10
0
20
0
30
0
70
8
0
VERTEX
8
0
62
30
10
-0.070710855
20
1.0399146
30
0
70
32
0
VERTEX
8
0
62
30
10
-0.051140356
20
1.0692039
30
0
70
32
0
VERTEX
8
0
62
30
10
-0.070710855
20
1.0984932
30
0
70
32
0
SEQEND
8
0
0
POLYLINE
8
0
62
30
66
1
10
0
20
0
30
0
70
8
0
VERTEX
8
0
62
30
10
-0.28284289
20
1.1106253
30
0
70
32
0
VERTEX
8
0
62
30
10
-0.26327239
20
1.1399146
30
0
70
32
0
VERTEX
8
0
62
30
10
-0.28284289
20
1.1692039
30
0
70
32
0
SEQEND
8
0
0
POLYLINE
8
0
62
30
66
1
10
0
20
0
30
0
70
8
0
VERTEX
8
0
62
30
10
-0.21213221
20
1.1399146
30
0
70
32
0
VERTEX
8
0
62
30
10
-0.21213221
20
1.1399146
30
0
70
32
0
VERTEX
8
0
62
30
10
-0.21213221
20
1.1399146
30
0
70
32
0
SEQEND
8
0
0
POLYLINE
8
0
62
30
66
1
10
0
20
0
30
0
70
8
0
VERTEX
8
0
62
30
10
-0.14142153
20
1.1399146
30
0
70
32
0
VERTEX
8
0
62
30
10
-0.14142153
20
1.1399146
30
0
70
32
0
VERTEX
8
0
62
30
10
-0.14142153
20
1.1399146
30
0
70
32
0
SEQEND
8
0
0
POLYLINE
8
0
62
30
66
1
10
0
20
0
30
0
70
8
0
VERTEX
8
0
62
30
10
-0.070710855
20
1.1106253
30
0
70
32
0
VERTEX
8
0
62
30
10
-0.051140356
20
1.1399146
30
0
70
32
0
VERTEX
8
0
62
30
10
-0.070710855
20
1.1692039
30
0
70
32
0
SEQEND
8
0
0
POLYLINE
8
0
62
5
66
1
10
0
20
0
30
0
70
8
0
VERTEX
8
0
62
5
10
-1.7719901e-07
20
1.1752699
30
0
70
32
0
VERTEX
8
0
62
5
10
-1.7719901e-07
20
1.1781988
30
0
70
32
0
SEQEND
8
0
0
POLYLINE
8
0
62
5
66
1
10
0
20
0
30
0
70
8
0
VERTEX
8
0
62
5
10
0.070710501
20
1.1752699
30
0
70
32
0
VERTEX
8
0
62
5
10
0.070710501
20
1.1781988
30
0
70
32
0
SEQEND
8
0
0
POLYLINE
8
0
62
5
66
1
10
0
20
0
30
0
70
8
0
VERTEX
8
0
62
5
10
0.14142118
20
1.1752699
30
0
70
32
0
VERTEX
8
0
62
5
10
0.14142118
20
1.1781988
30
0
70
32
0
SEQEND
8
0
0
POLYLINE
8
0
62
5
66
1
10
0
20
0
30
0
70
8
0
VERTEX
8
0
62
5
10
0.21213186
20
1.1752699
30
0
70
32
0
VERTEX
8
0
62
5
10
0.21213186
20
1.1781988
30
0
70
32
0
SEQEND
8
0
0
POLYLINE
8
0
62
5
66
1
10
0
20
0
30
0
70
8
0
VERTEX
8
0
62
5
10
0.28284254
20
1.1752699
30
0
70
32
0
VERTEX
8
0
62
5
10
0.28284254
20
1.1781988
30
0
70
32
0
SEQEND
8
0
0
POLYLINE
8
0
62
5
66
1
10
0
20
0
30
0
70
8
0
VERTEX
8
0
62
5
10
0.070710501
20
1.1752699
30
0
70
32
0
VERTEX
8
0
62
5
10
0.070710501
20
1.1752699
30
0
70
32
0
SEQEND
8
0
0
POLYLINE
8
0
62
5
66
1
10
0
20
0
30
0
70
8
0
VERTEX
8
0
62
5
10
0.14142118
20
1.1752699
30
0
70
32
0
VERTEX
8
0
62
5
10
0.14142118
20
1.1752699
30
0
70
32
0
SEQEND
8
0
0
POLYLINE
8
0
62
5
66
1
10
0
20
0
30
0
70
8
0
VERTEX
8
0
62
5
10
0.21213186
20
1.1752699
30
0
70
32
0
VERTEX
8
0
62
5
10
0.21213186
20
1.1752699
30
0
70
32
0
SEQEND
8
0
0
POLYLINE
8
0
62
5
66
1
10
0
20
0
30
0
70
8
0
VERTEX
8
0
62
5
10
0.0707105
20
1.1781988
30
0
70
32
0
VERTEX
8
0
62
5
10
0.0707105
20
1.1781988
30
0
70
32
0
SEQEND
8
0
0
POLYLINE
8
0
62
5
66
1
10
0
20
0
30
0
70
8
0
VERTEX
8
0
62
5
10
0.14142118
20
1.1781988
30
0
70
32
0
VERTEX
8
0
62
5
10
0.14142118
20
1.1781988
30
0
70
32
0
SEQEND
8
0
0
POLYLINE
8
0
62
5
66
1
10
0
20
0
30
0
70
8
0
VERTEX
8
0
62
5
10
0.21213186
20
1.1781988
30
0
70
32
0
VERTEX
8
0
62
5
10
0.21213186
20
1.1781988
30
0
70
32
0
SEQEND
8
0
0
POLYLINE
8
0
62
5
66
1
10
0
20
0
30
0
70
8
0
VERTEX
8
0
62
5
10
0.28284253
20
1.1781988
30
0
70
32
0
VERTEX
8
0
62
5
10
0.28284253
20
1.1781988
30
0
70
32
0
SEQEND
8
0
0
POLYLINE
8
0
62
5
66
1
10
0
20
0
30
0
70
8
0
VERTEX
8
0
62
5
10
0.35355321
20
1.1752699
30
0
70
32
0
VERTEX
8
0
62
5
10
0.35355321
20
1.1781988
30
0
70
32
0
SEQEND
8
0
0
POLYLINE
8
0
62
5
66
1
10
0
20
0
30
0
70
8
0
VERTEX
8
0
62
5
10
0.42426389
20
1.1752699
30
0
70
32
0
VERTEX
8
0
62
5
10
0.42426389
20
1.1781988
30
0
70
32
0
SEQEND
8
0
0
POLYLINE
8
0
62
5
66
1
10
0
20
0
30
0
70
8
0
VERTEX
8
0
62
5
10
0.49497457
20
1.1752699
30
0
70
32
0
VERTEX
8
0
62
5
10
0.49497457
20
1.1781988
30
0
70
32
0
SEQEND
8
0
0
POLYLINE
8
0
62
5
66
1
10
0
20
0
30
0
70
8
0
VERTEX
8
0
62
5
10
0.56568525
20
1.1752699
30
0
70
32
0
VERTEX
8
0
62
5
10
0.56568525
20
1.1781988
30
0
70
32
0
SEQEND
8
0
0
POLYLINE
8
0
62
5
66
1
10
0
20
0
30
0
70
8
0
VERTEX
8
0
62
5
10
0.35355321
20
1.1752699
30
0
70
32
0
VERTEX
8
0
62
5
10
0.35355321
20
1.1752699
30
0
70
32
0
SEQEND
8
0
0
POLYLINE
8
0
62
5
66
1
10
0
20
0
30
0
70
8
0
VERTEX
8
0
62
5
10
0.42426389
20
1.1752699
30
0
70
32
0
VERTEX
8
0
62
5
10
0.42426389
20
1.1752699
30
0
70
32
0
SEQEND
8
0
0
POLYLINE
8
0
62
5
66
1
10
0
20
0
30
0
70
8
0
VERTEX
8
0
62
5
10
0.49497457
20
1.1752699
30
0
70
32
0
VERTEX
8
0
62
5
10
0.49497457
20
1.1752699
30
0
70
32
0
SEQEND
8
0
0
POLYLINE
8
0
62
5
66
1
10
0
20
0
30
0
70
8
0
VERTEX
8
0
62
5
10
0.35355321
20
1.1781988
30
0
70
32
0
VERTEX
8
0
62
5
10
0.35355321
20
1.1781988
30
0
70
32
0
SEQEND
8
0
0
POLYLINE
8
0
62
5
66
1
10
0
20
0
30
0
70
8
0
VERTEX
8
0
62
5
10
0.42426389
20
1.1781988
30
0
70
32
0
VERTEX
8
0
62
5
10
0.42426389
20
1.1781988
30
0
70
32
0
SEQEND
8
0
0
POLYLINE
8
0
62
5
66
1
10
0
20
0
30
0
70
8
0
VERTEX
8
0
62
5
10
0.49497457
20
1.1781988
30
0
70
32
0
VERTEX
8
0
62
5
10
0.49497457
20
1.1781988
30
0
70
32
0
SEQEND
8
0
0
POLYLINE
8
0
62
5
66
1
10
0
20
0
30
0
70
8
0
VERTEX
8
0
62
5
10
0.56568525
20
1.1781988
30
0
70
32
0
VERTEX
8
0
62
5
10
0.56568525
20
1.1781988
30
0
70
32
0
SEQEND
8
0
0
POLYLINE
8
0
62
5
66
1
10
0
20
0
30
0
70
8
0
VERTEX
8
0
62
5
10
-0.21213221
20
1.1752699
30
0
70
32
0
VERTEX
8
0
62
5
10
-0.21213221
20
1.1781988
30
0
70
32
0
SEQEND
8
0
0
POLYLINE
8
0
62
5
66
1
10
0
20
0
30
0
70
8
0
VERTEX
8
0
62
5
10
-0.14142153
20
1.1752699
30
0
70
32
0
VERTEX
8
0
62
5
10
-0.14142153
20
1.1781988
30
0
70
32
0
SEQEND
8
0
0
POLYLINE
8
0
62
5
66
1
10
0
20
0
30
0
70
8
0
VERTEX
8
0
62
5
10
-0.070710855
20
1.1752699
30
0
70
32
0
VERTEX
8
0
62
5
10
-0.070710855
20
1.1781988
30
0
70
32
0
SEQEND
8
0
0
POLYLINE
8
0
62
5
66
1
10
0
20
0
30
0
70
8
0
VERTEX
8
0
62
5
10
-1.7719901e-07
20
1.1752699
30
0
70
32
0
VERTEX
8
0
62
5
10
-1.7719901e-07
20
1.1781988
30
0
70
32
0
SEQEND
8
0
0
POLYLINE
8
0
62
5
66
1
10
0
20
0
30
0
70
8
0
VERTEX
8
0
62
5
10
-0.21213221
20
1.1752699
30
0
70
32
0
VERTEX
8
0
62
5
10
-0.21213221
20
1.1752699
30
0
70
32
0
SEQEND
8
0
0
POLYLINE
8
0
62
5
66
1
10
0
20
0
30
0
70
8
0
VERTEX
8
0
62
5
10
-0.14142153
20
1.1752699
30
0
70
32
0
VERTEX
8
0
62
5
10
-0.14142153
20
1.1752699
30
0
70
32
0
SEQEND
8
0
0
POLYLINE
8
0
62
5
66
1
10
0
20
0
30
0
70
8
0
VERTEX
8
0
62
5
10
-0.070710855
20
1.1752699
30
0
70
32
0
VERTEX
8
0
62
5
10
-0.070710855
20
1.1752699
30
0
70
32
0
SEQEND
8
0
0
POLYLINE
8
0
62
5
66
1
10
0
20
0
30
0
70
8
0
VERTEX
8
0
62
5
10
-0.21213221
20
1.1781988
30
0
70
32
0
VERTEX
8
0
62
5
10
-0.21213221
20
1.1781988
30
0
70
32
0
SEQEND
8
0
0
POLYLINE
8
0
62
5
66
1
10
0
20
0
30
0
70
8
0
VERTEX
8
0
62
5
10
-0.14142153
20
1.1781988
30
0
70
32
0
VERTEX
8
0
62
5
10
-0.14142153
20
1.1781988
30
0
70
32
0
SEQEND
8
0
0
POLYLINE
8
0
62
5
66
1
10
0
20
0
30
0
70
8
0
VERTEX
8
0
62
5
10
-0.070710856
20
1.1781988
30
0
70
32
0
VERTEX
8
0
62
5
10
-0.070710856
20
1.1781988
30
0
70
32
0
SEQEND
8
0
0
POLYLINE
8
0
62
5
66
1
10
0
20
0
30
0
70
8
0
VERTEX
8
0
62
5
10
-1.7770716e-07
20
1.1781988
30
0
70
32
0
VERTEX
8
0
62
5
10
-1.7770716e-07
20
1.1781988
30
0
70
32
0
SEQEND
8
0
0
POLYLINE
8
0
62
5
66
1
10
0
20
0
30
0
70
8
0
VERTEX
8
0
62
5
10
-1.7770716e-07
20
1.1781988
30
0
70
32
0
VERTEX
8
0
62
5
10
-1.7770716e-07
20
1.1899146
30
0
70
32
0
SEQEND
8
0
0
POLYLINE
8
0
62
5
66
1
10
0
20
0
30
0
70
8
0
VERTEX
8
0
62
5
10
0.28284253
20
1.1781988
30
0
70
32
0
VERTEX
8
0
62
5
10
0.28284253
20
1.1899146
30
0
70
32
0
SEQEND
8
0
0
POLYLINE
8
0
62
5
66
1
10
0
20
0
30
0
70
8
0
VERTEX
8
0
62
5
10
0.0707105
20
1.1781988
30
0
70
32
0
VERTEX
8
0
62
5
10
0.0707105
20
1.1899146
30
0
70
32
0
SEQEND
8
0
0
POLYLINE
8
0
62
5
66
1
10
0
20
0
30
0
70
8
0
VERTEX
8
0
62
5
10
0.14142118
20
1.1781988
30
0
70
32
0
VERTEX
8
0
62
5
10
0.14142118
20
1.1899146
30
0
70
32
0
SEQEND
8
0
0
POLYLINE
8
0
62
5
66
1
10
0
20
0
30
0
70
8
0
VERTEX
8
0
62
5
10
0.21213186
20
1.1781988
30
0
70
32
0
VERTEX
8
0
62
5
10
0.21213186
20
1.1899146
30
0
70
32
0
SEQEND
8
0
0
POLYLINE
8
0
62
5
66
1
10
0
20
0
30
0
70
8
0
VERTEX
8
0
62
5
10
0.56568525
20
1.1781988
30
0
70
32
0
VERTEX
8
0
62
5
10
0.56568525
20
1.1899146
30
0
70
32
0
SEQEND
8
0
0
POLYLINE
8
0
62
5
66
1
10
0
20
0
30
0
70
8
0
VERTEX
8
0
62
5
10
0.35355321
20
1.1781988
30
0
70
32
0
VERTEX
8
0
62
5
10
0.35355321
20
1.1899146
30
0
70
32
0
SEQEND
8
0
0
POLYLINE
8
0
62
5
66
1
10
0
20
0
30
0
70
8
0
VERTEX
8
0
62
5
10
0.42426389
20
1.1781988
30
0
70
32
0
VERTEX
8
0
62
5
10
0.42426389
20
1.1899146
30
0
70
32
0
SEQEND
8
0
0
POLYLINE
8
0
62
5
66
1
10
0
20
0
30
0
70
8
0
VERTEX
8
0
62
5
10
0.49497457
20
1.1781988
30
0
70
32
0
VERTEX
8
0
62
5
10
0.49497457
20
1.1899146
30
0
70
32
0
SEQEND
8
0
0
POLYLINE
8
0
62
5
66
1
10
0
20
0
30
0
70
8
0
VERTEX
8
0
62
5
10
-0.28284289
20
1.1781988
30
0
70
32
0
VERTEX
8
0
62
5
10
-0.28284289
20
1.1899146
30
0
70
32
0
SEQEND
8
0
0
POLYLINE
8
0
62
5
66
1
10
0
20
0
30
0
70
8
0
VERTEX
8
0
62
5
10
-0.21213221
20
1.1781988
30
0
70
32
0
VERTEX
8
0
62
5
10
-0.21213221
20
1.1899146
30
0
70
32
0
SEQEND
8
0
0
POLYLINE
8
0
62
5
66
1
10
0
20
0
30
0
70
8
0
VERTEX
8
0
62
5
10
-0.14142153
20
1.1781988
30
0
70
32
0
VERTEX
8
0
62
5
10
-0.14142153
20
1.1899146
30
0
70
32
0
SEQEND
8
0
0
POLYLINE
8
0
62
5
66
1
10
0
20
0
30
0
70
8
0
VERTEX
8
0
62
5
10
-0.070710856
20
1.1781988
30
0
70
32
0
VERTEX
8
0
62
5
10
-0.070710856
20
1.1899146
30
0
70
32
0
SEQEND
8
0
0
POLYLINE
8
0
62
5
66
1
10
0
20
0
30
0
70
8
0
VERTEX
8
0
62
5
10
-1.7770716e-07
20
1.1899146
30
0
70
32
0
VERTEX
8
0
62
5
10
-1.7770716e-07
20
1.2899146
30
0
70
32
0
SEQEND
8
0
0
POLYLINE
8
0
62
5
66
1
10
0
20
0
30
0
70
8
0
VERTEX
8
0
62
5
10
0.28284253
20
1.2899146
30
0
70
32
0
VERTEX
8
0
62
5
10
0.28284253
20
1.1899146
30
0
70
32
0
SEQEND
8
0
0
POLYLINE
8
0
62
5
66
1
10
0
20
0
30
0
70
8
0
VERTEX
8
0
62
5
10
-1.7770716e-07
20
1.1899146
30
0
70
32
0
VERTEX
8
0
62
5
10
0.28284253
20
1.1899146
30
0
70
32
0
SEQEND
8
0
0
POLYLINE
8
0
62
5
66
1
10
0
20
0
30
0
70
8
0
VERTEX
8
0
62
5
10
-1.7770716e-07
20
1.2899146
30
0
70
32
0
VERTEX
8
0
62
5
10
0.28284253
20
1.2899146
30
0
70
32
0
SEQEND
8
0
0
POLYLINE
8
0
62
5
66
1
10
0
20
0
30
0
70
8
0
VERTEX
8
0
62
5
10
0.0707105
20
1.1899146
30
0
70
32
0
VERTEX
8
0
62
5
10
0.0707105
20
1.1899146
30
0
70
32
0
SEQEND
8
0
0
POLYLINE
8
0
62
5
66
1
10
0
20
0
30
0
70
8
0
VERTEX
8
0
62
5
10
0.14142118
20
1.1899146
30
0
70
32
0
VERTEX
8
0
62
5
10
0.14142118
20
1.1899146
30
0
70
32
0
SEQEND
8
0
0
POLYLINE
8
0
62
5
66
1
10
0
20
0
30
0
70
8
0
VERTEX
8
0
62
5
10
0.21213186
20
1.1899146
30
0
70
32
0
VERTEX
8
0
62
5
10
0.21213186
20
1.1899146
30
0
70
32
0
SEQEND
8
0
0
POLYLINE
8
0
62
5
66
1
10
0
20
0
30
0
70
8
0
VERTEX
8
0
62
5
10
0.0707105
20
1.2899146
30
0
70
32
0
VERTEX
8
0
62
5
10
0.0707105
20
1.2899146
30
0
70
32
0
SEQEND
8
0
0
POLYLINE
8
0
62
5
66
1
10
0
20
0
30
0
70
8
0
VERTEX
8
0
62
5
10
0.14142118
20
1.2899146
30
0
70
32
0
VERTEX
8
0
62
5
10
0.14142118
20
1.2899146
30
0
70
32
0
SEQEND
8
0
0
POLYLINE
8
0
62
5
66
1
10
0
20
0
30
0
70
8
0
VERTEX
8
0
62
5
10
0.21213186
20
1.2899146
30
0
70
32
0
VERTEX
8
0
62
5
10
0.21213186
20
1.2899146
30
0
70
32
0
SEQEND
8
0
0
POLYLINE
8
0
62
30
66
1
10
0
20
0
30
0
70
8
0
VERTEX
8
0
62
30
10
-1.7770716e-07
20
1.2899146
30
0
70
32
0
VERTEX
8
0
62
30
10
0.0707105
20
1.1899146
30
0
70
32
0
SEQEND
8
0
0
POLYLINE
8
0
62
30
66
1
10
0
20
0
30
0
70
8
0
VERTEX
8
0
62
30
10
0.0707105
20
1.2899146
30
0
70
32
0
VERTEX
8
0
62
30
10
-1.7770716e-07
20
1.1899146
30
0
70
32
0
SEQEND
8
0
0
POLYLINE
8
0
62
30
66
1
10
0
20
0
30
0
70
8
0
VERTEX
8
0
62
30
10
0.14142118
20
1.2899146
30
0
70
32
0
VERTEX
8
0
62
30
10
0.21213186
20
1.1899146
30
0
70
32
0
SEQEND
8
0
0
POLYLINE
8
0
62
30
66
1
10
0
20
0
30
0
70
8
0
VERTEX
8
0
62
30
10
0.21213186
20
1.2899146
30
0
70
32
0
VERTEX
8
0
62
30
10
0.14142118
20
1.1899146
30
0
70
32
0
SEQEND
8
0
0
POLYLINE
8
0
62
30
66
1
10
0
20
0
30
0
70
8
0
VERTEX
8
0
62
30
10
0.0707105
20
1.2399146
30
0
70
32
0
VERTEX
8
0
62
30
10
0.14142118
20
1.2399146
30
0
70
32
0
SEQEND
8
0
0
POLYLINE
8
0
62
30
66
1
10
0
20
0
30
0
70
8
0
VERTEX
8
0
62
30
10
0.21213186
20
1.2399146
30
0
70
32
0
VERTEX
8
0
62
30
10
0.28284253
20
1.2399146
30
0
70
32
0
SEQEND
8
0
0
POLYLINE
8
0
62
5
66
1
10
0
20
0
30
0
70
8
0
VERTEX
8
0
62
5
10
-1.7770716e-07
20
1.2399146
30
0
70
32
0
VERTEX
8
0
62
5
10
0.035355161
20
1.2399146
30
0
70
32
0
SEQEND
8
0
0
POLYLINE
8
0
62
5
66
1
10
0
20
0
30
0
70
8
0
VERTEX
8
0
62
5
10
0.14142118
20
1.2399146
30
0
70
32
0
VERTEX
8
0
62
5
10
0.17677652
20
1.2399146
30
0
70
32
0
SEQEND
8
0
0
POLYLINE
8
0
62
5
66
1
10
0
20
0
30
0
70
8
0
VERTEX
8
0
62
5
10
0.035355161
20
1.2399146
30
0
70
32
0
VERTEX
8
0
62
5
10
0.0707105
20
1.2399146
30
0
70
32
0
SEQEND
8
0
0
POLYLINE
8
0
62
5
66
1
10
0
20
0
30
0
70
8
0
VERTEX
8
0
62
5
10
0.17677652
20
1.2399146
30
0
70
32
0
VERTEX
8
0
62
5
10
0.21213186
20
1.2399146
30
0
70
32
0
SEQEND
8
0
0
POLYLINE
8
0
62
5
66
1
10
0
20
0
30
0
70
8
0
VERTEX
8
0
62
5
10
0.0707105
20
1.1899146
30
0
70
32
0
VERTEX
8
0
62
5
10
0.0707105
20
1.2899146
30
0
70
32
0
SEQEND
8
0
0
POLYLINE
8
0
62
5
66
1
10
0
20
0
30
0
70
8
0
VERTEX
8
0
62
5
10
0.14142118
20
1.1899146
30
0
70
32
0
VERTEX
8
0
62
5
10
0.14142118
20
1.2899146
30
0
70
32
0
SEQEND
8
0
0
POLYLINE
8
0
62
5
66
1
10
0
20
0
30
0
70
8
0
VERTEX
8
0
62
5
10
0.21213186
20
1.1899146
30
0
70
32
0
VERTEX
8
0
62
5
10
0.21213186
20
1.2899146
30
0
70
32
0
SEQEND
8
0
0
POLYLINE
8
0
62
5
66
1
10
0
20
0
30
0
70
8
0
VERTEX
8
0
62
5
10
-1.7770716e-07
20
1.1899146
30
0
70
32
0
VERTEX
8
0
62
5
10
-1.7770716e-07
20
1.2899146
30
0
70
32
0
SEQEND
8
0
0
POLYLINE
8
0
62
5
66
1
10
0
20
0
30
0
70
8
0
VERTEX
8
0
62
5
10
0.56568525
20
1.2899146
30
0
70
32
0
VERTEX
8
0
62
5
10
0.56568525
20
1.1899146
30
0
70
32
0
SEQEND
8
0
0
POLYLINE
8
0
62
5
66
1
10
0
20
0
30
0
70
8
0
VERTEX
8
0
62
5
10
0.28284253
20
1.1899146
30
0
70
32
0
VERTEX
8
0
62
5
10
0.56568525
20
1.1899146
30
0
70
32
0
SEQEND
8
0
0
POLYLINE
8
0
62
5
66
1
10
0
20
0
30
0
70
8
0
VERTEX
8
0
62
5
10
0.28284253
20
1.2899146
30
0
70
32
0
VERTEX
8
0
62
5
10
0.56568525
20
1.2899146
30
0
70
32
0
SEQEND
8
0
0
POLYLINE
8
0
62
5
66
1
10
0
20
0
30
0
70
8
0
VERTEX
8
0
62
5
10
0.35355321
20
1.1899146
30
0
70
32
0
VERTEX
8
0
62
5
10
0.35355321
20
1.1899146
30
0
70
32
0
SEQEND
8
0
0
POLYLINE
8
0
62
5
66
1
10
0
20
0
30
0
70
8
0
VERTEX
8
0
62
5
10
0.42426389
20
1.1899146
30
0
70
32
0
VERTEX
8
0
62
5
10
0.42426389
20
1.1899146
30
0
70
32
0
SEQEND
8
0
0
POLYLINE
8
0
62
5
66
1
10
0
20
0
30
0
70
8
0
VERTEX
8
0
62
5
10
0.49497457
20
1.1899146
30
0
70
32
0
VERTEX
8
0
62
5
10
0.49497457
20
1.1899146
30
0
70
32
0
SEQEND
8
0
0
POLYLINE
8
0
62
5
66
1
10
0
20
0
30
0
70
8
0
VERTEX
8
0
62
5
10
0.35355321
20
1.2899146
30
0
70
32
0
VERTEX
8
0
62
5
10
0.35355321
20
1.2899146
30
0
70
32
0
SEQEND
8
0
0
POLYLINE
8
0
62
5
66
1
10
0
20
0
30
0
70
8
0
VERTEX
8
0
62
5
10
0.42426389
20
1.2899146
30
0
70
32
0
VERTEX
8
0
62
5
10
0.42426389
20
1.2899146
30
0
70
32
0
SEQEND
8
0
0
POLYLINE
8
0
62
5
66
1
10
0
20
0
30
0
70
8
0
VERTEX
8
0
62
5
10
0.49497457
20
1.2899146
30
0
70
32
0
VERTEX
8
0
62
5
10
0.49497457
20
1.2899146
30
0
70
32
0
SEQEND
8
0
0
POLYLINE
8
0
62
30
66
1
10
0
20
0
30
0
70
8
0
VERTEX
8
0
62
30
10
0.28284253
20
1.2899146
30
0
70
32
0
VERTEX
8
0
62
30
10
0.35355321
20
1.1899146
30
0
70
32
0
SEQEND
8
0
0
POLYLINE
8
0
62
30
66
1
10
0
20
0
30
0
70
8
0
VERTEX
8
0
62
30
10
0.35355321
20
1.2899146
30
0
70
32
0
VERTEX
8
0
62
30
10
0.28284253
20
1.1899146
30
0
70
32
0
SEQEND
8
0
0
POLYLINE
8
0
62
30
66
1
10
0
20
0
30
0
70
8
0
VERTEX
8
0
62
30
10
0.42426389
20
1.2899146
30
0
70
32
0
VERTEX
8
0
62
30
10
0.49497457
20
1.1899146
30
0
70
32
0
SEQEND
8
0
0
POLYLINE
8
0
62
30
66
1
10
0
20
0
30
0
70
8
0
VERTEX
8
0
62
30
10
0.49497457
20
1.2899146
30
0
70
32
0
VERTEX
8
0
62
30
10
0.42426389
20
1.1899146
30
0
70
32
0
SEQEND
8
0
0
POLYLINE
8
0
62
30
66
1
10
0
20
0
30
0
70
8
0
VERTEX
8
0
62
30
10
0.35355321
20
1.2399146
30
0
70
32
0
VERTEX
8
0
62
30
10
0.42426389
20
1.2399146
30
0
70
32
0
SEQEND
8
0
0
POLYLINE
8
0
62
30
66
1
10
0
20
0
30
0
70
8
0
VERTEX
8
0
62
30
10
0.49497457
20
1.2399146
30
0
70
32
0
VERTEX
8
0
62
30
10
0.56568525
20
1.2399146
30
0
70
32
0
SEQEND
8
0
0
POLYLINE
8
0
62
5
66
1
10
0
20
0
30
0
70
8
0
VERTEX
8
0
62
5
10
0.28284253
20
1.2399146
30
0
70
32
0
VERTEX
8
0
62
5
10
0.31819787
20
1.2399146
30
0
70
32
0
SEQEND
8
0
0
POLYLINE
8
0
62
5
66
1
10
0
20
0
30
0
70
8
0
VERTEX
8
0
62
5
10
0.42426389
20
1.2399146
30
0
70
32
0
VERTEX
8
0
62
5
10
0.45961923
20
1.2399146
30
0
70
32
0
SEQEND
8
0
0
POLYLINE
8
0
62
5
66
1
10
0
20
0
30
0
70
8
0
VERTEX
8
0
62
5
10
0.31819787
20
1.2399146
30
0
70
32
0
VERTEX
8
0
62
5
10
0.35355321
20
1.2399146
30
0
70
32
0
SEQEND
8
0
0
POLYLINE
8
0
62
5
66
1
10
0
20
0
30
0
70
8
0
VERTEX
8
0
62
5
10
0.45961923
20
1.2399146
30
0
70
32
0
VERTEX
8
0
62
5
10
0.49497457
20
1.2399146
30
0
70
32
0
SEQEND
8
0
0
POLYLINE
8
0
62
5
66
1
10
0
20
0
30
0
70
8
0
VERTEX
8
0
62
5
10
0.35355321
20
1.1899146
30
0
70
32
0
VERTEX
8
0
62
5
10
0.35355321
20
1.2899146
30
0
70
32
0
SEQEND
8
0
0
POLYLINE
8
0
62
5
66
1
10
0
20
0
30
0
70
8
0
VERTEX
8
0
62
5
10
0.42426389
20
1.1899146
30
0
70
32
0
VERTEX
8
0
62
5
10
0.42426389
20
1.2899146
30
0
70
32
0
SEQEND
8
0
0
POLYLINE
8
0
62
5
66
1
10
0
20
0
30
0
70
8
0
VERTEX
8
0
62
5
10
0.49497457
20
1.1899146
30
0
70
32
0
VERTEX
8
0
62
5
10
0.49497457
20
1.2899146
30
0
70
32
0
SEQEND
8
0
0
POLYLINE
8
0
62
5
66
1
10
0
20
0
30
0
70
8
0
VERTEX
8
0
62
5
10
0.28284253
20
1.1899146
30
0
70
32
0
VERTEX
8
0
62
5
10
0.28284253
20
1.2899146
30
0
70
32
0
SEQEND
8
0
0
POLYLINE
8
0
62
5
66
1
10
0
20
0
30
0
70
8
0
VERTEX
8
0
62
5
10
-0.28284289
20
1.1899146
30
0
70
32
0
VERTEX
8
0
62
5
10
-0.28284289
20
1.2899146
30
0
70
32
0
SEQEND
8
0
0
POLYLINE
8
0
62
5
66
1
10
0
20
0
30
0
70
8
0
VERTEX
8
0
62
5
10
-0.28284289
20
1.1899146
30
0
70
32
0
VERTEX
8
0
62
5
10
-1.7770716e-07
20
1.1899146
30
0
70
32
0
SEQEND
8
0
0
POLYLINE
8
0
62
5
66
1
10
0
20
0
30
0
70
8
0
VERTEX
8
0
62
5
10
-0.28284289
20
1.2899146
30
0
70
32
0
VERTEX
8
0
62
5
10
-1.7770716e-07
20
1.2899146
30
0
70
32
0
SEQEND
8
0
0
POLYLINE
8
0
62
5
66
1
10
0
20
0
30
0
70
8
0
VERTEX
8
0
62
5
10
-0.21213221
20
1.1899146
30
0
70
32
0
VERTEX
8
0
62
5
10
-0.21213221
20
1.1899146
30
0
70
32
0
SEQEND
8
0
0
POLYLINE
8
0
62
5
66
1
10
0
20
0
30
0
70
8
0
VERTEX
8
0
62
5
10
-0.14142153
20
1.1899146
30
0
70
32
0
VERTEX
8
0
62
5
10
-0.14142153
20
1.1899146
30
0
70
32
0
SEQEND
8
0
0
POLYLINE
8
0
62
5
66
1
10
0
20
0
30
0
70
8
0
VERTEX
8
0
62
5
10
-0.070710856
20
1.1899146
30
0
70
32
0
VERTEX
8
0
62
5
10
-0.070710856
20
1.1899146
30
0
70
32
0
SEQEND
8
0
0
POLYLINE
8
0
62
5
66
1
10
0
20
0
30
0
70
8
0
VERTEX
8
0
62
5
10
-0.21213221
20
1.2899146
30
0
70
32
0
VERTEX
8
0
62
5
10
-0.21213221
20
1.2899146
30
0
70
32
0
SEQEND
8
0
0
POLYLINE
8
0
62
5
66
1
10
0
20
0
30
0
70
8
0
VERTEX
8
0
62
5
10
-0.14142153
20
1.2899146
30
0
70
32
0
VERTEX
8
0
62
5
10
-0.14142153
20
1.2899146
30
0
70
32
0
SEQEND
8
0
0
POLYLINE
8
0
62
5
66
1
10
0
20
0
30
0
70
8
0
VERTEX
8
0
62
5
10
-0.070710856
20
1.2899146
30
0
70
32
0
VERTEX
8
0
62
5
10
-0.070710856
20
1.2899146
30
0
70
32
0
SEQEND
8
0
0
POLYLINE
8
0
62
30
66
1
10
0
20
0
30
0
70
8
0
VERTEX
8
0
62
30
10
-0.28284289
20
1.2899146
30
0
70
32
0
VERTEX
8
0
62
30
10
-0.21213221
20
1.1899146
30
0
70
32
0
SEQEND
8
0
0
POLYLINE
8
0
62
30
66
1
10
0
20
0
30
0
70
8
0
VERTEX
8
0
62
30
10
-0.21213221
20
1.2899146
30
0
70
32
0
VERTEX
8
0
62
30
10
-0.28284289
20
1.1899146
30
0
70
32
0
SEQEND
8
0
0
POLYLINE
8
0
62
30
66
1
10
0
20
0
30
0
70
8
0
VERTEX
8
0
62
30
10
-0.14142153
20
1.2899146
30
0
70
32
0
VERTEX
8
0
62
30
10
-0.070710856
20
1.1899146
30
0
70
32
0
SEQEND
8
0
0
POLYLINE
8
0
62
30
66
1
10
0
20
0
30
0
70
8
0
VERTEX
8
0
62
30
10
-0.070710856
20
1.2899146
30
0
70
32
0
VERTEX
8
0
62
30
10
-0.14142153
20
1.1899146
30
0
70
32
0
SEQEND
8
0
0
POLYLINE
8
0
62
30
66
1
10
0
20
0
30
0
70
8
0
VERTEX
8
0
62
30
10
-0.21213221
20
1.2399146
30
0
70
32
0
VERTEX
8
0
62
30
10
-0.14142153
20
1.2399146
30
0
70
32
0
SEQEND
8
0
0
POLYLINE
8
0
62
30
66
1
10
0
20
0
30
0
70
8
0
VERTEX
8
0
62
30
10
-0.070710856
20
1.2399146
30
0
70
32
0
VERTEX
8
0
62
30
10
-1.7770716e-07
20
1.2399146
30
0
70
32
0
SEQEND
8
0
0
POLYLINE
8
0
62
5
66
1
10
0
20
0
30
0
70
8
0
VERTEX
8
0
62
5
10
-0.28284289
20
1.2399146
30
0
70
32
0
VERTEX
8
0
62
5
10
-0.24748755
20
1.2399146
30
0
70
32
0
SEQEND
8
0
0
POLYLINE
8
0
62
5
66
1
10
0
20
0
30
0
70
8
0
VERTEX
8
0
62
5
10
-0.14142153
20
1.2399146
30
0
70
32
0
VERTEX
8
0
62
5
10
-0.10606619
20
1.2399146
30
0
70
32
0
SEQEND
8
0
0
POLYLINE
8
0
62
5
66
1
10
0
20
0
30
0
70
8
0
VERTEX
8
0
62
5
10
-0.24748755
20
1.2399146
30
0
70
32
0
VERTEX
8
0
62
5
10
-0.21213221
20
1.2399146
30
0
70
32
0
SEQEND
8
0
0
POLYLINE
8
0
62
5
66
1
10
0
20
0
30
0
70
8
0
VERTEX
8
0
62
5
10
-0.10606619
20
1.2399146
30
0
70
32
0
VERTEX
8
0
62
5
10
-0.070710856
20
1.2399146
30
0
70
32
0
SEQEND
8
0
0
POLYLINE
8
0
62
5
66
1
10
0
20
0
30
0
70
8
0
VERTEX
8
0
62
5
10
-0.21213221
20
1.1899146
30
0
70
32
0
VERTEX
8
0
62
5
10
-0.21213221
20
1.2899146
30
0
70
32
0
SEQEND
8
0
0
POLYLINE
8
0
62
5
66
1
10
0
20
0
30
0
70
8
0
VERTEX
8
0
62
5
10
-0.14142153
20
1.1899146
30
0
70
32
0
VERTEX
8
0
62
5
10
-0.14142153
20
1.2899146
30
0
70
32
0
SEQEND
8
0
0
POLYLINE
8
0
62
5
66
1
10
0
20
0
30
0
70
8
0
VERTEX
8
0
62
5
10
-0.070710856
20
1.1899146
30
0
70
32
0
VERTEX
8
0
62
5
10
-0.070710856
20
1.2899146
30
0
70
32
0
SEQEND
8
0
0
POLYLINE
8
0
62
5
66
1
10
0
20
0
30
0
70
8
0
VERTEX
8
0
62
5
10
-0.28284289
20
1.1899146
30
0
70
32
0
VERTEX
8
0
62
5
10
-0.28284289
20
1.2899146
30
0
70
32
0
SEQEND
8
0
0
POLYLINE
8
0
62
5
66
1
10
0
20
0
30
0
70
8
0
VERTEX
8
0
62
5
10
-1.7770716e-07
20
1.2899146
30
0
70
32
0
VERTEX
8
0
62
5
10
-1.7770716e-07
20
1.403523
30
0
70
32
0
SEQEND
8
0
0
POLYLINE
8
0
62
5
66
1
10
0
20
0
30
0
70
8
0
VERTEX
8
0
62
5
10
0.28284253
20
1.403523
30
0
70
32
0
VERTEX
8
0
62
5
10
0.28284253
20
1.2899146
30
0
70
32
0
SEQEND
8
0
0
POLYLINE
8
0
62
5
66
1
10
0
20
0
30
0
70
8
0
VERTEX
8
0
62
5
10
-1.7770716e-07
20
1.3467188
30
0
70
32
0
VERTEX
8
0
62
5
10
0.0707105
20
1.2996606
30
0
70
32
0
VERTEX
8
0
62
5
10
0.14142118
20
1.2996606
30
0
70
32
0
VERTEX
8
0
62
5
10
0.21213186
20
1.3467188
30
0
70
32
0
VERTEX
8
0
62
5
10
0.28284253
20
1.3467188
30
0
70
32
0
SEQEND
8
0
0
POLYLINE
8
0
62
5
66
1
10
0
20
0
30
0
70
8
0
SEQEND
8
0
0
POLYLINE
8
0
62
5
66
1
10
0
20
0
30
0
70
8
0
VERTEX
8
0
62
5
10
-1.7770716e-07
20
1.3467188
30
0
70
32
0
VERTEX
8
0
62
5
10
0.0707105
20
1.3937769
30
0
70
32
0
VERTEX
8
0
62
5
10
0.14142118
20
1.3937769
30
0
70
32
0
VERTEX
8
0
62
5
10
0.21213186
20
1.3467188
30
0
70
32
0
VERTEX
8
0
62
5
10
0.28284253
20
1.3467188
30
0
70
32
0
SEQEND
8
0
0
POLYLINE
8
0
62
30
66
1
10
0
20
0
30
0
70
8
0
VERTEX
8
0
62
30
10
-1.7770716e-07
20
1.3467188
30
0
70
32
0
VERTEX
8
0
62
30
10
0.28284253
20
1.3467188
30
0
70
32
0
SEQEND
8
0
0
POLYLINE
8
0
62
30
66
1
10
0
20
0
30
0
70
8
0
VERTEX
8
0
62
30
10
0.0707105
20
1.2996606
30
0
70
32
0
VERTEX
8
0
62
30
10
0.0707105
20
1.3467188
30
0
70
32
0
SEQEND
8
0
0
POLYLINE
8
0
62
30
66
1
10
0
20
0
30
0
70
8
0
VERTEX
8
0
62
30
10
0.14142118
20
1.2996606
30
0
70
32
0
VERTEX
8
0
62
30
10
0.14142118
20
1.3467188
30
0
70
32
0
SEQEND
8
0
0
POLYLINE
8
0
62
30
66
1
10
0
20
0
30
0
70
8
0
VERTEX
8
0
62
30
10
0.21213186
20
1.3467188
30
0
70
32
0
VERTEX
8
0
62
30
10
0.21213186
20
1.3467188
30
0
70
32
0
SEQEND
8
0
0
POLYLINE
8
0
62
5
66
1
10
0
20
0
30
0
70
8
0
VERTEX
8
0
62
5
10
0.0707105
20
1.2899146
30
0
70
32
0
VERTEX
8
0
62
5
10
0.0707105
20
1.2996606
30
0
70
32
0
SEQEND
8
0
0
POLYLINE
8
0
62
5
66
1
10
0
20
0
30
0
70
8
0
VERTEX
8
0
62
5
10
0.14142118
20
1.2899146
30
0
70
32
0
VERTEX
8
0
62
5
10
0.14142118
20
1.2996606
30
0
70
32
0
SEQEND
8
0
0
POLYLINE
8
0
62
5
66
1
10
0
20
0
30
0
70
8
0
VERTEX
8
0
62
5
10
0.21213186
20
1.2899146
30
0
70
32
0
VERTEX
8
0
62
5
10
0.21213186
20
1.3467188
30
0
70
32
0
SEQEND
8
0
0
POLYLINE
8
0
62
5
66
1
10
0
20
0
30
0
70
8
0
VERTEX
8
0
62
5
10
0.0707105
20
1.3467188
30
0
70
32
0
VERTEX
8
0
62
5
10
0.0707105
20
1.403523
30
0
70
32
0
SEQEND
8
0
0
POLYLINE
8
0
62
5
66
1
10
0
20
0
30
0
70
8
0
VERTEX
8
0
62
5
10
0.14142118
20
1.3467188
30
0
70
32
0
VERTEX
8
0
62
5
10
0.14142118
20
1.403523
30
0
70
32
0
SEQEND
8
0
0
POLYLINE
8
0
62
5
66
1
10
0
20
0
30
0
70
8
0
VERTEX
8
0
62
5
10
0.21213186
20
1.3467188
30
0
70
32
0
VERTEX
8
0
62
5
10
0.21213186
20
1.403523
30
0
70
32
0
SEQEND
8
0
0
POLYLINE
8
0
62
30
66
1
10
0
20
0
30
0
70
8
0
VERTEX
8
0
62
30
10
-1.7770716e-07
20
1.3467188
30
0
70
32
0
VERTEX
8
0
62
30
10
-1.7594638e-07
20
1.3467188
30
0
70
32
0
VERTEX
8
0
62
30
10
-1.7770716e-07
20
1.3467188
30
0
70
32
0
SEQEND
8
0
0
POLYLINE
8
0
62
30
66
1
10
0
20
0
30
0
70
8
0
VERTEX
8
0
62
30
10
0.0707105
20
1.2996606
30
0
70
32
0
VERTEX
8
0
62
30
10
0.095919665
20
1.3467188
30
0
70
32
0
VERTEX
8
0
62
30
10
0.0707105
20
1.3937769
30
0
70
32
0
SEQEND
8
0
0
POLYLINE
8
0
62
30
66
1
10
0
20
0
30
0
70
8
0
VERTEX
8
0
62
30
10
0.14142118
20
1.2996606
30
0
70
32
0
VERTEX
8
0
62
30
10
0.16663034
20
1.3467188
30
0
70
32
0
VERTEX
8
0
62
30
10
0.14142118
20
1.3937769
30
0
70
32
0
SEQEND
8
0
0
POLYLINE
8
0
62
30
66
1
10
0
20
0
30
0
70
8
0
VERTEX
8
0
62
30
10
0.21213186
20
1.3467188
30
0
70
32
0
VERTEX
8
0
62
30
10
0.21213186
20
1.3467188
30
0
70
32
0
VERTEX
8
0
62
30
10
0.21213186
20
1.3467188
30
0
70
32
0
SEQEND
8
0
0
POLYLINE
8
0
62
5
66
1
10
0
20
0
30
0
70
8
0
VERTEX
8
0
62
5
10
0.56568525
20
1.403523
30
0
70
32
0
VERTEX
8
0
62
5
10
0.56568525
20
1.2899146
30
0
70
32
0
SEQEND
8
0
0
POLYLINE
8
0
62
5
66
1
10
0
20
0
30
0
70
8
0
VERTEX
8
0
62
5
10
0.28284253
20
1.3467188
30
0
70
32
0
VERTEX
8
0
62
5
10
0.35355321
20
1.2996606
30
0
70
32
0
VERTEX
8
0
62
5
10
0.42426389
20
1.2996606
30
0
70
32
0
VERTEX
8
0
62
5
10
0.49497457
20
1.3467188
30
0
70
32
0
VERTEX
8
0
62
5
10
0.56568525
20
1.3467188
30
0
70
32
0
SEQEND
8
0
0
POLYLINE
8
0
62
5
66
1
10
0
20
0
30
0
70
8
0
SEQEND
8
0
0
POLYLINE
8
0
62
5
66
1
10
0
20
0
30
0
70
8
0
VERTEX
8
0
62
5
10
0.28284253
20
1.3467188
30
0
70
32
0
VERTEX
8
0
62
5
10
0.35355321
20
1.3937769
30
0
70
32
0
VERTEX
8
0
62
5
10
0.42426389
20
1.3937769
30
0
70
32
0
VERTEX
8
0
62
5
10
0.49497457
20
1.3467188
30
0
70
32
0
VERTEX
8
0
62
5
10
0.56568525
20
1.3467188
30
0
70
32
0
SEQEND
8
0
0
POLYLINE
8
0
62
30
66
1
10
0
20
0
30
0
70
8
0
VERTEX
8
0
62
30
10
0.28284253
20
1.3467188
30
0
70
32
0
VERTEX
8
0
62
30
10
0.56568525
20
1.3467188
30
0
70
32
0
SEQEND
8
0
0
POLYLINE
8
0
62
30
66
1
10
0
20
0
30
0
70
8
0
VERTEX
8
0
62
30
10
0.35355321
20
1.2996606
30
0
70
32
0
VERTEX
8
0
62
30
10
0.35355321
20
1.3467188
30
0
70
32
0
SEQEND
8
0
0
POLYLINE
8
0
62
30
66
1
10
0
20
0
30
0
70
8
0
VERTEX
8
0
62
30
10
0.42426389
20
1.2996606
30
0
70
32
0
VERTEX
8
0
62
30
10
0.42426389
20
1.3467188
30
0
70
32
0
SEQEND
8
0
0
POLYLINE
8
0
62
30
66
1
10
0
20
0
30
0
70
8
0
VERTEX
8
0
62
30
10
0.49497457
20
1.3467188
30
0
70
32
0
VERTEX
8
0
62
30
10
0.49497457
20
1.3467188
30
0
70
32
0
SEQEND
8
0
0
POLYLINE
8
0
62
5
66
1
10
0
20
0
30
0
70
8
0
VERTEX
8
0
62
5
10
0.35355321
20
1.2899146
30
0
70
32
0
VERTEX
8
0
62
5
10
0.35355321
20
1.2996606
30
0
70
32
0
SEQEND
8
0
0
POLYLINE
8
0
62
5
66
1
10
0
20
0
30
0
70
8
0
VERTEX
8
0
62
5
10
0.42426389
20
1.2899146
30
0
70
32
0
VERTEX
8
0
62
5
10
0.42426389
20
1.2996606
30
0
70
32
0
SEQEND
8
0
0
POLYLINE
8
0
62
5
66
1
10
0
20
0
30
0
70
8
0
VERTEX
8
0
62
5
10
0.49497457
20
1.2899146
30
0
70
32
0
VERTEX
8
0
62
5
10
0.49497457
20
1.3467188
30
0
70
32
0
SEQEND
8
0
0
POLYLINE
8
0
62
5
66
1
10
0
20
0
30
0
70
8
0
VERTEX
8
0
62
5
10
0.35355321
20
1.3467188
30
0
70
32
0
VERTEX
8
0
62
5
10
0.35355321
20
1.403523
30
0
70
32
0
SEQEND
8
0
0
POLYLINE
8
0
62
5
66
1
10
0
20
0
30
0
70
8
0
VERTEX
8
0
62
5
10
0.42426389
20
1.3467188
30
0
70
32
0
VERTEX
8
0
62
5
10
0.42426389
20
1.403523
30
0
70
32
0
SEQEND
8
0
0
POLYLINE
8
0
62
5
66
1
10
0
20
0
30
0
70
8
0
VERTEX
8
0
62
5
10
0.49497457
20
1.3467188
30
0
70
32
0
VERTEX
8
0
62
5
10
0.49497457
20
1.403523
30
0
70
32
0
SEQEND
8
0
0
POLYLINE
8
0
62
30
66
1
10
0
20
0
30
0
70
8
0
VERTEX
8
0
62
30
10
0.28284253
20
1.3467188
30
0
70
32
0
VERTEX
8
0
62
30
10
0.28284254
20
1.3467188
30
0
70
32
0
VERTEX
8
0
62
30
10
0.28284253
20
1.3467188
30
0
70
32
0
SEQEND
8
0
0
POLYLINE
8
0
62
30
66
1
10
0
20
0
30
0
70
8
0
VERTEX
8
0
62
30
10
0.35355321
20
1.2996606
30
0
70
32
0
VERTEX
8
0
62
30
10
0.37876238
20
1.3467188
30
0
70
32
0
VERTEX
8
0
62
30
10
0.35355321
20
1.3937769
30
0
70
32
0
SEQEND
8
0
0
POLYLINE
8
0
62
30
66
1
10
0
20
0
30
0
70
8
0
VERTEX
8
0
62
30
10
0.42426389
20
1.2996606
30
0
70
32
0
VERTEX
8
0
62
30
10
0.44947306
20
1.3467188
30
0
70
32
0
VERTEX
8
0
62
30
10
0.42426389
20
1.3937769
30
0
70
32
0
SEQEND
8
0
0
POLYLINE
8
0
62
30
66
1
10
0
20
0
30
0
70
8
0
VERTEX
8
0
62
30
10
0.49497457
20
1.3467188
30
0
70
32
0
VERTEX
8
0
62
30
10
0.49497457
20
1.3467188
30
0
70
32
0
VERTEX
8
0
62
30
10
0.49497457
20
1.3467188
30
0
70
32
0
SEQEND
8
0
0
POLYLINE
8
0
62
5
66
1
10
0
20
0
30
0
70
8
0
VERTEX
8
0
62
5
10
-0.28284289
20
1.2899146
30
0
70
32
0
VERTEX
8
0
62
5
10
-0.28284289
20
1.403523
30
0
70
32
0
SEQEND
8
0
0
POLYLINE
8
0
62
5
66
1
10
0
20
0
30
0
70
8
0
VERTEX
8
0
62
5
10
-0.28284289
20
1.3467188
30
0
70
32
0
VERTEX
8
0
62
5
10
-0.21213221
20
1.2996606
30
0
70
32
0
VERTEX
8
0
62
5
10
-0.14142153
20
1.2996606
30
0
70
32
0
VERTEX
8
0
62
5
10
-0.070710856
20
1.3467188
30
0
70
32
0
VERTEX
8
0
62
5
10
-1.7770716e-07
20
1.3467188
30
0
70
32
0
SEQEND
8
0
0
POLYLINE
8
0
62
5
66
1
10
0
20
0
30
0
70
8
0
SEQEND
8
0
0
POLYLINE
8
0
62
5
66
1
10
0
20
0
30
0
70
8
0
VERTEX
8
0
62
5
10
-0.28284289
20
1.3467188
30
0
70
32
0
VERTEX
8
0
62
5
10
-0.21213221
20
1.3937769
30
0
70
32
0
VERTEX
8
0
62
5
10
-0.14142153
20
1.3937769
30
0
70
32
0
VERTEX
8
0
62
5
10
-0.070710856
20
1.3467188
30
0
70
32
0
VERTEX
8
0
62
5
10
-1.7770716e-07
20
1.3467188
30
0
70
32
0
SEQEND
8
0
0
POLYLINE
8
0
62
30
66
1
10
0
20
0
30
0
70
8
0
VERTEX
8
0
62
30
10
-0.28284289
20
1.3467188
30
0
70
32
0
VERTEX
8
0
62
30
10
-1.7770716e-07
20
1.3467188
30
0
70
32
0
SEQEND
8
0
0
POLYLINE
8
0
62
30
66
1
10
0
20
0
30
0
70
8
0
VERTEX
8
0
62
30
10
-0.21213221
20
1.2996606
30
0
70
32
0
VERTEX
8
0
62
30
10
-0.21213221
20
1.3467188
30
0
70
32
0
SEQEND
8
0
0
POLYLINE
8
0
62
30
66
1
10
0
20
0
30
0
70
8
0
VERTEX
8
0
62
30
10
-0.14142153
20
1.2996606
30
0
70
32
0
VERTEX
8
0
62
30
10
-0.14142153
20
1.3467188
30
0
70
32
0
SEQEND
8
0
0
POLYLINE
8
0
62
30
66
1
10
0
20
0
30
0
70
8
0
VERTEX
8
0
62
30
10
-0.070710856
20
1.3467188
30
0
70
32
0
VERTEX
8
0
62
30
10
-0.070710856
20
1.3467188
30
0
70
32
0
SEQEND
8
0
0
POLYLINE
8
0
62
5
66
1
10
0
20
0
30
0
70
8
0
VERTEX
8
0
62
5
10
-0.21213221
20
1.2899146
30
0
70
32
0
VERTEX
8
0
62
5
10
-0.21213221
20
1.2996606
30
0
70
32
0
SEQEND
8
0
0
POLYLINE
8
0
62
5
66
1
10
0
20
0
30
0
70
8
0
VERTEX
8
0
62
5
10
-0.14142153
20
1.2899146
30
0
70
32
0
VERTEX
8
0
62
5
10
-0.14142153
20
1.2996606
30
0
70
32
0
SEQEND
8
0
0
POLYLINE
8
0
62
5
66
1
10
0
20
0
30
0
70
8
0
VERTEX
8
0
62
5
10
-0.070710856
20
1.2899146
30
0
70
32
0
VERTEX
8
0
62
5
10
-0.070710856
20
1.3467188
30
0
70
32
0
SEQEND
8
0
0
POLYLINE
8
0
62
5
66
1
10
0
20
0
30
0
70
8
0
VERTEX
8
0
62
5
10
-0.21213221
20
1.3467188
30
0
70
32
0
VERTEX
8
0
62
5
10
-0.21213221
20
1.403523
30
0
70
32
0
SEQEND
8
0
0
POLYLINE
8
0
62
5
66
1
10
0
20
0
30
0
70
8
0
VERTEX
8
0
62
5
10
-0.14142153
20
1.3467188
30
0
70
32
0
VERTEX
8
0
62
5
10
-0.14142153
20
1.403523
30
0
70
32
0
SEQEND
8
0
0
POLYLINE
8
0
62
5
66
1
10
0
20
0
30
0
70
8
0
VERTEX
8
0
62
5
10
-0.070710856
20
1.3467188
30
0
70
32
0
VERTEX
8
0
62
5
10
-0.070710856
20
1.403523
30
0
70
32
0
SEQEND
8
0
0
POLYLINE
8
0
62
30
66
1
10
0
20
0
30
0
70
8
0
VERTEX
8
0
62
30
10
-0.28284289
20
1.3467188
30
0
70
32
0
VERTEX
8
0
62
30
10
-0.28284289
20
1.3467188
30
0
70
32
0
VERTEX
8
0
62
30
10
-0.28284289
20
1.3467188
30
0
70
32
0
SEQEND
8
0
0
POLYLINE
8
0
62
30
66
1
10
0
20
0
30
0
70
8
0
VERTEX
8
0
62
30
10
-0.21213221
20
1.2996606
30
0
70
32
0
VERTEX
8
0
62
30
10
-0.18692305
20
1.3467188
30
0
70
32
0
VERTEX
8
0
62
30
10
-0.21213221
20
1.3937769
30
0
70
32
0
SEQEND
8
0
0
POLYLINE
8
0
62
30
66
1
10
0
20
0
30
0
70
8
0
VERTEX
8
0
62
30
10
-0.14142153
20
1.2996606
30
0
70
32
0
VERTEX
8
0
62
30
10
-0.11621237
20
1.3467188
30
0
70
32
0
VERTEX
8
0
62
30
10
-0.14142153
20
1.3937769
30
0
70
32
0
SEQEND
8
0
0
POLYLINE
8
0
62
30
66
1
10
0
20
0
30
0
70
8
0
VERTEX
8
0
62
30
10
-0.070710856
20
1.3467188
30
0
70
32
0
VERTEX
8
0
62
30
10
-0.070710856
20
1.3467188
30
0
70
32
0
VERTEX
8
0
62
30
10
-0.070710856
20
1.3467188
30
0
70
32
0
SEQEND
8
0
0
POLYLINE
8
0
62
5
66
1
10
0
20
0
30
0
70
8
0
VERTEX
8
0
62
5
10
-1.7770716e-07
20
1.403523
30
0
70
32
0
VERTEX
8
0
62
5
10
-1.7770716e-07
20
1.4204897
30
0
70
32
0
SEQEND
8
0
0
POLYLINE
8
0
62
5
66
1
10
0
20
0
30
0
70
8
0
VERTEX
8
0
62
5
10
0.0707105
20
1.403523
30
0
70
32
0
VERTEX
8
0
62
5
10
0.0707105
20
1.4204897
30
0
70
32
0
SEQEND
8
0
0
POLYLINE
8
0
62
5
66
1
10
0
20
0
30
0
70
8
0
VERTEX
8
0
62
5
10
0.14142118
20
1.403523
30
0
70
32
0
VERTEX
8
0
62
5
10
0.14142118
20
1.4204897
30
0
70
32
0
SEQEND
8
0
0
POLYLINE
8
0
62
5
66
1
10
0
20
0
30
0
70
8
0
VERTEX
8
0
62
5
10
0.21213186
20
1.403523
30
0
70
32
0
VERTEX
8
0
62
5
10
0.21213186
20
1.4204897
30
0
70
32
0
SEQEND
8
0
0
POLYLINE
8
0
62
5
66
1
10
0
20
0
30
0
70
8
0
VERTEX
8
0
62
5
10
0.28284253
20
1.403523
30
0
70
32
0
VERTEX
8
0
62
5
10
0.28284253
20
1.4204897
30
0
70
32
0
SEQEND
8
0
0
POLYLINE
8
0
62
5
66
1
10
0
20
0
30
0
70
8
0
VERTEX
8
0
62
5
10
0.0707105
20
1.403523
30
0
70
32
0
VERTEX
8
0
62
5
10
0.0707105
20
1.403523
30
0
70
32
0
SEQEND
8
0
0
POLYLINE
8
0
62
5
66
1
10
0
20
0
30
0
70
8
0
VERTEX
8
0
62
5
10
0.14142118
20
1.403523
30
0
70
32
0
VERTEX
8
0
62
5
10
0.14142118
20
1.403523
30
0
70
32
0
SEQEND
8
0
0
POLYLINE
8
0
62
5
66
1
10
0
20
0
30
0
70
8
0
VERTEX
8
0
62
5
10
0.21213186
20
1.403523
30
0
70
32
0
VERTEX
8
0
62
5
10
0.21213186
20
1.403523
30
0
70
32
0
SEQEND
8
0
0
POLYLINE
8
0
62
5
66
1
10
0
20
0
30
0
70
8
0
VERTEX
8
0
62
5
10
0.0707105
20
1.4204897
30
0
70
32
0
VERTEX
8
0
62
5
10
0.0707105
20
1.4204897
30
0
70
32
0
SEQEND
8
0
0
POLYLINE
8
0
62
5
66
1
10
0
20
0
30
0
70
8
0
VERTEX
8
0
62
5
10
0.14142118
20
1.4204897
30
0
70
32
0
VERTEX
8
0
62
5
10
0.14142118
20
1.4204897
30
0
70
32
0
SEQEND
8
0
0
POLYLINE
8
0
62
5
66
1
10
0
20
0
30
0
70
8
0
VERTEX
8
0
62
5
10
0.21213186
20
1.4204897
30
0
70
32
0
VERTEX
8
0
62
5
10
0.21213186
20
1.4204897
30
0
70
32
0
SEQEND
8
0
0
POLYLINE
8
0
62
5
66
1
10
0
20
0
30
0
70
8
0
VERTEX
8
0
62
5
10
0.28284253
20
1.4204897
30
0
70
32
0
VERTEX
8
0
62
5
10
0.28284253
20
1.4204897
30
0
70
32
0
SEQEND
8
0
0
POLYLINE
8
0
62
5
66
1
10
0
20
0
30
0
70
8
0
VERTEX
8
0
62
5
10
0.35355321
20
1.403523
30
0
70
32
0
VERTEX
8
0
62
5
10
0.35355321
20
1.4204897
30
0
70
32
0
SEQEND
8
0
0
POLYLINE
8
0
62
5
66
1
10
0
20
0
30
0
70
8
0
VERTEX
8
0
62
5
10
0.42426389
20
1.403523
30
0
70
32
0
VERTEX
8
0
62
5
10
0.42426389
20
1.4204897
30
0
70
32
0
SEQEND
8
0
0
POLYLINE
8
0
62
5
66
1
10
0
20
0
30
0
70
8
0
VERTEX
8
0
62
5
10
0.49497457
20
1.403523
30
0
70
32
0
VERTEX
8
0
62
5
10
0.49497457
20
1.4204897
30
0
70
32
0
SEQEND
8
0
0
POLYLINE
8
0
62
5
66
1
10
0
20
0
30
0
70
8
0
VERTEX
8
0
62
5
10
0.56568525
20
1.403523
30
0
70
32
0
VERTEX
8
0
62
5
10
0.56568525
20
1.4204897
30
0
70
32
0
SEQEND
8
0
0
POLYLINE
8
0
62
5
66
1
10
0
20
0
30
0
70
8
0
VERTEX
8
0
62
5
10
0.35355321
20
1.403523
30
0
70
32
0
VERTEX
8
0
62
5
10
0.35355321
20
1.403523
30
0
70
32
0
SEQEND
8
0
0
POLYLINE
8
0
62
5
66
1
10
0
20
0
30
0
70
8
0
VERTEX
8
0
62
5
10
0.42426389
20
1.403523
30
0
70
32
0
VERTEX
8
0
62
5
10
0.42426389
20
1.403523
30
0
70
32
0
SEQEND
8
0
0
POLYLINE
8
0
62
5
66
1
10
0
20
0
30
0
70
8
0
VERTEX
8
0
62
5
10
0.49497457
20
1.403523
30
0
70
32
0
VERTEX
8
0
62
5
10
0.49497457
20
1.403523
30
0
70
32
0
SEQEND
8
0
0
POLYLINE
8
0
62
5
66
1
10
0
20
0
30
0
70
8
0
VERTEX
8
0
62
5
10
0.35355321
20
1.4204897
30
0
70
32
0
VERTEX
8
0
62
5
10
0.35355321
20
1.4204897
30
0
70
32
0
SEQEND
8
0
0
POLYLINE
8
0
62
5
66
1
10
0
20
0
30
0
70
8
0
VERTEX
8
0
62
5
10
0.42426389
20
1.4204897
30
0
70
32
0
VERTEX
8
0
62
5
10
0.42426389
20
1.4204897
30
0
70
32
0
SEQEND
8
0
0
POLYLINE
8
0
62
5
66
1
10
0
20
0
30
0
70
8
0
VERTEX
8
0
62
5
10
0.49497457
20
1.4204897
30
0
70
32
0
VERTEX
8
0
62
5
10
0.49497457
20
1.4204897
30
0
70
32
0
SEQEND
8
0
0
POLYLINE
8
0
62
5
66
1
10
0
20
0
30
0
70
8
0
VERTEX
8
0
62
5
10
0.56568525
20
1.4204897
30
0
70
32
0
VERTEX
8
0
62
5
10
0.56568525
20
1.4204897
30
0
70
32
0
SEQEND
8
0
0
POLYLINE
8
0
62
5
66
1
10
0
20
0
30
0
70
8
0
VERTEX
8
0
62
5
10
-0.21213221
20
1.403523
30
0
70
32
0
VERTEX
8
0
62
5
10
-0.21213221
20
1.4204897
30
0
70
32
0
SEQEND
8
0
0
POLYLINE
8
0
62
5
66
1
10
0
20
0
30
0
70
8
0
VERTEX
8
0
62
5
10
-0.14142153
20
1.403523
30
0
70
32
0
VERTEX
8
0
62
5
10
-0.14142153
20
1.4204897
30
0
70
32
0
SEQEND
8
0
0
POLYLINE
8
0
62
5
66
1
10
0
20
0
30
0
70
8
0
VERTEX
8
0
62
5
10
-0.070710856
20
1.403523
30
0
70
32
0
VERTEX
8
0
62
5
10
-0.070710856
20
1.4204897
30
0
70
32
0
SEQEND
8
0
0
POLYLINE
8
0
62
5
66
1
10
0
20
0
30
0
70
8
0
VERTEX
8
0
62
5
10
-1.7770716e-07
20
1.403523
30
0
70
32
0
VERTEX
8
0
62
5
10
-1.7770716e-07
20
1.4204897
30
0
70
32
0
SEQEND
8
0
0
POLYLINE
8
0
62
5
66
1
10
0
20
0
30
0
70
8
0
VERTEX
8
0
62
5
10
-0.21213221
20
1.403523
30
0
70
32
0
VERTEX
8
0
62
5
10
-0.21213221
20
1.403523
30
0
70
32
0
SEQEND
8
0
0
POLYLINE
8
0
62
5
66
1
10
0
20
0
30
0
70
8
0
VERTEX
8
0
62
5
10
-0.14142153
20
1.403523
30
0
70
32
0
VERTEX
8
0
62
5
10
-0.14142153
20
1.403523
30
0
70
32
0
SEQEND
8
0
0
POLYLINE
8
0
62
5
66
1
10
0
20
0
30
0
70
8
0
VERTEX
8
0
62
5
10
-0.070710856
20
1.403523
30
0
70
32
0
VERTEX
8
0
62
5
10
-0.070710856
20
1.403523
30
0
70
32
0
SEQEND
8
0
0
POLYLINE
8
0
62
5
66
1
10
0
20
0
30
0
70
8
0
VERTEX
8
0
62
5
10
-0.21213221
20
1.4204897
30
0
70
32
0
VERTEX
8
0
62
5
10
-0.21213221
20
1.4204897
30
0
70
32
0
SEQEND
8
0
0
POLYLINE
8
0
62
5
66
1
10
0
20
0
30
0
70
8
0
VERTEX
8
0
62
5
10
-0.14142153
20
1.4204897
30
0
70
32
0
VERTEX
8
0
62
5
10
-0.14142153
20
1.4204897
30
0
70
32
0
SEQEND
8
0
0
POLYLINE
8
0
62
5
66
1
10
0
20
0
30
0
70
8
0
VERTEX
8
0
62
5
10
-0.070710856
20
1.4204897
30
0
70
32
0
VERTEX
8
0
62
5
10
-0.070710856
20
1.4204897
30
0
70
32
0
SEQEND
8
0
0
POLYLINE
8
0
62
5
66
1
10
0
20
0
30
0
70
8
0
VERTEX
8
0
62
5
10
-1.7801345e-07
20
1.4204897
30
0
70
32
0
VERTEX
8
0
62
5
10
-1.7801345e-07
20
1.4204897
30
0
70
32
0
SEQEND
8
0
0
POLYLINE
8
0
62
5
66
1
10
0
20
0
30
0
70
8
0
VERTEX
8
0
62
5
10
-1.7801345e-07
20
1.4204897
30
0
70
32
0
VERTEX
8
0
62
5
10
-1.7801345e-07
20
1.4883563
30
0
70
32
0
SEQEND
8
0
0
POLYLINE
8
0
62
5
66
1
10
0
20
0
30
0
70
8
0
VERTEX
8
0
62
5
10
0.28284253
20
1.4204897
30
0
70
32
0
VERTEX
8
0
62
5
10
0.28284253
20
1.4883563
30
0
70
32
0
SEQEND
8
0
0
POLYLINE
8
0
62
5
66
1
10
0
20
0
30
0
70
8
0
VERTEX
8
0
62
5
10
0.0707105
20
1.4204897
30
0
70
32
0
VERTEX
8
0
62
5
10
0.0707105
20
1.4883563
30
0
70
32
0
SEQEND
8
0
0
POLYLINE
8
0
62
5
66
1
10
0
20
0
30
0
70
8
0
VERTEX
8
0
62
5
10
0.14142118
20
1.4204897
30
0
70
32
0
VERTEX
8
0
62
5
10
0.14142118
20
1.4883563
30
0
70
32
0
SEQEND
8
0
0
POLYLINE
8
0
62
5
66
1
10
0
20
0
30
0
70
8
0
VERTEX
8
0
62
5
10
0.21213186
20
1.4204897
30
0
70
32
0
VERTEX
8
0
62
5
10
0.21213186
20
1.4883563
30
0
70
32
0
SEQEND
8
0
0
POLYLINE
8
0
62
5
66
1
10
0
20
0
30
0
70
8
0
VERTEX
8
0
62
5
10
0.56568525
20
1.4204897
30
0
70
32
0
VERTEX
8
0
62
5
10
0.56568525
20
1.4883563
30
0
70
32
0
SEQEND
8
0
0
POLYLINE
8
0
62
5
66
1
10
0
20
0
30
0
70
8
0
VERTEX
8
0
62
5
10
0.35355321
20
1.4204897
30
0
70
32
0
VERTEX
8
0
62
5
10
0.35355321
20
1.4883563
30
0
70
32
0
SEQEND
8
0
0
POLYLINE
8
0
62
5
66
1
10
0
20
0
30
0
70
8
0
VERTEX
8
0
62
5
10
0.42426389
20
1.4204897
30
0
70
32
0
VERTEX
8
0
62
5
10
0.42426389
20
1.4883563
30
0
70
32
0
SEQEND
8
0
0
POLYLINE
8
0
62
5
66
1
10
0
20
0
30
0
70
8
0
VERTEX
8
0
62
5
10
0.49497457
20
1.4204897
30
0
70
32
0
VERTEX
8
0
62
5
10
0.49497457
20
1.4883563
30
0
70
32
0
SEQEND
8
0
0
POLYLINE
8
0
62
5
66
1
10
0
20
0
30
0
70
8
0
VERTEX
8
0
62
5
10
-0.28284289
20
1.4204897
30
0
70
32
0
VERTEX
8
0
62
5
10
-0.28284289
20
1.4883563
30
0
70
32
0
SEQEND
8
0
0
POLYLINE
8
0
62
5
66
1
10
0
20
0
30
0
70
8
0
VERTEX
8
0
62
5
10
-0.21213221
20
1.4204897
30
0
70
32
0
VERTEX
8
0
62
5
10
-0.21213221
20
1.4883563
30
0
70
32
0
SEQEND
8
0
0
POLYLINE
8
0
62
5
66
1
10
0
20
0
30
0
70
8
0
VERTEX
8
0
62
5
10
-0.14142153
20
1.4204897
30
0
70
32
0
VERTEX
8
0
62
5
10
-0.14142153
20
1.4883563
30
0
70
32
0
SEQEND
8
0
0
POLYLINE
8
0
62
5
66
1
10
0
20
0
30
0
70
8
0
VERTEX
8
0
62
5
10
-0.070710856
20
1.4204897
30
0
70
32
0
VERTEX
8
0
62
5
10
-0.070710856
20
1.4883563
30
0
70
32
0
SEQEND
8
0
0
POLYLINE
8
0
62
5
66
1
10
0
20
0
30
0
70
8
0
VERTEX
8
0
62
5
10
-1.7801345e-07
20
1.4883563
30
0
70
32
0
VERTEX
8
0
62
5
10
-1.7801345e-07
20
1.5219842
30
0
70
32
0
SEQEND
8
0
0
POLYLINE
8
0
62
5
66
1
10
0
20
0
30
0
70
8
0
VERTEX
8
0
62
5
10
0.28284253
20
1.5219842
30
0
70
32
0
VERTEX
8
0
62
5
10
0.28284253
20
1.4883563
30
0
70
32
0
SEQEND
8
0
0
POLYLINE
8
0
62
5
66
1
10
0
20
0
30
0
70
8
0
VERTEX
8
0
62
5
10
-1.7801345e-07
20
1.4912412
30
0
70
32
0
VERTEX
8
0
62
5
10
0.0707105
20
1.5051703
30
0
70
32
0
VERTEX
8
0
62
5
10
0.14142118
20
1.5051703
30
0
70
32
0
VERTEX
8
0
62
5
10
0.21213186
20
1.4912412
30
0
70
32
0
VERTEX
8
0
62
5
10
0.28284253
20
1.4912412
30
0
70
32
0
SEQEND
8
0
0
POLYLINE
8
0
62
5
66
1
10
0
20
0
30
0
70
8
0
SEQEND
8
0
0
POLYLINE
8
0
62
5
66
1
10
0
20
0
30
0
70
8
0
VERTEX
8
0
62
5
10
-1.7801345e-07
20
1.5190994
30
0
70
32
0
VERTEX
8
0
62
5
10
0.0707105
20
1.5051703
30
0
70
32
0
VERTEX
8
0
62
5
10
0.14142118
20
1.5051703
30
0
70
32
0
VERTEX
8
0
62
5
10
0.21213186
20
1.5190994
30
0
70
32
0
VERTEX
8
0
62
5
10
0.28284253
20
1.5190994
30
0
70
32
0
SEQEND
8
0
0
POLYLINE
8
0
62
30
66
1
10
0
20
0
30
0
70
8
0
VERTEX
8
0
62
30
10
-1.7801345e-07
20
1.5051703
30
0
70
32
0
VERTEX
8
0
62
30
10
0.28284253
20
1.5051703
30
0
70
32
0
SEQEND
8
0
0
POLYLINE
8
0
62
30
66
1
10
0
20
0
30
0
70
8
0
VERTEX
8
0
62
30
10
0.0707105
20
1.5051703
30
0
70
32
0
VERTEX
8
0
62
30
10
0.0707105
20
1.5051703
30
0
70
32
0
SEQEND
8
0
0
POLYLINE
8
0
62
30
66
1
10
0
20
0
30
0
70
8
0
VERTEX
8
0
62
30
10
0.14142118
20
1.5051703
30
0
70
32
0
VERTEX
8
0
62
30
10
0.14142118
20
1.5051703
30
0
70
32
0
SEQEND
8
0
0
POLYLINE
8
0
62
30
66
1
10
0
20
0
30
0
70
8
0
VERTEX
8
0
62
30
10
0.21213186
20
1.4912412
30
0
70
32
0
VERTEX
8
0
62
30
10
0.21213186
20
1.5051703
30
0
70
32
0
SEQEND
8
0
0
POLYLINE
8
0
62
5
66
1
10
0
20
0
30
0
70
8
0
VERTEX
8
0
62
5
10
0.0707105
20
1.4883563
30
0
70
32
0
VERTEX
8
0
62
5
10
0.0707105
20
1.5051703
30
0
70
32
0
SEQEND
8
0
0
POLYLINE
8
0
62
5
66
1
10
0
20
0
30
0
70
8
0
VERTEX
8
0
62
5
10
0.14142118
20
1.4883563
30
0
70
32
0
VERTEX
8
0
62
5
10
0.14142118
20
1.5051703
30
0
70
32
0
SEQEND
8
0
0
POLYLINE
8
0
62
5
66
1
10
0
20
0
30
0
70
8
0
VERTEX
8
0
62
5
10
0.21213186
20
1.4883563
30
0
70
32
0
VERTEX
8
0
62
5
10
0.21213186
20
1.4912412
30
0
70
32
0
SEQEND
8
0
0
POLYLINE
8
0
62
5
66
1
10
0
20
0
30
0
70
8
0
VERTEX
8
0
62
5
10
0.0707105
20
1.5051703
30
0
70
32
0
VERTEX
8
0
62
5
10
0.0707105
20
1.5219842
30
0
70
32
0
SEQEND
8
0
0
POLYLINE
8
0
62
5
66
1
10
0
20
0
30
0
70
8
0
VERTEX
8
0
62
5
10
0.14142118
20
1.5051703
30
0
70
32
0
VERTEX
8
0
62
5
10
0.14142118
20
1.5219842
30
0
70
32
0
SEQEND
8
0
0
POLYLINE
8
0
62
5
66
1
10
0
20
0
30
0
70
8
0
VERTEX
8
0
62
5
10
0.21213186
20
1.5051703
30
0
70
32
0
VERTEX
8
0
62
5
10
0.21213186
20
1.5219842
30
0
70
32
0
SEQEND
8
0
0
POLYLINE
8
0
62
30
66
1
10
0
20
0
30
0
70
8
0
VERTEX
8
0
62
30
10
-1.7801345e-07
20
1.4912412
30
0
70
32
0
VERTEX
8
0
62
30
10
0.01145276
20
1.5051703
30
0
70
32
0
VERTEX
8
0
62
30
10
-1.7801345e-07
20
1.5190994
30
0
70
32
0
SEQEND
8
0
0
POLYLINE
8
0
62
30
66
1
10
0
20
0
30
0
70
8
0
VERTEX
8
0
62
30
10
0.0707105
20
1.5051703
30
0
70
32
0
VERTEX
8
0
62
30
10
0.0707105
20
1.5051703
30
0
70
32
0
VERTEX
8
0
62
30
10
0.0707105
20
1.5051703
30
0
70
32
0
SEQEND
8
0
0
POLYLINE
8
0
62
30
66
1
10
0
20
0
30
0
70
8
0
VERTEX
8
0
62
30
10
0.14142118
20
1.5051703
30
0
70
32
0
VERTEX
8
0
62
30
10
0.14142118
20
1.5051703
30
0
70
32
0
VERTEX
8
0
62
30
10
0.14142118
20
1.5051703
30
0
70
32
0
SEQEND
8
0
0
POLYLINE
8
0
62
30
66
1
10
0
20
0
30
0
70
8
0
VERTEX
8
0
62
30
10
0.21213186
20
1.4912412
30
0
70
32
0
VERTEX
8
0
62
30
10
0.22358479
20
1.5051703
30
0
70
32
0
VERTEX
8
0
62
30
10
0.21213186
20
1.5190994
30
0
70
32
0
SEQEND
8
0
0
POLYLINE
8
0
62
5
66
1
10
0
20
0
30
0
70
8
0
VERTEX
8
0
62
5
10
0.56568525
20
1.5219842
30
0
70
32
0
VERTEX
8
0
62
5
10
0.56568525
20
1.4883563
30
0
70
32
0
SEQEND
8
0
0
POLYLINE
8
0
62
5
66
1
10
0
20
0
30
0
70
8
0
VERTEX
8
0
62
5
10
0.28284253
20
1.4912412
30
0
70
32
0
VERTEX
8
0
62
5
10
0.35355321
20
1.5051703
30
0
70
32
0
VERTEX
8
0
62
5
10
0.42426389
20
1.5051703
30
0
70
32
0
VERTEX
8
0
62
5
10
0.49497457
20
1.4912412
30
0
70
32
0
VERTEX
8
0
62
5
10
0.56568525
20
1.4912412
30
0
70
32
0
SEQEND
8
0
0
POLYLINE
8
0
62
5
66
1
10
0
20
0
30
0
70
8
0
SEQEND
8
0
0
POLYLINE
8
0
62
5
66
1
10
0
20
0
30
0
70
8
0
VERTEX
8
0
62
5
10
0.28284253
20
1.5190994
30
0
70
32
0
VERTEX
8
0
62
5
10
0.35355321
20
1.5051703
30
0
70
32
0
VERTEX
8
0
62
5
10
0.42426389
20
1.5051703
30
0
70
32
0
VERTEX
8
0
62
5
10
0.49497457
20
1.5190994
30
0
70
32
0
VERTEX
8
0
62
5
10
0.56568525
20
1.5190994
30
0
70
32
0
SEQEND
8
0
0
POLYLINE
8
0
62
30
66
1
10
0
20
0
30
0
70
8
0
VERTEX
8
0
62
30
10
0.28284253
20
1.5051703
30
0
70
32
0
VERTEX
8
0
62
30
10
0.56568525
20
1.5051703
30
0
70
32
0
SEQEND
8
0
0
POLYLINE
8
0
62
30
66
1
10
0
20
0
30
0
70
8
0
VERTEX
8
0
62
30
10
0.35355321
20
1.5051703
30
0
70
32
0
VERTEX
8
0
62
30
10
0.35355321
20
1.5051703
30
0
70
32
0
SEQEND
8
0
0
POLYLINE
8
0
62
30
66
1
10
0
20
0
30
0
70
8
0
VERTEX
8
0
62
30
10
0.42426389
20
1.5051703
30
0
70
32
0
VERTEX
8
0
62
30
10
0.42426389
20
1.5051703
30
0
70
32
0
SEQEND
8
0
0
POLYLINE
8
0
62
30
66
1
10
0
20
0
30
0
70
8
0
VERTEX
8
0
62
30
10
0.49497457
20
1.4912412
30
0
70
32
0
VERTEX
8
0
62
30
10
0.49497457
20
1.5051703
30
0
70
32
0
SEQEND
8
0
0
POLYLINE
8
0
62
5
66
1
10
0
20
0
30
0
70
8
0
VERTEX
8
0
62
5
10
0.35355321
20
1.4883563
30
0
70
32
0
VERTEX
8
0
62
5
10
0.35355321
20
1.5051703
30
0
70
32
0
SEQEND
8
0
0
POLYLINE
8
0
62
5
66
1
10
0
20
0
30
0
70
8
0
VERTEX
8
0
62
5
10
0.42426389
20
1.4883563
30
0
70
32
0
VERTEX
8
0
62
5
10
0.42426389
20
1.5051703
30
0
70
32
0
SEQEND
8
0
0
POLYLINE
8
0
62
5
66
1
10
0
20
0
30
0
70
8
0
VERTEX
8
0
62
5
10
0.49497457
20
1.4883563
30
0
70
32
0
VERTEX
8
0
62
5
10
0.49497457
20
1.4912412
30
0
70
32
0
SEQEND
8
0
0
POLYLINE
8
0
62
5
66
1
10
0
20
0
30
0
70
8
0
VERTEX
8
0
62
5
10
0.35355321
20
1.5051703
30
0
70
32
0
VERTEX
8
0
62
5
10
0.35355321
20
1.5219842
30
0
70
32
0
SEQEND
8
0
0
POLYLINE
8
0
62
5
66
1
10
0
20
0
30
0
70
8
0
VERTEX
8
0
62
5
10
0.42426389
20
1.5051703
30
0
70
32
0
VERTEX
8
0
62
5
10
0.42426389
20
1.5219842
30
0
70
32
0
SEQEND
8
0
0
POLYLINE
8
0
62
5
66
1
10
0
20
0
30
0
70
8
0
VERTEX
8
0
62
5
10
0.49497457
20
1.5051703
30
0
70
32
0
VERTEX
8
0
62
5
10
0.49497457
20
1.5219842
30
0
70
32
0
SEQEND
8
0
0
POLYLINE
8
0
62
30
66
1
10
0
20
0
30
0
70
8
0
VERTEX
8
0
62
30
10
0.28284253
20
1.4912412
30
0
70
32
0
VERTEX
8
0
62
30
10
0.29429547
20
1.5051703
30
0
70
32
0
VERTEX
8
0
62
30
10
0.28284253
20
1.5190994
30
0
70
32
0
SEQEND
8
0
0
POLYLINE
8
0
62
30
66
1
10
0
20
0
30
0
70
8
0
VERTEX
8
0
62
30
10
0.35355321
20
1.5051703
30
0
70
32
0
VERTEX
8
0
62
30
10
0.35355321
20
1.5051703
30
0
70
32
0
VERTEX
8
0
62
30
10
0.35355321
20
1.5051703
30
0
70
32
0
SEQEND
8
0
0
POLYLINE
8
0
62
30
66
1
10
0
20
0
30
0
70
8
0
VERTEX
8
0
62
30
10
0.42426389
20
1.5051703
30
0
70
32
0
VERTEX
8
0
62
30
10
0.42426389
20
1.5051703
30
0
70
32
0
VERTEX
8
0
62
30
10
0.42426389
20
1.5051703
30
0
70
32
0
SEQEND
8
0
0
POLYLINE
8
0
62
30
66
1
10
0
20
0
30
0
70
8
0
VERTEX
8
0
62
30
10
0.49497457
20
1.4912412
30
0
70
32
0
VERTEX
8
0
62
30
10
0.50642751
20
1.5051703
30
0
70
32
0
VERTEX
8
0
62
30
10
0.49497457
20
1.5190994
30
0
70
32
0
SEQEND
8
0
0
POLYLINE
8
0
62
5
66
1
10
0
20
0
30
0
70
8
0
VERTEX
8
0
62
5
10
-0.28284289
20
1.4883563
30
0
70
32
0
VERTEX
8
0
62
5
10
-0.28284289
20
1.5219842
30
0
70
32
0
SEQEND
8
0
0
POLYLINE
8
0
62
5
66
1
10
0
20
0
30
0
70
8
0
VERTEX
8
0
62
5
10
-0.28284289
20
1.4912412
30
0
70
32
0
VERTEX
8
0
62
5
10
-0.21213221
20
1.5051703
30
0
70
32
0
VERTEX
8
0
62
5
10
-0.14142153
20
1.5051703
30
0
70
32
0
VERTEX
8
0
62
5
10
-0.070710856
20
1.4912412
30
0
70
32
0
VERTEX
8
0
62
5
10
-1.7801345e-07
20
1.4912412
30
0
70
32
0
SEQEND
8
0
0
POLYLINE
8
0
62
5
66
1
10
0
20
0
30
0
70
8
0
SEQEND
8
0
0
POLYLINE
8
0
62
5
66
1
10
0
20
0
30
0
70
8
0
VERTEX
8
0
62
5
10
-0.28284289
20
1.5190994
30
0
70
32
0
VERTEX
8
0
62
5
10
-0.21213221
20
1.5051703
30
0
70
32
0
VERTEX
8
0
62
5
10
-0.14142153
20
1.5051703
30
0
70
32
0
VERTEX
8
0
62
5
10
-0.070710856
20
1.5190994
30
0
70
32
0
VERTEX
8
0
62
5
10
-1.7801345e-07
20
1.5190994
30
0
70
32
0
SEQEND
8
0
0
POLYLINE
8
0
62
30
66
1
10
0
20
0
30
0
70
8
0
VERTEX
8
0
62
30
10
-0.28284289
20
1.5051703
30
0
70
32
0
VERTEX
8
0
62
30
10
-1.7801345e-07
20
1.5051703
30
0
70
32
0
SEQEND
8
0
0
POLYLINE
8
0
62
30
66
1
10
0
20
0
30
0
70
8
0
VERTEX
8
0
62
30
10
-0.21213221
20
1.5051703
30
0
70
32
0
VERTEX
8
0
62
30
10
-0.21213221
20
1.5051703
30
0
70
32
0
SEQEND
8
0
0
POLYLINE
8
0
62
30
66
1
10
0
20
0
30
0
70
8
0
VERTEX
8
0
62
30
10
-0.14142153
20
1.5051703
30
0
70
32
0
VERTEX
8
0
62
30
10
-0.14142153
20
1.5051703
30
0
70
32
0
SEQEND
8
0
0
POLYLINE
8
0
62
30
66
1
10
0
20
0
30
0
70
8
0
VERTEX
8
0
62
30
10
-0.070710856
20
1.4912412
30
0
70
32
0
VERTEX
8
0
62
30
10
-0.070710856
20
1.5051703
30
0
70
32
0
SEQEND
8
0
0
POLYLINE
8
0
62
5
66
1
10
0
20
0
30
0
70
8
0
VERTEX
8
0
62
5
10
-0.21213221
20
1.4883563
30
0
70
32
0
VERTEX
8
0
62
5
10
-0.21213221
20
1.5051703
30
0
70
32
0
SEQEND
8
0
0
POLYLINE
8
0
62
5
66
1
10
0
20
0
30
0
70
8
0
VERTEX
8
0
62
5
10
-0.14142153
20
1.4883563
30
0
70
32
0
VERTEX
8
0
62
5
10
-0.14142153
20
1.5051703
30
0
70
32
0
SEQEND
8
0
0
POLYLINE
8
0
62
5
66
1
10
0
20
0
30
0
70
8
0
VERTEX
8
0
62
5
10
-0.070710856
20
1.4883563
30
0
70
32
0
VERTEX
8
0
62
5
10
-0.070710856
20
1.4912412
30
0
70
32
0
SEQEND
8
0
0
POLYLINE
8
0
62
5
66
1
10
0
20
0
30
0
70
8
0
VERTEX
8
0
62
5
10
-0.21213221
20
1.5051703
30
0
70
32
0
VERTEX
8
0
62
5
10
-0.21213221
20
1.5219842
30
0
70
32
0
SEQEND
8
0
0
POLYLINE
8
0
62
5
66
1
10
0
20
0
30
0
70
8
0
VERTEX
8
0
62
5
10
-0.14142153
20
1.5051703
30
0
70
32
0
VERTEX
8
0
62
5
10
-0.14142153
20
1.5219842
30
0
70
32
0
SEQEND
8
0
0
POLYLINE
8
0
62
5
66
1
10
0
20
0
30
0
70
8
0
VERTEX
8
0
62
5
10
-0.070710856
20
1.5051703
30
0
70
32
0
VERTEX
8
0
62
5
10
-0.070710856
20
1.5219842
30
0
70
32
0
SEQEND
8
0
0
POLYLINE
8
0
62
30
66
1
10
0
20
0
30
0
70
8
0
VERTEX
8
0
62
30
10
-0.28284289
20
1.4912412
30
0
70
32
0
VERTEX
8
0
62
30
10
-0.27138995
20
1.5051703
30
0
70
32
0
VERTEX
8
0
62
30
10
-0.28284289
20
1.5190994
30
0
70
32
0
SEQEND
8
0
0
POLYLINE
8
0
62
30
66
1
10
0
20
0
30
0
70
8
0
VERTEX
8
0
62
30
10
-0.21213221
20
1.5051703
30
0
70
32
0
VERTEX
8
0
62
30
10
-0.21213221
20
1.5051703
30
0
70
32
0
VERTEX
8
0
62
30
10
-0.21213221
20
1.5051703
30
0
70
32
0
SEQEND
8
0
0
POLYLINE
8
0
62
30
66
1
10
0
20
0
30
0
70
8
0
VERTEX
8
0
62
30
10
-0.14142153
20
1.5051703
30
0
70
32
0
VERTEX
8
0
62
30
10
-0.14142153
20
1.5051703
30
0
70
32
0
VERTEX
8
0
62
30
10
-0.14142153
20
1.5051703
30
0
70
32
0
SEQEND
8
0
0
POLYLINE
8
0
62
30
66
1
10
0
20
0
30
0
70
8
0
VERTEX
8
0
62
30
10
-0.070710856
20
1.4912412
30
0
70
32
0
VERTEX
8
0
62
30
10
-0.059257918
20
1.5051703
30
0
70
32
0
VERTEX
8
0
62
30
10
-0.070710856
20
1.5190994
30
0
70
32
0
SEQEND
8
0
0
POLYLINE
8
0
62
5
66
1
10
0
20
0
30
0
70
8
0
VERTEX
8
0
62
5
10
-1.7801345e-07
20
1.5219842
30
0
70
32
0
VERTEX
8
0
62
5
10
-1.7801345e-07
20
1.6219842
30
0
70
32
0
SEQEND
8
0
0
POLYLINE
8
0
62
5
66
1
10
0
20
0
30
0
70
8
0
VERTEX
8
0
62
5
10
0.28284253
20
1.6219842
30
0
70
32
0
VERTEX
8
0
62
5
10
0.28284253
20
1.5219842
30
0
70
32
0
SEQEND
8
0
0
POLYLINE
8
0
62
5
66
1
10
0
20
0
30
0
70
8
0
VERTEX
8
0
62
5
10
-1.7801345e-07
20
1.5219842
30
0
70
32
0
VERTEX
8
0
62
5
10
0.28284253
20
1.5219842
30
0
70
32
0
SEQEND
8
0
0
POLYLINE
8
0
62
5
66
1
10
0
20
0
30
0
70
8
0
VERTEX
8
0
62
5
10
-1.7801345e-07
20
1.6219842
30
0
70
32
0
VERTEX
8
0
62
5
10
0.28284253
20
1.6219842
30
0
70
32
0
SEQEND
8
0
0
POLYLINE
8
0
62
5
66
1
10
0
20
0
30
0
70
8
0
VERTEX
8
0
62
5
10
0.0707105
20
1.5219842
30
0
70
32
0
VERTEX
8
0
62
5
10
0.0707105
20
1.5219842
30
0
70
32
0
SEQEND
8
0
0
POLYLINE
8
0
62
5
66
1
10
0
20
0
30
0
70
8
0
VERTEX
8
0
62
5
10
0.14142118
20
1.5219842
30
0
70
32
0
VERTEX
8
0
62
5
10
0.14142118
20
1.5219842
30
0
70
32
0
SEQEND
8
0
0
POLYLINE
8
0
62
5
66
1
10
0
20
0
30
0
70
8
0
VERTEX
8
0
62
5
10
0.21213186
20
1.5219842
30
0
70
32
0
VERTEX
8
0
62
5
10
0.21213186
20
1.5219842
30
0
70
32
0
SEQEND
8
0
0
POLYLINE
8
0
62
5
66
1
10
0
20
0
30
0
70
8
0
VERTEX
8
0
62
5
10
0.0707105
20
1.6219842
30
0
70
32
0
VERTEX
8
0
62
5
10
0.0707105
20
1.6219842
30
0
70
32
0
SEQEND
8
0
0
POLYLINE
8
0
62
5
66
1
10
0
20
0
30
0
70
8
0
VERTEX
8
0
62
5
10
0.14142118
20
1.6219842
30
0
70
32
0
VERTEX
8
0
62
5
10
0.14142118
20
1.6219842
30
0
70
32
0
SEQEND
8
0
0
POLYLINE
8
0
62
5
66
1
10
0
20
0
30
0
70
8
0
VERTEX
8
0
62
5
10
0.21213186
20
1.6219842
30
0
70
32
0
VERTEX
8
0
62
5
10
0.21213186
20
1.6219842
30
0
70
32
0
SEQEND
8
0
0
POLYLINE
8
0
62
30
66
1
10
0
20
0
30
0
70
8
0
VERTEX
8
0
62
30
10
-1.7801345e-07
20
1.5219842
30
0
70
32
0
VERTEX
8
0
62
30
10
0.035355161
20
1.5719842
30
0
70
32
0
SEQEND
8
0
0
POLYLINE
8
0
62
30
66
1
10
0
20
0
30
0
70
8
0
VERTEX
8
0
62
30
10
0.035355161
20
1.5719842
30
0
70
32
0
VERTEX
8
0
62
30
10
0.0707105
20
1.5219842
30
0
70
32
0
SEQEND
8
0
0
POLYLINE
8
0
62
30
66
1
10
0
20
0
30
0
70
8
0
VERTEX
8
0
62
30
10
0.14142118
20
1.5219842
30
0
70
32
0
VERTEX
8
0
62
30
10
0.17677652
20
1.5719842
30
0
70
32
0
SEQEND
8
0
0
POLYLINE
8
0
62
30
66
1
10
0
20
0
30
0
70
8
0
VERTEX
8
0
62
30
10
0.17677652
20
1.5719842
30
0
70
32
0
VERTEX
8
0
62
30
10
0.21213186
20
1.5219842
30
0
70
32
0
SEQEND
8
0
0
POLYLINE
8
0
62
30
66
1
10
0
20
0
30
0
70
8
0
VERTEX
8
0
62
30
10
0.0707105
20
1.5719842
30
0
70
32
0
VERTEX
8
0
62
30
10
0.14142118
20
1.5719842
30
0
70
32
0
SEQEND
8
0
0
POLYLINE
8
0
62
30
66
1
10
0
20
0
30
0
70
8
0
VERTEX
8
0
62
30
10
0.21213186
20
1.5719842
30
0
70
32
0
VERTEX
8
0
62
30
10
0.28284253
20
1.5719842
30
0
70
32
0
SEQEND
8
0
0
POLYLINE
8
0
62
5
66
1
10
0
20
0
30
0
70
8
0
VERTEX
8
0
62
5
10
-1.7801345e-07
20
1.5719842
30
0
70
32
0
VERTEX
8
0
62
5
10
0.035355161
20
1.5719842
30
0
70
32
0
SEQEND
8
0
0
POLYLINE
8
0
62
5
66
1
10
0
20
0
30
0
70
8
0
VERTEX
8
0
62
5
10
0.14142118
20
1.5719842
30
0
70
32
0
VERTEX
8
0
62
5
10
0.17677652
20
1.5719842
30
0
70
32
0
SEQEND
8
0
0
POLYLINE
8
0
62
5
66
1
10
0
20
0
30
0
70
8
0
VERTEX
8
0
62
5
10
0.035355161
20
1.5719842
30
0
70
32
0
VERTEX
8
0
62
5
10
0.0707105
20
1.5719842
30
0
70
32
0
SEQEND
8
0
0
POLYLINE
8
0
62
5
66
1
10
0
20
0
30
0
70
8
0
VERTEX
8
0
62
5
10
0.17677652
20
1.5719842
30
0
70
32
0
VERTEX
8
0
62
5
10
0.21213186
20
1.5719842
30
0
70
32
0
SEQEND
8
0
0
POLYLINE
8
0
62
5
66
1
10
0
20
0
30
0
70
8
0
VERTEX
8
0
62
5
10
0.0707105
20
1.5219842
30
0
70
32
0
VERTEX
8
0
62
5
10
0.0707105
20
1.6219842
30
0
70
32
0
SEQEND
8
0
0
POLYLINE
8
0
62
5
66
1
10
0
20
0
30
0
70
8
0
VERTEX
8
0
62
5
10
0.14142118
20
1.5219842
30
0
70
32
0
VERTEX
8
0
62
5
10
0.14142118
20
1.6219842
30
0
70
32
0
SEQEND
8
0
0
POLYLINE
8
0
62
5
66
1
10
0
20
0
30
0
70
8
0
VERTEX
8
0
62
5
10
0.21213186
20
1.5219842
30
0
70
32
0
VERTEX
8
0
62
5
10
0.21213186
20
1.6219842
30
0
70
32
0
SEQEND
8
0
0
POLYLINE
8
0
62
5
66
1
10
0
20
0
30
0
70
8
0
VERTEX
8
0
62
5
10
-1.7801345e-07
20
1.5219842
30
0
70
32
0
VERTEX
8
0
62
5
10
-1.7801345e-07
20
1.6219842
30
0
70
32
0
SEQEND
8
0
0
POLYLINE
8
0
62
5
66
1
10
0
20
0
30
0
70
8
0
VERTEX
8
0
62
5
10
0.56568525
20
1.6219842
30
0
70
32
0
VERTEX
8
0
62
5
10
0.56568525
20
1.5219842
30
0
70
32
0
SEQEND
8
0
0
POLYLINE
8
0
62
5
66
1
10
0
20
0
30
0
70
8
0
VERTEX
8
0
62
5
10
0.28284253
20
1.5219842
30
0
70
32
0
VERTEX
8
0
62
5
10
0.56568525
20
1.5219842
30
0
70
32
0
SEQEND
8
0
0
POLYLINE
8
0
62
5
66
1
10
0
20
0
30
0
70
8
0
VERTEX
8
0
62
5
10
0.28284253
20
1.6219842
30
0
70
32
0
VERTEX
8
0
62
5
10
0.56568525
20
1.6219842
30
0
70
32
0
SEQEND
8
0
0
POLYLINE
8
0
62
5
66
1
10
0
20
0
30
0
70
8
0
VERTEX
8
0
62
5
10
0.35355321
20
1.5219842
30
0
70
32
0
VERTEX
8
0
62
5
10
0.35355321
20
1.5219842
30
0
70
32
0
SEQEND
8
0
0
POLYLINE
8
0
62
5
66
1
10
0
20
0
30
0
70
8
0
VERTEX
8
0
62
5
10
0.42426389
20
1.5219842
30
0
70
32
0
VERTEX
8
0
62
5
10
0.42426389
20
1.5219842
30
0
70
32
0
SEQEND
8
0
0
POLYLINE
8
0
62
5
66
1
10
0
20
0
30
0
70
8
0
VERTEX
8
0
62
5
10
0.49497457
20
1.5219842
30
0
70
32
0
VERTEX
8
0
62
5
10
0.49497457
20
1.5219842
30
0
70
32
0
SEQEND
8
0
0
POLYLINE
8
0
62
5
66
1
10
0
20
0
30
0
70
8
0
VERTEX
8
0
62
5
10
0.35355321
20
1.6219842
30
0
70
32
0
VERTEX
8
0
62
5
10
0.35355321
20
1.6219842
30
0
70
32
0
SEQEND
8
0
0
POLYLINE
8
0
62
5
66
1
10
0
20
0
30
0
70
8
0
VERTEX
8
0
62
5
10
0.42426389
20
1.6219842
30
0
70
32
0
VERTEX
8
0
62
5
10
0.42426389
20
1.6219842
30
0
70
32
0
SEQEND
8
0
0
POLYLINE
8
0
62
5
66
1
10
0
20
0
30
0
70
8
0
VERTEX
8
0
62
5
10
0.49497457
20
1.6219842
30
0
70
32
0
VERTEX
8
0
62
5
10
0.49497457
20
1.6219842
30
0
70
32
0
SEQEND
8
0
0
POLYLINE
8
0
62
30
66
1
10
0
20
0
30
0
70
8
0
VERTEX
8
0
62
30
10
0.28284253
20
1.5219842
30
0
70
32
0
VERTEX
8
0
62
30
10
0.31819787
20
1.5719842
30
0
70
32
0
SEQEND
8
0
0
POLYLINE
8
0
62
30
66
1
10
0
20
0
30
0
70
8
0
VERTEX
8
0
62
30
10
0.31819787
20
1.5719842
30
0
70
32
0
VERTEX
8
0
62
30
10
0.35355321
20
1.5219842
30
0
70
32
0
SEQEND
8
0
0
POLYLINE
8
0
62
30
66
1
10
0
20
0
30
0
70
8
0
VERTEX
8
0
62
30
10
0.42426389
20
1.5219842
30
0
70
32
0
VERTEX
8
0
62
30
10
0.45961923
20
1.5719842
30
0
70
32
0
SEQEND
8
0
0
POLYLINE
8
0
62
30
66
1
10
0
20
0
30
0
70
8
0
VERTEX
8
0
62
30
10
0.45961923
20
1.5719842
30
0
70
32
0
VERTEX
8
0
62
30
10
0.49497457
20
1.5219842
30
0
70
32
0
SEQEND
8
0
0
POLYLINE
8
0
62
30
66
1
10
0
20
0
30
0
70
8
0
VERTEX
8
0
62
30
10
0.35355321
20
1.5719842
30
0
70
32
0
VERTEX
8
0
62
30
10
0.42426389
20
1.5719842
30
0
70
32
0
SEQEND
8
0
0
POLYLINE
8
0
62
30
66
1
10
0
20
0
30
0
70
8
0
VERTEX
8
0
62
30
10
0.49497457
20
1.5719842
30
0
70
32
0
VERTEX
8
0
62
30
10
0.56568525
20
1.5719842
30
0
70
32
0
SEQEND
8
0
0
POLYLINE
8
0
62
5
66
1
10
0
20
0
30
0
70
8
0
VERTEX
8
0
62
5
10
0.28284253
20
1.5719842
30
0
70
32
0
VERTEX
8
0
62
5
10
0.31819787
20
1.5719842
30
0
70
32
0
SEQEND
8
0
0
POLYLINE
8
0
62
5
66
1
10
0
20
0
30
0
70
8
0
VERTEX
8
0
62
5
10
0.42426389
20
1.5719842
30
0
70
32
0
VERTEX
8
0
62
5
10
0.45961923
20
1.5719842
30
0
70
32
0
SEQEND
8
0
0
POLYLINE
8
0
62
5
66
1
10
0
20
0
30
0
70
8
0
VERTEX
8
0
62
5
10
0.31819787
20
1.5719842
30
0
70
32
0
VERTEX
8
0
62
5
10
0.35355321
20
1.5719842
30
0
70
32
0
SEQEND
8
0
0
POLYLINE
8
0
62
5
66
1
10
0
20
0
30
0
70
8
0
VERTEX
8
0
62
5
10
0.45961923
20
1.5719842
30
0
70
32
0
VERTEX
8
0
62
5
10
0.49497457
20
1.5719842
30
0
70
32
0
SEQEND
8
0
0
POLYLINE
8
0
62
5
66
1
10
0
20
0
30
0
70
8
0
VERTEX
8
0
62
5
10
0.35355321
20
1.5219842
30
0
70
32
0
VERTEX
8
0
62
5
10
0.35355321
20
1.6219842
30
0
70
32
0
SEQEND
8
0
0
POLYLINE
8
0
62
5
66
1
10
0
20
0
30
0
70
8
0
VERTEX
8
0
62
5
10
0.42426389
20
1.5219842
30
0
70
32
0
VERTEX
8
0
62
5
10
0.42426389
20
1.6219842
30
0
70
32
0
SEQEND
8
0
0
POLYLINE
8
0
62
5
66
1
10
0
20
0
30
0
70
8
0
VERTEX
8
0
62
5
10
0.49497457
20
1.5219842
30
0
70
32
0
VERTEX
8
0
62
5
10
0.49497457
20
1.6219842
30
0
70
32
0
SEQEND
8
0
0
POLYLINE
8
0
62
5
66
1
10
0
20
0
30
0
70
8
0
VERTEX
8
0
62
5
10
0.28284253
20
1.5219842
30
0
70
32
0
VERTEX
8
0
62
5
10
0.28284253
20
1.6219842
30
0
70
32
0
SEQEND
8
0
0
POLYLINE
8
0
62
5
66
1
10
0
20
0
30
0
70
8
0
VERTEX
8
0
62
5
10
-0.28284289
20
1.5219842
30
0
70
32
0
VERTEX
8
0
62
5
10
-0.28284289
20
1.6219842
30
0
70
32
0
SEQEND
8
0
0
POLYLINE
8
0
62
5
66
1
10
0
20
0
30
0
70
8
0
VERTEX
8
0
62
5
10
-0.28284289
20
1.5219842
30
0
70
32
0
VERTEX
8
0
62
5
10
-1.7801345e-07
20
1.5219842
30
0
70
32
0
SEQEND
8
0
0
POLYLINE
8
0
62
5
66
1
10
0
20
0
30
0
70
8
0
VERTEX
8
0
62
5
10
-0.28284289
20
1.6219842
30
0
70
32
0
VERTEX
8
0
62
5
10
-1.7801345e-07
20
1.6219842
30
0
70
32
0
SEQEND
8
0
0
POLYLINE
8
0
62
5
66
1
10
0
20
0
30
0
70
8
0
VERTEX
8
0
62
5
10
-0.21213221
20
1.5219842
30
0
70
32
0
VERTEX
8
0
62
5
10
-0.21213221
20
1.5219842
30
0
70
32
0
SEQEND
8
0
0
POLYLINE
8
0
62
5
66
1
10
0
20
0
30
0
70
8
0
VERTEX
8
0
62
5
10
-0.14142153
20
1.5219842
30
0
70
32
0
VERTEX
8
0
62
5
10
-0.14142153
20
1.5219842
30
0
70
32
0
SEQEND
8
0
0
POLYLINE
8
0
62
5
66
1
10
0
20
0
30
0
70
8
0
VERTEX
8
0
62
5
10
-0.070710856
20
1.5219842
30
0
70
32
0
VERTEX
8
0
62
5
10
-0.070710856
20
1.5219842
30
0
70
32
0
SEQEND
8
0
0
POLYLINE
8
0
62
5
66
1
10
0
20
0
30
0
70
8
0
VERTEX
8
0
62
5
10
-0.21213221
20
1.6219842
30
0
70
32
0
VERTEX
8
0
62
5
10
-0.21213221
20
1.6219842
30
0
70
32
0
SEQEND
8
0
0
POLYLINE
8
0
62
5
66
1
10
0
20
0
30
0
70
8
0
VERTEX
8
0
62
5
10
-0.14142153
20
1.6219842
30
0
70
32
0
VERTEX
8
0
62
5
10
-0.14142153
20
1.6219842
30
0
70
32
0
SEQEND
8
0
0
POLYLINE
8
0
62
5
66
1
10
0
20
0
30
0
70
8
0
VERTEX
8
0
62
5
10
-0.070710856
20
1.6219842
30
0
70
32
0
VERTEX
8
0
62
5
10
-0.070710856
20
1.6219842
30
0
70
32
0
SEQEND
8
0
0
POLYLINE
8
0
62
30
66
1
10
0
20
0
30
0
70
8
0
VERTEX
8
0
62
30
10
-0.28284289
20
1.5219842
30
0
70
32
0
VERTEX
8
0
62
30
10
-0.24748755
20
1.5719842
30
0
70
32
0
SEQEND
8
0
0
POLYLINE
8
0
62
30
66
1
10
0
20
0
30
0
70
8
0
VERTEX
8
0
62
30
10
-0.24748755
20
1.5719842
30
0
70
32
0
VERTEX
8
0
62
30
10
-0.21213221
20
1.5219842
30
0
70
32
0
SEQEND
8
0
0
POLYLINE
8
0
62
30
66
1
10
0
20
0
30
0
70
8
0
VERTEX
8
0
62
30
10
-0.14142153
20
1.5219842
30
0
70
32
0
VERTEX
8
0
62
30
10
-0.1060662
20
1.5719842
30
0
70
32
0
SEQEND
8
0
0
POLYLINE
8
0
62
30
66
1
10
0
20
0
30
0
70
8
0
VERTEX
8
0
62
30
10
-0.1060662
20
1.5719842
30
0
70
32
0
VERTEX
8
0
62
30
10
-0.070710856
20
1.5219842
30
0
70
32
0
SEQEND
8
0
0
POLYLINE
8
0
62
30
66
1
10
0
20
0
30
0
70
8
0
VERTEX
8
0
62
30
10
-0.21213221
20
1.5719842
30
0
70
32
0
VERTEX
8
0
62
30
10
-0.14142153
20
1.5719842
30
0
70
32
0
SEQEND
8
0
0
POLYLINE
8
0
62
30
66
1
10
0
20
0
30
0
70
8
0
VERTEX
8
0
62
30
10
-0.070710856
20
1.5719842
30
0
70
32
0
VERTEX
8
0
62
30
10
-1.7801345e-07
20
1.5719842
30
0
70
32
0
SEQEND
8
0
0
POLYLINE
8
0
62
5
66
1
10
0
20
0
30
0
70
8
0
VERTEX
8
0
62
5
10
-0.28284289
20
1.5719842
30
0
70
32
0
VERTEX
8
0
62
5
10
-0.24748755
20
1.5719842
30
0
70
32
0
SEQEND
8
0
0
POLYLINE
8
0
62
5
66
1
10
0
20
0
30
0
70
8
0
VERTEX
8
0
62
5
10
-0.14142153
20
1.5719842
30
0
70
32
0
VERTEX
8
0
62
5
10
-0.1060662
20
1.5719842
30
0
70
32
0
SEQEND
8
0
0
POLYLINE
8
0
62
5
66
1
10
0
20
0
30
0
70
8
0
VERTEX
8
0
62
5
10
-0.24748755
20
1.5719842
30
0
70
32
0
VERTEX
8
0
62
5
10
-0.21213221
20
1.5719842
30
0
70
32
0
SEQEND
8
0
0
POLYLINE
8
0
62
5
66
1
10
0
20
0
30
0
70
8
0
VERTEX
8
0
62
5
10
-0.1060662
20
1.5719842
30
0
70
32
0
VERTEX
8
0
62
5
10
-0.070710856
20
1.5719842
30
0
70
32
0
SEQEND
8
0
0
POLYLINE
8
0
62
5
66
1
10
0
20
0
30
0
70
8
0
VERTEX
8
0
62
5
10
-0.21213221
20
1.5219842
30
0
70
32
0
VERTEX
8
0
62
5
10
-0.21213221
20
1.6219842
30
0
70
32
0
SEQEND
8
0
0
POLYLINE
8
0
62
5
66
1
10
0
20
0
30
0
70
8
0
VERTEX
8
0
62
5
10
-0.14142153
20
1.5219842
30
0
70
32
0
VERTEX
8
0
62
5
10
-0.14142153
20
1.6219842
30
0
70
32
0
SEQEND
8
0
0
POLYLINE
8
0
62
5
66
1
10
0
20
0
30
0
70
8
0
VERTEX
8
0
62
5
10
-0.070710856
20
1.5219842
30
0
70
32
0
VERTEX
8
0
62
5
10
-0.070710856
20
1.6219842
30
0
70
32
0
SEQEND
8
0
0
POLYLINE
8
0
62
5
66
1
10
0
20
0
30
0
70
8
0
VERTEX
8
0
62
5
10
-0.28284289
20
1.5219842
30
0
70
32
0
VERTEX
8
0
62
5
10
-0.28284289
20
1.6219842
30
0
70
32
0
SEQEND
8
0
0
POLYLINE
8
0
62
18
66
1
10
0
20
0
30
0
70
8
0
VERTEX
8
0
62
18
10
0
20
0
30
0
70
32
0
VERTEX
8
0
62
18
10
0.35355339
20
0
30
0
70
32
0
VERTEX
8
0
62
18
10
0.35355339
20
0.22357086
30
0
70
32
0
VERTEX
8
0
62
18
10
0
20
0.22357086
30
0
70
32
0
VERTEX
8
0
62
18
10
0
20
0
30
0
70
32
0
SEQEND
8
0
0
POLYLINE
8
0
62
5
66
1
10
0
20
0
30
0
70
8
0
VERTEX
8
0
62
5
10
0
20
0.22357086
30
0
70
32
0
VERTEX
8
0
62
5
10
0.35355339
20
0.22357086
30
0
70
32
0
SEQEND
8
0
0
POLYLINE
8
0
62
18
66
1
10
0
20
0
30
0
70
8
0
VERTEX
8
0
62
18
10
0
20
0.20357086
30
0
70
32
0
VERTEX
8
0
62
18
10
0.35355339
20
0.20357086
30
0
70
32
0
VERTEX
8
0
62
18
10
0.35355339
20
0.62876751
30
0
70
32
0
VERTEX
8
0
62
18
10
0
20
0.62876751
30
0
70
32
0
VERTEX
8
0
62
18
10
0
20
0.20357086
30
0
70
32
0
SEQEND
8
0
0
POLYLINE
8
0
62
5
66
1
10
0
20
0
30
0
70
8
0
VERTEX
8
0
62
5
10
0
20
0.62876751
30
0
70
32
0
VERTEX
8
0
62
5
10
0.35355339
20
0.62876751
30
0
70
32
0
SEQEND
8
0
0
POLYLINE
8
0
62
18
66
1
10
0
20
0
30
0
70
8
0
VERTEX
8
0
62
18
10
0
20
0.60876751
30
0
70
32
0
VERTEX
8
0
62
18
10
0.35355339
20
0.60876751
30
0
70
32
0
VERTEX
8
0
62
18
10
0.35355339
20
0.86213754
30
0
70
32
0
VERTEX
8
0
62
18
10
0
20
0.86213754
30
0
70
32
0
VERTEX
8
0
62
18
10
0
20
0.60876751
30
0
70
32
0
SEQEND
8
0
0
POLYLINE
8
0
62
5
66
1
10
0
20
0
30
0
70
8
0
VERTEX
8
0
62
5
10
0
20
0.86213754
30
0
70
32
0
VERTEX
8
0
62
5
10
0.35355339
20
0.86213754
30
0
70
32
0
SEQEND
8
0
0
POLYLINE
8
0
62
18
66
1
10
0
20
0
30
0
70
8
0
VERTEX
8
0
62
18
10
0
20
0.84213754
30
0
70
32
0
VERTEX
8
0
62
18
10
0.35355339
20
0.84213754
30
0
70
32
0
VERTEX
8
0
62
18
10
0.35355339
20
1.1840567
30
0
70
32
0
VERTEX
8
0
62
18
10
0
20
1.1840567
30
0
70
32
0
VERTEX
8
0
62
18
10
0
20
0.84213754
30
0
70
32
0
SEQEND
8
0
0
POLYLINE
8
0
62
5
66
1
10
0
20
0
30
0
70
8
0
VERTEX
8
0
62
5
10
0
20
1.1840567
30
0
70
32
0
VERTEX
8
0
62
5
10
0.35355339
20
1.1840567
30
0
70
32
0
SEQEND
8
0
0
POLYLINE
8
0
62
18
66
1
10
0
20
0
30
0
70
8
0
VERTEX
8
0
62
18
10
0
20
1.1640567
30
0
70
32
0
VERTEX
8
0
62
18
10
0.35355339
20
1.1640567
30
0
70
32
0
VERTEX
8
0
62
18
10
0.35355339
20
1.454423
30
0
70
32
0
VERTEX
8
0
62
18
10
0
20
1.454423
30
0
70
32
0
VERTEX
8
0
62
18
10
0
20
1.1640567
30
0
70
32
0
SEQEND
8
0
0
POLYLINE
8
0
62
5
66
1
10
0
20
0
30
0
70
8
0
VERTEX
8
0
62
5
10
0
20
1.454423
30
0
70
32
0
VERTEX
8
0
62
5
10
0.35355339
20
1.454423
30
0
70
32
0
SEQEND
8
0
0
POLYLINE
8
0
62
18
66
1
10
0
20
0
30
0
70
8
0
VERTEX
8
0
62
18
10
0
20
1.434423
30
0
70
32
0
VERTEX
8
0
62
18
10
0.35355339
20
1.434423
30
0
70
32
0
VERTEX
8
0
62
18
10
0.35355339
20
1.6219842
30
0
70
32
0
VERTEX
8
0
62
18
10
0
20
1.6219842
30
0
70
32
0
VERTEX
8
0
62
18
10
0
20
1.434423
30
0
70
32
0
SEQEND
8
0
0
POLYLINE
8
0
62
18
66
1
10
0
20
0
30
0
70
8
0
VERTEX
8
0
62
18
10
0.35355339
20
0
30
0
70
32
0
VERTEX
8
0
62
18
10
0
20
0
30
0
70
32
0
VERTEX
8
0
62
18
10
0
20
1.6219842
30
0
70
32
0
VERTEX
8
0
62
18
10
0.35355339
20
1.6219842
30
0
70
32
0
VERTEX
8
0
62
18
10
0.35355339
20
0
30
0
70
32
0
SEQEND
8
0
0
ENDSEC
0
EOF
