0
SECTION
2
HEADER
9
$ACADVER
1
AC1006
9
$INSUNITS
70
6
0
ENDSEC
0
SECTION
2
ENTITIES
0
POLYLINE
8
0
62
5
66
1
10
0
20
0
30
0
70
8
0
VERTEX
8
0
62
5
10
0
20
0
30
0
70
32
0
VERTEX
8
0
62
5
10
0
20
0.1
30
0
70
32
0
SEQEND
8
0
0
POLYLINE
8
0
62
5
66
1
10
0
20
0
30
0
70
8
0
VERTEX
8
0
62
5
10
0.11313708
20
0
30
0
70
32
0
VERTEX
8
0
62
5
10
0.11313708
20
0.1
30
0
70
32
0
SEQEND
8
0
0
POLYLINE
8
0
62
5
66
1
10
0
20
0
30
0
70
8
0
VERTEX
8
0
62
5
10
0.028284271
20
0
30
0
70
32
0
VERTEX
8
0
62
5
10
0.028284271
20
0.1
30
0
70
32
0
SEQEND
8
0
0
POLYLINE
8
0
62
5
66
1
10
0
20
0
30
0
70
8
0
VERTEX
8
0
62
5
10
0.056568542
20
0
30
0
70
32
0
VERTEX
8
0
62
5
10
0.056568542
20
0.1
30
0
70
32
0
SEQEND
8
0
0
POLYLINE
8
0
62
5
66
1
10
0
20
0
30
0
70
8
0
VERTEX
8
0
62
5
10
0.084852814
20
0
30
0
70
32
0
VERTEX
8
0
62
5
10
0.084852814
20
0.1
30
0
70
32
0
SEQEND
8
0
0
POLYLINE
8
0
62
5
66
1
10
0
20
0
30
0
70
8
0
VERTEX
8
0
62
5
10
0.22627417
20
0
30
0
70
32
0
VERTEX
8
0
62
5
10
0.22627417
20
0.1
30
0
70
32
0
SEQEND
8
0
0
POLYLINE
8
0
62
5
66
1
10
0
20
0
30
0
70
8
0
VERTEX
8
0
62
5
10
0.14142136
20
0
30
0
70
32
0
VERTEX
8
0
62
5
10
0.14142136
20
0.1
30
0
70
32
0
SEQEND
8
0
0
POLYLINE
8
0
62
5
66
1
10
0
20
0
30
0
70
8
0
VERTEX
8
0
62
5
10
0.16970563
20
0
30
0
70
32
0
VERTEX
8
0
62
5
10
0.16970563
20
0.1
30
0
70
32
0
SEQEND
8
0
0
POLYLINE
8
0
62
5
66
1
10
0
20
0
30
0
70
8
0
VERTEX
8
0
62
5
10
0.1979899
20
0
30
0
70
32
0
VERTEX
8
0
62
5
10
0.1979899
20
0.1
30
0
70
32
0
SEQEND
8
0
0
POLYLINE
8
0
62
5
66
1
10
0
20
0
30
0
70
8
0
VERTEX
8
0
62
5
10
-0.11313708
20
0
30
0
70
32
0
VERTEX
8
0
62
5
10
-0.11313708
20
0.1
30
0
70
32
0
SEQEND
8
0
0
POLYLINE
8
0
62
5
66
1
10
0
20
0
30
0
70
8
0
VERTEX
8
0
62
5
10
-0.084852814
20
0
30
0
70
32
0
VERTEX
8
0
62
5
10
-0.084852814
20
0.1
30
0
70
32
0
SEQEND
8
0
0
POLYLINE
8
0
62
5
66
1
10
0
20
0
30
0
70
8
0
VERTEX
8
0
62
5
10
-0.056568542
20
0
30
0
70
32
0
VERTEX
8
0
62
5
10
-0.056568542
20
0.1
30
0
70
32
0
SEQEND
8
0
0
POLYLINE
8
0
62
5
66
1
10
0
20
0
30
0
70
8
0
VERTEX
8
0
62
5
10
-0.028284271
20
0
30
0
70
32
0
VERTEX
8
0
62
5
10
-0.028284271
20
0.1
30
0
70
32
0
SEQEND
8
0
0
POLYLINE
8
0
62
5
66
1
10
0
20
0
30
0
70
8
0
VERTEX
8
0
62
5
10
0
20
0.1
30
0
70
32
0
VERTEX
8
0
62
5
10
0
20
0.14
30
0
70
32
0
SEQEND
8
0
0
POLYLINE
8
0
62
5
66
1
10
0
20
0
30
0
70
8
0
VERTEX
8
0
62
5
10
0.11313708
20
0.14
30
0
70
32
0
VERTEX
8
0
62
5
10
0.11313708
20
0.1
30
0
70
32
0
SEQEND
8
0
0
POLYLINE
8
0
62
5
66
1
10
0
20
0
30
0
70
8
0
VERTEX
8
0
62
5
10
0
20
0.1
30
0
70
32
0
VERTEX
8
0
62
5
10
0.11313708
20
0.1
30
0
70
32
0
SEQEND
8
0
0
POLYLINE
8
0
62
5
66
1
10
0
20
0
30
0
70
8
0
VERTEX
8
0
62
5
10
0
20
0.14
30
0
70
32
0
VERTEX
8
0
62
5
10
0.11313708
20
0.14
30
0
70
32
0
SEQEND
8
0
0
POLYLINE
8
0
62
5
66
1
10
0
20
0
30
0
70
8
0
VERTEX
8
0
62
5
10
0.028284271
20
0.1
30
0
70
32
0
VERTEX
8
0
62
5
10
0.028284271
20
0.1
30
0
70
32
0
SEQEND
8
0
0
POLYLINE
8
0
62
5
66
1
10
0
20
0
30
0
70
8
0
VERTEX
8
0
62
5
10
0.056568542
20
0.1
30
0
70
32
0
VERTEX
8
0
62
5
10
0.056568542
20
0.1
30
0
70
32
0
SEQEND
8
0
0
POLYLINE
8
0
62
5
66
1
10
0
20
0
30
0
70
8
0
VERTEX
8
0
62
5
10
0.084852814
20
0.1
30
0
70
32
0
VERTEX
8
0
62
5
10
0.084852814
20
0.1
30
0
70
32
0
SEQEND
8
0
0
POLYLINE
8
0
62
5
66
1
10
0
20
0
30
0
70
8
0
VERTEX
8
0
62
5
10
0.028284271
20
0.14
30
0
70
32
0
VERTEX
8
0
62
5
10
0.028284271
20
0.14
30
0
70
32
0
SEQEND
8
0
0
POLYLINE
8
0
62
5
66
1
10
0
20
0
30
0
70
8
0
VERTEX
8
0
62
5
10
0.056568542
20
0.14
30
0
70
32
0
VERTEX
8
0
62
5
10
0.056568542
20
0.14
30
0
70
32
0
SEQEND
8
0
0
POLYLINE
8
0
62
5
66
1
10
0
20
0
30
0
70
8
0
VERTEX
8
0
62
5
10
0.084852814
20
0.14
30
0
70
32
0
VERTEX
8
0
62
5
10
0.084852814
20
0.14
30
0
70
32
0
SEQEND
8
0
0
POLYLINE
8
0
62
30
66
1
10
0
20
0
30
0
70
8
0
VERTEX
8
0
62
30
10
0
20
0.14
30
0
70
32
0
VERTEX
8
0
62
30
10
0.028284271
20
0.1
30
0
70
32
0
SEQEND
8
0
0
POLYLINE
8
0
62
30
66
1
10
0
20
0
30
0
70
8
0
VERTEX
8
0
62
30
10
0.028284271
20
0.14
30
0
70
32
0
VERTEX
8
0
62
30
10
0
20
0.1
30
0
70
32
0
SEQEND
8
0
0
POLYLINE
8
0
62
30
66
1
10
0
20
0
30
0
70
8
0
VERTEX
8
0
62
30
10
0.056568542
20
0.14
30
0
70
32
0
VERTEX
8
0
62
30
10
0.084852814
20
0.1
30
0
70
32
0
SEQEND
8
0
0
POLYLINE
8
0
62
30
66
1
10
0
20
0
30
0
70
8
0
VERTEX
8
0
62
30
10
0.084852814
20
0.14
30
0
70
32
0
VERTEX
8
0
62
30
10
0.056568542
20
0.1
30
0
70
32
0
SEQEND
8
0
0
POLYLINE
8
0
62
30
66
1
10
0
20
0
30
0
70
8
0
VERTEX
8
0
62
30
10
0.028284271
20
0.12
30
0
70
32
0
VERTEX
8
0
62
30
10
0.056568542
20
0.12
30
0
70
32
0
SEQEND
8
0
0
POLYLINE
8
0
62
30
66
1
10
0
20
0
30
0
70
8
0
VERTEX
8
0
62
30
10
0.084852814
20
0.12
30
0
70
32
0
VERTEX
8
0
62
30
10
0.11313708
20
0.12
30
0
70
32
0
SEQEND
8
0
0
POLYLINE
8
0
62
5
66
1
10
0
20
0
30
0
70
8
0
VERTEX
8
0
62
5
10
0
20
0.12
30
0
70
32
0
VERTEX
8
0
62
5
10
0.014142136
20
0.12
30
0
70
32
0
SEQEND
8
0
0
POLYLINE
8
0
62
5
66
1
10
0
20
0
30
0
70
8
0
VERTEX
8
0
62
5
10
0.056568542
20
0.12
30
0
70
32
0
VERTEX
8
0
62
5
10
0.070710678
20
0.12
30
0
70
32
0
SEQEND
8
0
0
POLYLINE
8
0
62
5
66
1
10
0
20
0
30
0
70
8
0
VERTEX
8
0
62
5
10
0.014142136
20
0.12
30
0
70
32
0
VERTEX
8
0
62
5
10
0.028284271
20
0.12
30
0
70
32
0
SEQEND
8
0
0
POLYLINE
8
0
62
5
66
1
10
0
20
0
30
0
70
8
0
VERTEX
8
0
62
5
10
0.070710678
20
0.12
30
0
70
32
0
VERTEX
8
0
62
5
10
0.084852814
20
0.12
30
0
70
32
0
SEQEND
8
0
0
POLYLINE
8
0
62
5
66
1
10
0
20
0
30
0
70
8
0
VERTEX
8
0
62
5
10
0.028284271
20
0.1
30
0
70
32
0
VERTEX
8
0
62
5
10
0.028284271
20
0.14
30
0
70
32
0
SEQEND
8
0
0
POLYLINE
8
0
62
5
66
1
10
0
20
0
30
0
70
8
0
VERTEX
8
0
62
5
10
0.056568542
20
0.1
30
0
70
32
0
VERTEX
8
0
62
5
10
0.056568542
20
0.14
30
0
70
32
0
SEQEND
8
0
0
POLYLINE
8
0
62
5
66
1
10
0
20
0
30
0
70
8
0
VERTEX
8
0
62
5
10
0.084852814
20
0.1
30
0
70
32
0
VERTEX
8
0
62
5
10
0.084852814
20
0.14
30
0
70
32
0
SEQEND
8
0
0
POLYLINE
8
0
62
5
66
1
10
0
20
0
30
0
70
8
0
VERTEX
8
0
62
5
10
0
20
0.1
30
0
70
32
0
VERTEX
8
0
62
5
10
0
20
0.14
30
0
70
32
0
SEQEND
8
0
0
POLYLINE
8
0
62
5
66
1
10
0
20
0
30
0
70
8
0
VERTEX
8
0
62
5
10
0.22627417
20
0.14
30
0
70
32
0
VERTEX
8
0
62
5
10
0.22627417
20
0.1
30
0
70
32
0
SEQEND
8
0
0
POLYLINE
8
0
62
5
66
1
10
0
20
0
30
0
70
8
0
VERTEX
8
0
62
5
10
0.11313708
20
0.1
30
0
70
32
0
VERTEX
8
0
62
5
10
0.22627417
20
0.1
30
0
70
32
0
SEQEND
8
0
0
POLYLINE
8
0
62
5
66
1
10
0
20
0
30
0
70
8
0
VERTEX
8
0
62
5
10
0.11313708
20
0.14
30
0
70
32
0
VERTEX
8
0
62
5
10
0.22627417
20
0.14
30
0
70
32
0
SEQEND
8
0
0
POLYLINE
8
0
62
5
66
1
10
0
20
0
30
0
70
8
0
VERTEX
8
0
62
5
10
0.14142136
20
0.1
30
0
70
32
0
VERTEX
8
0
62
5
10
0.14142136
20
0.1
30
0
70
32
0
SEQEND
8
0
0
POLYLINE
8
0
62
5
66
1
10
0
20
0
30
0
70
8
0
VERTEX
8
0
62
5
10
0.16970563
20
0.1
30
0
70
32
0
VERTEX
8
0
62
5
10
0.16970563
20
0.1
30
0
70
32
0
SEQEND
8
0
0
POLYLINE
8
0
62
5
66
1
10
0
20
0
30
0
70
8
0
VERTEX
8
0
62
5
10
0.1979899
20
0.1
30
0
70
32
0
VERTEX
8
0
62
5
10
0.1979899
20
0.1
30
0
70
32
0
SEQEND
8
0
0
POLYLINE
8
0
62
5
66
1
10
0
20
0
30
0
70
8
0
VERTEX
8
0
62
5
10
0.14142136
20
0.14
30
0
70
32
0
VERTEX
8
0
62
5
10
0.14142136
20
0.14
30
0
70
32
0
SEQEND
8
0
0
POLYLINE
8
0
62
5
66
1
10
0
20
0
30
0
70
8
0
VERTEX
8
0
62
5
10
0.16970563
20
0.14
30
0
70
32
0
VERTEX
8
0
62
5
10
0.16970563
20
0.14
30
0
70
32
0
SEQEND
8
0
0
POLYLINE
8
0
62
5
66
1
10
0
20
0
30
0
70
8
0
VERTEX
8
0
62
5
10
0.1979899
20
0.14
30
0
70
32
0
VERTEX
8
0
62
5
10
0.1979899
20
0.14
30
0
70
32
0
SEQEND
8
0
0
POLYLINE
8
0
62
30
66
1
10
0
20
0
30
0
70
8
0
VERTEX
8
0
62
30
10
0.11313708
20
0.14
30
0
70
32
0
VERTEX
8
0
62
30
10
0.14142136
20
0.1
30
0
70
32
0
SEQEND
8
0
0
POLYLINE
8
0
62
30
66
1
10
0
20
0
30
0
70
8
0
VERTEX
8
0
62
30
10
0.14142136
20
0.14
30
0
70
32
0
VERTEX
8
0
62
30
10
0.11313708
20
0.1
30
0
70
32
0
SEQEND
8
0
0
POLYLINE
8
0
62
30
66
1
10
0
20
0
30
0
70
8
0
VERTEX
8
0
62
30
10
0.16970563
20
0.14
30
0
70
32
0
VERTEX
8
0
62
30
10
0.1979899
20
0.1
30
0
70
32
0
SEQEND
8
0
0
POLYLINE
8
0
62
30
66
1
10
0
20
0
30
0
70
8
0
VERTEX
8
0
62
30
10
0.1979899
20
0.14
30
0
70
32
0
VERTEX
8
0
62
30
10
0.16970563
20
0.1
30
0
70
32
0
SEQEND
8
0
0
POLYLINE
8
0
62
30
66
1
10
0
20
0
30
0
70
8
0
VERTEX
8
0
62
30
10
0.14142136
20
0.12
30
0
70
32
0
VERTEX
8
0
62
30
10
0.16970563
20
0.12
30
0
70
32
0
SEQEND
8
0
0
POLYLINE
8
0
62
30
66
1
10
0
20
0
30
0
70
8
0
VERTEX
8
0
62
30
10
0.1979899
20
0.12
30
0
70
32
0
VERTEX
8
0
62
30
10
0.22627417
20
0.12
30
0
70
32
0
SEQEND
8
0
0
POLYLINE
8
0
62
5
66
1
10
0
20
0
30
0
70
8
0
VERTEX
8
0
62
5
10
0.11313708
20
0.12
30
0
70
32
0
VERTEX
8
0
62
5
10
0.12727922
20
0.12
30
0
70
32
0
SEQEND
8
0
0
POLYLINE
8
0
62
5
66
1
10
0
20
0
30
0
70
8
0
VERTEX
8
0
62
5
10
0.16970563
20
0.12
30
0
70
32
0
VERTEX
8
0
62
5
10
0.18384776
20
0.12
30
0
70
32
0
SEQEND
8
0
0
POLYLINE
8
0
62
5
66
1
10
0
20
0
30
0
70
8
0
VERTEX
8
0
62
5
10
0.12727922
20
0.12
30
0
70
32
0
VERTEX
8
0
62
5
10
0.14142136
20
0.12
30
0
70
32
0
SEQEND
8
0
0
POLYLINE
8
0
62
5
66
1
10
0
20
0
30
0
70
8
0
VERTEX
8
0
62
5
10
0.18384776
20
0.12
30
0
70
32
0
VERTEX
8
0
62
5
10
0.1979899
20
0.12
30
0
70
32
0
SEQEND
8
0
0
POLYLINE
8
0
62
5
66
1
10
0
20
0
30
0
70
8
0
VERTEX
8
0
62
5
10
0.14142136
20
0.1
30
0
70
32
0
VERTEX
8
0
62
5
10
0.14142136
20
0.14
30
0
70
32
0
SEQEND
8
0
0
POLYLINE
8
0
62
5
66
1
10
0
20
0
30
0
70
8
0
VERTEX
8
0
62
5
10
0.16970563
20
0.1
30
0
70
32
0
VERTEX
8
0
62
5
10
0.16970563
20
0.14
30
0
70
32
0
SEQEND
8
0
0
POLYLINE
8
0
62
5
66
1
10
0
20
0
30
0
70
8
0
VERTEX
8
0
62
5
10
0.1979899
20
0.1
30
0
70
32
0
VERTEX
8
0
62
5
10
0.1979899
20
0.14
30
0
70
32
0
SEQEND
8
0
0
POLYLINE
8
0
62
5
66
1
10
0
20
0
30
0
70
8
0
VERTEX
8
0
62
5
10
0.11313708
20
0.1
30
0
70
32
0
VERTEX
8
0
62
5
10
0.11313708
20
0.14
30
0
70
32
0
SEQEND
8
0
0
POLYLINE
8
0
62
5
66
1
10
0
20
0
30
0
70
8
0
VERTEX
8
0
62
5
10
-0.11313708
20
0.1
30
0
70
32
0
VERTEX
8
0
62
5
10
-0.11313708
20
0.14
30
0
70
32
0
SEQEND
8
0
0
POLYLINE
8
0
62
5
66
1
10
0
20
0
30
0
70
8
0
VERTEX
8
0
62
5
10
-0.11313708
20
0.1
30
0
70
32
0
VERTEX
8
0
62
5
10
0
20
0.1
30
0
70
32
0
SEQEND
8
0
0
POLYLINE
8
0
62
5
66
1
10
0
20
0
30
0
70
8
0
VERTEX
8
0
62
5
10
-0.11313708
20
0.14
30
0
70
32
0
VERTEX
8
0
62
5
10
0
20
0.14
30
0
70
32
0
SEQEND
8
0
0
POLYLINE
8
0
62
5
66
1
10
0
20
0
30
0
70
8
0
VERTEX
8
0
62
5
10
-0.084852814
20
0.1
30
0
70
32
0
VERTEX
8
0
62
5
10
-0.084852814
20
0.1
30
0
70
32
0
SEQEND
8
0
0
POLYLINE
8
0
62
5
66
1
10
0
20
0
30
0
70
8
0
VERTEX
8
0
62
5
10
-0.056568542
20
0.1
30
0
70
32
0
VERTEX
8
0
62
5
10
-0.056568542
20
0.1
30
0
70
32
0
SEQEND
8
0
0
POLYLINE
8
0
62
5
66
1
10
0
20
0
30
0
70
8
0
VERTEX
8
0
62
5
10
-0.028284271
20
0.1
30
0
70
32
0
VERTEX
8
0
62
5
10
-0.028284271
20
0.1
30
0
70
32
0
SEQEND
8
0
0
POLYLINE
8
0
62
5
66
1
10
0
20
0
30
0
70
8
0
VERTEX
8
0
62
5
10
-0.084852814
20
0.14
30
0
70
32
0
VERTEX
8
0
62
5
10
-0.084852814
20
0.14
30
0
70
32
0
SEQEND
8
0
0
POLYLINE
8
0
62
5
66
1
10
0
20
0
30
0
70
8
0
VERTEX
8
0
62
5
10
-0.056568542
20
0.14
30
0
70
32
0
VERTEX
8
0
62
5
10
-0.056568542
20
0.14
30
0
70
32
0
SEQEND
8
0
0
POLYLINE
8
0
62
5
66
1
10
0
20
0
30
0
70
8
0
VERTEX
8
0
62
5
10
-0.028284271
20
0.14
30
0
70
32
0
VERTEX
8
0
62
5
10
-0.028284271
20
0.14
30
0
70
32
0
SEQEND
8
0
0
POLYLINE
8
0
62
30
66
1
10
0
20
0
30
0
70
8
0
VERTEX
8
0
62
30
10
-0.11313708
20
0.14
30
0
70
32
0
VERTEX
8
0
62
30
10
-0.084852814
20
0.1
30
0
70
32
0
SEQEND
8
0
0
POLYLINE
8
0
62
30
66
1
10
0
20
0
30
0
70
8
0
VERTEX
8
0
62
30
10
-0.084852814
20
0.14
30
0
70
32
0
VERTEX
8
0
62
30
10
-0.11313708
20
0.1
30
0
70
32
0
SEQEND
8
0
0
POLYLINE
8
0
62
30
66
1
10
0
20
0
30
0
70
8
0
VERTEX
8
0
62
30
10
-0.056568542
20
0.14
30
0
70
32
0
VERTEX
8
0
62
30
10
-0.028284271
20
0.1
30
0
70
32
0
SEQEND
8
0
0
POLYLINE
8
0
62
30
66
1
10
0
20
0
30
0
70
8
0
VERTEX
8
0
62
30
10
-0.028284271
20
0.14
30
0
70
32
0
VERTEX
8
0
62
30
10
-0.056568542
20
0.1
30
0
70
32
0
SEQEND
8
0
0
POLYLINE
8
0
62
30
66
1
10
0
20
0
30
0
70
8
0
VERTEX
8
0
62
30
10
-0.084852814
20
0.12
30
0
70
32
0
VERTEX
8
0
62
30
10
-0.056568542
20
0.12
30
0
70
32
0
SEQEND
8
0
0
POLYLINE
8
0
62
30
66
1
10
0
20
0
30
0
70
8
0
VERTEX
8
0
62
30
10
-0.028284271
20
0.12
30
0
70
32
0
VERTEX
8
0
62
30
10
0
20
0.12
30
0
70
32
0
SEQEND
8
0
0
POLYLINE
8
0
62
5
66
1
10
0
20
0
30
0
70
8
0
VERTEX
8
0
62
5
10
-0.11313708
20
0.12
30
0
70
32
0
VERTEX
8
0
62
5
10
-0.098994949
20
0.12
30
0
70
32
0
SEQEND
8
0
0
POLYLINE
8
0
62
5
66
1
10
0
20
0
30
0
70
8
0
VERTEX
8
0
62
5
10
-0.056568542
20
0.12
30
0
70
32
0
VERTEX
8
0
62
5
10
-0.042426407
20
0.12
30
0
70
32
0
SEQEND
8
0
0
POLYLINE
8
0
62
5
66
1
10
0
20
0
30
0
70
8
0
VERTEX
8
0
62
5
10
-0.098994949
20
0.12
30
0
70
32
0
VERTEX
8
0
62
5
10
-0.084852814
20
0.12
30
0
70
32
0
SEQEND
8
0
0
POLYLINE
8
0
62
5
66
1
10
0
20
0
30
0
70
8
0
VERTEX
8
0
62
5
10
-0.042426407
20
0.12
30
0
70
32
0
VERTEX
8
0
62
5
10
-0.028284271
20
0.12
30
0
70
32
0
SEQEND
8
0
0
POLYLINE
8
0
62
5
66
1
10
0
20
0
30
0
70
8
0
VERTEX
8
0
62
5
10
-0.084852814
20
0.1
30
0
70
32
0
VERTEX
8
0
62
5
10
-0.084852814
20
0.14
30
0
70
32
0
SEQEND
8
0
0
POLYLINE
8
0
62
5
66
1
10
0
20
0
30
0
70
8
0
VERTEX
8
0
62
5
10
-0.056568542
20
0.1
30
0
70
32
0
VERTEX
8
0
62
5
10
-0.056568542
20
0.14
30
0
70
32
0
SEQEND
8
0
0
POLYLINE
8
0
62
5
66
1
10
0
20
0
30
0
70
8
0
VERTEX
8
0
62
5
10
-0.028284271
20
0.1
30
0
70
32
0
VERTEX
8
0
62
5
10
-0.028284271
20
0.14
30
0
70
32
0
SEQEND
8
0
0
POLYLINE
8
0
62
5
66
1
10
0
20
0
30
0
70
8
0
VERTEX
8
0
62
5
10
-0.11313708
20
0.1
30
0
70
32
0
VERTEX
8
0
62
5
10
-0.11313708
20
0.14
30
0
70
32
0
SEQEND
8
0
0
POLYLINE
8
0
62
5
66
1
10
0
20
0
30
0
70
8
0
VERTEX
8
0
62
5
10
0
20
0.14
30
0
70
32
0
VERTEX
8
0
62
5
10
0
20
0.21728444
30
0
70
32
0
SEQEND
8
0
0
POLYLINE
8
0
62
5
66
1
10
0
20
0
30
0
70
8
0
VERTEX
8
0
62
5
10
0.11313708
20
0.21728444
30
0
70
32
0
VERTEX
8
0
62
5
10
0.11313708
20
0.14
30
0
70
32
0
SEQEND
8
0
0
POLYLINE
8
0
62
5
66
1
10
0
20
0
30
0
70
8
0
VERTEX
8
0
62
5
10
0
20
0.14331498
30
0
70
32
0
VERTEX
8
0
62
5
10
0.028284271
20
0.14331498
30
0
70
32
0
VERTEX
8
0
62
5
10
0.056568542
20
0.15932111
30
0
70
32
0
VERTEX
8
0
62
5
10
0.084852814
20
0.15932111
30
0
70
32
0
VERTEX
8
0
62
5
10
0.11313708
20
0.14331498
30
0
70
32
0
SEQEND
8
0
0
POLYLINE
8
0
62
5
66
1
10
0
20
0
30
0
70
8
0
VERTEX
8
0
62
5
10
0
20
0.1819572
30
0
70
32
0
VERTEX
8
0
62
5
10
0.028284271
20
0.1819572
30
0
70
32
0
VERTEX
8
0
62
5
10
0.056568542
20
0.19796333
30
0
70
32
0
VERTEX
8
0
62
5
10
0.084852814
20
0.19796333
30
0
70
32
0
VERTEX
8
0
62
5
10
0.11313708
20
0.1819572
30
0
70
32
0
SEQEND
8
0
0
POLYLINE
8
0
62
5
66
1
10
0
20
0
30
0
70
8
0
VERTEX
8
0
62
5
10
0
20
0.17532724
30
0
70
32
0
VERTEX
8
0
62
5
10
0.028284271
20
0.17532724
30
0
70
32
0
VERTEX
8
0
62
5
10
0.056568542
20
0.15932111
30
0
70
32
0
VERTEX
8
0
62
5
10
0.084852814
20
0.15932111
30
0
70
32
0
VERTEX
8
0
62
5
10
0.11313708
20
0.17532724
30
0
70
32
0
SEQEND
8
0
0
POLYLINE
8
0
62
5
66
1
10
0
20
0
30
0
70
8
0
VERTEX
8
0
62
5
10
0
20
0.21396946
30
0
70
32
0
VERTEX
8
0
62
5
10
0.028284271
20
0.21396946
30
0
70
32
0
VERTEX
8
0
62
5
10
0.056568542
20
0.19796333
30
0
70
32
0
VERTEX
8
0
62
5
10
0.084852814
20
0.19796333
30
0
70
32
0
VERTEX
8
0
62
5
10
0.11313708
20
0.21396946
30
0
70
32
0
SEQEND
8
0
0
POLYLINE
8
0
62
30
66
1
10
0
20
0
30
0
70
8
0
VERTEX
8
0
62
30
10
0
20
0.15932111
30
0
70
32
0
VERTEX
8
0
62
30
10
0.11313708
20
0.15932111
30
0
70
32
0
SEQEND
8
0
0
POLYLINE
8
0
62
30
66
1
10
0
20
0
30
0
70
8
0
VERTEX
8
0
62
30
10
0
20
0.19796333
30
0
70
32
0
VERTEX
8
0
62
30
10
0.11313708
20
0.19796333
30
0
70
32
0
SEQEND
8
0
0
POLYLINE
8
0
62
30
66
1
10
0
20
0
30
0
70
8
0
VERTEX
8
0
62
30
10
0.028284271
20
0.14331498
30
0
70
32
0
VERTEX
8
0
62
30
10
0.028284271
20
0.15932111
30
0
70
32
0
SEQEND
8
0
0
POLYLINE
8
0
62
30
66
1
10
0
20
0
30
0
70
8
0
VERTEX
8
0
62
30
10
0.056568542
20
0.15932111
30
0
70
32
0
VERTEX
8
0
62
30
10
0.056568542
20
0.15932111
30
0
70
32
0
SEQEND
8
0
0
POLYLINE
8
0
62
30
66
1
10
0
20
0
30
0
70
8
0
VERTEX
8
0
62
30
10
0.084852814
20
0.15932111
30
0
70
32
0
VERTEX
8
0
62
30
10
0.084852814
20
0.15932111
30
0
70
32
0
SEQEND
8
0
0
POLYLINE
8
0
62
30
66
1
10
0
20
0
30
0
70
8
0
VERTEX
8
0
62
30
10
0.028284271
20
0.1819572
30
0
70
32
0
VERTEX
8
0
62
30
10
0.028284271
20
0.19796333
30
0
70
32
0
SEQEND
8
0
0
POLYLINE
8
0
62
30
66
1
10
0
20
0
30
0
70
8
0
VERTEX
8
0
62
30
10
0.056568542
20
0.19796333
30
0
70
32
0
VERTEX
8
0
62
30
10
0.056568542
20
0.19796333
30
0
70
32
0
SEQEND
8
0
0
POLYLINE
8
0
62
30
66
1
10
0
20
0
30
0
70
8
0
VERTEX
8
0
62
30
10
0.084852814
20
0.19796333
30
0
70
32
0
VERTEX
8
0
62
30
10
0.084852814
20
0.19796333
30
0
70
32
0
SEQEND
8
0
0
POLYLINE
8
0
62
5
66
1
10
0
20
0
30
0
70
8
0
VERTEX
8
0
62
5
10
0.028284271
20
0.14
30
0
70
32
0
VERTEX
8
0
62
5
10
0.028284271
20
0.14331498
30
0
70
32
0
SEQEND
8
0
0
POLYLINE
8
0
62
5
66
1
10
0
20
0
30
0
70
8
0
VERTEX
8
0
62
5
10
0.056568542
20
0.14
30
0
70
32
0
VERTEX
8
0
62
5
10
0.056568542
20
0.15932111
30
0
70
32
0
SEQEND
8
0
0
POLYLINE
8
0
62
5
66
1
10
0
20
0
30
0
70
8
0
VERTEX
8
0
62
5
10
0.084852814
20
0.14
30
0
70
32
0
VERTEX
8
0
62
5
10
0.084852814
20
0.15932111
30
0
70
32
0
SEQEND
8
0
0
POLYLINE
8
0
62
5
66
1
10
0
20
0
30
0
70
8
0
VERTEX
8
0
62
5
10
0.028284271
20
0.17864222
30
0
70
32
0
VERTEX
8
0
62
5
10
0.028284271
20
0.1819572
30
0
70
32
0
SEQEND
8
0
0
POLYLINE
8
0
62
5
66
1
10
0
20
0
30
0
70
8
0
VERTEX
8
0
62
5
10
0.056568542
20
0.17864222
30
0
70
32
0
VERTEX
8
0
62
5
10
0.056568542
20
0.19796333
30
0
70
32
0
SEQEND
8
0
0
POLYLINE
8
0
62
5
66
1
10
0
20
0
30
0
70
8
0
VERTEX
8
0
62
5
10
0.084852814
20
0.17864222
30
0
70
32
0
VERTEX
8
0
62
5
10
0.084852814
20
0.19796333
30
0
70
32
0
SEQEND
8
0
0
POLYLINE
8
0
62
5
66
1
10
0
20
0
30
0
70
8
0
VERTEX
8
0
62
5
10
0.028284271
20
0.15932111
30
0
70
32
0
VERTEX
8
0
62
5
10
0.028284271
20
0.17864222
30
0
70
32
0
SEQEND
8
0
0
POLYLINE
8
0
62
5
66
1
10
0
20
0
30
0
70
8
0
VERTEX
8
0
62
5
10
0.056568542
20
0.15932111
30
0
70
32
0
VERTEX
8
0
62
5
10
0.056568542
20
0.17864222
30
0
70
32
0
SEQEND
8
0
0
POLYLINE
8
0
62
5
66
1
10
0
20
0
30
0
70
8
0
VERTEX
8
0
62
5
10
0.084852814
20
0.15932111
30
0
70
32
0
VERTEX
8
0
62
5
10
0.084852814
20
0.17864222
30
0
70
32
0
SEQEND
8
0
0
POLYLINE
8
0
62
5
66
1
10
0
20
0
30
0
70
8
0
VERTEX
8
0
62
5
10
0.028284271
20
0.19796333
30
0
70
32
0
VERTEX
8
0
62
5
10
0.028284271
20
0.21728444
30
0
70
32
0
SEQEND
8
0
0
POLYLINE
8
0
62
5
66
1
10
0
20
0
30
0
70
8
0
VERTEX
8
0
62
5
10
0.056568542
20
0.19796333
30
0
70
32
0
VERTEX
8
0
62
5
10
0.056568542
20
0.21728444
30
0
70
32
0
SEQEND
8
0
0
POLYLINE
8
0
62
5
66
1
10
0
20
0
30
0
70
8
0
VERTEX
8
0
62
5
10
0.084852814
20
0.19796333
30
0
70
32
0
VERTEX
8
0
62
5
10
0.084852814
20
0.21728444
30
0
70
32
0
SEQEND
8
0
0
POLYLINE
8
0
62
30
66
1
10
0
20
0
30
0
70
8
0
VERTEX
8
0
62
30
10
0
20
0.14331498
30
0
70
32
0
VERTEX
8
0
62
30
10
0.0093334488
20
0.15932111
30
0
70
32
0
VERTEX
8
0
62
30
10
0
20
0.17532724
30
0
70
32
0
SEQEND
8
0
0
POLYLINE
8
0
62
30
66
1
10
0
20
0
30
0
70
8
0
VERTEX
8
0
62
30
10
0.028284271
20
0.14331498
30
0
70
32
0
VERTEX
8
0
62
30
10
0.03761772
20
0.15932111
30
0
70
32
0
VERTEX
8
0
62
30
10
0.028284271
20
0.17532724
30
0
70
32
0
SEQEND
8
0
0
POLYLINE
8
0
62
30
66
1
10
0
20
0
30
0
70
8
0
VERTEX
8
0
62
30
10
0.056568542
20
0.15932111
30
0
70
32
0
VERTEX
8
0
62
30
10
0.056568542
20
0.15932111
30
0
70
32
0
VERTEX
8
0
62
30
10
0.056568542
20
0.15932111
30
0
70
32
0
SEQEND
8
0
0
POLYLINE
8
0
62
30
66
1
10
0
20
0
30
0
70
8
0
VERTEX
8
0
62
30
10
0.084852814
20
0.15932111
30
0
70
32
0
VERTEX
8
0
62
30
10
0.084852814
20
0.15932111
30
0
70
32
0
VERTEX
8
0
62
30
10
0.084852814
20
0.15932111
30
0
70
32
0
SEQEND
8
0
0
POLYLINE
8
0
62
30
66
1
10
0
20
0
30
0
70
8
0
VERTEX
8
0
62
30
10
0
20
0.1819572
30
0
70
32
0
VERTEX
8
0
62
30
10
0.0093334488
20
0.19796333
30
0
70
32
0
VERTEX
8
0
62
30
10
0
20
0.21396946
30
0
70
32
0
SEQEND
8
0
0
POLYLINE
8
0
62
30
66
1
10
0
20
0
30
0
70
8
0
VERTEX
8
0
62
30
10
0.028284271
20
0.1819572
30
0
70
32
0
VERTEX
8
0
62
30
10
0.03761772
20
0.19796333
30
0
70
32
0
VERTEX
8
0
62
30
10
0.028284271
20
0.21396946
30
0
70
32
0
SEQEND
8
0
0
POLYLINE
8
0
62
30
66
1
10
0
20
0
30
0
70
8
0
VERTEX
8
0
62
30
10
0.056568542
20
0.19796333
30
0
70
32
0
VERTEX
8
0
62
30
10
0.056568542
20
0.19796333
30
0
70
32
0
VERTEX
8
0
62
30
10
0.056568542
20
0.19796333
30
0
70
32
0
SEQEND
8
0
0
POLYLINE
8
0
62
30
66
1
10
0
20
0
30
0
70
8
0
VERTEX
8
0
62
30
10
0.084852814
20
0.19796333
30
0
70
32
0
VERTEX
8
0
62
30
10
0.084852814
20
0.19796333
30
0
70
32
0
VERTEX
8
0
62
30
10
0.084852814
20
0.19796333
30
0
70
32
0
SEQEND
8
0
0
POLYLINE
8
0
62
5
66
1
10
0
20
0
30
0
70
8
0
VERTEX
8
0
62
5
10
0.22627417
20
0.21728444
30
0
70
32
0
VERTEX
8
0
62
5
10
0.22627417
20
0.14
30
0
70
32
0
SEQEND
8
0
0
POLYLINE
8
0
62
5
66
1
10
0
20
0
30
0
70
8
0
VERTEX
8
0
62
5
10
0.11313708
20
0.14331498
30
0
70
32
0
VERTEX
8
0
62
5
10
0.14142136
20
0.14331498
30
0
70
32
0
VERTEX
8
0
62
5
10
0.16970563
20
0.15932111
30
0
70
32
0
VERTEX
8
0
62
5
10
0.1979899
20
0.15932111
30
0
70
32
0
VERTEX
8
0
62
5
10
0.22627417
20
0.14331498
30
0
70
32
0
SEQEND
8
0
0
POLYLINE
8
0
62
5
66
1
10
0
20
0
30
0
70
8
0
VERTEX
8
0
62
5
10
0.11313708
20
0.1819572
30
0
70
32
0
VERTEX
8
0
62
5
10
0.14142136
20
0.1819572
30
0
70
32
0
VERTEX
8
0
62
5
10
0.16970563
20
0.19796333
30
0
70
32
0
VERTEX
8
0
62
5
10
0.1979899
20
0.19796333
30
0
70
32
0
VERTEX
8
0
62
5
10
0.22627417
20
0.1819572
30
0
70
32
0
SEQEND
8
0
0
POLYLINE
8
0
62
5
66
1
10
0
20
0
30
0
70
8
0
VERTEX
8
0
62
5
10
0.11313708
20
0.17532724
30
0
70
32
0
VERTEX
8
0
62
5
10
0.14142136
20
0.17532724
30
0
70
32
0
VERTEX
8
0
62
5
10
0.16970563
20
0.15932111
30
0
70
32
0
VERTEX
8
0
62
5
10
0.1979899
20
0.15932111
30
0
70
32
0
VERTEX
8
0
62
5
10
0.22627417
20
0.17532724
30
0
70
32
0
SEQEND
8
0
0
POLYLINE
8
0
62
5
66
1
10
0
20
0
30
0
70
8
0
VERTEX
8
0
62
5
10
0.11313708
20
0.21396946
30
0
70
32
0
VERTEX
8
0
62
5
10
0.14142136
20
0.21396946
30
0
70
32
0
VERTEX
8
0
62
5
10
0.16970563
20
0.19796333
30
0
70
32
0
VERTEX
8
0
62
5
10
0.1979899
20
0.19796333
30
0
70
32
0
VERTEX
8
0
62
5
10
0.22627417
20
0.21396946
30
0
70
32
0
SEQEND
8
0
0
POLYLINE
8
0
62
30
66
1
10
0
20
0
30
0
70
8
0
VERTEX
8
0
62
30
10
0.11313708
20
0.15932111
30
0
70
32
0
VERTEX
8
0
62
30
10
0.22627417
20
0.15932111
30
0
70
32
0
SEQEND
8
0
0
POLYLINE
8
0
62
30
66
1
10
0
20
0
30
0
70
8
0
VERTEX
8
0
62
30
10
0.11313708
20
0.19796333
30
0
70
32
0
VERTEX
8
0
62
30
10
0.22627417
20
0.19796333
30
0
70
32
0
SEQEND
8
0
0
POLYLINE
8
0
62
30
66
1
10
0
20
0
30
0
70
8
0
VERTEX
8
0
62
30
10
0.14142136
20
0.14331498
30
0
70
32
0
VERTEX
8
0
62
30
10
0.14142136
20
0.15932111
30
0
70
32
0
SEQEND
8
0
0
POLYLINE
8
0
62
30
66
1
10
0
20
0
30
0
70
8
0
VERTEX
8
0
62
30
10
0.16970563
20
0.15932111
30
0
70
32
0
VERTEX
8
0
62
30
10
0.16970563
20
0.15932111
30
0
70
32
0
SEQEND
8
0
0
POLYLINE
8
0
62
30
66
1
10
0
20
0
30
0
70
8
0
VERTEX
8
0
62
30
10
0.1979899
20
0.15932111
30
0
70
32
0
VERTEX
8
0
62
30
10
0.1979899
20
0.15932111
30
0
70
32
0
SEQEND
8
0
0
POLYLINE
8
0
62
30
66
1
10
0
20
0
30
0
70
8
0
VERTEX
8
0
62
30
10
0.14142136
20
0.1819572
30
0
70
32
0
VERTEX
8
0
62
30
10
0.14142136
20
0.19796333
30
0
70
32
0
SEQEND
8
0
0
POLYLINE
8
0
62
30
66
1
10
0
20
0
30
0
70
8
0
VERTEX
8
0
62
30
10
0.16970563
20
0.19796333
30
0
70
32
0
VERTEX
8
0
62
30
10
0.16970563
20
0.19796333
30
0
70
32
0
SEQEND
8
0
0
POLYLINE
8
0
62
30
66
1
10
0
20
0
30
0
70
8
0
VERTEX
8
0
62
30
10
0.1979899
20
0.19796333
30
0
70
32
0
VERTEX
8
0
62
30
10
0.1979899
20
0.19796333
30
0
70
32
0
SEQEND
8
0
0
POLYLINE
8
0
62
5
66
1
10
0
20
0
30
0
70
8
0
VERTEX
8
0
62
5
10
0.14142136
20
0.14
30
0
70
32
0
VERTEX
8
0
62
5
10
0.14142136
20
0.14331498
30
0
70
32
0
SEQEND
8
0
0
POLYLINE
8
0
62
5
66
1
10
0
20
0
30
0
70
8
0
VERTEX
8
0
62
5
10
0.16970563
20
0.14
30
0
70
32
0
VERTEX
8
0
62
5
10
0.16970563
20
0.15932111
30
0
70
32
0
SEQEND
8
0
0
POLYLINE
8
0
62
5
66
1
10
0
20
0
30
0
70
8
0
VERTEX
8
0
62
5
10
0.1979899
20
0.14
30
0
70
32
0
VERTEX
8
0
62
5
10
0.1979899
20
0.15932111
30
0
70
32
0
SEQEND
8
0
0
POLYLINE
8
0
62
5
66
1
10
0
20
0
30
0
70
8
0
VERTEX
8
0
62
5
10
0.14142136
20
0.17864222
30
0
70
32
0
VERTEX
8
0
62
5
10
0.14142136
20
0.1819572
30
0
70
32
0
SEQEND
8
0
0
POLYLINE
8
0
62
5
66
1
10
0
20
0
30
0
70
8
0
VERTEX
8
0
62
5
10
0.16970563
20
0.17864222
30
0
70
32
0
VERTEX
8
0
62
5
10
0.16970563
20
0.19796333
30
0
70
32
0
SEQEND
8
0
0
POLYLINE
8
0
62
5
66
1
10
0
20
0
30
0
70
8
0
VERTEX
8
0
62
5
10
0.1979899
20
0.17864222
30
0
70
32
0
VERTEX
8
0
62
5
10
0.1979899
20
0.19796333
30
0
70
32
0
SEQEND
8
0
0
POLYLINE
8
0
62
5
66
1
10
0
20
0
30
0
70
8
0
VERTEX
8
0
62
5
10
0.14142136
20
0.15932111
30
0
70
32
0
VERTEX
8
0
62
5
10
0.14142136
20
0.17864222
30
0
70
32
0
SEQEND
8
0
0
POLYLINE
8
0
62
5
66
1
10
0
20
0
30
0
70
8
0
VERTEX
8
0
62
5
10
0.16970563
20
0.15932111
30
0
70
32
0
VERTEX
8
0
62
5
10
0.16970563
20
0.17864222
30
0
70
32
0
SEQEND
8
0
0
POLYLINE
8
0
62
5
66
1
10
0
20
0
30
0
70
8
0
VERTEX
8
0
62
5
10
0.1979899
20
0.15932111
30
0
70
32
0
VERTEX
8
0
62
5
10
0.1979899
20
0.17864222
30
0
70
32
0
SEQEND
8
0
0
POLYLINE
8
0
62
5
66
1
10
0
20
0
30
0
70
8
0
VERTEX
8
0
62
5
10
0.14142136
20
0.19796333
30
0
70
32
0
VERTEX
8
0
62
5
10
0.14142136
20
0.21728444
30
0
70
32
0
SEQEND
8
0
0
POLYLINE
8
0
62
5
66
1
10
0
20
0
30
0
70
8
0
VERTEX
8
0
62
5
10
0.16970563
20
0.19796333
30
0
70
32
0
VERTEX
8
0
62
5
10
0.16970563
20
0.21728444
30
0
70
32
0
SEQEND
8
0
0
POLYLINE
8
0
62
5
66
1
10
0
20
0
30
0
70
8
0
VERTEX
8
0
62
5
10
0.1979899
20
0.19796333
30
0
70
32
0
VERTEX
8
0
62
5
10
0.1979899
20
0.21728444
30
0
70
32
0
SEQEND
8
0
0
POLYLINE
8
0
62
30
66
1
10
0
20
0
30
0
70
8
0
VERTEX
8
0
62
30
10
0.11313708
20
0.14331498
30
0
70
32
0
VERTEX
8
0
62
30
10
0.12247053
20
0.15932111
30
0
70
32
0
VERTEX
8
0
62
30
10
0.11313708
20
0.17532724
30
0
70
32
0
SEQEND
8
0
0
POLYLINE
8
0
62
30
66
1
10
0
20
0
30
0
70
8
0
VERTEX
8
0
62
30
10
0.14142136
20
0.14331498
30
0
70
32
0
VERTEX
8
0
62
30
10
0.15075481
20
0.15932111
30
0
70
32
0
VERTEX
8
0
62
30
10
0.14142136
20
0.17532724
30
0
70
32
0
SEQEND
8
0
0
POLYLINE
8
0
62
30
66
1
10
0
20
0
30
0
70
8
0
VERTEX
8
0
62
30
10
0.16970563
20
0.15932111
30
0
70
32
0
VERTEX
8
0
62
30
10
0.16970563
20
0.15932111
30
0
70
32
0
VERTEX
8
0
62
30
10
0.16970563
20
0.15932111
30
0
70
32
0
SEQEND
8
0
0
POLYLINE
8
0
62
30
66
1
10
0
20
0
30
0
70
8
0
VERTEX
8
0
62
30
10
0.1979899
20
0.15932111
30
0
70
32
0
VERTEX
8
0
62
30
10
0.1979899
20
0.15932111
30
0
70
32
0
VERTEX
8
0
62
30
10
0.1979899
20
0.15932111
30
0
70
32
0
SEQEND
8
0
0
POLYLINE
8
0
62
30
66
1
10
0
20
0
30
0
70
8
0
VERTEX
8
0
62
30
10
0.11313708
20
0.1819572
30
0
70
32
0
VERTEX
8
0
62
30
10
0.12247053
20
0.19796333
30
0
70
32
0
VERTEX
8
0
62
30
10
0.11313708
20
0.21396946
30
0
70
32
0
SEQEND
8
0
0
POLYLINE
8
0
62
30
66
1
10
0
20
0
30
0
70
8
0
VERTEX
8
0
62
30
10
0.14142136
20
0.1819572
30
0
70
32
0
VERTEX
8
0
62
30
10
0.15075481
20
0.19796333
30
0
70
32
0
VERTEX
8
0
62
30
10
0.14142136
20
0.21396946
30
0
70
32
0
SEQEND
8
0
0
POLYLINE
8
0
62
30
66
1
10
0
20
0
30
0
70
8
0
VERTEX
8
0
62
30
10
0.16970563
20
0.19796333
30
0
70
32
0
VERTEX
8
0
62
30
10
0.16970563
20
0.19796333
30
0
70
32
0
VERTEX
8
0
62
30
10
0.16970563
20
0.19796333
30
0
70
32
0
SEQEND
8
0
0
POLYLINE
8
0
62
30
66
1
10
0
20
0
30
0
70
8
0
VERTEX
8
0
62
30
10
0.1979899
20
0.19796333
30
0
70
32
0
VERTEX
8
0
62
30
10
0.1979899
20
0.19796333
30
0
70
32
0
VERTEX
8
0
62
30
10
0.1979899
20
0.19796333
30
0
70
32
0
SEQEND
8
0
0
POLYLINE
8
0
62
5
66
1
10
0
20
0
30
0
70
8
0
VERTEX
8
0
62
5
10
-0.11313708
20
0.14
30
0
70
32
0
VERTEX
8
0
62
5
10
-0.11313708
20
0.21728444
30
0
70
32
0
SEQEND
8
0
0
POLYLINE
8
0
62
5
66
1
10
0
20
0
30
0
70
8
0
VERTEX
8
0
62
5
10
-0.11313708
20
0.14331498
30
0
70
32
0
VERTEX
8
0
62
5
10
-0.084852814
20
0.14331498
30
0
70
32
0
VERTEX
8
0
62
5
10
-0.056568542
20
0.15932111
30
0
70
32
0
VERTEX
8
0
62
5
10
-0.028284271
20
0.15932111
30
0
70
32
0
VERTEX
8
0
62
5
10
0
20
0.14331498
30
0
70
32
0
SEQEND
8
0
0
POLYLINE
8
0
62
5
66
1
10
0
20
0
30
0
70
8
0
VERTEX
8
0
62
5
10
-0.11313708
20
0.1819572
30
0
70
32
0
VERTEX
8
0
62
5
10
-0.084852814
20
0.1819572
30
0
70
32
0
VERTEX
8
0
62
5
10
-0.056568542
20
0.19796333
30
0
70
32
0
VERTEX
8
0
62
5
10
-0.028284271
20
0.19796333
30
0
70
32
0
VERTEX
8
0
62
5
10
0
20
0.1819572
30
0
70
32
0
SEQEND
8
0
0
POLYLINE
8
0
62
5
66
1
10
0
20
0
30
0
70
8
0
VERTEX
8
0
62
5
10
-0.11313708
20
0.17532724
30
0
70
32
0
VERTEX
8
0
62
5
10
-0.084852814
20
0.17532724
30
0
70
32
0
VERTEX
8
0
62
5
10
-0.056568542
20
0.15932111
30
0
70
32
0
VERTEX
8
0
62
5
10
-0.028284271
20
0.15932111
30
0
70
32
0
VERTEX
8
0
62
5
10
0
20
0.17532724
30
0
70
32
0
SEQEND
8
0
0
POLYLINE
8
0
62
5
66
1
10
0
20
0
30
0
70
8
0
VERTEX
8
0
62
5
10
-0.11313708
20
0.21396946
30
0
70
32
0
VERTEX
8
0
62
5
10
-0.084852814
20
0.21396946
30
0
70
32
0
VERTEX
8
0
62
5
10
-0.056568542
20
0.19796333
30
0
70
32
0
VERTEX
8
0
62
5
10
-0.028284271
20
0.19796333
30
0
70
32
0
VERTEX
8
0
62
5
10
0
20
0.21396946
30
0
70
32
0
SEQEND
8
0
0
POLYLINE
8
0
62
30
66
1
10
0
20
0
30
0
70
8
0
VERTEX
8
0
62
30
10
-0.11313708
20
0.15932111
30
0
70
32
0
VERTEX
8
0
62
30
10
0
20
0.15932111
30
0
70
32
0
SEQEND
8
0
0
POLYLINE
8
0
62
30
66
1
10
0
20
0
30
0
70
8
0
VERTEX
8
0
62
30
10
-0.11313708
20
0.19796333
30
0
70
32
0
VERTEX
8
0
62
30
10
0
20
0.19796333
30
0
70
32
0
SEQEND
8
0
0
POLYLINE
8
0
62
30
66
1
10
0
20
0
30
0
70
8
0
VERTEX
8
0
62
30
10
-0.084852814
20
0.14331498
30
0
70
32
0
VERTEX
8
0
62
30
10
-0.084852814
20
0.15932111
30
0
70
32
0
SEQEND
8
0
0
POLYLINE
8
0
62
30
66
1
10
0
20
0
30
0
70
8
0
VERTEX
8
0
62
30
10
-0.056568542
20
0.15932111
30
0
70
32
0
VERTEX
8
0
62
30
10
-0.056568542
20
0.15932111
30
0
70
32
0
SEQEND
8
0
0
POLYLINE
8
0
62
30
66
1
10
0
20
0
30
0
70
8
0
VERTEX
8
0
62
30
10
-0.028284271
20
0.15932111
30
0
70
32
0
VERTEX
8
0
62
30
10
-0.028284271
20
0.15932111
30
0
70
32
0
SEQEND
8
0
0
POLYLINE
8
0
62
30
66
1
10
0
20
0
30
0
70
8
0
VERTEX
8
0
62
30
10
-0.084852814
20
0.1819572
30
0
70
32
0
VERTEX
8
0
62
30
10
-0.084852814
20
0.19796333
30
0
70
32
0
SEQEND
8
0
0
POLYLINE
8
0
62
30
66
1
10
0
20
0
30
0
70
8
0
VERTEX
8
0
62
30
10
-0.056568542
20
0.19796333
30
0
70
32
0
VERTEX
8
0
62
30
10
-0.056568542
20
0.19796333
30
0
70
32
0
SEQEND
8
0
0
POLYLINE
8
0
62
30
66
1
10
0
20
0
30
0
70
8
0
VERTEX
8
0
62
30
10
-0.028284271
20
0.19796333
30
0
70
32
0
VERTEX
8
0
62
30
10
-0.028284271
20
0.19796333
30
0
70
32
0
SEQEND
8
0
0
POLYLINE
8
0
62
5
66
1
10
0
20
0
30
0
70
8
0
VERTEX
8
0
62
5
10
-0.084852814
20
0.14
30
0
70
32
0
VERTEX
8
0
62
5
10
-0.084852814
20
0.14331498
30
0
70
32
0
SEQEND
8
0
0
POLYLINE
8
0
62
5
66
1
10
0
20
0
30
0
70
8
0
VERTEX
8
0
62
5
10
-0.056568542
20
0.14
30
0
70
32
0
VERTEX
8
0
62
5
10
-0.056568542
20
0.15932111
30
0
70
32
0
SEQEND
8
0
0
POLYLINE
8
0
62
5
66
1
10
0
20
0
30
0
70
8
0
VERTEX
8
0
62
5
10
-0.028284271
20
0.14
30
0
70
32
0
VERTEX
8
0
62
5
10
-0.028284271
20
0.15932111
30
0
70
32
0
SEQEND
8
0
0
POLYLINE
8
0
62
5
66
1
10
0
20
0
30
0
70
8
0
VERTEX
8
0
62
5
10
-0.084852814
20
0.17864222
30
0
70
32
0
VERTEX
8
0
62
5
10
-0.084852814
20
0.1819572
30
0
70
32
0
SEQEND
8
0
0
POLYLINE
8
0
62
5
66
1
10
0
20
0
30
0
70
8
0
VERTEX
8
0
62
5
10
-0.056568542
20
0.17864222
30
0
70
32
0
VERTEX
8
0
62
5
10
-0.056568542
20
0.19796333
30
0
70
32
0
SEQEND
8
0
0
POLYLINE
8
0
62
5
66
1
10
0
20
0
30
0
70
8
0
VERTEX
8
0
62
5
10
-0.028284271
20
0.17864222
30
0
70
32
0
VERTEX
8
0
62
5
10
-0.028284271
20
0.19796333
30
0
70
32
0
SEQEND
8
0
0
POLYLINE
8
0
62
5
66
1
10
0
20
0
30
0
70
8
0
VERTEX
8
0
62
5
10
-0.084852814
20
0.15932111
30
0
70
32
0
VERTEX
8
0
62
5
10
-0.084852814
20
0.17864222
30
0
70
32
0
SEQEND
8
0
0
POLYLINE
8
0
62
5
66
1
10
0
20
0
30
0
70
8
0
VERTEX
8
0
62
5
10
-0.056568542
20
0.15932111
30
0
70
32
0
VERTEX
8
0
62
5
10
-0.056568542
20
0.17864222
30
0
70
32
0
SEQEND
8
0
0
POLYLINE
8
0
62
5
66
1
10
0
20
0
30
0
70
8
0
VERTEX
8
0
62
5
10
-0.028284271
20
0.15932111
30
0
70
32
0
VERTEX
8
0
62
5
10
-0.028284271
20
0.17864222
30
0
70
32
0
SEQEND
8
0
0
POLYLINE
8
0
62
5
66
1
10
0
20
0
30
0
70
8
0
VERTEX
8
0
62
5
10
-0.084852814
20
0.19796333
30
0
70
32
0
VERTEX
8
0
62
5
10
-0.084852814
20
0.21728444
30
0
70
32
0
SEQEND
8
0
0
POLYLINE
8
0
62
5
66
1
10
0
20
0
30
0
70
8
0
VERTEX
8
0
62
5
10
-0.056568542
20
0.19796333
30
0
70
32
0
VERTEX
8
0
62
5
10
-0.056568542
20
0.21728444
30
0
70
32
0
SEQEND
8
0
0
POLYLINE
8
0
62
5
66
1
10
0
20
0
30
0
70
8
0
VERTEX
8
0
62
5
10
-0.028284271
20
0.19796333
30
0
70
32
0
VERTEX
8
0
62
5
10
-0.028284271
20
0.21728444
30
0
70
32
0
SEQEND
8
0
0
POLYLINE
8
0
62
30
66
1
10
0
20
0
30
0
70
8
0
VERTEX
8
0
62
30
10
-0.11313708
20
0.14331498
30
0
70
32
0
VERTEX
8
0
62
30
10
-0.10380364
20
0.15932111
30
0
70
32
0
VERTEX
8
0
62
30
10
-0.11313708
20
0.17532724
30
0
70
32
0
SEQEND
8
0
0
POLYLINE
8
0
62
30
66
1
10
0
20
0
30
0
70
8
0
VERTEX
8
0
62
30
10
-0.084852814
20
0.14331498
30
0
70
32
0
VERTEX
8
0
62
30
10
-0.075519365
20
0.15932111
30
0
70
32
0
VERTEX
8
0
62
30
10
-0.084852814
20
0.17532724
30
0
70
32
0
SEQEND
8
0
0
POLYLINE
8
0
62
30
66
1
10
0
20
0
30
0
70
8
0
VERTEX
8
0
62
30
10
-0.056568542
20
0.15932111
30
0
70
32
0
VERTEX
8
0
62
30
10
-0.056568542
20
0.15932111
30
0
70
32
0
VERTEX
8
0
62
30
10
-0.056568542
20
0.15932111
30
0
70
32
0
SEQEND
8
0
0
POLYLINE
8
0
62
30
66
1
10
0
20
0
30
0
70
8
0
VERTEX
8
0
62
30
10
-0.028284271
20
0.15932111
30
0
70
32
0
VERTEX
8
0
62
30
10
-0.028284271
20
0.15932111
30
0
70
32
0
VERTEX
8
0
62
30
10
-0.028284271
20
0.15932111
30
0
70
32
0
SEQEND
8
0
0
POLYLINE
8
0
62
30
66
1
10
0
20
0
30
0
70
8
0
VERTEX
8
0
62
30
10
-0.11313708
20
0.1819572
30
0
70
32
0
VERTEX
8
0
62
30
10
-0.10380364
20
0.19796333
30
0
70
32
0
VERTEX
8
0
62
30
10
-0.11313708
20
0.21396946
30
0
70
32
0
SEQEND
8
0
0
POLYLINE
8
0
62
30
66
1
10
0
20
0
30
0
70
8
0
VERTEX
8
0
62
30
10
-0.084852814
20
0.1819572
30
0
70
32
0
VERTEX
8
0
62
30
10
-0.075519365
20
0.19796333
30
0
70
32
0
VERTEX
8
0
62
30
10
-0.084852814
20
0.21396946
30
0
70
32
0
SEQEND
8
0
0
POLYLINE
8
0
62
30
66
1
10
0
20
0
30
0
70
8
0
VERTEX
8
0
62
30
10
-0.056568542
20
0.19796333
30
0
70
32
0
VERTEX
8
0
62
30
10
-0.056568542
20
0.19796333
30
0
70
32
0
VERTEX
8
0
62
30
10
-0.056568542
20
0.19796333
30
0
70
32
0
SEQEND
8
0
0
POLYLINE
8
0
62
30
66
1
10
0
20
0
30
0
70
8
0
VERTEX
8
0
62
30
10
-0.028284271
20
0.19796333
30
0
70
32
0
VERTEX
8
0
62
30
10
-0.028284271
20
0.19796333
30
0
70
32
0
VERTEX
8
0
62
30
10
-0.028284271
20
0.19796333
30
0
70
32
0
SEQEND
8
0
0
POLYLINE
8
0
62
5
66
1
10
0
20
0
30
0
70
8
0
VERTEX
8
0
62
5
10
0
20
0.21728444
30
0
70
32
0
VERTEX
8
0
62
5
10
0
20
0.22982235
30
0
70
32
0
SEQEND
8
0
0
POLYLINE
8
0
62
5
66
1
10
0
20
0
30
0
70
8
0
VERTEX
8
0
62
5
10
0.028284271
20
0.21728444
30
0
70
32
0
VERTEX
8
0
62
5
10
0.028284271
20
0.22982235
30
0
70
32
0
SEQEND
8
0
0
POLYLINE
8
0
62
5
66
1
10
0
20
0
30
0
70
8
0
VERTEX
8
0
62
5
10
0.056568542
20
0.21728444
30
0
70
32
0
VERTEX
8
0
62
5
10
0.056568542
20
0.22982235
30
0
70
32
0
SEQEND
8
0
0
POLYLINE
8
0
62
5
66
1
10
0
20
0
30
0
70
8
0
VERTEX
8
0
62
5
10
0.084852814
20
0.21728444
30
0
70
32
0
VERTEX
8
0
62
5
10
0.084852814
20
0.22982235
30
0
70
32
0
SEQEND
8
0
0
POLYLINE
8
0
62
5
66
1
10
0
20
0
30
0
70
8
0
VERTEX
8
0
62
5
10
0.11313708
20
0.21728444
30
0
70
32
0
VERTEX
8
0
62
5
10
0.11313708
20
0.22982235
30
0
70
32
0
SEQEND
8
0
0
POLYLINE
8
0
62
5
66
1
10
0
20
0
30
0
70
8
0
VERTEX
8
0
62
5
10
0.028284271
20
0.21728444
30
0
70
32
0
VERTEX
8
0
62
5
10
0.028284271
20
0.21728444
30
0
70
32
0
SEQEND
8
0
0
POLYLINE
8
0
62
5
66
1
10
0
20
0
30
0
70
8
0
VERTEX
8
0
62
5
10
0.056568542
20
0.21728444
30
0
70
32
0
VERTEX
8
0
62
5
10
0.056568542
20
0.21728444
30
0
70
32
0
SEQEND
8
0
0
POLYLINE
8
0
62
5
66
1
10
0
20
0
30
0
70
8
0
VERTEX
8
0
62
5
10
0.084852814
20
0.21728444
30
0
70
32
0
VERTEX
8
0
62
5
10
0.084852814
20
0.21728444
30
0
70
32
0
SEQEND
8
0
0
POLYLINE
8
0
62
5
66
1
10
0
20
0
30
0
70
8
0
VERTEX
8
0
62
5
10
6.4112841e-13
20
0.22982235
30
0
70
32
0
VERTEX
8
0
62
5
10
6.4112841e-13
20
0.22982235
30
0
70
32
0
SEQEND
8
0
0
POLYLINE
8
0
62
5
66
1
10
0
20
0
30
0
70
8
0
VERTEX
8
0
62
5
10
0.028284271
20
0.22982235
30
0
70
32
0
VERTEX
8
0
62
5
10
0.028284271
20
0.22982235
30
0
70
32
0
SEQEND
8
0
0
POLYLINE
8
0
62
5
66
1
10
0
20
0
30
0
70
8
0
VERTEX
8
0
62
5
10
0.056568542
20
0.22982235
30
0
70
32
0
VERTEX
8
0
62
5
10
0.056568542
20
0.22982235
30
0
70
32
0
SEQEND
8
0
0
POLYLINE
8
0
62
5
66
1
10
0
20
0
30
0
70
8
0
VERTEX
8
0
62
5
10
0.084852814
20
0.22982235
30
0
70
32
0
VERTEX
8
0
62
5
10
0.084852814
20
0.22982235
30
0
70
32
0
SEQEND
8
0
0
POLYLINE
8
0
62
5
66
1
10
0
20
0
30
0
70
8
0
VERTEX
8
0
62
5
10
0.14142136
20
0.21728444
30
0
70
32
0
VERTEX
8
0
62
5
10
0.14142136
20
0.22982235
30
0
70
32
0
SEQEND
8
0
0
POLYLINE
8
0
62
5
66
1
10
0
20
0
30
0
70
8
0
VERTEX
8
0
62
5
10
0.16970563
20
0.21728444
30
0
70
32
0
VERTEX
8
0
62
5
10
0.16970563
20
0.22982235
30
0
70
32
0
SEQEND
8
0
0
POLYLINE
8
0
62
5
66
1
10
0
20
0
30
0
70
8
0
VERTEX
8
0
62
5
10
0.1979899
20
0.21728444
30
0
70
32
0
VERTEX
8
0
62
5
10
0.1979899
20
0.22982235
30
0
70
32
0
SEQEND
8
0
0
POLYLINE
8
0
62
5
66
1
10
0
20
0
30
0
70
8
0
VERTEX
8
0
62
5
10
0.22627417
20
0.21728444
30
0
70
32
0
VERTEX
8
0
62
5
10
0.22627417
20
0.22982235
30
0
70
32
0
SEQEND
8
0
0
POLYLINE
8
0
62
5
66
1
10
0
20
0
30
0
70
8
0
VERTEX
8
0
62
5
10
0.14142136
20
0.21728444
30
0
70
32
0
VERTEX
8
0
62
5
10
0.14142136
20
0.21728444
30
0
70
32
0
SEQEND
8
0
0
POLYLINE
8
0
62
5
66
1
10
0
20
0
30
0
70
8
0
VERTEX
8
0
62
5
10
0.16970563
20
0.21728444
30
0
70
32
0
VERTEX
8
0
62
5
10
0.16970563
20
0.21728444
30
0
70
32
0
SEQEND
8
0
0
POLYLINE
8
0
62
5
66
1
10
0
20
0
30
0
70
8
0
VERTEX
8
0
62
5
10
0.1979899
20
0.21728444
30
0
70
32
0
VERTEX
8
0
62
5
10
0.1979899
20
0.21728444
30
0
70
32
0
SEQEND
8
0
0
POLYLINE
8
0
62
5
66
1
10
0
20
0
30
0
70
8
0
VERTEX
8
0
62
5
10
0.11313708
20
0.22982235
30
0
70
32
0
VERTEX
8
0
62
5
10
0.11313708
20
0.22982235
30
0
70
32
0
SEQEND
8
0
0
POLYLINE
8
0
62
5
66
1
10
0
20
0
30
0
70
8
0
VERTEX
8
0
62
5
10
0.14142136
20
0.22982235
30
0
70
32
0
VERTEX
8
0
62
5
10
0.14142136
20
0.22982235
30
0
70
32
0
SEQEND
8
0
0
POLYLINE
8
0
62
5
66
1
10
0
20
0
30
0
70
8
0
VERTEX
8
0
62
5
10
0.16970563
20
0.22982235
30
0
70
32
0
VERTEX
8
0
62
5
10
0.16970563
20
0.22982235
30
0
70
32
0
SEQEND
8
0
0
POLYLINE
8
0
62
5
66
1
10
0
20
0
30
0
70
8
0
VERTEX
8
0
62
5
10
0.1979899
20
0.22982235
30
0
70
32
0
VERTEX
8
0
62
5
10
0.1979899
20
0.22982235
30
0
70
32
0
SEQEND
8
0
0
POLYLINE
8
0
62
5
66
1
10
0
20
0
30
0
70
8
0
VERTEX
8
0
62
5
10
-0.084852814
20
0.21728444
30
0
70
32
0
VERTEX
8
0
62
5
10
-0.084852814
20
0.22982235
30
0
70
32
0
SEQEND
8
0
0
POLYLINE
8
0
62
5
66
1
10
0
20
0
30
0
70
8
0
VERTEX
8
0
62
5
10
-0.056568542
20
0.21728444
30
0
70
32
0
VERTEX
8
0
62
5
10
-0.056568542
20
0.22982235
30
0
70
32
0
SEQEND
8
0
0
POLYLINE
8
0
62
5
66
1
10
0
20
0
30
0
70
8
0
VERTEX
8
0
62
5
10
-0.028284271
20
0.21728444
30
0
70
32
0
VERTEX
8
0
62
5
10
-0.028284271
20
0.22982235
30
0
70
32
0
SEQEND
8
0
0
POLYLINE
8
0
62
5
66
1
10
0
20
0
30
0
70
8
0
VERTEX
8
0
62
5
10
0
20
0.21728444
30
0
70
32
0
VERTEX
8
0
62
5
10
0
20
0.22982235
30
0
70
32
0
SEQEND
8
0
0
POLYLINE
8
0
62
5
66
1
10
0
20
0
30
0
70
8
0
VERTEX
8
0
62
5
10
-0.084852814
20
0.21728444
30
0
70
32
0
VERTEX
8
0
62
5
10
-0.084852814
20
0.21728444
30
0
70
32
0
SEQEND
8
0
0
POLYLINE
8
0
62
5
66
1
10
0
20
0
30
0
70
8
0
VERTEX
8
0
62
5
10
-0.056568542
20
0.21728444
30
0
70
32
0
VERTEX
8
0
62
5
10
-0.056568542
20
0.21728444
30
0
70
32
0
SEQEND
8
0
0
POLYLINE
8
0
62
5
66
1
10
0
20
0
30
0
70
8
0
VERTEX
8
0
62
5
10
-0.028284271
20
0.21728444
30
0
70
32
0
VERTEX
8
0
62
5
10
-0.028284271
20
0.21728444
30
0
70
32
0
SEQEND
8
0
0
POLYLINE
8
0
62
5
66
1
10
0
20
0
30
0
70
8
0
VERTEX
8
0
62
5
10
-0.11313708
20
0.22982235
30
0
70
32
0
VERTEX
8
0
62
5
10
-0.11313708
20
0.22982235
30
0
70
32
0
SEQEND
8
0
0
POLYLINE
8
0
62
5
66
1
10
0
20
0
30
0
70
8
0
VERTEX
8
0
62
5
10
-0.084852814
20
0.22982235
30
0
70
32
0
VERTEX
8
0
62
5
10
-0.084852814
20
0.22982235
30
0
70
32
0
SEQEND
8
0
0
POLYLINE
8
0
62
5
66
1
10
0
20
0
30
0
70
8
0
VERTEX
8
0
62
5
10
-0.056568542
20
0.22982235
30
0
70
32
0
VERTEX
8
0
62
5
10
-0.056568542
20
0.22982235
30
0
70
32
0
SEQEND
8
0
0
POLYLINE
8
0
62
5
66
1
10
0
20
0
30
0
70
8
0
VERTEX
8
0
62
5
10
-0.028284271
20
0.22982235
30
0
70
32
0
VERTEX
8
0
62
5
10
-0.028284271
20
0.22982235
30
0
70
32
0
SEQEND
8
0
0
POLYLINE
8
0
62
5
66
1
10
0
20
0
30
0
70
8
0
VERTEX
8
0
62
5
10
-0.028284271
20
0.22982235
30
0
70
32
0
VERTEX
8
0
62
5
10
-0.028284271
20
0.279974
30
0
70
32
0
SEQEND
8
0
0
POLYLINE
8
0
62
5
66
1
10
0
20
0
30
0
70
8
0
VERTEX
8
0
62
5
10
0.084852814
20
0.22982235
30
0
70
32
0
VERTEX
8
0
62
5
10
0.084852814
20
0.279974
30
0
70
32
0
SEQEND
8
0
0
POLYLINE
8
0
62
5
66
1
10
0
20
0
30
0
70
8
0
VERTEX
8
0
62
5
10
6.4112951e-13
20
0.22982235
30
0
70
32
0
VERTEX
8
0
62
5
10
6.4112951e-13
20
0.279974
30
0
70
32
0
SEQEND
8
0
0
POLYLINE
8
0
62
5
66
1
10
0
20
0
30
0
70
8
0
VERTEX
8
0
62
5
10
0.028284271
20
0.22982235
30
0
70
32
0
VERTEX
8
0
62
5
10
0.028284271
20
0.279974
30
0
70
32
0
SEQEND
8
0
0
POLYLINE
8
0
62
5
66
1
10
0
20
0
30
0
70
8
0
VERTEX
8
0
62
5
10
0.056568542
20
0.22982235
30
0
70
32
0
VERTEX
8
0
62
5
10
0.056568542
20
0.279974
30
0
70
32
0
SEQEND
8
0
0
POLYLINE
8
0
62
5
66
1
10
0
20
0
30
0
70
8
0
VERTEX
8
0
62
5
10
0.1979899
20
0.22982235
30
0
70
32
0
VERTEX
8
0
62
5
10
0.1979899
20
0.279974
30
0
70
32
0
SEQEND
8
0
0
POLYLINE
8
0
62
5
66
1
10
0
20
0
30
0
70
8
0
VERTEX
8
0
62
5
10
0.11313708
20
0.22982235
30
0
70
32
0
VERTEX
8
0
62
5
10
0.11313708
20
0.279974
30
0
70
32
0
SEQEND
8
0
0
POLYLINE
8
0
62
5
66
1
10
0
20
0
30
0
70
8
0
VERTEX
8
0
62
5
10
0.14142136
20
0.22982235
30
0
70
32
0
VERTEX
8
0
62
5
10
0.14142136
20
0.279974
30
0
70
32
0
SEQEND
8
0
0
POLYLINE
8
0
62
5
66
1
10
0
20
0
30
0
70
8
0
VERTEX
8
0
62
5
10
0.16970563
20
0.22982235
30
0
70
32
0
VERTEX
8
0
62
5
10
0.16970563
20
0.279974
30
0
70
32
0
SEQEND
8
0
0
POLYLINE
8
0
62
5
66
1
10
0
20
0
30
0
70
8
0
VERTEX
8
0
62
5
10
-0.14142136
20
0.22982235
30
0
70
32
0
VERTEX
8
0
62
5
10
-0.14142136
20
0.279974
30
0
70
32
0
SEQEND
8
0
0
POLYLINE
8
0
62
5
66
1
10
0
20
0
30
0
70
8
0
VERTEX
8
0
62
5
10
-0.11313708
20
0.22982235
30
0
70
32
0
VERTEX
8
0
62
5
10
-0.11313708
20
0.279974
30
0
70
32
0
SEQEND
8
0
0
POLYLINE
8
0
62
5
66
1
10
0
20
0
30
0
70
8
0
VERTEX
8
0
62
5
10
-0.084852814
20
0.22982235
30
0
70
32
0
VERTEX
8
0
62
5
10
-0.084852814
20
0.279974
30
0
70
32
0
SEQEND
8
0
0
POLYLINE
8
0
62
5
66
1
10
0
20
0
30
0
70
8
0
VERTEX
8
0
62
5
10
-0.056568542
20
0.22982235
30
0
70
32
0
VERTEX
8
0
62
5
10
-0.056568542
20
0.279974
30
0
70
32
0
SEQEND
8
0
0
POLYLINE
8
0
62
5
66
1
10
0
20
0
30
0
70
8
0
VERTEX
8
0
62
5
10
-0.028284271
20
0.279974
30
0
70
32
0
VERTEX
8
0
62
5
10
-0.028284271
20
0.2970134
30
0
70
32
0
SEQEND
8
0
0
POLYLINE
8
0
62
5
66
1
10
0
20
0
30
0
70
8
0
VERTEX
8
0
62
5
10
0.084852814
20
0.2970134
30
0
70
32
0
VERTEX
8
0
62
5
10
0.084852814
20
0.279974
30
0
70
32
0
SEQEND
8
0
0
POLYLINE
8
0
62
5
66
1
10
0
20
0
30
0
70
8
0
VERTEX
8
0
62
5
10
-0.028284271
20
0.28143575
30
0
70
32
0
VERTEX
8
0
62
5
10
6.4112951e-13
20
0.2884937
30
0
70
32
0
VERTEX
8
0
62
5
10
0.028284271
20
0.2884937
30
0
70
32
0
VERTEX
8
0
62
5
10
0.056568542
20
0.28143575
30
0
70
32
0
VERTEX
8
0
62
5
10
0.084852814
20
0.28143575
30
0
70
32
0
SEQEND
8
0
0
POLYLINE
8
0
62
5
66
1
10
0
20
0
30
0
70
8
0
SEQEND
8
0
0
POLYLINE
8
0
62
5
66
1
10
0
20
0
30
0
70
8
0
VERTEX
8
0
62
5
10
-0.028284271
20
0.29555165
30
0
70
32
0
VERTEX
8
0
62
5
10
6.4112951e-13
20
0.2884937
30
0
70
32
0
VERTEX
8
0
62
5
10
0.028284271
20
0.2884937
30
0
70
32
0
VERTEX
8
0
62
5
10
0.056568542
20
0.29555165
30
0
70
32
0
VERTEX
8
0
62
5
10
0.084852814
20
0.29555165
30
0
70
32
0
SEQEND
8
0
0
POLYLINE
8
0
62
30
66
1
10
0
20
0
30
0
70
8
0
VERTEX
8
0
62
30
10
-0.028284271
20
0.2884937
30
0
70
32
0
VERTEX
8
0
62
30
10
0.084852814
20
0.2884937
30
0
70
32
0
SEQEND
8
0
0
POLYLINE
8
0
62
30
66
1
10
0
20
0
30
0
70
8
0
VERTEX
8
0
62
30
10
6.4112951e-13
20
0.2884937
30
0
70
32
0
VERTEX
8
0
62
30
10
6.4112951e-13
20
0.2884937
30
0
70
32
0
SEQEND
8
0
0
POLYLINE
8
0
62
30
66
1
10
0
20
0
30
0
70
8
0
VERTEX
8
0
62
30
10
0.028284271
20
0.2884937
30
0
70
32
0
VERTEX
8
0
62
30
10
0.028284271
20
0.2884937
30
0
70
32
0
SEQEND
8
0
0
POLYLINE
8
0
62
30
66
1
10
0
20
0
30
0
70
8
0
VERTEX
8
0
62
30
10
0.056568542
20
0.28143575
30
0
70
32
0
VERTEX
8
0
62
30
10
0.056568542
20
0.2884937
30
0
70
32
0
SEQEND
8
0
0
POLYLINE
8
0
62
5
66
1
10
0
20
0
30
0
70
8
0
VERTEX
8
0
62
5
10
6.4112951e-13
20
0.279974
30
0
70
32
0
VERTEX
8
0
62
5
10
6.4112951e-13
20
0.2884937
30
0
70
32
0
SEQEND
8
0
0
POLYLINE
8
0
62
5
66
1
10
0
20
0
30
0
70
8
0
VERTEX
8
0
62
5
10
0.028284271
20
0.279974
30
0
70
32
0
VERTEX
8
0
62
5
10
0.028284271
20
0.2884937
30
0
70
32
0
SEQEND
8
0
0
POLYLINE
8
0
62
5
66
1
10
0
20
0
30
0
70
8
0
VERTEX
8
0
62
5
10
0.056568542
20
0.279974
30
0
70
32
0
VERTEX
8
0
62
5
10
0.056568542
20
0.28143575
30
0
70
32
0
SEQEND
8
0
0
POLYLINE
8
0
62
5
66
1
10
0
20
0
30
0
70
8
0
VERTEX
8
0
62
5
10
6.4112951e-13
20
0.2884937
30
0
70
32
0
VERTEX
8
0
62
5
10
6.4112951e-13
20
0.2970134
30
0
70
32
0
SEQEND
8
0
0
POLYLINE
8
0
62
5
66
1
10
0
20
0
30
0
70
8
0
VERTEX
8
0
62
5
10
0.028284271
20
0.2884937
30
0
70
32
0
VERTEX
8
0
62
5
10
0.028284271
20
0.2970134
30
0
70
32
0
SEQEND
8
0
0
POLYLINE
8
0
62
5
66
1
10
0
20
0
30
0
70
8
0
VERTEX
8
0
62
5
10
0.056568542
20
0.2884937
30
0
70
32
0
VERTEX
8
0
62
5
10
0.056568542
20
0.2970134
30
0
70
32
0
SEQEND
8
0
0
POLYLINE
8
0
62
30
66
1
10
0
20
0
30
0
70
8
0
VERTEX
8
0
62
30
10
-0.028284271
20
0.28143575
30
0
70
32
0
VERTEX
8
0
62
30
10
-0.022771108
20
0.2884937
30
0
70
32
0
VERTEX
8
0
62
30
10
-0.028284271
20
0.29555165
30
0
70
32
0
SEQEND
8
0
0
POLYLINE
8
0
62
30
66
1
10
0
20
0
30
0
70
8
0
VERTEX
8
0
62
30
10
6.4112951e-13
20
0.2884937
30
0
70
32
0
VERTEX
8
0
62
30
10
1.2570917e-12
20
0.2884937
30
0
70
32
0
VERTEX
8
0
62
30
10
6.4112951e-13
20
0.2884937
30
0
70
32
0
SEQEND
8
0
0
POLYLINE
8
0
62
30
66
1
10
0
20
0
30
0
70
8
0
VERTEX
8
0
62
30
10
0.028284271
20
0.2884937
30
0
70
32
0
VERTEX
8
0
62
30
10
0.028284271
20
0.2884937
30
0
70
32
0
VERTEX
8
0
62
30
10
0.028284271
20
0.2884937
30
0
70
32
0
SEQEND
8
0
0
POLYLINE
8
0
62
30
66
1
10
0
20
0
30
0
70
8
0
VERTEX
8
0
62
30
10
0.056568542
20
0.28143575
30
0
70
32
0
VERTEX
8
0
62
30
10
0.062081705
20
0.2884937
30
0
70
32
0
VERTEX
8
0
62
30
10
0.056568542
20
0.29555165
30
0
70
32
0
SEQEND
8
0
0
POLYLINE
8
0
62
5
66
1
10
0
20
0
30
0
70
8
0
VERTEX
8
0
62
5
10
0.1979899
20
0.2970134
30
0
70
32
0
VERTEX
8
0
62
5
10
0.1979899
20
0.279974
30
0
70
32
0
SEQEND
8
0
0
POLYLINE
8
0
62
5
66
1
10
0
20
0
30
0
70
8
0
VERTEX
8
0
62
5
10
0.084852814
20
0.28143575
30
0
70
32
0
VERTEX
8
0
62
5
10
0.11313708
20
0.2884937
30
0
70
32
0
VERTEX
8
0
62
5
10
0.14142136
20
0.2884937
30
0
70
32
0
VERTEX
8
0
62
5
10
0.16970563
20
0.28143575
30
0
70
32
0
VERTEX
8
0
62
5
10
0.1979899
20
0.28143575
30
0
70
32
0
SEQEND
8
0
0
POLYLINE
8
0
62
5
66
1
10
0
20
0
30
0
70
8
0
SEQEND
8
0
0
POLYLINE
8
0
62
5
66
1
10
0
20
0
30
0
70
8
0
VERTEX
8
0
62
5
10
0.084852814
20
0.29555165
30
0
70
32
0
VERTEX
8
0
62
5
10
0.11313708
20
0.2884937
30
0
70
32
0
VERTEX
8
0
62
5
10
0.14142136
20
0.2884937
30
0
70
32
0
VERTEX
8
0
62
5
10
0.16970563
20
0.29555165
30
0
70
32
0
VERTEX
8
0
62
5
10
0.1979899
20
0.29555165
30
0
70
32
0
SEQEND
8
0
0
POLYLINE
8
0
62
30
66
1
10
0
20
0
30
0
70
8
0
VERTEX
8
0
62
30
10
0.084852814
20
0.2884937
30
0
70
32
0
VERTEX
8
0
62
30
10
0.1979899
20
0.2884937
30
0
70
32
0
SEQEND
8
0
0
POLYLINE
8
0
62
30
66
1
10
0
20
0
30
0
70
8
0
VERTEX
8
0
62
30
10
0.11313708
20
0.2884937
30
0
70
32
0
VERTEX
8
0
62
30
10
0.11313708
20
0.2884937
30
0
70
32
0
SEQEND
8
0
0
POLYLINE
8
0
62
30
66
1
10
0
20
0
30
0
70
8
0
VERTEX
8
0
62
30
10
0.14142136
20
0.2884937
30
0
70
32
0
VERTEX
8
0
62
30
10
0.14142136
20
0.2884937
30
0
70
32
0
SEQEND
8
0
0
POLYLINE
8
0
62
30
66
1
10
0
20
0
30
0
70
8
0
VERTEX
8
0
62
30
10
0.16970563
20
0.28143575
30
0
70
32
0
VERTEX
8
0
62
30
10
0.16970563
20
0.2884937
30
0
70
32
0
SEQEND
8
0
0
POLYLINE
8
0
62
5
66
1
10
0
20
0
30
0
70
8
0
VERTEX
8
0
62
5
10
0.11313708
20
0.279974
30
0
70
32
0
VERTEX
8
0
62
5
10
0.11313708
20
0.2884937
30
0
70
32
0
SEQEND
8
0
0
POLYLINE
8
0
62
5
66
1
10
0
20
0
30
0
70
8
0
VERTEX
8
0
62
5
10
0.14142136
20
0.279974
30
0
70
32
0
VERTEX
8
0
62
5
10
0.14142136
20
0.2884937
30
0
70
32
0
SEQEND
8
0
0
POLYLINE
8
0
62
5
66
1
10
0
20
0
30
0
70
8
0
VERTEX
8
0
62
5
10
0.16970563
20
0.279974
30
0
70
32
0
VERTEX
8
0
62
5
10
0.16970563
20
0.28143575
30
0
70
32
0
SEQEND
8
0
0
POLYLINE
8
0
62
5
66
1
10
0
20
0
30
0
70
8
0
VERTEX
8
0
62
5
10
0.11313708
20
0.2884937
30
0
70
32
0
VERTEX
8
0
62
5
10
0.11313708
20
0.2970134
30
0
70
32
0
SEQEND
8
0
0
POLYLINE
8
0
62
5
66
1
10
0
20
0
30
0
70
8
0
VERTEX
8
0
62
5
10
0.14142136
20
0.2884937
30
0
70
32
0
VERTEX
8
0
62
5
10
0.14142136
20
0.2970134
30
0
70
32
0
SEQEND
8
0
0
POLYLINE
8
0
62
5
66
1
10
0
20
0
30
0
70
8
0
VERTEX
8
0
62
5
10
0.16970563
20
0.2884937
30
0
70
32
0
VERTEX
8
0
62
5
10
0.16970563
20
0.2970134
30
0
70
32
0
SEQEND
8
0
0
POLYLINE
8
0
62
30
66
1
10
0
20
0
30
0
70
8
0
VERTEX
8
0
62
30
10
0.084852814
20
0.28143575
30
0
70
32
0
VERTEX
8
0
62
30
10
0.090365977
20
0.2884937
30
0
70
32
0
VERTEX
8
0
62
30
10
0.084852814
20
0.29555165
30
0
70
32
0
SEQEND
8
0
0
POLYLINE
8
0
62
30
66
1
10
0
20
0
30
0
70
8
0
VERTEX
8
0
62
30
10
0.11313708
20
0.2884937
30
0
70
32
0
VERTEX
8
0
62
30
10
0.11313708
20
0.2884937
30
0
70
32
0
VERTEX
8
0
62
30
10
0.11313708
20
0.2884937
30
0
70
32
0
SEQEND
8
0
0
POLYLINE
8
0
62
30
66
1
10
0
20
0
30
0
70
8
0
VERTEX
8
0
62
30
10
0.14142136
20
0.2884937
30
0
70
32
0
VERTEX
8
0
62
30
10
0.14142136
20
0.2884937
30
0
70
32
0
VERTEX
8
0
62
30
10
0.14142136
20
0.2884937
30
0
70
32
0
SEQEND
8
0
0
POLYLINE
8
0
62
30
66
1
10
0
20
0
30
0
70
8
0
VERTEX
8
0
62
30
10
0.16970563
20
0.28143575
30
0
70
32
0
VERTEX
8
0
62
30
10
0.17521879
20
0.2884937
30
0
70
32
0
VERTEX
8
0
62
30
10
0.16970563
20
0.29555165
30
0
70
32
0
SEQEND
8
0
0
POLYLINE
8
0
62
5
66
1
10
0
20
0
30
0
70
8
0
VERTEX
8
0
62
5
10
-0.14142136
20
0.279974
30
0
70
32
0
VERTEX
8
0
62
5
10
-0.14142136
20
0.2970134
30
0
70
32
0
SEQEND
8
0
0
POLYLINE
8
0
62
5
66
1
10
0
20
0
30
0
70
8
0
VERTEX
8
0
62
5
10
-0.14142136
20
0.28143575
30
0
70
32
0
VERTEX
8
0
62
5
10
-0.11313708
20
0.2884937
30
0
70
32
0
VERTEX
8
0
62
5
10
-0.084852814
20
0.2884937
30
0
70
32
0
VERTEX
8
0
62
5
10
-0.056568542
20
0.28143575
30
0
70
32
0
VERTEX
8
0
62
5
10
-0.028284271
20
0.28143575
30
0
70
32
0
SEQEND
8
0
0
POLYLINE
8
0
62
5
66
1
10
0
20
0
30
0
70
8
0
SEQEND
8
0
0
POLYLINE
8
0
62
5
66
1
10
0
20
0
30
0
70
8
0
VERTEX
8
0
62
5
10
-0.14142136
20
0.29555165
30
0
70
32
0
VERTEX
8
0
62
5
10
-0.11313708
20
0.2884937
30
0
70
32
0
VERTEX
8
0
62
5
10
-0.084852814
20
0.2884937
30
0
70
32
0
VERTEX
8
0
62
5
10
-0.056568542
20
0.29555165
30
0
70
32
0
VERTEX
8
0
62
5
10
-0.028284271
20
0.29555165
30
0
70
32
0
SEQEND
8
0
0
POLYLINE
8
0
62
30
66
1
10
0
20
0
30
0
70
8
0
VERTEX
8
0
62
30
10
-0.14142136
20
0.2884937
30
0
70
32
0
VERTEX
8
0
62
30
10
-0.028284271
20
0.2884937
30
0
70
32
0
SEQEND
8
0
0
POLYLINE
8
0
62
30
66
1
10
0
20
0
30
0
70
8
0
VERTEX
8
0
62
30
10
-0.11313708
20
0.2884937
30
0
70
32
0
VERTEX
8
0
62
30
10
-0.11313708
20
0.2884937
30
0
70
32
0
SEQEND
8
0
0
POLYLINE
8
0
62
30
66
1
10
0
20
0
30
0
70
8
0
VERTEX
8
0
62
30
10
-0.084852814
20
0.2884937
30
0
70
32
0
VERTEX
8
0
62
30
10
-0.084852814
20
0.2884937
30
0
70
32
0
SEQEND
8
0
0
POLYLINE
8
0
62
30
66
1
10
0
20
0
30
0
70
8
0
VERTEX
8
0
62
30
10
-0.056568542
20
0.28143575
30
0
70
32
0
VERTEX
8
0
62
30
10
-0.056568542
20
0.2884937
30
0
70
32
0
SEQEND
8
0
0
POLYLINE
8
0
62
5
66
1
10
0
20
0
30
0
70
8
0
VERTEX
8
0
62
5
10
-0.11313708
20
0.279974
30
0
70
32
0
VERTEX
8
0
62
5
10
-0.11313708
20
0.2884937
30
0
70
32
0
SEQEND
8
0
0
POLYLINE
8
0
62
5
66
1
10
0
20
0
30
0
70
8
0
VERTEX
8
0
62
5
10
-0.084852814
20
0.279974
30
0
70
32
0
VERTEX
8
0
62
5
10
-0.084852814
20
0.2884937
30
0
70
32
0
SEQEND
8
0
0
POLYLINE
8
0
62
5
66
1
10
0
20
0
30
0
70
8
0
VERTEX
8
0
62
5
10
-0.056568542
20
0.279974
30
0
70
32
0
VERTEX
8
0
62
5
10
-0.056568542
20
0.28143575
30
0
70
32
0
SEQEND
8
0
0
POLYLINE
8
0
62
5
66
1
10
0
20
0
30
0
70
8
0
VERTEX
8
0
62
5
10
-0.11313708
20
0.2884937
30
0
70
32
0
VERTEX
8
0
62
5
10
-0.11313708
20
0.2970134
30
0
70
32
0
SEQEND
8
0
0
POLYLINE
8
0
62
5
66
1
10
0
20
0
30
0
70
8
0
VERTEX
8
0
62
5
10
-0.084852814
20
0.2884937
30
0
70
32
0
VERTEX
8
0
62
5
10
-0.084852814
20
0.2970134
30
0
70
32
0
SEQEND
8
0
0
POLYLINE
8
0
62
5
66
1
10
0
20
0
30
0
70
8
0
VERTEX
8
0
62
5
10
-0.056568542
20
0.2884937
30
0
70
32
0
VERTEX
8
0
62
5
10
-0.056568542
20
0.2970134
30
0
70
32
0
SEQEND
8
0
0
POLYLINE
8
0
62
30
66
1
10
0
20
0
30
0
70
8
0
VERTEX
8
0
62
30
10
-0.14142136
20
0.28143575
30
0
70
32
0
VERTEX
8
0
62
30
10
-0.13590819
20
0.2884937
30
0
70
32
0
VERTEX
8
0
62
30
10
-0.14142136
20
0.29555165
30
0
70
32
0
SEQEND
8
0
0
POLYLINE
8
0
62
30
66
1
10
0
20
0
30
0
70
8
0
VERTEX
8
0
62
30
10
-0.11313708
20
0.2884937
30
0
70
32
0
VERTEX
8
0
62
30
10
-0.11313708
20
0.2884937
30
0
70
32
0
VERTEX
8
0
62
30
10
-0.11313708
20
0.2884937
30
0
70
32
0
SEQEND
8
0
0
POLYLINE
8
0
62
30
66
1
10
0
20
0
30
0
70
8
0
VERTEX
8
0
62
30
10
-0.084852814
20
0.2884937
30
0
70
32
0
VERTEX
8
0
62
30
10
-0.084852814
20
0.2884937
30
0
70
32
0
VERTEX
8
0
62
30
10
-0.084852814
20
0.2884937
30
0
70
32
0
SEQEND
8
0
0
POLYLINE
8
0
62
30
66
1
10
0
20
0
30
0
70
8
0
VERTEX
8
0
62
30
10
-0.056568542
20
0.28143575
30
0
70
32
0
VERTEX
8
0
62
30
10
-0.05105538
20
0.2884937
30
0
70
32
0
VERTEX
8
0
62
30
10
-0.056568542
20
0.29555165
30
0
70
32
0
SEQEND
8
0
0
POLYLINE
8
0
62
5
66
1
10
0
20
0
30
0
70
8
0
VERTEX
8
0
62
5
10
-0.028284271
20
0.2970134
30
0
70
32
0
VERTEX
8
0
62
5
10
-0.028284271
20
0.48176549
30
0
70
32
0
SEQEND
8
0
0
POLYLINE
8
0
62
5
66
1
10
0
20
0
30
0
70
8
0
VERTEX
8
0
62
5
10
0.084852814
20
0.48176549
30
0
70
32
0
VERTEX
8
0
62
5
10
0.084852814
20
0.2970134
30
0
70
32
0
SEQEND
8
0
0
POLYLINE
8
0
62
30
66
1
10
0
20
0
30
0
70
8
0
VERTEX
8
0
62
30
10
-0.028284271
20
0.43557747
30
0
70
32
0
VERTEX
8
0
62
30
10
0.084852814
20
0.43557747
30
0
70
32
0
SEQEND
8
0
0
POLYLINE
8
0
62
30
66
1
10
0
20
0
30
0
70
8
0
VERTEX
8
0
62
30
10
-0.028284271
20
0.38938945
30
0
70
32
0
VERTEX
8
0
62
30
10
0.084852814
20
0.38938945
30
0
70
32
0
SEQEND
8
0
0
POLYLINE
8
0
62
30
66
1
10
0
20
0
30
0
70
8
0
VERTEX
8
0
62
30
10
-0.028284271
20
0.41248346
30
0
70
32
0
VERTEX
8
0
62
30
10
0.084852814
20
0.41248346
30
0
70
32
0
SEQEND
8
0
0
POLYLINE
8
0
62
5
66
1
10
0
20
0
30
0
70
8
0
VERTEX
8
0
62
5
10
-0.028284271
20
0.34320142
30
0
70
32
0
VERTEX
8
0
62
5
10
0.084852814
20
0.34320142
30
0
70
32
0
SEQEND
8
0
0
POLYLINE
8
0
62
5
66
1
10
0
20
0
30
0
70
8
0
VERTEX
8
0
62
5
10
6.4112951e-13
20
0.2970134
30
0
70
32
0
VERTEX
8
0
62
5
10
6.4112951e-13
20
0.38938945
30
0
70
32
0
SEQEND
8
0
0
POLYLINE
8
0
62
5
66
1
10
0
20
0
30
0
70
8
0
VERTEX
8
0
62
5
10
0.028284271
20
0.2970134
30
0
70
32
0
VERTEX
8
0
62
5
10
0.028284271
20
0.38938945
30
0
70
32
0
SEQEND
8
0
0
POLYLINE
8
0
62
5
66
1
10
0
20
0
30
0
70
8
0
VERTEX
8
0
62
5
10
0.056568542
20
0.2970134
30
0
70
32
0
VERTEX
8
0
62
5
10
0.056568542
20
0.38938945
30
0
70
32
0
SEQEND
8
0
0
POLYLINE
8
0
62
5
66
1
10
0
20
0
30
0
70
8
0
VERTEX
8
0
62
5
10
6.4112951e-13
20
0.43557747
30
0
70
32
0
VERTEX
8
0
62
5
10
6.4112951e-13
20
0.48176549
30
0
70
32
0
SEQEND
8
0
0
POLYLINE
8
0
62
5
66
1
10
0
20
0
30
0
70
8
0
VERTEX
8
0
62
5
10
0.028284271
20
0.43557747
30
0
70
32
0
VERTEX
8
0
62
5
10
0.028284271
20
0.48176549
30
0
70
32
0
SEQEND
8
0
0
POLYLINE
8
0
62
5
66
1
10
0
20
0
30
0
70
8
0
VERTEX
8
0
62
5
10
0.056568542
20
0.43557747
30
0
70
32
0
VERTEX
8
0
62
5
10
0.056568542
20
0.48176549
30
0
70
32
0
SEQEND
8
0
0
POLYLINE
8
0
62
30
66
1
10
0
20
0
30
0
70
8
0
VERTEX
8
0
62
30
10
6.4112951e-13
20
0.38938945
30
0
70
32
0
VERTEX
8
0
62
30
10
6.4112951e-13
20
0.43557747
30
0
70
32
0
SEQEND
8
0
0
POLYLINE
8
0
62
30
66
1
10
0
20
0
30
0
70
8
0
VERTEX
8
0
62
30
10
0.028284271
20
0.38938945
30
0
70
32
0
VERTEX
8
0
62
30
10
0.028284271
20
0.43557747
30
0
70
32
0
SEQEND
8
0
0
POLYLINE
8
0
62
30
66
1
10
0
20
0
30
0
70
8
0
VERTEX
8
0
62
30
10
0.056568542
20
0.38938945
30
0
70
32
0
VERTEX
8
0
62
30
10
0.056568542
20
0.43557747
30
0
70
32
0
SEQEND
8
0
0
POLYLINE
8
0
62
30
66
1
10
0
20
0
30
0
70
8
0
VERTEX
8
0
62
30
10
0.084852814
20
0.38938945
30
0
70
32
0
VERTEX
8
0
62
30
10
0.084852814
20
0.43557747
30
0
70
32
0
SEQEND
8
0
0
POLYLINE
8
0
62
5
66
1
10
0
20
0
30
0
70
8
0
VERTEX
8
0
62
5
10
6.4112951e-13
20
0.38938945
30
0
70
32
0
VERTEX
8
0
62
5
10
-0.0047829262
20
0.40093645
30
0
70
32
0
VERTEX
8
0
62
5
10
6.4112951e-13
20
0.41248346
30
0
70
32
0
VERTEX
8
0
62
5
10
-0.0047829262
20
0.42403046
30
0
70
32
0
VERTEX
8
0
62
5
10
6.4112951e-13
20
0.43557747
30
0
70
32
0
SEQEND
8
0
0
POLYLINE
8
0
62
5
66
1
10
0
20
0
30
0
70
8
0
VERTEX
8
0
62
5
10
0.028284271
20
0.38938945
30
0
70
32
0
VERTEX
8
0
62
5
10
0.023501345
20
0.40093645
30
0
70
32
0
VERTEX
8
0
62
5
10
0.028284271
20
0.41248346
30
0
70
32
0
VERTEX
8
0
62
5
10
0.023501345
20
0.42403046
30
0
70
32
0
VERTEX
8
0
62
5
10
0.028284271
20
0.43557747
30
0
70
32
0
SEQEND
8
0
0
POLYLINE
8
0
62
5
66
1
10
0
20
0
30
0
70
8
0
VERTEX
8
0
62
5
10
0.056568542
20
0.38938945
30
0
70
32
0
VERTEX
8
0
62
5
10
0.051785616
20
0.40093645
30
0
70
32
0
VERTEX
8
0
62
5
10
0.056568542
20
0.41248346
30
0
70
32
0
VERTEX
8
0
62
5
10
0.051785616
20
0.42403046
30
0
70
32
0
VERTEX
8
0
62
5
10
0.056568542
20
0.43557747
30
0
70
32
0
SEQEND
8
0
0
POLYLINE
8
0
62
5
66
1
10
0
20
0
30
0
70
8
0
VERTEX
8
0
62
5
10
0.084852814
20
0.38938945
30
0
70
32
0
VERTEX
8
0
62
5
10
0.080069888
20
0.40093645
30
0
70
32
0
VERTEX
8
0
62
5
10
0.084852814
20
0.41248346
30
0
70
32
0
VERTEX
8
0
62
5
10
0.080069888
20
0.42403046
30
0
70
32
0
VERTEX
8
0
62
5
10
0.084852814
20
0.43557747
30
0
70
32
0
SEQEND
8
0
0
POLYLINE
8
0
62
5
66
1
10
0
20
0
30
0
70
8
0
VERTEX
8
0
62
5
10
-0.028284271
20
0.40093645
30
0
70
32
0
VERTEX
8
0
62
5
10
-0.0047829262
20
0.40093645
30
0
70
32
0
SEQEND
8
0
0
POLYLINE
8
0
62
5
66
1
10
0
20
0
30
0
70
8
0
VERTEX
8
0
62
5
10
-0.028284271
20
0.42403046
30
0
70
32
0
VERTEX
8
0
62
5
10
-0.0047829262
20
0.42403046
30
0
70
32
0
SEQEND
8
0
0
POLYLINE
8
0
62
5
66
1
10
0
20
0
30
0
70
8
0
VERTEX
8
0
62
5
10
6.4112951e-13
20
0.40093645
30
0
70
32
0
VERTEX
8
0
62
5
10
0.023501345
20
0.40093645
30
0
70
32
0
SEQEND
8
0
0
POLYLINE
8
0
62
5
66
1
10
0
20
0
30
0
70
8
0
VERTEX
8
0
62
5
10
6.4112951e-13
20
0.42403046
30
0
70
32
0
VERTEX
8
0
62
5
10
0.023501345
20
0.42403046
30
0
70
32
0
SEQEND
8
0
0
POLYLINE
8
0
62
5
66
1
10
0
20
0
30
0
70
8
0
VERTEX
8
0
62
5
10
0.028284271
20
0.40093645
30
0
70
32
0
VERTEX
8
0
62
5
10
0.051785616
20
0.40093645
30
0
70
32
0
SEQEND
8
0
0
POLYLINE
8
0
62
5
66
1
10
0
20
0
30
0
70
8
0
VERTEX
8
0
62
5
10
0.028284271
20
0.42403046
30
0
70
32
0
VERTEX
8
0
62
5
10
0.051785616
20
0.42403046
30
0
70
32
0
SEQEND
8
0
0
POLYLINE
8
0
62
5
66
1
10
0
20
0
30
0
70
8
0
VERTEX
8
0
62
5
10
0.056568542
20
0.40093645
30
0
70
32
0
VERTEX
8
0
62
5
10
0.080069888
20
0.40093645
30
0
70
32
0
SEQEND
8
0
0
POLYLINE
8
0
62
5
66
1
10
0
20
0
30
0
70
8
0
VERTEX
8
0
62
5
10
0.056568542
20
0.42403046
30
0
70
32
0
VERTEX
8
0
62
5
10
0.080069888
20
0.42403046
30
0
70
32
0
SEQEND
8
0
0
POLYLINE
8
0
62
30
66
1
10
0
20
0
30
0
70
8
0
VERTEX
8
0
62
30
10
-0.0047829262
20
0.40093645
30
0
70
32
0
VERTEX
8
0
62
30
10
6.4112951e-13
20
0.40093645
30
0
70
32
0
SEQEND
8
0
0
POLYLINE
8
0
62
30
66
1
10
0
20
0
30
0
70
8
0
VERTEX
8
0
62
30
10
-0.0047829262
20
0.42403046
30
0
70
32
0
VERTEX
8
0
62
30
10
6.4112951e-13
20
0.42403046
30
0
70
32
0
SEQEND
8
0
0
POLYLINE
8
0
62
30
66
1
10
0
20
0
30
0
70
8
0
VERTEX
8
0
62
30
10
0.023501345
20
0.40093645
30
0
70
32
0
VERTEX
8
0
62
30
10
0.028284271
20
0.40093645
30
0
70
32
0
SEQEND
8
0
0
POLYLINE
8
0
62
30
66
1
10
0
20
0
30
0
70
8
0
VERTEX
8
0
62
30
10
0.023501345
20
0.42403046
30
0
70
32
0
VERTEX
8
0
62
30
10
0.028284271
20
0.42403046
30
0
70
32
0
SEQEND
8
0
0
POLYLINE
8
0
62
30
66
1
10
0
20
0
30
0
70
8
0
VERTEX
8
0
62
30
10
0.051785616
20
0.40093645
30
0
70
32
0
VERTEX
8
0
62
30
10
0.056568542
20
0.40093645
30
0
70
32
0
SEQEND
8
0
0
POLYLINE
8
0
62
30
66
1
10
0
20
0
30
0
70
8
0
VERTEX
8
0
62
30
10
0.051785616
20
0.42403046
30
0
70
32
0
VERTEX
8
0
62
30
10
0.056568542
20
0.42403046
30
0
70
32
0
SEQEND
8
0
0
POLYLINE
8
0
62
30
66
1
10
0
20
0
30
0
70
8
0
VERTEX
8
0
62
30
10
0.080069888
20
0.40093645
30
0
70
32
0
VERTEX
8
0
62
30
10
0.084852814
20
0.40093645
30
0
70
32
0
SEQEND
8
0
0
POLYLINE
8
0
62
30
66
1
10
0
20
0
30
0
70
8
0
VERTEX
8
0
62
30
10
0.080069888
20
0.42403046
30
0
70
32
0
VERTEX
8
0
62
30
10
0.084852814
20
0.42403046
30
0
70
32
0
SEQEND
8
0
0
POLYLINE
8
0
62
5
66
1
10
0
20
0
30
0
70
8
0
VERTEX
8
0
62
5
10
0.1979899
20
0.48176549
30
0
70
32
0
VERTEX
8
0
62
5
10
0.1979899
20
0.2970134
30
0
70
32
0
SEQEND
8
0
0
POLYLINE
8
0
62
30
66
1
10
0
20
0
30
0
70
8
0
VERTEX
8
0
62
30
10
0.084852814
20
0.43557747
30
0
70
32
0
VERTEX
8
0
62
30
10
0.1979899
20
0.43557747
30
0
70
32
0
SEQEND
8
0
0
POLYLINE
8
0
62
30
66
1
10
0
20
0
30
0
70
8
0
VERTEX
8
0
62
30
10
0.084852814
20
0.38938945
30
0
70
32
0
VERTEX
8
0
62
30
10
0.1979899
20
0.38938945
30
0
70
32
0
SEQEND
8
0
0
POLYLINE
8
0
62
30
66
1
10
0
20
0
30
0
70
8
0
VERTEX
8
0
62
30
10
0.084852814
20
0.41248346
30
0
70
32
0
VERTEX
8
0
62
30
10
0.1979899
20
0.41248346
30
0
70
32
0
SEQEND
8
0
0
POLYLINE
8
0
62
5
66
1
10
0
20
0
30
0
70
8
0
VERTEX
8
0
62
5
10
0.084852814
20
0.34320142
30
0
70
32
0
VERTEX
8
0
62
5
10
0.1979899
20
0.34320142
30
0
70
32
0
SEQEND
8
0
0
POLYLINE
8
0
62
5
66
1
10
0
20
0
30
0
70
8
0
VERTEX
8
0
62
5
10
0.11313708
20
0.2970134
30
0
70
32
0
VERTEX
8
0
62
5
10
0.11313708
20
0.38938945
30
0
70
32
0
SEQEND
8
0
0
POLYLINE
8
0
62
5
66
1
10
0
20
0
30
0
70
8
0
VERTEX
8
0
62
5
10
0.14142136
20
0.2970134
30
0
70
32
0
VERTEX
8
0
62
5
10
0.14142136
20
0.38938945
30
0
70
32
0
SEQEND
8
0
0
POLYLINE
8
0
62
5
66
1
10
0
20
0
30
0
70
8
0
VERTEX
8
0
62
5
10
0.16970563
20
0.2970134
30
0
70
32
0
VERTEX
8
0
62
5
10
0.16970563
20
0.38938945
30
0
70
32
0
SEQEND
8
0
0
POLYLINE
8
0
62
5
66
1
10
0
20
0
30
0
70
8
0
VERTEX
8
0
62
5
10
0.11313708
20
0.43557747
30
0
70
32
0
VERTEX
8
0
62
5
10
0.11313708
20
0.48176549
30
0
70
32
0
SEQEND
8
0
0
POLYLINE
8
0
62
5
66
1
10
0
20
0
30
0
70
8
0
VERTEX
8
0
62
5
10
0.14142136
20
0.43557747
30
0
70
32
0
VERTEX
8
0
62
5
10
0.14142136
20
0.48176549
30
0
70
32
0
SEQEND
8
0
0
POLYLINE
8
0
62
5
66
1
10
0
20
0
30
0
70
8
0
VERTEX
8
0
62
5
10
0.16970563
20
0.43557747
30
0
70
32
0
VERTEX
8
0
62
5
10
0.16970563
20
0.48176549
30
0
70
32
0
SEQEND
8
0
0
POLYLINE
8
0
62
30
66
1
10
0
20
0
30
0
70
8
0
VERTEX
8
0
62
30
10
0.11313708
20
0.38938945
30
0
70
32
0
VERTEX
8
0
62
30
10
0.11313708
20
0.43557747
30
0
70
32
0
SEQEND
8
0
0
POLYLINE
8
0
62
30
66
1
10
0
20
0
30
0
70
8
0
VERTEX
8
0
62
30
10
0.14142136
20
0.38938945
30
0
70
32
0
VERTEX
8
0
62
30
10
0.14142136
20
0.43557747
30
0
70
32
0
SEQEND
8
0
0
POLYLINE
8
0
62
30
66
1
10
0
20
0
30
0
70
8
0
VERTEX
8
0
62
30
10
0.16970563
20
0.38938945
30
0
70
32
0
VERTEX
8
0
62
30
10
0.16970563
20
0.43557747
30
0
70
32
0
SEQEND
8
0
0
POLYLINE
8
0
62
30
66
1
10
0
20
0
30
0
70
8
0
VERTEX
8
0
62
30
10
0.1979899
20
0.38938945
30
0
70
32
0
VERTEX
8
0
62
30
10
0.1979899
20
0.43557747
30
0
70
32
0
SEQEND
8
0
0
POLYLINE
8
0
62
5
66
1
10
0
20
0
30
0
70
8
0
VERTEX
8
0
62
5
10
0.11313708
20
0.38938945
30
0
70
32
0
VERTEX
8
0
62
5
10
0.10835416
20
0.40093645
30
0
70
32
0
VERTEX
8
0
62
5
10
0.11313708
20
0.41248346
30
0
70
32
0
VERTEX
8
0
62
5
10
0.10835416
20
0.42403046
30
0
70
32
0
VERTEX
8
0
62
5
10
0.11313708
20
0.43557747
30
0
70
32
0
SEQEND
8
0
0
POLYLINE
8
0
62
5
66
1
10
0
20
0
30
0
70
8
0
VERTEX
8
0
62
5
10
0.14142136
20
0.38938945
30
0
70
32
0
VERTEX
8
0
62
5
10
0.13663843
20
0.40093645
30
0
70
32
0
VERTEX
8
0
62
5
10
0.14142136
20
0.41248346
30
0
70
32
0
VERTEX
8
0
62
5
10
0.13663843
20
0.42403046
30
0
70
32
0
VERTEX
8
0
62
5
10
0.14142136
20
0.43557747
30
0
70
32
0
SEQEND
8
0
0
POLYLINE
8
0
62
5
66
1
10
0
20
0
30
0
70
8
0
VERTEX
8
0
62
5
10
0.16970563
20
0.38938945
30
0
70
32
0
VERTEX
8
0
62
5
10
0.1649227
20
0.40093645
30
0
70
32
0
VERTEX
8
0
62
5
10
0.16970563
20
0.41248346
30
0
70
32
0
VERTEX
8
0
62
5
10
0.1649227
20
0.42403046
30
0
70
32
0
VERTEX
8
0
62
5
10
0.16970563
20
0.43557747
30
0
70
32
0
SEQEND
8
0
0
POLYLINE
8
0
62
5
66
1
10
0
20
0
30
0
70
8
0
VERTEX
8
0
62
5
10
0.1979899
20
0.38938945
30
0
70
32
0
VERTEX
8
0
62
5
10
0.19320697
20
0.40093645
30
0
70
32
0
VERTEX
8
0
62
5
10
0.1979899
20
0.41248346
30
0
70
32
0
VERTEX
8
0
62
5
10
0.19320697
20
0.42403046
30
0
70
32
0
VERTEX
8
0
62
5
10
0.1979899
20
0.43557747
30
0
70
32
0
SEQEND
8
0
0
POLYLINE
8
0
62
5
66
1
10
0
20
0
30
0
70
8
0
VERTEX
8
0
62
5
10
0.084852814
20
0.40093645
30
0
70
32
0
VERTEX
8
0
62
5
10
0.10835416
20
0.40093645
30
0
70
32
0
SEQEND
8
0
0
POLYLINE
8
0
62
5
66
1
10
0
20
0
30
0
70
8
0
VERTEX
8
0
62
5
10
0.084852814
20
0.42403046
30
0
70
32
0
VERTEX
8
0
62
5
10
0.10835416
20
0.42403046
30
0
70
32
0
SEQEND
8
0
0
POLYLINE
8
0
62
5
66
1
10
0
20
0
30
0
70
8
0
VERTEX
8
0
62
5
10
0.11313708
20
0.40093645
30
0
70
32
0
VERTEX
8
0
62
5
10
0.13663843
20
0.40093645
30
0
70
32
0
SEQEND
8
0
0
POLYLINE
8
0
62
5
66
1
10
0
20
0
30
0
70
8
0
VERTEX
8
0
62
5
10
0.11313708
20
0.42403046
30
0
70
32
0
VERTEX
8
0
62
5
10
0.13663843
20
0.42403046
30
0
70
32
0
SEQEND
8
0
0
POLYLINE
8
0
62
5
66
1
10
0
20
0
30
0
70
8
0
VERTEX
8
0
62
5
10
0.14142136
20
0.40093645
30
0
70
32
0
VERTEX
8
0
62
5
10
0.1649227
20
0.40093645
30
0
70
32
0
SEQEND
8
0
0
POLYLINE
8
0
62
5
66
1
10
0
20
0
30
0
70
8
0
VERTEX
8
0
62
5
10
0.14142136
20
0.42403046
30
0
70
32
0
VERTEX
8
0
62
5
10
0.1649227
20
0.42403046
30
0
70
32
0
SEQEND
8
0
0
POLYLINE
8
0
62
5
66
1
10
0
20
0
30
0
70
8
0
VERTEX
8
0
62
5
10
0.16970563
20
0.40093645
30
0
70
32
0
VERTEX
8
0
62
5
10
0.19320697
20
0.40093645
30
0
70
32
0
SEQEND
8
0
0
POLYLINE
8
0
62
5
66
1
10
0
20
0
30
0
70
8
0
VERTEX
8
0
62
5
10
0.16970563
20
0.42403046
30
0
70
32
0
VERTEX
8
0
62
5
10
0.19320697
20
0.42403046
30
0
70
32
0
SEQEND
8
0
0
POLYLINE
8
0
62
30
66
1
10
0
20
0
30
0
70
8
0
VERTEX
8
0
62
30
10
0.10835416
20
0.40093645
30
0
70
32
0
VERTEX
8
0
62
30
10
0.11313708
20
0.40093645
30
0
70
32
0
SEQEND
8
0
0
POLYLINE
8
0
62
30
66
1
10
0
20
0
30
0
70
8
0
VERTEX
8
0
62
30
10
0.10835416
20
0.42403046
30
0
70
32
0
VERTEX
8
0
62
30
10
0.11313708
20
0.42403046
30
0
70
32
0
SEQEND
8
0
0
POLYLINE
8
0
62
30
66
1
10
0
20
0
30
0
70
8
0
VERTEX
8
0
62
30
10
0.13663843
20
0.40093645
30
0
70
32
0
VERTEX
8
0
62
30
10
0.14142136
20
0.40093645
30
0
70
32
0
SEQEND
8
0
0
POLYLINE
8
0
62
30
66
1
10
0
20
0
30
0
70
8
0
VERTEX
8
0
62
30
10
0.13663843
20
0.42403046
30
0
70
32
0
VERTEX
8
0
62
30
10
0.14142136
20
0.42403046
30
0
70
32
0
SEQEND
8
0
0
POLYLINE
8
0
62
30
66
1
10
0
20
0
30
0
70
8
0
VERTEX
8
0
62
30
10
0.1649227
20
0.40093645
30
0
70
32
0
VERTEX
8
0
62
30
10
0.16970563
20
0.40093645
30
0
70
32
0
SEQEND
8
0
0
POLYLINE
8
0
62
30
66
1
10
0
20
0
30
0
70
8
0
VERTEX
8
0
62
30
10
0.1649227
20
0.42403046
30
0
70
32
0
VERTEX
8
0
62
30
10
0.16970563
20
0.42403046
30
0
70
32
0
SEQEND
8
0
0
POLYLINE
8
0
62
30
66
1
10
0
20
0
30
0
70
8
0
VERTEX
8
0
62
30
10
0.19320697
20
0.40093645
30
0
70
32
0
VERTEX
8
0
62
30
10
0.1979899
20
0.40093645
30
0
70
32
0
SEQEND
8
0
0
POLYLINE
8
0
62
30
66
1
10
0
20
0
30
0
70
8
0
VERTEX
8
0
62
30
10
0.19320697
20
0.42403046
30
0
70
32
0
VERTEX
8
0
62
30
10
0.1979899
20
0.42403046
30
0
70
32
0
SEQEND
8
0
0
POLYLINE
8
0
62
5
66
1
10
0
20
0
30
0
70
8
0
VERTEX
8
0
62
5
10
-0.14142136
20
0.2970134
30
0
70
32
0
VERTEX
8
0
62
5
10
-0.14142136
20
0.48176549
30
0
70
32
0
SEQEND
8
0
0
POLYLINE
8
0
62
30
66
1
10
0
20
0
30
0
70
8
0
VERTEX
8
0
62
30
10
-0.14142136
20
0.43557747
30
0
70
32
0
VERTEX
8
0
62
30
10
-0.028284271
20
0.43557747
30
0
70
32
0
SEQEND
8
0
0
POLYLINE
8
0
62
30
66
1
10
0
20
0
30
0
70
8
0
VERTEX
8
0
62
30
10
-0.14142136
20
0.38938945
30
0
70
32
0
VERTEX
8
0
62
30
10
-0.028284271
20
0.38938945
30
0
70
32
0
SEQEND
8
0
0
POLYLINE
8
0
62
30
66
1
10
0
20
0
30
0
70
8
0
VERTEX
8
0
62
30
10
-0.14142136
20
0.41248346
30
0
70
32
0
VERTEX
8
0
62
30
10
-0.028284271
20
0.41248346
30
0
70
32
0
SEQEND
8
0
0
POLYLINE
8
0
62
5
66
1
10
0
20
0
30
0
70
8
0
VERTEX
8
0
62
5
10
-0.14142136
20
0.34320142
30
0
70
32
0
VERTEX
8
0
62
5
10
-0.028284271
20
0.34320142
30
0
70
32
0
SEQEND
8
0
0
POLYLINE
8
0
62
5
66
1
10
0
20
0
30
0
70
8
0
VERTEX
8
0
62
5
10
-0.11313708
20
0.2970134
30
0
70
32
0
VERTEX
8
0
62
5
10
-0.11313708
20
0.38938945
30
0
70
32
0
SEQEND
8
0
0
POLYLINE
8
0
62
5
66
1
10
0
20
0
30
0
70
8
0
VERTEX
8
0
62
5
10
-0.084852814
20
0.2970134
30
0
70
32
0
VERTEX
8
0
62
5
10
-0.084852814
20
0.38938945
30
0
70
32
0
SEQEND
8
0
0
POLYLINE
8
0
62
5
66
1
10
0
20
0
30
0
70
8
0
VERTEX
8
0
62
5
10
-0.056568542
20
0.2970134
30
0
70
32
0
VERTEX
8
0
62
5
10
-0.056568542
20
0.38938945
30
0
70
32
0
SEQEND
8
0
0
POLYLINE
8
0
62
5
66
1
10
0
20
0
30
0
70
8
0
VERTEX
8
0
62
5
10
-0.11313708
20
0.43557747
30
0
70
32
0
VERTEX
8
0
62
5
10
-0.11313708
20
0.48176549
30
0
70
32
0
SEQEND
8
0
0
POLYLINE
8
0
62
5
66
1
10
0
20
0
30
0
70
8
0
VERTEX
8
0
62
5
10
-0.084852814
20
0.43557747
30
0
70
32
0
VERTEX
8
0
62
5
10
-0.084852814
20
0.48176549
30
0
70
32
0
SEQEND
8
0
0
POLYLINE
8
0
62
5
66
1
10
0
20
0
30
0
70
8
0
VERTEX
8
0
62
5
10
-0.056568542
20
0.43557747
30
0
70
32
0
VERTEX
8
0
62
5
10
-0.056568542
20
0.48176549
30
0
70
32
0
SEQEND
8
0
0
POLYLINE
8
0
62
30
66
1
10
0
20
0
30
0
70
8
0
VERTEX
8
0
62
30
10
-0.11313708
20
0.38938945
30
0
70
32
0
VERTEX
8
0
62
30
10
-0.11313708
20
0.43557747
30
0
70
32
0
SEQEND
8
0
0
POLYLINE
8
0
62
30
66
1
10
0
20
0
30
0
70
8
0
VERTEX
8
0
62
30
10
-0.084852814
20
0.38938945
30
0
70
32
0
VERTEX
8
0
62
30
10
-0.084852814
20
0.43557747
30
0
70
32
0
SEQEND
8
0
0
POLYLINE
8
0
62
30
66
1
10
0
20
0
30
0
70
8
0
VERTEX
8
0
62
30
10
-0.056568542
20
0.38938945
30
0
70
32
0
VERTEX
8
0
62
30
10
-0.056568542
20
0.43557747
30
0
70
32
0
SEQEND
8
0
0
POLYLINE
8
0
62
30
66
1
10
0
20
0
30
0
70
8
0
VERTEX
8
0
62
30
10
-0.028284271
20
0.38938945
30
0
70
32
0
VERTEX
8
0
62
30
10
-0.028284271
20
0.43557747
30
0
70
32
0
SEQEND
8
0
0
POLYLINE
8
0
62
5
66
1
10
0
20
0
30
0
70
8
0
VERTEX
8
0
62
5
10
-0.11313708
20
0.38938945
30
0
70
32
0
VERTEX
8
0
62
5
10
-0.11792001
20
0.40093645
30
0
70
32
0
VERTEX
8
0
62
5
10
-0.11313708
20
0.41248346
30
0
70
32
0
VERTEX
8
0
62
5
10
-0.11792001
20
0.42403046
30
0
70
32
0
VERTEX
8
0
62
5
10
-0.11313708
20
0.43557747
30
0
70
32
0
SEQEND
8
0
0
POLYLINE
8
0
62
5
66
1
10
0
20
0
30
0
70
8
0
VERTEX
8
0
62
5
10
-0.084852814
20
0.38938945
30
0
70
32
0
VERTEX
8
0
62
5
10
-0.08963574
20
0.40093645
30
0
70
32
0
VERTEX
8
0
62
5
10
-0.084852814
20
0.41248346
30
0
70
32
0
VERTEX
8
0
62
5
10
-0.08963574
20
0.42403046
30
0
70
32
0
VERTEX
8
0
62
5
10
-0.084852814
20
0.43557747
30
0
70
32
0
SEQEND
8
0
0
POLYLINE
8
0
62
5
66
1
10
0
20
0
30
0
70
8
0
VERTEX
8
0
62
5
10
-0.056568542
20
0.38938945
30
0
70
32
0
VERTEX
8
0
62
5
10
-0.061351469
20
0.40093645
30
0
70
32
0
VERTEX
8
0
62
5
10
-0.056568542
20
0.41248346
30
0
70
32
0
VERTEX
8
0
62
5
10
-0.061351469
20
0.42403046
30
0
70
32
0
VERTEX
8
0
62
5
10
-0.056568542
20
0.43557747
30
0
70
32
0
SEQEND
8
0
0
POLYLINE
8
0
62
5
66
1
10
0
20
0
30
0
70
8
0
VERTEX
8
0
62
5
10
-0.028284271
20
0.38938945
30
0
70
32
0
VERTEX
8
0
62
5
10
-0.033067197
20
0.40093645
30
0
70
32
0
VERTEX
8
0
62
5
10
-0.028284271
20
0.41248346
30
0
70
32
0
VERTEX
8
0
62
5
10
-0.033067197
20
0.42403046
30
0
70
32
0
VERTEX
8
0
62
5
10
-0.028284271
20
0.43557747
30
0
70
32
0
SEQEND
8
0
0
POLYLINE
8
0
62
5
66
1
10
0
20
0
30
0
70
8
0
VERTEX
8
0
62
5
10
-0.14142136
20
0.40093645
30
0
70
32
0
VERTEX
8
0
62
5
10
-0.11792001
20
0.40093645
30
0
70
32
0
SEQEND
8
0
0
POLYLINE
8
0
62
5
66
1
10
0
20
0
30
0
70
8
0
VERTEX
8
0
62
5
10
-0.14142136
20
0.42403046
30
0
70
32
0
VERTEX
8
0
62
5
10
-0.11792001
20
0.42403046
30
0
70
32
0
SEQEND
8
0
0
POLYLINE
8
0
62
5
66
1
10
0
20
0
30
0
70
8
0
VERTEX
8
0
62
5
10
-0.11313708
20
0.40093645
30
0
70
32
0
VERTEX
8
0
62
5
10
-0.08963574
20
0.40093645
30
0
70
32
0
SEQEND
8
0
0
POLYLINE
8
0
62
5
66
1
10
0
20
0
30
0
70
8
0
VERTEX
8
0
62
5
10
-0.11313708
20
0.42403046
30
0
70
32
0
VERTEX
8
0
62
5
10
-0.08963574
20
0.42403046
30
0
70
32
0
SEQEND
8
0
0
POLYLINE
8
0
62
5
66
1
10
0
20
0
30
0
70
8
0
VERTEX
8
0
62
5
10
-0.084852814
20
0.40093645
30
0
70
32
0
VERTEX
8
0
62
5
10
-0.061351469
20
0.40093645
30
0
70
32
0
SEQEND
8
0
0
POLYLINE
8
0
62
5
66
1
10
0
20
0
30
0
70
8
0
VERTEX
8
0
62
5
10
-0.084852814
20
0.42403046
30
0
70
32
0
VERTEX
8
0
62
5
10
-0.061351469
20
0.42403046
30
0
70
32
0
SEQEND
8
0
0
POLYLINE
8
0
62
5
66
1
10
0
20
0
30
0
70
8
0
VERTEX
8
0
62
5
10
-0.056568542
20
0.40093645
30
0
70
32
0
VERTEX
8
0
62
5
10
-0.033067197
20
0.40093645
30
0
70
32
0
SEQEND
8
0
0
POLYLINE
8
0
62
5
66
1
10
0
20
0
30
0
70
8
0
VERTEX
8
0
62
5
10
-0.056568542
20
0.42403046
30
0
70
32
0
VERTEX
8
0
62
5
10
-0.033067197
20
0.42403046
30
0
70
32
0
SEQEND
8
0
0
POLYLINE
8
0
62
30
66
1
10
0
20
0
30
0
70
8
0
VERTEX
8
0
62
30
10
-0.11792001
20
0.40093645
30
0
70
32
0
VERTEX
8
0
62
30
10
-0.11313708
20
0.40093645
30
0
70
32
0
SEQEND
8
0
0
POLYLINE
8
0
62
30
66
1
10
0
20
0
30
0
70
8
0
VERTEX
8
0
62
30
10
-0.11792001
20
0.42403046
30
0
70
32
0
VERTEX
8
0
62
30
10
-0.11313708
20
0.42403046
30
0
70
32
0
SEQEND
8
0
0
POLYLINE
8
0
62
30
66
1
10
0
20
0
30
0
70
8
0
VERTEX
8
0
62
30
10
-0.08963574
20
0.40093645
30
0
70
32
0
VERTEX
8
0
62
30
10
-0.084852814
20
0.40093645
30
0
70
32
0
SEQEND
8
0
0
POLYLINE
8
0
62
30
66
1
10
0
20
0
30
0
70
8
0
VERTEX
8
0
62
30
10
-0.08963574
20
0.42403046
30
0
70
32
0
VERTEX
8
0
62
30
10
-0.084852814
20
0.42403046
30
0
70
32
0
SEQEND
8
0
0
POLYLINE
8
0
62
30
66
1
10
0
20
0
30
0
70
8
0
VERTEX
8
0
62
30
10
-0.061351469
20
0.40093645
30
0
70
32
0
VERTEX
8
0
62
30
10
-0.056568542
20
0.40093645
30
0
70
32
0
SEQEND
8
0
0
POLYLINE
8
0
62
30
66
1
10
0
20
0
30
0
70
8
0
VERTEX
8
0
62
30
10
-0.061351469
20
0.42403046
30
0
70
32
0
VERTEX
8
0
62
30
10
-0.056568542
20
0.42403046
30
0
70
32
0
SEQEND
8
0
0
POLYLINE
8
0
62
30
66
1
10
0
20
0
30
0
70
8
0
VERTEX
8
0
62
30
10
-0.033067197
20
0.40093645
30
0
70
32
0
VERTEX
8
0
62
30
10
-0.028284271
20
0.40093645
30
0
70
32
0
SEQEND
8
0
0
POLYLINE
8
0
62
30
66
1
10
0
20
0
30
0
70
8
0
VERTEX
8
0
62
30
10
-0.033067197
20
0.42403046
30
0
70
32
0
VERTEX
8
0
62
30
10
-0.028284271
20
0.42403046
30
0
70
32
0
SEQEND
8
0
0
POLYLINE
8
0
62
5
66
1
10
0
20
0
30
0
70
8
0
VERTEX
8
0
62
5
10
-0.028284271
20
0.48176549
30
0
70
32
0
VERTEX
8
0
62
5
10
-0.028284271
20
0.49776549
30
0
70
32
0
SEQEND
8
0
0
POLYLINE
8
0
62
5
66
1
10
0
20
0
30
0
70
8
0
VERTEX
8
0
62
5
10
6.4112951e-13
20
0.48176549
30
0
70
32
0
VERTEX
8
0
62
5
10
6.4112951e-13
20
0.49776549
30
0
70
32
0
SEQEND
8
0
0
POLYLINE
8
0
62
5
66
1
10
0
20
0
30
0
70
8
0
VERTEX
8
0
62
5
10
0.028284271
20
0.48176549
30
0
70
32
0
VERTEX
8
0
62
5
10
0.028284271
20
0.49776549
30
0
70
32
0
SEQEND
8
0
0
POLYLINE
8
0
62
5
66
1
10
0
20
0
30
0
70
8
0
VERTEX
8
0
62
5
10
0.056568542
20
0.48176549
30
0
70
32
0
VERTEX
8
0
62
5
10
0.056568542
20
0.49776549
30
0
70
32
0
SEQEND
8
0
0
POLYLINE
8
0
62
5
66
1
10
0
20
0
30
0
70
8
0
VERTEX
8
0
62
5
10
0.084852814
20
0.48176549
30
0
70
32
0
VERTEX
8
0
62
5
10
0.084852814
20
0.49776549
30
0
70
32
0
SEQEND
8
0
0
POLYLINE
8
0
62
5
66
1
10
0
20
0
30
0
70
8
0
VERTEX
8
0
62
5
10
6.4112951e-13
20
0.48176549
30
0
70
32
0
VERTEX
8
0
62
5
10
6.4112951e-13
20
0.48176549
30
0
70
32
0
SEQEND
8
0
0
POLYLINE
8
0
62
5
66
1
10
0
20
0
30
0
70
8
0
VERTEX
8
0
62
5
10
0.028284271
20
0.48176549
30
0
70
32
0
VERTEX
8
0
62
5
10
0.028284271
20
0.48176549
30
0
70
32
0
SEQEND
8
0
0
POLYLINE
8
0
62
5
66
1
10
0
20
0
30
0
70
8
0
VERTEX
8
0
62
5
10
0.056568542
20
0.48176549
30
0
70
32
0
VERTEX
8
0
62
5
10
0.056568542
20
0.48176549
30
0
70
32
0
SEQEND
8
0
0
POLYLINE
8
0
62
5
66
1
10
0
20
0
30
0
70
8
0
VERTEX
8
0
62
5
10
-0.028284271
20
0.49776549
30
0
70
32
0
VERTEX
8
0
62
5
10
-0.028284271
20
0.49776549
30
0
70
32
0
SEQEND
8
0
0
POLYLINE
8
0
62
5
66
1
10
0
20
0
30
0
70
8
0
VERTEX
8
0
62
5
10
6.4112951e-13
20
0.49776549
30
0
70
32
0
VERTEX
8
0
62
5
10
6.4112951e-13
20
0.49776549
30
0
70
32
0
SEQEND
8
0
0
POLYLINE
8
0
62
5
66
1
10
0
20
0
30
0
70
8
0
VERTEX
8
0
62
5
10
0.028284271
20
0.49776549
30
0
70
32
0
VERTEX
8
0
62
5
10
0.028284271
20
0.49776549
30
0
70
32
0
SEQEND
8
0
0
POLYLINE
8
0
62
5
66
1
10
0
20
0
30
0
70
8
0
VERTEX
8
0
62
5
10
0.056568542
20
0.49776549
30
0
70
32
0
VERTEX
8
0
62
5
10
0.056568542
20
0.49776549
30
0
70
32
0
SEQEND
8
0
0
POLYLINE
8
0
62
5
66
1
10
0
20
0
30
0
70
8
0
VERTEX
8
0
62
5
10
0.11313708
20
0.48176549
30
0
70
32
0
VERTEX
8
0
62
5
10
0.11313708
20
0.49776549
30
0
70
32
0
SEQEND
8
0
0
POLYLINE
8
0
62
5
66
1
10
0
20
0
30
0
70
8
0
VERTEX
8
0
62
5
10
0.14142136
20
0.48176549
30
0
70
32
0
VERTEX
8
0
62
5
10
0.14142136
20
0.49776549
30
0
70
32
0
SEQEND
8
0
0
POLYLINE
8
0
62
5
66
1
10
0
20
0
30
0
70
8
0
VERTEX
8
0
62
5
10
0.16970563
20
0.48176549
30
0
70
32
0
VERTEX
8
0
62
5
10
0.16970563
20
0.49776549
30
0
70
32
0
SEQEND
8
0
0
POLYLINE
8
0
62
5
66
1
10
0
20
0
30
0
70
8
0
VERTEX
8
0
62
5
10
0.1979899
20
0.48176549
30
0
70
32
0
VERTEX
8
0
62
5
10
0.1979899
20
0.49776549
30
0
70
32
0
SEQEND
8
0
0
POLYLINE
8
0
62
5
66
1
10
0
20
0
30
0
70
8
0
VERTEX
8
0
62
5
10
0.11313708
20
0.48176549
30
0
70
32
0
VERTEX
8
0
62
5
10
0.11313708
20
0.48176549
30
0
70
32
0
SEQEND
8
0
0
POLYLINE
8
0
62
5
66
1
10
0
20
0
30
0
70
8
0
VERTEX
8
0
62
5
10
0.14142136
20
0.48176549
30
0
70
32
0
VERTEX
8
0
62
5
10
0.14142136
20
0.48176549
30
0
70
32
0
SEQEND
8
0
0
POLYLINE
8
0
62
5
66
1
10
0
20
0
30
0
70
8
0
VERTEX
8
0
62
5
10
0.16970563
20
0.48176549
30
0
70
32
0
VERTEX
8
0
62
5
10
0.16970563
20
0.48176549
30
0
70
32
0
SEQEND
8
0
0
POLYLINE
8
0
62
5
66
1
10
0
20
0
30
0
70
8
0
VERTEX
8
0
62
5
10
0.084852814
20
0.49776549
30
0
70
32
0
VERTEX
8
0
62
5
10
0.084852814
20
0.49776549
30
0
70
32
0
SEQEND
8
0
0
POLYLINE
8
0
62
5
66
1
10
0
20
0
30
0
70
8
0
VERTEX
8
0
62
5
10
0.11313708
20
0.49776549
30
0
70
32
0
VERTEX
8
0
62
5
10
0.11313708
20
0.49776549
30
0
70
32
0
SEQEND
8
0
0
POLYLINE
8
0
62
5
66
1
10
0
20
0
30
0
70
8
0
VERTEX
8
0
62
5
10
0.14142136
20
0.49776549
30
0
70
32
0
VERTEX
8
0
62
5
10
0.14142136
20
0.49776549
30
0
70
32
0
SEQEND
8
0
0
POLYLINE
8
0
62
5
66
1
10
0
20
0
30
0
70
8
0
VERTEX
8
0
62
5
10
0.16970563
20
0.49776549
30
0
70
32
0
VERTEX
8
0
62
5
10
0.16970563
20
0.49776549
30
0
70
32
0
SEQEND
8
0
0
POLYLINE
8
0
62
5
66
1
10
0
20
0
30
0
70
8
0
VERTEX
8
0
62
5
10
-0.11313708
20
0.48176549
30
0
70
32
0
VERTEX
8
0
62
5
10
-0.11313708
20
0.49776549
30
0
70
32
0
SEQEND
8
0
0
POLYLINE
8
0
62
5
66
1
10
0
20
0
30
0
70
8
0
VERTEX
8
0
62
5
10
-0.084852814
20
0.48176549
30
0
70
32
0
VERTEX
8
0
62
5
10
-0.084852814
20
0.49776549
30
0
70
32
0
SEQEND
8
0
0
POLYLINE
8
0
62
5
66
1
10
0
20
0
30
0
70
8
0
VERTEX
8
0
62
5
10
-0.056568542
20
0.48176549
30
0
70
32
0
VERTEX
8
0
62
5
10
-0.056568542
20
0.49776549
30
0
70
32
0
SEQEND
8
0
0
POLYLINE
8
0
62
5
66
1
10
0
20
0
30
0
70
8
0
VERTEX
8
0
62
5
10
-0.028284271
20
0.48176549
30
0
70
32
0
VERTEX
8
0
62
5
10
-0.028284271
20
0.49776549
30
0
70
32
0
SEQEND
8
0
0
POLYLINE
8
0
62
5
66
1
10
0
20
0
30
0
70
8
0
VERTEX
8
0
62
5
10
-0.11313708
20
0.48176549
30
0
70
32
0
VERTEX
8
0
62
5
10
-0.11313708
20
0.48176549
30
0
70
32
0
SEQEND
8
0
0
POLYLINE
8
0
62
5
66
1
10
0
20
0
30
0
70
8
0
VERTEX
8
0
62
5
10
-0.084852814
20
0.48176549
30
0
70
32
0
VERTEX
8
0
62
5
10
-0.084852814
20
0.48176549
30
0
70
32
0
SEQEND
8
0
0
POLYLINE
8
0
62
5
66
1
10
0
20
0
30
0
70
8
0
VERTEX
8
0
62
5
10
-0.056568542
20
0.48176549
30
0
70
32
0
VERTEX
8
0
62
5
10
-0.056568542
20
0.48176549
30
0
70
32
0
SEQEND
8
0
0
POLYLINE
8
0
62
5
66
1
10
0
20
0
30
0
70
8
0
VERTEX
8
0
62
5
10
-0.14142136
20
0.49776549
30
0
70
32
0
VERTEX
8
0
62
5
10
-0.14142136
20
0.49776549
30
0
70
32
0
SEQEND
8
0
0
POLYLINE
8
0
62
5
66
1
10
0
20
0
30
0
70
8
0
VERTEX
8
0
62
5
10
-0.11313708
20
0.49776549
30
0
70
32
0
VERTEX
8
0
62
5
10
-0.11313708
20
0.49776549
30
0
70
32
0
SEQEND
8
0
0
POLYLINE
8
0
62
5
66
1
10
0
20
0
30
0
70
8
0
VERTEX
8
0
62
5
10
-0.084852814
20
0.49776549
30
0
70
32
0
VERTEX
8
0
62
5
10
-0.084852814
20
0.49776549
30
0
70
32
0
SEQEND
8
0
0
POLYLINE
8
0
62
5
66
1
10
0
20
0
30
0
70
8
0
VERTEX
8
0
62
5
10
-0.056568542
20
0.49776549
30
0
70
32
0
VERTEX
8
0
62
5
10
-0.056568542
20
0.49776549
30
0
70
32
0
SEQEND
8
0
0
POLYLINE
8
0
62
5
66
1
10
0
20
0
30
0
70
8
0
VERTEX
8
0
62
5
10
-0.028284271
20
0.49776549
30
0
70
32
0
VERTEX
8
0
62
5
10
-0.028284271
20
0.56176551
30
0
70
32
0
SEQEND
8
0
0
POLYLINE
8
0
62
5
66
1
10
0
20
0
30
0
70
8
0
VERTEX
8
0
62
5
10
0.084852814
20
0.49776549
30
0
70
32
0
VERTEX
8
0
62
5
10
0.084852814
20
0.56176551
30
0
70
32
0
SEQEND
8
0
0
POLYLINE
8
0
62
5
66
1
10
0
20
0
30
0
70
8
0
VERTEX
8
0
62
5
10
6.4112951e-13
20
0.49776549
30
0
70
32
0
VERTEX
8
0
62
5
10
6.4112951e-13
20
0.56176551
30
0
70
32
0
SEQEND
8
0
0
POLYLINE
8
0
62
5
66
1
10
0
20
0
30
0
70
8
0
VERTEX
8
0
62
5
10
0.028284271
20
0.49776549
30
0
70
32
0
VERTEX
8
0
62
5
10
0.028284271
20
0.56176551
30
0
70
32
0
SEQEND
8
0
0
POLYLINE
8
0
62
5
66
1
10
0
20
0
30
0
70
8
0
VERTEX
8
0
62
5
10
0.056568542
20
0.49776549
30
0
70
32
0
VERTEX
8
0
62
5
10
0.056568542
20
0.56176551
30
0
70
32
0
SEQEND
8
0
0
POLYLINE
8
0
62
5
66
1
10
0
20
0
30
0
70
8
0
VERTEX
8
0
62
5
10
0.1979899
20
0.49776549
30
0
70
32
0
VERTEX
8
0
62
5
10
0.1979899
20
0.56176551
30
0
70
32
0
SEQEND
8
0
0
POLYLINE
8
0
62
5
66
1
10
0
20
0
30
0
70
8
0
VERTEX
8
0
62
5
10
0.11313708
20
0.49776549
30
0
70
32
0
VERTEX
8
0
62
5
10
0.11313708
20
0.56176551
30
0
70
32
0
SEQEND
8
0
0
POLYLINE
8
0
62
5
66
1
10
0
20
0
30
0
70
8
0
VERTEX
8
0
62
5
10
0.14142136
20
0.49776549
30
0
70
32
0
VERTEX
8
0
62
5
10
0.14142136
20
0.56176551
30
0
70
32
0
SEQEND
8
0
0
POLYLINE
8
0
62
5
66
1
10
0
20
0
30
0
70
8
0
VERTEX
8
0
62
5
10
0.16970563
20
0.49776549
30
0
70
32
0
VERTEX
8
0
62
5
10
0.16970563
20
0.56176551
30
0
70
32
0
SEQEND
8
0
0
POLYLINE
8
0
62
5
66
1
10
0
20
0
30
0
70
8
0
VERTEX
8
0
62
5
10
-0.14142136
20
0.49776549
30
0
70
32
0
VERTEX
8
0
62
5
10
-0.14142136
20
0.56176551
30
0
70
32
0
SEQEND
8
0
0
POLYLINE
8
0
62
5
66
1
10
0
20
0
30
0
70
8
0
VERTEX
8
0
62
5
10
-0.11313708
20
0.49776549
30
0
70
32
0
VERTEX
8
0
62
5
10
-0.11313708
20
0.56176551
30
0
70
32
0
SEQEND
8
0
0
POLYLINE
8
0
62
5
66
1
10
0
20
0
30
0
70
8
0
VERTEX
8
0
62
5
10
-0.084852814
20
0.49776549
30
0
70
32
0
VERTEX
8
0
62
5
10
-0.084852814
20
0.56176551
30
0
70
32
0
SEQEND
8
0
0
POLYLINE
8
0
62
5
66
1
10
0
20
0
30
0
70
8
0
VERTEX
8
0
62
5
10
-0.056568542
20
0.49776549
30
0
70
32
0
VERTEX
8
0
62
5
10
-0.056568542
20
0.56176551
30
0
70
32
0
SEQEND
8
0
0
POLYLINE
8
0
62
5
66
1
10
0
20
0
30
0
70
8
0
VERTEX
8
0
62
5
10
-0.028284271
20
0.56176551
30
0
70
32
0
VERTEX
8
0
62
5
10
-0.028284271
20
0.60176551
30
0
70
32
0
SEQEND
8
0
0
POLYLINE
8
0
62
5
66
1
10
0
20
0
30
0
70
8
0
VERTEX
8
0
62
5
10
0.084852814
20
0.60176551
30
0
70
32
0
VERTEX
8
0
62
5
10
0.084852814
20
0.56176551
30
0
70
32
0
SEQEND
8
0
0
POLYLINE
8
0
62
5
66
1
10
0
20
0
30
0
70
8
0
VERTEX
8
0
62
5
10
-0.028284271
20
0.56176551
30
0
70
32
0
VERTEX
8
0
62
5
10
0.084852814
20
0.56176551
30
0
70
32
0
SEQEND
8
0
0
POLYLINE
8
0
62
5
66
1
10
0
20
0
30
0
70
8
0
VERTEX
8
0
62
5
10
-0.028284271
20
0.60176551
30
0
70
32
0
VERTEX
8
0
62
5
10
0.084852814
20
0.60176551
30
0
70
32
0
SEQEND
8
0
0
POLYLINE
8
0
62
5
66
1
10
0
20
0
30
0
70
8
0
VERTEX
8
0
62
5
10
6.4112951e-13
20
0.56176551
30
0
70
32
0
VERTEX
8
0
62
5
10
6.4112951e-13
20
0.56176551
30
0
70
32
0
SEQEND
8
0
0
POLYLINE
8
0
62
5
66
1
10
0
20
0
30
0
70
8
0
VERTEX
8
0
62
5
10
0.028284271
20
0.56176551
30
0
70
32
0
VERTEX
8
0
62
5
10
0.028284271
20
0.56176551
30
0
70
32
0
SEQEND
8
0
0
POLYLINE
8
0
62
5
66
1
10
0
20
0
30
0
70
8
0
VERTEX
8
0
62
5
10
0.056568542
20
0.56176551
30
0
70
32
0
VERTEX
8
0
62
5
10
0.056568542
20
0.56176551
30
0
70
32
0
SEQEND
8
0
0
POLYLINE
8
0
62
5
66
1
10
0
20
0
30
0
70
8
0
VERTEX
8
0
62
5
10
6.4112951e-13
20
0.60176551
30
0
70
32
0
VERTEX
8
0
62
5
10
6.4112951e-13
20
0.60176551
30
0
70
32
0
SEQEND
8
0
0
POLYLINE
8
0
62
5
66
1
10
0
20
0
30
0
70
8
0
VERTEX
8
0
62
5
10
0.028284271
20
0.60176551
30
0
70
32
0
VERTEX
8
0
62
5
10
0.028284271
20
0.60176551
30
0
70
32
0
SEQEND
8
0
0
POLYLINE
8
0
62
5
66
1
10
0
20
0
30
0
70
8
0
VERTEX
8
0
62
5
10
0.056568542
20
0.60176551
30
0
70
32
0
VERTEX
8
0
62
5
10
0.056568542
20
0.60176551
30
0
70
32
0
SEQEND
8
0
0
POLYLINE
8
0
62
30
66
1
10
0
20
0
30
0
70
8
0
VERTEX
8
0
62
30
10
-0.028284271
20
0.56176551
30
0
70
32
0
VERTEX
8
0
62
30
10
-0.014142136
20
0.58176551
30
0
70
32
0
SEQEND
8
0
0
POLYLINE
8
0
62
30
66
1
10
0
20
0
30
0
70
8
0
VERTEX
8
0
62
30
10
-0.014142136
20
0.58176551
30
0
70
32
0
VERTEX
8
0
62
30
10
6.4112951e-13
20
0.56176551
30
0
70
32
0
SEQEND
8
0
0
POLYLINE
8
0
62
30
66
1
10
0
20
0
30
0
70
8
0
VERTEX
8
0
62
30
10
0.028284271
20
0.56176551
30
0
70
32
0
VERTEX
8
0
62
30
10
0.042426407
20
0.58176551
30
0
70
32
0
SEQEND
8
0
0
POLYLINE
8
0
62
30
66
1
10
0
20
0
30
0
70
8
0
VERTEX
8
0
62
30
10
0.042426407
20
0.58176551
30
0
70
32
0
VERTEX
8
0
62
30
10
0.056568542
20
0.56176551
30
0
70
32
0
SEQEND
8
0
0
POLYLINE
8
0
62
30
66
1
10
0
20
0
30
0
70
8
0
VERTEX
8
0
62
30
10
6.4112951e-13
20
0.58176551
30
0
70
32
0
VERTEX
8
0
62
30
10
0.028284271
20
0.58176551
30
0
70
32
0
SEQEND
8
0
0
POLYLINE
8
0
62
30
66
1
10
0
20
0
30
0
70
8
0
VERTEX
8
0
62
30
10
0.056568542
20
0.58176551
30
0
70
32
0
VERTEX
8
0
62
30
10
0.084852814
20
0.58176551
30
0
70
32
0
SEQEND
8
0
0
POLYLINE
8
0
62
5
66
1
10
0
20
0
30
0
70
8
0
VERTEX
8
0
62
5
10
-0.028284271
20
0.58176551
30
0
70
32
0
VERTEX
8
0
62
5
10
-0.014142136
20
0.58176551
30
0
70
32
0
SEQEND
8
0
0
POLYLINE
8
0
62
5
66
1
10
0
20
0
30
0
70
8
0
VERTEX
8
0
62
5
10
0.028284271
20
0.58176551
30
0
70
32
0
VERTEX
8
0
62
5
10
0.042426407
20
0.58176551
30
0
70
32
0
SEQEND
8
0
0
POLYLINE
8
0
62
5
66
1
10
0
20
0
30
0
70
8
0
VERTEX
8
0
62
5
10
-0.014142136
20
0.58176551
30
0
70
32
0
VERTEX
8
0
62
5
10
6.4112951e-13
20
0.58176551
30
0
70
32
0
SEQEND
8
0
0
POLYLINE
8
0
62
5
66
1
10
0
20
0
30
0
70
8
0
VERTEX
8
0
62
5
10
0.042426407
20
0.58176551
30
0
70
32
0
VERTEX
8
0
62
5
10
0.056568542
20
0.58176551
30
0
70
32
0
SEQEND
8
0
0
POLYLINE
8
0
62
5
66
1
10
0
20
0
30
0
70
8
0
VERTEX
8
0
62
5
10
6.4112951e-13
20
0.56176551
30
0
70
32
0
VERTEX
8
0
62
5
10
6.4112951e-13
20
0.60176551
30
0
70
32
0
SEQEND
8
0
0
POLYLINE
8
0
62
5
66
1
10
0
20
0
30
0
70
8
0
VERTEX
8
0
62
5
10
0.028284271
20
0.56176551
30
0
70
32
0
VERTEX
8
0
62
5
10
0.028284271
20
0.60176551
30
0
70
32
0
SEQEND
8
0
0
POLYLINE
8
0
62
5
66
1
10
0
20
0
30
0
70
8
0
VERTEX
8
0
62
5
10
0.056568542
20
0.56176551
30
0
70
32
0
VERTEX
8
0
62
5
10
0.056568542
20
0.60176551
30
0
70
32
0
SEQEND
8
0
0
POLYLINE
8
0
62
5
66
1
10
0
20
0
30
0
70
8
0
VERTEX
8
0
62
5
10
-0.028284271
20
0.56176551
30
0
70
32
0
VERTEX
8
0
62
5
10
-0.028284271
20
0.60176551
30
0
70
32
0
SEQEND
8
0
0
POLYLINE
8
0
62
5
66
1
10
0
20
0
30
0
70
8
0
VERTEX
8
0
62
5
10
0.1979899
20
0.60176551
30
0
70
32
0
VERTEX
8
0
62
5
10
0.1979899
20
0.56176551
30
0
70
32
0
SEQEND
8
0
0
POLYLINE
8
0
62
5
66
1
10
0
20
0
30
0
70
8
0
VERTEX
8
0
62
5
10
0.084852814
20
0.56176551
30
0
70
32
0
VERTEX
8
0
62
5
10
0.1979899
20
0.56176551
30
0
70
32
0
SEQEND
8
0
0
POLYLINE
8
0
62
5
66
1
10
0
20
0
30
0
70
8
0
VERTEX
8
0
62
5
10
0.084852814
20
0.60176551
30
0
70
32
0
VERTEX
8
0
62
5
10
0.1979899
20
0.60176551
30
0
70
32
0
SEQEND
8
0
0
POLYLINE
8
0
62
5
66
1
10
0
20
0
30
0
70
8
0
VERTEX
8
0
62
5
10
0.11313708
20
0.56176551
30
0
70
32
0
VERTEX
8
0
62
5
10
0.11313708
20
0.56176551
30
0
70
32
0
SEQEND
8
0
0
POLYLINE
8
0
62
5
66
1
10
0
20
0
30
0
70
8
0
VERTEX
8
0
62
5
10
0.14142136
20
0.56176551
30
0
70
32
0
VERTEX
8
0
62
5
10
0.14142136
20
0.56176551
30
0
70
32
0
SEQEND
8
0
0
POLYLINE
8
0
62
5
66
1
10
0
20
0
30
0
70
8
0
VERTEX
8
0
62
5
10
0.16970563
20
0.56176551
30
0
70
32
0
VERTEX
8
0
62
5
10
0.16970563
20
0.56176551
30
0
70
32
0
SEQEND
8
0
0
POLYLINE
8
0
62
5
66
1
10
0
20
0
30
0
70
8
0
VERTEX
8
0
62
5
10
0.11313708
20
0.60176551
30
0
70
32
0
VERTEX
8
0
62
5
10
0.11313708
20
0.60176551
30
0
70
32
0
SEQEND
8
0
0
POLYLINE
8
0
62
5
66
1
10
0
20
0
30
0
70
8
0
VERTEX
8
0
62
5
10
0.14142136
20
0.60176551
30
0
70
32
0
VERTEX
8
0
62
5
10
0.14142136
20
0.60176551
30
0
70
32
0
SEQEND
8
0
0
POLYLINE
8
0
62
5
66
1
10
0
20
0
30
0
70
8
0
VERTEX
8
0
62
5
10
0.16970563
20
0.60176551
30
0
70
32
0
VERTEX
8
0
62
5
10
0.16970563
20
0.60176551
30
0
70
32
0
SEQEND
8
0
0
POLYLINE
8
0
62
30
66
1
10
0
20
0
30
0
70
8
0
VERTEX
8
0
62
30
10
0.084852814
20
0.56176551
30
0
70
32
0
VERTEX
8
0
62
30
10
0.098994949
20
0.58176551
30
0
70
32
0
SEQEND
8
0
0
POLYLINE
8
0
62
30
66
1
10
0
20
0
30
0
70
8
0
VERTEX
8
0
62
30
10
0.098994949
20
0.58176551
30
0
70
32
0
VERTEX
8
0
62
30
10
0.11313708
20
0.56176551
30
0
70
32
0
SEQEND
8
0
0
POLYLINE
8
0
62
30
66
1
10
0
20
0
30
0
70
8
0
VERTEX
8
0
62
30
10
0.14142136
20
0.56176551
30
0
70
32
0
VERTEX
8
0
62
30
10
0.15556349
20
0.58176551
30
0
70
32
0
SEQEND
8
0
0
POLYLINE
8
0
62
30
66
1
10
0
20
0
30
0
70
8
0
VERTEX
8
0
62
30
10
0.15556349
20
0.58176551
30
0
70
32
0
VERTEX
8
0
62
30
10
0.16970563
20
0.56176551
30
0
70
32
0
SEQEND
8
0
0
POLYLINE
8
0
62
30
66
1
10
0
20
0
30
0
70
8
0
VERTEX
8
0
62
30
10
0.11313708
20
0.58176551
30
0
70
32
0
VERTEX
8
0
62
30
10
0.14142136
20
0.58176551
30
0
70
32
0
SEQEND
8
0
0
POLYLINE
8
0
62
30
66
1
10
0
20
0
30
0
70
8
0
VERTEX
8
0
62
30
10
0.16970563
20
0.58176551
30
0
70
32
0
VERTEX
8
0
62
30
10
0.1979899
20
0.58176551
30
0
70
32
0
SEQEND
8
0
0
POLYLINE
8
0
62
5
66
1
10
0
20
0
30
0
70
8
0
VERTEX
8
0
62
5
10
0.084852814
20
0.58176551
30
0
70
32
0
VERTEX
8
0
62
5
10
0.098994949
20
0.58176551
30
0
70
32
0
SEQEND
8
0
0
POLYLINE
8
0
62
5
66
1
10
0
20
0
30
0
70
8
0
VERTEX
8
0
62
5
10
0.14142136
20
0.58176551
30
0
70
32
0
VERTEX
8
0
62
5
10
0.15556349
20
0.58176551
30
0
70
32
0
SEQEND
8
0
0
POLYLINE
8
0
62
5
66
1
10
0
20
0
30
0
70
8
0
VERTEX
8
0
62
5
10
0.098994949
20
0.58176551
30
0
70
32
0
VERTEX
8
0
62
5
10
0.11313708
20
0.58176551
30
0
70
32
0
SEQEND
8
0
0
POLYLINE
8
0
62
5
66
1
10
0
20
0
30
0
70
8
0
VERTEX
8
0
62
5
10
0.15556349
20
0.58176551
30
0
70
32
0
VERTEX
8
0
62
5
10
0.16970563
20
0.58176551
30
0
70
32
0
SEQEND
8
0
0
POLYLINE
8
0
62
5
66
1
10
0
20
0
30
0
70
8
0
VERTEX
8
0
62
5
10
0.11313708
20
0.56176551
30
0
70
32
0
VERTEX
8
0
62
5
10
0.11313708
20
0.60176551
30
0
70
32
0
SEQEND
8
0
0
POLYLINE
8
0
62
5
66
1
10
0
20
0
30
0
70
8
0
VERTEX
8
0
62
5
10
0.14142136
20
0.56176551
30
0
70
32
0
VERTEX
8
0
62
5
10
0.14142136
20
0.60176551
30
0
70
32
0
SEQEND
8
0
0
POLYLINE
8
0
62
5
66
1
10
0
20
0
30
0
70
8
0
VERTEX
8
0
62
5
10
0.16970563
20
0.56176551
30
0
70
32
0
VERTEX
8
0
62
5
10
0.16970563
20
0.60176551
30
0
70
32
0
SEQEND
8
0
0
POLYLINE
8
0
62
5
66
1
10
0
20
0
30
0
70
8
0
VERTEX
8
0
62
5
10
0.084852814
20
0.56176551
30
0
70
32
0
VERTEX
8
0
62
5
10
0.084852814
20
0.60176551
30
0
70
32
0
SEQEND
8
0
0
POLYLINE
8
0
62
5
66
1
10
0
20
0
30
0
70
8
0
VERTEX
8
0
62
5
10
-0.14142136
20
0.56176551
30
0
70
32
0
VERTEX
8
0
62
5
10
-0.14142136
20
0.60176551
30
0
70
32
0
SEQEND
8
0
0
POLYLINE
8
0
62
5
66
1
10
0
20
0
30
0
70
8
0
VERTEX
8
0
62
5
10
-0.14142136
20
0.56176551
30
0
70
32
0
VERTEX
8
0
62
5
10
-0.028284271
20
0.56176551
30
0
70
32
0
SEQEND
8
0
0
POLYLINE
8
0
62
5
66
1
10
0
20
0
30
0
70
8
0
VERTEX
8
0
62
5
10
-0.14142136
20
0.60176551
30
0
70
32
0
VERTEX
8
0
62
5
10
-0.028284271
20
0.60176551
30
0
70
32
0
SEQEND
8
0
0
POLYLINE
8
0
62
5
66
1
10
0
20
0
30
0
70
8
0
VERTEX
8
0
62
5
10
-0.11313708
20
0.56176551
30
0
70
32
0
VERTEX
8
0
62
5
10
-0.11313708
20
0.56176551
30
0
70
32
0
SEQEND
8
0
0
POLYLINE
8
0
62
5
66
1
10
0
20
0
30
0
70
8
0
VERTEX
8
0
62
5
10
-0.084852814
20
0.56176551
30
0
70
32
0
VERTEX
8
0
62
5
10
-0.084852814
20
0.56176551
30
0
70
32
0
SEQEND
8
0
0
POLYLINE
8
0
62
5
66
1
10
0
20
0
30
0
70
8
0
VERTEX
8
0
62
5
10
-0.056568542
20
0.56176551
30
0
70
32
0
VERTEX
8
0
62
5
10
-0.056568542
20
0.56176551
30
0
70
32
0
SEQEND
8
0
0
POLYLINE
8
0
62
5
66
1
10
0
20
0
30
0
70
8
0
VERTEX
8
0
62
5
10
-0.11313708
20
0.60176551
30
0
70
32
0
VERTEX
8
0
62
5
10
-0.11313708
20
0.60176551
30
0
70
32
0
SEQEND
8
0
0
POLYLINE
8
0
62
5
66
1
10
0
20
0
30
0
70
8
0
VERTEX
8
0
62
5
10
-0.084852814
20
0.60176551
30
0
70
32
0
VERTEX
8
0
62
5
10
-0.084852814
20
0.60176551
30
0
70
32
0
SEQEND
8
0
0
POLYLINE
8
0
62
5
66
1
10
0
20
0
30
0
70
8
0
VERTEX
8
0
62
5
10
-0.056568542
20
0.60176551
30
0
70
32
0
VERTEX
8
0
62
5
10
-0.056568542
20
0.60176551
30
0
70
32
0
SEQEND
8
0
0
POLYLINE
8
0
62
30
66
1
10
0
20
0
30
0
70
8
0
VERTEX
8
0
62
30
10
-0.14142136
20
0.56176551
30
0
70
32
0
VERTEX
8
0
62
30
10
-0.12727922
20
0.58176551
30
0
70
32
0
SEQEND
8
0
0
POLYLINE
8
0
62
30
66
1
10
0
20
0
30
0
70
8
0
VERTEX
8
0
62
30
10
-0.12727922
20
0.58176551
30
0
70
32
0
VERTEX
8
0
62
30
10
-0.11313708
20
0.56176551
30
0
70
32
0
SEQEND
8
0
0
POLYLINE
8
0
62
30
66
1
10
0
20
0
30
0
70
8
0
VERTEX
8
0
62
30
10
-0.084852814
20
0.56176551
30
0
70
32
0
VERTEX
8
0
62
30
10
-0.070710678
20
0.58176551
30
0
70
32
0
SEQEND
8
0
0
POLYLINE
8
0
62
30
66
1
10
0
20
0
30
0
70
8
0
VERTEX
8
0
62
30
10
-0.070710678
20
0.58176551
30
0
70
32
0
VERTEX
8
0
62
30
10
-0.056568542
20
0.56176551
30
0
70
32
0
SEQEND
8
0
0
POLYLINE
8
0
62
30
66
1
10
0
20
0
30
0
70
8
0
VERTEX
8
0
62
30
10
-0.11313708
20
0.58176551
30
0
70
32
0
VERTEX
8
0
62
30
10
-0.084852814
20
0.58176551
30
0
70
32
0
SEQEND
8
0
0
POLYLINE
8
0
62
30
66
1
10
0
20
0
30
0
70
8
0
VERTEX
8
0
62
30
10
-0.056568542
20
0.58176551
30
0
70
32
0
VERTEX
8
0
62
30
10
-0.028284271
20
0.58176551
30
0
70
32
0
SEQEND
8
0
0
POLYLINE
8
0
62
5
66
1
10
0
20
0
30
0
70
8
0
VERTEX
8
0
62
5
10
-0.14142136
20
0.58176551
30
0
70
32
0
VERTEX
8
0
62
5
10
-0.12727922
20
0.58176551
30
0
70
32
0
SEQEND
8
0
0
POLYLINE
8
0
62
5
66
1
10
0
20
0
30
0
70
8
0
VERTEX
8
0
62
5
10
-0.084852814
20
0.58176551
30
0
70
32
0
VERTEX
8
0
62
5
10
-0.070710678
20
0.58176551
30
0
70
32
0
SEQEND
8
0
0
POLYLINE
8
0
62
5
66
1
10
0
20
0
30
0
70
8
0
VERTEX
8
0
62
5
10
-0.12727922
20
0.58176551
30
0
70
32
0
VERTEX
8
0
62
5
10
-0.11313708
20
0.58176551
30
0
70
32
0
SEQEND
8
0
0
POLYLINE
8
0
62
5
66
1
10
0
20
0
30
0
70
8
0
VERTEX
8
0
62
5
10
-0.070710678
20
0.58176551
30
0
70
32
0
VERTEX
8
0
62
5
10
-0.056568542
20
0.58176551
30
0
70
32
0
SEQEND
8
0
0
POLYLINE
8
0
62
5
66
1
10
0
20
0
30
0
70
8
0
VERTEX
8
0
62
5
10
-0.11313708
20
0.56176551
30
0
70
32
0
VERTEX
8
0
62
5
10
-0.11313708
20
0.60176551
30
0
70
32
0
SEQEND
8
0
0
POLYLINE
8
0
62
5
66
1
10
0
20
0
30
0
70
8
0
VERTEX
8
0
62
5
10
-0.084852814
20
0.56176551
30
0
70
32
0
VERTEX
8
0
62
5
10
-0.084852814
20
0.60176551
30
0
70
32
0
SEQEND
8
0
0
POLYLINE
8
0
62
5
66
1
10
0
20
0
30
0
70
8
0
VERTEX
8
0
62
5
10
-0.056568542
20
0.56176551
30
0
70
32
0
VERTEX
8
0
62
5
10
-0.056568542
20
0.60176551
30
0
70
32
0
SEQEND
8
0
0
POLYLINE
8
0
62
5
66
1
10
0
20
0
30
0
70
8
0
VERTEX
8
0
62
5
10
-0.14142136
20
0.56176551
30
0
70
32
0
VERTEX
8
0
62
5
10
-0.14142136
20
0.60176551
30
0
70
32
0
SEQEND
8
0
0
POLYLINE
8
0
62
18
66
1
10
0
20
0
30
0
70
8
0
VERTEX
8
0
62
18
10
0.14142136
20
0
30
0
70
32
0
VERTEX
8
0
62
18
10
0
20
0
30
0
70
32
0
VERTEX
8
0
62
18
10
0
20
0.60176551
30
0
70
32
0
VERTEX
8
0
62
18
10
0.14142136
20
0.60176551
30
0
70
32
0
VERTEX
8
0
62
18
10
0.14142136
20
0
30
0
70
32
0
SEQEND
8
0
0
ENDSEC
0
EOF
