0
SECTION
2
HEADER
9
$ACADVER
1
AC1006
9
$INSUNITS
70
6
0
ENDSEC
0
SECTION
2
ENTITIES
0
POLYLINE
8
0
62
5
66
1
10
0
20
0
30
0
70
8
0
VERTEX
8
0
62
5
10
0
20
0
30
0
70
32
0
VERTEX
8
0
62
5
10
0
20
0.1
30
0
70
32
0
SEQEND
8
0
0
POLYLINE
8
0
62
5
66
1
10
0
20
0
30
0
70
8
0
VERTEX
8
0
62
5
10
0.11313708
20
0
30
0
70
32
0
VERTEX
8
0
62
5
10
0.11313708
20
0.1
30
0
70
32
0
SEQEND
8
0
0
POLYLINE
8
0
62
5
66
1
10
0
20
0
30
0
70
8
0
VERTEX
8
0
62
5
10
0.028284271
20
0
30
0
70
32
0
VERTEX
8
0
62
5
10
0.028284271
20
0.1
30
0
70
32
0
SEQEND
8
0
0
POLYLINE
8
0
62
5
66
1
10
0
20
0
30
0
70
8
0
VERTEX
8
0
62
5
10
0.056568542
20
0
30
0
70
32
0
VERTEX
8
0
62
5
10
0.056568542
20
0.1
30
0
70
32
0
SEQEND
8
0
0
POLYLINE
8
0
62
5
66
1
10
0
20
0
30
0
70
8
0
VERTEX
8
0
62
5
10
0.084852814
20
0
30
0
70
32
0
VERTEX
8
0
62
5
10
0.084852814
20
0.1
30
0
70
32
0
SEQEND
8
0
0
POLYLINE
8
0
62
5
66
1
10
0
20
0
30
0
70
8
0
VERTEX
8
0
62
5
10
0.22627417
20
0
30
0
70
32
0
VERTEX
8
0
62
5
10
0.22627417
20
0.1
30
0
70
32
0
SEQEND
8
0
0
POLYLINE
8
0
62
5
66
1
10
0
20
0
30
0
70
8
0
VERTEX
8
0
62
5
10
0.14142136
20
0
30
0
70
32
0
VERTEX
8
0
62
5
10
0.14142136
20
0.1
30
0
70
32
0
SEQEND
8
0
0
POLYLINE
8
0
62
5
66
1
10
0
20
0
30
0
70
8
0
VERTEX
8
0
62
5
10
0.16970563
20
0
30
0
70
32
0
VERTEX
8
0
62
5
10
0.16970563
20
0.1
30
0
70
32
0
SEQEND
8
0
0
POLYLINE
8
0
62
5
66
1
10
0
20
0
30
0
70
8
0
VERTEX
8
0
62
5
10
0.1979899
20
0
30
0
70
32
0
VERTEX
8
0
62
5
10
0.1979899
20
0.1
30
0
70
32
0
SEQEND
8
0
0
POLYLINE
8
0
62
5
66
1
10
0
20
0
30
0
70
8
0
VERTEX
8
0
62
5
10
-0.11313708
20
0
30
0
70
32
0
VERTEX
8
0
62
5
10
-0.11313708
20
0.1
30
0
70
32
0
SEQEND
8
0
0
POLYLINE
8
0
62
5
66
1
10
0
20
0
30
0
70
8
0
VERTEX
8
0
62
5
10
-0.084852814
20
0
30
0
70
32
0
VERTEX
8
0
62
5
10
-0.084852814
20
0.1
30
0
70
32
0
SEQEND
8
0
0
POLYLINE
8
0
62
5
66
1
10
0
20
0
30
0
70
8
0
VERTEX
8
0
62
5
10
-0.056568542
20
0
30
0
70
32
0
VERTEX
8
0
62
5
10
-0.056568542
20
0.1
30
0
70
32
0
SEQEND
8
0
0
POLYLINE
8
0
62
5
66
1
10
0
20
0
30
0
70
8
0
VERTEX
8
0
62
5
10
-0.028284271
20
0
30
0
70
32
0
VERTEX
8
0
62
5
10
-0.028284271
20
0.1
30
0
70
32
0
SEQEND
8
0
0
POLYLINE
8
0
62
5
66
1
10
0
20
0
30
0
70
8
0
VERTEX
8
0
62
5
10
0
20
0.1
30
0
70
32
0
VERTEX
8
0
62
5
10
0
20
0.14
30
0
70
32
0
SEQEND
8
0
0
POLYLINE
8
0
62
5
66
1
10
0
20
0
30
0
70
8
0
VERTEX
8
0
62
5
10
0.11313708
20
0.14
30
0
70
32
0
VERTEX
8
0
62
5
10
0.11313708
20
0.1
30
0
70
32
0
SEQEND
8
0
0
POLYLINE
8
0
62
5
66
1
10
0
20
0
30
0
70
8
0
VERTEX
8
0
62
5
10
0
20
0.1
30
0
70
32
0
VERTEX
8
0
62
5
10
0.11313708
20
0.1
30
0
70
32
0
SEQEND
8
0
0
POLYLINE
8
0
62
5
66
1
10
0
20
0
30
0
70
8
0
VERTEX
8
0
62
5
10
0
20
0.14
30
0
70
32
0
VERTEX
8
0
62
5
10
0.11313708
20
0.14
30
0
70
32
0
SEQEND
8
0
0
POLYLINE
8
0
62
5
66
1
10
0
20
0
30
0
70
8
0
VERTEX
8
0
62
5
10
0.028284271
20
0.1
30
0
70
32
0
VERTEX
8
0
62
5
10
0.028284271
20
0.1
30
0
70
32
0
SEQEND
8
0
0
POLYLINE
8
0
62
5
66
1
10
0
20
0
30
0
70
8
0
VERTEX
8
0
62
5
10
0.056568542
20
0.1
30
0
70
32
0
VERTEX
8
0
62
5
10
0.056568542
20
0.1
30
0
70
32
0
SEQEND
8
0
0
POLYLINE
8
0
62
5
66
1
10
0
20
0
30
0
70
8
0
VERTEX
8
0
62
5
10
0.084852814
20
0.1
30
0
70
32
0
VERTEX
8
0
62
5
10
0.084852814
20
0.1
30
0
70
32
0
SEQEND
8
0
0
POLYLINE
8
0
62
5
66
1
10
0
20
0
30
0
70
8
0
VERTEX
8
0
62
5
10
0.028284271
20
0.14
30
0
70
32
0
VERTEX
8
0
62
5
10
0.028284271
20
0.14
30
0
70
32
0
SEQEND
8
0
0
POLYLINE
8
0
62
5
66
1
10
0
20
0
30
0
70
8
0
VERTEX
8
0
62
5
10
0.056568542
20
0.14
30
0
70
32
0
VERTEX
8
0
62
5
10
0.056568542
20
0.14
30
0
70
32
0
SEQEND
8
0
0
POLYLINE
8
0
62
5
66
1
10
0
20
0
30
0
70
8
0
VERTEX
8
0
62
5
10
0.084852814
20
0.14
30
0
70
32
0
VERTEX
8
0
62
5
10
0.084852814
20
0.14
30
0
70
32
0
SEQEND
8
0
0
POLYLINE
8
0
62
30
66
1
10
0
20
0
30
0
70
8
0
VERTEX
8
0
62
30
10
0
20
0.14
30
0
70
32
0
VERTEX
8
0
62
30
10
0.028284271
20
0.1
30
0
70
32
0
SEQEND
8
0
0
POLYLINE
8
0
62
30
66
1
10
0
20
0
30
0
70
8
0
VERTEX
8
0
62
30
10
0.028284271
20
0.14
30
0
70
32
0
VERTEX
8
0
62
30
10
0
20
0.1
30
0
70
32
0
SEQEND
8
0
0
POLYLINE
8
0
62
30
66
1
10
0
20
0
30
0
70
8
0
VERTEX
8
0
62
30
10
0.056568542
20
0.14
30
0
70
32
0
VERTEX
8
0
62
30
10
0.084852814
20
0.1
30
0
70
32
0
SEQEND
8
0
0
POLYLINE
8
0
62
30
66
1
10
0
20
0
30
0
70
8
0
VERTEX
8
0
62
30
10
0.084852814
20
0.14
30
0
70
32
0
VERTEX
8
0
62
30
10
0.056568542
20
0.1
30
0
70
32
0
SEQEND
8
0
0
POLYLINE
8
0
62
30
66
1
10
0
20
0
30
0
70
8
0
VERTEX
8
0
62
30
10
0.028284271
20
0.12
30
0
70
32
0
VERTEX
8
0
62
30
10
0.056568542
20
0.12
30
0
70
32
0
SEQEND
8
0
0
POLYLINE
8
0
62
30
66
1
10
0
20
0
30
0
70
8
0
VERTEX
8
0
62
30
10
0.084852814
20
0.12
30
0
70
32
0
VERTEX
8
0
62
30
10
0.11313708
20
0.12
30
0
70
32
0
SEQEND
8
0
0
POLYLINE
8
0
62
5
66
1
10
0
20
0
30
0
70
8
0
VERTEX
8
0
62
5
10
0
20
0.12
30
0
70
32
0
VERTEX
8
0
62
5
10
0.014142136
20
0.12
30
0
70
32
0
SEQEND
8
0
0
POLYLINE
8
0
62
5
66
1
10
0
20
0
30
0
70
8
0
VERTEX
8
0
62
5
10
0.056568542
20
0.12
30
0
70
32
0
VERTEX
8
0
62
5
10
0.070710678
20
0.12
30
0
70
32
0
SEQEND
8
0
0
POLYLINE
8
0
62
5
66
1
10
0
20
0
30
0
70
8
0
VERTEX
8
0
62
5
10
0.014142136
20
0.12
30
0
70
32
0
VERTEX
8
0
62
5
10
0.028284271
20
0.12
30
0
70
32
0
SEQEND
8
0
0
POLYLINE
8
0
62
5
66
1
10
0
20
0
30
0
70
8
0
VERTEX
8
0
62
5
10
0.070710678
20
0.12
30
0
70
32
0
VERTEX
8
0
62
5
10
0.084852814
20
0.12
30
0
70
32
0
SEQEND
8
0
0
POLYLINE
8
0
62
5
66
1
10
0
20
0
30
0
70
8
0
VERTEX
8
0
62
5
10
0.028284271
20
0.1
30
0
70
32
0
VERTEX
8
0
62
5
10
0.028284271
20
0.14
30
0
70
32
0
SEQEND
8
0
0
POLYLINE
8
0
62
5
66
1
10
0
20
0
30
0
70
8
0
VERTEX
8
0
62
5
10
0.056568542
20
0.1
30
0
70
32
0
VERTEX
8
0
62
5
10
0.056568542
20
0.14
30
0
70
32
0
SEQEND
8
0
0
POLYLINE
8
0
62
5
66
1
10
0
20
0
30
0
70
8
0
VERTEX
8
0
62
5
10
0.084852814
20
0.1
30
0
70
32
0
VERTEX
8
0
62
5
10
0.084852814
20
0.14
30
0
70
32
0
SEQEND
8
0
0
POLYLINE
8
0
62
5
66
1
10
0
20
0
30
0
70
8
0
VERTEX
8
0
62
5
10
0
20
0.1
30
0
70
32
0
VERTEX
8
0
62
5
10
0
20
0.14
30
0
70
32
0
SEQEND
8
0
0
POLYLINE
8
0
62
5
66
1
10
0
20
0
30
0
70
8
0
VERTEX
8
0
62
5
10
0.22627417
20
0.14
30
0
70
32
0
VERTEX
8
0
62
5
10
0.22627417
20
0.1
30
0
70
32
0
SEQEND
8
0
0
POLYLINE
8
0
62
5
66
1
10
0
20
0
30
0
70
8
0
VERTEX
8
0
62
5
10
0.11313708
20
0.1
30
0
70
32
0
VERTEX
8
0
62
5
10
0.22627417
20
0.1
30
0
70
32
0
SEQEND
8
0
0
POLYLINE
8
0
62
5
66
1
10
0
20
0
30
0
70
8
0
VERTEX
8
0
62
5
10
0.11313708
20
0.14
30
0
70
32
0
VERTEX
8
0
62
5
10
0.22627417
20
0.14
30
0
70
32
0
SEQEND
8
0
0
POLYLINE
8
0
62
5
66
1
10
0
20
0
30
0
70
8
0
VERTEX
8
0
62
5
10
0.14142136
20
0.1
30
0
70
32
0
VERTEX
8
0
62
5
10
0.14142136
20
0.1
30
0
70
32
0
SEQEND
8
0
0
POLYLINE
8
0
62
5
66
1
10
0
20
0
30
0
70
8
0
VERTEX
8
0
62
5
10
0.16970563
20
0.1
30
0
70
32
0
VERTEX
8
0
62
5
10
0.16970563
20
0.1
30
0
70
32
0
SEQEND
8
0
0
POLYLINE
8
0
62
5
66
1
10
0
20
0
30
0
70
8
0
VERTEX
8
0
62
5
10
0.1979899
20
0.1
30
0
70
32
0
VERTEX
8
0
62
5
10
0.1979899
20
0.1
30
0
70
32
0
SEQEND
8
0
0
POLYLINE
8
0
62
5
66
1
10
0
20
0
30
0
70
8
0
VERTEX
8
0
62
5
10
0.14142136
20
0.14
30
0
70
32
0
VERTEX
8
0
62
5
10
0.14142136
20
0.14
30
0
70
32
0
SEQEND
8
0
0
POLYLINE
8
0
62
5
66
1
10
0
20
0
30
0
70
8
0
VERTEX
8
0
62
5
10
0.16970563
20
0.14
30
0
70
32
0
VERTEX
8
0
62
5
10
0.16970563
20
0.14
30
0
70
32
0
SEQEND
8
0
0
POLYLINE
8
0
62
5
66
1
10
0
20
0
30
0
70
8
0
VERTEX
8
0
62
5
10
0.1979899
20
0.14
30
0
70
32
0
VERTEX
8
0
62
5
10
0.1979899
20
0.14
30
0
70
32
0
SEQEND
8
0
0
POLYLINE
8
0
62
30
66
1
10
0
20
0
30
0
70
8
0
VERTEX
8
0
62
30
10
0.11313708
20
0.14
30
0
70
32
0
VERTEX
8
0
62
30
10
0.14142136
20
0.1
30
0
70
32
0
SEQEND
8
0
0
POLYLINE
8
0
62
30
66
1
10
0
20
0
30
0
70
8
0
VERTEX
8
0
62
30
10
0.14142136
20
0.14
30
0
70
32
0
VERTEX
8
0
62
30
10
0.11313708
20
0.1
30
0
70
32
0
SEQEND
8
0
0
POLYLINE
8
0
62
30
66
1
10
0
20
0
30
0
70
8
0
VERTEX
8
0
62
30
10
0.16970563
20
0.14
30
0
70
32
0
VERTEX
8
0
62
30
10
0.1979899
20
0.1
30
0
70
32
0
SEQEND
8
0
0
POLYLINE
8
0
62
30
66
1
10
0
20
0
30
0
70
8
0
VERTEX
8
0
62
30
10
0.1979899
20
0.14
30
0
70
32
0
VERTEX
8
0
62
30
10
0.16970563
20
0.1
30
0
70
32
0
SEQEND
8
0
0
POLYLINE
8
0
62
30
66
1
10
0
20
0
30
0
70
8
0
VERTEX
8
0
62
30
10
0.14142136
20
0.12
30
0
70
32
0
VERTEX
8
0
62
30
10
0.16970563
20
0.12
30
0
70
32
0
SEQEND
8
0
0
POLYLINE
8
0
62
30
66
1
10
0
20
0
30
0
70
8
0
VERTEX
8
0
62
30
10
0.1979899
20
0.12
30
0
70
32
0
VERTEX
8
0
62
30
10
0.22627417
20
0.12
30
0
70
32
0
SEQEND
8
0
0
POLYLINE
8
0
62
5
66
1
10
0
20
0
30
0
70
8
0
VERTEX
8
0
62
5
10
0.11313708
20
0.12
30
0
70
32
0
VERTEX
8
0
62
5
10
0.12727922
20
0.12
30
0
70
32
0
SEQEND
8
0
0
POLYLINE
8
0
62
5
66
1
10
0
20
0
30
0
70
8
0
VERTEX
8
0
62
5
10
0.16970563
20
0.12
30
0
70
32
0
VERTEX
8
0
62
5
10
0.18384776
20
0.12
30
0
70
32
0
SEQEND
8
0
0
POLYLINE
8
0
62
5
66
1
10
0
20
0
30
0
70
8
0
VERTEX
8
0
62
5
10
0.12727922
20
0.12
30
0
70
32
0
VERTEX
8
0
62
5
10
0.14142136
20
0.12
30
0
70
32
0
SEQEND
8
0
0
POLYLINE
8
0
62
5
66
1
10
0
20
0
30
0
70
8
0
VERTEX
8
0
62
5
10
0.18384776
20
0.12
30
0
70
32
0
VERTEX
8
0
62
5
10
0.1979899
20
0.12
30
0
70
32
0
SEQEND
8
0
0
POLYLINE
8
0
62
5
66
1
10
0
20
0
30
0
70
8
0
VERTEX
8
0
62
5
10
0.14142136
20
0.1
30
0
70
32
0
VERTEX
8
0
62
5
10
0.14142136
20
0.14
30
0
70
32
0
SEQEND
8
0
0
POLYLINE
8
0
62
5
66
1
10
0
20
0
30
0
70
8
0
VERTEX
8
0
62
5
10
0.16970563
20
0.1
30
0
70
32
0
VERTEX
8
0
62
5
10
0.16970563
20
0.14
30
0
70
32
0
SEQEND
8
0
0
POLYLINE
8
0
62
5
66
1
10
0
20
0
30
0
70
8
0
VERTEX
8
0
62
5
10
0.1979899
20
0.1
30
0
70
32
0
VERTEX
8
0
62
5
10
0.1979899
20
0.14
30
0
70
32
0
SEQEND
8
0
0
POLYLINE
8
0
62
5
66
1
10
0
20
0
30
0
70
8
0
VERTEX
8
0
62
5
10
0.11313708
20
0.1
30
0
70
32
0
VERTEX
8
0
62
5
10
0.11313708
20
0.14
30
0
70
32
0
SEQEND
8
0
0
POLYLINE
8
0
62
5
66
1
10
0
20
0
30
0
70
8
0
VERTEX
8
0
62
5
10
-0.11313708
20
0.1
30
0
70
32
0
VERTEX
8
0
62
5
10
-0.11313708
20
0.14
30
0
70
32
0
SEQEND
8
0
0
POLYLINE
8
0
62
5
66
1
10
0
20
0
30
0
70
8
0
VERTEX
8
0
62
5
10
-0.11313708
20
0.1
30
0
70
32
0
VERTEX
8
0
62
5
10
0
20
0.1
30
0
70
32
0
SEQEND
8
0
0
POLYLINE
8
0
62
5
66
1
10
0
20
0
30
0
70
8
0
VERTEX
8
0
62
5
10
-0.11313708
20
0.14
30
0
70
32
0
VERTEX
8
0
62
5
10
0
20
0.14
30
0
70
32
0
SEQEND
8
0
0
POLYLINE
8
0
62
5
66
1
10
0
20
0
30
0
70
8
0
VERTEX
8
0
62
5
10
-0.084852814
20
0.1
30
0
70
32
0
VERTEX
8
0
62
5
10
-0.084852814
20
0.1
30
0
70
32
0
SEQEND
8
0
0
POLYLINE
8
0
62
5
66
1
10
0
20
0
30
0
70
8
0
VERTEX
8
0
62
5
10
-0.056568542
20
0.1
30
0
70
32
0
VERTEX
8
0
62
5
10
-0.056568542
20
0.1
30
0
70
32
0
SEQEND
8
0
0
POLYLINE
8
0
62
5
66
1
10
0
20
0
30
0
70
8
0
VERTEX
8
0
62
5
10
-0.028284271
20
0.1
30
0
70
32
0
VERTEX
8
0
62
5
10
-0.028284271
20
0.1
30
0
70
32
0
SEQEND
8
0
0
POLYLINE
8
0
62
5
66
1
10
0
20
0
30
0
70
8
0
VERTEX
8
0
62
5
10
-0.084852814
20
0.14
30
0
70
32
0
VERTEX
8
0
62
5
10
-0.084852814
20
0.14
30
0
70
32
0
SEQEND
8
0
0
POLYLINE
8
0
62
5
66
1
10
0
20
0
30
0
70
8
0
VERTEX
8
0
62
5
10
-0.056568542
20
0.14
30
0
70
32
0
VERTEX
8
0
62
5
10
-0.056568542
20
0.14
30
0
70
32
0
SEQEND
8
0
0
POLYLINE
8
0
62
5
66
1
10
0
20
0
30
0
70
8
0
VERTEX
8
0
62
5
10
-0.028284271
20
0.14
30
0
70
32
0
VERTEX
8
0
62
5
10
-0.028284271
20
0.14
30
0
70
32
0
SEQEND
8
0
0
POLYLINE
8
0
62
30
66
1
10
0
20
0
30
0
70
8
0
VERTEX
8
0
62
30
10
-0.11313708
20
0.14
30
0
70
32
0
VERTEX
8
0
62
30
10
-0.084852814
20
0.1
30
0
70
32
0
SEQEND
8
0
0
POLYLINE
8
0
62
30
66
1
10
0
20
0
30
0
70
8
0
VERTEX
8
0
62
30
10
-0.084852814
20
0.14
30
0
70
32
0
VERTEX
8
0
62
30
10
-0.11313708
20
0.1
30
0
70
32
0
SEQEND
8
0
0
POLYLINE
8
0
62
30
66
1
10
0
20
0
30
0
70
8
0
VERTEX
8
0
62
30
10
-0.056568542
20
0.14
30
0
70
32
0
VERTEX
8
0
62
30
10
-0.028284271
20
0.1
30
0
70
32
0
SEQEND
8
0
0
POLYLINE
8
0
62
30
66
1
10
0
20
0
30
0
70
8
0
VERTEX
8
0
62
30
10
-0.028284271
20
0.14
30
0
70
32
0
VERTEX
8
0
62
30
10
-0.056568542
20
0.1
30
0
70
32
0
SEQEND
8
0
0
POLYLINE
8
0
62
30
66
1
10
0
20
0
30
0
70
8
0
VERTEX
8
0
62
30
10
-0.084852814
20
0.12
30
0
70
32
0
VERTEX
8
0
62
30
10
-0.056568542
20
0.12
30
0
70
32
0
SEQEND
8
0
0
POLYLINE
8
0
62
30
66
1
10
0
20
0
30
0
70
8
0
VERTEX
8
0
62
30
10
-0.028284271
20
0.12
30
0
70
32
0
VERTEX
8
0
62
30
10
0
20
0.12
30
0
70
32
0
SEQEND
8
0
0
POLYLINE
8
0
62
5
66
1
10
0
20
0
30
0
70
8
0
VERTEX
8
0
62
5
10
-0.11313708
20
0.12
30
0
70
32
0
VERTEX
8
0
62
5
10
-0.098994949
20
0.12
30
0
70
32
0
SEQEND
8
0
0
POLYLINE
8
0
62
5
66
1
10
0
20
0
30
0
70
8
0
VERTEX
8
0
62
5
10
-0.056568542
20
0.12
30
0
70
32
0
VERTEX
8
0
62
5
10
-0.042426407
20
0.12
30
0
70
32
0
SEQEND
8
0
0
POLYLINE
8
0
62
5
66
1
10
0
20
0
30
0
70
8
0
VERTEX
8
0
62
5
10
-0.098994949
20
0.12
30
0
70
32
0
VERTEX
8
0
62
5
10
-0.084852814
20
0.12
30
0
70
32
0
SEQEND
8
0
0
POLYLINE
8
0
62
5
66
1
10
0
20
0
30
0
70
8
0
VERTEX
8
0
62
5
10
-0.042426407
20
0.12
30
0
70
32
0
VERTEX
8
0
62
5
10
-0.028284271
20
0.12
30
0
70
32
0
SEQEND
8
0
0
POLYLINE
8
0
62
5
66
1
10
0
20
0
30
0
70
8
0
VERTEX
8
0
62
5
10
-0.084852814
20
0.1
30
0
70
32
0
VERTEX
8
0
62
5
10
-0.084852814
20
0.14
30
0
70
32
0
SEQEND
8
0
0
POLYLINE
8
0
62
5
66
1
10
0
20
0
30
0
70
8
0
VERTEX
8
0
62
5
10
-0.056568542
20
0.1
30
0
70
32
0
VERTEX
8
0
62
5
10
-0.056568542
20
0.14
30
0
70
32
0
SEQEND
8
0
0
POLYLINE
8
0
62
5
66
1
10
0
20
0
30
0
70
8
0
VERTEX
8
0
62
5
10
-0.028284271
20
0.1
30
0
70
32
0
VERTEX
8
0
62
5
10
-0.028284271
20
0.14
30
0
70
32
0
SEQEND
8
0
0
POLYLINE
8
0
62
5
66
1
10
0
20
0
30
0
70
8
0
VERTEX
8
0
62
5
10
-0.11313708
20
0.1
30
0
70
32
0
VERTEX
8
0
62
5
10
-0.11313708
20
0.14
30
0
70
32
0
SEQEND
8
0
0
POLYLINE
8
0
62
5
66
1
10
0
20
0
30
0
70
8
0
VERTEX
8
0
62
5
10
0
20
0.14
30
0
70
32
0
VERTEX
8
0
62
5
10
0
20
0.19656857
30
0
70
32
0
SEQEND
8
0
0
POLYLINE
8
0
62
5
66
1
10
0
20
0
30
0
70
8
0
VERTEX
8
0
62
5
10
0.11313708
20
0.19656857
30
0
70
32
0
VERTEX
8
0
62
5
10
0.11313708
20
0.14
30
0
70
32
0
SEQEND
8
0
0
POLYLINE
8
0
62
5
66
1
10
0
20
0
30
0
70
8
0
VERTEX
8
0
62
5
10
0
20
0.14242641
30
0
70
32
0
VERTEX
8
0
62
5
10
0.028284271
20
0.1424264
30
0
70
32
0
VERTEX
8
0
62
5
10
0.056568542
20
0.15414213
30
0
70
32
0
VERTEX
8
0
62
5
10
0.084852814
20
0.15414214
30
0
70
32
0
VERTEX
8
0
62
5
10
0.11313708
20
0.14242641
30
0
70
32
0
SEQEND
8
0
0
POLYLINE
8
0
62
5
66
1
10
0
20
0
30
0
70
8
0
VERTEX
8
0
62
5
10
0
20
0.1707107
30
0
70
32
0
VERTEX
8
0
62
5
10
0.028284271
20
0.17071068
30
0
70
32
0
VERTEX
8
0
62
5
10
0.056568542
20
0.18242641
30
0
70
32
0
VERTEX
8
0
62
5
10
0.084852814
20
0.18242642
30
0
70
32
0
VERTEX
8
0
62
5
10
0.11313708
20
0.1707107
30
0
70
32
0
SEQEND
8
0
0
POLYLINE
8
0
62
5
66
1
10
0
20
0
30
0
70
8
0
VERTEX
8
0
62
5
10
0
20
0.16585787
30
0
70
32
0
VERTEX
8
0
62
5
10
0.028284271
20
0.16585788
30
0
70
32
0
VERTEX
8
0
62
5
10
0.056568542
20
0.15414215
30
0
70
32
0
VERTEX
8
0
62
5
10
0.084852814
20
0.15414214
30
0
70
32
0
VERTEX
8
0
62
5
10
0.11313708
20
0.16585787
30
0
70
32
0
SEQEND
8
0
0
POLYLINE
8
0
62
5
66
1
10
0
20
0
30
0
70
8
0
VERTEX
8
0
62
5
10
0
20
0.19414215
30
0
70
32
0
VERTEX
8
0
62
5
10
0.028284271
20
0.19414216
30
0
70
32
0
VERTEX
8
0
62
5
10
0.056568542
20
0.18242644
30
0
70
32
0
VERTEX
8
0
62
5
10
0.084852814
20
0.18242642
30
0
70
32
0
VERTEX
8
0
62
5
10
0.11313708
20
0.19414215
30
0
70
32
0
SEQEND
8
0
0
POLYLINE
8
0
62
30
66
1
10
0
20
0
30
0
70
8
0
VERTEX
8
0
62
30
10
0
20
0.15414214
30
0
70
32
0
VERTEX
8
0
62
30
10
0.11313708
20
0.15414214
30
0
70
32
0
SEQEND
8
0
0
POLYLINE
8
0
62
30
66
1
10
0
20
0
30
0
70
8
0
VERTEX
8
0
62
30
10
0
20
0.18242642
30
0
70
32
0
VERTEX
8
0
62
30
10
0.11313708
20
0.18242642
30
0
70
32
0
SEQEND
8
0
0
POLYLINE
8
0
62
30
66
1
10
0
20
0
30
0
70
8
0
VERTEX
8
0
62
30
10
0.028284271
20
0.1424264
30
0
70
32
0
VERTEX
8
0
62
30
10
0.028284271
20
0.15414214
30
0
70
32
0
SEQEND
8
0
0
POLYLINE
8
0
62
30
66
1
10
0
20
0
30
0
70
8
0
VERTEX
8
0
62
30
10
0.056568542
20
0.15414213
30
0
70
32
0
VERTEX
8
0
62
30
10
0.056568542
20
0.15414214
30
0
70
32
0
SEQEND
8
0
0
POLYLINE
8
0
62
30
66
1
10
0
20
0
30
0
70
8
0
VERTEX
8
0
62
30
10
0.084852814
20
0.15414214
30
0
70
32
0
VERTEX
8
0
62
30
10
0.084852814
20
0.15414214
30
0
70
32
0
SEQEND
8
0
0
POLYLINE
8
0
62
30
66
1
10
0
20
0
30
0
70
8
0
VERTEX
8
0
62
30
10
0.028284271
20
0.17071068
30
0
70
32
0
VERTEX
8
0
62
30
10
0.028284271
20
0.18242642
30
0
70
32
0
SEQEND
8
0
0
POLYLINE
8
0
62
30
66
1
10
0
20
0
30
0
70
8
0
VERTEX
8
0
62
30
10
0.056568542
20
0.18242641
30
0
70
32
0
VERTEX
8
0
62
30
10
0.056568542
20
0.18242642
30
0
70
32
0
SEQEND
8
0
0
POLYLINE
8
0
62
30
66
1
10
0
20
0
30
0
70
8
0
VERTEX
8
0
62
30
10
0.084852814
20
0.18242642
30
0
70
32
0
VERTEX
8
0
62
30
10
0.084852814
20
0.18242642
30
0
70
32
0
SEQEND
8
0
0
POLYLINE
8
0
62
5
66
1
10
0
20
0
30
0
70
8
0
VERTEX
8
0
62
5
10
0.028284271
20
0.14
30
0
70
32
0
VERTEX
8
0
62
5
10
0.028284271
20
0.1424264
30
0
70
32
0
SEQEND
8
0
0
POLYLINE
8
0
62
5
66
1
10
0
20
0
30
0
70
8
0
VERTEX
8
0
62
5
10
0.056568542
20
0.14
30
0
70
32
0
VERTEX
8
0
62
5
10
0.056568542
20
0.15414213
30
0
70
32
0
SEQEND
8
0
0
POLYLINE
8
0
62
5
66
1
10
0
20
0
30
0
70
8
0
VERTEX
8
0
62
5
10
0.084852814
20
0.14
30
0
70
32
0
VERTEX
8
0
62
5
10
0.084852814
20
0.15414214
30
0
70
32
0
SEQEND
8
0
0
POLYLINE
8
0
62
5
66
1
10
0
20
0
30
0
70
8
0
VERTEX
8
0
62
5
10
0.028284271
20
0.16828428
30
0
70
32
0
VERTEX
8
0
62
5
10
0.028284271
20
0.17071068
30
0
70
32
0
SEQEND
8
0
0
POLYLINE
8
0
62
5
66
1
10
0
20
0
30
0
70
8
0
VERTEX
8
0
62
5
10
0.056568542
20
0.16828428
30
0
70
32
0
VERTEX
8
0
62
5
10
0.056568542
20
0.18242641
30
0
70
32
0
SEQEND
8
0
0
POLYLINE
8
0
62
5
66
1
10
0
20
0
30
0
70
8
0
VERTEX
8
0
62
5
10
0.084852814
20
0.16828428
30
0
70
32
0
VERTEX
8
0
62
5
10
0.084852814
20
0.18242642
30
0
70
32
0
SEQEND
8
0
0
POLYLINE
8
0
62
5
66
1
10
0
20
0
30
0
70
8
0
VERTEX
8
0
62
5
10
0.028284271
20
0.15414214
30
0
70
32
0
VERTEX
8
0
62
5
10
0.028284271
20
0.16828428
30
0
70
32
0
SEQEND
8
0
0
POLYLINE
8
0
62
5
66
1
10
0
20
0
30
0
70
8
0
VERTEX
8
0
62
5
10
0.056568542
20
0.15414214
30
0
70
32
0
VERTEX
8
0
62
5
10
0.056568542
20
0.16828428
30
0
70
32
0
SEQEND
8
0
0
POLYLINE
8
0
62
5
66
1
10
0
20
0
30
0
70
8
0
VERTEX
8
0
62
5
10
0.084852814
20
0.15414214
30
0
70
32
0
VERTEX
8
0
62
5
10
0.084852814
20
0.16828428
30
0
70
32
0
SEQEND
8
0
0
POLYLINE
8
0
62
5
66
1
10
0
20
0
30
0
70
8
0
VERTEX
8
0
62
5
10
0.028284271
20
0.18242642
30
0
70
32
0
VERTEX
8
0
62
5
10
0.028284271
20
0.19656857
30
0
70
32
0
SEQEND
8
0
0
POLYLINE
8
0
62
5
66
1
10
0
20
0
30
0
70
8
0
VERTEX
8
0
62
5
10
0.056568542
20
0.18242642
30
0
70
32
0
VERTEX
8
0
62
5
10
0.056568542
20
0.19656857
30
0
70
32
0
SEQEND
8
0
0
POLYLINE
8
0
62
5
66
1
10
0
20
0
30
0
70
8
0
VERTEX
8
0
62
5
10
0.084852814
20
0.18242642
30
0
70
32
0
VERTEX
8
0
62
5
10
0.084852814
20
0.19656857
30
0
70
32
0
SEQEND
8
0
0
POLYLINE
8
0
62
30
66
1
10
0
20
0
30
0
70
8
0
VERTEX
8
0
62
30
10
0
20
0.14242641
30
0
70
32
0
VERTEX
8
0
62
30
10
0.0078282017
20
0.15414214
30
0
70
32
0
VERTEX
8
0
62
30
10
0
20
0.16585787
30
0
70
32
0
SEQEND
8
0
0
POLYLINE
8
0
62
30
66
1
10
0
20
0
30
0
70
8
0
VERTEX
8
0
62
30
10
0.028284271
20
0.1424264
30
0
70
32
0
VERTEX
8
0
62
30
10
0.036112477
20
0.15414214
30
0
70
32
0
VERTEX
8
0
62
30
10
0.028284271
20
0.16585788
30
0
70
32
0
SEQEND
8
0
0
POLYLINE
8
0
62
30
66
1
10
0
20
0
30
0
70
8
0
VERTEX
8
0
62
30
10
0.056568542
20
0.15414213
30
0
70
32
0
VERTEX
8
0
62
30
10
0.05656856
20
0.15414214
30
0
70
32
0
VERTEX
8
0
62
30
10
0.056568542
20
0.15414215
30
0
70
32
0
SEQEND
8
0
0
POLYLINE
8
0
62
30
66
1
10
0
20
0
30
0
70
8
0
VERTEX
8
0
62
30
10
0.084852814
20
0.15414214
30
0
70
32
0
VERTEX
8
0
62
30
10
0.084852814
20
0.15414214
30
0
70
32
0
VERTEX
8
0
62
30
10
0.084852814
20
0.15414214
30
0
70
32
0
SEQEND
8
0
0
POLYLINE
8
0
62
30
66
1
10
0
20
0
30
0
70
8
0
VERTEX
8
0
62
30
10
0
20
0.1707107
30
0
70
32
0
VERTEX
8
0
62
30
10
0.0078282017
20
0.18242642
30
0
70
32
0
VERTEX
8
0
62
30
10
0
20
0.19414215
30
0
70
32
0
SEQEND
8
0
0
POLYLINE
8
0
62
30
66
1
10
0
20
0
30
0
70
8
0
VERTEX
8
0
62
30
10
0.028284271
20
0.17071068
30
0
70
32
0
VERTEX
8
0
62
30
10
0.036112477
20
0.18242642
30
0
70
32
0
VERTEX
8
0
62
30
10
0.028284271
20
0.19414216
30
0
70
32
0
SEQEND
8
0
0
POLYLINE
8
0
62
30
66
1
10
0
20
0
30
0
70
8
0
VERTEX
8
0
62
30
10
0.056568542
20
0.18242641
30
0
70
32
0
VERTEX
8
0
62
30
10
0.05656856
20
0.18242642
30
0
70
32
0
VERTEX
8
0
62
30
10
0.056568542
20
0.18242644
30
0
70
32
0
SEQEND
8
0
0
POLYLINE
8
0
62
30
66
1
10
0
20
0
30
0
70
8
0
VERTEX
8
0
62
30
10
0.084852814
20
0.18242642
30
0
70
32
0
VERTEX
8
0
62
30
10
0.084852814
20
0.18242642
30
0
70
32
0
VERTEX
8
0
62
30
10
0.084852814
20
0.18242642
30
0
70
32
0
SEQEND
8
0
0
POLYLINE
8
0
62
5
66
1
10
0
20
0
30
0
70
8
0
VERTEX
8
0
62
5
10
0.22627417
20
0.19656857
30
0
70
32
0
VERTEX
8
0
62
5
10
0.22627417
20
0.14
30
0
70
32
0
SEQEND
8
0
0
POLYLINE
8
0
62
5
66
1
10
0
20
0
30
0
70
8
0
VERTEX
8
0
62
5
10
0.11313708
20
0.14242641
30
0
70
32
0
VERTEX
8
0
62
5
10
0.14142136
20
0.1424264
30
0
70
32
0
VERTEX
8
0
62
5
10
0.16970563
20
0.15414213
30
0
70
32
0
VERTEX
8
0
62
5
10
0.1979899
20
0.15414214
30
0
70
32
0
VERTEX
8
0
62
5
10
0.22627417
20
0.14242641
30
0
70
32
0
SEQEND
8
0
0
POLYLINE
8
0
62
5
66
1
10
0
20
0
30
0
70
8
0
VERTEX
8
0
62
5
10
0.11313708
20
0.1707107
30
0
70
32
0
VERTEX
8
0
62
5
10
0.14142136
20
0.17071068
30
0
70
32
0
VERTEX
8
0
62
5
10
0.16970563
20
0.18242641
30
0
70
32
0
VERTEX
8
0
62
5
10
0.1979899
20
0.18242642
30
0
70
32
0
VERTEX
8
0
62
5
10
0.22627417
20
0.1707107
30
0
70
32
0
SEQEND
8
0
0
POLYLINE
8
0
62
5
66
1
10
0
20
0
30
0
70
8
0
VERTEX
8
0
62
5
10
0.11313708
20
0.16585787
30
0
70
32
0
VERTEX
8
0
62
5
10
0.14142136
20
0.16585788
30
0
70
32
0
VERTEX
8
0
62
5
10
0.16970563
20
0.15414215
30
0
70
32
0
VERTEX
8
0
62
5
10
0.1979899
20
0.15414214
30
0
70
32
0
VERTEX
8
0
62
5
10
0.22627417
20
0.16585787
30
0
70
32
0
SEQEND
8
0
0
POLYLINE
8
0
62
5
66
1
10
0
20
0
30
0
70
8
0
VERTEX
8
0
62
5
10
0.11313708
20
0.19414215
30
0
70
32
0
VERTEX
8
0
62
5
10
0.14142136
20
0.19414216
30
0
70
32
0
VERTEX
8
0
62
5
10
0.16970563
20
0.18242644
30
0
70
32
0
VERTEX
8
0
62
5
10
0.1979899
20
0.18242642
30
0
70
32
0
VERTEX
8
0
62
5
10
0.22627417
20
0.19414215
30
0
70
32
0
SEQEND
8
0
0
POLYLINE
8
0
62
30
66
1
10
0
20
0
30
0
70
8
0
VERTEX
8
0
62
30
10
0.11313708
20
0.15414214
30
0
70
32
0
VERTEX
8
0
62
30
10
0.22627417
20
0.15414214
30
0
70
32
0
SEQEND
8
0
0
POLYLINE
8
0
62
30
66
1
10
0
20
0
30
0
70
8
0
VERTEX
8
0
62
30
10
0.11313708
20
0.18242642
30
0
70
32
0
VERTEX
8
0
62
30
10
0.22627417
20
0.18242642
30
0
70
32
0
SEQEND
8
0
0
POLYLINE
8
0
62
30
66
1
10
0
20
0
30
0
70
8
0
VERTEX
8
0
62
30
10
0.14142136
20
0.1424264
30
0
70
32
0
VERTEX
8
0
62
30
10
0.14142136
20
0.15414214
30
0
70
32
0
SEQEND
8
0
0
POLYLINE
8
0
62
30
66
1
10
0
20
0
30
0
70
8
0
VERTEX
8
0
62
30
10
0.16970563
20
0.15414213
30
0
70
32
0
VERTEX
8
0
62
30
10
0.16970563
20
0.15414214
30
0
70
32
0
SEQEND
8
0
0
POLYLINE
8
0
62
30
66
1
10
0
20
0
30
0
70
8
0
VERTEX
8
0
62
30
10
0.1979899
20
0.15414214
30
0
70
32
0
VERTEX
8
0
62
30
10
0.1979899
20
0.15414214
30
0
70
32
0
SEQEND
8
0
0
POLYLINE
8
0
62
30
66
1
10
0
20
0
30
0
70
8
0
VERTEX
8
0
62
30
10
0.14142136
20
0.17071068
30
0
70
32
0
VERTEX
8
0
62
30
10
0.14142136
20
0.18242642
30
0
70
32
0
SEQEND
8
0
0
POLYLINE
8
0
62
30
66
1
10
0
20
0
30
0
70
8
0
VERTEX
8
0
62
30
10
0.16970563
20
0.18242641
30
0
70
32
0
VERTEX
8
0
62
30
10
0.16970563
20
0.18242642
30
0
70
32
0
SEQEND
8
0
0
POLYLINE
8
0
62
30
66
1
10
0
20
0
30
0
70
8
0
VERTEX
8
0
62
30
10
0.1979899
20
0.18242642
30
0
70
32
0
VERTEX
8
0
62
30
10
0.1979899
20
0.18242642
30
0
70
32
0
SEQEND
8
0
0
POLYLINE
8
0
62
5
66
1
10
0
20
0
30
0
70
8
0
VERTEX
8
0
62
5
10
0.14142136
20
0.14
30
0
70
32
0
VERTEX
8
0
62
5
10
0.14142136
20
0.1424264
30
0
70
32
0
SEQEND
8
0
0
POLYLINE
8
0
62
5
66
1
10
0
20
0
30
0
70
8
0
VERTEX
8
0
62
5
10
0.16970563
20
0.14
30
0
70
32
0
VERTEX
8
0
62
5
10
0.16970563
20
0.15414213
30
0
70
32
0
SEQEND
8
0
0
POLYLINE
8
0
62
5
66
1
10
0
20
0
30
0
70
8
0
VERTEX
8
0
62
5
10
0.1979899
20
0.14
30
0
70
32
0
VERTEX
8
0
62
5
10
0.1979899
20
0.15414214
30
0
70
32
0
SEQEND
8
0
0
POLYLINE
8
0
62
5
66
1
10
0
20
0
30
0
70
8
0
VERTEX
8
0
62
5
10
0.14142136
20
0.16828428
30
0
70
32
0
VERTEX
8
0
62
5
10
0.14142136
20
0.17071068
30
0
70
32
0
SEQEND
8
0
0
POLYLINE
8
0
62
5
66
1
10
0
20
0
30
0
70
8
0
VERTEX
8
0
62
5
10
0.16970563
20
0.16828428
30
0
70
32
0
VERTEX
8
0
62
5
10
0.16970563
20
0.18242641
30
0
70
32
0
SEQEND
8
0
0
POLYLINE
8
0
62
5
66
1
10
0
20
0
30
0
70
8
0
VERTEX
8
0
62
5
10
0.1979899
20
0.16828428
30
0
70
32
0
VERTEX
8
0
62
5
10
0.1979899
20
0.18242642
30
0
70
32
0
SEQEND
8
0
0
POLYLINE
8
0
62
5
66
1
10
0
20
0
30
0
70
8
0
VERTEX
8
0
62
5
10
0.14142136
20
0.15414214
30
0
70
32
0
VERTEX
8
0
62
5
10
0.14142136
20
0.16828428
30
0
70
32
0
SEQEND
8
0
0
POLYLINE
8
0
62
5
66
1
10
0
20
0
30
0
70
8
0
VERTEX
8
0
62
5
10
0.16970563
20
0.15414214
30
0
70
32
0
VERTEX
8
0
62
5
10
0.16970563
20
0.16828428
30
0
70
32
0
SEQEND
8
0
0
POLYLINE
8
0
62
5
66
1
10
0
20
0
30
0
70
8
0
VERTEX
8
0
62
5
10
0.1979899
20
0.15414214
30
0
70
32
0
VERTEX
8
0
62
5
10
0.1979899
20
0.16828428
30
0
70
32
0
SEQEND
8
0
0
POLYLINE
8
0
62
5
66
1
10
0
20
0
30
0
70
8
0
VERTEX
8
0
62
5
10
0.14142136
20
0.18242642
30
0
70
32
0
VERTEX
8
0
62
5
10
0.14142136
20
0.19656857
30
0
70
32
0
SEQEND
8
0
0
POLYLINE
8
0
62
5
66
1
10
0
20
0
30
0
70
8
0
VERTEX
8
0
62
5
10
0.16970563
20
0.18242642
30
0
70
32
0
VERTEX
8
0
62
5
10
0.16970563
20
0.19656857
30
0
70
32
0
SEQEND
8
0
0
POLYLINE
8
0
62
5
66
1
10
0
20
0
30
0
70
8
0
VERTEX
8
0
62
5
10
0.1979899
20
0.18242642
30
0
70
32
0
VERTEX
8
0
62
5
10
0.1979899
20
0.19656857
30
0
70
32
0
SEQEND
8
0
0
POLYLINE
8
0
62
30
66
1
10
0
20
0
30
0
70
8
0
VERTEX
8
0
62
30
10
0.11313708
20
0.14242641
30
0
70
32
0
VERTEX
8
0
62
30
10
0.12096529
20
0.15414214
30
0
70
32
0
VERTEX
8
0
62
30
10
0.11313708
20
0.16585787
30
0
70
32
0
SEQEND
8
0
0
POLYLINE
8
0
62
30
66
1
10
0
20
0
30
0
70
8
0
VERTEX
8
0
62
30
10
0.14142136
20
0.1424264
30
0
70
32
0
VERTEX
8
0
62
30
10
0.14924956
20
0.15414214
30
0
70
32
0
VERTEX
8
0
62
30
10
0.14142136
20
0.16585788
30
0
70
32
0
SEQEND
8
0
0
POLYLINE
8
0
62
30
66
1
10
0
20
0
30
0
70
8
0
VERTEX
8
0
62
30
10
0.16970563
20
0.15414213
30
0
70
32
0
VERTEX
8
0
62
30
10
0.16970564
20
0.15414214
30
0
70
32
0
VERTEX
8
0
62
30
10
0.16970563
20
0.15414215
30
0
70
32
0
SEQEND
8
0
0
POLYLINE
8
0
62
30
66
1
10
0
20
0
30
0
70
8
0
VERTEX
8
0
62
30
10
0.1979899
20
0.15414214
30
0
70
32
0
VERTEX
8
0
62
30
10
0.1979899
20
0.15414214
30
0
70
32
0
VERTEX
8
0
62
30
10
0.1979899
20
0.15414214
30
0
70
32
0
SEQEND
8
0
0
POLYLINE
8
0
62
30
66
1
10
0
20
0
30
0
70
8
0
VERTEX
8
0
62
30
10
0.11313708
20
0.1707107
30
0
70
32
0
VERTEX
8
0
62
30
10
0.12096529
20
0.18242642
30
0
70
32
0
VERTEX
8
0
62
30
10
0.11313708
20
0.19414215
30
0
70
32
0
SEQEND
8
0
0
POLYLINE
8
0
62
30
66
1
10
0
20
0
30
0
70
8
0
VERTEX
8
0
62
30
10
0.14142136
20
0.17071068
30
0
70
32
0
VERTEX
8
0
62
30
10
0.14924956
20
0.18242642
30
0
70
32
0
VERTEX
8
0
62
30
10
0.14142136
20
0.19414216
30
0
70
32
0
SEQEND
8
0
0
POLYLINE
8
0
62
30
66
1
10
0
20
0
30
0
70
8
0
VERTEX
8
0
62
30
10
0.16970563
20
0.18242641
30
0
70
32
0
VERTEX
8
0
62
30
10
0.16970564
20
0.18242642
30
0
70
32
0
VERTEX
8
0
62
30
10
0.16970563
20
0.18242644
30
0
70
32
0
SEQEND
8
0
0
POLYLINE
8
0
62
30
66
1
10
0
20
0
30
0
70
8
0
VERTEX
8
0
62
30
10
0.1979899
20
0.18242642
30
0
70
32
0
VERTEX
8
0
62
30
10
0.1979899
20
0.18242642
30
0
70
32
0
VERTEX
8
0
62
30
10
0.1979899
20
0.18242642
30
0
70
32
0
SEQEND
8
0
0
POLYLINE
8
0
62
5
66
1
10
0
20
0
30
0
70
8
0
VERTEX
8
0
62
5
10
-0.11313708
20
0.14
30
0
70
32
0
VERTEX
8
0
62
5
10
-0.11313708
20
0.19656857
30
0
70
32
0
SEQEND
8
0
0
POLYLINE
8
0
62
5
66
1
10
0
20
0
30
0
70
8
0
VERTEX
8
0
62
5
10
-0.11313708
20
0.14242641
30
0
70
32
0
VERTEX
8
0
62
5
10
-0.084852814
20
0.1424264
30
0
70
32
0
VERTEX
8
0
62
5
10
-0.056568542
20
0.15414213
30
0
70
32
0
VERTEX
8
0
62
5
10
-0.028284271
20
0.15414214
30
0
70
32
0
VERTEX
8
0
62
5
10
0
20
0.14242641
30
0
70
32
0
SEQEND
8
0
0
POLYLINE
8
0
62
5
66
1
10
0
20
0
30
0
70
8
0
VERTEX
8
0
62
5
10
-0.11313708
20
0.1707107
30
0
70
32
0
VERTEX
8
0
62
5
10
-0.084852814
20
0.17071068
30
0
70
32
0
VERTEX
8
0
62
5
10
-0.056568542
20
0.18242641
30
0
70
32
0
VERTEX
8
0
62
5
10
-0.028284271
20
0.18242642
30
0
70
32
0
VERTEX
8
0
62
5
10
0
20
0.1707107
30
0
70
32
0
SEQEND
8
0
0
POLYLINE
8
0
62
5
66
1
10
0
20
0
30
0
70
8
0
VERTEX
8
0
62
5
10
-0.11313708
20
0.16585787
30
0
70
32
0
VERTEX
8
0
62
5
10
-0.084852814
20
0.16585788
30
0
70
32
0
VERTEX
8
0
62
5
10
-0.056568542
20
0.15414215
30
0
70
32
0
VERTEX
8
0
62
5
10
-0.028284271
20
0.15414214
30
0
70
32
0
VERTEX
8
0
62
5
10
0
20
0.16585787
30
0
70
32
0
SEQEND
8
0
0
POLYLINE
8
0
62
5
66
1
10
0
20
0
30
0
70
8
0
VERTEX
8
0
62
5
10
-0.11313708
20
0.19414215
30
0
70
32
0
VERTEX
8
0
62
5
10
-0.084852814
20
0.19414216
30
0
70
32
0
VERTEX
8
0
62
5
10
-0.056568542
20
0.18242644
30
0
70
32
0
VERTEX
8
0
62
5
10
-0.028284271
20
0.18242642
30
0
70
32
0
VERTEX
8
0
62
5
10
0
20
0.19414215
30
0
70
32
0
SEQEND
8
0
0
POLYLINE
8
0
62
30
66
1
10
0
20
0
30
0
70
8
0
VERTEX
8
0
62
30
10
-0.11313708
20
0.15414214
30
0
70
32
0
VERTEX
8
0
62
30
10
0
20
0.15414214
30
0
70
32
0
SEQEND
8
0
0
POLYLINE
8
0
62
30
66
1
10
0
20
0
30
0
70
8
0
VERTEX
8
0
62
30
10
-0.11313708
20
0.18242642
30
0
70
32
0
VERTEX
8
0
62
30
10
0
20
0.18242642
30
0
70
32
0
SEQEND
8
0
0
POLYLINE
8
0
62
30
66
1
10
0
20
0
30
0
70
8
0
VERTEX
8
0
62
30
10
-0.084852814
20
0.1424264
30
0
70
32
0
VERTEX
8
0
62
30
10
-0.084852814
20
0.15414214
30
0
70
32
0
SEQEND
8
0
0
POLYLINE
8
0
62
30
66
1
10
0
20
0
30
0
70
8
0
VERTEX
8
0
62
30
10
-0.056568542
20
0.15414213
30
0
70
32
0
VERTEX
8
0
62
30
10
-0.056568542
20
0.15414214
30
0
70
32
0
SEQEND
8
0
0
POLYLINE
8
0
62
30
66
1
10
0
20
0
30
0
70
8
0
VERTEX
8
0
62
30
10
-0.028284271
20
0.15414214
30
0
70
32
0
VERTEX
8
0
62
30
10
-0.028284271
20
0.15414214
30
0
70
32
0
SEQEND
8
0
0
POLYLINE
8
0
62
30
66
1
10
0
20
0
30
0
70
8
0
VERTEX
8
0
62
30
10
-0.084852814
20
0.17071068
30
0
70
32
0
VERTEX
8
0
62
30
10
-0.084852814
20
0.18242642
30
0
70
32
0
SEQEND
8
0
0
POLYLINE
8
0
62
30
66
1
10
0
20
0
30
0
70
8
0
VERTEX
8
0
62
30
10
-0.056568542
20
0.18242641
30
0
70
32
0
VERTEX
8
0
62
30
10
-0.056568542
20
0.18242642
30
0
70
32
0
SEQEND
8
0
0
POLYLINE
8
0
62
30
66
1
10
0
20
0
30
0
70
8
0
VERTEX
8
0
62
30
10
-0.028284271
20
0.18242642
30
0
70
32
0
VERTEX
8
0
62
30
10
-0.028284271
20
0.18242642
30
0
70
32
0
SEQEND
8
0
0
POLYLINE
8
0
62
5
66
1
10
0
20
0
30
0
70
8
0
VERTEX
8
0
62
5
10
-0.084852814
20
0.14
30
0
70
32
0
VERTEX
8
0
62
5
10
-0.084852814
20
0.1424264
30
0
70
32
0
SEQEND
8
0
0
POLYLINE
8
0
62
5
66
1
10
0
20
0
30
0
70
8
0
VERTEX
8
0
62
5
10
-0.056568542
20
0.14
30
0
70
32
0
VERTEX
8
0
62
5
10
-0.056568542
20
0.15414213
30
0
70
32
0
SEQEND
8
0
0
POLYLINE
8
0
62
5
66
1
10
0
20
0
30
0
70
8
0
VERTEX
8
0
62
5
10
-0.028284271
20
0.14
30
0
70
32
0
VERTEX
8
0
62
5
10
-0.028284271
20
0.15414214
30
0
70
32
0
SEQEND
8
0
0
POLYLINE
8
0
62
5
66
1
10
0
20
0
30
0
70
8
0
VERTEX
8
0
62
5
10
-0.084852814
20
0.16828428
30
0
70
32
0
VERTEX
8
0
62
5
10
-0.084852814
20
0.17071068
30
0
70
32
0
SEQEND
8
0
0
POLYLINE
8
0
62
5
66
1
10
0
20
0
30
0
70
8
0
VERTEX
8
0
62
5
10
-0.056568542
20
0.16828428
30
0
70
32
0
VERTEX
8
0
62
5
10
-0.056568542
20
0.18242641
30
0
70
32
0
SEQEND
8
0
0
POLYLINE
8
0
62
5
66
1
10
0
20
0
30
0
70
8
0
VERTEX
8
0
62
5
10
-0.028284271
20
0.16828428
30
0
70
32
0
VERTEX
8
0
62
5
10
-0.028284271
20
0.18242642
30
0
70
32
0
SEQEND
8
0
0
POLYLINE
8
0
62
5
66
1
10
0
20
0
30
0
70
8
0
VERTEX
8
0
62
5
10
-0.084852814
20
0.15414214
30
0
70
32
0
VERTEX
8
0
62
5
10
-0.084852814
20
0.16828428
30
0
70
32
0
SEQEND
8
0
0
POLYLINE
8
0
62
5
66
1
10
0
20
0
30
0
70
8
0
VERTEX
8
0
62
5
10
-0.056568542
20
0.15414214
30
0
70
32
0
VERTEX
8
0
62
5
10
-0.056568542
20
0.16828428
30
0
70
32
0
SEQEND
8
0
0
POLYLINE
8
0
62
5
66
1
10
0
20
0
30
0
70
8
0
VERTEX
8
0
62
5
10
-0.028284271
20
0.15414214
30
0
70
32
0
VERTEX
8
0
62
5
10
-0.028284271
20
0.16828428
30
0
70
32
0
SEQEND
8
0
0
POLYLINE
8
0
62
5
66
1
10
0
20
0
30
0
70
8
0
VERTEX
8
0
62
5
10
-0.084852814
20
0.18242642
30
0
70
32
0
VERTEX
8
0
62
5
10
-0.084852814
20
0.19656857
30
0
70
32
0
SEQEND
8
0
0
POLYLINE
8
0
62
5
66
1
10
0
20
0
30
0
70
8
0
VERTEX
8
0
62
5
10
-0.056568542
20
0.18242642
30
0
70
32
0
VERTEX
8
0
62
5
10
-0.056568542
20
0.19656857
30
0
70
32
0
SEQEND
8
0
0
POLYLINE
8
0
62
5
66
1
10
0
20
0
30
0
70
8
0
VERTEX
8
0
62
5
10
-0.028284271
20
0.18242642
30
0
70
32
0
VERTEX
8
0
62
5
10
-0.028284271
20
0.19656857
30
0
70
32
0
SEQEND
8
0
0
POLYLINE
8
0
62
30
66
1
10
0
20
0
30
0
70
8
0
VERTEX
8
0
62
30
10
-0.11313708
20
0.14242641
30
0
70
32
0
VERTEX
8
0
62
30
10
-0.10530888
20
0.15414214
30
0
70
32
0
VERTEX
8
0
62
30
10
-0.11313708
20
0.16585787
30
0
70
32
0
SEQEND
8
0
0
POLYLINE
8
0
62
30
66
1
10
0
20
0
30
0
70
8
0
VERTEX
8
0
62
30
10
-0.084852814
20
0.1424264
30
0
70
32
0
VERTEX
8
0
62
30
10
-0.077024608
20
0.15414214
30
0
70
32
0
VERTEX
8
0
62
30
10
-0.084852814
20
0.16585788
30
0
70
32
0
SEQEND
8
0
0
POLYLINE
8
0
62
30
66
1
10
0
20
0
30
0
70
8
0
VERTEX
8
0
62
30
10
-0.056568542
20
0.15414213
30
0
70
32
0
VERTEX
8
0
62
30
10
-0.056568525
20
0.15414214
30
0
70
32
0
VERTEX
8
0
62
30
10
-0.056568542
20
0.15414215
30
0
70
32
0
SEQEND
8
0
0
POLYLINE
8
0
62
30
66
1
10
0
20
0
30
0
70
8
0
VERTEX
8
0
62
30
10
-0.028284271
20
0.15414214
30
0
70
32
0
VERTEX
8
0
62
30
10
-0.028284271
20
0.15414214
30
0
70
32
0
VERTEX
8
0
62
30
10
-0.028284271
20
0.15414214
30
0
70
32
0
SEQEND
8
0
0
POLYLINE
8
0
62
30
66
1
10
0
20
0
30
0
70
8
0
VERTEX
8
0
62
30
10
-0.11313708
20
0.1707107
30
0
70
32
0
VERTEX
8
0
62
30
10
-0.10530888
20
0.18242642
30
0
70
32
0
VERTEX
8
0
62
30
10
-0.11313708
20
0.19414215
30
0
70
32
0
SEQEND
8
0
0
POLYLINE
8
0
62
30
66
1
10
0
20
0
30
0
70
8
0
VERTEX
8
0
62
30
10
-0.084852814
20
0.17071068
30
0
70
32
0
VERTEX
8
0
62
30
10
-0.077024608
20
0.18242642
30
0
70
32
0
VERTEX
8
0
62
30
10
-0.084852814
20
0.19414216
30
0
70
32
0
SEQEND
8
0
0
POLYLINE
8
0
62
30
66
1
10
0
20
0
30
0
70
8
0
VERTEX
8
0
62
30
10
-0.056568542
20
0.18242641
30
0
70
32
0
VERTEX
8
0
62
30
10
-0.056568525
20
0.18242642
30
0
70
32
0
VERTEX
8
0
62
30
10
-0.056568542
20
0.18242644
30
0
70
32
0
SEQEND
8
0
0
POLYLINE
8
0
62
30
66
1
10
0
20
0
30
0
70
8
0
VERTEX
8
0
62
30
10
-0.028284271
20
0.18242642
30
0
70
32
0
VERTEX
8
0
62
30
10
-0.028284271
20
0.18242642
30
0
70
32
0
VERTEX
8
0
62
30
10
-0.028284271
20
0.18242642
30
0
70
32
0
SEQEND
8
0
0
POLYLINE
8
0
62
5
66
1
10
0
20
0
30
0
70
8
0
VERTEX
8
0
62
5
10
0
20
0.19656857
30
0
70
32
0
VERTEX
8
0
62
5
10
0
20
0.22512134
30
0
70
32
0
SEQEND
8
0
0
POLYLINE
8
0
62
5
66
1
10
0
20
0
30
0
70
8
0
VERTEX
8
0
62
5
10
0.028284271
20
0.19656857
30
0
70
32
0
VERTEX
8
0
62
5
10
0.028284271
20
0.22512134
30
0
70
32
0
SEQEND
8
0
0
POLYLINE
8
0
62
5
66
1
10
0
20
0
30
0
70
8
0
VERTEX
8
0
62
5
10
0.056568542
20
0.19656857
30
0
70
32
0
VERTEX
8
0
62
5
10
0.056568542
20
0.22512134
30
0
70
32
0
SEQEND
8
0
0
POLYLINE
8
0
62
5
66
1
10
0
20
0
30
0
70
8
0
VERTEX
8
0
62
5
10
0.084852814
20
0.19656857
30
0
70
32
0
VERTEX
8
0
62
5
10
0.084852814
20
0.22512134
30
0
70
32
0
SEQEND
8
0
0
POLYLINE
8
0
62
5
66
1
10
0
20
0
30
0
70
8
0
VERTEX
8
0
62
5
10
0.11313708
20
0.19656857
30
0
70
32
0
VERTEX
8
0
62
5
10
0.11313708
20
0.22512134
30
0
70
32
0
SEQEND
8
0
0
POLYLINE
8
0
62
5
66
1
10
0
20
0
30
0
70
8
0
VERTEX
8
0
62
5
10
0.028284271
20
0.19656857
30
0
70
32
0
VERTEX
8
0
62
5
10
0.028284271
20
0.19656857
30
0
70
32
0
SEQEND
8
0
0
POLYLINE
8
0
62
5
66
1
10
0
20
0
30
0
70
8
0
VERTEX
8
0
62
5
10
0.056568542
20
0.19656857
30
0
70
32
0
VERTEX
8
0
62
5
10
0.056568542
20
0.19656857
30
0
70
32
0
SEQEND
8
0
0
POLYLINE
8
0
62
5
66
1
10
0
20
0
30
0
70
8
0
VERTEX
8
0
62
5
10
0.084852814
20
0.19656857
30
0
70
32
0
VERTEX
8
0
62
5
10
0.084852814
20
0.19656857
30
0
70
32
0
SEQEND
8
0
0
POLYLINE
8
0
62
5
66
1
10
0
20
0
30
0
70
8
0
VERTEX
8
0
62
5
10
2.8240052e-08
20
0.22512134
30
0
70
32
0
VERTEX
8
0
62
5
10
2.8240052e-08
20
0.22512134
30
0
70
32
0
SEQEND
8
0
0
POLYLINE
8
0
62
5
66
1
10
0
20
0
30
0
70
8
0
VERTEX
8
0
62
5
10
0.028284299
20
0.22512134
30
0
70
32
0
VERTEX
8
0
62
5
10
0.028284299
20
0.22512134
30
0
70
32
0
SEQEND
8
0
0
POLYLINE
8
0
62
5
66
1
10
0
20
0
30
0
70
8
0
VERTEX
8
0
62
5
10
0.056568571
20
0.22512134
30
0
70
32
0
VERTEX
8
0
62
5
10
0.056568571
20
0.22512134
30
0
70
32
0
SEQEND
8
0
0
POLYLINE
8
0
62
5
66
1
10
0
20
0
30
0
70
8
0
VERTEX
8
0
62
5
10
0.084852842
20
0.22512134
30
0
70
32
0
VERTEX
8
0
62
5
10
0.084852842
20
0.22512134
30
0
70
32
0
SEQEND
8
0
0
POLYLINE
8
0
62
5
66
1
10
0
20
0
30
0
70
8
0
VERTEX
8
0
62
5
10
0.14142136
20
0.19656857
30
0
70
32
0
VERTEX
8
0
62
5
10
0.14142136
20
0.22512134
30
0
70
32
0
SEQEND
8
0
0
POLYLINE
8
0
62
5
66
1
10
0
20
0
30
0
70
8
0
VERTEX
8
0
62
5
10
0.16970563
20
0.19656857
30
0
70
32
0
VERTEX
8
0
62
5
10
0.16970563
20
0.22512134
30
0
70
32
0
SEQEND
8
0
0
POLYLINE
8
0
62
5
66
1
10
0
20
0
30
0
70
8
0
VERTEX
8
0
62
5
10
0.1979899
20
0.19656857
30
0
70
32
0
VERTEX
8
0
62
5
10
0.1979899
20
0.22512134
30
0
70
32
0
SEQEND
8
0
0
POLYLINE
8
0
62
5
66
1
10
0
20
0
30
0
70
8
0
VERTEX
8
0
62
5
10
0.22627417
20
0.19656857
30
0
70
32
0
VERTEX
8
0
62
5
10
0.22627417
20
0.22512134
30
0
70
32
0
SEQEND
8
0
0
POLYLINE
8
0
62
5
66
1
10
0
20
0
30
0
70
8
0
VERTEX
8
0
62
5
10
0.14142136
20
0.19656857
30
0
70
32
0
VERTEX
8
0
62
5
10
0.14142136
20
0.19656857
30
0
70
32
0
SEQEND
8
0
0
POLYLINE
8
0
62
5
66
1
10
0
20
0
30
0
70
8
0
VERTEX
8
0
62
5
10
0.16970563
20
0.19656857
30
0
70
32
0
VERTEX
8
0
62
5
10
0.16970563
20
0.19656857
30
0
70
32
0
SEQEND
8
0
0
POLYLINE
8
0
62
5
66
1
10
0
20
0
30
0
70
8
0
VERTEX
8
0
62
5
10
0.1979899
20
0.19656857
30
0
70
32
0
VERTEX
8
0
62
5
10
0.1979899
20
0.19656857
30
0
70
32
0
SEQEND
8
0
0
POLYLINE
8
0
62
5
66
1
10
0
20
0
30
0
70
8
0
VERTEX
8
0
62
5
10
0.11313711
20
0.22512134
30
0
70
32
0
VERTEX
8
0
62
5
10
0.11313711
20
0.22512134
30
0
70
32
0
SEQEND
8
0
0
POLYLINE
8
0
62
5
66
1
10
0
20
0
30
0
70
8
0
VERTEX
8
0
62
5
10
0.14142138
20
0.22512134
30
0
70
32
0
VERTEX
8
0
62
5
10
0.14142138
20
0.22512134
30
0
70
32
0
SEQEND
8
0
0
POLYLINE
8
0
62
5
66
1
10
0
20
0
30
0
70
8
0
VERTEX
8
0
62
5
10
0.16970566
20
0.22512134
30
0
70
32
0
VERTEX
8
0
62
5
10
0.16970566
20
0.22512134
30
0
70
32
0
SEQEND
8
0
0
POLYLINE
8
0
62
5
66
1
10
0
20
0
30
0
70
8
0
VERTEX
8
0
62
5
10
0.19798993
20
0.22512134
30
0
70
32
0
VERTEX
8
0
62
5
10
0.19798993
20
0.22512134
30
0
70
32
0
SEQEND
8
0
0
POLYLINE
8
0
62
5
66
1
10
0
20
0
30
0
70
8
0
VERTEX
8
0
62
5
10
-0.084852814
20
0.19656857
30
0
70
32
0
VERTEX
8
0
62
5
10
-0.084852814
20
0.22512134
30
0
70
32
0
SEQEND
8
0
0
POLYLINE
8
0
62
5
66
1
10
0
20
0
30
0
70
8
0
VERTEX
8
0
62
5
10
-0.056568542
20
0.19656857
30
0
70
32
0
VERTEX
8
0
62
5
10
-0.056568542
20
0.22512134
30
0
70
32
0
SEQEND
8
0
0
POLYLINE
8
0
62
5
66
1
10
0
20
0
30
0
70
8
0
VERTEX
8
0
62
5
10
-0.028284271
20
0.19656857
30
0
70
32
0
VERTEX
8
0
62
5
10
-0.028284271
20
0.22512134
30
0
70
32
0
SEQEND
8
0
0
POLYLINE
8
0
62
5
66
1
10
0
20
0
30
0
70
8
0
VERTEX
8
0
62
5
10
0
20
0.19656857
30
0
70
32
0
VERTEX
8
0
62
5
10
0
20
0.22512134
30
0
70
32
0
SEQEND
8
0
0
POLYLINE
8
0
62
5
66
1
10
0
20
0
30
0
70
8
0
VERTEX
8
0
62
5
10
-0.084852814
20
0.19656857
30
0
70
32
0
VERTEX
8
0
62
5
10
-0.084852814
20
0.19656857
30
0
70
32
0
SEQEND
8
0
0
POLYLINE
8
0
62
5
66
1
10
0
20
0
30
0
70
8
0
VERTEX
8
0
62
5
10
-0.056568542
20
0.19656857
30
0
70
32
0
VERTEX
8
0
62
5
10
-0.056568542
20
0.19656857
30
0
70
32
0
SEQEND
8
0
0
POLYLINE
8
0
62
5
66
1
10
0
20
0
30
0
70
8
0
VERTEX
8
0
62
5
10
-0.028284271
20
0.19656857
30
0
70
32
0
VERTEX
8
0
62
5
10
-0.028284271
20
0.19656857
30
0
70
32
0
SEQEND
8
0
0
POLYLINE
8
0
62
5
66
1
10
0
20
0
30
0
70
8
0
VERTEX
8
0
62
5
10
-0.11313706
20
0.22512134
30
0
70
32
0
VERTEX
8
0
62
5
10
-0.11313706
20
0.22512134
30
0
70
32
0
SEQEND
8
0
0
POLYLINE
8
0
62
5
66
1
10
0
20
0
30
0
70
8
0
VERTEX
8
0
62
5
10
-0.084852786
20
0.22512134
30
0
70
32
0
VERTEX
8
0
62
5
10
-0.084852786
20
0.22512134
30
0
70
32
0
SEQEND
8
0
0
POLYLINE
8
0
62
5
66
1
10
0
20
0
30
0
70
8
0
VERTEX
8
0
62
5
10
-0.056568514
20
0.22512134
30
0
70
32
0
VERTEX
8
0
62
5
10
-0.056568514
20
0.22512134
30
0
70
32
0
SEQEND
8
0
0
POLYLINE
8
0
62
5
66
1
10
0
20
0
30
0
70
8
0
VERTEX
8
0
62
5
10
-0.028284243
20
0.22512134
30
0
70
32
0
VERTEX
8
0
62
5
10
-0.028284243
20
0.22512134
30
0
70
32
0
SEQEND
8
0
0
POLYLINE
8
0
62
5
66
1
10
0
20
0
30
0
70
8
0
VERTEX
8
0
62
5
10
-0.028284243
20
0.22512134
30
0
70
32
0
VERTEX
8
0
62
5
10
-0.028284243
20
0.33933242
30
0
70
32
0
SEQEND
8
0
0
POLYLINE
8
0
62
5
66
1
10
0
20
0
30
0
70
8
0
VERTEX
8
0
62
5
10
0.084852842
20
0.22512134
30
0
70
32
0
VERTEX
8
0
62
5
10
0.084852842
20
0.33933242
30
0
70
32
0
SEQEND
8
0
0
POLYLINE
8
0
62
5
66
1
10
0
20
0
30
0
70
8
0
VERTEX
8
0
62
5
10
2.8240052e-08
20
0.22512134
30
0
70
32
0
VERTEX
8
0
62
5
10
2.8240052e-08
20
0.33933242
30
0
70
32
0
SEQEND
8
0
0
POLYLINE
8
0
62
5
66
1
10
0
20
0
30
0
70
8
0
VERTEX
8
0
62
5
10
0.028284299
20
0.22512134
30
0
70
32
0
VERTEX
8
0
62
5
10
0.028284299
20
0.33933242
30
0
70
32
0
SEQEND
8
0
0
POLYLINE
8
0
62
5
66
1
10
0
20
0
30
0
70
8
0
VERTEX
8
0
62
5
10
0.056568571
20
0.22512134
30
0
70
32
0
VERTEX
8
0
62
5
10
0.056568571
20
0.33933242
30
0
70
32
0
SEQEND
8
0
0
POLYLINE
8
0
62
5
66
1
10
0
20
0
30
0
70
8
0
VERTEX
8
0
62
5
10
0.19798993
20
0.22512134
30
0
70
32
0
VERTEX
8
0
62
5
10
0.19798993
20
0.33933242
30
0
70
32
0
SEQEND
8
0
0
POLYLINE
8
0
62
5
66
1
10
0
20
0
30
0
70
8
0
VERTEX
8
0
62
5
10
0.11313711
20
0.22512134
30
0
70
32
0
VERTEX
8
0
62
5
10
0.11313711
20
0.33933242
30
0
70
32
0
SEQEND
8
0
0
POLYLINE
8
0
62
5
66
1
10
0
20
0
30
0
70
8
0
VERTEX
8
0
62
5
10
0.14142138
20
0.22512134
30
0
70
32
0
VERTEX
8
0
62
5
10
0.14142138
20
0.33933242
30
0
70
32
0
SEQEND
8
0
0
POLYLINE
8
0
62
5
66
1
10
0
20
0
30
0
70
8
0
VERTEX
8
0
62
5
10
0.16970566
20
0.22512134
30
0
70
32
0
VERTEX
8
0
62
5
10
0.16970566
20
0.33933242
30
0
70
32
0
SEQEND
8
0
0
POLYLINE
8
0
62
5
66
1
10
0
20
0
30
0
70
8
0
VERTEX
8
0
62
5
10
-0.14142133
20
0.22512134
30
0
70
32
0
VERTEX
8
0
62
5
10
-0.14142133
20
0.33933242
30
0
70
32
0
SEQEND
8
0
0
POLYLINE
8
0
62
5
66
1
10
0
20
0
30
0
70
8
0
VERTEX
8
0
62
5
10
-0.11313706
20
0.22512134
30
0
70
32
0
VERTEX
8
0
62
5
10
-0.11313706
20
0.33933242
30
0
70
32
0
SEQEND
8
0
0
POLYLINE
8
0
62
5
66
1
10
0
20
0
30
0
70
8
0
VERTEX
8
0
62
5
10
-0.084852786
20
0.22512134
30
0
70
32
0
VERTEX
8
0
62
5
10
-0.084852786
20
0.33933242
30
0
70
32
0
SEQEND
8
0
0
POLYLINE
8
0
62
5
66
1
10
0
20
0
30
0
70
8
0
VERTEX
8
0
62
5
10
-0.056568514
20
0.22512134
30
0
70
32
0
VERTEX
8
0
62
5
10
-0.056568514
20
0.33933242
30
0
70
32
0
SEQEND
8
0
0
POLYLINE
8
0
62
5
66
1
10
0
20
0
30
0
70
8
0
VERTEX
8
0
62
5
10
-0.028284243
20
0.33933242
30
0
70
32
0
VERTEX
8
0
62
5
10
-0.028284243
20
0.40761672
30
0
70
32
0
SEQEND
8
0
0
POLYLINE
8
0
62
5
66
1
10
0
20
0
30
0
70
8
0
VERTEX
8
0
62
5
10
0.084852842
20
0.40761672
30
0
70
32
0
VERTEX
8
0
62
5
10
0.084852842
20
0.33933242
30
0
70
32
0
SEQEND
8
0
0
POLYLINE
8
0
62
5
66
1
10
0
20
0
30
0
70
8
0
VERTEX
8
0
62
5
10
-0.028284243
20
0.37347454
30
0
70
32
0
VERTEX
8
0
62
5
10
2.8240052e-08
20
0.34519027
30
0
70
32
0
VERTEX
8
0
62
5
10
0.028284299
20
0.34519029
30
0
70
32
0
VERTEX
8
0
62
5
10
0.056568571
20
0.37347457
30
0
70
32
0
VERTEX
8
0
62
5
10
0.084852842
20
0.37347454
30
0
70
32
0
SEQEND
8
0
0
POLYLINE
8
0
62
5
66
1
10
0
20
0
30
0
70
8
0
SEQEND
8
0
0
POLYLINE
8
0
62
5
66
1
10
0
20
0
30
0
70
8
0
VERTEX
8
0
62
5
10
-0.028284243
20
0.37347459
30
0
70
32
0
VERTEX
8
0
62
5
10
2.8240052e-08
20
0.40175887
30
0
70
32
0
VERTEX
8
0
62
5
10
0.028284299
20
0.40175884
30
0
70
32
0
VERTEX
8
0
62
5
10
0.056568571
20
0.37347457
30
0
70
32
0
VERTEX
8
0
62
5
10
0.084852842
20
0.37347459
30
0
70
32
0
SEQEND
8
0
0
POLYLINE
8
0
62
30
66
1
10
0
20
0
30
0
70
8
0
VERTEX
8
0
62
30
10
-0.028284243
20
0.37347457
30
0
70
32
0
VERTEX
8
0
62
30
10
0.084852842
20
0.37347457
30
0
70
32
0
SEQEND
8
0
0
POLYLINE
8
0
62
30
66
1
10
0
20
0
30
0
70
8
0
VERTEX
8
0
62
30
10
2.8240052e-08
20
0.34519027
30
0
70
32
0
VERTEX
8
0
62
30
10
2.8240052e-08
20
0.37347457
30
0
70
32
0
SEQEND
8
0
0
POLYLINE
8
0
62
30
66
1
10
0
20
0
30
0
70
8
0
VERTEX
8
0
62
30
10
0.028284299
20
0.34519029
30
0
70
32
0
VERTEX
8
0
62
30
10
0.028284299
20
0.37347457
30
0
70
32
0
SEQEND
8
0
0
POLYLINE
8
0
62
30
66
1
10
0
20
0
30
0
70
8
0
VERTEX
8
0
62
30
10
0.056568571
20
0.37347457
30
0
70
32
0
VERTEX
8
0
62
30
10
0.056568571
20
0.37347457
30
0
70
32
0
SEQEND
8
0
0
POLYLINE
8
0
62
5
66
1
10
0
20
0
30
0
70
8
0
VERTEX
8
0
62
5
10
2.8240052e-08
20
0.33933242
30
0
70
32
0
VERTEX
8
0
62
5
10
2.8240052e-08
20
0.34519027
30
0
70
32
0
SEQEND
8
0
0
POLYLINE
8
0
62
5
66
1
10
0
20
0
30
0
70
8
0
VERTEX
8
0
62
5
10
0.028284299
20
0.33933242
30
0
70
32
0
VERTEX
8
0
62
5
10
0.028284299
20
0.34519029
30
0
70
32
0
SEQEND
8
0
0
POLYLINE
8
0
62
5
66
1
10
0
20
0
30
0
70
8
0
VERTEX
8
0
62
5
10
0.056568571
20
0.33933242
30
0
70
32
0
VERTEX
8
0
62
5
10
0.056568571
20
0.37347457
30
0
70
32
0
SEQEND
8
0
0
POLYLINE
8
0
62
5
66
1
10
0
20
0
30
0
70
8
0
VERTEX
8
0
62
5
10
2.8240052e-08
20
0.37347457
30
0
70
32
0
VERTEX
8
0
62
5
10
2.8240052e-08
20
0.40761672
30
0
70
32
0
SEQEND
8
0
0
POLYLINE
8
0
62
5
66
1
10
0
20
0
30
0
70
8
0
VERTEX
8
0
62
5
10
0.028284299
20
0.37347457
30
0
70
32
0
VERTEX
8
0
62
5
10
0.028284299
20
0.40761672
30
0
70
32
0
SEQEND
8
0
0
POLYLINE
8
0
62
5
66
1
10
0
20
0
30
0
70
8
0
VERTEX
8
0
62
5
10
0.056568571
20
0.37347457
30
0
70
32
0
VERTEX
8
0
62
5
10
0.056568571
20
0.40761672
30
0
70
32
0
SEQEND
8
0
0
POLYLINE
8
0
62
30
66
1
10
0
20
0
30
0
70
8
0
VERTEX
8
0
62
30
10
-0.028284243
20
0.37347454
30
0
70
32
0
VERTEX
8
0
62
30
10
-0.028284175
20
0.37347457
30
0
70
32
0
VERTEX
8
0
62
30
10
-0.028284243
20
0.37347459
30
0
70
32
0
SEQEND
8
0
0
POLYLINE
8
0
62
30
66
1
10
0
20
0
30
0
70
8
0
VERTEX
8
0
62
30
10
2.8240052e-08
20
0.34519027
30
0
70
32
0
VERTEX
8
0
62
30
10
0.011715764
20
0.37347457
30
0
70
32
0
VERTEX
8
0
62
30
10
2.8240052e-08
20
0.40175887
30
0
70
32
0
SEQEND
8
0
0
POLYLINE
8
0
62
30
66
1
10
0
20
0
30
0
70
8
0
VERTEX
8
0
62
30
10
0.028284299
20
0.34519029
30
0
70
32
0
VERTEX
8
0
62
30
10
0.040000033
20
0.37347457
30
0
70
32
0
VERTEX
8
0
62
30
10
0.028284299
20
0.40175884
30
0
70
32
0
SEQEND
8
0
0
POLYLINE
8
0
62
30
66
1
10
0
20
0
30
0
70
8
0
VERTEX
8
0
62
30
10
0.056568571
20
0.37347457
30
0
70
32
0
VERTEX
8
0
62
30
10
0.056568571
20
0.37347457
30
0
70
32
0
VERTEX
8
0
62
30
10
0.056568571
20
0.37347457
30
0
70
32
0
SEQEND
8
0
0
POLYLINE
8
0
62
5
66
1
10
0
20
0
30
0
70
8
0
VERTEX
8
0
62
5
10
0.19798993
20
0.40761672
30
0
70
32
0
VERTEX
8
0
62
5
10
0.19798993
20
0.33933242
30
0
70
32
0
SEQEND
8
0
0
POLYLINE
8
0
62
5
66
1
10
0
20
0
30
0
70
8
0
VERTEX
8
0
62
5
10
0.084852842
20
0.37347454
30
0
70
32
0
VERTEX
8
0
62
5
10
0.11313711
20
0.34519027
30
0
70
32
0
VERTEX
8
0
62
5
10
0.14142138
20
0.34519029
30
0
70
32
0
VERTEX
8
0
62
5
10
0.16970566
20
0.37347457
30
0
70
32
0
VERTEX
8
0
62
5
10
0.19798993
20
0.37347454
30
0
70
32
0
SEQEND
8
0
0
POLYLINE
8
0
62
5
66
1
10
0
20
0
30
0
70
8
0
SEQEND
8
0
0
POLYLINE
8
0
62
5
66
1
10
0
20
0
30
0
70
8
0
VERTEX
8
0
62
5
10
0.084852842
20
0.37347459
30
0
70
32
0
VERTEX
8
0
62
5
10
0.11313711
20
0.40175887
30
0
70
32
0
VERTEX
8
0
62
5
10
0.14142138
20
0.40175884
30
0
70
32
0
VERTEX
8
0
62
5
10
0.16970566
20
0.37347457
30
0
70
32
0
VERTEX
8
0
62
5
10
0.19798993
20
0.37347459
30
0
70
32
0
SEQEND
8
0
0
POLYLINE
8
0
62
30
66
1
10
0
20
0
30
0
70
8
0
VERTEX
8
0
62
30
10
0.084852842
20
0.37347457
30
0
70
32
0
VERTEX
8
0
62
30
10
0.19798993
20
0.37347457
30
0
70
32
0
SEQEND
8
0
0
POLYLINE
8
0
62
30
66
1
10
0
20
0
30
0
70
8
0
VERTEX
8
0
62
30
10
0.11313711
20
0.34519027
30
0
70
32
0
VERTEX
8
0
62
30
10
0.11313711
20
0.37347457
30
0
70
32
0
SEQEND
8
0
0
POLYLINE
8
0
62
30
66
1
10
0
20
0
30
0
70
8
0
VERTEX
8
0
62
30
10
0.14142138
20
0.34519029
30
0
70
32
0
VERTEX
8
0
62
30
10
0.14142138
20
0.37347457
30
0
70
32
0
SEQEND
8
0
0
POLYLINE
8
0
62
30
66
1
10
0
20
0
30
0
70
8
0
VERTEX
8
0
62
30
10
0.16970566
20
0.37347457
30
0
70
32
0
VERTEX
8
0
62
30
10
0.16970566
20
0.37347457
30
0
70
32
0
SEQEND
8
0
0
POLYLINE
8
0
62
5
66
1
10
0
20
0
30
0
70
8
0
VERTEX
8
0
62
5
10
0.11313711
20
0.33933242
30
0
70
32
0
VERTEX
8
0
62
5
10
0.11313711
20
0.34519027
30
0
70
32
0
SEQEND
8
0
0
POLYLINE
8
0
62
5
66
1
10
0
20
0
30
0
70
8
0
VERTEX
8
0
62
5
10
0.14142138
20
0.33933242
30
0
70
32
0
VERTEX
8
0
62
5
10
0.14142138
20
0.34519029
30
0
70
32
0
SEQEND
8
0
0
POLYLINE
8
0
62
5
66
1
10
0
20
0
30
0
70
8
0
VERTEX
8
0
62
5
10
0.16970566
20
0.33933242
30
0
70
32
0
VERTEX
8
0
62
5
10
0.16970566
20
0.37347457
30
0
70
32
0
SEQEND
8
0
0
POLYLINE
8
0
62
5
66
1
10
0
20
0
30
0
70
8
0
VERTEX
8
0
62
5
10
0.11313711
20
0.37347457
30
0
70
32
0
VERTEX
8
0
62
5
10
0.11313711
20
0.40761672
30
0
70
32
0
SEQEND
8
0
0
POLYLINE
8
0
62
5
66
1
10
0
20
0
30
0
70
8
0
VERTEX
8
0
62
5
10
0.14142138
20
0.37347457
30
0
70
32
0
VERTEX
8
0
62
5
10
0.14142138
20
0.40761672
30
0
70
32
0
SEQEND
8
0
0
POLYLINE
8
0
62
5
66
1
10
0
20
0
30
0
70
8
0
VERTEX
8
0
62
5
10
0.16970566
20
0.37347457
30
0
70
32
0
VERTEX
8
0
62
5
10
0.16970566
20
0.40761672
30
0
70
32
0
SEQEND
8
0
0
POLYLINE
8
0
62
30
66
1
10
0
20
0
30
0
70
8
0
VERTEX
8
0
62
30
10
0.084852842
20
0.37347454
30
0
70
32
0
VERTEX
8
0
62
30
10
0.08485291
20
0.37347457
30
0
70
32
0
VERTEX
8
0
62
30
10
0.084852842
20
0.37347459
30
0
70
32
0
SEQEND
8
0
0
POLYLINE
8
0
62
30
66
1
10
0
20
0
30
0
70
8
0
VERTEX
8
0
62
30
10
0.11313711
20
0.34519027
30
0
70
32
0
VERTEX
8
0
62
30
10
0.12485285
20
0.37347457
30
0
70
32
0
VERTEX
8
0
62
30
10
0.11313711
20
0.40175887
30
0
70
32
0
SEQEND
8
0
0
POLYLINE
8
0
62
30
66
1
10
0
20
0
30
0
70
8
0
VERTEX
8
0
62
30
10
0.14142138
20
0.34519029
30
0
70
32
0
VERTEX
8
0
62
30
10
0.15313712
20
0.37347457
30
0
70
32
0
VERTEX
8
0
62
30
10
0.14142138
20
0.40175884
30
0
70
32
0
SEQEND
8
0
0
POLYLINE
8
0
62
30
66
1
10
0
20
0
30
0
70
8
0
VERTEX
8
0
62
30
10
0.16970566
20
0.37347457
30
0
70
32
0
VERTEX
8
0
62
30
10
0.16970566
20
0.37347457
30
0
70
32
0
VERTEX
8
0
62
30
10
0.16970566
20
0.37347457
30
0
70
32
0
SEQEND
8
0
0
POLYLINE
8
0
62
5
66
1
10
0
20
0
30
0
70
8
0
VERTEX
8
0
62
5
10
-0.14142133
20
0.33933242
30
0
70
32
0
VERTEX
8
0
62
5
10
-0.14142133
20
0.40761672
30
0
70
32
0
SEQEND
8
0
0
POLYLINE
8
0
62
5
66
1
10
0
20
0
30
0
70
8
0
VERTEX
8
0
62
5
10
-0.14142133
20
0.37347454
30
0
70
32
0
VERTEX
8
0
62
5
10
-0.11313706
20
0.34519027
30
0
70
32
0
VERTEX
8
0
62
5
10
-0.084852786
20
0.34519029
30
0
70
32
0
VERTEX
8
0
62
5
10
-0.056568514
20
0.37347457
30
0
70
32
0
VERTEX
8
0
62
5
10
-0.028284243
20
0.37347454
30
0
70
32
0
SEQEND
8
0
0
POLYLINE
8
0
62
5
66
1
10
0
20
0
30
0
70
8
0
SEQEND
8
0
0
POLYLINE
8
0
62
5
66
1
10
0
20
0
30
0
70
8
0
VERTEX
8
0
62
5
10
-0.14142133
20
0.37347459
30
0
70
32
0
VERTEX
8
0
62
5
10
-0.11313706
20
0.40175887
30
0
70
32
0
VERTEX
8
0
62
5
10
-0.084852786
20
0.40175884
30
0
70
32
0
VERTEX
8
0
62
5
10
-0.056568514
20
0.37347457
30
0
70
32
0
VERTEX
8
0
62
5
10
-0.028284243
20
0.37347459
30
0
70
32
0
SEQEND
8
0
0
POLYLINE
8
0
62
30
66
1
10
0
20
0
30
0
70
8
0
VERTEX
8
0
62
30
10
-0.14142133
20
0.37347457
30
0
70
32
0
VERTEX
8
0
62
30
10
-0.028284243
20
0.37347457
30
0
70
32
0
SEQEND
8
0
0
POLYLINE
8
0
62
30
66
1
10
0
20
0
30
0
70
8
0
VERTEX
8
0
62
30
10
-0.11313706
20
0.34519027
30
0
70
32
0
VERTEX
8
0
62
30
10
-0.11313706
20
0.37347457
30
0
70
32
0
SEQEND
8
0
0
POLYLINE
8
0
62
30
66
1
10
0
20
0
30
0
70
8
0
VERTEX
8
0
62
30
10
-0.084852786
20
0.34519029
30
0
70
32
0
VERTEX
8
0
62
30
10
-0.084852786
20
0.37347457
30
0
70
32
0
SEQEND
8
0
0
POLYLINE
8
0
62
30
66
1
10
0
20
0
30
0
70
8
0
VERTEX
8
0
62
30
10
-0.056568514
20
0.37347457
30
0
70
32
0
VERTEX
8
0
62
30
10
-0.056568514
20
0.37347457
30
0
70
32
0
SEQEND
8
0
0
POLYLINE
8
0
62
5
66
1
10
0
20
0
30
0
70
8
0
VERTEX
8
0
62
5
10
-0.11313706
20
0.33933242
30
0
70
32
0
VERTEX
8
0
62
5
10
-0.11313706
20
0.34519027
30
0
70
32
0
SEQEND
8
0
0
POLYLINE
8
0
62
5
66
1
10
0
20
0
30
0
70
8
0
VERTEX
8
0
62
5
10
-0.084852786
20
0.33933242
30
0
70
32
0
VERTEX
8
0
62
5
10
-0.084852786
20
0.34519029
30
0
70
32
0
SEQEND
8
0
0
POLYLINE
8
0
62
5
66
1
10
0
20
0
30
0
70
8
0
VERTEX
8
0
62
5
10
-0.056568514
20
0.33933242
30
0
70
32
0
VERTEX
8
0
62
5
10
-0.056568514
20
0.37347457
30
0
70
32
0
SEQEND
8
0
0
POLYLINE
8
0
62
5
66
1
10
0
20
0
30
0
70
8
0
VERTEX
8
0
62
5
10
-0.11313706
20
0.37347457
30
0
70
32
0
VERTEX
8
0
62
5
10
-0.11313706
20
0.40761672
30
0
70
32
0
SEQEND
8
0
0
POLYLINE
8
0
62
5
66
1
10
0
20
0
30
0
70
8
0
VERTEX
8
0
62
5
10
-0.084852786
20
0.37347457
30
0
70
32
0
VERTEX
8
0
62
5
10
-0.084852786
20
0.40761672
30
0
70
32
0
SEQEND
8
0
0
POLYLINE
8
0
62
5
66
1
10
0
20
0
30
0
70
8
0
VERTEX
8
0
62
5
10
-0.056568514
20
0.37347457
30
0
70
32
0
VERTEX
8
0
62
5
10
-0.056568514
20
0.40761672
30
0
70
32
0
SEQEND
8
0
0
POLYLINE
8
0
62
30
66
1
10
0
20
0
30
0
70
8
0
VERTEX
8
0
62
30
10
-0.14142133
20
0.37347454
30
0
70
32
0
VERTEX
8
0
62
30
10
-0.14142126
20
0.37347457
30
0
70
32
0
VERTEX
8
0
62
30
10
-0.14142133
20
0.37347459
30
0
70
32
0
SEQEND
8
0
0
POLYLINE
8
0
62
30
66
1
10
0
20
0
30
0
70
8
0
VERTEX
8
0
62
30
10
-0.11313706
20
0.34519027
30
0
70
32
0
VERTEX
8
0
62
30
10
-0.10142132
20
0.37347457
30
0
70
32
0
VERTEX
8
0
62
30
10
-0.11313706
20
0.40175887
30
0
70
32
0
SEQEND
8
0
0
POLYLINE
8
0
62
30
66
1
10
0
20
0
30
0
70
8
0
VERTEX
8
0
62
30
10
-0.084852786
20
0.34519029
30
0
70
32
0
VERTEX
8
0
62
30
10
-0.073137052
20
0.37347457
30
0
70
32
0
VERTEX
8
0
62
30
10
-0.084852786
20
0.40175884
30
0
70
32
0
SEQEND
8
0
0
POLYLINE
8
0
62
30
66
1
10
0
20
0
30
0
70
8
0
VERTEX
8
0
62
30
10
-0.056568514
20
0.37347457
30
0
70
32
0
VERTEX
8
0
62
30
10
-0.056568514
20
0.37347457
30
0
70
32
0
VERTEX
8
0
62
30
10
-0.056568514
20
0.37347457
30
0
70
32
0
SEQEND
8
0
0
POLYLINE
8
0
62
5
66
1
10
0
20
0
30
0
70
8
0
VERTEX
8
0
62
5
10
-0.028284243
20
0.40761672
30
0
70
32
0
VERTEX
8
0
62
5
10
-0.028284243
20
0.44761672
30
0
70
32
0
SEQEND
8
0
0
POLYLINE
8
0
62
5
66
1
10
0
20
0
30
0
70
8
0
VERTEX
8
0
62
5
10
0.084852842
20
0.44761672
30
0
70
32
0
VERTEX
8
0
62
5
10
0.084852842
20
0.40761672
30
0
70
32
0
SEQEND
8
0
0
POLYLINE
8
0
62
5
66
1
10
0
20
0
30
0
70
8
0
VERTEX
8
0
62
5
10
-0.028284243
20
0.40761672
30
0
70
32
0
VERTEX
8
0
62
5
10
0.084852842
20
0.40761672
30
0
70
32
0
SEQEND
8
0
0
POLYLINE
8
0
62
5
66
1
10
0
20
0
30
0
70
8
0
VERTEX
8
0
62
5
10
-0.028284243
20
0.44761672
30
0
70
32
0
VERTEX
8
0
62
5
10
0.084852842
20
0.44761672
30
0
70
32
0
SEQEND
8
0
0
POLYLINE
8
0
62
5
66
1
10
0
20
0
30
0
70
8
0
VERTEX
8
0
62
5
10
2.8240052e-08
20
0.40761672
30
0
70
32
0
VERTEX
8
0
62
5
10
2.8240052e-08
20
0.40761672
30
0
70
32
0
SEQEND
8
0
0
POLYLINE
8
0
62
5
66
1
10
0
20
0
30
0
70
8
0
VERTEX
8
0
62
5
10
0.028284299
20
0.40761672
30
0
70
32
0
VERTEX
8
0
62
5
10
0.028284299
20
0.40761672
30
0
70
32
0
SEQEND
8
0
0
POLYLINE
8
0
62
5
66
1
10
0
20
0
30
0
70
8
0
VERTEX
8
0
62
5
10
0.056568571
20
0.40761672
30
0
70
32
0
VERTEX
8
0
62
5
10
0.056568571
20
0.40761672
30
0
70
32
0
SEQEND
8
0
0
POLYLINE
8
0
62
5
66
1
10
0
20
0
30
0
70
8
0
VERTEX
8
0
62
5
10
2.8240052e-08
20
0.44761672
30
0
70
32
0
VERTEX
8
0
62
5
10
2.8240052e-08
20
0.44761672
30
0
70
32
0
SEQEND
8
0
0
POLYLINE
8
0
62
5
66
1
10
0
20
0
30
0
70
8
0
VERTEX
8
0
62
5
10
0.028284299
20
0.44761672
30
0
70
32
0
VERTEX
8
0
62
5
10
0.028284299
20
0.44761672
30
0
70
32
0
SEQEND
8
0
0
POLYLINE
8
0
62
5
66
1
10
0
20
0
30
0
70
8
0
VERTEX
8
0
62
5
10
0.056568571
20
0.44761672
30
0
70
32
0
VERTEX
8
0
62
5
10
0.056568571
20
0.44761672
30
0
70
32
0
SEQEND
8
0
0
POLYLINE
8
0
62
30
66
1
10
0
20
0
30
0
70
8
0
VERTEX
8
0
62
30
10
-0.028284243
20
0.44761672
30
0
70
32
0
VERTEX
8
0
62
30
10
2.8240052e-08
20
0.40761672
30
0
70
32
0
SEQEND
8
0
0
POLYLINE
8
0
62
30
66
1
10
0
20
0
30
0
70
8
0
VERTEX
8
0
62
30
10
2.8240052e-08
20
0.44761672
30
0
70
32
0
VERTEX
8
0
62
30
10
-0.028284243
20
0.40761672
30
0
70
32
0
SEQEND
8
0
0
POLYLINE
8
0
62
30
66
1
10
0
20
0
30
0
70
8
0
VERTEX
8
0
62
30
10
0.028284299
20
0.44761672
30
0
70
32
0
VERTEX
8
0
62
30
10
0.056568571
20
0.40761672
30
0
70
32
0
SEQEND
8
0
0
POLYLINE
8
0
62
30
66
1
10
0
20
0
30
0
70
8
0
VERTEX
8
0
62
30
10
0.056568571
20
0.44761672
30
0
70
32
0
VERTEX
8
0
62
30
10
0.028284299
20
0.40761672
30
0
70
32
0
SEQEND
8
0
0
POLYLINE
8
0
62
30
66
1
10
0
20
0
30
0
70
8
0
VERTEX
8
0
62
30
10
2.8240052e-08
20
0.42761672
30
0
70
32
0
VERTEX
8
0
62
30
10
0.028284299
20
0.42761672
30
0
70
32
0
SEQEND
8
0
0
POLYLINE
8
0
62
30
66
1
10
0
20
0
30
0
70
8
0
VERTEX
8
0
62
30
10
0.056568571
20
0.42761672
30
0
70
32
0
VERTEX
8
0
62
30
10
0.084852842
20
0.42761672
30
0
70
32
0
SEQEND
8
0
0
POLYLINE
8
0
62
5
66
1
10
0
20
0
30
0
70
8
0
VERTEX
8
0
62
5
10
-0.028284243
20
0.42761672
30
0
70
32
0
VERTEX
8
0
62
5
10
-0.014142107
20
0.42761672
30
0
70
32
0
SEQEND
8
0
0
POLYLINE
8
0
62
5
66
1
10
0
20
0
30
0
70
8
0
VERTEX
8
0
62
5
10
0.028284299
20
0.42761672
30
0
70
32
0
VERTEX
8
0
62
5
10
0.042426435
20
0.42761672
30
0
70
32
0
SEQEND
8
0
0
POLYLINE
8
0
62
5
66
1
10
0
20
0
30
0
70
8
0
VERTEX
8
0
62
5
10
-0.014142107
20
0.42761672
30
0
70
32
0
VERTEX
8
0
62
5
10
2.8240052e-08
20
0.42761672
30
0
70
32
0
SEQEND
8
0
0
POLYLINE
8
0
62
5
66
1
10
0
20
0
30
0
70
8
0
VERTEX
8
0
62
5
10
0.042426435
20
0.42761672
30
0
70
32
0
VERTEX
8
0
62
5
10
0.056568571
20
0.42761672
30
0
70
32
0
SEQEND
8
0
0
POLYLINE
8
0
62
5
66
1
10
0
20
0
30
0
70
8
0
VERTEX
8
0
62
5
10
2.8240052e-08
20
0.40761672
30
0
70
32
0
VERTEX
8
0
62
5
10
2.8240052e-08
20
0.44761672
30
0
70
32
0
SEQEND
8
0
0
POLYLINE
8
0
62
5
66
1
10
0
20
0
30
0
70
8
0
VERTEX
8
0
62
5
10
0.028284299
20
0.40761672
30
0
70
32
0
VERTEX
8
0
62
5
10
0.028284299
20
0.44761672
30
0
70
32
0
SEQEND
8
0
0
POLYLINE
8
0
62
5
66
1
10
0
20
0
30
0
70
8
0
VERTEX
8
0
62
5
10
0.056568571
20
0.40761672
30
0
70
32
0
VERTEX
8
0
62
5
10
0.056568571
20
0.44761672
30
0
70
32
0
SEQEND
8
0
0
POLYLINE
8
0
62
5
66
1
10
0
20
0
30
0
70
8
0
VERTEX
8
0
62
5
10
-0.028284243
20
0.40761672
30
0
70
32
0
VERTEX
8
0
62
5
10
-0.028284243
20
0.44761672
30
0
70
32
0
SEQEND
8
0
0
POLYLINE
8
0
62
5
66
1
10
0
20
0
30
0
70
8
0
VERTEX
8
0
62
5
10
0.19798993
20
0.44761672
30
0
70
32
0
VERTEX
8
0
62
5
10
0.19798993
20
0.40761672
30
0
70
32
0
SEQEND
8
0
0
POLYLINE
8
0
62
5
66
1
10
0
20
0
30
0
70
8
0
VERTEX
8
0
62
5
10
0.084852842
20
0.40761672
30
0
70
32
0
VERTEX
8
0
62
5
10
0.19798993
20
0.40761672
30
0
70
32
0
SEQEND
8
0
0
POLYLINE
8
0
62
5
66
1
10
0
20
0
30
0
70
8
0
VERTEX
8
0
62
5
10
0.084852842
20
0.44761672
30
0
70
32
0
VERTEX
8
0
62
5
10
0.19798993
20
0.44761672
30
0
70
32
0
SEQEND
8
0
0
POLYLINE
8
0
62
5
66
1
10
0
20
0
30
0
70
8
0
VERTEX
8
0
62
5
10
0.11313711
20
0.40761672
30
0
70
32
0
VERTEX
8
0
62
5
10
0.11313711
20
0.40761672
30
0
70
32
0
SEQEND
8
0
0
POLYLINE
8
0
62
5
66
1
10
0
20
0
30
0
70
8
0
VERTEX
8
0
62
5
10
0.14142138
20
0.40761672
30
0
70
32
0
VERTEX
8
0
62
5
10
0.14142138
20
0.40761672
30
0
70
32
0
SEQEND
8
0
0
POLYLINE
8
0
62
5
66
1
10
0
20
0
30
0
70
8
0
VERTEX
8
0
62
5
10
0.16970566
20
0.40761672
30
0
70
32
0
VERTEX
8
0
62
5
10
0.16970566
20
0.40761672
30
0
70
32
0
SEQEND
8
0
0
POLYLINE
8
0
62
5
66
1
10
0
20
0
30
0
70
8
0
VERTEX
8
0
62
5
10
0.11313711
20
0.44761672
30
0
70
32
0
VERTEX
8
0
62
5
10
0.11313711
20
0.44761672
30
0
70
32
0
SEQEND
8
0
0
POLYLINE
8
0
62
5
66
1
10
0
20
0
30
0
70
8
0
VERTEX
8
0
62
5
10
0.14142138
20
0.44761672
30
0
70
32
0
VERTEX
8
0
62
5
10
0.14142138
20
0.44761672
30
0
70
32
0
SEQEND
8
0
0
POLYLINE
8
0
62
5
66
1
10
0
20
0
30
0
70
8
0
VERTEX
8
0
62
5
10
0.16970566
20
0.44761672
30
0
70
32
0
VERTEX
8
0
62
5
10
0.16970566
20
0.44761672
30
0
70
32
0
SEQEND
8
0
0
POLYLINE
8
0
62
30
66
1
10
0
20
0
30
0
70
8
0
VERTEX
8
0
62
30
10
0.084852842
20
0.44761672
30
0
70
32
0
VERTEX
8
0
62
30
10
0.11313711
20
0.40761672
30
0
70
32
0
SEQEND
8
0
0
POLYLINE
8
0
62
30
66
1
10
0
20
0
30
0
70
8
0
VERTEX
8
0
62
30
10
0.11313711
20
0.44761672
30
0
70
32
0
VERTEX
8
0
62
30
10
0.084852842
20
0.40761672
30
0
70
32
0
SEQEND
8
0
0
POLYLINE
8
0
62
30
66
1
10
0
20
0
30
0
70
8
0
VERTEX
8
0
62
30
10
0.14142138
20
0.44761672
30
0
70
32
0
VERTEX
8
0
62
30
10
0.16970566
20
0.40761672
30
0
70
32
0
SEQEND
8
0
0
POLYLINE
8
0
62
30
66
1
10
0
20
0
30
0
70
8
0
VERTEX
8
0
62
30
10
0.16970566
20
0.44761672
30
0
70
32
0
VERTEX
8
0
62
30
10
0.14142138
20
0.40761672
30
0
70
32
0
SEQEND
8
0
0
POLYLINE
8
0
62
30
66
1
10
0
20
0
30
0
70
8
0
VERTEX
8
0
62
30
10
0.11313711
20
0.42761672
30
0
70
32
0
VERTEX
8
0
62
30
10
0.14142138
20
0.42761672
30
0
70
32
0
SEQEND
8
0
0
POLYLINE
8
0
62
30
66
1
10
0
20
0
30
0
70
8
0
VERTEX
8
0
62
30
10
0.16970566
20
0.42761672
30
0
70
32
0
VERTEX
8
0
62
30
10
0.19798993
20
0.42761672
30
0
70
32
0
SEQEND
8
0
0
POLYLINE
8
0
62
5
66
1
10
0
20
0
30
0
70
8
0
VERTEX
8
0
62
5
10
0.084852842
20
0.42761672
30
0
70
32
0
VERTEX
8
0
62
5
10
0.098994978
20
0.42761672
30
0
70
32
0
SEQEND
8
0
0
POLYLINE
8
0
62
5
66
1
10
0
20
0
30
0
70
8
0
VERTEX
8
0
62
5
10
0.14142138
20
0.42761672
30
0
70
32
0
VERTEX
8
0
62
5
10
0.15556352
20
0.42761672
30
0
70
32
0
SEQEND
8
0
0
POLYLINE
8
0
62
5
66
1
10
0
20
0
30
0
70
8
0
VERTEX
8
0
62
5
10
0.098994978
20
0.42761672
30
0
70
32
0
VERTEX
8
0
62
5
10
0.11313711
20
0.42761672
30
0
70
32
0
SEQEND
8
0
0
POLYLINE
8
0
62
5
66
1
10
0
20
0
30
0
70
8
0
VERTEX
8
0
62
5
10
0.15556352
20
0.42761672
30
0
70
32
0
VERTEX
8
0
62
5
10
0.16970566
20
0.42761672
30
0
70
32
0
SEQEND
8
0
0
POLYLINE
8
0
62
5
66
1
10
0
20
0
30
0
70
8
0
VERTEX
8
0
62
5
10
0.11313711
20
0.40761672
30
0
70
32
0
VERTEX
8
0
62
5
10
0.11313711
20
0.44761672
30
0
70
32
0
SEQEND
8
0
0
POLYLINE
8
0
62
5
66
1
10
0
20
0
30
0
70
8
0
VERTEX
8
0
62
5
10
0.14142138
20
0.40761672
30
0
70
32
0
VERTEX
8
0
62
5
10
0.14142138
20
0.44761672
30
0
70
32
0
SEQEND
8
0
0
POLYLINE
8
0
62
5
66
1
10
0
20
0
30
0
70
8
0
VERTEX
8
0
62
5
10
0.16970566
20
0.40761672
30
0
70
32
0
VERTEX
8
0
62
5
10
0.16970566
20
0.44761672
30
0
70
32
0
SEQEND
8
0
0
POLYLINE
8
0
62
5
66
1
10
0
20
0
30
0
70
8
0
VERTEX
8
0
62
5
10
0.084852842
20
0.40761672
30
0
70
32
0
VERTEX
8
0
62
5
10
0.084852842
20
0.44761672
30
0
70
32
0
SEQEND
8
0
0
POLYLINE
8
0
62
5
66
1
10
0
20
0
30
0
70
8
0
VERTEX
8
0
62
5
10
-0.14142133
20
0.40761672
30
0
70
32
0
VERTEX
8
0
62
5
10
-0.14142133
20
0.44761672
30
0
70
32
0
SEQEND
8
0
0
POLYLINE
8
0
62
5
66
1
10
0
20
0
30
0
70
8
0
VERTEX
8
0
62
5
10
-0.14142133
20
0.40761672
30
0
70
32
0
VERTEX
8
0
62
5
10
-0.028284243
20
0.40761672
30
0
70
32
0
SEQEND
8
0
0
POLYLINE
8
0
62
5
66
1
10
0
20
0
30
0
70
8
0
VERTEX
8
0
62
5
10
-0.14142133
20
0.44761672
30
0
70
32
0
VERTEX
8
0
62
5
10
-0.028284243
20
0.44761672
30
0
70
32
0
SEQEND
8
0
0
POLYLINE
8
0
62
5
66
1
10
0
20
0
30
0
70
8
0
VERTEX
8
0
62
5
10
-0.11313706
20
0.40761672
30
0
70
32
0
VERTEX
8
0
62
5
10
-0.11313706
20
0.40761672
30
0
70
32
0
SEQEND
8
0
0
POLYLINE
8
0
62
5
66
1
10
0
20
0
30
0
70
8
0
VERTEX
8
0
62
5
10
-0.084852786
20
0.40761672
30
0
70
32
0
VERTEX
8
0
62
5
10
-0.084852786
20
0.40761672
30
0
70
32
0
SEQEND
8
0
0
POLYLINE
8
0
62
5
66
1
10
0
20
0
30
0
70
8
0
VERTEX
8
0
62
5
10
-0.056568514
20
0.40761672
30
0
70
32
0
VERTEX
8
0
62
5
10
-0.056568514
20
0.40761672
30
0
70
32
0
SEQEND
8
0
0
POLYLINE
8
0
62
5
66
1
10
0
20
0
30
0
70
8
0
VERTEX
8
0
62
5
10
-0.11313706
20
0.44761672
30
0
70
32
0
VERTEX
8
0
62
5
10
-0.11313706
20
0.44761672
30
0
70
32
0
SEQEND
8
0
0
POLYLINE
8
0
62
5
66
1
10
0
20
0
30
0
70
8
0
VERTEX
8
0
62
5
10
-0.084852786
20
0.44761672
30
0
70
32
0
VERTEX
8
0
62
5
10
-0.084852786
20
0.44761672
30
0
70
32
0
SEQEND
8
0
0
POLYLINE
8
0
62
5
66
1
10
0
20
0
30
0
70
8
0
VERTEX
8
0
62
5
10
-0.056568514
20
0.44761672
30
0
70
32
0
VERTEX
8
0
62
5
10
-0.056568514
20
0.44761672
30
0
70
32
0
SEQEND
8
0
0
POLYLINE
8
0
62
30
66
1
10
0
20
0
30
0
70
8
0
VERTEX
8
0
62
30
10
-0.14142133
20
0.44761672
30
0
70
32
0
VERTEX
8
0
62
30
10
-0.11313706
20
0.40761672
30
0
70
32
0
SEQEND
8
0
0
POLYLINE
8
0
62
30
66
1
10
0
20
0
30
0
70
8
0
VERTEX
8
0
62
30
10
-0.11313706
20
0.44761672
30
0
70
32
0
VERTEX
8
0
62
30
10
-0.14142133
20
0.40761672
30
0
70
32
0
SEQEND
8
0
0
POLYLINE
8
0
62
30
66
1
10
0
20
0
30
0
70
8
0
VERTEX
8
0
62
30
10
-0.084852786
20
0.44761672
30
0
70
32
0
VERTEX
8
0
62
30
10
-0.056568514
20
0.40761672
30
0
70
32
0
SEQEND
8
0
0
POLYLINE
8
0
62
30
66
1
10
0
20
0
30
0
70
8
0
VERTEX
8
0
62
30
10
-0.056568514
20
0.44761672
30
0
70
32
0
VERTEX
8
0
62
30
10
-0.084852786
20
0.40761672
30
0
70
32
0
SEQEND
8
0
0
POLYLINE
8
0
62
30
66
1
10
0
20
0
30
0
70
8
0
VERTEX
8
0
62
30
10
-0.11313706
20
0.42761672
30
0
70
32
0
VERTEX
8
0
62
30
10
-0.084852786
20
0.42761672
30
0
70
32
0
SEQEND
8
0
0
POLYLINE
8
0
62
30
66
1
10
0
20
0
30
0
70
8
0
VERTEX
8
0
62
30
10
-0.056568514
20
0.42761672
30
0
70
32
0
VERTEX
8
0
62
30
10
-0.028284243
20
0.42761672
30
0
70
32
0
SEQEND
8
0
0
POLYLINE
8
0
62
5
66
1
10
0
20
0
30
0
70
8
0
VERTEX
8
0
62
5
10
-0.14142133
20
0.42761672
30
0
70
32
0
VERTEX
8
0
62
5
10
-0.12727919
20
0.42761672
30
0
70
32
0
SEQEND
8
0
0
POLYLINE
8
0
62
5
66
1
10
0
20
0
30
0
70
8
0
VERTEX
8
0
62
5
10
-0.084852786
20
0.42761672
30
0
70
32
0
VERTEX
8
0
62
5
10
-0.07071065
20
0.42761672
30
0
70
32
0
SEQEND
8
0
0
POLYLINE
8
0
62
5
66
1
10
0
20
0
30
0
70
8
0
VERTEX
8
0
62
5
10
-0.12727919
20
0.42761672
30
0
70
32
0
VERTEX
8
0
62
5
10
-0.11313706
20
0.42761672
30
0
70
32
0
SEQEND
8
0
0
POLYLINE
8
0
62
5
66
1
10
0
20
0
30
0
70
8
0
VERTEX
8
0
62
5
10
-0.07071065
20
0.42761672
30
0
70
32
0
VERTEX
8
0
62
5
10
-0.056568514
20
0.42761672
30
0
70
32
0
SEQEND
8
0
0
POLYLINE
8
0
62
5
66
1
10
0
20
0
30
0
70
8
0
VERTEX
8
0
62
5
10
-0.11313706
20
0.40761672
30
0
70
32
0
VERTEX
8
0
62
5
10
-0.11313706
20
0.44761672
30
0
70
32
0
SEQEND
8
0
0
POLYLINE
8
0
62
5
66
1
10
0
20
0
30
0
70
8
0
VERTEX
8
0
62
5
10
-0.084852786
20
0.40761672
30
0
70
32
0
VERTEX
8
0
62
5
10
-0.084852786
20
0.44761672
30
0
70
32
0
SEQEND
8
0
0
POLYLINE
8
0
62
5
66
1
10
0
20
0
30
0
70
8
0
VERTEX
8
0
62
5
10
-0.056568514
20
0.40761672
30
0
70
32
0
VERTEX
8
0
62
5
10
-0.056568514
20
0.44761672
30
0
70
32
0
SEQEND
8
0
0
POLYLINE
8
0
62
5
66
1
10
0
20
0
30
0
70
8
0
VERTEX
8
0
62
5
10
-0.14142133
20
0.40761672
30
0
70
32
0
VERTEX
8
0
62
5
10
-0.14142133
20
0.44761672
30
0
70
32
0
SEQEND
8
0
0
POLYLINE
8
0
62
5
66
1
10
0
20
0
30
0
70
8
0
VERTEX
8
0
62
5
10
-0.028284243
20
0.44761672
30
0
70
32
0
VERTEX
8
0
62
5
10
-0.028284243
20
0.59103626
30
0
70
32
0
SEQEND
8
0
0
POLYLINE
8
0
62
5
66
1
10
0
20
0
30
0
70
8
0
VERTEX
8
0
62
5
10
0.084852842
20
0.59103626
30
0
70
32
0
VERTEX
8
0
62
5
10
0.084852842
20
0.44761672
30
0
70
32
0
SEQEND
8
0
0
POLYLINE
8
0
62
5
66
1
10
0
20
0
30
0
70
8
0
VERTEX
8
0
62
5
10
-0.028284243
20
0.46902059
30
0
70
32
0
VERTEX
8
0
62
5
10
2.8240052e-08
20
0.4834716
30
0
70
32
0
VERTEX
8
0
62
5
10
0.028284299
20
0.46237561
30
0
70
32
0
VERTEX
8
0
62
5
10
0.056568571
20
0.44792459
30
0
70
32
0
VERTEX
8
0
62
5
10
0.084852842
20
0.46902059
30
0
70
32
0
SEQEND
8
0
0
POLYLINE
8
0
62
5
66
1
10
0
20
0
30
0
70
8
0
VERTEX
8
0
62
5
10
-0.028284243
20
0.54073036
30
0
70
32
0
VERTEX
8
0
62
5
10
2.8240052e-08
20
0.55518137
30
0
70
32
0
VERTEX
8
0
62
5
10
0.028284299
20
0.53408538
30
0
70
32
0
VERTEX
8
0
62
5
10
0.056568571
20
0.51963436
30
0
70
32
0
VERTEX
8
0
62
5
10
0.084852842
20
0.54073036
30
0
70
32
0
SEQEND
8
0
0
POLYLINE
8
0
62
5
66
1
10
0
20
0
30
0
70
8
0
VERTEX
8
0
62
5
10
-0.028284243
20
0.49792262
30
0
70
32
0
VERTEX
8
0
62
5
10
2.8240052e-08
20
0.4834716
30
0
70
32
0
VERTEX
8
0
62
5
10
0.028284299
20
0.50456759
30
0
70
32
0
VERTEX
8
0
62
5
10
0.056568571
20
0.51901861
30
0
70
32
0
VERTEX
8
0
62
5
10
0.084852842
20
0.49792262
30
0
70
32
0
SEQEND
8
0
0
POLYLINE
8
0
62
5
66
1
10
0
20
0
30
0
70
8
0
VERTEX
8
0
62
5
10
-0.028284243
20
0.56963239
30
0
70
32
0
VERTEX
8
0
62
5
10
2.8240052e-08
20
0.55518137
30
0
70
32
0
VERTEX
8
0
62
5
10
0.028284299
20
0.57627736
30
0
70
32
0
VERTEX
8
0
62
5
10
0.056568571
20
0.59072838
30
0
70
32
0
VERTEX
8
0
62
5
10
0.084852842
20
0.56963239
30
0
70
32
0
SEQEND
8
0
0
POLYLINE
8
0
62
30
66
1
10
0
20
0
30
0
70
8
0
VERTEX
8
0
62
30
10
-0.028284243
20
0.4834716
30
0
70
32
0
VERTEX
8
0
62
30
10
0.084852842
20
0.4834716
30
0
70
32
0
SEQEND
8
0
0
POLYLINE
8
0
62
30
66
1
10
0
20
0
30
0
70
8
0
VERTEX
8
0
62
30
10
-0.028284243
20
0.55518137
30
0
70
32
0
VERTEX
8
0
62
30
10
0.084852842
20
0.55518137
30
0
70
32
0
SEQEND
8
0
0
POLYLINE
8
0
62
30
66
1
10
0
20
0
30
0
70
8
0
VERTEX
8
0
62
30
10
2.8240052e-08
20
0.4834716
30
0
70
32
0
VERTEX
8
0
62
30
10
2.8240052e-08
20
0.4834716
30
0
70
32
0
SEQEND
8
0
0
POLYLINE
8
0
62
30
66
1
10
0
20
0
30
0
70
8
0
VERTEX
8
0
62
30
10
0.028284299
20
0.46237561
30
0
70
32
0
VERTEX
8
0
62
30
10
0.028284299
20
0.4834716
30
0
70
32
0
SEQEND
8
0
0
POLYLINE
8
0
62
30
66
1
10
0
20
0
30
0
70
8
0
VERTEX
8
0
62
30
10
0.056568571
20
0.44792459
30
0
70
32
0
VERTEX
8
0
62
30
10
0.056568571
20
0.4834716
30
0
70
32
0
SEQEND
8
0
0
POLYLINE
8
0
62
30
66
1
10
0
20
0
30
0
70
8
0
VERTEX
8
0
62
30
10
2.8240052e-08
20
0.55518137
30
0
70
32
0
VERTEX
8
0
62
30
10
2.8240052e-08
20
0.55518137
30
0
70
32
0
SEQEND
8
0
0
POLYLINE
8
0
62
30
66
1
10
0
20
0
30
0
70
8
0
VERTEX
8
0
62
30
10
0.028284299
20
0.53408538
30
0
70
32
0
VERTEX
8
0
62
30
10
0.028284299
20
0.55518137
30
0
70
32
0
SEQEND
8
0
0
POLYLINE
8
0
62
30
66
1
10
0
20
0
30
0
70
8
0
VERTEX
8
0
62
30
10
0.056568571
20
0.51963436
30
0
70
32
0
VERTEX
8
0
62
30
10
0.056568571
20
0.55518137
30
0
70
32
0
SEQEND
8
0
0
POLYLINE
8
0
62
5
66
1
10
0
20
0
30
0
70
8
0
VERTEX
8
0
62
5
10
2.8240052e-08
20
0.44761672
30
0
70
32
0
VERTEX
8
0
62
5
10
2.8240052e-08
20
0.4834716
30
0
70
32
0
SEQEND
8
0
0
POLYLINE
8
0
62
5
66
1
10
0
20
0
30
0
70
8
0
VERTEX
8
0
62
5
10
0.028284299
20
0.44761672
30
0
70
32
0
VERTEX
8
0
62
5
10
0.028284299
20
0.46237561
30
0
70
32
0
SEQEND
8
0
0
POLYLINE
8
0
62
5
66
1
10
0
20
0
30
0
70
8
0
VERTEX
8
0
62
5
10
0.056568571
20
0.44761672
30
0
70
32
0
VERTEX
8
0
62
5
10
0.056568571
20
0.44792459
30
0
70
32
0
SEQEND
8
0
0
POLYLINE
8
0
62
5
66
1
10
0
20
0
30
0
70
8
0
VERTEX
8
0
62
5
10
2.8240052e-08
20
0.51932649
30
0
70
32
0
VERTEX
8
0
62
5
10
2.8240052e-08
20
0.55518137
30
0
70
32
0
SEQEND
8
0
0
POLYLINE
8
0
62
5
66
1
10
0
20
0
30
0
70
8
0
VERTEX
8
0
62
5
10
0.028284299
20
0.51932649
30
0
70
32
0
VERTEX
8
0
62
5
10
0.028284299
20
0.53408538
30
0
70
32
0
SEQEND
8
0
0
POLYLINE
8
0
62
5
66
1
10
0
20
0
30
0
70
8
0
VERTEX
8
0
62
5
10
0.056568571
20
0.51932649
30
0
70
32
0
VERTEX
8
0
62
5
10
0.056568571
20
0.51963436
30
0
70
32
0
SEQEND
8
0
0
POLYLINE
8
0
62
5
66
1
10
0
20
0
30
0
70
8
0
VERTEX
8
0
62
5
10
2.8240052e-08
20
0.4834716
30
0
70
32
0
VERTEX
8
0
62
5
10
2.8240052e-08
20
0.51932649
30
0
70
32
0
SEQEND
8
0
0
POLYLINE
8
0
62
5
66
1
10
0
20
0
30
0
70
8
0
VERTEX
8
0
62
5
10
0.028284299
20
0.4834716
30
0
70
32
0
VERTEX
8
0
62
5
10
0.028284299
20
0.51932649
30
0
70
32
0
SEQEND
8
0
0
POLYLINE
8
0
62
5
66
1
10
0
20
0
30
0
70
8
0
VERTEX
8
0
62
5
10
0.056568571
20
0.4834716
30
0
70
32
0
VERTEX
8
0
62
5
10
0.056568571
20
0.51932649
30
0
70
32
0
SEQEND
8
0
0
POLYLINE
8
0
62
5
66
1
10
0
20
0
30
0
70
8
0
VERTEX
8
0
62
5
10
2.8240052e-08
20
0.55518137
30
0
70
32
0
VERTEX
8
0
62
5
10
2.8240052e-08
20
0.59103626
30
0
70
32
0
SEQEND
8
0
0
POLYLINE
8
0
62
5
66
1
10
0
20
0
30
0
70
8
0
VERTEX
8
0
62
5
10
0.028284299
20
0.55518137
30
0
70
32
0
VERTEX
8
0
62
5
10
0.028284299
20
0.59103626
30
0
70
32
0
SEQEND
8
0
0
POLYLINE
8
0
62
5
66
1
10
0
20
0
30
0
70
8
0
VERTEX
8
0
62
5
10
0.056568571
20
0.55518137
30
0
70
32
0
VERTEX
8
0
62
5
10
0.056568571
20
0.59103626
30
0
70
32
0
SEQEND
8
0
0
POLYLINE
8
0
62
30
66
1
10
0
20
0
30
0
70
8
0
VERTEX
8
0
62
30
10
-0.028284243
20
0.46902059
30
0
70
32
0
VERTEX
8
0
62
30
10
-0.016415373
20
0.4834716
30
0
70
32
0
VERTEX
8
0
62
30
10
-0.028284243
20
0.49792262
30
0
70
32
0
SEQEND
8
0
0
POLYLINE
8
0
62
30
66
1
10
0
20
0
30
0
70
8
0
VERTEX
8
0
62
30
10
2.8240052e-08
20
0.4834716
30
0
70
32
0
VERTEX
8
0
62
30
10
2.8240052e-08
20
0.4834716
30
0
70
32
0
VERTEX
8
0
62
30
10
2.8240052e-08
20
0.4834716
30
0
70
32
0
SEQEND
8
0
0
POLYLINE
8
0
62
30
66
1
10
0
20
0
30
0
70
8
0
VERTEX
8
0
62
30
10
0.028284299
20
0.46237561
30
0
70
32
0
VERTEX
8
0
62
30
10
0.040338059
20
0.4834716
30
0
70
32
0
VERTEX
8
0
62
30
10
0.028284299
20
0.50456759
30
0
70
32
0
SEQEND
8
0
0
POLYLINE
8
0
62
30
66
1
10
0
20
0
30
0
70
8
0
VERTEX
8
0
62
30
10
0.056568571
20
0.44792459
30
0
70
32
0
VERTEX
8
0
62
30
10
0.07205416
20
0.4834716
30
0
70
32
0
VERTEX
8
0
62
30
10
0.056568571
20
0.51901861
30
0
70
32
0
SEQEND
8
0
0
POLYLINE
8
0
62
30
66
1
10
0
20
0
30
0
70
8
0
VERTEX
8
0
62
30
10
-0.028284243
20
0.54073036
30
0
70
32
0
VERTEX
8
0
62
30
10
-0.016415373
20
0.55518137
30
0
70
32
0
VERTEX
8
0
62
30
10
-0.028284243
20
0.56963239
30
0
70
32
0
SEQEND
8
0
0
POLYLINE
8
0
62
30
66
1
10
0
20
0
30
0
70
8
0
VERTEX
8
0
62
30
10
2.8240052e-08
20
0.55518137
30
0
70
32
0
VERTEX
8
0
62
30
10
2.8240052e-08
20
0.55518137
30
0
70
32
0
VERTEX
8
0
62
30
10
2.8240052e-08
20
0.55518137
30
0
70
32
0
SEQEND
8
0
0
POLYLINE
8
0
62
30
66
1
10
0
20
0
30
0
70
8
0
VERTEX
8
0
62
30
10
0.028284299
20
0.53408538
30
0
70
32
0
VERTEX
8
0
62
30
10
0.040338059
20
0.55518137
30
0
70
32
0
VERTEX
8
0
62
30
10
0.028284299
20
0.57627736
30
0
70
32
0
SEQEND
8
0
0
POLYLINE
8
0
62
30
66
1
10
0
20
0
30
0
70
8
0
VERTEX
8
0
62
30
10
0.056568571
20
0.51963436
30
0
70
32
0
VERTEX
8
0
62
30
10
0.07205416
20
0.55518137
30
0
70
32
0
VERTEX
8
0
62
30
10
0.056568571
20
0.59072838
30
0
70
32
0
SEQEND
8
0
0
POLYLINE
8
0
62
5
66
1
10
0
20
0
30
0
70
8
0
VERTEX
8
0
62
5
10
0.19798993
20
0.59103626
30
0
70
32
0
VERTEX
8
0
62
5
10
0.19798993
20
0.44761672
30
0
70
32
0
SEQEND
8
0
0
POLYLINE
8
0
62
5
66
1
10
0
20
0
30
0
70
8
0
VERTEX
8
0
62
5
10
0.084852842
20
0.46902059
30
0
70
32
0
VERTEX
8
0
62
5
10
0.11313711
20
0.4834716
30
0
70
32
0
VERTEX
8
0
62
5
10
0.14142138
20
0.46237561
30
0
70
32
0
VERTEX
8
0
62
5
10
0.16970566
20
0.44792459
30
0
70
32
0
VERTEX
8
0
62
5
10
0.19798993
20
0.46902059
30
0
70
32
0
SEQEND
8
0
0
POLYLINE
8
0
62
5
66
1
10
0
20
0
30
0
70
8
0
VERTEX
8
0
62
5
10
0.084852842
20
0.54073036
30
0
70
32
0
VERTEX
8
0
62
5
10
0.11313711
20
0.55518137
30
0
70
32
0
VERTEX
8
0
62
5
10
0.14142138
20
0.53408538
30
0
70
32
0
VERTEX
8
0
62
5
10
0.16970566
20
0.51963436
30
0
70
32
0
VERTEX
8
0
62
5
10
0.19798993
20
0.54073036
30
0
70
32
0
SEQEND
8
0
0
POLYLINE
8
0
62
5
66
1
10
0
20
0
30
0
70
8
0
VERTEX
8
0
62
5
10
0.084852842
20
0.49792262
30
0
70
32
0
VERTEX
8
0
62
5
10
0.11313711
20
0.4834716
30
0
70
32
0
VERTEX
8
0
62
5
10
0.14142138
20
0.50456759
30
0
70
32
0
VERTEX
8
0
62
5
10
0.16970566
20
0.51901861
30
0
70
32
0
VERTEX
8
0
62
5
10
0.19798993
20
0.49792262
30
0
70
32
0
SEQEND
8
0
0
POLYLINE
8
0
62
5
66
1
10
0
20
0
30
0
70
8
0
VERTEX
8
0
62
5
10
0.084852842
20
0.56963239
30
0
70
32
0
VERTEX
8
0
62
5
10
0.11313711
20
0.55518137
30
0
70
32
0
VERTEX
8
0
62
5
10
0.14142138
20
0.57627736
30
0
70
32
0
VERTEX
8
0
62
5
10
0.16970566
20
0.59072838
30
0
70
32
0
VERTEX
8
0
62
5
10
0.19798993
20
0.56963239
30
0
70
32
0
SEQEND
8
0
0
POLYLINE
8
0
62
30
66
1
10
0
20
0
30
0
70
8
0
VERTEX
8
0
62
30
10
0.084852842
20
0.4834716
30
0
70
32
0
VERTEX
8
0
62
30
10
0.19798993
20
0.4834716
30
0
70
32
0
SEQEND
8
0
0
POLYLINE
8
0
62
30
66
1
10
0
20
0
30
0
70
8
0
VERTEX
8
0
62
30
10
0.084852842
20
0.55518137
30
0
70
32
0
VERTEX
8
0
62
30
10
0.19798993
20
0.55518137
30
0
70
32
0
SEQEND
8
0
0
POLYLINE
8
0
62
30
66
1
10
0
20
0
30
0
70
8
0
VERTEX
8
0
62
30
10
0.11313711
20
0.4834716
30
0
70
32
0
VERTEX
8
0
62
30
10
0.11313711
20
0.4834716
30
0
70
32
0
SEQEND
8
0
0
POLYLINE
8
0
62
30
66
1
10
0
20
0
30
0
70
8
0
VERTEX
8
0
62
30
10
0.14142138
20
0.46237561
30
0
70
32
0
VERTEX
8
0
62
30
10
0.14142138
20
0.4834716
30
0
70
32
0
SEQEND
8
0
0
POLYLINE
8
0
62
30
66
1
10
0
20
0
30
0
70
8
0
VERTEX
8
0
62
30
10
0.16970566
20
0.44792459
30
0
70
32
0
VERTEX
8
0
62
30
10
0.16970566
20
0.4834716
30
0
70
32
0
SEQEND
8
0
0
POLYLINE
8
0
62
30
66
1
10
0
20
0
30
0
70
8
0
VERTEX
8
0
62
30
10
0.11313711
20
0.55518137
30
0
70
32
0
VERTEX
8
0
62
30
10
0.11313711
20
0.55518137
30
0
70
32
0
SEQEND
8
0
0
POLYLINE
8
0
62
30
66
1
10
0
20
0
30
0
70
8
0
VERTEX
8
0
62
30
10
0.14142138
20
0.53408538
30
0
70
32
0
VERTEX
8
0
62
30
10
0.14142138
20
0.55518137
30
0
70
32
0
SEQEND
8
0
0
POLYLINE
8
0
62
30
66
1
10
0
20
0
30
0
70
8
0
VERTEX
8
0
62
30
10
0.16970566
20
0.51963436
30
0
70
32
0
VERTEX
8
0
62
30
10
0.16970566
20
0.55518137
30
0
70
32
0
SEQEND
8
0
0
POLYLINE
8
0
62
5
66
1
10
0
20
0
30
0
70
8
0
VERTEX
8
0
62
5
10
0.11313711
20
0.44761672
30
0
70
32
0
VERTEX
8
0
62
5
10
0.11313711
20
0.4834716
30
0
70
32
0
SEQEND
8
0
0
POLYLINE
8
0
62
5
66
1
10
0
20
0
30
0
70
8
0
VERTEX
8
0
62
5
10
0.14142138
20
0.44761672
30
0
70
32
0
VERTEX
8
0
62
5
10
0.14142138
20
0.46237561
30
0
70
32
0
SEQEND
8
0
0
POLYLINE
8
0
62
5
66
1
10
0
20
0
30
0
70
8
0
VERTEX
8
0
62
5
10
0.16970566
20
0.44761672
30
0
70
32
0
VERTEX
8
0
62
5
10
0.16970566
20
0.44792459
30
0
70
32
0
SEQEND
8
0
0
POLYLINE
8
0
62
5
66
1
10
0
20
0
30
0
70
8
0
VERTEX
8
0
62
5
10
0.11313711
20
0.51932649
30
0
70
32
0
VERTEX
8
0
62
5
10
0.11313711
20
0.55518137
30
0
70
32
0
SEQEND
8
0
0
POLYLINE
8
0
62
5
66
1
10
0
20
0
30
0
70
8
0
VERTEX
8
0
62
5
10
0.14142138
20
0.51932649
30
0
70
32
0
VERTEX
8
0
62
5
10
0.14142138
20
0.53408538
30
0
70
32
0
SEQEND
8
0
0
POLYLINE
8
0
62
5
66
1
10
0
20
0
30
0
70
8
0
VERTEX
8
0
62
5
10
0.16970566
20
0.51932649
30
0
70
32
0
VERTEX
8
0
62
5
10
0.16970566
20
0.51963436
30
0
70
32
0
SEQEND
8
0
0
POLYLINE
8
0
62
5
66
1
10
0
20
0
30
0
70
8
0
VERTEX
8
0
62
5
10
0.11313711
20
0.4834716
30
0
70
32
0
VERTEX
8
0
62
5
10
0.11313711
20
0.51932649
30
0
70
32
0
SEQEND
8
0
0
POLYLINE
8
0
62
5
66
1
10
0
20
0
30
0
70
8
0
VERTEX
8
0
62
5
10
0.14142138
20
0.4834716
30
0
70
32
0
VERTEX
8
0
62
5
10
0.14142138
20
0.51932649
30
0
70
32
0
SEQEND
8
0
0
POLYLINE
8
0
62
5
66
1
10
0
20
0
30
0
70
8
0
VERTEX
8
0
62
5
10
0.16970566
20
0.4834716
30
0
70
32
0
VERTEX
8
0
62
5
10
0.16970566
20
0.51932649
30
0
70
32
0
SEQEND
8
0
0
POLYLINE
8
0
62
5
66
1
10
0
20
0
30
0
70
8
0
VERTEX
8
0
62
5
10
0.11313711
20
0.55518137
30
0
70
32
0
VERTEX
8
0
62
5
10
0.11313711
20
0.59103626
30
0
70
32
0
SEQEND
8
0
0
POLYLINE
8
0
62
5
66
1
10
0
20
0
30
0
70
8
0
VERTEX
8
0
62
5
10
0.14142138
20
0.55518137
30
0
70
32
0
VERTEX
8
0
62
5
10
0.14142138
20
0.59103626
30
0
70
32
0
SEQEND
8
0
0
POLYLINE
8
0
62
5
66
1
10
0
20
0
30
0
70
8
0
VERTEX
8
0
62
5
10
0.16970566
20
0.55518137
30
0
70
32
0
VERTEX
8
0
62
5
10
0.16970566
20
0.59103626
30
0
70
32
0
SEQEND
8
0
0
POLYLINE
8
0
62
30
66
1
10
0
20
0
30
0
70
8
0
VERTEX
8
0
62
30
10
0.084852842
20
0.46902059
30
0
70
32
0
VERTEX
8
0
62
30
10
0.096721712
20
0.4834716
30
0
70
32
0
VERTEX
8
0
62
30
10
0.084852842
20
0.49792262
30
0
70
32
0
SEQEND
8
0
0
POLYLINE
8
0
62
30
66
1
10
0
20
0
30
0
70
8
0
VERTEX
8
0
62
30
10
0.11313711
20
0.4834716
30
0
70
32
0
VERTEX
8
0
62
30
10
0.11313711
20
0.4834716
30
0
70
32
0
VERTEX
8
0
62
30
10
0.11313711
20
0.4834716
30
0
70
32
0
SEQEND
8
0
0
POLYLINE
8
0
62
30
66
1
10
0
20
0
30
0
70
8
0
VERTEX
8
0
62
30
10
0.14142138
20
0.46237561
30
0
70
32
0
VERTEX
8
0
62
30
10
0.15347514
20
0.4834716
30
0
70
32
0
VERTEX
8
0
62
30
10
0.14142138
20
0.50456759
30
0
70
32
0
SEQEND
8
0
0
POLYLINE
8
0
62
30
66
1
10
0
20
0
30
0
70
8
0
VERTEX
8
0
62
30
10
0.16970566
20
0.44792459
30
0
70
32
0
VERTEX
8
0
62
30
10
0.18519125
20
0.4834716
30
0
70
32
0
VERTEX
8
0
62
30
10
0.16970566
20
0.51901861
30
0
70
32
0
SEQEND
8
0
0
POLYLINE
8
0
62
30
66
1
10
0
20
0
30
0
70
8
0
VERTEX
8
0
62
30
10
0.084852842
20
0.54073036
30
0
70
32
0
VERTEX
8
0
62
30
10
0.096721712
20
0.55518137
30
0
70
32
0
VERTEX
8
0
62
30
10
0.084852842
20
0.56963239
30
0
70
32
0
SEQEND
8
0
0
POLYLINE
8
0
62
30
66
1
10
0
20
0
30
0
70
8
0
VERTEX
8
0
62
30
10
0.11313711
20
0.55518137
30
0
70
32
0
VERTEX
8
0
62
30
10
0.11313711
20
0.55518137
30
0
70
32
0
VERTEX
8
0
62
30
10
0.11313711
20
0.55518137
30
0
70
32
0
SEQEND
8
0
0
POLYLINE
8
0
62
30
66
1
10
0
20
0
30
0
70
8
0
VERTEX
8
0
62
30
10
0.14142138
20
0.53408538
30
0
70
32
0
VERTEX
8
0
62
30
10
0.15347514
20
0.55518137
30
0
70
32
0
VERTEX
8
0
62
30
10
0.14142138
20
0.57627736
30
0
70
32
0
SEQEND
8
0
0
POLYLINE
8
0
62
30
66
1
10
0
20
0
30
0
70
8
0
VERTEX
8
0
62
30
10
0.16970566
20
0.51963436
30
0
70
32
0
VERTEX
8
0
62
30
10
0.18519125
20
0.55518137
30
0
70
32
0
VERTEX
8
0
62
30
10
0.16970566
20
0.59072838
30
0
70
32
0
SEQEND
8
0
0
POLYLINE
8
0
62
5
66
1
10
0
20
0
30
0
70
8
0
VERTEX
8
0
62
5
10
-0.14142133
20
0.44761672
30
0
70
32
0
VERTEX
8
0
62
5
10
-0.14142133
20
0.59103626
30
0
70
32
0
SEQEND
8
0
0
POLYLINE
8
0
62
5
66
1
10
0
20
0
30
0
70
8
0
VERTEX
8
0
62
5
10
-0.14142133
20
0.46902059
30
0
70
32
0
VERTEX
8
0
62
5
10
-0.11313706
20
0.4834716
30
0
70
32
0
VERTEX
8
0
62
5
10
-0.084852786
20
0.46237561
30
0
70
32
0
VERTEX
8
0
62
5
10
-0.056568514
20
0.44792459
30
0
70
32
0
VERTEX
8
0
62
5
10
-0.028284243
20
0.46902059
30
0
70
32
0
SEQEND
8
0
0
POLYLINE
8
0
62
5
66
1
10
0
20
0
30
0
70
8
0
VERTEX
8
0
62
5
10
-0.14142133
20
0.54073036
30
0
70
32
0
VERTEX
8
0
62
5
10
-0.11313706
20
0.55518137
30
0
70
32
0
VERTEX
8
0
62
5
10
-0.084852786
20
0.53408538
30
0
70
32
0
VERTEX
8
0
62
5
10
-0.056568514
20
0.51963436
30
0
70
32
0
VERTEX
8
0
62
5
10
-0.028284243
20
0.54073036
30
0
70
32
0
SEQEND
8
0
0
POLYLINE
8
0
62
5
66
1
10
0
20
0
30
0
70
8
0
VERTEX
8
0
62
5
10
-0.14142133
20
0.49792262
30
0
70
32
0
VERTEX
8
0
62
5
10
-0.11313706
20
0.4834716
30
0
70
32
0
VERTEX
8
0
62
5
10
-0.084852786
20
0.50456759
30
0
70
32
0
VERTEX
8
0
62
5
10
-0.056568514
20
0.51901861
30
0
70
32
0
VERTEX
8
0
62
5
10
-0.028284243
20
0.49792262
30
0
70
32
0
SEQEND
8
0
0
POLYLINE
8
0
62
5
66
1
10
0
20
0
30
0
70
8
0
VERTEX
8
0
62
5
10
-0.14142133
20
0.56963239
30
0
70
32
0
VERTEX
8
0
62
5
10
-0.11313706
20
0.55518137
30
0
70
32
0
VERTEX
8
0
62
5
10
-0.084852786
20
0.57627736
30
0
70
32
0
VERTEX
8
0
62
5
10
-0.056568514
20
0.59072838
30
0
70
32
0
VERTEX
8
0
62
5
10
-0.028284243
20
0.56963239
30
0
70
32
0
SEQEND
8
0
0
POLYLINE
8
0
62
30
66
1
10
0
20
0
30
0
70
8
0
VERTEX
8
0
62
30
10
-0.14142133
20
0.4834716
30
0
70
32
0
VERTEX
8
0
62
30
10
-0.028284243
20
0.4834716
30
0
70
32
0
SEQEND
8
0
0
POLYLINE
8
0
62
30
66
1
10
0
20
0
30
0
70
8
0
VERTEX
8
0
62
30
10
-0.14142133
20
0.55518137
30
0
70
32
0
VERTEX
8
0
62
30
10
-0.028284243
20
0.55518137
30
0
70
32
0
SEQEND
8
0
0
POLYLINE
8
0
62
30
66
1
10
0
20
0
30
0
70
8
0
VERTEX
8
0
62
30
10
-0.11313706
20
0.4834716
30
0
70
32
0
VERTEX
8
0
62
30
10
-0.11313706
20
0.4834716
30
0
70
32
0
SEQEND
8
0
0
POLYLINE
8
0
62
30
66
1
10
0
20
0
30
0
70
8
0
VERTEX
8
0
62
30
10
-0.084852786
20
0.46237561
30
0
70
32
0
VERTEX
8
0
62
30
10
-0.084852786
20
0.4834716
30
0
70
32
0
SEQEND
8
0
0
POLYLINE
8
0
62
30
66
1
10
0
20
0
30
0
70
8
0
VERTEX
8
0
62
30
10
-0.056568514
20
0.44792459
30
0
70
32
0
VERTEX
8
0
62
30
10
-0.056568514
20
0.4834716
30
0
70
32
0
SEQEND
8
0
0
POLYLINE
8
0
62
30
66
1
10
0
20
0
30
0
70
8
0
VERTEX
8
0
62
30
10
-0.11313706
20
0.55518137
30
0
70
32
0
VERTEX
8
0
62
30
10
-0.11313706
20
0.55518137
30
0
70
32
0
SEQEND
8
0
0
POLYLINE
8
0
62
30
66
1
10
0
20
0
30
0
70
8
0
VERTEX
8
0
62
30
10
-0.084852786
20
0.53408538
30
0
70
32
0
VERTEX
8
0
62
30
10
-0.084852786
20
0.55518137
30
0
70
32
0
SEQEND
8
0
0
POLYLINE
8
0
62
30
66
1
10
0
20
0
30
0
70
8
0
VERTEX
8
0
62
30
10
-0.056568514
20
0.51963436
30
0
70
32
0
VERTEX
8
0
62
30
10
-0.056568514
20
0.55518137
30
0
70
32
0
SEQEND
8
0
0
POLYLINE
8
0
62
5
66
1
10
0
20
0
30
0
70
8
0
VERTEX
8
0
62
5
10
-0.11313706
20
0.44761672
30
0
70
32
0
VERTEX
8
0
62
5
10
-0.11313706
20
0.4834716
30
0
70
32
0
SEQEND
8
0
0
POLYLINE
8
0
62
5
66
1
10
0
20
0
30
0
70
8
0
VERTEX
8
0
62
5
10
-0.084852786
20
0.44761672
30
0
70
32
0
VERTEX
8
0
62
5
10
-0.084852786
20
0.46237561
30
0
70
32
0
SEQEND
8
0
0
POLYLINE
8
0
62
5
66
1
10
0
20
0
30
0
70
8
0
VERTEX
8
0
62
5
10
-0.056568514
20
0.44761672
30
0
70
32
0
VERTEX
8
0
62
5
10
-0.056568514
20
0.44792459
30
0
70
32
0
SEQEND
8
0
0
POLYLINE
8
0
62
5
66
1
10
0
20
0
30
0
70
8
0
VERTEX
8
0
62
5
10
-0.11313706
20
0.51932649
30
0
70
32
0
VERTEX
8
0
62
5
10
-0.11313706
20
0.55518137
30
0
70
32
0
SEQEND
8
0
0
POLYLINE
8
0
62
5
66
1
10
0
20
0
30
0
70
8
0
VERTEX
8
0
62
5
10
-0.084852786
20
0.51932649
30
0
70
32
0
VERTEX
8
0
62
5
10
-0.084852786
20
0.53408538
30
0
70
32
0
SEQEND
8
0
0
POLYLINE
8
0
62
5
66
1
10
0
20
0
30
0
70
8
0
VERTEX
8
0
62
5
10
-0.056568514
20
0.51932649
30
0
70
32
0
VERTEX
8
0
62
5
10
-0.056568514
20
0.51963436
30
0
70
32
0
SEQEND
8
0
0
POLYLINE
8
0
62
5
66
1
10
0
20
0
30
0
70
8
0
VERTEX
8
0
62
5
10
-0.11313706
20
0.4834716
30
0
70
32
0
VERTEX
8
0
62
5
10
-0.11313706
20
0.51932649
30
0
70
32
0
SEQEND
8
0
0
POLYLINE
8
0
62
5
66
1
10
0
20
0
30
0
70
8
0
VERTEX
8
0
62
5
10
-0.084852786
20
0.4834716
30
0
70
32
0
VERTEX
8
0
62
5
10
-0.084852786
20
0.51932649
30
0
70
32
0
SEQEND
8
0
0
POLYLINE
8
0
62
5
66
1
10
0
20
0
30
0
70
8
0
VERTEX
8
0
62
5
10
-0.056568514
20
0.4834716
30
0
70
32
0
VERTEX
8
0
62
5
10
-0.056568514
20
0.51932649
30
0
70
32
0
SEQEND
8
0
0
POLYLINE
8
0
62
5
66
1
10
0
20
0
30
0
70
8
0
VERTEX
8
0
62
5
10
-0.11313706
20
0.55518137
30
0
70
32
0
VERTEX
8
0
62
5
10
-0.11313706
20
0.59103626
30
0
70
32
0
SEQEND
8
0
0
POLYLINE
8
0
62
5
66
1
10
0
20
0
30
0
70
8
0
VERTEX
8
0
62
5
10
-0.084852786
20
0.55518137
30
0
70
32
0
VERTEX
8
0
62
5
10
-0.084852786
20
0.59103626
30
0
70
32
0
SEQEND
8
0
0
POLYLINE
8
0
62
5
66
1
10
0
20
0
30
0
70
8
0
VERTEX
8
0
62
5
10
-0.056568514
20
0.55518137
30
0
70
32
0
VERTEX
8
0
62
5
10
-0.056568514
20
0.59103626
30
0
70
32
0
SEQEND
8
0
0
POLYLINE
8
0
62
30
66
1
10
0
20
0
30
0
70
8
0
VERTEX
8
0
62
30
10
-0.14142133
20
0.46902059
30
0
70
32
0
VERTEX
8
0
62
30
10
-0.12955246
20
0.4834716
30
0
70
32
0
VERTEX
8
0
62
30
10
-0.14142133
20
0.49792262
30
0
70
32
0
SEQEND
8
0
0
POLYLINE
8
0
62
30
66
1
10
0
20
0
30
0
70
8
0
VERTEX
8
0
62
30
10
-0.11313706
20
0.4834716
30
0
70
32
0
VERTEX
8
0
62
30
10
-0.11313706
20
0.4834716
30
0
70
32
0
VERTEX
8
0
62
30
10
-0.11313706
20
0.4834716
30
0
70
32
0
SEQEND
8
0
0
POLYLINE
8
0
62
30
66
1
10
0
20
0
30
0
70
8
0
VERTEX
8
0
62
30
10
-0.084852786
20
0.46237561
30
0
70
32
0
VERTEX
8
0
62
30
10
-0.072799026
20
0.4834716
30
0
70
32
0
VERTEX
8
0
62
30
10
-0.084852786
20
0.50456759
30
0
70
32
0
SEQEND
8
0
0
POLYLINE
8
0
62
30
66
1
10
0
20
0
30
0
70
8
0
VERTEX
8
0
62
30
10
-0.056568514
20
0.44792459
30
0
70
32
0
VERTEX
8
0
62
30
10
-0.041082925
20
0.4834716
30
0
70
32
0
VERTEX
8
0
62
30
10
-0.056568514
20
0.51901861
30
0
70
32
0
SEQEND
8
0
0
POLYLINE
8
0
62
30
66
1
10
0
20
0
30
0
70
8
0
VERTEX
8
0
62
30
10
-0.14142133
20
0.54073036
30
0
70
32
0
VERTEX
8
0
62
30
10
-0.12955246
20
0.55518137
30
0
70
32
0
VERTEX
8
0
62
30
10
-0.14142133
20
0.56963239
30
0
70
32
0
SEQEND
8
0
0
POLYLINE
8
0
62
30
66
1
10
0
20
0
30
0
70
8
0
VERTEX
8
0
62
30
10
-0.11313706
20
0.55518137
30
0
70
32
0
VERTEX
8
0
62
30
10
-0.11313706
20
0.55518137
30
0
70
32
0
VERTEX
8
0
62
30
10
-0.11313706
20
0.55518137
30
0
70
32
0
SEQEND
8
0
0
POLYLINE
8
0
62
30
66
1
10
0
20
0
30
0
70
8
0
VERTEX
8
0
62
30
10
-0.084852786
20
0.53408538
30
0
70
32
0
VERTEX
8
0
62
30
10
-0.072799026
20
0.55518137
30
0
70
32
0
VERTEX
8
0
62
30
10
-0.084852786
20
0.57627736
30
0
70
32
0
SEQEND
8
0
0
POLYLINE
8
0
62
30
66
1
10
0
20
0
30
0
70
8
0
VERTEX
8
0
62
30
10
-0.056568514
20
0.51963436
30
0
70
32
0
VERTEX
8
0
62
30
10
-0.041082925
20
0.55518137
30
0
70
32
0
VERTEX
8
0
62
30
10
-0.056568514
20
0.59072838
30
0
70
32
0
SEQEND
8
0
0
POLYLINE
8
0
62
30
66
1
10
0
20
0
30
0
70
8
0
VERTEX
8
0
62
30
10
-0.028284243
20
0.6304476
30
0
70
32
0
VERTEX
8
0
62
30
10
0.084852842
20
0.6304476
30
0
70
32
0
SEQEND
8
0
0
POLYLINE
8
0
62
30
66
1
10
0
20
0
30
0
70
8
0
VERTEX
8
0
62
30
10
-0.028284243
20
0.59103626
30
0
70
32
0
VERTEX
8
0
62
30
10
0.084852842
20
0.59103626
30
0
70
32
0
SEQEND
8
0
0
POLYLINE
8
0
62
5
66
1
10
0
20
0
30
0
70
8
0
VERTEX
8
0
62
5
10
-0.028284243
20
0.59103626
30
0
70
32
0
VERTEX
8
0
62
5
10
-0.006063777
20
0.6304476
30
0
70
32
0
VERTEX
8
0
62
5
10
2.8240052e-08
20
0.59103626
30
0
70
32
0
VERTEX
8
0
62
5
10
0.022220494
20
0.6304476
30
0
70
32
0
VERTEX
8
0
62
5
10
0.028284299
20
0.59103626
30
0
70
32
0
VERTEX
8
0
62
5
10
0.050504765
20
0.6304476
30
0
70
32
0
VERTEX
8
0
62
5
10
0.056568571
20
0.59103626
30
0
70
32
0
VERTEX
8
0
62
5
10
0.078789037
20
0.6304476
30
0
70
32
0
VERTEX
8
0
62
5
10
0.084852842
20
0.59103626
30
0
70
32
0
SEQEND
8
0
0
POLYLINE
8
0
62
5
66
1
10
0
20
0
30
0
70
8
0
VERTEX
8
0
62
5
10
2.8240052e-08
20
0.59103626
30
0
70
32
0
VERTEX
8
0
62
5
10
2.8240052e-08
20
0.59103626
30
0
70
32
0
SEQEND
8
0
0
POLYLINE
8
0
62
5
66
1
10
0
20
0
30
0
70
8
0
VERTEX
8
0
62
5
10
0.028284299
20
0.59103626
30
0
70
32
0
VERTEX
8
0
62
5
10
0.028284299
20
0.59103626
30
0
70
32
0
SEQEND
8
0
0
POLYLINE
8
0
62
5
66
1
10
0
20
0
30
0
70
8
0
VERTEX
8
0
62
5
10
0.056568571
20
0.59103626
30
0
70
32
0
VERTEX
8
0
62
5
10
0.056568571
20
0.59103626
30
0
70
32
0
SEQEND
8
0
0
POLYLINE
8
0
62
5
66
1
10
0
20
0
30
0
70
8
0
VERTEX
8
0
62
5
10
-0.006063777
20
0.6304476
30
0
70
32
0
VERTEX
8
0
62
5
10
-0.006063777
20
0.6304476
30
0
70
32
0
SEQEND
8
0
0
POLYLINE
8
0
62
5
66
1
10
0
20
0
30
0
70
8
0
VERTEX
8
0
62
5
10
0.022220494
20
0.6304476
30
0
70
32
0
VERTEX
8
0
62
5
10
0.022220494
20
0.6304476
30
0
70
32
0
SEQEND
8
0
0
POLYLINE
8
0
62
5
66
1
10
0
20
0
30
0
70
8
0
VERTEX
8
0
62
5
10
0.050504765
20
0.6304476
30
0
70
32
0
VERTEX
8
0
62
5
10
0.050504765
20
0.6304476
30
0
70
32
0
SEQEND
8
0
0
POLYLINE
8
0
62
5
66
1
10
0
20
0
30
0
70
8
0
VERTEX
8
0
62
5
10
0.078789037
20
0.6304476
30
0
70
32
0
VERTEX
8
0
62
5
10
0.078789037
20
0.6304476
30
0
70
32
0
SEQEND
8
0
0
POLYLINE
8
0
62
30
66
1
10
0
20
0
30
0
70
8
0
VERTEX
8
0
62
30
10
0.084852842
20
0.6304476
30
0
70
32
0
VERTEX
8
0
62
30
10
0.19798993
20
0.6304476
30
0
70
32
0
SEQEND
8
0
0
POLYLINE
8
0
62
30
66
1
10
0
20
0
30
0
70
8
0
VERTEX
8
0
62
30
10
0.084852842
20
0.59103626
30
0
70
32
0
VERTEX
8
0
62
30
10
0.19798993
20
0.59103626
30
0
70
32
0
SEQEND
8
0
0
POLYLINE
8
0
62
5
66
1
10
0
20
0
30
0
70
8
0
VERTEX
8
0
62
5
10
0.084852842
20
0.59103626
30
0
70
32
0
VERTEX
8
0
62
5
10
0.10707331
20
0.6304476
30
0
70
32
0
VERTEX
8
0
62
5
10
0.11313711
20
0.59103626
30
0
70
32
0
VERTEX
8
0
62
5
10
0.13535758
20
0.6304476
30
0
70
32
0
VERTEX
8
0
62
5
10
0.14142138
20
0.59103626
30
0
70
32
0
VERTEX
8
0
62
5
10
0.16364185
20
0.6304476
30
0
70
32
0
VERTEX
8
0
62
5
10
0.16970566
20
0.59103626
30
0
70
32
0
VERTEX
8
0
62
5
10
0.19192612
20
0.6304476
30
0
70
32
0
VERTEX
8
0
62
5
10
0.19798993
20
0.59103626
30
0
70
32
0
SEQEND
8
0
0
POLYLINE
8
0
62
5
66
1
10
0
20
0
30
0
70
8
0
VERTEX
8
0
62
5
10
0.11313711
20
0.59103626
30
0
70
32
0
VERTEX
8
0
62
5
10
0.11313711
20
0.59103626
30
0
70
32
0
SEQEND
8
0
0
POLYLINE
8
0
62
5
66
1
10
0
20
0
30
0
70
8
0
VERTEX
8
0
62
5
10
0.14142138
20
0.59103626
30
0
70
32
0
VERTEX
8
0
62
5
10
0.14142138
20
0.59103626
30
0
70
32
0
SEQEND
8
0
0
POLYLINE
8
0
62
5
66
1
10
0
20
0
30
0
70
8
0
VERTEX
8
0
62
5
10
0.16970566
20
0.59103626
30
0
70
32
0
VERTEX
8
0
62
5
10
0.16970566
20
0.59103626
30
0
70
32
0
SEQEND
8
0
0
POLYLINE
8
0
62
5
66
1
10
0
20
0
30
0
70
8
0
VERTEX
8
0
62
5
10
0.10707331
20
0.6304476
30
0
70
32
0
VERTEX
8
0
62
5
10
0.10707331
20
0.6304476
30
0
70
32
0
SEQEND
8
0
0
POLYLINE
8
0
62
5
66
1
10
0
20
0
30
0
70
8
0
VERTEX
8
0
62
5
10
0.13535758
20
0.6304476
30
0
70
32
0
VERTEX
8
0
62
5
10
0.13535758
20
0.6304476
30
0
70
32
0
SEQEND
8
0
0
POLYLINE
8
0
62
5
66
1
10
0
20
0
30
0
70
8
0
VERTEX
8
0
62
5
10
0.16364185
20
0.6304476
30
0
70
32
0
VERTEX
8
0
62
5
10
0.16364185
20
0.6304476
30
0
70
32
0
SEQEND
8
0
0
POLYLINE
8
0
62
5
66
1
10
0
20
0
30
0
70
8
0
VERTEX
8
0
62
5
10
0.19192612
20
0.6304476
30
0
70
32
0
VERTEX
8
0
62
5
10
0.19192612
20
0.6304476
30
0
70
32
0
SEQEND
8
0
0
POLYLINE
8
0
62
30
66
1
10
0
20
0
30
0
70
8
0
VERTEX
8
0
62
30
10
-0.14142133
20
0.6304476
30
0
70
32
0
VERTEX
8
0
62
30
10
-0.028284243
20
0.6304476
30
0
70
32
0
SEQEND
8
0
0
POLYLINE
8
0
62
30
66
1
10
0
20
0
30
0
70
8
0
VERTEX
8
0
62
30
10
-0.14142133
20
0.59103626
30
0
70
32
0
VERTEX
8
0
62
30
10
-0.028284243
20
0.59103626
30
0
70
32
0
SEQEND
8
0
0
POLYLINE
8
0
62
5
66
1
10
0
20
0
30
0
70
8
0
VERTEX
8
0
62
5
10
-0.14142133
20
0.59103626
30
0
70
32
0
VERTEX
8
0
62
5
10
-0.11920086
20
0.6304476
30
0
70
32
0
VERTEX
8
0
62
5
10
-0.11313706
20
0.59103626
30
0
70
32
0
VERTEX
8
0
62
5
10
-0.090916591
20
0.6304476
30
0
70
32
0
VERTEX
8
0
62
5
10
-0.084852786
20
0.59103626
30
0
70
32
0
VERTEX
8
0
62
5
10
-0.06263232
20
0.6304476
30
0
70
32
0
VERTEX
8
0
62
5
10
-0.056568514
20
0.59103626
30
0
70
32
0
VERTEX
8
0
62
5
10
-0.034348048
20
0.6304476
30
0
70
32
0
VERTEX
8
0
62
5
10
-0.028284243
20
0.59103626
30
0
70
32
0
SEQEND
8
0
0
POLYLINE
8
0
62
5
66
1
10
0
20
0
30
0
70
8
0
VERTEX
8
0
62
5
10
-0.11313706
20
0.59103626
30
0
70
32
0
VERTEX
8
0
62
5
10
-0.11313706
20
0.59103626
30
0
70
32
0
SEQEND
8
0
0
POLYLINE
8
0
62
5
66
1
10
0
20
0
30
0
70
8
0
VERTEX
8
0
62
5
10
-0.084852786
20
0.59103626
30
0
70
32
0
VERTEX
8
0
62
5
10
-0.084852786
20
0.59103626
30
0
70
32
0
SEQEND
8
0
0
POLYLINE
8
0
62
5
66
1
10
0
20
0
30
0
70
8
0
VERTEX
8
0
62
5
10
-0.056568514
20
0.59103626
30
0
70
32
0
VERTEX
8
0
62
5
10
-0.056568514
20
0.59103626
30
0
70
32
0
SEQEND
8
0
0
POLYLINE
8
0
62
5
66
1
10
0
20
0
30
0
70
8
0
VERTEX
8
0
62
5
10
-0.11920086
20
0.6304476
30
0
70
32
0
VERTEX
8
0
62
5
10
-0.11920086
20
0.6304476
30
0
70
32
0
SEQEND
8
0
0
POLYLINE
8
0
62
5
66
1
10
0
20
0
30
0
70
8
0
VERTEX
8
0
62
5
10
-0.090916591
20
0.6304476
30
0
70
32
0
VERTEX
8
0
62
5
10
-0.090916591
20
0.6304476
30
0
70
32
0
SEQEND
8
0
0
POLYLINE
8
0
62
5
66
1
10
0
20
0
30
0
70
8
0
VERTEX
8
0
62
5
10
-0.06263232
20
0.6304476
30
0
70
32
0
VERTEX
8
0
62
5
10
-0.06263232
20
0.6304476
30
0
70
32
0
SEQEND
8
0
0
POLYLINE
8
0
62
5
66
1
10
0
20
0
30
0
70
8
0
VERTEX
8
0
62
5
10
-0.034348048
20
0.6304476
30
0
70
32
0
VERTEX
8
0
62
5
10
-0.034348048
20
0.6304476
30
0
70
32
0
SEQEND
8
0
0
POLYLINE
8
0
62
5
66
1
10
0
20
0
30
0
70
8
0
VERTEX
8
0
62
5
10
-0.006063777
20
0.6304476
30
0
70
32
0
VERTEX
8
0
62
5
10
-0.006063777
20
0.78721494
30
0
70
32
0
SEQEND
8
0
0
POLYLINE
8
0
62
5
66
1
10
0
20
0
30
0
70
8
0
VERTEX
8
0
62
5
10
0.10707331
20
0.6304476
30
0
70
32
0
VERTEX
8
0
62
5
10
0.10707331
20
0.78721494
30
0
70
32
0
SEQEND
8
0
0
POLYLINE
8
0
62
5
66
1
10
0
20
0
30
0
70
8
0
VERTEX
8
0
62
5
10
0.022220494
20
0.6304476
30
0
70
32
0
VERTEX
8
0
62
5
10
0.022220494
20
0.78721494
30
0
70
32
0
SEQEND
8
0
0
POLYLINE
8
0
62
5
66
1
10
0
20
0
30
0
70
8
0
VERTEX
8
0
62
5
10
0.050504765
20
0.6304476
30
0
70
32
0
VERTEX
8
0
62
5
10
0.050504765
20
0.78721494
30
0
70
32
0
SEQEND
8
0
0
POLYLINE
8
0
62
5
66
1
10
0
20
0
30
0
70
8
0
VERTEX
8
0
62
5
10
0.078789037
20
0.6304476
30
0
70
32
0
VERTEX
8
0
62
5
10
0.078789037
20
0.78721494
30
0
70
32
0
SEQEND
8
0
0
POLYLINE
8
0
62
5
66
1
10
0
20
0
30
0
70
8
0
VERTEX
8
0
62
5
10
0.22021039
20
0.6304476
30
0
70
32
0
VERTEX
8
0
62
5
10
0.22021039
20
0.78721494
30
0
70
32
0
SEQEND
8
0
0
POLYLINE
8
0
62
5
66
1
10
0
20
0
30
0
70
8
0
VERTEX
8
0
62
5
10
0.13535758
20
0.6304476
30
0
70
32
0
VERTEX
8
0
62
5
10
0.13535758
20
0.78721494
30
0
70
32
0
SEQEND
8
0
0
POLYLINE
8
0
62
5
66
1
10
0
20
0
30
0
70
8
0
VERTEX
8
0
62
5
10
0.16364185
20
0.6304476
30
0
70
32
0
VERTEX
8
0
62
5
10
0.16364185
20
0.78721494
30
0
70
32
0
SEQEND
8
0
0
POLYLINE
8
0
62
5
66
1
10
0
20
0
30
0
70
8
0
VERTEX
8
0
62
5
10
0.19192612
20
0.6304476
30
0
70
32
0
VERTEX
8
0
62
5
10
0.19192612
20
0.78721494
30
0
70
32
0
SEQEND
8
0
0
POLYLINE
8
0
62
5
66
1
10
0
20
0
30
0
70
8
0
VERTEX
8
0
62
5
10
-0.11920086
20
0.6304476
30
0
70
32
0
VERTEX
8
0
62
5
10
-0.11920086
20
0.78721494
30
0
70
32
0
SEQEND
8
0
0
POLYLINE
8
0
62
5
66
1
10
0
20
0
30
0
70
8
0
VERTEX
8
0
62
5
10
-0.090916591
20
0.6304476
30
0
70
32
0
VERTEX
8
0
62
5
10
-0.090916591
20
0.78721494
30
0
70
32
0
SEQEND
8
0
0
POLYLINE
8
0
62
5
66
1
10
0
20
0
30
0
70
8
0
VERTEX
8
0
62
5
10
-0.06263232
20
0.6304476
30
0
70
32
0
VERTEX
8
0
62
5
10
-0.06263232
20
0.78721494
30
0
70
32
0
SEQEND
8
0
0
POLYLINE
8
0
62
5
66
1
10
0
20
0
30
0
70
8
0
VERTEX
8
0
62
5
10
-0.034348048
20
0.6304476
30
0
70
32
0
VERTEX
8
0
62
5
10
-0.034348048
20
0.78721494
30
0
70
32
0
SEQEND
8
0
0
POLYLINE
8
0
62
5
66
1
10
0
20
0
30
0
70
8
0
VERTEX
8
0
62
5
10
-0.006063777
20
0.78721494
30
0
70
32
0
VERTEX
8
0
62
5
10
-0.006063777
20
0.79522778
30
0
70
32
0
SEQEND
8
0
0
POLYLINE
8
0
62
5
66
1
10
0
20
0
30
0
70
8
0
VERTEX
8
0
62
5
10
0.10707331
20
0.79522778
30
0
70
32
0
VERTEX
8
0
62
5
10
0.10707331
20
0.78721494
30
0
70
32
0
SEQEND
8
0
0
POLYLINE
8
0
62
5
66
1
10
0
20
0
30
0
70
8
0
VERTEX
8
0
62
5
10
-0.006063777
20
0.79122136
30
0
70
32
0
VERTEX
8
0
62
5
10
0.022220494
20
0.78960661
30
0
70
32
0
VERTEX
8
0
62
5
10
0.050504765
20
0.78724935
30
0
70
32
0
VERTEX
8
0
62
5
10
0.078789037
20
0.7888641
30
0
70
32
0
VERTEX
8
0
62
5
10
0.10707331
20
0.79122136
30
0
70
32
0
SEQEND
8
0
0
POLYLINE
8
0
62
5
66
1
10
0
20
0
30
0
70
8
0
SEQEND
8
0
0
POLYLINE
8
0
62
5
66
1
10
0
20
0
30
0
70
8
0
VERTEX
8
0
62
5
10
-0.006063777
20
0.79122136
30
0
70
32
0
VERTEX
8
0
62
5
10
0.022220494
20
0.79283612
30
0
70
32
0
VERTEX
8
0
62
5
10
0.050504765
20
0.79519338
30
0
70
32
0
VERTEX
8
0
62
5
10
0.078789037
20
0.79357863
30
0
70
32
0
VERTEX
8
0
62
5
10
0.10707331
20
0.79122136
30
0
70
32
0
SEQEND
8
0
0
POLYLINE
8
0
62
30
66
1
10
0
20
0
30
0
70
8
0
VERTEX
8
0
62
30
10
-0.006063777
20
0.79122136
30
0
70
32
0
VERTEX
8
0
62
30
10
0.10707331
20
0.79122136
30
0
70
32
0
SEQEND
8
0
0
POLYLINE
8
0
62
30
66
1
10
0
20
0
30
0
70
8
0
VERTEX
8
0
62
30
10
0.022220494
20
0.78960661
30
0
70
32
0
VERTEX
8
0
62
30
10
0.022220494
20
0.79122136
30
0
70
32
0
SEQEND
8
0
0
POLYLINE
8
0
62
30
66
1
10
0
20
0
30
0
70
8
0
VERTEX
8
0
62
30
10
0.050504765
20
0.78724935
30
0
70
32
0
VERTEX
8
0
62
30
10
0.050504765
20
0.79122136
30
0
70
32
0
SEQEND
8
0
0
POLYLINE
8
0
62
30
66
1
10
0
20
0
30
0
70
8
0
VERTEX
8
0
62
30
10
0.078789037
20
0.7888641
30
0
70
32
0
VERTEX
8
0
62
30
10
0.078789037
20
0.79122136
30
0
70
32
0
SEQEND
8
0
0
POLYLINE
8
0
62
5
66
1
10
0
20
0
30
0
70
8
0
VERTEX
8
0
62
5
10
0.022220494
20
0.78721494
30
0
70
32
0
VERTEX
8
0
62
5
10
0.022220494
20
0.78960661
30
0
70
32
0
SEQEND
8
0
0
POLYLINE
8
0
62
5
66
1
10
0
20
0
30
0
70
8
0
VERTEX
8
0
62
5
10
0.050504765
20
0.78721494
30
0
70
32
0
VERTEX
8
0
62
5
10
0.050504765
20
0.78724935
30
0
70
32
0
SEQEND
8
0
0
POLYLINE
8
0
62
5
66
1
10
0
20
0
30
0
70
8
0
VERTEX
8
0
62
5
10
0.078789037
20
0.78721494
30
0
70
32
0
VERTEX
8
0
62
5
10
0.078789037
20
0.7888641
30
0
70
32
0
SEQEND
8
0
0
POLYLINE
8
0
62
5
66
1
10
0
20
0
30
0
70
8
0
VERTEX
8
0
62
5
10
0.022220494
20
0.79122136
30
0
70
32
0
VERTEX
8
0
62
5
10
0.022220494
20
0.79522778
30
0
70
32
0
SEQEND
8
0
0
POLYLINE
8
0
62
5
66
1
10
0
20
0
30
0
70
8
0
VERTEX
8
0
62
5
10
0.050504765
20
0.79122136
30
0
70
32
0
VERTEX
8
0
62
5
10
0.050504765
20
0.79522778
30
0
70
32
0
SEQEND
8
0
0
POLYLINE
8
0
62
5
66
1
10
0
20
0
30
0
70
8
0
VERTEX
8
0
62
5
10
0.078789037
20
0.79122136
30
0
70
32
0
VERTEX
8
0
62
5
10
0.078789037
20
0.79522778
30
0
70
32
0
SEQEND
8
0
0
POLYLINE
8
0
62
30
66
1
10
0
20
0
30
0
70
8
0
VERTEX
8
0
62
30
10
-0.006063777
20
0.79122136
30
0
70
32
0
VERTEX
8
0
62
30
10
-0.006063777
20
0.79122136
30
0
70
32
0
VERTEX
8
0
62
30
10
-0.006063777
20
0.79122136
30
0
70
32
0
SEQEND
8
0
0
POLYLINE
8
0
62
30
66
1
10
0
20
0
30
0
70
8
0
VERTEX
8
0
62
30
10
0.022220494
20
0.78960661
30
0
70
32
0
VERTEX
8
0
62
30
10
0.023870159
20
0.79122136
30
0
70
32
0
VERTEX
8
0
62
30
10
0.022220494
20
0.79283612
30
0
70
32
0
SEQEND
8
0
0
POLYLINE
8
0
62
30
66
1
10
0
20
0
30
0
70
8
0
VERTEX
8
0
62
30
10
0.050504765
20
0.78724935
30
0
70
32
0
VERTEX
8
0
62
30
10
0.053972196
20
0.79122136
30
0
70
32
0
VERTEX
8
0
62
30
10
0.050504765
20
0.79519338
30
0
70
32
0
SEQEND
8
0
0
POLYLINE
8
0
62
30
66
1
10
0
20
0
30
0
70
8
0
VERTEX
8
0
62
30
10
0.078789037
20
0.7888641
30
0
70
32
0
VERTEX
8
0
62
30
10
0.081074665
20
0.79122136
30
0
70
32
0
VERTEX
8
0
62
30
10
0.078789037
20
0.79357863
30
0
70
32
0
SEQEND
8
0
0
POLYLINE
8
0
62
5
66
1
10
0
20
0
30
0
70
8
0
VERTEX
8
0
62
5
10
0.22021039
20
0.79522778
30
0
70
32
0
VERTEX
8
0
62
5
10
0.22021039
20
0.78721494
30
0
70
32
0
SEQEND
8
0
0
POLYLINE
8
0
62
5
66
1
10
0
20
0
30
0
70
8
0
VERTEX
8
0
62
5
10
0.10707331
20
0.79122136
30
0
70
32
0
VERTEX
8
0
62
5
10
0.13535758
20
0.78960661
30
0
70
32
0
VERTEX
8
0
62
5
10
0.16364185
20
0.78724935
30
0
70
32
0
VERTEX
8
0
62
5
10
0.19192612
20
0.7888641
30
0
70
32
0
VERTEX
8
0
62
5
10
0.22021039
20
0.79122136
30
0
70
32
0
SEQEND
8
0
0
POLYLINE
8
0
62
5
66
1
10
0
20
0
30
0
70
8
0
SEQEND
8
0
0
POLYLINE
8
0
62
5
66
1
10
0
20
0
30
0
70
8
0
VERTEX
8
0
62
5
10
0.10707331
20
0.79122136
30
0
70
32
0
VERTEX
8
0
62
5
10
0.13535758
20
0.79283612
30
0
70
32
0
VERTEX
8
0
62
5
10
0.16364185
20
0.79519338
30
0
70
32
0
VERTEX
8
0
62
5
10
0.19192612
20
0.79357863
30
0
70
32
0
VERTEX
8
0
62
5
10
0.22021039
20
0.79122136
30
0
70
32
0
SEQEND
8
0
0
POLYLINE
8
0
62
30
66
1
10
0
20
0
30
0
70
8
0
VERTEX
8
0
62
30
10
0.10707331
20
0.79122136
30
0
70
32
0
VERTEX
8
0
62
30
10
0.22021039
20
0.79122136
30
0
70
32
0
SEQEND
8
0
0
POLYLINE
8
0
62
30
66
1
10
0
20
0
30
0
70
8
0
VERTEX
8
0
62
30
10
0.13535758
20
0.78960661
30
0
70
32
0
VERTEX
8
0
62
30
10
0.13535758
20
0.79122136
30
0
70
32
0
SEQEND
8
0
0
POLYLINE
8
0
62
30
66
1
10
0
20
0
30
0
70
8
0
VERTEX
8
0
62
30
10
0.16364185
20
0.78724935
30
0
70
32
0
VERTEX
8
0
62
30
10
0.16364185
20
0.79122136
30
0
70
32
0
SEQEND
8
0
0
POLYLINE
8
0
62
30
66
1
10
0
20
0
30
0
70
8
0
VERTEX
8
0
62
30
10
0.19192612
20
0.7888641
30
0
70
32
0
VERTEX
8
0
62
30
10
0.19192612
20
0.79122136
30
0
70
32
0
SEQEND
8
0
0
POLYLINE
8
0
62
5
66
1
10
0
20
0
30
0
70
8
0
VERTEX
8
0
62
5
10
0.13535758
20
0.78721494
30
0
70
32
0
VERTEX
8
0
62
5
10
0.13535758
20
0.78960661
30
0
70
32
0
SEQEND
8
0
0
POLYLINE
8
0
62
5
66
1
10
0
20
0
30
0
70
8
0
VERTEX
8
0
62
5
10
0.16364185
20
0.78721494
30
0
70
32
0
VERTEX
8
0
62
5
10
0.16364185
20
0.78724935
30
0
70
32
0
SEQEND
8
0
0
POLYLINE
8
0
62
5
66
1
10
0
20
0
30
0
70
8
0
VERTEX
8
0
62
5
10
0.19192612
20
0.78721494
30
0
70
32
0
VERTEX
8
0
62
5
10
0.19192612
20
0.7888641
30
0
70
32
0
SEQEND
8
0
0
POLYLINE
8
0
62
5
66
1
10
0
20
0
30
0
70
8
0
VERTEX
8
0
62
5
10
0.13535758
20
0.79122136
30
0
70
32
0
VERTEX
8
0
62
5
10
0.13535758
20
0.79522778
30
0
70
32
0
SEQEND
8
0
0
POLYLINE
8
0
62
5
66
1
10
0
20
0
30
0
70
8
0
VERTEX
8
0
62
5
10
0.16364185
20
0.79122136
30
0
70
32
0
VERTEX
8
0
62
5
10
0.16364185
20
0.79522778
30
0
70
32
0
SEQEND
8
0
0
POLYLINE
8
0
62
5
66
1
10
0
20
0
30
0
70
8
0
VERTEX
8
0
62
5
10
0.19192612
20
0.79122136
30
0
70
32
0
VERTEX
8
0
62
5
10
0.19192612
20
0.79522778
30
0
70
32
0
SEQEND
8
0
0
POLYLINE
8
0
62
30
66
1
10
0
20
0
30
0
70
8
0
VERTEX
8
0
62
30
10
0.10707331
20
0.79122136
30
0
70
32
0
VERTEX
8
0
62
30
10
0.10707331
20
0.79122136
30
0
70
32
0
VERTEX
8
0
62
30
10
0.10707331
20
0.79122136
30
0
70
32
0
SEQEND
8
0
0
POLYLINE
8
0
62
30
66
1
10
0
20
0
30
0
70
8
0
VERTEX
8
0
62
30
10
0.13535758
20
0.78960661
30
0
70
32
0
VERTEX
8
0
62
30
10
0.13700724
20
0.79122136
30
0
70
32
0
VERTEX
8
0
62
30
10
0.13535758
20
0.79283612
30
0
70
32
0
SEQEND
8
0
0
POLYLINE
8
0
62
30
66
1
10
0
20
0
30
0
70
8
0
VERTEX
8
0
62
30
10
0.16364185
20
0.78724935
30
0
70
32
0
VERTEX
8
0
62
30
10
0.16710928
20
0.79122136
30
0
70
32
0
VERTEX
8
0
62
30
10
0.16364185
20
0.79519338
30
0
70
32
0
SEQEND
8
0
0
POLYLINE
8
0
62
30
66
1
10
0
20
0
30
0
70
8
0
VERTEX
8
0
62
30
10
0.19192612
20
0.7888641
30
0
70
32
0
VERTEX
8
0
62
30
10
0.19421175
20
0.79122136
30
0
70
32
0
VERTEX
8
0
62
30
10
0.19192612
20
0.79357863
30
0
70
32
0
SEQEND
8
0
0
POLYLINE
8
0
62
5
66
1
10
0
20
0
30
0
70
8
0
VERTEX
8
0
62
5
10
-0.11920086
20
0.78721494
30
0
70
32
0
VERTEX
8
0
62
5
10
-0.11920086
20
0.79522778
30
0
70
32
0
SEQEND
8
0
0
POLYLINE
8
0
62
5
66
1
10
0
20
0
30
0
70
8
0
VERTEX
8
0
62
5
10
-0.11920086
20
0.79122136
30
0
70
32
0
VERTEX
8
0
62
5
10
-0.090916591
20
0.78960661
30
0
70
32
0
VERTEX
8
0
62
5
10
-0.06263232
20
0.78724935
30
0
70
32
0
VERTEX
8
0
62
5
10
-0.034348048
20
0.7888641
30
0
70
32
0
VERTEX
8
0
62
5
10
-0.006063777
20
0.79122136
30
0
70
32
0
SEQEND
8
0
0
POLYLINE
8
0
62
5
66
1
10
0
20
0
30
0
70
8
0
SEQEND
8
0
0
POLYLINE
8
0
62
5
66
1
10
0
20
0
30
0
70
8
0
VERTEX
8
0
62
5
10
-0.11920086
20
0.79122136
30
0
70
32
0
VERTEX
8
0
62
5
10
-0.090916591
20
0.79283612
30
0
70
32
0
VERTEX
8
0
62
5
10
-0.06263232
20
0.79519338
30
0
70
32
0
VERTEX
8
0
62
5
10
-0.034348048
20
0.79357863
30
0
70
32
0
VERTEX
8
0
62
5
10
-0.006063777
20
0.79122136
30
0
70
32
0
SEQEND
8
0
0
POLYLINE
8
0
62
30
66
1
10
0
20
0
30
0
70
8
0
VERTEX
8
0
62
30
10
-0.11920086
20
0.79122136
30
0
70
32
0
VERTEX
8
0
62
30
10
-0.006063777
20
0.79122136
30
0
70
32
0
SEQEND
8
0
0
POLYLINE
8
0
62
30
66
1
10
0
20
0
30
0
70
8
0
VERTEX
8
0
62
30
10
-0.090916591
20
0.78960661
30
0
70
32
0
VERTEX
8
0
62
30
10
-0.090916591
20
0.79122136
30
0
70
32
0
SEQEND
8
0
0
POLYLINE
8
0
62
30
66
1
10
0
20
0
30
0
70
8
0
VERTEX
8
0
62
30
10
-0.06263232
20
0.78724935
30
0
70
32
0
VERTEX
8
0
62
30
10
-0.06263232
20
0.79122136
30
0
70
32
0
SEQEND
8
0
0
POLYLINE
8
0
62
30
66
1
10
0
20
0
30
0
70
8
0
VERTEX
8
0
62
30
10
-0.034348048
20
0.7888641
30
0
70
32
0
VERTEX
8
0
62
30
10
-0.034348048
20
0.79122136
30
0
70
32
0
SEQEND
8
0
0
POLYLINE
8
0
62
5
66
1
10
0
20
0
30
0
70
8
0
VERTEX
8
0
62
5
10
-0.090916591
20
0.78721494
30
0
70
32
0
VERTEX
8
0
62
5
10
-0.090916591
20
0.78960661
30
0
70
32
0
SEQEND
8
0
0
POLYLINE
8
0
62
5
66
1
10
0
20
0
30
0
70
8
0
VERTEX
8
0
62
5
10
-0.06263232
20
0.78721494
30
0
70
32
0
VERTEX
8
0
62
5
10
-0.06263232
20
0.78724935
30
0
70
32
0
SEQEND
8
0
0
POLYLINE
8
0
62
5
66
1
10
0
20
0
30
0
70
8
0
VERTEX
8
0
62
5
10
-0.034348048
20
0.78721494
30
0
70
32
0
VERTEX
8
0
62
5
10
-0.034348048
20
0.7888641
30
0
70
32
0
SEQEND
8
0
0
POLYLINE
8
0
62
5
66
1
10
0
20
0
30
0
70
8
0
VERTEX
8
0
62
5
10
-0.090916591
20
0.79122136
30
0
70
32
0
VERTEX
8
0
62
5
10
-0.090916591
20
0.79522778
30
0
70
32
0
SEQEND
8
0
0
POLYLINE
8
0
62
5
66
1
10
0
20
0
30
0
70
8
0
VERTEX
8
0
62
5
10
-0.06263232
20
0.79122136
30
0
70
32
0
VERTEX
8
0
62
5
10
-0.06263232
20
0.79522778
30
0
70
32
0
SEQEND
8
0
0
POLYLINE
8
0
62
5
66
1
10
0
20
0
30
0
70
8
0
VERTEX
8
0
62
5
10
-0.034348048
20
0.79122136
30
0
70
32
0
VERTEX
8
0
62
5
10
-0.034348048
20
0.79522778
30
0
70
32
0
SEQEND
8
0
0
POLYLINE
8
0
62
30
66
1
10
0
20
0
30
0
70
8
0
VERTEX
8
0
62
30
10
-0.11920086
20
0.79122136
30
0
70
32
0
VERTEX
8
0
62
30
10
-0.11920086
20
0.79122136
30
0
70
32
0
VERTEX
8
0
62
30
10
-0.11920086
20
0.79122136
30
0
70
32
0
SEQEND
8
0
0
POLYLINE
8
0
62
30
66
1
10
0
20
0
30
0
70
8
0
VERTEX
8
0
62
30
10
-0.090916591
20
0.78960661
30
0
70
32
0
VERTEX
8
0
62
30
10
-0.089266926
20
0.79122136
30
0
70
32
0
VERTEX
8
0
62
30
10
-0.090916591
20
0.79283612
30
0
70
32
0
SEQEND
8
0
0
POLYLINE
8
0
62
30
66
1
10
0
20
0
30
0
70
8
0
VERTEX
8
0
62
30
10
-0.06263232
20
0.78724935
30
0
70
32
0
VERTEX
8
0
62
30
10
-0.059164889
20
0.79122136
30
0
70
32
0
VERTEX
8
0
62
30
10
-0.06263232
20
0.79519338
30
0
70
32
0
SEQEND
8
0
0
POLYLINE
8
0
62
30
66
1
10
0
20
0
30
0
70
8
0
VERTEX
8
0
62
30
10
-0.034348048
20
0.7888641
30
0
70
32
0
VERTEX
8
0
62
30
10
-0.03206242
20
0.79122136
30
0
70
32
0
VERTEX
8
0
62
30
10
-0.034348048
20
0.79357863
30
0
70
32
0
SEQEND
8
0
0
POLYLINE
8
0
62
5
66
1
10
0
20
0
30
0
70
8
0
VERTEX
8
0
62
5
10
-0.006063777
20
0.79522778
30
0
70
32
0
VERTEX
8
0
62
5
10
-0.006063777
20
0.83522778
30
0
70
32
0
SEQEND
8
0
0
POLYLINE
8
0
62
5
66
1
10
0
20
0
30
0
70
8
0
VERTEX
8
0
62
5
10
0.10707331
20
0.83522778
30
0
70
32
0
VERTEX
8
0
62
5
10
0.10707331
20
0.79522778
30
0
70
32
0
SEQEND
8
0
0
POLYLINE
8
0
62
5
66
1
10
0
20
0
30
0
70
8
0
VERTEX
8
0
62
5
10
-0.006063777
20
0.79522778
30
0
70
32
0
VERTEX
8
0
62
5
10
0.10707331
20
0.79522778
30
0
70
32
0
SEQEND
8
0
0
POLYLINE
8
0
62
5
66
1
10
0
20
0
30
0
70
8
0
VERTEX
8
0
62
5
10
-0.006063777
20
0.83522778
30
0
70
32
0
VERTEX
8
0
62
5
10
0.10707331
20
0.83522778
30
0
70
32
0
SEQEND
8
0
0
POLYLINE
8
0
62
5
66
1
10
0
20
0
30
0
70
8
0
VERTEX
8
0
62
5
10
0.022220494
20
0.79522778
30
0
70
32
0
VERTEX
8
0
62
5
10
0.022220494
20
0.79522778
30
0
70
32
0
SEQEND
8
0
0
POLYLINE
8
0
62
5
66
1
10
0
20
0
30
0
70
8
0
VERTEX
8
0
62
5
10
0.050504765
20
0.79522778
30
0
70
32
0
VERTEX
8
0
62
5
10
0.050504765
20
0.79522778
30
0
70
32
0
SEQEND
8
0
0
POLYLINE
8
0
62
5
66
1
10
0
20
0
30
0
70
8
0
VERTEX
8
0
62
5
10
0.078789037
20
0.79522778
30
0
70
32
0
VERTEX
8
0
62
5
10
0.078789037
20
0.79522778
30
0
70
32
0
SEQEND
8
0
0
POLYLINE
8
0
62
5
66
1
10
0
20
0
30
0
70
8
0
VERTEX
8
0
62
5
10
0.022220494
20
0.83522778
30
0
70
32
0
VERTEX
8
0
62
5
10
0.022220494
20
0.83522778
30
0
70
32
0
SEQEND
8
0
0
POLYLINE
8
0
62
5
66
1
10
0
20
0
30
0
70
8
0
VERTEX
8
0
62
5
10
0.050504765
20
0.83522778
30
0
70
32
0
VERTEX
8
0
62
5
10
0.050504765
20
0.83522778
30
0
70
32
0
SEQEND
8
0
0
POLYLINE
8
0
62
5
66
1
10
0
20
0
30
0
70
8
0
VERTEX
8
0
62
5
10
0.078789037
20
0.83522778
30
0
70
32
0
VERTEX
8
0
62
5
10
0.078789037
20
0.83522778
30
0
70
32
0
SEQEND
8
0
0
POLYLINE
8
0
62
30
66
1
10
0
20
0
30
0
70
8
0
VERTEX
8
0
62
30
10
-0.006063777
20
0.79522778
30
0
70
32
0
VERTEX
8
0
62
30
10
0.0080783586
20
0.81522778
30
0
70
32
0
SEQEND
8
0
0
POLYLINE
8
0
62
30
66
1
10
0
20
0
30
0
70
8
0
VERTEX
8
0
62
30
10
0.0080783586
20
0.81522778
30
0
70
32
0
VERTEX
8
0
62
30
10
0.022220494
20
0.79522778
30
0
70
32
0
SEQEND
8
0
0
POLYLINE
8
0
62
30
66
1
10
0
20
0
30
0
70
8
0
VERTEX
8
0
62
30
10
0.050504765
20
0.79522778
30
0
70
32
0
VERTEX
8
0
62
30
10
0.064646901
20
0.81522778
30
0
70
32
0
SEQEND
8
0
0
POLYLINE
8
0
62
30
66
1
10
0
20
0
30
0
70
8
0
VERTEX
8
0
62
30
10
0.064646901
20
0.81522778
30
0
70
32
0
VERTEX
8
0
62
30
10
0.078789037
20
0.79522778
30
0
70
32
0
SEQEND
8
0
0
POLYLINE
8
0
62
30
66
1
10
0
20
0
30
0
70
8
0
VERTEX
8
0
62
30
10
0.022220494
20
0.81522778
30
0
70
32
0
VERTEX
8
0
62
30
10
0.050504765
20
0.81522778
30
0
70
32
0
SEQEND
8
0
0
POLYLINE
8
0
62
30
66
1
10
0
20
0
30
0
70
8
0
VERTEX
8
0
62
30
10
0.078789037
20
0.81522778
30
0
70
32
0
VERTEX
8
0
62
30
10
0.10707331
20
0.81522778
30
0
70
32
0
SEQEND
8
0
0
POLYLINE
8
0
62
5
66
1
10
0
20
0
30
0
70
8
0
VERTEX
8
0
62
5
10
-0.006063777
20
0.81522778
30
0
70
32
0
VERTEX
8
0
62
5
10
0.0080783586
20
0.81522778
30
0
70
32
0
SEQEND
8
0
0
POLYLINE
8
0
62
5
66
1
10
0
20
0
30
0
70
8
0
VERTEX
8
0
62
5
10
0.050504765
20
0.81522778
30
0
70
32
0
VERTEX
8
0
62
5
10
0.064646901
20
0.81522778
30
0
70
32
0
SEQEND
8
0
0
POLYLINE
8
0
62
5
66
1
10
0
20
0
30
0
70
8
0
VERTEX
8
0
62
5
10
0.0080783586
20
0.81522778
30
0
70
32
0
VERTEX
8
0
62
5
10
0.022220494
20
0.81522778
30
0
70
32
0
SEQEND
8
0
0
POLYLINE
8
0
62
5
66
1
10
0
20
0
30
0
70
8
0
VERTEX
8
0
62
5
10
0.064646901
20
0.81522778
30
0
70
32
0
VERTEX
8
0
62
5
10
0.078789037
20
0.81522778
30
0
70
32
0
SEQEND
8
0
0
POLYLINE
8
0
62
5
66
1
10
0
20
0
30
0
70
8
0
VERTEX
8
0
62
5
10
0.022220494
20
0.79522778
30
0
70
32
0
VERTEX
8
0
62
5
10
0.022220494
20
0.83522778
30
0
70
32
0
SEQEND
8
0
0
POLYLINE
8
0
62
5
66
1
10
0
20
0
30
0
70
8
0
VERTEX
8
0
62
5
10
0.050504765
20
0.79522778
30
0
70
32
0
VERTEX
8
0
62
5
10
0.050504765
20
0.83522778
30
0
70
32
0
SEQEND
8
0
0
POLYLINE
8
0
62
5
66
1
10
0
20
0
30
0
70
8
0
VERTEX
8
0
62
5
10
0.078789037
20
0.79522778
30
0
70
32
0
VERTEX
8
0
62
5
10
0.078789037
20
0.83522778
30
0
70
32
0
SEQEND
8
0
0
POLYLINE
8
0
62
5
66
1
10
0
20
0
30
0
70
8
0
VERTEX
8
0
62
5
10
-0.006063777
20
0.79522778
30
0
70
32
0
VERTEX
8
0
62
5
10
-0.006063777
20
0.83522778
30
0
70
32
0
SEQEND
8
0
0
POLYLINE
8
0
62
5
66
1
10
0
20
0
30
0
70
8
0
VERTEX
8
0
62
5
10
0.22021039
20
0.83522778
30
0
70
32
0
VERTEX
8
0
62
5
10
0.22021039
20
0.79522778
30
0
70
32
0
SEQEND
8
0
0
POLYLINE
8
0
62
5
66
1
10
0
20
0
30
0
70
8
0
VERTEX
8
0
62
5
10
0.10707331
20
0.79522778
30
0
70
32
0
VERTEX
8
0
62
5
10
0.22021039
20
0.79522778
30
0
70
32
0
SEQEND
8
0
0
POLYLINE
8
0
62
5
66
1
10
0
20
0
30
0
70
8
0
VERTEX
8
0
62
5
10
0.10707331
20
0.83522778
30
0
70
32
0
VERTEX
8
0
62
5
10
0.22021039
20
0.83522778
30
0
70
32
0
SEQEND
8
0
0
POLYLINE
8
0
62
5
66
1
10
0
20
0
30
0
70
8
0
VERTEX
8
0
62
5
10
0.13535758
20
0.79522778
30
0
70
32
0
VERTEX
8
0
62
5
10
0.13535758
20
0.79522778
30
0
70
32
0
SEQEND
8
0
0
POLYLINE
8
0
62
5
66
1
10
0
20
0
30
0
70
8
0
VERTEX
8
0
62
5
10
0.16364185
20
0.79522778
30
0
70
32
0
VERTEX
8
0
62
5
10
0.16364185
20
0.79522778
30
0
70
32
0
SEQEND
8
0
0
POLYLINE
8
0
62
5
66
1
10
0
20
0
30
0
70
8
0
VERTEX
8
0
62
5
10
0.19192612
20
0.79522778
30
0
70
32
0
VERTEX
8
0
62
5
10
0.19192612
20
0.79522778
30
0
70
32
0
SEQEND
8
0
0
POLYLINE
8
0
62
5
66
1
10
0
20
0
30
0
70
8
0
VERTEX
8
0
62
5
10
0.13535758
20
0.83522778
30
0
70
32
0
VERTEX
8
0
62
5
10
0.13535758
20
0.83522778
30
0
70
32
0
SEQEND
8
0
0
POLYLINE
8
0
62
5
66
1
10
0
20
0
30
0
70
8
0
VERTEX
8
0
62
5
10
0.16364185
20
0.83522778
30
0
70
32
0
VERTEX
8
0
62
5
10
0.16364185
20
0.83522778
30
0
70
32
0
SEQEND
8
0
0
POLYLINE
8
0
62
5
66
1
10
0
20
0
30
0
70
8
0
VERTEX
8
0
62
5
10
0.19192612
20
0.83522778
30
0
70
32
0
VERTEX
8
0
62
5
10
0.19192612
20
0.83522778
30
0
70
32
0
SEQEND
8
0
0
POLYLINE
8
0
62
30
66
1
10
0
20
0
30
0
70
8
0
VERTEX
8
0
62
30
10
0.10707331
20
0.79522778
30
0
70
32
0
VERTEX
8
0
62
30
10
0.12121544
20
0.81522778
30
0
70
32
0
SEQEND
8
0
0
POLYLINE
8
0
62
30
66
1
10
0
20
0
30
0
70
8
0
VERTEX
8
0
62
30
10
0.12121544
20
0.81522778
30
0
70
32
0
VERTEX
8
0
62
30
10
0.13535758
20
0.79522778
30
0
70
32
0
SEQEND
8
0
0
POLYLINE
8
0
62
30
66
1
10
0
20
0
30
0
70
8
0
VERTEX
8
0
62
30
10
0.16364185
20
0.79522778
30
0
70
32
0
VERTEX
8
0
62
30
10
0.17778399
20
0.81522778
30
0
70
32
0
SEQEND
8
0
0
POLYLINE
8
0
62
30
66
1
10
0
20
0
30
0
70
8
0
VERTEX
8
0
62
30
10
0.17778399
20
0.81522778
30
0
70
32
0
VERTEX
8
0
62
30
10
0.19192612
20
0.79522778
30
0
70
32
0
SEQEND
8
0
0
POLYLINE
8
0
62
30
66
1
10
0
20
0
30
0
70
8
0
VERTEX
8
0
62
30
10
0.13535758
20
0.81522778
30
0
70
32
0
VERTEX
8
0
62
30
10
0.16364185
20
0.81522778
30
0
70
32
0
SEQEND
8
0
0
POLYLINE
8
0
62
30
66
1
10
0
20
0
30
0
70
8
0
VERTEX
8
0
62
30
10
0.19192612
20
0.81522778
30
0
70
32
0
VERTEX
8
0
62
30
10
0.22021039
20
0.81522778
30
0
70
32
0
SEQEND
8
0
0
POLYLINE
8
0
62
5
66
1
10
0
20
0
30
0
70
8
0
VERTEX
8
0
62
5
10
0.10707331
20
0.81522778
30
0
70
32
0
VERTEX
8
0
62
5
10
0.12121544
20
0.81522778
30
0
70
32
0
SEQEND
8
0
0
POLYLINE
8
0
62
5
66
1
10
0
20
0
30
0
70
8
0
VERTEX
8
0
62
5
10
0.16364185
20
0.81522778
30
0
70
32
0
VERTEX
8
0
62
5
10
0.17778399
20
0.81522778
30
0
70
32
0
SEQEND
8
0
0
POLYLINE
8
0
62
5
66
1
10
0
20
0
30
0
70
8
0
VERTEX
8
0
62
5
10
0.12121544
20
0.81522778
30
0
70
32
0
VERTEX
8
0
62
5
10
0.13535758
20
0.81522778
30
0
70
32
0
SEQEND
8
0
0
POLYLINE
8
0
62
5
66
1
10
0
20
0
30
0
70
8
0
VERTEX
8
0
62
5
10
0.17778399
20
0.81522778
30
0
70
32
0
VERTEX
8
0
62
5
10
0.19192612
20
0.81522778
30
0
70
32
0
SEQEND
8
0
0
POLYLINE
8
0
62
5
66
1
10
0
20
0
30
0
70
8
0
VERTEX
8
0
62
5
10
0.13535758
20
0.79522778
30
0
70
32
0
VERTEX
8
0
62
5
10
0.13535758
20
0.83522778
30
0
70
32
0
SEQEND
8
0
0
POLYLINE
8
0
62
5
66
1
10
0
20
0
30
0
70
8
0
VERTEX
8
0
62
5
10
0.16364185
20
0.79522778
30
0
70
32
0
VERTEX
8
0
62
5
10
0.16364185
20
0.83522778
30
0
70
32
0
SEQEND
8
0
0
POLYLINE
8
0
62
5
66
1
10
0
20
0
30
0
70
8
0
VERTEX
8
0
62
5
10
0.19192612
20
0.79522778
30
0
70
32
0
VERTEX
8
0
62
5
10
0.19192612
20
0.83522778
30
0
70
32
0
SEQEND
8
0
0
POLYLINE
8
0
62
5
66
1
10
0
20
0
30
0
70
8
0
VERTEX
8
0
62
5
10
0.10707331
20
0.79522778
30
0
70
32
0
VERTEX
8
0
62
5
10
0.10707331
20
0.83522778
30
0
70
32
0
SEQEND
8
0
0
POLYLINE
8
0
62
5
66
1
10
0
20
0
30
0
70
8
0
VERTEX
8
0
62
5
10
-0.11920086
20
0.79522778
30
0
70
32
0
VERTEX
8
0
62
5
10
-0.11920086
20
0.83522778
30
0
70
32
0
SEQEND
8
0
0
POLYLINE
8
0
62
5
66
1
10
0
20
0
30
0
70
8
0
VERTEX
8
0
62
5
10
-0.11920086
20
0.79522778
30
0
70
32
0
VERTEX
8
0
62
5
10
-0.006063777
20
0.79522778
30
0
70
32
0
SEQEND
8
0
0
POLYLINE
8
0
62
5
66
1
10
0
20
0
30
0
70
8
0
VERTEX
8
0
62
5
10
-0.11920086
20
0.83522778
30
0
70
32
0
VERTEX
8
0
62
5
10
-0.006063777
20
0.83522778
30
0
70
32
0
SEQEND
8
0
0
POLYLINE
8
0
62
5
66
1
10
0
20
0
30
0
70
8
0
VERTEX
8
0
62
5
10
-0.090916591
20
0.79522778
30
0
70
32
0
VERTEX
8
0
62
5
10
-0.090916591
20
0.79522778
30
0
70
32
0
SEQEND
8
0
0
POLYLINE
8
0
62
5
66
1
10
0
20
0
30
0
70
8
0
VERTEX
8
0
62
5
10
-0.06263232
20
0.79522778
30
0
70
32
0
VERTEX
8
0
62
5
10
-0.06263232
20
0.79522778
30
0
70
32
0
SEQEND
8
0
0
POLYLINE
8
0
62
5
66
1
10
0
20
0
30
0
70
8
0
VERTEX
8
0
62
5
10
-0.034348048
20
0.79522778
30
0
70
32
0
VERTEX
8
0
62
5
10
-0.034348048
20
0.79522778
30
0
70
32
0
SEQEND
8
0
0
POLYLINE
8
0
62
5
66
1
10
0
20
0
30
0
70
8
0
VERTEX
8
0
62
5
10
-0.090916591
20
0.83522778
30
0
70
32
0
VERTEX
8
0
62
5
10
-0.090916591
20
0.83522778
30
0
70
32
0
SEQEND
8
0
0
POLYLINE
8
0
62
5
66
1
10
0
20
0
30
0
70
8
0
VERTEX
8
0
62
5
10
-0.06263232
20
0.83522778
30
0
70
32
0
VERTEX
8
0
62
5
10
-0.06263232
20
0.83522778
30
0
70
32
0
SEQEND
8
0
0
POLYLINE
8
0
62
5
66
1
10
0
20
0
30
0
70
8
0
VERTEX
8
0
62
5
10
-0.034348048
20
0.83522778
30
0
70
32
0
VERTEX
8
0
62
5
10
-0.034348048
20
0.83522778
30
0
70
32
0
SEQEND
8
0
0
POLYLINE
8
0
62
30
66
1
10
0
20
0
30
0
70
8
0
VERTEX
8
0
62
30
10
-0.11920086
20
0.79522778
30
0
70
32
0
VERTEX
8
0
62
30
10
-0.10505873
20
0.81522778
30
0
70
32
0
SEQEND
8
0
0
POLYLINE
8
0
62
30
66
1
10
0
20
0
30
0
70
8
0
VERTEX
8
0
62
30
10
-0.10505873
20
0.81522778
30
0
70
32
0
VERTEX
8
0
62
30
10
-0.090916591
20
0.79522778
30
0
70
32
0
SEQEND
8
0
0
POLYLINE
8
0
62
30
66
1
10
0
20
0
30
0
70
8
0
VERTEX
8
0
62
30
10
-0.06263232
20
0.79522778
30
0
70
32
0
VERTEX
8
0
62
30
10
-0.048490184
20
0.81522778
30
0
70
32
0
SEQEND
8
0
0
POLYLINE
8
0
62
30
66
1
10
0
20
0
30
0
70
8
0
VERTEX
8
0
62
30
10
-0.048490184
20
0.81522778
30
0
70
32
0
VERTEX
8
0
62
30
10
-0.034348048
20
0.79522778
30
0
70
32
0
SEQEND
8
0
0
POLYLINE
8
0
62
30
66
1
10
0
20
0
30
0
70
8
0
VERTEX
8
0
62
30
10
-0.090916591
20
0.81522778
30
0
70
32
0
VERTEX
8
0
62
30
10
-0.06263232
20
0.81522778
30
0
70
32
0
SEQEND
8
0
0
POLYLINE
8
0
62
30
66
1
10
0
20
0
30
0
70
8
0
VERTEX
8
0
62
30
10
-0.034348048
20
0.81522778
30
0
70
32
0
VERTEX
8
0
62
30
10
-0.006063777
20
0.81522778
30
0
70
32
0
SEQEND
8
0
0
POLYLINE
8
0
62
5
66
1
10
0
20
0
30
0
70
8
0
VERTEX
8
0
62
5
10
-0.11920086
20
0.81522778
30
0
70
32
0
VERTEX
8
0
62
5
10
-0.10505873
20
0.81522778
30
0
70
32
0
SEQEND
8
0
0
POLYLINE
8
0
62
5
66
1
10
0
20
0
30
0
70
8
0
VERTEX
8
0
62
5
10
-0.06263232
20
0.81522778
30
0
70
32
0
VERTEX
8
0
62
5
10
-0.048490184
20
0.81522778
30
0
70
32
0
SEQEND
8
0
0
POLYLINE
8
0
62
5
66
1
10
0
20
0
30
0
70
8
0
VERTEX
8
0
62
5
10
-0.10505873
20
0.81522778
30
0
70
32
0
VERTEX
8
0
62
5
10
-0.090916591
20
0.81522778
30
0
70
32
0
SEQEND
8
0
0
POLYLINE
8
0
62
5
66
1
10
0
20
0
30
0
70
8
0
VERTEX
8
0
62
5
10
-0.048490184
20
0.81522778
30
0
70
32
0
VERTEX
8
0
62
5
10
-0.034348048
20
0.81522778
30
0
70
32
0
SEQEND
8
0
0
POLYLINE
8
0
62
5
66
1
10
0
20
0
30
0
70
8
0
VERTEX
8
0
62
5
10
-0.090916591
20
0.79522778
30
0
70
32
0
VERTEX
8
0
62
5
10
-0.090916591
20
0.83522778
30
0
70
32
0
SEQEND
8
0
0
POLYLINE
8
0
62
5
66
1
10
0
20
0
30
0
70
8
0
VERTEX
8
0
62
5
10
-0.06263232
20
0.79522778
30
0
70
32
0
VERTEX
8
0
62
5
10
-0.06263232
20
0.83522778
30
0
70
32
0
SEQEND
8
0
0
POLYLINE
8
0
62
5
66
1
10
0
20
0
30
0
70
8
0
VERTEX
8
0
62
5
10
-0.034348048
20
0.79522778
30
0
70
32
0
VERTEX
8
0
62
5
10
-0.034348048
20
0.83522778
30
0
70
32
0
SEQEND
8
0
0
POLYLINE
8
0
62
5
66
1
10
0
20
0
30
0
70
8
0
VERTEX
8
0
62
5
10
-0.11920086
20
0.79522778
30
0
70
32
0
VERTEX
8
0
62
5
10
-0.11920086
20
0.83522778
30
0
70
32
0
SEQEND
8
0
0
POLYLINE
8
0
62
18
66
1
10
0
20
0
30
0
70
8
0
VERTEX
8
0
62
18
10
0
20
0
30
0
70
32
0
VERTEX
8
0
62
18
10
0.14142136
20
0
30
0
70
32
0
VERTEX
8
0
62
18
10
0.14142136
20
0.28222688
30
0
70
32
0
VERTEX
8
0
62
18
10
0
20
0.28222688
30
0
70
32
0
VERTEX
8
0
62
18
10
0
20
0
30
0
70
32
0
SEQEND
8
0
0
POLYLINE
8
0
62
5
66
1
10
0
20
0
30
0
70
8
0
VERTEX
8
0
62
5
10
0
20
0.28222688
30
0
70
32
0
VERTEX
8
0
62
5
10
0.14142136
20
0.28222688
30
0
70
32
0
SEQEND
8
0
0
POLYLINE
8
0
62
18
66
1
10
0
20
0
30
0
70
8
0
VERTEX
8
0
62
18
10
0
20
0.26222688
30
0
70
32
0
VERTEX
8
0
62
18
10
0.14142136
20
0.26222688
30
0
70
32
0
VERTEX
8
0
62
18
10
0.14142136
20
0.70883127
30
0
70
32
0
VERTEX
8
0
62
18
10
0
20
0.70883127
30
0
70
32
0
VERTEX
8
0
62
18
10
0
20
0.26222688
30
0
70
32
0
SEQEND
8
0
0
POLYLINE
8
0
62
5
66
1
10
0
20
0
30
0
70
8
0
VERTEX
8
0
62
5
10
0
20
0.70883127
30
0
70
32
0
VERTEX
8
0
62
5
10
0.14142136
20
0.70883127
30
0
70
32
0
SEQEND
8
0
0
POLYLINE
8
0
62
18
66
1
10
0
20
0
30
0
70
8
0
VERTEX
8
0
62
18
10
0
20
0.68883127
30
0
70
32
0
VERTEX
8
0
62
18
10
0.14142136
20
0.68883127
30
0
70
32
0
VERTEX
8
0
62
18
10
0.14142136
20
0.83522778
30
0
70
32
0
VERTEX
8
0
62
18
10
0
20
0.83522778
30
0
70
32
0
VERTEX
8
0
62
18
10
0
20
0.68883127
30
0
70
32
0
SEQEND
8
0
0
POLYLINE
8
0
62
18
66
1
10
0
20
0
30
0
70
8
0
VERTEX
8
0
62
18
10
0.14142136
20
0
30
0
70
32
0
VERTEX
8
0
62
18
10
0
20
0
30
0
70
32
0
VERTEX
8
0
62
18
10
0
20
0.83522778
30
0
70
32
0
VERTEX
8
0
62
18
10
0.14142136
20
0.83522778
30
0
70
32
0
VERTEX
8
0
62
18
10
0.14142136
20
0
30
0
70
32
0
SEQEND
8
0
0
ENDSEC
0
EOF
