0
SECTION
2
HEADER
9
$ACADVER
1
AC1006
9
$INSUNITS
70
6
0
ENDSEC
0
SECTION
2
ENTITIES
0
POLYLINE
8
0
62
5
66
1
10
0
20
0
30
0
70
8
0
VERTEX
8
0
62
5
10
0
20
0
30
0
70
32
0
VERTEX
8
0
62
5
10
0
20
0.1
30
0
70
32
0
SEQEND
8
0
0
POLYLINE
8
0
62
5
66
1
10
0
20
0
30
0
70
8
0
VERTEX
8
0
62
5
10
0.11313708
20
0
30
0
70
32
0
VERTEX
8
0
62
5
10
0.11313708
20
0.1
30
0
70
32
0
SEQEND
8
0
0
POLYLINE
8
0
62
5
66
1
10
0
20
0
30
0
70
8
0
VERTEX
8
0
62
5
10
0.028284271
20
0
30
0
70
32
0
VERTEX
8
0
62
5
10
0.028284271
20
0.1
30
0
70
32
0
SEQEND
8
0
0
POLYLINE
8
0
62
5
66
1
10
0
20
0
30
0
70
8
0
VERTEX
8
0
62
5
10
0.056568542
20
0
30
0
70
32
0
VERTEX
8
0
62
5
10
0.056568542
20
0.1
30
0
70
32
0
SEQEND
8
0
0
POLYLINE
8
0
62
5
66
1
10
0
20
0
30
0
70
8
0
VERTEX
8
0
62
5
10
0.084852814
20
0
30
0
70
32
0
VERTEX
8
0
62
5
10
0.084852814
20
0.1
30
0
70
32
0
SEQEND
8
0
0
POLYLINE
8
0
62
5
66
1
10
0
20
0
30
0
70
8
0
VERTEX
8
0
62
5
10
0.22627417
20
0
30
0
70
32
0
VERTEX
8
0
62
5
10
0.22627417
20
0.1
30
0
70
32
0
SEQEND
8
0
0
POLYLINE
8
0
62
5
66
1
10
0
20
0
30
0
70
8
0
VERTEX
8
0
62
5
10
0.14142136
20
0
30
0
70
32
0
VERTEX
8
0
62
5
10
0.14142136
20
0.1
30
0
70
32
0
SEQEND
8
0
0
POLYLINE
8
0
62
5
66
1
10
0
20
0
30
0
70
8
0
VERTEX
8
0
62
5
10
0.16970563
20
0
30
0
70
32
0
VERTEX
8
0
62
5
10
0.16970563
20
0.1
30
0
70
32
0
SEQEND
8
0
0
POLYLINE
8
0
62
5
66
1
10
0
20
0
30
0
70
8
0
VERTEX
8
0
62
5
10
0.1979899
20
0
30
0
70
32
0
VERTEX
8
0
62
5
10
0.1979899
20
0.1
30
0
70
32
0
SEQEND
8
0
0
POLYLINE
8
0
62
5
66
1
10
0
20
0
30
0
70
8
0
VERTEX
8
0
62
5
10
-0.11313708
20
0
30
0
70
32
0
VERTEX
8
0
62
5
10
-0.11313708
20
0.1
30
0
70
32
0
SEQEND
8
0
0
POLYLINE
8
0
62
5
66
1
10
0
20
0
30
0
70
8
0
VERTEX
8
0
62
5
10
-0.084852814
20
0
30
0
70
32
0
VERTEX
8
0
62
5
10
-0.084852814
20
0.1
30
0
70
32
0
SEQEND
8
0
0
POLYLINE
8
0
62
5
66
1
10
0
20
0
30
0
70
8
0
VERTEX
8
0
62
5
10
-0.056568542
20
0
30
0
70
32
0
VERTEX
8
0
62
5
10
-0.056568542
20
0.1
30
0
70
32
0
SEQEND
8
0
0
POLYLINE
8
0
62
5
66
1
10
0
20
0
30
0
70
8
0
VERTEX
8
0
62
5
10
-0.028284271
20
0
30
0
70
32
0
VERTEX
8
0
62
5
10
-0.028284271
20
0.1
30
0
70
32
0
SEQEND
8
0
0
POLYLINE
8
0
62
5
66
1
10
0
20
0
30
0
70
8
0
VERTEX
8
0
62
5
10
0
20
0.1
30
0
70
32
0
VERTEX
8
0
62
5
10
0
20
0.14
30
0
70
32
0
SEQEND
8
0
0
POLYLINE
8
0
62
5
66
1
10
0
20
0
30
0
70
8
0
VERTEX
8
0
62
5
10
0.11313708
20
0.14
30
0
70
32
0
VERTEX
8
0
62
5
10
0.11313708
20
0.1
30
0
70
32
0
SEQEND
8
0
0
POLYLINE
8
0
62
5
66
1
10
0
20
0
30
0
70
8
0
VERTEX
8
0
62
5
10
0
20
0.1
30
0
70
32
0
VERTEX
8
0
62
5
10
0.11313708
20
0.1
30
0
70
32
0
SEQEND
8
0
0
POLYLINE
8
0
62
5
66
1
10
0
20
0
30
0
70
8
0
VERTEX
8
0
62
5
10
0
20
0.14
30
0
70
32
0
VERTEX
8
0
62
5
10
0.11313708
20
0.14
30
0
70
32
0
SEQEND
8
0
0
POLYLINE
8
0
62
5
66
1
10
0
20
0
30
0
70
8
0
VERTEX
8
0
62
5
10
0.028284271
20
0.1
30
0
70
32
0
VERTEX
8
0
62
5
10
0.028284271
20
0.1
30
0
70
32
0
SEQEND
8
0
0
POLYLINE
8
0
62
5
66
1
10
0
20
0
30
0
70
8
0
VERTEX
8
0
62
5
10
0.056568542
20
0.1
30
0
70
32
0
VERTEX
8
0
62
5
10
0.056568542
20
0.1
30
0
70
32
0
SEQEND
8
0
0
POLYLINE
8
0
62
5
66
1
10
0
20
0
30
0
70
8
0
VERTEX
8
0
62
5
10
0.084852814
20
0.1
30
0
70
32
0
VERTEX
8
0
62
5
10
0.084852814
20
0.1
30
0
70
32
0
SEQEND
8
0
0
POLYLINE
8
0
62
5
66
1
10
0
20
0
30
0
70
8
0
VERTEX
8
0
62
5
10
0.028284271
20
0.14
30
0
70
32
0
VERTEX
8
0
62
5
10
0.028284271
20
0.14
30
0
70
32
0
SEQEND
8
0
0
POLYLINE
8
0
62
5
66
1
10
0
20
0
30
0
70
8
0
VERTEX
8
0
62
5
10
0.056568542
20
0.14
30
0
70
32
0
VERTEX
8
0
62
5
10
0.056568542
20
0.14
30
0
70
32
0
SEQEND
8
0
0
POLYLINE
8
0
62
5
66
1
10
0
20
0
30
0
70
8
0
VERTEX
8
0
62
5
10
0.084852814
20
0.14
30
0
70
32
0
VERTEX
8
0
62
5
10
0.084852814
20
0.14
30
0
70
32
0
SEQEND
8
0
0
POLYLINE
8
0
62
30
66
1
10
0
20
0
30
0
70
8
0
VERTEX
8
0
62
30
10
0
20
0.14
30
0
70
32
0
VERTEX
8
0
62
30
10
0.028284271
20
0.1
30
0
70
32
0
SEQEND
8
0
0
POLYLINE
8
0
62
30
66
1
10
0
20
0
30
0
70
8
0
VERTEX
8
0
62
30
10
0.028284271
20
0.14
30
0
70
32
0
VERTEX
8
0
62
30
10
0
20
0.1
30
0
70
32
0
SEQEND
8
0
0
POLYLINE
8
0
62
30
66
1
10
0
20
0
30
0
70
8
0
VERTEX
8
0
62
30
10
0.056568542
20
0.14
30
0
70
32
0
VERTEX
8
0
62
30
10
0.084852814
20
0.1
30
0
70
32
0
SEQEND
8
0
0
POLYLINE
8
0
62
30
66
1
10
0
20
0
30
0
70
8
0
VERTEX
8
0
62
30
10
0.084852814
20
0.14
30
0
70
32
0
VERTEX
8
0
62
30
10
0.056568542
20
0.1
30
0
70
32
0
SEQEND
8
0
0
POLYLINE
8
0
62
30
66
1
10
0
20
0
30
0
70
8
0
VERTEX
8
0
62
30
10
0.028284271
20
0.12
30
0
70
32
0
VERTEX
8
0
62
30
10
0.056568542
20
0.12
30
0
70
32
0
SEQEND
8
0
0
POLYLINE
8
0
62
30
66
1
10
0
20
0
30
0
70
8
0
VERTEX
8
0
62
30
10
0.084852814
20
0.12
30
0
70
32
0
VERTEX
8
0
62
30
10
0.11313708
20
0.12
30
0
70
32
0
SEQEND
8
0
0
POLYLINE
8
0
62
5
66
1
10
0
20
0
30
0
70
8
0
VERTEX
8
0
62
5
10
0
20
0.12
30
0
70
32
0
VERTEX
8
0
62
5
10
0.014142136
20
0.12
30
0
70
32
0
SEQEND
8
0
0
POLYLINE
8
0
62
5
66
1
10
0
20
0
30
0
70
8
0
VERTEX
8
0
62
5
10
0.056568542
20
0.12
30
0
70
32
0
VERTEX
8
0
62
5
10
0.070710678
20
0.12
30
0
70
32
0
SEQEND
8
0
0
POLYLINE
8
0
62
5
66
1
10
0
20
0
30
0
70
8
0
VERTEX
8
0
62
5
10
0.014142136
20
0.12
30
0
70
32
0
VERTEX
8
0
62
5
10
0.028284271
20
0.12
30
0
70
32
0
SEQEND
8
0
0
POLYLINE
8
0
62
5
66
1
10
0
20
0
30
0
70
8
0
VERTEX
8
0
62
5
10
0.070710678
20
0.12
30
0
70
32
0
VERTEX
8
0
62
5
10
0.084852814
20
0.12
30
0
70
32
0
SEQEND
8
0
0
POLYLINE
8
0
62
5
66
1
10
0
20
0
30
0
70
8
0
VERTEX
8
0
62
5
10
0.028284271
20
0.1
30
0
70
32
0
VERTEX
8
0
62
5
10
0.028284271
20
0.14
30
0
70
32
0
SEQEND
8
0
0
POLYLINE
8
0
62
5
66
1
10
0
20
0
30
0
70
8
0
VERTEX
8
0
62
5
10
0.056568542
20
0.1
30
0
70
32
0
VERTEX
8
0
62
5
10
0.056568542
20
0.14
30
0
70
32
0
SEQEND
8
0
0
POLYLINE
8
0
62
5
66
1
10
0
20
0
30
0
70
8
0
VERTEX
8
0
62
5
10
0.084852814
20
0.1
30
0
70
32
0
VERTEX
8
0
62
5
10
0.084852814
20
0.14
30
0
70
32
0
SEQEND
8
0
0
POLYLINE
8
0
62
5
66
1
10
0
20
0
30
0
70
8
0
VERTEX
8
0
62
5
10
0
20
0.1
30
0
70
32
0
VERTEX
8
0
62
5
10
0
20
0.14
30
0
70
32
0
SEQEND
8
0
0
POLYLINE
8
0
62
5
66
1
10
0
20
0
30
0
70
8
0
VERTEX
8
0
62
5
10
0.22627417
20
0.14
30
0
70
32
0
VERTEX
8
0
62
5
10
0.22627417
20
0.1
30
0
70
32
0
SEQEND
8
0
0
POLYLINE
8
0
62
5
66
1
10
0
20
0
30
0
70
8
0
VERTEX
8
0
62
5
10
0.11313708
20
0.1
30
0
70
32
0
VERTEX
8
0
62
5
10
0.22627417
20
0.1
30
0
70
32
0
SEQEND
8
0
0
POLYLINE
8
0
62
5
66
1
10
0
20
0
30
0
70
8
0
VERTEX
8
0
62
5
10
0.11313708
20
0.14
30
0
70
32
0
VERTEX
8
0
62
5
10
0.22627417
20
0.14
30
0
70
32
0
SEQEND
8
0
0
POLYLINE
8
0
62
5
66
1
10
0
20
0
30
0
70
8
0
VERTEX
8
0
62
5
10
0.14142136
20
0.1
30
0
70
32
0
VERTEX
8
0
62
5
10
0.14142136
20
0.1
30
0
70
32
0
SEQEND
8
0
0
POLYLINE
8
0
62
5
66
1
10
0
20
0
30
0
70
8
0
VERTEX
8
0
62
5
10
0.16970563
20
0.1
30
0
70
32
0
VERTEX
8
0
62
5
10
0.16970563
20
0.1
30
0
70
32
0
SEQEND
8
0
0
POLYLINE
8
0
62
5
66
1
10
0
20
0
30
0
70
8
0
VERTEX
8
0
62
5
10
0.1979899
20
0.1
30
0
70
32
0
VERTEX
8
0
62
5
10
0.1979899
20
0.1
30
0
70
32
0
SEQEND
8
0
0
POLYLINE
8
0
62
5
66
1
10
0
20
0
30
0
70
8
0
VERTEX
8
0
62
5
10
0.14142136
20
0.14
30
0
70
32
0
VERTEX
8
0
62
5
10
0.14142136
20
0.14
30
0
70
32
0
SEQEND
8
0
0
POLYLINE
8
0
62
5
66
1
10
0
20
0
30
0
70
8
0
VERTEX
8
0
62
5
10
0.16970563
20
0.14
30
0
70
32
0
VERTEX
8
0
62
5
10
0.16970563
20
0.14
30
0
70
32
0
SEQEND
8
0
0
POLYLINE
8
0
62
5
66
1
10
0
20
0
30
0
70
8
0
VERTEX
8
0
62
5
10
0.1979899
20
0.14
30
0
70
32
0
VERTEX
8
0
62
5
10
0.1979899
20
0.14
30
0
70
32
0
SEQEND
8
0
0
POLYLINE
8
0
62
30
66
1
10
0
20
0
30
0
70
8
0
VERTEX
8
0
62
30
10
0.11313708
20
0.14
30
0
70
32
0
VERTEX
8
0
62
30
10
0.14142136
20
0.1
30
0
70
32
0
SEQEND
8
0
0
POLYLINE
8
0
62
30
66
1
10
0
20
0
30
0
70
8
0
VERTEX
8
0
62
30
10
0.14142136
20
0.14
30
0
70
32
0
VERTEX
8
0
62
30
10
0.11313708
20
0.1
30
0
70
32
0
SEQEND
8
0
0
POLYLINE
8
0
62
30
66
1
10
0
20
0
30
0
70
8
0
VERTEX
8
0
62
30
10
0.16970563
20
0.14
30
0
70
32
0
VERTEX
8
0
62
30
10
0.1979899
20
0.1
30
0
70
32
0
SEQEND
8
0
0
POLYLINE
8
0
62
30
66
1
10
0
20
0
30
0
70
8
0
VERTEX
8
0
62
30
10
0.1979899
20
0.14
30
0
70
32
0
VERTEX
8
0
62
30
10
0.16970563
20
0.1
30
0
70
32
0
SEQEND
8
0
0
POLYLINE
8
0
62
30
66
1
10
0
20
0
30
0
70
8
0
VERTEX
8
0
62
30
10
0.14142136
20
0.12
30
0
70
32
0
VERTEX
8
0
62
30
10
0.16970563
20
0.12
30
0
70
32
0
SEQEND
8
0
0
POLYLINE
8
0
62
30
66
1
10
0
20
0
30
0
70
8
0
VERTEX
8
0
62
30
10
0.1979899
20
0.12
30
0
70
32
0
VERTEX
8
0
62
30
10
0.22627417
20
0.12
30
0
70
32
0
SEQEND
8
0
0
POLYLINE
8
0
62
5
66
1
10
0
20
0
30
0
70
8
0
VERTEX
8
0
62
5
10
0.11313708
20
0.12
30
0
70
32
0
VERTEX
8
0
62
5
10
0.12727922
20
0.12
30
0
70
32
0
SEQEND
8
0
0
POLYLINE
8
0
62
5
66
1
10
0
20
0
30
0
70
8
0
VERTEX
8
0
62
5
10
0.16970563
20
0.12
30
0
70
32
0
VERTEX
8
0
62
5
10
0.18384776
20
0.12
30
0
70
32
0
SEQEND
8
0
0
POLYLINE
8
0
62
5
66
1
10
0
20
0
30
0
70
8
0
VERTEX
8
0
62
5
10
0.12727922
20
0.12
30
0
70
32
0
VERTEX
8
0
62
5
10
0.14142136
20
0.12
30
0
70
32
0
SEQEND
8
0
0
POLYLINE
8
0
62
5
66
1
10
0
20
0
30
0
70
8
0
VERTEX
8
0
62
5
10
0.18384776
20
0.12
30
0
70
32
0
VERTEX
8
0
62
5
10
0.1979899
20
0.12
30
0
70
32
0
SEQEND
8
0
0
POLYLINE
8
0
62
5
66
1
10
0
20
0
30
0
70
8
0
VERTEX
8
0
62
5
10
0.14142136
20
0.1
30
0
70
32
0
VERTEX
8
0
62
5
10
0.14142136
20
0.14
30
0
70
32
0
SEQEND
8
0
0
POLYLINE
8
0
62
5
66
1
10
0
20
0
30
0
70
8
0
VERTEX
8
0
62
5
10
0.16970563
20
0.1
30
0
70
32
0
VERTEX
8
0
62
5
10
0.16970563
20
0.14
30
0
70
32
0
SEQEND
8
0
0
POLYLINE
8
0
62
5
66
1
10
0
20
0
30
0
70
8
0
VERTEX
8
0
62
5
10
0.1979899
20
0.1
30
0
70
32
0
VERTEX
8
0
62
5
10
0.1979899
20
0.14
30
0
70
32
0
SEQEND
8
0
0
POLYLINE
8
0
62
5
66
1
10
0
20
0
30
0
70
8
0
VERTEX
8
0
62
5
10
0.11313708
20
0.1
30
0
70
32
0
VERTEX
8
0
62
5
10
0.11313708
20
0.14
30
0
70
32
0
SEQEND
8
0
0
POLYLINE
8
0
62
5
66
1
10
0
20
0
30
0
70
8
0
VERTEX
8
0
62
5
10
-0.11313708
20
0.1
30
0
70
32
0
VERTEX
8
0
62
5
10
-0.11313708
20
0.14
30
0
70
32
0
SEQEND
8
0
0
POLYLINE
8
0
62
5
66
1
10
0
20
0
30
0
70
8
0
VERTEX
8
0
62
5
10
-0.11313708
20
0.1
30
0
70
32
0
VERTEX
8
0
62
5
10
0
20
0.1
30
0
70
32
0
SEQEND
8
0
0
POLYLINE
8
0
62
5
66
1
10
0
20
0
30
0
70
8
0
VERTEX
8
0
62
5
10
-0.11313708
20
0.14
30
0
70
32
0
VERTEX
8
0
62
5
10
0
20
0.14
30
0
70
32
0
SEQEND
8
0
0
POLYLINE
8
0
62
5
66
1
10
0
20
0
30
0
70
8
0
VERTEX
8
0
62
5
10
-0.084852814
20
0.1
30
0
70
32
0
VERTEX
8
0
62
5
10
-0.084852814
20
0.1
30
0
70
32
0
SEQEND
8
0
0
POLYLINE
8
0
62
5
66
1
10
0
20
0
30
0
70
8
0
VERTEX
8
0
62
5
10
-0.056568542
20
0.1
30
0
70
32
0
VERTEX
8
0
62
5
10
-0.056568542
20
0.1
30
0
70
32
0
SEQEND
8
0
0
POLYLINE
8
0
62
5
66
1
10
0
20
0
30
0
70
8
0
VERTEX
8
0
62
5
10
-0.028284271
20
0.1
30
0
70
32
0
VERTEX
8
0
62
5
10
-0.028284271
20
0.1
30
0
70
32
0
SEQEND
8
0
0
POLYLINE
8
0
62
5
66
1
10
0
20
0
30
0
70
8
0
VERTEX
8
0
62
5
10
-0.084852814
20
0.14
30
0
70
32
0
VERTEX
8
0
62
5
10
-0.084852814
20
0.14
30
0
70
32
0
SEQEND
8
0
0
POLYLINE
8
0
62
5
66
1
10
0
20
0
30
0
70
8
0
VERTEX
8
0
62
5
10
-0.056568542
20
0.14
30
0
70
32
0
VERTEX
8
0
62
5
10
-0.056568542
20
0.14
30
0
70
32
0
SEQEND
8
0
0
POLYLINE
8
0
62
5
66
1
10
0
20
0
30
0
70
8
0
VERTEX
8
0
62
5
10
-0.028284271
20
0.14
30
0
70
32
0
VERTEX
8
0
62
5
10
-0.028284271
20
0.14
30
0
70
32
0
SEQEND
8
0
0
POLYLINE
8
0
62
30
66
1
10
0
20
0
30
0
70
8
0
VERTEX
8
0
62
30
10
-0.11313708
20
0.14
30
0
70
32
0
VERTEX
8
0
62
30
10
-0.084852814
20
0.1
30
0
70
32
0
SEQEND
8
0
0
POLYLINE
8
0
62
30
66
1
10
0
20
0
30
0
70
8
0
VERTEX
8
0
62
30
10
-0.084852814
20
0.14
30
0
70
32
0
VERTEX
8
0
62
30
10
-0.11313708
20
0.1
30
0
70
32
0
SEQEND
8
0
0
POLYLINE
8
0
62
30
66
1
10
0
20
0
30
0
70
8
0
VERTEX
8
0
62
30
10
-0.056568542
20
0.14
30
0
70
32
0
VERTEX
8
0
62
30
10
-0.028284271
20
0.1
30
0
70
32
0
SEQEND
8
0
0
POLYLINE
8
0
62
30
66
1
10
0
20
0
30
0
70
8
0
VERTEX
8
0
62
30
10
-0.028284271
20
0.14
30
0
70
32
0
VERTEX
8
0
62
30
10
-0.056568542
20
0.1
30
0
70
32
0
SEQEND
8
0
0
POLYLINE
8
0
62
30
66
1
10
0
20
0
30
0
70
8
0
VERTEX
8
0
62
30
10
-0.084852814
20
0.12
30
0
70
32
0
VERTEX
8
0
62
30
10
-0.056568542
20
0.12
30
0
70
32
0
SEQEND
8
0
0
POLYLINE
8
0
62
30
66
1
10
0
20
0
30
0
70
8
0
VERTEX
8
0
62
30
10
-0.028284271
20
0.12
30
0
70
32
0
VERTEX
8
0
62
30
10
0
20
0.12
30
0
70
32
0
SEQEND
8
0
0
POLYLINE
8
0
62
5
66
1
10
0
20
0
30
0
70
8
0
VERTEX
8
0
62
5
10
-0.11313708
20
0.12
30
0
70
32
0
VERTEX
8
0
62
5
10
-0.098994949
20
0.12
30
0
70
32
0
SEQEND
8
0
0
POLYLINE
8
0
62
5
66
1
10
0
20
0
30
0
70
8
0
VERTEX
8
0
62
5
10
-0.056568542
20
0.12
30
0
70
32
0
VERTEX
8
0
62
5
10
-0.042426407
20
0.12
30
0
70
32
0
SEQEND
8
0
0
POLYLINE
8
0
62
5
66
1
10
0
20
0
30
0
70
8
0
VERTEX
8
0
62
5
10
-0.098994949
20
0.12
30
0
70
32
0
VERTEX
8
0
62
5
10
-0.084852814
20
0.12
30
0
70
32
0
SEQEND
8
0
0
POLYLINE
8
0
62
5
66
1
10
0
20
0
30
0
70
8
0
VERTEX
8
0
62
5
10
-0.042426407
20
0.12
30
0
70
32
0
VERTEX
8
0
62
5
10
-0.028284271
20
0.12
30
0
70
32
0
SEQEND
8
0
0
POLYLINE
8
0
62
5
66
1
10
0
20
0
30
0
70
8
0
VERTEX
8
0
62
5
10
-0.084852814
20
0.1
30
0
70
32
0
VERTEX
8
0
62
5
10
-0.084852814
20
0.14
30
0
70
32
0
SEQEND
8
0
0
POLYLINE
8
0
62
5
66
1
10
0
20
0
30
0
70
8
0
VERTEX
8
0
62
5
10
-0.056568542
20
0.1
30
0
70
32
0
VERTEX
8
0
62
5
10
-0.056568542
20
0.14
30
0
70
32
0
SEQEND
8
0
0
POLYLINE
8
0
62
5
66
1
10
0
20
0
30
0
70
8
0
VERTEX
8
0
62
5
10
-0.028284271
20
0.1
30
0
70
32
0
VERTEX
8
0
62
5
10
-0.028284271
20
0.14
30
0
70
32
0
SEQEND
8
0
0
POLYLINE
8
0
62
5
66
1
10
0
20
0
30
0
70
8
0
VERTEX
8
0
62
5
10
-0.11313708
20
0.1
30
0
70
32
0
VERTEX
8
0
62
5
10
-0.11313708
20
0.14
30
0
70
32
0
SEQEND
8
0
0
POLYLINE
8
0
62
5
66
1
10
0
20
0
30
0
70
8
0
VERTEX
8
0
62
5
10
0
20
0.14
30
0
70
32
0
VERTEX
8
0
62
5
10
0
20
0.14612431
30
0
70
32
0
SEQEND
8
0
0
POLYLINE
8
0
62
5
66
1
10
0
20
0
30
0
70
8
0
VERTEX
8
0
62
5
10
0.11313708
20
0.14612431
30
0
70
32
0
VERTEX
8
0
62
5
10
0.11313708
20
0.14
30
0
70
32
0
SEQEND
8
0
0
POLYLINE
8
0
62
5
66
1
10
0
20
0
30
0
70
8
0
VERTEX
8
0
62
5
10
0
20
0.14306215
30
0
70
32
0
VERTEX
8
0
62
5
10
0.028284271
20
0.14052538
30
0
70
32
0
VERTEX
8
0
62
5
10
0.056568542
20
0.14052538
30
0
70
32
0
VERTEX
8
0
62
5
10
0.084852814
20
0.14306215
30
0
70
32
0
VERTEX
8
0
62
5
10
0.11313708
20
0.14306215
30
0
70
32
0
SEQEND
8
0
0
POLYLINE
8
0
62
5
66
1
10
0
20
0
30
0
70
8
0
SEQEND
8
0
0
POLYLINE
8
0
62
5
66
1
10
0
20
0
30
0
70
8
0
VERTEX
8
0
62
5
10
0
20
0.14306215
30
0
70
32
0
VERTEX
8
0
62
5
10
0.028284271
20
0.14559893
30
0
70
32
0
VERTEX
8
0
62
5
10
0.056568542
20
0.14559893
30
0
70
32
0
VERTEX
8
0
62
5
10
0.084852814
20
0.14306216
30
0
70
32
0
VERTEX
8
0
62
5
10
0.11313708
20
0.14306215
30
0
70
32
0
SEQEND
8
0
0
POLYLINE
8
0
62
30
66
1
10
0
20
0
30
0
70
8
0
VERTEX
8
0
62
30
10
0
20
0.14306215
30
0
70
32
0
VERTEX
8
0
62
30
10
0.11313708
20
0.14306215
30
0
70
32
0
SEQEND
8
0
0
POLYLINE
8
0
62
30
66
1
10
0
20
0
30
0
70
8
0
VERTEX
8
0
62
30
10
0.028284271
20
0.14052538
30
0
70
32
0
VERTEX
8
0
62
30
10
0.028284271
20
0.14306215
30
0
70
32
0
SEQEND
8
0
0
POLYLINE
8
0
62
30
66
1
10
0
20
0
30
0
70
8
0
VERTEX
8
0
62
30
10
0.056568542
20
0.14052538
30
0
70
32
0
VERTEX
8
0
62
30
10
0.056568542
20
0.14306215
30
0
70
32
0
SEQEND
8
0
0
POLYLINE
8
0
62
30
66
1
10
0
20
0
30
0
70
8
0
VERTEX
8
0
62
30
10
0.084852814
20
0.14306215
30
0
70
32
0
VERTEX
8
0
62
30
10
0.084852814
20
0.14306215
30
0
70
32
0
SEQEND
8
0
0
POLYLINE
8
0
62
5
66
1
10
0
20
0
30
0
70
8
0
VERTEX
8
0
62
5
10
0.028284271
20
0.14
30
0
70
32
0
VERTEX
8
0
62
5
10
0.028284271
20
0.14052538
30
0
70
32
0
SEQEND
8
0
0
POLYLINE
8
0
62
5
66
1
10
0
20
0
30
0
70
8
0
VERTEX
8
0
62
5
10
0.056568542
20
0.14
30
0
70
32
0
VERTEX
8
0
62
5
10
0.056568542
20
0.14052538
30
0
70
32
0
SEQEND
8
0
0
POLYLINE
8
0
62
5
66
1
10
0
20
0
30
0
70
8
0
VERTEX
8
0
62
5
10
0.084852814
20
0.14
30
0
70
32
0
VERTEX
8
0
62
5
10
0.084852814
20
0.14306215
30
0
70
32
0
SEQEND
8
0
0
POLYLINE
8
0
62
5
66
1
10
0
20
0
30
0
70
8
0
VERTEX
8
0
62
5
10
0.028284271
20
0.14306215
30
0
70
32
0
VERTEX
8
0
62
5
10
0.028284271
20
0.14612431
30
0
70
32
0
SEQEND
8
0
0
POLYLINE
8
0
62
5
66
1
10
0
20
0
30
0
70
8
0
VERTEX
8
0
62
5
10
0.056568542
20
0.14306215
30
0
70
32
0
VERTEX
8
0
62
5
10
0.056568542
20
0.14612431
30
0
70
32
0
SEQEND
8
0
0
POLYLINE
8
0
62
5
66
1
10
0
20
0
30
0
70
8
0
VERTEX
8
0
62
5
10
0.084852814
20
0.14306215
30
0
70
32
0
VERTEX
8
0
62
5
10
0.084852814
20
0.14612431
30
0
70
32
0
SEQEND
8
0
0
POLYLINE
8
0
62
30
66
1
10
0
20
0
30
0
70
8
0
VERTEX
8
0
62
30
10
0
20
0.14306215
30
0
70
32
0
VERTEX
8
0
62
30
10
0
20
0.14306215
30
0
70
32
0
VERTEX
8
0
62
30
10
0
20
0.14306215
30
0
70
32
0
SEQEND
8
0
0
POLYLINE
8
0
62
30
66
1
10
0
20
0
30
0
70
8
0
VERTEX
8
0
62
30
10
0.028284271
20
0.14052538
30
0
70
32
0
VERTEX
8
0
62
30
10
0.030603706
20
0.14306215
30
0
70
32
0
VERTEX
8
0
62
30
10
0.028284271
20
0.14559893
30
0
70
32
0
SEQEND
8
0
0
POLYLINE
8
0
62
30
66
1
10
0
20
0
30
0
70
8
0
VERTEX
8
0
62
30
10
0.056568542
20
0.14052538
30
0
70
32
0
VERTEX
8
0
62
30
10
0.058887979
20
0.14306215
30
0
70
32
0
VERTEX
8
0
62
30
10
0.056568542
20
0.14559893
30
0
70
32
0
SEQEND
8
0
0
POLYLINE
8
0
62
30
66
1
10
0
20
0
30
0
70
8
0
VERTEX
8
0
62
30
10
0.084852814
20
0.14306215
30
0
70
32
0
VERTEX
8
0
62
30
10
0.084852815
20
0.14306215
30
0
70
32
0
VERTEX
8
0
62
30
10
0.084852814
20
0.14306216
30
0
70
32
0
SEQEND
8
0
0
POLYLINE
8
0
62
5
66
1
10
0
20
0
30
0
70
8
0
VERTEX
8
0
62
5
10
0.22627417
20
0.14612431
30
0
70
32
0
VERTEX
8
0
62
5
10
0.22627417
20
0.14
30
0
70
32
0
SEQEND
8
0
0
POLYLINE
8
0
62
5
66
1
10
0
20
0
30
0
70
8
0
VERTEX
8
0
62
5
10
0.11313708
20
0.14306215
30
0
70
32
0
VERTEX
8
0
62
5
10
0.14142136
20
0.14052538
30
0
70
32
0
VERTEX
8
0
62
5
10
0.16970563
20
0.14052538
30
0
70
32
0
VERTEX
8
0
62
5
10
0.1979899
20
0.14306215
30
0
70
32
0
VERTEX
8
0
62
5
10
0.22627417
20
0.14306215
30
0
70
32
0
SEQEND
8
0
0
POLYLINE
8
0
62
5
66
1
10
0
20
0
30
0
70
8
0
SEQEND
8
0
0
POLYLINE
8
0
62
5
66
1
10
0
20
0
30
0
70
8
0
VERTEX
8
0
62
5
10
0.11313708
20
0.14306215
30
0
70
32
0
VERTEX
8
0
62
5
10
0.14142136
20
0.14559893
30
0
70
32
0
VERTEX
8
0
62
5
10
0.16970563
20
0.14559893
30
0
70
32
0
VERTEX
8
0
62
5
10
0.1979899
20
0.14306216
30
0
70
32
0
VERTEX
8
0
62
5
10
0.22627417
20
0.14306215
30
0
70
32
0
SEQEND
8
0
0
POLYLINE
8
0
62
30
66
1
10
0
20
0
30
0
70
8
0
VERTEX
8
0
62
30
10
0.11313708
20
0.14306215
30
0
70
32
0
VERTEX
8
0
62
30
10
0.22627417
20
0.14306215
30
0
70
32
0
SEQEND
8
0
0
POLYLINE
8
0
62
30
66
1
10
0
20
0
30
0
70
8
0
VERTEX
8
0
62
30
10
0.14142136
20
0.14052538
30
0
70
32
0
VERTEX
8
0
62
30
10
0.14142136
20
0.14306215
30
0
70
32
0
SEQEND
8
0
0
POLYLINE
8
0
62
30
66
1
10
0
20
0
30
0
70
8
0
VERTEX
8
0
62
30
10
0.16970563
20
0.14052538
30
0
70
32
0
VERTEX
8
0
62
30
10
0.16970563
20
0.14306215
30
0
70
32
0
SEQEND
8
0
0
POLYLINE
8
0
62
30
66
1
10
0
20
0
30
0
70
8
0
VERTEX
8
0
62
30
10
0.1979899
20
0.14306215
30
0
70
32
0
VERTEX
8
0
62
30
10
0.1979899
20
0.14306215
30
0
70
32
0
SEQEND
8
0
0
POLYLINE
8
0
62
5
66
1
10
0
20
0
30
0
70
8
0
VERTEX
8
0
62
5
10
0.14142136
20
0.14
30
0
70
32
0
VERTEX
8
0
62
5
10
0.14142136
20
0.14052538
30
0
70
32
0
SEQEND
8
0
0
POLYLINE
8
0
62
5
66
1
10
0
20
0
30
0
70
8
0
VERTEX
8
0
62
5
10
0.16970563
20
0.14
30
0
70
32
0
VERTEX
8
0
62
5
10
0.16970563
20
0.14052538
30
0
70
32
0
SEQEND
8
0
0
POLYLINE
8
0
62
5
66
1
10
0
20
0
30
0
70
8
0
VERTEX
8
0
62
5
10
0.1979899
20
0.14
30
0
70
32
0
VERTEX
8
0
62
5
10
0.1979899
20
0.14306215
30
0
70
32
0
SEQEND
8
0
0
POLYLINE
8
0
62
5
66
1
10
0
20
0
30
0
70
8
0
VERTEX
8
0
62
5
10
0.14142136
20
0.14306215
30
0
70
32
0
VERTEX
8
0
62
5
10
0.14142136
20
0.14612431
30
0
70
32
0
SEQEND
8
0
0
POLYLINE
8
0
62
5
66
1
10
0
20
0
30
0
70
8
0
VERTEX
8
0
62
5
10
0.16970563
20
0.14306215
30
0
70
32
0
VERTEX
8
0
62
5
10
0.16970563
20
0.14612431
30
0
70
32
0
SEQEND
8
0
0
POLYLINE
8
0
62
5
66
1
10
0
20
0
30
0
70
8
0
VERTEX
8
0
62
5
10
0.1979899
20
0.14306215
30
0
70
32
0
VERTEX
8
0
62
5
10
0.1979899
20
0.14612431
30
0
70
32
0
SEQEND
8
0
0
POLYLINE
8
0
62
30
66
1
10
0
20
0
30
0
70
8
0
VERTEX
8
0
62
30
10
0.11313708
20
0.14306215
30
0
70
32
0
VERTEX
8
0
62
30
10
0.11313708
20
0.14306215
30
0
70
32
0
VERTEX
8
0
62
30
10
0.11313708
20
0.14306215
30
0
70
32
0
SEQEND
8
0
0
POLYLINE
8
0
62
30
66
1
10
0
20
0
30
0
70
8
0
VERTEX
8
0
62
30
10
0.14142136
20
0.14052538
30
0
70
32
0
VERTEX
8
0
62
30
10
0.14374079
20
0.14306215
30
0
70
32
0
VERTEX
8
0
62
30
10
0.14142136
20
0.14559893
30
0
70
32
0
SEQEND
8
0
0
POLYLINE
8
0
62
30
66
1
10
0
20
0
30
0
70
8
0
VERTEX
8
0
62
30
10
0.16970563
20
0.14052538
30
0
70
32
0
VERTEX
8
0
62
30
10
0.17202506
20
0.14306215
30
0
70
32
0
VERTEX
8
0
62
30
10
0.16970563
20
0.14559893
30
0
70
32
0
SEQEND
8
0
0
POLYLINE
8
0
62
30
66
1
10
0
20
0
30
0
70
8
0
VERTEX
8
0
62
30
10
0.1979899
20
0.14306215
30
0
70
32
0
VERTEX
8
0
62
30
10
0.1979899
20
0.14306215
30
0
70
32
0
VERTEX
8
0
62
30
10
0.1979899
20
0.14306216
30
0
70
32
0
SEQEND
8
0
0
POLYLINE
8
0
62
5
66
1
10
0
20
0
30
0
70
8
0
VERTEX
8
0
62
5
10
-0.11313708
20
0.14
30
0
70
32
0
VERTEX
8
0
62
5
10
-0.11313708
20
0.14612431
30
0
70
32
0
SEQEND
8
0
0
POLYLINE
8
0
62
5
66
1
10
0
20
0
30
0
70
8
0
VERTEX
8
0
62
5
10
-0.11313708
20
0.14306215
30
0
70
32
0
VERTEX
8
0
62
5
10
-0.084852814
20
0.14052538
30
0
70
32
0
VERTEX
8
0
62
5
10
-0.056568542
20
0.14052538
30
0
70
32
0
VERTEX
8
0
62
5
10
-0.028284271
20
0.14306215
30
0
70
32
0
VERTEX
8
0
62
5
10
0
20
0.14306215
30
0
70
32
0
SEQEND
8
0
0
POLYLINE
8
0
62
5
66
1
10
0
20
0
30
0
70
8
0
SEQEND
8
0
0
POLYLINE
8
0
62
5
66
1
10
0
20
0
30
0
70
8
0
VERTEX
8
0
62
5
10
-0.11313708
20
0.14306215
30
0
70
32
0
VERTEX
8
0
62
5
10
-0.084852814
20
0.14559893
30
0
70
32
0
VERTEX
8
0
62
5
10
-0.056568542
20
0.14559893
30
0
70
32
0
VERTEX
8
0
62
5
10
-0.028284271
20
0.14306216
30
0
70
32
0
VERTEX
8
0
62
5
10
0
20
0.14306215
30
0
70
32
0
SEQEND
8
0
0
POLYLINE
8
0
62
30
66
1
10
0
20
0
30
0
70
8
0
VERTEX
8
0
62
30
10
-0.11313708
20
0.14306215
30
0
70
32
0
VERTEX
8
0
62
30
10
0
20
0.14306215
30
0
70
32
0
SEQEND
8
0
0
POLYLINE
8
0
62
30
66
1
10
0
20
0
30
0
70
8
0
VERTEX
8
0
62
30
10
-0.084852814
20
0.14052538
30
0
70
32
0
VERTEX
8
0
62
30
10
-0.084852814
20
0.14306215
30
0
70
32
0
SEQEND
8
0
0
POLYLINE
8
0
62
30
66
1
10
0
20
0
30
0
70
8
0
VERTEX
8
0
62
30
10
-0.056568542
20
0.14052538
30
0
70
32
0
VERTEX
8
0
62
30
10
-0.056568542
20
0.14306215
30
0
70
32
0
SEQEND
8
0
0
POLYLINE
8
0
62
30
66
1
10
0
20
0
30
0
70
8
0
VERTEX
8
0
62
30
10
-0.028284271
20
0.14306215
30
0
70
32
0
VERTEX
8
0
62
30
10
-0.028284271
20
0.14306215
30
0
70
32
0
SEQEND
8
0
0
POLYLINE
8
0
62
5
66
1
10
0
20
0
30
0
70
8
0
VERTEX
8
0
62
5
10
-0.084852814
20
0.14
30
0
70
32
0
VERTEX
8
0
62
5
10
-0.084852814
20
0.14052538
30
0
70
32
0
SEQEND
8
0
0
POLYLINE
8
0
62
5
66
1
10
0
20
0
30
0
70
8
0
VERTEX
8
0
62
5
10
-0.056568542
20
0.14
30
0
70
32
0
VERTEX
8
0
62
5
10
-0.056568542
20
0.14052538
30
0
70
32
0
SEQEND
8
0
0
POLYLINE
8
0
62
5
66
1
10
0
20
0
30
0
70
8
0
VERTEX
8
0
62
5
10
-0.028284271
20
0.14
30
0
70
32
0
VERTEX
8
0
62
5
10
-0.028284271
20
0.14306215
30
0
70
32
0
SEQEND
8
0
0
POLYLINE
8
0
62
5
66
1
10
0
20
0
30
0
70
8
0
VERTEX
8
0
62
5
10
-0.084852814
20
0.14306215
30
0
70
32
0
VERTEX
8
0
62
5
10
-0.084852814
20
0.14612431
30
0
70
32
0
SEQEND
8
0
0
POLYLINE
8
0
62
5
66
1
10
0
20
0
30
0
70
8
0
VERTEX
8
0
62
5
10
-0.056568542
20
0.14306215
30
0
70
32
0
VERTEX
8
0
62
5
10
-0.056568542
20
0.14612431
30
0
70
32
0
SEQEND
8
0
0
POLYLINE
8
0
62
5
66
1
10
0
20
0
30
0
70
8
0
VERTEX
8
0
62
5
10
-0.028284271
20
0.14306215
30
0
70
32
0
VERTEX
8
0
62
5
10
-0.028284271
20
0.14612431
30
0
70
32
0
SEQEND
8
0
0
POLYLINE
8
0
62
30
66
1
10
0
20
0
30
0
70
8
0
VERTEX
8
0
62
30
10
-0.11313708
20
0.14306215
30
0
70
32
0
VERTEX
8
0
62
30
10
-0.11313708
20
0.14306215
30
0
70
32
0
VERTEX
8
0
62
30
10
-0.11313708
20
0.14306215
30
0
70
32
0
SEQEND
8
0
0
POLYLINE
8
0
62
30
66
1
10
0
20
0
30
0
70
8
0
VERTEX
8
0
62
30
10
-0.084852814
20
0.14052538
30
0
70
32
0
VERTEX
8
0
62
30
10
-0.082533379
20
0.14306215
30
0
70
32
0
VERTEX
8
0
62
30
10
-0.084852814
20
0.14559893
30
0
70
32
0
SEQEND
8
0
0
POLYLINE
8
0
62
30
66
1
10
0
20
0
30
0
70
8
0
VERTEX
8
0
62
30
10
-0.056568542
20
0.14052538
30
0
70
32
0
VERTEX
8
0
62
30
10
-0.054249106
20
0.14306215
30
0
70
32
0
VERTEX
8
0
62
30
10
-0.056568542
20
0.14559893
30
0
70
32
0
SEQEND
8
0
0
POLYLINE
8
0
62
30
66
1
10
0
20
0
30
0
70
8
0
VERTEX
8
0
62
30
10
-0.028284271
20
0.14306215
30
0
70
32
0
VERTEX
8
0
62
30
10
-0.02828427
20
0.14306215
30
0
70
32
0
VERTEX
8
0
62
30
10
-0.028284271
20
0.14306216
30
0
70
32
0
SEQEND
8
0
0
POLYLINE
8
0
62
5
66
1
10
0
20
0
30
0
70
8
0
VERTEX
8
0
62
5
10
0
20
0.14612431
30
0
70
32
0
VERTEX
8
0
62
5
10
0
20
0.17719665
30
0
70
32
0
SEQEND
8
0
0
POLYLINE
8
0
62
5
66
1
10
0
20
0
30
0
70
8
0
VERTEX
8
0
62
5
10
0.028284271
20
0.14612431
30
0
70
32
0
VERTEX
8
0
62
5
10
0.028284271
20
0.17719665
30
0
70
32
0
SEQEND
8
0
0
POLYLINE
8
0
62
5
66
1
10
0
20
0
30
0
70
8
0
VERTEX
8
0
62
5
10
0.056568542
20
0.14612431
30
0
70
32
0
VERTEX
8
0
62
5
10
0.056568542
20
0.17719665
30
0
70
32
0
SEQEND
8
0
0
POLYLINE
8
0
62
5
66
1
10
0
20
0
30
0
70
8
0
VERTEX
8
0
62
5
10
0.084852814
20
0.14612431
30
0
70
32
0
VERTEX
8
0
62
5
10
0.084852814
20
0.17719665
30
0
70
32
0
SEQEND
8
0
0
POLYLINE
8
0
62
5
66
1
10
0
20
0
30
0
70
8
0
VERTEX
8
0
62
5
10
0.11313708
20
0.14612431
30
0
70
32
0
VERTEX
8
0
62
5
10
0.11313708
20
0.17719665
30
0
70
32
0
SEQEND
8
0
0
POLYLINE
8
0
62
5
66
1
10
0
20
0
30
0
70
8
0
VERTEX
8
0
62
5
10
0.028284271
20
0.14612431
30
0
70
32
0
VERTEX
8
0
62
5
10
0.028284271
20
0.14612431
30
0
70
32
0
SEQEND
8
0
0
POLYLINE
8
0
62
5
66
1
10
0
20
0
30
0
70
8
0
VERTEX
8
0
62
5
10
0.056568542
20
0.14612431
30
0
70
32
0
VERTEX
8
0
62
5
10
0.056568542
20
0.14612431
30
0
70
32
0
SEQEND
8
0
0
POLYLINE
8
0
62
5
66
1
10
0
20
0
30
0
70
8
0
VERTEX
8
0
62
5
10
0.084852814
20
0.14612431
30
0
70
32
0
VERTEX
8
0
62
5
10
0.084852814
20
0.14612431
30
0
70
32
0
SEQEND
8
0
0
POLYLINE
8
0
62
5
66
1
10
0
20
0
30
0
70
8
0
VERTEX
8
0
62
5
10
1.7254211e-08
20
0.17719665
30
0
70
32
0
VERTEX
8
0
62
5
10
1.7254211e-08
20
0.17719665
30
0
70
32
0
SEQEND
8
0
0
POLYLINE
8
0
62
5
66
1
10
0
20
0
30
0
70
8
0
VERTEX
8
0
62
5
10
0.028284289
20
0.17719665
30
0
70
32
0
VERTEX
8
0
62
5
10
0.028284289
20
0.17719665
30
0
70
32
0
SEQEND
8
0
0
POLYLINE
8
0
62
5
66
1
10
0
20
0
30
0
70
8
0
VERTEX
8
0
62
5
10
0.05656856
20
0.17719665
30
0
70
32
0
VERTEX
8
0
62
5
10
0.05656856
20
0.17719665
30
0
70
32
0
SEQEND
8
0
0
POLYLINE
8
0
62
5
66
1
10
0
20
0
30
0
70
8
0
VERTEX
8
0
62
5
10
0.084852831
20
0.17719665
30
0
70
32
0
VERTEX
8
0
62
5
10
0.084852831
20
0.17719665
30
0
70
32
0
SEQEND
8
0
0
POLYLINE
8
0
62
5
66
1
10
0
20
0
30
0
70
8
0
VERTEX
8
0
62
5
10
0.14142136
20
0.14612431
30
0
70
32
0
VERTEX
8
0
62
5
10
0.14142136
20
0.17719665
30
0
70
32
0
SEQEND
8
0
0
POLYLINE
8
0
62
5
66
1
10
0
20
0
30
0
70
8
0
VERTEX
8
0
62
5
10
0.16970563
20
0.14612431
30
0
70
32
0
VERTEX
8
0
62
5
10
0.16970563
20
0.17719665
30
0
70
32
0
SEQEND
8
0
0
POLYLINE
8
0
62
5
66
1
10
0
20
0
30
0
70
8
0
VERTEX
8
0
62
5
10
0.1979899
20
0.14612431
30
0
70
32
0
VERTEX
8
0
62
5
10
0.1979899
20
0.17719665
30
0
70
32
0
SEQEND
8
0
0
POLYLINE
8
0
62
5
66
1
10
0
20
0
30
0
70
8
0
VERTEX
8
0
62
5
10
0.22627417
20
0.14612431
30
0
70
32
0
VERTEX
8
0
62
5
10
0.22627417
20
0.17719665
30
0
70
32
0
SEQEND
8
0
0
POLYLINE
8
0
62
5
66
1
10
0
20
0
30
0
70
8
0
VERTEX
8
0
62
5
10
0.14142136
20
0.14612431
30
0
70
32
0
VERTEX
8
0
62
5
10
0.14142136
20
0.14612431
30
0
70
32
0
SEQEND
8
0
0
POLYLINE
8
0
62
5
66
1
10
0
20
0
30
0
70
8
0
VERTEX
8
0
62
5
10
0.16970563
20
0.14612431
30
0
70
32
0
VERTEX
8
0
62
5
10
0.16970563
20
0.14612431
30
0
70
32
0
SEQEND
8
0
0
POLYLINE
8
0
62
5
66
1
10
0
20
0
30
0
70
8
0
VERTEX
8
0
62
5
10
0.1979899
20
0.14612431
30
0
70
32
0
VERTEX
8
0
62
5
10
0.1979899
20
0.14612431
30
0
70
32
0
SEQEND
8
0
0
POLYLINE
8
0
62
5
66
1
10
0
20
0
30
0
70
8
0
VERTEX
8
0
62
5
10
0.1131371
20
0.17719665
30
0
70
32
0
VERTEX
8
0
62
5
10
0.1131371
20
0.17719665
30
0
70
32
0
SEQEND
8
0
0
POLYLINE
8
0
62
5
66
1
10
0
20
0
30
0
70
8
0
VERTEX
8
0
62
5
10
0.14142137
20
0.17719665
30
0
70
32
0
VERTEX
8
0
62
5
10
0.14142137
20
0.17719665
30
0
70
32
0
SEQEND
8
0
0
POLYLINE
8
0
62
5
66
1
10
0
20
0
30
0
70
8
0
VERTEX
8
0
62
5
10
0.16970564
20
0.17719665
30
0
70
32
0
VERTEX
8
0
62
5
10
0.16970564
20
0.17719665
30
0
70
32
0
SEQEND
8
0
0
POLYLINE
8
0
62
5
66
1
10
0
20
0
30
0
70
8
0
VERTEX
8
0
62
5
10
0.19798992
20
0.17719665
30
0
70
32
0
VERTEX
8
0
62
5
10
0.19798992
20
0.17719665
30
0
70
32
0
SEQEND
8
0
0
POLYLINE
8
0
62
5
66
1
10
0
20
0
30
0
70
8
0
VERTEX
8
0
62
5
10
-0.084852814
20
0.14612431
30
0
70
32
0
VERTEX
8
0
62
5
10
-0.084852814
20
0.17719665
30
0
70
32
0
SEQEND
8
0
0
POLYLINE
8
0
62
5
66
1
10
0
20
0
30
0
70
8
0
VERTEX
8
0
62
5
10
-0.056568542
20
0.14612431
30
0
70
32
0
VERTEX
8
0
62
5
10
-0.056568542
20
0.17719665
30
0
70
32
0
SEQEND
8
0
0
POLYLINE
8
0
62
5
66
1
10
0
20
0
30
0
70
8
0
VERTEX
8
0
62
5
10
-0.028284271
20
0.14612431
30
0
70
32
0
VERTEX
8
0
62
5
10
-0.028284271
20
0.17719665
30
0
70
32
0
SEQEND
8
0
0
POLYLINE
8
0
62
5
66
1
10
0
20
0
30
0
70
8
0
VERTEX
8
0
62
5
10
0
20
0.14612431
30
0
70
32
0
VERTEX
8
0
62
5
10
0
20
0.17719665
30
0
70
32
0
SEQEND
8
0
0
POLYLINE
8
0
62
5
66
1
10
0
20
0
30
0
70
8
0
VERTEX
8
0
62
5
10
-0.084852814
20
0.14612431
30
0
70
32
0
VERTEX
8
0
62
5
10
-0.084852814
20
0.14612431
30
0
70
32
0
SEQEND
8
0
0
POLYLINE
8
0
62
5
66
1
10
0
20
0
30
0
70
8
0
VERTEX
8
0
62
5
10
-0.056568542
20
0.14612431
30
0
70
32
0
VERTEX
8
0
62
5
10
-0.056568542
20
0.14612431
30
0
70
32
0
SEQEND
8
0
0
POLYLINE
8
0
62
5
66
1
10
0
20
0
30
0
70
8
0
VERTEX
8
0
62
5
10
-0.028284271
20
0.14612431
30
0
70
32
0
VERTEX
8
0
62
5
10
-0.028284271
20
0.14612431
30
0
70
32
0
SEQEND
8
0
0
POLYLINE
8
0
62
5
66
1
10
0
20
0
30
0
70
8
0
VERTEX
8
0
62
5
10
-0.11313707
20
0.17719665
30
0
70
32
0
VERTEX
8
0
62
5
10
-0.11313707
20
0.17719665
30
0
70
32
0
SEQEND
8
0
0
POLYLINE
8
0
62
5
66
1
10
0
20
0
30
0
70
8
0
VERTEX
8
0
62
5
10
-0.084852796
20
0.17719665
30
0
70
32
0
VERTEX
8
0
62
5
10
-0.084852796
20
0.17719665
30
0
70
32
0
SEQEND
8
0
0
POLYLINE
8
0
62
5
66
1
10
0
20
0
30
0
70
8
0
VERTEX
8
0
62
5
10
-0.056568525
20
0.17719665
30
0
70
32
0
VERTEX
8
0
62
5
10
-0.056568525
20
0.17719665
30
0
70
32
0
SEQEND
8
0
0
POLYLINE
8
0
62
5
66
1
10
0
20
0
30
0
70
8
0
VERTEX
8
0
62
5
10
-0.028284254
20
0.17719665
30
0
70
32
0
VERTEX
8
0
62
5
10
-0.028284254
20
0.17719665
30
0
70
32
0
SEQEND
8
0
0
POLYLINE
8
0
62
5
66
1
10
0
20
0
30
0
70
8
0
VERTEX
8
0
62
5
10
0.028284289
20
0.17719665
30
0
70
32
0
VERTEX
8
0
62
5
10
0.028284289
20
0.30148601
30
0
70
32
0
SEQEND
8
0
0
POLYLINE
8
0
62
5
66
1
10
0
20
0
30
0
70
8
0
VERTEX
8
0
62
5
10
0.14142137
20
0.17719665
30
0
70
32
0
VERTEX
8
0
62
5
10
0.14142137
20
0.30148601
30
0
70
32
0
SEQEND
8
0
0
POLYLINE
8
0
62
5
66
1
10
0
20
0
30
0
70
8
0
VERTEX
8
0
62
5
10
0.05656856
20
0.17719665
30
0
70
32
0
VERTEX
8
0
62
5
10
0.05656856
20
0.30148601
30
0
70
32
0
SEQEND
8
0
0
POLYLINE
8
0
62
5
66
1
10
0
20
0
30
0
70
8
0
VERTEX
8
0
62
5
10
0.084852831
20
0.17719665
30
0
70
32
0
VERTEX
8
0
62
5
10
0.084852831
20
0.30148601
30
0
70
32
0
SEQEND
8
0
0
POLYLINE
8
0
62
5
66
1
10
0
20
0
30
0
70
8
0
VERTEX
8
0
62
5
10
0.1131371
20
0.17719665
30
0
70
32
0
VERTEX
8
0
62
5
10
0.1131371
20
0.30148601
30
0
70
32
0
SEQEND
8
0
0
POLYLINE
8
0
62
5
66
1
10
0
20
0
30
0
70
8
0
VERTEX
8
0
62
5
10
0.25455846
20
0.17719665
30
0
70
32
0
VERTEX
8
0
62
5
10
0.25455846
20
0.30148601
30
0
70
32
0
SEQEND
8
0
0
POLYLINE
8
0
62
5
66
1
10
0
20
0
30
0
70
8
0
VERTEX
8
0
62
5
10
0.16970564
20
0.17719665
30
0
70
32
0
VERTEX
8
0
62
5
10
0.16970564
20
0.30148601
30
0
70
32
0
SEQEND
8
0
0
POLYLINE
8
0
62
5
66
1
10
0
20
0
30
0
70
8
0
VERTEX
8
0
62
5
10
0.19798992
20
0.17719665
30
0
70
32
0
VERTEX
8
0
62
5
10
0.19798992
20
0.30148601
30
0
70
32
0
SEQEND
8
0
0
POLYLINE
8
0
62
5
66
1
10
0
20
0
30
0
70
8
0
VERTEX
8
0
62
5
10
0.22627419
20
0.17719665
30
0
70
32
0
VERTEX
8
0
62
5
10
0.22627419
20
0.30148601
30
0
70
32
0
SEQEND
8
0
0
POLYLINE
8
0
62
5
66
1
10
0
20
0
30
0
70
8
0
VERTEX
8
0
62
5
10
-0.084852796
20
0.17719665
30
0
70
32
0
VERTEX
8
0
62
5
10
-0.084852796
20
0.30148601
30
0
70
32
0
SEQEND
8
0
0
POLYLINE
8
0
62
5
66
1
10
0
20
0
30
0
70
8
0
VERTEX
8
0
62
5
10
-0.056568525
20
0.17719665
30
0
70
32
0
VERTEX
8
0
62
5
10
-0.056568525
20
0.30148601
30
0
70
32
0
SEQEND
8
0
0
POLYLINE
8
0
62
5
66
1
10
0
20
0
30
0
70
8
0
VERTEX
8
0
62
5
10
-0.028284254
20
0.17719665
30
0
70
32
0
VERTEX
8
0
62
5
10
-0.028284254
20
0.30148601
30
0
70
32
0
SEQEND
8
0
0
POLYLINE
8
0
62
5
66
1
10
0
20
0
30
0
70
8
0
VERTEX
8
0
62
5
10
1.7254211e-08
20
0.17719665
30
0
70
32
0
VERTEX
8
0
62
5
10
1.7254211e-08
20
0.30148601
30
0
70
32
0
SEQEND
8
0
0
POLYLINE
8
0
62
5
66
1
10
0
20
0
30
0
70
8
0
VERTEX
8
0
62
5
10
0.028284289
20
0.30148601
30
0
70
32
0
VERTEX
8
0
62
5
10
0.028284289
20
0.42635415
30
0
70
32
0
SEQEND
8
0
0
POLYLINE
8
0
62
5
66
1
10
0
20
0
30
0
70
8
0
VERTEX
8
0
62
5
10
0.14142137
20
0.42635415
30
0
70
32
0
VERTEX
8
0
62
5
10
0.14142137
20
0.30148601
30
0
70
32
0
SEQEND
8
0
0
POLYLINE
8
0
62
5
66
1
10
0
20
0
30
0
70
8
0
VERTEX
8
0
62
5
10
0.028284289
20
0.306842
30
0
70
32
0
VERTEX
8
0
62
5
10
0.05656856
20
0.30684201
30
0
70
32
0
VERTEX
8
0
62
5
10
0.084852831
20
0.33270304
30
0
70
32
0
VERTEX
8
0
62
5
10
0.1131371
20
0.33270303
30
0
70
32
0
VERTEX
8
0
62
5
10
0.14142137
20
0.306842
30
0
70
32
0
SEQEND
8
0
0
POLYLINE
8
0
62
5
66
1
10
0
20
0
30
0
70
8
0
VERTEX
8
0
62
5
10
0.028284289
20
0.36927607
30
0
70
32
0
VERTEX
8
0
62
5
10
0.05656856
20
0.36927608
30
0
70
32
0
VERTEX
8
0
62
5
10
0.084852831
20
0.39513711
30
0
70
32
0
VERTEX
8
0
62
5
10
0.1131371
20
0.3951371
30
0
70
32
0
VERTEX
8
0
62
5
10
0.14142137
20
0.36927607
30
0
70
32
0
SEQEND
8
0
0
POLYLINE
8
0
62
5
66
1
10
0
20
0
30
0
70
8
0
VERTEX
8
0
62
5
10
0.028284289
20
0.35856409
30
0
70
32
0
VERTEX
8
0
62
5
10
0.05656856
20
0.35856408
30
0
70
32
0
VERTEX
8
0
62
5
10
0.084852831
20
0.33270304
30
0
70
32
0
VERTEX
8
0
62
5
10
0.1131371
20
0.33270306
30
0
70
32
0
VERTEX
8
0
62
5
10
0.14142137
20
0.35856409
30
0
70
32
0
SEQEND
8
0
0
POLYLINE
8
0
62
5
66
1
10
0
20
0
30
0
70
8
0
VERTEX
8
0
62
5
10
0.028284289
20
0.42099816
30
0
70
32
0
VERTEX
8
0
62
5
10
0.05656856
20
0.42099814
30
0
70
32
0
VERTEX
8
0
62
5
10
0.084852831
20
0.39513711
30
0
70
32
0
VERTEX
8
0
62
5
10
0.1131371
20
0.39513713
30
0
70
32
0
VERTEX
8
0
62
5
10
0.14142137
20
0.42099816
30
0
70
32
0
SEQEND
8
0
0
POLYLINE
8
0
62
30
66
1
10
0
20
0
30
0
70
8
0
VERTEX
8
0
62
30
10
0.028284289
20
0.33270304
30
0
70
32
0
VERTEX
8
0
62
30
10
0.14142137
20
0.33270304
30
0
70
32
0
SEQEND
8
0
0
POLYLINE
8
0
62
30
66
1
10
0
20
0
30
0
70
8
0
VERTEX
8
0
62
30
10
0.028284289
20
0.39513711
30
0
70
32
0
VERTEX
8
0
62
30
10
0.14142137
20
0.39513711
30
0
70
32
0
SEQEND
8
0
0
POLYLINE
8
0
62
30
66
1
10
0
20
0
30
0
70
8
0
VERTEX
8
0
62
30
10
0.05656856
20
0.30684201
30
0
70
32
0
VERTEX
8
0
62
30
10
0.05656856
20
0.33270304
30
0
70
32
0
SEQEND
8
0
0
POLYLINE
8
0
62
30
66
1
10
0
20
0
30
0
70
8
0
VERTEX
8
0
62
30
10
0.084852831
20
0.33270304
30
0
70
32
0
VERTEX
8
0
62
30
10
0.084852831
20
0.33270304
30
0
70
32
0
SEQEND
8
0
0
POLYLINE
8
0
62
30
66
1
10
0
20
0
30
0
70
8
0
VERTEX
8
0
62
30
10
0.1131371
20
0.33270303
30
0
70
32
0
VERTEX
8
0
62
30
10
0.1131371
20
0.33270304
30
0
70
32
0
SEQEND
8
0
0
POLYLINE
8
0
62
30
66
1
10
0
20
0
30
0
70
8
0
VERTEX
8
0
62
30
10
0.05656856
20
0.36927608
30
0
70
32
0
VERTEX
8
0
62
30
10
0.05656856
20
0.39513711
30
0
70
32
0
SEQEND
8
0
0
POLYLINE
8
0
62
30
66
1
10
0
20
0
30
0
70
8
0
VERTEX
8
0
62
30
10
0.084852831
20
0.39513711
30
0
70
32
0
VERTEX
8
0
62
30
10
0.084852831
20
0.39513711
30
0
70
32
0
SEQEND
8
0
0
POLYLINE
8
0
62
30
66
1
10
0
20
0
30
0
70
8
0
VERTEX
8
0
62
30
10
0.1131371
20
0.3951371
30
0
70
32
0
VERTEX
8
0
62
30
10
0.1131371
20
0.39513711
30
0
70
32
0
SEQEND
8
0
0
POLYLINE
8
0
62
5
66
1
10
0
20
0
30
0
70
8
0
VERTEX
8
0
62
5
10
0.05656856
20
0.30148601
30
0
70
32
0
VERTEX
8
0
62
5
10
0.05656856
20
0.30684201
30
0
70
32
0
SEQEND
8
0
0
POLYLINE
8
0
62
5
66
1
10
0
20
0
30
0
70
8
0
VERTEX
8
0
62
5
10
0.084852831
20
0.30148601
30
0
70
32
0
VERTEX
8
0
62
5
10
0.084852831
20
0.33270304
30
0
70
32
0
SEQEND
8
0
0
POLYLINE
8
0
62
5
66
1
10
0
20
0
30
0
70
8
0
VERTEX
8
0
62
5
10
0.1131371
20
0.30148601
30
0
70
32
0
VERTEX
8
0
62
5
10
0.1131371
20
0.33270303
30
0
70
32
0
SEQEND
8
0
0
POLYLINE
8
0
62
5
66
1
10
0
20
0
30
0
70
8
0
VERTEX
8
0
62
5
10
0.05656856
20
0.36392008
30
0
70
32
0
VERTEX
8
0
62
5
10
0.05656856
20
0.36927608
30
0
70
32
0
SEQEND
8
0
0
POLYLINE
8
0
62
5
66
1
10
0
20
0
30
0
70
8
0
VERTEX
8
0
62
5
10
0.084852831
20
0.36392008
30
0
70
32
0
VERTEX
8
0
62
5
10
0.084852831
20
0.39513711
30
0
70
32
0
SEQEND
8
0
0
POLYLINE
8
0
62
5
66
1
10
0
20
0
30
0
70
8
0
VERTEX
8
0
62
5
10
0.1131371
20
0.36392008
30
0
70
32
0
VERTEX
8
0
62
5
10
0.1131371
20
0.3951371
30
0
70
32
0
SEQEND
8
0
0
POLYLINE
8
0
62
5
66
1
10
0
20
0
30
0
70
8
0
VERTEX
8
0
62
5
10
0.05656856
20
0.33270304
30
0
70
32
0
VERTEX
8
0
62
5
10
0.05656856
20
0.36392008
30
0
70
32
0
SEQEND
8
0
0
POLYLINE
8
0
62
5
66
1
10
0
20
0
30
0
70
8
0
VERTEX
8
0
62
5
10
0.084852831
20
0.33270304
30
0
70
32
0
VERTEX
8
0
62
5
10
0.084852831
20
0.36392008
30
0
70
32
0
SEQEND
8
0
0
POLYLINE
8
0
62
5
66
1
10
0
20
0
30
0
70
8
0
VERTEX
8
0
62
5
10
0.1131371
20
0.33270304
30
0
70
32
0
VERTEX
8
0
62
5
10
0.1131371
20
0.36392008
30
0
70
32
0
SEQEND
8
0
0
POLYLINE
8
0
62
5
66
1
10
0
20
0
30
0
70
8
0
VERTEX
8
0
62
5
10
0.05656856
20
0.39513711
30
0
70
32
0
VERTEX
8
0
62
5
10
0.05656856
20
0.42635415
30
0
70
32
0
SEQEND
8
0
0
POLYLINE
8
0
62
5
66
1
10
0
20
0
30
0
70
8
0
VERTEX
8
0
62
5
10
0.084852831
20
0.39513711
30
0
70
32
0
VERTEX
8
0
62
5
10
0.084852831
20
0.42635415
30
0
70
32
0
SEQEND
8
0
0
POLYLINE
8
0
62
5
66
1
10
0
20
0
30
0
70
8
0
VERTEX
8
0
62
5
10
0.1131371
20
0.39513711
30
0
70
32
0
VERTEX
8
0
62
5
10
0.1131371
20
0.42635415
30
0
70
32
0
SEQEND
8
0
0
POLYLINE
8
0
62
30
66
1
10
0
20
0
30
0
70
8
0
VERTEX
8
0
62
30
10
0.028284289
20
0.306842
30
0
70
32
0
VERTEX
8
0
62
30
10
0.039680268
20
0.33270304
30
0
70
32
0
VERTEX
8
0
62
30
10
0.028284289
20
0.35856409
30
0
70
32
0
SEQEND
8
0
0
POLYLINE
8
0
62
30
66
1
10
0
20
0
30
0
70
8
0
VERTEX
8
0
62
30
10
0.05656856
20
0.30684201
30
0
70
32
0
VERTEX
8
0
62
30
10
0.067964534
20
0.33270304
30
0
70
32
0
VERTEX
8
0
62
30
10
0.05656856
20
0.35856408
30
0
70
32
0
SEQEND
8
0
0
POLYLINE
8
0
62
30
66
1
10
0
20
0
30
0
70
8
0
VERTEX
8
0
62
30
10
0.084852831
20
0.33270304
30
0
70
32
0
VERTEX
8
0
62
30
10
0.084852831
20
0.33270304
30
0
70
32
0
VERTEX
8
0
62
30
10
0.084852831
20
0.33270304
30
0
70
32
0
SEQEND
8
0
0
POLYLINE
8
0
62
30
66
1
10
0
20
0
30
0
70
8
0
VERTEX
8
0
62
30
10
0.1131371
20
0.33270303
30
0
70
32
0
VERTEX
8
0
62
30
10
0.11313714
20
0.33270304
30
0
70
32
0
VERTEX
8
0
62
30
10
0.1131371
20
0.33270306
30
0
70
32
0
SEQEND
8
0
0
POLYLINE
8
0
62
30
66
1
10
0
20
0
30
0
70
8
0
VERTEX
8
0
62
30
10
0.028284289
20
0.36927607
30
0
70
32
0
VERTEX
8
0
62
30
10
0.039680268
20
0.39513711
30
0
70
32
0
VERTEX
8
0
62
30
10
0.028284289
20
0.42099816
30
0
70
32
0
SEQEND
8
0
0
POLYLINE
8
0
62
30
66
1
10
0
20
0
30
0
70
8
0
VERTEX
8
0
62
30
10
0.05656856
20
0.36927608
30
0
70
32
0
VERTEX
8
0
62
30
10
0.067964534
20
0.39513711
30
0
70
32
0
VERTEX
8
0
62
30
10
0.05656856
20
0.42099814
30
0
70
32
0
SEQEND
8
0
0
POLYLINE
8
0
62
30
66
1
10
0
20
0
30
0
70
8
0
VERTEX
8
0
62
30
10
0.084852831
20
0.39513711
30
0
70
32
0
VERTEX
8
0
62
30
10
0.084852831
20
0.39513711
30
0
70
32
0
VERTEX
8
0
62
30
10
0.084852831
20
0.39513711
30
0
70
32
0
SEQEND
8
0
0
POLYLINE
8
0
62
30
66
1
10
0
20
0
30
0
70
8
0
VERTEX
8
0
62
30
10
0.1131371
20
0.3951371
30
0
70
32
0
VERTEX
8
0
62
30
10
0.11313714
20
0.39513711
30
0
70
32
0
VERTEX
8
0
62
30
10
0.1131371
20
0.39513713
30
0
70
32
0
SEQEND
8
0
0
POLYLINE
8
0
62
5
66
1
10
0
20
0
30
0
70
8
0
VERTEX
8
0
62
5
10
0.25455846
20
0.42635415
30
0
70
32
0
VERTEX
8
0
62
5
10
0.25455846
20
0.30148601
30
0
70
32
0
SEQEND
8
0
0
POLYLINE
8
0
62
5
66
1
10
0
20
0
30
0
70
8
0
VERTEX
8
0
62
5
10
0.14142137
20
0.306842
30
0
70
32
0
VERTEX
8
0
62
5
10
0.16970564
20
0.30684201
30
0
70
32
0
VERTEX
8
0
62
5
10
0.19798992
20
0.33270304
30
0
70
32
0
VERTEX
8
0
62
5
10
0.22627419
20
0.33270303
30
0
70
32
0
VERTEX
8
0
62
5
10
0.25455846
20
0.306842
30
0
70
32
0
SEQEND
8
0
0
POLYLINE
8
0
62
5
66
1
10
0
20
0
30
0
70
8
0
VERTEX
8
0
62
5
10
0.14142137
20
0.36927607
30
0
70
32
0
VERTEX
8
0
62
5
10
0.16970564
20
0.36927608
30
0
70
32
0
VERTEX
8
0
62
5
10
0.19798992
20
0.39513711
30
0
70
32
0
VERTEX
8
0
62
5
10
0.22627419
20
0.3951371
30
0
70
32
0
VERTEX
8
0
62
5
10
0.25455846
20
0.36927607
30
0
70
32
0
SEQEND
8
0
0
POLYLINE
8
0
62
5
66
1
10
0
20
0
30
0
70
8
0
VERTEX
8
0
62
5
10
0.14142137
20
0.35856409
30
0
70
32
0
VERTEX
8
0
62
5
10
0.16970564
20
0.35856408
30
0
70
32
0
VERTEX
8
0
62
5
10
0.19798992
20
0.33270304
30
0
70
32
0
VERTEX
8
0
62
5
10
0.22627419
20
0.33270306
30
0
70
32
0
VERTEX
8
0
62
5
10
0.25455846
20
0.35856409
30
0
70
32
0
SEQEND
8
0
0
POLYLINE
8
0
62
5
66
1
10
0
20
0
30
0
70
8
0
VERTEX
8
0
62
5
10
0.14142137
20
0.42099816
30
0
70
32
0
VERTEX
8
0
62
5
10
0.16970564
20
0.42099814
30
0
70
32
0
VERTEX
8
0
62
5
10
0.19798992
20
0.39513711
30
0
70
32
0
VERTEX
8
0
62
5
10
0.22627419
20
0.39513713
30
0
70
32
0
VERTEX
8
0
62
5
10
0.25455846
20
0.42099816
30
0
70
32
0
SEQEND
8
0
0
POLYLINE
8
0
62
30
66
1
10
0
20
0
30
0
70
8
0
VERTEX
8
0
62
30
10
0.14142137
20
0.33270304
30
0
70
32
0
VERTEX
8
0
62
30
10
0.25455846
20
0.33270304
30
0
70
32
0
SEQEND
8
0
0
POLYLINE
8
0
62
30
66
1
10
0
20
0
30
0
70
8
0
VERTEX
8
0
62
30
10
0.14142137
20
0.39513711
30
0
70
32
0
VERTEX
8
0
62
30
10
0.25455846
20
0.39513711
30
0
70
32
0
SEQEND
8
0
0
POLYLINE
8
0
62
30
66
1
10
0
20
0
30
0
70
8
0
VERTEX
8
0
62
30
10
0.16970564
20
0.30684201
30
0
70
32
0
VERTEX
8
0
62
30
10
0.16970564
20
0.33270304
30
0
70
32
0
SEQEND
8
0
0
POLYLINE
8
0
62
30
66
1
10
0
20
0
30
0
70
8
0
VERTEX
8
0
62
30
10
0.19798992
20
0.33270304
30
0
70
32
0
VERTEX
8
0
62
30
10
0.19798992
20
0.33270304
30
0
70
32
0
SEQEND
8
0
0
POLYLINE
8
0
62
30
66
1
10
0
20
0
30
0
70
8
0
VERTEX
8
0
62
30
10
0.22627419
20
0.33270303
30
0
70
32
0
VERTEX
8
0
62
30
10
0.22627419
20
0.33270304
30
0
70
32
0
SEQEND
8
0
0
POLYLINE
8
0
62
30
66
1
10
0
20
0
30
0
70
8
0
VERTEX
8
0
62
30
10
0.16970564
20
0.36927608
30
0
70
32
0
VERTEX
8
0
62
30
10
0.16970564
20
0.39513711
30
0
70
32
0
SEQEND
8
0
0
POLYLINE
8
0
62
30
66
1
10
0
20
0
30
0
70
8
0
VERTEX
8
0
62
30
10
0.19798992
20
0.39513711
30
0
70
32
0
VERTEX
8
0
62
30
10
0.19798992
20
0.39513711
30
0
70
32
0
SEQEND
8
0
0
POLYLINE
8
0
62
30
66
1
10
0
20
0
30
0
70
8
0
VERTEX
8
0
62
30
10
0.22627419
20
0.3951371
30
0
70
32
0
VERTEX
8
0
62
30
10
0.22627419
20
0.39513711
30
0
70
32
0
SEQEND
8
0
0
POLYLINE
8
0
62
5
66
1
10
0
20
0
30
0
70
8
0
VERTEX
8
0
62
5
10
0.16970564
20
0.30148601
30
0
70
32
0
VERTEX
8
0
62
5
10
0.16970564
20
0.30684201
30
0
70
32
0
SEQEND
8
0
0
POLYLINE
8
0
62
5
66
1
10
0
20
0
30
0
70
8
0
VERTEX
8
0
62
5
10
0.19798992
20
0.30148601
30
0
70
32
0
VERTEX
8
0
62
5
10
0.19798992
20
0.33270304
30
0
70
32
0
SEQEND
8
0
0
POLYLINE
8
0
62
5
66
1
10
0
20
0
30
0
70
8
0
VERTEX
8
0
62
5
10
0.22627419
20
0.30148601
30
0
70
32
0
VERTEX
8
0
62
5
10
0.22627419
20
0.33270303
30
0
70
32
0
SEQEND
8
0
0
POLYLINE
8
0
62
5
66
1
10
0
20
0
30
0
70
8
0
VERTEX
8
0
62
5
10
0.16970564
20
0.36392008
30
0
70
32
0
VERTEX
8
0
62
5
10
0.16970564
20
0.36927608
30
0
70
32
0
SEQEND
8
0
0
POLYLINE
8
0
62
5
66
1
10
0
20
0
30
0
70
8
0
VERTEX
8
0
62
5
10
0.19798992
20
0.36392008
30
0
70
32
0
VERTEX
8
0
62
5
10
0.19798992
20
0.39513711
30
0
70
32
0
SEQEND
8
0
0
POLYLINE
8
0
62
5
66
1
10
0
20
0
30
0
70
8
0
VERTEX
8
0
62
5
10
0.22627419
20
0.36392008
30
0
70
32
0
VERTEX
8
0
62
5
10
0.22627419
20
0.3951371
30
0
70
32
0
SEQEND
8
0
0
POLYLINE
8
0
62
5
66
1
10
0
20
0
30
0
70
8
0
VERTEX
8
0
62
5
10
0.16970564
20
0.33270304
30
0
70
32
0
VERTEX
8
0
62
5
10
0.16970564
20
0.36392008
30
0
70
32
0
SEQEND
8
0
0
POLYLINE
8
0
62
5
66
1
10
0
20
0
30
0
70
8
0
VERTEX
8
0
62
5
10
0.19798992
20
0.33270304
30
0
70
32
0
VERTEX
8
0
62
5
10
0.19798992
20
0.36392008
30
0
70
32
0
SEQEND
8
0
0
POLYLINE
8
0
62
5
66
1
10
0
20
0
30
0
70
8
0
VERTEX
8
0
62
5
10
0.22627419
20
0.33270304
30
0
70
32
0
VERTEX
8
0
62
5
10
0.22627419
20
0.36392008
30
0
70
32
0
SEQEND
8
0
0
POLYLINE
8
0
62
5
66
1
10
0
20
0
30
0
70
8
0
VERTEX
8
0
62
5
10
0.16970564
20
0.39513711
30
0
70
32
0
VERTEX
8
0
62
5
10
0.16970564
20
0.42635415
30
0
70
32
0
SEQEND
8
0
0
POLYLINE
8
0
62
5
66
1
10
0
20
0
30
0
70
8
0
VERTEX
8
0
62
5
10
0.19798992
20
0.39513711
30
0
70
32
0
VERTEX
8
0
62
5
10
0.19798992
20
0.42635415
30
0
70
32
0
SEQEND
8
0
0
POLYLINE
8
0
62
5
66
1
10
0
20
0
30
0
70
8
0
VERTEX
8
0
62
5
10
0.22627419
20
0.39513711
30
0
70
32
0
VERTEX
8
0
62
5
10
0.22627419
20
0.42635415
30
0
70
32
0
SEQEND
8
0
0
POLYLINE
8
0
62
30
66
1
10
0
20
0
30
0
70
8
0
VERTEX
8
0
62
30
10
0.14142137
20
0.306842
30
0
70
32
0
VERTEX
8
0
62
30
10
0.15281735
20
0.33270304
30
0
70
32
0
VERTEX
8
0
62
30
10
0.14142137
20
0.35856409
30
0
70
32
0
SEQEND
8
0
0
POLYLINE
8
0
62
30
66
1
10
0
20
0
30
0
70
8
0
VERTEX
8
0
62
30
10
0.16970564
20
0.30684201
30
0
70
32
0
VERTEX
8
0
62
30
10
0.18110162
20
0.33270304
30
0
70
32
0
VERTEX
8
0
62
30
10
0.16970564
20
0.35856408
30
0
70
32
0
SEQEND
8
0
0
POLYLINE
8
0
62
30
66
1
10
0
20
0
30
0
70
8
0
VERTEX
8
0
62
30
10
0.19798992
20
0.33270304
30
0
70
32
0
VERTEX
8
0
62
30
10
0.19798992
20
0.33270304
30
0
70
32
0
VERTEX
8
0
62
30
10
0.19798992
20
0.33270304
30
0
70
32
0
SEQEND
8
0
0
POLYLINE
8
0
62
30
66
1
10
0
20
0
30
0
70
8
0
VERTEX
8
0
62
30
10
0.22627419
20
0.33270303
30
0
70
32
0
VERTEX
8
0
62
30
10
0.22627422
20
0.33270304
30
0
70
32
0
VERTEX
8
0
62
30
10
0.22627419
20
0.33270306
30
0
70
32
0
SEQEND
8
0
0
POLYLINE
8
0
62
30
66
1
10
0
20
0
30
0
70
8
0
VERTEX
8
0
62
30
10
0.14142137
20
0.36927607
30
0
70
32
0
VERTEX
8
0
62
30
10
0.15281735
20
0.39513711
30
0
70
32
0
VERTEX
8
0
62
30
10
0.14142137
20
0.42099816
30
0
70
32
0
SEQEND
8
0
0
POLYLINE
8
0
62
30
66
1
10
0
20
0
30
0
70
8
0
VERTEX
8
0
62
30
10
0.16970564
20
0.36927608
30
0
70
32
0
VERTEX
8
0
62
30
10
0.18110162
20
0.39513711
30
0
70
32
0
VERTEX
8
0
62
30
10
0.16970564
20
0.42099814
30
0
70
32
0
SEQEND
8
0
0
POLYLINE
8
0
62
30
66
1
10
0
20
0
30
0
70
8
0
VERTEX
8
0
62
30
10
0.19798992
20
0.39513711
30
0
70
32
0
VERTEX
8
0
62
30
10
0.19798992
20
0.39513711
30
0
70
32
0
VERTEX
8
0
62
30
10
0.19798992
20
0.39513711
30
0
70
32
0
SEQEND
8
0
0
POLYLINE
8
0
62
30
66
1
10
0
20
0
30
0
70
8
0
VERTEX
8
0
62
30
10
0.22627419
20
0.3951371
30
0
70
32
0
VERTEX
8
0
62
30
10
0.22627422
20
0.39513711
30
0
70
32
0
VERTEX
8
0
62
30
10
0.22627419
20
0.39513713
30
0
70
32
0
SEQEND
8
0
0
POLYLINE
8
0
62
5
66
1
10
0
20
0
30
0
70
8
0
VERTEX
8
0
62
5
10
-0.084852796
20
0.30148601
30
0
70
32
0
VERTEX
8
0
62
5
10
-0.084852796
20
0.42635415
30
0
70
32
0
SEQEND
8
0
0
POLYLINE
8
0
62
5
66
1
10
0
20
0
30
0
70
8
0
VERTEX
8
0
62
5
10
-0.084852796
20
0.306842
30
0
70
32
0
VERTEX
8
0
62
5
10
-0.056568525
20
0.30684201
30
0
70
32
0
VERTEX
8
0
62
5
10
-0.028284254
20
0.33270304
30
0
70
32
0
VERTEX
8
0
62
5
10
1.7254211e-08
20
0.33270303
30
0
70
32
0
VERTEX
8
0
62
5
10
0.028284289
20
0.306842
30
0
70
32
0
SEQEND
8
0
0
POLYLINE
8
0
62
5
66
1
10
0
20
0
30
0
70
8
0
VERTEX
8
0
62
5
10
-0.084852796
20
0.36927607
30
0
70
32
0
VERTEX
8
0
62
5
10
-0.056568525
20
0.36927608
30
0
70
32
0
VERTEX
8
0
62
5
10
-0.028284254
20
0.39513711
30
0
70
32
0
VERTEX
8
0
62
5
10
1.7254211e-08
20
0.3951371
30
0
70
32
0
VERTEX
8
0
62
5
10
0.028284289
20
0.36927607
30
0
70
32
0
SEQEND
8
0
0
POLYLINE
8
0
62
5
66
1
10
0
20
0
30
0
70
8
0
VERTEX
8
0
62
5
10
-0.084852796
20
0.35856409
30
0
70
32
0
VERTEX
8
0
62
5
10
-0.056568525
20
0.35856408
30
0
70
32
0
VERTEX
8
0
62
5
10
-0.028284254
20
0.33270304
30
0
70
32
0
VERTEX
8
0
62
5
10
1.7254211e-08
20
0.33270306
30
0
70
32
0
VERTEX
8
0
62
5
10
0.028284289
20
0.35856409
30
0
70
32
0
SEQEND
8
0
0
POLYLINE
8
0
62
5
66
1
10
0
20
0
30
0
70
8
0
VERTEX
8
0
62
5
10
-0.084852796
20
0.42099816
30
0
70
32
0
VERTEX
8
0
62
5
10
-0.056568525
20
0.42099814
30
0
70
32
0
VERTEX
8
0
62
5
10
-0.028284254
20
0.39513711
30
0
70
32
0
VERTEX
8
0
62
5
10
1.7254211e-08
20
0.39513713
30
0
70
32
0
VERTEX
8
0
62
5
10
0.028284289
20
0.42099816
30
0
70
32
0
SEQEND
8
0
0
POLYLINE
8
0
62
30
66
1
10
0
20
0
30
0
70
8
0
VERTEX
8
0
62
30
10
-0.084852796
20
0.33270304
30
0
70
32
0
VERTEX
8
0
62
30
10
0.028284289
20
0.33270304
30
0
70
32
0
SEQEND
8
0
0
POLYLINE
8
0
62
30
66
1
10
0
20
0
30
0
70
8
0
VERTEX
8
0
62
30
10
-0.084852796
20
0.39513711
30
0
70
32
0
VERTEX
8
0
62
30
10
0.028284289
20
0.39513711
30
0
70
32
0
SEQEND
8
0
0
POLYLINE
8
0
62
30
66
1
10
0
20
0
30
0
70
8
0
VERTEX
8
0
62
30
10
-0.056568525
20
0.30684201
30
0
70
32
0
VERTEX
8
0
62
30
10
-0.056568525
20
0.33270304
30
0
70
32
0
SEQEND
8
0
0
POLYLINE
8
0
62
30
66
1
10
0
20
0
30
0
70
8
0
VERTEX
8
0
62
30
10
-0.028284254
20
0.33270304
30
0
70
32
0
VERTEX
8
0
62
30
10
-0.028284254
20
0.33270304
30
0
70
32
0
SEQEND
8
0
0
POLYLINE
8
0
62
30
66
1
10
0
20
0
30
0
70
8
0
VERTEX
8
0
62
30
10
1.7254211e-08
20
0.33270303
30
0
70
32
0
VERTEX
8
0
62
30
10
1.7254211e-08
20
0.33270304
30
0
70
32
0
SEQEND
8
0
0
POLYLINE
8
0
62
30
66
1
10
0
20
0
30
0
70
8
0
VERTEX
8
0
62
30
10
-0.056568525
20
0.36927608
30
0
70
32
0
VERTEX
8
0
62
30
10
-0.056568525
20
0.39513711
30
0
70
32
0
SEQEND
8
0
0
POLYLINE
8
0
62
30
66
1
10
0
20
0
30
0
70
8
0
VERTEX
8
0
62
30
10
-0.028284254
20
0.39513711
30
0
70
32
0
VERTEX
8
0
62
30
10
-0.028284254
20
0.39513711
30
0
70
32
0
SEQEND
8
0
0
POLYLINE
8
0
62
30
66
1
10
0
20
0
30
0
70
8
0
VERTEX
8
0
62
30
10
1.7254211e-08
20
0.3951371
30
0
70
32
0
VERTEX
8
0
62
30
10
1.7254211e-08
20
0.39513711
30
0
70
32
0
SEQEND
8
0
0
POLYLINE
8
0
62
5
66
1
10
0
20
0
30
0
70
8
0
VERTEX
8
0
62
5
10
-0.056568525
20
0.30148601
30
0
70
32
0
VERTEX
8
0
62
5
10
-0.056568525
20
0.30684201
30
0
70
32
0
SEQEND
8
0
0
POLYLINE
8
0
62
5
66
1
10
0
20
0
30
0
70
8
0
VERTEX
8
0
62
5
10
-0.028284254
20
0.30148601
30
0
70
32
0
VERTEX
8
0
62
5
10
-0.028284254
20
0.33270304
30
0
70
32
0
SEQEND
8
0
0
POLYLINE
8
0
62
5
66
1
10
0
20
0
30
0
70
8
0
VERTEX
8
0
62
5
10
1.7254211e-08
20
0.30148601
30
0
70
32
0
VERTEX
8
0
62
5
10
1.7254211e-08
20
0.33270303
30
0
70
32
0
SEQEND
8
0
0
POLYLINE
8
0
62
5
66
1
10
0
20
0
30
0
70
8
0
VERTEX
8
0
62
5
10
-0.056568525
20
0.36392008
30
0
70
32
0
VERTEX
8
0
62
5
10
-0.056568525
20
0.36927608
30
0
70
32
0
SEQEND
8
0
0
POLYLINE
8
0
62
5
66
1
10
0
20
0
30
0
70
8
0
VERTEX
8
0
62
5
10
-0.028284254
20
0.36392008
30
0
70
32
0
VERTEX
8
0
62
5
10
-0.028284254
20
0.39513711
30
0
70
32
0
SEQEND
8
0
0
POLYLINE
8
0
62
5
66
1
10
0
20
0
30
0
70
8
0
VERTEX
8
0
62
5
10
1.7254211e-08
20
0.36392008
30
0
70
32
0
VERTEX
8
0
62
5
10
1.7254211e-08
20
0.3951371
30
0
70
32
0
SEQEND
8
0
0
POLYLINE
8
0
62
5
66
1
10
0
20
0
30
0
70
8
0
VERTEX
8
0
62
5
10
-0.056568525
20
0.33270304
30
0
70
32
0
VERTEX
8
0
62
5
10
-0.056568525
20
0.36392008
30
0
70
32
0
SEQEND
8
0
0
POLYLINE
8
0
62
5
66
1
10
0
20
0
30
0
70
8
0
VERTEX
8
0
62
5
10
-0.028284254
20
0.33270304
30
0
70
32
0
VERTEX
8
0
62
5
10
-0.028284254
20
0.36392008
30
0
70
32
0
SEQEND
8
0
0
POLYLINE
8
0
62
5
66
1
10
0
20
0
30
0
70
8
0
VERTEX
8
0
62
5
10
1.7254211e-08
20
0.33270304
30
0
70
32
0
VERTEX
8
0
62
5
10
1.7254211e-08
20
0.36392008
30
0
70
32
0
SEQEND
8
0
0
POLYLINE
8
0
62
5
66
1
10
0
20
0
30
0
70
8
0
VERTEX
8
0
62
5
10
-0.056568525
20
0.39513711
30
0
70
32
0
VERTEX
8
0
62
5
10
-0.056568525
20
0.42635415
30
0
70
32
0
SEQEND
8
0
0
POLYLINE
8
0
62
5
66
1
10
0
20
0
30
0
70
8
0
VERTEX
8
0
62
5
10
-0.028284254
20
0.39513711
30
0
70
32
0
VERTEX
8
0
62
5
10
-0.028284254
20
0.42635415
30
0
70
32
0
SEQEND
8
0
0
POLYLINE
8
0
62
5
66
1
10
0
20
0
30
0
70
8
0
VERTEX
8
0
62
5
10
1.7254211e-08
20
0.39513711
30
0
70
32
0
VERTEX
8
0
62
5
10
1.7254211e-08
20
0.42635415
30
0
70
32
0
SEQEND
8
0
0
POLYLINE
8
0
62
30
66
1
10
0
20
0
30
0
70
8
0
VERTEX
8
0
62
30
10
-0.084852796
20
0.306842
30
0
70
32
0
VERTEX
8
0
62
30
10
-0.073456817
20
0.33270304
30
0
70
32
0
VERTEX
8
0
62
30
10
-0.084852796
20
0.35856409
30
0
70
32
0
SEQEND
8
0
0
POLYLINE
8
0
62
30
66
1
10
0
20
0
30
0
70
8
0
VERTEX
8
0
62
30
10
-0.056568525
20
0.30684201
30
0
70
32
0
VERTEX
8
0
62
30
10
-0.045172551
20
0.33270304
30
0
70
32
0
VERTEX
8
0
62
30
10
-0.056568525
20
0.35856408
30
0
70
32
0
SEQEND
8
0
0
POLYLINE
8
0
62
30
66
1
10
0
20
0
30
0
70
8
0
VERTEX
8
0
62
30
10
-0.028284254
20
0.33270304
30
0
70
32
0
VERTEX
8
0
62
30
10
-0.028284254
20
0.33270304
30
0
70
32
0
VERTEX
8
0
62
30
10
-0.028284254
20
0.33270304
30
0
70
32
0
SEQEND
8
0
0
POLYLINE
8
0
62
30
66
1
10
0
20
0
30
0
70
8
0
VERTEX
8
0
62
30
10
1.7254211e-08
20
0.33270303
30
0
70
32
0
VERTEX
8
0
62
30
10
5.3054743e-08
20
0.33270304
30
0
70
32
0
VERTEX
8
0
62
30
10
1.7254211e-08
20
0.33270306
30
0
70
32
0
SEQEND
8
0
0
POLYLINE
8
0
62
30
66
1
10
0
20
0
30
0
70
8
0
VERTEX
8
0
62
30
10
-0.084852796
20
0.36927607
30
0
70
32
0
VERTEX
8
0
62
30
10
-0.073456817
20
0.39513711
30
0
70
32
0
VERTEX
8
0
62
30
10
-0.084852796
20
0.42099816
30
0
70
32
0
SEQEND
8
0
0
POLYLINE
8
0
62
30
66
1
10
0
20
0
30
0
70
8
0
VERTEX
8
0
62
30
10
-0.056568525
20
0.36927608
30
0
70
32
0
VERTEX
8
0
62
30
10
-0.045172551
20
0.39513711
30
0
70
32
0
VERTEX
8
0
62
30
10
-0.056568525
20
0.42099814
30
0
70
32
0
SEQEND
8
0
0
POLYLINE
8
0
62
30
66
1
10
0
20
0
30
0
70
8
0
VERTEX
8
0
62
30
10
-0.028284254
20
0.39513711
30
0
70
32
0
VERTEX
8
0
62
30
10
-0.028284254
20
0.39513711
30
0
70
32
0
VERTEX
8
0
62
30
10
-0.028284254
20
0.39513711
30
0
70
32
0
SEQEND
8
0
0
POLYLINE
8
0
62
30
66
1
10
0
20
0
30
0
70
8
0
VERTEX
8
0
62
30
10
1.7254211e-08
20
0.3951371
30
0
70
32
0
VERTEX
8
0
62
30
10
5.3054743e-08
20
0.39513711
30
0
70
32
0
VERTEX
8
0
62
30
10
1.7254211e-08
20
0.39513713
30
0
70
32
0
SEQEND
8
0
0
POLYLINE
8
0
62
5
66
1
10
0
20
0
30
0
70
8
0
VERTEX
8
0
62
5
10
0.028284289
20
0.42635415
30
0
70
32
0
VERTEX
8
0
62
5
10
0.028284289
20
0.46635415
30
0
70
32
0
SEQEND
8
0
0
POLYLINE
8
0
62
5
66
1
10
0
20
0
30
0
70
8
0
VERTEX
8
0
62
5
10
0.14142137
20
0.46635415
30
0
70
32
0
VERTEX
8
0
62
5
10
0.14142137
20
0.42635415
30
0
70
32
0
SEQEND
8
0
0
POLYLINE
8
0
62
5
66
1
10
0
20
0
30
0
70
8
0
VERTEX
8
0
62
5
10
0.028284289
20
0.42635415
30
0
70
32
0
VERTEX
8
0
62
5
10
0.14142137
20
0.42635415
30
0
70
32
0
SEQEND
8
0
0
POLYLINE
8
0
62
5
66
1
10
0
20
0
30
0
70
8
0
VERTEX
8
0
62
5
10
0.028284289
20
0.46635415
30
0
70
32
0
VERTEX
8
0
62
5
10
0.14142137
20
0.46635415
30
0
70
32
0
SEQEND
8
0
0
POLYLINE
8
0
62
5
66
1
10
0
20
0
30
0
70
8
0
VERTEX
8
0
62
5
10
0.05656856
20
0.42635415
30
0
70
32
0
VERTEX
8
0
62
5
10
0.05656856
20
0.42635415
30
0
70
32
0
SEQEND
8
0
0
POLYLINE
8
0
62
5
66
1
10
0
20
0
30
0
70
8
0
VERTEX
8
0
62
5
10
0.084852831
20
0.42635415
30
0
70
32
0
VERTEX
8
0
62
5
10
0.084852831
20
0.42635415
30
0
70
32
0
SEQEND
8
0
0
POLYLINE
8
0
62
5
66
1
10
0
20
0
30
0
70
8
0
VERTEX
8
0
62
5
10
0.1131371
20
0.42635415
30
0
70
32
0
VERTEX
8
0
62
5
10
0.1131371
20
0.42635415
30
0
70
32
0
SEQEND
8
0
0
POLYLINE
8
0
62
5
66
1
10
0
20
0
30
0
70
8
0
VERTEX
8
0
62
5
10
0.05656856
20
0.46635415
30
0
70
32
0
VERTEX
8
0
62
5
10
0.05656856
20
0.46635415
30
0
70
32
0
SEQEND
8
0
0
POLYLINE
8
0
62
5
66
1
10
0
20
0
30
0
70
8
0
VERTEX
8
0
62
5
10
0.084852831
20
0.46635415
30
0
70
32
0
VERTEX
8
0
62
5
10
0.084852831
20
0.46635415
30
0
70
32
0
SEQEND
8
0
0
POLYLINE
8
0
62
5
66
1
10
0
20
0
30
0
70
8
0
VERTEX
8
0
62
5
10
0.1131371
20
0.46635415
30
0
70
32
0
VERTEX
8
0
62
5
10
0.1131371
20
0.46635415
30
0
70
32
0
SEQEND
8
0
0
POLYLINE
8
0
62
30
66
1
10
0
20
0
30
0
70
8
0
VERTEX
8
0
62
30
10
0.028284289
20
0.46635415
30
0
70
32
0
VERTEX
8
0
62
30
10
0.05656856
20
0.42635415
30
0
70
32
0
SEQEND
8
0
0
POLYLINE
8
0
62
30
66
1
10
0
20
0
30
0
70
8
0
VERTEX
8
0
62
30
10
0.05656856
20
0.46635415
30
0
70
32
0
VERTEX
8
0
62
30
10
0.028284289
20
0.42635415
30
0
70
32
0
SEQEND
8
0
0
POLYLINE
8
0
62
30
66
1
10
0
20
0
30
0
70
8
0
VERTEX
8
0
62
30
10
0.084852831
20
0.46635415
30
0
70
32
0
VERTEX
8
0
62
30
10
0.1131371
20
0.42635415
30
0
70
32
0
SEQEND
8
0
0
POLYLINE
8
0
62
30
66
1
10
0
20
0
30
0
70
8
0
VERTEX
8
0
62
30
10
0.1131371
20
0.46635415
30
0
70
32
0
VERTEX
8
0
62
30
10
0.084852831
20
0.42635415
30
0
70
32
0
SEQEND
8
0
0
POLYLINE
8
0
62
30
66
1
10
0
20
0
30
0
70
8
0
VERTEX
8
0
62
30
10
0.05656856
20
0.44635415
30
0
70
32
0
VERTEX
8
0
62
30
10
0.084852831
20
0.44635415
30
0
70
32
0
SEQEND
8
0
0
POLYLINE
8
0
62
30
66
1
10
0
20
0
30
0
70
8
0
VERTEX
8
0
62
30
10
0.1131371
20
0.44635415
30
0
70
32
0
VERTEX
8
0
62
30
10
0.14142137
20
0.44635415
30
0
70
32
0
SEQEND
8
0
0
POLYLINE
8
0
62
5
66
1
10
0
20
0
30
0
70
8
0
VERTEX
8
0
62
5
10
0.028284289
20
0.44635415
30
0
70
32
0
VERTEX
8
0
62
5
10
0.042426424
20
0.44635415
30
0
70
32
0
SEQEND
8
0
0
POLYLINE
8
0
62
5
66
1
10
0
20
0
30
0
70
8
0
VERTEX
8
0
62
5
10
0.084852831
20
0.44635415
30
0
70
32
0
VERTEX
8
0
62
5
10
0.098994967
20
0.44635415
30
0
70
32
0
SEQEND
8
0
0
POLYLINE
8
0
62
5
66
1
10
0
20
0
30
0
70
8
0
VERTEX
8
0
62
5
10
0.042426424
20
0.44635415
30
0
70
32
0
VERTEX
8
0
62
5
10
0.05656856
20
0.44635415
30
0
70
32
0
SEQEND
8
0
0
POLYLINE
8
0
62
5
66
1
10
0
20
0
30
0
70
8
0
VERTEX
8
0
62
5
10
0.098994967
20
0.44635415
30
0
70
32
0
VERTEX
8
0
62
5
10
0.1131371
20
0.44635415
30
0
70
32
0
SEQEND
8
0
0
POLYLINE
8
0
62
5
66
1
10
0
20
0
30
0
70
8
0
VERTEX
8
0
62
5
10
0.05656856
20
0.42635415
30
0
70
32
0
VERTEX
8
0
62
5
10
0.05656856
20
0.46635415
30
0
70
32
0
SEQEND
8
0
0
POLYLINE
8
0
62
5
66
1
10
0
20
0
30
0
70
8
0
VERTEX
8
0
62
5
10
0.084852831
20
0.42635415
30
0
70
32
0
VERTEX
8
0
62
5
10
0.084852831
20
0.46635415
30
0
70
32
0
SEQEND
8
0
0
POLYLINE
8
0
62
5
66
1
10
0
20
0
30
0
70
8
0
VERTEX
8
0
62
5
10
0.1131371
20
0.42635415
30
0
70
32
0
VERTEX
8
0
62
5
10
0.1131371
20
0.46635415
30
0
70
32
0
SEQEND
8
0
0
POLYLINE
8
0
62
5
66
1
10
0
20
0
30
0
70
8
0
VERTEX
8
0
62
5
10
0.028284289
20
0.42635415
30
0
70
32
0
VERTEX
8
0
62
5
10
0.028284289
20
0.46635415
30
0
70
32
0
SEQEND
8
0
0
POLYLINE
8
0
62
5
66
1
10
0
20
0
30
0
70
8
0
VERTEX
8
0
62
5
10
0.25455846
20
0.46635415
30
0
70
32
0
VERTEX
8
0
62
5
10
0.25455846
20
0.42635415
30
0
70
32
0
SEQEND
8
0
0
POLYLINE
8
0
62
5
66
1
10
0
20
0
30
0
70
8
0
VERTEX
8
0
62
5
10
0.14142137
20
0.42635415
30
0
70
32
0
VERTEX
8
0
62
5
10
0.25455846
20
0.42635415
30
0
70
32
0
SEQEND
8
0
0
POLYLINE
8
0
62
5
66
1
10
0
20
0
30
0
70
8
0
VERTEX
8
0
62
5
10
0.14142137
20
0.46635415
30
0
70
32
0
VERTEX
8
0
62
5
10
0.25455846
20
0.46635415
30
0
70
32
0
SEQEND
8
0
0
POLYLINE
8
0
62
5
66
1
10
0
20
0
30
0
70
8
0
VERTEX
8
0
62
5
10
0.16970564
20
0.42635415
30
0
70
32
0
VERTEX
8
0
62
5
10
0.16970564
20
0.42635415
30
0
70
32
0
SEQEND
8
0
0
POLYLINE
8
0
62
5
66
1
10
0
20
0
30
0
70
8
0
VERTEX
8
0
62
5
10
0.19798992
20
0.42635415
30
0
70
32
0
VERTEX
8
0
62
5
10
0.19798992
20
0.42635415
30
0
70
32
0
SEQEND
8
0
0
POLYLINE
8
0
62
5
66
1
10
0
20
0
30
0
70
8
0
VERTEX
8
0
62
5
10
0.22627419
20
0.42635415
30
0
70
32
0
VERTEX
8
0
62
5
10
0.22627419
20
0.42635415
30
0
70
32
0
SEQEND
8
0
0
POLYLINE
8
0
62
5
66
1
10
0
20
0
30
0
70
8
0
VERTEX
8
0
62
5
10
0.16970564
20
0.46635415
30
0
70
32
0
VERTEX
8
0
62
5
10
0.16970564
20
0.46635415
30
0
70
32
0
SEQEND
8
0
0
POLYLINE
8
0
62
5
66
1
10
0
20
0
30
0
70
8
0
VERTEX
8
0
62
5
10
0.19798992
20
0.46635415
30
0
70
32
0
VERTEX
8
0
62
5
10
0.19798992
20
0.46635415
30
0
70
32
0
SEQEND
8
0
0
POLYLINE
8
0
62
5
66
1
10
0
20
0
30
0
70
8
0
VERTEX
8
0
62
5
10
0.22627419
20
0.46635415
30
0
70
32
0
VERTEX
8
0
62
5
10
0.22627419
20
0.46635415
30
0
70
32
0
SEQEND
8
0
0
POLYLINE
8
0
62
30
66
1
10
0
20
0
30
0
70
8
0
VERTEX
8
0
62
30
10
0.14142137
20
0.46635415
30
0
70
32
0
VERTEX
8
0
62
30
10
0.16970564
20
0.42635415
30
0
70
32
0
SEQEND
8
0
0
POLYLINE
8
0
62
30
66
1
10
0
20
0
30
0
70
8
0
VERTEX
8
0
62
30
10
0.16970564
20
0.46635415
30
0
70
32
0
VERTEX
8
0
62
30
10
0.14142137
20
0.42635415
30
0
70
32
0
SEQEND
8
0
0
POLYLINE
8
0
62
30
66
1
10
0
20
0
30
0
70
8
0
VERTEX
8
0
62
30
10
0.19798992
20
0.46635415
30
0
70
32
0
VERTEX
8
0
62
30
10
0.22627419
20
0.42635415
30
0
70
32
0
SEQEND
8
0
0
POLYLINE
8
0
62
30
66
1
10
0
20
0
30
0
70
8
0
VERTEX
8
0
62
30
10
0.22627419
20
0.46635415
30
0
70
32
0
VERTEX
8
0
62
30
10
0.19798992
20
0.42635415
30
0
70
32
0
SEQEND
8
0
0
POLYLINE
8
0
62
30
66
1
10
0
20
0
30
0
70
8
0
VERTEX
8
0
62
30
10
0.16970564
20
0.44635415
30
0
70
32
0
VERTEX
8
0
62
30
10
0.19798992
20
0.44635415
30
0
70
32
0
SEQEND
8
0
0
POLYLINE
8
0
62
30
66
1
10
0
20
0
30
0
70
8
0
VERTEX
8
0
62
30
10
0.22627419
20
0.44635415
30
0
70
32
0
VERTEX
8
0
62
30
10
0.25455846
20
0.44635415
30
0
70
32
0
SEQEND
8
0
0
POLYLINE
8
0
62
5
66
1
10
0
20
0
30
0
70
8
0
VERTEX
8
0
62
5
10
0.14142137
20
0.44635415
30
0
70
32
0
VERTEX
8
0
62
5
10
0.15556351
20
0.44635415
30
0
70
32
0
SEQEND
8
0
0
POLYLINE
8
0
62
5
66
1
10
0
20
0
30
0
70
8
0
VERTEX
8
0
62
5
10
0.19798992
20
0.44635415
30
0
70
32
0
VERTEX
8
0
62
5
10
0.21213205
20
0.44635415
30
0
70
32
0
SEQEND
8
0
0
POLYLINE
8
0
62
5
66
1
10
0
20
0
30
0
70
8
0
VERTEX
8
0
62
5
10
0.15556351
20
0.44635415
30
0
70
32
0
VERTEX
8
0
62
5
10
0.16970564
20
0.44635415
30
0
70
32
0
SEQEND
8
0
0
POLYLINE
8
0
62
5
66
1
10
0
20
0
30
0
70
8
0
VERTEX
8
0
62
5
10
0.21213205
20
0.44635415
30
0
70
32
0
VERTEX
8
0
62
5
10
0.22627419
20
0.44635415
30
0
70
32
0
SEQEND
8
0
0
POLYLINE
8
0
62
5
66
1
10
0
20
0
30
0
70
8
0
VERTEX
8
0
62
5
10
0.16970564
20
0.42635415
30
0
70
32
0
VERTEX
8
0
62
5
10
0.16970564
20
0.46635415
30
0
70
32
0
SEQEND
8
0
0
POLYLINE
8
0
62
5
66
1
10
0
20
0
30
0
70
8
0
VERTEX
8
0
62
5
10
0.19798992
20
0.42635415
30
0
70
32
0
VERTEX
8
0
62
5
10
0.19798992
20
0.46635415
30
0
70
32
0
SEQEND
8
0
0
POLYLINE
8
0
62
5
66
1
10
0
20
0
30
0
70
8
0
VERTEX
8
0
62
5
10
0.22627419
20
0.42635415
30
0
70
32
0
VERTEX
8
0
62
5
10
0.22627419
20
0.46635415
30
0
70
32
0
SEQEND
8
0
0
POLYLINE
8
0
62
5
66
1
10
0
20
0
30
0
70
8
0
VERTEX
8
0
62
5
10
0.14142137
20
0.42635415
30
0
70
32
0
VERTEX
8
0
62
5
10
0.14142137
20
0.46635415
30
0
70
32
0
SEQEND
8
0
0
POLYLINE
8
0
62
5
66
1
10
0
20
0
30
0
70
8
0
VERTEX
8
0
62
5
10
-0.084852796
20
0.42635415
30
0
70
32
0
VERTEX
8
0
62
5
10
-0.084852796
20
0.46635415
30
0
70
32
0
SEQEND
8
0
0
POLYLINE
8
0
62
5
66
1
10
0
20
0
30
0
70
8
0
VERTEX
8
0
62
5
10
-0.084852796
20
0.42635415
30
0
70
32
0
VERTEX
8
0
62
5
10
0.028284289
20
0.42635415
30
0
70
32
0
SEQEND
8
0
0
POLYLINE
8
0
62
5
66
1
10
0
20
0
30
0
70
8
0
VERTEX
8
0
62
5
10
-0.084852796
20
0.46635415
30
0
70
32
0
VERTEX
8
0
62
5
10
0.028284289
20
0.46635415
30
0
70
32
0
SEQEND
8
0
0
POLYLINE
8
0
62
5
66
1
10
0
20
0
30
0
70
8
0
VERTEX
8
0
62
5
10
-0.056568525
20
0.42635415
30
0
70
32
0
VERTEX
8
0
62
5
10
-0.056568525
20
0.42635415
30
0
70
32
0
SEQEND
8
0
0
POLYLINE
8
0
62
5
66
1
10
0
20
0
30
0
70
8
0
VERTEX
8
0
62
5
10
-0.028284254
20
0.42635415
30
0
70
32
0
VERTEX
8
0
62
5
10
-0.028284254
20
0.42635415
30
0
70
32
0
SEQEND
8
0
0
POLYLINE
8
0
62
5
66
1
10
0
20
0
30
0
70
8
0
VERTEX
8
0
62
5
10
1.7254211e-08
20
0.42635415
30
0
70
32
0
VERTEX
8
0
62
5
10
1.7254211e-08
20
0.42635415
30
0
70
32
0
SEQEND
8
0
0
POLYLINE
8
0
62
5
66
1
10
0
20
0
30
0
70
8
0
VERTEX
8
0
62
5
10
-0.056568525
20
0.46635415
30
0
70
32
0
VERTEX
8
0
62
5
10
-0.056568525
20
0.46635415
30
0
70
32
0
SEQEND
8
0
0
POLYLINE
8
0
62
5
66
1
10
0
20
0
30
0
70
8
0
VERTEX
8
0
62
5
10
-0.028284254
20
0.46635415
30
0
70
32
0
VERTEX
8
0
62
5
10
-0.028284254
20
0.46635415
30
0
70
32
0
SEQEND
8
0
0
POLYLINE
8
0
62
5
66
1
10
0
20
0
30
0
70
8
0
VERTEX
8
0
62
5
10
1.7254211e-08
20
0.46635415
30
0
70
32
0
VERTEX
8
0
62
5
10
1.7254211e-08
20
0.46635415
30
0
70
32
0
SEQEND
8
0
0
POLYLINE
8
0
62
30
66
1
10
0
20
0
30
0
70
8
0
VERTEX
8
0
62
30
10
-0.084852796
20
0.46635415
30
0
70
32
0
VERTEX
8
0
62
30
10
-0.056568525
20
0.42635415
30
0
70
32
0
SEQEND
8
0
0
POLYLINE
8
0
62
30
66
1
10
0
20
0
30
0
70
8
0
VERTEX
8
0
62
30
10
-0.056568525
20
0.46635415
30
0
70
32
0
VERTEX
8
0
62
30
10
-0.084852796
20
0.42635415
30
0
70
32
0
SEQEND
8
0
0
POLYLINE
8
0
62
30
66
1
10
0
20
0
30
0
70
8
0
VERTEX
8
0
62
30
10
-0.028284254
20
0.46635415
30
0
70
32
0
VERTEX
8
0
62
30
10
1.7254211e-08
20
0.42635415
30
0
70
32
0
SEQEND
8
0
0
POLYLINE
8
0
62
30
66
1
10
0
20
0
30
0
70
8
0
VERTEX
8
0
62
30
10
1.7254211e-08
20
0.46635415
30
0
70
32
0
VERTEX
8
0
62
30
10
-0.028284254
20
0.42635415
30
0
70
32
0
SEQEND
8
0
0
POLYLINE
8
0
62
30
66
1
10
0
20
0
30
0
70
8
0
VERTEX
8
0
62
30
10
-0.056568525
20
0.44635415
30
0
70
32
0
VERTEX
8
0
62
30
10
-0.028284254
20
0.44635415
30
0
70
32
0
SEQEND
8
0
0
POLYLINE
8
0
62
30
66
1
10
0
20
0
30
0
70
8
0
VERTEX
8
0
62
30
10
1.7254211e-08
20
0.44635415
30
0
70
32
0
VERTEX
8
0
62
30
10
0.028284289
20
0.44635415
30
0
70
32
0
SEQEND
8
0
0
POLYLINE
8
0
62
5
66
1
10
0
20
0
30
0
70
8
0
VERTEX
8
0
62
5
10
-0.084852796
20
0.44635415
30
0
70
32
0
VERTEX
8
0
62
5
10
-0.070710661
20
0.44635415
30
0
70
32
0
SEQEND
8
0
0
POLYLINE
8
0
62
5
66
1
10
0
20
0
30
0
70
8
0
VERTEX
8
0
62
5
10
-0.028284254
20
0.44635415
30
0
70
32
0
VERTEX
8
0
62
5
10
-0.014142118
20
0.44635415
30
0
70
32
0
SEQEND
8
0
0
POLYLINE
8
0
62
5
66
1
10
0
20
0
30
0
70
8
0
VERTEX
8
0
62
5
10
-0.070710661
20
0.44635415
30
0
70
32
0
VERTEX
8
0
62
5
10
-0.056568525
20
0.44635415
30
0
70
32
0
SEQEND
8
0
0
POLYLINE
8
0
62
5
66
1
10
0
20
0
30
0
70
8
0
VERTEX
8
0
62
5
10
-0.014142118
20
0.44635415
30
0
70
32
0
VERTEX
8
0
62
5
10
1.7254211e-08
20
0.44635415
30
0
70
32
0
SEQEND
8
0
0
POLYLINE
8
0
62
5
66
1
10
0
20
0
30
0
70
8
0
VERTEX
8
0
62
5
10
-0.056568525
20
0.42635415
30
0
70
32
0
VERTEX
8
0
62
5
10
-0.056568525
20
0.46635415
30
0
70
32
0
SEQEND
8
0
0
POLYLINE
8
0
62
5
66
1
10
0
20
0
30
0
70
8
0
VERTEX
8
0
62
5
10
-0.028284254
20
0.42635415
30
0
70
32
0
VERTEX
8
0
62
5
10
-0.028284254
20
0.46635415
30
0
70
32
0
SEQEND
8
0
0
POLYLINE
8
0
62
5
66
1
10
0
20
0
30
0
70
8
0
VERTEX
8
0
62
5
10
1.7254211e-08
20
0.42635415
30
0
70
32
0
VERTEX
8
0
62
5
10
1.7254211e-08
20
0.46635415
30
0
70
32
0
SEQEND
8
0
0
POLYLINE
8
0
62
5
66
1
10
0
20
0
30
0
70
8
0
VERTEX
8
0
62
5
10
-0.084852796
20
0.42635415
30
0
70
32
0
VERTEX
8
0
62
5
10
-0.084852796
20
0.46635415
30
0
70
32
0
SEQEND
8
0
0
POLYLINE
8
0
62
5
66
1
10
0
20
0
30
0
70
8
0
VERTEX
8
0
62
5
10
0.028284289
20
0.46635415
30
0
70
32
0
VERTEX
8
0
62
5
10
0.028284289
20
0.54363541
30
0
70
32
0
SEQEND
8
0
0
POLYLINE
8
0
62
5
66
1
10
0
20
0
30
0
70
8
0
VERTEX
8
0
62
5
10
0.14142137
20
0.54363541
30
0
70
32
0
VERTEX
8
0
62
5
10
0.14142137
20
0.46635415
30
0
70
32
0
SEQEND
8
0
0
POLYLINE
8
0
62
5
66
1
10
0
20
0
30
0
70
8
0
VERTEX
8
0
62
5
10
0.028284289
20
0.46966899
30
0
70
32
0
VERTEX
8
0
62
5
10
0.05656856
20
0.46966899
30
0
70
32
0
VERTEX
8
0
62
5
10
0.084852831
20
0.48567446
30
0
70
32
0
VERTEX
8
0
62
5
10
0.1131371
20
0.48567446
30
0
70
32
0
VERTEX
8
0
62
5
10
0.14142137
20
0.46966899
30
0
70
32
0
SEQEND
8
0
0
POLYLINE
8
0
62
5
66
1
10
0
20
0
30
0
70
8
0
VERTEX
8
0
62
5
10
0.028284289
20
0.50830962
30
0
70
32
0
VERTEX
8
0
62
5
10
0.05656856
20
0.50830962
30
0
70
32
0
VERTEX
8
0
62
5
10
0.084852831
20
0.5243151
30
0
70
32
0
VERTEX
8
0
62
5
10
0.1131371
20
0.5243151
30
0
70
32
0
VERTEX
8
0
62
5
10
0.14142137
20
0.50830962
30
0
70
32
0
SEQEND
8
0
0
POLYLINE
8
0
62
5
66
1
10
0
20
0
30
0
70
8
0
VERTEX
8
0
62
5
10
0.028284289
20
0.50167994
30
0
70
32
0
VERTEX
8
0
62
5
10
0.05656856
20
0.50167994
30
0
70
32
0
VERTEX
8
0
62
5
10
0.084852831
20
0.48567446
30
0
70
32
0
VERTEX
8
0
62
5
10
0.1131371
20
0.48567446
30
0
70
32
0
VERTEX
8
0
62
5
10
0.14142137
20
0.50167994
30
0
70
32
0
SEQEND
8
0
0
POLYLINE
8
0
62
5
66
1
10
0
20
0
30
0
70
8
0
VERTEX
8
0
62
5
10
0.028284289
20
0.54032057
30
0
70
32
0
VERTEX
8
0
62
5
10
0.05656856
20
0.54032057
30
0
70
32
0
VERTEX
8
0
62
5
10
0.084852831
20
0.5243151
30
0
70
32
0
VERTEX
8
0
62
5
10
0.1131371
20
0.5243151
30
0
70
32
0
VERTEX
8
0
62
5
10
0.14142137
20
0.54032057
30
0
70
32
0
SEQEND
8
0
0
POLYLINE
8
0
62
30
66
1
10
0
20
0
30
0
70
8
0
VERTEX
8
0
62
30
10
0.028284289
20
0.48567446
30
0
70
32
0
VERTEX
8
0
62
30
10
0.14142137
20
0.48567446
30
0
70
32
0
SEQEND
8
0
0
POLYLINE
8
0
62
30
66
1
10
0
20
0
30
0
70
8
0
VERTEX
8
0
62
30
10
0.028284289
20
0.5243151
30
0
70
32
0
VERTEX
8
0
62
30
10
0.14142137
20
0.5243151
30
0
70
32
0
SEQEND
8
0
0
POLYLINE
8
0
62
30
66
1
10
0
20
0
30
0
70
8
0
VERTEX
8
0
62
30
10
0.05656856
20
0.46966899
30
0
70
32
0
VERTEX
8
0
62
30
10
0.05656856
20
0.48567446
30
0
70
32
0
SEQEND
8
0
0
POLYLINE
8
0
62
30
66
1
10
0
20
0
30
0
70
8
0
VERTEX
8
0
62
30
10
0.084852831
20
0.48567446
30
0
70
32
0
VERTEX
8
0
62
30
10
0.084852831
20
0.48567446
30
0
70
32
0
SEQEND
8
0
0
POLYLINE
8
0
62
30
66
1
10
0
20
0
30
0
70
8
0
VERTEX
8
0
62
30
10
0.1131371
20
0.48567446
30
0
70
32
0
VERTEX
8
0
62
30
10
0.1131371
20
0.48567446
30
0
70
32
0
SEQEND
8
0
0
POLYLINE
8
0
62
30
66
1
10
0
20
0
30
0
70
8
0
VERTEX
8
0
62
30
10
0.05656856
20
0.50830962
30
0
70
32
0
VERTEX
8
0
62
30
10
0.05656856
20
0.5243151
30
0
70
32
0
SEQEND
8
0
0
POLYLINE
8
0
62
30
66
1
10
0
20
0
30
0
70
8
0
VERTEX
8
0
62
30
10
0.084852831
20
0.5243151
30
0
70
32
0
VERTEX
8
0
62
30
10
0.084852831
20
0.5243151
30
0
70
32
0
SEQEND
8
0
0
POLYLINE
8
0
62
30
66
1
10
0
20
0
30
0
70
8
0
VERTEX
8
0
62
30
10
0.1131371
20
0.5243151
30
0
70
32
0
VERTEX
8
0
62
30
10
0.1131371
20
0.5243151
30
0
70
32
0
SEQEND
8
0
0
POLYLINE
8
0
62
5
66
1
10
0
20
0
30
0
70
8
0
VERTEX
8
0
62
5
10
0.05656856
20
0.46635415
30
0
70
32
0
VERTEX
8
0
62
5
10
0.05656856
20
0.46966899
30
0
70
32
0
SEQEND
8
0
0
POLYLINE
8
0
62
5
66
1
10
0
20
0
30
0
70
8
0
VERTEX
8
0
62
5
10
0.084852831
20
0.46635415
30
0
70
32
0
VERTEX
8
0
62
5
10
0.084852831
20
0.48567446
30
0
70
32
0
SEQEND
8
0
0
POLYLINE
8
0
62
5
66
1
10
0
20
0
30
0
70
8
0
VERTEX
8
0
62
5
10
0.1131371
20
0.46635415
30
0
70
32
0
VERTEX
8
0
62
5
10
0.1131371
20
0.48567446
30
0
70
32
0
SEQEND
8
0
0
POLYLINE
8
0
62
5
66
1
10
0
20
0
30
0
70
8
0
VERTEX
8
0
62
5
10
0.05656856
20
0.50499478
30
0
70
32
0
VERTEX
8
0
62
5
10
0.05656856
20
0.50830962
30
0
70
32
0
SEQEND
8
0
0
POLYLINE
8
0
62
5
66
1
10
0
20
0
30
0
70
8
0
VERTEX
8
0
62
5
10
0.084852831
20
0.50499478
30
0
70
32
0
VERTEX
8
0
62
5
10
0.084852831
20
0.5243151
30
0
70
32
0
SEQEND
8
0
0
POLYLINE
8
0
62
5
66
1
10
0
20
0
30
0
70
8
0
VERTEX
8
0
62
5
10
0.1131371
20
0.50499478
30
0
70
32
0
VERTEX
8
0
62
5
10
0.1131371
20
0.5243151
30
0
70
32
0
SEQEND
8
0
0
POLYLINE
8
0
62
5
66
1
10
0
20
0
30
0
70
8
0
VERTEX
8
0
62
5
10
0.05656856
20
0.48567446
30
0
70
32
0
VERTEX
8
0
62
5
10
0.05656856
20
0.50499478
30
0
70
32
0
SEQEND
8
0
0
POLYLINE
8
0
62
5
66
1
10
0
20
0
30
0
70
8
0
VERTEX
8
0
62
5
10
0.084852831
20
0.48567446
30
0
70
32
0
VERTEX
8
0
62
5
10
0.084852831
20
0.50499478
30
0
70
32
0
SEQEND
8
0
0
POLYLINE
8
0
62
5
66
1
10
0
20
0
30
0
70
8
0
VERTEX
8
0
62
5
10
0.1131371
20
0.48567446
30
0
70
32
0
VERTEX
8
0
62
5
10
0.1131371
20
0.50499478
30
0
70
32
0
SEQEND
8
0
0
POLYLINE
8
0
62
5
66
1
10
0
20
0
30
0
70
8
0
VERTEX
8
0
62
5
10
0.05656856
20
0.5243151
30
0
70
32
0
VERTEX
8
0
62
5
10
0.05656856
20
0.54363541
30
0
70
32
0
SEQEND
8
0
0
POLYLINE
8
0
62
5
66
1
10
0
20
0
30
0
70
8
0
VERTEX
8
0
62
5
10
0.084852831
20
0.5243151
30
0
70
32
0
VERTEX
8
0
62
5
10
0.084852831
20
0.54363541
30
0
70
32
0
SEQEND
8
0
0
POLYLINE
8
0
62
5
66
1
10
0
20
0
30
0
70
8
0
VERTEX
8
0
62
5
10
0.1131371
20
0.5243151
30
0
70
32
0
VERTEX
8
0
62
5
10
0.1131371
20
0.54363541
30
0
70
32
0
SEQEND
8
0
0
POLYLINE
8
0
62
30
66
1
10
0
20
0
30
0
70
8
0
VERTEX
8
0
62
30
10
0.028284289
20
0.46966899
30
0
70
32
0
VERTEX
8
0
62
30
10
0.037617543
20
0.48567446
30
0
70
32
0
VERTEX
8
0
62
30
10
0.028284289
20
0.50167994
30
0
70
32
0
SEQEND
8
0
0
POLYLINE
8
0
62
30
66
1
10
0
20
0
30
0
70
8
0
VERTEX
8
0
62
30
10
0.05656856
20
0.46966899
30
0
70
32
0
VERTEX
8
0
62
30
10
0.065901814
20
0.48567446
30
0
70
32
0
VERTEX
8
0
62
30
10
0.05656856
20
0.50167994
30
0
70
32
0
SEQEND
8
0
0
POLYLINE
8
0
62
30
66
1
10
0
20
0
30
0
70
8
0
VERTEX
8
0
62
30
10
0.084852831
20
0.48567446
30
0
70
32
0
VERTEX
8
0
62
30
10
0.084852831
20
0.48567446
30
0
70
32
0
VERTEX
8
0
62
30
10
0.084852831
20
0.48567446
30
0
70
32
0
SEQEND
8
0
0
POLYLINE
8
0
62
30
66
1
10
0
20
0
30
0
70
8
0
VERTEX
8
0
62
30
10
0.1131371
20
0.48567446
30
0
70
32
0
VERTEX
8
0
62
30
10
0.1131371
20
0.48567446
30
0
70
32
0
VERTEX
8
0
62
30
10
0.1131371
20
0.48567446
30
0
70
32
0
SEQEND
8
0
0
POLYLINE
8
0
62
30
66
1
10
0
20
0
30
0
70
8
0
VERTEX
8
0
62
30
10
0.028284289
20
0.50830962
30
0
70
32
0
VERTEX
8
0
62
30
10
0.037617543
20
0.5243151
30
0
70
32
0
VERTEX
8
0
62
30
10
0.028284289
20
0.54032057
30
0
70
32
0
SEQEND
8
0
0
POLYLINE
8
0
62
30
66
1
10
0
20
0
30
0
70
8
0
VERTEX
8
0
62
30
10
0.05656856
20
0.50830962
30
0
70
32
0
VERTEX
8
0
62
30
10
0.065901814
20
0.5243151
30
0
70
32
0
VERTEX
8
0
62
30
10
0.05656856
20
0.54032057
30
0
70
32
0
SEQEND
8
0
0
POLYLINE
8
0
62
30
66
1
10
0
20
0
30
0
70
8
0
VERTEX
8
0
62
30
10
0.084852831
20
0.5243151
30
0
70
32
0
VERTEX
8
0
62
30
10
0.084852831
20
0.5243151
30
0
70
32
0
VERTEX
8
0
62
30
10
0.084852831
20
0.5243151
30
0
70
32
0
SEQEND
8
0
0
POLYLINE
8
0
62
30
66
1
10
0
20
0
30
0
70
8
0
VERTEX
8
0
62
30
10
0.1131371
20
0.5243151
30
0
70
32
0
VERTEX
8
0
62
30
10
0.1131371
20
0.5243151
30
0
70
32
0
VERTEX
8
0
62
30
10
0.1131371
20
0.5243151
30
0
70
32
0
SEQEND
8
0
0
POLYLINE
8
0
62
5
66
1
10
0
20
0
30
0
70
8
0
VERTEX
8
0
62
5
10
0.25455846
20
0.54363541
30
0
70
32
0
VERTEX
8
0
62
5
10
0.25455846
20
0.46635415
30
0
70
32
0
SEQEND
8
0
0
POLYLINE
8
0
62
5
66
1
10
0
20
0
30
0
70
8
0
VERTEX
8
0
62
5
10
0.14142137
20
0.46966899
30
0
70
32
0
VERTEX
8
0
62
5
10
0.16970564
20
0.46966899
30
0
70
32
0
VERTEX
8
0
62
5
10
0.19798992
20
0.48567446
30
0
70
32
0
VERTEX
8
0
62
5
10
0.22627419
20
0.48567446
30
0
70
32
0
VERTEX
8
0
62
5
10
0.25455846
20
0.46966899
30
0
70
32
0
SEQEND
8
0
0
POLYLINE
8
0
62
5
66
1
10
0
20
0
30
0
70
8
0
VERTEX
8
0
62
5
10
0.14142137
20
0.50830962
30
0
70
32
0
VERTEX
8
0
62
5
10
0.16970564
20
0.50830962
30
0
70
32
0
VERTEX
8
0
62
5
10
0.19798992
20
0.5243151
30
0
70
32
0
VERTEX
8
0
62
5
10
0.22627419
20
0.5243151
30
0
70
32
0
VERTEX
8
0
62
5
10
0.25455846
20
0.50830962
30
0
70
32
0
SEQEND
8
0
0
POLYLINE
8
0
62
5
66
1
10
0
20
0
30
0
70
8
0
VERTEX
8
0
62
5
10
0.14142137
20
0.50167994
30
0
70
32
0
VERTEX
8
0
62
5
10
0.16970564
20
0.50167994
30
0
70
32
0
VERTEX
8
0
62
5
10
0.19798992
20
0.48567446
30
0
70
32
0
VERTEX
8
0
62
5
10
0.22627419
20
0.48567446
30
0
70
32
0
VERTEX
8
0
62
5
10
0.25455846
20
0.50167994
30
0
70
32
0
SEQEND
8
0
0
POLYLINE
8
0
62
5
66
1
10
0
20
0
30
0
70
8
0
VERTEX
8
0
62
5
10
0.14142137
20
0.54032057
30
0
70
32
0
VERTEX
8
0
62
5
10
0.16970564
20
0.54032057
30
0
70
32
0
VERTEX
8
0
62
5
10
0.19798992
20
0.5243151
30
0
70
32
0
VERTEX
8
0
62
5
10
0.22627419
20
0.5243151
30
0
70
32
0
VERTEX
8
0
62
5
10
0.25455846
20
0.54032057
30
0
70
32
0
SEQEND
8
0
0
POLYLINE
8
0
62
30
66
1
10
0
20
0
30
0
70
8
0
VERTEX
8
0
62
30
10
0.14142137
20
0.48567446
30
0
70
32
0
VERTEX
8
0
62
30
10
0.25455846
20
0.48567446
30
0
70
32
0
SEQEND
8
0
0
POLYLINE
8
0
62
30
66
1
10
0
20
0
30
0
70
8
0
VERTEX
8
0
62
30
10
0.14142137
20
0.5243151
30
0
70
32
0
VERTEX
8
0
62
30
10
0.25455846
20
0.5243151
30
0
70
32
0
SEQEND
8
0
0
POLYLINE
8
0
62
30
66
1
10
0
20
0
30
0
70
8
0
VERTEX
8
0
62
30
10
0.16970564
20
0.46966899
30
0
70
32
0
VERTEX
8
0
62
30
10
0.16970564
20
0.48567446
30
0
70
32
0
SEQEND
8
0
0
POLYLINE
8
0
62
30
66
1
10
0
20
0
30
0
70
8
0
VERTEX
8
0
62
30
10
0.19798992
20
0.48567446
30
0
70
32
0
VERTEX
8
0
62
30
10
0.19798992
20
0.48567446
30
0
70
32
0
SEQEND
8
0
0
POLYLINE
8
0
62
30
66
1
10
0
20
0
30
0
70
8
0
VERTEX
8
0
62
30
10
0.22627419
20
0.48567446
30
0
70
32
0
VERTEX
8
0
62
30
10
0.22627419
20
0.48567446
30
0
70
32
0
SEQEND
8
0
0
POLYLINE
8
0
62
30
66
1
10
0
20
0
30
0
70
8
0
VERTEX
8
0
62
30
10
0.16970564
20
0.50830962
30
0
70
32
0
VERTEX
8
0
62
30
10
0.16970564
20
0.5243151
30
0
70
32
0
SEQEND
8
0
0
POLYLINE
8
0
62
30
66
1
10
0
20
0
30
0
70
8
0
VERTEX
8
0
62
30
10
0.19798992
20
0.5243151
30
0
70
32
0
VERTEX
8
0
62
30
10
0.19798992
20
0.5243151
30
0
70
32
0
SEQEND
8
0
0
POLYLINE
8
0
62
30
66
1
10
0
20
0
30
0
70
8
0
VERTEX
8
0
62
30
10
0.22627419
20
0.5243151
30
0
70
32
0
VERTEX
8
0
62
30
10
0.22627419
20
0.5243151
30
0
70
32
0
SEQEND
8
0
0
POLYLINE
8
0
62
5
66
1
10
0
20
0
30
0
70
8
0
VERTEX
8
0
62
5
10
0.16970564
20
0.46635415
30
0
70
32
0
VERTEX
8
0
62
5
10
0.16970564
20
0.46966899
30
0
70
32
0
SEQEND
8
0
0
POLYLINE
8
0
62
5
66
1
10
0
20
0
30
0
70
8
0
VERTEX
8
0
62
5
10
0.19798992
20
0.46635415
30
0
70
32
0
VERTEX
8
0
62
5
10
0.19798992
20
0.48567446
30
0
70
32
0
SEQEND
8
0
0
POLYLINE
8
0
62
5
66
1
10
0
20
0
30
0
70
8
0
VERTEX
8
0
62
5
10
0.22627419
20
0.46635415
30
0
70
32
0
VERTEX
8
0
62
5
10
0.22627419
20
0.48567446
30
0
70
32
0
SEQEND
8
0
0
POLYLINE
8
0
62
5
66
1
10
0
20
0
30
0
70
8
0
VERTEX
8
0
62
5
10
0.16970564
20
0.50499478
30
0
70
32
0
VERTEX
8
0
62
5
10
0.16970564
20
0.50830962
30
0
70
32
0
SEQEND
8
0
0
POLYLINE
8
0
62
5
66
1
10
0
20
0
30
0
70
8
0
VERTEX
8
0
62
5
10
0.19798992
20
0.50499478
30
0
70
32
0
VERTEX
8
0
62
5
10
0.19798992
20
0.5243151
30
0
70
32
0
SEQEND
8
0
0
POLYLINE
8
0
62
5
66
1
10
0
20
0
30
0
70
8
0
VERTEX
8
0
62
5
10
0.22627419
20
0.50499478
30
0
70
32
0
VERTEX
8
0
62
5
10
0.22627419
20
0.5243151
30
0
70
32
0
SEQEND
8
0
0
POLYLINE
8
0
62
5
66
1
10
0
20
0
30
0
70
8
0
VERTEX
8
0
62
5
10
0.16970564
20
0.48567446
30
0
70
32
0
VERTEX
8
0
62
5
10
0.16970564
20
0.50499478
30
0
70
32
0
SEQEND
8
0
0
POLYLINE
8
0
62
5
66
1
10
0
20
0
30
0
70
8
0
VERTEX
8
0
62
5
10
0.19798992
20
0.48567446
30
0
70
32
0
VERTEX
8
0
62
5
10
0.19798992
20
0.50499478
30
0
70
32
0
SEQEND
8
0
0
POLYLINE
8
0
62
5
66
1
10
0
20
0
30
0
70
8
0
VERTEX
8
0
62
5
10
0.22627419
20
0.48567446
30
0
70
32
0
VERTEX
8
0
62
5
10
0.22627419
20
0.50499478
30
0
70
32
0
SEQEND
8
0
0
POLYLINE
8
0
62
5
66
1
10
0
20
0
30
0
70
8
0
VERTEX
8
0
62
5
10
0.16970564
20
0.5243151
30
0
70
32
0
VERTEX
8
0
62
5
10
0.16970564
20
0.54363541
30
0
70
32
0
SEQEND
8
0
0
POLYLINE
8
0
62
5
66
1
10
0
20
0
30
0
70
8
0
VERTEX
8
0
62
5
10
0.19798992
20
0.5243151
30
0
70
32
0
VERTEX
8
0
62
5
10
0.19798992
20
0.54363541
30
0
70
32
0
SEQEND
8
0
0
POLYLINE
8
0
62
5
66
1
10
0
20
0
30
0
70
8
0
VERTEX
8
0
62
5
10
0.22627419
20
0.5243151
30
0
70
32
0
VERTEX
8
0
62
5
10
0.22627419
20
0.54363541
30
0
70
32
0
SEQEND
8
0
0
POLYLINE
8
0
62
30
66
1
10
0
20
0
30
0
70
8
0
VERTEX
8
0
62
30
10
0.14142137
20
0.46966899
30
0
70
32
0
VERTEX
8
0
62
30
10
0.15075463
20
0.48567446
30
0
70
32
0
VERTEX
8
0
62
30
10
0.14142137
20
0.50167994
30
0
70
32
0
SEQEND
8
0
0
POLYLINE
8
0
62
30
66
1
10
0
20
0
30
0
70
8
0
VERTEX
8
0
62
30
10
0.16970564
20
0.46966899
30
0
70
32
0
VERTEX
8
0
62
30
10
0.1790389
20
0.48567446
30
0
70
32
0
VERTEX
8
0
62
30
10
0.16970564
20
0.50167994
30
0
70
32
0
SEQEND
8
0
0
POLYLINE
8
0
62
30
66
1
10
0
20
0
30
0
70
8
0
VERTEX
8
0
62
30
10
0.19798992
20
0.48567446
30
0
70
32
0
VERTEX
8
0
62
30
10
0.19798992
20
0.48567446
30
0
70
32
0
VERTEX
8
0
62
30
10
0.19798992
20
0.48567446
30
0
70
32
0
SEQEND
8
0
0
POLYLINE
8
0
62
30
66
1
10
0
20
0
30
0
70
8
0
VERTEX
8
0
62
30
10
0.22627419
20
0.48567446
30
0
70
32
0
VERTEX
8
0
62
30
10
0.22627419
20
0.48567446
30
0
70
32
0
VERTEX
8
0
62
30
10
0.22627419
20
0.48567446
30
0
70
32
0
SEQEND
8
0
0
POLYLINE
8
0
62
30
66
1
10
0
20
0
30
0
70
8
0
VERTEX
8
0
62
30
10
0.14142137
20
0.50830962
30
0
70
32
0
VERTEX
8
0
62
30
10
0.15075463
20
0.5243151
30
0
70
32
0
VERTEX
8
0
62
30
10
0.14142137
20
0.54032057
30
0
70
32
0
SEQEND
8
0
0
POLYLINE
8
0
62
30
66
1
10
0
20
0
30
0
70
8
0
VERTEX
8
0
62
30
10
0.16970564
20
0.50830962
30
0
70
32
0
VERTEX
8
0
62
30
10
0.1790389
20
0.5243151
30
0
70
32
0
VERTEX
8
0
62
30
10
0.16970564
20
0.54032057
30
0
70
32
0
SEQEND
8
0
0
POLYLINE
8
0
62
30
66
1
10
0
20
0
30
0
70
8
0
VERTEX
8
0
62
30
10
0.19798992
20
0.5243151
30
0
70
32
0
VERTEX
8
0
62
30
10
0.19798992
20
0.5243151
30
0
70
32
0
VERTEX
8
0
62
30
10
0.19798992
20
0.5243151
30
0
70
32
0
SEQEND
8
0
0
POLYLINE
8
0
62
30
66
1
10
0
20
0
30
0
70
8
0
VERTEX
8
0
62
30
10
0.22627419
20
0.5243151
30
0
70
32
0
VERTEX
8
0
62
30
10
0.22627419
20
0.5243151
30
0
70
32
0
VERTEX
8
0
62
30
10
0.22627419
20
0.5243151
30
0
70
32
0
SEQEND
8
0
0
POLYLINE
8
0
62
5
66
1
10
0
20
0
30
0
70
8
0
VERTEX
8
0
62
5
10
-0.084852796
20
0.46635415
30
0
70
32
0
VERTEX
8
0
62
5
10
-0.084852796
20
0.54363541
30
0
70
32
0
SEQEND
8
0
0
POLYLINE
8
0
62
5
66
1
10
0
20
0
30
0
70
8
0
VERTEX
8
0
62
5
10
-0.084852796
20
0.46966899
30
0
70
32
0
VERTEX
8
0
62
5
10
-0.056568525
20
0.46966899
30
0
70
32
0
VERTEX
8
0
62
5
10
-0.028284254
20
0.48567446
30
0
70
32
0
VERTEX
8
0
62
5
10
1.7254211e-08
20
0.48567446
30
0
70
32
0
VERTEX
8
0
62
5
10
0.028284289
20
0.46966899
30
0
70
32
0
SEQEND
8
0
0
POLYLINE
8
0
62
5
66
1
10
0
20
0
30
0
70
8
0
VERTEX
8
0
62
5
10
-0.084852796
20
0.50830962
30
0
70
32
0
VERTEX
8
0
62
5
10
-0.056568525
20
0.50830962
30
0
70
32
0
VERTEX
8
0
62
5
10
-0.028284254
20
0.5243151
30
0
70
32
0
VERTEX
8
0
62
5
10
1.7254211e-08
20
0.5243151
30
0
70
32
0
VERTEX
8
0
62
5
10
0.028284289
20
0.50830962
30
0
70
32
0
SEQEND
8
0
0
POLYLINE
8
0
62
5
66
1
10
0
20
0
30
0
70
8
0
VERTEX
8
0
62
5
10
-0.084852796
20
0.50167994
30
0
70
32
0
VERTEX
8
0
62
5
10
-0.056568525
20
0.50167994
30
0
70
32
0
VERTEX
8
0
62
5
10
-0.028284254
20
0.48567446
30
0
70
32
0
VERTEX
8
0
62
5
10
1.7254211e-08
20
0.48567446
30
0
70
32
0
VERTEX
8
0
62
5
10
0.028284289
20
0.50167994
30
0
70
32
0
SEQEND
8
0
0
POLYLINE
8
0
62
5
66
1
10
0
20
0
30
0
70
8
0
VERTEX
8
0
62
5
10
-0.084852796
20
0.54032057
30
0
70
32
0
VERTEX
8
0
62
5
10
-0.056568525
20
0.54032057
30
0
70
32
0
VERTEX
8
0
62
5
10
-0.028284254
20
0.5243151
30
0
70
32
0
VERTEX
8
0
62
5
10
1.7254211e-08
20
0.5243151
30
0
70
32
0
VERTEX
8
0
62
5
10
0.028284289
20
0.54032057
30
0
70
32
0
SEQEND
8
0
0
POLYLINE
8
0
62
30
66
1
10
0
20
0
30
0
70
8
0
VERTEX
8
0
62
30
10
-0.084852796
20
0.48567446
30
0
70
32
0
VERTEX
8
0
62
30
10
0.028284289
20
0.48567446
30
0
70
32
0
SEQEND
8
0
0
POLYLINE
8
0
62
30
66
1
10
0
20
0
30
0
70
8
0
VERTEX
8
0
62
30
10
-0.084852796
20
0.5243151
30
0
70
32
0
VERTEX
8
0
62
30
10
0.028284289
20
0.5243151
30
0
70
32
0
SEQEND
8
0
0
POLYLINE
8
0
62
30
66
1
10
0
20
0
30
0
70
8
0
VERTEX
8
0
62
30
10
-0.056568525
20
0.46966899
30
0
70
32
0
VERTEX
8
0
62
30
10
-0.056568525
20
0.48567446
30
0
70
32
0
SEQEND
8
0
0
POLYLINE
8
0
62
30
66
1
10
0
20
0
30
0
70
8
0
VERTEX
8
0
62
30
10
-0.028284254
20
0.48567446
30
0
70
32
0
VERTEX
8
0
62
30
10
-0.028284254
20
0.48567446
30
0
70
32
0
SEQEND
8
0
0
POLYLINE
8
0
62
30
66
1
10
0
20
0
30
0
70
8
0
VERTEX
8
0
62
30
10
1.7254211e-08
20
0.48567446
30
0
70
32
0
VERTEX
8
0
62
30
10
1.7254211e-08
20
0.48567446
30
0
70
32
0
SEQEND
8
0
0
POLYLINE
8
0
62
30
66
1
10
0
20
0
30
0
70
8
0
VERTEX
8
0
62
30
10
-0.056568525
20
0.50830962
30
0
70
32
0
VERTEX
8
0
62
30
10
-0.056568525
20
0.5243151
30
0
70
32
0
SEQEND
8
0
0
POLYLINE
8
0
62
30
66
1
10
0
20
0
30
0
70
8
0
VERTEX
8
0
62
30
10
-0.028284254
20
0.5243151
30
0
70
32
0
VERTEX
8
0
62
30
10
-0.028284254
20
0.5243151
30
0
70
32
0
SEQEND
8
0
0
POLYLINE
8
0
62
30
66
1
10
0
20
0
30
0
70
8
0
VERTEX
8
0
62
30
10
1.7254211e-08
20
0.5243151
30
0
70
32
0
VERTEX
8
0
62
30
10
1.7254211e-08
20
0.5243151
30
0
70
32
0
SEQEND
8
0
0
POLYLINE
8
0
62
5
66
1
10
0
20
0
30
0
70
8
0
VERTEX
8
0
62
5
10
-0.056568525
20
0.46635415
30
0
70
32
0
VERTEX
8
0
62
5
10
-0.056568525
20
0.46966899
30
0
70
32
0
SEQEND
8
0
0
POLYLINE
8
0
62
5
66
1
10
0
20
0
30
0
70
8
0
VERTEX
8
0
62
5
10
-0.028284254
20
0.46635415
30
0
70
32
0
VERTEX
8
0
62
5
10
-0.028284254
20
0.48567446
30
0
70
32
0
SEQEND
8
0
0
POLYLINE
8
0
62
5
66
1
10
0
20
0
30
0
70
8
0
VERTEX
8
0
62
5
10
1.7254211e-08
20
0.46635415
30
0
70
32
0
VERTEX
8
0
62
5
10
1.7254211e-08
20
0.48567446
30
0
70
32
0
SEQEND
8
0
0
POLYLINE
8
0
62
5
66
1
10
0
20
0
30
0
70
8
0
VERTEX
8
0
62
5
10
-0.056568525
20
0.50499478
30
0
70
32
0
VERTEX
8
0
62
5
10
-0.056568525
20
0.50830962
30
0
70
32
0
SEQEND
8
0
0
POLYLINE
8
0
62
5
66
1
10
0
20
0
30
0
70
8
0
VERTEX
8
0
62
5
10
-0.028284254
20
0.50499478
30
0
70
32
0
VERTEX
8
0
62
5
10
-0.028284254
20
0.5243151
30
0
70
32
0
SEQEND
8
0
0
POLYLINE
8
0
62
5
66
1
10
0
20
0
30
0
70
8
0
VERTEX
8
0
62
5
10
1.7254211e-08
20
0.50499478
30
0
70
32
0
VERTEX
8
0
62
5
10
1.7254211e-08
20
0.5243151
30
0
70
32
0
SEQEND
8
0
0
POLYLINE
8
0
62
5
66
1
10
0
20
0
30
0
70
8
0
VERTEX
8
0
62
5
10
-0.056568525
20
0.48567446
30
0
70
32
0
VERTEX
8
0
62
5
10
-0.056568525
20
0.50499478
30
0
70
32
0
SEQEND
8
0
0
POLYLINE
8
0
62
5
66
1
10
0
20
0
30
0
70
8
0
VERTEX
8
0
62
5
10
-0.028284254
20
0.48567446
30
0
70
32
0
VERTEX
8
0
62
5
10
-0.028284254
20
0.50499478
30
0
70
32
0
SEQEND
8
0
0
POLYLINE
8
0
62
5
66
1
10
0
20
0
30
0
70
8
0
VERTEX
8
0
62
5
10
1.7254211e-08
20
0.48567446
30
0
70
32
0
VERTEX
8
0
62
5
10
1.7254211e-08
20
0.50499478
30
0
70
32
0
SEQEND
8
0
0
POLYLINE
8
0
62
5
66
1
10
0
20
0
30
0
70
8
0
VERTEX
8
0
62
5
10
-0.056568525
20
0.5243151
30
0
70
32
0
VERTEX
8
0
62
5
10
-0.056568525
20
0.54363541
30
0
70
32
0
SEQEND
8
0
0
POLYLINE
8
0
62
5
66
1
10
0
20
0
30
0
70
8
0
VERTEX
8
0
62
5
10
-0.028284254
20
0.5243151
30
0
70
32
0
VERTEX
8
0
62
5
10
-0.028284254
20
0.54363541
30
0
70
32
0
SEQEND
8
0
0
POLYLINE
8
0
62
5
66
1
10
0
20
0
30
0
70
8
0
VERTEX
8
0
62
5
10
1.7254211e-08
20
0.5243151
30
0
70
32
0
VERTEX
8
0
62
5
10
1.7254211e-08
20
0.54363541
30
0
70
32
0
SEQEND
8
0
0
POLYLINE
8
0
62
30
66
1
10
0
20
0
30
0
70
8
0
VERTEX
8
0
62
30
10
-0.084852796
20
0.46966899
30
0
70
32
0
VERTEX
8
0
62
30
10
-0.075519542
20
0.48567446
30
0
70
32
0
VERTEX
8
0
62
30
10
-0.084852796
20
0.50167994
30
0
70
32
0
SEQEND
8
0
0
POLYLINE
8
0
62
30
66
1
10
0
20
0
30
0
70
8
0
VERTEX
8
0
62
30
10
-0.056568525
20
0.46966899
30
0
70
32
0
VERTEX
8
0
62
30
10
-0.047235271
20
0.48567446
30
0
70
32
0
VERTEX
8
0
62
30
10
-0.056568525
20
0.50167994
30
0
70
32
0
SEQEND
8
0
0
POLYLINE
8
0
62
30
66
1
10
0
20
0
30
0
70
8
0
VERTEX
8
0
62
30
10
-0.028284254
20
0.48567446
30
0
70
32
0
VERTEX
8
0
62
30
10
-0.028284254
20
0.48567446
30
0
70
32
0
VERTEX
8
0
62
30
10
-0.028284254
20
0.48567446
30
0
70
32
0
SEQEND
8
0
0
POLYLINE
8
0
62
30
66
1
10
0
20
0
30
0
70
8
0
VERTEX
8
0
62
30
10
1.7254211e-08
20
0.48567446
30
0
70
32
0
VERTEX
8
0
62
30
10
1.7254211e-08
20
0.48567446
30
0
70
32
0
VERTEX
8
0
62
30
10
1.7254211e-08
20
0.48567446
30
0
70
32
0
SEQEND
8
0
0
POLYLINE
8
0
62
30
66
1
10
0
20
0
30
0
70
8
0
VERTEX
8
0
62
30
10
-0.084852796
20
0.50830962
30
0
70
32
0
VERTEX
8
0
62
30
10
-0.075519542
20
0.5243151
30
0
70
32
0
VERTEX
8
0
62
30
10
-0.084852796
20
0.54032057
30
0
70
32
0
SEQEND
8
0
0
POLYLINE
8
0
62
30
66
1
10
0
20
0
30
0
70
8
0
VERTEX
8
0
62
30
10
-0.056568525
20
0.50830962
30
0
70
32
0
VERTEX
8
0
62
30
10
-0.047235271
20
0.5243151
30
0
70
32
0
VERTEX
8
0
62
30
10
-0.056568525
20
0.54032057
30
0
70
32
0
SEQEND
8
0
0
POLYLINE
8
0
62
30
66
1
10
0
20
0
30
0
70
8
0
VERTEX
8
0
62
30
10
-0.028284254
20
0.5243151
30
0
70
32
0
VERTEX
8
0
62
30
10
-0.028284254
20
0.5243151
30
0
70
32
0
VERTEX
8
0
62
30
10
-0.028284254
20
0.5243151
30
0
70
32
0
SEQEND
8
0
0
POLYLINE
8
0
62
30
66
1
10
0
20
0
30
0
70
8
0
VERTEX
8
0
62
30
10
1.7254211e-08
20
0.5243151
30
0
70
32
0
VERTEX
8
0
62
30
10
1.7254211e-08
20
0.5243151
30
0
70
32
0
VERTEX
8
0
62
30
10
1.7254211e-08
20
0.5243151
30
0
70
32
0
SEQEND
8
0
0
POLYLINE
8
0
62
5
66
1
10
0
20
0
30
0
70
8
0
VERTEX
8
0
62
5
10
0.028284289
20
0.54363541
30
0
70
32
0
VERTEX
8
0
62
5
10
0.028284289
20
0.55617555
30
0
70
32
0
SEQEND
8
0
0
POLYLINE
8
0
62
5
66
1
10
0
20
0
30
0
70
8
0
VERTEX
8
0
62
5
10
0.05656856
20
0.54363541
30
0
70
32
0
VERTEX
8
0
62
5
10
0.05656856
20
0.55617555
30
0
70
32
0
SEQEND
8
0
0
POLYLINE
8
0
62
5
66
1
10
0
20
0
30
0
70
8
0
VERTEX
8
0
62
5
10
0.084852831
20
0.54363541
30
0
70
32
0
VERTEX
8
0
62
5
10
0.084852831
20
0.55617555
30
0
70
32
0
SEQEND
8
0
0
POLYLINE
8
0
62
5
66
1
10
0
20
0
30
0
70
8
0
VERTEX
8
0
62
5
10
0.1131371
20
0.54363541
30
0
70
32
0
VERTEX
8
0
62
5
10
0.1131371
20
0.55617555
30
0
70
32
0
SEQEND
8
0
0
POLYLINE
8
0
62
5
66
1
10
0
20
0
30
0
70
8
0
VERTEX
8
0
62
5
10
0.14142137
20
0.54363541
30
0
70
32
0
VERTEX
8
0
62
5
10
0.14142137
20
0.55617555
30
0
70
32
0
SEQEND
8
0
0
POLYLINE
8
0
62
5
66
1
10
0
20
0
30
0
70
8
0
VERTEX
8
0
62
5
10
0.05656856
20
0.54363541
30
0
70
32
0
VERTEX
8
0
62
5
10
0.05656856
20
0.54363541
30
0
70
32
0
SEQEND
8
0
0
POLYLINE
8
0
62
5
66
1
10
0
20
0
30
0
70
8
0
VERTEX
8
0
62
5
10
0.084852831
20
0.54363541
30
0
70
32
0
VERTEX
8
0
62
5
10
0.084852831
20
0.54363541
30
0
70
32
0
SEQEND
8
0
0
POLYLINE
8
0
62
5
66
1
10
0
20
0
30
0
70
8
0
VERTEX
8
0
62
5
10
0.1131371
20
0.54363541
30
0
70
32
0
VERTEX
8
0
62
5
10
0.1131371
20
0.54363541
30
0
70
32
0
SEQEND
8
0
0
POLYLINE
8
0
62
5
66
1
10
0
20
0
30
0
70
8
0
VERTEX
8
0
62
5
10
0.028284289
20
0.55617555
30
0
70
32
0
VERTEX
8
0
62
5
10
0.028284289
20
0.55617555
30
0
70
32
0
SEQEND
8
0
0
POLYLINE
8
0
62
5
66
1
10
0
20
0
30
0
70
8
0
VERTEX
8
0
62
5
10
0.05656856
20
0.55617555
30
0
70
32
0
VERTEX
8
0
62
5
10
0.05656856
20
0.55617555
30
0
70
32
0
SEQEND
8
0
0
POLYLINE
8
0
62
5
66
1
10
0
20
0
30
0
70
8
0
VERTEX
8
0
62
5
10
0.084852831
20
0.55617555
30
0
70
32
0
VERTEX
8
0
62
5
10
0.084852831
20
0.55617555
30
0
70
32
0
SEQEND
8
0
0
POLYLINE
8
0
62
5
66
1
10
0
20
0
30
0
70
8
0
VERTEX
8
0
62
5
10
0.1131371
20
0.55617555
30
0
70
32
0
VERTEX
8
0
62
5
10
0.1131371
20
0.55617555
30
0
70
32
0
SEQEND
8
0
0
POLYLINE
8
0
62
5
66
1
10
0
20
0
30
0
70
8
0
VERTEX
8
0
62
5
10
0.16970564
20
0.54363541
30
0
70
32
0
VERTEX
8
0
62
5
10
0.16970564
20
0.55617555
30
0
70
32
0
SEQEND
8
0
0
POLYLINE
8
0
62
5
66
1
10
0
20
0
30
0
70
8
0
VERTEX
8
0
62
5
10
0.19798992
20
0.54363541
30
0
70
32
0
VERTEX
8
0
62
5
10
0.19798992
20
0.55617555
30
0
70
32
0
SEQEND
8
0
0
POLYLINE
8
0
62
5
66
1
10
0
20
0
30
0
70
8
0
VERTEX
8
0
62
5
10
0.22627419
20
0.54363541
30
0
70
32
0
VERTEX
8
0
62
5
10
0.22627419
20
0.55617555
30
0
70
32
0
SEQEND
8
0
0
POLYLINE
8
0
62
5
66
1
10
0
20
0
30
0
70
8
0
VERTEX
8
0
62
5
10
0.25455846
20
0.54363541
30
0
70
32
0
VERTEX
8
0
62
5
10
0.25455846
20
0.55617555
30
0
70
32
0
SEQEND
8
0
0
POLYLINE
8
0
62
5
66
1
10
0
20
0
30
0
70
8
0
VERTEX
8
0
62
5
10
0.16970564
20
0.54363541
30
0
70
32
0
VERTEX
8
0
62
5
10
0.16970564
20
0.54363541
30
0
70
32
0
SEQEND
8
0
0
POLYLINE
8
0
62
5
66
1
10
0
20
0
30
0
70
8
0
VERTEX
8
0
62
5
10
0.19798992
20
0.54363541
30
0
70
32
0
VERTEX
8
0
62
5
10
0.19798992
20
0.54363541
30
0
70
32
0
SEQEND
8
0
0
POLYLINE
8
0
62
5
66
1
10
0
20
0
30
0
70
8
0
VERTEX
8
0
62
5
10
0.22627419
20
0.54363541
30
0
70
32
0
VERTEX
8
0
62
5
10
0.22627419
20
0.54363541
30
0
70
32
0
SEQEND
8
0
0
POLYLINE
8
0
62
5
66
1
10
0
20
0
30
0
70
8
0
VERTEX
8
0
62
5
10
0.14142137
20
0.55617555
30
0
70
32
0
VERTEX
8
0
62
5
10
0.14142137
20
0.55617555
30
0
70
32
0
SEQEND
8
0
0
POLYLINE
8
0
62
5
66
1
10
0
20
0
30
0
70
8
0
VERTEX
8
0
62
5
10
0.16970564
20
0.55617555
30
0
70
32
0
VERTEX
8
0
62
5
10
0.16970564
20
0.55617555
30
0
70
32
0
SEQEND
8
0
0
POLYLINE
8
0
62
5
66
1
10
0
20
0
30
0
70
8
0
VERTEX
8
0
62
5
10
0.19798992
20
0.55617555
30
0
70
32
0
VERTEX
8
0
62
5
10
0.19798992
20
0.55617555
30
0
70
32
0
SEQEND
8
0
0
POLYLINE
8
0
62
5
66
1
10
0
20
0
30
0
70
8
0
VERTEX
8
0
62
5
10
0.22627419
20
0.55617555
30
0
70
32
0
VERTEX
8
0
62
5
10
0.22627419
20
0.55617555
30
0
70
32
0
SEQEND
8
0
0
POLYLINE
8
0
62
5
66
1
10
0
20
0
30
0
70
8
0
VERTEX
8
0
62
5
10
-0.056568525
20
0.54363541
30
0
70
32
0
VERTEX
8
0
62
5
10
-0.056568525
20
0.55617555
30
0
70
32
0
SEQEND
8
0
0
POLYLINE
8
0
62
5
66
1
10
0
20
0
30
0
70
8
0
VERTEX
8
0
62
5
10
-0.028284254
20
0.54363541
30
0
70
32
0
VERTEX
8
0
62
5
10
-0.028284254
20
0.55617555
30
0
70
32
0
SEQEND
8
0
0
POLYLINE
8
0
62
5
66
1
10
0
20
0
30
0
70
8
0
VERTEX
8
0
62
5
10
1.7254211e-08
20
0.54363541
30
0
70
32
0
VERTEX
8
0
62
5
10
1.7254211e-08
20
0.55617555
30
0
70
32
0
SEQEND
8
0
0
POLYLINE
8
0
62
5
66
1
10
0
20
0
30
0
70
8
0
VERTEX
8
0
62
5
10
0.028284289
20
0.54363541
30
0
70
32
0
VERTEX
8
0
62
5
10
0.028284289
20
0.55617555
30
0
70
32
0
SEQEND
8
0
0
POLYLINE
8
0
62
5
66
1
10
0
20
0
30
0
70
8
0
VERTEX
8
0
62
5
10
-0.056568525
20
0.54363541
30
0
70
32
0
VERTEX
8
0
62
5
10
-0.056568525
20
0.54363541
30
0
70
32
0
SEQEND
8
0
0
POLYLINE
8
0
62
5
66
1
10
0
20
0
30
0
70
8
0
VERTEX
8
0
62
5
10
-0.028284254
20
0.54363541
30
0
70
32
0
VERTEX
8
0
62
5
10
-0.028284254
20
0.54363541
30
0
70
32
0
SEQEND
8
0
0
POLYLINE
8
0
62
5
66
1
10
0
20
0
30
0
70
8
0
VERTEX
8
0
62
5
10
1.7254211e-08
20
0.54363541
30
0
70
32
0
VERTEX
8
0
62
5
10
1.7254211e-08
20
0.54363541
30
0
70
32
0
SEQEND
8
0
0
POLYLINE
8
0
62
5
66
1
10
0
20
0
30
0
70
8
0
VERTEX
8
0
62
5
10
-0.084852796
20
0.55617555
30
0
70
32
0
VERTEX
8
0
62
5
10
-0.084852796
20
0.55617555
30
0
70
32
0
SEQEND
8
0
0
POLYLINE
8
0
62
5
66
1
10
0
20
0
30
0
70
8
0
VERTEX
8
0
62
5
10
-0.056568525
20
0.55617555
30
0
70
32
0
VERTEX
8
0
62
5
10
-0.056568525
20
0.55617555
30
0
70
32
0
SEQEND
8
0
0
POLYLINE
8
0
62
5
66
1
10
0
20
0
30
0
70
8
0
VERTEX
8
0
62
5
10
-0.028284254
20
0.55617555
30
0
70
32
0
VERTEX
8
0
62
5
10
-0.028284254
20
0.55617555
30
0
70
32
0
SEQEND
8
0
0
POLYLINE
8
0
62
5
66
1
10
0
20
0
30
0
70
8
0
VERTEX
8
0
62
5
10
1.7254469e-08
20
0.55617555
30
0
70
32
0
VERTEX
8
0
62
5
10
1.7254469e-08
20
0.55617555
30
0
70
32
0
SEQEND
8
0
0
POLYLINE
8
0
62
5
66
1
10
0
20
0
30
0
70
8
0
VERTEX
8
0
62
5
10
1.7254469e-08
20
0.55617555
30
0
70
32
0
VERTEX
8
0
62
5
10
1.7254469e-08
20
0.60633608
30
0
70
32
0
SEQEND
8
0
0
POLYLINE
8
0
62
5
66
1
10
0
20
0
30
0
70
8
0
VERTEX
8
0
62
5
10
0.1131371
20
0.55617555
30
0
70
32
0
VERTEX
8
0
62
5
10
0.1131371
20
0.60633608
30
0
70
32
0
SEQEND
8
0
0
POLYLINE
8
0
62
5
66
1
10
0
20
0
30
0
70
8
0
VERTEX
8
0
62
5
10
0.028284289
20
0.55617555
30
0
70
32
0
VERTEX
8
0
62
5
10
0.028284289
20
0.60633608
30
0
70
32
0
SEQEND
8
0
0
POLYLINE
8
0
62
5
66
1
10
0
20
0
30
0
70
8
0
VERTEX
8
0
62
5
10
0.05656856
20
0.55617555
30
0
70
32
0
VERTEX
8
0
62
5
10
0.05656856
20
0.60633608
30
0
70
32
0
SEQEND
8
0
0
POLYLINE
8
0
62
5
66
1
10
0
20
0
30
0
70
8
0
VERTEX
8
0
62
5
10
0.084852831
20
0.55617555
30
0
70
32
0
VERTEX
8
0
62
5
10
0.084852831
20
0.60633608
30
0
70
32
0
SEQEND
8
0
0
POLYLINE
8
0
62
5
66
1
10
0
20
0
30
0
70
8
0
VERTEX
8
0
62
5
10
0.22627419
20
0.55617555
30
0
70
32
0
VERTEX
8
0
62
5
10
0.22627419
20
0.60633608
30
0
70
32
0
SEQEND
8
0
0
POLYLINE
8
0
62
5
66
1
10
0
20
0
30
0
70
8
0
VERTEX
8
0
62
5
10
0.14142137
20
0.55617555
30
0
70
32
0
VERTEX
8
0
62
5
10
0.14142137
20
0.60633608
30
0
70
32
0
SEQEND
8
0
0
POLYLINE
8
0
62
5
66
1
10
0
20
0
30
0
70
8
0
VERTEX
8
0
62
5
10
0.16970564
20
0.55617555
30
0
70
32
0
VERTEX
8
0
62
5
10
0.16970564
20
0.60633608
30
0
70
32
0
SEQEND
8
0
0
POLYLINE
8
0
62
5
66
1
10
0
20
0
30
0
70
8
0
VERTEX
8
0
62
5
10
0.19798992
20
0.55617555
30
0
70
32
0
VERTEX
8
0
62
5
10
0.19798992
20
0.60633608
30
0
70
32
0
SEQEND
8
0
0
POLYLINE
8
0
62
5
66
1
10
0
20
0
30
0
70
8
0
VERTEX
8
0
62
5
10
-0.11313707
20
0.55617555
30
0
70
32
0
VERTEX
8
0
62
5
10
-0.11313707
20
0.60633608
30
0
70
32
0
SEQEND
8
0
0
POLYLINE
8
0
62
5
66
1
10
0
20
0
30
0
70
8
0
VERTEX
8
0
62
5
10
-0.084852796
20
0.55617555
30
0
70
32
0
VERTEX
8
0
62
5
10
-0.084852796
20
0.60633608
30
0
70
32
0
SEQEND
8
0
0
POLYLINE
8
0
62
5
66
1
10
0
20
0
30
0
70
8
0
VERTEX
8
0
62
5
10
-0.056568525
20
0.55617555
30
0
70
32
0
VERTEX
8
0
62
5
10
-0.056568525
20
0.60633608
30
0
70
32
0
SEQEND
8
0
0
POLYLINE
8
0
62
5
66
1
10
0
20
0
30
0
70
8
0
VERTEX
8
0
62
5
10
-0.028284254
20
0.55617555
30
0
70
32
0
VERTEX
8
0
62
5
10
-0.028284254
20
0.60633608
30
0
70
32
0
SEQEND
8
0
0
POLYLINE
8
0
62
5
66
1
10
0
20
0
30
0
70
8
0
VERTEX
8
0
62
5
10
1.7254469e-08
20
0.60633608
30
0
70
32
0
VERTEX
8
0
62
5
10
1.7254469e-08
20
0.62337293
30
0
70
32
0
SEQEND
8
0
0
POLYLINE
8
0
62
5
66
1
10
0
20
0
30
0
70
8
0
VERTEX
8
0
62
5
10
0.1131371
20
0.62337293
30
0
70
32
0
VERTEX
8
0
62
5
10
0.1131371
20
0.60633608
30
0
70
32
0
SEQEND
8
0
0
POLYLINE
8
0
62
5
66
1
10
0
20
0
30
0
70
8
0
VERTEX
8
0
62
5
10
1.7254469e-08
20
0.60779761
30
0
70
32
0
VERTEX
8
0
62
5
10
0.028284289
20
0.61485451
30
0
70
32
0
VERTEX
8
0
62
5
10
0.05656856
20
0.61485451
30
0
70
32
0
VERTEX
8
0
62
5
10
0.084852831
20
0.60779761
30
0
70
32
0
VERTEX
8
0
62
5
10
0.1131371
20
0.60779761
30
0
70
32
0
SEQEND
8
0
0
POLYLINE
8
0
62
5
66
1
10
0
20
0
30
0
70
8
0
SEQEND
8
0
0
POLYLINE
8
0
62
5
66
1
10
0
20
0
30
0
70
8
0
VERTEX
8
0
62
5
10
1.7254469e-08
20
0.6219114
30
0
70
32
0
VERTEX
8
0
62
5
10
0.028284289
20
0.61485451
30
0
70
32
0
VERTEX
8
0
62
5
10
0.05656856
20
0.61485451
30
0
70
32
0
VERTEX
8
0
62
5
10
0.084852831
20
0.6219114
30
0
70
32
0
VERTEX
8
0
62
5
10
0.1131371
20
0.6219114
30
0
70
32
0
SEQEND
8
0
0
POLYLINE
8
0
62
30
66
1
10
0
20
0
30
0
70
8
0
VERTEX
8
0
62
30
10
1.7254469e-08
20
0.61485451
30
0
70
32
0
VERTEX
8
0
62
30
10
0.1131371
20
0.61485451
30
0
70
32
0
SEQEND
8
0
0
POLYLINE
8
0
62
30
66
1
10
0
20
0
30
0
70
8
0
VERTEX
8
0
62
30
10
0.028284289
20
0.61485451
30
0
70
32
0
VERTEX
8
0
62
30
10
0.028284289
20
0.61485451
30
0
70
32
0
SEQEND
8
0
0
POLYLINE
8
0
62
30
66
1
10
0
20
0
30
0
70
8
0
VERTEX
8
0
62
30
10
0.05656856
20
0.61485451
30
0
70
32
0
VERTEX
8
0
62
30
10
0.05656856
20
0.61485451
30
0
70
32
0
SEQEND
8
0
0
POLYLINE
8
0
62
30
66
1
10
0
20
0
30
0
70
8
0
VERTEX
8
0
62
30
10
0.084852831
20
0.60779761
30
0
70
32
0
VERTEX
8
0
62
30
10
0.084852831
20
0.61485451
30
0
70
32
0
SEQEND
8
0
0
POLYLINE
8
0
62
5
66
1
10
0
20
0
30
0
70
8
0
VERTEX
8
0
62
5
10
0.028284289
20
0.60633608
30
0
70
32
0
VERTEX
8
0
62
5
10
0.028284289
20
0.61485451
30
0
70
32
0
SEQEND
8
0
0
POLYLINE
8
0
62
5
66
1
10
0
20
0
30
0
70
8
0
VERTEX
8
0
62
5
10
0.05656856
20
0.60633608
30
0
70
32
0
VERTEX
8
0
62
5
10
0.05656856
20
0.61485451
30
0
70
32
0
SEQEND
8
0
0
POLYLINE
8
0
62
5
66
1
10
0
20
0
30
0
70
8
0
VERTEX
8
0
62
5
10
0.084852831
20
0.60633608
30
0
70
32
0
VERTEX
8
0
62
5
10
0.084852831
20
0.60779761
30
0
70
32
0
SEQEND
8
0
0
POLYLINE
8
0
62
5
66
1
10
0
20
0
30
0
70
8
0
VERTEX
8
0
62
5
10
0.028284289
20
0.61485451
30
0
70
32
0
VERTEX
8
0
62
5
10
0.028284289
20
0.62337293
30
0
70
32
0
SEQEND
8
0
0
POLYLINE
8
0
62
5
66
1
10
0
20
0
30
0
70
8
0
VERTEX
8
0
62
5
10
0.05656856
20
0.61485451
30
0
70
32
0
VERTEX
8
0
62
5
10
0.05656856
20
0.62337293
30
0
70
32
0
SEQEND
8
0
0
POLYLINE
8
0
62
5
66
1
10
0
20
0
30
0
70
8
0
VERTEX
8
0
62
5
10
0.084852831
20
0.61485451
30
0
70
32
0
VERTEX
8
0
62
5
10
0.084852831
20
0.62337293
30
0
70
32
0
SEQEND
8
0
0
POLYLINE
8
0
62
30
66
1
10
0
20
0
30
0
70
8
0
VERTEX
8
0
62
30
10
1.7254469e-08
20
0.60779761
30
0
70
32
0
VERTEX
8
0
62
30
10
0.0055125536
20
0.61485451
30
0
70
32
0
VERTEX
8
0
62
30
10
1.7254469e-08
20
0.6219114
30
0
70
32
0
SEQEND
8
0
0
POLYLINE
8
0
62
30
66
1
10
0
20
0
30
0
70
8
0
VERTEX
8
0
62
30
10
0.028284289
20
0.61485451
30
0
70
32
0
VERTEX
8
0
62
30
10
0.028284289
20
0.61485451
30
0
70
32
0
VERTEX
8
0
62
30
10
0.028284289
20
0.61485451
30
0
70
32
0
SEQEND
8
0
0
POLYLINE
8
0
62
30
66
1
10
0
20
0
30
0
70
8
0
VERTEX
8
0
62
30
10
0.05656856
20
0.61485451
30
0
70
32
0
VERTEX
8
0
62
30
10
0.05656856
20
0.61485451
30
0
70
32
0
VERTEX
8
0
62
30
10
0.05656856
20
0.61485451
30
0
70
32
0
SEQEND
8
0
0
POLYLINE
8
0
62
30
66
1
10
0
20
0
30
0
70
8
0
VERTEX
8
0
62
30
10
0.084852831
20
0.60779761
30
0
70
32
0
VERTEX
8
0
62
30
10
0.090365367
20
0.61485451
30
0
70
32
0
VERTEX
8
0
62
30
10
0.084852831
20
0.6219114
30
0
70
32
0
SEQEND
8
0
0
POLYLINE
8
0
62
5
66
1
10
0
20
0
30
0
70
8
0
VERTEX
8
0
62
5
10
0.22627419
20
0.62337293
30
0
70
32
0
VERTEX
8
0
62
5
10
0.22627419
20
0.60633608
30
0
70
32
0
SEQEND
8
0
0
POLYLINE
8
0
62
5
66
1
10
0
20
0
30
0
70
8
0
VERTEX
8
0
62
5
10
0.1131371
20
0.60779761
30
0
70
32
0
VERTEX
8
0
62
5
10
0.14142137
20
0.61485451
30
0
70
32
0
VERTEX
8
0
62
5
10
0.16970564
20
0.61485451
30
0
70
32
0
VERTEX
8
0
62
5
10
0.19798992
20
0.60779761
30
0
70
32
0
VERTEX
8
0
62
5
10
0.22627419
20
0.60779761
30
0
70
32
0
SEQEND
8
0
0
POLYLINE
8
0
62
5
66
1
10
0
20
0
30
0
70
8
0
SEQEND
8
0
0
POLYLINE
8
0
62
5
66
1
10
0
20
0
30
0
70
8
0
VERTEX
8
0
62
5
10
0.1131371
20
0.6219114
30
0
70
32
0
VERTEX
8
0
62
5
10
0.14142137
20
0.61485451
30
0
70
32
0
VERTEX
8
0
62
5
10
0.16970564
20
0.61485451
30
0
70
32
0
VERTEX
8
0
62
5
10
0.19798992
20
0.6219114
30
0
70
32
0
VERTEX
8
0
62
5
10
0.22627419
20
0.6219114
30
0
70
32
0
SEQEND
8
0
0
POLYLINE
8
0
62
30
66
1
10
0
20
0
30
0
70
8
0
VERTEX
8
0
62
30
10
0.1131371
20
0.61485451
30
0
70
32
0
VERTEX
8
0
62
30
10
0.22627419
20
0.61485451
30
0
70
32
0
SEQEND
8
0
0
POLYLINE
8
0
62
30
66
1
10
0
20
0
30
0
70
8
0
VERTEX
8
0
62
30
10
0.14142137
20
0.61485451
30
0
70
32
0
VERTEX
8
0
62
30
10
0.14142137
20
0.61485451
30
0
70
32
0
SEQEND
8
0
0
POLYLINE
8
0
62
30
66
1
10
0
20
0
30
0
70
8
0
VERTEX
8
0
62
30
10
0.16970564
20
0.61485451
30
0
70
32
0
VERTEX
8
0
62
30
10
0.16970564
20
0.61485451
30
0
70
32
0
SEQEND
8
0
0
POLYLINE
8
0
62
30
66
1
10
0
20
0
30
0
70
8
0
VERTEX
8
0
62
30
10
0.19798992
20
0.60779761
30
0
70
32
0
VERTEX
8
0
62
30
10
0.19798992
20
0.61485451
30
0
70
32
0
SEQEND
8
0
0
POLYLINE
8
0
62
5
66
1
10
0
20
0
30
0
70
8
0
VERTEX
8
0
62
5
10
0.14142137
20
0.60633608
30
0
70
32
0
VERTEX
8
0
62
5
10
0.14142137
20
0.61485451
30
0
70
32
0
SEQEND
8
0
0
POLYLINE
8
0
62
5
66
1
10
0
20
0
30
0
70
8
0
VERTEX
8
0
62
5
10
0.16970564
20
0.60633608
30
0
70
32
0
VERTEX
8
0
62
5
10
0.16970564
20
0.61485451
30
0
70
32
0
SEQEND
8
0
0
POLYLINE
8
0
62
5
66
1
10
0
20
0
30
0
70
8
0
VERTEX
8
0
62
5
10
0.19798992
20
0.60633608
30
0
70
32
0
VERTEX
8
0
62
5
10
0.19798992
20
0.60779761
30
0
70
32
0
SEQEND
8
0
0
POLYLINE
8
0
62
5
66
1
10
0
20
0
30
0
70
8
0
VERTEX
8
0
62
5
10
0.14142137
20
0.61485451
30
0
70
32
0
VERTEX
8
0
62
5
10
0.14142137
20
0.62337293
30
0
70
32
0
SEQEND
8
0
0
POLYLINE
8
0
62
5
66
1
10
0
20
0
30
0
70
8
0
VERTEX
8
0
62
5
10
0.16970564
20
0.61485451
30
0
70
32
0
VERTEX
8
0
62
5
10
0.16970564
20
0.62337293
30
0
70
32
0
SEQEND
8
0
0
POLYLINE
8
0
62
5
66
1
10
0
20
0
30
0
70
8
0
VERTEX
8
0
62
5
10
0.19798992
20
0.61485451
30
0
70
32
0
VERTEX
8
0
62
5
10
0.19798992
20
0.62337293
30
0
70
32
0
SEQEND
8
0
0
POLYLINE
8
0
62
30
66
1
10
0
20
0
30
0
70
8
0
VERTEX
8
0
62
30
10
0.1131371
20
0.60779761
30
0
70
32
0
VERTEX
8
0
62
30
10
0.11864964
20
0.61485451
30
0
70
32
0
VERTEX
8
0
62
30
10
0.1131371
20
0.6219114
30
0
70
32
0
SEQEND
8
0
0
POLYLINE
8
0
62
30
66
1
10
0
20
0
30
0
70
8
0
VERTEX
8
0
62
30
10
0.14142137
20
0.61485451
30
0
70
32
0
VERTEX
8
0
62
30
10
0.14142137
20
0.61485451
30
0
70
32
0
VERTEX
8
0
62
30
10
0.14142137
20
0.61485451
30
0
70
32
0
SEQEND
8
0
0
POLYLINE
8
0
62
30
66
1
10
0
20
0
30
0
70
8
0
VERTEX
8
0
62
30
10
0.16970564
20
0.61485451
30
0
70
32
0
VERTEX
8
0
62
30
10
0.16970564
20
0.61485451
30
0
70
32
0
VERTEX
8
0
62
30
10
0.16970564
20
0.61485451
30
0
70
32
0
SEQEND
8
0
0
POLYLINE
8
0
62
30
66
1
10
0
20
0
30
0
70
8
0
VERTEX
8
0
62
30
10
0.19798992
20
0.60779761
30
0
70
32
0
VERTEX
8
0
62
30
10
0.20350245
20
0.61485451
30
0
70
32
0
VERTEX
8
0
62
30
10
0.19798992
20
0.6219114
30
0
70
32
0
SEQEND
8
0
0
POLYLINE
8
0
62
5
66
1
10
0
20
0
30
0
70
8
0
VERTEX
8
0
62
5
10
-0.11313707
20
0.60633608
30
0
70
32
0
VERTEX
8
0
62
5
10
-0.11313707
20
0.62337293
30
0
70
32
0
SEQEND
8
0
0
POLYLINE
8
0
62
5
66
1
10
0
20
0
30
0
70
8
0
VERTEX
8
0
62
5
10
-0.11313707
20
0.60779761
30
0
70
32
0
VERTEX
8
0
62
5
10
-0.084852796
20
0.61485451
30
0
70
32
0
VERTEX
8
0
62
5
10
-0.056568525
20
0.61485451
30
0
70
32
0
VERTEX
8
0
62
5
10
-0.028284254
20
0.60779761
30
0
70
32
0
VERTEX
8
0
62
5
10
1.7254469e-08
20
0.60779761
30
0
70
32
0
SEQEND
8
0
0
POLYLINE
8
0
62
5
66
1
10
0
20
0
30
0
70
8
0
SEQEND
8
0
0
POLYLINE
8
0
62
5
66
1
10
0
20
0
30
0
70
8
0
VERTEX
8
0
62
5
10
-0.11313707
20
0.6219114
30
0
70
32
0
VERTEX
8
0
62
5
10
-0.084852796
20
0.61485451
30
0
70
32
0
VERTEX
8
0
62
5
10
-0.056568525
20
0.61485451
30
0
70
32
0
VERTEX
8
0
62
5
10
-0.028284254
20
0.6219114
30
0
70
32
0
VERTEX
8
0
62
5
10
1.7254469e-08
20
0.6219114
30
0
70
32
0
SEQEND
8
0
0
POLYLINE
8
0
62
30
66
1
10
0
20
0
30
0
70
8
0
VERTEX
8
0
62
30
10
-0.11313707
20
0.61485451
30
0
70
32
0
VERTEX
8
0
62
30
10
1.7254469e-08
20
0.61485451
30
0
70
32
0
SEQEND
8
0
0
POLYLINE
8
0
62
30
66
1
10
0
20
0
30
0
70
8
0
VERTEX
8
0
62
30
10
-0.084852796
20
0.61485451
30
0
70
32
0
VERTEX
8
0
62
30
10
-0.084852796
20
0.61485451
30
0
70
32
0
SEQEND
8
0
0
POLYLINE
8
0
62
30
66
1
10
0
20
0
30
0
70
8
0
VERTEX
8
0
62
30
10
-0.056568525
20
0.61485451
30
0
70
32
0
VERTEX
8
0
62
30
10
-0.056568525
20
0.61485451
30
0
70
32
0
SEQEND
8
0
0
POLYLINE
8
0
62
30
66
1
10
0
20
0
30
0
70
8
0
VERTEX
8
0
62
30
10
-0.028284254
20
0.60779761
30
0
70
32
0
VERTEX
8
0
62
30
10
-0.028284254
20
0.61485451
30
0
70
32
0
SEQEND
8
0
0
POLYLINE
8
0
62
5
66
1
10
0
20
0
30
0
70
8
0
VERTEX
8
0
62
5
10
-0.084852796
20
0.60633608
30
0
70
32
0
VERTEX
8
0
62
5
10
-0.084852796
20
0.61485451
30
0
70
32
0
SEQEND
8
0
0
POLYLINE
8
0
62
5
66
1
10
0
20
0
30
0
70
8
0
VERTEX
8
0
62
5
10
-0.056568525
20
0.60633608
30
0
70
32
0
VERTEX
8
0
62
5
10
-0.056568525
20
0.61485451
30
0
70
32
0
SEQEND
8
0
0
POLYLINE
8
0
62
5
66
1
10
0
20
0
30
0
70
8
0
VERTEX
8
0
62
5
10
-0.028284254
20
0.60633608
30
0
70
32
0
VERTEX
8
0
62
5
10
-0.028284254
20
0.60779761
30
0
70
32
0
SEQEND
8
0
0
POLYLINE
8
0
62
5
66
1
10
0
20
0
30
0
70
8
0
VERTEX
8
0
62
5
10
-0.084852796
20
0.61485451
30
0
70
32
0
VERTEX
8
0
62
5
10
-0.084852796
20
0.62337293
30
0
70
32
0
SEQEND
8
0
0
POLYLINE
8
0
62
5
66
1
10
0
20
0
30
0
70
8
0
VERTEX
8
0
62
5
10
-0.056568525
20
0.61485451
30
0
70
32
0
VERTEX
8
0
62
5
10
-0.056568525
20
0.62337293
30
0
70
32
0
SEQEND
8
0
0
POLYLINE
8
0
62
5
66
1
10
0
20
0
30
0
70
8
0
VERTEX
8
0
62
5
10
-0.028284254
20
0.61485451
30
0
70
32
0
VERTEX
8
0
62
5
10
-0.028284254
20
0.62337293
30
0
70
32
0
SEQEND
8
0
0
POLYLINE
8
0
62
30
66
1
10
0
20
0
30
0
70
8
0
VERTEX
8
0
62
30
10
-0.11313707
20
0.60779761
30
0
70
32
0
VERTEX
8
0
62
30
10
-0.10762453
20
0.61485451
30
0
70
32
0
VERTEX
8
0
62
30
10
-0.11313707
20
0.6219114
30
0
70
32
0
SEQEND
8
0
0
POLYLINE
8
0
62
30
66
1
10
0
20
0
30
0
70
8
0
VERTEX
8
0
62
30
10
-0.084852796
20
0.61485451
30
0
70
32
0
VERTEX
8
0
62
30
10
-0.084852796
20
0.61485451
30
0
70
32
0
VERTEX
8
0
62
30
10
-0.084852796
20
0.61485451
30
0
70
32
0
SEQEND
8
0
0
POLYLINE
8
0
62
30
66
1
10
0
20
0
30
0
70
8
0
VERTEX
8
0
62
30
10
-0.056568525
20
0.61485451
30
0
70
32
0
VERTEX
8
0
62
30
10
-0.056568525
20
0.61485451
30
0
70
32
0
VERTEX
8
0
62
30
10
-0.056568525
20
0.61485451
30
0
70
32
0
SEQEND
8
0
0
POLYLINE
8
0
62
30
66
1
10
0
20
0
30
0
70
8
0
VERTEX
8
0
62
30
10
-0.028284254
20
0.60779761
30
0
70
32
0
VERTEX
8
0
62
30
10
-0.022771718
20
0.61485451
30
0
70
32
0
VERTEX
8
0
62
30
10
-0.028284254
20
0.6219114
30
0
70
32
0
SEQEND
8
0
0
POLYLINE
8
0
62
5
66
1
10
0
20
0
30
0
70
8
0
VERTEX
8
0
62
5
10
1.7254469e-08
20
0.62337293
30
0
70
32
0
VERTEX
8
0
62
5
10
1.7254469e-08
20
0.66337293
30
0
70
32
0
SEQEND
8
0
0
POLYLINE
8
0
62
5
66
1
10
0
20
0
30
0
70
8
0
VERTEX
8
0
62
5
10
0.1131371
20
0.66337293
30
0
70
32
0
VERTEX
8
0
62
5
10
0.1131371
20
0.62337293
30
0
70
32
0
SEQEND
8
0
0
POLYLINE
8
0
62
5
66
1
10
0
20
0
30
0
70
8
0
VERTEX
8
0
62
5
10
1.7254469e-08
20
0.62337293
30
0
70
32
0
VERTEX
8
0
62
5
10
0.1131371
20
0.62337293
30
0
70
32
0
SEQEND
8
0
0
POLYLINE
8
0
62
5
66
1
10
0
20
0
30
0
70
8
0
VERTEX
8
0
62
5
10
1.7254469e-08
20
0.66337293
30
0
70
32
0
VERTEX
8
0
62
5
10
0.1131371
20
0.66337293
30
0
70
32
0
SEQEND
8
0
0
POLYLINE
8
0
62
5
66
1
10
0
20
0
30
0
70
8
0
VERTEX
8
0
62
5
10
0.028284289
20
0.62337293
30
0
70
32
0
VERTEX
8
0
62
5
10
0.028284289
20
0.62337293
30
0
70
32
0
SEQEND
8
0
0
POLYLINE
8
0
62
5
66
1
10
0
20
0
30
0
70
8
0
VERTEX
8
0
62
5
10
0.05656856
20
0.62337293
30
0
70
32
0
VERTEX
8
0
62
5
10
0.05656856
20
0.62337293
30
0
70
32
0
SEQEND
8
0
0
POLYLINE
8
0
62
5
66
1
10
0
20
0
30
0
70
8
0
VERTEX
8
0
62
5
10
0.084852831
20
0.62337293
30
0
70
32
0
VERTEX
8
0
62
5
10
0.084852831
20
0.62337293
30
0
70
32
0
SEQEND
8
0
0
POLYLINE
8
0
62
5
66
1
10
0
20
0
30
0
70
8
0
VERTEX
8
0
62
5
10
0.028284289
20
0.66337293
30
0
70
32
0
VERTEX
8
0
62
5
10
0.028284289
20
0.66337293
30
0
70
32
0
SEQEND
8
0
0
POLYLINE
8
0
62
5
66
1
10
0
20
0
30
0
70
8
0
VERTEX
8
0
62
5
10
0.05656856
20
0.66337293
30
0
70
32
0
VERTEX
8
0
62
5
10
0.05656856
20
0.66337293
30
0
70
32
0
SEQEND
8
0
0
POLYLINE
8
0
62
5
66
1
10
0
20
0
30
0
70
8
0
VERTEX
8
0
62
5
10
0.084852831
20
0.66337293
30
0
70
32
0
VERTEX
8
0
62
5
10
0.084852831
20
0.66337293
30
0
70
32
0
SEQEND
8
0
0
POLYLINE
8
0
62
30
66
1
10
0
20
0
30
0
70
8
0
VERTEX
8
0
62
30
10
1.7254469e-08
20
0.62337293
30
0
70
32
0
VERTEX
8
0
62
30
10
0.014142153
20
0.64337293
30
0
70
32
0
SEQEND
8
0
0
POLYLINE
8
0
62
30
66
1
10
0
20
0
30
0
70
8
0
VERTEX
8
0
62
30
10
0.014142153
20
0.64337293
30
0
70
32
0
VERTEX
8
0
62
30
10
0.028284289
20
0.62337293
30
0
70
32
0
SEQEND
8
0
0
POLYLINE
8
0
62
30
66
1
10
0
20
0
30
0
70
8
0
VERTEX
8
0
62
30
10
0.05656856
20
0.62337293
30
0
70
32
0
VERTEX
8
0
62
30
10
0.070710695
20
0.64337293
30
0
70
32
0
SEQEND
8
0
0
POLYLINE
8
0
62
30
66
1
10
0
20
0
30
0
70
8
0
VERTEX
8
0
62
30
10
0.070710695
20
0.64337293
30
0
70
32
0
VERTEX
8
0
62
30
10
0.084852831
20
0.62337293
30
0
70
32
0
SEQEND
8
0
0
POLYLINE
8
0
62
30
66
1
10
0
20
0
30
0
70
8
0
VERTEX
8
0
62
30
10
0.028284289
20
0.64337293
30
0
70
32
0
VERTEX
8
0
62
30
10
0.05656856
20
0.64337293
30
0
70
32
0
SEQEND
8
0
0
POLYLINE
8
0
62
30
66
1
10
0
20
0
30
0
70
8
0
VERTEX
8
0
62
30
10
0.084852831
20
0.64337293
30
0
70
32
0
VERTEX
8
0
62
30
10
0.1131371
20
0.64337293
30
0
70
32
0
SEQEND
8
0
0
POLYLINE
8
0
62
5
66
1
10
0
20
0
30
0
70
8
0
VERTEX
8
0
62
5
10
1.7254469e-08
20
0.64337293
30
0
70
32
0
VERTEX
8
0
62
5
10
0.014142153
20
0.64337293
30
0
70
32
0
SEQEND
8
0
0
POLYLINE
8
0
62
5
66
1
10
0
20
0
30
0
70
8
0
VERTEX
8
0
62
5
10
0.05656856
20
0.64337293
30
0
70
32
0
VERTEX
8
0
62
5
10
0.070710695
20
0.64337293
30
0
70
32
0
SEQEND
8
0
0
POLYLINE
8
0
62
5
66
1
10
0
20
0
30
0
70
8
0
VERTEX
8
0
62
5
10
0.014142153
20
0.64337293
30
0
70
32
0
VERTEX
8
0
62
5
10
0.028284289
20
0.64337293
30
0
70
32
0
SEQEND
8
0
0
POLYLINE
8
0
62
5
66
1
10
0
20
0
30
0
70
8
0
VERTEX
8
0
62
5
10
0.070710695
20
0.64337293
30
0
70
32
0
VERTEX
8
0
62
5
10
0.084852831
20
0.64337293
30
0
70
32
0
SEQEND
8
0
0
POLYLINE
8
0
62
5
66
1
10
0
20
0
30
0
70
8
0
VERTEX
8
0
62
5
10
0.028284289
20
0.62337293
30
0
70
32
0
VERTEX
8
0
62
5
10
0.028284289
20
0.66337293
30
0
70
32
0
SEQEND
8
0
0
POLYLINE
8
0
62
5
66
1
10
0
20
0
30
0
70
8
0
VERTEX
8
0
62
5
10
0.05656856
20
0.62337293
30
0
70
32
0
VERTEX
8
0
62
5
10
0.05656856
20
0.66337293
30
0
70
32
0
SEQEND
8
0
0
POLYLINE
8
0
62
5
66
1
10
0
20
0
30
0
70
8
0
VERTEX
8
0
62
5
10
0.084852831
20
0.62337293
30
0
70
32
0
VERTEX
8
0
62
5
10
0.084852831
20
0.66337293
30
0
70
32
0
SEQEND
8
0
0
POLYLINE
8
0
62
5
66
1
10
0
20
0
30
0
70
8
0
VERTEX
8
0
62
5
10
1.7254469e-08
20
0.62337293
30
0
70
32
0
VERTEX
8
0
62
5
10
1.7254469e-08
20
0.66337293
30
0
70
32
0
SEQEND
8
0
0
POLYLINE
8
0
62
5
66
1
10
0
20
0
30
0
70
8
0
VERTEX
8
0
62
5
10
0.22627419
20
0.66337293
30
0
70
32
0
VERTEX
8
0
62
5
10
0.22627419
20
0.62337293
30
0
70
32
0
SEQEND
8
0
0
POLYLINE
8
0
62
5
66
1
10
0
20
0
30
0
70
8
0
VERTEX
8
0
62
5
10
0.1131371
20
0.62337293
30
0
70
32
0
VERTEX
8
0
62
5
10
0.22627419
20
0.62337293
30
0
70
32
0
SEQEND
8
0
0
POLYLINE
8
0
62
5
66
1
10
0
20
0
30
0
70
8
0
VERTEX
8
0
62
5
10
0.1131371
20
0.66337293
30
0
70
32
0
VERTEX
8
0
62
5
10
0.22627419
20
0.66337293
30
0
70
32
0
SEQEND
8
0
0
POLYLINE
8
0
62
5
66
1
10
0
20
0
30
0
70
8
0
VERTEX
8
0
62
5
10
0.14142137
20
0.62337293
30
0
70
32
0
VERTEX
8
0
62
5
10
0.14142137
20
0.62337293
30
0
70
32
0
SEQEND
8
0
0
POLYLINE
8
0
62
5
66
1
10
0
20
0
30
0
70
8
0
VERTEX
8
0
62
5
10
0.16970564
20
0.62337293
30
0
70
32
0
VERTEX
8
0
62
5
10
0.16970564
20
0.62337293
30
0
70
32
0
SEQEND
8
0
0
POLYLINE
8
0
62
5
66
1
10
0
20
0
30
0
70
8
0
VERTEX
8
0
62
5
10
0.19798992
20
0.62337293
30
0
70
32
0
VERTEX
8
0
62
5
10
0.19798992
20
0.62337293
30
0
70
32
0
SEQEND
8
0
0
POLYLINE
8
0
62
5
66
1
10
0
20
0
30
0
70
8
0
VERTEX
8
0
62
5
10
0.14142137
20
0.66337293
30
0
70
32
0
VERTEX
8
0
62
5
10
0.14142137
20
0.66337293
30
0
70
32
0
SEQEND
8
0
0
POLYLINE
8
0
62
5
66
1
10
0
20
0
30
0
70
8
0
VERTEX
8
0
62
5
10
0.16970564
20
0.66337293
30
0
70
32
0
VERTEX
8
0
62
5
10
0.16970564
20
0.66337293
30
0
70
32
0
SEQEND
8
0
0
POLYLINE
8
0
62
5
66
1
10
0
20
0
30
0
70
8
0
VERTEX
8
0
62
5
10
0.19798992
20
0.66337293
30
0
70
32
0
VERTEX
8
0
62
5
10
0.19798992
20
0.66337293
30
0
70
32
0
SEQEND
8
0
0
POLYLINE
8
0
62
30
66
1
10
0
20
0
30
0
70
8
0
VERTEX
8
0
62
30
10
0.1131371
20
0.62337293
30
0
70
32
0
VERTEX
8
0
62
30
10
0.12727924
20
0.64337293
30
0
70
32
0
SEQEND
8
0
0
POLYLINE
8
0
62
30
66
1
10
0
20
0
30
0
70
8
0
VERTEX
8
0
62
30
10
0.12727924
20
0.64337293
30
0
70
32
0
VERTEX
8
0
62
30
10
0.14142137
20
0.62337293
30
0
70
32
0
SEQEND
8
0
0
POLYLINE
8
0
62
30
66
1
10
0
20
0
30
0
70
8
0
VERTEX
8
0
62
30
10
0.16970564
20
0.62337293
30
0
70
32
0
VERTEX
8
0
62
30
10
0.18384778
20
0.64337293
30
0
70
32
0
SEQEND
8
0
0
POLYLINE
8
0
62
30
66
1
10
0
20
0
30
0
70
8
0
VERTEX
8
0
62
30
10
0.18384778
20
0.64337293
30
0
70
32
0
VERTEX
8
0
62
30
10
0.19798992
20
0.62337293
30
0
70
32
0
SEQEND
8
0
0
POLYLINE
8
0
62
30
66
1
10
0
20
0
30
0
70
8
0
VERTEX
8
0
62
30
10
0.14142137
20
0.64337293
30
0
70
32
0
VERTEX
8
0
62
30
10
0.16970564
20
0.64337293
30
0
70
32
0
SEQEND
8
0
0
POLYLINE
8
0
62
30
66
1
10
0
20
0
30
0
70
8
0
VERTEX
8
0
62
30
10
0.19798992
20
0.64337293
30
0
70
32
0
VERTEX
8
0
62
30
10
0.22627419
20
0.64337293
30
0
70
32
0
SEQEND
8
0
0
POLYLINE
8
0
62
5
66
1
10
0
20
0
30
0
70
8
0
VERTEX
8
0
62
5
10
0.1131371
20
0.64337293
30
0
70
32
0
VERTEX
8
0
62
5
10
0.12727924
20
0.64337293
30
0
70
32
0
SEQEND
8
0
0
POLYLINE
8
0
62
5
66
1
10
0
20
0
30
0
70
8
0
VERTEX
8
0
62
5
10
0.16970564
20
0.64337293
30
0
70
32
0
VERTEX
8
0
62
5
10
0.18384778
20
0.64337293
30
0
70
32
0
SEQEND
8
0
0
POLYLINE
8
0
62
5
66
1
10
0
20
0
30
0
70
8
0
VERTEX
8
0
62
5
10
0.12727924
20
0.64337293
30
0
70
32
0
VERTEX
8
0
62
5
10
0.14142137
20
0.64337293
30
0
70
32
0
SEQEND
8
0
0
POLYLINE
8
0
62
5
66
1
10
0
20
0
30
0
70
8
0
VERTEX
8
0
62
5
10
0.18384778
20
0.64337293
30
0
70
32
0
VERTEX
8
0
62
5
10
0.19798992
20
0.64337293
30
0
70
32
0
SEQEND
8
0
0
POLYLINE
8
0
62
5
66
1
10
0
20
0
30
0
70
8
0
VERTEX
8
0
62
5
10
0.14142137
20
0.62337293
30
0
70
32
0
VERTEX
8
0
62
5
10
0.14142137
20
0.66337293
30
0
70
32
0
SEQEND
8
0
0
POLYLINE
8
0
62
5
66
1
10
0
20
0
30
0
70
8
0
VERTEX
8
0
62
5
10
0.16970564
20
0.62337293
30
0
70
32
0
VERTEX
8
0
62
5
10
0.16970564
20
0.66337293
30
0
70
32
0
SEQEND
8
0
0
POLYLINE
8
0
62
5
66
1
10
0
20
0
30
0
70
8
0
VERTEX
8
0
62
5
10
0.19798992
20
0.62337293
30
0
70
32
0
VERTEX
8
0
62
5
10
0.19798992
20
0.66337293
30
0
70
32
0
SEQEND
8
0
0
POLYLINE
8
0
62
5
66
1
10
0
20
0
30
0
70
8
0
VERTEX
8
0
62
5
10
0.1131371
20
0.62337293
30
0
70
32
0
VERTEX
8
0
62
5
10
0.1131371
20
0.66337293
30
0
70
32
0
SEQEND
8
0
0
POLYLINE
8
0
62
5
66
1
10
0
20
0
30
0
70
8
0
VERTEX
8
0
62
5
10
-0.11313707
20
0.62337293
30
0
70
32
0
VERTEX
8
0
62
5
10
-0.11313707
20
0.66337293
30
0
70
32
0
SEQEND
8
0
0
POLYLINE
8
0
62
5
66
1
10
0
20
0
30
0
70
8
0
VERTEX
8
0
62
5
10
-0.11313707
20
0.62337293
30
0
70
32
0
VERTEX
8
0
62
5
10
1.7254469e-08
20
0.62337293
30
0
70
32
0
SEQEND
8
0
0
POLYLINE
8
0
62
5
66
1
10
0
20
0
30
0
70
8
0
VERTEX
8
0
62
5
10
-0.11313707
20
0.66337293
30
0
70
32
0
VERTEX
8
0
62
5
10
1.7254469e-08
20
0.66337293
30
0
70
32
0
SEQEND
8
0
0
POLYLINE
8
0
62
5
66
1
10
0
20
0
30
0
70
8
0
VERTEX
8
0
62
5
10
-0.084852796
20
0.62337293
30
0
70
32
0
VERTEX
8
0
62
5
10
-0.084852796
20
0.62337293
30
0
70
32
0
SEQEND
8
0
0
POLYLINE
8
0
62
5
66
1
10
0
20
0
30
0
70
8
0
VERTEX
8
0
62
5
10
-0.056568525
20
0.62337293
30
0
70
32
0
VERTEX
8
0
62
5
10
-0.056568525
20
0.62337293
30
0
70
32
0
SEQEND
8
0
0
POLYLINE
8
0
62
5
66
1
10
0
20
0
30
0
70
8
0
VERTEX
8
0
62
5
10
-0.028284254
20
0.62337293
30
0
70
32
0
VERTEX
8
0
62
5
10
-0.028284254
20
0.62337293
30
0
70
32
0
SEQEND
8
0
0
POLYLINE
8
0
62
5
66
1
10
0
20
0
30
0
70
8
0
VERTEX
8
0
62
5
10
-0.084852796
20
0.66337293
30
0
70
32
0
VERTEX
8
0
62
5
10
-0.084852796
20
0.66337293
30
0
70
32
0
SEQEND
8
0
0
POLYLINE
8
0
62
5
66
1
10
0
20
0
30
0
70
8
0
VERTEX
8
0
62
5
10
-0.056568525
20
0.66337293
30
0
70
32
0
VERTEX
8
0
62
5
10
-0.056568525
20
0.66337293
30
0
70
32
0
SEQEND
8
0
0
POLYLINE
8
0
62
5
66
1
10
0
20
0
30
0
70
8
0
VERTEX
8
0
62
5
10
-0.028284254
20
0.66337293
30
0
70
32
0
VERTEX
8
0
62
5
10
-0.028284254
20
0.66337293
30
0
70
32
0
SEQEND
8
0
0
POLYLINE
8
0
62
30
66
1
10
0
20
0
30
0
70
8
0
VERTEX
8
0
62
30
10
-0.11313707
20
0.62337293
30
0
70
32
0
VERTEX
8
0
62
30
10
-0.098994932
20
0.64337293
30
0
70
32
0
SEQEND
8
0
0
POLYLINE
8
0
62
30
66
1
10
0
20
0
30
0
70
8
0
VERTEX
8
0
62
30
10
-0.098994932
20
0.64337293
30
0
70
32
0
VERTEX
8
0
62
30
10
-0.084852796
20
0.62337293
30
0
70
32
0
SEQEND
8
0
0
POLYLINE
8
0
62
30
66
1
10
0
20
0
30
0
70
8
0
VERTEX
8
0
62
30
10
-0.056568525
20
0.62337293
30
0
70
32
0
VERTEX
8
0
62
30
10
-0.04242639
20
0.64337293
30
0
70
32
0
SEQEND
8
0
0
POLYLINE
8
0
62
30
66
1
10
0
20
0
30
0
70
8
0
VERTEX
8
0
62
30
10
-0.04242639
20
0.64337293
30
0
70
32
0
VERTEX
8
0
62
30
10
-0.028284254
20
0.62337293
30
0
70
32
0
SEQEND
8
0
0
POLYLINE
8
0
62
30
66
1
10
0
20
0
30
0
70
8
0
VERTEX
8
0
62
30
10
-0.084852796
20
0.64337293
30
0
70
32
0
VERTEX
8
0
62
30
10
-0.056568525
20
0.64337293
30
0
70
32
0
SEQEND
8
0
0
POLYLINE
8
0
62
30
66
1
10
0
20
0
30
0
70
8
0
VERTEX
8
0
62
30
10
-0.028284254
20
0.64337293
30
0
70
32
0
VERTEX
8
0
62
30
10
1.7254469e-08
20
0.64337293
30
0
70
32
0
SEQEND
8
0
0
POLYLINE
8
0
62
5
66
1
10
0
20
0
30
0
70
8
0
VERTEX
8
0
62
5
10
-0.11313707
20
0.64337293
30
0
70
32
0
VERTEX
8
0
62
5
10
-0.098994932
20
0.64337293
30
0
70
32
0
SEQEND
8
0
0
POLYLINE
8
0
62
5
66
1
10
0
20
0
30
0
70
8
0
VERTEX
8
0
62
5
10
-0.056568525
20
0.64337293
30
0
70
32
0
VERTEX
8
0
62
5
10
-0.04242639
20
0.64337293
30
0
70
32
0
SEQEND
8
0
0
POLYLINE
8
0
62
5
66
1
10
0
20
0
30
0
70
8
0
VERTEX
8
0
62
5
10
-0.098994932
20
0.64337293
30
0
70
32
0
VERTEX
8
0
62
5
10
-0.084852796
20
0.64337293
30
0
70
32
0
SEQEND
8
0
0
POLYLINE
8
0
62
5
66
1
10
0
20
0
30
0
70
8
0
VERTEX
8
0
62
5
10
-0.04242639
20
0.64337293
30
0
70
32
0
VERTEX
8
0
62
5
10
-0.028284254
20
0.64337293
30
0
70
32
0
SEQEND
8
0
0
POLYLINE
8
0
62
5
66
1
10
0
20
0
30
0
70
8
0
VERTEX
8
0
62
5
10
-0.084852796
20
0.62337293
30
0
70
32
0
VERTEX
8
0
62
5
10
-0.084852796
20
0.66337293
30
0
70
32
0
SEQEND
8
0
0
POLYLINE
8
0
62
5
66
1
10
0
20
0
30
0
70
8
0
VERTEX
8
0
62
5
10
-0.056568525
20
0.62337293
30
0
70
32
0
VERTEX
8
0
62
5
10
-0.056568525
20
0.66337293
30
0
70
32
0
SEQEND
8
0
0
POLYLINE
8
0
62
5
66
1
10
0
20
0
30
0
70
8
0
VERTEX
8
0
62
5
10
-0.028284254
20
0.62337293
30
0
70
32
0
VERTEX
8
0
62
5
10
-0.028284254
20
0.66337293
30
0
70
32
0
SEQEND
8
0
0
POLYLINE
8
0
62
5
66
1
10
0
20
0
30
0
70
8
0
VERTEX
8
0
62
5
10
-0.11313707
20
0.62337293
30
0
70
32
0
VERTEX
8
0
62
5
10
-0.11313707
20
0.66337293
30
0
70
32
0
SEQEND
8
0
0
POLYLINE
8
0
62
18
66
1
10
0
20
0
30
0
70
8
0
VERTEX
8
0
62
18
10
0.14142136
20
0
30
0
70
32
0
VERTEX
8
0
62
18
10
0
20
0
30
0
70
32
0
VERTEX
8
0
62
18
10
0
20
0.66337293
30
0
70
32
0
VERTEX
8
0
62
18
10
0.14142136
20
0.66337293
30
0
70
32
0
VERTEX
8
0
62
18
10
0.14142136
20
0
30
0
70
32
0
SEQEND
8
0
0
ENDSEC
0
EOF
